<?xml version="1.0" encoding="UTF-8" standalone="no"?>
<!DOCTYPE svg PUBLIC "-//W3C//DTD SVG 1.1//EN"
 "http://www.w3.org/Graphics/SVG/1.1/DTD/svg11.dtd">
<!-- Generated by graphviz version 2.43.0 (0)
 -->
<!-- Title: firmware/wombat/src/CAT_M1.cpp Pages: 1 -->
<svg width="835pt" height="269pt"
 viewBox="0.00 0.00 835.00 269.00" xmlns="http://www.w3.org/2000/svg" xmlns:xlink="http://www.w3.org/1999/xlink">
<g id="graph0" class="graph" transform="scale(1 1) rotate(0) translate(4 265)">
<title>firmware/wombat/src/CAT_M1.cpp</title>
<!-- Node1 -->
<g id="node1" class="node">
<title>Node1</title>
<g id="a_node1"><a xlink:title=" ">
<polygon fill="#999999" stroke="#666666" points="458.5,-261 338.5,-261 338.5,-231 458.5,-231 458.5,-261"/>
<text text-anchor="start" x="346.5" y="-249" font-family="Helvetica,sans-Serif" font-size="10.00">firmware/wombat/src</text>
<text text-anchor="middle" x="398.5" y="-238" font-family="Helvetica,sans-Serif" font-size="10.00">/CAT_M1.cpp</text>
</a>
</g>
</g>
<!-- Node2 -->
<g id="node2" class="node">
<title>Node2</title>
<g id="a_node2"><a xlink:href="_c_a_t___m1_8h.html" target="_top" xlink:title=" ">
<polygon fill="white" stroke="#666666" points="65,-134.5 0,-134.5 0,-115.5 65,-115.5 65,-134.5"/>
<text text-anchor="middle" x="32.5" y="-122.5" font-family="Helvetica,sans-Serif" font-size="10.00">CAT_M1.h</text>
</a>
</g>
</g>
<!-- Node1&#45;&gt;Node2 -->
<g id="edge1" class="edge">
<title>Node1&#45;&gt;Node2</title>
<path fill="none" stroke="#63b8ff" d="M354.27,-230.97C291.66,-211.04 173.66,-173.28 73.5,-140 71.27,-139.26 68.98,-138.49 66.67,-137.71"/>
<polygon fill="#63b8ff" stroke="#63b8ff" points="67.79,-134.4 57.19,-134.51 65.54,-141.03 67.79,-134.4"/>
</g>
<!-- Node6 -->
<g id="node6" class="node">
<title>Node6</title>
<g id="a_node6"><a xlink:title=" ">
<polygon fill="#e0e0e0" stroke="#999999" points="540.5,-140 410.5,-140 410.5,-110 540.5,-110 540.5,-140"/>
<text text-anchor="start" x="418.5" y="-128" font-family="Helvetica,sans-Serif" font-size="10.00">SparkFun_u&#45;blox_SARA</text>
<text text-anchor="middle" x="475.5" y="-117" font-family="Helvetica,sans-Serif" font-size="10.00">&#45;R5_Arduino_Library.h</text>
</a>
</g>
</g>
<!-- Node1&#45;&gt;Node6 -->
<g id="edge6" class="edge">
<title>Node1&#45;&gt;Node6</title>
<path fill="none" stroke="#63b8ff" d="M407.64,-230.88C420.78,-210.57 445.15,-172.9 460.83,-148.67"/>
<polygon fill="#63b8ff" stroke="#63b8ff" points="463.88,-150.4 466.38,-140.1 458.01,-146.59 463.88,-150.4"/>
</g>
<!-- Node7 -->
<g id="node7" class="node">
<title>Node7</title>
<g id="a_node7"><a xlink:href="_utils_8h.html" target="_top" xlink:title=" ">
<polygon fill="white" stroke="#666666" points="654.5,-195 606.5,-195 606.5,-176 654.5,-176 654.5,-195"/>
<text text-anchor="middle" x="630.5" y="-183" font-family="Helvetica,sans-Serif" font-size="10.00">Utils.h</text>
</a>
</g>
</g>
<!-- Node1&#45;&gt;Node7 -->
<g id="edge7" class="edge">
<title>Node1&#45;&gt;Node7</title>
<path fill="none" stroke="#63b8ff" d="M454.07,-230.99C498.43,-219.8 559.14,-204.49 596.54,-195.06"/>
<polygon fill="#63b8ff" stroke="#63b8ff" points="597.6,-198.41 606.44,-192.57 595.89,-191.62 597.6,-198.41"/>
</g>
<!-- Node11 -->
<g id="node11" class="node">
<title>Node11</title>
<g id="a_node11"><a xlink:href="globals_8h.html" target="_top" xlink:title=" ">
<polygon fill="white" stroke="#666666" points="353,-195 292,-195 292,-176 353,-176 353,-195"/>
<text text-anchor="middle" x="322.5" y="-183" font-family="Helvetica,sans-Serif" font-size="10.00">globals.h</text>
</a>
</g>
</g>
<!-- Node1&#45;&gt;Node11 -->
<g id="edge11" class="edge">
<title>Node1&#45;&gt;Node11</title>
<path fill="none" stroke="#63b8ff" d="M380.1,-230.84C368.62,-222 353.85,-210.63 342.14,-201.62"/>
<polygon fill="#63b8ff" stroke="#63b8ff" points="343.95,-198.59 333.89,-195.27 339.68,-204.14 343.95,-198.59"/>
</g>
<!-- Node3 -->
<g id="node3" class="node">
<title>Node3</title>
<g id="a_node3"><a xlink:title=" ">
<polygon fill="#e0e0e0" stroke="#999999" points="82.5,-19 34.5,-19 34.5,0 82.5,0 82.5,-19"/>
<text text-anchor="middle" x="58.5" y="-7" font-family="Helvetica,sans-Serif" font-size="10.00">Wire.h</text>
</a>
</g>
</g>
<!-- Node2&#45;&gt;Node3 -->
<g id="edge2" class="edge">
<title>Node2&#45;&gt;Node3</title>
<path fill="none" stroke="#63b8ff" d="M34.45,-115.47C38.63,-97.23 48.52,-54.07 54.23,-29.14"/>
<polygon fill="#63b8ff" stroke="#63b8ff" points="57.7,-29.66 56.52,-19.13 50.88,-28.1 57.7,-29.66"/>
</g>
<!-- Node4 -->
<g id="node4" class="node">
<title>Node4</title>
<g id="a_node4"><a xlink:href="_t_c_a9534_8h.html" target="_top" xlink:title=" ">
<polygon fill="white" stroke="#666666" points="128.5,-74 60.5,-74 60.5,-55 128.5,-55 128.5,-74"/>
<text text-anchor="middle" x="94.5" y="-62" font-family="Helvetica,sans-Serif" font-size="10.00">TCA9534.h</text>
</a>
</g>
</g>
<!-- Node2&#45;&gt;Node4 -->
<g id="edge3" class="edge">
<title>Node2&#45;&gt;Node4</title>
<path fill="none" stroke="#63b8ff" d="M41.65,-115.37C51.17,-106.38 66.3,-92.11 77.93,-81.14"/>
<polygon fill="#63b8ff" stroke="#63b8ff" points="80.44,-83.58 85.31,-74.17 75.64,-78.48 80.44,-83.58"/>
</g>
<!-- Node4&#45;&gt;Node3 -->
<g id="edge5" class="edge">
<title>Node4&#45;&gt;Node3</title>
<path fill="none" stroke="#63b8ff" d="M88.56,-54.75C83.52,-47.34 76.16,-36.5 69.99,-27.41"/>
<polygon fill="#63b8ff" stroke="#63b8ff" points="72.85,-25.39 64.33,-19.09 67.06,-29.33 72.85,-25.39"/>
</g>
<!-- Node5 -->
<g id="node5" class="node">
<title>Node5</title>
<g id="a_node5"><a xlink:title=" ">
<polygon fill="#e0e0e0" stroke="#999999" points="190,-19 127,-19 127,0 190,0 190,-19"/>
<text text-anchor="middle" x="158.5" y="-7" font-family="Helvetica,sans-Serif" font-size="10.00">Arduino.h</text>
</a>
</g>
</g>
<!-- Node4&#45;&gt;Node5 -->
<g id="edge4" class="edge">
<title>Node4&#45;&gt;Node5</title>
<path fill="none" stroke="#63b8ff" d="M104.78,-54.98C114.34,-47.07 128.78,-35.11 140.28,-25.58"/>
<polygon fill="#63b8ff" stroke="#63b8ff" points="142.56,-28.24 148.03,-19.17 138.1,-22.85 142.56,-28.24"/>
</g>
<!-- Node8 -->
<g id="node8" class="node">
<title>Node8</title>
<g id="a_node8"><a xlink:title=" ">
<polygon fill="#e0e0e0" stroke="#999999" points="614.5,-134.5 558.5,-134.5 558.5,-115.5 614.5,-115.5 614.5,-134.5"/>
<text text-anchor="middle" x="586.5" y="-122.5" font-family="Helvetica,sans-Serif" font-size="10.00">stddef.h</text>
</a>
</g>
</g>
<!-- Node7&#45;&gt;Node8 -->
<g id="edge8" class="edge">
<title>Node7&#45;&gt;Node8</title>
<path fill="none" stroke="#63b8ff" d="M624.01,-175.87C617.51,-167.23 607.34,-153.7 599.22,-142.92"/>
<polygon fill="#63b8ff" stroke="#63b8ff" points="601.83,-140.56 593.02,-134.67 596.23,-144.76 601.83,-140.56"/>
</g>
<!-- Node9 -->
<g id="node9" class="node">
<title>Node9</title>
<g id="a_node9"><a xlink:title=" ">
<polygon fill="#e0e0e0" stroke="#999999" points="716,-134.5 633,-134.5 633,-115.5 716,-115.5 716,-134.5"/>
<text text-anchor="middle" x="674.5" y="-122.5" font-family="Helvetica,sans-Serif" font-size="10.00">ArduinoJson.h</text>
</a>
</g>
</g>
<!-- Node7&#45;&gt;Node9 -->
<g id="edge9" class="edge">
<title>Node7&#45;&gt;Node9</title>
<path fill="none" stroke="#63b8ff" d="M636.99,-175.87C643.49,-167.23 653.66,-153.7 661.78,-142.92"/>
<polygon fill="#63b8ff" stroke="#63b8ff" points="664.77,-144.76 667.98,-134.67 659.17,-140.56 664.77,-144.76"/>
</g>
<!-- Node10 -->
<g id="node10" class="node">
<title>Node10</title>
<g id="a_node10"><a xlink:title=" ">
<polygon fill="#e0e0e0" stroke="#999999" points="827,-134.5 734,-134.5 734,-115.5 827,-115.5 827,-134.5"/>
<text text-anchor="middle" x="780.5" y="-122.5" font-family="Helvetica,sans-Serif" font-size="10.00">dpiclimate&#45;12.h</text>
</a>
</g>
</g>
<!-- Node7&#45;&gt;Node10 -->
<g id="edge10" class="edge">
<title>Node7&#45;&gt;Node10</title>
<path fill="none" stroke="#63b8ff" d="M652.31,-175.99C677.75,-166.07 720.01,-149.59 749.01,-138.28"/>
<polygon fill="#63b8ff" stroke="#63b8ff" points="750.62,-141.41 758.66,-134.52 748.07,-134.89 750.62,-141.41"/>
</g>
<!-- Node11&#45;&gt;Node2 -->
<g id="edge19" class="edge">
<title>Node11&#45;&gt;Node2</title>
<path fill="none" stroke="#63b8ff" d="M291.9,-180.56C244.6,-174.13 151.09,-160.06 73.5,-140 70.86,-139.32 68.15,-138.55 65.43,-137.73"/>
<polygon fill="#63b8ff" stroke="#63b8ff" points="66.32,-134.34 55.73,-134.62 64.18,-141 66.32,-134.34"/>
</g>
<!-- Node11&#45;&gt;Node6 -->
<g id="edge18" class="edge">
<title>Node11&#45;&gt;Node6</title>
<path fill="none" stroke="#63b8ff" d="M344.75,-175.99C366.77,-167.57 401.14,-154.43 429.12,-143.73"/>
<polygon fill="#63b8ff" stroke="#63b8ff" points="430.63,-146.9 438.72,-140.06 428.13,-140.37 430.63,-146.9"/>
</g>
<!-- Node12 -->
<g id="node12" class="node">
<title>Node12</title>
<g id="a_node12"><a xlink:href="battery_8h.html" target="_top" xlink:title="Battery voltage and current monitoring using INA219 IC.">
<polygon fill="white" stroke="#666666" points="234,-134.5 83,-134.5 83,-115.5 234,-115.5 234,-134.5"/>
<text text-anchor="middle" x="158.5" y="-122.5" font-family="Helvetica,sans-Serif" font-size="10.00">power_monitoring/battery.h</text>
</a>
</g>
</g>
<!-- Node11&#45;&gt;Node12 -->
<g id="edge12" class="edge">
<title>Node11&#45;&gt;Node12</title>
<path fill="none" stroke="#63b8ff" d="M298.65,-175.99C270.6,-165.99 223.83,-149.3 192.1,-137.99"/>
<polygon fill="#63b8ff" stroke="#63b8ff" points="192.97,-134.58 182.38,-134.52 190.62,-141.17 192.97,-134.58"/>
</g>
<!-- Node14 -->
<g id="node14" class="node">
<title>Node14</title>
<g id="a_node14"><a xlink:href="solar_8h.html" target="_top" xlink:title="Solar voltage and current monitoring using INA219 IC.">
<polygon fill="white" stroke="#666666" points="392.5,-134.5 252.5,-134.5 252.5,-115.5 392.5,-115.5 392.5,-134.5"/>
<text text-anchor="middle" x="322.5" y="-122.5" font-family="Helvetica,sans-Serif" font-size="10.00">power_monitoring/solar.h</text>
</a>
</g>
</g>
<!-- Node11&#45;&gt;Node14 -->
<g id="edge15" class="edge">
<title>Node11&#45;&gt;Node14</title>
<path fill="none" stroke="#63b8ff" d="M322.5,-175.87C322.5,-167.75 322.5,-155.31 322.5,-144.89"/>
<polygon fill="#63b8ff" stroke="#63b8ff" points="326,-144.67 322.5,-134.67 319,-144.67 326,-144.67"/>
</g>
<!-- Node12&#45;&gt;Node5 -->
<g id="edge13" class="edge">
<title>Node12&#45;&gt;Node5</title>
<path fill="none" stroke="#63b8ff" d="M158.5,-115.47C158.5,-97.23 158.5,-54.07 158.5,-29.14"/>
<polygon fill="#63b8ff" stroke="#63b8ff" points="162,-29.13 158.5,-19.13 155,-29.13 162,-29.13"/>
</g>
<!-- Node13 -->
<g id="node13" class="node">
<title>Node13</title>
<g id="a_node13"><a xlink:title=" ">
<polygon fill="#e0e0e0" stroke="#999999" points="293,-74 188,-74 188,-55 293,-55 293,-74"/>
<text text-anchor="middle" x="240.5" y="-62" font-family="Helvetica,sans-Serif" font-size="10.00">Adafruit_INA219.h</text>
</a>
</g>
</g>
<!-- Node12&#45;&gt;Node13 -->
<g id="edge14" class="edge">
<title>Node12&#45;&gt;Node13</title>
<path fill="none" stroke="#63b8ff" d="M170.6,-115.37C183.56,-106.12 204.36,-91.28 219.9,-80.19"/>
<polygon fill="#63b8ff" stroke="#63b8ff" points="222.24,-82.82 228.35,-74.17 218.18,-77.13 222.24,-82.82"/>
</g>
<!-- Node14&#45;&gt;Node5 -->
<g id="edge16" class="edge">
<title>Node14&#45;&gt;Node5</title>
<path fill="none" stroke="#63b8ff" d="M322.33,-115.05C321.56,-100.46 317.92,-71.52 301.5,-55 274.82,-28.16 232.26,-17.45 200.49,-13.21"/>
<polygon fill="#63b8ff" stroke="#63b8ff" points="200.51,-9.69 190.17,-12.01 199.7,-16.64 200.51,-9.69"/>
</g>
<!-- Node14&#45;&gt;Node13 -->
<g id="edge17" class="edge">
<title>Node14&#45;&gt;Node13</title>
<path fill="none" stroke="#63b8ff" d="M310.4,-115.37C297.44,-106.12 276.64,-91.28 261.1,-80.19"/>
<polygon fill="#63b8ff" stroke="#63b8ff" points="262.82,-77.13 252.65,-74.17 258.76,-82.82 262.82,-77.13"/>
</g>
</g>
</svg>
