<?xml version="1.0" encoding="UTF-8" standalone="no"?>
<!DOCTYPE svg PUBLIC "-//W3C//DTD SVG 1.1//EN"
 "http://www.w3.org/Graphics/SVG/1.1/DTD/svg11.dtd">
<!-- Generated by graphviz version 2.43.0 (0)
 -->
<!-- Title: firmware/wombat/include/CAT_M1.h Pages: 1 -->
<svg width="1981pt" height="258pt"
 viewBox="0.00 0.00 1980.50 258.00" xmlns="http://www.w3.org/2000/svg" xmlns:xlink="http://www.w3.org/1999/xlink">
<g id="graph0" class="graph" transform="scale(1 1) rotate(0) translate(4 254)">
<title>firmware/wombat/include/CAT_M1.h</title>
<!-- Node1 -->
<g id="node1" class="node">
<title>Node1</title>
<g id="a_node1"><a xlink:title=" ">
<polygon fill="#999999" stroke="#666666" points="535.5,-250 394.5,-250 394.5,-220 535.5,-220 535.5,-250"/>
<text text-anchor="start" x="402.5" y="-238" font-family="Helvetica,sans-Serif" font-size="10.00">firmware/wombat/include</text>
<text text-anchor="middle" x="465" y="-227" font-family="Helvetica,sans-Serif" font-size="10.00">/CAT_M1.h</text>
</a>
</g>
</g>
<!-- Node2 -->
<g id="node2" class="node">
<title>Node2</title>
<g id="a_node2"><a xlink:href="cat-m1_8h.html" target="_top" xlink:title="CAT&#45;M1 CLI command request and response handler.">
<polygon fill="white" stroke="#666666" points="241.5,-184 100.5,-184 100.5,-154 241.5,-154 241.5,-184"/>
<text text-anchor="start" x="108.5" y="-172" font-family="Helvetica,sans-Serif" font-size="10.00">firmware/wombat/include</text>
<text text-anchor="middle" x="171" y="-161" font-family="Helvetica,sans-Serif" font-size="10.00">/cli/peripherals/cat&#45;m1.h</text>
</a>
</g>
</g>
<!-- Node1&#45;&gt;Node2 -->
<g id="edge1" class="edge">
<title>Node1&#45;&gt;Node2</title>
<path fill="none" stroke="#63b8ff" d="M390.49,-217.78C342.63,-207.36 281.1,-193.97 235.37,-184.01"/>
<polygon fill="#63b8ff" stroke="#63b8ff" points="389.96,-221.25 400.48,-219.95 391.45,-214.41 389.96,-221.25"/>
</g>
<!-- Node5 -->
<g id="node5" class="node">
<title>Node5</title>
<g id="a_node5"><a xlink:href="cat-m1_8cpp.html" target="_top" xlink:title="CAT&#45;M1 CLI command request and response handler.">
<polygon fill="white" stroke="#666666" points="120,-41 0,-41 0,0 120,0 120,-41"/>
<text text-anchor="start" x="8" y="-29" font-family="Helvetica,sans-Serif" font-size="10.00">firmware/wombat/src</text>
<text text-anchor="start" x="8" y="-18" font-family="Helvetica,sans-Serif" font-size="10.00">/cli/peripherals/cat</text>
<text text-anchor="middle" x="60" y="-7" font-family="Helvetica,sans-Serif" font-size="10.00">&#45;m1.cpp</text>
</a>
</g>
</g>
<!-- Node1&#45;&gt;Node5 -->
<g id="edge31" class="edge">
<title>Node1&#45;&gt;Node5</title>
<path fill="none" stroke="#63b8ff" d="M384.18,-233.36C287.51,-230.9 133.38,-221.08 91,-184 49.93,-148.07 52.75,-75.96 56.93,-41.17"/>
<polygon fill="#63b8ff" stroke="#63b8ff" points="384.14,-236.86 394.22,-233.59 384.3,-229.86 384.14,-236.86"/>
</g>
<!-- Node10 -->
<g id="node10" class="node">
<title>Node10</title>
<g id="a_node10"><a xlink:href="cli__power_8h.html" target="_top" xlink:title=" ">
<polygon fill="white" stroke="#666666" points="406,-184 260,-184 260,-154 406,-154 406,-184"/>
<text text-anchor="start" x="268" y="-172" font-family="Helvetica,sans-Serif" font-size="10.00">firmware/wombat/include</text>
<text text-anchor="middle" x="333" y="-161" font-family="Helvetica,sans-Serif" font-size="10.00">/cli/peripherals/cli_power.h</text>
</a>
</g>
</g>
<!-- Node1&#45;&gt;Node10 -->
<g id="edge10" class="edge">
<title>Node1&#45;&gt;Node10</title>
<path fill="none" stroke="#63b8ff" d="M426.87,-215.51C406.16,-205.47 380.97,-193.26 361.9,-184.01"/>
<polygon fill="#63b8ff" stroke="#63b8ff" points="425.51,-218.74 436.03,-219.95 428.56,-212.44 425.51,-218.74"/>
</g>
<!-- Node12 -->
<g id="node12" class="node">
<title>Node12</title>
<g id="a_node12"><a xlink:href="globals_8h.html" target="_top" xlink:title=" ">
<polygon fill="white" stroke="#666666" points="1065.5,-184 924.5,-184 924.5,-154 1065.5,-154 1065.5,-184"/>
<text text-anchor="start" x="932.5" y="-172" font-family="Helvetica,sans-Serif" font-size="10.00">firmware/wombat/include</text>
<text text-anchor="middle" x="995" y="-161" font-family="Helvetica,sans-Serif" font-size="10.00">/globals.h</text>
</a>
</g>
</g>
<!-- Node1&#45;&gt;Node12 -->
<g id="edge13" class="edge">
<title>Node1&#45;&gt;Node12</title>
<path fill="none" stroke="#63b8ff" d="M545.72,-224.25C649,-211.78 826.26,-190.38 924.41,-178.52"/>
<polygon fill="#63b8ff" stroke="#63b8ff" points="545.16,-220.79 535.65,-225.47 546,-227.74 545.16,-220.79"/>
</g>
<!-- Node13 -->
<g id="node13" class="node">
<title>Node13</title>
<g id="a_node13"><a xlink:href="_c_a_t___m1_8cpp.html" target="_top" xlink:title=" ">
<polygon fill="white" stroke="#666666" points="525,-112.5 405,-112.5 405,-82.5 525,-82.5 525,-112.5"/>
<text text-anchor="start" x="413" y="-100.5" font-family="Helvetica,sans-Serif" font-size="10.00">firmware/wombat/src</text>
<text text-anchor="middle" x="465" y="-89.5" font-family="Helvetica,sans-Serif" font-size="10.00">/CAT_M1.cpp</text>
</a>
</g>
</g>
<!-- Node1&#45;&gt;Node13 -->
<g id="edge28" class="edge">
<title>Node1&#45;&gt;Node13</title>
<path fill="none" stroke="#63b8ff" d="M465,-209.48C465,-181.14 465,-135.46 465,-112.55"/>
<polygon fill="#63b8ff" stroke="#63b8ff" points="461.5,-209.76 465,-219.76 468.5,-209.76 461.5,-209.76"/>
</g>
<!-- Node16 -->
<g id="node16" class="node">
<title>Node16</title>
<g id="a_node16"><a xlink:href="_utils_8cpp.html" target="_top" xlink:title="Global utility functions.">
<polygon fill="white" stroke="#666666" points="1821,-112.5 1701,-112.5 1701,-82.5 1821,-82.5 1821,-112.5"/>
<text text-anchor="start" x="1709" y="-100.5" font-family="Helvetica,sans-Serif" font-size="10.00">firmware/wombat/src</text>
<text text-anchor="middle" x="1761" y="-89.5" font-family="Helvetica,sans-Serif" font-size="10.00">/Utils.cpp</text>
</a>
</g>
</g>
<!-- Node1&#45;&gt;Node16 -->
<g id="edge29" class="edge">
<title>Node1&#45;&gt;Node16</title>
<path fill="none" stroke="#63b8ff" d="M545.82,-231.76C743.29,-225.11 1265.29,-200.5 1692,-118 1699.58,-116.53 1707.53,-114.64 1715.24,-112.6"/>
<polygon fill="#63b8ff" stroke="#63b8ff" points="545.42,-228.27 535.54,-232.1 545.65,-235.26 545.42,-228.27"/>
</g>
<!-- Node18 -->
<g id="node18" class="node">
<title>Node18</title>
<g id="a_node18"><a xlink:href="config__cli_8cpp.html" target="_top" xlink:title="Command line interface node configuration commands.">
<polygon fill="white" stroke="#666666" points="1972.5,-118 1839.5,-118 1839.5,-77 1972.5,-77 1972.5,-118"/>
<text text-anchor="start" x="1847.5" y="-106" font-family="Helvetica,sans-Serif" font-size="10.00">firmware/wombat/src</text>
<text text-anchor="start" x="1847.5" y="-95" font-family="Helvetica,sans-Serif" font-size="10.00">/cli/device_config/config</text>
<text text-anchor="middle" x="1906" y="-84" font-family="Helvetica,sans-Serif" font-size="10.00">_cli.cpp</text>
</a>
</g>
</g>
<!-- Node1&#45;&gt;Node18 -->
<g id="edge30" class="edge">
<title>Node1&#45;&gt;Node18</title>
<path fill="none" stroke="#63b8ff" d="M545.88,-231.93C704.61,-227.34 1067.95,-214.23 1372,-184 1576.65,-163.65 1628.33,-158.28 1830,-118 1833.07,-117.39 1836.21,-116.73 1839.37,-116.03"/>
<polygon fill="#63b8ff" stroke="#63b8ff" points="545.62,-228.44 535.73,-232.22 545.82,-235.43 545.62,-228.44"/>
</g>
<!-- Node3 -->
<g id="node3" class="node">
<title>Node3</title>
<g id="a_node3"><a xlink:href="_c_l_i_8h.html" target="_top" xlink:title="FreeRTOS CLI handler.">
<polygon fill="white" stroke="#666666" points="248.5,-112.5 107.5,-112.5 107.5,-82.5 248.5,-82.5 248.5,-112.5"/>
<text text-anchor="start" x="115.5" y="-100.5" font-family="Helvetica,sans-Serif" font-size="10.00">firmware/wombat/include</text>
<text text-anchor="middle" x="178" y="-89.5" font-family="Helvetica,sans-Serif" font-size="10.00">/cli/CLI.h</text>
</a>
</g>
</g>
<!-- Node2&#45;&gt;Node3 -->
<g id="edge2" class="edge">
<title>Node2&#45;&gt;Node3</title>
<path fill="none" stroke="#63b8ff" d="M173.44,-143.75C174.49,-133.31 175.68,-121.49 176.59,-112.54"/>
<polygon fill="#63b8ff" stroke="#63b8ff" points="169.94,-143.64 172.42,-153.94 176.9,-144.34 169.94,-143.64"/>
</g>
<!-- Node2&#45;&gt;Node5 -->
<g id="edge9" class="edge">
<title>Node2&#45;&gt;Node5</title>
<path fill="none" stroke="#63b8ff" d="M133.97,-148.69C121.22,-140.59 107.72,-130.2 98,-118 79.71,-95.04 69.31,-62.2 64.16,-41.36"/>
<polygon fill="#63b8ff" stroke="#63b8ff" points="132.25,-151.74 142.62,-153.92 135.87,-145.75 132.25,-151.74"/>
</g>
<!-- Node4 -->
<g id="node4" class="node">
<title>Node4</title>
<g id="a_node4"><a xlink:href="_c_l_i_8cpp.html" target="_top" xlink:title="FreeRTOS CLI handler.">
<polygon fill="white" stroke="#666666" points="414,-35.5 294,-35.5 294,-5.5 414,-5.5 414,-35.5"/>
<text text-anchor="start" x="302" y="-23.5" font-family="Helvetica,sans-Serif" font-size="10.00">firmware/wombat/src</text>
<text text-anchor="middle" x="354" y="-12.5" font-family="Helvetica,sans-Serif" font-size="10.00">/cli/CLI.cpp</text>
</a>
</g>
</g>
<!-- Node3&#45;&gt;Node4 -->
<g id="edge3" class="edge">
<title>Node3&#45;&gt;Node4</title>
<path fill="none" stroke="#63b8ff" d="M220.34,-78.46C251.26,-65.28 292.57,-47.68 321.04,-35.54"/>
<polygon fill="#63b8ff" stroke="#63b8ff" points="218.93,-75.25 211.1,-82.39 221.68,-81.69 218.93,-75.25"/>
</g>
<!-- Node3&#45;&gt;Node5 -->
<g id="edge4" class="edge">
<title>Node3&#45;&gt;Node5</title>
<path fill="none" stroke="#63b8ff" d="M147.18,-76.91C129.88,-65.91 108.34,-52.22 91,-41.2"/>
<polygon fill="#63b8ff" stroke="#63b8ff" points="145.49,-79.98 155.81,-82.39 149.24,-74.08 145.49,-79.98"/>
</g>
<!-- Node6 -->
<g id="node6" class="node">
<title>Node6</title>
<g id="a_node6"><a xlink:href="sd__card_8cpp.html" target="_top" xlink:title=" ">
<polygon fill="white" stroke="#666666" points="690,-41 570,-41 570,0 690,0 690,-41"/>
<text text-anchor="start" x="578" y="-29" font-family="Helvetica,sans-Serif" font-size="10.00">firmware/wombat/src</text>
<text text-anchor="start" x="578" y="-18" font-family="Helvetica,sans-Serif" font-size="10.00">/cli/peripherals/sd</text>
<text text-anchor="middle" x="630" y="-7" font-family="Helvetica,sans-Serif" font-size="10.00">_card.cpp</text>
</a>
</g>
</g>
<!-- Node3&#45;&gt;Node6 -->
<g id="edge5" class="edge">
<title>Node3&#45;&gt;Node6</title>
<path fill="none" stroke="#63b8ff" d="M242.8,-80.18C247.93,-79.05 253.04,-77.97 258,-77 367.25,-55.58 495.99,-38.07 569.79,-28.77"/>
<polygon fill="#63b8ff" stroke="#63b8ff" points="241.92,-76.79 232.94,-82.41 243.47,-83.62 241.92,-76.79"/>
</g>
<!-- Node7 -->
<g id="node7" class="node">
<title>Node7</title>
<g id="a_node7"><a xlink:href="sdi12_8cpp.html" target="_top" xlink:title="SDI&#45;12 command line interface handler.">
<polygon fill="white" stroke="#666666" points="276,-35.5 138,-35.5 138,-5.5 276,-5.5 276,-35.5"/>
<text text-anchor="start" x="146" y="-23.5" font-family="Helvetica,sans-Serif" font-size="10.00">firmware/wombat/src</text>
<text text-anchor="middle" x="207" y="-12.5" font-family="Helvetica,sans-Serif" font-size="10.00">/cli/peripherals/sdi12.cpp</text>
</a>
</g>
</g>
<!-- Node3&#45;&gt;Node7 -->
<g id="edge6" class="edge">
<title>Node3&#45;&gt;Node7</title>
<path fill="none" stroke="#63b8ff" d="M187.17,-72.78C191.91,-60.53 197.53,-46 201.57,-35.54"/>
<polygon fill="#63b8ff" stroke="#63b8ff" points="183.8,-71.8 183.45,-82.39 190.33,-74.33 183.8,-71.8"/>
</g>
<!-- Node8 -->
<g id="node8" class="node">
<title>Node8</title>
<g id="a_node8"><a xlink:href="main_8cpp.html" target="_top" xlink:title=" ">
<polygon fill="white" stroke="#666666" points="897,-35.5 777,-35.5 777,-5.5 897,-5.5 897,-35.5"/>
<text text-anchor="start" x="785" y="-23.5" font-family="Helvetica,sans-Serif" font-size="10.00">firmware/wombat/src</text>
<text text-anchor="middle" x="837" y="-12.5" font-family="Helvetica,sans-Serif" font-size="10.00">/main.cpp</text>
</a>
</g>
</g>
<!-- Node3&#45;&gt;Node8 -->
<g id="edge7" class="edge">
<title>Node3&#45;&gt;Node8</title>
<path fill="none" stroke="#63b8ff" d="M240.54,-80.26C246.42,-79.04 252.3,-77.92 258,-77 452.13,-45.62 503.56,-62.77 699,-41 724.61,-38.15 752.8,-34.29 776.98,-30.77"/>
<polygon fill="#63b8ff" stroke="#63b8ff" points="239.71,-76.86 230.69,-82.41 241.21,-83.7 239.71,-76.86"/>
</g>
<!-- Node9 -->
<g id="node9" class="node">
<title>Node9</title>
<g id="a_node9"><a xlink:href="mqtt__stack_8cpp.html" target="_top" xlink:title=" ">
<polygon fill="white" stroke="#666666" points="1246,-35.5 1126,-35.5 1126,-5.5 1246,-5.5 1246,-35.5"/>
<text text-anchor="start" x="1134" y="-23.5" font-family="Helvetica,sans-Serif" font-size="10.00">firmware/wombat/src</text>
<text text-anchor="middle" x="1186" y="-12.5" font-family="Helvetica,sans-Serif" font-size="10.00">/mqtt_stack.cpp</text>
</a>
</g>
</g>
<!-- Node3&#45;&gt;Node9 -->
<g id="edge8" class="edge">
<title>Node3&#45;&gt;Node9</title>
<path fill="none" stroke="#63b8ff" d="M239.95,-80.22C246.02,-78.98 252.11,-77.87 258,-77 543.32,-34.67 618.12,-59.02 906,-41 981.87,-36.25 1069.25,-30.05 1125.93,-25.93"/>
<polygon fill="#63b8ff" stroke="#63b8ff" points="238.83,-76.88 229.8,-82.41 240.31,-83.72 238.83,-76.88"/>
</g>
<!-- Node10&#45;&gt;Node3 -->
<g id="edge11" class="edge">
<title>Node10&#45;&gt;Node3</title>
<path fill="none" stroke="#63b8ff" d="M292.42,-149.81C266.45,-138.16 233.26,-123.28 209.32,-112.54"/>
<polygon fill="#63b8ff" stroke="#63b8ff" points="291.08,-153.04 301.63,-153.94 293.94,-146.65 291.08,-153.04"/>
</g>
<!-- Node11 -->
<g id="node11" class="node">
<title>Node11</title>
<g id="a_node11"><a xlink:href="cli__power_8cpp.html" target="_top" xlink:title="Power related commands.">
<polygon fill="white" stroke="#666666" points="387,-118 267,-118 267,-77 387,-77 387,-118"/>
<text text-anchor="start" x="275" y="-106" font-family="Helvetica,sans-Serif" font-size="10.00">firmware/wombat/src</text>
<text text-anchor="start" x="275" y="-95" font-family="Helvetica,sans-Serif" font-size="10.00">/cli/device_config/cli</text>
<text text-anchor="middle" x="327" y="-84" font-family="Helvetica,sans-Serif" font-size="10.00">_power.cpp</text>
</a>
</g>
</g>
<!-- Node10&#45;&gt;Node11 -->
<g id="edge12" class="edge">
<title>Node10&#45;&gt;Node11</title>
<path fill="none" stroke="#63b8ff" d="M330.92,-143.91C330.19,-135.47 329.38,-126.1 328.69,-118.07"/>
<polygon fill="#63b8ff" stroke="#63b8ff" points="327.44,-144.27 331.79,-153.94 334.41,-143.67 327.44,-144.27"/>
</g>
<!-- Node12&#45;&gt;Node5 -->
<g id="edge20" class="edge">
<title>Node12&#45;&gt;Node5</title>
<path fill="none" stroke="#63b8ff" d="M914.13,-165.06C808.46,-160.09 630.05,-147.52 572,-118 549.85,-106.74 556.31,-87.94 534,-77 452.88,-37.21 217.86,-57.36 129,-41 126.06,-40.46 123.07,-39.85 120.05,-39.19"/>
<polygon fill="#63b8ff" stroke="#63b8ff" points="914.29,-168.57 924.44,-165.53 914.61,-161.58 914.29,-168.57"/>
</g>
<!-- Node12&#45;&gt;Node6 -->
<g id="edge21" class="edge">
<title>Node12&#45;&gt;Node6</title>
<path fill="none" stroke="#63b8ff" d="M941.74,-150.24C922.13,-142.21 900.47,-131.46 883,-118 864.47,-103.72 869.69,-89.62 850,-77 801.58,-45.96 736.84,-32.27 690.13,-26.24"/>
<polygon fill="#63b8ff" stroke="#63b8ff" points="940.58,-153.55 951.17,-153.97 943.15,-147.04 940.58,-153.55"/>
</g>
<!-- Node12&#45;&gt;Node8 -->
<g id="edge23" class="edge">
<title>Node12&#45;&gt;Node8</title>
<path fill="none" stroke="#63b8ff" d="M965.03,-148.23C952.53,-139.5 938.13,-128.78 926,-118 895.84,-91.21 864.84,-55.33 848.58,-35.74"/>
<polygon fill="#63b8ff" stroke="#63b8ff" points="963.11,-151.16 973.33,-153.94 967.08,-145.39 963.11,-151.16"/>
</g>
<!-- Node12&#45;&gt;Node9 -->
<g id="edge24" class="edge">
<title>Node12&#45;&gt;Node9</title>
<path fill="none" stroke="#63b8ff" d="M1075.81,-163.06C1182.27,-155.71 1358.39,-140.33 1378,-118 1420.7,-69.36 1317.33,-42.32 1246.27,-29.95"/>
<polygon fill="#63b8ff" stroke="#63b8ff" points="1075.47,-159.57 1065.73,-163.75 1075.95,-166.56 1075.47,-159.57"/>
</g>
<!-- Node12&#45;&gt;Node13 -->
<g id="edge14" class="edge">
<title>Node12&#45;&gt;Node13</title>
<path fill="none" stroke="#63b8ff" d="M914.19,-162.78C822.62,-156.02 669.2,-142.15 539,-118 530.9,-116.5 522.38,-114.58 514.13,-112.53"/>
<polygon fill="#63b8ff" stroke="#63b8ff" points="913.99,-166.27 924.22,-163.51 914.5,-159.29 913.99,-166.27"/>
</g>
<!-- Node14 -->
<g id="node14" class="node">
<title>Node14</title>
<g id="a_node14"><a xlink:href="_device_config_8cpp.html" target="_top" xlink:title=" ">
<polygon fill="white" stroke="#666666" points="1055,-112.5 935,-112.5 935,-82.5 1055,-82.5 1055,-112.5"/>
<text text-anchor="start" x="943" y="-100.5" font-family="Helvetica,sans-Serif" font-size="10.00">firmware/wombat/src</text>
<text text-anchor="middle" x="995" y="-89.5" font-family="Helvetica,sans-Serif" font-size="10.00">/DeviceConfig.cpp</text>
</a>
</g>
</g>
<!-- Node12&#45;&gt;Node14 -->
<g id="edge15" class="edge">
<title>Node12&#45;&gt;Node14</title>
<path fill="none" stroke="#63b8ff" d="M995,-143.75C995,-133.31 995,-121.49 995,-112.54"/>
<polygon fill="#63b8ff" stroke="#63b8ff" points="991.5,-143.94 995,-153.94 998.5,-143.94 991.5,-143.94"/>
</g>
<!-- Node15 -->
<g id="node15" class="node">
<title>Node15</title>
<g id="a_node15"><a xlink:href="_sensor_task_8cpp.html" target="_top" xlink:title=" ">
<polygon fill="white" stroke="#666666" points="1193,-112.5 1073,-112.5 1073,-82.5 1193,-82.5 1193,-112.5"/>
<text text-anchor="start" x="1081" y="-100.5" font-family="Helvetica,sans-Serif" font-size="10.00">firmware/wombat/src</text>
<text text-anchor="middle" x="1133" y="-89.5" font-family="Helvetica,sans-Serif" font-size="10.00">/SensorTask.cpp</text>
</a>
</g>
</g>
<!-- Node12&#45;&gt;Node15 -->
<g id="edge16" class="edge">
<title>Node12&#45;&gt;Node15</title>
<path fill="none" stroke="#63b8ff" d="M1032.04,-149.34C1055.03,-137.77 1084.08,-123.14 1105.12,-112.54"/>
<polygon fill="#63b8ff" stroke="#63b8ff" points="1030.28,-146.31 1022.93,-153.94 1033.43,-152.56 1030.28,-146.31"/>
</g>
<!-- Node12&#45;&gt;Node16 -->
<g id="edge17" class="edge">
<title>Node12&#45;&gt;Node16</title>
<path fill="none" stroke="#63b8ff" d="M1075.88,-167.53C1206.46,-165.57 1471.38,-156.67 1692,-118 1699.97,-116.6 1708.34,-114.66 1716.4,-112.53"/>
<polygon fill="#63b8ff" stroke="#63b8ff" points="1075.52,-164.03 1065.57,-167.67 1075.62,-171.03 1075.52,-164.03"/>
</g>
<!-- Node17 -->
<g id="node17" class="node">
<title>Node17</title>
<g id="a_node17"><a xlink:href="acquisition__intervals_8cpp.html" target="_top" xlink:title="Handles the time between measurements and uplinks by the device over LTE.">
<polygon fill="white" stroke="#666666" points="1368.5,-118 1211.5,-118 1211.5,-77 1368.5,-77 1368.5,-118"/>
<text text-anchor="start" x="1219.5" y="-106" font-family="Helvetica,sans-Serif" font-size="10.00">firmware/wombat/src</text>
<text text-anchor="start" x="1219.5" y="-95" font-family="Helvetica,sans-Serif" font-size="10.00">/cli/device_config/acquisition</text>
<text text-anchor="middle" x="1290" y="-84" font-family="Helvetica,sans-Serif" font-size="10.00">_intervals.cpp</text>
</a>
</g>
</g>
<!-- Node12&#45;&gt;Node17 -->
<g id="edge18" class="edge">
<title>Node12&#45;&gt;Node17</title>
<path fill="none" stroke="#63b8ff" d="M1064.46,-151.64C1108.52,-141.26 1165.63,-127.8 1211.36,-117.03"/>
<polygon fill="#63b8ff" stroke="#63b8ff" points="1063.63,-148.24 1054.7,-153.94 1065.23,-155.05 1063.63,-148.24"/>
</g>
<!-- Node12&#45;&gt;Node18 -->
<g id="edge19" class="edge">
<title>Node12&#45;&gt;Node18</title>
<path fill="none" stroke="#63b8ff" d="M1075.61,-168.28C1225.24,-167.66 1555.63,-161.01 1830,-118 1833.1,-117.51 1836.25,-116.96 1839.42,-116.35"/>
<polygon fill="#63b8ff" stroke="#63b8ff" points="1075.58,-164.78 1065.59,-168.31 1075.6,-171.78 1075.58,-164.78"/>
</g>
<!-- Node19 -->
<g id="node19" class="node">
<title>Node19</title>
<g id="a_node19"><a xlink:href="ftp__stack_8cpp.html" target="_top" xlink:title=" ">
<polygon fill="white" stroke="#666666" points="1545,-112.5 1425,-112.5 1425,-82.5 1545,-82.5 1545,-112.5"/>
<text text-anchor="start" x="1433" y="-100.5" font-family="Helvetica,sans-Serif" font-size="10.00">firmware/wombat/src</text>
<text text-anchor="middle" x="1485" y="-89.5" font-family="Helvetica,sans-Serif" font-size="10.00">/ftp_stack.cpp</text>
</a>
</g>
</g>
<!-- Node12&#45;&gt;Node19 -->
<g id="edge22" class="edge">
<title>Node12&#45;&gt;Node19</title>
<path fill="none" stroke="#63b8ff" d="M1075.76,-161.62C1159.95,-154.19 1295.48,-140.05 1411,-118 1418.96,-116.48 1427.33,-114.58 1435.46,-112.56"/>
<polygon fill="#63b8ff" stroke="#63b8ff" points="1075.41,-158.14 1065.75,-162.49 1076.02,-165.11 1075.41,-158.14"/>
</g>
<!-- Node20 -->
<g id="node20" class="node">
<title>Node20</title>
<g id="a_node20"><a xlink:href="ota__update_8cpp.html" target="_top" xlink:title=" ">
<polygon fill="white" stroke="#666666" points="1683,-112.5 1563,-112.5 1563,-82.5 1683,-82.5 1683,-112.5"/>
<text text-anchor="start" x="1571" y="-100.5" font-family="Helvetica,sans-Serif" font-size="10.00">firmware/wombat/src</text>
<text text-anchor="middle" x="1623" y="-89.5" font-family="Helvetica,sans-Serif" font-size="10.00">/ota_update.cpp</text>
</a>
</g>
</g>
<!-- Node12&#45;&gt;Node20 -->
<g id="edge25" class="edge">
<title>Node12&#45;&gt;Node20</title>
<path fill="none" stroke="#63b8ff" d="M1076.01,-165.48C1185.33,-161.01 1385.75,-149.02 1554,-118 1561.83,-116.56 1570.06,-114.61 1578,-112.52"/>
<polygon fill="#63b8ff" stroke="#63b8ff" points="1075.58,-162 1065.72,-165.89 1075.86,-168.99 1075.58,-162"/>
</g>
<!-- Node21 -->
<g id="node21" class="node">
<title>Node21</title>
<g id="a_node21"><a xlink:href="interface_8cpp.html" target="_top" xlink:title=" ">
<polygon fill="white" stroke="#666666" points="703,-112.5 581,-112.5 581,-82.5 703,-82.5 703,-112.5"/>
<text text-anchor="start" x="589" y="-100.5" font-family="Helvetica,sans-Serif" font-size="10.00">firmware/wombat/src</text>
<text text-anchor="middle" x="642" y="-89.5" font-family="Helvetica,sans-Serif" font-size="10.00">/sd&#45;card/interface.cpp</text>
</a>
</g>
</g>
<!-- Node12&#45;&gt;Node21 -->
<g id="edge26" class="edge">
<title>Node12&#45;&gt;Node21</title>
<path fill="none" stroke="#63b8ff" d="M914.25,-155.87C857.41,-146.81 779.7,-133.37 712,-118 704.86,-116.38 697.37,-114.49 690.04,-112.54"/>
<polygon fill="#63b8ff" stroke="#63b8ff" points="913.83,-159.34 924.26,-157.45 914.93,-152.43 913.83,-159.34"/>
</g>
<!-- Node22 -->
<g id="node22" class="node">
<title>Node22</title>
<g id="a_node22"><a xlink:href="uplinks_8cpp.html" target="_top" xlink:title=" ">
<polygon fill="white" stroke="#666666" points="841,-112.5 721,-112.5 721,-82.5 841,-82.5 841,-112.5"/>
<text text-anchor="start" x="729" y="-100.5" font-family="Helvetica,sans-Serif" font-size="10.00">firmware/wombat/src</text>
<text text-anchor="middle" x="781" y="-89.5" font-family="Helvetica,sans-Serif" font-size="10.00">/uplinks.cpp</text>
</a>
</g>
</g>
<!-- Node12&#45;&gt;Node22 -->
<g id="edge27" class="edge">
<title>Node12&#45;&gt;Node22</title>
<path fill="none" stroke="#63b8ff" d="M941.79,-150.72C905.54,-138.95 858.16,-123.56 824.24,-112.54"/>
<polygon fill="#63b8ff" stroke="#63b8ff" points="941.1,-154.18 951.69,-153.94 943.26,-147.52 941.1,-154.18"/>
</g>
</g>
</svg>
