<?xml version="1.0" encoding="UTF-8" standalone="no"?>
<!DOCTYPE svg PUBLIC "-//W3C//DTD SVG 1.1//EN"
 "http://www.w3.org/Graphics/SVG/1.1/DTD/svg11.dtd">
<!-- Generated by graphviz version 2.43.0 (0)
 -->
<!-- Title: firmware/wombat/include/CAT_M1.h Pages: 1 -->
<svg width="2573pt" height="324pt"
 viewBox="0.00 0.00 2572.66 324.00" xmlns="http://www.w3.org/2000/svg" xmlns:xlink="http://www.w3.org/1999/xlink">
<g id="graph0" class="graph" transform="scale(1 1) rotate(0) translate(4 320)">
<title>firmware/wombat/include/CAT_M1.h</title>
<!-- Node1 -->
<g id="node1" class="node">
<title>Node1</title>
<g id="a_node1"><a xlink:title=" ">
<polygon fill="#999999" stroke="#666666" points="502.5,-316 361.5,-316 361.5,-286 502.5,-286 502.5,-316"/>
<text text-anchor="start" x="369.5" y="-304" font-family="Helvetica,sans-Serif" font-size="10.00">firmware/wombat/include</text>
<text text-anchor="middle" x="432" y="-293" font-family="Helvetica,sans-Serif" font-size="10.00">/CAT_M1.h</text>
</a>
</g>
</g>
<!-- Node2 -->
<g id="node2" class="node">
<title>Node2</title>
<g id="a_node2"><a xlink:href="cat-m1_8h.html" target="_top" xlink:title="CAT&#45;M1 CLI command request and response handler.">
<polygon fill="white" stroke="#666666" points="502.5,-250 361.5,-250 361.5,-220 502.5,-220 502.5,-250"/>
<text text-anchor="start" x="369.5" y="-238" font-family="Helvetica,sans-Serif" font-size="10.00">firmware/wombat/include</text>
<text text-anchor="middle" x="432" y="-227" font-family="Helvetica,sans-Serif" font-size="10.00">/cli/peripherals/cat&#45;m1.h</text>
</a>
</g>
</g>
<!-- Node1&#45;&gt;Node2 -->
<g id="edge1" class="edge">
<title>Node1&#45;&gt;Node2</title>
<path fill="none" stroke="#63b8ff" d="M432,-275.54C432,-266.96 432,-257.61 432,-250.16"/>
<polygon fill="#63b8ff" stroke="#63b8ff" points="428.5,-275.8 432,-285.8 435.5,-275.8 428.5,-275.8"/>
</g>
<!-- Node7 -->
<g id="node7" class="node">
<title>Node7</title>
<g id="a_node7"><a xlink:href="config__cli_8cpp.html" target="_top" xlink:title="Command line interface node configuration commands.">
<polygon fill="white" stroke="#666666" points="526.5,-41 393.5,-41 393.5,0 526.5,0 526.5,-41"/>
<text text-anchor="start" x="401.5" y="-29" font-family="Helvetica,sans-Serif" font-size="10.00">firmware/wombat/src</text>
<text text-anchor="start" x="401.5" y="-18" font-family="Helvetica,sans-Serif" font-size="10.00">/cli/device_config/config</text>
<text text-anchor="middle" x="460" y="-7" font-family="Helvetica,sans-Serif" font-size="10.00">_cli.cpp</text>
</a>
</g>
</g>
<!-- Node1&#45;&gt;Node7 -->
<g id="edge61" class="edge">
<title>Node1&#45;&gt;Node7</title>
<path fill="none" stroke="#63b8ff" d="M384.67,-282.13C296.61,-246.31 122.65,-161.85 193,-77 220.57,-43.75 341.84,-50.37 384,-41 387.06,-40.32 390.18,-39.61 393.33,-38.87"/>
<polygon fill="#63b8ff" stroke="#63b8ff" points="383.61,-285.48 394.19,-285.95 386.21,-278.98 383.61,-285.48"/>
</g>
<!-- Node10 -->
<g id="node10" class="node">
<title>Node10</title>
<g id="a_node10"><a xlink:href="cat-m1_8cpp.html" target="_top" xlink:title="CAT&#45;M1 CLI command request and response handler.">
<polygon fill="white" stroke="#666666" points="322,-118 202,-118 202,-77 322,-77 322,-118"/>
<text text-anchor="start" x="210" y="-106" font-family="Helvetica,sans-Serif" font-size="10.00">firmware/wombat/src</text>
<text text-anchor="start" x="210" y="-95" font-family="Helvetica,sans-Serif" font-size="10.00">/cli/peripherals/cat</text>
<text text-anchor="middle" x="262" y="-84" font-family="Helvetica,sans-Serif" font-size="10.00">&#45;m1.cpp</text>
</a>
</g>
</g>
<!-- Node1&#45;&gt;Node10 -->
<g id="edge62" class="edge">
<title>Node1&#45;&gt;Node10</title>
<path fill="none" stroke="#63b8ff" d="M395.82,-280.89C381.42,-272.41 365.18,-261.71 352,-250 323.88,-225.01 318.42,-216.22 299,-184 286.14,-162.67 275.36,-136.06 268.82,-118.24"/>
<polygon fill="#63b8ff" stroke="#63b8ff" points="394.09,-283.93 404.51,-285.86 397.57,-277.85 394.09,-283.93"/>
</g>
<!-- Node16 -->
<g id="node16" class="node">
<title>Node16</title>
<g id="a_node16"><a xlink:href="cli__power_8h.html" target="_top" xlink:title=" ">
<polygon fill="white" stroke="#666666" points="146,-184 0,-184 0,-154 146,-154 146,-184"/>
<text text-anchor="start" x="8" y="-172" font-family="Helvetica,sans-Serif" font-size="10.00">firmware/wombat/include</text>
<text text-anchor="middle" x="73" y="-161" font-family="Helvetica,sans-Serif" font-size="10.00">/cli/peripherals/cli_power.h</text>
</a>
</g>
</g>
<!-- Node1&#45;&gt;Node16 -->
<g id="edge16" class="edge">
<title>Node1&#45;&gt;Node16</title>
<path fill="none" stroke="#63b8ff" d="M351.02,-296.89C294.88,-291.98 219.76,-279.81 160,-250 127.87,-233.97 99.01,-202.47 83.97,-184.15"/>
<polygon fill="#63b8ff" stroke="#63b8ff" points="351.03,-300.4 361.28,-297.72 351.6,-293.42 351.03,-300.4"/>
</g>
<!-- Node17 -->
<g id="node17" class="node">
<title>Node17</title>
<g id="a_node17"><a xlink:href="globals_8h.html" target="_top" xlink:title=" ">
<polygon fill="white" stroke="#666666" points="1581.5,-250 1440.5,-250 1440.5,-220 1581.5,-220 1581.5,-250"/>
<text text-anchor="start" x="1448.5" y="-238" font-family="Helvetica,sans-Serif" font-size="10.00">firmware/wombat/include</text>
<text text-anchor="middle" x="1511" y="-227" font-family="Helvetica,sans-Serif" font-size="10.00">/globals.h</text>
</a>
</g>
</g>
<!-- Node1&#45;&gt;Node17 -->
<g id="edge19" class="edge">
<title>Node1&#45;&gt;Node17</title>
<path fill="none" stroke="#63b8ff" d="M512.83,-295.21C716.47,-283.13 1248.02,-251.6 1440.29,-240.19"/>
<polygon fill="#63b8ff" stroke="#63b8ff" points="512.57,-291.71 502.8,-295.8 512.99,-298.7 512.57,-291.71"/>
</g>
<!-- Node22 -->
<g id="node22" class="node">
<title>Node22</title>
<g id="a_node22"><a xlink:href="_c_a_t___m1_8cpp.html" target="_top" xlink:title=" ">
<polygon fill="white" stroke="#666666" points="2389,-112.5 2269,-112.5 2269,-82.5 2389,-82.5 2389,-112.5"/>
<text text-anchor="start" x="2277" y="-100.5" font-family="Helvetica,sans-Serif" font-size="10.00">firmware/wombat/src</text>
<text text-anchor="middle" x="2329" y="-89.5" font-family="Helvetica,sans-Serif" font-size="10.00">/CAT_M1.cpp</text>
</a>
</g>
</g>
<!-- Node1&#45;&gt;Node22 -->
<g id="edge59" class="edge">
<title>Node1&#45;&gt;Node22</title>
<path fill="none" stroke="#63b8ff" d="M512.81,-299.56C701.74,-297.87 1186.88,-289.66 1590,-250 1781.55,-231.15 1829.74,-224.05 2018,-184 2113.99,-163.58 2224.3,-131.05 2284.34,-112.56"/>
<polygon fill="#63b8ff" stroke="#63b8ff" points="512.65,-296.06 502.68,-299.65 512.71,-303.06 512.65,-296.06"/>
</g>
<!-- Node25 -->
<g id="node25" class="node">
<title>Node25</title>
<g id="a_node25"><a xlink:href="_utils_8cpp.html" target="_top" xlink:title="Global utility functions.">
<polygon fill="white" stroke="#666666" points="2527,-112.5 2407,-112.5 2407,-82.5 2527,-82.5 2527,-112.5"/>
<text text-anchor="start" x="2415" y="-100.5" font-family="Helvetica,sans-Serif" font-size="10.00">firmware/wombat/src</text>
<text text-anchor="middle" x="2467" y="-89.5" font-family="Helvetica,sans-Serif" font-size="10.00">/Utils.cpp</text>
</a>
</g>
</g>
<!-- Node1&#45;&gt;Node25 -->
<g id="edge60" class="edge">
<title>Node1&#45;&gt;Node25</title>
<path fill="none" stroke="#63b8ff" d="M512.71,-300.76C716.55,-301.84 1268.45,-299.53 1725,-250 1890.2,-232.08 1929.99,-216.24 2093,-184 2229.06,-157.09 2263.42,-151.54 2398,-118 2404.76,-116.31 2411.87,-114.43 2418.85,-112.52"/>
<polygon fill="#63b8ff" stroke="#63b8ff" points="512.7,-297.26 502.68,-300.7 512.66,-304.26 512.7,-297.26"/>
</g>
<!-- Node3 -->
<g id="node3" class="node">
<title>Node3</title>
<g id="a_node3"><a xlink:href="_c_l_i_8h.html" target="_top" xlink:title="FreeRTOS CLI handler.">
<polygon fill="white" stroke="#666666" points="572.5,-184 431.5,-184 431.5,-154 572.5,-154 572.5,-184"/>
<text text-anchor="start" x="439.5" y="-172" font-family="Helvetica,sans-Serif" font-size="10.00">firmware/wombat/include</text>
<text text-anchor="middle" x="502" y="-161" font-family="Helvetica,sans-Serif" font-size="10.00">/cli/CLI.h</text>
</a>
</g>
</g>
<!-- Node2&#45;&gt;Node3 -->
<g id="edge2" class="edge">
<title>Node2&#45;&gt;Node3</title>
<path fill="none" stroke="#63b8ff" d="M455.05,-212.92C465.37,-203.49 477.27,-192.61 486.51,-184.16"/>
<polygon fill="#63b8ff" stroke="#63b8ff" points="452.55,-210.47 447.54,-219.8 457.28,-215.63 452.55,-210.47"/>
</g>
<!-- Node2&#45;&gt;Node10 -->
<g id="edge15" class="edge">
<title>Node2&#45;&gt;Node10</title>
<path fill="none" stroke="#63b8ff" d="M386.04,-215.59C368.48,-207.37 348.88,-196.65 333,-184 309.16,-165 287.7,-136.89 274.77,-118.14"/>
<polygon fill="#63b8ff" stroke="#63b8ff" points="385,-218.96 395.55,-219.9 387.89,-212.59 385,-218.96"/>
</g>
<!-- Node4 -->
<g id="node4" class="node">
<title>Node4</title>
<g id="a_node4"><a xlink:href="_c_l_i_8cpp.html" target="_top" xlink:title="FreeRTOS CLI handler.">
<polygon fill="white" stroke="#666666" points="375,-35.5 255,-35.5 255,-5.5 375,-5.5 375,-35.5"/>
<text text-anchor="start" x="263" y="-23.5" font-family="Helvetica,sans-Serif" font-size="10.00">firmware/wombat/src</text>
<text text-anchor="middle" x="315" y="-12.5" font-family="Helvetica,sans-Serif" font-size="10.00">/cli/CLI.cpp</text>
</a>
</g>
</g>
<!-- Node3&#45;&gt;Node4 -->
<g id="edge3" class="edge">
<title>Node3&#45;&gt;Node4</title>
<path fill="none" stroke="#63b8ff" d="M475.91,-147.56C437.33,-117.34 366.06,-61.51 332.88,-35.5"/>
<polygon fill="#63b8ff" stroke="#63b8ff" points="474.04,-150.54 484.07,-153.95 478.36,-145.03 474.04,-150.54"/>
</g>
<!-- Node5 -->
<g id="node5" class="node">
<title>Node5</title>
<g id="a_node5"><a xlink:href="acquisition__intervals_8cpp.html" target="_top" xlink:title="Handles the time between measurements and uplinks by the device over LTE.">
<polygon fill="white" stroke="#666666" points="1139.5,-118 982.5,-118 982.5,-77 1139.5,-77 1139.5,-118"/>
<text text-anchor="start" x="990.5" y="-106" font-family="Helvetica,sans-Serif" font-size="10.00">firmware/wombat/src</text>
<text text-anchor="start" x="990.5" y="-95" font-family="Helvetica,sans-Serif" font-size="10.00">/cli/device_config/acquisition</text>
<text text-anchor="middle" x="1061" y="-84" font-family="Helvetica,sans-Serif" font-size="10.00">_intervals.cpp</text>
</a>
</g>
</g>
<!-- Node3&#45;&gt;Node5 -->
<g id="edge4" class="edge">
<title>Node3&#45;&gt;Node5</title>
<path fill="none" stroke="#63b8ff" d="M582.57,-162.22C676.65,-154.82 836.76,-140.25 973,-118 976.09,-117.5 979.23,-116.95 982.4,-116.38"/>
<polygon fill="#63b8ff" stroke="#63b8ff" points="582.25,-158.73 572.55,-163 582.79,-165.71 582.25,-158.73"/>
</g>
<!-- Node6 -->
<g id="node6" class="node">
<title>Node6</title>
<g id="a_node6"><a xlink:href="cli__power_8cpp.html" target="_top" xlink:title="Power related commands.">
<polygon fill="white" stroke="#666666" points="146,-118 26,-118 26,-77 146,-77 146,-118"/>
<text text-anchor="start" x="34" y="-106" font-family="Helvetica,sans-Serif" font-size="10.00">firmware/wombat/src</text>
<text text-anchor="start" x="34" y="-95" font-family="Helvetica,sans-Serif" font-size="10.00">/cli/device_config/cli</text>
<text text-anchor="middle" x="86" y="-84" font-family="Helvetica,sans-Serif" font-size="10.00">_power.cpp</text>
</a>
</g>
</g>
<!-- Node3&#45;&gt;Node6 -->
<g id="edge5" class="edge">
<title>Node3&#45;&gt;Node6</title>
<path fill="none" stroke="#63b8ff" d="M421.2,-155.37C358.81,-145.52 270.37,-131.31 193,-118 177.83,-115.39 161.48,-112.47 146.23,-109.69"/>
<polygon fill="#63b8ff" stroke="#63b8ff" points="420.94,-158.88 431.37,-156.98 422.04,-151.96 420.94,-158.88"/>
</g>
<!-- Node3&#45;&gt;Node7 -->
<g id="edge6" class="edge">
<title>Node3&#45;&gt;Node7</title>
<path fill="none" stroke="#63b8ff" d="M472.58,-147.33C463.6,-139.31 454.82,-129.32 450,-118 439.38,-93.05 446.07,-61.31 452.5,-41.2"/>
<polygon fill="#63b8ff" stroke="#63b8ff" points="470.51,-150.16 480.44,-153.86 474.98,-144.78 470.51,-150.16"/>
</g>
<!-- Node8 -->
<g id="node8" class="node">
<title>Node8</title>
<g id="a_node8"><a xlink:href="ftp__cli_8cpp.html" target="_top" xlink:title="FTP setup and configuration through the CLI.">
<polygon fill="white" stroke="#666666" points="1483,-41 1363,-41 1363,0 1483,0 1483,-41"/>
<text text-anchor="start" x="1371" y="-29" font-family="Helvetica,sans-Serif" font-size="10.00">firmware/wombat/src</text>
<text text-anchor="start" x="1371" y="-18" font-family="Helvetica,sans-Serif" font-size="10.00">/cli/device_config/ftp</text>
<text text-anchor="middle" x="1423" y="-7" font-family="Helvetica,sans-Serif" font-size="10.00">_cli.cpp</text>
</a>
</g>
</g>
<!-- Node3&#45;&gt;Node8 -->
<g id="edge7" class="edge">
<title>Node3&#45;&gt;Node8</title>
<path fill="none" stroke="#63b8ff" d="M501.13,-143.83C501.81,-122.7 506.54,-92.98 526,-77 542.21,-63.69 1164.6,-33.56 1362.94,-24.27"/>
<polygon fill="#63b8ff" stroke="#63b8ff" points="497.63,-143.96 501.09,-153.98 504.63,-143.99 497.63,-143.96"/>
</g>
<!-- Node9 -->
<g id="node9" class="node">
<title>Node9</title>
<g id="a_node9"><a xlink:href="mqtt__cli_8cpp.html" target="_top" xlink:title="MQTT setup and configuration through the CLI.">
<polygon fill="white" stroke="#666666" points="1284.5,-118 1157.5,-118 1157.5,-77 1284.5,-77 1284.5,-118"/>
<text text-anchor="start" x="1165.5" y="-106" font-family="Helvetica,sans-Serif" font-size="10.00">firmware/wombat/src</text>
<text text-anchor="start" x="1165.5" y="-95" font-family="Helvetica,sans-Serif" font-size="10.00">/cli/device_config/mqtt</text>
<text text-anchor="middle" x="1221" y="-84" font-family="Helvetica,sans-Serif" font-size="10.00">_cli.cpp</text>
</a>
</g>
</g>
<!-- Node3&#45;&gt;Node9 -->
<g id="edge8" class="edge">
<title>Node3&#45;&gt;Node9</title>
<path fill="none" stroke="#63b8ff" d="M582.86,-166.5C705.77,-163.15 946.59,-152.39 1148,-118 1151.1,-117.47 1154.27,-116.87 1157.45,-116.21"/>
<polygon fill="#63b8ff" stroke="#63b8ff" points="582.68,-163 572.78,-166.77 582.87,-170 582.68,-163"/>
</g>
<!-- Node3&#45;&gt;Node10 -->
<g id="edge9" class="edge">
<title>Node3&#45;&gt;Node10</title>
<path fill="none" stroke="#63b8ff" d="M443.37,-151.02C406.66,-140.39 359.47,-126.73 322.43,-116"/>
<polygon fill="#63b8ff" stroke="#63b8ff" points="442.85,-154.52 453.43,-153.94 444.8,-147.79 442.85,-154.52"/>
</g>
<!-- Node11 -->
<g id="node11" class="node">
<title>Node11</title>
<g id="a_node11"><a xlink:href="cli__spiffs_8cpp.html" target="_top" xlink:title="SPIFFS related commands.">
<polygon fill="white" stroke="#666666" points="826,-118 706,-118 706,-77 826,-77 826,-118"/>
<text text-anchor="start" x="714" y="-106" font-family="Helvetica,sans-Serif" font-size="10.00">firmware/wombat/src</text>
<text text-anchor="start" x="714" y="-95" font-family="Helvetica,sans-Serif" font-size="10.00">/cli/peripherals/cli</text>
<text text-anchor="middle" x="766" y="-84" font-family="Helvetica,sans-Serif" font-size="10.00">_spiffs.cpp</text>
</a>
</g>
</g>
<!-- Node3&#45;&gt;Node11 -->
<g id="edge10" class="edge">
<title>Node3&#45;&gt;Node11</title>
<path fill="none" stroke="#63b8ff" d="M568.28,-151.43C606.06,-141.88 654.25,-129.52 697,-118 699.88,-117.22 702.83,-116.42 705.81,-115.6"/>
<polygon fill="#63b8ff" stroke="#63b8ff" points="567.25,-148.08 558.41,-153.92 568.97,-154.87 567.25,-148.08"/>
</g>
<!-- Node12 -->
<g id="node12" class="node">
<title>Node12</title>
<g id="a_node12"><a xlink:href="sd__card_8cpp.html" target="_top" xlink:title="SD card filesystem related commands.">
<polygon fill="white" stroke="#666666" points="688,-118 568,-118 568,-77 688,-77 688,-118"/>
<text text-anchor="start" x="576" y="-106" font-family="Helvetica,sans-Serif" font-size="10.00">firmware/wombat/src</text>
<text text-anchor="start" x="576" y="-95" font-family="Helvetica,sans-Serif" font-size="10.00">/cli/peripherals/sd</text>
<text text-anchor="middle" x="628" y="-84" font-family="Helvetica,sans-Serif" font-size="10.00">_card.cpp</text>
</a>
</g>
</g>
<!-- Node3&#45;&gt;Node12 -->
<g id="edge11" class="edge">
<title>Node3&#45;&gt;Node12</title>
<path fill="none" stroke="#63b8ff" d="M536.72,-148.85C554.08,-139.27 575.05,-127.71 592.51,-118.07"/>
<polygon fill="#63b8ff" stroke="#63b8ff" points="534.56,-146.04 527.5,-153.94 537.94,-152.17 534.56,-146.04"/>
</g>
<!-- Node13 -->
<g id="node13" class="node">
<title>Node13</title>
<g id="a_node13"><a xlink:href="sdi12_8cpp.html" target="_top" xlink:title="SDI&#45;12 command line interface handler.">
<polygon fill="white" stroke="#666666" points="914,-35.5 776,-35.5 776,-5.5 914,-5.5 914,-35.5"/>
<text text-anchor="start" x="784" y="-23.5" font-family="Helvetica,sans-Serif" font-size="10.00">firmware/wombat/src</text>
<text text-anchor="middle" x="845" y="-12.5" font-family="Helvetica,sans-Serif" font-size="10.00">/cli/peripherals/sdi12.cpp</text>
</a>
</g>
</g>
<!-- Node3&#45;&gt;Node13 -->
<g id="edge12" class="edge">
<title>Node3&#45;&gt;Node13</title>
<path fill="none" stroke="#63b8ff" d="M489.29,-144.67C480.2,-124.44 472.09,-95.57 488,-77 524.32,-34.6 682.72,-24.33 775.88,-22.01"/>
<polygon fill="#63b8ff" stroke="#63b8ff" points="486.22,-146.36 493.74,-153.82 492.52,-143.3 486.22,-146.36"/>
</g>
<!-- Node14 -->
<g id="node14" class="node">
<title>Node14</title>
<g id="a_node14"><a xlink:href="main_8cpp.html" target="_top" xlink:title=" ">
<polygon fill="white" stroke="#666666" points="1837,-35.5 1717,-35.5 1717,-5.5 1837,-5.5 1837,-35.5"/>
<text text-anchor="start" x="1725" y="-23.5" font-family="Helvetica,sans-Serif" font-size="10.00">firmware/wombat/src</text>
<text text-anchor="middle" x="1777" y="-12.5" font-family="Helvetica,sans-Serif" font-size="10.00">/main.cpp</text>
</a>
</g>
</g>
<!-- Node3&#45;&gt;Node14 -->
<g id="edge13" class="edge">
<title>Node3&#45;&gt;Node14</title>
<path fill="none" stroke="#63b8ff" d="M513.42,-144.64C525.84,-120.32 545.68,-84.71 559,-77 648.78,-25.01 1388.4,-46.54 1492,-41 1569.75,-36.84 1659.33,-30.45 1716.98,-26.13"/>
<polygon fill="#63b8ff" stroke="#63b8ff" points="510.26,-143.13 508.9,-153.63 516.52,-146.27 510.26,-143.13"/>
</g>
<!-- Node15 -->
<g id="node15" class="node">
<title>Node15</title>
<g id="a_node15"><a xlink:href="mqtt__stack_8cpp.html" target="_top" xlink:title=" ">
<polygon fill="white" stroke="#666666" points="964,-112.5 844,-112.5 844,-82.5 964,-82.5 964,-112.5"/>
<text text-anchor="start" x="852" y="-100.5" font-family="Helvetica,sans-Serif" font-size="10.00">firmware/wombat/src</text>
<text text-anchor="middle" x="904" y="-89.5" font-family="Helvetica,sans-Serif" font-size="10.00">/mqtt_stack.cpp</text>
</a>
</g>
</g>
<!-- Node3&#45;&gt;Node15 -->
<g id="edge14" class="edge">
<title>Node3&#45;&gt;Node15</title>
<path fill="none" stroke="#63b8ff" d="M582.81,-158.77C650.57,-150.34 749.66,-136.39 835,-118 842.3,-116.43 849.97,-114.52 857.43,-112.52"/>
<polygon fill="#63b8ff" stroke="#63b8ff" points="582.13,-155.33 572.63,-160.02 582.98,-162.28 582.13,-155.33"/>
</g>
<!-- Node16&#45;&gt;Node4 -->
<g id="edge17" class="edge">
<title>Node16&#45;&gt;Node4</title>
<path fill="none" stroke="#63b8ff" d="M41.2,-147.61C31.58,-139.65 22.2,-129.62 17,-118 9.55,-101.37 5.35,-91.02 17,-77 46.64,-41.33 176.72,-28.47 254.89,-23.92"/>
<polygon fill="#63b8ff" stroke="#63b8ff" points="39.19,-150.48 49.25,-153.8 43.46,-144.93 39.19,-150.48"/>
</g>
<!-- Node16&#45;&gt;Node6 -->
<g id="edge18" class="edge">
<title>Node16&#45;&gt;Node6</title>
<path fill="none" stroke="#63b8ff" d="M77.51,-143.91C79.08,-135.47 80.84,-126.1 82.34,-118.07"/>
<polygon fill="#63b8ff" stroke="#63b8ff" points="74.03,-143.46 75.63,-153.94 80.91,-144.75 74.03,-143.46"/>
</g>
<!-- Node17&#45;&gt;Node5 -->
<g id="edge47" class="edge">
<title>Node17&#45;&gt;Node5</title>
<path fill="none" stroke="#63b8ff" d="M1504.69,-209.89C1498.52,-191.43 1487.19,-166.99 1468,-154 1408.73,-113.9 1218.57,-129.84 1148,-118 1145.25,-117.54 1142.46,-117.05 1139.65,-116.53"/>
<polygon fill="#63b8ff" stroke="#63b8ff" points="1501.41,-211.14 1507.67,-219.69 1508.11,-209.1 1501.41,-211.14"/>
</g>
<!-- Node17&#45;&gt;Node7 -->
<g id="edge48" class="edge">
<title>Node17&#45;&gt;Node7</title>
<path fill="none" stroke="#63b8ff" d="M1429.76,-233.3C1182.96,-230.79 456.69,-220.32 422,-184 384.28,-144.51 422.71,-75.07 445.6,-41.2"/>
<polygon fill="#63b8ff" stroke="#63b8ff" points="1430.06,-236.81 1440.09,-233.41 1430.13,-229.81 1430.06,-236.81"/>
</g>
<!-- Node17&#45;&gt;Node9 -->
<g id="edge49" class="edge">
<title>Node17&#45;&gt;Node9</title>
<path fill="none" stroke="#63b8ff" d="M1516.7,-209.75C1519.31,-192.11 1519.33,-168.82 1506,-154 1474.04,-118.47 1340.69,-128.18 1294,-118 1290.92,-117.33 1287.78,-116.61 1284.62,-115.87"/>
<polygon fill="#63b8ff" stroke="#63b8ff" points="1513.21,-209.4 1514.84,-219.87 1520.09,-210.67 1513.21,-209.4"/>
</g>
<!-- Node17&#45;&gt;Node10 -->
<g id="edge50" class="edge">
<title>Node17&#45;&gt;Node10</title>
<path fill="none" stroke="#63b8ff" d="M1429.93,-233.23C1186.45,-230.55 472.37,-219.68 374,-184 368.96,-182.17 318.19,-142.67 286.76,-118"/>
<polygon fill="#63b8ff" stroke="#63b8ff" points="1430.09,-236.74 1440.13,-233.35 1430.16,-229.74 1430.09,-236.74"/>
</g>
<!-- Node17&#45;&gt;Node11 -->
<g id="edge51" class="edge">
<title>Node17&#45;&gt;Node11</title>
<path fill="none" stroke="#63b8ff" d="M1430.2,-225.47C1353.05,-216.83 1233.68,-202.17 1131,-184 998.27,-160.52 965.68,-151.01 835,-118 832.1,-117.27 829.14,-116.5 826.16,-115.72"/>
<polygon fill="#63b8ff" stroke="#63b8ff" points="1430,-228.97 1440.33,-226.6 1430.78,-222.01 1430,-228.97"/>
</g>
<!-- Node17&#45;&gt;Node12 -->
<g id="edge52" class="edge">
<title>Node17&#45;&gt;Node12</title>
<path fill="none" stroke="#63b8ff" d="M1491.92,-212.31C1471.85,-189.77 1442.2,-157.3 1435,-154 1285.74,-85.57 859.04,-144.5 697,-118 694.05,-117.52 691.05,-116.95 688.03,-116.33"/>
<polygon fill="#63b8ff" stroke="#63b8ff" points="1489.31,-214.64 1498.56,-219.8 1494.55,-210 1489.31,-214.64"/>
</g>
<!-- Node17&#45;&gt;Node14 -->
<g id="edge54" class="edge">
<title>Node17&#45;&gt;Node14</title>
<path fill="none" stroke="#63b8ff" d="M1591.67,-231.08C1822.85,-221.89 2475.07,-189.75 2536,-118 2547.8,-104.11 2548.41,-90.35 2536,-77 2512.29,-51.49 2012.64,-30.35 1837.22,-23.69"/>
<polygon fill="#63b8ff" stroke="#63b8ff" points="1591.5,-227.59 1581.64,-231.48 1591.77,-234.58 1591.5,-227.59"/>
</g>
<!-- Node17&#45;&gt;Node15 -->
<g id="edge55" class="edge">
<title>Node17&#45;&gt;Node15</title>
<path fill="none" stroke="#63b8ff" d="M1430.23,-218.24C1324.66,-197.26 1134.23,-158.12 973,-118 966.24,-116.32 959.13,-114.44 952.15,-112.53"/>
<polygon fill="#63b8ff" stroke="#63b8ff" points="1429.68,-221.7 1440.17,-220.21 1431.04,-214.83 1429.68,-221.7"/>
</g>
<!-- Node18 -->
<g id="node18" class="node">
<title>Node18</title>
<g id="a_node18"><a xlink:href="_utils_8h.html" target="_top" xlink:title=" ">
<polygon fill="white" stroke="#666666" points="1699.5,-184 1558.5,-184 1558.5,-154 1699.5,-154 1699.5,-184"/>
<text text-anchor="start" x="1566.5" y="-172" font-family="Helvetica,sans-Serif" font-size="10.00">firmware/wombat/include</text>
<text text-anchor="middle" x="1629" y="-161" font-family="Helvetica,sans-Serif" font-size="10.00">/Utils.h</text>
</a>
</g>
</g>
<!-- Node17&#45;&gt;Node18 -->
<g id="edge20" class="edge">
<title>Node17&#45;&gt;Node18</title>
<path fill="none" stroke="#63b8ff" d="M1545.84,-215.11C1564.2,-205.14 1586.35,-193.13 1603.16,-184.01"/>
<polygon fill="#63b8ff" stroke="#63b8ff" points="1544.02,-212.11 1536.9,-219.95 1547.35,-218.26 1544.02,-212.11"/>
</g>
<!-- Node21 -->
<g id="node21" class="node">
<title>Node21</title>
<g id="a_node21"><a xlink:href="ota__update_8cpp.html" target="_top" xlink:title=" ">
<polygon fill="white" stroke="#666666" points="2338,-35.5 2218,-35.5 2218,-5.5 2338,-5.5 2338,-35.5"/>
<text text-anchor="start" x="2226" y="-23.5" font-family="Helvetica,sans-Serif" font-size="10.00">firmware/wombat/src</text>
<text text-anchor="middle" x="2278" y="-12.5" font-family="Helvetica,sans-Serif" font-size="10.00">/ota_update.cpp</text>
</a>
</g>
</g>
<!-- Node17&#45;&gt;Node21 -->
<g id="edge56" class="edge">
<title>Node17&#45;&gt;Node21</title>
<path fill="none" stroke="#63b8ff" d="M1591.71,-232.17C1775.42,-227.55 2220.2,-213.58 2367,-184 2453.4,-166.59 2503.1,-189.95 2554,-118 2609.04,-40.2 2434.9,-24.61 2338.13,-21.83"/>
<polygon fill="#63b8ff" stroke="#63b8ff" points="1591.48,-228.68 1581.57,-232.43 1591.66,-235.68 1591.48,-228.68"/>
</g>
<!-- Node17&#45;&gt;Node22 -->
<g id="edge43" class="edge">
<title>Node17&#45;&gt;Node22</title>
<path fill="none" stroke="#63b8ff" d="M1591.84,-225.58C1673.55,-216.7 1803.36,-201.57 1915,-184 2069.22,-159.73 2108.08,-153.93 2260,-118 2266.91,-116.37 2274.16,-114.49 2281.26,-112.57"/>
<polygon fill="#63b8ff" stroke="#63b8ff" points="1591.19,-222.13 1581.62,-226.69 1591.94,-229.09 1591.19,-222.13"/>
</g>
<!-- Node23 -->
<g id="node23" class="node">
<title>Node23</title>
<g id="a_node23"><a xlink:href="_device_config_8cpp.html" target="_top" xlink:title=" ">
<polygon fill="white" stroke="#666666" points="2251,-112.5 2131,-112.5 2131,-82.5 2251,-82.5 2251,-112.5"/>
<text text-anchor="start" x="2139" y="-100.5" font-family="Helvetica,sans-Serif" font-size="10.00">firmware/wombat/src</text>
<text text-anchor="middle" x="2191" y="-89.5" font-family="Helvetica,sans-Serif" font-size="10.00">/DeviceConfig.cpp</text>
</a>
</g>
</g>
<!-- Node17&#45;&gt;Node23 -->
<g id="edge44" class="edge">
<title>Node17&#45;&gt;Node23</title>
<path fill="none" stroke="#63b8ff" d="M1591.68,-222.88C1656.33,-213.6 1749.25,-199.44 1830,-184 1960.69,-159.02 1993.05,-150.77 2122,-118 2128.64,-116.31 2135.6,-114.45 2142.46,-112.57"/>
<polygon fill="#63b8ff" stroke="#63b8ff" points="1590.96,-219.44 1581.56,-224.32 1591.95,-226.37 1590.96,-219.44"/>
</g>
<!-- Node24 -->
<g id="node24" class="node">
<title>Node24</title>
<g id="a_node24"><a xlink:href="_sensor_task_8cpp.html" target="_top" xlink:title=" ">
<polygon fill="white" stroke="#666666" points="1423,-112.5 1303,-112.5 1303,-82.5 1423,-82.5 1423,-112.5"/>
<text text-anchor="start" x="1311" y="-100.5" font-family="Helvetica,sans-Serif" font-size="10.00">firmware/wombat/src</text>
<text text-anchor="middle" x="1363" y="-89.5" font-family="Helvetica,sans-Serif" font-size="10.00">/SensorTask.cpp</text>
</a>
</g>
</g>
<!-- Node17&#45;&gt;Node24 -->
<g id="edge45" class="edge">
<title>Node17&#45;&gt;Node24</title>
<path fill="none" stroke="#63b8ff" d="M1430.4,-225.76C1376.32,-218.38 1311.97,-205.34 1295,-184 1275.05,-158.91 1311.08,-129.68 1337.87,-112.72"/>
<polygon fill="#63b8ff" stroke="#63b8ff" points="1430,-229.24 1440.37,-227.08 1430.91,-222.3 1430,-229.24"/>
</g>
<!-- Node17&#45;&gt;Node25 -->
<g id="edge46" class="edge">
<title>Node17&#45;&gt;Node25</title>
<path fill="none" stroke="#63b8ff" d="M1591.69,-228.53C1748.6,-216.78 2105.16,-184.62 2398,-118 2405.04,-116.4 2412.43,-114.52 2419.65,-112.58"/>
<polygon fill="#63b8ff" stroke="#63b8ff" points="1591.36,-225.05 1581.65,-229.28 1591.88,-232.03 1591.36,-225.05"/>
</g>
<!-- Node26 -->
<g id="node26" class="node">
<title>Node26</title>
<g id="a_node26"><a xlink:href="ftp__stack_8cpp.html" target="_top" xlink:title=" ">
<polygon fill="white" stroke="#666666" points="1975,-112.5 1855,-112.5 1855,-82.5 1975,-82.5 1975,-112.5"/>
<text text-anchor="start" x="1863" y="-100.5" font-family="Helvetica,sans-Serif" font-size="10.00">firmware/wombat/src</text>
<text text-anchor="middle" x="1915" y="-89.5" font-family="Helvetica,sans-Serif" font-size="10.00">/ftp_stack.cpp</text>
</a>
</g>
</g>
<!-- Node17&#45;&gt;Node26 -->
<g id="edge53" class="edge">
<title>Node17&#45;&gt;Node26</title>
<path fill="none" stroke="#63b8ff" d="M1585.74,-217.69C1622.87,-208.92 1668.18,-197.2 1708,-184 1772.22,-162.71 1844.77,-130.86 1884.66,-112.64"/>
<polygon fill="#63b8ff" stroke="#63b8ff" points="1584.94,-214.29 1576,-219.97 1586.53,-221.1 1584.94,-214.29"/>
</g>
<!-- Node27 -->
<g id="node27" class="node">
<title>Node27</title>
<g id="a_node27"><a xlink:href="uplinks_8cpp.html" target="_top" xlink:title=" ">
<polygon fill="white" stroke="#666666" points="2113,-112.5 1993,-112.5 1993,-82.5 2113,-82.5 2113,-112.5"/>
<text text-anchor="start" x="2001" y="-100.5" font-family="Helvetica,sans-Serif" font-size="10.00">firmware/wombat/src</text>
<text text-anchor="middle" x="2053" y="-89.5" font-family="Helvetica,sans-Serif" font-size="10.00">/uplinks.cpp</text>
</a>
</g>
</g>
<!-- Node17&#45;&gt;Node27 -->
<g id="edge58" class="edge">
<title>Node17&#45;&gt;Node27</title>
<path fill="none" stroke="#63b8ff" d="M1591.75,-219.91C1641.4,-210.77 1706.17,-197.98 1763,-184 1851.43,-162.24 1953.2,-130.7 2009.61,-112.64"/>
<polygon fill="#63b8ff" stroke="#63b8ff" points="1590.92,-216.5 1581.71,-221.75 1592.18,-223.39 1590.92,-216.5"/>
</g>
<!-- Node28 -->
<g id="node28" class="node">
<title>Node28</title>
<g id="a_node28"><a xlink:href="interface_8cpp.html" target="_top" xlink:title=" ">
<polygon fill="white" stroke="#666666" points="1426,-184 1304,-184 1304,-154 1426,-154 1426,-184"/>
<text text-anchor="start" x="1312" y="-172" font-family="Helvetica,sans-Serif" font-size="10.00">firmware/wombat/src</text>
<text text-anchor="middle" x="1365" y="-161" font-family="Helvetica,sans-Serif" font-size="10.00">/sd&#45;card/interface.cpp</text>
</a>
</g>
</g>
<!-- Node17&#45;&gt;Node28 -->
<g id="edge57" class="edge">
<title>Node17&#45;&gt;Node28</title>
<path fill="none" stroke="#63b8ff" d="M1469.75,-215.92C1446.68,-205.8 1418.34,-193.38 1396.97,-184.01"/>
<polygon fill="#63b8ff" stroke="#63b8ff" points="1468.4,-219.15 1478.96,-219.95 1471.21,-212.73 1468.4,-219.15"/>
</g>
<!-- Node18&#45;&gt;Node5 -->
<g id="edge34" class="edge">
<title>Node18&#45;&gt;Node5</title>
<path fill="none" stroke="#63b8ff" d="M1548.28,-158.66C1534.19,-157.07 1519.67,-155.47 1506,-154 1347,-136.96 1305.86,-143.53 1148,-118 1145.25,-117.56 1142.46,-117.08 1139.64,-116.57"/>
<polygon fill="#63b8ff" stroke="#63b8ff" points="1548.12,-162.16 1558.45,-159.81 1548.9,-155.21 1548.12,-162.16"/>
</g>
<!-- Node18&#45;&gt;Node7 -->
<g id="edge35" class="edge">
<title>Node18&#45;&gt;Node7</title>
<path fill="none" stroke="#63b8ff" d="M1631.09,-143.86C1631.44,-122.75 1628.09,-93.03 1609,-77 1573.15,-46.89 813.75,-43.48 767,-41 684.2,-36.6 588.92,-30.37 526.75,-26.14"/>
<polygon fill="#63b8ff" stroke="#63b8ff" points="1627.59,-143.84 1630.63,-153.99 1634.58,-144.16 1627.59,-143.84"/>
</g>
<!-- Node18&#45;&gt;Node9 -->
<g id="edge36" class="edge">
<title>Node18&#45;&gt;Node9</title>
<path fill="none" stroke="#63b8ff" d="M1547.9,-154.6C1546.59,-154.4 1545.29,-154.2 1544,-154 1433.06,-136.88 1403.97,-140.52 1294,-118 1290.92,-117.37 1287.77,-116.68 1284.6,-115.96"/>
<polygon fill="#63b8ff" stroke="#63b8ff" points="1547.63,-158.11 1558.06,-156.2 1548.72,-151.19 1547.63,-158.11"/>
</g>
<!-- Node18&#45;&gt;Node10 -->
<g id="edge37" class="edge">
<title>Node18&#45;&gt;Node10</title>
<path fill="none" stroke="#63b8ff" d="M1547.98,-161.59C1513.22,-158.99 1472.13,-156.1 1435,-154 1045.96,-131.97 948.11,-138.77 559,-118 476.96,-113.62 382.26,-107.16 322.27,-102.89"/>
<polygon fill="#63b8ff" stroke="#63b8ff" points="1547.85,-165.09 1558.08,-162.35 1548.38,-158.11 1547.85,-165.09"/>
</g>
<!-- Node18&#45;&gt;Node11 -->
<g id="edge38" class="edge">
<title>Node18&#45;&gt;Node11</title>
<path fill="none" stroke="#63b8ff" d="M1548.07,-160.49C1522.47,-158.24 1494.06,-155.87 1468,-154 1186.94,-133.79 1112.91,-164.6 835,-118 832.05,-117.51 829.05,-116.93 826.03,-116.3"/>
<polygon fill="#63b8ff" stroke="#63b8ff" points="1547.83,-163.98 1558.1,-161.37 1548.45,-157.01 1547.83,-163.98"/>
</g>
<!-- Node18&#45;&gt;Node14 -->
<g id="edge40" class="edge">
<title>Node18&#45;&gt;Node14</title>
<path fill="none" stroke="#63b8ff" d="M1709.38,-155.14C1750.58,-146.74 1794.66,-134.28 1807,-118 1825.97,-92.97 1803.74,-55.76 1788.66,-35.65"/>
<polygon fill="#63b8ff" stroke="#63b8ff" points="1708.67,-151.71 1699.54,-157.08 1710.03,-158.58 1708.67,-151.71"/>
</g>
<!-- Node18&#45;&gt;Node15 -->
<g id="edge41" class="edge">
<title>Node18&#45;&gt;Node15</title>
<path fill="none" stroke="#63b8ff" d="M1548.42,-160.77C1522.72,-158.52 1494.17,-156.09 1468,-154 1248.12,-136.45 1190.25,-156.19 973,-118 965.03,-116.6 956.66,-114.65 948.61,-112.53"/>
<polygon fill="#63b8ff" stroke="#63b8ff" points="1548.22,-164.26 1558.48,-161.65 1548.83,-157.29 1548.22,-164.26"/>
</g>
<!-- Node19 -->
<g id="node19" class="node">
<title>Node19</title>
<g id="a_node19"><a xlink:href="sdi12_8h.html" target="_top" xlink:title="SDI&#45;12 command line interface handler.">
<polygon fill="white" stroke="#666666" points="1582.5,-112.5 1441.5,-112.5 1441.5,-82.5 1582.5,-82.5 1582.5,-112.5"/>
<text text-anchor="start" x="1449.5" y="-100.5" font-family="Helvetica,sans-Serif" font-size="10.00">firmware/wombat/include</text>
<text text-anchor="middle" x="1512" y="-89.5" font-family="Helvetica,sans-Serif" font-size="10.00">/cli/peripherals/sdi12.h</text>
</a>
</g>
</g>
<!-- Node18&#45;&gt;Node19 -->
<g id="edge21" class="edge">
<title>Node18&#45;&gt;Node19</title>
<path fill="none" stroke="#63b8ff" d="M1596.55,-148.72C1577.23,-137.25 1553.16,-122.95 1535.64,-112.54"/>
<polygon fill="#63b8ff" stroke="#63b8ff" points="1594.94,-151.84 1605.32,-153.94 1598.51,-145.82 1594.94,-151.84"/>
</g>
<!-- Node20 -->
<g id="node20" class="node">
<title>Node20</title>
<g id="a_node20"><a xlink:href="ftp__stack_8h.html" target="_top" xlink:title=" ">
<polygon fill="white" stroke="#666666" points="1798.5,-112.5 1657.5,-112.5 1657.5,-82.5 1798.5,-82.5 1798.5,-112.5"/>
<text text-anchor="start" x="1665.5" y="-100.5" font-family="Helvetica,sans-Serif" font-size="10.00">firmware/wombat/include</text>
<text text-anchor="middle" x="1728" y="-89.5" font-family="Helvetica,sans-Serif" font-size="10.00">/ftp_stack.h</text>
</a>
</g>
</g>
<!-- Node18&#45;&gt;Node20 -->
<g id="edge25" class="edge">
<title>Node18&#45;&gt;Node20</title>
<path fill="none" stroke="#63b8ff" d="M1657.57,-147.94C1673.72,-136.6 1693.51,-122.71 1708,-112.54"/>
<polygon fill="#63b8ff" stroke="#63b8ff" points="1655.21,-145.33 1649.03,-153.94 1659.23,-151.05 1655.21,-145.33"/>
</g>
<!-- Node18&#45;&gt;Node22 -->
<g id="edge30" class="edge">
<title>Node18&#45;&gt;Node22</title>
<path fill="none" stroke="#63b8ff" d="M1709.86,-166.66C1830.54,-163.51 2064.5,-153.02 2260,-118 2267.84,-116.6 2276.08,-114.67 2284.01,-112.58"/>
<polygon fill="#63b8ff" stroke="#63b8ff" points="1709.52,-163.16 1699.61,-166.91 1709.69,-170.16 1709.52,-163.16"/>
</g>
<!-- Node18&#45;&gt;Node23 -->
<g id="edge31" class="edge">
<title>Node18&#45;&gt;Node23</title>
<path fill="none" stroke="#63b8ff" d="M1709.92,-164.13C1808.1,-158.44 1978.35,-145.37 2122,-118 2129.7,-116.53 2137.79,-114.61 2145.62,-112.54"/>
<polygon fill="#63b8ff" stroke="#63b8ff" points="1709.55,-160.64 1699.77,-164.7 1709.95,-167.63 1709.55,-160.64"/>
</g>
<!-- Node18&#45;&gt;Node24 -->
<g id="edge32" class="edge">
<title>Node18&#45;&gt;Node24</title>
<path fill="none" stroke="#63b8ff" d="M1562.03,-151.48C1523.86,-141.94 1475.17,-129.58 1432,-118 1425.51,-116.26 1418.68,-114.38 1411.96,-112.51"/>
<polygon fill="#63b8ff" stroke="#63b8ff" points="1561.45,-154.94 1572,-153.96 1563.14,-148.15 1561.45,-154.94"/>
</g>
<!-- Node18&#45;&gt;Node25 -->
<g id="edge33" class="edge">
<title>Node18&#45;&gt;Node25</title>
<path fill="none" stroke="#63b8ff" d="M1709.83,-168.31C1850.67,-167.62 2149.73,-160.66 2398,-118 2405.97,-116.63 2414.35,-114.7 2422.4,-112.58"/>
<polygon fill="#63b8ff" stroke="#63b8ff" points="1709.54,-164.81 1699.56,-168.35 1709.57,-171.81 1709.54,-164.81"/>
</g>
<!-- Node18&#45;&gt;Node26 -->
<g id="edge39" class="edge">
<title>Node18&#45;&gt;Node26</title>
<path fill="none" stroke="#63b8ff" d="M1700.27,-151.68C1741.46,-142.12 1794.23,-129.68 1841,-118 1847.96,-116.26 1855.28,-114.39 1862.49,-112.52"/>
<polygon fill="#63b8ff" stroke="#63b8ff" points="1699.28,-148.31 1690.33,-153.98 1700.86,-155.13 1699.28,-148.31"/>
</g>
<!-- Node18&#45;&gt;Node27 -->
<g id="edge42" class="edge">
<title>Node18&#45;&gt;Node27</title>
<path fill="none" stroke="#63b8ff" d="M1709.5,-159.81C1781.8,-151.71 1890.64,-137.67 1984,-118 1991.31,-116.46 1998.98,-114.57 2006.45,-112.58"/>
<polygon fill="#63b8ff" stroke="#63b8ff" points="1709.09,-156.34 1699.54,-160.92 1709.87,-163.29 1709.09,-156.34"/>
</g>
<!-- Node19&#45;&gt;Node4 -->
<g id="edge23" class="edge">
<title>Node19&#45;&gt;Node4</title>
<path fill="none" stroke="#63b8ff" d="M1451.08,-80.29C1444.67,-78.99 1438.23,-77.86 1432,-77 970.3,-13.48 844.47,-112.89 384,-41 375.76,-39.71 367.11,-37.76 358.82,-35.59"/>
<polygon fill="#63b8ff" stroke="#63b8ff" points="1450.57,-83.76 1461.09,-82.44 1452.05,-76.92 1450.57,-83.76"/>
</g>
<!-- Node19&#45;&gt;Node13 -->
<g id="edge24" class="edge">
<title>Node19&#45;&gt;Node13</title>
<path fill="none" stroke="#63b8ff" d="M1448.75,-80.19C1443.1,-79.01 1437.46,-77.92 1432,-77 1246.26,-45.75 1024.28,-30.75 914.1,-24.79"/>
<polygon fill="#63b8ff" stroke="#63b8ff" points="1448.34,-83.69 1458.86,-82.41 1449.85,-76.85 1448.34,-83.69"/>
</g>
<!-- Node19&#45;&gt;Node19 -->
<g id="edge22" class="edge">
<title>Node19&#45;&gt;Node19</title>
<path fill="none" stroke="#63b8ff" d="M1592.7,-106.59C1597.57,-104.43 1600.5,-101.4 1600.5,-97.5 1600.5,-91.42 1593.37,-87.45 1582.83,-85.59"/>
<polygon fill="#63b8ff" stroke="#63b8ff" points="1591.48,-103.3 1582.83,-109.41 1593.4,-110.03 1591.48,-103.3"/>
</g>
<!-- Node20&#45;&gt;Node7 -->
<g id="edge26" class="edge">
<title>Node20&#45;&gt;Node7</title>
<path fill="none" stroke="#63b8ff" d="M1663.41,-80.38C1656.55,-79.06 1649.65,-77.89 1643,-77 1256.79,-25.22 1156.13,-61.35 767,-41 684.2,-36.67 588.92,-30.42 526.75,-26.17"/>
<polygon fill="#63b8ff" stroke="#63b8ff" points="1662.91,-83.85 1673.4,-82.41 1664.3,-76.99 1662.91,-83.85"/>
</g>
<!-- Node20&#45;&gt;Node8 -->
<g id="edge27" class="edge">
<title>Node20&#45;&gt;Node8</title>
<path fill="none" stroke="#63b8ff" d="M1660.99,-80.02C1607.88,-66.96 1534.35,-48.88 1483.12,-36.28"/>
<polygon fill="#63b8ff" stroke="#63b8ff" points="1660.44,-83.49 1670.99,-82.48 1662.11,-76.69 1660.44,-83.49"/>
</g>
<!-- Node20&#45;&gt;Node14 -->
<g id="edge28" class="edge">
<title>Node20&#45;&gt;Node14</title>
<path fill="none" stroke="#63b8ff" d="M1742.78,-73.88C1750.93,-61.41 1760.79,-46.32 1767.82,-35.54"/>
<polygon fill="#63b8ff" stroke="#63b8ff" points="1739.76,-72.11 1737.22,-82.39 1745.62,-75.94 1739.76,-72.11"/>
</g>
<!-- Node20&#45;&gt;Node21 -->
<g id="edge29" class="edge">
<title>Node20&#45;&gt;Node21</title>
<path fill="none" stroke="#63b8ff" d="M1808.69,-82.77C1821.17,-80.76 1833.92,-78.77 1846,-77 1978.42,-57.56 2134.24,-38.47 2217.8,-28.54"/>
<polygon fill="#63b8ff" stroke="#63b8ff" points="1808.07,-79.32 1798.76,-84.38 1809.19,-86.23 1808.07,-79.32"/>
</g>
</g>
</svg>
