<?xml version="1.0" encoding="UTF-8" standalone="no"?>
<!DOCTYPE svg PUBLIC "-//W3C//DTD SVG 1.1//EN"
 "http://www.w3.org/Graphics/SVG/1.1/DTD/svg11.dtd">
<!-- Generated by graphviz version 2.43.0 (0)
 -->
<!-- Title: firmware/wombat/include/CAT_M1.h Pages: 1 -->
<svg width="2140pt" height="379pt"
 viewBox="0.00 0.00 2140.00 379.00" xmlns="http://www.w3.org/2000/svg" xmlns:xlink="http://www.w3.org/1999/xlink">
<g id="graph0" class="graph" transform="scale(1 1) rotate(0) translate(4 375)">
<title>firmware/wombat/include/CAT_M1.h</title>
<!-- Node1 -->
<g id="node1" class="node">
<title>Node1</title>
<g id="a_node1"><a xlink:title=" ">
<polygon fill="#999999" stroke="#666666" points="960.5,-371 819.5,-371 819.5,-341 960.5,-341 960.5,-371"/>
<text text-anchor="start" x="827.5" y="-359" font-family="Helvetica,sans-Serif" font-size="10.00">firmware/wombat/include</text>
<text text-anchor="middle" x="890" y="-348" font-family="Helvetica,sans-Serif" font-size="10.00">/CAT_M1.h</text>
</a>
</g>
</g>
<!-- Node2 -->
<g id="node2" class="node">
<title>Node2</title>
<g id="a_node2"><a xlink:href="cat-m1_8h.html" target="_top" xlink:title="CAT&#45;M1 CLI command request and response handler.">
<polygon fill="white" stroke="#666666" points="617.5,-305 476.5,-305 476.5,-275 617.5,-275 617.5,-305"/>
<text text-anchor="start" x="484.5" y="-293" font-family="Helvetica,sans-Serif" font-size="10.00">firmware/wombat/include</text>
<text text-anchor="middle" x="547" y="-282" font-family="Helvetica,sans-Serif" font-size="10.00">/cli/peripherals/cat&#45;m1.h</text>
</a>
</g>
</g>
<!-- Node1&#45;&gt;Node2 -->
<g id="edge1" class="edge">
<title>Node1&#45;&gt;Node2</title>
<path fill="none" stroke="#63b8ff" d="M809.45,-339.97C751.23,-329.11 673.34,-314.57 617.56,-304.17"/>
<polygon fill="#63b8ff" stroke="#63b8ff" points="808.87,-343.42 819.35,-341.82 810.16,-336.54 808.87,-343.42"/>
</g>
<!-- Node9 -->
<g id="node9" class="node">
<title>Node9</title>
<g id="a_node9"><a xlink:href="cat-m1_8cpp.html" target="_top" xlink:title="CAT&#45;M1 CLI command request and response handler.">
<polygon fill="white" stroke="#666666" points="120,-173 0,-173 0,-132 120,-132 120,-173"/>
<text text-anchor="start" x="8" y="-161" font-family="Helvetica,sans-Serif" font-size="10.00">firmware/wombat/src</text>
<text text-anchor="start" x="8" y="-150" font-family="Helvetica,sans-Serif" font-size="10.00">/cli/peripherals/cat</text>
<text text-anchor="middle" x="60" y="-139" font-family="Helvetica,sans-Serif" font-size="10.00">&#45;m1.cpp</text>
</a>
</g>
</g>
<!-- Node1&#45;&gt;Node9 -->
<g id="edge35" class="edge">
<title>Node1&#45;&gt;Node9</title>
<path fill="none" stroke="#63b8ff" d="M809.14,-350.15C723.43,-343.92 584.49,-330.69 467,-305 373.91,-284.64 352.33,-272.19 263,-239 207.26,-218.29 144.33,-191.19 103.52,-173.11"/>
<polygon fill="#63b8ff" stroke="#63b8ff" points="809.1,-353.66 819.32,-350.88 809.59,-346.68 809.1,-353.66"/>
</g>
<!-- Node12 -->
<g id="node12" class="node">
<title>Node12</title>
<g id="a_node12"><a xlink:href="ftp__stack_8cpp.html" target="_top" xlink:title=" ">
<polygon fill="white" stroke="#666666" points="850,-167.5 730,-167.5 730,-137.5 850,-137.5 850,-167.5"/>
<text text-anchor="start" x="738" y="-155.5" font-family="Helvetica,sans-Serif" font-size="10.00">firmware/wombat/src</text>
<text text-anchor="middle" x="790" y="-144.5" font-family="Helvetica,sans-Serif" font-size="10.00">/ftp_stack.cpp</text>
</a>
</g>
</g>
<!-- Node1&#45;&gt;Node12 -->
<g id="edge36" class="edge">
<title>Node1&#45;&gt;Node12</title>
<path fill="none" stroke="#63b8ff" d="M878.4,-331.62C857.47,-289.45 814.01,-201.89 797.02,-167.65"/>
<polygon fill="#63b8ff" stroke="#63b8ff" points="875.39,-333.43 882.97,-340.83 881.66,-330.32 875.39,-333.43"/>
</g>
<!-- Node14 -->
<g id="node14" class="node">
<title>Node14</title>
<g id="a_node14"><a xlink:href="mqtt__stack_8cpp.html" target="_top" xlink:title=" ">
<polygon fill="white" stroke="#666666" points="988,-167.5 868,-167.5 868,-137.5 988,-137.5 988,-167.5"/>
<text text-anchor="start" x="876" y="-155.5" font-family="Helvetica,sans-Serif" font-size="10.00">firmware/wombat/src</text>
<text text-anchor="middle" x="928" y="-144.5" font-family="Helvetica,sans-Serif" font-size="10.00">/mqtt_stack.cpp</text>
</a>
</g>
</g>
<!-- Node1&#45;&gt;Node14 -->
<g id="edge37" class="edge">
<title>Node1&#45;&gt;Node14</title>
<path fill="none" stroke="#63b8ff" d="M894.56,-330.81C902.57,-288.35 918.92,-201.67 925.33,-167.65"/>
<polygon fill="#63b8ff" stroke="#63b8ff" points="891.09,-330.36 892.67,-340.83 897.96,-331.65 891.09,-330.36"/>
</g>
<!-- Node15 -->
<g id="node15" class="node">
<title>Node15</title>
<g id="a_node15"><a xlink:href="cli__power_8h.html" target="_top" xlink:title=" ">
<polygon fill="white" stroke="#666666" points="824,-305 678,-305 678,-275 824,-275 824,-305"/>
<text text-anchor="start" x="686" y="-293" font-family="Helvetica,sans-Serif" font-size="10.00">firmware/wombat/include</text>
<text text-anchor="middle" x="751" y="-282" font-family="Helvetica,sans-Serif" font-size="10.00">/cli/peripherals/cli_power.h</text>
</a>
</g>
</g>
<!-- Node1&#45;&gt;Node15 -->
<g id="edge17" class="edge">
<title>Node1&#45;&gt;Node15</title>
<path fill="none" stroke="#63b8ff" d="M850.14,-336.65C828.28,-326.58 801.61,-314.3 781.43,-305.01"/>
<polygon fill="#63b8ff" stroke="#63b8ff" points="848.95,-339.95 859.5,-340.95 851.88,-333.59 848.95,-339.95"/>
</g>
<!-- Node17 -->
<g id="node17" class="node">
<title>Node17</title>
<g id="a_node17"><a xlink:href="globals_8h.html" target="_top" xlink:title=" ">
<polygon fill="white" stroke="#666666" points="1274.5,-239 1133.5,-239 1133.5,-209 1274.5,-209 1274.5,-239"/>
<text text-anchor="start" x="1141.5" y="-227" font-family="Helvetica,sans-Serif" font-size="10.00">firmware/wombat/include</text>
<text text-anchor="middle" x="1204" y="-216" font-family="Helvetica,sans-Serif" font-size="10.00">/globals.h</text>
</a>
</g>
</g>
<!-- Node1&#45;&gt;Node17 -->
<g id="edge20" class="edge">
<title>Node1&#45;&gt;Node17</title>
<path fill="none" stroke="#63b8ff" d="M933.18,-337.12C996.23,-311.02 1112.22,-263 1169.76,-239.17"/>
<polygon fill="#63b8ff" stroke="#63b8ff" points="931.8,-333.91 923.9,-340.96 934.48,-340.37 931.8,-333.91"/>
</g>
<!-- Node18 -->
<g id="node18" class="node">
<title>Node18</title>
<g id="a_node18"><a xlink:href="_c_a_t___m1_8cpp.html" target="_top" xlink:title=" ">
<polygon fill="white" stroke="#666666" points="1994,-167.5 1874,-167.5 1874,-137.5 1994,-137.5 1994,-167.5"/>
<text text-anchor="start" x="1882" y="-155.5" font-family="Helvetica,sans-Serif" font-size="10.00">firmware/wombat/src</text>
<text text-anchor="middle" x="1934" y="-144.5" font-family="Helvetica,sans-Serif" font-size="10.00">/CAT_M1.cpp</text>
</a>
</g>
</g>
<!-- Node1&#45;&gt;Node18 -->
<g id="edge33" class="edge">
<title>Node1&#45;&gt;Node18</title>
<path fill="none" stroke="#63b8ff" d="M970.48,-342.52C1137.96,-315.99 1535.78,-250.08 1865,-173 1871.91,-171.38 1879.16,-169.52 1886.26,-167.6"/>
<polygon fill="#63b8ff" stroke="#63b8ff" points="969.84,-339.08 960.51,-344.1 970.93,-345.99 969.84,-339.08"/>
</g>
<!-- Node20 -->
<g id="node20" class="node">
<title>Node20</title>
<g id="a_node20"><a xlink:href="_utils_8cpp.html" target="_top" xlink:title="Global utility functions.">
<polygon fill="white" stroke="#666666" points="2132,-167.5 2012,-167.5 2012,-137.5 2132,-137.5 2132,-167.5"/>
<text text-anchor="start" x="2020" y="-155.5" font-family="Helvetica,sans-Serif" font-size="10.00">firmware/wombat/src</text>
<text text-anchor="middle" x="2072" y="-144.5" font-family="Helvetica,sans-Serif" font-size="10.00">/Utils.cpp</text>
</a>
</g>
</g>
<!-- Node1&#45;&gt;Node20 -->
<g id="edge34" class="edge">
<title>Node1&#45;&gt;Node20</title>
<path fill="none" stroke="#63b8ff" d="M970.95,-346.33C1052.08,-337.31 1180.47,-322.12 1291,-305 1609.04,-255.73 1689.59,-246.17 2003,-173 2010.03,-171.36 2017.42,-169.46 2024.64,-167.5"/>
<polygon fill="#63b8ff" stroke="#63b8ff" points="970.36,-342.88 960.8,-347.46 971.13,-349.83 970.36,-342.88"/>
</g>
<!-- Node3 -->
<g id="node3" class="node">
<title>Node3</title>
<g id="a_node3"><a xlink:href="_c_l_i_8h.html" target="_top" xlink:title="FreeRTOS CLI handler.">
<polygon fill="white" stroke="#666666" points="617.5,-239 476.5,-239 476.5,-209 617.5,-209 617.5,-239"/>
<text text-anchor="start" x="484.5" y="-227" font-family="Helvetica,sans-Serif" font-size="10.00">firmware/wombat/include</text>
<text text-anchor="middle" x="547" y="-216" font-family="Helvetica,sans-Serif" font-size="10.00">/cli/CLI.h</text>
</a>
</g>
</g>
<!-- Node2&#45;&gt;Node3 -->
<g id="edge2" class="edge">
<title>Node2&#45;&gt;Node3</title>
<path fill="none" stroke="#63b8ff" d="M547,-264.54C547,-255.96 547,-246.61 547,-239.16"/>
<polygon fill="#63b8ff" stroke="#63b8ff" points="543.5,-264.8 547,-274.8 550.5,-264.8 543.5,-264.8"/>
</g>
<!-- Node2&#45;&gt;Node9 -->
<g id="edge16" class="edge">
<title>Node2&#45;&gt;Node9</title>
<path fill="none" stroke="#63b8ff" d="M486.08,-272.19C404.67,-249.71 255.92,-208.55 129,-173 126.12,-172.19 123.18,-171.37 120.21,-170.53"/>
<polygon fill="#63b8ff" stroke="#63b8ff" points="485.58,-275.68 496.15,-274.97 487.44,-268.94 485.58,-275.68"/>
</g>
<!-- Node4 -->
<g id="node4" class="node">
<title>Node4</title>
<g id="a_node4"><a xlink:href="server_8h.html" target="_top" xlink:title="Handle the setup and maintenance of the BLE server and connected clients.">
<polygon fill="white" stroke="#666666" points="279.5,-167.5 138.5,-167.5 138.5,-137.5 279.5,-137.5 279.5,-167.5"/>
<text text-anchor="start" x="146.5" y="-155.5" font-family="Helvetica,sans-Serif" font-size="10.00">firmware/wombat/include</text>
<text text-anchor="middle" x="209" y="-144.5" font-family="Helvetica,sans-Serif" font-size="10.00">/bluetooth/server.h</text>
</a>
</g>
</g>
<!-- Node3&#45;&gt;Node4 -->
<g id="edge3" class="edge">
<title>Node3&#45;&gt;Node4</title>
<path fill="none" stroke="#63b8ff" d="M466.43,-209.81C413.21,-200.22 342.18,-186.6 280,-173 272.32,-171.32 264.25,-169.46 256.39,-167.58"/>
<polygon fill="#63b8ff" stroke="#63b8ff" points="466.04,-213.29 476.5,-211.61 467.27,-206.4 466.04,-213.29"/>
</g>
<!-- Node8 -->
<g id="node8" class="node">
<title>Node8</title>
<g id="a_node8"><a xlink:href="_c_l_i_8cpp.html" target="_top" xlink:title="FreeRTOS CLI handler.">
<polygon fill="white" stroke="#666666" points="418,-167.5 298,-167.5 298,-137.5 418,-137.5 418,-167.5"/>
<text text-anchor="start" x="306" y="-155.5" font-family="Helvetica,sans-Serif" font-size="10.00">firmware/wombat/src</text>
<text text-anchor="middle" x="358" y="-144.5" font-family="Helvetica,sans-Serif" font-size="10.00">/cli/CLI.cpp</text>
</a>
</g>
</g>
<!-- Node3&#45;&gt;Node8 -->
<g id="edge9" class="edge">
<title>Node3&#45;&gt;Node8</title>
<path fill="none" stroke="#63b8ff" d="M499.18,-205.42C467.28,-193.68 425.89,-178.47 396.19,-167.54"/>
<polygon fill="#63b8ff" stroke="#63b8ff" points="498.16,-208.77 508.75,-208.94 500.58,-202.2 498.16,-208.77"/>
</g>
<!-- Node3&#45;&gt;Node9 -->
<g id="edge10" class="edge">
<title>Node3&#45;&gt;Node9</title>
<path fill="none" stroke="#63b8ff" d="M466.15,-217.1C381.52,-210.05 245.05,-196.19 129,-173 126.07,-172.41 123.08,-171.77 120.08,-171.08"/>
<polygon fill="#63b8ff" stroke="#63b8ff" points="465.95,-220.6 476.21,-217.93 466.53,-213.62 465.95,-220.6"/>
</g>
<!-- Node10 -->
<g id="node10" class="node">
<title>Node10</title>
<g id="a_node10"><a xlink:href="sd__card_8cpp.html" target="_top" xlink:title=" ">
<polygon fill="white" stroke="#666666" points="1126,-173 1006,-173 1006,-132 1126,-132 1126,-173"/>
<text text-anchor="start" x="1014" y="-161" font-family="Helvetica,sans-Serif" font-size="10.00">firmware/wombat/src</text>
<text text-anchor="start" x="1014" y="-150" font-family="Helvetica,sans-Serif" font-size="10.00">/cli/peripherals/sd</text>
<text text-anchor="middle" x="1066" y="-139" font-family="Helvetica,sans-Serif" font-size="10.00">_card.cpp</text>
</a>
</g>
</g>
<!-- Node3&#45;&gt;Node10 -->
<g id="edge11" class="edge">
<title>Node3&#45;&gt;Node10</title>
<path fill="none" stroke="#63b8ff" d="M627.89,-218.04C718.44,-211.56 869.23,-197.98 997,-173 999.93,-172.43 1002.92,-171.79 1005.93,-171.11"/>
<polygon fill="#63b8ff" stroke="#63b8ff" points="627.42,-214.57 617.7,-218.76 627.92,-221.55 627.42,-214.57"/>
</g>
<!-- Node11 -->
<g id="node11" class="node">
<title>Node11</title>
<g id="a_node11"><a xlink:href="sdi12_8cpp.html" target="_top" xlink:title="SDI&#45;12 command line interface handler.">
<polygon fill="white" stroke="#666666" points="574,-167.5 436,-167.5 436,-137.5 574,-137.5 574,-167.5"/>
<text text-anchor="start" x="444" y="-155.5" font-family="Helvetica,sans-Serif" font-size="10.00">firmware/wombat/src</text>
<text text-anchor="middle" x="505" y="-144.5" font-family="Helvetica,sans-Serif" font-size="10.00">/cli/peripherals/sdi12.cpp</text>
</a>
</g>
</g>
<!-- Node3&#45;&gt;Node11 -->
<g id="edge12" class="edge">
<title>Node3&#45;&gt;Node11</title>
<path fill="none" stroke="#63b8ff" d="M533.14,-200.06C526.64,-189.32 519.12,-176.86 513.49,-167.54"/>
<polygon fill="#63b8ff" stroke="#63b8ff" points="530.33,-202.19 538.5,-208.94 536.32,-198.57 530.33,-202.19"/>
</g>
<!-- Node3&#45;&gt;Node12 -->
<g id="edge13" class="edge">
<title>Node3&#45;&gt;Node12</title>
<path fill="none" stroke="#63b8ff" d="M605.85,-206.17C647.2,-194.34 701.89,-178.7 740.9,-167.54"/>
<polygon fill="#63b8ff" stroke="#63b8ff" points="604.83,-202.82 596.17,-208.94 606.75,-209.55 604.83,-202.82"/>
</g>
<!-- Node13 -->
<g id="node13" class="node">
<title>Node13</title>
<g id="a_node13"><a xlink:href="main_8cpp.html" target="_top" xlink:title=" ">
<polygon fill="white" stroke="#666666" points="712,-167.5 592,-167.5 592,-137.5 712,-137.5 712,-167.5"/>
<text text-anchor="start" x="600" y="-155.5" font-family="Helvetica,sans-Serif" font-size="10.00">firmware/wombat/src</text>
<text text-anchor="middle" x="652" y="-144.5" font-family="Helvetica,sans-Serif" font-size="10.00">/main.cpp</text>
</a>
</g>
</g>
<!-- Node3&#45;&gt;Node13 -->
<g id="edge14" class="edge">
<title>Node3&#45;&gt;Node13</title>
<path fill="none" stroke="#63b8ff" d="M576.83,-203.25C594.04,-191.86 615.28,-177.81 630.78,-167.54"/>
<polygon fill="#63b8ff" stroke="#63b8ff" points="574.66,-200.5 568.25,-208.94 578.52,-206.33 574.66,-200.5"/>
</g>
<!-- Node3&#45;&gt;Node14 -->
<g id="edge15" class="edge">
<title>Node3&#45;&gt;Node14</title>
<path fill="none" stroke="#63b8ff" d="M627.68,-212.7C690.97,-203.99 781.07,-190.19 859,-173 866.17,-171.42 873.7,-169.53 881.05,-167.56"/>
<polygon fill="#63b8ff" stroke="#63b8ff" points="627.2,-209.24 617.76,-214.06 628.14,-216.17 627.2,-209.24"/>
</g>
<!-- Node4&#45;&gt;Node3 -->
<g id="edge7" class="edge">
<title>Node4&#45;&gt;Node3</title>
<path fill="none" stroke="#63b8ff" d="M283.99,-169.85C288.74,-170.94 293.44,-172 298,-173 358.4,-186.21 427.14,-199.44 477.13,-208.97"/>
<polygon fill="#63b8ff" stroke="#63b8ff" points="284.75,-166.43 274.21,-167.58 283.16,-173.25 284.75,-166.43"/>
</g>
<!-- Node5 -->
<g id="node5" class="node">
<title>Node5</title>
<g id="a_node5"><a xlink:href="uart_8h.html" target="_top" xlink:title="BluetoothLE UART service setup and handling.">
<polygon fill="white" stroke="#666666" points="279.5,-96 138.5,-96 138.5,-66 279.5,-66 279.5,-96"/>
<text text-anchor="start" x="146.5" y="-84" font-family="Helvetica,sans-Serif" font-size="10.00">firmware/wombat/include</text>
<text text-anchor="middle" x="209" y="-73" font-family="Helvetica,sans-Serif" font-size="10.00">/bluetooth/uart.h</text>
</a>
</g>
</g>
<!-- Node4&#45;&gt;Node5 -->
<g id="edge4" class="edge">
<title>Node4&#45;&gt;Node5</title>
<path fill="none" stroke="#63b8ff" d="M202.53,-127.25C201.96,-116.81 202.26,-104.99 203.45,-96.04"/>
<polygon fill="#63b8ff" stroke="#63b8ff" points="199.07,-127.79 203.45,-137.44 206.04,-127.16 199.07,-127.79"/>
</g>
<!-- Node7 -->
<g id="node7" class="node">
<title>Node7</title>
<g id="a_node7"><a xlink:href="server_8cpp.html" target="_top" xlink:title="Setup and start BluetoothLE server.">
<polygon fill="white" stroke="#666666" points="418,-96 298,-96 298,-66 418,-66 418,-96"/>
<text text-anchor="start" x="306" y="-84" font-family="Helvetica,sans-Serif" font-size="10.00">firmware/wombat/src</text>
<text text-anchor="middle" x="358" y="-73" font-family="Helvetica,sans-Serif" font-size="10.00">/bluetooth/server.cpp</text>
</a>
</g>
</g>
<!-- Node4&#45;&gt;Node7 -->
<g id="edge8" class="edge">
<title>Node4&#45;&gt;Node7</title>
<path fill="none" stroke="#63b8ff" d="M248.34,-133.15C273.25,-121.53 304.98,-106.73 327.89,-96.04"/>
<polygon fill="#63b8ff" stroke="#63b8ff" points="246.74,-130.04 239.15,-137.44 249.69,-136.38 246.74,-130.04"/>
</g>
<!-- Node5&#45;&gt;Node4 -->
<g id="edge5" class="edge">
<title>Node5&#45;&gt;Node4</title>
<path fill="none" stroke="#63b8ff" d="M215.47,-106.23C216.04,-116.66 215.74,-128.49 214.55,-137.44"/>
<polygon fill="#63b8ff" stroke="#63b8ff" points="218.93,-105.69 214.55,-96.04 211.96,-106.32 218.93,-105.69"/>
</g>
<!-- Node6 -->
<g id="node6" class="node">
<title>Node6</title>
<g id="a_node6"><a xlink:href="uart_8cpp.html" target="_top" xlink:title="BluetoothLE UART service setup and handling.">
<polygon fill="white" stroke="#666666" points="269,-30 149,-30 149,0 269,0 269,-30"/>
<text text-anchor="start" x="157" y="-18" font-family="Helvetica,sans-Serif" font-size="10.00">firmware/wombat/src</text>
<text text-anchor="middle" x="209" y="-7" font-family="Helvetica,sans-Serif" font-size="10.00">/bluetooth/uart.cpp</text>
</a>
</g>
</g>
<!-- Node5&#45;&gt;Node6 -->
<g id="edge6" class="edge">
<title>Node5&#45;&gt;Node6</title>
<path fill="none" stroke="#63b8ff" d="M209,-55.54C209,-46.96 209,-37.61 209,-30.16"/>
<polygon fill="#63b8ff" stroke="#63b8ff" points="205.5,-55.8 209,-65.8 212.5,-55.8 205.5,-55.8"/>
</g>
<!-- Node15&#45;&gt;Node3 -->
<g id="edge18" class="edge">
<title>Node15&#45;&gt;Node3</title>
<path fill="none" stroke="#63b8ff" d="M696.35,-271.86C663.6,-261.58 622.47,-248.68 591.66,-239.01"/>
<polygon fill="#63b8ff" stroke="#63b8ff" points="695.64,-275.3 706.23,-274.95 697.74,-268.62 695.64,-275.3"/>
</g>
<!-- Node16 -->
<g id="node16" class="node">
<title>Node16</title>
<g id="a_node16"><a xlink:href="cli__power_8cpp.html" target="_top" xlink:title="Power related commands.">
<polygon fill="white" stroke="#666666" points="1264,-173 1144,-173 1144,-132 1264,-132 1264,-173"/>
<text text-anchor="start" x="1152" y="-161" font-family="Helvetica,sans-Serif" font-size="10.00">firmware/wombat/src</text>
<text text-anchor="start" x="1152" y="-150" font-family="Helvetica,sans-Serif" font-size="10.00">/cli/device_config/cli</text>
<text text-anchor="middle" x="1204" y="-139" font-family="Helvetica,sans-Serif" font-size="10.00">_power.cpp</text>
</a>
</g>
</g>
<!-- Node15&#45;&gt;Node16 -->
<g id="edge19" class="edge">
<title>Node15&#45;&gt;Node16</title>
<path fill="none" stroke="#63b8ff" d="M808.04,-271.94C893.96,-246.24 1055.87,-197.81 1143.68,-171.54"/>
<polygon fill="#63b8ff" stroke="#63b8ff" points="806.77,-268.66 798.2,-274.88 808.78,-275.37 806.77,-268.66"/>
</g>
<!-- Node17&#45;&gt;Node9 -->
<g id="edge26" class="edge">
<title>Node17&#45;&gt;Node9</title>
<path fill="none" stroke="#63b8ff" d="M1123.01,-221.63C906.93,-217.6 320.2,-204.04 129,-173 126.05,-172.52 123.05,-171.96 120.03,-171.34"/>
<polygon fill="#63b8ff" stroke="#63b8ff" points="1123.27,-225.14 1133.33,-221.82 1123.39,-218.14 1123.27,-225.14"/>
</g>
<!-- Node17&#45;&gt;Node10 -->
<g id="edge27" class="edge">
<title>Node17&#45;&gt;Node10</title>
<path fill="none" stroke="#63b8ff" d="M1167.02,-204.38C1147.81,-194.7 1124.34,-182.88 1104.87,-173.07"/>
<polygon fill="#63b8ff" stroke="#63b8ff" points="1165.57,-207.56 1176.07,-208.94 1168.72,-201.31 1165.57,-207.56"/>
</g>
<!-- Node17&#45;&gt;Node12 -->
<g id="edge28" class="edge">
<title>Node17&#45;&gt;Node12</title>
<path fill="none" stroke="#63b8ff" d="M1123.37,-214.36C1053.11,-206.1 948.71,-192.09 859,-173 851.69,-171.45 844.02,-169.55 836.56,-167.55"/>
<polygon fill="#63b8ff" stroke="#63b8ff" points="1123.14,-217.85 1133.48,-215.53 1123.95,-210.9 1123.14,-217.85"/>
</g>
<!-- Node17&#45;&gt;Node13 -->
<g id="edge29" class="edge">
<title>Node17&#45;&gt;Node13</title>
<path fill="none" stroke="#63b8ff" d="M1123.2,-218.9C1026.77,-213.02 861,-199.82 721,-173 713.3,-171.52 705.21,-169.59 697.39,-167.52"/>
<polygon fill="#63b8ff" stroke="#63b8ff" points="1123.27,-222.41 1133.46,-219.51 1123.68,-215.42 1123.27,-222.41"/>
</g>
<!-- Node17&#45;&gt;Node14 -->
<g id="edge30" class="edge">
<title>Node17&#45;&gt;Node14</title>
<path fill="none" stroke="#63b8ff" d="M1133.22,-206.61C1093.15,-197.16 1042.17,-184.83 997,-173 990.5,-171.3 983.67,-169.44 976.94,-167.58"/>
<polygon fill="#63b8ff" stroke="#63b8ff" points="1132.62,-210.07 1143.16,-208.95 1134.23,-203.26 1132.62,-210.07"/>
</g>
<!-- Node17&#45;&gt;Node16 -->
<g id="edge25" class="edge">
<title>Node17&#45;&gt;Node16</title>
<path fill="none" stroke="#63b8ff" d="M1204,-198.91C1204,-190.47 1204,-181.1 1204,-173.07"/>
<polygon fill="#63b8ff" stroke="#63b8ff" points="1200.5,-198.94 1204,-208.94 1207.5,-198.94 1200.5,-198.94"/>
</g>
<!-- Node17&#45;&gt;Node18 -->
<g id="edge21" class="edge">
<title>Node17&#45;&gt;Node18</title>
<path fill="none" stroke="#63b8ff" d="M1284.66,-218.92C1435.68,-210.95 1755.68,-192.38 1865,-173 1872.97,-171.59 1881.34,-169.64 1889.39,-167.51"/>
<polygon fill="#63b8ff" stroke="#63b8ff" points="1284.33,-215.43 1274.52,-219.45 1284.69,-222.42 1284.33,-215.43"/>
</g>
<!-- Node19 -->
<g id="node19" class="node">
<title>Node19</title>
<g id="a_node19"><a xlink:href="_sensor_task_8cpp.html" target="_top" xlink:title=" ">
<polygon fill="white" stroke="#666666" points="1856,-167.5 1736,-167.5 1736,-137.5 1856,-137.5 1856,-167.5"/>
<text text-anchor="start" x="1744" y="-155.5" font-family="Helvetica,sans-Serif" font-size="10.00">firmware/wombat/src</text>
<text text-anchor="middle" x="1796" y="-144.5" font-family="Helvetica,sans-Serif" font-size="10.00">/SensorTask.cpp</text>
</a>
</g>
</g>
<!-- Node17&#45;&gt;Node19 -->
<g id="edge22" class="edge">
<title>Node17&#45;&gt;Node19</title>
<path fill="none" stroke="#63b8ff" d="M1284.82,-219.79C1388.12,-214.66 1572.13,-202.04 1727,-173 1734.71,-171.55 1742.8,-169.64 1750.62,-167.57"/>
<polygon fill="#63b8ff" stroke="#63b8ff" points="1284.59,-216.3 1274.78,-220.28 1284.93,-223.29 1284.59,-216.3"/>
</g>
<!-- Node17&#45;&gt;Node20 -->
<g id="edge23" class="edge">
<title>Node17&#45;&gt;Node20</title>
<path fill="none" stroke="#63b8ff" d="M1284.72,-223.6C1429.65,-223.42 1743.1,-217.34 2003,-173 2010.98,-171.64 2019.35,-169.71 2027.41,-167.59"/>
<polygon fill="#63b8ff" stroke="#63b8ff" points="1284.58,-220.1 1274.58,-223.6 1284.58,-227.1 1284.58,-220.1"/>
</g>
<!-- Node21 -->
<g id="node21" class="node">
<title>Node21</title>
<g id="a_node21"><a xlink:href="acquisition__intervals_8cpp.html" target="_top" xlink:title="Handles the time between measurements and uplinks by the device over LTE.">
<polygon fill="white" stroke="#666666" points="1439.5,-173 1282.5,-173 1282.5,-132 1439.5,-132 1439.5,-173"/>
<text text-anchor="start" x="1290.5" y="-161" font-family="Helvetica,sans-Serif" font-size="10.00">firmware/wombat/src</text>
<text text-anchor="start" x="1290.5" y="-150" font-family="Helvetica,sans-Serif" font-size="10.00">/cli/device_config/acquisition</text>
<text text-anchor="middle" x="1361" y="-139" font-family="Helvetica,sans-Serif" font-size="10.00">_intervals.cpp</text>
</a>
</g>
</g>
<!-- Node17&#45;&gt;Node21 -->
<g id="edge24" class="edge">
<title>Node17&#45;&gt;Node21</title>
<path fill="none" stroke="#63b8ff" d="M1245.18,-204.77C1267.2,-195.02 1294.32,-183.02 1316.78,-173.07"/>
<polygon fill="#63b8ff" stroke="#63b8ff" points="1243.5,-201.69 1235.77,-208.94 1246.33,-208.09 1243.5,-201.69"/>
</g>
<!-- Node22 -->
<g id="node22" class="node">
<title>Node22</title>
<g id="a_node22"><a xlink:href="interface_8cpp.html" target="_top" xlink:title=" ">
<polygon fill="white" stroke="#666666" points="1580,-167.5 1458,-167.5 1458,-137.5 1580,-137.5 1580,-167.5"/>
<text text-anchor="start" x="1466" y="-155.5" font-family="Helvetica,sans-Serif" font-size="10.00">firmware/wombat/src</text>
<text text-anchor="middle" x="1519" y="-144.5" font-family="Helvetica,sans-Serif" font-size="10.00">/sd&#45;card/interface.cpp</text>
</a>
</g>
</g>
<!-- Node17&#45;&gt;Node22 -->
<g id="edge31" class="edge">
<title>Node17&#45;&gt;Node22</title>
<path fill="none" stroke="#63b8ff" d="M1284.53,-208.05C1332.48,-198.77 1394.43,-186.15 1449,-173 1455.87,-171.34 1463.08,-169.48 1470.16,-167.58"/>
<polygon fill="#63b8ff" stroke="#63b8ff" points="1283.68,-204.65 1274.52,-209.97 1285,-211.52 1283.68,-204.65"/>
</g>
<!-- Node23 -->
<g id="node23" class="node">
<title>Node23</title>
<g id="a_node23"><a xlink:href="uplinks_8cpp.html" target="_top" xlink:title=" ">
<polygon fill="white" stroke="#666666" points="1718,-167.5 1598,-167.5 1598,-137.5 1718,-137.5 1718,-167.5"/>
<text text-anchor="start" x="1606" y="-155.5" font-family="Helvetica,sans-Serif" font-size="10.00">firmware/wombat/src</text>
<text text-anchor="middle" x="1658" y="-144.5" font-family="Helvetica,sans-Serif" font-size="10.00">/uplinks.cpp</text>
</a>
</g>
</g>
<!-- Node17&#45;&gt;Node23 -->
<g id="edge32" class="edge">
<title>Node17&#45;&gt;Node23</title>
<path fill="none" stroke="#63b8ff" d="M1285.05,-215.95C1363.35,-208.33 1485.05,-194.32 1589,-173 1596.44,-171.47 1604.25,-169.57 1611.83,-167.55"/>
<polygon fill="#63b8ff" stroke="#63b8ff" points="1284.39,-212.5 1274.77,-216.94 1285.06,-219.47 1284.39,-212.5"/>
</g>
</g>
</svg>
