<?xml version="1.0" encoding="UTF-8" standalone="no"?>
<!DOCTYPE svg PUBLIC "-//W3C//DTD SVG 1.1//EN"
 "http://www.w3.org/Graphics/SVG/1.1/DTD/svg11.dtd">
<!-- Generated by graphviz version 2.43.0 (0)
 -->
<!-- Title: firmware/wombat/lib/CatM1/include/CAT_M1.h Pages: 1 -->
<svg width="1141pt" height="379pt"
 viewBox="0.00 0.00 1141.00 379.00" xmlns="http://www.w3.org/2000/svg" xmlns:xlink="http://www.w3.org/1999/xlink">
<g id="graph0" class="graph" transform="scale(1 1) rotate(0) translate(4 375)">
<title>firmware/wombat/lib/CatM1/include/CAT_M1.h</title>
<!-- Node1 -->
<g id="node1" class="node">
<title>Node1</title>
<g id="a_node1"><a xlink:title=" ">
<polygon fill="#999999" stroke="#666666" points="837.5,-371 697.5,-371 697.5,-341 837.5,-341 837.5,-371"/>
<text text-anchor="start" x="705.5" y="-359" font-family="Helvetica,sans-Serif" font-size="10.00">firmware/wombat/lib</text>
<text text-anchor="middle" x="767.5" y="-348" font-family="Helvetica,sans-Serif" font-size="10.00">/CatM1/include/CAT_M1.h</text>
</a>
</g>
</g>
<!-- Node2 -->
<g id="node2" class="node">
<title>Node2</title>
<g id="a_node2"><a xlink:href="cat-m1_8h.html" target="_top" xlink:title="CAT&#45;M1 CLI command request and response handler.">
<polygon fill="white" stroke="#666666" points="290,-305 149,-305 149,-275 290,-275 290,-305"/>
<text text-anchor="start" x="157" y="-293" font-family="Helvetica,sans-Serif" font-size="10.00">firmware/wombat/include</text>
<text text-anchor="middle" x="219.5" y="-282" font-family="Helvetica,sans-Serif" font-size="10.00">/cli/peripherals/cat&#45;m1.h</text>
</a>
</g>
</g>
<!-- Node1&#45;&gt;Node2 -->
<g id="edge1" class="edge">
<title>Node1&#45;&gt;Node2</title>
<path fill="none" stroke="#63b8ff" d="M687.15,-345.62C580.07,-333.11 392.26,-311.18 290.26,-299.26"/>
<polygon fill="#63b8ff" stroke="#63b8ff" points="686.92,-349.11 697.26,-346.8 687.73,-342.16 686.92,-349.11"/>
</g>
<!-- Node10 -->
<g id="node10" class="node">
<title>Node10</title>
<g id="a_node10"><a xlink:href="mqtt__stack_8cpp.html" target="_top" xlink:title=" ">
<polygon fill="white" stroke="#666666" points="857.5,-162 737.5,-162 737.5,-132 857.5,-132 857.5,-162"/>
<text text-anchor="start" x="745.5" y="-150" font-family="Helvetica,sans-Serif" font-size="10.00">firmware/wombat/src</text>
<text text-anchor="middle" x="797.5" y="-139" font-family="Helvetica,sans-Serif" font-size="10.00">/mqtt_stack.cpp</text>
</a>
</g>
</g>
<!-- Node1&#45;&gt;Node10 -->
<g id="edge24" class="edge">
<title>Node1&#45;&gt;Node10</title>
<path fill="none" stroke="#63b8ff" d="M823.22,-337.4C867.6,-320.1 926.72,-288.92 954.5,-239 963.36,-223.08 965.25,-212.71 954.5,-198 932.47,-167.86 892.1,-155.46 857.82,-150.54"/>
<polygon fill="#63b8ff" stroke="#63b8ff" points="821.83,-334.18 813.71,-340.98 824.3,-340.73 821.83,-334.18"/>
</g>
<!-- Node11 -->
<g id="node11" class="node">
<title>Node11</title>
<g id="a_node11"><a xlink:href="cat-m1_8cpp.html" target="_top" xlink:title="CAT&#45;M1 CLI command request and response handler.">
<polygon fill="white" stroke="#666666" points="279.5,-239 159.5,-239 159.5,-198 279.5,-198 279.5,-239"/>
<text text-anchor="start" x="167.5" y="-227" font-family="Helvetica,sans-Serif" font-size="10.00">firmware/wombat/src</text>
<text text-anchor="start" x="167.5" y="-216" font-family="Helvetica,sans-Serif" font-size="10.00">/cli/peripherals/cat</text>
<text text-anchor="middle" x="219.5" y="-205" font-family="Helvetica,sans-Serif" font-size="10.00">&#45;m1.cpp</text>
</a>
</g>
</g>
<!-- Node1&#45;&gt;Node11 -->
<g id="edge23" class="edge">
<title>Node1&#45;&gt;Node11</title>
<path fill="none" stroke="#63b8ff" d="M687.34,-339.3C641.3,-329.98 582.48,-317.56 530.5,-305 422.13,-278.82 395.92,-268.83 288.5,-239 285.62,-238.2 282.68,-237.38 279.7,-236.55"/>
<polygon fill="#63b8ff" stroke="#63b8ff" points="686.76,-342.75 697.26,-341.3 688.15,-335.89 686.76,-342.75"/>
</g>
<!-- Node12 -->
<g id="node12" class="node">
<title>Node12</title>
<g id="a_node12"><a xlink:href="globals_8h.html" target="_top" xlink:title=" ">
<polygon fill="white" stroke="#666666" points="681,-305 540,-305 540,-275 681,-275 681,-305"/>
<text text-anchor="start" x="548" y="-293" font-family="Helvetica,sans-Serif" font-size="10.00">firmware/wombat/include</text>
<text text-anchor="middle" x="610.5" y="-282" font-family="Helvetica,sans-Serif" font-size="10.00">/globals.h</text>
</a>
</g>
</g>
<!-- Node1&#45;&gt;Node12 -->
<g id="edge13" class="edge">
<title>Node1&#45;&gt;Node12</title>
<path fill="none" stroke="#63b8ff" d="M723.48,-337.05C698.6,-326.91 667.97,-314.43 644.87,-305.01"/>
<polygon fill="#63b8ff" stroke="#63b8ff" points="722.46,-340.42 733.05,-340.95 725.11,-333.94 722.46,-340.42"/>
</g>
<!-- Node14 -->
<g id="node14" class="node">
<title>Node14</title>
<g id="a_node14"><a xlink:href="_utils_8cpp.html" target="_top" xlink:title="Global utility functions.">
<polygon fill="white" stroke="#666666" points="945.5,-233.5 825.5,-233.5 825.5,-203.5 945.5,-203.5 945.5,-233.5"/>
<text text-anchor="start" x="833.5" y="-221.5" font-family="Helvetica,sans-Serif" font-size="10.00">firmware/wombat/src</text>
<text text-anchor="middle" x="885.5" y="-210.5" font-family="Helvetica,sans-Serif" font-size="10.00">/Utils.cpp</text>
</a>
</g>
</g>
<!-- Node1&#45;&gt;Node14 -->
<g id="edge22" class="edge">
<title>Node1&#45;&gt;Node14</title>
<path fill="none" stroke="#63b8ff" d="M786.61,-333.06C811.05,-304.99 852.69,-257.17 873.26,-233.55"/>
<polygon fill="#63b8ff" stroke="#63b8ff" points="783.83,-330.92 779.91,-340.76 789.11,-335.51 783.83,-330.92"/>
</g>
<!-- Node17 -->
<g id="node17" class="node">
<title>Node17</title>
<g id="a_node17"><a xlink:href="_c_a_t___m1_8cpp.html" target="_top" xlink:title=" ">
<polygon fill="white" stroke="#666666" points="1133,-305 1002,-305 1002,-275 1133,-275 1133,-305"/>
<text text-anchor="start" x="1010" y="-293" font-family="Helvetica,sans-Serif" font-size="10.00">firmware/wombat/lib</text>
<text text-anchor="middle" x="1067.5" y="-282" font-family="Helvetica,sans-Serif" font-size="10.00">/CatM1/src/CAT_M1.cpp</text>
</a>
</g>
</g>
<!-- Node1&#45;&gt;Node17 -->
<g id="edge21" class="edge">
<title>Node1&#45;&gt;Node17</title>
<path fill="none" stroke="#63b8ff" d="M843.23,-338.84C892.11,-328.42 955.06,-314.99 1001.82,-305.01"/>
<polygon fill="#63b8ff" stroke="#63b8ff" points="842.39,-335.45 833.34,-340.95 843.85,-342.29 842.39,-335.45"/>
</g>
<!-- Node3 -->
<g id="node3" class="node">
<title>Node3</title>
<g id="a_node3"><a xlink:href="_c_l_i_8h.html" target="_top" xlink:title="FreeRTOS CLI handler.">
<polygon fill="white" stroke="#666666" points="141,-233.5 0,-233.5 0,-203.5 141,-203.5 141,-233.5"/>
<text text-anchor="start" x="8" y="-221.5" font-family="Helvetica,sans-Serif" font-size="10.00">firmware/wombat/include</text>
<text text-anchor="middle" x="70.5" y="-210.5" font-family="Helvetica,sans-Serif" font-size="10.00">/cli/CLI.h</text>
</a>
</g>
</g>
<!-- Node2&#45;&gt;Node3 -->
<g id="edge2" class="edge">
<title>Node2&#45;&gt;Node3</title>
<path fill="none" stroke="#63b8ff" d="M180.16,-270.65C155.25,-259.03 123.52,-244.23 100.61,-233.54"/>
<polygon fill="#63b8ff" stroke="#63b8ff" points="178.81,-273.88 189.35,-274.94 181.76,-267.54 178.81,-273.88"/>
</g>
<!-- Node2&#45;&gt;Node11 -->
<g id="edge12" class="edge">
<title>Node2&#45;&gt;Node11</title>
<path fill="none" stroke="#63b8ff" d="M219.5,-264.91C219.5,-256.47 219.5,-247.1 219.5,-239.07"/>
<polygon fill="#63b8ff" stroke="#63b8ff" points="216,-264.94 219.5,-274.94 223,-264.94 216,-264.94"/>
</g>
<!-- Node4 -->
<g id="node4" class="node">
<title>Node4</title>
<g id="a_node4"><a xlink:href="server_8h.html" target="_top" xlink:title="Handle the setup and maintenance of the BLE server and connected clients.">
<polygon fill="white" stroke="#666666" points="141,-162 0,-162 0,-132 141,-132 141,-162"/>
<text text-anchor="start" x="8" y="-150" font-family="Helvetica,sans-Serif" font-size="10.00">firmware/wombat/include</text>
<text text-anchor="middle" x="70.5" y="-139" font-family="Helvetica,sans-Serif" font-size="10.00">/bluetooth/server.h</text>
</a>
</g>
</g>
<!-- Node3&#45;&gt;Node4 -->
<g id="edge3" class="edge">
<title>Node3&#45;&gt;Node4</title>
<path fill="none" stroke="#63b8ff" d="M64.03,-193.25C63.46,-182.81 63.76,-170.99 64.95,-162.04"/>
<polygon fill="#63b8ff" stroke="#63b8ff" points="60.57,-193.79 64.95,-203.44 67.54,-193.16 60.57,-193.79"/>
</g>
<!-- Node8 -->
<g id="node8" class="node">
<title>Node8</title>
<g id="a_node8"><a xlink:href="_c_l_i_8cpp.html" target="_top" xlink:title="FreeRTOS CLI handler.">
<polygon fill="white" stroke="#666666" points="279.5,-162 159.5,-162 159.5,-132 279.5,-132 279.5,-162"/>
<text text-anchor="start" x="167.5" y="-150" font-family="Helvetica,sans-Serif" font-size="10.00">firmware/wombat/src</text>
<text text-anchor="middle" x="219.5" y="-139" font-family="Helvetica,sans-Serif" font-size="10.00">/cli/CLI.cpp</text>
</a>
</g>
</g>
<!-- Node3&#45;&gt;Node8 -->
<g id="edge9" class="edge">
<title>Node3&#45;&gt;Node8</title>
<path fill="none" stroke="#63b8ff" d="M109.84,-199.15C134.75,-187.53 166.48,-172.73 189.39,-162.04"/>
<polygon fill="#63b8ff" stroke="#63b8ff" points="108.24,-196.04 100.65,-203.44 111.19,-202.38 108.24,-196.04"/>
</g>
<!-- Node9 -->
<g id="node9" class="node">
<title>Node9</title>
<g id="a_node9"><a xlink:href="main_8cpp.html" target="_top" xlink:title=" ">
<polygon fill="white" stroke="#666666" points="480.5,-162 360.5,-162 360.5,-132 480.5,-132 480.5,-162"/>
<text text-anchor="start" x="368.5" y="-150" font-family="Helvetica,sans-Serif" font-size="10.00">firmware/wombat/src</text>
<text text-anchor="middle" x="420.5" y="-139" font-family="Helvetica,sans-Serif" font-size="10.00">/main.cpp</text>
</a>
</g>
</g>
<!-- Node3&#45;&gt;Node9 -->
<g id="edge10" class="edge">
<title>Node3&#45;&gt;Node9</title>
<path fill="none" stroke="#63b8ff" d="M136.25,-201.16C141.06,-200.06 145.85,-199 150.5,-198 222.29,-182.62 305.41,-167.65 360.26,-158.16"/>
<polygon fill="#63b8ff" stroke="#63b8ff" points="135.3,-197.79 126.36,-203.46 136.89,-204.61 135.3,-197.79"/>
</g>
<!-- Node3&#45;&gt;Node10 -->
<g id="edge11" class="edge">
<title>Node3&#45;&gt;Node10</title>
<path fill="none" stroke="#63b8ff" d="M132.75,-201.29C138.73,-200.05 144.71,-198.92 150.5,-198 262.59,-180.13 599.07,-159.41 737.26,-151.4"/>
<polygon fill="#63b8ff" stroke="#63b8ff" points="131.78,-197.92 122.75,-203.48 133.27,-204.76 131.78,-197.92"/>
</g>
<!-- Node4&#45;&gt;Node3 -->
<g id="edge7" class="edge">
<title>Node4&#45;&gt;Node3</title>
<path fill="none" stroke="#63b8ff" d="M76.97,-172.23C77.54,-182.66 77.24,-194.49 76.05,-203.44"/>
<polygon fill="#63b8ff" stroke="#63b8ff" points="80.43,-171.69 76.05,-162.04 73.46,-172.32 80.43,-171.69"/>
</g>
<!-- Node5 -->
<g id="node5" class="node">
<title>Node5</title>
<g id="a_node5"><a xlink:href="uart_8h.html" target="_top" xlink:title="BluetoothLE UART service setup and handling.">
<polygon fill="white" stroke="#666666" points="141,-96 0,-96 0,-66 141,-66 141,-96"/>
<text text-anchor="start" x="8" y="-84" font-family="Helvetica,sans-Serif" font-size="10.00">firmware/wombat/include</text>
<text text-anchor="middle" x="70.5" y="-73" font-family="Helvetica,sans-Serif" font-size="10.00">/bluetooth/uart.h</text>
</a>
</g>
</g>
<!-- Node4&#45;&gt;Node5 -->
<g id="edge4" class="edge">
<title>Node4&#45;&gt;Node5</title>
<path fill="none" stroke="#63b8ff" d="M63.93,-121.83C63.52,-113.17 63.81,-103.7 64.79,-96.16"/>
<polygon fill="#63b8ff" stroke="#63b8ff" points="60.45,-122.13 64.78,-131.8 67.42,-121.54 60.45,-122.13"/>
</g>
<!-- Node7 -->
<g id="node7" class="node">
<title>Node7</title>
<g id="a_node7"><a xlink:href="server_8cpp.html" target="_top" xlink:title="Setup and start BluetoothLE server.">
<polygon fill="white" stroke="#666666" points="279.5,-96 159.5,-96 159.5,-66 279.5,-66 279.5,-96"/>
<text text-anchor="start" x="167.5" y="-84" font-family="Helvetica,sans-Serif" font-size="10.00">firmware/wombat/src</text>
<text text-anchor="middle" x="219.5" y="-73" font-family="Helvetica,sans-Serif" font-size="10.00">/bluetooth/server.cpp</text>
</a>
</g>
</g>
<!-- Node4&#45;&gt;Node7 -->
<g id="edge8" class="edge">
<title>Node4&#45;&gt;Node7</title>
<path fill="none" stroke="#63b8ff" d="M112.59,-127.92C136.14,-117.8 165.06,-105.38 186.88,-96.01"/>
<polygon fill="#63b8ff" stroke="#63b8ff" points="111.01,-124.79 103.2,-131.95 113.77,-131.22 111.01,-124.79"/>
</g>
<!-- Node5&#45;&gt;Node4 -->
<g id="edge5" class="edge">
<title>Node5&#45;&gt;Node4</title>
<path fill="none" stroke="#63b8ff" d="M77.07,-106.13C77.48,-114.78 77.2,-124.26 76.22,-131.8"/>
<polygon fill="#63b8ff" stroke="#63b8ff" points="80.55,-105.83 76.21,-96.16 73.58,-106.43 80.55,-105.83"/>
</g>
<!-- Node6 -->
<g id="node6" class="node">
<title>Node6</title>
<g id="a_node6"><a xlink:href="uart_8cpp.html" target="_top" xlink:title="BluetoothLE UART service setup and handling.">
<polygon fill="white" stroke="#666666" points="130.5,-30 10.5,-30 10.5,0 130.5,0 130.5,-30"/>
<text text-anchor="start" x="18.5" y="-18" font-family="Helvetica,sans-Serif" font-size="10.00">firmware/wombat/src</text>
<text text-anchor="middle" x="70.5" y="-7" font-family="Helvetica,sans-Serif" font-size="10.00">/bluetooth/uart.cpp</text>
</a>
</g>
</g>
<!-- Node5&#45;&gt;Node6 -->
<g id="edge6" class="edge">
<title>Node5&#45;&gt;Node6</title>
<path fill="none" stroke="#63b8ff" d="M70.5,-55.54C70.5,-46.96 70.5,-37.61 70.5,-30.16"/>
<polygon fill="#63b8ff" stroke="#63b8ff" points="67,-55.8 70.5,-65.8 74,-55.8 67,-55.8"/>
</g>
<!-- Node12&#45;&gt;Node9 -->
<g id="edge18" class="edge">
<title>Node12&#45;&gt;Node9</title>
<path fill="none" stroke="#63b8ff" d="M560.91,-271.03C541.7,-262.82 520.14,-252.01 502.5,-239 494.41,-233.04 453.57,-186.28 432.75,-162.21"/>
<polygon fill="#63b8ff" stroke="#63b8ff" points="559.84,-274.37 570.42,-274.96 562.51,-267.9 559.84,-274.37"/>
</g>
<!-- Node12&#45;&gt;Node10 -->
<g id="edge19" class="edge">
<title>Node12&#45;&gt;Node10</title>
<path fill="none" stroke="#63b8ff" d="M691.08,-282.57C722.42,-276.04 756.1,-263.35 778.5,-239 797.95,-217.86 799.54,-182.12 798.7,-162.31"/>
<polygon fill="#63b8ff" stroke="#63b8ff" points="690.18,-279.18 681.01,-284.49 691.49,-286.06 690.18,-279.18"/>
</g>
<!-- Node12&#45;&gt;Node11 -->
<g id="edge17" class="edge">
<title>Node12&#45;&gt;Node11</title>
<path fill="none" stroke="#63b8ff" d="M529.45,-279.19C464.03,-270.6 369.82,-256.74 288.5,-239 285.58,-238.36 282.6,-237.67 279.6,-236.95"/>
<polygon fill="#63b8ff" stroke="#63b8ff" points="529.32,-282.7 539.69,-280.52 530.23,-275.76 529.32,-282.7"/>
</g>
<!-- Node13 -->
<g id="node13" class="node">
<title>Node13</title>
<g id="a_node13"><a xlink:href="_sensor_task_8cpp.html" target="_top" xlink:title=" ">
<polygon fill="white" stroke="#666666" points="769.5,-233.5 649.5,-233.5 649.5,-203.5 769.5,-203.5 769.5,-233.5"/>
<text text-anchor="start" x="657.5" y="-221.5" font-family="Helvetica,sans-Serif" font-size="10.00">firmware/wombat/src</text>
<text text-anchor="middle" x="709.5" y="-210.5" font-family="Helvetica,sans-Serif" font-size="10.00">/SensorTask.cpp</text>
</a>
</g>
</g>
<!-- Node12&#45;&gt;Node13 -->
<g id="edge14" class="edge">
<title>Node12&#45;&gt;Node13</title>
<path fill="none" stroke="#63b8ff" d="M639.07,-268.94C655.22,-257.6 675.01,-243.71 689.5,-233.54"/>
<polygon fill="#63b8ff" stroke="#63b8ff" points="636.71,-266.33 630.53,-274.94 640.73,-272.05 636.71,-266.33"/>
</g>
<!-- Node12&#45;&gt;Node14 -->
<g id="edge15" class="edge">
<title>Node12&#45;&gt;Node14</title>
<path fill="none" stroke="#63b8ff" d="M677.93,-272.47C716.98,-262.84 767.05,-250.38 811.5,-239 818.32,-237.25 825.49,-235.39 832.57,-233.54"/>
<polygon fill="#63b8ff" stroke="#63b8ff" points="676.61,-269.19 667.73,-274.99 678.28,-275.99 676.61,-269.19"/>
</g>
<!-- Node15 -->
<g id="node15" class="node">
<title>Node15</title>
<g id="a_node15"><a xlink:href="acquisition__intervals_8cpp.html" target="_top" xlink:title="Handles the time between measurements and uplinks by the device over LTE.">
<polygon fill="white" stroke="#666666" points="455,-239 298,-239 298,-198 455,-198 455,-239"/>
<text text-anchor="start" x="306" y="-227" font-family="Helvetica,sans-Serif" font-size="10.00">firmware/wombat/src</text>
<text text-anchor="start" x="306" y="-216" font-family="Helvetica,sans-Serif" font-size="10.00">/cli/device_config/acquisition</text>
<text text-anchor="middle" x="376.5" y="-205" font-family="Helvetica,sans-Serif" font-size="10.00">_intervals.cpp</text>
</a>
</g>
</g>
<!-- Node12&#45;&gt;Node15 -->
<g id="edge16" class="edge">
<title>Node12&#45;&gt;Node15</title>
<path fill="none" stroke="#63b8ff" d="M553.49,-272.07C519.95,-262.11 477.38,-249.46 442.4,-239.07"/>
<polygon fill="#63b8ff" stroke="#63b8ff" points="552.56,-275.44 563.15,-274.94 554.56,-268.73 552.56,-275.44"/>
</g>
<!-- Node16 -->
<g id="node16" class="node">
<title>Node16</title>
<g id="a_node16"><a xlink:href="uplinks_8cpp.html" target="_top" xlink:title=" ">
<polygon fill="white" stroke="#666666" points="631.5,-233.5 511.5,-233.5 511.5,-203.5 631.5,-203.5 631.5,-233.5"/>
<text text-anchor="start" x="519.5" y="-221.5" font-family="Helvetica,sans-Serif" font-size="10.00">firmware/wombat/src</text>
<text text-anchor="middle" x="571.5" y="-210.5" font-family="Helvetica,sans-Serif" font-size="10.00">/uplinks.cpp</text>
</a>
</g>
</g>
<!-- Node12&#45;&gt;Node16 -->
<g id="edge20" class="edge">
<title>Node12&#45;&gt;Node16</title>
<path fill="none" stroke="#63b8ff" d="M597.63,-266.06C591.6,-255.32 584.61,-242.86 579.38,-233.54"/>
<polygon fill="#63b8ff" stroke="#63b8ff" points="594.66,-267.93 602.61,-274.94 600.77,-264.5 594.66,-267.93"/>
</g>
</g>
</svg>
