<?xml version="1.0" encoding="UTF-8" standalone="no"?>
<!DOCTYPE svg PUBLIC "-//W3C//DTD SVG 1.1//EN"
 "http://www.w3.org/Graphics/SVG/1.1/DTD/svg11.dtd">
<!-- Generated by graphviz version 2.43.0 (0)
 -->
<!-- Title: firmware/wombat/include/CAT_M1.h Pages: 1 -->
<svg width="1900pt" height="401pt"
 viewBox="0.00 0.00 1899.50 401.00" xmlns="http://www.w3.org/2000/svg" xmlns:xlink="http://www.w3.org/1999/xlink">
<g id="graph0" class="graph" transform="scale(1 1) rotate(0) translate(4 397)">
<title>firmware/wombat/include/CAT_M1.h</title>
<!-- Node1 -->
<g id="node1" class="node">
<title>Node1</title>
<g id="a_node1"><a xlink:title=" ">
<polygon fill="#999999" stroke="#666666" points="956.5,-393 815.5,-393 815.5,-363 956.5,-363 956.5,-393"/>
<text text-anchor="start" x="823.5" y="-381" font-family="Helvetica,sans-Serif" font-size="10.00">firmware/wombat/include</text>
<text text-anchor="middle" x="886" y="-370" font-family="Helvetica,sans-Serif" font-size="10.00">/CAT_M1.h</text>
</a>
</g>
</g>
<!-- Node2 -->
<g id="node2" class="node">
<title>Node2</title>
<g id="a_node2"><a xlink:href="cat-m1_8h.html" target="_top" xlink:title="CAT&#45;M1 CLI command request and response handler.">
<polygon fill="white" stroke="#666666" points="260.5,-321.5 119.5,-321.5 119.5,-291.5 260.5,-291.5 260.5,-321.5"/>
<text text-anchor="start" x="127.5" y="-309.5" font-family="Helvetica,sans-Serif" font-size="10.00">firmware/wombat/include</text>
<text text-anchor="middle" x="190" y="-298.5" font-family="Helvetica,sans-Serif" font-size="10.00">/cli/peripherals/cat&#45;m1.h</text>
</a>
</g>
</g>
<!-- Node1&#45;&gt;Node2 -->
<g id="edge1" class="edge">
<title>Node1&#45;&gt;Node2</title>
<path fill="none" stroke="#63b8ff" d="M805.3,-374.52C687.14,-369.96 460.41,-357.74 270,-327 261.11,-325.56 251.75,-323.66 242.69,-321.59"/>
<polygon fill="#63b8ff" stroke="#63b8ff" points="805.23,-378.02 815.35,-374.89 805.49,-371.02 805.23,-378.02"/>
</g>
<!-- Node9 -->
<g id="node9" class="node">
<title>Node9</title>
<g id="a_node9"><a xlink:href="cat-m1_8cpp.html" target="_top" xlink:title="CAT&#45;M1 CLI command request and response handler.">
<polygon fill="white" stroke="#666666" points="120,-173 0,-173 0,-132 120,-132 120,-173"/>
<text text-anchor="start" x="8" y="-161" font-family="Helvetica,sans-Serif" font-size="10.00">firmware/wombat/src</text>
<text text-anchor="start" x="8" y="-150" font-family="Helvetica,sans-Serif" font-size="10.00">/cli/peripherals/cat</text>
<text text-anchor="middle" x="60" y="-139" font-family="Helvetica,sans-Serif" font-size="10.00">&#45;m1.cpp</text>
</a>
</g>
</g>
<!-- Node1&#45;&gt;Node9 -->
<g id="edge35" class="edge">
<title>Node1&#45;&gt;Node9</title>
<path fill="none" stroke="#63b8ff" d="M805.29,-376.85C617.66,-375.81 163.94,-368.92 110,-327 62.23,-289.88 58.07,-210.12 58.91,-173.11"/>
<polygon fill="#63b8ff" stroke="#63b8ff" points="805.35,-380.35 815.37,-376.91 805.39,-373.35 805.35,-380.35"/>
</g>
<!-- Node13 -->
<g id="node13" class="node">
<title>Node13</title>
<g id="a_node13"><a xlink:href="mqtt__stack_8cpp.html" target="_top" xlink:title=" ">
<polygon fill="white" stroke="#666666" points="1614,-167.5 1494,-167.5 1494,-137.5 1614,-137.5 1614,-167.5"/>
<text text-anchor="start" x="1502" y="-155.5" font-family="Helvetica,sans-Serif" font-size="10.00">firmware/wombat/src</text>
<text text-anchor="middle" x="1554" y="-144.5" font-family="Helvetica,sans-Serif" font-size="10.00">/mqtt_stack.cpp</text>
</a>
</g>
</g>
<!-- Node1&#45;&gt;Node13 -->
<g id="edge36" class="edge">
<title>Node1&#45;&gt;Node13</title>
<path fill="none" stroke="#63b8ff" d="M966.93,-377.39C1155.76,-376.37 1616.57,-362.21 1711,-250 1722.73,-236.06 1721.52,-223.88 1711,-209 1689.13,-178.08 1648.54,-164.27 1614.1,-158.16"/>
<polygon fill="#63b8ff" stroke="#63b8ff" points="966.78,-373.89 956.79,-377.43 966.81,-380.89 966.78,-373.89"/>
</g>
<!-- Node14 -->
<g id="node14" class="node">
<title>Node14</title>
<g id="a_node14"><a xlink:href="cli__power_8h.html" target="_top" xlink:title=" ">
<polygon fill="white" stroke="#666666" points="425,-321.5 279,-321.5 279,-291.5 425,-291.5 425,-321.5"/>
<text text-anchor="start" x="287" y="-309.5" font-family="Helvetica,sans-Serif" font-size="10.00">firmware/wombat/include</text>
<text text-anchor="middle" x="352" y="-298.5" font-family="Helvetica,sans-Serif" font-size="10.00">/cli/peripherals/cli_power.h</text>
</a>
</g>
</g>
<!-- Node1&#45;&gt;Node14 -->
<g id="edge15" class="edge">
<title>Node1&#45;&gt;Node14</title>
<path fill="none" stroke="#63b8ff" d="M805.3,-366.5C701.98,-353.05 524.46,-329.95 425,-317"/>
<polygon fill="#63b8ff" stroke="#63b8ff" points="805,-369.99 815.36,-367.81 805.9,-363.05 805,-369.99"/>
</g>
<!-- Node16 -->
<g id="node16" class="node">
<title>Node16</title>
<g id="a_node16"><a xlink:href="globals_8h.html" target="_top" xlink:title=" ">
<polygon fill="white" stroke="#666666" points="1113.5,-321.5 972.5,-321.5 972.5,-291.5 1113.5,-291.5 1113.5,-321.5"/>
<text text-anchor="start" x="980.5" y="-309.5" font-family="Helvetica,sans-Serif" font-size="10.00">firmware/wombat/include</text>
<text text-anchor="middle" x="1043" y="-298.5" font-family="Helvetica,sans-Serif" font-size="10.00">/globals.h</text>
</a>
</g>
</g>
<!-- Node1&#45;&gt;Node16 -->
<g id="edge18" class="edge">
<title>Node1&#45;&gt;Node16</title>
<path fill="none" stroke="#63b8ff" d="M927.1,-358.81C953.41,-347.16 987.03,-332.28 1011.28,-321.54"/>
<polygon fill="#63b8ff" stroke="#63b8ff" points="925.5,-355.69 917.77,-362.94 928.33,-362.09 925.5,-355.69"/>
</g>
<!-- Node17 -->
<g id="node17" class="node">
<title>Node17</title>
<g id="a_node17"><a xlink:href="_c_a_t___m1_8cpp.html" target="_top" xlink:title=" ">
<polygon fill="white" stroke="#666666" points="544,-244.5 424,-244.5 424,-214.5 544,-214.5 544,-244.5"/>
<text text-anchor="start" x="432" y="-232.5" font-family="Helvetica,sans-Serif" font-size="10.00">firmware/wombat/src</text>
<text text-anchor="middle" x="484" y="-221.5" font-family="Helvetica,sans-Serif" font-size="10.00">/CAT_M1.cpp</text>
</a>
</g>
</g>
<!-- Node1&#45;&gt;Node17 -->
<g id="edge32" class="edge">
<title>Node1&#45;&gt;Node17</title>
<path fill="none" stroke="#63b8ff" d="M838.03,-359.52C757.37,-330.12 596.17,-271.38 522.43,-244.5"/>
<polygon fill="#63b8ff" stroke="#63b8ff" points="836.86,-362.82 847.45,-362.95 839.26,-356.24 836.86,-362.82"/>
</g>
<!-- Node19 -->
<g id="node19" class="node">
<title>Node19</title>
<g id="a_node19"><a xlink:href="_utils_8cpp.html" target="_top" xlink:title="Global utility functions.">
<polygon fill="white" stroke="#666666" points="1702,-244.5 1582,-244.5 1582,-214.5 1702,-214.5 1702,-244.5"/>
<text text-anchor="start" x="1590" y="-232.5" font-family="Helvetica,sans-Serif" font-size="10.00">firmware/wombat/src</text>
<text text-anchor="middle" x="1642" y="-221.5" font-family="Helvetica,sans-Serif" font-size="10.00">/Utils.cpp</text>
</a>
</g>
</g>
<!-- Node1&#45;&gt;Node19 -->
<g id="edge33" class="edge">
<title>Node1&#45;&gt;Node19</title>
<path fill="none" stroke="#63b8ff" d="M967.03,-361.3C1119.76,-331.7 1446.97,-268.29 1581.91,-242.14"/>
<polygon fill="#63b8ff" stroke="#63b8ff" points="965.93,-357.94 956.78,-363.28 967.27,-364.82 965.93,-357.94"/>
</g>
<!-- Node25 -->
<g id="node25" class="node">
<title>Node25</title>
<g id="a_node25"><a xlink:href="config__cli_8cpp.html" target="_top" xlink:title="Command line interface node configuration commands.">
<polygon fill="white" stroke="#666666" points="1891.5,-327 1758.5,-327 1758.5,-286 1891.5,-286 1891.5,-327"/>
<text text-anchor="start" x="1766.5" y="-315" font-family="Helvetica,sans-Serif" font-size="10.00">firmware/wombat/src</text>
<text text-anchor="start" x="1766.5" y="-304" font-family="Helvetica,sans-Serif" font-size="10.00">/cli/device_config/config</text>
<text text-anchor="middle" x="1825" y="-293" font-family="Helvetica,sans-Serif" font-size="10.00">_cli.cpp</text>
</a>
</g>
</g>
<!-- Node1&#45;&gt;Node25 -->
<g id="edge34" class="edge">
<title>Node1&#45;&gt;Node25</title>
<path fill="none" stroke="#63b8ff" d="M966.72,-377.07C1119.38,-376.14 1460.49,-369.05 1744,-327 1748.72,-326.3 1753.57,-325.46 1758.44,-324.52"/>
<polygon fill="#63b8ff" stroke="#63b8ff" points="966.48,-373.57 956.5,-377.12 966.52,-380.57 966.48,-373.57"/>
</g>
<!-- Node3 -->
<g id="node3" class="node">
<title>Node3</title>
<g id="a_node3"><a xlink:href="_c_l_i_8h.html" target="_top" xlink:title="FreeRTOS CLI handler.">
<polygon fill="white" stroke="#666666" points="267.5,-244.5 126.5,-244.5 126.5,-214.5 267.5,-214.5 267.5,-244.5"/>
<text text-anchor="start" x="134.5" y="-232.5" font-family="Helvetica,sans-Serif" font-size="10.00">firmware/wombat/include</text>
<text text-anchor="middle" x="197" y="-221.5" font-family="Helvetica,sans-Serif" font-size="10.00">/cli/CLI.h</text>
</a>
</g>
</g>
<!-- Node2&#45;&gt;Node3 -->
<g id="edge2" class="edge">
<title>Node2&#45;&gt;Node3</title>
<path fill="none" stroke="#63b8ff" d="M192.25,-281.41C193.38,-269.24 194.72,-254.9 195.69,-244.54"/>
<polygon fill="#63b8ff" stroke="#63b8ff" points="188.76,-281.11 191.32,-291.39 195.73,-281.76 188.76,-281.11"/>
</g>
<!-- Node2&#45;&gt;Node9 -->
<g id="edge14" class="edge">
<title>Node2&#45;&gt;Node9</title>
<path fill="none" stroke="#63b8ff" d="M158.77,-285.8C144.94,-276.11 129.09,-263.59 117,-250 95.92,-226.31 78.57,-193.66 68.75,-173.07"/>
<polygon fill="#63b8ff" stroke="#63b8ff" points="156.84,-288.72 167.08,-291.46 160.78,-282.94 156.84,-288.72"/>
</g>
<!-- Node4 -->
<g id="node4" class="node">
<title>Node4</title>
<g id="a_node4"><a xlink:href="server_8h.html" target="_top" xlink:title="Handle the setup and maintenance of the BLE server and connected clients.">
<polygon fill="white" stroke="#666666" points="435.5,-167.5 294.5,-167.5 294.5,-137.5 435.5,-137.5 435.5,-167.5"/>
<text text-anchor="start" x="302.5" y="-155.5" font-family="Helvetica,sans-Serif" font-size="10.00">firmware/wombat/include</text>
<text text-anchor="middle" x="365" y="-144.5" font-family="Helvetica,sans-Serif" font-size="10.00">/bluetooth/server.h</text>
</a>
</g>
</g>
<!-- Node3&#45;&gt;Node4 -->
<g id="edge3" class="edge">
<title>Node3&#45;&gt;Node4</title>
<path fill="none" stroke="#63b8ff" d="M237.8,-210.29C267.27,-197.13 306.48,-179.62 333.54,-167.54"/>
<polygon fill="#63b8ff" stroke="#63b8ff" points="236.3,-207.12 228.6,-214.39 239.16,-213.51 236.3,-207.12"/>
</g>
<!-- Node8 -->
<g id="node8" class="node">
<title>Node8</title>
<g id="a_node8"><a xlink:href="_c_l_i_8cpp.html" target="_top" xlink:title="FreeRTOS CLI handler.">
<polygon fill="white" stroke="#666666" points="574,-167.5 454,-167.5 454,-137.5 574,-137.5 574,-167.5"/>
<text text-anchor="start" x="462" y="-155.5" font-family="Helvetica,sans-Serif" font-size="10.00">firmware/wombat/src</text>
<text text-anchor="middle" x="514" y="-144.5" font-family="Helvetica,sans-Serif" font-size="10.00">/cli/CLI.cpp</text>
</a>
</g>
</g>
<!-- Node3&#45;&gt;Node8 -->
<g id="edge8" class="edge">
<title>Node3&#45;&gt;Node8</title>
<path fill="none" stroke="#63b8ff" d="M263.66,-212.11C268.17,-211.04 272.65,-210 277,-209 351,-192.01 370.29,-191.2 444,-173 450.86,-171.31 458.07,-169.42 465.14,-167.51"/>
<polygon fill="#63b8ff" stroke="#63b8ff" points="262.69,-208.74 253.77,-214.46 264.31,-215.55 262.69,-208.74"/>
</g>
<!-- Node3&#45;&gt;Node9 -->
<g id="edge9" class="edge">
<title>Node3&#45;&gt;Node9</title>
<path fill="none" stroke="#63b8ff" d="M162.29,-209.5C141.93,-198.35 116.26,-184.3 95.73,-173.06"/>
<polygon fill="#63b8ff" stroke="#63b8ff" points="160.78,-212.66 171.23,-214.39 164.14,-206.52 160.78,-212.66"/>
</g>
<!-- Node10 -->
<g id="node10" class="node">
<title>Node10</title>
<g id="a_node10"><a xlink:href="sd__card_8cpp.html" target="_top" xlink:title=" ">
<polygon fill="white" stroke="#666666" points="869,-173 749,-173 749,-132 869,-132 869,-173"/>
<text text-anchor="start" x="757" y="-161" font-family="Helvetica,sans-Serif" font-size="10.00">firmware/wombat/src</text>
<text text-anchor="start" x="757" y="-150" font-family="Helvetica,sans-Serif" font-size="10.00">/cli/peripherals/sd</text>
<text text-anchor="middle" x="809" y="-139" font-family="Helvetica,sans-Serif" font-size="10.00">_card.cpp</text>
</a>
</g>
</g>
<!-- Node3&#45;&gt;Node10 -->
<g id="edge10" class="edge">
<title>Node3&#45;&gt;Node10</title>
<path fill="none" stroke="#63b8ff" d="M260.26,-212.25C265.9,-211.05 271.54,-209.95 277,-209 366.44,-193.51 629.53,-169.31 748.89,-158.74"/>
<polygon fill="#63b8ff" stroke="#63b8ff" points="259.16,-208.91 250.15,-214.48 260.67,-215.74 259.16,-208.91"/>
</g>
<!-- Node11 -->
<g id="node11" class="node">
<title>Node11</title>
<g id="a_node11"><a xlink:href="sdi12_8cpp.html" target="_top" xlink:title="SDI&#45;12 command line interface handler.">
<polygon fill="white" stroke="#666666" points="276,-167.5 138,-167.5 138,-137.5 276,-137.5 276,-167.5"/>
<text text-anchor="start" x="146" y="-155.5" font-family="Helvetica,sans-Serif" font-size="10.00">firmware/wombat/src</text>
<text text-anchor="middle" x="207" y="-144.5" font-family="Helvetica,sans-Serif" font-size="10.00">/cli/peripherals/sdi12.cpp</text>
</a>
</g>
</g>
<!-- Node3&#45;&gt;Node11 -->
<g id="edge11" class="edge">
<title>Node3&#45;&gt;Node11</title>
<path fill="none" stroke="#63b8ff" d="M200.21,-204.41C201.83,-192.24 203.75,-177.9 205.13,-167.54"/>
<polygon fill="#63b8ff" stroke="#63b8ff" points="196.73,-204.02 198.88,-214.39 203.67,-204.94 196.73,-204.02"/>
</g>
<!-- Node12 -->
<g id="node12" class="node">
<title>Node12</title>
<g id="a_node12"><a xlink:href="main_8cpp.html" target="_top" xlink:title=" ">
<polygon fill="white" stroke="#666666" points="1320,-167.5 1200,-167.5 1200,-137.5 1320,-137.5 1320,-167.5"/>
<text text-anchor="start" x="1208" y="-155.5" font-family="Helvetica,sans-Serif" font-size="10.00">firmware/wombat/src</text>
<text text-anchor="middle" x="1260" y="-144.5" font-family="Helvetica,sans-Serif" font-size="10.00">/main.cpp</text>
</a>
</g>
</g>
<!-- Node3&#45;&gt;Node12 -->
<g id="edge12" class="edge">
<title>Node3&#45;&gt;Node12</title>
<path fill="none" stroke="#63b8ff" d="M258.95,-212.22C265.02,-210.98 271.11,-209.88 277,-209 322.73,-202.19 993.4,-167.24 1199.92,-156.59"/>
<polygon fill="#63b8ff" stroke="#63b8ff" points="257.83,-208.88 248.8,-214.42 259.31,-215.73 257.83,-208.88"/>
</g>
<!-- Node3&#45;&gt;Node13 -->
<g id="edge13" class="edge">
<title>Node3&#45;&gt;Node13</title>
<path fill="none" stroke="#63b8ff" d="M257.92,-212.29C264.33,-210.99 270.77,-209.86 277,-209 740.47,-145.27 862.02,-201.21 1329,-173 1384.97,-169.62 1448.61,-163.93 1493.9,-159.57"/>
<polygon fill="#63b8ff" stroke="#63b8ff" points="256.95,-208.92 247.91,-214.44 258.43,-215.76 256.95,-208.92"/>
</g>
<!-- Node5 -->
<g id="node5" class="node">
<title>Node5</title>
<g id="a_node5"><a xlink:href="uart_8h.html" target="_top" xlink:title="BluetoothLE UART service setup and handling.">
<polygon fill="white" stroke="#666666" points="435.5,-96 294.5,-96 294.5,-66 435.5,-66 435.5,-96"/>
<text text-anchor="start" x="302.5" y="-84" font-family="Helvetica,sans-Serif" font-size="10.00">firmware/wombat/include</text>
<text text-anchor="middle" x="365" y="-73" font-family="Helvetica,sans-Serif" font-size="10.00">/bluetooth/uart.h</text>
</a>
</g>
</g>
<!-- Node4&#45;&gt;Node5 -->
<g id="edge4" class="edge">
<title>Node4&#45;&gt;Node5</title>
<path fill="none" stroke="#63b8ff" d="M358.53,-127.25C357.96,-116.81 358.26,-104.99 359.45,-96.04"/>
<polygon fill="#63b8ff" stroke="#63b8ff" points="355.07,-127.79 359.45,-137.44 362.04,-127.16 355.07,-127.79"/>
</g>
<!-- Node7 -->
<g id="node7" class="node">
<title>Node7</title>
<g id="a_node7"><a xlink:href="server_8cpp.html" target="_top" xlink:title="Setup and start BluetoothLE server.">
<polygon fill="white" stroke="#666666" points="574,-96 454,-96 454,-66 574,-66 574,-96"/>
<text text-anchor="start" x="462" y="-84" font-family="Helvetica,sans-Serif" font-size="10.00">firmware/wombat/src</text>
<text text-anchor="middle" x="514" y="-73" font-family="Helvetica,sans-Serif" font-size="10.00">/bluetooth/server.cpp</text>
</a>
</g>
</g>
<!-- Node4&#45;&gt;Node7 -->
<g id="edge7" class="edge">
<title>Node4&#45;&gt;Node7</title>
<path fill="none" stroke="#63b8ff" d="M404.34,-133.15C429.25,-121.53 460.98,-106.73 483.89,-96.04"/>
<polygon fill="#63b8ff" stroke="#63b8ff" points="402.74,-130.04 395.15,-137.44 405.69,-136.38 402.74,-130.04"/>
</g>
<!-- Node5&#45;&gt;Node4 -->
<g id="edge5" class="edge">
<title>Node5&#45;&gt;Node4</title>
<path fill="none" stroke="#63b8ff" d="M371.47,-106.23C372.04,-116.66 371.74,-128.49 370.55,-137.44"/>
<polygon fill="#63b8ff" stroke="#63b8ff" points="374.93,-105.69 370.55,-96.04 367.96,-106.32 374.93,-105.69"/>
</g>
<!-- Node6 -->
<g id="node6" class="node">
<title>Node6</title>
<g id="a_node6"><a xlink:href="uart_8cpp.html" target="_top" xlink:title="BluetoothLE UART service setup and handling.">
<polygon fill="white" stroke="#666666" points="425,-30 305,-30 305,0 425,0 425,-30"/>
<text text-anchor="start" x="313" y="-18" font-family="Helvetica,sans-Serif" font-size="10.00">firmware/wombat/src</text>
<text text-anchor="middle" x="365" y="-7" font-family="Helvetica,sans-Serif" font-size="10.00">/bluetooth/uart.cpp</text>
</a>
</g>
</g>
<!-- Node5&#45;&gt;Node6 -->
<g id="edge6" class="edge">
<title>Node5&#45;&gt;Node6</title>
<path fill="none" stroke="#63b8ff" d="M365,-55.54C365,-46.96 365,-37.61 365,-30.16"/>
<polygon fill="#63b8ff" stroke="#63b8ff" points="361.5,-55.8 365,-65.8 368.5,-55.8 361.5,-55.8"/>
</g>
<!-- Node14&#45;&gt;Node3 -->
<g id="edge16" class="edge">
<title>Node14&#45;&gt;Node3</title>
<path fill="none" stroke="#63b8ff" d="M313.65,-286.94C286.55,-273.83 250.77,-256.52 226.02,-244.54"/>
<polygon fill="#63b8ff" stroke="#63b8ff" points="312.32,-290.19 322.85,-291.39 315.37,-283.89 312.32,-290.19"/>
</g>
<!-- Node15 -->
<g id="node15" class="node">
<title>Node15</title>
<g id="a_node15"><a xlink:href="cli__power_8cpp.html" target="_top" xlink:title="Power related commands.">
<polygon fill="white" stroke="#666666" points="406,-250 286,-250 286,-209 406,-209 406,-250"/>
<text text-anchor="start" x="294" y="-238" font-family="Helvetica,sans-Serif" font-size="10.00">firmware/wombat/src</text>
<text text-anchor="start" x="294" y="-227" font-family="Helvetica,sans-Serif" font-size="10.00">/cli/device_config/cli</text>
<text text-anchor="middle" x="346" y="-216" font-family="Helvetica,sans-Serif" font-size="10.00">_power.cpp</text>
</a>
</g>
</g>
<!-- Node14&#45;&gt;Node15 -->
<g id="edge17" class="edge">
<title>Node14&#45;&gt;Node15</title>
<path fill="none" stroke="#63b8ff" d="M350.06,-281.23C349.26,-271.2 348.34,-259.71 347.58,-250.2"/>
<polygon fill="#63b8ff" stroke="#63b8ff" points="346.59,-281.7 350.87,-291.39 353.56,-281.15 346.59,-281.7"/>
</g>
<!-- Node16&#45;&gt;Node9 -->
<g id="edge24" class="edge">
<title>Node16&#45;&gt;Node9</title>
<path fill="none" stroke="#63b8ff" d="M961.86,-302.19C849.7,-296.5 653.97,-282.21 591,-250 568.88,-238.69 575.33,-219.9 553,-209 468.02,-167.53 222.03,-189.94 129,-173 126.06,-172.46 123.07,-171.86 120.05,-171.2"/>
<polygon fill="#63b8ff" stroke="#63b8ff" points="961.95,-305.7 972.11,-302.7 962.3,-298.71 961.95,-305.7"/>
</g>
<!-- Node16&#45;&gt;Node10 -->
<g id="edge25" class="edge">
<title>Node16&#45;&gt;Node10</title>
<path fill="none" stroke="#63b8ff" d="M1124,-300.36C1238.77,-292.24 1437.31,-274.78 1459,-250 1471,-236.29 1471.32,-222.42 1459,-209 1439.18,-187.41 1026.43,-164.45 869.15,-156.45"/>
<polygon fill="#63b8ff" stroke="#63b8ff" points="1123.57,-296.88 1113.84,-301.07 1124.06,-303.86 1123.57,-296.88"/>
</g>
<!-- Node16&#45;&gt;Node12 -->
<g id="edge27" class="edge">
<title>Node16&#45;&gt;Node12</title>
<path fill="none" stroke="#63b8ff" d="M1123.74,-301.23C1246.4,-293.91 1468.06,-277.08 1492,-250 1544.58,-190.52 1405.14,-166.84 1320.13,-158.12"/>
<polygon fill="#63b8ff" stroke="#63b8ff" points="1123.42,-297.74 1113.64,-301.83 1123.83,-304.73 1123.42,-297.74"/>
</g>
<!-- Node16&#45;&gt;Node13 -->
<g id="edge28" class="edge">
<title>Node16&#45;&gt;Node13</title>
<path fill="none" stroke="#63b8ff" d="M1123.9,-300.25C1249.58,-291.44 1480.52,-272.45 1511,-250 1538.03,-230.09 1548.39,-189.34 1552.1,-167.71"/>
<polygon fill="#63b8ff" stroke="#63b8ff" points="1123.29,-296.78 1113.56,-300.96 1123.77,-303.76 1123.29,-296.78"/>
</g>
<!-- Node16&#45;&gt;Node15 -->
<g id="edge23" class="edge">
<title>Node16&#45;&gt;Node15</title>
<path fill="none" stroke="#63b8ff" d="M962.03,-303.18C841.78,-298.66 609.3,-285.71 415,-250 412.06,-249.46 409.07,-248.85 406.05,-248.19"/>
<polygon fill="#63b8ff" stroke="#63b8ff" points="962.13,-306.69 972.26,-303.56 962.39,-299.7 962.13,-306.69"/>
</g>
<!-- Node16&#45;&gt;Node17 -->
<g id="edge19" class="edge">
<title>Node16&#45;&gt;Node17</title>
<path fill="none" stroke="#63b8ff" d="M962.25,-299.83C865.55,-292.22 698.98,-276.5 558,-250 549.9,-248.48 541.39,-246.55 533.13,-244.5"/>
<polygon fill="#63b8ff" stroke="#63b8ff" points="962,-303.32 972.25,-300.61 962.55,-296.34 962,-303.32"/>
</g>
<!-- Node18 -->
<g id="node18" class="node">
<title>Node18</title>
<g id="a_node18"><a xlink:href="_sensor_task_8cpp.html" target="_top" xlink:title=" ">
<polygon fill="white" stroke="#666666" points="720,-244.5 600,-244.5 600,-214.5 720,-214.5 720,-244.5"/>
<text text-anchor="start" x="608" y="-232.5" font-family="Helvetica,sans-Serif" font-size="10.00">firmware/wombat/src</text>
<text text-anchor="middle" x="660" y="-221.5" font-family="Helvetica,sans-Serif" font-size="10.00">/SensorTask.cpp</text>
</a>
</g>
</g>
<!-- Node16&#45;&gt;Node18 -->
<g id="edge20" class="edge">
<title>Node16&#45;&gt;Node18</title>
<path fill="none" stroke="#63b8ff" d="M962.46,-293.55C898.76,-283.55 807.75,-268.04 729,-250 721.96,-248.39 714.57,-246.51 707.35,-244.56"/>
<polygon fill="#63b8ff" stroke="#63b8ff" points="962.02,-297.02 972.44,-295.11 963.1,-290.11 962.02,-297.02"/>
</g>
<!-- Node16&#45;&gt;Node19 -->
<g id="edge21" class="edge">
<title>Node16&#45;&gt;Node19</title>
<path fill="none" stroke="#63b8ff" d="M1123.61,-300.8C1227.14,-293.9 1412.05,-278.62 1568,-250 1576.1,-248.51 1584.62,-246.6 1592.88,-244.56"/>
<polygon fill="#63b8ff" stroke="#63b8ff" points="1123.29,-297.32 1113.55,-301.47 1123.75,-304.3 1123.29,-297.32"/>
</g>
<!-- Node20 -->
<g id="node20" class="node">
<title>Node20</title>
<g id="a_node20"><a xlink:href="acquisition__intervals_8cpp.html" target="_top" xlink:title="Handles the time between measurements and uplinks by the device over LTE.">
<polygon fill="white" stroke="#666666" points="895.5,-250 738.5,-250 738.5,-209 895.5,-209 895.5,-250"/>
<text text-anchor="start" x="746.5" y="-238" font-family="Helvetica,sans-Serif" font-size="10.00">firmware/wombat/src</text>
<text text-anchor="start" x="746.5" y="-227" font-family="Helvetica,sans-Serif" font-size="10.00">/cli/device_config/acquisition</text>
<text text-anchor="middle" x="817" y="-216" font-family="Helvetica,sans-Serif" font-size="10.00">_intervals.cpp</text>
</a>
</g>
</g>
<!-- Node16&#45;&gt;Node20 -->
<g id="edge22" class="edge">
<title>Node16&#45;&gt;Node20</title>
<path fill="none" stroke="#63b8ff" d="M990.94,-288.22C956.66,-276.85 911.7,-261.93 876.08,-250.11"/>
<polygon fill="#63b8ff" stroke="#63b8ff" points="990.16,-291.65 1000.76,-291.48 992.37,-285.01 990.16,-291.65"/>
</g>
<!-- Node21 -->
<g id="node21" class="node">
<title>Node21</title>
<g id="a_node21"><a xlink:href="ftp__stack_8cpp.html" target="_top" xlink:title=" ">
<polygon fill="white" stroke="#666666" points="1034,-244.5 914,-244.5 914,-214.5 1034,-214.5 1034,-244.5"/>
<text text-anchor="start" x="922" y="-232.5" font-family="Helvetica,sans-Serif" font-size="10.00">firmware/wombat/src</text>
<text text-anchor="middle" x="974" y="-221.5" font-family="Helvetica,sans-Serif" font-size="10.00">/ftp_stack.cpp</text>
</a>
</g>
</g>
<!-- Node16&#45;&gt;Node21 -->
<g id="edge26" class="edge">
<title>Node16&#45;&gt;Node21</title>
<path fill="none" stroke="#63b8ff" d="M1023.18,-283.96C1011.52,-271.29 997.12,-255.63 986.92,-244.54"/>
<polygon fill="#63b8ff" stroke="#63b8ff" points="1020.68,-286.4 1030.02,-291.39 1025.83,-281.66 1020.68,-286.4"/>
</g>
<!-- Node22 -->
<g id="node22" class="node">
<title>Node22</title>
<g id="a_node22"><a xlink:href="ota__update_8cpp.html" target="_top" xlink:title=" ">
<polygon fill="white" stroke="#666666" points="1172,-244.5 1052,-244.5 1052,-214.5 1172,-214.5 1172,-244.5"/>
<text text-anchor="start" x="1060" y="-232.5" font-family="Helvetica,sans-Serif" font-size="10.00">firmware/wombat/src</text>
<text text-anchor="middle" x="1112" y="-221.5" font-family="Helvetica,sans-Serif" font-size="10.00">/ota_update.cpp</text>
</a>
</g>
</g>
<!-- Node16&#45;&gt;Node22 -->
<g id="edge29" class="edge">
<title>Node16&#45;&gt;Node22</title>
<path fill="none" stroke="#63b8ff" d="M1062.82,-283.96C1074.48,-271.29 1088.88,-255.63 1099.08,-244.54"/>
<polygon fill="#63b8ff" stroke="#63b8ff" points="1060.17,-281.66 1055.98,-291.39 1065.32,-286.4 1060.17,-281.66"/>
</g>
<!-- Node23 -->
<g id="node23" class="node">
<title>Node23</title>
<g id="a_node23"><a xlink:href="interface_8cpp.html" target="_top" xlink:title=" ">
<polygon fill="white" stroke="#666666" points="1312,-244.5 1190,-244.5 1190,-214.5 1312,-214.5 1312,-244.5"/>
<text text-anchor="start" x="1198" y="-232.5" font-family="Helvetica,sans-Serif" font-size="10.00">firmware/wombat/src</text>
<text text-anchor="middle" x="1251" y="-221.5" font-family="Helvetica,sans-Serif" font-size="10.00">/sd&#45;card/interface.cpp</text>
</a>
</g>
</g>
<!-- Node16&#45;&gt;Node23 -->
<g id="edge30" class="edge">
<title>Node16&#45;&gt;Node23</title>
<path fill="none" stroke="#63b8ff" d="M1091.63,-287.97C1128.31,-274.74 1177.97,-256.83 1212.05,-244.54"/>
<polygon fill="#63b8ff" stroke="#63b8ff" points="1090.34,-284.71 1082.12,-291.39 1092.72,-291.29 1090.34,-284.71"/>
</g>
<!-- Node24 -->
<g id="node24" class="node">
<title>Node24</title>
<g id="a_node24"><a xlink:href="uplinks_8cpp.html" target="_top" xlink:title=" ">
<polygon fill="white" stroke="#666666" points="1450,-244.5 1330,-244.5 1330,-214.5 1450,-214.5 1450,-244.5"/>
<text text-anchor="start" x="1338" y="-232.5" font-family="Helvetica,sans-Serif" font-size="10.00">firmware/wombat/src</text>
<text text-anchor="middle" x="1390" y="-221.5" font-family="Helvetica,sans-Serif" font-size="10.00">/uplinks.cpp</text>
</a>
</g>
</g>
<!-- Node16&#45;&gt;Node24 -->
<g id="edge31" class="edge">
<title>Node16&#45;&gt;Node24</title>
<path fill="none" stroke="#63b8ff" d="M1123.76,-291.11C1179.44,-280.76 1255.01,-265.89 1321,-250 1327.9,-248.34 1335.15,-246.45 1342.24,-244.52"/>
<polygon fill="#63b8ff" stroke="#63b8ff" points="1122.8,-287.73 1113.6,-292.99 1124.07,-294.61 1122.8,-287.73"/>
</g>
</g>
</svg>
