<?xml version="1.0" encoding="UTF-8" standalone="no"?>
<!DOCTYPE svg PUBLIC "-//W3C//DTD SVG 1.1//EN"
 "http://www.w3.org/Graphics/SVG/1.1/DTD/svg11.dtd">
<!-- Generated by graphviz version 2.43.0 (0)
 -->
<!-- Title: firmware/wombat/src/CAT_M1.cpp Pages: 1 -->
<svg width="425pt" height="324pt"
 viewBox="0.00 0.00 425.09 324.00" xmlns="http://www.w3.org/2000/svg" xmlns:xlink="http://www.w3.org/1999/xlink">
<g id="graph0" class="graph" transform="scale(1 1) rotate(0) translate(4 320)">
<title>firmware/wombat/src/CAT_M1.cpp</title>
<!-- Node1 -->
<g id="node1" class="node">
<title>Node1</title>
<g id="a_node1"><a xlink:title=" ">
<polygon fill="#999999" stroke="#666666" points="195,-316 75,-316 75,-286 195,-286 195,-316"/>
<text text-anchor="start" x="83" y="-304" font-family="Helvetica,sans-Serif" font-size="10.00">firmware/wombat/src</text>
<text text-anchor="middle" x="135" y="-293" font-family="Helvetica,sans-Serif" font-size="10.00">/CAT_M1.cpp</text>
</a>
</g>
</g>
<!-- Node2 -->
<g id="node2" class="node">
<title>Node2</title>
<g id="a_node2"><a xlink:href="_c_a_t___m1_8h.html" target="_top" xlink:title=" ">
<polygon fill="white" stroke="#666666" points="87.5,-134.5 22.5,-134.5 22.5,-115.5 87.5,-115.5 87.5,-134.5"/>
<text text-anchor="middle" x="55" y="-122.5" font-family="Helvetica,sans-Serif" font-size="10.00">CAT_M1.h</text>
</a>
</g>
</g>
<!-- Node1&#45;&gt;Node2 -->
<g id="edge1" class="edge">
<title>Node1&#45;&gt;Node2</title>
<path fill="none" stroke="#63b8ff" d="M116.53,-285.7C94.62,-267.42 59.24,-233.51 45,-195 38.91,-178.54 42.93,-158.58 47.56,-144.37"/>
<polygon fill="#63b8ff" stroke="#63b8ff" points="50.92,-145.38 51.06,-134.78 44.34,-142.98 50.92,-145.38"/>
</g>
<!-- Node6 -->
<g id="node6" class="node">
<title>Node6</title>
<g id="a_node6"><a xlink:title=" ">
<polygon fill="#e0e0e0" stroke="#999999" points="366,-140 236,-140 236,-110 366,-110 366,-140"/>
<text text-anchor="start" x="244" y="-128" font-family="Helvetica,sans-Serif" font-size="10.00">SparkFun_u&#45;blox_SARA</text>
<text text-anchor="middle" x="301" y="-117" font-family="Helvetica,sans-Serif" font-size="10.00">&#45;R5_Arduino_Library.h</text>
</a>
</g>
</g>
<!-- Node1&#45;&gt;Node6 -->
<g id="edge6" class="edge">
<title>Node1&#45;&gt;Node6</title>
<path fill="none" stroke="#63b8ff" d="M195.06,-296.31C260.81,-288.69 363.35,-265.47 412,-195 428.12,-171.65 402,-154.64 371.06,-143.36"/>
<polygon fill="#63b8ff" stroke="#63b8ff" points="371.94,-139.96 361.35,-140.04 369.68,-146.59 371.94,-139.96"/>
</g>
<!-- Node7 -->
<g id="node7" class="node">
<title>Node7</title>
<g id="a_node7"><a xlink:href="_utils_8h.html" target="_top" xlink:title=" ">
<polygon fill="white" stroke="#666666" points="186,-250 138,-250 138,-231 186,-231 186,-250"/>
<text text-anchor="middle" x="162" y="-238" font-family="Helvetica,sans-Serif" font-size="10.00">Utils.h</text>
</a>
</g>
</g>
<!-- Node1&#45;&gt;Node7 -->
<g id="edge7" class="edge">
<title>Node1&#45;&gt;Node7</title>
<path fill="none" stroke="#63b8ff" d="M141.54,-285.84C145.18,-277.95 149.74,-268.05 153.64,-259.61"/>
<polygon fill="#63b8ff" stroke="#63b8ff" points="156.94,-260.81 157.95,-250.27 150.59,-257.88 156.94,-260.81"/>
</g>
<!-- Node11 -->
<g id="node11" class="node">
<title>Node11</title>
<g id="a_node11"><a xlink:href="globals_8h.html" target="_top" xlink:title=" ">
<polygon fill="white" stroke="#666666" points="115.5,-195 54.5,-195 54.5,-176 115.5,-176 115.5,-195"/>
<text text-anchor="middle" x="85" y="-183" font-family="Helvetica,sans-Serif" font-size="10.00">globals.h</text>
</a>
</g>
</g>
<!-- Node1&#45;&gt;Node11 -->
<g id="edge14" class="edge">
<title>Node1&#45;&gt;Node11</title>
<path fill="none" stroke="#63b8ff" d="M128.67,-285.63C119.59,-265.03 102.9,-227.12 92.99,-204.63"/>
<polygon fill="#63b8ff" stroke="#63b8ff" points="96.08,-202.97 88.85,-195.23 89.67,-205.79 96.08,-202.97"/>
</g>
<!-- Node3 -->
<g id="node3" class="node">
<title>Node3</title>
<g id="a_node3"><a xlink:title=" ">
<polygon fill="#e0e0e0" stroke="#999999" points="48,-19 0,-19 0,0 48,0 48,-19"/>
<text text-anchor="middle" x="24" y="-7" font-family="Helvetica,sans-Serif" font-size="10.00">Wire.h</text>
</a>
</g>
</g>
<!-- Node2&#45;&gt;Node3 -->
<g id="edge2" class="edge">
<title>Node2&#45;&gt;Node3</title>
<path fill="none" stroke="#63b8ff" d="M52.67,-115.47C47.67,-97.15 35.79,-53.68 29,-28.81"/>
<polygon fill="#63b8ff" stroke="#63b8ff" points="32.37,-27.85 26.36,-19.13 25.62,-29.7 32.37,-27.85"/>
</g>
<!-- Node4 -->
<g id="node4" class="node">
<title>Node4</title>
<g id="a_node4"><a xlink:href="_t_c_a9534_8h.html" target="_top" xlink:title=" ">
<polygon fill="white" stroke="#666666" points="120,-74 52,-74 52,-55 120,-55 120,-74"/>
<text text-anchor="middle" x="86" y="-62" font-family="Helvetica,sans-Serif" font-size="10.00">TCA9534.h</text>
</a>
</g>
</g>
<!-- Node2&#45;&gt;Node4 -->
<g id="edge3" class="edge">
<title>Node2&#45;&gt;Node4</title>
<path fill="none" stroke="#63b8ff" d="M59.57,-115.37C64.06,-106.9 71.03,-93.74 76.69,-83.07"/>
<polygon fill="#63b8ff" stroke="#63b8ff" points="79.82,-84.64 81.41,-74.17 73.63,-81.36 79.82,-84.64"/>
</g>
<!-- Node4&#45;&gt;Node3 -->
<g id="edge5" class="edge">
<title>Node4&#45;&gt;Node3</title>
<path fill="none" stroke="#63b8ff" d="M76.04,-54.98C66.87,-47.15 53.06,-35.34 41.97,-25.86"/>
<polygon fill="#63b8ff" stroke="#63b8ff" points="44.02,-23.01 34.14,-19.17 39.47,-28.33 44.02,-23.01"/>
</g>
<!-- Node5 -->
<g id="node5" class="node">
<title>Node5</title>
<g id="a_node5"><a xlink:title=" ">
<polygon fill="#e0e0e0" stroke="#999999" points="129.5,-19 66.5,-19 66.5,0 129.5,0 129.5,-19"/>
<text text-anchor="middle" x="98" y="-7" font-family="Helvetica,sans-Serif" font-size="10.00">Arduino.h</text>
</a>
</g>
</g>
<!-- Node4&#45;&gt;Node5 -->
<g id="edge4" class="edge">
<title>Node4&#45;&gt;Node5</title>
<path fill="none" stroke="#63b8ff" d="M87.98,-54.75C89.57,-47.72 91.86,-37.62 93.85,-28.84"/>
<polygon fill="#63b8ff" stroke="#63b8ff" points="97.26,-29.62 96.06,-19.09 90.43,-28.07 97.26,-29.62"/>
</g>
<!-- Node8 -->
<g id="node8" class="node">
<title>Node8</title>
<g id="a_node8"><a xlink:title=" ">
<polygon fill="#e0e0e0" stroke="#999999" points="190,-195 134,-195 134,-176 190,-176 190,-195"/>
<text text-anchor="middle" x="162" y="-183" font-family="Helvetica,sans-Serif" font-size="10.00">stddef.h</text>
</a>
</g>
</g>
<!-- Node7&#45;&gt;Node8 -->
<g id="edge8" class="edge">
<title>Node7&#45;&gt;Node8</title>
<path fill="none" stroke="#63b8ff" d="M162,-230.75C162,-223.8 162,-213.85 162,-205.13"/>
<polygon fill="#63b8ff" stroke="#63b8ff" points="165.5,-205.09 162,-195.09 158.5,-205.09 165.5,-205.09"/>
</g>
<!-- Node9 -->
<g id="node9" class="node">
<title>Node9</title>
<g id="a_node9"><a xlink:title=" ">
<polygon fill="#e0e0e0" stroke="#999999" points="291.5,-195 208.5,-195 208.5,-176 291.5,-176 291.5,-195"/>
<text text-anchor="middle" x="250" y="-183" font-family="Helvetica,sans-Serif" font-size="10.00">ArduinoJson.h</text>
</a>
</g>
</g>
<!-- Node7&#45;&gt;Node9 -->
<g id="edge9" class="edge">
<title>Node7&#45;&gt;Node9</title>
<path fill="none" stroke="#63b8ff" d="M176.14,-230.98C189.79,-222.77 210.69,-210.18 226.78,-200.49"/>
<polygon fill="#63b8ff" stroke="#63b8ff" points="228.84,-203.33 235.6,-195.17 225.23,-197.33 228.84,-203.33"/>
</g>
<!-- Node10 -->
<g id="node10" class="node">
<title>Node10</title>
<g id="a_node10"><a xlink:title=" ">
<polygon fill="#e0e0e0" stroke="#999999" points="402.5,-195 309.5,-195 309.5,-176 402.5,-176 402.5,-195"/>
<text text-anchor="middle" x="356" y="-183" font-family="Helvetica,sans-Serif" font-size="10.00">dpiclimate&#45;12.h</text>
</a>
</g>
</g>
<!-- Node7&#45;&gt;Node10 -->
<g id="edge10" class="edge">
<title>Node7&#45;&gt;Node10</title>
<path fill="none" stroke="#63b8ff" d="M186.18,-232.89C218.35,-224.11 275.69,-208.44 314.76,-197.77"/>
<polygon fill="#63b8ff" stroke="#63b8ff" points="316.05,-201.04 324.77,-195.03 314.2,-194.29 316.05,-201.04"/>
</g>
<!-- Node7&#45;&gt;Node11 -->
<g id="edge11" class="edge">
<title>Node7&#45;&gt;Node11</title>
<path fill="none" stroke="#63b8ff" d="M149.63,-230.98C137.91,-222.92 120.08,-210.65 106.11,-201.03"/>
<polygon fill="#63b8ff" stroke="#63b8ff" points="107.82,-197.96 97.6,-195.17 103.85,-203.72 107.82,-197.96"/>
</g>
<!-- Node11&#45;&gt;Node2 -->
<g id="edge13" class="edge">
<title>Node11&#45;&gt;Node2</title>
<path fill="none" stroke="#63b8ff" d="M80.57,-175.87C76.23,-167.4 69.48,-154.24 64.01,-143.57"/>
<polygon fill="#63b8ff" stroke="#63b8ff" points="67.12,-141.97 59.44,-134.67 60.89,-145.16 67.12,-141.97"/>
</g>
<!-- Node11&#45;&gt;Node6 -->
<g id="edge12" class="edge">
<title>Node11&#45;&gt;Node6</title>
<path fill="none" stroke="#63b8ff" d="M115.95,-176.12C148.06,-167.42 199.14,-153.59 239.51,-142.65"/>
<polygon fill="#63b8ff" stroke="#63b8ff" points="240.52,-146.01 249.26,-140.01 238.69,-139.25 240.52,-146.01"/>
</g>
</g>
</svg>
