<?xml version="1.0" encoding="UTF-8" standalone="no"?>
<!DOCTYPE svg PUBLIC "-//W3C//DTD SVG 1.1//EN"
 "http://www.w3.org/Graphics/SVG/1.1/DTD/svg11.dtd">
<!-- Generated by graphviz version 2.43.0 (0)
 -->
<!-- Title: firmware/wombat/include/CAT_M1.h Pages: 1 -->
<svg width="1248pt" height="379pt"
 viewBox="0.00 0.00 1247.91 379.00" xmlns="http://www.w3.org/2000/svg" xmlns:xlink="http://www.w3.org/1999/xlink">
<g id="graph0" class="graph" transform="scale(1 1) rotate(0) translate(4 375)">
<title>firmware/wombat/include/CAT_M1.h</title>
<!-- Node1 -->
<g id="node1" class="node">
<title>Node1</title>
<g id="a_node1"><a xlink:title=" ">
<polygon fill="#999999" stroke="#666666" points="742.5,-371 601.5,-371 601.5,-341 742.5,-341 742.5,-371"/>
<text text-anchor="start" x="609.5" y="-359" font-family="Helvetica,sans-Serif" font-size="10.00">firmware/wombat/include</text>
<text text-anchor="middle" x="672" y="-348" font-family="Helvetica,sans-Serif" font-size="10.00">/CAT_M1.h</text>
</a>
</g>
</g>
<!-- Node2 -->
<g id="node2" class="node">
<title>Node2</title>
<g id="a_node2"><a xlink:href="cat-m1_8h.html" target="_top" xlink:title="CAT&#45;M1 CLI command request and response handler.">
<polygon fill="white" stroke="#666666" points="273.5,-305 132.5,-305 132.5,-275 273.5,-275 273.5,-305"/>
<text text-anchor="start" x="140.5" y="-293" font-family="Helvetica,sans-Serif" font-size="10.00">firmware/wombat/include</text>
<text text-anchor="middle" x="203" y="-282" font-family="Helvetica,sans-Serif" font-size="10.00">/cli/peripherals/cat&#45;m1.h</text>
</a>
</g>
</g>
<!-- Node1&#45;&gt;Node2 -->
<g id="edge1" class="edge">
<title>Node1&#45;&gt;Node2</title>
<path fill="none" stroke="#63b8ff" d="M590.9,-345.66C512.1,-336.34 389.14,-321.1 283,-305 279.93,-304.53 276.8,-304.05 273.64,-303.54"/>
<polygon fill="#63b8ff" stroke="#63b8ff" points="590.9,-349.19 601.24,-346.88 591.72,-342.24 590.9,-349.19"/>
</g>
<!-- Node10 -->
<g id="node10" class="node">
<title>Node10</title>
<g id="a_node10"><a xlink:href="mqtt__stack_8cpp.html" target="_top" xlink:title=" ">
<polygon fill="white" stroke="#666666" points="820,-162 700,-162 700,-132 820,-132 820,-162"/>
<text text-anchor="start" x="708" y="-150" font-family="Helvetica,sans-Serif" font-size="10.00">firmware/wombat/src</text>
<text text-anchor="middle" x="760" y="-139" font-family="Helvetica,sans-Serif" font-size="10.00">/mqtt_stack.cpp</text>
</a>
</g>
</g>
<!-- Node1&#45;&gt;Node10 -->
<g id="edge29" class="edge">
<title>Node1&#45;&gt;Node10</title>
<path fill="none" stroke="#63b8ff" d="M752.79,-350.43C892.95,-340.64 1171.89,-312.22 1231,-239 1242.45,-224.82 1243.19,-211.55 1231,-198 1203.99,-167.97 940.94,-154.58 820.13,-149.98"/>
<polygon fill="#63b8ff" stroke="#63b8ff" points="752.28,-346.96 742.54,-351.14 752.75,-353.95 752.28,-346.96"/>
</g>
<!-- Node11 -->
<g id="node11" class="node">
<title>Node11</title>
<g id="a_node11"><a xlink:href="cat-m1_8cpp.html" target="_top" xlink:title="CAT&#45;M1 CLI command request and response handler.">
<polygon fill="white" stroke="#666666" points="120,-239 0,-239 0,-198 120,-198 120,-239"/>
<text text-anchor="start" x="8" y="-227" font-family="Helvetica,sans-Serif" font-size="10.00">firmware/wombat/src</text>
<text text-anchor="start" x="8" y="-216" font-family="Helvetica,sans-Serif" font-size="10.00">/cli/peripherals/cat</text>
<text text-anchor="middle" x="60" y="-205" font-family="Helvetica,sans-Serif" font-size="10.00">&#45;m1.cpp</text>
</a>
</g>
</g>
<!-- Node1&#45;&gt;Node11 -->
<g id="edge28" class="edge">
<title>Node1&#45;&gt;Node11</title>
<path fill="none" stroke="#63b8ff" d="M591.36,-355.64C458.64,-355.38 201.06,-349 123,-305 96.82,-290.24 78.44,-259.61 68.54,-239.31"/>
<polygon fill="#63b8ff" stroke="#63b8ff" points="591.48,-359.14 601.48,-355.65 591.48,-352.14 591.48,-359.14"/>
</g>
<!-- Node12 -->
<g id="node12" class="node">
<title>Node12</title>
<g id="a_node12"><a xlink:href="cli__power_8h.html" target="_top" xlink:title=" ">
<polygon fill="white" stroke="#666666" points="438,-305 292,-305 292,-275 438,-275 438,-305"/>
<text text-anchor="start" x="300" y="-293" font-family="Helvetica,sans-Serif" font-size="10.00">firmware/wombat/include</text>
<text text-anchor="middle" x="365" y="-282" font-family="Helvetica,sans-Serif" font-size="10.00">/cli/peripherals/cli_power.h</text>
</a>
</g>
</g>
<!-- Node1&#45;&gt;Node12 -->
<g id="edge13" class="edge">
<title>Node1&#45;&gt;Node12</title>
<path fill="none" stroke="#63b8ff" d="M594.82,-338.91C544.76,-328.47 480.17,-315.01 432.22,-305.01"/>
<polygon fill="#63b8ff" stroke="#63b8ff" points="594.12,-342.34 604.63,-340.95 595.55,-335.49 594.12,-342.34"/>
</g>
<!-- Node14 -->
<g id="node14" class="node">
<title>Node14</title>
<g id="a_node14"><a xlink:href="globals_8h.html" target="_top" xlink:title=" ">
<polygon fill="white" stroke="#666666" points="742.5,-305 601.5,-305 601.5,-275 742.5,-275 742.5,-305"/>
<text text-anchor="start" x="609.5" y="-293" font-family="Helvetica,sans-Serif" font-size="10.00">firmware/wombat/include</text>
<text text-anchor="middle" x="672" y="-282" font-family="Helvetica,sans-Serif" font-size="10.00">/globals.h</text>
</a>
</g>
</g>
<!-- Node1&#45;&gt;Node14 -->
<g id="edge16" class="edge">
<title>Node1&#45;&gt;Node14</title>
<path fill="none" stroke="#63b8ff" d="M672,-330.54C672,-321.96 672,-312.61 672,-305.16"/>
<polygon fill="#63b8ff" stroke="#63b8ff" points="668.5,-330.8 672,-340.8 675.5,-330.8 668.5,-330.8"/>
</g>
<!-- Node15 -->
<g id="node15" class="node">
<title>Node15</title>
<g id="a_node15"><a xlink:href="_c_a_t___m1_8cpp.html" target="_top" xlink:title=" ">
<polygon fill="white" stroke="#666666" points="1084,-233.5 964,-233.5 964,-203.5 1084,-203.5 1084,-233.5"/>
<text text-anchor="start" x="972" y="-221.5" font-family="Helvetica,sans-Serif" font-size="10.00">firmware/wombat/src</text>
<text text-anchor="middle" x="1024" y="-210.5" font-family="Helvetica,sans-Serif" font-size="10.00">/CAT_M1.cpp</text>
</a>
</g>
</g>
<!-- Node1&#45;&gt;Node15 -->
<g id="edge26" class="edge">
<title>Node1&#45;&gt;Node15</title>
<path fill="none" stroke="#63b8ff" d="M718.23,-337.2C789.04,-309.95 922.89,-258.42 987.41,-233.59"/>
<polygon fill="#63b8ff" stroke="#63b8ff" points="716.75,-334.02 708.67,-340.88 719.26,-340.56 716.75,-334.02"/>
</g>
<!-- Node17 -->
<g id="node17" class="node">
<title>Node17</title>
<g id="a_node17"><a xlink:href="_utils_8cpp.html" target="_top" xlink:title="Global utility functions.">
<polygon fill="white" stroke="#666666" points="1222,-233.5 1102,-233.5 1102,-203.5 1222,-203.5 1222,-233.5"/>
<text text-anchor="start" x="1110" y="-221.5" font-family="Helvetica,sans-Serif" font-size="10.00">firmware/wombat/src</text>
<text text-anchor="middle" x="1162" y="-210.5" font-family="Helvetica,sans-Serif" font-size="10.00">/Utils.cpp</text>
</a>
</g>
</g>
<!-- Node1&#45;&gt;Node17 -->
<g id="edge27" class="edge">
<title>Node1&#45;&gt;Node17</title>
<path fill="none" stroke="#63b8ff" d="M734.5,-338.25C770.37,-328.61 816.24,-316.21 857,-305 962.02,-276.12 988.15,-268.48 1093,-239 1099.23,-237.25 1105.78,-235.4 1112.26,-233.58"/>
<polygon fill="#63b8ff" stroke="#63b8ff" points="733.41,-334.92 724.66,-340.9 735.23,-341.68 733.41,-334.92"/>
</g>
<!-- Node3 -->
<g id="node3" class="node">
<title>Node3</title>
<g id="a_node3"><a xlink:href="_c_l_i_8h.html" target="_top" xlink:title="FreeRTOS CLI handler.">
<polygon fill="white" stroke="#666666" points="279.5,-233.5 138.5,-233.5 138.5,-203.5 279.5,-203.5 279.5,-233.5"/>
<text text-anchor="start" x="146.5" y="-221.5" font-family="Helvetica,sans-Serif" font-size="10.00">firmware/wombat/include</text>
<text text-anchor="middle" x="209" y="-210.5" font-family="Helvetica,sans-Serif" font-size="10.00">/cli/CLI.h</text>
</a>
</g>
</g>
<!-- Node2&#45;&gt;Node3 -->
<g id="edge2" class="edge">
<title>Node2&#45;&gt;Node3</title>
<path fill="none" stroke="#63b8ff" d="M205.09,-264.75C205.99,-254.31 207.02,-242.49 207.79,-233.54"/>
<polygon fill="#63b8ff" stroke="#63b8ff" points="201.59,-264.67 204.21,-274.94 208.56,-265.27 201.59,-264.67"/>
</g>
<!-- Node2&#45;&gt;Node11 -->
<g id="edge12" class="edge">
<title>Node2&#45;&gt;Node11</title>
<path fill="none" stroke="#63b8ff" d="M164.95,-270.51C145,-260.81 120.55,-248.93 100.27,-239.07"/>
<polygon fill="#63b8ff" stroke="#63b8ff" points="163.54,-273.71 174.06,-274.94 166.6,-267.42 163.54,-273.71"/>
</g>
<!-- Node4 -->
<g id="node4" class="node">
<title>Node4</title>
<g id="a_node4"><a xlink:href="server_8h.html" target="_top" xlink:title="Handle the setup and maintenance of the BLE server and connected clients.">
<polygon fill="white" stroke="#666666" points="279.5,-162 138.5,-162 138.5,-132 279.5,-132 279.5,-162"/>
<text text-anchor="start" x="146.5" y="-150" font-family="Helvetica,sans-Serif" font-size="10.00">firmware/wombat/include</text>
<text text-anchor="middle" x="209" y="-139" font-family="Helvetica,sans-Serif" font-size="10.00">/bluetooth/server.h</text>
</a>
</g>
</g>
<!-- Node3&#45;&gt;Node4 -->
<g id="edge3" class="edge">
<title>Node3&#45;&gt;Node4</title>
<path fill="none" stroke="#63b8ff" d="M202.53,-193.25C201.96,-182.81 202.26,-170.99 203.45,-162.04"/>
<polygon fill="#63b8ff" stroke="#63b8ff" points="199.07,-193.79 203.45,-203.44 206.04,-193.16 199.07,-193.79"/>
</g>
<!-- Node8 -->
<g id="node8" class="node">
<title>Node8</title>
<g id="a_node8"><a xlink:href="_c_l_i_8cpp.html" target="_top" xlink:title="FreeRTOS CLI handler.">
<polygon fill="white" stroke="#666666" points="418,-162 298,-162 298,-132 418,-132 418,-162"/>
<text text-anchor="start" x="306" y="-150" font-family="Helvetica,sans-Serif" font-size="10.00">firmware/wombat/src</text>
<text text-anchor="middle" x="358" y="-139" font-family="Helvetica,sans-Serif" font-size="10.00">/cli/CLI.cpp</text>
</a>
</g>
</g>
<!-- Node3&#45;&gt;Node8 -->
<g id="edge9" class="edge">
<title>Node3&#45;&gt;Node8</title>
<path fill="none" stroke="#63b8ff" d="M248.34,-199.15C273.25,-187.53 304.98,-172.73 327.89,-162.04"/>
<polygon fill="#63b8ff" stroke="#63b8ff" points="246.74,-196.04 239.15,-203.44 249.69,-202.38 246.74,-196.04"/>
</g>
<!-- Node9 -->
<g id="node9" class="node">
<title>Node9</title>
<g id="a_node9"><a xlink:href="main_8cpp.html" target="_top" xlink:title=" ">
<polygon fill="white" stroke="#666666" points="600,-162 480,-162 480,-132 600,-132 600,-162"/>
<text text-anchor="start" x="488" y="-150" font-family="Helvetica,sans-Serif" font-size="10.00">firmware/wombat/src</text>
<text text-anchor="middle" x="540" y="-139" font-family="Helvetica,sans-Serif" font-size="10.00">/main.cpp</text>
</a>
</g>
</g>
<!-- Node3&#45;&gt;Node9 -->
<g id="edge10" class="edge">
<title>Node3&#45;&gt;Node9</title>
<path fill="none" stroke="#63b8ff" d="M275.39,-201.09C279.99,-200.02 284.56,-198.98 289,-198 353.96,-183.62 428.81,-168.95 479.75,-159.26"/>
<polygon fill="#63b8ff" stroke="#63b8ff" points="274.25,-197.76 265.31,-203.46 275.85,-204.58 274.25,-197.76"/>
</g>
<!-- Node3&#45;&gt;Node10 -->
<g id="edge11" class="edge">
<title>Node3&#45;&gt;Node10</title>
<path fill="none" stroke="#63b8ff" d="M272.27,-201.26C277.9,-200.06 283.54,-198.95 289,-198 328.54,-191.11 581.75,-165.65 699.7,-153.95"/>
<polygon fill="#63b8ff" stroke="#63b8ff" points="271.16,-197.92 262.15,-203.5 272.67,-204.75 271.16,-197.92"/>
</g>
<!-- Node4&#45;&gt;Node3 -->
<g id="edge7" class="edge">
<title>Node4&#45;&gt;Node3</title>
<path fill="none" stroke="#63b8ff" d="M215.47,-172.23C216.04,-182.66 215.74,-194.49 214.55,-203.44"/>
<polygon fill="#63b8ff" stroke="#63b8ff" points="218.93,-171.69 214.55,-162.04 211.96,-172.32 218.93,-171.69"/>
</g>
<!-- Node5 -->
<g id="node5" class="node">
<title>Node5</title>
<g id="a_node5"><a xlink:href="uart_8h.html" target="_top" xlink:title="BluetoothLE UART service setup and handling.">
<polygon fill="white" stroke="#666666" points="279.5,-96 138.5,-96 138.5,-66 279.5,-66 279.5,-96"/>
<text text-anchor="start" x="146.5" y="-84" font-family="Helvetica,sans-Serif" font-size="10.00">firmware/wombat/include</text>
<text text-anchor="middle" x="209" y="-73" font-family="Helvetica,sans-Serif" font-size="10.00">/bluetooth/uart.h</text>
</a>
</g>
</g>
<!-- Node4&#45;&gt;Node5 -->
<g id="edge4" class="edge">
<title>Node4&#45;&gt;Node5</title>
<path fill="none" stroke="#63b8ff" d="M202.43,-121.83C202.02,-113.17 202.31,-103.7 203.29,-96.16"/>
<polygon fill="#63b8ff" stroke="#63b8ff" points="198.95,-122.13 203.28,-131.8 205.92,-121.54 198.95,-122.13"/>
</g>
<!-- Node7 -->
<g id="node7" class="node">
<title>Node7</title>
<g id="a_node7"><a xlink:href="server_8cpp.html" target="_top" xlink:title="Setup and start BluetoothLE server.">
<polygon fill="white" stroke="#666666" points="418,-96 298,-96 298,-66 418,-66 418,-96"/>
<text text-anchor="start" x="306" y="-84" font-family="Helvetica,sans-Serif" font-size="10.00">firmware/wombat/src</text>
<text text-anchor="middle" x="358" y="-73" font-family="Helvetica,sans-Serif" font-size="10.00">/bluetooth/server.cpp</text>
</a>
</g>
</g>
<!-- Node4&#45;&gt;Node7 -->
<g id="edge8" class="edge">
<title>Node4&#45;&gt;Node7</title>
<path fill="none" stroke="#63b8ff" d="M251.09,-127.92C274.64,-117.8 303.56,-105.38 325.38,-96.01"/>
<polygon fill="#63b8ff" stroke="#63b8ff" points="249.51,-124.79 241.7,-131.95 252.27,-131.22 249.51,-124.79"/>
</g>
<!-- Node5&#45;&gt;Node4 -->
<g id="edge5" class="edge">
<title>Node5&#45;&gt;Node4</title>
<path fill="none" stroke="#63b8ff" d="M215.57,-106.13C215.98,-114.78 215.7,-124.26 214.72,-131.8"/>
<polygon fill="#63b8ff" stroke="#63b8ff" points="219.05,-105.83 214.71,-96.16 212.08,-106.43 219.05,-105.83"/>
</g>
<!-- Node6 -->
<g id="node6" class="node">
<title>Node6</title>
<g id="a_node6"><a xlink:href="uart_8cpp.html" target="_top" xlink:title="BluetoothLE UART service setup and handling.">
<polygon fill="white" stroke="#666666" points="269,-30 149,-30 149,0 269,0 269,-30"/>
<text text-anchor="start" x="157" y="-18" font-family="Helvetica,sans-Serif" font-size="10.00">firmware/wombat/src</text>
<text text-anchor="middle" x="209" y="-7" font-family="Helvetica,sans-Serif" font-size="10.00">/bluetooth/uart.cpp</text>
</a>
</g>
</g>
<!-- Node5&#45;&gt;Node6 -->
<g id="edge6" class="edge">
<title>Node5&#45;&gt;Node6</title>
<path fill="none" stroke="#63b8ff" d="M209,-55.54C209,-46.96 209,-37.61 209,-30.16"/>
<polygon fill="#63b8ff" stroke="#63b8ff" points="205.5,-55.8 209,-65.8 212.5,-55.8 205.5,-55.8"/>
</g>
<!-- Node12&#45;&gt;Node3 -->
<g id="edge14" class="edge">
<title>Node12&#45;&gt;Node3</title>
<path fill="none" stroke="#63b8ff" d="M324.16,-270.81C298.02,-259.16 264.61,-244.28 240.52,-233.54"/>
<polygon fill="#63b8ff" stroke="#63b8ff" points="322.87,-274.06 333.43,-274.94 325.72,-267.67 322.87,-274.06"/>
</g>
<!-- Node13 -->
<g id="node13" class="node">
<title>Node13</title>
<g id="a_node13"><a xlink:href="cli__power_8cpp.html" target="_top" xlink:title="Power related commands.">
<polygon fill="white" stroke="#666666" points="418,-239 298,-239 298,-198 418,-198 418,-239"/>
<text text-anchor="start" x="306" y="-227" font-family="Helvetica,sans-Serif" font-size="10.00">firmware/wombat/src</text>
<text text-anchor="start" x="306" y="-216" font-family="Helvetica,sans-Serif" font-size="10.00">/cli/device_config/cli</text>
<text text-anchor="middle" x="358" y="-205" font-family="Helvetica,sans-Serif" font-size="10.00">_power.cpp</text>
</a>
</g>
</g>
<!-- Node12&#45;&gt;Node13 -->
<g id="edge15" class="edge">
<title>Node12&#45;&gt;Node13</title>
<path fill="none" stroke="#63b8ff" d="M362.57,-264.91C361.72,-256.47 360.78,-247.1 359.97,-239.07"/>
<polygon fill="#63b8ff" stroke="#63b8ff" points="359.1,-265.34 363.58,-274.94 366.06,-264.64 359.1,-265.34"/>
</g>
<!-- Node14&#45;&gt;Node9 -->
<g id="edge23" class="edge">
<title>Node14&#45;&gt;Node9</title>
<path fill="none" stroke="#63b8ff" d="M640.07,-269.21C627.74,-260.75 613.99,-250.23 603,-239 579.35,-214.83 558.44,-180.88 547.68,-162.03"/>
<polygon fill="#63b8ff" stroke="#63b8ff" points="638.47,-272.36 648.73,-274.99 642.35,-266.53 638.47,-272.36"/>
</g>
<!-- Node14&#45;&gt;Node10 -->
<g id="edge24" class="edge">
<title>Node14&#45;&gt;Node10</title>
<path fill="none" stroke="#63b8ff" d="M709.05,-269.51C720.92,-261.55 733.04,-251.29 741,-239 756.44,-215.16 759.63,-181.09 760.12,-162.12"/>
<polygon fill="#63b8ff" stroke="#63b8ff" points="707.1,-266.61 700.51,-274.9 710.83,-272.52 707.1,-266.61"/>
</g>
<!-- Node14&#45;&gt;Node11 -->
<g id="edge22" class="edge">
<title>Node14&#45;&gt;Node11</title>
<path fill="none" stroke="#63b8ff" d="M591.24,-283.39C462.24,-274.13 215.43,-255.05 129,-239 126.06,-238.45 123.07,-237.84 120.06,-237.17"/>
<polygon fill="#63b8ff" stroke="#63b8ff" points="591.23,-286.9 601.46,-284.12 591.73,-279.92 591.23,-286.9"/>
</g>
<!-- Node14&#45;&gt;Node13 -->
<g id="edge21" class="edge">
<title>Node14&#45;&gt;Node13</title>
<path fill="none" stroke="#63b8ff" d="M591.45,-274.12C543.49,-264.87 481.54,-252.25 427,-239 424.1,-238.29 421.13,-237.55 418.14,-236.78"/>
<polygon fill="#63b8ff" stroke="#63b8ff" points="590.98,-277.6 601.46,-276.04 592.3,-270.72 590.98,-277.6"/>
</g>
<!-- Node14&#45;&gt;Node15 -->
<g id="edge17" class="edge">
<title>Node14&#45;&gt;Node15</title>
<path fill="none" stroke="#63b8ff" d="M752.75,-276.8C809.36,-267.73 886.65,-254.31 954,-239 961.13,-237.38 968.63,-235.49 975.96,-233.54"/>
<polygon fill="#63b8ff" stroke="#63b8ff" points="752.11,-273.36 742.78,-278.39 753.21,-280.27 752.11,-273.36"/>
</g>
<!-- Node16 -->
<g id="node16" class="node">
<title>Node16</title>
<g id="a_node16"><a xlink:href="_sensor_task_8cpp.html" target="_top" xlink:title=" ">
<polygon fill="white" stroke="#666666" points="732,-233.5 612,-233.5 612,-203.5 732,-203.5 732,-233.5"/>
<text text-anchor="start" x="620" y="-221.5" font-family="Helvetica,sans-Serif" font-size="10.00">firmware/wombat/src</text>
<text text-anchor="middle" x="672" y="-210.5" font-family="Helvetica,sans-Serif" font-size="10.00">/SensorTask.cpp</text>
</a>
</g>
</g>
<!-- Node14&#45;&gt;Node16 -->
<g id="edge18" class="edge">
<title>Node14&#45;&gt;Node16</title>
<path fill="none" stroke="#63b8ff" d="M672,-264.75C672,-254.31 672,-242.49 672,-233.54"/>
<polygon fill="#63b8ff" stroke="#63b8ff" points="668.5,-264.94 672,-274.94 675.5,-264.94 668.5,-264.94"/>
</g>
<!-- Node14&#45;&gt;Node17 -->
<g id="edge19" class="edge">
<title>Node14&#45;&gt;Node17</title>
<path fill="none" stroke="#63b8ff" d="M752.68,-283.21C837.86,-276.21 975.78,-262.37 1093,-239 1100.57,-237.49 1108.52,-235.57 1116.22,-233.52"/>
<polygon fill="#63b8ff" stroke="#63b8ff" points="752.24,-279.73 742.55,-284.03 752.8,-286.71 752.24,-279.73"/>
</g>
<!-- Node18 -->
<g id="node18" class="node">
<title>Node18</title>
<g id="a_node18"><a xlink:href="acquisition__intervals_8cpp.html" target="_top" xlink:title="Handles the time between measurements and uplinks by the device over LTE.">
<polygon fill="white" stroke="#666666" points="945.5,-239 788.5,-239 788.5,-198 945.5,-198 945.5,-239"/>
<text text-anchor="start" x="796.5" y="-227" font-family="Helvetica,sans-Serif" font-size="10.00">firmware/wombat/src</text>
<text text-anchor="start" x="796.5" y="-216" font-family="Helvetica,sans-Serif" font-size="10.00">/cli/device_config/acquisition</text>
<text text-anchor="middle" x="867" y="-205" font-family="Helvetica,sans-Serif" font-size="10.00">_intervals.cpp</text>
</a>
</g>
</g>
<!-- Node14&#45;&gt;Node18 -->
<g id="edge20" class="edge">
<title>Node14&#45;&gt;Node18</title>
<path fill="none" stroke="#63b8ff" d="M720.95,-271.55C748.68,-261.67 783.43,-249.28 812.08,-239.07"/>
<polygon fill="#63b8ff" stroke="#63b8ff" points="719.71,-268.28 711.46,-274.94 722.06,-274.88 719.71,-268.28"/>
</g>
<!-- Node19 -->
<g id="node19" class="node">
<title>Node19</title>
<g id="a_node19"><a xlink:href="uplinks_8cpp.html" target="_top" xlink:title=" ">
<polygon fill="white" stroke="#666666" points="556,-233.5 436,-233.5 436,-203.5 556,-203.5 556,-233.5"/>
<text text-anchor="start" x="444" y="-221.5" font-family="Helvetica,sans-Serif" font-size="10.00">firmware/wombat/src</text>
<text text-anchor="middle" x="496" y="-210.5" font-family="Helvetica,sans-Serif" font-size="10.00">/uplinks.cpp</text>
</a>
</g>
</g>
<!-- Node14&#45;&gt;Node19 -->
<g id="edge25" class="edge">
<title>Node14&#45;&gt;Node19</title>
<path fill="none" stroke="#63b8ff" d="M626.7,-271.11C597.1,-259.42 558.98,-244.37 531.56,-233.54"/>
<polygon fill="#63b8ff" stroke="#63b8ff" points="625.8,-274.52 636.38,-274.94 628.37,-268.01 625.8,-274.52"/>
</g>
</g>
</svg>
