<?xml version="1.0" encoding="UTF-8" standalone="no"?>
<!DOCTYPE svg PUBLIC "-//W3C//DTD SVG 1.1//EN"
 "http://www.w3.org/Graphics/SVG/1.1/DTD/svg11.dtd">
<!-- Generated by graphviz version 2.43.0 (0)
 -->
<!-- Title: firmware/wombat/include/CAT_M1.h Pages: 1 -->
<svg width="2278pt" height="390pt"
 viewBox="0.00 0.00 2278.00 390.00" xmlns="http://www.w3.org/2000/svg" xmlns:xlink="http://www.w3.org/1999/xlink">
<g id="graph0" class="graph" transform="scale(1 1) rotate(0) translate(4 386)">
<title>firmware/wombat/include/CAT_M1.h</title>
<!-- Node1 -->
<g id="node1" class="node">
<title>Node1</title>
<g id="a_node1"><a xlink:title=" ">
<polygon fill="#999999" stroke="#666666" points="1118.5,-382 977.5,-382 977.5,-352 1118.5,-352 1118.5,-382"/>
<text text-anchor="start" x="985.5" y="-370" font-family="Helvetica,sans-Serif" font-size="10.00">firmware/wombat/include</text>
<text text-anchor="middle" x="1048" y="-359" font-family="Helvetica,sans-Serif" font-size="10.00">/CAT_M1.h</text>
</a>
</g>
</g>
<!-- Node2 -->
<g id="node2" class="node">
<title>Node2</title>
<g id="a_node2"><a xlink:href="cat-m1_8h.html" target="_top" xlink:title="CAT&#45;M1 CLI command request and response handler.">
<polygon fill="white" stroke="#666666" points="722.5,-310.5 581.5,-310.5 581.5,-280.5 722.5,-280.5 722.5,-310.5"/>
<text text-anchor="start" x="589.5" y="-298.5" font-family="Helvetica,sans-Serif" font-size="10.00">firmware/wombat/include</text>
<text text-anchor="middle" x="652" y="-287.5" font-family="Helvetica,sans-Serif" font-size="10.00">/cli/peripherals/cat&#45;m1.h</text>
</a>
</g>
</g>
<!-- Node1&#45;&gt;Node2 -->
<g id="edge1" class="edge">
<title>Node1&#45;&gt;Node2</title>
<path fill="none" stroke="#63b8ff" d="M967.28,-351.83C895.35,-339.21 791.16,-320.92 722.52,-308.88"/>
<polygon fill="#63b8ff" stroke="#63b8ff" points="966.75,-355.29 977.2,-353.57 967.96,-348.4 966.75,-355.29"/>
</g>
<!-- Node9 -->
<g id="node9" class="node">
<title>Node9</title>
<g id="a_node9"><a xlink:href="cat-m1_8cpp.html" target="_top" xlink:title="CAT&#45;M1 CLI command request and response handler.">
<polygon fill="white" stroke="#666666" points="120,-173 0,-173 0,-132 120,-132 120,-173"/>
<text text-anchor="start" x="8" y="-161" font-family="Helvetica,sans-Serif" font-size="10.00">firmware/wombat/src</text>
<text text-anchor="start" x="8" y="-150" font-family="Helvetica,sans-Serif" font-size="10.00">/cli/peripherals/cat</text>
<text text-anchor="middle" x="60" y="-139" font-family="Helvetica,sans-Serif" font-size="10.00">&#45;m1.cpp</text>
</a>
</g>
</g>
<!-- Node1&#45;&gt;Node9 -->
<g id="edge36" class="edge">
<title>Node1&#45;&gt;Node9</title>
<path fill="none" stroke="#63b8ff" d="M967.22,-361.36C872.08,-355.01 709.58,-341.39 572,-316 441.28,-291.87 409.46,-279.96 283,-239 221.27,-219 151.67,-191.5 106.9,-173.15"/>
<polygon fill="#63b8ff" stroke="#63b8ff" points="967.13,-364.86 977.34,-362.03 967.59,-357.88 967.13,-364.86"/>
</g>
<!-- Node12 -->
<g id="node12" class="node">
<title>Node12</title>
<g id="a_node12"><a xlink:href="ftp__stack_8cpp.html" target="_top" xlink:title=" ">
<polygon fill="white" stroke="#666666" points="712,-167.5 592,-167.5 592,-137.5 712,-137.5 712,-167.5"/>
<text text-anchor="start" x="600" y="-155.5" font-family="Helvetica,sans-Serif" font-size="10.00">firmware/wombat/src</text>
<text text-anchor="middle" x="652" y="-144.5" font-family="Helvetica,sans-Serif" font-size="10.00">/ftp_stack.cpp</text>
</a>
</g>
</g>
<!-- Node1&#45;&gt;Node12 -->
<g id="edge37" class="edge">
<title>Node1&#45;&gt;Node12</title>
<path fill="none" stroke="#63b8ff" d="M1029.69,-344.22C1011.82,-324.07 983.01,-294.39 953,-275 872.19,-222.77 765.27,-186.16 703.02,-167.57"/>
<polygon fill="#63b8ff" stroke="#63b8ff" points="1027.22,-346.71 1036.43,-351.95 1032.5,-342.11 1027.22,-346.71"/>
</g>
<!-- Node14 -->
<g id="node14" class="node">
<title>Node14</title>
<g id="a_node14"><a xlink:href="mqtt__stack_8cpp.html" target="_top" xlink:title=" ">
<polygon fill="white" stroke="#666666" points="850,-167.5 730,-167.5 730,-137.5 850,-137.5 850,-167.5"/>
<text text-anchor="start" x="738" y="-155.5" font-family="Helvetica,sans-Serif" font-size="10.00">firmware/wombat/src</text>
<text text-anchor="middle" x="790" y="-144.5" font-family="Helvetica,sans-Serif" font-size="10.00">/mqtt_stack.cpp</text>
</a>
</g>
</g>
<!-- Node1&#45;&gt;Node14 -->
<g id="edge38" class="edge">
<title>Node1&#45;&gt;Node14</title>
<path fill="none" stroke="#63b8ff" d="M1045.16,-341.81C1039.81,-307.32 1025.03,-244.3 986,-209 985.82,-208.84 897.66,-183.91 839.66,-167.53"/>
<polygon fill="#63b8ff" stroke="#63b8ff" points="1041.72,-342.52 1046.58,-351.93 1048.65,-341.54 1041.72,-342.52"/>
</g>
<!-- Node15 -->
<g id="node15" class="node">
<title>Node15</title>
<g id="a_node15"><a xlink:href="cli__power_8h.html" target="_top" xlink:title=" ">
<polygon fill="white" stroke="#666666" points="944,-310.5 798,-310.5 798,-280.5 944,-280.5 944,-310.5"/>
<text text-anchor="start" x="806" y="-298.5" font-family="Helvetica,sans-Serif" font-size="10.00">firmware/wombat/include</text>
<text text-anchor="middle" x="871" y="-287.5" font-family="Helvetica,sans-Serif" font-size="10.00">/cli/peripherals/cli_power.h</text>
</a>
</g>
</g>
<!-- Node1&#45;&gt;Node15 -->
<g id="edge16" class="edge">
<title>Node1&#45;&gt;Node15</title>
<path fill="none" stroke="#63b8ff" d="M1002.83,-348.26C973,-336.55 934.46,-321.42 906.77,-310.54"/>
<polygon fill="#63b8ff" stroke="#63b8ff" points="1001.59,-351.54 1012.18,-351.94 1004.15,-345.02 1001.59,-351.54"/>
</g>
<!-- Node17 -->
<g id="node17" class="node">
<title>Node17</title>
<g id="a_node17"><a xlink:href="globals_8h.html" target="_top" xlink:title=" ">
<polygon fill="white" stroke="#666666" points="1274.5,-239 1133.5,-239 1133.5,-209 1274.5,-209 1274.5,-239"/>
<text text-anchor="start" x="1141.5" y="-227" font-family="Helvetica,sans-Serif" font-size="10.00">firmware/wombat/include</text>
<text text-anchor="middle" x="1204" y="-216" font-family="Helvetica,sans-Serif" font-size="10.00">/globals.h</text>
</a>
</g>
</g>
<!-- Node1&#45;&gt;Node17 -->
<g id="edge19" class="edge">
<title>Node1&#45;&gt;Node17</title>
<path fill="none" stroke="#63b8ff" d="M1071.11,-345.11C1103.18,-316.13 1160.36,-264.44 1188.07,-239.4"/>
<polygon fill="#63b8ff" stroke="#63b8ff" points="1068.6,-342.66 1063.53,-351.96 1073.29,-347.86 1068.6,-342.66"/>
</g>
<!-- Node18 -->
<g id="node18" class="node">
<title>Node18</title>
<g id="a_node18"><a xlink:href="_c_a_t___m1_8cpp.html" target="_top" xlink:title=" ">
<polygon fill="white" stroke="#666666" points="2132,-167.5 2012,-167.5 2012,-137.5 2132,-137.5 2132,-167.5"/>
<text text-anchor="start" x="2020" y="-155.5" font-family="Helvetica,sans-Serif" font-size="10.00">firmware/wombat/src</text>
<text text-anchor="middle" x="2072" y="-144.5" font-family="Helvetica,sans-Serif" font-size="10.00">/CAT_M1.cpp</text>
</a>
</g>
</g>
<!-- Node1&#45;&gt;Node18 -->
<g id="edge33" class="edge">
<title>Node1&#45;&gt;Node18</title>
<path fill="none" stroke="#63b8ff" d="M1085.8,-347.36C1133.05,-323.68 1215.96,-280.85 1284,-239 1303.85,-226.79 1304.96,-216.58 1327,-209 1469.26,-160.08 1854.59,-197.61 2003,-173 2011.11,-171.66 2019.62,-169.71 2027.79,-167.56"/>
<polygon fill="#63b8ff" stroke="#63b8ff" points="1083.95,-344.37 1076.57,-351.97 1087.08,-350.64 1083.95,-344.37"/>
</g>
<!-- Node20 -->
<g id="node20" class="node">
<title>Node20</title>
<g id="a_node20"><a xlink:href="_utils_8cpp.html" target="_top" xlink:title="Global utility functions.">
<polygon fill="white" stroke="#666666" points="2270,-167.5 2150,-167.5 2150,-137.5 2270,-137.5 2270,-167.5"/>
<text text-anchor="start" x="2158" y="-155.5" font-family="Helvetica,sans-Serif" font-size="10.00">firmware/wombat/src</text>
<text text-anchor="middle" x="2210" y="-144.5" font-family="Helvetica,sans-Serif" font-size="10.00">/Utils.cpp</text>
</a>
</g>
</g>
<!-- Node1&#45;&gt;Node20 -->
<g id="edge34" class="edge">
<title>Node1&#45;&gt;Node20</title>
<path fill="none" stroke="#63b8ff" d="M1098.83,-348.61C1160.26,-328.21 1267.08,-294.67 1361,-275 1703.19,-203.32 1798.54,-243.39 2141,-173 2148.44,-171.47 2156.25,-169.56 2163.83,-167.54"/>
<polygon fill="#63b8ff" stroke="#63b8ff" points="1097.38,-345.4 1089.01,-351.89 1099.6,-352.04 1097.38,-345.4"/>
</g>
<!-- Node25 -->
<g id="node25" class="node">
<title>Node25</title>
<g id="a_node25"><a xlink:href="config__cli_8cpp.html" target="_top" xlink:title="Command line interface node configuration commands.">
<polygon fill="white" stroke="#666666" points="1502.5,-316 1369.5,-316 1369.5,-275 1502.5,-275 1502.5,-316"/>
<text text-anchor="start" x="1377.5" y="-304" font-family="Helvetica,sans-Serif" font-size="10.00">firmware/wombat/src</text>
<text text-anchor="start" x="1377.5" y="-293" font-family="Helvetica,sans-Serif" font-size="10.00">/cli/device_config/config</text>
<text text-anchor="middle" x="1436" y="-282" font-family="Helvetica,sans-Serif" font-size="10.00">_cli.cpp</text>
</a>
</g>
</g>
<!-- Node1&#45;&gt;Node25 -->
<g id="edge35" class="edge">
<title>Node1&#45;&gt;Node25</title>
<path fill="none" stroke="#63b8ff" d="M1128.81,-354.53C1190.89,-345.3 1278.65,-331.38 1355,-316 1359.68,-315.06 1364.5,-314.03 1369.34,-312.97"/>
<polygon fill="#63b8ff" stroke="#63b8ff" points="1128.07,-351.1 1118.69,-356.02 1129.09,-358.02 1128.07,-351.1"/>
</g>
<!-- Node3 -->
<g id="node3" class="node">
<title>Node3</title>
<g id="a_node3"><a xlink:href="_c_l_i_8h.html" target="_top" xlink:title="FreeRTOS CLI handler.">
<polygon fill="white" stroke="#666666" points="722.5,-239 581.5,-239 581.5,-209 722.5,-209 722.5,-239"/>
<text text-anchor="start" x="589.5" y="-227" font-family="Helvetica,sans-Serif" font-size="10.00">firmware/wombat/include</text>
<text text-anchor="middle" x="652" y="-216" font-family="Helvetica,sans-Serif" font-size="10.00">/cli/CLI.h</text>
</a>
</g>
</g>
<!-- Node2&#45;&gt;Node3 -->
<g id="edge2" class="edge">
<title>Node2&#45;&gt;Node3</title>
<path fill="none" stroke="#63b8ff" d="M652,-270.25C652,-259.81 652,-247.99 652,-239.04"/>
<polygon fill="#63b8ff" stroke="#63b8ff" points="648.5,-270.44 652,-280.44 655.5,-270.44 648.5,-270.44"/>
</g>
<!-- Node2&#45;&gt;Node9 -->
<g id="edge15" class="edge">
<title>Node2&#45;&gt;Node9</title>
<path fill="none" stroke="#63b8ff" d="M577.06,-278.26C475.27,-255.93 287.79,-213.86 129,-173 126.11,-172.26 123.15,-171.48 120.17,-170.68"/>
<polygon fill="#63b8ff" stroke="#63b8ff" points="576.42,-281.7 586.94,-280.42 577.92,-274.86 576.42,-281.7"/>
</g>
<!-- Node4 -->
<g id="node4" class="node">
<title>Node4</title>
<g id="a_node4"><a xlink:href="server_8h.html" target="_top" xlink:title="Handle the setup and maintenance of the BLE server and connected clients.">
<polygon fill="white" stroke="#666666" points="435.5,-167.5 294.5,-167.5 294.5,-137.5 435.5,-137.5 435.5,-167.5"/>
<text text-anchor="start" x="302.5" y="-155.5" font-family="Helvetica,sans-Serif" font-size="10.00">firmware/wombat/include</text>
<text text-anchor="middle" x="365" y="-144.5" font-family="Helvetica,sans-Serif" font-size="10.00">/bluetooth/server.h</text>
</a>
</g>
</g>
<!-- Node3&#45;&gt;Node4 -->
<g id="edge3" class="edge">
<title>Node3&#45;&gt;Node4</title>
<path fill="none" stroke="#63b8ff" d="M583.81,-206.57C543.45,-196.83 491.3,-184.24 445,-173 437.78,-171.25 430.19,-169.4 422.68,-167.57"/>
<polygon fill="#63b8ff" stroke="#63b8ff" points="583.01,-209.97 593.55,-208.92 584.65,-203.17 583.01,-209.97"/>
</g>
<!-- Node8 -->
<g id="node8" class="node">
<title>Node8</title>
<g id="a_node8"><a xlink:href="_c_l_i_8cpp.html" target="_top" xlink:title="FreeRTOS CLI handler.">
<polygon fill="white" stroke="#666666" points="574,-167.5 454,-167.5 454,-137.5 574,-137.5 574,-167.5"/>
<text text-anchor="start" x="462" y="-155.5" font-family="Helvetica,sans-Serif" font-size="10.00">firmware/wombat/src</text>
<text text-anchor="middle" x="514" y="-144.5" font-family="Helvetica,sans-Serif" font-size="10.00">/cli/CLI.cpp</text>
</a>
</g>
</g>
<!-- Node3&#45;&gt;Node8 -->
<g id="edge8" class="edge">
<title>Node3&#45;&gt;Node8</title>
<path fill="none" stroke="#63b8ff" d="M614.96,-204.34C591.97,-192.77 562.92,-178.14 541.88,-167.54"/>
<polygon fill="#63b8ff" stroke="#63b8ff" points="613.57,-207.56 624.07,-208.94 616.72,-201.31 613.57,-207.56"/>
</g>
<!-- Node3&#45;&gt;Node9 -->
<g id="edge9" class="edge">
<title>Node3&#45;&gt;Node9</title>
<path fill="none" stroke="#63b8ff" d="M571.18,-219.79C467.88,-214.66 283.87,-202.04 129,-173 126.06,-172.45 123.07,-171.83 120.06,-171.16"/>
<polygon fill="#63b8ff" stroke="#63b8ff" points="571.07,-223.29 581.22,-220.28 571.41,-216.3 571.07,-223.29"/>
</g>
<!-- Node10 -->
<g id="node10" class="node">
<title>Node10</title>
<g id="a_node10"><a xlink:href="sd__card_8cpp.html" target="_top" xlink:title=" ">
<polygon fill="white" stroke="#666666" points="988,-173 868,-173 868,-132 988,-132 988,-173"/>
<text text-anchor="start" x="876" y="-161" font-family="Helvetica,sans-Serif" font-size="10.00">firmware/wombat/src</text>
<text text-anchor="start" x="876" y="-150" font-family="Helvetica,sans-Serif" font-size="10.00">/cli/peripherals/sd</text>
<text text-anchor="middle" x="928" y="-139" font-family="Helvetica,sans-Serif" font-size="10.00">_card.cpp</text>
</a>
</g>
</g>
<!-- Node3&#45;&gt;Node10 -->
<g id="edge10" class="edge">
<title>Node3&#45;&gt;Node10</title>
<path fill="none" stroke="#63b8ff" d="M722.78,-206.61C762.85,-197.16 813.83,-184.83 859,-173 861.89,-172.24 864.84,-171.46 867.83,-170.65"/>
<polygon fill="#63b8ff" stroke="#63b8ff" points="721.77,-203.26 712.84,-208.95 723.38,-210.07 721.77,-203.26"/>
</g>
<!-- Node11 -->
<g id="node11" class="node">
<title>Node11</title>
<g id="a_node11"><a xlink:href="sdi12_8cpp.html" target="_top" xlink:title="SDI&#45;12 command line interface handler.">
<polygon fill="white" stroke="#666666" points="276,-167.5 138,-167.5 138,-137.5 276,-137.5 276,-167.5"/>
<text text-anchor="start" x="146" y="-155.5" font-family="Helvetica,sans-Serif" font-size="10.00">firmware/wombat/src</text>
<text text-anchor="middle" x="207" y="-144.5" font-family="Helvetica,sans-Serif" font-size="10.00">/cli/peripherals/sdi12.cpp</text>
</a>
</g>
</g>
<!-- Node3&#45;&gt;Node11 -->
<g id="edge11" class="edge">
<title>Node3&#45;&gt;Node11</title>
<path fill="none" stroke="#63b8ff" d="M571,-214.55C496.36,-206.15 382.7,-191.81 285,-173 276.78,-171.42 268.12,-169.5 259.69,-167.5"/>
<polygon fill="#63b8ff" stroke="#63b8ff" points="570.94,-218.06 581.27,-215.69 571.72,-211.1 570.94,-218.06"/>
</g>
<!-- Node3&#45;&gt;Node12 -->
<g id="edge12" class="edge">
<title>Node3&#45;&gt;Node12</title>
<path fill="none" stroke="#63b8ff" d="M652,-198.75C652,-188.31 652,-176.49 652,-167.54"/>
<polygon fill="#63b8ff" stroke="#63b8ff" points="648.5,-198.94 652,-208.94 655.5,-198.94 648.5,-198.94"/>
</g>
<!-- Node13 -->
<g id="node13" class="node">
<title>Node13</title>
<g id="a_node13"><a xlink:href="main_8cpp.html" target="_top" xlink:title=" ">
<polygon fill="white" stroke="#666666" points="1126,-167.5 1006,-167.5 1006,-137.5 1126,-137.5 1126,-167.5"/>
<text text-anchor="start" x="1014" y="-155.5" font-family="Helvetica,sans-Serif" font-size="10.00">firmware/wombat/src</text>
<text text-anchor="middle" x="1066" y="-144.5" font-family="Helvetica,sans-Serif" font-size="10.00">/main.cpp</text>
</a>
</g>
</g>
<!-- Node3&#45;&gt;Node13 -->
<g id="edge13" class="edge">
<title>Node3&#45;&gt;Node13</title>
<path fill="none" stroke="#63b8ff" d="M732.63,-214.36C802.89,-206.1 907.29,-192.09 997,-173 1004.31,-171.45 1011.98,-169.55 1019.44,-167.55"/>
<polygon fill="#63b8ff" stroke="#63b8ff" points="732.05,-210.9 722.52,-215.53 732.86,-217.85 732.05,-210.9"/>
</g>
<!-- Node3&#45;&gt;Node14 -->
<g id="edge14" class="edge">
<title>Node3&#45;&gt;Node14</title>
<path fill="none" stroke="#63b8ff" d="M689.04,-204.34C712.03,-192.77 741.08,-178.14 762.12,-167.54"/>
<polygon fill="#63b8ff" stroke="#63b8ff" points="687.28,-201.31 679.93,-208.94 690.43,-207.56 687.28,-201.31"/>
</g>
<!-- Node5 -->
<g id="node5" class="node">
<title>Node5</title>
<g id="a_node5"><a xlink:href="uart_8h.html" target="_top" xlink:title="BluetoothLE UART service setup and handling.">
<polygon fill="white" stroke="#666666" points="435.5,-96 294.5,-96 294.5,-66 435.5,-66 435.5,-96"/>
<text text-anchor="start" x="302.5" y="-84" font-family="Helvetica,sans-Serif" font-size="10.00">firmware/wombat/include</text>
<text text-anchor="middle" x="365" y="-73" font-family="Helvetica,sans-Serif" font-size="10.00">/bluetooth/uart.h</text>
</a>
</g>
</g>
<!-- Node4&#45;&gt;Node5 -->
<g id="edge4" class="edge">
<title>Node4&#45;&gt;Node5</title>
<path fill="none" stroke="#63b8ff" d="M358.53,-127.25C357.96,-116.81 358.26,-104.99 359.45,-96.04"/>
<polygon fill="#63b8ff" stroke="#63b8ff" points="355.07,-127.79 359.45,-137.44 362.04,-127.16 355.07,-127.79"/>
</g>
<!-- Node7 -->
<g id="node7" class="node">
<title>Node7</title>
<g id="a_node7"><a xlink:href="server_8cpp.html" target="_top" xlink:title="Setup and start BluetoothLE server.">
<polygon fill="white" stroke="#666666" points="574,-96 454,-96 454,-66 574,-66 574,-96"/>
<text text-anchor="start" x="462" y="-84" font-family="Helvetica,sans-Serif" font-size="10.00">firmware/wombat/src</text>
<text text-anchor="middle" x="514" y="-73" font-family="Helvetica,sans-Serif" font-size="10.00">/bluetooth/server.cpp</text>
</a>
</g>
</g>
<!-- Node4&#45;&gt;Node7 -->
<g id="edge7" class="edge">
<title>Node4&#45;&gt;Node7</title>
<path fill="none" stroke="#63b8ff" d="M404.34,-133.15C429.25,-121.53 460.98,-106.73 483.89,-96.04"/>
<polygon fill="#63b8ff" stroke="#63b8ff" points="402.74,-130.04 395.15,-137.44 405.69,-136.38 402.74,-130.04"/>
</g>
<!-- Node5&#45;&gt;Node4 -->
<g id="edge5" class="edge">
<title>Node5&#45;&gt;Node4</title>
<path fill="none" stroke="#63b8ff" d="M371.47,-106.23C372.04,-116.66 371.74,-128.49 370.55,-137.44"/>
<polygon fill="#63b8ff" stroke="#63b8ff" points="374.93,-105.69 370.55,-96.04 367.96,-106.32 374.93,-105.69"/>
</g>
<!-- Node6 -->
<g id="node6" class="node">
<title>Node6</title>
<g id="a_node6"><a xlink:href="uart_8cpp.html" target="_top" xlink:title="BluetoothLE UART service setup and handling.">
<polygon fill="white" stroke="#666666" points="425,-30 305,-30 305,0 425,0 425,-30"/>
<text text-anchor="start" x="313" y="-18" font-family="Helvetica,sans-Serif" font-size="10.00">firmware/wombat/src</text>
<text text-anchor="middle" x="365" y="-7" font-family="Helvetica,sans-Serif" font-size="10.00">/bluetooth/uart.cpp</text>
</a>
</g>
</g>
<!-- Node5&#45;&gt;Node6 -->
<g id="edge6" class="edge">
<title>Node5&#45;&gt;Node6</title>
<path fill="none" stroke="#63b8ff" d="M365,-55.54C365,-46.96 365,-37.61 365,-30.16"/>
<polygon fill="#63b8ff" stroke="#63b8ff" points="361.5,-55.8 365,-65.8 368.5,-55.8 361.5,-55.8"/>
</g>
<!-- Node15&#45;&gt;Node3 -->
<g id="edge17" class="edge">
<title>Node15&#45;&gt;Node3</title>
<path fill="none" stroke="#63b8ff" d="M817.02,-277.37C779.86,-265.58 731.11,-250.11 696.25,-239.04"/>
<polygon fill="#63b8ff" stroke="#63b8ff" points="816.09,-280.75 826.68,-280.44 818.21,-274.07 816.09,-280.75"/>
</g>
<!-- Node16 -->
<g id="node16" class="node">
<title>Node16</title>
<g id="a_node16"><a xlink:href="cli__power_8cpp.html" target="_top" xlink:title="Power related commands.">
<polygon fill="white" stroke="#666666" points="1264,-173 1144,-173 1144,-132 1264,-132 1264,-173"/>
<text text-anchor="start" x="1152" y="-161" font-family="Helvetica,sans-Serif" font-size="10.00">firmware/wombat/src</text>
<text text-anchor="start" x="1152" y="-150" font-family="Helvetica,sans-Serif" font-size="10.00">/cli/device_config/cli</text>
<text text-anchor="middle" x="1204" y="-139" font-family="Helvetica,sans-Serif" font-size="10.00">_power.cpp</text>
</a>
</g>
</g>
<!-- Node15&#45;&gt;Node16 -->
<g id="edge18" class="edge">
<title>Node15&#45;&gt;Node16</title>
<path fill="none" stroke="#63b8ff" d="M913.74,-276.4C976.49,-249.83 1093.09,-200.46 1157.77,-173.08"/>
<polygon fill="#63b8ff" stroke="#63b8ff" points="911.99,-273.34 904.15,-280.46 914.72,-279.79 911.99,-273.34"/>
</g>
<!-- Node17&#45;&gt;Node9 -->
<g id="edge25" class="edge">
<title>Node17&#45;&gt;Node9</title>
<path fill="none" stroke="#63b8ff" d="M1123.38,-220.32C890.3,-212.41 226.05,-188.76 129,-173 126.05,-172.52 123.05,-171.96 120.03,-171.34"/>
<polygon fill="#63b8ff" stroke="#63b8ff" points="1123.37,-223.82 1133.48,-220.66 1123.61,-216.82 1123.37,-223.82"/>
</g>
<!-- Node17&#45;&gt;Node10 -->
<g id="edge26" class="edge">
<title>Node17&#45;&gt;Node10</title>
<path fill="none" stroke="#63b8ff" d="M1133.22,-206.61C1093.15,-197.16 1042.17,-184.83 997,-173 994.11,-172.24 991.16,-171.46 988.17,-170.65"/>
<polygon fill="#63b8ff" stroke="#63b8ff" points="1132.62,-210.07 1143.16,-208.95 1134.23,-203.26 1132.62,-210.07"/>
</g>
<!-- Node17&#45;&gt;Node12 -->
<g id="edge27" class="edge">
<title>Node17&#45;&gt;Node12</title>
<path fill="none" stroke="#63b8ff" d="M1123.2,-218.9C1026.77,-213.02 861,-199.82 721,-173 713.3,-171.52 705.21,-169.59 697.39,-167.52"/>
<polygon fill="#63b8ff" stroke="#63b8ff" points="1123.27,-222.41 1133.46,-219.51 1123.68,-215.42 1123.27,-222.41"/>
</g>
<!-- Node17&#45;&gt;Node13 -->
<g id="edge28" class="edge">
<title>Node17&#45;&gt;Node13</title>
<path fill="none" stroke="#63b8ff" d="M1166.96,-204.34C1143.97,-192.77 1114.92,-178.14 1093.88,-167.54"/>
<polygon fill="#63b8ff" stroke="#63b8ff" points="1165.57,-207.56 1176.07,-208.94 1168.72,-201.31 1165.57,-207.56"/>
</g>
<!-- Node17&#45;&gt;Node14 -->
<g id="edge29" class="edge">
<title>Node17&#45;&gt;Node14</title>
<path fill="none" stroke="#63b8ff" d="M1123.37,-214.36C1053.11,-206.1 948.71,-192.09 859,-173 851.69,-171.45 844.02,-169.55 836.56,-167.55"/>
<polygon fill="#63b8ff" stroke="#63b8ff" points="1123.14,-217.85 1133.48,-215.53 1123.95,-210.9 1123.14,-217.85"/>
</g>
<!-- Node17&#45;&gt;Node16 -->
<g id="edge24" class="edge">
<title>Node17&#45;&gt;Node16</title>
<path fill="none" stroke="#63b8ff" d="M1204,-198.91C1204,-190.47 1204,-181.1 1204,-173.07"/>
<polygon fill="#63b8ff" stroke="#63b8ff" points="1200.5,-198.94 1204,-208.94 1207.5,-198.94 1200.5,-198.94"/>
</g>
<!-- Node17&#45;&gt;Node18 -->
<g id="edge20" class="edge">
<title>Node17&#45;&gt;Node18</title>
<path fill="none" stroke="#63b8ff" d="M1285.08,-209.44C1286.4,-209.28 1287.7,-209.14 1289,-209 1604.93,-175.13 1689.47,-224.53 2003,-173 2011.11,-171.67 2019.62,-169.73 2027.79,-167.58"/>
<polygon fill="#63b8ff" stroke="#63b8ff" points="1284.37,-206 1274.88,-210.71 1285.24,-212.94 1284.37,-206"/>
</g>
<!-- Node19 -->
<g id="node19" class="node">
<title>Node19</title>
<g id="a_node19"><a xlink:href="_sensor_task_8cpp.html" target="_top" xlink:title=" ">
<polygon fill="white" stroke="#666666" points="1680,-167.5 1560,-167.5 1560,-137.5 1680,-137.5 1680,-167.5"/>
<text text-anchor="start" x="1568" y="-155.5" font-family="Helvetica,sans-Serif" font-size="10.00">firmware/wombat/src</text>
<text text-anchor="middle" x="1620" y="-144.5" font-family="Helvetica,sans-Serif" font-size="10.00">/SensorTask.cpp</text>
</a>
</g>
</g>
<!-- Node17&#45;&gt;Node19 -->
<g id="edge21" class="edge">
<title>Node17&#45;&gt;Node19</title>
<path fill="none" stroke="#63b8ff" d="M1285.1,-209.59C1286.41,-209.39 1287.71,-209.19 1289,-209 1405.22,-191.45 1435.95,-197.04 1551,-173 1558.43,-171.45 1566.24,-169.53 1573.82,-167.5"/>
<polygon fill="#63b8ff" stroke="#63b8ff" points="1284.28,-206.18 1274.94,-211.17 1285.36,-213.09 1284.28,-206.18"/>
</g>
<!-- Node17&#45;&gt;Node20 -->
<g id="edge22" class="edge">
<title>Node17&#45;&gt;Node20</title>
<path fill="none" stroke="#63b8ff" d="M1284.93,-212.98C1298.94,-211.48 1313.38,-210.08 1327,-209 1688.01,-180.51 1783.48,-230.63 2141,-173 2149.23,-171.67 2157.88,-169.7 2166.17,-167.52"/>
<polygon fill="#63b8ff" stroke="#63b8ff" points="1284.37,-209.52 1274.82,-214.09 1285.14,-216.48 1284.37,-209.52"/>
</g>
<!-- Node21 -->
<g id="node21" class="node">
<title>Node21</title>
<g id="a_node21"><a xlink:href="acquisition__intervals_8cpp.html" target="_top" xlink:title="Handles the time between measurements and uplinks by the device over LTE.">
<polygon fill="white" stroke="#666666" points="1855.5,-173 1698.5,-173 1698.5,-132 1855.5,-132 1855.5,-173"/>
<text text-anchor="start" x="1706.5" y="-161" font-family="Helvetica,sans-Serif" font-size="10.00">firmware/wombat/src</text>
<text text-anchor="start" x="1706.5" y="-150" font-family="Helvetica,sans-Serif" font-size="10.00">/cli/device_config/acquisition</text>
<text text-anchor="middle" x="1777" y="-139" font-family="Helvetica,sans-Serif" font-size="10.00">_intervals.cpp</text>
</a>
</g>
</g>
<!-- Node17&#45;&gt;Node21 -->
<g id="edge23" class="edge">
<title>Node17&#45;&gt;Node21</title>
<path fill="none" stroke="#63b8ff" d="M1285.09,-209.51C1286.4,-209.33 1287.71,-209.16 1289,-209 1466.07,-186.48 1512.61,-200.36 1689,-173 1692.09,-172.52 1695.24,-172 1698.41,-171.44"/>
<polygon fill="#63b8ff" stroke="#63b8ff" points="1284.33,-206.08 1274.9,-210.92 1285.29,-213.01 1284.33,-206.08"/>
</g>
<!-- Node22 -->
<g id="node22" class="node">
<title>Node22</title>
<g id="a_node22"><a xlink:href="ota__update_8cpp.html" target="_top" xlink:title=" ">
<polygon fill="white" stroke="#666666" points="1994,-167.5 1874,-167.5 1874,-137.5 1994,-137.5 1994,-167.5"/>
<text text-anchor="start" x="1882" y="-155.5" font-family="Helvetica,sans-Serif" font-size="10.00">firmware/wombat/src</text>
<text text-anchor="middle" x="1934" y="-144.5" font-family="Helvetica,sans-Serif" font-size="10.00">/ota_update.cpp</text>
</a>
</g>
</g>
<!-- Node17&#45;&gt;Node22 -->
<g id="edge30" class="edge">
<title>Node17&#45;&gt;Node22</title>
<path fill="none" stroke="#63b8ff" d="M1285.08,-209.46C1286.4,-209.3 1287.7,-209.15 1289,-209 1543.87,-180.12 1612.15,-216.12 1865,-173 1872.98,-171.64 1881.35,-169.71 1889.41,-167.6"/>
<polygon fill="#63b8ff" stroke="#63b8ff" points="1284.36,-206.02 1274.89,-210.78 1285.25,-212.97 1284.36,-206.02"/>
</g>
<!-- Node23 -->
<g id="node23" class="node">
<title>Node23</title>
<g id="a_node23"><a xlink:href="interface_8cpp.html" target="_top" xlink:title=" ">
<polygon fill="white" stroke="#666666" points="1404,-167.5 1282,-167.5 1282,-137.5 1404,-137.5 1404,-167.5"/>
<text text-anchor="start" x="1290" y="-155.5" font-family="Helvetica,sans-Serif" font-size="10.00">firmware/wombat/src</text>
<text text-anchor="middle" x="1343" y="-144.5" font-family="Helvetica,sans-Serif" font-size="10.00">/sd&#45;card/interface.cpp</text>
</a>
</g>
</g>
<!-- Node17&#45;&gt;Node23 -->
<g id="edge31" class="edge">
<title>Node17&#45;&gt;Node23</title>
<path fill="none" stroke="#63b8ff" d="M1241.31,-204.34C1264.46,-192.77 1293.73,-178.14 1314.91,-167.54"/>
<polygon fill="#63b8ff" stroke="#63b8ff" points="1239.51,-201.33 1232.13,-208.94 1242.64,-207.59 1239.51,-201.33"/>
</g>
<!-- Node24 -->
<g id="node24" class="node">
<title>Node24</title>
<g id="a_node24"><a xlink:href="uplinks_8cpp.html" target="_top" xlink:title=" ">
<polygon fill="white" stroke="#666666" points="1542,-167.5 1422,-167.5 1422,-137.5 1542,-137.5 1542,-167.5"/>
<text text-anchor="start" x="1430" y="-155.5" font-family="Helvetica,sans-Serif" font-size="10.00">firmware/wombat/src</text>
<text text-anchor="middle" x="1482" y="-144.5" font-family="Helvetica,sans-Serif" font-size="10.00">/uplinks.cpp</text>
</a>
</g>
</g>
<!-- Node17&#45;&gt;Node24 -->
<g id="edge32" class="edge">
<title>Node17&#45;&gt;Node24</title>
<path fill="none" stroke="#63b8ff" d="M1275.22,-206.72C1315.71,-197.27 1367.31,-184.92 1413,-173 1419.5,-171.3 1426.34,-169.46 1433.06,-167.59"/>
<polygon fill="#63b8ff" stroke="#63b8ff" points="1274.38,-203.32 1265.44,-208.99 1275.97,-210.14 1274.38,-203.32"/>
</g>
</g>
</svg>
