<?xml version="1.0" encoding="UTF-8" standalone="no"?>
<!DOCTYPE svg PUBLIC "-//W3C//DTD SVG 1.1//EN"
 "http://www.w3.org/Graphics/SVG/1.1/DTD/svg11.dtd">
<!-- Generated by graphviz version 2.43.0 (0)
 -->
<!-- Title: firmware/wombat/src/CAT_M1.cpp Pages: 1 -->
<svg width="549pt" height="269pt"
 viewBox="0.00 0.00 548.50 269.00" xmlns="http://www.w3.org/2000/svg" xmlns:xlink="http://www.w3.org/1999/xlink">
<g id="graph0" class="graph" transform="scale(1 1) rotate(0) translate(4 265)">
<title>firmware/wombat/src/CAT_M1.cpp</title>
<!-- Node1 -->
<g id="node1" class="node">
<title>Node1</title>
<g id="a_node1"><a xlink:title=" ">
<polygon fill="#999999" stroke="#666666" points="282.5,-261 162.5,-261 162.5,-231 282.5,-231 282.5,-261"/>
<text text-anchor="start" x="170.5" y="-249" font-family="Helvetica,sans-Serif" font-size="10.00">firmware/wombat/src</text>
<text text-anchor="middle" x="222.5" y="-238" font-family="Helvetica,sans-Serif" font-size="10.00">/CAT_M1.cpp</text>
</a>
</g>
</g>
<!-- Node2 -->
<g id="node2" class="node">
<title>Node2</title>
<g id="a_node2"><a xlink:href="_c_a_t___m1_8h.html" target="_top" xlink:title=" ">
<polygon fill="white" stroke="#666666" points="65,-134.5 0,-134.5 0,-115.5 65,-115.5 65,-134.5"/>
<text text-anchor="middle" x="32.5" y="-122.5" font-family="Helvetica,sans-Serif" font-size="10.00">CAT_M1.h</text>
</a>
</g>
</g>
<!-- Node1&#45;&gt;Node2 -->
<g id="edge1" class="edge">
<title>Node1&#45;&gt;Node2</title>
<path fill="none" stroke="#63b8ff" d="M199.96,-230.88C163.5,-208.05 92,-163.27 55.35,-140.31"/>
<polygon fill="#63b8ff" stroke="#63b8ff" points="56.74,-137.05 46.41,-134.71 53.03,-142.99 56.74,-137.05"/>
</g>
<!-- Node6 -->
<g id="node6" class="node">
<title>Node6</title>
<g id="a_node6"><a xlink:title=" ">
<polygon fill="#e0e0e0" stroke="#999999" points="540.5,-140 410.5,-140 410.5,-110 540.5,-110 540.5,-140"/>
<text text-anchor="start" x="418.5" y="-128" font-family="Helvetica,sans-Serif" font-size="10.00">SparkFun_u&#45;blox_SARA</text>
<text text-anchor="middle" x="475.5" y="-117" font-family="Helvetica,sans-Serif" font-size="10.00">&#45;R5_Arduino_Library.h</text>
</a>
</g>
</g>
<!-- Node1&#45;&gt;Node6 -->
<g id="edge6" class="edge">
<title>Node1&#45;&gt;Node6</title>
<path fill="none" stroke="#63b8ff" d="M252.52,-230.88C298.26,-209.37 385.45,-168.36 436.19,-144.49"/>
<polygon fill="#63b8ff" stroke="#63b8ff" points="437.96,-147.52 445.52,-140.1 434.98,-141.19 437.96,-147.52"/>
</g>
<!-- Node7 -->
<g id="node7" class="node">
<title>Node7</title>
<g id="a_node7"><a xlink:href="globals_8h.html" target="_top" xlink:title=" ">
<polygon fill="white" stroke="#666666" points="253,-195 192,-195 192,-176 253,-176 253,-195"/>
<text text-anchor="middle" x="222.5" y="-183" font-family="Helvetica,sans-Serif" font-size="10.00">globals.h</text>
</a>
</g>
</g>
<!-- Node1&#45;&gt;Node7 -->
<g id="edge7" class="edge">
<title>Node1&#45;&gt;Node7</title>
<path fill="none" stroke="#63b8ff" d="M222.5,-230.84C222.5,-223.21 222.5,-213.7 222.5,-205.45"/>
<polygon fill="#63b8ff" stroke="#63b8ff" points="226,-205.27 222.5,-195.27 219,-205.27 226,-205.27"/>
</g>
<!-- Node3 -->
<g id="node3" class="node">
<title>Node3</title>
<g id="a_node3"><a xlink:title=" ">
<polygon fill="#e0e0e0" stroke="#999999" points="82.5,-19 34.5,-19 34.5,0 82.5,0 82.5,-19"/>
<text text-anchor="middle" x="58.5" y="-7" font-family="Helvetica,sans-Serif" font-size="10.00">Wire.h</text>
</a>
</g>
</g>
<!-- Node2&#45;&gt;Node3 -->
<g id="edge2" class="edge">
<title>Node2&#45;&gt;Node3</title>
<path fill="none" stroke="#63b8ff" d="M34.45,-115.47C38.63,-97.23 48.52,-54.07 54.23,-29.14"/>
<polygon fill="#63b8ff" stroke="#63b8ff" points="57.7,-29.66 56.52,-19.13 50.88,-28.1 57.7,-29.66"/>
</g>
<!-- Node4 -->
<g id="node4" class="node">
<title>Node4</title>
<g id="a_node4"><a xlink:href="_t_c_a9534_8h.html" target="_top" xlink:title=" ">
<polygon fill="white" stroke="#666666" points="128.5,-74 60.5,-74 60.5,-55 128.5,-55 128.5,-74"/>
<text text-anchor="middle" x="94.5" y="-62" font-family="Helvetica,sans-Serif" font-size="10.00">TCA9534.h</text>
</a>
</g>
</g>
<!-- Node2&#45;&gt;Node4 -->
<g id="edge3" class="edge">
<title>Node2&#45;&gt;Node4</title>
<path fill="none" stroke="#63b8ff" d="M41.65,-115.37C51.17,-106.38 66.3,-92.11 77.93,-81.14"/>
<polygon fill="#63b8ff" stroke="#63b8ff" points="80.44,-83.58 85.31,-74.17 75.64,-78.48 80.44,-83.58"/>
</g>
<!-- Node4&#45;&gt;Node3 -->
<g id="edge5" class="edge">
<title>Node4&#45;&gt;Node3</title>
<path fill="none" stroke="#63b8ff" d="M88.56,-54.75C83.52,-47.34 76.16,-36.5 69.99,-27.41"/>
<polygon fill="#63b8ff" stroke="#63b8ff" points="72.85,-25.39 64.33,-19.09 67.06,-29.33 72.85,-25.39"/>
</g>
<!-- Node5 -->
<g id="node5" class="node">
<title>Node5</title>
<g id="a_node5"><a xlink:title=" ">
<polygon fill="#e0e0e0" stroke="#999999" points="190,-19 127,-19 127,0 190,0 190,-19"/>
<text text-anchor="middle" x="158.5" y="-7" font-family="Helvetica,sans-Serif" font-size="10.00">Arduino.h</text>
</a>
</g>
</g>
<!-- Node4&#45;&gt;Node5 -->
<g id="edge4" class="edge">
<title>Node4&#45;&gt;Node5</title>
<path fill="none" stroke="#63b8ff" d="M104.78,-54.98C114.34,-47.07 128.78,-35.11 140.28,-25.58"/>
<polygon fill="#63b8ff" stroke="#63b8ff" points="142.56,-28.24 148.03,-19.17 138.1,-22.85 142.56,-28.24"/>
</g>
<!-- Node7&#45;&gt;Node2 -->
<g id="edge15" class="edge">
<title>Node7&#45;&gt;Node2</title>
<path fill="none" stroke="#63b8ff" d="M192.71,-175.97C162.56,-167.25 114.64,-153.16 73.5,-140 71.35,-139.31 69.13,-138.59 66.9,-137.86"/>
<polygon fill="#63b8ff" stroke="#63b8ff" points="67.76,-134.45 57.16,-134.6 65.54,-141.09 67.76,-134.45"/>
</g>
<!-- Node7&#45;&gt;Node6 -->
<g id="edge14" class="edge">
<title>Node7&#45;&gt;Node6</title>
<path fill="none" stroke="#63b8ff" d="M253.02,-177.44C290.41,-168.8 354.95,-153.87 404.92,-142.32"/>
<polygon fill="#63b8ff" stroke="#63b8ff" points="405.75,-145.72 414.71,-140.06 404.18,-138.9 405.75,-145.72"/>
</g>
<!-- Node8 -->
<g id="node8" class="node">
<title>Node8</title>
<g id="a_node8"><a xlink:href="battery_8h.html" target="_top" xlink:title="Battery voltage and current monitoring using INA219 IC.">
<polygon fill="white" stroke="#666666" points="234,-134.5 83,-134.5 83,-115.5 234,-115.5 234,-134.5"/>
<text text-anchor="middle" x="158.5" y="-122.5" font-family="Helvetica,sans-Serif" font-size="10.00">power_monitoring/battery.h</text>
</a>
</g>
</g>
<!-- Node7&#45;&gt;Node8 -->
<g id="edge8" class="edge">
<title>Node7&#45;&gt;Node8</title>
<path fill="none" stroke="#63b8ff" d="M213.06,-175.87C203.23,-166.88 187.61,-152.61 175.61,-141.64"/>
<polygon fill="#63b8ff" stroke="#63b8ff" points="177.72,-138.83 167.98,-134.67 173,-144 177.72,-138.83"/>
</g>
<!-- Node10 -->
<g id="node10" class="node">
<title>Node10</title>
<g id="a_node10"><a xlink:href="solar_8h.html" target="_top" xlink:title="Solar voltage and current monitoring using INA219 IC.">
<polygon fill="white" stroke="#666666" points="392.5,-134.5 252.5,-134.5 252.5,-115.5 392.5,-115.5 392.5,-134.5"/>
<text text-anchor="middle" x="322.5" y="-122.5" font-family="Helvetica,sans-Serif" font-size="10.00">power_monitoring/solar.h</text>
</a>
</g>
</g>
<!-- Node7&#45;&gt;Node10 -->
<g id="edge11" class="edge">
<title>Node7&#45;&gt;Node10</title>
<path fill="none" stroke="#63b8ff" d="M237.26,-175.87C253.5,-166.36 279.85,-150.95 298.96,-139.77"/>
<polygon fill="#63b8ff" stroke="#63b8ff" points="300.82,-142.74 307.68,-134.67 297.29,-136.7 300.82,-142.74"/>
</g>
<!-- Node8&#45;&gt;Node5 -->
<g id="edge9" class="edge">
<title>Node8&#45;&gt;Node5</title>
<path fill="none" stroke="#63b8ff" d="M158.5,-115.47C158.5,-97.23 158.5,-54.07 158.5,-29.14"/>
<polygon fill="#63b8ff" stroke="#63b8ff" points="162,-29.13 158.5,-19.13 155,-29.13 162,-29.13"/>
</g>
<!-- Node9 -->
<g id="node9" class="node">
<title>Node9</title>
<g id="a_node9"><a xlink:title=" ">
<polygon fill="#e0e0e0" stroke="#999999" points="293,-74 188,-74 188,-55 293,-55 293,-74"/>
<text text-anchor="middle" x="240.5" y="-62" font-family="Helvetica,sans-Serif" font-size="10.00">Adafruit_INA219.h</text>
</a>
</g>
</g>
<!-- Node8&#45;&gt;Node9 -->
<g id="edge10" class="edge">
<title>Node8&#45;&gt;Node9</title>
<path fill="none" stroke="#63b8ff" d="M170.6,-115.37C183.56,-106.12 204.36,-91.28 219.9,-80.19"/>
<polygon fill="#63b8ff" stroke="#63b8ff" points="222.24,-82.82 228.35,-74.17 218.18,-77.13 222.24,-82.82"/>
</g>
<!-- Node10&#45;&gt;Node5 -->
<g id="edge12" class="edge">
<title>Node10&#45;&gt;Node5</title>
<path fill="none" stroke="#63b8ff" d="M322.33,-115.05C321.56,-100.46 317.92,-71.52 301.5,-55 274.82,-28.16 232.26,-17.45 200.49,-13.21"/>
<polygon fill="#63b8ff" stroke="#63b8ff" points="200.51,-9.69 190.17,-12.01 199.7,-16.64 200.51,-9.69"/>
</g>
<!-- Node10&#45;&gt;Node9 -->
<g id="edge13" class="edge">
<title>Node10&#45;&gt;Node9</title>
<path fill="none" stroke="#63b8ff" d="M310.4,-115.37C297.44,-106.12 276.64,-91.28 261.1,-80.19"/>
<polygon fill="#63b8ff" stroke="#63b8ff" points="262.82,-77.13 252.65,-74.17 258.76,-82.82 262.82,-77.13"/>
</g>
</g>
</svg>
