<?xml version="1.0" encoding="UTF-8" standalone="no"?>
<!DOCTYPE svg PUBLIC "-//W3C//DTD SVG 1.1//EN"
 "http://www.w3.org/Graphics/SVG/1.1/DTD/svg11.dtd">
<!-- Generated by graphviz version 2.43.0 (0)
 -->
<!-- Title: firmware/wombat/include/CAT_M1.h Pages: 1 -->
<svg width="1446pt" height="390pt"
 viewBox="0.00 0.00 1446.33 390.00" xmlns="http://www.w3.org/2000/svg" xmlns:xlink="http://www.w3.org/1999/xlink">
<g id="graph0" class="graph" transform="scale(1 1) rotate(0) translate(4 386)">
<title>firmware/wombat/include/CAT_M1.h</title>
<!-- Node1 -->
<g id="node1" class="node">
<title>Node1</title>
<g id="a_node1"><a xlink:title=" ">
<polygon fill="#999999" stroke="#666666" points="427.83,-382 286.83,-382 286.83,-352 427.83,-352 427.83,-382"/>
<text text-anchor="start" x="294.83" y="-370" font-family="Helvetica,sans-Serif" font-size="10.00">firmware/wombat/include</text>
<text text-anchor="middle" x="357.33" y="-359" font-family="Helvetica,sans-Serif" font-size="10.00">/CAT_M1.h</text>
</a>
</g>
</g>
<!-- Node2 -->
<g id="node2" class="node">
<title>Node2</title>
<g id="a_node2"><a xlink:href="cat-m1_8h.html" target="_top" xlink:title="CAT&#45;M1 CLI command request and response handler.">
<polygon fill="white" stroke="#666666" points="164.83,-316 23.83,-316 23.83,-286 164.83,-286 164.83,-316"/>
<text text-anchor="start" x="31.83" y="-304" font-family="Helvetica,sans-Serif" font-size="10.00">firmware/wombat/include</text>
<text text-anchor="middle" x="94.33" y="-293" font-family="Helvetica,sans-Serif" font-size="10.00">/cli/peripherals/cat&#45;m1.h</text>
</a>
</g>
</g>
<!-- Node1&#45;&gt;Node2 -->
<g id="edge1" class="edge">
<title>Node1&#45;&gt;Node2</title>
<path fill="none" stroke="#63b8ff" d="M289.87,-349.58C247.17,-339.19 192.56,-325.9 151.91,-316.01"/>
<polygon fill="#63b8ff" stroke="#63b8ff" points="289.07,-352.99 299.61,-351.95 290.73,-346.19 289.07,-352.99"/>
</g>
<!-- Node9 -->
<g id="node9" class="node">
<title>Node9</title>
<g id="a_node9"><a xlink:href="cat-m1_8cpp.html" target="_top" xlink:title="CAT&#45;M1 CLI command request and response handler.">
<polygon fill="white" stroke="#666666" points="120.33,-173 0.33,-173 0.33,-132 120.33,-132 120.33,-173"/>
<text text-anchor="start" x="8.33" y="-161" font-family="Helvetica,sans-Serif" font-size="10.00">firmware/wombat/src</text>
<text text-anchor="start" x="8.33" y="-150" font-family="Helvetica,sans-Serif" font-size="10.00">/cli/peripherals/cat</text>
<text text-anchor="middle" x="60.33" y="-139" font-family="Helvetica,sans-Serif" font-size="10.00">&#45;m1.cpp</text>
</a>
</g>
</g>
<!-- Node1&#45;&gt;Node9 -->
<g id="edge33" class="edge">
<title>Node1&#45;&gt;Node9</title>
<path fill="none" stroke="#63b8ff" d="M276.53,-365.92C186,-363.9 47.54,-354.4 14.33,-316 -21.63,-274.42 19.76,-206.57 44.49,-173.25"/>
<polygon fill="#63b8ff" stroke="#63b8ff" points="276.71,-369.42 286.77,-366.12 276.85,-362.42 276.71,-369.42"/>
</g>
<!-- Node13 -->
<g id="node13" class="node">
<title>Node13</title>
<g id="a_node13"><a xlink:href="mqtt__stack_8cpp.html" target="_top" xlink:title=" ">
<polygon fill="white" stroke="#666666" points="712.33,-167.5 592.33,-167.5 592.33,-137.5 712.33,-137.5 712.33,-167.5"/>
<text text-anchor="start" x="600.33" y="-155.5" font-family="Helvetica,sans-Serif" font-size="10.00">firmware/wombat/src</text>
<text text-anchor="middle" x="652.33" y="-144.5" font-family="Helvetica,sans-Serif" font-size="10.00">/mqtt_stack.cpp</text>
</a>
</g>
</g>
<!-- Node1&#45;&gt;Node13 -->
<g id="edge34" class="edge">
<title>Node1&#45;&gt;Node13</title>
<path fill="none" stroke="#63b8ff" d="M351.98,-341.7C348.37,-325.79 343.37,-304.58 338.33,-286 333.95,-269.85 329.8,-266.55 327.33,-250 324.64,-231.98 315.38,-222.75 327.33,-209 365.02,-165.64 527.12,-184.84 583.33,-173 590.64,-171.46 598.31,-169.57 605.78,-167.58"/>
<polygon fill="#63b8ff" stroke="#63b8ff" points="348.64,-342.78 354.24,-351.77 355.47,-341.25 348.64,-342.78"/>
</g>
<!-- Node14 -->
<g id="node14" class="node">
<title>Node14</title>
<g id="a_node14"><a xlink:href="cli__power_8h.html" target="_top" xlink:title=" ">
<polygon fill="white" stroke="#666666" points="329.33,-316 183.33,-316 183.33,-286 329.33,-286 329.33,-316"/>
<text text-anchor="start" x="191.33" y="-304" font-family="Helvetica,sans-Serif" font-size="10.00">firmware/wombat/include</text>
<text text-anchor="middle" x="256.33" y="-293" font-family="Helvetica,sans-Serif" font-size="10.00">/cli/peripherals/cli_power.h</text>
</a>
</g>
</g>
<!-- Node1&#45;&gt;Node14 -->
<g id="edge16" class="edge">
<title>Node1&#45;&gt;Node14</title>
<path fill="none" stroke="#63b8ff" d="M326.24,-346.3C310.87,-336.56 292.66,-325.02 278.68,-316.16"/>
<polygon fill="#63b8ff" stroke="#63b8ff" points="324.6,-349.4 334.92,-351.8 328.34,-343.49 324.6,-349.4"/>
</g>
<!-- Node16 -->
<g id="node16" class="node">
<title>Node16</title>
<g id="a_node16"><a xlink:href="globals_8h.html" target="_top" xlink:title=" ">
<polygon fill="white" stroke="#666666" points="888.83,-316 747.83,-316 747.83,-286 888.83,-286 888.83,-316"/>
<text text-anchor="start" x="755.83" y="-304" font-family="Helvetica,sans-Serif" font-size="10.00">firmware/wombat/include</text>
<text text-anchor="middle" x="818.33" y="-293" font-family="Helvetica,sans-Serif" font-size="10.00">/globals.h</text>
</a>
</g>
</g>
<!-- Node1&#45;&gt;Node16 -->
<g id="edge19" class="edge">
<title>Node1&#45;&gt;Node16</title>
<path fill="none" stroke="#63b8ff" d="M438.02,-354.8C525.68,-342.63 664.36,-323.38 747.82,-311.79"/>
<polygon fill="#63b8ff" stroke="#63b8ff" points="437.27,-351.37 427.85,-356.21 438.24,-358.3 437.27,-351.37"/>
</g>
<!-- Node17 -->
<g id="node17" class="node">
<title>Node17</title>
<g id="a_node17"><a xlink:href="_c_a_t___m1_8cpp.html" target="_top" xlink:title=" ">
<polygon fill="white" stroke="#666666" points="1300.33,-244.5 1180.33,-244.5 1180.33,-214.5 1300.33,-214.5 1300.33,-244.5"/>
<text text-anchor="start" x="1188.33" y="-232.5" font-family="Helvetica,sans-Serif" font-size="10.00">firmware/wombat/src</text>
<text text-anchor="middle" x="1240.33" y="-221.5" font-family="Helvetica,sans-Serif" font-size="10.00">/CAT_M1.cpp</text>
</a>
</g>
</g>
<!-- Node1&#45;&gt;Node17 -->
<g id="edge31" class="edge">
<title>Node1&#45;&gt;Node17</title>
<path fill="none" stroke="#63b8ff" d="M438.38,-362.14C544.42,-356.26 735.76,-342.8 897.33,-316 1020.9,-295.51 1050.15,-281.71 1171.33,-250 1177.83,-248.3 1184.66,-246.45 1191.39,-244.58"/>
<polygon fill="#63b8ff" stroke="#63b8ff" points="437.87,-358.66 428.08,-362.7 438.25,-365.65 437.87,-358.66"/>
</g>
<!-- Node19 -->
<g id="node19" class="node">
<title>Node19</title>
<g id="a_node19"><a xlink:href="_utils_8cpp.html" target="_top" xlink:title="Global utility functions.">
<polygon fill="white" stroke="#666666" points="1438.33,-244.5 1318.33,-244.5 1318.33,-214.5 1438.33,-214.5 1438.33,-244.5"/>
<text text-anchor="start" x="1326.33" y="-232.5" font-family="Helvetica,sans-Serif" font-size="10.00">firmware/wombat/src</text>
<text text-anchor="middle" x="1378.33" y="-221.5" font-family="Helvetica,sans-Serif" font-size="10.00">/Utils.cpp</text>
</a>
</g>
</g>
<!-- Node1&#45;&gt;Node19 -->
<g id="edge32" class="edge">
<title>Node1&#45;&gt;Node19</title>
<path fill="none" stroke="#63b8ff" d="M438.21,-362.65C557.83,-356.99 788.73,-343.37 983.33,-316 1129.72,-295.41 1165.66,-284.79 1309.33,-250 1316.23,-248.33 1323.47,-246.44 1330.57,-244.5"/>
<polygon fill="#63b8ff" stroke="#63b8ff" points="437.87,-359.16 428.04,-363.12 438.2,-366.15 437.87,-359.16"/>
</g>
<!-- Node3 -->
<g id="node3" class="node">
<title>Node3</title>
<g id="a_node3"><a xlink:href="_c_l_i_8h.html" target="_top" xlink:title="FreeRTOS CLI handler.">
<polygon fill="white" stroke="#666666" points="279.83,-244.5 138.83,-244.5 138.83,-214.5 279.83,-214.5 279.83,-244.5"/>
<text text-anchor="start" x="146.83" y="-232.5" font-family="Helvetica,sans-Serif" font-size="10.00">firmware/wombat/include</text>
<text text-anchor="middle" x="209.33" y="-221.5" font-family="Helvetica,sans-Serif" font-size="10.00">/cli/CLI.h</text>
</a>
</g>
</g>
<!-- Node2&#45;&gt;Node3 -->
<g id="edge2" class="edge">
<title>Node2&#45;&gt;Node3</title>
<path fill="none" stroke="#63b8ff" d="M126.23,-280.72C145.21,-269.25 168.88,-254.95 186.09,-244.54"/>
<polygon fill="#63b8ff" stroke="#63b8ff" points="124.35,-277.77 117.6,-285.94 127.97,-283.76 124.35,-277.77"/>
</g>
<!-- Node2&#45;&gt;Node9 -->
<g id="edge15" class="edge">
<title>Node2&#45;&gt;Node9</title>
<path fill="none" stroke="#63b8ff" d="M88.75,-275.96C82.1,-247.3 71.1,-199.92 64.92,-173.27"/>
<polygon fill="#63b8ff" stroke="#63b8ff" points="85.4,-277 91.07,-285.95 92.22,-275.42 85.4,-277"/>
</g>
<!-- Node4 -->
<g id="node4" class="node">
<title>Node4</title>
<g id="a_node4"><a xlink:href="server_8h.html" target="_top" xlink:title="Handle the setup and maintenance of the BLE server and connected clients.">
<polygon fill="white" stroke="#666666" points="279.83,-167.5 138.83,-167.5 138.83,-137.5 279.83,-137.5 279.83,-167.5"/>
<text text-anchor="start" x="146.83" y="-155.5" font-family="Helvetica,sans-Serif" font-size="10.00">firmware/wombat/include</text>
<text text-anchor="middle" x="209.33" y="-144.5" font-family="Helvetica,sans-Serif" font-size="10.00">/bluetooth/server.h</text>
</a>
</g>
</g>
<!-- Node3&#45;&gt;Node4 -->
<g id="edge3" class="edge">
<title>Node3&#45;&gt;Node4</title>
<path fill="none" stroke="#63b8ff" d="M202.98,-204.41C202.23,-192.24 202.54,-177.9 203.93,-167.54"/>
<polygon fill="#63b8ff" stroke="#63b8ff" points="199.5,-204.76 203.92,-214.39 206.47,-204.11 199.5,-204.76"/>
</g>
<!-- Node8 -->
<g id="node8" class="node">
<title>Node8</title>
<g id="a_node8"><a xlink:href="_c_l_i_8cpp.html" target="_top" xlink:title="FreeRTOS CLI handler.">
<polygon fill="white" stroke="#666666" points="418.33,-167.5 298.33,-167.5 298.33,-137.5 418.33,-137.5 418.33,-167.5"/>
<text text-anchor="start" x="306.33" y="-155.5" font-family="Helvetica,sans-Serif" font-size="10.00">firmware/wombat/src</text>
<text text-anchor="middle" x="358.33" y="-144.5" font-family="Helvetica,sans-Serif" font-size="10.00">/cli/CLI.cpp</text>
</a>
</g>
</g>
<!-- Node3&#45;&gt;Node8 -->
<g id="edge9" class="edge">
<title>Node3&#45;&gt;Node8</title>
<path fill="none" stroke="#63b8ff" d="M246.54,-209.77C272.55,-196.68 306.74,-179.47 330.43,-167.54"/>
<polygon fill="#63b8ff" stroke="#63b8ff" points="244.72,-206.77 237.36,-214.39 247.86,-213.02 244.72,-206.77"/>
</g>
<!-- Node3&#45;&gt;Node9 -->
<g id="edge10" class="edge">
<title>Node3&#45;&gt;Node9</title>
<path fill="none" stroke="#63b8ff" d="M172.18,-209.8C149.94,-198.61 121.73,-184.4 99.19,-173.06"/>
<polygon fill="#63b8ff" stroke="#63b8ff" points="170.8,-213.02 181.31,-214.39 173.95,-206.77 170.8,-213.02"/>
</g>
<!-- Node10 -->
<g id="node10" class="node">
<title>Node10</title>
<g id="a_node10"><a xlink:href="sd__card_8cpp.html" target="_top" xlink:title=" ">
<polygon fill="white" stroke="#666666" points="893.33,-173 773.33,-173 773.33,-132 893.33,-132 893.33,-173"/>
<text text-anchor="start" x="781.33" y="-161" font-family="Helvetica,sans-Serif" font-size="10.00">firmware/wombat/src</text>
<text text-anchor="start" x="781.33" y="-150" font-family="Helvetica,sans-Serif" font-size="10.00">/cli/peripherals/sd</text>
<text text-anchor="middle" x="833.33" y="-139" font-family="Helvetica,sans-Serif" font-size="10.00">_card.cpp</text>
</a>
</g>
</g>
<!-- Node3&#45;&gt;Node10 -->
<g id="edge11" class="edge">
<title>Node3&#45;&gt;Node10</title>
<path fill="none" stroke="#63b8ff" d="M289.97,-214.37C302.45,-212.42 315.22,-210.55 327.33,-209 501.75,-186.65 547.01,-196.1 721.33,-173 738.26,-170.76 756.53,-167.8 773.31,-164.88"/>
<polygon fill="#63b8ff" stroke="#63b8ff" points="289.35,-210.93 280.03,-215.96 290.46,-217.84 289.35,-210.93"/>
</g>
<!-- Node11 -->
<g id="node11" class="node">
<title>Node11</title>
<g id="a_node11"><a xlink:href="sdi12_8cpp.html" target="_top" xlink:title="SDI&#45;12 command line interface handler.">
<polygon fill="white" stroke="#666666" points="574.33,-167.5 436.33,-167.5 436.33,-137.5 574.33,-137.5 574.33,-167.5"/>
<text text-anchor="start" x="444.33" y="-155.5" font-family="Helvetica,sans-Serif" font-size="10.00">firmware/wombat/src</text>
<text text-anchor="middle" x="505.33" y="-144.5" font-family="Helvetica,sans-Serif" font-size="10.00">/cli/peripherals/sdi12.cpp</text>
</a>
</g>
</g>
<!-- Node3&#45;&gt;Node11 -->
<g id="edge12" class="edge">
<title>Node3&#45;&gt;Node11</title>
<path fill="none" stroke="#63b8ff" d="M274.56,-211.97C327.14,-198.65 400.28,-180.12 450.02,-167.51"/>
<polygon fill="#63b8ff" stroke="#63b8ff" points="273.49,-208.63 264.66,-214.48 275.21,-215.42 273.49,-208.63"/>
</g>
<!-- Node12 -->
<g id="node12" class="node">
<title>Node12</title>
<g id="a_node12"><a xlink:href="main_8cpp.html" target="_top" xlink:title=" ">
<polygon fill="white" stroke="#666666" points="1052.33,-167.5 932.33,-167.5 932.33,-137.5 1052.33,-137.5 1052.33,-167.5"/>
<text text-anchor="start" x="940.33" y="-155.5" font-family="Helvetica,sans-Serif" font-size="10.00">firmware/wombat/src</text>
<text text-anchor="middle" x="992.33" y="-144.5" font-family="Helvetica,sans-Serif" font-size="10.00">/main.cpp</text>
</a>
</g>
</g>
<!-- Node3&#45;&gt;Node12 -->
<g id="edge13" class="edge">
<title>Node3&#45;&gt;Node12</title>
<path fill="none" stroke="#63b8ff" d="M289.93,-214.07C302.42,-212.15 315.2,-210.38 327.33,-209 581.75,-180.09 648.71,-208.21 902.33,-173 912.47,-171.59 923.16,-169.67 933.5,-167.58"/>
<polygon fill="#63b8ff" stroke="#63b8ff" points="289.33,-210.62 279.99,-215.63 290.41,-217.53 289.33,-210.62"/>
</g>
<!-- Node3&#45;&gt;Node13 -->
<g id="edge14" class="edge">
<title>Node3&#45;&gt;Node13</title>
<path fill="none" stroke="#63b8ff" d="M276.74,-212.38C282.67,-211.16 288.6,-210.01 294.33,-209 421.8,-186.5 456.47,-198.67 583.33,-173 590.77,-171.49 598.59,-169.6 606.17,-167.58"/>
<polygon fill="#63b8ff" stroke="#63b8ff" points="275.84,-208.99 266.78,-214.49 277.29,-215.84 275.84,-208.99"/>
</g>
<!-- Node4&#45;&gt;Node3 -->
<g id="edge7" class="edge">
<title>Node4&#45;&gt;Node3</title>
<path fill="none" stroke="#63b8ff" d="M215.68,-177.51C216.44,-189.68 216.12,-204.02 214.74,-214.39"/>
<polygon fill="#63b8ff" stroke="#63b8ff" points="219.16,-177.17 214.73,-167.54 212.19,-177.83 219.16,-177.17"/>
</g>
<!-- Node5 -->
<g id="node5" class="node">
<title>Node5</title>
<g id="a_node5"><a xlink:href="uart_8h.html" target="_top" xlink:title="BluetoothLE UART service setup and handling.">
<polygon fill="white" stroke="#666666" points="279.83,-96 138.83,-96 138.83,-66 279.83,-66 279.83,-96"/>
<text text-anchor="start" x="146.83" y="-84" font-family="Helvetica,sans-Serif" font-size="10.00">firmware/wombat/include</text>
<text text-anchor="middle" x="209.33" y="-73" font-family="Helvetica,sans-Serif" font-size="10.00">/bluetooth/uart.h</text>
</a>
</g>
</g>
<!-- Node4&#45;&gt;Node5 -->
<g id="edge4" class="edge">
<title>Node4&#45;&gt;Node5</title>
<path fill="none" stroke="#63b8ff" d="M202.86,-127.25C202.29,-116.81 202.59,-104.99 203.79,-96.04"/>
<polygon fill="#63b8ff" stroke="#63b8ff" points="199.4,-127.79 203.78,-137.44 206.37,-127.16 199.4,-127.79"/>
</g>
<!-- Node7 -->
<g id="node7" class="node">
<title>Node7</title>
<g id="a_node7"><a xlink:href="server_8cpp.html" target="_top" xlink:title="Setup and start BluetoothLE server.">
<polygon fill="white" stroke="#666666" points="418.33,-96 298.33,-96 298.33,-66 418.33,-66 418.33,-96"/>
<text text-anchor="start" x="306.33" y="-84" font-family="Helvetica,sans-Serif" font-size="10.00">firmware/wombat/src</text>
<text text-anchor="middle" x="358.33" y="-73" font-family="Helvetica,sans-Serif" font-size="10.00">/bluetooth/server.cpp</text>
</a>
</g>
</g>
<!-- Node4&#45;&gt;Node7 -->
<g id="edge8" class="edge">
<title>Node4&#45;&gt;Node7</title>
<path fill="none" stroke="#63b8ff" d="M248.67,-133.15C273.58,-121.53 305.31,-106.73 328.22,-96.04"/>
<polygon fill="#63b8ff" stroke="#63b8ff" points="247.07,-130.04 239.48,-137.44 250.03,-136.38 247.07,-130.04"/>
</g>
<!-- Node5&#45;&gt;Node4 -->
<g id="edge5" class="edge">
<title>Node5&#45;&gt;Node4</title>
<path fill="none" stroke="#63b8ff" d="M215.8,-106.23C216.38,-116.66 216.07,-128.49 214.88,-137.44"/>
<polygon fill="#63b8ff" stroke="#63b8ff" points="219.26,-105.69 214.88,-96.04 212.29,-106.32 219.26,-105.69"/>
</g>
<!-- Node6 -->
<g id="node6" class="node">
<title>Node6</title>
<g id="a_node6"><a xlink:href="uart_8cpp.html" target="_top" xlink:title="BluetoothLE UART service setup and handling.">
<polygon fill="white" stroke="#666666" points="269.33,-30 149.33,-30 149.33,0 269.33,0 269.33,-30"/>
<text text-anchor="start" x="157.33" y="-18" font-family="Helvetica,sans-Serif" font-size="10.00">firmware/wombat/src</text>
<text text-anchor="middle" x="209.33" y="-7" font-family="Helvetica,sans-Serif" font-size="10.00">/bluetooth/uart.cpp</text>
</a>
</g>
</g>
<!-- Node5&#45;&gt;Node6 -->
<g id="edge6" class="edge">
<title>Node5&#45;&gt;Node6</title>
<path fill="none" stroke="#63b8ff" d="M209.33,-55.54C209.33,-46.96 209.33,-37.61 209.33,-30.16"/>
<polygon fill="#63b8ff" stroke="#63b8ff" points="205.83,-55.8 209.33,-65.8 212.83,-55.8 205.83,-55.8"/>
</g>
<!-- Node14&#45;&gt;Node3 -->
<g id="edge17" class="edge">
<title>Node14&#45;&gt;Node3</title>
<path fill="none" stroke="#63b8ff" d="M241.04,-277.38C233.72,-266.57 225.2,-253.96 218.83,-244.54"/>
<polygon fill="#63b8ff" stroke="#63b8ff" points="238.32,-279.61 246.82,-285.94 244.12,-275.69 238.32,-279.61"/>
</g>
<!-- Node15 -->
<g id="node15" class="node">
<title>Node15</title>
<g id="a_node15"><a xlink:href="cli__power_8cpp.html" target="_top" xlink:title="Power related commands.">
<polygon fill="white" stroke="#666666" points="456.33,-250 336.33,-250 336.33,-209 456.33,-209 456.33,-250"/>
<text text-anchor="start" x="344.33" y="-238" font-family="Helvetica,sans-Serif" font-size="10.00">firmware/wombat/src</text>
<text text-anchor="start" x="344.33" y="-227" font-family="Helvetica,sans-Serif" font-size="10.00">/cli/device_config/cli</text>
<text text-anchor="middle" x="396.33" y="-216" font-family="Helvetica,sans-Serif" font-size="10.00">_power.cpp</text>
</a>
</g>
</g>
<!-- Node14&#45;&gt;Node15 -->
<g id="edge18" class="edge">
<title>Node14&#45;&gt;Node15</title>
<path fill="none" stroke="#63b8ff" d="M293.85,-281.38C313.34,-271.7 337.14,-259.88 356.9,-250.07"/>
<polygon fill="#63b8ff" stroke="#63b8ff" points="292.06,-278.35 284.66,-285.94 295.18,-284.62 292.06,-278.35"/>
</g>
<!-- Node16&#45;&gt;Node9 -->
<g id="edge25" class="edge">
<title>Node16&#45;&gt;Node9</title>
<path fill="none" stroke="#63b8ff" d="M737.38,-297.97C566.69,-293.13 181.22,-279.11 129.33,-250 113.52,-241.13 86.84,-198.85 71.7,-173.28"/>
<polygon fill="#63b8ff" stroke="#63b8ff" points="737.48,-301.47 747.57,-298.25 737.67,-294.48 737.48,-301.47"/>
</g>
<!-- Node16&#45;&gt;Node10 -->
<g id="edge26" class="edge">
<title>Node16&#45;&gt;Node10</title>
<path fill="none" stroke="#63b8ff" d="M898.81,-288.78C921.43,-281.49 943.59,-269.55 957.33,-250 967.81,-235.09 967.24,-224.29 957.33,-209 943.03,-186.93 917.66,-173.56 893.58,-165.49"/>
<polygon fill="#63b8ff" stroke="#63b8ff" points="897.72,-285.45 889.11,-291.62 899.69,-292.17 897.72,-285.45"/>
</g>
<!-- Node16&#45;&gt;Node12 -->
<g id="edge27" class="edge">
<title>Node16&#45;&gt;Node12</title>
<path fill="none" stroke="#63b8ff" d="M898.86,-291.51C926.81,-284.58 955.96,-272.15 975.33,-250 995.6,-226.82 995.7,-188.18 994.03,-167.53"/>
<polygon fill="#63b8ff" stroke="#63b8ff" points="898.02,-288.11 889.04,-293.74 899.57,-294.94 898.02,-288.11"/>
</g>
<!-- Node16&#45;&gt;Node13 -->
<g id="edge28" class="edge">
<title>Node16&#45;&gt;Node13</title>
<path fill="none" stroke="#63b8ff" d="M738.1,-285.34C716.55,-277.92 694.93,-266.77 679.33,-250 657.89,-226.94 653.27,-188.25 652.4,-167.56"/>
<polygon fill="#63b8ff" stroke="#63b8ff" points="737.06,-288.68 747.65,-288.39 739.19,-282.01 737.06,-288.68"/>
</g>
<!-- Node16&#45;&gt;Node15 -->
<g id="edge24" class="edge">
<title>Node16&#45;&gt;Node15</title>
<path fill="none" stroke="#63b8ff" d="M737.18,-291.65C665.28,-283.51 557.69,-269.5 465.33,-250 462.41,-249.38 459.43,-248.71 456.42,-248"/>
<polygon fill="#63b8ff" stroke="#63b8ff" points="737.19,-295.18 747.52,-292.81 737.97,-288.22 737.19,-295.18"/>
</g>
<!-- Node16&#45;&gt;Node17 -->
<g id="edge20" class="edge">
<title>Node16&#45;&gt;Node17</title>
<path fill="none" stroke="#63b8ff" d="M899.49,-291.65C971.39,-283.51 1078.97,-269.5 1171.33,-250 1178.64,-248.46 1186.31,-246.57 1193.78,-244.58"/>
<polygon fill="#63b8ff" stroke="#63b8ff" points="898.69,-288.22 889.14,-292.81 899.47,-295.18 898.69,-288.22"/>
</g>
<!-- Node18 -->
<g id="node18" class="node">
<title>Node18</title>
<g id="a_node18"><a xlink:href="_sensor_task_8cpp.html" target="_top" xlink:title=" ">
<polygon fill="white" stroke="#666666" points="1162.33,-244.5 1042.33,-244.5 1042.33,-214.5 1162.33,-214.5 1162.33,-244.5"/>
<text text-anchor="start" x="1050.33" y="-232.5" font-family="Helvetica,sans-Serif" font-size="10.00">firmware/wombat/src</text>
<text text-anchor="middle" x="1102.33" y="-221.5" font-family="Helvetica,sans-Serif" font-size="10.00">/SensorTask.cpp</text>
</a>
</g>
</g>
<!-- Node16&#45;&gt;Node18 -->
<g id="edge21" class="edge">
<title>Node16&#45;&gt;Node18</title>
<path fill="none" stroke="#63b8ff" d="M888.92,-283.64C929.72,-274.07 981.99,-261.62 1028.33,-250 1035.29,-248.25 1042.61,-246.38 1049.82,-244.5"/>
<polygon fill="#63b8ff" stroke="#63b8ff" points="888.01,-280.25 879.08,-285.94 889.61,-287.07 888.01,-280.25"/>
</g>
<!-- Node16&#45;&gt;Node19 -->
<g id="edge22" class="edge">
<title>Node16&#45;&gt;Node19</title>
<path fill="none" stroke="#63b8ff" d="M899.34,-296.08C997.19,-290.34 1166.46,-277.25 1309.33,-250 1317.03,-248.53 1325.13,-246.6 1332.95,-244.53"/>
<polygon fill="#63b8ff" stroke="#63b8ff" points="899,-292.59 889.22,-296.66 899.41,-299.58 899,-292.59"/>
</g>
<!-- Node20 -->
<g id="node20" class="node">
<title>Node20</title>
<g id="a_node20"><a xlink:href="acquisition__intervals_8cpp.html" target="_top" xlink:title="Handles the time between measurements and uplinks by the device over LTE.">
<polygon fill="white" stroke="#666666" points="631.83,-250 474.83,-250 474.83,-209 631.83,-209 631.83,-250"/>
<text text-anchor="start" x="482.83" y="-238" font-family="Helvetica,sans-Serif" font-size="10.00">firmware/wombat/src</text>
<text text-anchor="start" x="482.83" y="-227" font-family="Helvetica,sans-Serif" font-size="10.00">/cli/device_config/acquisition</text>
<text text-anchor="middle" x="553.33" y="-216" font-family="Helvetica,sans-Serif" font-size="10.00">_intervals.cpp</text>
</a>
</g>
</g>
<!-- Node16&#45;&gt;Node20 -->
<g id="edge23" class="edge">
<title>Node16&#45;&gt;Node20</title>
<path fill="none" stroke="#63b8ff" d="M754.73,-283.32C716.51,-273.3 667.71,-260.5 627.71,-250.01"/>
<polygon fill="#63b8ff" stroke="#63b8ff" points="754.14,-286.78 764.7,-285.94 755.92,-280.01 754.14,-286.78"/>
</g>
<!-- Node21 -->
<g id="node21" class="node">
<title>Node21</title>
<g id="a_node21"><a xlink:href="interface_8cpp.html" target="_top" xlink:title=" ">
<polygon fill="white" stroke="#666666" points="810.33,-244.5 688.33,-244.5 688.33,-214.5 810.33,-214.5 810.33,-244.5"/>
<text text-anchor="start" x="696.33" y="-232.5" font-family="Helvetica,sans-Serif" font-size="10.00">firmware/wombat/src</text>
<text text-anchor="middle" x="749.33" y="-221.5" font-family="Helvetica,sans-Serif" font-size="10.00">/sd&#45;card/interface.cpp</text>
</a>
</g>
</g>
<!-- Node16&#45;&gt;Node21 -->
<g id="edge29" class="edge">
<title>Node16&#45;&gt;Node21</title>
<path fill="none" stroke="#63b8ff" d="M797.16,-278.67C786.14,-267.58 773,-254.34 763.27,-244.54"/>
<polygon fill="#63b8ff" stroke="#63b8ff" points="794.84,-281.3 804.37,-285.94 799.81,-276.37 794.84,-281.3"/>
</g>
<!-- Node22 -->
<g id="node22" class="node">
<title>Node22</title>
<g id="a_node22"><a xlink:href="uplinks_8cpp.html" target="_top" xlink:title=" ">
<polygon fill="white" stroke="#666666" points="948.33,-244.5 828.33,-244.5 828.33,-214.5 948.33,-214.5 948.33,-244.5"/>
<text text-anchor="start" x="836.33" y="-232.5" font-family="Helvetica,sans-Serif" font-size="10.00">firmware/wombat/src</text>
<text text-anchor="middle" x="888.33" y="-221.5" font-family="Helvetica,sans-Serif" font-size="10.00">/uplinks.cpp</text>
</a>
</g>
</g>
<!-- Node16&#45;&gt;Node22 -->
<g id="edge30" class="edge">
<title>Node16&#45;&gt;Node22</title>
<path fill="none" stroke="#63b8ff" d="M839.81,-278.67C850.98,-267.58 864.32,-254.34 874.19,-244.54"/>
<polygon fill="#63b8ff" stroke="#63b8ff" points="837.13,-276.41 832.5,-285.94 842.06,-281.37 837.13,-276.41"/>
</g>
</g>
</svg>
