<?xml version="1.0" encoding="UTF-8" standalone="no"?>
<!DOCTYPE svg PUBLIC "-//W3C//DTD SVG 1.1//EN"
 "http://www.w3.org/Graphics/SVG/1.1/DTD/svg11.dtd">
<!-- Generated by graphviz version 2.43.0 (0)
 -->
<!-- Title: firmware/wombat/src/CAT_M1.cpp Pages: 1 -->
<svg width="429pt" height="324pt"
 viewBox="0.00 0.00 428.50 324.00" xmlns="http://www.w3.org/2000/svg" xmlns:xlink="http://www.w3.org/1999/xlink">
<g id="graph0" class="graph" transform="scale(1 1) rotate(0) translate(4 320)">
<title>firmware/wombat/src/CAT_M1.cpp</title>
<!-- Node1 -->
<g id="node1" class="node">
<title>Node1</title>
<g id="a_node1"><a xlink:title=" ">
<polygon fill="#999999" stroke="#666666" points="268.5,-316 148.5,-316 148.5,-286 268.5,-286 268.5,-316"/>
<text text-anchor="start" x="156.5" y="-304" font-family="Helvetica,sans-Serif" font-size="10.00">firmware/wombat/src</text>
<text text-anchor="middle" x="208.5" y="-293" font-family="Helvetica,sans-Serif" font-size="10.00">/CAT_M1.cpp</text>
</a>
</g>
</g>
<!-- Node2 -->
<g id="node2" class="node">
<title>Node2</title>
<g id="a_node2"><a xlink:href="_c_a_t___m1_8h.html" target="_top" xlink:title=" ">
<polygon fill="white" stroke="#666666" points="124,-134.5 59,-134.5 59,-115.5 124,-115.5 124,-134.5"/>
<text text-anchor="middle" x="91.5" y="-122.5" font-family="Helvetica,sans-Serif" font-size="10.00">CAT_M1.h</text>
</a>
</g>
</g>
<!-- Node1&#45;&gt;Node2 -->
<g id="edge1" class="edge">
<title>Node1&#45;&gt;Node2</title>
<path fill="none" stroke="#63b8ff" d="M190.91,-285.92C168.91,-267.37 131.55,-232.65 110.5,-195 101.7,-179.25 96.77,-159.18 94.15,-144.74"/>
<polygon fill="#63b8ff" stroke="#63b8ff" points="97.56,-143.89 92.52,-134.57 90.65,-145 97.56,-143.89"/>
</g>
<!-- Node6 -->
<g id="node6" class="node">
<title>Node6</title>
<g id="a_node6"><a xlink:title=" ">
<polygon fill="#e0e0e0" stroke="#999999" points="420.5,-140 290.5,-140 290.5,-110 420.5,-110 420.5,-140"/>
<text text-anchor="start" x="298.5" y="-128" font-family="Helvetica,sans-Serif" font-size="10.00">SparkFun_u&#45;blox_SARA</text>
<text text-anchor="middle" x="355.5" y="-117" font-family="Helvetica,sans-Serif" font-size="10.00">&#45;R5_Arduino_Library.h</text>
</a>
</g>
</g>
<!-- Node1&#45;&gt;Node6 -->
<g id="edge6" class="edge">
<title>Node1&#45;&gt;Node6</title>
<path fill="none" stroke="#63b8ff" d="M266.54,-286C312.36,-271.55 373.29,-244.02 402.5,-195 412.42,-178.35 399.16,-160.27 384.22,-146.8"/>
<polygon fill="#63b8ff" stroke="#63b8ff" points="386.28,-143.96 376.38,-140.21 381.78,-149.32 386.28,-143.96"/>
</g>
<!-- Node7 -->
<g id="node7" class="node">
<title>Node7</title>
<g id="a_node7"><a xlink:href="_utils_8h.html" target="_top" xlink:title=" ">
<polygon fill="white" stroke="#666666" points="248.5,-250 200.5,-250 200.5,-231 248.5,-231 248.5,-250"/>
<text text-anchor="middle" x="224.5" y="-238" font-family="Helvetica,sans-Serif" font-size="10.00">Utils.h</text>
</a>
</g>
</g>
<!-- Node1&#45;&gt;Node7 -->
<g id="edge7" class="edge">
<title>Node1&#45;&gt;Node7</title>
<path fill="none" stroke="#63b8ff" d="M212.37,-285.84C214.48,-278.13 217.12,-268.49 219.39,-260.17"/>
<polygon fill="#63b8ff" stroke="#63b8ff" points="222.84,-260.84 222.1,-250.27 216.09,-258.99 222.84,-260.84"/>
</g>
<!-- Node10 -->
<g id="node10" class="node">
<title>Node10</title>
<g id="a_node10"><a xlink:href="globals_8h.html" target="_top" xlink:title=" ">
<polygon fill="white" stroke="#666666" points="181,-195 120,-195 120,-176 181,-176 181,-195"/>
<text text-anchor="middle" x="150.5" y="-183" font-family="Helvetica,sans-Serif" font-size="10.00">globals.h</text>
</a>
</g>
</g>
<!-- Node1&#45;&gt;Node10 -->
<g id="edge15" class="edge">
<title>Node1&#45;&gt;Node10</title>
<path fill="none" stroke="#63b8ff" d="M201.15,-285.63C190.58,-264.93 171.08,-226.78 159.61,-204.32"/>
<polygon fill="#63b8ff" stroke="#63b8ff" points="162.63,-202.54 154.96,-195.23 156.39,-205.73 162.63,-202.54"/>
</g>
<!-- Node3 -->
<g id="node3" class="node">
<title>Node3</title>
<g id="a_node3"><a xlink:title=" ">
<polygon fill="#e0e0e0" stroke="#999999" points="129.5,-19 81.5,-19 81.5,0 129.5,0 129.5,-19"/>
<text text-anchor="middle" x="105.5" y="-7" font-family="Helvetica,sans-Serif" font-size="10.00">Wire.h</text>
</a>
</g>
</g>
<!-- Node2&#45;&gt;Node3 -->
<g id="edge2" class="edge">
<title>Node2&#45;&gt;Node3</title>
<path fill="none" stroke="#63b8ff" d="M92.55,-115.47C94.8,-97.23 100.13,-54.07 103.2,-29.14"/>
<polygon fill="#63b8ff" stroke="#63b8ff" points="106.68,-29.48 104.44,-19.13 99.74,-28.63 106.68,-29.48"/>
</g>
<!-- Node4 -->
<g id="node4" class="node">
<title>Node4</title>
<g id="a_node4"><a xlink:href="_t_c_a9534_8h.html" target="_top" xlink:title=" ">
<polygon fill="white" stroke="#666666" points="77.5,-74 9.5,-74 9.5,-55 77.5,-55 77.5,-74"/>
<text text-anchor="middle" x="43.5" y="-62" font-family="Helvetica,sans-Serif" font-size="10.00">TCA9534.h</text>
</a>
</g>
</g>
<!-- Node2&#45;&gt;Node4 -->
<g id="edge3" class="edge">
<title>Node2&#45;&gt;Node4</title>
<path fill="none" stroke="#63b8ff" d="M84.42,-115.37C77.26,-106.64 66.01,-92.93 57.11,-82.09"/>
<polygon fill="#63b8ff" stroke="#63b8ff" points="59.66,-79.68 50.61,-74.17 54.25,-84.12 59.66,-79.68"/>
</g>
<!-- Node4&#45;&gt;Node3 -->
<g id="edge5" class="edge">
<title>Node4&#45;&gt;Node3</title>
<path fill="none" stroke="#63b8ff" d="M53.46,-54.98C62.63,-47.15 76.44,-35.34 87.53,-25.86"/>
<polygon fill="#63b8ff" stroke="#63b8ff" points="90.03,-28.33 95.36,-19.17 85.48,-23.01 90.03,-28.33"/>
</g>
<!-- Node5 -->
<g id="node5" class="node">
<title>Node5</title>
<g id="a_node5"><a xlink:title=" ">
<polygon fill="#e0e0e0" stroke="#999999" points="63,-19 0,-19 0,0 63,0 63,-19"/>
<text text-anchor="middle" x="31.5" y="-7" font-family="Helvetica,sans-Serif" font-size="10.00">Arduino.h</text>
</a>
</g>
</g>
<!-- Node4&#45;&gt;Node5 -->
<g id="edge4" class="edge">
<title>Node4&#45;&gt;Node5</title>
<path fill="none" stroke="#63b8ff" d="M41.52,-54.75C39.93,-47.72 37.64,-37.62 35.65,-28.84"/>
<polygon fill="#63b8ff" stroke="#63b8ff" points="39.07,-28.07 33.44,-19.09 32.24,-29.62 39.07,-28.07"/>
</g>
<!-- Node8 -->
<g id="node8" class="node">
<title>Node8</title>
<g id="a_node8"><a xlink:title=" ">
<polygon fill="#e0e0e0" stroke="#999999" points="393,-195 310,-195 310,-176 393,-176 393,-195"/>
<text text-anchor="middle" x="351.5" y="-183" font-family="Helvetica,sans-Serif" font-size="10.00">ArduinoJson.h</text>
</a>
</g>
</g>
<!-- Node7&#45;&gt;Node8 -->
<g id="edge8" class="edge">
<title>Node7&#45;&gt;Node8</title>
<path fill="none" stroke="#63b8ff" d="M244.9,-230.98C265.52,-222.38 297.61,-208.99 321.19,-199.15"/>
<polygon fill="#63b8ff" stroke="#63b8ff" points="322.84,-202.25 330.72,-195.17 320.15,-195.79 322.84,-202.25"/>
</g>
<!-- Node9 -->
<g id="node9" class="node">
<title>Node9</title>
<g id="a_node9"><a xlink:title=" ">
<polygon fill="#e0e0e0" stroke="#999999" points="292,-195 199,-195 199,-176 292,-176 292,-195"/>
<text text-anchor="middle" x="245.5" y="-183" font-family="Helvetica,sans-Serif" font-size="10.00">dpiclimate&#45;12.h</text>
</a>
</g>
</g>
<!-- Node7&#45;&gt;Node9 -->
<g id="edge9" class="edge">
<title>Node7&#45;&gt;Node9</title>
<path fill="none" stroke="#63b8ff" d="M227.97,-230.75C230.78,-223.65 234.84,-213.4 238.35,-204.56"/>
<polygon fill="#63b8ff" stroke="#63b8ff" points="241.67,-205.68 242.1,-195.09 235.16,-203.1 241.67,-205.68"/>
</g>
<!-- Node7&#45;&gt;Node10 -->
<g id="edge10" class="edge">
<title>Node7&#45;&gt;Node10</title>
<path fill="none" stroke="#63b8ff" d="M212.61,-230.98C201.35,-222.92 184.21,-210.65 170.79,-201.03"/>
<polygon fill="#63b8ff" stroke="#63b8ff" points="172.77,-198.15 162.61,-195.17 168.7,-203.84 172.77,-198.15"/>
</g>
<!-- Node10&#45;&gt;Node2 -->
<g id="edge12" class="edge">
<title>Node10&#45;&gt;Node2</title>
<path fill="none" stroke="#63b8ff" d="M141.79,-175.87C132.82,-166.97 118.62,-152.89 107.59,-141.95"/>
<polygon fill="#63b8ff" stroke="#63b8ff" points="109.81,-139.22 100.24,-134.67 104.88,-144.19 109.81,-139.22"/>
</g>
<!-- Node10&#45;&gt;Node6 -->
<g id="edge11" class="edge">
<title>Node10&#45;&gt;Node6</title>
<path fill="none" stroke="#63b8ff" d="M180.31,-175.99C210.58,-167.35 258.29,-153.74 296.28,-142.9"/>
<polygon fill="#63b8ff" stroke="#63b8ff" points="297.56,-146.17 306.22,-140.06 295.64,-139.44 297.56,-146.17"/>
</g>
<!-- Node11 -->
<g id="node11" class="node">
<title>Node11</title>
<g id="a_node11"><a xlink:href="str__utils_8h.html" target="_top" xlink:title=" ">
<polygon fill="white" stroke="#666666" points="207,-134.5 142,-134.5 142,-115.5 207,-115.5 207,-134.5"/>
<text text-anchor="middle" x="174.5" y="-122.5" font-family="Helvetica,sans-Serif" font-size="10.00">str_utils.h</text>
</a>
</g>
</g>
<!-- Node10&#45;&gt;Node11 -->
<g id="edge13" class="edge">
<title>Node10&#45;&gt;Node11</title>
<path fill="none" stroke="#63b8ff" d="M154.04,-175.87C157.44,-167.57 162.69,-154.78 167.02,-144.22"/>
<polygon fill="#63b8ff" stroke="#63b8ff" points="170.39,-145.25 170.94,-134.67 163.91,-142.59 170.39,-145.25"/>
</g>
<!-- Node12 -->
<g id="node12" class="node">
<title>Node12</title>
<g id="a_node12"><a xlink:title=" ">
<polygon fill="#e0e0e0" stroke="#999999" points="202.5,-74 146.5,-74 146.5,-55 202.5,-55 202.5,-74"/>
<text text-anchor="middle" x="174.5" y="-62" font-family="Helvetica,sans-Serif" font-size="10.00">stddef.h</text>
</a>
</g>
</g>
<!-- Node11&#45;&gt;Node12 -->
<g id="edge14" class="edge">
<title>Node11&#45;&gt;Node12</title>
<path fill="none" stroke="#63b8ff" d="M174.5,-115.37C174.5,-107.25 174.5,-94.81 174.5,-84.39"/>
<polygon fill="#63b8ff" stroke="#63b8ff" points="178,-84.17 174.5,-74.17 171,-84.17 178,-84.17"/>
</g>
</g>
</svg>
