<?xml version="1.0" encoding="UTF-8" standalone="no"?>
<!DOCTYPE svg PUBLIC "-//W3C//DTD SVG 1.1//EN"
 "http://www.w3.org/Graphics/SVG/1.1/DTD/svg11.dtd">
<!-- Generated by graphviz version 2.43.0 (0)
 -->
<!-- Title: firmware/wombat/lib/CatM1/include/CAT_M1.h Pages: 1 -->
<svg width="1152pt" height="379pt"
 viewBox="0.00 0.00 1151.50 379.00" xmlns="http://www.w3.org/2000/svg" xmlns:xlink="http://www.w3.org/1999/xlink">
<g id="graph0" class="graph" transform="scale(1 1) rotate(0) translate(4 375)">
<title>firmware/wombat/lib/CatM1/include/CAT_M1.h</title>
<!-- Node1 -->
<g id="node1" class="node">
<title>Node1</title>
<g id="a_node1"><a xlink:title=" ">
<polygon fill="#999999" stroke="#666666" points="897.5,-371 757.5,-371 757.5,-341 897.5,-341 897.5,-371"/>
<text text-anchor="start" x="765.5" y="-359" font-family="Helvetica,sans-Serif" font-size="10.00">firmware/wombat/lib</text>
<text text-anchor="middle" x="827.5" y="-348" font-family="Helvetica,sans-Serif" font-size="10.00">/CatM1/include/CAT_M1.h</text>
</a>
</g>
</g>
<!-- Node2 -->
<g id="node2" class="node">
<title>Node2</title>
<g id="a_node2"><a xlink:href="cat-m1_8h.html" target="_top" xlink:title=" ">
<polygon fill="white" stroke="#666666" points="564,-305 423,-305 423,-275 564,-275 564,-305"/>
<text text-anchor="start" x="431" y="-293" font-family="Helvetica,sans-Serif" font-size="10.00">firmware/wombat/include</text>
<text text-anchor="middle" x="493.5" y="-282" font-family="Helvetica,sans-Serif" font-size="10.00">/cli/peripherals/cat&#45;m1.h</text>
</a>
</g>
</g>
<!-- Node1&#45;&gt;Node2 -->
<g id="edge1" class="edge">
<title>Node1&#45;&gt;Node2</title>
<path fill="none" stroke="#63b8ff" d="M747.63,-339.7C691.83,-329 617.99,-314.85 564.29,-304.56"/>
<polygon fill="#63b8ff" stroke="#63b8ff" points="747,-343.14 757.48,-341.58 748.32,-336.26 747,-343.14"/>
</g>
<!-- Node12 -->
<g id="node12" class="node">
<title>Node12</title>
<g id="a_node12"><a xlink:href="cat-m1_8cpp.html" target="_top" xlink:title=" ">
<polygon fill="white" stroke="#666666" points="553.5,-239 433.5,-239 433.5,-198 553.5,-198 553.5,-239"/>
<text text-anchor="start" x="441.5" y="-227" font-family="Helvetica,sans-Serif" font-size="10.00">firmware/wombat/src</text>
<text text-anchor="start" x="441.5" y="-216" font-family="Helvetica,sans-Serif" font-size="10.00">/cli/peripherals/cat</text>
<text text-anchor="middle" x="493.5" y="-205" font-family="Helvetica,sans-Serif" font-size="10.00">&#45;m1.cpp</text>
</a>
</g>
</g>
<!-- Node1&#45;&gt;Node12 -->
<g id="edge23" class="edge">
<title>Node1&#45;&gt;Node12</title>
<path fill="none" stroke="#63b8ff" d="M780.98,-337.29C756.39,-327.86 725.75,-315.96 698.5,-305 643.58,-282.91 580.82,-256.57 539.36,-239.02"/>
<polygon fill="#63b8ff" stroke="#63b8ff" points="779.83,-340.61 790.42,-340.92 782.34,-334.07 779.83,-340.61"/>
</g>
<!-- Node13 -->
<g id="node13" class="node">
<title>Node13</title>
<g id="a_node13"><a xlink:href="globals_8h.html" target="_top" xlink:title=" ">
<polygon fill="white" stroke="#666666" points="849,-305 708,-305 708,-275 849,-275 849,-305"/>
<text text-anchor="start" x="716" y="-293" font-family="Helvetica,sans-Serif" font-size="10.00">firmware/wombat/include</text>
<text text-anchor="middle" x="778.5" y="-282" font-family="Helvetica,sans-Serif" font-size="10.00">/globals.h</text>
</a>
</g>
</g>
<!-- Node1&#45;&gt;Node13 -->
<g id="edge14" class="edge">
<title>Node1&#45;&gt;Node13</title>
<path fill="none" stroke="#63b8ff" d="M810.51,-332.81C803.49,-323.64 795.56,-313.28 789.34,-305.16"/>
<polygon fill="#63b8ff" stroke="#63b8ff" points="807.77,-334.98 816.63,-340.8 813.33,-330.73 807.77,-334.98"/>
</g>
<!-- Node15 -->
<g id="node15" class="node">
<title>Node15</title>
<g id="a_node15"><a xlink:href="_utils_8cpp.html" target="_top" xlink:title=" ">
<polygon fill="white" stroke="#666666" points="1005.5,-233.5 885.5,-233.5 885.5,-203.5 1005.5,-203.5 1005.5,-233.5"/>
<text text-anchor="start" x="893.5" y="-221.5" font-family="Helvetica,sans-Serif" font-size="10.00">firmware/wombat/src</text>
<text text-anchor="middle" x="945.5" y="-210.5" font-family="Helvetica,sans-Serif" font-size="10.00">/Utils.cpp</text>
</a>
</g>
</g>
<!-- Node1&#45;&gt;Node15 -->
<g id="edge22" class="edge">
<title>Node1&#45;&gt;Node15</title>
<path fill="none" stroke="#63b8ff" d="M846.61,-333.06C871.05,-304.99 912.69,-257.17 933.26,-233.55"/>
<polygon fill="#63b8ff" stroke="#63b8ff" points="843.83,-330.92 839.91,-340.76 849.11,-335.51 843.83,-330.92"/>
</g>
<!-- Node16 -->
<g id="node16" class="node">
<title>Node16</title>
<g id="a_node16"><a xlink:href="mqtt__stack_8cpp.html" target="_top" xlink:title=" ">
<polygon fill="white" stroke="#666666" points="1143.5,-233.5 1023.5,-233.5 1023.5,-203.5 1143.5,-203.5 1143.5,-233.5"/>
<text text-anchor="start" x="1031.5" y="-221.5" font-family="Helvetica,sans-Serif" font-size="10.00">firmware/wombat/src</text>
<text text-anchor="middle" x="1083.5" y="-210.5" font-family="Helvetica,sans-Serif" font-size="10.00">/mqtt_stack.cpp</text>
</a>
</g>
</g>
<!-- Node1&#45;&gt;Node16 -->
<g id="edge24" class="edge">
<title>Node1&#45;&gt;Node16</title>
<path fill="none" stroke="#63b8ff" d="M856.79,-335.03C869.72,-326.05 885.02,-315.2 898.5,-305 915.39,-292.23 917.13,-285.52 935.5,-275 966.58,-257.2 1004.43,-243.13 1034.07,-233.61"/>
<polygon fill="#63b8ff" stroke="#63b8ff" points="854.51,-332.36 848.27,-340.92 858.49,-338.12 854.51,-332.36"/>
</g>
<!-- Node18 -->
<g id="node18" class="node">
<title>Node18</title>
<g id="a_node18"><a xlink:href="_c_a_t___m1_8cpp.html" target="_top" xlink:title=" ">
<polygon fill="white" stroke="#666666" points="1075,-305 944,-305 944,-275 1075,-275 1075,-305"/>
<text text-anchor="start" x="952" y="-293" font-family="Helvetica,sans-Serif" font-size="10.00">firmware/wombat/lib</text>
<text text-anchor="middle" x="1009.5" y="-282" font-family="Helvetica,sans-Serif" font-size="10.00">/CatM1/src/CAT_M1.cpp</text>
</a>
</g>
</g>
<!-- Node1&#45;&gt;Node18 -->
<g id="edge21" class="edge">
<title>Node1&#45;&gt;Node18</title>
<path fill="none" stroke="#63b8ff" d="M877.01,-337.59C906.11,-327.36 942.41,-314.59 969.65,-305.01"/>
<polygon fill="#63b8ff" stroke="#63b8ff" points="875.71,-334.34 867.44,-340.95 878.04,-340.94 875.71,-334.34"/>
</g>
<!-- Node3 -->
<g id="node3" class="node">
<title>Node3</title>
<g id="a_node3"><a xlink:href="_c_l_i_8h.html" target="_top" xlink:title=" ">
<polygon fill="white" stroke="#666666" points="415,-233.5 274,-233.5 274,-203.5 415,-203.5 415,-233.5"/>
<text text-anchor="start" x="282" y="-221.5" font-family="Helvetica,sans-Serif" font-size="10.00">firmware/wombat/include</text>
<text text-anchor="middle" x="344.5" y="-210.5" font-family="Helvetica,sans-Serif" font-size="10.00">/cli/CLI.h</text>
</a>
</g>
</g>
<!-- Node2&#45;&gt;Node3 -->
<g id="edge2" class="edge">
<title>Node2&#45;&gt;Node3</title>
<path fill="none" stroke="#63b8ff" d="M454.16,-270.65C429.25,-259.03 397.52,-244.23 374.61,-233.54"/>
<polygon fill="#63b8ff" stroke="#63b8ff" points="452.81,-273.88 463.35,-274.94 455.76,-267.54 452.81,-273.88"/>
</g>
<!-- Node2&#45;&gt;Node12 -->
<g id="edge13" class="edge">
<title>Node2&#45;&gt;Node12</title>
<path fill="none" stroke="#63b8ff" d="M493.5,-264.91C493.5,-256.47 493.5,-247.1 493.5,-239.07"/>
<polygon fill="#63b8ff" stroke="#63b8ff" points="490,-264.94 493.5,-274.94 497,-264.94 490,-264.94"/>
</g>
<!-- Node4 -->
<g id="node4" class="node">
<title>Node4</title>
<g id="a_node4"><a xlink:href="server_8h.html" target="_top" xlink:title="Handle the setup and maintenance of the BLE server and connected clients.">
<polygon fill="white" stroke="#666666" points="290,-162 149,-162 149,-132 290,-132 290,-162"/>
<text text-anchor="start" x="157" y="-150" font-family="Helvetica,sans-Serif" font-size="10.00">firmware/wombat/include</text>
<text text-anchor="middle" x="219.5" y="-139" font-family="Helvetica,sans-Serif" font-size="10.00">/bluetooth/server.h</text>
</a>
</g>
</g>
<!-- Node3&#45;&gt;Node4 -->
<g id="edge3" class="edge">
<title>Node3&#45;&gt;Node4</title>
<path fill="none" stroke="#63b8ff" d="M310.39,-198.53C289.66,-187.01 263.64,-172.54 244.76,-162.04"/>
<polygon fill="#63b8ff" stroke="#63b8ff" points="308.76,-201.64 319.2,-203.44 312.17,-195.52 308.76,-201.64"/>
</g>
<!-- Node10 -->
<g id="node10" class="node">
<title>Node10</title>
<g id="a_node10"><a xlink:href="_c_l_i_8cpp.html" target="_top" xlink:title=" ">
<polygon fill="white" stroke="#666666" points="492.5,-162 372.5,-162 372.5,-132 492.5,-132 492.5,-162"/>
<text text-anchor="start" x="380.5" y="-150" font-family="Helvetica,sans-Serif" font-size="10.00">firmware/wombat/src</text>
<text text-anchor="middle" x="432.5" y="-139" font-family="Helvetica,sans-Serif" font-size="10.00">/cli/CLI.cpp</text>
</a>
</g>
</g>
<!-- Node3&#45;&gt;Node10 -->
<g id="edge11" class="edge">
<title>Node3&#45;&gt;Node10</title>
<path fill="none" stroke="#63b8ff" d="M370.3,-197.13C384.58,-185.85 401.96,-172.12 414.72,-162.04"/>
<polygon fill="#63b8ff" stroke="#63b8ff" points="367.99,-194.49 362.31,-203.44 372.33,-199.98 367.99,-194.49"/>
</g>
<!-- Node11 -->
<g id="node11" class="node">
<title>Node11</title>
<g id="a_node11"><a xlink:href="main_8cpp.html" target="_top" xlink:title=" ">
<polygon fill="white" stroke="#666666" points="636.5,-162 516.5,-162 516.5,-132 636.5,-132 636.5,-162"/>
<text text-anchor="start" x="524.5" y="-150" font-family="Helvetica,sans-Serif" font-size="10.00">firmware/wombat/src</text>
<text text-anchor="middle" x="576.5" y="-139" font-family="Helvetica,sans-Serif" font-size="10.00">/main.cpp</text>
</a>
</g>
</g>
<!-- Node3&#45;&gt;Node11 -->
<g id="edge12" class="edge">
<title>Node3&#45;&gt;Node11</title>
<path fill="none" stroke="#63b8ff" d="M401.19,-200.52C440.61,-188.71 492.53,-173.15 529.62,-162.04"/>
<polygon fill="#63b8ff" stroke="#63b8ff" points="400.02,-197.21 391.45,-203.44 402.03,-203.92 400.02,-197.21"/>
</g>
<!-- Node5 -->
<g id="node5" class="node">
<title>Node5</title>
<g id="a_node5"><a xlink:href="uart_8h.html" target="_top" xlink:title="BluetoothLE UART service setup and handling.">
<polygon fill="white" stroke="#666666" points="141,-96 0,-96 0,-66 141,-66 141,-96"/>
<text text-anchor="start" x="8" y="-84" font-family="Helvetica,sans-Serif" font-size="10.00">firmware/wombat/include</text>
<text text-anchor="middle" x="70.5" y="-73" font-family="Helvetica,sans-Serif" font-size="10.00">/bluetooth/uart.h</text>
</a>
</g>
</g>
<!-- Node4&#45;&gt;Node5 -->
<g id="edge4" class="edge">
<title>Node4&#45;&gt;Node5</title>
<path fill="none" stroke="#63b8ff" d="M171.58,-128.05C147.03,-117.91 118.1,-105.43 97.43,-96.01"/>
<polygon fill="#63b8ff" stroke="#63b8ff" points="170.52,-131.4 181.1,-131.95 173.18,-124.92 170.52,-131.4"/>
</g>
<!-- Node7 -->
<g id="node7" class="node">
<title>Node7</title>
<g id="a_node7"><a xlink:href="bluetooth_8h.html" target="_top" xlink:title=" ">
<polygon fill="white" stroke="#666666" points="445,-96 298,-96 298,-66 445,-66 445,-96"/>
<text text-anchor="start" x="306" y="-84" font-family="Helvetica,sans-Serif" font-size="10.00">firmware/wombat/include</text>
<text text-anchor="middle" x="371.5" y="-73" font-family="Helvetica,sans-Serif" font-size="10.00">/cli/peripherals/bluetooth.h</text>
</a>
</g>
</g>
<!-- Node4&#45;&gt;Node7 -->
<g id="edge7" class="edge">
<title>Node4&#45;&gt;Node7</title>
<path fill="none" stroke="#63b8ff" d="M262.12,-128.05C286.2,-117.91 315.86,-105.43 338.22,-96.01"/>
<polygon fill="#63b8ff" stroke="#63b8ff" points="260.72,-124.85 252.86,-131.95 263.43,-131.3 260.72,-124.85"/>
</g>
<!-- Node9 -->
<g id="node9" class="node">
<title>Node9</title>
<g id="a_node9"><a xlink:href="server_8cpp.html" target="_top" xlink:title="Setup and start BluetoothLE server.">
<polygon fill="white" stroke="#666666" points="279.5,-96 159.5,-96 159.5,-66 279.5,-66 279.5,-96"/>
<text text-anchor="start" x="167.5" y="-84" font-family="Helvetica,sans-Serif" font-size="10.00">firmware/wombat/src</text>
<text text-anchor="middle" x="219.5" y="-73" font-family="Helvetica,sans-Serif" font-size="10.00">/bluetooth/server.cpp</text>
</a>
</g>
</g>
<!-- Node4&#45;&gt;Node9 -->
<g id="edge10" class="edge">
<title>Node4&#45;&gt;Node9</title>
<path fill="none" stroke="#63b8ff" d="M219.5,-121.54C219.5,-112.96 219.5,-103.61 219.5,-96.16"/>
<polygon fill="#63b8ff" stroke="#63b8ff" points="216,-121.8 219.5,-131.8 223,-121.8 216,-121.8"/>
</g>
<!-- Node5&#45;&gt;Node4 -->
<g id="edge5" class="edge">
<title>Node5&#45;&gt;Node4</title>
<path fill="none" stroke="#63b8ff" d="M118.33,-99.91C142.87,-110.04 171.81,-122.53 192.5,-131.95"/>
<polygon fill="#63b8ff" stroke="#63b8ff" points="119.4,-96.57 108.82,-96.01 116.74,-103.04 119.4,-96.57"/>
</g>
<!-- Node6 -->
<g id="node6" class="node">
<title>Node6</title>
<g id="a_node6"><a xlink:href="uart_8cpp.html" target="_top" xlink:title="BluetoothLE UART service setup and handling.">
<polygon fill="white" stroke="#666666" points="130.5,-30 10.5,-30 10.5,0 130.5,0 130.5,-30"/>
<text text-anchor="start" x="18.5" y="-18" font-family="Helvetica,sans-Serif" font-size="10.00">firmware/wombat/src</text>
<text text-anchor="middle" x="70.5" y="-7" font-family="Helvetica,sans-Serif" font-size="10.00">/bluetooth/uart.cpp</text>
</a>
</g>
</g>
<!-- Node5&#45;&gt;Node6 -->
<g id="edge6" class="edge">
<title>Node5&#45;&gt;Node6</title>
<path fill="none" stroke="#63b8ff" d="M70.5,-55.54C70.5,-46.96 70.5,-37.61 70.5,-30.16"/>
<polygon fill="#63b8ff" stroke="#63b8ff" points="67,-55.8 70.5,-65.8 74,-55.8 67,-55.8"/>
</g>
<!-- Node7&#45;&gt;Node3 -->
<g id="edge8" class="edge">
<title>Node7&#45;&gt;Node3</title>
<path fill="none" stroke="#63b8ff" d="M366.74,-105.91C361.11,-134.13 351.95,-180.12 347.34,-203.26"/>
<polygon fill="#63b8ff" stroke="#63b8ff" points="370.18,-106.55 368.7,-96.05 363.31,-105.18 370.18,-106.55"/>
</g>
<!-- Node8 -->
<g id="node8" class="node">
<title>Node8</title>
<g id="a_node8"><a xlink:href="bluetooth_8cpp.html" target="_top" xlink:title=" ">
<polygon fill="white" stroke="#666666" points="450.5,-30 292.5,-30 292.5,0 450.5,0 450.5,-30"/>
<text text-anchor="start" x="300.5" y="-18" font-family="Helvetica,sans-Serif" font-size="10.00">firmware/wombat/src</text>
<text text-anchor="middle" x="371.5" y="-7" font-family="Helvetica,sans-Serif" font-size="10.00">/cli/peripherals/bluetooth.cpp</text>
</a>
</g>
</g>
<!-- Node7&#45;&gt;Node8 -->
<g id="edge9" class="edge">
<title>Node7&#45;&gt;Node8</title>
<path fill="none" stroke="#63b8ff" d="M371.5,-55.54C371.5,-46.96 371.5,-37.61 371.5,-30.16"/>
<polygon fill="#63b8ff" stroke="#63b8ff" points="368,-55.8 371.5,-65.8 375,-55.8 368,-55.8"/>
</g>
<!-- Node13&#45;&gt;Node11 -->
<g id="edge18" class="edge">
<title>Node13&#45;&gt;Node11</title>
<path fill="none" stroke="#63b8ff" d="M698.04,-274.49C657.78,-265.68 614.64,-253.37 600.5,-239 579.99,-218.16 576.43,-181.97 576.14,-162.09"/>
<polygon fill="#63b8ff" stroke="#63b8ff" points="697.42,-277.93 707.93,-276.6 698.87,-271.09 697.42,-277.93"/>
</g>
<!-- Node13&#45;&gt;Node12 -->
<g id="edge17" class="edge">
<title>Node13&#45;&gt;Node12</title>
<path fill="none" stroke="#63b8ff" d="M707.57,-272.66C666.57,-263.1 614.06,-250.65 567.5,-239 562.99,-237.87 558.33,-236.69 553.64,-235.48"/>
<polygon fill="#63b8ff" stroke="#63b8ff" points="706.93,-276.1 717.46,-274.96 708.52,-269.28 706.93,-276.1"/>
</g>
<!-- Node14 -->
<g id="node14" class="node">
<title>Node14</title>
<g id="a_node14"><a xlink:href="_sensor_task_8cpp.html" target="_top" xlink:title=" ">
<polygon fill="white" stroke="#666666" points="729.5,-233.5 609.5,-233.5 609.5,-203.5 729.5,-203.5 729.5,-233.5"/>
<text text-anchor="start" x="617.5" y="-221.5" font-family="Helvetica,sans-Serif" font-size="10.00">firmware/wombat/src</text>
<text text-anchor="middle" x="669.5" y="-210.5" font-family="Helvetica,sans-Serif" font-size="10.00">/SensorTask.cpp</text>
</a>
</g>
</g>
<!-- Node13&#45;&gt;Node14 -->
<g id="edge15" class="edge">
<title>Node13&#45;&gt;Node14</title>
<path fill="none" stroke="#63b8ff" d="M747.53,-269.25C729.67,-257.86 707.62,-243.81 691.52,-233.54"/>
<polygon fill="#63b8ff" stroke="#63b8ff" points="746.13,-272.51 756.44,-274.94 749.89,-266.61 746.13,-272.51"/>
</g>
<!-- Node13&#45;&gt;Node15 -->
<g id="edge16" class="edge">
<title>Node13&#45;&gt;Node15</title>
<path fill="none" stroke="#63b8ff" d="M821.85,-270.96C849.89,-259.29 885.85,-244.32 911.76,-233.54"/>
<polygon fill="#63b8ff" stroke="#63b8ff" points="820.18,-267.86 812.29,-274.94 822.87,-274.32 820.18,-267.86"/>
</g>
<!-- Node13&#45;&gt;Node16 -->
<g id="edge19" class="edge">
<title>Node13&#45;&gt;Node16</title>
<path fill="none" stroke="#63b8ff" d="M858.87,-273.36C904.65,-264.1 962.98,-251.72 1014.5,-239 1021.27,-237.33 1028.38,-235.46 1035.35,-233.55"/>
<polygon fill="#63b8ff" stroke="#63b8ff" points="858.11,-269.94 849,-275.34 859.49,-276.8 858.11,-269.94"/>
</g>
<!-- Node17 -->
<g id="node17" class="node">
<title>Node17</title>
<g id="a_node17"><a xlink:href="uplinks_8cpp.html" target="_top" xlink:title=" ">
<polygon fill="white" stroke="#666666" points="867.5,-233.5 747.5,-233.5 747.5,-203.5 867.5,-203.5 867.5,-233.5"/>
<text text-anchor="start" x="755.5" y="-221.5" font-family="Helvetica,sans-Serif" font-size="10.00">firmware/wombat/src</text>
<text text-anchor="middle" x="807.5" y="-210.5" font-family="Helvetica,sans-Serif" font-size="10.00">/uplinks.cpp</text>
</a>
</g>
</g>
<!-- Node13&#45;&gt;Node17 -->
<g id="edge20" class="edge">
<title>Node13&#45;&gt;Node17</title>
<path fill="none" stroke="#63b8ff" d="M788.35,-265.4C792.76,-254.81 797.83,-242.68 801.64,-233.54"/>
<polygon fill="#63b8ff" stroke="#63b8ff" points="784.99,-264.36 784.37,-274.94 791.45,-267.05 784.99,-264.36"/>
</g>
</g>
</svg>
