<?xml version="1.0" encoding="UTF-8" standalone="no"?>
<!DOCTYPE svg PUBLIC "-//W3C//DTD SVG 1.1//EN"
 "http://www.w3.org/Graphics/SVG/1.1/DTD/svg11.dtd">
<!-- Generated by graphviz version 2.43.0 (0)
 -->
<!-- Title: firmware/wombat/lib/CatM1/include/CAT_M1.h Pages: 1 -->
<svg width="1016pt" height="379pt"
 viewBox="0.00 0.00 1016.00 379.00" xmlns="http://www.w3.org/2000/svg" xmlns:xlink="http://www.w3.org/1999/xlink">
<g id="graph0" class="graph" transform="scale(1 1) rotate(0) translate(4 375)">
<title>firmware/wombat/lib/CatM1/include/CAT_M1.h</title>
<!-- Node1 -->
<g id="node1" class="node">
<title>Node1</title>
<g id="a_node1"><a xlink:title=" ">
<polygon fill="#999999" stroke="#666666" points="762,-371 622,-371 622,-341 762,-341 762,-371"/>
<text text-anchor="start" x="630" y="-359" font-family="Helvetica,sans-Serif" font-size="10.00">firmware/wombat/lib</text>
<text text-anchor="middle" x="692" y="-348" font-family="Helvetica,sans-Serif" font-size="10.00">/CatM1/include/CAT_M1.h</text>
</a>
</g>
</g>
<!-- Node2 -->
<g id="node2" class="node">
<title>Node2</title>
<g id="a_node2"><a xlink:href="cat-m1_8h.html" target="_top" xlink:title="CAT&#45;M1 CLI command request and response handler.">
<polygon fill="white" stroke="#666666" points="428.5,-305 287.5,-305 287.5,-275 428.5,-275 428.5,-305"/>
<text text-anchor="start" x="295.5" y="-293" font-family="Helvetica,sans-Serif" font-size="10.00">firmware/wombat/include</text>
<text text-anchor="middle" x="358" y="-282" font-family="Helvetica,sans-Serif" font-size="10.00">/cli/peripherals/cat&#45;m1.h</text>
</a>
</g>
</g>
<!-- Node1&#45;&gt;Node2 -->
<g id="edge1" class="edge">
<title>Node1&#45;&gt;Node2</title>
<path fill="none" stroke="#63b8ff" d="M612.13,-339.7C556.33,-329 482.49,-314.85 428.79,-304.56"/>
<polygon fill="#63b8ff" stroke="#63b8ff" points="611.5,-343.14 621.98,-341.58 612.82,-336.26 611.5,-343.14"/>
</g>
<!-- Node10 -->
<g id="node10" class="node">
<title>Node10</title>
<g id="a_node10"><a xlink:href="cat-m1_8cpp.html" target="_top" xlink:title="CAT&#45;M1 CLI command request and response handler.">
<polygon fill="white" stroke="#666666" points="418,-239 298,-239 298,-198 418,-198 418,-239"/>
<text text-anchor="start" x="306" y="-227" font-family="Helvetica,sans-Serif" font-size="10.00">firmware/wombat/src</text>
<text text-anchor="start" x="306" y="-216" font-family="Helvetica,sans-Serif" font-size="10.00">/cli/peripherals/cat</text>
<text text-anchor="middle" x="358" y="-205" font-family="Helvetica,sans-Serif" font-size="10.00">&#45;m1.cpp</text>
</a>
</g>
</g>
<!-- Node1&#45;&gt;Node10 -->
<g id="edge21" class="edge">
<title>Node1&#45;&gt;Node10</title>
<path fill="none" stroke="#63b8ff" d="M645.48,-337.29C620.89,-327.86 590.25,-315.96 563,-305 508.08,-282.91 445.32,-256.57 403.86,-239.02"/>
<polygon fill="#63b8ff" stroke="#63b8ff" points="644.33,-340.61 654.92,-340.92 646.84,-334.07 644.33,-340.61"/>
</g>
<!-- Node11 -->
<g id="node11" class="node">
<title>Node11</title>
<g id="a_node11"><a xlink:href="globals_8h.html" target="_top" xlink:title=" ">
<polygon fill="white" stroke="#666666" points="713.5,-305 572.5,-305 572.5,-275 713.5,-275 713.5,-305"/>
<text text-anchor="start" x="580.5" y="-293" font-family="Helvetica,sans-Serif" font-size="10.00">firmware/wombat/include</text>
<text text-anchor="middle" x="643" y="-282" font-family="Helvetica,sans-Serif" font-size="10.00">/globals.h</text>
</a>
</g>
</g>
<!-- Node1&#45;&gt;Node11 -->
<g id="edge12" class="edge">
<title>Node1&#45;&gt;Node11</title>
<path fill="none" stroke="#63b8ff" d="M675.01,-332.81C667.99,-323.64 660.06,-313.28 653.84,-305.16"/>
<polygon fill="#63b8ff" stroke="#63b8ff" points="672.27,-334.98 681.13,-340.8 677.83,-330.73 672.27,-334.98"/>
</g>
<!-- Node13 -->
<g id="node13" class="node">
<title>Node13</title>
<g id="a_node13"><a xlink:href="_utils_8cpp.html" target="_top" xlink:title=" ">
<polygon fill="white" stroke="#666666" points="870,-233.5 750,-233.5 750,-203.5 870,-203.5 870,-233.5"/>
<text text-anchor="start" x="758" y="-221.5" font-family="Helvetica,sans-Serif" font-size="10.00">firmware/wombat/src</text>
<text text-anchor="middle" x="810" y="-210.5" font-family="Helvetica,sans-Serif" font-size="10.00">/Utils.cpp</text>
</a>
</g>
</g>
<!-- Node1&#45;&gt;Node13 -->
<g id="edge20" class="edge">
<title>Node1&#45;&gt;Node13</title>
<path fill="none" stroke="#63b8ff" d="M711.11,-333.06C735.55,-304.99 777.19,-257.17 797.76,-233.55"/>
<polygon fill="#63b8ff" stroke="#63b8ff" points="708.33,-330.92 704.41,-340.76 713.61,-335.51 708.33,-330.92"/>
</g>
<!-- Node14 -->
<g id="node14" class="node">
<title>Node14</title>
<g id="a_node14"><a xlink:href="mqtt__stack_8cpp.html" target="_top" xlink:title=" ">
<polygon fill="white" stroke="#666666" points="1008,-233.5 888,-233.5 888,-203.5 1008,-203.5 1008,-233.5"/>
<text text-anchor="start" x="896" y="-221.5" font-family="Helvetica,sans-Serif" font-size="10.00">firmware/wombat/src</text>
<text text-anchor="middle" x="948" y="-210.5" font-family="Helvetica,sans-Serif" font-size="10.00">/mqtt_stack.cpp</text>
</a>
</g>
</g>
<!-- Node1&#45;&gt;Node14 -->
<g id="edge22" class="edge">
<title>Node1&#45;&gt;Node14</title>
<path fill="none" stroke="#63b8ff" d="M721.29,-335.03C734.22,-326.05 749.52,-315.2 763,-305 779.89,-292.23 781.63,-285.52 800,-275 831.08,-257.2 868.93,-243.13 898.57,-233.61"/>
<polygon fill="#63b8ff" stroke="#63b8ff" points="719.01,-332.36 712.77,-340.92 722.99,-338.12 719.01,-332.36"/>
</g>
<!-- Node16 -->
<g id="node16" class="node">
<title>Node16</title>
<g id="a_node16"><a xlink:href="_c_a_t___m1_8cpp.html" target="_top" xlink:title=" ">
<polygon fill="white" stroke="#666666" points="939.5,-305 808.5,-305 808.5,-275 939.5,-275 939.5,-305"/>
<text text-anchor="start" x="816.5" y="-293" font-family="Helvetica,sans-Serif" font-size="10.00">firmware/wombat/lib</text>
<text text-anchor="middle" x="874" y="-282" font-family="Helvetica,sans-Serif" font-size="10.00">/CatM1/src/CAT_M1.cpp</text>
</a>
</g>
</g>
<!-- Node1&#45;&gt;Node16 -->
<g id="edge19" class="edge">
<title>Node1&#45;&gt;Node16</title>
<path fill="none" stroke="#63b8ff" d="M741.51,-337.59C770.61,-327.36 806.91,-314.59 834.15,-305.01"/>
<polygon fill="#63b8ff" stroke="#63b8ff" points="740.21,-334.34 731.94,-340.95 742.54,-340.94 740.21,-334.34"/>
</g>
<!-- Node3 -->
<g id="node3" class="node">
<title>Node3</title>
<g id="a_node3"><a xlink:href="_c_l_i_8h.html" target="_top" xlink:title="FreeRTOS CLI handler.">
<polygon fill="white" stroke="#666666" points="279.5,-233.5 138.5,-233.5 138.5,-203.5 279.5,-203.5 279.5,-233.5"/>
<text text-anchor="start" x="146.5" y="-221.5" font-family="Helvetica,sans-Serif" font-size="10.00">firmware/wombat/include</text>
<text text-anchor="middle" x="209" y="-210.5" font-family="Helvetica,sans-Serif" font-size="10.00">/cli/CLI.h</text>
</a>
</g>
</g>
<!-- Node2&#45;&gt;Node3 -->
<g id="edge2" class="edge">
<title>Node2&#45;&gt;Node3</title>
<path fill="none" stroke="#63b8ff" d="M318.66,-270.65C293.75,-259.03 262.02,-244.23 239.11,-233.54"/>
<polygon fill="#63b8ff" stroke="#63b8ff" points="317.31,-273.88 327.85,-274.94 320.26,-267.54 317.31,-273.88"/>
</g>
<!-- Node2&#45;&gt;Node10 -->
<g id="edge11" class="edge">
<title>Node2&#45;&gt;Node10</title>
<path fill="none" stroke="#63b8ff" d="M358,-264.91C358,-256.47 358,-247.1 358,-239.07"/>
<polygon fill="#63b8ff" stroke="#63b8ff" points="354.5,-264.94 358,-274.94 361.5,-264.94 354.5,-264.94"/>
</g>
<!-- Node4 -->
<g id="node4" class="node">
<title>Node4</title>
<g id="a_node4"><a xlink:href="server_8h.html" target="_top" xlink:title="Handle the setup and maintenance of the BLE server and connected clients.">
<polygon fill="white" stroke="#666666" points="279.5,-162 138.5,-162 138.5,-132 279.5,-132 279.5,-162"/>
<text text-anchor="start" x="146.5" y="-150" font-family="Helvetica,sans-Serif" font-size="10.00">firmware/wombat/include</text>
<text text-anchor="middle" x="209" y="-139" font-family="Helvetica,sans-Serif" font-size="10.00">/bluetooth/server.h</text>
</a>
</g>
</g>
<!-- Node3&#45;&gt;Node4 -->
<g id="edge3" class="edge">
<title>Node3&#45;&gt;Node4</title>
<path fill="none" stroke="#63b8ff" d="M202.53,-193.25C201.96,-182.81 202.26,-170.99 203.45,-162.04"/>
<polygon fill="#63b8ff" stroke="#63b8ff" points="199.07,-193.79 203.45,-203.44 206.04,-193.16 199.07,-193.79"/>
</g>
<!-- Node8 -->
<g id="node8" class="node">
<title>Node8</title>
<g id="a_node8"><a xlink:href="_c_l_i_8cpp.html" target="_top" xlink:title="FreeRTOS CLI handler.">
<polygon fill="white" stroke="#666666" points="120,-162 0,-162 0,-132 120,-132 120,-162"/>
<text text-anchor="start" x="8" y="-150" font-family="Helvetica,sans-Serif" font-size="10.00">firmware/wombat/src</text>
<text text-anchor="middle" x="60" y="-139" font-family="Helvetica,sans-Serif" font-size="10.00">/cli/CLI.cpp</text>
</a>
</g>
</g>
<!-- Node3&#45;&gt;Node8 -->
<g id="edge9" class="edge">
<title>Node3&#45;&gt;Node8</title>
<path fill="none" stroke="#63b8ff" d="M169.66,-199.15C144.75,-187.53 113.02,-172.73 90.11,-162.04"/>
<polygon fill="#63b8ff" stroke="#63b8ff" points="168.31,-202.38 178.85,-203.44 171.26,-196.04 168.31,-202.38"/>
</g>
<!-- Node9 -->
<g id="node9" class="node">
<title>Node9</title>
<g id="a_node9"><a xlink:href="main_8cpp.html" target="_top" xlink:title=" ">
<polygon fill="white" stroke="#666666" points="462,-162 342,-162 342,-132 462,-132 462,-162"/>
<text text-anchor="start" x="350" y="-150" font-family="Helvetica,sans-Serif" font-size="10.00">firmware/wombat/src</text>
<text text-anchor="middle" x="402" y="-139" font-family="Helvetica,sans-Serif" font-size="10.00">/main.cpp</text>
</a>
</g>
</g>
<!-- Node3&#45;&gt;Node9 -->
<g id="edge10" class="edge">
<title>Node3&#45;&gt;Node9</title>
<path fill="none" stroke="#63b8ff" d="M257.83,-199.92C290.41,-188.18 332.67,-172.97 363,-162.04"/>
<polygon fill="#63b8ff" stroke="#63b8ff" points="256.28,-196.75 248.06,-203.44 258.65,-203.34 256.28,-196.75"/>
</g>
<!-- Node4&#45;&gt;Node3 -->
<g id="edge7" class="edge">
<title>Node4&#45;&gt;Node3</title>
<path fill="none" stroke="#63b8ff" d="M215.47,-172.23C216.04,-182.66 215.74,-194.49 214.55,-203.44"/>
<polygon fill="#63b8ff" stroke="#63b8ff" points="218.93,-171.69 214.55,-162.04 211.96,-172.32 218.93,-171.69"/>
</g>
<!-- Node5 -->
<g id="node5" class="node">
<title>Node5</title>
<g id="a_node5"><a xlink:href="uart_8h.html" target="_top" xlink:title="BluetoothLE UART service setup and handling.">
<polygon fill="white" stroke="#666666" points="279.5,-96 138.5,-96 138.5,-66 279.5,-66 279.5,-96"/>
<text text-anchor="start" x="146.5" y="-84" font-family="Helvetica,sans-Serif" font-size="10.00">firmware/wombat/include</text>
<text text-anchor="middle" x="209" y="-73" font-family="Helvetica,sans-Serif" font-size="10.00">/bluetooth/uart.h</text>
</a>
</g>
</g>
<!-- Node4&#45;&gt;Node5 -->
<g id="edge4" class="edge">
<title>Node4&#45;&gt;Node5</title>
<path fill="none" stroke="#63b8ff" d="M202.43,-121.83C202.02,-113.17 202.31,-103.7 203.29,-96.16"/>
<polygon fill="#63b8ff" stroke="#63b8ff" points="198.95,-122.13 203.28,-131.8 205.92,-121.54 198.95,-122.13"/>
</g>
<!-- Node7 -->
<g id="node7" class="node">
<title>Node7</title>
<g id="a_node7"><a xlink:href="server_8cpp.html" target="_top" xlink:title="Setup and start BluetoothLE server.">
<polygon fill="white" stroke="#666666" points="418,-96 298,-96 298,-66 418,-66 418,-96"/>
<text text-anchor="start" x="306" y="-84" font-family="Helvetica,sans-Serif" font-size="10.00">firmware/wombat/src</text>
<text text-anchor="middle" x="358" y="-73" font-family="Helvetica,sans-Serif" font-size="10.00">/bluetooth/server.cpp</text>
</a>
</g>
</g>
<!-- Node4&#45;&gt;Node7 -->
<g id="edge8" class="edge">
<title>Node4&#45;&gt;Node7</title>
<path fill="none" stroke="#63b8ff" d="M251.09,-127.92C274.64,-117.8 303.56,-105.38 325.38,-96.01"/>
<polygon fill="#63b8ff" stroke="#63b8ff" points="249.51,-124.79 241.7,-131.95 252.27,-131.22 249.51,-124.79"/>
</g>
<!-- Node5&#45;&gt;Node4 -->
<g id="edge5" class="edge">
<title>Node5&#45;&gt;Node4</title>
<path fill="none" stroke="#63b8ff" d="M215.57,-106.13C215.98,-114.78 215.7,-124.26 214.72,-131.8"/>
<polygon fill="#63b8ff" stroke="#63b8ff" points="219.05,-105.83 214.71,-96.16 212.08,-106.43 219.05,-105.83"/>
</g>
<!-- Node6 -->
<g id="node6" class="node">
<title>Node6</title>
<g id="a_node6"><a xlink:href="uart_8cpp.html" target="_top" xlink:title="BluetoothLE UART service setup and handling.">
<polygon fill="white" stroke="#666666" points="269,-30 149,-30 149,0 269,0 269,-30"/>
<text text-anchor="start" x="157" y="-18" font-family="Helvetica,sans-Serif" font-size="10.00">firmware/wombat/src</text>
<text text-anchor="middle" x="209" y="-7" font-family="Helvetica,sans-Serif" font-size="10.00">/bluetooth/uart.cpp</text>
</a>
</g>
</g>
<!-- Node5&#45;&gt;Node6 -->
<g id="edge6" class="edge">
<title>Node5&#45;&gt;Node6</title>
<path fill="none" stroke="#63b8ff" d="M209,-55.54C209,-46.96 209,-37.61 209,-30.16"/>
<polygon fill="#63b8ff" stroke="#63b8ff" points="205.5,-55.8 209,-65.8 212.5,-55.8 205.5,-55.8"/>
</g>
<!-- Node11&#45;&gt;Node9 -->
<g id="edge16" class="edge">
<title>Node11&#45;&gt;Node9</title>
<path fill="none" stroke="#63b8ff" d="M562.28,-278.52C529.82,-271.34 493.42,-259.27 465,-239 437,-219.03 417.35,-182.49 408.07,-162.33"/>
<polygon fill="#63b8ff" stroke="#63b8ff" points="561.71,-281.98 572.22,-280.6 563.15,-275.13 561.71,-281.98"/>
</g>
<!-- Node11&#45;&gt;Node10 -->
<g id="edge15" class="edge">
<title>Node11&#45;&gt;Node10</title>
<path fill="none" stroke="#63b8ff" d="M572.07,-272.66C531.07,-263.1 478.56,-250.65 432,-239 427.49,-237.87 422.83,-236.69 418.14,-235.48"/>
<polygon fill="#63b8ff" stroke="#63b8ff" points="571.43,-276.1 581.96,-274.96 573.02,-269.28 571.43,-276.1"/>
</g>
<!-- Node12 -->
<g id="node12" class="node">
<title>Node12</title>
<g id="a_node12"><a xlink:href="_sensor_task_8cpp.html" target="_top" xlink:title=" ">
<polygon fill="white" stroke="#666666" points="594,-233.5 474,-233.5 474,-203.5 594,-203.5 594,-233.5"/>
<text text-anchor="start" x="482" y="-221.5" font-family="Helvetica,sans-Serif" font-size="10.00">firmware/wombat/src</text>
<text text-anchor="middle" x="534" y="-210.5" font-family="Helvetica,sans-Serif" font-size="10.00">/SensorTask.cpp</text>
</a>
</g>
</g>
<!-- Node11&#45;&gt;Node12 -->
<g id="edge13" class="edge">
<title>Node11&#45;&gt;Node12</title>
<path fill="none" stroke="#63b8ff" d="M612.03,-269.25C594.17,-257.86 572.12,-243.81 556.02,-233.54"/>
<polygon fill="#63b8ff" stroke="#63b8ff" points="610.63,-272.51 620.94,-274.94 614.39,-266.61 610.63,-272.51"/>
</g>
<!-- Node11&#45;&gt;Node13 -->
<g id="edge14" class="edge">
<title>Node11&#45;&gt;Node13</title>
<path fill="none" stroke="#63b8ff" d="M686.35,-270.96C714.39,-259.29 750.35,-244.32 776.26,-233.54"/>
<polygon fill="#63b8ff" stroke="#63b8ff" points="684.68,-267.86 676.79,-274.94 687.37,-274.32 684.68,-267.86"/>
</g>
<!-- Node11&#45;&gt;Node14 -->
<g id="edge17" class="edge">
<title>Node11&#45;&gt;Node14</title>
<path fill="none" stroke="#63b8ff" d="M723.37,-273.36C769.15,-264.1 827.48,-251.72 879,-239 885.77,-237.33 892.88,-235.46 899.85,-233.55"/>
<polygon fill="#63b8ff" stroke="#63b8ff" points="722.61,-269.94 713.5,-275.34 723.99,-276.8 722.61,-269.94"/>
</g>
<!-- Node15 -->
<g id="node15" class="node">
<title>Node15</title>
<g id="a_node15"><a xlink:href="uplinks_8cpp.html" target="_top" xlink:title=" ">
<polygon fill="white" stroke="#666666" points="732,-233.5 612,-233.5 612,-203.5 732,-203.5 732,-233.5"/>
<text text-anchor="start" x="620" y="-221.5" font-family="Helvetica,sans-Serif" font-size="10.00">firmware/wombat/src</text>
<text text-anchor="middle" x="672" y="-210.5" font-family="Helvetica,sans-Serif" font-size="10.00">/uplinks.cpp</text>
</a>
</g>
</g>
<!-- Node11&#45;&gt;Node15 -->
<g id="edge18" class="edge">
<title>Node11&#45;&gt;Node15</title>
<path fill="none" stroke="#63b8ff" d="M652.85,-265.4C657.26,-254.81 662.33,-242.68 666.14,-233.54"/>
<polygon fill="#63b8ff" stroke="#63b8ff" points="649.49,-264.36 648.87,-274.94 655.95,-267.05 649.49,-264.36"/>
</g>
</g>
</svg>
