<?xml version="1.0" encoding="UTF-8" standalone="no"?>
<!DOCTYPE svg PUBLIC "-//W3C//DTD SVG 1.1//EN"
 "http://www.w3.org/Graphics/SVG/1.1/DTD/svg11.dtd">
<!-- Generated by graphviz version 2.43.0 (0)
 -->
<!-- Title: firmware/wombat/include/CAT_M1.h Pages: 1 -->
<svg width="2038pt" height="401pt"
 viewBox="0.00 0.00 2037.50 401.00" xmlns="http://www.w3.org/2000/svg" xmlns:xlink="http://www.w3.org/1999/xlink">
<g id="graph0" class="graph" transform="scale(1 1) rotate(0) translate(4 397)">
<title>firmware/wombat/include/CAT_M1.h</title>
<!-- Node1 -->
<g id="node1" class="node">
<title>Node1</title>
<g id="a_node1"><a xlink:title=" ">
<polygon fill="#999999" stroke="#666666" points="885.5,-393 744.5,-393 744.5,-363 885.5,-363 885.5,-393"/>
<text text-anchor="start" x="752.5" y="-381" font-family="Helvetica,sans-Serif" font-size="10.00">firmware/wombat/include</text>
<text text-anchor="middle" x="815" y="-370" font-family="Helvetica,sans-Serif" font-size="10.00">/CAT_M1.h</text>
</a>
</g>
</g>
<!-- Node2 -->
<g id="node2" class="node">
<title>Node2</title>
<g id="a_node2"><a xlink:href="cat-m1_8h.html" target="_top" xlink:title="CAT&#45;M1 CLI command request and response handler.">
<polygon fill="white" stroke="#666666" points="260.5,-321.5 119.5,-321.5 119.5,-291.5 260.5,-291.5 260.5,-321.5"/>
<text text-anchor="start" x="127.5" y="-309.5" font-family="Helvetica,sans-Serif" font-size="10.00">firmware/wombat/include</text>
<text text-anchor="middle" x="190" y="-298.5" font-family="Helvetica,sans-Serif" font-size="10.00">/cli/peripherals/cat&#45;m1.h</text>
</a>
</g>
</g>
<!-- Node1&#45;&gt;Node2 -->
<g id="edge1" class="edge">
<title>Node1&#45;&gt;Node2</title>
<path fill="none" stroke="#63b8ff" d="M734.4,-373.33C627.62,-367.62 433.65,-354.3 270,-327 261.12,-325.52 251.76,-323.58 242.7,-321.51"/>
<polygon fill="#63b8ff" stroke="#63b8ff" points="734.29,-376.83 744.46,-373.86 734.66,-369.84 734.29,-376.83"/>
</g>
<!-- Node9 -->
<g id="node9" class="node">
<title>Node9</title>
<g id="a_node9"><a xlink:href="cat-m1_8cpp.html" target="_top" xlink:title="CAT&#45;M1 CLI command request and response handler.">
<polygon fill="white" stroke="#666666" points="120,-173 0,-173 0,-132 120,-132 120,-173"/>
<text text-anchor="start" x="8" y="-161" font-family="Helvetica,sans-Serif" font-size="10.00">firmware/wombat/src</text>
<text text-anchor="start" x="8" y="-150" font-family="Helvetica,sans-Serif" font-size="10.00">/cli/peripherals/cat</text>
<text text-anchor="middle" x="60" y="-139" font-family="Helvetica,sans-Serif" font-size="10.00">&#45;m1.cpp</text>
</a>
</g>
</g>
<!-- Node1&#45;&gt;Node9 -->
<g id="edge36" class="edge">
<title>Node1&#45;&gt;Node9</title>
<path fill="none" stroke="#63b8ff" d="M734.25,-376.28C559.53,-374.01 158.21,-364.71 110,-327 62.35,-289.72 58.13,-210.04 58.94,-173.08"/>
<polygon fill="#63b8ff" stroke="#63b8ff" points="734.37,-379.78 744.41,-376.41 734.46,-372.78 734.37,-379.78"/>
</g>
<!-- Node13 -->
<g id="node13" class="node">
<title>Node13</title>
<g id="a_node13"><a xlink:href="mqtt__stack_8cpp.html" target="_top" xlink:title=" ">
<polygon fill="white" stroke="#666666" points="1476,-167.5 1356,-167.5 1356,-137.5 1476,-137.5 1476,-167.5"/>
<text text-anchor="start" x="1364" y="-155.5" font-family="Helvetica,sans-Serif" font-size="10.00">firmware/wombat/src</text>
<text text-anchor="middle" x="1416" y="-144.5" font-family="Helvetica,sans-Serif" font-size="10.00">/mqtt_stack.cpp</text>
</a>
</g>
</g>
<!-- Node1&#45;&gt;Node13 -->
<g id="edge37" class="edge">
<title>Node1&#45;&gt;Node13</title>
<path fill="none" stroke="#63b8ff" d="M895.59,-373.29C1128.15,-361.77 1787.76,-322.86 1849,-250 1860.72,-236.05 1861.04,-222.68 1849,-209 1824.75,-181.44 1589.18,-163.81 1476.05,-156.86"/>
<polygon fill="#63b8ff" stroke="#63b8ff" points="895.32,-369.8 885.5,-373.79 895.66,-376.8 895.32,-369.8"/>
</g>
<!-- Node14 -->
<g id="node14" class="node">
<title>Node14</title>
<g id="a_node14"><a xlink:href="cli__power_8h.html" target="_top" xlink:title=" ">
<polygon fill="white" stroke="#666666" points="425,-321.5 279,-321.5 279,-291.5 425,-291.5 425,-321.5"/>
<text text-anchor="start" x="287" y="-309.5" font-family="Helvetica,sans-Serif" font-size="10.00">firmware/wombat/include</text>
<text text-anchor="middle" x="352" y="-298.5" font-family="Helvetica,sans-Serif" font-size="10.00">/cli/peripherals/cli_power.h</text>
</a>
</g>
</g>
<!-- Node1&#45;&gt;Node14 -->
<g id="edge15" class="edge">
<title>Node1&#45;&gt;Node14</title>
<path fill="none" stroke="#63b8ff" d="M734.31,-364.89C647.11,-351.8 509.36,-331.12 425.19,-318.49"/>
<polygon fill="#63b8ff" stroke="#63b8ff" points="734.02,-368.38 744.43,-366.41 735.06,-361.46 734.02,-368.38"/>
</g>
<!-- Node16 -->
<g id="node16" class="node">
<title>Node16</title>
<g id="a_node16"><a xlink:href="globals_8h.html" target="_top" xlink:title=" ">
<polygon fill="white" stroke="#666666" points="996.5,-321.5 855.5,-321.5 855.5,-291.5 996.5,-291.5 996.5,-321.5"/>
<text text-anchor="start" x="863.5" y="-309.5" font-family="Helvetica,sans-Serif" font-size="10.00">firmware/wombat/include</text>
<text text-anchor="middle" x="926" y="-298.5" font-family="Helvetica,sans-Serif" font-size="10.00">/globals.h</text>
</a>
</g>
</g>
<!-- Node1&#45;&gt;Node16 -->
<g id="edge18" class="edge">
<title>Node1&#45;&gt;Node16</title>
<path fill="none" stroke="#63b8ff" d="M846.04,-357.57C864.32,-346.12 887.03,-331.9 903.57,-321.54"/>
<polygon fill="#63b8ff" stroke="#63b8ff" points="844.08,-354.66 837.46,-362.94 847.8,-360.6 844.08,-354.66"/>
</g>
<!-- Node17 -->
<g id="node17" class="node">
<title>Node17</title>
<g id="a_node17"><a xlink:href="_c_a_t___m1_8cpp.html" target="_top" xlink:title=" ">
<polygon fill="white" stroke="#666666" points="544,-244.5 424,-244.5 424,-214.5 544,-214.5 544,-244.5"/>
<text text-anchor="start" x="432" y="-232.5" font-family="Helvetica,sans-Serif" font-size="10.00">firmware/wombat/src</text>
<text text-anchor="middle" x="484" y="-221.5" font-family="Helvetica,sans-Serif" font-size="10.00">/CAT_M1.cpp</text>
</a>
</g>
</g>
<!-- Node1&#45;&gt;Node17 -->
<g id="edge33" class="edge">
<title>Node1&#45;&gt;Node17</title>
<path fill="none" stroke="#63b8ff" d="M773.87,-358.8C706.93,-329.17 575.87,-271.16 515.64,-244.5"/>
<polygon fill="#63b8ff" stroke="#63b8ff" points="772.7,-362.11 783.26,-362.95 775.53,-355.71 772.7,-362.11"/>
</g>
<!-- Node20 -->
<g id="node20" class="node">
<title>Node20</title>
<g id="a_node20"><a xlink:href="_utils_8cpp.html" target="_top" xlink:title="Global utility functions.">
<polygon fill="white" stroke="#666666" points="1840,-244.5 1720,-244.5 1720,-214.5 1840,-214.5 1840,-244.5"/>
<text text-anchor="start" x="1728" y="-232.5" font-family="Helvetica,sans-Serif" font-size="10.00">firmware/wombat/src</text>
<text text-anchor="middle" x="1780" y="-221.5" font-family="Helvetica,sans-Serif" font-size="10.00">/Utils.cpp</text>
</a>
</g>
</g>
<!-- Node1&#45;&gt;Node20 -->
<g id="edge34" class="edge">
<title>Node1&#45;&gt;Node20</title>
<path fill="none" stroke="#63b8ff" d="M895.65,-369.25C1053.4,-353.28 1413.36,-312.85 1711,-250 1718.31,-248.46 1725.98,-246.57 1733.45,-244.57"/>
<polygon fill="#63b8ff" stroke="#63b8ff" points="895.15,-365.78 885.55,-370.27 895.85,-372.75 895.15,-365.78"/>
</g>
<!-- Node26 -->
<g id="node26" class="node">
<title>Node26</title>
<g id="a_node26"><a xlink:href="config__cli_8cpp.html" target="_top" xlink:title="Command line interface node configuration commands.">
<polygon fill="white" stroke="#666666" points="2029.5,-327 1896.5,-327 1896.5,-286 2029.5,-286 2029.5,-327"/>
<text text-anchor="start" x="1904.5" y="-315" font-family="Helvetica,sans-Serif" font-size="10.00">firmware/wombat/src</text>
<text text-anchor="start" x="1904.5" y="-304" font-family="Helvetica,sans-Serif" font-size="10.00">/cli/device_config/config</text>
<text text-anchor="middle" x="1963" y="-293" font-family="Helvetica,sans-Serif" font-size="10.00">_cli.cpp</text>
</a>
</g>
</g>
<!-- Node1&#45;&gt;Node26 -->
<g id="edge35" class="edge">
<title>Node1&#45;&gt;Node26</title>
<path fill="none" stroke="#63b8ff" d="M896.09,-375.19C1111.02,-370.07 1691.88,-354.09 1882,-327 1886.73,-326.33 1891.58,-325.5 1896.45,-324.58"/>
<polygon fill="#63b8ff" stroke="#63b8ff" points="895.74,-371.7 885.82,-375.43 895.9,-378.69 895.74,-371.7"/>
</g>
<!-- Node3 -->
<g id="node3" class="node">
<title>Node3</title>
<g id="a_node3"><a xlink:href="_c_l_i_8h.html" target="_top" xlink:title="FreeRTOS CLI handler.">
<polygon fill="white" stroke="#666666" points="267.5,-244.5 126.5,-244.5 126.5,-214.5 267.5,-214.5 267.5,-244.5"/>
<text text-anchor="start" x="134.5" y="-232.5" font-family="Helvetica,sans-Serif" font-size="10.00">firmware/wombat/include</text>
<text text-anchor="middle" x="197" y="-221.5" font-family="Helvetica,sans-Serif" font-size="10.00">/cli/CLI.h</text>
</a>
</g>
</g>
<!-- Node2&#45;&gt;Node3 -->
<g id="edge2" class="edge">
<title>Node2&#45;&gt;Node3</title>
<path fill="none" stroke="#63b8ff" d="M192.25,-281.41C193.38,-269.24 194.72,-254.9 195.69,-244.54"/>
<polygon fill="#63b8ff" stroke="#63b8ff" points="188.76,-281.11 191.32,-291.39 195.73,-281.76 188.76,-281.11"/>
</g>
<!-- Node2&#45;&gt;Node9 -->
<g id="edge14" class="edge">
<title>Node2&#45;&gt;Node9</title>
<path fill="none" stroke="#63b8ff" d="M158.77,-285.8C144.94,-276.11 129.09,-263.59 117,-250 95.92,-226.31 78.57,-193.66 68.75,-173.07"/>
<polygon fill="#63b8ff" stroke="#63b8ff" points="156.84,-288.72 167.08,-291.46 160.78,-282.94 156.84,-288.72"/>
</g>
<!-- Node4 -->
<g id="node4" class="node">
<title>Node4</title>
<g id="a_node4"><a xlink:href="server_8h.html" target="_top" xlink:title="Handle the setup and maintenance of the BLE server and connected clients.">
<polygon fill="white" stroke="#666666" points="279.5,-167.5 138.5,-167.5 138.5,-137.5 279.5,-137.5 279.5,-167.5"/>
<text text-anchor="start" x="146.5" y="-155.5" font-family="Helvetica,sans-Serif" font-size="10.00">firmware/wombat/include</text>
<text text-anchor="middle" x="209" y="-144.5" font-family="Helvetica,sans-Serif" font-size="10.00">/bluetooth/server.h</text>
</a>
</g>
</g>
<!-- Node3&#45;&gt;Node4 -->
<g id="edge3" class="edge">
<title>Node3&#45;&gt;Node4</title>
<path fill="none" stroke="#63b8ff" d="M200.85,-204.41C202.8,-192.24 205.1,-177.9 206.75,-167.54"/>
<polygon fill="#63b8ff" stroke="#63b8ff" points="197.38,-203.97 199.26,-214.39 204.29,-205.07 197.38,-203.97"/>
</g>
<!-- Node8 -->
<g id="node8" class="node">
<title>Node8</title>
<g id="a_node8"><a xlink:href="_c_l_i_8cpp.html" target="_top" xlink:title="FreeRTOS CLI handler.">
<polygon fill="white" stroke="#666666" points="418,-167.5 298,-167.5 298,-137.5 418,-137.5 418,-167.5"/>
<text text-anchor="start" x="306" y="-155.5" font-family="Helvetica,sans-Serif" font-size="10.00">firmware/wombat/src</text>
<text text-anchor="middle" x="358" y="-144.5" font-family="Helvetica,sans-Serif" font-size="10.00">/cli/CLI.cpp</text>
</a>
</g>
</g>
<!-- Node3&#45;&gt;Node8 -->
<g id="edge8" class="edge">
<title>Node3&#45;&gt;Node8</title>
<path fill="none" stroke="#63b8ff" d="M236.46,-210.12C264.66,-196.98 302.03,-179.57 327.85,-167.54"/>
<polygon fill="#63b8ff" stroke="#63b8ff" points="234.87,-207 227.28,-214.39 237.83,-213.34 234.87,-207"/>
</g>
<!-- Node3&#45;&gt;Node9 -->
<g id="edge9" class="edge">
<title>Node3&#45;&gt;Node9</title>
<path fill="none" stroke="#63b8ff" d="M162.29,-209.5C141.93,-198.35 116.26,-184.3 95.73,-173.06"/>
<polygon fill="#63b8ff" stroke="#63b8ff" points="160.78,-212.66 171.23,-214.39 164.14,-206.52 160.78,-212.66"/>
</g>
<!-- Node10 -->
<g id="node10" class="node">
<title>Node10</title>
<g id="a_node10"><a xlink:href="sd__card_8cpp.html" target="_top" xlink:title=" ">
<polygon fill="white" stroke="#666666" points="918,-173 798,-173 798,-132 918,-132 918,-173"/>
<text text-anchor="start" x="806" y="-161" font-family="Helvetica,sans-Serif" font-size="10.00">firmware/wombat/src</text>
<text text-anchor="start" x="806" y="-150" font-family="Helvetica,sans-Serif" font-size="10.00">/cli/peripherals/sd</text>
<text text-anchor="middle" x="858" y="-139" font-family="Helvetica,sans-Serif" font-size="10.00">_card.cpp</text>
</a>
</g>
</g>
<!-- Node3&#45;&gt;Node10 -->
<g id="edge10" class="edge">
<title>Node3&#45;&gt;Node10</title>
<path fill="none" stroke="#63b8ff" d="M259.25,-212.28C265.22,-211.04 271.21,-209.92 277,-209 487.42,-175.66 543.78,-200.86 755,-173 768.98,-171.16 783.94,-168.64 798,-166.03"/>
<polygon fill="#63b8ff" stroke="#63b8ff" points="258.28,-208.91 249.25,-214.46 259.77,-215.75 258.28,-208.91"/>
</g>
<!-- Node11 -->
<g id="node11" class="node">
<title>Node11</title>
<g id="a_node11"><a xlink:href="sdi12_8cpp.html" target="_top" xlink:title="SDI&#45;12 command line interface handler.">
<polygon fill="white" stroke="#666666" points="574,-167.5 436,-167.5 436,-137.5 574,-137.5 574,-167.5"/>
<text text-anchor="start" x="444" y="-155.5" font-family="Helvetica,sans-Serif" font-size="10.00">firmware/wombat/src</text>
<text text-anchor="middle" x="505" y="-144.5" font-family="Helvetica,sans-Serif" font-size="10.00">/cli/peripherals/sdi12.cpp</text>
</a>
</g>
</g>
<!-- Node3&#45;&gt;Node11 -->
<g id="edge11" class="edge">
<title>Node3&#45;&gt;Node11</title>
<path fill="none" stroke="#63b8ff" d="M264.54,-212.02C268.76,-211 272.94,-209.98 277,-209 343.64,-192.88 360.41,-189.31 427,-173 434.19,-171.24 441.74,-169.37 449.2,-167.52"/>
<polygon fill="#63b8ff" stroke="#63b8ff" points="263.57,-208.65 254.67,-214.42 265.22,-215.46 263.57,-208.65"/>
</g>
<!-- Node12 -->
<g id="node12" class="node">
<title>Node12</title>
<g id="a_node12"><a xlink:href="main_8cpp.html" target="_top" xlink:title=" ">
<polygon fill="white" stroke="#666666" points="746,-167.5 626,-167.5 626,-137.5 746,-137.5 746,-167.5"/>
<text text-anchor="start" x="634" y="-155.5" font-family="Helvetica,sans-Serif" font-size="10.00">firmware/wombat/src</text>
<text text-anchor="middle" x="686" y="-144.5" font-family="Helvetica,sans-Serif" font-size="10.00">/main.cpp</text>
</a>
</g>
</g>
<!-- Node3&#45;&gt;Node12 -->
<g id="edge12" class="edge">
<title>Node3&#45;&gt;Node12</title>
<path fill="none" stroke="#63b8ff" d="M260.55,-212.27C266.1,-211.08 271.64,-209.97 277,-209 411.77,-184.74 447.64,-193.75 583,-173 596.94,-170.86 611.88,-168.23 625.94,-165.6"/>
<polygon fill="#63b8ff" stroke="#63b8ff" points="259.6,-208.89 250.6,-214.48 261.12,-215.73 259.6,-208.89"/>
</g>
<!-- Node3&#45;&gt;Node13 -->
<g id="edge13" class="edge">
<title>Node3&#45;&gt;Node13</title>
<path fill="none" stroke="#63b8ff" d="M258.22,-212.32C264.53,-211.03 270.87,-209.89 277,-209 383.91,-193.51 1136.38,-164.09 1355.98,-155.75"/>
<polygon fill="#63b8ff" stroke="#63b8ff" points="257.39,-208.92 248.36,-214.46 258.87,-215.76 257.39,-208.92"/>
</g>
<!-- Node5 -->
<g id="node5" class="node">
<title>Node5</title>
<g id="a_node5"><a xlink:href="uart_8h.html" target="_top" xlink:title="BluetoothLE UART service setup and handling.">
<polygon fill="white" stroke="#666666" points="279.5,-96 138.5,-96 138.5,-66 279.5,-66 279.5,-96"/>
<text text-anchor="start" x="146.5" y="-84" font-family="Helvetica,sans-Serif" font-size="10.00">firmware/wombat/include</text>
<text text-anchor="middle" x="209" y="-73" font-family="Helvetica,sans-Serif" font-size="10.00">/bluetooth/uart.h</text>
</a>
</g>
</g>
<!-- Node4&#45;&gt;Node5 -->
<g id="edge4" class="edge">
<title>Node4&#45;&gt;Node5</title>
<path fill="none" stroke="#63b8ff" d="M202.53,-127.25C201.96,-116.81 202.26,-104.99 203.45,-96.04"/>
<polygon fill="#63b8ff" stroke="#63b8ff" points="199.07,-127.79 203.45,-137.44 206.04,-127.16 199.07,-127.79"/>
</g>
<!-- Node7 -->
<g id="node7" class="node">
<title>Node7</title>
<g id="a_node7"><a xlink:href="server_8cpp.html" target="_top" xlink:title="Setup and start BluetoothLE server.">
<polygon fill="white" stroke="#666666" points="418,-96 298,-96 298,-66 418,-66 418,-96"/>
<text text-anchor="start" x="306" y="-84" font-family="Helvetica,sans-Serif" font-size="10.00">firmware/wombat/src</text>
<text text-anchor="middle" x="358" y="-73" font-family="Helvetica,sans-Serif" font-size="10.00">/bluetooth/server.cpp</text>
</a>
</g>
</g>
<!-- Node4&#45;&gt;Node7 -->
<g id="edge7" class="edge">
<title>Node4&#45;&gt;Node7</title>
<path fill="none" stroke="#63b8ff" d="M248.34,-133.15C273.25,-121.53 304.98,-106.73 327.89,-96.04"/>
<polygon fill="#63b8ff" stroke="#63b8ff" points="246.74,-130.04 239.15,-137.44 249.69,-136.38 246.74,-130.04"/>
</g>
<!-- Node5&#45;&gt;Node4 -->
<g id="edge5" class="edge">
<title>Node5&#45;&gt;Node4</title>
<path fill="none" stroke="#63b8ff" d="M215.47,-106.23C216.04,-116.66 215.74,-128.49 214.55,-137.44"/>
<polygon fill="#63b8ff" stroke="#63b8ff" points="218.93,-105.69 214.55,-96.04 211.96,-106.32 218.93,-105.69"/>
</g>
<!-- Node6 -->
<g id="node6" class="node">
<title>Node6</title>
<g id="a_node6"><a xlink:href="uart_8cpp.html" target="_top" xlink:title="BluetoothLE UART service setup and handling.">
<polygon fill="white" stroke="#666666" points="269,-30 149,-30 149,0 269,0 269,-30"/>
<text text-anchor="start" x="157" y="-18" font-family="Helvetica,sans-Serif" font-size="10.00">firmware/wombat/src</text>
<text text-anchor="middle" x="209" y="-7" font-family="Helvetica,sans-Serif" font-size="10.00">/bluetooth/uart.cpp</text>
</a>
</g>
</g>
<!-- Node5&#45;&gt;Node6 -->
<g id="edge6" class="edge">
<title>Node5&#45;&gt;Node6</title>
<path fill="none" stroke="#63b8ff" d="M209,-55.54C209,-46.96 209,-37.61 209,-30.16"/>
<polygon fill="#63b8ff" stroke="#63b8ff" points="205.5,-55.8 209,-65.8 212.5,-55.8 205.5,-55.8"/>
</g>
<!-- Node14&#45;&gt;Node3 -->
<g id="edge16" class="edge">
<title>Node14&#45;&gt;Node3</title>
<path fill="none" stroke="#63b8ff" d="M313.65,-286.94C286.55,-273.83 250.77,-256.52 226.02,-244.54"/>
<polygon fill="#63b8ff" stroke="#63b8ff" points="312.32,-290.19 322.85,-291.39 315.37,-283.89 312.32,-290.19"/>
</g>
<!-- Node15 -->
<g id="node15" class="node">
<title>Node15</title>
<g id="a_node15"><a xlink:href="cli__power_8cpp.html" target="_top" xlink:title="Power related commands.">
<polygon fill="white" stroke="#666666" points="406,-250 286,-250 286,-209 406,-209 406,-250"/>
<text text-anchor="start" x="294" y="-238" font-family="Helvetica,sans-Serif" font-size="10.00">firmware/wombat/src</text>
<text text-anchor="start" x="294" y="-227" font-family="Helvetica,sans-Serif" font-size="10.00">/cli/device_config/cli</text>
<text text-anchor="middle" x="346" y="-216" font-family="Helvetica,sans-Serif" font-size="10.00">_power.cpp</text>
</a>
</g>
</g>
<!-- Node14&#45;&gt;Node15 -->
<g id="edge17" class="edge">
<title>Node14&#45;&gt;Node15</title>
<path fill="none" stroke="#63b8ff" d="M350.06,-281.23C349.26,-271.2 348.34,-259.71 347.58,-250.2"/>
<polygon fill="#63b8ff" stroke="#63b8ff" points="346.59,-281.7 350.87,-291.39 353.56,-281.15 346.59,-281.7"/>
</g>
<!-- Node16&#45;&gt;Node9 -->
<g id="edge25" class="edge">
<title>Node16&#45;&gt;Node9</title>
<path fill="none" stroke="#63b8ff" d="M845.03,-298.15C760.31,-289.4 633.77,-273.02 591,-250 569.12,-238.22 575.33,-219.9 553,-209 468.02,-167.53 222.03,-189.94 129,-173 126.06,-172.46 123.07,-171.86 120.05,-171.2"/>
<polygon fill="#63b8ff" stroke="#63b8ff" points="844.85,-301.65 855.15,-299.18 845.55,-294.69 844.85,-301.65"/>
</g>
<!-- Node16&#45;&gt;Node10 -->
<g id="edge26" class="edge">
<title>Node16&#45;&gt;Node10</title>
<path fill="none" stroke="#63b8ff" d="M922.94,-281.53C919.71,-261.39 913.43,-232.24 902,-209 895.6,-195.98 885.75,-183.17 876.99,-173.14"/>
<polygon fill="#63b8ff" stroke="#63b8ff" points="919.48,-282.06 924.41,-291.44 926.41,-281.03 919.48,-282.06"/>
</g>
<!-- Node16&#45;&gt;Node12 -->
<g id="edge28" class="edge">
<title>Node16&#45;&gt;Node12</title>
<path fill="none" stroke="#63b8ff" d="M914.72,-282.19C902.1,-256.98 881.77,-219.03 869,-209 849.75,-193.87 791.93,-177.75 746.38,-166.81"/>
<polygon fill="#63b8ff" stroke="#63b8ff" points="911.74,-284.05 919.3,-291.46 918.01,-280.95 911.74,-284.05"/>
</g>
<!-- Node16&#45;&gt;Node13 -->
<g id="edge29" class="edge">
<title>Node16&#45;&gt;Node13</title>
<path fill="none" stroke="#63b8ff" d="M1006.66,-301.12C1133.71,-293.47 1368.95,-275.97 1397,-250 1419.81,-228.89 1419.79,-189.02 1417.87,-167.74"/>
<polygon fill="#63b8ff" stroke="#63b8ff" points="1006.36,-297.63 996.58,-301.72 1006.77,-304.62 1006.36,-297.63"/>
</g>
<!-- Node16&#45;&gt;Node15 -->
<g id="edge24" class="edge">
<title>Node16&#45;&gt;Node15</title>
<path fill="none" stroke="#63b8ff" d="M845.02,-300.9C743.73,-294.19 565.33,-279.19 415,-250 412.07,-249.43 409.08,-248.8 406.07,-248.11"/>
<polygon fill="#63b8ff" stroke="#63b8ff" points="844.98,-304.4 855.18,-301.56 845.43,-297.42 844.98,-304.4"/>
</g>
<!-- Node16&#45;&gt;Node17 -->
<g id="edge19" class="edge">
<title>Node16&#45;&gt;Node17</title>
<path fill="none" stroke="#63b8ff" d="M845.1,-295.85C770.24,-286.32 656.05,-270.25 558,-250 550.32,-248.41 542.25,-246.52 534.38,-244.55"/>
<polygon fill="#63b8ff" stroke="#63b8ff" points="845.03,-299.37 855.39,-297.15 845.91,-292.43 845.03,-299.37"/>
</g>
<!-- Node18 -->
<g id="node18" class="node">
<title>Node18</title>
<g id="a_node18"><a xlink:href="_device_config_8cpp.html" target="_top" xlink:title=" ">
<polygon fill="white" stroke="#666666" points="1074,-244.5 954,-244.5 954,-214.5 1074,-214.5 1074,-244.5"/>
<text text-anchor="start" x="962" y="-232.5" font-family="Helvetica,sans-Serif" font-size="10.00">firmware/wombat/src</text>
<text text-anchor="middle" x="1014" y="-221.5" font-family="Helvetica,sans-Serif" font-size="10.00">/DeviceConfig.cpp</text>
</a>
</g>
</g>
<!-- Node16&#45;&gt;Node18 -->
<g id="edge20" class="edge">
<title>Node16&#45;&gt;Node18</title>
<path fill="none" stroke="#63b8ff" d="M950.44,-284.67C965.45,-271.88 984.27,-255.84 997.52,-244.54"/>
<polygon fill="#63b8ff" stroke="#63b8ff" points="947.89,-282.24 942.55,-291.39 952.43,-287.57 947.89,-282.24"/>
</g>
<!-- Node19 -->
<g id="node19" class="node">
<title>Node19</title>
<g id="a_node19"><a xlink:href="_sensor_task_8cpp.html" target="_top" xlink:title=" ">
<polygon fill="white" stroke="#666666" points="1212,-244.5 1092,-244.5 1092,-214.5 1212,-214.5 1212,-244.5"/>
<text text-anchor="start" x="1100" y="-232.5" font-family="Helvetica,sans-Serif" font-size="10.00">firmware/wombat/src</text>
<text text-anchor="middle" x="1152" y="-221.5" font-family="Helvetica,sans-Serif" font-size="10.00">/SensorTask.cpp</text>
</a>
</g>
</g>
<!-- Node16&#45;&gt;Node19 -->
<g id="edge21" class="edge">
<title>Node16&#45;&gt;Node19</title>
<path fill="none" stroke="#63b8ff" d="M977.8,-288.31C1017.72,-275.06 1072.23,-256.97 1109.58,-244.58"/>
<polygon fill="#63b8ff" stroke="#63b8ff" points="976.63,-285.01 968.24,-291.48 978.84,-291.65 976.63,-285.01"/>
</g>
<!-- Node16&#45;&gt;Node20 -->
<g id="edge22" class="edge">
<title>Node16&#45;&gt;Node20</title>
<path fill="none" stroke="#63b8ff" d="M1006.68,-301.9C1178.85,-293.86 1577.39,-273.35 1711,-250 1718.97,-248.61 1727.34,-246.66 1735.4,-244.54"/>
<polygon fill="#63b8ff" stroke="#63b8ff" points="1006.5,-298.4 996.67,-302.36 1006.82,-305.39 1006.5,-298.4"/>
</g>
<!-- Node21 -->
<g id="node21" class="node">
<title>Node21</title>
<g id="a_node21"><a xlink:href="acquisition__intervals_8cpp.html" target="_top" xlink:title="Handles the time between measurements and uplinks by the device over LTE.">
<polygon fill="white" stroke="#666666" points="1387.5,-250 1230.5,-250 1230.5,-209 1387.5,-209 1387.5,-250"/>
<text text-anchor="start" x="1238.5" y="-238" font-family="Helvetica,sans-Serif" font-size="10.00">firmware/wombat/src</text>
<text text-anchor="start" x="1238.5" y="-227" font-family="Helvetica,sans-Serif" font-size="10.00">/cli/device_config/acquisition</text>
<text text-anchor="middle" x="1309" y="-216" font-family="Helvetica,sans-Serif" font-size="10.00">_intervals.cpp</text>
</a>
</g>
</g>
<!-- Node16&#45;&gt;Node21 -->
<g id="edge23" class="edge">
<title>Node16&#45;&gt;Node21</title>
<path fill="none" stroke="#63b8ff" d="M1006.82,-291.02C1066.18,-280.2 1148.73,-264.8 1221,-250 1224.07,-249.37 1227.19,-248.72 1230.34,-248.06"/>
<polygon fill="#63b8ff" stroke="#63b8ff" points="1005.97,-287.61 996.76,-292.85 1007.22,-294.5 1005.97,-287.61"/>
</g>
<!-- Node22 -->
<g id="node22" class="node">
<title>Node22</title>
<g id="a_node22"><a xlink:href="ftp__stack_8cpp.html" target="_top" xlink:title=" ">
<polygon fill="white" stroke="#666666" points="1564,-244.5 1444,-244.5 1444,-214.5 1564,-214.5 1564,-244.5"/>
<text text-anchor="start" x="1452" y="-232.5" font-family="Helvetica,sans-Serif" font-size="10.00">firmware/wombat/src</text>
<text text-anchor="middle" x="1504" y="-221.5" font-family="Helvetica,sans-Serif" font-size="10.00">/ftp_stack.cpp</text>
</a>
</g>
</g>
<!-- Node16&#45;&gt;Node22 -->
<g id="edge27" class="edge">
<title>Node16&#45;&gt;Node22</title>
<path fill="none" stroke="#63b8ff" d="M1006.63,-300.32C1106.59,-293.04 1281.9,-277.51 1430,-250 1438.1,-248.5 1446.61,-246.58 1454.87,-244.53"/>
<polygon fill="#63b8ff" stroke="#63b8ff" points="1006.32,-296.83 996.6,-301.04 1006.83,-303.81 1006.32,-296.83"/>
</g>
<!-- Node23 -->
<g id="node23" class="node">
<title>Node23</title>
<g id="a_node23"><a xlink:href="ota__update_8cpp.html" target="_top" xlink:title=" ">
<polygon fill="white" stroke="#666666" points="1702,-244.5 1582,-244.5 1582,-214.5 1702,-214.5 1702,-244.5"/>
<text text-anchor="start" x="1590" y="-232.5" font-family="Helvetica,sans-Serif" font-size="10.00">firmware/wombat/src</text>
<text text-anchor="middle" x="1642" y="-221.5" font-family="Helvetica,sans-Serif" font-size="10.00">/ota_update.cpp</text>
</a>
</g>
</g>
<!-- Node16&#45;&gt;Node23 -->
<g id="edge30" class="edge">
<title>Node16&#45;&gt;Node23</title>
<path fill="none" stroke="#63b8ff" d="M1007.06,-303.48C1130.24,-299.3 1371.54,-286.76 1573,-250 1580.84,-248.57 1589.07,-246.64 1597.01,-244.54"/>
<polygon fill="#63b8ff" stroke="#63b8ff" points="1006.83,-299.98 996.95,-303.81 1007.06,-306.98 1006.83,-299.98"/>
</g>
<!-- Node24 -->
<g id="node24" class="node">
<title>Node24</title>
<g id="a_node24"><a xlink:href="interface_8cpp.html" target="_top" xlink:title=" ">
<polygon fill="white" stroke="#666666" points="722,-244.5 600,-244.5 600,-214.5 722,-214.5 722,-244.5"/>
<text text-anchor="start" x="608" y="-232.5" font-family="Helvetica,sans-Serif" font-size="10.00">firmware/wombat/src</text>
<text text-anchor="middle" x="661" y="-221.5" font-family="Helvetica,sans-Serif" font-size="10.00">/sd&#45;card/interface.cpp</text>
</a>
</g>
</g>
<!-- Node16&#45;&gt;Node24 -->
<g id="edge31" class="edge">
<title>Node16&#45;&gt;Node24</title>
<path fill="none" stroke="#63b8ff" d="M866.74,-288.73C819.8,-275.44 755,-257.1 710.74,-244.58"/>
<polygon fill="#63b8ff" stroke="#63b8ff" points="865.89,-292.13 876.47,-291.48 867.8,-285.39 865.89,-292.13"/>
</g>
<!-- Node25 -->
<g id="node25" class="node">
<title>Node25</title>
<g id="a_node25"><a xlink:href="uplinks_8cpp.html" target="_top" xlink:title=" ">
<polygon fill="white" stroke="#666666" points="860,-244.5 740,-244.5 740,-214.5 860,-214.5 860,-244.5"/>
<text text-anchor="start" x="748" y="-232.5" font-family="Helvetica,sans-Serif" font-size="10.00">firmware/wombat/src</text>
<text text-anchor="middle" x="800" y="-221.5" font-family="Helvetica,sans-Serif" font-size="10.00">/uplinks.cpp</text>
</a>
</g>
</g>
<!-- Node16&#45;&gt;Node25 -->
<g id="edge32" class="edge">
<title>Node16&#45;&gt;Node25</title>
<path fill="none" stroke="#63b8ff" d="M893.67,-286.25C871.78,-273.23 843.36,-256.31 823.59,-244.54"/>
<polygon fill="#63b8ff" stroke="#63b8ff" points="891.92,-289.29 902.3,-291.39 895.5,-283.27 891.92,-289.29"/>
</g>
</g>
</svg>
