<?xml version="1.0" encoding="UTF-8" standalone="no"?>
<!DOCTYPE svg PUBLIC "-//W3C//DTD SVG 1.1//EN"
 "http://www.w3.org/Graphics/SVG/1.1/DTD/svg11.dtd">
<!-- Generated by graphviz version 2.43.0 (0)
 -->
<!-- Title: firmware/wombat/src/cli/CLI.cpp Pages: 1 -->
<svg width="1236pt" height="445pt"
 viewBox="0.00 0.00 1235.78 445.00" xmlns="http://www.w3.org/2000/svg" xmlns:xlink="http://www.w3.org/1999/xlink">
<g id="graph0" class="graph" transform="scale(1 1) rotate(0) translate(4 441)">
<title>firmware/wombat/src/cli/CLI.cpp</title>
<!-- Node1 -->
<g id="node1" class="node">
<title>Node1</title>
<g id="a_node1"><a xlink:title="FreeRTOS CLI handler.">
<polygon fill="#999999" stroke="#666666" points="626.78,-437 506.78,-437 506.78,-407 626.78,-407 626.78,-437"/>
<text text-anchor="start" x="514.78" y="-425" font-family="Helvetica,sans-Serif" font-size="10.00">firmware/wombat/src</text>
<text text-anchor="middle" x="566.78" y="-414" font-family="Helvetica,sans-Serif" font-size="10.00">/cli/CLI.cpp</text>
</a>
</g>
</g>
<!-- Node2 -->
<g id="node2" class="node">
<title>Node2</title>
<g id="a_node2"><a xlink:href="_c_l_i_8h.html" target="_top" xlink:title="FreeRTOS CLI handler.">
<polygon fill="white" stroke="#666666" points="594.28,-371 539.28,-371 539.28,-352 594.28,-352 594.28,-371"/>
<text text-anchor="middle" x="566.78" y="-359" font-family="Helvetica,sans-Serif" font-size="10.00">cli/CLI.h</text>
</a>
</g>
</g>
<!-- Node1&#45;&gt;Node2 -->
<g id="edge1" class="edge">
<title>Node1&#45;&gt;Node2</title>
<path fill="none" stroke="#63b8ff" d="M566.78,-406.84C566.78,-399.21 566.78,-389.7 566.78,-381.45"/>
<polygon fill="#63b8ff" stroke="#63b8ff" points="570.28,-381.27 566.78,-371.27 563.28,-381.27 570.28,-381.27"/>
</g>
<!-- Node3 -->
<g id="node3" class="node">
<title>Node3</title>
<g id="a_node3"><a xlink:title=" ">
<polygon fill="#e0e0e0" stroke="#999999" points="400.28,-19 337.28,-19 337.28,0 400.28,0 400.28,-19"/>
<text text-anchor="middle" x="368.78" y="-7" font-family="Helvetica,sans-Serif" font-size="10.00">Arduino.h</text>
</a>
</g>
</g>
<!-- Node2&#45;&gt;Node3 -->
<g id="edge2" class="edge">
<title>Node2&#45;&gt;Node3</title>
<path fill="none" stroke="#63b8ff" d="M539.08,-360.1C433.55,-358.32 60.65,-349.67 20.78,-316 -5.33,-293.96 1.78,-275.67 1.78,-241.5 1.78,-241.5 1.78,-241.5 1.78,-124 1.78,-56.51 231.13,-24.8 327.21,-14.47"/>
<polygon fill="#63b8ff" stroke="#63b8ff" points="327.59,-17.95 337.17,-13.43 326.86,-10.99 327.59,-17.95"/>
</g>
<!-- Node4 -->
<g id="node4" class="node">
<title>Node4</title>
<g id="a_node4"><a xlink:title=" ">
<polygon fill="#e0e0e0" stroke="#999999" points="1003.28,-250 890.28,-250 890.28,-231 1003.28,-231 1003.28,-250"/>
<text text-anchor="middle" x="946.78" y="-238" font-family="Helvetica,sans-Serif" font-size="10.00">freertos/FreeRTOS.h</text>
</a>
</g>
</g>
<!-- Node2&#45;&gt;Node4 -->
<g id="edge3" class="edge">
<title>Node2&#45;&gt;Node4</title>
<path fill="none" stroke="#63b8ff" d="M594.5,-360.24C696.65,-358.98 1047.71,-352.06 1080.78,-316 1109.14,-285.08 1051.76,-263.99 1003.48,-252.35"/>
<polygon fill="#63b8ff" stroke="#63b8ff" points="1004.2,-248.92 993.66,-250.08 1002.62,-255.74 1004.2,-248.92"/>
</g>
<!-- Node5 -->
<g id="node5" class="node">
<title>Node5</title>
<g id="a_node5"><a xlink:title=" ">
<polygon fill="#e0e0e0" stroke="#999999" points="647.28,-250 540.28,-250 540.28,-231 647.28,-231 647.28,-250"/>
<text text-anchor="middle" x="593.78" y="-238" font-family="Helvetica,sans-Serif" font-size="10.00">cli/FreeRTOS_CLI.h</text>
</a>
</g>
</g>
<!-- Node2&#45;&gt;Node5 -->
<g id="edge4" class="edge">
<title>Node2&#45;&gt;Node5</title>
<path fill="none" stroke="#63b8ff" d="M539.02,-354.28C519,-348.18 493.36,-336.68 480.78,-316 473.85,-304.61 473.27,-297.02 480.78,-286 492.3,-269.08 511.34,-258.59 530.53,-252.09"/>
<polygon fill="#63b8ff" stroke="#63b8ff" points="531.7,-255.4 540.24,-249.13 529.65,-248.7 531.7,-255.4"/>
</g>
<!-- Node6 -->
<g id="node6" class="node">
<title>Node6</title>
<g id="a_node6"><a xlink:href="cat-m1_8h.html" target="_top" xlink:title="CAT&#45;M1 CLI command request and response handler.">
<polygon fill="white" stroke="#666666" points="793.78,-310.5 661.78,-310.5 661.78,-291.5 793.78,-291.5 793.78,-310.5"/>
<text text-anchor="middle" x="727.78" y="-298.5" font-family="Helvetica,sans-Serif" font-size="10.00">cli/peripherals/cat&#45;m1.h</text>
</a>
</g>
</g>
<!-- Node2&#45;&gt;Node6 -->
<g id="edge5" class="edge">
<title>Node2&#45;&gt;Node6</title>
<path fill="none" stroke="#63b8ff" d="M590.19,-351.99C617.73,-341.99 663.65,-325.3 694.79,-313.99"/>
<polygon fill="#63b8ff" stroke="#63b8ff" points="696.13,-317.22 704.34,-310.52 693.74,-310.64 696.13,-317.22"/>
</g>
<!-- Node12 -->
<g id="node12" class="node">
<title>Node12</title>
<g id="a_node12"><a xlink:href="sdi12_8h.html" target="_top" xlink:title="SDI&#45;12 command line interface handler.">
<polygon fill="white" stroke="#666666" points="1053.78,-310.5 929.78,-310.5 929.78,-291.5 1053.78,-291.5 1053.78,-310.5"/>
<text text-anchor="middle" x="991.78" y="-298.5" font-family="Helvetica,sans-Serif" font-size="10.00">cli/peripherals/sdi12.h</text>
</a>
</g>
</g>
<!-- Node2&#45;&gt;Node12 -->
<g id="edge15" class="edge">
<title>Node2&#45;&gt;Node12</title>
<path fill="none" stroke="#63b8ff" d="M594.41,-357.69C654.15,-351.47 799.7,-335.52 920.78,-316 927.36,-314.94 934.27,-313.72 941.08,-312.44"/>
<polygon fill="#63b8ff" stroke="#63b8ff" points="941.78,-315.87 950.94,-310.56 940.46,-309 941.78,-315.87"/>
</g>
<!-- Node19 -->
<g id="node19" class="node">
<title>Node19</title>
<g id="a_node19"><a xlink:href="cli__power_8h.html" target="_top" xlink:title=" ">
<polygon fill="white" stroke="#666666" points="911.78,-316 811.78,-316 811.78,-286 911.78,-286 911.78,-316"/>
<text text-anchor="start" x="819.78" y="-304" font-family="Helvetica,sans-Serif" font-size="10.00">cli/peripherals/cli</text>
<text text-anchor="middle" x="861.78" y="-293" font-family="Helvetica,sans-Serif" font-size="10.00">_power.h</text>
</a>
</g>
</g>
<!-- Node2&#45;&gt;Node19 -->
<g id="edge29" class="edge">
<title>Node2&#45;&gt;Node19</title>
<path fill="none" stroke="#63b8ff" d="M594.47,-355.71C636.93,-348.27 720.85,-333.21 801.75,-316.16"/>
<polygon fill="#63b8ff" stroke="#63b8ff" points="802.54,-319.57 811.6,-314.07 801.09,-312.72 802.54,-319.57"/>
</g>
<!-- Node20 -->
<g id="node20" class="node">
<title>Node20</title>
<g id="a_node20"><a xlink:href="sd__card_8h.html" target="_top" xlink:title=" ">
<polygon fill="white" stroke="#666666" points="1227.78,-316 1127.78,-316 1127.78,-286 1227.78,-286 1227.78,-316"/>
<text text-anchor="start" x="1135.78" y="-304" font-family="Helvetica,sans-Serif" font-size="10.00">cli/peripherals/sd</text>
<text text-anchor="middle" x="1177.78" y="-293" font-family="Helvetica,sans-Serif" font-size="10.00">_card.h</text>
</a>
</g>
</g>
<!-- Node2&#45;&gt;Node20 -->
<g id="edge35" class="edge">
<title>Node2&#45;&gt;Node20</title>
<path fill="none" stroke="#63b8ff" d="M594.53,-359.56C675.15,-356.54 916.12,-345.52 1113.78,-316 1115.04,-315.81 1116.32,-315.61 1117.61,-315.4"/>
<polygon fill="#63b8ff" stroke="#63b8ff" points="1118.34,-318.83 1127.59,-313.65 1117.13,-311.93 1118.34,-318.83"/>
</g>
<!-- Node22 -->
<g id="node22" class="node">
<title>Node22</title>
<g id="a_node22"><a xlink:href="acquisition__intervals_8h.html" target="_top" xlink:title="Handles the time between measurements and uplinks by the device over LTE.">
<polygon fill="white" stroke="#666666" points="643.78,-316 489.78,-316 489.78,-286 643.78,-286 643.78,-316"/>
<text text-anchor="start" x="497.78" y="-304" font-family="Helvetica,sans-Serif" font-size="10.00">cli/device_config/acquisition</text>
<text text-anchor="middle" x="566.78" y="-293" font-family="Helvetica,sans-Serif" font-size="10.00">_intervals.h</text>
</a>
</g>
</g>
<!-- Node2&#45;&gt;Node22 -->
<g id="edge38" class="edge">
<title>Node2&#45;&gt;Node22</title>
<path fill="none" stroke="#63b8ff" d="M566.78,-351.87C566.78,-345.11 566.78,-335.35 566.78,-326.26"/>
<polygon fill="#63b8ff" stroke="#63b8ff" points="570.28,-326.11 566.78,-316.11 563.28,-326.11 570.28,-326.11"/>
</g>
<!-- Node24 -->
<g id="node24" class="node">
<title>Node24</title>
<g id="a_node24"><a xlink:href="mqtt__cli_8h.html" target="_top" xlink:title="MQTT setup and configuration through the CLI.">
<polygon fill="white" stroke="#666666" points="153.78,-316 29.78,-316 29.78,-286 153.78,-286 153.78,-316"/>
<text text-anchor="start" x="37.78" y="-304" font-family="Helvetica,sans-Serif" font-size="10.00">cli/device_config/mqtt</text>
<text text-anchor="middle" x="91.78" y="-293" font-family="Helvetica,sans-Serif" font-size="10.00">_cli.h</text>
</a>
</g>
</g>
<!-- Node2&#45;&gt;Node24 -->
<g id="edge46" class="edge">
<title>Node2&#45;&gt;Node24</title>
<path fill="none" stroke="#63b8ff" d="M539.24,-358.28C475.22,-352.95 311.25,-338.29 164.17,-316.13"/>
<polygon fill="#63b8ff" stroke="#63b8ff" points="164.48,-312.64 154.06,-314.59 163.42,-319.56 164.48,-312.64"/>
</g>
<!-- Node25 -->
<g id="node25" class="node">
<title>Node25</title>
<g id="a_node25"><a xlink:href="ftp__cli_8h.html" target="_top" xlink:title="FTP setup and configuration through the CLI.">
<polygon fill="white" stroke="#666666" points="285.28,-316 172.28,-316 172.28,-286 285.28,-286 285.28,-316"/>
<text text-anchor="start" x="180.28" y="-304" font-family="Helvetica,sans-Serif" font-size="10.00">cli/device_config/ftp</text>
<text text-anchor="middle" x="228.78" y="-293" font-family="Helvetica,sans-Serif" font-size="10.00">_cli.h</text>
</a>
</g>
</g>
<!-- Node2&#45;&gt;Node25 -->
<g id="edge48" class="edge">
<title>Node2&#45;&gt;Node25</title>
<path fill="none" stroke="#63b8ff" d="M538.9,-356.38C491.24,-349.24 390.83,-333.79 295.7,-316.12"/>
<polygon fill="#63b8ff" stroke="#63b8ff" points="296.1,-312.63 285.63,-314.24 294.81,-319.51 296.1,-312.63"/>
</g>
<!-- Node26 -->
<g id="node26" class="node">
<title>Node26</title>
<g id="a_node26"><a xlink:href="config__cli_8h.html" target="_top" xlink:title=" ">
<polygon fill="white" stroke="#666666" points="433.78,-316 303.78,-316 303.78,-286 433.78,-286 433.78,-316"/>
<text text-anchor="start" x="311.78" y="-304" font-family="Helvetica,sans-Serif" font-size="10.00">cli/device_config/config</text>
<text text-anchor="middle" x="368.78" y="-293" font-family="Helvetica,sans-Serif" font-size="10.00">_cli.h</text>
</a>
</g>
</g>
<!-- Node2&#45;&gt;Node26 -->
<g id="edge50" class="edge">
<title>Node2&#45;&gt;Node26</title>
<path fill="none" stroke="#63b8ff" d="M539.25,-352.37C510.08,-343.75 463.2,-329.9 425.97,-318.9"/>
<polygon fill="#63b8ff" stroke="#63b8ff" points="426.82,-315.5 416.24,-316.02 424.84,-322.21 426.82,-315.5"/>
</g>
<!-- Node6&#45;&gt;Node4 -->
<g id="edge6" class="edge">
<title>Node6&#45;&gt;Node4</title>
<path fill="none" stroke="#63b8ff" d="M759.62,-291.49C798.06,-281.23 862.8,-263.93 905.16,-252.62"/>
<polygon fill="#63b8ff" stroke="#63b8ff" points="906.14,-255.98 914.89,-250.02 904.33,-249.22 906.14,-255.98"/>
</g>
<!-- Node6&#45;&gt;Node5 -->
<g id="edge9" class="edge">
<title>Node6&#45;&gt;Node5</title>
<path fill="none" stroke="#63b8ff" d="M708.29,-291.49C685.76,-281.66 648.47,-265.38 622.59,-254.08"/>
<polygon fill="#63b8ff" stroke="#63b8ff" points="623.85,-250.81 613.29,-250.02 621.05,-257.23 623.85,-250.81"/>
</g>
<!-- Node7 -->
<g id="node7" class="node">
<title>Node7</title>
<g id="a_node7"><a xlink:title=" ">
<polygon fill="#e0e0e0" stroke="#999999" points="833.28,-250 772.28,-250 772.28,-231 833.28,-231 833.28,-250"/>
<text text-anchor="middle" x="802.78" y="-238" font-family="Helvetica,sans-Serif" font-size="10.00">Stream.h</text>
</a>
</g>
</g>
<!-- Node6&#45;&gt;Node7 -->
<g id="edge7" class="edge">
<title>Node6&#45;&gt;Node7</title>
<path fill="none" stroke="#63b8ff" d="M738.84,-291.37C750.59,-282.21 769.37,-267.56 783.54,-256.51"/>
<polygon fill="#63b8ff" stroke="#63b8ff" points="785.93,-259.08 791.67,-250.17 781.63,-253.56 785.93,-259.08"/>
</g>
<!-- Node8 -->
<g id="node8" class="node">
<title>Node8</title>
<g id="a_node8"><a xlink:title=" ">
<polygon fill="#e0e0e0" stroke="#999999" points="754.28,-250 665.28,-250 665.28,-231 754.28,-231 754.28,-250"/>
<text text-anchor="middle" x="709.78" y="-238" font-family="Helvetica,sans-Serif" font-size="10.00">StreamString.h</text>
</a>
</g>
</g>
<!-- Node6&#45;&gt;Node8 -->
<g id="edge8" class="edge">
<title>Node6&#45;&gt;Node8</title>
<path fill="none" stroke="#63b8ff" d="M725.12,-291.37C722.6,-283.16 718.71,-270.54 715.49,-260.05"/>
<polygon fill="#63b8ff" stroke="#63b8ff" points="718.73,-258.7 712.44,-250.17 712.04,-260.75 718.73,-258.7"/>
</g>
<!-- Node9 -->
<g id="node9" class="node">
<title>Node9</title>
<g id="a_node9"><a xlink:href="_c_a_t___m1_8h.html" target="_top" xlink:title=" ">
<polygon fill="white" stroke="#666666" points="706.28,-134.5 641.28,-134.5 641.28,-115.5 706.28,-115.5 706.28,-134.5"/>
<text text-anchor="middle" x="673.78" y="-122.5" font-family="Helvetica,sans-Serif" font-size="10.00">CAT_M1.h</text>
</a>
</g>
</g>
<!-- Node6&#45;&gt;Node9 -->
<g id="edge10" class="edge">
<title>Node6&#45;&gt;Node9</title>
<path fill="none" stroke="#63b8ff" d="M682.04,-291.44C626.82,-280.64 540.15,-262.05 530.78,-250 493.36,-201.9 585.2,-158.41 638.66,-138.1"/>
<polygon fill="#63b8ff" stroke="#63b8ff" points="640,-141.34 648.16,-134.58 637.56,-134.77 640,-141.34"/>
</g>
<!-- Node10 -->
<g id="node10" class="node">
<title>Node10</title>
<g id="a_node10"><a xlink:title=" ">
<polygon fill="#e0e0e0" stroke="#999999" points="666.78,-19 618.78,-19 618.78,0 666.78,0 666.78,-19"/>
<text text-anchor="middle" x="642.78" y="-7" font-family="Helvetica,sans-Serif" font-size="10.00">Wire.h</text>
</a>
</g>
</g>
<!-- Node9&#45;&gt;Node10 -->
<g id="edge11" class="edge">
<title>Node9&#45;&gt;Node10</title>
<path fill="none" stroke="#63b8ff" d="M671.45,-115.47C666.44,-97.15 654.57,-53.68 647.78,-28.81"/>
<polygon fill="#63b8ff" stroke="#63b8ff" points="651.15,-27.85 645.13,-19.13 644.39,-29.7 651.15,-27.85"/>
</g>
<!-- Node11 -->
<g id="node11" class="node">
<title>Node11</title>
<g id="a_node11"><a xlink:href="_t_c_a9534_8h.html" target="_top" xlink:title=" ">
<polygon fill="white" stroke="#666666" points="645.78,-74 577.78,-74 577.78,-55 645.78,-55 645.78,-74"/>
<text text-anchor="middle" x="611.78" y="-62" font-family="Helvetica,sans-Serif" font-size="10.00">TCA9534.h</text>
</a>
</g>
</g>
<!-- Node9&#45;&gt;Node11 -->
<g id="edge12" class="edge">
<title>Node9&#45;&gt;Node11</title>
<path fill="none" stroke="#63b8ff" d="M664.63,-115.37C655.1,-106.38 639.98,-92.11 628.35,-81.14"/>
<polygon fill="#63b8ff" stroke="#63b8ff" points="630.64,-78.48 620.96,-74.17 625.83,-83.58 630.64,-78.48"/>
</g>
<!-- Node11&#45;&gt;Node3 -->
<g id="edge13" class="edge">
<title>Node11&#45;&gt;Node3</title>
<path fill="none" stroke="#63b8ff" d="M577.73,-56.07C533.92,-46.52 457.85,-29.93 410.57,-19.62"/>
<polygon fill="#63b8ff" stroke="#63b8ff" points="411.17,-16.16 400.66,-17.45 409.68,-23 411.17,-16.16"/>
</g>
<!-- Node11&#45;&gt;Node10 -->
<g id="edge14" class="edge">
<title>Node11&#45;&gt;Node10</title>
<path fill="none" stroke="#63b8ff" d="M616.9,-54.75C621.14,-47.49 627.3,-36.95 632.55,-27.98"/>
<polygon fill="#63b8ff" stroke="#63b8ff" points="635.73,-29.49 637.75,-19.09 629.68,-25.95 635.73,-29.49"/>
</g>
<!-- Node12&#45;&gt;Node4 -->
<g id="edge16" class="edge">
<title>Node12&#45;&gt;Node4</title>
<path fill="none" stroke="#63b8ff" d="M985.14,-291.37C978.49,-282.73 968.09,-269.2 959.79,-258.42"/>
<polygon fill="#63b8ff" stroke="#63b8ff" points="962.32,-255.96 953.44,-250.17 956.77,-260.23 962.32,-255.96"/>
</g>
<!-- Node12&#45;&gt;Node5 -->
<g id="edge21" class="edge">
<title>Node12&#45;&gt;Node5</title>
<path fill="none" stroke="#63b8ff" d="M950.56,-291.44C940.81,-289.54 930.44,-287.61 920.78,-286 806.74,-267.03 775.25,-266.11 657.67,-250.25"/>
<polygon fill="#63b8ff" stroke="#63b8ff" points="657.92,-246.75 647.55,-248.88 656.98,-253.69 657.92,-246.75"/>
</g>
<!-- Node12&#45;&gt;Node7 -->
<g id="edge17" class="edge">
<title>Node12&#45;&gt;Node7</title>
<path fill="none" stroke="#63b8ff" d="M964.29,-291.49C931.54,-281.36 876.66,-264.37 840.09,-253.05"/>
<polygon fill="#63b8ff" stroke="#63b8ff" points="840.88,-249.63 830.29,-250.02 838.81,-256.32 840.88,-249.63"/>
</g>
<!-- Node12&#45;&gt;Node8 -->
<g id="edge18" class="edge">
<title>Node12&#45;&gt;Node8</title>
<path fill="none" stroke="#63b8ff" d="M950.77,-291.49C900.44,-281.05 815.08,-263.35 760.63,-252.05"/>
<polygon fill="#63b8ff" stroke="#63b8ff" points="761.33,-248.62 750.83,-250.02 759.91,-255.48 761.33,-248.62"/>
</g>
<!-- Node12&#45;&gt;Node12 -->
<g id="edge19" class="edge">
<title>Node12&#45;&gt;Node12</title>
<path fill="none" stroke="#63b8ff" d="M1021.32,-310.53C1045.99,-314.61 1071.78,-311.43 1071.78,-301 1071.78,-292 1052.56,-288.4 1031.43,-290.2"/>
<polygon fill="#63b8ff" stroke="#63b8ff" points="1030.8,-286.75 1021.32,-291.47 1031.67,-293.7 1030.8,-286.75"/>
</g>
<!-- Node13 -->
<g id="node13" class="node">
<title>Node13</title>
<g id="a_node13"><a xlink:title=" ">
<polygon fill="#e0e0e0" stroke="#999999" points="1212.28,-195 1119.28,-195 1119.28,-176 1212.28,-176 1212.28,-195"/>
<text text-anchor="middle" x="1165.78" y="-183" font-family="Helvetica,sans-Serif" font-size="10.00">dpiclimate&#45;12.h</text>
</a>
</g>
</g>
<!-- Node12&#45;&gt;Node13 -->
<g id="edge20" class="edge">
<title>Node12&#45;&gt;Node13</title>
<path fill="none" stroke="#63b8ff" d="M1007.8,-291.47C1025.5,-281.9 1054.67,-265.66 1078.78,-250 1102.81,-234.39 1129.26,-214.71 1146.61,-201.42"/>
<polygon fill="#63b8ff" stroke="#63b8ff" points="1149.01,-204 1154.79,-195.12 1144.73,-198.45 1149.01,-204"/>
</g>
<!-- Node14 -->
<g id="node14" class="node">
<title>Node14</title>
<g id="a_node14"><a xlink:href="_utils_8h.html" target="_top" xlink:title=" ">
<polygon fill="white" stroke="#666666" points="1069.78,-250 1021.78,-250 1021.78,-231 1069.78,-231 1069.78,-250"/>
<text text-anchor="middle" x="1045.78" y="-238" font-family="Helvetica,sans-Serif" font-size="10.00">Utils.h</text>
</a>
</g>
</g>
<!-- Node12&#45;&gt;Node14 -->
<g id="edge22" class="edge">
<title>Node12&#45;&gt;Node14</title>
<path fill="none" stroke="#63b8ff" d="M999.75,-291.37C1007.88,-282.55 1020.71,-268.66 1030.76,-257.77"/>
<polygon fill="#63b8ff" stroke="#63b8ff" points="1033.57,-259.89 1037.78,-250.17 1028.42,-255.14 1033.57,-259.89"/>
</g>
<!-- Node14&#45;&gt;Node13 -->
<g id="edge25" class="edge">
<title>Node14&#45;&gt;Node13</title>
<path fill="none" stroke="#63b8ff" d="M1065.06,-230.98C1084.45,-222.42 1114.58,-209.11 1136.84,-199.28"/>
<polygon fill="#63b8ff" stroke="#63b8ff" points="1138.41,-202.41 1146.15,-195.17 1135.58,-196.01 1138.41,-202.41"/>
</g>
<!-- Node15 -->
<g id="node15" class="node">
<title>Node15</title>
<g id="a_node15"><a xlink:title=" ">
<polygon fill="#e0e0e0" stroke="#999999" points="1021.78,-195 965.78,-195 965.78,-176 1021.78,-176 1021.78,-195"/>
<text text-anchor="middle" x="993.78" y="-183" font-family="Helvetica,sans-Serif" font-size="10.00">stddef.h</text>
</a>
</g>
</g>
<!-- Node14&#45;&gt;Node15 -->
<g id="edge23" class="edge">
<title>Node14&#45;&gt;Node15</title>
<path fill="none" stroke="#63b8ff" d="M1037.19,-230.75C1029.62,-223.03 1018.4,-211.6 1009.26,-202.28"/>
<polygon fill="#63b8ff" stroke="#63b8ff" points="1011.71,-199.78 1002.2,-195.09 1006.71,-204.68 1011.71,-199.78"/>
</g>
<!-- Node16 -->
<g id="node16" class="node">
<title>Node16</title>
<g id="a_node16"><a xlink:title=" ">
<polygon fill="#e0e0e0" stroke="#999999" points="947.28,-195 864.28,-195 864.28,-176 947.28,-176 947.28,-195"/>
<text text-anchor="middle" x="905.78" y="-183" font-family="Helvetica,sans-Serif" font-size="10.00">ArduinoJson.h</text>
</a>
</g>
</g>
<!-- Node14&#45;&gt;Node16 -->
<g id="edge24" class="edge">
<title>Node14&#45;&gt;Node16</title>
<path fill="none" stroke="#63b8ff" d="M1023.28,-230.98C1000.25,-222.27 964.24,-208.63 938.15,-198.75"/>
<polygon fill="#63b8ff" stroke="#63b8ff" points="939.27,-195.44 928.68,-195.17 936.79,-201.98 939.27,-195.44"/>
</g>
<!-- Node17 -->
<g id="node17" class="node">
<title>Node17</title>
<g id="a_node17"><a xlink:href="globals_8h.html" target="_top" xlink:title=" ">
<polygon fill="white" stroke="#666666" points="1101.28,-195 1040.28,-195 1040.28,-176 1101.28,-176 1101.28,-195"/>
<text text-anchor="middle" x="1070.78" y="-183" font-family="Helvetica,sans-Serif" font-size="10.00">globals.h</text>
</a>
</g>
</g>
<!-- Node14&#45;&gt;Node17 -->
<g id="edge26" class="edge">
<title>Node14&#45;&gt;Node17</title>
<path fill="none" stroke="#63b8ff" d="M1049.91,-230.75C1053.29,-223.57 1058.19,-213.18 1062.4,-204.27"/>
<polygon fill="#63b8ff" stroke="#63b8ff" points="1065.63,-205.63 1066.73,-195.09 1059.29,-202.64 1065.63,-205.63"/>
</g>
<!-- Node17&#45;&gt;Node9 -->
<g id="edge28" class="edge">
<title>Node17&#45;&gt;Node9</title>
<path fill="none" stroke="#63b8ff" d="M1040.25,-177.78C1037.05,-177.15 1033.85,-176.54 1030.78,-176 917.86,-156.12 783.73,-139.09 716.57,-131.01"/>
<polygon fill="#63b8ff" stroke="#63b8ff" points="716.73,-127.5 706.38,-129.79 715.9,-134.45 716.73,-127.5"/>
</g>
<!-- Node18 -->
<g id="node18" class="node">
<title>Node18</title>
<g id="a_node18"><a xlink:title=" ">
<polygon fill="#e0e0e0" stroke="#999999" points="1135.78,-140 1005.78,-140 1005.78,-110 1135.78,-110 1135.78,-140"/>
<text text-anchor="start" x="1013.78" y="-128" font-family="Helvetica,sans-Serif" font-size="10.00">SparkFun_u&#45;blox_SARA</text>
<text text-anchor="middle" x="1070.78" y="-117" font-family="Helvetica,sans-Serif" font-size="10.00">&#45;R5_Arduino_Library.h</text>
</a>
</g>
</g>
<!-- Node17&#45;&gt;Node18 -->
<g id="edge27" class="edge">
<title>Node17&#45;&gt;Node18</title>
<path fill="none" stroke="#63b8ff" d="M1070.78,-175.87C1070.78,-169.11 1070.78,-159.35 1070.78,-150.26"/>
<polygon fill="#63b8ff" stroke="#63b8ff" points="1074.28,-150.11 1070.78,-140.11 1067.28,-150.11 1074.28,-150.11"/>
</g>
<!-- Node19&#45;&gt;Node4 -->
<g id="edge30" class="edge">
<title>Node19&#45;&gt;Node4</title>
<path fill="none" stroke="#63b8ff" d="M882.35,-285.84C895.45,-276.83 912.36,-265.18 925.58,-256.09"/>
<polygon fill="#63b8ff" stroke="#63b8ff" points="927.79,-258.82 934.04,-250.27 923.82,-253.05 927.79,-258.82"/>
</g>
<!-- Node19&#45;&gt;Node5 -->
<g id="edge33" class="edge">
<title>Node19&#45;&gt;Node5</title>
<path fill="none" stroke="#63b8ff" d="M811.58,-288.01C808.61,-287.32 805.65,-286.65 802.78,-286 749.17,-273.93 687.62,-260.93 645.28,-252.12"/>
<polygon fill="#63b8ff" stroke="#63b8ff" points="645.98,-248.69 635.48,-250.08 644.55,-255.54 645.98,-248.69"/>
</g>
<!-- Node19&#45;&gt;Node7 -->
<g id="edge31" class="edge">
<title>Node19&#45;&gt;Node7</title>
<path fill="none" stroke="#63b8ff" d="M847.49,-285.84C838.84,-277.26 827.79,-266.3 818.83,-257.42"/>
<polygon fill="#63b8ff" stroke="#63b8ff" points="821.18,-254.82 811.62,-250.27 816.25,-259.79 821.18,-254.82"/>
</g>
<!-- Node19&#45;&gt;Node8 -->
<g id="edge32" class="edge">
<title>Node19&#45;&gt;Node8</title>
<path fill="none" stroke="#63b8ff" d="M825.37,-285.99C799.9,-276.18 766.19,-263.21 741.75,-253.81"/>
<polygon fill="#63b8ff" stroke="#63b8ff" points="742.81,-250.46 732.22,-250.14 740.3,-257 742.81,-250.46"/>
</g>
<!-- Node19&#45;&gt;Node9 -->
<g id="edge34" class="edge">
<title>Node19&#45;&gt;Node9</title>
<path fill="none" stroke="#63b8ff" d="M860.66,-285.99C858.85,-271.05 854.11,-247.32 841.78,-231 807.04,-185.03 745.82,-154.26 707.66,-138.48"/>
<polygon fill="#63b8ff" stroke="#63b8ff" points="708.6,-135.09 698.01,-134.61 705.99,-141.58 708.6,-135.09"/>
</g>
<!-- Node20&#45;&gt;Node4 -->
<g id="edge36" class="edge">
<title>Node20&#45;&gt;Node4</title>
<path fill="none" stroke="#63b8ff" d="M1127.65,-287.31C1086.73,-276.94 1029.47,-262.44 990.41,-252.55"/>
<polygon fill="#63b8ff" stroke="#63b8ff" points="990.95,-249.08 980.4,-250.01 989.23,-255.86 990.95,-249.08"/>
</g>
<!-- Node21 -->
<g id="node21" class="node">
<title>Node21</title>
<g id="a_node21"><a xlink:title=" ">
<polygon fill="#e0e0e0" stroke="#999999" points="1199.78,-250 1155.78,-250 1155.78,-231 1199.78,-231 1199.78,-250"/>
<text text-anchor="middle" x="1177.78" y="-238" font-family="Helvetica,sans-Serif" font-size="10.00">string</text>
</a>
</g>
</g>
<!-- Node20&#45;&gt;Node21 -->
<g id="edge37" class="edge">
<title>Node20&#45;&gt;Node21</title>
<path fill="none" stroke="#63b8ff" d="M1177.78,-285.84C1177.78,-278.21 1177.78,-268.7 1177.78,-260.45"/>
<polygon fill="#63b8ff" stroke="#63b8ff" points="1181.28,-260.27 1177.78,-250.27 1174.28,-260.27 1181.28,-260.27"/>
</g>
<!-- Node22&#45;&gt;Node4 -->
<g id="edge39" class="edge">
<title>Node22&#45;&gt;Node4</title>
<path fill="none" stroke="#63b8ff" d="M644.13,-287.37C647.05,-286.9 649.94,-286.45 652.78,-286 730.76,-273.75 820.47,-260.26 880.08,-251.38"/>
<polygon fill="#63b8ff" stroke="#63b8ff" points="880.74,-254.82 890.11,-249.89 879.71,-247.9 880.74,-254.82"/>
</g>
<!-- Node22&#45;&gt;Node5 -->
<g id="edge42" class="edge">
<title>Node22&#45;&gt;Node5</title>
<path fill="none" stroke="#63b8ff" d="M573.31,-285.84C576.95,-277.95 581.52,-268.05 585.42,-259.61"/>
<polygon fill="#63b8ff" stroke="#63b8ff" points="588.72,-260.81 589.73,-250.27 582.36,-257.88 588.72,-260.81"/>
</g>
<!-- Node22&#45;&gt;Node7 -->
<g id="edge40" class="edge">
<title>Node22&#45;&gt;Node7</title>
<path fill="none" stroke="#63b8ff" d="M623.31,-285.99C666.12,-275.38 723.9,-261.05 762.21,-251.56"/>
<polygon fill="#63b8ff" stroke="#63b8ff" points="763.12,-254.94 771.98,-249.13 761.43,-248.14 763.12,-254.94"/>
</g>
<!-- Node22&#45;&gt;Node8 -->
<g id="edge41" class="edge">
<title>Node22&#45;&gt;Node8</title>
<path fill="none" stroke="#63b8ff" d="M601.03,-285.99C624.89,-276.23 656.42,-263.33 679.39,-253.93"/>
<polygon fill="#63b8ff" stroke="#63b8ff" points="680.73,-257.17 688.66,-250.14 678.08,-250.69 680.73,-257.17"/>
</g>
<!-- Node23 -->
<g id="node23" class="node">
<title>Node23</title>
<g id="a_node23"><a xlink:href="_device_config_8h.html" target="_top" xlink:title="Node configuration options.">
<polygon fill="white" stroke="#666666" points="413.78,-250 323.78,-250 323.78,-231 413.78,-231 413.78,-250"/>
<text text-anchor="middle" x="368.78" y="-238" font-family="Helvetica,sans-Serif" font-size="10.00">DeviceConfig.h</text>
</a>
</g>
</g>
<!-- Node22&#45;&gt;Node23 -->
<g id="edge43" class="edge">
<title>Node22&#45;&gt;Node23</title>
<path fill="none" stroke="#63b8ff" d="M519.35,-285.99C485.18,-275.89 439.64,-262.44 407.62,-252.98"/>
<polygon fill="#63b8ff" stroke="#63b8ff" points="408.31,-249.53 397.73,-250.05 406.33,-256.24 408.31,-249.53"/>
</g>
<!-- Node23&#45;&gt;Node3 -->
<g id="edge44" class="edge">
<title>Node23&#45;&gt;Node3</title>
<path fill="none" stroke="#63b8ff" d="M368.78,-230.8C368.78,-197.36 368.78,-76.59 368.78,-29.49"/>
<polygon fill="#63b8ff" stroke="#63b8ff" points="372.28,-29.21 368.78,-19.21 365.28,-29.21 372.28,-29.21"/>
</g>
<!-- Node23&#45;&gt;Node16 -->
<g id="edge45" class="edge">
<title>Node23&#45;&gt;Node16</title>
<path fill="none" stroke="#63b8ff" d="M414.1,-235.03C513.33,-225.23 749.29,-201.94 854.09,-191.6"/>
<polygon fill="#63b8ff" stroke="#63b8ff" points="854.51,-195.08 864.12,-190.61 853.82,-188.11 854.51,-195.08"/>
</g>
<!-- Node24&#45;&gt;Node23 -->
<g id="edge47" class="edge">
<title>Node24&#45;&gt;Node23</title>
<path fill="none" stroke="#63b8ff" d="M153.94,-286.87C203.58,-276.39 272.23,-261.89 318.45,-252.13"/>
<polygon fill="#63b8ff" stroke="#63b8ff" points="319.19,-255.55 328.25,-250.06 317.74,-248.7 319.19,-255.55"/>
</g>
<!-- Node25&#45;&gt;Node23 -->
<g id="edge49" class="edge">
<title>Node25&#45;&gt;Node23</title>
<path fill="none" stroke="#63b8ff" d="M262.31,-285.99C285.56,-276.27 316.27,-263.44 338.72,-254.06"/>
<polygon fill="#63b8ff" stroke="#63b8ff" points="340.22,-257.22 348.1,-250.14 337.53,-250.77 340.22,-257.22"/>
</g>
<!-- Node26&#45;&gt;Node23 -->
<g id="edge51" class="edge">
<title>Node26&#45;&gt;Node23</title>
<path fill="none" stroke="#63b8ff" d="M368.78,-285.84C368.78,-278.21 368.78,-268.7 368.78,-260.45"/>
<polygon fill="#63b8ff" stroke="#63b8ff" points="372.28,-260.27 368.78,-250.27 365.28,-260.27 372.28,-260.27"/>
</g>
</g>
</svg>
