<?xml version="1.0" encoding="UTF-8" standalone="no"?>
<!DOCTYPE svg PUBLIC "-//W3C//DTD SVG 1.1//EN"
 "http://www.w3.org/Graphics/SVG/1.1/DTD/svg11.dtd">
<!-- Generated by graphviz version 2.43.0 (0)
 -->
<!-- Title: firmware/wombat/src/cli/CLI.cpp Pages: 1 -->
<svg width="1637pt" height="324pt"
 viewBox="0.00 0.00 1636.52 324.00" xmlns="http://www.w3.org/2000/svg" xmlns:xlink="http://www.w3.org/1999/xlink">
<g id="graph0" class="graph" transform="scale(1 1) rotate(0) translate(4 320)">
<title>firmware/wombat/src/cli/CLI.cpp</title>
<!-- Node1 -->
<g id="node1" class="node">
<title>Node1</title>
<g id="a_node1"><a xlink:title="FreeRTOS CLI handler.">
<polygon fill="#999999" stroke="#666666" points="757.52,-316 637.52,-316 637.52,-286 757.52,-286 757.52,-316"/>
<text text-anchor="start" x="645.52" y="-304" font-family="Helvetica,sans-Serif" font-size="10.00">firmware/wombat/src</text>
<text text-anchor="middle" x="697.52" y="-293" font-family="Helvetica,sans-Serif" font-size="10.00">/cli/CLI.cpp</text>
</a>
</g>
</g>
<!-- Node2 -->
<g id="node2" class="node">
<title>Node2</title>
<g id="a_node2"><a xlink:href="_c_l_i_8h.html" target="_top" xlink:title="FreeRTOS CLI handler.">
<polygon fill="white" stroke="#666666" points="725.02,-250 670.02,-250 670.02,-231 725.02,-231 725.02,-250"/>
<text text-anchor="middle" x="697.52" y="-238" font-family="Helvetica,sans-Serif" font-size="10.00">cli/CLI.h</text>
</a>
</g>
</g>
<!-- Node1&#45;&gt;Node2 -->
<g id="edge1" class="edge">
<title>Node1&#45;&gt;Node2</title>
<path fill="none" stroke="#63b8ff" d="M697.52,-285.84C697.52,-278.21 697.52,-268.7 697.52,-260.45"/>
<polygon fill="#63b8ff" stroke="#63b8ff" points="701.02,-260.27 697.52,-250.27 694.02,-260.27 701.02,-260.27"/>
</g>
<!-- Node3 -->
<g id="node3" class="node">
<title>Node3</title>
<g id="a_node3"><a xlink:title=" ">
<polygon fill="#e0e0e0" stroke="#999999" points="602.02,-19 539.02,-19 539.02,0 602.02,0 602.02,-19"/>
<text text-anchor="middle" x="570.52" y="-7" font-family="Helvetica,sans-Serif" font-size="10.00">Arduino.h</text>
</a>
</g>
</g>
<!-- Node2&#45;&gt;Node3 -->
<g id="edge2" class="edge">
<title>Node2&#45;&gt;Node3</title>
<path fill="none" stroke="#63b8ff" d="M669.87,-238.83C558.01,-235.94 142.51,-223.37 91.52,-195 33.41,-162.67 24.08,-137.24 3.52,-74 0.91,-65.97 -2.21,-61.2 3.52,-55 38.98,-16.65 403.14,-11.29 528.44,-10.59"/>
<polygon fill="#63b8ff" stroke="#63b8ff" points="528.79,-14.09 538.77,-10.54 528.75,-7.09 528.79,-14.09"/>
</g>
<!-- Node4 -->
<g id="node4" class="node">
<title>Node4</title>
<g id="a_node4"><a xlink:title=" ">
<polygon fill="#e0e0e0" stroke="#999999" points="998.02,-129 885.02,-129 885.02,-110 998.02,-110 998.02,-129"/>
<text text-anchor="middle" x="941.52" y="-117" font-family="Helvetica,sans-Serif" font-size="10.00">freertos/FreeRTOS.h</text>
</a>
</g>
</g>
<!-- Node2&#45;&gt;Node4 -->
<g id="edge3" class="edge">
<title>Node2&#45;&gt;Node4</title>
<path fill="none" stroke="#63b8ff" d="M712.84,-230.8C738.36,-216.43 791.33,-187.12 837.52,-165 861.83,-153.36 889.97,-141.4 910.84,-132.82"/>
<polygon fill="#63b8ff" stroke="#63b8ff" points="912.24,-136.04 920.17,-129.02 909.59,-129.56 912.24,-136.04"/>
</g>
<!-- Node5 -->
<g id="node5" class="node">
<title>Node5</title>
<g id="a_node5"><a xlink:title=" ">
<polygon fill="#e0e0e0" stroke="#999999" points="1392.02,-129 1285.02,-129 1285.02,-110 1392.02,-110 1392.02,-129"/>
<text text-anchor="middle" x="1338.52" y="-117" font-family="Helvetica,sans-Serif" font-size="10.00">cli/FreeRTOS_CLI.h</text>
</a>
</g>
</g>
<!-- Node2&#45;&gt;Node5 -->
<g id="edge4" class="edge">
<title>Node2&#45;&gt;Node5</title>
<path fill="none" stroke="#63b8ff" d="M725.08,-239.39C839.52,-238.7 1273.42,-233.54 1319.52,-195 1335.65,-181.52 1339.12,-156.43 1339.41,-139.11"/>
<polygon fill="#63b8ff" stroke="#63b8ff" points="1342.91,-139 1339.24,-129.06 1335.91,-139.12 1342.91,-139"/>
</g>
<!-- Node6 -->
<g id="node6" class="node">
<title>Node6</title>
<g id="a_node6"><a xlink:href="cat-m1_8h.html" target="_top" xlink:title="CAT&#45;M1 CLI command request and response handler.">
<polygon fill="white" stroke="#666666" points="1150.52,-189.5 1018.52,-189.5 1018.52,-170.5 1150.52,-170.5 1150.52,-189.5"/>
<text text-anchor="middle" x="1084.52" y="-177.5" font-family="Helvetica,sans-Serif" font-size="10.00">cli/peripherals/cat&#45;m1.h</text>
</a>
</g>
</g>
<!-- Node2&#45;&gt;Node6 -->
<g id="edge5" class="edge">
<title>Node2&#45;&gt;Node6</title>
<path fill="none" stroke="#63b8ff" d="M725.13,-235.97C779.61,-228.9 904.78,-212.24 1009.52,-195 1016.28,-193.89 1023.37,-192.65 1030.38,-191.39"/>
<polygon fill="#63b8ff" stroke="#63b8ff" points="1031.35,-194.77 1040.55,-189.53 1030.09,-187.89 1031.35,-194.77"/>
</g>
<!-- Node12 -->
<g id="node12" class="node">
<title>Node12</title>
<g id="a_node12"><a xlink:href="sdi12_8h.html" target="_top" xlink:title="SDI&#45;12 command line interface handler.">
<polygon fill="white" stroke="#666666" points="1292.52,-189.5 1168.52,-189.5 1168.52,-170.5 1292.52,-170.5 1292.52,-189.5"/>
<text text-anchor="middle" x="1230.52" y="-177.5" font-family="Helvetica,sans-Serif" font-size="10.00">cli/peripherals/sdi12.h</text>
</a>
</g>
</g>
<!-- Node2&#45;&gt;Node12 -->
<g id="edge15" class="edge">
<title>Node2&#45;&gt;Node12</title>
<path fill="none" stroke="#63b8ff" d="M725.23,-237.79C797.17,-233.14 995.67,-218.98 1159.52,-195 1166.37,-194 1173.56,-192.78 1180.62,-191.48"/>
<polygon fill="#63b8ff" stroke="#63b8ff" points="1181.66,-194.85 1190.83,-189.54 1180.36,-187.97 1181.66,-194.85"/>
</g>
<!-- Node17 -->
<g id="node17" class="node">
<title>Node17</title>
<g id="a_node17"><a xlink:href="server_8h.html" target="_top" xlink:title="Handle the setup and maintenance of the BLE server and connected clients.">
<polygon fill="white" stroke="#666666" points="590.02,-189.5 485.02,-189.5 485.02,-170.5 590.02,-170.5 590.02,-189.5"/>
<text text-anchor="middle" x="537.52" y="-177.5" font-family="Helvetica,sans-Serif" font-size="10.00">bluetooth/server.h</text>
</a>
</g>
</g>
<!-- Node2&#45;&gt;Node17 -->
<g id="edge26" class="edge">
<title>Node2&#45;&gt;Node17</title>
<path fill="none" stroke="#63b8ff" d="M669.69,-231.12C640.45,-221.23 594.98,-204.69 565.64,-193.34"/>
<polygon fill="#63b8ff" stroke="#63b8ff" points="566.57,-189.94 555.98,-189.56 564.02,-196.46 566.57,-189.94"/>
</g>
<!-- Node30 -->
<g id="node30" class="node">
<title>Node30</title>
<g id="a_node30"><a xlink:href="acquisition__intervals_8h.html" target="_top" xlink:title="Handles the time between measurements and uplinks by the device over LTE.">
<polygon fill="white" stroke="#666666" points="1000.52,-195 846.52,-195 846.52,-165 1000.52,-165 1000.52,-195"/>
<text text-anchor="start" x="854.52" y="-183" font-family="Helvetica,sans-Serif" font-size="10.00">cli/device_config/acquisition</text>
<text text-anchor="middle" x="923.52" y="-172" font-family="Helvetica,sans-Serif" font-size="10.00">_intervals.h</text>
</a>
</g>
</g>
<!-- Node2&#45;&gt;Node30 -->
<g id="edge56" class="edge">
<title>Node2&#45;&gt;Node30</title>
<path fill="none" stroke="#63b8ff" d="M725.23,-232.33C758.43,-223.73 815.12,-209.06 859.41,-197.6"/>
<polygon fill="#63b8ff" stroke="#63b8ff" points="860.42,-200.95 869.22,-195.05 858.67,-194.17 860.42,-200.95"/>
</g>
<!-- Node33 -->
<g id="node33" class="node">
<title>Node33</title>
<g id="a_node33"><a xlink:href="mqtt__cli_8h.html" target="_top" xlink:title="MQTT setup and configuration through the CLI.">
<polygon fill="white" stroke="#666666" points="224.52,-195 100.52,-195 100.52,-165 224.52,-165 224.52,-195"/>
<text text-anchor="start" x="108.52" y="-183" font-family="Helvetica,sans-Serif" font-size="10.00">cli/device_config/mqtt</text>
<text text-anchor="middle" x="162.52" y="-172" font-family="Helvetica,sans-Serif" font-size="10.00">_cli.h</text>
</a>
</g>
</g>
<!-- Node2&#45;&gt;Node33 -->
<g id="edge64" class="edge">
<title>Node2&#45;&gt;Node33</title>
<path fill="none" stroke="#63b8ff" d="M669.88,-236.48C589.63,-227.7 354.69,-202.01 234.76,-188.9"/>
<polygon fill="#63b8ff" stroke="#63b8ff" points="234.89,-185.39 224.57,-187.79 234.13,-192.35 234.89,-185.39"/>
</g>
<!-- Node34 -->
<g id="node34" class="node">
<title>Node34</title>
<g id="a_node34"><a xlink:href="config__cli_8h.html" target="_top" xlink:title=" ">
<polygon fill="white" stroke="#666666" points="430.52,-195 300.52,-195 300.52,-165 430.52,-165 430.52,-195"/>
<text text-anchor="start" x="308.52" y="-183" font-family="Helvetica,sans-Serif" font-size="10.00">cli/device_config/config</text>
<text text-anchor="middle" x="365.52" y="-172" font-family="Helvetica,sans-Serif" font-size="10.00">_cli.h</text>
</a>
</g>
</g>
<!-- Node2&#45;&gt;Node34 -->
<g id="edge66" class="edge">
<title>Node2&#45;&gt;Node34</title>
<path fill="none" stroke="#63b8ff" d="M669.78,-234.61C619.92,-225.83 513.56,-207.09 440.78,-194.26"/>
<polygon fill="#63b8ff" stroke="#63b8ff" points="441.2,-190.78 430.75,-192.49 439.99,-197.68 441.2,-190.78"/>
</g>
<!-- Node6&#45;&gt;Node4 -->
<g id="edge6" class="edge">
<title>Node6&#45;&gt;Node4</title>
<path fill="none" stroke="#63b8ff" d="M1063.73,-170.49C1039.58,-160.62 999.54,-144.23 971.9,-132.93"/>
<polygon fill="#63b8ff" stroke="#63b8ff" points="972.92,-129.56 962.34,-129.02 970.27,-136.04 972.92,-129.56"/>
</g>
<!-- Node6&#45;&gt;Node5 -->
<g id="edge9" class="edge">
<title>Node6&#45;&gt;Node5</title>
<path fill="none" stroke="#63b8ff" d="M1121.45,-170.49C1166.41,-160.14 1242.4,-142.64 1291.49,-131.33"/>
<polygon fill="#63b8ff" stroke="#63b8ff" points="1292.58,-134.67 1301.54,-129.02 1291.01,-127.85 1292.58,-134.67"/>
</g>
<!-- Node7 -->
<g id="node7" class="node">
<title>Node7</title>
<g id="a_node7"><a xlink:title=" ">
<polygon fill="#e0e0e0" stroke="#999999" points="1160.02,-129 1099.02,-129 1099.02,-110 1160.02,-110 1160.02,-129"/>
<text text-anchor="middle" x="1129.52" y="-117" font-family="Helvetica,sans-Serif" font-size="10.00">Stream.h</text>
</a>
</g>
</g>
<!-- Node6&#45;&gt;Node7 -->
<g id="edge7" class="edge">
<title>Node6&#45;&gt;Node7</title>
<path fill="none" stroke="#63b8ff" d="M1091.16,-170.37C1097.81,-161.73 1108.21,-148.2 1116.51,-137.42"/>
<polygon fill="#63b8ff" stroke="#63b8ff" points="1119.53,-139.23 1122.85,-129.17 1113.98,-134.96 1119.53,-139.23"/>
</g>
<!-- Node8 -->
<g id="node8" class="node">
<title>Node8</title>
<g id="a_node8"><a xlink:title=" ">
<polygon fill="#e0e0e0" stroke="#999999" points="1267.02,-129 1178.02,-129 1178.02,-110 1267.02,-110 1267.02,-129"/>
<text text-anchor="middle" x="1222.52" y="-117" font-family="Helvetica,sans-Serif" font-size="10.00">StreamString.h</text>
</a>
</g>
</g>
<!-- Node6&#45;&gt;Node8 -->
<g id="edge8" class="edge">
<title>Node6&#45;&gt;Node8</title>
<path fill="none" stroke="#63b8ff" d="M1104.59,-170.49C1127.89,-160.62 1166.53,-144.23 1193.2,-132.93"/>
<polygon fill="#63b8ff" stroke="#63b8ff" points="1194.59,-136.14 1202.43,-129.02 1191.86,-129.7 1194.59,-136.14"/>
</g>
<!-- Node9 -->
<g id="node9" class="node">
<title>Node9</title>
<g id="a_node9"><a xlink:href="_c_a_t___m1_8h.html" target="_top" xlink:title=" ">
<polygon fill="white" stroke="#666666" points="1081.02,-129 1016.02,-129 1016.02,-110 1081.02,-110 1081.02,-129"/>
<text text-anchor="middle" x="1048.52" y="-117" font-family="Helvetica,sans-Serif" font-size="10.00">CAT_M1.h</text>
</a>
</g>
</g>
<!-- Node6&#45;&gt;Node9 -->
<g id="edge10" class="edge">
<title>Node6&#45;&gt;Node9</title>
<path fill="none" stroke="#63b8ff" d="M1079.21,-170.37C1073.94,-161.81 1065.73,-148.47 1059.13,-137.74"/>
<polygon fill="#63b8ff" stroke="#63b8ff" points="1062.07,-135.85 1053.85,-129.17 1056.11,-139.52 1062.07,-135.85"/>
</g>
<!-- Node10 -->
<g id="node10" class="node">
<title>Node10</title>
<g id="a_node10"><a xlink:title=" ">
<polygon fill="#e0e0e0" stroke="#999999" points="1145.52,-19 1097.52,-19 1097.52,0 1145.52,0 1145.52,-19"/>
<text text-anchor="middle" x="1121.52" y="-7" font-family="Helvetica,sans-Serif" font-size="10.00">Wire.h</text>
</a>
</g>
</g>
<!-- Node9&#45;&gt;Node10 -->
<g id="edge11" class="edge">
<title>Node9&#45;&gt;Node10</title>
<path fill="none" stroke="#63b8ff" d="M1081.44,-110.38C1100.23,-103.88 1122.22,-92.67 1133.52,-74 1141.85,-60.23 1137.08,-41.96 1131.27,-28.55"/>
<polygon fill="#63b8ff" stroke="#63b8ff" points="1134.35,-26.87 1126.83,-19.4 1128.05,-29.92 1134.35,-26.87"/>
</g>
<!-- Node11 -->
<g id="node11" class="node">
<title>Node11</title>
<g id="a_node11"><a xlink:href="_t_c_a9534_8h.html" target="_top" xlink:title=" ">
<polygon fill="white" stroke="#666666" points="1124.52,-74 1056.52,-74 1056.52,-55 1124.52,-55 1124.52,-74"/>
<text text-anchor="middle" x="1090.52" y="-62" font-family="Helvetica,sans-Serif" font-size="10.00">TCA9534.h</text>
</a>
</g>
</g>
<!-- Node9&#45;&gt;Node11 -->
<g id="edge12" class="edge">
<title>Node9&#45;&gt;Node11</title>
<path fill="none" stroke="#63b8ff" d="M1055.45,-109.75C1061.39,-102.26 1070.09,-91.28 1077.34,-82.13"/>
<polygon fill="#63b8ff" stroke="#63b8ff" points="1080.25,-84.1 1083.71,-74.09 1074.76,-79.75 1080.25,-84.1"/>
</g>
<!-- Node11&#45;&gt;Node3 -->
<g id="edge13" class="edge">
<title>Node11&#45;&gt;Node3</title>
<path fill="none" stroke="#63b8ff" d="M1056.31,-56.41C1053.34,-55.89 1050.38,-55.42 1047.52,-55 887.48,-31.78 695.38,-18.16 612.25,-12.95"/>
<polygon fill="#63b8ff" stroke="#63b8ff" points="612.38,-9.46 602.19,-12.33 611.95,-16.44 612.38,-9.46"/>
</g>
<!-- Node11&#45;&gt;Node10 -->
<g id="edge14" class="edge">
<title>Node11&#45;&gt;Node10</title>
<path fill="none" stroke="#63b8ff" d="M1095.64,-54.75C1099.88,-47.49 1106.05,-36.95 1111.29,-27.98"/>
<polygon fill="#63b8ff" stroke="#63b8ff" points="1114.47,-29.49 1116.5,-19.09 1108.43,-25.95 1114.47,-29.49"/>
</g>
<!-- Node12&#45;&gt;Node4 -->
<g id="edge16" class="edge">
<title>Node12&#45;&gt;Node4</title>
<path fill="none" stroke="#63b8ff" d="M1188.5,-170.49C1136.91,-160.05 1049.44,-142.35 993.63,-131.05"/>
<polygon fill="#63b8ff" stroke="#63b8ff" points="994.09,-127.57 983.59,-129.02 992.7,-134.43 994.09,-127.57"/>
</g>
<!-- Node12&#45;&gt;Node5 -->
<g id="edge21" class="edge">
<title>Node12&#45;&gt;Node5</title>
<path fill="none" stroke="#63b8ff" d="M1246.46,-170.37C1264.16,-160.78 1292.98,-145.17 1313.66,-133.97"/>
<polygon fill="#63b8ff" stroke="#63b8ff" points="1315.39,-137.01 1322.52,-129.17 1312.06,-130.85 1315.39,-137.01"/>
</g>
<!-- Node12&#45;&gt;Node7 -->
<g id="edge17" class="edge">
<title>Node12&#45;&gt;Node7</title>
<path fill="none" stroke="#63b8ff" d="M1215.62,-170.37C1199.21,-160.86 1172.59,-145.45 1153.29,-134.27"/>
<polygon fill="#63b8ff" stroke="#63b8ff" points="1154.89,-131.15 1144.48,-129.17 1151.38,-137.21 1154.89,-131.15"/>
</g>
<!-- Node12&#45;&gt;Node8 -->
<g id="edge18" class="edge">
<title>Node12&#45;&gt;Node8</title>
<path fill="none" stroke="#63b8ff" d="M1229.34,-170.37C1228.23,-162.25 1226.53,-149.81 1225.1,-139.39"/>
<polygon fill="#63b8ff" stroke="#63b8ff" points="1228.53,-138.6 1223.7,-129.17 1221.59,-139.55 1228.53,-138.6"/>
</g>
<!-- Node12&#45;&gt;Node12 -->
<g id="edge19" class="edge">
<title>Node12&#45;&gt;Node12</title>
<path fill="none" stroke="#63b8ff" d="M1260.06,-189.53C1284.73,-193.61 1310.52,-190.43 1310.52,-180 1310.52,-171 1291.3,-167.4 1270.17,-169.2"/>
<polygon fill="#63b8ff" stroke="#63b8ff" points="1269.55,-165.75 1260.06,-170.47 1270.42,-172.7 1269.55,-165.75"/>
</g>
<!-- Node13 -->
<g id="node13" class="node">
<title>Node13</title>
<g id="a_node13"><a xlink:title=" ">
<polygon fill="#e0e0e0" stroke="#999999" points="1453.02,-74 1360.02,-74 1360.02,-55 1453.02,-55 1453.02,-74"/>
<text text-anchor="middle" x="1406.52" y="-62" font-family="Helvetica,sans-Serif" font-size="10.00">dpiclimate&#45;12.h</text>
</a>
</g>
</g>
<!-- Node12&#45;&gt;Node13 -->
<g id="edge20" class="edge">
<title>Node12&#45;&gt;Node13</title>
<path fill="none" stroke="#63b8ff" d="M1292.62,-177.62C1330.09,-173.26 1375.48,-161.04 1401.52,-129 1411.54,-116.68 1411.89,-98.2 1410.27,-84.34"/>
<polygon fill="#63b8ff" stroke="#63b8ff" points="1413.72,-83.76 1408.69,-74.44 1406.8,-84.86 1413.72,-83.76"/>
</g>
<!-- Node14 -->
<g id="node14" class="node">
<title>Node14</title>
<g id="a_node14"><a xlink:href="_utils_8h.html" target="_top" xlink:title=" ">
<polygon fill="white" stroke="#666666" points="1523.52,-129 1475.52,-129 1475.52,-110 1523.52,-110 1523.52,-129"/>
<text text-anchor="middle" x="1499.52" y="-117" font-family="Helvetica,sans-Serif" font-size="10.00">Utils.h</text>
</a>
</g>
</g>
<!-- Node12&#45;&gt;Node14 -->
<g id="edge22" class="edge">
<title>Node12&#45;&gt;Node14</title>
<path fill="none" stroke="#63b8ff" d="M1269.63,-170.49C1322.28,-159.04 1415.1,-138.86 1465.18,-127.97"/>
<polygon fill="#63b8ff" stroke="#63b8ff" points="1466.16,-131.34 1475.19,-125.79 1464.67,-124.5 1466.16,-131.34"/>
</g>
<!-- Node14&#45;&gt;Node13 -->
<g id="edge25" class="edge">
<title>Node14&#45;&gt;Node13</title>
<path fill="none" stroke="#63b8ff" d="M1484.58,-109.98C1470.02,-101.69 1447.65,-88.94 1430.59,-79.22"/>
<polygon fill="#63b8ff" stroke="#63b8ff" points="1432.15,-76.08 1421.73,-74.17 1428.69,-82.16 1432.15,-76.08"/>
</g>
<!-- Node15 -->
<g id="node15" class="node">
<title>Node15</title>
<g id="a_node15"><a xlink:title=" ">
<polygon fill="#e0e0e0" stroke="#999999" points="1628.52,-74 1572.52,-74 1572.52,-55 1628.52,-55 1628.52,-74"/>
<text text-anchor="middle" x="1600.52" y="-62" font-family="Helvetica,sans-Serif" font-size="10.00">stddef.h</text>
</a>
</g>
</g>
<!-- Node14&#45;&gt;Node15 -->
<g id="edge23" class="edge">
<title>Node14&#45;&gt;Node15</title>
<path fill="none" stroke="#63b8ff" d="M1515.75,-109.98C1531.7,-101.61 1556.3,-88.7 1574.9,-78.95"/>
<polygon fill="#63b8ff" stroke="#63b8ff" points="1576.77,-81.92 1584,-74.17 1573.52,-75.72 1576.77,-81.92"/>
</g>
<!-- Node16 -->
<g id="node16" class="node">
<title>Node16</title>
<g id="a_node16"><a xlink:title=" ">
<polygon fill="#e0e0e0" stroke="#999999" points="1554.02,-74 1471.02,-74 1471.02,-55 1554.02,-55 1554.02,-74"/>
<text text-anchor="middle" x="1512.52" y="-62" font-family="Helvetica,sans-Serif" font-size="10.00">ArduinoJson.h</text>
</a>
</g>
</g>
<!-- Node14&#45;&gt;Node16 -->
<g id="edge24" class="edge">
<title>Node14&#45;&gt;Node16</title>
<path fill="none" stroke="#63b8ff" d="M1501.67,-109.75C1503.39,-102.72 1505.87,-92.62 1508.02,-83.84"/>
<polygon fill="#63b8ff" stroke="#63b8ff" points="1511.43,-84.63 1510.41,-74.09 1504.63,-82.97 1511.43,-84.63"/>
</g>
<!-- Node17&#45;&gt;Node2 -->
<g id="edge55" class="edge">
<title>Node17&#45;&gt;Node2</title>
<path fill="none" stroke="#63b8ff" d="M565.74,-189.52C595.06,-199.44 640.37,-215.92 669.58,-227.23"/>
<polygon fill="#63b8ff" stroke="#63b8ff" points="668.59,-230.6 679.18,-230.99 671.15,-224.09 668.59,-230.6"/>
</g>
<!-- Node18 -->
<g id="node18" class="node">
<title>Node18</title>
<g id="a_node18"><a xlink:title=" ">
<polygon fill="#e0e0e0" stroke="#999999" points="867.02,-129 790.02,-129 790.02,-110 867.02,-110 867.02,-129"/>
<text text-anchor="middle" x="828.52" y="-117" font-family="Helvetica,sans-Serif" font-size="10.00">BLEDevice.h</text>
</a>
</g>
</g>
<!-- Node17&#45;&gt;Node18 -->
<g id="edge27" class="edge">
<title>Node17&#45;&gt;Node18</title>
<path fill="none" stroke="#63b8ff" d="M579.83,-170.49C632.96,-159.81 723.9,-141.53 779.85,-130.28"/>
<polygon fill="#63b8ff" stroke="#63b8ff" points="780.76,-133.67 789.87,-128.27 779.38,-126.81 780.76,-133.67"/>
</g>
<!-- Node19 -->
<g id="node19" class="node">
<title>Node19</title>
<g id="a_node19"><a xlink:title=" ">
<polygon fill="#e0e0e0" stroke="#999999" points="672.52,-74 598.52,-74 598.52,-55 672.52,-55 672.52,-74"/>
<text text-anchor="middle" x="635.52" y="-62" font-family="Helvetica,sans-Serif" font-size="10.00">BLEServer.h</text>
</a>
</g>
</g>
<!-- Node17&#45;&gt;Node19 -->
<g id="edge28" class="edge">
<title>Node17&#45;&gt;Node19</title>
<path fill="none" stroke="#63b8ff" d="M544.89,-170.47C561.13,-151.65 600.27,-106.32 621.41,-81.84"/>
<polygon fill="#63b8ff" stroke="#63b8ff" points="624.18,-83.99 628.07,-74.13 618.88,-79.41 624.18,-83.99"/>
</g>
<!-- Node20 -->
<g id="node20" class="node">
<title>Node20</title>
<g id="a_node20"><a xlink:title=" ">
<polygon fill="#e0e0e0" stroke="#999999" points="273.52,-129 207.52,-129 207.52,-110 273.52,-110 273.52,-129"/>
<text text-anchor="middle" x="240.52" y="-117" font-family="Helvetica,sans-Serif" font-size="10.00">BLEUtils.h</text>
</a>
</g>
</g>
<!-- Node17&#45;&gt;Node20 -->
<g id="edge29" class="edge">
<title>Node17&#45;&gt;Node20</title>
<path fill="none" stroke="#63b8ff" d="M493.73,-170.5C445.01,-161.02 363.65,-145.14 283.77,-129.24"/>
<polygon fill="#63b8ff" stroke="#63b8ff" points="284.02,-125.72 273.53,-127.2 282.65,-132.59 284.02,-125.72"/>
</g>
<!-- Node21 -->
<g id="node21" class="node">
<title>Node21</title>
<g id="a_node21"><a xlink:title=" ">
<polygon fill="#e0e0e0" stroke="#999999" points="412.52,-74 344.52,-74 344.52,-55 412.52,-55 412.52,-74"/>
<text text-anchor="middle" x="378.52" y="-62" font-family="Helvetica,sans-Serif" font-size="10.00">BLE2902.h</text>
</a>
</g>
</g>
<!-- Node17&#45;&gt;Node21 -->
<g id="edge30" class="edge">
<title>Node17&#45;&gt;Node21</title>
<path fill="none" stroke="#63b8ff" d="M513.8,-170.4C492.15,-161.88 459.9,-147.44 435.52,-129 417.88,-115.66 401.43,-96.28 390.78,-82.45"/>
<polygon fill="#63b8ff" stroke="#63b8ff" points="393.46,-80.18 384.66,-74.27 387.85,-84.38 393.46,-80.18"/>
</g>
<!-- Node22 -->
<g id="node22" class="node">
<title>Node22</title>
<g id="a_node22"><a xlink:href="uart_8h.html" target="_top" xlink:title="BluetoothLE UART service setup and handling.">
<polygon fill="white" stroke="#666666" points="387.02,-129 292.02,-129 292.02,-110 387.02,-110 387.02,-129"/>
<text text-anchor="middle" x="339.52" y="-117" font-family="Helvetica,sans-Serif" font-size="10.00">bluetooth/uart.h</text>
</a>
</g>
</g>
<!-- Node17&#45;&gt;Node22 -->
<g id="edge31" class="edge">
<title>Node17&#45;&gt;Node22</title>
<path fill="none" stroke="#63b8ff" d="M503.8,-170.49C467.27,-160.36 409.58,-143.37 373.1,-132.05"/>
<polygon fill="#63b8ff" stroke="#63b8ff" points="374,-128.66 363.41,-129.02 371.91,-135.34 374,-128.66"/>
</g>
<!-- Node25 -->
<g id="node25" class="node">
<title>Node25</title>
<g id="a_node25"><a xlink:href="device_8h.html" target="_top" xlink:title="Bluetooth device services and device information.">
<polygon fill="white" stroke="#666666" points="551.02,-129 444.02,-129 444.02,-110 551.02,-110 551.02,-129"/>
<text text-anchor="middle" x="497.52" y="-117" font-family="Helvetica,sans-Serif" font-size="10.00">bluetooth/device.h</text>
</a>
</g>
</g>
<!-- Node17&#45;&gt;Node25 -->
<g id="edge39" class="edge">
<title>Node17&#45;&gt;Node25</title>
<path fill="none" stroke="#63b8ff" d="M531.62,-170.37C525.77,-161.81 516.65,-148.47 509.31,-137.74"/>
<polygon fill="#63b8ff" stroke="#63b8ff" points="511.98,-135.45 503.45,-129.17 506.2,-139.4 511.98,-135.45"/>
</g>
<!-- Node26 -->
<g id="node26" class="node">
<title>Node26</title>
<g id="a_node26"><a xlink:href="power__monitoring_8h.html" target="_top" xlink:title="Setup BluetoothLE power monitoring information.">
<polygon fill="white" stroke="#666666" points="771.52,-129 607.52,-129 607.52,-110 771.52,-110 771.52,-129"/>
<text text-anchor="middle" x="689.52" y="-117" font-family="Helvetica,sans-Serif" font-size="10.00">bluetooth/power_monitoring.h</text>
</a>
</g>
</g>
<!-- Node17&#45;&gt;Node26 -->
<g id="edge44" class="edge">
<title>Node17&#45;&gt;Node26</title>
<path fill="none" stroke="#63b8ff" d="M559.62,-170.49C585.51,-160.53 628.6,-143.95 657.99,-132.63"/>
<polygon fill="#63b8ff" stroke="#63b8ff" points="659.31,-135.88 667.39,-129.02 656.8,-129.34 659.31,-135.88"/>
</g>
<!-- Node22&#45;&gt;Node3 -->
<g id="edge32" class="edge">
<title>Node22&#45;&gt;Node3</title>
<path fill="none" stroke="#63b8ff" d="M335.67,-109.97C330.29,-96.61 322.55,-70.65 335.52,-55 359.56,-25.98 467.64,-15.74 528.5,-12.24"/>
<polygon fill="#63b8ff" stroke="#63b8ff" points="528.77,-15.73 538.57,-11.7 528.39,-8.74 528.77,-15.73"/>
</g>
<!-- Node22&#45;&gt;Node17 -->
<g id="edge38" class="edge">
<title>Node22&#45;&gt;Node17</title>
<path fill="none" stroke="#63b8ff" d="M373.28,-129.02C409.82,-139.16 467.51,-156.15 503.97,-167.46"/>
<polygon fill="#63b8ff" stroke="#63b8ff" points="503.07,-170.85 513.66,-170.49 505.16,-164.17 503.07,-170.85"/>
</g>
<!-- Node22&#45;&gt;Node19 -->
<g id="edge34" class="edge">
<title>Node22&#45;&gt;Node19</title>
<path fill="none" stroke="#63b8ff" d="M387.08,-109.98C442.46,-100.07 533.38,-83.79 588.52,-73.91"/>
<polygon fill="#63b8ff" stroke="#63b8ff" points="589.16,-77.36 598.39,-72.15 587.93,-70.47 589.16,-77.36"/>
</g>
<!-- Node22&#45;&gt;Node21 -->
<g id="edge35" class="edge">
<title>Node22&#45;&gt;Node21</title>
<path fill="none" stroke="#63b8ff" d="M345.96,-109.75C351.41,-102.34 359.38,-91.5 366.08,-82.41"/>
<polygon fill="#63b8ff" stroke="#63b8ff" points="369.09,-84.22 372.2,-74.09 363.45,-80.07 369.09,-84.22"/>
</g>
<!-- Node23 -->
<g id="node23" class="node">
<title>Node23</title>
<g id="a_node23"><a xlink:title=" ">
<polygon fill="#e0e0e0" stroke="#999999" points="542.02,-74 431.02,-74 431.02,-55 542.02,-55 542.02,-74"/>
<text text-anchor="middle" x="486.52" y="-62" font-family="Helvetica,sans-Serif" font-size="10.00">BLECharacteristic.h</text>
</a>
</g>
</g>
<!-- Node22&#45;&gt;Node23 -->
<g id="edge33" class="edge">
<title>Node22&#45;&gt;Node23</title>
<path fill="none" stroke="#63b8ff" d="M363.14,-109.98C387.42,-101.23 425.47,-87.51 452.89,-77.62"/>
<polygon fill="#63b8ff" stroke="#63b8ff" points="454.25,-80.85 462.47,-74.17 451.88,-74.27 454.25,-80.85"/>
</g>
<!-- Node24 -->
<g id="node24" class="node">
<title>Node24</title>
<g id="a_node24"><a xlink:href="tones_8h.html" target="_top" xlink:title="Audio control for the onboard piezo buzzer.">
<polygon fill="white" stroke="#666666" points="288.02,-74 157.02,-74 157.02,-55 288.02,-55 288.02,-74"/>
<text text-anchor="middle" x="222.52" y="-62" font-family="Helvetica,sans-Serif" font-size="10.00">audio&#45;feedback/tones.h</text>
</a>
</g>
</g>
<!-- Node22&#45;&gt;Node24 -->
<g id="edge36" class="edge">
<title>Node22&#45;&gt;Node24</title>
<path fill="none" stroke="#63b8ff" d="M320.72,-109.98C301.9,-101.46 272.7,-88.23 251.02,-78.41"/>
<polygon fill="#63b8ff" stroke="#63b8ff" points="252.21,-75.11 241.66,-74.17 249.32,-81.48 252.21,-75.11"/>
</g>
<!-- Node24&#45;&gt;Node3 -->
<g id="edge37" class="edge">
<title>Node24&#45;&gt;Node3</title>
<path fill="none" stroke="#63b8ff" d="M278.43,-54.98C348.32,-44.34 466.33,-26.37 528.81,-16.85"/>
<polygon fill="#63b8ff" stroke="#63b8ff" points="529.36,-20.31 538.71,-15.34 528.3,-13.39 529.36,-20.31"/>
</g>
<!-- Node25&#45;&gt;Node3 -->
<g id="edge40" class="edge">
<title>Node25&#45;&gt;Node3</title>
<path fill="none" stroke="#63b8ff" d="M512.44,-109.74C524.63,-101.85 541.44,-89.18 551.52,-74 560.47,-60.52 565.32,-42.69 567.87,-29.35"/>
<polygon fill="#63b8ff" stroke="#63b8ff" points="571.34,-29.84 569.52,-19.4 564.44,-28.7 571.34,-29.84"/>
</g>
<!-- Node25&#45;&gt;Node19 -->
<g id="edge42" class="edge">
<title>Node25&#45;&gt;Node19</title>
<path fill="none" stroke="#63b8ff" d="M519.69,-109.98C542.29,-101.3 577.58,-87.75 603.27,-77.88"/>
<polygon fill="#63b8ff" stroke="#63b8ff" points="604.86,-81.02 612.94,-74.17 602.35,-74.49 604.86,-81.02"/>
</g>
<!-- Node25&#45;&gt;Node21 -->
<g id="edge43" class="edge">
<title>Node25&#45;&gt;Node21</title>
<path fill="none" stroke="#63b8ff" d="M478.4,-109.98C459.17,-101.42 429.29,-88.11 407.21,-78.28"/>
<polygon fill="#63b8ff" stroke="#63b8ff" points="408.55,-75.04 397.99,-74.17 405.7,-81.44 408.55,-75.04"/>
</g>
<!-- Node25&#45;&gt;Node23 -->
<g id="edge41" class="edge">
<title>Node25&#45;&gt;Node23</title>
<path fill="none" stroke="#63b8ff" d="M495.7,-109.75C494.26,-102.8 492.19,-92.85 490.39,-84.13"/>
<polygon fill="#63b8ff" stroke="#63b8ff" points="493.76,-83.17 488.3,-74.09 486.91,-84.59 493.76,-83.17"/>
</g>
<!-- Node26&#45;&gt;Node3 -->
<g id="edge45" class="edge">
<title>Node26&#45;&gt;Node3</title>
<path fill="none" stroke="#63b8ff" d="M691,-109.66C692.71,-96.35 693.88,-71.01 681.52,-55 664.87,-33.43 636.11,-22.28 612.04,-16.54"/>
<polygon fill="#63b8ff" stroke="#63b8ff" points="612.58,-13.07 602.06,-14.39 611.1,-19.91 612.58,-13.07"/>
</g>
<!-- Node26&#45;&gt;Node19 -->
<g id="edge47" class="edge">
<title>Node26&#45;&gt;Node19</title>
<path fill="none" stroke="#63b8ff" d="M680.6,-109.75C672.74,-102.03 661.09,-90.6 651.6,-81.28"/>
<polygon fill="#63b8ff" stroke="#63b8ff" points="653.86,-78.6 644.27,-74.09 648.96,-83.59 653.86,-78.6"/>
</g>
<!-- Node26&#45;&gt;Node21 -->
<g id="edge48" class="edge">
<title>Node26&#45;&gt;Node21</title>
<path fill="none" stroke="#63b8ff" d="M636.01,-110C582.05,-101.32 496.41,-87.29 422.52,-74 422.42,-73.98 422.32,-73.96 422.22,-73.95"/>
<polygon fill="#63b8ff" stroke="#63b8ff" points="423.08,-70.55 412.61,-72.18 421.81,-77.43 423.08,-70.55"/>
</g>
<!-- Node26&#45;&gt;Node23 -->
<g id="edge46" class="edge">
<title>Node26&#45;&gt;Node23</title>
<path fill="none" stroke="#63b8ff" d="M656.9,-109.98C622.23,-100.93 567.26,-86.58 529.17,-76.64"/>
<polygon fill="#63b8ff" stroke="#63b8ff" points="529.95,-73.22 519.39,-74.08 528.18,-79.99 529.95,-73.22"/>
</g>
<!-- Node27 -->
<g id="node27" class="node">
<title>Node27</title>
<g id="a_node27"><a xlink:href="solar_8h.html" target="_top" xlink:title="Solar voltage and current monitoring using INA219 IC.">
<polygon fill="white" stroke="#666666" points="868.52,-74 728.52,-74 728.52,-55 868.52,-55 868.52,-74"/>
<text text-anchor="middle" x="798.52" y="-62" font-family="Helvetica,sans-Serif" font-size="10.00">power_monitoring/solar.h</text>
</a>
</g>
</g>
<!-- Node26&#45;&gt;Node27 -->
<g id="edge49" class="edge">
<title>Node26&#45;&gt;Node27</title>
<path fill="none" stroke="#63b8ff" d="M707.03,-109.98C724.49,-101.5 751.53,-88.35 771.69,-78.54"/>
<polygon fill="#63b8ff" stroke="#63b8ff" points="773.23,-81.69 780.69,-74.17 770.16,-75.4 773.23,-81.69"/>
</g>
<!-- Node29 -->
<g id="node29" class="node">
<title>Node29</title>
<g id="a_node29"><a xlink:href="battery_8h.html" target="_top" xlink:title="Battery voltage and current monitoring using INA219 IC.">
<polygon fill="white" stroke="#666666" points="1038.02,-74 887.02,-74 887.02,-55 1038.02,-55 1038.02,-74"/>
<text text-anchor="middle" x="962.52" y="-62" font-family="Helvetica,sans-Serif" font-size="10.00">power_monitoring/battery.h</text>
</a>
</g>
</g>
<!-- Node26&#45;&gt;Node29 -->
<g id="edge52" class="edge">
<title>Node26&#45;&gt;Node29</title>
<path fill="none" stroke="#63b8ff" d="M733.38,-109.98C781,-100.74 857.1,-85.97 908.4,-76.01"/>
<polygon fill="#63b8ff" stroke="#63b8ff" points="909.16,-79.42 918.31,-74.08 907.83,-72.55 909.16,-79.42"/>
</g>
<!-- Node27&#45;&gt;Node3 -->
<g id="edge50" class="edge">
<title>Node27&#45;&gt;Node3</title>
<path fill="none" stroke="#63b8ff" d="M761.89,-54.98C720.98,-45.48 654.92,-30.12 612.1,-20.17"/>
<polygon fill="#63b8ff" stroke="#63b8ff" points="612.81,-16.74 602.28,-17.88 611.23,-23.56 612.81,-16.74"/>
</g>
<!-- Node28 -->
<g id="node28" class="node">
<title>Node28</title>
<g id="a_node28"><a xlink:title=" ">
<polygon fill="#e0e0e0" stroke="#999999" points="933.02,-19 828.02,-19 828.02,0 933.02,0 933.02,-19"/>
<text text-anchor="middle" x="880.52" y="-7" font-family="Helvetica,sans-Serif" font-size="10.00">Adafruit_INA219.h</text>
</a>
</g>
</g>
<!-- Node27&#45;&gt;Node28 -->
<g id="edge51" class="edge">
<title>Node27&#45;&gt;Node28</title>
<path fill="none" stroke="#63b8ff" d="M811.69,-54.98C824.29,-46.84 843.52,-34.41 858.46,-24.76"/>
<polygon fill="#63b8ff" stroke="#63b8ff" points="860.61,-27.54 867.1,-19.17 856.81,-21.66 860.61,-27.54"/>
</g>
<!-- Node29&#45;&gt;Node3 -->
<g id="edge53" class="edge">
<title>Node29&#45;&gt;Node3</title>
<path fill="none" stroke="#63b8ff" d="M899.54,-54.98C818.84,-44.07 681.19,-25.46 612.33,-16.15"/>
<polygon fill="#63b8ff" stroke="#63b8ff" points="612.67,-12.67 602.29,-14.8 611.73,-19.6 612.67,-12.67"/>
</g>
<!-- Node29&#45;&gt;Node28 -->
<g id="edge54" class="edge">
<title>Node29&#45;&gt;Node28</title>
<path fill="none" stroke="#63b8ff" d="M949.34,-54.98C936.75,-46.84 917.52,-34.41 902.58,-24.76"/>
<polygon fill="#63b8ff" stroke="#63b8ff" points="904.23,-21.66 893.93,-19.17 900.43,-27.54 904.23,-21.66"/>
</g>
<!-- Node30&#45;&gt;Node4 -->
<g id="edge57" class="edge">
<title>Node30&#45;&gt;Node4</title>
<path fill="none" stroke="#63b8ff" d="M927.88,-164.84C930.28,-157.04 933.28,-147.27 935.86,-138.89"/>
<polygon fill="#63b8ff" stroke="#63b8ff" points="939.23,-139.85 938.82,-129.27 932.54,-137.79 939.23,-139.85"/>
</g>
<!-- Node30&#45;&gt;Node5 -->
<g id="edge60" class="edge">
<title>Node30&#45;&gt;Node5</title>
<path fill="none" stroke="#63b8ff" d="M1000.86,-166.31C1003.78,-165.86 1006.68,-165.42 1009.52,-165 1124.72,-147.86 1156.17,-145.27 1274.56,-129.26"/>
<polygon fill="#63b8ff" stroke="#63b8ff" points="1275.31,-132.69 1284.75,-127.88 1274.37,-125.75 1275.31,-132.69"/>
</g>
<!-- Node30&#45;&gt;Node7 -->
<g id="edge58" class="edge">
<title>Node30&#45;&gt;Node7</title>
<path fill="none" stroke="#63b8ff" d="M972.86,-164.99C1008.57,-154.85 1056.21,-141.32 1089.54,-131.85"/>
<polygon fill="#63b8ff" stroke="#63b8ff" points="1090.74,-135.15 1099.4,-129.05 1088.82,-128.42 1090.74,-135.15"/>
</g>
<!-- Node30&#45;&gt;Node8 -->
<g id="edge59" class="edge">
<title>Node30&#45;&gt;Node8</title>
<path fill="none" stroke="#63b8ff" d="M995.14,-164.99C1048.53,-154.54 1120.3,-140.5 1168.82,-131.01"/>
<polygon fill="#63b8ff" stroke="#63b8ff" points="1169.66,-134.41 1178.8,-129.05 1168.31,-127.54 1169.66,-134.41"/>
</g>
<!-- Node31 -->
<g id="node31" class="node">
<title>Node31</title>
<g id="a_node31"><a xlink:href="_device_config_8h.html" target="_top" xlink:title="Node configuration options.">
<polygon fill="white" stroke="#666666" points="189.52,-129 99.52,-129 99.52,-110 189.52,-110 189.52,-129"/>
<text text-anchor="middle" x="144.52" y="-117" font-family="Helvetica,sans-Serif" font-size="10.00">DeviceConfig.h</text>
</a>
</g>
</g>
<!-- Node30&#45;&gt;Node31 -->
<g id="edge61" class="edge">
<title>Node30&#45;&gt;Node31</title>
<path fill="none" stroke="#63b8ff" d="M846.33,-175.89C715.43,-170.13 441.37,-155.97 199.6,-129.02"/>
<polygon fill="#63b8ff" stroke="#63b8ff" points="199.89,-125.53 189.56,-127.89 199.11,-132.49 199.89,-125.53"/>
</g>
<!-- Node31&#45;&gt;Node3 -->
<g id="edge62" class="edge">
<title>Node31&#45;&gt;Node3</title>
<path fill="none" stroke="#63b8ff" d="M141.79,-109.76C138.13,-96.11 133.58,-69.77 147.52,-55 173.37,-27.61 426.7,-15.61 528.49,-11.87"/>
<polygon fill="#63b8ff" stroke="#63b8ff" points="528.85,-15.36 538.72,-11.5 528.6,-8.37 528.85,-15.36"/>
</g>
<!-- Node32 -->
<g id="node32" class="node">
<title>Node32</title>
<g id="a_node32"><a xlink:title=" ">
<polygon fill="#e0e0e0" stroke="#999999" points="100.02,-74 13.02,-74 13.02,-55 100.02,-55 100.02,-74"/>
<text text-anchor="middle" x="56.52" y="-62" font-family="Helvetica,sans-Serif" font-size="10.00">ArduinoJSON.h</text>
</a>
</g>
</g>
<!-- Node31&#45;&gt;Node32 -->
<g id="edge63" class="edge">
<title>Node31&#45;&gt;Node32</title>
<path fill="none" stroke="#63b8ff" d="M130.38,-109.98C116.73,-101.77 95.83,-89.18 79.74,-79.49"/>
<polygon fill="#63b8ff" stroke="#63b8ff" points="81.29,-76.33 70.92,-74.17 77.68,-82.33 81.29,-76.33"/>
</g>
<!-- Node33&#45;&gt;Node31 -->
<g id="edge65" class="edge">
<title>Node33&#45;&gt;Node31</title>
<path fill="none" stroke="#63b8ff" d="M158.16,-164.84C155.76,-157.04 152.76,-147.27 150.18,-138.89"/>
<polygon fill="#63b8ff" stroke="#63b8ff" points="153.5,-137.79 147.22,-129.27 146.81,-139.85 153.5,-137.79"/>
</g>
<!-- Node34&#45;&gt;Node31 -->
<g id="edge67" class="edge">
<title>Node34&#45;&gt;Node31</title>
<path fill="none" stroke="#63b8ff" d="M312.58,-164.99C274.11,-154.8 222.73,-141.2 186.95,-131.73"/>
<polygon fill="#63b8ff" stroke="#63b8ff" points="187.4,-128.23 176.83,-129.05 185.6,-135 187.4,-128.23"/>
</g>
</g>
</svg>
