<?xml version="1.0" encoding="UTF-8" standalone="no"?>
<!DOCTYPE svg PUBLIC "-//W3C//DTD SVG 1.1//EN"
 "http://www.w3.org/Graphics/SVG/1.1/DTD/svg11.dtd">
<!-- Generated by graphviz version 2.43.0 (0)
 -->
<!-- Title: firmware/wombat/src/cli/CLI.cpp Pages: 1 -->
<svg width="1099pt" height="401pt"
 viewBox="0.00 0.00 1099.00 401.00" xmlns="http://www.w3.org/2000/svg" xmlns:xlink="http://www.w3.org/1999/xlink">
<g id="graph0" class="graph" transform="scale(1 1) rotate(0) translate(4 397)">
<title>firmware/wombat/src/cli/CLI.cpp</title>
<!-- Node1 -->
<g id="node1" class="node">
<title>Node1</title>
<g id="a_node1"><a xlink:title="FreeRTOS CLI handler.">
<polygon fill="#999999" stroke="#666666" points="632.5,-393 512.5,-393 512.5,-363 632.5,-363 632.5,-393"/>
<text text-anchor="start" x="520.5" y="-381" font-family="Helvetica,sans-Serif" font-size="10.00">firmware/wombat/src</text>
<text text-anchor="middle" x="572.5" y="-370" font-family="Helvetica,sans-Serif" font-size="10.00">/cli/CLI.cpp</text>
</a>
</g>
</g>
<!-- Node2 -->
<g id="node2" class="node">
<title>Node2</title>
<g id="a_node2"><a xlink:href="_c_l_i_8h.html" target="_top" xlink:title="FreeRTOS CLI handler.">
<polygon fill="white" stroke="#666666" points="477,-321.5 422,-321.5 422,-302.5 477,-302.5 477,-321.5"/>
<text text-anchor="middle" x="449.5" y="-309.5" font-family="Helvetica,sans-Serif" font-size="10.00">cli/CLI.h</text>
</a>
</g>
</g>
<!-- Node1&#45;&gt;Node2 -->
<g id="edge1" class="edge">
<title>Node1&#45;&gt;Node2</title>
<path fill="none" stroke="#63b8ff" d="M545.51,-362.95C524.51,-352.03 495.57,-336.97 474.97,-326.25"/>
<polygon fill="#63b8ff" stroke="#63b8ff" points="476.36,-323.03 465.87,-321.52 473.12,-329.24 476.36,-323.03"/>
</g>
<!-- Node12 -->
<g id="node12" class="node">
<title>Node12</title>
<g id="a_node12"><a xlink:href="sdi12_8h.html" target="_top" xlink:title="SDI&#45;12 command line interface handler.">
<polygon fill="white" stroke="#666666" points="829.5,-321.5 705.5,-321.5 705.5,-302.5 829.5,-302.5 829.5,-321.5"/>
<text text-anchor="middle" x="767.5" y="-309.5" font-family="Helvetica,sans-Serif" font-size="10.00">cli/peripherals/sdi12.h</text>
</a>
</g>
</g>
<!-- Node1&#45;&gt;Node12 -->
<g id="edge13" class="edge">
<title>Node1&#45;&gt;Node12</title>
<path fill="none" stroke="#63b8ff" d="M615.29,-362.95C650.24,-351.48 699.06,-335.46 731.9,-324.68"/>
<polygon fill="#63b8ff" stroke="#63b8ff" points="733.14,-327.96 741.55,-321.52 730.96,-321.31 733.14,-327.96"/>
</g>
<!-- Node20 -->
<g id="node20" class="node">
<title>Node20</title>
<g id="a_node20"><a xlink:href="cli__power_8h.html" target="_top" xlink:title=" ">
<polygon fill="white" stroke="#666666" points="737.5,-261 637.5,-261 637.5,-231 737.5,-231 737.5,-261"/>
<text text-anchor="start" x="645.5" y="-249" font-family="Helvetica,sans-Serif" font-size="10.00">cli/peripherals/cli</text>
<text text-anchor="middle" x="687.5" y="-238" font-family="Helvetica,sans-Serif" font-size="10.00">_power.h</text>
</a>
</g>
</g>
<!-- Node1&#45;&gt;Node20 -->
<g id="edge28" class="edge">
<title>Node1&#45;&gt;Node20</title>
<path fill="none" stroke="#63b8ff" d="M608.71,-362.92C625.81,-354.69 645.32,-342.77 658.5,-327 671.91,-310.95 679.36,-288.17 683.34,-271.03"/>
<polygon fill="#63b8ff" stroke="#63b8ff" points="686.77,-271.69 685.39,-261.19 679.92,-270.27 686.77,-271.69"/>
</g>
<!-- Node21 -->
<g id="node21" class="node">
<title>Node21</title>
<g id="a_node21"><a xlink:href="sd__card_8h.html" target="_top" xlink:title=" ">
<polygon fill="white" stroke="#666666" points="965.5,-327 865.5,-327 865.5,-297 965.5,-297 965.5,-327"/>
<text text-anchor="start" x="873.5" y="-315" font-family="Helvetica,sans-Serif" font-size="10.00">cli/peripherals/sd</text>
<text text-anchor="middle" x="915.5" y="-304" font-family="Helvetica,sans-Serif" font-size="10.00">_card.h</text>
</a>
</g>
</g>
<!-- Node1&#45;&gt;Node21 -->
<g id="edge34" class="edge">
<title>Node1&#45;&gt;Node21</title>
<path fill="none" stroke="#63b8ff" d="M632.53,-367.48C687.95,-358.46 772.76,-344.04 855.51,-327.14"/>
<polygon fill="#63b8ff" stroke="#63b8ff" points="856.24,-330.56 865.33,-325.12 854.83,-323.7 856.24,-330.56"/>
</g>
<!-- Node23 -->
<g id="node23" class="node">
<title>Node23</title>
<g id="a_node23"><a xlink:href="cli__spiffs_8h.html" target="_top" xlink:title=" ">
<polygon fill="white" stroke="#666666" points="1083.5,-327 983.5,-327 983.5,-297 1083.5,-297 1083.5,-327"/>
<text text-anchor="start" x="991.5" y="-315" font-family="Helvetica,sans-Serif" font-size="10.00">cli/peripherals/cli</text>
<text text-anchor="middle" x="1033.5" y="-304" font-family="Helvetica,sans-Serif" font-size="10.00">_spiffs.h</text>
</a>
</g>
</g>
<!-- Node1&#45;&gt;Node23 -->
<g id="edge37" class="edge">
<title>Node1&#45;&gt;Node23</title>
<path fill="none" stroke="#63b8ff" d="M632.74,-371.58C709.63,-364.2 846.88,-349.48 973.49,-327.06"/>
<polygon fill="#63b8ff" stroke="#63b8ff" points="974.14,-330.5 983.37,-325.29 972.91,-323.61 974.14,-330.5"/>
</g>
<!-- Node24 -->
<g id="node24" class="node">
<title>Node24</title>
<g id="a_node24"><a xlink:href="acquisition__intervals_8h.html" target="_top" xlink:title="Handles the time between measurements and uplinks by the device over LTE.">
<polygon fill="white" stroke="#666666" points="649.5,-327 495.5,-327 495.5,-297 649.5,-297 649.5,-327"/>
<text text-anchor="start" x="503.5" y="-315" font-family="Helvetica,sans-Serif" font-size="10.00">cli/device_config/acquisition</text>
<text text-anchor="middle" x="572.5" y="-304" font-family="Helvetica,sans-Serif" font-size="10.00">_intervals.h</text>
</a>
</g>
</g>
<!-- Node1&#45;&gt;Node24 -->
<g id="edge40" class="edge">
<title>Node1&#45;&gt;Node24</title>
<path fill="none" stroke="#63b8ff" d="M572.5,-362.8C572.5,-355.34 572.5,-345.99 572.5,-337.41"/>
<polygon fill="#63b8ff" stroke="#63b8ff" points="576,-337.16 572.5,-327.16 569,-337.16 576,-337.16"/>
</g>
<!-- Node26 -->
<g id="node26" class="node">
<title>Node26</title>
<g id="a_node26"><a xlink:href="mqtt__cli_8h.html" target="_top" xlink:title="MQTT setup and configuration through the CLI.">
<polygon fill="white" stroke="#666666" points="403.5,-327 279.5,-327 279.5,-297 403.5,-297 403.5,-327"/>
<text text-anchor="start" x="287.5" y="-315" font-family="Helvetica,sans-Serif" font-size="10.00">cli/device_config/mqtt</text>
<text text-anchor="middle" x="341.5" y="-304" font-family="Helvetica,sans-Serif" font-size="10.00">_cli.h</text>
</a>
</g>
</g>
<!-- Node1&#45;&gt;Node26 -->
<g id="edge48" class="edge">
<title>Node1&#45;&gt;Node26</title>
<path fill="none" stroke="#63b8ff" d="M521.81,-362.95C486.45,-353.16 439.12,-340.05 401.82,-329.71"/>
<polygon fill="#63b8ff" stroke="#63b8ff" points="402.65,-326.31 392.08,-327.01 400.78,-333.06 402.65,-326.31"/>
</g>
<!-- Node27 -->
<g id="node27" class="node">
<title>Node27</title>
<g id="a_node27"><a xlink:href="ftp__cli_8h.html" target="_top" xlink:title="FTP setup and configuration through the CLI.">
<polygon fill="white" stroke="#666666" points="113,-327 0,-327 0,-297 113,-297 113,-327"/>
<text text-anchor="start" x="8" y="-315" font-family="Helvetica,sans-Serif" font-size="10.00">cli/device_config/ftp</text>
<text text-anchor="middle" x="56.5" y="-304" font-family="Helvetica,sans-Serif" font-size="10.00">_cli.h</text>
</a>
</g>
</g>
<!-- Node1&#45;&gt;Node27 -->
<g id="edge50" class="edge">
<title>Node1&#45;&gt;Node27</title>
<path fill="none" stroke="#63b8ff" d="M512.2,-372.2C427.56,-365.04 268.56,-350.06 123.31,-327.02"/>
<polygon fill="#63b8ff" stroke="#63b8ff" points="123.74,-323.55 113.32,-325.42 122.64,-330.46 123.74,-323.55"/>
</g>
<!-- Node28 -->
<g id="node28" class="node">
<title>Node28</title>
<g id="a_node28"><a xlink:href="config__cli_8h.html" target="_top" xlink:title=" ">
<polygon fill="white" stroke="#666666" points="261.5,-327 131.5,-327 131.5,-297 261.5,-297 261.5,-327"/>
<text text-anchor="start" x="139.5" y="-315" font-family="Helvetica,sans-Serif" font-size="10.00">cli/device_config/config</text>
<text text-anchor="middle" x="196.5" y="-304" font-family="Helvetica,sans-Serif" font-size="10.00">_cli.h</text>
</a>
</g>
</g>
<!-- Node1&#45;&gt;Node28 -->
<g id="edge52" class="edge">
<title>Node1&#45;&gt;Node28</title>
<path fill="none" stroke="#63b8ff" d="M512.27,-367.44C453.47,-358.02 361.19,-342.98 271.88,-327.22"/>
<polygon fill="#63b8ff" stroke="#63b8ff" points="272.31,-323.75 261.86,-325.45 271.09,-330.64 272.31,-323.75"/>
</g>
<!-- Node3 -->
<g id="node3" class="node">
<title>Node3</title>
<g id="a_node3"><a xlink:title=" ">
<polygon fill="#e0e0e0" stroke="#999999" points="301,-19 238,-19 238,0 301,0 301,-19"/>
<text text-anchor="middle" x="269.5" y="-7" font-family="Helvetica,sans-Serif" font-size="10.00">Arduino.h</text>
</a>
</g>
</g>
<!-- Node2&#45;&gt;Node3 -->
<g id="edge2" class="edge">
<title>Node2&#45;&gt;Node3</title>
<path fill="none" stroke="#63b8ff" d="M426.84,-302.43C389.14,-288.17 317.64,-261.11 317.5,-261 286.88,-236.22 269.5,-225.89 269.5,-186.5 269.5,-186.5 269.5,-186.5 269.5,-124 269.5,-90.61 269.5,-51.69 269.5,-29.19"/>
<polygon fill="#63b8ff" stroke="#63b8ff" points="273,-29.04 269.5,-19.04 266,-29.04 273,-29.04"/>
</g>
<!-- Node4 -->
<g id="node4" class="node">
<title>Node4</title>
<g id="a_node4"><a xlink:href="cat-m1_8h.html" target="_top" xlink:title="CAT&#45;M1 CLI command request and response handler.">
<polygon fill="white" stroke="#666666" points="505.5,-255.5 373.5,-255.5 373.5,-236.5 505.5,-236.5 505.5,-255.5"/>
<text text-anchor="middle" x="439.5" y="-243.5" font-family="Helvetica,sans-Serif" font-size="10.00">cli/peripherals/cat&#45;m1.h</text>
</a>
</g>
</g>
<!-- Node2&#45;&gt;Node4 -->
<g id="edge3" class="edge">
<title>Node2&#45;&gt;Node4</title>
<path fill="none" stroke="#63b8ff" d="M448.15,-302.37C446.7,-293.07 444.34,-277.98 442.45,-265.9"/>
<polygon fill="#63b8ff" stroke="#63b8ff" points="445.89,-265.25 440.89,-255.91 438.98,-266.33 445.89,-265.25"/>
</g>
<!-- Node5 -->
<g id="node5" class="node">
<title>Node5</title>
<g id="a_node5"><a xlink:title=" ">
<polygon fill="#e0e0e0" stroke="#999999" points="901,-195 788,-195 788,-176 901,-176 901,-195"/>
<text text-anchor="middle" x="844.5" y="-183" font-family="Helvetica,sans-Serif" font-size="10.00">freertos/FreeRTOS.h</text>
</a>
</g>
</g>
<!-- Node4&#45;&gt;Node5 -->
<g id="edge4" class="edge">
<title>Node4&#45;&gt;Node5</title>
<path fill="none" stroke="#63b8ff" d="M498.39,-236.49C572.61,-225.77 699.86,-207.39 777.66,-196.16"/>
<polygon fill="#63b8ff" stroke="#63b8ff" points="778.43,-199.58 787.83,-194.69 777.43,-192.65 778.43,-199.58"/>
</g>
<!-- Node6 -->
<g id="node6" class="node">
<title>Node6</title>
<g id="a_node6"><a xlink:title=" ">
<polygon fill="#e0e0e0" stroke="#999999" points="359,-195 298,-195 298,-176 359,-176 359,-195"/>
<text text-anchor="middle" x="328.5" y="-183" font-family="Helvetica,sans-Serif" font-size="10.00">Stream.h</text>
</a>
</g>
</g>
<!-- Node4&#45;&gt;Node6 -->
<g id="edge5" class="edge">
<title>Node4&#45;&gt;Node6</title>
<path fill="none" stroke="#63b8ff" d="M423.12,-236.37C404.92,-226.78 375.3,-211.17 354.05,-199.97"/>
<polygon fill="#63b8ff" stroke="#63b8ff" points="355.42,-196.73 344.95,-195.17 352.16,-202.93 355.42,-196.73"/>
</g>
<!-- Node7 -->
<g id="node7" class="node">
<title>Node7</title>
<g id="a_node7"><a xlink:title=" ">
<polygon fill="#e0e0e0" stroke="#999999" points="630,-195 541,-195 541,-176 630,-176 630,-195"/>
<text text-anchor="middle" x="585.5" y="-183" font-family="Helvetica,sans-Serif" font-size="10.00">StreamString.h</text>
</a>
</g>
</g>
<!-- Node4&#45;&gt;Node7 -->
<g id="edge6" class="edge">
<title>Node4&#45;&gt;Node7</title>
<path fill="none" stroke="#63b8ff" d="M460.73,-236.49C485.49,-226.57 526.62,-210.09 554.85,-198.78"/>
<polygon fill="#63b8ff" stroke="#63b8ff" points="556.26,-201.99 564.24,-195.02 553.66,-195.49 556.26,-201.99"/>
</g>
<!-- Node8 -->
<g id="node8" class="node">
<title>Node8</title>
<g id="a_node8"><a xlink:title=" ">
<polygon fill="#e0e0e0" stroke="#999999" points="523,-195 416,-195 416,-176 523,-176 523,-195"/>
<text text-anchor="middle" x="469.5" y="-183" font-family="Helvetica,sans-Serif" font-size="10.00">cli/FreeRTOS_CLI.h</text>
</a>
</g>
</g>
<!-- Node4&#45;&gt;Node8 -->
<g id="edge7" class="edge">
<title>Node4&#45;&gt;Node8</title>
<path fill="none" stroke="#63b8ff" d="M443.93,-236.37C448.27,-227.9 455.02,-214.74 460.49,-204.07"/>
<polygon fill="#63b8ff" stroke="#63b8ff" points="463.61,-205.66 465.06,-195.17 457.38,-202.47 463.61,-205.66"/>
</g>
<!-- Node9 -->
<g id="node9" class="node">
<title>Node9</title>
<g id="a_node9"><a xlink:href="_c_a_t___m1_8h.html" target="_top" xlink:title=" ">
<polygon fill="white" stroke="#666666" points="669,-134.5 604,-134.5 604,-115.5 669,-115.5 669,-134.5"/>
<text text-anchor="middle" x="636.5" y="-122.5" font-family="Helvetica,sans-Serif" font-size="10.00">CAT_M1.h</text>
</a>
</g>
</g>
<!-- Node4&#45;&gt;Node9 -->
<g id="edge8" class="edge">
<title>Node4&#45;&gt;Node9</title>
<path fill="none" stroke="#63b8ff" d="M429.5,-236.21C414.92,-222.35 391.17,-195.02 406.5,-176 429.54,-147.41 533.58,-134.32 593.53,-129.06"/>
<polygon fill="#63b8ff" stroke="#63b8ff" points="594.16,-132.52 603.83,-128.19 593.57,-125.54 594.16,-132.52"/>
</g>
<!-- Node10 -->
<g id="node10" class="node">
<title>Node10</title>
<g id="a_node10"><a xlink:title=" ">
<polygon fill="#e0e0e0" stroke="#999999" points="629.5,-19 581.5,-19 581.5,0 629.5,0 629.5,-19"/>
<text text-anchor="middle" x="605.5" y="-7" font-family="Helvetica,sans-Serif" font-size="10.00">Wire.h</text>
</a>
</g>
</g>
<!-- Node9&#45;&gt;Node10 -->
<g id="edge9" class="edge">
<title>Node9&#45;&gt;Node10</title>
<path fill="none" stroke="#63b8ff" d="M634.17,-115.47C629.17,-97.15 617.29,-53.68 610.5,-28.81"/>
<polygon fill="#63b8ff" stroke="#63b8ff" points="613.87,-27.85 607.86,-19.13 607.12,-29.7 613.87,-27.85"/>
</g>
<!-- Node11 -->
<g id="node11" class="node">
<title>Node11</title>
<g id="a_node11"><a xlink:href="_t_c_a9534_8h.html" target="_top" xlink:title=" ">
<polygon fill="white" stroke="#666666" points="608.5,-74 540.5,-74 540.5,-55 608.5,-55 608.5,-74"/>
<text text-anchor="middle" x="574.5" y="-62" font-family="Helvetica,sans-Serif" font-size="10.00">TCA9534.h</text>
</a>
</g>
</g>
<!-- Node9&#45;&gt;Node11 -->
<g id="edge10" class="edge">
<title>Node9&#45;&gt;Node11</title>
<path fill="none" stroke="#63b8ff" d="M627.35,-115.37C617.83,-106.38 602.7,-92.11 591.07,-81.14"/>
<polygon fill="#63b8ff" stroke="#63b8ff" points="593.36,-78.48 583.69,-74.17 588.56,-83.58 593.36,-78.48"/>
</g>
<!-- Node11&#45;&gt;Node3 -->
<g id="edge11" class="edge">
<title>Node11&#45;&gt;Node3</title>
<path fill="none" stroke="#63b8ff" d="M540.4,-57.57C484.12,-47.79 371.97,-28.31 311.11,-17.73"/>
<polygon fill="#63b8ff" stroke="#63b8ff" points="311.54,-14.25 301.09,-15.99 310.34,-21.15 311.54,-14.25"/>
</g>
<!-- Node11&#45;&gt;Node10 -->
<g id="edge12" class="edge">
<title>Node11&#45;&gt;Node10</title>
<path fill="none" stroke="#63b8ff" d="M579.62,-54.75C583.86,-47.49 590.03,-36.95 595.28,-27.98"/>
<polygon fill="#63b8ff" stroke="#63b8ff" points="598.45,-29.49 600.48,-19.09 592.41,-25.95 598.45,-29.49"/>
</g>
<!-- Node12&#45;&gt;Node5 -->
<g id="edge14" class="edge">
<title>Node12&#45;&gt;Node5</title>
<path fill="none" stroke="#63b8ff" d="M778.87,-302.17C790.06,-292.96 806.96,-277.57 817.5,-261 828.55,-243.63 835.91,-221.1 840.12,-205.39"/>
<polygon fill="#63b8ff" stroke="#63b8ff" points="843.6,-205.87 842.63,-195.32 836.81,-204.18 843.6,-205.87"/>
</g>
<!-- Node12&#45;&gt;Node6 -->
<g id="edge15" class="edge">
<title>Node12&#45;&gt;Node6</title>
<path fill="none" stroke="#63b8ff" d="M705.26,-302.94C689.97,-300.98 673.64,-298.9 658.5,-297 593.19,-288.81 418.02,-299.31 364.5,-261 346.1,-247.83 336.72,-222.67 332.22,-205.25"/>
<polygon fill="#63b8ff" stroke="#63b8ff" points="335.55,-204.11 329.92,-195.13 328.72,-205.66 335.55,-204.11"/>
</g>
<!-- Node12&#45;&gt;Node7 -->
<g id="edge16" class="edge">
<title>Node12&#45;&gt;Node7</title>
<path fill="none" stroke="#63b8ff" d="M767.85,-302.18C768,-285.81 765.87,-250.62 746.5,-231 731.57,-215.87 680.95,-203.48 640.41,-195.65"/>
<polygon fill="#63b8ff" stroke="#63b8ff" points="640.83,-192.17 630.35,-193.76 639.53,-199.05 640.83,-192.17"/>
</g>
<!-- Node12&#45;&gt;Node8 -->
<g id="edge19" class="edge">
<title>Node12&#45;&gt;Node8</title>
<path fill="none" stroke="#63b8ff" d="M741.61,-302.49C713.49,-293.06 667.37,-277.06 628.5,-261 580.96,-241.36 527.01,-215.24 495.76,-199.72"/>
<polygon fill="#63b8ff" stroke="#63b8ff" points="496.95,-196.41 486.44,-195.08 493.83,-202.67 496.95,-196.41"/>
</g>
<!-- Node12&#45;&gt;Node12 -->
<g id="edge17" class="edge">
<title>Node12&#45;&gt;Node12</title>
<path fill="none" stroke="#63b8ff" d="M792.48,-321.56C818.43,-327.37 847.5,-324.18 847.5,-312 847.5,-301.39 825.44,-297.6 802.6,-300.64"/>
<polygon fill="#63b8ff" stroke="#63b8ff" points="801.72,-297.24 792.48,-302.44 802.94,-304.13 801.72,-297.24"/>
</g>
<!-- Node13 -->
<g id="node13" class="node">
<title>Node13</title>
<g id="a_node13"><a xlink:title=" ">
<polygon fill="#e0e0e0" stroke="#999999" points="1091,-195 998,-195 998,-176 1091,-176 1091,-195"/>
<text text-anchor="middle" x="1044.5" y="-183" font-family="Helvetica,sans-Serif" font-size="10.00">dpiclimate&#45;12.h</text>
</a>
</g>
</g>
<!-- Node12&#45;&gt;Node13 -->
<g id="edge18" class="edge">
<title>Node12&#45;&gt;Node13</title>
<path fill="none" stroke="#63b8ff" d="M811.66,-302.46C861.31,-292.39 938.4,-275.23 964.5,-261 978.93,-253.13 1010.43,-221.83 1029.32,-202.39"/>
<polygon fill="#63b8ff" stroke="#63b8ff" points="1031.9,-204.75 1036.33,-195.12 1026.86,-199.89 1031.9,-204.75"/>
</g>
<!-- Node14 -->
<g id="node14" class="node">
<title>Node14</title>
<g id="a_node14"><a xlink:href="_utils_8h.html" target="_top" xlink:title=" ">
<polygon fill="white" stroke="#666666" points="955.5,-255.5 907.5,-255.5 907.5,-236.5 955.5,-236.5 955.5,-255.5"/>
<text text-anchor="middle" x="931.5" y="-243.5" font-family="Helvetica,sans-Serif" font-size="10.00">Utils.h</text>
</a>
</g>
</g>
<!-- Node12&#45;&gt;Node14 -->
<g id="edge20" class="edge">
<title>Node12&#45;&gt;Node14</title>
<path fill="none" stroke="#63b8ff" d="M789.62,-302.37C818.06,-291.27 867.65,-271.92 900.02,-259.28"/>
<polygon fill="#63b8ff" stroke="#63b8ff" points="901.43,-262.49 909.47,-255.6 898.88,-255.97 901.43,-262.49"/>
</g>
<!-- Node14&#45;&gt;Node13 -->
<g id="edge22" class="edge">
<title>Node14&#45;&gt;Node13</title>
<path fill="none" stroke="#63b8ff" d="M948.17,-236.37C966.78,-226.73 997.12,-211.03 1018.78,-199.81"/>
<polygon fill="#63b8ff" stroke="#63b8ff" points="1020.49,-202.87 1027.76,-195.17 1017.27,-196.66 1020.49,-202.87"/>
</g>
<!-- Node15 -->
<g id="node15" class="node">
<title>Node15</title>
<g id="a_node15"><a xlink:title=" ">
<polygon fill="#e0e0e0" stroke="#999999" points="731,-195 648,-195 648,-176 731,-176 731,-195"/>
<text text-anchor="middle" x="689.5" y="-183" font-family="Helvetica,sans-Serif" font-size="10.00">ArduinoJson.h</text>
</a>
</g>
</g>
<!-- Node14&#45;&gt;Node15 -->
<g id="edge21" class="edge">
<title>Node14&#45;&gt;Node15</title>
<path fill="none" stroke="#63b8ff" d="M907.41,-239.18C867.17,-229.45 785.68,-209.75 734.55,-197.39"/>
<polygon fill="#63b8ff" stroke="#63b8ff" points="735.29,-193.97 724.75,-195.02 733.65,-200.77 735.29,-193.97"/>
</g>
<!-- Node16 -->
<g id="node16" class="node">
<title>Node16</title>
<g id="a_node16"><a xlink:href="globals_8h.html" target="_top" xlink:title=" ">
<polygon fill="white" stroke="#666666" points="980,-195 919,-195 919,-176 980,-176 980,-195"/>
<text text-anchor="middle" x="949.5" y="-183" font-family="Helvetica,sans-Serif" font-size="10.00">globals.h</text>
</a>
</g>
</g>
<!-- Node14&#45;&gt;Node16 -->
<g id="edge23" class="edge">
<title>Node14&#45;&gt;Node16</title>
<path fill="none" stroke="#63b8ff" d="M934.16,-236.37C936.68,-228.16 940.56,-215.54 943.79,-205.05"/>
<polygon fill="#63b8ff" stroke="#63b8ff" points="947.24,-205.75 946.83,-195.17 940.55,-203.7 947.24,-205.75"/>
</g>
<!-- Node16&#45;&gt;Node9 -->
<g id="edge25" class="edge">
<title>Node16&#45;&gt;Node9</title>
<path fill="none" stroke="#63b8ff" d="M918.94,-177.91C915.76,-177.25 912.56,-176.61 909.5,-176 828.24,-159.93 733,-142.89 679.2,-133.44"/>
<polygon fill="#63b8ff" stroke="#63b8ff" points="679.79,-129.99 669.33,-131.7 678.58,-136.88 679.79,-129.99"/>
</g>
<!-- Node17 -->
<g id="node17" class="node">
<title>Node17</title>
<g id="a_node17"><a xlink:title=" ">
<polygon fill="#e0e0e0" stroke="#999999" points="1072.5,-140 942.5,-140 942.5,-110 1072.5,-110 1072.5,-140"/>
<text text-anchor="start" x="950.5" y="-128" font-family="Helvetica,sans-Serif" font-size="10.00">SparkFun_u&#45;blox_SARA</text>
<text text-anchor="middle" x="1007.5" y="-117" font-family="Helvetica,sans-Serif" font-size="10.00">&#45;R5_Arduino_Library.h</text>
</a>
</g>
</g>
<!-- Node16&#45;&gt;Node17 -->
<g id="edge24" class="edge">
<title>Node16&#45;&gt;Node17</title>
<path fill="none" stroke="#63b8ff" d="M958.06,-175.87C965.49,-168.37 976.57,-157.2 986.36,-147.33"/>
<polygon fill="#63b8ff" stroke="#63b8ff" points="988.95,-149.68 993.51,-140.11 983.98,-144.75 988.95,-149.68"/>
</g>
<!-- Node18 -->
<g id="node18" class="node">
<title>Node18</title>
<g id="a_node18"><a xlink:href="str__utils_8h.html" target="_top" xlink:title=" ">
<polygon fill="white" stroke="#666666" points="924,-134.5 859,-134.5 859,-115.5 924,-115.5 924,-134.5"/>
<text text-anchor="middle" x="891.5" y="-122.5" font-family="Helvetica,sans-Serif" font-size="10.00">str_utils.h</text>
</a>
</g>
</g>
<!-- Node16&#45;&gt;Node18 -->
<g id="edge26" class="edge">
<title>Node16&#45;&gt;Node18</title>
<path fill="none" stroke="#63b8ff" d="M940.94,-175.87C932.12,-166.97 918.16,-152.89 907.32,-141.95"/>
<polygon fill="#63b8ff" stroke="#63b8ff" points="909.62,-139.3 900.09,-134.67 904.65,-144.23 909.62,-139.3"/>
</g>
<!-- Node19 -->
<g id="node19" class="node">
<title>Node19</title>
<g id="a_node19"><a xlink:title=" ">
<polygon fill="#e0e0e0" stroke="#999999" points="919.5,-74 863.5,-74 863.5,-55 919.5,-55 919.5,-74"/>
<text text-anchor="middle" x="891.5" y="-62" font-family="Helvetica,sans-Serif" font-size="10.00">stddef.h</text>
</a>
</g>
</g>
<!-- Node18&#45;&gt;Node19 -->
<g id="edge27" class="edge">
<title>Node18&#45;&gt;Node19</title>
<path fill="none" stroke="#63b8ff" d="M891.5,-115.37C891.5,-107.25 891.5,-94.81 891.5,-84.39"/>
<polygon fill="#63b8ff" stroke="#63b8ff" points="895,-84.17 891.5,-74.17 888,-84.17 895,-84.17"/>
</g>
<!-- Node20&#45;&gt;Node5 -->
<g id="edge29" class="edge">
<title>Node20&#45;&gt;Node5</title>
<path fill="none" stroke="#63b8ff" d="M725.11,-230.99C751.53,-221.14 786.54,-208.1 811.81,-198.68"/>
<polygon fill="#63b8ff" stroke="#63b8ff" points="813.17,-201.91 821.31,-195.14 810.72,-195.35 813.17,-201.91"/>
</g>
<!-- Node20&#45;&gt;Node6 -->
<g id="edge30" class="edge">
<title>Node20&#45;&gt;Node6</title>
<path fill="none" stroke="#63b8ff" d="M637.2,-236.8C565.58,-225.13 435.58,-203.95 369.48,-193.18"/>
<polygon fill="#63b8ff" stroke="#63b8ff" points="369.87,-189.69 359.43,-191.54 368.74,-196.6 369.87,-189.69"/>
</g>
<!-- Node20&#45;&gt;Node7 -->
<g id="edge31" class="edge">
<title>Node20&#45;&gt;Node7</title>
<path fill="none" stroke="#63b8ff" d="M663.07,-230.99C646.81,-221.66 625.55,-209.47 609.4,-200.21"/>
<polygon fill="#63b8ff" stroke="#63b8ff" points="610.98,-197.08 600.56,-195.14 607.5,-203.15 610.98,-197.08"/>
</g>
<!-- Node20&#45;&gt;Node8 -->
<g id="edge32" class="edge">
<title>Node20&#45;&gt;Node8</title>
<path fill="none" stroke="#63b8ff" d="M637.49,-231.58C599.22,-221.31 547.08,-207.32 511.09,-197.66"/>
<polygon fill="#63b8ff" stroke="#63b8ff" points="511.96,-194.27 501.39,-195.06 510.14,-201.03 511.96,-194.27"/>
</g>
<!-- Node20&#45;&gt;Node9 -->
<g id="edge33" class="edge">
<title>Node20&#45;&gt;Node9</title>
<path fill="none" stroke="#63b8ff" d="M710.42,-230.98C729.61,-217.39 752,-195.96 739.5,-176 726.18,-154.72 700.93,-142.27 678.76,-135.11"/>
<polygon fill="#63b8ff" stroke="#63b8ff" points="679.76,-131.76 669.17,-132.27 677.77,-138.47 679.76,-131.76"/>
</g>
<!-- Node21&#45;&gt;Node5 -->
<g id="edge35" class="edge">
<title>Node21&#45;&gt;Node5</title>
<path fill="none" stroke="#63b8ff" d="M907.36,-296.72C894.29,-273.81 868.7,-228.93 854.53,-204.09"/>
<polygon fill="#63b8ff" stroke="#63b8ff" points="857.38,-202.02 849.39,-195.07 851.3,-205.49 857.38,-202.02"/>
</g>
<!-- Node22 -->
<g id="node22" class="node">
<title>Node22</title>
<g id="a_node22"><a xlink:title=" ">
<polygon fill="#e0e0e0" stroke="#999999" points="1055.5,-255.5 1011.5,-255.5 1011.5,-236.5 1055.5,-236.5 1055.5,-255.5"/>
<text text-anchor="middle" x="1033.5" y="-243.5" font-family="Helvetica,sans-Serif" font-size="10.00">string</text>
</a>
</g>
</g>
<!-- Node21&#45;&gt;Node22 -->
<g id="edge36" class="edge">
<title>Node21&#45;&gt;Node22</title>
<path fill="none" stroke="#63b8ff" d="M941.4,-296.95C961.45,-286.08 989.05,-271.11 1008.8,-260.4"/>
<polygon fill="#63b8ff" stroke="#63b8ff" points="1010.67,-263.36 1017.8,-255.52 1007.34,-257.21 1010.67,-263.36"/>
</g>
<!-- Node23&#45;&gt;Node5 -->
<g id="edge38" class="edge">
<title>Node23&#45;&gt;Node5</title>
<path fill="none" stroke="#63b8ff" d="M1046.82,-296.92C1061.38,-279.79 1080.63,-250.72 1064.5,-231 1054.7,-219.02 972.3,-204.77 911.21,-195.68"/>
<polygon fill="#63b8ff" stroke="#63b8ff" points="911.62,-192.2 901.22,-194.21 910.6,-199.13 911.62,-192.2"/>
</g>
<!-- Node23&#45;&gt;Node22 -->
<g id="edge39" class="edge">
<title>Node23&#45;&gt;Node22</title>
<path fill="none" stroke="#63b8ff" d="M1033.5,-296.8C1033.5,-287.7 1033.5,-275.79 1033.5,-265.9"/>
<polygon fill="#63b8ff" stroke="#63b8ff" points="1037,-265.84 1033.5,-255.84 1030,-265.84 1037,-265.84"/>
</g>
<!-- Node24&#45;&gt;Node5 -->
<g id="edge41" class="edge">
<title>Node24&#45;&gt;Node5</title>
<path fill="none" stroke="#63b8ff" d="M643.3,-296.95C675.8,-288.94 714.19,-277.21 746.5,-261 777.98,-245.21 809.53,-218.89 828.02,-202.13"/>
<polygon fill="#63b8ff" stroke="#63b8ff" points="830.58,-204.53 835.55,-195.17 825.83,-199.39 830.58,-204.53"/>
</g>
<!-- Node24&#45;&gt;Node6 -->
<g id="edge42" class="edge">
<title>Node24&#45;&gt;Node6</title>
<path fill="none" stroke="#63b8ff" d="M495.34,-297.34C426.91,-284.86 336.94,-267.42 331.5,-261 318.58,-245.76 320.15,-221.81 323.43,-205.19"/>
<polygon fill="#63b8ff" stroke="#63b8ff" points="326.93,-205.6 325.82,-195.06 320.12,-203.99 326.93,-205.6"/>
</g>
<!-- Node24&#45;&gt;Node7 -->
<g id="edge43" class="edge">
<title>Node24&#45;&gt;Node7</title>
<path fill="none" stroke="#63b8ff" d="M573.99,-296.72C576.35,-274.12 580.95,-230.12 583.56,-205.09"/>
<polygon fill="#63b8ff" stroke="#63b8ff" points="587.05,-205.38 584.61,-195.07 580.09,-204.65 587.05,-205.38"/>
</g>
<!-- Node24&#45;&gt;Node8 -->
<g id="edge44" class="edge">
<title>Node24&#45;&gt;Node8</title>
<path fill="none" stroke="#63b8ff" d="M563.3,-296.89C552.38,-280.49 533.27,-252.87 514.5,-231 505.84,-220.91 495.32,-210.42 486.63,-202.16"/>
<polygon fill="#63b8ff" stroke="#63b8ff" points="488.96,-199.55 479.26,-195.28 484.18,-204.66 488.96,-199.55"/>
</g>
<!-- Node25 -->
<g id="node25" class="node">
<title>Node25</title>
<g id="a_node25"><a xlink:href="_device_config_8h.html" target="_top" xlink:title="Node configuration options.">
<polygon fill="white" stroke="#666666" points="241.5,-255.5 151.5,-255.5 151.5,-236.5 241.5,-236.5 241.5,-255.5"/>
<text text-anchor="middle" x="196.5" y="-243.5" font-family="Helvetica,sans-Serif" font-size="10.00">DeviceConfig.h</text>
</a>
</g>
</g>
<!-- Node24&#45;&gt;Node25 -->
<g id="edge45" class="edge">
<title>Node24&#45;&gt;Node25</title>
<path fill="none" stroke="#63b8ff" d="M495.05,-297.82C422.5,-285.47 315.9,-267.32 251.64,-256.39"/>
<polygon fill="#63b8ff" stroke="#63b8ff" points="252.15,-252.92 241.71,-254.69 250.98,-259.82 252.15,-252.92"/>
</g>
<!-- Node25&#45;&gt;Node3 -->
<g id="edge46" class="edge">
<title>Node25&#45;&gt;Node3</title>
<path fill="none" stroke="#63b8ff" d="M199.19,-236.28C207.53,-209.33 233.65,-124.89 255.5,-55 258.19,-46.39 261.19,-36.85 263.72,-28.82"/>
<polygon fill="#63b8ff" stroke="#63b8ff" points="267.14,-29.62 266.81,-19.03 260.46,-27.51 267.14,-29.62"/>
</g>
<!-- Node25&#45;&gt;Node15 -->
<g id="edge47" class="edge">
<title>Node25&#45;&gt;Node15</title>
<path fill="none" stroke="#63b8ff" d="M241.78,-240.67C320.2,-233 486.6,-215.96 637.84,-195.02"/>
<polygon fill="#63b8ff" stroke="#63b8ff" points="638.36,-198.48 647.78,-193.64 637.39,-191.55 638.36,-198.48"/>
</g>
<!-- Node26&#45;&gt;Node25 -->
<g id="edge49" class="edge">
<title>Node26&#45;&gt;Node25</title>
<path fill="none" stroke="#63b8ff" d="M309.68,-296.95C284.47,-285.83 249.57,-270.42 225.21,-259.67"/>
<polygon fill="#63b8ff" stroke="#63b8ff" points="226.36,-256.35 215.8,-255.52 223.53,-262.76 226.36,-256.35"/>
</g>
<!-- Node27&#45;&gt;Node25 -->
<g id="edge51" class="edge">
<title>Node27&#45;&gt;Node25</title>
<path fill="none" stroke="#63b8ff" d="M87.22,-296.95C111.45,-285.88 144.96,-270.56 168.46,-259.82"/>
<polygon fill="#63b8ff" stroke="#63b8ff" points="170.23,-262.86 177.87,-255.52 167.32,-256.49 170.23,-262.86"/>
</g>
<!-- Node28&#45;&gt;Node25 -->
<g id="edge53" class="edge">
<title>Node28&#45;&gt;Node25</title>
<path fill="none" stroke="#63b8ff" d="M196.5,-296.8C196.5,-287.7 196.5,-275.79 196.5,-265.9"/>
<polygon fill="#63b8ff" stroke="#63b8ff" points="200,-265.84 196.5,-255.84 193,-265.84 200,-265.84"/>
</g>
</g>
</svg>
