<?xml version="1.0" encoding="UTF-8" standalone="no"?>
<!DOCTYPE svg PUBLIC "-//W3C//DTD SVG 1.1//EN"
 "http://www.w3.org/Graphics/SVG/1.1/DTD/svg11.dtd">
<!-- Generated by graphviz version 2.43.0 (0)
 -->
<!-- Title: firmware/wombat/include/cli/CLI.h Pages: 1 -->
<svg width="1528pt" height="324pt"
 viewBox="0.00 0.00 1528.00 324.00" xmlns="http://www.w3.org/2000/svg" xmlns:xlink="http://www.w3.org/1999/xlink">
<g id="graph0" class="graph" transform="scale(1 1) rotate(0) translate(4 320)">
<title>firmware/wombat/include/cli/CLI.h</title>
<!-- Node1 -->
<g id="node1" class="node">
<title>Node1</title>
<g id="a_node1"><a xlink:title=" ">
<polygon fill="#999999" stroke="#666666" points="623.5,-316 482.5,-316 482.5,-286 623.5,-286 623.5,-316"/>
<text text-anchor="start" x="490.5" y="-304" font-family="Helvetica,sans-Serif" font-size="10.00">firmware/wombat/include</text>
<text text-anchor="middle" x="553" y="-293" font-family="Helvetica,sans-Serif" font-size="10.00">/cli/CLI.h</text>
</a>
</g>
</g>
<!-- Node2 -->
<g id="node2" class="node">
<title>Node2</title>
<g id="a_node2"><a xlink:title=" ">
<polygon fill="#e0e0e0" stroke="#999999" points="773.5,-19 710.5,-19 710.5,0 773.5,0 773.5,-19"/>
<text text-anchor="middle" x="742" y="-7" font-family="Helvetica,sans-Serif" font-size="10.00">Arduino.h</text>
</a>
</g>
</g>
<!-- Node1&#45;&gt;Node2 -->
<g id="edge1" class="edge">
<title>Node1&#45;&gt;Node2</title>
<path fill="none" stroke="#63b8ff" d="M482.23,-299.22C364.42,-296.86 134.01,-287.44 63,-250 24.64,-229.77 0,-218.86 0,-175.5 0,-175.5 0,-175.5 0,-118.5 0,-47.24 542.86,-18.87 699.91,-12.15"/>
<polygon fill="#63b8ff" stroke="#63b8ff" points="700.27,-15.64 710.12,-11.72 699.98,-8.65 700.27,-15.64"/>
</g>
<!-- Node3 -->
<g id="node3" class="node">
<title>Node3</title>
<g id="a_node3"><a xlink:title=" ">
<polygon fill="#e0e0e0" stroke="#999999" points="675.5,-184 562.5,-184 562.5,-165 675.5,-165 675.5,-184"/>
<text text-anchor="middle" x="619" y="-172" font-family="Helvetica,sans-Serif" font-size="10.00">freertos/FreeRTOS.h</text>
</a>
</g>
</g>
<!-- Node1&#45;&gt;Node3 -->
<g id="edge2" class="edge">
<title>Node1&#45;&gt;Node3</title>
<path fill="none" stroke="#63b8ff" d="M623.84,-297.28C658.06,-291.95 696.33,-279.21 718,-250 725.94,-239.29 725.24,-231.2 718,-220 707.81,-204.25 690.57,-194.02 673.31,-187.4"/>
<polygon fill="#63b8ff" stroke="#63b8ff" points="674.36,-184.05 663.76,-184.08 672.06,-190.67 674.36,-184.05"/>
</g>
<!-- Node4 -->
<g id="node4" class="node">
<title>Node4</title>
<g id="a_node4"><a xlink:title=" ">
<polygon fill="#e0e0e0" stroke="#999999" points="275.5,-184 168.5,-184 168.5,-165 275.5,-165 275.5,-184"/>
<text text-anchor="middle" x="222" y="-172" font-family="Helvetica,sans-Serif" font-size="10.00">cli/FreeRTOS_CLI.h</text>
</a>
</g>
</g>
<!-- Node1&#45;&gt;Node4 -->
<g id="edge3" class="edge">
<title>Node1&#45;&gt;Node4</title>
<path fill="none" stroke="#63b8ff" d="M482.2,-297.74C355.54,-292.96 100.8,-279.74 74,-250 43.97,-216.67 105.45,-196.3 158.09,-185.47"/>
<polygon fill="#63b8ff" stroke="#63b8ff" points="159,-188.86 168.13,-183.5 157.65,-181.99 159,-188.86"/>
</g>
<!-- Node5 -->
<g id="node5" class="node">
<title>Node5</title>
<g id="a_node5"><a xlink:href="cat-m1_8h.html" target="_top" xlink:title=" ">
<polygon fill="white" stroke="#666666" points="375,-244.5 243,-244.5 243,-225.5 375,-225.5 375,-244.5"/>
<text text-anchor="middle" x="309" y="-232.5" font-family="Helvetica,sans-Serif" font-size="10.00">cli/peripherals/cat&#45;m1.h</text>
</a>
</g>
</g>
<!-- Node1&#45;&gt;Node5 -->
<g id="edge4" class="edge">
<title>Node1&#45;&gt;Node5</title>
<path fill="none" stroke="#63b8ff" d="M499.45,-285.95C454.87,-274.26 392.26,-257.84 351.17,-247.06"/>
<polygon fill="#63b8ff" stroke="#63b8ff" points="352.03,-243.67 341.47,-244.52 350.26,-250.44 352.03,-243.67"/>
</g>
<!-- Node11 -->
<g id="node11" class="node">
<title>Node11</title>
<g id="a_node11"><a xlink:href="sdi12_8h.html" target="_top" xlink:title=" ">
<polygon fill="white" stroke="#666666" points="207,-244.5 83,-244.5 83,-225.5 207,-225.5 207,-244.5"/>
<text text-anchor="middle" x="145" y="-232.5" font-family="Helvetica,sans-Serif" font-size="10.00">cli/peripherals/sdi12.h</text>
</a>
</g>
</g>
<!-- Node1&#45;&gt;Node11 -->
<g id="edge14" class="edge">
<title>Node1&#45;&gt;Node11</title>
<path fill="none" stroke="#63b8ff" d="M482.36,-288.94C417.72,-278.82 319.42,-263.41 234,-250 225.98,-248.74 217.55,-247.42 209.22,-246.11"/>
<polygon fill="#63b8ff" stroke="#63b8ff" points="209.55,-242.61 199.12,-244.52 208.46,-249.53 209.55,-242.61"/>
</g>
<!-- Node16 -->
<g id="node16" class="node">
<title>Node16</title>
<g id="a_node16"><a xlink:href="bluetooth_8h.html" target="_top" xlink:title=" ">
<polygon fill="white" stroke="#666666" points="709,-244.5 565,-244.5 565,-225.5 709,-225.5 709,-244.5"/>
<text text-anchor="middle" x="637" y="-232.5" font-family="Helvetica,sans-Serif" font-size="10.00">cli/peripherals/bluetooth.h</text>
</a>
</g>
</g>
<!-- Node1&#45;&gt;Node16 -->
<g id="edge25" class="edge">
<title>Node1&#45;&gt;Node16</title>
<path fill="none" stroke="#63b8ff" d="M571.64,-285.8C585.12,-275.53 603.31,-261.67 617.08,-251.18"/>
<polygon fill="#63b8ff" stroke="#63b8ff" points="619.56,-253.69 625.39,-244.84 615.32,-248.12 619.56,-253.69"/>
</g>
<!-- Node30 -->
<g id="node30" class="node">
<title>Node30</title>
<g id="a_node30"><a xlink:href="acquisition__intervals_8h.html" target="_top" xlink:title="Handles the time between measurements and uplinks by the device over LTE.">
<polygon fill="white" stroke="#666666" points="547,-250 393,-250 393,-220 547,-220 547,-250"/>
<text text-anchor="start" x="401" y="-238" font-family="Helvetica,sans-Serif" font-size="10.00">cli/device_config/acquisition</text>
<text text-anchor="middle" x="470" y="-227" font-family="Helvetica,sans-Serif" font-size="10.00">_intervals.h</text>
</a>
</g>
</g>
<!-- Node1&#45;&gt;Node30 -->
<g id="edge59" class="edge">
<title>Node1&#45;&gt;Node30</title>
<path fill="none" stroke="#63b8ff" d="M534.58,-285.8C523.4,-277.18 508.95,-266.04 496.56,-256.48"/>
<polygon fill="#63b8ff" stroke="#63b8ff" points="498.43,-253.5 488.37,-250.16 494.15,-259.04 498.43,-253.5"/>
</g>
<!-- Node33 -->
<g id="node33" class="node">
<title>Node33</title>
<g id="a_node33"><a xlink:href="mqtt__cli_8h.html" target="_top" xlink:title=" ">
<polygon fill="white" stroke="#666666" points="1037,-250 913,-250 913,-220 1037,-220 1037,-250"/>
<text text-anchor="start" x="921" y="-238" font-family="Helvetica,sans-Serif" font-size="10.00">cli/device_config/mqtt</text>
<text text-anchor="middle" x="975" y="-227" font-family="Helvetica,sans-Serif" font-size="10.00">_cli.h</text>
</a>
</g>
</g>
<!-- Node1&#45;&gt;Node33 -->
<g id="edge67" class="edge">
<title>Node1&#45;&gt;Node33</title>
<path fill="none" stroke="#63b8ff" d="M623.76,-291.04C692.55,-282.08 800.22,-267.38 902.79,-250.15"/>
<polygon fill="#63b8ff" stroke="#63b8ff" points="903.42,-253.6 912.7,-248.48 902.25,-246.7 903.42,-253.6"/>
</g>
<!-- Node34 -->
<g id="node34" class="node">
<title>Node34</title>
<g id="a_node34"><a xlink:href="config__cli_8h.html" target="_top" xlink:title=" ">
<polygon fill="white" stroke="#666666" points="895,-250 765,-250 765,-220 895,-220 895,-250"/>
<text text-anchor="start" x="773" y="-238" font-family="Helvetica,sans-Serif" font-size="10.00">cli/device_config/config</text>
<text text-anchor="middle" x="830" y="-227" font-family="Helvetica,sans-Serif" font-size="10.00">_cli.h</text>
</a>
</g>
</g>
<!-- Node1&#45;&gt;Node34 -->
<g id="edge69" class="edge">
<title>Node1&#45;&gt;Node34</title>
<path fill="none" stroke="#63b8ff" d="M613.79,-285.95C656.73,-276.03 714.4,-262.71 759.38,-252.32"/>
<polygon fill="#63b8ff" stroke="#63b8ff" points="760.4,-255.67 769.35,-250.01 758.82,-248.85 760.4,-255.67"/>
</g>
<!-- Node5&#45;&gt;Node3 -->
<g id="edge5" class="edge">
<title>Node5&#45;&gt;Node3</title>
<path fill="none" stroke="#63b8ff" d="M354.08,-225.49C409.64,-215.01 504.02,-197.2 563.85,-185.91"/>
<polygon fill="#63b8ff" stroke="#63b8ff" points="564.69,-189.31 573.87,-184.02 563.39,-182.43 564.69,-189.31"/>
</g>
<!-- Node5&#45;&gt;Node4 -->
<g id="edge8" class="edge">
<title>Node5&#45;&gt;Node4</title>
<path fill="none" stroke="#63b8ff" d="M296.16,-225.37C282.28,-216.04 259.93,-201.01 243.39,-189.88"/>
<polygon fill="#63b8ff" stroke="#63b8ff" points="245.14,-186.84 234.89,-184.17 241.24,-192.65 245.14,-186.84"/>
</g>
<!-- Node6 -->
<g id="node6" class="node">
<title>Node6</title>
<g id="a_node6"><a xlink:title=" ">
<polygon fill="#e0e0e0" stroke="#999999" points="437.5,-184 376.5,-184 376.5,-165 437.5,-165 437.5,-184"/>
<text text-anchor="middle" x="407" y="-172" font-family="Helvetica,sans-Serif" font-size="10.00">Stream.h</text>
</a>
</g>
</g>
<!-- Node5&#45;&gt;Node6 -->
<g id="edge6" class="edge">
<title>Node5&#45;&gt;Node6</title>
<path fill="none" stroke="#63b8ff" d="M323.46,-225.37C339.31,-215.91 364.97,-200.59 383.68,-189.42"/>
<polygon fill="#63b8ff" stroke="#63b8ff" points="385.69,-192.3 392.48,-184.17 382.1,-186.29 385.69,-192.3"/>
</g>
<!-- Node7 -->
<g id="node7" class="node">
<title>Node7</title>
<g id="a_node7"><a xlink:title=" ">
<polygon fill="#e0e0e0" stroke="#999999" points="544.5,-184 455.5,-184 455.5,-165 544.5,-165 544.5,-184"/>
<text text-anchor="middle" x="500" y="-172" font-family="Helvetica,sans-Serif" font-size="10.00">StreamString.h</text>
</a>
</g>
</g>
<!-- Node5&#45;&gt;Node7 -->
<g id="edge7" class="edge">
<title>Node5&#45;&gt;Node7</title>
<path fill="none" stroke="#63b8ff" d="M336.77,-225.49C369.87,-215.36 425.34,-198.37 462.29,-187.05"/>
<polygon fill="#63b8ff" stroke="#63b8ff" points="463.66,-190.29 472.19,-184.02 461.61,-183.6 463.66,-190.29"/>
</g>
<!-- Node8 -->
<g id="node8" class="node">
<title>Node8</title>
<g id="a_node8"><a xlink:href="_c_a_t___m1_8h.html" target="_top" xlink:title=" ">
<polygon fill="white" stroke="#666666" points="358.5,-184 293.5,-184 293.5,-165 358.5,-165 358.5,-184"/>
<text text-anchor="middle" x="326" y="-172" font-family="Helvetica,sans-Serif" font-size="10.00">CAT_M1.h</text>
</a>
</g>
</g>
<!-- Node5&#45;&gt;Node8 -->
<g id="edge9" class="edge">
<title>Node5&#45;&gt;Node8</title>
<path fill="none" stroke="#63b8ff" d="M311.51,-225.37C313.89,-217.16 317.56,-204.54 320.61,-194.05"/>
<polygon fill="#63b8ff" stroke="#63b8ff" points="324.05,-194.75 323.48,-184.17 317.33,-192.79 324.05,-194.75"/>
</g>
<!-- Node9 -->
<g id="node9" class="node">
<title>Node9</title>
<g id="a_node9"><a xlink:title=" ">
<polygon fill="#e0e0e0" stroke="#999999" points="381,-74 333,-74 333,-55 381,-55 381,-74"/>
<text text-anchor="middle" x="357" y="-62" font-family="Helvetica,sans-Serif" font-size="10.00">Wire.h</text>
</a>
</g>
</g>
<!-- Node8&#45;&gt;Node9 -->
<g id="edge10" class="edge">
<title>Node8&#45;&gt;Node9</title>
<path fill="none" stroke="#63b8ff" d="M328.54,-164.66C333.58,-147.09 344.96,-107.45 351.7,-83.95"/>
<polygon fill="#63b8ff" stroke="#63b8ff" points="355.12,-84.74 354.51,-74.16 348.39,-82.8 355.12,-84.74"/>
</g>
<!-- Node10 -->
<g id="node10" class="node">
<title>Node10</title>
<g id="a_node10"><a xlink:href="_t_c_a9534_8h.html" target="_top" xlink:title=" ">
<polygon fill="white" stroke="#666666" points="422,-129 354,-129 354,-110 422,-110 422,-129"/>
<text text-anchor="middle" x="388" y="-117" font-family="Helvetica,sans-Serif" font-size="10.00">TCA9534.h</text>
</a>
</g>
</g>
<!-- Node8&#45;&gt;Node10 -->
<g id="edge11" class="edge">
<title>Node8&#45;&gt;Node10</title>
<path fill="none" stroke="#63b8ff" d="M335.96,-164.98C345.13,-157.15 358.94,-145.34 370.03,-135.86"/>
<polygon fill="#63b8ff" stroke="#63b8ff" points="372.53,-138.33 377.86,-129.17 367.98,-133.01 372.53,-138.33"/>
</g>
<!-- Node10&#45;&gt;Node2 -->
<g id="edge12" class="edge">
<title>Node10&#45;&gt;Node2</title>
<path fill="none" stroke="#63b8ff" d="M415.92,-109.97C455.84,-97.78 531.54,-74.66 596,-55 632.73,-43.8 674.66,-31.02 704.13,-22.04"/>
<polygon fill="#63b8ff" stroke="#63b8ff" points="705.46,-25.29 714.01,-19.03 703.42,-18.59 705.46,-25.29"/>
</g>
<!-- Node10&#45;&gt;Node9 -->
<g id="edge13" class="edge">
<title>Node10&#45;&gt;Node9</title>
<path fill="none" stroke="#63b8ff" d="M382.88,-109.75C378.64,-102.49 372.47,-91.95 367.22,-82.98"/>
<polygon fill="#63b8ff" stroke="#63b8ff" points="370.09,-80.95 362.02,-74.09 364.05,-84.49 370.09,-80.95"/>
</g>
<!-- Node11&#45;&gt;Node3 -->
<g id="edge15" class="edge">
<title>Node11&#45;&gt;Node3</title>
<path fill="none" stroke="#63b8ff" d="M196.71,-225.47C208.92,-223.57 221.91,-221.63 234,-220 372.65,-201.31 410.25,-201.27 552.33,-184.18"/>
<polygon fill="#63b8ff" stroke="#63b8ff" points="552.78,-187.65 562.29,-182.98 551.94,-180.7 552.78,-187.65"/>
</g>
<!-- Node11&#45;&gt;Node4 -->
<g id="edge20" class="edge">
<title>Node11&#45;&gt;Node4</title>
<path fill="none" stroke="#63b8ff" d="M156.36,-225.37C168.42,-216.21 187.7,-201.56 202.25,-190.51"/>
<polygon fill="#63b8ff" stroke="#63b8ff" points="204.75,-193 210.59,-184.17 200.51,-187.43 204.75,-193"/>
</g>
<!-- Node11&#45;&gt;Node6 -->
<g id="edge16" class="edge">
<title>Node11&#45;&gt;Node6</title>
<path fill="none" stroke="#63b8ff" d="M183.1,-225.49C231.96,-214.58 316.35,-195.74 366.39,-184.57"/>
<polygon fill="#63b8ff" stroke="#63b8ff" points="367.23,-187.97 376.22,-182.37 365.7,-181.14 367.23,-187.97"/>
</g>
<!-- Node11&#45;&gt;Node7 -->
<g id="edge17" class="edge">
<title>Node11&#45;&gt;Node7</title>
<path fill="none" stroke="#63b8ff" d="M196.62,-225.49C262.93,-214.57 377.51,-195.68 445.28,-184.52"/>
<polygon fill="#63b8ff" stroke="#63b8ff" points="446.04,-187.94 455.34,-182.86 444.9,-181.03 446.04,-187.94"/>
</g>
<!-- Node11&#45;&gt;Node11 -->
<g id="edge18" class="edge">
<title>Node11&#45;&gt;Node11</title>
<path fill="none" stroke="#63b8ff" d="M174.54,-244.53C199.22,-248.61 225,-245.43 225,-235 225,-226 205.78,-222.4 184.65,-224.2"/>
<polygon fill="#63b8ff" stroke="#63b8ff" points="184.03,-220.75 174.54,-225.47 184.9,-227.7 184.03,-220.75"/>
</g>
<!-- Node12 -->
<g id="node12" class="node">
<title>Node12</title>
<g id="a_node12"><a xlink:title=" ">
<polygon fill="#e0e0e0" stroke="#999999" points="121.5,-129 28.5,-129 28.5,-110 121.5,-110 121.5,-129"/>
<text text-anchor="middle" x="75" y="-117" font-family="Helvetica,sans-Serif" font-size="10.00">dpiclimate&#45;12.h</text>
</a>
</g>
</g>
<!-- Node11&#45;&gt;Node12 -->
<g id="edge19" class="edge">
<title>Node11&#45;&gt;Node12</title>
<path fill="none" stroke="#63b8ff" d="M132.9,-225.43C121.05,-216.42 103.31,-201.18 93,-184 84.79,-170.32 80.19,-152.74 77.69,-139.55"/>
<polygon fill="#63b8ff" stroke="#63b8ff" points="81.08,-138.59 76.01,-129.29 74.18,-139.73 81.08,-138.59"/>
</g>
<!-- Node13 -->
<g id="node13" class="node">
<title>Node13</title>
<g id="a_node13"><a xlink:href="_utils_8h.html" target="_top" xlink:title=" ">
<polygon fill="white" stroke="#666666" points="150,-184 102,-184 102,-165 150,-165 150,-184"/>
<text text-anchor="middle" x="126" y="-172" font-family="Helvetica,sans-Serif" font-size="10.00">Utils.h</text>
</a>
</g>
</g>
<!-- Node11&#45;&gt;Node13 -->
<g id="edge21" class="edge">
<title>Node11&#45;&gt;Node13</title>
<path fill="none" stroke="#63b8ff" d="M142.2,-225.37C139.5,-217.07 135.35,-204.28 131.92,-193.72"/>
<polygon fill="#63b8ff" stroke="#63b8ff" points="135.23,-192.6 128.82,-184.17 128.58,-194.76 135.23,-192.6"/>
</g>
<!-- Node13&#45;&gt;Node12 -->
<g id="edge24" class="edge">
<title>Node13&#45;&gt;Node12</title>
<path fill="none" stroke="#63b8ff" d="M117.58,-164.75C110.23,-157.11 99.37,-145.82 90.46,-136.56"/>
<polygon fill="#63b8ff" stroke="#63b8ff" points="92.72,-133.87 83.26,-129.09 87.68,-138.72 92.72,-133.87"/>
</g>
<!-- Node14 -->
<g id="node14" class="node">
<title>Node14</title>
<g id="a_node14"><a xlink:title=" ">
<polygon fill="#e0e0e0" stroke="#999999" points="196,-129 140,-129 140,-110 196,-110 196,-129"/>
<text text-anchor="middle" x="168" y="-117" font-family="Helvetica,sans-Serif" font-size="10.00">stddef.h</text>
</a>
</g>
</g>
<!-- Node13&#45;&gt;Node14 -->
<g id="edge22" class="edge">
<title>Node13&#45;&gt;Node14</title>
<path fill="none" stroke="#63b8ff" d="M132.94,-164.75C138.87,-157.26 147.57,-146.28 154.82,-137.13"/>
<polygon fill="#63b8ff" stroke="#63b8ff" points="157.73,-139.1 161.19,-129.09 152.24,-134.75 157.73,-139.1"/>
</g>
<!-- Node15 -->
<g id="node15" class="node">
<title>Node15</title>
<g id="a_node15"><a xlink:title=" ">
<polygon fill="#e0e0e0" stroke="#999999" points="297.5,-129 214.5,-129 214.5,-110 297.5,-110 297.5,-129"/>
<text text-anchor="middle" x="256" y="-117" font-family="Helvetica,sans-Serif" font-size="10.00">ArduinoJson.h</text>
</a>
</g>
</g>
<!-- Node13&#45;&gt;Node15 -->
<g id="edge23" class="edge">
<title>Node13&#45;&gt;Node15</title>
<path fill="none" stroke="#63b8ff" d="M146.89,-164.98C168.08,-156.34 201.13,-142.87 225.3,-133.02"/>
<polygon fill="#63b8ff" stroke="#63b8ff" points="226.79,-136.19 234.73,-129.17 224.15,-129.7 226.79,-136.19"/>
</g>
<!-- Node16&#45;&gt;Node3 -->
<g id="edge26" class="edge">
<title>Node16&#45;&gt;Node3</title>
<path fill="none" stroke="#63b8ff" d="M634.34,-225.37C631.82,-217.16 627.94,-204.54 624.71,-194.05"/>
<polygon fill="#63b8ff" stroke="#63b8ff" points="627.95,-192.7 621.67,-184.17 621.26,-194.75 627.95,-192.7"/>
</g>
<!-- Node16&#45;&gt;Node6 -->
<g id="edge27" class="edge">
<title>Node16&#45;&gt;Node6</title>
<path fill="none" stroke="#63b8ff" d="M603.56,-225.49C562.18,-214.97 491.77,-197.06 447.41,-185.78"/>
<polygon fill="#63b8ff" stroke="#63b8ff" points="448.1,-182.34 437.54,-183.27 446.37,-189.13 448.1,-182.34"/>
</g>
<!-- Node16&#45;&gt;Node7 -->
<g id="edge28" class="edge">
<title>Node16&#45;&gt;Node7</title>
<path fill="none" stroke="#63b8ff" d="M617.08,-225.49C594.05,-215.66 555.92,-199.38 529.46,-188.08"/>
<polygon fill="#63b8ff" stroke="#63b8ff" points="530.52,-184.72 519.95,-184.02 527.77,-191.16 530.52,-184.72"/>
</g>
<!-- Node17 -->
<g id="node17" class="node">
<title>Node17</title>
<g id="a_node17"><a xlink:href="server_8h.html" target="_top" xlink:title="Handle the setup and maintenance of the BLE server and connected clients.">
<polygon fill="white" stroke="#666666" points="994.5,-184 889.5,-184 889.5,-165 994.5,-165 994.5,-184"/>
<text text-anchor="middle" x="942" y="-172" font-family="Helvetica,sans-Serif" font-size="10.00">bluetooth/server.h</text>
</a>
</g>
</g>
<!-- Node16&#45;&gt;Node17 -->
<g id="edge29" class="edge">
<title>Node16&#45;&gt;Node17</title>
<path fill="none" stroke="#63b8ff" d="M681.35,-225.49C736.01,-215.01 828.87,-197.2 887.74,-185.91"/>
<polygon fill="#63b8ff" stroke="#63b8ff" points="888.44,-189.34 897.6,-184.02 887.12,-182.46 888.44,-189.34"/>
</g>
<!-- Node17&#45;&gt;Node1 -->
<g id="edge58" class="edge">
<title>Node17&#45;&gt;Node1</title>
<path fill="none" stroke="#63b8ff" d="M990.85,-184.05C1011.5,-190.35 1033.62,-201.23 1046,-220 1053.34,-231.13 1054.94,-240.11 1046,-250 1018.93,-279.96 766.44,-292.87 633.7,-297.62"/>
<polygon fill="#63b8ff" stroke="#63b8ff" points="633.45,-294.13 623.57,-297.98 633.69,-301.12 633.45,-294.13"/>
</g>
<!-- Node18 -->
<g id="node18" class="node">
<title>Node18</title>
<g id="a_node18"><a xlink:title=" ">
<polygon fill="#e0e0e0" stroke="#999999" points="1131.5,-129 1054.5,-129 1054.5,-110 1131.5,-110 1131.5,-129"/>
<text text-anchor="middle" x="1093" y="-117" font-family="Helvetica,sans-Serif" font-size="10.00">BLEDevice.h</text>
</a>
</g>
</g>
<!-- Node17&#45;&gt;Node18 -->
<g id="edge30" class="edge">
<title>Node17&#45;&gt;Node18</title>
<path fill="none" stroke="#63b8ff" d="M966.26,-164.98C991.32,-156.19 1030.63,-142.39 1058.83,-132.49"/>
<polygon fill="#63b8ff" stroke="#63b8ff" points="1060.02,-135.78 1068.3,-129.17 1057.7,-129.18 1060.02,-135.78"/>
</g>
<!-- Node19 -->
<g id="node19" class="node">
<title>Node19</title>
<g id="a_node19"><a xlink:title=" ">
<polygon fill="#e0e0e0" stroke="#999999" points="900,-74 826,-74 826,-55 900,-55 900,-74"/>
<text text-anchor="middle" x="863" y="-62" font-family="Helvetica,sans-Serif" font-size="10.00">BLEServer.h</text>
</a>
</g>
</g>
<!-- Node17&#45;&gt;Node19 -->
<g id="edge31" class="edge">
<title>Node17&#45;&gt;Node19</title>
<path fill="none" stroke="#63b8ff" d="M935.54,-164.66C922.39,-146.69 892.36,-105.64 875.35,-82.38"/>
<polygon fill="#63b8ff" stroke="#63b8ff" points="878.06,-80.16 869.33,-74.16 872.41,-84.3 878.06,-80.16"/>
</g>
<!-- Node20 -->
<g id="node20" class="node">
<title>Node20</title>
<g id="a_node20"><a xlink:title=" ">
<polygon fill="#e0e0e0" stroke="#999999" points="1398,-129 1332,-129 1332,-110 1398,-110 1398,-129"/>
<text text-anchor="middle" x="1365" y="-117" font-family="Helvetica,sans-Serif" font-size="10.00">BLEUtils.h</text>
</a>
</g>
</g>
<!-- Node17&#45;&gt;Node20 -->
<g id="edge32" class="edge">
<title>Node17&#45;&gt;Node20</title>
<path fill="none" stroke="#63b8ff" d="M994.57,-168.76C1066.3,-161.98 1199.03,-148.34 1321.64,-129.1"/>
<polygon fill="#63b8ff" stroke="#63b8ff" points="1322.25,-132.55 1331.58,-127.53 1321.15,-125.64 1322.25,-132.55"/>
</g>
<!-- Node21 -->
<g id="node21" class="node">
<title>Node21</title>
<g id="a_node21"><a xlink:title=" ">
<polygon fill="#e0e0e0" stroke="#999999" points="986,-74 918,-74 918,-55 986,-55 986,-74"/>
<text text-anchor="middle" x="952" y="-62" font-family="Helvetica,sans-Serif" font-size="10.00">BLE2902.h</text>
</a>
</g>
</g>
<!-- Node17&#45;&gt;Node21 -->
<g id="edge33" class="edge">
<title>Node17&#45;&gt;Node21</title>
<path fill="none" stroke="#63b8ff" d="M935.62,-164.9C927.38,-152.72 914.81,-129.72 921,-110 924.23,-99.71 930.78,-89.72 937.03,-81.82"/>
<polygon fill="#63b8ff" stroke="#63b8ff" points="939.73,-84.04 943.52,-74.15 934.39,-79.52 939.73,-84.04"/>
</g>
<!-- Node22 -->
<g id="node22" class="node">
<title>Node22</title>
<g id="a_node22"><a xlink:href="uart_8h.html" target="_top" xlink:title="BluetoothLE UART service setup and handling.">
<polygon fill="white" stroke="#666666" points="834.5,-129 739.5,-129 739.5,-110 834.5,-110 834.5,-129"/>
<text text-anchor="middle" x="787" y="-117" font-family="Helvetica,sans-Serif" font-size="10.00">bluetooth/uart.h</text>
</a>
</g>
</g>
<!-- Node17&#45;&gt;Node22 -->
<g id="edge34" class="edge">
<title>Node17&#45;&gt;Node22</title>
<path fill="none" stroke="#63b8ff" d="M911.98,-164.98C884.44,-156.23 844.11,-142.51 816.68,-132.62"/>
<polygon fill="#63b8ff" stroke="#63b8ff" points="817.8,-129.31 807.21,-129.17 815.4,-135.88 817.8,-129.31"/>
</g>
<!-- Node25 -->
<g id="node25" class="node">
<title>Node25</title>
<g id="a_node25"><a xlink:href="device_8h.html" target="_top" xlink:title="Bluetooth device services and device information.">
<polygon fill="white" stroke="#666666" points="1036.5,-129 929.5,-129 929.5,-110 1036.5,-110 1036.5,-129"/>
<text text-anchor="middle" x="983" y="-117" font-family="Helvetica,sans-Serif" font-size="10.00">bluetooth/device.h</text>
</a>
</g>
</g>
<!-- Node17&#45;&gt;Node25 -->
<g id="edge42" class="edge">
<title>Node17&#45;&gt;Node25</title>
<path fill="none" stroke="#63b8ff" d="M948.77,-164.75C954.56,-157.26 963.06,-146.28 970.14,-137.13"/>
<polygon fill="#63b8ff" stroke="#63b8ff" points="973.01,-139.14 976.36,-129.09 967.47,-134.86 973.01,-139.14"/>
</g>
<!-- Node26 -->
<g id="node26" class="node">
<title>Node26</title>
<g id="a_node26"><a xlink:href="power__monitoring_8h.html" target="_top" xlink:title="Setup BluetoothLE power monitoring information.">
<polygon fill="white" stroke="#666666" points="1314,-129 1150,-129 1150,-110 1314,-110 1314,-129"/>
<text text-anchor="middle" x="1232" y="-117" font-family="Helvetica,sans-Serif" font-size="10.00">bluetooth/power_monitoring.h</text>
</a>
</g>
</g>
<!-- Node17&#45;&gt;Node26 -->
<g id="edge47" class="edge">
<title>Node17&#45;&gt;Node26</title>
<path fill="none" stroke="#63b8ff" d="M988.59,-164.98C1039.39,-155.7 1120.69,-140.84 1175.19,-130.88"/>
<polygon fill="#63b8ff" stroke="#63b8ff" points="1175.83,-134.32 1185.04,-129.08 1174.57,-127.44 1175.83,-134.32"/>
</g>
<!-- Node22&#45;&gt;Node2 -->
<g id="edge35" class="edge">
<title>Node22&#45;&gt;Node2</title>
<path fill="none" stroke="#63b8ff" d="M739.27,-113.59C713.61,-108.24 684.03,-97.11 668,-74 653.39,-52.94 681.95,-34.58 707.72,-23.09"/>
<polygon fill="#63b8ff" stroke="#63b8ff" points="709.15,-26.29 717,-19.18 706.43,-19.84 709.15,-26.29"/>
</g>
<!-- Node22&#45;&gt;Node17 -->
<g id="edge41" class="edge">
<title>Node22&#45;&gt;Node17</title>
<path fill="none" stroke="#63b8ff" d="M817.23,-129.08C844.92,-137.89 885.41,-151.67 912.77,-161.54"/>
<polygon fill="#63b8ff" stroke="#63b8ff" points="911.62,-164.84 922.21,-164.98 914.02,-158.27 911.62,-164.84"/>
</g>
<!-- Node22&#45;&gt;Node19 -->
<g id="edge37" class="edge">
<title>Node22&#45;&gt;Node19</title>
<path fill="none" stroke="#63b8ff" d="M799.21,-109.98C810.78,-101.92 828.38,-89.65 842.16,-80.03"/>
<polygon fill="#63b8ff" stroke="#63b8ff" points="844.37,-82.76 850.57,-74.17 840.36,-77.02 844.37,-82.76"/>
</g>
<!-- Node22&#45;&gt;Node21 -->
<g id="edge38" class="edge">
<title>Node22&#45;&gt;Node21</title>
<path fill="none" stroke="#63b8ff" d="M813.51,-109.98C841.21,-101.09 884.86,-87.07 915.74,-77.15"/>
<polygon fill="#63b8ff" stroke="#63b8ff" points="916.83,-80.47 925.28,-74.08 914.69,-73.81 916.83,-80.47"/>
</g>
<!-- Node23 -->
<g id="node23" class="node">
<title>Node23</title>
<g id="a_node23"><a xlink:title=" ">
<polygon fill="#e0e0e0" stroke="#999999" points="1153.5,-74 1042.5,-74 1042.5,-55 1153.5,-55 1153.5,-74"/>
<text text-anchor="middle" x="1098" y="-62" font-family="Helvetica,sans-Serif" font-size="10.00">BLECharacteristic.h</text>
</a>
</g>
</g>
<!-- Node22&#45;&gt;Node23 -->
<g id="edge36" class="edge">
<title>Node22&#45;&gt;Node23</title>
<path fill="none" stroke="#63b8ff" d="M834.57,-110.39C889.18,-101.09 978.83,-85.81 1038.14,-75.7"/>
<polygon fill="#63b8ff" stroke="#63b8ff" points="1038.85,-79.13 1048.12,-74 1037.67,-72.23 1038.85,-79.13"/>
</g>
<!-- Node24 -->
<g id="node24" class="node">
<title>Node24</title>
<g id="a_node24"><a xlink:href="tones_8h.html" target="_top" xlink:title="Audio control for the onboard piezo buzzer.">
<polygon fill="white" stroke="#666666" points="807.5,-74 676.5,-74 676.5,-55 807.5,-55 807.5,-74"/>
<text text-anchor="middle" x="742" y="-62" font-family="Helvetica,sans-Serif" font-size="10.00">audio&#45;feedback/tones.h</text>
</a>
</g>
</g>
<!-- Node22&#45;&gt;Node24 -->
<g id="edge39" class="edge">
<title>Node22&#45;&gt;Node24</title>
<path fill="none" stroke="#63b8ff" d="M779.57,-109.75C773.15,-102.18 763.69,-91.05 755.88,-81.84"/>
<polygon fill="#63b8ff" stroke="#63b8ff" points="758.43,-79.45 749.29,-74.09 753.1,-83.98 758.43,-79.45"/>
</g>
<!-- Node24&#45;&gt;Node2 -->
<g id="edge40" class="edge">
<title>Node24&#45;&gt;Node2</title>
<path fill="none" stroke="#63b8ff" d="M742,-54.75C742,-47.8 742,-37.85 742,-29.13"/>
<polygon fill="#63b8ff" stroke="#63b8ff" points="745.5,-29.09 742,-19.09 738.5,-29.09 745.5,-29.09"/>
</g>
<!-- Node25&#45;&gt;Node2 -->
<g id="edge43" class="edge">
<title>Node25&#45;&gt;Node2</title>
<path fill="none" stroke="#63b8ff" d="M988.72,-109.57C996.52,-96.14 1008.13,-70.64 995,-55 968.58,-23.53 849.15,-14.31 784.26,-11.61"/>
<polygon fill="#63b8ff" stroke="#63b8ff" points="784.09,-8.1 773.96,-11.22 783.82,-15.1 784.09,-8.1"/>
</g>
<!-- Node25&#45;&gt;Node19 -->
<g id="edge45" class="edge">
<title>Node25&#45;&gt;Node19</title>
<path fill="none" stroke="#63b8ff" d="M963.72,-109.98C944.33,-101.42 914.19,-88.11 891.93,-78.28"/>
<polygon fill="#63b8ff" stroke="#63b8ff" points="893.19,-75.01 882.63,-74.17 890.36,-81.41 893.19,-75.01"/>
</g>
<!-- Node25&#45;&gt;Node21 -->
<g id="edge46" class="edge">
<title>Node25&#45;&gt;Node21</title>
<path fill="none" stroke="#63b8ff" d="M977.88,-109.75C973.64,-102.49 967.47,-91.95 962.22,-82.98"/>
<polygon fill="#63b8ff" stroke="#63b8ff" points="965.09,-80.95 957.02,-74.09 959.05,-84.49 965.09,-80.95"/>
</g>
<!-- Node25&#45;&gt;Node23 -->
<g id="edge44" class="edge">
<title>Node25&#45;&gt;Node23</title>
<path fill="none" stroke="#63b8ff" d="M1001.48,-109.98C1019.98,-101.46 1048.68,-88.23 1069.98,-78.41"/>
<polygon fill="#63b8ff" stroke="#63b8ff" points="1071.57,-81.53 1079.19,-74.17 1068.64,-75.18 1071.57,-81.53"/>
</g>
<!-- Node26&#45;&gt;Node2 -->
<g id="edge48" class="edge">
<title>Node26&#45;&gt;Node2</title>
<path fill="none" stroke="#63b8ff" d="M1225.53,-109.65C1214.51,-95.34 1190.59,-67.47 1163,-55 1095.94,-24.68 876.13,-14.56 783.62,-11.6"/>
<polygon fill="#63b8ff" stroke="#63b8ff" points="783.61,-8.1 773.51,-11.29 783.39,-15.09 783.61,-8.1"/>
</g>
<!-- Node26&#45;&gt;Node19 -->
<g id="edge50" class="edge">
<title>Node26&#45;&gt;Node19</title>
<path fill="none" stroke="#63b8ff" d="M1163.5,-109.99C1100.26,-101.92 1003.49,-89.04 910.04,-74.11"/>
<polygon fill="#63b8ff" stroke="#63b8ff" points="910.56,-70.64 900.13,-72.51 909.45,-77.56 910.56,-70.64"/>
</g>
<!-- Node26&#45;&gt;Node21 -->
<g id="edge51" class="edge">
<title>Node26&#45;&gt;Node21</title>
<path fill="none" stroke="#63b8ff" d="M1187.01,-109.98C1134.55,-100.05 1048.38,-83.74 996.24,-73.87"/>
<polygon fill="#63b8ff" stroke="#63b8ff" points="996.76,-70.41 986.29,-71.99 995.46,-77.29 996.76,-70.41"/>
</g>
<!-- Node26&#45;&gt;Node23 -->
<g id="edge49" class="edge">
<title>Node26&#45;&gt;Node23</title>
<path fill="none" stroke="#63b8ff" d="M1210.47,-109.98C1188.53,-101.3 1154.26,-87.75 1129.31,-77.88"/>
<polygon fill="#63b8ff" stroke="#63b8ff" points="1130.51,-74.59 1119.92,-74.17 1127.93,-81.1 1130.51,-74.59"/>
</g>
<!-- Node27 -->
<g id="node27" class="node">
<title>Node27</title>
<g id="a_node27"><a xlink:href="solar_8h.html" target="_top" xlink:title=" ">
<polygon fill="white" stroke="#666666" points="1520,-74 1380,-74 1380,-55 1520,-55 1520,-74"/>
<text text-anchor="middle" x="1450" y="-62" font-family="Helvetica,sans-Serif" font-size="10.00">power_monitoring/solar.h</text>
</a>
</g>
</g>
<!-- Node26&#45;&gt;Node27 -->
<g id="edge52" class="edge">
<title>Node26&#45;&gt;Node27</title>
<path fill="none" stroke="#63b8ff" d="M1267.03,-109.98C1304.5,-100.87 1364.05,-86.4 1404.98,-76.45"/>
<polygon fill="#63b8ff" stroke="#63b8ff" points="1405.81,-79.85 1414.7,-74.08 1404.16,-73.04 1405.81,-79.85"/>
</g>
<!-- Node29 -->
<g id="node29" class="node">
<title>Node29</title>
<g id="a_node29"><a xlink:href="battery_8h.html" target="_top" xlink:title=" ">
<polygon fill="white" stroke="#666666" points="1361.5,-74 1210.5,-74 1210.5,-55 1361.5,-55 1361.5,-74"/>
<text text-anchor="middle" x="1286" y="-62" font-family="Helvetica,sans-Serif" font-size="10.00">power_monitoring/battery.h</text>
</a>
</g>
</g>
<!-- Node26&#45;&gt;Node29 -->
<g id="edge55" class="edge">
<title>Node26&#45;&gt;Node29</title>
<path fill="none" stroke="#63b8ff" d="M1240.92,-109.75C1248.78,-102.03 1260.43,-90.6 1269.92,-81.28"/>
<polygon fill="#63b8ff" stroke="#63b8ff" points="1272.56,-83.59 1277.25,-74.09 1267.66,-78.6 1272.56,-83.59"/>
</g>
<!-- Node27&#45;&gt;Node2 -->
<g id="edge53" class="edge">
<title>Node27&#45;&gt;Node2</title>
<path fill="none" stroke="#63b8ff" d="M1379.8,-55.81C1376.83,-55.53 1373.89,-55.26 1371,-55 1150.1,-35.31 884.93,-18.92 783.88,-12.93"/>
<polygon fill="#63b8ff" stroke="#63b8ff" points="783.97,-9.43 773.78,-12.34 783.55,-16.42 783.97,-9.43"/>
</g>
<!-- Node28 -->
<g id="node28" class="node">
<title>Node28</title>
<g id="a_node28"><a xlink:title=" ">
<polygon fill="#e0e0e0" stroke="#999999" points="1420.5,-19 1315.5,-19 1315.5,0 1420.5,0 1420.5,-19"/>
<text text-anchor="middle" x="1368" y="-7" font-family="Helvetica,sans-Serif" font-size="10.00">Adafruit_INA219.h</text>
</a>
</g>
</g>
<!-- Node27&#45;&gt;Node28 -->
<g id="edge54" class="edge">
<title>Node27&#45;&gt;Node28</title>
<path fill="none" stroke="#63b8ff" d="M1436.83,-54.98C1424.23,-46.84 1405,-34.41 1390.06,-24.76"/>
<polygon fill="#63b8ff" stroke="#63b8ff" points="1391.71,-21.66 1381.41,-19.17 1387.91,-27.54 1391.71,-21.66"/>
</g>
<!-- Node29&#45;&gt;Node2 -->
<g id="edge56" class="edge">
<title>Node29&#45;&gt;Node2</title>
<path fill="none" stroke="#63b8ff" d="M1210.36,-56.13C1093.98,-44.79 874.9,-23.45 783.6,-14.55"/>
<polygon fill="#63b8ff" stroke="#63b8ff" points="783.92,-11.07 773.62,-13.58 783.24,-18.03 783.92,-11.07"/>
</g>
<!-- Node29&#45;&gt;Node28 -->
<g id="edge57" class="edge">
<title>Node29&#45;&gt;Node28</title>
<path fill="none" stroke="#63b8ff" d="M1299.17,-54.98C1311.77,-46.84 1331,-34.41 1345.94,-24.76"/>
<polygon fill="#63b8ff" stroke="#63b8ff" points="1348.09,-27.54 1354.59,-19.17 1344.29,-21.66 1348.09,-27.54"/>
</g>
<!-- Node30&#45;&gt;Node3 -->
<g id="edge60" class="edge">
<title>Node30&#45;&gt;Node3</title>
<path fill="none" stroke="#63b8ff" d="M505.69,-219.99C530.66,-210.18 563.7,-197.21 587.66,-187.81"/>
<polygon fill="#63b8ff" stroke="#63b8ff" points="588.97,-191.05 597,-184.14 586.41,-184.54 588.97,-191.05"/>
</g>
<!-- Node30&#45;&gt;Node4 -->
<g id="edge63" class="edge">
<title>Node30&#45;&gt;Node4</title>
<path fill="none" stroke="#63b8ff" d="M410.6,-219.99C366.87,-209.67 308.28,-195.85 268.07,-186.37"/>
<polygon fill="#63b8ff" stroke="#63b8ff" points="268.8,-182.94 258.26,-184.05 267.19,-189.76 268.8,-182.94"/>
</g>
<!-- Node30&#45;&gt;Node6 -->
<g id="edge61" class="edge">
<title>Node30&#45;&gt;Node6</title>
<path fill="none" stroke="#63b8ff" d="M454.75,-219.84C445.42,-211.17 433.47,-200.08 423.85,-191.15"/>
<polygon fill="#63b8ff" stroke="#63b8ff" points="426.15,-188.51 416.44,-184.27 421.39,-193.64 426.15,-188.51"/>
</g>
<!-- Node30&#45;&gt;Node7 -->
<g id="edge62" class="edge">
<title>Node30&#45;&gt;Node7</title>
<path fill="none" stroke="#63b8ff" d="M477.26,-219.84C481.35,-211.87 486.49,-201.84 490.86,-193.33"/>
<polygon fill="#63b8ff" stroke="#63b8ff" points="494.06,-194.76 495.5,-184.27 487.83,-191.57 494.06,-194.76"/>
</g>
<!-- Node31 -->
<g id="node31" class="node">
<title>Node31</title>
<g id="a_node31"><a xlink:href="_device_config_8h.html" target="_top" xlink:title=" ">
<polygon fill="white" stroke="#666666" points="784,-184 694,-184 694,-165 784,-165 784,-184"/>
<text text-anchor="middle" x="739" y="-172" font-family="Helvetica,sans-Serif" font-size="10.00">DeviceConfig.h</text>
</a>
</g>
</g>
<!-- Node30&#45;&gt;Node31 -->
<g id="edge64" class="edge">
<title>Node30&#45;&gt;Node31</title>
<path fill="none" stroke="#63b8ff" d="M534.43,-219.99C582.16,-209.61 646.23,-195.68 689.86,-186.19"/>
<polygon fill="#63b8ff" stroke="#63b8ff" points="690.64,-189.6 699.67,-184.05 689.15,-182.76 690.64,-189.6"/>
</g>
<!-- Node31&#45;&gt;Node2 -->
<g id="edge65" class="edge">
<title>Node31&#45;&gt;Node2</title>
<path fill="none" stroke="#63b8ff" d="M725.25,-164.78C696.53,-145.43 634.84,-97.28 660,-55 668.99,-39.9 685.08,-29.61 700.65,-22.76"/>
<polygon fill="#63b8ff" stroke="#63b8ff" points="702.22,-25.9 710.2,-18.93 699.62,-19.4 702.22,-25.9"/>
</g>
<!-- Node32 -->
<g id="node32" class="node">
<title>Node32</title>
<g id="a_node32"><a xlink:title=" ">
<polygon fill="#e0e0e0" stroke="#999999" points="581.5,-129 494.5,-129 494.5,-110 581.5,-110 581.5,-129"/>
<text text-anchor="middle" x="538" y="-117" font-family="Helvetica,sans-Serif" font-size="10.00">ArduinoJSON.h</text>
</a>
</g>
</g>
<!-- Node31&#45;&gt;Node32 -->
<g id="edge66" class="edge">
<title>Node31&#45;&gt;Node32</title>
<path fill="none" stroke="#63b8ff" d="M706.71,-164.98C672.38,-155.93 617.94,-141.58 580.23,-131.64"/>
<polygon fill="#63b8ff" stroke="#63b8ff" points="581.11,-128.25 570.55,-129.08 579.32,-135.02 581.11,-128.25"/>
</g>
<!-- Node33&#45;&gt;Node31 -->
<g id="edge68" class="edge">
<title>Node33&#45;&gt;Node31</title>
<path fill="none" stroke="#63b8ff" d="M918.47,-219.99C877.04,-209.72 821.57,-195.97 783.33,-186.49"/>
<polygon fill="#63b8ff" stroke="#63b8ff" points="784.06,-183.06 773.51,-184.05 782.37,-189.86 784.06,-183.06"/>
</g>
<!-- Node34&#45;&gt;Node31 -->
<g id="edge70" class="edge">
<title>Node34&#45;&gt;Node31</title>
<path fill="none" stroke="#63b8ff" d="M807.97,-219.84C793.73,-210.68 775.27,-198.82 761.03,-189.66"/>
<polygon fill="#63b8ff" stroke="#63b8ff" points="762.67,-186.56 752.37,-184.09 758.89,-192.45 762.67,-186.56"/>
</g>
</g>
</svg>
