<?xml version="1.0" encoding="UTF-8" standalone="no"?>
<!DOCTYPE svg PUBLIC "-//W3C//DTD SVG 1.1//EN"
 "http://www.w3.org/Graphics/SVG/1.1/DTD/svg11.dtd">
<!-- Generated by graphviz version 2.43.0 (0)
 -->
<!-- Title: firmware/wombat/src/cli/CLI.cpp Pages: 1 -->
<svg width="1214pt" height="324pt"
 viewBox="0.00 0.00 1214.31 324.00" xmlns="http://www.w3.org/2000/svg" xmlns:xlink="http://www.w3.org/1999/xlink">
<g id="graph0" class="graph" transform="scale(1 1) rotate(0) translate(4 320)">
<title>firmware/wombat/src/cli/CLI.cpp</title>
<!-- Node1 -->
<g id="node1" class="node">
<title>Node1</title>
<g id="a_node1"><a xlink:title="FreeRTOS CLI handler.">
<polygon fill="#999999" stroke="#666666" points="687.31,-316 567.31,-316 567.31,-286 687.31,-286 687.31,-316"/>
<text text-anchor="start" x="575.31" y="-304" font-family="Helvetica,sans-Serif" font-size="10.00">firmware/wombat/src</text>
<text text-anchor="middle" x="627.31" y="-293" font-family="Helvetica,sans-Serif" font-size="10.00">/cli/CLI.cpp</text>
</a>
</g>
</g>
<!-- Node2 -->
<g id="node2" class="node">
<title>Node2</title>
<g id="a_node2"><a xlink:href="_c_l_i_8h.html" target="_top" xlink:title="FreeRTOS CLI handler.">
<polygon fill="white" stroke="#666666" points="654.81,-250 599.81,-250 599.81,-231 654.81,-231 654.81,-250"/>
<text text-anchor="middle" x="627.31" y="-238" font-family="Helvetica,sans-Serif" font-size="10.00">cli/CLI.h</text>
</a>
</g>
</g>
<!-- Node1&#45;&gt;Node2 -->
<g id="edge1" class="edge">
<title>Node1&#45;&gt;Node2</title>
<path fill="none" stroke="#63b8ff" d="M627.31,-285.84C627.31,-278.21 627.31,-268.7 627.31,-260.45"/>
<polygon fill="#63b8ff" stroke="#63b8ff" points="630.81,-260.27 627.31,-250.27 623.81,-260.27 630.81,-260.27"/>
</g>
<!-- Node3 -->
<g id="node3" class="node">
<title>Node3</title>
<g id="a_node3"><a xlink:title=" ">
<polygon fill="#e0e0e0" stroke="#999999" points="861.81,-19 798.81,-19 798.81,0 861.81,0 861.81,-19"/>
<text text-anchor="middle" x="830.31" y="-7" font-family="Helvetica,sans-Serif" font-size="10.00">Arduino.h</text>
</a>
</g>
</g>
<!-- Node2&#45;&gt;Node3 -->
<g id="edge2" class="edge">
<title>Node2&#45;&gt;Node3</title>
<path fill="none" stroke="#63b8ff" d="M654.84,-239.44C762.38,-238.94 1149.94,-234.38 1186.31,-195 1285.01,-88.13 985.34,-32.79 871.92,-16.07"/>
<polygon fill="#63b8ff" stroke="#63b8ff" points="872.26,-12.58 861.86,-14.62 871.26,-19.51 872.26,-12.58"/>
</g>
<!-- Node4 -->
<g id="node4" class="node">
<title>Node4</title>
<g id="a_node4"><a xlink:title=" ">
<polygon fill="#e0e0e0" stroke="#999999" points="627.81,-129 514.81,-129 514.81,-110 627.81,-110 627.81,-129"/>
<text text-anchor="middle" x="571.31" y="-117" font-family="Helvetica,sans-Serif" font-size="10.00">freertos/FreeRTOS.h</text>
</a>
</g>
</g>
<!-- Node2&#45;&gt;Node4 -->
<g id="edge3" class="edge">
<title>Node2&#45;&gt;Node4</title>
<path fill="none" stroke="#63b8ff" d="M626.36,-230.8C624.51,-216.42 619.59,-187.12 608.31,-165 603.02,-154.64 594.95,-144.55 587.69,-136.6"/>
<polygon fill="#63b8ff" stroke="#63b8ff" points="590.02,-133.97 580.58,-129.17 584.97,-138.82 590.02,-133.97"/>
</g>
<!-- Node5 -->
<g id="node5" class="node">
<title>Node5</title>
<g id="a_node5"><a xlink:title=" ">
<polygon fill="#e0e0e0" stroke="#999999" points="205.81,-129 98.81,-129 98.81,-110 205.81,-110 205.81,-129"/>
<text text-anchor="middle" x="152.31" y="-117" font-family="Helvetica,sans-Serif" font-size="10.00">cli/FreeRTOS_CLI.h</text>
</a>
</g>
</g>
<!-- Node2&#45;&gt;Node5 -->
<g id="edge4" class="edge">
<title>Node2&#45;&gt;Node5</title>
<path fill="none" stroke="#63b8ff" d="M599.61,-239.67C484.63,-240.09 49.05,-238.77 8.31,-195 -21.51,-162.96 38.01,-142.36 89.35,-131.12"/>
<polygon fill="#63b8ff" stroke="#63b8ff" points="90.08,-134.54 99.15,-129.06 88.64,-127.69 90.08,-134.54"/>
</g>
<!-- Node6 -->
<g id="node6" class="node">
<title>Node6</title>
<g id="a_node6"><a xlink:href="cat-m1_8h.html" target="_top" xlink:title="CAT&#45;M1 CLI command request and response handler.">
<polygon fill="white" stroke="#666666" points="149.31,-189.5 17.31,-189.5 17.31,-170.5 149.31,-170.5 149.31,-189.5"/>
<text text-anchor="middle" x="83.31" y="-177.5" font-family="Helvetica,sans-Serif" font-size="10.00">cli/peripherals/cat&#45;m1.h</text>
</a>
</g>
</g>
<!-- Node2&#45;&gt;Node6 -->
<g id="edge5" class="edge">
<title>Node2&#45;&gt;Node6</title>
<path fill="none" stroke="#63b8ff" d="M599.72,-237.75C527.17,-232.97 325.16,-218.44 158.31,-195 150.83,-193.95 142.96,-192.67 135.25,-191.32"/>
<polygon fill="#63b8ff" stroke="#63b8ff" points="135.71,-187.85 125.25,-189.52 134.47,-194.74 135.71,-187.85"/>
</g>
<!-- Node12 -->
<g id="node12" class="node">
<title>Node12</title>
<g id="a_node12"><a xlink:href="sdi12_8h.html" target="_top" xlink:title="SDI&#45;12 command line interface handler.">
<polygon fill="white" stroke="#666666" points="409.31,-189.5 285.31,-189.5 285.31,-170.5 409.31,-170.5 409.31,-189.5"/>
<text text-anchor="middle" x="347.31" y="-177.5" font-family="Helvetica,sans-Serif" font-size="10.00">cli/peripherals/sdi12.h</text>
</a>
</g>
</g>
<!-- Node2&#45;&gt;Node12 -->
<g id="edge15" class="edge">
<title>Node2&#45;&gt;Node12</title>
<path fill="none" stroke="#63b8ff" d="M599.7,-233.73C552.87,-223.95 457.24,-203.97 398.07,-191.61"/>
<polygon fill="#63b8ff" stroke="#63b8ff" points="398.69,-188.16 388.18,-189.54 397.26,-195.01 398.69,-188.16"/>
</g>
<!-- Node17 -->
<g id="node17" class="node">
<title>Node17</title>
<g id="a_node17"><a xlink:href="cli__power_8h.html" target="_top" xlink:title=" ">
<polygon fill="white" stroke="#666666" points="267.31,-195 167.31,-195 167.31,-165 267.31,-165 267.31,-195"/>
<text text-anchor="start" x="175.31" y="-183" font-family="Helvetica,sans-Serif" font-size="10.00">cli/peripherals/cli</text>
<text text-anchor="middle" x="217.31" y="-172" font-family="Helvetica,sans-Serif" font-size="10.00">_power.h</text>
</a>
</g>
</g>
<!-- Node2&#45;&gt;Node17 -->
<g id="edge26" class="edge">
<title>Node2&#45;&gt;Node17</title>
<path fill="none" stroke="#63b8ff" d="M599.4,-236.98C541.35,-231.53 403.21,-217.43 277.62,-195.11"/>
<polygon fill="#63b8ff" stroke="#63b8ff" points="277.91,-191.61 267.44,-193.28 276.67,-198.5 277.91,-191.61"/>
</g>
<!-- Node18 -->
<g id="node18" class="node">
<title>Node18</title>
<g id="a_node18"><a xlink:href="sd__card_8h.html" target="_top" xlink:title=" ">
<polygon fill="white" stroke="#666666" points="755.31,-195 655.31,-195 655.31,-165 755.31,-165 755.31,-195"/>
<text text-anchor="start" x="663.31" y="-183" font-family="Helvetica,sans-Serif" font-size="10.00">cli/peripherals/sd</text>
<text text-anchor="middle" x="705.31" y="-172" font-family="Helvetica,sans-Serif" font-size="10.00">_card.h</text>
</a>
</g>
</g>
<!-- Node2&#45;&gt;Node18 -->
<g id="edge32" class="edge">
<title>Node2&#45;&gt;Node18</title>
<path fill="none" stroke="#63b8ff" d="M638.82,-230.87C649.21,-223.08 664.89,-211.32 678.41,-201.17"/>
<polygon fill="#63b8ff" stroke="#63b8ff" points="680.59,-203.91 686.49,-195.11 676.39,-198.31 680.59,-203.91"/>
</g>
<!-- Node20 -->
<g id="node20" class="node">
<title>Node20</title>
<g id="a_node20"><a xlink:href="acquisition__intervals_8h.html" target="_top" xlink:title="Handles the time between measurements and uplinks by the device over LTE.">
<polygon fill="white" stroke="#666666" points="599.31,-195 445.31,-195 445.31,-165 599.31,-165 599.31,-195"/>
<text text-anchor="start" x="453.31" y="-183" font-family="Helvetica,sans-Serif" font-size="10.00">cli/device_config/acquisition</text>
<text text-anchor="middle" x="522.31" y="-172" font-family="Helvetica,sans-Serif" font-size="10.00">_intervals.h</text>
</a>
</g>
</g>
<!-- Node2&#45;&gt;Node20 -->
<g id="edge35" class="edge">
<title>Node2&#45;&gt;Node20</title>
<path fill="none" stroke="#63b8ff" d="M611.82,-230.87C597.31,-222.78 575.12,-210.42 556.47,-200.03"/>
<polygon fill="#63b8ff" stroke="#63b8ff" points="558.08,-196.92 547.64,-195.11 554.68,-203.04 558.08,-196.92"/>
</g>
<!-- Node22 -->
<g id="node22" class="node">
<title>Node22</title>
<g id="a_node22"><a xlink:href="mqtt__cli_8h.html" target="_top" xlink:title="MQTT setup and configuration through the CLI.">
<polygon fill="white" stroke="#666666" points="1177.31,-195 1053.31,-195 1053.31,-165 1177.31,-165 1177.31,-195"/>
<text text-anchor="start" x="1061.31" y="-183" font-family="Helvetica,sans-Serif" font-size="10.00">cli/device_config/mqtt</text>
<text text-anchor="middle" x="1115.31" y="-172" font-family="Helvetica,sans-Serif" font-size="10.00">_cli.h</text>
</a>
</g>
</g>
<!-- Node2&#45;&gt;Node22 -->
<g id="edge43" class="edge">
<title>Node2&#45;&gt;Node22</title>
<path fill="none" stroke="#63b8ff" d="M655.24,-237.38C721.02,-232.2 891.03,-217.74 1043.04,-195.11"/>
<polygon fill="#63b8ff" stroke="#63b8ff" points="1043.66,-198.55 1053.03,-193.6 1042.62,-191.63 1043.66,-198.55"/>
</g>
<!-- Node23 -->
<g id="node23" class="node">
<title>Node23</title>
<g id="a_node23"><a xlink:href="ftp__cli_8h.html" target="_top" xlink:title="FTP setup and configuration through the CLI.">
<polygon fill="white" stroke="#666666" points="886.81,-195 773.81,-195 773.81,-165 886.81,-165 886.81,-195"/>
<text text-anchor="start" x="781.81" y="-183" font-family="Helvetica,sans-Serif" font-size="10.00">cli/device_config/ftp</text>
<text text-anchor="middle" x="830.31" y="-172" font-family="Helvetica,sans-Serif" font-size="10.00">_cli.h</text>
</a>
</g>
</g>
<!-- Node2&#45;&gt;Node23 -->
<g id="edge45" class="edge">
<title>Node2&#45;&gt;Node23</title>
<path fill="none" stroke="#63b8ff" d="M655.11,-231.49C684.91,-222.9 733.11,-209.01 771.42,-197.97"/>
<polygon fill="#63b8ff" stroke="#63b8ff" points="772.79,-201.22 781.43,-195.09 770.85,-194.49 772.79,-201.22"/>
</g>
<!-- Node24 -->
<g id="node24" class="node">
<title>Node24</title>
<g id="a_node24"><a xlink:href="config__cli_8h.html" target="_top" xlink:title=" ">
<polygon fill="white" stroke="#666666" points="1035.31,-195 905.31,-195 905.31,-165 1035.31,-165 1035.31,-195"/>
<text text-anchor="start" x="913.31" y="-183" font-family="Helvetica,sans-Serif" font-size="10.00">cli/device_config/config</text>
<text text-anchor="middle" x="970.31" y="-172" font-family="Helvetica,sans-Serif" font-size="10.00">_cli.h</text>
</a>
</g>
</g>
<!-- Node2&#45;&gt;Node24 -->
<g id="edge47" class="edge">
<title>Node2&#45;&gt;Node24</title>
<path fill="none" stroke="#63b8ff" d="M654.84,-235.16C701.91,-227.69 801.13,-211.76 895.01,-195.21"/>
<polygon fill="#63b8ff" stroke="#63b8ff" points="895.72,-198.64 904.95,-193.45 894.5,-191.74 895.72,-198.64"/>
</g>
<!-- Node6&#45;&gt;Node4 -->
<g id="edge6" class="edge">
<title>Node6&#45;&gt;Node4</title>
<path fill="none" stroke="#63b8ff" d="M125.65,-170.48C136.28,-168.51 147.69,-166.54 158.31,-165 308.46,-143.23 349.55,-146.74 504.43,-129.07"/>
<polygon fill="#63b8ff" stroke="#63b8ff" points="505.26,-132.49 514.8,-127.87 504.46,-125.54 505.26,-132.49"/>
</g>
<!-- Node6&#45;&gt;Node5 -->
<g id="edge9" class="edge">
<title>Node6&#45;&gt;Node5</title>
<path fill="none" stroke="#63b8ff" d="M93.49,-170.37C104.19,-161.3 121.25,-146.84 134.24,-135.82"/>
<polygon fill="#63b8ff" stroke="#63b8ff" points="136.72,-138.3 142.09,-129.17 132.2,-132.96 136.72,-138.3"/>
</g>
<!-- Node7 -->
<g id="node7" class="node">
<title>Node7</title>
<g id="a_node7"><a xlink:title=" ">
<polygon fill="#e0e0e0" stroke="#999999" points="284.81,-129 223.81,-129 223.81,-110 284.81,-110 284.81,-129"/>
<text text-anchor="middle" x="254.31" y="-117" font-family="Helvetica,sans-Serif" font-size="10.00">Stream.h</text>
</a>
</g>
</g>
<!-- Node6&#45;&gt;Node7 -->
<g id="edge7" class="edge">
<title>Node6&#45;&gt;Node7</title>
<path fill="none" stroke="#63b8ff" d="M108.17,-170.49C137.56,-160.44 186.62,-143.66 219.7,-132.34"/>
<polygon fill="#63b8ff" stroke="#63b8ff" points="221.09,-135.57 229.41,-129.02 218.82,-128.94 221.09,-135.57"/>
</g>
<!-- Node8 -->
<g id="node8" class="node">
<title>Node8</title>
<g id="a_node8"><a xlink:title=" ">
<polygon fill="#e0e0e0" stroke="#999999" points="391.81,-129 302.81,-129 302.81,-110 391.81,-110 391.81,-129"/>
<text text-anchor="middle" x="347.31" y="-117" font-family="Helvetica,sans-Serif" font-size="10.00">StreamString.h</text>
</a>
</g>
</g>
<!-- Node6&#45;&gt;Node8 -->
<g id="edge8" class="edge">
<title>Node6&#45;&gt;Node8</title>
<path fill="none" stroke="#63b8ff" d="M121.7,-170.49C168.62,-160.1 248.06,-142.49 299.07,-131.19"/>
<polygon fill="#63b8ff" stroke="#63b8ff" points="299.87,-134.6 308.88,-129.02 298.35,-127.76 299.87,-134.6"/>
</g>
<!-- Node9 -->
<g id="node9" class="node">
<title>Node9</title>
<g id="a_node9"><a xlink:href="_c_a_t___m1_8h.html" target="_top" xlink:title=" ">
<polygon fill="white" stroke="#666666" points="80.81,-129 15.81,-129 15.81,-110 80.81,-110 80.81,-129"/>
<text text-anchor="middle" x="48.31" y="-117" font-family="Helvetica,sans-Serif" font-size="10.00">CAT_M1.h</text>
</a>
</g>
</g>
<!-- Node6&#45;&gt;Node9 -->
<g id="edge10" class="edge">
<title>Node6&#45;&gt;Node9</title>
<path fill="none" stroke="#63b8ff" d="M78.15,-170.37C73.08,-161.9 65.21,-148.74 58.82,-138.07"/>
<polygon fill="#63b8ff" stroke="#63b8ff" points="61.63,-135.95 53.5,-129.17 55.63,-139.55 61.63,-135.95"/>
</g>
<!-- Node10 -->
<g id="node10" class="node">
<title>Node10</title>
<g id="a_node10"><a xlink:title=" ">
<polygon fill="#e0e0e0" stroke="#999999" points="103.31,-19 55.31,-19 55.31,0 103.31,0 103.31,-19"/>
<text text-anchor="middle" x="79.31" y="-7" font-family="Helvetica,sans-Serif" font-size="10.00">Wire.h</text>
</a>
</g>
</g>
<!-- Node9&#45;&gt;Node10 -->
<g id="edge11" class="edge">
<title>Node9&#45;&gt;Node10</title>
<path fill="none" stroke="#63b8ff" d="M50.85,-109.66C55.89,-92.09 67.27,-52.45 74.01,-28.95"/>
<polygon fill="#63b8ff" stroke="#63b8ff" points="77.43,-29.74 76.82,-19.16 70.7,-27.8 77.43,-29.74"/>
</g>
<!-- Node11 -->
<g id="node11" class="node">
<title>Node11</title>
<g id="a_node11"><a xlink:href="_t_c_a9534_8h.html" target="_top" xlink:title=" ">
<polygon fill="white" stroke="#666666" points="144.31,-74 76.31,-74 76.31,-55 144.31,-55 144.31,-74"/>
<text text-anchor="middle" x="110.31" y="-62" font-family="Helvetica,sans-Serif" font-size="10.00">TCA9534.h</text>
</a>
</g>
</g>
<!-- Node9&#45;&gt;Node11 -->
<g id="edge12" class="edge">
<title>Node9&#45;&gt;Node11</title>
<path fill="none" stroke="#63b8ff" d="M58.27,-109.98C67.44,-102.15 81.25,-90.34 92.34,-80.86"/>
<polygon fill="#63b8ff" stroke="#63b8ff" points="94.84,-83.33 100.17,-74.17 90.29,-78.01 94.84,-83.33"/>
</g>
<!-- Node11&#45;&gt;Node3 -->
<g id="edge13" class="edge">
<title>Node11&#45;&gt;Node3</title>
<path fill="none" stroke="#63b8ff" d="M144.55,-60.98C263.48,-52.23 658.42,-23.15 788.42,-13.58"/>
<polygon fill="#63b8ff" stroke="#63b8ff" points="789.03,-17.05 798.74,-12.82 788.51,-10.07 789.03,-17.05"/>
</g>
<!-- Node11&#45;&gt;Node10 -->
<g id="edge14" class="edge">
<title>Node11&#45;&gt;Node10</title>
<path fill="none" stroke="#63b8ff" d="M105.19,-54.75C100.95,-47.49 94.78,-36.95 89.53,-27.98"/>
<polygon fill="#63b8ff" stroke="#63b8ff" points="92.4,-25.95 84.33,-19.09 86.36,-29.49 92.4,-25.95"/>
</g>
<!-- Node12&#45;&gt;Node4 -->
<g id="edge16" class="edge">
<title>Node12&#45;&gt;Node4</title>
<path fill="none" stroke="#63b8ff" d="M379.88,-170.49C419.28,-160.2 485.7,-142.86 529.02,-131.54"/>
<polygon fill="#63b8ff" stroke="#63b8ff" points="529.91,-134.93 538.7,-129.02 528.14,-128.16 529.91,-134.93"/>
</g>
<!-- Node12&#45;&gt;Node5 -->
<g id="edge21" class="edge">
<title>Node12&#45;&gt;Node5</title>
<path fill="none" stroke="#63b8ff" d="M318.95,-170.49C285.02,-160.31 228.05,-143.22 190.32,-131.9"/>
<polygon fill="#63b8ff" stroke="#63b8ff" points="191.28,-128.54 180.7,-129.02 189.27,-135.24 191.28,-128.54"/>
</g>
<!-- Node12&#45;&gt;Node7 -->
<g id="edge17" class="edge">
<title>Node12&#45;&gt;Node7</title>
<path fill="none" stroke="#63b8ff" d="M333.59,-170.37C318.61,-160.95 294.42,-145.73 276.69,-134.58"/>
<polygon fill="#63b8ff" stroke="#63b8ff" points="278.42,-131.53 268.09,-129.17 274.69,-137.45 278.42,-131.53"/>
</g>
<!-- Node12&#45;&gt;Node8 -->
<g id="edge18" class="edge">
<title>Node12&#45;&gt;Node8</title>
<path fill="none" stroke="#63b8ff" d="M347.31,-170.37C347.31,-162.25 347.31,-149.81 347.31,-139.39"/>
<polygon fill="#63b8ff" stroke="#63b8ff" points="350.81,-139.17 347.31,-129.17 343.81,-139.17 350.81,-139.17"/>
</g>
<!-- Node12&#45;&gt;Node12 -->
<g id="edge19" class="edge">
<title>Node12&#45;&gt;Node12</title>
<path fill="none" stroke="#63b8ff" d="M376.85,-189.53C401.53,-193.61 427.31,-190.43 427.31,-180 427.31,-171 408.09,-167.4 386.96,-169.2"/>
<polygon fill="#63b8ff" stroke="#63b8ff" points="386.34,-165.75 376.85,-170.47 387.21,-172.7 386.34,-165.75"/>
</g>
<!-- Node13 -->
<g id="node13" class="node">
<title>Node13</title>
<g id="a_node13"><a xlink:title=" ">
<polygon fill="#e0e0e0" stroke="#999999" points="466.81,-74 373.81,-74 373.81,-55 466.81,-55 466.81,-74"/>
<text text-anchor="middle" x="420.31" y="-62" font-family="Helvetica,sans-Serif" font-size="10.00">dpiclimate&#45;12.h</text>
</a>
</g>
</g>
<!-- Node12&#45;&gt;Node13 -->
<g id="edge20" class="edge">
<title>Node12&#45;&gt;Node13</title>
<path fill="none" stroke="#63b8ff" d="M359.54,-170.41C371.55,-161.39 389.56,-146.15 400.31,-129 408.94,-115.23 414.12,-97.42 417.04,-84.18"/>
<polygon fill="#63b8ff" stroke="#63b8ff" points="420.49,-84.79 418.99,-74.31 413.62,-83.44 420.49,-84.79"/>
</g>
<!-- Node14 -->
<g id="node14" class="node">
<title>Node14</title>
<g id="a_node14"><a xlink:href="_utils_8h.html" target="_top" xlink:title=" ">
<polygon fill="white" stroke="#666666" points="496.31,-129 448.31,-129 448.31,-110 496.31,-110 496.31,-129"/>
<text text-anchor="middle" x="472.31" y="-117" font-family="Helvetica,sans-Serif" font-size="10.00">Utils.h</text>
</a>
</g>
</g>
<!-- Node12&#45;&gt;Node14 -->
<g id="edge22" class="edge">
<title>Node12&#45;&gt;Node14</title>
<path fill="none" stroke="#63b8ff" d="M365.49,-170.49C386.31,-160.75 420.68,-144.66 444.79,-133.38"/>
<polygon fill="#63b8ff" stroke="#63b8ff" points="446.54,-136.43 454.11,-129.02 443.57,-130.09 446.54,-136.43"/>
</g>
<!-- Node14&#45;&gt;Node13 -->
<g id="edge25" class="edge">
<title>Node14&#45;&gt;Node13</title>
<path fill="none" stroke="#63b8ff" d="M463.72,-109.75C456.15,-102.03 444.93,-90.6 435.8,-81.28"/>
<polygon fill="#63b8ff" stroke="#63b8ff" points="438.24,-78.78 428.74,-74.09 433.24,-83.68 438.24,-78.78"/>
</g>
<!-- Node15 -->
<g id="node15" class="node">
<title>Node15</title>
<g id="a_node15"><a xlink:title=" ">
<polygon fill="#e0e0e0" stroke="#999999" points="541.31,-74 485.31,-74 485.31,-55 541.31,-55 541.31,-74"/>
<text text-anchor="middle" x="513.31" y="-62" font-family="Helvetica,sans-Serif" font-size="10.00">stddef.h</text>
</a>
</g>
</g>
<!-- Node14&#45;&gt;Node15 -->
<g id="edge23" class="edge">
<title>Node14&#45;&gt;Node15</title>
<path fill="none" stroke="#63b8ff" d="M479.08,-109.75C484.87,-102.26 493.37,-91.28 500.45,-82.13"/>
<polygon fill="#63b8ff" stroke="#63b8ff" points="503.31,-84.14 506.67,-74.09 497.78,-79.86 503.31,-84.14"/>
</g>
<!-- Node16 -->
<g id="node16" class="node">
<title>Node16</title>
<g id="a_node16"><a xlink:title=" ">
<polygon fill="#e0e0e0" stroke="#999999" points="722.81,-74 639.81,-74 639.81,-55 722.81,-55 722.81,-74"/>
<text text-anchor="middle" x="681.31" y="-62" font-family="Helvetica,sans-Serif" font-size="10.00">ArduinoJson.h</text>
</a>
</g>
</g>
<!-- Node14&#45;&gt;Node16 -->
<g id="edge24" class="edge">
<title>Node14&#45;&gt;Node16</title>
<path fill="none" stroke="#63b8ff" d="M496.46,-112.27C499.44,-111.5 502.44,-110.73 505.31,-110 550.2,-98.54 601.56,-85.57 637.17,-76.6"/>
<polygon fill="#63b8ff" stroke="#63b8ff" points="638.39,-79.91 647.23,-74.07 636.68,-73.12 638.39,-79.91"/>
</g>
<!-- Node17&#45;&gt;Node4 -->
<g id="edge27" class="edge">
<title>Node17&#45;&gt;Node4</title>
<path fill="none" stroke="#63b8ff" d="M267.46,-166.8C270.45,-166.17 273.42,-165.56 276.31,-165 318.8,-156.77 431.56,-140.32 504.71,-129.89"/>
<polygon fill="#63b8ff" stroke="#63b8ff" points="505.35,-133.33 514.76,-128.46 504.37,-126.4 505.35,-133.33"/>
</g>
<!-- Node17&#45;&gt;Node5 -->
<g id="edge30" class="edge">
<title>Node17&#45;&gt;Node5</title>
<path fill="none" stroke="#63b8ff" d="M201.57,-164.84C191.95,-156.17 179.62,-145.08 169.7,-136.15"/>
<polygon fill="#63b8ff" stroke="#63b8ff" points="171.82,-133.35 162.05,-129.27 167.14,-138.56 171.82,-133.35"/>
</g>
<!-- Node17&#45;&gt;Node7 -->
<g id="edge28" class="edge">
<title>Node17&#45;&gt;Node7</title>
<path fill="none" stroke="#63b8ff" d="M226.27,-164.84C231.42,-156.69 237.93,-146.4 243.38,-137.78"/>
<polygon fill="#63b8ff" stroke="#63b8ff" points="246.38,-139.59 248.77,-129.27 240.46,-135.85 246.38,-139.59"/>
</g>
<!-- Node17&#45;&gt;Node8 -->
<g id="edge29" class="edge">
<title>Node17&#45;&gt;Node8</title>
<path fill="none" stroke="#63b8ff" d="M248.45,-164.99C269.85,-155.36 298.04,-142.67 318.84,-133.31"/>
<polygon fill="#63b8ff" stroke="#63b8ff" points="320.43,-136.43 328.11,-129.14 317.56,-130.05 320.43,-136.43"/>
</g>
<!-- Node17&#45;&gt;Node9 -->
<g id="edge31" class="edge">
<title>Node17&#45;&gt;Node9</title>
<path fill="none" stroke="#63b8ff" d="M176.83,-164.99C148.13,-155.05 110.03,-141.86 82.78,-132.43"/>
<polygon fill="#63b8ff" stroke="#63b8ff" points="83.86,-129.1 73.27,-129.14 81.57,-135.72 83.86,-129.1"/>
</g>
<!-- Node18&#45;&gt;Node4 -->
<g id="edge33" class="edge">
<title>Node18&#45;&gt;Node4</title>
<path fill="none" stroke="#63b8ff" d="M673.21,-164.99C651.06,-155.31 621.83,-142.56 600.36,-133.18"/>
<polygon fill="#63b8ff" stroke="#63b8ff" points="601.66,-129.93 591.1,-129.14 598.86,-136.35 601.66,-129.93"/>
</g>
<!-- Node19 -->
<g id="node19" class="node">
<title>Node19</title>
<g id="a_node19"><a xlink:title=" ">
<polygon fill="#e0e0e0" stroke="#999999" points="727.31,-129 683.31,-129 683.31,-110 727.31,-110 727.31,-129"/>
<text text-anchor="middle" x="705.31" y="-117" font-family="Helvetica,sans-Serif" font-size="10.00">string</text>
</a>
</g>
</g>
<!-- Node18&#45;&gt;Node19 -->
<g id="edge34" class="edge">
<title>Node18&#45;&gt;Node19</title>
<path fill="none" stroke="#63b8ff" d="M705.31,-164.84C705.31,-157.21 705.31,-147.7 705.31,-139.45"/>
<polygon fill="#63b8ff" stroke="#63b8ff" points="708.81,-139.27 705.31,-129.27 701.81,-139.27 708.81,-139.27"/>
</g>
<!-- Node20&#45;&gt;Node4 -->
<g id="edge36" class="edge">
<title>Node20&#45;&gt;Node4</title>
<path fill="none" stroke="#63b8ff" d="M534.17,-164.84C541.21,-156.43 550.17,-145.74 557.52,-136.96"/>
<polygon fill="#63b8ff" stroke="#63b8ff" points="560.23,-139.18 563.97,-129.27 554.86,-134.68 560.23,-139.18"/>
</g>
<!-- Node20&#45;&gt;Node5 -->
<g id="edge39" class="edge">
<title>Node20&#45;&gt;Node5</title>
<path fill="none" stroke="#63b8ff" d="M444.96,-166.39C442.04,-165.92 439.15,-165.45 436.31,-165 360.65,-152.91 273.59,-139.32 216.02,-130.37"/>
<polygon fill="#63b8ff" stroke="#63b8ff" points="216.4,-126.89 205.98,-128.81 215.32,-133.81 216.4,-126.89"/>
</g>
<!-- Node20&#45;&gt;Node7 -->
<g id="edge37" class="edge">
<title>Node20&#45;&gt;Node7</title>
<path fill="none" stroke="#63b8ff" d="M458.12,-164.99C407.37,-153.91 338.08,-138.79 294.78,-129.34"/>
<polygon fill="#63b8ff" stroke="#63b8ff" points="295.41,-125.89 284.9,-127.18 293.92,-132.73 295.41,-125.89"/>
</g>
<!-- Node20&#45;&gt;Node8 -->
<g id="edge38" class="edge">
<title>Node20&#45;&gt;Node8</title>
<path fill="none" stroke="#63b8ff" d="M480.39,-164.99C450.58,-155.02 410.98,-141.78 382.75,-132.35"/>
<polygon fill="#63b8ff" stroke="#63b8ff" points="383.49,-128.9 372.9,-129.05 381.27,-135.54 383.49,-128.9"/>
</g>
<!-- Node21 -->
<g id="node21" class="node">
<title>Node21</title>
<g id="a_node21"><a xlink:href="_device_config_8h.html" target="_top" xlink:title="Node configuration options.">
<polygon fill="white" stroke="#666666" points="875.31,-129 785.31,-129 785.31,-110 875.31,-110 875.31,-129"/>
<text text-anchor="middle" x="830.31" y="-117" font-family="Helvetica,sans-Serif" font-size="10.00">DeviceConfig.h</text>
</a>
</g>
</g>
<!-- Node20&#45;&gt;Node21 -->
<g id="edge40" class="edge">
<title>Node20&#45;&gt;Node21</title>
<path fill="none" stroke="#63b8ff" d="M596.08,-164.99C651.19,-154.52 725.32,-140.44 775.3,-130.95"/>
<polygon fill="#63b8ff" stroke="#63b8ff" points="776.1,-134.36 785.28,-129.05 774.8,-127.48 776.1,-134.36"/>
</g>
<!-- Node21&#45;&gt;Node3 -->
<g id="edge41" class="edge">
<title>Node21&#45;&gt;Node3</title>
<path fill="none" stroke="#63b8ff" d="M830.31,-109.66C830.31,-92.17 830.31,-52.8 830.31,-29.27"/>
<polygon fill="#63b8ff" stroke="#63b8ff" points="833.81,-29.16 830.31,-19.16 826.81,-29.16 833.81,-29.16"/>
</g>
<!-- Node21&#45;&gt;Node16 -->
<g id="edge42" class="edge">
<title>Node21&#45;&gt;Node16</title>
<path fill="none" stroke="#63b8ff" d="M806.37,-109.98C781.75,-101.23 743.19,-87.51 715.39,-77.62"/>
<polygon fill="#63b8ff" stroke="#63b8ff" points="716.28,-74.22 705.68,-74.17 713.93,-80.82 716.28,-74.22"/>
</g>
<!-- Node22&#45;&gt;Node21 -->
<g id="edge44" class="edge">
<title>Node22&#45;&gt;Node21</title>
<path fill="none" stroke="#63b8ff" d="M1053.12,-166.23C1001.89,-155.72 930.11,-140.99 882,-131.11"/>
<polygon fill="#63b8ff" stroke="#63b8ff" points="882.61,-127.66 872.11,-129.08 881.2,-134.52 882.61,-127.66"/>
</g>
<!-- Node23&#45;&gt;Node21 -->
<g id="edge46" class="edge">
<title>Node23&#45;&gt;Node21</title>
<path fill="none" stroke="#63b8ff" d="M830.31,-164.84C830.31,-157.21 830.31,-147.7 830.31,-139.45"/>
<polygon fill="#63b8ff" stroke="#63b8ff" points="833.81,-139.27 830.31,-129.27 826.81,-139.27 833.81,-139.27"/>
</g>
<!-- Node24&#45;&gt;Node21 -->
<g id="edge48" class="edge">
<title>Node24&#45;&gt;Node21</title>
<path fill="none" stroke="#63b8ff" d="M936.78,-164.99C913.52,-155.27 882.82,-142.44 860.36,-133.06"/>
<polygon fill="#63b8ff" stroke="#63b8ff" points="861.56,-129.77 850.98,-129.14 858.86,-136.22 861.56,-129.77"/>
</g>
</g>
</svg>
