<?xml version="1.0" encoding="UTF-8" standalone="no"?>
<!DOCTYPE svg PUBLIC "-//W3C//DTD SVG 1.1//EN"
 "http://www.w3.org/Graphics/SVG/1.1/DTD/svg11.dtd">
<!-- Generated by graphviz version 2.43.0 (0)
 -->
<!-- Title: firmware/wombat/include/cli/CLI.h Pages: 1 -->
<svg width="2023pt" height="269pt"
 viewBox="0.00 0.00 2023.31 269.00" xmlns="http://www.w3.org/2000/svg" xmlns:xlink="http://www.w3.org/1999/xlink">
<g id="graph0" class="graph" transform="scale(1 1) rotate(0) translate(4 265)">
<title>firmware/wombat/include/cli/CLI.h</title>
<!-- Node1 -->
<g id="node1" class="node">
<title>Node1</title>
<g id="a_node1"><a xlink:title="FreeRTOS CLI handler.">
<polygon fill="#999999" stroke="#666666" points="775.31,-261 634.31,-261 634.31,-231 775.31,-231 775.31,-261"/>
<text text-anchor="start" x="642.31" y="-249" font-family="Helvetica,sans-Serif" font-size="10.00">firmware/wombat/include</text>
<text text-anchor="middle" x="704.81" y="-238" font-family="Helvetica,sans-Serif" font-size="10.00">/cli/CLI.h</text>
</a>
</g>
</g>
<!-- Node2 -->
<g id="node2" class="node">
<title>Node2</title>
<g id="a_node2"><a xlink:title=" ">
<polygon fill="#e0e0e0" stroke="#999999" points="1269.31,-19 1206.31,-19 1206.31,0 1269.31,0 1269.31,-19"/>
<text text-anchor="middle" x="1237.81" y="-7" font-family="Helvetica,sans-Serif" font-size="10.00">Arduino.h</text>
</a>
</g>
</g>
<!-- Node1&#45;&gt;Node2 -->
<g id="edge1" class="edge">
<title>Node1&#45;&gt;Node2</title>
<path fill="none" stroke="#63b8ff" d="M775.4,-242.78C902.43,-238.06 1158.86,-224.89 1185.81,-195 1228.42,-147.73 1123.27,-109.68 1155.81,-55 1164.8,-39.9 1180.89,-29.61 1196.46,-22.76"/>
<polygon fill="#63b8ff" stroke="#63b8ff" points="1198.03,-25.9 1206.01,-18.93 1195.43,-19.4 1198.03,-25.9"/>
</g>
<!-- Node3 -->
<g id="node3" class="node">
<title>Node3</title>
<g id="a_node3"><a xlink:title=" ">
<polygon fill="#e0e0e0" stroke="#999999" points="613.31,-129 500.31,-129 500.31,-110 613.31,-110 613.31,-129"/>
<text text-anchor="middle" x="556.81" y="-117" font-family="Helvetica,sans-Serif" font-size="10.00">freertos/FreeRTOS.h</text>
</a>
</g>
</g>
<!-- Node1&#45;&gt;Node3 -->
<g id="edge2" class="edge">
<title>Node1&#45;&gt;Node3</title>
<path fill="none" stroke="#63b8ff" d="M688.12,-230.96C660.05,-207.35 603.62,-159.88 574.74,-135.58"/>
<polygon fill="#63b8ff" stroke="#63b8ff" points="576.95,-132.87 567.05,-129.11 572.44,-138.23 576.95,-132.87"/>
</g>
<!-- Node4 -->
<g id="node4" class="node">
<title>Node4</title>
<g id="a_node4"><a xlink:title=" ">
<polygon fill="#e0e0e0" stroke="#999999" points="191.31,-129 84.31,-129 84.31,-110 191.31,-110 191.31,-129"/>
<text text-anchor="middle" x="137.81" y="-117" font-family="Helvetica,sans-Serif" font-size="10.00">cli/FreeRTOS_CLI.h</text>
</a>
</g>
</g>
<!-- Node1&#45;&gt;Node4 -->
<g id="edge3" class="edge">
<title>Node1&#45;&gt;Node4</title>
<path fill="none" stroke="#63b8ff" d="M634.2,-245.25C465.49,-245.12 49.86,-240.18 7.81,-195 -20.4,-164.69 36.73,-143.27 83.98,-131.4"/>
<polygon fill="#63b8ff" stroke="#63b8ff" points="84.98,-134.76 93.88,-129.02 83.34,-127.96 84.98,-134.76"/>
</g>
<!-- Node5 -->
<g id="node5" class="node">
<title>Node5</title>
<g id="a_node5"><a xlink:href="cat-m1_8h.html" target="_top" xlink:title="CAT&#45;M1 CLI command request and response handler.">
<polygon fill="white" stroke="#666666" points="266.81,-189.5 134.81,-189.5 134.81,-170.5 266.81,-170.5 266.81,-189.5"/>
<text text-anchor="middle" x="200.81" y="-177.5" font-family="Helvetica,sans-Serif" font-size="10.00">cli/peripherals/cat&#45;m1.h</text>
</a>
</g>
</g>
<!-- Node1&#45;&gt;Node5 -->
<g id="edge4" class="edge">
<title>Node1&#45;&gt;Node5</title>
<path fill="none" stroke="#63b8ff" d="M634.01,-238.25C548.8,-229.78 401.47,-214.03 275.81,-195 268.61,-193.91 261.04,-192.64 253.59,-191.32"/>
<polygon fill="#63b8ff" stroke="#63b8ff" points="254.02,-187.84 243.56,-189.5 252.77,-194.73 254.02,-187.84"/>
</g>
<!-- Node11 -->
<g id="node11" class="node">
<title>Node11</title>
<g id="a_node11"><a xlink:href="sdi12_8h.html" target="_top" xlink:title="SDI&#45;12 command line interface handler.">
<polygon fill="white" stroke="#666666" points="408.81,-189.5 284.81,-189.5 284.81,-170.5 408.81,-170.5 408.81,-189.5"/>
<text text-anchor="middle" x="346.81" y="-177.5" font-family="Helvetica,sans-Serif" font-size="10.00">cli/peripherals/sdi12.h</text>
</a>
</g>
</g>
<!-- Node1&#45;&gt;Node11 -->
<g id="edge14" class="edge">
<title>Node1&#45;&gt;Node11</title>
<path fill="none" stroke="#63b8ff" d="M634.08,-232.36C566.91,-220.35 467.15,-202.51 404.61,-191.33"/>
<polygon fill="#63b8ff" stroke="#63b8ff" points="404.98,-187.84 394.52,-189.53 403.75,-194.73 404.98,-187.84"/>
</g>
<!-- Node16 -->
<g id="node16" class="node">
<title>Node16</title>
<g id="a_node16"><a xlink:href="cli__power_8h.html" target="_top" xlink:title=" ">
<polygon fill="white" stroke="#666666" points="116.81,-195 16.81,-195 16.81,-165 116.81,-165 116.81,-195"/>
<text text-anchor="start" x="24.81" y="-183" font-family="Helvetica,sans-Serif" font-size="10.00">cli/peripherals/cli</text>
<text text-anchor="middle" x="66.81" y="-172" font-family="Helvetica,sans-Serif" font-size="10.00">_power.h</text>
</a>
</g>
</g>
<!-- Node1&#45;&gt;Node16 -->
<g id="edge25" class="edge">
<title>Node1&#45;&gt;Node16</title>
<path fill="none" stroke="#63b8ff" d="M633.99,-242.24C526.38,-237.3 315.2,-224.71 127,-195.03"/>
<polygon fill="#63b8ff" stroke="#63b8ff" points="127.35,-191.54 116.92,-193.42 126.24,-198.45 127.35,-191.54"/>
</g>
<!-- Node17 -->
<g id="node17" class="node">
<title>Node17</title>
<g id="a_node17"><a xlink:href="sd__card_8h.html" target="_top" xlink:title=" ">
<polygon fill="white" stroke="#666666" points="754.81,-195 654.81,-195 654.81,-165 754.81,-165 754.81,-195"/>
<text text-anchor="start" x="662.81" y="-183" font-family="Helvetica,sans-Serif" font-size="10.00">cli/peripherals/sd</text>
<text text-anchor="middle" x="704.81" y="-172" font-family="Helvetica,sans-Serif" font-size="10.00">_card.h</text>
</a>
</g>
</g>
<!-- Node1&#45;&gt;Node17 -->
<g id="edge31" class="edge">
<title>Node1&#45;&gt;Node17</title>
<path fill="none" stroke="#63b8ff" d="M704.81,-230.8C704.81,-223.34 704.81,-213.99 704.81,-205.41"/>
<polygon fill="#63b8ff" stroke="#63b8ff" points="708.31,-205.16 704.81,-195.16 701.31,-205.16 708.31,-205.16"/>
</g>
<!-- Node19 -->
<g id="node19" class="node">
<title>Node19</title>
<g id="a_node19"><a xlink:href="server_8h.html" target="_top" xlink:title="Handle the setup and maintenance of the BLE server and connected clients.">
<polygon fill="white" stroke="#666666" points="1435.31,-189.5 1330.31,-189.5 1330.31,-170.5 1435.31,-170.5 1435.31,-189.5"/>
<text text-anchor="middle" x="1382.81" y="-177.5" font-family="Helvetica,sans-Serif" font-size="10.00">bluetooth/server.h</text>
</a>
</g>
</g>
<!-- Node1&#45;&gt;Node19 -->
<g id="edge34" class="edge">
<title>Node1&#45;&gt;Node19</title>
<path fill="none" stroke="#63b8ff" d="M775.53,-237.91C908.45,-225.05 1193.35,-198.17 1319.99,-186.55"/>
<polygon fill="#63b8ff" stroke="#63b8ff" points="1320.65,-190.01 1330.29,-185.61 1320.01,-183.04 1320.65,-190.01"/>
</g>
<!-- Node32 -->
<g id="node32" class="node">
<title>Node32</title>
<g id="a_node32"><a xlink:href="acquisition__intervals_8h.html" target="_top" xlink:title="Handles the time between measurements and uplinks by the device over LTE.">
<polygon fill="white" stroke="#666666" points="598.81,-195 444.81,-195 444.81,-165 598.81,-165 598.81,-195"/>
<text text-anchor="start" x="452.81" y="-183" font-family="Helvetica,sans-Serif" font-size="10.00">cli/device_config/acquisition</text>
<text text-anchor="middle" x="521.81" y="-172" font-family="Helvetica,sans-Serif" font-size="10.00">_intervals.h</text>
</a>
</g>
</g>
<!-- Node1&#45;&gt;Node32 -->
<g id="edge64" class="edge">
<title>Node1&#45;&gt;Node32</title>
<path fill="none" stroke="#63b8ff" d="M664.65,-230.95C637.24,-221.37 600.73,-208.6 571.49,-198.37"/>
<polygon fill="#63b8ff" stroke="#63b8ff" points="572.47,-195.01 561.88,-195.01 570.16,-201.62 572.47,-195.01"/>
</g>
<!-- Node34 -->
<g id="node34" class="node">
<title>Node34</title>
<g id="a_node34"><a xlink:href="mqtt__cli_8h.html" target="_top" xlink:title="MQTT setup and configuration through the CLI.">
<polygon fill="white" stroke="#666666" points="1176.81,-195 1052.81,-195 1052.81,-165 1176.81,-165 1176.81,-195"/>
<text text-anchor="start" x="1060.81" y="-183" font-family="Helvetica,sans-Serif" font-size="10.00">cli/device_config/mqtt</text>
<text text-anchor="middle" x="1114.81" y="-172" font-family="Helvetica,sans-Serif" font-size="10.00">_cli.h</text>
</a>
</g>
</g>
<!-- Node1&#45;&gt;Node34 -->
<g id="edge72" class="edge">
<title>Node1&#45;&gt;Node34</title>
<path fill="none" stroke="#63b8ff" d="M775.41,-235.6C841.82,-226.52 944.25,-211.94 1042.41,-195.19"/>
<polygon fill="#63b8ff" stroke="#63b8ff" points="1043.24,-198.6 1052.5,-193.46 1042.06,-191.7 1043.24,-198.6"/>
</g>
<!-- Node35 -->
<g id="node35" class="node">
<title>Node35</title>
<g id="a_node35"><a xlink:href="ftp__cli_8h.html" target="_top" xlink:title="FTP setup and configuration through the CLI.">
<polygon fill="white" stroke="#666666" points="886.31,-195 773.31,-195 773.31,-165 886.31,-165 886.31,-195"/>
<text text-anchor="start" x="781.31" y="-183" font-family="Helvetica,sans-Serif" font-size="10.00">cli/device_config/ftp</text>
<text text-anchor="middle" x="829.81" y="-172" font-family="Helvetica,sans-Serif" font-size="10.00">_cli.h</text>
</a>
</g>
</g>
<!-- Node1&#45;&gt;Node35 -->
<g id="edge74" class="edge">
<title>Node1&#45;&gt;Node35</title>
<path fill="none" stroke="#63b8ff" d="M732.24,-230.95C750.23,-221.74 773.96,-209.6 793.51,-199.59"/>
<polygon fill="#63b8ff" stroke="#63b8ff" points="795.14,-202.69 802.44,-195.01 791.95,-196.45 795.14,-202.69"/>
</g>
<!-- Node36 -->
<g id="node36" class="node">
<title>Node36</title>
<g id="a_node36"><a xlink:href="config__cli_8h.html" target="_top" xlink:title=" ">
<polygon fill="white" stroke="#666666" points="1034.81,-195 904.81,-195 904.81,-165 1034.81,-165 1034.81,-195"/>
<text text-anchor="start" x="912.81" y="-183" font-family="Helvetica,sans-Serif" font-size="10.00">cli/device_config/config</text>
<text text-anchor="middle" x="969.81" y="-172" font-family="Helvetica,sans-Serif" font-size="10.00">_cli.h</text>
</a>
</g>
</g>
<!-- Node1&#45;&gt;Node36 -->
<g id="edge76" class="edge">
<title>Node1&#45;&gt;Node36</title>
<path fill="none" stroke="#63b8ff" d="M762.97,-230.95C803.96,-221.06 858.98,-207.77 901.98,-197.38"/>
<polygon fill="#63b8ff" stroke="#63b8ff" points="902.89,-200.76 911.79,-195.01 901.25,-193.96 902.89,-200.76"/>
</g>
<!-- Node5&#45;&gt;Node3 -->
<g id="edge5" class="edge">
<title>Node5&#45;&gt;Node3</title>
<path fill="none" stroke="#63b8ff" d="M245.59,-170.43C255.53,-168.59 266.02,-166.69 275.81,-165 349.05,-152.37 433.27,-139.21 490.26,-130.51"/>
<polygon fill="#63b8ff" stroke="#63b8ff" points="490.86,-133.96 500.22,-128.99 489.81,-127.04 490.86,-133.96"/>
</g>
<!-- Node5&#45;&gt;Node4 -->
<g id="edge8" class="edge">
<title>Node5&#45;&gt;Node4</title>
<path fill="none" stroke="#63b8ff" d="M191.51,-170.37C181.84,-161.38 166.47,-147.11 154.65,-136.14"/>
<polygon fill="#63b8ff" stroke="#63b8ff" points="156.85,-133.41 147.14,-129.17 152.09,-138.54 156.85,-133.41"/>
</g>
<!-- Node6 -->
<g id="node6" class="node">
<title>Node6</title>
<g id="a_node6"><a xlink:title=" ">
<polygon fill="#e0e0e0" stroke="#999999" points="377.31,-129 316.31,-129 316.31,-110 377.31,-110 377.31,-129"/>
<text text-anchor="middle" x="346.81" y="-117" font-family="Helvetica,sans-Serif" font-size="10.00">Stream.h</text>
</a>
</g>
</g>
<!-- Node5&#45;&gt;Node6 -->
<g id="edge6" class="edge">
<title>Node5&#45;&gt;Node6</title>
<path fill="none" stroke="#63b8ff" d="M222.04,-170.49C246.8,-160.57 287.93,-144.09 316.16,-132.78"/>
<polygon fill="#63b8ff" stroke="#63b8ff" points="317.57,-135.99 325.56,-129.02 314.97,-129.49 317.57,-135.99"/>
</g>
<!-- Node7 -->
<g id="node7" class="node">
<title>Node7</title>
<g id="a_node7"><a xlink:title=" ">
<polygon fill="#e0e0e0" stroke="#999999" points="298.31,-129 209.31,-129 209.31,-110 298.31,-110 298.31,-129"/>
<text text-anchor="middle" x="253.81" y="-117" font-family="Helvetica,sans-Serif" font-size="10.00">StreamString.h</text>
</a>
</g>
</g>
<!-- Node5&#45;&gt;Node7 -->
<g id="edge7" class="edge">
<title>Node5&#45;&gt;Node7</title>
<path fill="none" stroke="#63b8ff" d="M208.63,-170.37C216.62,-161.55 229.2,-147.66 239.07,-136.77"/>
<polygon fill="#63b8ff" stroke="#63b8ff" points="241.84,-138.93 245.96,-129.17 236.65,-134.23 241.84,-138.93"/>
</g>
<!-- Node8 -->
<g id="node8" class="node">
<title>Node8</title>
<g id="a_node8"><a xlink:href="_c_a_t___m1_8h.html" target="_top" xlink:title=" ">
<polygon fill="white" stroke="#666666" points="66.31,-129 1.31,-129 1.31,-110 66.31,-110 66.31,-129"/>
<text text-anchor="middle" x="33.81" y="-117" font-family="Helvetica,sans-Serif" font-size="10.00">CAT_M1.h</text>
</a>
</g>
</g>
<!-- Node5&#45;&gt;Node8 -->
<g id="edge9" class="edge">
<title>Node5&#45;&gt;Node8</title>
<path fill="none" stroke="#63b8ff" d="M176.53,-170.49C147.83,-160.44 99.92,-143.66 67.61,-132.34"/>
<polygon fill="#63b8ff" stroke="#63b8ff" points="68.72,-129.02 58.12,-129.02 66.4,-135.63 68.72,-129.02"/>
</g>
<!-- Node9 -->
<g id="node9" class="node">
<title>Node9</title>
<g id="a_node9"><a xlink:title=" ">
<polygon fill="#e0e0e0" stroke="#999999" points="88.81,-19 40.81,-19 40.81,0 88.81,0 88.81,-19"/>
<text text-anchor="middle" x="64.81" y="-7" font-family="Helvetica,sans-Serif" font-size="10.00">Wire.h</text>
</a>
</g>
</g>
<!-- Node8&#45;&gt;Node9 -->
<g id="edge10" class="edge">
<title>Node8&#45;&gt;Node9</title>
<path fill="none" stroke="#63b8ff" d="M36.35,-109.66C41.39,-92.09 52.77,-52.45 59.51,-28.95"/>
<polygon fill="#63b8ff" stroke="#63b8ff" points="62.93,-29.74 62.33,-19.16 56.2,-27.8 62.93,-29.74"/>
</g>
<!-- Node10 -->
<g id="node10" class="node">
<title>Node10</title>
<g id="a_node10"><a xlink:href="_t_c_a9534_8h.html" target="_top" xlink:title=" ">
<polygon fill="white" stroke="#666666" points="129.81,-74 61.81,-74 61.81,-55 129.81,-55 129.81,-74"/>
<text text-anchor="middle" x="95.81" y="-62" font-family="Helvetica,sans-Serif" font-size="10.00">TCA9534.h</text>
</a>
</g>
</g>
<!-- Node8&#45;&gt;Node10 -->
<g id="edge11" class="edge">
<title>Node8&#45;&gt;Node10</title>
<path fill="none" stroke="#63b8ff" d="M43.77,-109.98C52.94,-102.15 66.75,-90.34 77.84,-80.86"/>
<polygon fill="#63b8ff" stroke="#63b8ff" points="80.34,-83.33 85.67,-74.17 75.79,-78.01 80.34,-83.33"/>
</g>
<!-- Node10&#45;&gt;Node2 -->
<g id="edge12" class="edge">
<title>Node10&#45;&gt;Node2</title>
<path fill="none" stroke="#63b8ff" d="M129.99,-61.91C295.64,-54.23 1014.44,-20.87 1196.02,-12.44"/>
<polygon fill="#63b8ff" stroke="#63b8ff" points="1196.4,-15.93 1206.22,-11.97 1196.07,-8.93 1196.4,-15.93"/>
</g>
<!-- Node10&#45;&gt;Node9 -->
<g id="edge13" class="edge">
<title>Node10&#45;&gt;Node9</title>
<path fill="none" stroke="#63b8ff" d="M90.69,-54.75C86.45,-47.49 80.28,-36.95 75.04,-27.98"/>
<polygon fill="#63b8ff" stroke="#63b8ff" points="77.9,-25.95 69.83,-19.09 71.86,-29.49 77.9,-25.95"/>
</g>
<!-- Node11&#45;&gt;Node3 -->
<g id="edge15" class="edge">
<title>Node11&#45;&gt;Node3</title>
<path fill="none" stroke="#63b8ff" d="M377.35,-170.49C414.05,-160.27 475.77,-143.08 516.39,-131.76"/>
<polygon fill="#63b8ff" stroke="#63b8ff" points="517.54,-135.07 526.24,-129.02 515.67,-128.33 517.54,-135.07"/>
</g>
<!-- Node11&#45;&gt;Node4 -->
<g id="edge20" class="edge">
<title>Node11&#45;&gt;Node4</title>
<path fill="none" stroke="#63b8ff" d="M316.42,-170.49C279.89,-160.27 218.47,-143.08 178.04,-131.76"/>
<polygon fill="#63b8ff" stroke="#63b8ff" points="178.81,-128.34 168.24,-129.02 176.92,-135.08 178.81,-128.34"/>
</g>
<!-- Node11&#45;&gt;Node6 -->
<g id="edge16" class="edge">
<title>Node11&#45;&gt;Node6</title>
<path fill="none" stroke="#63b8ff" d="M346.81,-170.37C346.81,-162.25 346.81,-149.81 346.81,-139.39"/>
<polygon fill="#63b8ff" stroke="#63b8ff" points="350.31,-139.17 346.81,-129.17 343.31,-139.17 350.31,-139.17"/>
</g>
<!-- Node11&#45;&gt;Node7 -->
<g id="edge17" class="edge">
<title>Node11&#45;&gt;Node7</title>
<path fill="none" stroke="#63b8ff" d="M333.09,-170.37C318.11,-160.95 293.92,-145.73 276.19,-134.58"/>
<polygon fill="#63b8ff" stroke="#63b8ff" points="277.92,-131.53 267.59,-129.17 274.19,-137.45 277.92,-131.53"/>
</g>
<!-- Node11&#45;&gt;Node11 -->
<g id="edge18" class="edge">
<title>Node11&#45;&gt;Node11</title>
<path fill="none" stroke="#63b8ff" d="M376.35,-189.53C401.03,-193.61 426.81,-190.43 426.81,-180 426.81,-171 407.59,-167.4 386.46,-169.2"/>
<polygon fill="#63b8ff" stroke="#63b8ff" points="385.84,-165.75 376.35,-170.47 386.71,-172.7 385.84,-165.75"/>
</g>
<!-- Node12 -->
<g id="node12" class="node">
<title>Node12</title>
<g id="a_node12"><a xlink:title=" ">
<polygon fill="#e0e0e0" stroke="#999999" points="452.31,-74 359.31,-74 359.31,-55 452.31,-55 452.31,-74"/>
<text text-anchor="middle" x="405.81" y="-62" font-family="Helvetica,sans-Serif" font-size="10.00">dpiclimate&#45;12.h</text>
</a>
</g>
</g>
<!-- Node11&#45;&gt;Node12 -->
<g id="edge19" class="edge">
<title>Node11&#45;&gt;Node12</title>
<path fill="none" stroke="#63b8ff" d="M355.05,-170.46C363.77,-161.01 377.41,-144.98 385.81,-129 393.29,-114.76 398.55,-97.22 401.79,-84.19"/>
<polygon fill="#63b8ff" stroke="#63b8ff" points="405.29,-84.63 404.13,-74.1 398.47,-83.05 405.29,-84.63"/>
</g>
<!-- Node13 -->
<g id="node13" class="node">
<title>Node13</title>
<g id="a_node13"><a xlink:href="_utils_8h.html" target="_top" xlink:title=" ">
<polygon fill="white" stroke="#666666" points="481.81,-129 433.81,-129 433.81,-110 481.81,-110 481.81,-129"/>
<text text-anchor="middle" x="457.81" y="-117" font-family="Helvetica,sans-Serif" font-size="10.00">Utils.h</text>
</a>
</g>
</g>
<!-- Node11&#45;&gt;Node13 -->
<g id="edge21" class="edge">
<title>Node11&#45;&gt;Node13</title>
<path fill="none" stroke="#63b8ff" d="M363.19,-170.37C381.39,-160.78 411.01,-145.17 432.26,-133.97"/>
<polygon fill="#63b8ff" stroke="#63b8ff" points="434.15,-136.93 441.36,-129.17 430.89,-130.73 434.15,-136.93"/>
</g>
<!-- Node13&#45;&gt;Node12 -->
<g id="edge24" class="edge">
<title>Node13&#45;&gt;Node12</title>
<path fill="none" stroke="#63b8ff" d="M449.22,-109.75C441.65,-102.03 430.43,-90.6 421.3,-81.28"/>
<polygon fill="#63b8ff" stroke="#63b8ff" points="423.74,-78.78 414.24,-74.09 418.74,-83.68 423.74,-78.78"/>
</g>
<!-- Node14 -->
<g id="node14" class="node">
<title>Node14</title>
<g id="a_node14"><a xlink:title=" ">
<polygon fill="#e0e0e0" stroke="#999999" points="526.81,-74 470.81,-74 470.81,-55 526.81,-55 526.81,-74"/>
<text text-anchor="middle" x="498.81" y="-62" font-family="Helvetica,sans-Serif" font-size="10.00">stddef.h</text>
</a>
</g>
</g>
<!-- Node13&#45;&gt;Node14 -->
<g id="edge22" class="edge">
<title>Node13&#45;&gt;Node14</title>
<path fill="none" stroke="#63b8ff" d="M464.58,-109.75C470.37,-102.26 478.87,-91.28 485.95,-82.13"/>
<polygon fill="#63b8ff" stroke="#63b8ff" points="488.82,-84.14 492.17,-74.09 483.28,-79.86 488.82,-84.14"/>
</g>
<!-- Node15 -->
<g id="node15" class="node">
<title>Node15</title>
<g id="a_node15"><a xlink:title=" ">
<polygon fill="#e0e0e0" stroke="#999999" points="852.31,-74 769.31,-74 769.31,-55 852.31,-55 852.31,-74"/>
<text text-anchor="middle" x="810.81" y="-62" font-family="Helvetica,sans-Serif" font-size="10.00">ArduinoJson.h</text>
</a>
</g>
</g>
<!-- Node13&#45;&gt;Node15 -->
<g id="edge23" class="edge">
<title>Node13&#45;&gt;Node15</title>
<path fill="none" stroke="#63b8ff" d="M481.89,-111.96C484.88,-111.25 487.91,-110.57 490.81,-110 584.63,-91.46 695.43,-77.87 758.97,-70.87"/>
<polygon fill="#63b8ff" stroke="#63b8ff" points="759.57,-74.32 769.13,-69.76 758.81,-67.37 759.57,-74.32"/>
</g>
<!-- Node16&#45;&gt;Node3 -->
<g id="edge26" class="edge">
<title>Node16&#45;&gt;Node3</title>
<path fill="none" stroke="#63b8ff" d="M116.93,-166.62C119.93,-166.03 122.9,-165.49 125.81,-165 283.29,-138.67 327.06,-147.05 489.91,-129.06"/>
<polygon fill="#63b8ff" stroke="#63b8ff" points="490.75,-132.48 500.3,-127.89 489.97,-125.53 490.75,-132.48"/>
</g>
<!-- Node16&#45;&gt;Node4 -->
<g id="edge29" class="edge">
<title>Node16&#45;&gt;Node4</title>
<path fill="none" stroke="#63b8ff" d="M84,-164.84C94.62,-156.09 108.25,-144.85 119.14,-135.88"/>
<polygon fill="#63b8ff" stroke="#63b8ff" points="121.68,-138.33 127.17,-129.27 117.23,-132.92 121.68,-138.33"/>
</g>
<!-- Node16&#45;&gt;Node6 -->
<g id="edge27" class="edge">
<title>Node16&#45;&gt;Node6</title>
<path fill="none" stroke="#63b8ff" d="M116.99,-166.96C119.97,-166.29 122.93,-165.63 125.81,-165 202.82,-148.21 224.78,-145.7 306.03,-129.13"/>
<polygon fill="#63b8ff" stroke="#63b8ff" points="307.15,-132.47 316.24,-127.04 305.75,-125.62 307.15,-132.47"/>
</g>
<!-- Node16&#45;&gt;Node7 -->
<g id="edge28" class="edge">
<title>Node16&#45;&gt;Node7</title>
<path fill="none" stroke="#63b8ff" d="M111.6,-164.99C143.73,-154.94 186.52,-141.55 216.73,-132.1"/>
<polygon fill="#63b8ff" stroke="#63b8ff" points="217.97,-135.38 226.47,-129.05 215.88,-128.7 217.97,-135.38"/>
</g>
<!-- Node16&#45;&gt;Node8 -->
<g id="edge30" class="edge">
<title>Node16&#45;&gt;Node8</title>
<path fill="none" stroke="#63b8ff" d="M58.82,-164.84C54.28,-156.78 48.54,-146.62 43.71,-138.06"/>
<polygon fill="#63b8ff" stroke="#63b8ff" points="46.72,-136.26 38.76,-129.27 40.62,-139.7 46.72,-136.26"/>
</g>
<!-- Node17&#45;&gt;Node3 -->
<g id="edge32" class="edge">
<title>Node17&#45;&gt;Node3</title>
<path fill="none" stroke="#63b8ff" d="M669.36,-164.99C644.67,-155.23 612.03,-142.33 588.26,-132.93"/>
<polygon fill="#63b8ff" stroke="#63b8ff" points="589.25,-129.56 578.67,-129.14 586.68,-136.07 589.25,-129.56"/>
</g>
<!-- Node18 -->
<g id="node18" class="node">
<title>Node18</title>
<g id="a_node18"><a xlink:title=" ">
<polygon fill="#e0e0e0" stroke="#999999" points="726.81,-129 682.81,-129 682.81,-110 726.81,-110 726.81,-129"/>
<text text-anchor="middle" x="704.81" y="-117" font-family="Helvetica,sans-Serif" font-size="10.00">string</text>
</a>
</g>
</g>
<!-- Node17&#45;&gt;Node18 -->
<g id="edge33" class="edge">
<title>Node17&#45;&gt;Node18</title>
<path fill="none" stroke="#63b8ff" d="M704.81,-164.84C704.81,-157.21 704.81,-147.7 704.81,-139.45"/>
<polygon fill="#63b8ff" stroke="#63b8ff" points="708.31,-139.27 704.81,-129.27 701.31,-139.27 708.31,-139.27"/>
</g>
<!-- Node19&#45;&gt;Node1 -->
<g id="edge63" class="edge">
<title>Node19&#45;&gt;Node1</title>
<path fill="none" stroke="#63b8ff" d="M1330.01,-186.36C1212,-197.83 926.56,-224.79 785.87,-237.77"/>
<polygon fill="#63b8ff" stroke="#63b8ff" points="785.22,-234.31 775.58,-238.72 785.86,-241.29 785.22,-234.31"/>
</g>
<!-- Node20 -->
<g id="node20" class="node">
<title>Node20</title>
<g id="a_node20"><a xlink:title=" ">
<polygon fill="#e0e0e0" stroke="#999999" points="1611.31,-129 1534.31,-129 1534.31,-110 1611.31,-110 1611.31,-129"/>
<text text-anchor="middle" x="1572.81" y="-117" font-family="Helvetica,sans-Serif" font-size="10.00">BLEDevice.h</text>
</a>
</g>
</g>
<!-- Node19&#45;&gt;Node20 -->
<g id="edge35" class="edge">
<title>Node19&#45;&gt;Node20</title>
<path fill="none" stroke="#63b8ff" d="M1410.44,-170.49C1443.37,-160.36 1498.54,-143.37 1535.3,-132.05"/>
<polygon fill="#63b8ff" stroke="#63b8ff" points="1536.62,-135.3 1545.15,-129.02 1534.56,-128.61 1536.62,-135.3"/>
</g>
<!-- Node21 -->
<g id="node21" class="node">
<title>Node21</title>
<g id="a_node21"><a xlink:title=" ">
<polygon fill="#e0e0e0" stroke="#999999" points="1395.81,-74 1321.81,-74 1321.81,-55 1395.81,-55 1395.81,-74"/>
<text text-anchor="middle" x="1358.81" y="-62" font-family="Helvetica,sans-Serif" font-size="10.00">BLEServer.h</text>
</a>
</g>
</g>
<!-- Node19&#45;&gt;Node21 -->
<g id="edge36" class="edge">
<title>Node19&#45;&gt;Node21</title>
<path fill="none" stroke="#63b8ff" d="M1378.13,-170.46C1373.06,-160.74 1365.26,-144.24 1361.81,-129 1358.49,-114.33 1357.86,-97.28 1357.99,-84.55"/>
<polygon fill="#63b8ff" stroke="#63b8ff" points="1361.49,-84.35 1358.27,-74.26 1354.5,-84.16 1361.49,-84.35"/>
</g>
<!-- Node22 -->
<g id="node22" class="node">
<title>Node22</title>
<g id="a_node22"><a xlink:title=" ">
<polygon fill="#e0e0e0" stroke="#999999" points="1877.81,-129 1811.81,-129 1811.81,-110 1877.81,-110 1877.81,-129"/>
<text text-anchor="middle" x="1844.81" y="-117" font-family="Helvetica,sans-Serif" font-size="10.00">BLEUtils.h</text>
</a>
</g>
</g>
<!-- Node19&#45;&gt;Node22 -->
<g id="edge37" class="edge">
<title>Node19&#45;&gt;Node22</title>
<path fill="none" stroke="#63b8ff" d="M1435.38,-174.13C1513.23,-166.6 1663.94,-150.87 1801.5,-129.1"/>
<polygon fill="#63b8ff" stroke="#63b8ff" points="1802.06,-132.55 1811.38,-127.52 1800.96,-125.64 1802.06,-132.55"/>
</g>
<!-- Node23 -->
<g id="node23" class="node">
<title>Node23</title>
<g id="a_node23"><a xlink:title=" ">
<polygon fill="#e0e0e0" stroke="#999999" points="1649.81,-74 1581.81,-74 1581.81,-55 1649.81,-55 1649.81,-74"/>
<text text-anchor="middle" x="1615.81" y="-62" font-family="Helvetica,sans-Serif" font-size="10.00">BLE2902.h</text>
</a>
</g>
</g>
<!-- Node19&#45;&gt;Node23 -->
<g id="edge38" class="edge">
<title>Node19&#45;&gt;Node23</title>
<path fill="none" stroke="#63b8ff" d="M1400.87,-170.38C1421.63,-160.45 1456.73,-143.64 1486.81,-129 1522.24,-111.76 1563.02,-91.64 1589.08,-78.75"/>
<polygon fill="#63b8ff" stroke="#63b8ff" points="1590.9,-81.75 1598.31,-74.18 1587.79,-75.48 1590.9,-81.75"/>
</g>
<!-- Node24 -->
<g id="node24" class="node">
<title>Node24</title>
<g id="a_node24"><a xlink:href="uart_8h.html" target="_top" xlink:title="BluetoothLE UART service setup and handling.">
<polygon fill="white" stroke="#666666" points="1313.31,-129 1218.31,-129 1218.31,-110 1313.31,-110 1313.31,-129"/>
<text text-anchor="middle" x="1265.81" y="-117" font-family="Helvetica,sans-Serif" font-size="10.00">bluetooth/uart.h</text>
</a>
</g>
</g>
<!-- Node19&#45;&gt;Node24 -->
<g id="edge39" class="edge">
<title>Node19&#45;&gt;Node24</title>
<path fill="none" stroke="#63b8ff" d="M1360.87,-170.49C1339.53,-160.88 1307.68,-145.09 1286.71,-133.83"/>
<polygon fill="#63b8ff" stroke="#63b8ff" points="1288.37,-130.75 1277.91,-129.02 1285,-136.89 1288.37,-130.75"/>
</g>
<!-- Node27 -->
<g id="node27" class="node">
<title>Node27</title>
<g id="a_node27"><a xlink:href="device_8h.html" target="_top" xlink:title="Bluetooth device services and device information.">
<polygon fill="white" stroke="#666666" points="1477.31,-129 1370.31,-129 1370.31,-110 1477.31,-110 1477.31,-129"/>
<text text-anchor="middle" x="1423.81" y="-117" font-family="Helvetica,sans-Serif" font-size="10.00">bluetooth/device.h</text>
</a>
</g>
</g>
<!-- Node19&#45;&gt;Node27 -->
<g id="edge47" class="edge">
<title>Node19&#45;&gt;Node27</title>
<path fill="none" stroke="#63b8ff" d="M1388.86,-170.37C1394.92,-161.73 1404.4,-148.2 1411.95,-137.42"/>
<polygon fill="#63b8ff" stroke="#63b8ff" points="1414.86,-139.37 1417.74,-129.17 1409.13,-135.35 1414.86,-139.37"/>
</g>
<!-- Node28 -->
<g id="node28" class="node">
<title>Node28</title>
<g id="a_node28"><a xlink:href="power__monitoring_8h.html" target="_top" xlink:title="Setup BluetoothLE power monitoring information.">
<polygon fill="white" stroke="#666666" points="1793.81,-129 1629.81,-129 1629.81,-110 1793.81,-110 1793.81,-129"/>
<text text-anchor="middle" x="1711.81" y="-117" font-family="Helvetica,sans-Serif" font-size="10.00">bluetooth/power_monitoring.h</text>
</a>
</g>
</g>
<!-- Node19&#45;&gt;Node28 -->
<g id="edge52" class="edge">
<title>Node19&#45;&gt;Node28</title>
<path fill="none" stroke="#63b8ff" d="M1430.65,-170.49C1489.86,-159.97 1590.61,-142.05 1654.06,-130.77"/>
<polygon fill="#63b8ff" stroke="#63b8ff" points="1654.68,-134.21 1663.91,-129.02 1653.45,-127.32 1654.68,-134.21"/>
</g>
<!-- Node24&#45;&gt;Node2 -->
<g id="edge40" class="edge">
<title>Node24&#45;&gt;Node2</title>
<path fill="none" stroke="#63b8ff" d="M1218.23,-110.07C1197.53,-103.79 1175.22,-92.88 1162.81,-74 1148.71,-52.54 1177.11,-34.36 1202.92,-23.03"/>
<polygon fill="#63b8ff" stroke="#63b8ff" points="1204.33,-26.23 1212.22,-19.17 1201.65,-19.77 1204.33,-26.23"/>
</g>
<!-- Node24&#45;&gt;Node19 -->
<g id="edge46" class="edge">
<title>Node24&#45;&gt;Node19</title>
<path fill="none" stroke="#63b8ff" d="M1288.11,-129.17C1309.29,-138.73 1340.6,-154.24 1361.46,-165.42"/>
<polygon fill="#63b8ff" stroke="#63b8ff" points="1360.05,-168.64 1370.5,-170.37 1363.41,-162.5 1360.05,-168.64"/>
</g>
<!-- Node24&#45;&gt;Node21 -->
<g id="edge42" class="edge">
<title>Node24&#45;&gt;Node21</title>
<path fill="none" stroke="#63b8ff" d="M1280.75,-109.98C1295.31,-101.69 1317.68,-88.94 1334.74,-79.22"/>
<polygon fill="#63b8ff" stroke="#63b8ff" points="1336.64,-82.16 1343.6,-74.17 1333.18,-76.08 1336.64,-82.16"/>
</g>
<!-- Node24&#45;&gt;Node23 -->
<g id="edge43" class="edge">
<title>Node24&#45;&gt;Node23</title>
<path fill="none" stroke="#63b8ff" d="M1313.53,-112.35C1371.99,-104.65 1474.3,-90.62 1571.57,-74.14"/>
<polygon fill="#63b8ff" stroke="#63b8ff" points="1572.3,-77.56 1581.57,-72.43 1571.13,-70.66 1572.3,-77.56"/>
</g>
<!-- Node25 -->
<g id="node25" class="node">
<title>Node25</title>
<g id="a_node25"><a xlink:title=" ">
<polygon fill="#e0e0e0" stroke="#999999" points="1563.31,-74 1452.31,-74 1452.31,-55 1563.31,-55 1563.31,-74"/>
<text text-anchor="middle" x="1507.81" y="-62" font-family="Helvetica,sans-Serif" font-size="10.00">BLECharacteristic.h</text>
</a>
</g>
</g>
<!-- Node24&#45;&gt;Node25 -->
<g id="edge41" class="edge">
<title>Node24&#45;&gt;Node25</title>
<path fill="none" stroke="#63b8ff" d="M1304.69,-109.98C1346.55,-100.82 1413.24,-86.21 1458.7,-76.26"/>
<polygon fill="#63b8ff" stroke="#63b8ff" points="1459.6,-79.64 1468.62,-74.08 1458.11,-72.8 1459.6,-79.64"/>
</g>
<!-- Node26 -->
<g id="node26" class="node">
<title>Node26</title>
<g id="a_node26"><a xlink:href="tones_8h.html" target="_top" xlink:title="Audio control for the onboard piezo buzzer.">
<polygon fill="white" stroke="#666666" points="1303.31,-74 1172.31,-74 1172.31,-55 1303.31,-55 1303.31,-74"/>
<text text-anchor="middle" x="1237.81" y="-62" font-family="Helvetica,sans-Serif" font-size="10.00">audio&#45;feedback/tones.h</text>
</a>
</g>
</g>
<!-- Node24&#45;&gt;Node26 -->
<g id="edge44" class="edge">
<title>Node24&#45;&gt;Node26</title>
<path fill="none" stroke="#63b8ff" d="M1261.19,-109.75C1257.35,-102.49 1251.79,-91.95 1247.05,-82.98"/>
<polygon fill="#63b8ff" stroke="#63b8ff" points="1250.11,-81.3 1242.35,-74.09 1243.92,-84.57 1250.11,-81.3"/>
</g>
<!-- Node26&#45;&gt;Node2 -->
<g id="edge45" class="edge">
<title>Node26&#45;&gt;Node2</title>
<path fill="none" stroke="#63b8ff" d="M1237.81,-54.75C1237.81,-47.8 1237.81,-37.85 1237.81,-29.13"/>
<polygon fill="#63b8ff" stroke="#63b8ff" points="1241.31,-29.09 1237.81,-19.09 1234.31,-29.09 1241.31,-29.09"/>
</g>
<!-- Node27&#45;&gt;Node2 -->
<g id="edge48" class="edge">
<title>Node27&#45;&gt;Node2</title>
<path fill="none" stroke="#63b8ff" d="M1423.75,-109.76C1423.17,-96.1 1420.01,-69.74 1404.81,-55 1371.44,-22.63 1317.3,-13.14 1279.74,-10.7"/>
<polygon fill="#63b8ff" stroke="#63b8ff" points="1279.79,-7.19 1269.62,-10.18 1279.43,-14.18 1279.79,-7.19"/>
</g>
<!-- Node27&#45;&gt;Node21 -->
<g id="edge50" class="edge">
<title>Node27&#45;&gt;Node21</title>
<path fill="none" stroke="#63b8ff" d="M1413.37,-109.98C1403.66,-102.07 1389,-90.11 1377.31,-80.58"/>
<polygon fill="#63b8ff" stroke="#63b8ff" points="1379.41,-77.78 1369.44,-74.17 1374.98,-83.2 1379.41,-77.78"/>
</g>
<!-- Node27&#45;&gt;Node23 -->
<g id="edge51" class="edge">
<title>Node27&#45;&gt;Node23</title>
<path fill="none" stroke="#63b8ff" d="M1454.66,-109.98C1487.31,-100.97 1539.01,-86.7 1575.01,-76.76"/>
<polygon fill="#63b8ff" stroke="#63b8ff" points="1576.01,-80.12 1584.72,-74.08 1574.15,-73.37 1576.01,-80.12"/>
</g>
<!-- Node27&#45;&gt;Node25 -->
<g id="edge49" class="edge">
<title>Node27&#45;&gt;Node25</title>
<path fill="none" stroke="#63b8ff" d="M1437.31,-109.98C1450.21,-101.84 1469.91,-89.41 1485.21,-79.76"/>
<polygon fill="#63b8ff" stroke="#63b8ff" points="1487.48,-82.47 1494.07,-74.17 1483.74,-76.55 1487.48,-82.47"/>
</g>
<!-- Node28&#45;&gt;Node2 -->
<g id="edge53" class="edge">
<title>Node28&#45;&gt;Node2</title>
<path fill="none" stroke="#63b8ff" d="M1707.37,-109.67C1699.67,-95.4 1682.37,-67.58 1658.81,-55 1593.88,-20.34 1372.86,-12.68 1279.73,-10.98"/>
<polygon fill="#63b8ff" stroke="#63b8ff" points="1279.61,-7.48 1269.55,-10.81 1279.49,-14.48 1279.61,-7.48"/>
</g>
<!-- Node28&#45;&gt;Node21 -->
<g id="edge55" class="edge">
<title>Node28&#45;&gt;Node21</title>
<path fill="none" stroke="#63b8ff" d="M1655.09,-109.98C1586.05,-99.62 1470.7,-82.3 1406.18,-72.61"/>
<polygon fill="#63b8ff" stroke="#63b8ff" points="1406.3,-69.09 1395.89,-71.07 1405.26,-76.01 1406.3,-69.09"/>
</g>
<!-- Node28&#45;&gt;Node23 -->
<g id="edge56" class="edge">
<title>Node28&#45;&gt;Node23</title>
<path fill="none" stroke="#63b8ff" d="M1696.39,-109.98C1681.36,-101.69 1658.27,-88.94 1640.65,-79.22"/>
<polygon fill="#63b8ff" stroke="#63b8ff" points="1641.96,-75.94 1631.52,-74.17 1638.58,-82.07 1641.96,-75.94"/>
</g>
<!-- Node28&#45;&gt;Node25 -->
<g id="edge54" class="edge">
<title>Node28&#45;&gt;Node25</title>
<path fill="none" stroke="#63b8ff" d="M1679.03,-109.98C1644.19,-100.93 1588.95,-86.58 1550.67,-76.64"/>
<polygon fill="#63b8ff" stroke="#63b8ff" points="1551.4,-73.21 1540.84,-74.08 1549.64,-79.98 1551.4,-73.21"/>
</g>
<!-- Node29 -->
<g id="node29" class="node">
<title>Node29</title>
<g id="a_node29"><a xlink:href="solar_8h.html" target="_top" xlink:title="Solar voltage and current monitoring using INA219 IC.">
<polygon fill="white" stroke="#666666" points="1845.81,-74 1705.81,-74 1705.81,-55 1845.81,-55 1845.81,-74"/>
<text text-anchor="middle" x="1775.81" y="-62" font-family="Helvetica,sans-Serif" font-size="10.00">power_monitoring/solar.h</text>
</a>
</g>
</g>
<!-- Node28&#45;&gt;Node29 -->
<g id="edge57" class="edge">
<title>Node28&#45;&gt;Node29</title>
<path fill="none" stroke="#63b8ff" d="M1722.09,-109.98C1731.65,-102.07 1746.09,-90.11 1757.59,-80.58"/>
<polygon fill="#63b8ff" stroke="#63b8ff" points="1759.87,-83.24 1765.34,-74.17 1755.41,-77.85 1759.87,-83.24"/>
</g>
<!-- Node31 -->
<g id="node31" class="node">
<title>Node31</title>
<g id="a_node31"><a xlink:href="battery_8h.html" target="_top" xlink:title="Battery voltage and current monitoring using INA219 IC.">
<polygon fill="white" stroke="#666666" points="2015.31,-74 1864.31,-74 1864.31,-55 2015.31,-55 2015.31,-74"/>
<text text-anchor="middle" x="1939.81" y="-62" font-family="Helvetica,sans-Serif" font-size="10.00">power_monitoring/battery.h</text>
</a>
</g>
</g>
<!-- Node28&#45;&gt;Node31 -->
<g id="edge60" class="edge">
<title>Node28&#45;&gt;Node31</title>
<path fill="none" stroke="#63b8ff" d="M1748.44,-109.98C1787.72,-100.86 1850.18,-86.33 1893,-76.38"/>
<polygon fill="#63b8ff" stroke="#63b8ff" points="1893.94,-79.76 1902.89,-74.08 1892.36,-72.94 1893.94,-79.76"/>
</g>
<!-- Node29&#45;&gt;Node2 -->
<g id="edge58" class="edge">
<title>Node29&#45;&gt;Node2</title>
<path fill="none" stroke="#63b8ff" d="M1705.69,-56.39C1700.99,-55.92 1696.33,-55.45 1691.81,-55 1540.03,-39.88 1359.65,-22.32 1279.62,-14.55"/>
<polygon fill="#63b8ff" stroke="#63b8ff" points="1279.75,-11.05 1269.46,-13.57 1279.08,-18.02 1279.75,-11.05"/>
</g>
<!-- Node30 -->
<g id="node30" class="node">
<title>Node30</title>
<g id="a_node30"><a xlink:title=" ">
<polygon fill="#e0e0e0" stroke="#999999" points="1910.31,-19 1805.31,-19 1805.31,0 1910.31,0 1910.31,-19"/>
<text text-anchor="middle" x="1857.81" y="-7" font-family="Helvetica,sans-Serif" font-size="10.00">Adafruit_INA219.h</text>
</a>
</g>
</g>
<!-- Node29&#45;&gt;Node30 -->
<g id="edge59" class="edge">
<title>Node29&#45;&gt;Node30</title>
<path fill="none" stroke="#63b8ff" d="M1788.99,-54.98C1801.58,-46.84 1820.81,-34.41 1835.75,-24.76"/>
<polygon fill="#63b8ff" stroke="#63b8ff" points="1837.9,-27.54 1844.4,-19.17 1834.1,-21.66 1837.9,-27.54"/>
</g>
<!-- Node31&#45;&gt;Node2 -->
<g id="edge61" class="edge">
<title>Node31&#45;&gt;Node2</title>
<path fill="none" stroke="#63b8ff" d="M1864.28,-55.84C1861.08,-55.55 1857.91,-55.27 1854.81,-55 1638.78,-36.41 1379.74,-19.47 1279.89,-13.13"/>
<polygon fill="#63b8ff" stroke="#63b8ff" points="1279.82,-9.62 1269.62,-12.48 1279.38,-16.61 1279.82,-9.62"/>
</g>
<!-- Node31&#45;&gt;Node30 -->
<g id="edge62" class="edge">
<title>Node31&#45;&gt;Node30</title>
<path fill="none" stroke="#63b8ff" d="M1926.64,-54.98C1914.04,-46.84 1894.81,-34.41 1879.87,-24.76"/>
<polygon fill="#63b8ff" stroke="#63b8ff" points="1881.52,-21.66 1871.22,-19.17 1877.72,-27.54 1881.52,-21.66"/>
</g>
<!-- Node32&#45;&gt;Node3 -->
<g id="edge65" class="edge">
<title>Node32&#45;&gt;Node3</title>
<path fill="none" stroke="#63b8ff" d="M530.28,-164.84C535.1,-156.78 541.18,-146.62 546.31,-138.06"/>
<polygon fill="#63b8ff" stroke="#63b8ff" points="549.44,-139.64 551.57,-129.27 543.43,-136.05 549.44,-139.64"/>
</g>
<!-- Node32&#45;&gt;Node4 -->
<g id="edge68" class="edge">
<title>Node32&#45;&gt;Node4</title>
<path fill="none" stroke="#63b8ff" d="M444.46,-166.36C441.54,-165.9 438.65,-165.44 435.81,-165 355.07,-152.4 261.91,-138.61 201.54,-129.77"/>
<polygon fill="#63b8ff" stroke="#63b8ff" points="201.81,-126.27 191.41,-128.29 200.79,-133.2 201.81,-126.27"/>
</g>
<!-- Node32&#45;&gt;Node6 -->
<g id="edge66" class="edge">
<title>Node32&#45;&gt;Node6</title>
<path fill="none" stroke="#63b8ff" d="M479.89,-164.99C450.08,-155.02 410.48,-141.78 382.25,-132.35"/>
<polygon fill="#63b8ff" stroke="#63b8ff" points="382.99,-128.9 372.4,-129.05 380.77,-135.54 382.99,-128.9"/>
</g>
<!-- Node32&#45;&gt;Node7 -->
<g id="edge67" class="edge">
<title>Node32&#45;&gt;Node7</title>
<path fill="none" stroke="#63b8ff" d="M457.62,-164.99C410.07,-154.61 346.24,-140.68 302.77,-131.19"/>
<polygon fill="#63b8ff" stroke="#63b8ff" points="303.51,-127.77 293,-129.05 302.02,-134.61 303.51,-127.77"/>
</g>
<!-- Node33 -->
<g id="node33" class="node">
<title>Node33</title>
<g id="a_node33"><a xlink:href="_device_config_8h.html" target="_top" xlink:title="Node configuration options.">
<polygon fill="white" stroke="#666666" points="933.81,-129 843.81,-129 843.81,-110 933.81,-110 933.81,-129"/>
<text text-anchor="middle" x="888.81" y="-117" font-family="Helvetica,sans-Serif" font-size="10.00">DeviceConfig.h</text>
</a>
</g>
</g>
<!-- Node32&#45;&gt;Node33 -->
<g id="edge69" class="edge">
<title>Node32&#45;&gt;Node33</title>
<path fill="none" stroke="#63b8ff" d="M599.19,-166.67C669.41,-155.47 771.23,-139.24 833.55,-129.31"/>
<polygon fill="#63b8ff" stroke="#63b8ff" points="834.26,-132.74 843.59,-127.71 833.16,-125.83 834.26,-132.74"/>
</g>
<!-- Node33&#45;&gt;Node2 -->
<g id="edge70" class="edge">
<title>Node33&#45;&gt;Node2</title>
<path fill="none" stroke="#63b8ff" d="M916.04,-109.91C954.98,-97.65 1028.83,-74.45 1091.81,-55 1128.39,-43.71 1170.18,-30.99 1199.65,-22.05"/>
<polygon fill="#63b8ff" stroke="#63b8ff" points="1200.98,-25.3 1209.53,-19.05 1198.94,-18.6 1200.98,-25.3"/>
</g>
<!-- Node33&#45;&gt;Node15 -->
<g id="edge71" class="edge">
<title>Node33&#45;&gt;Node15</title>
<path fill="none" stroke="#63b8ff" d="M876.28,-109.98C864.41,-101.92 846.35,-89.65 832.2,-80.03"/>
<polygon fill="#63b8ff" stroke="#63b8ff" points="833.81,-76.9 823.57,-74.17 829.87,-82.69 833.81,-76.9"/>
</g>
<!-- Node34&#45;&gt;Node33 -->
<g id="edge73" class="edge">
<title>Node34&#45;&gt;Node33</title>
<path fill="none" stroke="#63b8ff" d="M1060.68,-164.99C1021.17,-154.76 968.34,-141.09 931.73,-131.61"/>
<polygon fill="#63b8ff" stroke="#63b8ff" points="932.41,-128.17 921.86,-129.05 930.66,-134.95 932.41,-128.17"/>
</g>
<!-- Node35&#45;&gt;Node33 -->
<g id="edge75" class="edge">
<title>Node35&#45;&gt;Node33</title>
<path fill="none" stroke="#63b8ff" d="M844.09,-164.84C852.74,-156.26 863.8,-145.3 872.76,-136.42"/>
<polygon fill="#63b8ff" stroke="#63b8ff" points="875.33,-138.79 879.97,-129.27 870.4,-133.82 875.33,-138.79"/>
</g>
<!-- Node36&#45;&gt;Node33 -->
<g id="edge77" class="edge">
<title>Node36&#45;&gt;Node33</title>
<path fill="none" stroke="#63b8ff" d="M950.2,-164.84C937.84,-155.91 921.91,-144.41 909.38,-135.35"/>
<polygon fill="#63b8ff" stroke="#63b8ff" points="911.1,-132.28 900.95,-129.27 907.01,-137.96 911.1,-132.28"/>
</g>
</g>
</svg>
