<?xml version="1.0" encoding="UTF-8" standalone="no"?>
<!DOCTYPE svg PUBLIC "-//W3C//DTD SVG 1.1//EN"
 "http://www.w3.org/Graphics/SVG/1.1/DTD/svg11.dtd">
<!-- Generated by graphviz version 2.43.0 (0)
 -->
<!-- Title: firmware/wombat/include/DeviceConfig.h Pages: 1 -->
<svg width="1666pt" height="401pt"
 viewBox="0.00 0.00 1666.00 401.00" xmlns="http://www.w3.org/2000/svg" xmlns:xlink="http://www.w3.org/1999/xlink">
<g id="graph0" class="graph" transform="scale(1 1) rotate(0) translate(4 397)">
<title>firmware/wombat/include/DeviceConfig.h</title>
<!-- Node1 -->
<g id="node1" class="node">
<title>Node1</title>
<g id="a_node1"><a xlink:title="Node configuration options.">
<polygon fill="#999999" stroke="#666666" points="919.5,-393 778.5,-393 778.5,-363 919.5,-363 919.5,-393"/>
<text text-anchor="start" x="786.5" y="-381" font-family="Helvetica,sans-Serif" font-size="10.00">firmware/wombat/include</text>
<text text-anchor="middle" x="849" y="-370" font-family="Helvetica,sans-Serif" font-size="10.00">/DeviceConfig.h</text>
</a>
</g>
</g>
<!-- Node2 -->
<g id="node2" class="node">
<title>Node2</title>
<g id="a_node2"><a xlink:href="acquisition__intervals_8h.html" target="_top" xlink:title="Handles the time between measurements and uplinks by the device over LTE.">
<polygon fill="white" stroke="#666666" points="927.5,-327 770.5,-327 770.5,-286 927.5,-286 927.5,-327"/>
<text text-anchor="start" x="778.5" y="-315" font-family="Helvetica,sans-Serif" font-size="10.00">firmware/wombat/include</text>
<text text-anchor="start" x="778.5" y="-304" font-family="Helvetica,sans-Serif" font-size="10.00">/cli/device_config/acquisition</text>
<text text-anchor="middle" x="849" y="-293" font-family="Helvetica,sans-Serif" font-size="10.00">_intervals.h</text>
</a>
</g>
</g>
<!-- Node1&#45;&gt;Node2 -->
<g id="edge1" class="edge">
<title>Node1&#45;&gt;Node2</title>
<path fill="none" stroke="#63b8ff" d="M849,-352.91C849,-344.47 849,-335.1 849,-327.07"/>
<polygon fill="#63b8ff" stroke="#63b8ff" points="845.5,-352.94 849,-362.94 852.5,-352.94 845.5,-352.94"/>
</g>
<!-- Node12 -->
<g id="node12" class="node">
<title>Node12</title>
<g id="a_node12"><a xlink:href="ftp__stack_8cpp.html" target="_top" xlink:title=" ">
<polygon fill="white" stroke="#666666" points="120,-167.5 0,-167.5 0,-137.5 120,-137.5 120,-167.5"/>
<text text-anchor="start" x="8" y="-155.5" font-family="Helvetica,sans-Serif" font-size="10.00">firmware/wombat/src</text>
<text text-anchor="middle" x="60" y="-144.5" font-family="Helvetica,sans-Serif" font-size="10.00">/ftp_stack.cpp</text>
</a>
</g>
</g>
<!-- Node1&#45;&gt;Node12 -->
<g id="edge32" class="edge">
<title>Node1&#45;&gt;Node12</title>
<path fill="none" stroke="#63b8ff" d="M768.06,-374.32C605.38,-368.41 250.08,-352.72 201,-327 130.87,-290.25 82.97,-201.89 66.41,-167.52"/>
<polygon fill="#63b8ff" stroke="#63b8ff" points="768.37,-377.83 778.49,-374.69 768.62,-370.83 768.37,-377.83"/>
</g>
<!-- Node13 -->
<g id="node13" class="node">
<title>Node13</title>
<g id="a_node13"><a xlink:href="main_8cpp.html" target="_top" xlink:title=" ">
<polygon fill="white" stroke="#666666" points="258,-167.5 138,-167.5 138,-137.5 258,-137.5 258,-167.5"/>
<text text-anchor="start" x="146" y="-155.5" font-family="Helvetica,sans-Serif" font-size="10.00">firmware/wombat/src</text>
<text text-anchor="middle" x="198" y="-144.5" font-family="Helvetica,sans-Serif" font-size="10.00">/main.cpp</text>
</a>
</g>
</g>
<!-- Node1&#45;&gt;Node13 -->
<g id="edge33" class="edge">
<title>Node1&#45;&gt;Node13</title>
<path fill="none" stroke="#63b8ff" d="M768.08,-375.86C609.34,-372.85 269.1,-362.31 230,-327 184.08,-285.53 190.7,-201.48 195.54,-167.87"/>
<polygon fill="#63b8ff" stroke="#63b8ff" points="768.2,-379.36 778.27,-376.05 768.33,-372.36 768.2,-379.36"/>
</g>
<!-- Node14 -->
<g id="node14" class="node">
<title>Node14</title>
<g id="a_node14"><a xlink:href="mqtt__stack_8cpp.html" target="_top" xlink:title=" ">
<polygon fill="white" stroke="#666666" points="396,-167.5 276,-167.5 276,-137.5 396,-137.5 396,-167.5"/>
<text text-anchor="start" x="284" y="-155.5" font-family="Helvetica,sans-Serif" font-size="10.00">firmware/wombat/src</text>
<text text-anchor="middle" x="336" y="-144.5" font-family="Helvetica,sans-Serif" font-size="10.00">/mqtt_stack.cpp</text>
</a>
</g>
</g>
<!-- Node1&#45;&gt;Node14 -->
<g id="edge34" class="edge">
<title>Node1&#45;&gt;Node14</title>
<path fill="none" stroke="#63b8ff" d="M768.01,-376.14C613.53,-373.64 289.02,-364 255,-327 219.51,-288.39 230.55,-255.4 255,-209 264.86,-190.3 284.17,-176.69 301.46,-167.64"/>
<polygon fill="#63b8ff" stroke="#63b8ff" points="768.33,-379.64 778.39,-376.3 768.44,-372.64 768.33,-379.64"/>
</g>
<!-- Node15 -->
<g id="node15" class="node">
<title>Node15</title>
<g id="a_node15"><a xlink:href="_device_config_8cpp.html" target="_top" xlink:title=" ">
<polygon fill="white" stroke="#666666" points="978,-244.5 858,-244.5 858,-214.5 978,-214.5 978,-244.5"/>
<text text-anchor="start" x="866" y="-232.5" font-family="Helvetica,sans-Serif" font-size="10.00">firmware/wombat/src</text>
<text text-anchor="middle" x="918" y="-221.5" font-family="Helvetica,sans-Serif" font-size="10.00">/DeviceConfig.cpp</text>
</a>
</g>
</g>
<!-- Node1&#45;&gt;Node15 -->
<g id="edge28" class="edge">
<title>Node1&#45;&gt;Node15</title>
<path fill="none" stroke="#63b8ff" d="M902.25,-358.29C915.98,-350.77 929.1,-340.58 937,-327 952.29,-300.73 937.13,-264.34 926.47,-244.6"/>
<polygon fill="#63b8ff" stroke="#63b8ff" points="900.55,-355.23 893.2,-362.85 903.7,-361.48 900.55,-355.23"/>
</g>
<!-- Node17 -->
<g id="node17" class="node">
<title>Node17</title>
<g id="a_node17"><a xlink:href="config__cli_8h.html" target="_top" xlink:title=" ">
<polygon fill="white" stroke="#666666" points="422,-321.5 264,-321.5 264,-291.5 422,-291.5 422,-321.5"/>
<text text-anchor="start" x="272" y="-309.5" font-family="Helvetica,sans-Serif" font-size="10.00">firmware/wombat/include</text>
<text text-anchor="middle" x="343" y="-298.5" font-family="Helvetica,sans-Serif" font-size="10.00">/cli/device_config/config_cli.h</text>
</a>
</g>
</g>
<!-- Node1&#45;&gt;Node17 -->
<g id="edge17" class="edge">
<title>Node1&#45;&gt;Node17</title>
<path fill="none" stroke="#63b8ff" d="M768.4,-369.75C683.97,-361.59 547.66,-346.85 431,-327 421.74,-325.42 411.99,-323.52 402.49,-321.52"/>
<polygon fill="#63b8ff" stroke="#63b8ff" points="768.14,-373.24 778.43,-370.71 768.81,-366.27 768.14,-373.24"/>
</g>
<!-- Node19 -->
<g id="node19" class="node">
<title>Node19</title>
<g id="a_node19"><a xlink:href="ftp__cli_8h.html" target="_top" xlink:title="FTP setup and configuration through the CLI.">
<polygon fill="white" stroke="#666666" points="752,-321.5 610,-321.5 610,-291.5 752,-291.5 752,-321.5"/>
<text text-anchor="start" x="618" y="-309.5" font-family="Helvetica,sans-Serif" font-size="10.00">firmware/wombat/include</text>
<text text-anchor="middle" x="681" y="-298.5" font-family="Helvetica,sans-Serif" font-size="10.00">/cli/device_config/ftp_cli.h</text>
</a>
</g>
</g>
<!-- Node1&#45;&gt;Node19 -->
<g id="edge20" class="edge">
<title>Node1&#45;&gt;Node19</title>
<path fill="none" stroke="#63b8ff" d="M805.76,-359.11C777.5,-347.42 741.12,-332.37 714.95,-321.54"/>
<polygon fill="#63b8ff" stroke="#63b8ff" points="804.42,-362.35 815,-362.94 807.1,-355.88 804.42,-362.35"/>
</g>
<!-- Node21 -->
<g id="node21" class="node">
<title>Node21</title>
<g id="a_node21"><a xlink:href="mqtt__cli_8h.html" target="_top" xlink:title="MQTT setup and configuration through the CLI.">
<polygon fill="white" stroke="#666666" points="592,-321.5 440,-321.5 440,-291.5 592,-291.5 592,-321.5"/>
<text text-anchor="start" x="448" y="-309.5" font-family="Helvetica,sans-Serif" font-size="10.00">firmware/wombat/include</text>
<text text-anchor="middle" x="516" y="-298.5" font-family="Helvetica,sans-Serif" font-size="10.00">/cli/device_config/mqtt_cli.h</text>
</a>
</g>
</g>
<!-- Node1&#45;&gt;Node21 -->
<g id="edge24" class="edge">
<title>Node1&#45;&gt;Node21</title>
<path fill="none" stroke="#63b8ff" d="M768.52,-361.34C719.94,-351.74 656.84,-339.03 601,-327 593.01,-325.28 584.61,-323.41 576.32,-321.55"/>
<polygon fill="#63b8ff" stroke="#63b8ff" points="767.86,-364.77 778.34,-363.27 769.21,-357.9 767.86,-364.77"/>
</g>
<!-- Node23 -->
<g id="node23" class="node">
<title>Node23</title>
<g id="a_node23"><a xlink:href="_sensor_task_8cpp.html" target="_top" xlink:title=" ">
<polygon fill="white" stroke="#666666" points="1104,-321.5 984,-321.5 984,-291.5 1104,-291.5 1104,-321.5"/>
<text text-anchor="start" x="992" y="-309.5" font-family="Helvetica,sans-Serif" font-size="10.00">firmware/wombat/src</text>
<text text-anchor="middle" x="1044" y="-298.5" font-family="Helvetica,sans-Serif" font-size="10.00">/SensorTask.cpp</text>
</a>
</g>
</g>
<!-- Node1&#45;&gt;Node23 -->
<g id="edge29" class="edge">
<title>Node1&#45;&gt;Node23</title>
<path fill="none" stroke="#63b8ff" d="M897.91,-359.57C930.89,-347.81 973.82,-332.51 1004.6,-321.54"/>
<polygon fill="#63b8ff" stroke="#63b8ff" points="896.71,-356.28 888.46,-362.94 899.06,-362.88 896.71,-356.28"/>
</g>
<!-- Node24 -->
<g id="node24" class="node">
<title>Node24</title>
<g id="a_node24"><a xlink:href="_utils_8cpp.html" target="_top" xlink:title="Global utility functions.">
<polygon fill="white" stroke="#666666" points="1242,-321.5 1122,-321.5 1122,-291.5 1242,-291.5 1242,-321.5"/>
<text text-anchor="start" x="1130" y="-309.5" font-family="Helvetica,sans-Serif" font-size="10.00">firmware/wombat/src</text>
<text text-anchor="middle" x="1182" y="-298.5" font-family="Helvetica,sans-Serif" font-size="10.00">/Utils.cpp</text>
</a>
</g>
</g>
<!-- Node1&#45;&gt;Node24 -->
<g id="edge30" class="edge">
<title>Node1&#45;&gt;Node24</title>
<path fill="none" stroke="#63b8ff" d="M929.59,-363.64C982.08,-354.47 1051.89,-341.39 1113,-327 1119.91,-325.37 1127.16,-323.5 1134.26,-321.58"/>
<polygon fill="#63b8ff" stroke="#63b8ff" points="928.92,-360.2 919.67,-365.36 930.12,-367.1 928.92,-360.2"/>
</g>
<!-- Node25 -->
<g id="node25" class="node">
<title>Node25</title>
<g id="a_node25"><a xlink:href="device_8cpp.html" target="_top" xlink:title="Setup BluetoothLE device information services and characteristics.">
<polygon fill="white" stroke="#666666" points="1382,-321.5 1260,-321.5 1260,-291.5 1382,-291.5 1382,-321.5"/>
<text text-anchor="start" x="1268" y="-309.5" font-family="Helvetica,sans-Serif" font-size="10.00">firmware/wombat/src</text>
<text text-anchor="middle" x="1321" y="-298.5" font-family="Helvetica,sans-Serif" font-size="10.00">/bluetooth/device.cpp</text>
</a>
</g>
</g>
<!-- Node1&#45;&gt;Node25 -->
<g id="edge31" class="edge">
<title>Node1&#45;&gt;Node25</title>
<path fill="none" stroke="#63b8ff" d="M929.78,-370.49C1011.36,-363.09 1140.73,-349.09 1251,-327 1258.55,-325.49 1266.47,-323.59 1274.16,-321.57"/>
<polygon fill="#63b8ff" stroke="#63b8ff" points="929.23,-367.03 919.58,-371.41 929.86,-374 929.23,-367.03"/>
</g>
<!-- Node26 -->
<g id="node26" class="node">
<title>Node26</title>
<g id="a_node26"><a xlink:href="ulp_8cpp.html" target="_top" xlink:title=" ">
<polygon fill="white" stroke="#666666" points="1520,-321.5 1400,-321.5 1400,-291.5 1520,-291.5 1520,-321.5"/>
<text text-anchor="start" x="1408" y="-309.5" font-family="Helvetica,sans-Serif" font-size="10.00">firmware/wombat/src</text>
<text text-anchor="middle" x="1460" y="-298.5" font-family="Helvetica,sans-Serif" font-size="10.00">/ulp.cpp</text>
</a>
</g>
</g>
<!-- Node1&#45;&gt;Node26 -->
<g id="edge35" class="edge">
<title>Node1&#45;&gt;Node26</title>
<path fill="none" stroke="#63b8ff" d="M929.76,-374.17C1036.22,-369.39 1228.99,-357.1 1391,-327 1398.71,-325.57 1406.8,-323.66 1414.63,-321.6"/>
<polygon fill="#63b8ff" stroke="#63b8ff" points="929.56,-370.68 919.73,-374.61 929.87,-377.67 929.56,-370.68"/>
</g>
<!-- Node27 -->
<g id="node27" class="node">
<title>Node27</title>
<g id="a_node27"><a xlink:href="uplinks_8cpp.html" target="_top" xlink:title=" ">
<polygon fill="white" stroke="#666666" points="1658,-321.5 1538,-321.5 1538,-291.5 1658,-291.5 1658,-321.5"/>
<text text-anchor="start" x="1546" y="-309.5" font-family="Helvetica,sans-Serif" font-size="10.00">firmware/wombat/src</text>
<text text-anchor="middle" x="1598" y="-298.5" font-family="Helvetica,sans-Serif" font-size="10.00">/uplinks.cpp</text>
</a>
</g>
</g>
<!-- Node1&#45;&gt;Node27 -->
<g id="edge36" class="edge">
<title>Node1&#45;&gt;Node27</title>
<path fill="none" stroke="#63b8ff" d="M929.68,-376.32C1057.69,-374.07 1314.76,-364.75 1529,-327 1536.97,-325.6 1545.34,-323.65 1553.39,-321.52"/>
<polygon fill="#63b8ff" stroke="#63b8ff" points="929.51,-372.82 919.57,-376.49 929.63,-379.82 929.51,-372.82"/>
</g>
<!-- Node3 -->
<g id="node3" class="node">
<title>Node3</title>
<g id="a_node3"><a xlink:href="_c_l_i_8h.html" target="_top" xlink:title="FreeRTOS CLI handler.">
<polygon fill="white" stroke="#666666" points="701.5,-244.5 560.5,-244.5 560.5,-214.5 701.5,-214.5 701.5,-244.5"/>
<text text-anchor="start" x="568.5" y="-232.5" font-family="Helvetica,sans-Serif" font-size="10.00">firmware/wombat/include</text>
<text text-anchor="middle" x="631" y="-221.5" font-family="Helvetica,sans-Serif" font-size="10.00">/cli/CLI.h</text>
</a>
</g>
</g>
<!-- Node2&#45;&gt;Node3 -->
<g id="edge2" class="edge">
<title>Node2&#45;&gt;Node3</title>
<path fill="none" stroke="#63b8ff" d="M782.8,-282.73C746.69,-270.3 703.11,-255.31 671.93,-244.58"/>
<polygon fill="#63b8ff" stroke="#63b8ff" points="781.7,-286.05 792.29,-285.99 783.97,-279.43 781.7,-286.05"/>
</g>
<!-- Node2&#45;&gt;Node15 -->
<g id="edge15" class="edge">
<title>Node2&#45;&gt;Node15</title>
<path fill="none" stroke="#63b8ff" d="M874.08,-278.24C884.47,-266.94 896.11,-254.3 904.79,-244.86"/>
<polygon fill="#63b8ff" stroke="#63b8ff" points="871.32,-276.07 867.13,-285.79 876.48,-280.81 871.32,-276.07"/>
</g>
<!-- Node16 -->
<g id="node16" class="node">
<title>Node16</title>
<g id="a_node16"><a xlink:href="acquisition__intervals_8cpp.html" target="_top" xlink:title="Handles the time between measurements and uplinks by the device over LTE.">
<polygon fill="white" stroke="#666666" points="1153.5,-250 996.5,-250 996.5,-209 1153.5,-209 1153.5,-250"/>
<text text-anchor="start" x="1004.5" y="-238" font-family="Helvetica,sans-Serif" font-size="10.00">firmware/wombat/src</text>
<text text-anchor="start" x="1004.5" y="-227" font-family="Helvetica,sans-Serif" font-size="10.00">/cli/device_config/acquisition</text>
<text text-anchor="middle" x="1075" y="-216" font-family="Helvetica,sans-Serif" font-size="10.00">_intervals.cpp</text>
</a>
</g>
</g>
<!-- Node2&#45;&gt;Node16 -->
<g id="edge16" class="edge">
<title>Node2&#45;&gt;Node16</title>
<path fill="none" stroke="#63b8ff" d="M917.37,-282.81C948.87,-272.36 985.87,-260.08 1016.11,-250.04"/>
<polygon fill="#63b8ff" stroke="#63b8ff" points="916.18,-279.52 907.79,-285.99 918.38,-286.16 916.18,-279.52"/>
</g>
<!-- Node4 -->
<g id="node4" class="node">
<title>Node4</title>
<g id="a_node4"><a xlink:href="server_8h.html" target="_top" xlink:title="Handle the setup and maintenance of the BLE server and connected clients.">
<polygon fill="white" stroke="#666666" points="711.5,-167.5 570.5,-167.5 570.5,-137.5 711.5,-137.5 711.5,-167.5"/>
<text text-anchor="start" x="578.5" y="-155.5" font-family="Helvetica,sans-Serif" font-size="10.00">firmware/wombat/include</text>
<text text-anchor="middle" x="641" y="-144.5" font-family="Helvetica,sans-Serif" font-size="10.00">/bluetooth/server.h</text>
</a>
</g>
</g>
<!-- Node3&#45;&gt;Node4 -->
<g id="edge3" class="edge">
<title>Node3&#45;&gt;Node4</title>
<path fill="none" stroke="#63b8ff" d="M634.21,-204.41C635.83,-192.24 637.75,-177.9 639.13,-167.54"/>
<polygon fill="#63b8ff" stroke="#63b8ff" points="630.73,-204.02 632.88,-214.39 637.67,-204.94 630.73,-204.02"/>
</g>
<!-- Node8 -->
<g id="node8" class="node">
<title>Node8</title>
<g id="a_node8"><a xlink:href="_c_l_i_8cpp.html" target="_top" xlink:title="FreeRTOS CLI handler.">
<polygon fill="white" stroke="#666666" points="850,-167.5 730,-167.5 730,-137.5 850,-137.5 850,-167.5"/>
<text text-anchor="start" x="738" y="-155.5" font-family="Helvetica,sans-Serif" font-size="10.00">firmware/wombat/src</text>
<text text-anchor="middle" x="790" y="-144.5" font-family="Helvetica,sans-Serif" font-size="10.00">/cli/CLI.cpp</text>
</a>
</g>
</g>
<!-- Node3&#45;&gt;Node8 -->
<g id="edge8" class="edge">
<title>Node3&#45;&gt;Node8</title>
<path fill="none" stroke="#63b8ff" d="M669.97,-210.12C697.82,-196.98 734.73,-179.57 760.23,-167.54"/>
<polygon fill="#63b8ff" stroke="#63b8ff" points="668.46,-206.96 660.91,-214.39 671.44,-213.29 668.46,-206.96"/>
</g>
<!-- Node9 -->
<g id="node9" class="node">
<title>Node9</title>
<g id="a_node9"><a xlink:href="cat-m1_8cpp.html" target="_top" xlink:title="CAT&#45;M1 CLI command request and response handler.">
<polygon fill="white" stroke="#666666" points="988,-173 868,-173 868,-132 988,-132 988,-173"/>
<text text-anchor="start" x="876" y="-161" font-family="Helvetica,sans-Serif" font-size="10.00">firmware/wombat/src</text>
<text text-anchor="start" x="876" y="-150" font-family="Helvetica,sans-Serif" font-size="10.00">/cli/peripherals/cat</text>
<text text-anchor="middle" x="928" y="-139" font-family="Helvetica,sans-Serif" font-size="10.00">&#45;m1.cpp</text>
</a>
</g>
</g>
<!-- Node3&#45;&gt;Node9 -->
<g id="edge9" class="edge">
<title>Node3&#45;&gt;Node9</title>
<path fill="none" stroke="#63b8ff" d="M698.54,-212.03C702.76,-211.01 706.94,-209.99 711,-209 776.77,-192.98 793.53,-190.21 859,-173 861.89,-172.24 864.84,-171.45 867.82,-170.65"/>
<polygon fill="#63b8ff" stroke="#63b8ff" points="697.57,-208.67 688.68,-214.44 699.22,-215.47 697.57,-208.67"/>
</g>
<!-- Node10 -->
<g id="node10" class="node">
<title>Node10</title>
<g id="a_node10"><a xlink:href="sd__card_8cpp.html" target="_top" xlink:title=" ">
<polygon fill="white" stroke="#666666" points="1126,-173 1006,-173 1006,-132 1126,-132 1126,-173"/>
<text text-anchor="start" x="1014" y="-161" font-family="Helvetica,sans-Serif" font-size="10.00">firmware/wombat/src</text>
<text text-anchor="start" x="1014" y="-150" font-family="Helvetica,sans-Serif" font-size="10.00">/cli/peripherals/sd</text>
<text text-anchor="middle" x="1066" y="-139" font-family="Helvetica,sans-Serif" font-size="10.00">_card.cpp</text>
</a>
</g>
</g>
<!-- Node3&#45;&gt;Node10 -->
<g id="edge10" class="edge">
<title>Node3&#45;&gt;Node10</title>
<path fill="none" stroke="#63b8ff" d="M694.83,-212.25C700.28,-211.08 705.73,-209.97 711,-209 836.99,-185.79 871.45,-198.49 997,-173 999.93,-172.41 1002.91,-171.75 1005.92,-171.05"/>
<polygon fill="#63b8ff" stroke="#63b8ff" points="694.04,-208.85 685.04,-214.44 695.57,-215.68 694.04,-208.85"/>
</g>
<!-- Node11 -->
<g id="node11" class="node">
<title>Node11</title>
<g id="a_node11"><a xlink:href="sdi12_8cpp.html" target="_top" xlink:title="SDI&#45;12 command line interface handler.">
<polygon fill="white" stroke="#666666" points="552,-167.5 414,-167.5 414,-137.5 552,-137.5 552,-167.5"/>
<text text-anchor="start" x="422" y="-155.5" font-family="Helvetica,sans-Serif" font-size="10.00">firmware/wombat/src</text>
<text text-anchor="middle" x="483" y="-144.5" font-family="Helvetica,sans-Serif" font-size="10.00">/cli/peripherals/sdi12.cpp</text>
</a>
</g>
</g>
<!-- Node3&#45;&gt;Node11 -->
<g id="edge11" class="edge">
<title>Node3&#45;&gt;Node11</title>
<path fill="none" stroke="#63b8ff" d="M594.04,-209.77C568.2,-196.68 534.24,-179.47 510.71,-167.54"/>
<polygon fill="#63b8ff" stroke="#63b8ff" points="592.66,-212.99 603.16,-214.39 595.82,-206.75 592.66,-212.99"/>
</g>
<!-- Node3&#45;&gt;Node12 -->
<g id="edge12" class="edge">
<title>Node3&#45;&gt;Node12</title>
<path fill="none" stroke="#63b8ff" d="M568.82,-212.19C563.16,-210.99 557.49,-209.91 552,-209 365.84,-178.3 314.63,-206.81 129,-173 121.16,-171.57 112.93,-169.64 104.99,-167.54"/>
<polygon fill="#63b8ff" stroke="#63b8ff" points="568.45,-215.69 578.97,-214.43 569.96,-208.85 568.45,-215.69"/>
</g>
<!-- Node3&#45;&gt;Node13 -->
<g id="edge13" class="edge">
<title>Node3&#45;&gt;Node13</title>
<path fill="none" stroke="#63b8ff" d="M567.57,-212.16C562.32,-211.02 557.08,-209.94 552,-209 426.48,-185.66 392.11,-198.43 267,-173 259.56,-171.49 251.75,-169.59 244.16,-167.57"/>
<polygon fill="#63b8ff" stroke="#63b8ff" points="567.11,-215.65 577.64,-214.44 568.66,-208.82 567.11,-215.65"/>
</g>
<!-- Node3&#45;&gt;Node14 -->
<g id="edge14" class="edge">
<title>Node3&#45;&gt;Node14</title>
<path fill="none" stroke="#63b8ff" d="M564.3,-212.03C560.14,-211 556.01,-209.99 552,-209 486.68,-192.94 470.04,-190.15 405,-173 398.5,-171.29 391.67,-169.43 384.94,-167.56"/>
<polygon fill="#63b8ff" stroke="#63b8ff" points="563.5,-215.43 574.04,-214.43 565.17,-208.64 563.5,-215.43"/>
</g>
<!-- Node5 -->
<g id="node5" class="node">
<title>Node5</title>
<g id="a_node5"><a xlink:href="uart_8h.html" target="_top" xlink:title="BluetoothLE UART service setup and handling.">
<polygon fill="white" stroke="#666666" points="711.5,-96 570.5,-96 570.5,-66 711.5,-66 711.5,-96"/>
<text text-anchor="start" x="578.5" y="-84" font-family="Helvetica,sans-Serif" font-size="10.00">firmware/wombat/include</text>
<text text-anchor="middle" x="641" y="-73" font-family="Helvetica,sans-Serif" font-size="10.00">/bluetooth/uart.h</text>
</a>
</g>
</g>
<!-- Node4&#45;&gt;Node5 -->
<g id="edge4" class="edge">
<title>Node4&#45;&gt;Node5</title>
<path fill="none" stroke="#63b8ff" d="M634.53,-127.25C633.96,-116.81 634.26,-104.99 635.45,-96.04"/>
<polygon fill="#63b8ff" stroke="#63b8ff" points="631.07,-127.79 635.45,-137.44 638.04,-127.16 631.07,-127.79"/>
</g>
<!-- Node7 -->
<g id="node7" class="node">
<title>Node7</title>
<g id="a_node7"><a xlink:href="server_8cpp.html" target="_top" xlink:title="Setup and start BluetoothLE server.">
<polygon fill="white" stroke="#666666" points="850,-96 730,-96 730,-66 850,-66 850,-96"/>
<text text-anchor="start" x="738" y="-84" font-family="Helvetica,sans-Serif" font-size="10.00">firmware/wombat/src</text>
<text text-anchor="middle" x="790" y="-73" font-family="Helvetica,sans-Serif" font-size="10.00">/bluetooth/server.cpp</text>
</a>
</g>
</g>
<!-- Node4&#45;&gt;Node7 -->
<g id="edge7" class="edge">
<title>Node4&#45;&gt;Node7</title>
<path fill="none" stroke="#63b8ff" d="M680.34,-133.15C705.25,-121.53 736.98,-106.73 759.89,-96.04"/>
<polygon fill="#63b8ff" stroke="#63b8ff" points="678.74,-130.04 671.15,-137.44 681.69,-136.38 678.74,-130.04"/>
</g>
<!-- Node5&#45;&gt;Node4 -->
<g id="edge5" class="edge">
<title>Node5&#45;&gt;Node4</title>
<path fill="none" stroke="#63b8ff" d="M647.47,-106.23C648.04,-116.66 647.74,-128.49 646.55,-137.44"/>
<polygon fill="#63b8ff" stroke="#63b8ff" points="650.93,-105.69 646.55,-96.04 643.96,-106.32 650.93,-105.69"/>
</g>
<!-- Node6 -->
<g id="node6" class="node">
<title>Node6</title>
<g id="a_node6"><a xlink:href="uart_8cpp.html" target="_top" xlink:title="BluetoothLE UART service setup and handling.">
<polygon fill="white" stroke="#666666" points="701,-30 581,-30 581,0 701,0 701,-30"/>
<text text-anchor="start" x="589" y="-18" font-family="Helvetica,sans-Serif" font-size="10.00">firmware/wombat/src</text>
<text text-anchor="middle" x="641" y="-7" font-family="Helvetica,sans-Serif" font-size="10.00">/bluetooth/uart.cpp</text>
</a>
</g>
</g>
<!-- Node5&#45;&gt;Node6 -->
<g id="edge6" class="edge">
<title>Node5&#45;&gt;Node6</title>
<path fill="none" stroke="#63b8ff" d="M641,-55.54C641,-46.96 641,-37.61 641,-30.16"/>
<polygon fill="#63b8ff" stroke="#63b8ff" points="637.5,-55.8 641,-65.8 644.5,-55.8 637.5,-55.8"/>
</g>
<!-- Node17&#45;&gt;Node3 -->
<g id="edge18" class="edge">
<title>Node17&#45;&gt;Node3</title>
<path fill="none" stroke="#63b8ff" d="M406.77,-288.89C457.82,-275.6 528.64,-257.16 576.94,-244.58"/>
<polygon fill="#63b8ff" stroke="#63b8ff" points="405.63,-285.57 396.83,-291.48 407.39,-292.35 405.63,-285.57"/>
</g>
<!-- Node18 -->
<g id="node18" class="node">
<title>Node18</title>
<g id="a_node18"><a xlink:href="config__cli_8cpp.html" target="_top" xlink:title="Command line interface node configuration commands.">
<polygon fill="white" stroke="#666666" points="397.5,-250 264.5,-250 264.5,-209 397.5,-209 397.5,-250"/>
<text text-anchor="start" x="272.5" y="-238" font-family="Helvetica,sans-Serif" font-size="10.00">firmware/wombat/src</text>
<text text-anchor="start" x="272.5" y="-227" font-family="Helvetica,sans-Serif" font-size="10.00">/cli/device_config/config</text>
<text text-anchor="middle" x="331" y="-216" font-family="Helvetica,sans-Serif" font-size="10.00">_cli.cpp</text>
</a>
</g>
</g>
<!-- Node17&#45;&gt;Node18 -->
<g id="edge19" class="edge">
<title>Node17&#45;&gt;Node18</title>
<path fill="none" stroke="#63b8ff" d="M339.12,-281.23C337.51,-271.2 335.67,-259.71 334.15,-250.2"/>
<polygon fill="#63b8ff" stroke="#63b8ff" points="335.71,-282.07 340.74,-291.39 342.62,-280.97 335.71,-282.07"/>
</g>
<!-- Node19&#45;&gt;Node3 -->
<g id="edge21" class="edge">
<title>Node19&#45;&gt;Node3</title>
<path fill="none" stroke="#63b8ff" d="M665.92,-282.88C657.6,-270.41 647.54,-255.32 640.36,-244.54"/>
<polygon fill="#63b8ff" stroke="#63b8ff" points="663.14,-285.01 671.6,-291.39 668.96,-281.13 663.14,-285.01"/>
</g>
<!-- Node19&#45;&gt;Node15 -->
<g id="edge22" class="edge">
<title>Node19&#45;&gt;Node15</title>
<path fill="none" stroke="#63b8ff" d="M735.06,-288.39C776.94,-275.14 834.26,-257 873.52,-244.58"/>
<polygon fill="#63b8ff" stroke="#63b8ff" points="733.78,-285.13 725.3,-291.48 735.89,-291.8 733.78,-285.13"/>
</g>
<!-- Node20 -->
<g id="node20" class="node">
<title>Node20</title>
<g id="a_node20"><a xlink:href="ftp__cli_8cpp.html" target="_top" xlink:title="FTP setup and configuration through the CLI.">
<polygon fill="white" stroke="#666666" points="840,-250 720,-250 720,-209 840,-209 840,-250"/>
<text text-anchor="start" x="728" y="-238" font-family="Helvetica,sans-Serif" font-size="10.00">firmware/wombat/src</text>
<text text-anchor="start" x="728" y="-227" font-family="Helvetica,sans-Serif" font-size="10.00">/cli/device_config/ftp</text>
<text text-anchor="middle" x="780" y="-216" font-family="Helvetica,sans-Serif" font-size="10.00">_cli.cpp</text>
</a>
</g>
</g>
<!-- Node19&#45;&gt;Node20 -->
<g id="edge23" class="edge">
<title>Node19&#45;&gt;Node20</title>
<path fill="none" stroke="#63b8ff" d="M707.66,-285.31C722.04,-274.41 739.71,-261.02 753.99,-250.2"/>
<polygon fill="#63b8ff" stroke="#63b8ff" points="705.48,-282.56 699.62,-291.39 709.71,-288.14 705.48,-282.56"/>
</g>
<!-- Node21&#45;&gt;Node3 -->
<g id="edge25" class="edge">
<title>Node21&#45;&gt;Node3</title>
<path fill="none" stroke="#63b8ff" d="M546.05,-285.9C565.95,-272.93 591.58,-256.21 609.47,-244.54"/>
<polygon fill="#63b8ff" stroke="#63b8ff" points="544.09,-283 537.63,-291.39 547.92,-288.86 544.09,-283"/>
</g>
<!-- Node21&#45;&gt;Node15 -->
<g id="edge26" class="edge">
<title>Node21&#45;&gt;Node15</title>
<path fill="none" stroke="#63b8ff" d="M584.44,-289.29C590.03,-288.12 595.61,-287.01 601,-286 710.48,-265.53 740.06,-273.19 849,-250 856.31,-248.44 863.98,-246.55 871.44,-244.55"/>
<polygon fill="#63b8ff" stroke="#63b8ff" points="583.44,-285.93 574.4,-291.45 584.91,-292.77 583.44,-285.93"/>
</g>
<!-- Node22 -->
<g id="node22" class="node">
<title>Node22</title>
<g id="a_node22"><a xlink:href="mqtt__cli_8cpp.html" target="_top" xlink:title="MQTT setup and configuration through the CLI.">
<polygon fill="white" stroke="#666666" points="542.5,-250 415.5,-250 415.5,-209 542.5,-209 542.5,-250"/>
<text text-anchor="start" x="423.5" y="-238" font-family="Helvetica,sans-Serif" font-size="10.00">firmware/wombat/src</text>
<text text-anchor="start" x="423.5" y="-227" font-family="Helvetica,sans-Serif" font-size="10.00">/cli/device_config/mqtt</text>
<text text-anchor="middle" x="479" y="-216" font-family="Helvetica,sans-Serif" font-size="10.00">_cli.cpp</text>
</a>
</g>
</g>
<!-- Node21&#45;&gt;Node22 -->
<g id="edge27" class="edge">
<title>Node21&#45;&gt;Node22</title>
<path fill="none" stroke="#63b8ff" d="M504.5,-282.19C499.44,-271.93 493.56,-260.01 488.72,-250.2"/>
<polygon fill="#63b8ff" stroke="#63b8ff" points="501.48,-283.97 509.04,-291.39 507.76,-280.88 501.48,-283.97"/>
</g>
</g>
</svg>
