<?xml version="1.0" encoding="UTF-8" standalone="no"?>
<!DOCTYPE svg PUBLIC "-//W3C//DTD SVG 1.1//EN"
 "http://www.w3.org/Graphics/SVG/1.1/DTD/svg11.dtd">
<!-- Generated by graphviz version 2.43.0 (0)
 -->
<!-- Title: firmware/wombat/src/DeviceConfig.cpp Pages: 1 -->
<svg width="880pt" height="335pt"
 viewBox="0.00 0.00 880.00 335.00" xmlns="http://www.w3.org/2000/svg" xmlns:xlink="http://www.w3.org/1999/xlink">
<g id="graph0" class="graph" transform="scale(1 1) rotate(0) translate(4 331)">
<title>firmware/wombat/src/DeviceConfig.cpp</title>
<!-- Node1 -->
<g id="node1" class="node">
<title>Node1</title>
<g id="a_node1"><a xlink:title=" ">
<polygon fill="#999999" stroke="#666666" points="361.5,-327 241.5,-327 241.5,-297 361.5,-297 361.5,-327"/>
<text text-anchor="start" x="249.5" y="-315" font-family="Helvetica,sans-Serif" font-size="10.00">firmware/wombat/src</text>
<text text-anchor="middle" x="301.5" y="-304" font-family="Helvetica,sans-Serif" font-size="10.00">/DeviceConfig.cpp</text>
</a>
</g>
</g>
<!-- Node2 -->
<g id="node2" class="node">
<title>Node2</title>
<g id="a_node2"><a xlink:href="_device_config_8h.html" target="_top" xlink:title="Node configuration options.">
<polygon fill="white" stroke="#666666" points="395.5,-195 305.5,-195 305.5,-176 395.5,-176 395.5,-195"/>
<text text-anchor="middle" x="350.5" y="-183" font-family="Helvetica,sans-Serif" font-size="10.00">DeviceConfig.h</text>
</a>
</g>
</g>
<!-- Node1&#45;&gt;Node2 -->
<g id="edge1" class="edge">
<title>Node1&#45;&gt;Node2</title>
<path fill="none" stroke="#63b8ff" d="M308.51,-296.72C313.27,-286.8 319.57,-273.23 324.5,-261 332.09,-242.19 339.6,-220.22 344.58,-205.03"/>
<polygon fill="#63b8ff" stroke="#63b8ff" points="347.97,-205.91 347.72,-195.32 341.31,-203.75 347.97,-205.91"/>
</g>
<!-- Node5 -->
<g id="node5" class="node">
<title>Node5</title>
<g id="a_node5"><a xlink:title=" ">
<polygon fill="#e0e0e0" stroke="#999999" points="118.5,-255.5 60.5,-255.5 60.5,-236.5 118.5,-236.5 118.5,-255.5"/>
<text text-anchor="middle" x="89.5" y="-243.5" font-family="Helvetica,sans-Serif" font-size="10.00">SPIFFS.h</text>
</a>
</g>
</g>
<!-- Node1&#45;&gt;Node5 -->
<g id="edge4" class="edge">
<title>Node1&#45;&gt;Node5</title>
<path fill="none" stroke="#63b8ff" d="M248.66,-296.9C214.01,-287.39 167.83,-274.2 127.5,-261 125.6,-260.38 123.64,-259.72 121.68,-259.04"/>
<polygon fill="#63b8ff" stroke="#63b8ff" points="122.5,-255.62 111.91,-255.57 120.16,-262.21 122.5,-255.62"/>
</g>
<!-- Node6 -->
<g id="node6" class="node">
<title>Node6</title>
<g id="a_node6"><a xlink:href="_utils_8h.html" target="_top" xlink:title=" ">
<polygon fill="white" stroke="#666666" points="184.5,-255.5 136.5,-255.5 136.5,-236.5 184.5,-236.5 184.5,-255.5"/>
<text text-anchor="middle" x="160.5" y="-243.5" font-family="Helvetica,sans-Serif" font-size="10.00">Utils.h</text>
</a>
</g>
</g>
<!-- Node1&#45;&gt;Node6 -->
<g id="edge5" class="edge">
<title>Node1&#45;&gt;Node6</title>
<path fill="none" stroke="#63b8ff" d="M270.56,-296.95C246.05,-285.83 212.11,-270.42 188.42,-259.67"/>
<polygon fill="#63b8ff" stroke="#63b8ff" points="189.82,-256.46 179.26,-255.52 186.92,-262.84 189.82,-256.46"/>
</g>
<!-- Node9 -->
<g id="node9" class="node">
<title>Node9</title>
<g id="a_node9"><a xlink:href="globals_8h.html" target="_top" xlink:title=" ">
<polygon fill="white" stroke="#666666" points="63,-195 2,-195 2,-176 63,-176 63,-195"/>
<text text-anchor="middle" x="32.5" y="-183" font-family="Helvetica,sans-Serif" font-size="10.00">globals.h</text>
</a>
</g>
</g>
<!-- Node1&#45;&gt;Node9 -->
<g id="edge27" class="edge">
<title>Node1&#45;&gt;Node9</title>
<path fill="none" stroke="#63b8ff" d="M241.29,-306.27C176.23,-299.93 78.27,-286.4 51.5,-261 36.55,-246.82 32.72,-222.65 32.04,-205.69"/>
<polygon fill="#63b8ff" stroke="#63b8ff" points="35.54,-205.3 31.97,-195.32 28.54,-205.34 35.54,-205.3"/>
</g>
<!-- Node14 -->
<g id="node14" class="node">
<title>Node14</title>
<g id="a_node14"><a xlink:title=" ">
<polygon fill="#e0e0e0" stroke="#999999" points="555,-195 448,-195 448,-176 555,-176 555,-195"/>
<text text-anchor="middle" x="501.5" y="-183" font-family="Helvetica,sans-Serif" font-size="10.00">cli/FreeRTOS_CLI.h</text>
</a>
</g>
</g>
<!-- Node1&#45;&gt;Node14 -->
<g id="edge16" class="edge">
<title>Node1&#45;&gt;Node14</title>
<path fill="none" stroke="#63b8ff" d="M361.5,-304.46C415.11,-297.22 487.83,-283.52 505.5,-261 517.83,-245.28 513.85,-221.47 508.74,-205.01"/>
<polygon fill="#63b8ff" stroke="#63b8ff" points="511.99,-203.7 505.38,-195.42 505.38,-206.02 511.99,-203.7"/>
</g>
<!-- Node15 -->
<g id="node15" class="node">
<title>Node15</title>
<g id="a_node15"><a xlink:href="acquisition__intervals_8h.html" target="_top" xlink:title="Handles the time between measurements and uplinks by the device over LTE.">
<polygon fill="white" stroke="#666666" points="706.5,-261 552.5,-261 552.5,-231 706.5,-231 706.5,-261"/>
<text text-anchor="start" x="560.5" y="-249" font-family="Helvetica,sans-Serif" font-size="10.00">cli/device_config/acquisition</text>
<text text-anchor="middle" x="629.5" y="-238" font-family="Helvetica,sans-Serif" font-size="10.00">_intervals.h</text>
</a>
</g>
</g>
<!-- Node1&#45;&gt;Node15 -->
<g id="edge17" class="edge">
<title>Node1&#45;&gt;Node15</title>
<path fill="none" stroke="#63b8ff" d="M361.66,-299.26C413.93,-289.06 490.12,-274.2 547.88,-262.93"/>
<polygon fill="#63b8ff" stroke="#63b8ff" points="548.57,-266.36 557.72,-261.01 547.23,-259.49 548.57,-266.36"/>
</g>
<!-- Node19 -->
<g id="node19" class="node">
<title>Node19</title>
<g id="a_node19"><a xlink:href="mqtt__cli_8h.html" target="_top" xlink:title="MQTT setup and configuration through the CLI.">
<polygon fill="white" stroke="#666666" points="496.5,-261 372.5,-261 372.5,-231 496.5,-231 496.5,-261"/>
<text text-anchor="start" x="380.5" y="-249" font-family="Helvetica,sans-Serif" font-size="10.00">cli/device_config/mqtt</text>
<text text-anchor="middle" x="434.5" y="-238" font-family="Helvetica,sans-Serif" font-size="10.00">_cli.h</text>
</a>
</g>
</g>
<!-- Node1&#45;&gt;Node19 -->
<g id="edge23" class="edge">
<title>Node1&#45;&gt;Node19</title>
<path fill="none" stroke="#63b8ff" d="M330.69,-296.95C349.92,-287.7 375.3,-275.49 396.16,-265.45"/>
<polygon fill="#63b8ff" stroke="#63b8ff" points="397.89,-268.5 405.38,-261.01 394.85,-262.19 397.89,-268.5"/>
</g>
<!-- Node20 -->
<g id="node20" class="node">
<title>Node20</title>
<g id="a_node20"><a xlink:href="ftp__cli_8h.html" target="_top" xlink:title="FTP setup and configuration through the CLI.">
<polygon fill="white" stroke="#666666" points="316,-261 203,-261 203,-231 316,-231 316,-261"/>
<text text-anchor="start" x="211" y="-249" font-family="Helvetica,sans-Serif" font-size="10.00">cli/device_config/ftp</text>
<text text-anchor="middle" x="259.5" y="-238" font-family="Helvetica,sans-Serif" font-size="10.00">_cli.h</text>
</a>
</g>
</g>
<!-- Node1&#45;&gt;Node20 -->
<g id="edge25" class="edge">
<title>Node1&#45;&gt;Node20</title>
<path fill="none" stroke="#63b8ff" d="M292.18,-296.8C286.96,-288.84 280.33,-278.74 274.4,-269.71"/>
<polygon fill="#63b8ff" stroke="#63b8ff" points="277.21,-267.6 268.8,-261.16 271.36,-271.44 277.21,-267.6"/>
</g>
<!-- Node3 -->
<g id="node3" class="node">
<title>Node3</title>
<g id="a_node3"><a xlink:title=" ">
<polygon fill="#e0e0e0" stroke="#999999" points="274,-19 211,-19 211,0 274,0 274,-19"/>
<text text-anchor="middle" x="242.5" y="-7" font-family="Helvetica,sans-Serif" font-size="10.00">Arduino.h</text>
</a>
</g>
</g>
<!-- Node2&#45;&gt;Node3 -->
<g id="edge2" class="edge">
<title>Node2&#45;&gt;Node3</title>
<path fill="none" stroke="#63b8ff" d="M349.16,-175.77C346.69,-161.37 340.52,-132.01 328.5,-110 310.21,-76.51 279.15,-44.34 259.78,-26.04"/>
<polygon fill="#63b8ff" stroke="#63b8ff" points="261.99,-23.31 252.27,-19.08 257.23,-28.45 261.99,-23.31"/>
</g>
<!-- Node4 -->
<g id="node4" class="node">
<title>Node4</title>
<g id="a_node4"><a xlink:title=" ">
<polygon fill="#e0e0e0" stroke="#999999" points="320,-134.5 237,-134.5 237,-115.5 320,-115.5 320,-134.5"/>
<text text-anchor="middle" x="278.5" y="-122.5" font-family="Helvetica,sans-Serif" font-size="10.00">ArduinoJson.h</text>
</a>
</g>
</g>
<!-- Node2&#45;&gt;Node4 -->
<g id="edge3" class="edge">
<title>Node2&#45;&gt;Node4</title>
<path fill="none" stroke="#63b8ff" d="M339.88,-175.87C328.6,-166.71 310.58,-152.06 296.97,-141.01"/>
<polygon fill="#63b8ff" stroke="#63b8ff" points="299.14,-138.26 289.17,-134.67 294.72,-143.69 299.14,-138.26"/>
</g>
<!-- Node6&#45;&gt;Node4 -->
<g id="edge7" class="edge">
<title>Node6&#45;&gt;Node4</title>
<path fill="none" stroke="#63b8ff" d="M179.18,-236.34C205.79,-223.85 252.01,-201.58 257.5,-195 269.39,-180.75 274.55,-159.87 276.79,-144.81"/>
<polygon fill="#63b8ff" stroke="#63b8ff" points="280.29,-144.99 277.99,-134.64 273.34,-144.16 280.29,-144.99"/>
</g>
<!-- Node7 -->
<g id="node7" class="node">
<title>Node7</title>
<g id="a_node7"><a xlink:title=" ">
<polygon fill="#e0e0e0" stroke="#999999" points="137.5,-195 81.5,-195 81.5,-176 137.5,-176 137.5,-195"/>
<text text-anchor="middle" x="109.5" y="-183" font-family="Helvetica,sans-Serif" font-size="10.00">stddef.h</text>
</a>
</g>
</g>
<!-- Node6&#45;&gt;Node7 -->
<g id="edge6" class="edge">
<title>Node6&#45;&gt;Node7</title>
<path fill="none" stroke="#63b8ff" d="M152.97,-236.37C145.29,-227.55 133.18,-213.66 123.69,-202.77"/>
<polygon fill="#63b8ff" stroke="#63b8ff" points="126.27,-200.41 117.06,-195.17 120.99,-205.01 126.27,-200.41"/>
</g>
<!-- Node8 -->
<g id="node8" class="node">
<title>Node8</title>
<g id="a_node8"><a xlink:title=" ">
<polygon fill="#e0e0e0" stroke="#999999" points="249,-195 156,-195 156,-176 249,-176 249,-195"/>
<text text-anchor="middle" x="202.5" y="-183" font-family="Helvetica,sans-Serif" font-size="10.00">dpiclimate&#45;12.h</text>
</a>
</g>
</g>
<!-- Node6&#45;&gt;Node8 -->
<g id="edge8" class="edge">
<title>Node6&#45;&gt;Node8</title>
<path fill="none" stroke="#63b8ff" d="M166.7,-236.37C172.9,-227.73 182.61,-214.2 190.36,-203.42"/>
<polygon fill="#63b8ff" stroke="#63b8ff" points="193.29,-205.33 196.28,-195.17 187.6,-201.25 193.29,-205.33"/>
</g>
<!-- Node6&#45;&gt;Node9 -->
<g id="edge9" class="edge">
<title>Node6&#45;&gt;Node9</title>
<path fill="none" stroke="#63b8ff" d="M141.89,-236.49C120.46,-226.7 85.06,-210.52 60.35,-199.23"/>
<polygon fill="#63b8ff" stroke="#63b8ff" points="61.68,-195.99 51.13,-195.02 58.78,-202.36 61.68,-195.99"/>
</g>
<!-- Node10 -->
<g id="node10" class="node">
<title>Node10</title>
<g id="a_node10"><a xlink:title=" ">
<polygon fill="#e0e0e0" stroke="#999999" points="213.5,-140 83.5,-140 83.5,-110 213.5,-110 213.5,-140"/>
<text text-anchor="start" x="91.5" y="-128" font-family="Helvetica,sans-Serif" font-size="10.00">SparkFun_u&#45;blox_SARA</text>
<text text-anchor="middle" x="148.5" y="-117" font-family="Helvetica,sans-Serif" font-size="10.00">&#45;R5_Arduino_Library.h</text>
</a>
</g>
</g>
<!-- Node9&#45;&gt;Node10 -->
<g id="edge10" class="edge">
<title>Node9&#45;&gt;Node10</title>
<path fill="none" stroke="#63b8ff" d="M49.62,-175.87C65.79,-167.71 90.6,-155.2 111.32,-144.75"/>
<polygon fill="#63b8ff" stroke="#63b8ff" points="113.16,-147.74 120.51,-140.11 110.01,-141.49 113.16,-147.74"/>
</g>
<!-- Node11 -->
<g id="node11" class="node">
<title>Node11</title>
<g id="a_node11"><a xlink:href="_c_a_t___m1_8h.html" target="_top" xlink:title=" ">
<polygon fill="white" stroke="#666666" points="65,-134.5 0,-134.5 0,-115.5 65,-115.5 65,-134.5"/>
<text text-anchor="middle" x="32.5" y="-122.5" font-family="Helvetica,sans-Serif" font-size="10.00">CAT_M1.h</text>
</a>
</g>
</g>
<!-- Node9&#45;&gt;Node11 -->
<g id="edge11" class="edge">
<title>Node9&#45;&gt;Node11</title>
<path fill="none" stroke="#63b8ff" d="M32.5,-175.87C32.5,-167.75 32.5,-155.31 32.5,-144.89"/>
<polygon fill="#63b8ff" stroke="#63b8ff" points="36,-144.67 32.5,-134.67 29,-144.67 36,-144.67"/>
</g>
<!-- Node12 -->
<g id="node12" class="node">
<title>Node12</title>
<g id="a_node12"><a xlink:title=" ">
<polygon fill="#e0e0e0" stroke="#999999" points="87.5,-19 39.5,-19 39.5,0 87.5,0 87.5,-19"/>
<text text-anchor="middle" x="63.5" y="-7" font-family="Helvetica,sans-Serif" font-size="10.00">Wire.h</text>
</a>
</g>
</g>
<!-- Node11&#45;&gt;Node12 -->
<g id="edge12" class="edge">
<title>Node11&#45;&gt;Node12</title>
<path fill="none" stroke="#63b8ff" d="M34.83,-115.47C39.83,-97.15 51.71,-53.68 58.5,-28.81"/>
<polygon fill="#63b8ff" stroke="#63b8ff" points="61.88,-29.7 61.14,-19.13 55.13,-27.85 61.88,-29.7"/>
</g>
<!-- Node13 -->
<g id="node13" class="node">
<title>Node13</title>
<g id="a_node13"><a xlink:href="_t_c_a9534_8h.html" target="_top" xlink:title=" ">
<polygon fill="white" stroke="#666666" points="128.5,-74 60.5,-74 60.5,-55 128.5,-55 128.5,-74"/>
<text text-anchor="middle" x="94.5" y="-62" font-family="Helvetica,sans-Serif" font-size="10.00">TCA9534.h</text>
</a>
</g>
</g>
<!-- Node11&#45;&gt;Node13 -->
<g id="edge13" class="edge">
<title>Node11&#45;&gt;Node13</title>
<path fill="none" stroke="#63b8ff" d="M41.65,-115.37C51.17,-106.38 66.3,-92.11 77.93,-81.14"/>
<polygon fill="#63b8ff" stroke="#63b8ff" points="80.44,-83.58 85.31,-74.17 75.64,-78.48 80.44,-83.58"/>
</g>
<!-- Node13&#45;&gt;Node3 -->
<g id="edge14" class="edge">
<title>Node13&#45;&gt;Node3</title>
<path fill="none" stroke="#63b8ff" d="M118.28,-54.98C142.73,-46.23 181.03,-32.51 208.65,-22.62"/>
<polygon fill="#63b8ff" stroke="#63b8ff" points="210.05,-25.84 218.29,-19.17 207.69,-19.25 210.05,-25.84"/>
</g>
<!-- Node13&#45;&gt;Node12 -->
<g id="edge15" class="edge">
<title>Node13&#45;&gt;Node12</title>
<path fill="none" stroke="#63b8ff" d="M89.38,-54.75C85.14,-47.49 78.97,-36.95 73.72,-27.98"/>
<polygon fill="#63b8ff" stroke="#63b8ff" points="76.59,-25.95 68.52,-19.09 70.55,-29.49 76.59,-25.95"/>
</g>
<!-- Node15&#45;&gt;Node2 -->
<g id="edge22" class="edge">
<title>Node15&#45;&gt;Node2</title>
<path fill="none" stroke="#63b8ff" d="M562.67,-230.99C513.06,-220.59 446.44,-206.62 401.18,-197.13"/>
<polygon fill="#63b8ff" stroke="#63b8ff" points="401.8,-193.68 391.29,-195.05 400.36,-200.53 401.8,-193.68"/>
</g>
<!-- Node15&#45;&gt;Node14 -->
<g id="edge21" class="edge">
<title>Node15&#45;&gt;Node14</title>
<path fill="none" stroke="#63b8ff" d="M598.84,-230.99C577.77,-221.36 550.01,-208.67 529.53,-199.31"/>
<polygon fill="#63b8ff" stroke="#63b8ff" points="530.95,-196.11 520.4,-195.14 528.04,-202.48 530.95,-196.11"/>
</g>
<!-- Node16 -->
<g id="node16" class="node">
<title>Node16</title>
<g id="a_node16"><a xlink:title=" ">
<polygon fill="#e0e0e0" stroke="#999999" points="686,-195 573,-195 573,-176 686,-176 686,-195"/>
<text text-anchor="middle" x="629.5" y="-183" font-family="Helvetica,sans-Serif" font-size="10.00">freertos/FreeRTOS.h</text>
</a>
</g>
</g>
<!-- Node15&#45;&gt;Node16 -->
<g id="edge18" class="edge">
<title>Node15&#45;&gt;Node16</title>
<path fill="none" stroke="#63b8ff" d="M629.5,-230.84C629.5,-223.21 629.5,-213.7 629.5,-205.45"/>
<polygon fill="#63b8ff" stroke="#63b8ff" points="633,-205.27 629.5,-195.27 626,-205.27 633,-205.27"/>
</g>
<!-- Node17 -->
<g id="node17" class="node">
<title>Node17</title>
<g id="a_node17"><a xlink:title=" ">
<polygon fill="#e0e0e0" stroke="#999999" points="765,-195 704,-195 704,-176 765,-176 765,-195"/>
<text text-anchor="middle" x="734.5" y="-183" font-family="Helvetica,sans-Serif" font-size="10.00">Stream.h</text>
</a>
</g>
</g>
<!-- Node15&#45;&gt;Node17 -->
<g id="edge19" class="edge">
<title>Node15&#45;&gt;Node17</title>
<path fill="none" stroke="#63b8ff" d="M654.65,-230.99C671.39,-221.66 693.27,-209.47 709.89,-200.21"/>
<polygon fill="#63b8ff" stroke="#63b8ff" points="711.96,-203.06 718.99,-195.14 708.55,-196.95 711.96,-203.06"/>
</g>
<!-- Node18 -->
<g id="node18" class="node">
<title>Node18</title>
<g id="a_node18"><a xlink:title=" ">
<polygon fill="#e0e0e0" stroke="#999999" points="872,-195 783,-195 783,-176 872,-176 872,-195"/>
<text text-anchor="middle" x="827.5" y="-183" font-family="Helvetica,sans-Serif" font-size="10.00">StreamString.h</text>
</a>
</g>
</g>
<!-- Node15&#45;&gt;Node18 -->
<g id="edge20" class="edge">
<title>Node15&#45;&gt;Node18</title>
<path fill="none" stroke="#63b8ff" d="M676.93,-230.99C711.1,-220.89 756.64,-207.44 788.66,-197.98"/>
<polygon fill="#63b8ff" stroke="#63b8ff" points="789.95,-201.24 798.55,-195.05 787.97,-194.53 789.95,-201.24"/>
</g>
<!-- Node19&#45;&gt;Node2 -->
<g id="edge24" class="edge">
<title>Node19&#45;&gt;Node2</title>
<path fill="none" stroke="#63b8ff" d="M414.17,-230.84C401.23,-221.83 384.51,-210.18 371.45,-201.09"/>
<polygon fill="#63b8ff" stroke="#63b8ff" points="373.29,-198.11 363.09,-195.27 369.29,-203.85 373.29,-198.11"/>
</g>
<!-- Node20&#45;&gt;Node2 -->
<g id="edge26" class="edge">
<title>Node20&#45;&gt;Node2</title>
<path fill="none" stroke="#63b8ff" d="M281.53,-230.84C295.77,-221.68 314.23,-209.82 328.47,-200.66"/>
<polygon fill="#63b8ff" stroke="#63b8ff" points="330.61,-203.45 337.13,-195.09 326.83,-197.56 330.61,-203.45"/>
</g>
</g>
</svg>
