<?xml version="1.0" encoding="UTF-8" standalone="no"?>
<!DOCTYPE svg PUBLIC "-//W3C//DTD SVG 1.1//EN"
 "http://www.w3.org/Graphics/SVG/1.1/DTD/svg11.dtd">
<!-- Generated by graphviz version 2.43.0 (0)
 -->
<!-- Title: firmware/wombat/include/DeviceConfig.h Pages: 1 -->
<svg width="1522pt" height="390pt"
 viewBox="0.00 0.00 1521.50 390.00" xmlns="http://www.w3.org/2000/svg" xmlns:xlink="http://www.w3.org/1999/xlink">
<g id="graph0" class="graph" transform="scale(1 1) rotate(0) translate(4 386)">
<title>firmware/wombat/include/DeviceConfig.h</title>
<!-- Node1 -->
<g id="node1" class="node">
<title>Node1</title>
<g id="a_node1"><a xlink:title=" ">
<polygon fill="#999999" stroke="#666666" points="832,-382 691,-382 691,-352 832,-352 832,-382"/>
<text text-anchor="start" x="699" y="-370" font-family="Helvetica,sans-Serif" font-size="10.00">firmware/wombat/include</text>
<text text-anchor="middle" x="761.5" y="-359" font-family="Helvetica,sans-Serif" font-size="10.00">/DeviceConfig.h</text>
</a>
</g>
</g>
<!-- Node2 -->
<g id="node2" class="node">
<title>Node2</title>
<g id="a_node2"><a xlink:href="acquisition__intervals_8h.html" target="_top" xlink:title="Handles the time between measurements and uplinks by the device over LTE.">
<polygon fill="white" stroke="#666666" points="645,-316 488,-316 488,-275 645,-275 645,-316"/>
<text text-anchor="start" x="496" y="-304" font-family="Helvetica,sans-Serif" font-size="10.00">firmware/wombat/include</text>
<text text-anchor="start" x="496" y="-293" font-family="Helvetica,sans-Serif" font-size="10.00">/cli/device_config/acquisition</text>
<text text-anchor="middle" x="566.5" y="-282" font-family="Helvetica,sans-Serif" font-size="10.00">_intervals.h</text>
</a>
</g>
</g>
<!-- Node1&#45;&gt;Node2 -->
<g id="edge1" class="edge">
<title>Node1&#45;&gt;Node2</title>
<path fill="none" stroke="#63b8ff" d="M712.55,-348.55C684.82,-338.67 650.07,-326.28 621.42,-316.07"/>
<polygon fill="#63b8ff" stroke="#63b8ff" points="711.44,-351.88 722.04,-351.94 713.79,-345.28 711.44,-351.88"/>
</g>
<!-- Node11 -->
<g id="node11" class="node">
<title>Node11</title>
<g id="a_node11"><a xlink:href="main_8cpp.html" target="_top" xlink:title=" ">
<polygon fill="white" stroke="#666666" points="129.5,-162 9.5,-162 9.5,-132 129.5,-132 129.5,-162"/>
<text text-anchor="start" x="17.5" y="-150" font-family="Helvetica,sans-Serif" font-size="10.00">firmware/wombat/src</text>
<text text-anchor="middle" x="69.5" y="-139" font-family="Helvetica,sans-Serif" font-size="10.00">/main.cpp</text>
</a>
</g>
</g>
<!-- Node1&#45;&gt;Node11 -->
<g id="edge26" class="edge">
<title>Node1&#45;&gt;Node11</title>
<path fill="none" stroke="#63b8ff" d="M680.51,-363.72C521.05,-358.63 177.86,-344.48 132.5,-316 78.81,-282.29 70.67,-196.02 69.59,-162.05"/>
<polygon fill="#63b8ff" stroke="#63b8ff" points="680.64,-367.22 690.74,-364.04 680.86,-360.23 680.64,-367.22"/>
</g>
<!-- Node12 -->
<g id="node12" class="node">
<title>Node12</title>
<g id="a_node12"><a xlink:href="_device_config_8cpp.html" target="_top" xlink:title=" ">
<polygon fill="white" stroke="#666666" points="672.5,-233.5 552.5,-233.5 552.5,-203.5 672.5,-203.5 672.5,-233.5"/>
<text text-anchor="start" x="560.5" y="-221.5" font-family="Helvetica,sans-Serif" font-size="10.00">firmware/wombat/src</text>
<text text-anchor="middle" x="612.5" y="-210.5" font-family="Helvetica,sans-Serif" font-size="10.00">/DeviceConfig.cpp</text>
</a>
</g>
</g>
<!-- Node1&#45;&gt;Node12 -->
<g id="edge22" class="edge">
<title>Node1&#45;&gt;Node12</title>
<path fill="none" stroke="#63b8ff" d="M730.97,-346.35C718.49,-337.7 704.25,-327.01 692.5,-316 664.23,-289.52 636.6,-253.21 622.38,-233.54"/>
<polygon fill="#63b8ff" stroke="#63b8ff" points="729.04,-349.27 739.28,-351.99 732.97,-343.48 729.04,-349.27"/>
</g>
<!-- Node14 -->
<g id="node14" class="node">
<title>Node14</title>
<g id="a_node14"><a xlink:href="config__cli_8h.html" target="_top" xlink:title=" ">
<polygon fill="white" stroke="#666666" points="299.5,-310.5 141.5,-310.5 141.5,-280.5 299.5,-280.5 299.5,-310.5"/>
<text text-anchor="start" x="149.5" y="-298.5" font-family="Helvetica,sans-Serif" font-size="10.00">firmware/wombat/include</text>
<text text-anchor="middle" x="220.5" y="-287.5" font-family="Helvetica,sans-Serif" font-size="10.00">/cli/device_config/config_cli.h</text>
</a>
</g>
</g>
<!-- Node1&#45;&gt;Node14 -->
<g id="edge15" class="edge">
<title>Node1&#45;&gt;Node14</title>
<path fill="none" stroke="#63b8ff" d="M680.71,-359.74C589.83,-352.08 437.97,-337.43 308.5,-316 299.24,-314.47 289.48,-312.58 279.97,-310.59"/>
<polygon fill="#63b8ff" stroke="#63b8ff" points="680.69,-363.25 690.95,-360.59 681.27,-356.27 680.69,-363.25"/>
</g>
<!-- Node16 -->
<g id="node16" class="node">
<title>Node16</title>
<g id="a_node16"><a xlink:href="mqtt__cli_8h.html" target="_top" xlink:title=" ">
<polygon fill="white" stroke="#666666" points="469.5,-310.5 317.5,-310.5 317.5,-280.5 469.5,-280.5 469.5,-310.5"/>
<text text-anchor="start" x="325.5" y="-298.5" font-family="Helvetica,sans-Serif" font-size="10.00">firmware/wombat/include</text>
<text text-anchor="middle" x="393.5" y="-287.5" font-family="Helvetica,sans-Serif" font-size="10.00">/cli/device_config/mqtt_cli.h</text>
</a>
</g>
</g>
<!-- Node1&#45;&gt;Node16 -->
<g id="edge18" class="edge">
<title>Node1&#45;&gt;Node16</title>
<path fill="none" stroke="#63b8ff" d="M680.97,-352.77C624.46,-343.23 547.2,-329.67 479.5,-316 471.1,-314.3 462.25,-312.42 453.57,-310.5"/>
<polygon fill="#63b8ff" stroke="#63b8ff" points="680.48,-356.23 690.92,-354.44 681.64,-349.33 680.48,-356.23"/>
</g>
<!-- Node18 -->
<g id="node18" class="node">
<title>Node18</title>
<g id="a_node18"><a xlink:href="_sensor_task_8cpp.html" target="_top" xlink:title=" ">
<polygon fill="white" stroke="#666666" points="821.5,-310.5 701.5,-310.5 701.5,-280.5 821.5,-280.5 821.5,-310.5"/>
<text text-anchor="start" x="709.5" y="-298.5" font-family="Helvetica,sans-Serif" font-size="10.00">firmware/wombat/src</text>
<text text-anchor="middle" x="761.5" y="-287.5" font-family="Helvetica,sans-Serif" font-size="10.00">/SensorTask.cpp</text>
</a>
</g>
</g>
<!-- Node1&#45;&gt;Node18 -->
<g id="edge23" class="edge">
<title>Node1&#45;&gt;Node18</title>
<path fill="none" stroke="#63b8ff" d="M761.5,-341.75C761.5,-331.31 761.5,-319.49 761.5,-310.54"/>
<polygon fill="#63b8ff" stroke="#63b8ff" points="758,-341.94 761.5,-351.94 765,-341.94 758,-341.94"/>
</g>
<!-- Node19 -->
<g id="node19" class="node">
<title>Node19</title>
<g id="a_node19"><a xlink:href="_utils_8cpp.html" target="_top" xlink:title=" ">
<polygon fill="white" stroke="#666666" points="959.5,-310.5 839.5,-310.5 839.5,-280.5 959.5,-280.5 959.5,-310.5"/>
<text text-anchor="start" x="847.5" y="-298.5" font-family="Helvetica,sans-Serif" font-size="10.00">firmware/wombat/src</text>
<text text-anchor="middle" x="899.5" y="-287.5" font-family="Helvetica,sans-Serif" font-size="10.00">/Utils.cpp</text>
</a>
</g>
</g>
<!-- Node1&#45;&gt;Node19 -->
<g id="edge24" class="edge">
<title>Node1&#45;&gt;Node19</title>
<path fill="none" stroke="#63b8ff" d="M798.54,-347.34C821.53,-335.77 850.58,-321.14 871.62,-310.54"/>
<polygon fill="#63b8ff" stroke="#63b8ff" points="796.78,-344.31 789.43,-351.94 799.93,-350.56 796.78,-344.31"/>
</g>
<!-- Node20 -->
<g id="node20" class="node">
<title>Node20</title>
<g id="a_node20"><a xlink:href="device_8cpp.html" target="_top" xlink:title="Setup BluetoothLE device information services and characteristics.">
<polygon fill="white" stroke="#666666" points="1099.5,-310.5 977.5,-310.5 977.5,-280.5 1099.5,-280.5 1099.5,-310.5"/>
<text text-anchor="start" x="985.5" y="-298.5" font-family="Helvetica,sans-Serif" font-size="10.00">firmware/wombat/src</text>
<text text-anchor="middle" x="1038.5" y="-287.5" font-family="Helvetica,sans-Serif" font-size="10.00">/bluetooth/device.cpp</text>
</a>
</g>
</g>
<!-- Node1&#45;&gt;Node20 -->
<g id="edge25" class="edge">
<title>Node1&#45;&gt;Node20</title>
<path fill="none" stroke="#63b8ff" d="M831.83,-349.65C871.95,-340.16 923.14,-327.79 968.5,-316 975.09,-314.29 982.02,-312.43 988.85,-310.56"/>
<polygon fill="#63b8ff" stroke="#63b8ff" points="830.8,-346.3 821.87,-352 832.41,-353.11 830.8,-346.3"/>
</g>
<!-- Node21 -->
<g id="node21" class="node">
<title>Node21</title>
<g id="a_node21"><a xlink:href="mqtt__stack_8cpp.html" target="_top" xlink:title=" ">
<polygon fill="white" stroke="#666666" points="1237.5,-310.5 1117.5,-310.5 1117.5,-280.5 1237.5,-280.5 1237.5,-310.5"/>
<text text-anchor="start" x="1125.5" y="-298.5" font-family="Helvetica,sans-Serif" font-size="10.00">firmware/wombat/src</text>
<text text-anchor="middle" x="1177.5" y="-287.5" font-family="Helvetica,sans-Serif" font-size="10.00">/mqtt_stack.cpp</text>
</a>
</g>
</g>
<!-- Node1&#45;&gt;Node21 -->
<g id="edge27" class="edge">
<title>Node1&#45;&gt;Node21</title>
<path fill="none" stroke="#63b8ff" d="M842.27,-357.43C912.94,-349.2 1018.13,-335.19 1108.5,-316 1115.81,-314.45 1123.48,-312.55 1130.94,-310.56"/>
<polygon fill="#63b8ff" stroke="#63b8ff" points="841.63,-353.98 832.1,-358.6 842.43,-360.93 841.63,-353.98"/>
</g>
<!-- Node22 -->
<g id="node22" class="node">
<title>Node22</title>
<g id="a_node22"><a xlink:href="ulp_8cpp.html" target="_top" xlink:title=" ">
<polygon fill="white" stroke="#666666" points="1375.5,-310.5 1255.5,-310.5 1255.5,-280.5 1375.5,-280.5 1375.5,-310.5"/>
<text text-anchor="start" x="1263.5" y="-298.5" font-family="Helvetica,sans-Serif" font-size="10.00">firmware/wombat/src</text>
<text text-anchor="middle" x="1315.5" y="-287.5" font-family="Helvetica,sans-Serif" font-size="10.00">/ulp.cpp</text>
</a>
</g>
</g>
<!-- Node1&#45;&gt;Node22 -->
<g id="edge28" class="edge">
<title>Node1&#45;&gt;Node22</title>
<path fill="none" stroke="#63b8ff" d="M842.34,-361.94C939.12,-356.11 1105.78,-342.93 1246.5,-316 1254.2,-314.53 1262.29,-312.6 1270.11,-310.52"/>
<polygon fill="#63b8ff" stroke="#63b8ff" points="842.11,-358.45 832.33,-362.54 842.52,-365.44 842.11,-358.45"/>
</g>
<!-- Node23 -->
<g id="node23" class="node">
<title>Node23</title>
<g id="a_node23"><a xlink:href="uplinks_8cpp.html" target="_top" xlink:title=" ">
<polygon fill="white" stroke="#666666" points="1513.5,-310.5 1393.5,-310.5 1393.5,-280.5 1513.5,-280.5 1513.5,-310.5"/>
<text text-anchor="start" x="1401.5" y="-298.5" font-family="Helvetica,sans-Serif" font-size="10.00">firmware/wombat/src</text>
<text text-anchor="middle" x="1453.5" y="-287.5" font-family="Helvetica,sans-Serif" font-size="10.00">/uplinks.cpp</text>
</a>
</g>
</g>
<!-- Node1&#45;&gt;Node23 -->
<g id="edge29" class="edge">
<title>Node1&#45;&gt;Node23</title>
<path fill="none" stroke="#63b8ff" d="M842.3,-364.54C961.73,-361.25 1192,-350.58 1384.5,-316 1392.34,-314.59 1400.57,-312.67 1408.51,-310.58"/>
<polygon fill="#63b8ff" stroke="#63b8ff" points="842.05,-361.05 832.15,-364.81 842.24,-368.04 842.05,-361.05"/>
</g>
<!-- Node3 -->
<g id="node3" class="node">
<title>Node3</title>
<g id="a_node3"><a xlink:href="_c_l_i_8h.html" target="_top" xlink:title=" ">
<polygon fill="white" stroke="#666666" points="389,-233.5 248,-233.5 248,-203.5 389,-203.5 389,-233.5"/>
<text text-anchor="start" x="256" y="-221.5" font-family="Helvetica,sans-Serif" font-size="10.00">firmware/wombat/include</text>
<text text-anchor="middle" x="318.5" y="-210.5" font-family="Helvetica,sans-Serif" font-size="10.00">/cli/CLI.h</text>
</a>
</g>
</g>
<!-- Node2&#45;&gt;Node3 -->
<g id="edge2" class="edge">
<title>Node2&#45;&gt;Node3</title>
<path fill="none" stroke="#63b8ff" d="M492.24,-272.04C450.95,-259.56 400.84,-244.4 365.07,-233.58"/>
<polygon fill="#63b8ff" stroke="#63b8ff" points="491.4,-275.45 501.99,-274.99 493.43,-268.75 491.4,-275.45"/>
</g>
<!-- Node2&#45;&gt;Node12 -->
<g id="edge13" class="edge">
<title>Node2&#45;&gt;Node12</title>
<path fill="none" stroke="#63b8ff" d="M583.82,-266.26C590.6,-255.21 598.07,-243.02 603.69,-233.86"/>
<polygon fill="#63b8ff" stroke="#63b8ff" points="580.83,-264.44 578.59,-274.79 586.8,-268.1 580.83,-264.44"/>
</g>
<!-- Node13 -->
<g id="node13" class="node">
<title>Node13</title>
<g id="a_node13"><a xlink:href="acquisition__intervals_8cpp.html" target="_top" xlink:title="Handles the time between measurements and uplinks by the device over LTE.">
<polygon fill="white" stroke="#666666" points="848,-239 691,-239 691,-198 848,-198 848,-239"/>
<text text-anchor="start" x="699" y="-227" font-family="Helvetica,sans-Serif" font-size="10.00">firmware/wombat/src</text>
<text text-anchor="start" x="699" y="-216" font-family="Helvetica,sans-Serif" font-size="10.00">/cli/device_config/acquisition</text>
<text text-anchor="middle" x="769.5" y="-205" font-family="Helvetica,sans-Serif" font-size="10.00">_intervals.cpp</text>
</a>
</g>
</g>
<!-- Node2&#45;&gt;Node13 -->
<g id="edge14" class="edge">
<title>Node2&#45;&gt;Node13</title>
<path fill="none" stroke="#63b8ff" d="M629.01,-271.4C657.06,-261.04 689.8,-248.95 716.61,-239.04"/>
<polygon fill="#63b8ff" stroke="#63b8ff" points="627.47,-268.24 619.31,-274.99 629.9,-274.81 627.47,-268.24"/>
</g>
<!-- Node4 -->
<g id="node4" class="node">
<title>Node4</title>
<g id="a_node4"><a xlink:href="server_8h.html" target="_top" xlink:title="Handle the setup and maintenance of the BLE server and connected clients.">
<polygon fill="white" stroke="#666666" points="290,-162 149,-162 149,-132 290,-132 290,-162"/>
<text text-anchor="start" x="157" y="-150" font-family="Helvetica,sans-Serif" font-size="10.00">firmware/wombat/include</text>
<text text-anchor="middle" x="219.5" y="-139" font-family="Helvetica,sans-Serif" font-size="10.00">/bluetooth/server.h</text>
</a>
</g>
</g>
<!-- Node3&#45;&gt;Node4 -->
<g id="edge3" class="edge">
<title>Node3&#45;&gt;Node4</title>
<path fill="none" stroke="#63b8ff" d="M289.93,-197.44C273.78,-186.1 253.99,-172.21 239.5,-162.04"/>
<polygon fill="#63b8ff" stroke="#63b8ff" points="288.27,-200.55 298.47,-203.44 292.29,-194.83 288.27,-200.55"/>
</g>
<!-- Node10 -->
<g id="node10" class="node">
<title>Node10</title>
<g id="a_node10"><a xlink:href="_c_l_i_8cpp.html" target="_top" xlink:title=" ">
<polygon fill="white" stroke="#666666" points="466.5,-162 346.5,-162 346.5,-132 466.5,-132 466.5,-162"/>
<text text-anchor="start" x="354.5" y="-150" font-family="Helvetica,sans-Serif" font-size="10.00">firmware/wombat/src</text>
<text text-anchor="middle" x="406.5" y="-139" font-family="Helvetica,sans-Serif" font-size="10.00">/cli/CLI.cpp</text>
</a>
</g>
</g>
<!-- Node3&#45;&gt;Node10 -->
<g id="edge11" class="edge">
<title>Node3&#45;&gt;Node10</title>
<path fill="none" stroke="#63b8ff" d="M344.3,-197.13C358.58,-185.85 375.96,-172.12 388.72,-162.04"/>
<polygon fill="#63b8ff" stroke="#63b8ff" points="341.99,-194.49 336.31,-203.44 346.33,-199.98 341.99,-194.49"/>
</g>
<!-- Node3&#45;&gt;Node11 -->
<g id="edge12" class="edge">
<title>Node3&#45;&gt;Node11</title>
<path fill="none" stroke="#63b8ff" d="M258.47,-200.74C216.06,-188.91 159.87,-173.22 119.81,-162.04"/>
<polygon fill="#63b8ff" stroke="#63b8ff" points="257.54,-204.12 268.11,-203.44 259.42,-197.38 257.54,-204.12"/>
</g>
<!-- Node5 -->
<g id="node5" class="node">
<title>Node5</title>
<g id="a_node5"><a xlink:href="uart_8h.html" target="_top" xlink:title="BluetoothLE UART service setup and handling.">
<polygon fill="white" stroke="#666666" points="141,-96 0,-96 0,-66 141,-66 141,-96"/>
<text text-anchor="start" x="8" y="-84" font-family="Helvetica,sans-Serif" font-size="10.00">firmware/wombat/include</text>
<text text-anchor="middle" x="70.5" y="-73" font-family="Helvetica,sans-Serif" font-size="10.00">/bluetooth/uart.h</text>
</a>
</g>
</g>
<!-- Node4&#45;&gt;Node5 -->
<g id="edge4" class="edge">
<title>Node4&#45;&gt;Node5</title>
<path fill="none" stroke="#63b8ff" d="M171.58,-128.05C147.03,-117.91 118.1,-105.43 97.43,-96.01"/>
<polygon fill="#63b8ff" stroke="#63b8ff" points="170.52,-131.4 181.1,-131.95 173.18,-124.92 170.52,-131.4"/>
</g>
<!-- Node7 -->
<g id="node7" class="node">
<title>Node7</title>
<g id="a_node7"><a xlink:href="bluetooth_8h.html" target="_top" xlink:title=" ">
<polygon fill="white" stroke="#666666" points="445,-96 298,-96 298,-66 445,-66 445,-96"/>
<text text-anchor="start" x="306" y="-84" font-family="Helvetica,sans-Serif" font-size="10.00">firmware/wombat/include</text>
<text text-anchor="middle" x="371.5" y="-73" font-family="Helvetica,sans-Serif" font-size="10.00">/cli/peripherals/bluetooth.h</text>
</a>
</g>
</g>
<!-- Node4&#45;&gt;Node7 -->
<g id="edge7" class="edge">
<title>Node4&#45;&gt;Node7</title>
<path fill="none" stroke="#63b8ff" d="M262.12,-128.05C286.2,-117.91 315.86,-105.43 338.22,-96.01"/>
<polygon fill="#63b8ff" stroke="#63b8ff" points="260.72,-124.85 252.86,-131.95 263.43,-131.3 260.72,-124.85"/>
</g>
<!-- Node9 -->
<g id="node9" class="node">
<title>Node9</title>
<g id="a_node9"><a xlink:href="server_8cpp.html" target="_top" xlink:title="Setup and start BluetoothLE server.">
<polygon fill="white" stroke="#666666" points="279.5,-96 159.5,-96 159.5,-66 279.5,-66 279.5,-96"/>
<text text-anchor="start" x="167.5" y="-84" font-family="Helvetica,sans-Serif" font-size="10.00">firmware/wombat/src</text>
<text text-anchor="middle" x="219.5" y="-73" font-family="Helvetica,sans-Serif" font-size="10.00">/bluetooth/server.cpp</text>
</a>
</g>
</g>
<!-- Node4&#45;&gt;Node9 -->
<g id="edge10" class="edge">
<title>Node4&#45;&gt;Node9</title>
<path fill="none" stroke="#63b8ff" d="M219.5,-121.54C219.5,-112.96 219.5,-103.61 219.5,-96.16"/>
<polygon fill="#63b8ff" stroke="#63b8ff" points="216,-121.8 219.5,-131.8 223,-121.8 216,-121.8"/>
</g>
<!-- Node5&#45;&gt;Node4 -->
<g id="edge5" class="edge">
<title>Node5&#45;&gt;Node4</title>
<path fill="none" stroke="#63b8ff" d="M118.33,-99.91C142.87,-110.04 171.81,-122.53 192.5,-131.95"/>
<polygon fill="#63b8ff" stroke="#63b8ff" points="119.4,-96.57 108.82,-96.01 116.74,-103.04 119.4,-96.57"/>
</g>
<!-- Node6 -->
<g id="node6" class="node">
<title>Node6</title>
<g id="a_node6"><a xlink:href="uart_8cpp.html" target="_top" xlink:title="BluetoothLE UART service setup and handling.">
<polygon fill="white" stroke="#666666" points="130.5,-30 10.5,-30 10.5,0 130.5,0 130.5,-30"/>
<text text-anchor="start" x="18.5" y="-18" font-family="Helvetica,sans-Serif" font-size="10.00">firmware/wombat/src</text>
<text text-anchor="middle" x="70.5" y="-7" font-family="Helvetica,sans-Serif" font-size="10.00">/bluetooth/uart.cpp</text>
</a>
</g>
</g>
<!-- Node5&#45;&gt;Node6 -->
<g id="edge6" class="edge">
<title>Node5&#45;&gt;Node6</title>
<path fill="none" stroke="#63b8ff" d="M70.5,-55.54C70.5,-46.96 70.5,-37.61 70.5,-30.16"/>
<polygon fill="#63b8ff" stroke="#63b8ff" points="67,-55.8 70.5,-65.8 74,-55.8 67,-55.8"/>
</g>
<!-- Node7&#45;&gt;Node3 -->
<g id="edge8" class="edge">
<title>Node7&#45;&gt;Node3</title>
<path fill="none" stroke="#63b8ff" d="M353.82,-104.1C347.88,-112.44 341.7,-122.27 337.5,-132 327.18,-155.87 322.17,-186 319.98,-203.38"/>
<polygon fill="#63b8ff" stroke="#63b8ff" points="356.67,-106.13 359.82,-96.02 351.05,-101.96 356.67,-106.13"/>
</g>
<!-- Node8 -->
<g id="node8" class="node">
<title>Node8</title>
<g id="a_node8"><a xlink:href="bluetooth_8cpp.html" target="_top" xlink:title=" ">
<polygon fill="white" stroke="#666666" points="450.5,-30 292.5,-30 292.5,0 450.5,0 450.5,-30"/>
<text text-anchor="start" x="300.5" y="-18" font-family="Helvetica,sans-Serif" font-size="10.00">firmware/wombat/src</text>
<text text-anchor="middle" x="371.5" y="-7" font-family="Helvetica,sans-Serif" font-size="10.00">/cli/peripherals/bluetooth.cpp</text>
</a>
</g>
</g>
<!-- Node7&#45;&gt;Node8 -->
<g id="edge9" class="edge">
<title>Node7&#45;&gt;Node8</title>
<path fill="none" stroke="#63b8ff" d="M371.5,-55.54C371.5,-46.96 371.5,-37.61 371.5,-30.16"/>
<polygon fill="#63b8ff" stroke="#63b8ff" points="368,-55.8 371.5,-65.8 375,-55.8 368,-55.8"/>
</g>
<!-- Node14&#45;&gt;Node3 -->
<g id="edge16" class="edge">
<title>Node14&#45;&gt;Node3</title>
<path fill="none" stroke="#63b8ff" d="M247.25,-274.03C264.04,-261.18 285.25,-244.94 300.15,-233.54"/>
<polygon fill="#63b8ff" stroke="#63b8ff" points="244.75,-271.54 238.93,-280.39 249,-277.09 244.75,-271.54"/>
</g>
<!-- Node15 -->
<g id="node15" class="node">
<title>Node15</title>
<g id="a_node15"><a xlink:href="config__cli_8cpp.html" target="_top" xlink:title=" ">
<polygon fill="white" stroke="#666666" points="230,-239 97,-239 97,-198 230,-198 230,-239"/>
<text text-anchor="start" x="105" y="-227" font-family="Helvetica,sans-Serif" font-size="10.00">firmware/wombat/src</text>
<text text-anchor="start" x="105" y="-216" font-family="Helvetica,sans-Serif" font-size="10.00">/cli/device_config/config</text>
<text text-anchor="middle" x="163.5" y="-205" font-family="Helvetica,sans-Serif" font-size="10.00">_cli.cpp</text>
</a>
</g>
</g>
<!-- Node14&#45;&gt;Node15 -->
<g id="edge17" class="edge">
<title>Node14&#45;&gt;Node15</title>
<path fill="none" stroke="#63b8ff" d="M203.5,-272.14C195.55,-261.67 186.16,-249.31 178.47,-239.2"/>
<polygon fill="#63b8ff" stroke="#63b8ff" points="200.94,-274.55 209.78,-280.39 206.51,-270.31 200.94,-274.55"/>
</g>
<!-- Node16&#45;&gt;Node3 -->
<g id="edge19" class="edge">
<title>Node16&#45;&gt;Node3</title>
<path fill="none" stroke="#63b8ff" d="M372.32,-273.32C359.58,-260.58 343.74,-244.74 332.54,-233.54"/>
<polygon fill="#63b8ff" stroke="#63b8ff" points="369.85,-275.8 379.39,-280.39 374.8,-270.85 369.85,-275.8"/>
</g>
<!-- Node16&#45;&gt;Node12 -->
<g id="edge20" class="edge">
<title>Node16&#45;&gt;Node12</title>
<path fill="none" stroke="#63b8ff" d="M443.94,-277.22C482.6,-263.99 535.28,-245.95 571.39,-233.58"/>
<polygon fill="#63b8ff" stroke="#63b8ff" points="442.76,-273.93 434.44,-280.48 445.03,-280.55 442.76,-273.93"/>
</g>
<!-- Node17 -->
<g id="node17" class="node">
<title>Node17</title>
<g id="a_node17"><a xlink:href="mqtt__cli_8cpp.html" target="_top" xlink:title=" ">
<polygon fill="white" stroke="#666666" points="534,-239 407,-239 407,-198 534,-198 534,-239"/>
<text text-anchor="start" x="415" y="-227" font-family="Helvetica,sans-Serif" font-size="10.00">firmware/wombat/src</text>
<text text-anchor="start" x="415" y="-216" font-family="Helvetica,sans-Serif" font-size="10.00">/cli/device_config/mqtt</text>
<text text-anchor="middle" x="470.5" y="-205" font-family="Helvetica,sans-Serif" font-size="10.00">_cli.cpp</text>
</a>
</g>
</g>
<!-- Node16&#45;&gt;Node17 -->
<g id="edge21" class="edge">
<title>Node16&#45;&gt;Node17</title>
<path fill="none" stroke="#63b8ff" d="M415.18,-273.38C426.19,-262.66 439.48,-249.72 450.27,-239.2"/>
<polygon fill="#63b8ff" stroke="#63b8ff" points="412.7,-270.91 407.98,-280.39 417.59,-275.92 412.7,-270.91"/>
</g>
</g>
</svg>
