<?xml version="1.0" encoding="UTF-8" standalone="no"?>
<!DOCTYPE svg PUBLIC "-//W3C//DTD SVG 1.1//EN"
 "http://www.w3.org/Graphics/SVG/1.1/DTD/svg11.dtd">
<!-- Generated by graphviz version 2.43.0 (0)
 -->
<!-- Title: firmware/wombat/src/DeviceConfig.cpp Pages: 1 -->
<svg width="980pt" height="280pt"
 viewBox="0.00 0.00 980.42 280.00" xmlns="http://www.w3.org/2000/svg" xmlns:xlink="http://www.w3.org/1999/xlink">
<g id="graph0" class="graph" transform="scale(1 1) rotate(0) translate(4 276)">
<title>firmware/wombat/src/DeviceConfig.cpp</title>
<!-- Node1 -->
<g id="node1" class="node">
<title>Node1</title>
<g id="a_node1"><a xlink:title=" ">
<polygon fill="#999999" stroke="#666666" points="380.92,-272 260.92,-272 260.92,-242 380.92,-242 380.92,-272"/>
<text text-anchor="start" x="268.92" y="-260" font-family="Helvetica,sans-Serif" font-size="10.00">firmware/wombat/src</text>
<text text-anchor="middle" x="320.92" y="-249" font-family="Helvetica,sans-Serif" font-size="10.00">/DeviceConfig.cpp</text>
</a>
</g>
</g>
<!-- Node2 -->
<g id="node2" class="node">
<title>Node2</title>
<g id="a_node2"><a xlink:href="_device_config_8h.html" target="_top" xlink:title="Node configuration options.">
<polygon fill="white" stroke="#666666" points="297.92,-134.5 207.92,-134.5 207.92,-115.5 297.92,-115.5 297.92,-134.5"/>
<text text-anchor="middle" x="252.92" y="-122.5" font-family="Helvetica,sans-Serif" font-size="10.00">DeviceConfig.h</text>
</a>
</g>
</g>
<!-- Node1&#45;&gt;Node2 -->
<g id="edge1" class="edge">
<title>Node1&#45;&gt;Node2</title>
<path fill="none" stroke="#63b8ff" d="M260.61,-250.13C231.79,-243.94 199.76,-231.39 181.92,-206 174.25,-195.09 175.78,-187.84 181.92,-176 190.43,-159.6 207.06,-147.44 222.09,-139.22"/>
<polygon fill="#63b8ff" stroke="#63b8ff" points="223.83,-142.27 231.16,-134.61 220.66,-136.03 223.83,-142.27"/>
</g>
<!-- Node5 -->
<g id="node5" class="node">
<title>Node5</title>
<g id="a_node5"><a xlink:title=" ">
<polygon fill="#e0e0e0" stroke="#999999" points="134.92,-200.5 76.92,-200.5 76.92,-181.5 134.92,-181.5 134.92,-200.5"/>
<text text-anchor="middle" x="105.92" y="-188.5" font-family="Helvetica,sans-Serif" font-size="10.00">SPIFFS.h</text>
</a>
</g>
</g>
<!-- Node1&#45;&gt;Node5 -->
<g id="edge4" class="edge">
<title>Node1&#45;&gt;Node5</title>
<path fill="none" stroke="#63b8ff" d="M271.12,-241.98C236.71,-232.18 189.93,-218.63 148.92,-206 146.49,-205.25 143.99,-204.47 141.47,-203.67"/>
<polygon fill="#63b8ff" stroke="#63b8ff" points="142.39,-200.29 131.8,-200.57 140.25,-206.96 142.39,-200.29"/>
</g>
<!-- Node6 -->
<g id="node6" class="node">
<title>Node6</title>
<g id="a_node6"><a xlink:href="_utils_8h.html" target="_top" xlink:title=" ">
<polygon fill="white" stroke="#666666" points="58.92,-200.5 10.92,-200.5 10.92,-181.5 58.92,-181.5 58.92,-200.5"/>
<text text-anchor="middle" x="34.92" y="-188.5" font-family="Helvetica,sans-Serif" font-size="10.00">Utils.h</text>
</a>
</g>
</g>
<!-- Node1&#45;&gt;Node6 -->
<g id="edge5" class="edge">
<title>Node1&#45;&gt;Node6</title>
<path fill="none" stroke="#63b8ff" d="M260.76,-247.69C208.95,-239.69 132.54,-225.86 67.92,-206 66.24,-205.48 64.53,-204.91 62.82,-204.3"/>
<polygon fill="#63b8ff" stroke="#63b8ff" points="63.76,-200.91 53.17,-200.53 61.21,-207.43 63.76,-200.91"/>
</g>
<!-- Node9 -->
<g id="node9" class="node">
<title>Node9</title>
<g id="a_node9"><a xlink:title=" ">
<polygon fill="#e0e0e0" stroke="#999999" points="423.42,-134.5 316.42,-134.5 316.42,-115.5 423.42,-115.5 423.42,-134.5"/>
<text text-anchor="middle" x="369.92" y="-122.5" font-family="Helvetica,sans-Serif" font-size="10.00">cli/FreeRTOS_CLI.h</text>
</a>
</g>
</g>
<!-- Node1&#45;&gt;Node9 -->
<g id="edge9" class="edge">
<title>Node1&#45;&gt;Node9</title>
<path fill="none" stroke="#63b8ff" d="M380.93,-249.34C408.56,-242.93 438.93,-230.41 455.92,-206 463.53,-195.06 462.57,-187.56 455.92,-176 445.74,-158.32 426.65,-146.31 409.03,-138.5"/>
<polygon fill="#63b8ff" stroke="#63b8ff" points="410.04,-135.13 399.46,-134.59 407.39,-141.61 410.04,-135.13"/>
</g>
<!-- Node10 -->
<g id="node10" class="node">
<title>Node10</title>
<g id="a_node10"><a xlink:href="acquisition__intervals_8h.html" target="_top" xlink:title="Handles the time between measurements and uplinks by the device over LTE.">
<polygon fill="white" stroke="#666666" points="656.92,-206 502.92,-206 502.92,-176 656.92,-176 656.92,-206"/>
<text text-anchor="start" x="510.92" y="-194" font-family="Helvetica,sans-Serif" font-size="10.00">cli/device_config/acquisition</text>
<text text-anchor="middle" x="579.92" y="-183" font-family="Helvetica,sans-Serif" font-size="10.00">_intervals.h</text>
</a>
</g>
</g>
<!-- Node1&#45;&gt;Node10 -->
<g id="edge10" class="edge">
<title>Node1&#45;&gt;Node10</title>
<path fill="none" stroke="#63b8ff" d="M377.76,-241.95C417.74,-232.08 471.37,-218.82 513.35,-208.45"/>
<polygon fill="#63b8ff" stroke="#63b8ff" points="514.34,-211.81 523.21,-206.01 512.66,-205.01 514.34,-211.81"/>
</g>
<!-- Node14 -->
<g id="node14" class="node">
<title>Node14</title>
<g id="a_node14"><a xlink:href="mqtt__cli_8h.html" target="_top" xlink:title="MQTT setup and configuration through the CLI.">
<polygon fill="white" stroke="#666666" points="314.92,-206 190.92,-206 190.92,-176 314.92,-176 314.92,-206"/>
<text text-anchor="start" x="198.92" y="-194" font-family="Helvetica,sans-Serif" font-size="10.00">cli/device_config/mqtt</text>
<text text-anchor="middle" x="252.92" y="-183" font-family="Helvetica,sans-Serif" font-size="10.00">_cli.h</text>
</a>
</g>
</g>
<!-- Node1&#45;&gt;Node14 -->
<g id="edge16" class="edge">
<title>Node1&#45;&gt;Node14</title>
<path fill="none" stroke="#63b8ff" d="M305.83,-241.8C296.85,-233.34 285.29,-222.46 275.26,-213.03"/>
<polygon fill="#63b8ff" stroke="#63b8ff" points="277.65,-210.47 267.97,-206.16 272.85,-215.57 277.65,-210.47"/>
</g>
<!-- Node15 -->
<g id="node15" class="node">
<title>Node15</title>
<g id="a_node15"><a xlink:href="ftp__cli_8h.html" target="_top" xlink:title="FTP setup and configuration through the CLI.">
<polygon fill="white" stroke="#666666" points="446.42,-206 333.42,-206 333.42,-176 446.42,-176 446.42,-206"/>
<text text-anchor="start" x="341.42" y="-194" font-family="Helvetica,sans-Serif" font-size="10.00">cli/device_config/ftp</text>
<text text-anchor="middle" x="389.92" y="-183" font-family="Helvetica,sans-Serif" font-size="10.00">_cli.h</text>
</a>
</g>
</g>
<!-- Node1&#45;&gt;Node15 -->
<g id="edge18" class="edge">
<title>Node1&#45;&gt;Node15</title>
<path fill="none" stroke="#63b8ff" d="M336.23,-241.8C345.34,-233.34 357.07,-222.46 367.24,-213.03"/>
<polygon fill="#63b8ff" stroke="#63b8ff" points="369.7,-215.53 374.65,-206.16 364.94,-210.4 369.7,-215.53"/>
</g>
<!-- Node16 -->
<g id="node16" class="node">
<title>Node16</title>
<g id="a_node16"><a xlink:href="globals_8h.html" target="_top" xlink:title=" ">
<polygon fill="white" stroke="#666666" points="854.42,-200.5 793.42,-200.5 793.42,-181.5 854.42,-181.5 854.42,-200.5"/>
<text text-anchor="middle" x="823.92" y="-188.5" font-family="Helvetica,sans-Serif" font-size="10.00">globals.h</text>
</a>
</g>
</g>
<!-- Node1&#45;&gt;Node16 -->
<g id="edge20" class="edge">
<title>Node1&#45;&gt;Node16</title>
<path fill="none" stroke="#63b8ff" d="M381.09,-248.34C484.83,-235.14 694.71,-208.44 783.15,-197.19"/>
<polygon fill="#63b8ff" stroke="#63b8ff" points="783.85,-200.63 793.32,-195.89 782.96,-193.68 783.85,-200.63"/>
</g>
<!-- Node3 -->
<g id="node3" class="node">
<title>Node3</title>
<g id="a_node3"><a xlink:title=" ">
<polygon fill="#e0e0e0" stroke="#999999" points="575.42,-19 512.42,-19 512.42,0 575.42,0 575.42,-19"/>
<text text-anchor="middle" x="543.92" y="-7" font-family="Helvetica,sans-Serif" font-size="10.00">Arduino.h</text>
</a>
</g>
</g>
<!-- Node2&#45;&gt;Node3 -->
<g id="edge2" class="edge">
<title>Node2&#45;&gt;Node3</title>
<path fill="none" stroke="#63b8ff" d="M274.79,-115.47C325.77,-95.59 452.66,-46.09 512.17,-22.88"/>
<polygon fill="#63b8ff" stroke="#63b8ff" points="513.75,-26.02 521.79,-19.13 511.2,-19.5 513.75,-26.02"/>
</g>
<!-- Node4 -->
<g id="node4" class="node">
<title>Node4</title>
<g id="a_node4"><a xlink:title=" ">
<polygon fill="#e0e0e0" stroke="#999999" points="212.42,-74 129.42,-74 129.42,-55 212.42,-55 212.42,-74"/>
<text text-anchor="middle" x="170.92" y="-62" font-family="Helvetica,sans-Serif" font-size="10.00">ArduinoJson.h</text>
</a>
</g>
</g>
<!-- Node2&#45;&gt;Node4 -->
<g id="edge3" class="edge">
<title>Node2&#45;&gt;Node4</title>
<path fill="none" stroke="#63b8ff" d="M240.82,-115.37C227.86,-106.12 207.06,-91.28 191.51,-80.19"/>
<polygon fill="#63b8ff" stroke="#63b8ff" points="193.24,-77.13 183.07,-74.17 189.18,-82.82 193.24,-77.13"/>
</g>
<!-- Node6&#45;&gt;Node4 -->
<g id="edge7" class="edge">
<title>Node6&#45;&gt;Node4</title>
<path fill="none" stroke="#63b8ff" d="M26.94,-181.48C13.35,-165.91 -11.24,-132.4 5.92,-110 19.74,-91.96 76.12,-79.57 119.17,-72.53"/>
<polygon fill="#63b8ff" stroke="#63b8ff" points="119.9,-75.96 129.23,-70.94 118.81,-69.05 119.9,-75.96"/>
</g>
<!-- Node7 -->
<g id="node7" class="node">
<title>Node7</title>
<g id="a_node7"><a xlink:title=" ">
<polygon fill="#e0e0e0" stroke="#999999" points="70.92,-134.5 14.92,-134.5 14.92,-115.5 70.92,-115.5 70.92,-134.5"/>
<text text-anchor="middle" x="42.92" y="-122.5" font-family="Helvetica,sans-Serif" font-size="10.00">stddef.h</text>
</a>
</g>
</g>
<!-- Node6&#45;&gt;Node7 -->
<g id="edge6" class="edge">
<title>Node6&#45;&gt;Node7</title>
<path fill="none" stroke="#63b8ff" d="M36,-181.37C37.16,-172.07 39.05,-156.98 40.56,-144.9"/>
<polygon fill="#63b8ff" stroke="#63b8ff" points="44.04,-145.26 41.8,-134.91 37.09,-144.39 44.04,-145.26"/>
</g>
<!-- Node8 -->
<g id="node8" class="node">
<title>Node8</title>
<g id="a_node8"><a xlink:title=" ">
<polygon fill="#e0e0e0" stroke="#999999" points="182.42,-134.5 89.42,-134.5 89.42,-115.5 182.42,-115.5 182.42,-134.5"/>
<text text-anchor="middle" x="135.92" y="-122.5" font-family="Helvetica,sans-Serif" font-size="10.00">dpiclimate&#45;12.h</text>
</a>
</g>
</g>
<!-- Node6&#45;&gt;Node8 -->
<g id="edge8" class="edge">
<title>Node6&#45;&gt;Node8</title>
<path fill="none" stroke="#63b8ff" d="M48.54,-181.37C65.26,-170.78 93.83,-152.67 113.73,-140.06"/>
<polygon fill="#63b8ff" stroke="#63b8ff" points="115.62,-143.01 122.19,-134.7 111.87,-137.1 115.62,-143.01"/>
</g>
<!-- Node10&#45;&gt;Node2 -->
<g id="edge15" class="edge">
<title>Node10&#45;&gt;Node2</title>
<path fill="none" stroke="#63b8ff" d="M502.85,-177.26C448.24,-167.88 373.35,-154.32 307.92,-140 303.58,-139.05 299.06,-138 294.56,-136.92"/>
<polygon fill="#63b8ff" stroke="#63b8ff" points="295.37,-133.51 284.82,-134.51 293.69,-140.31 295.37,-133.51"/>
</g>
<!-- Node10&#45;&gt;Node9 -->
<g id="edge14" class="edge">
<title>Node10&#45;&gt;Node9</title>
<path fill="none" stroke="#63b8ff" d="M533.83,-175.95C496.03,-164.43 443.17,-148.32 407.8,-137.54"/>
<polygon fill="#63b8ff" stroke="#63b8ff" points="408.45,-134.08 397.87,-134.52 406.41,-140.78 408.45,-134.08"/>
</g>
<!-- Node11 -->
<g id="node11" class="node">
<title>Node11</title>
<g id="a_node11"><a xlink:title=" ">
<polygon fill="#e0e0e0" stroke="#999999" points="554.42,-134.5 441.42,-134.5 441.42,-115.5 554.42,-115.5 554.42,-134.5"/>
<text text-anchor="middle" x="497.92" y="-122.5" font-family="Helvetica,sans-Serif" font-size="10.00">freertos/FreeRTOS.h</text>
</a>
</g>
</g>
<!-- Node10&#45;&gt;Node11 -->
<g id="edge11" class="edge">
<title>Node10&#45;&gt;Node11</title>
<path fill="none" stroke="#63b8ff" d="M561.72,-175.8C548.56,-165.53 530.8,-151.67 517.37,-141.18"/>
<polygon fill="#63b8ff" stroke="#63b8ff" points="519.29,-138.24 509.25,-134.84 514.98,-143.76 519.29,-138.24"/>
</g>
<!-- Node12 -->
<g id="node12" class="node">
<title>Node12</title>
<g id="a_node12"><a xlink:title=" ">
<polygon fill="#e0e0e0" stroke="#999999" points="633.42,-134.5 572.42,-134.5 572.42,-115.5 633.42,-115.5 633.42,-134.5"/>
<text text-anchor="middle" x="602.92" y="-122.5" font-family="Helvetica,sans-Serif" font-size="10.00">Stream.h</text>
</a>
</g>
</g>
<!-- Node10&#45;&gt;Node12 -->
<g id="edge12" class="edge">
<title>Node10&#45;&gt;Node12</title>
<path fill="none" stroke="#63b8ff" d="M585.02,-175.8C588.36,-166.5 592.76,-154.27 596.36,-144.26"/>
<polygon fill="#63b8ff" stroke="#63b8ff" points="599.65,-145.44 599.74,-134.84 593.06,-143.07 599.65,-145.44"/>
</g>
<!-- Node13 -->
<g id="node13" class="node">
<title>Node13</title>
<g id="a_node13"><a xlink:title=" ">
<polygon fill="#e0e0e0" stroke="#999999" points="740.42,-134.5 651.42,-134.5 651.42,-115.5 740.42,-115.5 740.42,-134.5"/>
<text text-anchor="middle" x="695.92" y="-122.5" font-family="Helvetica,sans-Serif" font-size="10.00">StreamString.h</text>
</a>
</g>
</g>
<!-- Node10&#45;&gt;Node13 -->
<g id="edge13" class="edge">
<title>Node10&#45;&gt;Node13</title>
<path fill="none" stroke="#63b8ff" d="M605.37,-175.95C625.09,-165.08 652.22,-150.11 671.64,-139.4"/>
<polygon fill="#63b8ff" stroke="#63b8ff" points="673.42,-142.41 680.48,-134.52 670.03,-136.28 673.42,-142.41"/>
</g>
<!-- Node14&#45;&gt;Node2 -->
<g id="edge17" class="edge">
<title>Node14&#45;&gt;Node2</title>
<path fill="none" stroke="#63b8ff" d="M252.92,-175.8C252.92,-166.7 252.92,-154.79 252.92,-144.9"/>
<polygon fill="#63b8ff" stroke="#63b8ff" points="256.42,-144.84 252.92,-134.84 249.42,-144.84 256.42,-144.84"/>
</g>
<!-- Node15&#45;&gt;Node2 -->
<g id="edge19" class="edge">
<title>Node15&#45;&gt;Node2</title>
<path fill="none" stroke="#63b8ff" d="M359.85,-175.95C336.14,-164.88 303.35,-149.56 280.35,-138.82"/>
<polygon fill="#63b8ff" stroke="#63b8ff" points="281.69,-135.58 271.15,-134.52 278.73,-141.92 281.69,-135.58"/>
</g>
<!-- Node17 -->
<g id="node17" class="node">
<title>Node17</title>
<g id="a_node17"><a xlink:title=" ">
<polygon fill="#e0e0e0" stroke="#999999" points="888.92,-140 758.92,-140 758.92,-110 888.92,-110 888.92,-140"/>
<text text-anchor="start" x="766.92" y="-128" font-family="Helvetica,sans-Serif" font-size="10.00">SparkFun_u&#45;blox_SARA</text>
<text text-anchor="middle" x="823.92" y="-117" font-family="Helvetica,sans-Serif" font-size="10.00">&#45;R5_Arduino_Library.h</text>
</a>
</g>
</g>
<!-- Node16&#45;&gt;Node17 -->
<g id="edge21" class="edge">
<title>Node16&#45;&gt;Node17</title>
<path fill="none" stroke="#63b8ff" d="M823.92,-181.37C823.92,-173.49 823.92,-161.45 823.92,-150.6"/>
<polygon fill="#63b8ff" stroke="#63b8ff" points="827.42,-150.36 823.92,-140.36 820.42,-150.36 827.42,-150.36"/>
</g>
<!-- Node18 -->
<g id="node18" class="node">
<title>Node18</title>
<g id="a_node18"><a xlink:href="_c_a_t___m1_8h.html" target="_top" xlink:title=" ">
<polygon fill="white" stroke="#666666" points="972.42,-134.5 907.42,-134.5 907.42,-115.5 972.42,-115.5 972.42,-134.5"/>
<text text-anchor="middle" x="939.92" y="-122.5" font-family="Helvetica,sans-Serif" font-size="10.00">CAT_M1.h</text>
</a>
</g>
</g>
<!-- Node16&#45;&gt;Node18 -->
<g id="edge22" class="edge">
<title>Node16&#45;&gt;Node18</title>
<path fill="none" stroke="#63b8ff" d="M839.56,-181.37C859.02,-170.63 892.46,-152.18 915.35,-139.55"/>
<polygon fill="#63b8ff" stroke="#63b8ff" points="917.09,-142.59 924.15,-134.7 913.7,-136.47 917.09,-142.59"/>
</g>
<!-- Node19 -->
<g id="node19" class="node">
<title>Node19</title>
<g id="a_node19"><a xlink:title=" ">
<polygon fill="#e0e0e0" stroke="#999999" points="932.92,-19 884.92,-19 884.92,0 932.92,0 932.92,-19"/>
<text text-anchor="middle" x="908.92" y="-7" font-family="Helvetica,sans-Serif" font-size="10.00">Wire.h</text>
</a>
</g>
</g>
<!-- Node18&#45;&gt;Node19 -->
<g id="edge23" class="edge">
<title>Node18&#45;&gt;Node19</title>
<path fill="none" stroke="#63b8ff" d="M937.59,-115.47C932.58,-97.15 920.71,-53.68 913.92,-28.81"/>
<polygon fill="#63b8ff" stroke="#63b8ff" points="917.29,-27.85 911.28,-19.13 910.53,-29.7 917.29,-27.85"/>
</g>
<!-- Node20 -->
<g id="node20" class="node">
<title>Node20</title>
<g id="a_node20"><a xlink:href="_t_c_a9534_8h.html" target="_top" xlink:title=" ">
<polygon fill="white" stroke="#666666" points="911.92,-74 843.92,-74 843.92,-55 911.92,-55 911.92,-74"/>
<text text-anchor="middle" x="877.92" y="-62" font-family="Helvetica,sans-Serif" font-size="10.00">TCA9534.h</text>
</a>
</g>
</g>
<!-- Node18&#45;&gt;Node20 -->
<g id="edge24" class="edge">
<title>Node18&#45;&gt;Node20</title>
<path fill="none" stroke="#63b8ff" d="M930.77,-115.37C921.25,-106.38 906.12,-92.11 894.49,-81.14"/>
<polygon fill="#63b8ff" stroke="#63b8ff" points="896.78,-78.48 887.1,-74.17 891.98,-83.58 896.78,-78.48"/>
</g>
<!-- Node20&#45;&gt;Node3 -->
<g id="edge25" class="edge">
<title>Node20&#45;&gt;Node3</title>
<path fill="none" stroke="#63b8ff" d="M843.74,-58.08C782.19,-48.31 652.91,-27.79 586.01,-17.18"/>
<polygon fill="#63b8ff" stroke="#63b8ff" points="586.26,-13.67 575.83,-15.56 585.16,-20.59 586.26,-13.67"/>
</g>
<!-- Node20&#45;&gt;Node19 -->
<g id="edge26" class="edge">
<title>Node20&#45;&gt;Node19</title>
<path fill="none" stroke="#63b8ff" d="M883.04,-54.75C887.28,-47.49 893.44,-36.95 898.69,-27.98"/>
<polygon fill="#63b8ff" stroke="#63b8ff" points="901.87,-29.49 903.89,-19.09 895.82,-25.95 901.87,-29.49"/>
</g>
</g>
</svg>
