<?xml version="1.0" encoding="UTF-8" standalone="no"?>
<!DOCTYPE svg PUBLIC "-//W3C//DTD SVG 1.1//EN"
 "http://www.w3.org/Graphics/SVG/1.1/DTD/svg11.dtd">
<!-- Generated by graphviz version 2.43.0 (0)
 -->
<!-- Title: firmware/wombat/include/DeviceConfig.h Pages: 1 -->
<svg width="1513pt" height="390pt"
 viewBox="0.00 0.00 1513.00 390.00" xmlns="http://www.w3.org/2000/svg" xmlns:xlink="http://www.w3.org/1999/xlink">
<g id="graph0" class="graph" transform="scale(1 1) rotate(0) translate(4 386)">
<title>firmware/wombat/include/DeviceConfig.h</title>
<!-- Node1 -->
<g id="node1" class="node">
<title>Node1</title>
<g id="a_node1"><a xlink:title="Node configuration options.">
<polygon fill="#999999" stroke="#666666" points="823.5,-382 682.5,-382 682.5,-352 823.5,-352 823.5,-382"/>
<text text-anchor="start" x="690.5" y="-370" font-family="Helvetica,sans-Serif" font-size="10.00">firmware/wombat/include</text>
<text text-anchor="middle" x="753" y="-359" font-family="Helvetica,sans-Serif" font-size="10.00">/DeviceConfig.h</text>
</a>
</g>
</g>
<!-- Node2 -->
<g id="node2" class="node">
<title>Node2</title>
<g id="a_node2"><a xlink:href="acquisition__intervals_8h.html" target="_top" xlink:title="Handles the time between measurements and uplinks by the device over LTE.">
<polygon fill="white" stroke="#666666" points="636.5,-316 479.5,-316 479.5,-275 636.5,-275 636.5,-316"/>
<text text-anchor="start" x="487.5" y="-304" font-family="Helvetica,sans-Serif" font-size="10.00">firmware/wombat/include</text>
<text text-anchor="start" x="487.5" y="-293" font-family="Helvetica,sans-Serif" font-size="10.00">/cli/device_config/acquisition</text>
<text text-anchor="middle" x="558" y="-282" font-family="Helvetica,sans-Serif" font-size="10.00">_intervals.h</text>
</a>
</g>
</g>
<!-- Node1&#45;&gt;Node2 -->
<g id="edge1" class="edge">
<title>Node1&#45;&gt;Node2</title>
<path fill="none" stroke="#63b8ff" d="M704.05,-348.55C676.32,-338.67 641.57,-326.28 612.92,-316.07"/>
<polygon fill="#63b8ff" stroke="#63b8ff" points="702.94,-351.88 713.54,-351.94 705.29,-345.28 702.94,-351.88"/>
</g>
<!-- Node9 -->
<g id="node9" class="node">
<title>Node9</title>
<g id="a_node9"><a xlink:href="main_8cpp.html" target="_top" xlink:title=" ">
<polygon fill="white" stroke="#666666" points="120,-162 0,-162 0,-132 120,-132 120,-162"/>
<text text-anchor="start" x="8" y="-150" font-family="Helvetica,sans-Serif" font-size="10.00">firmware/wombat/src</text>
<text text-anchor="middle" x="60" y="-139" font-family="Helvetica,sans-Serif" font-size="10.00">/main.cpp</text>
</a>
</g>
</g>
<!-- Node1&#45;&gt;Node9 -->
<g id="edge24" class="edge">
<title>Node1&#45;&gt;Node9</title>
<path fill="none" stroke="#63b8ff" d="M672.01,-363.72C512.55,-358.63 169.36,-344.48 124,-316 70.21,-282.23 61.49,-195.99 60.18,-162.04"/>
<polygon fill="#63b8ff" stroke="#63b8ff" points="672.14,-367.22 682.24,-364.04 672.36,-360.23 672.14,-367.22"/>
</g>
<!-- Node10 -->
<g id="node10" class="node">
<title>Node10</title>
<g id="a_node10"><a xlink:href="_device_config_8cpp.html" target="_top" xlink:title=" ">
<polygon fill="white" stroke="#666666" points="664,-233.5 544,-233.5 544,-203.5 664,-203.5 664,-233.5"/>
<text text-anchor="start" x="552" y="-221.5" font-family="Helvetica,sans-Serif" font-size="10.00">firmware/wombat/src</text>
<text text-anchor="middle" x="604" y="-210.5" font-family="Helvetica,sans-Serif" font-size="10.00">/DeviceConfig.cpp</text>
</a>
</g>
</g>
<!-- Node1&#45;&gt;Node10 -->
<g id="edge20" class="edge">
<title>Node1&#45;&gt;Node10</title>
<path fill="none" stroke="#63b8ff" d="M722.47,-346.35C709.99,-337.7 695.75,-327.01 684,-316 655.73,-289.52 628.1,-253.21 613.88,-233.54"/>
<polygon fill="#63b8ff" stroke="#63b8ff" points="720.54,-349.27 730.78,-351.99 724.47,-343.48 720.54,-349.27"/>
</g>
<!-- Node12 -->
<g id="node12" class="node">
<title>Node12</title>
<g id="a_node12"><a xlink:href="config__cli_8h.html" target="_top" xlink:title=" ">
<polygon fill="white" stroke="#666666" points="291,-310.5 133,-310.5 133,-280.5 291,-280.5 291,-310.5"/>
<text text-anchor="start" x="141" y="-298.5" font-family="Helvetica,sans-Serif" font-size="10.00">firmware/wombat/include</text>
<text text-anchor="middle" x="212" y="-287.5" font-family="Helvetica,sans-Serif" font-size="10.00">/cli/device_config/config_cli.h</text>
</a>
</g>
</g>
<!-- Node1&#45;&gt;Node12 -->
<g id="edge13" class="edge">
<title>Node1&#45;&gt;Node12</title>
<path fill="none" stroke="#63b8ff" d="M672.21,-359.74C581.33,-352.08 429.47,-337.43 300,-316 290.74,-314.47 280.98,-312.58 271.47,-310.59"/>
<polygon fill="#63b8ff" stroke="#63b8ff" points="672.19,-363.25 682.45,-360.59 672.77,-356.27 672.19,-363.25"/>
</g>
<!-- Node14 -->
<g id="node14" class="node">
<title>Node14</title>
<g id="a_node14"><a xlink:href="mqtt__cli_8h.html" target="_top" xlink:title="MQTT setup and configuration through the CLI.">
<polygon fill="white" stroke="#666666" points="461,-310.5 309,-310.5 309,-280.5 461,-280.5 461,-310.5"/>
<text text-anchor="start" x="317" y="-298.5" font-family="Helvetica,sans-Serif" font-size="10.00">firmware/wombat/include</text>
<text text-anchor="middle" x="385" y="-287.5" font-family="Helvetica,sans-Serif" font-size="10.00">/cli/device_config/mqtt_cli.h</text>
</a>
</g>
</g>
<!-- Node1&#45;&gt;Node14 -->
<g id="edge16" class="edge">
<title>Node1&#45;&gt;Node14</title>
<path fill="none" stroke="#63b8ff" d="M672.47,-352.77C615.96,-343.23 538.7,-329.67 471,-316 462.6,-314.3 453.75,-312.42 445.07,-310.5"/>
<polygon fill="#63b8ff" stroke="#63b8ff" points="671.98,-356.23 682.42,-354.44 673.14,-349.33 671.98,-356.23"/>
</g>
<!-- Node16 -->
<g id="node16" class="node">
<title>Node16</title>
<g id="a_node16"><a xlink:href="_sensor_task_8cpp.html" target="_top" xlink:title=" ">
<polygon fill="white" stroke="#666666" points="813,-310.5 693,-310.5 693,-280.5 813,-280.5 813,-310.5"/>
<text text-anchor="start" x="701" y="-298.5" font-family="Helvetica,sans-Serif" font-size="10.00">firmware/wombat/src</text>
<text text-anchor="middle" x="753" y="-287.5" font-family="Helvetica,sans-Serif" font-size="10.00">/SensorTask.cpp</text>
</a>
</g>
</g>
<!-- Node1&#45;&gt;Node16 -->
<g id="edge21" class="edge">
<title>Node1&#45;&gt;Node16</title>
<path fill="none" stroke="#63b8ff" d="M753,-341.75C753,-331.31 753,-319.49 753,-310.54"/>
<polygon fill="#63b8ff" stroke="#63b8ff" points="749.5,-341.94 753,-351.94 756.5,-341.94 749.5,-341.94"/>
</g>
<!-- Node17 -->
<g id="node17" class="node">
<title>Node17</title>
<g id="a_node17"><a xlink:href="_utils_8cpp.html" target="_top" xlink:title=" ">
<polygon fill="white" stroke="#666666" points="951,-310.5 831,-310.5 831,-280.5 951,-280.5 951,-310.5"/>
<text text-anchor="start" x="839" y="-298.5" font-family="Helvetica,sans-Serif" font-size="10.00">firmware/wombat/src</text>
<text text-anchor="middle" x="891" y="-287.5" font-family="Helvetica,sans-Serif" font-size="10.00">/Utils.cpp</text>
</a>
</g>
</g>
<!-- Node1&#45;&gt;Node17 -->
<g id="edge22" class="edge">
<title>Node1&#45;&gt;Node17</title>
<path fill="none" stroke="#63b8ff" d="M790.04,-347.34C813.03,-335.77 842.08,-321.14 863.12,-310.54"/>
<polygon fill="#63b8ff" stroke="#63b8ff" points="788.28,-344.31 780.93,-351.94 791.43,-350.56 788.28,-344.31"/>
</g>
<!-- Node18 -->
<g id="node18" class="node">
<title>Node18</title>
<g id="a_node18"><a xlink:href="device_8cpp.html" target="_top" xlink:title="Setup BluetoothLE device information services and characteristics.">
<polygon fill="white" stroke="#666666" points="1091,-310.5 969,-310.5 969,-280.5 1091,-280.5 1091,-310.5"/>
<text text-anchor="start" x="977" y="-298.5" font-family="Helvetica,sans-Serif" font-size="10.00">firmware/wombat/src</text>
<text text-anchor="middle" x="1030" y="-287.5" font-family="Helvetica,sans-Serif" font-size="10.00">/bluetooth/device.cpp</text>
</a>
</g>
</g>
<!-- Node1&#45;&gt;Node18 -->
<g id="edge23" class="edge">
<title>Node1&#45;&gt;Node18</title>
<path fill="none" stroke="#63b8ff" d="M823.33,-349.65C863.45,-340.16 914.64,-327.79 960,-316 966.59,-314.29 973.52,-312.43 980.35,-310.56"/>
<polygon fill="#63b8ff" stroke="#63b8ff" points="822.3,-346.3 813.37,-352 823.91,-353.11 822.3,-346.3"/>
</g>
<!-- Node19 -->
<g id="node19" class="node">
<title>Node19</title>
<g id="a_node19"><a xlink:href="mqtt__stack_8cpp.html" target="_top" xlink:title=" ">
<polygon fill="white" stroke="#666666" points="1229,-310.5 1109,-310.5 1109,-280.5 1229,-280.5 1229,-310.5"/>
<text text-anchor="start" x="1117" y="-298.5" font-family="Helvetica,sans-Serif" font-size="10.00">firmware/wombat/src</text>
<text text-anchor="middle" x="1169" y="-287.5" font-family="Helvetica,sans-Serif" font-size="10.00">/mqtt_stack.cpp</text>
</a>
</g>
</g>
<!-- Node1&#45;&gt;Node19 -->
<g id="edge25" class="edge">
<title>Node1&#45;&gt;Node19</title>
<path fill="none" stroke="#63b8ff" d="M833.77,-357.43C904.44,-349.2 1009.63,-335.19 1100,-316 1107.31,-314.45 1114.98,-312.55 1122.44,-310.56"/>
<polygon fill="#63b8ff" stroke="#63b8ff" points="833.13,-353.98 823.6,-358.6 833.93,-360.93 833.13,-353.98"/>
</g>
<!-- Node20 -->
<g id="node20" class="node">
<title>Node20</title>
<g id="a_node20"><a xlink:href="ulp_8cpp.html" target="_top" xlink:title=" ">
<polygon fill="white" stroke="#666666" points="1367,-310.5 1247,-310.5 1247,-280.5 1367,-280.5 1367,-310.5"/>
<text text-anchor="start" x="1255" y="-298.5" font-family="Helvetica,sans-Serif" font-size="10.00">firmware/wombat/src</text>
<text text-anchor="middle" x="1307" y="-287.5" font-family="Helvetica,sans-Serif" font-size="10.00">/ulp.cpp</text>
</a>
</g>
</g>
<!-- Node1&#45;&gt;Node20 -->
<g id="edge26" class="edge">
<title>Node1&#45;&gt;Node20</title>
<path fill="none" stroke="#63b8ff" d="M833.84,-361.94C930.62,-356.11 1097.28,-342.93 1238,-316 1245.7,-314.53 1253.79,-312.6 1261.61,-310.52"/>
<polygon fill="#63b8ff" stroke="#63b8ff" points="833.61,-358.45 823.83,-362.54 834.02,-365.44 833.61,-358.45"/>
</g>
<!-- Node21 -->
<g id="node21" class="node">
<title>Node21</title>
<g id="a_node21"><a xlink:href="uplinks_8cpp.html" target="_top" xlink:title=" ">
<polygon fill="white" stroke="#666666" points="1505,-310.5 1385,-310.5 1385,-280.5 1505,-280.5 1505,-310.5"/>
<text text-anchor="start" x="1393" y="-298.5" font-family="Helvetica,sans-Serif" font-size="10.00">firmware/wombat/src</text>
<text text-anchor="middle" x="1445" y="-287.5" font-family="Helvetica,sans-Serif" font-size="10.00">/uplinks.cpp</text>
</a>
</g>
</g>
<!-- Node1&#45;&gt;Node21 -->
<g id="edge27" class="edge">
<title>Node1&#45;&gt;Node21</title>
<path fill="none" stroke="#63b8ff" d="M833.8,-364.54C953.23,-361.25 1183.5,-350.58 1376,-316 1383.84,-314.59 1392.07,-312.67 1400.01,-310.58"/>
<polygon fill="#63b8ff" stroke="#63b8ff" points="833.55,-361.05 823.65,-364.81 833.74,-368.04 833.55,-361.05"/>
</g>
<!-- Node3 -->
<g id="node3" class="node">
<title>Node3</title>
<g id="a_node3"><a xlink:href="_c_l_i_8h.html" target="_top" xlink:title="FreeRTOS CLI handler.">
<polygon fill="white" stroke="#666666" points="380.5,-233.5 239.5,-233.5 239.5,-203.5 380.5,-203.5 380.5,-233.5"/>
<text text-anchor="start" x="247.5" y="-221.5" font-family="Helvetica,sans-Serif" font-size="10.00">firmware/wombat/include</text>
<text text-anchor="middle" x="310" y="-210.5" font-family="Helvetica,sans-Serif" font-size="10.00">/cli/CLI.h</text>
</a>
</g>
</g>
<!-- Node2&#45;&gt;Node3 -->
<g id="edge2" class="edge">
<title>Node2&#45;&gt;Node3</title>
<path fill="none" stroke="#63b8ff" d="M483.74,-272.04C442.45,-259.56 392.34,-244.4 356.57,-233.58"/>
<polygon fill="#63b8ff" stroke="#63b8ff" points="482.9,-275.45 493.49,-274.99 484.93,-268.75 482.9,-275.45"/>
</g>
<!-- Node2&#45;&gt;Node10 -->
<g id="edge11" class="edge">
<title>Node2&#45;&gt;Node10</title>
<path fill="none" stroke="#63b8ff" d="M575.32,-266.26C582.1,-255.21 589.57,-243.02 595.19,-233.86"/>
<polygon fill="#63b8ff" stroke="#63b8ff" points="572.33,-264.44 570.09,-274.79 578.3,-268.1 572.33,-264.44"/>
</g>
<!-- Node11 -->
<g id="node11" class="node">
<title>Node11</title>
<g id="a_node11"><a xlink:href="acquisition__intervals_8cpp.html" target="_top" xlink:title="Handles the time between measurements and uplinks by the device over LTE.">
<polygon fill="white" stroke="#666666" points="839.5,-239 682.5,-239 682.5,-198 839.5,-198 839.5,-239"/>
<text text-anchor="start" x="690.5" y="-227" font-family="Helvetica,sans-Serif" font-size="10.00">firmware/wombat/src</text>
<text text-anchor="start" x="690.5" y="-216" font-family="Helvetica,sans-Serif" font-size="10.00">/cli/device_config/acquisition</text>
<text text-anchor="middle" x="761" y="-205" font-family="Helvetica,sans-Serif" font-size="10.00">_intervals.cpp</text>
</a>
</g>
</g>
<!-- Node2&#45;&gt;Node11 -->
<g id="edge12" class="edge">
<title>Node2&#45;&gt;Node11</title>
<path fill="none" stroke="#63b8ff" d="M620.51,-271.4C648.56,-261.04 681.3,-248.95 708.11,-239.04"/>
<polygon fill="#63b8ff" stroke="#63b8ff" points="618.97,-268.24 610.81,-274.99 621.4,-274.81 618.97,-268.24"/>
</g>
<!-- Node4 -->
<g id="node4" class="node">
<title>Node4</title>
<g id="a_node4"><a xlink:href="server_8h.html" target="_top" xlink:title="Handle the setup and maintenance of the BLE server and connected clients.">
<polygon fill="white" stroke="#666666" points="417.5,-162 276.5,-162 276.5,-132 417.5,-132 417.5,-162"/>
<text text-anchor="start" x="284.5" y="-150" font-family="Helvetica,sans-Serif" font-size="10.00">firmware/wombat/include</text>
<text text-anchor="middle" x="347" y="-139" font-family="Helvetica,sans-Serif" font-size="10.00">/bluetooth/server.h</text>
</a>
</g>
</g>
<!-- Node3&#45;&gt;Node4 -->
<g id="edge3" class="edge">
<title>Node3&#45;&gt;Node4</title>
<path fill="none" stroke="#63b8ff" d="M315.98,-194.23C321,-183.56 327.84,-171.27 333.98,-162.04"/>
<polygon fill="#63b8ff" stroke="#63b8ff" points="312.75,-192.87 311.94,-203.44 319.16,-195.68 312.75,-192.87"/>
</g>
<!-- Node8 -->
<g id="node8" class="node">
<title>Node8</title>
<g id="a_node8"><a xlink:href="_c_l_i_8cpp.html" target="_top" xlink:title="FreeRTOS CLI handler.">
<polygon fill="white" stroke="#666666" points="258,-162 138,-162 138,-132 258,-132 258,-162"/>
<text text-anchor="start" x="146" y="-150" font-family="Helvetica,sans-Serif" font-size="10.00">firmware/wombat/src</text>
<text text-anchor="middle" x="198" y="-139" font-family="Helvetica,sans-Serif" font-size="10.00">/cli/CLI.cpp</text>
</a>
</g>
</g>
<!-- Node3&#45;&gt;Node8 -->
<g id="edge9" class="edge">
<title>Node3&#45;&gt;Node8</title>
<path fill="none" stroke="#63b8ff" d="M278.68,-198.07C260.24,-186.62 237.32,-172.4 220.63,-162.04"/>
<polygon fill="#63b8ff" stroke="#63b8ff" points="276.99,-201.14 287.34,-203.44 280.68,-195.19 276.99,-201.14"/>
</g>
<!-- Node3&#45;&gt;Node9 -->
<g id="edge10" class="edge">
<title>Node3&#45;&gt;Node9</title>
<path fill="none" stroke="#63b8ff" d="M249.73,-200.74C207.15,-188.91 150.74,-173.22 110.52,-162.04"/>
<polygon fill="#63b8ff" stroke="#63b8ff" points="248.84,-204.13 259.41,-203.44 250.71,-197.39 248.84,-204.13"/>
</g>
<!-- Node4&#45;&gt;Node3 -->
<g id="edge7" class="edge">
<title>Node4&#45;&gt;Node3</title>
<path fill="none" stroke="#63b8ff" d="M341.03,-171.24C336.01,-181.91 329.18,-194.2 323.04,-203.44"/>
<polygon fill="#63b8ff" stroke="#63b8ff" points="344.26,-172.61 345.07,-162.04 337.85,-169.8 344.26,-172.61"/>
</g>
<!-- Node5 -->
<g id="node5" class="node">
<title>Node5</title>
<g id="a_node5"><a xlink:href="uart_8h.html" target="_top" xlink:title="BluetoothLE UART service setup and handling.">
<polygon fill="white" stroke="#666666" points="417.5,-96 276.5,-96 276.5,-66 417.5,-66 417.5,-96"/>
<text text-anchor="start" x="284.5" y="-84" font-family="Helvetica,sans-Serif" font-size="10.00">firmware/wombat/include</text>
<text text-anchor="middle" x="347" y="-73" font-family="Helvetica,sans-Serif" font-size="10.00">/bluetooth/uart.h</text>
</a>
</g>
</g>
<!-- Node4&#45;&gt;Node5 -->
<g id="edge4" class="edge">
<title>Node4&#45;&gt;Node5</title>
<path fill="none" stroke="#63b8ff" d="M340.43,-121.83C340.02,-113.17 340.31,-103.7 341.29,-96.16"/>
<polygon fill="#63b8ff" stroke="#63b8ff" points="336.95,-122.13 341.28,-131.8 343.92,-121.54 336.95,-122.13"/>
</g>
<!-- Node7 -->
<g id="node7" class="node">
<title>Node7</title>
<g id="a_node7"><a xlink:href="server_8cpp.html" target="_top" xlink:title="Setup and start BluetoothLE server.">
<polygon fill="white" stroke="#666666" points="556,-96 436,-96 436,-66 556,-66 556,-96"/>
<text text-anchor="start" x="444" y="-84" font-family="Helvetica,sans-Serif" font-size="10.00">firmware/wombat/src</text>
<text text-anchor="middle" x="496" y="-73" font-family="Helvetica,sans-Serif" font-size="10.00">/bluetooth/server.cpp</text>
</a>
</g>
</g>
<!-- Node4&#45;&gt;Node7 -->
<g id="edge8" class="edge">
<title>Node4&#45;&gt;Node7</title>
<path fill="none" stroke="#63b8ff" d="M389.09,-127.92C412.64,-117.8 441.56,-105.38 463.38,-96.01"/>
<polygon fill="#63b8ff" stroke="#63b8ff" points="387.51,-124.79 379.7,-131.95 390.27,-131.22 387.51,-124.79"/>
</g>
<!-- Node5&#45;&gt;Node4 -->
<g id="edge5" class="edge">
<title>Node5&#45;&gt;Node4</title>
<path fill="none" stroke="#63b8ff" d="M353.57,-106.13C353.98,-114.78 353.7,-124.26 352.72,-131.8"/>
<polygon fill="#63b8ff" stroke="#63b8ff" points="357.05,-105.83 352.71,-96.16 350.08,-106.43 357.05,-105.83"/>
</g>
<!-- Node6 -->
<g id="node6" class="node">
<title>Node6</title>
<g id="a_node6"><a xlink:href="uart_8cpp.html" target="_top" xlink:title="BluetoothLE UART service setup and handling.">
<polygon fill="white" stroke="#666666" points="407,-30 287,-30 287,0 407,0 407,-30"/>
<text text-anchor="start" x="295" y="-18" font-family="Helvetica,sans-Serif" font-size="10.00">firmware/wombat/src</text>
<text text-anchor="middle" x="347" y="-7" font-family="Helvetica,sans-Serif" font-size="10.00">/bluetooth/uart.cpp</text>
</a>
</g>
</g>
<!-- Node5&#45;&gt;Node6 -->
<g id="edge6" class="edge">
<title>Node5&#45;&gt;Node6</title>
<path fill="none" stroke="#63b8ff" d="M347,-55.54C347,-46.96 347,-37.61 347,-30.16"/>
<polygon fill="#63b8ff" stroke="#63b8ff" points="343.5,-55.8 347,-65.8 350.5,-55.8 343.5,-55.8"/>
</g>
<!-- Node12&#45;&gt;Node3 -->
<g id="edge14" class="edge">
<title>Node12&#45;&gt;Node3</title>
<path fill="none" stroke="#63b8ff" d="M238.75,-274.03C255.54,-261.18 276.75,-244.94 291.65,-233.54"/>
<polygon fill="#63b8ff" stroke="#63b8ff" points="236.25,-271.54 230.43,-280.39 240.5,-277.09 236.25,-271.54"/>
</g>
<!-- Node13 -->
<g id="node13" class="node">
<title>Node13</title>
<g id="a_node13"><a xlink:href="config__cli_8cpp.html" target="_top" xlink:title="Command line interface node configuration commands.">
<polygon fill="white" stroke="#666666" points="221.5,-239 88.5,-239 88.5,-198 221.5,-198 221.5,-239"/>
<text text-anchor="start" x="96.5" y="-227" font-family="Helvetica,sans-Serif" font-size="10.00">firmware/wombat/src</text>
<text text-anchor="start" x="96.5" y="-216" font-family="Helvetica,sans-Serif" font-size="10.00">/cli/device_config/config</text>
<text text-anchor="middle" x="155" y="-205" font-family="Helvetica,sans-Serif" font-size="10.00">_cli.cpp</text>
</a>
</g>
</g>
<!-- Node12&#45;&gt;Node13 -->
<g id="edge15" class="edge">
<title>Node12&#45;&gt;Node13</title>
<path fill="none" stroke="#63b8ff" d="M195,-272.14C187.05,-261.67 177.66,-249.31 169.97,-239.2"/>
<polygon fill="#63b8ff" stroke="#63b8ff" points="192.44,-274.55 201.28,-280.39 198.01,-270.31 192.44,-274.55"/>
</g>
<!-- Node14&#45;&gt;Node3 -->
<g id="edge17" class="edge">
<title>Node14&#45;&gt;Node3</title>
<path fill="none" stroke="#63b8ff" d="M363.82,-273.32C351.08,-260.58 335.24,-244.74 324.04,-233.54"/>
<polygon fill="#63b8ff" stroke="#63b8ff" points="361.35,-275.8 370.89,-280.39 366.3,-270.85 361.35,-275.8"/>
</g>
<!-- Node14&#45;&gt;Node10 -->
<g id="edge18" class="edge">
<title>Node14&#45;&gt;Node10</title>
<path fill="none" stroke="#63b8ff" d="M435.44,-277.22C474.1,-263.99 526.78,-245.95 562.89,-233.58"/>
<polygon fill="#63b8ff" stroke="#63b8ff" points="434.26,-273.93 425.94,-280.48 436.53,-280.55 434.26,-273.93"/>
</g>
<!-- Node15 -->
<g id="node15" class="node">
<title>Node15</title>
<g id="a_node15"><a xlink:href="mqtt__cli_8cpp.html" target="_top" xlink:title="MQTT setup and configuration through the CLI.">
<polygon fill="white" stroke="#666666" points="525.5,-239 398.5,-239 398.5,-198 525.5,-198 525.5,-239"/>
<text text-anchor="start" x="406.5" y="-227" font-family="Helvetica,sans-Serif" font-size="10.00">firmware/wombat/src</text>
<text text-anchor="start" x="406.5" y="-216" font-family="Helvetica,sans-Serif" font-size="10.00">/cli/device_config/mqtt</text>
<text text-anchor="middle" x="462" y="-205" font-family="Helvetica,sans-Serif" font-size="10.00">_cli.cpp</text>
</a>
</g>
</g>
<!-- Node14&#45;&gt;Node15 -->
<g id="edge19" class="edge">
<title>Node14&#45;&gt;Node15</title>
<path fill="none" stroke="#63b8ff" d="M406.68,-273.38C417.69,-262.66 430.98,-249.72 441.77,-239.2"/>
<polygon fill="#63b8ff" stroke="#63b8ff" points="404.2,-270.91 399.48,-280.39 409.09,-275.92 404.2,-270.91"/>
</g>
</g>
</svg>
