<?xml version="1.0" encoding="UTF-8" standalone="no"?>
<!DOCTYPE svg PUBLIC "-//W3C//DTD SVG 1.1//EN"
 "http://www.w3.org/Graphics/SVG/1.1/DTD/svg11.dtd">
<!-- Generated by graphviz version 2.43.0 (0)
 -->
<!-- Title: firmware/wombat/src/DeviceConfig.cpp Pages: 1 -->
<svg width="974pt" height="335pt"
 viewBox="0.00 0.00 974.00 335.00" xmlns="http://www.w3.org/2000/svg" xmlns:xlink="http://www.w3.org/1999/xlink">
<g id="graph0" class="graph" transform="scale(1 1) rotate(0) translate(4 331)">
<title>firmware/wombat/src/DeviceConfig.cpp</title>
<!-- Node1 -->
<g id="node1" class="node">
<title>Node1</title>
<g id="a_node1"><a xlink:title=" ">
<polygon fill="#999999" stroke="#666666" points="443.5,-327 323.5,-327 323.5,-297 443.5,-297 443.5,-327"/>
<text text-anchor="start" x="331.5" y="-315" font-family="Helvetica,sans-Serif" font-size="10.00">firmware/wombat/src</text>
<text text-anchor="middle" x="383.5" y="-304" font-family="Helvetica,sans-Serif" font-size="10.00">/DeviceConfig.cpp</text>
</a>
</g>
</g>
<!-- Node2 -->
<g id="node2" class="node">
<title>Node2</title>
<g id="a_node2"><a xlink:href="_device_config_8h.html" target="_top" xlink:title="Node configuration options.">
<polygon fill="white" stroke="#666666" points="471.5,-195 381.5,-195 381.5,-176 471.5,-176 471.5,-195"/>
<text text-anchor="middle" x="426.5" y="-183" font-family="Helvetica,sans-Serif" font-size="10.00">DeviceConfig.h</text>
</a>
</g>
</g>
<!-- Node1&#45;&gt;Node2 -->
<g id="edge1" class="edge">
<title>Node1&#45;&gt;Node2</title>
<path fill="none" stroke="#63b8ff" d="M391.2,-296.88C396.34,-287.04 402.96,-273.49 407.5,-261 414.19,-242.61 419.45,-220.84 422.72,-205.6"/>
<polygon fill="#63b8ff" stroke="#63b8ff" points="426.24,-205.89 424.83,-195.39 419.38,-204.47 426.24,-205.89"/>
</g>
<!-- Node5 -->
<g id="node5" class="node">
<title>Node5</title>
<g id="a_node5"><a xlink:title=" ">
<polygon fill="#e0e0e0" stroke="#999999" points="200.5,-255.5 142.5,-255.5 142.5,-236.5 200.5,-236.5 200.5,-255.5"/>
<text text-anchor="middle" x="171.5" y="-243.5" font-family="Helvetica,sans-Serif" font-size="10.00">SPIFFS.h</text>
</a>
</g>
</g>
<!-- Node1&#45;&gt;Node5 -->
<g id="edge4" class="edge">
<title>Node1&#45;&gt;Node5</title>
<path fill="none" stroke="#63b8ff" d="M330.66,-296.9C296.01,-287.39 249.83,-274.2 209.5,-261 207.6,-260.38 205.64,-259.72 203.68,-259.04"/>
<polygon fill="#63b8ff" stroke="#63b8ff" points="204.5,-255.62 193.91,-255.57 202.16,-262.21 204.5,-255.62"/>
</g>
<!-- Node6 -->
<g id="node6" class="node">
<title>Node6</title>
<g id="a_node6"><a xlink:href="_utils_8h.html" target="_top" xlink:title=" ">
<polygon fill="white" stroke="#666666" points="266.5,-255.5 218.5,-255.5 218.5,-236.5 266.5,-236.5 266.5,-255.5"/>
<text text-anchor="middle" x="242.5" y="-243.5" font-family="Helvetica,sans-Serif" font-size="10.00">Utils.h</text>
</a>
</g>
</g>
<!-- Node1&#45;&gt;Node6 -->
<g id="edge5" class="edge">
<title>Node1&#45;&gt;Node6</title>
<path fill="none" stroke="#63b8ff" d="M352.56,-296.95C328.05,-285.83 294.11,-270.42 270.42,-259.67"/>
<polygon fill="#63b8ff" stroke="#63b8ff" points="271.82,-256.46 261.26,-255.52 268.92,-262.84 271.82,-256.46"/>
</g>
<!-- Node8 -->
<g id="node8" class="node">
<title>Node8</title>
<g id="a_node8"><a xlink:href="globals_8h.html" target="_top" xlink:title=" ">
<polygon fill="white" stroke="#666666" points="178,-195 117,-195 117,-176 178,-176 178,-195"/>
<text text-anchor="middle" x="147.5" y="-183" font-family="Helvetica,sans-Serif" font-size="10.00">globals.h</text>
</a>
</g>
</g>
<!-- Node1&#45;&gt;Node8 -->
<g id="edge28" class="edge">
<title>Node1&#45;&gt;Node8</title>
<path fill="none" stroke="#63b8ff" d="M323.25,-307.51C257.07,-302.26 157.04,-289.71 133.5,-261 120.51,-245.15 128.5,-221.03 136.75,-204.55"/>
<polygon fill="#63b8ff" stroke="#63b8ff" points="140.02,-205.88 141.74,-195.43 133.87,-202.52 140.02,-205.88"/>
</g>
<!-- Node15 -->
<g id="node15" class="node">
<title>Node15</title>
<g id="a_node15"><a xlink:title=" ">
<polygon fill="#e0e0e0" stroke="#999999" points="649,-195 542,-195 542,-176 649,-176 649,-195"/>
<text text-anchor="middle" x="595.5" y="-183" font-family="Helvetica,sans-Serif" font-size="10.00">cli/FreeRTOS_CLI.h</text>
</a>
</g>
</g>
<!-- Node1&#45;&gt;Node15 -->
<g id="edge17" class="edge">
<title>Node1&#45;&gt;Node15</title>
<path fill="none" stroke="#63b8ff" d="M443.74,-303.91C496.89,-296.34 568.74,-282.44 587.5,-261 600.72,-245.89 600.91,-221.91 598.97,-205.25"/>
<polygon fill="#63b8ff" stroke="#63b8ff" points="602.39,-204.45 597.42,-195.09 595.47,-205.51 602.39,-204.45"/>
</g>
<!-- Node16 -->
<g id="node16" class="node">
<title>Node16</title>
<g id="a_node16"><a xlink:href="acquisition__intervals_8h.html" target="_top" xlink:title="Handles the time between measurements and uplinks by the device over LTE.">
<polygon fill="white" stroke="#666666" points="788.5,-261 634.5,-261 634.5,-231 788.5,-231 788.5,-261"/>
<text text-anchor="start" x="642.5" y="-249" font-family="Helvetica,sans-Serif" font-size="10.00">cli/device_config/acquisition</text>
<text text-anchor="middle" x="711.5" y="-238" font-family="Helvetica,sans-Serif" font-size="10.00">_intervals.h</text>
</a>
</g>
</g>
<!-- Node1&#45;&gt;Node16 -->
<g id="edge18" class="edge">
<title>Node1&#45;&gt;Node16</title>
<path fill="none" stroke="#63b8ff" d="M443.66,-299.26C495.93,-289.06 572.12,-274.2 629.88,-262.93"/>
<polygon fill="#63b8ff" stroke="#63b8ff" points="630.57,-266.36 639.72,-261.01 629.23,-259.49 630.57,-266.36"/>
</g>
<!-- Node20 -->
<g id="node20" class="node">
<title>Node20</title>
<g id="a_node20"><a xlink:href="mqtt__cli_8h.html" target="_top" xlink:title="MQTT setup and configuration through the CLI.">
<polygon fill="white" stroke="#666666" points="578.5,-261 454.5,-261 454.5,-231 578.5,-231 578.5,-261"/>
<text text-anchor="start" x="462.5" y="-249" font-family="Helvetica,sans-Serif" font-size="10.00">cli/device_config/mqtt</text>
<text text-anchor="middle" x="516.5" y="-238" font-family="Helvetica,sans-Serif" font-size="10.00">_cli.h</text>
</a>
</g>
</g>
<!-- Node1&#45;&gt;Node20 -->
<g id="edge24" class="edge">
<title>Node1&#45;&gt;Node20</title>
<path fill="none" stroke="#63b8ff" d="M412.69,-296.95C431.92,-287.7 457.3,-275.49 478.16,-265.45"/>
<polygon fill="#63b8ff" stroke="#63b8ff" points="479.89,-268.5 487.38,-261.01 476.85,-262.19 479.89,-268.5"/>
</g>
<!-- Node21 -->
<g id="node21" class="node">
<title>Node21</title>
<g id="a_node21"><a xlink:href="ftp__cli_8h.html" target="_top" xlink:title="FTP setup and configuration through the CLI.">
<polygon fill="white" stroke="#666666" points="398,-261 285,-261 285,-231 398,-231 398,-261"/>
<text text-anchor="start" x="293" y="-249" font-family="Helvetica,sans-Serif" font-size="10.00">cli/device_config/ftp</text>
<text text-anchor="middle" x="341.5" y="-238" font-family="Helvetica,sans-Serif" font-size="10.00">_cli.h</text>
</a>
</g>
</g>
<!-- Node1&#45;&gt;Node21 -->
<g id="edge26" class="edge">
<title>Node1&#45;&gt;Node21</title>
<path fill="none" stroke="#63b8ff" d="M374.18,-296.8C368.96,-288.84 362.33,-278.74 356.4,-269.71"/>
<polygon fill="#63b8ff" stroke="#63b8ff" points="359.21,-267.6 350.8,-261.16 353.36,-271.44 359.21,-267.6"/>
</g>
<!-- Node3 -->
<g id="node3" class="node">
<title>Node3</title>
<g id="a_node3"><a xlink:title=" ">
<polygon fill="#e0e0e0" stroke="#999999" points="429,-19 366,-19 366,0 429,0 429,-19"/>
<text text-anchor="middle" x="397.5" y="-7" font-family="Helvetica,sans-Serif" font-size="10.00">Arduino.h</text>
</a>
</g>
</g>
<!-- Node2&#45;&gt;Node3 -->
<g id="edge2" class="edge">
<title>Node2&#45;&gt;Node3</title>
<path fill="none" stroke="#63b8ff" d="M425.02,-175.63C420.5,-148.52 406.8,-66.32 400.6,-29.13"/>
<polygon fill="#63b8ff" stroke="#63b8ff" points="404.04,-28.43 398.94,-19.14 397.13,-29.58 404.04,-28.43"/>
</g>
<!-- Node4 -->
<g id="node4" class="node">
<title>Node4</title>
<g id="a_node4"><a xlink:title=" ">
<polygon fill="#e0e0e0" stroke="#999999" points="398,-134.5 315,-134.5 315,-115.5 398,-115.5 398,-134.5"/>
<text text-anchor="middle" x="356.5" y="-122.5" font-family="Helvetica,sans-Serif" font-size="10.00">ArduinoJson.h</text>
</a>
</g>
</g>
<!-- Node2&#45;&gt;Node4 -->
<g id="edge3" class="edge">
<title>Node2&#45;&gt;Node4</title>
<path fill="none" stroke="#63b8ff" d="M416.17,-175.87C405.31,-166.8 388.01,-152.34 374.83,-141.32"/>
<polygon fill="#63b8ff" stroke="#63b8ff" points="376.79,-138.39 366.87,-134.67 372.3,-143.77 376.79,-138.39"/>
</g>
<!-- Node6&#45;&gt;Node4 -->
<g id="edge6" class="edge">
<title>Node6&#45;&gt;Node4</title>
<path fill="none" stroke="#63b8ff" d="M252.99,-236.15C264.34,-226.44 282.76,-210.19 297.5,-195 314.04,-177.95 331.56,-157.06 343.16,-142.76"/>
<polygon fill="#63b8ff" stroke="#63b8ff" points="346.03,-144.79 349.57,-134.8 340.57,-140.4 346.03,-144.79"/>
</g>
<!-- Node7 -->
<g id="node7" class="node">
<title>Node7</title>
<g id="a_node7"><a xlink:title=" ">
<polygon fill="#e0e0e0" stroke="#999999" points="289,-195 196,-195 196,-176 289,-176 289,-195"/>
<text text-anchor="middle" x="242.5" y="-183" font-family="Helvetica,sans-Serif" font-size="10.00">dpiclimate&#45;12.h</text>
</a>
</g>
</g>
<!-- Node6&#45;&gt;Node7 -->
<g id="edge7" class="edge">
<title>Node6&#45;&gt;Node7</title>
<path fill="none" stroke="#63b8ff" d="M242.5,-236.37C242.5,-228.25 242.5,-215.81 242.5,-205.39"/>
<polygon fill="#63b8ff" stroke="#63b8ff" points="246,-205.17 242.5,-195.17 239,-205.17 246,-205.17"/>
</g>
<!-- Node6&#45;&gt;Node8 -->
<g id="edge8" class="edge">
<title>Node6&#45;&gt;Node8</title>
<path fill="none" stroke="#63b8ff" d="M228.48,-236.37C213.19,-226.95 188.47,-211.73 170.36,-200.58"/>
<polygon fill="#63b8ff" stroke="#63b8ff" points="171.93,-197.43 161.58,-195.17 168.25,-203.39 171.93,-197.43"/>
</g>
<!-- Node9 -->
<g id="node9" class="node">
<title>Node9</title>
<g id="a_node9"><a xlink:title=" ">
<polygon fill="#e0e0e0" stroke="#999999" points="213.5,-140 83.5,-140 83.5,-110 213.5,-110 213.5,-140"/>
<text text-anchor="start" x="91.5" y="-128" font-family="Helvetica,sans-Serif" font-size="10.00">SparkFun_u&#45;blox_SARA</text>
<text text-anchor="middle" x="148.5" y="-117" font-family="Helvetica,sans-Serif" font-size="10.00">&#45;R5_Arduino_Library.h</text>
</a>
</g>
</g>
<!-- Node8&#45;&gt;Node9 -->
<g id="edge9" class="edge">
<title>Node8&#45;&gt;Node9</title>
<path fill="none" stroke="#63b8ff" d="M147.65,-175.87C147.76,-169.11 147.93,-159.35 148.09,-150.26"/>
<polygon fill="#63b8ff" stroke="#63b8ff" points="151.59,-150.17 148.26,-140.11 144.59,-150.05 151.59,-150.17"/>
</g>
<!-- Node10 -->
<g id="node10" class="node">
<title>Node10</title>
<g id="a_node10"><a xlink:href="_c_a_t___m1_8h.html" target="_top" xlink:title=" ">
<polygon fill="white" stroke="#666666" points="297,-134.5 232,-134.5 232,-115.5 297,-115.5 297,-134.5"/>
<text text-anchor="middle" x="264.5" y="-122.5" font-family="Helvetica,sans-Serif" font-size="10.00">CAT_M1.h</text>
</a>
</g>
</g>
<!-- Node8&#45;&gt;Node10 -->
<g id="edge10" class="edge">
<title>Node8&#45;&gt;Node10</title>
<path fill="none" stroke="#63b8ff" d="M164.51,-175.99C183.92,-166.29 215.89,-150.31 238.44,-139.03"/>
<polygon fill="#63b8ff" stroke="#63b8ff" points="240.09,-142.12 247.47,-134.52 236.96,-135.86 240.09,-142.12"/>
</g>
<!-- Node13 -->
<g id="node13" class="node">
<title>Node13</title>
<g id="a_node13"><a xlink:href="str__utils_8h.html" target="_top" xlink:title=" ">
<polygon fill="white" stroke="#666666" points="65,-134.5 0,-134.5 0,-115.5 65,-115.5 65,-134.5"/>
<text text-anchor="middle" x="32.5" y="-122.5" font-family="Helvetica,sans-Serif" font-size="10.00">str_utils.h</text>
</a>
</g>
</g>
<!-- Node8&#45;&gt;Node13 -->
<g id="edge15" class="edge">
<title>Node8&#45;&gt;Node13</title>
<path fill="none" stroke="#63b8ff" d="M130.53,-175.87C111.59,-166.23 80.71,-150.53 58.67,-139.31"/>
<polygon fill="#63b8ff" stroke="#63b8ff" points="60.04,-136.08 49.54,-134.67 56.86,-142.32 60.04,-136.08"/>
</g>
<!-- Node11 -->
<g id="node11" class="node">
<title>Node11</title>
<g id="a_node11"><a xlink:title=" ">
<polygon fill="#e0e0e0" stroke="#999999" points="319.5,-19 271.5,-19 271.5,0 319.5,0 319.5,-19"/>
<text text-anchor="middle" x="295.5" y="-7" font-family="Helvetica,sans-Serif" font-size="10.00">Wire.h</text>
</a>
</g>
</g>
<!-- Node10&#45;&gt;Node11 -->
<g id="edge11" class="edge">
<title>Node10&#45;&gt;Node11</title>
<path fill="none" stroke="#63b8ff" d="M266.83,-115.47C271.83,-97.15 283.71,-53.68 290.5,-28.81"/>
<polygon fill="#63b8ff" stroke="#63b8ff" points="293.88,-29.7 293.14,-19.13 287.13,-27.85 293.88,-29.7"/>
</g>
<!-- Node12 -->
<g id="node12" class="node">
<title>Node12</title>
<g id="a_node12"><a xlink:href="_t_c_a9534_8h.html" target="_top" xlink:title=" ">
<polygon fill="white" stroke="#666666" points="360.5,-74 292.5,-74 292.5,-55 360.5,-55 360.5,-74"/>
<text text-anchor="middle" x="326.5" y="-62" font-family="Helvetica,sans-Serif" font-size="10.00">TCA9534.h</text>
</a>
</g>
</g>
<!-- Node10&#45;&gt;Node12 -->
<g id="edge12" class="edge">
<title>Node10&#45;&gt;Node12</title>
<path fill="none" stroke="#63b8ff" d="M273.65,-115.37C283.17,-106.38 298.3,-92.11 309.93,-81.14"/>
<polygon fill="#63b8ff" stroke="#63b8ff" points="312.44,-83.58 317.31,-74.17 307.64,-78.48 312.44,-83.58"/>
</g>
<!-- Node12&#45;&gt;Node3 -->
<g id="edge13" class="edge">
<title>Node12&#45;&gt;Node3</title>
<path fill="none" stroke="#63b8ff" d="M337.91,-54.98C348.61,-47 364.84,-34.88 377.66,-25.31"/>
<polygon fill="#63b8ff" stroke="#63b8ff" points="379.97,-27.96 385.89,-19.17 375.78,-22.35 379.97,-27.96"/>
</g>
<!-- Node12&#45;&gt;Node11 -->
<g id="edge14" class="edge">
<title>Node12&#45;&gt;Node11</title>
<path fill="none" stroke="#63b8ff" d="M321.38,-54.75C317.14,-47.49 310.97,-36.95 305.72,-27.98"/>
<polygon fill="#63b8ff" stroke="#63b8ff" points="308.59,-25.95 300.52,-19.09 302.55,-29.49 308.59,-25.95"/>
</g>
<!-- Node14 -->
<g id="node14" class="node">
<title>Node14</title>
<g id="a_node14"><a xlink:title=" ">
<polygon fill="#e0e0e0" stroke="#999999" points="60.5,-74 4.5,-74 4.5,-55 60.5,-55 60.5,-74"/>
<text text-anchor="middle" x="32.5" y="-62" font-family="Helvetica,sans-Serif" font-size="10.00">stddef.h</text>
</a>
</g>
</g>
<!-- Node13&#45;&gt;Node14 -->
<g id="edge16" class="edge">
<title>Node13&#45;&gt;Node14</title>
<path fill="none" stroke="#63b8ff" d="M32.5,-115.37C32.5,-107.25 32.5,-94.81 32.5,-84.39"/>
<polygon fill="#63b8ff" stroke="#63b8ff" points="36,-84.17 32.5,-74.17 29,-84.17 36,-84.17"/>
</g>
<!-- Node16&#45;&gt;Node2 -->
<g id="edge23" class="edge">
<title>Node16&#45;&gt;Node2</title>
<path fill="none" stroke="#63b8ff" d="M643.24,-230.99C592.45,-220.56 524.22,-206.56 477.98,-197.07"/>
<polygon fill="#63b8ff" stroke="#63b8ff" points="478.67,-193.64 468.17,-195.05 477.26,-200.49 478.67,-193.64"/>
</g>
<!-- Node16&#45;&gt;Node15 -->
<g id="edge22" class="edge">
<title>Node16&#45;&gt;Node15</title>
<path fill="none" stroke="#63b8ff" d="M683.72,-230.99C664.88,-221.49 640.15,-209.02 621.66,-199.69"/>
<polygon fill="#63b8ff" stroke="#63b8ff" points="623.14,-196.52 612.63,-195.14 619.98,-202.77 623.14,-196.52"/>
</g>
<!-- Node17 -->
<g id="node17" class="node">
<title>Node17</title>
<g id="a_node17"><a xlink:title=" ">
<polygon fill="#e0e0e0" stroke="#999999" points="887,-195 774,-195 774,-176 887,-176 887,-195"/>
<text text-anchor="middle" x="830.5" y="-183" font-family="Helvetica,sans-Serif" font-size="10.00">freertos/FreeRTOS.h</text>
</a>
</g>
</g>
<!-- Node16&#45;&gt;Node17 -->
<g id="edge19" class="edge">
<title>Node16&#45;&gt;Node17</title>
<path fill="none" stroke="#63b8ff" d="M740,-230.99C759.41,-221.45 784.93,-208.9 803.92,-199.57"/>
<polygon fill="#63b8ff" stroke="#63b8ff" points="805.5,-202.69 812.93,-195.14 802.41,-196.41 805.5,-202.69"/>
</g>
<!-- Node18 -->
<g id="node18" class="node">
<title>Node18</title>
<g id="a_node18"><a xlink:title=" ">
<polygon fill="#e0e0e0" stroke="#999999" points="966,-195 905,-195 905,-176 966,-176 966,-195"/>
<text text-anchor="middle" x="935.5" y="-183" font-family="Helvetica,sans-Serif" font-size="10.00">Stream.h</text>
</a>
</g>
</g>
<!-- Node16&#45;&gt;Node18 -->
<g id="edge20" class="edge">
<title>Node16&#45;&gt;Node18</title>
<path fill="none" stroke="#63b8ff" d="M765.15,-230.99C805.02,-220.58 858.58,-206.59 894.92,-197.1"/>
<polygon fill="#63b8ff" stroke="#63b8ff" points="895.9,-200.46 904.69,-194.55 894.13,-193.69 895.9,-200.46"/>
</g>
<!-- Node19 -->
<g id="node19" class="node">
<title>Node19</title>
<g id="a_node19"><a xlink:title=" ">
<polygon fill="#e0e0e0" stroke="#999999" points="756,-195 667,-195 667,-176 756,-176 756,-195"/>
<text text-anchor="middle" x="711.5" y="-183" font-family="Helvetica,sans-Serif" font-size="10.00">StreamString.h</text>
</a>
</g>
</g>
<!-- Node16&#45;&gt;Node19 -->
<g id="edge21" class="edge">
<title>Node16&#45;&gt;Node19</title>
<path fill="none" stroke="#63b8ff" d="M711.5,-230.84C711.5,-223.21 711.5,-213.7 711.5,-205.45"/>
<polygon fill="#63b8ff" stroke="#63b8ff" points="715,-205.27 711.5,-195.27 708,-205.27 715,-205.27"/>
</g>
<!-- Node20&#45;&gt;Node2 -->
<g id="edge25" class="edge">
<title>Node20&#45;&gt;Node2</title>
<path fill="none" stroke="#63b8ff" d="M494.71,-230.84C480.63,-221.68 462.37,-209.82 448.29,-200.66"/>
<polygon fill="#63b8ff" stroke="#63b8ff" points="450.01,-197.61 439.72,-195.09 446.2,-203.48 450.01,-197.61"/>
</g>
<!-- Node21&#45;&gt;Node2 -->
<g id="edge27" class="edge">
<title>Node21&#45;&gt;Node2</title>
<path fill="none" stroke="#63b8ff" d="M362.08,-230.84C375.17,-221.83 392.09,-210.18 405.3,-201.09"/>
<polygon fill="#63b8ff" stroke="#63b8ff" points="407.51,-203.82 413.76,-195.27 403.54,-198.05 407.51,-203.82"/>
</g>
</g>
</svg>
