<?xml version="1.0" encoding="UTF-8" standalone="no"?>
<!DOCTYPE svg PUBLIC "-//W3C//DTD SVG 1.1//EN"
 "http://www.w3.org/Graphics/SVG/1.1/DTD/svg11.dtd">
<!-- Generated by graphviz version 2.43.0 (0)
 -->
<!-- Title: firmware/wombat/include/DeviceConfig.h Pages: 1 -->
<svg width="1673pt" height="401pt"
 viewBox="0.00 0.00 1673.00 401.00" xmlns="http://www.w3.org/2000/svg" xmlns:xlink="http://www.w3.org/1999/xlink">
<g id="graph0" class="graph" transform="scale(1 1) rotate(0) translate(4 397)">
<title>firmware/wombat/include/DeviceConfig.h</title>
<!-- Node1 -->
<g id="node1" class="node">
<title>Node1</title>
<g id="a_node1"><a xlink:title="Node configuration options.">
<polygon fill="#999999" stroke="#666666" points="926.5,-393 785.5,-393 785.5,-363 926.5,-363 926.5,-393"/>
<text text-anchor="start" x="793.5" y="-381" font-family="Helvetica,sans-Serif" font-size="10.00">firmware/wombat/include</text>
<text text-anchor="middle" x="856" y="-370" font-family="Helvetica,sans-Serif" font-size="10.00">/DeviceConfig.h</text>
</a>
</g>
</g>
<!-- Node2 -->
<g id="node2" class="node">
<title>Node2</title>
<g id="a_node2"><a xlink:href="acquisition__intervals_8h.html" target="_top" xlink:title="Handles the time between measurements and uplinks by the device over LTE.">
<polygon fill="white" stroke="#666666" points="934.5,-327 777.5,-327 777.5,-286 934.5,-286 934.5,-327"/>
<text text-anchor="start" x="785.5" y="-315" font-family="Helvetica,sans-Serif" font-size="10.00">firmware/wombat/include</text>
<text text-anchor="start" x="785.5" y="-304" font-family="Helvetica,sans-Serif" font-size="10.00">/cli/device_config/acquisition</text>
<text text-anchor="middle" x="856" y="-293" font-family="Helvetica,sans-Serif" font-size="10.00">_intervals.h</text>
</a>
</g>
</g>
<!-- Node1&#45;&gt;Node2 -->
<g id="edge1" class="edge">
<title>Node1&#45;&gt;Node2</title>
<path fill="none" stroke="#63b8ff" d="M856,-352.91C856,-344.47 856,-335.1 856,-327.07"/>
<polygon fill="#63b8ff" stroke="#63b8ff" points="852.5,-352.94 856,-362.94 859.5,-352.94 852.5,-352.94"/>
</g>
<!-- Node12 -->
<g id="node12" class="node">
<title>Node12</title>
<g id="a_node12"><a xlink:href="ftp__stack_8cpp.html" target="_top" xlink:title=" ">
<polygon fill="white" stroke="#666666" points="120,-167.5 0,-167.5 0,-137.5 120,-137.5 120,-167.5"/>
<text text-anchor="start" x="8" y="-155.5" font-family="Helvetica,sans-Serif" font-size="10.00">firmware/wombat/src</text>
<text text-anchor="middle" x="60" y="-144.5" font-family="Helvetica,sans-Serif" font-size="10.00">/ftp_stack.cpp</text>
</a>
</g>
</g>
<!-- Node1&#45;&gt;Node12 -->
<g id="edge33" class="edge">
<title>Node1&#45;&gt;Node12</title>
<path fill="none" stroke="#63b8ff" d="M774.97,-374.24C612.13,-368.19 256.42,-352.25 207,-327 135.28,-290.35 84.52,-201.94 66.85,-167.53"/>
<polygon fill="#63b8ff" stroke="#63b8ff" points="775.3,-377.75 785.42,-374.62 775.55,-370.76 775.3,-377.75"/>
</g>
<!-- Node13 -->
<g id="node13" class="node">
<title>Node13</title>
<g id="a_node13"><a xlink:href="main_8cpp.html" target="_top" xlink:title=" ">
<polygon fill="white" stroke="#666666" points="258,-167.5 138,-167.5 138,-137.5 258,-137.5 258,-167.5"/>
<text text-anchor="start" x="146" y="-155.5" font-family="Helvetica,sans-Serif" font-size="10.00">firmware/wombat/src</text>
<text text-anchor="middle" x="198" y="-144.5" font-family="Helvetica,sans-Serif" font-size="10.00">/main.cpp</text>
</a>
</g>
</g>
<!-- Node1&#45;&gt;Node13 -->
<g id="edge34" class="edge">
<title>Node1&#45;&gt;Node13</title>
<path fill="none" stroke="#63b8ff" d="M775.19,-375.73C616.66,-372.49 276.78,-361.55 237,-327 189.92,-286.11 192.85,-201.72 196.19,-167.94"/>
<polygon fill="#63b8ff" stroke="#63b8ff" points="775.3,-379.23 785.37,-375.93 775.44,-372.23 775.3,-379.23"/>
</g>
<!-- Node14 -->
<g id="node14" class="node">
<title>Node14</title>
<g id="a_node14"><a xlink:href="mqtt__stack_8cpp.html" target="_top" xlink:title=" ">
<polygon fill="white" stroke="#666666" points="396,-167.5 276,-167.5 276,-137.5 396,-137.5 396,-167.5"/>
<text text-anchor="start" x="284" y="-155.5" font-family="Helvetica,sans-Serif" font-size="10.00">firmware/wombat/src</text>
<text text-anchor="middle" x="336" y="-144.5" font-family="Helvetica,sans-Serif" font-size="10.00">/mqtt_stack.cpp</text>
</a>
</g>
</g>
<!-- Node1&#45;&gt;Node14 -->
<g id="edge35" class="edge">
<title>Node1&#45;&gt;Node14</title>
<path fill="none" stroke="#63b8ff" d="M775.01,-376.14C620.53,-373.64 296.02,-364 262,-327 226.51,-288.39 238.55,-255.91 262,-209 271.12,-190.76 289.4,-176.96 305.51,-167.68"/>
<polygon fill="#63b8ff" stroke="#63b8ff" points="775.33,-379.64 785.39,-376.3 775.44,-372.64 775.33,-379.64"/>
</g>
<!-- Node15 -->
<g id="node15" class="node">
<title>Node15</title>
<g id="a_node15"><a xlink:href="_device_config_8cpp.html" target="_top" xlink:title=" ">
<polygon fill="white" stroke="#666666" points="985,-244.5 865,-244.5 865,-214.5 985,-214.5 985,-244.5"/>
<text text-anchor="start" x="873" y="-232.5" font-family="Helvetica,sans-Serif" font-size="10.00">firmware/wombat/src</text>
<text text-anchor="middle" x="925" y="-221.5" font-family="Helvetica,sans-Serif" font-size="10.00">/DeviceConfig.cpp</text>
</a>
</g>
</g>
<!-- Node1&#45;&gt;Node15 -->
<g id="edge29" class="edge">
<title>Node1&#45;&gt;Node15</title>
<path fill="none" stroke="#63b8ff" d="M909.25,-358.29C922.98,-350.77 936.1,-340.58 944,-327 959.29,-300.73 944.13,-264.34 933.47,-244.6"/>
<polygon fill="#63b8ff" stroke="#63b8ff" points="907.55,-355.23 900.2,-362.85 910.7,-361.48 907.55,-355.23"/>
</g>
<!-- Node17 -->
<g id="node17" class="node">
<title>Node17</title>
<g id="a_node17"><a xlink:href="config__cli_8h.html" target="_top" xlink:title=" ">
<polygon fill="white" stroke="#666666" points="429,-321.5 271,-321.5 271,-291.5 429,-291.5 429,-321.5"/>
<text text-anchor="start" x="279" y="-309.5" font-family="Helvetica,sans-Serif" font-size="10.00">firmware/wombat/include</text>
<text text-anchor="middle" x="350" y="-298.5" font-family="Helvetica,sans-Serif" font-size="10.00">/cli/device_config/config_cli.h</text>
</a>
</g>
</g>
<!-- Node1&#45;&gt;Node17 -->
<g id="edge18" class="edge">
<title>Node1&#45;&gt;Node17</title>
<path fill="none" stroke="#63b8ff" d="M775.4,-369.75C690.97,-361.59 554.66,-346.85 438,-327 428.74,-325.42 418.99,-323.52 409.49,-321.52"/>
<polygon fill="#63b8ff" stroke="#63b8ff" points="775.14,-373.24 785.43,-370.71 775.81,-366.27 775.14,-373.24"/>
</g>
<!-- Node19 -->
<g id="node19" class="node">
<title>Node19</title>
<g id="a_node19"><a xlink:href="ftp__cli_8h.html" target="_top" xlink:title="FTP setup and configuration through the CLI.">
<polygon fill="white" stroke="#666666" points="759,-321.5 617,-321.5 617,-291.5 759,-291.5 759,-321.5"/>
<text text-anchor="start" x="625" y="-309.5" font-family="Helvetica,sans-Serif" font-size="10.00">firmware/wombat/include</text>
<text text-anchor="middle" x="688" y="-298.5" font-family="Helvetica,sans-Serif" font-size="10.00">/cli/device_config/ftp_cli.h</text>
</a>
</g>
</g>
<!-- Node1&#45;&gt;Node19 -->
<g id="edge21" class="edge">
<title>Node1&#45;&gt;Node19</title>
<path fill="none" stroke="#63b8ff" d="M812.76,-359.11C784.5,-347.42 748.12,-332.37 721.95,-321.54"/>
<polygon fill="#63b8ff" stroke="#63b8ff" points="811.42,-362.35 822,-362.94 814.1,-355.88 811.42,-362.35"/>
</g>
<!-- Node21 -->
<g id="node21" class="node">
<title>Node21</title>
<g id="a_node21"><a xlink:href="mqtt__cli_8h.html" target="_top" xlink:title="MQTT setup and configuration through the CLI.">
<polygon fill="white" stroke="#666666" points="599,-321.5 447,-321.5 447,-291.5 599,-291.5 599,-321.5"/>
<text text-anchor="start" x="455" y="-309.5" font-family="Helvetica,sans-Serif" font-size="10.00">firmware/wombat/include</text>
<text text-anchor="middle" x="523" y="-298.5" font-family="Helvetica,sans-Serif" font-size="10.00">/cli/device_config/mqtt_cli.h</text>
</a>
</g>
</g>
<!-- Node1&#45;&gt;Node21 -->
<g id="edge25" class="edge">
<title>Node1&#45;&gt;Node21</title>
<path fill="none" stroke="#63b8ff" d="M775.52,-361.34C726.94,-351.74 663.84,-339.03 608,-327 600.01,-325.28 591.61,-323.41 583.32,-321.55"/>
<polygon fill="#63b8ff" stroke="#63b8ff" points="774.86,-364.77 785.34,-363.27 776.21,-357.9 774.86,-364.77"/>
</g>
<!-- Node23 -->
<g id="node23" class="node">
<title>Node23</title>
<g id="a_node23"><a xlink:href="_sensor_task_8cpp.html" target="_top" xlink:title=" ">
<polygon fill="white" stroke="#666666" points="1111,-321.5 991,-321.5 991,-291.5 1111,-291.5 1111,-321.5"/>
<text text-anchor="start" x="999" y="-309.5" font-family="Helvetica,sans-Serif" font-size="10.00">firmware/wombat/src</text>
<text text-anchor="middle" x="1051" y="-298.5" font-family="Helvetica,sans-Serif" font-size="10.00">/SensorTask.cpp</text>
</a>
</g>
</g>
<!-- Node1&#45;&gt;Node23 -->
<g id="edge30" class="edge">
<title>Node1&#45;&gt;Node23</title>
<path fill="none" stroke="#63b8ff" d="M904.91,-359.57C937.89,-347.81 980.82,-332.51 1011.6,-321.54"/>
<polygon fill="#63b8ff" stroke="#63b8ff" points="903.71,-356.28 895.46,-362.94 906.06,-362.88 903.71,-356.28"/>
</g>
<!-- Node24 -->
<g id="node24" class="node">
<title>Node24</title>
<g id="a_node24"><a xlink:href="_utils_8cpp.html" target="_top" xlink:title="Global utility functions.">
<polygon fill="white" stroke="#666666" points="1249,-321.5 1129,-321.5 1129,-291.5 1249,-291.5 1249,-321.5"/>
<text text-anchor="start" x="1137" y="-309.5" font-family="Helvetica,sans-Serif" font-size="10.00">firmware/wombat/src</text>
<text text-anchor="middle" x="1189" y="-298.5" font-family="Helvetica,sans-Serif" font-size="10.00">/Utils.cpp</text>
</a>
</g>
</g>
<!-- Node1&#45;&gt;Node24 -->
<g id="edge31" class="edge">
<title>Node1&#45;&gt;Node24</title>
<path fill="none" stroke="#63b8ff" d="M936.59,-363.64C989.08,-354.47 1058.89,-341.39 1120,-327 1126.91,-325.37 1134.16,-323.5 1141.26,-321.58"/>
<polygon fill="#63b8ff" stroke="#63b8ff" points="935.92,-360.2 926.67,-365.36 937.12,-367.1 935.92,-360.2"/>
</g>
<!-- Node25 -->
<g id="node25" class="node">
<title>Node25</title>
<g id="a_node25"><a xlink:href="device_8cpp.html" target="_top" xlink:title="Setup BluetoothLE device information services and characteristics.">
<polygon fill="white" stroke="#666666" points="1389,-321.5 1267,-321.5 1267,-291.5 1389,-291.5 1389,-321.5"/>
<text text-anchor="start" x="1275" y="-309.5" font-family="Helvetica,sans-Serif" font-size="10.00">firmware/wombat/src</text>
<text text-anchor="middle" x="1328" y="-298.5" font-family="Helvetica,sans-Serif" font-size="10.00">/bluetooth/device.cpp</text>
</a>
</g>
</g>
<!-- Node1&#45;&gt;Node25 -->
<g id="edge32" class="edge">
<title>Node1&#45;&gt;Node25</title>
<path fill="none" stroke="#63b8ff" d="M936.78,-370.49C1018.36,-363.09 1147.73,-349.09 1258,-327 1265.55,-325.49 1273.47,-323.59 1281.16,-321.57"/>
<polygon fill="#63b8ff" stroke="#63b8ff" points="936.23,-367.03 926.58,-371.41 936.86,-374 936.23,-367.03"/>
</g>
<!-- Node26 -->
<g id="node26" class="node">
<title>Node26</title>
<g id="a_node26"><a xlink:href="ulp_8cpp.html" target="_top" xlink:title=" ">
<polygon fill="white" stroke="#666666" points="1527,-321.5 1407,-321.5 1407,-291.5 1527,-291.5 1527,-321.5"/>
<text text-anchor="start" x="1415" y="-309.5" font-family="Helvetica,sans-Serif" font-size="10.00">firmware/wombat/src</text>
<text text-anchor="middle" x="1467" y="-298.5" font-family="Helvetica,sans-Serif" font-size="10.00">/ulp.cpp</text>
</a>
</g>
</g>
<!-- Node1&#45;&gt;Node26 -->
<g id="edge36" class="edge">
<title>Node1&#45;&gt;Node26</title>
<path fill="none" stroke="#63b8ff" d="M936.76,-374.17C1043.22,-369.39 1235.99,-357.1 1398,-327 1405.71,-325.57 1413.8,-323.66 1421.63,-321.6"/>
<polygon fill="#63b8ff" stroke="#63b8ff" points="936.56,-370.68 926.73,-374.61 936.87,-377.67 936.56,-370.68"/>
</g>
<!-- Node27 -->
<g id="node27" class="node">
<title>Node27</title>
<g id="a_node27"><a xlink:href="uplinks_8cpp.html" target="_top" xlink:title=" ">
<polygon fill="white" stroke="#666666" points="1665,-321.5 1545,-321.5 1545,-291.5 1665,-291.5 1665,-321.5"/>
<text text-anchor="start" x="1553" y="-309.5" font-family="Helvetica,sans-Serif" font-size="10.00">firmware/wombat/src</text>
<text text-anchor="middle" x="1605" y="-298.5" font-family="Helvetica,sans-Serif" font-size="10.00">/uplinks.cpp</text>
</a>
</g>
</g>
<!-- Node1&#45;&gt;Node27 -->
<g id="edge37" class="edge">
<title>Node1&#45;&gt;Node27</title>
<path fill="none" stroke="#63b8ff" d="M936.68,-376.32C1064.69,-374.07 1321.76,-364.75 1536,-327 1543.97,-325.6 1552.34,-323.65 1560.39,-321.52"/>
<polygon fill="#63b8ff" stroke="#63b8ff" points="936.51,-372.82 926.57,-376.49 936.63,-379.82 936.51,-372.82"/>
</g>
<!-- Node3 -->
<g id="node3" class="node">
<title>Node3</title>
<g id="a_node3"><a xlink:href="_c_l_i_8h.html" target="_top" xlink:title="FreeRTOS CLI handler.">
<polygon fill="white" stroke="#666666" points="708.5,-244.5 567.5,-244.5 567.5,-214.5 708.5,-214.5 708.5,-244.5"/>
<text text-anchor="start" x="575.5" y="-232.5" font-family="Helvetica,sans-Serif" font-size="10.00">firmware/wombat/include</text>
<text text-anchor="middle" x="638" y="-221.5" font-family="Helvetica,sans-Serif" font-size="10.00">/cli/CLI.h</text>
</a>
</g>
</g>
<!-- Node2&#45;&gt;Node3 -->
<g id="edge2" class="edge">
<title>Node2&#45;&gt;Node3</title>
<path fill="none" stroke="#63b8ff" d="M789.8,-282.73C753.69,-270.3 710.11,-255.31 678.93,-244.58"/>
<polygon fill="#63b8ff" stroke="#63b8ff" points="788.7,-286.05 799.29,-285.99 790.97,-279.43 788.7,-286.05"/>
</g>
<!-- Node2&#45;&gt;Node15 -->
<g id="edge16" class="edge">
<title>Node2&#45;&gt;Node15</title>
<path fill="none" stroke="#63b8ff" d="M881.08,-278.24C891.47,-266.94 903.11,-254.3 911.79,-244.86"/>
<polygon fill="#63b8ff" stroke="#63b8ff" points="878.32,-276.07 874.13,-285.79 883.48,-280.81 878.32,-276.07"/>
</g>
<!-- Node16 -->
<g id="node16" class="node">
<title>Node16</title>
<g id="a_node16"><a xlink:href="acquisition__intervals_8cpp.html" target="_top" xlink:title="Handles the time between measurements and uplinks by the device over LTE.">
<polygon fill="white" stroke="#666666" points="1160.5,-250 1003.5,-250 1003.5,-209 1160.5,-209 1160.5,-250"/>
<text text-anchor="start" x="1011.5" y="-238" font-family="Helvetica,sans-Serif" font-size="10.00">firmware/wombat/src</text>
<text text-anchor="start" x="1011.5" y="-227" font-family="Helvetica,sans-Serif" font-size="10.00">/cli/device_config/acquisition</text>
<text text-anchor="middle" x="1082" y="-216" font-family="Helvetica,sans-Serif" font-size="10.00">_intervals.cpp</text>
</a>
</g>
</g>
<!-- Node2&#45;&gt;Node16 -->
<g id="edge17" class="edge">
<title>Node2&#45;&gt;Node16</title>
<path fill="none" stroke="#63b8ff" d="M924.37,-282.81C955.87,-272.36 992.87,-260.08 1023.11,-250.04"/>
<polygon fill="#63b8ff" stroke="#63b8ff" points="923.18,-279.52 914.79,-285.99 925.38,-286.16 923.18,-279.52"/>
</g>
<!-- Node4 -->
<g id="node4" class="node">
<title>Node4</title>
<g id="a_node4"><a xlink:href="server_8h.html" target="_top" xlink:title="Handle the setup and maintenance of the BLE server and connected clients.">
<polygon fill="white" stroke="#666666" points="711.5,-167.5 570.5,-167.5 570.5,-137.5 711.5,-137.5 711.5,-167.5"/>
<text text-anchor="start" x="578.5" y="-155.5" font-family="Helvetica,sans-Serif" font-size="10.00">firmware/wombat/include</text>
<text text-anchor="middle" x="641" y="-144.5" font-family="Helvetica,sans-Serif" font-size="10.00">/bluetooth/server.h</text>
</a>
</g>
</g>
<!-- Node3&#45;&gt;Node4 -->
<g id="edge3" class="edge">
<title>Node3&#45;&gt;Node4</title>
<path fill="none" stroke="#63b8ff" d="M632.61,-204.04C632.36,-191.95 633.25,-177.79 635.04,-167.54"/>
<polygon fill="#63b8ff" stroke="#63b8ff" points="629.13,-204.59 633.15,-214.39 636.12,-204.22 629.13,-204.59"/>
</g>
<!-- Node8 -->
<g id="node8" class="node">
<title>Node8</title>
<g id="a_node8"><a xlink:href="_c_l_i_8cpp.html" target="_top" xlink:title="FreeRTOS CLI handler.">
<polygon fill="white" stroke="#666666" points="850,-167.5 730,-167.5 730,-137.5 850,-137.5 850,-167.5"/>
<text text-anchor="start" x="738" y="-155.5" font-family="Helvetica,sans-Serif" font-size="10.00">firmware/wombat/src</text>
<text text-anchor="middle" x="790" y="-144.5" font-family="Helvetica,sans-Serif" font-size="10.00">/cli/CLI.cpp</text>
</a>
</g>
</g>
<!-- Node3&#45;&gt;Node8 -->
<g id="edge9" class="edge">
<title>Node3&#45;&gt;Node8</title>
<path fill="none" stroke="#63b8ff" d="M675.61,-209.94C702.19,-196.83 737.27,-179.52 761.54,-167.54"/>
<polygon fill="#63b8ff" stroke="#63b8ff" points="674.01,-206.83 666.59,-214.39 677.11,-213.11 674.01,-206.83"/>
</g>
<!-- Node9 -->
<g id="node9" class="node">
<title>Node9</title>
<g id="a_node9"><a xlink:href="cat-m1_8cpp.html" target="_top" xlink:title="CAT&#45;M1 CLI command request and response handler.">
<polygon fill="white" stroke="#666666" points="988,-173 868,-173 868,-132 988,-132 988,-173"/>
<text text-anchor="start" x="876" y="-161" font-family="Helvetica,sans-Serif" font-size="10.00">firmware/wombat/src</text>
<text text-anchor="start" x="876" y="-150" font-family="Helvetica,sans-Serif" font-size="10.00">/cli/peripherals/cat</text>
<text text-anchor="middle" x="928" y="-139" font-family="Helvetica,sans-Serif" font-size="10.00">&#45;m1.cpp</text>
</a>
</g>
</g>
<!-- Node3&#45;&gt;Node9 -->
<g id="edge10" class="edge">
<title>Node3&#45;&gt;Node9</title>
<path fill="none" stroke="#63b8ff" d="M704.62,-212C758.57,-198.59 830.17,-180.69 859,-173 861.89,-172.23 864.84,-171.43 867.82,-170.62"/>
<polygon fill="#63b8ff" stroke="#63b8ff" points="703.63,-208.64 694.77,-214.44 705.32,-215.43 703.63,-208.64"/>
</g>
<!-- Node10 -->
<g id="node10" class="node">
<title>Node10</title>
<g id="a_node10"><a xlink:href="sd__card_8cpp.html" target="_top" xlink:title=" ">
<polygon fill="white" stroke="#666666" points="1126,-173 1006,-173 1006,-132 1126,-132 1126,-173"/>
<text text-anchor="start" x="1014" y="-161" font-family="Helvetica,sans-Serif" font-size="10.00">firmware/wombat/src</text>
<text text-anchor="start" x="1014" y="-150" font-family="Helvetica,sans-Serif" font-size="10.00">/cli/peripherals/sd</text>
<text text-anchor="middle" x="1066" y="-139" font-family="Helvetica,sans-Serif" font-size="10.00">_card.cpp</text>
</a>
</g>
</g>
<!-- Node3&#45;&gt;Node10 -->
<g id="edge11" class="edge">
<title>Node3&#45;&gt;Node10</title>
<path fill="none" stroke="#63b8ff" d="M701.83,-212.27C707.29,-211.09 712.73,-209.98 718,-209 840.92,-186.16 874.51,-198.07 997,-173 999.93,-172.4 1002.91,-171.74 1005.92,-171.04"/>
<polygon fill="#63b8ff" stroke="#63b8ff" points="701.04,-208.86 692.05,-214.47 702.57,-215.69 701.04,-208.86"/>
</g>
<!-- Node11 -->
<g id="node11" class="node">
<title>Node11</title>
<g id="a_node11"><a xlink:href="sdi12_8cpp.html" target="_top" xlink:title="SDI&#45;12 command line interface handler.">
<polygon fill="white" stroke="#666666" points="552,-167.5 414,-167.5 414,-137.5 552,-137.5 552,-167.5"/>
<text text-anchor="start" x="422" y="-155.5" font-family="Helvetica,sans-Serif" font-size="10.00">firmware/wombat/src</text>
<text text-anchor="middle" x="483" y="-144.5" font-family="Helvetica,sans-Serif" font-size="10.00">/cli/peripherals/sdi12.cpp</text>
</a>
</g>
</g>
<!-- Node3&#45;&gt;Node11 -->
<g id="edge12" class="edge">
<title>Node3&#45;&gt;Node11</title>
<path fill="none" stroke="#63b8ff" d="M599.65,-209.94C572.55,-196.83 536.77,-179.52 512.02,-167.54"/>
<polygon fill="#63b8ff" stroke="#63b8ff" points="598.32,-213.19 608.85,-214.39 601.37,-206.89 598.32,-213.19"/>
</g>
<!-- Node3&#45;&gt;Node12 -->
<g id="edge13" class="edge">
<title>Node3&#45;&gt;Node12</title>
<path fill="none" stroke="#63b8ff" d="M575.82,-212.18C570.16,-210.99 564.49,-209.9 559,-209 369.75,-177.92 317.7,-207.24 129,-173 121.16,-171.58 112.93,-169.65 104.99,-167.55"/>
<polygon fill="#63b8ff" stroke="#63b8ff" points="575.45,-215.68 585.97,-214.42 576.96,-208.85 575.45,-215.68"/>
</g>
<!-- Node3&#45;&gt;Node13 -->
<g id="edge14" class="edge">
<title>Node3&#45;&gt;Node13</title>
<path fill="none" stroke="#63b8ff" d="M574.57,-212.14C569.32,-211 564.08,-209.94 559,-209 430.41,-185.29 395.18,-198.86 267,-173 259.56,-171.5 251.74,-169.61 244.16,-167.59"/>
<polygon fill="#63b8ff" stroke="#63b8ff" points="574.12,-215.63 584.64,-214.41 575.66,-208.8 574.12,-215.63"/>
</g>
<!-- Node3&#45;&gt;Node14 -->
<g id="edge15" class="edge">
<title>Node3&#45;&gt;Node14</title>
<path fill="none" stroke="#63b8ff" d="M571.55,-212.04C567.31,-211 563.1,-209.98 559,-209 490.66,-192.58 473.06,-190.56 405,-173 398.37,-171.29 391.4,-169.41 384.55,-167.52"/>
<polygon fill="#63b8ff" stroke="#63b8ff" points="570.94,-215.49 581.49,-214.46 572.6,-208.69 570.94,-215.49"/>
</g>
<!-- Node4&#45;&gt;Node3 -->
<g id="edge7" class="edge">
<title>Node4&#45;&gt;Node3</title>
<path fill="none" stroke="#63b8ff" d="M646.39,-177.88C646.64,-189.97 645.75,-204.13 643.98,-214.39"/>
<polygon fill="#63b8ff" stroke="#63b8ff" points="649.87,-177.34 645.84,-167.54 642.88,-177.72 649.87,-177.34"/>
</g>
<!-- Node5 -->
<g id="node5" class="node">
<title>Node5</title>
<g id="a_node5"><a xlink:href="uart_8h.html" target="_top" xlink:title="BluetoothLE UART service setup and handling.">
<polygon fill="white" stroke="#666666" points="711.5,-96 570.5,-96 570.5,-66 711.5,-66 711.5,-96"/>
<text text-anchor="start" x="578.5" y="-84" font-family="Helvetica,sans-Serif" font-size="10.00">firmware/wombat/include</text>
<text text-anchor="middle" x="641" y="-73" font-family="Helvetica,sans-Serif" font-size="10.00">/bluetooth/uart.h</text>
</a>
</g>
</g>
<!-- Node4&#45;&gt;Node5 -->
<g id="edge4" class="edge">
<title>Node4&#45;&gt;Node5</title>
<path fill="none" stroke="#63b8ff" d="M634.53,-127.25C633.96,-116.81 634.26,-104.99 635.45,-96.04"/>
<polygon fill="#63b8ff" stroke="#63b8ff" points="631.07,-127.79 635.45,-137.44 638.04,-127.16 631.07,-127.79"/>
</g>
<!-- Node7 -->
<g id="node7" class="node">
<title>Node7</title>
<g id="a_node7"><a xlink:href="server_8cpp.html" target="_top" xlink:title="Setup and start BluetoothLE server.">
<polygon fill="white" stroke="#666666" points="850,-96 730,-96 730,-66 850,-66 850,-96"/>
<text text-anchor="start" x="738" y="-84" font-family="Helvetica,sans-Serif" font-size="10.00">firmware/wombat/src</text>
<text text-anchor="middle" x="790" y="-73" font-family="Helvetica,sans-Serif" font-size="10.00">/bluetooth/server.cpp</text>
</a>
</g>
</g>
<!-- Node4&#45;&gt;Node7 -->
<g id="edge8" class="edge">
<title>Node4&#45;&gt;Node7</title>
<path fill="none" stroke="#63b8ff" d="M680.34,-133.15C705.25,-121.53 736.98,-106.73 759.89,-96.04"/>
<polygon fill="#63b8ff" stroke="#63b8ff" points="678.74,-130.04 671.15,-137.44 681.69,-136.38 678.74,-130.04"/>
</g>
<!-- Node5&#45;&gt;Node4 -->
<g id="edge5" class="edge">
<title>Node5&#45;&gt;Node4</title>
<path fill="none" stroke="#63b8ff" d="M647.47,-106.23C648.04,-116.66 647.74,-128.49 646.55,-137.44"/>
<polygon fill="#63b8ff" stroke="#63b8ff" points="650.93,-105.69 646.55,-96.04 643.96,-106.32 650.93,-105.69"/>
</g>
<!-- Node6 -->
<g id="node6" class="node">
<title>Node6</title>
<g id="a_node6"><a xlink:href="uart_8cpp.html" target="_top" xlink:title="BluetoothLE UART service setup and handling.">
<polygon fill="white" stroke="#666666" points="701,-30 581,-30 581,0 701,0 701,-30"/>
<text text-anchor="start" x="589" y="-18" font-family="Helvetica,sans-Serif" font-size="10.00">firmware/wombat/src</text>
<text text-anchor="middle" x="641" y="-7" font-family="Helvetica,sans-Serif" font-size="10.00">/bluetooth/uart.cpp</text>
</a>
</g>
</g>
<!-- Node5&#45;&gt;Node6 -->
<g id="edge6" class="edge">
<title>Node5&#45;&gt;Node6</title>
<path fill="none" stroke="#63b8ff" d="M641,-55.54C641,-46.96 641,-37.61 641,-30.16"/>
<polygon fill="#63b8ff" stroke="#63b8ff" points="637.5,-55.8 641,-65.8 644.5,-55.8 637.5,-55.8"/>
</g>
<!-- Node17&#45;&gt;Node3 -->
<g id="edge19" class="edge">
<title>Node17&#45;&gt;Node3</title>
<path fill="none" stroke="#63b8ff" d="M413.77,-288.89C464.82,-275.6 535.64,-257.16 583.94,-244.58"/>
<polygon fill="#63b8ff" stroke="#63b8ff" points="412.63,-285.57 403.83,-291.48 414.39,-292.35 412.63,-285.57"/>
</g>
<!-- Node18 -->
<g id="node18" class="node">
<title>Node18</title>
<g id="a_node18"><a xlink:href="config__cli_8cpp.html" target="_top" xlink:title="Command line interface node configuration commands.">
<polygon fill="white" stroke="#666666" points="404.5,-250 271.5,-250 271.5,-209 404.5,-209 404.5,-250"/>
<text text-anchor="start" x="279.5" y="-238" font-family="Helvetica,sans-Serif" font-size="10.00">firmware/wombat/src</text>
<text text-anchor="start" x="279.5" y="-227" font-family="Helvetica,sans-Serif" font-size="10.00">/cli/device_config/config</text>
<text text-anchor="middle" x="338" y="-216" font-family="Helvetica,sans-Serif" font-size="10.00">_cli.cpp</text>
</a>
</g>
</g>
<!-- Node17&#45;&gt;Node18 -->
<g id="edge20" class="edge">
<title>Node17&#45;&gt;Node18</title>
<path fill="none" stroke="#63b8ff" d="M346.12,-281.23C344.51,-271.2 342.67,-259.71 341.15,-250.2"/>
<polygon fill="#63b8ff" stroke="#63b8ff" points="342.71,-282.07 347.74,-291.39 349.62,-280.97 342.71,-282.07"/>
</g>
<!-- Node19&#45;&gt;Node3 -->
<g id="edge22" class="edge">
<title>Node19&#45;&gt;Node3</title>
<path fill="none" stroke="#63b8ff" d="M672.92,-282.88C664.6,-270.41 654.54,-255.32 647.36,-244.54"/>
<polygon fill="#63b8ff" stroke="#63b8ff" points="670.14,-285.01 678.6,-291.39 675.96,-281.13 670.14,-285.01"/>
</g>
<!-- Node19&#45;&gt;Node15 -->
<g id="edge23" class="edge">
<title>Node19&#45;&gt;Node15</title>
<path fill="none" stroke="#63b8ff" d="M742.06,-288.39C783.94,-275.14 841.26,-257 880.52,-244.58"/>
<polygon fill="#63b8ff" stroke="#63b8ff" points="740.78,-285.13 732.3,-291.48 742.89,-291.8 740.78,-285.13"/>
</g>
<!-- Node20 -->
<g id="node20" class="node">
<title>Node20</title>
<g id="a_node20"><a xlink:href="ftp__cli_8cpp.html" target="_top" xlink:title="FTP setup and configuration through the CLI.">
<polygon fill="white" stroke="#666666" points="847,-250 727,-250 727,-209 847,-209 847,-250"/>
<text text-anchor="start" x="735" y="-238" font-family="Helvetica,sans-Serif" font-size="10.00">firmware/wombat/src</text>
<text text-anchor="start" x="735" y="-227" font-family="Helvetica,sans-Serif" font-size="10.00">/cli/device_config/ftp</text>
<text text-anchor="middle" x="787" y="-216" font-family="Helvetica,sans-Serif" font-size="10.00">_cli.cpp</text>
</a>
</g>
</g>
<!-- Node19&#45;&gt;Node20 -->
<g id="edge24" class="edge">
<title>Node19&#45;&gt;Node20</title>
<path fill="none" stroke="#63b8ff" d="M714.66,-285.31C729.04,-274.41 746.71,-261.02 760.99,-250.2"/>
<polygon fill="#63b8ff" stroke="#63b8ff" points="712.48,-282.56 706.62,-291.39 716.71,-288.14 712.48,-282.56"/>
</g>
<!-- Node21&#45;&gt;Node3 -->
<g id="edge26" class="edge">
<title>Node21&#45;&gt;Node3</title>
<path fill="none" stroke="#63b8ff" d="M553.05,-285.9C572.95,-272.93 598.58,-256.21 616.47,-244.54"/>
<polygon fill="#63b8ff" stroke="#63b8ff" points="551.09,-283 544.63,-291.39 554.92,-288.86 551.09,-283"/>
</g>
<!-- Node21&#45;&gt;Node15 -->
<g id="edge27" class="edge">
<title>Node21&#45;&gt;Node15</title>
<path fill="none" stroke="#63b8ff" d="M591.44,-289.29C597.03,-288.12 602.61,-287.01 608,-286 717.48,-265.53 747.06,-273.19 856,-250 863.31,-248.44 870.98,-246.55 878.44,-244.55"/>
<polygon fill="#63b8ff" stroke="#63b8ff" points="590.44,-285.93 581.4,-291.45 591.91,-292.77 590.44,-285.93"/>
</g>
<!-- Node22 -->
<g id="node22" class="node">
<title>Node22</title>
<g id="a_node22"><a xlink:href="mqtt__cli_8cpp.html" target="_top" xlink:title="MQTT setup and configuration through the CLI.">
<polygon fill="white" stroke="#666666" points="549.5,-250 422.5,-250 422.5,-209 549.5,-209 549.5,-250"/>
<text text-anchor="start" x="430.5" y="-238" font-family="Helvetica,sans-Serif" font-size="10.00">firmware/wombat/src</text>
<text text-anchor="start" x="430.5" y="-227" font-family="Helvetica,sans-Serif" font-size="10.00">/cli/device_config/mqtt</text>
<text text-anchor="middle" x="486" y="-216" font-family="Helvetica,sans-Serif" font-size="10.00">_cli.cpp</text>
</a>
</g>
</g>
<!-- Node21&#45;&gt;Node22 -->
<g id="edge28" class="edge">
<title>Node21&#45;&gt;Node22</title>
<path fill="none" stroke="#63b8ff" d="M511.5,-282.19C506.44,-271.93 500.56,-260.01 495.72,-250.2"/>
<polygon fill="#63b8ff" stroke="#63b8ff" points="508.48,-283.97 516.04,-291.39 514.76,-280.88 508.48,-283.97"/>
</g>
</g>
</svg>
