<?xml version="1.0" encoding="UTF-8" standalone="no"?>
<!DOCTYPE svg PUBLIC "-//W3C//DTD SVG 1.1//EN"
 "http://www.w3.org/Graphics/SVG/1.1/DTD/svg11.dtd">
<!-- Generated by graphviz version 2.43.0 (0)
 -->
<!-- Title: firmware/wombat/include/DeviceConfig.h Pages: 1 -->
<svg width="1331pt" height="390pt"
 viewBox="0.00 0.00 1331.00 390.00" xmlns="http://www.w3.org/2000/svg" xmlns:xlink="http://www.w3.org/1999/xlink">
<g id="graph0" class="graph" transform="scale(1 1) rotate(0) translate(4 386)">
<title>firmware/wombat/include/DeviceConfig.h</title>
<!-- Node1 -->
<g id="node1" class="node">
<title>Node1</title>
<g id="a_node1"><a xlink:title="Node configuration options.">
<polygon fill="#999999" stroke="#666666" points="691.5,-382 550.5,-382 550.5,-352 691.5,-352 691.5,-382"/>
<text text-anchor="start" x="558.5" y="-370" font-family="Helvetica,sans-Serif" font-size="10.00">firmware/wombat/include</text>
<text text-anchor="middle" x="621" y="-359" font-family="Helvetica,sans-Serif" font-size="10.00">/DeviceConfig.h</text>
</a>
</g>
</g>
<!-- Node2 -->
<g id="node2" class="node">
<title>Node2</title>
<g id="a_node2"><a xlink:href="acquisition__intervals_8h.html" target="_top" xlink:title="Handles the time between measurements and uplinks by the device over LTE.">
<polygon fill="white" stroke="#666666" points="592.5,-316 435.5,-316 435.5,-275 592.5,-275 592.5,-316"/>
<text text-anchor="start" x="443.5" y="-304" font-family="Helvetica,sans-Serif" font-size="10.00">firmware/wombat/include</text>
<text text-anchor="start" x="443.5" y="-293" font-family="Helvetica,sans-Serif" font-size="10.00">/cli/device_config/acquisition</text>
<text text-anchor="middle" x="514" y="-282" font-family="Helvetica,sans-Serif" font-size="10.00">_intervals.h</text>
</a>
</g>
</g>
<!-- Node1&#45;&gt;Node2 -->
<g id="edge1" class="edge">
<title>Node1&#45;&gt;Node2</title>
<path fill="none" stroke="#63b8ff" d="M590.69,-346.31C576.11,-336.84 558.69,-325.53 544.13,-316.07"/>
<polygon fill="#63b8ff" stroke="#63b8ff" points="589.05,-349.42 599.35,-351.94 592.87,-343.55 589.05,-349.42"/>
</g>
<!-- Node9 -->
<g id="node9" class="node">
<title>Node9</title>
<g id="a_node9"><a xlink:href="main_8cpp.html" target="_top" xlink:title=" ">
<polygon fill="white" stroke="#666666" points="120,-162 0,-162 0,-132 120,-132 120,-162"/>
<text text-anchor="start" x="8" y="-150" font-family="Helvetica,sans-Serif" font-size="10.00">firmware/wombat/src</text>
<text text-anchor="middle" x="60" y="-139" font-family="Helvetica,sans-Serif" font-size="10.00">/main.cpp</text>
</a>
</g>
</g>
<!-- Node1&#45;&gt;Node9 -->
<g id="edge25" class="edge">
<title>Node1&#45;&gt;Node9</title>
<path fill="none" stroke="#63b8ff" d="M540.46,-364.8C391.53,-361.75 85.25,-351.21 53,-316 13.57,-272.94 40.02,-194.62 53.48,-162.42"/>
<polygon fill="#63b8ff" stroke="#63b8ff" points="540.4,-368.3 550.47,-365 540.54,-361.3 540.4,-368.3"/>
</g>
<!-- Node10 -->
<g id="node10" class="node">
<title>Node10</title>
<g id="a_node10"><a xlink:href="mqtt__stack_8cpp.html" target="_top" xlink:title=" ">
<polygon fill="white" stroke="#666666" points="331,-162 211,-162 211,-132 331,-132 331,-162"/>
<text text-anchor="start" x="219" y="-150" font-family="Helvetica,sans-Serif" font-size="10.00">firmware/wombat/src</text>
<text text-anchor="middle" x="271" y="-139" font-family="Helvetica,sans-Serif" font-size="10.00">/mqtt_stack.cpp</text>
</a>
</g>
</g>
<!-- Node1&#45;&gt;Node10 -->
<g id="edge26" class="edge">
<title>Node1&#45;&gt;Node10</title>
<path fill="none" stroke="#63b8ff" d="M540.31,-364.41C397.05,-360.75 110.37,-349.31 80,-316 44.66,-277.25 47.95,-239.51 80,-198 96.02,-177.24 161.12,-163.44 210.9,-155.69"/>
<polygon fill="#63b8ff" stroke="#63b8ff" points="540.29,-367.91 550.37,-364.66 540.46,-360.92 540.29,-367.91"/>
</g>
<!-- Node11 -->
<g id="node11" class="node">
<title>Node11</title>
<g id="a_node11"><a xlink:href="_device_config_8cpp.html" target="_top" xlink:title=" ">
<polygon fill="white" stroke="#666666" points="665,-233.5 545,-233.5 545,-203.5 665,-203.5 665,-233.5"/>
<text text-anchor="start" x="553" y="-221.5" font-family="Helvetica,sans-Serif" font-size="10.00">firmware/wombat/src</text>
<text text-anchor="middle" x="605" y="-210.5" font-family="Helvetica,sans-Serif" font-size="10.00">/DeviceConfig.cpp</text>
</a>
</g>
</g>
<!-- Node1&#45;&gt;Node11 -->
<g id="edge21" class="edge">
<title>Node1&#45;&gt;Node11</title>
<path fill="none" stroke="#63b8ff" d="M618.34,-341.65C614.97,-310.82 609.28,-258.72 606.55,-233.72"/>
<polygon fill="#63b8ff" stroke="#63b8ff" points="614.9,-342.39 619.47,-351.95 621.86,-341.63 614.9,-342.39"/>
</g>
<!-- Node13 -->
<g id="node13" class="node">
<title>Node13</title>
<g id="a_node13"><a xlink:href="config__cli_8h.html" target="_top" xlink:title=" ">
<polygon fill="white" stroke="#666666" points="247,-310.5 89,-310.5 89,-280.5 247,-280.5 247,-310.5"/>
<text text-anchor="start" x="97" y="-298.5" font-family="Helvetica,sans-Serif" font-size="10.00">firmware/wombat/include</text>
<text text-anchor="middle" x="168" y="-287.5" font-family="Helvetica,sans-Serif" font-size="10.00">/cli/device_config/config_cli.h</text>
</a>
</g>
</g>
<!-- Node1&#45;&gt;Node13 -->
<g id="edge14" class="edge">
<title>Node1&#45;&gt;Node13</title>
<path fill="none" stroke="#63b8ff" d="M540.22,-356.86C466.05,-348.01 353.26,-333.41 256,-316 247.07,-314.4 237.66,-312.53 228.46,-310.58"/>
<polygon fill="#63b8ff" stroke="#63b8ff" points="540.08,-360.37 550.42,-358.07 540.9,-353.42 540.08,-360.37"/>
</g>
<!-- Node15 -->
<g id="node15" class="node">
<title>Node15</title>
<g id="a_node15"><a xlink:href="mqtt__cli_8h.html" target="_top" xlink:title="MQTT setup and configuration through the CLI.">
<polygon fill="white" stroke="#666666" points="417,-310.5 265,-310.5 265,-280.5 417,-280.5 417,-310.5"/>
<text text-anchor="start" x="273" y="-298.5" font-family="Helvetica,sans-Serif" font-size="10.00">firmware/wombat/include</text>
<text text-anchor="middle" x="341" y="-287.5" font-family="Helvetica,sans-Serif" font-size="10.00">/cli/device_config/mqtt_cli.h</text>
</a>
</g>
</g>
<!-- Node1&#45;&gt;Node15 -->
<g id="edge17" class="edge">
<title>Node1&#45;&gt;Node15</title>
<path fill="none" stroke="#63b8ff" d="M554.39,-349.47C506.6,-337.61 442.91,-321.8 397.58,-310.54"/>
<polygon fill="#63b8ff" stroke="#63b8ff" points="553.79,-352.92 564.34,-351.94 555.48,-346.13 553.79,-352.92"/>
</g>
<!-- Node17 -->
<g id="node17" class="node">
<title>Node17</title>
<g id="a_node17"><a xlink:href="_sensor_task_8cpp.html" target="_top" xlink:title=" ">
<polygon fill="white" stroke="#666666" points="769,-310.5 649,-310.5 649,-280.5 769,-280.5 769,-310.5"/>
<text text-anchor="start" x="657" y="-298.5" font-family="Helvetica,sans-Serif" font-size="10.00">firmware/wombat/src</text>
<text text-anchor="middle" x="709" y="-287.5" font-family="Helvetica,sans-Serif" font-size="10.00">/SensorTask.cpp</text>
</a>
</g>
</g>
<!-- Node1&#45;&gt;Node17 -->
<g id="edge22" class="edge">
<title>Node1&#45;&gt;Node17</title>
<path fill="none" stroke="#63b8ff" d="M646.8,-345.63C661.08,-334.35 678.46,-320.62 691.22,-310.54"/>
<polygon fill="#63b8ff" stroke="#63b8ff" points="644.49,-342.99 638.81,-351.94 648.83,-348.48 644.49,-342.99"/>
</g>
<!-- Node18 -->
<g id="node18" class="node">
<title>Node18</title>
<g id="a_node18"><a xlink:href="_utils_8cpp.html" target="_top" xlink:title="Global utility functions.">
<polygon fill="white" stroke="#666666" points="907,-310.5 787,-310.5 787,-280.5 907,-280.5 907,-310.5"/>
<text text-anchor="start" x="795" y="-298.5" font-family="Helvetica,sans-Serif" font-size="10.00">firmware/wombat/src</text>
<text text-anchor="middle" x="847" y="-287.5" font-family="Helvetica,sans-Serif" font-size="10.00">/Utils.cpp</text>
</a>
</g>
</g>
<!-- Node1&#45;&gt;Node18 -->
<g id="edge23" class="edge">
<title>Node1&#45;&gt;Node18</title>
<path fill="none" stroke="#63b8ff" d="M676.71,-348.87C715.05,-337.08 765.36,-321.61 801.33,-310.54"/>
<polygon fill="#63b8ff" stroke="#63b8ff" points="675.26,-345.65 666.73,-351.94 677.32,-352.34 675.26,-345.65"/>
</g>
<!-- Node19 -->
<g id="node19" class="node">
<title>Node19</title>
<g id="a_node19"><a xlink:href="device_8cpp.html" target="_top" xlink:title="Setup BluetoothLE device information services and characteristics.">
<polygon fill="white" stroke="#666666" points="1047,-310.5 925,-310.5 925,-280.5 1047,-280.5 1047,-310.5"/>
<text text-anchor="start" x="933" y="-298.5" font-family="Helvetica,sans-Serif" font-size="10.00">firmware/wombat/src</text>
<text text-anchor="middle" x="986" y="-287.5" font-family="Helvetica,sans-Serif" font-size="10.00">/bluetooth/device.cpp</text>
</a>
</g>
</g>
<!-- Node1&#45;&gt;Node19 -->
<g id="edge24" class="edge">
<title>Node1&#45;&gt;Node19</title>
<path fill="none" stroke="#63b8ff" d="M701.83,-354.61C761.36,-345.67 844.11,-332.06 916,-316 923.14,-314.4 930.64,-312.53 937.97,-310.59"/>
<polygon fill="#63b8ff" stroke="#63b8ff" points="701.11,-351.18 691.73,-356.12 702.14,-358.11 701.11,-351.18"/>
</g>
<!-- Node20 -->
<g id="node20" class="node">
<title>Node20</title>
<g id="a_node20"><a xlink:href="ulp_8cpp.html" target="_top" xlink:title=" ">
<polygon fill="white" stroke="#666666" points="1185,-310.5 1065,-310.5 1065,-280.5 1185,-280.5 1185,-310.5"/>
<text text-anchor="start" x="1073" y="-298.5" font-family="Helvetica,sans-Serif" font-size="10.00">firmware/wombat/src</text>
<text text-anchor="middle" x="1125" y="-287.5" font-family="Helvetica,sans-Serif" font-size="10.00">/ulp.cpp</text>
</a>
</g>
</g>
<!-- Node1&#45;&gt;Node20 -->
<g id="edge27" class="edge">
<title>Node1&#45;&gt;Node20</title>
<path fill="none" stroke="#63b8ff" d="M701.76,-360.63C789.56,-353.88 933.69,-340.15 1056,-316 1063.57,-314.51 1071.52,-312.59 1079.23,-310.55"/>
<polygon fill="#63b8ff" stroke="#63b8ff" points="701.31,-357.15 691.6,-361.39 701.84,-364.13 701.31,-357.15"/>
</g>
<!-- Node21 -->
<g id="node21" class="node">
<title>Node21</title>
<g id="a_node21"><a xlink:href="uplinks_8cpp.html" target="_top" xlink:title=" ">
<polygon fill="white" stroke="#666666" points="1323,-310.5 1203,-310.5 1203,-280.5 1323,-280.5 1323,-310.5"/>
<text text-anchor="start" x="1211" y="-298.5" font-family="Helvetica,sans-Serif" font-size="10.00">firmware/wombat/src</text>
<text text-anchor="middle" x="1263" y="-287.5" font-family="Helvetica,sans-Serif" font-size="10.00">/uplinks.cpp</text>
</a>
</g>
</g>
<!-- Node1&#45;&gt;Node21 -->
<g id="edge28" class="edge">
<title>Node1&#45;&gt;Node21</title>
<path fill="none" stroke="#63b8ff" d="M701.86,-363.74C813.41,-359.53 1020.41,-347.81 1194,-316 1201.84,-314.56 1210.07,-312.63 1218.01,-310.53"/>
<polygon fill="#63b8ff" stroke="#63b8ff" points="701.56,-360.25 691.7,-364.11 701.82,-367.24 701.56,-360.25"/>
</g>
<!-- Node3 -->
<g id="node3" class="node">
<title>Node3</title>
<g id="a_node3"><a xlink:href="_c_l_i_8h.html" target="_top" xlink:title="FreeRTOS CLI handler.">
<polygon fill="white" stroke="#666666" points="526.5,-233.5 385.5,-233.5 385.5,-203.5 526.5,-203.5 526.5,-233.5"/>
<text text-anchor="start" x="393.5" y="-221.5" font-family="Helvetica,sans-Serif" font-size="10.00">firmware/wombat/include</text>
<text text-anchor="middle" x="456" y="-210.5" font-family="Helvetica,sans-Serif" font-size="10.00">/cli/CLI.h</text>
</a>
</g>
</g>
<!-- Node2&#45;&gt;Node3 -->
<g id="edge2" class="edge">
<title>Node2&#45;&gt;Node3</title>
<path fill="none" stroke="#63b8ff" d="M492.42,-266.59C483.81,-255.46 474.26,-243.12 467.11,-233.86"/>
<polygon fill="#63b8ff" stroke="#63b8ff" points="489.87,-269.03 498.76,-274.79 495.41,-264.74 489.87,-269.03"/>
</g>
<!-- Node2&#45;&gt;Node11 -->
<g id="edge12" class="edge">
<title>Node2&#45;&gt;Node11</title>
<path fill="none" stroke="#63b8ff" d="M545.95,-268.17C560.05,-256.55 576.07,-243.34 587.86,-233.63"/>
<polygon fill="#63b8ff" stroke="#63b8ff" points="543.4,-265.73 537.91,-274.79 547.85,-271.14 543.4,-265.73"/>
</g>
<!-- Node12 -->
<g id="node12" class="node">
<title>Node12</title>
<g id="a_node12"><a xlink:href="acquisition__intervals_8cpp.html" target="_top" xlink:title="Handles the time between measurements and uplinks by the device over LTE.">
<polygon fill="white" stroke="#666666" points="840.5,-239 683.5,-239 683.5,-198 840.5,-198 840.5,-239"/>
<text text-anchor="start" x="691.5" y="-227" font-family="Helvetica,sans-Serif" font-size="10.00">firmware/wombat/src</text>
<text text-anchor="start" x="691.5" y="-216" font-family="Helvetica,sans-Serif" font-size="10.00">/cli/device_config/acquisition</text>
<text text-anchor="middle" x="762" y="-205" font-family="Helvetica,sans-Serif" font-size="10.00">_intervals.cpp</text>
</a>
</g>
</g>
<!-- Node2&#45;&gt;Node12 -->
<g id="edge13" class="edge">
<title>Node2&#45;&gt;Node12</title>
<path fill="none" stroke="#63b8ff" d="M588.14,-272.08C622.89,-261.57 663.91,-249.16 697.38,-239.04"/>
<polygon fill="#63b8ff" stroke="#63b8ff" points="587.07,-268.75 578.51,-274.99 589.1,-275.45 587.07,-268.75"/>
</g>
<!-- Node4 -->
<g id="node4" class="node">
<title>Node4</title>
<g id="a_node4"><a xlink:href="server_8h.html" target="_top" xlink:title="Handle the setup and maintenance of the BLE server and connected clients.">
<polygon fill="white" stroke="#666666" points="526.5,-162 385.5,-162 385.5,-132 526.5,-132 526.5,-162"/>
<text text-anchor="start" x="393.5" y="-150" font-family="Helvetica,sans-Serif" font-size="10.00">firmware/wombat/include</text>
<text text-anchor="middle" x="456" y="-139" font-family="Helvetica,sans-Serif" font-size="10.00">/bluetooth/server.h</text>
</a>
</g>
</g>
<!-- Node3&#45;&gt;Node4 -->
<g id="edge3" class="edge">
<title>Node3&#45;&gt;Node4</title>
<path fill="none" stroke="#63b8ff" d="M449.53,-193.25C448.96,-182.81 449.26,-170.99 450.45,-162.04"/>
<polygon fill="#63b8ff" stroke="#63b8ff" points="446.07,-193.79 450.45,-203.44 453.04,-193.16 446.07,-193.79"/>
</g>
<!-- Node8 -->
<g id="node8" class="node">
<title>Node8</title>
<g id="a_node8"><a xlink:href="_c_l_i_8cpp.html" target="_top" xlink:title="FreeRTOS CLI handler.">
<polygon fill="white" stroke="#666666" points="665,-162 545,-162 545,-132 665,-132 665,-162"/>
<text text-anchor="start" x="553" y="-150" font-family="Helvetica,sans-Serif" font-size="10.00">firmware/wombat/src</text>
<text text-anchor="middle" x="605" y="-139" font-family="Helvetica,sans-Serif" font-size="10.00">/cli/CLI.cpp</text>
</a>
</g>
</g>
<!-- Node3&#45;&gt;Node8 -->
<g id="edge9" class="edge">
<title>Node3&#45;&gt;Node8</title>
<path fill="none" stroke="#63b8ff" d="M495.34,-199.15C520.25,-187.53 551.98,-172.73 574.89,-162.04"/>
<polygon fill="#63b8ff" stroke="#63b8ff" points="493.74,-196.04 486.15,-203.44 496.69,-202.38 493.74,-196.04"/>
</g>
<!-- Node3&#45;&gt;Node9 -->
<g id="edge10" class="edge">
<title>Node3&#45;&gt;Node9</title>
<path fill="none" stroke="#63b8ff" d="M391.62,-201.13C386.68,-200.02 381.77,-198.96 377,-198 288.12,-180.05 184.13,-164.72 120.16,-155.93"/>
<polygon fill="#63b8ff" stroke="#63b8ff" points="391.21,-204.62 401.74,-203.46 392.78,-197.8 391.21,-204.62"/>
</g>
<!-- Node3&#45;&gt;Node10 -->
<g id="edge11" class="edge">
<title>Node3&#45;&gt;Node10</title>
<path fill="none" stroke="#63b8ff" d="M409.19,-199.92C377.96,-188.18 337.45,-172.97 308.38,-162.04"/>
<polygon fill="#63b8ff" stroke="#63b8ff" points="407.97,-203.2 418.56,-203.44 410.43,-196.64 407.97,-203.2"/>
</g>
<!-- Node4&#45;&gt;Node3 -->
<g id="edge7" class="edge">
<title>Node4&#45;&gt;Node3</title>
<path fill="none" stroke="#63b8ff" d="M462.47,-172.23C463.04,-182.66 462.74,-194.49 461.55,-203.44"/>
<polygon fill="#63b8ff" stroke="#63b8ff" points="465.93,-171.69 461.55,-162.04 458.96,-172.32 465.93,-171.69"/>
</g>
<!-- Node5 -->
<g id="node5" class="node">
<title>Node5</title>
<g id="a_node5"><a xlink:href="uart_8h.html" target="_top" xlink:title="BluetoothLE UART service setup and handling.">
<polygon fill="white" stroke="#666666" points="526.5,-96 385.5,-96 385.5,-66 526.5,-66 526.5,-96"/>
<text text-anchor="start" x="393.5" y="-84" font-family="Helvetica,sans-Serif" font-size="10.00">firmware/wombat/include</text>
<text text-anchor="middle" x="456" y="-73" font-family="Helvetica,sans-Serif" font-size="10.00">/bluetooth/uart.h</text>
</a>
</g>
</g>
<!-- Node4&#45;&gt;Node5 -->
<g id="edge4" class="edge">
<title>Node4&#45;&gt;Node5</title>
<path fill="none" stroke="#63b8ff" d="M449.43,-121.83C449.02,-113.17 449.31,-103.7 450.29,-96.16"/>
<polygon fill="#63b8ff" stroke="#63b8ff" points="445.95,-122.13 450.28,-131.8 452.92,-121.54 445.95,-122.13"/>
</g>
<!-- Node7 -->
<g id="node7" class="node">
<title>Node7</title>
<g id="a_node7"><a xlink:href="server_8cpp.html" target="_top" xlink:title="Setup and start BluetoothLE server.">
<polygon fill="white" stroke="#666666" points="665,-96 545,-96 545,-66 665,-66 665,-96"/>
<text text-anchor="start" x="553" y="-84" font-family="Helvetica,sans-Serif" font-size="10.00">firmware/wombat/src</text>
<text text-anchor="middle" x="605" y="-73" font-family="Helvetica,sans-Serif" font-size="10.00">/bluetooth/server.cpp</text>
</a>
</g>
</g>
<!-- Node4&#45;&gt;Node7 -->
<g id="edge8" class="edge">
<title>Node4&#45;&gt;Node7</title>
<path fill="none" stroke="#63b8ff" d="M498.09,-127.92C521.64,-117.8 550.56,-105.38 572.38,-96.01"/>
<polygon fill="#63b8ff" stroke="#63b8ff" points="496.51,-124.79 488.7,-131.95 499.27,-131.22 496.51,-124.79"/>
</g>
<!-- Node5&#45;&gt;Node4 -->
<g id="edge5" class="edge">
<title>Node5&#45;&gt;Node4</title>
<path fill="none" stroke="#63b8ff" d="M462.57,-106.13C462.98,-114.78 462.7,-124.26 461.72,-131.8"/>
<polygon fill="#63b8ff" stroke="#63b8ff" points="466.05,-105.83 461.71,-96.16 459.08,-106.43 466.05,-105.83"/>
</g>
<!-- Node6 -->
<g id="node6" class="node">
<title>Node6</title>
<g id="a_node6"><a xlink:href="uart_8cpp.html" target="_top" xlink:title="BluetoothLE UART service setup and handling.">
<polygon fill="white" stroke="#666666" points="516,-30 396,-30 396,0 516,0 516,-30"/>
<text text-anchor="start" x="404" y="-18" font-family="Helvetica,sans-Serif" font-size="10.00">firmware/wombat/src</text>
<text text-anchor="middle" x="456" y="-7" font-family="Helvetica,sans-Serif" font-size="10.00">/bluetooth/uart.cpp</text>
</a>
</g>
</g>
<!-- Node5&#45;&gt;Node6 -->
<g id="edge6" class="edge">
<title>Node5&#45;&gt;Node6</title>
<path fill="none" stroke="#63b8ff" d="M456,-55.54C456,-46.96 456,-37.61 456,-30.16"/>
<polygon fill="#63b8ff" stroke="#63b8ff" points="452.5,-55.8 456,-65.8 459.5,-55.8 452.5,-55.8"/>
</g>
<!-- Node13&#45;&gt;Node3 -->
<g id="edge15" class="edge">
<title>Node13&#45;&gt;Node3</title>
<path fill="none" stroke="#63b8ff" d="M231.77,-277.89C282.82,-264.6 353.64,-246.16 401.94,-233.58"/>
<polygon fill="#63b8ff" stroke="#63b8ff" points="230.63,-274.57 221.83,-280.48 232.39,-281.35 230.63,-274.57"/>
</g>
<!-- Node14 -->
<g id="node14" class="node">
<title>Node14</title>
<g id="a_node14"><a xlink:href="config__cli_8cpp.html" target="_top" xlink:title="Command line interface node configuration commands.">
<polygon fill="white" stroke="#666666" points="222.5,-239 89.5,-239 89.5,-198 222.5,-198 222.5,-239"/>
<text text-anchor="start" x="97.5" y="-227" font-family="Helvetica,sans-Serif" font-size="10.00">firmware/wombat/src</text>
<text text-anchor="start" x="97.5" y="-216" font-family="Helvetica,sans-Serif" font-size="10.00">/cli/device_config/config</text>
<text text-anchor="middle" x="156" y="-205" font-family="Helvetica,sans-Serif" font-size="10.00">_cli.cpp</text>
</a>
</g>
</g>
<!-- Node13&#45;&gt;Node14 -->
<g id="edge16" class="edge">
<title>Node13&#45;&gt;Node14</title>
<path fill="none" stroke="#63b8ff" d="M164.12,-270.23C162.51,-260.2 160.67,-248.71 159.15,-239.2"/>
<polygon fill="#63b8ff" stroke="#63b8ff" points="160.71,-271.07 165.74,-280.39 167.62,-269.97 160.71,-271.07"/>
</g>
<!-- Node15&#45;&gt;Node3 -->
<g id="edge18" class="edge">
<title>Node15&#45;&gt;Node3</title>
<path fill="none" stroke="#63b8ff" d="M371.05,-274.9C390.95,-261.93 416.58,-245.21 434.47,-233.54"/>
<polygon fill="#63b8ff" stroke="#63b8ff" points="369.09,-272 362.63,-280.39 372.92,-277.86 369.09,-272"/>
</g>
<!-- Node15&#45;&gt;Node11 -->
<g id="edge19" class="edge">
<title>Node15&#45;&gt;Node11</title>
<path fill="none" stroke="#63b8ff" d="M400.04,-277.73C446.79,-264.44 511.36,-246.1 555.45,-233.58"/>
<polygon fill="#63b8ff" stroke="#63b8ff" points="399.01,-274.38 390.35,-280.48 400.92,-281.11 399.01,-274.38"/>
</g>
<!-- Node16 -->
<g id="node16" class="node">
<title>Node16</title>
<g id="a_node16"><a xlink:href="mqtt__cli_8cpp.html" target="_top" xlink:title="MQTT setup and configuration through the CLI.">
<polygon fill="white" stroke="#666666" points="367.5,-239 240.5,-239 240.5,-198 367.5,-198 367.5,-239"/>
<text text-anchor="start" x="248.5" y="-227" font-family="Helvetica,sans-Serif" font-size="10.00">firmware/wombat/src</text>
<text text-anchor="start" x="248.5" y="-216" font-family="Helvetica,sans-Serif" font-size="10.00">/cli/device_config/mqtt</text>
<text text-anchor="middle" x="304" y="-205" font-family="Helvetica,sans-Serif" font-size="10.00">_cli.cpp</text>
</a>
</g>
</g>
<!-- Node15&#45;&gt;Node16 -->
<g id="edge20" class="edge">
<title>Node15&#45;&gt;Node16</title>
<path fill="none" stroke="#63b8ff" d="M329.5,-271.19C324.44,-260.93 318.56,-249.01 313.72,-239.2"/>
<polygon fill="#63b8ff" stroke="#63b8ff" points="326.48,-272.97 334.04,-280.39 332.76,-269.88 326.48,-272.97"/>
</g>
</g>
</svg>
