<?xml version="1.0" encoding="UTF-8" standalone="no"?>
<!DOCTYPE svg PUBLIC "-//W3C//DTD SVG 1.1//EN"
 "http://www.w3.org/Graphics/SVG/1.1/DTD/svg11.dtd">
<!-- Generated by graphviz version 2.43.0 (0)
 -->
<!-- Title: firmware/wombat/include/DeviceConfig.h Pages: 1 -->
<svg width="172pt" height="93pt"
 viewBox="0.00 0.00 172.00 93.00" xmlns="http://www.w3.org/2000/svg" xmlns:xlink="http://www.w3.org/1999/xlink">
<g id="graph0" class="graph" transform="scale(1 1) rotate(0) translate(4 89)">
<title>firmware/wombat/include/DeviceConfig.h</title>
<!-- Node1 -->
<g id="node1" class="node">
<title>Node1</title>
<g id="a_node1"><a xlink:title="Node configuration options.">
<polygon fill="#999999" stroke="#666666" points="147,-85 6,-85 6,-55 147,-55 147,-85"/>
<text text-anchor="start" x="14" y="-73" font-family="Helvetica,sans-Serif" font-size="10.00">firmware/wombat/include</text>
<text text-anchor="middle" x="76.5" y="-62" font-family="Helvetica,sans-Serif" font-size="10.00">/DeviceConfig.h</text>
</a>
</g>
</g>
<!-- Node2 -->
<g id="node2" class="node">
<title>Node2</title>
<g id="a_node2"><a xlink:title=" ">
<polygon fill="#e0e0e0" stroke="#999999" points="63,-19 0,-19 0,0 63,0 63,-19"/>
<text text-anchor="middle" x="31.5" y="-7" font-family="Helvetica,sans-Serif" font-size="10.00">Arduino.h</text>
</a>
</g>
</g>
<!-- Node1&#45;&gt;Node2 -->
<g id="edge1" class="edge">
<title>Node1&#45;&gt;Node2</title>
<path fill="none" stroke="#63b8ff" d="M65.61,-54.84C59.21,-46.52 51.08,-35.96 44.37,-27.23"/>
<polygon fill="#63b8ff" stroke="#63b8ff" points="47.11,-25.06 38.24,-19.27 41.57,-29.33 47.11,-25.06"/>
</g>
<!-- Node3 -->
<g id="node3" class="node">
<title>Node3</title>
<g id="a_node3"><a xlink:title=" ">
<polygon fill="#e0e0e0" stroke="#999999" points="164,-19 81,-19 81,0 164,0 164,-19"/>
<text text-anchor="middle" x="122.5" y="-7" font-family="Helvetica,sans-Serif" font-size="10.00">ArduinoJson.h</text>
</a>
</g>
</g>
<!-- Node1&#45;&gt;Node3 -->
<g id="edge2" class="edge">
<title>Node1&#45;&gt;Node3</title>
<path fill="none" stroke="#63b8ff" d="M87.64,-54.84C94.18,-46.52 102.48,-35.96 109.34,-27.23"/>
<polygon fill="#63b8ff" stroke="#63b8ff" points="112.18,-29.29 115.61,-19.27 106.67,-24.96 112.18,-29.29"/>
</g>
</g>
</svg>
