<?xml version="1.0" encoding="UTF-8" standalone="no"?>
<!DOCTYPE svg PUBLIC "-//W3C//DTD SVG 1.1//EN"
 "http://www.w3.org/Graphics/SVG/1.1/DTD/svg11.dtd">
<!-- Generated by graphviz version 2.43.0 (0)
 -->
<!-- Title: firmware/wombat/include/DeviceConfig.h Pages: 1 -->
<svg width="1731pt" height="401pt"
 viewBox="0.00 0.00 1731.00 401.00" xmlns="http://www.w3.org/2000/svg" xmlns:xlink="http://www.w3.org/1999/xlink">
<g id="graph0" class="graph" transform="scale(1 1) rotate(0) translate(4 397)">
<title>firmware/wombat/include/DeviceConfig.h</title>
<!-- Node1 -->
<g id="node1" class="node">
<title>Node1</title>
<g id="a_node1"><a xlink:title="Node configuration options.">
<polygon fill="#999999" stroke="#666666" points="884.5,-393 743.5,-393 743.5,-363 884.5,-363 884.5,-393"/>
<text text-anchor="start" x="751.5" y="-381" font-family="Helvetica,sans-Serif" font-size="10.00">firmware/wombat/include</text>
<text text-anchor="middle" x="814" y="-370" font-family="Helvetica,sans-Serif" font-size="10.00">/DeviceConfig.h</text>
</a>
</g>
</g>
<!-- Node2 -->
<g id="node2" class="node">
<title>Node2</title>
<g id="a_node2"><a xlink:href="acquisition__intervals_8h.html" target="_top" xlink:title="Handles the time between measurements and uplinks by the device over LTE.">
<polygon fill="white" stroke="#666666" points="892.5,-327 735.5,-327 735.5,-286 892.5,-286 892.5,-327"/>
<text text-anchor="start" x="743.5" y="-315" font-family="Helvetica,sans-Serif" font-size="10.00">firmware/wombat/include</text>
<text text-anchor="start" x="743.5" y="-304" font-family="Helvetica,sans-Serif" font-size="10.00">/cli/device_config/acquisition</text>
<text text-anchor="middle" x="814" y="-293" font-family="Helvetica,sans-Serif" font-size="10.00">_intervals.h</text>
</a>
</g>
</g>
<!-- Node1&#45;&gt;Node2 -->
<g id="edge1" class="edge">
<title>Node1&#45;&gt;Node2</title>
<path fill="none" stroke="#63b8ff" d="M814,-352.91C814,-344.47 814,-335.1 814,-327.07"/>
<polygon fill="#63b8ff" stroke="#63b8ff" points="810.5,-352.94 814,-362.94 817.5,-352.94 810.5,-352.94"/>
</g>
<!-- Node12 -->
<g id="node12" class="node">
<title>Node12</title>
<g id="a_node12"><a xlink:href="main_8cpp.html" target="_top" xlink:title=" ">
<polygon fill="white" stroke="#666666" points="120,-167.5 0,-167.5 0,-137.5 120,-137.5 120,-167.5"/>
<text text-anchor="start" x="8" y="-155.5" font-family="Helvetica,sans-Serif" font-size="10.00">firmware/wombat/src</text>
<text text-anchor="middle" x="60" y="-144.5" font-family="Helvetica,sans-Serif" font-size="10.00">/main.cpp</text>
</a>
</g>
</g>
<!-- Node1&#45;&gt;Node12 -->
<g id="edge32" class="edge">
<title>Node1&#45;&gt;Node12</title>
<path fill="none" stroke="#63b8ff" d="M733.36,-376.03C561.46,-373.27 170.71,-363.07 123,-327 71.11,-287.77 61.9,-201.66 60.31,-167.69"/>
<polygon fill="#63b8ff" stroke="#63b8ff" points="733.31,-379.53 743.36,-376.19 733.42,-372.53 733.31,-379.53"/>
</g>
<!-- Node13 -->
<g id="node13" class="node">
<title>Node13</title>
<g id="a_node13"><a xlink:href="mqtt__stack_8cpp.html" target="_top" xlink:title=" ">
<polygon fill="white" stroke="#666666" points="258,-167.5 138,-167.5 138,-137.5 258,-137.5 258,-167.5"/>
<text text-anchor="start" x="146" y="-155.5" font-family="Helvetica,sans-Serif" font-size="10.00">firmware/wombat/src</text>
<text text-anchor="middle" x="198" y="-144.5" font-family="Helvetica,sans-Serif" font-size="10.00">/mqtt_stack.cpp</text>
</a>
</g>
</g>
<!-- Node1&#45;&gt;Node13 -->
<g id="edge33" class="edge">
<title>Node1&#45;&gt;Node13</title>
<path fill="none" stroke="#63b8ff" d="M733.01,-374.07C573.48,-367.79 229.88,-351.58 182,-327 128.74,-299.65 89.08,-261.97 117,-209 126.86,-190.3 146.17,-176.69 163.46,-167.64"/>
<polygon fill="#63b8ff" stroke="#63b8ff" points="733.11,-377.57 743.24,-374.47 733.39,-370.58 733.11,-377.57"/>
</g>
<!-- Node14 -->
<g id="node14" class="node">
<title>Node14</title>
<g id="a_node14"><a xlink:href="_device_config_8cpp.html" target="_top" xlink:title=" ">
<polygon fill="white" stroke="#666666" points="840,-244.5 720,-244.5 720,-214.5 840,-214.5 840,-244.5"/>
<text text-anchor="start" x="728" y="-232.5" font-family="Helvetica,sans-Serif" font-size="10.00">firmware/wombat/src</text>
<text text-anchor="middle" x="780" y="-221.5" font-family="Helvetica,sans-Serif" font-size="10.00">/DeviceConfig.cpp</text>
</a>
</g>
</g>
<!-- Node1&#45;&gt;Node14 -->
<g id="edge27" class="edge">
<title>Node1&#45;&gt;Node14</title>
<path fill="none" stroke="#63b8ff" d="M761.71,-358.37C748.01,-350.83 734.87,-340.61 727,-327 717.87,-311.23 720.22,-302.91 727,-286 733.74,-269.18 748.28,-254.57 760.42,-244.57"/>
<polygon fill="#63b8ff" stroke="#63b8ff" points="760.25,-361.55 770.75,-362.95 763.41,-355.31 760.25,-361.55"/>
</g>
<!-- Node16 -->
<g id="node16" class="node">
<title>Node16</title>
<g id="a_node16"><a xlink:href="config__cli_8h.html" target="_top" xlink:title=" ">
<polygon fill="white" stroke="#666666" points="349,-321.5 191,-321.5 191,-291.5 349,-291.5 349,-321.5"/>
<text text-anchor="start" x="199" y="-309.5" font-family="Helvetica,sans-Serif" font-size="10.00">firmware/wombat/include</text>
<text text-anchor="middle" x="270" y="-298.5" font-family="Helvetica,sans-Serif" font-size="10.00">/cli/device_config/config_cli.h</text>
</a>
</g>
</g>
<!-- Node1&#45;&gt;Node16 -->
<g id="edge16" class="edge">
<title>Node1&#45;&gt;Node16</title>
<path fill="none" stroke="#63b8ff" d="M733.35,-370.83C641.94,-363.21 488.65,-348.57 358,-327 348.74,-325.47 338.98,-323.59 329.47,-321.6"/>
<polygon fill="#63b8ff" stroke="#63b8ff" points="733.12,-374.32 743.37,-371.66 733.69,-367.34 733.12,-374.32"/>
</g>
<!-- Node18 -->
<g id="node18" class="node">
<title>Node18</title>
<g id="a_node18"><a xlink:href="ftp__cli_8h.html" target="_top" xlink:title="FTP setup and configuration through the CLI.">
<polygon fill="white" stroke="#666666" points="679,-321.5 537,-321.5 537,-291.5 679,-291.5 679,-321.5"/>
<text text-anchor="start" x="545" y="-309.5" font-family="Helvetica,sans-Serif" font-size="10.00">firmware/wombat/include</text>
<text text-anchor="middle" x="608" y="-298.5" font-family="Helvetica,sans-Serif" font-size="10.00">/cli/device_config/ftp_cli.h</text>
</a>
</g>
</g>
<!-- Node1&#45;&gt;Node18 -->
<g id="edge19" class="edge">
<title>Node1&#45;&gt;Node18</title>
<path fill="none" stroke="#63b8ff" d="M762.78,-359.72C727.88,-347.95 682.28,-332.56 649.63,-321.54"/>
<polygon fill="#63b8ff" stroke="#63b8ff" points="761.72,-363.06 772.31,-362.94 763.96,-356.42 761.72,-363.06"/>
</g>
<!-- Node20 -->
<g id="node20" class="node">
<title>Node20</title>
<g id="a_node20"><a xlink:href="mqtt__cli_8h.html" target="_top" xlink:title="MQTT setup and configuration through the CLI.">
<polygon fill="white" stroke="#666666" points="519,-321.5 367,-321.5 367,-291.5 519,-291.5 519,-321.5"/>
<text text-anchor="start" x="375" y="-309.5" font-family="Helvetica,sans-Serif" font-size="10.00">firmware/wombat/include</text>
<text text-anchor="middle" x="443" y="-298.5" font-family="Helvetica,sans-Serif" font-size="10.00">/cli/device_config/mqtt_cli.h</text>
</a>
</g>
</g>
<!-- Node1&#45;&gt;Node20 -->
<g id="edge23" class="edge">
<title>Node1&#45;&gt;Node20</title>
<path fill="none" stroke="#63b8ff" d="M733.19,-364.03C675.79,-354.54 596.98,-340.93 528,-327 519.69,-325.32 510.95,-323.44 502.36,-321.54"/>
<polygon fill="#63b8ff" stroke="#63b8ff" points="732.85,-367.52 743.29,-365.7 733.99,-360.62 732.85,-367.52"/>
</g>
<!-- Node22 -->
<g id="node22" class="node">
<title>Node22</title>
<g id="a_node22"><a xlink:href="_sensor_task_8cpp.html" target="_top" xlink:title=" ">
<polygon fill="white" stroke="#666666" points="1031,-321.5 911,-321.5 911,-291.5 1031,-291.5 1031,-321.5"/>
<text text-anchor="start" x="919" y="-309.5" font-family="Helvetica,sans-Serif" font-size="10.00">firmware/wombat/src</text>
<text text-anchor="middle" x="971" y="-298.5" font-family="Helvetica,sans-Serif" font-size="10.00">/SensorTask.cpp</text>
</a>
</g>
</g>
<!-- Node1&#45;&gt;Node22 -->
<g id="edge28" class="edge">
<title>Node1&#45;&gt;Node22</title>
<path fill="none" stroke="#63b8ff" d="M855.1,-358.81C881.41,-347.16 915.03,-332.28 939.28,-321.54"/>
<polygon fill="#63b8ff" stroke="#63b8ff" points="853.5,-355.69 845.77,-362.94 856.33,-362.09 853.5,-355.69"/>
</g>
<!-- Node23 -->
<g id="node23" class="node">
<title>Node23</title>
<g id="a_node23"><a xlink:href="_utils_8cpp.html" target="_top" xlink:title="Global utility functions.">
<polygon fill="white" stroke="#666666" points="1169,-321.5 1049,-321.5 1049,-291.5 1169,-291.5 1169,-321.5"/>
<text text-anchor="start" x="1057" y="-309.5" font-family="Helvetica,sans-Serif" font-size="10.00">firmware/wombat/src</text>
<text text-anchor="middle" x="1109" y="-298.5" font-family="Helvetica,sans-Serif" font-size="10.00">/Utils.cpp</text>
</a>
</g>
</g>
<!-- Node1&#45;&gt;Node23 -->
<g id="edge29" class="edge">
<title>Node1&#45;&gt;Node23</title>
<path fill="none" stroke="#63b8ff" d="M892.45,-360.81C936.05,-351.52 991.19,-339.28 1040,-327 1046.64,-325.33 1053.61,-323.48 1060.47,-321.6"/>
<polygon fill="#63b8ff" stroke="#63b8ff" points="891.54,-357.42 882.48,-362.92 892.99,-364.27 891.54,-357.42"/>
</g>
<!-- Node24 -->
<g id="node24" class="node">
<title>Node24</title>
<g id="a_node24"><a xlink:href="device_8cpp.html" target="_top" xlink:title="Setup BluetoothLE device information services and characteristics.">
<polygon fill="white" stroke="#666666" points="1309,-321.5 1187,-321.5 1187,-291.5 1309,-291.5 1309,-321.5"/>
<text text-anchor="start" x="1195" y="-309.5" font-family="Helvetica,sans-Serif" font-size="10.00">firmware/wombat/src</text>
<text text-anchor="middle" x="1248" y="-298.5" font-family="Helvetica,sans-Serif" font-size="10.00">/bluetooth/device.cpp</text>
</a>
</g>
</g>
<!-- Node1&#45;&gt;Node24 -->
<g id="edge30" class="edge">
<title>Node1&#45;&gt;Node24</title>
<path fill="none" stroke="#63b8ff" d="M894.8,-369.07C968.92,-361.05 1081.5,-346.97 1178,-327 1185.41,-325.47 1193.2,-323.58 1200.77,-321.59"/>
<polygon fill="#63b8ff" stroke="#63b8ff" points="894.17,-365.62 884.6,-370.16 894.92,-372.58 894.17,-365.62"/>
</g>
<!-- Node25 -->
<g id="node25" class="node">
<title>Node25</title>
<g id="a_node25"><a xlink:href="ftp__stack_8cpp.html" target="_top" xlink:title=" ">
<polygon fill="white" stroke="#666666" points="1447,-321.5 1327,-321.5 1327,-291.5 1447,-291.5 1447,-321.5"/>
<text text-anchor="start" x="1335" y="-309.5" font-family="Helvetica,sans-Serif" font-size="10.00">firmware/wombat/src</text>
<text text-anchor="middle" x="1387" y="-298.5" font-family="Helvetica,sans-Serif" font-size="10.00">/ftp_stack.cpp</text>
</a>
</g>
</g>
<!-- Node1&#45;&gt;Node25 -->
<g id="edge31" class="edge">
<title>Node1&#45;&gt;Node25</title>
<path fill="none" stroke="#63b8ff" d="M894.72,-373.39C994.77,-367.91 1170.16,-355 1318,-327 1325.71,-325.54 1333.8,-323.62 1341.62,-321.55"/>
<polygon fill="#63b8ff" stroke="#63b8ff" points="894.48,-369.9 884.68,-373.93 894.85,-376.89 894.48,-369.9"/>
</g>
<!-- Node26 -->
<g id="node26" class="node">
<title>Node26</title>
<g id="a_node26"><a xlink:href="ulp_8cpp.html" target="_top" xlink:title=" ">
<polygon fill="white" stroke="#666666" points="1585,-321.5 1465,-321.5 1465,-291.5 1585,-291.5 1585,-321.5"/>
<text text-anchor="start" x="1473" y="-309.5" font-family="Helvetica,sans-Serif" font-size="10.00">firmware/wombat/src</text>
<text text-anchor="middle" x="1525" y="-298.5" font-family="Helvetica,sans-Serif" font-size="10.00">/ulp.cpp</text>
</a>
</g>
</g>
<!-- Node1&#45;&gt;Node26 -->
<g id="edge34" class="edge">
<title>Node1&#45;&gt;Node26</title>
<path fill="none" stroke="#63b8ff" d="M894.92,-375.81C1017.29,-372.87 1256.36,-362.62 1456,-327 1463.84,-325.6 1472.08,-323.68 1480.02,-321.59"/>
<polygon fill="#63b8ff" stroke="#63b8ff" points="894.79,-372.31 884.88,-376.04 894.95,-379.31 894.79,-372.31"/>
</g>
<!-- Node27 -->
<g id="node27" class="node">
<title>Node27</title>
<g id="a_node27"><a xlink:href="uplinks_8cpp.html" target="_top" xlink:title=" ">
<polygon fill="white" stroke="#666666" points="1723,-321.5 1603,-321.5 1603,-291.5 1723,-291.5 1723,-321.5"/>
<text text-anchor="start" x="1611" y="-309.5" font-family="Helvetica,sans-Serif" font-size="10.00">firmware/wombat/src</text>
<text text-anchor="middle" x="1663" y="-298.5" font-family="Helvetica,sans-Serif" font-size="10.00">/uplinks.cpp</text>
</a>
</g>
</g>
<!-- Node1&#45;&gt;Node27 -->
<g id="edge35" class="edge">
<title>Node1&#45;&gt;Node27</title>
<path fill="none" stroke="#63b8ff" d="M895.16,-377.42C1037.66,-376.9 1341.68,-370.24 1594,-327 1601.98,-325.63 1610.35,-323.7 1618.4,-321.58"/>
<polygon fill="#63b8ff" stroke="#63b8ff" points="894.75,-373.92 884.76,-377.44 894.77,-380.92 894.75,-373.92"/>
</g>
<!-- Node3 -->
<g id="node3" class="node">
<title>Node3</title>
<g id="a_node3"><a xlink:href="_c_l_i_8h.html" target="_top" xlink:title="FreeRTOS CLI handler.">
<polygon fill="white" stroke="#666666" points="563.5,-244.5 422.5,-244.5 422.5,-214.5 563.5,-214.5 563.5,-244.5"/>
<text text-anchor="start" x="430.5" y="-232.5" font-family="Helvetica,sans-Serif" font-size="10.00">firmware/wombat/include</text>
<text text-anchor="middle" x="493" y="-221.5" font-family="Helvetica,sans-Serif" font-size="10.00">/cli/CLI.h</text>
</a>
</g>
</g>
<!-- Node2&#45;&gt;Node3 -->
<g id="edge2" class="edge">
<title>Node2&#45;&gt;Node3</title>
<path fill="none" stroke="#63b8ff" d="M725.4,-285.38C679.83,-274.96 623.4,-261.95 573,-250 565.63,-248.25 557.88,-246.39 550.23,-244.54"/>
<polygon fill="#63b8ff" stroke="#63b8ff" points="724.72,-288.82 735.25,-287.63 726.28,-281.99 724.72,-288.82"/>
</g>
<!-- Node2&#45;&gt;Node14 -->
<g id="edge14" class="edge">
<title>Node2&#45;&gt;Node14</title>
<path fill="none" stroke="#63b8ff" d="M800.9,-276.6C795.97,-265.73 790.58,-253.84 786.51,-244.86"/>
<polygon fill="#63b8ff" stroke="#63b8ff" points="797.75,-278.13 805.07,-285.79 804.13,-275.24 797.75,-278.13"/>
</g>
<!-- Node15 -->
<g id="node15" class="node">
<title>Node15</title>
<g id="a_node15"><a xlink:href="acquisition__intervals_8cpp.html" target="_top" xlink:title="Handles the time between measurements and uplinks by the device over LTE.">
<polygon fill="white" stroke="#666666" points="1015.5,-250 858.5,-250 858.5,-209 1015.5,-209 1015.5,-250"/>
<text text-anchor="start" x="866.5" y="-238" font-family="Helvetica,sans-Serif" font-size="10.00">firmware/wombat/src</text>
<text text-anchor="start" x="866.5" y="-227" font-family="Helvetica,sans-Serif" font-size="10.00">/cli/device_config/acquisition</text>
<text text-anchor="middle" x="937" y="-216" font-family="Helvetica,sans-Serif" font-size="10.00">_intervals.cpp</text>
</a>
</g>
</g>
<!-- Node2&#45;&gt;Node15 -->
<g id="edge15" class="edge">
<title>Node2&#45;&gt;Node15</title>
<path fill="none" stroke="#63b8ff" d="M854.76,-280.64C871.01,-270.74 889.45,-259.5 904.74,-250.17"/>
<polygon fill="#63b8ff" stroke="#63b8ff" points="852.71,-277.8 846,-285.99 856.36,-283.77 852.71,-277.8"/>
</g>
<!-- Node4 -->
<g id="node4" class="node">
<title>Node4</title>
<g id="a_node4"><a xlink:href="server_8h.html" target="_top" xlink:title="Handle the setup and maintenance of the BLE server and connected clients.">
<polygon fill="white" stroke="#666666" points="987.5,-167.5 846.5,-167.5 846.5,-137.5 987.5,-137.5 987.5,-167.5"/>
<text text-anchor="start" x="854.5" y="-155.5" font-family="Helvetica,sans-Serif" font-size="10.00">firmware/wombat/include</text>
<text text-anchor="middle" x="917" y="-144.5" font-family="Helvetica,sans-Serif" font-size="10.00">/bluetooth/server.h</text>
</a>
</g>
</g>
<!-- Node3&#45;&gt;Node4 -->
<g id="edge3" class="edge">
<title>Node3&#45;&gt;Node4</title>
<path fill="none" stroke="#63b8ff" d="M557.52,-212.17C562.74,-211.03 567.95,-209.96 573,-209 689.35,-186.95 720.65,-195.05 837,-173 845.29,-171.43 854,-169.55 862.51,-167.58"/>
<polygon fill="#63b8ff" stroke="#63b8ff" points="556.48,-208.81 547.49,-214.42 558.01,-215.64 556.48,-208.81"/>
</g>
<!-- Node8 -->
<g id="node8" class="node">
<title>Node8</title>
<g id="a_node8"><a xlink:href="_c_l_i_8cpp.html" target="_top" xlink:title="FreeRTOS CLI handler.">
<polygon fill="white" stroke="#666666" points="396,-167.5 276,-167.5 276,-137.5 396,-137.5 396,-167.5"/>
<text text-anchor="start" x="284" y="-155.5" font-family="Helvetica,sans-Serif" font-size="10.00">firmware/wombat/src</text>
<text text-anchor="middle" x="336" y="-144.5" font-family="Helvetica,sans-Serif" font-size="10.00">/cli/CLI.cpp</text>
</a>
</g>
</g>
<!-- Node3&#45;&gt;Node8 -->
<g id="edge8" class="edge">
<title>Node3&#45;&gt;Node8</title>
<path fill="none" stroke="#63b8ff" d="M454.16,-209.94C426.7,-196.83 390.47,-179.52 365.4,-167.54"/>
<polygon fill="#63b8ff" stroke="#63b8ff" points="452.94,-213.24 463.47,-214.39 455.95,-206.92 452.94,-213.24"/>
</g>
<!-- Node9 -->
<g id="node9" class="node">
<title>Node9</title>
<g id="a_node9"><a xlink:href="cat-m1_8cpp.html" target="_top" xlink:title="CAT&#45;M1 CLI command request and response handler.">
<polygon fill="white" stroke="#666666" points="534,-173 414,-173 414,-132 534,-132 534,-173"/>
<text text-anchor="start" x="422" y="-161" font-family="Helvetica,sans-Serif" font-size="10.00">firmware/wombat/src</text>
<text text-anchor="start" x="422" y="-150" font-family="Helvetica,sans-Serif" font-size="10.00">/cli/peripherals/cat</text>
<text text-anchor="middle" x="474" y="-139" font-family="Helvetica,sans-Serif" font-size="10.00">&#45;m1.cpp</text>
</a>
</g>
</g>
<!-- Node3&#45;&gt;Node9 -->
<g id="edge9" class="edge">
<title>Node3&#45;&gt;Node9</title>
<path fill="none" stroke="#63b8ff" d="M486.93,-204.55C484.37,-194.44 481.42,-182.81 478.99,-173.2"/>
<polygon fill="#63b8ff" stroke="#63b8ff" points="483.58,-205.56 489.43,-214.39 490.36,-203.84 483.58,-205.56"/>
</g>
<!-- Node10 -->
<g id="node10" class="node">
<title>Node10</title>
<g id="a_node10"><a xlink:href="sd__card_8cpp.html" target="_top" xlink:title=" ">
<polygon fill="white" stroke="#666666" points="672,-173 552,-173 552,-132 672,-132 672,-173"/>
<text text-anchor="start" x="560" y="-161" font-family="Helvetica,sans-Serif" font-size="10.00">firmware/wombat/src</text>
<text text-anchor="start" x="560" y="-150" font-family="Helvetica,sans-Serif" font-size="10.00">/cli/peripherals/sd</text>
<text text-anchor="middle" x="612" y="-139" font-family="Helvetica,sans-Serif" font-size="10.00">_card.cpp</text>
</a>
</g>
</g>
<!-- Node3&#45;&gt;Node10 -->
<g id="edge10" class="edge">
<title>Node3&#45;&gt;Node10</title>
<path fill="none" stroke="#63b8ff" d="M524.08,-208.91C541.53,-197.91 563.25,-184.22 580.74,-173.2"/>
<polygon fill="#63b8ff" stroke="#63b8ff" points="521.98,-206.1 515.38,-214.39 525.71,-212.02 521.98,-206.1"/>
</g>
<!-- Node11 -->
<g id="node11" class="node">
<title>Node11</title>
<g id="a_node11"><a xlink:href="sdi12_8cpp.html" target="_top" xlink:title="SDI&#45;12 command line interface handler.">
<polygon fill="white" stroke="#666666" points="828,-167.5 690,-167.5 690,-137.5 828,-137.5 828,-167.5"/>
<text text-anchor="start" x="698" y="-155.5" font-family="Helvetica,sans-Serif" font-size="10.00">firmware/wombat/src</text>
<text text-anchor="middle" x="759" y="-144.5" font-family="Helvetica,sans-Serif" font-size="10.00">/cli/peripherals/sdi12.cpp</text>
</a>
</g>
</g>
<!-- Node3&#45;&gt;Node11 -->
<g id="edge11" class="edge">
<title>Node3&#45;&gt;Node11</title>
<path fill="none" stroke="#63b8ff" d="M552.49,-211.73C599.6,-198.44 664.65,-180.1 709.07,-167.58"/>
<polygon fill="#63b8ff" stroke="#63b8ff" points="551.4,-208.4 542.72,-214.48 553.3,-215.14 551.4,-208.4"/>
</g>
<!-- Node3&#45;&gt;Node12 -->
<g id="edge12" class="edge">
<title>Node3&#45;&gt;Node12</title>
<path fill="none" stroke="#63b8ff" d="M429.57,-212.16C424.32,-211.02 419.08,-209.94 414,-209 288.48,-185.66 254.11,-198.43 129,-173 121.56,-171.49 113.75,-169.59 106.16,-167.57"/>
<polygon fill="#63b8ff" stroke="#63b8ff" points="429.11,-215.65 439.64,-214.44 430.66,-208.82 429.11,-215.65"/>
</g>
<!-- Node3&#45;&gt;Node13 -->
<g id="edge13" class="edge">
<title>Node3&#45;&gt;Node13</title>
<path fill="none" stroke="#63b8ff" d="M426.3,-212.03C422.14,-211 418.01,-209.99 414,-209 348.68,-192.94 332.04,-190.15 267,-173 260.5,-171.29 253.67,-169.43 246.94,-167.56"/>
<polygon fill="#63b8ff" stroke="#63b8ff" points="425.5,-215.43 436.04,-214.43 427.17,-208.64 425.5,-215.43"/>
</g>
<!-- Node5 -->
<g id="node5" class="node">
<title>Node5</title>
<g id="a_node5"><a xlink:href="uart_8h.html" target="_top" xlink:title="BluetoothLE UART service setup and handling.">
<polygon fill="white" stroke="#666666" points="987.5,-96 846.5,-96 846.5,-66 987.5,-66 987.5,-96"/>
<text text-anchor="start" x="854.5" y="-84" font-family="Helvetica,sans-Serif" font-size="10.00">firmware/wombat/include</text>
<text text-anchor="middle" x="917" y="-73" font-family="Helvetica,sans-Serif" font-size="10.00">/bluetooth/uart.h</text>
</a>
</g>
</g>
<!-- Node4&#45;&gt;Node5 -->
<g id="edge4" class="edge">
<title>Node4&#45;&gt;Node5</title>
<path fill="none" stroke="#63b8ff" d="M910.53,-127.25C909.96,-116.81 910.26,-104.99 911.45,-96.04"/>
<polygon fill="#63b8ff" stroke="#63b8ff" points="907.07,-127.79 911.45,-137.44 914.04,-127.16 907.07,-127.79"/>
</g>
<!-- Node7 -->
<g id="node7" class="node">
<title>Node7</title>
<g id="a_node7"><a xlink:href="server_8cpp.html" target="_top" xlink:title="Setup and start BluetoothLE server.">
<polygon fill="white" stroke="#666666" points="1126,-96 1006,-96 1006,-66 1126,-66 1126,-96"/>
<text text-anchor="start" x="1014" y="-84" font-family="Helvetica,sans-Serif" font-size="10.00">firmware/wombat/src</text>
<text text-anchor="middle" x="1066" y="-73" font-family="Helvetica,sans-Serif" font-size="10.00">/bluetooth/server.cpp</text>
</a>
</g>
</g>
<!-- Node4&#45;&gt;Node7 -->
<g id="edge7" class="edge">
<title>Node4&#45;&gt;Node7</title>
<path fill="none" stroke="#63b8ff" d="M956.34,-133.15C981.25,-121.53 1012.98,-106.73 1035.89,-96.04"/>
<polygon fill="#63b8ff" stroke="#63b8ff" points="954.74,-130.04 947.15,-137.44 957.69,-136.38 954.74,-130.04"/>
</g>
<!-- Node5&#45;&gt;Node4 -->
<g id="edge5" class="edge">
<title>Node5&#45;&gt;Node4</title>
<path fill="none" stroke="#63b8ff" d="M923.47,-106.23C924.04,-116.66 923.74,-128.49 922.55,-137.44"/>
<polygon fill="#63b8ff" stroke="#63b8ff" points="926.93,-105.69 922.55,-96.04 919.96,-106.32 926.93,-105.69"/>
</g>
<!-- Node6 -->
<g id="node6" class="node">
<title>Node6</title>
<g id="a_node6"><a xlink:href="uart_8cpp.html" target="_top" xlink:title="BluetoothLE UART service setup and handling.">
<polygon fill="white" stroke="#666666" points="977,-30 857,-30 857,0 977,0 977,-30"/>
<text text-anchor="start" x="865" y="-18" font-family="Helvetica,sans-Serif" font-size="10.00">firmware/wombat/src</text>
<text text-anchor="middle" x="917" y="-7" font-family="Helvetica,sans-Serif" font-size="10.00">/bluetooth/uart.cpp</text>
</a>
</g>
</g>
<!-- Node5&#45;&gt;Node6 -->
<g id="edge6" class="edge">
<title>Node5&#45;&gt;Node6</title>
<path fill="none" stroke="#63b8ff" d="M917,-55.54C917,-46.96 917,-37.61 917,-30.16"/>
<polygon fill="#63b8ff" stroke="#63b8ff" points="913.5,-55.8 917,-65.8 920.5,-55.8 913.5,-55.8"/>
</g>
<!-- Node16&#45;&gt;Node3 -->
<g id="edge17" class="edge">
<title>Node16&#45;&gt;Node3</title>
<path fill="none" stroke="#63b8ff" d="M321.36,-288.22C360.73,-274.99 414.37,-256.95 451.14,-244.58"/>
<polygon fill="#63b8ff" stroke="#63b8ff" points="320.05,-284.98 311.68,-291.48 322.28,-291.61 320.05,-284.98"/>
</g>
<!-- Node17 -->
<g id="node17" class="node">
<title>Node17</title>
<g id="a_node17"><a xlink:href="config__cli_8cpp.html" target="_top" xlink:title="Command line interface node configuration commands.">
<polygon fill="white" stroke="#666666" points="259.5,-250 126.5,-250 126.5,-209 259.5,-209 259.5,-250"/>
<text text-anchor="start" x="134.5" y="-238" font-family="Helvetica,sans-Serif" font-size="10.00">firmware/wombat/src</text>
<text text-anchor="start" x="134.5" y="-227" font-family="Helvetica,sans-Serif" font-size="10.00">/cli/device_config/config</text>
<text text-anchor="middle" x="193" y="-216" font-family="Helvetica,sans-Serif" font-size="10.00">_cli.cpp</text>
</a>
</g>
</g>
<!-- Node16&#45;&gt;Node17 -->
<g id="edge18" class="edge">
<title>Node16&#45;&gt;Node17</title>
<path fill="none" stroke="#63b8ff" d="M248.32,-284.38C237.31,-273.66 224.02,-260.72 213.23,-250.2"/>
<polygon fill="#63b8ff" stroke="#63b8ff" points="245.91,-286.92 255.52,-291.39 250.8,-281.91 245.91,-286.92"/>
</g>
<!-- Node18&#45;&gt;Node3 -->
<g id="edge20" class="edge">
<title>Node18&#45;&gt;Node3</title>
<path fill="none" stroke="#63b8ff" d="M577.95,-285.9C558.05,-272.93 532.42,-256.21 514.53,-244.54"/>
<polygon fill="#63b8ff" stroke="#63b8ff" points="576.08,-288.86 586.37,-291.39 579.91,-283 576.08,-288.86"/>
</g>
<!-- Node18&#45;&gt;Node14 -->
<g id="edge21" class="edge">
<title>Node18&#45;&gt;Node14</title>
<path fill="none" stroke="#63b8ff" d="M649.77,-287.29C679.94,-274.13 720.09,-256.62 747.79,-244.54"/>
<polygon fill="#63b8ff" stroke="#63b8ff" points="648.12,-284.19 640.35,-291.39 650.92,-290.6 648.12,-284.19"/>
</g>
<!-- Node19 -->
<g id="node19" class="node">
<title>Node19</title>
<g id="a_node19"><a xlink:href="ftp__cli_8cpp.html" target="_top" xlink:title="FTP setup and configuration through the CLI.">
<polygon fill="white" stroke="#666666" points="702,-250 582,-250 582,-209 702,-209 702,-250"/>
<text text-anchor="start" x="590" y="-238" font-family="Helvetica,sans-Serif" font-size="10.00">firmware/wombat/src</text>
<text text-anchor="start" x="590" y="-227" font-family="Helvetica,sans-Serif" font-size="10.00">/cli/device_config/ftp</text>
<text text-anchor="middle" x="642" y="-216" font-family="Helvetica,sans-Serif" font-size="10.00">_cli.cpp</text>
</a>
</g>
</g>
<!-- Node18&#45;&gt;Node19 -->
<g id="edge22" class="edge">
<title>Node18&#45;&gt;Node19</title>
<path fill="none" stroke="#63b8ff" d="M618.57,-282.19C623.22,-271.93 628.62,-260.01 633.07,-250.2"/>
<polygon fill="#63b8ff" stroke="#63b8ff" points="615.34,-280.84 614.4,-291.39 621.71,-283.73 615.34,-280.84"/>
</g>
<!-- Node20&#45;&gt;Node3 -->
<g id="edge24" class="edge">
<title>Node20&#45;&gt;Node3</title>
<path fill="none" stroke="#63b8ff" d="M458.08,-282.88C466.4,-270.41 476.46,-255.32 483.64,-244.54"/>
<polygon fill="#63b8ff" stroke="#63b8ff" points="455.04,-281.13 452.4,-291.39 460.86,-285.01 455.04,-281.13"/>
</g>
<!-- Node20&#45;&gt;Node14 -->
<g id="edge25" class="edge">
<title>Node20&#45;&gt;Node14</title>
<path fill="none" stroke="#63b8ff" d="M513.43,-289.16C518.36,-288.08 523.25,-287.01 528,-286 609.07,-268.73 630.38,-269.29 711,-250 717.9,-248.35 725.15,-246.47 732.25,-244.54"/>
<polygon fill="#63b8ff" stroke="#63b8ff" points="512.31,-285.83 503.31,-291.42 513.84,-292.66 512.31,-285.83"/>
</g>
<!-- Node21 -->
<g id="node21" class="node">
<title>Node21</title>
<g id="a_node21"><a xlink:href="mqtt__cli_8cpp.html" target="_top" xlink:title="MQTT setup and configuration through the CLI.">
<polygon fill="white" stroke="#666666" points="404.5,-250 277.5,-250 277.5,-209 404.5,-209 404.5,-250"/>
<text text-anchor="start" x="285.5" y="-238" font-family="Helvetica,sans-Serif" font-size="10.00">firmware/wombat/src</text>
<text text-anchor="start" x="285.5" y="-227" font-family="Helvetica,sans-Serif" font-size="10.00">/cli/device_config/mqtt</text>
<text text-anchor="middle" x="341" y="-216" font-family="Helvetica,sans-Serif" font-size="10.00">_cli.cpp</text>
</a>
</g>
</g>
<!-- Node20&#45;&gt;Node21 -->
<g id="edge26" class="edge">
<title>Node20&#45;&gt;Node21</title>
<path fill="none" stroke="#63b8ff" d="M415.54,-285.31C400.72,-274.41 382.51,-261.02 367.8,-250.2"/>
<polygon fill="#63b8ff" stroke="#63b8ff" points="413.68,-288.29 423.81,-291.39 417.83,-282.65 413.68,-288.29"/>
</g>
</g>
</svg>
