<?xml version="1.0" encoding="UTF-8" standalone="no"?>
<!DOCTYPE svg PUBLIC "-//W3C//DTD SVG 1.1//EN"
 "http://www.w3.org/Graphics/SVG/1.1/DTD/svg11.dtd">
<!-- Generated by graphviz version 2.43.0 (0)
 -->
<!-- Title: firmware/wombat/src/DeviceConfig.cpp Pages: 1 -->
<svg width="1052pt" height="280pt"
 viewBox="0.00 0.00 1051.50 280.00" xmlns="http://www.w3.org/2000/svg" xmlns:xlink="http://www.w3.org/1999/xlink">
<g id="graph0" class="graph" transform="scale(1 1) rotate(0) translate(4 276)">
<title>firmware/wombat/src/DeviceConfig.cpp</title>
<!-- Node1 -->
<g id="node1" class="node">
<title>Node1</title>
<g id="a_node1"><a xlink:title=" ">
<polygon fill="#999999" stroke="#666666" points="384,-272 264,-272 264,-242 384,-242 384,-272"/>
<text text-anchor="start" x="272" y="-260" font-family="Helvetica,sans-Serif" font-size="10.00">firmware/wombat/src</text>
<text text-anchor="middle" x="324" y="-249" font-family="Helvetica,sans-Serif" font-size="10.00">/DeviceConfig.cpp</text>
</a>
</g>
</g>
<!-- Node2 -->
<g id="node2" class="node">
<title>Node2</title>
<g id="a_node2"><a xlink:href="_device_config_8h.html" target="_top" xlink:title="Node configuration options.">
<polygon fill="white" stroke="#666666" points="369,-134.5 279,-134.5 279,-115.5 369,-115.5 369,-134.5"/>
<text text-anchor="middle" x="324" y="-122.5" font-family="Helvetica,sans-Serif" font-size="10.00">DeviceConfig.h</text>
</a>
</g>
</g>
<!-- Node1&#45;&gt;Node2 -->
<g id="edge1" class="edge">
<title>Node1&#45;&gt;Node2</title>
<path fill="none" stroke="#63b8ff" d="M291.49,-241.84C276.92,-233.65 261.19,-221.79 253,-206 246.86,-194.16 246.86,-187.84 253,-176 261.51,-159.6 278.15,-147.44 293.18,-139.22"/>
<polygon fill="#63b8ff" stroke="#63b8ff" points="294.91,-142.27 302.24,-134.61 291.74,-136.03 294.91,-142.27"/>
</g>
<!-- Node5 -->
<g id="node5" class="node">
<title>Node5</title>
<g id="a_node5"><a xlink:title=" ">
<polygon fill="#e0e0e0" stroke="#999999" points="129.5,-200.5 66.5,-200.5 66.5,-181.5 129.5,-181.5 129.5,-200.5"/>
<text text-anchor="middle" x="98" y="-188.5" font-family="Helvetica,sans-Serif" font-size="10.00">esp_log.h</text>
</a>
</g>
</g>
<!-- Node1&#45;&gt;Node5 -->
<g id="edge4" class="edge">
<title>Node1&#45;&gt;Node5</title>
<path fill="none" stroke="#63b8ff" d="M268.28,-241.95C231.42,-232.41 182.11,-219.17 139,-206 136.69,-205.3 134.32,-204.55 131.94,-203.78"/>
<polygon fill="#63b8ff" stroke="#63b8ff" points="132.79,-200.37 122.2,-200.55 130.59,-207.02 132.79,-200.37"/>
</g>
<!-- Node6 -->
<g id="node6" class="node">
<title>Node6</title>
<g id="a_node6"><a xlink:title=" ">
<polygon fill="#e0e0e0" stroke="#999999" points="206,-200.5 148,-200.5 148,-181.5 206,-181.5 206,-200.5"/>
<text text-anchor="middle" x="177" y="-188.5" font-family="Helvetica,sans-Serif" font-size="10.00">SPIFFS.h</text>
</a>
</g>
</g>
<!-- Node1&#45;&gt;Node6 -->
<g id="edge5" class="edge">
<title>Node1&#45;&gt;Node6</title>
<path fill="none" stroke="#63b8ff" d="M291.74,-241.95C266.07,-230.78 230.49,-215.29 205.78,-204.53"/>
<polygon fill="#63b8ff" stroke="#63b8ff" points="207.13,-201.3 196.56,-200.52 204.33,-207.72 207.13,-201.3"/>
</g>
<!-- Node7 -->
<g id="node7" class="node">
<title>Node7</title>
<g id="a_node7"><a xlink:href="_utils_8h.html" target="_top" xlink:title=" ">
<polygon fill="white" stroke="#666666" points="48,-200.5 0,-200.5 0,-181.5 48,-181.5 48,-200.5"/>
<text text-anchor="middle" x="24" y="-188.5" font-family="Helvetica,sans-Serif" font-size="10.00">Utils.h</text>
</a>
</g>
</g>
<!-- Node1&#45;&gt;Node7 -->
<g id="edge6" class="edge">
<title>Node1&#45;&gt;Node7</title>
<path fill="none" stroke="#63b8ff" d="M264,-248.55C209.29,-240.86 126.64,-227.02 57,-206 55.32,-205.49 53.61,-204.93 51.9,-204.32"/>
<polygon fill="#63b8ff" stroke="#63b8ff" points="52.83,-200.93 42.24,-200.57 50.29,-207.45 52.83,-200.93"/>
</g>
<!-- Node10 -->
<g id="node10" class="node">
<title>Node10</title>
<g id="a_node10"><a xlink:title=" ">
<polygon fill="#e0e0e0" stroke="#999999" points="494.5,-134.5 387.5,-134.5 387.5,-115.5 494.5,-115.5 494.5,-134.5"/>
<text text-anchor="middle" x="441" y="-122.5" font-family="Helvetica,sans-Serif" font-size="10.00">cli/FreeRTOS_CLI.h</text>
</a>
</g>
</g>
<!-- Node1&#45;&gt;Node10 -->
<g id="edge10" class="edge">
<title>Node1&#45;&gt;Node10</title>
<path fill="none" stroke="#63b8ff" d="M384.22,-249.34C437.52,-242.06 509.48,-228.36 527,-206 548.01,-179.19 505,-153.31 472.56,-138.56"/>
<polygon fill="#63b8ff" stroke="#63b8ff" points="473.9,-135.33 463.34,-134.53 471.1,-141.74 473.9,-135.33"/>
</g>
<!-- Node11 -->
<g id="node11" class="node">
<title>Node11</title>
<g id="a_node11"><a xlink:href="acquisition__intervals_8h.html" target="_top" xlink:title="Handles the time between measurements and uplinks by the device over LTE.">
<polygon fill="white" stroke="#666666" points="728,-206 574,-206 574,-176 728,-176 728,-206"/>
<text text-anchor="start" x="582" y="-194" font-family="Helvetica,sans-Serif" font-size="10.00">cli/device_config/acquisition</text>
<text text-anchor="middle" x="651" y="-183" font-family="Helvetica,sans-Serif" font-size="10.00">_intervals.h</text>
</a>
</g>
</g>
<!-- Node1&#45;&gt;Node11 -->
<g id="edge11" class="edge">
<title>Node1&#45;&gt;Node11</title>
<path fill="none" stroke="#63b8ff" d="M384.36,-244.19C436.32,-234.02 511.78,-219.25 569.18,-208.01"/>
<polygon fill="#63b8ff" stroke="#63b8ff" points="570.17,-211.39 579.31,-206.03 568.82,-204.52 570.17,-211.39"/>
</g>
<!-- Node15 -->
<g id="node15" class="node">
<title>Node15</title>
<g id="a_node15"><a xlink:href="mqtt__cli_8h.html" target="_top" xlink:title="MQTT setup and configuration through the CLI.">
<polygon fill="white" stroke="#666666" points="386,-206 262,-206 262,-176 386,-176 386,-206"/>
<text text-anchor="start" x="270" y="-194" font-family="Helvetica,sans-Serif" font-size="10.00">cli/device_config/mqtt</text>
<text text-anchor="middle" x="324" y="-183" font-family="Helvetica,sans-Serif" font-size="10.00">_cli.h</text>
</a>
</g>
</g>
<!-- Node1&#45;&gt;Node15 -->
<g id="edge17" class="edge">
<title>Node1&#45;&gt;Node15</title>
<path fill="none" stroke="#63b8ff" d="M324,-241.8C324,-234.34 324,-224.99 324,-216.41"/>
<polygon fill="#63b8ff" stroke="#63b8ff" points="327.5,-216.16 324,-206.16 320.5,-216.16 327.5,-216.16"/>
</g>
<!-- Node16 -->
<g id="node16" class="node">
<title>Node16</title>
<g id="a_node16"><a xlink:href="ftp__cli_8h.html" target="_top" xlink:title="FTP setup and configuration through the CLI.">
<polygon fill="white" stroke="#666666" points="517.5,-206 404.5,-206 404.5,-176 517.5,-176 517.5,-206"/>
<text text-anchor="start" x="412.5" y="-194" font-family="Helvetica,sans-Serif" font-size="10.00">cli/device_config/ftp</text>
<text text-anchor="middle" x="461" y="-183" font-family="Helvetica,sans-Serif" font-size="10.00">_cli.h</text>
</a>
</g>
</g>
<!-- Node1&#45;&gt;Node16 -->
<g id="edge19" class="edge">
<title>Node1&#45;&gt;Node16</title>
<path fill="none" stroke="#63b8ff" d="M354.07,-241.95C373.96,-232.66 400.26,-220.38 421.79,-210.32"/>
<polygon fill="#63b8ff" stroke="#63b8ff" points="423.43,-213.42 431,-206.01 420.46,-207.07 423.43,-213.42"/>
</g>
<!-- Node17 -->
<g id="node17" class="node">
<title>Node17</title>
<g id="a_node17"><a xlink:href="globals_8h.html" target="_top" xlink:title=" ">
<polygon fill="white" stroke="#666666" points="925.5,-200.5 864.5,-200.5 864.5,-181.5 925.5,-181.5 925.5,-200.5"/>
<text text-anchor="middle" x="895" y="-188.5" font-family="Helvetica,sans-Serif" font-size="10.00">globals.h</text>
</a>
</g>
</g>
<!-- Node1&#45;&gt;Node17 -->
<g id="edge21" class="edge">
<title>Node1&#45;&gt;Node17</title>
<path fill="none" stroke="#63b8ff" d="M384.03,-249.27C500.61,-236.2 754.91,-207.7 854.17,-196.58"/>
<polygon fill="#63b8ff" stroke="#63b8ff" points="854.84,-200.02 864.39,-195.43 854.06,-193.07 854.84,-200.02"/>
</g>
<!-- Node3 -->
<g id="node3" class="node">
<title>Node3</title>
<g id="a_node3"><a xlink:title=" ">
<polygon fill="#e0e0e0" stroke="#999999" points="646.5,-19 583.5,-19 583.5,0 646.5,0 646.5,-19"/>
<text text-anchor="middle" x="615" y="-7" font-family="Helvetica,sans-Serif" font-size="10.00">Arduino.h</text>
</a>
</g>
</g>
<!-- Node2&#45;&gt;Node3 -->
<g id="edge2" class="edge">
<title>Node2&#45;&gt;Node3</title>
<path fill="none" stroke="#63b8ff" d="M345.87,-115.47C396.85,-95.59 523.74,-46.09 583.25,-22.88"/>
<polygon fill="#63b8ff" stroke="#63b8ff" points="584.83,-26.02 592.87,-19.13 582.29,-19.5 584.83,-26.02"/>
</g>
<!-- Node4 -->
<g id="node4" class="node">
<title>Node4</title>
<g id="a_node4"><a xlink:title=" ">
<polygon fill="#e0e0e0" stroke="#999999" points="265.5,-74 182.5,-74 182.5,-55 265.5,-55 265.5,-74"/>
<text text-anchor="middle" x="224" y="-62" font-family="Helvetica,sans-Serif" font-size="10.00">ArduinoJson.h</text>
</a>
</g>
</g>
<!-- Node2&#45;&gt;Node4 -->
<g id="edge3" class="edge">
<title>Node2&#45;&gt;Node4</title>
<path fill="none" stroke="#63b8ff" d="M309.24,-115.37C293,-105.86 266.65,-90.45 247.54,-79.27"/>
<polygon fill="#63b8ff" stroke="#63b8ff" points="249.21,-76.2 238.82,-74.17 245.68,-82.24 249.21,-76.2"/>
</g>
<!-- Node7&#45;&gt;Node4 -->
<g id="edge8" class="edge">
<title>Node7&#45;&gt;Node4</title>
<path fill="none" stroke="#63b8ff" d="M19.43,-181.41C11.62,-165.43 -1.88,-130.86 15,-110 34.45,-85.98 117.12,-74.37 172.48,-69.2"/>
<polygon fill="#63b8ff" stroke="#63b8ff" points="172.83,-72.68 182.48,-68.31 172.2,-65.71 172.83,-72.68"/>
</g>
<!-- Node8 -->
<g id="node8" class="node">
<title>Node8</title>
<g id="a_node8"><a xlink:title=" ">
<polygon fill="#e0e0e0" stroke="#999999" points="80,-134.5 24,-134.5 24,-115.5 80,-115.5 80,-134.5"/>
<text text-anchor="middle" x="52" y="-122.5" font-family="Helvetica,sans-Serif" font-size="10.00">stddef.h</text>
</a>
</g>
</g>
<!-- Node7&#45;&gt;Node8 -->
<g id="edge7" class="edge">
<title>Node7&#45;&gt;Node8</title>
<path fill="none" stroke="#63b8ff" d="M27.78,-181.37C31.93,-171.88 38.72,-156.36 44.05,-144.16"/>
<polygon fill="#63b8ff" stroke="#63b8ff" points="47.3,-145.47 48.1,-134.91 40.89,-142.66 47.3,-145.47"/>
</g>
<!-- Node9 -->
<g id="node9" class="node">
<title>Node9</title>
<g id="a_node9"><a xlink:title=" ">
<polygon fill="#e0e0e0" stroke="#999999" points="191.5,-134.5 98.5,-134.5 98.5,-115.5 191.5,-115.5 191.5,-134.5"/>
<text text-anchor="middle" x="145" y="-122.5" font-family="Helvetica,sans-Serif" font-size="10.00">dpiclimate&#45;12.h</text>
</a>
</g>
</g>
<!-- Node7&#45;&gt;Node9 -->
<g id="edge9" class="edge">
<title>Node7&#45;&gt;Node9</title>
<path fill="none" stroke="#63b8ff" d="M40.32,-181.37C60.71,-170.59 95.81,-152.02 119.7,-139.38"/>
<polygon fill="#63b8ff" stroke="#63b8ff" points="121.35,-142.47 128.55,-134.7 118.08,-136.28 121.35,-142.47"/>
</g>
<!-- Node11&#45;&gt;Node2 -->
<g id="edge16" class="edge">
<title>Node11&#45;&gt;Node2</title>
<path fill="none" stroke="#63b8ff" d="M573.93,-177.26C519.32,-167.88 444.43,-154.32 379,-140 374.66,-139.05 370.14,-138 365.64,-136.92"/>
<polygon fill="#63b8ff" stroke="#63b8ff" points="366.45,-133.51 355.9,-134.51 364.77,-140.31 366.45,-133.51"/>
</g>
<!-- Node11&#45;&gt;Node10 -->
<g id="edge15" class="edge">
<title>Node11&#45;&gt;Node10</title>
<path fill="none" stroke="#63b8ff" d="M604.91,-175.95C567.11,-164.43 514.25,-148.32 478.88,-137.54"/>
<polygon fill="#63b8ff" stroke="#63b8ff" points="479.53,-134.08 468.95,-134.52 477.49,-140.78 479.53,-134.08"/>
</g>
<!-- Node12 -->
<g id="node12" class="node">
<title>Node12</title>
<g id="a_node12"><a xlink:title=" ">
<polygon fill="#e0e0e0" stroke="#999999" points="625.5,-134.5 512.5,-134.5 512.5,-115.5 625.5,-115.5 625.5,-134.5"/>
<text text-anchor="middle" x="569" y="-122.5" font-family="Helvetica,sans-Serif" font-size="10.00">freertos/FreeRTOS.h</text>
</a>
</g>
</g>
<!-- Node11&#45;&gt;Node12 -->
<g id="edge12" class="edge">
<title>Node11&#45;&gt;Node12</title>
<path fill="none" stroke="#63b8ff" d="M632.8,-175.8C619.64,-165.53 601.89,-151.67 588.45,-141.18"/>
<polygon fill="#63b8ff" stroke="#63b8ff" points="590.37,-138.24 580.33,-134.84 586.06,-143.76 590.37,-138.24"/>
</g>
<!-- Node13 -->
<g id="node13" class="node">
<title>Node13</title>
<g id="a_node13"><a xlink:title=" ">
<polygon fill="#e0e0e0" stroke="#999999" points="704.5,-134.5 643.5,-134.5 643.5,-115.5 704.5,-115.5 704.5,-134.5"/>
<text text-anchor="middle" x="674" y="-122.5" font-family="Helvetica,sans-Serif" font-size="10.00">Stream.h</text>
</a>
</g>
</g>
<!-- Node11&#45;&gt;Node13 -->
<g id="edge13" class="edge">
<title>Node11&#45;&gt;Node13</title>
<path fill="none" stroke="#63b8ff" d="M656.1,-175.8C659.44,-166.5 663.84,-154.27 667.44,-144.26"/>
<polygon fill="#63b8ff" stroke="#63b8ff" points="670.73,-145.44 670.82,-134.84 664.15,-143.07 670.73,-145.44"/>
</g>
<!-- Node14 -->
<g id="node14" class="node">
<title>Node14</title>
<g id="a_node14"><a xlink:title=" ">
<polygon fill="#e0e0e0" stroke="#999999" points="811.5,-134.5 722.5,-134.5 722.5,-115.5 811.5,-115.5 811.5,-134.5"/>
<text text-anchor="middle" x="767" y="-122.5" font-family="Helvetica,sans-Serif" font-size="10.00">StreamString.h</text>
</a>
</g>
</g>
<!-- Node11&#45;&gt;Node14 -->
<g id="edge14" class="edge">
<title>Node11&#45;&gt;Node14</title>
<path fill="none" stroke="#63b8ff" d="M676.46,-175.95C696.17,-165.08 723.31,-150.11 742.72,-139.4"/>
<polygon fill="#63b8ff" stroke="#63b8ff" points="744.5,-142.41 751.56,-134.52 741.12,-136.28 744.5,-142.41"/>
</g>
<!-- Node15&#45;&gt;Node2 -->
<g id="edge18" class="edge">
<title>Node15&#45;&gt;Node2</title>
<path fill="none" stroke="#63b8ff" d="M324,-175.8C324,-166.7 324,-154.79 324,-144.9"/>
<polygon fill="#63b8ff" stroke="#63b8ff" points="327.5,-144.84 324,-134.84 320.5,-144.84 327.5,-144.84"/>
</g>
<!-- Node16&#45;&gt;Node2 -->
<g id="edge20" class="edge">
<title>Node16&#45;&gt;Node2</title>
<path fill="none" stroke="#63b8ff" d="M430.93,-175.95C407.23,-164.88 374.44,-149.56 351.44,-138.82"/>
<polygon fill="#63b8ff" stroke="#63b8ff" points="352.77,-135.58 342.23,-134.52 349.81,-141.92 352.77,-135.58"/>
</g>
<!-- Node18 -->
<g id="node18" class="node">
<title>Node18</title>
<g id="a_node18"><a xlink:title=" ">
<polygon fill="#e0e0e0" stroke="#999999" points="960,-140 830,-140 830,-110 960,-110 960,-140"/>
<text text-anchor="start" x="838" y="-128" font-family="Helvetica,sans-Serif" font-size="10.00">SparkFun_u&#45;blox_SARA</text>
<text text-anchor="middle" x="895" y="-117" font-family="Helvetica,sans-Serif" font-size="10.00">&#45;R5_Arduino_Library.h</text>
</a>
</g>
</g>
<!-- Node17&#45;&gt;Node18 -->
<g id="edge22" class="edge">
<title>Node17&#45;&gt;Node18</title>
<path fill="none" stroke="#63b8ff" d="M895,-181.37C895,-173.49 895,-161.45 895,-150.6"/>
<polygon fill="#63b8ff" stroke="#63b8ff" points="898.5,-150.36 895,-140.36 891.5,-150.36 898.5,-150.36"/>
</g>
<!-- Node19 -->
<g id="node19" class="node">
<title>Node19</title>
<g id="a_node19"><a xlink:href="_c_a_t___m1_8h.html" target="_top" xlink:title=" ">
<polygon fill="white" stroke="#666666" points="1043.5,-134.5 978.5,-134.5 978.5,-115.5 1043.5,-115.5 1043.5,-134.5"/>
<text text-anchor="middle" x="1011" y="-122.5" font-family="Helvetica,sans-Serif" font-size="10.00">CAT_M1.h</text>
</a>
</g>
</g>
<!-- Node17&#45;&gt;Node19 -->
<g id="edge23" class="edge">
<title>Node17&#45;&gt;Node19</title>
<path fill="none" stroke="#63b8ff" d="M910.64,-181.37C930.1,-170.63 963.55,-152.18 986.44,-139.55"/>
<polygon fill="#63b8ff" stroke="#63b8ff" points="988.17,-142.59 995.23,-134.7 984.79,-136.47 988.17,-142.59"/>
</g>
<!-- Node20 -->
<g id="node20" class="node">
<title>Node20</title>
<g id="a_node20"><a xlink:title=" ">
<polygon fill="#e0e0e0" stroke="#999999" points="1004,-19 956,-19 956,0 1004,0 1004,-19"/>
<text text-anchor="middle" x="980" y="-7" font-family="Helvetica,sans-Serif" font-size="10.00">Wire.h</text>
</a>
</g>
</g>
<!-- Node19&#45;&gt;Node20 -->
<g id="edge24" class="edge">
<title>Node19&#45;&gt;Node20</title>
<path fill="none" stroke="#63b8ff" d="M1008.67,-115.47C1003.67,-97.15 991.79,-53.68 985,-28.81"/>
<polygon fill="#63b8ff" stroke="#63b8ff" points="988.37,-27.85 982.36,-19.13 981.62,-29.7 988.37,-27.85"/>
</g>
<!-- Node21 -->
<g id="node21" class="node">
<title>Node21</title>
<g id="a_node21"><a xlink:href="_t_c_a9534_8h.html" target="_top" xlink:title=" ">
<polygon fill="white" stroke="#666666" points="983,-74 915,-74 915,-55 983,-55 983,-74"/>
<text text-anchor="middle" x="949" y="-62" font-family="Helvetica,sans-Serif" font-size="10.00">TCA9534.h</text>
</a>
</g>
</g>
<!-- Node19&#45;&gt;Node21 -->
<g id="edge25" class="edge">
<title>Node19&#45;&gt;Node21</title>
<path fill="none" stroke="#63b8ff" d="M1001.85,-115.37C992.33,-106.38 977.2,-92.11 965.57,-81.14"/>
<polygon fill="#63b8ff" stroke="#63b8ff" points="967.86,-78.48 958.19,-74.17 963.06,-83.58 967.86,-78.48"/>
</g>
<!-- Node21&#45;&gt;Node3 -->
<g id="edge26" class="edge">
<title>Node21&#45;&gt;Node3</title>
<path fill="none" stroke="#63b8ff" d="M914.83,-58.08C853.28,-48.31 723.99,-27.79 657.09,-17.18"/>
<polygon fill="#63b8ff" stroke="#63b8ff" points="657.34,-13.67 646.91,-15.56 656.24,-20.59 657.34,-13.67"/>
</g>
<!-- Node21&#45;&gt;Node20 -->
<g id="edge27" class="edge">
<title>Node21&#45;&gt;Node20</title>
<path fill="none" stroke="#63b8ff" d="M954.12,-54.75C958.36,-47.49 964.53,-36.95 969.78,-27.98"/>
<polygon fill="#63b8ff" stroke="#63b8ff" points="972.95,-29.49 974.98,-19.09 966.91,-25.95 972.95,-29.49"/>
</g>
</g>
</svg>
