<?xml version="1.0" encoding="UTF-8" standalone="no"?>
<!DOCTYPE svg PUBLIC "-//W3C//DTD SVG 1.1//EN"
 "http://www.w3.org/Graphics/SVG/1.1/DTD/svg11.dtd">
<!-- Generated by graphviz version 2.43.0 (0)
 -->
<!-- Title: firmware/wombat/include/DeviceConfig.h Pages: 1 -->
<svg width="1754pt" height="192pt"
 viewBox="0.00 0.00 1753.50 192.00" xmlns="http://www.w3.org/2000/svg" xmlns:xlink="http://www.w3.org/1999/xlink">
<g id="graph0" class="graph" transform="scale(1 1) rotate(0) translate(4 188)">
<title>firmware/wombat/include/DeviceConfig.h</title>
<!-- Node1 -->
<g id="node1" class="node">
<title>Node1</title>
<g id="a_node1"><a xlink:title="Node configuration options.">
<polygon fill="#999999" stroke="#666666" points="997,-184 856,-184 856,-154 997,-154 997,-184"/>
<text text-anchor="start" x="864" y="-172" font-family="Helvetica,sans-Serif" font-size="10.00">firmware/wombat/include</text>
<text text-anchor="middle" x="926.5" y="-161" font-family="Helvetica,sans-Serif" font-size="10.00">/DeviceConfig.h</text>
</a>
</g>
</g>
<!-- Node2 -->
<g id="node2" class="node">
<title>Node2</title>
<g id="a_node2"><a xlink:href="acquisition__intervals_8h.html" target="_top" xlink:title="Handles the time between measurements and uplinks by the device over LTE.">
<polygon fill="white" stroke="#666666" points="603,-118 446,-118 446,-77 603,-77 603,-118"/>
<text text-anchor="start" x="454" y="-106" font-family="Helvetica,sans-Serif" font-size="10.00">firmware/wombat/include</text>
<text text-anchor="start" x="454" y="-95" font-family="Helvetica,sans-Serif" font-size="10.00">/cli/device_config/acquisition</text>
<text text-anchor="middle" x="524.5" y="-84" font-family="Helvetica,sans-Serif" font-size="10.00">_intervals.h</text>
</a>
</g>
</g>
<!-- Node1&#45;&gt;Node2 -->
<g id="edge1" class="edge">
<title>Node1&#45;&gt;Node2</title>
<path fill="none" stroke="#63b8ff" d="M845.87,-156.52C782.3,-147.15 691.51,-133.03 612.5,-118 609.43,-117.42 606.29,-116.8 603.13,-116.17"/>
<polygon fill="#63b8ff" stroke="#63b8ff" points="845.43,-160 855.83,-157.99 846.44,-153.07 845.43,-160"/>
</g>
<!-- Node3 -->
<g id="node3" class="node">
<title>Node3</title>
<g id="a_node3"><a xlink:href="_device_config_8cpp.html" target="_top" xlink:title=" ">
<polygon fill="white" stroke="#666666" points="265.5,-35.5 145.5,-35.5 145.5,-5.5 265.5,-5.5 265.5,-35.5"/>
<text text-anchor="start" x="153.5" y="-23.5" font-family="Helvetica,sans-Serif" font-size="10.00">firmware/wombat/src</text>
<text text-anchor="middle" x="205.5" y="-12.5" font-family="Helvetica,sans-Serif" font-size="10.00">/DeviceConfig.cpp</text>
</a>
</g>
</g>
<!-- Node1&#45;&gt;Node3 -->
<g id="edge16" class="edge">
<title>Node1&#45;&gt;Node3</title>
<path fill="none" stroke="#63b8ff" d="M845.72,-166.03C643.83,-160.72 131.58,-144.66 106.5,-118 94.01,-104.73 97.29,-92.72 106.5,-77 118,-57.36 139.28,-44.15 159.17,-35.56"/>
<polygon fill="#63b8ff" stroke="#63b8ff" points="845.88,-169.54 855.96,-166.3 846.06,-162.54 845.88,-169.54"/>
</g>
<!-- Node6 -->
<g id="node6" class="node">
<title>Node6</title>
<g id="a_node6"><a xlink:href="config__cli_8h.html" target="_top" xlink:title=" ">
<polygon fill="white" stroke="#666666" points="779.5,-112.5 621.5,-112.5 621.5,-82.5 779.5,-82.5 779.5,-112.5"/>
<text text-anchor="start" x="629.5" y="-100.5" font-family="Helvetica,sans-Serif" font-size="10.00">firmware/wombat/include</text>
<text text-anchor="middle" x="700.5" y="-89.5" font-family="Helvetica,sans-Serif" font-size="10.00">/cli/device_config/config_cli.h</text>
</a>
</g>
</g>
<!-- Node1&#45;&gt;Node6 -->
<g id="edge5" class="edge">
<title>Node1&#45;&gt;Node6</title>
<path fill="none" stroke="#63b8ff" d="M870.79,-150.87C832.45,-139.08 782.14,-123.61 746.17,-112.54"/>
<polygon fill="#63b8ff" stroke="#63b8ff" points="870.18,-154.34 880.77,-153.94 872.24,-147.65 870.18,-154.34"/>
</g>
<!-- Node8 -->
<g id="node8" class="node">
<title>Node8</title>
<g id="a_node8"><a xlink:href="ftp__cli_8h.html" target="_top" xlink:title="FTP setup and configuration through the CLI.">
<polygon fill="white" stroke="#666666" points="427.5,-112.5 285.5,-112.5 285.5,-82.5 427.5,-82.5 427.5,-112.5"/>
<text text-anchor="start" x="293.5" y="-100.5" font-family="Helvetica,sans-Serif" font-size="10.00">firmware/wombat/include</text>
<text text-anchor="middle" x="356.5" y="-89.5" font-family="Helvetica,sans-Serif" font-size="10.00">/cli/device_config/ftp_cli.h</text>
</a>
</g>
</g>
<!-- Node1&#45;&gt;Node8 -->
<g id="edge8" class="edge">
<title>Node1&#45;&gt;Node8</title>
<path fill="none" stroke="#63b8ff" d="M845.58,-163.07C748.23,-156.37 580.09,-142.34 437.5,-118 428.66,-116.49 419.35,-114.57 410.32,-112.52"/>
<polygon fill="#63b8ff" stroke="#63b8ff" points="845.43,-166.57 855.65,-163.75 845.91,-159.58 845.43,-166.57"/>
</g>
<!-- Node10 -->
<g id="node10" class="node">
<title>Node10</title>
<g id="a_node10"><a xlink:href="mqtt__cli_8h.html" target="_top" xlink:title="MQTT setup and configuration through the CLI.">
<polygon fill="white" stroke="#666666" points="267.5,-112.5 115.5,-112.5 115.5,-82.5 267.5,-82.5 267.5,-112.5"/>
<text text-anchor="start" x="123.5" y="-100.5" font-family="Helvetica,sans-Serif" font-size="10.00">firmware/wombat/include</text>
<text text-anchor="middle" x="191.5" y="-89.5" font-family="Helvetica,sans-Serif" font-size="10.00">/cli/device_config/mqtt_cli.h</text>
</a>
</g>
</g>
<!-- Node1&#45;&gt;Node10 -->
<g id="edge12" class="edge">
<title>Node1&#45;&gt;Node10</title>
<path fill="none" stroke="#63b8ff" d="M845.78,-165.65C722.46,-161.19 480.01,-149 276.5,-118 267.07,-116.56 257.13,-114.65 247.51,-112.59"/>
<polygon fill="#63b8ff" stroke="#63b8ff" points="845.78,-169.15 855.89,-166.01 846.02,-162.15 845.78,-169.15"/>
</g>
<!-- Node12 -->
<g id="node12" class="node">
<title>Node12</title>
<g id="a_node12"><a xlink:href="_sensor_task_8cpp.html" target="_top" xlink:title=" ">
<polygon fill="white" stroke="#666666" points="917.5,-112.5 797.5,-112.5 797.5,-82.5 917.5,-82.5 917.5,-112.5"/>
<text text-anchor="start" x="805.5" y="-100.5" font-family="Helvetica,sans-Serif" font-size="10.00">firmware/wombat/src</text>
<text text-anchor="middle" x="857.5" y="-89.5" font-family="Helvetica,sans-Serif" font-size="10.00">/SensorTask.cpp</text>
</a>
</g>
</g>
<!-- Node1&#45;&gt;Node12 -->
<g id="edge17" class="edge">
<title>Node1&#45;&gt;Node12</title>
<path fill="none" stroke="#63b8ff" d="M905.32,-146.67C894.31,-135.58 881.16,-122.34 871.44,-112.54"/>
<polygon fill="#63b8ff" stroke="#63b8ff" points="903.01,-149.3 912.54,-153.94 907.98,-144.37 903.01,-149.3"/>
</g>
<!-- Node13 -->
<g id="node13" class="node">
<title>Node13</title>
<g id="a_node13"><a xlink:href="_utils_8cpp.html" target="_top" xlink:title="Global utility functions.">
<polygon fill="white" stroke="#666666" points="1055.5,-112.5 935.5,-112.5 935.5,-82.5 1055.5,-82.5 1055.5,-112.5"/>
<text text-anchor="start" x="943.5" y="-100.5" font-family="Helvetica,sans-Serif" font-size="10.00">firmware/wombat/src</text>
<text text-anchor="middle" x="995.5" y="-89.5" font-family="Helvetica,sans-Serif" font-size="10.00">/Utils.cpp</text>
</a>
</g>
</g>
<!-- Node1&#45;&gt;Node13 -->
<g id="edge18" class="edge">
<title>Node1&#45;&gt;Node13</title>
<path fill="none" stroke="#63b8ff" d="M947.68,-146.67C958.69,-135.58 971.84,-122.34 981.56,-112.54"/>
<polygon fill="#63b8ff" stroke="#63b8ff" points="945.02,-144.37 940.46,-153.94 949.99,-149.3 945.02,-144.37"/>
</g>
<!-- Node14 -->
<g id="node14" class="node">
<title>Node14</title>
<g id="a_node14"><a xlink:href="ftp__stack_8cpp.html" target="_top" xlink:title=" ">
<polygon fill="white" stroke="#666666" points="1193.5,-112.5 1073.5,-112.5 1073.5,-82.5 1193.5,-82.5 1193.5,-112.5"/>
<text text-anchor="start" x="1081.5" y="-100.5" font-family="Helvetica,sans-Serif" font-size="10.00">firmware/wombat/src</text>
<text text-anchor="middle" x="1133.5" y="-89.5" font-family="Helvetica,sans-Serif" font-size="10.00">/ftp_stack.cpp</text>
</a>
</g>
</g>
<!-- Node1&#45;&gt;Node14 -->
<g id="edge19" class="edge">
<title>Node1&#45;&gt;Node14</title>
<path fill="none" stroke="#63b8ff" d="M977.97,-150.72C1013.04,-138.95 1058.86,-123.56 1091.67,-112.54"/>
<polygon fill="#63b8ff" stroke="#63b8ff" points="976.76,-147.43 968.39,-153.94 978.98,-154.07 976.76,-147.43"/>
</g>
<!-- Node15 -->
<g id="node15" class="node">
<title>Node15</title>
<g id="a_node15"><a xlink:href="main_8cpp.html" target="_top" xlink:title=" ">
<polygon fill="white" stroke="#666666" points="1331.5,-112.5 1211.5,-112.5 1211.5,-82.5 1331.5,-82.5 1331.5,-112.5"/>
<text text-anchor="start" x="1219.5" y="-100.5" font-family="Helvetica,sans-Serif" font-size="10.00">firmware/wombat/src</text>
<text text-anchor="middle" x="1271.5" y="-89.5" font-family="Helvetica,sans-Serif" font-size="10.00">/main.cpp</text>
</a>
</g>
</g>
<!-- Node1&#45;&gt;Node15 -->
<g id="edge20" class="edge">
<title>Node1&#45;&gt;Node15</title>
<path fill="none" stroke="#63b8ff" d="M1007.3,-155.47C1062.54,-146.38 1137.29,-133.08 1202.5,-118 1209.53,-116.37 1216.92,-114.48 1224.14,-112.53"/>
<polygon fill="#63b8ff" stroke="#63b8ff" points="1006.52,-152.05 997.22,-157.11 1007.65,-158.96 1006.52,-152.05"/>
</g>
<!-- Node16 -->
<g id="node16" class="node">
<title>Node16</title>
<g id="a_node16"><a xlink:href="mqtt__stack_8cpp.html" target="_top" xlink:title=" ">
<polygon fill="white" stroke="#666666" points="1469.5,-112.5 1349.5,-112.5 1349.5,-82.5 1469.5,-82.5 1469.5,-112.5"/>
<text text-anchor="start" x="1357.5" y="-100.5" font-family="Helvetica,sans-Serif" font-size="10.00">firmware/wombat/src</text>
<text text-anchor="middle" x="1409.5" y="-89.5" font-family="Helvetica,sans-Serif" font-size="10.00">/mqtt_stack.cpp</text>
</a>
</g>
</g>
<!-- Node1&#45;&gt;Node16 -->
<g id="edge21" class="edge">
<title>Node1&#45;&gt;Node16</title>
<path fill="none" stroke="#63b8ff" d="M1007.32,-161.98C1091.2,-154.85 1225.9,-140.97 1340.5,-118 1348.07,-116.48 1356.02,-114.56 1363.72,-112.51"/>
<polygon fill="#63b8ff" stroke="#63b8ff" points="1007.03,-158.49 997.35,-162.81 1007.61,-165.46 1007.03,-158.49"/>
</g>
<!-- Node17 -->
<g id="node17" class="node">
<title>Node17</title>
<g id="a_node17"><a xlink:href="ulp_8cpp.html" target="_top" xlink:title=" ">
<polygon fill="white" stroke="#666666" points="1607.5,-112.5 1487.5,-112.5 1487.5,-82.5 1607.5,-82.5 1607.5,-112.5"/>
<text text-anchor="start" x="1495.5" y="-100.5" font-family="Helvetica,sans-Serif" font-size="10.00">firmware/wombat/src</text>
<text text-anchor="middle" x="1547.5" y="-89.5" font-family="Helvetica,sans-Serif" font-size="10.00">/ulp.cpp</text>
</a>
</g>
</g>
<!-- Node1&#45;&gt;Node17 -->
<g id="edge22" class="edge">
<title>Node1&#45;&gt;Node17</title>
<path fill="none" stroke="#63b8ff" d="M1007.4,-165.36C1115.54,-160.76 1312.82,-148.64 1478.5,-118 1486.33,-116.55 1494.56,-114.61 1502.5,-112.51"/>
<polygon fill="#63b8ff" stroke="#63b8ff" points="1007.06,-161.87 997.21,-165.78 1007.35,-168.86 1007.06,-161.87"/>
</g>
<!-- Node18 -->
<g id="node18" class="node">
<title>Node18</title>
<g id="a_node18"><a xlink:href="uplinks_8cpp.html" target="_top" xlink:title=" ">
<polygon fill="white" stroke="#666666" points="1745.5,-112.5 1625.5,-112.5 1625.5,-82.5 1745.5,-82.5 1745.5,-112.5"/>
<text text-anchor="start" x="1633.5" y="-100.5" font-family="Helvetica,sans-Serif" font-size="10.00">firmware/wombat/src</text>
<text text-anchor="middle" x="1685.5" y="-89.5" font-family="Helvetica,sans-Serif" font-size="10.00">/uplinks.cpp</text>
</a>
</g>
</g>
<!-- Node1&#45;&gt;Node18 -->
<g id="edge23" class="edge">
<title>Node1&#45;&gt;Node18</title>
<path fill="none" stroke="#63b8ff" d="M1007.34,-167.44C1136.87,-165.36 1398.53,-156.29 1616.5,-118 1624.47,-116.6 1632.84,-114.65 1640.89,-112.53"/>
<polygon fill="#63b8ff" stroke="#63b8ff" points="1007.05,-163.95 997.11,-167.6 1007.16,-170.94 1007.05,-163.95"/>
</g>
<!-- Node2&#45;&gt;Node3 -->
<g id="edge2" class="edge">
<title>Node2&#45;&gt;Node3</title>
<path fill="none" stroke="#63b8ff" d="M436.06,-76.9C364.96,-61.13 276.56,-41.52 274.5,-41 267.86,-39.33 260.89,-37.47 254.04,-35.59"/>
<polygon fill="#63b8ff" stroke="#63b8ff" points="435.45,-80.35 445.97,-79.09 436.96,-73.51 435.45,-80.35"/>
</g>
<!-- Node4 -->
<g id="node4" class="node">
<title>Node4</title>
<g id="a_node4"><a xlink:href="_c_l_i_8cpp.html" target="_top" xlink:title="FreeRTOS CLI handler.">
<polygon fill="white" stroke="#666666" points="541.5,-35.5 421.5,-35.5 421.5,-5.5 541.5,-5.5 541.5,-35.5"/>
<text text-anchor="start" x="429.5" y="-23.5" font-family="Helvetica,sans-Serif" font-size="10.00">firmware/wombat/src</text>
<text text-anchor="middle" x="481.5" y="-12.5" font-family="Helvetica,sans-Serif" font-size="10.00">/cli/CLI.cpp</text>
</a>
</g>
</g>
<!-- Node2&#45;&gt;Node4 -->
<g id="edge3" class="edge">
<title>Node2&#45;&gt;Node4</title>
<path fill="none" stroke="#63b8ff" d="M508.12,-67.93C501.84,-56.97 494.94,-44.93 489.73,-35.86"/>
<polygon fill="#63b8ff" stroke="#63b8ff" points="505.19,-69.86 513.2,-76.79 511.26,-66.38 505.19,-69.86"/>
</g>
<!-- Node5 -->
<g id="node5" class="node">
<title>Node5</title>
<g id="a_node5"><a xlink:href="acquisition__intervals_8cpp.html" target="_top" xlink:title="Handles the time between measurements and uplinks by the device over LTE.">
<polygon fill="white" stroke="#666666" points="717,-41 560,-41 560,0 717,0 717,-41"/>
<text text-anchor="start" x="568" y="-29" font-family="Helvetica,sans-Serif" font-size="10.00">firmware/wombat/src</text>
<text text-anchor="start" x="568" y="-18" font-family="Helvetica,sans-Serif" font-size="10.00">/cli/device_config/acquisition</text>
<text text-anchor="middle" x="638.5" y="-7" font-family="Helvetica,sans-Serif" font-size="10.00">_intervals.cpp</text>
</a>
</g>
</g>
<!-- Node2&#45;&gt;Node5 -->
<g id="edge4" class="edge">
<title>Node2&#45;&gt;Node5</title>
<path fill="none" stroke="#63b8ff" d="M562.7,-71.37C577.66,-61.53 594.56,-50.41 608.6,-41.17"/>
<polygon fill="#63b8ff" stroke="#63b8ff" points="560.59,-68.57 554.15,-76.99 564.43,-74.42 560.59,-68.57"/>
</g>
<!-- Node6&#45;&gt;Node4 -->
<g id="edge6" class="edge">
<title>Node6&#45;&gt;Node4</title>
<path fill="none" stroke="#63b8ff" d="M650.06,-79.22C611.4,-65.99 558.72,-47.95 522.61,-35.58"/>
<polygon fill="#63b8ff" stroke="#63b8ff" points="648.97,-82.55 659.56,-82.48 651.24,-75.93 648.97,-82.55"/>
</g>
<!-- Node7 -->
<g id="node7" class="node">
<title>Node7</title>
<g id="a_node7"><a xlink:href="config__cli_8cpp.html" target="_top" xlink:title="Command line interface node configuration commands.">
<polygon fill="white" stroke="#666666" points="868,-41 735,-41 735,0 868,0 868,-41"/>
<text text-anchor="start" x="743" y="-29" font-family="Helvetica,sans-Serif" font-size="10.00">firmware/wombat/src</text>
<text text-anchor="start" x="743" y="-18" font-family="Helvetica,sans-Serif" font-size="10.00">/cli/device_config/config</text>
<text text-anchor="middle" x="801.5" y="-7" font-family="Helvetica,sans-Serif" font-size="10.00">_cli.cpp</text>
</a>
</g>
</g>
<!-- Node6&#45;&gt;Node7 -->
<g id="edge7" class="edge">
<title>Node6&#45;&gt;Node7</title>
<path fill="none" stroke="#63b8ff" d="M727.7,-76.31C742.37,-65.41 760.4,-52.02 774.97,-41.2"/>
<polygon fill="#63b8ff" stroke="#63b8ff" points="725.44,-73.62 719.5,-82.39 729.61,-79.24 725.44,-73.62"/>
</g>
<!-- Node8&#45;&gt;Node3 -->
<g id="edge9" class="edge">
<title>Node8&#45;&gt;Node3</title>
<path fill="none" stroke="#63b8ff" d="M319.14,-77.94C292.73,-64.83 257.89,-47.52 233.77,-35.54"/>
<polygon fill="#63b8ff" stroke="#63b8ff" points="317.58,-81.08 328.1,-82.39 320.7,-74.81 317.58,-81.08"/>
</g>
<!-- Node8&#45;&gt;Node4 -->
<g id="edge10" class="edge">
<title>Node8&#45;&gt;Node4</title>
<path fill="none" stroke="#63b8ff" d="M388.87,-77.08C410.54,-64.08 438.57,-47.26 458.09,-35.54"/>
<polygon fill="#63b8ff" stroke="#63b8ff" points="386.79,-74.25 380.01,-82.39 390.39,-80.25 386.79,-74.25"/>
</g>
<!-- Node9 -->
<g id="node9" class="node">
<title>Node9</title>
<g id="a_node9"><a xlink:href="ftp__cli_8cpp.html" target="_top" xlink:title="FTP setup and configuration through the CLI.">
<polygon fill="white" stroke="#666666" points="403.5,-41 283.5,-41 283.5,0 403.5,0 403.5,-41"/>
<text text-anchor="start" x="291.5" y="-29" font-family="Helvetica,sans-Serif" font-size="10.00">firmware/wombat/src</text>
<text text-anchor="start" x="291.5" y="-18" font-family="Helvetica,sans-Serif" font-size="10.00">/cli/device_config/ftp</text>
<text text-anchor="middle" x="343.5" y="-7" font-family="Helvetica,sans-Serif" font-size="10.00">_cli.cpp</text>
</a>
</g>
</g>
<!-- Node8&#45;&gt;Node9 -->
<g id="edge11" class="edge">
<title>Node8&#45;&gt;Node9</title>
<path fill="none" stroke="#63b8ff" d="M352.29,-72.23C350.55,-62.2 348.56,-50.71 346.92,-41.2"/>
<polygon fill="#63b8ff" stroke="#63b8ff" points="348.9,-73.14 354.05,-82.39 355.8,-71.94 348.9,-73.14"/>
</g>
<!-- Node10&#45;&gt;Node3 -->
<g id="edge13" class="edge">
<title>Node10&#45;&gt;Node3</title>
<path fill="none" stroke="#63b8ff" d="M196,-72.41C198.27,-60.24 200.95,-45.9 202.88,-35.54"/>
<polygon fill="#63b8ff" stroke="#63b8ff" points="192.53,-71.92 194.13,-82.39 199.41,-73.21 192.53,-71.92"/>
</g>
<!-- Node10&#45;&gt;Node4 -->
<g id="edge14" class="edge">
<title>Node10&#45;&gt;Node4</title>
<path fill="none" stroke="#63b8ff" d="M259.28,-80.02C303.08,-69.24 361.26,-54.67 412.5,-41 418.99,-39.27 425.82,-37.4 432.55,-35.53"/>
<polygon fill="#63b8ff" stroke="#63b8ff" points="258.2,-76.69 249.32,-82.47 259.87,-83.49 258.2,-76.69"/>
</g>
<!-- Node11 -->
<g id="node11" class="node">
<title>Node11</title>
<g id="a_node11"><a xlink:href="mqtt__cli_8cpp.html" target="_top" xlink:title="MQTT setup and configuration through the CLI.">
<polygon fill="white" stroke="#666666" points="127,-41 0,-41 0,0 127,0 127,-41"/>
<text text-anchor="start" x="8" y="-29" font-family="Helvetica,sans-Serif" font-size="10.00">firmware/wombat/src</text>
<text text-anchor="start" x="8" y="-18" font-family="Helvetica,sans-Serif" font-size="10.00">/cli/device_config/mqtt</text>
<text text-anchor="middle" x="63.5" y="-7" font-family="Helvetica,sans-Serif" font-size="10.00">_cli.cpp</text>
</a>
</g>
</g>
<!-- Node10&#45;&gt;Node11 -->
<g id="edge15" class="edge">
<title>Node10&#45;&gt;Node11</title>
<path fill="none" stroke="#63b8ff" d="M158.59,-77.22C139.73,-66.16 116.11,-52.32 97.13,-41.2"/>
<polygon fill="#63b8ff" stroke="#63b8ff" points="157.03,-80.36 167.42,-82.39 160.57,-74.32 157.03,-80.36"/>
</g>
</g>
</svg>
