<?xml version="1.0" encoding="UTF-8" standalone="no"?>
<!DOCTYPE svg PUBLIC "-//W3C//DTD SVG 1.1//EN"
 "http://www.w3.org/Graphics/SVG/1.1/DTD/svg11.dtd">
<!-- Generated by graphviz version 2.43.0 (0)
 -->
<!-- Title: firmware/wombat/src/SensorTask.cpp Pages: 1 -->
<svg width="1237pt" height="324pt"
 viewBox="0.00 0.00 1236.50 324.00" xmlns="http://www.w3.org/2000/svg" xmlns:xlink="http://www.w3.org/1999/xlink">
<g id="graph0" class="graph" transform="scale(1 1) rotate(0) translate(4 320)">
<title>firmware/wombat/src/SensorTask.cpp</title>
<!-- Node1 -->
<g id="node1" class="node">
<title>Node1</title>
<g id="a_node1"><a xlink:title=" ">
<polygon fill="#999999" stroke="#666666" points="574.5,-316 454.5,-316 454.5,-286 574.5,-286 574.5,-316"/>
<text text-anchor="start" x="462.5" y="-304" font-family="Helvetica,sans-Serif" font-size="10.00">firmware/wombat/src</text>
<text text-anchor="middle" x="514.5" y="-293" font-family="Helvetica,sans-Serif" font-size="10.00">/SensorTask.cpp</text>
</a>
</g>
</g>
<!-- Node2 -->
<g id="node2" class="node">
<title>Node2</title>
<g id="a_node2"><a xlink:title=" ">
<polygon fill="#e0e0e0" stroke="#999999" points="482,-19 419,-19 419,0 482,0 482,-19"/>
<text text-anchor="middle" x="450.5" y="-7" font-family="Helvetica,sans-Serif" font-size="10.00">Arduino.h</text>
</a>
</g>
</g>
<!-- Node1&#45;&gt;Node2 -->
<g id="edge1" class="edge">
<title>Node1&#45;&gt;Node2</title>
<path fill="none" stroke="#63b8ff" d="M481.26,-285.8C465.36,-277.48 447.27,-265.52 435.5,-250 417.7,-226.52 416.5,-215.96 416.5,-186.5 416.5,-186.5 416.5,-186.5 416.5,-124 416.5,-88.84 431.66,-50.03 441.73,-28.12"/>
<polygon fill="#63b8ff" stroke="#63b8ff" points="444.91,-29.6 446.06,-19.07 438.59,-26.58 444.91,-29.6"/>
</g>
<!-- Node3 -->
<g id="node3" class="node">
<title>Node3</title>
<g id="a_node3"><a xlink:href="_sensor_task_8h.html" target="_top" xlink:title=" ">
<polygon fill="white" stroke="#666666" points="280.5,-250 200.5,-250 200.5,-231 280.5,-231 280.5,-250"/>
<text text-anchor="middle" x="240.5" y="-238" font-family="Helvetica,sans-Serif" font-size="10.00">SensorTask.h</text>
</a>
</g>
</g>
<!-- Node1&#45;&gt;Node3 -->
<g id="edge2" class="edge">
<title>Node1&#45;&gt;Node3</title>
<path fill="none" stroke="#63b8ff" d="M454.37,-287.16C405.31,-276.69 336.8,-262.06 290.65,-252.21"/>
<polygon fill="#63b8ff" stroke="#63b8ff" points="291.1,-248.72 280.59,-250.06 289.63,-255.57 291.1,-248.72"/>
</g>
<!-- Node5 -->
<g id="node5" class="node">
<title>Node5</title>
<g id="a_node5"><a xlink:href="_device_config_8h.html" target="_top" xlink:title="Node configuration options.">
<polygon fill="white" stroke="#666666" points="388.5,-250 298.5,-250 298.5,-231 388.5,-231 388.5,-250"/>
<text text-anchor="middle" x="343.5" y="-238" font-family="Helvetica,sans-Serif" font-size="10.00">DeviceConfig.h</text>
</a>
</g>
</g>
<!-- Node1&#45;&gt;Node5 -->
<g id="edge4" class="edge">
<title>Node1&#45;&gt;Node5</title>
<path fill="none" stroke="#63b8ff" d="M473.54,-285.99C444.5,-276.05 405.95,-262.86 378.38,-253.43"/>
<polygon fill="#63b8ff" stroke="#63b8ff" points="379.35,-250.06 368.75,-250.14 377.08,-256.69 379.35,-250.06"/>
</g>
<!-- Node6 -->
<g id="node6" class="node">
<title>Node6</title>
<g id="a_node6"><a xlink:href="_utils_8h.html" target="_top" xlink:title=" ">
<polygon fill="white" stroke="#666666" points="144.5,-250 96.5,-250 96.5,-231 144.5,-231 144.5,-250"/>
<text text-anchor="middle" x="120.5" y="-238" font-family="Helvetica,sans-Serif" font-size="10.00">Utils.h</text>
</a>
</g>
</g>
<!-- Node1&#45;&gt;Node6 -->
<g id="edge7" class="edge">
<title>Node1&#45;&gt;Node6</title>
<path fill="none" stroke="#63b8ff" d="M454.42,-293.06C383.46,-284.52 261.97,-268.81 158.5,-250 157.23,-249.77 155.93,-249.52 154.63,-249.27"/>
<polygon fill="#63b8ff" stroke="#63b8ff" points="155.06,-245.79 144.56,-247.19 153.65,-252.64 155.06,-245.79"/>
</g>
<!-- Node8 -->
<g id="node8" class="node">
<title>Node8</title>
<g id="a_node8"><a xlink:title=" ">
<polygon fill="#e0e0e0" stroke="#999999" points="249,-195 156,-195 156,-176 249,-176 249,-195"/>
<text text-anchor="middle" x="202.5" y="-183" font-family="Helvetica,sans-Serif" font-size="10.00">dpiclimate&#45;12.h</text>
</a>
</g>
</g>
<!-- Node1&#45;&gt;Node8 -->
<g id="edge32" class="edge">
<title>Node1&#45;&gt;Node8</title>
<path fill="none" stroke="#63b8ff" d="M454.44,-299.64C370.51,-297.72 224.69,-288.72 191.5,-250 180.72,-237.42 186.09,-218.15 192.53,-204.14"/>
<polygon fill="#63b8ff" stroke="#63b8ff" points="195.75,-205.53 197.2,-195.03 189.52,-202.34 195.75,-205.53"/>
</g>
<!-- Node9 -->
<g id="node9" class="node">
<title>Node9</title>
<g id="a_node9"><a xlink:href="globals_8h.html" target="_top" xlink:title=" ">
<polygon fill="white" stroke="#666666" points="63,-195 2,-195 2,-176 63,-176 63,-195"/>
<text text-anchor="middle" x="32.5" y="-183" font-family="Helvetica,sans-Serif" font-size="10.00">globals.h</text>
</a>
</g>
</g>
<!-- Node1&#45;&gt;Node9 -->
<g id="edge18" class="edge">
<title>Node1&#45;&gt;Node9</title>
<path fill="none" stroke="#63b8ff" d="M454.47,-298.28C352.33,-294.49 149.76,-282.95 87.5,-250 67.83,-239.59 52.07,-219.03 42.55,-204.12"/>
<polygon fill="#63b8ff" stroke="#63b8ff" points="45.38,-202.04 37.21,-195.3 39.39,-205.67 45.38,-202.04"/>
</g>
<!-- Node14 -->
<g id="node14" class="node">
<title>Node14</title>
<g id="a_node14"><a xlink:href="ulp_8h.html" target="_top" xlink:title=" ">
<polygon fill="white" stroke="#666666" points="940,-250 899,-250 899,-231 940,-231 940,-250"/>
<text text-anchor="middle" x="919.5" y="-238" font-family="Helvetica,sans-Serif" font-size="10.00">ulp.h</text>
</a>
</g>
</g>
<!-- Node1&#45;&gt;Node14 -->
<g id="edge19" class="edge">
<title>Node1&#45;&gt;Node14</title>
<path fill="none" stroke="#63b8ff" d="M574.7,-294.66C647.11,-287.64 772.43,-273.58 889.12,-249.78"/>
<polygon fill="#63b8ff" stroke="#63b8ff" points="889.86,-253.2 898.94,-247.75 888.44,-246.34 889.86,-253.2"/>
</g>
<!-- Node15 -->
<g id="node15" class="node">
<title>Node15</title>
<g id="a_node15"><a xlink:href="interface_8h.html" target="_top" xlink:title=" ">
<polygon fill="white" stroke="#666666" points="880.5,-250 772.5,-250 772.5,-231 880.5,-231 880.5,-250"/>
<text text-anchor="middle" x="826.5" y="-238" font-family="Helvetica,sans-Serif" font-size="10.00">sd&#45;card/interface.h</text>
</a>
</g>
</g>
<!-- Node1&#45;&gt;Node15 -->
<g id="edge20" class="edge">
<title>Node1&#45;&gt;Node15</title>
<path fill="none" stroke="#63b8ff" d="M574.66,-288.72C631.34,-278.09 715.57,-262.3 770.76,-251.95"/>
<polygon fill="#63b8ff" stroke="#63b8ff" points="771.53,-255.37 780.71,-250.08 770.24,-248.49 771.53,-255.37"/>
</g>
<!-- Node18 -->
<g id="node18" class="node">
<title>Node18</title>
<g id="a_node18"><a xlink:href="battery_8h.html" target="_top" xlink:title="Battery voltage and current monitoring using INA219 IC.">
<polygon fill="white" stroke="#666666" points="754,-250 603,-250 603,-231 754,-231 754,-250"/>
<text text-anchor="middle" x="678.5" y="-238" font-family="Helvetica,sans-Serif" font-size="10.00">power_monitoring/battery.h</text>
</a>
</g>
</g>
<!-- Node1&#45;&gt;Node18 -->
<g id="edge24" class="edge">
<title>Node1&#45;&gt;Node18</title>
<path fill="none" stroke="#63b8ff" d="M553.78,-285.99C581.51,-276.1 618.28,-262.98 644.7,-253.56"/>
<polygon fill="#63b8ff" stroke="#63b8ff" points="646.04,-256.8 654.28,-250.14 643.69,-250.2 646.04,-256.8"/>
</g>
<!-- Node20 -->
<g id="node20" class="node">
<title>Node20</title>
<g id="a_node20"><a xlink:href="solar_8h.html" target="_top" xlink:title="Solar voltage and current monitoring using INA219 IC.">
<polygon fill="white" stroke="#666666" points="584.5,-250 444.5,-250 444.5,-231 584.5,-231 584.5,-250"/>
<text text-anchor="middle" x="514.5" y="-238" font-family="Helvetica,sans-Serif" font-size="10.00">power_monitoring/solar.h</text>
</a>
</g>
</g>
<!-- Node1&#45;&gt;Node20 -->
<g id="edge27" class="edge">
<title>Node1&#45;&gt;Node20</title>
<path fill="none" stroke="#63b8ff" d="M514.5,-285.84C514.5,-278.21 514.5,-268.7 514.5,-260.45"/>
<polygon fill="#63b8ff" stroke="#63b8ff" points="518,-260.27 514.5,-250.27 511,-260.27 518,-260.27"/>
</g>
<!-- Node21 -->
<g id="node21" class="node">
<title>Node21</title>
<g id="a_node21"><a xlink:title=" ">
<polygon fill="#e0e0e0" stroke="#999999" points="1021,-250 958,-250 958,-231 1021,-231 1021,-250"/>
<text text-anchor="middle" x="989.5" y="-238" font-family="Helvetica,sans-Serif" font-size="10.00">esp_log.h</text>
</a>
</g>
</g>
<!-- Node1&#45;&gt;Node21 -->
<g id="edge30" class="edge">
<title>Node1&#45;&gt;Node21</title>
<path fill="none" stroke="#63b8ff" d="M574.56,-294.91C656.73,-287.55 808.98,-272.48 947.71,-250.17"/>
<polygon fill="#63b8ff" stroke="#63b8ff" points="948.37,-253.61 957.67,-248.55 947.24,-246.7 948.37,-253.61"/>
</g>
<!-- Node22 -->
<g id="node22" class="node">
<title>Node22</title>
<g id="a_node22"><a xlink:title=" ">
<polygon fill="#e0e0e0" stroke="#999999" points="1152,-250 1039,-250 1039,-231 1152,-231 1152,-250"/>
<text text-anchor="middle" x="1095.5" y="-238" font-family="Helvetica,sans-Serif" font-size="10.00">freertos/FreeRTOS.h</text>
</a>
</g>
</g>
<!-- Node1&#45;&gt;Node22 -->
<g id="edge31" class="edge">
<title>Node1&#45;&gt;Node22</title>
<path fill="none" stroke="#63b8ff" d="M574.55,-294.84C668.97,-286.58 858.16,-269.44 1028.63,-250.18"/>
<polygon fill="#63b8ff" stroke="#63b8ff" points="1029.25,-253.63 1038.79,-249.03 1028.46,-246.68 1029.25,-253.63"/>
</g>
<!-- Node23 -->
<g id="node23" class="node">
<title>Node23</title>
<g id="a_node23"><a xlink:title=" ">
<polygon fill="#e0e0e0" stroke="#999999" points="1228.5,-250 1170.5,-250 1170.5,-231 1228.5,-231 1228.5,-250"/>
<text text-anchor="middle" x="1199.5" y="-238" font-family="Helvetica,sans-Serif" font-size="10.00">SPIFFS.h</text>
</a>
</g>
</g>
<!-- Node1&#45;&gt;Node23 -->
<g id="edge33" class="edge">
<title>Node1&#45;&gt;Node23</title>
<path fill="none" stroke="#63b8ff" d="M574.59,-298.22C687.52,-294.26 939.25,-282.47 1159.97,-250.02"/>
<polygon fill="#63b8ff" stroke="#63b8ff" points="1160.74,-253.44 1170.12,-248.51 1159.71,-246.52 1160.74,-253.44"/>
</g>
<!-- Node4 -->
<g id="node4" class="node">
<title>Node4</title>
<g id="a_node4"><a xlink:title=" ">
<polygon fill="#e0e0e0" stroke="#999999" points="350,-195 267,-195 267,-176 350,-176 350,-195"/>
<text text-anchor="middle" x="308.5" y="-183" font-family="Helvetica,sans-Serif" font-size="10.00">ArduinoJson.h</text>
</a>
</g>
</g>
<!-- Node3&#45;&gt;Node4 -->
<g id="edge3" class="edge">
<title>Node3&#45;&gt;Node4</title>
<path fill="none" stroke="#63b8ff" d="M251.43,-230.98C261.58,-223.07 276.92,-211.11 289.15,-201.58"/>
<polygon fill="#63b8ff" stroke="#63b8ff" points="291.64,-204.08 297.38,-195.17 287.34,-198.56 291.64,-204.08"/>
</g>
<!-- Node5&#45;&gt;Node2 -->
<g id="edge5" class="edge">
<title>Node5&#45;&gt;Node2</title>
<path fill="none" stroke="#63b8ff" d="M346.43,-230.99C349.49,-222.04 354.41,-207.56 358.5,-195 378.7,-132.98 367.64,-110.13 402.5,-55 409.73,-43.56 420.63,-33.13 430.21,-25.25"/>
<polygon fill="#63b8ff" stroke="#63b8ff" points="432.45,-27.94 438.17,-19.02 428.14,-22.43 432.45,-27.94"/>
</g>
<!-- Node5&#45;&gt;Node4 -->
<g id="edge6" class="edge">
<title>Node5&#45;&gt;Node4</title>
<path fill="none" stroke="#63b8ff" d="M337.72,-230.75C332.88,-223.42 325.82,-212.73 319.86,-203.7"/>
<polygon fill="#63b8ff" stroke="#63b8ff" points="322.6,-201.5 314.17,-195.09 316.76,-205.36 322.6,-201.5"/>
</g>
<!-- Node6&#45;&gt;Node4 -->
<g id="edge9" class="edge">
<title>Node6&#45;&gt;Node4</title>
<path fill="none" stroke="#63b8ff" d="M144.69,-232.68C175.88,-223.89 230.54,-208.48 268.08,-197.89"/>
<polygon fill="#63b8ff" stroke="#63b8ff" points="269.51,-201.13 278.18,-195.05 267.61,-194.39 269.51,-201.13"/>
</g>
<!-- Node7 -->
<g id="node7" class="node">
<title>Node7</title>
<g id="a_node7"><a xlink:title=" ">
<polygon fill="#e0e0e0" stroke="#999999" points="137.5,-195 81.5,-195 81.5,-176 137.5,-176 137.5,-195"/>
<text text-anchor="middle" x="109.5" y="-183" font-family="Helvetica,sans-Serif" font-size="10.00">stddef.h</text>
</a>
</g>
</g>
<!-- Node6&#45;&gt;Node7 -->
<g id="edge8" class="edge">
<title>Node6&#45;&gt;Node7</title>
<path fill="none" stroke="#63b8ff" d="M118.68,-230.75C117.24,-223.8 115.18,-213.85 113.37,-205.13"/>
<polygon fill="#63b8ff" stroke="#63b8ff" points="116.74,-204.17 111.28,-195.09 109.89,-205.59 116.74,-204.17"/>
</g>
<!-- Node6&#45;&gt;Node8 -->
<g id="edge10" class="edge">
<title>Node6&#45;&gt;Node8</title>
<path fill="none" stroke="#63b8ff" d="M133.67,-230.98C146.27,-222.84 165.5,-210.41 180.44,-200.76"/>
<polygon fill="#63b8ff" stroke="#63b8ff" points="182.59,-203.54 189.09,-195.17 178.79,-197.66 182.59,-203.54"/>
</g>
<!-- Node6&#45;&gt;Node9 -->
<g id="edge11" class="edge">
<title>Node6&#45;&gt;Node9</title>
<path fill="none" stroke="#63b8ff" d="M106.36,-230.98C92.71,-222.77 71.81,-210.18 55.72,-200.49"/>
<polygon fill="#63b8ff" stroke="#63b8ff" points="57.27,-197.33 46.9,-195.17 53.66,-203.33 57.27,-197.33"/>
</g>
<!-- Node10 -->
<g id="node10" class="node">
<title>Node10</title>
<g id="a_node10"><a xlink:title=" ">
<polygon fill="#e0e0e0" stroke="#999999" points="213.5,-140 83.5,-140 83.5,-110 213.5,-110 213.5,-140"/>
<text text-anchor="start" x="91.5" y="-128" font-family="Helvetica,sans-Serif" font-size="10.00">SparkFun_u&#45;blox_SARA</text>
<text text-anchor="middle" x="148.5" y="-117" font-family="Helvetica,sans-Serif" font-size="10.00">&#45;R5_Arduino_Library.h</text>
</a>
</g>
</g>
<!-- Node9&#45;&gt;Node10 -->
<g id="edge12" class="edge">
<title>Node9&#45;&gt;Node10</title>
<path fill="none" stroke="#63b8ff" d="M49.62,-175.87C65.79,-167.71 90.6,-155.2 111.32,-144.75"/>
<polygon fill="#63b8ff" stroke="#63b8ff" points="113.16,-147.74 120.51,-140.11 110.01,-141.49 113.16,-147.74"/>
</g>
<!-- Node11 -->
<g id="node11" class="node">
<title>Node11</title>
<g id="a_node11"><a xlink:href="_c_a_t___m1_8h.html" target="_top" xlink:title=" ">
<polygon fill="white" stroke="#666666" points="65,-134.5 0,-134.5 0,-115.5 65,-115.5 65,-134.5"/>
<text text-anchor="middle" x="32.5" y="-122.5" font-family="Helvetica,sans-Serif" font-size="10.00">CAT_M1.h</text>
</a>
</g>
</g>
<!-- Node9&#45;&gt;Node11 -->
<g id="edge13" class="edge">
<title>Node9&#45;&gt;Node11</title>
<path fill="none" stroke="#63b8ff" d="M32.5,-175.87C32.5,-167.75 32.5,-155.31 32.5,-144.89"/>
<polygon fill="#63b8ff" stroke="#63b8ff" points="36,-144.67 32.5,-134.67 29,-144.67 36,-144.67"/>
</g>
<!-- Node12 -->
<g id="node12" class="node">
<title>Node12</title>
<g id="a_node12"><a xlink:title=" ">
<polygon fill="#e0e0e0" stroke="#999999" points="87.5,-19 39.5,-19 39.5,0 87.5,0 87.5,-19"/>
<text text-anchor="middle" x="63.5" y="-7" font-family="Helvetica,sans-Serif" font-size="10.00">Wire.h</text>
</a>
</g>
</g>
<!-- Node11&#45;&gt;Node12 -->
<g id="edge14" class="edge">
<title>Node11&#45;&gt;Node12</title>
<path fill="none" stroke="#63b8ff" d="M34.83,-115.47C39.83,-97.15 51.71,-53.68 58.5,-28.81"/>
<polygon fill="#63b8ff" stroke="#63b8ff" points="61.88,-29.7 61.14,-19.13 55.13,-27.85 61.88,-29.7"/>
</g>
<!-- Node13 -->
<g id="node13" class="node">
<title>Node13</title>
<g id="a_node13"><a xlink:href="_t_c_a9534_8h.html" target="_top" xlink:title=" ">
<polygon fill="white" stroke="#666666" points="128.5,-74 60.5,-74 60.5,-55 128.5,-55 128.5,-74"/>
<text text-anchor="middle" x="94.5" y="-62" font-family="Helvetica,sans-Serif" font-size="10.00">TCA9534.h</text>
</a>
</g>
</g>
<!-- Node11&#45;&gt;Node13 -->
<g id="edge15" class="edge">
<title>Node11&#45;&gt;Node13</title>
<path fill="none" stroke="#63b8ff" d="M41.65,-115.37C51.17,-106.38 66.3,-92.11 77.93,-81.14"/>
<polygon fill="#63b8ff" stroke="#63b8ff" points="80.44,-83.58 85.31,-74.17 75.64,-78.48 80.44,-83.58"/>
</g>
<!-- Node13&#45;&gt;Node2 -->
<g id="edge16" class="edge">
<title>Node13&#45;&gt;Node2</title>
<path fill="none" stroke="#63b8ff" d="M128.63,-58.42C194.24,-48.65 337.71,-27.29 408.83,-16.7"/>
<polygon fill="#63b8ff" stroke="#63b8ff" points="409.41,-20.16 418.78,-15.22 408.38,-13.23 409.41,-20.16"/>
</g>
<!-- Node13&#45;&gt;Node12 -->
<g id="edge17" class="edge">
<title>Node13&#45;&gt;Node12</title>
<path fill="none" stroke="#63b8ff" d="M89.38,-54.75C85.14,-47.49 78.97,-36.95 73.72,-27.98"/>
<polygon fill="#63b8ff" stroke="#63b8ff" points="76.59,-25.95 68.52,-19.09 70.55,-29.49 76.59,-25.95"/>
</g>
<!-- Node15&#45;&gt;Node2 -->
<g id="edge21" class="edge">
<title>Node15&#45;&gt;Node2</title>
<path fill="none" stroke="#63b8ff" d="M814.27,-230.89C775.27,-203.59 649.97,-117.11 540.5,-55 520.29,-43.53 496.72,-31.94 478.77,-23.46"/>
<polygon fill="#63b8ff" stroke="#63b8ff" points="479.98,-20.16 469.44,-19.1 477.01,-26.5 479.98,-20.16"/>
</g>
<!-- Node16 -->
<g id="node16" class="node">
<title>Node16</title>
<g id="a_node16"><a xlink:title=" ">
<polygon fill="#e0e0e0" stroke="#999999" points="817,-195 778,-195 778,-176 817,-176 817,-195"/>
<text text-anchor="middle" x="797.5" y="-183" font-family="Helvetica,sans-Serif" font-size="10.00">SD.h</text>
</a>
</g>
</g>
<!-- Node15&#45;&gt;Node16 -->
<g id="edge22" class="edge">
<title>Node15&#45;&gt;Node16</title>
<path fill="none" stroke="#63b8ff" d="M821.71,-230.75C817.74,-223.49 811.97,-212.95 807.07,-203.98"/>
<polygon fill="#63b8ff" stroke="#63b8ff" points="810.07,-202.18 802.2,-195.09 803.93,-205.54 810.07,-202.18"/>
</g>
<!-- Node17 -->
<g id="node17" class="node">
<title>Node17</title>
<g id="a_node17"><a xlink:title=" ">
<polygon fill="#e0e0e0" stroke="#999999" points="876,-195 835,-195 835,-176 876,-176 876,-195"/>
<text text-anchor="middle" x="855.5" y="-183" font-family="Helvetica,sans-Serif" font-size="10.00">SPI.h</text>
</a>
</g>
</g>
<!-- Node15&#45;&gt;Node17 -->
<g id="edge23" class="edge">
<title>Node15&#45;&gt;Node17</title>
<path fill="none" stroke="#63b8ff" d="M831.29,-230.75C835.26,-223.49 841.03,-212.95 845.93,-203.98"/>
<polygon fill="#63b8ff" stroke="#63b8ff" points="849.07,-205.54 850.8,-195.09 842.93,-202.18 849.07,-205.54"/>
</g>
<!-- Node18&#45;&gt;Node2 -->
<g id="edge25" class="edge">
<title>Node18&#45;&gt;Node2</title>
<path fill="none" stroke="#63b8ff" d="M674.86,-230.68C669.29,-217.83 657.8,-193.58 643.5,-176 590.64,-111.01 510.08,-51.42 471.95,-24.95"/>
<polygon fill="#63b8ff" stroke="#63b8ff" points="473.85,-22.01 463.63,-19.23 469.89,-27.78 473.85,-22.01"/>
</g>
<!-- Node19 -->
<g id="node19" class="node">
<title>Node19</title>
<g id="a_node19"><a xlink:title=" ">
<polygon fill="#e0e0e0" stroke="#999999" points="634,-195 529,-195 529,-176 634,-176 634,-195"/>
<text text-anchor="middle" x="581.5" y="-183" font-family="Helvetica,sans-Serif" font-size="10.00">Adafruit_INA219.h</text>
</a>
</g>
</g>
<!-- Node18&#45;&gt;Node19 -->
<g id="edge26" class="edge">
<title>Node18&#45;&gt;Node19</title>
<path fill="none" stroke="#63b8ff" d="M662.92,-230.98C647.73,-222.69 624.4,-209.94 606.6,-200.22"/>
<polygon fill="#63b8ff" stroke="#63b8ff" points="607.82,-196.89 597.37,-195.17 604.47,-203.04 607.82,-196.89"/>
</g>
<!-- Node20&#45;&gt;Node2 -->
<g id="edge28" class="edge">
<title>Node20&#45;&gt;Node2</title>
<path fill="none" stroke="#63b8ff" d="M512.07,-230.8C502.68,-197.22 468.68,-75.57 455.64,-28.9"/>
<polygon fill="#63b8ff" stroke="#63b8ff" points="459,-27.89 452.93,-19.21 452.25,-29.78 459,-27.89"/>
</g>
<!-- Node20&#45;&gt;Node19 -->
<g id="edge29" class="edge">
<title>Node20&#45;&gt;Node19</title>
<path fill="none" stroke="#63b8ff" d="M525.26,-230.98C535.27,-223.07 550.39,-211.11 562.43,-201.58"/>
<polygon fill="#63b8ff" stroke="#63b8ff" points="564.87,-204.12 570.54,-195.17 560.53,-198.63 564.87,-204.12"/>
</g>
</g>
</svg>
