<?xml version="1.0" encoding="UTF-8" standalone="no"?>
<!DOCTYPE svg PUBLIC "-//W3C//DTD SVG 1.1//EN"
 "http://www.w3.org/Graphics/SVG/1.1/DTD/svg11.dtd">
<!-- Generated by graphviz version 2.43.0 (0)
 -->
<!-- Title: firmware/wombat/src/SensorTask.cpp Pages: 1 -->
<svg width="1005pt" height="269pt"
 viewBox="0.00 0.00 1005.16 269.00" xmlns="http://www.w3.org/2000/svg" xmlns:xlink="http://www.w3.org/1999/xlink">
<g id="graph0" class="graph" transform="scale(1 1) rotate(0) translate(4 265)">
<title>firmware/wombat/src/SensorTask.cpp</title>
<!-- Node1 -->
<g id="node1" class="node">
<title>Node1</title>
<g id="a_node1"><a xlink:title=" ">
<polygon fill="#999999" stroke="#666666" points="480.66,-261 360.66,-261 360.66,-231 480.66,-231 480.66,-261"/>
<text text-anchor="start" x="368.66" y="-249" font-family="Helvetica,sans-Serif" font-size="10.00">firmware/wombat/src</text>
<text text-anchor="middle" x="420.66" y="-238" font-family="Helvetica,sans-Serif" font-size="10.00">/SensorTask.cpp</text>
</a>
</g>
</g>
<!-- Node2 -->
<g id="node2" class="node">
<title>Node2</title>
<g id="a_node2"><a xlink:title=" ">
<polygon fill="#e0e0e0" stroke="#999999" points="563.16,-19 500.16,-19 500.16,0 563.16,0 563.16,-19"/>
<text text-anchor="middle" x="531.66" y="-7" font-family="Helvetica,sans-Serif" font-size="10.00">Arduino.h</text>
</a>
</g>
</g>
<!-- Node1&#45;&gt;Node2 -->
<g id="edge1" class="edge">
<title>Node1&#45;&gt;Node2</title>
<path fill="none" stroke="#63b8ff" d="M360.43,-241.63C254.45,-235.1 43.64,-219.2 20.66,-195 -5.38,-167.57 -6.25,-140.09 16.66,-110 73.96,-34.71 377.55,-16.09 489.85,-11.75"/>
<polygon fill="#63b8ff" stroke="#63b8ff" points="490.24,-15.23 500.11,-11.37 489.99,-8.24 490.24,-15.23"/>
</g>
<!-- Node3 -->
<g id="node3" class="node">
<title>Node3</title>
<g id="a_node3"><a xlink:href="_sensor_task_8h.html" target="_top" xlink:title=" ">
<polygon fill="white" stroke="#666666" points="109.66,-195 29.66,-195 29.66,-176 109.66,-176 109.66,-195"/>
<text text-anchor="middle" x="69.66" y="-183" font-family="Helvetica,sans-Serif" font-size="10.00">SensorTask.h</text>
</a>
</g>
</g>
<!-- Node1&#45;&gt;Node3 -->
<g id="edge2" class="edge">
<title>Node1&#45;&gt;Node3</title>
<path fill="none" stroke="#63b8ff" d="M360.47,-235.18C301.71,-225.55 209.46,-210.36 119.83,-195.19"/>
<polygon fill="#63b8ff" stroke="#63b8ff" points="120.21,-191.7 109.77,-193.48 119.04,-198.6 120.21,-191.7"/>
</g>
<!-- Node5 -->
<g id="node5" class="node">
<title>Node5</title>
<g id="a_node5"><a xlink:href="_device_config_8h.html" target="_top" xlink:title=" ">
<polygon fill="white" stroke="#666666" points="217.66,-195 127.66,-195 127.66,-176 217.66,-176 217.66,-195"/>
<text text-anchor="middle" x="172.66" y="-183" font-family="Helvetica,sans-Serif" font-size="10.00">DeviceConfig.h</text>
</a>
</g>
</g>
<!-- Node1&#45;&gt;Node5 -->
<g id="edge4" class="edge">
<title>Node1&#45;&gt;Node5</title>
<path fill="none" stroke="#63b8ff" d="M361.26,-230.99C317.53,-220.67 258.94,-206.85 218.73,-197.37"/>
<polygon fill="#63b8ff" stroke="#63b8ff" points="219.46,-193.94 208.92,-195.05 217.85,-200.76 219.46,-193.94"/>
</g>
<!-- Node6 -->
<g id="node6" class="node">
<title>Node6</title>
<g id="a_node6"><a xlink:href="_utils_8h.html" target="_top" xlink:title=" ">
<polygon fill="white" stroke="#666666" points="336.66,-195 288.66,-195 288.66,-176 336.66,-176 336.66,-195"/>
<text text-anchor="middle" x="312.66" y="-183" font-family="Helvetica,sans-Serif" font-size="10.00">Utils.h</text>
</a>
</g>
</g>
<!-- Node1&#45;&gt;Node6 -->
<g id="edge7" class="edge">
<title>Node1&#45;&gt;Node6</title>
<path fill="none" stroke="#63b8ff" d="M394.79,-230.99C377.41,-221.58 354.65,-209.24 337.49,-199.95"/>
<polygon fill="#63b8ff" stroke="#63b8ff" points="339.07,-196.82 328.61,-195.14 335.73,-202.98 339.07,-196.82"/>
</g>
<!-- Node9 -->
<g id="node9" class="node">
<title>Node9</title>
<g id="a_node9"><a xlink:title=" ">
<polygon fill="#e0e0e0" stroke="#999999" points="438.16,-134.5 345.16,-134.5 345.16,-115.5 438.16,-115.5 438.16,-134.5"/>
<text text-anchor="middle" x="391.66" y="-122.5" font-family="Helvetica,sans-Serif" font-size="10.00">dpiclimate&#45;12.h</text>
</a>
</g>
</g>
<!-- Node1&#45;&gt;Node9 -->
<g id="edge27" class="edge">
<title>Node1&#45;&gt;Node9</title>
<path fill="none" stroke="#63b8ff" d="M417.22,-230.88C411.99,-209.41 402.02,-168.52 396.2,-144.64"/>
<polygon fill="#63b8ff" stroke="#63b8ff" points="399.55,-143.6 393.78,-134.71 392.75,-145.26 399.55,-143.6"/>
</g>
<!-- Node10 -->
<g id="node10" class="node">
<title>Node10</title>
<g id="a_node10"><a xlink:href="globals_8h.html" target="_top" xlink:title=" ">
<polygon fill="white" stroke="#666666" points="481.16,-195 420.16,-195 420.16,-176 481.16,-176 481.16,-195"/>
<text text-anchor="middle" x="450.66" y="-183" font-family="Helvetica,sans-Serif" font-size="10.00">globals.h</text>
</a>
</g>
</g>
<!-- Node1&#45;&gt;Node10 -->
<g id="edge11" class="edge">
<title>Node1&#45;&gt;Node10</title>
<path fill="none" stroke="#63b8ff" d="M427.92,-230.84C432.01,-222.87 437.15,-212.84 441.51,-204.33"/>
<polygon fill="#63b8ff" stroke="#63b8ff" points="444.71,-205.76 446.16,-195.27 438.49,-202.57 444.71,-205.76"/>
</g>
<!-- Node18 -->
<g id="node18" class="node">
<title>Node18</title>
<g id="a_node18"><a xlink:href="ulp_8h.html" target="_top" xlink:title=" ">
<polygon fill="white" stroke="#666666" points="540.16,-195 499.16,-195 499.16,-176 540.16,-176 540.16,-195"/>
<text text-anchor="middle" x="519.66" y="-183" font-family="Helvetica,sans-Serif" font-size="10.00">ulp.h</text>
</a>
</g>
</g>
<!-- Node1&#45;&gt;Node18 -->
<g id="edge24" class="edge">
<title>Node1&#45;&gt;Node18</title>
<path fill="none" stroke="#63b8ff" d="M444.37,-230.99C460,-221.75 480.4,-209.7 496.02,-200.47"/>
<polygon fill="#63b8ff" stroke="#63b8ff" points="498.21,-203.24 505.04,-195.14 494.65,-197.21 498.21,-203.24"/>
</g>
<!-- Node19 -->
<g id="node19" class="node">
<title>Node19</title>
<g id="a_node19"><a xlink:title=" ">
<polygon fill="#e0e0e0" stroke="#999999" points="621.16,-195 558.16,-195 558.16,-176 621.16,-176 621.16,-195"/>
<text text-anchor="middle" x="589.66" y="-183" font-family="Helvetica,sans-Serif" font-size="10.00">esp_log.h</text>
</a>
</g>
</g>
<!-- Node1&#45;&gt;Node19 -->
<g id="edge25" class="edge">
<title>Node1&#45;&gt;Node19</title>
<path fill="none" stroke="#63b8ff" d="M461.14,-230.99C489.84,-221.05 527.94,-207.86 555.19,-198.43"/>
<polygon fill="#63b8ff" stroke="#63b8ff" points="556.4,-201.72 564.7,-195.14 554.11,-195.1 556.4,-201.72"/>
</g>
<!-- Node20 -->
<g id="node20" class="node">
<title>Node20</title>
<g id="a_node20"><a xlink:title=" ">
<polygon fill="#e0e0e0" stroke="#999999" points="752.16,-195 639.16,-195 639.16,-176 752.16,-176 752.16,-195"/>
<text text-anchor="middle" x="695.66" y="-183" font-family="Helvetica,sans-Serif" font-size="10.00">freertos/FreeRTOS.h</text>
</a>
</g>
</g>
<!-- Node1&#45;&gt;Node20 -->
<g id="edge26" class="edge">
<title>Node1&#45;&gt;Node20</title>
<path fill="none" stroke="#63b8ff" d="M480.67,-232.23C529.99,-221.74 599.07,-207.05 645.49,-197.17"/>
<polygon fill="#63b8ff" stroke="#63b8ff" points="646.27,-200.58 655.32,-195.08 644.82,-193.74 646.27,-200.58"/>
</g>
<!-- Node21 -->
<g id="node21" class="node">
<title>Node21</title>
<g id="a_node21"><a xlink:title=" ">
<polygon fill="#e0e0e0" stroke="#999999" points="828.66,-195 770.66,-195 770.66,-176 828.66,-176 828.66,-195"/>
<text text-anchor="middle" x="799.66" y="-183" font-family="Helvetica,sans-Serif" font-size="10.00">SPIFFS.h</text>
</a>
</g>
</g>
<!-- Node1&#45;&gt;Node21 -->
<g id="edge28" class="edge">
<title>Node1&#45;&gt;Node21</title>
<path fill="none" stroke="#63b8ff" d="M480.94,-237.54C547.12,-229.04 656.73,-214.06 760.62,-195.07"/>
<polygon fill="#63b8ff" stroke="#63b8ff" points="761.46,-198.48 770.66,-193.22 760.19,-191.59 761.46,-198.48"/>
</g>
<!-- Node4 -->
<g id="node4" class="node">
<title>Node4</title>
<g id="a_node4"><a xlink:title=" ">
<polygon fill="#e0e0e0" stroke="#999999" points="113.16,-134.5 26.16,-134.5 26.16,-115.5 113.16,-115.5 113.16,-134.5"/>
<text text-anchor="middle" x="69.66" y="-122.5" font-family="Helvetica,sans-Serif" font-size="10.00">ArduinoJSON.h</text>
</a>
</g>
</g>
<!-- Node3&#45;&gt;Node4 -->
<g id="edge3" class="edge">
<title>Node3&#45;&gt;Node4</title>
<path fill="none" stroke="#63b8ff" d="M69.66,-175.87C69.66,-167.75 69.66,-155.31 69.66,-144.89"/>
<polygon fill="#63b8ff" stroke="#63b8ff" points="73.16,-144.67 69.66,-134.67 66.16,-144.67 73.16,-144.67"/>
</g>
<!-- Node5&#45;&gt;Node2 -->
<g id="edge5" class="edge">
<title>Node5&#45;&gt;Node2</title>
<path fill="none" stroke="#63b8ff" d="M167.4,-175.66C159.17,-160.56 145.67,-129.54 160.66,-110 200.93,-57.5 401.68,-26.61 489.93,-15.37"/>
<polygon fill="#63b8ff" stroke="#63b8ff" points="490.62,-18.81 500.11,-14.09 489.75,-11.86 490.62,-18.81"/>
</g>
<!-- Node5&#45;&gt;Node4 -->
<g id="edge6" class="edge">
<title>Node5&#45;&gt;Node4</title>
<path fill="none" stroke="#63b8ff" d="M157.46,-175.87C140.65,-166.32 113.34,-150.81 93.64,-139.62"/>
<polygon fill="#63b8ff" stroke="#63b8ff" points="95.34,-136.56 84.92,-134.67 91.89,-142.65 95.34,-136.56"/>
</g>
<!-- Node7 -->
<g id="node7" class="node">
<title>Node7</title>
<g id="a_node7"><a xlink:title=" ">
<polygon fill="#e0e0e0" stroke="#999999" points="225.66,-134.5 169.66,-134.5 169.66,-115.5 225.66,-115.5 225.66,-134.5"/>
<text text-anchor="middle" x="197.66" y="-122.5" font-family="Helvetica,sans-Serif" font-size="10.00">stddef.h</text>
</a>
</g>
</g>
<!-- Node6&#45;&gt;Node7 -->
<g id="edge8" class="edge">
<title>Node6&#45;&gt;Node7</title>
<path fill="none" stroke="#63b8ff" d="M295.69,-175.87C276.75,-166.23 245.87,-150.53 223.83,-139.31"/>
<polygon fill="#63b8ff" stroke="#63b8ff" points="225.2,-136.08 214.7,-134.67 222.02,-142.32 225.2,-136.08"/>
</g>
<!-- Node8 -->
<g id="node8" class="node">
<title>Node8</title>
<g id="a_node8"><a xlink:title=" ">
<polygon fill="#e0e0e0" stroke="#999999" points="327.16,-134.5 244.16,-134.5 244.16,-115.5 327.16,-115.5 327.16,-134.5"/>
<text text-anchor="middle" x="285.66" y="-122.5" font-family="Helvetica,sans-Serif" font-size="10.00">ArduinoJson.h</text>
</a>
</g>
</g>
<!-- Node6&#45;&gt;Node8 -->
<g id="edge9" class="edge">
<title>Node6&#45;&gt;Node8</title>
<path fill="none" stroke="#63b8ff" d="M308.68,-175.87C304.81,-167.49 298.82,-154.51 293.92,-143.89"/>
<polygon fill="#63b8ff" stroke="#63b8ff" points="297.03,-142.28 289.66,-134.67 290.67,-145.21 297.03,-142.28"/>
</g>
<!-- Node6&#45;&gt;Node9 -->
<g id="edge10" class="edge">
<title>Node6&#45;&gt;Node9</title>
<path fill="none" stroke="#63b8ff" d="M324.32,-175.87C336.8,-166.62 356.84,-151.78 371.82,-140.69"/>
<polygon fill="#63b8ff" stroke="#63b8ff" points="374,-143.43 379.95,-134.67 369.84,-137.81 374,-143.43"/>
</g>
<!-- Node11 -->
<g id="node11" class="node">
<title>Node11</title>
<g id="a_node11"><a xlink:href="battery_8h.html" target="_top" xlink:title="Battery voltage and current monitoring using INA219 IC.">
<polygon fill="white" stroke="#666666" points="607.16,-134.5 456.16,-134.5 456.16,-115.5 607.16,-115.5 607.16,-134.5"/>
<text text-anchor="middle" x="531.66" y="-122.5" font-family="Helvetica,sans-Serif" font-size="10.00">power_monitoring/battery.h</text>
</a>
</g>
</g>
<!-- Node10&#45;&gt;Node11 -->
<g id="edge12" class="edge">
<title>Node10&#45;&gt;Node11</title>
<path fill="none" stroke="#63b8ff" d="M462.61,-175.87C475.41,-166.62 495.96,-151.78 511.31,-140.69"/>
<polygon fill="#63b8ff" stroke="#63b8ff" points="513.6,-143.36 519.66,-134.67 509.5,-137.68 513.6,-143.36"/>
</g>
<!-- Node13 -->
<g id="node13" class="node">
<title>Node13</title>
<g id="a_node13"><a xlink:href="solar_8h.html" target="_top" xlink:title="Solar voltage and current monitoring using INA219 IC.">
<polygon fill="white" stroke="#666666" points="765.66,-134.5 625.66,-134.5 625.66,-115.5 765.66,-115.5 765.66,-134.5"/>
<text text-anchor="middle" x="695.66" y="-122.5" font-family="Helvetica,sans-Serif" font-size="10.00">power_monitoring/solar.h</text>
</a>
</g>
</g>
<!-- Node10&#45;&gt;Node13 -->
<g id="edge15" class="edge">
<title>Node10&#45;&gt;Node13</title>
<path fill="none" stroke="#63b8ff" d="M481.19,-177.21C523.68,-167.07 600.93,-148.62 650.2,-136.85"/>
<polygon fill="#63b8ff" stroke="#63b8ff" points="651.05,-140.25 659.97,-134.52 649.43,-133.44 651.05,-140.25"/>
</g>
<!-- Node14 -->
<g id="node14" class="node">
<title>Node14</title>
<g id="a_node14"><a xlink:title=" ">
<polygon fill="#e0e0e0" stroke="#999999" points="913.66,-140 783.66,-140 783.66,-110 913.66,-110 913.66,-140"/>
<text text-anchor="start" x="791.66" y="-128" font-family="Helvetica,sans-Serif" font-size="10.00">SparkFun_u&#45;blox_SARA</text>
<text text-anchor="middle" x="848.66" y="-117" font-family="Helvetica,sans-Serif" font-size="10.00">&#45;R5_Arduino_Library.h</text>
</a>
</g>
</g>
<!-- Node10&#45;&gt;Node14 -->
<g id="edge18" class="edge">
<title>Node10&#45;&gt;Node14</title>
<path fill="none" stroke="#63b8ff" d="M481.18,-177.74C484.38,-177.11 487.58,-176.52 490.66,-176 612.92,-155.3 647.25,-159.59 773.29,-140.15"/>
<polygon fill="#63b8ff" stroke="#63b8ff" points="773.99,-143.59 783.33,-138.58 772.91,-136.67 773.99,-143.59"/>
</g>
<!-- Node15 -->
<g id="node15" class="node">
<title>Node15</title>
<g id="a_node15"><a xlink:href="_c_a_t___m1_8h.html" target="_top" xlink:title=" ">
<polygon fill="white" stroke="#666666" points="997.16,-134.5 932.16,-134.5 932.16,-115.5 997.16,-115.5 997.16,-134.5"/>
<text text-anchor="middle" x="964.66" y="-122.5" font-family="Helvetica,sans-Serif" font-size="10.00">CAT_M1.h</text>
</a>
</g>
</g>
<!-- Node10&#45;&gt;Node15 -->
<g id="edge19" class="edge">
<title>Node10&#45;&gt;Node15</title>
<path fill="none" stroke="#63b8ff" d="M481.16,-177.6C484.36,-177.01 487.57,-176.46 490.66,-176 681.27,-147.92 733.93,-178.74 922.66,-140 925.9,-139.34 929.23,-138.5 932.54,-137.57"/>
<polygon fill="#63b8ff" stroke="#63b8ff" points="933.74,-140.86 942.26,-134.56 931.67,-134.17 933.74,-140.86"/>
</g>
<!-- Node11&#45;&gt;Node2 -->
<g id="edge13" class="edge">
<title>Node11&#45;&gt;Node2</title>
<path fill="none" stroke="#63b8ff" d="M531.66,-115.47C531.66,-97.23 531.66,-54.07 531.66,-29.14"/>
<polygon fill="#63b8ff" stroke="#63b8ff" points="535.16,-29.13 531.66,-19.13 528.16,-29.13 535.16,-29.13"/>
</g>
<!-- Node12 -->
<g id="node12" class="node">
<title>Node12</title>
<g id="a_node12"><a xlink:title=" ">
<polygon fill="#e0e0e0" stroke="#999999" points="666.16,-74 561.16,-74 561.16,-55 666.16,-55 666.16,-74"/>
<text text-anchor="middle" x="613.66" y="-62" font-family="Helvetica,sans-Serif" font-size="10.00">Adafruit_INA219.h</text>
</a>
</g>
</g>
<!-- Node11&#45;&gt;Node12 -->
<g id="edge14" class="edge">
<title>Node11&#45;&gt;Node12</title>
<path fill="none" stroke="#63b8ff" d="M543.76,-115.37C556.72,-106.12 577.52,-91.28 593.06,-80.19"/>
<polygon fill="#63b8ff" stroke="#63b8ff" points="595.4,-82.82 601.51,-74.17 591.34,-77.13 595.4,-82.82"/>
</g>
<!-- Node13&#45;&gt;Node2 -->
<g id="edge16" class="edge">
<title>Node13&#45;&gt;Node2</title>
<path fill="none" stroke="#63b8ff" d="M695.64,-115.06C695.11,-100.47 691.92,-71.55 675.66,-55 648.77,-27.63 605.44,-17.02 573.33,-12.94"/>
<polygon fill="#63b8ff" stroke="#63b8ff" points="573.65,-9.46 563.33,-11.83 572.88,-16.41 573.65,-9.46"/>
</g>
<!-- Node13&#45;&gt;Node12 -->
<g id="edge17" class="edge">
<title>Node13&#45;&gt;Node12</title>
<path fill="none" stroke="#63b8ff" d="M683.56,-115.37C670.6,-106.12 649.8,-91.28 634.26,-80.19"/>
<polygon fill="#63b8ff" stroke="#63b8ff" points="635.98,-77.13 625.81,-74.17 631.92,-82.82 635.98,-77.13"/>
</g>
<!-- Node16 -->
<g id="node16" class="node">
<title>Node16</title>
<g id="a_node16"><a xlink:title=" ">
<polygon fill="#e0e0e0" stroke="#999999" points="957.66,-19 909.66,-19 909.66,0 957.66,0 957.66,-19"/>
<text text-anchor="middle" x="933.66" y="-7" font-family="Helvetica,sans-Serif" font-size="10.00">Wire.h</text>
</a>
</g>
</g>
<!-- Node15&#45;&gt;Node16 -->
<g id="edge20" class="edge">
<title>Node15&#45;&gt;Node16</title>
<path fill="none" stroke="#63b8ff" d="M962.33,-115.47C957.32,-97.15 945.45,-53.68 938.66,-28.81"/>
<polygon fill="#63b8ff" stroke="#63b8ff" points="942.03,-27.85 936.02,-19.13 935.27,-29.7 942.03,-27.85"/>
</g>
<!-- Node17 -->
<g id="node17" class="node">
<title>Node17</title>
<g id="a_node17"><a xlink:href="_t_c_a9534_8h.html" target="_top" xlink:title=" ">
<polygon fill="white" stroke="#666666" points="936.66,-74 868.66,-74 868.66,-55 936.66,-55 936.66,-74"/>
<text text-anchor="middle" x="902.66" y="-62" font-family="Helvetica,sans-Serif" font-size="10.00">TCA9534.h</text>
</a>
</g>
</g>
<!-- Node15&#45;&gt;Node17 -->
<g id="edge21" class="edge">
<title>Node15&#45;&gt;Node17</title>
<path fill="none" stroke="#63b8ff" d="M955.51,-115.37C945.99,-106.38 930.86,-92.11 919.23,-81.14"/>
<polygon fill="#63b8ff" stroke="#63b8ff" points="921.52,-78.48 911.84,-74.17 916.72,-83.58 921.52,-78.48"/>
</g>
<!-- Node17&#45;&gt;Node2 -->
<g id="edge22" class="edge">
<title>Node17&#45;&gt;Node2</title>
<path fill="none" stroke="#63b8ff" d="M868.42,-58.61C800.2,-48.86 647.53,-27.05 573.5,-16.48"/>
<polygon fill="#63b8ff" stroke="#63b8ff" points="573.56,-12.95 563.17,-15 572.57,-19.88 573.56,-12.95"/>
</g>
<!-- Node17&#45;&gt;Node16 -->
<g id="edge23" class="edge">
<title>Node17&#45;&gt;Node16</title>
<path fill="none" stroke="#63b8ff" d="M907.78,-54.75C912.02,-47.49 918.19,-36.95 923.43,-27.98"/>
<polygon fill="#63b8ff" stroke="#63b8ff" points="926.61,-29.49 928.64,-19.09 920.57,-25.95 926.61,-29.49"/>
</g>
</g>
</svg>
