<?xml version="1.0" encoding="UTF-8" standalone="no"?>
<!DOCTYPE svg PUBLIC "-//W3C//DTD SVG 1.1//EN"
 "http://www.w3.org/Graphics/SVG/1.1/DTD/svg11.dtd">
<!-- Generated by graphviz version 2.43.0 (0)
 -->
<!-- Title: firmware/wombat/src/SensorTask.cpp Pages: 1 -->
<svg width="1376pt" height="269pt"
 viewBox="0.00 0.00 1375.50 269.00" xmlns="http://www.w3.org/2000/svg" xmlns:xlink="http://www.w3.org/1999/xlink">
<g id="graph0" class="graph" transform="scale(1 1) rotate(0) translate(4 265)">
<title>firmware/wombat/src/SensorTask.cpp</title>
<!-- Node1 -->
<g id="node1" class="node">
<title>Node1</title>
<g id="a_node1"><a xlink:title=" ">
<polygon fill="#999999" stroke="#666666" points="935.5,-261 815.5,-261 815.5,-231 935.5,-231 935.5,-261"/>
<text text-anchor="start" x="823.5" y="-249" font-family="Helvetica,sans-Serif" font-size="10.00">firmware/wombat/src</text>
<text text-anchor="middle" x="875.5" y="-238" font-family="Helvetica,sans-Serif" font-size="10.00">/SensorTask.cpp</text>
</a>
</g>
</g>
<!-- Node2 -->
<g id="node2" class="node">
<title>Node2</title>
<g id="a_node2"><a xlink:title=" ">
<polygon fill="#e0e0e0" stroke="#999999" points="467,-19 404,-19 404,0 467,0 467,-19"/>
<text text-anchor="middle" x="435.5" y="-7" font-family="Helvetica,sans-Serif" font-size="10.00">Arduino.h</text>
</a>
</g>
</g>
<!-- Node1&#45;&gt;Node2 -->
<g id="edge1" class="edge">
<title>Node1&#45;&gt;Node2</title>
<path fill="none" stroke="#63b8ff" d="M815.48,-243.22C691.96,-238.94 418.5,-226.03 390.5,-195 368.21,-170.29 409.06,-69.8 427.33,-28.43"/>
<polygon fill="#63b8ff" stroke="#63b8ff" points="430.54,-29.83 431.44,-19.27 424.15,-26.96 430.54,-29.83"/>
</g>
<!-- Node3 -->
<g id="node3" class="node">
<title>Node3</title>
<g id="a_node3"><a xlink:href="_sensor_task_8h.html" target="_top" xlink:title=" ">
<polygon fill="white" stroke="#666666" points="915.5,-195 835.5,-195 835.5,-176 915.5,-176 915.5,-195"/>
<text text-anchor="middle" x="875.5" y="-183" font-family="Helvetica,sans-Serif" font-size="10.00">SensorTask.h</text>
</a>
</g>
</g>
<!-- Node1&#45;&gt;Node3 -->
<g id="edge2" class="edge">
<title>Node1&#45;&gt;Node3</title>
<path fill="none" stroke="#63b8ff" d="M875.5,-230.84C875.5,-223.21 875.5,-213.7 875.5,-205.45"/>
<polygon fill="#63b8ff" stroke="#63b8ff" points="879,-205.27 875.5,-195.27 872,-205.27 879,-205.27"/>
</g>
<!-- Node5 -->
<g id="node5" class="node">
<title>Node5</title>
<g id="a_node5"><a xlink:href="_device_config_8h.html" target="_top" xlink:title="Node configuration options.">
<polygon fill="white" stroke="#666666" points="817.5,-195 727.5,-195 727.5,-176 817.5,-176 817.5,-195"/>
<text text-anchor="middle" x="772.5" y="-183" font-family="Helvetica,sans-Serif" font-size="10.00">DeviceConfig.h</text>
</a>
</g>
</g>
<!-- Node1&#45;&gt;Node5 -->
<g id="edge4" class="edge">
<title>Node1&#45;&gt;Node5</title>
<path fill="none" stroke="#63b8ff" d="M850.83,-230.99C834.41,-221.66 812.95,-209.47 796.64,-200.21"/>
<polygon fill="#63b8ff" stroke="#63b8ff" points="798.13,-197.03 787.71,-195.14 794.68,-203.12 798.13,-197.03"/>
</g>
<!-- Node6 -->
<g id="node6" class="node">
<title>Node6</title>
<g id="a_node6"><a xlink:href="_utils_8h.html" target="_top" xlink:title=" ">
<polygon fill="white" stroke="#666666" points="981.5,-195 933.5,-195 933.5,-176 981.5,-176 981.5,-195"/>
<text text-anchor="middle" x="957.5" y="-183" font-family="Helvetica,sans-Serif" font-size="10.00">Utils.h</text>
</a>
</g>
</g>
<!-- Node1&#45;&gt;Node6 -->
<g id="edge7" class="edge">
<title>Node1&#45;&gt;Node6</title>
<path fill="none" stroke="#63b8ff" d="M895.35,-230.84C907.98,-221.83 924.3,-210.18 937.05,-201.09"/>
<polygon fill="#63b8ff" stroke="#63b8ff" points="939.1,-203.92 945.21,-195.27 935.04,-198.22 939.1,-203.92"/>
</g>
<!-- Node8 -->
<g id="node8" class="node">
<title>Node8</title>
<g id="a_node8"><a xlink:title=" ">
<polygon fill="#e0e0e0" stroke="#999999" points="1076,-134.5 983,-134.5 983,-115.5 1076,-115.5 1076,-134.5"/>
<text text-anchor="middle" x="1029.5" y="-122.5" font-family="Helvetica,sans-Serif" font-size="10.00">dpiclimate&#45;12.h</text>
</a>
</g>
</g>
<!-- Node1&#45;&gt;Node8 -->
<g id="edge31" class="edge">
<title>Node1&#45;&gt;Node8</title>
<path fill="none" stroke="#63b8ff" d="M926.24,-230.93C947.89,-223.03 972.3,-211.39 990.5,-195 1005.95,-181.08 1016.75,-159.55 1023.01,-144.24"/>
<polygon fill="#63b8ff" stroke="#63b8ff" points="1026.31,-145.4 1026.61,-134.81 1019.77,-142.9 1026.31,-145.4"/>
</g>
<!-- Node9 -->
<g id="node9" class="node">
<title>Node9</title>
<g id="a_node9"><a xlink:href="globals_8h.html" target="_top" xlink:title=" ">
<polygon fill="white" stroke="#666666" points="179,-195 118,-195 118,-176 179,-176 179,-195"/>
<text text-anchor="middle" x="148.5" y="-183" font-family="Helvetica,sans-Serif" font-size="10.00">globals.h</text>
</a>
</g>
</g>
<!-- Node1&#45;&gt;Node9 -->
<g id="edge11" class="edge">
<title>Node1&#45;&gt;Node9</title>
<path fill="none" stroke="#63b8ff" d="M815.5,-241.01C700.92,-233.26 443.11,-215.14 226.5,-195 214.44,-193.88 201.34,-192.51 189.38,-191.2"/>
<polygon fill="#63b8ff" stroke="#63b8ff" points="189.55,-187.7 179.23,-190.08 188.78,-194.66 189.55,-187.7"/>
</g>
<!-- Node14 -->
<g id="node14" class="node">
<title>Node14</title>
<g id="a_node14"><a xlink:href="ulp_8h.html" target="_top" xlink:title=" ">
<polygon fill="white" stroke="#666666" points="1079,-195 1038,-195 1038,-176 1079,-176 1079,-195"/>
<text text-anchor="middle" x="1058.5" y="-183" font-family="Helvetica,sans-Serif" font-size="10.00">ulp.h</text>
</a>
</g>
</g>
<!-- Node1&#45;&gt;Node14 -->
<g id="edge18" class="edge">
<title>Node1&#45;&gt;Node14</title>
<path fill="none" stroke="#63b8ff" d="M919.33,-230.99C952.82,-220.28 998.12,-205.8 1027.81,-196.31"/>
<polygon fill="#63b8ff" stroke="#63b8ff" points="1029.16,-199.56 1037.61,-193.18 1027.02,-192.89 1029.16,-199.56"/>
</g>
<!-- Node15 -->
<g id="node15" class="node">
<title>Node15</title>
<g id="a_node15"><a xlink:href="interface_8h.html" target="_top" xlink:title=" ">
<polygon fill="white" stroke="#666666" points="343.5,-195 235.5,-195 235.5,-176 343.5,-176 343.5,-195"/>
<text text-anchor="middle" x="289.5" y="-183" font-family="Helvetica,sans-Serif" font-size="10.00">sd&#45;card/interface.h</text>
</a>
</g>
</g>
<!-- Node1&#45;&gt;Node15 -->
<g id="edge19" class="edge">
<title>Node1&#45;&gt;Node15</title>
<path fill="none" stroke="#63b8ff" d="M815.23,-239.74C718.57,-231.17 522.96,-213.32 357.5,-195 356.24,-194.86 354.96,-194.72 353.67,-194.57"/>
<polygon fill="#63b8ff" stroke="#63b8ff" points="354.01,-191.09 343.67,-193.41 353.2,-198.04 354.01,-191.09"/>
</g>
<!-- Node18 -->
<g id="node18" class="node">
<title>Node18</title>
<g id="a_node18"><a xlink:href="battery_8h.html" target="_top" xlink:title="Battery voltage and current monitoring using INA219 IC.">
<polygon fill="white" stroke="#666666" points="551,-195 400,-195 400,-176 551,-176 551,-195"/>
<text text-anchor="middle" x="475.5" y="-183" font-family="Helvetica,sans-Serif" font-size="10.00">power_monitoring/battery.h</text>
</a>
</g>
</g>
<!-- Node1&#45;&gt;Node18 -->
<g id="edge23" class="edge">
<title>Node1&#45;&gt;Node18</title>
<path fill="none" stroke="#63b8ff" d="M815.18,-236.18C742.29,-225.52 619.94,-207.62 543.69,-196.47"/>
<polygon fill="#63b8ff" stroke="#63b8ff" points="544.1,-193 533.7,-195.01 543.09,-199.92 544.1,-193"/>
</g>
<!-- Node20 -->
<g id="node20" class="node">
<title>Node20</title>
<g id="a_node20"><a xlink:href="solar_8h.html" target="_top" xlink:title="Solar voltage and current monitoring using INA219 IC.">
<polygon fill="white" stroke="#666666" points="709.5,-195 569.5,-195 569.5,-176 709.5,-176 709.5,-195"/>
<text text-anchor="middle" x="639.5" y="-183" font-family="Helvetica,sans-Serif" font-size="10.00">power_monitoring/solar.h</text>
</a>
</g>
</g>
<!-- Node1&#45;&gt;Node20 -->
<g id="edge26" class="edge">
<title>Node1&#45;&gt;Node20</title>
<path fill="none" stroke="#63b8ff" d="M818.97,-230.99C777.54,-220.72 722.07,-206.97 683.83,-197.49"/>
<polygon fill="#63b8ff" stroke="#63b8ff" points="684.56,-194.06 674.01,-195.05 682.87,-200.86 684.56,-194.06"/>
</g>
<!-- Node21 -->
<g id="node21" class="node">
<title>Node21</title>
<g id="a_node21"><a xlink:title=" ">
<polygon fill="#e0e0e0" stroke="#999999" points="1160,-195 1097,-195 1097,-176 1160,-176 1160,-195"/>
<text text-anchor="middle" x="1128.5" y="-183" font-family="Helvetica,sans-Serif" font-size="10.00">esp_log.h</text>
</a>
</g>
</g>
<!-- Node1&#45;&gt;Node21 -->
<g id="edge29" class="edge">
<title>Node1&#45;&gt;Node21</title>
<path fill="none" stroke="#63b8ff" d="M935.78,-231.06C982.4,-220.28 1045.73,-205.64 1086.85,-196.13"/>
<polygon fill="#63b8ff" stroke="#63b8ff" points="1087.85,-199.49 1096.81,-193.83 1086.28,-192.67 1087.85,-199.49"/>
</g>
<!-- Node22 -->
<g id="node22" class="node">
<title>Node22</title>
<g id="a_node22"><a xlink:title=" ">
<polygon fill="#e0e0e0" stroke="#999999" points="1291,-195 1178,-195 1178,-176 1291,-176 1291,-195"/>
<text text-anchor="middle" x="1234.5" y="-183" font-family="Helvetica,sans-Serif" font-size="10.00">freertos/FreeRTOS.h</text>
</a>
</g>
</g>
<!-- Node1&#45;&gt;Node22 -->
<g id="edge30" class="edge">
<title>Node1&#45;&gt;Node22</title>
<path fill="none" stroke="#63b8ff" d="M935.59,-235.21C1001.19,-224.52 1105.72,-207.49 1172.18,-196.65"/>
<polygon fill="#63b8ff" stroke="#63b8ff" points="1172.8,-200.1 1182.11,-195.04 1171.67,-193.19 1172.8,-200.1"/>
</g>
<!-- Node23 -->
<g id="node23" class="node">
<title>Node23</title>
<g id="a_node23"><a xlink:title=" ">
<polygon fill="#e0e0e0" stroke="#999999" points="1367.5,-195 1309.5,-195 1309.5,-176 1367.5,-176 1367.5,-195"/>
<text text-anchor="middle" x="1338.5" y="-183" font-family="Helvetica,sans-Serif" font-size="10.00">SPIFFS.h</text>
</a>
</g>
</g>
<!-- Node1&#45;&gt;Node23 -->
<g id="edge32" class="edge">
<title>Node1&#45;&gt;Node23</title>
<path fill="none" stroke="#63b8ff" d="M935.6,-239.89C1016.17,-232.61 1163.8,-217.75 1298.98,-195.1"/>
<polygon fill="#63b8ff" stroke="#63b8ff" points="1299.83,-198.51 1309.1,-193.39 1298.66,-191.61 1299.83,-198.51"/>
</g>
<!-- Node4 -->
<g id="node4" class="node">
<title>Node4</title>
<g id="a_node4"><a xlink:title=" ">
<polygon fill="#e0e0e0" stroke="#999999" points="890,-134.5 807,-134.5 807,-115.5 890,-115.5 890,-134.5"/>
<text text-anchor="middle" x="848.5" y="-122.5" font-family="Helvetica,sans-Serif" font-size="10.00">ArduinoJson.h</text>
</a>
</g>
</g>
<!-- Node3&#45;&gt;Node4 -->
<g id="edge3" class="edge">
<title>Node3&#45;&gt;Node4</title>
<path fill="none" stroke="#63b8ff" d="M871.52,-175.87C867.65,-167.49 861.66,-154.51 856.76,-143.89"/>
<polygon fill="#63b8ff" stroke="#63b8ff" points="859.87,-142.28 852.5,-134.67 853.51,-145.21 859.87,-142.28"/>
</g>
<!-- Node5&#45;&gt;Node2 -->
<g id="edge5" class="edge">
<title>Node5&#45;&gt;Node2</title>
<path fill="none" stroke="#63b8ff" d="M761.26,-175.83C731.57,-153.26 647.98,-91.88 570.5,-55 540.37,-40.66 504.4,-29.05 477.17,-21.29"/>
<polygon fill="#63b8ff" stroke="#63b8ff" points="477.77,-17.82 467.19,-18.51 475.89,-24.57 477.77,-17.82"/>
</g>
<!-- Node5&#45;&gt;Node4 -->
<g id="edge6" class="edge">
<title>Node5&#45;&gt;Node4</title>
<path fill="none" stroke="#63b8ff" d="M783.71,-175.87C795.61,-166.71 814.64,-152.06 829.01,-141.01"/>
<polygon fill="#63b8ff" stroke="#63b8ff" points="831.45,-143.54 837.24,-134.67 827.18,-137.99 831.45,-143.54"/>
</g>
<!-- Node6&#45;&gt;Node4 -->
<g id="edge9" class="edge">
<title>Node6&#45;&gt;Node4</title>
<path fill="none" stroke="#63b8ff" d="M941.42,-175.87C923.55,-166.28 894.46,-150.67 873.59,-139.47"/>
<polygon fill="#63b8ff" stroke="#63b8ff" points="875.12,-136.31 864.65,-134.67 871.81,-142.48 875.12,-136.31"/>
</g>
<!-- Node7 -->
<g id="node7" class="node">
<title>Node7</title>
<g id="a_node7"><a xlink:title=" ">
<polygon fill="#e0e0e0" stroke="#999999" points="964.5,-134.5 908.5,-134.5 908.5,-115.5 964.5,-115.5 964.5,-134.5"/>
<text text-anchor="middle" x="936.5" y="-122.5" font-family="Helvetica,sans-Serif" font-size="10.00">stddef.h</text>
</a>
</g>
</g>
<!-- Node6&#45;&gt;Node7 -->
<g id="edge8" class="edge">
<title>Node6&#45;&gt;Node7</title>
<path fill="none" stroke="#63b8ff" d="M954.4,-175.87C951.42,-167.57 946.83,-154.78 943.04,-144.22"/>
<polygon fill="#63b8ff" stroke="#63b8ff" points="946.28,-142.9 939.61,-134.67 939.7,-145.26 946.28,-142.9"/>
</g>
<!-- Node6&#45;&gt;Node8 -->
<g id="edge10" class="edge">
<title>Node6&#45;&gt;Node8</title>
<path fill="none" stroke="#63b8ff" d="M968.12,-175.87C979.4,-166.71 997.42,-152.06 1011.03,-141.01"/>
<polygon fill="#63b8ff" stroke="#63b8ff" points="1013.28,-143.69 1018.83,-134.67 1008.86,-138.26 1013.28,-143.69"/>
</g>
<!-- Node10 -->
<g id="node10" class="node">
<title>Node10</title>
<g id="a_node10"><a xlink:title=" ">
<polygon fill="#e0e0e0" stroke="#999999" points="213.5,-140 83.5,-140 83.5,-110 213.5,-110 213.5,-140"/>
<text text-anchor="start" x="91.5" y="-128" font-family="Helvetica,sans-Serif" font-size="10.00">SparkFun_u&#45;blox_SARA</text>
<text text-anchor="middle" x="148.5" y="-117" font-family="Helvetica,sans-Serif" font-size="10.00">&#45;R5_Arduino_Library.h</text>
</a>
</g>
</g>
<!-- Node9&#45;&gt;Node10 -->
<g id="edge12" class="edge">
<title>Node9&#45;&gt;Node10</title>
<path fill="none" stroke="#63b8ff" d="M148.5,-175.87C148.5,-169.11 148.5,-159.35 148.5,-150.26"/>
<polygon fill="#63b8ff" stroke="#63b8ff" points="152,-150.11 148.5,-140.11 145,-150.11 152,-150.11"/>
</g>
<!-- Node11 -->
<g id="node11" class="node">
<title>Node11</title>
<g id="a_node11"><a xlink:href="_c_a_t___m1_8h.html" target="_top" xlink:title=" ">
<polygon fill="white" stroke="#666666" points="65,-134.5 0,-134.5 0,-115.5 65,-115.5 65,-134.5"/>
<text text-anchor="middle" x="32.5" y="-122.5" font-family="Helvetica,sans-Serif" font-size="10.00">CAT_M1.h</text>
</a>
</g>
</g>
<!-- Node9&#45;&gt;Node11 -->
<g id="edge13" class="edge">
<title>Node9&#45;&gt;Node11</title>
<path fill="none" stroke="#63b8ff" d="M131.38,-175.87C112.28,-166.23 81.13,-150.53 58.9,-139.31"/>
<polygon fill="#63b8ff" stroke="#63b8ff" points="60.19,-136.05 49.69,-134.67 57.04,-142.3 60.19,-136.05"/>
</g>
<!-- Node12 -->
<g id="node12" class="node">
<title>Node12</title>
<g id="a_node12"><a xlink:title=" ">
<polygon fill="#e0e0e0" stroke="#999999" points="87.5,-19 39.5,-19 39.5,0 87.5,0 87.5,-19"/>
<text text-anchor="middle" x="63.5" y="-7" font-family="Helvetica,sans-Serif" font-size="10.00">Wire.h</text>
</a>
</g>
</g>
<!-- Node11&#45;&gt;Node12 -->
<g id="edge14" class="edge">
<title>Node11&#45;&gt;Node12</title>
<path fill="none" stroke="#63b8ff" d="M34.83,-115.47C39.83,-97.15 51.71,-53.68 58.5,-28.81"/>
<polygon fill="#63b8ff" stroke="#63b8ff" points="61.88,-29.7 61.14,-19.13 55.13,-27.85 61.88,-29.7"/>
</g>
<!-- Node13 -->
<g id="node13" class="node">
<title>Node13</title>
<g id="a_node13"><a xlink:href="_t_c_a9534_8h.html" target="_top" xlink:title=" ">
<polygon fill="white" stroke="#666666" points="128.5,-74 60.5,-74 60.5,-55 128.5,-55 128.5,-74"/>
<text text-anchor="middle" x="94.5" y="-62" font-family="Helvetica,sans-Serif" font-size="10.00">TCA9534.h</text>
</a>
</g>
</g>
<!-- Node11&#45;&gt;Node13 -->
<g id="edge15" class="edge">
<title>Node11&#45;&gt;Node13</title>
<path fill="none" stroke="#63b8ff" d="M41.65,-115.37C51.17,-106.38 66.3,-92.11 77.93,-81.14"/>
<polygon fill="#63b8ff" stroke="#63b8ff" points="80.44,-83.58 85.31,-74.17 75.64,-78.48 80.44,-83.58"/>
</g>
<!-- Node13&#45;&gt;Node2 -->
<g id="edge16" class="edge">
<title>Node13&#45;&gt;Node2</title>
<path fill="none" stroke="#63b8ff" d="M128.76,-58.18C191.73,-48.39 325.66,-27.57 393.8,-16.98"/>
<polygon fill="#63b8ff" stroke="#63b8ff" points="394.42,-20.43 403.76,-15.43 393.34,-13.51 394.42,-20.43"/>
</g>
<!-- Node13&#45;&gt;Node12 -->
<g id="edge17" class="edge">
<title>Node13&#45;&gt;Node12</title>
<path fill="none" stroke="#63b8ff" d="M89.38,-54.75C85.14,-47.49 78.97,-36.95 73.72,-27.98"/>
<polygon fill="#63b8ff" stroke="#63b8ff" points="76.59,-25.95 68.52,-19.09 70.55,-29.49 76.59,-25.95"/>
</g>
<!-- Node15&#45;&gt;Node2 -->
<g id="edge20" class="edge">
<title>Node15&#45;&gt;Node2</title>
<path fill="none" stroke="#63b8ff" d="M281.27,-175.84C268.71,-161.53 247.52,-132.31 260.5,-110 289.14,-60.78 352.21,-33.91 394.29,-20.87"/>
<polygon fill="#63b8ff" stroke="#63b8ff" points="395.38,-24.2 403.97,-18 393.39,-17.49 395.38,-24.2"/>
</g>
<!-- Node16 -->
<g id="node16" class="node">
<title>Node16</title>
<g id="a_node16"><a xlink:title=" ">
<polygon fill="#e0e0e0" stroke="#999999" points="309,-134.5 270,-134.5 270,-115.5 309,-115.5 309,-134.5"/>
<text text-anchor="middle" x="289.5" y="-122.5" font-family="Helvetica,sans-Serif" font-size="10.00">SD.h</text>
</a>
</g>
</g>
<!-- Node15&#45;&gt;Node16 -->
<g id="edge21" class="edge">
<title>Node15&#45;&gt;Node16</title>
<path fill="none" stroke="#63b8ff" d="M289.5,-175.87C289.5,-167.75 289.5,-155.31 289.5,-144.89"/>
<polygon fill="#63b8ff" stroke="#63b8ff" points="293,-144.67 289.5,-134.67 286,-144.67 293,-144.67"/>
</g>
<!-- Node17 -->
<g id="node17" class="node">
<title>Node17</title>
<g id="a_node17"><a xlink:title=" ">
<polygon fill="#e0e0e0" stroke="#999999" points="368,-134.5 327,-134.5 327,-115.5 368,-115.5 368,-134.5"/>
<text text-anchor="middle" x="347.5" y="-122.5" font-family="Helvetica,sans-Serif" font-size="10.00">SPI.h</text>
</a>
</g>
</g>
<!-- Node15&#45;&gt;Node17 -->
<g id="edge22" class="edge">
<title>Node15&#45;&gt;Node17</title>
<path fill="none" stroke="#63b8ff" d="M298.06,-175.87C306.88,-166.97 320.84,-152.89 331.68,-141.95"/>
<polygon fill="#63b8ff" stroke="#63b8ff" points="334.35,-144.23 338.91,-134.67 329.38,-139.3 334.35,-144.23"/>
</g>
<!-- Node18&#45;&gt;Node2 -->
<g id="edge24" class="edge">
<title>Node18&#45;&gt;Node2</title>
<path fill="none" stroke="#63b8ff" d="M473.46,-175.63C467.23,-148.52 448.33,-66.32 439.78,-29.13"/>
<polygon fill="#63b8ff" stroke="#63b8ff" points="443.14,-28.11 437.49,-19.14 436.32,-29.67 443.14,-28.11"/>
</g>
<!-- Node19 -->
<g id="node19" class="node">
<title>Node19</title>
<g id="a_node19"><a xlink:title=" ">
<polygon fill="#e0e0e0" stroke="#999999" points="600,-134.5 495,-134.5 495,-115.5 600,-115.5 600,-134.5"/>
<text text-anchor="middle" x="547.5" y="-122.5" font-family="Helvetica,sans-Serif" font-size="10.00">Adafruit_INA219.h</text>
</a>
</g>
</g>
<!-- Node18&#45;&gt;Node19 -->
<g id="edge25" class="edge">
<title>Node18&#45;&gt;Node19</title>
<path fill="none" stroke="#63b8ff" d="M486.12,-175.87C497.4,-166.71 515.42,-152.06 529.03,-141.01"/>
<polygon fill="#63b8ff" stroke="#63b8ff" points="531.28,-143.69 536.83,-134.67 526.86,-138.26 531.28,-143.69"/>
</g>
<!-- Node20&#45;&gt;Node2 -->
<g id="edge27" class="edge">
<title>Node20&#45;&gt;Node2</title>
<path fill="none" stroke="#63b8ff" d="M637.92,-175.71C634.83,-160.67 626.73,-129.76 609.5,-110 571.61,-66.54 509.87,-37.66 471.04,-22.69"/>
<polygon fill="#63b8ff" stroke="#63b8ff" points="471.8,-19.23 461.2,-19 469.34,-25.79 471.8,-19.23"/>
</g>
<!-- Node20&#45;&gt;Node19 -->
<g id="edge28" class="edge">
<title>Node20&#45;&gt;Node19</title>
<path fill="none" stroke="#63b8ff" d="M625.93,-175.87C611.11,-166.45 587.17,-151.23 569.64,-140.08"/>
<polygon fill="#63b8ff" stroke="#63b8ff" points="571.45,-137.08 561.13,-134.67 567.69,-142.99 571.45,-137.08"/>
</g>
</g>
</svg>
