<?xml version="1.0" encoding="UTF-8" standalone="no"?>
<!DOCTYPE svg PUBLIC "-//W3C//DTD SVG 1.1//EN"
 "http://www.w3.org/Graphics/SVG/1.1/DTD/svg11.dtd">
<!-- Generated by graphviz version 2.43.0 (0)
 -->
<!-- Title: firmware/wombat/src/SensorTask.cpp Pages: 1 -->
<svg width="974pt" height="269pt"
 viewBox="0.00 0.00 973.97 269.00" xmlns="http://www.w3.org/2000/svg" xmlns:xlink="http://www.w3.org/1999/xlink">
<g id="graph0" class="graph" transform="scale(1 1) rotate(0) translate(4 265)">
<title>firmware/wombat/src/SensorTask.cpp</title>
<!-- Node1 -->
<g id="node1" class="node">
<title>Node1</title>
<g id="a_node1"><a xlink:title=" ">
<polygon fill="#999999" stroke="#666666" points="471.47,-261 351.47,-261 351.47,-231 471.47,-231 471.47,-261"/>
<text text-anchor="start" x="359.47" y="-249" font-family="Helvetica,sans-Serif" font-size="10.00">firmware/wombat/src</text>
<text text-anchor="middle" x="411.47" y="-238" font-family="Helvetica,sans-Serif" font-size="10.00">/SensorTask.cpp</text>
</a>
</g>
</g>
<!-- Node2 -->
<g id="node2" class="node">
<title>Node2</title>
<g id="a_node2"><a xlink:title=" ">
<polygon fill="#e0e0e0" stroke="#999999" points="531.97,-19 468.97,-19 468.97,0 531.97,0 531.97,-19"/>
<text text-anchor="middle" x="500.47" y="-7" font-family="Helvetica,sans-Serif" font-size="10.00">Arduino.h</text>
</a>
</g>
</g>
<!-- Node1&#45;&gt;Node2 -->
<g id="edge1" class="edge">
<title>Node1&#45;&gt;Node2</title>
<path fill="none" stroke="#63b8ff" d="M351.09,-241.43C246.64,-234.67 41.15,-218.51 18.47,-195 -7.81,-167.77 -2.83,-144.15 13.47,-110 30.21,-74.92 45.56,-69.88 81.47,-55 149.06,-26.98 366.86,-15.58 458.85,-11.93"/>
<polygon fill="#63b8ff" stroke="#63b8ff" points="459.05,-15.43 468.91,-11.55 458.78,-8.43 459.05,-15.43"/>
</g>
<!-- Node3 -->
<g id="node3" class="node">
<title>Node3</title>
<g id="a_node3"><a xlink:href="_sensor_task_8h.html" target="_top" xlink:title=" ">
<polygon fill="white" stroke="#666666" points="107.47,-195 27.47,-195 27.47,-176 107.47,-176 107.47,-195"/>
<text text-anchor="middle" x="67.47" y="-183" font-family="Helvetica,sans-Serif" font-size="10.00">SensorTask.h</text>
</a>
</g>
</g>
<!-- Node1&#45;&gt;Node3 -->
<g id="edge2" class="edge">
<title>Node1&#45;&gt;Node3</title>
<path fill="none" stroke="#63b8ff" d="M351.28,-234.87C293.87,-225.19 204.67,-210.11 117.63,-195.19"/>
<polygon fill="#63b8ff" stroke="#63b8ff" points="118.02,-191.71 107.58,-193.47 116.84,-198.61 118.02,-191.71"/>
</g>
<!-- Node4 -->
<g id="node4" class="node">
<title>Node4</title>
<g id="a_node4"><a xlink:href="_device_config_8h.html" target="_top" xlink:title=" ">
<polygon fill="white" stroke="#666666" points="215.47,-195 125.47,-195 125.47,-176 215.47,-176 215.47,-195"/>
<text text-anchor="middle" x="170.47" y="-183" font-family="Helvetica,sans-Serif" font-size="10.00">DeviceConfig.h</text>
</a>
</g>
</g>
<!-- Node1&#45;&gt;Node4 -->
<g id="edge3" class="edge">
<title>Node1&#45;&gt;Node4</title>
<path fill="none" stroke="#63b8ff" d="M353.74,-230.99C311.43,-220.72 254.79,-206.97 215.73,-197.49"/>
<polygon fill="#63b8ff" stroke="#63b8ff" points="216.25,-194.01 205.71,-195.05 214.6,-200.81 216.25,-194.01"/>
</g>
<!-- Node6 -->
<g id="node6" class="node">
<title>Node6</title>
<g id="a_node6"><a xlink:href="_utils_8h.html" target="_top" xlink:title=" ">
<polygon fill="white" stroke="#666666" points="296.47,-195 248.47,-195 248.47,-176 296.47,-176 296.47,-195"/>
<text text-anchor="middle" x="272.47" y="-183" font-family="Helvetica,sans-Serif" font-size="10.00">Utils.h</text>
</a>
</g>
</g>
<!-- Node1&#45;&gt;Node6 -->
<g id="edge6" class="edge">
<title>Node1&#45;&gt;Node6</title>
<path fill="none" stroke="#63b8ff" d="M378.17,-230.99C355.09,-221.27 324.6,-208.44 302.31,-199.06"/>
<polygon fill="#63b8ff" stroke="#63b8ff" points="303.57,-195.79 293,-195.14 300.85,-202.24 303.57,-195.79"/>
</g>
<!-- Node9 -->
<g id="node9" class="node">
<title>Node9</title>
<g id="a_node9"><a xlink:title=" ">
<polygon fill="#e0e0e0" stroke="#999999" points="406.97,-134.5 313.97,-134.5 313.97,-115.5 406.97,-115.5 406.97,-134.5"/>
<text text-anchor="middle" x="360.47" y="-122.5" font-family="Helvetica,sans-Serif" font-size="10.00">dpiclimate&#45;12.h</text>
</a>
</g>
</g>
<!-- Node1&#45;&gt;Node9 -->
<g id="edge27" class="edge">
<title>Node1&#45;&gt;Node9</title>
<path fill="none" stroke="#63b8ff" d="M391.53,-230.74C380.81,-221.82 368.56,-209.32 362.47,-195 355.73,-179.16 355.92,-159.38 357.39,-145.06"/>
<polygon fill="#63b8ff" stroke="#63b8ff" points="360.89,-145.3 358.73,-134.93 353.95,-144.39 360.89,-145.3"/>
</g>
<!-- Node10 -->
<g id="node10" class="node">
<title>Node10</title>
<g id="a_node10"><a xlink:href="mqtt__stack_8h.html" target="_top" xlink:title=" ">
<polygon fill="white" stroke="#666666" points="451.47,-195 371.47,-195 371.47,-176 451.47,-176 451.47,-195"/>
<text text-anchor="middle" x="411.47" y="-183" font-family="Helvetica,sans-Serif" font-size="10.00">mqtt_stack.h</text>
</a>
</g>
</g>
<!-- Node1&#45;&gt;Node10 -->
<g id="edge10" class="edge">
<title>Node1&#45;&gt;Node10</title>
<path fill="none" stroke="#63b8ff" d="M411.47,-230.84C411.47,-223.21 411.47,-213.7 411.47,-205.45"/>
<polygon fill="#63b8ff" stroke="#63b8ff" points="414.97,-205.27 411.47,-195.27 407.97,-205.27 414.97,-205.27"/>
</g>
<!-- Node11 -->
<g id="node11" class="node">
<title>Node11</title>
<g id="a_node11"><a xlink:href="globals_8h.html" target="_top" xlink:title=" ">
<polygon fill="white" stroke="#666666" points="530.97,-195 469.97,-195 469.97,-176 530.97,-176 530.97,-195"/>
<text text-anchor="middle" x="500.47" y="-183" font-family="Helvetica,sans-Serif" font-size="10.00">globals.h</text>
</a>
</g>
</g>
<!-- Node1&#45;&gt;Node11 -->
<g id="edge11" class="edge">
<title>Node1&#45;&gt;Node11</title>
<path fill="none" stroke="#63b8ff" d="M433.01,-230.84C446.94,-221.68 465,-209.82 478.92,-200.66"/>
<polygon fill="#63b8ff" stroke="#63b8ff" points="480.96,-203.51 487.39,-195.09 477.11,-197.66 480.96,-203.51"/>
</g>
<!-- Node19 -->
<g id="node19" class="node">
<title>Node19</title>
<g id="a_node19"><a xlink:href="ulp_8h.html" target="_top" xlink:title=" ">
<polygon fill="white" stroke="#666666" points="589.97,-195 548.97,-195 548.97,-176 589.97,-176 589.97,-195"/>
<text text-anchor="middle" x="569.47" y="-183" font-family="Helvetica,sans-Serif" font-size="10.00">ulp.h</text>
</a>
</g>
</g>
<!-- Node1&#45;&gt;Node19 -->
<g id="edge24" class="edge">
<title>Node1&#45;&gt;Node19</title>
<path fill="none" stroke="#63b8ff" d="M449.31,-230.99C476.88,-220.78 513.71,-207.14 539.3,-197.67"/>
<polygon fill="#63b8ff" stroke="#63b8ff" points="540.69,-200.89 548.85,-194.13 538.26,-194.32 540.69,-200.89"/>
</g>
<!-- Node20 -->
<g id="node20" class="node">
<title>Node20</title>
<g id="a_node20"><a xlink:title=" ">
<polygon fill="#e0e0e0" stroke="#999999" points="670.97,-195 607.97,-195 607.97,-176 670.97,-176 670.97,-195"/>
<text text-anchor="middle" x="639.47" y="-183" font-family="Helvetica,sans-Serif" font-size="10.00">esp_log.h</text>
</a>
</g>
</g>
<!-- Node1&#45;&gt;Node20 -->
<g id="edge25" class="edge">
<title>Node1&#45;&gt;Node20</title>
<path fill="none" stroke="#63b8ff" d="M466.08,-230.99C506.54,-220.61 560.85,-206.67 597.83,-197.18"/>
<polygon fill="#63b8ff" stroke="#63b8ff" points="598.96,-200.51 607.78,-194.63 597.22,-193.73 598.96,-200.51"/>
</g>
<!-- Node21 -->
<g id="node21" class="node">
<title>Node21</title>
<g id="a_node21"><a xlink:title=" ">
<polygon fill="#e0e0e0" stroke="#999999" points="801.97,-195 688.97,-195 688.97,-176 801.97,-176 801.97,-195"/>
<text text-anchor="middle" x="745.47" y="-183" font-family="Helvetica,sans-Serif" font-size="10.00">freertos/FreeRTOS.h</text>
</a>
</g>
</g>
<!-- Node1&#45;&gt;Node21 -->
<g id="edge26" class="edge">
<title>Node1&#45;&gt;Node21</title>
<path fill="none" stroke="#63b8ff" d="M471.57,-234.47C532.46,-223.81 626.08,-207.41 686.55,-196.82"/>
<polygon fill="#63b8ff" stroke="#63b8ff" points="687.45,-200.21 696.7,-195.04 686.24,-193.32 687.45,-200.21"/>
</g>
<!-- Node22 -->
<g id="node22" class="node">
<title>Node22</title>
<g id="a_node22"><a xlink:title=" ">
<polygon fill="#e0e0e0" stroke="#999999" points="878.47,-195 820.47,-195 820.47,-176 878.47,-176 878.47,-195"/>
<text text-anchor="middle" x="849.47" y="-183" font-family="Helvetica,sans-Serif" font-size="10.00">SPIFFS.h</text>
</a>
</g>
</g>
<!-- Node1&#45;&gt;Node22 -->
<g id="edge28" class="edge">
<title>Node1&#45;&gt;Node22</title>
<path fill="none" stroke="#63b8ff" d="M471.71,-239.29C548.16,-231.63 684.25,-216.65 809.88,-195.13"/>
<polygon fill="#63b8ff" stroke="#63b8ff" points="810.81,-198.52 820.06,-193.37 809.61,-191.63 810.81,-198.52"/>
</g>
<!-- Node4&#45;&gt;Node2 -->
<g id="edge4" class="edge">
<title>Node4&#45;&gt;Node2</title>
<path fill="none" stroke="#63b8ff" d="M125.26,-176.86C86.74,-169.32 35.74,-156.54 23.47,-140 15.52,-129.29 15.06,-120.35 23.47,-110 78.34,-42.5 352.88,-19.24 458.74,-12.7"/>
<polygon fill="#63b8ff" stroke="#63b8ff" points="458.97,-16.19 468.74,-12.1 458.55,-9.21 458.97,-16.19"/>
</g>
<!-- Node5 -->
<g id="node5" class="node">
<title>Node5</title>
<g id="a_node5"><a xlink:title=" ">
<polygon fill="#e0e0e0" stroke="#999999" points="119.97,-134.5 32.97,-134.5 32.97,-115.5 119.97,-115.5 119.97,-134.5"/>
<text text-anchor="middle" x="76.47" y="-122.5" font-family="Helvetica,sans-Serif" font-size="10.00">ArduinoJSON.h</text>
</a>
</g>
</g>
<!-- Node4&#45;&gt;Node5 -->
<g id="edge5" class="edge">
<title>Node4&#45;&gt;Node5</title>
<path fill="none" stroke="#63b8ff" d="M156.6,-175.87C141.46,-166.45 117,-151.23 99.09,-140.08"/>
<polygon fill="#63b8ff" stroke="#63b8ff" points="100.73,-136.98 90.39,-134.67 97.04,-142.92 100.73,-136.98"/>
</g>
<!-- Node7 -->
<g id="node7" class="node">
<title>Node7</title>
<g id="a_node7"><a xlink:title=" ">
<polygon fill="#e0e0e0" stroke="#999999" points="194.47,-134.5 138.47,-134.5 138.47,-115.5 194.47,-115.5 194.47,-134.5"/>
<text text-anchor="middle" x="166.47" y="-122.5" font-family="Helvetica,sans-Serif" font-size="10.00">stddef.h</text>
</a>
</g>
</g>
<!-- Node6&#45;&gt;Node7 -->
<g id="edge7" class="edge">
<title>Node6&#45;&gt;Node7</title>
<path fill="none" stroke="#63b8ff" d="M256.83,-175.87C239.53,-166.32 211.42,-150.81 191.14,-139.62"/>
<polygon fill="#63b8ff" stroke="#63b8ff" points="192.62,-136.43 182.17,-134.67 189.24,-142.56 192.62,-136.43"/>
</g>
<!-- Node8 -->
<g id="node8" class="node">
<title>Node8</title>
<g id="a_node8"><a xlink:title=" ">
<polygon fill="#e0e0e0" stroke="#999999" points="295.97,-134.5 212.97,-134.5 212.97,-115.5 295.97,-115.5 295.97,-134.5"/>
<text text-anchor="middle" x="254.47" y="-122.5" font-family="Helvetica,sans-Serif" font-size="10.00">ArduinoJson.h</text>
</a>
</g>
</g>
<!-- Node6&#45;&gt;Node8 -->
<g id="edge8" class="edge">
<title>Node6&#45;&gt;Node8</title>
<path fill="none" stroke="#63b8ff" d="M269.81,-175.87C267.29,-167.66 263.4,-155.04 260.18,-144.55"/>
<polygon fill="#63b8ff" stroke="#63b8ff" points="263.42,-143.2 257.13,-134.67 256.73,-145.25 263.42,-143.2"/>
</g>
<!-- Node6&#45;&gt;Node9 -->
<g id="edge9" class="edge">
<title>Node6&#45;&gt;Node9</title>
<path fill="none" stroke="#63b8ff" d="M285.45,-175.87C299.49,-166.54 322.1,-151.51 338.83,-140.38"/>
<polygon fill="#63b8ff" stroke="#63b8ff" points="341.04,-143.12 347.43,-134.67 337.16,-137.29 341.04,-143.12"/>
</g>
<!-- Node12 -->
<g id="node12" class="node">
<title>Node12</title>
<g id="a_node12"><a xlink:href="battery_8h.html" target="_top" xlink:title=" ">
<polygon fill="white" stroke="#666666" points="575.97,-134.5 424.97,-134.5 424.97,-115.5 575.97,-115.5 575.97,-134.5"/>
<text text-anchor="middle" x="500.47" y="-122.5" font-family="Helvetica,sans-Serif" font-size="10.00">power_monitoring/battery.h</text>
</a>
</g>
</g>
<!-- Node11&#45;&gt;Node12 -->
<g id="edge12" class="edge">
<title>Node11&#45;&gt;Node12</title>
<path fill="none" stroke="#63b8ff" d="M500.47,-175.87C500.47,-167.75 500.47,-155.31 500.47,-144.89"/>
<polygon fill="#63b8ff" stroke="#63b8ff" points="503.97,-144.67 500.47,-134.67 496.97,-144.67 503.97,-144.67"/>
</g>
<!-- Node14 -->
<g id="node14" class="node">
<title>Node14</title>
<g id="a_node14"><a xlink:href="solar_8h.html" target="_top" xlink:title=" ">
<polygon fill="white" stroke="#666666" points="734.47,-134.5 594.47,-134.5 594.47,-115.5 734.47,-115.5 734.47,-134.5"/>
<text text-anchor="middle" x="664.47" y="-122.5" font-family="Helvetica,sans-Serif" font-size="10.00">power_monitoring/solar.h</text>
</a>
</g>
</g>
<!-- Node11&#45;&gt;Node14 -->
<g id="edge15" class="edge">
<title>Node11&#45;&gt;Node14</title>
<path fill="none" stroke="#63b8ff" d="M524.31,-175.99C552.37,-165.99 599.14,-149.3 630.86,-137.99"/>
<polygon fill="#63b8ff" stroke="#63b8ff" points="632.35,-141.17 640.59,-134.52 630,-134.58 632.35,-141.17"/>
</g>
<!-- Node15 -->
<g id="node15" class="node">
<title>Node15</title>
<g id="a_node15"><a xlink:title=" ">
<polygon fill="#e0e0e0" stroke="#999999" points="882.47,-140 752.47,-140 752.47,-110 882.47,-110 882.47,-140"/>
<text text-anchor="start" x="760.47" y="-128" font-family="Helvetica,sans-Serif" font-size="10.00">SparkFun_u&#45;blox_SARA</text>
<text text-anchor="middle" x="817.47" y="-117" font-family="Helvetica,sans-Serif" font-size="10.00">&#45;R5_Arduino_Library.h</text>
</a>
</g>
</g>
<!-- Node11&#45;&gt;Node15 -->
<g id="edge18" class="edge">
<title>Node11&#45;&gt;Node15</title>
<path fill="none" stroke="#63b8ff" d="M531.02,-177.9C534.21,-177.24 537.4,-176.6 540.47,-176 627.33,-159.07 651.69,-156.67 742.24,-140.21"/>
<polygon fill="#63b8ff" stroke="#63b8ff" points="742.9,-143.65 752.11,-138.41 741.64,-136.76 742.9,-143.65"/>
</g>
<!-- Node16 -->
<g id="node16" class="node">
<title>Node16</title>
<g id="a_node16"><a xlink:href="_c_a_t___m1_8h.html" target="_top" xlink:title=" ">
<polygon fill="white" stroke="#666666" points="965.97,-134.5 900.97,-134.5 900.97,-115.5 965.97,-115.5 965.97,-134.5"/>
<text text-anchor="middle" x="933.47" y="-122.5" font-family="Helvetica,sans-Serif" font-size="10.00">CAT_M1.h</text>
</a>
</g>
</g>
<!-- Node11&#45;&gt;Node16 -->
<g id="edge19" class="edge">
<title>Node11&#45;&gt;Node16</title>
<path fill="none" stroke="#63b8ff" d="M530.98,-177.66C534.18,-177.05 537.38,-176.48 540.47,-176 695.39,-151.67 738.16,-172.99 891.47,-140 894.53,-139.34 897.67,-138.54 900.8,-137.66"/>
<polygon fill="#63b8ff" stroke="#63b8ff" points="902.09,-140.92 910.61,-134.63 900.03,-134.23 902.09,-140.92"/>
</g>
<!-- Node12&#45;&gt;Node2 -->
<g id="edge13" class="edge">
<title>Node12&#45;&gt;Node2</title>
<path fill="none" stroke="#63b8ff" d="M500.47,-115.47C500.47,-97.23 500.47,-54.07 500.47,-29.14"/>
<polygon fill="#63b8ff" stroke="#63b8ff" points="503.97,-29.13 500.47,-19.13 496.97,-29.13 503.97,-29.13"/>
</g>
<!-- Node13 -->
<g id="node13" class="node">
<title>Node13</title>
<g id="a_node13"><a xlink:title=" ">
<polygon fill="#e0e0e0" stroke="#999999" points="634.97,-74 529.97,-74 529.97,-55 634.97,-55 634.97,-74"/>
<text text-anchor="middle" x="582.47" y="-62" font-family="Helvetica,sans-Serif" font-size="10.00">Adafruit_INA219.h</text>
</a>
</g>
</g>
<!-- Node12&#45;&gt;Node13 -->
<g id="edge14" class="edge">
<title>Node12&#45;&gt;Node13</title>
<path fill="none" stroke="#63b8ff" d="M512.57,-115.37C525.53,-106.12 546.33,-91.28 561.87,-80.19"/>
<polygon fill="#63b8ff" stroke="#63b8ff" points="564.21,-82.82 570.32,-74.17 560.15,-77.13 564.21,-82.82"/>
</g>
<!-- Node14&#45;&gt;Node2 -->
<g id="edge16" class="edge">
<title>Node14&#45;&gt;Node2</title>
<path fill="none" stroke="#63b8ff" d="M664.45,-115.06C663.92,-100.47 660.73,-71.55 644.47,-55 617.58,-27.63 574.25,-17.02 542.13,-12.94"/>
<polygon fill="#63b8ff" stroke="#63b8ff" points="542.46,-9.46 532.14,-11.83 541.69,-16.41 542.46,-9.46"/>
</g>
<!-- Node14&#45;&gt;Node13 -->
<g id="edge17" class="edge">
<title>Node14&#45;&gt;Node13</title>
<path fill="none" stroke="#63b8ff" d="M652.37,-115.37C639.41,-106.12 618.61,-91.28 603.06,-80.19"/>
<polygon fill="#63b8ff" stroke="#63b8ff" points="604.79,-77.13 594.62,-74.17 600.72,-82.82 604.79,-77.13"/>
</g>
<!-- Node17 -->
<g id="node17" class="node">
<title>Node17</title>
<g id="a_node17"><a xlink:title=" ">
<polygon fill="#e0e0e0" stroke="#999999" points="926.47,-19 878.47,-19 878.47,0 926.47,0 926.47,-19"/>
<text text-anchor="middle" x="902.47" y="-7" font-family="Helvetica,sans-Serif" font-size="10.00">Wire.h</text>
</a>
</g>
</g>
<!-- Node16&#45;&gt;Node17 -->
<g id="edge20" class="edge">
<title>Node16&#45;&gt;Node17</title>
<path fill="none" stroke="#63b8ff" d="M931.14,-115.47C926.13,-97.15 914.26,-53.68 907.47,-28.81"/>
<polygon fill="#63b8ff" stroke="#63b8ff" points="910.84,-27.85 904.82,-19.13 904.08,-29.7 910.84,-27.85"/>
</g>
<!-- Node18 -->
<g id="node18" class="node">
<title>Node18</title>
<g id="a_node18"><a xlink:href="_t_c_a9534_8h.html" target="_top" xlink:title=" ">
<polygon fill="white" stroke="#666666" points="905.47,-74 837.47,-74 837.47,-55 905.47,-55 905.47,-74"/>
<text text-anchor="middle" x="871.47" y="-62" font-family="Helvetica,sans-Serif" font-size="10.00">TCA9534.h</text>
</a>
</g>
</g>
<!-- Node16&#45;&gt;Node18 -->
<g id="edge21" class="edge">
<title>Node16&#45;&gt;Node18</title>
<path fill="none" stroke="#63b8ff" d="M924.32,-115.37C914.8,-106.38 899.67,-92.11 888.04,-81.14"/>
<polygon fill="#63b8ff" stroke="#63b8ff" points="890.33,-78.48 880.65,-74.17 885.53,-83.58 890.33,-78.48"/>
</g>
<!-- Node18&#45;&gt;Node2 -->
<g id="edge22" class="edge">
<title>Node18&#45;&gt;Node2</title>
<path fill="none" stroke="#63b8ff" d="M837.23,-58.61C769.01,-48.86 616.34,-27.05 542.31,-16.48"/>
<polygon fill="#63b8ff" stroke="#63b8ff" points="542.37,-12.95 531.98,-15 541.38,-19.88 542.37,-12.95"/>
</g>
<!-- Node18&#45;&gt;Node17 -->
<g id="edge23" class="edge">
<title>Node18&#45;&gt;Node17</title>
<path fill="none" stroke="#63b8ff" d="M876.59,-54.75C880.83,-47.49 886.99,-36.95 892.24,-27.98"/>
<polygon fill="#63b8ff" stroke="#63b8ff" points="895.42,-29.49 897.44,-19.09 889.37,-25.95 895.42,-29.49"/>
</g>
</g>
</svg>
