<?xml version="1.0" encoding="UTF-8" standalone="no"?>
<!DOCTYPE svg PUBLIC "-//W3C//DTD SVG 1.1//EN"
 "http://www.w3.org/Graphics/SVG/1.1/DTD/svg11.dtd">
<!-- Generated by graphviz version 2.43.0 (0)
 -->
<!-- Title: firmware/wombat/src/SensorTask.cpp Pages: 1 -->
<svg width="1301pt" height="269pt"
 viewBox="0.00 0.00 1300.73 269.00" xmlns="http://www.w3.org/2000/svg" xmlns:xlink="http://www.w3.org/1999/xlink">
<g id="graph0" class="graph" transform="scale(1 1) rotate(0) translate(4 265)">
<title>firmware/wombat/src/SensorTask.cpp</title>
<!-- Node1 -->
<g id="node1" class="node">
<title>Node1</title>
<g id="a_node1"><a xlink:title=" ">
<polygon fill="#999999" stroke="#666666" points="942.73,-261 822.73,-261 822.73,-231 942.73,-231 942.73,-261"/>
<text text-anchor="start" x="830.73" y="-249" font-family="Helvetica,sans-Serif" font-size="10.00">firmware/wombat/src</text>
<text text-anchor="middle" x="882.73" y="-238" font-family="Helvetica,sans-Serif" font-size="10.00">/SensorTask.cpp</text>
</a>
</g>
</g>
<!-- Node2 -->
<g id="node2" class="node">
<title>Node2</title>
<g id="a_node2"><a xlink:title=" ">
<polygon fill="#e0e0e0" stroke="#999999" points="427.23,-19 364.23,-19 364.23,0 427.23,0 427.23,-19"/>
<text text-anchor="middle" x="395.73" y="-7" font-family="Helvetica,sans-Serif" font-size="10.00">Arduino.h</text>
</a>
</g>
</g>
<!-- Node1&#45;&gt;Node2 -->
<g id="edge1" class="edge">
<title>Node1&#45;&gt;Node2</title>
<path fill="none" stroke="#63b8ff" d="M822.71,-243.67C631.78,-239.16 49.27,-223.13 20.73,-195 -6.21,-168.45 -5.7,-140.45 16.73,-110 56.89,-55.46 263.86,-25.57 353.86,-14.98"/>
<polygon fill="#63b8ff" stroke="#63b8ff" points="354.45,-18.43 363.98,-13.81 353.64,-11.48 354.45,-18.43"/>
</g>
<!-- Node3 -->
<g id="node3" class="node">
<title>Node3</title>
<g id="a_node3"><a xlink:href="_sensor_task_8h.html" target="_top" xlink:title=" ">
<polygon fill="white" stroke="#666666" points="109.73,-195 29.73,-195 29.73,-176 109.73,-176 109.73,-195"/>
<text text-anchor="middle" x="69.73" y="-183" font-family="Helvetica,sans-Serif" font-size="10.00">SensorTask.h</text>
</a>
</g>
</g>
<!-- Node1&#45;&gt;Node3 -->
<g id="edge2" class="edge">
<title>Node1&#45;&gt;Node3</title>
<path fill="none" stroke="#63b8ff" d="M822.6,-243.24C695.03,-239.04 387.67,-226.42 120.09,-195.03"/>
<polygon fill="#63b8ff" stroke="#63b8ff" points="120.13,-191.51 109.79,-193.81 119.31,-198.46 120.13,-191.51"/>
</g>
<!-- Node5 -->
<g id="node5" class="node">
<title>Node5</title>
<g id="a_node5"><a xlink:href="_device_config_8h.html" target="_top" xlink:title="Node configuration options.">
<polygon fill="white" stroke="#666666" points="217.73,-195 127.73,-195 127.73,-176 217.73,-176 217.73,-195"/>
<text text-anchor="middle" x="172.73" y="-183" font-family="Helvetica,sans-Serif" font-size="10.00">DeviceConfig.h</text>
</a>
</g>
</g>
<!-- Node1&#45;&gt;Node5 -->
<g id="edge4" class="edge">
<title>Node1&#45;&gt;Node5</title>
<path fill="none" stroke="#63b8ff" d="M822.5,-240.04C686.88,-228.86 359.21,-201.86 228.21,-191.07"/>
<polygon fill="#63b8ff" stroke="#63b8ff" points="228.26,-187.56 218,-190.23 227.68,-194.54 228.26,-187.56"/>
</g>
<!-- Node6 -->
<g id="node6" class="node">
<title>Node6</title>
<g id="a_node6"><a xlink:href="_utils_8h.html" target="_top" xlink:title=" ">
<polygon fill="white" stroke="#666666" points="906.73,-195 858.73,-195 858.73,-176 906.73,-176 906.73,-195"/>
<text text-anchor="middle" x="882.73" y="-183" font-family="Helvetica,sans-Serif" font-size="10.00">Utils.h</text>
</a>
</g>
</g>
<!-- Node1&#45;&gt;Node6 -->
<g id="edge7" class="edge">
<title>Node1&#45;&gt;Node6</title>
<path fill="none" stroke="#63b8ff" d="M882.73,-230.84C882.73,-223.21 882.73,-213.7 882.73,-205.45"/>
<polygon fill="#63b8ff" stroke="#63b8ff" points="886.23,-205.27 882.73,-195.27 879.23,-205.27 886.23,-205.27"/>
</g>
<!-- Node9 -->
<g id="node9" class="node">
<title>Node9</title>
<g id="a_node9"><a xlink:title=" ">
<polygon fill="#e0e0e0" stroke="#999999" points="1152.23,-134.5 1059.23,-134.5 1059.23,-115.5 1152.23,-115.5 1152.23,-134.5"/>
<text text-anchor="middle" x="1105.73" y="-122.5" font-family="Helvetica,sans-Serif" font-size="10.00">dpiclimate&#45;12.h</text>
</a>
</g>
</g>
<!-- Node1&#45;&gt;Node9 -->
<g id="edge31" class="edge">
<title>Node1&#45;&gt;Node9</title>
<path fill="none" stroke="#63b8ff" d="M894.04,-230.91C907.14,-215.44 930.11,-190.82 954.73,-176 973.46,-164.72 1026.79,-148.27 1064.75,-137.35"/>
<polygon fill="#63b8ff" stroke="#63b8ff" points="1065.87,-140.67 1074.53,-134.57 1063.95,-133.94 1065.87,-140.67"/>
</g>
<!-- Node10 -->
<g id="node10" class="node">
<title>Node10</title>
<g id="a_node10"><a xlink:href="globals_8h.html" target="_top" xlink:title=" ">
<polygon fill="white" stroke="#666666" points="582.23,-195 521.23,-195 521.23,-176 582.23,-176 582.23,-195"/>
<text text-anchor="middle" x="551.73" y="-183" font-family="Helvetica,sans-Serif" font-size="10.00">globals.h</text>
</a>
</g>
</g>
<!-- Node1&#45;&gt;Node10 -->
<g id="edge11" class="edge">
<title>Node1&#45;&gt;Node10</title>
<path fill="none" stroke="#63b8ff" d="M822.4,-234.34C755.7,-222.55 650.07,-203.88 592.47,-193.7"/>
<polygon fill="#63b8ff" stroke="#63b8ff" points="592.75,-190.2 582.3,-191.9 591.54,-197.09 592.75,-190.2"/>
</g>
<!-- Node18 -->
<g id="node18" class="node">
<title>Node18</title>
<g id="a_node18"><a xlink:href="ulp_8h.html" target="_top" xlink:title=" ">
<polygon fill="white" stroke="#666666" points="1004.23,-195 963.23,-195 963.23,-176 1004.23,-176 1004.23,-195"/>
<text text-anchor="middle" x="983.73" y="-183" font-family="Helvetica,sans-Serif" font-size="10.00">ulp.h</text>
</a>
</g>
</g>
<!-- Node1&#45;&gt;Node18 -->
<g id="edge24" class="edge">
<title>Node1&#45;&gt;Node18</title>
<path fill="none" stroke="#63b8ff" d="M906.92,-230.99C923.02,-221.66 944.07,-209.47 960.06,-200.21"/>
<polygon fill="#63b8ff" stroke="#63b8ff" points="961.91,-203.18 968.81,-195.14 958.41,-197.12 961.91,-203.18"/>
</g>
<!-- Node19 -->
<g id="node19" class="node">
<title>Node19</title>
<g id="a_node19"><a xlink:href="interface_8h.html" target="_top" xlink:title=" ">
<polygon fill="white" stroke="#666666" points="840.73,-195 732.73,-195 732.73,-176 840.73,-176 840.73,-195"/>
<text text-anchor="middle" x="786.73" y="-183" font-family="Helvetica,sans-Serif" font-size="10.00">sd&#45;card/interface.h</text>
</a>
</g>
</g>
<!-- Node1&#45;&gt;Node19 -->
<g id="edge25" class="edge">
<title>Node1&#45;&gt;Node19</title>
<path fill="none" stroke="#63b8ff" d="M859.49,-230.84C844.33,-221.6 824.62,-209.59 809.54,-200.4"/>
<polygon fill="#63b8ff" stroke="#63b8ff" points="811.19,-197.31 800.83,-195.09 807.55,-203.29 811.19,-197.31"/>
</g>
<!-- Node22 -->
<g id="node22" class="node">
<title>Node22</title>
<g id="a_node22"><a xlink:title=" ">
<polygon fill="#e0e0e0" stroke="#999999" points="1085.23,-195 1022.23,-195 1022.23,-176 1085.23,-176 1085.23,-195"/>
<text text-anchor="middle" x="1053.73" y="-183" font-family="Helvetica,sans-Serif" font-size="10.00">esp_log.h</text>
</a>
</g>
</g>
<!-- Node1&#45;&gt;Node22 -->
<g id="edge29" class="edge">
<title>Node1&#45;&gt;Node22</title>
<path fill="none" stroke="#63b8ff" d="M923.69,-230.99C952.73,-221.05 991.28,-207.86 1018.85,-198.43"/>
<polygon fill="#63b8ff" stroke="#63b8ff" points="1020.15,-201.69 1028.48,-195.14 1017.88,-195.06 1020.15,-201.69"/>
</g>
<!-- Node23 -->
<g id="node23" class="node">
<title>Node23</title>
<g id="a_node23"><a xlink:title=" ">
<polygon fill="#e0e0e0" stroke="#999999" points="1216.23,-195 1103.23,-195 1103.23,-176 1216.23,-176 1216.23,-195"/>
<text text-anchor="middle" x="1159.73" y="-183" font-family="Helvetica,sans-Serif" font-size="10.00">freertos/FreeRTOS.h</text>
</a>
</g>
</g>
<!-- Node1&#45;&gt;Node23 -->
<g id="edge30" class="edge">
<title>Node1&#45;&gt;Node23</title>
<path fill="none" stroke="#63b8ff" d="M942.83,-232.31C992.64,-221.79 1062.62,-207.01 1109.49,-197.11"/>
<polygon fill="#63b8ff" stroke="#63b8ff" points="1110.35,-200.51 1119.41,-195.01 1108.91,-193.66 1110.35,-200.51"/>
</g>
<!-- Node24 -->
<g id="node24" class="node">
<title>Node24</title>
<g id="a_node24"><a xlink:title=" ">
<polygon fill="#e0e0e0" stroke="#999999" points="1292.73,-195 1234.73,-195 1234.73,-176 1292.73,-176 1292.73,-195"/>
<text text-anchor="middle" x="1263.73" y="-183" font-family="Helvetica,sans-Serif" font-size="10.00">SPIFFS.h</text>
</a>
</g>
</g>
<!-- Node1&#45;&gt;Node24 -->
<g id="edge32" class="edge">
<title>Node1&#45;&gt;Node24</title>
<path fill="none" stroke="#63b8ff" d="M942.75,-237.64C1009.25,-229.18 1119.87,-214.18 1224.61,-195.08"/>
<polygon fill="#63b8ff" stroke="#63b8ff" points="1225.53,-198.47 1234.73,-193.22 1224.26,-191.59 1225.53,-198.47"/>
</g>
<!-- Node4 -->
<g id="node4" class="node">
<title>Node4</title>
<g id="a_node4"><a xlink:title=" ">
<polygon fill="#e0e0e0" stroke="#999999" points="113.23,-134.5 26.23,-134.5 26.23,-115.5 113.23,-115.5 113.23,-134.5"/>
<text text-anchor="middle" x="69.73" y="-122.5" font-family="Helvetica,sans-Serif" font-size="10.00">ArduinoJSON.h</text>
</a>
</g>
</g>
<!-- Node3&#45;&gt;Node4 -->
<g id="edge3" class="edge">
<title>Node3&#45;&gt;Node4</title>
<path fill="none" stroke="#63b8ff" d="M69.73,-175.87C69.73,-167.75 69.73,-155.31 69.73,-144.89"/>
<polygon fill="#63b8ff" stroke="#63b8ff" points="73.23,-144.67 69.73,-134.67 66.23,-144.67 73.23,-144.67"/>
</g>
<!-- Node5&#45;&gt;Node2 -->
<g id="edge5" class="edge">
<title>Node5&#45;&gt;Node2</title>
<path fill="none" stroke="#63b8ff" d="M167.76,-175.87C159.97,-161.09 147.13,-130.53 160.73,-110 203.83,-44.94 298.88,-22.31 353.98,-14.51"/>
<polygon fill="#63b8ff" stroke="#63b8ff" points="354.65,-17.96 364.11,-13.18 353.74,-11.02 354.65,-17.96"/>
</g>
<!-- Node5&#45;&gt;Node4 -->
<g id="edge6" class="edge">
<title>Node5&#45;&gt;Node4</title>
<path fill="none" stroke="#63b8ff" d="M157.53,-175.87C140.72,-166.32 113.41,-150.81 93.71,-139.62"/>
<polygon fill="#63b8ff" stroke="#63b8ff" points="95.41,-136.56 84.99,-134.67 91.96,-142.65 95.41,-136.56"/>
</g>
<!-- Node7 -->
<g id="node7" class="node">
<title>Node7</title>
<g id="a_node7"><a xlink:title=" ">
<polygon fill="#e0e0e0" stroke="#999999" points="1040.73,-134.5 984.73,-134.5 984.73,-115.5 1040.73,-115.5 1040.73,-134.5"/>
<text text-anchor="middle" x="1012.73" y="-122.5" font-family="Helvetica,sans-Serif" font-size="10.00">stddef.h</text>
</a>
</g>
</g>
<!-- Node6&#45;&gt;Node7 -->
<g id="edge8" class="edge">
<title>Node6&#45;&gt;Node7</title>
<path fill="none" stroke="#63b8ff" d="M901.63,-175.99C923.39,-166.2 959.35,-150.02 984.44,-138.73"/>
<polygon fill="#63b8ff" stroke="#63b8ff" points="986.12,-141.81 993.8,-134.52 983.25,-135.43 986.12,-141.81"/>
</g>
<!-- Node8 -->
<g id="node8" class="node">
<title>Node8</title>
<g id="a_node8"><a xlink:title=" ">
<polygon fill="#e0e0e0" stroke="#999999" points="966.23,-134.5 883.23,-134.5 883.23,-115.5 966.23,-115.5 966.23,-134.5"/>
<text text-anchor="middle" x="924.73" y="-122.5" font-family="Helvetica,sans-Serif" font-size="10.00">ArduinoJson.h</text>
</a>
</g>
</g>
<!-- Node6&#45;&gt;Node8 -->
<g id="edge9" class="edge">
<title>Node6&#45;&gt;Node8</title>
<path fill="none" stroke="#63b8ff" d="M888.93,-175.87C895.13,-167.23 904.84,-153.7 912.58,-142.92"/>
<polygon fill="#63b8ff" stroke="#63b8ff" points="915.52,-144.83 918.51,-134.67 909.83,-140.75 915.52,-144.83"/>
</g>
<!-- Node6&#45;&gt;Node9 -->
<g id="edge10" class="edge">
<title>Node6&#45;&gt;Node9</title>
<path fill="none" stroke="#63b8ff" d="M907.02,-178.13C944.56,-168.28 1017.18,-149.23 1063.46,-137.09"/>
<polygon fill="#63b8ff" stroke="#63b8ff" points="1064.42,-140.46 1073.2,-134.53 1062.64,-133.69 1064.42,-140.46"/>
</g>
<!-- Node11 -->
<g id="node11" class="node">
<title>Node11</title>
<g id="a_node11"><a xlink:href="battery_8h.html" target="_top" xlink:title="Battery voltage and current monitoring using INA219 IC.">
<polygon fill="white" stroke="#666666" points="627.23,-134.5 476.23,-134.5 476.23,-115.5 627.23,-115.5 627.23,-134.5"/>
<text text-anchor="middle" x="551.73" y="-122.5" font-family="Helvetica,sans-Serif" font-size="10.00">power_monitoring/battery.h</text>
</a>
</g>
</g>
<!-- Node10&#45;&gt;Node11 -->
<g id="edge12" class="edge">
<title>Node10&#45;&gt;Node11</title>
<path fill="none" stroke="#63b8ff" d="M551.73,-175.87C551.73,-167.75 551.73,-155.31 551.73,-144.89"/>
<polygon fill="#63b8ff" stroke="#63b8ff" points="555.23,-144.67 551.73,-134.67 548.23,-144.67 555.23,-144.67"/>
</g>
<!-- Node13 -->
<g id="node13" class="node">
<title>Node13</title>
<g id="a_node13"><a xlink:href="solar_8h.html" target="_top" xlink:title="Solar voltage and current monitoring using INA219 IC.">
<polygon fill="white" stroke="#666666" points="309.73,-134.5 169.73,-134.5 169.73,-115.5 309.73,-115.5 309.73,-134.5"/>
<text text-anchor="middle" x="239.73" y="-122.5" font-family="Helvetica,sans-Serif" font-size="10.00">power_monitoring/solar.h</text>
</a>
</g>
</g>
<!-- Node10&#45;&gt;Node13 -->
<g id="edge15" class="edge">
<title>Node10&#45;&gt;Node13</title>
<path fill="none" stroke="#63b8ff" d="M520.96,-178.73C468.57,-168.91 361.34,-148.8 295.48,-136.45"/>
<polygon fill="#63b8ff" stroke="#63b8ff" points="295.75,-132.94 285.28,-134.54 294.46,-139.82 295.75,-132.94"/>
</g>
<!-- Node14 -->
<g id="node14" class="node">
<title>Node14</title>
<g id="a_node14"><a xlink:title=" ">
<polygon fill="#e0e0e0" stroke="#999999" points="457.73,-140 327.73,-140 327.73,-110 457.73,-110 457.73,-140"/>
<text text-anchor="start" x="335.73" y="-128" font-family="Helvetica,sans-Serif" font-size="10.00">SparkFun_u&#45;blox_SARA</text>
<text text-anchor="middle" x="392.73" y="-117" font-family="Helvetica,sans-Serif" font-size="10.00">&#45;R5_Arduino_Library.h</text>
</a>
</g>
</g>
<!-- Node10&#45;&gt;Node14 -->
<g id="edge18" class="edge">
<title>Node10&#45;&gt;Node14</title>
<path fill="none" stroke="#63b8ff" d="M528.61,-175.99C505.63,-167.54 469.69,-154.32 440.55,-143.59"/>
<polygon fill="#63b8ff" stroke="#63b8ff" points="441.55,-140.23 430.96,-140.06 439.13,-146.8 441.55,-140.23"/>
</g>
<!-- Node15 -->
<g id="node15" class="node">
<title>Node15</title>
<g id="a_node15"><a xlink:href="_c_a_t___m1_8h.html" target="_top" xlink:title=" ">
<polygon fill="white" stroke="#666666" points="749.23,-134.5 684.23,-134.5 684.23,-115.5 749.23,-115.5 749.23,-134.5"/>
<text text-anchor="middle" x="716.73" y="-122.5" font-family="Helvetica,sans-Serif" font-size="10.00">CAT_M1.h</text>
</a>
</g>
</g>
<!-- Node10&#45;&gt;Node15 -->
<g id="edge19" class="edge">
<title>Node10&#45;&gt;Node15</title>
<path fill="none" stroke="#63b8ff" d="M575.72,-175.99C603.95,-165.99 651.01,-149.3 682.92,-137.99"/>
<polygon fill="#63b8ff" stroke="#63b8ff" points="684.45,-141.16 692.71,-134.52 682.11,-134.56 684.45,-141.16"/>
</g>
<!-- Node11&#45;&gt;Node2 -->
<g id="edge13" class="edge">
<title>Node11&#45;&gt;Node2</title>
<path fill="none" stroke="#63b8ff" d="M543.4,-115.23C529.98,-101.4 502.37,-74.12 475.73,-55 459.15,-43.11 439.09,-31.95 423.2,-23.79"/>
<polygon fill="#63b8ff" stroke="#63b8ff" points="424.42,-20.48 413.91,-19.11 421.27,-26.73 424.42,-20.48"/>
</g>
<!-- Node12 -->
<g id="node12" class="node">
<title>Node12</title>
<g id="a_node12"><a xlink:title=" ">
<polygon fill="#e0e0e0" stroke="#999999" points="467.23,-74 362.23,-74 362.23,-55 467.23,-55 467.23,-74"/>
<text text-anchor="middle" x="414.73" y="-62" font-family="Helvetica,sans-Serif" font-size="10.00">Adafruit_INA219.h</text>
</a>
</g>
</g>
<!-- Node11&#45;&gt;Node12 -->
<g id="edge14" class="edge">
<title>Node11&#45;&gt;Node12</title>
<path fill="none" stroke="#63b8ff" d="M531.81,-115.49C508.78,-105.66 470.65,-89.38 444.19,-78.08"/>
<polygon fill="#63b8ff" stroke="#63b8ff" points="445.25,-74.72 434.67,-74.02 442.5,-81.16 445.25,-74.72"/>
</g>
<!-- Node13&#45;&gt;Node2 -->
<g id="edge16" class="edge">
<title>Node13&#45;&gt;Node2</title>
<path fill="none" stroke="#63b8ff" d="M251.45,-115.47C277.88,-96.24 342.36,-49.33 375.43,-25.27"/>
<polygon fill="#63b8ff" stroke="#63b8ff" points="377.84,-27.84 383.87,-19.13 373.72,-22.18 377.84,-27.84"/>
</g>
<!-- Node13&#45;&gt;Node12 -->
<g id="edge17" class="edge">
<title>Node13&#45;&gt;Node12</title>
<path fill="none" stroke="#63b8ff" d="M265.18,-115.49C295.37,-105.4 345.89,-88.51 379.75,-77.19"/>
<polygon fill="#63b8ff" stroke="#63b8ff" points="380.88,-80.51 389.25,-74.02 378.66,-73.87 380.88,-80.51"/>
</g>
<!-- Node16 -->
<g id="node16" class="node">
<title>Node16</title>
<g id="a_node16"><a xlink:title=" ">
<polygon fill="#e0e0e0" stroke="#999999" points="771.73,-19 723.73,-19 723.73,0 771.73,0 771.73,-19"/>
<text text-anchor="middle" x="747.73" y="-7" font-family="Helvetica,sans-Serif" font-size="10.00">Wire.h</text>
</a>
</g>
</g>
<!-- Node15&#45;&gt;Node16 -->
<g id="edge20" class="edge">
<title>Node15&#45;&gt;Node16</title>
<path fill="none" stroke="#63b8ff" d="M727.65,-115.43C738.16,-106.41 753.36,-91.18 759.73,-74 765.21,-59.23 761.06,-41.55 756.21,-28.6"/>
<polygon fill="#63b8ff" stroke="#63b8ff" points="759.43,-27.24 752.33,-19.38 752.98,-29.95 759.43,-27.24"/>
</g>
<!-- Node17 -->
<g id="node17" class="node">
<title>Node17</title>
<g id="a_node17"><a xlink:href="_t_c_a9534_8h.html" target="_top" xlink:title=" ">
<polygon fill="white" stroke="#666666" points="750.73,-74 682.73,-74 682.73,-55 750.73,-55 750.73,-74"/>
<text text-anchor="middle" x="716.73" y="-62" font-family="Helvetica,sans-Serif" font-size="10.00">TCA9534.h</text>
</a>
</g>
</g>
<!-- Node15&#45;&gt;Node17 -->
<g id="edge21" class="edge">
<title>Node15&#45;&gt;Node17</title>
<path fill="none" stroke="#63b8ff" d="M716.73,-115.37C716.73,-107.25 716.73,-94.81 716.73,-84.39"/>
<polygon fill="#63b8ff" stroke="#63b8ff" points="720.23,-84.17 716.73,-74.17 713.23,-84.17 720.23,-84.17"/>
</g>
<!-- Node17&#45;&gt;Node2 -->
<g id="edge22" class="edge">
<title>Node17&#45;&gt;Node2</title>
<path fill="none" stroke="#63b8ff" d="M682.65,-57.41C677.98,-56.59 673.23,-55.77 668.73,-55 586.84,-41.08 490.98,-25.65 437.41,-17.11"/>
<polygon fill="#63b8ff" stroke="#63b8ff" points="437.71,-13.62 427.28,-15.5 436.61,-20.53 437.71,-13.62"/>
</g>
<!-- Node17&#45;&gt;Node16 -->
<g id="edge23" class="edge">
<title>Node17&#45;&gt;Node16</title>
<path fill="none" stroke="#63b8ff" d="M721.85,-54.75C726.09,-47.49 732.26,-36.95 737.5,-27.98"/>
<polygon fill="#63b8ff" stroke="#63b8ff" points="740.68,-29.49 742.71,-19.09 734.64,-25.95 740.68,-29.49"/>
</g>
<!-- Node19&#45;&gt;Node2 -->
<g id="edge26" class="edge">
<title>Node19&#45;&gt;Node2</title>
<path fill="none" stroke="#63b8ff" d="M759.06,-175.91C735.78,-168.12 702.01,-155.51 674.73,-140 655.72,-129.19 654.66,-120.95 635.73,-110 567.56,-70.58 480.75,-38.65 432.43,-22.33"/>
<polygon fill="#63b8ff" stroke="#63b8ff" points="433.32,-18.93 422.72,-19.09 431.1,-25.57 433.32,-18.93"/>
</g>
<!-- Node20 -->
<g id="node20" class="node">
<title>Node20</title>
<g id="a_node20"><a xlink:title=" ">
<polygon fill="#e0e0e0" stroke="#999999" points="806.23,-134.5 767.23,-134.5 767.23,-115.5 806.23,-115.5 806.23,-134.5"/>
<text text-anchor="middle" x="786.73" y="-122.5" font-family="Helvetica,sans-Serif" font-size="10.00">SD.h</text>
</a>
</g>
</g>
<!-- Node19&#45;&gt;Node20 -->
<g id="edge27" class="edge">
<title>Node19&#45;&gt;Node20</title>
<path fill="none" stroke="#63b8ff" d="M786.73,-175.87C786.73,-167.75 786.73,-155.31 786.73,-144.89"/>
<polygon fill="#63b8ff" stroke="#63b8ff" points="790.23,-144.67 786.73,-134.67 783.23,-144.67 790.23,-144.67"/>
</g>
<!-- Node21 -->
<g id="node21" class="node">
<title>Node21</title>
<g id="a_node21"><a xlink:title=" ">
<polygon fill="#e0e0e0" stroke="#999999" points="865.23,-134.5 824.23,-134.5 824.23,-115.5 865.23,-115.5 865.23,-134.5"/>
<text text-anchor="middle" x="844.73" y="-122.5" font-family="Helvetica,sans-Serif" font-size="10.00">SPI.h</text>
</a>
</g>
</g>
<!-- Node19&#45;&gt;Node21 -->
<g id="edge28" class="edge">
<title>Node19&#45;&gt;Node21</title>
<path fill="none" stroke="#63b8ff" d="M795.29,-175.87C804.11,-166.97 818.07,-152.89 828.91,-141.95"/>
<polygon fill="#63b8ff" stroke="#63b8ff" points="831.58,-144.23 836.14,-134.67 826.61,-139.3 831.58,-144.23"/>
</g>
</g>
</svg>
