<?xml version="1.0" encoding="UTF-8" standalone="no"?>
<!DOCTYPE svg PUBLIC "-//W3C//DTD SVG 1.1//EN"
 "http://www.w3.org/Graphics/SVG/1.1/DTD/svg11.dtd">
<!-- Generated by graphviz version 2.43.0 (0)
 -->
<!-- Title: firmware/wombat/src/SensorTask.cpp Pages: 1 -->
<svg width="1308pt" height="269pt"
 viewBox="0.00 0.00 1307.50 269.00" xmlns="http://www.w3.org/2000/svg" xmlns:xlink="http://www.w3.org/1999/xlink">
<g id="graph0" class="graph" transform="scale(1 1) rotate(0) translate(4 265)">
<title>firmware/wombat/src/SensorTask.cpp</title>
<!-- Node1 -->
<g id="node1" class="node">
<title>Node1</title>
<g id="a_node1"><a xlink:title=" ">
<polygon fill="#999999" stroke="#666666" points="874.5,-261 754.5,-261 754.5,-231 874.5,-231 874.5,-261"/>
<text text-anchor="start" x="762.5" y="-249" font-family="Helvetica,sans-Serif" font-size="10.00">firmware/wombat/src</text>
<text text-anchor="middle" x="814.5" y="-238" font-family="Helvetica,sans-Serif" font-size="10.00">/SensorTask.cpp</text>
</a>
</g>
</g>
<!-- Node2 -->
<g id="node2" class="node">
<title>Node2</title>
<g id="a_node2"><a xlink:title=" ">
<polygon fill="#e0e0e0" stroke="#999999" points="638,-19 575,-19 575,0 638,0 638,-19"/>
<text text-anchor="middle" x="606.5" y="-7" font-family="Helvetica,sans-Serif" font-size="10.00">Arduino.h</text>
</a>
</g>
</g>
<!-- Node1&#45;&gt;Node2 -->
<g id="edge1" class="edge">
<title>Node1&#45;&gt;Node2</title>
<path fill="none" stroke="#63b8ff" d="M815.98,-230.82C818.05,-216.16 822.82,-193.06 833.5,-176 846.37,-155.45 864.5,-162.09 874.5,-140 880,-127.85 882.11,-120.95 874.5,-110 823.07,-36.04 709.85,-16.94 648.31,-12.09"/>
<polygon fill="#63b8ff" stroke="#63b8ff" points="648.39,-8.58 638.17,-11.38 647.91,-15.57 648.39,-8.58"/>
</g>
<!-- Node3 -->
<g id="node3" class="node">
<title>Node3</title>
<g id="a_node3"><a xlink:href="_sensor_task_8h.html" target="_top" xlink:title=" ">
<polygon fill="white" stroke="#666666" points="305.5,-195 225.5,-195 225.5,-176 305.5,-176 305.5,-195"/>
<text text-anchor="middle" x="265.5" y="-183" font-family="Helvetica,sans-Serif" font-size="10.00">SensorTask.h</text>
</a>
</g>
</g>
<!-- Node1&#45;&gt;Node3 -->
<g id="edge2" class="edge">
<title>Node1&#45;&gt;Node3</title>
<path fill="none" stroke="#63b8ff" d="M754.32,-239.54C662.11,-231.02 480.38,-213.6 326.5,-195 323,-194.58 319.38,-194.12 315.75,-193.65"/>
<polygon fill="#63b8ff" stroke="#63b8ff" points="315.88,-190.14 305.5,-192.29 314.96,-197.07 315.88,-190.14"/>
</g>
<!-- Node5 -->
<g id="node5" class="node">
<title>Node5</title>
<g id="a_node5"><a xlink:href="_device_config_8h.html" target="_top" xlink:title="Node configuration options.">
<polygon fill="white" stroke="#666666" points="425.5,-195 335.5,-195 335.5,-176 425.5,-176 425.5,-195"/>
<text text-anchor="middle" x="380.5" y="-183" font-family="Helvetica,sans-Serif" font-size="10.00">DeviceConfig.h</text>
</a>
</g>
</g>
<!-- Node1&#45;&gt;Node5 -->
<g id="edge4" class="edge">
<title>Node1&#45;&gt;Node5</title>
<path fill="none" stroke="#63b8ff" d="M754.15,-236.87C669.72,-225.49 517.55,-204.97 435.88,-193.96"/>
<polygon fill="#63b8ff" stroke="#63b8ff" points="436.17,-190.47 425.79,-192.61 435.24,-197.41 436.17,-190.47"/>
</g>
<!-- Node6 -->
<g id="node6" class="node">
<title>Node6</title>
<g id="a_node6"><a xlink:href="_utils_8h.html" target="_top" xlink:title=" ">
<polygon fill="white" stroke="#666666" points="183.5,-195 135.5,-195 135.5,-176 183.5,-176 183.5,-195"/>
<text text-anchor="middle" x="159.5" y="-183" font-family="Helvetica,sans-Serif" font-size="10.00">Utils.h</text>
</a>
</g>
</g>
<!-- Node1&#45;&gt;Node6 -->
<g id="edge7" class="edge">
<title>Node1&#45;&gt;Node6</title>
<path fill="none" stroke="#63b8ff" d="M754.11,-241.25C646.05,-234.24 412.6,-217.8 216.5,-195 209.05,-194.13 201.08,-193.05 193.53,-191.94"/>
<polygon fill="#63b8ff" stroke="#63b8ff" points="193.99,-188.47 183.58,-190.44 192.95,-195.39 193.99,-188.47"/>
</g>
<!-- Node8 -->
<g id="node8" class="node">
<title>Node8</title>
<g id="a_node8"><a xlink:title=" ">
<polygon fill="#e0e0e0" stroke="#999999" points="93,-134.5 0,-134.5 0,-115.5 93,-115.5 93,-134.5"/>
<text text-anchor="middle" x="46.5" y="-122.5" font-family="Helvetica,sans-Serif" font-size="10.00">dpiclimate&#45;12.h</text>
</a>
</g>
</g>
<!-- Node1&#45;&gt;Node8 -->
<g id="edge31" class="edge">
<title>Node1&#45;&gt;Node8</title>
<path fill="none" stroke="#63b8ff" d="M754.31,-245.43C608.34,-245.71 239.24,-241.62 126.5,-195 99.08,-183.66 74.36,-159.09 59.89,-142.55"/>
<polygon fill="#63b8ff" stroke="#63b8ff" points="62.42,-140.12 53.29,-134.74 57.07,-144.64 62.42,-140.12"/>
</g>
<!-- Node9 -->
<g id="node9" class="node">
<title>Node9</title>
<g id="a_node9"><a xlink:href="globals_8h.html" target="_top" xlink:title=" ">
<polygon fill="white" stroke="#666666" points="662,-195 601,-195 601,-176 662,-176 662,-195"/>
<text text-anchor="middle" x="631.5" y="-183" font-family="Helvetica,sans-Serif" font-size="10.00">globals.h</text>
</a>
</g>
</g>
<!-- Node1&#45;&gt;Node9 -->
<g id="edge11" class="edge">
<title>Node1&#45;&gt;Node9</title>
<path fill="none" stroke="#63b8ff" d="M770.67,-230.99C739.36,-220.98 697.72,-207.67 668.17,-198.22"/>
<polygon fill="#63b8ff" stroke="#63b8ff" points="668.85,-194.76 658.26,-195.05 666.72,-201.43 668.85,-194.76"/>
</g>
<!-- Node17 -->
<g id="node17" class="node">
<title>Node17</title>
<g id="a_node17"><a xlink:href="ulp_8h.html" target="_top" xlink:title=" ">
<polygon fill="white" stroke="#666666" points="884,-195 843,-195 843,-176 884,-176 884,-195"/>
<text text-anchor="middle" x="863.5" y="-183" font-family="Helvetica,sans-Serif" font-size="10.00">ulp.h</text>
</a>
</g>
</g>
<!-- Node1&#45;&gt;Node17 -->
<g id="edge24" class="edge">
<title>Node1&#45;&gt;Node17</title>
<path fill="none" stroke="#63b8ff" d="M826.36,-230.84C833.4,-222.43 842.36,-211.74 849.71,-202.96"/>
<polygon fill="#63b8ff" stroke="#63b8ff" points="852.42,-205.18 856.16,-195.27 847.05,-200.68 852.42,-205.18"/>
</g>
<!-- Node18 -->
<g id="node18" class="node">
<title>Node18</title>
<g id="a_node18"><a xlink:href="interface_8h.html" target="_top" xlink:title=" ">
<polygon fill="white" stroke="#666666" points="1010.5,-195 902.5,-195 902.5,-176 1010.5,-176 1010.5,-195"/>
<text text-anchor="middle" x="956.5" y="-183" font-family="Helvetica,sans-Serif" font-size="10.00">sd&#45;card/interface.h</text>
</a>
</g>
</g>
<!-- Node1&#45;&gt;Node18 -->
<g id="edge25" class="edge">
<title>Node1&#45;&gt;Node18</title>
<path fill="none" stroke="#63b8ff" d="M848.51,-230.99C872.1,-221.27 903.24,-208.44 926.02,-199.06"/>
<polygon fill="#63b8ff" stroke="#63b8ff" points="927.62,-202.18 935.53,-195.14 924.95,-195.71 927.62,-202.18"/>
</g>
<!-- Node21 -->
<g id="node21" class="node">
<title>Node21</title>
<g id="a_node21"><a xlink:title=" ">
<polygon fill="#e0e0e0" stroke="#999999" points="1092,-195 1029,-195 1029,-176 1092,-176 1092,-195"/>
<text text-anchor="middle" x="1060.5" y="-183" font-family="Helvetica,sans-Serif" font-size="10.00">esp_log.h</text>
</a>
</g>
</g>
<!-- Node1&#45;&gt;Node21 -->
<g id="edge29" class="edge">
<title>Node1&#45;&gt;Node21</title>
<path fill="none" stroke="#63b8ff" d="M873.42,-230.99C918.27,-220.32 978.89,-205.91 1018.81,-196.41"/>
<polygon fill="#63b8ff" stroke="#63b8ff" points="1019.83,-199.77 1028.74,-194.05 1018.21,-192.96 1019.83,-199.77"/>
</g>
<!-- Node22 -->
<g id="node22" class="node">
<title>Node22</title>
<g id="a_node22"><a xlink:title=" ">
<polygon fill="#e0e0e0" stroke="#999999" points="1223,-195 1110,-195 1110,-176 1223,-176 1223,-195"/>
<text text-anchor="middle" x="1166.5" y="-183" font-family="Helvetica,sans-Serif" font-size="10.00">freertos/FreeRTOS.h</text>
</a>
</g>
</g>
<!-- Node1&#45;&gt;Node22 -->
<g id="edge30" class="edge">
<title>Node1&#45;&gt;Node22</title>
<path fill="none" stroke="#63b8ff" d="M874.61,-235.01C938.91,-224.32 1040.37,-207.46 1105.15,-196.7"/>
<polygon fill="#63b8ff" stroke="#63b8ff" points="1105.93,-200.11 1115.22,-195.02 1104.78,-193.21 1105.93,-200.11"/>
</g>
<!-- Node23 -->
<g id="node23" class="node">
<title>Node23</title>
<g id="a_node23"><a xlink:title=" ">
<polygon fill="#e0e0e0" stroke="#999999" points="1299.5,-195 1241.5,-195 1241.5,-176 1299.5,-176 1299.5,-195"/>
<text text-anchor="middle" x="1270.5" y="-183" font-family="Helvetica,sans-Serif" font-size="10.00">SPIFFS.h</text>
</a>
</g>
</g>
<!-- Node1&#45;&gt;Node23 -->
<g id="edge32" class="edge">
<title>Node1&#45;&gt;Node23</title>
<path fill="none" stroke="#63b8ff" d="M874.65,-239.73C954.12,-232.34 1098.62,-217.43 1231.17,-195.08"/>
<polygon fill="#63b8ff" stroke="#63b8ff" points="1231.83,-198.51 1241.1,-193.38 1230.65,-191.61 1231.83,-198.51"/>
</g>
<!-- Node4 -->
<g id="node4" class="node">
<title>Node4</title>
<g id="a_node4"><a xlink:title=" ">
<polygon fill="#e0e0e0" stroke="#999999" points="269,-134.5 186,-134.5 186,-115.5 269,-115.5 269,-134.5"/>
<text text-anchor="middle" x="227.5" y="-122.5" font-family="Helvetica,sans-Serif" font-size="10.00">ArduinoJson.h</text>
</a>
</g>
</g>
<!-- Node3&#45;&gt;Node4 -->
<g id="edge3" class="edge">
<title>Node3&#45;&gt;Node4</title>
<path fill="none" stroke="#63b8ff" d="M259.89,-175.87C254.34,-167.31 245.67,-153.97 238.7,-143.24"/>
<polygon fill="#63b8ff" stroke="#63b8ff" points="241.51,-141.15 233.13,-134.67 235.64,-144.96 241.51,-141.15"/>
</g>
<!-- Node5&#45;&gt;Node2 -->
<g id="edge5" class="edge">
<title>Node5&#45;&gt;Node2</title>
<path fill="none" stroke="#63b8ff" d="M380.44,-175.63C380.81,-160.49 383.6,-129.41 399.5,-110 441.87,-58.27 517.55,-31.62 564.73,-19.38"/>
<polygon fill="#63b8ff" stroke="#63b8ff" points="565.77,-22.73 574.62,-16.92 564.08,-15.94 565.77,-22.73"/>
</g>
<!-- Node5&#45;&gt;Node4 -->
<g id="edge6" class="edge">
<title>Node5&#45;&gt;Node4</title>
<path fill="none" stroke="#63b8ff" d="M358.25,-175.99C332.19,-166.03 288.82,-149.45 259.23,-138.13"/>
<polygon fill="#63b8ff" stroke="#63b8ff" points="260.36,-134.82 249.77,-134.52 257.86,-141.36 260.36,-134.82"/>
</g>
<!-- Node6&#45;&gt;Node4 -->
<g id="edge9" class="edge">
<title>Node6&#45;&gt;Node4</title>
<path fill="none" stroke="#63b8ff" d="M169.53,-175.87C180.08,-166.8 196.89,-152.34 209.69,-141.32"/>
<polygon fill="#63b8ff" stroke="#63b8ff" points="212.13,-143.84 217.43,-134.67 207.56,-138.54 212.13,-143.84"/>
</g>
<!-- Node7 -->
<g id="node7" class="node">
<title>Node7</title>
<g id="a_node7"><a xlink:title=" ">
<polygon fill="#e0e0e0" stroke="#999999" points="167.5,-134.5 111.5,-134.5 111.5,-115.5 167.5,-115.5 167.5,-134.5"/>
<text text-anchor="middle" x="139.5" y="-122.5" font-family="Helvetica,sans-Serif" font-size="10.00">stddef.h</text>
</a>
</g>
</g>
<!-- Node6&#45;&gt;Node7 -->
<g id="edge8" class="edge">
<title>Node6&#45;&gt;Node7</title>
<path fill="none" stroke="#63b8ff" d="M156.55,-175.87C153.71,-167.57 149.34,-154.78 145.73,-144.22"/>
<polygon fill="#63b8ff" stroke="#63b8ff" points="149.01,-143 142.46,-134.67 142.39,-145.26 149.01,-143"/>
</g>
<!-- Node6&#45;&gt;Node8 -->
<g id="edge10" class="edge">
<title>Node6&#45;&gt;Node8</title>
<path fill="none" stroke="#63b8ff" d="M142.83,-175.87C124.22,-166.23 93.88,-150.53 72.22,-139.31"/>
<polygon fill="#63b8ff" stroke="#63b8ff" points="73.73,-136.16 63.24,-134.67 70.51,-142.37 73.73,-136.16"/>
</g>
<!-- Node10 -->
<g id="node10" class="node">
<title>Node10</title>
<g id="a_node10"><a xlink:href="battery_8h.html" target="_top" xlink:title="Battery voltage and current monitoring using INA219 IC.">
<polygon fill="white" stroke="#666666" points="866,-134.5 715,-134.5 715,-115.5 866,-115.5 866,-134.5"/>
<text text-anchor="middle" x="790.5" y="-122.5" font-family="Helvetica,sans-Serif" font-size="10.00">power_monitoring/battery.h</text>
</a>
</g>
</g>
<!-- Node9&#45;&gt;Node10 -->
<g id="edge12" class="edge">
<title>Node9&#45;&gt;Node10</title>
<path fill="none" stroke="#63b8ff" d="M654.62,-175.99C681.82,-165.99 727.17,-149.3 757.92,-137.99"/>
<polygon fill="#63b8ff" stroke="#63b8ff" points="759.18,-141.25 767.35,-134.52 756.76,-134.68 759.18,-141.25"/>
</g>
<!-- Node12 -->
<g id="node12" class="node">
<title>Node12</title>
<g id="a_node12"><a xlink:href="solar_8h.html" target="_top" xlink:title="Solar voltage and current monitoring using INA219 IC.">
<polygon fill="white" stroke="#666666" points="548.5,-134.5 408.5,-134.5 408.5,-115.5 548.5,-115.5 548.5,-134.5"/>
<text text-anchor="middle" x="478.5" y="-122.5" font-family="Helvetica,sans-Serif" font-size="10.00">power_monitoring/solar.h</text>
</a>
</g>
</g>
<!-- Node9&#45;&gt;Node12 -->
<g id="edge15" class="edge">
<title>Node9&#45;&gt;Node12</title>
<path fill="none" stroke="#63b8ff" d="M609.25,-175.99C583.19,-166.03 539.82,-149.45 510.23,-138.13"/>
<polygon fill="#63b8ff" stroke="#63b8ff" points="511.36,-134.82 500.77,-134.52 508.86,-141.36 511.36,-134.82"/>
</g>
<!-- Node13 -->
<g id="node13" class="node">
<title>Node13</title>
<g id="a_node13"><a xlink:title=" ">
<polygon fill="#e0e0e0" stroke="#999999" points="696.5,-140 566.5,-140 566.5,-110 696.5,-110 696.5,-140"/>
<text text-anchor="start" x="574.5" y="-128" font-family="Helvetica,sans-Serif" font-size="10.00">SparkFun_u&#45;blox_SARA</text>
<text text-anchor="middle" x="631.5" y="-117" font-family="Helvetica,sans-Serif" font-size="10.00">&#45;R5_Arduino_Library.h</text>
</a>
</g>
</g>
<!-- Node9&#45;&gt;Node13 -->
<g id="edge18" class="edge">
<title>Node9&#45;&gt;Node13</title>
<path fill="none" stroke="#63b8ff" d="M631.5,-175.87C631.5,-169.11 631.5,-159.35 631.5,-150.26"/>
<polygon fill="#63b8ff" stroke="#63b8ff" points="635,-150.11 631.5,-140.11 628,-150.11 635,-150.11"/>
</g>
<!-- Node14 -->
<g id="node14" class="node">
<title>Node14</title>
<g id="a_node14"><a xlink:href="_c_a_t___m1_8h.html" target="_top" xlink:title=" ">
<polygon fill="white" stroke="#666666" points="352,-134.5 287,-134.5 287,-115.5 352,-115.5 352,-134.5"/>
<text text-anchor="middle" x="319.5" y="-122.5" font-family="Helvetica,sans-Serif" font-size="10.00">CAT_M1.h</text>
</a>
</g>
</g>
<!-- Node9&#45;&gt;Node14 -->
<g id="edge19" class="edge">
<title>Node9&#45;&gt;Node14</title>
<path fill="none" stroke="#63b8ff" d="M600.73,-178.73C544.81,-168.25 426.4,-146.04 362.52,-134.07"/>
<polygon fill="#63b8ff" stroke="#63b8ff" points="362.85,-130.57 352.37,-132.16 361.56,-137.45 362.85,-130.57"/>
</g>
<!-- Node10&#45;&gt;Node2 -->
<g id="edge13" class="edge">
<title>Node10&#45;&gt;Node2</title>
<path fill="none" stroke="#63b8ff" d="M776.67,-115.47C745.23,-96.08 668.15,-48.53 629.45,-24.66"/>
<polygon fill="#63b8ff" stroke="#63b8ff" points="630.84,-21.4 620.49,-19.13 627.16,-27.36 630.84,-21.4"/>
</g>
<!-- Node11 -->
<g id="node11" class="node">
<title>Node11</title>
<g id="a_node11"><a xlink:title=" ">
<polygon fill="#e0e0e0" stroke="#999999" points="650,-74 545,-74 545,-55 650,-55 650,-74"/>
<text text-anchor="middle" x="597.5" y="-62" font-family="Helvetica,sans-Serif" font-size="10.00">Adafruit_INA219.h</text>
</a>
</g>
</g>
<!-- Node10&#45;&gt;Node11 -->
<g id="edge14" class="edge">
<title>Node10&#45;&gt;Node11</title>
<path fill="none" stroke="#63b8ff" d="M762.44,-115.49C728.99,-105.36 672.94,-88.37 635.6,-77.05"/>
<polygon fill="#63b8ff" stroke="#63b8ff" points="636.18,-73.57 625.6,-74.02 634.15,-80.27 636.18,-73.57"/>
</g>
<!-- Node12&#45;&gt;Node2 -->
<g id="edge16" class="edge">
<title>Node12&#45;&gt;Node2</title>
<path fill="none" stroke="#63b8ff" d="M484.39,-115.17C493.96,-101.25 514.01,-73.85 535.5,-55 549.18,-43 566.45,-32.1 580.53,-24.09"/>
<polygon fill="#63b8ff" stroke="#63b8ff" points="582.63,-26.93 589.69,-19.03 579.24,-20.8 582.63,-26.93"/>
</g>
<!-- Node12&#45;&gt;Node11 -->
<g id="edge17" class="edge">
<title>Node12&#45;&gt;Node11</title>
<path fill="none" stroke="#63b8ff" d="M495.8,-115.49C515.55,-105.79 548.05,-89.81 570.99,-78.53"/>
<polygon fill="#63b8ff" stroke="#63b8ff" points="572.75,-81.57 580.18,-74.02 569.66,-75.29 572.75,-81.57"/>
</g>
<!-- Node15 -->
<g id="node15" class="node">
<title>Node15</title>
<g id="a_node15"><a xlink:title=" ">
<polygon fill="#e0e0e0" stroke="#999999" points="312.5,-19 264.5,-19 264.5,0 312.5,0 312.5,-19"/>
<text text-anchor="middle" x="288.5" y="-7" font-family="Helvetica,sans-Serif" font-size="10.00">Wire.h</text>
</a>
</g>
</g>
<!-- Node14&#45;&gt;Node15 -->
<g id="edge20" class="edge">
<title>Node14&#45;&gt;Node15</title>
<path fill="none" stroke="#63b8ff" d="M308.58,-115.43C298.07,-106.41 282.87,-91.18 276.5,-74 271.02,-59.23 275.17,-41.55 280.02,-28.6"/>
<polygon fill="#63b8ff" stroke="#63b8ff" points="283.25,-29.95 283.9,-19.38 276.8,-27.24 283.25,-29.95"/>
</g>
<!-- Node16 -->
<g id="node16" class="node">
<title>Node16</title>
<g id="a_node16"><a xlink:href="_t_c_a9534_8h.html" target="_top" xlink:title=" ">
<polygon fill="white" stroke="#666666" points="353.5,-74 285.5,-74 285.5,-55 353.5,-55 353.5,-74"/>
<text text-anchor="middle" x="319.5" y="-62" font-family="Helvetica,sans-Serif" font-size="10.00">TCA9534.h</text>
</a>
</g>
</g>
<!-- Node14&#45;&gt;Node16 -->
<g id="edge21" class="edge">
<title>Node14&#45;&gt;Node16</title>
<path fill="none" stroke="#63b8ff" d="M319.5,-115.37C319.5,-107.25 319.5,-94.81 319.5,-84.39"/>
<polygon fill="#63b8ff" stroke="#63b8ff" points="323,-84.17 319.5,-74.17 316,-84.17 323,-84.17"/>
</g>
<!-- Node16&#45;&gt;Node2 -->
<g id="edge22" class="edge">
<title>Node16&#45;&gt;Node2</title>
<path fill="none" stroke="#63b8ff" d="M353.55,-57.21C406.25,-47.48 507.43,-28.8 564.56,-18.25"/>
<polygon fill="#63b8ff" stroke="#63b8ff" points="565.49,-21.63 574.69,-16.37 564.22,-14.75 565.49,-21.63"/>
</g>
<!-- Node16&#45;&gt;Node15 -->
<g id="edge23" class="edge">
<title>Node16&#45;&gt;Node15</title>
<path fill="none" stroke="#63b8ff" d="M314.38,-54.75C310.14,-47.49 303.97,-36.95 298.72,-27.98"/>
<polygon fill="#63b8ff" stroke="#63b8ff" points="301.59,-25.95 293.52,-19.09 295.55,-29.49 301.59,-25.95"/>
</g>
<!-- Node18&#45;&gt;Node2 -->
<g id="edge26" class="edge">
<title>Node18&#45;&gt;Node2</title>
<path fill="none" stroke="#63b8ff" d="M954.48,-175.76C948.21,-149.31 928.25,-71 908.5,-55 869.35,-23.28 721.75,-14.13 648.4,-11.52"/>
<polygon fill="#63b8ff" stroke="#63b8ff" points="648.25,-8.01 638.14,-11.18 648.02,-15.01 648.25,-8.01"/>
</g>
<!-- Node19 -->
<g id="node19" class="node">
<title>Node19</title>
<g id="a_node19"><a xlink:title=" ">
<polygon fill="#e0e0e0" stroke="#999999" points="1000,-134.5 961,-134.5 961,-115.5 1000,-115.5 1000,-134.5"/>
<text text-anchor="middle" x="980.5" y="-122.5" font-family="Helvetica,sans-Serif" font-size="10.00">SD.h</text>
</a>
</g>
</g>
<!-- Node18&#45;&gt;Node19 -->
<g id="edge27" class="edge">
<title>Node18&#45;&gt;Node19</title>
<path fill="none" stroke="#63b8ff" d="M960.04,-175.87C963.44,-167.57 968.69,-154.78 973.02,-144.22"/>
<polygon fill="#63b8ff" stroke="#63b8ff" points="976.39,-145.25 976.94,-134.67 969.91,-142.59 976.39,-145.25"/>
</g>
<!-- Node20 -->
<g id="node20" class="node">
<title>Node20</title>
<g id="a_node20"><a xlink:title=" ">
<polygon fill="#e0e0e0" stroke="#999999" points="1059,-134.5 1018,-134.5 1018,-115.5 1059,-115.5 1059,-134.5"/>
<text text-anchor="middle" x="1038.5" y="-122.5" font-family="Helvetica,sans-Serif" font-size="10.00">SPI.h</text>
</a>
</g>
</g>
<!-- Node18&#45;&gt;Node20 -->
<g id="edge28" class="edge">
<title>Node18&#45;&gt;Node20</title>
<path fill="none" stroke="#63b8ff" d="M968.6,-175.87C981.56,-166.62 1002.36,-151.78 1017.9,-140.69"/>
<polygon fill="#63b8ff" stroke="#63b8ff" points="1020.24,-143.32 1026.35,-134.67 1016.18,-137.63 1020.24,-143.32"/>
</g>
</g>
</svg>
