<?xml version="1.0" encoding="UTF-8" standalone="no"?>
<!DOCTYPE svg PUBLIC "-//W3C//DTD SVG 1.1//EN"
 "http://www.w3.org/Graphics/SVG/1.1/DTD/svg11.dtd">
<!-- Generated by graphviz version 2.43.0 (0)
 -->
<!-- Title: firmware/wombat/lib/TCA9534/include/TCA9534.h Pages: 1 -->
<svg width="2046pt" height="467pt"
 viewBox="0.00 0.00 2045.50 467.00" xmlns="http://www.w3.org/2000/svg" xmlns:xlink="http://www.w3.org/1999/xlink">
<g id="graph0" class="graph" transform="scale(1 1) rotate(0) translate(4 463)">
<title>firmware/wombat/lib/TCA9534/include/TCA9534.h</title>
<!-- Node1 -->
<g id="node1" class="node">
<title>Node1</title>
<g id="a_node1"><a xlink:title=" ">
<polygon fill="#999999" stroke="#666666" points="2037.5,-459 1882.5,-459 1882.5,-429 2037.5,-429 2037.5,-459"/>
<text text-anchor="start" x="1890.5" y="-447" font-family="Helvetica,sans-Serif" font-size="10.00">firmware/wombat/lib</text>
<text text-anchor="middle" x="1960" y="-436" font-family="Helvetica,sans-Serif" font-size="10.00">/TCA9534/include/TCA9534.h</text>
</a>
</g>
</g>
<!-- Node2 -->
<g id="node2" class="node">
<title>Node2</title>
<g id="a_node2"><a xlink:href="_c_a_t___m1_8h.html" target="_top" xlink:title=" ">
<polygon fill="white" stroke="#666666" points="873.5,-393 732.5,-393 732.5,-363 873.5,-363 873.5,-393"/>
<text text-anchor="start" x="740.5" y="-381" font-family="Helvetica,sans-Serif" font-size="10.00">firmware/wombat/include</text>
<text text-anchor="middle" x="803" y="-370" font-family="Helvetica,sans-Serif" font-size="10.00">/CAT_M1.h</text>
</a>
</g>
</g>
<!-- Node1&#45;&gt;Node2 -->
<g id="edge1" class="edge">
<title>Node1&#45;&gt;Node2</title>
<path fill="none" stroke="#63b8ff" d="M1872.03,-438.13C1650.86,-425.9 1074.95,-394.04 873.68,-382.91"/>
<polygon fill="#63b8ff" stroke="#63b8ff" points="1872.11,-441.64 1882.29,-438.7 1872.5,-434.65 1872.11,-441.64"/>
</g>
<!-- Node14 -->
<g id="node14" class="node">
<title>Node14</title>
<g id="a_node14"><a xlink:href="main_8cpp.html" target="_top" xlink:title=" ">
<polygon fill="white" stroke="#666666" points="1126,-167.5 1006,-167.5 1006,-137.5 1126,-137.5 1126,-167.5"/>
<text text-anchor="start" x="1014" y="-155.5" font-family="Helvetica,sans-Serif" font-size="10.00">firmware/wombat/src</text>
<text text-anchor="middle" x="1066" y="-144.5" font-family="Helvetica,sans-Serif" font-size="10.00">/main.cpp</text>
</a>
</g>
</g>
<!-- Node1&#45;&gt;Node14 -->
<g id="edge41" class="edge">
<title>Node1&#45;&gt;Node14</title>
<path fill="none" stroke="#63b8ff" d="M1966.89,-419.13C1979,-371.57 1997.76,-264.77 1941,-209 1883.11,-152.13 1314.5,-151.49 1126.21,-152.87"/>
<polygon fill="#63b8ff" stroke="#63b8ff" points="1963.49,-418.3 1964.29,-428.86 1970.26,-420.1 1963.49,-418.3"/>
</g>
<!-- Node21 -->
<g id="node21" class="node">
<title>Node21</title>
<g id="a_node21"><a xlink:href="_utils_8cpp.html" target="_top" xlink:title="Global utility functions.">
<polygon fill="white" stroke="#666666" points="1932,-244.5 1812,-244.5 1812,-214.5 1932,-214.5 1932,-244.5"/>
<text text-anchor="start" x="1820" y="-232.5" font-family="Helvetica,sans-Serif" font-size="10.00">firmware/wombat/src</text>
<text text-anchor="middle" x="1872" y="-221.5" font-family="Helvetica,sans-Serif" font-size="10.00">/Utils.cpp</text>
</a>
</g>
</g>
<!-- Node1&#45;&gt;Node21 -->
<g id="edge40" class="edge">
<title>Node1&#45;&gt;Node21</title>
<path fill="none" stroke="#63b8ff" d="M1950.19,-419.32C1931.82,-374.95 1892.73,-280.56 1877.88,-244.71"/>
<polygon fill="#63b8ff" stroke="#63b8ff" points="1947.03,-420.83 1954.09,-428.73 1953.5,-418.15 1947.03,-420.83"/>
</g>
<!-- Node3 -->
<g id="node3" class="node">
<title>Node3</title>
<g id="a_node3"><a xlink:href="cat-m1_8h.html" target="_top" xlink:title="CAT&#45;M1 CLI command request and response handler.">
<polygon fill="white" stroke="#666666" points="323.5,-321.5 182.5,-321.5 182.5,-291.5 323.5,-291.5 323.5,-321.5"/>
<text text-anchor="start" x="190.5" y="-309.5" font-family="Helvetica,sans-Serif" font-size="10.00">firmware/wombat/include</text>
<text text-anchor="middle" x="253" y="-298.5" font-family="Helvetica,sans-Serif" font-size="10.00">/cli/peripherals/cat&#45;m1.h</text>
</a>
</g>
</g>
<!-- Node2&#45;&gt;Node3 -->
<g id="edge2" class="edge">
<title>Node2&#45;&gt;Node3</title>
<path fill="none" stroke="#63b8ff" d="M721.94,-371.21C628.84,-363.88 471.72,-349.45 338,-327 328.89,-325.47 319.3,-323.56 309.97,-321.54"/>
<polygon fill="#63b8ff" stroke="#63b8ff" points="721.9,-374.72 732.14,-372 722.44,-367.74 721.9,-374.72"/>
</g>
<!-- Node10 -->
<g id="node10" class="node">
<title>Node10</title>
<g id="a_node10"><a xlink:href="cat-m1_8cpp.html" target="_top" xlink:title="CAT&#45;M1 CLI command request and response handler.">
<polygon fill="white" stroke="#666666" points="120,-173 0,-173 0,-132 120,-132 120,-173"/>
<text text-anchor="start" x="8" y="-161" font-family="Helvetica,sans-Serif" font-size="10.00">firmware/wombat/src</text>
<text text-anchor="start" x="8" y="-150" font-family="Helvetica,sans-Serif" font-size="10.00">/cli/peripherals/cat</text>
<text text-anchor="middle" x="60" y="-139" font-family="Helvetica,sans-Serif" font-size="10.00">&#45;m1.cpp</text>
</a>
</g>
</g>
<!-- Node2&#45;&gt;Node10 -->
<g id="edge37" class="edge">
<title>Node2&#45;&gt;Node10</title>
<path fill="none" stroke="#63b8ff" d="M722.38,-364.34C671.85,-355.63 605.61,-342.8 548,-327 383.02,-281.77 193.74,-207.94 107.39,-173"/>
<polygon fill="#63b8ff" stroke="#63b8ff" points="721.82,-367.79 732.27,-366.02 723,-360.89 721.82,-367.79"/>
</g>
<!-- Node13 -->
<g id="node13" class="node">
<title>Node13</title>
<g id="a_node13"><a xlink:href="ftp__stack_8cpp.html" target="_top" xlink:title=" ">
<polygon fill="white" stroke="#666666" points="850,-167.5 730,-167.5 730,-137.5 850,-137.5 850,-167.5"/>
<text text-anchor="start" x="738" y="-155.5" font-family="Helvetica,sans-Serif" font-size="10.00">firmware/wombat/src</text>
<text text-anchor="middle" x="790" y="-144.5" font-family="Helvetica,sans-Serif" font-size="10.00">/ftp_stack.cpp</text>
</a>
</g>
</g>
<!-- Node2&#45;&gt;Node13 -->
<g id="edge38" class="edge">
<title>Node2&#45;&gt;Node13</title>
<path fill="none" stroke="#63b8ff" d="M722.31,-369.99C664.08,-363.07 592.58,-350.07 574,-327 541.11,-286.15 541.63,-250.26 574,-209 615.52,-156.08 655.96,-190.15 721,-173 727.5,-171.29 734.33,-169.43 741.06,-167.56"/>
<polygon fill="#63b8ff" stroke="#63b8ff" points="721.93,-373.47 732.27,-371.14 722.73,-366.52 721.93,-373.47"/>
</g>
<!-- Node15 -->
<g id="node15" class="node">
<title>Node15</title>
<g id="a_node15"><a xlink:href="mqtt__stack_8cpp.html" target="_top" xlink:title=" ">
<polygon fill="white" stroke="#666666" points="988,-167.5 868,-167.5 868,-137.5 988,-137.5 988,-167.5"/>
<text text-anchor="start" x="876" y="-155.5" font-family="Helvetica,sans-Serif" font-size="10.00">firmware/wombat/src</text>
<text text-anchor="middle" x="928" y="-144.5" font-family="Helvetica,sans-Serif" font-size="10.00">/mqtt_stack.cpp</text>
</a>
</g>
</g>
<!-- Node2&#45;&gt;Node15 -->
<g id="edge39" class="edge">
<title>Node2&#45;&gt;Node15</title>
<path fill="none" stroke="#63b8ff" d="M722.43,-366.54C674.99,-358.54 621.51,-345.67 607,-327 574.82,-285.59 572.64,-248.62 607,-209 644.06,-166.27 803.66,-184.72 859,-173 866.31,-171.45 873.98,-169.56 881.44,-167.57"/>
<polygon fill="#63b8ff" stroke="#63b8ff" points="722.01,-370.01 732.45,-368.17 723.14,-363.11 722.01,-370.01"/>
</g>
<!-- Node16 -->
<g id="node16" class="node">
<title>Node16</title>
<g id="a_node16"><a xlink:href="cli__power_8h.html" target="_top" xlink:title=" ">
<polygon fill="white" stroke="#666666" points="762,-321.5 616,-321.5 616,-291.5 762,-291.5 762,-321.5"/>
<text text-anchor="start" x="624" y="-309.5" font-family="Helvetica,sans-Serif" font-size="10.00">firmware/wombat/include</text>
<text text-anchor="middle" x="689" y="-298.5" font-family="Helvetica,sans-Serif" font-size="10.00">/cli/peripherals/cli_power.h</text>
</a>
</g>
</g>
<!-- Node2&#45;&gt;Node16 -->
<g id="edge17" class="edge">
<title>Node2&#45;&gt;Node16</title>
<path fill="none" stroke="#63b8ff" d="M771.38,-357.72C752.56,-346.25 729.1,-331.95 712.04,-321.54"/>
<polygon fill="#63b8ff" stroke="#63b8ff" points="769.57,-360.72 779.93,-362.94 773.21,-354.74 769.57,-360.72"/>
</g>
<!-- Node18 -->
<g id="node18" class="node">
<title>Node18</title>
<g id="a_node18"><a xlink:href="globals_8h.html" target="_top" xlink:title=" ">
<polygon fill="white" stroke="#666666" points="986.5,-321.5 845.5,-321.5 845.5,-291.5 986.5,-291.5 986.5,-321.5"/>
<text text-anchor="start" x="853.5" y="-309.5" font-family="Helvetica,sans-Serif" font-size="10.00">firmware/wombat/include</text>
<text text-anchor="middle" x="916" y="-298.5" font-family="Helvetica,sans-Serif" font-size="10.00">/globals.h</text>
</a>
</g>
</g>
<!-- Node2&#45;&gt;Node18 -->
<g id="edge20" class="edge">
<title>Node2&#45;&gt;Node18</title>
<path fill="none" stroke="#63b8ff" d="M834.59,-357.57C853.21,-346.12 876.33,-331.9 893.17,-321.54"/>
<polygon fill="#63b8ff" stroke="#63b8ff" points="832.55,-354.72 825.87,-362.94 836.22,-360.68 832.55,-354.72"/>
</g>
<!-- Node19 -->
<g id="node19" class="node">
<title>Node19</title>
<g id="a_node19"><a xlink:href="_c_a_t___m1_8cpp.html" target="_top" xlink:title=" ">
<polygon fill="white" stroke="#666666" points="1794,-244.5 1674,-244.5 1674,-214.5 1794,-214.5 1794,-244.5"/>
<text text-anchor="start" x="1682" y="-232.5" font-family="Helvetica,sans-Serif" font-size="10.00">firmware/wombat/src</text>
<text text-anchor="middle" x="1734" y="-221.5" font-family="Helvetica,sans-Serif" font-size="10.00">/CAT_M1.cpp</text>
</a>
</g>
</g>
<!-- Node2&#45;&gt;Node19 -->
<g id="edge34" class="edge">
<title>Node2&#45;&gt;Node19</title>
<path fill="none" stroke="#63b8ff" d="M883.63,-365.58C919.62,-358.15 961.58,-346.14 996,-327 1019.08,-314.17 1014.78,-296.51 1039,-286 1166.82,-230.52 1527.58,-273.08 1665,-250 1673.1,-248.64 1681.61,-246.68 1689.78,-244.53"/>
<polygon fill="#63b8ff" stroke="#63b8ff" points="882.78,-362.18 873.65,-367.55 884.13,-369.05 882.78,-362.18"/>
</g>
<!-- Node2&#45;&gt;Node21 -->
<g id="edge35" class="edge">
<title>Node2&#45;&gt;Node21</title>
<path fill="none" stroke="#63b8ff" d="M883.69,-370.34C929.12,-363.95 985.65,-351.46 1031,-327 1053.96,-314.62 1049.09,-296.43 1073,-286 1221.87,-221.06 1642.72,-276.25 1803,-250 1811.11,-248.67 1819.62,-246.73 1827.79,-244.59"/>
<polygon fill="#63b8ff" stroke="#63b8ff" points="883.03,-366.89 873.58,-371.68 883.95,-373.83 883.03,-366.89"/>
</g>
<!-- Node26 -->
<g id="node26" class="node">
<title>Node26</title>
<g id="a_node26"><a xlink:href="config__cli_8cpp.html" target="_top" xlink:title="Command line interface node configuration commands.">
<polygon fill="white" stroke="#666666" points="1214.5,-327 1081.5,-327 1081.5,-286 1214.5,-286 1214.5,-327"/>
<text text-anchor="start" x="1089.5" y="-315" font-family="Helvetica,sans-Serif" font-size="10.00">firmware/wombat/src</text>
<text text-anchor="start" x="1089.5" y="-304" font-family="Helvetica,sans-Serif" font-size="10.00">/cli/device_config/config</text>
<text text-anchor="middle" x="1148" y="-293" font-family="Helvetica,sans-Serif" font-size="10.00">_cli.cpp</text>
</a>
</g>
</g>
<!-- Node2&#45;&gt;Node26 -->
<g id="edge36" class="edge">
<title>Node2&#45;&gt;Node26</title>
<path fill="none" stroke="#63b8ff" d="M883.41,-362.83C935.82,-353.33 1005.62,-340.19 1067,-327 1071.67,-326 1076.48,-324.93 1081.31,-323.83"/>
<polygon fill="#63b8ff" stroke="#63b8ff" points="882.72,-359.4 873.5,-364.62 883.97,-366.28 882.72,-359.4"/>
</g>
<!-- Node4 -->
<g id="node4" class="node">
<title>Node4</title>
<g id="a_node4"><a xlink:href="_c_l_i_8h.html" target="_top" xlink:title="FreeRTOS CLI handler.">
<polygon fill="white" stroke="#666666" points="521.5,-244.5 380.5,-244.5 380.5,-214.5 521.5,-214.5 521.5,-244.5"/>
<text text-anchor="start" x="388.5" y="-232.5" font-family="Helvetica,sans-Serif" font-size="10.00">firmware/wombat/include</text>
<text text-anchor="middle" x="451" y="-221.5" font-family="Helvetica,sans-Serif" font-size="10.00">/cli/CLI.h</text>
</a>
</g>
</g>
<!-- Node3&#45;&gt;Node4 -->
<g id="edge3" class="edge">
<title>Node3&#45;&gt;Node4</title>
<path fill="none" stroke="#63b8ff" d="M299.73,-287.8C334.61,-274.59 381.62,-256.78 413.92,-244.54"/>
<polygon fill="#63b8ff" stroke="#63b8ff" points="298.35,-284.58 290.24,-291.39 300.83,-291.12 298.35,-284.58"/>
</g>
<!-- Node3&#45;&gt;Node10 -->
<g id="edge16" class="edge">
<title>Node3&#45;&gt;Node10</title>
<path fill="none" stroke="#63b8ff" d="M227.32,-285.27C190.14,-255.99 121.77,-202.14 84.98,-173.18"/>
<polygon fill="#63b8ff" stroke="#63b8ff" points="225.17,-288.04 235.19,-291.47 229.5,-282.54 225.17,-288.04"/>
</g>
<!-- Node5 -->
<g id="node5" class="node">
<title>Node5</title>
<g id="a_node5"><a xlink:href="server_8h.html" target="_top" xlink:title="Handle the setup and maintenance of the BLE server and connected clients.">
<polygon fill="white" stroke="#666666" points="279.5,-167.5 138.5,-167.5 138.5,-137.5 279.5,-137.5 279.5,-167.5"/>
<text text-anchor="start" x="146.5" y="-155.5" font-family="Helvetica,sans-Serif" font-size="10.00">firmware/wombat/include</text>
<text text-anchor="middle" x="209" y="-144.5" font-family="Helvetica,sans-Serif" font-size="10.00">/bluetooth/server.h</text>
</a>
</g>
</g>
<!-- Node4&#45;&gt;Node5 -->
<g id="edge4" class="edge">
<title>Node4&#45;&gt;Node5</title>
<path fill="none" stroke="#63b8ff" d="M396.07,-211.48C353.28,-198.21 294.59,-180.02 254.42,-167.58"/>
<polygon fill="#63b8ff" stroke="#63b8ff" points="395.18,-214.86 405.77,-214.48 397.25,-208.18 395.18,-214.86"/>
</g>
<!-- Node9 -->
<g id="node9" class="node">
<title>Node9</title>
<g id="a_node9"><a xlink:href="_c_l_i_8cpp.html" target="_top" xlink:title="FreeRTOS CLI handler.">
<polygon fill="white" stroke="#666666" points="418,-167.5 298,-167.5 298,-137.5 418,-137.5 418,-167.5"/>
<text text-anchor="start" x="306" y="-155.5" font-family="Helvetica,sans-Serif" font-size="10.00">firmware/wombat/src</text>
<text text-anchor="middle" x="358" y="-144.5" font-family="Helvetica,sans-Serif" font-size="10.00">/cli/CLI.cpp</text>
</a>
</g>
</g>
<!-- Node4&#45;&gt;Node9 -->
<g id="edge9" class="edge">
<title>Node4&#45;&gt;Node9</title>
<path fill="none" stroke="#63b8ff" d="M425.61,-208.03C409.68,-195.18 389.55,-178.94 375.41,-167.54"/>
<polygon fill="#63b8ff" stroke="#63b8ff" points="423.53,-210.84 433.51,-214.39 427.92,-205.39 423.53,-210.84"/>
</g>
<!-- Node4&#45;&gt;Node10 -->
<g id="edge10" class="edge">
<title>Node4&#45;&gt;Node10</title>
<path fill="none" stroke="#63b8ff" d="M382.55,-212.33C376.96,-211.15 371.39,-210.03 366,-209 261.34,-189.07 233.13,-195.53 129,-173 126.08,-172.37 123.1,-171.68 120.1,-170.96"/>
<polygon fill="#63b8ff" stroke="#63b8ff" points="382.08,-215.81 392.59,-214.5 383.56,-208.97 382.08,-215.81"/>
</g>
<!-- Node11 -->
<g id="node11" class="node">
<title>Node11</title>
<g id="a_node11"><a xlink:href="sd__card_8cpp.html" target="_top" xlink:title=" ">
<polygon fill="white" stroke="#666666" points="712,-173 592,-173 592,-132 712,-132 712,-173"/>
<text text-anchor="start" x="600" y="-161" font-family="Helvetica,sans-Serif" font-size="10.00">firmware/wombat/src</text>
<text text-anchor="start" x="600" y="-150" font-family="Helvetica,sans-Serif" font-size="10.00">/cli/peripherals/sd</text>
<text text-anchor="middle" x="652" y="-139" font-family="Helvetica,sans-Serif" font-size="10.00">_card.cpp</text>
</a>
</g>
</g>
<!-- Node4&#45;&gt;Node11 -->
<g id="edge11" class="edge">
<title>Node4&#45;&gt;Node11</title>
<path fill="none" stroke="#63b8ff" d="M498.33,-210.84C528.73,-199.5 568.23,-184.76 599.57,-173.06"/>
<polygon fill="#63b8ff" stroke="#63b8ff" points="496.95,-207.62 488.81,-214.39 499.4,-214.18 496.95,-207.62"/>
</g>
<!-- Node12 -->
<g id="node12" class="node">
<title>Node12</title>
<g id="a_node12"><a xlink:href="sdi12_8cpp.html" target="_top" xlink:title="SDI&#45;12 command line interface handler.">
<polygon fill="white" stroke="#666666" points="574,-167.5 436,-167.5 436,-137.5 574,-137.5 574,-167.5"/>
<text text-anchor="start" x="444" y="-155.5" font-family="Helvetica,sans-Serif" font-size="10.00">firmware/wombat/src</text>
<text text-anchor="middle" x="505" y="-144.5" font-family="Helvetica,sans-Serif" font-size="10.00">/cli/peripherals/sdi12.cpp</text>
</a>
</g>
</g>
<!-- Node4&#45;&gt;Node12 -->
<g id="edge12" class="edge">
<title>Node4&#45;&gt;Node12</title>
<path fill="none" stroke="#63b8ff" d="M467.03,-206.24C476.06,-193.7 487.06,-178.42 494.89,-167.54"/>
<polygon fill="#63b8ff" stroke="#63b8ff" points="464.16,-204.23 461.16,-214.39 469.84,-208.32 464.16,-204.23"/>
</g>
<!-- Node4&#45;&gt;Node13 -->
<g id="edge13" class="edge">
<title>Node4&#45;&gt;Node13</title>
<path fill="none" stroke="#63b8ff" d="M521.43,-212.15C526.36,-211.07 531.25,-210.01 536,-209 617.94,-191.63 639.51,-192.41 721,-173 727.9,-171.36 735.15,-169.48 742.25,-167.55"/>
<polygon fill="#63b8ff" stroke="#63b8ff" points="520.31,-208.82 511.31,-214.4 521.83,-215.65 520.31,-208.82"/>
</g>
<!-- Node4&#45;&gt;Node14 -->
<g id="edge14" class="edge">
<title>Node4&#45;&gt;Node14</title>
<path fill="none" stroke="#63b8ff" d="M531.81,-217.89C555.97,-214.86 582.55,-211.66 607,-209 780.05,-190.2 825.86,-204.8 997,-173 1004.71,-171.57 1012.8,-169.66 1020.63,-167.6"/>
<polygon fill="#63b8ff" stroke="#63b8ff" points="531.09,-214.46 521.61,-219.18 531.97,-221.4 531.09,-214.46"/>
</g>
<!-- Node4&#45;&gt;Node15 -->
<g id="edge15" class="edge">
<title>Node4&#45;&gt;Node15</title>
<path fill="none" stroke="#63b8ff" d="M531.68,-215.34C545.78,-213.14 560.31,-210.95 574,-209 700.4,-191 733.89,-198.43 859,-173 866.44,-171.49 874.25,-169.59 881.84,-167.57"/>
<polygon fill="#63b8ff" stroke="#63b8ff" points="530.85,-211.92 521.51,-216.93 531.94,-218.84 530.85,-211.92"/>
</g>
<!-- Node6 -->
<g id="node6" class="node">
<title>Node6</title>
<g id="a_node6"><a xlink:href="uart_8h.html" target="_top" xlink:title="BluetoothLE UART service setup and handling.">
<polygon fill="white" stroke="#666666" points="279.5,-96 138.5,-96 138.5,-66 279.5,-66 279.5,-96"/>
<text text-anchor="start" x="146.5" y="-84" font-family="Helvetica,sans-Serif" font-size="10.00">firmware/wombat/include</text>
<text text-anchor="middle" x="209" y="-73" font-family="Helvetica,sans-Serif" font-size="10.00">/bluetooth/uart.h</text>
</a>
</g>
</g>
<!-- Node5&#45;&gt;Node6 -->
<g id="edge5" class="edge">
<title>Node5&#45;&gt;Node6</title>
<path fill="none" stroke="#63b8ff" d="M202.53,-127.25C201.96,-116.81 202.26,-104.99 203.45,-96.04"/>
<polygon fill="#63b8ff" stroke="#63b8ff" points="199.07,-127.79 203.45,-137.44 206.04,-127.16 199.07,-127.79"/>
</g>
<!-- Node8 -->
<g id="node8" class="node">
<title>Node8</title>
<g id="a_node8"><a xlink:href="server_8cpp.html" target="_top" xlink:title="Setup and start BluetoothLE server.">
<polygon fill="white" stroke="#666666" points="418,-96 298,-96 298,-66 418,-66 418,-96"/>
<text text-anchor="start" x="306" y="-84" font-family="Helvetica,sans-Serif" font-size="10.00">firmware/wombat/src</text>
<text text-anchor="middle" x="358" y="-73" font-family="Helvetica,sans-Serif" font-size="10.00">/bluetooth/server.cpp</text>
</a>
</g>
</g>
<!-- Node5&#45;&gt;Node8 -->
<g id="edge8" class="edge">
<title>Node5&#45;&gt;Node8</title>
<path fill="none" stroke="#63b8ff" d="M248.34,-133.15C273.25,-121.53 304.98,-106.73 327.89,-96.04"/>
<polygon fill="#63b8ff" stroke="#63b8ff" points="246.74,-130.04 239.15,-137.44 249.69,-136.38 246.74,-130.04"/>
</g>
<!-- Node6&#45;&gt;Node5 -->
<g id="edge6" class="edge">
<title>Node6&#45;&gt;Node5</title>
<path fill="none" stroke="#63b8ff" d="M215.47,-106.23C216.04,-116.66 215.74,-128.49 214.55,-137.44"/>
<polygon fill="#63b8ff" stroke="#63b8ff" points="218.93,-105.69 214.55,-96.04 211.96,-106.32 218.93,-105.69"/>
</g>
<!-- Node7 -->
<g id="node7" class="node">
<title>Node7</title>
<g id="a_node7"><a xlink:href="uart_8cpp.html" target="_top" xlink:title="BluetoothLE UART service setup and handling.">
<polygon fill="white" stroke="#666666" points="269,-30 149,-30 149,0 269,0 269,-30"/>
<text text-anchor="start" x="157" y="-18" font-family="Helvetica,sans-Serif" font-size="10.00">firmware/wombat/src</text>
<text text-anchor="middle" x="209" y="-7" font-family="Helvetica,sans-Serif" font-size="10.00">/bluetooth/uart.cpp</text>
</a>
</g>
</g>
<!-- Node6&#45;&gt;Node7 -->
<g id="edge7" class="edge">
<title>Node6&#45;&gt;Node7</title>
<path fill="none" stroke="#63b8ff" d="M209,-55.54C209,-46.96 209,-37.61 209,-30.16"/>
<polygon fill="#63b8ff" stroke="#63b8ff" points="205.5,-55.8 209,-65.8 212.5,-55.8 205.5,-55.8"/>
</g>
<!-- Node16&#45;&gt;Node4 -->
<g id="edge18" class="edge">
<title>Node16&#45;&gt;Node4</title>
<path fill="none" stroke="#63b8ff" d="M634.71,-288.39C592.65,-275.14 535.09,-257 495.67,-244.58"/>
<polygon fill="#63b8ff" stroke="#63b8ff" points="633.92,-291.81 644.51,-291.48 636.03,-285.14 633.92,-291.81"/>
</g>
<!-- Node17 -->
<g id="node17" class="node">
<title>Node17</title>
<g id="a_node17"><a xlink:href="cli__power_8cpp.html" target="_top" xlink:title="Power related commands.">
<polygon fill="white" stroke="#666666" points="736,-250 616,-250 616,-209 736,-209 736,-250"/>
<text text-anchor="start" x="624" y="-238" font-family="Helvetica,sans-Serif" font-size="10.00">firmware/wombat/src</text>
<text text-anchor="start" x="624" y="-227" font-family="Helvetica,sans-Serif" font-size="10.00">/cli/device_config/cli</text>
<text text-anchor="middle" x="676" y="-216" font-family="Helvetica,sans-Serif" font-size="10.00">_power.cpp</text>
</a>
</g>
</g>
<!-- Node16&#45;&gt;Node17 -->
<g id="edge19" class="edge">
<title>Node16&#45;&gt;Node17</title>
<path fill="none" stroke="#63b8ff" d="M684.79,-281.23C683.05,-271.2 681.06,-259.71 679.42,-250.2"/>
<polygon fill="#63b8ff" stroke="#63b8ff" points="681.4,-282.14 686.55,-291.39 688.3,-280.94 681.4,-282.14"/>
</g>
<!-- Node18&#45;&gt;Node10 -->
<g id="edge26" class="edge">
<title>Node18&#45;&gt;Node10</title>
<path fill="none" stroke="#63b8ff" d="M853.83,-288.09C828.77,-279.21 800.53,-266.69 778,-250 759.21,-236.07 765.79,-219.71 745,-209 623.1,-146.2 264.22,-195.78 129,-173 126.05,-172.5 123.05,-171.93 120.04,-171.3"/>
<polygon fill="#63b8ff" stroke="#63b8ff" points="853.03,-291.52 863.62,-291.44 855.29,-284.89 853.03,-291.52"/>
</g>
<!-- Node18&#45;&gt;Node11 -->
<g id="edge27" class="edge">
<title>Node18&#45;&gt;Node11</title>
<path fill="none" stroke="#63b8ff" d="M885.91,-285.52C870.32,-275.07 851.04,-262 834,-250 808.78,-232.24 804.72,-224.42 778,-209 754.3,-195.32 726.59,-182.77 703.2,-173.08"/>
<polygon fill="#63b8ff" stroke="#63b8ff" points="884.36,-288.69 894.61,-291.34 888.25,-282.87 884.36,-288.69"/>
</g>
<!-- Node18&#45;&gt;Node13 -->
<g id="edge28" class="edge">
<title>Node18&#45;&gt;Node13</title>
<path fill="none" stroke="#63b8ff" d="M897.91,-283.68C871.78,-252.15 824.15,-194.7 801.97,-167.94"/>
<polygon fill="#63b8ff" stroke="#63b8ff" points="895.3,-286.01 904.37,-291.47 900.68,-281.54 895.3,-286.01"/>
</g>
<!-- Node18&#45;&gt;Node14 -->
<g id="edge29" class="edge">
<title>Node18&#45;&gt;Node14</title>
<path fill="none" stroke="#63b8ff" d="M914.75,-281.17C914.95,-259.9 918.5,-229.31 935,-209 946.41,-194.96 987.66,-178.81 1020.86,-167.57"/>
<polygon fill="#63b8ff" stroke="#63b8ff" points="911.25,-281.4 914.91,-291.34 918.25,-281.29 911.25,-281.4"/>
</g>
<!-- Node18&#45;&gt;Node15 -->
<g id="edge30" class="edge">
<title>Node18&#45;&gt;Node15</title>
<path fill="none" stroke="#63b8ff" d="M907.76,-281.66C902.11,-262.02 896.54,-233.51 902,-209 905.28,-194.25 912.92,-178.79 919.08,-167.94"/>
<polygon fill="#63b8ff" stroke="#63b8ff" points="904.45,-282.8 910.75,-291.32 911.13,-280.73 904.45,-282.8"/>
</g>
<!-- Node18&#45;&gt;Node17 -->
<g id="edge25" class="edge">
<title>Node18&#45;&gt;Node17</title>
<path fill="none" stroke="#63b8ff" d="M861.43,-288.45C824.07,-276.77 774.52,-261.29 736.04,-249.26"/>
<polygon fill="#63b8ff" stroke="#63b8ff" points="860.55,-291.84 871.14,-291.48 862.64,-285.16 860.55,-291.84"/>
</g>
<!-- Node18&#45;&gt;Node19 -->
<g id="edge21" class="edge">
<title>Node18&#45;&gt;Node19</title>
<path fill="none" stroke="#63b8ff" d="M980.91,-289.41C987.67,-288.1 994.45,-286.92 1001,-286 1293.66,-244.81 1373.46,-298.48 1665,-250 1673.1,-248.65 1681.62,-246.7 1689.79,-244.55"/>
<polygon fill="#63b8ff" stroke="#63b8ff" points="980.17,-285.99 971.07,-291.42 981.57,-292.85 980.17,-285.99"/>
</g>
<!-- Node20 -->
<g id="node20" class="node">
<title>Node20</title>
<g id="a_node20"><a xlink:href="_sensor_task_8cpp.html" target="_top" xlink:title=" ">
<polygon fill="white" stroke="#666666" points="1064,-244.5 944,-244.5 944,-214.5 1064,-214.5 1064,-244.5"/>
<text text-anchor="start" x="952" y="-232.5" font-family="Helvetica,sans-Serif" font-size="10.00">firmware/wombat/src</text>
<text text-anchor="middle" x="1004" y="-221.5" font-family="Helvetica,sans-Serif" font-size="10.00">/SensorTask.cpp</text>
</a>
</g>
</g>
<!-- Node18&#45;&gt;Node20 -->
<g id="edge22" class="edge">
<title>Node18&#45;&gt;Node20</title>
<path fill="none" stroke="#63b8ff" d="M940.44,-284.67C955.45,-271.88 974.27,-255.84 987.52,-244.54"/>
<polygon fill="#63b8ff" stroke="#63b8ff" points="937.89,-282.24 932.55,-291.39 942.43,-287.57 937.89,-282.24"/>
</g>
<!-- Node18&#45;&gt;Node21 -->
<g id="edge23" class="edge">
<title>Node18&#45;&gt;Node21</title>
<path fill="none" stroke="#63b8ff" d="M996.84,-291.39C1010.86,-289.31 1025.33,-287.4 1039,-286 1377.16,-251.33 1467.48,-304.58 1803,-250 1811.23,-248.66 1819.88,-246.69 1828.17,-244.5"/>
<polygon fill="#63b8ff" stroke="#63b8ff" points="996.08,-287.96 986.72,-292.92 997.13,-294.88 996.08,-287.96"/>
</g>
<!-- Node22 -->
<g id="node22" class="node">
<title>Node22</title>
<g id="a_node22"><a xlink:href="acquisition__intervals_8cpp.html" target="_top" xlink:title="Handles the time between measurements and uplinks by the device over LTE.">
<polygon fill="white" stroke="#666666" points="1239.5,-250 1082.5,-250 1082.5,-209 1239.5,-209 1239.5,-250"/>
<text text-anchor="start" x="1090.5" y="-238" font-family="Helvetica,sans-Serif" font-size="10.00">firmware/wombat/src</text>
<text text-anchor="start" x="1090.5" y="-227" font-family="Helvetica,sans-Serif" font-size="10.00">/cli/device_config/acquisition</text>
<text text-anchor="middle" x="1161" y="-216" font-family="Helvetica,sans-Serif" font-size="10.00">_intervals.cpp</text>
</a>
</g>
</g>
<!-- Node18&#45;&gt;Node22 -->
<g id="edge24" class="edge">
<title>Node18&#45;&gt;Node22</title>
<path fill="none" stroke="#63b8ff" d="M971.49,-288.51C1008.77,-277.1 1058,-262.03 1096.95,-250.11"/>
<polygon fill="#63b8ff" stroke="#63b8ff" points="970.33,-285.21 961.8,-291.48 972.38,-291.9 970.33,-285.21"/>
</g>
<!-- Node23 -->
<g id="node23" class="node">
<title>Node23</title>
<g id="a_node23"><a xlink:href="ota__update_8cpp.html" target="_top" xlink:title=" ">
<polygon fill="white" stroke="#666666" points="1378,-244.5 1258,-244.5 1258,-214.5 1378,-214.5 1378,-244.5"/>
<text text-anchor="start" x="1266" y="-232.5" font-family="Helvetica,sans-Serif" font-size="10.00">firmware/wombat/src</text>
<text text-anchor="middle" x="1318" y="-221.5" font-family="Helvetica,sans-Serif" font-size="10.00">/ota_update.cpp</text>
</a>
</g>
</g>
<!-- Node18&#45;&gt;Node23 -->
<g id="edge31" class="edge">
<title>Node18&#45;&gt;Node23</title>
<path fill="none" stroke="#63b8ff" d="M984.44,-289.29C990.03,-288.12 995.61,-287.01 1001,-286 1110.48,-265.53 1140.06,-273.19 1249,-250 1256.31,-248.44 1263.98,-246.55 1271.44,-244.55"/>
<polygon fill="#63b8ff" stroke="#63b8ff" points="983.44,-285.93 974.4,-291.45 984.91,-292.77 983.44,-285.93"/>
</g>
<!-- Node24 -->
<g id="node24" class="node">
<title>Node24</title>
<g id="a_node24"><a xlink:href="interface_8cpp.html" target="_top" xlink:title=" ">
<polygon fill="white" stroke="#666666" points="1518,-244.5 1396,-244.5 1396,-214.5 1518,-214.5 1518,-244.5"/>
<text text-anchor="start" x="1404" y="-232.5" font-family="Helvetica,sans-Serif" font-size="10.00">firmware/wombat/src</text>
<text text-anchor="middle" x="1457" y="-221.5" font-family="Helvetica,sans-Serif" font-size="10.00">/sd&#45;card/interface.cpp</text>
</a>
</g>
</g>
<!-- Node18&#45;&gt;Node24 -->
<g id="edge32" class="edge">
<title>Node18&#45;&gt;Node24</title>
<path fill="none" stroke="#63b8ff" d="M982.33,-289.39C988.62,-288.14 994.92,-286.98 1001,-286 1171.12,-258.68 1217.56,-281.24 1387,-250 1394.82,-248.56 1403.02,-246.65 1410.96,-244.58"/>
<polygon fill="#63b8ff" stroke="#63b8ff" points="981.57,-285.98 972.49,-291.44 982.99,-292.83 981.57,-285.98"/>
</g>
<!-- Node25 -->
<g id="node25" class="node">
<title>Node25</title>
<g id="a_node25"><a xlink:href="uplinks_8cpp.html" target="_top" xlink:title=" ">
<polygon fill="white" stroke="#666666" points="1656,-244.5 1536,-244.5 1536,-214.5 1656,-214.5 1656,-244.5"/>
<text text-anchor="start" x="1544" y="-232.5" font-family="Helvetica,sans-Serif" font-size="10.00">firmware/wombat/src</text>
<text text-anchor="middle" x="1596" y="-221.5" font-family="Helvetica,sans-Serif" font-size="10.00">/uplinks.cpp</text>
</a>
</g>
</g>
<!-- Node18&#45;&gt;Node25 -->
<g id="edge33" class="edge">
<title>Node18&#45;&gt;Node25</title>
<path fill="none" stroke="#63b8ff" d="M981.7,-289.35C988.2,-288.08 994.71,-286.93 1001,-286 1232.8,-251.7 1296.13,-290.08 1527,-250 1534.97,-248.62 1543.34,-246.68 1551.4,-244.56"/>
<polygon fill="#63b8ff" stroke="#63b8ff" points="980.63,-286 971.54,-291.44 982.04,-292.86 980.63,-286"/>
</g>
</g>
</svg>
