<?xml version="1.0" encoding="UTF-8" standalone="no"?>
<!DOCTYPE svg PUBLIC "-//W3C//DTD SVG 1.1//EN"
 "http://www.w3.org/Graphics/SVG/1.1/DTD/svg11.dtd">
<!-- Generated by graphviz version 2.43.0 (0)
 -->
<!-- Title: firmware/wombat/lib/TCA9534/include/TCA9534.h Pages: 1 -->
<svg width="1003pt" height="445pt"
 viewBox="0.00 0.00 1002.55 445.00" xmlns="http://www.w3.org/2000/svg" xmlns:xlink="http://www.w3.org/1999/xlink">
<g id="graph0" class="graph" transform="scale(1 1) rotate(0) translate(4 441)">
<title>firmware/wombat/lib/TCA9534/include/TCA9534.h</title>
<!-- Node1 -->
<g id="node1" class="node">
<title>Node1</title>
<g id="a_node1"><a xlink:title=" ">
<polygon fill="#999999" stroke="#666666" points="983.5,-437 828.5,-437 828.5,-407 983.5,-407 983.5,-437"/>
<text text-anchor="start" x="836.5" y="-425" font-family="Helvetica,sans-Serif" font-size="10.00">firmware/wombat/lib</text>
<text text-anchor="middle" x="906" y="-414" font-family="Helvetica,sans-Serif" font-size="10.00">/TCA9534/include/TCA9534.h</text>
</a>
</g>
</g>
<!-- Node2 -->
<g id="node2" class="node">
<title>Node2</title>
<g id="a_node2"><a xlink:href="_c_a_t___m1_8h.html" target="_top" xlink:title=" ">
<polygon fill="white" stroke="#666666" points="563,-371 423,-371 423,-341 563,-341 563,-371"/>
<text text-anchor="start" x="431" y="-359" font-family="Helvetica,sans-Serif" font-size="10.00">firmware/wombat/lib</text>
<text text-anchor="middle" x="493" y="-348" font-family="Helvetica,sans-Serif" font-size="10.00">/CatM1/include/CAT_M1.h</text>
</a>
</g>
</g>
<!-- Node1&#45;&gt;Node2 -->
<g id="edge1" class="edge">
<title>Node1&#45;&gt;Node2</title>
<path fill="none" stroke="#63b8ff" d="M818.27,-407.41C742.19,-395.62 633.52,-378.77 563.11,-367.86"/>
<polygon fill="#63b8ff" stroke="#63b8ff" points="817.9,-410.89 828.32,-408.96 818.97,-403.97 817.9,-410.89"/>
</g>
<!-- Node12 -->
<g id="node12" class="node">
<title>Node12</title>
<g id="a_node12"><a xlink:href="main_8cpp.html" target="_top" xlink:title=" ">
<polygon fill="white" stroke="#666666" points="602,-162 482,-162 482,-132 602,-132 602,-162"/>
<text text-anchor="start" x="490" y="-150" font-family="Helvetica,sans-Serif" font-size="10.00">firmware/wombat/src</text>
<text text-anchor="middle" x="542" y="-139" font-family="Helvetica,sans-Serif" font-size="10.00">/main.cpp</text>
</a>
</g>
</g>
<!-- Node1&#45;&gt;Node12 -->
<g id="edge27" class="edge">
<title>Node1&#45;&gt;Node12</title>
<path fill="none" stroke="#63b8ff" d="M924.88,-399.06C960.07,-355.44 1027.56,-256.98 975,-198 950.61,-170.64 715.12,-156.05 602.03,-150.58"/>
<polygon fill="#63b8ff" stroke="#63b8ff" points="922.17,-396.84 918.52,-406.78 927.57,-401.29 922.17,-396.84"/>
</g>
<!-- Node16 -->
<g id="node16" class="node">
<title>Node16</title>
<g id="a_node16"><a xlink:href="_utils_8cpp.html" target="_top" xlink:title=" ">
<polygon fill="white" stroke="#666666" points="966,-233.5 846,-233.5 846,-203.5 966,-203.5 966,-233.5"/>
<text text-anchor="start" x="854" y="-221.5" font-family="Helvetica,sans-Serif" font-size="10.00">firmware/wombat/src</text>
<text text-anchor="middle" x="906" y="-210.5" font-family="Helvetica,sans-Serif" font-size="10.00">/Utils.cpp</text>
</a>
</g>
</g>
<!-- Node1&#45;&gt;Node16 -->
<g id="edge26" class="edge">
<title>Node1&#45;&gt;Node16</title>
<path fill="none" stroke="#63b8ff" d="M906,-396.81C906,-354.35 906,-267.67 906,-233.65"/>
<polygon fill="#63b8ff" stroke="#63b8ff" points="902.5,-396.83 906,-406.83 909.5,-396.83 902.5,-396.83"/>
</g>
<!-- Node3 -->
<g id="node3" class="node">
<title>Node3</title>
<g id="a_node3"><a xlink:href="cat-m1_8h.html" target="_top" xlink:title=" ">
<polygon fill="white" stroke="#666666" points="277.5,-305 136.5,-305 136.5,-275 277.5,-275 277.5,-305"/>
<text text-anchor="start" x="144.5" y="-293" font-family="Helvetica,sans-Serif" font-size="10.00">firmware/wombat/include</text>
<text text-anchor="middle" x="207" y="-282" font-family="Helvetica,sans-Serif" font-size="10.00">/cli/peripherals/cat&#45;m1.h</text>
</a>
</g>
</g>
<!-- Node2&#45;&gt;Node3 -->
<g id="edge2" class="edge">
<title>Node2&#45;&gt;Node3</title>
<path fill="none" stroke="#63b8ff" d="M420.22,-338.71C373.71,-328.31 314.01,-314.95 269.62,-305.01"/>
<polygon fill="#63b8ff" stroke="#63b8ff" points="419.71,-342.19 430.24,-340.95 421.24,-335.36 419.71,-342.19"/>
</g>
<!-- Node13 -->
<g id="node13" class="node">
<title>Node13</title>
<g id="a_node13"><a xlink:href="cat-m1_8cpp.html" target="_top" xlink:title=" ">
<polygon fill="white" stroke="#666666" points="376,-239 256,-239 256,-198 376,-198 376,-239"/>
<text text-anchor="start" x="264" y="-227" font-family="Helvetica,sans-Serif" font-size="10.00">firmware/wombat/src</text>
<text text-anchor="start" x="264" y="-216" font-family="Helvetica,sans-Serif" font-size="10.00">/cli/peripherals/cat</text>
<text text-anchor="middle" x="316" y="-205" font-family="Helvetica,sans-Serif" font-size="10.00">&#45;m1.cpp</text>
</a>
</g>
</g>
<!-- Node2&#45;&gt;Node13 -->
<g id="edge24" class="edge">
<title>Node2&#45;&gt;Node13</title>
<path fill="none" stroke="#63b8ff" d="M480.59,-331.9C470.27,-314.44 454.2,-290.85 435,-275 416.71,-259.91 393.65,-247.92 372.7,-239"/>
<polygon fill="#63b8ff" stroke="#63b8ff" points="477.72,-333.93 485.71,-340.88 483.8,-330.46 477.72,-333.93"/>
</g>
<!-- Node14 -->
<g id="node14" class="node">
<title>Node14</title>
<g id="a_node14"><a xlink:href="globals_8h.html" target="_top" xlink:title=" ">
<polygon fill="white" stroke="#666666" points="662.5,-305 521.5,-305 521.5,-275 662.5,-275 662.5,-305"/>
<text text-anchor="start" x="529.5" y="-293" font-family="Helvetica,sans-Serif" font-size="10.00">firmware/wombat/include</text>
<text text-anchor="middle" x="592" y="-282" font-family="Helvetica,sans-Serif" font-size="10.00">/globals.h</text>
</a>
</g>
</g>
<!-- Node2&#45;&gt;Node14 -->
<g id="edge15" class="edge">
<title>Node2&#45;&gt;Node14</title>
<path fill="none" stroke="#63b8ff" d="M523.47,-335.3C538.54,-325.56 556.39,-314.02 570.09,-305.16"/>
<polygon fill="#63b8ff" stroke="#63b8ff" points="521.47,-332.43 514.97,-340.8 525.27,-338.31 521.47,-332.43"/>
</g>
<!-- Node2&#45;&gt;Node16 -->
<g id="edge23" class="edge">
<title>Node2&#45;&gt;Node16</title>
<path fill="none" stroke="#63b8ff" d="M557.26,-338.35C591.51,-329.15 634.26,-317.15 672,-305 743.02,-282.14 824.58,-251.27 870.22,-233.56"/>
<polygon fill="#63b8ff" stroke="#63b8ff" points="556.13,-335.03 547.38,-340.99 557.94,-341.79 556.13,-335.03"/>
</g>
<!-- Node17 -->
<g id="node17" class="node">
<title>Node17</title>
<g id="a_node17"><a xlink:href="mqtt__stack_8cpp.html" target="_top" xlink:title=" ">
<polygon fill="white" stroke="#666666" points="514,-233.5 394,-233.5 394,-203.5 514,-203.5 514,-233.5"/>
<text text-anchor="start" x="402" y="-221.5" font-family="Helvetica,sans-Serif" font-size="10.00">firmware/wombat/src</text>
<text text-anchor="middle" x="454" y="-210.5" font-family="Helvetica,sans-Serif" font-size="10.00">/mqtt_stack.cpp</text>
</a>
</g>
</g>
<!-- Node2&#45;&gt;Node17 -->
<g id="edge25" class="edge">
<title>Node2&#45;&gt;Node17</title>
<path fill="none" stroke="#63b8ff" d="M486.05,-330.85C477.9,-302.54 464.67,-256.56 458.05,-233.55"/>
<polygon fill="#63b8ff" stroke="#63b8ff" points="482.77,-332.11 488.9,-340.76 489.5,-330.18 482.77,-332.11"/>
</g>
<!-- Node19 -->
<g id="node19" class="node">
<title>Node19</title>
<g id="a_node19"><a xlink:href="_c_a_t___m1_8cpp.html" target="_top" xlink:title=" ">
<polygon fill="white" stroke="#666666" points="426.5,-305 295.5,-305 295.5,-275 426.5,-275 426.5,-305"/>
<text text-anchor="start" x="303.5" y="-293" font-family="Helvetica,sans-Serif" font-size="10.00">firmware/wombat/lib</text>
<text text-anchor="middle" x="361" y="-282" font-family="Helvetica,sans-Serif" font-size="10.00">/CatM1/src/CAT_M1.cpp</text>
</a>
</g>
</g>
<!-- Node2&#45;&gt;Node19 -->
<g id="edge22" class="edge">
<title>Node2&#45;&gt;Node19</title>
<path fill="none" stroke="#63b8ff" d="M454.87,-336.51C434.16,-326.47 408.97,-314.26 389.9,-305.01"/>
<polygon fill="#63b8ff" stroke="#63b8ff" points="453.51,-339.74 464.03,-340.95 456.56,-333.44 453.51,-339.74"/>
</g>
<!-- Node4 -->
<g id="node4" class="node">
<title>Node4</title>
<g id="a_node4"><a xlink:href="_c_l_i_8h.html" target="_top" xlink:title=" ">
<polygon fill="white" stroke="#666666" points="237.5,-233.5 96.5,-233.5 96.5,-203.5 237.5,-203.5 237.5,-233.5"/>
<text text-anchor="start" x="104.5" y="-221.5" font-family="Helvetica,sans-Serif" font-size="10.00">firmware/wombat/include</text>
<text text-anchor="middle" x="167" y="-210.5" font-family="Helvetica,sans-Serif" font-size="10.00">/cli/CLI.h</text>
</a>
</g>
</g>
<!-- Node3&#45;&gt;Node4 -->
<g id="edge3" class="edge">
<title>Node3&#45;&gt;Node4</title>
<path fill="none" stroke="#63b8ff" d="M193.8,-266.06C187.61,-255.32 180.45,-242.86 175.08,-233.54"/>
<polygon fill="#63b8ff" stroke="#63b8ff" points="190.88,-268.01 198.91,-274.94 196.95,-264.52 190.88,-268.01"/>
</g>
<!-- Node3&#45;&gt;Node13 -->
<g id="edge14" class="edge">
<title>Node3&#45;&gt;Node13</title>
<path fill="none" stroke="#63b8ff" d="M237.88,-269.31C252.73,-259.84 270.48,-248.53 285.3,-239.07"/>
<polygon fill="#63b8ff" stroke="#63b8ff" points="235.61,-266.61 229.06,-274.94 239.37,-272.51 235.61,-266.61"/>
</g>
<!-- Node5 -->
<g id="node5" class="node">
<title>Node5</title>
<g id="a_node5"><a xlink:href="server_8h.html" target="_top" xlink:title=" ">
<polygon fill="white" stroke="#666666" points="386.5,-162 245.5,-162 245.5,-132 386.5,-132 386.5,-162"/>
<text text-anchor="start" x="253.5" y="-150" font-family="Helvetica,sans-Serif" font-size="10.00">firmware/wombat/include</text>
<text text-anchor="middle" x="316" y="-139" font-family="Helvetica,sans-Serif" font-size="10.00">/bluetooth/server.h</text>
</a>
</g>
</g>
<!-- Node4&#45;&gt;Node5 -->
<g id="edge4" class="edge">
<title>Node4&#45;&gt;Node5</title>
<path fill="none" stroke="#63b8ff" d="M206.34,-199.15C231.25,-187.53 262.98,-172.73 285.89,-162.04"/>
<polygon fill="#63b8ff" stroke="#63b8ff" points="204.74,-196.04 197.15,-203.44 207.69,-202.38 204.74,-196.04"/>
</g>
<!-- Node11 -->
<g id="node11" class="node">
<title>Node11</title>
<g id="a_node11"><a xlink:href="_c_l_i_8cpp.html" target="_top" xlink:title=" ">
<polygon fill="white" stroke="#666666" points="227,-162 107,-162 107,-132 227,-132 227,-162"/>
<text text-anchor="start" x="115" y="-150" font-family="Helvetica,sans-Serif" font-size="10.00">firmware/wombat/src</text>
<text text-anchor="middle" x="167" y="-139" font-family="Helvetica,sans-Serif" font-size="10.00">/cli/CLI.cpp</text>
</a>
</g>
</g>
<!-- Node4&#45;&gt;Node11 -->
<g id="edge12" class="edge">
<title>Node4&#45;&gt;Node11</title>
<path fill="none" stroke="#63b8ff" d="M167,-193.25C167,-182.81 167,-170.99 167,-162.04"/>
<polygon fill="#63b8ff" stroke="#63b8ff" points="163.5,-193.44 167,-203.44 170.5,-193.44 163.5,-193.44"/>
</g>
<!-- Node4&#45;&gt;Node12 -->
<g id="edge13" class="edge">
<title>Node4&#45;&gt;Node12</title>
<path fill="none" stroke="#63b8ff" d="M232.47,-201.14C237.38,-200.04 242.26,-198.98 247,-198 327.89,-181.31 422.1,-166.06 481.88,-156.91"/>
<polygon fill="#63b8ff" stroke="#63b8ff" points="231.36,-197.8 222.4,-203.45 232.93,-204.63 231.36,-197.8"/>
</g>
<!-- Node6 -->
<g id="node6" class="node">
<title>Node6</title>
<g id="a_node6"><a xlink:href="uart_8h.html" target="_top" xlink:title=" ">
<polygon fill="white" stroke="#666666" points="450.5,-96 309.5,-96 309.5,-66 450.5,-66 450.5,-96"/>
<text text-anchor="start" x="317.5" y="-84" font-family="Helvetica,sans-Serif" font-size="10.00">firmware/wombat/include</text>
<text text-anchor="middle" x="380" y="-73" font-family="Helvetica,sans-Serif" font-size="10.00">/bluetooth/uart.h</text>
</a>
</g>
</g>
<!-- Node5&#45;&gt;Node6 -->
<g id="edge5" class="edge">
<title>Node5&#45;&gt;Node6</title>
<path fill="none" stroke="#63b8ff" d="M331.21,-124.37C339.91,-115.06 350.77,-104.44 360.12,-96.16"/>
<polygon fill="#63b8ff" stroke="#63b8ff" points="328.6,-122.03 324.48,-131.8 333.79,-126.73 328.6,-122.03"/>
</g>
<!-- Node8 -->
<g id="node8" class="node">
<title>Node8</title>
<g id="a_node8"><a xlink:href="bluetooth_8h.html" target="_top" xlink:title=" ">
<polygon fill="white" stroke="#666666" points="152.5,-96 5.5,-96 5.5,-66 152.5,-66 152.5,-96"/>
<text text-anchor="start" x="13.5" y="-84" font-family="Helvetica,sans-Serif" font-size="10.00">firmware/wombat/include</text>
<text text-anchor="middle" x="79" y="-73" font-family="Helvetica,sans-Serif" font-size="10.00">/cli/peripherals/bluetooth.h</text>
</a>
</g>
</g>
<!-- Node5&#45;&gt;Node8 -->
<g id="edge8" class="edge">
<title>Node5&#45;&gt;Node8</title>
<path fill="none" stroke="#63b8ff" d="M253.99,-129.25C215.7,-118.91 167.14,-105.8 130.89,-96.01"/>
<polygon fill="#63b8ff" stroke="#63b8ff" points="253.42,-132.73 263.99,-131.95 255.25,-125.97 253.42,-132.73"/>
</g>
<!-- Node10 -->
<g id="node10" class="node">
<title>Node10</title>
<g id="a_node10"><a xlink:href="server_8cpp.html" target="_top" xlink:title=" ">
<polygon fill="white" stroke="#666666" points="291,-96 171,-96 171,-66 291,-66 291,-96"/>
<text text-anchor="start" x="179" y="-84" font-family="Helvetica,sans-Serif" font-size="10.00">firmware/wombat/src</text>
<text text-anchor="middle" x="231" y="-73" font-family="Helvetica,sans-Serif" font-size="10.00">/bluetooth/server.cpp</text>
</a>
</g>
</g>
<!-- Node5&#45;&gt;Node10 -->
<g id="edge11" class="edge">
<title>Node5&#45;&gt;Node10</title>
<path fill="none" stroke="#63b8ff" d="M289.11,-125.75C276.33,-116.13 261.36,-104.86 249.81,-96.16"/>
<polygon fill="#63b8ff" stroke="#63b8ff" points="287.04,-128.58 297.14,-131.8 291.25,-122.99 287.04,-128.58"/>
</g>
<!-- Node6&#45;&gt;Node5 -->
<g id="edge6" class="edge">
<title>Node6&#45;&gt;Node5</title>
<path fill="none" stroke="#63b8ff" d="M364.83,-103.59C356.14,-112.89 345.28,-123.51 335.92,-131.8"/>
<polygon fill="#63b8ff" stroke="#63b8ff" points="367.44,-105.93 371.55,-96.16 362.25,-101.23 367.44,-105.93"/>
</g>
<!-- Node7 -->
<g id="node7" class="node">
<title>Node7</title>
<g id="a_node7"><a xlink:href="uart_8cpp.html" target="_top" xlink:title=" ">
<polygon fill="white" stroke="#666666" points="440,-30 320,-30 320,0 440,0 440,-30"/>
<text text-anchor="start" x="328" y="-18" font-family="Helvetica,sans-Serif" font-size="10.00">firmware/wombat/src</text>
<text text-anchor="middle" x="380" y="-7" font-family="Helvetica,sans-Serif" font-size="10.00">/bluetooth/uart.cpp</text>
</a>
</g>
</g>
<!-- Node6&#45;&gt;Node7 -->
<g id="edge7" class="edge">
<title>Node6&#45;&gt;Node7</title>
<path fill="none" stroke="#63b8ff" d="M380,-55.54C380,-46.96 380,-37.61 380,-30.16"/>
<polygon fill="#63b8ff" stroke="#63b8ff" points="376.5,-55.8 380,-65.8 383.5,-55.8 376.5,-55.8"/>
</g>
<!-- Node8&#45;&gt;Node4 -->
<g id="edge9" class="edge">
<title>Node8&#45;&gt;Node4</title>
<path fill="none" stroke="#63b8ff" d="M80.62,-106.18C82.68,-122.94 87.37,-145.17 98,-162 108.92,-179.29 127.12,-193.59 142.08,-203.35"/>
<polygon fill="#63b8ff" stroke="#63b8ff" points="84.09,-105.67 79.6,-96.07 77.12,-106.37 84.09,-105.67"/>
</g>
<!-- Node9 -->
<g id="node9" class="node">
<title>Node9</title>
<g id="a_node9"><a xlink:href="bluetooth_8cpp.html" target="_top" xlink:title=" ">
<polygon fill="white" stroke="#666666" points="158,-30 0,-30 0,0 158,0 158,-30"/>
<text text-anchor="start" x="8" y="-18" font-family="Helvetica,sans-Serif" font-size="10.00">firmware/wombat/src</text>
<text text-anchor="middle" x="79" y="-7" font-family="Helvetica,sans-Serif" font-size="10.00">/cli/peripherals/bluetooth.cpp</text>
</a>
</g>
</g>
<!-- Node8&#45;&gt;Node9 -->
<g id="edge10" class="edge">
<title>Node8&#45;&gt;Node9</title>
<path fill="none" stroke="#63b8ff" d="M79,-55.54C79,-46.96 79,-37.61 79,-30.16"/>
<polygon fill="#63b8ff" stroke="#63b8ff" points="75.5,-55.8 79,-65.8 82.5,-55.8 75.5,-55.8"/>
</g>
<!-- Node14&#45;&gt;Node12 -->
<g id="edge19" class="edge">
<title>Node14&#45;&gt;Node12</title>
<path fill="none" stroke="#63b8ff" d="M575.7,-266.46C570.34,-258.16 564.79,-248.47 561,-239 550.57,-212.93 545.54,-180.26 543.39,-162"/>
<polygon fill="#63b8ff" stroke="#63b8ff" points="572.86,-268.51 581.35,-274.84 578.66,-264.59 572.86,-268.51"/>
</g>
<!-- Node14&#45;&gt;Node13 -->
<g id="edge18" class="edge">
<title>Node14&#45;&gt;Node13</title>
<path fill="none" stroke="#63b8ff" d="M521.22,-272.61C481.15,-263.16 430.17,-250.83 385,-239 382.11,-238.24 379.16,-237.46 376.17,-236.65"/>
<polygon fill="#63b8ff" stroke="#63b8ff" points="520.62,-276.07 531.16,-274.95 522.23,-269.26 520.62,-276.07"/>
</g>
<!-- Node15 -->
<g id="node15" class="node">
<title>Node15</title>
<g id="a_node15"><a xlink:href="_sensor_task_8cpp.html" target="_top" xlink:title=" ">
<polygon fill="white" stroke="#666666" points="828,-233.5 708,-233.5 708,-203.5 828,-203.5 828,-233.5"/>
<text text-anchor="start" x="716" y="-221.5" font-family="Helvetica,sans-Serif" font-size="10.00">firmware/wombat/src</text>
<text text-anchor="middle" x="768" y="-210.5" font-family="Helvetica,sans-Serif" font-size="10.00">/SensorTask.cpp</text>
</a>
</g>
</g>
<!-- Node14&#45;&gt;Node15 -->
<g id="edge16" class="edge">
<title>Node14&#45;&gt;Node15</title>
<path fill="none" stroke="#63b8ff" d="M637.3,-271.11C666.9,-259.42 705.02,-244.37 732.44,-233.54"/>
<polygon fill="#63b8ff" stroke="#63b8ff" points="635.63,-268.01 627.62,-274.94 638.2,-274.52 635.63,-268.01"/>
</g>
<!-- Node14&#45;&gt;Node16 -->
<g id="edge17" class="edge">
<title>Node14&#45;&gt;Node16</title>
<path fill="none" stroke="#63b8ff" d="M672.55,-274.12C720.51,-264.87 782.46,-252.25 837,-239 843.77,-237.35 850.89,-235.49 857.86,-233.59"/>
<polygon fill="#63b8ff" stroke="#63b8ff" points="671.7,-270.72 662.54,-276.04 673.02,-277.6 671.7,-270.72"/>
</g>
<!-- Node14&#45;&gt;Node17 -->
<g id="edge20" class="edge">
<title>Node14&#45;&gt;Node17</title>
<path fill="none" stroke="#63b8ff" d="M554.96,-270.34C531.97,-258.77 502.92,-244.14 481.88,-233.54"/>
<polygon fill="#63b8ff" stroke="#63b8ff" points="553.57,-273.56 564.07,-274.94 556.72,-267.31 553.57,-273.56"/>
</g>
<!-- Node18 -->
<g id="node18" class="node">
<title>Node18</title>
<g id="a_node18"><a xlink:href="uplinks_8cpp.html" target="_top" xlink:title=" ">
<polygon fill="white" stroke="#666666" points="690,-233.5 570,-233.5 570,-203.5 690,-203.5 690,-233.5"/>
<text text-anchor="start" x="578" y="-221.5" font-family="Helvetica,sans-Serif" font-size="10.00">firmware/wombat/src</text>
<text text-anchor="middle" x="630" y="-210.5" font-family="Helvetica,sans-Serif" font-size="10.00">/uplinks.cpp</text>
</a>
</g>
</g>
<!-- Node14&#45;&gt;Node18 -->
<g id="edge21" class="edge">
<title>Node14&#45;&gt;Node18</title>
<path fill="none" stroke="#63b8ff" d="M604.54,-266.06C610.42,-255.32 617.22,-242.86 622.32,-233.54"/>
<polygon fill="#63b8ff" stroke="#63b8ff" points="601.42,-264.48 599.69,-274.94 607.56,-267.84 601.42,-264.48"/>
</g>
</g>
</svg>
