<?xml version="1.0" encoding="UTF-8" standalone="no"?>
<!DOCTYPE svg PUBLIC "-//W3C//DTD SVG 1.1//EN"
 "http://www.w3.org/Graphics/SVG/1.1/DTD/svg11.dtd">
<!-- Generated by graphviz version 2.43.0 (0)
 -->
<!-- Title: firmware/wombat/lib/TCA9534/include/TCA9534.h Pages: 1 -->
<svg width="2320pt" height="478pt"
 viewBox="0.00 0.00 2319.67 478.00" xmlns="http://www.w3.org/2000/svg" xmlns:xlink="http://www.w3.org/1999/xlink">
<g id="graph0" class="graph" transform="scale(1 1) rotate(0) translate(4 474)">
<title>firmware/wombat/lib/TCA9534/include/TCA9534.h</title>
<!-- Node1 -->
<g id="node1" class="node">
<title>Node1</title>
<g id="a_node1"><a xlink:title=" ">
<polygon fill="#999999" stroke="#666666" points="1317.5,-470 1162.5,-470 1162.5,-440 1317.5,-440 1317.5,-470"/>
<text text-anchor="start" x="1170.5" y="-458" font-family="Helvetica,sans-Serif" font-size="10.00">firmware/wombat/lib</text>
<text text-anchor="middle" x="1240" y="-447" font-family="Helvetica,sans-Serif" font-size="10.00">/TCA9534/include/TCA9534.h</text>
</a>
</g>
</g>
<!-- Node2 -->
<g id="node2" class="node">
<title>Node2</title>
<g id="a_node2"><a xlink:href="_c_a_t___m1_8h.html" target="_top" xlink:title=" ">
<polygon fill="white" stroke="#666666" points="1310.5,-404 1169.5,-404 1169.5,-374 1310.5,-374 1310.5,-404"/>
<text text-anchor="start" x="1177.5" y="-392" font-family="Helvetica,sans-Serif" font-size="10.00">firmware/wombat/include</text>
<text text-anchor="middle" x="1240" y="-381" font-family="Helvetica,sans-Serif" font-size="10.00">/CAT_M1.h</text>
</a>
</g>
</g>
<!-- Node1&#45;&gt;Node2 -->
<g id="edge1" class="edge">
<title>Node1&#45;&gt;Node2</title>
<path fill="none" stroke="#63b8ff" d="M1240,-429.54C1240,-420.96 1240,-411.61 1240,-404.16"/>
<polygon fill="#63b8ff" stroke="#63b8ff" points="1236.5,-429.8 1240,-439.8 1243.5,-429.8 1236.5,-429.8"/>
</g>
<!-- Node9 -->
<g id="node9" class="node">
<title>Node9</title>
<g id="a_node9"><a xlink:href="main_8cpp.html" target="_top" xlink:title=" ">
<polygon fill="white" stroke="#666666" points="718,-35.5 598,-35.5 598,-5.5 718,-5.5 718,-35.5"/>
<text text-anchor="start" x="606" y="-23.5" font-family="Helvetica,sans-Serif" font-size="10.00">firmware/wombat/src</text>
<text text-anchor="middle" x="658" y="-12.5" font-family="Helvetica,sans-Serif" font-size="10.00">/main.cpp</text>
</a>
</g>
</g>
<!-- Node1&#45;&gt;Node9 -->
<g id="edge56" class="edge">
<title>Node1&#45;&gt;Node9</title>
<path fill="none" stroke="#63b8ff" d="M1152.22,-454.01C869.35,-452.88 0,-439.99 0,-324 0,-324 0,-324 0,-173.5 0,-125.2 9.91,-103.95 50,-77 94.81,-46.88 453.43,-29.55 597.96,-23.73"/>
<polygon fill="#63b8ff" stroke="#63b8ff" points="1152.42,-457.51 1162.43,-454.04 1152.45,-450.51 1152.42,-457.51"/>
</g>
<!-- Node23 -->
<g id="node23" class="node">
<title>Node23</title>
<g id="a_node23"><a xlink:href="_utils_8cpp.html" target="_top" xlink:title="Global utility functions.">
<polygon fill="white" stroke="#666666" points="1959,-189.5 1839,-189.5 1839,-159.5 1959,-159.5 1959,-189.5"/>
<text text-anchor="start" x="1847" y="-177.5" font-family="Helvetica,sans-Serif" font-size="10.00">firmware/wombat/src</text>
<text text-anchor="middle" x="1899" y="-166.5" font-family="Helvetica,sans-Serif" font-size="10.00">/Utils.cpp</text>
</a>
</g>
</g>
<!-- Node1&#45;&gt;Node23 -->
<g id="edge55" class="edge">
<title>Node1&#45;&gt;Node23</title>
<path fill="none" stroke="#63b8ff" d="M1327.7,-450.39C1538.57,-440.64 2068.39,-409.57 2229,-338 2269.56,-319.93 2285.71,-312.46 2304,-272 2311.51,-255.4 2316.18,-244.55 2304,-231 2253.81,-175.14 2041.73,-209.26 1968,-195 1960.42,-193.53 1952.47,-191.63 1944.76,-189.6"/>
<polygon fill="#63b8ff" stroke="#63b8ff" points="1327.43,-446.9 1317.6,-450.85 1327.75,-453.89 1327.43,-446.9"/>
</g>
<!-- Node3 -->
<g id="node3" class="node">
<title>Node3</title>
<g id="a_node3"><a xlink:href="cat-m1_8h.html" target="_top" xlink:title="CAT&#45;M1 CLI command request and response handler.">
<polygon fill="white" stroke="#666666" points="2118.5,-189.5 1977.5,-189.5 1977.5,-159.5 2118.5,-159.5 2118.5,-189.5"/>
<text text-anchor="start" x="1985.5" y="-177.5" font-family="Helvetica,sans-Serif" font-size="10.00">firmware/wombat/include</text>
<text text-anchor="middle" x="2048" y="-166.5" font-family="Helvetica,sans-Serif" font-size="10.00">/cli/peripherals/cat&#45;m1.h</text>
</a>
</g>
</g>
<!-- Node2&#45;&gt;Node3 -->
<g id="edge2" class="edge">
<title>Node2&#45;&gt;Node3</title>
<path fill="none" stroke="#63b8ff" d="M1321.06,-388.24C1422.25,-386.67 1599.82,-377.74 1746,-338 1813.55,-319.64 1827.2,-304.88 1889,-272 1939.6,-245.08 1996.47,-209.1 2026.59,-189.56"/>
<polygon fill="#63b8ff" stroke="#63b8ff" points="1320.86,-384.74 1310.9,-388.37 1320.95,-391.74 1320.86,-384.74"/>
</g>
<!-- Node6 -->
<g id="node6" class="node">
<title>Node6</title>
<g id="a_node6"><a xlink:href="cat-m1_8cpp.html" target="_top" xlink:title="CAT&#45;M1 CLI command request and response handler.">
<polygon fill="white" stroke="#666666" points="1090,-41 970,-41 970,0 1090,0 1090,-41"/>
<text text-anchor="start" x="978" y="-29" font-family="Helvetica,sans-Serif" font-size="10.00">firmware/wombat/src</text>
<text text-anchor="start" x="978" y="-18" font-family="Helvetica,sans-Serif" font-size="10.00">/cli/peripherals/cat</text>
<text text-anchor="middle" x="1030" y="-7" font-family="Helvetica,sans-Serif" font-size="10.00">&#45;m1.cpp</text>
</a>
</g>
</g>
<!-- Node2&#45;&gt;Node6 -->
<g id="edge54" class="edge">
<title>Node2&#45;&gt;Node6</title>
<path fill="none" stroke="#63b8ff" d="M1159.29,-387.24C956.11,-384.8 427.53,-374.97 256,-338 154.26,-316.07 38,-356.57 38,-252.5 38,-252.5 38,-252.5 38,-173.5 38,-30.9 204.05,-104.37 344,-77 404.54,-65.16 813.77,-36.31 969.76,-25.59"/>
<polygon fill="#63b8ff" stroke="#63b8ff" points="1159.26,-390.74 1169.3,-387.36 1159.34,-383.74 1159.26,-390.74"/>
</g>
<!-- Node11 -->
<g id="node11" class="node">
<title>Node11</title>
<g id="a_node11"><a xlink:href="cli__power_8h.html" target="_top" xlink:title=" ">
<polygon fill="white" stroke="#666666" points="2220,-338 2074,-338 2074,-308 2220,-308 2220,-338"/>
<text text-anchor="start" x="2082" y="-326" font-family="Helvetica,sans-Serif" font-size="10.00">firmware/wombat/include</text>
<text text-anchor="middle" x="2147" y="-315" font-family="Helvetica,sans-Serif" font-size="10.00">/cli/peripherals/cli_power.h</text>
</a>
</g>
</g>
<!-- Node2&#45;&gt;Node11 -->
<g id="edge11" class="edge">
<title>Node2&#45;&gt;Node11</title>
<path fill="none" stroke="#63b8ff" d="M1320.8,-383.57C1460.28,-375.73 1755.2,-358.32 2004,-338 2026.75,-336.14 2051.5,-333.82 2073.93,-331.61"/>
<polygon fill="#63b8ff" stroke="#63b8ff" points="1320.42,-380.09 1310.63,-384.14 1320.81,-387.08 1320.42,-380.09"/>
</g>
<!-- Node13 -->
<g id="node13" class="node">
<title>Node13</title>
<g id="a_node13"><a xlink:href="globals_8h.html" target="_top" xlink:title=" ">
<polygon fill="white" stroke="#666666" points="1310.5,-338 1169.5,-338 1169.5,-308 1310.5,-308 1310.5,-338"/>
<text text-anchor="start" x="1177.5" y="-326" font-family="Helvetica,sans-Serif" font-size="10.00">firmware/wombat/include</text>
<text text-anchor="middle" x="1240" y="-315" font-family="Helvetica,sans-Serif" font-size="10.00">/globals.h</text>
</a>
</g>
</g>
<!-- Node2&#45;&gt;Node13 -->
<g id="edge14" class="edge">
<title>Node2&#45;&gt;Node13</title>
<path fill="none" stroke="#63b8ff" d="M1240,-363.54C1240,-354.96 1240,-345.61 1240,-338.16"/>
<polygon fill="#63b8ff" stroke="#63b8ff" points="1236.5,-363.8 1240,-373.8 1243.5,-363.8 1236.5,-363.8"/>
</g>
<!-- Node17 -->
<g id="node17" class="node">
<title>Node17</title>
<g id="a_node17"><a xlink:href="config__cli_8cpp.html" target="_top" xlink:title="Command line interface node configuration commands.">
<polygon fill="white" stroke="#666666" points="543.5,-118 410.5,-118 410.5,-77 543.5,-77 543.5,-118"/>
<text text-anchor="start" x="418.5" y="-106" font-family="Helvetica,sans-Serif" font-size="10.00">firmware/wombat/src</text>
<text text-anchor="start" x="418.5" y="-95" font-family="Helvetica,sans-Serif" font-size="10.00">/cli/device_config/config</text>
<text text-anchor="middle" x="477" y="-84" font-family="Helvetica,sans-Serif" font-size="10.00">_cli.cpp</text>
</a>
</g>
</g>
<!-- Node2&#45;&gt;Node17 -->
<g id="edge53" class="edge">
<title>Node2&#45;&gt;Node17</title>
<path fill="none" stroke="#63b8ff" d="M1159.21,-387.25C969.73,-384.88 501.29,-375.32 349,-338 279.84,-321.05 260.59,-313.88 203,-272 153.68,-236.14 93.46,-200.43 133,-154 167.91,-113.01 320.58,-102.19 410.38,-99.4"/>
<polygon fill="#63b8ff" stroke="#63b8ff" points="1159.34,-390.75 1169.38,-387.37 1159.42,-383.75 1159.34,-390.75"/>
</g>
<!-- Node20 -->
<g id="node20" class="node">
<title>Node20</title>
<g id="a_node20"><a xlink:href="_c_a_t___m1_8cpp.html" target="_top" xlink:title=" ">
<polygon fill="white" stroke="#666666" points="262,-189.5 142,-189.5 142,-159.5 262,-159.5 262,-189.5"/>
<text text-anchor="start" x="150" y="-177.5" font-family="Helvetica,sans-Serif" font-size="10.00">firmware/wombat/src</text>
<text text-anchor="middle" x="202" y="-166.5" font-family="Helvetica,sans-Serif" font-size="10.00">/CAT_M1.cpp</text>
</a>
</g>
</g>
<!-- Node2&#45;&gt;Node20 -->
<g id="edge51" class="edge">
<title>Node2&#45;&gt;Node20</title>
<path fill="none" stroke="#63b8ff" d="M1159.11,-383.86C931.84,-371.51 299.42,-332.05 229,-272 204.78,-251.34 201.39,-210.91 201.43,-189.53"/>
<polygon fill="#63b8ff" stroke="#63b8ff" points="1159.13,-387.36 1169.3,-384.41 1159.51,-380.37 1159.13,-387.36"/>
</g>
<!-- Node2&#45;&gt;Node23 -->
<g id="edge52" class="edge">
<title>Node2&#45;&gt;Node23</title>
<path fill="none" stroke="#63b8ff" d="M1320.75,-382.53C1469.63,-370.92 1779.61,-339.19 1861,-272 1886.27,-251.14 1894.82,-211.16 1897.64,-189.8"/>
<polygon fill="#63b8ff" stroke="#63b8ff" points="1320.45,-379.04 1310.75,-383.29 1320.99,-386.02 1320.45,-379.04"/>
</g>
<!-- Node4 -->
<g id="node4" class="node">
<title>Node4</title>
<g id="a_node4"><a xlink:href="_c_l_i_8h.html" target="_top" xlink:title="FreeRTOS CLI handler.">
<polygon fill="white" stroke="#666666" points="1760.5,-112.5 1619.5,-112.5 1619.5,-82.5 1760.5,-82.5 1760.5,-112.5"/>
<text text-anchor="start" x="1627.5" y="-100.5" font-family="Helvetica,sans-Serif" font-size="10.00">firmware/wombat/include</text>
<text text-anchor="middle" x="1690" y="-89.5" font-family="Helvetica,sans-Serif" font-size="10.00">/cli/CLI.h</text>
</a>
</g>
</g>
<!-- Node3&#45;&gt;Node4 -->
<g id="edge3" class="edge">
<title>Node3&#45;&gt;Node4</title>
<path fill="none" stroke="#63b8ff" d="M1981.61,-157.09C1977.01,-156.02 1972.44,-154.98 1968,-154 1897.73,-138.43 1817.01,-122.53 1760.73,-111.77"/>
<polygon fill="#63b8ff" stroke="#63b8ff" points="1981.15,-160.58 1991.69,-159.46 1982.75,-153.76 1981.15,-160.58"/>
</g>
<!-- Node3&#45;&gt;Node6 -->
<g id="edge10" class="edge">
<title>Node3&#45;&gt;Node6</title>
<path fill="none" stroke="#63b8ff" d="M1984.74,-157.23C1979.1,-156.03 1973.46,-154.94 1968,-154 1810.38,-127 1768.47,-139.42 1610,-118 1502.33,-103.44 1476.17,-94.89 1369,-77 1271.35,-60.7 1157.8,-42.2 1090.03,-31.21"/>
<polygon fill="#63b8ff" stroke="#63b8ff" points="1984.34,-160.72 1994.85,-159.46 1985.84,-153.88 1984.34,-160.72"/>
</g>
<!-- Node5 -->
<g id="node5" class="node">
<title>Node5</title>
<g id="a_node5"><a xlink:href="_c_l_i_8cpp.html" target="_top" xlink:title="FreeRTOS CLI handler.">
<polygon fill="white" stroke="#666666" points="1755,-35.5 1635,-35.5 1635,-5.5 1755,-5.5 1755,-35.5"/>
<text text-anchor="start" x="1643" y="-23.5" font-family="Helvetica,sans-Serif" font-size="10.00">firmware/wombat/src</text>
<text text-anchor="middle" x="1695" y="-12.5" font-family="Helvetica,sans-Serif" font-size="10.00">/cli/CLI.cpp</text>
</a>
</g>
</g>
<!-- Node4&#45;&gt;Node5 -->
<g id="edge4" class="edge">
<title>Node4&#45;&gt;Node5</title>
<path fill="none" stroke="#63b8ff" d="M1691.61,-72.41C1692.42,-60.24 1693.37,-45.9 1694.06,-35.54"/>
<polygon fill="#63b8ff" stroke="#63b8ff" points="1688.11,-72.18 1690.94,-82.39 1695.1,-72.65 1688.11,-72.18"/>
</g>
<!-- Node4&#45;&gt;Node6 -->
<g id="edge5" class="edge">
<title>Node4&#45;&gt;Node6</title>
<path fill="none" stroke="#63b8ff" d="M1623.66,-80.42C1617.38,-79.15 1611.08,-77.99 1605,-77 1418.64,-46.76 1195.43,-30.98 1090.34,-24.75"/>
<polygon fill="#63b8ff" stroke="#63b8ff" points="1623,-83.85 1633.51,-82.47 1624.43,-77 1623,-83.85"/>
</g>
<!-- Node7 -->
<g id="node7" class="node">
<title>Node7</title>
<g id="a_node7"><a xlink:href="sd__card_8cpp.html" target="_top" xlink:title=" ">
<polygon fill="white" stroke="#666666" points="1893,-41 1773,-41 1773,0 1893,0 1893,-41"/>
<text text-anchor="start" x="1781" y="-29" font-family="Helvetica,sans-Serif" font-size="10.00">firmware/wombat/src</text>
<text text-anchor="start" x="1781" y="-18" font-family="Helvetica,sans-Serif" font-size="10.00">/cli/peripherals/sd</text>
<text text-anchor="middle" x="1833" y="-7" font-family="Helvetica,sans-Serif" font-size="10.00">_card.cpp</text>
</a>
</g>
</g>
<!-- Node4&#45;&gt;Node7 -->
<g id="edge6" class="edge">
<title>Node4&#45;&gt;Node7</title>
<path fill="none" stroke="#63b8ff" d="M1725.94,-77.65C1747.24,-66.48 1774.17,-52.35 1795.7,-41.06"/>
<polygon fill="#63b8ff" stroke="#63b8ff" points="1724.13,-74.65 1716.9,-82.39 1727.38,-80.85 1724.13,-74.65"/>
</g>
<!-- Node8 -->
<g id="node8" class="node">
<title>Node8</title>
<g id="a_node8"><a xlink:href="sdi12_8cpp.html" target="_top" xlink:title="SDI&#45;12 command line interface handler.">
<polygon fill="white" stroke="#666666" points="1617,-35.5 1479,-35.5 1479,-5.5 1617,-5.5 1617,-35.5"/>
<text text-anchor="start" x="1487" y="-23.5" font-family="Helvetica,sans-Serif" font-size="10.00">firmware/wombat/src</text>
<text text-anchor="middle" x="1548" y="-12.5" font-family="Helvetica,sans-Serif" font-size="10.00">/cli/peripherals/sdi12.cpp</text>
</a>
</g>
</g>
<!-- Node4&#45;&gt;Node8 -->
<g id="edge7" class="edge">
<title>Node4&#45;&gt;Node8</title>
<path fill="none" stroke="#63b8ff" d="M1654.22,-77.6C1629.46,-64.53 1597.07,-47.41 1574.59,-35.54"/>
<polygon fill="#63b8ff" stroke="#63b8ff" points="1652.81,-80.82 1663.29,-82.39 1656.08,-74.63 1652.81,-80.82"/>
</g>
<!-- Node4&#45;&gt;Node9 -->
<g id="edge8" class="edge">
<title>Node4&#45;&gt;Node9</title>
<path fill="none" stroke="#63b8ff" d="M1609.33,-90.64C1409.43,-76.11 894.56,-38.69 718.26,-25.88"/>
<polygon fill="#63b8ff" stroke="#63b8ff" points="1609.25,-94.14 1619.47,-91.37 1609.75,-87.16 1609.25,-94.14"/>
</g>
<!-- Node10 -->
<g id="node10" class="node">
<title>Node10</title>
<g id="a_node10"><a xlink:href="mqtt__stack_8cpp.html" target="_top" xlink:title=" ">
<polygon fill="white" stroke="#666666" points="1461,-35.5 1341,-35.5 1341,-5.5 1461,-5.5 1461,-35.5"/>
<text text-anchor="start" x="1349" y="-23.5" font-family="Helvetica,sans-Serif" font-size="10.00">firmware/wombat/src</text>
<text text-anchor="middle" x="1401" y="-12.5" font-family="Helvetica,sans-Serif" font-size="10.00">/mqtt_stack.cpp</text>
</a>
</g>
</g>
<!-- Node4&#45;&gt;Node10 -->
<g id="edge9" class="edge">
<title>Node4&#45;&gt;Node10</title>
<path fill="none" stroke="#63b8ff" d="M1622.53,-80C1578.93,-69.21 1521.01,-54.64 1470,-41 1463.51,-39.26 1456.68,-37.39 1449.95,-35.52"/>
<polygon fill="#63b8ff" stroke="#63b8ff" points="1621.9,-83.45 1632.45,-82.45 1623.58,-76.66 1621.9,-83.45"/>
</g>
<!-- Node11&#45;&gt;Node4 -->
<g id="edge12" class="edge">
<title>Node11&#45;&gt;Node4</title>
<path fill="none" stroke="#63b8ff" d="M2152.37,-297.61C2158.87,-260.97 2164.68,-191.98 2127,-154 2101.68,-128.48 1877.87,-110.51 1760.76,-102.77"/>
<polygon fill="#63b8ff" stroke="#63b8ff" points="2148.85,-297.39 2150.39,-307.87 2155.72,-298.72 2148.85,-297.39"/>
</g>
<!-- Node12 -->
<g id="node12" class="node">
<title>Node12</title>
<g id="a_node12"><a xlink:href="cli__power_8cpp.html" target="_top" xlink:title="Power related commands.">
<polygon fill="white" stroke="#666666" points="2295,-272 2175,-272 2175,-231 2295,-231 2295,-272"/>
<text text-anchor="start" x="2183" y="-260" font-family="Helvetica,sans-Serif" font-size="10.00">firmware/wombat/src</text>
<text text-anchor="start" x="2183" y="-249" font-family="Helvetica,sans-Serif" font-size="10.00">/cli/device_config/cli</text>
<text text-anchor="middle" x="2235" y="-238" font-family="Helvetica,sans-Serif" font-size="10.00">_power.cpp</text>
</a>
</g>
</g>
<!-- Node11&#45;&gt;Node12 -->
<g id="edge13" class="edge">
<title>Node11&#45;&gt;Node12</title>
<path fill="none" stroke="#63b8ff" d="M2172.95,-301.5C2184.73,-292.21 2198.59,-281.26 2210.22,-272.07"/>
<polygon fill="#63b8ff" stroke="#63b8ff" points="2170.49,-298.99 2164.81,-307.94 2174.83,-304.48 2170.49,-298.99"/>
</g>
<!-- Node13&#45;&gt;Node6 -->
<g id="edge43" class="edge">
<title>Node13&#45;&gt;Node6</title>
<path fill="none" stroke="#63b8ff" d="M1159.02,-321.69C957.32,-320.3 444.04,-312.76 379,-272 345.79,-251.19 345.87,-232.93 336,-195 320.92,-137.06 347.86,-104.59 401,-77 426.04,-64 817.6,-36.02 969.98,-25.55"/>
<polygon fill="#63b8ff" stroke="#63b8ff" points="1159.23,-325.19 1169.25,-321.76 1159.28,-318.19 1159.23,-325.19"/>
</g>
<!-- Node13&#45;&gt;Node7 -->
<g id="edge44" class="edge">
<title>Node13&#45;&gt;Node7</title>
<path fill="none" stroke="#63b8ff" d="M1320.82,-319.31C1429.97,-314.58 1617.89,-302.23 1679,-272 1773.26,-225.38 1815.54,-91.58 1828.46,-41.1"/>
<polygon fill="#63b8ff" stroke="#63b8ff" points="1320.35,-315.83 1310.51,-319.75 1320.65,-322.82 1320.35,-315.83"/>
</g>
<!-- Node13&#45;&gt;Node9 -->
<g id="edge46" class="edge">
<title>Node13&#45;&gt;Node9</title>
<path fill="none" stroke="#63b8ff" d="M1159.08,-320.86C934.59,-317.29 314.86,-304.59 229,-272 177.86,-252.59 156.66,-244.31 133,-195 125.12,-178.57 122.55,-168.93 133,-154 186.35,-77.74 471.23,-40.18 597.58,-27.08"/>
<polygon fill="#63b8ff" stroke="#63b8ff" points="1159.09,-324.36 1169.15,-321.02 1159.2,-317.36 1159.09,-324.36"/>
</g>
<!-- Node13&#45;&gt;Node10 -->
<g id="edge47" class="edge">
<title>Node13&#45;&gt;Node10</title>
<path fill="none" stroke="#63b8ff" d="M1320.95,-321.94C1399.7,-319.45 1521.53,-309.11 1620,-272 1677.56,-250.31 1706.03,-249.26 1735,-195 1743.58,-178.93 1745.96,-168.56 1735,-154 1700.23,-107.81 1664.18,-138.18 1610,-118 1542.96,-93.03 1467.49,-55.8 1428.15,-35.66"/>
<polygon fill="#63b8ff" stroke="#63b8ff" points="1320.51,-318.45 1310.61,-322.22 1320.71,-325.44 1320.51,-318.45"/>
</g>
<!-- Node14 -->
<g id="node14" class="node">
<title>Node14</title>
<g id="a_node14"><a xlink:href="_utils_8h.html" target="_top" xlink:title=" ">
<polygon fill="white" stroke="#666666" points="1100.5,-266.5 959.5,-266.5 959.5,-236.5 1100.5,-236.5 1100.5,-266.5"/>
<text text-anchor="start" x="967.5" y="-254.5" font-family="Helvetica,sans-Serif" font-size="10.00">firmware/wombat/include</text>
<text text-anchor="middle" x="1030" y="-243.5" font-family="Helvetica,sans-Serif" font-size="10.00">/Utils.h</text>
</a>
</g>
</g>
<!-- Node13&#45;&gt;Node14 -->
<g id="edge15" class="edge">
<title>Node13&#45;&gt;Node14</title>
<path fill="none" stroke="#63b8ff" d="M1187.78,-304.72C1152.21,-292.95 1105.72,-277.56 1072.43,-266.54"/>
<polygon fill="#63b8ff" stroke="#63b8ff" points="1186.91,-308.12 1197.5,-307.94 1189.11,-301.47 1186.91,-308.12"/>
</g>
<!-- Node13&#45;&gt;Node17 -->
<g id="edge42" class="edge">
<title>Node13&#45;&gt;Node17</title>
<path fill="none" stroke="#63b8ff" d="M1159.11,-321.34C1036.8,-319.07 797.95,-309.68 599,-272 483.93,-250.21 416.67,-289.14 347,-195 336.16,-180.35 336.96,-169.21 347,-154 361.33,-132.29 386.09,-119.05 410.17,-110.98"/>
<polygon fill="#63b8ff" stroke="#63b8ff" points="1159.09,-324.84 1169.15,-321.51 1159.21,-317.84 1159.09,-324.84"/>
</g>
<!-- Node19 -->
<g id="node19" class="node">
<title>Node19</title>
<g id="a_node19"><a xlink:href="ota__update_8cpp.html" target="_top" xlink:title=" ">
<polygon fill="white" stroke="#666666" points="1360,-112.5 1240,-112.5 1240,-82.5 1360,-82.5 1360,-112.5"/>
<text text-anchor="start" x="1248" y="-100.5" font-family="Helvetica,sans-Serif" font-size="10.00">firmware/wombat/src</text>
<text text-anchor="middle" x="1300" y="-89.5" font-family="Helvetica,sans-Serif" font-size="10.00">/ota_update.cpp</text>
</a>
</g>
</g>
<!-- Node13&#45;&gt;Node19 -->
<g id="edge48" class="edge">
<title>Node13&#45;&gt;Node19</title>
<path fill="none" stroke="#63b8ff" d="M1321.1,-312.55C1444.41,-296.28 1669.64,-258.49 1716,-195 1726.75,-180.28 1728,-167.71 1716,-154 1704.39,-140.74 1472.66,-115.82 1360.2,-104.44"/>
<polygon fill="#63b8ff" stroke="#63b8ff" points="1320.42,-309.11 1310.95,-313.87 1321.32,-316.05 1320.42,-309.11"/>
</g>
<!-- Node13&#45;&gt;Node20 -->
<g id="edge37" class="edge">
<title>Node13&#45;&gt;Node20</title>
<path fill="none" stroke="#63b8ff" d="M1159.4,-321.67C941.72,-320.23 353.15,-312.58 276,-272 241.62,-253.92 218.43,-211.98 208.11,-189.81"/>
<polygon fill="#63b8ff" stroke="#63b8ff" points="1159.46,-325.17 1169.48,-321.73 1159.5,-318.17 1159.46,-325.17"/>
</g>
<!-- Node21 -->
<g id="node21" class="node">
<title>Node21</title>
<g id="a_node21"><a xlink:href="_device_config_8cpp.html" target="_top" xlink:title=" ">
<polygon fill="white" stroke="#666666" points="476,-189.5 356,-189.5 356,-159.5 476,-159.5 476,-189.5"/>
<text text-anchor="start" x="364" y="-177.5" font-family="Helvetica,sans-Serif" font-size="10.00">firmware/wombat/src</text>
<text text-anchor="middle" x="416" y="-166.5" font-family="Helvetica,sans-Serif" font-size="10.00">/DeviceConfig.cpp</text>
</a>
</g>
</g>
<!-- Node13&#45;&gt;Node21 -->
<g id="edge38" class="edge">
<title>Node13&#45;&gt;Node21</title>
<path fill="none" stroke="#63b8ff" d="M1158.96,-317.85C1062.67,-311.94 897.52,-298.71 758,-272 634.18,-248.3 606.32,-229.25 485,-195 478.77,-193.24 472.22,-191.39 465.75,-189.56"/>
<polygon fill="#63b8ff" stroke="#63b8ff" points="1159.01,-321.36 1169.2,-318.46 1159.43,-314.37 1159.01,-321.36"/>
</g>
<!-- Node22 -->
<g id="node22" class="node">
<title>Node22</title>
<g id="a_node22"><a xlink:href="_sensor_task_8cpp.html" target="_top" xlink:title=" ">
<polygon fill="white" stroke="#666666" points="614,-189.5 494,-189.5 494,-159.5 614,-159.5 614,-189.5"/>
<text text-anchor="start" x="502" y="-177.5" font-family="Helvetica,sans-Serif" font-size="10.00">firmware/wombat/src</text>
<text text-anchor="middle" x="554" y="-166.5" font-family="Helvetica,sans-Serif" font-size="10.00">/SensorTask.cpp</text>
</a>
</g>
</g>
<!-- Node13&#45;&gt;Node22 -->
<g id="edge39" class="edge">
<title>Node13&#45;&gt;Node22</title>
<path fill="none" stroke="#63b8ff" d="M1159.57,-309.41C1101.24,-299.97 1020.53,-286.27 950,-272 801.96,-242.05 764.96,-233.83 619,-195 612.62,-193.3 605.93,-191.42 599.36,-189.5"/>
<polygon fill="#63b8ff" stroke="#63b8ff" points="1159.04,-312.87 1169.47,-311.01 1160.15,-305.96 1159.04,-312.87"/>
</g>
<!-- Node13&#45;&gt;Node23 -->
<g id="edge40" class="edge">
<title>Node13&#45;&gt;Node23</title>
<path fill="none" stroke="#63b8ff" d="M1320.86,-318.7C1471.06,-312.05 1781.85,-295.63 1825,-272 1859.07,-253.34 1882.39,-211.65 1892.82,-189.68"/>
<polygon fill="#63b8ff" stroke="#63b8ff" points="1320.6,-315.21 1310.77,-319.15 1320.91,-322.21 1320.6,-315.21"/>
</g>
<!-- Node24 -->
<g id="node24" class="node">
<title>Node24</title>
<g id="a_node24"><a xlink:href="acquisition__intervals_8cpp.html" target="_top" xlink:title="Handles the time between measurements and uplinks by the device over LTE.">
<polygon fill="white" stroke="#666666" points="1430.5,-195 1273.5,-195 1273.5,-154 1430.5,-154 1430.5,-195"/>
<text text-anchor="start" x="1281.5" y="-183" font-family="Helvetica,sans-Serif" font-size="10.00">firmware/wombat/src</text>
<text text-anchor="start" x="1281.5" y="-172" font-family="Helvetica,sans-Serif" font-size="10.00">/cli/device_config/acquisition</text>
<text text-anchor="middle" x="1352" y="-161" font-family="Helvetica,sans-Serif" font-size="10.00">_intervals.cpp</text>
</a>
</g>
</g>
<!-- Node13&#45;&gt;Node24 -->
<g id="edge41" class="edge">
<title>Node13&#45;&gt;Node24</title>
<path fill="none" stroke="#63b8ff" d="M1241.55,-297.69C1243.87,-278.05 1249.65,-250.56 1264,-231 1275.01,-216 1291.4,-204.09 1307.07,-195.2"/>
<polygon fill="#63b8ff" stroke="#63b8ff" points="1238.06,-297.4 1240.58,-307.69 1245.03,-298.07 1238.06,-297.4"/>
</g>
<!-- Node25 -->
<g id="node25" class="node">
<title>Node25</title>
<g id="a_node25"><a xlink:href="ftp__stack_8cpp.html" target="_top" xlink:title=" ">
<polygon fill="white" stroke="#666666" points="1569,-189.5 1449,-189.5 1449,-159.5 1569,-159.5 1569,-189.5"/>
<text text-anchor="start" x="1457" y="-177.5" font-family="Helvetica,sans-Serif" font-size="10.00">firmware/wombat/src</text>
<text text-anchor="middle" x="1509" y="-166.5" font-family="Helvetica,sans-Serif" font-size="10.00">/ftp_stack.cpp</text>
</a>
</g>
</g>
<!-- Node13&#45;&gt;Node25 -->
<g id="edge45" class="edge">
<title>Node13&#45;&gt;Node25</title>
<path fill="none" stroke="#63b8ff" d="M1249.96,-298.82C1260.08,-278 1277.73,-248.14 1302,-231 1353.43,-194.69 1378.23,-211.45 1439,-195 1445.45,-193.25 1452.24,-191.39 1458.93,-189.54"/>
<polygon fill="#63b8ff" stroke="#63b8ff" points="1246.76,-297.41 1245.72,-307.95 1253.1,-300.36 1246.76,-297.41"/>
</g>
<!-- Node26 -->
<g id="node26" class="node">
<title>Node26</title>
<g id="a_node26"><a xlink:href="uplinks_8cpp.html" target="_top" xlink:title=" ">
<polygon fill="white" stroke="#666666" points="1707,-189.5 1587,-189.5 1587,-159.5 1707,-159.5 1707,-189.5"/>
<text text-anchor="start" x="1595" y="-177.5" font-family="Helvetica,sans-Serif" font-size="10.00">firmware/wombat/src</text>
<text text-anchor="middle" x="1647" y="-166.5" font-family="Helvetica,sans-Serif" font-size="10.00">/uplinks.cpp</text>
</a>
</g>
</g>
<!-- Node13&#45;&gt;Node26 -->
<g id="edge50" class="edge">
<title>Node13&#45;&gt;Node26</title>
<path fill="none" stroke="#63b8ff" d="M1265.42,-301.28C1275.78,-292.52 1287.72,-282.05 1298,-272 1315.55,-254.84 1313.36,-242.59 1335,-231 1431.24,-179.44 1471.25,-217.89 1578,-195 1585.3,-193.43 1592.97,-191.53 1600.44,-189.53"/>
<polygon fill="#63b8ff" stroke="#63b8ff" points="1262.94,-298.79 1257.5,-307.89 1267.42,-304.16 1262.94,-298.79"/>
</g>
<!-- Node28 -->
<g id="node28" class="node">
<title>Node28</title>
<g id="a_node28"><a xlink:href="interface_8cpp.html" target="_top" xlink:title=" ">
<polygon fill="white" stroke="#666666" points="1466,-266.5 1344,-266.5 1344,-236.5 1466,-236.5 1466,-266.5"/>
<text text-anchor="start" x="1352" y="-254.5" font-family="Helvetica,sans-Serif" font-size="10.00">firmware/wombat/src</text>
<text text-anchor="middle" x="1405" y="-243.5" font-family="Helvetica,sans-Serif" font-size="10.00">/sd&#45;card/interface.cpp</text>
</a>
</g>
</g>
<!-- Node13&#45;&gt;Node28 -->
<g id="edge49" class="edge">
<title>Node13&#45;&gt;Node28</title>
<path fill="none" stroke="#63b8ff" d="M1282.83,-303.96C1310.53,-292.29 1346.06,-277.32 1371.66,-266.54"/>
<polygon fill="#63b8ff" stroke="#63b8ff" points="1281.25,-300.83 1273.39,-307.94 1283.96,-307.28 1281.25,-300.83"/>
</g>
<!-- Node14&#45;&gt;Node6 -->
<g id="edge31" class="edge">
<title>Node14&#45;&gt;Node6</title>
<path fill="none" stroke="#63b8ff" d="M1030,-225.98C1030,-180.28 1030,-82.93 1030,-41.18"/>
<polygon fill="#63b8ff" stroke="#63b8ff" points="1026.5,-226.17 1030,-236.18 1033.5,-226.18 1026.5,-226.17"/>
</g>
<!-- Node14&#45;&gt;Node9 -->
<g id="edge33" class="edge">
<title>Node14&#45;&gt;Node9</title>
<path fill="none" stroke="#63b8ff" d="M949.28,-239.74C917.76,-231.91 883.41,-218.38 859,-195 818.58,-156.28 854.92,-116.24 815,-77 789.02,-51.46 750.58,-37.62 718.24,-30.15"/>
<polygon fill="#63b8ff" stroke="#63b8ff" points="948.86,-243.24 959.4,-242.09 950.45,-236.42 948.86,-243.24"/>
</g>
<!-- Node14&#45;&gt;Node10 -->
<g id="edge34" class="edge">
<title>Node14&#45;&gt;Node10</title>
<path fill="none" stroke="#63b8ff" d="M1039.38,-227.19C1048.84,-206 1065.17,-174.92 1087,-154 1158.87,-85.12 1271.9,-49.55 1340.95,-33.25"/>
<polygon fill="#63b8ff" stroke="#63b8ff" points="1036.14,-225.87 1035.4,-236.44 1042.57,-228.64 1036.14,-225.87"/>
</g>
<!-- Node15 -->
<g id="node15" class="node">
<title>Node15</title>
<g id="a_node15"><a xlink:href="sdi12_8h.html" target="_top" xlink:title="SDI&#45;12 command line interface handler.">
<polygon fill="white" stroke="#666666" points="1237.5,-189.5 1096.5,-189.5 1096.5,-159.5 1237.5,-159.5 1237.5,-189.5"/>
<text text-anchor="start" x="1104.5" y="-177.5" font-family="Helvetica,sans-Serif" font-size="10.00">firmware/wombat/include</text>
<text text-anchor="middle" x="1167" y="-166.5" font-family="Helvetica,sans-Serif" font-size="10.00">/cli/peripherals/sdi12.h</text>
</a>
</g>
</g>
<!-- Node14&#45;&gt;Node15 -->
<g id="edge16" class="edge">
<title>Node14&#45;&gt;Node15</title>
<path fill="none" stroke="#63b8ff" d="M1064.84,-231.43C1088.68,-218.38 1119.76,-201.36 1141.35,-189.54"/>
<polygon fill="#63b8ff" stroke="#63b8ff" points="1062.86,-228.52 1055.77,-236.39 1066.22,-234.66 1062.86,-228.52"/>
</g>
<!-- Node16 -->
<g id="node16" class="node">
<title>Node16</title>
<g id="a_node16"><a xlink:href="ftp__stack_8h.html" target="_top" xlink:title=" ">
<polygon fill="white" stroke="#666666" points="811.5,-189.5 670.5,-189.5 670.5,-159.5 811.5,-159.5 811.5,-189.5"/>
<text text-anchor="start" x="678.5" y="-177.5" font-family="Helvetica,sans-Serif" font-size="10.00">firmware/wombat/include</text>
<text text-anchor="middle" x="741" y="-166.5" font-family="Helvetica,sans-Serif" font-size="10.00">/ftp_stack.h</text>
</a>
</g>
</g>
<!-- Node14&#45;&gt;Node16 -->
<g id="edge20" class="edge">
<title>Node14&#45;&gt;Node16</title>
<path fill="none" stroke="#63b8ff" d="M966.01,-233.89C914.78,-220.6 843.71,-202.16 795.24,-189.58"/>
<polygon fill="#63b8ff" stroke="#63b8ff" points="965.42,-237.36 975.98,-236.48 967.18,-230.58 965.42,-237.36"/>
</g>
<!-- Node14&#45;&gt;Node17 -->
<g id="edge30" class="edge">
<title>Node14&#45;&gt;Node17</title>
<path fill="none" stroke="#63b8ff" d="M949.22,-241.22C848.37,-229.2 685.99,-208.21 661,-195 639.04,-183.39 643.6,-167.89 623,-154 599.06,-137.85 569.77,-125.54 543.72,-116.66"/>
<polygon fill="#63b8ff" stroke="#63b8ff" points="949.05,-244.73 959.39,-242.43 949.87,-237.78 949.05,-244.73"/>
</g>
<!-- Node14&#45;&gt;Node20 -->
<g id="edge25" class="edge">
<title>Node14&#45;&gt;Node20</title>
<path fill="none" stroke="#63b8ff" d="M948.98,-245.3C820.94,-236.77 564.08,-218.4 347,-195 319.09,-191.99 288.26,-187.95 262.23,-184.32"/>
<polygon fill="#63b8ff" stroke="#63b8ff" points="948.88,-248.8 959.09,-245.97 949.34,-241.82 948.88,-248.8"/>
</g>
<!-- Node14&#45;&gt;Node21 -->
<g id="edge26" class="edge">
<title>Node14&#45;&gt;Node21</title>
<path fill="none" stroke="#63b8ff" d="M949.24,-246.67C842.29,-240.6 648.13,-226.11 485,-195 477.3,-193.53 469.21,-191.6 461.38,-189.53"/>
<polygon fill="#63b8ff" stroke="#63b8ff" points="949.14,-250.17 959.32,-247.23 949.53,-243.18 949.14,-250.17"/>
</g>
<!-- Node14&#45;&gt;Node22 -->
<g id="edge27" class="edge">
<title>Node14&#45;&gt;Node22</title>
<path fill="none" stroke="#63b8ff" d="M949.3,-242.25C867.79,-233.24 738.47,-217.1 628,-195 620.18,-193.44 611.97,-191.53 603.96,-189.54"/>
<polygon fill="#63b8ff" stroke="#63b8ff" points="949.17,-245.76 959.49,-243.37 949.93,-238.8 949.17,-245.76"/>
</g>
<!-- Node14&#45;&gt;Node23 -->
<g id="edge28" class="edge">
<title>Node14&#45;&gt;Node23</title>
<path fill="none" stroke="#63b8ff" d="M1110.8,-244.63C1239.12,-235.16 1497.37,-215.49 1716,-195 1757.04,-191.15 1803.18,-186.23 1838.87,-182.3"/>
<polygon fill="#63b8ff" stroke="#63b8ff" points="1110.38,-241.15 1100.66,-245.38 1110.89,-248.13 1110.38,-241.15"/>
</g>
<!-- Node14&#45;&gt;Node24 -->
<g id="edge29" class="edge">
<title>Node14&#45;&gt;Node24</title>
<path fill="none" stroke="#63b8ff" d="M1100.14,-234.16C1151.17,-222.28 1220.31,-206.17 1273.24,-193.84"/>
<polygon fill="#63b8ff" stroke="#63b8ff" points="1099.13,-230.8 1090.19,-236.48 1100.72,-237.62 1099.13,-230.8"/>
</g>
<!-- Node14&#45;&gt;Node25 -->
<g id="edge32" class="edge">
<title>Node14&#45;&gt;Node25</title>
<path fill="none" stroke="#63b8ff" d="M1110.81,-242.83C1193.71,-234.2 1326.15,-218.26 1439,-195 1446.54,-193.45 1454.46,-191.53 1462.15,-189.5"/>
<polygon fill="#63b8ff" stroke="#63b8ff" points="1110.28,-239.37 1100.7,-243.88 1111,-246.33 1110.28,-239.37"/>
</g>
<!-- Node14&#45;&gt;Node26 -->
<g id="edge35" class="edge">
<title>Node14&#45;&gt;Node26</title>
<path fill="none" stroke="#63b8ff" d="M1110.99,-244.05C1241.04,-233.39 1490.66,-211.63 1578,-195 1585.7,-193.53 1593.79,-191.61 1601.62,-189.54"/>
<polygon fill="#63b8ff" stroke="#63b8ff" points="1110.38,-240.58 1100.7,-244.89 1110.95,-247.56 1110.38,-240.58"/>
</g>
<!-- Node27 -->
<g id="node27" class="node">
<title>Node27</title>
<g id="a_node27"><a xlink:href="test___utils_8cpp.html" target="_top" xlink:title=" ">
<polygon fill="white" stroke="#666666" points="1002,-189.5 868,-189.5 868,-159.5 1002,-159.5 1002,-189.5"/>
<text text-anchor="start" x="876" y="-177.5" font-family="Helvetica,sans-Serif" font-size="10.00">firmware/wombat/test</text>
<text text-anchor="middle" x="935" y="-166.5" font-family="Helvetica,sans-Serif" font-size="10.00">/test_utils/test_Utils.cpp</text>
</a>
</g>
</g>
<!-- Node14&#45;&gt;Node27 -->
<g id="edge36" class="edge">
<title>Node14&#45;&gt;Node27</title>
<path fill="none" stroke="#63b8ff" d="M1004.07,-230.03C987.79,-217.18 967.23,-200.94 952.79,-189.54"/>
<polygon fill="#63b8ff" stroke="#63b8ff" points="1002.11,-232.94 1012.13,-236.39 1006.45,-227.45 1002.11,-232.94"/>
</g>
<!-- Node15&#45;&gt;Node4 -->
<g id="edge17" class="edge">
<title>Node15&#45;&gt;Node4</title>
<path fill="none" stroke="#63b8ff" d="M1243.33,-157.56C1250.31,-156.28 1257.28,-155.07 1264,-154 1397.92,-132.62 1432.67,-136.62 1567,-118 1584.03,-115.64 1602.34,-112.87 1619.5,-110.16"/>
<polygon fill="#63b8ff" stroke="#63b8ff" points="1242.32,-154.19 1233.14,-159.47 1243.61,-161.07 1242.32,-154.19"/>
</g>
<!-- Node15&#45;&gt;Node8 -->
<g id="edge19" class="edge">
<title>Node15&#45;&gt;Node8</title>
<path fill="none" stroke="#63b8ff" d="M1242.91,-156.96C1281.38,-147.51 1328.41,-134.27 1369,-118 1428.15,-94.29 1492.88,-56.04 1525.91,-35.54"/>
<polygon fill="#63b8ff" stroke="#63b8ff" points="1241.72,-153.65 1232.82,-159.41 1243.36,-160.45 1241.72,-153.65"/>
</g>
<!-- Node15&#45;&gt;Node15 -->
<g id="edge18" class="edge">
<title>Node15&#45;&gt;Node15</title>
<path fill="none" stroke="#63b8ff" d="M1247.7,-184.37C1252.57,-182.02 1255.5,-178.73 1255.5,-174.5 1255.5,-167.89 1248.37,-163.59 1237.83,-161.57"/>
<polygon fill="#63b8ff" stroke="#63b8ff" points="1246.34,-181.12 1237.83,-187.43 1248.41,-187.81 1246.34,-181.12"/>
</g>
<!-- Node16&#45;&gt;Node9 -->
<g id="edge23" class="edge">
<title>Node16&#45;&gt;Node9</title>
<path fill="none" stroke="#63b8ff" d="M709.84,-153.3C697.81,-143.96 685.03,-131.85 677,-118 661.76,-91.71 658.52,-55.32 657.97,-35.59"/>
<polygon fill="#63b8ff" stroke="#63b8ff" points="707.86,-156.19 717.98,-159.32 712.02,-150.56 707.86,-156.19"/>
</g>
<!-- Node16&#45;&gt;Node17 -->
<g id="edge21" class="edge">
<title>Node16&#45;&gt;Node17</title>
<path fill="none" stroke="#63b8ff" d="M681.8,-156.68C640.77,-145.02 586.08,-129.49 543.54,-117.4"/>
<polygon fill="#63b8ff" stroke="#63b8ff" points="681.08,-160.11 691.65,-159.48 682.99,-153.38 681.08,-160.11"/>
</g>
<!-- Node18 -->
<g id="node18" class="node">
<title>Node18</title>
<g id="a_node18"><a xlink:href="ftp__cli_8cpp.html" target="_top" xlink:title="FTP setup and configuration through the CLI.">
<polygon fill="white" stroke="#666666" points="806,-118 686,-118 686,-77 806,-77 806,-118"/>
<text text-anchor="start" x="694" y="-106" font-family="Helvetica,sans-Serif" font-size="10.00">firmware/wombat/src</text>
<text text-anchor="start" x="694" y="-95" font-family="Helvetica,sans-Serif" font-size="10.00">/cli/device_config/ftp</text>
<text text-anchor="middle" x="746" y="-84" font-family="Helvetica,sans-Serif" font-size="10.00">_cli.cpp</text>
</a>
</g>
</g>
<!-- Node16&#45;&gt;Node18 -->
<g id="edge22" class="edge">
<title>Node16&#45;&gt;Node18</title>
<path fill="none" stroke="#63b8ff" d="M742.62,-149.23C743.29,-139.2 744.05,-127.71 744.69,-118.2"/>
<polygon fill="#63b8ff" stroke="#63b8ff" points="739.11,-149.18 741.94,-159.39 746.1,-149.65 739.11,-149.18"/>
</g>
<!-- Node16&#45;&gt;Node19 -->
<g id="edge24" class="edge">
<title>Node16&#45;&gt;Node19</title>
<path fill="none" stroke="#63b8ff" d="M821.69,-159.74C834.17,-157.74 846.92,-155.76 859,-154 994.93,-134.22 1155.03,-115.12 1239.98,-105.31"/>
<polygon fill="#63b8ff" stroke="#63b8ff" points="821.06,-156.3 811.75,-161.35 822.18,-163.21 821.06,-156.3"/>
</g>
</g>
</svg>
