<?xml version="1.0" encoding="UTF-8" standalone="no"?>
<!DOCTYPE svg PUBLIC "-//W3C//DTD SVG 1.1//EN"
 "http://www.w3.org/Graphics/SVG/1.1/DTD/svg11.dtd">
<!-- Generated by graphviz version 2.43.0 (0)
 -->
<!-- Title: firmware/wombat/lib/TCA9534/include/TCA9534.h Pages: 1 -->
<svg width="1398pt" height="445pt"
 viewBox="0.00 0.00 1398.00 445.00" xmlns="http://www.w3.org/2000/svg" xmlns:xlink="http://www.w3.org/1999/xlink">
<g id="graph0" class="graph" transform="scale(1 1) rotate(0) translate(4 441)">
<title>firmware/wombat/lib/TCA9534/include/TCA9534.h</title>
<!-- Node1 -->
<g id="node1" class="node">
<title>Node1</title>
<g id="a_node1"><a xlink:title=" ">
<polygon fill="#999999" stroke="#666666" points="1390,-437 1235,-437 1235,-407 1390,-407 1390,-437"/>
<text text-anchor="start" x="1243" y="-425" font-family="Helvetica,sans-Serif" font-size="10.00">firmware/wombat/lib</text>
<text text-anchor="middle" x="1312.5" y="-414" font-family="Helvetica,sans-Serif" font-size="10.00">/TCA9534/include/TCA9534.h</text>
</a>
</g>
</g>
<!-- Node2 -->
<g id="node2" class="node">
<title>Node2</title>
<g id="a_node2"><a xlink:href="_c_a_t___m1_8h.html" target="_top" xlink:title=" ">
<polygon fill="white" stroke="#666666" points="586,-371 445,-371 445,-341 586,-341 586,-371"/>
<text text-anchor="start" x="453" y="-359" font-family="Helvetica,sans-Serif" font-size="10.00">firmware/wombat/include</text>
<text text-anchor="middle" x="515.5" y="-348" font-family="Helvetica,sans-Serif" font-size="10.00">/CAT_M1.h</text>
</a>
</g>
</g>
<!-- Node1&#45;&gt;Node2 -->
<g id="edge1" class="edge">
<title>Node1&#45;&gt;Node2</title>
<path fill="none" stroke="#63b8ff" d="M1224.76,-413.95C1065.55,-401.17 732.07,-374.39 586.27,-362.68"/>
<polygon fill="#63b8ff" stroke="#63b8ff" points="1224.74,-417.46 1234.99,-414.78 1225.31,-410.49 1224.74,-417.46"/>
</g>
<!-- Node10 -->
<g id="node10" class="node">
<title>Node10</title>
<g id="a_node10"><a xlink:href="main_8cpp.html" target="_top" xlink:title=" ">
<polygon fill="white" stroke="#666666" points="606.5,-162 486.5,-162 486.5,-132 606.5,-132 606.5,-162"/>
<text text-anchor="start" x="494.5" y="-150" font-family="Helvetica,sans-Serif" font-size="10.00">firmware/wombat/src</text>
<text text-anchor="middle" x="546.5" y="-139" font-family="Helvetica,sans-Serif" font-size="10.00">/main.cpp</text>
</a>
</g>
</g>
<!-- Node1&#45;&gt;Node10 -->
<g id="edge32" class="edge">
<title>Node1&#45;&gt;Node10</title>
<path fill="none" stroke="#63b8ff" d="M1319.25,-397.03C1330.55,-351.12 1347.14,-250.68 1293.5,-198 1244.93,-150.3 775.58,-147.19 606.68,-147.63"/>
<polygon fill="#63b8ff" stroke="#63b8ff" points="1315.8,-396.41 1316.67,-406.96 1322.57,-398.16 1315.8,-396.41"/>
</g>
<!-- Node18 -->
<g id="node18" class="node">
<title>Node18</title>
<g id="a_node18"><a xlink:href="_utils_8cpp.html" target="_top" xlink:title="Global utility functions.">
<polygon fill="white" stroke="#666666" points="1284.5,-233.5 1164.5,-233.5 1164.5,-203.5 1284.5,-203.5 1284.5,-233.5"/>
<text text-anchor="start" x="1172.5" y="-221.5" font-family="Helvetica,sans-Serif" font-size="10.00">firmware/wombat/src</text>
<text text-anchor="middle" x="1224.5" y="-210.5" font-family="Helvetica,sans-Serif" font-size="10.00">/Utils.cpp</text>
</a>
</g>
</g>
<!-- Node1&#45;&gt;Node18 -->
<g id="edge31" class="edge">
<title>Node1&#45;&gt;Node18</title>
<path fill="none" stroke="#63b8ff" d="M1302.29,-397.62C1283.87,-355.45 1245.63,-267.89 1230.68,-233.65"/>
<polygon fill="#63b8ff" stroke="#63b8ff" points="1299.1,-399.07 1306.31,-406.83 1305.52,-396.27 1299.1,-399.07"/>
</g>
<!-- Node3 -->
<g id="node3" class="node">
<title>Node3</title>
<g id="a_node3"><a xlink:href="cat-m1_8h.html" target="_top" xlink:title="CAT&#45;M1 CLI command request and response handler.">
<polygon fill="white" stroke="#666666" points="266,-305 125,-305 125,-275 266,-275 266,-305"/>
<text text-anchor="start" x="133" y="-293" font-family="Helvetica,sans-Serif" font-size="10.00">firmware/wombat/include</text>
<text text-anchor="middle" x="195.5" y="-282" font-family="Helvetica,sans-Serif" font-size="10.00">/cli/peripherals/cat&#45;m1.h</text>
</a>
</g>
</g>
<!-- Node2&#45;&gt;Node3 -->
<g id="edge2" class="edge">
<title>Node2&#45;&gt;Node3</title>
<path fill="none" stroke="#63b8ff" d="M435.38,-338.98C383.15,-328.53 315.65,-315.03 265.56,-305.01"/>
<polygon fill="#63b8ff" stroke="#63b8ff" points="434.78,-342.43 445.27,-340.95 436.16,-335.56 434.78,-342.43"/>
</g>
<!-- Node11 -->
<g id="node11" class="node">
<title>Node11</title>
<g id="a_node11"><a xlink:href="mqtt__stack_8cpp.html" target="_top" xlink:title=" ">
<polygon fill="white" stroke="#666666" points="417.5,-162 297.5,-162 297.5,-132 417.5,-132 417.5,-162"/>
<text text-anchor="start" x="305.5" y="-150" font-family="Helvetica,sans-Serif" font-size="10.00">firmware/wombat/src</text>
<text text-anchor="middle" x="357.5" y="-139" font-family="Helvetica,sans-Serif" font-size="10.00">/mqtt_stack.cpp</text>
</a>
</g>
</g>
<!-- Node2&#45;&gt;Node11 -->
<g id="edge30" class="edge">
<title>Node2&#45;&gt;Node11</title>
<path fill="none" stroke="#63b8ff" d="M434.63,-350.3C403.52,-344.05 370.84,-331.12 351.5,-305 319.52,-261.82 340.31,-192.12 351.59,-162.29"/>
<polygon fill="#63b8ff" stroke="#63b8ff" points="434.2,-353.78 444.66,-352.1 435.44,-346.89 434.2,-353.78"/>
</g>
<!-- Node12 -->
<g id="node12" class="node">
<title>Node12</title>
<g id="a_node12"><a xlink:href="cat-m1_8cpp.html" target="_top" xlink:title="CAT&#45;M1 CLI command request and response handler.">
<polygon fill="white" stroke="#666666" points="304.5,-239 184.5,-239 184.5,-198 304.5,-198 304.5,-239"/>
<text text-anchor="start" x="192.5" y="-227" font-family="Helvetica,sans-Serif" font-size="10.00">firmware/wombat/src</text>
<text text-anchor="start" x="192.5" y="-216" font-family="Helvetica,sans-Serif" font-size="10.00">/cli/peripherals/cat</text>
<text text-anchor="middle" x="244.5" y="-205" font-family="Helvetica,sans-Serif" font-size="10.00">&#45;m1.cpp</text>
</a>
</g>
</g>
<!-- Node2&#45;&gt;Node12 -->
<g id="edge29" class="edge">
<title>Node2&#45;&gt;Node12</title>
<path fill="none" stroke="#63b8ff" d="M435,-345.89C397.48,-338.9 353.51,-326.61 318.5,-305 291.6,-288.4 269.27,-258.86 256.4,-239.23"/>
<polygon fill="#63b8ff" stroke="#63b8ff" points="434.44,-349.34 444.9,-347.64 435.66,-342.45 434.44,-349.34"/>
</g>
<!-- Node13 -->
<g id="node13" class="node">
<title>Node13</title>
<g id="a_node13"><a xlink:href="cli__power_8h.html" target="_top" xlink:title=" ">
<polygon fill="white" stroke="#666666" points="506.5,-305 360.5,-305 360.5,-275 506.5,-275 506.5,-305"/>
<text text-anchor="start" x="368.5" y="-293" font-family="Helvetica,sans-Serif" font-size="10.00">firmware/wombat/include</text>
<text text-anchor="middle" x="433.5" y="-282" font-family="Helvetica,sans-Serif" font-size="10.00">/cli/peripherals/cli_power.h</text>
</a>
</g>
</g>
<!-- Node2&#45;&gt;Node13 -->
<g id="edge14" class="edge">
<title>Node2&#45;&gt;Node13</title>
<path fill="none" stroke="#63b8ff" d="M489.21,-334.48C476.95,-324.91 462.68,-313.77 451.65,-305.16"/>
<polygon fill="#63b8ff" stroke="#63b8ff" points="487.26,-337.4 497.3,-340.8 491.57,-331.88 487.26,-337.4"/>
</g>
<!-- Node15 -->
<g id="node15" class="node">
<title>Node15</title>
<g id="a_node15"><a xlink:href="globals_8h.html" target="_top" xlink:title=" ">
<polygon fill="white" stroke="#666666" points="686,-305 545,-305 545,-275 686,-275 686,-305"/>
<text text-anchor="start" x="553" y="-293" font-family="Helvetica,sans-Serif" font-size="10.00">firmware/wombat/include</text>
<text text-anchor="middle" x="615.5" y="-282" font-family="Helvetica,sans-Serif" font-size="10.00">/globals.h</text>
</a>
</g>
</g>
<!-- Node2&#45;&gt;Node15 -->
<g id="edge17" class="edge">
<title>Node2&#45;&gt;Node15</title>
<path fill="none" stroke="#63b8ff" d="M546.28,-335.3C561.5,-325.56 579.53,-314.02 593.37,-305.16"/>
<polygon fill="#63b8ff" stroke="#63b8ff" points="544.23,-332.46 537.69,-340.8 548,-338.35 544.23,-332.46"/>
</g>
<!-- Node16 -->
<g id="node16" class="node">
<title>Node16</title>
<g id="a_node16"><a xlink:href="_c_a_t___m1_8cpp.html" target="_top" xlink:title=" ">
<polygon fill="white" stroke="#666666" points="1146.5,-233.5 1026.5,-233.5 1026.5,-203.5 1146.5,-203.5 1146.5,-233.5"/>
<text text-anchor="start" x="1034.5" y="-221.5" font-family="Helvetica,sans-Serif" font-size="10.00">firmware/wombat/src</text>
<text text-anchor="middle" x="1086.5" y="-210.5" font-family="Helvetica,sans-Serif" font-size="10.00">/CAT_M1.cpp</text>
</a>
</g>
</g>
<!-- Node2&#45;&gt;Node16 -->
<g id="edge27" class="edge">
<title>Node2&#45;&gt;Node16</title>
<path fill="none" stroke="#63b8ff" d="M590.58,-338.84C688.96,-317.39 866.72,-277.7 1017.5,-239 1024.13,-237.3 1031.1,-235.43 1037.95,-233.54"/>
<polygon fill="#63b8ff" stroke="#63b8ff" points="589.75,-335.44 580.73,-340.98 591.24,-342.28 589.75,-335.44"/>
</g>
<!-- Node2&#45;&gt;Node18 -->
<g id="edge28" class="edge">
<title>Node2&#45;&gt;Node18</title>
<path fill="none" stroke="#63b8ff" d="M596.11,-343.32C718.04,-325.01 956.28,-286.63 1155.5,-239 1162.4,-237.35 1169.65,-235.47 1176.75,-233.54"/>
<polygon fill="#63b8ff" stroke="#63b8ff" points="595.48,-339.88 586.11,-344.82 596.52,-346.8 595.48,-339.88"/>
</g>
<!-- Node4 -->
<g id="node4" class="node">
<title>Node4</title>
<g id="a_node4"><a xlink:href="_c_l_i_8h.html" target="_top" xlink:title="FreeRTOS CLI handler.">
<polygon fill="white" stroke="#666666" points="166,-233.5 25,-233.5 25,-203.5 166,-203.5 166,-233.5"/>
<text text-anchor="start" x="33" y="-221.5" font-family="Helvetica,sans-Serif" font-size="10.00">firmware/wombat/include</text>
<text text-anchor="middle" x="95.5" y="-210.5" font-family="Helvetica,sans-Serif" font-size="10.00">/cli/CLI.h</text>
</a>
</g>
</g>
<!-- Node3&#45;&gt;Node4 -->
<g id="edge3" class="edge">
<title>Node3&#45;&gt;Node4</title>
<path fill="none" stroke="#63b8ff" d="M166.64,-268.94C150.33,-257.6 130.34,-243.71 115.71,-233.54"/>
<polygon fill="#63b8ff" stroke="#63b8ff" points="165.05,-272.1 175.26,-274.94 169.05,-266.35 165.05,-272.1"/>
</g>
<!-- Node3&#45;&gt;Node12 -->
<g id="edge13" class="edge">
<title>Node3&#45;&gt;Node12</title>
<path fill="none" stroke="#63b8ff" d="M211.3,-266.59C217.55,-257.73 224.66,-247.63 230.7,-239.07"/>
<polygon fill="#63b8ff" stroke="#63b8ff" points="208.32,-264.75 205.42,-274.94 214.04,-268.78 208.32,-264.75"/>
</g>
<!-- Node5 -->
<g id="node5" class="node">
<title>Node5</title>
<g id="a_node5"><a xlink:href="server_8h.html" target="_top" xlink:title="Handle the setup and maintenance of the BLE server and connected clients.">
<polygon fill="white" stroke="#666666" points="141,-162 0,-162 0,-132 141,-132 141,-162"/>
<text text-anchor="start" x="8" y="-150" font-family="Helvetica,sans-Serif" font-size="10.00">firmware/wombat/include</text>
<text text-anchor="middle" x="70.5" y="-139" font-family="Helvetica,sans-Serif" font-size="10.00">/bluetooth/server.h</text>
</a>
</g>
</g>
<!-- Node4&#45;&gt;Node5 -->
<g id="edge4" class="edge">
<title>Node4&#45;&gt;Node5</title>
<path fill="none" stroke="#63b8ff" d="M80.72,-194.23C76.23,-183.56 72.1,-171.27 70.01,-162.04"/>
<polygon fill="#63b8ff" stroke="#63b8ff" points="77.57,-195.77 84.89,-203.44 83.95,-192.88 77.57,-195.77"/>
</g>
<!-- Node9 -->
<g id="node9" class="node">
<title>Node9</title>
<g id="a_node9"><a xlink:href="_c_l_i_8cpp.html" target="_top" xlink:title="FreeRTOS CLI handler.">
<polygon fill="white" stroke="#666666" points="279.5,-162 159.5,-162 159.5,-132 279.5,-132 279.5,-162"/>
<text text-anchor="start" x="167.5" y="-150" font-family="Helvetica,sans-Serif" font-size="10.00">firmware/wombat/src</text>
<text text-anchor="middle" x="219.5" y="-139" font-family="Helvetica,sans-Serif" font-size="10.00">/cli/CLI.cpp</text>
</a>
</g>
</g>
<!-- Node4&#45;&gt;Node9 -->
<g id="edge10" class="edge">
<title>Node4&#45;&gt;Node9</title>
<path fill="none" stroke="#63b8ff" d="M129.34,-198.53C149.9,-187.01 175.71,-172.54 194.44,-162.04"/>
<polygon fill="#63b8ff" stroke="#63b8ff" points="127.61,-195.49 120.59,-203.44 131.03,-201.6 127.61,-195.49"/>
</g>
<!-- Node4&#45;&gt;Node10 -->
<g id="edge11" class="edge">
<title>Node4&#45;&gt;Node10</title>
<path fill="none" stroke="#63b8ff" d="M160.01,-201.16C165.24,-200.02 170.45,-198.95 175.5,-198 233.7,-187.02 397.06,-166.33 486.36,-155.32"/>
<polygon fill="#63b8ff" stroke="#63b8ff" points="158.98,-197.8 149.99,-203.41 160.51,-204.63 158.98,-197.8"/>
</g>
<!-- Node4&#45;&gt;Node11 -->
<g id="edge12" class="edge">
<title>Node4&#45;&gt;Node11</title>
<path fill="none" stroke="#63b8ff" d="M158.39,-200.82C203.04,-188.97 262.32,-173.25 304.56,-162.04"/>
<polygon fill="#63b8ff" stroke="#63b8ff" points="157.29,-197.49 148.52,-203.44 159.08,-204.25 157.29,-197.49"/>
</g>
<!-- Node5&#45;&gt;Node4 -->
<g id="edge8" class="edge">
<title>Node5&#45;&gt;Node4</title>
<path fill="none" stroke="#63b8ff" d="M85.27,-171.24C89.76,-181.91 93.9,-194.2 95.99,-203.44"/>
<polygon fill="#63b8ff" stroke="#63b8ff" points="88.42,-169.7 81.1,-162.04 82.04,-172.6 88.42,-169.7"/>
</g>
<!-- Node6 -->
<g id="node6" class="node">
<title>Node6</title>
<g id="a_node6"><a xlink:href="uart_8h.html" target="_top" xlink:title="BluetoothLE UART service setup and handling.">
<polygon fill="white" stroke="#666666" points="141,-96 0,-96 0,-66 141,-66 141,-96"/>
<text text-anchor="start" x="8" y="-84" font-family="Helvetica,sans-Serif" font-size="10.00">firmware/wombat/include</text>
<text text-anchor="middle" x="70.5" y="-73" font-family="Helvetica,sans-Serif" font-size="10.00">/bluetooth/uart.h</text>
</a>
</g>
</g>
<!-- Node5&#45;&gt;Node6 -->
<g id="edge5" class="edge">
<title>Node5&#45;&gt;Node6</title>
<path fill="none" stroke="#63b8ff" d="M63.93,-121.83C63.52,-113.17 63.81,-103.7 64.79,-96.16"/>
<polygon fill="#63b8ff" stroke="#63b8ff" points="60.45,-122.13 64.78,-131.8 67.42,-121.54 60.45,-122.13"/>
</g>
<!-- Node8 -->
<g id="node8" class="node">
<title>Node8</title>
<g id="a_node8"><a xlink:href="server_8cpp.html" target="_top" xlink:title="Setup and start BluetoothLE server.">
<polygon fill="white" stroke="#666666" points="279.5,-96 159.5,-96 159.5,-66 279.5,-66 279.5,-96"/>
<text text-anchor="start" x="167.5" y="-84" font-family="Helvetica,sans-Serif" font-size="10.00">firmware/wombat/src</text>
<text text-anchor="middle" x="219.5" y="-73" font-family="Helvetica,sans-Serif" font-size="10.00">/bluetooth/server.cpp</text>
</a>
</g>
</g>
<!-- Node5&#45;&gt;Node8 -->
<g id="edge9" class="edge">
<title>Node5&#45;&gt;Node8</title>
<path fill="none" stroke="#63b8ff" d="M112.59,-127.92C136.14,-117.8 165.06,-105.38 186.88,-96.01"/>
<polygon fill="#63b8ff" stroke="#63b8ff" points="111.01,-124.79 103.2,-131.95 113.77,-131.22 111.01,-124.79"/>
</g>
<!-- Node6&#45;&gt;Node5 -->
<g id="edge6" class="edge">
<title>Node6&#45;&gt;Node5</title>
<path fill="none" stroke="#63b8ff" d="M77.07,-106.13C77.48,-114.78 77.2,-124.26 76.22,-131.8"/>
<polygon fill="#63b8ff" stroke="#63b8ff" points="80.55,-105.83 76.21,-96.16 73.58,-106.43 80.55,-105.83"/>
</g>
<!-- Node7 -->
<g id="node7" class="node">
<title>Node7</title>
<g id="a_node7"><a xlink:href="uart_8cpp.html" target="_top" xlink:title="BluetoothLE UART service setup and handling.">
<polygon fill="white" stroke="#666666" points="130.5,-30 10.5,-30 10.5,0 130.5,0 130.5,-30"/>
<text text-anchor="start" x="18.5" y="-18" font-family="Helvetica,sans-Serif" font-size="10.00">firmware/wombat/src</text>
<text text-anchor="middle" x="70.5" y="-7" font-family="Helvetica,sans-Serif" font-size="10.00">/bluetooth/uart.cpp</text>
</a>
</g>
</g>
<!-- Node6&#45;&gt;Node7 -->
<g id="edge7" class="edge">
<title>Node6&#45;&gt;Node7</title>
<path fill="none" stroke="#63b8ff" d="M70.5,-55.54C70.5,-46.96 70.5,-37.61 70.5,-30.16"/>
<polygon fill="#63b8ff" stroke="#63b8ff" points="67,-55.8 70.5,-65.8 74,-55.8 67,-55.8"/>
</g>
<!-- Node13&#45;&gt;Node4 -->
<g id="edge15" class="edge">
<title>Node13&#45;&gt;Node4</title>
<path fill="none" stroke="#63b8ff" d="M350.54,-273.96C299.86,-264.52 233.79,-251.75 175.5,-239 167.82,-237.32 159.75,-235.46 151.8,-233.58"/>
<polygon fill="#63b8ff" stroke="#63b8ff" points="350,-277.42 360.47,-275.81 351.28,-270.54 350,-277.42"/>
</g>
<!-- Node14 -->
<g id="node14" class="node">
<title>Node14</title>
<g id="a_node14"><a xlink:href="cli__power_8cpp.html" target="_top" xlink:title="Power related commands.">
<polygon fill="white" stroke="#666666" points="480.5,-239 360.5,-239 360.5,-198 480.5,-198 480.5,-239"/>
<text text-anchor="start" x="368.5" y="-227" font-family="Helvetica,sans-Serif" font-size="10.00">firmware/wombat/src</text>
<text text-anchor="start" x="368.5" y="-216" font-family="Helvetica,sans-Serif" font-size="10.00">/cli/device_config/cli</text>
<text text-anchor="middle" x="420.5" y="-205" font-family="Helvetica,sans-Serif" font-size="10.00">_power.cpp</text>
</a>
</g>
</g>
<!-- Node13&#45;&gt;Node14 -->
<g id="edge16" class="edge">
<title>Node13&#45;&gt;Node14</title>
<path fill="none" stroke="#63b8ff" d="M428.99,-264.91C427.42,-256.47 425.66,-247.1 424.16,-239.07"/>
<polygon fill="#63b8ff" stroke="#63b8ff" points="425.59,-265.75 430.87,-274.94 432.47,-264.46 425.59,-265.75"/>
</g>
<!-- Node15&#45;&gt;Node10 -->
<g id="edge24" class="edge">
<title>Node15&#45;&gt;Node10</title>
<path fill="none" stroke="#63b8ff" d="M589.07,-268.09C580.34,-259.9 571.37,-249.86 565.5,-239 552.07,-214.15 548.12,-180.75 546.97,-162.1"/>
<polygon fill="#63b8ff" stroke="#63b8ff" points="586.8,-270.76 596.6,-274.79 591.46,-265.53 586.8,-270.76"/>
</g>
<!-- Node15&#45;&gt;Node11 -->
<g id="edge25" class="edge">
<title>Node15&#45;&gt;Node11</title>
<path fill="none" stroke="#63b8ff" d="M588.59,-268.98C554.77,-243.92 499.88,-203.59 489.5,-198 462.1,-183.25 429.4,-170.83 403.4,-162.06"/>
<polygon fill="#63b8ff" stroke="#63b8ff" points="586.57,-271.85 596.69,-275 590.74,-266.23 586.57,-271.85"/>
</g>
<!-- Node15&#45;&gt;Node12 -->
<g id="edge23" class="edge">
<title>Node15&#45;&gt;Node12</title>
<path fill="none" stroke="#63b8ff" d="M534.85,-273.89C465.61,-260.92 367.36,-242.51 304.77,-230.79"/>
<polygon fill="#63b8ff" stroke="#63b8ff" points="534.37,-277.36 544.84,-275.76 535.66,-270.48 534.37,-277.36"/>
</g>
<!-- Node15&#45;&gt;Node14 -->
<g id="edge22" class="edge">
<title>Node15&#45;&gt;Node14</title>
<path fill="none" stroke="#63b8ff" d="M566.55,-271.55C538.82,-261.67 504.07,-249.28 475.42,-239.07"/>
<polygon fill="#63b8ff" stroke="#63b8ff" points="565.44,-274.88 576.04,-274.94 567.79,-268.28 565.44,-274.88"/>
</g>
<!-- Node15&#45;&gt;Node16 -->
<g id="edge18" class="edge">
<title>Node15&#45;&gt;Node16</title>
<path fill="none" stroke="#63b8ff" d="M696.3,-282.58C777.89,-275.25 907.27,-261.3 1017.5,-239 1024.94,-237.49 1032.76,-235.6 1040.34,-233.59"/>
<polygon fill="#63b8ff" stroke="#63b8ff" points="695.75,-279.11 686.1,-283.48 696.37,-286.09 695.75,-279.11"/>
</g>
<!-- Node17 -->
<g id="node17" class="node">
<title>Node17</title>
<g id="a_node17"><a xlink:href="_sensor_task_8cpp.html" target="_top" xlink:title=" ">
<polygon fill="white" stroke="#666666" points="694.5,-233.5 574.5,-233.5 574.5,-203.5 694.5,-203.5 694.5,-233.5"/>
<text text-anchor="start" x="582.5" y="-221.5" font-family="Helvetica,sans-Serif" font-size="10.00">firmware/wombat/src</text>
<text text-anchor="middle" x="634.5" y="-210.5" font-family="Helvetica,sans-Serif" font-size="10.00">/SensorTask.cpp</text>
</a>
</g>
</g>
<!-- Node15&#45;&gt;Node17 -->
<g id="edge19" class="edge">
<title>Node15&#45;&gt;Node17</title>
<path fill="none" stroke="#63b8ff" d="M622.04,-265.08C624.91,-254.56 628.19,-242.58 630.66,-233.54"/>
<polygon fill="#63b8ff" stroke="#63b8ff" points="618.61,-264.37 619.34,-274.94 625.36,-266.21 618.61,-264.37"/>
</g>
<!-- Node15&#45;&gt;Node18 -->
<g id="edge20" class="edge">
<title>Node15&#45;&gt;Node18</title>
<path fill="none" stroke="#63b8ff" d="M696.4,-286.13C802.56,-281.31 994.32,-268.98 1155.5,-239 1163.21,-237.57 1171.3,-235.66 1179.13,-233.59"/>
<polygon fill="#63b8ff" stroke="#63b8ff" points="696.23,-282.63 686.4,-286.57 696.54,-289.62 696.23,-282.63"/>
</g>
<!-- Node19 -->
<g id="node19" class="node">
<title>Node19</title>
<g id="a_node19"><a xlink:href="acquisition__intervals_8cpp.html" target="_top" xlink:title="Handles the time between measurements and uplinks by the device over LTE.">
<polygon fill="white" stroke="#666666" points="870,-239 713,-239 713,-198 870,-198 870,-239"/>
<text text-anchor="start" x="721" y="-227" font-family="Helvetica,sans-Serif" font-size="10.00">firmware/wombat/src</text>
<text text-anchor="start" x="721" y="-216" font-family="Helvetica,sans-Serif" font-size="10.00">/cli/device_config/acquisition</text>
<text text-anchor="middle" x="791.5" y="-205" font-family="Helvetica,sans-Serif" font-size="10.00">_intervals.cpp</text>
</a>
</g>
</g>
<!-- Node15&#45;&gt;Node19 -->
<g id="edge21" class="edge">
<title>Node15&#45;&gt;Node19</title>
<path fill="none" stroke="#63b8ff" d="M660.67,-271.16C685.53,-261.35 716.41,-249.15 741.93,-239.07"/>
<polygon fill="#63b8ff" stroke="#63b8ff" points="659.13,-268.01 651.12,-274.94 661.7,-274.52 659.13,-268.01"/>
</g>
<!-- Node20 -->
<g id="node20" class="node">
<title>Node20</title>
<g id="a_node20"><a xlink:href="uplinks_8cpp.html" target="_top" xlink:title=" ">
<polygon fill="white" stroke="#666666" points="1008.5,-233.5 888.5,-233.5 888.5,-203.5 1008.5,-203.5 1008.5,-233.5"/>
<text text-anchor="start" x="896.5" y="-221.5" font-family="Helvetica,sans-Serif" font-size="10.00">firmware/wombat/src</text>
<text text-anchor="middle" x="948.5" y="-210.5" font-family="Helvetica,sans-Serif" font-size="10.00">/uplinks.cpp</text>
</a>
</g>
</g>
<!-- Node15&#45;&gt;Node20 -->
<g id="edge26" class="edge">
<title>Node15&#45;&gt;Node20</title>
<path fill="none" stroke="#63b8ff" d="M696.09,-275.64C748.58,-266.47 818.39,-253.39 879.5,-239 886.41,-237.37 893.66,-235.5 900.76,-233.58"/>
<polygon fill="#63b8ff" stroke="#63b8ff" points="695.42,-272.2 686.17,-277.36 696.62,-279.1 695.42,-272.2"/>
</g>
</g>
</svg>
