<?xml version="1.0" encoding="UTF-8" standalone="no"?>
<!DOCTYPE svg PUBLIC "-//W3C//DTD SVG 1.1//EN"
 "http://www.w3.org/Graphics/SVG/1.1/DTD/svg11.dtd">
<!-- Generated by graphviz version 2.43.0 (0)
 -->
<!-- Title: firmware/wombat/lib/TCA9534/include/TCA9534.h Pages: 1 -->
<svg width="2162pt" height="324pt"
 viewBox="0.00 0.00 2162.00 324.00" xmlns="http://www.w3.org/2000/svg" xmlns:xlink="http://www.w3.org/1999/xlink">
<g id="graph0" class="graph" transform="scale(1 1) rotate(0) translate(4 320)">
<title>firmware/wombat/lib/TCA9534/include/TCA9534.h</title>
<!-- Node1 -->
<g id="node1" class="node">
<title>Node1</title>
<g id="a_node1"><a xlink:title=" ">
<polygon fill="#999999" stroke="#666666" points="2154,-316 1999,-316 1999,-286 2154,-286 2154,-316"/>
<text text-anchor="start" x="2007" y="-304" font-family="Helvetica,sans-Serif" font-size="10.00">firmware/wombat/lib</text>
<text text-anchor="middle" x="2076.5" y="-293" font-family="Helvetica,sans-Serif" font-size="10.00">/TCA9534/include/TCA9534.h</text>
</a>
</g>
</g>
<!-- Node2 -->
<g id="node2" class="node">
<title>Node2</title>
<g id="a_node2"><a xlink:href="_c_a_t___m1_8h.html" target="_top" xlink:title=" ">
<polygon fill="white" stroke="#666666" points="990,-250 849,-250 849,-220 990,-220 990,-250"/>
<text text-anchor="start" x="857" y="-238" font-family="Helvetica,sans-Serif" font-size="10.00">firmware/wombat/include</text>
<text text-anchor="middle" x="919.5" y="-227" font-family="Helvetica,sans-Serif" font-size="10.00">/CAT_M1.h</text>
</a>
</g>
</g>
<!-- Node1&#45;&gt;Node2 -->
<g id="edge1" class="edge">
<title>Node1&#45;&gt;Node2</title>
<path fill="none" stroke="#63b8ff" d="M1988.53,-295.13C1767.36,-282.9 1191.45,-251.04 990.18,-239.91"/>
<polygon fill="#63b8ff" stroke="#63b8ff" points="1988.61,-298.64 1998.79,-295.7 1989,-291.65 1988.61,-298.64"/>
</g>
<!-- Node9 -->
<g id="node9" class="node">
<title>Node9</title>
<g id="a_node9"><a xlink:href="main_8cpp.html" target="_top" xlink:title=" ">
<polygon fill="white" stroke="#666666" points="883.5,-35.5 763.5,-35.5 763.5,-5.5 883.5,-5.5 883.5,-35.5"/>
<text text-anchor="start" x="771.5" y="-23.5" font-family="Helvetica,sans-Serif" font-size="10.00">firmware/wombat/src</text>
<text text-anchor="middle" x="823.5" y="-12.5" font-family="Helvetica,sans-Serif" font-size="10.00">/main.cpp</text>
</a>
</g>
</g>
<!-- Node1&#45;&gt;Node9 -->
<g id="edge34" class="edge">
<title>Node1&#45;&gt;Node9</title>
<path fill="none" stroke="#63b8ff" d="M2083.28,-276.21C2094.76,-230.25 2111.83,-129.2 2057.5,-77 2014.75,-35.93 1125.17,-24.4 883.58,-22.02"/>
<polygon fill="#63b8ff" stroke="#63b8ff" points="2079.89,-275.34 2080.74,-285.9 2086.66,-277.12 2079.89,-275.34"/>
</g>
<!-- Node17 -->
<g id="node17" class="node">
<title>Node17</title>
<g id="a_node17"><a xlink:href="_utils_8cpp.html" target="_top" xlink:title="Global utility functions.">
<polygon fill="white" stroke="#666666" points="2048.5,-112.5 1928.5,-112.5 1928.5,-82.5 2048.5,-82.5 2048.5,-112.5"/>
<text text-anchor="start" x="1936.5" y="-100.5" font-family="Helvetica,sans-Serif" font-size="10.00">firmware/wombat/src</text>
<text text-anchor="middle" x="1988.5" y="-89.5" font-family="Helvetica,sans-Serif" font-size="10.00">/Utils.cpp</text>
</a>
</g>
</g>
<!-- Node1&#45;&gt;Node17 -->
<g id="edge33" class="edge">
<title>Node1&#45;&gt;Node17</title>
<path fill="none" stroke="#63b8ff" d="M2066.29,-276.62C2047.87,-234.45 2009.63,-146.89 1994.68,-112.65"/>
<polygon fill="#63b8ff" stroke="#63b8ff" points="2063.1,-278.07 2070.31,-285.83 2069.52,-275.27 2063.1,-278.07"/>
</g>
<!-- Node3 -->
<g id="node3" class="node">
<title>Node3</title>
<g id="a_node3"><a xlink:href="cat-m1_8h.html" target="_top" xlink:title="CAT&#45;M1 CLI command request and response handler.">
<polygon fill="white" stroke="#666666" points="141,-184 0,-184 0,-154 141,-154 141,-184"/>
<text text-anchor="start" x="8" y="-172" font-family="Helvetica,sans-Serif" font-size="10.00">firmware/wombat/include</text>
<text text-anchor="middle" x="70.5" y="-161" font-family="Helvetica,sans-Serif" font-size="10.00">/cli/peripherals/cat&#45;m1.h</text>
</a>
</g>
</g>
<!-- Node2&#45;&gt;Node3 -->
<g id="edge2" class="edge">
<title>Node2&#45;&gt;Node3</title>
<path fill="none" stroke="#63b8ff" d="M838.8,-231.32C699.18,-226.09 403.66,-212.49 155.5,-184 150.89,-183.47 146.16,-182.87 141.39,-182.21"/>
<polygon fill="#63b8ff" stroke="#63b8ff" points="838.86,-234.82 848.98,-231.69 839.12,-227.83 838.86,-234.82"/>
</g>
<!-- Node6 -->
<g id="node6" class="node">
<title>Node6</title>
<g id="a_node6"><a xlink:href="cat-m1_8cpp.html" target="_top" xlink:title="CAT&#45;M1 CLI command request and response handler.">
<polygon fill="white" stroke="#666666" points="175.5,-41 55.5,-41 55.5,0 175.5,0 175.5,-41"/>
<text text-anchor="start" x="63.5" y="-29" font-family="Helvetica,sans-Serif" font-size="10.00">firmware/wombat/src</text>
<text text-anchor="start" x="63.5" y="-18" font-family="Helvetica,sans-Serif" font-size="10.00">/cli/peripherals/cat</text>
<text text-anchor="middle" x="115.5" y="-7" font-family="Helvetica,sans-Serif" font-size="10.00">&#45;m1.cpp</text>
</a>
</g>
</g>
<!-- Node2&#45;&gt;Node6 -->
<g id="edge32" class="edge">
<title>Node2&#45;&gt;Node6</title>
<path fill="none" stroke="#63b8ff" d="M838.64,-230.64C698.48,-224.24 416.24,-208.72 320.5,-184 251.16,-166.1 227.07,-165.53 173.5,-118 149.38,-96.59 132.26,-62.69 123.13,-41.3"/>
<polygon fill="#63b8ff" stroke="#63b8ff" points="838.74,-234.14 848.89,-231.1 839.06,-227.15 838.74,-234.14"/>
</g>
<!-- Node11 -->
<g id="node11" class="node">
<title>Node11</title>
<g id="a_node11"><a xlink:href="cli__power_8h.html" target="_top" xlink:title=" ">
<polygon fill="white" stroke="#666666" points="475.5,-184 329.5,-184 329.5,-154 475.5,-154 475.5,-184"/>
<text text-anchor="start" x="337.5" y="-172" font-family="Helvetica,sans-Serif" font-size="10.00">firmware/wombat/include</text>
<text text-anchor="middle" x="402.5" y="-161" font-family="Helvetica,sans-Serif" font-size="10.00">/cli/peripherals/cli_power.h</text>
</a>
</g>
</g>
<!-- Node2&#45;&gt;Node11 -->
<g id="edge11" class="edge">
<title>Node2&#45;&gt;Node11</title>
<path fill="none" stroke="#63b8ff" d="M838.97,-224.03C739.55,-211.72 571.87,-190.97 475.86,-179.08"/>
<polygon fill="#63b8ff" stroke="#63b8ff" points="838.61,-227.51 848.97,-225.27 839.47,-220.57 838.61,-227.51"/>
</g>
<!-- Node13 -->
<g id="node13" class="node">
<title>Node13</title>
<g id="a_node13"><a xlink:href="globals_8h.html" target="_top" xlink:title=" ">
<polygon fill="white" stroke="#666666" points="1039,-184 898,-184 898,-154 1039,-154 1039,-184"/>
<text text-anchor="start" x="906" y="-172" font-family="Helvetica,sans-Serif" font-size="10.00">firmware/wombat/include</text>
<text text-anchor="middle" x="968.5" y="-161" font-family="Helvetica,sans-Serif" font-size="10.00">/globals.h</text>
</a>
</g>
</g>
<!-- Node2&#45;&gt;Node13 -->
<g id="edge14" class="edge">
<title>Node2&#45;&gt;Node13</title>
<path fill="none" stroke="#63b8ff" d="M936.49,-211.81C943.51,-202.64 951.44,-192.28 957.66,-184.16"/>
<polygon fill="#63b8ff" stroke="#63b8ff" points="933.67,-209.73 930.37,-219.8 939.23,-213.98 933.67,-209.73"/>
</g>
<!-- Node14 -->
<g id="node14" class="node">
<title>Node14</title>
<g id="a_node14"><a xlink:href="_c_a_t___m1_8cpp.html" target="_top" xlink:title=" ">
<polygon fill="white" stroke="#666666" points="600.5,-112.5 480.5,-112.5 480.5,-82.5 600.5,-82.5 600.5,-112.5"/>
<text text-anchor="start" x="488.5" y="-100.5" font-family="Helvetica,sans-Serif" font-size="10.00">firmware/wombat/src</text>
<text text-anchor="middle" x="540.5" y="-89.5" font-family="Helvetica,sans-Serif" font-size="10.00">/CAT_M1.cpp</text>
</a>
</g>
</g>
<!-- Node2&#45;&gt;Node14 -->
<g id="edge29" class="edge">
<title>Node2&#45;&gt;Node14</title>
<path fill="none" stroke="#63b8ff" d="M870.19,-216.37C794.08,-189.16 649.51,-137.47 579.9,-112.59"/>
<polygon fill="#63b8ff" stroke="#63b8ff" points="869.42,-219.81 880.01,-219.88 871.77,-213.22 869.42,-219.81"/>
</g>
<!-- Node2&#45;&gt;Node17 -->
<g id="edge30" class="edge">
<title>Node2&#45;&gt;Node17</title>
<path fill="none" stroke="#63b8ff" d="M1000.47,-229.93C1171.77,-220.17 1582.76,-190.59 1919.5,-118 1926.8,-116.43 1934.47,-114.52 1941.93,-112.52"/>
<polygon fill="#63b8ff" stroke="#63b8ff" points="1000.07,-226.45 990.28,-230.51 1000.46,-233.44 1000.07,-226.45"/>
</g>
<!-- Node19 -->
<g id="node19" class="node">
<title>Node19</title>
<g id="a_node19"><a xlink:href="config__cli_8cpp.html" target="_top" xlink:title="Command line interface node configuration commands.">
<polygon fill="white" stroke="#666666" points="1910,-118 1777,-118 1777,-77 1910,-77 1910,-118"/>
<text text-anchor="start" x="1785" y="-106" font-family="Helvetica,sans-Serif" font-size="10.00">firmware/wombat/src</text>
<text text-anchor="start" x="1785" y="-95" font-family="Helvetica,sans-Serif" font-size="10.00">/cli/device_config/config</text>
<text text-anchor="middle" x="1843.5" y="-84" font-family="Helvetica,sans-Serif" font-size="10.00">_cli.cpp</text>
</a>
</g>
</g>
<!-- Node2&#45;&gt;Node19 -->
<g id="edge31" class="edge">
<title>Node2&#45;&gt;Node19</title>
<path fill="none" stroke="#63b8ff" d="M1000.17,-226.1C1151.5,-210.58 1487.94,-172.8 1767.5,-118 1770.57,-117.4 1773.71,-116.75 1776.87,-116.06"/>
<polygon fill="#63b8ff" stroke="#63b8ff" points="999.63,-222.63 990.03,-227.13 1000.34,-229.6 999.63,-222.63"/>
</g>
<!-- Node4 -->
<g id="node4" class="node">
<title>Node4</title>
<g id="a_node4"><a xlink:href="_c_l_i_8h.html" target="_top" xlink:title="FreeRTOS CLI handler.">
<polygon fill="white" stroke="#666666" points="324,-112.5 183,-112.5 183,-82.5 324,-82.5 324,-112.5"/>
<text text-anchor="start" x="191" y="-100.5" font-family="Helvetica,sans-Serif" font-size="10.00">firmware/wombat/include</text>
<text text-anchor="middle" x="253.5" y="-89.5" font-family="Helvetica,sans-Serif" font-size="10.00">/cli/CLI.h</text>
</a>
</g>
</g>
<!-- Node3&#45;&gt;Node4 -->
<g id="edge3" class="edge">
<title>Node3&#45;&gt;Node4</title>
<path fill="none" stroke="#63b8ff" d="M117.2,-150.26C148.04,-138.55 187.89,-123.42 216.52,-112.54"/>
<polygon fill="#63b8ff" stroke="#63b8ff" points="115.64,-147.11 107.53,-153.94 118.12,-153.66 115.64,-147.11"/>
</g>
<!-- Node3&#45;&gt;Node6 -->
<g id="edge10" class="edge">
<title>Node3&#45;&gt;Node6</title>
<path fill="none" stroke="#63b8ff" d="M77.77,-144.34C86.56,-115.71 101.21,-68.03 109.43,-41.27"/>
<polygon fill="#63b8ff" stroke="#63b8ff" points="74.41,-143.37 74.81,-153.95 81.1,-145.42 74.41,-143.37"/>
</g>
<!-- Node5 -->
<g id="node5" class="node">
<title>Node5</title>
<g id="a_node5"><a xlink:href="_c_l_i_8cpp.html" target="_top" xlink:title="FreeRTOS CLI handler.">
<polygon fill="white" stroke="#666666" points="313.5,-35.5 193.5,-35.5 193.5,-5.5 313.5,-5.5 313.5,-35.5"/>
<text text-anchor="start" x="201.5" y="-23.5" font-family="Helvetica,sans-Serif" font-size="10.00">firmware/wombat/src</text>
<text text-anchor="middle" x="253.5" y="-12.5" font-family="Helvetica,sans-Serif" font-size="10.00">/cli/CLI.cpp</text>
</a>
</g>
</g>
<!-- Node4&#45;&gt;Node5 -->
<g id="edge4" class="edge">
<title>Node4&#45;&gt;Node5</title>
<path fill="none" stroke="#63b8ff" d="M253.5,-72.04C253.5,-59.95 253.5,-45.79 253.5,-35.54"/>
<polygon fill="#63b8ff" stroke="#63b8ff" points="250,-72.39 253.5,-82.39 257,-72.39 250,-72.39"/>
</g>
<!-- Node4&#45;&gt;Node6 -->
<g id="edge5" class="edge">
<title>Node4&#45;&gt;Node6</title>
<path fill="none" stroke="#63b8ff" d="M218.54,-77.5C198.03,-66.35 172.18,-52.3 151.49,-41.06"/>
<polygon fill="#63b8ff" stroke="#63b8ff" points="217.09,-80.69 227.54,-82.39 220.43,-74.54 217.09,-80.69"/>
</g>
<!-- Node7 -->
<g id="node7" class="node">
<title>Node7</title>
<g id="a_node7"><a xlink:href="sd__card_8cpp.html" target="_top" xlink:title=" ">
<polygon fill="white" stroke="#666666" points="607.5,-41 487.5,-41 487.5,0 607.5,0 607.5,-41"/>
<text text-anchor="start" x="495.5" y="-29" font-family="Helvetica,sans-Serif" font-size="10.00">firmware/wombat/src</text>
<text text-anchor="start" x="495.5" y="-18" font-family="Helvetica,sans-Serif" font-size="10.00">/cli/peripherals/sd</text>
<text text-anchor="middle" x="547.5" y="-7" font-family="Helvetica,sans-Serif" font-size="10.00">_card.cpp</text>
</a>
</g>
</g>
<!-- Node4&#45;&gt;Node7 -->
<g id="edge6" class="edge">
<title>Node4&#45;&gt;Node7</title>
<path fill="none" stroke="#63b8ff" d="M320.74,-80.04C381.32,-65.18 463.16,-45.06 478.5,-41 481.39,-40.24 484.34,-39.44 487.32,-38.64"/>
<polygon fill="#63b8ff" stroke="#63b8ff" points="319.72,-76.68 310.84,-82.46 321.38,-83.48 319.72,-76.68"/>
</g>
<!-- Node8 -->
<g id="node8" class="node">
<title>Node8</title>
<g id="a_node8"><a xlink:href="sdi12_8cpp.html" target="_top" xlink:title="SDI&#45;12 command line interface handler.">
<polygon fill="white" stroke="#666666" points="469.5,-35.5 331.5,-35.5 331.5,-5.5 469.5,-5.5 469.5,-35.5"/>
<text text-anchor="start" x="339.5" y="-23.5" font-family="Helvetica,sans-Serif" font-size="10.00">firmware/wombat/src</text>
<text text-anchor="middle" x="400.5" y="-12.5" font-family="Helvetica,sans-Serif" font-size="10.00">/cli/peripherals/sdi12.cpp</text>
</a>
</g>
</g>
<!-- Node4&#45;&gt;Node8 -->
<g id="edge7" class="edge">
<title>Node4&#45;&gt;Node8</title>
<path fill="none" stroke="#63b8ff" d="M290.21,-77.77C315.87,-64.68 349.6,-47.47 372.97,-35.54"/>
<polygon fill="#63b8ff" stroke="#63b8ff" points="288.47,-74.73 281.15,-82.39 291.65,-80.97 288.47,-74.73"/>
</g>
<!-- Node4&#45;&gt;Node9 -->
<g id="edge8" class="edge">
<title>Node4&#45;&gt;Node9</title>
<path fill="none" stroke="#63b8ff" d="M316.04,-80.28C321.92,-79.05 327.81,-77.93 333.5,-77 518.83,-46.67 569.75,-74.69 754.5,-41 762.34,-39.57 770.57,-37.64 778.51,-35.54"/>
<polygon fill="#63b8ff" stroke="#63b8ff" points="315.21,-76.88 306.19,-82.44 316.71,-83.72 315.21,-76.88"/>
</g>
<!-- Node10 -->
<g id="node10" class="node">
<title>Node10</title>
<g id="a_node10"><a xlink:href="mqtt__stack_8cpp.html" target="_top" xlink:title=" ">
<polygon fill="white" stroke="#666666" points="745.5,-35.5 625.5,-35.5 625.5,-5.5 745.5,-5.5 745.5,-35.5"/>
<text text-anchor="start" x="633.5" y="-23.5" font-family="Helvetica,sans-Serif" font-size="10.00">firmware/wombat/src</text>
<text text-anchor="middle" x="685.5" y="-12.5" font-family="Helvetica,sans-Serif" font-size="10.00">/mqtt_stack.cpp</text>
</a>
</g>
</g>
<!-- Node4&#45;&gt;Node10 -->
<g id="edge9" class="edge">
<title>Node4&#45;&gt;Node10</title>
<path fill="none" stroke="#63b8ff" d="M317.33,-80.26C322.78,-79.08 328.23,-77.97 333.5,-77 458.18,-53.95 492.26,-66.31 616.5,-41 623.94,-39.48 631.75,-37.58 639.34,-35.57"/>
<polygon fill="#63b8ff" stroke="#63b8ff" points="316.54,-76.85 307.54,-82.45 318.07,-83.68 316.54,-76.85"/>
</g>
<!-- Node11&#45;&gt;Node4 -->
<g id="edge12" class="edge">
<title>Node11&#45;&gt;Node4</title>
<path fill="none" stroke="#63b8ff" d="M363.16,-149.65C338.25,-138.03 306.52,-123.23 283.61,-112.54"/>
<polygon fill="#63b8ff" stroke="#63b8ff" points="361.81,-152.88 372.35,-153.94 364.76,-146.54 361.81,-152.88"/>
</g>
<!-- Node12 -->
<g id="node12" class="node">
<title>Node12</title>
<g id="a_node12"><a xlink:href="cli__power_8cpp.html" target="_top" xlink:title="Power related commands.">
<polygon fill="white" stroke="#666666" points="462.5,-118 342.5,-118 342.5,-77 462.5,-77 462.5,-118"/>
<text text-anchor="start" x="350.5" y="-106" font-family="Helvetica,sans-Serif" font-size="10.00">firmware/wombat/src</text>
<text text-anchor="start" x="350.5" y="-95" font-family="Helvetica,sans-Serif" font-size="10.00">/cli/device_config/cli</text>
<text text-anchor="middle" x="402.5" y="-84" font-family="Helvetica,sans-Serif" font-size="10.00">_power.cpp</text>
</a>
</g>
</g>
<!-- Node11&#45;&gt;Node12 -->
<g id="edge13" class="edge">
<title>Node11&#45;&gt;Node12</title>
<path fill="none" stroke="#63b8ff" d="M402.5,-143.91C402.5,-135.47 402.5,-126.1 402.5,-118.07"/>
<polygon fill="#63b8ff" stroke="#63b8ff" points="399,-143.94 402.5,-153.94 406,-143.94 399,-143.94"/>
</g>
<!-- Node13&#45;&gt;Node6 -->
<g id="edge21" class="edge">
<title>Node13&#45;&gt;Node6</title>
<path fill="none" stroke="#63b8ff" d="M887.72,-162.31C805.05,-155.31 683.1,-141.39 642.5,-118 622.23,-106.32 630.15,-87.98 609.5,-77 525.82,-32.49 277.75,-57.97 184.5,-41 181.56,-40.47 178.57,-39.86 175.55,-39.2"/>
<polygon fill="#63b8ff" stroke="#63b8ff" points="887.6,-165.81 897.85,-163.15 888.18,-158.83 887.6,-165.81"/>
</g>
<!-- Node13&#45;&gt;Node7 -->
<g id="edge22" class="edge">
<title>Node13&#45;&gt;Node7</title>
<path fill="none" stroke="#63b8ff" d="M887.7,-159.96C835.54,-152.95 766.94,-140.27 709.5,-118 676.95,-105.38 672.46,-94.92 642.5,-77 622.34,-64.94 599.62,-51.66 581.45,-41.11"/>
<polygon fill="#63b8ff" stroke="#63b8ff" points="887.54,-163.46 897.91,-161.28 888.44,-156.52 887.54,-163.46"/>
</g>
<!-- Node13&#45;&gt;Node9 -->
<g id="edge24" class="edge">
<title>Node13&#45;&gt;Node9</title>
<path fill="none" stroke="#63b8ff" d="M887.73,-158.79C836.64,-151.1 777.34,-138.12 761.5,-118 750.23,-103.68 754.06,-93.64 761.5,-77 769.28,-59.59 785.52,-45.38 799.43,-35.7"/>
<polygon fill="#63b8ff" stroke="#63b8ff" points="887.43,-162.28 897.83,-160.25 888.43,-155.35 887.43,-162.28"/>
</g>
<!-- Node13&#45;&gt;Node10 -->
<g id="edge25" class="edge">
<title>Node13&#45;&gt;Node10</title>
<path fill="none" stroke="#63b8ff" d="M887.64,-164.02C843.55,-158.48 789.9,-145.93 749.5,-118 719.4,-97.2 699.75,-57.2 690.91,-35.81"/>
<polygon fill="#63b8ff" stroke="#63b8ff" points="887.42,-167.52 897.76,-165.19 888.23,-160.57 887.42,-167.52"/>
</g>
<!-- Node13&#45;&gt;Node14 -->
<g id="edge15" class="edge">
<title>Node13&#45;&gt;Node14</title>
<path fill="none" stroke="#63b8ff" d="M887.53,-159.3C815.48,-150.92 707.43,-136.74 614.5,-118 606.69,-116.42 598.47,-114.52 590.47,-112.52"/>
<polygon fill="#63b8ff" stroke="#63b8ff" points="887.56,-162.83 897.9,-160.5 888.36,-155.88 887.56,-162.83"/>
</g>
<!-- Node15 -->
<g id="node15" class="node">
<title>Node15</title>
<g id="a_node15"><a xlink:href="_device_config_8cpp.html" target="_top" xlink:title=" ">
<polygon fill="white" stroke="#666666" points="890.5,-112.5 770.5,-112.5 770.5,-82.5 890.5,-82.5 890.5,-112.5"/>
<text text-anchor="start" x="778.5" y="-100.5" font-family="Helvetica,sans-Serif" font-size="10.00">firmware/wombat/src</text>
<text text-anchor="middle" x="830.5" y="-89.5" font-family="Helvetica,sans-Serif" font-size="10.00">/DeviceConfig.cpp</text>
</a>
</g>
</g>
<!-- Node13&#45;&gt;Node15 -->
<g id="edge16" class="edge">
<title>Node13&#45;&gt;Node15</title>
<path fill="none" stroke="#63b8ff" d="M931.46,-149.34C908.47,-137.77 879.42,-123.14 858.38,-112.54"/>
<polygon fill="#63b8ff" stroke="#63b8ff" points="930.07,-152.56 940.57,-153.94 933.22,-146.31 930.07,-152.56"/>
</g>
<!-- Node16 -->
<g id="node16" class="node">
<title>Node16</title>
<g id="a_node16"><a xlink:href="_sensor_task_8cpp.html" target="_top" xlink:title=" ">
<polygon fill="white" stroke="#666666" points="1028.5,-112.5 908.5,-112.5 908.5,-82.5 1028.5,-82.5 1028.5,-112.5"/>
<text text-anchor="start" x="916.5" y="-100.5" font-family="Helvetica,sans-Serif" font-size="10.00">firmware/wombat/src</text>
<text text-anchor="middle" x="968.5" y="-89.5" font-family="Helvetica,sans-Serif" font-size="10.00">/SensorTask.cpp</text>
</a>
</g>
</g>
<!-- Node13&#45;&gt;Node16 -->
<g id="edge17" class="edge">
<title>Node13&#45;&gt;Node16</title>
<path fill="none" stroke="#63b8ff" d="M968.5,-143.75C968.5,-133.31 968.5,-121.49 968.5,-112.54"/>
<polygon fill="#63b8ff" stroke="#63b8ff" points="965,-143.94 968.5,-153.94 972,-143.94 965,-143.94"/>
</g>
<!-- Node13&#45;&gt;Node17 -->
<g id="edge18" class="edge">
<title>Node13&#45;&gt;Node17</title>
<path fill="none" stroke="#63b8ff" d="M1049.1,-166.07C1247.03,-160.96 1752.96,-145.56 1919.5,-118 1927.61,-116.66 1936.12,-114.71 1944.29,-112.56"/>
<polygon fill="#63b8ff" stroke="#63b8ff" points="1048.96,-162.57 1039.06,-166.33 1049.14,-169.57 1048.96,-162.57"/>
</g>
<!-- Node18 -->
<g id="node18" class="node">
<title>Node18</title>
<g id="a_node18"><a xlink:href="acquisition__intervals_8cpp.html" target="_top" xlink:title="Handles the time between measurements and uplinks by the device over LTE.">
<polygon fill="white" stroke="#666666" points="1204,-118 1047,-118 1047,-77 1204,-77 1204,-118"/>
<text text-anchor="start" x="1055" y="-106" font-family="Helvetica,sans-Serif" font-size="10.00">firmware/wombat/src</text>
<text text-anchor="start" x="1055" y="-95" font-family="Helvetica,sans-Serif" font-size="10.00">/cli/device_config/acquisition</text>
<text text-anchor="middle" x="1125.5" y="-84" font-family="Helvetica,sans-Serif" font-size="10.00">_intervals.cpp</text>
</a>
</g>
</g>
<!-- Node13&#45;&gt;Node18 -->
<g id="edge19" class="edge">
<title>Node13&#45;&gt;Node18</title>
<path fill="none" stroke="#63b8ff" d="M1009.68,-149.77C1031.7,-140.02 1058.82,-128.02 1081.28,-118.07"/>
<polygon fill="#63b8ff" stroke="#63b8ff" points="1008,-146.69 1000.27,-153.94 1010.83,-153.09 1008,-146.69"/>
</g>
<!-- Node13&#45;&gt;Node19 -->
<g id="edge20" class="edge">
<title>Node13&#45;&gt;Node19</title>
<path fill="none" stroke="#63b8ff" d="M1049.4,-167.96C1194.29,-166.78 1507.25,-159.15 1767.5,-118 1770.59,-117.51 1773.75,-116.95 1776.92,-116.34"/>
<polygon fill="#63b8ff" stroke="#63b8ff" points="1049.23,-164.46 1039.26,-168.03 1049.29,-171.46 1049.23,-164.46"/>
</g>
<!-- Node20 -->
<g id="node20" class="node">
<title>Node20</title>
<g id="a_node20"><a xlink:href="ftp__stack_8cpp.html" target="_top" xlink:title=" ">
<polygon fill="white" stroke="#666666" points="1342.5,-112.5 1222.5,-112.5 1222.5,-82.5 1342.5,-82.5 1342.5,-112.5"/>
<text text-anchor="start" x="1230.5" y="-100.5" font-family="Helvetica,sans-Serif" font-size="10.00">firmware/wombat/src</text>
<text text-anchor="middle" x="1282.5" y="-89.5" font-family="Helvetica,sans-Serif" font-size="10.00">/ftp_stack.cpp</text>
</a>
</g>
</g>
<!-- Node13&#45;&gt;Node20 -->
<g id="edge23" class="edge">
<title>Node13&#45;&gt;Node20</title>
<path fill="none" stroke="#63b8ff" d="M1049.05,-153.12C1097.01,-143.87 1158.96,-131.25 1213.5,-118 1220.27,-116.35 1227.39,-114.49 1234.36,-112.59"/>
<polygon fill="#63b8ff" stroke="#63b8ff" points="1048.2,-149.72 1039.04,-155.04 1049.52,-156.6 1048.2,-149.72"/>
</g>
<!-- Node21 -->
<g id="node21" class="node">
<title>Node21</title>
<g id="a_node21"><a xlink:href="ota__update_8cpp.html" target="_top" xlink:title=" ">
<polygon fill="white" stroke="#666666" points="1480.5,-112.5 1360.5,-112.5 1360.5,-82.5 1480.5,-82.5 1480.5,-112.5"/>
<text text-anchor="start" x="1368.5" y="-100.5" font-family="Helvetica,sans-Serif" font-size="10.00">firmware/wombat/src</text>
<text text-anchor="middle" x="1420.5" y="-89.5" font-family="Helvetica,sans-Serif" font-size="10.00">/ota_update.cpp</text>
</a>
</g>
</g>
<!-- Node13&#45;&gt;Node21 -->
<g id="edge26" class="edge">
<title>Node13&#45;&gt;Node21</title>
<path fill="none" stroke="#63b8ff" d="M1049.48,-160.88C1127.39,-153.23 1248.25,-139.21 1351.5,-118 1358.94,-116.47 1366.75,-114.56 1374.33,-112.55"/>
<polygon fill="#63b8ff" stroke="#63b8ff" points="1048.87,-157.43 1039.25,-161.88 1049.54,-164.39 1048.87,-157.43"/>
</g>
<!-- Node22 -->
<g id="node22" class="node">
<title>Node22</title>
<g id="a_node22"><a xlink:href="interface_8cpp.html" target="_top" xlink:title=" ">
<polygon fill="white" stroke="#666666" points="1620.5,-112.5 1498.5,-112.5 1498.5,-82.5 1620.5,-82.5 1620.5,-112.5"/>
<text text-anchor="start" x="1506.5" y="-100.5" font-family="Helvetica,sans-Serif" font-size="10.00">firmware/wombat/src</text>
<text text-anchor="middle" x="1559.5" y="-89.5" font-family="Helvetica,sans-Serif" font-size="10.00">/sd&#45;card/interface.cpp</text>
</a>
</g>
</g>
<!-- Node13&#45;&gt;Node22 -->
<g id="edge27" class="edge">
<title>Node13&#45;&gt;Node22</title>
<path fill="none" stroke="#63b8ff" d="M1049.43,-164.65C1152.4,-159.38 1335.39,-146.63 1489.5,-118 1497.31,-116.55 1505.52,-114.63 1513.46,-112.56"/>
<polygon fill="#63b8ff" stroke="#63b8ff" points="1049.23,-161.16 1039.41,-165.15 1049.58,-168.15 1049.23,-161.16"/>
</g>
<!-- Node23 -->
<g id="node23" class="node">
<title>Node23</title>
<g id="a_node23"><a xlink:href="uplinks_8cpp.html" target="_top" xlink:title=" ">
<polygon fill="white" stroke="#666666" points="1758.5,-112.5 1638.5,-112.5 1638.5,-82.5 1758.5,-82.5 1758.5,-112.5"/>
<text text-anchor="start" x="1646.5" y="-100.5" font-family="Helvetica,sans-Serif" font-size="10.00">firmware/wombat/src</text>
<text text-anchor="middle" x="1698.5" y="-89.5" font-family="Helvetica,sans-Serif" font-size="10.00">/uplinks.cpp</text>
</a>
</g>
</g>
<!-- Node13&#45;&gt;Node23 -->
<g id="edge28" class="edge">
<title>Node13&#45;&gt;Node23</title>
<path fill="none" stroke="#63b8ff" d="M1049.29,-167.07C1174.5,-164.48 1422.56,-154.69 1629.5,-118 1637.47,-116.59 1645.84,-114.64 1653.89,-112.51"/>
<polygon fill="#63b8ff" stroke="#63b8ff" points="1048.96,-163.58 1039.03,-167.28 1049.1,-170.58 1048.96,-163.58"/>
</g>
</g>
</svg>
