<?xml version="1.0" encoding="UTF-8" standalone="no"?>
<!DOCTYPE svg PUBLIC "-//W3C//DTD SVG 1.1//EN"
 "http://www.w3.org/Graphics/SVG/1.1/DTD/svg11.dtd">
<!-- Generated by graphviz version 2.43.0 (0)
 -->
<!-- Title: firmware/wombat/lib/TCA9534/include/TCA9534.h Pages: 1 -->
<svg width="2096pt" height="467pt"
 viewBox="0.00 0.00 2095.50 467.00" xmlns="http://www.w3.org/2000/svg" xmlns:xlink="http://www.w3.org/1999/xlink">
<g id="graph0" class="graph" transform="scale(1 1) rotate(0) translate(4 463)">
<title>firmware/wombat/lib/TCA9534/include/TCA9534.h</title>
<!-- Node1 -->
<g id="node1" class="node">
<title>Node1</title>
<g id="a_node1"><a xlink:title=" ">
<polygon fill="#999999" stroke="#666666" points="2087.5,-459 1932.5,-459 1932.5,-429 2087.5,-429 2087.5,-459"/>
<text text-anchor="start" x="1940.5" y="-447" font-family="Helvetica,sans-Serif" font-size="10.00">firmware/wombat/lib</text>
<text text-anchor="middle" x="2010" y="-436" font-family="Helvetica,sans-Serif" font-size="10.00">/TCA9534/include/TCA9534.h</text>
</a>
</g>
</g>
<!-- Node2 -->
<g id="node2" class="node">
<title>Node2</title>
<g id="a_node2"><a xlink:href="_c_a_t___m1_8h.html" target="_top" xlink:title=" ">
<polygon fill="white" stroke="#666666" points="696.5,-393 555.5,-393 555.5,-363 696.5,-363 696.5,-393"/>
<text text-anchor="start" x="563.5" y="-381" font-family="Helvetica,sans-Serif" font-size="10.00">firmware/wombat/include</text>
<text text-anchor="middle" x="626" y="-370" font-family="Helvetica,sans-Serif" font-size="10.00">/CAT_M1.h</text>
</a>
</g>
</g>
<!-- Node1&#45;&gt;Node2 -->
<g id="edge1" class="edge">
<title>Node1&#45;&gt;Node2</title>
<path fill="none" stroke="#63b8ff" d="M1921.78,-438.92C1666.26,-427.1 929.06,-393.01 696.9,-382.28"/>
<polygon fill="#63b8ff" stroke="#63b8ff" points="1921.97,-442.43 1932.13,-439.4 1922.3,-435.44 1921.97,-442.43"/>
</g>
<!-- Node13 -->
<g id="node13" class="node">
<title>Node13</title>
<g id="a_node13"><a xlink:href="main_8cpp.html" target="_top" xlink:title=" ">
<polygon fill="white" stroke="#666666" points="988,-167.5 868,-167.5 868,-137.5 988,-137.5 988,-167.5"/>
<text text-anchor="start" x="876" y="-155.5" font-family="Helvetica,sans-Serif" font-size="10.00">firmware/wombat/src</text>
<text text-anchor="middle" x="928" y="-144.5" font-family="Helvetica,sans-Serif" font-size="10.00">/main.cpp</text>
</a>
</g>
</g>
<!-- Node1&#45;&gt;Node13 -->
<g id="edge40" class="edge">
<title>Node1&#45;&gt;Node13</title>
<path fill="none" stroke="#63b8ff" d="M2016.94,-419.08C2029.15,-371.42 2048.07,-264.45 1991,-209 1954.84,-173.87 1207.72,-158.3 988.17,-154.47"/>
<polygon fill="#63b8ff" stroke="#63b8ff" points="2013.54,-418.26 2014.33,-428.83 2020.3,-420.08 2013.54,-418.26"/>
</g>
<!-- Node21 -->
<g id="node21" class="node">
<title>Node21</title>
<g id="a_node21"><a xlink:href="_utils_8cpp.html" target="_top" xlink:title="Global utility functions.">
<polygon fill="white" stroke="#666666" points="1982,-244.5 1862,-244.5 1862,-214.5 1982,-214.5 1982,-244.5"/>
<text text-anchor="start" x="1870" y="-232.5" font-family="Helvetica,sans-Serif" font-size="10.00">firmware/wombat/src</text>
<text text-anchor="middle" x="1922" y="-221.5" font-family="Helvetica,sans-Serif" font-size="10.00">/Utils.cpp</text>
</a>
</g>
</g>
<!-- Node1&#45;&gt;Node21 -->
<g id="edge39" class="edge">
<title>Node1&#45;&gt;Node21</title>
<path fill="none" stroke="#63b8ff" d="M2000.19,-419.32C1981.82,-374.95 1942.73,-280.56 1927.88,-244.71"/>
<polygon fill="#63b8ff" stroke="#63b8ff" points="1997.03,-420.83 2004.09,-428.73 2003.5,-418.15 1997.03,-420.83"/>
</g>
<!-- Node3 -->
<g id="node3" class="node">
<title>Node3</title>
<g id="a_node3"><a xlink:href="cat-m1_8h.html" target="_top" xlink:title="CAT&#45;M1 CLI command request and response handler.">
<polygon fill="white" stroke="#666666" points="173.5,-321.5 32.5,-321.5 32.5,-291.5 173.5,-291.5 173.5,-321.5"/>
<text text-anchor="start" x="40.5" y="-309.5" font-family="Helvetica,sans-Serif" font-size="10.00">firmware/wombat/include</text>
<text text-anchor="middle" x="103" y="-298.5" font-family="Helvetica,sans-Serif" font-size="10.00">/cli/peripherals/cat&#45;m1.h</text>
</a>
</g>
</g>
<!-- Node2&#45;&gt;Node3 -->
<g id="edge2" class="edge">
<title>Node2&#45;&gt;Node3</title>
<path fill="none" stroke="#63b8ff" d="M545.29,-370.51C457.11,-362.79 311.9,-348.22 188,-327 179.05,-325.47 169.62,-323.58 160.44,-321.59"/>
<polygon fill="#63b8ff" stroke="#63b8ff" points="545.22,-374.02 555.49,-371.4 545.83,-367.05 545.22,-374.02"/>
</g>
<!-- Node10 -->
<g id="node10" class="node">
<title>Node10</title>
<g id="a_node10"><a xlink:href="cat-m1_8cpp.html" target="_top" xlink:title="CAT&#45;M1 CLI command request and response handler.">
<polygon fill="white" stroke="#666666" points="120,-173 0,-173 0,-132 120,-132 120,-173"/>
<text text-anchor="start" x="8" y="-161" font-family="Helvetica,sans-Serif" font-size="10.00">firmware/wombat/src</text>
<text text-anchor="start" x="8" y="-150" font-family="Helvetica,sans-Serif" font-size="10.00">/cli/peripherals/cat</text>
<text text-anchor="middle" x="60" y="-139" font-family="Helvetica,sans-Serif" font-size="10.00">&#45;m1.cpp</text>
</a>
</g>
</g>
<!-- Node2&#45;&gt;Node10 -->
<g id="edge37" class="edge">
<title>Node2&#45;&gt;Node10</title>
<path fill="none" stroke="#63b8ff" d="M545.43,-363.87C500.3,-355.47 443.34,-343.11 394,-327 313.99,-300.88 295.68,-288.82 221,-250 174.16,-225.65 122.13,-193.48 90.23,-173.13"/>
<polygon fill="#63b8ff" stroke="#63b8ff" points="544.99,-367.35 555.46,-365.71 546.26,-360.46 544.99,-367.35"/>
</g>
<!-- Node14 -->
<g id="node14" class="node">
<title>Node14</title>
<g id="a_node14"><a xlink:href="mqtt__stack_8cpp.html" target="_top" xlink:title=" ">
<polygon fill="white" stroke="#666666" points="850,-167.5 730,-167.5 730,-137.5 850,-137.5 850,-167.5"/>
<text text-anchor="start" x="738" y="-155.5" font-family="Helvetica,sans-Serif" font-size="10.00">firmware/wombat/src</text>
<text text-anchor="middle" x="790" y="-144.5" font-family="Helvetica,sans-Serif" font-size="10.00">/mqtt_stack.cpp</text>
</a>
</g>
</g>
<!-- Node2&#45;&gt;Node14 -->
<g id="edge38" class="edge">
<title>Node2&#45;&gt;Node14</title>
<path fill="none" stroke="#63b8ff" d="M545.23,-367.79C494.14,-360.1 434.84,-347.12 419,-327 386.56,-285.79 384.18,-248.22 419,-209 463.87,-158.46 654.72,-186.23 721,-173 728.57,-171.49 736.52,-169.57 744.22,-167.52"/>
<polygon fill="#63b8ff" stroke="#63b8ff" points="544.93,-371.28 555.33,-369.25 545.93,-364.35 544.93,-371.28"/>
</g>
<!-- Node15 -->
<g id="node15" class="node">
<title>Node15</title>
<g id="a_node15"><a xlink:href="cli__power_8h.html" target="_top" xlink:title=" ">
<polygon fill="white" stroke="#666666" points="574,-321.5 428,-321.5 428,-291.5 574,-291.5 574,-321.5"/>
<text text-anchor="start" x="436" y="-309.5" font-family="Helvetica,sans-Serif" font-size="10.00">firmware/wombat/include</text>
<text text-anchor="middle" x="501" y="-298.5" font-family="Helvetica,sans-Serif" font-size="10.00">/cli/peripherals/cli_power.h</text>
</a>
</g>
</g>
<!-- Node2&#45;&gt;Node15 -->
<g id="edge16" class="edge">
<title>Node2&#45;&gt;Node15</title>
<path fill="none" stroke="#63b8ff" d="M591.89,-358.03C571.16,-346.51 545.14,-332.04 526.26,-321.54"/>
<polygon fill="#63b8ff" stroke="#63b8ff" points="590.26,-361.14 600.7,-362.94 593.67,-355.02 590.26,-361.14"/>
</g>
<!-- Node17 -->
<g id="node17" class="node">
<title>Node17</title>
<g id="a_node17"><a xlink:href="globals_8h.html" target="_top" xlink:title=" ">
<polygon fill="white" stroke="#666666" points="942.5,-321.5 801.5,-321.5 801.5,-291.5 942.5,-291.5 942.5,-321.5"/>
<text text-anchor="start" x="809.5" y="-309.5" font-family="Helvetica,sans-Serif" font-size="10.00">firmware/wombat/include</text>
<text text-anchor="middle" x="872" y="-298.5" font-family="Helvetica,sans-Serif" font-size="10.00">/globals.h</text>
</a>
</g>
</g>
<!-- Node2&#45;&gt;Node17 -->
<g id="edge19" class="edge">
<title>Node2&#45;&gt;Node17</title>
<path fill="none" stroke="#63b8ff" d="M685.58,-360.17C727.44,-348.34 782.8,-332.7 822.29,-321.54"/>
<polygon fill="#63b8ff" stroke="#63b8ff" points="684.45,-356.85 675.78,-362.94 686.36,-363.58 684.45,-356.85"/>
</g>
<!-- Node18 -->
<g id="node18" class="node">
<title>Node18</title>
<g id="a_node18"><a xlink:href="_c_a_t___m1_8cpp.html" target="_top" xlink:title=" ">
<polygon fill="white" stroke="#666666" points="686,-244.5 566,-244.5 566,-214.5 686,-214.5 686,-244.5"/>
<text text-anchor="start" x="574" y="-232.5" font-family="Helvetica,sans-Serif" font-size="10.00">firmware/wombat/src</text>
<text text-anchor="middle" x="626" y="-221.5" font-family="Helvetica,sans-Serif" font-size="10.00">/CAT_M1.cpp</text>
</a>
</g>
</g>
<!-- Node2&#45;&gt;Node18 -->
<g id="edge34" class="edge">
<title>Node2&#45;&gt;Node18</title>
<path fill="none" stroke="#63b8ff" d="M626,-352.65C626,-321.82 626,-269.72 626,-244.72"/>
<polygon fill="#63b8ff" stroke="#63b8ff" points="622.5,-352.95 626,-362.95 629.5,-352.95 622.5,-352.95"/>
</g>
<!-- Node2&#45;&gt;Node21 -->
<g id="edge35" class="edge">
<title>Node2&#45;&gt;Node21</title>
<path fill="none" stroke="#63b8ff" d="M706.78,-370.61C789.14,-363.04 910.53,-348.66 952,-327 974.29,-315.36 968.1,-296.39 991,-286 1078.29,-246.38 1758.34,-265.14 1853,-250 1861.24,-248.68 1869.89,-246.72 1878.17,-244.54"/>
<polygon fill="#63b8ff" stroke="#63b8ff" points="706.33,-367.14 696.68,-371.52 706.96,-374.11 706.33,-367.14"/>
</g>
<!-- Node27 -->
<g id="node27" class="node">
<title>Node27</title>
<g id="a_node27"><a xlink:href="config__cli_8cpp.html" target="_top" xlink:title="Command line interface node configuration commands.">
<polygon fill="white" stroke="#666666" points="1132.5,-327 999.5,-327 999.5,-286 1132.5,-286 1132.5,-327"/>
<text text-anchor="start" x="1007.5" y="-315" font-family="Helvetica,sans-Serif" font-size="10.00">firmware/wombat/src</text>
<text text-anchor="start" x="1007.5" y="-304" font-family="Helvetica,sans-Serif" font-size="10.00">/cli/device_config/config</text>
<text text-anchor="middle" x="1066" y="-293" font-family="Helvetica,sans-Serif" font-size="10.00">_cli.cpp</text>
</a>
</g>
</g>
<!-- Node2&#45;&gt;Node27 -->
<g id="edge36" class="edge">
<title>Node2&#45;&gt;Node27</title>
<path fill="none" stroke="#63b8ff" d="M706.89,-368.03C779.89,-359.39 890.08,-344.99 985,-327 989.69,-326.11 994.52,-325.13 999.37,-324.09"/>
<polygon fill="#63b8ff" stroke="#63b8ff" points="706.36,-364.57 696.84,-369.21 707.18,-371.52 706.36,-364.57"/>
</g>
<!-- Node4 -->
<g id="node4" class="node">
<title>Node4</title>
<g id="a_node4"><a xlink:href="_c_l_i_8h.html" target="_top" xlink:title="FreeRTOS CLI handler.">
<polygon fill="white" stroke="#666666" points="371.5,-244.5 230.5,-244.5 230.5,-214.5 371.5,-214.5 371.5,-244.5"/>
<text text-anchor="start" x="238.5" y="-232.5" font-family="Helvetica,sans-Serif" font-size="10.00">firmware/wombat/include</text>
<text text-anchor="middle" x="301" y="-221.5" font-family="Helvetica,sans-Serif" font-size="10.00">/cli/CLI.h</text>
</a>
</g>
</g>
<!-- Node3&#45;&gt;Node4 -->
<g id="edge3" class="edge">
<title>Node3&#45;&gt;Node4</title>
<path fill="none" stroke="#63b8ff" d="M149.73,-287.8C184.61,-274.59 231.62,-256.78 263.92,-244.54"/>
<polygon fill="#63b8ff" stroke="#63b8ff" points="148.35,-284.58 140.24,-291.39 150.83,-291.12 148.35,-284.58"/>
</g>
<!-- Node3&#45;&gt;Node10 -->
<g id="edge15" class="edge">
<title>Node3&#45;&gt;Node10</title>
<path fill="none" stroke="#63b8ff" d="M96.31,-281.85C87.85,-251.96 73.45,-201.05 65.57,-173.18"/>
<polygon fill="#63b8ff" stroke="#63b8ff" points="92.94,-282.8 99.03,-291.47 99.68,-280.9 92.94,-282.8"/>
</g>
<!-- Node5 -->
<g id="node5" class="node">
<title>Node5</title>
<g id="a_node5"><a xlink:href="server_8h.html" target="_top" xlink:title="Handle the setup and maintenance of the BLE server and connected clients.">
<polygon fill="white" stroke="#666666" points="279.5,-167.5 138.5,-167.5 138.5,-137.5 279.5,-137.5 279.5,-167.5"/>
<text text-anchor="start" x="146.5" y="-155.5" font-family="Helvetica,sans-Serif" font-size="10.00">firmware/wombat/include</text>
<text text-anchor="middle" x="209" y="-144.5" font-family="Helvetica,sans-Serif" font-size="10.00">/bluetooth/server.h</text>
</a>
</g>
</g>
<!-- Node4&#45;&gt;Node5 -->
<g id="edge4" class="edge">
<title>Node4&#45;&gt;Node5</title>
<path fill="none" stroke="#63b8ff" d="M275.89,-208.03C260.12,-195.18 240.21,-178.94 226.23,-167.54"/>
<polygon fill="#63b8ff" stroke="#63b8ff" points="273.73,-210.79 283.7,-214.39 278.16,-205.36 273.73,-210.79"/>
</g>
<!-- Node9 -->
<g id="node9" class="node">
<title>Node9</title>
<g id="a_node9"><a xlink:href="_c_l_i_8cpp.html" target="_top" xlink:title="FreeRTOS CLI handler.">
<polygon fill="white" stroke="#666666" points="418,-167.5 298,-167.5 298,-137.5 418,-137.5 418,-167.5"/>
<text text-anchor="start" x="306" y="-155.5" font-family="Helvetica,sans-Serif" font-size="10.00">firmware/wombat/src</text>
<text text-anchor="middle" x="358" y="-144.5" font-family="Helvetica,sans-Serif" font-size="10.00">/cli/CLI.cpp</text>
</a>
</g>
</g>
<!-- Node4&#45;&gt;Node9 -->
<g id="edge9" class="edge">
<title>Node4&#45;&gt;Node9</title>
<path fill="none" stroke="#63b8ff" d="M317.92,-206.24C327.45,-193.7 339.06,-178.42 347.33,-167.54"/>
<polygon fill="#63b8ff" stroke="#63b8ff" points="314.99,-204.31 311.72,-214.39 320.56,-208.55 314.99,-204.31"/>
</g>
<!-- Node4&#45;&gt;Node10 -->
<g id="edge10" class="edge">
<title>Node4&#45;&gt;Node10</title>
<path fill="none" stroke="#63b8ff" d="M246.2,-211.45C208.69,-199.77 158.93,-184.29 120.29,-172.26"/>
<polygon fill="#63b8ff" stroke="#63b8ff" points="245.36,-214.85 255.95,-214.48 247.44,-208.17 245.36,-214.85"/>
</g>
<!-- Node11 -->
<g id="node11" class="node">
<title>Node11</title>
<g id="a_node11"><a xlink:href="sd__card_8cpp.html" target="_top" xlink:title=" ">
<polygon fill="white" stroke="#666666" points="712,-173 592,-173 592,-132 712,-132 712,-173"/>
<text text-anchor="start" x="600" y="-161" font-family="Helvetica,sans-Serif" font-size="10.00">firmware/wombat/src</text>
<text text-anchor="start" x="600" y="-150" font-family="Helvetica,sans-Serif" font-size="10.00">/cli/peripherals/sd</text>
<text text-anchor="middle" x="652" y="-139" font-family="Helvetica,sans-Serif" font-size="10.00">_card.cpp</text>
</a>
</g>
</g>
<!-- Node4&#45;&gt;Node11 -->
<g id="edge11" class="edge">
<title>Node4&#45;&gt;Node11</title>
<path fill="none" stroke="#63b8ff" d="M370.75,-212.23C375.9,-211.11 381.03,-210.02 386,-209 473.18,-191.04 496.3,-193.13 583,-173 585.91,-172.32 588.88,-171.6 591.88,-170.85"/>
<polygon fill="#63b8ff" stroke="#63b8ff" points="369.84,-208.85 360.83,-214.42 371.35,-215.69 369.84,-208.85"/>
</g>
<!-- Node12 -->
<g id="node12" class="node">
<title>Node12</title>
<g id="a_node12"><a xlink:href="sdi12_8cpp.html" target="_top" xlink:title="SDI&#45;12 command line interface handler.">
<polygon fill="white" stroke="#666666" points="574,-167.5 436,-167.5 436,-137.5 574,-137.5 574,-167.5"/>
<text text-anchor="start" x="444" y="-155.5" font-family="Helvetica,sans-Serif" font-size="10.00">firmware/wombat/src</text>
<text text-anchor="middle" x="505" y="-144.5" font-family="Helvetica,sans-Serif" font-size="10.00">/cli/peripherals/sdi12.cpp</text>
</a>
</g>
</g>
<!-- Node4&#45;&gt;Node12 -->
<g id="edge12" class="edge">
<title>Node4&#45;&gt;Node12</title>
<path fill="none" stroke="#63b8ff" d="M349.15,-210.8C385.08,-197.59 433.52,-179.78 466.8,-167.54"/>
<polygon fill="#63b8ff" stroke="#63b8ff" points="347.55,-207.66 339.37,-214.39 349.96,-214.23 347.55,-207.66"/>
</g>
<!-- Node4&#45;&gt;Node13 -->
<g id="edge13" class="edge">
<title>Node4&#45;&gt;Node13</title>
<path fill="none" stroke="#63b8ff" d="M381.62,-214.27C394.11,-212.33 406.89,-210.49 419,-209 613.73,-184.98 665.91,-207.84 859,-173 866.84,-171.59 875.07,-169.66 883.01,-167.57"/>
<polygon fill="#63b8ff" stroke="#63b8ff" points="381.01,-210.83 371.68,-215.85 382.11,-217.74 381.01,-210.83"/>
</g>
<!-- Node4&#45;&gt;Node14 -->
<g id="edge14" class="edge">
<title>Node4&#45;&gt;Node14</title>
<path fill="none" stroke="#63b8ff" d="M368.09,-212.33C374.13,-211.11 380.17,-209.98 386,-209 533.68,-184.21 573.98,-201.46 721,-173 728.58,-171.53 736.53,-169.63 744.24,-167.6"/>
<polygon fill="#63b8ff" stroke="#63b8ff" points="367.04,-208.98 357.97,-214.45 368.47,-215.83 367.04,-208.98"/>
</g>
<!-- Node6 -->
<g id="node6" class="node">
<title>Node6</title>
<g id="a_node6"><a xlink:href="uart_8h.html" target="_top" xlink:title="BluetoothLE UART service setup and handling.">
<polygon fill="white" stroke="#666666" points="279.5,-96 138.5,-96 138.5,-66 279.5,-66 279.5,-96"/>
<text text-anchor="start" x="146.5" y="-84" font-family="Helvetica,sans-Serif" font-size="10.00">firmware/wombat/include</text>
<text text-anchor="middle" x="209" y="-73" font-family="Helvetica,sans-Serif" font-size="10.00">/bluetooth/uart.h</text>
</a>
</g>
</g>
<!-- Node5&#45;&gt;Node6 -->
<g id="edge5" class="edge">
<title>Node5&#45;&gt;Node6</title>
<path fill="none" stroke="#63b8ff" d="M202.53,-127.25C201.96,-116.81 202.26,-104.99 203.45,-96.04"/>
<polygon fill="#63b8ff" stroke="#63b8ff" points="199.07,-127.79 203.45,-137.44 206.04,-127.16 199.07,-127.79"/>
</g>
<!-- Node8 -->
<g id="node8" class="node">
<title>Node8</title>
<g id="a_node8"><a xlink:href="server_8cpp.html" target="_top" xlink:title="Setup and start BluetoothLE server.">
<polygon fill="white" stroke="#666666" points="418,-96 298,-96 298,-66 418,-66 418,-96"/>
<text text-anchor="start" x="306" y="-84" font-family="Helvetica,sans-Serif" font-size="10.00">firmware/wombat/src</text>
<text text-anchor="middle" x="358" y="-73" font-family="Helvetica,sans-Serif" font-size="10.00">/bluetooth/server.cpp</text>
</a>
</g>
</g>
<!-- Node5&#45;&gt;Node8 -->
<g id="edge8" class="edge">
<title>Node5&#45;&gt;Node8</title>
<path fill="none" stroke="#63b8ff" d="M248.34,-133.15C273.25,-121.53 304.98,-106.73 327.89,-96.04"/>
<polygon fill="#63b8ff" stroke="#63b8ff" points="246.74,-130.04 239.15,-137.44 249.69,-136.38 246.74,-130.04"/>
</g>
<!-- Node6&#45;&gt;Node5 -->
<g id="edge6" class="edge">
<title>Node6&#45;&gt;Node5</title>
<path fill="none" stroke="#63b8ff" d="M215.47,-106.23C216.04,-116.66 215.74,-128.49 214.55,-137.44"/>
<polygon fill="#63b8ff" stroke="#63b8ff" points="218.93,-105.69 214.55,-96.04 211.96,-106.32 218.93,-105.69"/>
</g>
<!-- Node7 -->
<g id="node7" class="node">
<title>Node7</title>
<g id="a_node7"><a xlink:href="uart_8cpp.html" target="_top" xlink:title="BluetoothLE UART service setup and handling.">
<polygon fill="white" stroke="#666666" points="269,-30 149,-30 149,0 269,0 269,-30"/>
<text text-anchor="start" x="157" y="-18" font-family="Helvetica,sans-Serif" font-size="10.00">firmware/wombat/src</text>
<text text-anchor="middle" x="209" y="-7" font-family="Helvetica,sans-Serif" font-size="10.00">/bluetooth/uart.cpp</text>
</a>
</g>
</g>
<!-- Node6&#45;&gt;Node7 -->
<g id="edge7" class="edge">
<title>Node6&#45;&gt;Node7</title>
<path fill="none" stroke="#63b8ff" d="M209,-55.54C209,-46.96 209,-37.61 209,-30.16"/>
<polygon fill="#63b8ff" stroke="#63b8ff" points="205.5,-55.8 209,-65.8 212.5,-55.8 205.5,-55.8"/>
</g>
<!-- Node15&#45;&gt;Node4 -->
<g id="edge17" class="edge">
<title>Node15&#45;&gt;Node4</title>
<path fill="none" stroke="#63b8ff" d="M453.79,-287.8C418.57,-274.59 371.08,-256.78 338.45,-244.54"/>
<polygon fill="#63b8ff" stroke="#63b8ff" points="452.79,-291.16 463.38,-291.39 455.25,-284.6 452.79,-291.16"/>
</g>
<!-- Node16 -->
<g id="node16" class="node">
<title>Node16</title>
<g id="a_node16"><a xlink:href="cli__power_8cpp.html" target="_top" xlink:title="Power related commands.">
<polygon fill="white" stroke="#666666" points="548,-250 428,-250 428,-209 548,-209 548,-250"/>
<text text-anchor="start" x="436" y="-238" font-family="Helvetica,sans-Serif" font-size="10.00">firmware/wombat/src</text>
<text text-anchor="start" x="436" y="-227" font-family="Helvetica,sans-Serif" font-size="10.00">/cli/device_config/cli</text>
<text text-anchor="middle" x="488" y="-216" font-family="Helvetica,sans-Serif" font-size="10.00">_power.cpp</text>
</a>
</g>
</g>
<!-- Node15&#45;&gt;Node16 -->
<g id="edge18" class="edge">
<title>Node15&#45;&gt;Node16</title>
<path fill="none" stroke="#63b8ff" d="M496.79,-281.23C495.05,-271.2 493.06,-259.71 491.42,-250.2"/>
<polygon fill="#63b8ff" stroke="#63b8ff" points="493.4,-282.14 498.55,-291.39 500.3,-280.94 493.4,-282.14"/>
</g>
<!-- Node17&#45;&gt;Node10 -->
<g id="edge26" class="edge">
<title>Node17&#45;&gt;Node10</title>
<path fill="none" stroke="#63b8ff" d="M809.8,-288.16C784.01,-279.22 754.67,-266.63 731,-250 711.16,-236.06 716.76,-219.7 695,-209 581.89,-153.4 253.23,-194.26 129,-173 126.06,-172.5 123.06,-171.92 120.04,-171.28"/>
<polygon fill="#63b8ff" stroke="#63b8ff" points="808.89,-291.55 819.48,-291.41 811.12,-284.91 808.89,-291.55"/>
</g>
<!-- Node17&#45;&gt;Node11 -->
<g id="edge27" class="edge">
<title>Node17&#45;&gt;Node11</title>
<path fill="none" stroke="#63b8ff" d="M843.26,-285.64C801,-256.45 722.58,-202.27 680.48,-173.18"/>
<polygon fill="#63b8ff" stroke="#63b8ff" points="841.48,-288.67 851.7,-291.47 845.46,-282.91 841.48,-288.67"/>
</g>
<!-- Node17&#45;&gt;Node13 -->
<g id="edge29" class="edge">
<title>Node17&#45;&gt;Node13</title>
<path fill="none" stroke="#63b8ff" d="M857.08,-282.5C845.97,-262.24 834.67,-232.39 847,-209 856.86,-190.3 876.17,-176.69 893.46,-167.64"/>
<polygon fill="#63b8ff" stroke="#63b8ff" points="854.18,-284.48 862.25,-291.34 860.22,-280.95 854.18,-284.48"/>
</g>
<!-- Node17&#45;&gt;Node14 -->
<g id="edge30" class="edge">
<title>Node17&#45;&gt;Node14</title>
<path fill="none" stroke="#63b8ff" d="M856.82,-282.69C850.45,-272.79 843.11,-260.97 837,-250 821.14,-221.51 805,-186.87 796.37,-167.81"/>
<polygon fill="#63b8ff" stroke="#63b8ff" points="853.95,-284.69 862.35,-291.16 859.82,-280.87 853.95,-284.69"/>
</g>
<!-- Node17&#45;&gt;Node16 -->
<g id="edge25" class="edge">
<title>Node17&#45;&gt;Node16</title>
<path fill="none" stroke="#63b8ff" d="M791.2,-293.57C727.3,-283.58 636,-268.07 557,-250 554.09,-249.33 551.11,-248.62 548.12,-247.88"/>
<polygon fill="#63b8ff" stroke="#63b8ff" points="790.8,-297.05 801.22,-295.12 791.87,-290.13 790.8,-297.05"/>
</g>
<!-- Node17&#45;&gt;Node18 -->
<g id="edge20" class="edge">
<title>Node17&#45;&gt;Node18</title>
<path fill="none" stroke="#63b8ff" d="M816.44,-288.56C772.92,-275.29 713.09,-257.05 672.17,-244.58"/>
<polygon fill="#63b8ff" stroke="#63b8ff" points="815.43,-291.91 826.02,-291.48 817.47,-285.22 815.43,-291.91"/>
</g>
<!-- Node19 -->
<g id="node19" class="node">
<title>Node19</title>
<g id="a_node19"><a xlink:href="_device_config_8cpp.html" target="_top" xlink:title=" ">
<polygon fill="white" stroke="#666666" points="976,-244.5 856,-244.5 856,-214.5 976,-214.5 976,-244.5"/>
<text text-anchor="start" x="864" y="-232.5" font-family="Helvetica,sans-Serif" font-size="10.00">firmware/wombat/src</text>
<text text-anchor="middle" x="916" y="-221.5" font-family="Helvetica,sans-Serif" font-size="10.00">/DeviceConfig.cpp</text>
</a>
</g>
</g>
<!-- Node17&#45;&gt;Node19 -->
<g id="edge21" class="edge">
<title>Node17&#45;&gt;Node19</title>
<path fill="none" stroke="#63b8ff" d="M885.49,-282.51C892.76,-270.11 901.5,-255.21 907.76,-244.54"/>
<polygon fill="#63b8ff" stroke="#63b8ff" points="882.32,-281 880.28,-291.39 888.36,-284.54 882.32,-281"/>
</g>
<!-- Node20 -->
<g id="node20" class="node">
<title>Node20</title>
<g id="a_node20"><a xlink:href="_sensor_task_8cpp.html" target="_top" xlink:title=" ">
<polygon fill="white" stroke="#666666" points="1114,-244.5 994,-244.5 994,-214.5 1114,-214.5 1114,-244.5"/>
<text text-anchor="start" x="1002" y="-232.5" font-family="Helvetica,sans-Serif" font-size="10.00">firmware/wombat/src</text>
<text text-anchor="middle" x="1054" y="-221.5" font-family="Helvetica,sans-Serif" font-size="10.00">/SensorTask.cpp</text>
</a>
</g>
</g>
<!-- Node17&#45;&gt;Node20 -->
<g id="edge22" class="edge">
<title>Node17&#45;&gt;Node20</title>
<path fill="none" stroke="#63b8ff" d="M915.78,-287.46C947.75,-274.28 990.48,-256.68 1019.92,-244.54"/>
<polygon fill="#63b8ff" stroke="#63b8ff" points="914.15,-284.35 906.23,-291.39 916.81,-290.82 914.15,-284.35"/>
</g>
<!-- Node17&#45;&gt;Node21 -->
<g id="edge23" class="edge">
<title>Node17&#45;&gt;Node21</title>
<path fill="none" stroke="#63b8ff" d="M936.59,-289.38C943.45,-288.06 950.35,-286.89 957,-286 1352.03,-233.22 1459.41,-312.63 1853,-250 1861.24,-248.69 1869.89,-246.73 1878.17,-244.55"/>
<polygon fill="#63b8ff" stroke="#63b8ff" points="935.7,-285.98 926.6,-291.41 937.09,-292.84 935.7,-285.98"/>
</g>
<!-- Node22 -->
<g id="node22" class="node">
<title>Node22</title>
<g id="a_node22"><a xlink:href="acquisition__intervals_8cpp.html" target="_top" xlink:title="Handles the time between measurements and uplinks by the device over LTE.">
<polygon fill="white" stroke="#666666" points="1289.5,-250 1132.5,-250 1132.5,-209 1289.5,-209 1289.5,-250"/>
<text text-anchor="start" x="1140.5" y="-238" font-family="Helvetica,sans-Serif" font-size="10.00">firmware/wombat/src</text>
<text text-anchor="start" x="1140.5" y="-227" font-family="Helvetica,sans-Serif" font-size="10.00">/cli/device_config/acquisition</text>
<text text-anchor="middle" x="1211" y="-216" font-family="Helvetica,sans-Serif" font-size="10.00">_intervals.cpp</text>
</a>
</g>
</g>
<!-- Node17&#45;&gt;Node22 -->
<g id="edge24" class="edge">
<title>Node17&#45;&gt;Node22</title>
<path fill="none" stroke="#63b8ff" d="M942.73,-289.21C947.56,-288.11 952.35,-287.04 957,-286 1030.68,-269.56 1049.26,-266.17 1123,-250 1126.06,-249.33 1129.17,-248.65 1132.32,-247.95"/>
<polygon fill="#63b8ff" stroke="#63b8ff" points="941.78,-285.83 932.8,-291.46 943.33,-292.66 941.78,-285.83"/>
</g>
<!-- Node23 -->
<g id="node23" class="node">
<title>Node23</title>
<g id="a_node23"><a xlink:href="ftp__stack_8cpp.html" target="_top" xlink:title=" ">
<polygon fill="white" stroke="#666666" points="1428,-244.5 1308,-244.5 1308,-214.5 1428,-214.5 1428,-244.5"/>
<text text-anchor="start" x="1316" y="-232.5" font-family="Helvetica,sans-Serif" font-size="10.00">firmware/wombat/src</text>
<text text-anchor="middle" x="1368" y="-221.5" font-family="Helvetica,sans-Serif" font-size="10.00">/ftp_stack.cpp</text>
</a>
</g>
</g>
<!-- Node17&#45;&gt;Node23 -->
<g id="edge28" class="edge">
<title>Node17&#45;&gt;Node23</title>
<path fill="none" stroke="#63b8ff" d="M939.09,-289.32C945.13,-288.1 951.16,-286.97 957,-286 1107.76,-260.87 1148.92,-278.89 1299,-250 1306.7,-248.52 1314.79,-246.58 1322.61,-244.51"/>
<polygon fill="#63b8ff" stroke="#63b8ff" points="938.04,-285.97 928.96,-291.44 939.47,-292.82 938.04,-285.97"/>
</g>
<!-- Node24 -->
<g id="node24" class="node">
<title>Node24</title>
<g id="a_node24"><a xlink:href="ota__update_8cpp.html" target="_top" xlink:title=" ">
<polygon fill="white" stroke="#666666" points="1566,-244.5 1446,-244.5 1446,-214.5 1566,-214.5 1566,-244.5"/>
<text text-anchor="start" x="1454" y="-232.5" font-family="Helvetica,sans-Serif" font-size="10.00">firmware/wombat/src</text>
<text text-anchor="middle" x="1506" y="-221.5" font-family="Helvetica,sans-Serif" font-size="10.00">/ota_update.cpp</text>
</a>
</g>
</g>
<!-- Node17&#45;&gt;Node24 -->
<g id="edge31" class="edge">
<title>Node17&#45;&gt;Node24</title>
<path fill="none" stroke="#63b8ff" d="M937.71,-289.4C944.2,-288.12 950.71,-286.95 957,-286 1168.52,-253.99 1226.34,-287.28 1437,-250 1444.97,-248.59 1453.34,-246.64 1461.39,-244.51"/>
<polygon fill="#63b8ff" stroke="#63b8ff" points="936.64,-286.04 927.55,-291.49 938.05,-292.9 936.64,-286.04"/>
</g>
<!-- Node25 -->
<g id="node25" class="node">
<title>Node25</title>
<g id="a_node25"><a xlink:href="interface_8cpp.html" target="_top" xlink:title=" ">
<polygon fill="white" stroke="#666666" points="1706,-244.5 1584,-244.5 1584,-214.5 1706,-214.5 1706,-244.5"/>
<text text-anchor="start" x="1592" y="-232.5" font-family="Helvetica,sans-Serif" font-size="10.00">firmware/wombat/src</text>
<text text-anchor="middle" x="1645" y="-221.5" font-family="Helvetica,sans-Serif" font-size="10.00">/sd&#45;card/interface.cpp</text>
</a>
</g>
</g>
<!-- Node17&#45;&gt;Node25 -->
<g id="edge32" class="edge">
<title>Node17&#45;&gt;Node25</title>
<path fill="none" stroke="#63b8ff" d="M936.91,-289.44C943.67,-288.12 950.45,-286.93 957,-286 1229.37,-247.1 1303.6,-295.17 1575,-250 1583.21,-248.63 1591.84,-246.67 1600.13,-244.52"/>
<polygon fill="#63b8ff" stroke="#63b8ff" points="936.17,-286.02 927.07,-291.46 937.57,-292.88 936.17,-286.02"/>
</g>
<!-- Node26 -->
<g id="node26" class="node">
<title>Node26</title>
<g id="a_node26"><a xlink:href="uplinks_8cpp.html" target="_top" xlink:title=" ">
<polygon fill="white" stroke="#666666" points="1844,-244.5 1724,-244.5 1724,-214.5 1844,-214.5 1844,-244.5"/>
<text text-anchor="start" x="1732" y="-232.5" font-family="Helvetica,sans-Serif" font-size="10.00">firmware/wombat/src</text>
<text text-anchor="middle" x="1784" y="-221.5" font-family="Helvetica,sans-Serif" font-size="10.00">/uplinks.cpp</text>
</a>
</g>
</g>
<!-- Node17&#45;&gt;Node26 -->
<g id="edge33" class="edge">
<title>Node17&#45;&gt;Node26</title>
<path fill="none" stroke="#63b8ff" d="M936.59,-289.43C943.45,-288.1 950.35,-286.91 957,-286 1291.13,-240.11 1382.12,-304.21 1715,-250 1723.11,-248.68 1731.62,-246.74 1739.79,-244.6"/>
<polygon fill="#63b8ff" stroke="#63b8ff" points="935.7,-286.04 926.6,-291.47 937.1,-292.89 935.7,-286.04"/>
</g>
</g>
</svg>
