<?xml version="1.0" encoding="UTF-8" standalone="no"?>
<!DOCTYPE svg PUBLIC "-//W3C//DTD SVG 1.1//EN"
 "http://www.w3.org/Graphics/SVG/1.1/DTD/svg11.dtd">
<!-- Generated by graphviz version 2.43.0 (0)
 -->
<!-- Title: firmware/wombat/lib/TCA9534/include/TCA9534.h Pages: 1 -->
<svg width="1147pt" height="445pt"
 viewBox="0.00 0.00 1147.00 445.00" xmlns="http://www.w3.org/2000/svg" xmlns:xlink="http://www.w3.org/1999/xlink">
<g id="graph0" class="graph" transform="scale(1 1) rotate(0) translate(4 441)">
<title>firmware/wombat/lib/TCA9534/include/TCA9534.h</title>
<!-- Node1 -->
<g id="node1" class="node">
<title>Node1</title>
<g id="a_node1"><a xlink:title=" ">
<polygon fill="#999999" stroke="#666666" points="1139,-437 984,-437 984,-407 1139,-407 1139,-437"/>
<text text-anchor="start" x="992" y="-425" font-family="Helvetica,sans-Serif" font-size="10.00">firmware/wombat/lib</text>
<text text-anchor="middle" x="1061.5" y="-414" font-family="Helvetica,sans-Serif" font-size="10.00">/TCA9534/include/TCA9534.h</text>
</a>
</g>
</g>
<!-- Node2 -->
<g id="node2" class="node">
<title>Node2</title>
<g id="a_node2"><a xlink:href="_c_a_t___m1_8h.html" target="_top" xlink:title=" ">
<polygon fill="white" stroke="#666666" points="559.5,-371 419.5,-371 419.5,-341 559.5,-341 559.5,-371"/>
<text text-anchor="start" x="427.5" y="-359" font-family="Helvetica,sans-Serif" font-size="10.00">firmware/wombat/lib</text>
<text text-anchor="middle" x="489.5" y="-348" font-family="Helvetica,sans-Serif" font-size="10.00">/CatM1/include/CAT_M1.h</text>
</a>
</g>
</g>
<!-- Node1&#45;&gt;Node2 -->
<g id="edge1" class="edge">
<title>Node1&#45;&gt;Node2</title>
<path fill="none" stroke="#63b8ff" d="M973.7,-411.18C860.06,-398.46 664.28,-376.56 559.88,-364.87"/>
<polygon fill="#63b8ff" stroke="#63b8ff" points="973.44,-414.67 983.76,-412.3 974.21,-407.71 973.44,-414.67"/>
</g>
<!-- Node10 -->
<g id="node10" class="node">
<title>Node10</title>
<g id="a_node10"><a xlink:href="main_8cpp.html" target="_top" xlink:title=" ">
<polygon fill="white" stroke="#666666" points="555.5,-162 435.5,-162 435.5,-132 555.5,-132 555.5,-162"/>
<text text-anchor="start" x="443.5" y="-150" font-family="Helvetica,sans-Serif" font-size="10.00">firmware/wombat/src</text>
<text text-anchor="middle" x="495.5" y="-139" font-family="Helvetica,sans-Serif" font-size="10.00">/main.cpp</text>
</a>
</g>
</g>
<!-- Node1&#45;&gt;Node10 -->
<g id="edge27" class="edge">
<title>Node1&#45;&gt;Node10</title>
<path fill="none" stroke="#63b8ff" d="M1068.21,-396.81C1079.31,-350.95 1095.37,-251.2 1042.5,-198 1008.72,-164.01 690.78,-152.57 555.72,-149.23"/>
<polygon fill="#63b8ff" stroke="#63b8ff" points="1064.76,-396.2 1065.68,-406.75 1071.54,-397.93 1064.76,-396.2"/>
</g>
<!-- Node15 -->
<g id="node15" class="node">
<title>Node15</title>
<g id="a_node15"><a xlink:href="_utils_8cpp.html" target="_top" xlink:title="Global utility functions.">
<polygon fill="white" stroke="#666666" points="1033.5,-233.5 913.5,-233.5 913.5,-203.5 1033.5,-203.5 1033.5,-233.5"/>
<text text-anchor="start" x="921.5" y="-221.5" font-family="Helvetica,sans-Serif" font-size="10.00">firmware/wombat/src</text>
<text text-anchor="middle" x="973.5" y="-210.5" font-family="Helvetica,sans-Serif" font-size="10.00">/Utils.cpp</text>
</a>
</g>
</g>
<!-- Node1&#45;&gt;Node15 -->
<g id="edge26" class="edge">
<title>Node1&#45;&gt;Node15</title>
<path fill="none" stroke="#63b8ff" d="M1051.29,-397.62C1032.87,-355.45 994.63,-267.89 979.68,-233.65"/>
<polygon fill="#63b8ff" stroke="#63b8ff" points="1048.1,-399.07 1055.31,-406.83 1054.52,-396.27 1048.1,-399.07"/>
</g>
<!-- Node3 -->
<g id="node3" class="node">
<title>Node3</title>
<g id="a_node3"><a xlink:href="cat-m1_8h.html" target="_top" xlink:title="CAT&#45;M1 CLI command request and response handler.">
<polygon fill="white" stroke="#666666" points="291,-305 150,-305 150,-275 291,-275 291,-305"/>
<text text-anchor="start" x="158" y="-293" font-family="Helvetica,sans-Serif" font-size="10.00">firmware/wombat/include</text>
<text text-anchor="middle" x="220.5" y="-282" font-family="Helvetica,sans-Serif" font-size="10.00">/cli/peripherals/cat&#45;m1.h</text>
</a>
</g>
</g>
<!-- Node2&#45;&gt;Node3 -->
<g id="edge2" class="edge">
<title>Node2&#45;&gt;Node3</title>
<path fill="none" stroke="#63b8ff" d="M420.5,-338.58C376.83,-328.19 320.97,-314.9 279.4,-305.01"/>
<polygon fill="#63b8ff" stroke="#63b8ff" points="419.93,-342.05 430.47,-340.95 421.55,-335.24 419.93,-342.05"/>
</g>
<!-- Node11 -->
<g id="node11" class="node">
<title>Node11</title>
<g id="a_node11"><a xlink:href="mqtt__stack_8cpp.html" target="_top" xlink:title=" ">
<polygon fill="white" stroke="#666666" points="417.5,-162 297.5,-162 297.5,-132 417.5,-132 417.5,-162"/>
<text text-anchor="start" x="305.5" y="-150" font-family="Helvetica,sans-Serif" font-size="10.00">firmware/wombat/src</text>
<text text-anchor="middle" x="357.5" y="-139" font-family="Helvetica,sans-Serif" font-size="10.00">/mqtt_stack.cpp</text>
</a>
</g>
</g>
<!-- Node2&#45;&gt;Node11 -->
<g id="edge25" class="edge">
<title>Node2&#45;&gt;Node11</title>
<path fill="none" stroke="#63b8ff" d="M448.11,-335.97C434.57,-328.03 420.45,-317.67 410.5,-305 375.48,-260.44 362.97,-191.49 359.07,-162.07"/>
<polygon fill="#63b8ff" stroke="#63b8ff" points="446.44,-339.04 456.89,-340.83 449.84,-332.92 446.44,-339.04"/>
</g>
<!-- Node12 -->
<g id="node12" class="node">
<title>Node12</title>
<g id="a_node12"><a xlink:href="cat-m1_8cpp.html" target="_top" xlink:title="CAT&#45;M1 CLI command request and response handler.">
<polygon fill="white" stroke="#666666" points="329.5,-239 209.5,-239 209.5,-198 329.5,-198 329.5,-239"/>
<text text-anchor="start" x="217.5" y="-227" font-family="Helvetica,sans-Serif" font-size="10.00">firmware/wombat/src</text>
<text text-anchor="start" x="217.5" y="-216" font-family="Helvetica,sans-Serif" font-size="10.00">/cli/peripherals/cat</text>
<text text-anchor="middle" x="269.5" y="-205" font-family="Helvetica,sans-Serif" font-size="10.00">&#45;m1.cpp</text>
</a>
</g>
</g>
<!-- Node2&#45;&gt;Node12 -->
<g id="edge24" class="edge">
<title>Node2&#45;&gt;Node12</title>
<path fill="none" stroke="#63b8ff" d="M415.52,-337.95C391.28,-330.26 365.07,-319.56 343.5,-305 317.46,-287.43 295.07,-258.42 281.93,-239.14"/>
<polygon fill="#63b8ff" stroke="#63b8ff" points="414.82,-341.39 425.4,-340.95 416.86,-334.7 414.82,-341.39"/>
</g>
<!-- Node13 -->
<g id="node13" class="node">
<title>Node13</title>
<g id="a_node13"><a xlink:href="globals_8h.html" target="_top" xlink:title=" ">
<polygon fill="white" stroke="#666666" points="560,-305 419,-305 419,-275 560,-275 560,-305"/>
<text text-anchor="start" x="427" y="-293" font-family="Helvetica,sans-Serif" font-size="10.00">firmware/wombat/include</text>
<text text-anchor="middle" x="489.5" y="-282" font-family="Helvetica,sans-Serif" font-size="10.00">/globals.h</text>
</a>
</g>
</g>
<!-- Node2&#45;&gt;Node13 -->
<g id="edge14" class="edge">
<title>Node2&#45;&gt;Node13</title>
<path fill="none" stroke="#63b8ff" d="M489.5,-330.54C489.5,-321.96 489.5,-312.61 489.5,-305.16"/>
<polygon fill="#63b8ff" stroke="#63b8ff" points="486,-330.8 489.5,-340.8 493,-330.8 486,-330.8"/>
</g>
<!-- Node2&#45;&gt;Node15 -->
<g id="edge23" class="edge">
<title>Node2&#45;&gt;Node15</title>
<path fill="none" stroke="#63b8ff" d="M522.09,-335.62C536.79,-326.63 554.24,-315.6 569.5,-305 587.46,-292.52 588.26,-283.28 608.5,-275 731.16,-224.82 774.57,-265.1 904.5,-239 912.07,-237.48 920.02,-235.55 927.72,-233.5"/>
<polygon fill="#63b8ff" stroke="#63b8ff" points="520.07,-332.75 513.34,-340.93 523.71,-338.73 520.07,-332.75"/>
</g>
<!-- Node18 -->
<g id="node18" class="node">
<title>Node18</title>
<g id="a_node18"><a xlink:href="_c_a_t___m1_8cpp.html" target="_top" xlink:title=" ">
<polygon fill="white" stroke="#666666" points="748,-305 617,-305 617,-275 748,-275 748,-305"/>
<text text-anchor="start" x="625" y="-293" font-family="Helvetica,sans-Serif" font-size="10.00">firmware/wombat/lib</text>
<text text-anchor="middle" x="682.5" y="-282" font-family="Helvetica,sans-Serif" font-size="10.00">/CatM1/src/CAT_M1.cpp</text>
</a>
</g>
</g>
<!-- Node2&#45;&gt;Node18 -->
<g id="edge22" class="edge">
<title>Node2&#45;&gt;Node18</title>
<path fill="none" stroke="#63b8ff" d="M541.6,-337.72C572.52,-327.47 611.23,-314.63 640.24,-305.01"/>
<polygon fill="#63b8ff" stroke="#63b8ff" points="540.24,-334.49 531.85,-340.95 542.45,-341.13 540.24,-334.49"/>
</g>
<!-- Node4 -->
<g id="node4" class="node">
<title>Node4</title>
<g id="a_node4"><a xlink:href="_c_l_i_8h.html" target="_top" xlink:title="FreeRTOS CLI handler.">
<polygon fill="white" stroke="#666666" points="191,-233.5 50,-233.5 50,-203.5 191,-203.5 191,-233.5"/>
<text text-anchor="start" x="58" y="-221.5" font-family="Helvetica,sans-Serif" font-size="10.00">firmware/wombat/include</text>
<text text-anchor="middle" x="120.5" y="-210.5" font-family="Helvetica,sans-Serif" font-size="10.00">/cli/CLI.h</text>
</a>
</g>
</g>
<!-- Node3&#45;&gt;Node4 -->
<g id="edge3" class="edge">
<title>Node3&#45;&gt;Node4</title>
<path fill="none" stroke="#63b8ff" d="M191.64,-268.94C175.33,-257.6 155.34,-243.71 140.71,-233.54"/>
<polygon fill="#63b8ff" stroke="#63b8ff" points="190.05,-272.1 200.26,-274.94 194.05,-266.35 190.05,-272.1"/>
</g>
<!-- Node3&#45;&gt;Node12 -->
<g id="edge13" class="edge">
<title>Node3&#45;&gt;Node12</title>
<path fill="none" stroke="#63b8ff" d="M236.3,-266.59C242.55,-257.73 249.66,-247.63 255.7,-239.07"/>
<polygon fill="#63b8ff" stroke="#63b8ff" points="233.32,-264.75 230.42,-274.94 239.04,-268.78 233.32,-264.75"/>
</g>
<!-- Node5 -->
<g id="node5" class="node">
<title>Node5</title>
<g id="a_node5"><a xlink:href="server_8h.html" target="_top" xlink:title="Handle the setup and maintenance of the BLE server and connected clients.">
<polygon fill="white" stroke="#666666" points="141,-162 0,-162 0,-132 141,-132 141,-162"/>
<text text-anchor="start" x="8" y="-150" font-family="Helvetica,sans-Serif" font-size="10.00">firmware/wombat/include</text>
<text text-anchor="middle" x="70.5" y="-139" font-family="Helvetica,sans-Serif" font-size="10.00">/bluetooth/server.h</text>
</a>
</g>
</g>
<!-- Node4&#45;&gt;Node5 -->
<g id="edge4" class="edge">
<title>Node4&#45;&gt;Node5</title>
<path fill="none" stroke="#63b8ff" d="M98.37,-195.53C89.73,-184.57 80.69,-171.65 75.06,-162.04"/>
<polygon fill="#63b8ff" stroke="#63b8ff" points="95.79,-197.91 104.83,-203.44 101.21,-193.48 95.79,-197.91"/>
</g>
<!-- Node9 -->
<g id="node9" class="node">
<title>Node9</title>
<g id="a_node9"><a xlink:href="_c_l_i_8cpp.html" target="_top" xlink:title="FreeRTOS CLI handler.">
<polygon fill="white" stroke="#666666" points="279.5,-162 159.5,-162 159.5,-132 279.5,-132 279.5,-162"/>
<text text-anchor="start" x="167.5" y="-150" font-family="Helvetica,sans-Serif" font-size="10.00">firmware/wombat/src</text>
<text text-anchor="middle" x="219.5" y="-139" font-family="Helvetica,sans-Serif" font-size="10.00">/cli/CLI.cpp</text>
</a>
</g>
</g>
<!-- Node4&#45;&gt;Node9 -->
<g id="edge10" class="edge">
<title>Node4&#45;&gt;Node9</title>
<path fill="none" stroke="#63b8ff" d="M149.07,-197.44C165.22,-186.1 185.01,-172.21 199.5,-162.04"/>
<polygon fill="#63b8ff" stroke="#63b8ff" points="146.71,-194.83 140.53,-203.44 150.73,-200.55 146.71,-194.83"/>
</g>
<!-- Node4&#45;&gt;Node10 -->
<g id="edge11" class="edge">
<title>Node4&#45;&gt;Node10</title>
<path fill="none" stroke="#63b8ff" d="M185.31,-201.23C190.44,-200.09 195.55,-199 200.5,-198 300.21,-177.94 326.42,-180.12 426.5,-162 429.39,-161.48 432.34,-160.93 435.32,-160.37"/>
<polygon fill="#63b8ff" stroke="#63b8ff" points="184.42,-197.84 175.45,-203.48 185.98,-204.67 184.42,-197.84"/>
</g>
<!-- Node4&#45;&gt;Node11 -->
<g id="edge12" class="edge">
<title>Node4&#45;&gt;Node11</title>
<path fill="none" stroke="#63b8ff" d="M178.15,-200.59C218.45,-188.78 271.64,-173.18 309.61,-162.04"/>
<polygon fill="#63b8ff" stroke="#63b8ff" points="177.07,-197.26 168.46,-203.44 179.04,-203.98 177.07,-197.26"/>
</g>
<!-- Node5&#45;&gt;Node4 -->
<g id="edge8" class="edge">
<title>Node5&#45;&gt;Node4</title>
<path fill="none" stroke="#63b8ff" d="M92.61,-169.95C101.25,-180.9 110.29,-193.83 115.93,-203.44"/>
<polygon fill="#63b8ff" stroke="#63b8ff" points="95.19,-167.57 86.15,-162.04 89.77,-172 95.19,-167.57"/>
</g>
<!-- Node6 -->
<g id="node6" class="node">
<title>Node6</title>
<g id="a_node6"><a xlink:href="uart_8h.html" target="_top" xlink:title="BluetoothLE UART service setup and handling.">
<polygon fill="white" stroke="#666666" points="141,-96 0,-96 0,-66 141,-66 141,-96"/>
<text text-anchor="start" x="8" y="-84" font-family="Helvetica,sans-Serif" font-size="10.00">firmware/wombat/include</text>
<text text-anchor="middle" x="70.5" y="-73" font-family="Helvetica,sans-Serif" font-size="10.00">/bluetooth/uart.h</text>
</a>
</g>
</g>
<!-- Node5&#45;&gt;Node6 -->
<g id="edge5" class="edge">
<title>Node5&#45;&gt;Node6</title>
<path fill="none" stroke="#63b8ff" d="M63.93,-121.83C63.52,-113.17 63.81,-103.7 64.79,-96.16"/>
<polygon fill="#63b8ff" stroke="#63b8ff" points="60.45,-122.13 64.78,-131.8 67.42,-121.54 60.45,-122.13"/>
</g>
<!-- Node8 -->
<g id="node8" class="node">
<title>Node8</title>
<g id="a_node8"><a xlink:href="server_8cpp.html" target="_top" xlink:title="Setup and start BluetoothLE server.">
<polygon fill="white" stroke="#666666" points="279.5,-96 159.5,-96 159.5,-66 279.5,-66 279.5,-96"/>
<text text-anchor="start" x="167.5" y="-84" font-family="Helvetica,sans-Serif" font-size="10.00">firmware/wombat/src</text>
<text text-anchor="middle" x="219.5" y="-73" font-family="Helvetica,sans-Serif" font-size="10.00">/bluetooth/server.cpp</text>
</a>
</g>
</g>
<!-- Node5&#45;&gt;Node8 -->
<g id="edge9" class="edge">
<title>Node5&#45;&gt;Node8</title>
<path fill="none" stroke="#63b8ff" d="M112.59,-127.92C136.14,-117.8 165.06,-105.38 186.88,-96.01"/>
<polygon fill="#63b8ff" stroke="#63b8ff" points="111.01,-124.79 103.2,-131.95 113.77,-131.22 111.01,-124.79"/>
</g>
<!-- Node6&#45;&gt;Node5 -->
<g id="edge6" class="edge">
<title>Node6&#45;&gt;Node5</title>
<path fill="none" stroke="#63b8ff" d="M77.07,-106.13C77.48,-114.78 77.2,-124.26 76.22,-131.8"/>
<polygon fill="#63b8ff" stroke="#63b8ff" points="80.55,-105.83 76.21,-96.16 73.58,-106.43 80.55,-105.83"/>
</g>
<!-- Node7 -->
<g id="node7" class="node">
<title>Node7</title>
<g id="a_node7"><a xlink:href="uart_8cpp.html" target="_top" xlink:title="BluetoothLE UART service setup and handling.">
<polygon fill="white" stroke="#666666" points="130.5,-30 10.5,-30 10.5,0 130.5,0 130.5,-30"/>
<text text-anchor="start" x="18.5" y="-18" font-family="Helvetica,sans-Serif" font-size="10.00">firmware/wombat/src</text>
<text text-anchor="middle" x="70.5" y="-7" font-family="Helvetica,sans-Serif" font-size="10.00">/bluetooth/uart.cpp</text>
</a>
</g>
</g>
<!-- Node6&#45;&gt;Node7 -->
<g id="edge7" class="edge">
<title>Node6&#45;&gt;Node7</title>
<path fill="none" stroke="#63b8ff" d="M70.5,-55.54C70.5,-46.96 70.5,-37.61 70.5,-30.16"/>
<polygon fill="#63b8ff" stroke="#63b8ff" points="67,-55.8 70.5,-65.8 74,-55.8 67,-55.8"/>
</g>
<!-- Node13&#45;&gt;Node10 -->
<g id="edge19" class="edge">
<title>Node13&#45;&gt;Node10</title>
<path fill="none" stroke="#63b8ff" d="M468.4,-266.85C462.01,-258.73 455.81,-249.05 452.5,-239 446.79,-221.69 446.16,-215.09 452.5,-198 457.68,-184.04 468.68,-171.37 478.27,-162.27"/>
<polygon fill="#63b8ff" stroke="#63b8ff" points="465.89,-269.31 475.01,-274.7 471.24,-264.8 465.89,-269.31"/>
</g>
<!-- Node13&#45;&gt;Node11 -->
<g id="edge20" class="edge">
<title>Node13&#45;&gt;Node11</title>
<path fill="none" stroke="#63b8ff" d="M469.25,-267.37C441.99,-238.25 394.23,-187.23 370.98,-162.4"/>
<polygon fill="#63b8ff" stroke="#63b8ff" points="466.97,-270.06 476.36,-274.96 472.08,-265.27 466.97,-270.06"/>
</g>
<!-- Node13&#45;&gt;Node12 -->
<g id="edge18" class="edge">
<title>Node13&#45;&gt;Node12</title>
<path fill="none" stroke="#63b8ff" d="M435.35,-271.89C403.36,-261.79 362.8,-248.97 329.8,-238.55"/>
<polygon fill="#63b8ff" stroke="#63b8ff" points="434.39,-275.26 444.98,-274.94 436.5,-268.59 434.39,-275.26"/>
</g>
<!-- Node14 -->
<g id="node14" class="node">
<title>Node14</title>
<g id="a_node14"><a xlink:href="_sensor_task_8cpp.html" target="_top" xlink:title=" ">
<polygon fill="white" stroke="#666666" points="581.5,-233.5 461.5,-233.5 461.5,-203.5 581.5,-203.5 581.5,-233.5"/>
<text text-anchor="start" x="469.5" y="-221.5" font-family="Helvetica,sans-Serif" font-size="10.00">firmware/wombat/src</text>
<text text-anchor="middle" x="521.5" y="-210.5" font-family="Helvetica,sans-Serif" font-size="10.00">/SensorTask.cpp</text>
</a>
</g>
</g>
<!-- Node13&#45;&gt;Node14 -->
<g id="edge15" class="edge">
<title>Node13&#45;&gt;Node14</title>
<path fill="none" stroke="#63b8ff" d="M500.21,-265.73C505.13,-255.06 510.79,-242.77 515.03,-233.54"/>
<polygon fill="#63b8ff" stroke="#63b8ff" points="496.98,-264.39 495.98,-274.94 503.34,-267.32 496.98,-264.39"/>
</g>
<!-- Node13&#45;&gt;Node15 -->
<g id="edge16" class="edge">
<title>Node13&#45;&gt;Node15</title>
<path fill="none" stroke="#63b8ff" d="M570.59,-275.54C571.91,-275.36 573.21,-275.18 574.5,-275 720.68,-255 759.68,-267.16 904.5,-239 912.08,-237.53 920.03,-235.62 927.73,-233.58"/>
<polygon fill="#63b8ff" stroke="#63b8ff" points="569.81,-272.12 560.42,-277.02 570.82,-279.05 569.81,-272.12"/>
</g>
<!-- Node16 -->
<g id="node16" class="node">
<title>Node16</title>
<g id="a_node16"><a xlink:href="acquisition__intervals_8cpp.html" target="_top" xlink:title="Handles the time between measurements and uplinks by the device over LTE.">
<polygon fill="white" stroke="#666666" points="757,-239 600,-239 600,-198 757,-198 757,-239"/>
<text text-anchor="start" x="608" y="-227" font-family="Helvetica,sans-Serif" font-size="10.00">firmware/wombat/src</text>
<text text-anchor="start" x="608" y="-216" font-family="Helvetica,sans-Serif" font-size="10.00">/cli/device_config/acquisition</text>
<text text-anchor="middle" x="678.5" y="-205" font-family="Helvetica,sans-Serif" font-size="10.00">_intervals.cpp</text>
</a>
</g>
</g>
<!-- Node13&#45;&gt;Node16 -->
<g id="edge17" class="edge">
<title>Node13&#45;&gt;Node16</title>
<path fill="none" stroke="#63b8ff" d="M537.3,-271.42C564.11,-261.56 597.62,-249.24 625.27,-239.07"/>
<polygon fill="#63b8ff" stroke="#63b8ff" points="535.92,-268.2 527.75,-274.94 538.34,-274.77 535.92,-268.2"/>
</g>
<!-- Node17 -->
<g id="node17" class="node">
<title>Node17</title>
<g id="a_node17"><a xlink:href="uplinks_8cpp.html" target="_top" xlink:title=" ">
<polygon fill="white" stroke="#666666" points="895.5,-233.5 775.5,-233.5 775.5,-203.5 895.5,-203.5 895.5,-233.5"/>
<text text-anchor="start" x="783.5" y="-221.5" font-family="Helvetica,sans-Serif" font-size="10.00">firmware/wombat/src</text>
<text text-anchor="middle" x="835.5" y="-210.5" font-family="Helvetica,sans-Serif" font-size="10.00">/uplinks.cpp</text>
</a>
</g>
</g>
<!-- Node13&#45;&gt;Node17 -->
<g id="edge21" class="edge">
<title>Node13&#45;&gt;Node17</title>
<path fill="none" stroke="#63b8ff" d="M570.38,-275.29C638.37,-263.61 730.1,-247.41 766.5,-239 773.53,-237.38 780.92,-235.49 788.15,-233.53"/>
<polygon fill="#63b8ff" stroke="#63b8ff" points="569.38,-271.92 560.11,-277.06 570.56,-278.82 569.38,-271.92"/>
</g>
</g>
</svg>
