<?xml version="1.0" encoding="UTF-8" standalone="no"?>
<!DOCTYPE svg PUBLIC "-//W3C//DTD SVG 1.1//EN"
 "http://www.w3.org/Graphics/SVG/1.1/DTD/svg11.dtd">
<!-- Generated by graphviz version 2.43.0 (0)
 -->
<!-- Title: firmware/wombat/lib/TCA9534/include/TCA9534.h Pages: 1 -->
<svg width="1611pt" height="456pt"
 viewBox="0.00 0.00 1611.42 456.00" xmlns="http://www.w3.org/2000/svg" xmlns:xlink="http://www.w3.org/1999/xlink">
<g id="graph0" class="graph" transform="scale(1 1) rotate(0) translate(4 452)">
<title>firmware/wombat/lib/TCA9534/include/TCA9534.h</title>
<!-- Node1 -->
<g id="node1" class="node">
<title>Node1</title>
<g id="a_node1"><a xlink:title=" ">
<polygon fill="#999999" stroke="#666666" points="1593.5,-448 1438.5,-448 1438.5,-418 1593.5,-418 1593.5,-448"/>
<text text-anchor="start" x="1446.5" y="-436" font-family="Helvetica,sans-Serif" font-size="10.00">firmware/wombat/lib</text>
<text text-anchor="middle" x="1516" y="-425" font-family="Helvetica,sans-Serif" font-size="10.00">/TCA9534/include/TCA9534.h</text>
</a>
</g>
</g>
<!-- Node2 -->
<g id="node2" class="node">
<title>Node2</title>
<g id="a_node2"><a xlink:href="_c_a_t___m1_8h.html" target="_top" xlink:title=" ">
<polygon fill="white" stroke="#666666" points="654.5,-382 513.5,-382 513.5,-352 654.5,-352 654.5,-382"/>
<text text-anchor="start" x="521.5" y="-370" font-family="Helvetica,sans-Serif" font-size="10.00">firmware/wombat/include</text>
<text text-anchor="middle" x="584" y="-359" font-family="Helvetica,sans-Serif" font-size="10.00">/CAT_M1.h</text>
</a>
</g>
</g>
<!-- Node1&#45;&gt;Node2 -->
<g id="edge1" class="edge">
<title>Node1&#45;&gt;Node2</title>
<path fill="none" stroke="#63b8ff" d="M1427.97,-425.95C1244.04,-413.32 822.21,-384.36 654.57,-372.85"/>
<polygon fill="#63b8ff" stroke="#63b8ff" points="1427.92,-429.46 1438.14,-426.65 1428.4,-422.48 1427.92,-429.46"/>
</g>
<!-- Node14 -->
<g id="node14" class="node">
<title>Node14</title>
<g id="a_node14"><a xlink:href="main_8cpp.html" target="_top" xlink:title=" ">
<polygon fill="white" stroke="#666666" points="1350,-167.5 1230,-167.5 1230,-137.5 1350,-137.5 1350,-167.5"/>
<text text-anchor="start" x="1238" y="-155.5" font-family="Helvetica,sans-Serif" font-size="10.00">firmware/wombat/src</text>
<text text-anchor="middle" x="1290" y="-144.5" font-family="Helvetica,sans-Serif" font-size="10.00">/main.cpp</text>
</a>
</g>
</g>
<!-- Node1&#45;&gt;Node14 -->
<g id="edge40" class="edge">
<title>Node1&#45;&gt;Node14</title>
<path fill="none" stroke="#63b8ff" d="M1534.73,-410.1C1569.33,-366.91 1635.33,-269.68 1585,-209 1555.76,-173.75 1427.63,-160.74 1350.17,-156.05"/>
<polygon fill="#63b8ff" stroke="#63b8ff" points="1531.9,-408.03 1528.27,-417.99 1537.31,-412.47 1531.9,-408.03"/>
</g>
<!-- Node21 -->
<g id="node21" class="node">
<title>Node21</title>
<g id="a_node21"><a xlink:href="_utils_8cpp.html" target="_top" xlink:title="Global utility functions.">
<polygon fill="white" stroke="#666666" points="1576,-244.5 1456,-244.5 1456,-214.5 1576,-214.5 1576,-244.5"/>
<text text-anchor="start" x="1464" y="-232.5" font-family="Helvetica,sans-Serif" font-size="10.00">firmware/wombat/src</text>
<text text-anchor="middle" x="1516" y="-221.5" font-family="Helvetica,sans-Serif" font-size="10.00">/Utils.cpp</text>
</a>
</g>
</g>
<!-- Node1&#45;&gt;Node21 -->
<g id="edge39" class="edge">
<title>Node1&#45;&gt;Node21</title>
<path fill="none" stroke="#63b8ff" d="M1516,-407.81C1516,-365.35 1516,-278.67 1516,-244.65"/>
<polygon fill="#63b8ff" stroke="#63b8ff" points="1512.5,-407.83 1516,-417.83 1519.5,-407.83 1512.5,-407.83"/>
</g>
<!-- Node3 -->
<g id="node3" class="node">
<title>Node3</title>
<g id="a_node3"><a xlink:href="cat-m1_8h.html" target="_top" xlink:title="CAT&#45;M1 CLI command request and response handler.">
<polygon fill="white" stroke="#666666" points="217.5,-316 76.5,-316 76.5,-286 217.5,-286 217.5,-316"/>
<text text-anchor="start" x="84.5" y="-304" font-family="Helvetica,sans-Serif" font-size="10.00">firmware/wombat/include</text>
<text text-anchor="middle" x="147" y="-293" font-family="Helvetica,sans-Serif" font-size="10.00">/cli/peripherals/cat&#45;m1.h</text>
</a>
</g>
</g>
<!-- Node2&#45;&gt;Node3 -->
<g id="edge2" class="edge">
<title>Node2&#45;&gt;Node3</title>
<path fill="none" stroke="#63b8ff" d="M503.2,-355.04C431.81,-345.23 324.9,-330.25 232,-316 227.42,-315.3 222.7,-314.56 217.94,-313.81"/>
<polygon fill="#63b8ff" stroke="#63b8ff" points="503.09,-358.56 513.47,-356.45 504.04,-351.62 503.09,-358.56"/>
</g>
<!-- Node10 -->
<g id="node10" class="node">
<title>Node10</title>
<g id="a_node10"><a xlink:href="cat-m1_8cpp.html" target="_top" xlink:title="CAT&#45;M1 CLI command request and response handler.">
<polygon fill="white" stroke="#666666" points="120,-173 0,-173 0,-132 120,-132 120,-173"/>
<text text-anchor="start" x="8" y="-161" font-family="Helvetica,sans-Serif" font-size="10.00">firmware/wombat/src</text>
<text text-anchor="start" x="8" y="-150" font-family="Helvetica,sans-Serif" font-size="10.00">/cli/peripherals/cat</text>
<text text-anchor="middle" x="60" y="-139" font-family="Helvetica,sans-Serif" font-size="10.00">&#45;m1.cpp</text>
</a>
</g>
</g>
<!-- Node2&#45;&gt;Node10 -->
<g id="edge36" class="edge">
<title>Node2&#45;&gt;Node10</title>
<path fill="none" stroke="#63b8ff" d="M503.17,-363.9C365.23,-359.49 96.37,-346.98 67,-316 30.28,-277.27 43.97,-207.15 53.64,-173.11"/>
<polygon fill="#63b8ff" stroke="#63b8ff" points="503.16,-367.4 513.27,-364.22 503.38,-360.4 503.16,-367.4"/>
</g>
<!-- Node13 -->
<g id="node13" class="node">
<title>Node13</title>
<g id="a_node13"><a xlink:href="ftp__stack_8cpp.html" target="_top" xlink:title=" ">
<polygon fill="white" stroke="#666666" points="258,-167.5 138,-167.5 138,-137.5 258,-137.5 258,-167.5"/>
<text text-anchor="start" x="146" y="-155.5" font-family="Helvetica,sans-Serif" font-size="10.00">firmware/wombat/src</text>
<text text-anchor="middle" x="198" y="-144.5" font-family="Helvetica,sans-Serif" font-size="10.00">/ftp_stack.cpp</text>
</a>
</g>
</g>
<!-- Node2&#45;&gt;Node13 -->
<g id="edge37" class="edge">
<title>Node2&#45;&gt;Node13</title>
<path fill="none" stroke="#63b8ff" d="M503.36,-362.65C420.79,-354.72 294.69,-329.37 223,-250 202,-226.75 198.2,-188.14 197.77,-167.51"/>
<polygon fill="#63b8ff" stroke="#63b8ff" points="503.19,-366.14 513.46,-363.55 503.81,-359.17 503.19,-366.14"/>
</g>
<!-- Node15 -->
<g id="node15" class="node">
<title>Node15</title>
<g id="a_node15"><a xlink:href="mqtt__stack_8cpp.html" target="_top" xlink:title=" ">
<polygon fill="white" stroke="#666666" points="850,-167.5 730,-167.5 730,-137.5 850,-137.5 850,-167.5"/>
<text text-anchor="start" x="738" y="-155.5" font-family="Helvetica,sans-Serif" font-size="10.00">firmware/wombat/src</text>
<text text-anchor="middle" x="790" y="-144.5" font-family="Helvetica,sans-Serif" font-size="10.00">/mqtt_stack.cpp</text>
</a>
</g>
</g>
<!-- Node2&#45;&gt;Node15 -->
<g id="edge38" class="edge">
<title>Node2&#45;&gt;Node15</title>
<path fill="none" stroke="#63b8ff" d="M579.49,-341.93C574.62,-308.11 571.35,-246.48 603,-209 605.3,-206.28 685.59,-183.09 740.2,-167.56"/>
<polygon fill="#63b8ff" stroke="#63b8ff" points="576.04,-342.55 581.08,-351.87 582.95,-341.44 576.04,-342.55"/>
</g>
<!-- Node16 -->
<g id="node16" class="node">
<title>Node16</title>
<g id="a_node16"><a xlink:href="cli__power_8h.html" target="_top" xlink:title=" ">
<polygon fill="white" stroke="#666666" points="556,-316 410,-316 410,-286 556,-286 556,-316"/>
<text text-anchor="start" x="418" y="-304" font-family="Helvetica,sans-Serif" font-size="10.00">firmware/wombat/include</text>
<text text-anchor="middle" x="483" y="-293" font-family="Helvetica,sans-Serif" font-size="10.00">/cli/peripherals/cli_power.h</text>
</a>
</g>
</g>
<!-- Node2&#45;&gt;Node16 -->
<g id="edge18" class="edge">
<title>Node2&#45;&gt;Node16</title>
<path fill="none" stroke="#63b8ff" d="M552.91,-346.3C537.54,-336.56 519.33,-325.02 505.35,-316.16"/>
<polygon fill="#63b8ff" stroke="#63b8ff" points="551.26,-349.4 561.58,-351.8 555.01,-343.49 551.26,-349.4"/>
</g>
<!-- Node18 -->
<g id="node18" class="node">
<title>Node18</title>
<g id="a_node18"><a xlink:href="globals_8h.html" target="_top" xlink:title=" ">
<polygon fill="white" stroke="#666666" points="1058.5,-316 917.5,-316 917.5,-286 1058.5,-286 1058.5,-316"/>
<text text-anchor="start" x="925.5" y="-304" font-family="Helvetica,sans-Serif" font-size="10.00">firmware/wombat/include</text>
<text text-anchor="middle" x="988" y="-293" font-family="Helvetica,sans-Serif" font-size="10.00">/globals.h</text>
</a>
</g>
</g>
<!-- Node2&#45;&gt;Node18 -->
<g id="edge21" class="edge">
<title>Node2&#45;&gt;Node18</title>
<path fill="none" stroke="#63b8ff" d="M665.02,-353.17C738.85,-341.47 846.82,-324.37 917.25,-313.21"/>
<polygon fill="#63b8ff" stroke="#63b8ff" points="664.16,-349.76 654.83,-354.78 665.26,-356.67 664.16,-349.76"/>
</g>
<!-- Node19 -->
<g id="node19" class="node">
<title>Node19</title>
<g id="a_node19"><a xlink:href="_c_a_t___m1_8cpp.html" target="_top" xlink:title=" ">
<polygon fill="white" stroke="#666666" points="1438,-244.5 1318,-244.5 1318,-214.5 1438,-214.5 1438,-244.5"/>
<text text-anchor="start" x="1326" y="-232.5" font-family="Helvetica,sans-Serif" font-size="10.00">firmware/wombat/src</text>
<text text-anchor="middle" x="1378" y="-221.5" font-family="Helvetica,sans-Serif" font-size="10.00">/CAT_M1.cpp</text>
</a>
</g>
</g>
<!-- Node2&#45;&gt;Node19 -->
<g id="edge34" class="edge">
<title>Node2&#45;&gt;Node19</title>
<path fill="none" stroke="#63b8ff" d="M664.65,-361.78C761.2,-355.78 927.48,-342.45 1068,-316 1165.39,-297.67 1276.76,-263.66 1335.9,-244.52"/>
<polygon fill="#63b8ff" stroke="#63b8ff" points="664.43,-358.28 654.66,-362.39 664.86,-365.27 664.43,-358.28"/>
</g>
<!-- Node2&#45;&gt;Node21 -->
<g id="edge35" class="edge">
<title>Node2&#45;&gt;Node21</title>
<path fill="none" stroke="#63b8ff" d="M665.06,-361.89C773.98,-355.65 973.4,-341.69 1142,-316 1279.11,-295.1 1312.42,-283.54 1447,-250 1453.76,-248.31 1460.87,-246.43 1467.85,-244.52"/>
<polygon fill="#63b8ff" stroke="#63b8ff" points="664.59,-358.41 654.8,-362.47 664.99,-365.4 664.59,-358.41"/>
</g>
<!-- Node4 -->
<g id="node4" class="node">
<title>Node4</title>
<g id="a_node4"><a xlink:href="_c_l_i_8h.html" target="_top" xlink:title="FreeRTOS CLI handler.">
<polygon fill="white" stroke="#666666" points="417.5,-244.5 276.5,-244.5 276.5,-214.5 417.5,-214.5 417.5,-244.5"/>
<text text-anchor="start" x="284.5" y="-232.5" font-family="Helvetica,sans-Serif" font-size="10.00">firmware/wombat/include</text>
<text text-anchor="middle" x="347" y="-221.5" font-family="Helvetica,sans-Serif" font-size="10.00">/cli/CLI.h</text>
</a>
</g>
</g>
<!-- Node3&#45;&gt;Node4 -->
<g id="edge3" class="edge">
<title>Node3&#45;&gt;Node4</title>
<path fill="none" stroke="#63b8ff" d="M197.17,-282.57C230.99,-270.81 275.02,-255.51 306.59,-244.54"/>
<polygon fill="#63b8ff" stroke="#63b8ff" points="195.77,-279.35 187.47,-285.94 198.07,-285.96 195.77,-279.35"/>
</g>
<!-- Node3&#45;&gt;Node10 -->
<g id="edge17" class="edge">
<title>Node3&#45;&gt;Node10</title>
<path fill="none" stroke="#63b8ff" d="M133.4,-277.09C116.45,-248.55 87.77,-200.27 71.74,-173.27"/>
<polygon fill="#63b8ff" stroke="#63b8ff" points="130.54,-279.14 138.66,-285.95 136.56,-275.57 130.54,-279.14"/>
</g>
<!-- Node5 -->
<g id="node5" class="node">
<title>Node5</title>
<g id="a_node5"><a xlink:href="server_8h.html" target="_top" xlink:title="Handle the setup and maintenance of the BLE server and connected clients.">
<polygon fill="white" stroke="#666666" points="417.5,-167.5 276.5,-167.5 276.5,-137.5 417.5,-137.5 417.5,-167.5"/>
<text text-anchor="start" x="284.5" y="-155.5" font-family="Helvetica,sans-Serif" font-size="10.00">firmware/wombat/include</text>
<text text-anchor="middle" x="347" y="-144.5" font-family="Helvetica,sans-Serif" font-size="10.00">/bluetooth/server.h</text>
</a>
</g>
</g>
<!-- Node4&#45;&gt;Node5 -->
<g id="edge4" class="edge">
<title>Node4&#45;&gt;Node5</title>
<path fill="none" stroke="#63b8ff" d="M340.65,-204.41C339.89,-192.24 340.21,-177.9 341.6,-167.54"/>
<polygon fill="#63b8ff" stroke="#63b8ff" points="337.17,-204.76 341.59,-214.39 344.14,-204.11 337.17,-204.76"/>
</g>
<!-- Node9 -->
<g id="node9" class="node">
<title>Node9</title>
<g id="a_node9"><a xlink:href="_c_l_i_8cpp.html" target="_top" xlink:title="FreeRTOS CLI handler.">
<polygon fill="white" stroke="#666666" points="556,-167.5 436,-167.5 436,-137.5 556,-137.5 556,-167.5"/>
<text text-anchor="start" x="444" y="-155.5" font-family="Helvetica,sans-Serif" font-size="10.00">firmware/wombat/src</text>
<text text-anchor="middle" x="496" y="-144.5" font-family="Helvetica,sans-Serif" font-size="10.00">/cli/CLI.cpp</text>
</a>
</g>
</g>
<!-- Node4&#45;&gt;Node9 -->
<g id="edge10" class="edge">
<title>Node4&#45;&gt;Node9</title>
<path fill="none" stroke="#63b8ff" d="M384.21,-209.77C410.22,-196.68 444.41,-179.47 468.1,-167.54"/>
<polygon fill="#63b8ff" stroke="#63b8ff" points="382.38,-206.77 375.03,-214.39 385.53,-213.02 382.38,-206.77"/>
</g>
<!-- Node4&#45;&gt;Node10 -->
<g id="edge11" class="edge">
<title>Node4&#45;&gt;Node10</title>
<path fill="none" stroke="#63b8ff" d="M280.15,-211.96C236.95,-201.16 179.56,-186.58 129,-173 126.11,-172.23 123.16,-171.42 120.19,-170.61"/>
<polygon fill="#63b8ff" stroke="#63b8ff" points="279.43,-215.39 289.98,-214.42 281.12,-208.6 279.43,-215.39"/>
</g>
<!-- Node11 -->
<g id="node11" class="node">
<title>Node11</title>
<g id="a_node11"><a xlink:href="sd__card_8cpp.html" target="_top" xlink:title=" ">
<polygon fill="white" stroke="#666666" points="1081,-173 961,-173 961,-132 1081,-132 1081,-173"/>
<text text-anchor="start" x="969" y="-161" font-family="Helvetica,sans-Serif" font-size="10.00">firmware/wombat/src</text>
<text text-anchor="start" x="969" y="-150" font-family="Helvetica,sans-Serif" font-size="10.00">/cli/peripherals/sd</text>
<text text-anchor="middle" x="1021" y="-139" font-family="Helvetica,sans-Serif" font-size="10.00">_card.cpp</text>
</a>
</g>
</g>
<!-- Node4&#45;&gt;Node11 -->
<g id="edge12" class="edge">
<title>Node4&#45;&gt;Node11</title>
<path fill="none" stroke="#63b8ff" d="M409.54,-212.27C415.42,-211.04 421.31,-209.93 427,-209 617.17,-178.09 667.33,-192.52 859,-173 892.68,-169.57 930.21,-165.09 960.67,-161.3"/>
<polygon fill="#63b8ff" stroke="#63b8ff" points="408.71,-208.87 399.69,-214.43 410.21,-215.71 408.71,-208.87"/>
</g>
<!-- Node12 -->
<g id="node12" class="node">
<title>Node12</title>
<g id="a_node12"><a xlink:href="sdi12_8cpp.html" target="_top" xlink:title="SDI&#45;12 command line interface handler.">
<polygon fill="white" stroke="#666666" points="712,-167.5 574,-167.5 574,-137.5 712,-137.5 712,-167.5"/>
<text text-anchor="start" x="582" y="-155.5" font-family="Helvetica,sans-Serif" font-size="10.00">firmware/wombat/src</text>
<text text-anchor="middle" x="643" y="-144.5" font-family="Helvetica,sans-Serif" font-size="10.00">/cli/peripherals/sdi12.cpp</text>
</a>
</g>
</g>
<!-- Node4&#45;&gt;Node12 -->
<g id="edge13" class="edge">
<title>Node4&#45;&gt;Node12</title>
<path fill="none" stroke="#63b8ff" d="M412.23,-211.97C464.81,-198.65 537.95,-180.12 587.69,-167.51"/>
<polygon fill="#63b8ff" stroke="#63b8ff" points="411.16,-208.63 402.33,-214.48 412.88,-215.42 411.16,-208.63"/>
</g>
<!-- Node4&#45;&gt;Node13 -->
<g id="edge14" class="edge">
<title>Node4&#45;&gt;Node13</title>
<path fill="none" stroke="#63b8ff" d="M309.79,-209.77C283.78,-196.68 249.59,-179.47 225.9,-167.54"/>
<polygon fill="#63b8ff" stroke="#63b8ff" points="308.47,-213.02 318.97,-214.39 311.62,-206.77 308.47,-213.02"/>
</g>
<!-- Node4&#45;&gt;Node14 -->
<g id="edge15" class="edge">
<title>Node4&#45;&gt;Node14</title>
<path fill="none" stroke="#63b8ff" d="M408.22,-212.36C414.53,-211.06 420.87,-209.9 427,-209 718.93,-165.87 795.74,-195.32 1090,-173 1136.96,-169.44 1190.01,-164.21 1229.67,-160.06"/>
<polygon fill="#63b8ff" stroke="#63b8ff" points="407.4,-208.96 398.37,-214.5 408.88,-215.8 407.4,-208.96"/>
</g>
<!-- Node4&#45;&gt;Node15 -->
<g id="edge16" class="edge">
<title>Node4&#45;&gt;Node15</title>
<path fill="none" stroke="#63b8ff" d="M410.83,-212.24C416.28,-211.06 421.73,-209.96 427,-209 556.5,-185.37 591.95,-198.98 721,-173 728.44,-171.5 736.26,-169.61 743.84,-167.6"/>
<polygon fill="#63b8ff" stroke="#63b8ff" points="410.04,-208.83 401.04,-214.42 411.56,-215.66 410.04,-208.83"/>
</g>
<!-- Node5&#45;&gt;Node4 -->
<g id="edge8" class="edge">
<title>Node5&#45;&gt;Node4</title>
<path fill="none" stroke="#63b8ff" d="M353.35,-177.51C354.11,-189.68 353.79,-204.02 352.41,-214.39"/>
<polygon fill="#63b8ff" stroke="#63b8ff" points="356.83,-177.17 352.4,-167.54 349.86,-177.83 356.83,-177.17"/>
</g>
<!-- Node6 -->
<g id="node6" class="node">
<title>Node6</title>
<g id="a_node6"><a xlink:href="uart_8h.html" target="_top" xlink:title="BluetoothLE UART service setup and handling.">
<polygon fill="white" stroke="#666666" points="417.5,-96 276.5,-96 276.5,-66 417.5,-66 417.5,-96"/>
<text text-anchor="start" x="284.5" y="-84" font-family="Helvetica,sans-Serif" font-size="10.00">firmware/wombat/include</text>
<text text-anchor="middle" x="347" y="-73" font-family="Helvetica,sans-Serif" font-size="10.00">/bluetooth/uart.h</text>
</a>
</g>
</g>
<!-- Node5&#45;&gt;Node6 -->
<g id="edge5" class="edge">
<title>Node5&#45;&gt;Node6</title>
<path fill="none" stroke="#63b8ff" d="M340.53,-127.25C339.96,-116.81 340.26,-104.99 341.45,-96.04"/>
<polygon fill="#63b8ff" stroke="#63b8ff" points="337.07,-127.79 341.45,-137.44 344.04,-127.16 337.07,-127.79"/>
</g>
<!-- Node8 -->
<g id="node8" class="node">
<title>Node8</title>
<g id="a_node8"><a xlink:href="server_8cpp.html" target="_top" xlink:title="Setup and start BluetoothLE server.">
<polygon fill="white" stroke="#666666" points="556,-96 436,-96 436,-66 556,-66 556,-96"/>
<text text-anchor="start" x="444" y="-84" font-family="Helvetica,sans-Serif" font-size="10.00">firmware/wombat/src</text>
<text text-anchor="middle" x="496" y="-73" font-family="Helvetica,sans-Serif" font-size="10.00">/bluetooth/server.cpp</text>
</a>
</g>
</g>
<!-- Node5&#45;&gt;Node8 -->
<g id="edge9" class="edge">
<title>Node5&#45;&gt;Node8</title>
<path fill="none" stroke="#63b8ff" d="M386.34,-133.15C411.25,-121.53 442.98,-106.73 465.89,-96.04"/>
<polygon fill="#63b8ff" stroke="#63b8ff" points="384.74,-130.04 377.15,-137.44 387.69,-136.38 384.74,-130.04"/>
</g>
<!-- Node6&#45;&gt;Node5 -->
<g id="edge6" class="edge">
<title>Node6&#45;&gt;Node5</title>
<path fill="none" stroke="#63b8ff" d="M353.47,-106.23C354.04,-116.66 353.74,-128.49 352.55,-137.44"/>
<polygon fill="#63b8ff" stroke="#63b8ff" points="356.93,-105.69 352.55,-96.04 349.96,-106.32 356.93,-105.69"/>
</g>
<!-- Node7 -->
<g id="node7" class="node">
<title>Node7</title>
<g id="a_node7"><a xlink:href="uart_8cpp.html" target="_top" xlink:title="BluetoothLE UART service setup and handling.">
<polygon fill="white" stroke="#666666" points="407,-30 287,-30 287,0 407,0 407,-30"/>
<text text-anchor="start" x="295" y="-18" font-family="Helvetica,sans-Serif" font-size="10.00">firmware/wombat/src</text>
<text text-anchor="middle" x="347" y="-7" font-family="Helvetica,sans-Serif" font-size="10.00">/bluetooth/uart.cpp</text>
</a>
</g>
</g>
<!-- Node6&#45;&gt;Node7 -->
<g id="edge7" class="edge">
<title>Node6&#45;&gt;Node7</title>
<path fill="none" stroke="#63b8ff" d="M347,-55.54C347,-46.96 347,-37.61 347,-30.16"/>
<polygon fill="#63b8ff" stroke="#63b8ff" points="343.5,-55.8 347,-65.8 350.5,-55.8 343.5,-55.8"/>
</g>
<!-- Node16&#45;&gt;Node4 -->
<g id="edge19" class="edge">
<title>Node16&#45;&gt;Node4</title>
<path fill="none" stroke="#63b8ff" d="M446.49,-281.34C423.84,-269.77 395.21,-255.14 374.48,-244.54"/>
<polygon fill="#63b8ff" stroke="#63b8ff" points="444.98,-284.5 455.48,-285.94 448.17,-278.27 444.98,-284.5"/>
</g>
<!-- Node17 -->
<g id="node17" class="node">
<title>Node17</title>
<g id="a_node17"><a xlink:href="cli__power_8cpp.html" target="_top" xlink:title="Power related commands.">
<polygon fill="white" stroke="#666666" points="556,-250 436,-250 436,-209 556,-209 556,-250"/>
<text text-anchor="start" x="444" y="-238" font-family="Helvetica,sans-Serif" font-size="10.00">firmware/wombat/src</text>
<text text-anchor="start" x="444" y="-227" font-family="Helvetica,sans-Serif" font-size="10.00">/cli/device_config/cli</text>
<text text-anchor="middle" x="496" y="-216" font-family="Helvetica,sans-Serif" font-size="10.00">_power.cpp</text>
</a>
</g>
</g>
<!-- Node16&#45;&gt;Node17 -->
<g id="edge20" class="edge">
<title>Node16&#45;&gt;Node17</title>
<path fill="none" stroke="#63b8ff" d="M487.51,-275.91C489.08,-267.47 490.84,-258.1 492.34,-250.07"/>
<polygon fill="#63b8ff" stroke="#63b8ff" points="484.03,-275.46 485.63,-285.94 490.91,-276.75 484.03,-275.46"/>
</g>
<!-- Node18&#45;&gt;Node10 -->
<g id="edge27" class="edge">
<title>Node18&#45;&gt;Node10</title>
<path fill="none" stroke="#63b8ff" d="M907.07,-296.82C723.79,-289.33 287.94,-269.68 224,-250 170.17,-233.43 115.29,-196.13 84.65,-173.06"/>
<polygon fill="#63b8ff" stroke="#63b8ff" points="907.06,-300.33 917.19,-297.24 907.34,-293.33 907.06,-300.33"/>
</g>
<!-- Node18&#45;&gt;Node11 -->
<g id="edge28" class="edge">
<title>Node18&#45;&gt;Node11</title>
<path fill="none" stroke="#63b8ff" d="M1052.36,-281.67C1067.22,-274.29 1081.23,-264.07 1090,-250 1099.64,-234.54 1097.87,-225.43 1090,-209 1082.96,-194.3 1069.92,-182.26 1057.06,-173.2"/>
<polygon fill="#63b8ff" stroke="#63b8ff" points="1050.69,-278.58 1043.04,-285.91 1053.59,-284.96 1050.69,-278.58"/>
</g>
<!-- Node18&#45;&gt;Node13 -->
<g id="edge29" class="edge">
<title>Node18&#45;&gt;Node13</title>
<path fill="none" stroke="#63b8ff" d="M907.43,-298.26C730.99,-293.91 321.76,-280.61 267,-250 233.92,-231.51 212.75,-189.75 203.45,-167.72"/>
<polygon fill="#63b8ff" stroke="#63b8ff" points="907.36,-301.76 917.44,-298.51 907.53,-294.76 907.36,-301.76"/>
</g>
<!-- Node18&#45;&gt;Node14 -->
<g id="edge30" class="edge">
<title>Node18&#45;&gt;Node14</title>
<path fill="none" stroke="#63b8ff" d="M1068.87,-295.72C1142.18,-290.11 1242.93,-277.53 1271,-250 1293.19,-228.24 1293.43,-188.65 1291.72,-167.57"/>
<polygon fill="#63b8ff" stroke="#63b8ff" points="1068.43,-292.24 1058.71,-296.46 1068.94,-299.22 1068.43,-292.24"/>
</g>
<!-- Node18&#45;&gt;Node15 -->
<g id="edge31" class="edge">
<title>Node18&#45;&gt;Node15</title>
<path fill="none" stroke="#63b8ff" d="M1028.03,-280.36C1039.5,-272.59 1050.62,-262.5 1057,-250 1065.28,-233.77 1068.5,-223.14 1057,-209 1043.98,-193 924.99,-173.07 850.31,-161.97"/>
<polygon fill="#63b8ff" stroke="#63b8ff" points="1025.88,-277.57 1019.26,-285.84 1029.59,-283.51 1025.88,-277.57"/>
</g>
<!-- Node18&#45;&gt;Node17 -->
<g id="edge26" class="edge">
<title>Node18&#45;&gt;Node17</title>
<path fill="none" stroke="#63b8ff" d="M907,-290.7C828.97,-281.45 707.68,-266.33 603,-250 587.79,-247.63 571.43,-244.79 556.18,-242.02"/>
<polygon fill="#63b8ff" stroke="#63b8ff" points="906.9,-294.21 917.24,-291.91 907.72,-287.26 906.9,-294.21"/>
</g>
<!-- Node18&#45;&gt;Node19 -->
<g id="edge22" class="edge">
<title>Node18&#45;&gt;Node19</title>
<path fill="none" stroke="#63b8ff" d="M1068.7,-289.52C1132.8,-280.64 1224.54,-266.71 1304,-250 1311.67,-248.39 1319.74,-246.48 1327.61,-244.5"/>
<polygon fill="#63b8ff" stroke="#63b8ff" points="1068.09,-286.07 1058.66,-290.9 1069.04,-293 1068.09,-286.07"/>
</g>
<!-- Node20 -->
<g id="node20" class="node">
<title>Node20</title>
<g id="a_node20"><a xlink:href="_sensor_task_8cpp.html" target="_top" xlink:title=" ">
<polygon fill="white" stroke="#666666" points="1262,-244.5 1142,-244.5 1142,-214.5 1262,-214.5 1262,-244.5"/>
<text text-anchor="start" x="1150" y="-232.5" font-family="Helvetica,sans-Serif" font-size="10.00">firmware/wombat/src</text>
<text text-anchor="middle" x="1202" y="-221.5" font-family="Helvetica,sans-Serif" font-size="10.00">/SensorTask.cpp</text>
</a>
</g>
</g>
<!-- Node18&#45;&gt;Node20 -->
<g id="edge23" class="edge">
<title>Node18&#45;&gt;Node20</title>
<path fill="none" stroke="#63b8ff" d="M1041.21,-282.72C1077.46,-270.95 1124.84,-255.56 1158.76,-244.54"/>
<polygon fill="#63b8ff" stroke="#63b8ff" points="1039.74,-279.52 1031.31,-285.94 1041.9,-286.18 1039.74,-279.52"/>
</g>
<!-- Node18&#45;&gt;Node21 -->
<g id="edge24" class="edge">
<title>Node18&#45;&gt;Node21</title>
<path fill="none" stroke="#63b8ff" d="M1068.63,-295.3C1160.77,-289 1315.79,-275.5 1447,-250 1454.58,-248.53 1462.53,-246.62 1470.23,-244.59"/>
<polygon fill="#63b8ff" stroke="#63b8ff" points="1068.27,-291.82 1058.53,-295.98 1068.74,-298.8 1068.27,-291.82"/>
</g>
<!-- Node22 -->
<g id="node22" class="node">
<title>Node22</title>
<g id="a_node22"><a xlink:href="acquisition__intervals_8cpp.html" target="_top" xlink:title="Handles the time between measurements and uplinks by the device over LTE.">
<polygon fill="white" stroke="#666666" points="769.5,-250 612.5,-250 612.5,-209 769.5,-209 769.5,-250"/>
<text text-anchor="start" x="620.5" y="-238" font-family="Helvetica,sans-Serif" font-size="10.00">firmware/wombat/src</text>
<text text-anchor="start" x="620.5" y="-227" font-family="Helvetica,sans-Serif" font-size="10.00">/cli/device_config/acquisition</text>
<text text-anchor="middle" x="691" y="-216" font-family="Helvetica,sans-Serif" font-size="10.00">_intervals.cpp</text>
</a>
</g>
</g>
<!-- Node18&#45;&gt;Node22 -->
<g id="edge25" class="edge">
<title>Node18&#45;&gt;Node22</title>
<path fill="none" stroke="#63b8ff" d="M918.03,-283.63C873.5,-273.21 815.74,-259.69 769.62,-248.9"/>
<polygon fill="#63b8ff" stroke="#63b8ff" points="917.36,-287.06 927.9,-285.94 918.96,-280.25 917.36,-287.06"/>
</g>
<!-- Node23 -->
<g id="node23" class="node">
<title>Node23</title>
<g id="a_node23"><a xlink:href="interface_8cpp.html" target="_top" xlink:title=" ">
<polygon fill="white" stroke="#666666" points="910,-244.5 788,-244.5 788,-214.5 910,-214.5 910,-244.5"/>
<text text-anchor="start" x="796" y="-232.5" font-family="Helvetica,sans-Serif" font-size="10.00">firmware/wombat/src</text>
<text text-anchor="middle" x="849" y="-221.5" font-family="Helvetica,sans-Serif" font-size="10.00">/sd&#45;card/interface.cpp</text>
</a>
</g>
</g>
<!-- Node18&#45;&gt;Node23 -->
<g id="edge32" class="edge">
<title>Node18&#45;&gt;Node23</title>
<path fill="none" stroke="#63b8ff" d="M950.69,-281.34C927.54,-269.77 898.27,-255.14 877.09,-244.54"/>
<polygon fill="#63b8ff" stroke="#63b8ff" points="949.36,-284.59 959.87,-285.94 952.49,-278.33 949.36,-284.59"/>
</g>
<!-- Node24 -->
<g id="node24" class="node">
<title>Node24</title>
<g id="a_node24"><a xlink:href="uplinks_8cpp.html" target="_top" xlink:title=" ">
<polygon fill="white" stroke="#666666" points="1048,-244.5 928,-244.5 928,-214.5 1048,-214.5 1048,-244.5"/>
<text text-anchor="start" x="936" y="-232.5" font-family="Helvetica,sans-Serif" font-size="10.00">firmware/wombat/src</text>
<text text-anchor="middle" x="988" y="-221.5" font-family="Helvetica,sans-Serif" font-size="10.00">/uplinks.cpp</text>
</a>
</g>
</g>
<!-- Node18&#45;&gt;Node24 -->
<g id="edge33" class="edge">
<title>Node18&#45;&gt;Node24</title>
<path fill="none" stroke="#63b8ff" d="M988,-275.75C988,-265.31 988,-253.49 988,-244.54"/>
<polygon fill="#63b8ff" stroke="#63b8ff" points="984.5,-275.94 988,-285.94 991.5,-275.94 984.5,-275.94"/>
</g>
</g>
</svg>
