<?xml version="1.0" encoding="UTF-8" standalone="no"?>
<!DOCTYPE svg PUBLIC "-//W3C//DTD SVG 1.1//EN"
 "http://www.w3.org/Graphics/SVG/1.1/DTD/svg11.dtd">
<!-- Generated by graphviz version 2.43.0 (0)
 -->
<!-- Title: firmware/wombat/lib/TCA9534/include/TCA9534.h Pages: 1 -->
<svg width="2227pt" height="456pt"
 viewBox="0.00 0.00 2226.50 456.00" xmlns="http://www.w3.org/2000/svg" xmlns:xlink="http://www.w3.org/1999/xlink">
<g id="graph0" class="graph" transform="scale(1 1) rotate(0) translate(4 452)">
<title>firmware/wombat/lib/TCA9534/include/TCA9534.h</title>
<!-- Node1 -->
<g id="node1" class="node">
<title>Node1</title>
<g id="a_node1"><a xlink:title=" ">
<polygon fill="#999999" stroke="#666666" points="2218.5,-448 2063.5,-448 2063.5,-418 2218.5,-418 2218.5,-448"/>
<text text-anchor="start" x="2071.5" y="-436" font-family="Helvetica,sans-Serif" font-size="10.00">firmware/wombat/lib</text>
<text text-anchor="middle" x="2141" y="-425" font-family="Helvetica,sans-Serif" font-size="10.00">/TCA9534/include/TCA9534.h</text>
</a>
</g>
</g>
<!-- Node2 -->
<g id="node2" class="node">
<title>Node2</title>
<g id="a_node2"><a xlink:href="_c_a_t___m1_8h.html" target="_top" xlink:title=" ">
<polygon fill="white" stroke="#666666" points="1054.5,-382 913.5,-382 913.5,-352 1054.5,-352 1054.5,-382"/>
<text text-anchor="start" x="921.5" y="-370" font-family="Helvetica,sans-Serif" font-size="10.00">firmware/wombat/include</text>
<text text-anchor="middle" x="984" y="-359" font-family="Helvetica,sans-Serif" font-size="10.00">/CAT_M1.h</text>
</a>
</g>
</g>
<!-- Node1&#45;&gt;Node2 -->
<g id="edge1" class="edge">
<title>Node1&#45;&gt;Node2</title>
<path fill="none" stroke="#63b8ff" d="M2053.03,-427.13C1831.86,-414.9 1255.95,-383.04 1054.68,-371.91"/>
<polygon fill="#63b8ff" stroke="#63b8ff" points="2053.11,-430.64 2063.29,-427.7 2053.5,-423.65 2053.11,-430.64"/>
</g>
<!-- Node13 -->
<g id="node13" class="node">
<title>Node13</title>
<g id="a_node13"><a xlink:href="main_8cpp.html" target="_top" xlink:title=" ">
<polygon fill="white" stroke="#666666" points="988,-167.5 868,-167.5 868,-137.5 988,-137.5 988,-167.5"/>
<text text-anchor="start" x="876" y="-155.5" font-family="Helvetica,sans-Serif" font-size="10.00">firmware/wombat/src</text>
<text text-anchor="middle" x="928" y="-144.5" font-family="Helvetica,sans-Serif" font-size="10.00">/main.cpp</text>
</a>
</g>
</g>
<!-- Node1&#45;&gt;Node13 -->
<g id="edge39" class="edge">
<title>Node1&#45;&gt;Node13</title>
<path fill="none" stroke="#63b8ff" d="M2147.77,-408.22C2159.24,-362.27 2176.29,-261.24 2122,-209 2080.78,-169.34 1224.76,-156.83 988.14,-154.12"/>
<polygon fill="#63b8ff" stroke="#63b8ff" points="2144.38,-407.34 2145.23,-417.9 2151.16,-409.12 2144.38,-407.34"/>
</g>
<!-- Node21 -->
<g id="node21" class="node">
<title>Node21</title>
<g id="a_node21"><a xlink:href="_utils_8cpp.html" target="_top" xlink:title="Global utility functions.">
<polygon fill="white" stroke="#666666" points="2113,-244.5 1993,-244.5 1993,-214.5 2113,-214.5 2113,-244.5"/>
<text text-anchor="start" x="2001" y="-232.5" font-family="Helvetica,sans-Serif" font-size="10.00">firmware/wombat/src</text>
<text text-anchor="middle" x="2053" y="-221.5" font-family="Helvetica,sans-Serif" font-size="10.00">/Utils.cpp</text>
</a>
</g>
</g>
<!-- Node1&#45;&gt;Node21 -->
<g id="edge38" class="edge">
<title>Node1&#45;&gt;Node21</title>
<path fill="none" stroke="#63b8ff" d="M2130.79,-408.62C2112.37,-366.45 2074.13,-278.89 2059.18,-244.65"/>
<polygon fill="#63b8ff" stroke="#63b8ff" points="2127.6,-410.07 2134.81,-417.83 2134.02,-407.27 2127.6,-410.07"/>
</g>
<!-- Node3 -->
<g id="node3" class="node">
<title>Node3</title>
<g id="a_node3"><a xlink:href="cat-m1_8h.html" target="_top" xlink:title="CAT&#45;M1 CLI command request and response handler.">
<polygon fill="white" stroke="#666666" points="190.5,-316 49.5,-316 49.5,-286 190.5,-286 190.5,-316"/>
<text text-anchor="start" x="57.5" y="-304" font-family="Helvetica,sans-Serif" font-size="10.00">firmware/wombat/include</text>
<text text-anchor="middle" x="120" y="-293" font-family="Helvetica,sans-Serif" font-size="10.00">/cli/peripherals/cat&#45;m1.h</text>
</a>
</g>
</g>
<!-- Node2&#45;&gt;Node3 -->
<g id="edge2" class="edge">
<title>Node2&#45;&gt;Node3</title>
<path fill="none" stroke="#63b8ff" d="M903.09,-363.45C761.3,-358.39 458.85,-344.98 205,-316 200.39,-315.47 195.66,-314.87 190.89,-314.22"/>
<polygon fill="#63b8ff" stroke="#63b8ff" points="903.32,-366.96 913.43,-363.81 903.56,-359.96 903.32,-366.96"/>
</g>
<!-- Node10 -->
<g id="node10" class="node">
<title>Node10</title>
<g id="a_node10"><a xlink:href="cat-m1_8cpp.html" target="_top" xlink:title="CAT&#45;M1 CLI command request and response handler.">
<polygon fill="white" stroke="#666666" points="120,-173 0,-173 0,-132 120,-132 120,-173"/>
<text text-anchor="start" x="8" y="-161" font-family="Helvetica,sans-Serif" font-size="10.00">firmware/wombat/src</text>
<text text-anchor="start" x="8" y="-150" font-family="Helvetica,sans-Serif" font-size="10.00">/cli/peripherals/cat</text>
<text text-anchor="middle" x="60" y="-139" font-family="Helvetica,sans-Serif" font-size="10.00">&#45;m1.cpp</text>
</a>
</g>
</g>
<!-- Node2&#45;&gt;Node10 -->
<g id="edge37" class="edge">
<title>Node2&#45;&gt;Node10</title>
<path fill="none" stroke="#63b8ff" d="M903.14,-362.64C762.98,-356.24 480.74,-340.72 385,-316 315.66,-298.1 302.19,-281.76 238,-250 187.27,-224.91 129.95,-193.21 94.39,-173.14"/>
<polygon fill="#63b8ff" stroke="#63b8ff" points="903.24,-366.14 913.39,-363.1 903.56,-359.15 903.24,-366.14"/>
</g>
<!-- Node15 -->
<g id="node15" class="node">
<title>Node15</title>
<g id="a_node15"><a xlink:href="cli__power_8h.html" target="_top" xlink:title=" ">
<polygon fill="white" stroke="#666666" points="540,-316 394,-316 394,-286 540,-286 540,-316"/>
<text text-anchor="start" x="402" y="-304" font-family="Helvetica,sans-Serif" font-size="10.00">firmware/wombat/include</text>
<text text-anchor="middle" x="467" y="-293" font-family="Helvetica,sans-Serif" font-size="10.00">/cli/peripherals/cli_power.h</text>
</a>
</g>
</g>
<!-- Node2&#45;&gt;Node15 -->
<g id="edge16" class="edge">
<title>Node2&#45;&gt;Node15</title>
<path fill="none" stroke="#63b8ff" d="M903.47,-356.03C804.05,-343.72 636.37,-322.97 540.36,-311.08"/>
<polygon fill="#63b8ff" stroke="#63b8ff" points="903.11,-359.51 913.47,-357.27 903.97,-352.57 903.11,-359.51"/>
</g>
<!-- Node17 -->
<g id="node17" class="node">
<title>Node17</title>
<g id="a_node17"><a xlink:href="globals_8h.html" target="_top" xlink:title=" ">
<polygon fill="white" stroke="#666666" points="1103.5,-316 962.5,-316 962.5,-286 1103.5,-286 1103.5,-316"/>
<text text-anchor="start" x="970.5" y="-304" font-family="Helvetica,sans-Serif" font-size="10.00">firmware/wombat/include</text>
<text text-anchor="middle" x="1033" y="-293" font-family="Helvetica,sans-Serif" font-size="10.00">/globals.h</text>
</a>
</g>
</g>
<!-- Node2&#45;&gt;Node17 -->
<g id="edge19" class="edge">
<title>Node2&#45;&gt;Node17</title>
<path fill="none" stroke="#63b8ff" d="M1000.99,-343.81C1008.01,-334.64 1015.94,-324.28 1022.16,-316.16"/>
<polygon fill="#63b8ff" stroke="#63b8ff" points="998.17,-341.73 994.87,-351.8 1003.73,-345.98 998.17,-341.73"/>
</g>
<!-- Node18 -->
<g id="node18" class="node">
<title>Node18</title>
<g id="a_node18"><a xlink:href="_c_a_t___m1_8cpp.html" target="_top" xlink:title=" ">
<polygon fill="white" stroke="#666666" points="665,-244.5 545,-244.5 545,-214.5 665,-214.5 665,-244.5"/>
<text text-anchor="start" x="553" y="-232.5" font-family="Helvetica,sans-Serif" font-size="10.00">firmware/wombat/src</text>
<text text-anchor="middle" x="605" y="-221.5" font-family="Helvetica,sans-Serif" font-size="10.00">/CAT_M1.cpp</text>
</a>
</g>
</g>
<!-- Node2&#45;&gt;Node18 -->
<g id="edge34" class="edge">
<title>Node2&#45;&gt;Node18</title>
<path fill="none" stroke="#63b8ff" d="M934.69,-348.37C858.58,-321.16 714.01,-269.47 644.4,-244.59"/>
<polygon fill="#63b8ff" stroke="#63b8ff" points="933.92,-351.81 944.51,-351.88 936.27,-345.22 933.92,-351.81"/>
</g>
<!-- Node2&#45;&gt;Node21 -->
<g id="edge35" class="edge">
<title>Node2&#45;&gt;Node21</title>
<path fill="none" stroke="#63b8ff" d="M1064.97,-361.93C1236.27,-352.17 1647.26,-322.59 1984,-250 1991.3,-248.43 1998.97,-246.52 2006.43,-244.52"/>
<polygon fill="#63b8ff" stroke="#63b8ff" points="1064.57,-358.45 1054.78,-362.51 1064.96,-365.44 1064.57,-358.45"/>
</g>
<!-- Node23 -->
<g id="node23" class="node">
<title>Node23</title>
<g id="a_node23"><a xlink:href="config__cli_8cpp.html" target="_top" xlink:title="Command line interface node configuration commands.">
<polygon fill="white" stroke="#666666" points="1974.5,-250 1841.5,-250 1841.5,-209 1974.5,-209 1974.5,-250"/>
<text text-anchor="start" x="1849.5" y="-238" font-family="Helvetica,sans-Serif" font-size="10.00">firmware/wombat/src</text>
<text text-anchor="start" x="1849.5" y="-227" font-family="Helvetica,sans-Serif" font-size="10.00">/cli/device_config/config</text>
<text text-anchor="middle" x="1908" y="-216" font-family="Helvetica,sans-Serif" font-size="10.00">_cli.cpp</text>
</a>
</g>
</g>
<!-- Node2&#45;&gt;Node23 -->
<g id="edge36" class="edge">
<title>Node2&#45;&gt;Node23</title>
<path fill="none" stroke="#63b8ff" d="M1064.67,-358.1C1216,-342.58 1552.44,-304.8 1832,-250 1835.07,-249.4 1838.21,-248.75 1841.37,-248.06"/>
<polygon fill="#63b8ff" stroke="#63b8ff" points="1064.13,-354.63 1054.53,-359.13 1064.84,-361.6 1064.13,-354.63"/>
</g>
<!-- Node4 -->
<g id="node4" class="node">
<title>Node4</title>
<g id="a_node4"><a xlink:href="_c_l_i_8h.html" target="_top" xlink:title="FreeRTOS CLI handler.">
<polygon fill="white" stroke="#666666" points="388.5,-244.5 247.5,-244.5 247.5,-214.5 388.5,-214.5 388.5,-244.5"/>
<text text-anchor="start" x="255.5" y="-232.5" font-family="Helvetica,sans-Serif" font-size="10.00">firmware/wombat/include</text>
<text text-anchor="middle" x="318" y="-221.5" font-family="Helvetica,sans-Serif" font-size="10.00">/cli/CLI.h</text>
</a>
</g>
</g>
<!-- Node3&#45;&gt;Node4 -->
<g id="edge3" class="edge">
<title>Node3&#45;&gt;Node4</title>
<path fill="none" stroke="#63b8ff" d="M169.67,-282.57C203.15,-270.81 246.74,-255.51 277.99,-244.54"/>
<polygon fill="#63b8ff" stroke="#63b8ff" points="168.34,-279.32 160.07,-285.94 170.66,-285.93 168.34,-279.32"/>
</g>
<!-- Node3&#45;&gt;Node10 -->
<g id="edge15" class="edge">
<title>Node3&#45;&gt;Node10</title>
<path fill="none" stroke="#63b8ff" d="M110.31,-276.34C98.59,-247.71 79.06,-200.03 68.1,-173.27"/>
<polygon fill="#63b8ff" stroke="#63b8ff" points="107.22,-278.03 114.25,-285.95 113.7,-275.37 107.22,-278.03"/>
</g>
<!-- Node5 -->
<g id="node5" class="node">
<title>Node5</title>
<g id="a_node5"><a xlink:href="server_8h.html" target="_top" xlink:title="Handle the setup and maintenance of the BLE server and connected clients.">
<polygon fill="white" stroke="#666666" points="279.5,-167.5 138.5,-167.5 138.5,-137.5 279.5,-137.5 279.5,-167.5"/>
<text text-anchor="start" x="146.5" y="-155.5" font-family="Helvetica,sans-Serif" font-size="10.00">firmware/wombat/include</text>
<text text-anchor="middle" x="209" y="-144.5" font-family="Helvetica,sans-Serif" font-size="10.00">/bluetooth/server.h</text>
</a>
</g>
</g>
<!-- Node4&#45;&gt;Node5 -->
<g id="edge4" class="edge">
<title>Node4&#45;&gt;Node5</title>
<path fill="none" stroke="#63b8ff" d="M289.01,-208.55C270.22,-195.63 246.21,-179.1 229.41,-167.54"/>
<polygon fill="#63b8ff" stroke="#63b8ff" points="287.28,-211.61 297.5,-214.39 291.24,-205.84 287.28,-211.61"/>
</g>
<!-- Node9 -->
<g id="node9" class="node">
<title>Node9</title>
<g id="a_node9"><a xlink:href="_c_l_i_8cpp.html" target="_top" xlink:title="FreeRTOS CLI handler.">
<polygon fill="white" stroke="#666666" points="418,-167.5 298,-167.5 298,-137.5 418,-137.5 418,-167.5"/>
<text text-anchor="start" x="306" y="-155.5" font-family="Helvetica,sans-Serif" font-size="10.00">firmware/wombat/src</text>
<text text-anchor="middle" x="358" y="-144.5" font-family="Helvetica,sans-Serif" font-size="10.00">/cli/CLI.cpp</text>
</a>
</g>
</g>
<!-- Node4&#45;&gt;Node9 -->
<g id="edge9" class="edge">
<title>Node4&#45;&gt;Node9</title>
<path fill="none" stroke="#63b8ff" d="M330.26,-205.51C336.87,-193.11 344.82,-178.21 350.51,-167.54"/>
<polygon fill="#63b8ff" stroke="#63b8ff" points="327.14,-203.92 325.52,-214.39 333.32,-207.22 327.14,-203.92"/>
</g>
<!-- Node4&#45;&gt;Node10 -->
<g id="edge10" class="edge">
<title>Node4&#45;&gt;Node10</title>
<path fill="none" stroke="#63b8ff" d="M260.05,-211.65C218.41,-199.55 162.42,-183.27 120.26,-171.02"/>
<polygon fill="#63b8ff" stroke="#63b8ff" points="259.2,-215.05 269.77,-214.48 261.15,-208.33 259.2,-215.05"/>
</g>
<!-- Node11 -->
<g id="node11" class="node">
<title>Node11</title>
<g id="a_node11"><a xlink:href="sd__card_8cpp.html" target="_top" xlink:title=" ">
<polygon fill="white" stroke="#666666" points="712,-173 592,-173 592,-132 712,-132 712,-173"/>
<text text-anchor="start" x="600" y="-161" font-family="Helvetica,sans-Serif" font-size="10.00">firmware/wombat/src</text>
<text text-anchor="start" x="600" y="-150" font-family="Helvetica,sans-Serif" font-size="10.00">/cli/peripherals/sd</text>
<text text-anchor="middle" x="652" y="-139" font-family="Helvetica,sans-Serif" font-size="10.00">_card.cpp</text>
</a>
</g>
</g>
<!-- Node4&#45;&gt;Node11 -->
<g id="edge11" class="edge">
<title>Node4&#45;&gt;Node11</title>
<path fill="none" stroke="#63b8ff" d="M384.39,-212.07C388.99,-211 393.56,-209.97 398,-209 479.82,-191.08 501.51,-192.41 583,-173 585.91,-172.31 588.87,-171.57 591.87,-170.81"/>
<polygon fill="#63b8ff" stroke="#63b8ff" points="383.24,-208.74 374.3,-214.42 384.84,-215.55 383.24,-208.74"/>
</g>
<!-- Node12 -->
<g id="node12" class="node">
<title>Node12</title>
<g id="a_node12"><a xlink:href="sdi12_8cpp.html" target="_top" xlink:title="SDI&#45;12 command line interface handler.">
<polygon fill="white" stroke="#666666" points="574,-167.5 436,-167.5 436,-137.5 574,-137.5 574,-167.5"/>
<text text-anchor="start" x="444" y="-155.5" font-family="Helvetica,sans-Serif" font-size="10.00">firmware/wombat/src</text>
<text text-anchor="middle" x="505" y="-144.5" font-family="Helvetica,sans-Serif" font-size="10.00">/cli/peripherals/sdi12.cpp</text>
</a>
</g>
</g>
<!-- Node4&#45;&gt;Node12 -->
<g id="edge12" class="edge">
<title>Node4&#45;&gt;Node12</title>
<path fill="none" stroke="#63b8ff" d="M362.56,-210.63C395.46,-197.43 439.6,-179.73 469.98,-167.54"/>
<polygon fill="#63b8ff" stroke="#63b8ff" points="361.15,-207.42 353.17,-214.39 363.76,-213.92 361.15,-207.42"/>
</g>
<!-- Node4&#45;&gt;Node13 -->
<g id="edge13" class="edge">
<title>Node4&#45;&gt;Node13</title>
<path fill="none" stroke="#63b8ff" d="M380.25,-212.3C386.23,-211.05 392.21,-209.93 398,-209 600.94,-176.56 656.69,-209.12 859,-173 866.84,-171.6 875.08,-169.68 883.02,-167.59"/>
<polygon fill="#63b8ff" stroke="#63b8ff" points="379.28,-208.93 370.25,-214.48 380.77,-215.77 379.28,-208.93"/>
</g>
<!-- Node14 -->
<g id="node14" class="node">
<title>Node14</title>
<g id="a_node14"><a xlink:href="mqtt__stack_8cpp.html" target="_top" xlink:title=" ">
<polygon fill="white" stroke="#666666" points="850,-167.5 730,-167.5 730,-137.5 850,-137.5 850,-167.5"/>
<text text-anchor="start" x="738" y="-155.5" font-family="Helvetica,sans-Serif" font-size="10.00">firmware/wombat/src</text>
<text text-anchor="middle" x="790" y="-144.5" font-family="Helvetica,sans-Serif" font-size="10.00">/mqtt_stack.cpp</text>
</a>
</g>
</g>
<!-- Node4&#45;&gt;Node14 -->
<g id="edge14" class="edge">
<title>Node4&#45;&gt;Node14</title>
<path fill="none" stroke="#63b8ff" d="M381.54,-212.23C387.09,-211.05 392.63,-209.95 398,-209 540.24,-183.85 579.24,-200.74 721,-173 728.57,-171.52 736.53,-169.61 744.23,-167.57"/>
<polygon fill="#63b8ff" stroke="#63b8ff" points="380.6,-208.86 371.59,-214.44 382.11,-215.69 380.6,-208.86"/>
</g>
<!-- Node6 -->
<g id="node6" class="node">
<title>Node6</title>
<g id="a_node6"><a xlink:href="uart_8h.html" target="_top" xlink:title="BluetoothLE UART service setup and handling.">
<polygon fill="white" stroke="#666666" points="279.5,-96 138.5,-96 138.5,-66 279.5,-66 279.5,-96"/>
<text text-anchor="start" x="146.5" y="-84" font-family="Helvetica,sans-Serif" font-size="10.00">firmware/wombat/include</text>
<text text-anchor="middle" x="209" y="-73" font-family="Helvetica,sans-Serif" font-size="10.00">/bluetooth/uart.h</text>
</a>
</g>
</g>
<!-- Node5&#45;&gt;Node6 -->
<g id="edge5" class="edge">
<title>Node5&#45;&gt;Node6</title>
<path fill="none" stroke="#63b8ff" d="M202.53,-127.25C201.96,-116.81 202.26,-104.99 203.45,-96.04"/>
<polygon fill="#63b8ff" stroke="#63b8ff" points="199.07,-127.79 203.45,-137.44 206.04,-127.16 199.07,-127.79"/>
</g>
<!-- Node8 -->
<g id="node8" class="node">
<title>Node8</title>
<g id="a_node8"><a xlink:href="server_8cpp.html" target="_top" xlink:title="Setup and start BluetoothLE server.">
<polygon fill="white" stroke="#666666" points="418,-96 298,-96 298,-66 418,-66 418,-96"/>
<text text-anchor="start" x="306" y="-84" font-family="Helvetica,sans-Serif" font-size="10.00">firmware/wombat/src</text>
<text text-anchor="middle" x="358" y="-73" font-family="Helvetica,sans-Serif" font-size="10.00">/bluetooth/server.cpp</text>
</a>
</g>
</g>
<!-- Node5&#45;&gt;Node8 -->
<g id="edge8" class="edge">
<title>Node5&#45;&gt;Node8</title>
<path fill="none" stroke="#63b8ff" d="M248.34,-133.15C273.25,-121.53 304.98,-106.73 327.89,-96.04"/>
<polygon fill="#63b8ff" stroke="#63b8ff" points="246.74,-130.04 239.15,-137.44 249.69,-136.38 246.74,-130.04"/>
</g>
<!-- Node6&#45;&gt;Node5 -->
<g id="edge6" class="edge">
<title>Node6&#45;&gt;Node5</title>
<path fill="none" stroke="#63b8ff" d="M215.47,-106.23C216.04,-116.66 215.74,-128.49 214.55,-137.44"/>
<polygon fill="#63b8ff" stroke="#63b8ff" points="218.93,-105.69 214.55,-96.04 211.96,-106.32 218.93,-105.69"/>
</g>
<!-- Node7 -->
<g id="node7" class="node">
<title>Node7</title>
<g id="a_node7"><a xlink:href="uart_8cpp.html" target="_top" xlink:title="BluetoothLE UART service setup and handling.">
<polygon fill="white" stroke="#666666" points="269,-30 149,-30 149,0 269,0 269,-30"/>
<text text-anchor="start" x="157" y="-18" font-family="Helvetica,sans-Serif" font-size="10.00">firmware/wombat/src</text>
<text text-anchor="middle" x="209" y="-7" font-family="Helvetica,sans-Serif" font-size="10.00">/bluetooth/uart.cpp</text>
</a>
</g>
</g>
<!-- Node6&#45;&gt;Node7 -->
<g id="edge7" class="edge">
<title>Node6&#45;&gt;Node7</title>
<path fill="none" stroke="#63b8ff" d="M209,-55.54C209,-46.96 209,-37.61 209,-30.16"/>
<polygon fill="#63b8ff" stroke="#63b8ff" points="205.5,-55.8 209,-65.8 212.5,-55.8 205.5,-55.8"/>
</g>
<!-- Node15&#45;&gt;Node4 -->
<g id="edge17" class="edge">
<title>Node15&#45;&gt;Node4</title>
<path fill="none" stroke="#63b8ff" d="M427.66,-281.65C402.75,-270.03 371.02,-255.23 348.11,-244.54"/>
<polygon fill="#63b8ff" stroke="#63b8ff" points="426.31,-284.88 436.85,-285.94 429.26,-278.54 426.31,-284.88"/>
</g>
<!-- Node16 -->
<g id="node16" class="node">
<title>Node16</title>
<g id="a_node16"><a xlink:href="cli__power_8cpp.html" target="_top" xlink:title="Power related commands.">
<polygon fill="white" stroke="#666666" points="527,-250 407,-250 407,-209 527,-209 527,-250"/>
<text text-anchor="start" x="415" y="-238" font-family="Helvetica,sans-Serif" font-size="10.00">firmware/wombat/src</text>
<text text-anchor="start" x="415" y="-227" font-family="Helvetica,sans-Serif" font-size="10.00">/cli/device_config/cli</text>
<text text-anchor="middle" x="467" y="-216" font-family="Helvetica,sans-Serif" font-size="10.00">_power.cpp</text>
</a>
</g>
</g>
<!-- Node15&#45;&gt;Node16 -->
<g id="edge18" class="edge">
<title>Node15&#45;&gt;Node16</title>
<path fill="none" stroke="#63b8ff" d="M467,-275.91C467,-267.47 467,-258.1 467,-250.07"/>
<polygon fill="#63b8ff" stroke="#63b8ff" points="463.5,-275.94 467,-285.94 470.5,-275.94 463.5,-275.94"/>
</g>
<!-- Node17&#45;&gt;Node10 -->
<g id="edge26" class="edge">
<title>Node17&#45;&gt;Node10</title>
<path fill="none" stroke="#63b8ff" d="M952.18,-292.73C872.57,-284.59 757.23,-269.89 717,-250 693.33,-238.29 698.18,-219.62 674,-209 562.87,-160.2 248.61,-193.62 129,-173 126.06,-172.49 123.06,-171.91 120.04,-171.27"/>
<polygon fill="#63b8ff" stroke="#63b8ff" points="951.89,-296.22 962.19,-293.74 952.59,-289.25 951.89,-296.22"/>
</g>
<!-- Node17&#45;&gt;Node11 -->
<g id="edge27" class="edge">
<title>Node17&#45;&gt;Node11</title>
<path fill="none" stroke="#63b8ff" d="M952.15,-291.9C903.39,-284.98 840.88,-272.42 789,-250 744.4,-230.73 699.69,-195.53 673.99,-173.39"/>
<polygon fill="#63b8ff" stroke="#63b8ff" points="951.95,-295.41 962.34,-293.3 952.9,-288.47 951.95,-295.41"/>
</g>
<!-- Node17&#45;&gt;Node13 -->
<g id="edge29" class="edge">
<title>Node17&#45;&gt;Node13</title>
<path fill="none" stroke="#63b8ff" d="M952.23,-290.79C901.14,-283.1 841.84,-270.12 826,-250 814.73,-235.68 816.69,-224.66 826,-209 837.74,-189.24 859.25,-176.08 879.5,-167.55"/>
<polygon fill="#63b8ff" stroke="#63b8ff" points="951.93,-294.28 962.33,-292.25 952.93,-287.35 951.93,-294.28"/>
</g>
<!-- Node17&#45;&gt;Node14 -->
<g id="edge30" class="edge">
<title>Node17&#45;&gt;Node14</title>
<path fill="none" stroke="#63b8ff" d="M952.52,-290.53C898.48,-282.55 833.69,-269.31 814,-250 791.57,-228 788.9,-188.51 789.23,-167.51"/>
<polygon fill="#63b8ff" stroke="#63b8ff" points="952.08,-294 962.47,-291.96 953.07,-287.07 952.08,-294"/>
</g>
<!-- Node17&#45;&gt;Node18 -->
<g id="edge20" class="edge">
<title>Node17&#45;&gt;Node18</title>
<path fill="none" stroke="#63b8ff" d="M952.03,-291.3C879.98,-282.92 771.93,-268.74 679,-250 671.19,-248.42 662.97,-246.52 654.97,-244.52"/>
<polygon fill="#63b8ff" stroke="#63b8ff" points="952.06,-294.83 962.4,-292.5 952.86,-287.88 952.06,-294.83"/>
</g>
<!-- Node19 -->
<g id="node19" class="node">
<title>Node19</title>
<g id="a_node19"><a xlink:href="_device_config_8cpp.html" target="_top" xlink:title=" ">
<polygon fill="white" stroke="#666666" points="955,-244.5 835,-244.5 835,-214.5 955,-214.5 955,-244.5"/>
<text text-anchor="start" x="843" y="-232.5" font-family="Helvetica,sans-Serif" font-size="10.00">firmware/wombat/src</text>
<text text-anchor="middle" x="895" y="-221.5" font-family="Helvetica,sans-Serif" font-size="10.00">/DeviceConfig.cpp</text>
</a>
</g>
</g>
<!-- Node17&#45;&gt;Node19 -->
<g id="edge21" class="edge">
<title>Node17&#45;&gt;Node19</title>
<path fill="none" stroke="#63b8ff" d="M995.96,-281.34C972.97,-269.77 943.92,-255.14 922.88,-244.54"/>
<polygon fill="#63b8ff" stroke="#63b8ff" points="994.57,-284.56 1005.07,-285.94 997.72,-278.31 994.57,-284.56"/>
</g>
<!-- Node20 -->
<g id="node20" class="node">
<title>Node20</title>
<g id="a_node20"><a xlink:href="_sensor_task_8cpp.html" target="_top" xlink:title=" ">
<polygon fill="white" stroke="#666666" points="1093,-244.5 973,-244.5 973,-214.5 1093,-214.5 1093,-244.5"/>
<text text-anchor="start" x="981" y="-232.5" font-family="Helvetica,sans-Serif" font-size="10.00">firmware/wombat/src</text>
<text text-anchor="middle" x="1033" y="-221.5" font-family="Helvetica,sans-Serif" font-size="10.00">/SensorTask.cpp</text>
</a>
</g>
</g>
<!-- Node17&#45;&gt;Node20 -->
<g id="edge22" class="edge">
<title>Node17&#45;&gt;Node20</title>
<path fill="none" stroke="#63b8ff" d="M1033,-275.75C1033,-265.31 1033,-253.49 1033,-244.54"/>
<polygon fill="#63b8ff" stroke="#63b8ff" points="1029.5,-275.94 1033,-285.94 1036.5,-275.94 1029.5,-275.94"/>
</g>
<!-- Node17&#45;&gt;Node21 -->
<g id="edge23" class="edge">
<title>Node17&#45;&gt;Node21</title>
<path fill="none" stroke="#63b8ff" d="M1113.6,-298.07C1311.53,-292.96 1817.46,-277.56 1984,-250 1992.11,-248.66 2000.62,-246.71 2008.79,-244.56"/>
<polygon fill="#63b8ff" stroke="#63b8ff" points="1113.46,-294.57 1103.56,-298.33 1113.64,-301.57 1113.46,-294.57"/>
</g>
<!-- Node22 -->
<g id="node22" class="node">
<title>Node22</title>
<g id="a_node22"><a xlink:href="acquisition__intervals_8cpp.html" target="_top" xlink:title="Handles the time between measurements and uplinks by the device over LTE.">
<polygon fill="white" stroke="#666666" points="1268.5,-250 1111.5,-250 1111.5,-209 1268.5,-209 1268.5,-250"/>
<text text-anchor="start" x="1119.5" y="-238" font-family="Helvetica,sans-Serif" font-size="10.00">firmware/wombat/src</text>
<text text-anchor="start" x="1119.5" y="-227" font-family="Helvetica,sans-Serif" font-size="10.00">/cli/device_config/acquisition</text>
<text text-anchor="middle" x="1190" y="-216" font-family="Helvetica,sans-Serif" font-size="10.00">_intervals.cpp</text>
</a>
</g>
</g>
<!-- Node17&#45;&gt;Node22 -->
<g id="edge24" class="edge">
<title>Node17&#45;&gt;Node22</title>
<path fill="none" stroke="#63b8ff" d="M1074.18,-281.77C1096.2,-272.02 1123.32,-260.02 1145.78,-250.07"/>
<polygon fill="#63b8ff" stroke="#63b8ff" points="1072.5,-278.69 1064.77,-285.94 1075.33,-285.09 1072.5,-278.69"/>
</g>
<!-- Node17&#45;&gt;Node23 -->
<g id="edge25" class="edge">
<title>Node17&#45;&gt;Node23</title>
<path fill="none" stroke="#63b8ff" d="M1113.9,-299.96C1258.79,-298.78 1571.75,-291.15 1832,-250 1835.09,-249.51 1838.25,-248.95 1841.42,-248.34"/>
<polygon fill="#63b8ff" stroke="#63b8ff" points="1113.73,-296.46 1103.76,-300.03 1113.79,-303.46 1113.73,-296.46"/>
</g>
<!-- Node24 -->
<g id="node24" class="node">
<title>Node24</title>
<g id="a_node24"><a xlink:href="ftp__stack_8cpp.html" target="_top" xlink:title=" ">
<polygon fill="white" stroke="#666666" points="1407,-244.5 1287,-244.5 1287,-214.5 1407,-214.5 1407,-244.5"/>
<text text-anchor="start" x="1295" y="-232.5" font-family="Helvetica,sans-Serif" font-size="10.00">firmware/wombat/src</text>
<text text-anchor="middle" x="1347" y="-221.5" font-family="Helvetica,sans-Serif" font-size="10.00">/ftp_stack.cpp</text>
</a>
</g>
</g>
<!-- Node17&#45;&gt;Node24 -->
<g id="edge28" class="edge">
<title>Node17&#45;&gt;Node24</title>
<path fill="none" stroke="#63b8ff" d="M1113.55,-285.12C1161.51,-275.87 1223.46,-263.25 1278,-250 1284.77,-248.35 1291.89,-246.49 1298.86,-244.59"/>
<polygon fill="#63b8ff" stroke="#63b8ff" points="1112.7,-281.72 1103.54,-287.04 1114.02,-288.6 1112.7,-281.72"/>
</g>
<!-- Node25 -->
<g id="node25" class="node">
<title>Node25</title>
<g id="a_node25"><a xlink:href="ota__update_8cpp.html" target="_top" xlink:title=" ">
<polygon fill="white" stroke="#666666" points="1545,-244.5 1425,-244.5 1425,-214.5 1545,-214.5 1545,-244.5"/>
<text text-anchor="start" x="1433" y="-232.5" font-family="Helvetica,sans-Serif" font-size="10.00">firmware/wombat/src</text>
<text text-anchor="middle" x="1485" y="-221.5" font-family="Helvetica,sans-Serif" font-size="10.00">/ota_update.cpp</text>
</a>
</g>
</g>
<!-- Node17&#45;&gt;Node25 -->
<g id="edge31" class="edge">
<title>Node17&#45;&gt;Node25</title>
<path fill="none" stroke="#63b8ff" d="M1113.98,-292.88C1191.89,-285.23 1312.75,-271.21 1416,-250 1423.44,-248.47 1431.25,-246.56 1438.83,-244.55"/>
<polygon fill="#63b8ff" stroke="#63b8ff" points="1113.37,-289.43 1103.75,-293.88 1114.04,-296.39 1113.37,-289.43"/>
</g>
<!-- Node26 -->
<g id="node26" class="node">
<title>Node26</title>
<g id="a_node26"><a xlink:href="interface_8cpp.html" target="_top" xlink:title=" ">
<polygon fill="white" stroke="#666666" points="1685,-244.5 1563,-244.5 1563,-214.5 1685,-214.5 1685,-244.5"/>
<text text-anchor="start" x="1571" y="-232.5" font-family="Helvetica,sans-Serif" font-size="10.00">firmware/wombat/src</text>
<text text-anchor="middle" x="1624" y="-221.5" font-family="Helvetica,sans-Serif" font-size="10.00">/sd&#45;card/interface.cpp</text>
</a>
</g>
</g>
<!-- Node17&#45;&gt;Node26 -->
<g id="edge32" class="edge">
<title>Node17&#45;&gt;Node26</title>
<path fill="none" stroke="#63b8ff" d="M1113.93,-296.65C1216.9,-291.38 1399.89,-278.63 1554,-250 1561.81,-248.55 1570.02,-246.63 1577.96,-244.56"/>
<polygon fill="#63b8ff" stroke="#63b8ff" points="1113.73,-293.16 1103.91,-297.15 1114.08,-300.15 1113.73,-293.16"/>
</g>
<!-- Node27 -->
<g id="node27" class="node">
<title>Node27</title>
<g id="a_node27"><a xlink:href="uplinks_8cpp.html" target="_top" xlink:title=" ">
<polygon fill="white" stroke="#666666" points="1823,-244.5 1703,-244.5 1703,-214.5 1823,-214.5 1823,-244.5"/>
<text text-anchor="start" x="1711" y="-232.5" font-family="Helvetica,sans-Serif" font-size="10.00">firmware/wombat/src</text>
<text text-anchor="middle" x="1763" y="-221.5" font-family="Helvetica,sans-Serif" font-size="10.00">/uplinks.cpp</text>
</a>
</g>
</g>
<!-- Node17&#45;&gt;Node27 -->
<g id="edge33" class="edge">
<title>Node17&#45;&gt;Node27</title>
<path fill="none" stroke="#63b8ff" d="M1113.79,-299.07C1239,-296.48 1487.06,-286.69 1694,-250 1701.97,-248.59 1710.34,-246.64 1718.39,-244.51"/>
<polygon fill="#63b8ff" stroke="#63b8ff" points="1113.46,-295.58 1103.53,-299.28 1113.6,-302.58 1113.46,-295.58"/>
</g>
</g>
</svg>
