<?xml version="1.0" encoding="UTF-8" standalone="no"?>
<!DOCTYPE svg PUBLIC "-//W3C//DTD SVG 1.1//EN"
 "http://www.w3.org/Graphics/SVG/1.1/DTD/svg11.dtd">
<!-- Generated by graphviz version 2.43.0 (0)
 -->
<!-- Title: firmware/wombat/src/Utils.cpp Pages: 1 -->
<svg width="686pt" height="324pt"
 viewBox="0.00 0.00 686.00 324.00" xmlns="http://www.w3.org/2000/svg" xmlns:xlink="http://www.w3.org/1999/xlink">
<g id="graph0" class="graph" transform="scale(1 1) rotate(0) translate(4 320)">
<title>firmware/wombat/src/Utils.cpp</title>
<!-- Node1 -->
<g id="node1" class="node">
<title>Node1</title>
<g id="a_node1"><a xlink:title="Global utility functions.">
<polygon fill="#999999" stroke="#666666" points="440.5,-316 320.5,-316 320.5,-286 440.5,-286 440.5,-316"/>
<text text-anchor="start" x="328.5" y="-304" font-family="Helvetica,sans-Serif" font-size="10.00">firmware/wombat/src</text>
<text text-anchor="middle" x="380.5" y="-293" font-family="Helvetica,sans-Serif" font-size="10.00">/Utils.cpp</text>
</a>
</g>
</g>
<!-- Node2 -->
<g id="node2" class="node">
<title>Node2</title>
<g id="a_node2"><a xlink:title=" ">
<polygon fill="#e0e0e0" stroke="#999999" points="449,-19 386,-19 386,0 449,0 449,-19"/>
<text text-anchor="middle" x="417.5" y="-7" font-family="Helvetica,sans-Serif" font-size="10.00">Arduino.h</text>
</a>
</g>
</g>
<!-- Node1&#45;&gt;Node2 -->
<g id="edge1" class="edge">
<title>Node1&#45;&gt;Node2</title>
<path fill="none" stroke="#63b8ff" d="M437.3,-285.97C457.8,-278.36 479.54,-266.92 494.5,-250 514.02,-227.93 513.5,-215.96 513.5,-186.5 513.5,-186.5 513.5,-186.5 513.5,-124 513.5,-79.52 469.99,-43.49 441.55,-24.69"/>
<polygon fill="#63b8ff" stroke="#63b8ff" points="443.24,-21.61 432.92,-19.2 439.48,-27.52 443.24,-21.61"/>
</g>
<!-- Node3 -->
<g id="node3" class="node">
<title>Node3</title>
<g id="a_node3"><a xlink:href="_utils_8h.html" target="_top" xlink:title=" ">
<polygon fill="white" stroke="#666666" points="217.5,-250 169.5,-250 169.5,-231 217.5,-231 217.5,-250"/>
<text text-anchor="middle" x="193.5" y="-238" font-family="Helvetica,sans-Serif" font-size="10.00">Utils.h</text>
</a>
</g>
</g>
<!-- Node1&#45;&gt;Node3 -->
<g id="edge2" class="edge">
<title>Node1&#45;&gt;Node3</title>
<path fill="none" stroke="#63b8ff" d="M335.71,-285.99C302.41,-275.57 257.68,-261.58 227.34,-252.09"/>
<polygon fill="#63b8ff" stroke="#63b8ff" points="228.23,-248.7 217.64,-249.05 226.14,-255.38 228.23,-248.7"/>
</g>
<!-- Node6 -->
<g id="node6" class="node">
<title>Node6</title>
<g id="a_node6"><a xlink:href="globals_8h.html" target="_top" xlink:title=" ">
<polygon fill="white" stroke="#666666" points="121,-195 60,-195 60,-176 121,-176 121,-195"/>
<text text-anchor="middle" x="90.5" y="-183" font-family="Helvetica,sans-Serif" font-size="10.00">globals.h</text>
</a>
</g>
</g>
<!-- Node1&#45;&gt;Node6 -->
<g id="edge20" class="edge">
<title>Node1&#45;&gt;Node6</title>
<path fill="none" stroke="#63b8ff" d="M320.22,-294.68C274.32,-288.7 210.7,-276.14 160.5,-250 138.12,-238.34 117.36,-217.77 104.36,-203.2"/>
<polygon fill="#63b8ff" stroke="#63b8ff" points="106.83,-200.71 97.64,-195.43 101.53,-205.29 106.83,-200.71"/>
</g>
<!-- Node8 -->
<g id="node8" class="node">
<title>Node8</title>
<g id="a_node8"><a xlink:href="_c_a_t___m1_8h.html" target="_top" xlink:title=" ">
<polygon fill="white" stroke="#666666" points="339,-134.5 274,-134.5 274,-115.5 339,-115.5 339,-134.5"/>
<text text-anchor="middle" x="306.5" y="-122.5" font-family="Helvetica,sans-Serif" font-size="10.00">CAT_M1.h</text>
</a>
</g>
</g>
<!-- Node1&#45;&gt;Node8 -->
<g id="edge19" class="edge">
<title>Node1&#45;&gt;Node8</title>
<path fill="none" stroke="#63b8ff" d="M377.51,-285.7C372.23,-262.05 360.05,-213.65 341.5,-176 335.68,-164.19 327.26,-152.06 320.14,-142.71"/>
<polygon fill="#63b8ff" stroke="#63b8ff" points="322.77,-140.39 313.84,-134.69 317.27,-144.72 322.77,-140.39"/>
</g>
<!-- Node10 -->
<g id="node10" class="node">
<title>Node10</title>
<g id="a_node10"><a xlink:href="_t_c_a9534_8h.html" target="_top" xlink:title=" ">
<polygon fill="white" stroke="#666666" points="371.5,-74 303.5,-74 303.5,-55 371.5,-55 371.5,-74"/>
<text text-anchor="middle" x="337.5" y="-62" font-family="Helvetica,sans-Serif" font-size="10.00">TCA9534.h</text>
</a>
</g>
</g>
<!-- Node1&#45;&gt;Node10 -->
<g id="edge18" class="edge">
<title>Node1&#45;&gt;Node10</title>
<path fill="none" stroke="#63b8ff" d="M381.54,-285.93C382.33,-271.93 382.91,-249.89 380.5,-231 373.53,-176.45 354.13,-114.18 343.94,-83.94"/>
<polygon fill="#63b8ff" stroke="#63b8ff" points="347.2,-82.64 340.64,-74.31 340.57,-84.91 347.2,-82.64"/>
</g>
<!-- Node13 -->
<g id="node13" class="node">
<title>Node13</title>
<g id="a_node13"><a xlink:title=" ">
<polygon fill="#e0e0e0" stroke="#999999" points="485.5,-250 427.5,-250 427.5,-231 485.5,-231 485.5,-250"/>
<text text-anchor="middle" x="456.5" y="-238" font-family="Helvetica,sans-Serif" font-size="10.00">SPIFFS.h</text>
</a>
</g>
</g>
<!-- Node1&#45;&gt;Node13 -->
<g id="edge14" class="edge">
<title>Node1&#45;&gt;Node13</title>
<path fill="none" stroke="#63b8ff" d="M398.9,-285.84C410.38,-277 425.15,-265.63 436.86,-256.62"/>
<polygon fill="#63b8ff" stroke="#63b8ff" points="439.32,-259.14 445.11,-250.27 435.05,-253.59 439.32,-259.14"/>
</g>
<!-- Node14 -->
<g id="node14" class="node">
<title>Node14</title>
<g id="a_node14"><a xlink:href="_device_config_8h.html" target="_top" xlink:title="Node configuration options.">
<polygon fill="white" stroke="#666666" points="333.5,-250 243.5,-250 243.5,-231 333.5,-231 333.5,-250"/>
<text text-anchor="middle" x="288.5" y="-238" font-family="Helvetica,sans-Serif" font-size="10.00">DeviceConfig.h</text>
</a>
</g>
</g>
<!-- Node1&#45;&gt;Node14 -->
<g id="edge15" class="edge">
<title>Node1&#45;&gt;Node14</title>
<path fill="none" stroke="#63b8ff" d="M358.23,-285.84C343.83,-276.68 325.17,-264.82 310.77,-255.66"/>
<polygon fill="#63b8ff" stroke="#63b8ff" points="312.33,-252.51 302.02,-250.09 308.58,-258.41 312.33,-252.51"/>
</g>
<!-- Node15 -->
<g id="node15" class="node">
<title>Node15</title>
<g id="a_node15"><a xlink:href="interface_8h.html" target="_top" xlink:title=" ">
<polygon fill="white" stroke="#666666" points="651.5,-250 543.5,-250 543.5,-231 651.5,-231 651.5,-250"/>
<text text-anchor="middle" x="597.5" y="-238" font-family="Helvetica,sans-Serif" font-size="10.00">sd&#45;card/interface.h</text>
</a>
</g>
</g>
<!-- Node1&#45;&gt;Node15 -->
<g id="edge21" class="edge">
<title>Node1&#45;&gt;Node15</title>
<path fill="none" stroke="#63b8ff" d="M432.48,-285.99C470.25,-275.8 520.71,-262.2 555.84,-252.73"/>
<polygon fill="#63b8ff" stroke="#63b8ff" points="557.03,-256.04 565.77,-250.05 555.2,-249.28 557.03,-256.04"/>
</g>
<!-- Node4 -->
<g id="node4" class="node">
<title>Node4</title>
<g id="a_node4"><a xlink:title=" ">
<polygon fill="#e0e0e0" stroke="#999999" points="333,-195 250,-195 250,-176 333,-176 333,-195"/>
<text text-anchor="middle" x="291.5" y="-183" font-family="Helvetica,sans-Serif" font-size="10.00">ArduinoJson.h</text>
</a>
</g>
</g>
<!-- Node3&#45;&gt;Node4 -->
<g id="edge3" class="edge">
<title>Node3&#45;&gt;Node4</title>
<path fill="none" stroke="#63b8ff" d="M209.25,-230.98C224.73,-222.61 248.59,-209.7 266.64,-199.95"/>
<polygon fill="#63b8ff" stroke="#63b8ff" points="268.34,-203.01 275.47,-195.17 265.01,-196.85 268.34,-203.01"/>
</g>
<!-- Node5 -->
<g id="node5" class="node">
<title>Node5</title>
<g id="a_node5"><a xlink:title=" ">
<polygon fill="#e0e0e0" stroke="#999999" points="232,-195 139,-195 139,-176 232,-176 232,-195"/>
<text text-anchor="middle" x="185.5" y="-183" font-family="Helvetica,sans-Serif" font-size="10.00">dpiclimate&#45;12.h</text>
</a>
</g>
</g>
<!-- Node3&#45;&gt;Node5 -->
<g id="edge4" class="edge">
<title>Node3&#45;&gt;Node5</title>
<path fill="none" stroke="#63b8ff" d="M192.18,-230.75C191.13,-223.8 189.63,-213.85 188.31,-205.13"/>
<polygon fill="#63b8ff" stroke="#63b8ff" points="191.75,-204.45 186.8,-195.09 184.83,-205.5 191.75,-204.45"/>
</g>
<!-- Node3&#45;&gt;Node6 -->
<g id="edge5" class="edge">
<title>Node3&#45;&gt;Node6</title>
<path fill="none" stroke="#63b8ff" d="M176.95,-230.98C160.61,-222.57 135.37,-209.59 116.37,-199.81"/>
<polygon fill="#63b8ff" stroke="#63b8ff" points="117.84,-196.63 107.35,-195.17 114.64,-202.86 117.84,-196.63"/>
</g>
<!-- Node7 -->
<g id="node7" class="node">
<title>Node7</title>
<g id="a_node7"><a xlink:title=" ">
<polygon fill="#e0e0e0" stroke="#999999" points="213.5,-140 83.5,-140 83.5,-110 213.5,-110 213.5,-140"/>
<text text-anchor="start" x="91.5" y="-128" font-family="Helvetica,sans-Serif" font-size="10.00">SparkFun_u&#45;blox_SARA</text>
<text text-anchor="middle" x="148.5" y="-117" font-family="Helvetica,sans-Serif" font-size="10.00">&#45;R5_Arduino_Library.h</text>
</a>
</g>
</g>
<!-- Node6&#45;&gt;Node7 -->
<g id="edge6" class="edge">
<title>Node6&#45;&gt;Node7</title>
<path fill="none" stroke="#63b8ff" d="M99.06,-175.87C106.49,-168.37 117.57,-157.2 127.36,-147.33"/>
<polygon fill="#63b8ff" stroke="#63b8ff" points="129.95,-149.68 134.51,-140.11 124.98,-144.75 129.95,-149.68"/>
</g>
<!-- Node6&#45;&gt;Node8 -->
<g id="edge7" class="edge">
<title>Node6&#45;&gt;Node8</title>
<path fill="none" stroke="#63b8ff" d="M121.45,-176.12C159.17,-165.9 223.05,-148.6 265,-137.24"/>
<polygon fill="#63b8ff" stroke="#63b8ff" points="266.17,-140.55 274.91,-134.56 264.34,-133.79 266.17,-140.55"/>
</g>
<!-- Node11 -->
<g id="node11" class="node">
<title>Node11</title>
<g id="a_node11"><a xlink:href="str__utils_8h.html" target="_top" xlink:title=" ">
<polygon fill="white" stroke="#666666" points="65,-134.5 0,-134.5 0,-115.5 65,-115.5 65,-134.5"/>
<text text-anchor="middle" x="32.5" y="-122.5" font-family="Helvetica,sans-Serif" font-size="10.00">str_utils.h</text>
</a>
</g>
</g>
<!-- Node6&#45;&gt;Node11 -->
<g id="edge12" class="edge">
<title>Node6&#45;&gt;Node11</title>
<path fill="none" stroke="#63b8ff" d="M81.94,-175.87C73.12,-166.97 59.16,-152.89 48.32,-141.95"/>
<polygon fill="#63b8ff" stroke="#63b8ff" points="50.62,-139.3 41.09,-134.67 45.65,-144.23 50.62,-139.3"/>
</g>
<!-- Node9 -->
<g id="node9" class="node">
<title>Node9</title>
<g id="a_node9"><a xlink:title=" ">
<polygon fill="#e0e0e0" stroke="#999999" points="342.5,-19 294.5,-19 294.5,0 342.5,0 342.5,-19"/>
<text text-anchor="middle" x="318.5" y="-7" font-family="Helvetica,sans-Serif" font-size="10.00">Wire.h</text>
</a>
</g>
</g>
<!-- Node8&#45;&gt;Node9 -->
<g id="edge8" class="edge">
<title>Node8&#45;&gt;Node9</title>
<path fill="none" stroke="#63b8ff" d="M302.71,-115.42C297.43,-102.28 289.08,-76.46 294.5,-55 296.91,-45.44 301.83,-35.7 306.59,-27.78"/>
<polygon fill="#63b8ff" stroke="#63b8ff" points="309.67,-29.46 312.13,-19.16 303.78,-25.68 309.67,-29.46"/>
</g>
<!-- Node8&#45;&gt;Node10 -->
<g id="edge9" class="edge">
<title>Node8&#45;&gt;Node10</title>
<path fill="none" stroke="#63b8ff" d="M311.07,-115.37C315.56,-106.9 322.53,-93.74 328.19,-83.07"/>
<polygon fill="#63b8ff" stroke="#63b8ff" points="331.32,-84.64 332.91,-74.17 325.13,-81.36 331.32,-84.64"/>
</g>
<!-- Node10&#45;&gt;Node2 -->
<g id="edge10" class="edge">
<title>Node10&#45;&gt;Node2</title>
<path fill="none" stroke="#63b8ff" d="M350.35,-54.98C362.64,-46.84 381.41,-34.41 395.98,-24.76"/>
<polygon fill="#63b8ff" stroke="#63b8ff" points="398.01,-27.61 404.41,-19.17 394.14,-21.78 398.01,-27.61"/>
</g>
<!-- Node10&#45;&gt;Node9 -->
<g id="edge11" class="edge">
<title>Node10&#45;&gt;Node9</title>
<path fill="none" stroke="#63b8ff" d="M334.36,-54.75C331.82,-47.65 328.14,-37.4 324.97,-28.56"/>
<polygon fill="#63b8ff" stroke="#63b8ff" points="328.25,-27.32 321.58,-19.09 321.66,-29.68 328.25,-27.32"/>
</g>
<!-- Node12 -->
<g id="node12" class="node">
<title>Node12</title>
<g id="a_node12"><a xlink:title=" ">
<polygon fill="#e0e0e0" stroke="#999999" points="60.5,-74 4.5,-74 4.5,-55 60.5,-55 60.5,-74"/>
<text text-anchor="middle" x="32.5" y="-62" font-family="Helvetica,sans-Serif" font-size="10.00">stddef.h</text>
</a>
</g>
</g>
<!-- Node11&#45;&gt;Node12 -->
<g id="edge13" class="edge">
<title>Node11&#45;&gt;Node12</title>
<path fill="none" stroke="#63b8ff" d="M32.5,-115.37C32.5,-107.25 32.5,-94.81 32.5,-84.39"/>
<polygon fill="#63b8ff" stroke="#63b8ff" points="36,-84.17 32.5,-74.17 29,-84.17 36,-84.17"/>
</g>
<!-- Node14&#45;&gt;Node2 -->
<g id="edge16" class="edge">
<title>Node14&#45;&gt;Node2</title>
<path fill="none" stroke="#63b8ff" d="M302.3,-230.73C314.06,-222.66 330.72,-209.74 341.5,-195 380.81,-141.26 403.93,-64.22 413.02,-29.15"/>
<polygon fill="#63b8ff" stroke="#63b8ff" points="416.44,-29.88 415.47,-19.33 409.65,-28.18 416.44,-29.88"/>
</g>
<!-- Node14&#45;&gt;Node4 -->
<g id="edge17" class="edge">
<title>Node14&#45;&gt;Node4</title>
<path fill="none" stroke="#63b8ff" d="M289,-230.75C289.39,-223.8 289.95,-213.85 290.45,-205.13"/>
<polygon fill="#63b8ff" stroke="#63b8ff" points="293.94,-205.27 291.01,-195.09 286.95,-204.88 293.94,-205.27"/>
</g>
<!-- Node15&#45;&gt;Node2 -->
<g id="edge22" class="edge">
<title>Node15&#45;&gt;Node2</title>
<path fill="none" stroke="#63b8ff" d="M591.45,-230.99C585.49,-222.28 576.42,-208.19 570.5,-195 543.86,-135.61 571.5,-102.97 527.5,-55 509.67,-35.56 482.16,-24.43 459.11,-18.17"/>
<polygon fill="#63b8ff" stroke="#63b8ff" points="459.76,-14.72 449.21,-15.69 458.06,-21.51 459.76,-14.72"/>
</g>
<!-- Node16 -->
<g id="node16" class="node">
<title>Node16</title>
<g id="a_node16"><a xlink:title=" ">
<polygon fill="#e0e0e0" stroke="#999999" points="619,-195 580,-195 580,-176 619,-176 619,-195"/>
<text text-anchor="middle" x="599.5" y="-183" font-family="Helvetica,sans-Serif" font-size="10.00">SD.h</text>
</a>
</g>
</g>
<!-- Node15&#45;&gt;Node16 -->
<g id="edge23" class="edge">
<title>Node15&#45;&gt;Node16</title>
<path fill="none" stroke="#63b8ff" d="M597.83,-230.75C598.09,-223.8 598.47,-213.85 598.8,-205.13"/>
<polygon fill="#63b8ff" stroke="#63b8ff" points="602.3,-205.21 599.18,-195.09 595.3,-204.95 602.3,-205.21"/>
</g>
<!-- Node17 -->
<g id="node17" class="node">
<title>Node17</title>
<g id="a_node17"><a xlink:title=" ">
<polygon fill="#e0e0e0" stroke="#999999" points="678,-195 637,-195 637,-176 678,-176 678,-195"/>
<text text-anchor="middle" x="657.5" y="-183" font-family="Helvetica,sans-Serif" font-size="10.00">SPI.h</text>
</a>
</g>
</g>
<!-- Node15&#45;&gt;Node17 -->
<g id="edge24" class="edge">
<title>Node15&#45;&gt;Node17</title>
<path fill="none" stroke="#63b8ff" d="M607.14,-230.98C616.01,-223.15 629.37,-211.34 640.11,-201.86"/>
<polygon fill="#63b8ff" stroke="#63b8ff" points="642.51,-204.41 647.68,-195.17 637.87,-199.17 642.51,-204.41"/>
</g>
</g>
</svg>
