<?xml version="1.0" encoding="UTF-8" standalone="no"?>
<!DOCTYPE svg PUBLIC "-//W3C//DTD SVG 1.1//EN"
 "http://www.w3.org/Graphics/SVG/1.1/DTD/svg11.dtd">
<!-- Generated by graphviz version 2.43.0 (0)
 -->
<!-- Title: firmware/wombat/include/Utils.h Pages: 1 -->
<svg width="2186pt" height="192pt"
 viewBox="0.00 0.00 2186.00 192.00" xmlns="http://www.w3.org/2000/svg" xmlns:xlink="http://www.w3.org/1999/xlink">
<g id="graph0" class="graph" transform="scale(1 1) rotate(0) translate(4 188)">
<title>firmware/wombat/include/Utils.h</title>
<!-- Node1 -->
<g id="node1" class="node">
<title>Node1</title>
<g id="a_node1"><a xlink:title=" ">
<polygon fill="#999999" stroke="#666666" points="1177.5,-184 1036.5,-184 1036.5,-154 1177.5,-154 1177.5,-184"/>
<text text-anchor="start" x="1044.5" y="-172" font-family="Helvetica,sans-Serif" font-size="10.00">firmware/wombat/include</text>
<text text-anchor="middle" x="1107" y="-161" font-family="Helvetica,sans-Serif" font-size="10.00">/Utils.h</text>
</a>
</g>
</g>
<!-- Node2 -->
<g id="node2" class="node">
<title>Node2</title>
<g id="a_node2"><a xlink:href="sdi12_8h.html" target="_top" xlink:title="SDI&#45;12 command line interface handler.">
<polygon fill="white" stroke="#666666" points="277.5,-112.5 136.5,-112.5 136.5,-82.5 277.5,-82.5 277.5,-112.5"/>
<text text-anchor="start" x="144.5" y="-100.5" font-family="Helvetica,sans-Serif" font-size="10.00">firmware/wombat/include</text>
<text text-anchor="middle" x="207" y="-89.5" font-family="Helvetica,sans-Serif" font-size="10.00">/cli/peripherals/sdi12.h</text>
</a>
</g>
</g>
<!-- Node1&#45;&gt;Node2 -->
<g id="edge1" class="edge">
<title>Node1&#45;&gt;Node2</title>
<path fill="none" stroke="#63b8ff" d="M1025.96,-163.87C890.13,-156.63 608,-140.29 370,-118 339.64,-115.16 306.18,-111.28 277.52,-107.74"/>
<polygon fill="#63b8ff" stroke="#63b8ff" points="1026.1,-167.38 1036.27,-164.41 1026.47,-160.39 1026.1,-167.38"/>
</g>
<!-- Node5 -->
<g id="node5" class="node">
<title>Node5</title>
<g id="a_node5"><a xlink:href="ftp__stack_8h.html" target="_top" xlink:title=" ">
<polygon fill="white" stroke="#666666" points="576.5,-112.5 435.5,-112.5 435.5,-82.5 576.5,-82.5 576.5,-112.5"/>
<text text-anchor="start" x="443.5" y="-100.5" font-family="Helvetica,sans-Serif" font-size="10.00">firmware/wombat/include</text>
<text text-anchor="middle" x="506" y="-89.5" font-family="Helvetica,sans-Serif" font-size="10.00">/ftp_stack.h</text>
</a>
</g>
</g>
<!-- Node1&#45;&gt;Node5 -->
<g id="edge5" class="edge">
<title>Node1&#45;&gt;Node5</title>
<path fill="none" stroke="#63b8ff" d="M1025.88,-163.38C923.89,-156.84 743.67,-142.8 591,-118 581.73,-116.49 571.97,-114.57 562.49,-112.53"/>
<polygon fill="#63b8ff" stroke="#63b8ff" points="1025.9,-166.89 1036.1,-164.03 1026.34,-159.91 1025.9,-166.89"/>
</g>
<!-- Node6 -->
<g id="node6" class="node">
<title>Node6</title>
<g id="a_node6"><a xlink:href="config__cli_8cpp.html" target="_top" xlink:title="Command line interface node configuration commands.">
<polygon fill="white" stroke="#666666" points="427.5,-41 294.5,-41 294.5,0 427.5,0 427.5,-41"/>
<text text-anchor="start" x="302.5" y="-29" font-family="Helvetica,sans-Serif" font-size="10.00">firmware/wombat/src</text>
<text text-anchor="start" x="302.5" y="-18" font-family="Helvetica,sans-Serif" font-size="10.00">/cli/device_config/config</text>
<text text-anchor="middle" x="361" y="-7" font-family="Helvetica,sans-Serif" font-size="10.00">_cli.cpp</text>
</a>
</g>
</g>
<!-- Node1&#45;&gt;Node6 -->
<g id="edge15" class="edge">
<title>Node1&#45;&gt;Node6</title>
<path fill="none" stroke="#63b8ff" d="M1026.12,-165.97C857.09,-161.16 477.81,-147.24 427,-118 397.09,-100.79 377.8,-63.88 368.22,-41.03"/>
<polygon fill="#63b8ff" stroke="#63b8ff" points="1026.12,-169.47 1036.22,-166.25 1026.32,-162.47 1026.12,-169.47"/>
</g>
<!-- Node8 -->
<g id="node8" class="node">
<title>Node8</title>
<g id="a_node8"><a xlink:href="main_8cpp.html" target="_top" xlink:title=" ">
<polygon fill="white" stroke="#666666" points="842,-35.5 722,-35.5 722,-5.5 842,-5.5 842,-35.5"/>
<text text-anchor="start" x="730" y="-23.5" font-family="Helvetica,sans-Serif" font-size="10.00">firmware/wombat/src</text>
<text text-anchor="middle" x="782" y="-12.5" font-family="Helvetica,sans-Serif" font-size="10.00">/main.cpp</text>
</a>
</g>
</g>
<!-- Node1&#45;&gt;Node8 -->
<g id="edge20" class="edge">
<title>Node1&#45;&gt;Node8</title>
<path fill="none" stroke="#63b8ff" d="M1025.76,-165.42C895.15,-160.41 650.35,-147.22 624,-118 611.8,-104.47 613.46,-91.87 624,-77 630.64,-67.63 689.27,-48.69 733.18,-35.55"/>
<polygon fill="#63b8ff" stroke="#63b8ff" points="1025.99,-168.93 1036.11,-165.8 1026.25,-161.93 1025.99,-168.93"/>
</g>
<!-- Node10 -->
<g id="node10" class="node">
<title>Node10</title>
<g id="a_node10"><a xlink:href="_c_a_t___m1_8cpp.html" target="_top" xlink:title=" ">
<polygon fill="white" stroke="#666666" points="753,-112.5 633,-112.5 633,-82.5 753,-82.5 753,-112.5"/>
<text text-anchor="start" x="641" y="-100.5" font-family="Helvetica,sans-Serif" font-size="10.00">firmware/wombat/src</text>
<text text-anchor="middle" x="693" y="-89.5" font-family="Helvetica,sans-Serif" font-size="10.00">/CAT_M1.cpp</text>
</a>
</g>
</g>
<!-- Node1&#45;&gt;Node10 -->
<g id="edge10" class="edge">
<title>Node1&#45;&gt;Node10</title>
<path fill="none" stroke="#63b8ff" d="M1026.37,-159.36C956.11,-151.1 851.71,-137.09 762,-118 754.69,-116.45 747.02,-114.55 739.56,-112.55"/>
<polygon fill="#63b8ff" stroke="#63b8ff" points="1026.14,-162.85 1036.48,-160.53 1026.95,-155.9 1026.14,-162.85"/>
</g>
<!-- Node11 -->
<g id="node11" class="node">
<title>Node11</title>
<g id="a_node11"><a xlink:href="_device_config_8cpp.html" target="_top" xlink:title=" ">
<polygon fill="white" stroke="#666666" points="891,-112.5 771,-112.5 771,-82.5 891,-82.5 891,-112.5"/>
<text text-anchor="start" x="779" y="-100.5" font-family="Helvetica,sans-Serif" font-size="10.00">firmware/wombat/src</text>
<text text-anchor="middle" x="831" y="-89.5" font-family="Helvetica,sans-Serif" font-size="10.00">/DeviceConfig.cpp</text>
</a>
</g>
</g>
<!-- Node1&#45;&gt;Node11 -->
<g id="edge11" class="edge">
<title>Node1&#45;&gt;Node11</title>
<path fill="none" stroke="#63b8ff" d="M1036.22,-151.61C996.15,-142.16 945.17,-129.83 900,-118 893.5,-116.3 886.67,-114.44 879.94,-112.58"/>
<polygon fill="#63b8ff" stroke="#63b8ff" points="1035.62,-155.07 1046.16,-153.95 1037.23,-148.26 1035.62,-155.07"/>
</g>
<!-- Node12 -->
<g id="node12" class="node">
<title>Node12</title>
<g id="a_node12"><a xlink:href="_sensor_task_8cpp.html" target="_top" xlink:title=" ">
<polygon fill="white" stroke="#666666" points="1029,-112.5 909,-112.5 909,-82.5 1029,-82.5 1029,-112.5"/>
<text text-anchor="start" x="917" y="-100.5" font-family="Helvetica,sans-Serif" font-size="10.00">firmware/wombat/src</text>
<text text-anchor="middle" x="969" y="-89.5" font-family="Helvetica,sans-Serif" font-size="10.00">/SensorTask.cpp</text>
</a>
</g>
</g>
<!-- Node1&#45;&gt;Node12 -->
<g id="edge12" class="edge">
<title>Node1&#45;&gt;Node12</title>
<path fill="none" stroke="#63b8ff" d="M1069.96,-149.34C1046.97,-137.77 1017.92,-123.14 996.88,-112.54"/>
<polygon fill="#63b8ff" stroke="#63b8ff" points="1068.57,-152.56 1079.07,-153.94 1071.72,-146.31 1068.57,-152.56"/>
</g>
<!-- Node13 -->
<g id="node13" class="node">
<title>Node13</title>
<g id="a_node13"><a xlink:href="_utils_8cpp.html" target="_top" xlink:title="Global utility functions.">
<polygon fill="white" stroke="#666666" points="1167,-112.5 1047,-112.5 1047,-82.5 1167,-82.5 1167,-112.5"/>
<text text-anchor="start" x="1055" y="-100.5" font-family="Helvetica,sans-Serif" font-size="10.00">firmware/wombat/src</text>
<text text-anchor="middle" x="1107" y="-89.5" font-family="Helvetica,sans-Serif" font-size="10.00">/Utils.cpp</text>
</a>
</g>
</g>
<!-- Node1&#45;&gt;Node13 -->
<g id="edge13" class="edge">
<title>Node1&#45;&gt;Node13</title>
<path fill="none" stroke="#63b8ff" d="M1107,-143.75C1107,-133.31 1107,-121.49 1107,-112.54"/>
<polygon fill="#63b8ff" stroke="#63b8ff" points="1103.5,-143.94 1107,-153.94 1110.5,-143.94 1103.5,-143.94"/>
</g>
<!-- Node14 -->
<g id="node14" class="node">
<title>Node14</title>
<g id="a_node14"><a xlink:href="acquisition__intervals_8cpp.html" target="_top" xlink:title="Handles the time between measurements and uplinks by the device over LTE.">
<polygon fill="white" stroke="#666666" points="1342.5,-118 1185.5,-118 1185.5,-77 1342.5,-77 1342.5,-118"/>
<text text-anchor="start" x="1193.5" y="-106" font-family="Helvetica,sans-Serif" font-size="10.00">firmware/wombat/src</text>
<text text-anchor="start" x="1193.5" y="-95" font-family="Helvetica,sans-Serif" font-size="10.00">/cli/device_config/acquisition</text>
<text text-anchor="middle" x="1264" y="-84" font-family="Helvetica,sans-Serif" font-size="10.00">_intervals.cpp</text>
</a>
</g>
</g>
<!-- Node1&#45;&gt;Node14 -->
<g id="edge14" class="edge">
<title>Node1&#45;&gt;Node14</title>
<path fill="none" stroke="#63b8ff" d="M1148.18,-149.77C1170.2,-140.02 1197.32,-128.02 1219.78,-118.07"/>
<polygon fill="#63b8ff" stroke="#63b8ff" points="1146.5,-146.69 1138.77,-153.94 1149.33,-153.09 1146.5,-146.69"/>
</g>
<!-- Node15 -->
<g id="node15" class="node">
<title>Node15</title>
<g id="a_node15"><a xlink:href="mqtt__cli_8cpp.html" target="_top" xlink:title="MQTT setup and configuration through the CLI.">
<polygon fill="white" stroke="#666666" points="1487.5,-118 1360.5,-118 1360.5,-77 1487.5,-77 1487.5,-118"/>
<text text-anchor="start" x="1368.5" y="-106" font-family="Helvetica,sans-Serif" font-size="10.00">firmware/wombat/src</text>
<text text-anchor="start" x="1368.5" y="-95" font-family="Helvetica,sans-Serif" font-size="10.00">/cli/device_config/mqtt</text>
<text text-anchor="middle" x="1424" y="-84" font-family="Helvetica,sans-Serif" font-size="10.00">_cli.cpp</text>
</a>
</g>
</g>
<!-- Node1&#45;&gt;Node15 -->
<g id="edge16" class="edge">
<title>Node1&#45;&gt;Node15</title>
<path fill="none" stroke="#63b8ff" d="M1187.76,-152.85C1235.66,-143.53 1297.48,-130.93 1352,-118 1354.77,-117.34 1357.6,-116.65 1360.45,-115.94"/>
<polygon fill="#63b8ff" stroke="#63b8ff" points="1186.91,-149.45 1177.75,-154.79 1188.24,-156.32 1186.91,-149.45"/>
</g>
<!-- Node16 -->
<g id="node16" class="node">
<title>Node16</title>
<g id="a_node16"><a xlink:href="cat-m1_8cpp.html" target="_top" xlink:title="CAT&#45;M1 CLI command request and response handler.">
<polygon fill="white" stroke="#666666" points="1626,-118 1506,-118 1506,-77 1626,-77 1626,-118"/>
<text text-anchor="start" x="1514" y="-106" font-family="Helvetica,sans-Serif" font-size="10.00">firmware/wombat/src</text>
<text text-anchor="start" x="1514" y="-95" font-family="Helvetica,sans-Serif" font-size="10.00">/cli/peripherals/cat</text>
<text text-anchor="middle" x="1566" y="-84" font-family="Helvetica,sans-Serif" font-size="10.00">&#45;m1.cpp</text>
</a>
</g>
</g>
<!-- Node1&#45;&gt;Node16 -->
<g id="edge17" class="edge">
<title>Node1&#45;&gt;Node16</title>
<path fill="none" stroke="#63b8ff" d="M1188.02,-161.14C1267.3,-153.6 1391.23,-139.6 1497,-118 1499.93,-117.4 1502.91,-116.75 1505.92,-116.04"/>
<polygon fill="#63b8ff" stroke="#63b8ff" points="1187.24,-157.7 1177.61,-162.11 1187.9,-164.66 1187.24,-157.7"/>
</g>
<!-- Node17 -->
<g id="node17" class="node">
<title>Node17</title>
<g id="a_node17"><a xlink:href="cli__spiffs_8cpp.html" target="_top" xlink:title="SPIFFS related commands.">
<polygon fill="white" stroke="#666666" points="1764,-118 1644,-118 1644,-77 1764,-77 1764,-118"/>
<text text-anchor="start" x="1652" y="-106" font-family="Helvetica,sans-Serif" font-size="10.00">firmware/wombat/src</text>
<text text-anchor="start" x="1652" y="-95" font-family="Helvetica,sans-Serif" font-size="10.00">/cli/peripherals/cli</text>
<text text-anchor="middle" x="1704" y="-84" font-family="Helvetica,sans-Serif" font-size="10.00">_spiffs.cpp</text>
</a>
</g>
</g>
<!-- Node1&#45;&gt;Node17 -->
<g id="edge18" class="edge">
<title>Node1&#45;&gt;Node17</title>
<path fill="none" stroke="#63b8ff" d="M1187.72,-164.9C1291.84,-159.86 1478.21,-147.33 1635,-118 1637.94,-117.45 1640.93,-116.83 1643.94,-116.16"/>
<polygon fill="#63b8ff" stroke="#63b8ff" points="1187.42,-161.41 1177.6,-165.38 1187.75,-168.4 1187.42,-161.41"/>
</g>
<!-- Node18 -->
<g id="node18" class="node">
<title>Node18</title>
<g id="a_node18"><a xlink:href="ftp__stack_8cpp.html" target="_top" xlink:title=" ">
<polygon fill="white" stroke="#666666" points="1902,-112.5 1782,-112.5 1782,-82.5 1902,-82.5 1902,-112.5"/>
<text text-anchor="start" x="1790" y="-100.5" font-family="Helvetica,sans-Serif" font-size="10.00">firmware/wombat/src</text>
<text text-anchor="middle" x="1842" y="-89.5" font-family="Helvetica,sans-Serif" font-size="10.00">/ftp_stack.cpp</text>
</a>
</g>
</g>
<!-- Node1&#45;&gt;Node18 -->
<g id="edge19" class="edge">
<title>Node1&#45;&gt;Node18</title>
<path fill="none" stroke="#63b8ff" d="M1187.9,-167.14C1313.9,-164.63 1564.22,-154.95 1773,-118 1780.97,-116.59 1789.34,-114.64 1797.39,-112.51"/>
<polygon fill="#63b8ff" stroke="#63b8ff" points="1187.51,-163.64 1177.57,-167.33 1187.64,-170.64 1187.51,-163.64"/>
</g>
<!-- Node19 -->
<g id="node19" class="node">
<title>Node19</title>
<g id="a_node19"><a xlink:href="mqtt__stack_8cpp.html" target="_top" xlink:title=" ">
<polygon fill="white" stroke="#666666" points="2040,-112.5 1920,-112.5 1920,-82.5 2040,-82.5 2040,-112.5"/>
<text text-anchor="start" x="1928" y="-100.5" font-family="Helvetica,sans-Serif" font-size="10.00">firmware/wombat/src</text>
<text text-anchor="middle" x="1980" y="-89.5" font-family="Helvetica,sans-Serif" font-size="10.00">/mqtt_stack.cpp</text>
</a>
</g>
</g>
<!-- Node1&#45;&gt;Node19 -->
<g id="edge21" class="edge">
<title>Node1&#45;&gt;Node19</title>
<path fill="none" stroke="#63b8ff" d="M1187.95,-168.64C1333.66,-168.54 1649.3,-162.59 1911,-118 1918.98,-116.64 1927.35,-114.71 1935.41,-112.6"/>
<polygon fill="#63b8ff" stroke="#63b8ff" points="1187.75,-165.14 1177.75,-168.64 1187.75,-172.14 1187.75,-165.14"/>
</g>
<!-- Node20 -->
<g id="node20" class="node">
<title>Node20</title>
<g id="a_node20"><a xlink:href="uplinks_8cpp.html" target="_top" xlink:title=" ">
<polygon fill="white" stroke="#666666" points="2178,-112.5 2058,-112.5 2058,-82.5 2178,-82.5 2178,-112.5"/>
<text text-anchor="start" x="2066" y="-100.5" font-family="Helvetica,sans-Serif" font-size="10.00">firmware/wombat/src</text>
<text text-anchor="middle" x="2118" y="-89.5" font-family="Helvetica,sans-Serif" font-size="10.00">/uplinks.cpp</text>
</a>
</g>
</g>
<!-- Node1&#45;&gt;Node20 -->
<g id="edge22" class="edge">
<title>Node1&#45;&gt;Node20</title>
<path fill="none" stroke="#63b8ff" d="M1187.84,-166.02C1384.59,-160.82 1884.32,-145.29 2049,-118 2057.11,-116.66 2065.62,-114.71 2073.79,-112.56"/>
<polygon fill="#63b8ff" stroke="#63b8ff" points="1187.48,-162.53 1177.57,-166.29 1187.66,-169.52 1187.48,-162.53"/>
</g>
<!-- Node2&#45;&gt;Node2 -->
<g id="edge2" class="edge">
<title>Node2&#45;&gt;Node2</title>
<path fill="none" stroke="#63b8ff" d="M287.7,-106.59C292.57,-104.43 295.5,-101.4 295.5,-97.5 295.5,-91.42 288.37,-87.45 277.83,-85.59"/>
<polygon fill="#63b8ff" stroke="#63b8ff" points="286.48,-103.3 277.83,-109.41 288.4,-110.03 286.48,-103.3"/>
</g>
<!-- Node3 -->
<g id="node3" class="node">
<title>Node3</title>
<g id="a_node3"><a xlink:href="_c_l_i_8cpp.html" target="_top" xlink:title="FreeRTOS CLI handler.">
<polygon fill="white" stroke="#666666" points="120,-35.5 0,-35.5 0,-5.5 120,-5.5 120,-35.5"/>
<text text-anchor="start" x="8" y="-23.5" font-family="Helvetica,sans-Serif" font-size="10.00">firmware/wombat/src</text>
<text text-anchor="middle" x="60" y="-12.5" font-family="Helvetica,sans-Serif" font-size="10.00">/cli/CLI.cpp</text>
</a>
</g>
</g>
<!-- Node2&#45;&gt;Node3 -->
<g id="edge3" class="edge">
<title>Node2&#45;&gt;Node3</title>
<path fill="none" stroke="#63b8ff" d="M170.29,-77.77C144.63,-64.68 110.9,-47.47 87.53,-35.54"/>
<polygon fill="#63b8ff" stroke="#63b8ff" points="168.85,-80.97 179.35,-82.39 172.03,-74.73 168.85,-80.97"/>
</g>
<!-- Node4 -->
<g id="node4" class="node">
<title>Node4</title>
<g id="a_node4"><a xlink:href="sdi12_8cpp.html" target="_top" xlink:title="SDI&#45;12 command line interface handler.">
<polygon fill="white" stroke="#666666" points="276,-35.5 138,-35.5 138,-5.5 276,-5.5 276,-35.5"/>
<text text-anchor="start" x="146" y="-23.5" font-family="Helvetica,sans-Serif" font-size="10.00">firmware/wombat/src</text>
<text text-anchor="middle" x="207" y="-12.5" font-family="Helvetica,sans-Serif" font-size="10.00">/cli/peripherals/sdi12.cpp</text>
</a>
</g>
</g>
<!-- Node2&#45;&gt;Node4 -->
<g id="edge4" class="edge">
<title>Node2&#45;&gt;Node4</title>
<path fill="none" stroke="#63b8ff" d="M207,-72.04C207,-59.95 207,-45.79 207,-35.54"/>
<polygon fill="#63b8ff" stroke="#63b8ff" points="203.5,-72.39 207,-82.39 210.5,-72.39 203.5,-72.39"/>
</g>
<!-- Node5&#45;&gt;Node6 -->
<g id="edge6" class="edge">
<title>Node5&#45;&gt;Node6</title>
<path fill="none" stroke="#63b8ff" d="M469.84,-77.8C448.21,-66.61 420.75,-52.4 398.82,-41.06"/>
<polygon fill="#63b8ff" stroke="#63b8ff" points="468.24,-80.91 478.73,-82.39 471.45,-74.69 468.24,-80.91"/>
</g>
<!-- Node7 -->
<g id="node7" class="node">
<title>Node7</title>
<g id="a_node7"><a xlink:href="ftp__cli_8cpp.html" target="_top" xlink:title="FTP setup and configuration through the CLI.">
<polygon fill="white" stroke="#666666" points="566,-41 446,-41 446,0 566,0 566,-41"/>
<text text-anchor="start" x="454" y="-29" font-family="Helvetica,sans-Serif" font-size="10.00">firmware/wombat/src</text>
<text text-anchor="start" x="454" y="-18" font-family="Helvetica,sans-Serif" font-size="10.00">/cli/device_config/ftp</text>
<text text-anchor="middle" x="506" y="-7" font-family="Helvetica,sans-Serif" font-size="10.00">_cli.cpp</text>
</a>
</g>
</g>
<!-- Node5&#45;&gt;Node7 -->
<g id="edge7" class="edge">
<title>Node5&#45;&gt;Node7</title>
<path fill="none" stroke="#63b8ff" d="M506,-72.23C506,-62.2 506,-50.71 506,-41.2"/>
<polygon fill="#63b8ff" stroke="#63b8ff" points="502.5,-72.39 506,-82.39 509.5,-72.39 502.5,-72.39"/>
</g>
<!-- Node5&#45;&gt;Node8 -->
<g id="edge8" class="edge">
<title>Node5&#45;&gt;Node8</title>
<path fill="none" stroke="#63b8ff" d="M569.1,-79.82C610.13,-68.91 664.78,-54.28 713,-41 719.36,-39.25 726.05,-37.39 732.65,-35.53"/>
<polygon fill="#63b8ff" stroke="#63b8ff" points="568,-76.49 559.23,-82.44 569.8,-83.25 568,-76.49"/>
</g>
<!-- Node9 -->
<g id="node9" class="node">
<title>Node9</title>
<g id="a_node9"><a xlink:href="ota__update_8cpp.html" target="_top" xlink:title=" ">
<polygon fill="white" stroke="#666666" points="704,-35.5 584,-35.5 584,-5.5 704,-5.5 704,-35.5"/>
<text text-anchor="start" x="592" y="-23.5" font-family="Helvetica,sans-Serif" font-size="10.00">firmware/wombat/src</text>
<text text-anchor="middle" x="644" y="-12.5" font-family="Helvetica,sans-Serif" font-size="10.00">/ota_update.cpp</text>
</a>
</g>
</g>
<!-- Node5&#45;&gt;Node9 -->
<g id="edge9" class="edge">
<title>Node5&#45;&gt;Node9</title>
<path fill="none" stroke="#63b8ff" d="M540.78,-77.6C564.83,-64.53 596.32,-47.41 618.16,-35.54"/>
<polygon fill="#63b8ff" stroke="#63b8ff" points="539.07,-74.54 531.96,-82.39 542.41,-80.69 539.07,-74.54"/>
</g>
</g>
</svg>
