<?xml version="1.0" encoding="UTF-8" standalone="no"?>
<!DOCTYPE svg PUBLIC "-//W3C//DTD SVG 1.1//EN"
 "http://www.w3.org/Graphics/SVG/1.1/DTD/svg11.dtd">
<!-- Generated by graphviz version 2.43.0 (0)
 -->
<!-- Title: firmware/wombat/include/Utils.h Pages: 1 -->
<svg width="2049pt" height="247pt"
 viewBox="0.00 0.00 2048.50 247.00" xmlns="http://www.w3.org/2000/svg" xmlns:xlink="http://www.w3.org/1999/xlink">
<g id="graph0" class="graph" transform="scale(1 1) rotate(0) translate(4 243)">
<title>firmware/wombat/include/Utils.h</title>
<!-- Node1 -->
<g id="node1" class="node">
<title>Node1</title>
<g id="a_node1"><a xlink:title=" ">
<polygon fill="#999999" stroke="#666666" points="1165,-239 1024,-239 1024,-209 1165,-209 1165,-239"/>
<text text-anchor="start" x="1032" y="-227" font-family="Helvetica,sans-Serif" font-size="10.00">firmware/wombat/include</text>
<text text-anchor="middle" x="1094.5" y="-216" font-family="Helvetica,sans-Serif" font-size="10.00">/Utils.h</text>
</a>
</g>
</g>
<!-- Node2 -->
<g id="node2" class="node">
<title>Node2</title>
<g id="a_node2"><a xlink:href="sdi12_8h.html" target="_top" xlink:title="SDI&#45;12 command line interface handler.">
<polygon fill="white" stroke="#666666" points="966,-173 825,-173 825,-143 966,-143 966,-173"/>
<text text-anchor="start" x="833" y="-161" font-family="Helvetica,sans-Serif" font-size="10.00">firmware/wombat/include</text>
<text text-anchor="middle" x="895.5" y="-150" font-family="Helvetica,sans-Serif" font-size="10.00">/cli/peripherals/sdi12.h</text>
</a>
</g>
</g>
<!-- Node1&#45;&gt;Node2 -->
<g id="edge1" class="edge">
<title>Node1&#45;&gt;Node2</title>
<path fill="none" stroke="#63b8ff" d="M1041.19,-205.86C1009.24,-195.58 969.12,-182.68 939.07,-173.01"/>
<polygon fill="#63b8ff" stroke="#63b8ff" points="1040.24,-209.23 1050.83,-208.95 1042.38,-202.56 1040.24,-209.23"/>
</g>
<!-- Node5 -->
<g id="node5" class="node">
<title>Node5</title>
<g id="a_node5"><a xlink:href="acquisition__intervals_8cpp.html" target="_top" xlink:title="Handles the time between measurements and uplinks by the device over LTE.">
<polygon fill="white" stroke="#666666" points="157,-41 0,-41 0,0 157,0 157,-41"/>
<text text-anchor="start" x="8" y="-29" font-family="Helvetica,sans-Serif" font-size="10.00">firmware/wombat/src</text>
<text text-anchor="start" x="8" y="-18" font-family="Helvetica,sans-Serif" font-size="10.00">/cli/device_config/acquisition</text>
<text text-anchor="middle" x="78.5" y="-7" font-family="Helvetica,sans-Serif" font-size="10.00">_intervals.cpp</text>
</a>
</g>
</g>
<!-- Node1&#45;&gt;Node5 -->
<g id="edge25" class="edge">
<title>Node1&#45;&gt;Node5</title>
<path fill="none" stroke="#63b8ff" d="M1013.5,-221.95C902.33,-219.13 696.77,-209.01 525.5,-173 374.55,-141.27 203.89,-74.28 124.13,-41.05"/>
<polygon fill="#63b8ff" stroke="#63b8ff" points="1013.55,-225.45 1023.63,-222.19 1013.71,-218.45 1013.55,-225.45"/>
</g>
<!-- Node7 -->
<g id="node7" class="node">
<title>Node7</title>
<g id="a_node7"><a xlink:href="config__cli_8cpp.html" target="_top" xlink:title="Command line interface node configuration commands.">
<polygon fill="white" stroke="#666666" points="308,-41 175,-41 175,0 308,0 308,-41"/>
<text text-anchor="start" x="183" y="-29" font-family="Helvetica,sans-Serif" font-size="10.00">firmware/wombat/src</text>
<text text-anchor="start" x="183" y="-18" font-family="Helvetica,sans-Serif" font-size="10.00">/cli/device_config/config</text>
<text text-anchor="middle" x="241.5" y="-7" font-family="Helvetica,sans-Serif" font-size="10.00">_cli.cpp</text>
</a>
</g>
</g>
<!-- Node1&#45;&gt;Node7 -->
<g id="edge26" class="edge">
<title>Node1&#45;&gt;Node7</title>
<path fill="none" stroke="#63b8ff" d="M1013.56,-220.69C918.35,-216.55 756.09,-205.02 620.5,-173 539.2,-153.8 522.12,-137.89 444.5,-107 389.78,-85.23 327.43,-58.71 286.44,-41.03"/>
<polygon fill="#63b8ff" stroke="#63b8ff" points="1013.56,-224.19 1023.69,-221.12 1013.85,-217.2 1013.56,-224.19"/>
</g>
<!-- Node10 -->
<g id="node10" class="node">
<title>Node10</title>
<g id="a_node10"><a xlink:href="cat-m1_8cpp.html" target="_top" xlink:title="CAT&#45;M1 CLI command request and response handler.">
<polygon fill="white" stroke="#666666" points="1576.5,-41 1456.5,-41 1456.5,0 1576.5,0 1576.5,-41"/>
<text text-anchor="start" x="1464.5" y="-29" font-family="Helvetica,sans-Serif" font-size="10.00">firmware/wombat/src</text>
<text text-anchor="start" x="1464.5" y="-18" font-family="Helvetica,sans-Serif" font-size="10.00">/cli/peripherals/cat</text>
<text text-anchor="middle" x="1516.5" y="-7" font-family="Helvetica,sans-Serif" font-size="10.00">&#45;m1.cpp</text>
</a>
</g>
</g>
<!-- Node1&#45;&gt;Node10 -->
<g id="edge27" class="edge">
<title>Node1&#45;&gt;Node10</title>
<path fill="none" stroke="#63b8ff" d="M1061.59,-202.82C1051.63,-194.88 1041.91,-184.8 1036.5,-173 1018.73,-134.21 1007.68,-108.46 1036.5,-77 1067.47,-43.2 1402.41,-49.27 1447.5,-41 1450.44,-40.46 1453.43,-39.85 1456.45,-39.19"/>
<polygon fill="#63b8ff" stroke="#63b8ff" points="1059.8,-205.85 1069.92,-208.99 1063.96,-200.23 1059.8,-205.85"/>
</g>
<!-- Node13 -->
<g id="node13" class="node">
<title>Node13</title>
<g id="a_node13"><a xlink:href="main_8cpp.html" target="_top" xlink:title=" ">
<polygon fill="white" stroke="#666666" points="722.5,-35.5 602.5,-35.5 602.5,-5.5 722.5,-5.5 722.5,-35.5"/>
<text text-anchor="start" x="610.5" y="-23.5" font-family="Helvetica,sans-Serif" font-size="10.00">firmware/wombat/src</text>
<text text-anchor="middle" x="662.5" y="-12.5" font-family="Helvetica,sans-Serif" font-size="10.00">/main.cpp</text>
</a>
</g>
</g>
<!-- Node1&#45;&gt;Node13 -->
<g id="edge29" class="edge">
<title>Node1&#45;&gt;Node13</title>
<path fill="none" stroke="#63b8ff" d="M1013.5,-221.15C955.5,-216.9 877.09,-204.98 815.5,-173 749.48,-138.72 693.65,-66.19 672.06,-35.59"/>
<polygon fill="#63b8ff" stroke="#63b8ff" points="1013.5,-224.66 1023.72,-221.84 1013.97,-217.68 1013.5,-224.66"/>
</g>
<!-- Node14 -->
<g id="node14" class="node">
<title>Node14</title>
<g id="a_node14"><a xlink:href="mqtt__stack_8cpp.html" target="_top" xlink:title=" ">
<polygon fill="white" stroke="#666666" points="1714.5,-35.5 1594.5,-35.5 1594.5,-5.5 1714.5,-5.5 1714.5,-35.5"/>
<text text-anchor="start" x="1602.5" y="-23.5" font-family="Helvetica,sans-Serif" font-size="10.00">firmware/wombat/src</text>
<text text-anchor="middle" x="1654.5" y="-12.5" font-family="Helvetica,sans-Serif" font-size="10.00">/mqtt_stack.cpp</text>
</a>
</g>
</g>
<!-- Node1&#45;&gt;Node14 -->
<g id="edge30" class="edge">
<title>Node1&#45;&gt;Node14</title>
<path fill="none" stroke="#63b8ff" d="M1077.06,-200.34C1065.99,-183 1056.05,-159.37 1069.5,-143 1217.91,37.62 1358.17,-95.5 1585.5,-41 1592.4,-39.35 1599.65,-37.46 1606.75,-35.53"/>
<polygon fill="#63b8ff" stroke="#63b8ff" points="1074.29,-202.49 1082.84,-208.76 1080.07,-198.53 1074.29,-202.49"/>
</g>
<!-- Node15 -->
<g id="node15" class="node">
<title>Node15</title>
<g id="a_node15"><a xlink:href="ftp__stack_8h.html" target="_top" xlink:title=" ">
<polygon fill="white" stroke="#666666" points="595,-107 454,-107 454,-77 595,-77 595,-107"/>
<text text-anchor="start" x="462" y="-95" font-family="Helvetica,sans-Serif" font-size="10.00">firmware/wombat/include</text>
<text text-anchor="middle" x="524.5" y="-84" font-family="Helvetica,sans-Serif" font-size="10.00">/ftp_stack.h</text>
</a>
</g>
</g>
<!-- Node1&#45;&gt;Node15 -->
<g id="edge16" class="edge">
<title>Node1&#45;&gt;Node15</title>
<path fill="none" stroke="#63b8ff" d="M1013.27,-219.37C933.63,-214.24 809.38,-201.97 705.5,-173 647.59,-156.85 584.27,-125.39 550,-107.11"/>
<polygon fill="#63b8ff" stroke="#63b8ff" points="1013.53,-222.9 1023.72,-220.02 1013.96,-215.91 1013.53,-222.9"/>
</g>
<!-- Node17 -->
<g id="node17" class="node">
<title>Node17</title>
<g id="a_node17"><a xlink:href="_c_a_t___m1_8cpp.html" target="_top" xlink:title=" ">
<polygon fill="white" stroke="#666666" points="1198.5,-173 1078.5,-173 1078.5,-143 1198.5,-143 1198.5,-173"/>
<text text-anchor="start" x="1086.5" y="-161" font-family="Helvetica,sans-Serif" font-size="10.00">firmware/wombat/src</text>
<text text-anchor="middle" x="1138.5" y="-150" font-family="Helvetica,sans-Serif" font-size="10.00">/CAT_M1.cpp</text>
</a>
</g>
</g>
<!-- Node1&#45;&gt;Node17 -->
<g id="edge21" class="edge">
<title>Node1&#45;&gt;Node17</title>
<path fill="none" stroke="#63b8ff" d="M1109.95,-200.53C1116.21,-191.43 1123.24,-181.19 1128.76,-173.16"/>
<polygon fill="#63b8ff" stroke="#63b8ff" points="1107.05,-198.57 1104.27,-208.8 1112.81,-202.54 1107.05,-198.57"/>
</g>
<!-- Node18 -->
<g id="node18" class="node">
<title>Node18</title>
<g id="a_node18"><a xlink:href="_device_config_8cpp.html" target="_top" xlink:title=" ">
<polygon fill="white" stroke="#666666" points="1336.5,-173 1216.5,-173 1216.5,-143 1336.5,-143 1336.5,-173"/>
<text text-anchor="start" x="1224.5" y="-161" font-family="Helvetica,sans-Serif" font-size="10.00">firmware/wombat/src</text>
<text text-anchor="middle" x="1276.5" y="-150" font-family="Helvetica,sans-Serif" font-size="10.00">/DeviceConfig.cpp</text>
</a>
</g>
</g>
<!-- Node1&#45;&gt;Node18 -->
<g id="edge22" class="edge">
<title>Node1&#45;&gt;Node18</title>
<path fill="none" stroke="#63b8ff" d="M1144.01,-205.59C1173.11,-195.36 1209.41,-182.59 1236.65,-173.01"/>
<polygon fill="#63b8ff" stroke="#63b8ff" points="1142.71,-202.34 1134.44,-208.95 1145.04,-208.94 1142.71,-202.34"/>
</g>
<!-- Node19 -->
<g id="node19" class="node">
<title>Node19</title>
<g id="a_node19"><a xlink:href="_sensor_task_8cpp.html" target="_top" xlink:title=" ">
<polygon fill="white" stroke="#666666" points="1474.5,-173 1354.5,-173 1354.5,-143 1474.5,-143 1474.5,-173"/>
<text text-anchor="start" x="1362.5" y="-161" font-family="Helvetica,sans-Serif" font-size="10.00">firmware/wombat/src</text>
<text text-anchor="middle" x="1414.5" y="-150" font-family="Helvetica,sans-Serif" font-size="10.00">/SensorTask.cpp</text>
</a>
</g>
</g>
<!-- Node1&#45;&gt;Node19 -->
<g id="edge23" class="edge">
<title>Node1&#45;&gt;Node19</title>
<path fill="none" stroke="#63b8ff" d="M1175.06,-207.03C1224.3,-197.25 1288.55,-184.45 1345.5,-173 1348.38,-172.42 1351.32,-171.83 1354.29,-171.23"/>
<polygon fill="#63b8ff" stroke="#63b8ff" points="1174.23,-203.62 1165.11,-209 1175.6,-210.49 1174.23,-203.62"/>
</g>
<!-- Node20 -->
<g id="node20" class="node">
<title>Node20</title>
<g id="a_node20"><a xlink:href="_utils_8cpp.html" target="_top" xlink:title="Global utility functions.">
<polygon fill="white" stroke="#666666" points="1612.5,-173 1492.5,-173 1492.5,-143 1612.5,-143 1612.5,-173"/>
<text text-anchor="start" x="1500.5" y="-161" font-family="Helvetica,sans-Serif" font-size="10.00">firmware/wombat/src</text>
<text text-anchor="middle" x="1552.5" y="-150" font-family="Helvetica,sans-Serif" font-size="10.00">/Utils.cpp</text>
</a>
</g>
</g>
<!-- Node1&#45;&gt;Node20 -->
<g id="edge24" class="edge">
<title>Node1&#45;&gt;Node20</title>
<path fill="none" stroke="#63b8ff" d="M1175.7,-214.3C1254.57,-205.43 1377.58,-190.53 1483.5,-173 1486.39,-172.52 1489.35,-172.01 1492.34,-171.47"/>
<polygon fill="#63b8ff" stroke="#63b8ff" points="1174.9,-210.86 1165.35,-215.45 1175.68,-217.82 1174.9,-210.86"/>
</g>
<!-- Node21 -->
<g id="node21" class="node">
<title>Node21</title>
<g id="a_node21"><a xlink:href="ftp__stack_8cpp.html" target="_top" xlink:title=" ">
<polygon fill="white" stroke="#666666" points="1750.5,-173 1630.5,-173 1630.5,-143 1750.5,-143 1750.5,-173"/>
<text text-anchor="start" x="1638.5" y="-161" font-family="Helvetica,sans-Serif" font-size="10.00">firmware/wombat/src</text>
<text text-anchor="middle" x="1690.5" y="-150" font-family="Helvetica,sans-Serif" font-size="10.00">/ftp_stack.cpp</text>
</a>
</g>
</g>
<!-- Node1&#45;&gt;Node21 -->
<g id="edge28" class="edge">
<title>Node1&#45;&gt;Node21</title>
<path fill="none" stroke="#63b8ff" d="M1175.19,-218C1278.87,-210.97 1464.24,-196.35 1621.5,-173 1624.4,-172.57 1627.37,-172.1 1630.36,-171.59"/>
<polygon fill="#63b8ff" stroke="#63b8ff" points="1174.85,-214.52 1165.11,-218.68 1175.32,-221.5 1174.85,-214.52"/>
</g>
<!-- Node22 -->
<g id="node22" class="node">
<title>Node22</title>
<g id="a_node22"><a xlink:href="uplinks_8cpp.html" target="_top" xlink:title=" ">
<polygon fill="white" stroke="#666666" points="1888.5,-173 1768.5,-173 1768.5,-143 1888.5,-143 1888.5,-173"/>
<text text-anchor="start" x="1776.5" y="-161" font-family="Helvetica,sans-Serif" font-size="10.00">firmware/wombat/src</text>
<text text-anchor="middle" x="1828.5" y="-150" font-family="Helvetica,sans-Serif" font-size="10.00">/uplinks.cpp</text>
</a>
</g>
</g>
<!-- Node1&#45;&gt;Node22 -->
<g id="edge31" class="edge">
<title>Node1&#45;&gt;Node22</title>
<path fill="none" stroke="#63b8ff" d="M1175.48,-220.18C1301.04,-215.07 1550.07,-202 1759.5,-173 1762.41,-172.6 1765.37,-172.15 1768.37,-171.66"/>
<polygon fill="#63b8ff" stroke="#63b8ff" points="1175.04,-216.69 1165.18,-220.59 1175.32,-223.69 1175.04,-216.69"/>
</g>
<!-- Node23 -->
<g id="node23" class="node">
<title>Node23</title>
<g id="a_node23"><a xlink:href="test___utils_8cpp.html" target="_top" xlink:title=" ">
<polygon fill="white" stroke="#666666" points="2040.5,-173 1906.5,-173 1906.5,-143 2040.5,-143 2040.5,-173"/>
<text text-anchor="start" x="1914.5" y="-161" font-family="Helvetica,sans-Serif" font-size="10.00">firmware/wombat/test</text>
<text text-anchor="middle" x="1973.5" y="-150" font-family="Helvetica,sans-Serif" font-size="10.00">/test_utils/test_Utils.cpp</text>
</a>
</g>
</g>
<!-- Node1&#45;&gt;Node23 -->
<g id="edge32" class="edge">
<title>Node1&#45;&gt;Node23</title>
<path fill="none" stroke="#63b8ff" d="M1175.27,-221.17C1320.35,-217.18 1634.51,-205.29 1897.5,-173 1900.43,-172.64 1903.42,-172.24 1906.43,-171.81"/>
<polygon fill="#63b8ff" stroke="#63b8ff" points="1175.02,-217.68 1165.12,-221.45 1175.21,-224.68 1175.02,-217.68"/>
</g>
<!-- Node2&#45;&gt;Node2 -->
<g id="edge14" class="edge">
<title>Node2&#45;&gt;Node2</title>
<path fill="none" stroke="#63b8ff" d="M976.2,-166.57C981.07,-164.53 984,-161.67 984,-158 984,-152.26 976.87,-148.52 966.33,-146.77"/>
<polygon fill="#63b8ff" stroke="#63b8ff" points="975.07,-163.25 966.33,-169.23 976.89,-170.01 975.07,-163.25"/>
</g>
<!-- Node3 -->
<g id="node3" class="node">
<title>Node3</title>
<g id="a_node3"><a xlink:href="_c_l_i_8h.html" target="_top" xlink:title="FreeRTOS CLI handler.">
<polygon fill="white" stroke="#666666" points="946,-107 805,-107 805,-77 946,-77 946,-107"/>
<text text-anchor="start" x="813" y="-95" font-family="Helvetica,sans-Serif" font-size="10.00">firmware/wombat/include</text>
<text text-anchor="middle" x="875.5" y="-84" font-family="Helvetica,sans-Serif" font-size="10.00">/cli/CLI.h</text>
</a>
</g>
</g>
<!-- Node2&#45;&gt;Node3 -->
<g id="edge2" class="edge">
<title>Node2&#45;&gt;Node3</title>
<path fill="none" stroke="#63b8ff" d="M888.03,-133.11C885.31,-124.38 882.31,-114.78 879.93,-107.16"/>
<polygon fill="#63b8ff" stroke="#63b8ff" points="884.74,-134.3 891.06,-142.8 891.42,-132.21 884.74,-134.3"/>
</g>
<!-- Node12 -->
<g id="node12" class="node">
<title>Node12</title>
<g id="a_node12"><a xlink:href="sdi12_8cpp.html" target="_top" xlink:title="SDI&#45;12 command line interface handler.">
<polygon fill="white" stroke="#666666" points="1438.5,-35.5 1300.5,-35.5 1300.5,-5.5 1438.5,-5.5 1438.5,-35.5"/>
<text text-anchor="start" x="1308.5" y="-23.5" font-family="Helvetica,sans-Serif" font-size="10.00">firmware/wombat/src</text>
<text text-anchor="middle" x="1369.5" y="-12.5" font-family="Helvetica,sans-Serif" font-size="10.00">/cli/peripherals/sdi12.cpp</text>
</a>
</g>
</g>
<!-- Node2&#45;&gt;Node12 -->
<g id="edge15" class="edge">
<title>Node2&#45;&gt;Node12</title>
<path fill="none" stroke="#63b8ff" d="M920.7,-136.29C948.27,-113.81 989.73,-80.62 998.5,-77 1119.78,-26.96 1162.5,-64.96 1291.5,-41 1299.87,-39.45 1308.68,-37.52 1317.25,-35.5"/>
<polygon fill="#63b8ff" stroke="#63b8ff" points="918.17,-133.84 912.64,-142.87 922.6,-139.26 918.17,-133.84"/>
</g>
<!-- Node4 -->
<g id="node4" class="node">
<title>Node4</title>
<g id="a_node4"><a xlink:href="_c_l_i_8cpp.html" target="_top" xlink:title="FreeRTOS CLI handler.">
<polygon fill="white" stroke="#666666" points="1144.5,-35.5 1024.5,-35.5 1024.5,-5.5 1144.5,-5.5 1144.5,-35.5"/>
<text text-anchor="start" x="1032.5" y="-23.5" font-family="Helvetica,sans-Serif" font-size="10.00">firmware/wombat/src</text>
<text text-anchor="middle" x="1084.5" y="-12.5" font-family="Helvetica,sans-Serif" font-size="10.00">/cli/CLI.cpp</text>
</a>
</g>
</g>
<!-- Node3&#45;&gt;Node4 -->
<g id="edge3" class="edge">
<title>Node3&#45;&gt;Node4</title>
<path fill="none" stroke="#63b8ff" d="M927.47,-73.72C962.87,-61.95 1009.14,-46.56 1042.27,-35.54"/>
<polygon fill="#63b8ff" stroke="#63b8ff" points="926.18,-70.46 917.79,-76.94 928.39,-77.1 926.18,-70.46"/>
</g>
<!-- Node3&#45;&gt;Node5 -->
<g id="edge4" class="edge">
<title>Node3&#45;&gt;Node5</title>
<path fill="none" stroke="#63b8ff" d="M794.6,-86.84C635.03,-78.37 284.84,-58.48 165.5,-41 162.74,-40.6 159.94,-40.15 157.12,-39.68"/>
<polygon fill="#63b8ff" stroke="#63b8ff" points="794.66,-90.35 804.84,-87.38 795.03,-83.36 794.66,-90.35"/>
</g>
<!-- Node6 -->
<g id="node6" class="node">
<title>Node6</title>
<g id="a_node6"><a xlink:href="cli__power_8cpp.html" target="_top" xlink:title="Power related commands.">
<polygon fill="white" stroke="#666666" points="1282.5,-41 1162.5,-41 1162.5,0 1282.5,0 1282.5,-41"/>
<text text-anchor="start" x="1170.5" y="-29" font-family="Helvetica,sans-Serif" font-size="10.00">firmware/wombat/src</text>
<text text-anchor="start" x="1170.5" y="-18" font-family="Helvetica,sans-Serif" font-size="10.00">/cli/device_config/cli</text>
<text text-anchor="middle" x="1222.5" y="-7" font-family="Helvetica,sans-Serif" font-size="10.00">_power.cpp</text>
</a>
</g>
</g>
<!-- Node3&#45;&gt;Node6 -->
<g id="edge5" class="edge">
<title>Node3&#45;&gt;Node6</title>
<path fill="none" stroke="#63b8ff" d="M955.94,-77.43C1024.24,-65.74 1116.84,-49.46 1153.5,-41 1156.41,-40.33 1159.38,-39.61 1162.38,-38.86"/>
<polygon fill="#63b8ff" stroke="#63b8ff" points="955.31,-73.99 946.05,-79.12 956.49,-80.89 955.31,-73.99"/>
</g>
<!-- Node3&#45;&gt;Node7 -->
<g id="edge6" class="edge">
<title>Node3&#45;&gt;Node7</title>
<path fill="none" stroke="#63b8ff" d="M794.74,-87.86C685.74,-82.7 485.81,-69.94 317.5,-41 314.41,-40.47 311.27,-39.88 308.1,-39.24"/>
<polygon fill="#63b8ff" stroke="#63b8ff" points="794.85,-91.37 805,-88.34 795.17,-84.38 794.85,-91.37"/>
</g>
<!-- Node8 -->
<g id="node8" class="node">
<title>Node8</title>
<g id="a_node8"><a xlink:href="ftp__cli_8cpp.html" target="_top" xlink:title="FTP setup and configuration through the CLI.">
<polygon fill="white" stroke="#666666" points="584.5,-41 464.5,-41 464.5,0 584.5,0 584.5,-41"/>
<text text-anchor="start" x="472.5" y="-29" font-family="Helvetica,sans-Serif" font-size="10.00">firmware/wombat/src</text>
<text text-anchor="start" x="472.5" y="-18" font-family="Helvetica,sans-Serif" font-size="10.00">/cli/device_config/ftp</text>
<text text-anchor="middle" x="524.5" y="-7" font-family="Helvetica,sans-Serif" font-size="10.00">_cli.cpp</text>
</a>
</g>
</g>
<!-- Node3&#45;&gt;Node8 -->
<g id="edge7" class="edge">
<title>Node3&#45;&gt;Node8</title>
<path fill="none" stroke="#63b8ff" d="M795.02,-78.92C738.38,-69.89 660.93,-56.47 593.5,-41 590.59,-40.33 587.62,-39.62 584.62,-38.87"/>
<polygon fill="#63b8ff" stroke="#63b8ff" points="794.57,-82.4 804.99,-80.5 795.66,-75.48 794.57,-82.4"/>
</g>
<!-- Node9 -->
<g id="node9" class="node">
<title>Node9</title>
<g id="a_node9"><a xlink:href="mqtt__cli_8cpp.html" target="_top" xlink:title="MQTT setup and configuration through the CLI.">
<polygon fill="white" stroke="#666666" points="868,-41 741,-41 741,0 868,0 868,-41"/>
<text text-anchor="start" x="749" y="-29" font-family="Helvetica,sans-Serif" font-size="10.00">firmware/wombat/src</text>
<text text-anchor="start" x="749" y="-18" font-family="Helvetica,sans-Serif" font-size="10.00">/cli/device_config/mqtt</text>
<text text-anchor="middle" x="804.5" y="-7" font-family="Helvetica,sans-Serif" font-size="10.00">_cli.cpp</text>
</a>
</g>
</g>
<!-- Node3&#45;&gt;Node9 -->
<g id="edge8" class="edge">
<title>Node3&#45;&gt;Node9</title>
<path fill="none" stroke="#63b8ff" d="M853.73,-69.69C844.41,-60.57 833.61,-49.99 824.5,-41.07"/>
<polygon fill="#63b8ff" stroke="#63b8ff" points="851.54,-72.44 861.13,-76.94 856.43,-67.44 851.54,-72.44"/>
</g>
<!-- Node3&#45;&gt;Node10 -->
<g id="edge9" class="edge">
<title>Node3&#45;&gt;Node10</title>
<path fill="none" stroke="#63b8ff" d="M956.2,-81.43C970.29,-79.87 984.82,-78.33 998.5,-77 1197.76,-57.68 1250.46,-76.39 1447.5,-41 1450.44,-40.47 1453.44,-39.87 1456.45,-39.22"/>
<polygon fill="#63b8ff" stroke="#63b8ff" points="955.58,-77.97 946.03,-82.56 956.36,-84.93 955.58,-77.97"/>
</g>
<!-- Node11 -->
<g id="node11" class="node">
<title>Node11</title>
<g id="a_node11"><a xlink:href="sd__card_8cpp.html" target="_top" xlink:title=" ">
<polygon fill="white" stroke="#666666" points="1006.5,-41 886.5,-41 886.5,0 1006.5,0 1006.5,-41"/>
<text text-anchor="start" x="894.5" y="-29" font-family="Helvetica,sans-Serif" font-size="10.00">firmware/wombat/src</text>
<text text-anchor="start" x="894.5" y="-18" font-family="Helvetica,sans-Serif" font-size="10.00">/cli/peripherals/sd</text>
<text text-anchor="middle" x="946.5" y="-7" font-family="Helvetica,sans-Serif" font-size="10.00">_card.cpp</text>
</a>
</g>
</g>
<!-- Node3&#45;&gt;Node11 -->
<g id="edge10" class="edge">
<title>Node3&#45;&gt;Node11</title>
<path fill="none" stroke="#63b8ff" d="M897.27,-69.69C906.59,-60.57 917.39,-49.99 926.5,-41.07"/>
<polygon fill="#63b8ff" stroke="#63b8ff" points="894.57,-67.44 889.87,-76.94 899.46,-72.44 894.57,-67.44"/>
</g>
<!-- Node3&#45;&gt;Node12 -->
<g id="edge11" class="edge">
<title>Node3&#45;&gt;Node12</title>
<path fill="none" stroke="#63b8ff" d="M956.59,-77.54C957.91,-77.36 959.21,-77.18 960.5,-77 1107.12,-56.97 1145.82,-67.01 1291.5,-41 1300.02,-39.48 1308.99,-37.55 1317.69,-35.5"/>
<polygon fill="#63b8ff" stroke="#63b8ff" points="955.81,-74.12 946.42,-79.02 956.82,-81.05 955.81,-74.12"/>
</g>
<!-- Node3&#45;&gt;Node13 -->
<g id="edge12" class="edge">
<title>Node3&#45;&gt;Node13</title>
<path fill="none" stroke="#63b8ff" d="M822.53,-73.72C786.46,-61.95 739.3,-46.56 705.54,-35.54"/>
<polygon fill="#63b8ff" stroke="#63b8ff" points="821.8,-77.16 832.4,-76.94 823.98,-70.51 821.8,-77.16"/>
</g>
<!-- Node3&#45;&gt;Node14 -->
<g id="edge13" class="edge">
<title>Node3&#45;&gt;Node14</title>
<path fill="none" stroke="#63b8ff" d="M956.08,-83.66C981.77,-81.4 1010.32,-79 1036.5,-77 1280.32,-58.41 1344.52,-82.48 1585.5,-41 1593.47,-39.63 1601.85,-37.69 1609.9,-35.57"/>
<polygon fill="#63b8ff" stroke="#63b8ff" points="955.66,-80.18 946.01,-84.54 956.28,-87.15 955.66,-80.18"/>
</g>
<!-- Node15&#45;&gt;Node7 -->
<g id="edge17" class="edge">
<title>Node15&#45;&gt;Node7</title>
<path fill="none" stroke="#63b8ff" d="M455.83,-74.67C415.5,-65.02 363.57,-52.47 317.5,-41 314.46,-40.24 311.35,-39.46 308.21,-38.67"/>
<polygon fill="#63b8ff" stroke="#63b8ff" points="455.02,-78.07 465.56,-77 456.65,-71.27 455.02,-78.07"/>
</g>
<!-- Node15&#45;&gt;Node8 -->
<g id="edge18" class="edge">
<title>Node15&#45;&gt;Node8</title>
<path fill="none" stroke="#63b8ff" d="M524.5,-66.91C524.5,-58.47 524.5,-49.1 524.5,-41.07"/>
<polygon fill="#63b8ff" stroke="#63b8ff" points="521,-66.94 524.5,-76.94 528,-66.94 521,-66.94"/>
</g>
<!-- Node15&#45;&gt;Node13 -->
<g id="edge19" class="edge">
<title>Node15&#45;&gt;Node13</title>
<path fill="none" stroke="#63b8ff" d="M561.54,-72.34C584.53,-60.77 613.58,-46.14 634.62,-35.54"/>
<polygon fill="#63b8ff" stroke="#63b8ff" points="559.78,-69.31 552.43,-76.94 562.93,-75.56 559.78,-69.31"/>
</g>
<!-- Node16 -->
<g id="node16" class="node">
<title>Node16</title>
<g id="a_node16"><a xlink:href="ota__update_8cpp.html" target="_top" xlink:title=" ">
<polygon fill="white" stroke="#666666" points="446.5,-35.5 326.5,-35.5 326.5,-5.5 446.5,-5.5 446.5,-35.5"/>
<text text-anchor="start" x="334.5" y="-23.5" font-family="Helvetica,sans-Serif" font-size="10.00">firmware/wombat/src</text>
<text text-anchor="middle" x="386.5" y="-12.5" font-family="Helvetica,sans-Serif" font-size="10.00">/ota_update.cpp</text>
</a>
</g>
</g>
<!-- Node15&#45;&gt;Node16 -->
<g id="edge20" class="edge">
<title>Node15&#45;&gt;Node16</title>
<path fill="none" stroke="#63b8ff" d="M487.46,-72.34C464.47,-60.77 435.42,-46.14 414.38,-35.54"/>
<polygon fill="#63b8ff" stroke="#63b8ff" points="486.07,-75.56 496.57,-76.94 489.22,-69.31 486.07,-75.56"/>
</g>
</g>
</svg>
