<?xml version="1.0" encoding="UTF-8" standalone="no"?>
<!DOCTYPE svg PUBLIC "-//W3C//DTD SVG 1.1//EN"
 "http://www.w3.org/Graphics/SVG/1.1/DTD/svg11.dtd">
<!-- Generated by graphviz version 2.43.0 (0)
 -->
<!-- Title: firmware/wombat/src/Utils.cpp Pages: 1 -->
<svg width="1034pt" height="269pt"
 viewBox="0.00 0.00 1033.99 269.00" xmlns="http://www.w3.org/2000/svg" xmlns:xlink="http://www.w3.org/1999/xlink">
<g id="graph0" class="graph" transform="scale(1 1) rotate(0) translate(4 265)">
<title>firmware/wombat/src/Utils.cpp</title>
<!-- Node1 -->
<g id="node1" class="node">
<title>Node1</title>
<g id="a_node1"><a xlink:title=" ">
<polygon fill="#999999" stroke="#666666" points="705.49,-261 585.49,-261 585.49,-231 705.49,-231 705.49,-261"/>
<text text-anchor="start" x="593.49" y="-249" font-family="Helvetica,sans-Serif" font-size="10.00">firmware/wombat/src</text>
<text text-anchor="middle" x="645.49" y="-238" font-family="Helvetica,sans-Serif" font-size="10.00">/Utils.cpp</text>
</a>
</g>
</g>
<!-- Node2 -->
<g id="node2" class="node">
<title>Node2</title>
<g id="a_node2"><a xlink:title=" ">
<polygon fill="#e0e0e0" stroke="#999999" points="266.99,-19 203.99,-19 203.99,0 266.99,0 266.99,-19"/>
<text text-anchor="middle" x="235.49" y="-7" font-family="Helvetica,sans-Serif" font-size="10.00">Arduino.h</text>
</a>
</g>
</g>
<!-- Node1&#45;&gt;Node2 -->
<g id="edge1" class="edge">
<title>Node1&#45;&gt;Node2</title>
<path fill="none" stroke="#63b8ff" d="M585.28,-243.97C458.61,-241.11 168.73,-230.75 77.49,-195 40.32,-180.44 24.06,-175.84 6.49,-140 -32.3,-60.88 117.43,-27.47 193.57,-15.8"/>
<polygon fill="#63b8ff" stroke="#63b8ff" points="194.41,-19.22 203.8,-14.3 193.39,-12.29 194.41,-19.22"/>
</g>
<!-- Node3 -->
<g id="node3" class="node">
<title>Node3</title>
<g id="a_node3"><a xlink:href="_utils_8h.html" target="_top" xlink:title=" ">
<polygon fill="white" stroke="#666666" points="809.49,-195 761.49,-195 761.49,-176 809.49,-176 809.49,-195"/>
<text text-anchor="middle" x="785.49" y="-183" font-family="Helvetica,sans-Serif" font-size="10.00">Utils.h</text>
</a>
</g>
</g>
<!-- Node1&#45;&gt;Node3 -->
<g id="edge2" class="edge">
<title>Node1&#45;&gt;Node3</title>
<path fill="none" stroke="#63b8ff" d="M679.02,-230.99C702.27,-221.27 732.98,-208.44 755.43,-199.06"/>
<polygon fill="#63b8ff" stroke="#63b8ff" points="756.93,-202.22 764.81,-195.14 754.24,-195.77 756.93,-202.22"/>
</g>
<!-- Node7 -->
<g id="node7" class="node">
<title>Node7</title>
<g id="a_node7"><a xlink:title=" ">
<polygon fill="#e0e0e0" stroke="#999999" points="880.99,-195 827.99,-195 827.99,-176 880.99,-176 880.99,-195"/>
<text text-anchor="middle" x="854.49" y="-183" font-family="Helvetica,sans-Serif" font-size="10.00">string.h</text>
</a>
</g>
</g>
<!-- Node1&#45;&gt;Node7 -->
<g id="edge6" class="edge">
<title>Node1&#45;&gt;Node7</title>
<path fill="none" stroke="#63b8ff" d="M695.55,-230.99C733.2,-220.45 783.92,-206.25 817.84,-196.76"/>
<polygon fill="#63b8ff" stroke="#63b8ff" points="819.11,-200.04 827.8,-193.97 817.22,-193.3 819.11,-200.04"/>
</g>
<!-- Node8 -->
<g id="node8" class="node">
<title>Node8</title>
<g id="a_node8"><a xlink:href="_device_config_8h.html" target="_top" xlink:title="Node configuration options.">
<polygon fill="white" stroke="#666666" points="176.49,-195 86.49,-195 86.49,-176 176.49,-176 176.49,-195"/>
<text text-anchor="middle" x="131.49" y="-183" font-family="Helvetica,sans-Serif" font-size="10.00">DeviceConfig.h</text>
</a>
</g>
</g>
<!-- Node1&#45;&gt;Node8 -->
<g id="edge7" class="edge">
<title>Node1&#45;&gt;Node8</title>
<path fill="none" stroke="#63b8ff" d="M585.27,-238.15C484.75,-226.71 284.23,-203.88 186.96,-192.81"/>
<polygon fill="#63b8ff" stroke="#63b8ff" points="187.08,-189.3 176.75,-191.65 186.29,-196.26 187.08,-189.3"/>
</g>
<!-- Node10 -->
<g id="node10" class="node">
<title>Node10</title>
<g id="a_node10"><a xlink:href="_t_c_a9534_8h.html" target="_top" xlink:title=" ">
<polygon fill="white" stroke="#666666" points="678.49,-74 610.49,-74 610.49,-55 678.49,-55 678.49,-74"/>
<text text-anchor="middle" x="644.49" y="-62" font-family="Helvetica,sans-Serif" font-size="10.00">TCA9534.h</text>
</a>
</g>
</g>
<!-- Node1&#45;&gt;Node10 -->
<g id="edge10" class="edge">
<title>Node1&#45;&gt;Node10</title>
<path fill="none" stroke="#63b8ff" d="M645.41,-230.91C645.23,-198.85 644.79,-120.38 644.59,-84.26"/>
<polygon fill="#63b8ff" stroke="#63b8ff" points="648.09,-84.12 644.53,-74.13 641.09,-84.15 648.09,-84.12"/>
</g>
<!-- Node12 -->
<g id="node12" class="node">
<title>Node12</title>
<g id="a_node12"><a xlink:href="_c_a_t___m1_8h.html" target="_top" xlink:title=" ">
<polygon fill="white" stroke="#666666" points="738.99,-134.5 673.99,-134.5 673.99,-115.5 738.99,-115.5 738.99,-134.5"/>
<text text-anchor="middle" x="706.49" y="-122.5" font-family="Helvetica,sans-Serif" font-size="10.00">CAT_M1.h</text>
</a>
</g>
</g>
<!-- Node1&#45;&gt;Node12 -->
<g id="edge13" class="edge">
<title>Node1&#45;&gt;Node12</title>
<path fill="none" stroke="#63b8ff" d="M652.72,-230.88C663.88,-209.12 685.26,-167.41 697.43,-143.67"/>
<polygon fill="#63b8ff" stroke="#63b8ff" points="700.57,-145.21 702.02,-134.71 694.35,-142.01 700.57,-145.21"/>
</g>
<!-- Node13 -->
<g id="node13" class="node">
<title>Node13</title>
<g id="a_node13"><a xlink:href="globals_8h.html" target="_top" xlink:title=" ">
<polygon fill="white" stroke="#666666" points="577.99,-195 516.99,-195 516.99,-176 577.99,-176 577.99,-195"/>
<text text-anchor="middle" x="547.49" y="-183" font-family="Helvetica,sans-Serif" font-size="10.00">globals.h</text>
</a>
</g>
</g>
<!-- Node1&#45;&gt;Node13 -->
<g id="edge16" class="edge">
<title>Node1&#45;&gt;Node13</title>
<path fill="none" stroke="#63b8ff" d="M621.76,-230.84C606.28,-221.6 586.17,-209.59 570.77,-200.4"/>
<polygon fill="#63b8ff" stroke="#63b8ff" points="572.27,-197.21 561.88,-195.09 568.68,-203.23 572.27,-197.21"/>
</g>
<!-- Node4 -->
<g id="node4" class="node">
<title>Node4</title>
<g id="a_node4"><a xlink:title=" ">
<polygon fill="#e0e0e0" stroke="#999999" points="813.49,-134.5 757.49,-134.5 757.49,-115.5 813.49,-115.5 813.49,-134.5"/>
<text text-anchor="middle" x="785.49" y="-122.5" font-family="Helvetica,sans-Serif" font-size="10.00">stddef.h</text>
</a>
</g>
</g>
<!-- Node3&#45;&gt;Node4 -->
<g id="edge3" class="edge">
<title>Node3&#45;&gt;Node4</title>
<path fill="none" stroke="#63b8ff" d="M785.49,-175.87C785.49,-167.75 785.49,-155.31 785.49,-144.89"/>
<polygon fill="#63b8ff" stroke="#63b8ff" points="788.99,-144.67 785.49,-134.67 781.99,-144.67 788.99,-144.67"/>
</g>
<!-- Node5 -->
<g id="node5" class="node">
<title>Node5</title>
<g id="a_node5"><a xlink:title=" ">
<polygon fill="#e0e0e0" stroke="#999999" points="914.99,-134.5 831.99,-134.5 831.99,-115.5 914.99,-115.5 914.99,-134.5"/>
<text text-anchor="middle" x="873.49" y="-122.5" font-family="Helvetica,sans-Serif" font-size="10.00">ArduinoJson.h</text>
</a>
</g>
</g>
<!-- Node3&#45;&gt;Node5 -->
<g id="edge4" class="edge">
<title>Node3&#45;&gt;Node5</title>
<path fill="none" stroke="#63b8ff" d="M798.47,-175.87C812.51,-166.54 835.12,-151.51 851.85,-140.38"/>
<polygon fill="#63b8ff" stroke="#63b8ff" points="854.06,-143.12 860.45,-134.67 850.18,-137.29 854.06,-143.12"/>
</g>
<!-- Node6 -->
<g id="node6" class="node">
<title>Node6</title>
<g id="a_node6"><a xlink:title=" ">
<polygon fill="#e0e0e0" stroke="#999999" points="1025.99,-134.5 932.99,-134.5 932.99,-115.5 1025.99,-115.5 1025.99,-134.5"/>
<text text-anchor="middle" x="979.49" y="-122.5" font-family="Helvetica,sans-Serif" font-size="10.00">dpiclimate&#45;12.h</text>
</a>
</g>
</g>
<!-- Node3&#45;&gt;Node6 -->
<g id="edge5" class="edge">
<title>Node3&#45;&gt;Node6</title>
<path fill="none" stroke="#63b8ff" d="M809.66,-177.21C842.74,-167.23 902.44,-149.23 941.52,-137.45"/>
<polygon fill="#63b8ff" stroke="#63b8ff" points="942.66,-140.76 951.22,-134.52 940.64,-134.06 942.66,-140.76"/>
</g>
<!-- Node8&#45;&gt;Node2 -->
<g id="edge8" class="edge">
<title>Node8&#45;&gt;Node2</title>
<path fill="none" stroke="#63b8ff" d="M132.41,-175.78C134.21,-161.38 139.06,-132.04 150.49,-110 167.96,-76.29 198.85,-44.19 218.19,-25.96"/>
<polygon fill="#63b8ff" stroke="#63b8ff" points="220.72,-28.39 225.69,-19.04 215.97,-23.24 220.72,-28.39"/>
</g>
<!-- Node9 -->
<g id="node9" class="node">
<title>Node9</title>
<g id="a_node9"><a xlink:title=" ">
<polygon fill="#e0e0e0" stroke="#999999" points="102.99,-134.5 15.99,-134.5 15.99,-115.5 102.99,-115.5 102.99,-134.5"/>
<text text-anchor="middle" x="59.49" y="-122.5" font-family="Helvetica,sans-Serif" font-size="10.00">ArduinoJSON.h</text>
</a>
</g>
</g>
<!-- Node8&#45;&gt;Node9 -->
<g id="edge9" class="edge">
<title>Node8&#45;&gt;Node9</title>
<path fill="none" stroke="#63b8ff" d="M120.86,-175.87C109.59,-166.71 91.56,-152.06 77.96,-141.01"/>
<polygon fill="#63b8ff" stroke="#63b8ff" points="80.12,-138.26 70.15,-134.67 75.71,-143.69 80.12,-138.26"/>
</g>
<!-- Node10&#45;&gt;Node2 -->
<g id="edge11" class="edge">
<title>Node10&#45;&gt;Node2</title>
<path fill="none" stroke="#63b8ff" d="M610.32,-59.07C535.72,-49.41 358.47,-26.44 277.34,-15.92"/>
<polygon fill="#63b8ff" stroke="#63b8ff" points="277.38,-12.4 267.01,-14.58 276.48,-19.34 277.38,-12.4"/>
</g>
<!-- Node11 -->
<g id="node11" class="node">
<title>Node11</title>
<g id="a_node11"><a xlink:title=" ">
<polygon fill="#e0e0e0" stroke="#999999" points="699.49,-19 651.49,-19 651.49,0 699.49,0 699.49,-19"/>
<text text-anchor="middle" x="675.49" y="-7" font-family="Helvetica,sans-Serif" font-size="10.00">Wire.h</text>
</a>
</g>
</g>
<!-- Node10&#45;&gt;Node11 -->
<g id="edge12" class="edge">
<title>Node10&#45;&gt;Node11</title>
<path fill="none" stroke="#63b8ff" d="M649.61,-54.75C653.85,-47.49 660.01,-36.95 665.26,-27.98"/>
<polygon fill="#63b8ff" stroke="#63b8ff" points="668.44,-29.49 670.46,-19.09 662.39,-25.95 668.44,-29.49"/>
</g>
<!-- Node12&#45;&gt;Node10 -->
<g id="edge15" class="edge">
<title>Node12&#45;&gt;Node10</title>
<path fill="none" stroke="#63b8ff" d="M697.34,-115.37C687.81,-106.38 672.69,-92.11 661.06,-81.14"/>
<polygon fill="#63b8ff" stroke="#63b8ff" points="663.35,-78.48 653.67,-74.17 658.54,-83.58 663.35,-78.48"/>
</g>
<!-- Node12&#45;&gt;Node11 -->
<g id="edge14" class="edge">
<title>Node12&#45;&gt;Node11</title>
<path fill="none" stroke="#63b8ff" d="M704.16,-115.47C699.15,-97.15 687.28,-53.68 680.49,-28.81"/>
<polygon fill="#63b8ff" stroke="#63b8ff" points="683.86,-27.85 677.84,-19.13 677.1,-29.7 683.86,-27.85"/>
</g>
<!-- Node13&#45;&gt;Node12 -->
<g id="edge24" class="edge">
<title>Node13&#45;&gt;Node12</title>
<path fill="none" stroke="#63b8ff" d="M570.61,-175.99C597.81,-165.99 643.15,-149.3 673.91,-137.99"/>
<polygon fill="#63b8ff" stroke="#63b8ff" points="675.16,-141.25 683.34,-134.52 672.75,-134.68 675.16,-141.25"/>
</g>
<!-- Node14 -->
<g id="node14" class="node">
<title>Node14</title>
<g id="a_node14"><a xlink:href="battery_8h.html" target="_top" xlink:title="Battery voltage and current monitoring using INA219 IC.">
<polygon fill="white" stroke="#666666" points="310.99,-134.5 159.99,-134.5 159.99,-115.5 310.99,-115.5 310.99,-134.5"/>
<text text-anchor="middle" x="235.49" y="-122.5" font-family="Helvetica,sans-Serif" font-size="10.00">power_monitoring/battery.h</text>
</a>
</g>
</g>
<!-- Node13&#45;&gt;Node14 -->
<g id="edge17" class="edge">
<title>Node13&#45;&gt;Node14</title>
<path fill="none" stroke="#63b8ff" d="M516.72,-178.73C464.33,-168.91 357.1,-148.8 291.23,-136.45"/>
<polygon fill="#63b8ff" stroke="#63b8ff" points="291.51,-132.94 281.03,-134.54 290.22,-139.82 291.51,-132.94"/>
</g>
<!-- Node16 -->
<g id="node16" class="node">
<title>Node16</title>
<g id="a_node16"><a xlink:href="solar_8h.html" target="_top" xlink:title="Solar voltage and current monitoring using INA219 IC.">
<polygon fill="white" stroke="#666666" points="617.49,-134.5 477.49,-134.5 477.49,-115.5 617.49,-115.5 617.49,-134.5"/>
<text text-anchor="middle" x="547.49" y="-122.5" font-family="Helvetica,sans-Serif" font-size="10.00">power_monitoring/solar.h</text>
</a>
</g>
</g>
<!-- Node13&#45;&gt;Node16 -->
<g id="edge20" class="edge">
<title>Node13&#45;&gt;Node16</title>
<path fill="none" stroke="#63b8ff" d="M547.49,-175.87C547.49,-167.75 547.49,-155.31 547.49,-144.89"/>
<polygon fill="#63b8ff" stroke="#63b8ff" points="550.99,-144.67 547.49,-134.67 543.99,-144.67 550.99,-144.67"/>
</g>
<!-- Node17 -->
<g id="node17" class="node">
<title>Node17</title>
<g id="a_node17"><a xlink:title=" ">
<polygon fill="#e0e0e0" stroke="#999999" points="459.49,-140 329.49,-140 329.49,-110 459.49,-110 459.49,-140"/>
<text text-anchor="start" x="337.49" y="-128" font-family="Helvetica,sans-Serif" font-size="10.00">SparkFun_u&#45;blox_SARA</text>
<text text-anchor="middle" x="394.49" y="-117" font-family="Helvetica,sans-Serif" font-size="10.00">&#45;R5_Arduino_Library.h</text>
</a>
</g>
</g>
<!-- Node13&#45;&gt;Node17 -->
<g id="edge23" class="edge">
<title>Node13&#45;&gt;Node17</title>
<path fill="none" stroke="#63b8ff" d="M525.24,-175.99C503.22,-167.57 468.85,-154.43 440.87,-143.73"/>
<polygon fill="#63b8ff" stroke="#63b8ff" points="441.86,-140.37 431.27,-140.06 439.36,-146.9 441.86,-140.37"/>
</g>
<!-- Node14&#45;&gt;Node2 -->
<g id="edge18" class="edge">
<title>Node14&#45;&gt;Node2</title>
<path fill="none" stroke="#63b8ff" d="M235.49,-115.47C235.49,-97.23 235.49,-54.07 235.49,-29.14"/>
<polygon fill="#63b8ff" stroke="#63b8ff" points="238.99,-29.13 235.49,-19.13 231.99,-29.13 238.99,-29.13"/>
</g>
<!-- Node15 -->
<g id="node15" class="node">
<title>Node15</title>
<g id="a_node15"><a xlink:title=" ">
<polygon fill="#e0e0e0" stroke="#999999" points="406.99,-74 301.99,-74 301.99,-55 406.99,-55 406.99,-74"/>
<text text-anchor="middle" x="354.49" y="-62" font-family="Helvetica,sans-Serif" font-size="10.00">Adafruit_INA219.h</text>
</a>
</g>
</g>
<!-- Node14&#45;&gt;Node15 -->
<g id="edge19" class="edge">
<title>Node14&#45;&gt;Node15</title>
<path fill="none" stroke="#63b8ff" d="M252.79,-115.49C272.53,-105.79 305.04,-89.81 327.98,-78.53"/>
<polygon fill="#63b8ff" stroke="#63b8ff" points="329.73,-81.57 337.16,-74.02 326.64,-75.29 329.73,-81.57"/>
</g>
<!-- Node16&#45;&gt;Node2 -->
<g id="edge21" class="edge">
<title>Node16&#45;&gt;Node2</title>
<path fill="none" stroke="#63b8ff" d="M533.74,-115.4C510.3,-101.05 460.71,-72.13 415.49,-55 369.4,-37.55 314.05,-25.05 277.01,-17.83"/>
<polygon fill="#63b8ff" stroke="#63b8ff" points="277.55,-14.37 267.07,-15.93 276.24,-21.24 277.55,-14.37"/>
</g>
<!-- Node16&#45;&gt;Node15 -->
<g id="edge22" class="edge">
<title>Node16&#45;&gt;Node15</title>
<path fill="none" stroke="#63b8ff" d="M519.42,-115.49C485.98,-105.36 429.93,-88.37 392.59,-77.05"/>
<polygon fill="#63b8ff" stroke="#63b8ff" points="393.17,-73.57 382.58,-74.02 391.14,-80.27 393.17,-73.57"/>
</g>
</g>
</svg>
