<?xml version="1.0" encoding="UTF-8" standalone="no"?>
<!DOCTYPE svg PUBLIC "-//W3C//DTD SVG 1.1//EN"
 "http://www.w3.org/Graphics/SVG/1.1/DTD/svg11.dtd">
<!-- Generated by graphviz version 2.43.0 (0)
 -->
<!-- Title: firmware/wombat/include/Utils.h Pages: 1 -->
<svg width="1999pt" height="258pt"
 viewBox="0.00 0.00 1999.00 258.00" xmlns="http://www.w3.org/2000/svg" xmlns:xlink="http://www.w3.org/1999/xlink">
<g id="graph0" class="graph" transform="scale(1 1) rotate(0) translate(4 254)">
<title>firmware/wombat/include/Utils.h</title>
<!-- Node1 -->
<g id="node1" class="node">
<title>Node1</title>
<g id="a_node1"><a xlink:title=" ">
<polygon fill="#999999" stroke="#666666" points="1177.5,-250 1036.5,-250 1036.5,-220 1177.5,-220 1177.5,-250"/>
<text text-anchor="start" x="1044.5" y="-238" font-family="Helvetica,sans-Serif" font-size="10.00">firmware/wombat/include</text>
<text text-anchor="middle" x="1107" y="-227" font-family="Helvetica,sans-Serif" font-size="10.00">/Utils.h</text>
</a>
</g>
</g>
<!-- Node2 -->
<g id="node2" class="node">
<title>Node2</title>
<g id="a_node2"><a xlink:href="sdi12_8h.html" target="_top" xlink:title="SDI&#45;12 command line interface handler.">
<polygon fill="white" stroke="#666666" points="627.5,-178.5 486.5,-178.5 486.5,-148.5 627.5,-148.5 627.5,-178.5"/>
<text text-anchor="start" x="494.5" y="-166.5" font-family="Helvetica,sans-Serif" font-size="10.00">firmware/wombat/include</text>
<text text-anchor="middle" x="557" y="-155.5" font-family="Helvetica,sans-Serif" font-size="10.00">/cli/peripherals/sdi12.h</text>
</a>
</g>
</g>
<!-- Node1&#45;&gt;Node2 -->
<g id="edge1" class="edge">
<title>Node1&#45;&gt;Node2</title>
<path fill="none" stroke="#63b8ff" d="M1026.23,-226.82C936.52,-218.42 787.52,-203.17 660,-184 649.38,-182.4 638.19,-180.51 627.25,-178.53"/>
<polygon fill="#63b8ff" stroke="#63b8ff" points="1026.05,-230.32 1036.33,-227.76 1026.7,-223.35 1026.05,-230.32"/>
</g>
<!-- Node5 -->
<g id="node5" class="node">
<title>Node5</title>
<g id="a_node5"><a xlink:href="cat-m1_8cpp.html" target="_top" xlink:title="CAT&#45;M1 CLI command request and response handler.">
<polygon fill="white" stroke="#666666" points="120,-41 0,-41 0,0 120,0 120,-41"/>
<text text-anchor="start" x="8" y="-29" font-family="Helvetica,sans-Serif" font-size="10.00">firmware/wombat/src</text>
<text text-anchor="start" x="8" y="-18" font-family="Helvetica,sans-Serif" font-size="10.00">/cli/peripherals/cat</text>
<text text-anchor="middle" x="60" y="-7" font-family="Helvetica,sans-Serif" font-size="10.00">&#45;m1.cpp</text>
</a>
</g>
</g>
<!-- Node1&#45;&gt;Node5 -->
<g id="edge17" class="edge">
<title>Node1&#45;&gt;Node5</title>
<path fill="none" stroke="#63b8ff" d="M1026.18,-230.53C880.45,-223.77 579.28,-207.45 477,-184 332.16,-150.79 171,-76.51 98.74,-41.05"/>
<polygon fill="#63b8ff" stroke="#63b8ff" points="1026.25,-234.03 1036.4,-231 1026.57,-227.04 1026.25,-234.03"/>
</g>
<!-- Node9 -->
<g id="node9" class="node">
<title>Node9</title>
<g id="a_node9"><a xlink:href="mqtt__stack_8cpp.html" target="_top" xlink:title=" ">
<polygon fill="white" stroke="#666666" points="828,-35.5 708,-35.5 708,-5.5 828,-5.5 828,-35.5"/>
<text text-anchor="start" x="716" y="-23.5" font-family="Helvetica,sans-Serif" font-size="10.00">firmware/wombat/src</text>
<text text-anchor="middle" x="768" y="-12.5" font-family="Helvetica,sans-Serif" font-size="10.00">/mqtt_stack.cpp</text>
</a>
</g>
</g>
<!-- Node1&#45;&gt;Node9 -->
<g id="edge19" class="edge">
<title>Node1&#45;&gt;Node9</title>
<path fill="none" stroke="#63b8ff" d="M1025.96,-229.9C911.71,-223.28 714.68,-208.45 693,-184 652.19,-137.96 719.37,-65.93 751.91,-35.65"/>
<polygon fill="#63b8ff" stroke="#63b8ff" points="1025.89,-233.4 1036.08,-230.48 1026.29,-226.42 1025.89,-233.4"/>
</g>
<!-- Node10 -->
<g id="node10" class="node">
<title>Node10</title>
<g id="a_node10"><a xlink:href="_c_a_t___m1_8cpp.html" target="_top" xlink:title=" ">
<polygon fill="white" stroke="#666666" points="822,-178.5 702,-178.5 702,-148.5 822,-148.5 822,-178.5"/>
<text text-anchor="start" x="710" y="-166.5" font-family="Helvetica,sans-Serif" font-size="10.00">firmware/wombat/src</text>
<text text-anchor="middle" x="762" y="-155.5" font-family="Helvetica,sans-Serif" font-size="10.00">/CAT_M1.cpp</text>
</a>
</g>
</g>
<!-- Node1&#45;&gt;Node10 -->
<g id="edge11" class="edge">
<title>Node1&#45;&gt;Node10</title>
<path fill="none" stroke="#63b8ff" d="M1026.2,-221.47C970.96,-212.38 896.21,-199.08 831,-184 823.97,-182.37 816.58,-180.48 809.36,-178.53"/>
<polygon fill="#63b8ff" stroke="#63b8ff" points="1025.85,-224.96 1036.28,-223.11 1026.98,-218.05 1025.85,-224.96"/>
</g>
<!-- Node11 -->
<g id="node11" class="node">
<title>Node11</title>
<g id="a_node11"><a xlink:href="_device_config_8cpp.html" target="_top" xlink:title=" ">
<polygon fill="white" stroke="#666666" points="960,-178.5 840,-178.5 840,-148.5 960,-148.5 960,-178.5"/>
<text text-anchor="start" x="848" y="-166.5" font-family="Helvetica,sans-Serif" font-size="10.00">firmware/wombat/src</text>
<text text-anchor="middle" x="900" y="-155.5" font-family="Helvetica,sans-Serif" font-size="10.00">/DeviceConfig.cpp</text>
</a>
</g>
</g>
<!-- Node1&#45;&gt;Node11 -->
<g id="edge12" class="edge">
<title>Node1&#45;&gt;Node11</title>
<path fill="none" stroke="#63b8ff" d="M1055.53,-216.72C1020.46,-204.95 974.64,-189.56 941.83,-178.54"/>
<polygon fill="#63b8ff" stroke="#63b8ff" points="1054.52,-220.07 1065.11,-219.94 1056.74,-213.43 1054.52,-220.07"/>
</g>
<!-- Node12 -->
<g id="node12" class="node">
<title>Node12</title>
<g id="a_node12"><a xlink:href="_sensor_task_8cpp.html" target="_top" xlink:title=" ">
<polygon fill="white" stroke="#666666" points="1098,-178.5 978,-178.5 978,-148.5 1098,-148.5 1098,-178.5"/>
<text text-anchor="start" x="986" y="-166.5" font-family="Helvetica,sans-Serif" font-size="10.00">firmware/wombat/src</text>
<text text-anchor="middle" x="1038" y="-155.5" font-family="Helvetica,sans-Serif" font-size="10.00">/SensorTask.cpp</text>
</a>
</g>
</g>
<!-- Node1&#45;&gt;Node12 -->
<g id="edge13" class="edge">
<title>Node1&#45;&gt;Node12</title>
<path fill="none" stroke="#63b8ff" d="M1085.82,-212.67C1074.81,-201.58 1061.66,-188.34 1051.94,-178.54"/>
<polygon fill="#63b8ff" stroke="#63b8ff" points="1083.51,-215.3 1093.04,-219.94 1088.48,-210.37 1083.51,-215.3"/>
</g>
<!-- Node13 -->
<g id="node13" class="node">
<title>Node13</title>
<g id="a_node13"><a xlink:href="_utils_8cpp.html" target="_top" xlink:title="Global utility functions.">
<polygon fill="white" stroke="#666666" points="1236,-178.5 1116,-178.5 1116,-148.5 1236,-148.5 1236,-178.5"/>
<text text-anchor="start" x="1124" y="-166.5" font-family="Helvetica,sans-Serif" font-size="10.00">firmware/wombat/src</text>
<text text-anchor="middle" x="1176" y="-155.5" font-family="Helvetica,sans-Serif" font-size="10.00">/Utils.cpp</text>
</a>
</g>
</g>
<!-- Node1&#45;&gt;Node13 -->
<g id="edge14" class="edge">
<title>Node1&#45;&gt;Node13</title>
<path fill="none" stroke="#63b8ff" d="M1128.18,-212.67C1139.19,-201.58 1152.34,-188.34 1162.06,-178.54"/>
<polygon fill="#63b8ff" stroke="#63b8ff" points="1125.52,-210.37 1120.96,-219.94 1130.49,-215.3 1125.52,-210.37"/>
</g>
<!-- Node14 -->
<g id="node14" class="node">
<title>Node14</title>
<g id="a_node14"><a xlink:href="acquisition__intervals_8cpp.html" target="_top" xlink:title="Handles the time between measurements and uplinks by the device over LTE.">
<polygon fill="white" stroke="#666666" points="1411.5,-184 1254.5,-184 1254.5,-143 1411.5,-143 1411.5,-184"/>
<text text-anchor="start" x="1262.5" y="-172" font-family="Helvetica,sans-Serif" font-size="10.00">firmware/wombat/src</text>
<text text-anchor="start" x="1262.5" y="-161" font-family="Helvetica,sans-Serif" font-size="10.00">/cli/device_config/acquisition</text>
<text text-anchor="middle" x="1333" y="-150" font-family="Helvetica,sans-Serif" font-size="10.00">_intervals.cpp</text>
</a>
</g>
</g>
<!-- Node1&#45;&gt;Node14 -->
<g id="edge15" class="edge">
<title>Node1&#45;&gt;Node14</title>
<path fill="none" stroke="#63b8ff" d="M1162.48,-216.94C1194.81,-207 1235.71,-194.42 1269.35,-184.07"/>
<polygon fill="#63b8ff" stroke="#63b8ff" points="1161.26,-213.65 1152.73,-219.94 1163.32,-220.34 1161.26,-213.65"/>
</g>
<!-- Node15 -->
<g id="node15" class="node">
<title>Node15</title>
<g id="a_node15"><a xlink:href="config__cli_8cpp.html" target="_top" xlink:title="Command line interface node configuration commands.">
<polygon fill="white" stroke="#666666" points="1562.5,-184 1429.5,-184 1429.5,-143 1562.5,-143 1562.5,-184"/>
<text text-anchor="start" x="1437.5" y="-172" font-family="Helvetica,sans-Serif" font-size="10.00">firmware/wombat/src</text>
<text text-anchor="start" x="1437.5" y="-161" font-family="Helvetica,sans-Serif" font-size="10.00">/cli/device_config/config</text>
<text text-anchor="middle" x="1496" y="-150" font-family="Helvetica,sans-Serif" font-size="10.00">_cli.cpp</text>
</a>
</g>
</g>
<!-- Node1&#45;&gt;Node15 -->
<g id="edge16" class="edge">
<title>Node1&#45;&gt;Node15</title>
<path fill="none" stroke="#63b8ff" d="M1187.48,-223.37C1251.15,-214.43 1342.14,-200.49 1421,-184 1423.77,-183.42 1426.58,-182.81 1429.42,-182.17"/>
<polygon fill="#63b8ff" stroke="#63b8ff" points="1186.93,-219.91 1177.5,-224.76 1187.89,-226.84 1186.93,-219.91"/>
</g>
<!-- Node16 -->
<g id="node16" class="node">
<title>Node16</title>
<g id="a_node16"><a xlink:href="ftp__stack_8cpp.html" target="_top" xlink:title=" ">
<polygon fill="white" stroke="#666666" points="1701,-178.5 1581,-178.5 1581,-148.5 1701,-148.5 1701,-178.5"/>
<text text-anchor="start" x="1589" y="-166.5" font-family="Helvetica,sans-Serif" font-size="10.00">firmware/wombat/src</text>
<text text-anchor="middle" x="1641" y="-155.5" font-family="Helvetica,sans-Serif" font-size="10.00">/ftp_stack.cpp</text>
</a>
</g>
</g>
<!-- Node1&#45;&gt;Node16 -->
<g id="edge18" class="edge">
<title>Node1&#45;&gt;Node16</title>
<path fill="none" stroke="#63b8ff" d="M1187.87,-229.44C1281.12,-223.24 1438.69,-209.81 1572,-184 1579.58,-182.53 1587.53,-180.63 1595.24,-178.59"/>
<polygon fill="#63b8ff" stroke="#63b8ff" points="1187.41,-225.97 1177.66,-230.11 1187.87,-232.95 1187.41,-225.97"/>
</g>
<!-- Node17 -->
<g id="node17" class="node">
<title>Node17</title>
<g id="a_node17"><a xlink:href="uplinks_8cpp.html" target="_top" xlink:title=" ">
<polygon fill="white" stroke="#666666" points="1839,-178.5 1719,-178.5 1719,-148.5 1839,-148.5 1839,-178.5"/>
<text text-anchor="start" x="1727" y="-166.5" font-family="Helvetica,sans-Serif" font-size="10.00">firmware/wombat/src</text>
<text text-anchor="middle" x="1779" y="-155.5" font-family="Helvetica,sans-Serif" font-size="10.00">/uplinks.cpp</text>
</a>
</g>
</g>
<!-- Node1&#45;&gt;Node17 -->
<g id="edge20" class="edge">
<title>Node1&#45;&gt;Node17</title>
<path fill="none" stroke="#63b8ff" d="M1187.91,-232.23C1304.25,-228.58 1525.13,-217.47 1710,-184 1717.84,-182.58 1726.07,-180.65 1734.01,-178.56"/>
<polygon fill="#63b8ff" stroke="#63b8ff" points="1187.56,-228.74 1177.67,-232.54 1187.77,-235.74 1187.56,-228.74"/>
</g>
<!-- Node18 -->
<g id="node18" class="node">
<title>Node18</title>
<g id="a_node18"><a xlink:href="test___utils_8cpp.html" target="_top" xlink:title=" ">
<polygon fill="white" stroke="#666666" points="1991,-178.5 1857,-178.5 1857,-148.5 1991,-148.5 1991,-178.5"/>
<text text-anchor="start" x="1865" y="-166.5" font-family="Helvetica,sans-Serif" font-size="10.00">firmware/wombat/test</text>
<text text-anchor="middle" x="1924" y="-155.5" font-family="Helvetica,sans-Serif" font-size="10.00">/test_utils/test_Utils.cpp</text>
</a>
</g>
</g>
<!-- Node1&#45;&gt;Node18 -->
<g id="edge21" class="edge">
<title>Node1&#45;&gt;Node18</title>
<path fill="none" stroke="#63b8ff" d="M1188.12,-233.39C1325.02,-231.27 1610.24,-222.19 1848,-184 1856.74,-182.6 1865.94,-180.65 1874.81,-178.52"/>
<polygon fill="#63b8ff" stroke="#63b8ff" points="1187.67,-229.89 1177.73,-233.54 1187.78,-236.89 1187.67,-229.89"/>
</g>
<!-- Node2&#45;&gt;Node2 -->
<g id="edge9" class="edge">
<title>Node2&#45;&gt;Node2</title>
<path fill="none" stroke="#63b8ff" d="M637.7,-172.59C642.57,-170.43 645.5,-167.4 645.5,-163.5 645.5,-157.42 638.37,-153.45 627.83,-151.59"/>
<polygon fill="#63b8ff" stroke="#63b8ff" points="636.48,-169.3 627.83,-175.41 638.4,-176.03 636.48,-169.3"/>
</g>
<!-- Node3 -->
<g id="node3" class="node">
<title>Node3</title>
<g id="a_node3"><a xlink:href="_c_l_i_8h.html" target="_top" xlink:title="FreeRTOS CLI handler.">
<polygon fill="white" stroke="#666666" points="544.5,-107 403.5,-107 403.5,-77 544.5,-77 544.5,-107"/>
<text text-anchor="start" x="411.5" y="-95" font-family="Helvetica,sans-Serif" font-size="10.00">firmware/wombat/include</text>
<text text-anchor="middle" x="474" y="-84" font-family="Helvetica,sans-Serif" font-size="10.00">/cli/CLI.h</text>
</a>
</g>
</g>
<!-- Node2&#45;&gt;Node3 -->
<g id="edge2" class="edge">
<title>Node2&#45;&gt;Node3</title>
<path fill="none" stroke="#63b8ff" d="M532.29,-141.81C518.89,-130.59 502.69,-117.02 490.77,-107.04"/>
<polygon fill="#63b8ff" stroke="#63b8ff" points="530.29,-144.7 540.2,-148.44 534.78,-139.33 530.29,-144.7"/>
</g>
<!-- Node7 -->
<g id="node7" class="node">
<title>Node7</title>
<g id="a_node7"><a xlink:href="sdi12_8cpp.html" target="_top" xlink:title="SDI&#45;12 command line interface handler.">
<polygon fill="white" stroke="#666666" points="690,-35.5 552,-35.5 552,-5.5 690,-5.5 690,-35.5"/>
<text text-anchor="start" x="560" y="-23.5" font-family="Helvetica,sans-Serif" font-size="10.00">firmware/wombat/src</text>
<text text-anchor="middle" x="621" y="-12.5" font-family="Helvetica,sans-Serif" font-size="10.00">/cli/peripherals/sdi12.cpp</text>
</a>
</g>
</g>
<!-- Node2&#45;&gt;Node7 -->
<g id="edge10" class="edge">
<title>Node2&#45;&gt;Node7</title>
<path fill="none" stroke="#63b8ff" d="M567.68,-138.98C581.02,-109.58 603.43,-60.2 614.46,-35.9"/>
<polygon fill="#63b8ff" stroke="#63b8ff" points="564.32,-137.91 563.37,-148.46 570.69,-140.81 564.32,-137.91"/>
</g>
<!-- Node4 -->
<g id="node4" class="node">
<title>Node4</title>
<g id="a_node4"><a xlink:href="_c_l_i_8cpp.html" target="_top" xlink:title="FreeRTOS CLI handler.">
<polygon fill="white" stroke="#666666" points="258,-35.5 138,-35.5 138,-5.5 258,-5.5 258,-35.5"/>
<text text-anchor="start" x="146" y="-23.5" font-family="Helvetica,sans-Serif" font-size="10.00">firmware/wombat/src</text>
<text text-anchor="middle" x="198" y="-12.5" font-family="Helvetica,sans-Serif" font-size="10.00">/cli/CLI.cpp</text>
</a>
</g>
</g>
<!-- Node3&#45;&gt;Node4 -->
<g id="edge3" class="edge">
<title>Node3&#45;&gt;Node4</title>
<path fill="none" stroke="#63b8ff" d="M403.22,-74.61C363.15,-65.16 312.17,-52.83 267,-41 260.5,-39.3 253.67,-37.44 246.94,-35.58"/>
<polygon fill="#63b8ff" stroke="#63b8ff" points="402.62,-78.07 413.16,-76.95 404.23,-71.26 402.62,-78.07"/>
</g>
<!-- Node3&#45;&gt;Node5 -->
<g id="edge4" class="edge">
<title>Node3&#45;&gt;Node5</title>
<path fill="none" stroke="#63b8ff" d="M393.37,-82.36C323.11,-74.1 218.71,-60.09 129,-41 126.08,-40.38 123.1,-39.7 120.09,-38.99"/>
<polygon fill="#63b8ff" stroke="#63b8ff" points="393.14,-85.85 403.48,-83.53 393.95,-78.9 393.14,-85.85"/>
</g>
<!-- Node6 -->
<g id="node6" class="node">
<title>Node6</title>
<g id="a_node6"><a xlink:href="sd__card_8cpp.html" target="_top" xlink:title=" ">
<polygon fill="white" stroke="#666666" points="396,-41 276,-41 276,0 396,0 396,-41"/>
<text text-anchor="start" x="284" y="-29" font-family="Helvetica,sans-Serif" font-size="10.00">firmware/wombat/src</text>
<text text-anchor="start" x="284" y="-18" font-family="Helvetica,sans-Serif" font-size="10.00">/cli/peripherals/sd</text>
<text text-anchor="middle" x="336" y="-7" font-family="Helvetica,sans-Serif" font-size="10.00">_card.cpp</text>
</a>
</g>
</g>
<!-- Node3&#45;&gt;Node6 -->
<g id="edge5" class="edge">
<title>Node3&#45;&gt;Node6</title>
<path fill="none" stroke="#63b8ff" d="M437.02,-72.38C417.81,-62.7 394.34,-50.88 374.87,-41.07"/>
<polygon fill="#63b8ff" stroke="#63b8ff" points="435.57,-75.56 446.07,-76.94 438.72,-69.31 435.57,-75.56"/>
</g>
<!-- Node3&#45;&gt;Node7 -->
<g id="edge6" class="edge">
<title>Node3&#45;&gt;Node7</title>
<path fill="none" stroke="#63b8ff" d="M512.81,-72.65C537.39,-61.03 568.69,-46.23 591.3,-35.54"/>
<polygon fill="#63b8ff" stroke="#63b8ff" points="511.29,-69.5 503.75,-76.94 514.28,-75.83 511.29,-69.5"/>
</g>
<!-- Node8 -->
<g id="node8" class="node">
<title>Node8</title>
<g id="a_node8"><a xlink:href="main_8cpp.html" target="_top" xlink:title=" ">
<polygon fill="white" stroke="#666666" points="534,-35.5 414,-35.5 414,-5.5 534,-5.5 534,-35.5"/>
<text text-anchor="start" x="422" y="-23.5" font-family="Helvetica,sans-Serif" font-size="10.00">firmware/wombat/src</text>
<text text-anchor="middle" x="474" y="-12.5" font-family="Helvetica,sans-Serif" font-size="10.00">/main.cpp</text>
</a>
</g>
</g>
<!-- Node3&#45;&gt;Node8 -->
<g id="edge7" class="edge">
<title>Node3&#45;&gt;Node8</title>
<path fill="none" stroke="#63b8ff" d="M474,-66.75C474,-56.31 474,-44.49 474,-35.54"/>
<polygon fill="#63b8ff" stroke="#63b8ff" points="470.5,-66.94 474,-76.94 477.5,-66.94 470.5,-66.94"/>
</g>
<!-- Node3&#45;&gt;Node9 -->
<g id="edge8" class="edge">
<title>Node3&#45;&gt;Node9</title>
<path fill="none" stroke="#63b8ff" d="M552.1,-74.78C595.5,-65.49 650.4,-53.26 699,-41 705.64,-39.33 712.61,-37.47 719.46,-35.59"/>
<polygon fill="#63b8ff" stroke="#63b8ff" points="551.22,-71.39 542.17,-76.9 552.68,-78.24 551.22,-71.39"/>
</g>
</g>
</svg>
