<?xml version="1.0" encoding="UTF-8" standalone="no"?>
<!DOCTYPE svg PUBLIC "-//W3C//DTD SVG 1.1//EN"
 "http://www.w3.org/Graphics/SVG/1.1/DTD/svg11.dtd">
<!-- Generated by graphviz version 2.43.0 (0)
 -->
<!-- Title: firmware/wombat/include/Utils.h Pages: 1 -->
<svg width="1710pt" height="390pt"
 viewBox="0.00 0.00 1710.00 390.00" xmlns="http://www.w3.org/2000/svg" xmlns:xlink="http://www.w3.org/1999/xlink">
<g id="graph0" class="graph" transform="scale(1 1) rotate(0) translate(4 386)">
<title>firmware/wombat/include/Utils.h</title>
<!-- Node1 -->
<g id="node1" class="node">
<title>Node1</title>
<g id="a_node1"><a xlink:title=" ">
<polygon fill="#999999" stroke="#666666" points="1039.5,-382 898.5,-382 898.5,-352 1039.5,-352 1039.5,-382"/>
<text text-anchor="start" x="906.5" y="-370" font-family="Helvetica,sans-Serif" font-size="10.00">firmware/wombat/include</text>
<text text-anchor="middle" x="969" y="-359" font-family="Helvetica,sans-Serif" font-size="10.00">/Utils.h</text>
</a>
</g>
</g>
<!-- Node2 -->
<g id="node2" class="node">
<title>Node2</title>
<g id="a_node2"><a xlink:href="sdi12_8h.html" target="_top" xlink:title="SDI&#45;12 command line interface handler.">
<polygon fill="white" stroke="#666666" points="573.5,-310.5 432.5,-310.5 432.5,-280.5 573.5,-280.5 573.5,-310.5"/>
<text text-anchor="start" x="440.5" y="-298.5" font-family="Helvetica,sans-Serif" font-size="10.00">firmware/wombat/include</text>
<text text-anchor="middle" x="503" y="-287.5" font-family="Helvetica,sans-Serif" font-size="10.00">/cli/peripherals/sdi12.h</text>
</a>
</g>
</g>
<!-- Node1&#45;&gt;Node2 -->
<g id="edge1" class="edge">
<title>Node1&#45;&gt;Node2</title>
<path fill="none" stroke="#63b8ff" d="M888.46,-353.99C799.72,-340.75 658.39,-319.67 573.76,-307.05"/>
<polygon fill="#63b8ff" stroke="#63b8ff" points="888.07,-357.47 898.48,-355.48 889.1,-350.55 888.07,-357.47"/>
</g>
<!-- Node9 -->
<g id="node9" class="node">
<title>Node9</title>
<g id="a_node9"><a xlink:href="cat-m1_8cpp.html" target="_top" xlink:title="CAT&#45;M1 CLI command request and response handler.">
<polygon fill="white" stroke="#666666" points="120,-173 0,-173 0,-132 120,-132 120,-173"/>
<text text-anchor="start" x="8" y="-161" font-family="Helvetica,sans-Serif" font-size="10.00">firmware/wombat/src</text>
<text text-anchor="start" x="8" y="-150" font-family="Helvetica,sans-Serif" font-size="10.00">/cli/peripherals/cat</text>
<text text-anchor="middle" x="60" y="-139" font-family="Helvetica,sans-Serif" font-size="10.00">&#45;m1.cpp</text>
</a>
</g>
</g>
<!-- Node1&#45;&gt;Node9 -->
<g id="edge22" class="edge">
<title>Node1&#45;&gt;Node9</title>
<path fill="none" stroke="#63b8ff" d="M888.19,-366.83C780.35,-366.08 584.24,-358.22 423,-316 295.42,-282.59 156.15,-208.58 93.65,-173.15"/>
<polygon fill="#63b8ff" stroke="#63b8ff" points="888.33,-370.33 898.35,-366.88 888.37,-363.33 888.33,-370.33"/>
</g>
<!-- Node12 -->
<g id="node12" class="node">
<title>Node12</title>
<g id="a_node12"><a xlink:href="ftp__stack_8cpp.html" target="_top" xlink:title=" ">
<polygon fill="white" stroke="#666666" points="988,-167.5 868,-167.5 868,-137.5 988,-137.5 988,-167.5"/>
<text text-anchor="start" x="876" y="-155.5" font-family="Helvetica,sans-Serif" font-size="10.00">firmware/wombat/src</text>
<text text-anchor="middle" x="928" y="-144.5" font-family="Helvetica,sans-Serif" font-size="10.00">/ftp_stack.cpp</text>
</a>
</g>
</g>
<!-- Node1&#45;&gt;Node12 -->
<g id="edge23" class="edge">
<title>Node1&#45;&gt;Node12</title>
<path fill="none" stroke="#63b8ff" d="M888.17,-351.96C849.63,-343.45 809.45,-331.28 798,-316 769.48,-277.95 771.79,-248.68 798,-209 807.74,-194.26 847.65,-178.54 880.72,-167.61"/>
<polygon fill="#63b8ff" stroke="#63b8ff" points="887.93,-355.49 898.44,-354.15 889.39,-348.64 887.93,-355.49"/>
</g>
<!-- Node14 -->
<g id="node14" class="node">
<title>Node14</title>
<g id="a_node14"><a xlink:href="mqtt__stack_8cpp.html" target="_top" xlink:title=" ">
<polygon fill="white" stroke="#666666" points="1126,-167.5 1006,-167.5 1006,-137.5 1126,-137.5 1126,-167.5"/>
<text text-anchor="start" x="1014" y="-155.5" font-family="Helvetica,sans-Serif" font-size="10.00">firmware/wombat/src</text>
<text text-anchor="middle" x="1066" y="-144.5" font-family="Helvetica,sans-Serif" font-size="10.00">/mqtt_stack.cpp</text>
</a>
</g>
</g>
<!-- Node1&#45;&gt;Node14 -->
<g id="edge24" class="edge">
<title>Node1&#45;&gt;Node14</title>
<path fill="none" stroke="#63b8ff" d="M888.77,-354.54C866.42,-347.24 844.57,-335.35 831,-316 820.54,-301.08 821.53,-290.57 831,-275 853.21,-238.51 967.2,-190.91 1027.88,-167.6"/>
<polygon fill="#63b8ff" stroke="#63b8ff" points="887.78,-357.9 898.36,-357.4 889.77,-351.19 887.78,-357.9"/>
</g>
<!-- Node15 -->
<g id="node15" class="node">
<title>Node15</title>
<g id="a_node15"><a xlink:href="_device_config_8cpp.html" target="_top" xlink:title=" ">
<polygon fill="white" stroke="#666666" points="960,-310.5 840,-310.5 840,-280.5 960,-280.5 960,-310.5"/>
<text text-anchor="start" x="848" y="-298.5" font-family="Helvetica,sans-Serif" font-size="10.00">firmware/wombat/src</text>
<text text-anchor="middle" x="900" y="-287.5" font-family="Helvetica,sans-Serif" font-size="10.00">/DeviceConfig.cpp</text>
</a>
</g>
</g>
<!-- Node1&#45;&gt;Node15 -->
<g id="edge18" class="edge">
<title>Node1&#45;&gt;Node15</title>
<path fill="none" stroke="#63b8ff" d="M947.82,-344.67C936.81,-333.58 923.66,-320.34 913.94,-310.54"/>
<polygon fill="#63b8ff" stroke="#63b8ff" points="945.51,-347.3 955.04,-351.94 950.48,-342.37 945.51,-347.3"/>
</g>
<!-- Node16 -->
<g id="node16" class="node">
<title>Node16</title>
<g id="a_node16"><a xlink:href="_sensor_task_8cpp.html" target="_top" xlink:title=" ">
<polygon fill="white" stroke="#666666" points="1098,-310.5 978,-310.5 978,-280.5 1098,-280.5 1098,-310.5"/>
<text text-anchor="start" x="986" y="-298.5" font-family="Helvetica,sans-Serif" font-size="10.00">firmware/wombat/src</text>
<text text-anchor="middle" x="1038" y="-287.5" font-family="Helvetica,sans-Serif" font-size="10.00">/SensorTask.cpp</text>
</a>
</g>
</g>
<!-- Node1&#45;&gt;Node16 -->
<g id="edge19" class="edge">
<title>Node1&#45;&gt;Node16</title>
<path fill="none" stroke="#63b8ff" d="M990.18,-344.67C1001.19,-333.58 1014.34,-320.34 1024.06,-310.54"/>
<polygon fill="#63b8ff" stroke="#63b8ff" points="987.52,-342.37 982.96,-351.94 992.49,-347.3 987.52,-342.37"/>
</g>
<!-- Node17 -->
<g id="node17" class="node">
<title>Node17</title>
<g id="a_node17"><a xlink:href="_utils_8cpp.html" target="_top" xlink:title="Global utility functions.">
<polygon fill="white" stroke="#666666" points="1236,-310.5 1116,-310.5 1116,-280.5 1236,-280.5 1236,-310.5"/>
<text text-anchor="start" x="1124" y="-298.5" font-family="Helvetica,sans-Serif" font-size="10.00">firmware/wombat/src</text>
<text text-anchor="middle" x="1176" y="-287.5" font-family="Helvetica,sans-Serif" font-size="10.00">/Utils.cpp</text>
</a>
</g>
</g>
<!-- Node1&#45;&gt;Node17 -->
<g id="edge20" class="edge">
<title>Node1&#45;&gt;Node17</title>
<path fill="none" stroke="#63b8ff" d="M1020.47,-348.72C1055.54,-336.95 1101.36,-321.56 1134.17,-310.54"/>
<polygon fill="#63b8ff" stroke="#63b8ff" points="1019.26,-345.43 1010.89,-351.94 1021.48,-352.07 1019.26,-345.43"/>
</g>
<!-- Node18 -->
<g id="node18" class="node">
<title>Node18</title>
<g id="a_node18"><a xlink:href="acquisition__intervals_8cpp.html" target="_top" xlink:title="Handles the time between measurements and uplinks by the device over LTE.">
<polygon fill="white" stroke="#666666" points="1411.5,-316 1254.5,-316 1254.5,-275 1411.5,-275 1411.5,-316"/>
<text text-anchor="start" x="1262.5" y="-304" font-family="Helvetica,sans-Serif" font-size="10.00">firmware/wombat/src</text>
<text text-anchor="start" x="1262.5" y="-293" font-family="Helvetica,sans-Serif" font-size="10.00">/cli/device_config/acquisition</text>
<text text-anchor="middle" x="1333" y="-282" font-family="Helvetica,sans-Serif" font-size="10.00">_intervals.cpp</text>
</a>
</g>
</g>
<!-- Node1&#45;&gt;Node18 -->
<g id="edge21" class="edge">
<title>Node1&#45;&gt;Node18</title>
<path fill="none" stroke="#63b8ff" d="M1049.82,-352.21C1104.92,-342.6 1179.5,-329.19 1245,-316 1248.07,-315.38 1251.19,-314.74 1254.35,-314.09"/>
<polygon fill="#63b8ff" stroke="#63b8ff" points="1049.02,-348.8 1039.76,-353.96 1050.22,-355.69 1049.02,-348.8"/>
</g>
<!-- Node19 -->
<g id="node19" class="node">
<title>Node19</title>
<g id="a_node19"><a xlink:href="uplinks_8cpp.html" target="_top" xlink:title=" ">
<polygon fill="white" stroke="#666666" points="1550,-310.5 1430,-310.5 1430,-280.5 1550,-280.5 1550,-310.5"/>
<text text-anchor="start" x="1438" y="-298.5" font-family="Helvetica,sans-Serif" font-size="10.00">firmware/wombat/src</text>
<text text-anchor="middle" x="1490" y="-287.5" font-family="Helvetica,sans-Serif" font-size="10.00">/uplinks.cpp</text>
</a>
</g>
</g>
<!-- Node1&#45;&gt;Node19 -->
<g id="edge25" class="edge">
<title>Node1&#45;&gt;Node19</title>
<path fill="none" stroke="#63b8ff" d="M1049.85,-361.1C1140.76,-354.66 1292.48,-341.09 1421,-316 1428.57,-314.52 1436.53,-312.61 1444.23,-310.57"/>
<polygon fill="#63b8ff" stroke="#63b8ff" points="1049.35,-357.63 1039.62,-361.81 1049.84,-364.61 1049.35,-357.63"/>
</g>
<!-- Node20 -->
<g id="node20" class="node">
<title>Node20</title>
<g id="a_node20"><a xlink:href="test___utils_8cpp.html" target="_top" xlink:title=" ">
<polygon fill="white" stroke="#666666" points="1702,-310.5 1568,-310.5 1568,-280.5 1702,-280.5 1702,-310.5"/>
<text text-anchor="start" x="1576" y="-298.5" font-family="Helvetica,sans-Serif" font-size="10.00">firmware/wombat/test</text>
<text text-anchor="middle" x="1635" y="-287.5" font-family="Helvetica,sans-Serif" font-size="10.00">/test_utils/test_Utils.cpp</text>
</a>
</g>
</g>
<!-- Node1&#45;&gt;Node20 -->
<g id="edge26" class="edge">
<title>Node1&#45;&gt;Node20</title>
<path fill="none" stroke="#63b8ff" d="M1049.92,-363.41C1164.11,-358.79 1378.71,-346.55 1559,-316 1567.46,-314.57 1576.36,-312.66 1584.97,-310.59"/>
<polygon fill="#63b8ff" stroke="#63b8ff" points="1049.72,-359.91 1039.86,-363.81 1049.99,-366.91 1049.72,-359.91"/>
</g>
<!-- Node2&#45;&gt;Node2 -->
<g id="edge16" class="edge">
<title>Node2&#45;&gt;Node2</title>
<path fill="none" stroke="#63b8ff" d="M583.7,-304.59C588.57,-302.43 591.5,-299.4 591.5,-295.5 591.5,-289.42 584.37,-285.45 573.83,-283.59"/>
<polygon fill="#63b8ff" stroke="#63b8ff" points="582.48,-301.3 573.83,-307.41 584.4,-308.03 582.48,-301.3"/>
</g>
<!-- Node3 -->
<g id="node3" class="node">
<title>Node3</title>
<g id="a_node3"><a xlink:href="_c_l_i_8h.html" target="_top" xlink:title="FreeRTOS CLI handler.">
<polygon fill="white" stroke="#666666" points="573.5,-239 432.5,-239 432.5,-209 573.5,-209 573.5,-239"/>
<text text-anchor="start" x="440.5" y="-227" font-family="Helvetica,sans-Serif" font-size="10.00">firmware/wombat/include</text>
<text text-anchor="middle" x="503" y="-216" font-family="Helvetica,sans-Serif" font-size="10.00">/cli/CLI.h</text>
</a>
</g>
</g>
<!-- Node2&#45;&gt;Node3 -->
<g id="edge2" class="edge">
<title>Node2&#45;&gt;Node3</title>
<path fill="none" stroke="#63b8ff" d="M503,-270.25C503,-259.81 503,-247.99 503,-239.04"/>
<polygon fill="#63b8ff" stroke="#63b8ff" points="499.5,-270.44 503,-280.44 506.5,-270.44 499.5,-270.44"/>
</g>
<!-- Node11 -->
<g id="node11" class="node">
<title>Node11</title>
<g id="a_node11"><a xlink:href="sdi12_8cpp.html" target="_top" xlink:title="SDI&#45;12 command line interface handler.">
<polygon fill="white" stroke="#666666" points="276,-167.5 138,-167.5 138,-137.5 276,-137.5 276,-167.5"/>
<text text-anchor="start" x="146" y="-155.5" font-family="Helvetica,sans-Serif" font-size="10.00">firmware/wombat/src</text>
<text text-anchor="middle" x="207" y="-144.5" font-family="Helvetica,sans-Serif" font-size="10.00">/cli/peripherals/sdi12.cpp</text>
</a>
</g>
</g>
<!-- Node2&#45;&gt;Node11 -->
<g id="edge17" class="edge">
<title>Node2&#45;&gt;Node11</title>
<path fill="none" stroke="#63b8ff" d="M464.42,-276.12C404.59,-247.62 290.74,-193.39 236.78,-167.69"/>
<polygon fill="#63b8ff" stroke="#63b8ff" points="463,-279.32 473.54,-280.46 466.01,-273 463,-279.32"/>
</g>
<!-- Node4 -->
<g id="node4" class="node">
<title>Node4</title>
<g id="a_node4"><a xlink:href="server_8h.html" target="_top" xlink:title="Handle the setup and maintenance of the BLE server and connected clients.">
<polygon fill="white" stroke="#666666" points="573.5,-167.5 432.5,-167.5 432.5,-137.5 573.5,-137.5 573.5,-167.5"/>
<text text-anchor="start" x="440.5" y="-155.5" font-family="Helvetica,sans-Serif" font-size="10.00">firmware/wombat/include</text>
<text text-anchor="middle" x="503" y="-144.5" font-family="Helvetica,sans-Serif" font-size="10.00">/bluetooth/server.h</text>
</a>
</g>
</g>
<!-- Node3&#45;&gt;Node4 -->
<g id="edge3" class="edge">
<title>Node3&#45;&gt;Node4</title>
<path fill="none" stroke="#63b8ff" d="M496.53,-198.75C495.96,-188.31 496.26,-176.49 497.45,-167.54"/>
<polygon fill="#63b8ff" stroke="#63b8ff" points="493.07,-199.29 497.45,-208.94 500.04,-198.66 493.07,-199.29"/>
</g>
<!-- Node8 -->
<g id="node8" class="node">
<title>Node8</title>
<g id="a_node8"><a xlink:href="_c_l_i_8cpp.html" target="_top" xlink:title="FreeRTOS CLI handler.">
<polygon fill="white" stroke="#666666" points="712,-167.5 592,-167.5 592,-137.5 712,-137.5 712,-167.5"/>
<text text-anchor="start" x="600" y="-155.5" font-family="Helvetica,sans-Serif" font-size="10.00">firmware/wombat/src</text>
<text text-anchor="middle" x="652" y="-144.5" font-family="Helvetica,sans-Serif" font-size="10.00">/cli/CLI.cpp</text>
</a>
</g>
</g>
<!-- Node3&#45;&gt;Node8 -->
<g id="edge9" class="edge">
<title>Node3&#45;&gt;Node8</title>
<path fill="none" stroke="#63b8ff" d="M542.34,-204.65C567.25,-193.03 598.98,-178.23 621.89,-167.54"/>
<polygon fill="#63b8ff" stroke="#63b8ff" points="540.74,-201.54 533.15,-208.94 543.69,-207.88 540.74,-201.54"/>
</g>
<!-- Node3&#45;&gt;Node9 -->
<g id="edge10" class="edge">
<title>Node3&#45;&gt;Node9</title>
<path fill="none" stroke="#63b8ff" d="M422.18,-215.56C346.05,-207.75 229.07,-193.72 129,-173 126.07,-172.39 123.09,-171.73 120.09,-171.03"/>
<polygon fill="#63b8ff" stroke="#63b8ff" points="421.88,-219.04 432.19,-216.57 422.59,-212.08 421.88,-219.04"/>
</g>
<!-- Node10 -->
<g id="node10" class="node">
<title>Node10</title>
<g id="a_node10"><a xlink:href="sd__card_8cpp.html" target="_top" xlink:title=" ">
<polygon fill="white" stroke="#666666" points="850,-173 730,-173 730,-132 850,-132 850,-173"/>
<text text-anchor="start" x="738" y="-161" font-family="Helvetica,sans-Serif" font-size="10.00">firmware/wombat/src</text>
<text text-anchor="start" x="738" y="-150" font-family="Helvetica,sans-Serif" font-size="10.00">/cli/peripherals/sd</text>
<text text-anchor="middle" x="790" y="-139" font-family="Helvetica,sans-Serif" font-size="10.00">_card.cpp</text>
</a>
</g>
</g>
<!-- Node3&#45;&gt;Node10 -->
<g id="edge11" class="edge">
<title>Node3&#45;&gt;Node10</title>
<path fill="none" stroke="#63b8ff" d="M577.98,-206.77C620.13,-197.41 673.64,-185.12 721,-173 723.89,-172.26 726.85,-171.49 729.84,-170.69"/>
<polygon fill="#63b8ff" stroke="#63b8ff" points="577.08,-203.39 568.07,-208.97 578.59,-210.22 577.08,-203.39"/>
</g>
<!-- Node3&#45;&gt;Node11 -->
<g id="edge12" class="edge">
<title>Node3&#45;&gt;Node11</title>
<path fill="none" stroke="#63b8ff" d="M430.47,-206.74C388.02,-197.13 333.42,-184.6 285,-173 277.81,-171.28 270.25,-169.43 262.78,-167.59"/>
<polygon fill="#63b8ff" stroke="#63b8ff" points="429.91,-210.2 440.43,-208.99 431.45,-203.37 429.91,-210.2"/>
</g>
<!-- Node3&#45;&gt;Node12 -->
<g id="edge13" class="edge">
<title>Node3&#45;&gt;Node12</title>
<path fill="none" stroke="#63b8ff" d="M583.72,-214.83C656.23,-206.74 765.38,-192.71 859,-173 866.31,-171.46 873.98,-169.57 881.45,-167.58"/>
<polygon fill="#63b8ff" stroke="#63b8ff" points="583.3,-211.36 573.74,-215.93 584.06,-218.31 583.3,-211.36"/>
</g>
<!-- Node13 -->
<g id="node13" class="node">
<title>Node13</title>
<g id="a_node13"><a xlink:href="main_8cpp.html" target="_top" xlink:title=" ">
<polygon fill="white" stroke="#666666" points="414,-167.5 294,-167.5 294,-137.5 414,-137.5 414,-167.5"/>
<text text-anchor="start" x="302" y="-155.5" font-family="Helvetica,sans-Serif" font-size="10.00">firmware/wombat/src</text>
<text text-anchor="middle" x="354" y="-144.5" font-family="Helvetica,sans-Serif" font-size="10.00">/main.cpp</text>
</a>
</g>
</g>
<!-- Node3&#45;&gt;Node13 -->
<g id="edge14" class="edge">
<title>Node3&#45;&gt;Node13</title>
<path fill="none" stroke="#63b8ff" d="M463.66,-204.65C438.75,-193.03 407.02,-178.23 384.11,-167.54"/>
<polygon fill="#63b8ff" stroke="#63b8ff" points="462.31,-207.88 472.85,-208.94 465.26,-201.54 462.31,-207.88"/>
</g>
<!-- Node3&#45;&gt;Node14 -->
<g id="edge15" class="edge">
<title>Node3&#45;&gt;Node14</title>
<path fill="none" stroke="#63b8ff" d="M583.66,-219.17C681.98,-213.5 852.85,-200.45 997,-173 1004.7,-171.53 1012.8,-169.61 1020.62,-167.54"/>
<polygon fill="#63b8ff" stroke="#63b8ff" points="583.29,-215.68 573.5,-219.74 583.68,-222.67 583.29,-215.68"/>
</g>
<!-- Node4&#45;&gt;Node3 -->
<g id="edge7" class="edge">
<title>Node4&#45;&gt;Node3</title>
<path fill="none" stroke="#63b8ff" d="M509.47,-177.73C510.04,-188.16 509.74,-199.99 508.55,-208.94"/>
<polygon fill="#63b8ff" stroke="#63b8ff" points="512.93,-177.19 508.55,-167.54 505.96,-177.82 512.93,-177.19"/>
</g>
<!-- Node5 -->
<g id="node5" class="node">
<title>Node5</title>
<g id="a_node5"><a xlink:href="uart_8h.html" target="_top" xlink:title="BluetoothLE UART service setup and handling.">
<polygon fill="white" stroke="#666666" points="573.5,-96 432.5,-96 432.5,-66 573.5,-66 573.5,-96"/>
<text text-anchor="start" x="440.5" y="-84" font-family="Helvetica,sans-Serif" font-size="10.00">firmware/wombat/include</text>
<text text-anchor="middle" x="503" y="-73" font-family="Helvetica,sans-Serif" font-size="10.00">/bluetooth/uart.h</text>
</a>
</g>
</g>
<!-- Node4&#45;&gt;Node5 -->
<g id="edge4" class="edge">
<title>Node4&#45;&gt;Node5</title>
<path fill="none" stroke="#63b8ff" d="M496.53,-127.25C495.96,-116.81 496.26,-104.99 497.45,-96.04"/>
<polygon fill="#63b8ff" stroke="#63b8ff" points="493.07,-127.79 497.45,-137.44 500.04,-127.16 493.07,-127.79"/>
</g>
<!-- Node7 -->
<g id="node7" class="node">
<title>Node7</title>
<g id="a_node7"><a xlink:href="server_8cpp.html" target="_top" xlink:title="Setup and start BluetoothLE server.">
<polygon fill="white" stroke="#666666" points="712,-96 592,-96 592,-66 712,-66 712,-96"/>
<text text-anchor="start" x="600" y="-84" font-family="Helvetica,sans-Serif" font-size="10.00">firmware/wombat/src</text>
<text text-anchor="middle" x="652" y="-73" font-family="Helvetica,sans-Serif" font-size="10.00">/bluetooth/server.cpp</text>
</a>
</g>
</g>
<!-- Node4&#45;&gt;Node7 -->
<g id="edge8" class="edge">
<title>Node4&#45;&gt;Node7</title>
<path fill="none" stroke="#63b8ff" d="M542.34,-133.15C567.25,-121.53 598.98,-106.73 621.89,-96.04"/>
<polygon fill="#63b8ff" stroke="#63b8ff" points="540.74,-130.04 533.15,-137.44 543.69,-136.38 540.74,-130.04"/>
</g>
<!-- Node5&#45;&gt;Node4 -->
<g id="edge5" class="edge">
<title>Node5&#45;&gt;Node4</title>
<path fill="none" stroke="#63b8ff" d="M509.47,-106.23C510.04,-116.66 509.74,-128.49 508.55,-137.44"/>
<polygon fill="#63b8ff" stroke="#63b8ff" points="512.93,-105.69 508.55,-96.04 505.96,-106.32 512.93,-105.69"/>
</g>
<!-- Node6 -->
<g id="node6" class="node">
<title>Node6</title>
<g id="a_node6"><a xlink:href="uart_8cpp.html" target="_top" xlink:title="BluetoothLE UART service setup and handling.">
<polygon fill="white" stroke="#666666" points="563,-30 443,-30 443,0 563,0 563,-30"/>
<text text-anchor="start" x="451" y="-18" font-family="Helvetica,sans-Serif" font-size="10.00">firmware/wombat/src</text>
<text text-anchor="middle" x="503" y="-7" font-family="Helvetica,sans-Serif" font-size="10.00">/bluetooth/uart.cpp</text>
</a>
</g>
</g>
<!-- Node5&#45;&gt;Node6 -->
<g id="edge6" class="edge">
<title>Node5&#45;&gt;Node6</title>
<path fill="none" stroke="#63b8ff" d="M503,-55.54C503,-46.96 503,-37.61 503,-30.16"/>
<polygon fill="#63b8ff" stroke="#63b8ff" points="499.5,-55.8 503,-65.8 506.5,-55.8 499.5,-55.8"/>
</g>
</g>
</svg>
