<?xml version="1.0" encoding="UTF-8" standalone="no"?>
<!DOCTYPE svg PUBLIC "-//W3C//DTD SVG 1.1//EN"
 "http://www.w3.org/Graphics/SVG/1.1/DTD/svg11.dtd">
<!-- Generated by graphviz version 2.43.0 (0)
 -->
<!-- Title: firmware/wombat/include/Utils.h Pages: 1 -->
<svg width="1301pt" height="379pt"
 viewBox="0.00 0.00 1300.50 379.00" xmlns="http://www.w3.org/2000/svg" xmlns:xlink="http://www.w3.org/1999/xlink">
<g id="graph0" class="graph" transform="scale(1 1) rotate(0) translate(4 375)">
<title>firmware/wombat/include/Utils.h</title>
<!-- Node1 -->
<g id="node1" class="node">
<title>Node1</title>
<g id="a_node1"><a xlink:title=" ">
<polygon fill="#999999" stroke="#666666" points="806,-371 665,-371 665,-341 806,-341 806,-371"/>
<text text-anchor="start" x="673" y="-359" font-family="Helvetica,sans-Serif" font-size="10.00">firmware/wombat/include</text>
<text text-anchor="middle" x="735.5" y="-348" font-family="Helvetica,sans-Serif" font-size="10.00">/Utils.h</text>
</a>
</g>
</g>
<!-- Node2 -->
<g id="node2" class="node">
<title>Node2</title>
<g id="a_node2"><a xlink:href="sdi12_8h.html" target="_top" xlink:title="SDI&#45;12 command line interface handler.">
<polygon fill="white" stroke="#666666" points="294,-299.5 153,-299.5 153,-269.5 294,-269.5 294,-299.5"/>
<text text-anchor="start" x="161" y="-287.5" font-family="Helvetica,sans-Serif" font-size="10.00">firmware/wombat/include</text>
<text text-anchor="middle" x="223.5" y="-276.5" font-family="Helvetica,sans-Serif" font-size="10.00">/cli/peripherals/sdi12.h</text>
</a>
</g>
</g>
<!-- Node1&#45;&gt;Node2 -->
<g id="edge1" class="edge">
<title>Node1&#45;&gt;Node2</title>
<path fill="none" stroke="#63b8ff" d="M654.76,-347.09C571.13,-338.46 436.8,-323.41 321.5,-305 311.39,-303.39 300.74,-301.48 290.33,-299.5"/>
<polygon fill="#63b8ff" stroke="#63b8ff" points="654.64,-350.6 664.95,-348.13 655.36,-343.63 654.64,-350.6"/>
</g>
<!-- Node11 -->
<g id="node11" class="node">
<title>Node11</title>
<g id="a_node11"><a xlink:href="_device_config_8cpp.html" target="_top" xlink:title=" ">
<polygon fill="white" stroke="#666666" points="450.5,-299.5 330.5,-299.5 330.5,-269.5 450.5,-269.5 450.5,-299.5"/>
<text text-anchor="start" x="338.5" y="-287.5" font-family="Helvetica,sans-Serif" font-size="10.00">firmware/wombat/src</text>
<text text-anchor="middle" x="390.5" y="-276.5" font-family="Helvetica,sans-Serif" font-size="10.00">/DeviceConfig.cpp</text>
</a>
</g>
</g>
<!-- Node1&#45;&gt;Node11 -->
<g id="edge13" class="edge">
<title>Node1&#45;&gt;Node11</title>
<path fill="none" stroke="#63b8ff" d="M654.7,-342.47C599.46,-333.38 524.71,-320.08 459.5,-305 452.47,-303.37 445.08,-301.48 437.86,-299.53"/>
<polygon fill="#63b8ff" stroke="#63b8ff" points="654.35,-345.96 664.78,-344.11 655.48,-339.05 654.35,-345.96"/>
</g>
<!-- Node12 -->
<g id="node12" class="node">
<title>Node12</title>
<g id="a_node12"><a xlink:href="_sensor_task_8cpp.html" target="_top" xlink:title=" ">
<polygon fill="white" stroke="#666666" points="588.5,-299.5 468.5,-299.5 468.5,-269.5 588.5,-269.5 588.5,-299.5"/>
<text text-anchor="start" x="476.5" y="-287.5" font-family="Helvetica,sans-Serif" font-size="10.00">firmware/wombat/src</text>
<text text-anchor="middle" x="528.5" y="-276.5" font-family="Helvetica,sans-Serif" font-size="10.00">/SensorTask.cpp</text>
</a>
</g>
</g>
<!-- Node1&#45;&gt;Node12 -->
<g id="edge14" class="edge">
<title>Node1&#45;&gt;Node12</title>
<path fill="none" stroke="#63b8ff" d="M684.03,-337.72C648.96,-325.95 603.14,-310.56 570.33,-299.54"/>
<polygon fill="#63b8ff" stroke="#63b8ff" points="683.02,-341.07 693.61,-340.94 685.24,-334.43 683.02,-341.07"/>
</g>
<!-- Node13 -->
<g id="node13" class="node">
<title>Node13</title>
<g id="a_node13"><a xlink:href="_utils_8cpp.html" target="_top" xlink:title=" ">
<polygon fill="white" stroke="#666666" points="726.5,-299.5 606.5,-299.5 606.5,-269.5 726.5,-269.5 726.5,-299.5"/>
<text text-anchor="start" x="614.5" y="-287.5" font-family="Helvetica,sans-Serif" font-size="10.00">firmware/wombat/src</text>
<text text-anchor="middle" x="666.5" y="-276.5" font-family="Helvetica,sans-Serif" font-size="10.00">/Utils.cpp</text>
</a>
</g>
</g>
<!-- Node1&#45;&gt;Node13 -->
<g id="edge15" class="edge">
<title>Node1&#45;&gt;Node13</title>
<path fill="none" stroke="#63b8ff" d="M714.32,-333.67C703.31,-322.58 690.16,-309.34 680.44,-299.54"/>
<polygon fill="#63b8ff" stroke="#63b8ff" points="712.01,-336.3 721.54,-340.94 716.98,-331.37 712.01,-336.3"/>
</g>
<!-- Node14 -->
<g id="node14" class="node">
<title>Node14</title>
<g id="a_node14"><a xlink:href="cat-m1_8cpp.html" target="_top" xlink:title="CAT&#45;M1 CLI command request and response handler.">
<polygon fill="white" stroke="#666666" points="864.5,-305 744.5,-305 744.5,-264 864.5,-264 864.5,-305"/>
<text text-anchor="start" x="752.5" y="-293" font-family="Helvetica,sans-Serif" font-size="10.00">firmware/wombat/src</text>
<text text-anchor="start" x="752.5" y="-282" font-family="Helvetica,sans-Serif" font-size="10.00">/cli/peripherals/cat</text>
<text text-anchor="middle" x="804.5" y="-271" font-family="Helvetica,sans-Serif" font-size="10.00">&#45;m1.cpp</text>
</a>
</g>
</g>
<!-- Node1&#45;&gt;Node14 -->
<g id="edge16" class="edge">
<title>Node1&#45;&gt;Node14</title>
<path fill="none" stroke="#63b8ff" d="M756.66,-333.69C765.71,-324.57 776.21,-313.99 785.07,-305.07"/>
<polygon fill="#63b8ff" stroke="#63b8ff" points="754.02,-331.37 749.46,-340.94 758.99,-336.3 754.02,-331.37"/>
</g>
<!-- Node15 -->
<g id="node15" class="node">
<title>Node15</title>
<g id="a_node15"><a xlink:href="mqtt__stack_8cpp.html" target="_top" xlink:title=" ">
<polygon fill="white" stroke="#666666" points="1002.5,-299.5 882.5,-299.5 882.5,-269.5 1002.5,-269.5 1002.5,-299.5"/>
<text text-anchor="start" x="890.5" y="-287.5" font-family="Helvetica,sans-Serif" font-size="10.00">firmware/wombat/src</text>
<text text-anchor="middle" x="942.5" y="-276.5" font-family="Helvetica,sans-Serif" font-size="10.00">/mqtt_stack.cpp</text>
</a>
</g>
</g>
<!-- Node1&#45;&gt;Node15 -->
<g id="edge17" class="edge">
<title>Node1&#45;&gt;Node15</title>
<path fill="none" stroke="#63b8ff" d="M786.97,-337.72C822.04,-325.95 867.86,-310.56 900.67,-299.54"/>
<polygon fill="#63b8ff" stroke="#63b8ff" points="785.76,-334.43 777.39,-340.94 787.98,-341.07 785.76,-334.43"/>
</g>
<!-- Node16 -->
<g id="node16" class="node">
<title>Node16</title>
<g id="a_node16"><a xlink:href="uplinks_8cpp.html" target="_top" xlink:title=" ">
<polygon fill="white" stroke="#666666" points="1140.5,-299.5 1020.5,-299.5 1020.5,-269.5 1140.5,-269.5 1140.5,-299.5"/>
<text text-anchor="start" x="1028.5" y="-287.5" font-family="Helvetica,sans-Serif" font-size="10.00">firmware/wombat/src</text>
<text text-anchor="middle" x="1080.5" y="-276.5" font-family="Helvetica,sans-Serif" font-size="10.00">/uplinks.cpp</text>
</a>
</g>
</g>
<!-- Node1&#45;&gt;Node16 -->
<g id="edge18" class="edge">
<title>Node1&#45;&gt;Node16</title>
<path fill="none" stroke="#63b8ff" d="M816.3,-342.47C871.54,-333.38 946.29,-320.08 1011.5,-305 1018.53,-303.37 1025.92,-301.48 1033.14,-299.53"/>
<polygon fill="#63b8ff" stroke="#63b8ff" points="815.52,-339.05 806.22,-344.11 816.65,-345.96 815.52,-339.05"/>
</g>
<!-- Node17 -->
<g id="node17" class="node">
<title>Node17</title>
<g id="a_node17"><a xlink:href="test___utils_8cpp.html" target="_top" xlink:title=" ">
<polygon fill="white" stroke="#666666" points="1292.5,-299.5 1158.5,-299.5 1158.5,-269.5 1292.5,-269.5 1292.5,-299.5"/>
<text text-anchor="start" x="1166.5" y="-287.5" font-family="Helvetica,sans-Serif" font-size="10.00">firmware/wombat/test</text>
<text text-anchor="middle" x="1225.5" y="-276.5" font-family="Helvetica,sans-Serif" font-size="10.00">/test_utils/test_Utils.cpp</text>
</a>
</g>
</g>
<!-- Node1&#45;&gt;Node17 -->
<g id="edge19" class="edge">
<title>Node1&#45;&gt;Node17</title>
<path fill="none" stroke="#63b8ff" d="M816.21,-348.41C900,-340.82 1034.63,-326.58 1149.5,-305 1157.67,-303.47 1166.26,-301.56 1174.6,-299.54"/>
<polygon fill="#63b8ff" stroke="#63b8ff" points="815.9,-344.92 806.25,-349.3 816.52,-351.89 815.9,-344.92"/>
</g>
<!-- Node2&#45;&gt;Node2 -->
<g id="edge11" class="edge">
<title>Node2&#45;&gt;Node2</title>
<path fill="none" stroke="#63b8ff" d="M304.2,-293.59C309.07,-291.43 312,-288.4 312,-284.5 312,-278.42 304.87,-274.45 294.33,-272.59"/>
<polygon fill="#63b8ff" stroke="#63b8ff" points="302.98,-290.3 294.33,-296.41 304.9,-297.03 302.98,-290.3"/>
</g>
<!-- Node3 -->
<g id="node3" class="node">
<title>Node3</title>
<g id="a_node3"><a xlink:href="_c_l_i_8h.html" target="_top" xlink:title="FreeRTOS CLI handler.">
<polygon fill="white" stroke="#666666" points="215,-228 74,-228 74,-198 215,-198 215,-228"/>
<text text-anchor="start" x="82" y="-216" font-family="Helvetica,sans-Serif" font-size="10.00">firmware/wombat/include</text>
<text text-anchor="middle" x="144.5" y="-205" font-family="Helvetica,sans-Serif" font-size="10.00">/cli/CLI.h</text>
</a>
</g>
</g>
<!-- Node2&#45;&gt;Node3 -->
<g id="edge2" class="edge">
<title>Node2&#45;&gt;Node3</title>
<path fill="none" stroke="#63b8ff" d="M199.98,-262.81C187.23,-251.59 171.81,-238.02 160.46,-228.04"/>
<polygon fill="#63b8ff" stroke="#63b8ff" points="197.69,-265.46 207.51,-269.44 202.32,-260.2 197.69,-265.46"/>
</g>
<!-- Node10 -->
<g id="node10" class="node">
<title>Node10</title>
<g id="a_node10"><a xlink:href="sdi12_8cpp.html" target="_top" xlink:title="SDI&#45;12 command line interface handler.">
<polygon fill="white" stroke="#666666" points="371.5,-228 233.5,-228 233.5,-198 371.5,-198 371.5,-228"/>
<text text-anchor="start" x="241.5" y="-216" font-family="Helvetica,sans-Serif" font-size="10.00">firmware/wombat/src</text>
<text text-anchor="middle" x="302.5" y="-205" font-family="Helvetica,sans-Serif" font-size="10.00">/cli/peripherals/sdi12.cpp</text>
</a>
</g>
</g>
<!-- Node2&#45;&gt;Node10 -->
<g id="edge12" class="edge">
<title>Node2&#45;&gt;Node10</title>
<path fill="none" stroke="#63b8ff" d="M247.02,-262.81C259.77,-251.59 275.19,-238.02 286.54,-228.04"/>
<polygon fill="#63b8ff" stroke="#63b8ff" points="244.68,-260.2 239.49,-269.44 249.31,-265.46 244.68,-260.2"/>
</g>
<!-- Node4 -->
<g id="node4" class="node">
<title>Node4</title>
<g id="a_node4"><a xlink:href="server_8h.html" target="_top" xlink:title="Handle the setup and maintenance of the BLE server and connected clients.">
<polygon fill="white" stroke="#666666" points="141,-162 0,-162 0,-132 141,-132 141,-162"/>
<text text-anchor="start" x="8" y="-150" font-family="Helvetica,sans-Serif" font-size="10.00">firmware/wombat/include</text>
<text text-anchor="middle" x="70.5" y="-139" font-family="Helvetica,sans-Serif" font-size="10.00">/bluetooth/server.h</text>
</a>
</g>
</g>
<!-- Node3&#45;&gt;Node4 -->
<g id="edge3" class="edge">
<title>Node3&#45;&gt;Node4</title>
<path fill="none" stroke="#63b8ff" d="M114.42,-191.48C102.67,-181.91 90,-170.77 81.16,-162.16"/>
<polygon fill="#63b8ff" stroke="#63b8ff" points="112.35,-194.3 122.36,-197.8 116.71,-188.83 112.35,-194.3"/>
</g>
<!-- Node8 -->
<g id="node8" class="node">
<title>Node8</title>
<g id="a_node8"><a xlink:href="_c_l_i_8cpp.html" target="_top" xlink:title="FreeRTOS CLI handler.">
<polygon fill="white" stroke="#666666" points="279.5,-162 159.5,-162 159.5,-132 279.5,-132 279.5,-162"/>
<text text-anchor="start" x="167.5" y="-150" font-family="Helvetica,sans-Serif" font-size="10.00">firmware/wombat/src</text>
<text text-anchor="middle" x="219.5" y="-139" font-family="Helvetica,sans-Serif" font-size="10.00">/cli/CLI.cpp</text>
</a>
</g>
</g>
<!-- Node3&#45;&gt;Node8 -->
<g id="edge9" class="edge">
<title>Node3&#45;&gt;Node8</title>
<path fill="none" stroke="#63b8ff" d="M168.87,-191.2C180.01,-181.7 192.91,-170.69 202.9,-162.16"/>
<polygon fill="#63b8ff" stroke="#63b8ff" points="166.48,-188.64 161.14,-197.8 171.02,-193.97 166.48,-188.64"/>
</g>
<!-- Node9 -->
<g id="node9" class="node">
<title>Node9</title>
<g id="a_node9"><a xlink:href="main_8cpp.html" target="_top" xlink:title=" ">
<polygon fill="white" stroke="#666666" points="417.5,-162 297.5,-162 297.5,-132 417.5,-132 417.5,-162"/>
<text text-anchor="start" x="305.5" y="-150" font-family="Helvetica,sans-Serif" font-size="10.00">firmware/wombat/src</text>
<text text-anchor="middle" x="357.5" y="-139" font-family="Helvetica,sans-Serif" font-size="10.00">/main.cpp</text>
</a>
</g>
</g>
<!-- Node3&#45;&gt;Node9 -->
<g id="edge10" class="edge">
<title>Node3&#45;&gt;Node9</title>
<path fill="none" stroke="#63b8ff" d="M201.11,-194.99C235.39,-184.69 278.57,-171.72 310.87,-162.01"/>
<polygon fill="#63b8ff" stroke="#63b8ff" points="199.81,-191.73 191.24,-197.95 201.83,-198.43 199.81,-191.73"/>
</g>
<!-- Node4&#45;&gt;Node3 -->
<g id="edge7" class="edge">
<title>Node4&#45;&gt;Node3</title>
<path fill="none" stroke="#63b8ff" d="M100.52,-168.48C112.28,-178.04 124.95,-189.18 133.8,-197.8"/>
<polygon fill="#63b8ff" stroke="#63b8ff" points="102.6,-165.65 92.59,-162.16 98.24,-171.13 102.6,-165.65"/>
</g>
<!-- Node5 -->
<g id="node5" class="node">
<title>Node5</title>
<g id="a_node5"><a xlink:href="uart_8h.html" target="_top" xlink:title="BluetoothLE UART service setup and handling.">
<polygon fill="white" stroke="#666666" points="141,-96 0,-96 0,-66 141,-66 141,-96"/>
<text text-anchor="start" x="8" y="-84" font-family="Helvetica,sans-Serif" font-size="10.00">firmware/wombat/include</text>
<text text-anchor="middle" x="70.5" y="-73" font-family="Helvetica,sans-Serif" font-size="10.00">/bluetooth/uart.h</text>
</a>
</g>
</g>
<!-- Node4&#45;&gt;Node5 -->
<g id="edge4" class="edge">
<title>Node4&#45;&gt;Node5</title>
<path fill="none" stroke="#63b8ff" d="M63.93,-121.83C63.52,-113.17 63.81,-103.7 64.79,-96.16"/>
<polygon fill="#63b8ff" stroke="#63b8ff" points="60.45,-122.13 64.78,-131.8 67.42,-121.54 60.45,-122.13"/>
</g>
<!-- Node7 -->
<g id="node7" class="node">
<title>Node7</title>
<g id="a_node7"><a xlink:href="server_8cpp.html" target="_top" xlink:title="Setup and start BluetoothLE server.">
<polygon fill="white" stroke="#666666" points="279.5,-96 159.5,-96 159.5,-66 279.5,-66 279.5,-96"/>
<text text-anchor="start" x="167.5" y="-84" font-family="Helvetica,sans-Serif" font-size="10.00">firmware/wombat/src</text>
<text text-anchor="middle" x="219.5" y="-73" font-family="Helvetica,sans-Serif" font-size="10.00">/bluetooth/server.cpp</text>
</a>
</g>
</g>
<!-- Node4&#45;&gt;Node7 -->
<g id="edge8" class="edge">
<title>Node4&#45;&gt;Node7</title>
<path fill="none" stroke="#63b8ff" d="M112.59,-127.92C136.14,-117.8 165.06,-105.38 186.88,-96.01"/>
<polygon fill="#63b8ff" stroke="#63b8ff" points="111.01,-124.79 103.2,-131.95 113.77,-131.22 111.01,-124.79"/>
</g>
<!-- Node5&#45;&gt;Node4 -->
<g id="edge5" class="edge">
<title>Node5&#45;&gt;Node4</title>
<path fill="none" stroke="#63b8ff" d="M77.07,-106.13C77.48,-114.78 77.2,-124.26 76.22,-131.8"/>
<polygon fill="#63b8ff" stroke="#63b8ff" points="80.55,-105.83 76.21,-96.16 73.58,-106.43 80.55,-105.83"/>
</g>
<!-- Node6 -->
<g id="node6" class="node">
<title>Node6</title>
<g id="a_node6"><a xlink:href="uart_8cpp.html" target="_top" xlink:title="BluetoothLE UART service setup and handling.">
<polygon fill="white" stroke="#666666" points="130.5,-30 10.5,-30 10.5,0 130.5,0 130.5,-30"/>
<text text-anchor="start" x="18.5" y="-18" font-family="Helvetica,sans-Serif" font-size="10.00">firmware/wombat/src</text>
<text text-anchor="middle" x="70.5" y="-7" font-family="Helvetica,sans-Serif" font-size="10.00">/bluetooth/uart.cpp</text>
</a>
</g>
</g>
<!-- Node5&#45;&gt;Node6 -->
<g id="edge6" class="edge">
<title>Node5&#45;&gt;Node6</title>
<path fill="none" stroke="#63b8ff" d="M70.5,-55.54C70.5,-46.96 70.5,-37.61 70.5,-30.16"/>
<polygon fill="#63b8ff" stroke="#63b8ff" points="67,-55.8 70.5,-65.8 74,-55.8 67,-55.8"/>
</g>
</g>
</svg>
