<?xml version="1.0" encoding="UTF-8" standalone="no"?>
<!DOCTYPE svg PUBLIC "-//W3C//DTD SVG 1.1//EN"
 "http://www.w3.org/Graphics/SVG/1.1/DTD/svg11.dtd">
<!-- Generated by graphviz version 2.43.0 (0)
 -->
<!-- Title: firmware/wombat/src/Utils.cpp Pages: 1 -->
<svg width="663pt" height="324pt"
 viewBox="0.00 0.00 662.56 324.00" xmlns="http://www.w3.org/2000/svg" xmlns:xlink="http://www.w3.org/1999/xlink">
<g id="graph0" class="graph" transform="scale(1 1) rotate(0) translate(4 320)">
<title>firmware/wombat/src/Utils.cpp</title>
<!-- Node1 -->
<g id="node1" class="node">
<title>Node1</title>
<g id="a_node1"><a xlink:title="Global utility functions.">
<polygon fill="#999999" stroke="#666666" points="384.56,-316 264.56,-316 264.56,-286 384.56,-286 384.56,-316"/>
<text text-anchor="start" x="272.56" y="-304" font-family="Helvetica,sans-Serif" font-size="10.00">firmware/wombat/src</text>
<text text-anchor="middle" x="324.56" y="-293" font-family="Helvetica,sans-Serif" font-size="10.00">/Utils.cpp</text>
</a>
</g>
</g>
<!-- Node2 -->
<g id="node2" class="node">
<title>Node2</title>
<g id="a_node2"><a xlink:title=" ">
<polygon fill="#e0e0e0" stroke="#999999" points="509.06,-19 446.06,-19 446.06,0 509.06,0 509.06,-19"/>
<text text-anchor="middle" x="477.56" y="-7" font-family="Helvetica,sans-Serif" font-size="10.00">Arduino.h</text>
</a>
</g>
</g>
<!-- Node1&#45;&gt;Node2 -->
<g id="edge1" class="edge">
<title>Node1&#45;&gt;Node2</title>
<path fill="none" stroke="#63b8ff" d="M384.73,-295.06C418.71,-289.26 459.63,-276.77 486.56,-250 507.54,-229.14 506.56,-216.09 506.56,-186.5 506.56,-186.5 506.56,-186.5 506.56,-124 506.56,-89.39 493.74,-50.65 485.15,-28.55"/>
<polygon fill="#63b8ff" stroke="#63b8ff" points="488.34,-27.1 481.35,-19.14 481.85,-29.72 488.34,-27.1"/>
</g>
<!-- Node3 -->
<g id="node3" class="node">
<title>Node3</title>
<g id="a_node3"><a xlink:href="_utils_8h.html" target="_top" xlink:title=" ">
<polygon fill="white" stroke="#666666" points="222.56,-250 174.56,-250 174.56,-231 222.56,-231 222.56,-250"/>
<text text-anchor="middle" x="198.56" y="-238" font-family="Helvetica,sans-Serif" font-size="10.00">Utils.h</text>
</a>
</g>
</g>
<!-- Node1&#45;&gt;Node3 -->
<g id="edge2" class="edge">
<title>Node1&#45;&gt;Node3</title>
<path fill="none" stroke="#63b8ff" d="M294.38,-285.99C273.73,-276.4 246.56,-263.79 226.42,-254.44"/>
<polygon fill="#63b8ff" stroke="#63b8ff" points="227.71,-251.18 217.16,-250.14 224.76,-257.52 227.71,-251.18"/>
</g>
<!-- Node7 -->
<g id="node7" class="node">
<title>Node7</title>
<g id="a_node7"><a xlink:href="globals_8h.html" target="_top" xlink:title=" ">
<polygon fill="white" stroke="#666666" points="261.06,-195 200.06,-195 200.06,-176 261.06,-176 261.06,-195"/>
<text text-anchor="middle" x="230.56" y="-183" font-family="Helvetica,sans-Serif" font-size="10.00">globals.h</text>
</a>
</g>
</g>
<!-- Node1&#45;&gt;Node7 -->
<g id="edge19" class="edge">
<title>Node1&#45;&gt;Node7</title>
<path fill="none" stroke="#63b8ff" d="M308.95,-285.79C298.7,-276.13 285.26,-262.82 274.56,-250 262.11,-235.09 249.66,-216.72 241.2,-203.58"/>
<polygon fill="#63b8ff" stroke="#63b8ff" points="244.11,-201.64 235.8,-195.07 238.2,-205.39 244.11,-201.64"/>
</g>
<!-- Node9 -->
<g id="node9" class="node">
<title>Node9</title>
<g id="a_node9"><a xlink:href="_c_a_t___m1_8h.html" target="_top" xlink:title=" ">
<polygon fill="white" stroke="#666666" points="113.06,-134.5 48.06,-134.5 48.06,-115.5 113.06,-115.5 113.06,-134.5"/>
<text text-anchor="middle" x="80.56" y="-122.5" font-family="Helvetica,sans-Serif" font-size="10.00">CAT_M1.h</text>
</a>
</g>
</g>
<!-- Node1&#45;&gt;Node9 -->
<g id="edge18" class="edge">
<title>Node1&#45;&gt;Node9</title>
<path fill="none" stroke="#63b8ff" d="M264.34,-300.01C189.21,-296.36 63.48,-277.4 4.56,-195 -11.76,-172.18 20.73,-151.33 48.18,-138.66"/>
<polygon fill="#63b8ff" stroke="#63b8ff" points="49.84,-141.75 57.58,-134.53 47.02,-135.34 49.84,-141.75"/>
</g>
<!-- Node11 -->
<g id="node11" class="node">
<title>Node11</title>
<g id="a_node11"><a xlink:href="_t_c_a9534_8h.html" target="_top" xlink:title=" ">
<polygon fill="white" stroke="#666666" points="286.56,-74 218.56,-74 218.56,-55 286.56,-55 286.56,-74"/>
<text text-anchor="middle" x="252.56" y="-62" font-family="Helvetica,sans-Serif" font-size="10.00">TCA9534.h</text>
</a>
</g>
</g>
<!-- Node1&#45;&gt;Node11 -->
<g id="edge17" class="edge">
<title>Node1&#45;&gt;Node11</title>
<path fill="none" stroke="#63b8ff" d="M319.38,-285.64C315.87,-275.7 311.21,-262.11 307.56,-250 288.96,-188.39 290.89,-171.06 270.56,-110 267.63,-101.2 263.85,-91.65 260.5,-83.66"/>
<polygon fill="#63b8ff" stroke="#63b8ff" points="263.63,-82.06 256.48,-74.24 257.19,-84.81 263.63,-82.06"/>
</g>
<!-- Node12 -->
<g id="node12" class="node">
<title>Node12</title>
<g id="a_node12"><a xlink:title=" ">
<polygon fill="#e0e0e0" stroke="#999999" points="478.06,-250 425.06,-250 425.06,-231 478.06,-231 478.06,-250"/>
<text text-anchor="middle" x="451.56" y="-238" font-family="Helvetica,sans-Serif" font-size="10.00">string.h</text>
</a>
</g>
</g>
<!-- Node1&#45;&gt;Node12 -->
<g id="edge13" class="edge">
<title>Node1&#45;&gt;Node12</title>
<path fill="none" stroke="#63b8ff" d="M354.98,-285.99C375.79,-276.4 403.17,-263.79 423.47,-254.44"/>
<polygon fill="#63b8ff" stroke="#63b8ff" points="425.18,-257.5 432.8,-250.14 422.25,-251.14 425.18,-257.5"/>
</g>
<!-- Node13 -->
<g id="node13" class="node">
<title>Node13</title>
<g id="a_node13"><a xlink:href="_device_config_8h.html" target="_top" xlink:title="Node configuration options.">
<polygon fill="white" stroke="#666666" points="406.56,-250 316.56,-250 316.56,-231 406.56,-231 406.56,-250"/>
<text text-anchor="middle" x="361.56" y="-238" font-family="Helvetica,sans-Serif" font-size="10.00">DeviceConfig.h</text>
</a>
</g>
</g>
<!-- Node1&#45;&gt;Node13 -->
<g id="edge14" class="edge">
<title>Node1&#45;&gt;Node13</title>
<path fill="none" stroke="#63b8ff" d="M333.51,-285.84C338.67,-277.69 345.18,-267.4 350.63,-258.78"/>
<polygon fill="#63b8ff" stroke="#63b8ff" points="353.63,-260.59 356.01,-250.27 347.71,-256.85 353.63,-260.59"/>
</g>
<!-- Node14 -->
<g id="node14" class="node">
<title>Node14</title>
<g id="a_node14"><a xlink:href="interface_8h.html" target="_top" xlink:title=" ">
<polygon fill="white" stroke="#666666" points="654.56,-250 546.56,-250 546.56,-231 654.56,-231 654.56,-250"/>
<text text-anchor="middle" x="600.56" y="-238" font-family="Helvetica,sans-Serif" font-size="10.00">sd&#45;card/interface.h</text>
</a>
</g>
</g>
<!-- Node1&#45;&gt;Node14 -->
<g id="edge20" class="edge">
<title>Node1&#45;&gt;Node14</title>
<path fill="none" stroke="#63b8ff" d="M384.79,-287.23C434.29,-276.74 503.62,-262.05 550.2,-252.17"/>
<polygon fill="#63b8ff" stroke="#63b8ff" points="551.02,-255.58 560.08,-250.08 549.57,-248.73 551.02,-255.58"/>
</g>
<!-- Node4 -->
<g id="node4" class="node">
<title>Node4</title>
<g id="a_node4"><a xlink:title=" ">
<polygon fill="#e0e0e0" stroke="#999999" points="181.56,-195 125.56,-195 125.56,-176 181.56,-176 181.56,-195"/>
<text text-anchor="middle" x="153.56" y="-183" font-family="Helvetica,sans-Serif" font-size="10.00">stddef.h</text>
</a>
</g>
</g>
<!-- Node3&#45;&gt;Node4 -->
<g id="edge3" class="edge">
<title>Node3&#45;&gt;Node4</title>
<path fill="none" stroke="#63b8ff" d="M191.13,-230.75C184.7,-223.18 175.25,-212.05 167.43,-202.84"/>
<polygon fill="#63b8ff" stroke="#63b8ff" points="169.99,-200.45 160.85,-195.09 164.65,-204.98 169.99,-200.45"/>
</g>
<!-- Node5 -->
<g id="node5" class="node">
<title>Node5</title>
<g id="a_node5"><a xlink:title=" ">
<polygon fill="#e0e0e0" stroke="#999999" points="402.06,-195 319.06,-195 319.06,-176 402.06,-176 402.06,-195"/>
<text text-anchor="middle" x="360.56" y="-183" font-family="Helvetica,sans-Serif" font-size="10.00">ArduinoJson.h</text>
</a>
</g>
</g>
<!-- Node3&#45;&gt;Node5 -->
<g id="edge4" class="edge">
<title>Node3&#45;&gt;Node5</title>
<path fill="none" stroke="#63b8ff" d="M222.81,-231.57C249.89,-222.71 293.98,-208.28 324.96,-198.14"/>
<polygon fill="#63b8ff" stroke="#63b8ff" points="326.11,-201.45 334.53,-195.02 323.93,-194.8 326.11,-201.45"/>
</g>
<!-- Node6 -->
<g id="node6" class="node">
<title>Node6</title>
<g id="a_node6"><a xlink:title=" ">
<polygon fill="#e0e0e0" stroke="#999999" points="107.06,-195 14.06,-195 14.06,-176 107.06,-176 107.06,-195"/>
<text text-anchor="middle" x="60.56" y="-183" font-family="Helvetica,sans-Serif" font-size="10.00">dpiclimate&#45;12.h</text>
</a>
</g>
</g>
<!-- Node3&#45;&gt;Node6 -->
<g id="edge5" class="edge">
<title>Node3&#45;&gt;Node6</title>
<path fill="none" stroke="#63b8ff" d="M176.38,-230.98C153.78,-222.3 118.49,-208.75 92.8,-198.88"/>
<polygon fill="#63b8ff" stroke="#63b8ff" points="93.72,-195.49 83.13,-195.17 91.21,-202.02 93.72,-195.49"/>
</g>
<!-- Node3&#45;&gt;Node7 -->
<g id="edge6" class="edge">
<title>Node3&#45;&gt;Node7</title>
<path fill="none" stroke="#63b8ff" d="M203.84,-230.75C208.27,-223.42 214.72,-212.73 220.17,-203.7"/>
<polygon fill="#63b8ff" stroke="#63b8ff" points="223.2,-205.46 225.37,-195.09 217.21,-201.84 223.2,-205.46"/>
</g>
<!-- Node8 -->
<g id="node8" class="node">
<title>Node8</title>
<g id="a_node8"><a xlink:title=" ">
<polygon fill="#e0e0e0" stroke="#999999" points="261.56,-140 131.56,-140 131.56,-110 261.56,-110 261.56,-140"/>
<text text-anchor="start" x="139.56" y="-128" font-family="Helvetica,sans-Serif" font-size="10.00">SparkFun_u&#45;blox_SARA</text>
<text text-anchor="middle" x="196.56" y="-117" font-family="Helvetica,sans-Serif" font-size="10.00">&#45;R5_Arduino_Library.h</text>
</a>
</g>
</g>
<!-- Node7&#45;&gt;Node8 -->
<g id="edge7" class="edge">
<title>Node7&#45;&gt;Node8</title>
<path fill="none" stroke="#63b8ff" d="M225.54,-175.87C221.4,-168.74 215.32,-158.28 209.8,-148.79"/>
<polygon fill="#63b8ff" stroke="#63b8ff" points="212.81,-147 204.76,-140.11 206.76,-150.52 212.81,-147"/>
</g>
<!-- Node7&#45;&gt;Node9 -->
<g id="edge8" class="edge">
<title>Node7&#45;&gt;Node9</title>
<path fill="none" stroke="#63b8ff" d="M208.75,-175.99C183.31,-166.07 141.05,-149.59 112.05,-138.28"/>
<polygon fill="#63b8ff" stroke="#63b8ff" points="112.98,-134.89 102.39,-134.52 110.44,-141.41 112.98,-134.89"/>
</g>
<!-- Node10 -->
<g id="node10" class="node">
<title>Node10</title>
<g id="a_node10"><a xlink:title=" ">
<polygon fill="#e0e0e0" stroke="#999999" points="245.56,-19 197.56,-19 197.56,0 245.56,0 245.56,-19"/>
<text text-anchor="middle" x="221.56" y="-7" font-family="Helvetica,sans-Serif" font-size="10.00">Wire.h</text>
</a>
</g>
</g>
<!-- Node9&#45;&gt;Node10 -->
<g id="edge9" class="edge">
<title>Node9&#45;&gt;Node10</title>
<path fill="none" stroke="#63b8ff" d="M91.15,-115.47C114.94,-96.32 172.82,-49.73 202.82,-25.58"/>
<polygon fill="#63b8ff" stroke="#63b8ff" points="205.24,-28.13 210.84,-19.13 200.85,-22.67 205.24,-28.13"/>
</g>
<!-- Node9&#45;&gt;Node11 -->
<g id="edge10" class="edge">
<title>Node9&#45;&gt;Node11</title>
<path fill="none" stroke="#63b8ff" d="M105.57,-115.49C135.12,-105.44 184.47,-88.66 217.75,-77.34"/>
<polygon fill="#63b8ff" stroke="#63b8ff" points="219.18,-80.55 227.52,-74.02 216.92,-73.92 219.18,-80.55"/>
</g>
<!-- Node11&#45;&gt;Node2 -->
<g id="edge11" class="edge">
<title>Node11&#45;&gt;Node2</title>
<path fill="none" stroke="#63b8ff" d="M286.73,-55.45C326.79,-46.01 393.16,-30.38 436.12,-20.26"/>
<polygon fill="#63b8ff" stroke="#63b8ff" points="437.04,-23.64 445.98,-17.94 435.44,-16.83 437.04,-23.64"/>
</g>
<!-- Node11&#45;&gt;Node10 -->
<g id="edge12" class="edge">
<title>Node11&#45;&gt;Node10</title>
<path fill="none" stroke="#63b8ff" d="M247.44,-54.75C243.19,-47.49 237.03,-36.95 231.78,-27.98"/>
<polygon fill="#63b8ff" stroke="#63b8ff" points="234.65,-25.95 226.58,-19.09 228.61,-29.49 234.65,-25.95"/>
</g>
<!-- Node13&#45;&gt;Node2 -->
<g id="edge15" class="edge">
<title>Node13&#45;&gt;Node2</title>
<path fill="none" stroke="#63b8ff" d="M374,-230.94C384.97,-222.81 400.7,-209.7 410.56,-195 446.89,-140.84 466.34,-64.56 473.85,-29.49"/>
<polygon fill="#63b8ff" stroke="#63b8ff" points="477.36,-29.76 475.94,-19.27 470.51,-28.36 477.36,-29.76"/>
</g>
<!-- Node13&#45;&gt;Node5 -->
<g id="edge16" class="edge">
<title>Node13&#45;&gt;Node5</title>
<path fill="none" stroke="#63b8ff" d="M361.39,-230.75C361.26,-223.8 361.07,-213.85 360.91,-205.13"/>
<polygon fill="#63b8ff" stroke="#63b8ff" points="364.41,-205.02 360.72,-195.09 357.41,-205.15 364.41,-205.02"/>
</g>
<!-- Node14&#45;&gt;Node2 -->
<g id="edge21" class="edge">
<title>Node14&#45;&gt;Node2</title>
<path fill="none" stroke="#63b8ff" d="M613.16,-230.87C628.52,-219.2 651.39,-197.38 642.56,-176 613.55,-105.83 538.78,-49.81 500.65,-24.75"/>
<polygon fill="#63b8ff" stroke="#63b8ff" points="502.1,-21.52 491.8,-19.06 498.32,-27.41 502.1,-21.52"/>
</g>
<!-- Node15 -->
<g id="node15" class="node">
<title>Node15</title>
<g id="a_node15"><a xlink:title=" ">
<polygon fill="#e0e0e0" stroke="#999999" points="633.06,-195 594.06,-195 594.06,-176 633.06,-176 633.06,-195"/>
<text text-anchor="middle" x="613.56" y="-183" font-family="Helvetica,sans-Serif" font-size="10.00">SD.h</text>
</a>
</g>
</g>
<!-- Node14&#45;&gt;Node15 -->
<g id="edge22" class="edge">
<title>Node14&#45;&gt;Node15</title>
<path fill="none" stroke="#63b8ff" d="M602.7,-230.75C604.43,-223.72 606.9,-213.62 609.06,-204.84"/>
<polygon fill="#63b8ff" stroke="#63b8ff" points="612.47,-205.63 611.45,-195.09 605.67,-203.97 612.47,-205.63"/>
</g>
<!-- Node16 -->
<g id="node16" class="node">
<title>Node16</title>
<g id="a_node16"><a xlink:title=" ">
<polygon fill="#e0e0e0" stroke="#999999" points="576.06,-195 535.06,-195 535.06,-176 576.06,-176 576.06,-195"/>
<text text-anchor="middle" x="555.56" y="-183" font-family="Helvetica,sans-Serif" font-size="10.00">SPI.h</text>
</a>
</g>
</g>
<!-- Node14&#45;&gt;Node16 -->
<g id="edge23" class="edge">
<title>Node14&#45;&gt;Node16</title>
<path fill="none" stroke="#63b8ff" d="M593.13,-230.75C586.7,-223.18 577.25,-212.05 569.43,-202.84"/>
<polygon fill="#63b8ff" stroke="#63b8ff" points="571.99,-200.45 562.85,-195.09 566.65,-204.98 571.99,-200.45"/>
</g>
</g>
</svg>
