<?xml version="1.0" encoding="UTF-8" standalone="no"?>
<!DOCTYPE svg PUBLIC "-//W3C//DTD SVG 1.1//EN"
 "http://www.w3.org/Graphics/SVG/1.1/DTD/svg11.dtd">
<!-- Generated by graphviz version 2.43.0 (0)
 -->
<!-- Title: firmware/wombat/include/Utils.h Pages: 1 -->
<svg width="2073pt" height="390pt"
 viewBox="0.00 0.00 2073.00 390.00" xmlns="http://www.w3.org/2000/svg" xmlns:xlink="http://www.w3.org/1999/xlink">
<g id="graph0" class="graph" transform="scale(1 1) rotate(0) translate(4 386)">
<title>firmware/wombat/include/Utils.h</title>
<!-- Node1 -->
<g id="node1" class="node">
<title>Node1</title>
<g id="a_node1"><a xlink:title=" ">
<polygon fill="#999999" stroke="#666666" points="1251.5,-382 1110.5,-382 1110.5,-352 1251.5,-352 1251.5,-382"/>
<text text-anchor="start" x="1118.5" y="-370" font-family="Helvetica,sans-Serif" font-size="10.00">firmware/wombat/include</text>
<text text-anchor="middle" x="1181" y="-359" font-family="Helvetica,sans-Serif" font-size="10.00">/Utils.h</text>
</a>
</g>
</g>
<!-- Node2 -->
<g id="node2" class="node">
<title>Node2</title>
<g id="a_node2"><a xlink:href="sdi12_8h.html" target="_top" xlink:title="SDI&#45;12 command line interface handler.">
<polygon fill="white" stroke="#666666" points="647.5,-310.5 506.5,-310.5 506.5,-280.5 647.5,-280.5 647.5,-310.5"/>
<text text-anchor="start" x="514.5" y="-298.5" font-family="Helvetica,sans-Serif" font-size="10.00">firmware/wombat/include</text>
<text text-anchor="middle" x="577" y="-287.5" font-family="Helvetica,sans-Serif" font-size="10.00">/cli/peripherals/sdi12.h</text>
</a>
</g>
</g>
<!-- Node1&#45;&gt;Node2 -->
<g id="edge1" class="edge">
<title>Node1&#45;&gt;Node2</title>
<path fill="none" stroke="#63b8ff" d="M1100.09,-356.69C981.11,-343 760.85,-317.65 647.87,-304.66"/>
<polygon fill="#63b8ff" stroke="#63b8ff" points="1099.9,-360.19 1110.23,-357.86 1100.7,-353.24 1099.9,-360.19"/>
</g>
<!-- Node9 -->
<g id="node9" class="node">
<title>Node9</title>
<g id="a_node9"><a xlink:href="cat-m1_8cpp.html" target="_top" xlink:title="CAT&#45;M1 CLI command request and response handler.">
<polygon fill="white" stroke="#666666" points="120,-173 0,-173 0,-132 120,-132 120,-173"/>
<text text-anchor="start" x="8" y="-161" font-family="Helvetica,sans-Serif" font-size="10.00">firmware/wombat/src</text>
<text text-anchor="start" x="8" y="-150" font-family="Helvetica,sans-Serif" font-size="10.00">/cli/peripherals/cat</text>
<text text-anchor="middle" x="60" y="-139" font-family="Helvetica,sans-Serif" font-size="10.00">&#45;m1.cpp</text>
</a>
</g>
</g>
<!-- Node1&#45;&gt;Node9 -->
<g id="edge23" class="edge">
<title>Node1&#45;&gt;Node9</title>
<path fill="none" stroke="#63b8ff" d="M1100.03,-362.95C944.61,-356.63 609.87,-340.59 497,-316 345.74,-283.05 176.59,-208.64 100.7,-173.1"/>
<polygon fill="#63b8ff" stroke="#63b8ff" points="1100.32,-366.47 1110.45,-363.37 1100.6,-359.47 1100.32,-366.47"/>
</g>
<!-- Node12 -->
<g id="node12" class="node">
<title>Node12</title>
<g id="a_node12"><a xlink:href="ftp__stack_8cpp.html" target="_top" xlink:title=" ">
<polygon fill="white" stroke="#666666" points="988,-167.5 868,-167.5 868,-137.5 988,-137.5 988,-167.5"/>
<text text-anchor="start" x="876" y="-155.5" font-family="Helvetica,sans-Serif" font-size="10.00">firmware/wombat/src</text>
<text text-anchor="middle" x="928" y="-144.5" font-family="Helvetica,sans-Serif" font-size="10.00">/ftp_stack.cpp</text>
</a>
</g>
</g>
<!-- Node1&#45;&gt;Node12 -->
<g id="edge24" class="edge">
<title>Node1&#45;&gt;Node12</title>
<path fill="none" stroke="#63b8ff" d="M1100.17,-363.41C1023.58,-359.06 916.44,-347.37 890,-316 852.84,-271.91 896.42,-198.18 917.66,-167.52"/>
<polygon fill="#63b8ff" stroke="#63b8ff" points="1100.11,-366.92 1110.29,-363.96 1100.49,-359.93 1100.11,-366.92"/>
</g>
<!-- Node14 -->
<g id="node14" class="node">
<title>Node14</title>
<g id="a_node14"><a xlink:href="mqtt__stack_8cpp.html" target="_top" xlink:title=" ">
<polygon fill="white" stroke="#666666" points="1126,-167.5 1006,-167.5 1006,-137.5 1126,-137.5 1126,-167.5"/>
<text text-anchor="start" x="1014" y="-155.5" font-family="Helvetica,sans-Serif" font-size="10.00">firmware/wombat/src</text>
<text text-anchor="middle" x="1066" y="-144.5" font-family="Helvetica,sans-Serif" font-size="10.00">/mqtt_stack.cpp</text>
</a>
</g>
</g>
<!-- Node1&#45;&gt;Node14 -->
<g id="edge25" class="edge">
<title>Node1&#45;&gt;Node14</title>
<path fill="none" stroke="#63b8ff" d="M1100.24,-362.53C1027.9,-357.52 929.52,-345.36 905,-316 856,-257.32 971.72,-195.01 1032.15,-167.7"/>
<polygon fill="#63b8ff" stroke="#63b8ff" points="1100.06,-366.02 1110.27,-363.19 1100.52,-359.04 1100.06,-366.02"/>
</g>
<!-- Node15 -->
<g id="node15" class="node">
<title>Node15</title>
<g id="a_node15"><a xlink:href="_c_a_t___m1_8cpp.html" target="_top" xlink:title=" ">
<polygon fill="white" stroke="#666666" points="1034,-310.5 914,-310.5 914,-280.5 1034,-280.5 1034,-310.5"/>
<text text-anchor="start" x="922" y="-298.5" font-family="Helvetica,sans-Serif" font-size="10.00">firmware/wombat/src</text>
<text text-anchor="middle" x="974" y="-287.5" font-family="Helvetica,sans-Serif" font-size="10.00">/CAT_M1.cpp</text>
</a>
</g>
</g>
<!-- Node1&#45;&gt;Node15 -->
<g id="edge17" class="edge">
<title>Node1&#45;&gt;Node15</title>
<path fill="none" stroke="#63b8ff" d="M1129.53,-348.72C1094.46,-336.95 1048.64,-321.56 1015.83,-310.54"/>
<polygon fill="#63b8ff" stroke="#63b8ff" points="1128.52,-352.07 1139.11,-351.94 1130.74,-345.43 1128.52,-352.07"/>
</g>
<!-- Node16 -->
<g id="node16" class="node">
<title>Node16</title>
<g id="a_node16"><a xlink:href="_device_config_8cpp.html" target="_top" xlink:title=" ">
<polygon fill="white" stroke="#666666" points="1172,-310.5 1052,-310.5 1052,-280.5 1172,-280.5 1172,-310.5"/>
<text text-anchor="start" x="1060" y="-298.5" font-family="Helvetica,sans-Serif" font-size="10.00">firmware/wombat/src</text>
<text text-anchor="middle" x="1112" y="-287.5" font-family="Helvetica,sans-Serif" font-size="10.00">/DeviceConfig.cpp</text>
</a>
</g>
</g>
<!-- Node1&#45;&gt;Node16 -->
<g id="edge18" class="edge">
<title>Node1&#45;&gt;Node16</title>
<path fill="none" stroke="#63b8ff" d="M1159.82,-344.67C1148.81,-333.58 1135.66,-320.34 1125.94,-310.54"/>
<polygon fill="#63b8ff" stroke="#63b8ff" points="1157.51,-347.3 1167.04,-351.94 1162.48,-342.37 1157.51,-347.3"/>
</g>
<!-- Node17 -->
<g id="node17" class="node">
<title>Node17</title>
<g id="a_node17"><a xlink:href="_sensor_task_8cpp.html" target="_top" xlink:title=" ">
<polygon fill="white" stroke="#666666" points="1310,-310.5 1190,-310.5 1190,-280.5 1310,-280.5 1310,-310.5"/>
<text text-anchor="start" x="1198" y="-298.5" font-family="Helvetica,sans-Serif" font-size="10.00">firmware/wombat/src</text>
<text text-anchor="middle" x="1250" y="-287.5" font-family="Helvetica,sans-Serif" font-size="10.00">/SensorTask.cpp</text>
</a>
</g>
</g>
<!-- Node1&#45;&gt;Node17 -->
<g id="edge19" class="edge">
<title>Node1&#45;&gt;Node17</title>
<path fill="none" stroke="#63b8ff" d="M1202.18,-344.67C1213.19,-333.58 1226.34,-320.34 1236.06,-310.54"/>
<polygon fill="#63b8ff" stroke="#63b8ff" points="1199.52,-342.37 1194.96,-351.94 1204.49,-347.3 1199.52,-342.37"/>
</g>
<!-- Node18 -->
<g id="node18" class="node">
<title>Node18</title>
<g id="a_node18"><a xlink:href="_utils_8cpp.html" target="_top" xlink:title="Global utility functions.">
<polygon fill="white" stroke="#666666" points="1448,-310.5 1328,-310.5 1328,-280.5 1448,-280.5 1448,-310.5"/>
<text text-anchor="start" x="1336" y="-298.5" font-family="Helvetica,sans-Serif" font-size="10.00">firmware/wombat/src</text>
<text text-anchor="middle" x="1388" y="-287.5" font-family="Helvetica,sans-Serif" font-size="10.00">/Utils.cpp</text>
</a>
</g>
</g>
<!-- Node1&#45;&gt;Node18 -->
<g id="edge20" class="edge">
<title>Node1&#45;&gt;Node18</title>
<path fill="none" stroke="#63b8ff" d="M1232.47,-348.72C1267.54,-336.95 1313.36,-321.56 1346.17,-310.54"/>
<polygon fill="#63b8ff" stroke="#63b8ff" points="1231.26,-345.43 1222.89,-351.94 1233.48,-352.07 1231.26,-345.43"/>
</g>
<!-- Node19 -->
<g id="node19" class="node">
<title>Node19</title>
<g id="a_node19"><a xlink:href="acquisition__intervals_8cpp.html" target="_top" xlink:title="Handles the time between measurements and uplinks by the device over LTE.">
<polygon fill="white" stroke="#666666" points="1623.5,-316 1466.5,-316 1466.5,-275 1623.5,-275 1623.5,-316"/>
<text text-anchor="start" x="1474.5" y="-304" font-family="Helvetica,sans-Serif" font-size="10.00">firmware/wombat/src</text>
<text text-anchor="start" x="1474.5" y="-293" font-family="Helvetica,sans-Serif" font-size="10.00">/cli/device_config/acquisition</text>
<text text-anchor="middle" x="1545" y="-282" font-family="Helvetica,sans-Serif" font-size="10.00">_intervals.cpp</text>
</a>
</g>
</g>
<!-- Node1&#45;&gt;Node19 -->
<g id="edge21" class="edge">
<title>Node1&#45;&gt;Node19</title>
<path fill="none" stroke="#63b8ff" d="M1261.82,-352.21C1316.92,-342.6 1391.5,-329.19 1457,-316 1460.07,-315.38 1463.19,-314.74 1466.35,-314.09"/>
<polygon fill="#63b8ff" stroke="#63b8ff" points="1261.02,-348.8 1251.76,-353.96 1262.22,-355.69 1261.02,-348.8"/>
</g>
<!-- Node20 -->
<g id="node20" class="node">
<title>Node20</title>
<g id="a_node20"><a xlink:href="config__cli_8cpp.html" target="_top" xlink:title="Command line interface node configuration commands.">
<polygon fill="white" stroke="#666666" points="1774.5,-316 1641.5,-316 1641.5,-275 1774.5,-275 1774.5,-316"/>
<text text-anchor="start" x="1649.5" y="-304" font-family="Helvetica,sans-Serif" font-size="10.00">firmware/wombat/src</text>
<text text-anchor="start" x="1649.5" y="-293" font-family="Helvetica,sans-Serif" font-size="10.00">/cli/device_config/config</text>
<text text-anchor="middle" x="1708" y="-282" font-family="Helvetica,sans-Serif" font-size="10.00">_cli.cpp</text>
</a>
</g>
</g>
<!-- Node1&#45;&gt;Node20 -->
<g id="edge22" class="edge">
<title>Node1&#45;&gt;Node20</title>
<path fill="none" stroke="#63b8ff" d="M1261.76,-360.6C1352.58,-353.7 1504.22,-339.74 1633,-316 1635.78,-315.49 1638.61,-314.93 1641.46,-314.33"/>
<polygon fill="#63b8ff" stroke="#63b8ff" points="1261.24,-357.13 1251.53,-361.36 1261.77,-364.11 1261.24,-357.13"/>
</g>
<!-- Node21 -->
<g id="node21" class="node">
<title>Node21</title>
<g id="a_node21"><a xlink:href="uplinks_8cpp.html" target="_top" xlink:title=" ">
<polygon fill="white" stroke="#666666" points="1913,-310.5 1793,-310.5 1793,-280.5 1913,-280.5 1913,-310.5"/>
<text text-anchor="start" x="1801" y="-298.5" font-family="Helvetica,sans-Serif" font-size="10.00">firmware/wombat/src</text>
<text text-anchor="middle" x="1853" y="-287.5" font-family="Helvetica,sans-Serif" font-size="10.00">/uplinks.cpp</text>
</a>
</g>
</g>
<!-- Node1&#45;&gt;Node21 -->
<g id="edge26" class="edge">
<title>Node1&#45;&gt;Node21</title>
<path fill="none" stroke="#63b8ff" d="M1261.91,-364.23C1378.25,-360.58 1599.13,-349.47 1784,-316 1791.84,-314.58 1800.07,-312.65 1808.01,-310.56"/>
<polygon fill="#63b8ff" stroke="#63b8ff" points="1261.56,-360.74 1251.67,-364.54 1261.77,-367.74 1261.56,-360.74"/>
</g>
<!-- Node22 -->
<g id="node22" class="node">
<title>Node22</title>
<g id="a_node22"><a xlink:href="test___utils_8cpp.html" target="_top" xlink:title=" ">
<polygon fill="white" stroke="#666666" points="2065,-310.5 1931,-310.5 1931,-280.5 2065,-280.5 2065,-310.5"/>
<text text-anchor="start" x="1939" y="-298.5" font-family="Helvetica,sans-Serif" font-size="10.00">firmware/wombat/test</text>
<text text-anchor="middle" x="1998" y="-287.5" font-family="Helvetica,sans-Serif" font-size="10.00">/test_utils/test_Utils.cpp</text>
</a>
</g>
</g>
<!-- Node1&#45;&gt;Node22 -->
<g id="edge27" class="edge">
<title>Node1&#45;&gt;Node22</title>
<path fill="none" stroke="#63b8ff" d="M1262.12,-365.39C1399.02,-363.27 1684.24,-354.19 1922,-316 1930.74,-314.6 1939.94,-312.65 1948.81,-310.52"/>
<polygon fill="#63b8ff" stroke="#63b8ff" points="1261.67,-361.89 1251.73,-365.54 1261.78,-368.89 1261.67,-361.89"/>
</g>
<!-- Node2&#45;&gt;Node2 -->
<g id="edge15" class="edge">
<title>Node2&#45;&gt;Node2</title>
<path fill="none" stroke="#63b8ff" d="M657.7,-304.59C662.57,-302.43 665.5,-299.4 665.5,-295.5 665.5,-289.42 658.37,-285.45 647.83,-283.59"/>
<polygon fill="#63b8ff" stroke="#63b8ff" points="656.48,-301.3 647.83,-307.41 658.4,-308.03 656.48,-301.3"/>
</g>
<!-- Node3 -->
<g id="node3" class="node">
<title>Node3</title>
<g id="a_node3"><a xlink:href="_c_l_i_8h.html" target="_top" xlink:title="FreeRTOS CLI handler.">
<polygon fill="white" stroke="#666666" points="647.5,-239 506.5,-239 506.5,-209 647.5,-209 647.5,-239"/>
<text text-anchor="start" x="514.5" y="-227" font-family="Helvetica,sans-Serif" font-size="10.00">firmware/wombat/include</text>
<text text-anchor="middle" x="577" y="-216" font-family="Helvetica,sans-Serif" font-size="10.00">/cli/CLI.h</text>
</a>
</g>
</g>
<!-- Node2&#45;&gt;Node3 -->
<g id="edge2" class="edge">
<title>Node2&#45;&gt;Node3</title>
<path fill="none" stroke="#63b8ff" d="M577,-270.25C577,-259.81 577,-247.99 577,-239.04"/>
<polygon fill="#63b8ff" stroke="#63b8ff" points="573.5,-270.44 577,-280.44 580.5,-270.44 573.5,-270.44"/>
</g>
<!-- Node11 -->
<g id="node11" class="node">
<title>Node11</title>
<g id="a_node11"><a xlink:href="sdi12_8cpp.html" target="_top" xlink:title="SDI&#45;12 command line interface handler.">
<polygon fill="white" stroke="#666666" points="276,-167.5 138,-167.5 138,-137.5 276,-137.5 276,-167.5"/>
<text text-anchor="start" x="146" y="-155.5" font-family="Helvetica,sans-Serif" font-size="10.00">firmware/wombat/src</text>
<text text-anchor="middle" x="207" y="-144.5" font-family="Helvetica,sans-Serif" font-size="10.00">/cli/peripherals/sdi12.cpp</text>
</a>
</g>
</g>
<!-- Node2&#45;&gt;Node11 -->
<g id="edge16" class="edge">
<title>Node2&#45;&gt;Node11</title>
<path fill="none" stroke="#63b8ff" d="M530.59,-276.81C456.22,-248.47 311.84,-193.45 243.95,-167.58"/>
<polygon fill="#63b8ff" stroke="#63b8ff" points="529.58,-280.17 540.17,-280.46 532.07,-273.63 529.58,-280.17"/>
</g>
<!-- Node4 -->
<g id="node4" class="node">
<title>Node4</title>
<g id="a_node4"><a xlink:href="server_8h.html" target="_top" xlink:title="Handle the setup and maintenance of the BLE server and connected clients.">
<polygon fill="white" stroke="#666666" points="573.5,-167.5 432.5,-167.5 432.5,-137.5 573.5,-137.5 573.5,-167.5"/>
<text text-anchor="start" x="440.5" y="-155.5" font-family="Helvetica,sans-Serif" font-size="10.00">firmware/wombat/include</text>
<text text-anchor="middle" x="503" y="-144.5" font-family="Helvetica,sans-Serif" font-size="10.00">/bluetooth/server.h</text>
</a>
</g>
</g>
<!-- Node3&#45;&gt;Node4 -->
<g id="edge3" class="edge">
<title>Node3&#45;&gt;Node4</title>
<path fill="none" stroke="#63b8ff" d="M554.63,-201.99C542.75,-190.84 528.48,-177.43 517.95,-167.54"/>
<polygon fill="#63b8ff" stroke="#63b8ff" points="552.34,-204.64 562.02,-208.94 557.13,-199.54 552.34,-204.64"/>
</g>
<!-- Node8 -->
<g id="node8" class="node">
<title>Node8</title>
<g id="a_node8"><a xlink:href="_c_l_i_8cpp.html" target="_top" xlink:title="FreeRTOS CLI handler.">
<polygon fill="white" stroke="#666666" points="712,-167.5 592,-167.5 592,-137.5 712,-137.5 712,-167.5"/>
<text text-anchor="start" x="600" y="-155.5" font-family="Helvetica,sans-Serif" font-size="10.00">firmware/wombat/src</text>
<text text-anchor="middle" x="652" y="-144.5" font-family="Helvetica,sans-Serif" font-size="10.00">/cli/CLI.cpp</text>
</a>
</g>
</g>
<!-- Node3&#45;&gt;Node8 -->
<g id="edge8" class="edge">
<title>Node3&#45;&gt;Node8</title>
<path fill="none" stroke="#63b8ff" d="M599.67,-201.99C611.71,-190.84 626.18,-177.43 636.85,-167.54"/>
<polygon fill="#63b8ff" stroke="#63b8ff" points="597.13,-199.57 592.18,-208.94 601.89,-204.71 597.13,-199.57"/>
</g>
<!-- Node3&#45;&gt;Node9 -->
<g id="edge9" class="edge">
<title>Node3&#45;&gt;Node9</title>
<path fill="none" stroke="#63b8ff" d="M496.08,-217.99C405.88,-211.47 256.01,-197.86 129,-173 126.07,-172.43 123.08,-171.79 120.07,-171.1"/>
<polygon fill="#63b8ff" stroke="#63b8ff" points="496.01,-221.49 506.23,-218.71 496.51,-214.51 496.01,-221.49"/>
</g>
<!-- Node10 -->
<g id="node10" class="node">
<title>Node10</title>
<g id="a_node10"><a xlink:href="sd__card_8cpp.html" target="_top" xlink:title=" ">
<polygon fill="white" stroke="#666666" points="850,-173 730,-173 730,-132 850,-132 850,-173"/>
<text text-anchor="start" x="738" y="-161" font-family="Helvetica,sans-Serif" font-size="10.00">firmware/wombat/src</text>
<text text-anchor="start" x="738" y="-150" font-family="Helvetica,sans-Serif" font-size="10.00">/cli/peripherals/sd</text>
<text text-anchor="middle" x="790" y="-139" font-family="Helvetica,sans-Serif" font-size="10.00">_card.cpp</text>
</a>
</g>
</g>
<!-- Node3&#45;&gt;Node10 -->
<g id="edge10" class="edge">
<title>Node3&#45;&gt;Node10</title>
<path fill="none" stroke="#63b8ff" d="M629.68,-205.81C660.09,-195.89 698.44,-183.37 730.01,-173.07"/>
<polygon fill="#63b8ff" stroke="#63b8ff" points="628.52,-202.51 620.1,-208.94 630.7,-209.16 628.52,-202.51"/>
</g>
<!-- Node3&#45;&gt;Node11 -->
<g id="edge11" class="edge">
<title>Node3&#45;&gt;Node11</title>
<path fill="none" stroke="#63b8ff" d="M496.24,-210.85C437.44,-201.59 356.01,-187.93 285,-173 277.21,-171.36 269.03,-169.49 261.01,-167.56"/>
<polygon fill="#63b8ff" stroke="#63b8ff" points="495.79,-214.32 506.21,-212.41 496.87,-207.4 495.79,-214.32"/>
</g>
<!-- Node3&#45;&gt;Node12 -->
<g id="edge12" class="edge">
<title>Node3&#45;&gt;Node12</title>
<path fill="none" stroke="#63b8ff" d="M657.48,-210.92C714.12,-201.89 791.57,-188.47 859,-173 866.04,-171.39 873.43,-169.5 880.65,-167.55"/>
<polygon fill="#63b8ff" stroke="#63b8ff" points="656.84,-207.48 647.51,-212.5 657.93,-214.4 656.84,-207.48"/>
</g>
<!-- Node13 -->
<g id="node13" class="node">
<title>Node13</title>
<g id="a_node13"><a xlink:href="main_8cpp.html" target="_top" xlink:title=" ">
<polygon fill="white" stroke="#666666" points="414,-167.5 294,-167.5 294,-137.5 414,-137.5 414,-167.5"/>
<text text-anchor="start" x="302" y="-155.5" font-family="Helvetica,sans-Serif" font-size="10.00">firmware/wombat/src</text>
<text text-anchor="middle" x="354" y="-144.5" font-family="Helvetica,sans-Serif" font-size="10.00">/main.cpp</text>
</a>
</g>
</g>
<!-- Node3&#45;&gt;Node13 -->
<g id="edge13" class="edge">
<title>Node3&#45;&gt;Node13</title>
<path fill="none" stroke="#63b8ff" d="M522.03,-205.87C484.2,-194.08 434.56,-178.61 399.06,-167.54"/>
<polygon fill="#63b8ff" stroke="#63b8ff" points="521.28,-209.3 531.87,-208.94 523.37,-202.62 521.28,-209.3"/>
</g>
<!-- Node3&#45;&gt;Node14 -->
<g id="edge14" class="edge">
<title>Node3&#45;&gt;Node14</title>
<path fill="none" stroke="#63b8ff" d="M657.86,-217.16C742.87,-210.14 880.23,-196.3 997,-173 1004.57,-171.49 1012.52,-169.57 1020.22,-167.52"/>
<polygon fill="#63b8ff" stroke="#63b8ff" points="657.44,-213.69 647.76,-217.99 658.01,-220.66 657.44,-213.69"/>
</g>
<!-- Node5 -->
<g id="node5" class="node">
<title>Node5</title>
<g id="a_node5"><a xlink:href="uart_8h.html" target="_top" xlink:title="BluetoothLE UART service setup and handling.">
<polygon fill="white" stroke="#666666" points="573.5,-96 432.5,-96 432.5,-66 573.5,-66 573.5,-96"/>
<text text-anchor="start" x="440.5" y="-84" font-family="Helvetica,sans-Serif" font-size="10.00">firmware/wombat/include</text>
<text text-anchor="middle" x="503" y="-73" font-family="Helvetica,sans-Serif" font-size="10.00">/bluetooth/uart.h</text>
</a>
</g>
</g>
<!-- Node4&#45;&gt;Node5 -->
<g id="edge4" class="edge">
<title>Node4&#45;&gt;Node5</title>
<path fill="none" stroke="#63b8ff" d="M496.53,-127.25C495.96,-116.81 496.26,-104.99 497.45,-96.04"/>
<polygon fill="#63b8ff" stroke="#63b8ff" points="493.07,-127.79 497.45,-137.44 500.04,-127.16 493.07,-127.79"/>
</g>
<!-- Node7 -->
<g id="node7" class="node">
<title>Node7</title>
<g id="a_node7"><a xlink:href="server_8cpp.html" target="_top" xlink:title="Setup and start BluetoothLE server.">
<polygon fill="white" stroke="#666666" points="712,-96 592,-96 592,-66 712,-66 712,-96"/>
<text text-anchor="start" x="600" y="-84" font-family="Helvetica,sans-Serif" font-size="10.00">firmware/wombat/src</text>
<text text-anchor="middle" x="652" y="-73" font-family="Helvetica,sans-Serif" font-size="10.00">/bluetooth/server.cpp</text>
</a>
</g>
</g>
<!-- Node4&#45;&gt;Node7 -->
<g id="edge7" class="edge">
<title>Node4&#45;&gt;Node7</title>
<path fill="none" stroke="#63b8ff" d="M542.34,-133.15C567.25,-121.53 598.98,-106.73 621.89,-96.04"/>
<polygon fill="#63b8ff" stroke="#63b8ff" points="540.74,-130.04 533.15,-137.44 543.69,-136.38 540.74,-130.04"/>
</g>
<!-- Node5&#45;&gt;Node4 -->
<g id="edge5" class="edge">
<title>Node5&#45;&gt;Node4</title>
<path fill="none" stroke="#63b8ff" d="M509.47,-106.23C510.04,-116.66 509.74,-128.49 508.55,-137.44"/>
<polygon fill="#63b8ff" stroke="#63b8ff" points="512.93,-105.69 508.55,-96.04 505.96,-106.32 512.93,-105.69"/>
</g>
<!-- Node6 -->
<g id="node6" class="node">
<title>Node6</title>
<g id="a_node6"><a xlink:href="uart_8cpp.html" target="_top" xlink:title="BluetoothLE UART service setup and handling.">
<polygon fill="white" stroke="#666666" points="563,-30 443,-30 443,0 563,0 563,-30"/>
<text text-anchor="start" x="451" y="-18" font-family="Helvetica,sans-Serif" font-size="10.00">firmware/wombat/src</text>
<text text-anchor="middle" x="503" y="-7" font-family="Helvetica,sans-Serif" font-size="10.00">/bluetooth/uart.cpp</text>
</a>
</g>
</g>
<!-- Node5&#45;&gt;Node6 -->
<g id="edge6" class="edge">
<title>Node5&#45;&gt;Node6</title>
<path fill="none" stroke="#63b8ff" d="M503,-55.54C503,-46.96 503,-37.61 503,-30.16"/>
<polygon fill="#63b8ff" stroke="#63b8ff" points="499.5,-55.8 503,-65.8 506.5,-55.8 499.5,-55.8"/>
</g>
</g>
</svg>
