<?xml version="1.0" encoding="UTF-8" standalone="no"?>
<!DOCTYPE svg PUBLIC "-//W3C//DTD SVG 1.1//EN"
 "http://www.w3.org/Graphics/SVG/1.1/DTD/svg11.dtd">
<!-- Generated by graphviz version 2.43.0 (0)
 -->
<!-- Title: firmware/wombat/include/Utils.h Pages: 1 -->
<svg width="1726pt" height="390pt"
 viewBox="0.00 0.00 1726.00 390.00" xmlns="http://www.w3.org/2000/svg" xmlns:xlink="http://www.w3.org/1999/xlink">
<g id="graph0" class="graph" transform="scale(1 1) rotate(0) translate(4 386)">
<title>firmware/wombat/include/Utils.h</title>
<!-- Node1 -->
<g id="node1" class="node">
<title>Node1</title>
<g id="a_node1"><a xlink:title=" ">
<polygon fill="#999999" stroke="#666666" points="1124.5,-382 983.5,-382 983.5,-352 1124.5,-352 1124.5,-382"/>
<text text-anchor="start" x="991.5" y="-370" font-family="Helvetica,sans-Serif" font-size="10.00">firmware/wombat/include</text>
<text text-anchor="middle" x="1054" y="-359" font-family="Helvetica,sans-Serif" font-size="10.00">/Utils.h</text>
</a>
</g>
</g>
<!-- Node2 -->
<g id="node2" class="node">
<title>Node2</title>
<g id="a_node2"><a xlink:href="sdi12_8h.html" target="_top" xlink:title="SDI&#45;12 command line interface handler.">
<polygon fill="white" stroke="#666666" points="636.5,-310.5 495.5,-310.5 495.5,-280.5 636.5,-280.5 636.5,-310.5"/>
<text text-anchor="start" x="503.5" y="-298.5" font-family="Helvetica,sans-Serif" font-size="10.00">firmware/wombat/include</text>
<text text-anchor="middle" x="566" y="-287.5" font-family="Helvetica,sans-Serif" font-size="10.00">/cli/peripherals/sdi12.h</text>
</a>
</g>
</g>
<!-- Node1&#45;&gt;Node2 -->
<g id="edge1" class="edge">
<title>Node1&#45;&gt;Node2</title>
<path fill="none" stroke="#63b8ff" d="M973.29,-354.51C879.45,-341.14 726.08,-319.3 636.73,-306.57"/>
<polygon fill="#63b8ff" stroke="#63b8ff" points="972.91,-357.99 983.3,-355.93 973.89,-351.06 972.91,-357.99"/>
</g>
<!-- Node9 -->
<g id="node9" class="node">
<title>Node9</title>
<g id="a_node9"><a xlink:href="cat-m1_8cpp.html" target="_top" xlink:title="CAT&#45;M1 CLI command request and response handler.">
<polygon fill="white" stroke="#666666" points="850,-173 730,-173 730,-132 850,-132 850,-173"/>
<text text-anchor="start" x="738" y="-161" font-family="Helvetica,sans-Serif" font-size="10.00">firmware/wombat/src</text>
<text text-anchor="start" x="738" y="-150" font-family="Helvetica,sans-Serif" font-size="10.00">/cli/peripherals/cat</text>
<text text-anchor="middle" x="790" y="-139" font-family="Helvetica,sans-Serif" font-size="10.00">&#45;m1.cpp</text>
</a>
</g>
</g>
<!-- Node1&#45;&gt;Node9 -->
<g id="edge21" class="edge">
<title>Node1&#45;&gt;Node9</title>
<path fill="none" stroke="#63b8ff" d="M973.3,-356.72C918.39,-348.8 852.16,-335.54 832,-316 792.45,-277.67 788.41,-207.37 789,-173.19"/>
<polygon fill="#63b8ff" stroke="#63b8ff" points="973.02,-360.22 983.41,-358.14 973.99,-353.29 973.02,-360.22"/>
</g>
<!-- Node13 -->
<g id="node13" class="node">
<title>Node13</title>
<g id="a_node13"><a xlink:href="mqtt__stack_8cpp.html" target="_top" xlink:title=" ">
<polygon fill="white" stroke="#666666" points="988,-167.5 868,-167.5 868,-137.5 988,-137.5 988,-167.5"/>
<text text-anchor="start" x="876" y="-155.5" font-family="Helvetica,sans-Serif" font-size="10.00">firmware/wombat/src</text>
<text text-anchor="middle" x="928" y="-144.5" font-family="Helvetica,sans-Serif" font-size="10.00">/mqtt_stack.cpp</text>
</a>
</g>
</g>
<!-- Node1&#45;&gt;Node13 -->
<g id="edge22" class="edge">
<title>Node1&#45;&gt;Node13</title>
<path fill="none" stroke="#63b8ff" d="M973.23,-356.79C922.14,-349.1 862.84,-336.12 847,-316 808.59,-267.21 877.26,-197.28 910.96,-167.64"/>
<polygon fill="#63b8ff" stroke="#63b8ff" points="972.93,-360.28 983.33,-358.25 973.93,-353.35 972.93,-360.28"/>
</g>
<!-- Node14 -->
<g id="node14" class="node">
<title>Node14</title>
<g id="a_node14"><a xlink:href="_device_config_8cpp.html" target="_top" xlink:title=" ">
<polygon fill="white" stroke="#666666" points="976,-310.5 856,-310.5 856,-280.5 976,-280.5 976,-310.5"/>
<text text-anchor="start" x="864" y="-298.5" font-family="Helvetica,sans-Serif" font-size="10.00">firmware/wombat/src</text>
<text text-anchor="middle" x="916" y="-287.5" font-family="Helvetica,sans-Serif" font-size="10.00">/DeviceConfig.cpp</text>
</a>
</g>
</g>
<!-- Node1&#45;&gt;Node14 -->
<g id="edge17" class="edge">
<title>Node1&#45;&gt;Node14</title>
<path fill="none" stroke="#63b8ff" d="M1016.96,-347.34C993.97,-335.77 964.92,-321.14 943.88,-310.54"/>
<polygon fill="#63b8ff" stroke="#63b8ff" points="1015.57,-350.56 1026.07,-351.94 1018.72,-344.31 1015.57,-350.56"/>
</g>
<!-- Node15 -->
<g id="node15" class="node">
<title>Node15</title>
<g id="a_node15"><a xlink:href="_sensor_task_8cpp.html" target="_top" xlink:title=" ">
<polygon fill="white" stroke="#666666" points="1114,-310.5 994,-310.5 994,-280.5 1114,-280.5 1114,-310.5"/>
<text text-anchor="start" x="1002" y="-298.5" font-family="Helvetica,sans-Serif" font-size="10.00">firmware/wombat/src</text>
<text text-anchor="middle" x="1054" y="-287.5" font-family="Helvetica,sans-Serif" font-size="10.00">/SensorTask.cpp</text>
</a>
</g>
</g>
<!-- Node1&#45;&gt;Node15 -->
<g id="edge18" class="edge">
<title>Node1&#45;&gt;Node15</title>
<path fill="none" stroke="#63b8ff" d="M1054,-341.75C1054,-331.31 1054,-319.49 1054,-310.54"/>
<polygon fill="#63b8ff" stroke="#63b8ff" points="1050.5,-341.94 1054,-351.94 1057.5,-341.94 1050.5,-341.94"/>
</g>
<!-- Node16 -->
<g id="node16" class="node">
<title>Node16</title>
<g id="a_node16"><a xlink:href="_utils_8cpp.html" target="_top" xlink:title="Global utility functions.">
<polygon fill="white" stroke="#666666" points="1252,-310.5 1132,-310.5 1132,-280.5 1252,-280.5 1252,-310.5"/>
<text text-anchor="start" x="1140" y="-298.5" font-family="Helvetica,sans-Serif" font-size="10.00">firmware/wombat/src</text>
<text text-anchor="middle" x="1192" y="-287.5" font-family="Helvetica,sans-Serif" font-size="10.00">/Utils.cpp</text>
</a>
</g>
</g>
<!-- Node1&#45;&gt;Node16 -->
<g id="edge19" class="edge">
<title>Node1&#45;&gt;Node16</title>
<path fill="none" stroke="#63b8ff" d="M1091.04,-347.34C1114.03,-335.77 1143.08,-321.14 1164.12,-310.54"/>
<polygon fill="#63b8ff" stroke="#63b8ff" points="1089.28,-344.31 1081.93,-351.94 1092.43,-350.56 1089.28,-344.31"/>
</g>
<!-- Node17 -->
<g id="node17" class="node">
<title>Node17</title>
<g id="a_node17"><a xlink:href="acquisition__intervals_8cpp.html" target="_top" xlink:title="Handles the time between measurements and uplinks by the device over LTE.">
<polygon fill="white" stroke="#666666" points="1427.5,-316 1270.5,-316 1270.5,-275 1427.5,-275 1427.5,-316"/>
<text text-anchor="start" x="1278.5" y="-304" font-family="Helvetica,sans-Serif" font-size="10.00">firmware/wombat/src</text>
<text text-anchor="start" x="1278.5" y="-293" font-family="Helvetica,sans-Serif" font-size="10.00">/cli/device_config/acquisition</text>
<text text-anchor="middle" x="1349" y="-282" font-family="Helvetica,sans-Serif" font-size="10.00">_intervals.cpp</text>
</a>
</g>
</g>
<!-- Node1&#45;&gt;Node17 -->
<g id="edge20" class="edge">
<title>Node1&#45;&gt;Node17</title>
<path fill="none" stroke="#63b8ff" d="M1123.46,-349.64C1167.52,-339.26 1224.63,-325.8 1270.36,-315.03"/>
<polygon fill="#63b8ff" stroke="#63b8ff" points="1122.63,-346.24 1113.7,-351.94 1124.23,-353.05 1122.63,-346.24"/>
</g>
<!-- Node18 -->
<g id="node18" class="node">
<title>Node18</title>
<g id="a_node18"><a xlink:href="uplinks_8cpp.html" target="_top" xlink:title=" ">
<polygon fill="white" stroke="#666666" points="1566,-310.5 1446,-310.5 1446,-280.5 1566,-280.5 1566,-310.5"/>
<text text-anchor="start" x="1454" y="-298.5" font-family="Helvetica,sans-Serif" font-size="10.00">firmware/wombat/src</text>
<text text-anchor="middle" x="1506" y="-287.5" font-family="Helvetica,sans-Serif" font-size="10.00">/uplinks.cpp</text>
</a>
</g>
</g>
<!-- Node1&#45;&gt;Node18 -->
<g id="edge23" class="edge">
<title>Node1&#45;&gt;Node18</title>
<path fill="none" stroke="#63b8ff" d="M1134.98,-358.88C1212.89,-351.23 1333.75,-337.21 1437,-316 1444.44,-314.47 1452.25,-312.56 1459.83,-310.55"/>
<polygon fill="#63b8ff" stroke="#63b8ff" points="1134.37,-355.43 1124.75,-359.88 1135.04,-362.39 1134.37,-355.43"/>
</g>
<!-- Node19 -->
<g id="node19" class="node">
<title>Node19</title>
<g id="a_node19"><a xlink:href="test___utils_8cpp.html" target="_top" xlink:title=" ">
<polygon fill="white" stroke="#666666" points="1718,-310.5 1584,-310.5 1584,-280.5 1718,-280.5 1718,-310.5"/>
<text text-anchor="start" x="1592" y="-298.5" font-family="Helvetica,sans-Serif" font-size="10.00">firmware/wombat/test</text>
<text text-anchor="middle" x="1651" y="-287.5" font-family="Helvetica,sans-Serif" font-size="10.00">/test_utils/test_Utils.cpp</text>
</a>
</g>
</g>
<!-- Node1&#45;&gt;Node19 -->
<g id="edge24" class="edge">
<title>Node1&#45;&gt;Node19</title>
<path fill="none" stroke="#63b8ff" d="M1134.84,-362.14C1237.71,-356.35 1420.6,-343.05 1575,-316 1583.45,-314.52 1592.35,-312.59 1600.96,-310.51"/>
<polygon fill="#63b8ff" stroke="#63b8ff" points="1134.62,-358.65 1124.83,-362.7 1135.01,-365.64 1134.62,-358.65"/>
</g>
<!-- Node2&#45;&gt;Node2 -->
<g id="edge15" class="edge">
<title>Node2&#45;&gt;Node2</title>
<path fill="none" stroke="#63b8ff" d="M646.7,-304.59C651.57,-302.43 654.5,-299.4 654.5,-295.5 654.5,-289.42 647.37,-285.45 636.83,-283.59"/>
<polygon fill="#63b8ff" stroke="#63b8ff" points="645.48,-301.3 636.83,-307.41 647.4,-308.03 645.48,-301.3"/>
</g>
<!-- Node3 -->
<g id="node3" class="node">
<title>Node3</title>
<g id="a_node3"><a xlink:href="_c_l_i_8h.html" target="_top" xlink:title="FreeRTOS CLI handler.">
<polygon fill="white" stroke="#666666" points="636.5,-239 495.5,-239 495.5,-209 636.5,-209 636.5,-239"/>
<text text-anchor="start" x="503.5" y="-227" font-family="Helvetica,sans-Serif" font-size="10.00">firmware/wombat/include</text>
<text text-anchor="middle" x="566" y="-216" font-family="Helvetica,sans-Serif" font-size="10.00">/cli/CLI.h</text>
</a>
</g>
</g>
<!-- Node2&#45;&gt;Node3 -->
<g id="edge2" class="edge">
<title>Node2&#45;&gt;Node3</title>
<path fill="none" stroke="#63b8ff" d="M566,-270.25C566,-259.81 566,-247.99 566,-239.04"/>
<polygon fill="#63b8ff" stroke="#63b8ff" points="562.5,-270.44 566,-280.44 569.5,-270.44 562.5,-270.44"/>
</g>
<!-- Node11 -->
<g id="node11" class="node">
<title>Node11</title>
<g id="a_node11"><a xlink:href="sdi12_8cpp.html" target="_top" xlink:title="SDI&#45;12 command line interface handler.">
<polygon fill="white" stroke="#666666" points="138,-167.5 0,-167.5 0,-137.5 138,-137.5 138,-167.5"/>
<text text-anchor="start" x="8" y="-155.5" font-family="Helvetica,sans-Serif" font-size="10.00">firmware/wombat/src</text>
<text text-anchor="middle" x="69" y="-144.5" font-family="Helvetica,sans-Serif" font-size="10.00">/cli/peripherals/sdi12.cpp</text>
</a>
</g>
</g>
<!-- Node2&#45;&gt;Node11 -->
<g id="edge16" class="edge">
<title>Node2&#45;&gt;Node11</title>
<path fill="none" stroke="#63b8ff" d="M506.69,-277.67C407.73,-249.6 210.75,-193.71 118.64,-167.58"/>
<polygon fill="#63b8ff" stroke="#63b8ff" points="505.95,-281.1 516.53,-280.46 507.86,-274.37 505.95,-281.1"/>
</g>
<!-- Node4 -->
<g id="node4" class="node">
<title>Node4</title>
<g id="a_node4"><a xlink:href="server_8h.html" target="_top" xlink:title="Handle the setup and maintenance of the BLE server and connected clients.">
<polygon fill="white" stroke="#666666" points="711.5,-167.5 570.5,-167.5 570.5,-137.5 711.5,-137.5 711.5,-167.5"/>
<text text-anchor="start" x="578.5" y="-155.5" font-family="Helvetica,sans-Serif" font-size="10.00">firmware/wombat/include</text>
<text text-anchor="middle" x="641" y="-144.5" font-family="Helvetica,sans-Serif" font-size="10.00">/bluetooth/server.h</text>
</a>
</g>
</g>
<!-- Node3&#45;&gt;Node4 -->
<g id="edge3" class="edge">
<title>Node3&#45;&gt;Node4</title>
<path fill="none" stroke="#63b8ff" d="M582.74,-201.67C593.89,-190.58 608.43,-177.34 620.3,-167.54"/>
<polygon fill="#63b8ff" stroke="#63b8ff" points="580.12,-199.34 575.63,-208.94 585.12,-204.24 580.12,-199.34"/>
</g>
<!-- Node8 -->
<g id="node8" class="node">
<title>Node8</title>
<g id="a_node8"><a xlink:href="_c_l_i_8cpp.html" target="_top" xlink:title="FreeRTOS CLI handler.">
<polygon fill="white" stroke="#666666" points="276,-167.5 156,-167.5 156,-137.5 276,-137.5 276,-167.5"/>
<text text-anchor="start" x="164" y="-155.5" font-family="Helvetica,sans-Serif" font-size="10.00">firmware/wombat/src</text>
<text text-anchor="middle" x="216" y="-144.5" font-family="Helvetica,sans-Serif" font-size="10.00">/cli/CLI.cpp</text>
</a>
</g>
</g>
<!-- Node3&#45;&gt;Node8 -->
<g id="edge9" class="edge">
<title>Node3&#45;&gt;Node8</title>
<path fill="none" stroke="#63b8ff" d="M485.52,-210.86C429.1,-201.82 352.08,-188.41 285,-173 277.96,-171.38 270.57,-169.5 263.35,-167.55"/>
<polygon fill="#63b8ff" stroke="#63b8ff" points="485.03,-214.32 495.45,-212.44 486.13,-207.41 485.03,-214.32"/>
</g>
<!-- Node3&#45;&gt;Node9 -->
<g id="edge10" class="edge">
<title>Node3&#45;&gt;Node9</title>
<path fill="none" stroke="#63b8ff" d="M621.25,-205.86C654.21,-195.63 696.08,-182.64 729.87,-172.16"/>
<polygon fill="#63b8ff" stroke="#63b8ff" points="619.84,-202.63 611.33,-208.94 621.92,-209.32 619.84,-202.63"/>
</g>
<!-- Node10 -->
<g id="node10" class="node">
<title>Node10</title>
<g id="a_node10"><a xlink:href="sd__card_8cpp.html" target="_top" xlink:title=" ">
<polygon fill="white" stroke="#666666" points="414,-173 294,-173 294,-132 414,-132 414,-173"/>
<text text-anchor="start" x="302" y="-161" font-family="Helvetica,sans-Serif" font-size="10.00">firmware/wombat/src</text>
<text text-anchor="start" x="302" y="-150" font-family="Helvetica,sans-Serif" font-size="10.00">/cli/peripherals/sd</text>
<text text-anchor="middle" x="354" y="-139" font-family="Helvetica,sans-Serif" font-size="10.00">_card.cpp</text>
</a>
</g>
</g>
<!-- Node3&#45;&gt;Node10 -->
<g id="edge11" class="edge">
<title>Node3&#45;&gt;Node10</title>
<path fill="none" stroke="#63b8ff" d="M513.57,-205.81C483.3,-195.89 445.13,-183.37 413.71,-173.07"/>
<polygon fill="#63b8ff" stroke="#63b8ff" points="512.51,-209.15 523.1,-208.94 514.69,-202.49 512.51,-209.15"/>
</g>
<!-- Node3&#45;&gt;Node11 -->
<g id="edge12" class="edge">
<title>Node3&#45;&gt;Node11</title>
<path fill="none" stroke="#63b8ff" d="M485.09,-216.4C400.37,-208.77 263.66,-194.46 147,-173 138.63,-171.46 129.81,-169.55 121.25,-167.53"/>
<polygon fill="#63b8ff" stroke="#63b8ff" points="484.89,-219.89 495.16,-217.29 485.51,-212.92 484.89,-219.89"/>
</g>
<!-- Node12 -->
<g id="node12" class="node">
<title>Node12</title>
<g id="a_node12"><a xlink:href="main_8cpp.html" target="_top" xlink:title=" ">
<polygon fill="white" stroke="#666666" points="552,-167.5 432,-167.5 432,-137.5 552,-137.5 552,-167.5"/>
<text text-anchor="start" x="440" y="-155.5" font-family="Helvetica,sans-Serif" font-size="10.00">firmware/wombat/src</text>
<text text-anchor="middle" x="492" y="-144.5" font-family="Helvetica,sans-Serif" font-size="10.00">/main.cpp</text>
</a>
</g>
</g>
<!-- Node3&#45;&gt;Node12 -->
<g id="edge13" class="edge">
<title>Node3&#45;&gt;Node12</title>
<path fill="none" stroke="#63b8ff" d="M543.63,-201.99C531.75,-190.84 517.48,-177.43 506.95,-167.54"/>
<polygon fill="#63b8ff" stroke="#63b8ff" points="541.34,-204.64 551.02,-208.94 546.13,-199.54 541.34,-204.64"/>
</g>
<!-- Node3&#45;&gt;Node13 -->
<g id="edge14" class="edge">
<title>Node3&#45;&gt;Node13</title>
<path fill="none" stroke="#63b8ff" d="M646.59,-211.61C705.7,-202.68 787.75,-189.1 859,-173 866.04,-171.41 873.44,-169.54 880.66,-167.59"/>
<polygon fill="#63b8ff" stroke="#63b8ff" points="645.94,-208.17 636.57,-213.11 646.98,-215.09 645.94,-208.17"/>
</g>
<!-- Node4&#45;&gt;Node3 -->
<g id="edge7" class="edge">
<title>Node4&#45;&gt;Node3</title>
<path fill="none" stroke="#63b8ff" d="M624.29,-174.81C613.14,-185.89 598.6,-199.14 586.73,-208.94"/>
<polygon fill="#63b8ff" stroke="#63b8ff" points="626.9,-177.14 631.39,-167.54 621.9,-172.24 626.9,-177.14"/>
</g>
<!-- Node5 -->
<g id="node5" class="node">
<title>Node5</title>
<g id="a_node5"><a xlink:href="uart_8h.html" target="_top" xlink:title="BluetoothLE UART service setup and handling.">
<polygon fill="white" stroke="#666666" points="711.5,-96 570.5,-96 570.5,-66 711.5,-66 711.5,-96"/>
<text text-anchor="start" x="578.5" y="-84" font-family="Helvetica,sans-Serif" font-size="10.00">firmware/wombat/include</text>
<text text-anchor="middle" x="641" y="-73" font-family="Helvetica,sans-Serif" font-size="10.00">/bluetooth/uart.h</text>
</a>
</g>
</g>
<!-- Node4&#45;&gt;Node5 -->
<g id="edge4" class="edge">
<title>Node4&#45;&gt;Node5</title>
<path fill="none" stroke="#63b8ff" d="M634.53,-127.25C633.96,-116.81 634.26,-104.99 635.45,-96.04"/>
<polygon fill="#63b8ff" stroke="#63b8ff" points="631.07,-127.79 635.45,-137.44 638.04,-127.16 631.07,-127.79"/>
</g>
<!-- Node7 -->
<g id="node7" class="node">
<title>Node7</title>
<g id="a_node7"><a xlink:href="server_8cpp.html" target="_top" xlink:title="Setup and start BluetoothLE server.">
<polygon fill="white" stroke="#666666" points="850,-96 730,-96 730,-66 850,-66 850,-96"/>
<text text-anchor="start" x="738" y="-84" font-family="Helvetica,sans-Serif" font-size="10.00">firmware/wombat/src</text>
<text text-anchor="middle" x="790" y="-73" font-family="Helvetica,sans-Serif" font-size="10.00">/bluetooth/server.cpp</text>
</a>
</g>
</g>
<!-- Node4&#45;&gt;Node7 -->
<g id="edge8" class="edge">
<title>Node4&#45;&gt;Node7</title>
<path fill="none" stroke="#63b8ff" d="M680.34,-133.15C705.25,-121.53 736.98,-106.73 759.89,-96.04"/>
<polygon fill="#63b8ff" stroke="#63b8ff" points="678.74,-130.04 671.15,-137.44 681.69,-136.38 678.74,-130.04"/>
</g>
<!-- Node5&#45;&gt;Node4 -->
<g id="edge5" class="edge">
<title>Node5&#45;&gt;Node4</title>
<path fill="none" stroke="#63b8ff" d="M647.47,-106.23C648.04,-116.66 647.74,-128.49 646.55,-137.44"/>
<polygon fill="#63b8ff" stroke="#63b8ff" points="650.93,-105.69 646.55,-96.04 643.96,-106.32 650.93,-105.69"/>
</g>
<!-- Node6 -->
<g id="node6" class="node">
<title>Node6</title>
<g id="a_node6"><a xlink:href="uart_8cpp.html" target="_top" xlink:title="BluetoothLE UART service setup and handling.">
<polygon fill="white" stroke="#666666" points="701,-30 581,-30 581,0 701,0 701,-30"/>
<text text-anchor="start" x="589" y="-18" font-family="Helvetica,sans-Serif" font-size="10.00">firmware/wombat/src</text>
<text text-anchor="middle" x="641" y="-7" font-family="Helvetica,sans-Serif" font-size="10.00">/bluetooth/uart.cpp</text>
</a>
</g>
</g>
<!-- Node5&#45;&gt;Node6 -->
<g id="edge6" class="edge">
<title>Node5&#45;&gt;Node6</title>
<path fill="none" stroke="#63b8ff" d="M641,-55.54C641,-46.96 641,-37.61 641,-30.16"/>
<polygon fill="#63b8ff" stroke="#63b8ff" points="637.5,-55.8 641,-65.8 644.5,-55.8 637.5,-55.8"/>
</g>
</g>
</svg>
