<?xml version="1.0" encoding="UTF-8" standalone="no"?>
<!DOCTYPE svg PUBLIC "-//W3C//DTD SVG 1.1//EN"
 "http://www.w3.org/Graphics/SVG/1.1/DTD/svg11.dtd">
<!-- Generated by graphviz version 2.43.0 (0)
 -->
<!-- Title: firmware/wombat/include/Utils.h Pages: 1 -->
<svg width="1970pt" height="269pt"
 viewBox="0.00 0.00 1970.00 269.00" xmlns="http://www.w3.org/2000/svg" xmlns:xlink="http://www.w3.org/1999/xlink">
<g id="graph0" class="graph" transform="scale(1 1) rotate(0) translate(4 265)">
<title>firmware/wombat/include/Utils.h</title>
<!-- Node1 -->
<g id="node1" class="node">
<title>Node1</title>
<g id="a_node1"><a xlink:title=" ">
<polygon fill="#999999" stroke="#666666" points="1023.5,-261 882.5,-261 882.5,-231 1023.5,-231 1023.5,-261"/>
<text text-anchor="start" x="890.5" y="-249" font-family="Helvetica,sans-Serif" font-size="10.00">firmware/wombat/include</text>
<text text-anchor="middle" x="953" y="-238" font-family="Helvetica,sans-Serif" font-size="10.00">/Utils.h</text>
</a>
</g>
</g>
<!-- Node2 -->
<g id="node2" class="node">
<title>Node2</title>
<g id="a_node2"><a xlink:href="sdi12_8h.html" target="_top" xlink:title="SDI&#45;12 command line interface handler.">
<polygon fill="white" stroke="#666666" points="393.5,-189.5 252.5,-189.5 252.5,-159.5 393.5,-159.5 393.5,-189.5"/>
<text text-anchor="start" x="260.5" y="-177.5" font-family="Helvetica,sans-Serif" font-size="10.00">firmware/wombat/include</text>
<text text-anchor="middle" x="323" y="-166.5" font-family="Helvetica,sans-Serif" font-size="10.00">/cli/peripherals/sdi12.h</text>
</a>
</g>
</g>
<!-- Node1&#45;&gt;Node2 -->
<g id="edge1" class="edge">
<title>Node1&#45;&gt;Node2</title>
<path fill="none" stroke="#63b8ff" d="M872.35,-239.68C768.72,-232.31 583.41,-217.32 426,-195 415.1,-193.45 403.6,-191.55 392.39,-189.54"/>
<polygon fill="#63b8ff" stroke="#63b8ff" points="872.21,-243.18 882.43,-240.39 872.7,-236.19 872.21,-243.18"/>
</g>
<!-- Node5 -->
<g id="node5" class="node">
<title>Node5</title>
<g id="a_node5"><a xlink:href="cat-m1_8cpp.html" target="_top" xlink:title="CAT&#45;M1 CLI command request and response handler.">
<polygon fill="white" stroke="#666666" points="120,-41 0,-41 0,0 120,0 120,-41"/>
<text text-anchor="start" x="8" y="-29" font-family="Helvetica,sans-Serif" font-size="10.00">firmware/wombat/src</text>
<text text-anchor="start" x="8" y="-18" font-family="Helvetica,sans-Serif" font-size="10.00">/cli/peripherals/cat</text>
<text text-anchor="middle" x="60" y="-7" font-family="Helvetica,sans-Serif" font-size="10.00">&#45;m1.cpp</text>
</a>
</g>
</g>
<!-- Node1&#45;&gt;Node5 -->
<g id="edge22" class="edge">
<title>Node1&#45;&gt;Node5</title>
<path fill="none" stroke="#63b8ff" d="M872.18,-242.38C698.21,-236.29 299.35,-219.79 243,-195 165.26,-160.79 100.25,-78.79 73.32,-41.08"/>
<polygon fill="#63b8ff" stroke="#63b8ff" points="872.19,-245.88 882.31,-242.73 872.43,-238.88 872.19,-245.88"/>
</g>
<!-- Node8 -->
<g id="node8" class="node">
<title>Node8</title>
<g id="a_node8"><a xlink:href="main_8cpp.html" target="_top" xlink:title=" ">
<polygon fill="white" stroke="#666666" points="690,-35.5 570,-35.5 570,-5.5 690,-5.5 690,-35.5"/>
<text text-anchor="start" x="578" y="-23.5" font-family="Helvetica,sans-Serif" font-size="10.00">firmware/wombat/src</text>
<text text-anchor="middle" x="630" y="-12.5" font-family="Helvetica,sans-Serif" font-size="10.00">/main.cpp</text>
</a>
</g>
</g>
<!-- Node1&#45;&gt;Node8 -->
<g id="edge24" class="edge">
<title>Node1&#45;&gt;Node8</title>
<path fill="none" stroke="#63b8ff" d="M872.34,-239.11C776.21,-231.3 621.82,-216 568,-195 512.75,-173.44 486.28,-170.67 459,-118 450.62,-101.82 448.29,-91.74 459,-77 462.78,-71.79 532.73,-50.24 581.97,-35.58"/>
<polygon fill="#63b8ff" stroke="#63b8ff" points="872.07,-242.6 882.32,-239.91 872.63,-235.62 872.07,-242.6"/>
</g>
<!-- Node9 -->
<g id="node9" class="node">
<title>Node9</title>
<g id="a_node9"><a xlink:href="mqtt__stack_8cpp.html" target="_top" xlink:title=" ">
<polygon fill="white" stroke="#666666" points="916,-35.5 796,-35.5 796,-5.5 916,-5.5 916,-35.5"/>
<text text-anchor="start" x="804" y="-23.5" font-family="Helvetica,sans-Serif" font-size="10.00">firmware/wombat/src</text>
<text text-anchor="middle" x="856" y="-12.5" font-family="Helvetica,sans-Serif" font-size="10.00">/mqtt_stack.cpp</text>
</a>
</g>
</g>
<!-- Node1&#45;&gt;Node9 -->
<g id="edge25" class="edge">
<title>Node1&#45;&gt;Node9</title>
<path fill="none" stroke="#63b8ff" d="M872.77,-233.54C850.42,-226.24 828.57,-214.35 815,-195 755.39,-110 920.71,-123.92 925,-118 935.7,-103.25 932.87,-93.43 925,-77 916.37,-58.98 898.71,-44.95 883.42,-35.5"/>
<polygon fill="#63b8ff" stroke="#63b8ff" points="871.78,-236.9 882.36,-236.4 873.77,-230.19 871.78,-236.9"/>
</g>
<!-- Node10 -->
<g id="node10" class="node">
<title>Node10</title>
<g id="a_node10"><a xlink:href="ftp__stack_8h.html" target="_top" xlink:title=" ">
<polygon fill="white" stroke="#666666" points="767.5,-189.5 626.5,-189.5 626.5,-159.5 767.5,-159.5 767.5,-189.5"/>
<text text-anchor="start" x="634.5" y="-177.5" font-family="Helvetica,sans-Serif" font-size="10.00">firmware/wombat/include</text>
<text text-anchor="middle" x="697" y="-166.5" font-family="Helvetica,sans-Serif" font-size="10.00">/ftp_stack.h</text>
</a>
</g>
</g>
<!-- Node1&#45;&gt;Node10 -->
<g id="edge11" class="edge">
<title>Node1&#45;&gt;Node10</title>
<path fill="none" stroke="#63b8ff" d="M891.28,-228.24C847.68,-216.41 789.91,-200.72 748.73,-189.54"/>
<polygon fill="#63b8ff" stroke="#63b8ff" points="890.63,-231.69 901.19,-230.94 892.46,-224.94 890.63,-231.69"/>
</g>
<!-- Node11 -->
<g id="node11" class="node">
<title>Node11</title>
<g id="a_node11"><a xlink:href="config__cli_8cpp.html" target="_top" xlink:title="Command line interface node configuration commands.">
<polygon fill="white" stroke="#666666" points="601.5,-118 468.5,-118 468.5,-77 601.5,-77 601.5,-118"/>
<text text-anchor="start" x="476.5" y="-106" font-family="Helvetica,sans-Serif" font-size="10.00">firmware/wombat/src</text>
<text text-anchor="start" x="476.5" y="-95" font-family="Helvetica,sans-Serif" font-size="10.00">/cli/device_config/config</text>
<text text-anchor="middle" x="535" y="-84" font-family="Helvetica,sans-Serif" font-size="10.00">_cli.cpp</text>
</a>
</g>
</g>
<!-- Node1&#45;&gt;Node11 -->
<g id="edge21" class="edge">
<title>Node1&#45;&gt;Node11</title>
<path fill="none" stroke="#63b8ff" d="M872,-239.5C786.88,-232.58 659.54,-218.63 617,-195 584.52,-176.96 559.19,-140.68 545.72,-118.11"/>
<polygon fill="#63b8ff" stroke="#63b8ff" points="871.92,-243 882.16,-240.31 872.47,-236.03 871.92,-243"/>
</g>
<!-- Node14 -->
<g id="node14" class="node">
<title>Node14</title>
<g id="a_node14"><a xlink:href="_c_a_t___m1_8cpp.html" target="_top" xlink:title=" ">
<polygon fill="white" stroke="#666666" points="944,-189.5 824,-189.5 824,-159.5 944,-159.5 944,-189.5"/>
<text text-anchor="start" x="832" y="-177.5" font-family="Helvetica,sans-Serif" font-size="10.00">firmware/wombat/src</text>
<text text-anchor="middle" x="884" y="-166.5" font-family="Helvetica,sans-Serif" font-size="10.00">/CAT_M1.cpp</text>
</a>
</g>
</g>
<!-- Node1&#45;&gt;Node14 -->
<g id="edge16" class="edge">
<title>Node1&#45;&gt;Node14</title>
<path fill="none" stroke="#63b8ff" d="M931.82,-223.67C920.81,-212.58 907.66,-199.34 897.94,-189.54"/>
<polygon fill="#63b8ff" stroke="#63b8ff" points="929.51,-226.3 939.04,-230.94 934.48,-221.37 929.51,-226.3"/>
</g>
<!-- Node15 -->
<g id="node15" class="node">
<title>Node15</title>
<g id="a_node15"><a xlink:href="_device_config_8cpp.html" target="_top" xlink:title=" ">
<polygon fill="white" stroke="#666666" points="1082,-189.5 962,-189.5 962,-159.5 1082,-159.5 1082,-189.5"/>
<text text-anchor="start" x="970" y="-177.5" font-family="Helvetica,sans-Serif" font-size="10.00">firmware/wombat/src</text>
<text text-anchor="middle" x="1022" y="-166.5" font-family="Helvetica,sans-Serif" font-size="10.00">/DeviceConfig.cpp</text>
</a>
</g>
</g>
<!-- Node1&#45;&gt;Node15 -->
<g id="edge17" class="edge">
<title>Node1&#45;&gt;Node15</title>
<path fill="none" stroke="#63b8ff" d="M974.18,-223.67C985.19,-212.58 998.34,-199.34 1008.06,-189.54"/>
<polygon fill="#63b8ff" stroke="#63b8ff" points="971.52,-221.37 966.96,-230.94 976.49,-226.3 971.52,-221.37"/>
</g>
<!-- Node16 -->
<g id="node16" class="node">
<title>Node16</title>
<g id="a_node16"><a xlink:href="_sensor_task_8cpp.html" target="_top" xlink:title=" ">
<polygon fill="white" stroke="#666666" points="1220,-189.5 1100,-189.5 1100,-159.5 1220,-159.5 1220,-189.5"/>
<text text-anchor="start" x="1108" y="-177.5" font-family="Helvetica,sans-Serif" font-size="10.00">firmware/wombat/src</text>
<text text-anchor="middle" x="1160" y="-166.5" font-family="Helvetica,sans-Serif" font-size="10.00">/SensorTask.cpp</text>
</a>
</g>
</g>
<!-- Node1&#45;&gt;Node16 -->
<g id="edge18" class="edge">
<title>Node1&#45;&gt;Node16</title>
<path fill="none" stroke="#63b8ff" d="M1004.47,-227.72C1039.54,-215.95 1085.36,-200.56 1118.17,-189.54"/>
<polygon fill="#63b8ff" stroke="#63b8ff" points="1003.26,-224.43 994.89,-230.94 1005.48,-231.07 1003.26,-224.43"/>
</g>
<!-- Node17 -->
<g id="node17" class="node">
<title>Node17</title>
<g id="a_node17"><a xlink:href="_utils_8cpp.html" target="_top" xlink:title="Global utility functions.">
<polygon fill="white" stroke="#666666" points="1358,-189.5 1238,-189.5 1238,-159.5 1358,-159.5 1358,-189.5"/>
<text text-anchor="start" x="1246" y="-177.5" font-family="Helvetica,sans-Serif" font-size="10.00">firmware/wombat/src</text>
<text text-anchor="middle" x="1298" y="-166.5" font-family="Helvetica,sans-Serif" font-size="10.00">/Utils.cpp</text>
</a>
</g>
</g>
<!-- Node1&#45;&gt;Node17 -->
<g id="edge19" class="edge">
<title>Node1&#45;&gt;Node17</title>
<path fill="none" stroke="#63b8ff" d="M1033.8,-232.47C1089.04,-223.38 1163.79,-210.08 1229,-195 1236.03,-193.37 1243.42,-191.48 1250.64,-189.53"/>
<polygon fill="#63b8ff" stroke="#63b8ff" points="1033.02,-229.05 1023.72,-234.11 1034.15,-235.96 1033.02,-229.05"/>
</g>
<!-- Node18 -->
<g id="node18" class="node">
<title>Node18</title>
<g id="a_node18"><a xlink:href="acquisition__intervals_8cpp.html" target="_top" xlink:title="Handles the time between measurements and uplinks by the device over LTE.">
<polygon fill="white" stroke="#666666" points="1533.5,-195 1376.5,-195 1376.5,-154 1533.5,-154 1533.5,-195"/>
<text text-anchor="start" x="1384.5" y="-183" font-family="Helvetica,sans-Serif" font-size="10.00">firmware/wombat/src</text>
<text text-anchor="start" x="1384.5" y="-172" font-family="Helvetica,sans-Serif" font-size="10.00">/cli/device_config/acquisition</text>
<text text-anchor="middle" x="1455" y="-161" font-family="Helvetica,sans-Serif" font-size="10.00">_intervals.cpp</text>
</a>
</g>
</g>
<!-- Node1&#45;&gt;Node18 -->
<g id="edge20" class="edge">
<title>Node1&#45;&gt;Node18</title>
<path fill="none" stroke="#63b8ff" d="M1033.83,-237.6C1117.52,-229.39 1251.91,-214.65 1367,-195 1370.09,-194.47 1373.23,-193.91 1376.39,-193.32"/>
<polygon fill="#63b8ff" stroke="#63b8ff" points="1033.24,-234.14 1023.63,-238.59 1033.92,-241.11 1033.24,-234.14"/>
</g>
<!-- Node19 -->
<g id="node19" class="node">
<title>Node19</title>
<g id="a_node19"><a xlink:href="ftp__stack_8cpp.html" target="_top" xlink:title=" ">
<polygon fill="white" stroke="#666666" points="1672,-189.5 1552,-189.5 1552,-159.5 1672,-159.5 1672,-189.5"/>
<text text-anchor="start" x="1560" y="-177.5" font-family="Helvetica,sans-Serif" font-size="10.00">firmware/wombat/src</text>
<text text-anchor="middle" x="1612" y="-166.5" font-family="Helvetica,sans-Serif" font-size="10.00">/ftp_stack.cpp</text>
</a>
</g>
</g>
<!-- Node1&#45;&gt;Node19 -->
<g id="edge23" class="edge">
<title>Node1&#45;&gt;Node19</title>
<path fill="none" stroke="#63b8ff" d="M1033.56,-243.03C1147.76,-239.15 1362.85,-227.78 1543,-195 1550.84,-193.57 1559.07,-191.64 1567.01,-189.55"/>
<polygon fill="#63b8ff" stroke="#63b8ff" points="1033.38,-239.54 1023.5,-243.37 1033.61,-246.53 1033.38,-239.54"/>
</g>
<!-- Node20 -->
<g id="node20" class="node">
<title>Node20</title>
<g id="a_node20"><a xlink:href="uplinks_8cpp.html" target="_top" xlink:title=" ">
<polygon fill="white" stroke="#666666" points="1810,-189.5 1690,-189.5 1690,-159.5 1810,-159.5 1810,-189.5"/>
<text text-anchor="start" x="1698" y="-177.5" font-family="Helvetica,sans-Serif" font-size="10.00">firmware/wombat/src</text>
<text text-anchor="middle" x="1750" y="-166.5" font-family="Helvetica,sans-Serif" font-size="10.00">/uplinks.cpp</text>
</a>
</g>
</g>
<!-- Node1&#45;&gt;Node20 -->
<g id="edge26" class="edge">
<title>Node1&#45;&gt;Node20</title>
<path fill="none" stroke="#63b8ff" d="M1033.86,-244.88C1168.91,-243.47 1448.5,-235.39 1681,-195 1688.97,-193.62 1697.34,-191.68 1705.4,-189.55"/>
<polygon fill="#63b8ff" stroke="#63b8ff" points="1033.57,-241.38 1023.6,-244.98 1033.63,-248.38 1033.57,-241.38"/>
</g>
<!-- Node21 -->
<g id="node21" class="node">
<title>Node21</title>
<g id="a_node21"><a xlink:href="test___utils_8cpp.html" target="_top" xlink:title=" ">
<polygon fill="white" stroke="#666666" points="1962,-189.5 1828,-189.5 1828,-159.5 1962,-159.5 1962,-189.5"/>
<text text-anchor="start" x="1836" y="-177.5" font-family="Helvetica,sans-Serif" font-size="10.00">firmware/wombat/test</text>
<text text-anchor="middle" x="1895" y="-166.5" font-family="Helvetica,sans-Serif" font-size="10.00">/test_utils/test_Utils.cpp</text>
</a>
</g>
</g>
<!-- Node1&#45;&gt;Node21 -->
<g id="edge27" class="edge">
<title>Node1&#45;&gt;Node21</title>
<path fill="none" stroke="#63b8ff" d="M1033.95,-245.53C1187.84,-245.38 1532.8,-239.55 1819,-195 1827.75,-193.64 1836.95,-191.71 1845.82,-189.59"/>
<polygon fill="#63b8ff" stroke="#63b8ff" points="1033.64,-242.03 1023.64,-245.53 1033.65,-249.03 1033.64,-242.03"/>
</g>
<!-- Node2&#45;&gt;Node2 -->
<g id="edge9" class="edge">
<title>Node2&#45;&gt;Node2</title>
<path fill="none" stroke="#63b8ff" d="M403.7,-183.59C408.57,-181.43 411.5,-178.4 411.5,-174.5 411.5,-168.42 404.37,-164.45 393.83,-162.59"/>
<polygon fill="#63b8ff" stroke="#63b8ff" points="402.48,-180.3 393.83,-186.41 404.4,-187.03 402.48,-180.3"/>
</g>
<!-- Node3 -->
<g id="node3" class="node">
<title>Node3</title>
<g id="a_node3"><a xlink:href="_c_l_i_8h.html" target="_top" xlink:title="FreeRTOS CLI handler.">
<polygon fill="white" stroke="#666666" points="411.5,-112.5 270.5,-112.5 270.5,-82.5 411.5,-82.5 411.5,-112.5"/>
<text text-anchor="start" x="278.5" y="-100.5" font-family="Helvetica,sans-Serif" font-size="10.00">firmware/wombat/include</text>
<text text-anchor="middle" x="341" y="-89.5" font-family="Helvetica,sans-Serif" font-size="10.00">/cli/CLI.h</text>
</a>
</g>
</g>
<!-- Node2&#45;&gt;Node3 -->
<g id="edge2" class="edge">
<title>Node2&#45;&gt;Node3</title>
<path fill="none" stroke="#63b8ff" d="M328.78,-149.41C331.7,-137.24 335.14,-122.9 337.63,-112.54"/>
<polygon fill="#63b8ff" stroke="#63b8ff" points="325.32,-148.85 326.39,-159.39 332.12,-150.49 325.32,-148.85"/>
</g>
<!-- Node7 -->
<g id="node7" class="node">
<title>Node7</title>
<g id="a_node7"><a xlink:href="sdi12_8cpp.html" target="_top" xlink:title="SDI&#45;12 command line interface handler.">
<polygon fill="white" stroke="#666666" points="276,-35.5 138,-35.5 138,-5.5 276,-5.5 276,-35.5"/>
<text text-anchor="start" x="146" y="-23.5" font-family="Helvetica,sans-Serif" font-size="10.00">firmware/wombat/src</text>
<text text-anchor="middle" x="207" y="-12.5" font-family="Helvetica,sans-Serif" font-size="10.00">/cli/peripherals/sdi12.cpp</text>
</a>
</g>
</g>
<!-- Node2&#45;&gt;Node7 -->
<g id="edge10" class="edge">
<title>Node2&#45;&gt;Node7</title>
<path fill="none" stroke="#63b8ff" d="M296.36,-153.01C284.66,-143.21 271.27,-130.83 261,-118 239.75,-91.48 222.07,-55.5 213.18,-35.82"/>
<polygon fill="#63b8ff" stroke="#63b8ff" points="294.18,-155.75 304.14,-159.36 298.6,-150.33 294.18,-155.75"/>
</g>
<!-- Node4 -->
<g id="node4" class="node">
<title>Node4</title>
<g id="a_node4"><a xlink:href="_c_l_i_8cpp.html" target="_top" xlink:title="FreeRTOS CLI handler.">
<polygon fill="white" stroke="#666666" points="552,-35.5 432,-35.5 432,-5.5 552,-5.5 552,-35.5"/>
<text text-anchor="start" x="440" y="-23.5" font-family="Helvetica,sans-Serif" font-size="10.00">firmware/wombat/src</text>
<text text-anchor="middle" x="492" y="-12.5" font-family="Helvetica,sans-Serif" font-size="10.00">/cli/CLI.cpp</text>
</a>
</g>
</g>
<!-- Node3&#45;&gt;Node4 -->
<g id="edge3" class="edge">
<title>Node3&#45;&gt;Node4</title>
<path fill="none" stroke="#63b8ff" d="M378.36,-77.94C404.77,-64.83 439.61,-47.52 463.73,-35.54"/>
<polygon fill="#63b8ff" stroke="#63b8ff" points="376.8,-74.81 369.4,-82.39 379.92,-81.08 376.8,-74.81"/>
</g>
<!-- Node3&#45;&gt;Node5 -->
<g id="edge4" class="edge">
<title>Node3&#45;&gt;Node5</title>
<path fill="none" stroke="#63b8ff" d="M276.19,-79.88C234.17,-69.02 178.28,-54.41 129,-41 126.12,-40.22 123.17,-39.41 120.19,-38.58"/>
<polygon fill="#63b8ff" stroke="#63b8ff" points="275.46,-83.31 286.02,-82.42 277.21,-76.53 275.46,-83.31"/>
</g>
<!-- Node6 -->
<g id="node6" class="node">
<title>Node6</title>
<g id="a_node6"><a xlink:href="sd__card_8cpp.html" target="_top" xlink:title=" ">
<polygon fill="white" stroke="#666666" points="414,-41 294,-41 294,0 414,0 414,-41"/>
<text text-anchor="start" x="302" y="-29" font-family="Helvetica,sans-Serif" font-size="10.00">firmware/wombat/src</text>
<text text-anchor="start" x="302" y="-18" font-family="Helvetica,sans-Serif" font-size="10.00">/cli/peripherals/sd</text>
<text text-anchor="middle" x="354" y="-7" font-family="Helvetica,sans-Serif" font-size="10.00">_card.cpp</text>
</a>
</g>
</g>
<!-- Node3&#45;&gt;Node6 -->
<g id="edge5" class="edge">
<title>Node3&#45;&gt;Node6</title>
<path fill="none" stroke="#63b8ff" d="M345.21,-72.23C346.95,-62.2 348.94,-50.71 350.58,-41.2"/>
<polygon fill="#63b8ff" stroke="#63b8ff" points="341.7,-71.94 343.45,-82.39 348.6,-73.14 341.7,-71.94"/>
</g>
<!-- Node3&#45;&gt;Node7 -->
<g id="edge6" class="edge">
<title>Node3&#45;&gt;Node7</title>
<path fill="none" stroke="#63b8ff" d="M306.92,-77.43C283.6,-64.38 253.21,-47.36 232.09,-35.54"/>
<polygon fill="#63b8ff" stroke="#63b8ff" points="305.36,-80.56 315.8,-82.39 308.78,-74.45 305.36,-80.56"/>
</g>
<!-- Node3&#45;&gt;Node8 -->
<g id="edge7" class="edge">
<title>Node3&#45;&gt;Node8</title>
<path fill="none" stroke="#63b8ff" d="M408.47,-80C452.07,-69.21 509.99,-54.64 561,-41 567.49,-39.26 574.32,-37.39 581.05,-35.52"/>
<polygon fill="#63b8ff" stroke="#63b8ff" points="407.42,-76.66 398.55,-82.45 409.1,-83.45 407.42,-76.66"/>
</g>
<!-- Node3&#45;&gt;Node9 -->
<g id="edge8" class="edge">
<title>Node3&#45;&gt;Node9</title>
<path fill="none" stroke="#63b8ff" d="M421.71,-82.89C434.19,-80.86 446.93,-78.84 459,-77 578.19,-58.82 717.88,-39.83 795.74,-29.45"/>
<polygon fill="#63b8ff" stroke="#63b8ff" points="421.08,-79.44 411.78,-84.51 422.21,-86.35 421.08,-79.44"/>
</g>
<!-- Node10&#45;&gt;Node8 -->
<g id="edge14" class="edge">
<title>Node10&#45;&gt;Node8</title>
<path fill="none" stroke="#63b8ff" d="M673.69,-151.93C664.67,-142.37 655.08,-130.47 649,-118 635.75,-90.84 631.74,-55.1 630.53,-35.64"/>
<polygon fill="#63b8ff" stroke="#63b8ff" points="671.21,-154.4 680.72,-159.07 676.19,-149.49 671.21,-154.4"/>
</g>
<!-- Node10&#45;&gt;Node11 -->
<g id="edge12" class="edge">
<title>Node10&#45;&gt;Node11</title>
<path fill="none" stroke="#63b8ff" d="M657.25,-155.1C632.98,-143.86 601.97,-129.5 577.25,-118.06"/>
<polygon fill="#63b8ff" stroke="#63b8ff" points="655.98,-158.37 666.53,-159.39 658.92,-152.02 655.98,-158.37"/>
</g>
<!-- Node12 -->
<g id="node12" class="node">
<title>Node12</title>
<g id="a_node12"><a xlink:href="ftp__cli_8cpp.html" target="_top" xlink:title="FTP setup and configuration through the CLI.">
<polygon fill="white" stroke="#666666" points="778,-118 658,-118 658,-77 778,-77 778,-118"/>
<text text-anchor="start" x="666" y="-106" font-family="Helvetica,sans-Serif" font-size="10.00">firmware/wombat/src</text>
<text text-anchor="start" x="666" y="-95" font-family="Helvetica,sans-Serif" font-size="10.00">/cli/device_config/ftp</text>
<text text-anchor="middle" x="718" y="-84" font-family="Helvetica,sans-Serif" font-size="10.00">_cli.cpp</text>
</a>
</g>
</g>
<!-- Node10&#45;&gt;Node12 -->
<g id="edge13" class="edge">
<title>Node10&#45;&gt;Node12</title>
<path fill="none" stroke="#63b8ff" d="M703.71,-149.55C706.54,-139.44 709.79,-127.81 712.48,-118.2"/>
<polygon fill="#63b8ff" stroke="#63b8ff" points="700.28,-148.82 700.95,-159.39 707.02,-150.71 700.28,-148.82"/>
</g>
<!-- Node13 -->
<g id="node13" class="node">
<title>Node13</title>
<g id="a_node13"><a xlink:href="ota__update_8cpp.html" target="_top" xlink:title=" ">
<polygon fill="white" stroke="#666666" points="916,-112.5 796,-112.5 796,-82.5 916,-82.5 916,-112.5"/>
<text text-anchor="start" x="804" y="-100.5" font-family="Helvetica,sans-Serif" font-size="10.00">firmware/wombat/src</text>
<text text-anchor="middle" x="856" y="-89.5" font-family="Helvetica,sans-Serif" font-size="10.00">/ota_update.cpp</text>
</a>
</g>
</g>
<!-- Node10&#45;&gt;Node13 -->
<g id="edge15" class="edge">
<title>Node10&#45;&gt;Node13</title>
<path fill="none" stroke="#63b8ff" d="M735.97,-155.12C763.82,-141.98 800.73,-124.57 826.23,-112.54"/>
<polygon fill="#63b8ff" stroke="#63b8ff" points="734.46,-151.96 726.91,-159.39 737.44,-158.29 734.46,-151.96"/>
</g>
</g>
</svg>
