<?xml version="1.0" encoding="UTF-8" standalone="no"?>
<!DOCTYPE svg PUBLIC "-//W3C//DTD SVG 1.1//EN"
 "http://www.w3.org/Graphics/SVG/1.1/DTD/svg11.dtd">
<!-- Generated by graphviz version 2.43.0 (0)
 -->
<!-- Title: firmware/wombat/include/Utils.h Pages: 1 -->
<svg width="1993pt" height="390pt"
 viewBox="0.00 0.00 1993.00 390.00" xmlns="http://www.w3.org/2000/svg" xmlns:xlink="http://www.w3.org/1999/xlink">
<g id="graph0" class="graph" transform="scale(1 1) rotate(0) translate(4 386)">
<title>firmware/wombat/include/Utils.h</title>
<!-- Node1 -->
<g id="node1" class="node">
<title>Node1</title>
<g id="a_node1"><a xlink:title=" ">
<polygon fill="#999999" stroke="#666666" points="1240.5,-382 1099.5,-382 1099.5,-352 1240.5,-352 1240.5,-382"/>
<text text-anchor="start" x="1107.5" y="-370" font-family="Helvetica,sans-Serif" font-size="10.00">firmware/wombat/include</text>
<text text-anchor="middle" x="1170" y="-359" font-family="Helvetica,sans-Serif" font-size="10.00">/Utils.h</text>
</a>
</g>
</g>
<!-- Node2 -->
<g id="node2" class="node">
<title>Node2</title>
<g id="a_node2"><a xlink:href="sdi12_8h.html" target="_top" xlink:title="SDI&#45;12 command line interface handler.">
<polygon fill="white" stroke="#666666" points="759.5,-310.5 618.5,-310.5 618.5,-280.5 759.5,-280.5 759.5,-310.5"/>
<text text-anchor="start" x="626.5" y="-298.5" font-family="Helvetica,sans-Serif" font-size="10.00">firmware/wombat/include</text>
<text text-anchor="middle" x="689" y="-287.5" font-family="Helvetica,sans-Serif" font-size="10.00">/cli/peripherals/sdi12.h</text>
</a>
</g>
</g>
<!-- Node1&#45;&gt;Node2 -->
<g id="edge1" class="edge">
<title>Node1&#45;&gt;Node2</title>
<path fill="none" stroke="#63b8ff" d="M1089.4,-356.66C1012.74,-347.46 894.27,-332.43 792,-316 781.49,-314.31 770.4,-312.38 759.55,-310.39"/>
<polygon fill="#63b8ff" stroke="#63b8ff" points="1089.12,-360.15 1099.47,-357.86 1089.95,-353.2 1089.12,-360.15"/>
</g>
<!-- Node9 -->
<g id="node9" class="node">
<title>Node9</title>
<g id="a_node9"><a xlink:href="cat-m1_8cpp.html" target="_top" xlink:title="CAT&#45;M1 CLI command request and response handler.">
<polygon fill="white" stroke="#666666" points="120,-173 0,-173 0,-132 120,-132 120,-173"/>
<text text-anchor="start" x="8" y="-161" font-family="Helvetica,sans-Serif" font-size="10.00">firmware/wombat/src</text>
<text text-anchor="start" x="8" y="-150" font-family="Helvetica,sans-Serif" font-size="10.00">/cli/peripherals/cat</text>
<text text-anchor="middle" x="60" y="-139" font-family="Helvetica,sans-Serif" font-size="10.00">&#45;m1.cpp</text>
</a>
</g>
</g>
<!-- Node1&#45;&gt;Node9 -->
<g id="edge22" class="edge">
<title>Node1&#45;&gt;Node9</title>
<path fill="none" stroke="#63b8ff" d="M1089.09,-363.83C979.42,-359.75 777.89,-348.19 609,-316 422.99,-280.55 209.81,-207.87 112.9,-173.01"/>
<polygon fill="#63b8ff" stroke="#63b8ff" points="1089.29,-367.34 1099.41,-364.2 1089.55,-360.34 1089.29,-367.34"/>
</g>
<!-- Node13 -->
<g id="node13" class="node">
<title>Node13</title>
<g id="a_node13"><a xlink:href="mqtt__stack_8cpp.html" target="_top" xlink:title=" ">
<polygon fill="white" stroke="#666666" points="988,-167.5 868,-167.5 868,-137.5 988,-137.5 988,-167.5"/>
<text text-anchor="start" x="876" y="-155.5" font-family="Helvetica,sans-Serif" font-size="10.00">firmware/wombat/src</text>
<text text-anchor="middle" x="928" y="-144.5" font-family="Helvetica,sans-Serif" font-size="10.00">/mqtt_stack.cpp</text>
</a>
</g>
</g>
<!-- Node1&#45;&gt;Node13 -->
<g id="edge23" class="edge">
<title>Node1&#45;&gt;Node13</title>
<path fill="none" stroke="#63b8ff" d="M1089.4,-366C998.36,-364.09 858.5,-354.7 825,-316 782.05,-266.37 865.72,-197.19 906.93,-167.71"/>
<polygon fill="#63b8ff" stroke="#63b8ff" points="1089.36,-369.5 1099.42,-366.19 1089.49,-362.51 1089.36,-369.5"/>
</g>
<!-- Node14 -->
<g id="node14" class="node">
<title>Node14</title>
<g id="a_node14"><a xlink:href="_c_a_t___m1_8cpp.html" target="_top" xlink:title=" ">
<polygon fill="white" stroke="#666666" points="954,-310.5 834,-310.5 834,-280.5 954,-280.5 954,-310.5"/>
<text text-anchor="start" x="842" y="-298.5" font-family="Helvetica,sans-Serif" font-size="10.00">firmware/wombat/src</text>
<text text-anchor="middle" x="894" y="-287.5" font-family="Helvetica,sans-Serif" font-size="10.00">/CAT_M1.cpp</text>
</a>
</g>
</g>
<!-- Node1&#45;&gt;Node14 -->
<g id="edge16" class="edge">
<title>Node1&#45;&gt;Node14</title>
<path fill="none" stroke="#63b8ff" d="M1099.22,-349.61C1059.15,-340.16 1008.17,-327.83 963,-316 956.5,-314.3 949.67,-312.44 942.94,-310.58"/>
<polygon fill="#63b8ff" stroke="#63b8ff" points="1098.62,-353.07 1109.16,-351.95 1100.23,-346.26 1098.62,-353.07"/>
</g>
<!-- Node15 -->
<g id="node15" class="node">
<title>Node15</title>
<g id="a_node15"><a xlink:href="_device_config_8cpp.html" target="_top" xlink:title=" ">
<polygon fill="white" stroke="#666666" points="1092,-310.5 972,-310.5 972,-280.5 1092,-280.5 1092,-310.5"/>
<text text-anchor="start" x="980" y="-298.5" font-family="Helvetica,sans-Serif" font-size="10.00">firmware/wombat/src</text>
<text text-anchor="middle" x="1032" y="-287.5" font-family="Helvetica,sans-Serif" font-size="10.00">/DeviceConfig.cpp</text>
</a>
</g>
</g>
<!-- Node1&#45;&gt;Node15 -->
<g id="edge17" class="edge">
<title>Node1&#45;&gt;Node15</title>
<path fill="none" stroke="#63b8ff" d="M1132.96,-347.34C1109.97,-335.77 1080.92,-321.14 1059.88,-310.54"/>
<polygon fill="#63b8ff" stroke="#63b8ff" points="1131.57,-350.56 1142.07,-351.94 1134.72,-344.31 1131.57,-350.56"/>
</g>
<!-- Node16 -->
<g id="node16" class="node">
<title>Node16</title>
<g id="a_node16"><a xlink:href="_sensor_task_8cpp.html" target="_top" xlink:title=" ">
<polygon fill="white" stroke="#666666" points="1230,-310.5 1110,-310.5 1110,-280.5 1230,-280.5 1230,-310.5"/>
<text text-anchor="start" x="1118" y="-298.5" font-family="Helvetica,sans-Serif" font-size="10.00">firmware/wombat/src</text>
<text text-anchor="middle" x="1170" y="-287.5" font-family="Helvetica,sans-Serif" font-size="10.00">/SensorTask.cpp</text>
</a>
</g>
</g>
<!-- Node1&#45;&gt;Node16 -->
<g id="edge18" class="edge">
<title>Node1&#45;&gt;Node16</title>
<path fill="none" stroke="#63b8ff" d="M1170,-341.75C1170,-331.31 1170,-319.49 1170,-310.54"/>
<polygon fill="#63b8ff" stroke="#63b8ff" points="1166.5,-341.94 1170,-351.94 1173.5,-341.94 1166.5,-341.94"/>
</g>
<!-- Node17 -->
<g id="node17" class="node">
<title>Node17</title>
<g id="a_node17"><a xlink:href="_utils_8cpp.html" target="_top" xlink:title="Global utility functions.">
<polygon fill="white" stroke="#666666" points="1368,-310.5 1248,-310.5 1248,-280.5 1368,-280.5 1368,-310.5"/>
<text text-anchor="start" x="1256" y="-298.5" font-family="Helvetica,sans-Serif" font-size="10.00">firmware/wombat/src</text>
<text text-anchor="middle" x="1308" y="-287.5" font-family="Helvetica,sans-Serif" font-size="10.00">/Utils.cpp</text>
</a>
</g>
</g>
<!-- Node1&#45;&gt;Node17 -->
<g id="edge19" class="edge">
<title>Node1&#45;&gt;Node17</title>
<path fill="none" stroke="#63b8ff" d="M1207.04,-347.34C1230.03,-335.77 1259.08,-321.14 1280.12,-310.54"/>
<polygon fill="#63b8ff" stroke="#63b8ff" points="1205.28,-344.31 1197.93,-351.94 1208.43,-350.56 1205.28,-344.31"/>
</g>
<!-- Node18 -->
<g id="node18" class="node">
<title>Node18</title>
<g id="a_node18"><a xlink:href="acquisition__intervals_8cpp.html" target="_top" xlink:title="Handles the time between measurements and uplinks by the device over LTE.">
<polygon fill="white" stroke="#666666" points="1543.5,-316 1386.5,-316 1386.5,-275 1543.5,-275 1543.5,-316"/>
<text text-anchor="start" x="1394.5" y="-304" font-family="Helvetica,sans-Serif" font-size="10.00">firmware/wombat/src</text>
<text text-anchor="start" x="1394.5" y="-293" font-family="Helvetica,sans-Serif" font-size="10.00">/cli/device_config/acquisition</text>
<text text-anchor="middle" x="1465" y="-282" font-family="Helvetica,sans-Serif" font-size="10.00">_intervals.cpp</text>
</a>
</g>
</g>
<!-- Node1&#45;&gt;Node18 -->
<g id="edge20" class="edge">
<title>Node1&#45;&gt;Node18</title>
<path fill="none" stroke="#63b8ff" d="M1239.46,-349.64C1283.52,-339.26 1340.63,-325.8 1386.36,-315.03"/>
<polygon fill="#63b8ff" stroke="#63b8ff" points="1238.63,-346.24 1229.7,-351.94 1240.23,-353.05 1238.63,-346.24"/>
</g>
<!-- Node19 -->
<g id="node19" class="node">
<title>Node19</title>
<g id="a_node19"><a xlink:href="config__cli_8cpp.html" target="_top" xlink:title="Command line interface node configuration commands.">
<polygon fill="white" stroke="#666666" points="1694.5,-316 1561.5,-316 1561.5,-275 1694.5,-275 1694.5,-316"/>
<text text-anchor="start" x="1569.5" y="-304" font-family="Helvetica,sans-Serif" font-size="10.00">firmware/wombat/src</text>
<text text-anchor="start" x="1569.5" y="-293" font-family="Helvetica,sans-Serif" font-size="10.00">/cli/device_config/config</text>
<text text-anchor="middle" x="1628" y="-282" font-family="Helvetica,sans-Serif" font-size="10.00">_cli.cpp</text>
</a>
</g>
</g>
<!-- Node1&#45;&gt;Node19 -->
<g id="edge21" class="edge">
<title>Node1&#45;&gt;Node19</title>
<path fill="none" stroke="#63b8ff" d="M1250.88,-358.4C1328.72,-350.39 1449.53,-336.12 1553,-316 1555.77,-315.46 1558.6,-314.88 1561.44,-314.26"/>
<polygon fill="#63b8ff" stroke="#63b8ff" points="1250.26,-354.94 1240.66,-359.44 1250.97,-361.91 1250.26,-354.94"/>
</g>
<!-- Node20 -->
<g id="node20" class="node">
<title>Node20</title>
<g id="a_node20"><a xlink:href="uplinks_8cpp.html" target="_top" xlink:title=" ">
<polygon fill="white" stroke="#666666" points="1833,-310.5 1713,-310.5 1713,-280.5 1833,-280.5 1833,-310.5"/>
<text text-anchor="start" x="1721" y="-298.5" font-family="Helvetica,sans-Serif" font-size="10.00">firmware/wombat/src</text>
<text text-anchor="middle" x="1773" y="-287.5" font-family="Helvetica,sans-Serif" font-size="10.00">/uplinks.cpp</text>
</a>
</g>
</g>
<!-- Node1&#45;&gt;Node20 -->
<g id="edge24" class="edge">
<title>Node1&#45;&gt;Node20</title>
<path fill="none" stroke="#63b8ff" d="M1250.76,-363.02C1355.89,-358.09 1544.99,-345.66 1704,-316 1711.71,-314.56 1719.8,-312.65 1727.63,-310.59"/>
<polygon fill="#63b8ff" stroke="#63b8ff" points="1250.37,-359.53 1240.54,-363.48 1250.69,-366.52 1250.37,-359.53"/>
</g>
<!-- Node21 -->
<g id="node21" class="node">
<title>Node21</title>
<g id="a_node21"><a xlink:href="test___utils_8cpp.html" target="_top" xlink:title=" ">
<polygon fill="white" stroke="#666666" points="1985,-310.5 1851,-310.5 1851,-280.5 1985,-280.5 1985,-310.5"/>
<text text-anchor="start" x="1859" y="-298.5" font-family="Helvetica,sans-Serif" font-size="10.00">firmware/wombat/test</text>
<text text-anchor="middle" x="1918" y="-287.5" font-family="Helvetica,sans-Serif" font-size="10.00">/test_utils/test_Utils.cpp</text>
</a>
</g>
</g>
<!-- Node1&#45;&gt;Node21 -->
<g id="edge25" class="edge">
<title>Node1&#45;&gt;Node21</title>
<path fill="none" stroke="#63b8ff" d="M1250.63,-364.6C1377.33,-361.36 1630.41,-350.74 1842,-316 1850.6,-314.59 1859.65,-312.66 1868.39,-310.57"/>
<polygon fill="#63b8ff" stroke="#63b8ff" points="1250.53,-361.1 1240.62,-364.84 1250.71,-368.1 1250.53,-361.1"/>
</g>
<!-- Node2&#45;&gt;Node2 -->
<g id="edge14" class="edge">
<title>Node2&#45;&gt;Node2</title>
<path fill="none" stroke="#63b8ff" d="M769.7,-304.59C774.57,-302.43 777.5,-299.4 777.5,-295.5 777.5,-289.42 770.37,-285.45 759.83,-283.59"/>
<polygon fill="#63b8ff" stroke="#63b8ff" points="768.48,-301.3 759.83,-307.41 770.4,-308.03 768.48,-301.3"/>
</g>
<!-- Node3 -->
<g id="node3" class="node">
<title>Node3</title>
<g id="a_node3"><a xlink:href="_c_l_i_8h.html" target="_top" xlink:title="FreeRTOS CLI handler.">
<polygon fill="white" stroke="#666666" points="596.5,-239 455.5,-239 455.5,-209 596.5,-209 596.5,-239"/>
<text text-anchor="start" x="463.5" y="-227" font-family="Helvetica,sans-Serif" font-size="10.00">firmware/wombat/include</text>
<text text-anchor="middle" x="526" y="-216" font-family="Helvetica,sans-Serif" font-size="10.00">/cli/CLI.h</text>
</a>
</g>
</g>
<!-- Node2&#45;&gt;Node3 -->
<g id="edge2" class="edge">
<title>Node2&#45;&gt;Node3</title>
<path fill="none" stroke="#63b8ff" d="M646.69,-276.46C619.32,-264.79 584.22,-249.82 558.94,-239.04"/>
<polygon fill="#63b8ff" stroke="#63b8ff" points="645.44,-279.73 656.01,-280.44 648.19,-273.29 645.44,-279.73"/>
</g>
<!-- Node11 -->
<g id="node11" class="node">
<title>Node11</title>
<g id="a_node11"><a xlink:href="sdi12_8cpp.html" target="_top" xlink:title="SDI&#45;12 command line interface handler.">
<polygon fill="white" stroke="#666666" points="850,-167.5 712,-167.5 712,-137.5 850,-137.5 850,-167.5"/>
<text text-anchor="start" x="720" y="-155.5" font-family="Helvetica,sans-Serif" font-size="10.00">firmware/wombat/src</text>
<text text-anchor="middle" x="781" y="-144.5" font-family="Helvetica,sans-Serif" font-size="10.00">/cli/peripherals/sdi12.cpp</text>
</a>
</g>
</g>
<!-- Node2&#45;&gt;Node11 -->
<g id="edge15" class="edge">
<title>Node2&#45;&gt;Node11</title>
<path fill="none" stroke="#63b8ff" d="M703.85,-271.74C722.96,-242.45 755.61,-192.41 771.61,-167.9"/>
<polygon fill="#63b8ff" stroke="#63b8ff" points="700.69,-270.18 698.16,-280.46 706.55,-274 700.69,-270.18"/>
</g>
<!-- Node4 -->
<g id="node4" class="node">
<title>Node4</title>
<g id="a_node4"><a xlink:href="server_8h.html" target="_top" xlink:title="Handle the setup and maintenance of the BLE server and connected clients.">
<polygon fill="white" stroke="#666666" points="693.5,-167.5 552.5,-167.5 552.5,-137.5 693.5,-137.5 693.5,-167.5"/>
<text text-anchor="start" x="560.5" y="-155.5" font-family="Helvetica,sans-Serif" font-size="10.00">firmware/wombat/include</text>
<text text-anchor="middle" x="623" y="-144.5" font-family="Helvetica,sans-Serif" font-size="10.00">/bluetooth/server.h</text>
</a>
</g>
</g>
<!-- Node3&#45;&gt;Node4 -->
<g id="edge3" class="edge">
<title>Node3&#45;&gt;Node4</title>
<path fill="none" stroke="#63b8ff" d="M554,-202.94C569.82,-191.6 589.21,-177.71 603.4,-167.54"/>
<polygon fill="#63b8ff" stroke="#63b8ff" points="551.72,-200.27 545.63,-208.94 555.8,-205.96 551.72,-200.27"/>
</g>
<!-- Node8 -->
<g id="node8" class="node">
<title>Node8</title>
<g id="a_node8"><a xlink:href="_c_l_i_8cpp.html" target="_top" xlink:title="FreeRTOS CLI handler.">
<polygon fill="white" stroke="#666666" points="258,-167.5 138,-167.5 138,-137.5 258,-137.5 258,-167.5"/>
<text text-anchor="start" x="146" y="-155.5" font-family="Helvetica,sans-Serif" font-size="10.00">firmware/wombat/src</text>
<text text-anchor="middle" x="198" y="-144.5" font-family="Helvetica,sans-Serif" font-size="10.00">/cli/CLI.cpp</text>
</a>
</g>
</g>
<!-- Node3&#45;&gt;Node8 -->
<g id="edge8" class="edge">
<title>Node3&#45;&gt;Node8</title>
<path fill="none" stroke="#63b8ff" d="M445.27,-209.23C393.98,-200.04 326.32,-187.08 267,-173 260.1,-171.36 252.85,-169.49 245.75,-167.56"/>
<polygon fill="#63b8ff" stroke="#63b8ff" points="444.84,-212.71 455.3,-211.02 446.07,-205.82 444.84,-212.71"/>
</g>
<!-- Node3&#45;&gt;Node9 -->
<g id="edge9" class="edge">
<title>Node3&#45;&gt;Node9</title>
<path fill="none" stroke="#63b8ff" d="M445.11,-216.4C364.48,-208.98 237.38,-195.01 129,-173 126.07,-172.41 123.09,-171.75 120.08,-171.05"/>
<polygon fill="#63b8ff" stroke="#63b8ff" points="444.92,-219.9 455.2,-217.32 445.56,-212.93 444.92,-219.9"/>
</g>
<!-- Node10 -->
<g id="node10" class="node">
<title>Node10</title>
<g id="a_node10"><a xlink:href="sd__card_8cpp.html" target="_top" xlink:title=" ">
<polygon fill="white" stroke="#666666" points="396,-173 276,-173 276,-132 396,-132 396,-173"/>
<text text-anchor="start" x="284" y="-161" font-family="Helvetica,sans-Serif" font-size="10.00">firmware/wombat/src</text>
<text text-anchor="start" x="284" y="-150" font-family="Helvetica,sans-Serif" font-size="10.00">/cli/peripherals/sd</text>
<text text-anchor="middle" x="336" y="-139" font-family="Helvetica,sans-Serif" font-size="10.00">_card.cpp</text>
</a>
</g>
</g>
<!-- Node3&#45;&gt;Node10 -->
<g id="edge10" class="edge">
<title>Node3&#45;&gt;Node10</title>
<path fill="none" stroke="#63b8ff" d="M477.95,-205.42C450.99,-195.56 417.3,-183.24 389.51,-173.07"/>
<polygon fill="#63b8ff" stroke="#63b8ff" points="476.96,-208.79 487.55,-208.94 479.36,-202.21 476.96,-208.79"/>
</g>
<!-- Node3&#45;&gt;Node11 -->
<g id="edge11" class="edge">
<title>Node3&#45;&gt;Node11</title>
<path fill="none" stroke="#63b8ff" d="M587.48,-206.24C630.91,-194.41 688.45,-178.72 729.47,-167.54"/>
<polygon fill="#63b8ff" stroke="#63b8ff" points="586.33,-202.93 577.6,-208.94 588.17,-209.68 586.33,-202.93"/>
</g>
<!-- Node12 -->
<g id="node12" class="node">
<title>Node12</title>
<g id="a_node12"><a xlink:href="main_8cpp.html" target="_top" xlink:title=" ">
<polygon fill="white" stroke="#666666" points="534,-167.5 414,-167.5 414,-137.5 534,-137.5 534,-167.5"/>
<text text-anchor="start" x="422" y="-155.5" font-family="Helvetica,sans-Serif" font-size="10.00">firmware/wombat/src</text>
<text text-anchor="middle" x="474" y="-144.5" font-family="Helvetica,sans-Serif" font-size="10.00">/main.cpp</text>
</a>
</g>
</g>
<!-- Node3&#45;&gt;Node12 -->
<g id="edge12" class="edge">
<title>Node3&#45;&gt;Node12</title>
<path fill="none" stroke="#63b8ff" d="M509.32,-200.71C501.17,-189.82 491.62,-177.05 484.51,-167.54"/>
<polygon fill="#63b8ff" stroke="#63b8ff" points="506.68,-203.03 515.48,-208.94 512.29,-198.83 506.68,-203.03"/>
</g>
<!-- Node3&#45;&gt;Node13 -->
<g id="edge13" class="edge">
<title>Node3&#45;&gt;Node13</title>
<path fill="none" stroke="#63b8ff" d="M606.81,-213.77C674.57,-205.34 773.66,-191.39 859,-173 866.3,-171.43 873.97,-169.52 881.43,-167.52"/>
<polygon fill="#63b8ff" stroke="#63b8ff" points="606.13,-210.33 596.63,-215.02 606.98,-217.28 606.13,-210.33"/>
</g>
<!-- Node5 -->
<g id="node5" class="node">
<title>Node5</title>
<g id="a_node5"><a xlink:href="uart_8h.html" target="_top" xlink:title="BluetoothLE UART service setup and handling.">
<polygon fill="white" stroke="#666666" points="693.5,-96 552.5,-96 552.5,-66 693.5,-66 693.5,-96"/>
<text text-anchor="start" x="560.5" y="-84" font-family="Helvetica,sans-Serif" font-size="10.00">firmware/wombat/include</text>
<text text-anchor="middle" x="623" y="-73" font-family="Helvetica,sans-Serif" font-size="10.00">/bluetooth/uart.h</text>
</a>
</g>
</g>
<!-- Node4&#45;&gt;Node5 -->
<g id="edge4" class="edge">
<title>Node4&#45;&gt;Node5</title>
<path fill="none" stroke="#63b8ff" d="M616.53,-127.25C615.96,-116.81 616.26,-104.99 617.45,-96.04"/>
<polygon fill="#63b8ff" stroke="#63b8ff" points="613.07,-127.79 617.45,-137.44 620.04,-127.16 613.07,-127.79"/>
</g>
<!-- Node7 -->
<g id="node7" class="node">
<title>Node7</title>
<g id="a_node7"><a xlink:href="server_8cpp.html" target="_top" xlink:title="Setup and start BluetoothLE server.">
<polygon fill="white" stroke="#666666" points="832,-96 712,-96 712,-66 832,-66 832,-96"/>
<text text-anchor="start" x="720" y="-84" font-family="Helvetica,sans-Serif" font-size="10.00">firmware/wombat/src</text>
<text text-anchor="middle" x="772" y="-73" font-family="Helvetica,sans-Serif" font-size="10.00">/bluetooth/server.cpp</text>
</a>
</g>
</g>
<!-- Node4&#45;&gt;Node7 -->
<g id="edge7" class="edge">
<title>Node4&#45;&gt;Node7</title>
<path fill="none" stroke="#63b8ff" d="M662.34,-133.15C687.25,-121.53 718.98,-106.73 741.89,-96.04"/>
<polygon fill="#63b8ff" stroke="#63b8ff" points="660.74,-130.04 653.15,-137.44 663.69,-136.38 660.74,-130.04"/>
</g>
<!-- Node5&#45;&gt;Node4 -->
<g id="edge5" class="edge">
<title>Node5&#45;&gt;Node4</title>
<path fill="none" stroke="#63b8ff" d="M629.47,-106.23C630.04,-116.66 629.74,-128.49 628.55,-137.44"/>
<polygon fill="#63b8ff" stroke="#63b8ff" points="632.93,-105.69 628.55,-96.04 625.96,-106.32 632.93,-105.69"/>
</g>
<!-- Node6 -->
<g id="node6" class="node">
<title>Node6</title>
<g id="a_node6"><a xlink:href="uart_8cpp.html" target="_top" xlink:title="BluetoothLE UART service setup and handling.">
<polygon fill="white" stroke="#666666" points="683,-30 563,-30 563,0 683,0 683,-30"/>
<text text-anchor="start" x="571" y="-18" font-family="Helvetica,sans-Serif" font-size="10.00">firmware/wombat/src</text>
<text text-anchor="middle" x="623" y="-7" font-family="Helvetica,sans-Serif" font-size="10.00">/bluetooth/uart.cpp</text>
</a>
</g>
</g>
<!-- Node5&#45;&gt;Node6 -->
<g id="edge6" class="edge">
<title>Node5&#45;&gt;Node6</title>
<path fill="none" stroke="#63b8ff" d="M623,-55.54C623,-46.96 623,-37.61 623,-30.16"/>
<polygon fill="#63b8ff" stroke="#63b8ff" points="619.5,-55.8 623,-65.8 626.5,-55.8 619.5,-55.8"/>
</g>
</g>
</svg>
