<?xml version="1.0" encoding="UTF-8" standalone="no"?>
<!DOCTYPE svg PUBLIC "-//W3C//DTD SVG 1.1//EN"
 "http://www.w3.org/Graphics/SVG/1.1/DTD/svg11.dtd">
<!-- Generated by graphviz version 2.43.0 (0)
 -->
<!-- Title: firmware/wombat/src/Utils.cpp Pages: 1 -->
<svg width="624pt" height="269pt"
 viewBox="0.00 0.00 624.36 269.00" xmlns="http://www.w3.org/2000/svg" xmlns:xlink="http://www.w3.org/1999/xlink">
<g id="graph0" class="graph" transform="scale(1 1) rotate(0) translate(4 265)">
<title>firmware/wombat/src/Utils.cpp</title>
<!-- Node1 -->
<g id="node1" class="node">
<title>Node1</title>
<g id="a_node1"><a xlink:title="Global utility functions.">
<polygon fill="#999999" stroke="#666666" points="361.36,-261 241.36,-261 241.36,-231 361.36,-231 361.36,-261"/>
<text text-anchor="start" x="249.36" y="-249" font-family="Helvetica,sans-Serif" font-size="10.00">firmware/wombat/src</text>
<text text-anchor="middle" x="301.36" y="-238" font-family="Helvetica,sans-Serif" font-size="10.00">/Utils.cpp</text>
</a>
</g>
</g>
<!-- Node2 -->
<g id="node2" class="node">
<title>Node2</title>
<g id="a_node2"><a xlink:title=" ">
<polygon fill="#e0e0e0" stroke="#999999" points="349.86,-19 286.86,-19 286.86,0 349.86,0 349.86,-19"/>
<text text-anchor="middle" x="318.36" y="-7" font-family="Helvetica,sans-Serif" font-size="10.00">Arduino.h</text>
</a>
</g>
</g>
<!-- Node1&#45;&gt;Node2 -->
<g id="edge1" class="edge">
<title>Node1&#45;&gt;Node2</title>
<path fill="none" stroke="#63b8ff" d="M241.31,-239.68C139.67,-228.26 -49.48,-195.13 12.36,-110 73.56,-25.74 207.91,-11.43 276.41,-9.88"/>
<polygon fill="#63b8ff" stroke="#63b8ff" points="276.47,-13.38 286.41,-9.74 276.36,-6.38 276.47,-13.38"/>
</g>
<!-- Node3 -->
<g id="node3" class="node">
<title>Node3</title>
<g id="a_node3"><a xlink:href="_utils_8h.html" target="_top" xlink:title=" ">
<polygon fill="white" stroke="#666666" points="166.36,-195 118.36,-195 118.36,-176 166.36,-176 166.36,-195"/>
<text text-anchor="middle" x="142.36" y="-183" font-family="Helvetica,sans-Serif" font-size="10.00">Utils.h</text>
</a>
</g>
</g>
<!-- Node1&#45;&gt;Node3 -->
<g id="edge2" class="edge">
<title>Node1&#45;&gt;Node3</title>
<path fill="none" stroke="#63b8ff" d="M263.27,-230.99C236.51,-221.14 201.05,-208.1 175.47,-198.68"/>
<polygon fill="#63b8ff" stroke="#63b8ff" points="176.43,-195.31 165.84,-195.14 174.02,-201.88 176.43,-195.31"/>
</g>
<!-- Node7 -->
<g id="node7" class="node">
<title>Node7</title>
<g id="a_node7"><a xlink:title=" ">
<polygon fill="#e0e0e0" stroke="#999999" points="237.86,-195 184.86,-195 184.86,-176 237.86,-176 237.86,-195"/>
<text text-anchor="middle" x="211.36" y="-183" font-family="Helvetica,sans-Serif" font-size="10.00">string.h</text>
</a>
</g>
</g>
<!-- Node1&#45;&gt;Node7 -->
<g id="edge6" class="edge">
<title>Node1&#45;&gt;Node7</title>
<path fill="none" stroke="#63b8ff" d="M279.57,-230.84C265.49,-221.68 247.23,-209.82 233.15,-200.66"/>
<polygon fill="#63b8ff" stroke="#63b8ff" points="234.87,-197.61 224.58,-195.09 231.06,-203.48 234.87,-197.61"/>
</g>
<!-- Node8 -->
<g id="node8" class="node">
<title>Node8</title>
<g id="a_node8"><a xlink:href="_device_config_8h.html" target="_top" xlink:title="Node configuration options.">
<polygon fill="white" stroke="#666666" points="346.36,-195 256.36,-195 256.36,-176 346.36,-176 346.36,-195"/>
<text text-anchor="middle" x="301.36" y="-183" font-family="Helvetica,sans-Serif" font-size="10.00">DeviceConfig.h</text>
</a>
</g>
</g>
<!-- Node1&#45;&gt;Node8 -->
<g id="edge7" class="edge">
<title>Node1&#45;&gt;Node8</title>
<path fill="none" stroke="#63b8ff" d="M301.36,-230.84C301.36,-223.21 301.36,-213.7 301.36,-205.45"/>
<polygon fill="#63b8ff" stroke="#63b8ff" points="304.86,-205.27 301.36,-195.27 297.86,-205.27 304.86,-205.27"/>
</g>
<!-- Node9 -->
<g id="node9" class="node">
<title>Node9</title>
<g id="a_node9"><a xlink:href="_t_c_a9534_8h.html" target="_top" xlink:title=" ">
<polygon fill="white" stroke="#666666" points="414.36,-74 346.36,-74 346.36,-55 414.36,-55 414.36,-74"/>
<text text-anchor="middle" x="380.36" y="-62" font-family="Helvetica,sans-Serif" font-size="10.00">TCA9534.h</text>
</a>
</g>
</g>
<!-- Node1&#45;&gt;Node9 -->
<g id="edge10" class="edge">
<title>Node1&#45;&gt;Node9</title>
<path fill="none" stroke="#63b8ff" d="M322.13,-230.93C333.7,-221.99 347.35,-209.41 355.36,-195 375.13,-159.43 379.5,-110.85 380.32,-84.45"/>
<polygon fill="#63b8ff" stroke="#63b8ff" points="383.82,-84.36 380.49,-74.3 376.82,-84.24 383.82,-84.36"/>
</g>
<!-- Node11 -->
<g id="node11" class="node">
<title>Node11</title>
<g id="a_node11"><a xlink:href="_c_a_t___m1_8h.html" target="_top" xlink:title=" ">
<polygon fill="white" stroke="#666666" points="467.86,-134.5 402.86,-134.5 402.86,-115.5 467.86,-115.5 467.86,-134.5"/>
<text text-anchor="middle" x="435.36" y="-122.5" font-family="Helvetica,sans-Serif" font-size="10.00">CAT_M1.h</text>
</a>
</g>
</g>
<!-- Node1&#45;&gt;Node11 -->
<g id="edge13" class="edge">
<title>Node1&#45;&gt;Node11</title>
<path fill="none" stroke="#63b8ff" d="M333.42,-230.95C350.93,-222.26 372.26,-209.92 388.36,-195 404.43,-180.11 417.9,-158.76 426.25,-143.76"/>
<polygon fill="#63b8ff" stroke="#63b8ff" points="429.54,-145.01 431.17,-134.55 423.37,-141.71 429.54,-145.01"/>
</g>
<!-- Node12 -->
<g id="node12" class="node">
<title>Node12</title>
<g id="a_node12"><a xlink:href="globals_8h.html" target="_top" xlink:title=" ">
<polygon fill="white" stroke="#666666" points="501.86,-195 440.86,-195 440.86,-176 501.86,-176 501.86,-195"/>
<text text-anchor="middle" x="471.36" y="-183" font-family="Helvetica,sans-Serif" font-size="10.00">globals.h</text>
</a>
</g>
</g>
<!-- Node1&#45;&gt;Node12 -->
<g id="edge16" class="edge">
<title>Node1&#45;&gt;Node12</title>
<path fill="none" stroke="#63b8ff" d="M342.08,-230.99C370.95,-221.05 409.27,-207.86 436.69,-198.43"/>
<polygon fill="#63b8ff" stroke="#63b8ff" points="437.94,-201.7 446.25,-195.14 435.66,-195.08 437.94,-201.7"/>
</g>
<!-- Node4 -->
<g id="node4" class="node">
<title>Node4</title>
<g id="a_node4"><a xlink:title=" ">
<polygon fill="#e0e0e0" stroke="#999999" points="77.36,-134.5 21.36,-134.5 21.36,-115.5 77.36,-115.5 77.36,-134.5"/>
<text text-anchor="middle" x="49.36" y="-122.5" font-family="Helvetica,sans-Serif" font-size="10.00">stddef.h</text>
</a>
</g>
</g>
<!-- Node3&#45;&gt;Node4 -->
<g id="edge3" class="edge">
<title>Node3&#45;&gt;Node4</title>
<path fill="none" stroke="#63b8ff" d="M128.64,-175.87C113.66,-166.45 89.46,-151.23 71.74,-140.08"/>
<polygon fill="#63b8ff" stroke="#63b8ff" points="73.47,-137.03 63.14,-134.67 69.74,-142.95 73.47,-137.03"/>
</g>
<!-- Node5 -->
<g id="node5" class="node">
<title>Node5</title>
<g id="a_node5"><a xlink:title=" ">
<polygon fill="#e0e0e0" stroke="#999999" points="289.86,-134.5 206.86,-134.5 206.86,-115.5 289.86,-115.5 289.86,-134.5"/>
<text text-anchor="middle" x="248.36" y="-122.5" font-family="Helvetica,sans-Serif" font-size="10.00">ArduinoJson.h</text>
</a>
</g>
</g>
<!-- Node3&#45;&gt;Node5 -->
<g id="edge4" class="edge">
<title>Node3&#45;&gt;Node5</title>
<path fill="none" stroke="#63b8ff" d="M158,-175.87C175.3,-166.32 203.41,-150.81 223.68,-139.62"/>
<polygon fill="#63b8ff" stroke="#63b8ff" points="225.59,-142.56 232.65,-134.67 222.21,-136.43 225.59,-142.56"/>
</g>
<!-- Node6 -->
<g id="node6" class="node">
<title>Node6</title>
<g id="a_node6"><a xlink:title=" ">
<polygon fill="#e0e0e0" stroke="#999999" points="188.86,-134.5 95.86,-134.5 95.86,-115.5 188.86,-115.5 188.86,-134.5"/>
<text text-anchor="middle" x="142.36" y="-122.5" font-family="Helvetica,sans-Serif" font-size="10.00">dpiclimate&#45;12.h</text>
</a>
</g>
</g>
<!-- Node3&#45;&gt;Node6 -->
<g id="edge5" class="edge">
<title>Node3&#45;&gt;Node6</title>
<path fill="none" stroke="#63b8ff" d="M142.36,-175.87C142.36,-167.75 142.36,-155.31 142.36,-144.89"/>
<polygon fill="#63b8ff" stroke="#63b8ff" points="145.86,-144.67 142.36,-134.67 138.86,-144.67 145.86,-144.67"/>
</g>
<!-- Node8&#45;&gt;Node2 -->
<g id="edge8" class="edge">
<title>Node8&#45;&gt;Node2</title>
<path fill="none" stroke="#63b8ff" d="M302.23,-175.63C304.87,-148.52 312.91,-66.32 316.54,-29.13"/>
<polygon fill="#63b8ff" stroke="#63b8ff" points="320.03,-29.44 317.51,-19.14 313.06,-28.76 320.03,-29.44"/>
</g>
<!-- Node8&#45;&gt;Node5 -->
<g id="edge9" class="edge">
<title>Node8&#45;&gt;Node5</title>
<path fill="none" stroke="#63b8ff" d="M293.54,-175.87C285.55,-167.05 272.96,-153.16 263.1,-142.27"/>
<polygon fill="#63b8ff" stroke="#63b8ff" points="265.52,-139.73 256.21,-134.67 260.33,-144.43 265.52,-139.73"/>
</g>
<!-- Node9&#45;&gt;Node2 -->
<g id="edge11" class="edge">
<title>Node9&#45;&gt;Node2</title>
<path fill="none" stroke="#63b8ff" d="M370.4,-54.98C361.23,-47.15 347.42,-35.34 336.33,-25.86"/>
<polygon fill="#63b8ff" stroke="#63b8ff" points="338.38,-23.01 328.5,-19.17 333.83,-28.33 338.38,-23.01"/>
</g>
<!-- Node10 -->
<g id="node10" class="node">
<title>Node10</title>
<g id="a_node10"><a xlink:title=" ">
<polygon fill="#e0e0e0" stroke="#999999" points="441.36,-19 393.36,-19 393.36,0 441.36,0 441.36,-19"/>
<text text-anchor="middle" x="417.36" y="-7" font-family="Helvetica,sans-Serif" font-size="10.00">Wire.h</text>
</a>
</g>
</g>
<!-- Node9&#45;&gt;Node10 -->
<g id="edge12" class="edge">
<title>Node9&#45;&gt;Node10</title>
<path fill="none" stroke="#63b8ff" d="M386.47,-54.75C391.64,-47.34 399.2,-36.5 405.55,-27.41"/>
<polygon fill="#63b8ff" stroke="#63b8ff" points="408.51,-29.29 411.36,-19.09 402.77,-25.29 408.51,-29.29"/>
</g>
<!-- Node11&#45;&gt;Node9 -->
<g id="edge15" class="edge">
<title>Node11&#45;&gt;Node9</title>
<path fill="none" stroke="#63b8ff" d="M427.24,-115.37C418.96,-106.55 405.89,-92.66 395.66,-81.77"/>
<polygon fill="#63b8ff" stroke="#63b8ff" points="397.91,-79.06 388.51,-74.17 392.81,-83.85 397.91,-79.06"/>
</g>
<!-- Node11&#45;&gt;Node10 -->
<g id="edge14" class="edge">
<title>Node11&#45;&gt;Node10</title>
<path fill="none" stroke="#63b8ff" d="M434.01,-115.47C431.11,-97.23 424.27,-54.07 420.32,-29.14"/>
<polygon fill="#63b8ff" stroke="#63b8ff" points="423.75,-28.46 418.73,-19.13 416.84,-29.55 423.75,-28.46"/>
</g>
<!-- Node12&#45;&gt;Node11 -->
<g id="edge18" class="edge">
<title>Node12&#45;&gt;Node11</title>
<path fill="none" stroke="#63b8ff" d="M466.05,-175.87C460.78,-167.31 452.57,-153.97 445.97,-143.24"/>
<polygon fill="#63b8ff" stroke="#63b8ff" points="448.91,-141.35 440.69,-134.67 442.95,-145.02 448.91,-141.35"/>
</g>
<!-- Node13 -->
<g id="node13" class="node">
<title>Node13</title>
<g id="a_node13"><a xlink:title=" ">
<polygon fill="#e0e0e0" stroke="#999999" points="616.36,-140 486.36,-140 486.36,-110 616.36,-110 616.36,-140"/>
<text text-anchor="start" x="494.36" y="-128" font-family="Helvetica,sans-Serif" font-size="10.00">SparkFun_u&#45;blox_SARA</text>
<text text-anchor="middle" x="551.36" y="-117" font-family="Helvetica,sans-Serif" font-size="10.00">&#45;R5_Arduino_Library.h</text>
</a>
</g>
</g>
<!-- Node12&#45;&gt;Node13 -->
<g id="edge17" class="edge">
<title>Node12&#45;&gt;Node13</title>
<path fill="none" stroke="#63b8ff" d="M483.16,-175.87C493.82,-168.08 509.9,-156.32 523.77,-146.17"/>
<polygon fill="#63b8ff" stroke="#63b8ff" points="526.05,-148.84 532.06,-140.11 521.92,-143.19 526.05,-148.84"/>
</g>
</g>
</svg>
