<?xml version="1.0" encoding="UTF-8" standalone="no"?>
<!DOCTYPE svg PUBLIC "-//W3C//DTD SVG 1.1//EN"
 "http://www.w3.org/Graphics/SVG/1.1/DTD/svg11.dtd">
<!-- Generated by graphviz version 2.43.0 (0)
 -->
<!-- Title: firmware/wombat/src/cli/device_config/acquisition_intervals.cpp Pages: 1 -->
<svg width="911pt" height="346pt"
 viewBox="0.00 0.00 910.66 346.00" xmlns="http://www.w3.org/2000/svg" xmlns:xlink="http://www.w3.org/1999/xlink">
<g id="graph0" class="graph" transform="scale(1 1) rotate(0) translate(4 342)">
<title>firmware/wombat/src/cli/device_config/acquisition_intervals.cpp</title>
<!-- Node1 -->
<g id="node1" class="node">
<title>Node1</title>
<g id="a_node1"><a xlink:title="Handles the time between measurements and uplinks by the device over LTE.">
<polygon fill="#999999" stroke="#666666" points="441,-338 284,-338 284,-297 441,-297 441,-338"/>
<text text-anchor="start" x="292" y="-326" font-family="Helvetica,sans-Serif" font-size="10.00">firmware/wombat/src</text>
<text text-anchor="start" x="292" y="-315" font-family="Helvetica,sans-Serif" font-size="10.00">/cli/device_config/acquisition</text>
<text text-anchor="middle" x="362.5" y="-304" font-family="Helvetica,sans-Serif" font-size="10.00">_intervals.cpp</text>
</a>
</g>
</g>
<!-- Node2 -->
<g id="node2" class="node">
<title>Node2</title>
<g id="a_node2"><a xlink:title=" ">
<polygon fill="#e0e0e0" stroke="#999999" points="282,-261 233,-261 233,-242 282,-242 282,-261"/>
<text text-anchor="middle" x="257.5" y="-249" font-family="Helvetica,sans-Serif" font-size="10.00">cstdlib</text>
</a>
</g>
</g>
<!-- Node1&#45;&gt;Node2 -->
<g id="edge1" class="edge">
<title>Node1&#45;&gt;Node2</title>
<path fill="none" stroke="#63b8ff" d="M330.43,-296.95C314.3,-287.12 295.12,-275.43 280.48,-266.51"/>
<polygon fill="#63b8ff" stroke="#63b8ff" points="281.96,-263.31 271.6,-261.09 278.31,-269.29 281.96,-263.31"/>
</g>
<!-- Node3 -->
<g id="node3" class="node">
<title>Node3</title>
<g id="a_node3"><a xlink:href="acquisition__intervals_8h.html" target="_top" xlink:title="Handles the time between measurements and uplinks by the device over LTE.">
<polygon fill="white" stroke="#666666" points="769.5,-206 615.5,-206 615.5,-176 769.5,-176 769.5,-206"/>
<text text-anchor="start" x="623.5" y="-194" font-family="Helvetica,sans-Serif" font-size="10.00">cli/device_config/acquisition</text>
<text text-anchor="middle" x="692.5" y="-183" font-family="Helvetica,sans-Serif" font-size="10.00">_intervals.h</text>
</a>
</g>
</g>
<!-- Node1&#45;&gt;Node3 -->
<g id="edge2" class="edge">
<title>Node1&#45;&gt;Node3</title>
<path fill="none" stroke="#63b8ff" d="M441.25,-300.07C480.27,-290.73 527.66,-277.57 568.5,-261 602.05,-247.39 637.94,-226.67 662.43,-211.48"/>
<polygon fill="#63b8ff" stroke="#63b8ff" points="664.3,-214.44 670.91,-206.16 660.58,-208.51 664.3,-214.44"/>
</g>
<!-- Node11 -->
<g id="node11" class="node">
<title>Node11</title>
<g id="a_node11"><a xlink:href="globals_8h.html" target="_top" xlink:title=" ">
<polygon fill="white" stroke="#666666" points="295,-200.5 234,-200.5 234,-181.5 295,-181.5 295,-200.5"/>
<text text-anchor="middle" x="264.5" y="-188.5" font-family="Helvetica,sans-Serif" font-size="10.00">globals.h</text>
</a>
</g>
</g>
<!-- Node1&#45;&gt;Node11 -->
<g id="edge10" class="edge">
<title>Node1&#45;&gt;Node11</title>
<path fill="none" stroke="#63b8ff" d="M346.97,-296.77C327.82,-272.44 295.59,-231.5 277.62,-208.67"/>
<polygon fill="#63b8ff" stroke="#63b8ff" points="280.22,-206.31 271.28,-200.61 274.72,-210.64 280.22,-206.31"/>
</g>
<!-- Node18 -->
<g id="node18" class="node">
<title>Node18</title>
<g id="a_node18"><a xlink:href="_utils_8h.html" target="_top" xlink:title=" ">
<polygon fill="white" stroke="#666666" points="386.5,-261 338.5,-261 338.5,-242 386.5,-242 386.5,-261"/>
<text text-anchor="middle" x="362.5" y="-249" font-family="Helvetica,sans-Serif" font-size="10.00">Utils.h</text>
</a>
</g>
</g>
<!-- Node1&#45;&gt;Node18 -->
<g id="edge19" class="edge">
<title>Node1&#45;&gt;Node18</title>
<path fill="none" stroke="#63b8ff" d="M362.5,-296.95C362.5,-288.85 362.5,-279.5 362.5,-271.47"/>
<polygon fill="#63b8ff" stroke="#63b8ff" points="366,-271.26 362.5,-261.26 359,-271.26 366,-271.26"/>
</g>
<!-- Node20 -->
<g id="node20" class="node">
<title>Node20</title>
<g id="a_node20"><a xlink:href="_c_l_i_8h.html" target="_top" xlink:title="FreeRTOS CLI handler.">
<polygon fill="white" stroke="#666666" points="559,-261 504,-261 504,-242 559,-242 559,-261"/>
<text text-anchor="middle" x="531.5" y="-249" font-family="Helvetica,sans-Serif" font-size="10.00">cli/CLI.h</text>
</a>
</g>
</g>
<!-- Node1&#45;&gt;Node20 -->
<g id="edge23" class="edge">
<title>Node1&#45;&gt;Node20</title>
<path fill="none" stroke="#63b8ff" d="M414.12,-296.95C441.94,-286.42 475.38,-273.75 499.44,-264.64"/>
<polygon fill="#63b8ff" stroke="#63b8ff" points="500.7,-267.91 508.81,-261.09 498.22,-261.36 500.7,-267.91"/>
</g>
<!-- Node4 -->
<g id="node4" class="node">
<title>Node4</title>
<g id="a_node4"><a xlink:title=" ">
<polygon fill="#e0e0e0" stroke="#999999" points="467,-134.5 354,-134.5 354,-115.5 467,-115.5 467,-134.5"/>
<text text-anchor="middle" x="410.5" y="-122.5" font-family="Helvetica,sans-Serif" font-size="10.00">freertos/FreeRTOS.h</text>
</a>
</g>
</g>
<!-- Node3&#45;&gt;Node4 -->
<g id="edge3" class="edge">
<title>Node3&#45;&gt;Node4</title>
<path fill="none" stroke="#63b8ff" d="M630.61,-175.95C578.65,-164.16 505.5,-147.56 458.04,-136.79"/>
<polygon fill="#63b8ff" stroke="#63b8ff" points="458.56,-133.32 448.03,-134.52 457.01,-140.14 458.56,-133.32"/>
</g>
<!-- Node5 -->
<g id="node5" class="node">
<title>Node5</title>
<g id="a_node5"><a xlink:title=" ">
<polygon fill="#e0e0e0" stroke="#999999" points="546,-134.5 485,-134.5 485,-115.5 546,-115.5 546,-134.5"/>
<text text-anchor="middle" x="515.5" y="-122.5" font-family="Helvetica,sans-Serif" font-size="10.00">Stream.h</text>
</a>
</g>
</g>
<!-- Node3&#45;&gt;Node5 -->
<g id="edge4" class="edge">
<title>Node3&#45;&gt;Node5</title>
<path fill="none" stroke="#63b8ff" d="M653.66,-175.95C622.21,-164.58 578.38,-148.74 548.59,-137.96"/>
<polygon fill="#63b8ff" stroke="#63b8ff" points="549.65,-134.63 539.06,-134.52 547.27,-141.21 549.65,-134.63"/>
</g>
<!-- Node6 -->
<g id="node6" class="node">
<title>Node6</title>
<g id="a_node6"><a xlink:title=" ">
<polygon fill="#e0e0e0" stroke="#999999" points="653,-134.5 564,-134.5 564,-115.5 653,-115.5 653,-134.5"/>
<text text-anchor="middle" x="608.5" y="-122.5" font-family="Helvetica,sans-Serif" font-size="10.00">StreamString.h</text>
</a>
</g>
</g>
<!-- Node3&#45;&gt;Node6 -->
<g id="edge5" class="edge">
<title>Node3&#45;&gt;Node6</title>
<path fill="none" stroke="#63b8ff" d="M673.86,-175.8C660.38,-165.53 642.19,-151.67 628.42,-141.18"/>
<polygon fill="#63b8ff" stroke="#63b8ff" points="630.18,-138.12 620.11,-134.84 625.94,-143.69 630.18,-138.12"/>
</g>
<!-- Node7 -->
<g id="node7" class="node">
<title>Node7</title>
<g id="a_node7"><a xlink:title=" ">
<polygon fill="#e0e0e0" stroke="#999999" points="778,-134.5 671,-134.5 671,-115.5 778,-115.5 778,-134.5"/>
<text text-anchor="middle" x="724.5" y="-122.5" font-family="Helvetica,sans-Serif" font-size="10.00">cli/FreeRTOS_CLI.h</text>
</a>
</g>
</g>
<!-- Node3&#45;&gt;Node7 -->
<g id="edge6" class="edge">
<title>Node3&#45;&gt;Node7</title>
<path fill="none" stroke="#63b8ff" d="M699.6,-175.8C704.3,-166.41 710.49,-154.02 715.53,-143.95"/>
<polygon fill="#63b8ff" stroke="#63b8ff" points="718.74,-145.35 720.08,-134.84 712.48,-142.22 718.74,-145.35"/>
</g>
<!-- Node8 -->
<g id="node8" class="node">
<title>Node8</title>
<g id="a_node8"><a xlink:href="_device_config_8h.html" target="_top" xlink:title="Node configuration options.">
<polygon fill="white" stroke="#666666" points="886.5,-134.5 796.5,-134.5 796.5,-115.5 886.5,-115.5 886.5,-134.5"/>
<text text-anchor="middle" x="841.5" y="-122.5" font-family="Helvetica,sans-Serif" font-size="10.00">DeviceConfig.h</text>
</a>
</g>
</g>
<!-- Node3&#45;&gt;Node8 -->
<g id="edge7" class="edge">
<title>Node3&#45;&gt;Node8</title>
<path fill="none" stroke="#63b8ff" d="M725.2,-175.95C751.21,-164.78 787.28,-149.29 812.33,-138.53"/>
<polygon fill="#63b8ff" stroke="#63b8ff" points="813.86,-141.68 821.67,-134.52 811.1,-135.25 813.86,-141.68"/>
</g>
<!-- Node9 -->
<g id="node9" class="node">
<title>Node9</title>
<g id="a_node9"><a xlink:title=" ">
<polygon fill="#e0e0e0" stroke="#999999" points="873,-19 810,-19 810,0 873,0 873,-19"/>
<text text-anchor="middle" x="841.5" y="-7" font-family="Helvetica,sans-Serif" font-size="10.00">Arduino.h</text>
</a>
</g>
</g>
<!-- Node8&#45;&gt;Node9 -->
<g id="edge8" class="edge">
<title>Node8&#45;&gt;Node9</title>
<path fill="none" stroke="#63b8ff" d="M841.5,-115.47C841.5,-97.23 841.5,-54.07 841.5,-29.14"/>
<polygon fill="#63b8ff" stroke="#63b8ff" points="845,-29.13 841.5,-19.13 838,-29.13 845,-29.13"/>
</g>
<!-- Node10 -->
<g id="node10" class="node">
<title>Node10</title>
<g id="a_node10"><a xlink:title=" ">
<polygon fill="#e0e0e0" stroke="#999999" points="638,-74 555,-74 555,-55 638,-55 638,-74"/>
<text text-anchor="middle" x="596.5" y="-62" font-family="Helvetica,sans-Serif" font-size="10.00">ArduinoJson.h</text>
</a>
</g>
</g>
<!-- Node8&#45;&gt;Node10 -->
<g id="edge9" class="edge">
<title>Node8&#45;&gt;Node10</title>
<path fill="none" stroke="#63b8ff" d="M808.98,-115.43C801.91,-113.6 794.46,-111.71 787.5,-110 738.79,-98.01 682.88,-85.08 644.2,-76.27"/>
<polygon fill="#63b8ff" stroke="#63b8ff" points="644.78,-72.81 634.26,-74.01 643.23,-79.64 644.78,-72.81"/>
</g>
<!-- Node12 -->
<g id="node12" class="node">
<title>Node12</title>
<g id="a_node12"><a xlink:title=" ">
<polygon fill="#e0e0e0" stroke="#999999" points="213.5,-140 83.5,-140 83.5,-110 213.5,-110 213.5,-140"/>
<text text-anchor="start" x="91.5" y="-128" font-family="Helvetica,sans-Serif" font-size="10.00">SparkFun_u&#45;blox_SARA</text>
<text text-anchor="middle" x="148.5" y="-117" font-family="Helvetica,sans-Serif" font-size="10.00">&#45;R5_Arduino_Library.h</text>
</a>
</g>
</g>
<!-- Node11&#45;&gt;Node12 -->
<g id="edge11" class="edge">
<title>Node11&#45;&gt;Node12</title>
<path fill="none" stroke="#63b8ff" d="M248.86,-181.37C232.08,-172.11 204.91,-157.12 183.07,-145.07"/>
<polygon fill="#63b8ff" stroke="#63b8ff" points="184.53,-141.88 174.08,-140.12 181.15,-148.01 184.53,-141.88"/>
</g>
<!-- Node13 -->
<g id="node13" class="node">
<title>Node13</title>
<g id="a_node13"><a xlink:href="_c_a_t___m1_8h.html" target="_top" xlink:title=" ">
<polygon fill="white" stroke="#666666" points="297,-134.5 232,-134.5 232,-115.5 297,-115.5 297,-134.5"/>
<text text-anchor="middle" x="264.5" y="-122.5" font-family="Helvetica,sans-Serif" font-size="10.00">CAT_M1.h</text>
</a>
</g>
</g>
<!-- Node11&#45;&gt;Node13 -->
<g id="edge12" class="edge">
<title>Node11&#45;&gt;Node13</title>
<path fill="none" stroke="#63b8ff" d="M264.5,-181.37C264.5,-172.16 264.5,-157.29 264.5,-145.27"/>
<polygon fill="#63b8ff" stroke="#63b8ff" points="268,-144.91 264.5,-134.91 261,-144.91 268,-144.91"/>
</g>
<!-- Node16 -->
<g id="node16" class="node">
<title>Node16</title>
<g id="a_node16"><a xlink:href="str__utils_8h.html" target="_top" xlink:title=" ">
<polygon fill="white" stroke="#666666" points="65,-134.5 0,-134.5 0,-115.5 65,-115.5 65,-134.5"/>
<text text-anchor="middle" x="32.5" y="-122.5" font-family="Helvetica,sans-Serif" font-size="10.00">str_utils.h</text>
</a>
</g>
</g>
<!-- Node11&#45;&gt;Node16 -->
<g id="edge17" class="edge">
<title>Node11&#45;&gt;Node16</title>
<path fill="none" stroke="#63b8ff" d="M233.73,-182.55C196.01,-173.27 130.24,-156.6 74.5,-140 72.05,-139.27 69.53,-138.49 67,-137.7"/>
<polygon fill="#63b8ff" stroke="#63b8ff" points="67.88,-134.3 57.29,-134.56 65.73,-140.96 67.88,-134.3"/>
</g>
<!-- Node14 -->
<g id="node14" class="node">
<title>Node14</title>
<g id="a_node14"><a xlink:title=" ">
<polygon fill="#e0e0e0" stroke="#999999" points="319.5,-19 271.5,-19 271.5,0 319.5,0 319.5,-19"/>
<text text-anchor="middle" x="295.5" y="-7" font-family="Helvetica,sans-Serif" font-size="10.00">Wire.h</text>
</a>
</g>
</g>
<!-- Node13&#45;&gt;Node14 -->
<g id="edge13" class="edge">
<title>Node13&#45;&gt;Node14</title>
<path fill="none" stroke="#63b8ff" d="M266.83,-115.47C271.83,-97.15 283.71,-53.68 290.5,-28.81"/>
<polygon fill="#63b8ff" stroke="#63b8ff" points="293.88,-29.7 293.14,-19.13 287.13,-27.85 293.88,-29.7"/>
</g>
<!-- Node15 -->
<g id="node15" class="node">
<title>Node15</title>
<g id="a_node15"><a xlink:href="_t_c_a9534_8h.html" target="_top" xlink:title=" ">
<polygon fill="white" stroke="#666666" points="360.5,-74 292.5,-74 292.5,-55 360.5,-55 360.5,-74"/>
<text text-anchor="middle" x="326.5" y="-62" font-family="Helvetica,sans-Serif" font-size="10.00">TCA9534.h</text>
</a>
</g>
</g>
<!-- Node13&#45;&gt;Node15 -->
<g id="edge14" class="edge">
<title>Node13&#45;&gt;Node15</title>
<path fill="none" stroke="#63b8ff" d="M273.65,-115.37C283.17,-106.38 298.3,-92.11 309.93,-81.14"/>
<polygon fill="#63b8ff" stroke="#63b8ff" points="312.44,-83.58 317.31,-74.17 307.64,-78.48 312.44,-83.58"/>
</g>
<!-- Node15&#45;&gt;Node9 -->
<g id="edge15" class="edge">
<title>Node15&#45;&gt;Node9</title>
<path fill="none" stroke="#63b8ff" d="M360.69,-59.98C451.84,-50.6 700.44,-25.02 799.73,-14.8"/>
<polygon fill="#63b8ff" stroke="#63b8ff" points="800.38,-18.25 809.97,-13.74 799.67,-11.29 800.38,-18.25"/>
</g>
<!-- Node15&#45;&gt;Node14 -->
<g id="edge16" class="edge">
<title>Node15&#45;&gt;Node14</title>
<path fill="none" stroke="#63b8ff" d="M321.38,-54.75C317.14,-47.49 310.97,-36.95 305.72,-27.98"/>
<polygon fill="#63b8ff" stroke="#63b8ff" points="308.59,-25.95 300.52,-19.09 302.55,-29.49 308.59,-25.95"/>
</g>
<!-- Node17 -->
<g id="node17" class="node">
<title>Node17</title>
<g id="a_node17"><a xlink:title=" ">
<polygon fill="#e0e0e0" stroke="#999999" points="60.5,-74 4.5,-74 4.5,-55 60.5,-55 60.5,-74"/>
<text text-anchor="middle" x="32.5" y="-62" font-family="Helvetica,sans-Serif" font-size="10.00">stddef.h</text>
</a>
</g>
</g>
<!-- Node16&#45;&gt;Node17 -->
<g id="edge18" class="edge">
<title>Node16&#45;&gt;Node17</title>
<path fill="none" stroke="#63b8ff" d="M32.5,-115.37C32.5,-107.25 32.5,-94.81 32.5,-84.39"/>
<polygon fill="#63b8ff" stroke="#63b8ff" points="36,-84.17 32.5,-74.17 29,-84.17 36,-84.17"/>
</g>
<!-- Node18&#45;&gt;Node10 -->
<g id="edge20" class="edge">
<title>Node18&#45;&gt;Node10</title>
<path fill="none" stroke="#63b8ff" d="M357.37,-241.67C344.06,-217.45 311.63,-149.19 344.5,-110 369.54,-80.16 478.53,-70.32 544.7,-67.08"/>
<polygon fill="#63b8ff" stroke="#63b8ff" points="545.1,-70.57 554.93,-66.62 544.79,-63.57 545.1,-70.57"/>
</g>
<!-- Node18&#45;&gt;Node11 -->
<g id="edge22" class="edge">
<title>Node18&#45;&gt;Node11</title>
<path fill="none" stroke="#63b8ff" d="M348.04,-241.87C332.19,-232.41 306.53,-217.09 287.82,-205.92"/>
<polygon fill="#63b8ff" stroke="#63b8ff" points="289.4,-202.79 279.02,-200.67 285.81,-208.8 289.4,-202.79"/>
</g>
<!-- Node19 -->
<g id="node19" class="node">
<title>Node19</title>
<g id="a_node19"><a xlink:title=" ">
<polygon fill="#e0e0e0" stroke="#999999" points="447,-200.5 354,-200.5 354,-181.5 447,-181.5 447,-200.5"/>
<text text-anchor="middle" x="400.5" y="-188.5" font-family="Helvetica,sans-Serif" font-size="10.00">dpiclimate&#45;12.h</text>
</a>
</g>
</g>
<!-- Node18&#45;&gt;Node19 -->
<g id="edge21" class="edge">
<title>Node18&#45;&gt;Node19</title>
<path fill="none" stroke="#63b8ff" d="M368.11,-241.87C373.66,-233.31 382.33,-219.97 389.3,-209.24"/>
<polygon fill="#63b8ff" stroke="#63b8ff" points="392.36,-210.96 394.87,-200.67 386.49,-207.15 392.36,-210.96"/>
</g>
<!-- Node20&#45;&gt;Node9 -->
<g id="edge24" class="edge">
<title>Node20&#45;&gt;Node9</title>
<path fill="none" stroke="#63b8ff" d="M559.33,-248.53C605.9,-244.58 702.05,-233.55 778.5,-206 834.67,-185.76 865.39,-191.55 895.5,-140 918.02,-101.45 880.61,-51.72 857.55,-26.58"/>
<polygon fill="#63b8ff" stroke="#63b8ff" points="859.81,-23.88 850.38,-19.05 854.74,-28.7 859.81,-23.88"/>
</g>
<!-- Node21 -->
<g id="node21" class="node">
<title>Node21</title>
<g id="a_node21"><a xlink:href="cat-m1_8h.html" target="_top" xlink:title="CAT&#45;M1 CLI command request and response handler.">
<polygon fill="white" stroke="#666666" points="597.5,-200.5 465.5,-200.5 465.5,-181.5 597.5,-181.5 597.5,-200.5"/>
<text text-anchor="middle" x="531.5" y="-188.5" font-family="Helvetica,sans-Serif" font-size="10.00">cli/peripherals/cat&#45;m1.h</text>
</a>
</g>
</g>
<!-- Node20&#45;&gt;Node21 -->
<g id="edge25" class="edge">
<title>Node20&#45;&gt;Node21</title>
<path fill="none" stroke="#63b8ff" d="M531.5,-241.87C531.5,-233.75 531.5,-221.31 531.5,-210.89"/>
<polygon fill="#63b8ff" stroke="#63b8ff" points="535,-210.67 531.5,-200.67 528,-210.67 535,-210.67"/>
</g>
<!-- Node21&#45;&gt;Node4 -->
<g id="edge26" class="edge">
<title>Node21&#45;&gt;Node4</title>
<path fill="none" stroke="#63b8ff" d="M515.18,-181.37C494.79,-170.59 459.69,-152.02 435.8,-139.38"/>
<polygon fill="#63b8ff" stroke="#63b8ff" points="437.42,-136.28 426.95,-134.7 434.15,-142.47 437.42,-136.28"/>
</g>
<!-- Node21&#45;&gt;Node5 -->
<g id="edge27" class="edge">
<title>Node21&#45;&gt;Node5</title>
<path fill="none" stroke="#63b8ff" d="M529.34,-181.37C527.02,-172.07 523.24,-156.98 520.22,-144.9"/>
<polygon fill="#63b8ff" stroke="#63b8ff" points="523.55,-143.76 517.73,-134.91 516.76,-145.46 523.55,-143.76"/>
</g>
<!-- Node21&#45;&gt;Node6 -->
<g id="edge28" class="edge">
<title>Node21&#45;&gt;Node6</title>
<path fill="none" stroke="#63b8ff" d="M541.88,-181.37C554.22,-171.12 575.01,-153.84 590.09,-141.31"/>
<polygon fill="#63b8ff" stroke="#63b8ff" points="592.33,-143.99 597.79,-134.91 587.86,-138.61 592.33,-143.99"/>
</g>
<!-- Node21&#45;&gt;Node7 -->
<g id="edge29" class="edge">
<title>Node21&#45;&gt;Node7</title>
<path fill="none" stroke="#63b8ff" d="M557.53,-181.37C591.44,-170.12 650.87,-150.42 688.92,-137.8"/>
<polygon fill="#63b8ff" stroke="#63b8ff" points="690.19,-141.07 698.58,-134.6 687.98,-134.42 690.19,-141.07"/>
</g>
<!-- Node21&#45;&gt;Node13 -->
<g id="edge30" class="edge">
<title>Node21&#45;&gt;Node13</title>
<path fill="none" stroke="#63b8ff" d="M495.77,-181.44C446.88,-169.72 359.26,-148.71 307.04,-136.2"/>
<polygon fill="#63b8ff" stroke="#63b8ff" points="307.63,-132.74 297.09,-133.81 306,-139.55 307.63,-132.74"/>
</g>
</g>
</svg>
