<?xml version="1.0" encoding="UTF-8" standalone="no"?>
<!DOCTYPE svg PUBLIC "-//W3C//DTD SVG 1.1//EN"
 "http://www.w3.org/Graphics/SVG/1.1/DTD/svg11.dtd">
<!-- Generated by graphviz version 2.43.0 (0)
 -->
<!-- Title: firmware/wombat/src/cli/device_config/acquisition_intervals.cpp Pages: 1 -->
<svg width="1387pt" height="291pt"
 viewBox="0.00 0.00 1387.00 291.00" xmlns="http://www.w3.org/2000/svg" xmlns:xlink="http://www.w3.org/1999/xlink">
<g id="graph0" class="graph" transform="scale(1 1) rotate(0) translate(4 287)">
<title>firmware/wombat/src/cli/device_config/acquisition_intervals.cpp</title>
<!-- Node1 -->
<g id="node1" class="node">
<title>Node1</title>
<g id="a_node1"><a xlink:title="Handles the time between measurements and uplinks by the device over LTE.">
<polygon fill="#999999" stroke="#666666" points="659,-283 502,-283 502,-242 659,-242 659,-283"/>
<text text-anchor="start" x="510" y="-271" font-family="Helvetica,sans-Serif" font-size="10.00">firmware/wombat/src</text>
<text text-anchor="start" x="510" y="-260" font-family="Helvetica,sans-Serif" font-size="10.00">/cli/device_config/acquisition</text>
<text text-anchor="middle" x="580.5" y="-249" font-family="Helvetica,sans-Serif" font-size="10.00">_intervals.cpp</text>
</a>
</g>
</g>
<!-- Node2 -->
<g id="node2" class="node">
<title>Node2</title>
<g id="a_node2"><a xlink:title=" ">
<polygon fill="#e0e0e0" stroke="#999999" points="275,-200.5 222,-200.5 222,-181.5 275,-181.5 275,-200.5"/>
<text text-anchor="middle" x="248.5" y="-188.5" font-family="Helvetica,sans-Serif" font-size="10.00">stdlib.h</text>
</a>
</g>
</g>
<!-- Node1&#45;&gt;Node2 -->
<g id="edge1" class="edge">
<title>Node1&#45;&gt;Node2</title>
<path fill="none" stroke="#63b8ff" d="M501.99,-250.84C441.8,-241.7 357.02,-226.71 284.5,-206 282.35,-205.39 280.15,-204.7 277.95,-203.96"/>
<polygon fill="#63b8ff" stroke="#63b8ff" points="279.05,-200.63 268.46,-200.52 276.67,-207.21 279.05,-200.63"/>
</g>
<!-- Node3 -->
<g id="node3" class="node">
<title>Node3</title>
<g id="a_node3"><a xlink:href="acquisition__intervals_8h.html" target="_top" xlink:title="Handles the time between measurements and uplinks by the device over LTE.">
<polygon fill="white" stroke="#666666" points="447.5,-206 293.5,-206 293.5,-176 447.5,-176 447.5,-206"/>
<text text-anchor="start" x="301.5" y="-194" font-family="Helvetica,sans-Serif" font-size="10.00">cli/device_config/acquisition</text>
<text text-anchor="middle" x="370.5" y="-183" font-family="Helvetica,sans-Serif" font-size="10.00">_intervals.h</text>
</a>
</g>
</g>
<!-- Node1&#45;&gt;Node3 -->
<g id="edge2" class="edge">
<title>Node1&#45;&gt;Node3</title>
<path fill="none" stroke="#63b8ff" d="M521.44,-241.96C490.38,-231.68 452.64,-219.18 422.66,-209.26"/>
<polygon fill="#63b8ff" stroke="#63b8ff" points="423.41,-205.82 412.81,-206 421.21,-212.47 423.41,-205.82"/>
</g>
<!-- Node11 -->
<g id="node11" class="node">
<title>Node11</title>
<g id="a_node11"><a xlink:href="globals_8h.html" target="_top" xlink:title=" ">
<polygon fill="white" stroke="#666666" points="821,-200.5 760,-200.5 760,-181.5 821,-181.5 821,-200.5"/>
<text text-anchor="middle" x="790.5" y="-188.5" font-family="Helvetica,sans-Serif" font-size="10.00">globals.h</text>
</a>
</g>
</g>
<!-- Node1&#45;&gt;Node11 -->
<g id="edge10" class="edge">
<title>Node1&#45;&gt;Node11</title>
<path fill="none" stroke="#63b8ff" d="M639.56,-241.96C676.77,-229.64 723.59,-214.15 755.13,-203.71"/>
<polygon fill="#63b8ff" stroke="#63b8ff" points="756.41,-206.97 764.81,-200.5 754.21,-200.32 756.41,-206.97"/>
</g>
<!-- Node19 -->
<g id="node19" class="node">
<title>Node19</title>
<g id="a_node19"><a xlink:href="_utils_8h.html" target="_top" xlink:title=" ">
<polygon fill="white" stroke="#666666" points="1206.5,-200.5 1158.5,-200.5 1158.5,-181.5 1206.5,-181.5 1206.5,-200.5"/>
<text text-anchor="middle" x="1182.5" y="-188.5" font-family="Helvetica,sans-Serif" font-size="10.00">Utils.h</text>
</a>
</g>
</g>
<!-- Node1&#45;&gt;Node19 -->
<g id="edge23" class="edge">
<title>Node1&#45;&gt;Node19</title>
<path fill="none" stroke="#63b8ff" d="M659.2,-252.41C791.77,-237.11 1054.34,-206.8 1148.17,-195.96"/>
<polygon fill="#63b8ff" stroke="#63b8ff" points="1148.72,-199.42 1158.25,-194.8 1147.91,-192.47 1148.72,-199.42"/>
</g>
<!-- Node4 -->
<g id="node4" class="node">
<title>Node4</title>
<g id="a_node4"><a xlink:title=" ">
<polygon fill="#e0e0e0" stroke="#999999" points="113,-134.5 0,-134.5 0,-115.5 113,-115.5 113,-134.5"/>
<text text-anchor="middle" x="56.5" y="-122.5" font-family="Helvetica,sans-Serif" font-size="10.00">freertos/FreeRTOS.h</text>
</a>
</g>
</g>
<!-- Node3&#45;&gt;Node4 -->
<g id="edge3" class="edge">
<title>Node3&#45;&gt;Node4</title>
<path fill="none" stroke="#63b8ff" d="M299.34,-175.99C249.51,-166.1 181.39,-152.46 121.5,-140 116.4,-138.94 111.09,-137.82 105.78,-136.69"/>
<polygon fill="#63b8ff" stroke="#63b8ff" points="106.18,-133.2 95.67,-134.53 104.71,-140.04 106.18,-133.2"/>
</g>
<!-- Node5 -->
<g id="node5" class="node">
<title>Node5</title>
<g id="a_node5"><a xlink:title=" ">
<polygon fill="#e0e0e0" stroke="#999999" points="192,-134.5 131,-134.5 131,-115.5 192,-115.5 192,-134.5"/>
<text text-anchor="middle" x="161.5" y="-122.5" font-family="Helvetica,sans-Serif" font-size="10.00">Stream.h</text>
</a>
</g>
</g>
<!-- Node3&#45;&gt;Node5 -->
<g id="edge4" class="edge">
<title>Node3&#45;&gt;Node5</title>
<path fill="none" stroke="#63b8ff" d="M319.68,-175.89C285.77,-166.28 240.28,-152.98 200.5,-140 198.39,-139.31 196.22,-138.58 194.04,-137.84"/>
<polygon fill="#63b8ff" stroke="#63b8ff" points="195.11,-134.51 184.52,-134.52 192.81,-141.12 195.11,-134.51"/>
</g>
<!-- Node6 -->
<g id="node6" class="node">
<title>Node6</title>
<g id="a_node6"><a xlink:title=" ">
<polygon fill="#e0e0e0" stroke="#999999" points="299,-134.5 210,-134.5 210,-115.5 299,-115.5 299,-134.5"/>
<text text-anchor="middle" x="254.5" y="-122.5" font-family="Helvetica,sans-Serif" font-size="10.00">StreamString.h</text>
</a>
</g>
</g>
<!-- Node3&#45;&gt;Node6 -->
<g id="edge5" class="edge">
<title>Node3&#45;&gt;Node6</title>
<path fill="none" stroke="#63b8ff" d="M345.04,-175.95C325.33,-165.08 298.19,-150.11 278.78,-139.4"/>
<polygon fill="#63b8ff" stroke="#63b8ff" points="280.38,-136.28 269.94,-134.52 277,-142.41 280.38,-136.28"/>
</g>
<!-- Node7 -->
<g id="node7" class="node">
<title>Node7</title>
<g id="a_node7"><a xlink:title=" ">
<polygon fill="#e0e0e0" stroke="#999999" points="424,-134.5 317,-134.5 317,-115.5 424,-115.5 424,-134.5"/>
<text text-anchor="middle" x="370.5" y="-122.5" font-family="Helvetica,sans-Serif" font-size="10.00">cli/FreeRTOS_CLI.h</text>
</a>
</g>
</g>
<!-- Node3&#45;&gt;Node7 -->
<g id="edge6" class="edge">
<title>Node3&#45;&gt;Node7</title>
<path fill="none" stroke="#63b8ff" d="M370.5,-175.8C370.5,-166.7 370.5,-154.79 370.5,-144.9"/>
<polygon fill="#63b8ff" stroke="#63b8ff" points="374,-144.84 370.5,-134.84 367,-144.84 374,-144.84"/>
</g>
<!-- Node8 -->
<g id="node8" class="node">
<title>Node8</title>
<g id="a_node8"><a xlink:href="_device_config_8h.html" target="_top" xlink:title="Node configuration options.">
<polygon fill="white" stroke="#666666" points="532.5,-134.5 442.5,-134.5 442.5,-115.5 532.5,-115.5 532.5,-134.5"/>
<text text-anchor="middle" x="487.5" y="-122.5" font-family="Helvetica,sans-Serif" font-size="10.00">DeviceConfig.h</text>
</a>
</g>
</g>
<!-- Node3&#45;&gt;Node8 -->
<g id="edge7" class="edge">
<title>Node3&#45;&gt;Node8</title>
<path fill="none" stroke="#63b8ff" d="M396.18,-175.95C416.06,-165.08 443.43,-150.11 463.01,-139.4"/>
<polygon fill="#63b8ff" stroke="#63b8ff" points="464.84,-142.39 471.93,-134.52 461.48,-136.25 464.84,-142.39"/>
</g>
<!-- Node9 -->
<g id="node9" class="node">
<title>Node9</title>
<g id="a_node9"><a xlink:title=" ">
<polygon fill="#e0e0e0" stroke="#999999" points="741,-19 678,-19 678,0 741,0 741,-19"/>
<text text-anchor="middle" x="709.5" y="-7" font-family="Helvetica,sans-Serif" font-size="10.00">Arduino.h</text>
</a>
</g>
</g>
<!-- Node8&#45;&gt;Node9 -->
<g id="edge8" class="edge">
<title>Node8&#45;&gt;Node9</title>
<path fill="none" stroke="#63b8ff" d="M486.8,-115.42C486.12,-100.83 487.03,-71.22 503.5,-55 526.35,-32.49 614.51,-19.94 667.82,-14.27"/>
<polygon fill="#63b8ff" stroke="#63b8ff" points="668.39,-17.73 677.98,-13.22 667.68,-10.76 668.39,-17.73"/>
</g>
<!-- Node10 -->
<g id="node10" class="node">
<title>Node10</title>
<g id="a_node10"><a xlink:title=" ">
<polygon fill="#e0e0e0" stroke="#999999" points="600,-74 513,-74 513,-55 600,-55 600,-74"/>
<text text-anchor="middle" x="556.5" y="-62" font-family="Helvetica,sans-Serif" font-size="10.00">ArduinoJSON.h</text>
</a>
</g>
</g>
<!-- Node8&#45;&gt;Node10 -->
<g id="edge9" class="edge">
<title>Node8&#45;&gt;Node10</title>
<path fill="none" stroke="#63b8ff" d="M497.68,-115.37C508.38,-106.3 525.44,-91.84 538.43,-80.82"/>
<polygon fill="#63b8ff" stroke="#63b8ff" points="540.91,-83.3 546.28,-74.17 536.39,-77.96 540.91,-83.3"/>
</g>
<!-- Node12 -->
<g id="node12" class="node">
<title>Node12</title>
<g id="a_node12"><a xlink:href="battery_8h.html" target="_top" xlink:title="Battery voltage and current monitoring using INA219 IC.">
<polygon fill="white" stroke="#666666" points="702,-134.5 551,-134.5 551,-115.5 702,-115.5 702,-134.5"/>
<text text-anchor="middle" x="626.5" y="-122.5" font-family="Helvetica,sans-Serif" font-size="10.00">power_monitoring/battery.h</text>
</a>
</g>
</g>
<!-- Node11&#45;&gt;Node12 -->
<g id="edge11" class="edge">
<title>Node11&#45;&gt;Node12</title>
<path fill="none" stroke="#63b8ff" d="M768.38,-181.37C739.94,-170.27 690.35,-150.92 657.98,-138.28"/>
<polygon fill="#63b8ff" stroke="#63b8ff" points="659.12,-134.97 648.53,-134.6 656.57,-141.49 659.12,-134.97"/>
</g>
<!-- Node14 -->
<g id="node14" class="node">
<title>Node14</title>
<g id="a_node14"><a xlink:href="solar_8h.html" target="_top" xlink:title="Solar voltage and current monitoring using INA219 IC.">
<polygon fill="white" stroke="#666666" points="860.5,-134.5 720.5,-134.5 720.5,-115.5 860.5,-115.5 860.5,-134.5"/>
<text text-anchor="middle" x="790.5" y="-122.5" font-family="Helvetica,sans-Serif" font-size="10.00">power_monitoring/solar.h</text>
</a>
</g>
</g>
<!-- Node11&#45;&gt;Node14 -->
<g id="edge14" class="edge">
<title>Node11&#45;&gt;Node14</title>
<path fill="none" stroke="#63b8ff" d="M790.5,-181.37C790.5,-172.16 790.5,-157.29 790.5,-145.27"/>
<polygon fill="#63b8ff" stroke="#63b8ff" points="794,-144.91 790.5,-134.91 787,-144.91 794,-144.91"/>
</g>
<!-- Node15 -->
<g id="node15" class="node">
<title>Node15</title>
<g id="a_node15"><a xlink:title=" ">
<polygon fill="#e0e0e0" stroke="#999999" points="1008.5,-140 878.5,-140 878.5,-110 1008.5,-110 1008.5,-140"/>
<text text-anchor="start" x="886.5" y="-128" font-family="Helvetica,sans-Serif" font-size="10.00">SparkFun_u&#45;blox_SARA</text>
<text text-anchor="middle" x="943.5" y="-117" font-family="Helvetica,sans-Serif" font-size="10.00">&#45;R5_Arduino_Library.h</text>
</a>
</g>
</g>
<!-- Node11&#45;&gt;Node15 -->
<g id="edge17" class="edge">
<title>Node11&#45;&gt;Node15</title>
<path fill="none" stroke="#63b8ff" d="M811.13,-181.37C833.85,-171.87 871.02,-156.32 900.2,-144.11"/>
<polygon fill="#63b8ff" stroke="#63b8ff" points="901.88,-147.2 909.75,-140.12 899.18,-140.75 901.88,-147.2"/>
</g>
<!-- Node16 -->
<g id="node16" class="node">
<title>Node16</title>
<g id="a_node16"><a xlink:href="_c_a_t___m1_8h.html" target="_top" xlink:title=" ">
<polygon fill="white" stroke="#666666" points="1092,-134.5 1027,-134.5 1027,-115.5 1092,-115.5 1092,-134.5"/>
<text text-anchor="middle" x="1059.5" y="-122.5" font-family="Helvetica,sans-Serif" font-size="10.00">CAT_M1.h</text>
</a>
</g>
</g>
<!-- Node11&#45;&gt;Node16 -->
<g id="edge18" class="edge">
<title>Node11&#45;&gt;Node16</title>
<path fill="none" stroke="#63b8ff" d="M821.22,-184.3C865.1,-175.91 948.06,-159.16 1017.5,-140 1020.12,-139.28 1022.81,-138.49 1025.52,-137.66"/>
<polygon fill="#63b8ff" stroke="#63b8ff" points="1026.74,-140.95 1035.2,-134.58 1024.61,-134.28 1026.74,-140.95"/>
</g>
<!-- Node12&#45;&gt;Node9 -->
<g id="edge12" class="edge">
<title>Node12&#45;&gt;Node9</title>
<path fill="none" stroke="#63b8ff" d="M627.36,-115.14C629.1,-101.18 634.08,-73.73 647.5,-55 656.6,-42.3 670.48,-31.86 682.79,-24.29"/>
<polygon fill="#63b8ff" stroke="#63b8ff" points="684.91,-27.11 691.81,-19.07 681.4,-21.05 684.91,-27.11"/>
</g>
<!-- Node13 -->
<g id="node13" class="node">
<title>Node13</title>
<g id="a_node13"><a xlink:title=" ">
<polygon fill="#e0e0e0" stroke="#999999" points="762,-74 657,-74 657,-55 762,-55 762,-74"/>
<text text-anchor="middle" x="709.5" y="-62" font-family="Helvetica,sans-Serif" font-size="10.00">Adafruit_INA219.h</text>
</a>
</g>
</g>
<!-- Node12&#45;&gt;Node13 -->
<g id="edge13" class="edge">
<title>Node12&#45;&gt;Node13</title>
<path fill="none" stroke="#63b8ff" d="M638.75,-115.37C651.86,-106.12 672.92,-91.28 688.65,-80.19"/>
<polygon fill="#63b8ff" stroke="#63b8ff" points="691.05,-82.79 697.2,-74.17 687.01,-77.07 691.05,-82.79"/>
</g>
<!-- Node14&#45;&gt;Node9 -->
<g id="edge15" class="edge">
<title>Node14&#45;&gt;Node9</title>
<path fill="none" stroke="#63b8ff" d="M789.77,-115.16C788.24,-101.22 783.67,-73.79 770.5,-55 761.63,-42.34 747.98,-31.9 735.85,-24.32"/>
<polygon fill="#63b8ff" stroke="#63b8ff" points="737.36,-21.15 726.96,-19.09 733.81,-27.18 737.36,-21.15"/>
</g>
<!-- Node14&#45;&gt;Node13 -->
<g id="edge16" class="edge">
<title>Node14&#45;&gt;Node13</title>
<path fill="none" stroke="#63b8ff" d="M778.55,-115.37C765.75,-106.12 745.2,-91.28 729.85,-80.19"/>
<polygon fill="#63b8ff" stroke="#63b8ff" points="731.66,-77.18 721.5,-74.17 727.56,-82.86 731.66,-77.18"/>
</g>
<!-- Node17 -->
<g id="node17" class="node">
<title>Node17</title>
<g id="a_node17"><a xlink:title=" ">
<polygon fill="#e0e0e0" stroke="#999999" points="1052.5,-19 1004.5,-19 1004.5,0 1052.5,0 1052.5,-19"/>
<text text-anchor="middle" x="1028.5" y="-7" font-family="Helvetica,sans-Serif" font-size="10.00">Wire.h</text>
</a>
</g>
</g>
<!-- Node16&#45;&gt;Node17 -->
<g id="edge19" class="edge">
<title>Node16&#45;&gt;Node17</title>
<path fill="none" stroke="#63b8ff" d="M1057.17,-115.47C1052.17,-97.15 1040.29,-53.68 1033.5,-28.81"/>
<polygon fill="#63b8ff" stroke="#63b8ff" points="1036.87,-27.85 1030.86,-19.13 1030.12,-29.7 1036.87,-27.85"/>
</g>
<!-- Node18 -->
<g id="node18" class="node">
<title>Node18</title>
<g id="a_node18"><a xlink:href="_t_c_a9534_8h.html" target="_top" xlink:title=" ">
<polygon fill="white" stroke="#666666" points="1031.5,-74 963.5,-74 963.5,-55 1031.5,-55 1031.5,-74"/>
<text text-anchor="middle" x="997.5" y="-62" font-family="Helvetica,sans-Serif" font-size="10.00">TCA9534.h</text>
</a>
</g>
</g>
<!-- Node16&#45;&gt;Node18 -->
<g id="edge20" class="edge">
<title>Node16&#45;&gt;Node18</title>
<path fill="none" stroke="#63b8ff" d="M1050.35,-115.37C1040.83,-106.38 1025.7,-92.11 1014.07,-81.14"/>
<polygon fill="#63b8ff" stroke="#63b8ff" points="1016.36,-78.48 1006.69,-74.17 1011.56,-83.58 1016.36,-78.48"/>
</g>
<!-- Node18&#45;&gt;Node9 -->
<g id="edge21" class="edge">
<title>Node18&#45;&gt;Node9</title>
<path fill="none" stroke="#63b8ff" d="M963.33,-57.21C910.45,-47.48 808.91,-28.8 751.59,-18.25"/>
<polygon fill="#63b8ff" stroke="#63b8ff" points="751.89,-14.74 741.42,-16.37 750.62,-21.63 751.89,-14.74"/>
</g>
<!-- Node18&#45;&gt;Node17 -->
<g id="edge22" class="edge">
<title>Node18&#45;&gt;Node17</title>
<path fill="none" stroke="#63b8ff" d="M1002.62,-54.75C1006.86,-47.49 1013.03,-36.95 1018.28,-27.98"/>
<polygon fill="#63b8ff" stroke="#63b8ff" points="1021.45,-29.49 1023.48,-19.09 1015.41,-25.95 1021.45,-29.49"/>
</g>
<!-- Node20 -->
<g id="node20" class="node">
<title>Node20</title>
<g id="a_node20"><a xlink:title=" ">
<polygon fill="#e0e0e0" stroke="#999999" points="1166.5,-134.5 1110.5,-134.5 1110.5,-115.5 1166.5,-115.5 1166.5,-134.5"/>
<text text-anchor="middle" x="1138.5" y="-122.5" font-family="Helvetica,sans-Serif" font-size="10.00">stddef.h</text>
</a>
</g>
</g>
<!-- Node19&#45;&gt;Node20 -->
<g id="edge24" class="edge">
<title>Node19&#45;&gt;Node20</title>
<path fill="none" stroke="#63b8ff" d="M1176.57,-181.37C1169.91,-171.69 1158.94,-155.74 1150.49,-143.44"/>
<polygon fill="#63b8ff" stroke="#63b8ff" points="1153.17,-141.16 1144.62,-134.91 1147.4,-145.13 1153.17,-141.16"/>
</g>
<!-- Node21 -->
<g id="node21" class="node">
<title>Node21</title>
<g id="a_node21"><a xlink:title=" ">
<polygon fill="#e0e0e0" stroke="#999999" points="1268,-134.5 1185,-134.5 1185,-115.5 1268,-115.5 1268,-134.5"/>
<text text-anchor="middle" x="1226.5" y="-122.5" font-family="Helvetica,sans-Serif" font-size="10.00">ArduinoJson.h</text>
</a>
</g>
</g>
<!-- Node19&#45;&gt;Node21 -->
<g id="edge25" class="edge">
<title>Node19&#45;&gt;Node21</title>
<path fill="none" stroke="#63b8ff" d="M1188.43,-181.37C1195.09,-171.69 1206.06,-155.74 1214.51,-143.44"/>
<polygon fill="#63b8ff" stroke="#63b8ff" points="1217.6,-145.13 1220.38,-134.91 1211.83,-141.16 1217.6,-145.13"/>
</g>
<!-- Node22 -->
<g id="node22" class="node">
<title>Node22</title>
<g id="a_node22"><a xlink:title=" ">
<polygon fill="#e0e0e0" stroke="#999999" points="1379,-134.5 1286,-134.5 1286,-115.5 1379,-115.5 1379,-134.5"/>
<text text-anchor="middle" x="1332.5" y="-122.5" font-family="Helvetica,sans-Serif" font-size="10.00">dpiclimate&#45;12.h</text>
</a>
</g>
</g>
<!-- Node19&#45;&gt;Node22 -->
<g id="edge26" class="edge">
<title>Node19&#45;&gt;Node22</title>
<path fill="none" stroke="#63b8ff" d="M1202.73,-181.37C1228.45,-170.39 1273.07,-151.36 1302.69,-138.72"/>
<polygon fill="#63b8ff" stroke="#63b8ff" points="1304.29,-141.84 1312.11,-134.7 1301.54,-135.4 1304.29,-141.84"/>
</g>
</g>
</svg>
