<?xml version="1.0" encoding="UTF-8" standalone="no"?>
<!DOCTYPE svg PUBLIC "-//W3C//DTD SVG 1.1//EN"
 "http://www.w3.org/Graphics/SVG/1.1/DTD/svg11.dtd">
<!-- Generated by graphviz version 2.43.0 (0)
 -->
<!-- Title: firmware/wombat/src/cli/device_config/acquisition_intervals.cpp Pages: 1 -->
<svg width="996pt" height="291pt"
 viewBox="0.00 0.00 996.00 291.00" xmlns="http://www.w3.org/2000/svg" xmlns:xlink="http://www.w3.org/1999/xlink">
<g id="graph0" class="graph" transform="scale(1 1) rotate(0) translate(4 287)">
<title>firmware/wombat/src/cli/device_config/acquisition_intervals.cpp</title>
<!-- Node1 -->
<g id="node1" class="node">
<title>Node1</title>
<g id="a_node1"><a xlink:title="Handles the time between measurements and uplinks by the device over LTE.">
<polygon fill="#999999" stroke="#666666" points="571,-283 414,-283 414,-242 571,-242 571,-283"/>
<text text-anchor="start" x="422" y="-271" font-family="Helvetica,sans-Serif" font-size="10.00">firmware/wombat/src</text>
<text text-anchor="start" x="422" y="-260" font-family="Helvetica,sans-Serif" font-size="10.00">/cli/device_config/acquisition</text>
<text text-anchor="middle" x="492.5" y="-249" font-family="Helvetica,sans-Serif" font-size="10.00">_intervals.cpp</text>
</a>
</g>
</g>
<!-- Node2 -->
<g id="node2" class="node">
<title>Node2</title>
<g id="a_node2"><a xlink:title=" ">
<polygon fill="#e0e0e0" stroke="#999999" points="275,-200.5 222,-200.5 222,-181.5 275,-181.5 275,-200.5"/>
<text text-anchor="middle" x="248.5" y="-188.5" font-family="Helvetica,sans-Serif" font-size="10.00">stdlib.h</text>
</a>
</g>
</g>
<!-- Node1&#45;&gt;Node2 -->
<g id="edge1" class="edge">
<title>Node1&#45;&gt;Node2</title>
<path fill="none" stroke="#63b8ff" d="M413.87,-242.7C374.69,-232.78 326.78,-219.81 284.5,-206 282.64,-205.39 280.73,-204.74 278.81,-204.06"/>
<polygon fill="#63b8ff" stroke="#63b8ff" points="279.89,-200.73 269.3,-200.54 277.46,-207.29 279.89,-200.73"/>
</g>
<!-- Node3 -->
<g id="node3" class="node">
<title>Node3</title>
<g id="a_node3"><a xlink:href="acquisition__intervals_8h.html" target="_top" xlink:title="Handles the time between measurements and uplinks by the device over LTE.">
<polygon fill="white" stroke="#666666" points="447.5,-206 293.5,-206 293.5,-176 447.5,-176 447.5,-206"/>
<text text-anchor="start" x="301.5" y="-194" font-family="Helvetica,sans-Serif" font-size="10.00">cli/device_config/acquisition</text>
<text text-anchor="middle" x="370.5" y="-183" font-family="Helvetica,sans-Serif" font-size="10.00">_intervals.h</text>
</a>
</g>
</g>
<!-- Node1&#45;&gt;Node3 -->
<g id="edge2" class="edge">
<title>Node1&#45;&gt;Node3</title>
<path fill="none" stroke="#63b8ff" d="M458.19,-241.96C441.3,-232.33 421.02,-220.78 404.21,-211.2"/>
<polygon fill="#63b8ff" stroke="#63b8ff" points="405.69,-208.02 395.27,-206.11 402.23,-214.1 405.69,-208.02"/>
</g>
<!-- Node11 -->
<g id="node11" class="node">
<title>Node11</title>
<g id="a_node11"><a xlink:href="globals_8h.html" target="_top" xlink:title=" ">
<polygon fill="white" stroke="#666666" points="646,-200.5 585,-200.5 585,-181.5 646,-181.5 646,-200.5"/>
<text text-anchor="middle" x="615.5" y="-188.5" font-family="Helvetica,sans-Serif" font-size="10.00">globals.h</text>
</a>
</g>
</g>
<!-- Node1&#45;&gt;Node11 -->
<g id="edge10" class="edge">
<title>Node1&#45;&gt;Node11</title>
<path fill="none" stroke="#63b8ff" d="M527.09,-241.96C547.66,-230.33 573.24,-215.88 591.58,-205.51"/>
<polygon fill="#63b8ff" stroke="#63b8ff" points="593.47,-208.47 600.45,-200.5 590.02,-202.38 593.47,-208.47"/>
</g>
<!-- Node16 -->
<g id="node16" class="node">
<title>Node16</title>
<g id="a_node16"><a xlink:href="_utils_8h.html" target="_top" xlink:title=" ">
<polygon fill="white" stroke="#666666" points="802.5,-200.5 754.5,-200.5 754.5,-181.5 802.5,-181.5 802.5,-200.5"/>
<text text-anchor="middle" x="778.5" y="-188.5" font-family="Helvetica,sans-Serif" font-size="10.00">Utils.h</text>
</a>
</g>
</g>
<!-- Node1&#45;&gt;Node16 -->
<g id="edge17" class="edge">
<title>Node1&#45;&gt;Node16</title>
<path fill="none" stroke="#63b8ff" d="M571.03,-242.42C627.86,-228.61 701.87,-210.62 744.4,-200.29"/>
<polygon fill="#63b8ff" stroke="#63b8ff" points="745.35,-203.66 754.24,-197.89 743.7,-196.85 745.35,-203.66"/>
</g>
<!-- Node4 -->
<g id="node4" class="node">
<title>Node4</title>
<g id="a_node4"><a xlink:title=" ">
<polygon fill="#e0e0e0" stroke="#999999" points="113,-134.5 0,-134.5 0,-115.5 113,-115.5 113,-134.5"/>
<text text-anchor="middle" x="56.5" y="-122.5" font-family="Helvetica,sans-Serif" font-size="10.00">freertos/FreeRTOS.h</text>
</a>
</g>
</g>
<!-- Node3&#45;&gt;Node4 -->
<g id="edge3" class="edge">
<title>Node3&#45;&gt;Node4</title>
<path fill="none" stroke="#63b8ff" d="M299.34,-175.99C249.51,-166.1 181.39,-152.46 121.5,-140 116.4,-138.94 111.09,-137.82 105.78,-136.69"/>
<polygon fill="#63b8ff" stroke="#63b8ff" points="106.18,-133.2 95.67,-134.53 104.71,-140.04 106.18,-133.2"/>
</g>
<!-- Node5 -->
<g id="node5" class="node">
<title>Node5</title>
<g id="a_node5"><a xlink:title=" ">
<polygon fill="#e0e0e0" stroke="#999999" points="192,-134.5 131,-134.5 131,-115.5 192,-115.5 192,-134.5"/>
<text text-anchor="middle" x="161.5" y="-122.5" font-family="Helvetica,sans-Serif" font-size="10.00">Stream.h</text>
</a>
</g>
</g>
<!-- Node3&#45;&gt;Node5 -->
<g id="edge4" class="edge">
<title>Node3&#45;&gt;Node5</title>
<path fill="none" stroke="#63b8ff" d="M319.68,-175.89C285.77,-166.28 240.28,-152.98 200.5,-140 198.39,-139.31 196.22,-138.58 194.04,-137.84"/>
<polygon fill="#63b8ff" stroke="#63b8ff" points="195.11,-134.51 184.52,-134.52 192.81,-141.12 195.11,-134.51"/>
</g>
<!-- Node6 -->
<g id="node6" class="node">
<title>Node6</title>
<g id="a_node6"><a xlink:title=" ">
<polygon fill="#e0e0e0" stroke="#999999" points="299,-134.5 210,-134.5 210,-115.5 299,-115.5 299,-134.5"/>
<text text-anchor="middle" x="254.5" y="-122.5" font-family="Helvetica,sans-Serif" font-size="10.00">StreamString.h</text>
</a>
</g>
</g>
<!-- Node3&#45;&gt;Node6 -->
<g id="edge5" class="edge">
<title>Node3&#45;&gt;Node6</title>
<path fill="none" stroke="#63b8ff" d="M345.04,-175.95C325.33,-165.08 298.19,-150.11 278.78,-139.4"/>
<polygon fill="#63b8ff" stroke="#63b8ff" points="280.38,-136.28 269.94,-134.52 277,-142.41 280.38,-136.28"/>
</g>
<!-- Node7 -->
<g id="node7" class="node">
<title>Node7</title>
<g id="a_node7"><a xlink:title=" ">
<polygon fill="#e0e0e0" stroke="#999999" points="424,-134.5 317,-134.5 317,-115.5 424,-115.5 424,-134.5"/>
<text text-anchor="middle" x="370.5" y="-122.5" font-family="Helvetica,sans-Serif" font-size="10.00">cli/FreeRTOS_CLI.h</text>
</a>
</g>
</g>
<!-- Node3&#45;&gt;Node7 -->
<g id="edge6" class="edge">
<title>Node3&#45;&gt;Node7</title>
<path fill="none" stroke="#63b8ff" d="M370.5,-175.8C370.5,-166.7 370.5,-154.79 370.5,-144.9"/>
<polygon fill="#63b8ff" stroke="#63b8ff" points="374,-144.84 370.5,-134.84 367,-144.84 374,-144.84"/>
</g>
<!-- Node8 -->
<g id="node8" class="node">
<title>Node8</title>
<g id="a_node8"><a xlink:href="_device_config_8h.html" target="_top" xlink:title="Node configuration options.">
<polygon fill="white" stroke="#666666" points="532.5,-134.5 442.5,-134.5 442.5,-115.5 532.5,-115.5 532.5,-134.5"/>
<text text-anchor="middle" x="487.5" y="-122.5" font-family="Helvetica,sans-Serif" font-size="10.00">DeviceConfig.h</text>
</a>
</g>
</g>
<!-- Node3&#45;&gt;Node8 -->
<g id="edge7" class="edge">
<title>Node3&#45;&gt;Node8</title>
<path fill="none" stroke="#63b8ff" d="M396.18,-175.95C416.06,-165.08 443.43,-150.11 463.01,-139.4"/>
<polygon fill="#63b8ff" stroke="#63b8ff" points="464.84,-142.39 471.93,-134.52 461.48,-136.25 464.84,-142.39"/>
</g>
<!-- Node9 -->
<g id="node9" class="node">
<title>Node9</title>
<g id="a_node9"><a xlink:title=" ">
<polygon fill="#e0e0e0" stroke="#999999" points="630,-19 567,-19 567,0 630,0 630,-19"/>
<text text-anchor="middle" x="598.5" y="-7" font-family="Helvetica,sans-Serif" font-size="10.00">Arduino.h</text>
</a>
</g>
</g>
<!-- Node8&#45;&gt;Node9 -->
<g id="edge8" class="edge">
<title>Node8&#45;&gt;Node9</title>
<path fill="none" stroke="#63b8ff" d="M494.69,-115.2C505.79,-101.79 527.96,-75.61 548.5,-55 558.65,-44.81 570.67,-34.08 580.38,-25.7"/>
<polygon fill="#63b8ff" stroke="#63b8ff" points="582.88,-28.18 588.22,-19.02 578.34,-22.85 582.88,-28.18"/>
</g>
<!-- Node10 -->
<g id="node10" class="node">
<title>Node10</title>
<g id="a_node10"><a xlink:title=" ">
<polygon fill="#e0e0e0" stroke="#999999" points="641,-74 558,-74 558,-55 641,-55 641,-74"/>
<text text-anchor="middle" x="599.5" y="-62" font-family="Helvetica,sans-Serif" font-size="10.00">ArduinoJson.h</text>
</a>
</g>
</g>
<!-- Node8&#45;&gt;Node10 -->
<g id="edge9" class="edge">
<title>Node8&#45;&gt;Node10</title>
<path fill="none" stroke="#63b8ff" d="M504.03,-115.37C522.47,-105.73 552.54,-90.03 574.01,-78.81"/>
<polygon fill="#63b8ff" stroke="#63b8ff" points="575.66,-81.9 582.91,-74.17 572.42,-75.69 575.66,-81.9"/>
</g>
<!-- Node12 -->
<g id="node12" class="node">
<title>Node12</title>
<g id="a_node12"><a xlink:title=" ">
<polygon fill="#e0e0e0" stroke="#999999" points="680.5,-140 550.5,-140 550.5,-110 680.5,-110 680.5,-140"/>
<text text-anchor="start" x="558.5" y="-128" font-family="Helvetica,sans-Serif" font-size="10.00">SparkFun_u&#45;blox_SARA</text>
<text text-anchor="middle" x="615.5" y="-117" font-family="Helvetica,sans-Serif" font-size="10.00">&#45;R5_Arduino_Library.h</text>
</a>
</g>
</g>
<!-- Node11&#45;&gt;Node12 -->
<g id="edge11" class="edge">
<title>Node11&#45;&gt;Node12</title>
<path fill="none" stroke="#63b8ff" d="M615.5,-181.37C615.5,-173.49 615.5,-161.45 615.5,-150.6"/>
<polygon fill="#63b8ff" stroke="#63b8ff" points="619,-150.36 615.5,-140.36 612,-150.36 619,-150.36"/>
</g>
<!-- Node13 -->
<g id="node13" class="node">
<title>Node13</title>
<g id="a_node13"><a xlink:href="_c_a_t___m1_8h.html" target="_top" xlink:title=" ">
<polygon fill="white" stroke="#666666" points="802,-134.5 737,-134.5 737,-115.5 802,-115.5 802,-134.5"/>
<text text-anchor="middle" x="769.5" y="-122.5" font-family="Helvetica,sans-Serif" font-size="10.00">CAT_M1.h</text>
</a>
</g>
</g>
<!-- Node11&#45;&gt;Node13 -->
<g id="edge12" class="edge">
<title>Node11&#45;&gt;Node13</title>
<path fill="none" stroke="#63b8ff" d="M636.27,-181.37C662.79,-170.35 708.88,-151.19 739.29,-138.55"/>
<polygon fill="#63b8ff" stroke="#63b8ff" points="740.68,-141.77 748.57,-134.7 737.99,-135.3 740.68,-141.77"/>
</g>
<!-- Node14 -->
<g id="node14" class="node">
<title>Node14</title>
<g id="a_node14"><a xlink:title=" ">
<polygon fill="#e0e0e0" stroke="#999999" points="762.5,-19 714.5,-19 714.5,0 762.5,0 762.5,-19"/>
<text text-anchor="middle" x="738.5" y="-7" font-family="Helvetica,sans-Serif" font-size="10.00">Wire.h</text>
</a>
</g>
</g>
<!-- Node13&#45;&gt;Node14 -->
<g id="edge13" class="edge">
<title>Node13&#45;&gt;Node14</title>
<path fill="none" stroke="#63b8ff" d="M767.17,-115.47C762.17,-97.15 750.29,-53.68 743.5,-28.81"/>
<polygon fill="#63b8ff" stroke="#63b8ff" points="746.87,-27.85 740.86,-19.13 740.12,-29.7 746.87,-27.85"/>
</g>
<!-- Node15 -->
<g id="node15" class="node">
<title>Node15</title>
<g id="a_node15"><a xlink:href="_t_c_a9534_8h.html" target="_top" xlink:title=" ">
<polygon fill="white" stroke="#666666" points="741.5,-74 673.5,-74 673.5,-55 741.5,-55 741.5,-74"/>
<text text-anchor="middle" x="707.5" y="-62" font-family="Helvetica,sans-Serif" font-size="10.00">TCA9534.h</text>
</a>
</g>
</g>
<!-- Node13&#45;&gt;Node15 -->
<g id="edge14" class="edge">
<title>Node13&#45;&gt;Node15</title>
<path fill="none" stroke="#63b8ff" d="M760.35,-115.37C750.83,-106.38 735.7,-92.11 724.07,-81.14"/>
<polygon fill="#63b8ff" stroke="#63b8ff" points="726.36,-78.48 716.69,-74.17 721.56,-83.58 726.36,-78.48"/>
</g>
<!-- Node15&#45;&gt;Node9 -->
<g id="edge15" class="edge">
<title>Node15&#45;&gt;Node9</title>
<path fill="none" stroke="#63b8ff" d="M689.99,-54.98C672.53,-46.5 645.49,-33.35 625.33,-23.54"/>
<polygon fill="#63b8ff" stroke="#63b8ff" points="626.86,-20.4 616.33,-19.17 623.79,-26.69 626.86,-20.4"/>
</g>
<!-- Node15&#45;&gt;Node14 -->
<g id="edge16" class="edge">
<title>Node15&#45;&gt;Node14</title>
<path fill="none" stroke="#63b8ff" d="M712.62,-54.75C716.86,-47.49 723.03,-36.95 728.28,-27.98"/>
<polygon fill="#63b8ff" stroke="#63b8ff" points="731.45,-29.49 733.48,-19.09 725.41,-25.95 731.45,-29.49"/>
</g>
<!-- Node16&#45;&gt;Node10 -->
<g id="edge19" class="edge">
<title>Node16&#45;&gt;Node10</title>
<path fill="none" stroke="#63b8ff" d="M769.49,-181.32C750.46,-163.09 706.53,-121.54 689.5,-110 670.87,-97.37 648.15,-86.17 630.19,-78.16"/>
<polygon fill="#63b8ff" stroke="#63b8ff" points="631.33,-74.83 620.76,-74.05 628.53,-81.25 631.33,-74.83"/>
</g>
<!-- Node17 -->
<g id="node17" class="node">
<title>Node17</title>
<g id="a_node17"><a xlink:title=" ">
<polygon fill="#e0e0e0" stroke="#999999" points="876.5,-134.5 820.5,-134.5 820.5,-115.5 876.5,-115.5 876.5,-134.5"/>
<text text-anchor="middle" x="848.5" y="-122.5" font-family="Helvetica,sans-Serif" font-size="10.00">stddef.h</text>
</a>
</g>
</g>
<!-- Node16&#45;&gt;Node17 -->
<g id="edge18" class="edge">
<title>Node16&#45;&gt;Node17</title>
<path fill="none" stroke="#63b8ff" d="M787.94,-181.37C799.05,-171.21 817.7,-154.16 831.38,-141.65"/>
<polygon fill="#63b8ff" stroke="#63b8ff" points="833.74,-144.24 838.76,-134.91 829.02,-139.07 833.74,-144.24"/>
</g>
<!-- Node18 -->
<g id="node18" class="node">
<title>Node18</title>
<g id="a_node18"><a xlink:title=" ">
<polygon fill="#e0e0e0" stroke="#999999" points="988,-134.5 895,-134.5 895,-115.5 988,-115.5 988,-134.5"/>
<text text-anchor="middle" x="941.5" y="-122.5" font-family="Helvetica,sans-Serif" font-size="10.00">dpiclimate&#45;12.h</text>
</a>
</g>
</g>
<!-- Node16&#45;&gt;Node18 -->
<g id="edge20" class="edge">
<title>Node16&#45;&gt;Node18</title>
<path fill="none" stroke="#63b8ff" d="M800.48,-181.37C828.75,-170.27 878.04,-150.92 910.21,-138.28"/>
<polygon fill="#63b8ff" stroke="#63b8ff" points="911.58,-141.51 919.61,-134.6 909.02,-134.99 911.58,-141.51"/>
</g>
</g>
</svg>
