<?xml version="1.0" encoding="UTF-8" standalone="no"?>
<!DOCTYPE svg PUBLIC "-//W3C//DTD SVG 1.1//EN"
 "http://www.w3.org/Graphics/SVG/1.1/DTD/svg11.dtd">
<!-- Generated by graphviz version 2.43.0 (0)
 -->
<!-- Title: firmware/wombat/include/cli/device_config/acquisition_intervals.h Pages: 1 -->
<svg width="585pt" height="159pt"
 viewBox="0.00 0.00 585.00 159.00" xmlns="http://www.w3.org/2000/svg" xmlns:xlink="http://www.w3.org/1999/xlink">
<g id="graph0" class="graph" transform="scale(1 1) rotate(0) translate(4 155)">
<title>firmware/wombat/include/cli/device_config/acquisition_intervals.h</title>
<!-- Node1 -->
<g id="node1" class="node">
<title>Node1</title>
<g id="a_node1"><a xlink:title="Handles the time between measurements and uplinks by the device over LTE.">
<polygon fill="#999999" stroke="#666666" points="333,-151 176,-151 176,-110 333,-110 333,-151"/>
<text text-anchor="start" x="184" y="-139" font-family="Helvetica,sans-Serif" font-size="10.00">firmware/wombat/include</text>
<text text-anchor="start" x="184" y="-128" font-family="Helvetica,sans-Serif" font-size="10.00">/cli/device_config/acquisition</text>
<text text-anchor="middle" x="254.5" y="-117" font-family="Helvetica,sans-Serif" font-size="10.00">_intervals.h</text>
</a>
</g>
</g>
<!-- Node2 -->
<g id="node2" class="node">
<title>Node2</title>
<g id="a_node2"><a xlink:title=" ">
<polygon fill="#e0e0e0" stroke="#999999" points="113,-74 0,-74 0,-55 113,-55 113,-74"/>
<text text-anchor="middle" x="56.5" y="-62" font-family="Helvetica,sans-Serif" font-size="10.00">freertos/FreeRTOS.h</text>
</a>
</g>
</g>
<!-- Node1&#45;&gt;Node2 -->
<g id="edge1" class="edge">
<title>Node1&#45;&gt;Node2</title>
<path fill="none" stroke="#63b8ff" d="M194.02,-109.95C160.9,-99.24 120.96,-86.34 92.68,-77.19"/>
<polygon fill="#63b8ff" stroke="#63b8ff" points="93.41,-73.75 82.82,-74.01 91.26,-80.41 93.41,-73.75"/>
</g>
<!-- Node3 -->
<g id="node3" class="node">
<title>Node3</title>
<g id="a_node3"><a xlink:title=" ">
<polygon fill="#e0e0e0" stroke="#999999" points="192,-74 131,-74 131,-55 192,-55 192,-74"/>
<text text-anchor="middle" x="161.5" y="-62" font-family="Helvetica,sans-Serif" font-size="10.00">Stream.h</text>
</a>
</g>
</g>
<!-- Node1&#45;&gt;Node3 -->
<g id="edge2" class="edge">
<title>Node1&#45;&gt;Node3</title>
<path fill="none" stroke="#63b8ff" d="M226.09,-109.95C212.16,-100.37 195.67,-89.02 182.84,-80.19"/>
<polygon fill="#63b8ff" stroke="#63b8ff" points="184.45,-77.05 174.23,-74.26 180.48,-82.81 184.45,-77.05"/>
</g>
<!-- Node4 -->
<g id="node4" class="node">
<title>Node4</title>
<g id="a_node4"><a xlink:title=" ">
<polygon fill="#e0e0e0" stroke="#999999" points="299,-74 210,-74 210,-55 299,-55 299,-74"/>
<text text-anchor="middle" x="254.5" y="-62" font-family="Helvetica,sans-Serif" font-size="10.00">StreamString.h</text>
</a>
</g>
</g>
<!-- Node1&#45;&gt;Node4 -->
<g id="edge3" class="edge">
<title>Node1&#45;&gt;Node4</title>
<path fill="none" stroke="#63b8ff" d="M254.5,-109.95C254.5,-101.85 254.5,-92.5 254.5,-84.47"/>
<polygon fill="#63b8ff" stroke="#63b8ff" points="258,-84.26 254.5,-74.26 251,-84.26 258,-84.26"/>
</g>
<!-- Node5 -->
<g id="node5" class="node">
<title>Node5</title>
<g id="a_node5"><a xlink:title=" ">
<polygon fill="#e0e0e0" stroke="#999999" points="424,-74 317,-74 317,-55 424,-55 424,-74"/>
<text text-anchor="middle" x="370.5" y="-62" font-family="Helvetica,sans-Serif" font-size="10.00">cli/FreeRTOS_CLI.h</text>
</a>
</g>
</g>
<!-- Node1&#45;&gt;Node5 -->
<g id="edge4" class="edge">
<title>Node1&#45;&gt;Node5</title>
<path fill="none" stroke="#63b8ff" d="M289.93,-109.95C308.09,-99.93 329.74,-87.99 346.03,-79"/>
<polygon fill="#63b8ff" stroke="#63b8ff" points="347.86,-81.99 354.93,-74.09 344.48,-75.86 347.86,-81.99"/>
</g>
<!-- Node6 -->
<g id="node6" class="node">
<title>Node6</title>
<g id="a_node6"><a xlink:href="_device_config_8h.html" target="_top" xlink:title=" ">
<polygon fill="white" stroke="#666666" points="532.5,-74 442.5,-74 442.5,-55 532.5,-55 532.5,-74"/>
<text text-anchor="middle" x="487.5" y="-62" font-family="Helvetica,sans-Serif" font-size="10.00">DeviceConfig.h</text>
</a>
</g>
</g>
<!-- Node1&#45;&gt;Node6 -->
<g id="edge5" class="edge">
<title>Node1&#45;&gt;Node6</title>
<path fill="none" stroke="#63b8ff" d="M325.67,-109.95C365.33,-99.06 413.3,-85.88 446.66,-76.72"/>
<polygon fill="#63b8ff" stroke="#63b8ff" points="447.81,-80.03 456.53,-74.01 445.96,-73.28 447.81,-80.03"/>
</g>
<!-- Node7 -->
<g id="node7" class="node">
<title>Node7</title>
<g id="a_node7"><a xlink:title=" ">
<polygon fill="#e0e0e0" stroke="#999999" points="472,-19 409,-19 409,0 472,0 472,-19"/>
<text text-anchor="middle" x="440.5" y="-7" font-family="Helvetica,sans-Serif" font-size="10.00">Arduino.h</text>
</a>
</g>
</g>
<!-- Node6&#45;&gt;Node7 -->
<g id="edge6" class="edge">
<title>Node6&#45;&gt;Node7</title>
<path fill="none" stroke="#63b8ff" d="M479.74,-54.75C473.03,-47.18 463.16,-36.05 454.99,-26.84"/>
<polygon fill="#63b8ff" stroke="#63b8ff" points="457.37,-24.25 448.12,-19.09 452.13,-28.89 457.37,-24.25"/>
</g>
<!-- Node8 -->
<g id="node8" class="node">
<title>Node8</title>
<g id="a_node8"><a xlink:title=" ">
<polygon fill="#e0e0e0" stroke="#999999" points="577,-19 490,-19 490,0 577,0 577,-19"/>
<text text-anchor="middle" x="533.5" y="-7" font-family="Helvetica,sans-Serif" font-size="10.00">ArduinoJSON.h</text>
</a>
</g>
</g>
<!-- Node6&#45;&gt;Node8 -->
<g id="edge7" class="edge">
<title>Node6&#45;&gt;Node8</title>
<path fill="none" stroke="#63b8ff" d="M495.1,-54.75C501.66,-47.18 511.32,-36.05 519.31,-26.84"/>
<polygon fill="#63b8ff" stroke="#63b8ff" points="522.13,-28.94 526.05,-19.09 516.85,-24.35 522.13,-28.94"/>
</g>
</g>
</svg>
