<?xml version="1.0" encoding="UTF-8" standalone="no"?>
<!DOCTYPE svg PUBLIC "-//W3C//DTD SVG 1.1//EN"
 "http://www.w3.org/Graphics/SVG/1.1/DTD/svg11.dtd">
<!-- Generated by graphviz version 2.43.0 (0)
 -->
<!-- Title: firmware/wombat/src/cli/device_config/acquisition_intervals.cpp Pages: 1 -->
<svg width="1324pt" height="456pt"
 viewBox="0.00 0.00 1323.50 456.00" xmlns="http://www.w3.org/2000/svg" xmlns:xlink="http://www.w3.org/1999/xlink">
<g id="graph0" class="graph" transform="scale(1 1) rotate(0) translate(4 452)">
<title>firmware/wombat/src/cli/device_config/acquisition_intervals.cpp</title>
<!-- Node1 -->
<g id="node1" class="node">
<title>Node1</title>
<g id="a_node1"><a xlink:title="Handles the time between measurements and uplinks by the device over LTE.">
<polygon fill="#999999" stroke="#666666" points="833,-448 676,-448 676,-407 833,-407 833,-448"/>
<text text-anchor="start" x="684" y="-436" font-family="Helvetica,sans-Serif" font-size="10.00">firmware/wombat/src</text>
<text text-anchor="start" x="684" y="-425" font-family="Helvetica,sans-Serif" font-size="10.00">/cli/device_config/acquisition</text>
<text text-anchor="middle" x="754.5" y="-414" font-family="Helvetica,sans-Serif" font-size="10.00">_intervals.cpp</text>
</a>
</g>
</g>
<!-- Node2 -->
<g id="node2" class="node">
<title>Node2</title>
<g id="a_node2"><a xlink:title=" ">
<polygon fill="#e0e0e0" stroke="#999999" points="670,-371 617,-371 617,-352 670,-352 670,-371"/>
<text text-anchor="middle" x="643.5" y="-359" font-family="Helvetica,sans-Serif" font-size="10.00">stdlib.h</text>
</a>
</g>
</g>
<!-- Node1&#45;&gt;Node2 -->
<g id="edge1" class="edge">
<title>Node1&#45;&gt;Node2</title>
<path fill="none" stroke="#63b8ff" d="M720.59,-406.95C703.38,-397.03 682.89,-385.21 667.36,-376.25"/>
<polygon fill="#63b8ff" stroke="#63b8ff" points="668.81,-373.05 658.4,-371.09 665.32,-379.12 668.81,-373.05"/>
</g>
<!-- Node3 -->
<g id="node3" class="node">
<title>Node3</title>
<g id="a_node3"><a xlink:href="acquisition__intervals_8h.html" target="_top" xlink:title="Handles the time between measurements and uplinks by the device over LTE.">
<polygon fill="white" stroke="#666666" points="731.5,-316 577.5,-316 577.5,-286 731.5,-286 731.5,-316"/>
<text text-anchor="start" x="585.5" y="-304" font-family="Helvetica,sans-Serif" font-size="10.00">cli/device_config/acquisition</text>
<text text-anchor="middle" x="654.5" y="-293" font-family="Helvetica,sans-Serif" font-size="10.00">_intervals.h</text>
</a>
</g>
</g>
<!-- Node1&#45;&gt;Node3 -->
<g id="edge2" class="edge">
<title>Node1&#45;&gt;Node3</title>
<path fill="none" stroke="#63b8ff" d="M738.65,-406.77C720.6,-384.3 691.18,-347.67 672.34,-324.21"/>
<polygon fill="#63b8ff" stroke="#63b8ff" points="674.91,-321.82 665.92,-316.21 669.45,-326.2 674.91,-321.82"/>
</g>
<!-- Node11 -->
<g id="node11" class="node">
<title>Node11</title>
<g id="a_node11"><a xlink:href="globals_8h.html" target="_top" xlink:title=" ">
<polygon fill="white" stroke="#666666" points="1287,-195 1226,-195 1226,-176 1287,-176 1287,-195"/>
<text text-anchor="middle" x="1256.5" y="-183" font-family="Helvetica,sans-Serif" font-size="10.00">globals.h</text>
</a>
</g>
</g>
<!-- Node1&#45;&gt;Node11 -->
<g id="edge10" class="edge">
<title>Node1&#45;&gt;Node11</title>
<path fill="none" stroke="#63b8ff" d="M833.05,-424.36C908.91,-420.06 1025.9,-407.46 1120.5,-371 1161.79,-355.09 1175.43,-350.21 1203.5,-316 1231.14,-282.31 1246.07,-232.25 1252.53,-205.31"/>
<polygon fill="#63b8ff" stroke="#63b8ff" points="1256,-205.81 1254.79,-195.29 1249.17,-204.27 1256,-205.81"/>
</g>
<!-- Node16 -->
<g id="node16" class="node">
<title>Node16</title>
<g id="a_node16"><a xlink:href="_utils_8h.html" target="_top" xlink:title=" ">
<polygon fill="white" stroke="#666666" points="1183.5,-250 1135.5,-250 1135.5,-231 1183.5,-231 1183.5,-250"/>
<text text-anchor="middle" x="1159.5" y="-238" font-family="Helvetica,sans-Serif" font-size="10.00">Utils.h</text>
</a>
</g>
</g>
<!-- Node1&#45;&gt;Node16 -->
<g id="edge17" class="edge">
<title>Node1&#45;&gt;Node16</title>
<path fill="none" stroke="#63b8ff" d="M833.13,-417.88C945.81,-403.73 1144.43,-371.45 1187.5,-316 1200.95,-298.69 1186.98,-274.23 1174.41,-258.12"/>
<polygon fill="#63b8ff" stroke="#63b8ff" points="1176.84,-255.58 1167.75,-250.13 1171.46,-260.06 1176.84,-255.58"/>
</g>
<!-- Node19 -->
<g id="node19" class="node">
<title>Node19</title>
<g id="a_node19"><a xlink:href="_c_l_i_8h.html" target="_top" xlink:title="FreeRTOS CLI handler.">
<polygon fill="white" stroke="#666666" points="782,-371 727,-371 727,-352 782,-352 782,-371"/>
<text text-anchor="middle" x="754.5" y="-359" font-family="Helvetica,sans-Serif" font-size="10.00">cli/CLI.h</text>
</a>
</g>
</g>
<!-- Node1&#45;&gt;Node19 -->
<g id="edge22" class="edge">
<title>Node1&#45;&gt;Node19</title>
<path fill="none" stroke="#63b8ff" d="M754.5,-406.95C754.5,-398.85 754.5,-389.5 754.5,-381.47"/>
<polygon fill="#63b8ff" stroke="#63b8ff" points="758,-381.26 754.5,-371.26 751,-381.26 758,-381.26"/>
</g>
<!-- Node4 -->
<g id="node4" class="node">
<title>Node4</title>
<g id="a_node4"><a xlink:title=" ">
<polygon fill="#e0e0e0" stroke="#999999" points="649,-250 536,-250 536,-231 649,-231 649,-250"/>
<text text-anchor="middle" x="592.5" y="-238" font-family="Helvetica,sans-Serif" font-size="10.00">freertos/FreeRTOS.h</text>
</a>
</g>
</g>
<!-- Node3&#45;&gt;Node4 -->
<g id="edge3" class="edge">
<title>Node3&#45;&gt;Node4</title>
<path fill="none" stroke="#63b8ff" d="M639.49,-285.84C630.31,-277.17 618.55,-266.08 609.09,-257.15"/>
<polygon fill="#63b8ff" stroke="#63b8ff" points="611.47,-254.58 601.79,-250.27 606.66,-259.67 611.47,-254.58"/>
</g>
<!-- Node5 -->
<g id="node5" class="node">
<title>Node5</title>
<g id="a_node5"><a xlink:title=" ">
<polygon fill="#e0e0e0" stroke="#999999" points="767,-250 706,-250 706,-231 767,-231 767,-250"/>
<text text-anchor="middle" x="736.5" y="-238" font-family="Helvetica,sans-Serif" font-size="10.00">Stream.h</text>
</a>
</g>
</g>
<!-- Node3&#45;&gt;Node5 -->
<g id="edge4" class="edge">
<title>Node3&#45;&gt;Node5</title>
<path fill="none" stroke="#63b8ff" d="M674.35,-285.84C686.98,-276.83 703.3,-265.18 716.05,-256.09"/>
<polygon fill="#63b8ff" stroke="#63b8ff" points="718.1,-258.92 724.21,-250.27 714.04,-253.22 718.1,-258.92"/>
</g>
<!-- Node6 -->
<g id="node6" class="node">
<title>Node6</title>
<g id="a_node6"><a xlink:title=" ">
<polygon fill="#e0e0e0" stroke="#999999" points="874,-250 785,-250 785,-231 874,-231 874,-250"/>
<text text-anchor="middle" x="829.5" y="-238" font-family="Helvetica,sans-Serif" font-size="10.00">StreamString.h</text>
</a>
</g>
</g>
<!-- Node3&#45;&gt;Node6 -->
<g id="edge5" class="edge">
<title>Node3&#45;&gt;Node6</title>
<path fill="none" stroke="#63b8ff" d="M696.42,-285.99C726.23,-276.02 765.83,-262.78 794.06,-253.35"/>
<polygon fill="#63b8ff" stroke="#63b8ff" points="795.54,-256.54 803.91,-250.05 793.32,-249.9 795.54,-256.54"/>
</g>
<!-- Node7 -->
<g id="node7" class="node">
<title>Node7</title>
<g id="a_node7"><a xlink:title=" ">
<polygon fill="#e0e0e0" stroke="#999999" points="999,-250 892,-250 892,-231 999,-231 999,-250"/>
<text text-anchor="middle" x="945.5" y="-238" font-family="Helvetica,sans-Serif" font-size="10.00">cli/FreeRTOS_CLI.h</text>
</a>
</g>
</g>
<!-- Node3&#45;&gt;Node7 -->
<g id="edge6" class="edge">
<title>Node3&#45;&gt;Node7</title>
<path fill="none" stroke="#63b8ff" d="M724.2,-285.99C776.05,-275.56 845.72,-261.56 892.94,-252.07"/>
<polygon fill="#63b8ff" stroke="#63b8ff" points="893.84,-255.46 902.95,-250.05 892.46,-248.59 893.84,-255.46"/>
</g>
<!-- Node8 -->
<g id="node8" class="node">
<title>Node8</title>
<g id="a_node8"><a xlink:href="_device_config_8h.html" target="_top" xlink:title="Node configuration options.">
<polygon fill="white" stroke="#666666" points="409.5,-250 319.5,-250 319.5,-231 409.5,-231 409.5,-250"/>
<text text-anchor="middle" x="364.5" y="-238" font-family="Helvetica,sans-Serif" font-size="10.00">DeviceConfig.h</text>
</a>
</g>
</g>
<!-- Node3&#45;&gt;Node8 -->
<g id="edge7" class="edge">
<title>Node3&#45;&gt;Node8</title>
<path fill="none" stroke="#63b8ff" d="M585.04,-285.99C533.36,-275.56 463.94,-261.56 416.88,-252.07"/>
<polygon fill="#63b8ff" stroke="#63b8ff" points="417.4,-248.6 406.9,-250.05 416.01,-255.46 417.4,-248.6"/>
</g>
<!-- Node9 -->
<g id="node9" class="node">
<title>Node9</title>
<g id="a_node9"><a xlink:title=" ">
<polygon fill="#e0e0e0" stroke="#999999" points="1000,-19 937,-19 937,0 1000,0 1000,-19"/>
<text text-anchor="middle" x="968.5" y="-7" font-family="Helvetica,sans-Serif" font-size="10.00">Arduino.h</text>
</a>
</g>
</g>
<!-- Node8&#45;&gt;Node9 -->
<g id="edge8" class="edge">
<title>Node8&#45;&gt;Node9</title>
<path fill="none" stroke="#63b8ff" d="M387.08,-230.94C479.39,-195.94 828.36,-63.63 936.41,-22.67"/>
<polygon fill="#63b8ff" stroke="#63b8ff" points="937.7,-25.92 945.81,-19.1 935.22,-19.37 937.7,-25.92"/>
</g>
<!-- Node10 -->
<g id="node10" class="node">
<title>Node10</title>
<g id="a_node10"><a xlink:title=" ">
<polygon fill="#e0e0e0" stroke="#999999" points="888,-195 805,-195 805,-176 888,-176 888,-195"/>
<text text-anchor="middle" x="846.5" y="-183" font-family="Helvetica,sans-Serif" font-size="10.00">ArduinoJson.h</text>
</a>
</g>
</g>
<!-- Node8&#45;&gt;Node10 -->
<g id="edge9" class="edge">
<title>Node8&#45;&gt;Node10</title>
<path fill="none" stroke="#63b8ff" d="M409.51,-234.45C419.7,-233.31 430.47,-232.11 440.5,-231 567.72,-216.91 717.39,-200.57 794.6,-192.15"/>
<polygon fill="#63b8ff" stroke="#63b8ff" points="795.44,-195.58 805,-191.02 794.68,-188.62 795.44,-195.58"/>
</g>
<!-- Node12 -->
<g id="node12" class="node">
<title>Node12</title>
<g id="a_node12"><a xlink:title=" ">
<polygon fill="#e0e0e0" stroke="#999999" points="1287.5,-140 1157.5,-140 1157.5,-110 1287.5,-110 1287.5,-140"/>
<text text-anchor="start" x="1165.5" y="-128" font-family="Helvetica,sans-Serif" font-size="10.00">SparkFun_u&#45;blox_SARA</text>
<text text-anchor="middle" x="1222.5" y="-117" font-family="Helvetica,sans-Serif" font-size="10.00">&#45;R5_Arduino_Library.h</text>
</a>
</g>
</g>
<!-- Node11&#45;&gt;Node12 -->
<g id="edge11" class="edge">
<title>Node11&#45;&gt;Node12</title>
<path fill="none" stroke="#63b8ff" d="M1251.48,-175.87C1247.34,-168.74 1241.26,-158.28 1235.74,-148.79"/>
<polygon fill="#63b8ff" stroke="#63b8ff" points="1238.75,-147 1230.7,-140.11 1232.7,-150.52 1238.75,-147"/>
</g>
<!-- Node13 -->
<g id="node13" class="node">
<title>Node13</title>
<g id="a_node13"><a xlink:href="_c_a_t___m1_8h.html" target="_top" xlink:title=" ">
<polygon fill="white" stroke="#666666" points="1044,-134.5 979,-134.5 979,-115.5 1044,-115.5 1044,-134.5"/>
<text text-anchor="middle" x="1011.5" y="-122.5" font-family="Helvetica,sans-Serif" font-size="10.00">CAT_M1.h</text>
</a>
</g>
</g>
<!-- Node11&#45;&gt;Node13 -->
<g id="edge12" class="edge">
<title>Node11&#45;&gt;Node13</title>
<path fill="none" stroke="#63b8ff" d="M1225.97,-177.21C1182.73,-166.89 1103.49,-147.96 1054.38,-136.24"/>
<polygon fill="#63b8ff" stroke="#63b8ff" points="1054.92,-132.77 1044.38,-133.85 1053.29,-139.58 1054.92,-132.77"/>
</g>
<!-- Node14 -->
<g id="node14" class="node">
<title>Node14</title>
<g id="a_node14"><a xlink:title=" ">
<polygon fill="#e0e0e0" stroke="#999999" points="1066.5,-19 1018.5,-19 1018.5,0 1066.5,0 1066.5,-19"/>
<text text-anchor="middle" x="1042.5" y="-7" font-family="Helvetica,sans-Serif" font-size="10.00">Wire.h</text>
</a>
</g>
</g>
<!-- Node13&#45;&gt;Node14 -->
<g id="edge13" class="edge">
<title>Node13&#45;&gt;Node14</title>
<path fill="none" stroke="#63b8ff" d="M1013.83,-115.47C1018.83,-97.15 1030.71,-53.68 1037.5,-28.81"/>
<polygon fill="#63b8ff" stroke="#63b8ff" points="1040.88,-29.7 1040.14,-19.13 1034.13,-27.85 1040.88,-29.7"/>
</g>
<!-- Node15 -->
<g id="node15" class="node">
<title>Node15</title>
<g id="a_node15"><a xlink:href="_t_c_a9534_8h.html" target="_top" xlink:title=" ">
<polygon fill="white" stroke="#666666" points="1014.5,-74 946.5,-74 946.5,-55 1014.5,-55 1014.5,-74"/>
<text text-anchor="middle" x="980.5" y="-62" font-family="Helvetica,sans-Serif" font-size="10.00">TCA9534.h</text>
</a>
</g>
</g>
<!-- Node13&#45;&gt;Node15 -->
<g id="edge14" class="edge">
<title>Node13&#45;&gt;Node15</title>
<path fill="none" stroke="#63b8ff" d="M1006.93,-115.37C1002.44,-106.9 995.47,-93.74 989.81,-83.07"/>
<polygon fill="#63b8ff" stroke="#63b8ff" points="992.87,-81.36 985.09,-74.17 986.68,-84.64 992.87,-81.36"/>
</g>
<!-- Node15&#45;&gt;Node9 -->
<g id="edge15" class="edge">
<title>Node15&#45;&gt;Node9</title>
<path fill="none" stroke="#63b8ff" d="M978.52,-54.75C976.93,-47.72 974.64,-37.62 972.65,-28.84"/>
<polygon fill="#63b8ff" stroke="#63b8ff" points="976.07,-28.07 970.44,-19.09 969.24,-29.62 976.07,-28.07"/>
</g>
<!-- Node15&#45;&gt;Node14 -->
<g id="edge16" class="edge">
<title>Node15&#45;&gt;Node14</title>
<path fill="none" stroke="#63b8ff" d="M990.46,-54.98C999.63,-47.15 1013.44,-35.34 1024.53,-25.86"/>
<polygon fill="#63b8ff" stroke="#63b8ff" points="1027.03,-28.33 1032.36,-19.17 1022.48,-23.01 1027.03,-28.33"/>
</g>
<!-- Node16&#45;&gt;Node10 -->
<g id="edge19" class="edge">
<title>Node16&#45;&gt;Node10</title>
<path fill="none" stroke="#63b8ff" d="M1135.46,-235.43C1084.94,-226.88 966.8,-206.87 898.24,-195.26"/>
<polygon fill="#63b8ff" stroke="#63b8ff" points="898.53,-191.76 888.09,-193.54 897.37,-198.66 898.53,-191.76"/>
</g>
<!-- Node16&#45;&gt;Node11 -->
<g id="edge21" class="edge">
<title>Node16&#45;&gt;Node11</title>
<path fill="none" stroke="#63b8ff" d="M1175.08,-230.98C1190.27,-222.69 1213.6,-209.94 1231.4,-200.22"/>
<polygon fill="#63b8ff" stroke="#63b8ff" points="1233.53,-203.04 1240.63,-195.17 1230.18,-196.89 1233.53,-203.04"/>
</g>
<!-- Node17 -->
<g id="node17" class="node">
<title>Node17</title>
<g id="a_node17"><a xlink:title=" ">
<polygon fill="#e0e0e0" stroke="#999999" points="1207.5,-195 1151.5,-195 1151.5,-176 1207.5,-176 1207.5,-195"/>
<text text-anchor="middle" x="1179.5" y="-183" font-family="Helvetica,sans-Serif" font-size="10.00">stddef.h</text>
</a>
</g>
</g>
<!-- Node16&#45;&gt;Node17 -->
<g id="edge18" class="edge">
<title>Node16&#45;&gt;Node17</title>
<path fill="none" stroke="#63b8ff" d="M1162.8,-230.75C1165.48,-223.65 1169.35,-213.4 1172.69,-204.56"/>
<polygon fill="#63b8ff" stroke="#63b8ff" points="1176,-205.68 1176.26,-195.09 1169.45,-203.21 1176,-205.68"/>
</g>
<!-- Node18 -->
<g id="node18" class="node">
<title>Node18</title>
<g id="a_node18"><a xlink:title=" ">
<polygon fill="#e0e0e0" stroke="#999999" points="1133,-195 1040,-195 1040,-176 1133,-176 1133,-195"/>
<text text-anchor="middle" x="1086.5" y="-183" font-family="Helvetica,sans-Serif" font-size="10.00">dpiclimate&#45;12.h</text>
</a>
</g>
</g>
<!-- Node16&#45;&gt;Node18 -->
<g id="edge20" class="edge">
<title>Node16&#45;&gt;Node18</title>
<path fill="none" stroke="#63b8ff" d="M1147.77,-230.98C1136.77,-223 1120.08,-210.88 1106.9,-201.31"/>
<polygon fill="#63b8ff" stroke="#63b8ff" points="1108.59,-198.21 1098.44,-195.17 1104.48,-203.88 1108.59,-198.21"/>
</g>
<!-- Node19&#45;&gt;Node3 -->
<g id="edge49" class="edge">
<title>Node19&#45;&gt;Node3</title>
<path fill="none" stroke="#63b8ff" d="M739.74,-351.87C726.05,-343.86 705.18,-331.65 687.52,-321.31"/>
<polygon fill="#63b8ff" stroke="#63b8ff" points="689.03,-318.14 678.63,-316.11 685.49,-324.19 689.03,-318.14"/>
</g>
<!-- Node19&#45;&gt;Node4 -->
<g id="edge24" class="edge">
<title>Node19&#45;&gt;Node4</title>
<path fill="none" stroke="#63b8ff" d="M726.9,-355.83C677.54,-347.19 578.35,-328.48 568.5,-316 555.15,-299.08 567.56,-274.52 578.93,-258.29"/>
<polygon fill="#63b8ff" stroke="#63b8ff" points="581.77,-260.33 584.97,-250.23 576.17,-256.13 581.77,-260.33"/>
</g>
<!-- Node19&#45;&gt;Node7 -->
<g id="edge25" class="edge">
<title>Node19&#45;&gt;Node7</title>
<path fill="none" stroke="#63b8ff" d="M782.19,-359.62C870.72,-356.54 1142.66,-344.77 1168.5,-316 1216.89,-262.13 1091.11,-247.14 1009.32,-243.02"/>
<polygon fill="#63b8ff" stroke="#63b8ff" points="1009.24,-239.51 999.09,-242.55 1008.92,-246.51 1009.24,-239.51"/>
</g>
<!-- Node19&#45;&gt;Node9 -->
<g id="edge23" class="edge">
<title>Node19&#45;&gt;Node9</title>
<path fill="none" stroke="#63b8ff" d="M782.32,-360.61C895.52,-360.31 1315.5,-351.77 1315.5,-241.5 1315.5,-241.5 1315.5,-241.5 1315.5,-124 1315.5,-92.19 1102.17,-40.49 1010.05,-19.64"/>
<polygon fill="#63b8ff" stroke="#63b8ff" points="1010.74,-16.21 1000.21,-17.43 1009.2,-23.04 1010.74,-16.21"/>
</g>
<!-- Node20 -->
<g id="node20" class="node">
<title>Node20</title>
<g id="a_node20"><a xlink:href="cat-m1_8h.html" target="_top" xlink:title="CAT&#45;M1 CLI command request and response handler.">
<polygon fill="white" stroke="#666666" points="999.5,-310.5 867.5,-310.5 867.5,-291.5 999.5,-291.5 999.5,-310.5"/>
<text text-anchor="middle" x="933.5" y="-298.5" font-family="Helvetica,sans-Serif" font-size="10.00">cli/peripherals/cat&#45;m1.h</text>
</a>
</g>
</g>
<!-- Node19&#45;&gt;Node20 -->
<g id="edge26" class="edge">
<title>Node19&#45;&gt;Node20</title>
<path fill="none" stroke="#63b8ff" d="M780.53,-351.99C811.42,-341.9 863.08,-325.01 897.72,-313.69"/>
<polygon fill="#63b8ff" stroke="#63b8ff" points="899.02,-316.95 907.44,-310.52 896.85,-310.3 899.02,-316.95"/>
</g>
<!-- Node21 -->
<g id="node21" class="node">
<title>Node21</title>
<g id="a_node21"><a xlink:href="sdi12_8h.html" target="_top" xlink:title="SDI&#45;12 command line interface handler.">
<polygon fill="white" stroke="#666666" points="1141.5,-310.5 1017.5,-310.5 1017.5,-291.5 1141.5,-291.5 1141.5,-310.5"/>
<text text-anchor="middle" x="1079.5" y="-298.5" font-family="Helvetica,sans-Serif" font-size="10.00">cli/peripherals/sdi12.h</text>
</a>
</g>
</g>
<!-- Node19&#45;&gt;Node21 -->
<g id="edge32" class="edge">
<title>Node19&#45;&gt;Node21</title>
<path fill="none" stroke="#63b8ff" d="M782.35,-355.82C829.12,-347.92 926.42,-331.28 1008.5,-316 1014.58,-314.87 1020.95,-313.65 1027.26,-312.43"/>
<polygon fill="#63b8ff" stroke="#63b8ff" points="1027.96,-315.86 1037.1,-310.51 1026.62,-308.99 1027.96,-315.86"/>
</g>
<!-- Node22 -->
<g id="node22" class="node">
<title>Node22</title>
<g id="a_node22"><a xlink:href="cli__power_8h.html" target="_top" xlink:title=" ">
<polygon fill="white" stroke="#666666" points="849.5,-316 749.5,-316 749.5,-286 849.5,-286 849.5,-316"/>
<text text-anchor="start" x="757.5" y="-304" font-family="Helvetica,sans-Serif" font-size="10.00">cli/peripherals/cli</text>
<text text-anchor="middle" x="799.5" y="-293" font-family="Helvetica,sans-Serif" font-size="10.00">_power.h</text>
</a>
</g>
</g>
<!-- Node19&#45;&gt;Node22 -->
<g id="edge40" class="edge">
<title>Node19&#45;&gt;Node22</title>
<path fill="none" stroke="#63b8ff" d="M761.14,-351.87C766.74,-344.59 775,-333.85 782.42,-324.2"/>
<polygon fill="#63b8ff" stroke="#63b8ff" points="785.32,-326.17 788.64,-316.11 779.77,-321.91 785.32,-326.17"/>
</g>
<!-- Node23 -->
<g id="node23" class="node">
<title>Node23</title>
<g id="a_node23"><a xlink:href="sd__card_8h.html" target="_top" xlink:title=" ">
<polygon fill="white" stroke="#666666" points="521.5,-316 421.5,-316 421.5,-286 521.5,-286 521.5,-316"/>
<text text-anchor="start" x="429.5" y="-304" font-family="Helvetica,sans-Serif" font-size="10.00">cli/peripherals/sd</text>
<text text-anchor="middle" x="471.5" y="-293" font-family="Helvetica,sans-Serif" font-size="10.00">_card.h</text>
</a>
</g>
</g>
<!-- Node19&#45;&gt;Node23 -->
<g id="edge46" class="edge">
<title>Node19&#45;&gt;Node23</title>
<path fill="none" stroke="#63b8ff" d="M726.82,-355.01C685.24,-346.74 604.21,-330.5 535.5,-316 534.25,-315.74 532.98,-315.47 531.71,-315.2"/>
<polygon fill="#63b8ff" stroke="#63b8ff" points="532.3,-311.75 521.79,-313.08 530.84,-318.59 532.3,-311.75"/>
</g>
<!-- Node25 -->
<g id="node25" class="node">
<title>Node25</title>
<g id="a_node25"><a xlink:href="mqtt__cli_8h.html" target="_top" xlink:title="MQTT setup and configuration through the CLI.">
<polygon fill="white" stroke="#666666" points="403.5,-316 279.5,-316 279.5,-286 403.5,-286 403.5,-316"/>
<text text-anchor="start" x="287.5" y="-304" font-family="Helvetica,sans-Serif" font-size="10.00">cli/device_config/mqtt</text>
<text text-anchor="middle" x="341.5" y="-293" font-family="Helvetica,sans-Serif" font-size="10.00">_cli.h</text>
</a>
</g>
</g>
<!-- Node19&#45;&gt;Node25 -->
<g id="edge50" class="edge">
<title>Node19&#45;&gt;Node25</title>
<path fill="none" stroke="#63b8ff" d="M726.91,-357.15C659.98,-348.98 489.48,-327.93 413.82,-316.13"/>
<polygon fill="#63b8ff" stroke="#63b8ff" points="414.22,-312.65 403.8,-314.52 413.12,-319.56 414.22,-312.65"/>
</g>
<!-- Node26 -->
<g id="node26" class="node">
<title>Node26</title>
<g id="a_node26"><a xlink:href="ftp__cli_8h.html" target="_top" xlink:title="FTP setup and configuration through the CLI.">
<polygon fill="white" stroke="#666666" points="113,-316 0,-316 0,-286 113,-286 113,-316"/>
<text text-anchor="start" x="8" y="-304" font-family="Helvetica,sans-Serif" font-size="10.00">cli/device_config/ftp</text>
<text text-anchor="middle" x="56.5" y="-293" font-family="Helvetica,sans-Serif" font-size="10.00">_cli.h</text>
</a>
</g>
</g>
<!-- Node19&#45;&gt;Node26 -->
<g id="edge52" class="edge">
<title>Node19&#45;&gt;Node26</title>
<path fill="none" stroke="#63b8ff" d="M726.75,-357.03C712.62,-355.35 695.16,-353.39 679.5,-352 435.66,-330.32 369.98,-349.31 123.28,-315.96"/>
<polygon fill="#63b8ff" stroke="#63b8ff" points="123.67,-312.48 113.29,-314.59 122.72,-319.41 123.67,-312.48"/>
</g>
<!-- Node27 -->
<g id="node27" class="node">
<title>Node27</title>
<g id="a_node27"><a xlink:href="config__cli_8h.html" target="_top" xlink:title=" ">
<polygon fill="white" stroke="#666666" points="261.5,-316 131.5,-316 131.5,-286 261.5,-286 261.5,-316"/>
<text text-anchor="start" x="139.5" y="-304" font-family="Helvetica,sans-Serif" font-size="10.00">cli/device_config/config</text>
<text text-anchor="middle" x="196.5" y="-293" font-family="Helvetica,sans-Serif" font-size="10.00">_cli.h</text>
</a>
</g>
</g>
<!-- Node19&#45;&gt;Node27 -->
<g id="edge54" class="edge">
<title>Node19&#45;&gt;Node27</title>
<path fill="none" stroke="#63b8ff" d="M726.74,-357.19C712.6,-355.54 695.15,-353.57 679.5,-352 501.22,-334.05 452.99,-340.74 271.94,-316.11"/>
<polygon fill="#63b8ff" stroke="#63b8ff" points="272.2,-312.61 261.81,-314.72 271.24,-319.55 272.2,-312.61"/>
</g>
<!-- Node20&#45;&gt;Node4 -->
<g id="edge27" class="edge">
<title>Node20&#45;&gt;Node4</title>
<path fill="none" stroke="#63b8ff" d="M888.71,-291.5C878.77,-289.65 868.28,-287.73 858.5,-286 789.09,-273.72 709.32,-260.49 655.39,-251.68"/>
<polygon fill="#63b8ff" stroke="#63b8ff" points="655.72,-248.19 645.29,-250.03 654.6,-255.1 655.72,-248.19"/>
</g>
<!-- Node20&#45;&gt;Node5 -->
<g id="edge28" class="edge">
<title>Node20&#45;&gt;Node5</title>
<path fill="none" stroke="#63b8ff" d="M904.85,-291.49C870.57,-281.31 813.02,-264.22 774.9,-252.9"/>
<polygon fill="#63b8ff" stroke="#63b8ff" points="775.76,-249.51 765.18,-250.02 773.77,-256.22 775.76,-249.51"/>
</g>
<!-- Node20&#45;&gt;Node6 -->
<g id="edge29" class="edge">
<title>Node20&#45;&gt;Node6</title>
<path fill="none" stroke="#63b8ff" d="M918.15,-291.37C901.18,-281.82 873.6,-266.31 853.71,-255.12"/>
<polygon fill="#63b8ff" stroke="#63b8ff" points="855.34,-252.02 844.91,-250.17 851.91,-258.12 855.34,-252.02"/>
</g>
<!-- Node20&#45;&gt;Node7 -->
<g id="edge30" class="edge">
<title>Node20&#45;&gt;Node7</title>
<path fill="none" stroke="#63b8ff" d="M935.27,-291.37C936.95,-283.16 939.54,-270.54 941.69,-260.05"/>
<polygon fill="#63b8ff" stroke="#63b8ff" points="945.14,-260.67 943.72,-250.17 938.28,-259.26 945.14,-260.67"/>
</g>
<!-- Node20&#45;&gt;Node13 -->
<g id="edge31" class="edge">
<title>Node20&#45;&gt;Node13</title>
<path fill="none" stroke="#63b8ff" d="M956.68,-291.48C974.32,-283.64 997.4,-270.15 1008.5,-250 1026.96,-216.48 1021.24,-169.75 1016.01,-144.3"/>
<polygon fill="#63b8ff" stroke="#63b8ff" points="1019.42,-143.49 1013.8,-134.51 1012.59,-145.03 1019.42,-143.49"/>
</g>
<!-- Node21&#45;&gt;Node4 -->
<g id="edge33" class="edge">
<title>Node21&#45;&gt;Node4</title>
<path fill="none" stroke="#63b8ff" d="M1039.43,-291.46C1029.36,-289.49 1018.56,-287.53 1008.5,-286 885.79,-267.38 741.56,-253.79 659.2,-246.81"/>
<polygon fill="#63b8ff" stroke="#63b8ff" points="659.48,-243.32 649.22,-245.97 658.9,-250.3 659.48,-243.32"/>
</g>
<!-- Node21&#45;&gt;Node5 -->
<g id="edge34" class="edge">
<title>Node21&#45;&gt;Node5</title>
<path fill="none" stroke="#63b8ff" d="M1037.88,-291.5C1028.25,-289.61 1018.03,-287.68 1008.5,-286 908.85,-268.45 880.81,-268.81 776.99,-249.99"/>
<polygon fill="#63b8ff" stroke="#63b8ff" points="777.51,-246.53 767.04,-248.17 776.25,-253.41 777.51,-246.53"/>
</g>
<!-- Node21&#45;&gt;Node6 -->
<g id="edge35" class="edge">
<title>Node21&#45;&gt;Node6</title>
<path fill="none" stroke="#63b8ff" d="M1043.15,-291.49C998.9,-281.14 924.11,-263.64 875.79,-252.33"/>
<polygon fill="#63b8ff" stroke="#63b8ff" points="876.43,-248.89 865.9,-250.02 874.84,-255.7 876.43,-248.89"/>
</g>
<!-- Node21&#45;&gt;Node7 -->
<g id="edge38" class="edge">
<title>Node21&#45;&gt;Node7</title>
<path fill="none" stroke="#63b8ff" d="M1060.02,-291.49C1037.49,-281.66 1000.19,-265.38 974.31,-254.08"/>
<polygon fill="#63b8ff" stroke="#63b8ff" points="975.57,-250.81 965.01,-250.02 972.77,-257.23 975.57,-250.81"/>
</g>
<!-- Node21&#45;&gt;Node16 -->
<g id="edge39" class="edge">
<title>Node21&#45;&gt;Node16</title>
<path fill="none" stroke="#63b8ff" d="M1091.3,-291.37C1103.95,-282.12 1124.24,-267.28 1139.41,-256.19"/>
<polygon fill="#63b8ff" stroke="#63b8ff" points="1141.64,-258.9 1147.65,-250.17 1137.51,-253.24 1141.64,-258.9"/>
</g>
<!-- Node21&#45;&gt;Node18 -->
<g id="edge37" class="edge">
<title>Node21&#45;&gt;Node18</title>
<path fill="none" stroke="#63b8ff" d="M1080.03,-291.47C1081.15,-273.23 1083.81,-230.07 1085.35,-205.14"/>
<polygon fill="#63b8ff" stroke="#63b8ff" points="1088.85,-205.33 1085.97,-195.13 1081.86,-204.9 1088.85,-205.33"/>
</g>
<!-- Node21&#45;&gt;Node21 -->
<g id="edge36" class="edge">
<title>Node21&#45;&gt;Node21</title>
<path fill="none" stroke="#63b8ff" d="M1109.04,-310.53C1133.72,-314.61 1159.5,-311.43 1159.5,-301 1159.5,-292 1140.28,-288.4 1119.15,-290.2"/>
<polygon fill="#63b8ff" stroke="#63b8ff" points="1118.53,-286.75 1109.04,-291.47 1119.4,-293.7 1118.53,-286.75"/>
</g>
<!-- Node22&#45;&gt;Node4 -->
<g id="edge41" class="edge">
<title>Node22&#45;&gt;Node4</title>
<path fill="none" stroke="#63b8ff" d="M749.92,-285.99C714.04,-275.85 666.17,-262.32 632.67,-252.85"/>
<polygon fill="#63b8ff" stroke="#63b8ff" points="633.34,-249.41 622.77,-250.05 631.44,-256.14 633.34,-249.41"/>
</g>
<!-- Node22&#45;&gt;Node5 -->
<g id="edge42" class="edge">
<title>Node22&#45;&gt;Node5</title>
<path fill="none" stroke="#63b8ff" d="M784.25,-285.84C774.92,-277.17 762.97,-266.08 753.35,-257.15"/>
<polygon fill="#63b8ff" stroke="#63b8ff" points="755.65,-254.51 745.94,-250.27 750.89,-259.64 755.65,-254.51"/>
</g>
<!-- Node22&#45;&gt;Node6 -->
<g id="edge43" class="edge">
<title>Node22&#45;&gt;Node6</title>
<path fill="none" stroke="#63b8ff" d="M806.76,-285.84C810.85,-277.87 815.99,-267.84 820.36,-259.33"/>
<polygon fill="#63b8ff" stroke="#63b8ff" points="823.56,-260.76 825,-250.27 817.33,-257.57 823.56,-260.76"/>
</g>
<!-- Node22&#45;&gt;Node7 -->
<g id="edge44" class="edge">
<title>Node22&#45;&gt;Node7</title>
<path fill="none" stroke="#63b8ff" d="M834.47,-285.99C858.83,-276.23 891.03,-263.33 914.47,-253.93"/>
<polygon fill="#63b8ff" stroke="#63b8ff" points="915.96,-257.11 923.94,-250.14 913.35,-250.61 915.96,-257.11"/>
</g>
<!-- Node22&#45;&gt;Node13 -->
<g id="edge45" class="edge">
<title>Node22&#45;&gt;Node13</title>
<path fill="none" stroke="#63b8ff" d="M749.39,-287.29C716.35,-276.18 681.83,-257.63 697.5,-231 725.61,-183.23 889.55,-147.85 968.73,-133.3"/>
<polygon fill="#63b8ff" stroke="#63b8ff" points="969.64,-136.69 978.86,-131.46 968.4,-129.8 969.64,-136.69"/>
</g>
<!-- Node23&#45;&gt;Node4 -->
<g id="edge47" class="edge">
<title>Node23&#45;&gt;Node4</title>
<path fill="none" stroke="#63b8ff" d="M500.48,-285.99C520.22,-276.45 546.17,-263.9 565.47,-254.57"/>
<polygon fill="#63b8ff" stroke="#63b8ff" points="567.15,-257.64 574.63,-250.14 564.1,-251.34 567.15,-257.64"/>
</g>
<!-- Node24 -->
<g id="node24" class="node">
<title>Node24</title>
<g id="a_node24"><a xlink:title=" ">
<polygon fill="#e0e0e0" stroke="#999999" points="493.5,-250 449.5,-250 449.5,-231 493.5,-231 493.5,-250"/>
<text text-anchor="middle" x="471.5" y="-238" font-family="Helvetica,sans-Serif" font-size="10.00">string</text>
</a>
</g>
</g>
<!-- Node23&#45;&gt;Node24 -->
<g id="edge48" class="edge">
<title>Node23&#45;&gt;Node24</title>
<path fill="none" stroke="#63b8ff" d="M471.5,-285.84C471.5,-278.21 471.5,-268.7 471.5,-260.45"/>
<polygon fill="#63b8ff" stroke="#63b8ff" points="475,-260.27 471.5,-250.27 468,-260.27 475,-260.27"/>
</g>
<!-- Node25&#45;&gt;Node8 -->
<g id="edge51" class="edge">
<title>Node25&#45;&gt;Node8</title>
<path fill="none" stroke="#63b8ff" d="M347.07,-285.84C350.17,-277.95 354.06,-268.05 357.38,-259.61"/>
<polygon fill="#63b8ff" stroke="#63b8ff" points="360.65,-260.85 361.05,-250.27 354.14,-258.29 360.65,-260.85"/>
</g>
<!-- Node26&#45;&gt;Node8 -->
<g id="edge53" class="edge">
<title>Node26&#45;&gt;Node8</title>
<path fill="none" stroke="#63b8ff" d="M113,-287.91C116.22,-287.25 119.4,-286.61 122.5,-286 186.46,-273.34 260.19,-259.95 309.29,-251.21"/>
<polygon fill="#63b8ff" stroke="#63b8ff" points="310.15,-254.61 319.38,-249.42 308.92,-247.72 310.15,-254.61"/>
</g>
<!-- Node27&#45;&gt;Node8 -->
<g id="edge55" class="edge">
<title>Node27&#45;&gt;Node8</title>
<path fill="none" stroke="#63b8ff" d="M236.74,-285.99C265.27,-276.05 303.15,-262.86 330.23,-253.43"/>
<polygon fill="#63b8ff" stroke="#63b8ff" points="331.4,-256.73 339.69,-250.14 329.1,-250.12 331.4,-256.73"/>
</g>
</g>
</svg>
