<?xml version="1.0" encoding="UTF-8" standalone="no"?>
<!DOCTYPE svg PUBLIC "-//W3C//DTD SVG 1.1//EN"
 "http://www.w3.org/Graphics/SVG/1.1/DTD/svg11.dtd">
<!-- Generated by graphviz version 2.43.0 (0)
 -->
<!-- Title: firmware/wombat/src/cli/device_config/acquisition_intervals.cpp Pages: 1 -->
<svg width="845pt" height="346pt"
 viewBox="0.00 0.00 845.00 346.00" xmlns="http://www.w3.org/2000/svg" xmlns:xlink="http://www.w3.org/1999/xlink">
<g id="graph0" class="graph" transform="scale(1 1) rotate(0) translate(4 342)">
<title>firmware/wombat/src/cli/device_config/acquisition_intervals.cpp</title>
<!-- Node1 -->
<g id="node1" class="node">
<title>Node1</title>
<g id="a_node1"><a xlink:title="Handles the time between measurements and uplinks by the device over LTE.">
<polygon fill="#999999" stroke="#666666" points="545,-338 388,-338 388,-297 545,-297 545,-338"/>
<text text-anchor="start" x="396" y="-326" font-family="Helvetica,sans-Serif" font-size="10.00">firmware/wombat/src</text>
<text text-anchor="start" x="396" y="-315" font-family="Helvetica,sans-Serif" font-size="10.00">/cli/device_config/acquisition</text>
<text text-anchor="middle" x="466.5" y="-304" font-family="Helvetica,sans-Serif" font-size="10.00">_intervals.cpp</text>
</a>
</g>
</g>
<!-- Node2 -->
<g id="node2" class="node">
<title>Node2</title>
<g id="a_node2"><a xlink:title=" ">
<polygon fill="#e0e0e0" stroke="#999999" points="302,-255.5 249,-255.5 249,-236.5 302,-236.5 302,-255.5"/>
<text text-anchor="middle" x="275.5" y="-243.5" font-family="Helvetica,sans-Serif" font-size="10.00">stdlib.h</text>
</a>
</g>
</g>
<!-- Node1&#45;&gt;Node2 -->
<g id="edge1" class="edge">
<title>Node1&#45;&gt;Node2</title>
<path fill="none" stroke="#63b8ff" d="M410.77,-296.96C381.2,-286.48 344.3,-273.25 311.5,-261 309.9,-260.4 308.27,-259.79 306.62,-259.16"/>
<polygon fill="#63b8ff" stroke="#63b8ff" points="307.76,-255.85 297.17,-255.53 305.25,-262.38 307.76,-255.85"/>
</g>
<!-- Node3 -->
<g id="node3" class="node">
<title>Node3</title>
<g id="a_node3"><a xlink:href="acquisition__intervals_8h.html" target="_top" xlink:title="Handles the time between measurements and uplinks by the device over LTE.">
<polygon fill="white" stroke="#666666" points="474.5,-261 320.5,-261 320.5,-231 474.5,-231 474.5,-261"/>
<text text-anchor="start" x="328.5" y="-249" font-family="Helvetica,sans-Serif" font-size="10.00">cli/device_config/acquisition</text>
<text text-anchor="middle" x="397.5" y="-238" font-family="Helvetica,sans-Serif" font-size="10.00">_intervals.h</text>
</a>
</g>
</g>
<!-- Node1&#45;&gt;Node3 -->
<g id="edge2" class="edge">
<title>Node1&#45;&gt;Node3</title>
<path fill="none" stroke="#63b8ff" d="M446.91,-296.77C438.07,-287.87 427.61,-277.33 418.6,-268.25"/>
<polygon fill="#63b8ff" stroke="#63b8ff" points="420.97,-265.67 411.44,-261.04 416,-270.6 420.97,-265.67"/>
</g>
<!-- Node11 -->
<g id="node11" class="node">
<title>Node11</title>
<g id="a_node11"><a xlink:href="globals_8h.html" target="_top" xlink:title=" ">
<polygon fill="white" stroke="#666666" points="651,-195 590,-195 590,-176 651,-176 651,-195"/>
<text text-anchor="middle" x="620.5" y="-183" font-family="Helvetica,sans-Serif" font-size="10.00">globals.h</text>
</a>
</g>
</g>
<!-- Node1&#45;&gt;Node11 -->
<g id="edge10" class="edge">
<title>Node1&#45;&gt;Node11</title>
<path fill="none" stroke="#63b8ff" d="M489.89,-296.76C520.85,-270.62 574.76,-225.11 602.65,-201.57"/>
<polygon fill="#63b8ff" stroke="#63b8ff" points="605.03,-204.14 610.42,-195.01 600.52,-198.79 605.03,-204.14"/>
</g>
<!-- Node16 -->
<g id="node16" class="node">
<title>Node16</title>
<g id="a_node16"><a xlink:href="_utils_8h.html" target="_top" xlink:title=" ">
<polygon fill="white" stroke="#666666" points="644.5,-255.5 596.5,-255.5 596.5,-236.5 644.5,-236.5 644.5,-255.5"/>
<text text-anchor="middle" x="620.5" y="-243.5" font-family="Helvetica,sans-Serif" font-size="10.00">Utils.h</text>
</a>
</g>
</g>
<!-- Node1&#45;&gt;Node16 -->
<g id="edge17" class="edge">
<title>Node1&#45;&gt;Node16</title>
<path fill="none" stroke="#63b8ff" d="M509.81,-296.96C536.27,-285.01 569.36,-270.08 592.43,-259.67"/>
<polygon fill="#63b8ff" stroke="#63b8ff" points="593.98,-262.81 601.66,-255.5 591.1,-256.43 593.98,-262.81"/>
</g>
<!-- Node4 -->
<g id="node4" class="node">
<title>Node4</title>
<g id="a_node4"><a xlink:title=" ">
<polygon fill="#e0e0e0" stroke="#999999" points="454,-195 341,-195 341,-176 454,-176 454,-195"/>
<text text-anchor="middle" x="397.5" y="-183" font-family="Helvetica,sans-Serif" font-size="10.00">freertos/FreeRTOS.h</text>
</a>
</g>
</g>
<!-- Node3&#45;&gt;Node4 -->
<g id="edge3" class="edge">
<title>Node3&#45;&gt;Node4</title>
<path fill="none" stroke="#63b8ff" d="M397.5,-230.84C397.5,-223.21 397.5,-213.7 397.5,-205.45"/>
<polygon fill="#63b8ff" stroke="#63b8ff" points="401,-205.27 397.5,-195.27 394,-205.27 401,-205.27"/>
</g>
<!-- Node5 -->
<g id="node5" class="node">
<title>Node5</title>
<g id="a_node5"><a xlink:title=" ">
<polygon fill="#e0e0e0" stroke="#999999" points="533,-195 472,-195 472,-176 533,-176 533,-195"/>
<text text-anchor="middle" x="502.5" y="-183" font-family="Helvetica,sans-Serif" font-size="10.00">Stream.h</text>
</a>
</g>
</g>
<!-- Node3&#45;&gt;Node5 -->
<g id="edge4" class="edge">
<title>Node3&#45;&gt;Node5</title>
<path fill="none" stroke="#63b8ff" d="M422.65,-230.99C439.39,-221.66 461.27,-209.47 477.89,-200.21"/>
<polygon fill="#63b8ff" stroke="#63b8ff" points="479.96,-203.06 486.99,-195.14 476.55,-196.95 479.96,-203.06"/>
</g>
<!-- Node6 -->
<g id="node6" class="node">
<title>Node6</title>
<g id="a_node6"><a xlink:title=" ">
<polygon fill="#e0e0e0" stroke="#999999" points="89,-195 0,-195 0,-176 89,-176 89,-195"/>
<text text-anchor="middle" x="44.5" y="-183" font-family="Helvetica,sans-Serif" font-size="10.00">StreamString.h</text>
</a>
</g>
</g>
<!-- Node3&#45;&gt;Node6 -->
<g id="edge5" class="edge">
<title>Node3&#45;&gt;Node6</title>
<path fill="none" stroke="#63b8ff" d="M320.47,-232.23C253.54,-221.14 158.28,-205.36 98.99,-195.53"/>
<polygon fill="#63b8ff" stroke="#63b8ff" points="99.51,-192.07 89.07,-193.89 98.37,-198.97 99.51,-192.07"/>
</g>
<!-- Node7 -->
<g id="node7" class="node">
<title>Node7</title>
<g id="a_node7"><a xlink:title=" ">
<polygon fill="#e0e0e0" stroke="#999999" points="214,-195 107,-195 107,-176 214,-176 214,-195"/>
<text text-anchor="middle" x="160.5" y="-183" font-family="Helvetica,sans-Serif" font-size="10.00">cli/FreeRTOS_CLI.h</text>
</a>
</g>
</g>
<!-- Node3&#45;&gt;Node7 -->
<g id="edge6" class="edge">
<title>Node3&#45;&gt;Node7</title>
<path fill="none" stroke="#63b8ff" d="M340.73,-230.99C299.12,-220.72 243.42,-206.97 205.01,-197.49"/>
<polygon fill="#63b8ff" stroke="#63b8ff" points="205.7,-194.05 195.15,-195.05 204.02,-200.85 205.7,-194.05"/>
</g>
<!-- Node8 -->
<g id="node8" class="node">
<title>Node8</title>
<g id="a_node8"><a xlink:href="_device_config_8h.html" target="_top" xlink:title="Node configuration options.">
<polygon fill="white" stroke="#666666" points="322.5,-195 232.5,-195 232.5,-176 322.5,-176 322.5,-195"/>
<text text-anchor="middle" x="277.5" y="-183" font-family="Helvetica,sans-Serif" font-size="10.00">DeviceConfig.h</text>
</a>
</g>
</g>
<!-- Node3&#45;&gt;Node8 -->
<g id="edge7" class="edge">
<title>Node3&#45;&gt;Node8</title>
<path fill="none" stroke="#63b8ff" d="M368.76,-230.99C349.18,-221.45 323.45,-208.9 304.3,-199.57"/>
<polygon fill="#63b8ff" stroke="#63b8ff" points="305.74,-196.38 295.22,-195.14 302.68,-202.67 305.74,-196.38"/>
</g>
<!-- Node9 -->
<g id="node9" class="node">
<title>Node9</title>
<g id="a_node9"><a xlink:title=" ">
<polygon fill="#e0e0e0" stroke="#999999" points="371,-19 308,-19 308,0 371,0 371,-19"/>
<text text-anchor="middle" x="339.5" y="-7" font-family="Helvetica,sans-Serif" font-size="10.00">Arduino.h</text>
</a>
</g>
</g>
<!-- Node8&#45;&gt;Node9 -->
<g id="edge8" class="edge">
<title>Node8&#45;&gt;Node9</title>
<path fill="none" stroke="#63b8ff" d="M280.66,-175.63C290.36,-148.4 319.86,-65.61 333.03,-28.65"/>
<polygon fill="#63b8ff" stroke="#63b8ff" points="336.36,-29.74 336.42,-19.14 329.77,-27.39 336.36,-29.74"/>
</g>
<!-- Node10 -->
<g id="node10" class="node">
<title>Node10</title>
<g id="a_node10"><a xlink:title=" ">
<polygon fill="#e0e0e0" stroke="#999999" points="430,-134.5 347,-134.5 347,-115.5 430,-115.5 430,-134.5"/>
<text text-anchor="middle" x="388.5" y="-122.5" font-family="Helvetica,sans-Serif" font-size="10.00">ArduinoJson.h</text>
</a>
</g>
</g>
<!-- Node8&#45;&gt;Node10 -->
<g id="edge9" class="edge">
<title>Node8&#45;&gt;Node10</title>
<path fill="none" stroke="#63b8ff" d="M293.88,-175.87C312.08,-166.28 341.7,-150.67 362.95,-139.47"/>
<polygon fill="#63b8ff" stroke="#63b8ff" points="364.84,-142.43 372.05,-134.67 361.58,-136.23 364.84,-142.43"/>
</g>
<!-- Node12 -->
<g id="node12" class="node">
<title>Node12</title>
<g id="a_node12"><a xlink:title=" ">
<polygon fill="#e0e0e0" stroke="#999999" points="685.5,-140 555.5,-140 555.5,-110 685.5,-110 685.5,-140"/>
<text text-anchor="start" x="563.5" y="-128" font-family="Helvetica,sans-Serif" font-size="10.00">SparkFun_u&#45;blox_SARA</text>
<text text-anchor="middle" x="620.5" y="-117" font-family="Helvetica,sans-Serif" font-size="10.00">&#45;R5_Arduino_Library.h</text>
</a>
</g>
</g>
<!-- Node11&#45;&gt;Node12 -->
<g id="edge11" class="edge">
<title>Node11&#45;&gt;Node12</title>
<path fill="none" stroke="#63b8ff" d="M620.5,-175.87C620.5,-169.11 620.5,-159.35 620.5,-150.26"/>
<polygon fill="#63b8ff" stroke="#63b8ff" points="624,-150.11 620.5,-140.11 617,-150.11 624,-150.11"/>
</g>
<!-- Node13 -->
<g id="node13" class="node">
<title>Node13</title>
<g id="a_node13"><a xlink:href="_c_a_t___m1_8h.html" target="_top" xlink:title=" ">
<polygon fill="white" stroke="#666666" points="529,-134.5 464,-134.5 464,-115.5 529,-115.5 529,-134.5"/>
<text text-anchor="middle" x="496.5" y="-122.5" font-family="Helvetica,sans-Serif" font-size="10.00">CAT_M1.h</text>
</a>
</g>
</g>
<!-- Node11&#45;&gt;Node13 -->
<g id="edge12" class="edge">
<title>Node11&#45;&gt;Node13</title>
<path fill="none" stroke="#63b8ff" d="M602.47,-175.99C581.81,-166.25 547.72,-150.16 523.8,-138.88"/>
<polygon fill="#63b8ff" stroke="#63b8ff" points="525.09,-135.62 514.55,-134.52 522.1,-141.95 525.09,-135.62"/>
</g>
<!-- Node14 -->
<g id="node14" class="node">
<title>Node14</title>
<g id="a_node14"><a xlink:title=" ">
<polygon fill="#e0e0e0" stroke="#999999" points="489.5,-19 441.5,-19 441.5,0 489.5,0 489.5,-19"/>
<text text-anchor="middle" x="465.5" y="-7" font-family="Helvetica,sans-Serif" font-size="10.00">Wire.h</text>
</a>
</g>
</g>
<!-- Node13&#45;&gt;Node14 -->
<g id="edge13" class="edge">
<title>Node13&#45;&gt;Node14</title>
<path fill="none" stroke="#63b8ff" d="M494.17,-115.47C489.17,-97.15 477.29,-53.68 470.5,-28.81"/>
<polygon fill="#63b8ff" stroke="#63b8ff" points="473.87,-27.85 467.86,-19.13 467.12,-29.7 473.87,-27.85"/>
</g>
<!-- Node15 -->
<g id="node15" class="node">
<title>Node15</title>
<g id="a_node15"><a xlink:href="_t_c_a9534_8h.html" target="_top" xlink:title=" ">
<polygon fill="white" stroke="#666666" points="468.5,-74 400.5,-74 400.5,-55 468.5,-55 468.5,-74"/>
<text text-anchor="middle" x="434.5" y="-62" font-family="Helvetica,sans-Serif" font-size="10.00">TCA9534.h</text>
</a>
</g>
</g>
<!-- Node13&#45;&gt;Node15 -->
<g id="edge14" class="edge">
<title>Node13&#45;&gt;Node15</title>
<path fill="none" stroke="#63b8ff" d="M487.35,-115.37C477.83,-106.38 462.7,-92.11 451.07,-81.14"/>
<polygon fill="#63b8ff" stroke="#63b8ff" points="453.36,-78.48 443.69,-74.17 448.56,-83.58 453.36,-78.48"/>
</g>
<!-- Node15&#45;&gt;Node9 -->
<g id="edge15" class="edge">
<title>Node15&#45;&gt;Node9</title>
<path fill="none" stroke="#63b8ff" d="M419.24,-54.98C404.37,-46.69 381.52,-33.94 364.08,-24.22"/>
<polygon fill="#63b8ff" stroke="#63b8ff" points="365.48,-20.99 355.04,-19.17 362.07,-27.1 365.48,-20.99"/>
</g>
<!-- Node15&#45;&gt;Node14 -->
<g id="edge16" class="edge">
<title>Node15&#45;&gt;Node14</title>
<path fill="none" stroke="#63b8ff" d="M439.62,-54.75C443.86,-47.49 450.03,-36.95 455.28,-27.98"/>
<polygon fill="#63b8ff" stroke="#63b8ff" points="458.45,-29.49 460.48,-19.09 452.41,-25.95 458.45,-29.49"/>
</g>
<!-- Node16&#45;&gt;Node10 -->
<g id="edge19" class="edge">
<title>Node16&#45;&gt;Node10</title>
<path fill="none" stroke="#63b8ff" d="M612.74,-236.09C599.64,-221.55 571.7,-192.68 542.5,-176 510.46,-157.69 470.77,-145.01 439.72,-137"/>
<polygon fill="#63b8ff" stroke="#63b8ff" points="440.51,-133.59 429.96,-134.56 438.81,-140.38 440.51,-133.59"/>
</g>
<!-- Node16&#45;&gt;Node11 -->
<g id="edge21" class="edge">
<title>Node16&#45;&gt;Node11</title>
<path fill="none" stroke="#63b8ff" d="M620.5,-236.37C620.5,-228.25 620.5,-215.81 620.5,-205.39"/>
<polygon fill="#63b8ff" stroke="#63b8ff" points="624,-205.17 620.5,-195.17 617,-205.17 624,-205.17"/>
</g>
<!-- Node17 -->
<g id="node17" class="node">
<title>Node17</title>
<g id="a_node17"><a xlink:title=" ">
<polygon fill="#e0e0e0" stroke="#999999" points="725.5,-195 669.5,-195 669.5,-176 725.5,-176 725.5,-195"/>
<text text-anchor="middle" x="697.5" y="-183" font-family="Helvetica,sans-Serif" font-size="10.00">stddef.h</text>
</a>
</g>
</g>
<!-- Node16&#45;&gt;Node17 -->
<g id="edge18" class="edge">
<title>Node16&#45;&gt;Node17</title>
<path fill="none" stroke="#63b8ff" d="M631.86,-236.37C643.92,-227.21 663.2,-212.56 677.75,-201.51"/>
<polygon fill="#63b8ff" stroke="#63b8ff" points="680.25,-204 686.09,-195.17 676.01,-198.43 680.25,-204"/>
</g>
<!-- Node18 -->
<g id="node18" class="node">
<title>Node18</title>
<g id="a_node18"><a xlink:title=" ">
<polygon fill="#e0e0e0" stroke="#999999" points="837,-195 744,-195 744,-176 837,-176 837,-195"/>
<text text-anchor="middle" x="790.5" y="-183" font-family="Helvetica,sans-Serif" font-size="10.00">dpiclimate&#45;12.h</text>
</a>
</g>
</g>
<!-- Node16&#45;&gt;Node18 -->
<g id="edge20" class="edge">
<title>Node16&#45;&gt;Node18</title>
<path fill="none" stroke="#63b8ff" d="M644.86,-236.62C673.98,-226.6 722.91,-209.76 755.94,-198.39"/>
<polygon fill="#63b8ff" stroke="#63b8ff" points="757.32,-201.62 765.64,-195.06 755.04,-195 757.32,-201.62"/>
</g>
</g>
</svg>
