<?xml version="1.0" encoding="UTF-8" standalone="no"?>
<!DOCTYPE svg PUBLIC "-//W3C//DTD SVG 1.1//EN"
 "http://www.w3.org/Graphics/SVG/1.1/DTD/svg11.dtd">
<!-- Generated by graphviz version 2.43.0 (0)
 -->
<!-- Title: firmware/wombat/include/power_monitoring/battery.h Pages: 1 -->
<svg width="2318pt" height="313pt"
 viewBox="0.00 0.00 2317.50 313.00" xmlns="http://www.w3.org/2000/svg" xmlns:xlink="http://www.w3.org/1999/xlink">
<g id="graph0" class="graph" transform="scale(1 1) rotate(0) translate(4 309)">
<title>firmware/wombat/include/power_monitoring/battery.h</title>
<!-- Node1 -->
<g id="node1" class="node">
<title>Node1</title>
<g id="a_node1"><a xlink:title="Battery voltage and current monitoring using INA219 IC.">
<polygon fill="#999999" stroke="#666666" points="1358.5,-305 1204.5,-305 1204.5,-275 1358.5,-275 1358.5,-305"/>
<text text-anchor="start" x="1212.5" y="-293" font-family="Helvetica,sans-Serif" font-size="10.00">firmware/wombat/include</text>
<text text-anchor="middle" x="1281.5" y="-282" font-family="Helvetica,sans-Serif" font-size="10.00">/power_monitoring/battery.h</text>
</a>
</g>
</g>
<!-- Node2 -->
<g id="node2" class="node">
<title>Node2</title>
<g id="a_node2"><a xlink:href="power__monitoring_8h.html" target="_top" xlink:title="Setup BluetoothLE power monitoring information.">
<polygon fill="white" stroke="#666666" points="332,-239 165,-239 165,-209 332,-209 332,-239"/>
<text text-anchor="start" x="173" y="-227" font-family="Helvetica,sans-Serif" font-size="10.00">firmware/wombat/include</text>
<text text-anchor="middle" x="248.5" y="-216" font-family="Helvetica,sans-Serif" font-size="10.00">/bluetooth/power_monitoring.h</text>
</a>
</g>
</g>
<!-- Node1&#45;&gt;Node2 -->
<g id="edge1" class="edge">
<title>Node1&#45;&gt;Node2</title>
<path fill="none" stroke="#63b8ff" d="M1194.02,-283.58C997.79,-271.42 524.71,-242.11 332.15,-230.18"/>
<polygon fill="#63b8ff" stroke="#63b8ff" points="1194.08,-287.09 1204.28,-284.22 1194.52,-280.1 1194.08,-287.09"/>
</g>
<!-- Node8 -->
<g id="node8" class="node">
<title>Node8</title>
<g id="a_node8"><a xlink:href="globals_8h.html" target="_top" xlink:title=" ">
<polygon fill="white" stroke="#666666" points="1352,-239 1211,-239 1211,-209 1352,-209 1352,-239"/>
<text text-anchor="start" x="1219" y="-227" font-family="Helvetica,sans-Serif" font-size="10.00">firmware/wombat/include</text>
<text text-anchor="middle" x="1281.5" y="-216" font-family="Helvetica,sans-Serif" font-size="10.00">/globals.h</text>
</a>
</g>
</g>
<!-- Node1&#45;&gt;Node8 -->
<g id="edge8" class="edge">
<title>Node1&#45;&gt;Node8</title>
<path fill="none" stroke="#63b8ff" d="M1281.5,-264.54C1281.5,-255.96 1281.5,-246.61 1281.5,-239.16"/>
<polygon fill="#63b8ff" stroke="#63b8ff" points="1278,-264.8 1281.5,-274.8 1285,-264.8 1278,-264.8"/>
</g>
<!-- Node23 -->
<g id="node23" class="node">
<title>Node23</title>
<g id="a_node23"><a xlink:href="battery_8cpp.html" target="_top" xlink:title="Battery voltage and current monitoring using INA219 IC.">
<polygon fill="white" stroke="#666666" points="1535,-239 1370,-239 1370,-209 1535,-209 1535,-239"/>
<text text-anchor="start" x="1378" y="-227" font-family="Helvetica,sans-Serif" font-size="10.00">firmware/wombat/src</text>
<text text-anchor="middle" x="1452.5" y="-216" font-family="Helvetica,sans-Serif" font-size="10.00">/power_monitoring/battery.cpp</text>
</a>
</g>
</g>
<!-- Node1&#45;&gt;Node23 -->
<g id="edge23" class="edge">
<title>Node1&#45;&gt;Node23</title>
<path fill="none" stroke="#63b8ff" d="M1328.73,-271.32C1355.95,-261.14 1389.69,-248.51 1415.06,-239.01"/>
<polygon fill="#63b8ff" stroke="#63b8ff" points="1327.17,-268.17 1319.03,-274.95 1329.62,-274.73 1327.17,-268.17"/>
</g>
<!-- Node3 -->
<g id="node3" class="node">
<title>Node3</title>
<g id="a_node3"><a xlink:href="server_8h.html" target="_top" xlink:title="Handle the setup and maintenance of the BLE server and connected clients.">
<polygon fill="white" stroke="#666666" points="141,-167.5 0,-167.5 0,-137.5 141,-137.5 141,-167.5"/>
<text text-anchor="start" x="8" y="-155.5" font-family="Helvetica,sans-Serif" font-size="10.00">firmware/wombat/include</text>
<text text-anchor="middle" x="70.5" y="-144.5" font-family="Helvetica,sans-Serif" font-size="10.00">/bluetooth/server.h</text>
</a>
</g>
</g>
<!-- Node2&#45;&gt;Node3 -->
<g id="edge2" class="edge">
<title>Node2&#45;&gt;Node3</title>
<path fill="none" stroke="#63b8ff" d="M203.07,-205.26C173.08,-193.55 134.32,-178.42 106.47,-167.54"/>
<polygon fill="#63b8ff" stroke="#63b8ff" points="201.89,-208.56 212.48,-208.94 204.44,-202.04 201.89,-208.56"/>
</g>
<!-- Node7 -->
<g id="node7" class="node">
<title>Node7</title>
<g id="a_node7"><a xlink:href="power__monitoring_8cpp.html" target="_top" xlink:title="BluetoothLE power monitoring service setup and attached to BLE server.">
<polygon fill="white" stroke="#666666" points="337.5,-167.5 159.5,-167.5 159.5,-137.5 337.5,-137.5 337.5,-167.5"/>
<text text-anchor="start" x="167.5" y="-155.5" font-family="Helvetica,sans-Serif" font-size="10.00">firmware/wombat/src</text>
<text text-anchor="middle" x="248.5" y="-144.5" font-family="Helvetica,sans-Serif" font-size="10.00">/bluetooth/power_monitoring.cpp</text>
</a>
</g>
</g>
<!-- Node2&#45;&gt;Node7 -->
<g id="edge7" class="edge">
<title>Node2&#45;&gt;Node7</title>
<path fill="none" stroke="#63b8ff" d="M248.5,-198.75C248.5,-188.31 248.5,-176.49 248.5,-167.54"/>
<polygon fill="#63b8ff" stroke="#63b8ff" points="245,-198.94 248.5,-208.94 252,-198.94 245,-198.94"/>
</g>
<!-- Node4 -->
<g id="node4" class="node">
<title>Node4</title>
<g id="a_node4"><a xlink:href="uart_8h.html" target="_top" xlink:title="BluetoothLE UART service setup and handling.">
<polygon fill="white" stroke="#666666" points="141,-96 0,-96 0,-66 141,-66 141,-96"/>
<text text-anchor="start" x="8" y="-84" font-family="Helvetica,sans-Serif" font-size="10.00">firmware/wombat/include</text>
<text text-anchor="middle" x="70.5" y="-73" font-family="Helvetica,sans-Serif" font-size="10.00">/bluetooth/uart.h</text>
</a>
</g>
</g>
<!-- Node3&#45;&gt;Node4 -->
<g id="edge3" class="edge">
<title>Node3&#45;&gt;Node4</title>
<path fill="none" stroke="#63b8ff" d="M64.03,-127.25C63.46,-116.81 63.76,-104.99 64.95,-96.04"/>
<polygon fill="#63b8ff" stroke="#63b8ff" points="60.57,-127.79 64.95,-137.44 67.54,-127.16 60.57,-127.79"/>
</g>
<!-- Node6 -->
<g id="node6" class="node">
<title>Node6</title>
<g id="a_node6"><a xlink:href="server_8cpp.html" target="_top" xlink:title="Setup and start BluetoothLE server.">
<polygon fill="white" stroke="#666666" points="279.5,-96 159.5,-96 159.5,-66 279.5,-66 279.5,-96"/>
<text text-anchor="start" x="167.5" y="-84" font-family="Helvetica,sans-Serif" font-size="10.00">firmware/wombat/src</text>
<text text-anchor="middle" x="219.5" y="-73" font-family="Helvetica,sans-Serif" font-size="10.00">/bluetooth/server.cpp</text>
</a>
</g>
</g>
<!-- Node3&#45;&gt;Node6 -->
<g id="edge6" class="edge">
<title>Node3&#45;&gt;Node6</title>
<path fill="none" stroke="#63b8ff" d="M109.84,-133.15C134.75,-121.53 166.48,-106.73 189.39,-96.04"/>
<polygon fill="#63b8ff" stroke="#63b8ff" points="108.24,-130.04 100.65,-137.44 111.19,-136.38 108.24,-130.04"/>
</g>
<!-- Node4&#45;&gt;Node3 -->
<g id="edge4" class="edge">
<title>Node4&#45;&gt;Node3</title>
<path fill="none" stroke="#63b8ff" d="M76.97,-106.23C77.54,-116.66 77.24,-128.49 76.05,-137.44"/>
<polygon fill="#63b8ff" stroke="#63b8ff" points="80.43,-105.69 76.05,-96.04 73.46,-106.32 80.43,-105.69"/>
</g>
<!-- Node5 -->
<g id="node5" class="node">
<title>Node5</title>
<g id="a_node5"><a xlink:href="uart_8cpp.html" target="_top" xlink:title="BluetoothLE UART service setup and handling.">
<polygon fill="white" stroke="#666666" points="130.5,-30 10.5,-30 10.5,0 130.5,0 130.5,-30"/>
<text text-anchor="start" x="18.5" y="-18" font-family="Helvetica,sans-Serif" font-size="10.00">firmware/wombat/src</text>
<text text-anchor="middle" x="70.5" y="-7" font-family="Helvetica,sans-Serif" font-size="10.00">/bluetooth/uart.cpp</text>
</a>
</g>
</g>
<!-- Node4&#45;&gt;Node5 -->
<g id="edge5" class="edge">
<title>Node4&#45;&gt;Node5</title>
<path fill="none" stroke="#63b8ff" d="M70.5,-55.54C70.5,-46.96 70.5,-37.61 70.5,-30.16"/>
<polygon fill="#63b8ff" stroke="#63b8ff" points="67,-55.8 70.5,-65.8 74,-55.8 67,-55.8"/>
</g>
<!-- Node9 -->
<g id="node9" class="node">
<title>Node9</title>
<g id="a_node9"><a xlink:href="_c_a_t___m1_8cpp.html" target="_top" xlink:title=" ">
<polygon fill="white" stroke="#666666" points="475.5,-167.5 355.5,-167.5 355.5,-137.5 475.5,-137.5 475.5,-167.5"/>
<text text-anchor="start" x="363.5" y="-155.5" font-family="Helvetica,sans-Serif" font-size="10.00">firmware/wombat/src</text>
<text text-anchor="middle" x="415.5" y="-144.5" font-family="Helvetica,sans-Serif" font-size="10.00">/CAT_M1.cpp</text>
</a>
</g>
</g>
<!-- Node8&#45;&gt;Node9 -->
<g id="edge9" class="edge">
<title>Node8&#45;&gt;Node9</title>
<path fill="none" stroke="#63b8ff" d="M1200.7,-223.58C1056.01,-223.37 743.58,-217.22 484.5,-173 476.52,-171.64 468.15,-169.71 460.09,-167.59"/>
<polygon fill="#63b8ff" stroke="#63b8ff" points="1200.82,-227.08 1210.82,-223.58 1200.83,-220.08 1200.82,-227.08"/>
</g>
<!-- Node10 -->
<g id="node10" class="node">
<title>Node10</title>
<g id="a_node10"><a xlink:href="_device_config_8cpp.html" target="_top" xlink:title=" ">
<polygon fill="white" stroke="#666666" points="613.5,-167.5 493.5,-167.5 493.5,-137.5 613.5,-137.5 613.5,-167.5"/>
<text text-anchor="start" x="501.5" y="-155.5" font-family="Helvetica,sans-Serif" font-size="10.00">firmware/wombat/src</text>
<text text-anchor="middle" x="553.5" y="-144.5" font-family="Helvetica,sans-Serif" font-size="10.00">/DeviceConfig.cpp</text>
</a>
</g>
</g>
<!-- Node8&#45;&gt;Node10 -->
<g id="edge10" class="edge">
<title>Node8&#45;&gt;Node10</title>
<path fill="none" stroke="#63b8ff" d="M1200.45,-222.04C1075.46,-219.4 828.54,-209.55 622.5,-173 614.53,-171.59 606.16,-169.63 598.11,-167.51"/>
<polygon fill="#63b8ff" stroke="#63b8ff" points="1200.63,-225.55 1210.7,-222.25 1200.77,-218.55 1200.63,-225.55"/>
</g>
<!-- Node11 -->
<g id="node11" class="node">
<title>Node11</title>
<g id="a_node11"><a xlink:href="_sensor_task_8cpp.html" target="_top" xlink:title=" ">
<polygon fill="white" stroke="#666666" points="751.5,-167.5 631.5,-167.5 631.5,-137.5 751.5,-137.5 751.5,-167.5"/>
<text text-anchor="start" x="639.5" y="-155.5" font-family="Helvetica,sans-Serif" font-size="10.00">firmware/wombat/src</text>
<text text-anchor="middle" x="691.5" y="-144.5" font-family="Helvetica,sans-Serif" font-size="10.00">/SensorTask.cpp</text>
</a>
</g>
</g>
<!-- Node8&#45;&gt;Node11 -->
<g id="edge11" class="edge">
<title>Node8&#45;&gt;Node11</title>
<path fill="none" stroke="#63b8ff" d="M1200.99,-219.76C1098.08,-214.6 914.78,-201.96 760.5,-173 752.79,-171.55 744.7,-169.64 736.88,-167.57"/>
<polygon fill="#63b8ff" stroke="#63b8ff" points="1200.83,-223.26 1210.99,-220.25 1201.18,-216.27 1200.83,-223.26"/>
</g>
<!-- Node12 -->
<g id="node12" class="node">
<title>Node12</title>
<g id="a_node12"><a xlink:href="_utils_8cpp.html" target="_top" xlink:title="Global utility functions.">
<polygon fill="white" stroke="#666666" points="889.5,-167.5 769.5,-167.5 769.5,-137.5 889.5,-137.5 889.5,-167.5"/>
<text text-anchor="start" x="777.5" y="-155.5" font-family="Helvetica,sans-Serif" font-size="10.00">firmware/wombat/src</text>
<text text-anchor="middle" x="829.5" y="-144.5" font-family="Helvetica,sans-Serif" font-size="10.00">/Utils.cpp</text>
</a>
</g>
</g>
<!-- Node8&#45;&gt;Node12 -->
<g id="edge12" class="edge">
<title>Node8&#45;&gt;Node12</title>
<path fill="none" stroke="#63b8ff" d="M1200.52,-215.88C1122.61,-208.23 1001.75,-194.21 898.5,-173 891.06,-171.47 883.25,-169.56 875.67,-167.55"/>
<polygon fill="#63b8ff" stroke="#63b8ff" points="1200.46,-219.39 1210.75,-216.88 1201.13,-212.43 1200.46,-219.39"/>
</g>
<!-- Node13 -->
<g id="node13" class="node">
<title>Node13</title>
<g id="a_node13"><a xlink:href="acquisition__intervals_8cpp.html" target="_top" xlink:title="Handles the time between measurements and uplinks by the device over LTE.">
<polygon fill="white" stroke="#666666" points="1065,-173 908,-173 908,-132 1065,-132 1065,-173"/>
<text text-anchor="start" x="916" y="-161" font-family="Helvetica,sans-Serif" font-size="10.00">firmware/wombat/src</text>
<text text-anchor="start" x="916" y="-150" font-family="Helvetica,sans-Serif" font-size="10.00">/cli/device_config/acquisition</text>
<text text-anchor="middle" x="986.5" y="-139" font-family="Helvetica,sans-Serif" font-size="10.00">_intervals.cpp</text>
</a>
</g>
</g>
<!-- Node8&#45;&gt;Node13 -->
<g id="edge13" class="edge">
<title>Node8&#45;&gt;Node13</title>
<path fill="none" stroke="#63b8ff" d="M1212.04,-206.64C1167.98,-196.26 1110.87,-182.8 1065.14,-172.03"/>
<polygon fill="#63b8ff" stroke="#63b8ff" points="1211.27,-210.05 1221.8,-208.94 1212.87,-203.24 1211.27,-210.05"/>
</g>
<!-- Node14 -->
<g id="node14" class="node">
<title>Node14</title>
<g id="a_node14"><a xlink:href="cli__power_8cpp.html" target="_top" xlink:title="Power related commands.">
<polygon fill="white" stroke="#666666" points="1203.5,-173 1083.5,-173 1083.5,-132 1203.5,-132 1203.5,-173"/>
<text text-anchor="start" x="1091.5" y="-161" font-family="Helvetica,sans-Serif" font-size="10.00">firmware/wombat/src</text>
<text text-anchor="start" x="1091.5" y="-150" font-family="Helvetica,sans-Serif" font-size="10.00">/cli/device_config/cli</text>
<text text-anchor="middle" x="1143.5" y="-139" font-family="Helvetica,sans-Serif" font-size="10.00">_power.cpp</text>
</a>
</g>
</g>
<!-- Node8&#45;&gt;Node14 -->
<g id="edge14" class="edge">
<title>Node8&#45;&gt;Node14</title>
<path fill="none" stroke="#63b8ff" d="M1244.52,-204.38C1225.31,-194.7 1201.84,-182.88 1182.37,-173.07"/>
<polygon fill="#63b8ff" stroke="#63b8ff" points="1243.07,-207.56 1253.57,-208.94 1246.22,-201.31 1243.07,-207.56"/>
</g>
<!-- Node15 -->
<g id="node15" class="node">
<title>Node15</title>
<g id="a_node15"><a xlink:href="cat-m1_8cpp.html" target="_top" xlink:title="CAT&#45;M1 CLI command request and response handler.">
<polygon fill="white" stroke="#666666" points="1341.5,-173 1221.5,-173 1221.5,-132 1341.5,-132 1341.5,-173"/>
<text text-anchor="start" x="1229.5" y="-161" font-family="Helvetica,sans-Serif" font-size="10.00">firmware/wombat/src</text>
<text text-anchor="start" x="1229.5" y="-150" font-family="Helvetica,sans-Serif" font-size="10.00">/cli/peripherals/cat</text>
<text text-anchor="middle" x="1281.5" y="-139" font-family="Helvetica,sans-Serif" font-size="10.00">&#45;m1.cpp</text>
</a>
</g>
</g>
<!-- Node8&#45;&gt;Node15 -->
<g id="edge15" class="edge">
<title>Node8&#45;&gt;Node15</title>
<path fill="none" stroke="#63b8ff" d="M1281.5,-198.91C1281.5,-190.47 1281.5,-181.1 1281.5,-173.07"/>
<polygon fill="#63b8ff" stroke="#63b8ff" points="1278,-198.94 1281.5,-208.94 1285,-198.94 1278,-198.94"/>
</g>
<!-- Node16 -->
<g id="node16" class="node">
<title>Node16</title>
<g id="a_node16"><a xlink:href="sd__card_8cpp.html" target="_top" xlink:title=" ">
<polygon fill="white" stroke="#666666" points="1479.5,-173 1359.5,-173 1359.5,-132 1479.5,-132 1479.5,-173"/>
<text text-anchor="start" x="1367.5" y="-161" font-family="Helvetica,sans-Serif" font-size="10.00">firmware/wombat/src</text>
<text text-anchor="start" x="1367.5" y="-150" font-family="Helvetica,sans-Serif" font-size="10.00">/cli/peripherals/sd</text>
<text text-anchor="middle" x="1419.5" y="-139" font-family="Helvetica,sans-Serif" font-size="10.00">_card.cpp</text>
</a>
</g>
</g>
<!-- Node8&#45;&gt;Node16 -->
<g id="edge16" class="edge">
<title>Node8&#45;&gt;Node16</title>
<path fill="none" stroke="#63b8ff" d="M1318.48,-204.38C1337.69,-194.7 1361.16,-182.88 1380.63,-173.07"/>
<polygon fill="#63b8ff" stroke="#63b8ff" points="1316.78,-201.31 1309.43,-208.94 1319.93,-207.56 1316.78,-201.31"/>
</g>
<!-- Node17 -->
<g id="node17" class="node">
<title>Node17</title>
<g id="a_node17"><a xlink:href="ftp__stack_8cpp.html" target="_top" xlink:title=" ">
<polygon fill="white" stroke="#666666" points="1617.5,-167.5 1497.5,-167.5 1497.5,-137.5 1617.5,-137.5 1617.5,-167.5"/>
<text text-anchor="start" x="1505.5" y="-155.5" font-family="Helvetica,sans-Serif" font-size="10.00">firmware/wombat/src</text>
<text text-anchor="middle" x="1557.5" y="-144.5" font-family="Helvetica,sans-Serif" font-size="10.00">/ftp_stack.cpp</text>
</a>
</g>
</g>
<!-- Node8&#45;&gt;Node17 -->
<g id="edge17" class="edge">
<title>Node8&#45;&gt;Node17</title>
<path fill="none" stroke="#63b8ff" d="M1352.28,-206.61C1392.35,-197.16 1443.33,-184.83 1488.5,-173 1495,-171.3 1501.83,-169.44 1508.56,-167.58"/>
<polygon fill="#63b8ff" stroke="#63b8ff" points="1351.27,-203.26 1342.34,-208.95 1352.88,-210.07 1351.27,-203.26"/>
</g>
<!-- Node18 -->
<g id="node18" class="node">
<title>Node18</title>
<g id="a_node18"><a xlink:href="main_8cpp.html" target="_top" xlink:title=" ">
<polygon fill="white" stroke="#666666" points="1755.5,-167.5 1635.5,-167.5 1635.5,-137.5 1755.5,-137.5 1755.5,-167.5"/>
<text text-anchor="start" x="1643.5" y="-155.5" font-family="Helvetica,sans-Serif" font-size="10.00">firmware/wombat/src</text>
<text text-anchor="middle" x="1695.5" y="-144.5" font-family="Helvetica,sans-Serif" font-size="10.00">/main.cpp</text>
</a>
</g>
</g>
<!-- Node8&#45;&gt;Node18 -->
<g id="edge18" class="edge">
<title>Node8&#45;&gt;Node18</title>
<path fill="none" stroke="#63b8ff" d="M1362.34,-208.92C1480.72,-191.08 1513.32,-196.56 1626.5,-173 1633.93,-171.45 1641.74,-169.54 1649.33,-167.51"/>
<polygon fill="#63b8ff" stroke="#63b8ff" points="1361.5,-205.51 1352.15,-210.49 1362.56,-212.43 1361.5,-205.51"/>
</g>
<!-- Node19 -->
<g id="node19" class="node">
<title>Node19</title>
<g id="a_node19"><a xlink:href="mqtt__stack_8cpp.html" target="_top" xlink:title=" ">
<polygon fill="white" stroke="#666666" points="1893.5,-167.5 1773.5,-167.5 1773.5,-137.5 1893.5,-137.5 1893.5,-167.5"/>
<text text-anchor="start" x="1781.5" y="-155.5" font-family="Helvetica,sans-Serif" font-size="10.00">firmware/wombat/src</text>
<text text-anchor="middle" x="1833.5" y="-144.5" font-family="Helvetica,sans-Serif" font-size="10.00">/mqtt_stack.cpp</text>
</a>
</g>
</g>
<!-- Node8&#45;&gt;Node19 -->
<g id="edge19" class="edge">
<title>Node8&#45;&gt;Node19</title>
<path fill="none" stroke="#63b8ff" d="M1362.16,-209.01C1541.55,-186.19 1590.85,-205 1764.5,-173 1772.33,-171.56 1780.56,-169.62 1788.5,-167.52"/>
<polygon fill="#63b8ff" stroke="#63b8ff" points="1361.59,-205.55 1352.12,-210.31 1362.49,-212.49 1361.59,-205.55"/>
</g>
<!-- Node20 -->
<g id="node20" class="node">
<title>Node20</title>
<g id="a_node20"><a xlink:href="ota__update_8cpp.html" target="_top" xlink:title=" ">
<polygon fill="white" stroke="#666666" points="2031.5,-167.5 1911.5,-167.5 1911.5,-137.5 2031.5,-137.5 2031.5,-167.5"/>
<text text-anchor="start" x="1919.5" y="-155.5" font-family="Helvetica,sans-Serif" font-size="10.00">firmware/wombat/src</text>
<text text-anchor="middle" x="1971.5" y="-144.5" font-family="Helvetica,sans-Serif" font-size="10.00">/ota_update.cpp</text>
</a>
</g>
</g>
<!-- Node8&#45;&gt;Node20 -->
<g id="edge20" class="edge">
<title>Node8&#45;&gt;Node20</title>
<path fill="none" stroke="#63b8ff" d="M1362.21,-209.03C1602.54,-181.1 1668.28,-213.43 1902.5,-173 1910.47,-171.62 1918.85,-169.69 1926.9,-167.57"/>
<polygon fill="#63b8ff" stroke="#63b8ff" points="1361.63,-205.57 1352.11,-210.22 1362.45,-212.52 1361.63,-205.57"/>
</g>
<!-- Node21 -->
<g id="node21" class="node">
<title>Node21</title>
<g id="a_node21"><a xlink:href="interface_8cpp.html" target="_top" xlink:title=" ">
<polygon fill="white" stroke="#666666" points="2171.5,-167.5 2049.5,-167.5 2049.5,-137.5 2171.5,-137.5 2171.5,-167.5"/>
<text text-anchor="start" x="2057.5" y="-155.5" font-family="Helvetica,sans-Serif" font-size="10.00">firmware/wombat/src</text>
<text text-anchor="middle" x="2110.5" y="-144.5" font-family="Helvetica,sans-Serif" font-size="10.00">/sd&#45;card/interface.cpp</text>
</a>
</g>
</g>
<!-- Node8&#45;&gt;Node21 -->
<g id="edge21" class="edge">
<title>Node8&#45;&gt;Node21</title>
<path fill="none" stroke="#63b8ff" d="M1362.45,-209.01C1663.61,-175.93 1745.62,-221.29 2040.5,-173 2048.72,-171.65 2057.35,-169.71 2065.64,-167.56"/>
<polygon fill="#63b8ff" stroke="#63b8ff" points="1361.65,-205.58 1352.1,-210.17 1362.43,-212.54 1361.65,-205.58"/>
</g>
<!-- Node22 -->
<g id="node22" class="node">
<title>Node22</title>
<g id="a_node22"><a xlink:href="uplinks_8cpp.html" target="_top" xlink:title=" ">
<polygon fill="white" stroke="#666666" points="2309.5,-167.5 2189.5,-167.5 2189.5,-137.5 2309.5,-137.5 2309.5,-167.5"/>
<text text-anchor="start" x="2197.5" y="-155.5" font-family="Helvetica,sans-Serif" font-size="10.00">firmware/wombat/src</text>
<text text-anchor="middle" x="2249.5" y="-144.5" font-family="Helvetica,sans-Serif" font-size="10.00">/uplinks.cpp</text>
</a>
</g>
</g>
<!-- Node8&#45;&gt;Node22 -->
<g id="edge22" class="edge">
<title>Node8&#45;&gt;Node22</title>
<path fill="none" stroke="#63b8ff" d="M1362.1,-209.06C1725.48,-170.61 1824.03,-230.41 2180.5,-173 2188.73,-171.67 2197.38,-169.71 2205.67,-167.52"/>
<polygon fill="#63b8ff" stroke="#63b8ff" points="1361.67,-205.59 1352.1,-210.14 1362.42,-212.55 1361.67,-205.59"/>
</g>
</g>
</svg>
