<?xml version="1.0" encoding="UTF-8" standalone="no"?>
<!DOCTYPE svg PUBLIC "-//W3C//DTD SVG 1.1//EN"
 "http://www.w3.org/Graphics/SVG/1.1/DTD/svg11.dtd">
<!-- Generated by graphviz version 2.43.0 (0)
 -->
<!-- Title: firmware/wombat/include/power_monitoring/battery.h Pages: 1 -->
<svg width="1578pt" height="313pt"
 viewBox="0.00 0.00 1578.00 313.00" xmlns="http://www.w3.org/2000/svg" xmlns:xlink="http://www.w3.org/1999/xlink">
<g id="graph0" class="graph" transform="scale(1 1) rotate(0) translate(4 309)">
<title>firmware/wombat/include/power_monitoring/battery.h</title>
<!-- Node1 -->
<g id="node1" class="node">
<title>Node1</title>
<g id="a_node1"><a xlink:title="Battery voltage and current monitoring using INA219 IC.">
<polygon fill="#999999" stroke="#666666" points="809,-305 655,-305 655,-275 809,-275 809,-305"/>
<text text-anchor="start" x="663" y="-293" font-family="Helvetica,sans-Serif" font-size="10.00">firmware/wombat/include</text>
<text text-anchor="middle" x="732" y="-282" font-family="Helvetica,sans-Serif" font-size="10.00">/power_monitoring/battery.h</text>
</a>
</g>
</g>
<!-- Node2 -->
<g id="node2" class="node">
<title>Node2</title>
<g id="a_node2"><a xlink:href="power__monitoring_8h.html" target="_top" xlink:title="Setup BluetoothLE power monitoring information.">
<polygon fill="white" stroke="#666666" points="648.5,-239 481.5,-239 481.5,-209 648.5,-209 648.5,-239"/>
<text text-anchor="start" x="489.5" y="-227" font-family="Helvetica,sans-Serif" font-size="10.00">firmware/wombat/include</text>
<text text-anchor="middle" x="565" y="-216" font-family="Helvetica,sans-Serif" font-size="10.00">/bluetooth/power_monitoring.h</text>
</a>
</g>
</g>
<!-- Node1&#45;&gt;Node2 -->
<g id="edge1" class="edge">
<title>Node1&#45;&gt;Node2</title>
<path fill="none" stroke="#63b8ff" d="M685.87,-271.32C659.29,-261.14 626.34,-248.51 601.56,-239.01"/>
<polygon fill="#63b8ff" stroke="#63b8ff" points="684.76,-274.64 695.35,-274.95 687.27,-268.11 684.76,-274.64"/>
</g>
<!-- Node12 -->
<g id="node12" class="node">
<title>Node12</title>
<g id="a_node12"><a xlink:href="globals_8h.html" target="_top" xlink:title=" ">
<polygon fill="white" stroke="#666666" points="930.5,-107 789.5,-107 789.5,-77 930.5,-77 930.5,-107"/>
<text text-anchor="start" x="797.5" y="-95" font-family="Helvetica,sans-Serif" font-size="10.00">firmware/wombat/include</text>
<text text-anchor="middle" x="860" y="-84" font-family="Helvetica,sans-Serif" font-size="10.00">/globals.h</text>
</a>
</g>
</g>
<!-- Node1&#45;&gt;Node12 -->
<g id="edge13" class="edge">
<title>Node1&#45;&gt;Node12</title>
<path fill="none" stroke="#63b8ff" d="M734.4,-264.96C736.83,-248.44 741.62,-226.43 751,-209 774.18,-165.93 817.41,-126.96 841.89,-107.02"/>
<polygon fill="#63b8ff" stroke="#63b8ff" points="730.93,-264.56 733.13,-274.92 737.87,-265.45 730.93,-264.56"/>
</g>
<!-- Node20 -->
<g id="node20" class="node">
<title>Node20</title>
<g id="a_node20"><a xlink:href="battery_8cpp.html" target="_top" xlink:title="Battery voltage and current monitoring using INA219 IC.">
<polygon fill="white" stroke="#666666" points="925.5,-239 760.5,-239 760.5,-209 925.5,-209 925.5,-239"/>
<text text-anchor="start" x="768.5" y="-227" font-family="Helvetica,sans-Serif" font-size="10.00">firmware/wombat/src</text>
<text text-anchor="middle" x="843" y="-216" font-family="Helvetica,sans-Serif" font-size="10.00">/power_monitoring/battery.cpp</text>
</a>
</g>
</g>
<!-- Node1&#45;&gt;Node20 -->
<g id="edge23" class="edge">
<title>Node1&#45;&gt;Node20</title>
<path fill="none" stroke="#63b8ff" d="M765.48,-269.69C782.62,-259.82 803.09,-248.01 818.7,-239.01"/>
<polygon fill="#63b8ff" stroke="#63b8ff" points="763.27,-266.93 756.36,-274.95 766.77,-272.99 763.27,-266.93"/>
</g>
<!-- Node3 -->
<g id="node3" class="node">
<title>Node3</title>
<g id="a_node3"><a xlink:href="server_8h.html" target="_top" xlink:title="Handle the setup and maintenance of the BLE server and connected clients.">
<polygon fill="white" stroke="#666666" points="358.5,-173 217.5,-173 217.5,-143 358.5,-143 358.5,-173"/>
<text text-anchor="start" x="225.5" y="-161" font-family="Helvetica,sans-Serif" font-size="10.00">firmware/wombat/include</text>
<text text-anchor="middle" x="288" y="-150" font-family="Helvetica,sans-Serif" font-size="10.00">/bluetooth/server.h</text>
</a>
</g>
</g>
<!-- Node2&#45;&gt;Node3 -->
<g id="edge2" class="edge">
<title>Node2&#45;&gt;Node3</title>
<path fill="none" stroke="#63b8ff" d="M494.23,-206.65C449.22,-196.25 391.55,-182.93 348.65,-173.01"/>
<polygon fill="#63b8ff" stroke="#63b8ff" points="493.68,-210.11 504.21,-208.95 495.26,-203.29 493.68,-210.11"/>
</g>
<!-- Node11 -->
<g id="node11" class="node">
<title>Node11</title>
<g id="a_node11"><a xlink:href="power__monitoring_8cpp.html" target="_top" xlink:title="BluetoothLE power monitoring service setup and attached to BLE server.">
<polygon fill="white" stroke="#666666" points="654,-173 476,-173 476,-143 654,-143 654,-173"/>
<text text-anchor="start" x="484" y="-161" font-family="Helvetica,sans-Serif" font-size="10.00">firmware/wombat/src</text>
<text text-anchor="middle" x="565" y="-150" font-family="Helvetica,sans-Serif" font-size="10.00">/bluetooth/power_monitoring.cpp</text>
</a>
</g>
</g>
<!-- Node2&#45;&gt;Node11 -->
<g id="edge12" class="edge">
<title>Node2&#45;&gt;Node11</title>
<path fill="none" stroke="#63b8ff" d="M565,-198.54C565,-189.96 565,-180.61 565,-173.16"/>
<polygon fill="#63b8ff" stroke="#63b8ff" points="561.5,-198.8 565,-208.8 568.5,-198.8 561.5,-198.8"/>
</g>
<!-- Node4 -->
<g id="node4" class="node">
<title>Node4</title>
<g id="a_node4"><a xlink:href="uart_8h.html" target="_top" xlink:title="BluetoothLE UART service setup and handling.">
<polygon fill="white" stroke="#666666" points="279.5,-107 138.5,-107 138.5,-77 279.5,-77 279.5,-107"/>
<text text-anchor="start" x="146.5" y="-95" font-family="Helvetica,sans-Serif" font-size="10.00">firmware/wombat/include</text>
<text text-anchor="middle" x="209" y="-84" font-family="Helvetica,sans-Serif" font-size="10.00">/bluetooth/uart.h</text>
</a>
</g>
</g>
<!-- Node3&#45;&gt;Node4 -->
<g id="edge3" class="edge">
<title>Node3&#45;&gt;Node4</title>
<path fill="none" stroke="#63b8ff" d="M256.68,-136.75C244.08,-127.13 230.37,-115.86 220.77,-107.16"/>
<polygon fill="#63b8ff" stroke="#63b8ff" points="254.65,-139.6 264.75,-142.8 258.84,-134 254.65,-139.6"/>
</g>
<!-- Node6 -->
<g id="node6" class="node">
<title>Node6</title>
<g id="a_node6"><a xlink:href="_c_l_i_8h.html" target="_top" xlink:title="FreeRTOS CLI handler.">
<polygon fill="white" stroke="#666666" points="438.5,-107 297.5,-107 297.5,-77 438.5,-77 438.5,-107"/>
<text text-anchor="start" x="305.5" y="-95" font-family="Helvetica,sans-Serif" font-size="10.00">firmware/wombat/include</text>
<text text-anchor="middle" x="368" y="-84" font-family="Helvetica,sans-Serif" font-size="10.00">/cli/CLI.h</text>
</a>
</g>
</g>
<!-- Node3&#45;&gt;Node6 -->
<g id="edge6" class="edge">
<title>Node3&#45;&gt;Node6</title>
<path fill="none" stroke="#63b8ff" d="M307.63,-136.2C318.83,-126.7 332.81,-115.69 344.58,-107.16"/>
<polygon fill="#63b8ff" stroke="#63b8ff" points="305.29,-133.6 300.03,-142.8 309.88,-138.88 305.29,-133.6"/>
</g>
<!-- Node10 -->
<g id="node10" class="node">
<title>Node10</title>
<g id="a_node10"><a xlink:href="server_8cpp.html" target="_top" xlink:title="Setup and start BluetoothLE server.">
<polygon fill="white" stroke="#666666" points="120,-107 0,-107 0,-77 120,-77 120,-107"/>
<text text-anchor="start" x="8" y="-95" font-family="Helvetica,sans-Serif" font-size="10.00">firmware/wombat/src</text>
<text text-anchor="middle" x="60" y="-84" font-family="Helvetica,sans-Serif" font-size="10.00">/bluetooth/server.cpp</text>
</a>
</g>
</g>
<!-- Node3&#45;&gt;Node10 -->
<g id="edge11" class="edge">
<title>Node3&#45;&gt;Node10</title>
<path fill="none" stroke="#63b8ff" d="M227.87,-140.12C191.11,-129.8 144.64,-116.76 109.92,-107.01"/>
<polygon fill="#63b8ff" stroke="#63b8ff" points="227.39,-143.62 237.96,-142.95 229.28,-136.88 227.39,-143.62"/>
</g>
<!-- Node4&#45;&gt;Node3 -->
<g id="edge4" class="edge">
<title>Node4&#45;&gt;Node3</title>
<path fill="none" stroke="#63b8ff" d="M240.26,-113.2C252.86,-122.82 266.58,-134.1 276.19,-142.8"/>
<polygon fill="#63b8ff" stroke="#63b8ff" points="242.3,-110.36 232.2,-107.16 238.1,-115.96 242.3,-110.36"/>
</g>
<!-- Node5 -->
<g id="node5" class="node">
<title>Node5</title>
<g id="a_node5"><a xlink:href="uart_8cpp.html" target="_top" xlink:title="BluetoothLE UART service setup and handling.">
<polygon fill="white" stroke="#666666" points="152,-35.5 32,-35.5 32,-5.5 152,-5.5 152,-35.5"/>
<text text-anchor="start" x="40" y="-23.5" font-family="Helvetica,sans-Serif" font-size="10.00">firmware/wombat/src</text>
<text text-anchor="middle" x="92" y="-12.5" font-family="Helvetica,sans-Serif" font-size="10.00">/bluetooth/uart.cpp</text>
</a>
</g>
</g>
<!-- Node4&#45;&gt;Node5 -->
<g id="edge5" class="edge">
<title>Node4&#45;&gt;Node5</title>
<path fill="none" stroke="#63b8ff" d="M176.55,-71.72C157.23,-60.25 133.16,-45.95 115.64,-35.54"/>
<polygon fill="#63b8ff" stroke="#63b8ff" points="174.94,-74.84 185.32,-76.94 178.51,-68.82 174.94,-74.84"/>
</g>
<!-- Node6&#45;&gt;Node3 -->
<g id="edge7" class="edge">
<title>Node6&#45;&gt;Node3</title>
<path fill="none" stroke="#63b8ff" d="M348.42,-113.75C337.23,-123.25 323.25,-134.26 311.47,-142.8"/>
<polygon fill="#63b8ff" stroke="#63b8ff" points="350.76,-116.36 356.01,-107.16 346.16,-111.08 350.76,-116.36"/>
</g>
<!-- Node7 -->
<g id="node7" class="node">
<title>Node7</title>
<g id="a_node7"><a xlink:href="_c_l_i_8cpp.html" target="_top" xlink:title="FreeRTOS CLI handler.">
<polygon fill="white" stroke="#666666" points="290,-35.5 170,-35.5 170,-5.5 290,-5.5 290,-35.5"/>
<text text-anchor="start" x="178" y="-23.5" font-family="Helvetica,sans-Serif" font-size="10.00">firmware/wombat/src</text>
<text text-anchor="middle" x="230" y="-12.5" font-family="Helvetica,sans-Serif" font-size="10.00">/cli/CLI.cpp</text>
</a>
</g>
</g>
<!-- Node6&#45;&gt;Node7 -->
<g id="edge8" class="edge">
<title>Node6&#45;&gt;Node7</title>
<path fill="none" stroke="#63b8ff" d="M330.96,-72.34C307.97,-60.77 278.92,-46.14 257.88,-35.54"/>
<polygon fill="#63b8ff" stroke="#63b8ff" points="329.57,-75.56 340.07,-76.94 332.72,-69.31 329.57,-75.56"/>
</g>
<!-- Node8 -->
<g id="node8" class="node">
<title>Node8</title>
<g id="a_node8"><a xlink:href="main_8cpp.html" target="_top" xlink:title=" ">
<polygon fill="white" stroke="#666666" points="566,-35.5 446,-35.5 446,-5.5 566,-5.5 566,-35.5"/>
<text text-anchor="start" x="454" y="-23.5" font-family="Helvetica,sans-Serif" font-size="10.00">firmware/wombat/src</text>
<text text-anchor="middle" x="506" y="-12.5" font-family="Helvetica,sans-Serif" font-size="10.00">/main.cpp</text>
</a>
</g>
</g>
<!-- Node6&#45;&gt;Node8 -->
<g id="edge9" class="edge">
<title>Node6&#45;&gt;Node8</title>
<path fill="none" stroke="#63b8ff" d="M405.04,-72.34C428.03,-60.77 457.08,-46.14 478.12,-35.54"/>
<polygon fill="#63b8ff" stroke="#63b8ff" points="403.28,-69.31 395.93,-76.94 406.43,-75.56 403.28,-69.31"/>
</g>
<!-- Node9 -->
<g id="node9" class="node">
<title>Node9</title>
<g id="a_node9"><a xlink:href="mqtt__stack_8cpp.html" target="_top" xlink:title=" ">
<polygon fill="white" stroke="#666666" points="428,-35.5 308,-35.5 308,-5.5 428,-5.5 428,-35.5"/>
<text text-anchor="start" x="316" y="-23.5" font-family="Helvetica,sans-Serif" font-size="10.00">firmware/wombat/src</text>
<text text-anchor="middle" x="368" y="-12.5" font-family="Helvetica,sans-Serif" font-size="10.00">/mqtt_stack.cpp</text>
</a>
</g>
</g>
<!-- Node6&#45;&gt;Node9 -->
<g id="edge10" class="edge">
<title>Node6&#45;&gt;Node9</title>
<path fill="none" stroke="#63b8ff" d="M368,-66.75C368,-56.31 368,-44.49 368,-35.54"/>
<polygon fill="#63b8ff" stroke="#63b8ff" points="364.5,-66.94 368,-76.94 371.5,-66.94 364.5,-66.94"/>
</g>
<!-- Node12&#45;&gt;Node8 -->
<g id="edge20" class="edge">
<title>Node12&#45;&gt;Node8</title>
<path fill="none" stroke="#63b8ff" d="M779.24,-79.08C721.94,-70.07 643.38,-56.62 575,-41 567.96,-39.39 560.57,-37.51 553.35,-35.57"/>
<polygon fill="#63b8ff" stroke="#63b8ff" points="778.91,-82.57 789.33,-80.65 779.99,-75.65 778.91,-82.57"/>
</g>
<!-- Node12&#45;&gt;Node9 -->
<g id="edge21" class="edge">
<title>Node12&#45;&gt;Node9</title>
<path fill="none" stroke="#63b8ff" d="M779.32,-85.27C693.76,-78.31 554.95,-64.49 437,-41 429.43,-39.49 421.48,-37.57 413.78,-35.53"/>
<polygon fill="#63b8ff" stroke="#63b8ff" points="779.24,-88.78 789.49,-86.09 779.8,-81.8 779.24,-88.78"/>
</g>
<!-- Node13 -->
<g id="node13" class="node">
<title>Node13</title>
<g id="a_node13"><a xlink:href="_c_a_t___m1_8cpp.html" target="_top" xlink:title=" ">
<polygon fill="white" stroke="#666666" points="1570,-35.5 1450,-35.5 1450,-5.5 1570,-5.5 1570,-35.5"/>
<text text-anchor="start" x="1458" y="-23.5" font-family="Helvetica,sans-Serif" font-size="10.00">firmware/wombat/src</text>
<text text-anchor="middle" x="1510" y="-12.5" font-family="Helvetica,sans-Serif" font-size="10.00">/CAT_M1.cpp</text>
</a>
</g>
</g>
<!-- Node12&#45;&gt;Node13 -->
<g id="edge14" class="edge">
<title>Node12&#45;&gt;Node13</title>
<path fill="none" stroke="#63b8ff" d="M941.06,-88.87C1053.94,-84.8 1264.5,-73.23 1441,-41 1448.84,-39.57 1457.07,-37.63 1465.01,-35.54"/>
<polygon fill="#63b8ff" stroke="#63b8ff" points="940.65,-85.38 930.78,-89.23 940.89,-92.37 940.65,-85.38"/>
</g>
<!-- Node14 -->
<g id="node14" class="node">
<title>Node14</title>
<g id="a_node14"><a xlink:href="_sensor_task_8cpp.html" target="_top" xlink:title=" ">
<polygon fill="white" stroke="#666666" points="704,-35.5 584,-35.5 584,-5.5 704,-5.5 704,-35.5"/>
<text text-anchor="start" x="592" y="-23.5" font-family="Helvetica,sans-Serif" font-size="10.00">firmware/wombat/src</text>
<text text-anchor="middle" x="644" y="-12.5" font-family="Helvetica,sans-Serif" font-size="10.00">/SensorTask.cpp</text>
</a>
</g>
</g>
<!-- Node12&#45;&gt;Node14 -->
<g id="edge15" class="edge">
<title>Node12&#45;&gt;Node14</title>
<path fill="none" stroke="#63b8ff" d="M806.76,-73.87C770.11,-62.08 722.03,-46.61 687.65,-35.54"/>
<polygon fill="#63b8ff" stroke="#63b8ff" points="805.7,-77.2 816.29,-76.94 807.84,-70.54 805.7,-77.2"/>
</g>
<!-- Node15 -->
<g id="node15" class="node">
<title>Node15</title>
<g id="a_node15"><a xlink:href="_utils_8cpp.html" target="_top" xlink:title="Global utility functions.">
<polygon fill="white" stroke="#666666" points="842,-35.5 722,-35.5 722,-5.5 842,-5.5 842,-35.5"/>
<text text-anchor="start" x="730" y="-23.5" font-family="Helvetica,sans-Serif" font-size="10.00">firmware/wombat/src</text>
<text text-anchor="middle" x="782" y="-12.5" font-family="Helvetica,sans-Serif" font-size="10.00">/Utils.cpp</text>
</a>
</g>
</g>
<!-- Node12&#45;&gt;Node15 -->
<g id="edge16" class="edge">
<title>Node12&#45;&gt;Node15</title>
<path fill="none" stroke="#63b8ff" d="M836.42,-69.99C823.9,-58.84 808.86,-45.43 797.76,-35.54"/>
<polygon fill="#63b8ff" stroke="#63b8ff" points="834.42,-72.9 844.22,-76.94 839.08,-67.67 834.42,-72.9"/>
</g>
<!-- Node16 -->
<g id="node16" class="node">
<title>Node16</title>
<g id="a_node16"><a xlink:href="acquisition__intervals_8cpp.html" target="_top" xlink:title="Handles the time between measurements and uplinks by the device over LTE.">
<polygon fill="white" stroke="#666666" points="1017.5,-41 860.5,-41 860.5,0 1017.5,0 1017.5,-41"/>
<text text-anchor="start" x="868.5" y="-29" font-family="Helvetica,sans-Serif" font-size="10.00">firmware/wombat/src</text>
<text text-anchor="start" x="868.5" y="-18" font-family="Helvetica,sans-Serif" font-size="10.00">/cli/device_config/acquisition</text>
<text text-anchor="middle" x="939" y="-7" font-family="Helvetica,sans-Serif" font-size="10.00">_intervals.cpp</text>
</a>
</g>
</g>
<!-- Node12&#45;&gt;Node16 -->
<g id="edge17" class="edge">
<title>Node12&#45;&gt;Node16</title>
<path fill="none" stroke="#63b8ff" d="M883.61,-70.23C894.11,-60.99 906.41,-50.17 916.75,-41.07"/>
<polygon fill="#63b8ff" stroke="#63b8ff" points="881.18,-67.7 875.99,-76.94 885.81,-72.96 881.18,-67.7"/>
</g>
<!-- Node17 -->
<g id="node17" class="node">
<title>Node17</title>
<g id="a_node17"><a xlink:href="cli__power_8cpp.html" target="_top" xlink:title="Power related commands.">
<polygon fill="white" stroke="#666666" points="1156,-41 1036,-41 1036,0 1156,0 1156,-41"/>
<text text-anchor="start" x="1044" y="-29" font-family="Helvetica,sans-Serif" font-size="10.00">firmware/wombat/src</text>
<text text-anchor="start" x="1044" y="-18" font-family="Helvetica,sans-Serif" font-size="10.00">/cli/device_config/cli</text>
<text text-anchor="middle" x="1096" y="-7" font-family="Helvetica,sans-Serif" font-size="10.00">_power.cpp</text>
</a>
</g>
</g>
<!-- Node12&#45;&gt;Node17 -->
<g id="edge18" class="edge">
<title>Node12&#45;&gt;Node17</title>
<path fill="none" stroke="#63b8ff" d="M917.58,-74.04C953.4,-63.5 999.39,-49.95 1035.71,-39.25"/>
<polygon fill="#63b8ff" stroke="#63b8ff" points="916.36,-70.75 907.76,-76.94 918.34,-77.47 916.36,-70.75"/>
</g>
<!-- Node18 -->
<g id="node18" class="node">
<title>Node18</title>
<g id="a_node18"><a xlink:href="cat-m1_8cpp.html" target="_top" xlink:title="CAT&#45;M1 CLI command request and response handler.">
<polygon fill="white" stroke="#666666" points="1294,-41 1174,-41 1174,0 1294,0 1294,-41"/>
<text text-anchor="start" x="1182" y="-29" font-family="Helvetica,sans-Serif" font-size="10.00">firmware/wombat/src</text>
<text text-anchor="start" x="1182" y="-18" font-family="Helvetica,sans-Serif" font-size="10.00">/cli/peripherals/cat</text>
<text text-anchor="middle" x="1234" y="-7" font-family="Helvetica,sans-Serif" font-size="10.00">&#45;m1.cpp</text>
</a>
</g>
</g>
<!-- Node12&#45;&gt;Node18 -->
<g id="edge19" class="edge">
<title>Node12&#45;&gt;Node18</title>
<path fill="none" stroke="#63b8ff" d="M940.77,-80.3C1002.52,-71.5 1089.59,-57.78 1165,-41 1167.92,-40.35 1170.89,-39.65 1173.89,-38.92"/>
<polygon fill="#63b8ff" stroke="#63b8ff" points="940.11,-76.86 930.69,-81.72 941.09,-83.79 940.11,-76.86"/>
</g>
<!-- Node19 -->
<g id="node19" class="node">
<title>Node19</title>
<g id="a_node19"><a xlink:href="uplinks_8cpp.html" target="_top" xlink:title=" ">
<polygon fill="white" stroke="#666666" points="1432,-35.5 1312,-35.5 1312,-5.5 1432,-5.5 1432,-35.5"/>
<text text-anchor="start" x="1320" y="-23.5" font-family="Helvetica,sans-Serif" font-size="10.00">firmware/wombat/src</text>
<text text-anchor="middle" x="1372" y="-12.5" font-family="Helvetica,sans-Serif" font-size="10.00">/uplinks.cpp</text>
</a>
</g>
</g>
<!-- Node12&#45;&gt;Node19 -->
<g id="edge22" class="edge">
<title>Node12&#45;&gt;Node19</title>
<path fill="none" stroke="#63b8ff" d="M940.8,-85.85C1030.07,-79.25 1177.77,-65.59 1303,-41 1310.57,-39.51 1318.53,-37.6 1326.23,-35.56"/>
<polygon fill="#63b8ff" stroke="#63b8ff" points="940.46,-82.37 930.75,-86.59 940.97,-89.35 940.46,-82.37"/>
</g>
</g>
</svg>
