<?xml version="1.0" encoding="UTF-8" standalone="no"?>
<!DOCTYPE svg PUBLIC "-//W3C//DTD SVG 1.1//EN"
 "http://www.w3.org/Graphics/SVG/1.1/DTD/svg11.dtd">
<!-- Generated by graphviz version 2.43.0 (0)
 -->
<!-- Title: firmware/wombat/include/cli/peripherals/bluetooth.h Pages: 1 -->
<svg width="627pt" height="302pt"
 viewBox="0.00 0.00 627.00 302.00" xmlns="http://www.w3.org/2000/svg" xmlns:xlink="http://www.w3.org/1999/xlink">
<g id="graph0" class="graph" transform="scale(1 1) rotate(0) translate(4 298)">
<title>firmware/wombat/include/cli/peripherals/bluetooth.h</title>
<!-- Node1 -->
<g id="node1" class="node">
<title>Node1</title>
<g id="a_node1"><a xlink:title=" ">
<polygon fill="#999999" stroke="#666666" points="407.5,-294 260.5,-294 260.5,-264 407.5,-264 407.5,-294"/>
<text text-anchor="start" x="268.5" y="-282" font-family="Helvetica,sans-Serif" font-size="10.00">firmware/wombat/include</text>
<text text-anchor="middle" x="334" y="-271" font-family="Helvetica,sans-Serif" font-size="10.00">/cli/peripherals/bluetooth.h</text>
</a>
</g>
</g>
<!-- Node2 -->
<g id="node2" class="node">
<title>Node2</title>
<g id="a_node2"><a xlink:href="_c_l_i_8h.html" target="_top" xlink:title=" ">
<polygon fill="white" stroke="#666666" points="236.5,-228 95.5,-228 95.5,-198 236.5,-198 236.5,-228"/>
<text text-anchor="start" x="103.5" y="-216" font-family="Helvetica,sans-Serif" font-size="10.00">firmware/wombat/include</text>
<text text-anchor="middle" x="166" y="-205" font-family="Helvetica,sans-Serif" font-size="10.00">/cli/CLI.h</text>
</a>
</g>
</g>
<!-- Node1&#45;&gt;Node2 -->
<g id="edge1" class="edge">
<title>Node1&#45;&gt;Node2</title>
<path fill="none" stroke="#63b8ff" d="M287.6,-260.32C260.86,-250.14 227.71,-237.51 202.78,-228.01"/>
<polygon fill="#63b8ff" stroke="#63b8ff" points="286.54,-263.67 297.13,-263.95 289.03,-257.12 286.54,-263.67"/>
</g>
<!-- Node9 -->
<g id="node9" class="node">
<title>Node9</title>
<g id="a_node9"><a xlink:href="bluetooth_8cpp.html" target="_top" xlink:title=" ">
<polygon fill="white" stroke="#666666" points="413,-228 255,-228 255,-198 413,-198 413,-228"/>
<text text-anchor="start" x="263" y="-216" font-family="Helvetica,sans-Serif" font-size="10.00">firmware/wombat/src</text>
<text text-anchor="middle" x="334" y="-205" font-family="Helvetica,sans-Serif" font-size="10.00">/cli/peripherals/bluetooth.cpp</text>
</a>
</g>
</g>
<!-- Node1&#45;&gt;Node9 -->
<g id="edge10" class="edge">
<title>Node1&#45;&gt;Node9</title>
<path fill="none" stroke="#63b8ff" d="M334,-253.54C334,-244.96 334,-235.61 334,-228.16"/>
<polygon fill="#63b8ff" stroke="#63b8ff" points="330.5,-253.8 334,-263.8 337.5,-253.8 330.5,-253.8"/>
</g>
<!-- Node3 -->
<g id="node3" class="node">
<title>Node3</title>
<g id="a_node3"><a xlink:href="server_8h.html" target="_top" xlink:title="Handle the setup and maintenance of the BLE server and connected clients.">
<polygon fill="white" stroke="#666666" points="480.5,-162 339.5,-162 339.5,-132 480.5,-132 480.5,-162"/>
<text text-anchor="start" x="347.5" y="-150" font-family="Helvetica,sans-Serif" font-size="10.00">firmware/wombat/include</text>
<text text-anchor="middle" x="410" y="-139" font-family="Helvetica,sans-Serif" font-size="10.00">/bluetooth/server.h</text>
</a>
</g>
</g>
<!-- Node2&#45;&gt;Node3 -->
<g id="edge2" class="edge">
<title>Node2&#45;&gt;Node3</title>
<path fill="none" stroke="#63b8ff" d="M229.34,-195.39C268.84,-185.03 319.1,-171.84 356.58,-162.01"/>
<polygon fill="#63b8ff" stroke="#63b8ff" points="228.33,-192.03 219.55,-197.95 230.11,-198.8 228.33,-192.03"/>
</g>
<!-- Node7 -->
<g id="node7" class="node">
<title>Node7</title>
<g id="a_node7"><a xlink:href="_c_l_i_8cpp.html" target="_top" xlink:title=" ">
<polygon fill="white" stroke="#666666" points="120,-162 0,-162 0,-132 120,-132 120,-162"/>
<text text-anchor="start" x="8" y="-150" font-family="Helvetica,sans-Serif" font-size="10.00">firmware/wombat/src</text>
<text text-anchor="middle" x="60" y="-139" font-family="Helvetica,sans-Serif" font-size="10.00">/cli/CLI.cpp</text>
</a>
</g>
</g>
<!-- Node2&#45;&gt;Node7 -->
<g id="edge8" class="edge">
<title>Node2&#45;&gt;Node7</title>
<path fill="none" stroke="#63b8ff" d="M134.03,-192.69C117.66,-182.82 98.11,-171.01 83.21,-162.01"/>
<polygon fill="#63b8ff" stroke="#63b8ff" points="132.37,-195.78 142.74,-197.95 135.99,-189.79 132.37,-195.78"/>
</g>
<!-- Node8 -->
<g id="node8" class="node">
<title>Node8</title>
<g id="a_node8"><a xlink:href="main_8cpp.html" target="_top" xlink:title=" ">
<polygon fill="white" stroke="#666666" points="258,-162 138,-162 138,-132 258,-132 258,-162"/>
<text text-anchor="start" x="146" y="-150" font-family="Helvetica,sans-Serif" font-size="10.00">firmware/wombat/src</text>
<text text-anchor="middle" x="198" y="-139" font-family="Helvetica,sans-Serif" font-size="10.00">/main.cpp</text>
</a>
</g>
</g>
<!-- Node2&#45;&gt;Node8 -->
<g id="edge9" class="edge">
<title>Node2&#45;&gt;Node8</title>
<path fill="none" stroke="#63b8ff" d="M177.66,-188.68C182.1,-179.79 187.03,-169.95 190.92,-162.16"/>
<polygon fill="#63b8ff" stroke="#63b8ff" points="174.44,-187.29 173.1,-197.8 180.7,-190.42 174.44,-187.29"/>
</g>
<!-- Node3&#45;&gt;Node1 -->
<g id="edge6" class="edge">
<title>Node3&#45;&gt;Node1</title>
<path fill="none" stroke="#63b8ff" d="M421.15,-171.64C427.32,-188.42 431.94,-210.91 422,-228 412.37,-244.55 394.98,-256.08 378.2,-263.85"/>
<polygon fill="#63b8ff" stroke="#63b8ff" points="424.24,-169.96 417.22,-162.03 417.76,-172.61 424.24,-169.96"/>
</g>
<!-- Node4 -->
<g id="node4" class="node">
<title>Node4</title>
<g id="a_node4"><a xlink:href="uart_8h.html" target="_top" xlink:title="BluetoothLE UART service setup and handling.">
<polygon fill="white" stroke="#666666" points="480.5,-96 339.5,-96 339.5,-66 480.5,-66 480.5,-96"/>
<text text-anchor="start" x="347.5" y="-84" font-family="Helvetica,sans-Serif" font-size="10.00">firmware/wombat/include</text>
<text text-anchor="middle" x="410" y="-73" font-family="Helvetica,sans-Serif" font-size="10.00">/bluetooth/uart.h</text>
</a>
</g>
</g>
<!-- Node3&#45;&gt;Node4 -->
<g id="edge3" class="edge">
<title>Node3&#45;&gt;Node4</title>
<path fill="none" stroke="#63b8ff" d="M403.43,-121.83C403.02,-113.17 403.31,-103.7 404.29,-96.16"/>
<polygon fill="#63b8ff" stroke="#63b8ff" points="399.95,-122.13 404.28,-131.8 406.92,-121.54 399.95,-122.13"/>
</g>
<!-- Node6 -->
<g id="node6" class="node">
<title>Node6</title>
<g id="a_node6"><a xlink:href="server_8cpp.html" target="_top" xlink:title="Setup and start BluetoothLE server.">
<polygon fill="white" stroke="#666666" points="619,-96 499,-96 499,-66 619,-66 619,-96"/>
<text text-anchor="start" x="507" y="-84" font-family="Helvetica,sans-Serif" font-size="10.00">firmware/wombat/src</text>
<text text-anchor="middle" x="559" y="-73" font-family="Helvetica,sans-Serif" font-size="10.00">/bluetooth/server.cpp</text>
</a>
</g>
</g>
<!-- Node3&#45;&gt;Node6 -->
<g id="edge7" class="edge">
<title>Node3&#45;&gt;Node6</title>
<path fill="none" stroke="#63b8ff" d="M452.09,-127.92C475.64,-117.8 504.56,-105.38 526.38,-96.01"/>
<polygon fill="#63b8ff" stroke="#63b8ff" points="450.51,-124.79 442.7,-131.95 453.27,-131.22 450.51,-124.79"/>
</g>
<!-- Node4&#45;&gt;Node3 -->
<g id="edge4" class="edge">
<title>Node4&#45;&gt;Node3</title>
<path fill="none" stroke="#63b8ff" d="M416.57,-106.13C416.98,-114.78 416.7,-124.26 415.72,-131.8"/>
<polygon fill="#63b8ff" stroke="#63b8ff" points="420.05,-105.83 415.71,-96.16 413.08,-106.43 420.05,-105.83"/>
</g>
<!-- Node5 -->
<g id="node5" class="node">
<title>Node5</title>
<g id="a_node5"><a xlink:href="uart_8cpp.html" target="_top" xlink:title="BluetoothLE UART service setup and handling.">
<polygon fill="white" stroke="#666666" points="470,-30 350,-30 350,0 470,0 470,-30"/>
<text text-anchor="start" x="358" y="-18" font-family="Helvetica,sans-Serif" font-size="10.00">firmware/wombat/src</text>
<text text-anchor="middle" x="410" y="-7" font-family="Helvetica,sans-Serif" font-size="10.00">/bluetooth/uart.cpp</text>
</a>
</g>
</g>
<!-- Node4&#45;&gt;Node5 -->
<g id="edge5" class="edge">
<title>Node4&#45;&gt;Node5</title>
<path fill="none" stroke="#63b8ff" d="M410,-55.54C410,-46.96 410,-37.61 410,-30.16"/>
<polygon fill="#63b8ff" stroke="#63b8ff" points="406.5,-55.8 410,-65.8 413.5,-55.8 406.5,-55.8"/>
</g>
</g>
</svg>
