<?xml version="1.0" encoding="UTF-8" standalone="no"?>
<!DOCTYPE svg PUBLIC "-//W3C//DTD SVG 1.1//EN"
 "http://www.w3.org/Graphics/SVG/1.1/DTD/svg11.dtd">
<!-- Generated by graphviz version 2.43.0 (0)
 -->
<!-- Title: firmware/wombat/include/cli/peripherals/bluetooth.h Pages: 1 -->
<svg width="1816pt" height="379pt"
 viewBox="0.00 0.00 1816.42 379.00" xmlns="http://www.w3.org/2000/svg" xmlns:xlink="http://www.w3.org/1999/xlink">
<g id="graph0" class="graph" transform="scale(1 1) rotate(0) translate(4 375)">
<title>firmware/wombat/include/cli/peripherals/bluetooth.h</title>
<!-- Node1 -->
<g id="node1" class="node">
<title>Node1</title>
<g id="a_node1"><a xlink:title=" ">
<polygon fill="#999999" stroke="#666666" points="741,-371 594,-371 594,-341 741,-341 741,-371"/>
<text text-anchor="start" x="602" y="-359" font-family="Helvetica,sans-Serif" font-size="10.00">firmware/wombat/include</text>
<text text-anchor="middle" x="667.5" y="-348" font-family="Helvetica,sans-Serif" font-size="10.00">/cli/peripherals/bluetooth.h</text>
</a>
</g>
</g>
<!-- Node2 -->
<g id="node2" class="node">
<title>Node2</title>
<g id="a_node2"><a xlink:title=" ">
<polygon fill="#e0e0e0" stroke="#999999" points="294,-129 181,-129 181,-110 294,-110 294,-129"/>
<text text-anchor="middle" x="237.5" y="-117" font-family="Helvetica,sans-Serif" font-size="10.00">freertos/FreeRTOS.h</text>
</a>
</g>
</g>
<!-- Node1&#45;&gt;Node2 -->
<g id="edge1" class="edge">
<title>Node1&#45;&gt;Node2</title>
<path fill="none" stroke="#63b8ff" d="M593.94,-354.1C497.58,-349.59 326.98,-329.81 208.5,-250 171.96,-225.39 135.17,-202.98 157.5,-165 166.24,-150.14 181.94,-139.88 197.13,-132.99"/>
<polygon fill="#63b8ff" stroke="#63b8ff" points="198.56,-136.19 206.45,-129.13 195.88,-129.72 198.56,-136.19"/>
</g>
<!-- Node3 -->
<g id="node3" class="node">
<title>Node3</title>
<g id="a_node3"><a xlink:title=" ">
<polygon fill="#e0e0e0" stroke="#999999" points="373,-129 312,-129 312,-110 373,-110 373,-129"/>
<text text-anchor="middle" x="342.5" y="-117" font-family="Helvetica,sans-Serif" font-size="10.00">Stream.h</text>
</a>
</g>
</g>
<!-- Node1&#45;&gt;Node3 -->
<g id="edge2" class="edge">
<title>Node1&#45;&gt;Node3</title>
<path fill="none" stroke="#63b8ff" d="M593.97,-342.36C467.53,-318.97 217.53,-264.86 166.5,-195 158.64,-184.23 158.31,-175.52 166.5,-165 170.72,-159.58 250.95,-140.87 301.61,-129.51"/>
<polygon fill="#63b8ff" stroke="#63b8ff" points="302.63,-132.87 311.63,-127.28 301.1,-126.04 302.63,-132.87"/>
</g>
<!-- Node4 -->
<g id="node4" class="node">
<title>Node4</title>
<g id="a_node4"><a xlink:title=" ">
<polygon fill="#e0e0e0" stroke="#999999" points="688,-129 599,-129 599,-110 688,-110 688,-129"/>
<text text-anchor="middle" x="643.5" y="-117" font-family="Helvetica,sans-Serif" font-size="10.00">StreamString.h</text>
</a>
</g>
</g>
<!-- Node1&#45;&gt;Node4 -->
<g id="edge3" class="edge">
<title>Node1&#45;&gt;Node4</title>
<path fill="none" stroke="#63b8ff" d="M705.68,-340.98C781.37,-312.33 945.77,-245.52 976.5,-195 983.43,-183.61 985.28,-175.03 976.5,-165 967.43,-154.64 790.4,-135.33 698.24,-125.93"/>
<polygon fill="#63b8ff" stroke="#63b8ff" points="698.55,-122.44 688.25,-124.92 697.85,-129.41 698.55,-122.44"/>
</g>
<!-- Node5 -->
<g id="node5" class="node">
<title>Node5</title>
<g id="a_node5"><a xlink:href="server_8h.html" target="_top" xlink:title=" ">
<polygon fill="white" stroke="#666666" points="1236,-305 1131,-305 1131,-286 1236,-286 1236,-305"/>
<text text-anchor="middle" x="1183.5" y="-293" font-family="Helvetica,sans-Serif" font-size="10.00">bluetooth/server.h</text>
</a>
</g>
</g>
<!-- Node1&#45;&gt;Node5 -->
<g id="edge4" class="edge">
<title>Node1&#45;&gt;Node5</title>
<path fill="none" stroke="#63b8ff" d="M741.16,-346.65C842.98,-335.11 1024.99,-314.47 1120.71,-303.62"/>
<polygon fill="#63b8ff" stroke="#63b8ff" points="1121.28,-307.08 1130.83,-302.47 1120.49,-300.12 1121.28,-307.08"/>
</g>
<!-- Node6 -->
<g id="node6" class="node">
<title>Node6</title>
<g id="a_node6"><a xlink:title=" ">
<polygon fill="#e0e0e0" stroke="#999999" points="1030,-250 953,-250 953,-231 1030,-231 1030,-250"/>
<text text-anchor="middle" x="991.5" y="-238" font-family="Helvetica,sans-Serif" font-size="10.00">BLEDevice.h</text>
</a>
</g>
</g>
<!-- Node5&#45;&gt;Node6 -->
<g id="edge5" class="edge">
<title>Node5&#45;&gt;Node6</title>
<path fill="none" stroke="#63b8ff" d="M1152.65,-285.98C1120,-276.97 1068.3,-262.7 1032.3,-252.76"/>
<polygon fill="#63b8ff" stroke="#63b8ff" points="1033.16,-249.37 1022.59,-250.08 1031.3,-256.12 1033.16,-249.37"/>
</g>
<!-- Node7 -->
<g id="node7" class="node">
<title>Node7</title>
<g id="a_node7"><a xlink:title=" ">
<polygon fill="#e0e0e0" stroke="#999999" points="1465.5,-189.5 1391.5,-189.5 1391.5,-170.5 1465.5,-170.5 1465.5,-189.5"/>
<text text-anchor="middle" x="1428.5" y="-177.5" font-family="Helvetica,sans-Serif" font-size="10.00">BLEServer.h</text>
</a>
</g>
</g>
<!-- Node5&#45;&gt;Node7 -->
<g id="edge6" class="edge">
<title>Node5&#45;&gt;Node7</title>
<path fill="none" stroke="#63b8ff" d="M1236,-289.44C1292,-283.06 1375.96,-270.41 1400.5,-250 1415.54,-237.49 1422.58,-215.67 1425.83,-199.91"/>
<polygon fill="#63b8ff" stroke="#63b8ff" points="1429.33,-200.18 1427.58,-189.73 1422.43,-198.99 1429.33,-200.18"/>
</g>
<!-- Node8 -->
<g id="node8" class="node">
<title>Node8</title>
<g id="a_node8"><a xlink:title=" ">
<polygon fill="#e0e0e0" stroke="#999999" points="1114.5,-250 1048.5,-250 1048.5,-231 1114.5,-231 1114.5,-250"/>
<text text-anchor="middle" x="1081.5" y="-238" font-family="Helvetica,sans-Serif" font-size="10.00">BLEUtils.h</text>
</a>
</g>
</g>
<!-- Node5&#45;&gt;Node8 -->
<g id="edge7" class="edge">
<title>Node5&#45;&gt;Node8</title>
<path fill="none" stroke="#63b8ff" d="M1167.11,-285.98C1150.93,-277.57 1125.93,-264.59 1107.12,-254.81"/>
<polygon fill="#63b8ff" stroke="#63b8ff" points="1108.67,-251.68 1098.19,-250.17 1105.45,-257.89 1108.67,-251.68"/>
</g>
<!-- Node9 -->
<g id="node9" class="node">
<title>Node9</title>
<g id="a_node9"><a xlink:title=" ">
<polygon fill="#e0e0e0" stroke="#999999" points="1167.5,-189.5 1099.5,-189.5 1099.5,-170.5 1167.5,-170.5 1167.5,-189.5"/>
<text text-anchor="middle" x="1133.5" y="-177.5" font-family="Helvetica,sans-Serif" font-size="10.00">BLE2902.h</text>
</a>
</g>
</g>
<!-- Node5&#45;&gt;Node9 -->
<g id="edge8" class="edge">
<title>Node5&#45;&gt;Node9</title>
<path fill="none" stroke="#63b8ff" d="M1179.2,-285.69C1174.88,-276.75 1168.07,-262.48 1162.5,-250 1154.83,-232.79 1146.54,-212.93 1140.8,-198.95"/>
<polygon fill="#63b8ff" stroke="#63b8ff" points="1143.98,-197.48 1136.95,-189.55 1137.5,-200.13 1143.98,-197.48"/>
</g>
<!-- Node10 -->
<g id="node10" class="node">
<title>Node10</title>
<g id="a_node10"><a xlink:href="uart_8h.html" target="_top" xlink:title=" ">
<polygon fill="white" stroke="#666666" points="1391,-250 1296,-250 1296,-231 1391,-231 1391,-250"/>
<text text-anchor="middle" x="1343.5" y="-238" font-family="Helvetica,sans-Serif" font-size="10.00">bluetooth/uart.h</text>
</a>
</g>
</g>
<!-- Node5&#45;&gt;Node10 -->
<g id="edge9" class="edge">
<title>Node5&#45;&gt;Node10</title>
<path fill="none" stroke="#63b8ff" d="M1204.09,-285.98C1228.99,-277.09 1271.12,-263.07 1302.64,-253.15"/>
<polygon fill="#63b8ff" stroke="#63b8ff" points="1303.96,-256.4 1312.46,-250.08 1301.87,-249.72 1303.96,-256.4"/>
</g>
<!-- Node14 -->
<g id="node14" class="node">
<title>Node14</title>
<g id="a_node14"><a xlink:href="device_8h.html" target="_top" xlink:title=" ">
<polygon fill="white" stroke="#666666" points="1278,-250 1171,-250 1171,-231 1278,-231 1278,-250"/>
<text text-anchor="middle" x="1224.5" y="-238" font-family="Helvetica,sans-Serif" font-size="10.00">bluetooth/device.h</text>
</a>
</g>
</g>
<!-- Node5&#45;&gt;Node14 -->
<g id="edge17" class="edge">
<title>Node5&#45;&gt;Node14</title>
<path fill="none" stroke="#63b8ff" d="M1190.27,-285.75C1196.06,-278.26 1204.56,-267.28 1211.64,-258.13"/>
<polygon fill="#63b8ff" stroke="#63b8ff" points="1214.51,-260.14 1217.86,-250.09 1208.97,-255.86 1214.51,-260.14"/>
</g>
<!-- Node15 -->
<g id="node15" class="node">
<title>Node15</title>
<g id="a_node15"><a xlink:href="power__monitoring_8h.html" target="_top" xlink:title=" ">
<polygon fill="white" stroke="#666666" points="1611.5,-250 1447.5,-250 1447.5,-231 1611.5,-231 1611.5,-250"/>
<text text-anchor="middle" x="1529.5" y="-238" font-family="Helvetica,sans-Serif" font-size="10.00">bluetooth/power_monitoring.h</text>
</a>
</g>
</g>
<!-- Node5&#45;&gt;Node15 -->
<g id="edge22" class="edge">
<title>Node5&#45;&gt;Node15</title>
<path fill="none" stroke="#63b8ff" d="M1236.05,-286.45C1297.1,-277.1 1397.87,-261.66 1463.98,-251.54"/>
<polygon fill="#63b8ff" stroke="#63b8ff" points="1464.52,-254.99 1473.87,-250.02 1463.46,-248.08 1464.52,-254.99"/>
</g>
<!-- Node19 -->
<g id="node19" class="node">
<title>Node19</title>
<g id="a_node19"><a xlink:href="_c_l_i_8h.html" target="_top" xlink:title=" ">
<polygon fill="white" stroke="#666666" points="695,-250 640,-250 640,-231 695,-231 695,-250"/>
<text text-anchor="middle" x="667.5" y="-238" font-family="Helvetica,sans-Serif" font-size="10.00">cli/CLI.h</text>
</a>
</g>
</g>
<!-- Node5&#45;&gt;Node19 -->
<g id="edge33" class="edge">
<title>Node5&#45;&gt;Node19</title>
<path fill="none" stroke="#63b8ff" d="M1130.7,-289.08C1026.31,-278.36 795.8,-254.68 705.16,-245.37"/>
<polygon fill="#63b8ff" stroke="#63b8ff" points="705.37,-241.87 695.07,-244.33 704.66,-248.83 705.37,-241.87"/>
</g>
<!-- Node10&#45;&gt;Node5 -->
<g id="edge16" class="edge">
<title>Node10&#45;&gt;Node5</title>
<path fill="none" stroke="#63b8ff" d="M1322.47,-250.17C1297.45,-259.1 1255.46,-273.07 1224.1,-282.94"/>
<polygon fill="#63b8ff" stroke="#63b8ff" points="1222.83,-279.67 1214.32,-285.98 1224.91,-286.35 1222.83,-279.67"/>
</g>
<!-- Node10&#45;&gt;Node7 -->
<g id="edge12" class="edge">
<title>Node10&#45;&gt;Node7</title>
<path fill="none" stroke="#63b8ff" d="M1356.04,-230.87C1369.6,-221.54 1391.44,-206.51 1407.6,-195.38"/>
<polygon fill="#63b8ff" stroke="#63b8ff" points="1409.65,-198.22 1415.91,-189.67 1405.68,-192.45 1409.65,-198.22"/>
</g>
<!-- Node10&#45;&gt;Node9 -->
<g id="edge13" class="edge">
<title>Node10&#45;&gt;Node9</title>
<path fill="none" stroke="#63b8ff" d="M1309.67,-230.92C1276.04,-222.27 1223.03,-208.34 1177.5,-195 1174.92,-194.24 1172.26,-193.45 1169.59,-192.63"/>
<polygon fill="#63b8ff" stroke="#63b8ff" points="1170.55,-189.26 1159.96,-189.64 1168.47,-195.95 1170.55,-189.26"/>
</g>
<!-- Node11 -->
<g id="node11" class="node">
<title>Node11</title>
<g id="a_node11"><a xlink:title=" ">
<polygon fill="#e0e0e0" stroke="#999999" points="1357,-19 1294,-19 1294,0 1357,0 1357,-19"/>
<text text-anchor="middle" x="1325.5" y="-7" font-family="Helvetica,sans-Serif" font-size="10.00">Arduino.h</text>
</a>
</g>
</g>
<!-- Node10&#45;&gt;Node11 -->
<g id="edge10" class="edge">
<title>Node10&#45;&gt;Node11</title>
<path fill="none" stroke="#63b8ff" d="M1342.82,-230.8C1340.18,-197.29 1330.65,-76.08 1326.97,-29.2"/>
<polygon fill="#63b8ff" stroke="#63b8ff" points="1330.46,-28.9 1326.18,-19.21 1323.48,-29.45 1330.46,-28.9"/>
</g>
<!-- Node12 -->
<g id="node12" class="node">
<title>Node12</title>
<g id="a_node12"><a xlink:title=" ">
<polygon fill="#e0e0e0" stroke="#999999" points="1297,-189.5 1186,-189.5 1186,-170.5 1297,-170.5 1297,-189.5"/>
<text text-anchor="middle" x="1241.5" y="-177.5" font-family="Helvetica,sans-Serif" font-size="10.00">BLECharacteristic.h</text>
</a>
</g>
</g>
<!-- Node10&#45;&gt;Node12 -->
<g id="edge11" class="edge">
<title>Node10&#45;&gt;Node12</title>
<path fill="none" stroke="#63b8ff" d="M1328.45,-230.87C1311.88,-221.36 1285,-205.95 1265.51,-194.77"/>
<polygon fill="#63b8ff" stroke="#63b8ff" points="1267.03,-191.61 1256.61,-189.67 1263.55,-197.68 1267.03,-191.61"/>
</g>
<!-- Node13 -->
<g id="node13" class="node">
<title>Node13</title>
<g id="a_node13"><a xlink:href="tones_8h.html" target="_top" xlink:title=" ">
<polygon fill="white" stroke="#666666" points="1485,-74 1354,-74 1354,-55 1485,-55 1485,-74"/>
<text text-anchor="middle" x="1419.5" y="-62" font-family="Helvetica,sans-Serif" font-size="10.00">audio&#45;feedback/tones.h</text>
</a>
</g>
</g>
<!-- Node10&#45;&gt;Node13 -->
<g id="edge14" class="edge">
<title>Node10&#45;&gt;Node13</title>
<path fill="none" stroke="#63b8ff" d="M1347.37,-230.63C1359.27,-203.4 1395.43,-120.61 1411.57,-83.65"/>
<polygon fill="#63b8ff" stroke="#63b8ff" points="1414.93,-84.71 1415.72,-74.14 1408.51,-81.91 1414.93,-84.71"/>
</g>
<!-- Node13&#45;&gt;Node11 -->
<g id="edge15" class="edge">
<title>Node13&#45;&gt;Node11</title>
<path fill="none" stroke="#63b8ff" d="M1404.4,-54.98C1389.68,-46.69 1367.08,-33.94 1349.83,-24.22"/>
<polygon fill="#63b8ff" stroke="#63b8ff" points="1351.31,-21.03 1340.88,-19.17 1347.87,-27.13 1351.31,-21.03"/>
</g>
<!-- Node14&#45;&gt;Node7 -->
<g id="edge20" class="edge">
<title>Node14&#45;&gt;Node7</title>
<path fill="none" stroke="#63b8ff" d="M1254.16,-230.99C1289.74,-220.79 1349.52,-203.65 1388.98,-192.33"/>
<polygon fill="#63b8ff" stroke="#63b8ff" points="1390.15,-195.64 1398.8,-189.52 1388.22,-188.91 1390.15,-195.64"/>
</g>
<!-- Node14&#45;&gt;Node9 -->
<g id="edge21" class="edge">
<title>Node14&#45;&gt;Node9</title>
<path fill="none" stroke="#63b8ff" d="M1211.07,-230.87C1196.42,-221.45 1172.74,-206.23 1155.4,-195.08"/>
<polygon fill="#63b8ff" stroke="#63b8ff" points="1157.29,-192.13 1146.98,-189.67 1153.5,-198.02 1157.29,-192.13"/>
</g>
<!-- Node14&#45;&gt;Node11 -->
<g id="edge18" class="edge">
<title>Node14&#45;&gt;Node11</title>
<path fill="none" stroke="#63b8ff" d="M1170.93,-236.28C1142.1,-231.48 1108.79,-220.34 1090.5,-195 1082.7,-184.19 1084.17,-176.74 1090.5,-165 1132.5,-87.12 1232.8,-42.08 1287.81,-22.41"/>
<polygon fill="#63b8ff" stroke="#63b8ff" points="1289.24,-25.62 1297.53,-19.03 1286.94,-19.01 1289.24,-25.62"/>
</g>
<!-- Node14&#45;&gt;Node12 -->
<g id="edge19" class="edge">
<title>Node14&#45;&gt;Node12</title>
<path fill="none" stroke="#63b8ff" d="M1227.01,-230.87C1229.39,-222.66 1233.06,-210.04 1236.11,-199.55"/>
<polygon fill="#63b8ff" stroke="#63b8ff" points="1239.55,-200.25 1238.98,-189.67 1232.83,-198.29 1239.55,-200.25"/>
</g>
<!-- Node15&#45;&gt;Node7 -->
<g id="edge25" class="edge">
<title>Node15&#45;&gt;Node7</title>
<path fill="none" stroke="#63b8ff" d="M1514.6,-230.87C1498.19,-221.36 1471.57,-205.95 1452.27,-194.77"/>
<polygon fill="#63b8ff" stroke="#63b8ff" points="1453.87,-191.65 1443.46,-189.67 1450.36,-197.71 1453.87,-191.65"/>
</g>
<!-- Node15&#45;&gt;Node9 -->
<g id="edge26" class="edge">
<title>Node15&#45;&gt;Node9</title>
<path fill="none" stroke="#63b8ff" d="M1447.34,-233.38C1375.53,-227.02 1268.78,-215.12 1177.5,-195 1174.11,-194.25 1170.61,-193.36 1167.13,-192.39"/>
<polygon fill="#63b8ff" stroke="#63b8ff" points="1168.08,-189.02 1157.49,-189.5 1166.07,-195.72 1168.08,-189.02"/>
</g>
<!-- Node15&#45;&gt;Node11 -->
<g id="edge23" class="edge">
<title>Node15&#45;&gt;Node11</title>
<path fill="none" stroke="#63b8ff" d="M1611.51,-237.46C1682.79,-233.75 1778.32,-223.45 1802.5,-195 1811.14,-184.84 1809.36,-176.43 1802.5,-165 1749.12,-75.99 1694.8,-88.3 1596.5,-55 1518.18,-28.47 1421.59,-17.46 1367.44,-13.12"/>
<polygon fill="#63b8ff" stroke="#63b8ff" points="1367.43,-9.61 1357.19,-12.34 1366.9,-16.59 1367.43,-9.61"/>
</g>
<!-- Node15&#45;&gt;Node12 -->
<g id="edge24" class="edge">
<title>Node15&#45;&gt;Node12</title>
<path fill="none" stroke="#63b8ff" d="M1487.62,-230.99C1436.22,-220.55 1349.05,-202.85 1293.43,-191.55"/>
<polygon fill="#63b8ff" stroke="#63b8ff" points="1293.92,-188.08 1283.43,-189.52 1292.53,-194.94 1293.92,-188.08"/>
</g>
<!-- Node16 -->
<g id="node16" class="node">
<title>Node16</title>
<g id="a_node16"><a xlink:href="solar_8h.html" target="_top" xlink:title=" ">
<polygon fill="white" stroke="#666666" points="1793.5,-189.5 1653.5,-189.5 1653.5,-170.5 1793.5,-170.5 1793.5,-189.5"/>
<text text-anchor="middle" x="1723.5" y="-177.5" font-family="Helvetica,sans-Serif" font-size="10.00">power_monitoring/solar.h</text>
</a>
</g>
</g>
<!-- Node15&#45;&gt;Node16 -->
<g id="edge27" class="edge">
<title>Node15&#45;&gt;Node16</title>
<path fill="none" stroke="#63b8ff" d="M1557.71,-230.99C1591.47,-220.81 1648.15,-203.72 1685.68,-192.4"/>
<polygon fill="#63b8ff" stroke="#63b8ff" points="1686.69,-195.75 1695.26,-189.52 1684.67,-189.05 1686.69,-195.75"/>
</g>
<!-- Node18 -->
<g id="node18" class="node">
<title>Node18</title>
<g id="a_node18"><a xlink:href="battery_8h.html" target="_top" xlink:title=" ">
<polygon fill="white" stroke="#666666" points="1635,-189.5 1484,-189.5 1484,-170.5 1635,-170.5 1635,-189.5"/>
<text text-anchor="middle" x="1559.5" y="-177.5" font-family="Helvetica,sans-Serif" font-size="10.00">power_monitoring/battery.h</text>
</a>
</g>
</g>
<!-- Node15&#45;&gt;Node18 -->
<g id="edge30" class="edge">
<title>Node15&#45;&gt;Node18</title>
<path fill="none" stroke="#63b8ff" d="M1533.93,-230.87C1538.27,-222.4 1545.02,-209.24 1550.49,-198.57"/>
<polygon fill="#63b8ff" stroke="#63b8ff" points="1553.61,-200.16 1555.06,-189.67 1547.38,-196.97 1553.61,-200.16"/>
</g>
<!-- Node16&#45;&gt;Node11 -->
<g id="edge28" class="edge">
<title>Node16&#45;&gt;Node11</title>
<path fill="none" stroke="#63b8ff" d="M1718.6,-170.07C1710.19,-155.51 1691.65,-126.61 1668.5,-110 1574.83,-42.77 1436.26,-20.71 1367.45,-13.67"/>
<polygon fill="#63b8ff" stroke="#63b8ff" points="1367.71,-10.18 1357.42,-12.7 1367.03,-17.15 1367.71,-10.18"/>
</g>
<!-- Node17 -->
<g id="node17" class="node">
<title>Node17</title>
<g id="a_node17"><a xlink:title=" ">
<polygon fill="#e0e0e0" stroke="#999999" points="1659,-129 1554,-129 1554,-110 1659,-110 1659,-129"/>
<text text-anchor="middle" x="1606.5" y="-117" font-family="Helvetica,sans-Serif" font-size="10.00">Adafruit_INA219.h</text>
</a>
</g>
</g>
<!-- Node16&#45;&gt;Node17 -->
<g id="edge29" class="edge">
<title>Node16&#45;&gt;Node17</title>
<path fill="none" stroke="#63b8ff" d="M1706.49,-170.49C1687.08,-160.79 1655.11,-144.81 1632.56,-133.53"/>
<polygon fill="#63b8ff" stroke="#63b8ff" points="1634.04,-130.36 1623.53,-129.02 1630.91,-136.62 1634.04,-130.36"/>
</g>
<!-- Node18&#45;&gt;Node11 -->
<g id="edge31" class="edge">
<title>Node18&#45;&gt;Node11</title>
<path fill="none" stroke="#63b8ff" d="M1557.51,-170.23C1551.89,-147.48 1533.66,-86.2 1494.5,-55 1457.95,-25.88 1404.21,-15.69 1367.19,-12.2"/>
<polygon fill="#63b8ff" stroke="#63b8ff" points="1367.47,-8.71 1357.22,-11.38 1366.9,-15.68 1367.47,-8.71"/>
</g>
<!-- Node18&#45;&gt;Node17 -->
<g id="edge32" class="edge">
<title>Node18&#45;&gt;Node17</title>
<path fill="none" stroke="#63b8ff" d="M1566.44,-170.37C1573.45,-161.64 1584.46,-147.93 1593.17,-137.09"/>
<polygon fill="#63b8ff" stroke="#63b8ff" points="1596,-139.16 1599.54,-129.17 1590.54,-134.77 1596,-139.16"/>
</g>
<!-- Node19&#45;&gt;Node1 -->
<g id="edge58" class="edge">
<title>Node19&#45;&gt;Node1</title>
<path fill="none" stroke="#63b8ff" d="M667.5,-250.23C667.5,-267.18 667.5,-305.09 667.5,-330.35"/>
<polygon fill="#63b8ff" stroke="#63b8ff" points="664,-330.63 667.5,-340.63 671,-330.63 664,-330.63"/>
</g>
<!-- Node19&#45;&gt;Node2 -->
<g id="edge35" class="edge">
<title>Node19&#45;&gt;Node2</title>
<path fill="none" stroke="#63b8ff" d="M639.78,-239.17C539.34,-237.69 198.63,-230.11 166.5,-195 157.5,-185.16 160.04,-176.67 166.5,-165 174.34,-150.83 188.79,-140.57 202.61,-133.5"/>
<polygon fill="#63b8ff" stroke="#63b8ff" points="204.42,-136.52 211.99,-129.1 201.45,-130.18 204.42,-136.52"/>
</g>
<!-- Node19&#45;&gt;Node11 -->
<g id="edge34" class="edge">
<title>Node19&#45;&gt;Node11</title>
<path fill="none" stroke="#63b8ff" d="M695.03,-239.75C750.38,-239.36 878.23,-233.9 976.5,-195 1077.39,-155.07 1078.82,-102.24 1176.5,-55 1211.11,-38.26 1253.32,-26.38 1283.97,-19.12"/>
<polygon fill="#63b8ff" stroke="#63b8ff" points="1284.93,-22.49 1293.89,-16.84 1283.36,-15.67 1284.93,-22.49"/>
</g>
<!-- Node20 -->
<g id="node20" class="node">
<title>Node20</title>
<g id="a_node20"><a xlink:title=" ">
<polygon fill="#e0e0e0" stroke="#999999" points="581,-129 474,-129 474,-110 581,-110 581,-129"/>
<text text-anchor="middle" x="527.5" y="-117" font-family="Helvetica,sans-Serif" font-size="10.00">cli/FreeRTOS_CLI.h</text>
</a>
</g>
</g>
<!-- Node19&#45;&gt;Node20 -->
<g id="edge36" class="edge">
<title>Node19&#45;&gt;Node20</title>
<path fill="none" stroke="#63b8ff" d="M667.75,-230.95C667.73,-215.75 665.49,-183.83 648.5,-165 633.55,-148.43 611.89,-138.02 591.01,-131.48"/>
<polygon fill="#63b8ff" stroke="#63b8ff" points="591.76,-128.05 581.19,-128.65 589.83,-134.78 591.76,-128.05"/>
</g>
<!-- Node21 -->
<g id="node21" class="node">
<title>Node21</title>
<g id="a_node21"><a xlink:href="cat-m1_8h.html" target="_top" xlink:title=" ">
<polygon fill="white" stroke="#666666" points="467.5,-189.5 335.5,-189.5 335.5,-170.5 467.5,-170.5 467.5,-189.5"/>
<text text-anchor="middle" x="401.5" y="-177.5" font-family="Helvetica,sans-Serif" font-size="10.00">cli/peripherals/cat&#45;m1.h</text>
</a>
</g>
</g>
<!-- Node19&#45;&gt;Node21 -->
<g id="edge37" class="edge">
<title>Node19&#45;&gt;Node21</title>
<path fill="none" stroke="#63b8ff" d="M639.54,-233.35C594.58,-223.46 505.67,-203.91 450.15,-191.7"/>
<polygon fill="#63b8ff" stroke="#63b8ff" points="450.71,-188.24 440.19,-189.51 449.2,-195.08 450.71,-188.24"/>
</g>
<!-- Node25 -->
<g id="node25" class="node">
<title>Node25</title>
<g id="a_node25"><a xlink:href="sdi12_8h.html" target="_top" xlink:title=" ">
<polygon fill="white" stroke="#666666" points="299.5,-189.5 175.5,-189.5 175.5,-170.5 299.5,-170.5 299.5,-189.5"/>
<text text-anchor="middle" x="237.5" y="-177.5" font-family="Helvetica,sans-Serif" font-size="10.00">cli/peripherals/sdi12.h</text>
</a>
</g>
</g>
<!-- Node19&#45;&gt;Node25 -->
<g id="edge47" class="edge">
<title>Node19&#45;&gt;Node25</title>
<path fill="none" stroke="#63b8ff" d="M639.62,-236.11C581.39,-228.98 442.62,-211.71 326.5,-195 317.95,-193.77 308.95,-192.42 300.09,-191.06"/>
<polygon fill="#63b8ff" stroke="#63b8ff" points="300.59,-187.59 290.17,-189.52 299.52,-194.51 300.59,-187.59"/>
</g>
<!-- Node30 -->
<g id="node30" class="node">
<title>Node30</title>
<g id="a_node30"><a xlink:href="acquisition__intervals_8h.html" target="_top" xlink:title=" ">
<polygon fill="white" stroke="#666666" points="639.5,-195 485.5,-195 485.5,-165 639.5,-165 639.5,-195"/>
<text text-anchor="start" x="493.5" y="-183" font-family="Helvetica,sans-Serif" font-size="10.00">cli/device_config/acquisition</text>
<text text-anchor="middle" x="562.5" y="-172" font-family="Helvetica,sans-Serif" font-size="10.00">_intervals.h</text>
</a>
</g>
</g>
<!-- Node19&#45;&gt;Node30 -->
<g id="edge59" class="edge">
<title>Node19&#45;&gt;Node30</title>
<path fill="none" stroke="#63b8ff" d="M652.01,-230.87C637.5,-222.78 615.31,-210.42 596.66,-200.03"/>
<polygon fill="#63b8ff" stroke="#63b8ff" points="598.27,-196.92 587.83,-195.11 594.87,-203.04 598.27,-196.92"/>
</g>
<!-- Node33 -->
<g id="node33" class="node">
<title>Node33</title>
<g id="a_node33"><a xlink:href="mqtt__cli_8h.html" target="_top" xlink:title=" ">
<polygon fill="white" stroke="#666666" points="967.5,-195 843.5,-195 843.5,-165 967.5,-165 967.5,-195"/>
<text text-anchor="start" x="851.5" y="-183" font-family="Helvetica,sans-Serif" font-size="10.00">cli/device_config/mqtt</text>
<text text-anchor="middle" x="905.5" y="-172" font-family="Helvetica,sans-Serif" font-size="10.00">_cli.h</text>
</a>
</g>
</g>
<!-- Node19&#45;&gt;Node33 -->
<g id="edge67" class="edge">
<title>Node19&#45;&gt;Node33</title>
<path fill="none" stroke="#63b8ff" d="M695.27,-232.67C730.18,-224.09 791.29,-209.07 838.65,-197.43"/>
<polygon fill="#63b8ff" stroke="#63b8ff" points="839.66,-200.79 848.53,-195 837.99,-193.99 839.66,-200.79"/>
</g>
<!-- Node34 -->
<g id="node34" class="node">
<title>Node34</title>
<g id="a_node34"><a xlink:href="config__cli_8h.html" target="_top" xlink:title=" ">
<polygon fill="white" stroke="#666666" points="825.5,-195 695.5,-195 695.5,-165 825.5,-165 825.5,-195"/>
<text text-anchor="start" x="703.5" y="-183" font-family="Helvetica,sans-Serif" font-size="10.00">cli/device_config/config</text>
<text text-anchor="middle" x="760.5" y="-172" font-family="Helvetica,sans-Serif" font-size="10.00">_cli.h</text>
</a>
</g>
</g>
<!-- Node19&#45;&gt;Node34 -->
<g id="edge69" class="edge">
<title>Node19&#45;&gt;Node34</title>
<path fill="none" stroke="#63b8ff" d="M681.22,-230.87C693.84,-222.93 713.01,-210.87 729.34,-200.6"/>
<polygon fill="#63b8ff" stroke="#63b8ff" points="731.46,-203.4 738.06,-195.11 727.73,-197.48 731.46,-203.4"/>
</g>
<!-- Node21&#45;&gt;Node2 -->
<g id="edge38" class="edge">
<title>Node21&#45;&gt;Node2</title>
<path fill="none" stroke="#63b8ff" d="M377.65,-170.49C349.6,-160.49 302.83,-143.8 271.1,-132.49"/>
<polygon fill="#63b8ff" stroke="#63b8ff" points="271.97,-129.08 261.38,-129.02 269.62,-135.67 271.97,-129.08"/>
</g>
<!-- Node21&#45;&gt;Node3 -->
<g id="edge39" class="edge">
<title>Node21&#45;&gt;Node3</title>
<path fill="none" stroke="#63b8ff" d="M392.79,-170.37C383.82,-161.47 369.62,-147.39 358.59,-136.45"/>
<polygon fill="#63b8ff" stroke="#63b8ff" points="360.81,-133.72 351.24,-129.17 355.88,-138.69 360.81,-133.72"/>
</g>
<!-- Node21&#45;&gt;Node4 -->
<g id="edge40" class="edge">
<title>Node21&#45;&gt;Node4</title>
<path fill="none" stroke="#63b8ff" d="M436.69,-170.49C479.43,-160.16 551.62,-142.71 598.4,-131.4"/>
<polygon fill="#63b8ff" stroke="#63b8ff" points="599.37,-134.77 608.27,-129.02 597.73,-127.96 599.37,-134.77"/>
</g>
<!-- Node21&#45;&gt;Node20 -->
<g id="edge41" class="edge">
<title>Node21&#45;&gt;Node20</title>
<path fill="none" stroke="#63b8ff" d="M419.82,-170.49C440.91,-160.7 475.76,-144.52 500.08,-133.23"/>
<polygon fill="#63b8ff" stroke="#63b8ff" points="501.56,-136.4 509.16,-129.02 498.61,-130.05 501.56,-136.4"/>
</g>
<!-- Node22 -->
<g id="node22" class="node">
<title>Node22</title>
<g id="a_node22"><a xlink:href="_c_a_t___m1_8h.html" target="_top" xlink:title=" ">
<polygon fill="white" stroke="#666666" points="456,-129 391,-129 391,-110 456,-110 456,-129"/>
<text text-anchor="middle" x="423.5" y="-117" font-family="Helvetica,sans-Serif" font-size="10.00">CAT_M1.h</text>
</a>
</g>
</g>
<!-- Node21&#45;&gt;Node22 -->
<g id="edge42" class="edge">
<title>Node21&#45;&gt;Node22</title>
<path fill="none" stroke="#63b8ff" d="M404.75,-170.37C407.87,-162.07 412.68,-149.28 416.65,-138.72"/>
<polygon fill="#63b8ff" stroke="#63b8ff" points="420,-139.76 420.24,-129.17 413.44,-137.3 420,-139.76"/>
</g>
<!-- Node23 -->
<g id="node23" class="node">
<title>Node23</title>
<g id="a_node23"><a xlink:title=" ">
<polygon fill="#e0e0e0" stroke="#999999" points="478.5,-19 430.5,-19 430.5,0 478.5,0 478.5,-19"/>
<text text-anchor="middle" x="454.5" y="-7" font-family="Helvetica,sans-Serif" font-size="10.00">Wire.h</text>
</a>
</g>
</g>
<!-- Node22&#45;&gt;Node23 -->
<g id="edge43" class="edge">
<title>Node22&#45;&gt;Node23</title>
<path fill="none" stroke="#63b8ff" d="M426.04,-109.66C431.08,-92.09 442.46,-52.45 449.2,-28.95"/>
<polygon fill="#63b8ff" stroke="#63b8ff" points="452.62,-29.74 452.01,-19.16 445.89,-27.8 452.62,-29.74"/>
</g>
<!-- Node24 -->
<g id="node24" class="node">
<title>Node24</title>
<g id="a_node24"><a xlink:href="_t_c_a9534_8h.html" target="_top" xlink:title=" ">
<polygon fill="white" stroke="#666666" points="519.5,-74 451.5,-74 451.5,-55 519.5,-55 519.5,-74"/>
<text text-anchor="middle" x="485.5" y="-62" font-family="Helvetica,sans-Serif" font-size="10.00">TCA9534.h</text>
</a>
</g>
</g>
<!-- Node22&#45;&gt;Node24 -->
<g id="edge44" class="edge">
<title>Node22&#45;&gt;Node24</title>
<path fill="none" stroke="#63b8ff" d="M433.46,-109.98C442.63,-102.15 456.44,-90.34 467.53,-80.86"/>
<polygon fill="#63b8ff" stroke="#63b8ff" points="470.03,-83.33 475.36,-74.17 465.48,-78.01 470.03,-83.33"/>
</g>
<!-- Node24&#45;&gt;Node11 -->
<g id="edge45" class="edge">
<title>Node24&#45;&gt;Node11</title>
<path fill="none" stroke="#63b8ff" d="M519.73,-61.34C653.07,-52.93 1137.52,-22.36 1283.55,-13.15"/>
<polygon fill="#63b8ff" stroke="#63b8ff" points="1284.11,-16.62 1293.87,-12.5 1283.67,-9.63 1284.11,-16.62"/>
</g>
<!-- Node24&#45;&gt;Node23 -->
<g id="edge46" class="edge">
<title>Node24&#45;&gt;Node23</title>
<path fill="none" stroke="#63b8ff" d="M480.38,-54.75C476.14,-47.49 469.97,-36.95 464.72,-27.98"/>
<polygon fill="#63b8ff" stroke="#63b8ff" points="467.59,-25.95 459.52,-19.09 461.55,-29.49 467.59,-25.95"/>
</g>
<!-- Node25&#45;&gt;Node2 -->
<g id="edge48" class="edge">
<title>Node25&#45;&gt;Node2</title>
<path fill="none" stroke="#63b8ff" d="M237.5,-170.37C237.5,-162.25 237.5,-149.81 237.5,-139.39"/>
<polygon fill="#63b8ff" stroke="#63b8ff" points="241,-139.17 237.5,-129.17 234,-139.17 241,-139.17"/>
</g>
<!-- Node25&#45;&gt;Node3 -->
<g id="edge49" class="edge">
<title>Node25&#45;&gt;Node3</title>
<path fill="none" stroke="#63b8ff" d="M252.99,-170.37C270.13,-160.82 297.97,-145.31 318.06,-134.12"/>
<polygon fill="#63b8ff" stroke="#63b8ff" points="319.91,-137.09 326.94,-129.17 316.5,-130.98 319.91,-137.09"/>
</g>
<!-- Node25&#45;&gt;Node4 -->
<g id="edge50" class="edge">
<title>Node25&#45;&gt;Node4</title>
<path fill="none" stroke="#63b8ff" d="M290.65,-170.46C302.45,-168.62 314.89,-166.71 326.5,-165 440.03,-148.3 471.1,-146.28 588.6,-129.1"/>
<polygon fill="#63b8ff" stroke="#63b8ff" points="589.34,-132.53 598.72,-127.62 588.32,-125.61 589.34,-132.53"/>
</g>
<!-- Node25&#45;&gt;Node20 -->
<g id="edge53" class="edge">
<title>Node25&#45;&gt;Node20</title>
<path fill="none" stroke="#63b8ff" d="M279.67,-170.49C331.43,-160.05 419.21,-142.35 475.21,-131.05"/>
<polygon fill="#63b8ff" stroke="#63b8ff" points="476.17,-134.43 485.28,-129.02 474.79,-127.56 476.17,-134.43"/>
</g>
<!-- Node25&#45;&gt;Node25 -->
<g id="edge51" class="edge">
<title>Node25&#45;&gt;Node25</title>
<path fill="none" stroke="#63b8ff" d="M267.04,-189.53C291.72,-193.61 317.5,-190.43 317.5,-180 317.5,-171 298.28,-167.4 277.15,-169.2"/>
<polygon fill="#63b8ff" stroke="#63b8ff" points="276.53,-165.75 267.04,-170.47 277.4,-172.7 276.53,-165.75"/>
</g>
<!-- Node26 -->
<g id="node26" class="node">
<title>Node26</title>
<g id="a_node26"><a xlink:title=" ">
<polygon fill="#e0e0e0" stroke="#999999" points="93,-74 0,-74 0,-55 93,-55 93,-74"/>
<text text-anchor="middle" x="46.5" y="-62" font-family="Helvetica,sans-Serif" font-size="10.00">dpiclimate&#45;12.h</text>
</a>
</g>
</g>
<!-- Node25&#45;&gt;Node26 -->
<g id="edge52" class="edge">
<title>Node25&#45;&gt;Node26</title>
<path fill="none" stroke="#63b8ff" d="M202.34,-170.46C174.48,-162.61 135.39,-149.1 105.5,-129 86.65,-116.32 69.52,-96.52 58.63,-82.4"/>
<polygon fill="#63b8ff" stroke="#63b8ff" points="61.21,-80 52.42,-74.08 55.6,-84.19 61.21,-80"/>
</g>
<!-- Node27 -->
<g id="node27" class="node">
<title>Node27</title>
<g id="a_node27"><a xlink:href="_utils_8h.html" target="_top" xlink:title=" ">
<polygon fill="white" stroke="#666666" points="162.5,-129 114.5,-129 114.5,-110 162.5,-110 162.5,-129"/>
<text text-anchor="middle" x="138.5" y="-117" font-family="Helvetica,sans-Serif" font-size="10.00">Utils.h</text>
</a>
</g>
</g>
<!-- Node25&#45;&gt;Node27 -->
<g id="edge54" class="edge">
<title>Node25&#45;&gt;Node27</title>
<path fill="none" stroke="#63b8ff" d="M222.89,-170.37C206.81,-160.86 180.72,-145.45 161.8,-134.27"/>
<polygon fill="#63b8ff" stroke="#63b8ff" points="163.56,-131.24 153.17,-129.17 160,-137.27 163.56,-131.24"/>
</g>
<!-- Node27&#45;&gt;Node26 -->
<g id="edge57" class="edge">
<title>Node27&#45;&gt;Node26</title>
<path fill="none" stroke="#63b8ff" d="M123.72,-109.98C109.32,-101.69 87.19,-88.94 70.31,-79.22"/>
<polygon fill="#63b8ff" stroke="#63b8ff" points="71.96,-76.13 61.55,-74.17 68.47,-82.19 71.96,-76.13"/>
</g>
<!-- Node28 -->
<g id="node28" class="node">
<title>Node28</title>
<g id="a_node28"><a xlink:title=" ">
<polygon fill="#e0e0e0" stroke="#999999" points="268.5,-74 212.5,-74 212.5,-55 268.5,-55 268.5,-74"/>
<text text-anchor="middle" x="240.5" y="-62" font-family="Helvetica,sans-Serif" font-size="10.00">stddef.h</text>
</a>
</g>
</g>
<!-- Node27&#45;&gt;Node28 -->
<g id="edge55" class="edge">
<title>Node27&#45;&gt;Node28</title>
<path fill="none" stroke="#63b8ff" d="M154.89,-109.98C171.07,-101.57 196.07,-88.59 214.88,-78.81"/>
<polygon fill="#63b8ff" stroke="#63b8ff" points="216.55,-81.89 223.81,-74.17 213.33,-75.68 216.55,-81.89"/>
</g>
<!-- Node29 -->
<g id="node29" class="node">
<title>Node29</title>
<g id="a_node29"><a xlink:title=" ">
<polygon fill="#e0e0e0" stroke="#999999" points="194,-74 111,-74 111,-55 194,-55 194,-74"/>
<text text-anchor="middle" x="152.5" y="-62" font-family="Helvetica,sans-Serif" font-size="10.00">ArduinoJson.h</text>
</a>
</g>
</g>
<!-- Node27&#45;&gt;Node29 -->
<g id="edge56" class="edge">
<title>Node27&#45;&gt;Node29</title>
<path fill="none" stroke="#63b8ff" d="M140.81,-109.75C142.67,-102.72 145.34,-92.62 147.65,-83.84"/>
<polygon fill="#63b8ff" stroke="#63b8ff" points="151.06,-84.65 150.23,-74.09 144.29,-82.86 151.06,-84.65"/>
</g>
<!-- Node30&#45;&gt;Node2 -->
<g id="edge60" class="edge">
<title>Node30&#45;&gt;Node2</title>
<path fill="none" stroke="#63b8ff" d="M485.48,-165.14C426.93,-154.6 347.69,-140.33 294.7,-130.8"/>
<polygon fill="#63b8ff" stroke="#63b8ff" points="295.25,-127.34 284.79,-129.01 294.01,-134.23 295.25,-127.34"/>
</g>
<!-- Node30&#45;&gt;Node3 -->
<g id="edge61" class="edge">
<title>Node30&#45;&gt;Node3</title>
<path fill="none" stroke="#63b8ff" d="M509.8,-164.99C470.93,-154.65 418.81,-140.79 383.13,-131.3"/>
<polygon fill="#63b8ff" stroke="#63b8ff" points="383.64,-127.82 373.08,-128.63 381.84,-134.58 383.64,-127.82"/>
</g>
<!-- Node30&#45;&gt;Node4 -->
<g id="edge62" class="edge">
<title>Node30&#45;&gt;Node4</title>
<path fill="none" stroke="#63b8ff" d="M582.11,-164.84C594.47,-155.91 610.4,-144.41 622.93,-135.35"/>
<polygon fill="#63b8ff" stroke="#63b8ff" points="625.3,-137.96 631.36,-129.27 621.21,-132.28 625.3,-137.96"/>
</g>
<!-- Node30&#45;&gt;Node20 -->
<g id="edge63" class="edge">
<title>Node30&#45;&gt;Node20</title>
<path fill="none" stroke="#63b8ff" d="M554.03,-164.84C549.21,-156.78 543.13,-146.62 538,-138.06"/>
<polygon fill="#63b8ff" stroke="#63b8ff" points="540.88,-136.05 532.74,-129.27 534.88,-139.64 540.88,-136.05"/>
</g>
<!-- Node31 -->
<g id="node31" class="node">
<title>Node31</title>
<g id="a_node31"><a xlink:href="_device_config_8h.html" target="_top" xlink:title=" ">
<polygon fill="white" stroke="#666666" points="837.5,-129 747.5,-129 747.5,-110 837.5,-110 837.5,-129"/>
<text text-anchor="middle" x="792.5" y="-117" font-family="Helvetica,sans-Serif" font-size="10.00">DeviceConfig.h</text>
</a>
</g>
</g>
<!-- Node30&#45;&gt;Node31 -->
<g id="edge64" class="edge">
<title>Node30&#45;&gt;Node31</title>
<path fill="none" stroke="#63b8ff" d="M617.59,-164.99C657.8,-154.76 711.56,-141.09 748.82,-131.61"/>
<polygon fill="#63b8ff" stroke="#63b8ff" points="750.04,-134.91 758.87,-129.05 748.32,-128.13 750.04,-134.91"/>
</g>
<!-- Node31&#45;&gt;Node11 -->
<g id="edge65" class="edge">
<title>Node31&#45;&gt;Node11</title>
<path fill="none" stroke="#63b8ff" d="M813.37,-109.98C847.8,-96.28 918.93,-69.41 981.5,-55 1088.79,-30.29 1218.28,-18.18 1283.54,-13.27"/>
<polygon fill="#63b8ff" stroke="#63b8ff" points="1284.11,-16.74 1293.83,-12.52 1283.6,-9.76 1284.11,-16.74"/>
</g>
<!-- Node32 -->
<g id="node32" class="node">
<title>Node32</title>
<g id="a_node32"><a xlink:title=" ">
<polygon fill="#e0e0e0" stroke="#999999" points="836,-74 749,-74 749,-55 836,-55 836,-74"/>
<text text-anchor="middle" x="792.5" y="-62" font-family="Helvetica,sans-Serif" font-size="10.00">ArduinoJSON.h</text>
</a>
</g>
</g>
<!-- Node31&#45;&gt;Node32 -->
<g id="edge66" class="edge">
<title>Node31&#45;&gt;Node32</title>
<path fill="none" stroke="#63b8ff" d="M792.5,-109.75C792.5,-102.8 792.5,-92.85 792.5,-84.13"/>
<polygon fill="#63b8ff" stroke="#63b8ff" points="796,-84.09 792.5,-74.09 789,-84.09 796,-84.09"/>
</g>
<!-- Node33&#45;&gt;Node31 -->
<g id="edge68" class="edge">
<title>Node33&#45;&gt;Node31</title>
<path fill="none" stroke="#63b8ff" d="M878.43,-164.99C860.25,-155.58 836.43,-143.24 818.48,-133.95"/>
<polygon fill="#63b8ff" stroke="#63b8ff" points="819.68,-130.63 809.19,-129.14 816.46,-136.84 819.68,-130.63"/>
</g>
<!-- Node34&#45;&gt;Node31 -->
<g id="edge70" class="edge">
<title>Node34&#45;&gt;Node31</title>
<path fill="none" stroke="#63b8ff" d="M768.25,-164.84C772.65,-156.78 778.21,-146.62 782.9,-138.06"/>
<polygon fill="#63b8ff" stroke="#63b8ff" points="785.98,-139.72 787.7,-129.27 779.84,-136.36 785.98,-139.72"/>
</g>
</g>
</svg>
