<?xml version="1.0" encoding="UTF-8" standalone="no"?>
<!DOCTYPE svg PUBLIC "-//W3C//DTD SVG 1.1//EN"
 "http://www.w3.org/Graphics/SVG/1.1/DTD/svg11.dtd">
<!-- Generated by graphviz version 2.43.0 (0)
 -->
<!-- Title: firmware/wombat/src/cli/peripherals/cat&#45;m1.cpp Pages: 1 -->
<svg width="863pt" height="335pt"
 viewBox="0.00 0.00 863.00 335.00" xmlns="http://www.w3.org/2000/svg" xmlns:xlink="http://www.w3.org/1999/xlink">
<g id="graph0" class="graph" transform="scale(1 1) rotate(0) translate(4 331)">
<title>firmware/wombat/src/cli/peripherals/cat&#45;m1.cpp</title>
<!-- Node1 -->
<g id="node1" class="node">
<title>Node1</title>
<g id="a_node1"><a xlink:title="CAT&#45;M1 CLI command request and response handler.">
<polygon fill="#999999" stroke="#666666" points="603.5,-327 483.5,-327 483.5,-286 603.5,-286 603.5,-327"/>
<text text-anchor="start" x="491.5" y="-315" font-family="Helvetica,sans-Serif" font-size="10.00">firmware/wombat/src</text>
<text text-anchor="start" x="491.5" y="-304" font-family="Helvetica,sans-Serif" font-size="10.00">/cli/peripherals/cat</text>
<text text-anchor="middle" x="543.5" y="-293" font-family="Helvetica,sans-Serif" font-size="10.00">&#45;m1.cpp</text>
</a>
</g>
</g>
<!-- Node2 -->
<g id="node2" class="node">
<title>Node2</title>
<g id="a_node2"><a xlink:href="cat-m1_8h.html" target="_top" xlink:title="CAT&#45;M1 CLI command request and response handler.">
<polygon fill="white" stroke="#666666" points="424.5,-195 292.5,-195 292.5,-176 424.5,-176 424.5,-195"/>
<text text-anchor="middle" x="358.5" y="-183" font-family="Helvetica,sans-Serif" font-size="10.00">cli/peripherals/cat&#45;m1.h</text>
</a>
</g>
</g>
<!-- Node1&#45;&gt;Node2 -->
<g id="edge1" class="edge">
<title>Node1&#45;&gt;Node2</title>
<path fill="none" stroke="#63b8ff" d="M484.3,-285.99C461.62,-276.99 436.23,-264.93 415.5,-250 397.55,-237.07 381.15,-217.63 370.6,-203.66"/>
<polygon fill="#63b8ff" stroke="#63b8ff" points="373.28,-201.4 364.55,-195.4 367.63,-205.54 373.28,-201.4"/>
</g>
<!-- Node7 -->
<g id="node7" class="node">
<title>Node7</title>
<g id="a_node7"><a xlink:href="_c_a_t___m1_8h.html" target="_top" xlink:title=" ">
<polygon fill="white" stroke="#666666" points="547,-134.5 482,-134.5 482,-115.5 547,-115.5 547,-134.5"/>
<text text-anchor="middle" x="514.5" y="-122.5" font-family="Helvetica,sans-Serif" font-size="10.00">CAT_M1.h</text>
</a>
</g>
</g>
<!-- Node1&#45;&gt;Node7 -->
<g id="edge11" class="edge">
<title>Node1&#45;&gt;Node7</title>
<path fill="none" stroke="#63b8ff" d="M540.34,-285.95C534.72,-251.17 523.06,-179.01 517.54,-144.79"/>
<polygon fill="#63b8ff" stroke="#63b8ff" points="520.96,-144.06 515.91,-134.75 514.05,-145.18 520.96,-144.06"/>
</g>
<!-- Node11 -->
<g id="node11" class="node">
<title>Node11</title>
<g id="a_node11"><a xlink:href="_utils_8h.html" target="_top" xlink:title=" ">
<polygon fill="white" stroke="#666666" points="719.5,-250 671.5,-250 671.5,-231 719.5,-231 719.5,-250"/>
<text text-anchor="middle" x="695.5" y="-238" font-family="Helvetica,sans-Serif" font-size="10.00">Utils.h</text>
</a>
</g>
</g>
<!-- Node1&#45;&gt;Node11 -->
<g id="edge12" class="edge">
<title>Node1&#45;&gt;Node11</title>
<path fill="none" stroke="#63b8ff" d="M589.93,-285.95C614.61,-275.56 644.22,-263.09 665.8,-254.01"/>
<polygon fill="#63b8ff" stroke="#63b8ff" points="667.24,-257.2 675.09,-250.09 664.52,-250.75 667.24,-257.2"/>
</g>
<!-- Node14 -->
<g id="node14" class="node">
<title>Node14</title>
<g id="a_node14"><a xlink:href="globals_8h.html" target="_top" xlink:title=" ">
<polygon fill="white" stroke="#666666" points="604,-195 543,-195 543,-176 604,-176 604,-195"/>
<text text-anchor="middle" x="573.5" y="-183" font-family="Helvetica,sans-Serif" font-size="10.00">globals.h</text>
</a>
</g>
</g>
<!-- Node1&#45;&gt;Node14 -->
<g id="edge21" class="edge">
<title>Node1&#45;&gt;Node14</title>
<path fill="none" stroke="#63b8ff" d="M548.45,-285.85C554.12,-263.37 563.33,-226.86 568.86,-204.91"/>
<polygon fill="#63b8ff" stroke="#63b8ff" points="572.26,-205.73 571.31,-195.18 565.47,-204.02 572.26,-205.73"/>
</g>
<!-- Node15 -->
<g id="node15" class="node">
<title>Node15</title>
<g id="a_node15"><a xlink:title=" ">
<polygon fill="#e0e0e0" stroke="#999999" points="778.5,-140 648.5,-140 648.5,-110 778.5,-110 778.5,-140"/>
<text text-anchor="start" x="656.5" y="-128" font-family="Helvetica,sans-Serif" font-size="10.00">SparkFun_u&#45;blox_SARA</text>
<text text-anchor="middle" x="713.5" y="-117" font-family="Helvetica,sans-Serif" font-size="10.00">&#45;R5_Arduino_Library.h</text>
</a>
</g>
</g>
<!-- Node1&#45;&gt;Node15 -->
<g id="edge20" class="edge">
<title>Node1&#45;&gt;Node15</title>
<path fill="none" stroke="#63b8ff" d="M558.34,-285.66C578.4,-259.38 615.9,-212.13 652.5,-176 663.06,-165.58 675.61,-155.02 686.58,-146.3"/>
<polygon fill="#63b8ff" stroke="#63b8ff" points="688.87,-148.95 694.59,-140.04 684.56,-143.44 688.87,-148.95"/>
</g>
<!-- Node18 -->
<g id="node18" class="node">
<title>Node18</title>
<g id="a_node18"><a xlink:href="_c_l_i_8h.html" target="_top" xlink:title="FreeRTOS CLI handler.">
<polygon fill="white" stroke="#666666" points="480,-250 425,-250 425,-231 480,-231 480,-250"/>
<text text-anchor="middle" x="452.5" y="-238" font-family="Helvetica,sans-Serif" font-size="10.00">cli/CLI.h</text>
</a>
</g>
</g>
<!-- Node1&#45;&gt;Node18 -->
<g id="edge22" class="edge">
<title>Node1&#45;&gt;Node18</title>
<path fill="none" stroke="#63b8ff" d="M515.7,-285.95C502.08,-276.37 485.94,-265.02 473.38,-256.19"/>
<polygon fill="#63b8ff" stroke="#63b8ff" points="475.15,-253.15 464.96,-250.26 471.12,-258.88 475.15,-253.15"/>
</g>
<!-- Node3 -->
<g id="node3" class="node">
<title>Node3</title>
<g id="a_node3"><a xlink:title=" ">
<polygon fill="#e0e0e0" stroke="#999999" points="113,-134.5 0,-134.5 0,-115.5 113,-115.5 113,-134.5"/>
<text text-anchor="middle" x="56.5" y="-122.5" font-family="Helvetica,sans-Serif" font-size="10.00">freertos/FreeRTOS.h</text>
</a>
</g>
</g>
<!-- Node2&#45;&gt;Node3 -->
<g id="edge2" class="edge">
<title>Node2&#45;&gt;Node3</title>
<path fill="none" stroke="#63b8ff" d="M310.76,-175.92C262.85,-167.22 186.96,-153.19 121.5,-140 116.2,-138.93 110.65,-137.78 105.14,-136.62"/>
<polygon fill="#63b8ff" stroke="#63b8ff" points="105.81,-133.19 95.3,-134.53 104.36,-140.04 105.81,-133.19"/>
</g>
<!-- Node4 -->
<g id="node4" class="node">
<title>Node4</title>
<g id="a_node4"><a xlink:title=" ">
<polygon fill="#e0e0e0" stroke="#999999" points="192,-134.5 131,-134.5 131,-115.5 192,-115.5 192,-134.5"/>
<text text-anchor="middle" x="161.5" y="-122.5" font-family="Helvetica,sans-Serif" font-size="10.00">Stream.h</text>
</a>
</g>
</g>
<!-- Node2&#45;&gt;Node4 -->
<g id="edge3" class="edge">
<title>Node2&#45;&gt;Node4</title>
<path fill="none" stroke="#63b8ff" d="M325.62,-175.96C293.52,-167.45 243.39,-153.72 200.5,-140 198.38,-139.32 196.21,-138.61 194.03,-137.87"/>
<polygon fill="#63b8ff" stroke="#63b8ff" points="195.1,-134.54 184.51,-134.56 192.8,-141.15 195.1,-134.54"/>
</g>
<!-- Node5 -->
<g id="node5" class="node">
<title>Node5</title>
<g id="a_node5"><a xlink:title=" ">
<polygon fill="#e0e0e0" stroke="#999999" points="299,-134.5 210,-134.5 210,-115.5 299,-115.5 299,-134.5"/>
<text text-anchor="middle" x="254.5" y="-122.5" font-family="Helvetica,sans-Serif" font-size="10.00">StreamString.h</text>
</a>
</g>
</g>
<!-- Node2&#45;&gt;Node5 -->
<g id="edge4" class="edge">
<title>Node2&#45;&gt;Node5</title>
<path fill="none" stroke="#63b8ff" d="M343.15,-175.87C326.18,-166.32 298.6,-150.81 278.71,-139.62"/>
<polygon fill="#63b8ff" stroke="#63b8ff" points="280.34,-136.52 269.91,-134.67 276.91,-142.62 280.34,-136.52"/>
</g>
<!-- Node6 -->
<g id="node6" class="node">
<title>Node6</title>
<g id="a_node6"><a xlink:title=" ">
<polygon fill="#e0e0e0" stroke="#999999" points="424,-134.5 317,-134.5 317,-115.5 424,-115.5 424,-134.5"/>
<text text-anchor="middle" x="370.5" y="-122.5" font-family="Helvetica,sans-Serif" font-size="10.00">cli/FreeRTOS_CLI.h</text>
</a>
</g>
</g>
<!-- Node2&#45;&gt;Node6 -->
<g id="edge5" class="edge">
<title>Node2&#45;&gt;Node6</title>
<path fill="none" stroke="#63b8ff" d="M360.27,-175.87C361.95,-167.66 364.54,-155.04 366.69,-144.55"/>
<polygon fill="#63b8ff" stroke="#63b8ff" points="370.14,-145.17 368.72,-134.67 363.28,-143.76 370.14,-145.17"/>
</g>
<!-- Node2&#45;&gt;Node7 -->
<g id="edge6" class="edge">
<title>Node2&#45;&gt;Node7</title>
<path fill="none" stroke="#63b8ff" d="M381.18,-175.99C407.76,-166.03 451.98,-149.45 482.14,-138.13"/>
<polygon fill="#63b8ff" stroke="#63b8ff" points="483.65,-141.31 491.79,-134.52 481.2,-134.75 483.65,-141.31"/>
</g>
<!-- Node8 -->
<g id="node8" class="node">
<title>Node8</title>
<g id="a_node8"><a xlink:title=" ">
<polygon fill="#e0e0e0" stroke="#999999" points="587.5,-19 539.5,-19 539.5,0 587.5,0 587.5,-19"/>
<text text-anchor="middle" x="563.5" y="-7" font-family="Helvetica,sans-Serif" font-size="10.00">Wire.h</text>
</a>
</g>
</g>
<!-- Node7&#45;&gt;Node8 -->
<g id="edge7" class="edge">
<title>Node7&#45;&gt;Node8</title>
<path fill="none" stroke="#63b8ff" d="M525.08,-115.29C535.32,-106.17 550.33,-90.86 557.5,-74 563.54,-59.81 564.78,-42.28 564.66,-29.23"/>
<polygon fill="#63b8ff" stroke="#63b8ff" points="568.15,-28.98 564.29,-19.12 561.16,-29.24 568.15,-28.98"/>
</g>
<!-- Node9 -->
<g id="node9" class="node">
<title>Node9</title>
<g id="a_node9"><a xlink:href="_t_c_a9534_8h.html" target="_top" xlink:title=" ">
<polygon fill="white" stroke="#666666" points="548.5,-74 480.5,-74 480.5,-55 548.5,-55 548.5,-74"/>
<text text-anchor="middle" x="514.5" y="-62" font-family="Helvetica,sans-Serif" font-size="10.00">TCA9534.h</text>
</a>
</g>
</g>
<!-- Node7&#45;&gt;Node9 -->
<g id="edge8" class="edge">
<title>Node7&#45;&gt;Node9</title>
<path fill="none" stroke="#63b8ff" d="M514.5,-115.37C514.5,-107.25 514.5,-94.81 514.5,-84.39"/>
<polygon fill="#63b8ff" stroke="#63b8ff" points="518,-84.17 514.5,-74.17 511,-84.17 518,-84.17"/>
</g>
<!-- Node9&#45;&gt;Node8 -->
<g id="edge10" class="edge">
<title>Node9&#45;&gt;Node8</title>
<path fill="none" stroke="#63b8ff" d="M522.59,-54.75C529.66,-47.11 540.09,-35.82 548.65,-26.56"/>
<polygon fill="#63b8ff" stroke="#63b8ff" points="551.34,-28.81 555.56,-19.09 546.2,-24.06 551.34,-28.81"/>
</g>
<!-- Node10 -->
<g id="node10" class="node">
<title>Node10</title>
<g id="a_node10"><a xlink:title=" ">
<polygon fill="#e0e0e0" stroke="#999999" points="509,-19 446,-19 446,0 509,0 509,-19"/>
<text text-anchor="middle" x="477.5" y="-7" font-family="Helvetica,sans-Serif" font-size="10.00">Arduino.h</text>
</a>
</g>
</g>
<!-- Node9&#45;&gt;Node10 -->
<g id="edge9" class="edge">
<title>Node9&#45;&gt;Node10</title>
<path fill="none" stroke="#63b8ff" d="M508.39,-54.75C503.22,-47.34 495.65,-36.5 489.31,-27.41"/>
<polygon fill="#63b8ff" stroke="#63b8ff" points="492.09,-25.29 483.5,-19.09 486.35,-29.29 492.09,-25.29"/>
</g>
<!-- Node12 -->
<g id="node12" class="node">
<title>Node12</title>
<g id="a_node12"><a xlink:title=" ">
<polygon fill="#e0e0e0" stroke="#999999" points="855,-195 772,-195 772,-176 855,-176 855,-195"/>
<text text-anchor="middle" x="813.5" y="-183" font-family="Helvetica,sans-Serif" font-size="10.00">ArduinoJson.h</text>
</a>
</g>
</g>
<!-- Node11&#45;&gt;Node12 -->
<g id="edge13" class="edge">
<title>Node11&#45;&gt;Node12</title>
<path fill="none" stroke="#63b8ff" d="M714.46,-230.98C733.53,-222.42 763.16,-209.11 785.05,-199.28"/>
<polygon fill="#63b8ff" stroke="#63b8ff" points="786.51,-202.46 794.2,-195.17 783.64,-196.07 786.51,-202.46"/>
</g>
<!-- Node13 -->
<g id="node13" class="node">
<title>Node13</title>
<g id="a_node13"><a xlink:title=" ">
<polygon fill="#e0e0e0" stroke="#999999" points="754,-195 661,-195 661,-176 754,-176 754,-195"/>
<text text-anchor="middle" x="707.5" y="-183" font-family="Helvetica,sans-Serif" font-size="10.00">dpiclimate&#45;12.h</text>
</a>
</g>
</g>
<!-- Node11&#45;&gt;Node13 -->
<g id="edge14" class="edge">
<title>Node11&#45;&gt;Node13</title>
<path fill="none" stroke="#63b8ff" d="M697.48,-230.75C699.07,-223.72 701.36,-213.62 703.35,-204.84"/>
<polygon fill="#63b8ff" stroke="#63b8ff" points="706.76,-205.62 705.56,-195.09 699.93,-204.07 706.76,-205.62"/>
</g>
<!-- Node11&#45;&gt;Node14 -->
<g id="edge15" class="edge">
<title>Node11&#45;&gt;Node14</title>
<path fill="none" stroke="#63b8ff" d="M675.9,-230.98C656.18,-222.42 625.55,-209.11 602.92,-199.28"/>
<polygon fill="#63b8ff" stroke="#63b8ff" points="604.02,-195.94 593.46,-195.17 601.24,-202.37 604.02,-195.94"/>
</g>
<!-- Node14&#45;&gt;Node7 -->
<g id="edge17" class="edge">
<title>Node14&#45;&gt;Node7</title>
<path fill="none" stroke="#63b8ff" d="M564.79,-175.87C555.82,-166.97 541.62,-152.89 530.59,-141.95"/>
<polygon fill="#63b8ff" stroke="#63b8ff" points="532.81,-139.22 523.24,-134.67 527.88,-144.19 532.81,-139.22"/>
</g>
<!-- Node14&#45;&gt;Node15 -->
<g id="edge16" class="edge">
<title>Node14&#45;&gt;Node15</title>
<path fill="none" stroke="#63b8ff" d="M593.86,-175.99C613.83,-167.65 644.91,-154.66 670.39,-144.02"/>
<polygon fill="#63b8ff" stroke="#63b8ff" points="671.96,-147.15 679.84,-140.06 669.27,-140.69 671.96,-147.15"/>
</g>
<!-- Node16 -->
<g id="node16" class="node">
<title>Node16</title>
<g id="a_node16"><a xlink:href="str__utils_8h.html" target="_top" xlink:title=" ">
<polygon fill="white" stroke="#666666" points="630,-134.5 565,-134.5 565,-115.5 630,-115.5 630,-134.5"/>
<text text-anchor="middle" x="597.5" y="-122.5" font-family="Helvetica,sans-Serif" font-size="10.00">str_utils.h</text>
</a>
</g>
</g>
<!-- Node14&#45;&gt;Node16 -->
<g id="edge18" class="edge">
<title>Node14&#45;&gt;Node16</title>
<path fill="none" stroke="#63b8ff" d="M577.04,-175.87C580.44,-167.57 585.69,-154.78 590.02,-144.22"/>
<polygon fill="#63b8ff" stroke="#63b8ff" points="593.39,-145.25 593.94,-134.67 586.91,-142.59 593.39,-145.25"/>
</g>
<!-- Node17 -->
<g id="node17" class="node">
<title>Node17</title>
<g id="a_node17"><a xlink:title=" ">
<polygon fill="#e0e0e0" stroke="#999999" points="660.5,-74 604.5,-74 604.5,-55 660.5,-55 660.5,-74"/>
<text text-anchor="middle" x="632.5" y="-62" font-family="Helvetica,sans-Serif" font-size="10.00">stddef.h</text>
</a>
</g>
</g>
<!-- Node16&#45;&gt;Node17 -->
<g id="edge19" class="edge">
<title>Node16&#45;&gt;Node17</title>
<path fill="none" stroke="#63b8ff" d="M602.66,-115.37C607.73,-106.9 615.6,-93.74 621.99,-83.07"/>
<polygon fill="#63b8ff" stroke="#63b8ff" points="625.18,-84.55 627.31,-74.17 619.18,-80.95 625.18,-84.55"/>
</g>
<!-- Node18&#45;&gt;Node2 -->
<g id="edge24" class="edge">
<title>Node18&#45;&gt;Node2</title>
<path fill="none" stroke="#63b8ff" d="M437.4,-230.98C422.68,-222.69 400.08,-209.94 382.83,-200.22"/>
<polygon fill="#63b8ff" stroke="#63b8ff" points="384.31,-197.03 373.88,-195.17 380.87,-203.13 384.31,-197.03"/>
</g>
<!-- Node18&#45;&gt;Node10 -->
<g id="edge23" class="edge">
<title>Node18&#45;&gt;Node10</title>
<path fill="none" stroke="#63b8ff" d="M453.31,-230.66C455.77,-204.06 463.48,-122.47 471.5,-55 472.51,-46.48 473.76,-37.05 474.86,-29.08"/>
<polygon fill="#63b8ff" stroke="#63b8ff" points="478.35,-29.41 476.27,-19.02 471.42,-28.44 478.35,-29.41"/>
</g>
</g>
</svg>
