<?xml version="1.0" encoding="UTF-8" standalone="no"?>
<!DOCTYPE svg PUBLIC "-//W3C//DTD SVG 1.1//EN"
 "http://www.w3.org/Graphics/SVG/1.1/DTD/svg11.dtd">
<!-- Generated by graphviz version 2.43.0 (0)
 -->
<!-- Title: firmware/wombat/include/cli/peripherals/cat&#45;m1.h Pages: 1 -->
<svg width="1724pt" height="181pt"
 viewBox="0.00 0.00 1724.00 181.00" xmlns="http://www.w3.org/2000/svg" xmlns:xlink="http://www.w3.org/1999/xlink">
<g id="graph0" class="graph" transform="scale(1 1) rotate(0) translate(4 177)">
<title>firmware/wombat/include/cli/peripherals/cat&#45;m1.h</title>
<!-- Node1 -->
<g id="node1" class="node">
<title>Node1</title>
<g id="a_node1"><a xlink:title="CAT&#45;M1 CLI command request and response handler.">
<polygon fill="#999999" stroke="#666666" points="1067.5,-173 926.5,-173 926.5,-143 1067.5,-143 1067.5,-173"/>
<text text-anchor="start" x="934.5" y="-161" font-family="Helvetica,sans-Serif" font-size="10.00">firmware/wombat/include</text>
<text text-anchor="middle" x="997" y="-150" font-family="Helvetica,sans-Serif" font-size="10.00">/cli/peripherals/cat&#45;m1.h</text>
</a>
</g>
</g>
<!-- Node2 -->
<g id="node2" class="node">
<title>Node2</title>
<g id="a_node2"><a xlink:href="_c_l_i_8h.html" target="_top" xlink:title="FreeRTOS CLI handler.">
<polygon fill="white" stroke="#666666" points="1018.5,-107 877.5,-107 877.5,-77 1018.5,-77 1018.5,-107"/>
<text text-anchor="start" x="885.5" y="-95" font-family="Helvetica,sans-Serif" font-size="10.00">firmware/wombat/include</text>
<text text-anchor="middle" x="948" y="-84" font-family="Helvetica,sans-Serif" font-size="10.00">/cli/CLI.h</text>
</a>
</g>
</g>
<!-- Node1&#45;&gt;Node2 -->
<g id="edge1" class="edge">
<title>Node1&#45;&gt;Node2</title>
<path fill="none" stroke="#63b8ff" d="M980.01,-134.81C972.99,-125.64 965.06,-115.28 958.84,-107.16"/>
<polygon fill="#63b8ff" stroke="#63b8ff" points="977.27,-136.98 986.13,-142.8 982.83,-132.73 977.27,-136.98"/>
</g>
<!-- Node9 -->
<g id="node9" class="node">
<title>Node9</title>
<g id="a_node9"><a xlink:href="cat-m1_8cpp.html" target="_top" xlink:title="CAT&#45;M1 CLI command request and response handler.">
<polygon fill="white" stroke="#666666" points="1716,-41 1596,-41 1596,0 1716,0 1716,-41"/>
<text text-anchor="start" x="1604" y="-29" font-family="Helvetica,sans-Serif" font-size="10.00">firmware/wombat/src</text>
<text text-anchor="start" x="1604" y="-18" font-family="Helvetica,sans-Serif" font-size="10.00">/cli/peripherals/cat</text>
<text text-anchor="middle" x="1656" y="-7" font-family="Helvetica,sans-Serif" font-size="10.00">&#45;m1.cpp</text>
</a>
</g>
</g>
<!-- Node1&#45;&gt;Node9 -->
<g id="edge14" class="edge">
<title>Node1&#45;&gt;Node9</title>
<path fill="none" stroke="#63b8ff" d="M1077.84,-143.25C1191.92,-123.37 1406.4,-84.2 1587,-41 1589.91,-40.3 1592.87,-39.57 1595.86,-38.81"/>
<polygon fill="#63b8ff" stroke="#63b8ff" points="1077.04,-139.84 1067.79,-145 1078.24,-146.74 1077.04,-139.84"/>
</g>
<!-- Node3 -->
<g id="node3" class="node">
<title>Node3</title>
<g id="a_node3"><a xlink:href="_c_l_i_8cpp.html" target="_top" xlink:title="FreeRTOS CLI handler.">
<polygon fill="white" stroke="#666666" points="120,-35.5 0,-35.5 0,-5.5 120,-5.5 120,-35.5"/>
<text text-anchor="start" x="8" y="-23.5" font-family="Helvetica,sans-Serif" font-size="10.00">firmware/wombat/src</text>
<text text-anchor="middle" x="60" y="-12.5" font-family="Helvetica,sans-Serif" font-size="10.00">/cli/CLI.cpp</text>
</a>
</g>
</g>
<!-- Node2&#45;&gt;Node3 -->
<g id="edge2" class="edge">
<title>Node2&#45;&gt;Node3</title>
<path fill="none" stroke="#63b8ff" d="M866.97,-91.78C719.19,-91.93 396.44,-86.41 129,-41 120.9,-39.62 112.39,-37.66 104.22,-35.51"/>
<polygon fill="#63b8ff" stroke="#63b8ff" points="867.31,-95.28 877.31,-91.76 867.3,-88.28 867.31,-95.28"/>
</g>
<!-- Node4 -->
<g id="node4" class="node">
<title>Node4</title>
<g id="a_node4"><a xlink:href="acquisition__intervals_8cpp.html" target="_top" xlink:title="Handles the time between measurements and uplinks by the device over LTE.">
<polygon fill="white" stroke="#666666" points="295.5,-41 138.5,-41 138.5,0 295.5,0 295.5,-41"/>
<text text-anchor="start" x="146.5" y="-29" font-family="Helvetica,sans-Serif" font-size="10.00">firmware/wombat/src</text>
<text text-anchor="start" x="146.5" y="-18" font-family="Helvetica,sans-Serif" font-size="10.00">/cli/device_config/acquisition</text>
<text text-anchor="middle" x="217" y="-7" font-family="Helvetica,sans-Serif" font-size="10.00">_intervals.cpp</text>
</a>
</g>
</g>
<!-- Node2&#45;&gt;Node4 -->
<g id="edge3" class="edge">
<title>Node2&#45;&gt;Node4</title>
<path fill="none" stroke="#63b8ff" d="M867.2,-88.36C744.94,-83.54 505.9,-70.92 305,-41 301.9,-40.54 298.76,-40.03 295.58,-39.49"/>
<polygon fill="#63b8ff" stroke="#63b8ff" points="867.1,-91.86 877.23,-88.75 867.37,-84.86 867.1,-91.86"/>
</g>
<!-- Node5 -->
<g id="node5" class="node">
<title>Node5</title>
<g id="a_node5"><a xlink:href="cli__power_8cpp.html" target="_top" xlink:title="Power related commands.">
<polygon fill="white" stroke="#666666" points="434,-41 314,-41 314,0 434,0 434,-41"/>
<text text-anchor="start" x="322" y="-29" font-family="Helvetica,sans-Serif" font-size="10.00">firmware/wombat/src</text>
<text text-anchor="start" x="322" y="-18" font-family="Helvetica,sans-Serif" font-size="10.00">/cli/device_config/cli</text>
<text text-anchor="middle" x="374" y="-7" font-family="Helvetica,sans-Serif" font-size="10.00">_power.cpp</text>
</a>
</g>
</g>
<!-- Node2&#45;&gt;Node5 -->
<g id="edge4" class="edge">
<title>Node2&#45;&gt;Node5</title>
<path fill="none" stroke="#63b8ff" d="M867.12,-87.4C766.87,-81.93 591.13,-69.04 443,-41 440.06,-40.44 437.07,-39.82 434.06,-39.15"/>
<polygon fill="#63b8ff" stroke="#63b8ff" points="867.01,-90.9 877.18,-87.94 867.38,-83.91 867.01,-90.9"/>
</g>
<!-- Node6 -->
<g id="node6" class="node">
<title>Node6</title>
<g id="a_node6"><a xlink:href="config__cli_8cpp.html" target="_top" xlink:title="Command line interface node configuration commands.">
<polygon fill="white" stroke="#666666" points="585.5,-41 452.5,-41 452.5,0 585.5,0 585.5,-41"/>
<text text-anchor="start" x="460.5" y="-29" font-family="Helvetica,sans-Serif" font-size="10.00">firmware/wombat/src</text>
<text text-anchor="start" x="460.5" y="-18" font-family="Helvetica,sans-Serif" font-size="10.00">/cli/device_config/config</text>
<text text-anchor="middle" x="519" y="-7" font-family="Helvetica,sans-Serif" font-size="10.00">_cli.cpp</text>
</a>
</g>
</g>
<!-- Node2&#45;&gt;Node6 -->
<g id="edge5" class="edge">
<title>Node2&#45;&gt;Node6</title>
<path fill="none" stroke="#63b8ff" d="M866.96,-82.1C795.13,-73.6 687.59,-59.38 595,-41 591.93,-40.39 588.79,-39.73 585.63,-39.04"/>
<polygon fill="#63b8ff" stroke="#63b8ff" points="866.95,-85.62 877.29,-83.31 867.77,-78.67 866.95,-85.62"/>
</g>
<!-- Node7 -->
<g id="node7" class="node">
<title>Node7</title>
<g id="a_node7"><a xlink:href="ftp__cli_8cpp.html" target="_top" xlink:title="FTP setup and configuration through the CLI.">
<polygon fill="white" stroke="#666666" points="724,-41 604,-41 604,0 724,0 724,-41"/>
<text text-anchor="start" x="612" y="-29" font-family="Helvetica,sans-Serif" font-size="10.00">firmware/wombat/src</text>
<text text-anchor="start" x="612" y="-18" font-family="Helvetica,sans-Serif" font-size="10.00">/cli/device_config/ftp</text>
<text text-anchor="middle" x="664" y="-7" font-family="Helvetica,sans-Serif" font-size="10.00">_cli.cpp</text>
</a>
</g>
</g>
<!-- Node2&#45;&gt;Node7 -->
<g id="edge6" class="edge">
<title>Node2&#45;&gt;Node7</title>
<path fill="none" stroke="#63b8ff" d="M874.06,-74.71C832.5,-65.32 779.73,-53.03 733,-41 730.11,-40.26 727.15,-39.48 724.17,-38.68"/>
<polygon fill="#63b8ff" stroke="#63b8ff" points="873.31,-78.12 883.84,-76.91 874.85,-71.29 873.31,-78.12"/>
</g>
<!-- Node8 -->
<g id="node8" class="node">
<title>Node8</title>
<g id="a_node8"><a xlink:href="mqtt__cli_8cpp.html" target="_top" xlink:title="MQTT setup and configuration through the CLI.">
<polygon fill="white" stroke="#666666" points="869.5,-41 742.5,-41 742.5,0 869.5,0 869.5,-41"/>
<text text-anchor="start" x="750.5" y="-29" font-family="Helvetica,sans-Serif" font-size="10.00">firmware/wombat/src</text>
<text text-anchor="start" x="750.5" y="-18" font-family="Helvetica,sans-Serif" font-size="10.00">/cli/device_config/mqtt</text>
<text text-anchor="middle" x="806" y="-7" font-family="Helvetica,sans-Serif" font-size="10.00">_cli.cpp</text>
</a>
</g>
</g>
<!-- Node2&#45;&gt;Node8 -->
<g id="edge7" class="edge">
<title>Node2&#45;&gt;Node8</title>
<path fill="none" stroke="#63b8ff" d="M910.22,-72.51C890.4,-62.81 866.13,-50.93 845.99,-41.07"/>
<polygon fill="#63b8ff" stroke="#63b8ff" points="908.74,-75.68 919.26,-76.94 911.82,-69.4 908.74,-75.68"/>
</g>
<!-- Node2&#45;&gt;Node9 -->
<g id="edge8" class="edge">
<title>Node2&#45;&gt;Node9</title>
<path fill="none" stroke="#63b8ff" d="M1028.91,-89.77C1150.82,-86.77 1388.49,-76.46 1587,-41 1589.94,-40.47 1592.94,-39.88 1595.95,-39.22"/>
<polygon fill="#63b8ff" stroke="#63b8ff" points="1028.46,-86.28 1018.55,-90.01 1028.63,-93.28 1028.46,-86.28"/>
</g>
<!-- Node10 -->
<g id="node10" class="node">
<title>Node10</title>
<g id="a_node10"><a xlink:href="cli__spiffs_8cpp.html" target="_top" xlink:title="SPIFFS related commands.">
<polygon fill="white" stroke="#666666" points="1008,-41 888,-41 888,0 1008,0 1008,-41"/>
<text text-anchor="start" x="896" y="-29" font-family="Helvetica,sans-Serif" font-size="10.00">firmware/wombat/src</text>
<text text-anchor="start" x="896" y="-18" font-family="Helvetica,sans-Serif" font-size="10.00">/cli/peripherals/cli</text>
<text text-anchor="middle" x="948" y="-7" font-family="Helvetica,sans-Serif" font-size="10.00">_spiffs.cpp</text>
</a>
</g>
</g>
<!-- Node2&#45;&gt;Node10 -->
<g id="edge9" class="edge">
<title>Node2&#45;&gt;Node10</title>
<path fill="none" stroke="#63b8ff" d="M948,-66.91C948,-58.47 948,-49.1 948,-41.07"/>
<polygon fill="#63b8ff" stroke="#63b8ff" points="944.5,-66.94 948,-76.94 951.5,-66.94 944.5,-66.94"/>
</g>
<!-- Node11 -->
<g id="node11" class="node">
<title>Node11</title>
<g id="a_node11"><a xlink:href="sd__card_8cpp.html" target="_top" xlink:title="SD card filesystem related commands.">
<polygon fill="white" stroke="#666666" points="1146,-41 1026,-41 1026,0 1146,0 1146,-41"/>
<text text-anchor="start" x="1034" y="-29" font-family="Helvetica,sans-Serif" font-size="10.00">firmware/wombat/src</text>
<text text-anchor="start" x="1034" y="-18" font-family="Helvetica,sans-Serif" font-size="10.00">/cli/peripherals/sd</text>
<text text-anchor="middle" x="1086" y="-7" font-family="Helvetica,sans-Serif" font-size="10.00">_card.cpp</text>
</a>
</g>
</g>
<!-- Node2&#45;&gt;Node11 -->
<g id="edge10" class="edge">
<title>Node2&#45;&gt;Node11</title>
<path fill="none" stroke="#63b8ff" d="M984.98,-72.38C1004.19,-62.7 1027.66,-50.88 1047.13,-41.07"/>
<polygon fill="#63b8ff" stroke="#63b8ff" points="983.28,-69.31 975.93,-76.94 986.43,-75.56 983.28,-69.31"/>
</g>
<!-- Node12 -->
<g id="node12" class="node">
<title>Node12</title>
<g id="a_node12"><a xlink:href="sdi12_8cpp.html" target="_top" xlink:title="SDI&#45;12 command line interface handler.">
<polygon fill="white" stroke="#666666" points="1302,-35.5 1164,-35.5 1164,-5.5 1302,-5.5 1302,-35.5"/>
<text text-anchor="start" x="1172" y="-23.5" font-family="Helvetica,sans-Serif" font-size="10.00">firmware/wombat/src</text>
<text text-anchor="middle" x="1233" y="-12.5" font-family="Helvetica,sans-Serif" font-size="10.00">/cli/peripherals/sdi12.cpp</text>
</a>
</g>
</g>
<!-- Node2&#45;&gt;Node12 -->
<g id="edge11" class="edge">
<title>Node2&#45;&gt;Node12</title>
<path fill="none" stroke="#63b8ff" d="M1016.64,-74.56C1056.96,-64.87 1108.9,-52.33 1155,-41 1162.18,-39.23 1169.74,-37.36 1177.2,-35.51"/>
<polygon fill="#63b8ff" stroke="#63b8ff" points="1015.83,-71.16 1006.92,-76.9 1017.46,-77.97 1015.83,-71.16"/>
</g>
<!-- Node13 -->
<g id="node13" class="node">
<title>Node13</title>
<g id="a_node13"><a xlink:href="main_8cpp.html" target="_top" xlink:title=" ">
<polygon fill="white" stroke="#666666" points="1440,-35.5 1320,-35.5 1320,-5.5 1440,-5.5 1440,-35.5"/>
<text text-anchor="start" x="1328" y="-23.5" font-family="Helvetica,sans-Serif" font-size="10.00">firmware/wombat/src</text>
<text text-anchor="middle" x="1380" y="-12.5" font-family="Helvetica,sans-Serif" font-size="10.00">/main.cpp</text>
</a>
</g>
</g>
<!-- Node2&#45;&gt;Node13 -->
<g id="edge12" class="edge">
<title>Node2&#45;&gt;Node13</title>
<path fill="none" stroke="#63b8ff" d="M1028.94,-83.1C1102.87,-75.12 1214.95,-61.09 1311,-41 1318.43,-39.45 1326.24,-37.52 1333.82,-35.5"/>
<polygon fill="#63b8ff" stroke="#63b8ff" points="1028.34,-79.65 1018.76,-84.19 1029.08,-86.61 1028.34,-79.65"/>
</g>
<!-- Node14 -->
<g id="node14" class="node">
<title>Node14</title>
<g id="a_node14"><a xlink:href="mqtt__stack_8cpp.html" target="_top" xlink:title=" ">
<polygon fill="white" stroke="#666666" points="1578,-35.5 1458,-35.5 1458,-5.5 1578,-5.5 1578,-35.5"/>
<text text-anchor="start" x="1466" y="-23.5" font-family="Helvetica,sans-Serif" font-size="10.00">firmware/wombat/src</text>
<text text-anchor="middle" x="1518" y="-12.5" font-family="Helvetica,sans-Serif" font-size="10.00">/mqtt_stack.cpp</text>
</a>
</g>
</g>
<!-- Node2&#45;&gt;Node14 -->
<g id="edge13" class="edge">
<title>Node2&#45;&gt;Node14</title>
<path fill="none" stroke="#63b8ff" d="M1028.66,-87.32C1128.18,-81.79 1302.25,-68.84 1449,-41 1456.71,-39.54 1464.8,-37.62 1472.62,-35.55"/>
<polygon fill="#63b8ff" stroke="#63b8ff" points="1028.47,-83.83 1018.67,-87.87 1028.85,-90.82 1028.47,-83.83"/>
</g>
</g>
</svg>
