<?xml version="1.0" encoding="UTF-8" standalone="no"?>
<!DOCTYPE svg PUBLIC "-//W3C//DTD SVG 1.1//EN"
 "http://www.w3.org/Graphics/SVG/1.1/DTD/svg11.dtd">
<!-- Generated by graphviz version 2.43.0 (0)
 -->
<!-- Title: firmware/wombat/src/cli/peripherals/cat&#45;m1.cpp Pages: 1 -->
<svg width="1455pt" height="456pt"
 viewBox="0.00 0.00 1454.80 456.00" xmlns="http://www.w3.org/2000/svg" xmlns:xlink="http://www.w3.org/1999/xlink">
<g id="graph0" class="graph" transform="scale(1 1) rotate(0) translate(4 452)">
<title>firmware/wombat/src/cli/peripherals/cat&#45;m1.cpp</title>
<!-- Node1 -->
<g id="node1" class="node">
<title>Node1</title>
<g id="a_node1"><a xlink:title="CAT&#45;M1 CLI command request and response handler.">
<polygon fill="#999999" stroke="#666666" points="1334.8,-448 1214.8,-448 1214.8,-407 1334.8,-407 1334.8,-448"/>
<text text-anchor="start" x="1222.8" y="-436" font-family="Helvetica,sans-Serif" font-size="10.00">firmware/wombat/src</text>
<text text-anchor="start" x="1222.8" y="-425" font-family="Helvetica,sans-Serif" font-size="10.00">/cli/peripherals/cat</text>
<text text-anchor="middle" x="1274.8" y="-414" font-family="Helvetica,sans-Serif" font-size="10.00">&#45;m1.cpp</text>
</a>
</g>
</g>
<!-- Node2 -->
<g id="node2" class="node">
<title>Node2</title>
<g id="a_node2"><a xlink:href="cat-m1_8h.html" target="_top" xlink:title="CAT&#45;M1 CLI command request and response handler.">
<polygon fill="white" stroke="#666666" points="1029.8,-310.5 897.8,-310.5 897.8,-291.5 1029.8,-291.5 1029.8,-310.5"/>
<text text-anchor="middle" x="963.8" y="-298.5" font-family="Helvetica,sans-Serif" font-size="10.00">cli/peripherals/cat&#45;m1.h</text>
</a>
</g>
</g>
<!-- Node1&#45;&gt;Node2 -->
<g id="edge1" class="edge">
<title>Node1&#45;&gt;Node2</title>
<path fill="none" stroke="#63b8ff" d="M1225.87,-406.91C1161.13,-380.99 1048.92,-336.07 994.78,-314.4"/>
<polygon fill="#63b8ff" stroke="#63b8ff" points="995.95,-311.1 985.37,-310.63 993.35,-317.6 995.95,-311.1"/>
</g>
<!-- Node7 -->
<g id="node7" class="node">
<title>Node7</title>
<g id="a_node7"><a xlink:href="_c_a_t___m1_8h.html" target="_top" xlink:title=" ">
<polygon fill="white" stroke="#666666" points="1102.3,-134.5 1037.3,-134.5 1037.3,-115.5 1102.3,-115.5 1102.3,-134.5"/>
<text text-anchor="middle" x="1069.8" y="-122.5" font-family="Helvetica,sans-Serif" font-size="10.00">CAT_M1.h</text>
</a>
</g>
</g>
<!-- Node1&#45;&gt;Node7 -->
<g id="edge11" class="edge">
<title>Node1&#45;&gt;Node7</title>
<path fill="none" stroke="#63b8ff" d="M1279.69,-406.8C1285.32,-382.38 1293.8,-339.39 1293.8,-302 1293.8,-302 1293.8,-302 1293.8,-239.5 1293.8,-210.04 1296.16,-196.29 1274.8,-176 1251.77,-154.12 1165.85,-138.94 1112.83,-131.42"/>
<polygon fill="#63b8ff" stroke="#63b8ff" points="1113.08,-127.92 1102.69,-130.02 1112.12,-134.86 1113.08,-127.92"/>
</g>
<!-- Node11 -->
<g id="node11" class="node">
<title>Node11</title>
<g id="a_node11"><a xlink:href="_utils_8h.html" target="_top" xlink:title=" ">
<polygon fill="white" stroke="#666666" points="1232.8,-250 1184.8,-250 1184.8,-231 1232.8,-231 1232.8,-250"/>
<text text-anchor="middle" x="1208.8" y="-238" font-family="Helvetica,sans-Serif" font-size="10.00">Utils.h</text>
</a>
</g>
</g>
<!-- Node1&#45;&gt;Node11 -->
<g id="edge12" class="edge">
<title>Node1&#45;&gt;Node11</title>
<path fill="none" stroke="#63b8ff" d="M1267.74,-406.7C1254.9,-370.7 1227.89,-295.02 1215.4,-260"/>
<polygon fill="#63b8ff" stroke="#63b8ff" points="1218.55,-258.4 1211.89,-250.16 1211.95,-260.75 1218.55,-258.4"/>
</g>
<!-- Node15 -->
<g id="node15" class="node">
<title>Node15</title>
<g id="a_node15"><a xlink:href="globals_8h.html" target="_top" xlink:title=" ">
<polygon fill="white" stroke="#666666" points="1383.3,-195 1322.3,-195 1322.3,-176 1383.3,-176 1383.3,-195"/>
<text text-anchor="middle" x="1352.8" y="-183" font-family="Helvetica,sans-Serif" font-size="10.00">globals.h</text>
</a>
</g>
</g>
<!-- Node1&#45;&gt;Node15 -->
<g id="edge20" class="edge">
<title>Node1&#45;&gt;Node15</title>
<path fill="none" stroke="#63b8ff" d="M1288.37,-406.95C1295.02,-396.64 1302.67,-383.56 1307.8,-371 1331.55,-312.87 1344.87,-239.11 1350.13,-205.15"/>
<polygon fill="#63b8ff" stroke="#63b8ff" points="1353.6,-205.65 1351.61,-195.24 1346.67,-204.62 1353.6,-205.65"/>
</g>
<!-- Node16 -->
<g id="node16" class="node">
<title>Node16</title>
<g id="a_node16"><a xlink:title=" ">
<polygon fill="#e0e0e0" stroke="#999999" points="1446.8,-140 1316.8,-140 1316.8,-110 1446.8,-110 1446.8,-140"/>
<text text-anchor="start" x="1324.8" y="-128" font-family="Helvetica,sans-Serif" font-size="10.00">SparkFun_u&#45;blox_SARA</text>
<text text-anchor="middle" x="1381.8" y="-117" font-family="Helvetica,sans-Serif" font-size="10.00">&#45;R5_Arduino_Library.h</text>
</a>
</g>
</g>
<!-- Node1&#45;&gt;Node16 -->
<g id="edge19" class="edge">
<title>Node1&#45;&gt;Node16</title>
<path fill="none" stroke="#63b8ff" d="M1321.95,-406.92C1361.58,-386.95 1411.8,-351.82 1411.8,-302 1411.8,-302 1411.8,-302 1411.8,-239.5 1411.8,-207.51 1400.52,-172.08 1391.8,-149.45"/>
<polygon fill="#63b8ff" stroke="#63b8ff" points="1394.99,-148 1388.02,-140.02 1388.49,-150.6 1394.99,-148"/>
</g>
<!-- Node17 -->
<g id="node17" class="node">
<title>Node17</title>
<g id="a_node17"><a xlink:href="_c_l_i_8h.html" target="_top" xlink:title="FreeRTOS CLI handler.">
<polygon fill="white" stroke="#666666" points="660.3,-371 605.3,-371 605.3,-352 660.3,-352 660.3,-371"/>
<text text-anchor="middle" x="632.8" y="-359" font-family="Helvetica,sans-Serif" font-size="10.00">cli/CLI.h</text>
</a>
</g>
</g>
<!-- Node1&#45;&gt;Node17 -->
<g id="edge21" class="edge">
<title>Node1&#45;&gt;Node17</title>
<path fill="none" stroke="#63b8ff" d="M1214.69,-420.51C1084.07,-407.49 777.48,-376.92 670.46,-366.25"/>
<polygon fill="#63b8ff" stroke="#63b8ff" points="670.74,-362.77 660.45,-365.26 670.05,-369.73 670.74,-362.77"/>
</g>
<!-- Node3 -->
<g id="node3" class="node">
<title>Node3</title>
<g id="a_node3"><a xlink:title=" ">
<polygon fill="#e0e0e0" stroke="#999999" points="711.3,-250 598.3,-250 598.3,-231 711.3,-231 711.3,-250"/>
<text text-anchor="middle" x="654.8" y="-238" font-family="Helvetica,sans-Serif" font-size="10.00">freertos/FreeRTOS.h</text>
</a>
</g>
</g>
<!-- Node2&#45;&gt;Node3 -->
<g id="edge2" class="edge">
<title>Node2&#45;&gt;Node3</title>
<path fill="none" stroke="#63b8ff" d="M918.87,-291.49C863.49,-281.01 769.41,-263.2 709.78,-251.91"/>
<polygon fill="#63b8ff" stroke="#63b8ff" points="710.26,-248.44 699.79,-250.02 708.96,-255.32 710.26,-248.44"/>
</g>
<!-- Node4 -->
<g id="node4" class="node">
<title>Node4</title>
<g id="a_node4"><a xlink:title=" ">
<polygon fill="#e0e0e0" stroke="#999999" points="936.3,-250 875.3,-250 875.3,-231 936.3,-231 936.3,-250"/>
<text text-anchor="middle" x="905.8" y="-238" font-family="Helvetica,sans-Serif" font-size="10.00">Stream.h</text>
</a>
</g>
</g>
<!-- Node2&#45;&gt;Node4 -->
<g id="edge3" class="edge">
<title>Node2&#45;&gt;Node4</title>
<path fill="none" stroke="#63b8ff" d="M955.24,-291.37C946.42,-282.47 932.46,-268.39 921.62,-257.45"/>
<polygon fill="#63b8ff" stroke="#63b8ff" points="923.92,-254.8 914.39,-250.17 918.95,-259.73 923.92,-254.8"/>
</g>
<!-- Node5 -->
<g id="node5" class="node">
<title>Node5</title>
<g id="a_node5"><a xlink:title=" ">
<polygon fill="#e0e0e0" stroke="#999999" points="857.3,-250 768.3,-250 768.3,-231 857.3,-231 857.3,-250"/>
<text text-anchor="middle" x="812.8" y="-238" font-family="Helvetica,sans-Serif" font-size="10.00">StreamString.h</text>
</a>
</g>
</g>
<!-- Node2&#45;&gt;Node5 -->
<g id="edge4" class="edge">
<title>Node2&#45;&gt;Node5</title>
<path fill="none" stroke="#63b8ff" d="M941.84,-291.49C916.12,-281.53 873.32,-264.95 844.12,-253.63"/>
<polygon fill="#63b8ff" stroke="#63b8ff" points="845.37,-250.37 834.78,-250.02 842.84,-256.89 845.37,-250.37"/>
</g>
<!-- Node6 -->
<g id="node6" class="node">
<title>Node6</title>
<g id="a_node6"><a xlink:title=" ">
<polygon fill="#e0e0e0" stroke="#999999" points="1061.3,-250 954.3,-250 954.3,-231 1061.3,-231 1061.3,-250"/>
<text text-anchor="middle" x="1007.8" y="-238" font-family="Helvetica,sans-Serif" font-size="10.00">cli/FreeRTOS_CLI.h</text>
</a>
</g>
</g>
<!-- Node2&#45;&gt;Node6 -->
<g id="edge5" class="edge">
<title>Node2&#45;&gt;Node6</title>
<path fill="none" stroke="#63b8ff" d="M970.29,-291.37C976.79,-282.73 986.97,-269.2 995.08,-258.42"/>
<polygon fill="#63b8ff" stroke="#63b8ff" points="998.07,-260.26 1001.28,-250.17 992.47,-256.06 998.07,-260.26"/>
</g>
<!-- Node2&#45;&gt;Node7 -->
<g id="edge6" class="edge">
<title>Node2&#45;&gt;Node7</title>
<path fill="none" stroke="#63b8ff" d="M1007.28,-291.44C1030.38,-284.45 1056.82,-271.97 1070.8,-250 1091.44,-217.58 1082.81,-170.09 1075.69,-144.3"/>
<polygon fill="#63b8ff" stroke="#63b8ff" points="1079.04,-143.27 1072.83,-134.68 1072.33,-145.27 1079.04,-143.27"/>
</g>
<!-- Node8 -->
<g id="node8" class="node">
<title>Node8</title>
<g id="a_node8"><a xlink:title=" ">
<polygon fill="#e0e0e0" stroke="#999999" points="1062.8,-19 1014.8,-19 1014.8,0 1062.8,0 1062.8,-19"/>
<text text-anchor="middle" x="1038.8" y="-7" font-family="Helvetica,sans-Serif" font-size="10.00">Wire.h</text>
</a>
</g>
</g>
<!-- Node7&#45;&gt;Node8 -->
<g id="edge7" class="edge">
<title>Node7&#45;&gt;Node8</title>
<path fill="none" stroke="#63b8ff" d="M1067.47,-115.47C1062.47,-97.15 1050.6,-53.68 1043.8,-28.81"/>
<polygon fill="#63b8ff" stroke="#63b8ff" points="1047.17,-27.85 1041.16,-19.13 1040.42,-29.7 1047.17,-27.85"/>
</g>
<!-- Node9 -->
<g id="node9" class="node">
<title>Node9</title>
<g id="a_node9"><a xlink:href="_t_c_a9534_8h.html" target="_top" xlink:title=" ">
<polygon fill="white" stroke="#666666" points="1041.8,-74 973.8,-74 973.8,-55 1041.8,-55 1041.8,-74"/>
<text text-anchor="middle" x="1007.8" y="-62" font-family="Helvetica,sans-Serif" font-size="10.00">TCA9534.h</text>
</a>
</g>
</g>
<!-- Node7&#45;&gt;Node9 -->
<g id="edge8" class="edge">
<title>Node7&#45;&gt;Node9</title>
<path fill="none" stroke="#63b8ff" d="M1060.65,-115.37C1051.13,-106.38 1036.01,-92.11 1024.37,-81.14"/>
<polygon fill="#63b8ff" stroke="#63b8ff" points="1026.66,-78.48 1016.99,-74.17 1021.86,-83.58 1026.66,-78.48"/>
</g>
<!-- Node9&#45;&gt;Node8 -->
<g id="edge10" class="edge">
<title>Node9&#45;&gt;Node8</title>
<path fill="none" stroke="#63b8ff" d="M1012.92,-54.75C1017.16,-47.49 1023.33,-36.95 1028.58,-27.98"/>
<polygon fill="#63b8ff" stroke="#63b8ff" points="1031.75,-29.49 1033.78,-19.09 1025.71,-25.95 1031.75,-29.49"/>
</g>
<!-- Node10 -->
<g id="node10" class="node">
<title>Node10</title>
<g id="a_node10"><a xlink:title=" ">
<polygon fill="#e0e0e0" stroke="#999999" points="400.3,-19 337.3,-19 337.3,0 400.3,0 400.3,-19"/>
<text text-anchor="middle" x="368.8" y="-7" font-family="Helvetica,sans-Serif" font-size="10.00">Arduino.h</text>
</a>
</g>
</g>
<!-- Node9&#45;&gt;Node10 -->
<g id="edge9" class="edge">
<title>Node9&#45;&gt;Node10</title>
<path fill="none" stroke="#63b8ff" d="M973.45,-60.65C864.86,-51.64 529.28,-23.81 410.77,-13.98"/>
<polygon fill="#63b8ff" stroke="#63b8ff" points="410.9,-10.48 400.65,-13.14 410.32,-17.46 410.9,-10.48"/>
</g>
<!-- Node12 -->
<g id="node12" class="node">
<title>Node12</title>
<g id="a_node12"><a xlink:title=" ">
<polygon fill="#e0e0e0" stroke="#999999" points="1265.8,-195 1209.8,-195 1209.8,-176 1265.8,-176 1265.8,-195"/>
<text text-anchor="middle" x="1237.8" y="-183" font-family="Helvetica,sans-Serif" font-size="10.00">stddef.h</text>
</a>
</g>
</g>
<!-- Node11&#45;&gt;Node12 -->
<g id="edge13" class="edge">
<title>Node11&#45;&gt;Node12</title>
<path fill="none" stroke="#63b8ff" d="M1213.59,-230.75C1217.56,-223.49 1223.33,-212.95 1228.24,-203.98"/>
<polygon fill="#63b8ff" stroke="#63b8ff" points="1231.37,-205.54 1233.1,-195.09 1225.23,-202.18 1231.37,-205.54"/>
</g>
<!-- Node13 -->
<g id="node13" class="node">
<title>Node13</title>
<g id="a_node13"><a xlink:title=" ">
<polygon fill="#e0e0e0" stroke="#999999" points="955.3,-195 872.3,-195 872.3,-176 955.3,-176 955.3,-195"/>
<text text-anchor="middle" x="913.8" y="-183" font-family="Helvetica,sans-Serif" font-size="10.00">ArduinoJson.h</text>
</a>
</g>
</g>
<!-- Node11&#45;&gt;Node13 -->
<g id="edge14" class="edge">
<title>Node11&#45;&gt;Node13</title>
<path fill="none" stroke="#63b8ff" d="M1184.66,-235.16C1136.98,-226.6 1029.8,-207.34 965.48,-195.78"/>
<polygon fill="#63b8ff" stroke="#63b8ff" points="966,-192.32 955.54,-194 964.77,-199.21 966,-192.32"/>
</g>
<!-- Node14 -->
<g id="node14" class="node">
<title>Node14</title>
<g id="a_node14"><a xlink:title=" ">
<polygon fill="#e0e0e0" stroke="#999999" points="1191.3,-195 1098.3,-195 1098.3,-176 1191.3,-176 1191.3,-195"/>
<text text-anchor="middle" x="1144.8" y="-183" font-family="Helvetica,sans-Serif" font-size="10.00">dpiclimate&#45;12.h</text>
</a>
</g>
</g>
<!-- Node11&#45;&gt;Node14 -->
<g id="edge15" class="edge">
<title>Node11&#45;&gt;Node14</title>
<path fill="none" stroke="#63b8ff" d="M1198.52,-230.98C1188.96,-223.07 1174.52,-211.11 1163.02,-201.58"/>
<polygon fill="#63b8ff" stroke="#63b8ff" points="1165.21,-198.85 1155.27,-195.17 1160.74,-204.24 1165.21,-198.85"/>
</g>
<!-- Node11&#45;&gt;Node15 -->
<g id="edge16" class="edge">
<title>Node11&#45;&gt;Node15</title>
<path fill="none" stroke="#63b8ff" d="M1231.94,-230.98C1255.62,-222.27 1292.67,-208.63 1319.51,-198.75"/>
<polygon fill="#63b8ff" stroke="#63b8ff" points="1321.07,-201.91 1329.24,-195.17 1318.65,-195.34 1321.07,-201.91"/>
</g>
<!-- Node15&#45;&gt;Node7 -->
<g id="edge18" class="edge">
<title>Node15&#45;&gt;Node7</title>
<path fill="none" stroke="#63b8ff" d="M1322.25,-178.18C1271.55,-167.7 1169.94,-146.7 1112.29,-134.78"/>
<polygon fill="#63b8ff" stroke="#63b8ff" points="1112.9,-131.34 1102.4,-132.74 1111.48,-138.19 1112.9,-131.34"/>
</g>
<!-- Node15&#45;&gt;Node16 -->
<g id="edge17" class="edge">
<title>Node15&#45;&gt;Node16</title>
<path fill="none" stroke="#63b8ff" d="M1357.08,-175.87C1360.58,-168.81 1365.69,-158.5 1370.36,-149.08"/>
<polygon fill="#63b8ff" stroke="#63b8ff" points="1373.5,-150.63 1374.8,-140.11 1367.23,-147.52 1373.5,-150.63"/>
</g>
<!-- Node17&#45;&gt;Node2 -->
<g id="edge25" class="edge">
<title>Node17&#45;&gt;Node2</title>
<path fill="none" stroke="#63b8ff" d="M660.48,-355.81C707.45,-347.81 805.78,-330.96 888.8,-316 895.13,-314.86 901.76,-313.65 908.34,-312.43"/>
<polygon fill="#63b8ff" stroke="#63b8ff" points="909.41,-315.79 918.61,-310.53 908.14,-308.91 909.41,-315.79"/>
</g>
<!-- Node17&#45;&gt;Node3 -->
<g id="edge23" class="edge">
<title>Node17&#45;&gt;Node3</title>
<path fill="none" stroke="#63b8ff" d="M623.19,-351.69C614.93,-343.41 603.6,-330.18 598.8,-316 594.53,-303.37 593.01,-298.01 598.8,-286 605.02,-273.12 616.98,-262.82 628.26,-255.38"/>
<polygon fill="#63b8ff" stroke="#63b8ff" points="630.31,-258.23 637.03,-250.04 626.67,-252.25 630.31,-258.23"/>
</g>
<!-- Node17&#45;&gt;Node6 -->
<g id="edge24" class="edge">
<title>Node17&#45;&gt;Node6</title>
<path fill="none" stroke="#63b8ff" d="M660.31,-360.47C768.66,-360.08 1161.92,-355.9 1198.8,-316 1239.91,-271.53 1142.02,-253.27 1071.73,-246.01"/>
<polygon fill="#63b8ff" stroke="#63b8ff" points="1071.87,-242.51 1061.57,-245.02 1071.19,-249.48 1071.87,-242.51"/>
</g>
<!-- Node17&#45;&gt;Node10 -->
<g id="edge22" class="edge">
<title>Node17&#45;&gt;Node10</title>
<path fill="none" stroke="#63b8ff" d="M605.3,-360.36C492.12,-359.53 66.09,-353.9 20.8,-316 -5.4,-294.07 1.8,-275.67 1.8,-241.5 1.8,-241.5 1.8,-241.5 1.8,-124 1.8,-56.51 231.15,-24.8 327.24,-14.47"/>
<polygon fill="#63b8ff" stroke="#63b8ff" points="327.61,-17.95 337.19,-13.43 326.88,-10.99 327.61,-17.95"/>
</g>
<!-- Node18 -->
<g id="node18" class="node">
<title>Node18</title>
<g id="a_node18"><a xlink:href="sdi12_8h.html" target="_top" xlink:title="SDI&#45;12 command line interface handler.">
<polygon fill="white" stroke="#666666" points="1171.8,-310.5 1047.8,-310.5 1047.8,-291.5 1171.8,-291.5 1171.8,-310.5"/>
<text text-anchor="middle" x="1109.8" y="-298.5" font-family="Helvetica,sans-Serif" font-size="10.00">cli/peripherals/sdi12.h</text>
</a>
</g>
</g>
<!-- Node17&#45;&gt;Node18 -->
<g id="edge26" class="edge">
<title>Node17&#45;&gt;Node18</title>
<path fill="none" stroke="#63b8ff" d="M660.48,-358.29C726.29,-352.85 897.22,-337.68 1038.8,-316 1045.56,-314.97 1052.65,-313.74 1059.63,-312.45"/>
<polygon fill="#63b8ff" stroke="#63b8ff" points="1060.56,-315.83 1069.73,-310.52 1059.25,-308.96 1060.56,-315.83"/>
</g>
<!-- Node19 -->
<g id="node19" class="node">
<title>Node19</title>
<g id="a_node19"><a xlink:href="cli__power_8h.html" target="_top" xlink:title=" ">
<polygon fill="white" stroke="#666666" points="879.8,-316 779.8,-316 779.8,-286 879.8,-286 879.8,-316"/>
<text text-anchor="start" x="787.8" y="-304" font-family="Helvetica,sans-Serif" font-size="10.00">cli/peripherals/cli</text>
<text text-anchor="middle" x="829.8" y="-293" font-family="Helvetica,sans-Serif" font-size="10.00">_power.h</text>
</a>
</g>
</g>
<!-- Node17&#45;&gt;Node19 -->
<g id="edge34" class="edge">
<title>Node17&#45;&gt;Node19</title>
<path fill="none" stroke="#63b8ff" d="M660.61,-352.24C689.62,-343.63 735.93,-329.88 772.77,-318.94"/>
<polygon fill="#63b8ff" stroke="#63b8ff" points="773.81,-322.28 782.4,-316.08 771.82,-315.57 773.81,-322.28"/>
</g>
<!-- Node20 -->
<g id="node20" class="node">
<title>Node20</title>
<g id="a_node20"><a xlink:href="sd__card_8h.html" target="_top" xlink:title=" ">
<polygon fill="white" stroke="#666666" points="551.8,-316 451.8,-316 451.8,-286 551.8,-286 551.8,-316"/>
<text text-anchor="start" x="459.8" y="-304" font-family="Helvetica,sans-Serif" font-size="10.00">cli/peripherals/sd</text>
<text text-anchor="middle" x="501.8" y="-293" font-family="Helvetica,sans-Serif" font-size="10.00">_card.h</text>
</a>
</g>
</g>
<!-- Node17&#45;&gt;Node20 -->
<g id="edge40" class="edge">
<title>Node17&#45;&gt;Node20</title>
<path fill="none" stroke="#63b8ff" d="M613.75,-351.99C595.15,-343.68 566.24,-330.78 542.46,-320.16"/>
<polygon fill="#63b8ff" stroke="#63b8ff" points="543.85,-316.95 533.3,-316.06 541,-323.34 543.85,-316.95"/>
</g>
<!-- Node22 -->
<g id="node22" class="node">
<title>Node22</title>
<g id="a_node22"><a xlink:href="acquisition__intervals_8h.html" target="_top" xlink:title="Handles the time between measurements and uplinks by the device over LTE.">
<polygon fill="white" stroke="#666666" points="761.8,-316 607.8,-316 607.8,-286 761.8,-286 761.8,-316"/>
<text text-anchor="start" x="615.8" y="-304" font-family="Helvetica,sans-Serif" font-size="10.00">cli/device_config/acquisition</text>
<text text-anchor="middle" x="684.8" y="-293" font-family="Helvetica,sans-Serif" font-size="10.00">_intervals.h</text>
</a>
</g>
</g>
<!-- Node17&#45;&gt;Node22 -->
<g id="edge43" class="edge">
<title>Node17&#45;&gt;Node22</title>
<path fill="none" stroke="#63b8ff" d="M640.47,-351.87C647.07,-344.44 656.88,-333.42 665.59,-323.62"/>
<polygon fill="#63b8ff" stroke="#63b8ff" points="668.23,-325.91 672.25,-316.11 663,-321.26 668.23,-325.91"/>
</g>
<!-- Node24 -->
<g id="node24" class="node">
<title>Node24</title>
<g id="a_node24"><a xlink:href="mqtt__cli_8h.html" target="_top" xlink:title="MQTT setup and configuration through the CLI.">
<polygon fill="white" stroke="#666666" points="153.8,-316 29.8,-316 29.8,-286 153.8,-286 153.8,-316"/>
<text text-anchor="start" x="37.8" y="-304" font-family="Helvetica,sans-Serif" font-size="10.00">cli/device_config/mqtt</text>
<text text-anchor="middle" x="91.8" y="-293" font-family="Helvetica,sans-Serif" font-size="10.00">_cli.h</text>
</a>
</g>
</g>
<!-- Node17&#45;&gt;Node24 -->
<g id="edge51" class="edge">
<title>Node17&#45;&gt;Node24</title>
<path fill="none" stroke="#63b8ff" d="M605.14,-358.85C533.79,-354.4 337.55,-340.85 164.15,-316.1"/>
<polygon fill="#63b8ff" stroke="#63b8ff" points="164.48,-312.61 154.08,-314.65 163.48,-319.54 164.48,-312.61"/>
</g>
<!-- Node25 -->
<g id="node25" class="node">
<title>Node25</title>
<g id="a_node25"><a xlink:href="ftp__cli_8h.html" target="_top" xlink:title="FTP setup and configuration through the CLI.">
<polygon fill="white" stroke="#666666" points="285.3,-316 172.3,-316 172.3,-286 285.3,-286 285.3,-316"/>
<text text-anchor="start" x="180.3" y="-304" font-family="Helvetica,sans-Serif" font-size="10.00">cli/device_config/ftp</text>
<text text-anchor="middle" x="228.8" y="-293" font-family="Helvetica,sans-Serif" font-size="10.00">_cli.h</text>
</a>
</g>
</g>
<!-- Node17&#45;&gt;Node25 -->
<g id="edge53" class="edge">
<title>Node17&#45;&gt;Node25</title>
<path fill="none" stroke="#63b8ff" d="M605.09,-357.59C548.81,-351.53 416.9,-336.52 295.81,-316.09"/>
<polygon fill="#63b8ff" stroke="#63b8ff" points="296.07,-312.58 285.63,-314.35 294.9,-319.48 296.07,-312.58"/>
</g>
<!-- Node26 -->
<g id="node26" class="node">
<title>Node26</title>
<g id="a_node26"><a xlink:href="config__cli_8h.html" target="_top" xlink:title=" ">
<polygon fill="white" stroke="#666666" points="433.8,-316 303.8,-316 303.8,-286 433.8,-286 433.8,-316"/>
<text text-anchor="start" x="311.8" y="-304" font-family="Helvetica,sans-Serif" font-size="10.00">cli/device_config/config</text>
<text text-anchor="middle" x="368.8" y="-293" font-family="Helvetica,sans-Serif" font-size="10.00">_cli.h</text>
</a>
</g>
</g>
<!-- Node17&#45;&gt;Node26 -->
<g id="edge55" class="edge">
<title>Node17&#45;&gt;Node26</title>
<path fill="none" stroke="#63b8ff" d="M605.05,-354.35C566.66,-345.84 495.99,-330.18 441.9,-318.2"/>
<polygon fill="#63b8ff" stroke="#63b8ff" points="442.53,-314.75 432.01,-316.01 441.02,-321.59 442.53,-314.75"/>
</g>
<!-- Node18&#45;&gt;Node3 -->
<g id="edge27" class="edge">
<title>Node18&#45;&gt;Node3</title>
<path fill="none" stroke="#63b8ff" d="M1069.35,-291.45C1059.39,-289.5 1048.73,-287.55 1038.8,-286 928.07,-268.69 798.39,-255.03 721.61,-247.62"/>
<polygon fill="#63b8ff" stroke="#63b8ff" points="721.89,-244.13 711.6,-246.66 721.22,-251.1 721.89,-244.13"/>
</g>
<!-- Node18&#45;&gt;Node4 -->
<g id="edge28" class="edge">
<title>Node18&#45;&gt;Node4</title>
<path fill="none" stroke="#63b8ff" d="M1080.14,-291.49C1044.56,-281.29 984.78,-264.15 945.32,-252.83"/>
<polygon fill="#63b8ff" stroke="#63b8ff" points="946.08,-249.41 935.5,-250.02 944.15,-256.14 946.08,-249.41"/>
</g>
<!-- Node18&#45;&gt;Node5 -->
<g id="edge29" class="edge">
<title>Node18&#45;&gt;Node5</title>
<path fill="none" stroke="#63b8ff" d="M1066.62,-291.48C1057.44,-289.67 1047.8,-287.77 1038.8,-286 979.71,-274.36 911.92,-261.01 866.13,-252"/>
<polygon fill="#63b8ff" stroke="#63b8ff" points="866.62,-248.52 856.13,-250.03 865.26,-255.39 866.62,-248.52"/>
</g>
<!-- Node18&#45;&gt;Node6 -->
<g id="edge32" class="edge">
<title>Node18&#45;&gt;Node6</title>
<path fill="none" stroke="#63b8ff" d="M1094.75,-291.37C1078.18,-281.86 1051.3,-266.45 1031.81,-255.27"/>
<polygon fill="#63b8ff" stroke="#63b8ff" points="1033.33,-252.11 1022.91,-250.17 1029.85,-258.18 1033.33,-252.11"/>
</g>
<!-- Node18&#45;&gt;Node11 -->
<g id="edge33" class="edge">
<title>Node18&#45;&gt;Node11</title>
<path fill="none" stroke="#63b8ff" d="M1124.41,-291.37C1140.49,-281.86 1166.58,-266.45 1185.5,-255.27"/>
<polygon fill="#63b8ff" stroke="#63b8ff" points="1187.3,-258.27 1194.13,-250.17 1183.74,-252.24 1187.3,-258.27"/>
</g>
<!-- Node18&#45;&gt;Node14 -->
<g id="edge31" class="edge">
<title>Node18&#45;&gt;Node14</title>
<path fill="none" stroke="#63b8ff" d="M1112.43,-291.47C1118.08,-273.15 1131.49,-229.68 1139.16,-204.81"/>
<polygon fill="#63b8ff" stroke="#63b8ff" points="1142.54,-205.72 1142.14,-195.13 1135.85,-203.65 1142.54,-205.72"/>
</g>
<!-- Node18&#45;&gt;Node18 -->
<g id="edge30" class="edge">
<title>Node18&#45;&gt;Node18</title>
<path fill="none" stroke="#63b8ff" d="M1139.34,-310.53C1164.02,-314.61 1189.8,-311.43 1189.8,-301 1189.8,-292 1170.59,-288.4 1149.45,-290.2"/>
<polygon fill="#63b8ff" stroke="#63b8ff" points="1148.83,-286.75 1139.34,-291.47 1149.7,-293.7 1148.83,-286.75"/>
</g>
<!-- Node19&#45;&gt;Node3 -->
<g id="edge35" class="edge">
<title>Node19&#45;&gt;Node3</title>
<path fill="none" stroke="#63b8ff" d="M787.88,-285.99C758.08,-276.02 718.47,-262.78 690.24,-253.35"/>
<polygon fill="#63b8ff" stroke="#63b8ff" points="690.98,-249.9 680.39,-250.05 688.76,-256.54 690.98,-249.9"/>
</g>
<!-- Node19&#45;&gt;Node4 -->
<g id="edge36" class="edge">
<title>Node19&#45;&gt;Node4</title>
<path fill="none" stroke="#63b8ff" d="M848.2,-285.84C859.68,-277 874.45,-265.63 886.16,-256.62"/>
<polygon fill="#63b8ff" stroke="#63b8ff" points="888.62,-259.14 894.41,-250.27 884.35,-253.59 888.62,-259.14"/>
</g>
<!-- Node19&#45;&gt;Node5 -->
<g id="edge37" class="edge">
<title>Node19&#45;&gt;Node5</title>
<path fill="none" stroke="#63b8ff" d="M825.69,-285.84C823.42,-278.04 820.58,-268.27 818.15,-259.89"/>
<polygon fill="#63b8ff" stroke="#63b8ff" points="821.5,-258.89 815.35,-250.27 814.78,-260.85 821.5,-258.89"/>
</g>
<!-- Node19&#45;&gt;Node6 -->
<g id="edge38" class="edge">
<title>Node19&#45;&gt;Node6</title>
<path fill="none" stroke="#63b8ff" d="M872.44,-285.99C902.89,-275.98 943.39,-262.67 972.13,-253.22"/>
<polygon fill="#63b8ff" stroke="#63b8ff" points="973.37,-256.5 981.77,-250.05 971.18,-249.85 973.37,-256.5"/>
</g>
<!-- Node19&#45;&gt;Node7 -->
<g id="edge39" class="edge">
<title>Node19&#45;&gt;Node7</title>
<path fill="none" stroke="#63b8ff" d="M797.42,-285.84C773.25,-273.11 746.51,-253.07 759.8,-231 788,-184.18 948.86,-148.44 1027.09,-133.56"/>
<polygon fill="#63b8ff" stroke="#63b8ff" points="1027.92,-136.97 1037.1,-131.68 1026.63,-130.08 1027.92,-136.97"/>
</g>
<!-- Node20&#45;&gt;Node3 -->
<g id="edge41" class="edge">
<title>Node20&#45;&gt;Node3</title>
<path fill="none" stroke="#63b8ff" d="M538.45,-285.99C564.09,-276.18 598.02,-263.21 622.62,-253.81"/>
<polygon fill="#63b8ff" stroke="#63b8ff" points="624.12,-256.98 632.21,-250.14 621.62,-250.44 624.12,-256.98"/>
</g>
<!-- Node21 -->
<g id="node21" class="node">
<title>Node21</title>
<g id="a_node21"><a xlink:title=" ">
<polygon fill="#e0e0e0" stroke="#999999" points="523.8,-250 479.8,-250 479.8,-231 523.8,-231 523.8,-250"/>
<text text-anchor="middle" x="501.8" y="-238" font-family="Helvetica,sans-Serif" font-size="10.00">string</text>
</a>
</g>
</g>
<!-- Node20&#45;&gt;Node21 -->
<g id="edge42" class="edge">
<title>Node20&#45;&gt;Node21</title>
<path fill="none" stroke="#63b8ff" d="M501.8,-285.84C501.8,-278.21 501.8,-268.7 501.8,-260.45"/>
<polygon fill="#63b8ff" stroke="#63b8ff" points="505.3,-260.27 501.8,-250.27 498.3,-260.27 505.3,-260.27"/>
</g>
<!-- Node22&#45;&gt;Node3 -->
<g id="edge44" class="edge">
<title>Node22&#45;&gt;Node3</title>
<path fill="none" stroke="#63b8ff" d="M677.54,-285.84C673.45,-277.87 668.31,-267.84 663.95,-259.33"/>
<polygon fill="#63b8ff" stroke="#63b8ff" points="666.97,-257.57 659.3,-250.27 660.75,-260.76 666.97,-257.57"/>
</g>
<!-- Node22&#45;&gt;Node4 -->
<g id="edge45" class="edge">
<title>Node22&#45;&gt;Node4</title>
<path fill="none" stroke="#63b8ff" d="M737.74,-285.99C776.79,-275.65 829.15,-261.79 864.99,-252.3"/>
<polygon fill="#63b8ff" stroke="#63b8ff" points="866.32,-255.57 875.09,-249.63 864.52,-248.81 866.32,-255.57"/>
</g>
<!-- Node22&#45;&gt;Node5 -->
<g id="edge46" class="edge">
<title>Node22&#45;&gt;Node5</title>
<path fill="none" stroke="#63b8ff" d="M715.46,-285.99C736.53,-276.36 764.29,-263.67 784.77,-254.31"/>
<polygon fill="#63b8ff" stroke="#63b8ff" points="786.26,-257.48 793.9,-250.14 783.35,-251.11 786.26,-257.48"/>
</g>
<!-- Node22&#45;&gt;Node6 -->
<g id="edge47" class="edge">
<title>Node22&#45;&gt;Node6</title>
<path fill="none" stroke="#63b8ff" d="M762.17,-285.99C820.08,-275.5 898.02,-261.38 950.44,-251.89"/>
<polygon fill="#63b8ff" stroke="#63b8ff" points="951.36,-255.28 960.57,-250.05 950.11,-248.39 951.36,-255.28"/>
</g>
<!-- Node23 -->
<g id="node23" class="node">
<title>Node23</title>
<g id="a_node23"><a xlink:href="_device_config_8h.html" target="_top" xlink:title="Node configuration options.">
<polygon fill="white" stroke="#666666" points="413.8,-250 323.8,-250 323.8,-231 413.8,-231 413.8,-250"/>
<text text-anchor="middle" x="368.8" y="-238" font-family="Helvetica,sans-Serif" font-size="10.00">DeviceConfig.h</text>
</a>
</g>
</g>
<!-- Node22&#45;&gt;Node23 -->
<g id="edge48" class="edge">
<title>Node22&#45;&gt;Node23</title>
<path fill="none" stroke="#63b8ff" d="M609.11,-285.99C552.11,-275.44 475.28,-261.21 423.99,-251.72"/>
<polygon fill="#63b8ff" stroke="#63b8ff" points="424.56,-248.26 414.09,-249.88 423.28,-255.15 424.56,-248.26"/>
</g>
<!-- Node23&#45;&gt;Node10 -->
<g id="edge49" class="edge">
<title>Node23&#45;&gt;Node10</title>
<path fill="none" stroke="#63b8ff" d="M368.8,-230.8C368.8,-197.36 368.8,-76.59 368.8,-29.49"/>
<polygon fill="#63b8ff" stroke="#63b8ff" points="372.3,-29.21 368.8,-19.21 365.3,-29.21 372.3,-29.21"/>
</g>
<!-- Node23&#45;&gt;Node13 -->
<g id="edge50" class="edge">
<title>Node23&#45;&gt;Node13</title>
<path fill="none" stroke="#63b8ff" d="M413.86,-235.12C514.19,-225.36 755.5,-201.89 861.9,-191.55"/>
<polygon fill="#63b8ff" stroke="#63b8ff" points="862.46,-195.01 872.07,-190.56 861.78,-188.04 862.46,-195.01"/>
</g>
<!-- Node24&#45;&gt;Node23 -->
<g id="edge52" class="edge">
<title>Node24&#45;&gt;Node23</title>
<path fill="none" stroke="#63b8ff" d="M153.97,-286.87C203.6,-276.39 272.26,-261.89 318.48,-252.13"/>
<polygon fill="#63b8ff" stroke="#63b8ff" points="319.21,-255.55 328.28,-250.06 317.77,-248.7 319.21,-255.55"/>
</g>
<!-- Node25&#45;&gt;Node23 -->
<g id="edge54" class="edge">
<title>Node25&#45;&gt;Node23</title>
<path fill="none" stroke="#63b8ff" d="M262.33,-285.99C285.59,-276.27 316.29,-263.44 338.75,-254.06"/>
<polygon fill="#63b8ff" stroke="#63b8ff" points="340.25,-257.22 348.13,-250.14 337.55,-250.77 340.25,-257.22"/>
</g>
<!-- Node26&#45;&gt;Node23 -->
<g id="edge56" class="edge">
<title>Node26&#45;&gt;Node23</title>
<path fill="none" stroke="#63b8ff" d="M368.8,-285.84C368.8,-278.21 368.8,-268.7 368.8,-260.45"/>
<polygon fill="#63b8ff" stroke="#63b8ff" points="372.3,-260.27 368.8,-250.27 365.3,-260.27 372.3,-260.27"/>
</g>
</g>
</svg>
