<?xml version="1.0" encoding="UTF-8" standalone="no"?>
<!DOCTYPE svg PUBLIC "-//W3C//DTD SVG 1.1//EN"
 "http://www.w3.org/Graphics/SVG/1.1/DTD/svg11.dtd">
<!-- Generated by graphviz version 2.43.0 (0)
 -->
<!-- Title: firmware/wombat/src/cli/peripherals/cat&#45;m1.cpp Pages: 1 -->
<svg width="1474pt" height="335pt"
 viewBox="0.00 0.00 1473.67 335.00" xmlns="http://www.w3.org/2000/svg" xmlns:xlink="http://www.w3.org/1999/xlink">
<g id="graph0" class="graph" transform="scale(1 1) rotate(0) translate(4 331)">
<title>firmware/wombat/src/cli/peripherals/cat&#45;m1.cpp</title>
<!-- Node1 -->
<g id="node1" class="node">
<title>Node1</title>
<g id="a_node1"><a xlink:title="CAT&#45;M1 CLI command request and response handler.">
<polygon fill="#999999" stroke="#666666" points="1333.94,-327 1213.94,-327 1213.94,-286 1333.94,-286 1333.94,-327"/>
<text text-anchor="start" x="1221.94" y="-315" font-family="Helvetica,sans-Serif" font-size="10.00">firmware/wombat/src</text>
<text text-anchor="start" x="1221.94" y="-304" font-family="Helvetica,sans-Serif" font-size="10.00">/cli/peripherals/cat</text>
<text text-anchor="middle" x="1273.94" y="-293" font-family="Helvetica,sans-Serif" font-size="10.00">&#45;m1.cpp</text>
</a>
</g>
</g>
<!-- Node2 -->
<g id="node2" class="node">
<title>Node2</title>
<g id="a_node2"><a xlink:href="cat-m1_8h.html" target="_top" xlink:title="CAT&#45;M1 CLI command request and response handler.">
<polygon fill="white" stroke="#666666" points="1226.94,-189.5 1094.94,-189.5 1094.94,-170.5 1226.94,-170.5 1226.94,-189.5"/>
<text text-anchor="middle" x="1160.94" y="-177.5" font-family="Helvetica,sans-Serif" font-size="10.00">cli/peripherals/cat&#45;m1.h</text>
</a>
</g>
</g>
<!-- Node1&#45;&gt;Node2 -->
<g id="edge1" class="edge">
<title>Node1&#45;&gt;Node2</title>
<path fill="none" stroke="#63b8ff" d="M1256.04,-285.77C1233.75,-261.22 1196.13,-219.78 1175.52,-197.07"/>
<polygon fill="#63b8ff" stroke="#63b8ff" points="1178.07,-194.67 1168.76,-189.61 1172.89,-199.37 1178.07,-194.67"/>
</g>
<!-- Node7 -->
<g id="node7" class="node">
<title>Node7</title>
<g id="a_node7"><a xlink:href="_c_a_t___m1_8h.html" target="_top" xlink:title=" ">
<polygon fill="white" stroke="#666666" points="1256.44,-129 1191.44,-129 1191.44,-110 1256.44,-110 1256.44,-129"/>
<text text-anchor="middle" x="1223.94" y="-117" font-family="Helvetica,sans-Serif" font-size="10.00">CAT_M1.h</text>
</a>
</g>
</g>
<!-- Node1&#45;&gt;Node7 -->
<g id="edge11" class="edge">
<title>Node1&#45;&gt;Node7</title>
<path fill="none" stroke="#63b8ff" d="M1277.62,-285.87C1281.94,-257.76 1286.49,-205.01 1268.94,-165 1263.87,-153.44 1254.3,-143.3 1245.28,-135.63"/>
<polygon fill="#63b8ff" stroke="#63b8ff" points="1247.31,-132.77 1237.29,-129.31 1242.96,-138.26 1247.31,-132.77"/>
</g>
<!-- Node11 -->
<g id="node11" class="node">
<title>Node11</title>
<g id="a_node11"><a xlink:href="_utils_8h.html" target="_top" xlink:title=" ">
<polygon fill="white" stroke="#666666" points="1139.94,-129 1091.94,-129 1091.94,-110 1139.94,-110 1139.94,-129"/>
<text text-anchor="middle" x="1115.94" y="-117" font-family="Helvetica,sans-Serif" font-size="10.00">Utils.h</text>
</a>
</g>
</g>
<!-- Node1&#45;&gt;Node11 -->
<g id="edge12" class="edge">
<title>Node1&#45;&gt;Node11</title>
<path fill="none" stroke="#63b8ff" d="M1274.02,-285.58C1273.07,-255.65 1266.95,-198.96 1235.94,-165 1213.85,-140.81 1177.41,-129.72 1150.47,-124.67"/>
<polygon fill="#63b8ff" stroke="#63b8ff" points="1150.74,-121.17 1140.3,-122.96 1149.58,-128.07 1150.74,-121.17"/>
</g>
<!-- Node15 -->
<g id="node15" class="node">
<title>Node15</title>
<g id="a_node15"><a xlink:title=" ">
<polygon fill="#e0e0e0" stroke="#999999" points="1450.94,-195 1320.94,-195 1320.94,-165 1450.94,-165 1450.94,-195"/>
<text text-anchor="start" x="1328.94" y="-183" font-family="Helvetica,sans-Serif" font-size="10.00">SparkFun_u&#45;blox_SARA</text>
<text text-anchor="middle" x="1385.94" y="-172" font-family="Helvetica,sans-Serif" font-size="10.00">&#45;R5_Arduino_Library.h</text>
</a>
</g>
</g>
<!-- Node1&#45;&gt;Node15 -->
<g id="edge16" class="edge">
<title>Node1&#45;&gt;Node15</title>
<path fill="none" stroke="#63b8ff" d="M1291.69,-285.77C1311.99,-263.2 1345.15,-226.34 1366.24,-202.9"/>
<polygon fill="#63b8ff" stroke="#63b8ff" points="1369.07,-204.99 1373.15,-195.21 1363.86,-200.31 1369.07,-204.99"/>
</g>
<!-- Node16 -->
<g id="node16" class="node">
<title>Node16</title>
<g id="a_node16"><a xlink:href="globals_8h.html" target="_top" xlink:title=" ">
<polygon fill="white" stroke="#666666" points="1420.44,-250 1359.44,-250 1359.44,-231 1420.44,-231 1420.44,-250"/>
<text text-anchor="middle" x="1389.94" y="-238" font-family="Helvetica,sans-Serif" font-size="10.00">globals.h</text>
</a>
</g>
</g>
<!-- Node1&#45;&gt;Node16 -->
<g id="edge17" class="edge">
<title>Node1&#45;&gt;Node16</title>
<path fill="none" stroke="#63b8ff" d="M1309.37,-285.95C1327.53,-275.93 1349.18,-263.99 1365.47,-255"/>
<polygon fill="#63b8ff" stroke="#63b8ff" points="1367.3,-257.99 1374.37,-250.09 1363.92,-251.86 1367.3,-257.99"/>
</g>
<!-- Node17 -->
<g id="node17" class="node">
<title>Node17</title>
<g id="a_node17"><a xlink:href="_c_l_i_8h.html" target="_top" xlink:title="FreeRTOS CLI handler.">
<polygon fill="white" stroke="#666666" points="659.44,-250 604.44,-250 604.44,-231 659.44,-231 659.44,-250"/>
<text text-anchor="middle" x="631.94" y="-238" font-family="Helvetica,sans-Serif" font-size="10.00">cli/CLI.h</text>
</a>
</g>
</g>
<!-- Node1&#45;&gt;Node17 -->
<g id="edge20" class="edge">
<title>Node1&#45;&gt;Node17</title>
<path fill="none" stroke="#63b8ff" d="M1213.83,-299.51C1083.21,-286.49 776.62,-255.92 669.6,-245.25"/>
<polygon fill="#63b8ff" stroke="#63b8ff" points="669.88,-241.77 659.59,-244.26 669.19,-248.73 669.88,-241.77"/>
</g>
<!-- Node3 -->
<g id="node3" class="node">
<title>Node3</title>
<g id="a_node3"><a xlink:title=" ">
<polygon fill="#e0e0e0" stroke="#999999" points="723.44,-129 610.44,-129 610.44,-110 723.44,-110 723.44,-129"/>
<text text-anchor="middle" x="666.94" y="-117" font-family="Helvetica,sans-Serif" font-size="10.00">freertos/FreeRTOS.h</text>
</a>
</g>
</g>
<!-- Node2&#45;&gt;Node3 -->
<g id="edge2" class="edge">
<title>Node2&#45;&gt;Node3</title>
<path fill="none" stroke="#63b8ff" d="M1118.6,-170.49C1107.96,-168.52 1096.56,-166.55 1085.94,-165 962.08,-146.89 816.6,-133.11 733.74,-125.96"/>
<polygon fill="#63b8ff" stroke="#63b8ff" points="733.97,-122.47 723.71,-125.1 733.37,-129.44 733.97,-122.47"/>
</g>
<!-- Node4 -->
<g id="node4" class="node">
<title>Node4</title>
<g id="a_node4"><a xlink:title=" ">
<polygon fill="#e0e0e0" stroke="#999999" points="1073.44,-129 1012.44,-129 1012.44,-110 1073.44,-110 1073.44,-129"/>
<text text-anchor="middle" x="1042.94" y="-117" font-family="Helvetica,sans-Serif" font-size="10.00">Stream.h</text>
</a>
</g>
</g>
<!-- Node2&#45;&gt;Node4 -->
<g id="edge3" class="edge">
<title>Node2&#45;&gt;Node4</title>
<path fill="none" stroke="#63b8ff" d="M1143.78,-170.49C1124.21,-160.79 1091.97,-144.81 1069.22,-133.53"/>
<polygon fill="#63b8ff" stroke="#63b8ff" points="1070.63,-130.32 1060.12,-129.02 1067.52,-136.59 1070.63,-130.32"/>
</g>
<!-- Node5 -->
<g id="node5" class="node">
<title>Node5</title>
<g id="a_node5"><a xlink:title=" ">
<polygon fill="#e0e0e0" stroke="#999999" points="994.44,-129 905.44,-129 905.44,-110 994.44,-110 994.44,-129"/>
<text text-anchor="middle" x="949.94" y="-117" font-family="Helvetica,sans-Serif" font-size="10.00">StreamString.h</text>
</a>
</g>
</g>
<!-- Node2&#45;&gt;Node5 -->
<g id="edge4" class="edge">
<title>Node2&#45;&gt;Node5</title>
<path fill="none" stroke="#63b8ff" d="M1130.26,-170.49C1093.38,-160.27 1031.37,-143.08 990.55,-131.76"/>
<polygon fill="#63b8ff" stroke="#63b8ff" points="991.23,-128.32 980.66,-129.02 989.36,-135.06 991.23,-128.32"/>
</g>
<!-- Node6 -->
<g id="node6" class="node">
<title>Node6</title>
<g id="a_node6"><a xlink:title=" ">
<polygon fill="#e0e0e0" stroke="#999999" points="887.44,-129 780.44,-129 780.44,-110 887.44,-110 887.44,-129"/>
<text text-anchor="middle" x="833.94" y="-117" font-family="Helvetica,sans-Serif" font-size="10.00">cli/FreeRTOS_CLI.h</text>
</a>
</g>
</g>
<!-- Node2&#45;&gt;Node6 -->
<g id="edge5" class="edge">
<title>Node2&#45;&gt;Node6</title>
<path fill="none" stroke="#63b8ff" d="M1115.74,-170.49C1105.92,-168.66 1095.58,-166.75 1085.94,-165 1019.96,-153.02 944.18,-139.69 893.1,-130.78"/>
<polygon fill="#63b8ff" stroke="#63b8ff" points="893.67,-127.33 883.22,-129.06 892.47,-134.22 893.67,-127.33"/>
</g>
<!-- Node2&#45;&gt;Node7 -->
<g id="edge6" class="edge">
<title>Node2&#45;&gt;Node7</title>
<path fill="none" stroke="#63b8ff" d="M1170.24,-170.37C1179.91,-161.38 1195.28,-147.11 1207.1,-136.14"/>
<polygon fill="#63b8ff" stroke="#63b8ff" points="1209.66,-138.54 1214.61,-129.17 1204.9,-133.41 1209.66,-138.54"/>
</g>
<!-- Node8 -->
<g id="node8" class="node">
<title>Node8</title>
<g id="a_node8"><a xlink:title=" ">
<polygon fill="#e0e0e0" stroke="#999999" points="1233.94,-19 1185.94,-19 1185.94,0 1233.94,0 1233.94,-19"/>
<text text-anchor="middle" x="1209.94" y="-7" font-family="Helvetica,sans-Serif" font-size="10.00">Wire.h</text>
</a>
</g>
</g>
<!-- Node7&#45;&gt;Node8 -->
<g id="edge7" class="edge">
<title>Node7&#45;&gt;Node8</title>
<path fill="none" stroke="#63b8ff" d="M1224.3,-109.82C1224.67,-97.53 1224.83,-74.42 1221.94,-55 1220.65,-46.29 1218.25,-36.85 1215.94,-28.92"/>
<polygon fill="#63b8ff" stroke="#63b8ff" points="1219.24,-27.76 1212.94,-19.24 1212.55,-29.83 1219.24,-27.76"/>
</g>
<!-- Node9 -->
<g id="node9" class="node">
<title>Node9</title>
<g id="a_node9"><a xlink:href="_t_c_a9534_8h.html" target="_top" xlink:title=" ">
<polygon fill="white" stroke="#666666" points="1212.94,-74 1144.94,-74 1144.94,-55 1212.94,-55 1212.94,-74"/>
<text text-anchor="middle" x="1178.94" y="-62" font-family="Helvetica,sans-Serif" font-size="10.00">TCA9534.h</text>
</a>
</g>
</g>
<!-- Node7&#45;&gt;Node9 -->
<g id="edge8" class="edge">
<title>Node7&#45;&gt;Node9</title>
<path fill="none" stroke="#63b8ff" d="M1216.51,-109.75C1210.09,-102.18 1200.64,-91.05 1192.82,-81.84"/>
<polygon fill="#63b8ff" stroke="#63b8ff" points="1195.37,-79.45 1186.23,-74.09 1190.04,-83.98 1195.37,-79.45"/>
</g>
<!-- Node9&#45;&gt;Node8 -->
<g id="edge10" class="edge">
<title>Node9&#45;&gt;Node8</title>
<path fill="none" stroke="#63b8ff" d="M1184.06,-54.75C1188.3,-47.49 1194.47,-36.95 1199.72,-27.98"/>
<polygon fill="#63b8ff" stroke="#63b8ff" points="1202.89,-29.49 1204.92,-19.09 1196.85,-25.95 1202.89,-29.49"/>
</g>
<!-- Node10 -->
<g id="node10" class="node">
<title>Node10</title>
<g id="a_node10"><a xlink:title=" ">
<polygon fill="#e0e0e0" stroke="#999999" points="402.44,-19 339.44,-19 339.44,0 402.44,0 402.44,-19"/>
<text text-anchor="middle" x="370.94" y="-7" font-family="Helvetica,sans-Serif" font-size="10.00">Arduino.h</text>
</a>
</g>
</g>
<!-- Node9&#45;&gt;Node10 -->
<g id="edge9" class="edge">
<title>Node9&#45;&gt;Node10</title>
<path fill="none" stroke="#63b8ff" d="M1144.74,-56.3C1141.77,-55.81 1138.81,-55.37 1135.94,-55 861.75,-20.09 528.74,-12.53 412.98,-10.93"/>
<polygon fill="#63b8ff" stroke="#63b8ff" points="412.83,-7.42 402.78,-10.79 412.74,-14.42 412.83,-7.42"/>
</g>
<!-- Node12 -->
<g id="node12" class="node">
<title>Node12</title>
<g id="a_node12"><a xlink:title=" ">
<polygon fill="#e0e0e0" stroke="#999999" points="1126.94,-74 1070.94,-74 1070.94,-55 1126.94,-55 1126.94,-74"/>
<text text-anchor="middle" x="1098.94" y="-62" font-family="Helvetica,sans-Serif" font-size="10.00">stddef.h</text>
</a>
</g>
</g>
<!-- Node11&#45;&gt;Node12 -->
<g id="edge13" class="edge">
<title>Node11&#45;&gt;Node12</title>
<path fill="none" stroke="#63b8ff" d="M1113.13,-109.75C1110.88,-102.72 1107.64,-92.62 1104.83,-83.84"/>
<polygon fill="#63b8ff" stroke="#63b8ff" points="1108.08,-82.54 1101.7,-74.09 1101.42,-84.68 1108.08,-82.54"/>
</g>
<!-- Node13 -->
<g id="node13" class="node">
<title>Node13</title>
<g id="a_node13"><a xlink:title=" ">
<polygon fill="#e0e0e0" stroke="#999999" points="720.44,-74 637.44,-74 637.44,-55 720.44,-55 720.44,-74"/>
<text text-anchor="middle" x="678.94" y="-62" font-family="Helvetica,sans-Serif" font-size="10.00">ArduinoJson.h</text>
</a>
</g>
</g>
<!-- Node11&#45;&gt;Node13 -->
<g id="edge14" class="edge">
<title>Node11&#45;&gt;Node13</title>
<path fill="none" stroke="#63b8ff" d="M1091.88,-111.88C1088.88,-111.18 1085.85,-110.53 1082.94,-110 957.65,-87.08 808.18,-74.36 730.93,-68.85"/>
<polygon fill="#63b8ff" stroke="#63b8ff" points="730.74,-65.33 720.52,-68.12 730.25,-72.31 730.74,-65.33"/>
</g>
<!-- Node14 -->
<g id="node14" class="node">
<title>Node14</title>
<g id="a_node14"><a xlink:title=" ">
<polygon fill="#e0e0e0" stroke="#999999" points="925.44,-74 832.44,-74 832.44,-55 925.44,-55 925.44,-74"/>
<text text-anchor="middle" x="878.94" y="-62" font-family="Helvetica,sans-Serif" font-size="10.00">dpiclimate&#45;12.h</text>
</a>
</g>
</g>
<!-- Node11&#45;&gt;Node14 -->
<g id="edge15" class="edge">
<title>Node11&#45;&gt;Node14</title>
<path fill="none" stroke="#63b8ff" d="M1091.82,-112.18C1088.83,-111.43 1085.82,-110.68 1082.94,-110 1030.98,-97.64 971.25,-84.77 929.91,-76.07"/>
<polygon fill="#63b8ff" stroke="#63b8ff" points="930.58,-72.63 920.07,-74 929.14,-79.48 930.58,-72.63"/>
</g>
<!-- Node16&#45;&gt;Node7 -->
<g id="edge19" class="edge">
<title>Node16&#45;&gt;Node7</title>
<path fill="none" stroke="#63b8ff" d="M1414.75,-230.95C1430.78,-223.99 1450.37,-212.42 1459.94,-195 1466.36,-183.31 1468.45,-175.26 1459.94,-165 1435.85,-135.95 1327.82,-125.73 1266.61,-122.24"/>
<polygon fill="#63b8ff" stroke="#63b8ff" points="1266.66,-118.74 1256.48,-121.7 1266.28,-125.73 1266.66,-118.74"/>
</g>
<!-- Node16&#45;&gt;Node15 -->
<g id="edge18" class="edge">
<title>Node16&#45;&gt;Node15</title>
<path fill="none" stroke="#63b8ff" d="M1389.35,-230.87C1388.89,-224.11 1388.22,-214.35 1387.6,-205.26"/>
<polygon fill="#63b8ff" stroke="#63b8ff" points="1391.08,-204.85 1386.91,-195.11 1384.1,-205.33 1391.08,-204.85"/>
</g>
<!-- Node17&#45;&gt;Node2 -->
<g id="edge24" class="edge">
<title>Node17&#45;&gt;Node2</title>
<path fill="none" stroke="#63b8ff" d="M659.68,-237.62C730.77,-232.63 925.2,-217.84 1085.94,-195 1093.33,-193.95 1101.09,-192.69 1108.71,-191.35"/>
<polygon fill="#63b8ff" stroke="#63b8ff" points="1109.39,-194.79 1118.61,-189.57 1108.14,-187.9 1109.39,-194.79"/>
</g>
<!-- Node17&#45;&gt;Node3 -->
<g id="edge22" class="edge">
<title>Node17&#45;&gt;Node3</title>
<path fill="none" stroke="#63b8ff" d="M622.41,-230.59C608.46,-216.41 585.42,-187.97 597.94,-165 605.59,-150.97 619.77,-140.69 633.3,-133.57"/>
<polygon fill="#63b8ff" stroke="#63b8ff" points="634.99,-136.64 642.48,-129.14 631.95,-130.34 634.99,-136.64"/>
</g>
<!-- Node17&#45;&gt;Node6 -->
<g id="edge23" class="edge">
<title>Node17&#45;&gt;Node6</title>
<path fill="none" stroke="#63b8ff" d="M659.55,-235.19C688.88,-229.61 735.66,-217.78 769.94,-195 792.5,-180.01 811.7,-154.94 823.03,-138.07"/>
<polygon fill="#63b8ff" stroke="#63b8ff" points="826.26,-139.52 828.75,-129.23 820.38,-135.72 826.26,-139.52"/>
</g>
<!-- Node17&#45;&gt;Node10 -->
<g id="edge21" class="edge">
<title>Node17&#45;&gt;Node10</title>
<path fill="none" stroke="#63b8ff" d="M604.17,-239.65C489.9,-239.96 60.16,-238.25 19.94,-195 -77.92,-89.77 217.16,-33.48 329.45,-16.28"/>
<polygon fill="#63b8ff" stroke="#63b8ff" points="330.05,-19.73 339.42,-14.79 329.01,-12.81 330.05,-19.73"/>
</g>
<!-- Node18 -->
<g id="node18" class="node">
<title>Node18</title>
<g id="a_node18"><a xlink:href="sdi12_8h.html" target="_top" xlink:title="SDI&#45;12 command line interface handler.">
<polygon fill="white" stroke="#666666" points="940.94,-189.5 816.94,-189.5 816.94,-170.5 940.94,-170.5 940.94,-189.5"/>
<text text-anchor="middle" x="878.94" y="-177.5" font-family="Helvetica,sans-Serif" font-size="10.00">cli/peripherals/sdi12.h</text>
</a>
</g>
</g>
<!-- Node17&#45;&gt;Node18 -->
<g id="edge25" class="edge">
<title>Node17&#45;&gt;Node18</title>
<path fill="none" stroke="#63b8ff" d="M659.79,-232.9C701.9,-222.93 782.23,-203.9 833.06,-191.87"/>
<polygon fill="#63b8ff" stroke="#63b8ff" points="833.89,-195.27 842.81,-189.56 832.28,-188.46 833.89,-195.27"/>
</g>
<!-- Node19 -->
<g id="node19" class="node">
<title>Node19</title>
<g id="a_node19"><a xlink:href="cli__power_8h.html" target="_top" xlink:title=" ">
<polygon fill="white" stroke="#666666" points="1076.94,-195 976.94,-195 976.94,-165 1076.94,-165 1076.94,-195"/>
<text text-anchor="start" x="984.94" y="-183" font-family="Helvetica,sans-Serif" font-size="10.00">cli/peripherals/cli</text>
<text text-anchor="middle" x="1026.94" y="-172" font-family="Helvetica,sans-Serif" font-size="10.00">_power.h</text>
</a>
</g>
</g>
<!-- Node17&#45;&gt;Node19 -->
<g id="edge33" class="edge">
<title>Node17&#45;&gt;Node19</title>
<path fill="none" stroke="#63b8ff" d="M659.53,-236.8C715.55,-231.12 846.79,-216.78 966.72,-195.11"/>
<polygon fill="#63b8ff" stroke="#63b8ff" points="967.6,-198.5 976.8,-193.26 966.34,-191.62 967.6,-198.5"/>
</g>
<!-- Node20 -->
<g id="node20" class="node">
<title>Node20</title>
<g id="a_node20"><a xlink:href="sd__card_8h.html" target="_top" xlink:title=" ">
<polygon fill="white" stroke="#666666" points="550.94,-195 450.94,-195 450.94,-165 550.94,-165 550.94,-195"/>
<text text-anchor="start" x="458.94" y="-183" font-family="Helvetica,sans-Serif" font-size="10.00">cli/peripherals/sd</text>
<text text-anchor="middle" x="500.94" y="-172" font-family="Helvetica,sans-Serif" font-size="10.00">_card.h</text>
</a>
</g>
</g>
<!-- Node17&#45;&gt;Node20 -->
<g id="edge39" class="edge">
<title>Node17&#45;&gt;Node20</title>
<path fill="none" stroke="#63b8ff" d="M612.89,-230.99C594.29,-222.68 565.38,-209.78 541.6,-199.16"/>
<polygon fill="#63b8ff" stroke="#63b8ff" points="542.99,-195.95 532.44,-195.06 540.14,-202.34 542.99,-195.95"/>
</g>
<!-- Node22 -->
<g id="node22" class="node">
<title>Node22</title>
<g id="a_node22"><a xlink:href="acquisition__intervals_8h.html" target="_top" xlink:title="Handles the time between measurements and uplinks by the device over LTE.">
<polygon fill="white" stroke="#666666" points="760.94,-195 606.94,-195 606.94,-165 760.94,-165 760.94,-195"/>
<text text-anchor="start" x="614.94" y="-183" font-family="Helvetica,sans-Serif" font-size="10.00">cli/device_config/acquisition</text>
<text text-anchor="middle" x="683.94" y="-172" font-family="Helvetica,sans-Serif" font-size="10.00">_intervals.h</text>
</a>
</g>
</g>
<!-- Node17&#45;&gt;Node22 -->
<g id="edge42" class="edge">
<title>Node17&#45;&gt;Node22</title>
<path fill="none" stroke="#63b8ff" d="M639.61,-230.87C646.21,-223.44 656.01,-212.42 664.73,-202.62"/>
<polygon fill="#63b8ff" stroke="#63b8ff" points="667.37,-204.91 671.39,-195.11 662.13,-200.26 667.37,-204.91"/>
</g>
<!-- Node24 -->
<g id="node24" class="node">
<title>Node24</title>
<g id="a_node24"><a xlink:href="mqtt__cli_8h.html" target="_top" xlink:title="MQTT setup and configuration through the CLI.">
<polygon fill="white" stroke="#666666" points="432.94,-195 308.94,-195 308.94,-165 432.94,-165 432.94,-195"/>
<text text-anchor="start" x="316.94" y="-183" font-family="Helvetica,sans-Serif" font-size="10.00">cli/device_config/mqtt</text>
<text text-anchor="middle" x="370.94" y="-172" font-family="Helvetica,sans-Serif" font-size="10.00">_cli.h</text>
</a>
</g>
</g>
<!-- Node17&#45;&gt;Node24 -->
<g id="edge50" class="edge">
<title>Node17&#45;&gt;Node24</title>
<path fill="none" stroke="#63b8ff" d="M604.01,-233.24C565.96,-224.71 496.48,-209.14 443.24,-197.21"/>
<polygon fill="#63b8ff" stroke="#63b8ff" points="443.69,-193.72 433.17,-194.95 442.16,-200.55 443.69,-193.72"/>
</g>
<!-- Node25 -->
<g id="node25" class="node">
<title>Node25</title>
<g id="a_node25"><a xlink:href="ftp__cli_8h.html" target="_top" xlink:title="FTP setup and configuration through the CLI.">
<polygon fill="white" stroke="#666666" points="142.44,-195 29.44,-195 29.44,-165 142.44,-165 142.44,-195"/>
<text text-anchor="start" x="37.44" y="-183" font-family="Helvetica,sans-Serif" font-size="10.00">cli/device_config/ftp</text>
<text text-anchor="middle" x="85.94" y="-172" font-family="Helvetica,sans-Serif" font-size="10.00">_cli.h</text>
</a>
</g>
</g>
<!-- Node17&#45;&gt;Node25 -->
<g id="edge52" class="edge">
<title>Node17&#45;&gt;Node25</title>
<path fill="none" stroke="#63b8ff" d="M604.21,-238.06C531.71,-234.07 330.46,-221.43 152.8,-195"/>
<polygon fill="#63b8ff" stroke="#63b8ff" points="153.16,-191.52 142.75,-193.49 152.11,-198.44 153.16,-191.52"/>
</g>
<!-- Node26 -->
<g id="node26" class="node">
<title>Node26</title>
<g id="a_node26"><a xlink:href="config__cli_8h.html" target="_top" xlink:title=" ">
<polygon fill="white" stroke="#666666" points="290.94,-195 160.94,-195 160.94,-165 290.94,-165 290.94,-195"/>
<text text-anchor="start" x="168.94" y="-183" font-family="Helvetica,sans-Serif" font-size="10.00">cli/device_config/config</text>
<text text-anchor="middle" x="225.94" y="-172" font-family="Helvetica,sans-Serif" font-size="10.00">_cli.h</text>
</a>
</g>
</g>
<!-- Node17&#45;&gt;Node26 -->
<g id="edge54" class="edge">
<title>Node17&#45;&gt;Node26</title>
<path fill="none" stroke="#63b8ff" d="M604.32,-236.31C548.86,-229.79 419.78,-214.06 301.25,-195.16"/>
<polygon fill="#63b8ff" stroke="#63b8ff" points="301.71,-191.69 291.28,-193.56 300.6,-198.6 301.71,-191.69"/>
</g>
<!-- Node18&#45;&gt;Node3 -->
<g id="edge26" class="edge">
<title>Node18&#45;&gt;Node3</title>
<path fill="none" stroke="#63b8ff" d="M848.11,-170.49C810.98,-160.25 748.49,-143 707.48,-131.69"/>
<polygon fill="#63b8ff" stroke="#63b8ff" points="708.38,-128.3 697.8,-129.02 706.51,-135.05 708.38,-128.3"/>
</g>
<!-- Node18&#45;&gt;Node4 -->
<g id="edge27" class="edge">
<title>Node18&#45;&gt;Node4</title>
<path fill="none" stroke="#63b8ff" d="M902.79,-170.49C930.84,-160.49 977.61,-143.8 1009.34,-132.49"/>
<polygon fill="#63b8ff" stroke="#63b8ff" points="1010.82,-135.67 1019.06,-129.02 1008.47,-129.08 1010.82,-135.67"/>
</g>
<!-- Node18&#45;&gt;Node5 -->
<g id="edge28" class="edge">
<title>Node18&#45;&gt;Node5</title>
<path fill="none" stroke="#63b8ff" d="M889.42,-170.37C900.43,-161.3 917.98,-146.84 931.35,-135.82"/>
<polygon fill="#63b8ff" stroke="#63b8ff" points="933.93,-138.23 939.42,-129.17 929.48,-132.83 933.93,-138.23"/>
</g>
<!-- Node18&#45;&gt;Node6 -->
<g id="edge31" class="edge">
<title>Node18&#45;&gt;Node6</title>
<path fill="none" stroke="#63b8ff" d="M872.3,-170.37C865.65,-161.73 855.25,-148.2 846.95,-137.42"/>
<polygon fill="#63b8ff" stroke="#63b8ff" points="849.48,-134.96 840.61,-129.17 843.93,-139.23 849.48,-134.96"/>
</g>
<!-- Node18&#45;&gt;Node11 -->
<g id="edge32" class="edge">
<title>Node18&#45;&gt;Node11</title>
<path fill="none" stroke="#63b8ff" d="M914.35,-170.45C953.08,-161.08 1017.23,-145.46 1081.85,-129.25"/>
<polygon fill="#63b8ff" stroke="#63b8ff" points="1082.95,-132.58 1091.8,-126.75 1081.25,-125.8 1082.95,-132.58"/>
</g>
<!-- Node18&#45;&gt;Node14 -->
<g id="edge30" class="edge">
<title>Node18&#45;&gt;Node14</title>
<path fill="none" stroke="#63b8ff" d="M839.97,-170.45C801.7,-160.11 751.76,-140.25 771.94,-110 783.5,-92.68 803.2,-82.09 822.58,-75.62"/>
<polygon fill="#63b8ff" stroke="#63b8ff" points="823.76,-78.92 832.33,-72.68 821.74,-72.21 823.76,-78.92"/>
</g>
<!-- Node18&#45;&gt;Node18 -->
<g id="edge29" class="edge">
<title>Node18&#45;&gt;Node18</title>
<path fill="none" stroke="#63b8ff" d="M908.48,-189.53C933.16,-193.61 958.94,-190.43 958.94,-180 958.94,-171 939.72,-167.4 918.59,-169.2"/>
<polygon fill="#63b8ff" stroke="#63b8ff" points="917.97,-165.75 908.48,-170.47 918.84,-172.7 917.97,-165.75"/>
</g>
<!-- Node19&#45;&gt;Node3 -->
<g id="edge34" class="edge">
<title>Node19&#45;&gt;Node3</title>
<path fill="none" stroke="#63b8ff" d="M976.79,-166.79C973.8,-166.16 970.84,-165.56 967.94,-165 887.89,-149.61 794.97,-136.61 733.78,-128.7"/>
<polygon fill="#63b8ff" stroke="#63b8ff" points="733.86,-125.18 723.49,-127.38 732.97,-132.13 733.86,-125.18"/>
</g>
<!-- Node19&#45;&gt;Node4 -->
<g id="edge35" class="edge">
<title>Node19&#45;&gt;Node4</title>
<path fill="none" stroke="#63b8ff" d="M1030.81,-164.84C1032.92,-157.13 1035.56,-147.49 1037.83,-139.17"/>
<polygon fill="#63b8ff" stroke="#63b8ff" points="1041.28,-139.84 1040.54,-129.27 1034.53,-137.99 1041.28,-139.84"/>
</g>
<!-- Node19&#45;&gt;Node5 -->
<g id="edge36" class="edge">
<title>Node19&#45;&gt;Node5</title>
<path fill="none" stroke="#63b8ff" d="M1008.3,-164.84C996.55,-155.91 981.41,-144.41 969.49,-135.35"/>
<polygon fill="#63b8ff" stroke="#63b8ff" points="971.56,-132.53 961.48,-129.27 967.32,-138.1 971.56,-132.53"/>
</g>
<!-- Node19&#45;&gt;Node6 -->
<g id="edge37" class="edge">
<title>Node19&#45;&gt;Node6</title>
<path fill="none" stroke="#63b8ff" d="M980.71,-164.99C947.4,-154.89 903.01,-141.44 871.8,-131.98"/>
<polygon fill="#63b8ff" stroke="#63b8ff" points="872.75,-128.6 862.16,-129.05 870.72,-135.3 872.75,-128.6"/>
</g>
<!-- Node19&#45;&gt;Node7 -->
<g id="edge38" class="edge">
<title>Node19&#45;&gt;Node7</title>
<path fill="none" stroke="#63b8ff" d="M1074.13,-164.99C1108.13,-154.89 1153.44,-141.44 1185.3,-131.98"/>
<polygon fill="#63b8ff" stroke="#63b8ff" points="1186.55,-135.26 1195.14,-129.05 1184.55,-128.55 1186.55,-135.26"/>
</g>
<!-- Node20&#45;&gt;Node3 -->
<g id="edge40" class="edge">
<title>Node20&#45;&gt;Node3</title>
<path fill="none" stroke="#63b8ff" d="M540.7,-164.99C568.77,-155.1 605.99,-141.98 632.73,-132.56"/>
<polygon fill="#63b8ff" stroke="#63b8ff" points="634.16,-135.76 642.43,-129.14 631.83,-129.16 634.16,-135.76"/>
</g>
<!-- Node21 -->
<g id="node21" class="node">
<title>Node21</title>
<g id="a_node21"><a xlink:title=" ">
<polygon fill="#e0e0e0" stroke="#999999" points="522.94,-129 478.94,-129 478.94,-110 522.94,-110 522.94,-129"/>
<text text-anchor="middle" x="500.94" y="-117" font-family="Helvetica,sans-Serif" font-size="10.00">string</text>
</a>
</g>
</g>
<!-- Node20&#45;&gt;Node21 -->
<g id="edge41" class="edge">
<title>Node20&#45;&gt;Node21</title>
<path fill="none" stroke="#63b8ff" d="M500.94,-164.84C500.94,-157.21 500.94,-147.7 500.94,-139.45"/>
<polygon fill="#63b8ff" stroke="#63b8ff" points="504.44,-139.27 500.94,-129.27 497.44,-139.27 504.44,-139.27"/>
</g>
<!-- Node22&#45;&gt;Node3 -->
<g id="edge43" class="edge">
<title>Node22&#45;&gt;Node3</title>
<path fill="none" stroke="#63b8ff" d="M679.83,-164.84C677.56,-157.04 674.72,-147.27 672.28,-138.89"/>
<polygon fill="#63b8ff" stroke="#63b8ff" points="675.64,-137.89 669.49,-129.27 668.92,-139.85 675.64,-137.89"/>
</g>
<!-- Node22&#45;&gt;Node4 -->
<g id="edge44" class="edge">
<title>Node22&#45;&gt;Node4</title>
<path fill="none" stroke="#63b8ff" d="M761.1,-168.26C823.71,-159.24 914.46,-145.48 1002.44,-129.2"/>
<polygon fill="#63b8ff" stroke="#63b8ff" points="1003.13,-132.63 1012.32,-127.35 1001.85,-125.75 1003.13,-132.63"/>
</g>
<!-- Node22&#45;&gt;Node5 -->
<g id="edge45" class="edge">
<title>Node22&#45;&gt;Node5</title>
<path fill="none" stroke="#63b8ff" d="M747.65,-164.99C794.75,-154.63 857.93,-140.73 901.08,-131.25"/>
<polygon fill="#63b8ff" stroke="#63b8ff" points="902.03,-134.62 911.05,-129.05 900.53,-127.78 902.03,-134.62"/>
</g>
<!-- Node22&#45;&gt;Node6 -->
<g id="edge46" class="edge">
<title>Node22&#45;&gt;Node6</title>
<path fill="none" stroke="#63b8ff" d="M719.87,-164.99C745.01,-155.18 778.27,-142.21 802.39,-132.81"/>
<polygon fill="#63b8ff" stroke="#63b8ff" points="803.74,-136.03 811.79,-129.14 801.2,-129.51 803.74,-136.03"/>
</g>
<!-- Node23 -->
<g id="node23" class="node">
<title>Node23</title>
<g id="a_node23"><a xlink:href="_device_config_8h.html" target="_top" xlink:title="Node configuration options.">
<polygon fill="white" stroke="#666666" points="415.94,-129 325.94,-129 325.94,-110 415.94,-110 415.94,-129"/>
<text text-anchor="middle" x="370.94" y="-117" font-family="Helvetica,sans-Serif" font-size="10.00">DeviceConfig.h</text>
</a>
</g>
</g>
<!-- Node22&#45;&gt;Node23 -->
<g id="edge47" class="edge">
<title>Node22&#45;&gt;Node23</title>
<path fill="none" stroke="#63b8ff" d="M608.97,-164.99C552.8,-154.49 477.18,-140.36 426.38,-130.86"/>
<polygon fill="#63b8ff" stroke="#63b8ff" points="426.72,-127.37 416.25,-128.97 425.44,-134.25 426.72,-127.37"/>
</g>
<!-- Node23&#45;&gt;Node10 -->
<g id="edge48" class="edge">
<title>Node23&#45;&gt;Node10</title>
<path fill="none" stroke="#63b8ff" d="M370.94,-109.66C370.94,-92.17 370.94,-52.8 370.94,-29.27"/>
<polygon fill="#63b8ff" stroke="#63b8ff" points="374.44,-29.16 370.94,-19.16 367.44,-29.16 374.44,-29.16"/>
</g>
<!-- Node23&#45;&gt;Node13 -->
<g id="edge49" class="edge">
<title>Node23&#45;&gt;Node13</title>
<path fill="none" stroke="#63b8ff" d="M416.06,-110.74C472.29,-101.06 568.17,-84.56 627.29,-74.39"/>
<polygon fill="#63b8ff" stroke="#63b8ff" points="627.9,-77.83 637.16,-72.69 626.72,-70.94 627.9,-77.83"/>
</g>
<!-- Node24&#45;&gt;Node23 -->
<g id="edge51" class="edge">
<title>Node24&#45;&gt;Node23</title>
<path fill="none" stroke="#63b8ff" d="M370.94,-164.84C370.94,-157.21 370.94,-147.7 370.94,-139.45"/>
<polygon fill="#63b8ff" stroke="#63b8ff" points="374.44,-139.27 370.94,-129.27 367.44,-139.27 374.44,-139.27"/>
</g>
<!-- Node25&#45;&gt;Node23 -->
<g id="edge53" class="edge">
<title>Node25&#45;&gt;Node23</title>
<path fill="none" stroke="#63b8ff" d="M142.46,-166.98C145.67,-166.31 148.84,-165.64 151.94,-165 208.86,-153.18 274.17,-139.95 318.55,-131.01"/>
<polygon fill="#63b8ff" stroke="#63b8ff" points="319.41,-134.41 328.53,-129.01 318.03,-127.55 319.41,-134.41"/>
</g>
<!-- Node26&#45;&gt;Node23 -->
<g id="edge55" class="edge">
<title>Node26&#45;&gt;Node23</title>
<path fill="none" stroke="#63b8ff" d="M260.67,-164.99C284.86,-155.23 316.84,-142.33 340.13,-132.93"/>
<polygon fill="#63b8ff" stroke="#63b8ff" points="341.56,-136.13 349.53,-129.14 338.94,-129.63 341.56,-136.13"/>
</g>
</g>
</svg>
