<?xml version="1.0" encoding="UTF-8" standalone="no"?>
<!DOCTYPE svg PUBLIC "-//W3C//DTD SVG 1.1//EN"
 "http://www.w3.org/Graphics/SVG/1.1/DTD/svg11.dtd">
<!-- Generated by graphviz version 2.43.0 (0)
 -->
<!-- Title: firmware/wombat/include/cli/peripherals/cat&#45;m1.h Pages: 1 -->
<svg width="557pt" height="203pt"
 viewBox="0.00 0.00 557.00 203.00" xmlns="http://www.w3.org/2000/svg" xmlns:xlink="http://www.w3.org/1999/xlink">
<g id="graph0" class="graph" transform="scale(1 1) rotate(0) translate(4 199)">
<title>firmware/wombat/include/cli/peripherals/cat&#45;m1.h</title>
<!-- Node1 -->
<g id="node1" class="node">
<title>Node1</title>
<g id="a_node1"><a xlink:title="CAT&#45;M1 CLI command request and response handler.">
<polygon fill="#999999" stroke="#666666" points="325,-195 184,-195 184,-165 325,-165 325,-195"/>
<text text-anchor="start" x="192" y="-183" font-family="Helvetica,sans-Serif" font-size="10.00">firmware/wombat/include</text>
<text text-anchor="middle" x="254.5" y="-172" font-family="Helvetica,sans-Serif" font-size="10.00">/cli/peripherals/cat&#45;m1.h</text>
</a>
</g>
</g>
<!-- Node2 -->
<g id="node2" class="node">
<title>Node2</title>
<g id="a_node2"><a xlink:title=" ">
<polygon fill="#e0e0e0" stroke="#999999" points="113,-129 0,-129 0,-110 113,-110 113,-129"/>
<text text-anchor="middle" x="56.5" y="-117" font-family="Helvetica,sans-Serif" font-size="10.00">freertos/FreeRTOS.h</text>
</a>
</g>
</g>
<!-- Node1&#45;&gt;Node2 -->
<g id="edge1" class="edge">
<title>Node1&#45;&gt;Node2</title>
<path fill="none" stroke="#63b8ff" d="M207.07,-164.99C172.9,-154.89 127.36,-141.44 95.34,-131.98"/>
<polygon fill="#63b8ff" stroke="#63b8ff" points="96.03,-128.53 85.45,-129.05 94.05,-135.24 96.03,-128.53"/>
</g>
<!-- Node3 -->
<g id="node3" class="node">
<title>Node3</title>
<g id="a_node3"><a xlink:title=" ">
<polygon fill="#e0e0e0" stroke="#999999" points="192,-129 131,-129 131,-110 192,-110 192,-129"/>
<text text-anchor="middle" x="161.5" y="-117" font-family="Helvetica,sans-Serif" font-size="10.00">Stream.h</text>
</a>
</g>
</g>
<!-- Node1&#45;&gt;Node3 -->
<g id="edge2" class="edge">
<title>Node1&#45;&gt;Node3</title>
<path fill="none" stroke="#63b8ff" d="M231.99,-164.84C217.44,-155.68 198.57,-143.82 184.01,-134.66"/>
<polygon fill="#63b8ff" stroke="#63b8ff" points="185.49,-131.46 175.16,-129.09 181.76,-137.38 185.49,-131.46"/>
</g>
<!-- Node4 -->
<g id="node4" class="node">
<title>Node4</title>
<g id="a_node4"><a xlink:title=" ">
<polygon fill="#e0e0e0" stroke="#999999" points="299,-129 210,-129 210,-110 299,-110 299,-129"/>
<text text-anchor="middle" x="254.5" y="-117" font-family="Helvetica,sans-Serif" font-size="10.00">StreamString.h</text>
</a>
</g>
</g>
<!-- Node1&#45;&gt;Node4 -->
<g id="edge3" class="edge">
<title>Node1&#45;&gt;Node4</title>
<path fill="none" stroke="#63b8ff" d="M254.5,-164.84C254.5,-157.21 254.5,-147.7 254.5,-139.45"/>
<polygon fill="#63b8ff" stroke="#63b8ff" points="258,-139.27 254.5,-129.27 251,-139.27 258,-139.27"/>
</g>
<!-- Node5 -->
<g id="node5" class="node">
<title>Node5</title>
<g id="a_node5"><a xlink:title=" ">
<polygon fill="#e0e0e0" stroke="#999999" points="424,-129 317,-129 317,-110 424,-110 424,-129"/>
<text text-anchor="middle" x="370.5" y="-117" font-family="Helvetica,sans-Serif" font-size="10.00">cli/FreeRTOS_CLI.h</text>
</a>
</g>
</g>
<!-- Node1&#45;&gt;Node5 -->
<g id="edge4" class="edge">
<title>Node1&#45;&gt;Node5</title>
<path fill="none" stroke="#63b8ff" d="M282.28,-164.99C301.12,-155.49 325.85,-143.02 344.34,-133.69"/>
<polygon fill="#63b8ff" stroke="#63b8ff" points="346.02,-136.77 353.37,-129.14 342.86,-130.52 346.02,-136.77"/>
</g>
<!-- Node6 -->
<g id="node6" class="node">
<title>Node6</title>
<g id="a_node6"><a xlink:href="_c_a_t___m1_8h.html" target="_top" xlink:title=" ">
<polygon fill="white" stroke="#666666" points="507,-129 442,-129 442,-110 507,-110 507,-129"/>
<text text-anchor="middle" x="474.5" y="-117" font-family="Helvetica,sans-Serif" font-size="10.00">CAT_M1.h</text>
</a>
</g>
</g>
<!-- Node1&#45;&gt;Node6 -->
<g id="edge5" class="edge">
<title>Node1&#45;&gt;Node6</title>
<path fill="none" stroke="#63b8ff" d="M307.2,-164.99C345.49,-154.8 396.64,-141.2 432.27,-131.73"/>
<polygon fill="#63b8ff" stroke="#63b8ff" points="433.57,-135.01 442.33,-129.05 431.77,-128.24 433.57,-135.01"/>
</g>
<!-- Node7 -->
<g id="node7" class="node">
<title>Node7</title>
<g id="a_node7"><a xlink:title=" ">
<polygon fill="#e0e0e0" stroke="#999999" points="467.5,-19 419.5,-19 419.5,0 467.5,0 467.5,-19"/>
<text text-anchor="middle" x="443.5" y="-7" font-family="Helvetica,sans-Serif" font-size="10.00">Wire.h</text>
</a>
</g>
</g>
<!-- Node6&#45;&gt;Node7 -->
<g id="edge6" class="edge">
<title>Node6&#45;&gt;Node7</title>
<path fill="none" stroke="#63b8ff" d="M471.96,-109.66C466.92,-92.09 455.54,-52.45 448.8,-28.95"/>
<polygon fill="#63b8ff" stroke="#63b8ff" points="452.11,-27.8 445.99,-19.16 445.38,-29.74 452.11,-27.8"/>
</g>
<!-- Node8 -->
<g id="node8" class="node">
<title>Node8</title>
<g id="a_node8"><a xlink:href="_t_c_a9534_8h.html" target="_top" xlink:title=" ">
<polygon fill="white" stroke="#666666" points="539.5,-74 471.5,-74 471.5,-55 539.5,-55 539.5,-74"/>
<text text-anchor="middle" x="505.5" y="-62" font-family="Helvetica,sans-Serif" font-size="10.00">TCA9534.h</text>
</a>
</g>
</g>
<!-- Node6&#45;&gt;Node8 -->
<g id="edge7" class="edge">
<title>Node6&#45;&gt;Node8</title>
<path fill="none" stroke="#63b8ff" d="M479.62,-109.75C483.86,-102.49 490.03,-91.95 495.28,-82.98"/>
<polygon fill="#63b8ff" stroke="#63b8ff" points="498.45,-84.49 500.48,-74.09 492.41,-80.95 498.45,-84.49"/>
</g>
<!-- Node8&#45;&gt;Node7 -->
<g id="edge9" class="edge">
<title>Node8&#45;&gt;Node7</title>
<path fill="none" stroke="#63b8ff" d="M495.54,-54.98C486.37,-47.15 472.56,-35.34 461.47,-25.86"/>
<polygon fill="#63b8ff" stroke="#63b8ff" points="463.52,-23.01 453.64,-19.17 458.97,-28.33 463.52,-23.01"/>
</g>
<!-- Node9 -->
<g id="node9" class="node">
<title>Node9</title>
<g id="a_node9"><a xlink:title=" ">
<polygon fill="#e0e0e0" stroke="#999999" points="549,-19 486,-19 486,0 549,0 549,-19"/>
<text text-anchor="middle" x="517.5" y="-7" font-family="Helvetica,sans-Serif" font-size="10.00">Arduino.h</text>
</a>
</g>
</g>
<!-- Node8&#45;&gt;Node9 -->
<g id="edge8" class="edge">
<title>Node8&#45;&gt;Node9</title>
<path fill="none" stroke="#63b8ff" d="M507.48,-54.75C509.07,-47.72 511.36,-37.62 513.35,-28.84"/>
<polygon fill="#63b8ff" stroke="#63b8ff" points="516.76,-29.62 515.56,-19.09 509.93,-28.07 516.76,-29.62"/>
</g>
</g>
</svg>
