<?xml version="1.0" encoding="UTF-8" standalone="no"?>
<!DOCTYPE svg PUBLIC "-//W3C//DTD SVG 1.1//EN"
 "http://www.w3.org/Graphics/SVG/1.1/DTD/svg11.dtd">
<!-- Generated by graphviz version 2.43.0 (0)
 -->
<!-- Title: firmware/wombat/include/cli/peripherals/cat&#45;m1.h Pages: 1 -->
<svg width="1134pt" height="313pt"
 viewBox="0.00 0.00 1134.00 313.00" xmlns="http://www.w3.org/2000/svg" xmlns:xlink="http://www.w3.org/1999/xlink">
<g id="graph0" class="graph" transform="scale(1 1) rotate(0) translate(4 309)">
<title>firmware/wombat/include/cli/peripherals/cat&#45;m1.h</title>
<!-- Node1 -->
<g id="node1" class="node">
<title>Node1</title>
<g id="a_node1"><a xlink:title="CAT&#45;M1 CLI command request and response handler.">
<polygon fill="#999999" stroke="#666666" points="348.5,-305 207.5,-305 207.5,-275 348.5,-275 348.5,-305"/>
<text text-anchor="start" x="215.5" y="-293" font-family="Helvetica,sans-Serif" font-size="10.00">firmware/wombat/include</text>
<text text-anchor="middle" x="278" y="-282" font-family="Helvetica,sans-Serif" font-size="10.00">/cli/peripherals/cat&#45;m1.h</text>
</a>
</g>
</g>
<!-- Node2 -->
<g id="node2" class="node">
<title>Node2</title>
<g id="a_node2"><a xlink:href="_c_l_i_8h.html" target="_top" xlink:title="FreeRTOS CLI handler.">
<polygon fill="white" stroke="#666666" points="497.5,-239 356.5,-239 356.5,-209 497.5,-209 497.5,-239"/>
<text text-anchor="start" x="364.5" y="-227" font-family="Helvetica,sans-Serif" font-size="10.00">firmware/wombat/include</text>
<text text-anchor="middle" x="427" y="-216" font-family="Helvetica,sans-Serif" font-size="10.00">/cli/CLI.h</text>
</a>
</g>
</g>
<!-- Node1&#45;&gt;Node2 -->
<g id="edge1" class="edge">
<title>Node1&#45;&gt;Node2</title>
<path fill="none" stroke="#63b8ff" d="M320.09,-270.92C343.64,-260.8 372.56,-248.38 394.38,-239.01"/>
<polygon fill="#63b8ff" stroke="#63b8ff" points="318.51,-267.79 310.7,-274.95 321.27,-274.22 318.51,-267.79"/>
</g>
<!-- Node8 -->
<g id="node8" class="node">
<title>Node8</title>
<g id="a_node8"><a xlink:href="cat-m1_8cpp.html" target="_top" xlink:title="CAT&#45;M1 CLI command request and response handler.">
<polygon fill="white" stroke="#666666" points="120,-173 0,-173 0,-132 120,-132 120,-173"/>
<text text-anchor="start" x="8" y="-161" font-family="Helvetica,sans-Serif" font-size="10.00">firmware/wombat/src</text>
<text text-anchor="start" x="8" y="-150" font-family="Helvetica,sans-Serif" font-size="10.00">/cli/peripherals/cat</text>
<text text-anchor="middle" x="60" y="-139" font-family="Helvetica,sans-Serif" font-size="10.00">&#45;m1.cpp</text>
</a>
</g>
</g>
<!-- Node1&#45;&gt;Node8 -->
<g id="edge15" class="edge">
<title>Node1&#45;&gt;Node8</title>
<path fill="none" stroke="#63b8ff" d="M246.51,-269.43C205.2,-243.75 133.12,-198.95 91.71,-173.21"/>
<polygon fill="#63b8ff" stroke="#63b8ff" points="244.74,-272.45 255.08,-274.76 248.44,-266.5 244.74,-272.45"/>
</g>
<!-- Node3 -->
<g id="node3" class="node">
<title>Node3</title>
<g id="a_node3"><a xlink:href="server_8h.html" target="_top" xlink:title="Handle the setup and maintenance of the BLE server and connected clients.">
<polygon fill="white" stroke="#666666" points="279.5,-167.5 138.5,-167.5 138.5,-137.5 279.5,-137.5 279.5,-167.5"/>
<text text-anchor="start" x="146.5" y="-155.5" font-family="Helvetica,sans-Serif" font-size="10.00">firmware/wombat/include</text>
<text text-anchor="middle" x="209" y="-144.5" font-family="Helvetica,sans-Serif" font-size="10.00">/bluetooth/server.h</text>
</a>
</g>
</g>
<!-- Node2&#45;&gt;Node3 -->
<g id="edge2" class="edge">
<title>Node2&#45;&gt;Node3</title>
<path fill="none" stroke="#63b8ff" d="M367.35,-205.87C329.14,-194.08 280.73,-178.61 247.5,-167.54"/>
<polygon fill="#63b8ff" stroke="#63b8ff" points="366.75,-209.34 377.34,-208.94 368.8,-202.65 366.75,-209.34"/>
</g>
<!-- Node7 -->
<g id="node7" class="node">
<title>Node7</title>
<g id="a_node7"><a xlink:href="_c_l_i_8cpp.html" target="_top" xlink:title="FreeRTOS CLI handler.">
<polygon fill="white" stroke="#666666" points="418,-167.5 298,-167.5 298,-137.5 418,-137.5 418,-167.5"/>
<text text-anchor="start" x="306" y="-155.5" font-family="Helvetica,sans-Serif" font-size="10.00">firmware/wombat/src</text>
<text text-anchor="middle" x="358" y="-144.5" font-family="Helvetica,sans-Serif" font-size="10.00">/cli/CLI.cpp</text>
</a>
</g>
</g>
<!-- Node2&#45;&gt;Node7 -->
<g id="edge8" class="edge">
<title>Node2&#45;&gt;Node7</title>
<path fill="none" stroke="#63b8ff" d="M405.82,-201.67C394.81,-190.58 381.66,-177.34 371.94,-167.54"/>
<polygon fill="#63b8ff" stroke="#63b8ff" points="403.51,-204.3 413.04,-208.94 408.48,-199.37 403.51,-204.3"/>
</g>
<!-- Node2&#45;&gt;Node8 -->
<g id="edge9" class="edge">
<title>Node2&#45;&gt;Node8</title>
<path fill="none" stroke="#63b8ff" d="M346.22,-211.74C286.24,-202.82 202.61,-189.18 130,-173 126.8,-172.29 123.53,-171.52 120.23,-170.71"/>
<polygon fill="#63b8ff" stroke="#63b8ff" points="345.98,-215.25 356.39,-213.24 347.01,-208.32 345.98,-215.25"/>
</g>
<!-- Node9 -->
<g id="node9" class="node">
<title>Node9</title>
<g id="a_node9"><a xlink:href="sd__card_8cpp.html" target="_top" xlink:title=" ">
<polygon fill="white" stroke="#666666" points="556,-173 436,-173 436,-132 556,-132 556,-173"/>
<text text-anchor="start" x="444" y="-161" font-family="Helvetica,sans-Serif" font-size="10.00">firmware/wombat/src</text>
<text text-anchor="start" x="444" y="-150" font-family="Helvetica,sans-Serif" font-size="10.00">/cli/peripherals/sd</text>
<text text-anchor="middle" x="496" y="-139" font-family="Helvetica,sans-Serif" font-size="10.00">_card.cpp</text>
</a>
</g>
</g>
<!-- Node2&#45;&gt;Node9 -->
<g id="edge10" class="edge">
<title>Node2&#45;&gt;Node9</title>
<path fill="none" stroke="#63b8ff" d="M448.16,-201.69C457.21,-192.57 467.71,-181.99 476.57,-173.07"/>
<polygon fill="#63b8ff" stroke="#63b8ff" points="445.52,-199.37 440.96,-208.94 450.49,-204.3 445.52,-199.37"/>
</g>
<!-- Node10 -->
<g id="node10" class="node">
<title>Node10</title>
<g id="a_node10"><a xlink:href="sdi12_8cpp.html" target="_top" xlink:title="SDI&#45;12 command line interface handler.">
<polygon fill="white" stroke="#666666" points="712,-167.5 574,-167.5 574,-137.5 712,-137.5 712,-167.5"/>
<text text-anchor="start" x="582" y="-155.5" font-family="Helvetica,sans-Serif" font-size="10.00">firmware/wombat/src</text>
<text text-anchor="middle" x="643" y="-144.5" font-family="Helvetica,sans-Serif" font-size="10.00">/cli/peripherals/sdi12.cpp</text>
</a>
</g>
</g>
<!-- Node2&#45;&gt;Node10 -->
<g id="edge11" class="edge">
<title>Node2&#45;&gt;Node10</title>
<path fill="none" stroke="#63b8ff" d="M480.24,-205.87C516.89,-194.08 564.97,-178.61 599.35,-167.54"/>
<polygon fill="#63b8ff" stroke="#63b8ff" points="479.16,-202.54 470.71,-208.94 481.3,-209.2 479.16,-202.54"/>
</g>
<!-- Node11 -->
<g id="node11" class="node">
<title>Node11</title>
<g id="a_node11"><a xlink:href="ftp__stack_8cpp.html" target="_top" xlink:title=" ">
<polygon fill="white" stroke="#666666" points="850,-167.5 730,-167.5 730,-137.5 850,-137.5 850,-167.5"/>
<text text-anchor="start" x="738" y="-155.5" font-family="Helvetica,sans-Serif" font-size="10.00">firmware/wombat/src</text>
<text text-anchor="middle" x="790" y="-144.5" font-family="Helvetica,sans-Serif" font-size="10.00">/ftp_stack.cpp</text>
</a>
</g>
</g>
<!-- Node2&#45;&gt;Node11 -->
<g id="edge12" class="edge">
<title>Node2&#45;&gt;Node11</title>
<path fill="none" stroke="#63b8ff" d="M507.57,-211.67C566.91,-202.76 649.39,-189.16 721,-173 728.04,-171.41 735.44,-169.54 742.66,-167.6"/>
<polygon fill="#63b8ff" stroke="#63b8ff" points="506.88,-208.24 497.51,-213.17 507.92,-215.16 506.88,-208.24"/>
</g>
<!-- Node12 -->
<g id="node12" class="node">
<title>Node12</title>
<g id="a_node12"><a xlink:href="main_8cpp.html" target="_top" xlink:title=" ">
<polygon fill="white" stroke="#666666" points="988,-167.5 868,-167.5 868,-137.5 988,-137.5 988,-167.5"/>
<text text-anchor="start" x="876" y="-155.5" font-family="Helvetica,sans-Serif" font-size="10.00">firmware/wombat/src</text>
<text text-anchor="middle" x="928" y="-144.5" font-family="Helvetica,sans-Serif" font-size="10.00">/main.cpp</text>
</a>
</g>
</g>
<!-- Node2&#45;&gt;Node12 -->
<g id="edge13" class="edge">
<title>Node2&#45;&gt;Node12</title>
<path fill="none" stroke="#63b8ff" d="M507.97,-217.52C595.23,-210.71 737.88,-196.96 859,-173 866.57,-171.5 874.52,-169.59 882.23,-167.54"/>
<polygon fill="#63b8ff" stroke="#63b8ff" points="507.58,-214.04 497.87,-218.3 508.11,-221.02 507.58,-214.04"/>
</g>
<!-- Node13 -->
<g id="node13" class="node">
<title>Node13</title>
<g id="a_node13"><a xlink:href="mqtt__stack_8cpp.html" target="_top" xlink:title=" ">
<polygon fill="white" stroke="#666666" points="1126,-167.5 1006,-167.5 1006,-137.5 1126,-137.5 1126,-167.5"/>
<text text-anchor="start" x="1014" y="-155.5" font-family="Helvetica,sans-Serif" font-size="10.00">firmware/wombat/src</text>
<text text-anchor="middle" x="1066" y="-144.5" font-family="Helvetica,sans-Serif" font-size="10.00">/mqtt_stack.cpp</text>
</a>
</g>
</g>
<!-- Node2&#45;&gt;Node13 -->
<g id="edge14" class="edge">
<title>Node2&#45;&gt;Node13</title>
<path fill="none" stroke="#63b8ff" d="M507.89,-220.68C618.97,-216.42 824.56,-204.64 997,-173 1004.84,-171.56 1013.07,-169.62 1021,-167.53"/>
<polygon fill="#63b8ff" stroke="#63b8ff" points="507.63,-217.19 497.77,-221.06 507.9,-224.19 507.63,-217.19"/>
</g>
<!-- Node3&#45;&gt;Node2 -->
<g id="edge6" class="edge">
<title>Node3&#45;&gt;Node2</title>
<path fill="none" stroke="#63b8ff" d="M268.57,-170.61C306.78,-182.4 355.18,-197.87 388.43,-208.94"/>
<polygon fill="#63b8ff" stroke="#63b8ff" points="269.18,-167.13 258.6,-167.54 267.13,-173.83 269.18,-167.13"/>
</g>
<!-- Node4 -->
<g id="node4" class="node">
<title>Node4</title>
<g id="a_node4"><a xlink:href="uart_8h.html" target="_top" xlink:title="BluetoothLE UART service setup and handling.">
<polygon fill="white" stroke="#666666" points="279.5,-96 138.5,-96 138.5,-66 279.5,-66 279.5,-96"/>
<text text-anchor="start" x="146.5" y="-84" font-family="Helvetica,sans-Serif" font-size="10.00">firmware/wombat/include</text>
<text text-anchor="middle" x="209" y="-73" font-family="Helvetica,sans-Serif" font-size="10.00">/bluetooth/uart.h</text>
</a>
</g>
</g>
<!-- Node3&#45;&gt;Node4 -->
<g id="edge3" class="edge">
<title>Node3&#45;&gt;Node4</title>
<path fill="none" stroke="#63b8ff" d="M202.53,-127.25C201.96,-116.81 202.26,-104.99 203.45,-96.04"/>
<polygon fill="#63b8ff" stroke="#63b8ff" points="199.07,-127.79 203.45,-137.44 206.04,-127.16 199.07,-127.79"/>
</g>
<!-- Node6 -->
<g id="node6" class="node">
<title>Node6</title>
<g id="a_node6"><a xlink:href="server_8cpp.html" target="_top" xlink:title="Setup and start BluetoothLE server.">
<polygon fill="white" stroke="#666666" points="418,-96 298,-96 298,-66 418,-66 418,-96"/>
<text text-anchor="start" x="306" y="-84" font-family="Helvetica,sans-Serif" font-size="10.00">firmware/wombat/src</text>
<text text-anchor="middle" x="358" y="-73" font-family="Helvetica,sans-Serif" font-size="10.00">/bluetooth/server.cpp</text>
</a>
</g>
</g>
<!-- Node3&#45;&gt;Node6 -->
<g id="edge7" class="edge">
<title>Node3&#45;&gt;Node6</title>
<path fill="none" stroke="#63b8ff" d="M248.34,-133.15C273.25,-121.53 304.98,-106.73 327.89,-96.04"/>
<polygon fill="#63b8ff" stroke="#63b8ff" points="246.74,-130.04 239.15,-137.44 249.69,-136.38 246.74,-130.04"/>
</g>
<!-- Node4&#45;&gt;Node3 -->
<g id="edge4" class="edge">
<title>Node4&#45;&gt;Node3</title>
<path fill="none" stroke="#63b8ff" d="M215.47,-106.23C216.04,-116.66 215.74,-128.49 214.55,-137.44"/>
<polygon fill="#63b8ff" stroke="#63b8ff" points="218.93,-105.69 214.55,-96.04 211.96,-106.32 218.93,-105.69"/>
</g>
<!-- Node5 -->
<g id="node5" class="node">
<title>Node5</title>
<g id="a_node5"><a xlink:href="uart_8cpp.html" target="_top" xlink:title="BluetoothLE UART service setup and handling.">
<polygon fill="white" stroke="#666666" points="269,-30 149,-30 149,0 269,0 269,-30"/>
<text text-anchor="start" x="157" y="-18" font-family="Helvetica,sans-Serif" font-size="10.00">firmware/wombat/src</text>
<text text-anchor="middle" x="209" y="-7" font-family="Helvetica,sans-Serif" font-size="10.00">/bluetooth/uart.cpp</text>
</a>
</g>
</g>
<!-- Node4&#45;&gt;Node5 -->
<g id="edge5" class="edge">
<title>Node4&#45;&gt;Node5</title>
<path fill="none" stroke="#63b8ff" d="M209,-55.54C209,-46.96 209,-37.61 209,-30.16"/>
<polygon fill="#63b8ff" stroke="#63b8ff" points="205.5,-55.8 209,-65.8 212.5,-55.8 205.5,-55.8"/>
</g>
</g>
</svg>
