<?xml version="1.0" encoding="UTF-8" standalone="no"?>
<!DOCTYPE svg PUBLIC "-//W3C//DTD SVG 1.1//EN"
 "http://www.w3.org/Graphics/SVG/1.1/DTD/svg11.dtd">
<!-- Generated by graphviz version 2.43.0 (0)
 -->
<!-- Title: firmware/wombat/src/cli/peripherals/cat&#45;m1.cpp Pages: 1 -->
<svg width="1687pt" height="346pt"
 viewBox="0.00 0.00 1687.00 346.00" xmlns="http://www.w3.org/2000/svg" xmlns:xlink="http://www.w3.org/1999/xlink">
<g id="graph0" class="graph" transform="scale(1 1) rotate(0) translate(4 342)">
<title>firmware/wombat/src/cli/peripherals/cat&#45;m1.cpp</title>
<!-- Node1 -->
<g id="node1" class="node">
<title>Node1</title>
<g id="a_node1"><a xlink:title="CAT&#45;M1 CLI command request and response handler.">
<polygon fill="#999999" stroke="#666666" points="1343,-338 1223,-338 1223,-297 1343,-297 1343,-338"/>
<text text-anchor="start" x="1231" y="-326" font-family="Helvetica,sans-Serif" font-size="10.00">firmware/wombat/src</text>
<text text-anchor="start" x="1231" y="-315" font-family="Helvetica,sans-Serif" font-size="10.00">/cli/peripherals/cat</text>
<text text-anchor="middle" x="1283" y="-304" font-family="Helvetica,sans-Serif" font-size="10.00">&#45;m1.cpp</text>
</a>
</g>
</g>
<!-- Node2 -->
<g id="node2" class="node">
<title>Node2</title>
<g id="a_node2"><a xlink:href="cat-m1_8h.html" target="_top" xlink:title="CAT&#45;M1 CLI command request and response handler.">
<polygon fill="white" stroke="#666666" points="1236,-200.5 1104,-200.5 1104,-181.5 1236,-181.5 1236,-200.5"/>
<text text-anchor="middle" x="1170" y="-188.5" font-family="Helvetica,sans-Serif" font-size="10.00">cli/peripherals/cat&#45;m1.h</text>
</a>
</g>
</g>
<!-- Node1&#45;&gt;Node2 -->
<g id="edge1" class="edge">
<title>Node1&#45;&gt;Node2</title>
<path fill="none" stroke="#63b8ff" d="M1265.09,-296.77C1242.81,-272.22 1205.19,-230.78 1184.58,-208.07"/>
<polygon fill="#63b8ff" stroke="#63b8ff" points="1187.13,-205.67 1177.82,-200.61 1181.95,-210.37 1187.13,-205.67"/>
</g>
<!-- Node7 -->
<g id="node7" class="node">
<title>Node7</title>
<g id="a_node7"><a xlink:href="_c_a_t___m1_8h.html" target="_top" xlink:title=" ">
<polygon fill="white" stroke="#666666" points="1202.5,-134.5 1137.5,-134.5 1137.5,-115.5 1202.5,-115.5 1202.5,-134.5"/>
<text text-anchor="middle" x="1170" y="-122.5" font-family="Helvetica,sans-Serif" font-size="10.00">CAT_M1.h</text>
</a>
</g>
</g>
<!-- Node1&#45;&gt;Node7 -->
<g id="edge11" class="edge">
<title>Node1&#45;&gt;Node7</title>
<path fill="none" stroke="#63b8ff" d="M1288.26,-296.86C1294.82,-267.8 1302.45,-212.8 1278,-176 1269.41,-163.07 1233.69,-148.09 1205.65,-137.92"/>
<polygon fill="#63b8ff" stroke="#63b8ff" points="1206.7,-134.58 1196.11,-134.54 1204.36,-141.18 1206.7,-134.58"/>
</g>
<!-- Node11 -->
<g id="node11" class="node">
<title>Node11</title>
<g id="a_node11"><a xlink:href="_utils_8h.html" target="_top" xlink:title=" ">
<polygon fill="white" stroke="#666666" points="1119,-134.5 1071,-134.5 1071,-115.5 1119,-115.5 1119,-134.5"/>
<text text-anchor="middle" x="1095" y="-122.5" font-family="Helvetica,sans-Serif" font-size="10.00">Utils.h</text>
</a>
</g>
</g>
<!-- Node1&#45;&gt;Node11 -->
<g id="edge12" class="edge">
<title>Node1&#45;&gt;Node11</title>
<path fill="none" stroke="#63b8ff" d="M1283.32,-296.86C1282.72,-266.78 1277.09,-209.29 1245,-176 1207.54,-137.13 1179.79,-158.3 1129,-140 1127.57,-139.49 1126.12,-138.95 1124.65,-138.39"/>
<polygon fill="#63b8ff" stroke="#63b8ff" points="1125.61,-135.01 1115.02,-134.59 1123.04,-141.52 1125.61,-135.01"/>
</g>
<!-- Node15 -->
<g id="node15" class="node">
<title>Node15</title>
<g id="a_node15"><a xlink:title=" ">
<polygon fill="#e0e0e0" stroke="#999999" points="1679,-140 1549,-140 1549,-110 1679,-110 1679,-140"/>
<text text-anchor="start" x="1557" y="-128" font-family="Helvetica,sans-Serif" font-size="10.00">SparkFun_u&#45;blox_SARA</text>
<text text-anchor="middle" x="1614" y="-117" font-family="Helvetica,sans-Serif" font-size="10.00">&#45;R5_Arduino_Library.h</text>
</a>
</g>
</g>
<!-- Node1&#45;&gt;Node15 -->
<g id="edge16" class="edge">
<title>Node1&#45;&gt;Node15</title>
<path fill="none" stroke="#63b8ff" d="M1317.18,-296.83C1380.94,-260.13 1517.28,-181.67 1580.51,-145.27"/>
<polygon fill="#63b8ff" stroke="#63b8ff" points="1582.37,-148.24 1589.29,-140.22 1578.88,-142.17 1582.37,-148.24"/>
</g>
<!-- Node16 -->
<g id="node16" class="node">
<title>Node16</title>
<g id="a_node16"><a xlink:href="globals_8h.html" target="_top" xlink:title=" ">
<polygon fill="white" stroke="#666666" points="1391.5,-200.5 1330.5,-200.5 1330.5,-181.5 1391.5,-181.5 1391.5,-200.5"/>
<text text-anchor="middle" x="1361" y="-188.5" font-family="Helvetica,sans-Serif" font-size="10.00">globals.h</text>
</a>
</g>
</g>
<!-- Node1&#45;&gt;Node16 -->
<g id="edge17" class="edge">
<title>Node1&#45;&gt;Node16</title>
<path fill="none" stroke="#63b8ff" d="M1295.36,-296.77C1310.47,-272.65 1335.8,-232.22 1350.18,-209.28"/>
<polygon fill="#63b8ff" stroke="#63b8ff" points="1353.26,-210.95 1355.6,-200.61 1347.33,-207.23 1353.26,-210.95"/>
</g>
<!-- Node20 -->
<g id="node20" class="node">
<title>Node20</title>
<g id="a_node20"><a xlink:href="_c_l_i_8h.html" target="_top" xlink:title="FreeRTOS CLI handler.">
<polygon fill="white" stroke="#666666" points="634.5,-261 579.5,-261 579.5,-242 634.5,-242 634.5,-261"/>
<text text-anchor="middle" x="607" y="-249" font-family="Helvetica,sans-Serif" font-size="10.00">cli/CLI.h</text>
</a>
</g>
</g>
<!-- Node1&#45;&gt;Node20 -->
<g id="edge26" class="edge">
<title>Node1&#45;&gt;Node20</title>
<path fill="none" stroke="#63b8ff" d="M1222.71,-310.79C1086.19,-297.87 756.6,-266.66 644.81,-256.08"/>
<polygon fill="#63b8ff" stroke="#63b8ff" points="644.98,-252.58 634.69,-255.12 644.32,-259.55 644.98,-252.58"/>
</g>
<!-- Node3 -->
<g id="node3" class="node">
<title>Node3</title>
<g id="a_node3"><a xlink:title=" ">
<polygon fill="#e0e0e0" stroke="#999999" points="702.5,-134.5 589.5,-134.5 589.5,-115.5 702.5,-115.5 702.5,-134.5"/>
<text text-anchor="middle" x="646" y="-122.5" font-family="Helvetica,sans-Serif" font-size="10.00">freertos/FreeRTOS.h</text>
</a>
</g>
</g>
<!-- Node2&#45;&gt;Node3 -->
<g id="edge2" class="edge">
<title>Node2&#45;&gt;Node3</title>
<path fill="none" stroke="#63b8ff" d="M1127.66,-181.48C1117.02,-179.51 1105.62,-177.54 1095,-176 942.88,-153.88 903.65,-158.16 751,-140 738.61,-138.53 725.41,-136.85 712.7,-135.18"/>
<polygon fill="#63b8ff" stroke="#63b8ff" points="713.01,-131.69 702.64,-133.85 712.09,-138.63 713.01,-131.69"/>
</g>
<!-- Node4 -->
<g id="node4" class="node">
<title>Node4</title>
<g id="a_node4"><a xlink:title=" ">
<polygon fill="#e0e0e0" stroke="#999999" points="1052.5,-134.5 991.5,-134.5 991.5,-115.5 1052.5,-115.5 1052.5,-134.5"/>
<text text-anchor="middle" x="1022" y="-122.5" font-family="Helvetica,sans-Serif" font-size="10.00">Stream.h</text>
</a>
</g>
</g>
<!-- Node2&#45;&gt;Node4 -->
<g id="edge3" class="edge">
<title>Node2&#45;&gt;Node4</title>
<path fill="none" stroke="#63b8ff" d="M1150.04,-181.37C1124.66,-170.39 1080.64,-151.36 1051.41,-138.72"/>
<polygon fill="#63b8ff" stroke="#63b8ff" points="1052.68,-135.46 1042.12,-134.7 1049.91,-141.88 1052.68,-135.46"/>
</g>
<!-- Node5 -->
<g id="node5" class="node">
<title>Node5</title>
<g id="a_node5"><a xlink:title=" ">
<polygon fill="#e0e0e0" stroke="#999999" points="973.5,-134.5 884.5,-134.5 884.5,-115.5 973.5,-115.5 973.5,-134.5"/>
<text text-anchor="middle" x="929" y="-122.5" font-family="Helvetica,sans-Serif" font-size="10.00">StreamString.h</text>
</a>
</g>
</g>
<!-- Node2&#45;&gt;Node5 -->
<g id="edge4" class="edge">
<title>Node2&#45;&gt;Node5</title>
<path fill="none" stroke="#63b8ff" d="M1137.5,-181.37C1094.53,-169.96 1018.73,-149.83 971.32,-137.24"/>
<polygon fill="#63b8ff" stroke="#63b8ff" points="971.93,-133.78 961.37,-134.6 970.14,-140.55 971.93,-133.78"/>
</g>
<!-- Node6 -->
<g id="node6" class="node">
<title>Node6</title>
<g id="a_node6"><a xlink:title=" ">
<polygon fill="#e0e0e0" stroke="#999999" points="866.5,-134.5 759.5,-134.5 759.5,-115.5 866.5,-115.5 866.5,-134.5"/>
<text text-anchor="middle" x="813" y="-122.5" font-family="Helvetica,sans-Serif" font-size="10.00">cli/FreeRTOS_CLI.h</text>
</a>
</g>
</g>
<!-- Node2&#45;&gt;Node6 -->
<g id="edge5" class="edge">
<title>Node2&#45;&gt;Node6</title>
<path fill="none" stroke="#63b8ff" d="M1125.21,-181.48C1115.27,-179.63 1104.78,-177.72 1095,-176 997.85,-158.95 972.85,-158.71 876,-140 870.71,-138.98 865.18,-137.84 859.69,-136.68"/>
<polygon fill="#63b8ff" stroke="#63b8ff" points="860.42,-133.26 849.91,-134.56 858.94,-140.1 860.42,-133.26"/>
</g>
<!-- Node2&#45;&gt;Node7 -->
<g id="edge6" class="edge">
<title>Node2&#45;&gt;Node7</title>
<path fill="none" stroke="#63b8ff" d="M1170,-181.37C1170,-172.16 1170,-157.29 1170,-145.27"/>
<polygon fill="#63b8ff" stroke="#63b8ff" points="1173.5,-144.91 1170,-134.91 1166.5,-144.91 1173.5,-144.91"/>
</g>
<!-- Node8 -->
<g id="node8" class="node">
<title>Node8</title>
<g id="a_node8"><a xlink:title=" ">
<polygon fill="#e0e0e0" stroke="#999999" points="1183,-19 1135,-19 1135,0 1183,0 1183,-19"/>
<text text-anchor="middle" x="1159" y="-7" font-family="Helvetica,sans-Serif" font-size="10.00">Wire.h</text>
</a>
</g>
</g>
<!-- Node7&#45;&gt;Node8 -->
<g id="edge7" class="edge">
<title>Node7&#45;&gt;Node8</title>
<path fill="none" stroke="#63b8ff" d="M1169.17,-115.47C1167.41,-97.23 1163.22,-54.07 1160.81,-29.14"/>
<polygon fill="#63b8ff" stroke="#63b8ff" points="1164.28,-28.75 1159.84,-19.13 1157.32,-29.42 1164.28,-28.75"/>
</g>
<!-- Node9 -->
<g id="node9" class="node">
<title>Node9</title>
<g id="a_node9"><a xlink:href="_t_c_a9534_8h.html" target="_top" xlink:title=" ">
<polygon fill="white" stroke="#666666" points="1255,-74 1187,-74 1187,-55 1255,-55 1255,-74"/>
<text text-anchor="middle" x="1221" y="-62" font-family="Helvetica,sans-Serif" font-size="10.00">TCA9534.h</text>
</a>
</g>
</g>
<!-- Node7&#45;&gt;Node9 -->
<g id="edge8" class="edge">
<title>Node7&#45;&gt;Node9</title>
<path fill="none" stroke="#63b8ff" d="M1177.53,-115.37C1185.21,-106.55 1197.32,-92.66 1206.81,-81.77"/>
<polygon fill="#63b8ff" stroke="#63b8ff" points="1209.51,-84.01 1213.44,-74.17 1204.23,-79.41 1209.51,-84.01"/>
</g>
<!-- Node9&#45;&gt;Node8 -->
<g id="edge10" class="edge">
<title>Node9&#45;&gt;Node8</title>
<path fill="none" stroke="#63b8ff" d="M1211.04,-54.98C1201.87,-47.15 1188.06,-35.34 1176.97,-25.86"/>
<polygon fill="#63b8ff" stroke="#63b8ff" points="1179.02,-23.01 1169.14,-19.17 1174.47,-28.33 1179.02,-23.01"/>
</g>
<!-- Node10 -->
<g id="node10" class="node">
<title>Node10</title>
<g id="a_node10"><a xlink:title=" ">
<polygon fill="#e0e0e0" stroke="#999999" points="1264.5,-19 1201.5,-19 1201.5,0 1264.5,0 1264.5,-19"/>
<text text-anchor="middle" x="1233" y="-7" font-family="Helvetica,sans-Serif" font-size="10.00">Arduino.h</text>
</a>
</g>
</g>
<!-- Node9&#45;&gt;Node10 -->
<g id="edge9" class="edge">
<title>Node9&#45;&gt;Node10</title>
<path fill="none" stroke="#63b8ff" d="M1222.98,-54.75C1224.57,-47.72 1226.86,-37.62 1228.85,-28.84"/>
<polygon fill="#63b8ff" stroke="#63b8ff" points="1232.26,-29.62 1231.06,-19.09 1225.43,-28.07 1232.26,-29.62"/>
</g>
<!-- Node12 -->
<g id="node12" class="node">
<title>Node12</title>
<g id="a_node12"><a xlink:title=" ">
<polygon fill="#e0e0e0" stroke="#999999" points="1123,-74 1067,-74 1067,-55 1123,-55 1123,-74"/>
<text text-anchor="middle" x="1095" y="-62" font-family="Helvetica,sans-Serif" font-size="10.00">stddef.h</text>
</a>
</g>
</g>
<!-- Node11&#45;&gt;Node12 -->
<g id="edge13" class="edge">
<title>Node11&#45;&gt;Node12</title>
<path fill="none" stroke="#63b8ff" d="M1095,-115.37C1095,-107.25 1095,-94.81 1095,-84.39"/>
<polygon fill="#63b8ff" stroke="#63b8ff" points="1098.5,-84.17 1095,-74.17 1091.5,-84.17 1098.5,-84.17"/>
</g>
<!-- Node13 -->
<g id="node13" class="node">
<title>Node13</title>
<g id="a_node13"><a xlink:title=" ">
<polygon fill="#e0e0e0" stroke="#999999" points="813.5,-74 730.5,-74 730.5,-55 813.5,-55 813.5,-74"/>
<text text-anchor="middle" x="772" y="-62" font-family="Helvetica,sans-Serif" font-size="10.00">ArduinoJson.h</text>
</a>
</g>
</g>
<!-- Node11&#45;&gt;Node13 -->
<g id="edge14" class="edge">
<title>Node11&#45;&gt;Node13</title>
<path fill="none" stroke="#63b8ff" d="M1077.14,-115.47C1072.31,-113.43 1067.03,-111.43 1062,-110 980.42,-86.83 882.28,-74.97 823.64,-69.52"/>
<polygon fill="#63b8ff" stroke="#63b8ff" points="823.79,-66.02 813.51,-68.6 823.16,-72.99 823.79,-66.02"/>
</g>
<!-- Node14 -->
<g id="node14" class="node">
<title>Node14</title>
<g id="a_node14"><a xlink:title=" ">
<polygon fill="#e0e0e0" stroke="#999999" points="1007.5,-74 914.5,-74 914.5,-55 1007.5,-55 1007.5,-74"/>
<text text-anchor="middle" x="961" y="-62" font-family="Helvetica,sans-Serif" font-size="10.00">dpiclimate&#45;12.h</text>
</a>
</g>
</g>
<!-- Node11&#45;&gt;Node14 -->
<g id="edge15" class="edge">
<title>Node11&#45;&gt;Node14</title>
<path fill="none" stroke="#63b8ff" d="M1075.52,-115.49C1052.99,-105.66 1015.69,-89.38 989.81,-78.08"/>
<polygon fill="#63b8ff" stroke="#63b8ff" points="991.07,-74.81 980.51,-74.02 988.27,-81.23 991.07,-74.81"/>
</g>
<!-- Node16&#45;&gt;Node7 -->
<g id="edge25" class="edge">
<title>Node16&#45;&gt;Node7</title>
<path fill="none" stroke="#63b8ff" d="M1335.24,-181.37C1301.68,-170.12 1242.87,-150.42 1205.21,-137.8"/>
<polygon fill="#63b8ff" stroke="#63b8ff" points="1206.25,-134.46 1195.66,-134.6 1204.03,-141.09 1206.25,-134.46"/>
</g>
<!-- Node16&#45;&gt;Node15 -->
<g id="edge24" class="edge">
<title>Node16&#45;&gt;Node15</title>
<path fill="none" stroke="#63b8ff" d="M1391.52,-182.28C1430.21,-172.49 1497.95,-155.36 1548.55,-142.56"/>
<polygon fill="#63b8ff" stroke="#63b8ff" points="1549.6,-145.9 1558.43,-140.06 1547.88,-139.12 1549.6,-145.9"/>
</g>
<!-- Node17 -->
<g id="node17" class="node">
<title>Node17</title>
<g id="a_node17"><a xlink:href="battery_8h.html" target="_top" xlink:title="Battery voltage and current monitoring using INA219 IC.">
<polygon fill="white" stroke="#666666" points="1530.5,-134.5 1379.5,-134.5 1379.5,-115.5 1530.5,-115.5 1530.5,-134.5"/>
<text text-anchor="middle" x="1455" y="-122.5" font-family="Helvetica,sans-Serif" font-size="10.00">power_monitoring/battery.h</text>
</a>
</g>
</g>
<!-- Node16&#45;&gt;Node17 -->
<g id="edge18" class="edge">
<title>Node16&#45;&gt;Node17</title>
<path fill="none" stroke="#63b8ff" d="M1373.68,-181.37C1389.09,-170.87 1415.35,-153 1433.85,-140.4"/>
<polygon fill="#63b8ff" stroke="#63b8ff" points="1435.93,-143.22 1442.22,-134.7 1431.99,-137.43 1435.93,-143.22"/>
</g>
<!-- Node19 -->
<g id="node19" class="node">
<title>Node19</title>
<g id="a_node19"><a xlink:href="solar_8h.html" target="_top" xlink:title="Solar voltage and current monitoring using INA219 IC.">
<polygon fill="white" stroke="#666666" points="1361,-134.5 1221,-134.5 1221,-115.5 1361,-115.5 1361,-134.5"/>
<text text-anchor="middle" x="1291" y="-122.5" font-family="Helvetica,sans-Serif" font-size="10.00">power_monitoring/solar.h</text>
</a>
</g>
</g>
<!-- Node16&#45;&gt;Node19 -->
<g id="edge21" class="edge">
<title>Node16&#45;&gt;Node19</title>
<path fill="none" stroke="#63b8ff" d="M1351.56,-181.37C1340.45,-171.21 1321.8,-154.16 1308.12,-141.65"/>
<polygon fill="#63b8ff" stroke="#63b8ff" points="1310.48,-139.07 1300.74,-134.91 1305.76,-144.24 1310.48,-139.07"/>
</g>
<!-- Node17&#45;&gt;Node10 -->
<g id="edge19" class="edge">
<title>Node17&#45;&gt;Node10</title>
<path fill="none" stroke="#63b8ff" d="M1454.86,-115.36C1454.13,-100.68 1450.45,-70.95 1433,-55 1410.22,-34.18 1326.41,-21.13 1274.79,-14.89"/>
<polygon fill="#63b8ff" stroke="#63b8ff" points="1274.95,-11.39 1264.61,-13.7 1274.13,-18.34 1274.95,-11.39"/>
</g>
<!-- Node18 -->
<g id="node18" class="node">
<title>Node18</title>
<g id="a_node18"><a xlink:title=" ">
<polygon fill="#e0e0e0" stroke="#999999" points="1423.5,-74 1318.5,-74 1318.5,-55 1423.5,-55 1423.5,-74"/>
<text text-anchor="middle" x="1371" y="-62" font-family="Helvetica,sans-Serif" font-size="10.00">Adafruit_INA219.h</text>
</a>
</g>
</g>
<!-- Node17&#45;&gt;Node18 -->
<g id="edge20" class="edge">
<title>Node17&#45;&gt;Node18</title>
<path fill="none" stroke="#63b8ff" d="M1442.61,-115.37C1429.21,-106.04 1407.62,-91.01 1391.65,-79.88"/>
<polygon fill="#63b8ff" stroke="#63b8ff" points="1393.65,-77.01 1383.45,-74.17 1389.65,-82.75 1393.65,-77.01"/>
</g>
<!-- Node19&#45;&gt;Node10 -->
<g id="edge22" class="edge">
<title>Node19&#45;&gt;Node10</title>
<path fill="none" stroke="#63b8ff" d="M1288.3,-115.21C1284.03,-101.81 1275.03,-75.65 1264,-55 1258.91,-45.47 1252.15,-35.54 1246.24,-27.48"/>
<polygon fill="#63b8ff" stroke="#63b8ff" points="1248.89,-25.18 1240.07,-19.3 1243.3,-29.39 1248.89,-25.18"/>
</g>
<!-- Node19&#45;&gt;Node18 -->
<g id="edge23" class="edge">
<title>Node19&#45;&gt;Node18</title>
<path fill="none" stroke="#63b8ff" d="M1302.8,-115.37C1315.45,-106.12 1335.74,-91.28 1350.91,-80.19"/>
<polygon fill="#63b8ff" stroke="#63b8ff" points="1353.14,-82.9 1359.15,-74.17 1349.01,-77.24 1353.14,-82.9"/>
</g>
<!-- Node20&#45;&gt;Node2 -->
<g id="edge30" class="edge">
<title>Node20&#45;&gt;Node2</title>
<path fill="none" stroke="#63b8ff" d="M634.62,-248.89C709.16,-244.35 920.57,-230.18 1095,-206 1102.48,-204.96 1110.35,-203.69 1118.06,-202.35"/>
<polygon fill="#63b8ff" stroke="#63b8ff" points="1118.85,-205.76 1128.07,-200.54 1117.6,-198.87 1118.85,-205.76"/>
</g>
<!-- Node20&#45;&gt;Node3 -->
<g id="edge28" class="edge">
<title>Node20&#45;&gt;Node3</title>
<path fill="none" stroke="#63b8ff" d="M606.15,-241.95C605.06,-227.79 604.14,-198.79 612,-176 616.2,-163.82 624.19,-151.82 631.37,-142.63"/>
<polygon fill="#63b8ff" stroke="#63b8ff" points="634.19,-144.71 637.86,-134.77 628.79,-140.26 634.19,-144.71"/>
</g>
<!-- Node20&#45;&gt;Node6 -->
<g id="edge29" class="edge">
<title>Node20&#45;&gt;Node6</title>
<path fill="none" stroke="#63b8ff" d="M609.05,-241.72C613.14,-226.14 623.8,-193.65 645,-176 674.38,-151.55 715.37,-139.05 749.5,-132.67"/>
<polygon fill="#63b8ff" stroke="#63b8ff" points="750.14,-136.11 759.4,-130.95 748.94,-129.21 750.14,-136.11"/>
</g>
<!-- Node20&#45;&gt;Node10 -->
<g id="edge27" class="edge">
<title>Node20&#45;&gt;Node10</title>
<path fill="none" stroke="#63b8ff" d="M579.28,-249.94C484.29,-247.73 176.16,-238.11 147,-206 138.04,-196.13 138.76,-186.48 147,-176 290.19,6.06 941.17,-49.06 1191.13,-18.83"/>
<polygon fill="#63b8ff" stroke="#63b8ff" points="1191.82,-22.27 1201.29,-17.53 1190.93,-15.33 1191.82,-22.27"/>
</g>
<!-- Node21 -->
<g id="node21" class="node">
<title>Node21</title>
<g id="a_node21"><a xlink:href="sdi12_8h.html" target="_top" xlink:title="SDI&#45;12 command line interface handler.">
<polygon fill="white" stroke="#666666" points="950,-200.5 826,-200.5 826,-181.5 950,-181.5 950,-200.5"/>
<text text-anchor="middle" x="888" y="-188.5" font-family="Helvetica,sans-Serif" font-size="10.00">cli/peripherals/sdi12.h</text>
</a>
</g>
</g>
<!-- Node20&#45;&gt;Node21 -->
<g id="edge31" class="edge">
<title>Node20&#45;&gt;Node21</title>
<path fill="none" stroke="#63b8ff" d="M634.71,-244.73C681.7,-234.95 777.68,-214.97 837.06,-202.61"/>
<polygon fill="#63b8ff" stroke="#63b8ff" points="837.9,-206 846.98,-200.54 836.48,-199.15 837.9,-206"/>
</g>
<!-- Node22 -->
<g id="node22" class="node">
<title>Node22</title>
<g id="a_node22"><a xlink:href="cli__power_8h.html" target="_top" xlink:title=" ">
<polygon fill="white" stroke="#666666" points="1086,-206 986,-206 986,-176 1086,-176 1086,-206"/>
<text text-anchor="start" x="994" y="-194" font-family="Helvetica,sans-Serif" font-size="10.00">cli/peripherals/cli</text>
<text text-anchor="middle" x="1036" y="-183" font-family="Helvetica,sans-Serif" font-size="10.00">_power.h</text>
</a>
</g>
</g>
<!-- Node20&#45;&gt;Node22 -->
<g id="edge39" class="edge">
<title>Node20&#45;&gt;Node22</title>
<path fill="none" stroke="#63b8ff" d="M634.54,-248.26C694.7,-243.15 842.48,-229.34 975.88,-206.07"/>
<polygon fill="#63b8ff" stroke="#63b8ff" points="976.63,-209.49 985.87,-204.3 975.41,-202.6 976.63,-209.49"/>
</g>
<!-- Node23 -->
<g id="node23" class="node">
<title>Node23</title>
<g id="a_node23"><a xlink:href="sd__card_8h.html" target="_top" xlink:title=" ">
<polygon fill="white" stroke="#666666" points="100,-206 0,-206 0,-176 100,-176 100,-206"/>
<text text-anchor="start" x="8" y="-194" font-family="Helvetica,sans-Serif" font-size="10.00">cli/peripherals/sd</text>
<text text-anchor="middle" x="50" y="-183" font-family="Helvetica,sans-Serif" font-size="10.00">_card.h</text>
</a>
</g>
</g>
<!-- Node20&#45;&gt;Node23 -->
<g id="edge45" class="edge">
<title>Node20&#45;&gt;Node23</title>
<path fill="none" stroke="#63b8ff" d="M579.33,-249.22C504.16,-245.48 290.03,-233.09 114,-206 112.74,-205.81 111.46,-205.6 110.17,-205.39"/>
<polygon fill="#63b8ff" stroke="#63b8ff" points="110.66,-201.92 100.2,-203.6 109.42,-208.81 110.66,-201.92"/>
</g>
<!-- Node25 -->
<g id="node25" class="node">
<title>Node25</title>
<g id="a_node25"><a xlink:href="acquisition__intervals_8h.html" target="_top" xlink:title="Handles the time between measurements and uplinks by the device over LTE.">
<polygon fill="white" stroke="#666666" points="808,-206 654,-206 654,-176 808,-176 808,-206"/>
<text text-anchor="start" x="662" y="-194" font-family="Helvetica,sans-Serif" font-size="10.00">cli/device_config/acquisition</text>
<text text-anchor="middle" x="731" y="-183" font-family="Helvetica,sans-Serif" font-size="10.00">_intervals.h</text>
</a>
</g>
</g>
<!-- Node20&#45;&gt;Node25 -->
<g id="edge48" class="edge">
<title>Node20&#45;&gt;Node25</title>
<path fill="none" stroke="#63b8ff" d="M625.03,-241.99C642.43,-233.79 669.34,-221.09 691.69,-210.55"/>
<polygon fill="#63b8ff" stroke="#63b8ff" points="693.4,-213.61 700.95,-206.18 690.41,-207.28 693.4,-213.61"/>
</g>
<!-- Node27 -->
<g id="node27" class="node">
<title>Node27</title>
<g id="a_node27"><a xlink:href="mqtt__cli_8h.html" target="_top" xlink:title="MQTT setup and configuration through the CLI.">
<polygon fill="white" stroke="#666666" points="280,-206 156,-206 156,-176 280,-176 280,-206"/>
<text text-anchor="start" x="164" y="-194" font-family="Helvetica,sans-Serif" font-size="10.00">cli/device_config/mqtt</text>
<text text-anchor="middle" x="218" y="-183" font-family="Helvetica,sans-Serif" font-size="10.00">_cli.h</text>
</a>
</g>
</g>
<!-- Node20&#45;&gt;Node27 -->
<g id="edge56" class="edge">
<title>Node20&#45;&gt;Node27</title>
<path fill="none" stroke="#63b8ff" d="M579.36,-247.12C524.21,-240.26 396.61,-223.84 290,-206 289.9,-205.98 289.8,-205.97 289.69,-205.95"/>
<polygon fill="#63b8ff" stroke="#63b8ff" points="290.47,-202.53 280.02,-204.27 289.27,-209.43 290.47,-202.53"/>
</g>
<!-- Node28 -->
<g id="node28" class="node">
<title>Node28</title>
<g id="a_node28"><a xlink:href="ftp__cli_8h.html" target="_top" xlink:title="FTP setup and configuration through the CLI.">
<polygon fill="white" stroke="#666666" points="411.5,-206 298.5,-206 298.5,-176 411.5,-176 411.5,-206"/>
<text text-anchor="start" x="306.5" y="-194" font-family="Helvetica,sans-Serif" font-size="10.00">cli/device_config/ftp</text>
<text text-anchor="middle" x="355" y="-183" font-family="Helvetica,sans-Serif" font-size="10.00">_cli.h</text>
</a>
</g>
</g>
<!-- Node20&#45;&gt;Node28 -->
<g id="edge58" class="edge">
<title>Node20&#45;&gt;Node28</title>
<path fill="none" stroke="#63b8ff" d="M579.07,-244.02C541.35,-235.26 472.93,-219.38 421.59,-207.46"/>
<polygon fill="#63b8ff" stroke="#63b8ff" points="422.09,-203.98 411.56,-205.13 420.51,-210.8 422.09,-203.98"/>
</g>
<!-- Node29 -->
<g id="node29" class="node">
<title>Node29</title>
<g id="a_node29"><a xlink:href="config__cli_8h.html" target="_top" xlink:title=" ">
<polygon fill="white" stroke="#666666" points="560,-206 430,-206 430,-176 560,-176 560,-206"/>
<text text-anchor="start" x="438" y="-194" font-family="Helvetica,sans-Serif" font-size="10.00">cli/device_config/config</text>
<text text-anchor="middle" x="495" y="-183" font-family="Helvetica,sans-Serif" font-size="10.00">_cli.h</text>
</a>
</g>
</g>
<!-- Node20&#45;&gt;Node29 -->
<g id="edge60" class="edge">
<title>Node20&#45;&gt;Node29</title>
<path fill="none" stroke="#63b8ff" d="M590.47,-241.87C574.85,-233.71 550.9,-221.2 530.89,-210.75"/>
<polygon fill="#63b8ff" stroke="#63b8ff" points="532.51,-207.64 522.02,-206.11 529.27,-213.85 532.51,-207.64"/>
</g>
<!-- Node21&#45;&gt;Node3 -->
<g id="edge32" class="edge">
<title>Node21&#45;&gt;Node3</title>
<path fill="none" stroke="#63b8ff" d="M855.61,-181.44C812.33,-169.99 735.55,-149.68 687.9,-137.08"/>
<polygon fill="#63b8ff" stroke="#63b8ff" points="688.76,-133.69 678.19,-134.51 686.97,-140.45 688.76,-133.69"/>
</g>
<!-- Node21&#45;&gt;Node4 -->
<g id="edge33" class="edge">
<title>Node21&#45;&gt;Node4</title>
<path fill="none" stroke="#63b8ff" d="M906.07,-181.37C928.85,-170.49 968.22,-151.69 994.68,-139.05"/>
<polygon fill="#63b8ff" stroke="#63b8ff" points="996.27,-142.17 1003.79,-134.7 993.25,-135.85 996.27,-142.17"/>
</g>
<!-- Node21&#45;&gt;Node5 -->
<g id="edge34" class="edge">
<title>Node21&#45;&gt;Node5</title>
<path fill="none" stroke="#63b8ff" d="M893.53,-181.37C899.73,-171.69 909.95,-155.74 917.83,-143.44"/>
<polygon fill="#63b8ff" stroke="#63b8ff" points="920.85,-145.21 923.3,-134.91 914.95,-141.44 920.85,-145.21"/>
</g>
<!-- Node21&#45;&gt;Node6 -->
<g id="edge37" class="edge">
<title>Node21&#45;&gt;Node6</title>
<path fill="none" stroke="#63b8ff" d="M877.89,-181.37C865.99,-171.21 846,-154.16 831.35,-141.65"/>
<polygon fill="#63b8ff" stroke="#63b8ff" points="833.31,-138.73 823.44,-134.91 828.77,-144.06 833.31,-138.73"/>
</g>
<!-- Node21&#45;&gt;Node11 -->
<g id="edge38" class="edge">
<title>Node21&#45;&gt;Node11</title>
<path fill="none" stroke="#63b8ff" d="M922.4,-181.44C957.78,-172.32 1014.3,-156.9 1062,-140 1063.43,-139.49 1064.89,-138.96 1066.35,-138.4"/>
<polygon fill="#63b8ff" stroke="#63b8ff" points="1067.98,-141.52 1075.96,-134.54 1065.38,-135.02 1067.98,-141.52"/>
</g>
<!-- Node21&#45;&gt;Node14 -->
<g id="edge36" class="edge">
<title>Node21&#45;&gt;Node14</title>
<path fill="none" stroke="#63b8ff" d="M842.47,-181.4C792.02,-169.86 721.44,-146.49 751,-110 769.94,-86.63 848.52,-75.03 903.97,-69.66"/>
<polygon fill="#63b8ff" stroke="#63b8ff" points="904.41,-73.14 914.04,-68.73 903.76,-66.17 904.41,-73.14"/>
</g>
<!-- Node21&#45;&gt;Node21 -->
<g id="edge35" class="edge">
<title>Node21&#45;&gt;Node21</title>
<path fill="none" stroke="#63b8ff" d="M917.54,-200.53C942.22,-204.61 968,-201.43 968,-191 968,-182 948.78,-178.4 927.65,-180.2"/>
<polygon fill="#63b8ff" stroke="#63b8ff" points="927.03,-176.75 917.54,-181.47 927.9,-183.7 927.03,-176.75"/>
</g>
<!-- Node22&#45;&gt;Node3 -->
<g id="edge40" class="edge">
<title>Node22&#45;&gt;Node3</title>
<path fill="none" stroke="#63b8ff" d="M985.85,-177.8C982.86,-177.17 979.89,-176.56 977,-176 927.76,-166.46 794.43,-147.05 712.8,-135.42"/>
<polygon fill="#63b8ff" stroke="#63b8ff" points="713.01,-131.92 702.62,-133.97 712.03,-138.85 713.01,-131.92"/>
</g>
<!-- Node22&#45;&gt;Node4 -->
<g id="edge41" class="edge">
<title>Node22&#45;&gt;Node4</title>
<path fill="none" stroke="#63b8ff" d="M1032.89,-175.8C1030.9,-166.7 1028.3,-154.79 1026.13,-144.9"/>
<polygon fill="#63b8ff" stroke="#63b8ff" points="1029.49,-143.87 1023.93,-134.84 1022.65,-145.36 1029.49,-143.87"/>
</g>
<!-- Node22&#45;&gt;Node5 -->
<g id="edge42" class="edge">
<title>Node22&#45;&gt;Node5</title>
<path fill="none" stroke="#63b8ff" d="M1012.52,-175.95C994.5,-165.18 969.76,-150.38 951.89,-139.69"/>
<polygon fill="#63b8ff" stroke="#63b8ff" points="953.62,-136.65 943.24,-134.52 950.03,-142.65 953.62,-136.65"/>
</g>
<!-- Node22&#45;&gt;Node6 -->
<g id="edge43" class="edge">
<title>Node22&#45;&gt;Node6</title>
<path fill="none" stroke="#63b8ff" d="M987.06,-175.95C946.75,-164.38 890.3,-148.18 852.74,-137.41"/>
<polygon fill="#63b8ff" stroke="#63b8ff" points="853.26,-133.91 842.68,-134.52 851.32,-140.64 853.26,-133.91"/>
</g>
<!-- Node22&#45;&gt;Node7 -->
<g id="edge44" class="edge">
<title>Node22&#45;&gt;Node7</title>
<path fill="none" stroke="#63b8ff" d="M1065.41,-175.95C1088.49,-164.93 1120.38,-149.7 1142.86,-138.96"/>
<polygon fill="#63b8ff" stroke="#63b8ff" points="1144.65,-141.99 1152.17,-134.52 1141.63,-135.67 1144.65,-141.99"/>
</g>
<!-- Node23&#45;&gt;Node3 -->
<g id="edge46" class="edge">
<title>Node23&#45;&gt;Node3</title>
<path fill="none" stroke="#63b8ff" d="M100.27,-182.19C115.28,-180 131.79,-177.75 147,-176 331.8,-154.7 379.49,-163.67 564,-140 572.44,-138.92 581.34,-137.59 590.05,-136.19"/>
<polygon fill="#63b8ff" stroke="#63b8ff" points="590.83,-139.61 600.13,-134.52 589.69,-132.7 590.83,-139.61"/>
</g>
<!-- Node24 -->
<g id="node24" class="node">
<title>Node24</title>
<g id="a_node24"><a xlink:title=" ">
<polygon fill="#e0e0e0" stroke="#999999" points="72,-134.5 28,-134.5 28,-115.5 72,-115.5 72,-134.5"/>
<text text-anchor="middle" x="50" y="-122.5" font-family="Helvetica,sans-Serif" font-size="10.00">string</text>
</a>
</g>
</g>
<!-- Node23&#45;&gt;Node24 -->
<g id="edge47" class="edge">
<title>Node23&#45;&gt;Node24</title>
<path fill="none" stroke="#63b8ff" d="M50,-175.8C50,-166.7 50,-154.79 50,-144.9"/>
<polygon fill="#63b8ff" stroke="#63b8ff" points="53.5,-144.84 50,-134.84 46.5,-144.84 53.5,-144.84"/>
</g>
<!-- Node25&#45;&gt;Node3 -->
<g id="edge49" class="edge">
<title>Node25&#45;&gt;Node3</title>
<path fill="none" stroke="#63b8ff" d="M712.14,-175.8C698.36,-165.43 679.74,-151.4 665.76,-140.88"/>
<polygon fill="#63b8ff" stroke="#63b8ff" points="667.84,-138.06 657.75,-134.84 663.63,-143.66 667.84,-138.06"/>
</g>
<!-- Node25&#45;&gt;Node4 -->
<g id="edge50" class="edge">
<title>Node25&#45;&gt;Node4</title>
<path fill="none" stroke="#63b8ff" d="M808.25,-175.98C869.79,-164.56 950.76,-148.93 983,-140 985.43,-139.33 987.92,-138.58 990.41,-137.78"/>
<polygon fill="#63b8ff" stroke="#63b8ff" points="991.56,-141.09 999.91,-134.57 989.32,-134.46 991.56,-141.09"/>
</g>
<!-- Node25&#45;&gt;Node5 -->
<g id="edge51" class="edge">
<title>Node25&#45;&gt;Node5</title>
<path fill="none" stroke="#63b8ff" d="M774.45,-175.95C809.94,-164.48 859.51,-148.46 892.86,-137.68"/>
<polygon fill="#63b8ff" stroke="#63b8ff" points="894.21,-140.92 902.65,-134.52 892.06,-134.26 894.21,-140.92"/>
</g>
<!-- Node25&#45;&gt;Node6 -->
<g id="edge52" class="edge">
<title>Node25&#45;&gt;Node6</title>
<path fill="none" stroke="#63b8ff" d="M749.2,-175.8C762.36,-165.53 780.11,-151.67 793.55,-141.18"/>
<polygon fill="#63b8ff" stroke="#63b8ff" points="795.94,-143.76 801.67,-134.84 791.63,-138.24 795.94,-143.76"/>
</g>
<!-- Node26 -->
<g id="node26" class="node">
<title>Node26</title>
<g id="a_node26"><a xlink:href="_device_config_8h.html" target="_top" xlink:title="Node configuration options.">
<polygon fill="white" stroke="#666666" points="555,-134.5 465,-134.5 465,-115.5 555,-115.5 555,-134.5"/>
<text text-anchor="middle" x="510" y="-122.5" font-family="Helvetica,sans-Serif" font-size="10.00">DeviceConfig.h</text>
</a>
</g>
</g>
<!-- Node25&#45;&gt;Node26 -->
<g id="edge53" class="edge">
<title>Node25&#45;&gt;Node26</title>
<path fill="none" stroke="#63b8ff" d="M682.5,-175.95C642.55,-164.38 586.61,-148.18 549.38,-137.41"/>
<polygon fill="#63b8ff" stroke="#63b8ff" points="549.99,-133.94 539.41,-134.52 548.04,-140.66 549.99,-133.94"/>
</g>
<!-- Node26&#45;&gt;Node10 -->
<g id="edge54" class="edge">
<title>Node26&#45;&gt;Node10</title>
<path fill="none" stroke="#63b8ff" d="M530.62,-115.46C568.02,-100.38 649.86,-69.29 722,-55 924.3,-14.93 982.74,-47.28 1191.24,-18.89"/>
<polygon fill="#63b8ff" stroke="#63b8ff" points="1191.86,-22.34 1201.29,-17.49 1190.9,-15.41 1191.86,-22.34"/>
</g>
<!-- Node26&#45;&gt;Node13 -->
<g id="edge55" class="edge">
<title>Node26&#45;&gt;Node13</title>
<path fill="none" stroke="#63b8ff" d="M548.1,-115.49C594.57,-105.12 673.18,-87.57 723.81,-76.26"/>
<polygon fill="#63b8ff" stroke="#63b8ff" points="724.86,-79.61 733.86,-74.02 723.33,-72.78 724.86,-79.61"/>
</g>
<!-- Node27&#45;&gt;Node26 -->
<g id="edge57" class="edge">
<title>Node27&#45;&gt;Node26</title>
<path fill="none" stroke="#63b8ff" d="M280.28,-176.35C334.34,-164.5 411.54,-147.58 461.21,-136.69"/>
<polygon fill="#63b8ff" stroke="#63b8ff" points="462.05,-140.09 471.07,-134.53 460.55,-133.26 462.05,-140.09"/>
</g>
<!-- Node28&#45;&gt;Node26 -->
<g id="edge59" class="edge">
<title>Node28&#45;&gt;Node26</title>
<path fill="none" stroke="#63b8ff" d="M389.02,-175.95C416.2,-164.73 453.93,-149.15 480,-138.39"/>
<polygon fill="#63b8ff" stroke="#63b8ff" points="481.46,-141.57 489.37,-134.52 478.79,-135.1 481.46,-141.57"/>
</g>
<!-- Node29&#45;&gt;Node26 -->
<g id="edge61" class="edge">
<title>Node29&#45;&gt;Node26</title>
<path fill="none" stroke="#63b8ff" d="M498.33,-175.8C500.46,-166.7 503.25,-154.79 505.57,-144.9"/>
<polygon fill="#63b8ff" stroke="#63b8ff" points="509.05,-145.38 507.93,-134.84 502.24,-143.78 509.05,-145.38"/>
</g>
</g>
</svg>
