<?xml version="1.0" encoding="UTF-8" standalone="no"?>
<!DOCTYPE svg PUBLIC "-//W3C//DTD SVG 1.1//EN"
 "http://www.w3.org/Graphics/SVG/1.1/DTD/svg11.dtd">
<!-- Generated by graphviz version 2.43.0 (0)
 -->
<!-- Title: firmware/wombat/src/cli/peripherals/cat&#45;m1.cpp Pages: 1 -->
<svg width="1277pt" height="280pt"
 viewBox="0.00 0.00 1277.00 280.00" xmlns="http://www.w3.org/2000/svg" xmlns:xlink="http://www.w3.org/1999/xlink">
<g id="graph0" class="graph" transform="scale(1 1) rotate(0) translate(4 276)">
<title>firmware/wombat/src/cli/peripherals/cat&#45;m1.cpp</title>
<!-- Node1 -->
<g id="node1" class="node">
<title>Node1</title>
<g id="a_node1"><a xlink:title=" ">
<polygon fill="#999999" stroke="#666666" points="724.5,-272 604.5,-272 604.5,-231 724.5,-231 724.5,-272"/>
<text text-anchor="start" x="612.5" y="-260" font-family="Helvetica,sans-Serif" font-size="10.00">firmware/wombat/src</text>
<text text-anchor="start" x="612.5" y="-249" font-family="Helvetica,sans-Serif" font-size="10.00">/cli/peripherals/cat</text>
<text text-anchor="middle" x="664.5" y="-238" font-family="Helvetica,sans-Serif" font-size="10.00">&#45;m1.cpp</text>
</a>
</g>
</g>
<!-- Node2 -->
<g id="node2" class="node">
<title>Node2</title>
<g id="a_node2"><a xlink:href="cat-m1_8h.html" target="_top" xlink:title=" ">
<polygon fill="white" stroke="#666666" points="378.5,-195 246.5,-195 246.5,-176 378.5,-176 378.5,-195"/>
<text text-anchor="middle" x="312.5" y="-183" font-family="Helvetica,sans-Serif" font-size="10.00">cli/peripherals/cat&#45;m1.h</text>
</a>
</g>
</g>
<!-- Node1&#45;&gt;Node2 -->
<g id="edge1" class="edge">
<title>Node1&#45;&gt;Node2</title>
<path fill="none" stroke="#63b8ff" d="M604.39,-239.57C538.59,-227.61 433.9,-208.57 369.41,-196.85"/>
<polygon fill="#63b8ff" stroke="#63b8ff" points="369.88,-193.37 359.41,-195.03 368.62,-200.26 369.88,-193.37"/>
</g>
<!-- Node7 -->
<g id="node7" class="node">
<title>Node7</title>
<g id="a_node7"><a xlink:href="_c_a_t___m1_8h.html" target="_top" xlink:title=" ">
<polygon fill="white" stroke="#666666" points="507,-134.5 442,-134.5 442,-115.5 507,-115.5 507,-134.5"/>
<text text-anchor="middle" x="474.5" y="-122.5" font-family="Helvetica,sans-Serif" font-size="10.00">CAT_M1.h</text>
</a>
</g>
</g>
<!-- Node1&#45;&gt;Node7 -->
<g id="edge11" class="edge">
<title>Node1&#45;&gt;Node7</title>
<path fill="none" stroke="#63b8ff" d="M634.39,-230.77C595.94,-205.58 530.33,-162.58 496.34,-140.31"/>
<polygon fill="#63b8ff" stroke="#63b8ff" points="497.93,-137.17 487.64,-134.61 494.09,-143.02 497.93,-137.17"/>
</g>
<!-- Node11 -->
<g id="node11" class="node">
<title>Node11</title>
<g id="a_node11"><a xlink:href="_utils_8h.html" target="_top" xlink:title=" ">
<polygon fill="white" stroke="#666666" points="1096.5,-195 1048.5,-195 1048.5,-176 1096.5,-176 1096.5,-195"/>
<text text-anchor="middle" x="1072.5" y="-183" font-family="Helvetica,sans-Serif" font-size="10.00">Utils.h</text>
</a>
</g>
</g>
<!-- Node1&#45;&gt;Node11 -->
<g id="edge12" class="edge">
<title>Node1&#45;&gt;Node11</title>
<path fill="none" stroke="#63b8ff" d="M724.7,-241.06C811.57,-227.43 969.21,-202.7 1038.4,-191.85"/>
<polygon fill="#63b8ff" stroke="#63b8ff" points="1038.99,-195.3 1048.33,-190.29 1037.91,-188.38 1038.99,-195.3"/>
</g>
<!-- Node15 -->
<g id="node15" class="node">
<title>Node15</title>
<g id="a_node15"><a xlink:title=" ">
<polygon fill="#e0e0e0" stroke="#999999" points="982.5,-140 852.5,-140 852.5,-110 982.5,-110 982.5,-140"/>
<text text-anchor="start" x="860.5" y="-128" font-family="Helvetica,sans-Serif" font-size="10.00">SparkFun_u&#45;blox_SARA</text>
<text text-anchor="middle" x="917.5" y="-117" font-family="Helvetica,sans-Serif" font-size="10.00">&#45;R5_Arduino_Library.h</text>
</a>
</g>
</g>
<!-- Node1&#45;&gt;Node15 -->
<g id="edge16" class="edge">
<title>Node1&#45;&gt;Node15</title>
<path fill="none" stroke="#63b8ff" d="M704.31,-230.91C752.35,-207.27 832.53,-167.81 879.66,-144.62"/>
<polygon fill="#63b8ff" stroke="#63b8ff" points="881.49,-147.62 888.92,-140.07 878.4,-141.34 881.49,-147.62"/>
</g>
<!-- Node16 -->
<g id="node16" class="node">
<title>Node16</title>
<g id="a_node16"><a xlink:href="globals_8h.html" target="_top" xlink:title=" ">
<polygon fill="white" stroke="#666666" points="695,-195 634,-195 634,-176 695,-176 695,-195"/>
<text text-anchor="middle" x="664.5" y="-183" font-family="Helvetica,sans-Serif" font-size="10.00">globals.h</text>
</a>
</g>
</g>
<!-- Node1&#45;&gt;Node16 -->
<g id="edge17" class="edge">
<title>Node1&#45;&gt;Node16</title>
<path fill="none" stroke="#63b8ff" d="M664.5,-230.95C664.5,-222.85 664.5,-213.5 664.5,-205.47"/>
<polygon fill="#63b8ff" stroke="#63b8ff" points="668,-205.26 664.5,-195.26 661,-205.26 668,-205.26"/>
</g>
<!-- Node3 -->
<g id="node3" class="node">
<title>Node3</title>
<g id="a_node3"><a xlink:title=" ">
<polygon fill="#e0e0e0" stroke="#999999" points="113,-134.5 0,-134.5 0,-115.5 113,-115.5 113,-134.5"/>
<text text-anchor="middle" x="56.5" y="-122.5" font-family="Helvetica,sans-Serif" font-size="10.00">freertos/FreeRTOS.h</text>
</a>
</g>
</g>
<!-- Node2&#45;&gt;Node3 -->
<g id="edge2" class="edge">
<title>Node2&#45;&gt;Node3</title>
<path fill="none" stroke="#63b8ff" d="M275.28,-175.99C229.87,-165.62 153.06,-148.07 103.59,-136.76"/>
<polygon fill="#63b8ff" stroke="#63b8ff" points="104.3,-133.33 93.77,-134.52 102.74,-140.16 104.3,-133.33"/>
</g>
<!-- Node4 -->
<g id="node4" class="node">
<title>Node4</title>
<g id="a_node4"><a xlink:title=" ">
<polygon fill="#e0e0e0" stroke="#999999" points="192,-134.5 131,-134.5 131,-115.5 192,-115.5 192,-134.5"/>
<text text-anchor="middle" x="161.5" y="-122.5" font-family="Helvetica,sans-Serif" font-size="10.00">Stream.h</text>
</a>
</g>
</g>
<!-- Node2&#45;&gt;Node4 -->
<g id="edge3" class="edge">
<title>Node2&#45;&gt;Node4</title>
<path fill="none" stroke="#63b8ff" d="M290.54,-175.99C264.82,-166.03 222.02,-149.45 192.82,-138.13"/>
<polygon fill="#63b8ff" stroke="#63b8ff" points="194.07,-134.87 183.48,-134.52 191.54,-141.39 194.07,-134.87"/>
</g>
<!-- Node5 -->
<g id="node5" class="node">
<title>Node5</title>
<g id="a_node5"><a xlink:title=" ">
<polygon fill="#e0e0e0" stroke="#999999" points="299,-134.5 210,-134.5 210,-115.5 299,-115.5 299,-134.5"/>
<text text-anchor="middle" x="254.5" y="-122.5" font-family="Helvetica,sans-Serif" font-size="10.00">StreamString.h</text>
</a>
</g>
</g>
<!-- Node2&#45;&gt;Node5 -->
<g id="edge4" class="edge">
<title>Node2&#45;&gt;Node5</title>
<path fill="none" stroke="#63b8ff" d="M303.94,-175.87C295.12,-166.97 281.16,-152.89 270.32,-141.95"/>
<polygon fill="#63b8ff" stroke="#63b8ff" points="272.62,-139.3 263.09,-134.67 267.65,-144.23 272.62,-139.3"/>
</g>
<!-- Node6 -->
<g id="node6" class="node">
<title>Node6</title>
<g id="a_node6"><a xlink:title=" ">
<polygon fill="#e0e0e0" stroke="#999999" points="424,-134.5 317,-134.5 317,-115.5 424,-115.5 424,-134.5"/>
<text text-anchor="middle" x="370.5" y="-122.5" font-family="Helvetica,sans-Serif" font-size="10.00">cli/FreeRTOS_CLI.h</text>
</a>
</g>
</g>
<!-- Node2&#45;&gt;Node6 -->
<g id="edge5" class="edge">
<title>Node2&#45;&gt;Node6</title>
<path fill="none" stroke="#63b8ff" d="M321.06,-175.87C329.88,-166.97 343.84,-152.89 354.68,-141.95"/>
<polygon fill="#63b8ff" stroke="#63b8ff" points="357.35,-144.23 361.91,-134.67 352.38,-139.3 357.35,-144.23"/>
</g>
<!-- Node2&#45;&gt;Node7 -->
<g id="edge6" class="edge">
<title>Node2&#45;&gt;Node7</title>
<path fill="none" stroke="#63b8ff" d="M336.06,-175.99C363.77,-165.99 409.97,-149.3 441.31,-137.99"/>
<polygon fill="#63b8ff" stroke="#63b8ff" points="442.7,-141.21 450.92,-134.52 440.32,-134.62 442.7,-141.21"/>
</g>
<!-- Node8 -->
<g id="node8" class="node">
<title>Node8</title>
<g id="a_node8"><a xlink:title=" ">
<polygon fill="#e0e0e0" stroke="#999999" points="524.5,-19 476.5,-19 476.5,0 524.5,0 524.5,-19"/>
<text text-anchor="middle" x="500.5" y="-7" font-family="Helvetica,sans-Serif" font-size="10.00">Wire.h</text>
</a>
</g>
</g>
<!-- Node7&#45;&gt;Node8 -->
<g id="edge7" class="edge">
<title>Node7&#45;&gt;Node8</title>
<path fill="none" stroke="#63b8ff" d="M476.45,-115.47C480.63,-97.23 490.52,-54.07 496.23,-29.14"/>
<polygon fill="#63b8ff" stroke="#63b8ff" points="499.7,-29.66 498.52,-19.13 492.88,-28.1 499.7,-29.66"/>
</g>
<!-- Node9 -->
<g id="node9" class="node">
<title>Node9</title>
<g id="a_node9"><a xlink:href="_t_c_a9534_8h.html" target="_top" xlink:title=" ">
<polygon fill="white" stroke="#666666" points="570.5,-74 502.5,-74 502.5,-55 570.5,-55 570.5,-74"/>
<text text-anchor="middle" x="536.5" y="-62" font-family="Helvetica,sans-Serif" font-size="10.00">TCA9534.h</text>
</a>
</g>
</g>
<!-- Node7&#45;&gt;Node9 -->
<g id="edge8" class="edge">
<title>Node7&#45;&gt;Node9</title>
<path fill="none" stroke="#63b8ff" d="M483.65,-115.37C493.17,-106.38 508.3,-92.11 519.93,-81.14"/>
<polygon fill="#63b8ff" stroke="#63b8ff" points="522.44,-83.58 527.31,-74.17 517.64,-78.48 522.44,-83.58"/>
</g>
<!-- Node9&#45;&gt;Node8 -->
<g id="edge10" class="edge">
<title>Node9&#45;&gt;Node8</title>
<path fill="none" stroke="#63b8ff" d="M530.56,-54.75C525.52,-47.34 518.16,-36.5 511.99,-27.41"/>
<polygon fill="#63b8ff" stroke="#63b8ff" points="514.85,-25.39 506.33,-19.09 509.06,-29.33 514.85,-25.39"/>
</g>
<!-- Node10 -->
<g id="node10" class="node">
<title>Node10</title>
<g id="a_node10"><a xlink:title=" ">
<polygon fill="#e0e0e0" stroke="#999999" points="632,-19 569,-19 569,0 632,0 632,-19"/>
<text text-anchor="middle" x="600.5" y="-7" font-family="Helvetica,sans-Serif" font-size="10.00">Arduino.h</text>
</a>
</g>
</g>
<!-- Node9&#45;&gt;Node10 -->
<g id="edge9" class="edge">
<title>Node9&#45;&gt;Node10</title>
<path fill="none" stroke="#63b8ff" d="M546.78,-54.98C556.34,-47.07 570.78,-35.11 582.28,-25.58"/>
<polygon fill="#63b8ff" stroke="#63b8ff" points="584.56,-28.24 590.03,-19.17 580.1,-22.85 584.56,-28.24"/>
</g>
<!-- Node12 -->
<g id="node12" class="node">
<title>Node12</title>
<g id="a_node12"><a xlink:title=" ">
<polygon fill="#e0e0e0" stroke="#999999" points="1056.5,-134.5 1000.5,-134.5 1000.5,-115.5 1056.5,-115.5 1056.5,-134.5"/>
<text text-anchor="middle" x="1028.5" y="-122.5" font-family="Helvetica,sans-Serif" font-size="10.00">stddef.h</text>
</a>
</g>
</g>
<!-- Node11&#45;&gt;Node12 -->
<g id="edge13" class="edge">
<title>Node11&#45;&gt;Node12</title>
<path fill="none" stroke="#63b8ff" d="M1066.01,-175.87C1059.51,-167.23 1049.34,-153.7 1041.22,-142.92"/>
<polygon fill="#63b8ff" stroke="#63b8ff" points="1043.83,-140.56 1035.02,-134.67 1038.23,-144.76 1043.83,-140.56"/>
</g>
<!-- Node13 -->
<g id="node13" class="node">
<title>Node13</title>
<g id="a_node13"><a xlink:title=" ">
<polygon fill="#e0e0e0" stroke="#999999" points="1158,-134.5 1075,-134.5 1075,-115.5 1158,-115.5 1158,-134.5"/>
<text text-anchor="middle" x="1116.5" y="-122.5" font-family="Helvetica,sans-Serif" font-size="10.00">ArduinoJson.h</text>
</a>
</g>
</g>
<!-- Node11&#45;&gt;Node13 -->
<g id="edge14" class="edge">
<title>Node11&#45;&gt;Node13</title>
<path fill="none" stroke="#63b8ff" d="M1078.99,-175.87C1085.49,-167.23 1095.66,-153.7 1103.78,-142.92"/>
<polygon fill="#63b8ff" stroke="#63b8ff" points="1106.77,-144.76 1109.98,-134.67 1101.17,-140.56 1106.77,-144.76"/>
</g>
<!-- Node14 -->
<g id="node14" class="node">
<title>Node14</title>
<g id="a_node14"><a xlink:title=" ">
<polygon fill="#e0e0e0" stroke="#999999" points="1269,-134.5 1176,-134.5 1176,-115.5 1269,-115.5 1269,-134.5"/>
<text text-anchor="middle" x="1222.5" y="-122.5" font-family="Helvetica,sans-Serif" font-size="10.00">dpiclimate&#45;12.h</text>
</a>
</g>
</g>
<!-- Node11&#45;&gt;Node14 -->
<g id="edge15" class="edge">
<title>Node11&#45;&gt;Node14</title>
<path fill="none" stroke="#63b8ff" d="M1094.31,-175.99C1119.75,-166.07 1162.01,-149.59 1191.01,-138.28"/>
<polygon fill="#63b8ff" stroke="#63b8ff" points="1192.62,-141.41 1200.66,-134.52 1190.07,-134.89 1192.62,-141.41"/>
</g>
<!-- Node16&#45;&gt;Node7 -->
<g id="edge25" class="edge">
<title>Node16&#45;&gt;Node7</title>
<path fill="none" stroke="#63b8ff" d="M634.71,-175.97C604.56,-167.25 556.64,-153.16 515.5,-140 513.35,-139.31 511.13,-138.59 508.9,-137.86"/>
<polygon fill="#63b8ff" stroke="#63b8ff" points="509.76,-134.45 499.16,-134.6 507.54,-141.09 509.76,-134.45"/>
</g>
<!-- Node16&#45;&gt;Node15 -->
<g id="edge24" class="edge">
<title>Node16&#45;&gt;Node15</title>
<path fill="none" stroke="#63b8ff" d="M695.02,-177.44C732.41,-168.8 796.95,-153.87 846.92,-142.32"/>
<polygon fill="#63b8ff" stroke="#63b8ff" points="847.75,-145.72 856.71,-140.06 846.18,-138.9 847.75,-145.72"/>
</g>
<!-- Node17 -->
<g id="node17" class="node">
<title>Node17</title>
<g id="a_node17"><a xlink:href="battery_8h.html" target="_top" xlink:title=" ">
<polygon fill="white" stroke="#666666" points="676,-134.5 525,-134.5 525,-115.5 676,-115.5 676,-134.5"/>
<text text-anchor="middle" x="600.5" y="-122.5" font-family="Helvetica,sans-Serif" font-size="10.00">power_monitoring/battery.h</text>
</a>
</g>
</g>
<!-- Node16&#45;&gt;Node17 -->
<g id="edge18" class="edge">
<title>Node16&#45;&gt;Node17</title>
<path fill="none" stroke="#63b8ff" d="M655.06,-175.87C645.23,-166.88 629.61,-152.61 617.61,-141.64"/>
<polygon fill="#63b8ff" stroke="#63b8ff" points="619.72,-138.83 609.98,-134.67 615,-144 619.72,-138.83"/>
</g>
<!-- Node19 -->
<g id="node19" class="node">
<title>Node19</title>
<g id="a_node19"><a xlink:href="solar_8h.html" target="_top" xlink:title=" ">
<polygon fill="white" stroke="#666666" points="834.5,-134.5 694.5,-134.5 694.5,-115.5 834.5,-115.5 834.5,-134.5"/>
<text text-anchor="middle" x="764.5" y="-122.5" font-family="Helvetica,sans-Serif" font-size="10.00">power_monitoring/solar.h</text>
</a>
</g>
</g>
<!-- Node16&#45;&gt;Node19 -->
<g id="edge21" class="edge">
<title>Node16&#45;&gt;Node19</title>
<path fill="none" stroke="#63b8ff" d="M679.26,-175.87C695.5,-166.36 721.85,-150.95 740.96,-139.77"/>
<polygon fill="#63b8ff" stroke="#63b8ff" points="742.82,-142.74 749.68,-134.67 739.29,-136.7 742.82,-142.74"/>
</g>
<!-- Node17&#45;&gt;Node10 -->
<g id="edge19" class="edge">
<title>Node17&#45;&gt;Node10</title>
<path fill="none" stroke="#63b8ff" d="M600.5,-115.47C600.5,-97.23 600.5,-54.07 600.5,-29.14"/>
<polygon fill="#63b8ff" stroke="#63b8ff" points="604,-29.13 600.5,-19.13 597,-29.13 604,-29.13"/>
</g>
<!-- Node18 -->
<g id="node18" class="node">
<title>Node18</title>
<g id="a_node18"><a xlink:title=" ">
<polygon fill="#e0e0e0" stroke="#999999" points="735,-74 630,-74 630,-55 735,-55 735,-74"/>
<text text-anchor="middle" x="682.5" y="-62" font-family="Helvetica,sans-Serif" font-size="10.00">Adafruit_INA219.h</text>
</a>
</g>
</g>
<!-- Node17&#45;&gt;Node18 -->
<g id="edge20" class="edge">
<title>Node17&#45;&gt;Node18</title>
<path fill="none" stroke="#63b8ff" d="M612.6,-115.37C625.56,-106.12 646.36,-91.28 661.9,-80.19"/>
<polygon fill="#63b8ff" stroke="#63b8ff" points="664.24,-82.82 670.35,-74.17 660.18,-77.13 664.24,-82.82"/>
</g>
<!-- Node19&#45;&gt;Node10 -->
<g id="edge22" class="edge">
<title>Node19&#45;&gt;Node10</title>
<path fill="none" stroke="#63b8ff" d="M764.33,-115.05C763.56,-100.46 759.92,-71.52 743.5,-55 716.82,-28.16 674.26,-17.45 642.49,-13.21"/>
<polygon fill="#63b8ff" stroke="#63b8ff" points="642.51,-9.69 632.17,-12.01 641.7,-16.64 642.51,-9.69"/>
</g>
<!-- Node19&#45;&gt;Node18 -->
<g id="edge23" class="edge">
<title>Node19&#45;&gt;Node18</title>
<path fill="none" stroke="#63b8ff" d="M752.4,-115.37C739.44,-106.12 718.64,-91.28 703.1,-80.19"/>
<polygon fill="#63b8ff" stroke="#63b8ff" points="704.82,-77.13 694.65,-74.17 700.76,-82.82 704.82,-77.13"/>
</g>
</g>
</svg>
