<?xml version="1.0" encoding="UTF-8" standalone="no"?>
<!DOCTYPE svg PUBLIC "-//W3C//DTD SVG 1.1//EN"
 "http://www.w3.org/Graphics/SVG/1.1/DTD/svg11.dtd">
<!-- Generated by graphviz version 2.43.0 (0)
 -->
<!-- Title: firmware/wombat/src/cli/device_config/cli_power.cpp Pages: 1 -->
<svg width="821pt" height="335pt"
 viewBox="0.00 0.00 821.00 335.00" xmlns="http://www.w3.org/2000/svg" xmlns:xlink="http://www.w3.org/1999/xlink">
<g id="graph0" class="graph" transform="scale(1 1) rotate(0) translate(4 331)">
<title>firmware/wombat/src/cli/device_config/cli_power.cpp</title>
<!-- Node1 -->
<g id="node1" class="node">
<title>Node1</title>
<g id="a_node1"><a xlink:title="Power related commands.">
<polygon fill="#999999" stroke="#666666" points="463.5,-327 343.5,-327 343.5,-286 463.5,-286 463.5,-327"/>
<text text-anchor="start" x="351.5" y="-315" font-family="Helvetica,sans-Serif" font-size="10.00">firmware/wombat/src</text>
<text text-anchor="start" x="351.5" y="-304" font-family="Helvetica,sans-Serif" font-size="10.00">/cli/device_config/cli</text>
<text text-anchor="middle" x="403.5" y="-293" font-family="Helvetica,sans-Serif" font-size="10.00">_power.cpp</text>
</a>
</g>
</g>
<!-- Node2 -->
<g id="node2" class="node">
<title>Node2</title>
<g id="a_node2"><a xlink:href="cli__power_8h.html" target="_top" xlink:title=" ">
<polygon fill="white" stroke="#666666" points="253.5,-195 153.5,-195 153.5,-165 253.5,-165 253.5,-195"/>
<text text-anchor="start" x="161.5" y="-183" font-family="Helvetica,sans-Serif" font-size="10.00">cli/peripherals/cli</text>
<text text-anchor="middle" x="203.5" y="-172" font-family="Helvetica,sans-Serif" font-size="10.00">_power.h</text>
</a>
</g>
</g>
<!-- Node1&#45;&gt;Node2 -->
<g id="edge1" class="edge">
<title>Node1&#45;&gt;Node2</title>
<path fill="none" stroke="#63b8ff" d="M371.81,-285.77C334.34,-262.45 272.36,-223.87 234.99,-200.6"/>
<polygon fill="#63b8ff" stroke="#63b8ff" points="236.38,-197.35 226.04,-195.03 232.68,-203.29 236.38,-197.35"/>
</g>
<!-- Node3 -->
<g id="node3" class="node">
<title>Node3</title>
<g id="a_node3"><a xlink:title=" ">
<polygon fill="#e0e0e0" stroke="#999999" points="113,-129 0,-129 0,-110 113,-110 113,-129"/>
<text text-anchor="middle" x="56.5" y="-117" font-family="Helvetica,sans-Serif" font-size="10.00">freertos/FreeRTOS.h</text>
</a>
</g>
</g>
<!-- Node1&#45;&gt;Node3 -->
<g id="edge11" class="edge">
<title>Node1&#45;&gt;Node3</title>
<path fill="none" stroke="#63b8ff" d="M343.34,-300.21C295.65,-293.87 228.74,-280.03 177.5,-250 128.11,-221.05 86.59,-165.78 67.6,-137.73"/>
<polygon fill="#63b8ff" stroke="#63b8ff" points="70.28,-135.45 61.84,-129.04 64.44,-139.31 70.28,-135.45"/>
</g>
<!-- Node4 -->
<g id="node4" class="node">
<title>Node4</title>
<g id="a_node4"><a xlink:title=" ">
<polygon fill="#e0e0e0" stroke="#999999" points="192,-129 131,-129 131,-110 192,-110 192,-129"/>
<text text-anchor="middle" x="161.5" y="-117" font-family="Helvetica,sans-Serif" font-size="10.00">Stream.h</text>
</a>
</g>
</g>
<!-- Node1&#45;&gt;Node4 -->
<g id="edge12" class="edge">
<title>Node1&#45;&gt;Node4</title>
<path fill="none" stroke="#63b8ff" d="M343.46,-298.72C281.7,-288.19 188.49,-261.59 144.5,-195 133.12,-177.77 141.87,-153.94 150.47,-137.91"/>
<polygon fill="#63b8ff" stroke="#63b8ff" points="153.61,-139.47 155.63,-129.07 147.57,-135.95 153.61,-139.47"/>
</g>
<!-- Node5 -->
<g id="node5" class="node">
<title>Node5</title>
<g id="a_node5"><a xlink:title=" ">
<polygon fill="#e0e0e0" stroke="#999999" points="382,-129 293,-129 293,-110 382,-110 382,-129"/>
<text text-anchor="middle" x="337.5" y="-117" font-family="Helvetica,sans-Serif" font-size="10.00">StreamString.h</text>
</a>
</g>
</g>
<!-- Node1&#45;&gt;Node5 -->
<g id="edge13" class="edge">
<title>Node1&#45;&gt;Node5</title>
<path fill="none" stroke="#63b8ff" d="M411.16,-285.81C420.98,-257.16 434.27,-203.23 412.5,-165 404.2,-150.43 389.05,-140.14 374.52,-133.15"/>
<polygon fill="#63b8ff" stroke="#63b8ff" points="375.71,-129.85 365.15,-129.02 372.89,-136.25 375.71,-129.85"/>
</g>
<!-- Node6 -->
<g id="node6" class="node">
<title>Node6</title>
<g id="a_node6"><a xlink:title=" ">
<polygon fill="#e0e0e0" stroke="#999999" points="507,-129 400,-129 400,-110 507,-110 507,-129"/>
<text text-anchor="middle" x="453.5" y="-117" font-family="Helvetica,sans-Serif" font-size="10.00">cli/FreeRTOS_CLI.h</text>
</a>
</g>
</g>
<!-- Node1&#45;&gt;Node6 -->
<g id="edge14" class="edge">
<title>Node1&#45;&gt;Node6</title>
<path fill="none" stroke="#63b8ff" d="M422.86,-285.91C431.39,-275.99 440.59,-263.26 445.5,-250 459.34,-212.63 457.87,-165.07 455.64,-139.25"/>
<polygon fill="#63b8ff" stroke="#63b8ff" points="459.1,-138.63 454.62,-129.03 452.14,-139.32 459.1,-138.63"/>
</g>
<!-- Node11 -->
<g id="node11" class="node">
<title>Node11</title>
<g id="a_node11"><a xlink:href="_c_l_i_8h.html" target="_top" xlink:title="FreeRTOS CLI handler.">
<polygon fill="white" stroke="#666666" points="403,-250 348,-250 348,-231 403,-231 403,-250"/>
<text text-anchor="middle" x="375.5" y="-238" font-family="Helvetica,sans-Serif" font-size="10.00">cli/CLI.h</text>
</a>
</g>
</g>
<!-- Node1&#45;&gt;Node11 -->
<g id="edge15" class="edge">
<title>Node1&#45;&gt;Node11</title>
<path fill="none" stroke="#63b8ff" d="M394.95,-285.95C391.28,-277.58 387.03,-267.85 383.44,-259.64"/>
<polygon fill="#63b8ff" stroke="#63b8ff" points="386.55,-258.02 379.33,-250.26 380.13,-260.83 386.55,-258.02"/>
</g>
<!-- Node13 -->
<g id="node13" class="node">
<title>Node13</title>
<g id="a_node13"><a xlink:href="battery_8h.html" target="_top" xlink:title="Battery voltage and current monitoring using INA219 IC.">
<polygon fill="white" stroke="#666666" points="813,-250 662,-250 662,-231 813,-231 813,-250"/>
<text text-anchor="middle" x="737.5" y="-238" font-family="Helvetica,sans-Serif" font-size="10.00">power_monitoring/battery.h</text>
</a>
</g>
</g>
<!-- Node1&#45;&gt;Node13 -->
<g id="edge23" class="edge">
<title>Node1&#45;&gt;Node13</title>
<path fill="none" stroke="#63b8ff" d="M463.6,-293.98C526,-282.03 622.77,-263.48 683.01,-251.94"/>
<polygon fill="#63b8ff" stroke="#63b8ff" points="683.93,-255.33 693.09,-250.01 682.61,-248.45 683.93,-255.33"/>
</g>
<!-- Node15 -->
<g id="node15" class="node">
<title>Node15</title>
<g id="a_node15"><a xlink:href="solar_8h.html" target="_top" xlink:title="Solar voltage and current monitoring using INA219 IC.">
<polygon fill="white" stroke="#666666" points="643.5,-250 503.5,-250 503.5,-231 643.5,-231 643.5,-250"/>
<text text-anchor="middle" x="573.5" y="-238" font-family="Helvetica,sans-Serif" font-size="10.00">power_monitoring/solar.h</text>
</a>
</g>
</g>
<!-- Node1&#45;&gt;Node15 -->
<g id="edge26" class="edge">
<title>Node1&#45;&gt;Node15</title>
<path fill="none" stroke="#63b8ff" d="M455.43,-285.95C483.41,-275.42 517.05,-262.75 541.25,-253.64"/>
<polygon fill="#63b8ff" stroke="#63b8ff" points="542.55,-256.89 550.68,-250.09 540.09,-250.34 542.55,-256.89"/>
</g>
<!-- Node2&#45;&gt;Node3 -->
<g id="edge2" class="edge">
<title>Node2&#45;&gt;Node3</title>
<path fill="none" stroke="#63b8ff" d="M168.29,-164.99C143.76,-155.23 111.35,-142.33 87.74,-132.93"/>
<polygon fill="#63b8ff" stroke="#63b8ff" points="88.79,-129.58 78.21,-129.14 86.21,-136.09 88.79,-129.58"/>
</g>
<!-- Node2&#45;&gt;Node4 -->
<g id="edge3" class="edge">
<title>Node2&#45;&gt;Node4</title>
<path fill="none" stroke="#63b8ff" d="M193.33,-164.84C187.42,-156.61 179.94,-146.18 173.71,-137.51"/>
<polygon fill="#63b8ff" stroke="#63b8ff" points="176.47,-135.35 167.79,-129.27 170.78,-139.43 176.47,-135.35"/>
</g>
<!-- Node2&#45;&gt;Node5 -->
<g id="edge4" class="edge">
<title>Node2&#45;&gt;Node5</title>
<path fill="none" stroke="#63b8ff" d="M235.6,-164.99C257.75,-155.31 286.98,-142.56 308.45,-133.18"/>
<polygon fill="#63b8ff" stroke="#63b8ff" points="309.95,-136.35 317.71,-129.14 307.15,-129.93 309.95,-136.35"/>
</g>
<!-- Node2&#45;&gt;Node6 -->
<g id="edge5" class="edge">
<title>Node2&#45;&gt;Node6</title>
<path fill="none" stroke="#63b8ff" d="M253.71,-167.07C256.68,-166.37 259.63,-165.67 262.5,-165 311.64,-153.45 367.92,-140.35 406.59,-131.37"/>
<polygon fill="#63b8ff" stroke="#63b8ff" points="407.57,-134.74 416.52,-129.07 405.98,-127.92 407.57,-134.74"/>
</g>
<!-- Node7 -->
<g id="node7" class="node">
<title>Node7</title>
<g id="a_node7"><a xlink:href="_c_a_t___m1_8h.html" target="_top" xlink:title=" ">
<polygon fill="white" stroke="#666666" points="275,-129 210,-129 210,-110 275,-110 275,-129"/>
<text text-anchor="middle" x="242.5" y="-117" font-family="Helvetica,sans-Serif" font-size="10.00">CAT_M1.h</text>
</a>
</g>
</g>
<!-- Node2&#45;&gt;Node7 -->
<g id="edge6" class="edge">
<title>Node2&#45;&gt;Node7</title>
<path fill="none" stroke="#63b8ff" d="M212.94,-164.84C218.37,-156.69 225.23,-146.4 230.98,-137.78"/>
<polygon fill="#63b8ff" stroke="#63b8ff" points="234.02,-139.53 236.66,-129.27 228.2,-135.65 234.02,-139.53"/>
</g>
<!-- Node8 -->
<g id="node8" class="node">
<title>Node8</title>
<g id="a_node8"><a xlink:title=" ">
<polygon fill="#e0e0e0" stroke="#999999" points="297.5,-19 249.5,-19 249.5,0 297.5,0 297.5,-19"/>
<text text-anchor="middle" x="273.5" y="-7" font-family="Helvetica,sans-Serif" font-size="10.00">Wire.h</text>
</a>
</g>
</g>
<!-- Node7&#45;&gt;Node8 -->
<g id="edge7" class="edge">
<title>Node7&#45;&gt;Node8</title>
<path fill="none" stroke="#63b8ff" d="M245.04,-109.66C250.08,-92.09 261.46,-52.45 268.2,-28.95"/>
<polygon fill="#63b8ff" stroke="#63b8ff" points="271.62,-29.74 271.01,-19.16 264.89,-27.8 271.62,-29.74"/>
</g>
<!-- Node9 -->
<g id="node9" class="node">
<title>Node9</title>
<g id="a_node9"><a xlink:href="_t_c_a9534_8h.html" target="_top" xlink:title=" ">
<polygon fill="white" stroke="#666666" points="338.5,-74 270.5,-74 270.5,-55 338.5,-55 338.5,-74"/>
<text text-anchor="middle" x="304.5" y="-62" font-family="Helvetica,sans-Serif" font-size="10.00">TCA9534.h</text>
</a>
</g>
</g>
<!-- Node7&#45;&gt;Node9 -->
<g id="edge8" class="edge">
<title>Node7&#45;&gt;Node9</title>
<path fill="none" stroke="#63b8ff" d="M252.46,-109.98C261.63,-102.15 275.44,-90.34 286.53,-80.86"/>
<polygon fill="#63b8ff" stroke="#63b8ff" points="289.03,-83.33 294.36,-74.17 284.48,-78.01 289.03,-83.33"/>
</g>
<!-- Node9&#45;&gt;Node8 -->
<g id="edge10" class="edge">
<title>Node9&#45;&gt;Node8</title>
<path fill="none" stroke="#63b8ff" d="M299.38,-54.75C295.14,-47.49 288.97,-36.95 283.72,-27.98"/>
<polygon fill="#63b8ff" stroke="#63b8ff" points="286.59,-25.95 278.52,-19.09 280.55,-29.49 286.59,-25.95"/>
</g>
<!-- Node10 -->
<g id="node10" class="node">
<title>Node10</title>
<g id="a_node10"><a xlink:title=" ">
<polygon fill="#e0e0e0" stroke="#999999" points="586,-19 523,-19 523,0 586,0 586,-19"/>
<text text-anchor="middle" x="554.5" y="-7" font-family="Helvetica,sans-Serif" font-size="10.00">Arduino.h</text>
</a>
</g>
</g>
<!-- Node9&#45;&gt;Node10 -->
<g id="edge9" class="edge">
<title>Node9&#45;&gt;Node10</title>
<path fill="none" stroke="#63b8ff" d="M338.74,-56.24C384.06,-46.63 463.91,-29.7 512.73,-19.36"/>
<polygon fill="#63b8ff" stroke="#63b8ff" points="513.59,-22.75 522.65,-17.25 512.14,-15.9 513.59,-22.75"/>
</g>
<!-- Node11&#45;&gt;Node10 -->
<g id="edge16" class="edge">
<title>Node11&#45;&gt;Node10</title>
<path fill="none" stroke="#63b8ff" d="M391.89,-230.87C421,-214.73 481.78,-177.21 515.5,-129 537.25,-97.9 547.5,-53.85 551.8,-29.15"/>
<polygon fill="#63b8ff" stroke="#63b8ff" points="555.3,-29.43 553.42,-19 548.39,-28.33 555.3,-29.43"/>
</g>
<!-- Node12 -->
<g id="node12" class="node">
<title>Node12</title>
<g id="a_node12"><a xlink:href="cat-m1_8h.html" target="_top" xlink:title="CAT&#45;M1 CLI command request and response handler.">
<polygon fill="white" stroke="#666666" points="403.5,-189.5 271.5,-189.5 271.5,-170.5 403.5,-170.5 403.5,-189.5"/>
<text text-anchor="middle" x="337.5" y="-177.5" font-family="Helvetica,sans-Serif" font-size="10.00">cli/peripherals/cat&#45;m1.h</text>
</a>
</g>
</g>
<!-- Node11&#45;&gt;Node12 -->
<g id="edge17" class="edge">
<title>Node11&#45;&gt;Node12</title>
<path fill="none" stroke="#63b8ff" d="M369.89,-230.87C364.34,-222.31 355.67,-208.97 348.7,-198.24"/>
<polygon fill="#63b8ff" stroke="#63b8ff" points="351.51,-196.15 343.13,-189.67 345.64,-199.96 351.51,-196.15"/>
</g>
<!-- Node12&#45;&gt;Node3 -->
<g id="edge18" class="edge">
<title>Node12&#45;&gt;Node3</title>
<path fill="none" stroke="#63b8ff" d="M296.64,-170.49C246.59,-160.07 161.78,-142.42 107.51,-131.12"/>
<polygon fill="#63b8ff" stroke="#63b8ff" points="107.91,-127.63 97.41,-129.02 106.49,-134.48 107.91,-127.63"/>
</g>
<!-- Node12&#45;&gt;Node4 -->
<g id="edge19" class="edge">
<title>Node12&#45;&gt;Node4</title>
<path fill="none" stroke="#63b8ff" d="M311.91,-170.49C281.54,-160.4 230.74,-143.51 196.68,-132.19"/>
<polygon fill="#63b8ff" stroke="#63b8ff" points="197.72,-128.85 187.12,-129.02 195.51,-135.49 197.72,-128.85"/>
</g>
<!-- Node12&#45;&gt;Node5 -->
<g id="edge20" class="edge">
<title>Node12&#45;&gt;Node5</title>
<path fill="none" stroke="#63b8ff" d="M337.5,-170.37C337.5,-162.25 337.5,-149.81 337.5,-139.39"/>
<polygon fill="#63b8ff" stroke="#63b8ff" points="341,-139.17 337.5,-129.17 334,-139.17 341,-139.17"/>
</g>
<!-- Node12&#45;&gt;Node6 -->
<g id="edge21" class="edge">
<title>Node12&#45;&gt;Node6</title>
<path fill="none" stroke="#63b8ff" d="M354.62,-170.37C373.72,-160.73 404.87,-145.03 427.1,-133.81"/>
<polygon fill="#63b8ff" stroke="#63b8ff" points="428.96,-136.8 436.31,-129.17 425.81,-130.55 428.96,-136.8"/>
</g>
<!-- Node12&#45;&gt;Node7 -->
<g id="edge22" class="edge">
<title>Node12&#45;&gt;Node7</title>
<path fill="none" stroke="#63b8ff" d="M323.48,-170.37C308.19,-160.95 283.47,-145.73 265.36,-134.58"/>
<polygon fill="#63b8ff" stroke="#63b8ff" points="266.93,-131.43 256.58,-129.17 263.25,-137.39 266.93,-131.43"/>
</g>
<!-- Node13&#45;&gt;Node10 -->
<g id="edge24" class="edge">
<title>Node13&#45;&gt;Node10</title>
<path fill="none" stroke="#63b8ff" d="M736.69,-230.64C735.03,-216.03 730.25,-186.4 717.5,-165 680.5,-102.88 611.58,-49.69 576.4,-25.09"/>
<polygon fill="#63b8ff" stroke="#63b8ff" points="578.04,-21.97 567.82,-19.19 574.08,-27.74 578.04,-21.97"/>
</g>
<!-- Node14 -->
<g id="node14" class="node">
<title>Node14</title>
<g id="a_node14"><a xlink:title=" ">
<polygon fill="#e0e0e0" stroke="#999999" points="708,-189.5 603,-189.5 603,-170.5 708,-170.5 708,-189.5"/>
<text text-anchor="middle" x="655.5" y="-177.5" font-family="Helvetica,sans-Serif" font-size="10.00">Adafruit_INA219.h</text>
</a>
</g>
</g>
<!-- Node13&#45;&gt;Node14 -->
<g id="edge25" class="edge">
<title>Node13&#45;&gt;Node14</title>
<path fill="none" stroke="#63b8ff" d="M725.4,-230.87C712.44,-221.62 691.64,-206.78 676.1,-195.69"/>
<polygon fill="#63b8ff" stroke="#63b8ff" points="677.82,-192.63 667.65,-189.67 673.76,-198.32 677.82,-192.63"/>
</g>
<!-- Node15&#45;&gt;Node10 -->
<g id="edge27" class="edge">
<title>Node15&#45;&gt;Node10</title>
<path fill="none" stroke="#63b8ff" d="M572.78,-230.8C570,-197.29 559.94,-76.08 556.05,-29.2"/>
<polygon fill="#63b8ff" stroke="#63b8ff" points="559.54,-28.88 555.22,-19.21 552.56,-29.46 559.54,-28.88"/>
</g>
<!-- Node15&#45;&gt;Node14 -->
<g id="edge28" class="edge">
<title>Node15&#45;&gt;Node14</title>
<path fill="none" stroke="#63b8ff" d="M585.6,-230.87C598.56,-221.62 619.36,-206.78 634.9,-195.69"/>
<polygon fill="#63b8ff" stroke="#63b8ff" points="637.24,-198.32 643.35,-189.67 633.18,-192.63 637.24,-198.32"/>
</g>
</g>
</svg>
