<?xml version="1.0" encoding="UTF-8" standalone="no"?>
<!DOCTYPE svg PUBLIC "-//W3C//DTD SVG 1.1//EN"
 "http://www.w3.org/Graphics/SVG/1.1/DTD/svg11.dtd">
<!-- Generated by graphviz version 2.43.0 (0)
 -->
<!-- Title: firmware/wombat/src/cli/device_config/cli_power.cpp Pages: 1 -->
<svg width="762pt" height="280pt"
 viewBox="0.00 0.00 761.50 280.00" xmlns="http://www.w3.org/2000/svg" xmlns:xlink="http://www.w3.org/1999/xlink">
<g id="graph0" class="graph" transform="scale(1 1) rotate(0) translate(4 276)">
<title>firmware/wombat/src/cli/device_config/cli_power.cpp</title>
<!-- Node1 -->
<g id="node1" class="node">
<title>Node1</title>
<g id="a_node1"><a xlink:title="Power related commands.">
<polygon fill="#999999" stroke="#666666" points="397.5,-272 277.5,-272 277.5,-231 397.5,-231 397.5,-272"/>
<text text-anchor="start" x="285.5" y="-260" font-family="Helvetica,sans-Serif" font-size="10.00">firmware/wombat/src</text>
<text text-anchor="start" x="285.5" y="-249" font-family="Helvetica,sans-Serif" font-size="10.00">/cli/device_config/cli</text>
<text text-anchor="middle" x="337.5" y="-238" font-family="Helvetica,sans-Serif" font-size="10.00">_power.cpp</text>
</a>
</g>
</g>
<!-- Node2 -->
<g id="node2" class="node">
<title>Node2</title>
<g id="a_node2"><a xlink:href="cli__power_8h.html" target="_top" xlink:title=" ">
<polygon fill="white" stroke="#666666" points="300.5,-195 200.5,-195 200.5,-165 300.5,-165 300.5,-195"/>
<text text-anchor="start" x="208.5" y="-183" font-family="Helvetica,sans-Serif" font-size="10.00">cli/peripherals/cli</text>
<text text-anchor="middle" x="250.5" y="-172" font-family="Helvetica,sans-Serif" font-size="10.00">_power.h</text>
</a>
</g>
</g>
<!-- Node1&#45;&gt;Node2 -->
<g id="edge1" class="edge">
<title>Node1&#45;&gt;Node2</title>
<path fill="none" stroke="#63b8ff" d="M312.8,-230.77C301.32,-221.6 287.68,-210.7 276.09,-201.44"/>
<polygon fill="#63b8ff" stroke="#63b8ff" points="278.07,-198.55 268.07,-195.04 273.7,-204.01 278.07,-198.55"/>
</g>
<!-- Node3 -->
<g id="node3" class="node">
<title>Node3</title>
<g id="a_node3"><a xlink:title=" ">
<polygon fill="#e0e0e0" stroke="#999999" points="113,-129 0,-129 0,-110 113,-110 113,-129"/>
<text text-anchor="middle" x="56.5" y="-117" font-family="Helvetica,sans-Serif" font-size="10.00">freertos/FreeRTOS.h</text>
</a>
</g>
</g>
<!-- Node1&#45;&gt;Node3 -->
<g id="edge11" class="edge">
<title>Node1&#45;&gt;Node3</title>
<path fill="none" stroke="#63b8ff" d="M277.3,-234.81C244.59,-225.25 203.92,-211.67 169.5,-195 134.37,-177.99 97.25,-151.69 75.52,-135.31"/>
<polygon fill="#63b8ff" stroke="#63b8ff" points="77.53,-132.44 67.46,-129.16 73.28,-138.01 77.53,-132.44"/>
</g>
<!-- Node4 -->
<g id="node4" class="node">
<title>Node4</title>
<g id="a_node4"><a xlink:title=" ">
<polygon fill="#e0e0e0" stroke="#999999" points="192,-129 131,-129 131,-110 192,-110 192,-129"/>
<text text-anchor="middle" x="161.5" y="-117" font-family="Helvetica,sans-Serif" font-size="10.00">Stream.h</text>
</a>
</g>
</g>
<!-- Node1&#45;&gt;Node4 -->
<g id="edge12" class="edge">
<title>Node1&#45;&gt;Node4</title>
<path fill="none" stroke="#63b8ff" d="M277.34,-239.44C248.27,-231.4 214.73,-217.78 191.5,-195 176.13,-179.93 168.39,-155.94 164.66,-139.27"/>
<polygon fill="#63b8ff" stroke="#63b8ff" points="168.03,-138.25 162.68,-129.1 161.16,-139.59 168.03,-138.25"/>
</g>
<!-- Node5 -->
<g id="node5" class="node">
<title>Node5</title>
<g id="a_node5"><a xlink:title=" ">
<polygon fill="#e0e0e0" stroke="#999999" points="382,-129 293,-129 293,-110 382,-110 382,-129"/>
<text text-anchor="middle" x="337.5" y="-117" font-family="Helvetica,sans-Serif" font-size="10.00">StreamString.h</text>
</a>
</g>
</g>
<!-- Node1&#45;&gt;Node5 -->
<g id="edge13" class="edge">
<title>Node1&#45;&gt;Node5</title>
<path fill="none" stroke="#63b8ff" d="M337.5,-230.76C337.5,-205.86 337.5,-163.38 337.5,-139.06"/>
<polygon fill="#63b8ff" stroke="#63b8ff" points="341,-139.01 337.5,-129.01 334,-139.01 341,-139.01"/>
</g>
<!-- Node6 -->
<g id="node6" class="node">
<title>Node6</title>
<g id="a_node6"><a xlink:title=" ">
<polygon fill="#e0e0e0" stroke="#999999" points="507,-129 400,-129 400,-110 507,-110 507,-129"/>
<text text-anchor="middle" x="453.5" y="-117" font-family="Helvetica,sans-Serif" font-size="10.00">cli/FreeRTOS_CLI.h</text>
</a>
</g>
</g>
<!-- Node1&#45;&gt;Node6 -->
<g id="edge14" class="edge">
<title>Node1&#45;&gt;Node6</title>
<path fill="none" stroke="#63b8ff" d="M355.12,-230.76C378.14,-204.96 418,-160.28 439.23,-136.49"/>
<polygon fill="#63b8ff" stroke="#63b8ff" points="441.86,-138.8 445.9,-129.01 436.63,-134.14 441.86,-138.8"/>
</g>
<!-- Node11 -->
<g id="node11" class="node">
<title>Node11</title>
<g id="a_node11"><a xlink:href="battery_8h.html" target="_top" xlink:title="Battery voltage and current monitoring using INA219 IC.">
<polygon fill="white" stroke="#666666" points="595,-189.5 444,-189.5 444,-170.5 595,-170.5 595,-189.5"/>
<text text-anchor="middle" x="519.5" y="-177.5" font-family="Helvetica,sans-Serif" font-size="10.00">power_monitoring/battery.h</text>
</a>
</g>
</g>
<!-- Node1&#45;&gt;Node11 -->
<g id="edge15" class="edge">
<title>Node1&#45;&gt;Node11</title>
<path fill="none" stroke="#63b8ff" d="M388.68,-230.96C420.52,-218.8 460.46,-203.55 487.78,-193.11"/>
<polygon fill="#63b8ff" stroke="#63b8ff" points="489.14,-196.34 497.23,-189.5 486.64,-189.8 489.14,-196.34"/>
</g>
<!-- Node13 -->
<g id="node13" class="node">
<title>Node13</title>
<g id="a_node13"><a xlink:href="solar_8h.html" target="_top" xlink:title="Solar voltage and current monitoring using INA219 IC.">
<polygon fill="white" stroke="#666666" points="753.5,-189.5 613.5,-189.5 613.5,-170.5 753.5,-170.5 753.5,-189.5"/>
<text text-anchor="middle" x="683.5" y="-177.5" font-family="Helvetica,sans-Serif" font-size="10.00">power_monitoring/solar.h</text>
</a>
</g>
</g>
<!-- Node1&#45;&gt;Node13 -->
<g id="edge18" class="edge">
<title>Node1&#45;&gt;Node13</title>
<path fill="none" stroke="#63b8ff" d="M397.77,-238.39C463.7,-225.15 568.33,-204.13 631.01,-191.54"/>
<polygon fill="#63b8ff" stroke="#63b8ff" points="631.96,-194.92 641.08,-189.52 630.59,-188.06 631.96,-194.92"/>
</g>
<!-- Node2&#45;&gt;Node3 -->
<g id="edge2" class="edge">
<title>Node2&#45;&gt;Node3</title>
<path fill="none" stroke="#63b8ff" d="M204.03,-164.99C170.55,-154.89 125.93,-141.44 94.56,-131.98"/>
<polygon fill="#63b8ff" stroke="#63b8ff" points="95.45,-128.59 84.87,-129.05 93.43,-135.29 95.45,-128.59"/>
</g>
<!-- Node2&#45;&gt;Node4 -->
<g id="edge3" class="edge">
<title>Node2&#45;&gt;Node4</title>
<path fill="none" stroke="#63b8ff" d="M228.96,-164.84C215.03,-155.68 196.97,-143.82 183.05,-134.66"/>
<polygon fill="#63b8ff" stroke="#63b8ff" points="184.85,-131.66 174.58,-129.09 181.01,-137.51 184.85,-131.66"/>
</g>
<!-- Node2&#45;&gt;Node5 -->
<g id="edge4" class="edge">
<title>Node2&#45;&gt;Node5</title>
<path fill="none" stroke="#63b8ff" d="M271.56,-164.84C285.04,-155.77 302.49,-144.04 316.05,-134.92"/>
<polygon fill="#63b8ff" stroke="#63b8ff" points="318.37,-137.58 324.72,-129.09 314.47,-131.77 318.37,-137.58"/>
</g>
<!-- Node2&#45;&gt;Node6 -->
<g id="edge5" class="edge">
<title>Node2&#45;&gt;Node6</title>
<path fill="none" stroke="#63b8ff" d="M299.12,-164.99C334.31,-154.85 381.26,-141.32 414.1,-131.85"/>
<polygon fill="#63b8ff" stroke="#63b8ff" points="415.18,-135.19 423.82,-129.05 413.24,-128.46 415.18,-135.19"/>
</g>
<!-- Node7 -->
<g id="node7" class="node">
<title>Node7</title>
<g id="a_node7"><a xlink:href="_c_a_t___m1_8h.html" target="_top" xlink:title=" ">
<polygon fill="white" stroke="#666666" points="275,-129 210,-129 210,-110 275,-110 275,-129"/>
<text text-anchor="middle" x="242.5" y="-117" font-family="Helvetica,sans-Serif" font-size="10.00">CAT_M1.h</text>
</a>
</g>
</g>
<!-- Node2&#45;&gt;Node7 -->
<g id="edge6" class="edge">
<title>Node2&#45;&gt;Node7</title>
<path fill="none" stroke="#63b8ff" d="M248.56,-164.84C247.52,-157.21 246.22,-147.7 245.09,-139.45"/>
<polygon fill="#63b8ff" stroke="#63b8ff" points="248.52,-138.7 243.7,-129.27 241.59,-139.65 248.52,-138.7"/>
</g>
<!-- Node8 -->
<g id="node8" class="node">
<title>Node8</title>
<g id="a_node8"><a xlink:title=" ">
<polygon fill="#e0e0e0" stroke="#999999" points="297.5,-19 249.5,-19 249.5,0 297.5,0 297.5,-19"/>
<text text-anchor="middle" x="273.5" y="-7" font-family="Helvetica,sans-Serif" font-size="10.00">Wire.h</text>
</a>
</g>
</g>
<!-- Node7&#45;&gt;Node8 -->
<g id="edge7" class="edge">
<title>Node7&#45;&gt;Node8</title>
<path fill="none" stroke="#63b8ff" d="M245.04,-109.66C250.08,-92.09 261.46,-52.45 268.2,-28.95"/>
<polygon fill="#63b8ff" stroke="#63b8ff" points="271.62,-29.74 271.01,-19.16 264.89,-27.8 271.62,-29.74"/>
</g>
<!-- Node9 -->
<g id="node9" class="node">
<title>Node9</title>
<g id="a_node9"><a xlink:href="_t_c_a9534_8h.html" target="_top" xlink:title=" ">
<polygon fill="white" stroke="#666666" points="338.5,-74 270.5,-74 270.5,-55 338.5,-55 338.5,-74"/>
<text text-anchor="middle" x="304.5" y="-62" font-family="Helvetica,sans-Serif" font-size="10.00">TCA9534.h</text>
</a>
</g>
</g>
<!-- Node7&#45;&gt;Node9 -->
<g id="edge8" class="edge">
<title>Node7&#45;&gt;Node9</title>
<path fill="none" stroke="#63b8ff" d="M252.46,-109.98C261.63,-102.15 275.44,-90.34 286.53,-80.86"/>
<polygon fill="#63b8ff" stroke="#63b8ff" points="289.03,-83.33 294.36,-74.17 284.48,-78.01 289.03,-83.33"/>
</g>
<!-- Node9&#45;&gt;Node8 -->
<g id="edge10" class="edge">
<title>Node9&#45;&gt;Node8</title>
<path fill="none" stroke="#63b8ff" d="M299.38,-54.75C295.14,-47.49 288.97,-36.95 283.72,-27.98"/>
<polygon fill="#63b8ff" stroke="#63b8ff" points="286.59,-25.95 278.52,-19.09 280.55,-29.49 286.59,-25.95"/>
</g>
<!-- Node10 -->
<g id="node10" class="node">
<title>Node10</title>
<g id="a_node10"><a xlink:title=" ">
<polygon fill="#e0e0e0" stroke="#999999" points="567,-19 504,-19 504,0 567,0 567,-19"/>
<text text-anchor="middle" x="535.5" y="-7" font-family="Helvetica,sans-Serif" font-size="10.00">Arduino.h</text>
</a>
</g>
</g>
<!-- Node9&#45;&gt;Node10 -->
<g id="edge9" class="edge">
<title>Node9&#45;&gt;Node10</title>
<path fill="none" stroke="#63b8ff" d="M338.58,-55.68C379.92,-46.2 449.55,-30.22 493.98,-20.03"/>
<polygon fill="#63b8ff" stroke="#63b8ff" points="494.91,-23.4 503.88,-17.76 493.35,-16.58 494.91,-23.4"/>
</g>
<!-- Node11&#45;&gt;Node10 -->
<g id="edge16" class="edge">
<title>Node11&#45;&gt;Node10</title>
<path fill="none" stroke="#63b8ff" d="M520.32,-170.41C522.79,-144.39 530.23,-65.97 533.69,-29.51"/>
<polygon fill="#63b8ff" stroke="#63b8ff" points="537.21,-29.56 534.67,-19.27 530.24,-28.9 537.21,-29.56"/>
</g>
<!-- Node12 -->
<g id="node12" class="node">
<title>Node12</title>
<g id="a_node12"><a xlink:title=" ">
<polygon fill="#e0e0e0" stroke="#999999" points="669,-129 564,-129 564,-110 669,-110 669,-129"/>
<text text-anchor="middle" x="616.5" y="-117" font-family="Helvetica,sans-Serif" font-size="10.00">Adafruit_INA219.h</text>
</a>
</g>
</g>
<!-- Node11&#45;&gt;Node12 -->
<g id="edge17" class="edge">
<title>Node11&#45;&gt;Node12</title>
<path fill="none" stroke="#63b8ff" d="M533.81,-170.37C549.5,-160.91 574.9,-145.59 593.41,-134.42"/>
<polygon fill="#63b8ff" stroke="#63b8ff" points="595.37,-137.33 602.13,-129.17 591.76,-131.33 595.37,-137.33"/>
</g>
<!-- Node13&#45;&gt;Node10 -->
<g id="edge19" class="edge">
<title>Node13&#45;&gt;Node10</title>
<path fill="none" stroke="#63b8ff" d="M685.13,-170.25C687.23,-156.45 689.44,-129.2 678.5,-110 653.98,-66.94 602.28,-38.24 568.23,-23.16"/>
<polygon fill="#63b8ff" stroke="#63b8ff" points="569.28,-19.8 558.7,-19.09 566.53,-26.24 569.28,-19.8"/>
</g>
<!-- Node13&#45;&gt;Node12 -->
<g id="edge20" class="edge">
<title>Node13&#45;&gt;Node12</title>
<path fill="none" stroke="#63b8ff" d="M673.61,-170.37C663.22,-161.3 646.66,-146.84 634.05,-135.82"/>
<polygon fill="#63b8ff" stroke="#63b8ff" points="636.26,-133.11 626.43,-129.17 631.66,-138.38 636.26,-133.11"/>
</g>
</g>
</svg>
