<?xml version="1.0" encoding="UTF-8" standalone="no"?>
<!DOCTYPE svg PUBLIC "-//W3C//DTD SVG 1.1//EN"
 "http://www.w3.org/Graphics/SVG/1.1/DTD/svg11.dtd">
<!-- Generated by graphviz version 2.43.0 (0)
 -->
<!-- Title: firmware/wombat/src/cli/device_config/cli_power.cpp Pages: 1 -->
<svg width="992pt" height="291pt"
 viewBox="0.00 0.00 991.50 291.00" xmlns="http://www.w3.org/2000/svg" xmlns:xlink="http://www.w3.org/1999/xlink">
<g id="graph0" class="graph" transform="scale(1 1) rotate(0) translate(4 287)">
<title>firmware/wombat/src/cli/device_config/cli_power.cpp</title>
<!-- Node1 -->
<g id="node1" class="node">
<title>Node1</title>
<g id="a_node1"><a xlink:title="Power related commands.">
<polygon fill="#999999" stroke="#666666" points="347.5,-283 227.5,-283 227.5,-242 347.5,-242 347.5,-283"/>
<text text-anchor="start" x="235.5" y="-271" font-family="Helvetica,sans-Serif" font-size="10.00">firmware/wombat/src</text>
<text text-anchor="start" x="235.5" y="-260" font-family="Helvetica,sans-Serif" font-size="10.00">/cli/device_config/cli</text>
<text text-anchor="middle" x="287.5" y="-249" font-family="Helvetica,sans-Serif" font-size="10.00">_power.cpp</text>
</a>
</g>
</g>
<!-- Node2 -->
<g id="node2" class="node">
<title>Node2</title>
<g id="a_node2"><a xlink:href="cli__power_8h.html" target="_top" xlink:title=" ">
<polygon fill="white" stroke="#666666" points="298.5,-206 198.5,-206 198.5,-176 298.5,-176 298.5,-206"/>
<text text-anchor="start" x="206.5" y="-194" font-family="Helvetica,sans-Serif" font-size="10.00">cli/peripherals/cli</text>
<text text-anchor="middle" x="248.5" y="-183" font-family="Helvetica,sans-Serif" font-size="10.00">_power.h</text>
</a>
</g>
</g>
<!-- Node1&#45;&gt;Node2 -->
<g id="edge1" class="edge">
<title>Node1&#45;&gt;Node2</title>
<path fill="none" stroke="#63b8ff" d="M276.43,-241.77C271.73,-233.4 266.23,-223.59 261.35,-214.9"/>
<polygon fill="#63b8ff" stroke="#63b8ff" points="264.32,-213.05 256.38,-206.04 258.22,-216.47 264.32,-213.05"/>
</g>
<!-- Node3 -->
<g id="node3" class="node">
<title>Node3</title>
<g id="a_node3"><a xlink:title=" ">
<polygon fill="#e0e0e0" stroke="#999999" points="113,-134.5 0,-134.5 0,-115.5 113,-115.5 113,-134.5"/>
<text text-anchor="middle" x="56.5" y="-122.5" font-family="Helvetica,sans-Serif" font-size="10.00">freertos/FreeRTOS.h</text>
</a>
</g>
</g>
<!-- Node1&#45;&gt;Node3 -->
<g id="edge11" class="edge">
<title>Node1&#45;&gt;Node3</title>
<path fill="none" stroke="#63b8ff" d="M241.58,-241.89C219.62,-231.97 193.23,-219.24 170.5,-206 135.61,-185.68 97.73,-157.83 75.61,-140.92"/>
<polygon fill="#63b8ff" stroke="#63b8ff" points="77.47,-137.93 67.41,-134.6 73.19,-143.48 77.47,-137.93"/>
</g>
<!-- Node4 -->
<g id="node4" class="node">
<title>Node4</title>
<g id="a_node4"><a xlink:title=" ">
<polygon fill="#e0e0e0" stroke="#999999" points="192,-134.5 131,-134.5 131,-115.5 192,-115.5 192,-134.5"/>
<text text-anchor="middle" x="161.5" y="-122.5" font-family="Helvetica,sans-Serif" font-size="10.00">Stream.h</text>
</a>
</g>
</g>
<!-- Node1&#45;&gt;Node4 -->
<g id="edge12" class="edge">
<title>Node1&#45;&gt;Node4</title>
<path fill="none" stroke="#63b8ff" d="M237.41,-241.9C220.27,-233.11 202.23,-221.23 189.5,-206 174.72,-188.31 167.54,-162.31 164.2,-144.79"/>
<polygon fill="#63b8ff" stroke="#63b8ff" points="167.61,-143.97 162.51,-134.68 160.7,-145.12 167.61,-143.97"/>
</g>
<!-- Node5 -->
<g id="node5" class="node">
<title>Node5</title>
<g id="a_node5"><a xlink:title=" ">
<polygon fill="#e0e0e0" stroke="#999999" points="299,-134.5 210,-134.5 210,-115.5 299,-115.5 299,-134.5"/>
<text text-anchor="middle" x="254.5" y="-122.5" font-family="Helvetica,sans-Serif" font-size="10.00">StreamString.h</text>
</a>
</g>
</g>
<!-- Node1&#45;&gt;Node5 -->
<g id="edge13" class="edge">
<title>Node1&#45;&gt;Node5</title>
<path fill="none" stroke="#63b8ff" d="M298.92,-241.86C307.67,-224.12 316.8,-197.56 307.5,-176 301.27,-161.56 288.59,-149.35 277.2,-140.62"/>
<polygon fill="#63b8ff" stroke="#63b8ff" points="279.03,-137.62 268.87,-134.63 274.95,-143.31 279.03,-137.62"/>
</g>
<!-- Node6 -->
<g id="node6" class="node">
<title>Node6</title>
<g id="a_node6"><a xlink:title=" ">
<polygon fill="#e0e0e0" stroke="#999999" points="424,-134.5 317,-134.5 317,-115.5 424,-115.5 424,-134.5"/>
<text text-anchor="middle" x="370.5" y="-122.5" font-family="Helvetica,sans-Serif" font-size="10.00">cli/FreeRTOS_CLI.h</text>
</a>
</g>
</g>
<!-- Node1&#45;&gt;Node6 -->
<g id="edge14" class="edge">
<title>Node1&#45;&gt;Node6</title>
<path fill="none" stroke="#63b8ff" d="M300.54,-241.86C307.48,-231.3 316.08,-218.02 323.5,-206 336.54,-184.89 350.9,-160.22 360.28,-143.92"/>
<polygon fill="#63b8ff" stroke="#63b8ff" points="363.48,-145.37 365.41,-134.96 357.4,-141.89 363.48,-145.37"/>
</g>
<!-- Node11 -->
<g id="node11" class="node">
<title>Node11</title>
<g id="a_node11"><a xlink:href="globals_8h.html" target="_top" xlink:title=" ">
<polygon fill="white" stroke="#666666" points="626,-200.5 565,-200.5 565,-181.5 626,-181.5 626,-200.5"/>
<text text-anchor="middle" x="595.5" y="-188.5" font-family="Helvetica,sans-Serif" font-size="10.00">globals.h</text>
</a>
</g>
</g>
<!-- Node1&#45;&gt;Node11 -->
<g id="edge15" class="edge">
<title>Node1&#45;&gt;Node11</title>
<path fill="none" stroke="#63b8ff" d="M347.62,-247.93C408.67,-234.16 501.56,-213.2 554.59,-201.23"/>
<polygon fill="#63b8ff" stroke="#63b8ff" points="555.66,-204.58 564.64,-198.96 554.12,-197.75 555.66,-204.58"/>
</g>
<!-- Node2&#45;&gt;Node3 -->
<g id="edge2" class="edge">
<title>Node2&#45;&gt;Node3</title>
<path fill="none" stroke="#63b8ff" d="M206.36,-175.95C171.95,-164.48 123.88,-148.46 91.55,-137.68"/>
<polygon fill="#63b8ff" stroke="#63b8ff" points="92.65,-134.36 82.05,-134.52 90.43,-141 92.65,-134.36"/>
</g>
<!-- Node2&#45;&gt;Node4 -->
<g id="edge3" class="edge">
<title>Node2&#45;&gt;Node4</title>
<path fill="none" stroke="#63b8ff" d="M229.19,-175.8C215.01,-165.37 195.81,-151.24 181.48,-140.69"/>
<polygon fill="#63b8ff" stroke="#63b8ff" points="183.4,-137.76 173.27,-134.66 179.25,-143.4 183.4,-137.76"/>
</g>
<!-- Node2&#45;&gt;Node5 -->
<g id="edge4" class="edge">
<title>Node2&#45;&gt;Node5</title>
<path fill="none" stroke="#63b8ff" d="M249.83,-175.8C250.68,-166.7 251.8,-154.79 252.73,-144.9"/>
<polygon fill="#63b8ff" stroke="#63b8ff" points="256.22,-145.13 253.67,-134.84 249.25,-144.47 256.22,-145.13"/>
</g>
<!-- Node2&#45;&gt;Node6 -->
<g id="edge5" class="edge">
<title>Node2&#45;&gt;Node6</title>
<path fill="none" stroke="#63b8ff" d="M275.27,-175.95C296.1,-165.03 324.81,-149.97 345.24,-139.25"/>
<polygon fill="#63b8ff" stroke="#63b8ff" points="347.03,-142.26 354.26,-134.52 343.78,-136.06 347.03,-142.26"/>
</g>
<!-- Node7 -->
<g id="node7" class="node">
<title>Node7</title>
<g id="a_node7"><a xlink:href="_c_a_t___m1_8h.html" target="_top" xlink:title=" ">
<polygon fill="white" stroke="#666666" points="507,-134.5 442,-134.5 442,-115.5 507,-115.5 507,-134.5"/>
<text text-anchor="middle" x="474.5" y="-122.5" font-family="Helvetica,sans-Serif" font-size="10.00">CAT_M1.h</text>
</a>
</g>
</g>
<!-- Node2&#45;&gt;Node7 -->
<g id="edge6" class="edge">
<title>Node2&#45;&gt;Node7</title>
<path fill="none" stroke="#63b8ff" d="M298.7,-177.18C335.81,-167.5 387.5,-153.6 432.5,-140 434.95,-139.26 437.47,-138.48 440,-137.67"/>
<polygon fill="#63b8ff" stroke="#63b8ff" points="441.27,-140.94 449.7,-134.52 439.11,-134.28 441.27,-140.94"/>
</g>
<!-- Node8 -->
<g id="node8" class="node">
<title>Node8</title>
<g id="a_node8"><a xlink:title=" ">
<polygon fill="#e0e0e0" stroke="#999999" points="520.5,-19 472.5,-19 472.5,0 520.5,0 520.5,-19"/>
<text text-anchor="middle" x="496.5" y="-7" font-family="Helvetica,sans-Serif" font-size="10.00">Wire.h</text>
</a>
</g>
</g>
<!-- Node7&#45;&gt;Node8 -->
<g id="edge7" class="edge">
<title>Node7&#45;&gt;Node8</title>
<path fill="none" stroke="#63b8ff" d="M476.15,-115.47C479.69,-97.23 488.05,-54.07 492.89,-29.14"/>
<polygon fill="#63b8ff" stroke="#63b8ff" points="496.36,-29.61 494.83,-19.13 489.49,-28.28 496.36,-29.61"/>
</g>
<!-- Node9 -->
<g id="node9" class="node">
<title>Node9</title>
<g id="a_node9"><a xlink:href="_t_c_a9534_8h.html" target="_top" xlink:title=" ">
<polygon fill="white" stroke="#666666" points="567.5,-74 499.5,-74 499.5,-55 567.5,-55 567.5,-74"/>
<text text-anchor="middle" x="533.5" y="-62" font-family="Helvetica,sans-Serif" font-size="10.00">TCA9534.h</text>
</a>
</g>
</g>
<!-- Node7&#45;&gt;Node9 -->
<g id="edge8" class="edge">
<title>Node7&#45;&gt;Node9</title>
<path fill="none" stroke="#63b8ff" d="M483.21,-115.37C492.18,-106.47 506.38,-92.39 517.41,-81.45"/>
<polygon fill="#63b8ff" stroke="#63b8ff" points="520.12,-83.69 524.76,-74.17 515.19,-78.72 520.12,-83.69"/>
</g>
<!-- Node9&#45;&gt;Node8 -->
<g id="edge10" class="edge">
<title>Node9&#45;&gt;Node8</title>
<path fill="none" stroke="#63b8ff" d="M527.39,-54.75C522.22,-47.34 514.65,-36.5 508.31,-27.41"/>
<polygon fill="#63b8ff" stroke="#63b8ff" points="511.09,-25.29 502.5,-19.09 505.35,-29.29 511.09,-25.29"/>
</g>
<!-- Node10 -->
<g id="node10" class="node">
<title>Node10</title>
<g id="a_node10"><a xlink:title=" ">
<polygon fill="#e0e0e0" stroke="#999999" points="627,-19 564,-19 564,0 627,0 627,-19"/>
<text text-anchor="middle" x="595.5" y="-7" font-family="Helvetica,sans-Serif" font-size="10.00">Arduino.h</text>
</a>
</g>
</g>
<!-- Node9&#45;&gt;Node10 -->
<g id="edge9" class="edge">
<title>Node9&#45;&gt;Node10</title>
<path fill="none" stroke="#63b8ff" d="M543.46,-54.98C552.63,-47.15 566.44,-35.34 577.53,-25.86"/>
<polygon fill="#63b8ff" stroke="#63b8ff" points="580.03,-28.33 585.36,-19.17 575.48,-23.01 580.03,-28.33"/>
</g>
<!-- Node11&#45;&gt;Node7 -->
<g id="edge23" class="edge">
<title>Node11&#45;&gt;Node7</title>
<path fill="none" stroke="#63b8ff" d="M579.18,-181.37C558.79,-170.59 523.69,-152.02 499.8,-139.38"/>
<polygon fill="#63b8ff" stroke="#63b8ff" points="501.42,-136.28 490.95,-134.7 498.15,-142.47 501.42,-136.28"/>
</g>
<!-- Node12 -->
<g id="node12" class="node">
<title>Node12</title>
<g id="a_node12"><a xlink:href="battery_8h.html" target="_top" xlink:title="Battery voltage and current monitoring using INA219 IC.">
<polygon fill="white" stroke="#666666" points="835,-134.5 684,-134.5 684,-115.5 835,-115.5 835,-134.5"/>
<text text-anchor="middle" x="759.5" y="-122.5" font-family="Helvetica,sans-Serif" font-size="10.00">power_monitoring/battery.h</text>
</a>
</g>
</g>
<!-- Node11&#45;&gt;Node12 -->
<g id="edge16" class="edge">
<title>Node11&#45;&gt;Node12</title>
<path fill="none" stroke="#63b8ff" d="M617.62,-181.37C646.06,-170.27 695.65,-150.92 728.02,-138.28"/>
<polygon fill="#63b8ff" stroke="#63b8ff" points="729.43,-141.49 737.47,-134.6 726.88,-134.97 729.43,-141.49"/>
</g>
<!-- Node14 -->
<g id="node14" class="node">
<title>Node14</title>
<g id="a_node14"><a xlink:href="solar_8h.html" target="_top" xlink:title="Solar voltage and current monitoring using INA219 IC.">
<polygon fill="white" stroke="#666666" points="665.5,-134.5 525.5,-134.5 525.5,-115.5 665.5,-115.5 665.5,-134.5"/>
<text text-anchor="middle" x="595.5" y="-122.5" font-family="Helvetica,sans-Serif" font-size="10.00">power_monitoring/solar.h</text>
</a>
</g>
</g>
<!-- Node11&#45;&gt;Node14 -->
<g id="edge19" class="edge">
<title>Node11&#45;&gt;Node14</title>
<path fill="none" stroke="#63b8ff" d="M595.5,-181.37C595.5,-172.16 595.5,-157.29 595.5,-145.27"/>
<polygon fill="#63b8ff" stroke="#63b8ff" points="599,-144.91 595.5,-134.91 592,-144.91 599,-144.91"/>
</g>
<!-- Node15 -->
<g id="node15" class="node">
<title>Node15</title>
<g id="a_node15"><a xlink:title=" ">
<polygon fill="#e0e0e0" stroke="#999999" points="983.5,-140 853.5,-140 853.5,-110 983.5,-110 983.5,-140"/>
<text text-anchor="start" x="861.5" y="-128" font-family="Helvetica,sans-Serif" font-size="10.00">SparkFun_u&#45;blox_SARA</text>
<text text-anchor="middle" x="918.5" y="-117" font-family="Helvetica,sans-Serif" font-size="10.00">&#45;R5_Arduino_Library.h</text>
</a>
</g>
</g>
<!-- Node11&#45;&gt;Node15 -->
<g id="edge22" class="edge">
<title>Node11&#45;&gt;Node15</title>
<path fill="none" stroke="#63b8ff" d="M626.18,-183.92C675.63,-174.12 774.4,-154.55 843.38,-140.88"/>
<polygon fill="#63b8ff" stroke="#63b8ff" points="844.2,-144.29 853.33,-138.91 842.84,-137.42 844.2,-144.29"/>
</g>
<!-- Node12&#45;&gt;Node10 -->
<g id="edge17" class="edge">
<title>Node12&#45;&gt;Node10</title>
<path fill="none" stroke="#63b8ff" d="M759.48,-115.06C758.95,-100.47 755.76,-71.55 739.5,-55 712.61,-27.63 669.28,-17.02 637.17,-12.94"/>
<polygon fill="#63b8ff" stroke="#63b8ff" points="637.49,-9.46 627.17,-11.83 636.72,-16.41 637.49,-9.46"/>
</g>
<!-- Node13 -->
<g id="node13" class="node">
<title>Node13</title>
<g id="a_node13"><a xlink:title=" ">
<polygon fill="#e0e0e0" stroke="#999999" points="730,-74 625,-74 625,-55 730,-55 730,-74"/>
<text text-anchor="middle" x="677.5" y="-62" font-family="Helvetica,sans-Serif" font-size="10.00">Adafruit_INA219.h</text>
</a>
</g>
</g>
<!-- Node12&#45;&gt;Node13 -->
<g id="edge18" class="edge">
<title>Node12&#45;&gt;Node13</title>
<path fill="none" stroke="#63b8ff" d="M747.4,-115.37C734.44,-106.12 713.64,-91.28 698.1,-80.19"/>
<polygon fill="#63b8ff" stroke="#63b8ff" points="699.82,-77.13 689.65,-74.17 695.76,-82.82 699.82,-77.13"/>
</g>
<!-- Node14&#45;&gt;Node10 -->
<g id="edge20" class="edge">
<title>Node14&#45;&gt;Node10</title>
<path fill="none" stroke="#63b8ff" d="M595.5,-115.47C595.5,-97.23 595.5,-54.07 595.5,-29.14"/>
<polygon fill="#63b8ff" stroke="#63b8ff" points="599,-29.13 595.5,-19.13 592,-29.13 599,-29.13"/>
</g>
<!-- Node14&#45;&gt;Node13 -->
<g id="edge21" class="edge">
<title>Node14&#45;&gt;Node13</title>
<path fill="none" stroke="#63b8ff" d="M607.6,-115.37C620.56,-106.12 641.36,-91.28 656.9,-80.19"/>
<polygon fill="#63b8ff" stroke="#63b8ff" points="659.24,-82.82 665.35,-74.17 655.18,-77.13 659.24,-82.82"/>
</g>
</g>
</svg>
