<?xml version="1.0" encoding="UTF-8" standalone="no"?>
<!DOCTYPE svg PUBLIC "-//W3C//DTD SVG 1.1//EN"
 "http://www.w3.org/Graphics/SVG/1.1/DTD/svg11.dtd">
<!-- Generated by graphviz version 2.43.0 (0)
 -->
<!-- Title: firmware/wombat/src/cli/peripherals/cli_spiffs.cpp Pages: 1 -->
<svg width="1074pt" height="346pt"
 viewBox="0.00 0.00 1073.50 346.00" xmlns="http://www.w3.org/2000/svg" xmlns:xlink="http://www.w3.org/1999/xlink">
<g id="graph0" class="graph" transform="scale(1 1) rotate(0) translate(4 342)">
<title>firmware/wombat/src/cli/peripherals/cli_spiffs.cpp</title>
<!-- Node1 -->
<g id="node1" class="node">
<title>Node1</title>
<g id="a_node1"><a xlink:title="SPIFFS related commands.">
<polygon fill="#999999" stroke="#666666" points="514,-338 394,-338 394,-297 514,-297 514,-338"/>
<text text-anchor="start" x="402" y="-326" font-family="Helvetica,sans-Serif" font-size="10.00">firmware/wombat/src</text>
<text text-anchor="start" x="402" y="-315" font-family="Helvetica,sans-Serif" font-size="10.00">/cli/peripherals/cli</text>
<text text-anchor="middle" x="454" y="-304" font-family="Helvetica,sans-Serif" font-size="10.00">_spiffs.cpp</text>
</a>
</g>
</g>
<!-- Node2 -->
<g id="node2" class="node">
<title>Node2</title>
<g id="a_node2"><a xlink:title=" ">
<polygon fill="#e0e0e0" stroke="#999999" points="58,-255.5 0,-255.5 0,-236.5 58,-236.5 58,-255.5"/>
<text text-anchor="middle" x="29" y="-243.5" font-family="Helvetica,sans-Serif" font-size="10.00">SPIFFS.h</text>
</a>
</g>
</g>
<!-- Node1&#45;&gt;Node2 -->
<g id="edge1" class="edge">
<title>Node1&#45;&gt;Node2</title>
<path fill="none" stroke="#63b8ff" d="M393.86,-310.97C318.1,-303.26 184.24,-287.22 72,-261 68.96,-260.29 65.83,-259.46 62.71,-258.57"/>
<polygon fill="#63b8ff" stroke="#63b8ff" points="63.49,-255.15 52.9,-255.58 61.45,-261.85 63.49,-255.15"/>
</g>
<!-- Node3 -->
<g id="node3" class="node">
<title>Node3</title>
<g id="a_node3"><a xlink:href="sd__card_8h.html" target="_top" xlink:title=" ">
<polygon fill="white" stroke="#666666" points="214,-261 114,-261 114,-231 214,-231 214,-261"/>
<text text-anchor="start" x="122" y="-249" font-family="Helvetica,sans-Serif" font-size="10.00">cli/peripherals/sd</text>
<text text-anchor="middle" x="164" y="-238" font-family="Helvetica,sans-Serif" font-size="10.00">_card.h</text>
</a>
</g>
</g>
<!-- Node1&#45;&gt;Node3 -->
<g id="edge2" class="edge">
<title>Node1&#45;&gt;Node3</title>
<path fill="none" stroke="#63b8ff" d="M393.91,-302.1C344.24,-290.2 274.05,-273.38 224.32,-261.46"/>
<polygon fill="#63b8ff" stroke="#63b8ff" points="224.89,-257.99 214.35,-259.07 223.26,-264.8 224.89,-257.99"/>
</g>
<!-- Node4 -->
<g id="node4" class="node">
<title>Node4</title>
<g id="a_node4"><a xlink:title=" ">
<polygon fill="#e0e0e0" stroke="#999999" points="242.5,-134.5 129.5,-134.5 129.5,-115.5 242.5,-115.5 242.5,-134.5"/>
<text text-anchor="middle" x="186" y="-122.5" font-family="Helvetica,sans-Serif" font-size="10.00">freertos/FreeRTOS.h</text>
</a>
</g>
</g>
<!-- Node1&#45;&gt;Node4 -->
<g id="edge5" class="edge">
<title>Node1&#45;&gt;Node4</title>
<path fill="none" stroke="#63b8ff" d="M393.94,-315.95C304.12,-313.71 141.44,-303.7 105,-261 71.44,-221.69 131.66,-166.79 165.42,-140.78"/>
<polygon fill="#63b8ff" stroke="#63b8ff" points="167.85,-143.34 173.75,-134.54 163.65,-137.74 167.85,-143.34"/>
</g>
<!-- Node6 -->
<g id="node6" class="node">
<title>Node6</title>
<g id="a_node6"><a xlink:title=" ">
<polygon fill="#e0e0e0" stroke="#999999" points="625.5,-134.5 564.5,-134.5 564.5,-115.5 625.5,-115.5 625.5,-134.5"/>
<text text-anchor="middle" x="595" y="-122.5" font-family="Helvetica,sans-Serif" font-size="10.00">Stream.h</text>
</a>
</g>
</g>
<!-- Node1&#45;&gt;Node6 -->
<g id="edge6" class="edge">
<title>Node1&#45;&gt;Node6</title>
<path fill="none" stroke="#63b8ff" d="M495.3,-296.88C531.26,-277.04 580.32,-242.52 598,-195 604,-178.86 602.33,-159.12 599.7,-144.89"/>
<polygon fill="#63b8ff" stroke="#63b8ff" points="603.06,-143.86 597.51,-134.84 596.22,-145.35 603.06,-143.86"/>
</g>
<!-- Node7 -->
<g id="node7" class="node">
<title>Node7</title>
<g id="a_node7"><a xlink:title=" ">
<polygon fill="#e0e0e0" stroke="#999999" points="750.5,-134.5 643.5,-134.5 643.5,-115.5 750.5,-115.5 750.5,-134.5"/>
<text text-anchor="middle" x="697" y="-122.5" font-family="Helvetica,sans-Serif" font-size="10.00">cli/FreeRTOS_CLI.h</text>
</a>
</g>
</g>
<!-- Node1&#45;&gt;Node7 -->
<g id="edge7" class="edge">
<title>Node1&#45;&gt;Node7</title>
<path fill="none" stroke="#63b8ff" d="M509.48,-296.96C531.33,-287.85 555.93,-275.74 576,-261 623.18,-226.35 665.67,-170.8 685.38,-143"/>
<polygon fill="#63b8ff" stroke="#63b8ff" points="688.32,-144.91 691.17,-134.71 682.58,-140.9 688.32,-144.91"/>
</g>
<!-- Node8 -->
<g id="node8" class="node">
<title>Node8</title>
<g id="a_node8"><a xlink:href="globals_8h.html" target="_top" xlink:title=" ">
<polygon fill="white" stroke="#666666" points="831.5,-195 770.5,-195 770.5,-176 831.5,-176 831.5,-195"/>
<text text-anchor="middle" x="801" y="-183" font-family="Helvetica,sans-Serif" font-size="10.00">globals.h</text>
</a>
</g>
</g>
<!-- Node1&#45;&gt;Node8 -->
<g id="edge8" class="edge">
<title>Node1&#45;&gt;Node8</title>
<path fill="none" stroke="#63b8ff" d="M514.08,-308.49C562.94,-300.55 632.9,-285.89 690,-261 725.56,-245.5 762,-218.49 783.01,-201.6"/>
<polygon fill="#63b8ff" stroke="#63b8ff" points="785.5,-204.08 791.03,-195.04 781.07,-198.67 785.5,-204.08"/>
</g>
<!-- Node16 -->
<g id="node16" class="node">
<title>Node16</title>
<g id="a_node16"><a xlink:href="interface_8h.html" target="_top" xlink:title=" ">
<polygon fill="white" stroke="#666666" points="458,-255.5 350,-255.5 350,-236.5 458,-236.5 458,-255.5"/>
<text text-anchor="middle" x="404" y="-243.5" font-family="Helvetica,sans-Serif" font-size="10.00">sd&#45;card/interface.h</text>
</a>
</g>
</g>
<!-- Node1&#45;&gt;Node16 -->
<g id="edge17" class="edge">
<title>Node1&#45;&gt;Node16</title>
<path fill="none" stroke="#63b8ff" d="M439.81,-296.77C432.38,-286.45 423.38,-273.93 416.26,-264.04"/>
<polygon fill="#63b8ff" stroke="#63b8ff" points="419.03,-261.89 410.35,-255.82 413.34,-265.98 419.03,-261.89"/>
</g>
<!-- Node19 -->
<g id="node19" class="node">
<title>Node19</title>
<g id="a_node19"><a xlink:href="_c_l_i_8h.html" target="_top" xlink:title="FreeRTOS CLI handler.">
<polygon fill="white" stroke="#666666" points="531.5,-255.5 476.5,-255.5 476.5,-236.5 531.5,-236.5 531.5,-255.5"/>
<text text-anchor="middle" x="504" y="-243.5" font-family="Helvetica,sans-Serif" font-size="10.00">cli/CLI.h</text>
</a>
</g>
</g>
<!-- Node1&#45;&gt;Node19 -->
<g id="edge21" class="edge">
<title>Node1&#45;&gt;Node19</title>
<path fill="none" stroke="#63b8ff" d="M468.19,-296.77C475.62,-286.45 484.62,-273.93 491.74,-264.04"/>
<polygon fill="#63b8ff" stroke="#63b8ff" points="494.66,-265.98 497.65,-255.82 488.97,-261.89 494.66,-265.98"/>
</g>
<!-- Node22 -->
<g id="node22" class="node">
<title>Node22</title>
<g id="a_node22"><a xlink:href="cli__spiffs_8h.html" target="_top" xlink:title=" ">
<polygon fill="white" stroke="#666666" points="332,-261 232,-261 232,-231 332,-231 332,-261"/>
<text text-anchor="start" x="240" y="-249" font-family="Helvetica,sans-Serif" font-size="10.00">cli/peripherals/cli</text>
<text text-anchor="middle" x="282" y="-238" font-family="Helvetica,sans-Serif" font-size="10.00">_spiffs.h</text>
</a>
</g>
</g>
<!-- Node1&#45;&gt;Node22 -->
<g id="edge29" class="edge">
<title>Node1&#45;&gt;Node22</title>
<path fill="none" stroke="#63b8ff" d="M405.63,-296.96C380.63,-286.85 350.35,-274.62 326.01,-264.78"/>
<polygon fill="#63b8ff" stroke="#63b8ff" points="327.24,-261.51 316.66,-261 324.62,-268 327.24,-261.51"/>
</g>
<!-- Node23 -->
<g id="node23" class="node">
<title>Node23</title>
<g id="a_node23"><a xlink:href="_utils_8h.html" target="_top" xlink:title=" ">
<polygon fill="white" stroke="#666666" points="854,-255.5 806,-255.5 806,-236.5 854,-236.5 854,-255.5"/>
<text text-anchor="middle" x="830" y="-243.5" font-family="Helvetica,sans-Serif" font-size="10.00">Utils.h</text>
</a>
</g>
</g>
<!-- Node1&#45;&gt;Node23 -->
<g id="edge32" class="edge">
<title>Node1&#45;&gt;Node23</title>
<path fill="none" stroke="#63b8ff" d="M514.29,-308.89C581.01,-299.9 691.48,-283.28 785,-261 788.64,-260.13 792.41,-259.13 796.15,-258.07"/>
<polygon fill="#63b8ff" stroke="#63b8ff" points="797.3,-261.38 805.88,-255.16 795.3,-254.67 797.3,-261.38"/>
</g>
<!-- Node3&#45;&gt;Node4 -->
<g id="edge3" class="edge">
<title>Node3&#45;&gt;Node4</title>
<path fill="none" stroke="#63b8ff" d="M158.84,-230.74C154.48,-216.62 149.74,-194.47 155,-176 158.4,-164.07 165.56,-152.2 172.14,-143.02"/>
<polygon fill="#63b8ff" stroke="#63b8ff" points="175.09,-144.91 178.36,-134.84 169.52,-140.67 175.09,-144.91"/>
</g>
<!-- Node5 -->
<g id="node5" class="node">
<title>Node5</title>
<g id="a_node5"><a xlink:title=" ">
<polygon fill="#e0e0e0" stroke="#999999" points="208,-195 164,-195 164,-176 208,-176 208,-195"/>
<text text-anchor="middle" x="186" y="-183" font-family="Helvetica,sans-Serif" font-size="10.00">string</text>
</a>
</g>
</g>
<!-- Node3&#45;&gt;Node5 -->
<g id="edge4" class="edge">
<title>Node3&#45;&gt;Node5</title>
<path fill="none" stroke="#63b8ff" d="M169.33,-230.84C172.26,-223.04 175.93,-213.27 179.08,-204.89"/>
<polygon fill="#63b8ff" stroke="#63b8ff" points="182.46,-205.86 182.7,-195.27 175.91,-203.39 182.46,-205.86"/>
</g>
<!-- Node9 -->
<g id="node9" class="node">
<title>Node9</title>
<g id="a_node9"><a xlink:title=" ">
<polygon fill="#e0e0e0" stroke="#999999" points="982,-140 852,-140 852,-110 982,-110 982,-140"/>
<text text-anchor="start" x="860" y="-128" font-family="Helvetica,sans-Serif" font-size="10.00">SparkFun_u&#45;blox_SARA</text>
<text text-anchor="middle" x="917" y="-117" font-family="Helvetica,sans-Serif" font-size="10.00">&#45;R5_Arduino_Library.h</text>
</a>
</g>
</g>
<!-- Node8&#45;&gt;Node9 -->
<g id="edge9" class="edge">
<title>Node8&#45;&gt;Node9</title>
<path fill="none" stroke="#63b8ff" d="M818.12,-175.87C834.29,-167.71 859.1,-155.2 879.82,-144.75"/>
<polygon fill="#63b8ff" stroke="#63b8ff" points="881.66,-147.74 889.01,-140.11 878.51,-141.49 881.66,-147.74"/>
</g>
<!-- Node10 -->
<g id="node10" class="node">
<title>Node10</title>
<g id="a_node10"><a xlink:href="_c_a_t___m1_8h.html" target="_top" xlink:title=" ">
<polygon fill="white" stroke="#666666" points="833.5,-134.5 768.5,-134.5 768.5,-115.5 833.5,-115.5 833.5,-134.5"/>
<text text-anchor="middle" x="801" y="-122.5" font-family="Helvetica,sans-Serif" font-size="10.00">CAT_M1.h</text>
</a>
</g>
</g>
<!-- Node8&#45;&gt;Node10 -->
<g id="edge10" class="edge">
<title>Node8&#45;&gt;Node10</title>
<path fill="none" stroke="#63b8ff" d="M801,-175.87C801,-167.75 801,-155.31 801,-144.89"/>
<polygon fill="#63b8ff" stroke="#63b8ff" points="804.5,-144.67 801,-134.67 797.5,-144.67 804.5,-144.67"/>
</g>
<!-- Node14 -->
<g id="node14" class="node">
<title>Node14</title>
<g id="a_node14"><a xlink:href="str__utils_8h.html" target="_top" xlink:title=" ">
<polygon fill="white" stroke="#666666" points="1065.5,-134.5 1000.5,-134.5 1000.5,-115.5 1065.5,-115.5 1065.5,-134.5"/>
<text text-anchor="middle" x="1033" y="-122.5" font-family="Helvetica,sans-Serif" font-size="10.00">str_utils.h</text>
</a>
</g>
</g>
<!-- Node8&#45;&gt;Node14 -->
<g id="edge15" class="edge">
<title>Node8&#45;&gt;Node14</title>
<path fill="none" stroke="#63b8ff" d="M831.64,-177.68C877.36,-167.45 961.25,-148.42 991,-140 993.61,-139.26 996.31,-138.46 999.01,-137.62"/>
<polygon fill="#63b8ff" stroke="#63b8ff" points="1000.23,-140.91 1008.69,-134.52 998.1,-134.24 1000.23,-140.91"/>
</g>
<!-- Node11 -->
<g id="node11" class="node">
<title>Node11</title>
<g id="a_node11"><a xlink:title=" ">
<polygon fill="#e0e0e0" stroke="#999999" points="794,-19 746,-19 746,0 794,0 794,-19"/>
<text text-anchor="middle" x="770" y="-7" font-family="Helvetica,sans-Serif" font-size="10.00">Wire.h</text>
</a>
</g>
</g>
<!-- Node10&#45;&gt;Node11 -->
<g id="edge11" class="edge">
<title>Node10&#45;&gt;Node11</title>
<path fill="none" stroke="#63b8ff" d="M798.67,-115.47C793.67,-97.15 781.79,-53.68 775,-28.81"/>
<polygon fill="#63b8ff" stroke="#63b8ff" points="778.37,-27.85 772.36,-19.13 771.62,-29.7 778.37,-27.85"/>
</g>
<!-- Node12 -->
<g id="node12" class="node">
<title>Node12</title>
<g id="a_node12"><a xlink:href="_t_c_a9534_8h.html" target="_top" xlink:title=" ">
<polygon fill="white" stroke="#666666" points="773,-74 705,-74 705,-55 773,-55 773,-74"/>
<text text-anchor="middle" x="739" y="-62" font-family="Helvetica,sans-Serif" font-size="10.00">TCA9534.h</text>
</a>
</g>
</g>
<!-- Node10&#45;&gt;Node12 -->
<g id="edge12" class="edge">
<title>Node10&#45;&gt;Node12</title>
<path fill="none" stroke="#63b8ff" d="M791.85,-115.37C782.33,-106.38 767.2,-92.11 755.57,-81.14"/>
<polygon fill="#63b8ff" stroke="#63b8ff" points="757.86,-78.48 748.19,-74.17 753.06,-83.58 757.86,-78.48"/>
</g>
<!-- Node12&#45;&gt;Node11 -->
<g id="edge14" class="edge">
<title>Node12&#45;&gt;Node11</title>
<path fill="none" stroke="#63b8ff" d="M744.12,-54.75C748.36,-47.49 754.53,-36.95 759.78,-27.98"/>
<polygon fill="#63b8ff" stroke="#63b8ff" points="762.95,-29.49 764.98,-19.09 756.91,-25.95 762.95,-29.49"/>
</g>
<!-- Node13 -->
<g id="node13" class="node">
<title>Node13</title>
<g id="a_node13"><a xlink:title=" ">
<polygon fill="#e0e0e0" stroke="#999999" points="460.5,-19 397.5,-19 397.5,0 460.5,0 460.5,-19"/>
<text text-anchor="middle" x="429" y="-7" font-family="Helvetica,sans-Serif" font-size="10.00">Arduino.h</text>
</a>
</g>
</g>
<!-- Node12&#45;&gt;Node13 -->
<g id="edge13" class="edge">
<title>Node12&#45;&gt;Node13</title>
<path fill="none" stroke="#63b8ff" d="M704.94,-57.68C647.84,-47.92 533,-28.28 471,-17.68"/>
<polygon fill="#63b8ff" stroke="#63b8ff" points="471.24,-14.17 460.79,-15.94 470.06,-21.07 471.24,-14.17"/>
</g>
<!-- Node15 -->
<g id="node15" class="node">
<title>Node15</title>
<g id="a_node15"><a xlink:title=" ">
<polygon fill="#e0e0e0" stroke="#999999" points="1061,-74 1005,-74 1005,-55 1061,-55 1061,-74"/>
<text text-anchor="middle" x="1033" y="-62" font-family="Helvetica,sans-Serif" font-size="10.00">stddef.h</text>
</a>
</g>
</g>
<!-- Node14&#45;&gt;Node15 -->
<g id="edge16" class="edge">
<title>Node14&#45;&gt;Node15</title>
<path fill="none" stroke="#63b8ff" d="M1033,-115.37C1033,-107.25 1033,-94.81 1033,-84.39"/>
<polygon fill="#63b8ff" stroke="#63b8ff" points="1036.5,-84.17 1033,-74.17 1029.5,-84.17 1036.5,-84.17"/>
</g>
<!-- Node16&#45;&gt;Node13 -->
<g id="edge18" class="edge">
<title>Node16&#45;&gt;Node13</title>
<path fill="none" stroke="#63b8ff" d="M403.74,-236.2C403.11,-208.98 402.37,-123.9 415,-55 416.61,-46.24 419.42,-36.79 422.1,-28.86"/>
<polygon fill="#63b8ff" stroke="#63b8ff" points="425.48,-29.8 425.56,-19.2 418.89,-27.44 425.48,-29.8"/>
</g>
<!-- Node17 -->
<g id="node17" class="node">
<title>Node17</title>
<g id="a_node17"><a xlink:title=" ">
<polygon fill="#e0e0e0" stroke="#999999" points="362.5,-195 323.5,-195 323.5,-176 362.5,-176 362.5,-195"/>
<text text-anchor="middle" x="343" y="-183" font-family="Helvetica,sans-Serif" font-size="10.00">SD.h</text>
</a>
</g>
</g>
<!-- Node16&#45;&gt;Node17 -->
<g id="edge19" class="edge">
<title>Node16&#45;&gt;Node17</title>
<path fill="none" stroke="#63b8ff" d="M395,-236.37C385.63,-227.38 370.75,-213.11 359.3,-202.14"/>
<polygon fill="#63b8ff" stroke="#63b8ff" points="361.68,-199.56 352.04,-195.17 356.83,-204.62 361.68,-199.56"/>
</g>
<!-- Node18 -->
<g id="node18" class="node">
<title>Node18</title>
<g id="a_node18"><a xlink:title=" ">
<polygon fill="#e0e0e0" stroke="#999999" points="305.5,-195 264.5,-195 264.5,-176 305.5,-176 305.5,-195"/>
<text text-anchor="middle" x="285" y="-183" font-family="Helvetica,sans-Serif" font-size="10.00">SPI.h</text>
</a>
</g>
</g>
<!-- Node16&#45;&gt;Node18 -->
<g id="edge20" class="edge">
<title>Node16&#45;&gt;Node18</title>
<path fill="none" stroke="#63b8ff" d="M386.7,-236.49C366.95,-226.79 334.45,-210.81 311.51,-199.53"/>
<polygon fill="#63b8ff" stroke="#63b8ff" points="312.84,-196.29 302.32,-195.02 309.75,-202.57 312.84,-196.29"/>
</g>
<!-- Node19&#45;&gt;Node13 -->
<g id="edge22" class="edge">
<title>Node19&#45;&gt;Node13</title>
<path fill="none" stroke="#63b8ff" d="M489.28,-236.36C476.02,-227.71 457.25,-213.11 448,-195 419.97,-140.12 423.23,-64.19 426.66,-29.35"/>
<polygon fill="#63b8ff" stroke="#63b8ff" points="430.16,-29.52 427.79,-19.2 423.21,-28.75 430.16,-29.52"/>
</g>
<!-- Node20 -->
<g id="node20" class="node">
<title>Node20</title>
<g id="a_node20"><a xlink:href="cat-m1_8h.html" target="_top" xlink:title="CAT&#45;M1 CLI command request and response handler.">
<polygon fill="white" stroke="#666666" points="589,-195 457,-195 457,-176 589,-176 589,-195"/>
<text text-anchor="middle" x="523" y="-183" font-family="Helvetica,sans-Serif" font-size="10.00">cli/peripherals/cat&#45;m1.h</text>
</a>
</g>
</g>
<!-- Node19&#45;&gt;Node20 -->
<g id="edge23" class="edge">
<title>Node19&#45;&gt;Node20</title>
<path fill="none" stroke="#63b8ff" d="M506.8,-236.37C509.5,-228.07 513.65,-215.28 517.08,-204.72"/>
<polygon fill="#63b8ff" stroke="#63b8ff" points="520.42,-205.76 520.18,-195.17 513.77,-203.6 520.42,-205.76"/>
</g>
<!-- Node20&#45;&gt;Node4 -->
<g id="edge24" class="edge">
<title>Node20&#45;&gt;Node4</title>
<path fill="none" stroke="#63b8ff" d="M474,-175.99C413.35,-165.47 310.15,-147.55 245.15,-136.27"/>
<polygon fill="#63b8ff" stroke="#63b8ff" points="245.51,-132.78 235.06,-134.52 244.32,-139.68 245.51,-132.78"/>
</g>
<!-- Node20&#45;&gt;Node6 -->
<g id="edge25" class="edge">
<title>Node20&#45;&gt;Node6</title>
<path fill="none" stroke="#63b8ff" d="M533.62,-175.87C544.9,-166.71 562.92,-152.06 576.53,-141.01"/>
<polygon fill="#63b8ff" stroke="#63b8ff" points="578.78,-143.69 584.33,-134.67 574.36,-138.26 578.78,-143.69"/>
</g>
<!-- Node20&#45;&gt;Node7 -->
<g id="edge27" class="edge">
<title>Node20&#45;&gt;Node7</title>
<path fill="none" stroke="#63b8ff" d="M548.3,-175.99C578.2,-165.94 628.12,-149.16 661.78,-137.84"/>
<polygon fill="#63b8ff" stroke="#63b8ff" points="663.31,-141.02 671.67,-134.52 661.07,-134.39 663.31,-141.02"/>
</g>
<!-- Node20&#45;&gt;Node10 -->
<g id="edge28" class="edge">
<title>Node20&#45;&gt;Node10</title>
<path fill="none" stroke="#63b8ff" d="M580.98,-176C629.29,-168.35 699.68,-155.88 760,-140 762.64,-139.31 765.35,-138.53 768.06,-137.7"/>
<polygon fill="#63b8ff" stroke="#63b8ff" points="769.31,-140.98 777.76,-134.58 767.17,-134.31 769.31,-140.98"/>
</g>
<!-- Node21 -->
<g id="node21" class="node">
<title>Node21</title>
<g id="a_node21"><a xlink:title=" ">
<polygon fill="#e0e0e0" stroke="#999999" points="546.5,-134.5 457.5,-134.5 457.5,-115.5 546.5,-115.5 546.5,-134.5"/>
<text text-anchor="middle" x="502" y="-122.5" font-family="Helvetica,sans-Serif" font-size="10.00">StreamString.h</text>
</a>
</g>
</g>
<!-- Node20&#45;&gt;Node21 -->
<g id="edge26" class="edge">
<title>Node20&#45;&gt;Node21</title>
<path fill="none" stroke="#63b8ff" d="M519.9,-175.87C516.92,-167.57 512.33,-154.78 508.54,-144.22"/>
<polygon fill="#63b8ff" stroke="#63b8ff" points="511.78,-142.9 505.11,-134.67 505.2,-145.26 511.78,-142.9"/>
</g>
<!-- Node22&#45;&gt;Node4 -->
<g id="edge30" class="edge">
<title>Node22&#45;&gt;Node4</title>
<path fill="none" stroke="#63b8ff" d="M270.61,-230.88C252.82,-208.83 218.5,-166.29 199.5,-142.73"/>
<polygon fill="#63b8ff" stroke="#63b8ff" points="202.03,-140.3 193.03,-134.71 196.58,-144.69 202.03,-140.3"/>
</g>
<!-- Node22&#45;&gt;Node5 -->
<g id="edge31" class="edge">
<title>Node22&#45;&gt;Node5</title>
<path fill="none" stroke="#63b8ff" d="M258.76,-230.84C243.6,-221.6 223.89,-209.59 208.81,-200.4"/>
<polygon fill="#63b8ff" stroke="#63b8ff" points="210.46,-197.31 200.1,-195.09 206.82,-203.29 210.46,-197.31"/>
</g>
<!-- Node23&#45;&gt;Node8 -->
<g id="edge35" class="edge">
<title>Node23&#45;&gt;Node8</title>
<path fill="none" stroke="#63b8ff" d="M825.72,-236.37C821.57,-227.99 815.13,-215.01 809.87,-204.39"/>
<polygon fill="#63b8ff" stroke="#63b8ff" points="812.87,-202.57 805.3,-195.17 806.6,-205.68 812.87,-202.57"/>
</g>
<!-- Node24 -->
<g id="node24" class="node">
<title>Node24</title>
<g id="a_node24"><a xlink:title=" ">
<polygon fill="#e0e0e0" stroke="#999999" points="932.5,-195 849.5,-195 849.5,-176 932.5,-176 932.5,-195"/>
<text text-anchor="middle" x="891" y="-183" font-family="Helvetica,sans-Serif" font-size="10.00">ArduinoJson.h</text>
</a>
</g>
</g>
<!-- Node23&#45;&gt;Node24 -->
<g id="edge33" class="edge">
<title>Node23&#45;&gt;Node24</title>
<path fill="none" stroke="#63b8ff" d="M839,-236.37C848.37,-227.38 863.25,-213.11 874.7,-202.14"/>
<polygon fill="#63b8ff" stroke="#63b8ff" points="877.17,-204.62 881.96,-195.17 872.32,-199.56 877.17,-204.62"/>
</g>
<!-- Node25 -->
<g id="node25" class="node">
<title>Node25</title>
<g id="a_node25"><a xlink:title=" ">
<polygon fill="#e0e0e0" stroke="#999999" points="1043.5,-195 950.5,-195 950.5,-176 1043.5,-176 1043.5,-195"/>
<text text-anchor="middle" x="997" y="-183" font-family="Helvetica,sans-Serif" font-size="10.00">dpiclimate&#45;12.h</text>
</a>
</g>
</g>
<!-- Node23&#45;&gt;Node25 -->
<g id="edge34" class="edge">
<title>Node23&#45;&gt;Node25</title>
<path fill="none" stroke="#63b8ff" d="M854.28,-236.49C882.98,-226.44 930.89,-209.66 963.2,-198.34"/>
<polygon fill="#63b8ff" stroke="#63b8ff" points="964.41,-201.63 972.69,-195.02 962.09,-195.02 964.41,-201.63"/>
</g>
</g>
</svg>
