<?xml version="1.0" encoding="UTF-8" standalone="no"?>
<!DOCTYPE svg PUBLIC "-//W3C//DTD SVG 1.1//EN"
 "http://www.w3.org/Graphics/SVG/1.1/DTD/svg11.dtd">
<!-- Generated by graphviz version 2.43.0 (0)
 -->
<!-- Title: firmware/wombat/include/cli/peripherals/cli_power.h Pages: 1 -->
<svg width="266pt" height="115pt"
 viewBox="0.00 0.00 266.00 115.00" xmlns="http://www.w3.org/2000/svg" xmlns:xlink="http://www.w3.org/1999/xlink">
<g id="graph0" class="graph" transform="scale(1 1) rotate(0) translate(4 111)">
<title>firmware/wombat/include/cli/peripherals/cli_power.h</title>
<!-- Node1 -->
<g id="node1" class="node">
<title>Node1</title>
<g id="a_node1"><a xlink:title=" ">
<polygon fill="#999999" stroke="#666666" points="202,-107 56,-107 56,-77 202,-77 202,-107"/>
<text text-anchor="start" x="64" y="-95" font-family="Helvetica,sans-Serif" font-size="10.00">firmware/wombat/include</text>
<text text-anchor="middle" x="129" y="-84" font-family="Helvetica,sans-Serif" font-size="10.00">/cli/peripherals/cli_power.h</text>
</a>
</g>
</g>
<!-- Node2 -->
<g id="node2" class="node">
<title>Node2</title>
<g id="a_node2"><a xlink:href="_c_l_i_8cpp.html" target="_top" xlink:title="FreeRTOS CLI handler.">
<polygon fill="white" stroke="#666666" points="120,-35.5 0,-35.5 0,-5.5 120,-5.5 120,-35.5"/>
<text text-anchor="start" x="8" y="-23.5" font-family="Helvetica,sans-Serif" font-size="10.00">firmware/wombat/src</text>
<text text-anchor="middle" x="60" y="-12.5" font-family="Helvetica,sans-Serif" font-size="10.00">/cli/CLI.cpp</text>
</a>
</g>
</g>
<!-- Node1&#45;&gt;Node2 -->
<g id="edge1" class="edge">
<title>Node1&#45;&gt;Node2</title>
<path fill="none" stroke="#63b8ff" d="M107.82,-69.67C96.81,-58.58 83.66,-45.34 73.94,-35.54"/>
<polygon fill="#63b8ff" stroke="#63b8ff" points="105.51,-72.3 115.04,-76.94 110.48,-67.37 105.51,-72.3"/>
</g>
<!-- Node3 -->
<g id="node3" class="node">
<title>Node3</title>
<g id="a_node3"><a xlink:href="cli__power_8cpp.html" target="_top" xlink:title="Power related commands.">
<polygon fill="white" stroke="#666666" points="258,-41 138,-41 138,0 258,0 258,-41"/>
<text text-anchor="start" x="146" y="-29" font-family="Helvetica,sans-Serif" font-size="10.00">firmware/wombat/src</text>
<text text-anchor="start" x="146" y="-18" font-family="Helvetica,sans-Serif" font-size="10.00">/cli/device_config/cli</text>
<text text-anchor="middle" x="198" y="-7" font-family="Helvetica,sans-Serif" font-size="10.00">_power.cpp</text>
</a>
</g>
</g>
<!-- Node1&#45;&gt;Node3 -->
<g id="edge2" class="edge">
<title>Node1&#45;&gt;Node3</title>
<path fill="none" stroke="#63b8ff" d="M150.16,-69.69C159.21,-60.57 169.71,-49.99 178.57,-41.07"/>
<polygon fill="#63b8ff" stroke="#63b8ff" points="147.52,-67.37 142.96,-76.94 152.49,-72.3 147.52,-67.37"/>
</g>
</g>
</svg>
