<?xml version="1.0" encoding="UTF-8" standalone="no"?>
<!DOCTYPE svg PUBLIC "-//W3C//DTD SVG 1.1//EN"
 "http://www.w3.org/Graphics/SVG/1.1/DTD/svg11.dtd">
<!-- Generated by graphviz version 2.43.0 (0)
 -->
<!-- Title: firmware/wombat/src/cli/device_config/cli_power.cpp Pages: 1 -->
<svg width="1714pt" height="456pt"
 viewBox="0.00 0.00 1714.00 456.00" xmlns="http://www.w3.org/2000/svg" xmlns:xlink="http://www.w3.org/1999/xlink">
<g id="graph0" class="graph" transform="scale(1 1) rotate(0) translate(4 452)">
<title>firmware/wombat/src/cli/device_config/cli_power.cpp</title>
<!-- Node1 -->
<g id="node1" class="node">
<title>Node1</title>
<g id="a_node1"><a xlink:title="Power related commands.">
<polygon fill="#999999" stroke="#666666" points="1361,-448 1241,-448 1241,-407 1361,-407 1361,-448"/>
<text text-anchor="start" x="1249" y="-436" font-family="Helvetica,sans-Serif" font-size="10.00">firmware/wombat/src</text>
<text text-anchor="start" x="1249" y="-425" font-family="Helvetica,sans-Serif" font-size="10.00">/cli/device_config/cli</text>
<text text-anchor="middle" x="1301" y="-414" font-family="Helvetica,sans-Serif" font-size="10.00">_power.cpp</text>
</a>
</g>
</g>
<!-- Node2 -->
<g id="node2" class="node">
<title>Node2</title>
<g id="a_node2"><a xlink:href="cli__power_8h.html" target="_top" xlink:title=" ">
<polygon fill="white" stroke="#666666" points="1264,-316 1164,-316 1164,-286 1264,-286 1264,-316"/>
<text text-anchor="start" x="1172" y="-304" font-family="Helvetica,sans-Serif" font-size="10.00">cli/peripherals/cli</text>
<text text-anchor="middle" x="1214" y="-293" font-family="Helvetica,sans-Serif" font-size="10.00">_power.h</text>
</a>
</g>
</g>
<!-- Node1&#45;&gt;Node2 -->
<g id="edge1" class="edge">
<title>Node1&#45;&gt;Node2</title>
<path fill="none" stroke="#63b8ff" d="M1287.21,-406.77C1271.58,-384.4 1246.14,-347.99 1229.74,-324.52"/>
<polygon fill="#63b8ff" stroke="#63b8ff" points="1232.53,-322.41 1223.93,-316.21 1226.79,-326.42 1232.53,-322.41"/>
</g>
<!-- Node3 -->
<g id="node3" class="node">
<title>Node3</title>
<g id="a_node3"><a xlink:title=" ">
<polygon fill="#e0e0e0" stroke="#999999" points="777.5,-250 664.5,-250 664.5,-231 777.5,-231 777.5,-250"/>
<text text-anchor="middle" x="721" y="-238" font-family="Helvetica,sans-Serif" font-size="10.00">freertos/FreeRTOS.h</text>
</a>
</g>
</g>
<!-- Node1&#45;&gt;Node3 -->
<g id="edge11" class="edge">
<title>Node1&#45;&gt;Node3</title>
<path fill="none" stroke="#63b8ff" d="M1240.91,-425.82C1003.18,-422.53 137.44,-404.5 57,-316 48.03,-306.13 47.89,-295.74 57,-286 62.07,-280.58 486.66,-255.2 654.14,-245.39"/>
<polygon fill="#63b8ff" stroke="#63b8ff" points="654.54,-248.87 664.32,-244.79 654.13,-241.88 654.54,-248.87"/>
</g>
<!-- Node4 -->
<g id="node4" class="node">
<title>Node4</title>
<g id="a_node4"><a xlink:title=" ">
<polygon fill="#e0e0e0" stroke="#999999" points="1006.5,-250 945.5,-250 945.5,-231 1006.5,-231 1006.5,-250"/>
<text text-anchor="middle" x="976" y="-238" font-family="Helvetica,sans-Serif" font-size="10.00">Stream.h</text>
</a>
</g>
</g>
<!-- Node1&#45;&gt;Node4 -->
<g id="edge12" class="edge">
<title>Node1&#45;&gt;Node4</title>
<path fill="none" stroke="#63b8ff" d="M1240.71,-418.79C1174.73,-407.33 1069.74,-379.84 1005,-316 989.74,-300.96 982.34,-276.96 978.87,-260.29"/>
<polygon fill="#63b8ff" stroke="#63b8ff" points="982.25,-259.34 977.04,-250.11 975.36,-260.57 982.25,-259.34"/>
</g>
<!-- Node5 -->
<g id="node5" class="node">
<title>Node5</title>
<g id="a_node5"><a xlink:title=" ">
<polygon fill="#e0e0e0" stroke="#999999" points="1152.5,-250 1063.5,-250 1063.5,-231 1152.5,-231 1152.5,-250"/>
<text text-anchor="middle" x="1108" y="-238" font-family="Helvetica,sans-Serif" font-size="10.00">StreamString.h</text>
</a>
</g>
</g>
<!-- Node1&#45;&gt;Node5 -->
<g id="edge13" class="edge">
<title>Node1&#45;&gt;Node5</title>
<path fill="none" stroke="#63b8ff" d="M1303.05,-406.85C1305.04,-376.75 1304.09,-319.24 1273,-286 1264.99,-277.44 1203.98,-262.49 1158.47,-252.3"/>
<polygon fill="#63b8ff" stroke="#63b8ff" points="1158.96,-248.82 1148.44,-250.07 1157.44,-255.66 1158.96,-248.82"/>
</g>
<!-- Node6 -->
<g id="node6" class="node">
<title>Node6</title>
<g id="a_node6"><a xlink:title=" ">
<polygon fill="#e0e0e0" stroke="#999999" points="1277.5,-250 1170.5,-250 1170.5,-231 1277.5,-231 1277.5,-250"/>
<text text-anchor="middle" x="1224" y="-238" font-family="Helvetica,sans-Serif" font-size="10.00">cli/FreeRTOS_CLI.h</text>
</a>
</g>
</g>
<!-- Node1&#45;&gt;Node6 -->
<g id="edge14" class="edge">
<title>Node1&#45;&gt;Node6</title>
<path fill="none" stroke="#63b8ff" d="M1321.41,-406.86C1330.17,-397.03 1339.42,-384.38 1344,-371 1356.23,-335.26 1365.57,-317.01 1344,-286 1330.96,-267.26 1309.05,-256.39 1287.5,-250.1"/>
<polygon fill="#63b8ff" stroke="#63b8ff" points="1288.21,-246.67 1277.65,-247.52 1286.44,-253.44 1288.21,-246.67"/>
</g>
<!-- Node11 -->
<g id="node11" class="node">
<title>Node11</title>
<g id="a_node11"><a xlink:href="_c_l_i_8h.html" target="_top" xlink:title="FreeRTOS CLI handler.">
<polygon fill="white" stroke="#666666" points="696.5,-371 641.5,-371 641.5,-352 696.5,-352 696.5,-371"/>
<text text-anchor="middle" x="669" y="-359" font-family="Helvetica,sans-Serif" font-size="10.00">cli/CLI.h</text>
</a>
</g>
</g>
<!-- Node1&#45;&gt;Node11 -->
<g id="edge15" class="edge">
<title>Node1&#45;&gt;Node11</title>
<path fill="none" stroke="#63b8ff" d="M1240.97,-420.42C1112.28,-407.39 812.94,-377.08 707,-366.35"/>
<polygon fill="#63b8ff" stroke="#63b8ff" points="707.08,-362.84 696.78,-365.31 706.38,-369.8 707.08,-362.84"/>
</g>
<!-- Node27 -->
<g id="node27" class="node">
<title>Node27</title>
<g id="a_node27"><a xlink:href="battery_8h.html" target="_top" xlink:title="Battery voltage and current monitoring using INA219 IC.">
<polygon fill="white" stroke="#666666" points="1547.5,-371 1396.5,-371 1396.5,-352 1547.5,-352 1547.5,-371"/>
<text text-anchor="middle" x="1472" y="-359" font-family="Helvetica,sans-Serif" font-size="10.00">power_monitoring/battery.h</text>
</a>
</g>
</g>
<!-- Node1&#45;&gt;Node27 -->
<g id="edge57" class="edge">
<title>Node1&#45;&gt;Node27</title>
<path fill="none" stroke="#63b8ff" d="M1353.23,-406.95C1381.38,-396.42 1415.22,-383.75 1439.56,-374.64"/>
<polygon fill="#63b8ff" stroke="#63b8ff" points="1440.9,-377.88 1449.04,-371.09 1438.45,-371.32 1440.9,-377.88"/>
</g>
<!-- Node29 -->
<g id="node29" class="node">
<title>Node29</title>
<g id="a_node29"><a xlink:href="solar_8h.html" target="_top" xlink:title="Solar voltage and current monitoring using INA219 IC.">
<polygon fill="white" stroke="#666666" points="1706,-371 1566,-371 1566,-352 1706,-352 1706,-371"/>
<text text-anchor="middle" x="1636" y="-359" font-family="Helvetica,sans-Serif" font-size="10.00">power_monitoring/solar.h</text>
</a>
</g>
</g>
<!-- Node1&#45;&gt;Node29 -->
<g id="edge60" class="edge">
<title>Node1&#45;&gt;Node29</title>
<path fill="none" stroke="#63b8ff" d="M1361.28,-414.98C1423.87,-403.03 1520.93,-384.48 1581.35,-372.94"/>
<polygon fill="#63b8ff" stroke="#63b8ff" points="1582.29,-376.32 1591.46,-371.01 1580.98,-369.45 1582.29,-376.32"/>
</g>
<!-- Node2&#45;&gt;Node3 -->
<g id="edge2" class="edge">
<title>Node2&#45;&gt;Node3</title>
<path fill="none" stroke="#63b8ff" d="M1163.88,-287.64C1160.88,-287.04 1157.91,-286.49 1155,-286 1086.16,-274.35 891.39,-256.4 787.77,-247.27"/>
<polygon fill="#63b8ff" stroke="#63b8ff" points="787.99,-243.77 777.73,-246.39 787.38,-250.75 787.99,-243.77"/>
</g>
<!-- Node2&#45;&gt;Node4 -->
<g id="edge3" class="edge">
<title>Node2&#45;&gt;Node4</title>
<path fill="none" stroke="#63b8ff" d="M1163.82,-287.67C1119.94,-276.88 1057.04,-261.42 1016.36,-251.42"/>
<polygon fill="#63b8ff" stroke="#63b8ff" points="1017.06,-247.99 1006.51,-249 1015.39,-254.79 1017.06,-247.99"/>
</g>
<!-- Node2&#45;&gt;Node5 -->
<g id="edge4" class="edge">
<title>Node2&#45;&gt;Node5</title>
<path fill="none" stroke="#63b8ff" d="M1188.61,-285.99C1171.71,-276.66 1149.62,-264.47 1132.84,-255.21"/>
<polygon fill="#63b8ff" stroke="#63b8ff" points="1134.1,-251.91 1123.65,-250.14 1130.72,-258.04 1134.1,-251.91"/>
</g>
<!-- Node2&#45;&gt;Node6 -->
<g id="edge5" class="edge">
<title>Node2&#45;&gt;Node6</title>
<path fill="none" stroke="#63b8ff" d="M1216.42,-285.84C1217.74,-278.13 1219.39,-268.49 1220.81,-260.17"/>
<polygon fill="#63b8ff" stroke="#63b8ff" points="1224.27,-260.71 1222.5,-250.27 1217.37,-259.53 1224.27,-260.71"/>
</g>
<!-- Node7 -->
<g id="node7" class="node">
<title>Node7</title>
<g id="a_node7"><a xlink:href="_c_a_t___m1_8h.html" target="_top" xlink:title=" ">
<polygon fill="white" stroke="#666666" points="1338.5,-134.5 1273.5,-134.5 1273.5,-115.5 1338.5,-115.5 1338.5,-134.5"/>
<text text-anchor="middle" x="1306" y="-122.5" font-family="Helvetica,sans-Serif" font-size="10.00">CAT_M1.h</text>
</a>
</g>
</g>
<!-- Node2&#45;&gt;Node7 -->
<g id="edge6" class="edge">
<title>Node2&#45;&gt;Node7</title>
<path fill="none" stroke="#63b8ff" d="M1245.61,-285.87C1260.54,-277.57 1277.19,-265.61 1287,-250 1307.5,-217.38 1308.74,-170.63 1307.55,-144.85"/>
<polygon fill="#63b8ff" stroke="#63b8ff" points="1311.03,-144.37 1306.89,-134.61 1304.04,-144.82 1311.03,-144.37"/>
</g>
<!-- Node8 -->
<g id="node8" class="node">
<title>Node8</title>
<g id="a_node8"><a xlink:title=" ">
<polygon fill="#e0e0e0" stroke="#999999" points="1568,-19 1520,-19 1520,0 1568,0 1568,-19"/>
<text text-anchor="middle" x="1544" y="-7" font-family="Helvetica,sans-Serif" font-size="10.00">Wire.h</text>
</a>
</g>
</g>
<!-- Node7&#45;&gt;Node8 -->
<g id="edge7" class="edge">
<title>Node7&#45;&gt;Node8</title>
<path fill="none" stroke="#63b8ff" d="M1338.57,-122.44C1399.91,-118.74 1528.85,-107.12 1556,-74 1566.42,-61.29 1560.99,-42.34 1554.43,-28.45"/>
<polygon fill="#63b8ff" stroke="#63b8ff" points="1557.42,-26.62 1549.67,-19.39 1551.23,-29.87 1557.42,-26.62"/>
</g>
<!-- Node9 -->
<g id="node9" class="node">
<title>Node9</title>
<g id="a_node9"><a xlink:href="_t_c_a9534_8h.html" target="_top" xlink:title=" ">
<polygon fill="white" stroke="#666666" points="1547,-74 1479,-74 1479,-55 1547,-55 1547,-74"/>
<text text-anchor="middle" x="1513" y="-62" font-family="Helvetica,sans-Serif" font-size="10.00">TCA9534.h</text>
</a>
</g>
</g>
<!-- Node7&#45;&gt;Node9 -->
<g id="edge8" class="edge">
<title>Node7&#45;&gt;Node9</title>
<path fill="none" stroke="#63b8ff" d="M1336.1,-115.49C1372.28,-105.27 1433.11,-88.08 1473.16,-76.76"/>
<polygon fill="#63b8ff" stroke="#63b8ff" points="1474.19,-80.1 1482.86,-74.02 1472.29,-73.37 1474.19,-80.1"/>
</g>
<!-- Node9&#45;&gt;Node8 -->
<g id="edge10" class="edge">
<title>Node9&#45;&gt;Node8</title>
<path fill="none" stroke="#63b8ff" d="M1518.12,-54.75C1522.36,-47.49 1528.53,-36.95 1533.78,-27.98"/>
<polygon fill="#63b8ff" stroke="#63b8ff" points="1536.95,-29.49 1538.98,-19.09 1530.91,-25.95 1536.95,-29.49"/>
</g>
<!-- Node10 -->
<g id="node10" class="node">
<title>Node10</title>
<g id="a_node10"><a xlink:title=" ">
<polygon fill="#e0e0e0" stroke="#999999" points="1437.5,-19 1374.5,-19 1374.5,0 1437.5,0 1437.5,-19"/>
<text text-anchor="middle" x="1406" y="-7" font-family="Helvetica,sans-Serif" font-size="10.00">Arduino.h</text>
</a>
</g>
</g>
<!-- Node9&#45;&gt;Node10 -->
<g id="edge9" class="edge">
<title>Node9&#45;&gt;Node10</title>
<path fill="none" stroke="#63b8ff" d="M1495.81,-54.98C1478.75,-46.54 1452.37,-33.47 1432.6,-23.68"/>
<polygon fill="#63b8ff" stroke="#63b8ff" points="1434.02,-20.47 1423.5,-19.17 1430.91,-26.75 1434.02,-20.47"/>
</g>
<!-- Node11&#45;&gt;Node2 -->
<g id="edge39" class="edge">
<title>Node11&#45;&gt;Node2</title>
<path fill="none" stroke="#63b8ff" d="M696.58,-359.35C769.64,-356 974.34,-344.73 1154,-316.01"/>
<polygon fill="#63b8ff" stroke="#63b8ff" points="1154.57,-319.46 1163.89,-314.4 1153.45,-312.55 1154.57,-319.46"/>
</g>
<!-- Node11&#45;&gt;Node3 -->
<g id="edge17" class="edge">
<title>Node11&#45;&gt;Node3</title>
<path fill="none" stroke="#63b8ff" d="M659.68,-351.9C645.43,-337.68 621.25,-308.59 635,-286 644.19,-270.9 660.34,-260.69 676.19,-253.91"/>
<polygon fill="#63b8ff" stroke="#63b8ff" points="677.9,-257 685.95,-250.12 675.36,-250.48 677.9,-257"/>
</g>
<!-- Node11&#45;&gt;Node6 -->
<g id="edge18" class="edge">
<title>Node11&#45;&gt;Node6</title>
<path fill="none" stroke="#63b8ff" d="M696.79,-360.62C810.15,-360.81 1233.37,-358.66 1273,-316 1290.24,-297.44 1265.42,-272.17 1245.27,-256.35"/>
<polygon fill="#63b8ff" stroke="#63b8ff" points="1247.16,-253.39 1237.05,-250.2 1242.96,-258.99 1247.16,-253.39"/>
</g>
<!-- Node11&#45;&gt;Node10 -->
<g id="edge16" class="edge">
<title>Node11&#45;&gt;Node10</title>
<path fill="none" stroke="#63b8ff" d="M641.48,-359.82C529.15,-356.87 108.91,-344.03 57,-316 20.32,-296.19 0,-283.19 0,-241.5 0,-241.5 0,-241.5 0,-124 0,-53.72 1130.93,-18.21 1364.22,-11.63"/>
<polygon fill="#63b8ff" stroke="#63b8ff" points="1364.43,-15.13 1374.33,-11.35 1364.23,-8.13 1364.43,-15.13"/>
</g>
<!-- Node12 -->
<g id="node12" class="node">
<title>Node12</title>
<g id="a_node12"><a xlink:href="cat-m1_8h.html" target="_top" xlink:title="CAT&#45;M1 CLI command request and response handler.">
<polygon fill="white" stroke="#666666" points="1146,-310.5 1014,-310.5 1014,-291.5 1146,-291.5 1146,-310.5"/>
<text text-anchor="middle" x="1080" y="-298.5" font-family="Helvetica,sans-Serif" font-size="10.00">cli/peripherals/cat&#45;m1.h</text>
</a>
</g>
</g>
<!-- Node11&#45;&gt;Node12 -->
<g id="edge19" class="edge">
<title>Node11&#45;&gt;Node12</title>
<path fill="none" stroke="#63b8ff" d="M696.61,-356.57C760.01,-347.55 917.68,-325.1 1009.87,-311.98"/>
<polygon fill="#63b8ff" stroke="#63b8ff" points="1010.55,-315.42 1019.95,-310.55 1009.56,-308.49 1010.55,-315.42"/>
</g>
<!-- Node13 -->
<g id="node13" class="node">
<title>Node13</title>
<g id="a_node13"><a xlink:href="sdi12_8h.html" target="_top" xlink:title="SDI&#45;12 command line interface handler.">
<polygon fill="white" stroke="#666666" points="940,-310.5 816,-310.5 816,-291.5 940,-291.5 940,-310.5"/>
<text text-anchor="middle" x="878" y="-298.5" font-family="Helvetica,sans-Serif" font-size="10.00">cli/peripherals/sdi12.h</text>
</a>
</g>
</g>
<!-- Node11&#45;&gt;Node13 -->
<g id="edge25" class="edge">
<title>Node11&#45;&gt;Node13</title>
<path fill="none" stroke="#63b8ff" d="M696.75,-352.73C732.86,-342.62 796.22,-324.89 837.64,-313.3"/>
<polygon fill="#63b8ff" stroke="#63b8ff" points="838.73,-316.63 847.41,-310.56 836.84,-309.89 838.73,-316.63"/>
</g>
<!-- Node20 -->
<g id="node20" class="node">
<title>Node20</title>
<g id="a_node20"><a xlink:href="sd__card_8h.html" target="_top" xlink:title=" ">
<polygon fill="white" stroke="#666666" points="588,-316 488,-316 488,-286 588,-286 588,-316"/>
<text text-anchor="start" x="496" y="-304" font-family="Helvetica,sans-Serif" font-size="10.00">cli/peripherals/sd</text>
<text text-anchor="middle" x="538" y="-293" font-family="Helvetica,sans-Serif" font-size="10.00">_card.h</text>
</a>
</g>
</g>
<!-- Node11&#45;&gt;Node20 -->
<g id="edge40" class="edge">
<title>Node11&#45;&gt;Node20</title>
<path fill="none" stroke="#63b8ff" d="M649.95,-351.99C631.35,-343.68 602.44,-330.78 578.66,-320.16"/>
<polygon fill="#63b8ff" stroke="#63b8ff" points="580.05,-316.95 569.49,-316.06 577.2,-323.34 580.05,-316.95"/>
</g>
<!-- Node22 -->
<g id="node22" class="node">
<title>Node22</title>
<g id="a_node22"><a xlink:href="acquisition__intervals_8h.html" target="_top" xlink:title="Handles the time between measurements and uplinks by the device over LTE.">
<polygon fill="white" stroke="#666666" points="798,-316 644,-316 644,-286 798,-286 798,-316"/>
<text text-anchor="start" x="652" y="-304" font-family="Helvetica,sans-Serif" font-size="10.00">cli/device_config/acquisition</text>
<text text-anchor="middle" x="721" y="-293" font-family="Helvetica,sans-Serif" font-size="10.00">_intervals.h</text>
</a>
</g>
</g>
<!-- Node11&#45;&gt;Node22 -->
<g id="edge43" class="edge">
<title>Node11&#45;&gt;Node22</title>
<path fill="none" stroke="#63b8ff" d="M676.67,-351.87C683.27,-344.44 693.07,-333.42 701.78,-323.62"/>
<polygon fill="#63b8ff" stroke="#63b8ff" points="704.43,-325.91 708.45,-316.11 699.19,-321.26 704.43,-325.91"/>
</g>
<!-- Node24 -->
<g id="node24" class="node">
<title>Node24</title>
<g id="a_node24"><a xlink:href="mqtt__cli_8h.html" target="_top" xlink:title="MQTT setup and configuration through the CLI.">
<polygon fill="white" stroke="#666666" points="338,-316 214,-316 214,-286 338,-286 338,-316"/>
<text text-anchor="start" x="222" y="-304" font-family="Helvetica,sans-Serif" font-size="10.00">cli/device_config/mqtt</text>
<text text-anchor="middle" x="276" y="-293" font-family="Helvetica,sans-Serif" font-size="10.00">_cli.h</text>
</a>
</g>
</g>
<!-- Node11&#45;&gt;Node24 -->
<g id="edge51" class="edge">
<title>Node11&#45;&gt;Node24</title>
<path fill="none" stroke="#63b8ff" d="M641.35,-357.22C587.13,-350.68 462.84,-335.1 348.29,-316.16"/>
<polygon fill="#63b8ff" stroke="#63b8ff" points="348.74,-312.69 338.3,-314.49 347.59,-319.59 348.74,-312.69"/>
</g>
<!-- Node25 -->
<g id="node25" class="node">
<title>Node25</title>
<g id="a_node25"><a xlink:href="ftp__cli_8h.html" target="_top" xlink:title="FTP setup and configuration through the CLI.">
<polygon fill="white" stroke="#666666" points="469.5,-316 356.5,-316 356.5,-286 469.5,-286 469.5,-316"/>
<text text-anchor="start" x="364.5" y="-304" font-family="Helvetica,sans-Serif" font-size="10.00">cli/device_config/ftp</text>
<text text-anchor="middle" x="413" y="-293" font-family="Helvetica,sans-Serif" font-size="10.00">_cli.h</text>
</a>
</g>
</g>
<!-- Node11&#45;&gt;Node25 -->
<g id="edge53" class="edge">
<title>Node11&#45;&gt;Node25</title>
<path fill="none" stroke="#63b8ff" d="M641.12,-354.13C602.65,-345.34 532.1,-329.22 479.6,-317.22"/>
<polygon fill="#63b8ff" stroke="#63b8ff" points="480.22,-313.77 469.69,-314.95 478.66,-320.59 480.22,-313.77"/>
</g>
<!-- Node26 -->
<g id="node26" class="node">
<title>Node26</title>
<g id="a_node26"><a xlink:href="config__cli_8h.html" target="_top" xlink:title=" ">
<polygon fill="white" stroke="#666666" points="196,-316 66,-316 66,-286 196,-286 196,-316"/>
<text text-anchor="start" x="74" y="-304" font-family="Helvetica,sans-Serif" font-size="10.00">cli/device_config/config</text>
<text text-anchor="middle" x="131" y="-293" font-family="Helvetica,sans-Serif" font-size="10.00">_cli.h</text>
</a>
</g>
</g>
<!-- Node11&#45;&gt;Node26 -->
<g id="edge55" class="edge">
<title>Node11&#45;&gt;Node26</title>
<path fill="none" stroke="#63b8ff" d="M641.44,-358.74C570.81,-354.04 377.4,-340 206.26,-316.1"/>
<polygon fill="#63b8ff" stroke="#63b8ff" points="206.71,-312.62 196.32,-314.69 205.73,-319.56 206.71,-312.62"/>
</g>
<!-- Node12&#45;&gt;Node3 -->
<g id="edge20" class="edge">
<title>Node12&#45;&gt;Node3</title>
<path fill="none" stroke="#63b8ff" d="M1027.8,-291.49C962.92,-280.92 852.35,-262.9 783.16,-251.63"/>
<polygon fill="#63b8ff" stroke="#63b8ff" points="783.7,-248.17 773.26,-250.02 782.57,-255.08 783.7,-248.17"/>
</g>
<!-- Node12&#45;&gt;Node4 -->
<g id="edge21" class="edge">
<title>Node12&#45;&gt;Node4</title>
<path fill="none" stroke="#63b8ff" d="M1064.65,-291.37C1047.68,-281.82 1020.1,-266.31 1000.21,-255.12"/>
<polygon fill="#63b8ff" stroke="#63b8ff" points="1001.84,-252.02 991.41,-250.17 998.41,-258.12 1001.84,-252.02"/>
</g>
<!-- Node12&#45;&gt;Node5 -->
<g id="edge22" class="edge">
<title>Node12&#45;&gt;Node5</title>
<path fill="none" stroke="#63b8ff" d="M1084.13,-291.37C1088.14,-282.99 1094.35,-270.01 1099.44,-259.39"/>
<polygon fill="#63b8ff" stroke="#63b8ff" points="1102.69,-260.7 1103.85,-250.17 1096.38,-257.68 1102.69,-260.7"/>
</g>
<!-- Node12&#45;&gt;Node6 -->
<g id="edge23" class="edge">
<title>Node12&#45;&gt;Node6</title>
<path fill="none" stroke="#63b8ff" d="M1100.94,-291.49C1125.36,-281.57 1165.93,-265.09 1193.77,-253.78"/>
<polygon fill="#63b8ff" stroke="#63b8ff" points="1195.09,-257.02 1203.04,-250.02 1192.45,-250.54 1195.09,-257.02"/>
</g>
<!-- Node12&#45;&gt;Node7 -->
<g id="edge24" class="edge">
<title>Node12&#45;&gt;Node7</title>
<path fill="none" stroke="#63b8ff" d="M1072.1,-291.33C1060.61,-277.62 1042.01,-250.52 1055,-231 1101.54,-161.08 1204.53,-137.63 1263.1,-129.83"/>
<polygon fill="#63b8ff" stroke="#63b8ff" points="1263.65,-133.29 1273.14,-128.59 1262.79,-126.34 1263.65,-133.29"/>
</g>
<!-- Node13&#45;&gt;Node3 -->
<g id="edge26" class="edge">
<title>Node13&#45;&gt;Node3</title>
<path fill="none" stroke="#63b8ff" d="M855.17,-291.49C828.43,-281.53 783.92,-264.95 753.56,-253.63"/>
<polygon fill="#63b8ff" stroke="#63b8ff" points="754.45,-250.23 743.86,-250.02 752.01,-256.79 754.45,-250.23"/>
</g>
<!-- Node13&#45;&gt;Node4 -->
<g id="edge27" class="edge">
<title>Node13&#45;&gt;Node4</title>
<path fill="none" stroke="#63b8ff" d="M892.46,-291.37C908.31,-281.91 933.97,-266.59 952.68,-255.42"/>
<polygon fill="#63b8ff" stroke="#63b8ff" points="954.69,-258.3 961.48,-250.17 951.1,-252.29 954.69,-258.3"/>
</g>
<!-- Node13&#45;&gt;Node5 -->
<g id="edge28" class="edge">
<title>Node13&#45;&gt;Node5</title>
<path fill="none" stroke="#63b8ff" d="M911.44,-291.49C951.9,-281.2 1020.1,-263.86 1064.58,-252.54"/>
<polygon fill="#63b8ff" stroke="#63b8ff" points="1065.69,-255.87 1074.52,-250.02 1063.96,-249.09 1065.69,-255.87"/>
</g>
<!-- Node13&#45;&gt;Node6 -->
<g id="edge31" class="edge">
<title>Node13&#45;&gt;Node6</title>
<path fill="none" stroke="#63b8ff" d="M928.31,-291.49C990.71,-280.94 1096.97,-262.98 1163.68,-251.7"/>
<polygon fill="#63b8ff" stroke="#63b8ff" points="1164.35,-255.13 1173.63,-250.02 1163.18,-248.23 1164.35,-255.13"/>
</g>
<!-- Node13&#45;&gt;Node13 -->
<g id="edge29" class="edge">
<title>Node13&#45;&gt;Node13</title>
<path fill="none" stroke="#63b8ff" d="M907.54,-310.53C932.22,-314.61 958,-311.43 958,-301 958,-292 938.78,-288.4 917.65,-290.2"/>
<polygon fill="#63b8ff" stroke="#63b8ff" points="917.03,-286.75 907.54,-291.47 917.9,-293.7 917.03,-286.75"/>
</g>
<!-- Node14 -->
<g id="node14" class="node">
<title>Node14</title>
<g id="a_node14"><a xlink:title=" ">
<polygon fill="#e0e0e0" stroke="#999999" points="852.5,-195 759.5,-195 759.5,-176 852.5,-176 852.5,-195"/>
<text text-anchor="middle" x="806" y="-183" font-family="Helvetica,sans-Serif" font-size="10.00">dpiclimate&#45;12.h</text>
</a>
</g>
</g>
<!-- Node13&#45;&gt;Node14 -->
<g id="edge30" class="edge">
<title>Node13&#45;&gt;Node14</title>
<path fill="none" stroke="#63b8ff" d="M872.07,-291.21C865.4,-281.26 854.27,-264.56 845,-250 835.14,-234.52 824.24,-216.7 816.47,-203.89"/>
<polygon fill="#63b8ff" stroke="#63b8ff" points="819.38,-201.93 811.21,-195.18 813.39,-205.55 819.38,-201.93"/>
</g>
<!-- Node15 -->
<g id="node15" class="node">
<title>Node15</title>
<g id="a_node15"><a xlink:href="_utils_8h.html" target="_top" xlink:title=" ">
<polygon fill="white" stroke="#666666" points="902,-250 854,-250 854,-231 902,-231 902,-250"/>
<text text-anchor="middle" x="878" y="-238" font-family="Helvetica,sans-Serif" font-size="10.00">Utils.h</text>
</a>
</g>
</g>
<!-- Node13&#45;&gt;Node15 -->
<g id="edge32" class="edge">
<title>Node13&#45;&gt;Node15</title>
<path fill="none" stroke="#63b8ff" d="M878,-291.37C878,-283.25 878,-270.81 878,-260.39"/>
<polygon fill="#63b8ff" stroke="#63b8ff" points="881.5,-260.17 878,-250.17 874.5,-260.17 881.5,-260.17"/>
</g>
<!-- Node15&#45;&gt;Node14 -->
<g id="edge35" class="edge">
<title>Node15&#45;&gt;Node14</title>
<path fill="none" stroke="#63b8ff" d="M866.43,-230.98C855.58,-223 839.12,-210.88 826.12,-201.31"/>
<polygon fill="#63b8ff" stroke="#63b8ff" points="827.91,-198.28 817.78,-195.17 823.76,-203.92 827.91,-198.28"/>
</g>
<!-- Node16 -->
<g id="node16" class="node">
<title>Node16</title>
<g id="a_node16"><a xlink:title=" ">
<polygon fill="#e0e0e0" stroke="#999999" points="927,-195 871,-195 871,-176 927,-176 927,-195"/>
<text text-anchor="middle" x="899" y="-183" font-family="Helvetica,sans-Serif" font-size="10.00">stddef.h</text>
</a>
</g>
</g>
<!-- Node15&#45;&gt;Node16 -->
<g id="edge33" class="edge">
<title>Node15&#45;&gt;Node16</title>
<path fill="none" stroke="#63b8ff" d="M881.47,-230.75C884.28,-223.65 888.34,-213.4 891.85,-204.56"/>
<polygon fill="#63b8ff" stroke="#63b8ff" points="895.17,-205.68 895.6,-195.09 888.66,-203.1 895.17,-205.68"/>
</g>
<!-- Node17 -->
<g id="node17" class="node">
<title>Node17</title>
<g id="a_node17"><a xlink:title=" ">
<polygon fill="#e0e0e0" stroke="#999999" points="689.5,-195 606.5,-195 606.5,-176 689.5,-176 689.5,-195"/>
<text text-anchor="middle" x="648" y="-183" font-family="Helvetica,sans-Serif" font-size="10.00">ArduinoJson.h</text>
</a>
</g>
</g>
<!-- Node15&#45;&gt;Node17 -->
<g id="edge34" class="edge">
<title>Node15&#45;&gt;Node17</title>
<path fill="none" stroke="#63b8ff" d="M853.82,-233.93C816.24,-225.27 743.14,-208.42 694.94,-197.32"/>
<polygon fill="#63b8ff" stroke="#63b8ff" points="695.59,-193.87 685.06,-195.04 694.02,-200.7 695.59,-193.87"/>
</g>
<!-- Node18 -->
<g id="node18" class="node">
<title>Node18</title>
<g id="a_node18"><a xlink:href="globals_8h.html" target="_top" xlink:title=" ">
<polygon fill="white" stroke="#666666" points="1006.5,-195 945.5,-195 945.5,-176 1006.5,-176 1006.5,-195"/>
<text text-anchor="middle" x="976" y="-183" font-family="Helvetica,sans-Serif" font-size="10.00">globals.h</text>
</a>
</g>
</g>
<!-- Node15&#45;&gt;Node18 -->
<g id="edge36" class="edge">
<title>Node15&#45;&gt;Node18</title>
<path fill="none" stroke="#63b8ff" d="M893.75,-230.98C909.23,-222.61 933.09,-209.7 951.14,-199.95"/>
<polygon fill="#63b8ff" stroke="#63b8ff" points="952.84,-203.01 959.97,-195.17 949.51,-196.85 952.84,-203.01"/>
</g>
<!-- Node18&#45;&gt;Node7 -->
<g id="edge38" class="edge">
<title>Node18&#45;&gt;Node7</title>
<path fill="none" stroke="#63b8ff" d="M1006.98,-178.59C1011.67,-177.71 1016.46,-176.83 1021,-176 1107.07,-160.32 1207.94,-142.83 1263.63,-133.26"/>
<polygon fill="#63b8ff" stroke="#63b8ff" points="1264.23,-136.7 1273.49,-131.56 1263.04,-129.81 1264.23,-136.7"/>
</g>
<!-- Node19 -->
<g id="node19" class="node">
<title>Node19</title>
<g id="a_node19"><a xlink:title=" ">
<polygon fill="#e0e0e0" stroke="#999999" points="1041,-140 911,-140 911,-110 1041,-110 1041,-140"/>
<text text-anchor="start" x="919" y="-128" font-family="Helvetica,sans-Serif" font-size="10.00">SparkFun_u&#45;blox_SARA</text>
<text text-anchor="middle" x="976" y="-117" font-family="Helvetica,sans-Serif" font-size="10.00">&#45;R5_Arduino_Library.h</text>
</a>
</g>
</g>
<!-- Node18&#45;&gt;Node19 -->
<g id="edge37" class="edge">
<title>Node18&#45;&gt;Node19</title>
<path fill="none" stroke="#63b8ff" d="M976,-175.87C976,-169.11 976,-159.35 976,-150.26"/>
<polygon fill="#63b8ff" stroke="#63b8ff" points="979.5,-150.11 976,-140.11 972.5,-150.11 979.5,-150.11"/>
</g>
<!-- Node20&#45;&gt;Node3 -->
<g id="edge41" class="edge">
<title>Node20&#45;&gt;Node3</title>
<path fill="none" stroke="#63b8ff" d="M581.83,-285.99C613.14,-275.98 654.78,-262.67 684.33,-253.22"/>
<polygon fill="#63b8ff" stroke="#63b8ff" points="685.78,-256.43 694.24,-250.05 683.65,-249.76 685.78,-256.43"/>
</g>
<!-- Node21 -->
<g id="node21" class="node">
<title>Node21</title>
<g id="a_node21"><a xlink:title=" ">
<polygon fill="#e0e0e0" stroke="#999999" points="560,-250 516,-250 516,-231 560,-231 560,-250"/>
<text text-anchor="middle" x="538" y="-238" font-family="Helvetica,sans-Serif" font-size="10.00">string</text>
</a>
</g>
</g>
<!-- Node20&#45;&gt;Node21 -->
<g id="edge42" class="edge">
<title>Node20&#45;&gt;Node21</title>
<path fill="none" stroke="#63b8ff" d="M538,-285.84C538,-278.21 538,-268.7 538,-260.45"/>
<polygon fill="#63b8ff" stroke="#63b8ff" points="541.5,-260.27 538,-250.27 534.5,-260.27 541.5,-260.27"/>
</g>
<!-- Node22&#45;&gt;Node3 -->
<g id="edge44" class="edge">
<title>Node22&#45;&gt;Node3</title>
<path fill="none" stroke="#63b8ff" d="M721,-285.84C721,-278.21 721,-268.7 721,-260.45"/>
<polygon fill="#63b8ff" stroke="#63b8ff" points="724.5,-260.27 721,-250.27 717.5,-260.27 724.5,-260.27"/>
</g>
<!-- Node22&#45;&gt;Node4 -->
<g id="edge45" class="edge">
<title>Node22&#45;&gt;Node4</title>
<path fill="none" stroke="#63b8ff" d="M782.08,-285.99C829.48,-275.11 893.89,-260.34 935.2,-250.86"/>
<polygon fill="#63b8ff" stroke="#63b8ff" points="936.22,-254.22 945.19,-248.57 934.66,-247.39 936.22,-254.22"/>
</g>
<!-- Node22&#45;&gt;Node5 -->
<g id="edge46" class="edge">
<title>Node22&#45;&gt;Node5</title>
<path fill="none" stroke="#63b8ff" d="M798.35,-287.35C801.27,-286.89 804.16,-286.44 807,-286 892.98,-272.65 992.93,-258.05 1053.28,-249.34"/>
<polygon fill="#63b8ff" stroke="#63b8ff" points="1053.95,-252.78 1063.35,-247.89 1052.95,-245.86 1053.95,-252.78"/>
</g>
<!-- Node22&#45;&gt;Node6 -->
<g id="edge47" class="edge">
<title>Node22&#45;&gt;Node6</title>
<path fill="none" stroke="#63b8ff" d="M798.32,-287.19C801.25,-286.77 804.15,-286.38 807,-286 961,-265.68 1002.83,-268.64 1160.21,-250.18"/>
<polygon fill="#63b8ff" stroke="#63b8ff" points="1160.73,-253.64 1170.25,-248.99 1159.9,-246.69 1160.73,-253.64"/>
</g>
<!-- Node23 -->
<g id="node23" class="node">
<title>Node23</title>
<g id="a_node23"><a xlink:href="_device_config_8h.html" target="_top" xlink:title="Node configuration options.">
<polygon fill="white" stroke="#666666" points="478,-250 388,-250 388,-231 478,-231 478,-250"/>
<text text-anchor="middle" x="433" y="-238" font-family="Helvetica,sans-Serif" font-size="10.00">DeviceConfig.h</text>
</a>
</g>
</g>
<!-- Node22&#45;&gt;Node23 -->
<g id="edge48" class="edge">
<title>Node22&#45;&gt;Node23</title>
<path fill="none" stroke="#63b8ff" d="M652.02,-285.99C600.7,-275.56 531.75,-261.56 485.02,-252.07"/>
<polygon fill="#63b8ff" stroke="#63b8ff" points="485.61,-248.61 475.11,-250.05 484.21,-255.47 485.61,-248.61"/>
</g>
<!-- Node23&#45;&gt;Node10 -->
<g id="edge49" class="edge">
<title>Node23&#45;&gt;Node10</title>
<path fill="none" stroke="#63b8ff" d="M452.35,-230.87C482.67,-217.6 543.48,-192.04 597,-176 884.88,-89.7 1243.79,-33.76 1364.34,-16.33"/>
<polygon fill="#63b8ff" stroke="#63b8ff" points="1364.86,-19.79 1374.26,-14.9 1363.87,-12.86 1364.86,-19.79"/>
</g>
<!-- Node23&#45;&gt;Node17 -->
<g id="edge50" class="edge">
<title>Node23&#45;&gt;Node17</title>
<path fill="none" stroke="#63b8ff" d="M467.54,-230.98C504.42,-221.89 562.99,-207.46 603.34,-197.51"/>
<polygon fill="#63b8ff" stroke="#63b8ff" points="604.31,-200.87 613.19,-195.08 602.64,-194.08 604.31,-200.87"/>
</g>
<!-- Node24&#45;&gt;Node23 -->
<g id="edge52" class="edge">
<title>Node24&#45;&gt;Node23</title>
<path fill="none" stroke="#63b8ff" d="M313.61,-285.99C340.03,-276.14 375.04,-263.1 400.31,-253.68"/>
<polygon fill="#63b8ff" stroke="#63b8ff" points="401.67,-256.91 409.81,-250.14 399.22,-250.35 401.67,-256.91"/>
</g>
<!-- Node25&#45;&gt;Node23 -->
<g id="edge54" class="edge">
<title>Node25&#45;&gt;Node23</title>
<path fill="none" stroke="#63b8ff" d="M417.84,-285.84C420.51,-278.04 423.85,-268.27 426.71,-259.89"/>
<polygon fill="#63b8ff" stroke="#63b8ff" points="430.08,-260.86 430,-250.27 423.46,-258.6 430.08,-260.86"/>
</g>
<!-- Node26&#45;&gt;Node23 -->
<g id="edge56" class="edge">
<title>Node26&#45;&gt;Node23</title>
<path fill="none" stroke="#63b8ff" d="M196.16,-287.38C250.78,-276.8 327.84,-261.87 379.05,-251.95"/>
<polygon fill="#63b8ff" stroke="#63b8ff" points="379.78,-255.37 388.94,-250.04 378.45,-248.5 379.78,-255.37"/>
</g>
<!-- Node27&#45;&gt;Node10 -->
<g id="edge58" class="edge">
<title>Node27&#45;&gt;Node10</title>
<path fill="none" stroke="#63b8ff" d="M1460.05,-351.96C1449.56,-343.85 1434.68,-330.75 1426,-316 1408.61,-286.46 1406,-275.78 1406,-241.5 1406,-241.5 1406,-241.5 1406,-124 1406,-90.61 1406,-51.69 1406,-29.19"/>
<polygon fill="#63b8ff" stroke="#63b8ff" points="1409.5,-29.04 1406,-19.04 1402.5,-29.04 1409.5,-29.04"/>
</g>
<!-- Node28 -->
<g id="node28" class="node">
<title>Node28</title>
<g id="a_node28"><a xlink:title=" ">
<polygon fill="#e0e0e0" stroke="#999999" points="1539.5,-310.5 1434.5,-310.5 1434.5,-291.5 1539.5,-291.5 1539.5,-310.5"/>
<text text-anchor="middle" x="1487" y="-298.5" font-family="Helvetica,sans-Serif" font-size="10.00">Adafruit_INA219.h</text>
</a>
</g>
</g>
<!-- Node27&#45;&gt;Node28 -->
<g id="edge59" class="edge">
<title>Node27&#45;&gt;Node28</title>
<path fill="none" stroke="#63b8ff" d="M1474.21,-351.87C1476.32,-343.66 1479.55,-331.04 1482.24,-320.55"/>
<polygon fill="#63b8ff" stroke="#63b8ff" points="1485.68,-321.22 1484.78,-310.67 1478.9,-319.48 1485.68,-321.22"/>
</g>
<!-- Node29&#45;&gt;Node10 -->
<g id="edge61" class="edge">
<title>Node29&#45;&gt;Node10</title>
<path fill="none" stroke="#63b8ff" d="M1630.31,-351.85C1600.11,-305.89 1458.32,-90.11 1417.2,-27.54"/>
<polygon fill="#63b8ff" stroke="#63b8ff" points="1420.11,-25.6 1411.69,-19.16 1414.26,-29.44 1420.11,-25.6"/>
</g>
<!-- Node29&#45;&gt;Node28 -->
<g id="edge62" class="edge">
<title>Node29&#45;&gt;Node28</title>
<path fill="none" stroke="#63b8ff" d="M1614.33,-351.99C1589.06,-342.07 1547.09,-325.59 1518.28,-314.28"/>
<polygon fill="#63b8ff" stroke="#63b8ff" points="1519.28,-310.91 1508.69,-310.52 1516.72,-317.43 1519.28,-310.91"/>
</g>
</g>
</svg>
