<?xml version="1.0" encoding="UTF-8" standalone="no"?>
<!DOCTYPE svg PUBLIC "-//W3C//DTD SVG 1.1//EN"
 "http://www.w3.org/Graphics/SVG/1.1/DTD/svg11.dtd">
<!-- Generated by graphviz version 2.43.0 (0)
 -->
<!-- Title: firmware/wombat/src/cli/device_config/config_cli.cpp Pages: 1 -->
<svg width="1714pt" height="456pt"
 viewBox="0.00 0.00 1714.00 456.00" xmlns="http://www.w3.org/2000/svg" xmlns:xlink="http://www.w3.org/1999/xlink">
<g id="graph0" class="graph" transform="scale(1 1) rotate(0) translate(4 452)">
<title>firmware/wombat/src/cli/device_config/config_cli.cpp</title>
<!-- Node1 -->
<g id="node1" class="node">
<title>Node1</title>
<g id="a_node1"><a xlink:title="Command line interface node configuration commands.">
<polygon fill="#999999" stroke="#666666" points="1444.5,-448 1311.5,-448 1311.5,-407 1444.5,-407 1444.5,-448"/>
<text text-anchor="start" x="1319.5" y="-436" font-family="Helvetica,sans-Serif" font-size="10.00">firmware/wombat/src</text>
<text text-anchor="start" x="1319.5" y="-425" font-family="Helvetica,sans-Serif" font-size="10.00">/cli/device_config/config</text>
<text text-anchor="middle" x="1378" y="-414" font-family="Helvetica,sans-Serif" font-size="10.00">_cli.cpp</text>
</a>
</g>
</g>
<!-- Node2 -->
<g id="node2" class="node">
<title>Node2</title>
<g id="a_node2"><a xlink:title=" ">
<polygon fill="#e0e0e0" stroke="#999999" points="825.5,-250 712.5,-250 712.5,-231 825.5,-231 825.5,-250"/>
<text text-anchor="middle" x="769" y="-238" font-family="Helvetica,sans-Serif" font-size="10.00">freertos/FreeRTOS.h</text>
</a>
</g>
</g>
<!-- Node1&#45;&gt;Node2 -->
<g id="edge1" class="edge">
<title>Node1&#45;&gt;Node2</title>
<path fill="none" stroke="#63b8ff" d="M1311.42,-424.89C1087.7,-418.77 373.37,-393.29 309,-316 300.47,-305.75 300.04,-295.87 309,-286 322.03,-271.65 577.69,-253.59 702.11,-245.62"/>
<polygon fill="#63b8ff" stroke="#63b8ff" points="702.53,-249.1 712.28,-244.97 702.08,-242.11 702.53,-249.1"/>
</g>
<!-- Node3 -->
<g id="node3" class="node">
<title>Node3</title>
<g id="a_node3"><a xlink:title=" ">
<polygon fill="#e0e0e0" stroke="#999999" points="1132.5,-250 1071.5,-250 1071.5,-231 1132.5,-231 1132.5,-250"/>
<text text-anchor="middle" x="1102" y="-238" font-family="Helvetica,sans-Serif" font-size="10.00">Stream.h</text>
</a>
</g>
</g>
<!-- Node1&#45;&gt;Node3 -->
<g id="edge2" class="edge">
<title>Node1&#45;&gt;Node3</title>
<path fill="none" stroke="#63b8ff" d="M1375.86,-406.74C1371.43,-375.97 1358.3,-316.9 1321,-286 1260.96,-236.25 1224.4,-264.05 1142.75,-249.96"/>
<polygon fill="#63b8ff" stroke="#63b8ff" points="1143.04,-246.46 1132.57,-248.03 1141.74,-253.33 1143.04,-246.46"/>
</g>
<!-- Node4 -->
<g id="node4" class="node">
<title>Node4</title>
<g id="a_node4"><a xlink:title=" ">
<polygon fill="#e0e0e0" stroke="#999999" points="1239.5,-250 1150.5,-250 1150.5,-231 1239.5,-231 1239.5,-250"/>
<text text-anchor="middle" x="1195" y="-238" font-family="Helvetica,sans-Serif" font-size="10.00">StreamString.h</text>
</a>
</g>
</g>
<!-- Node1&#45;&gt;Node4 -->
<g id="edge3" class="edge">
<title>Node1&#45;&gt;Node4</title>
<path fill="none" stroke="#63b8ff" d="M1380.65,-406.95C1383.55,-376.98 1384.32,-319.64 1354,-286 1327.89,-257.03 1284.61,-246.28 1249.8,-242.57"/>
<polygon fill="#63b8ff" stroke="#63b8ff" points="1250.04,-239.08 1239.76,-241.67 1249.41,-246.05 1250.04,-239.08"/>
</g>
<!-- Node5 -->
<g id="node5" class="node">
<title>Node5</title>
<g id="a_node5"><a xlink:title=" ">
<polygon fill="#e0e0e0" stroke="#999999" points="957.5,-250 850.5,-250 850.5,-231 957.5,-231 957.5,-250"/>
<text text-anchor="middle" x="904" y="-238" font-family="Helvetica,sans-Serif" font-size="10.00">cli/FreeRTOS_CLI.h</text>
</a>
</g>
</g>
<!-- Node1&#45;&gt;Node5 -->
<g id="edge4" class="edge">
<title>Node1&#45;&gt;Node5</title>
<path fill="none" stroke="#63b8ff" d="M1311.44,-421.34C1191.02,-410.48 944.64,-380.72 893,-316 880.31,-300.09 887.12,-275.98 894.41,-259.52"/>
<polygon fill="#63b8ff" stroke="#63b8ff" points="897.62,-260.93 898.84,-250.41 891.32,-257.87 897.62,-260.93"/>
</g>
<!-- Node6 -->
<g id="node6" class="node">
<title>Node6</title>
<g id="a_node6"><a xlink:href="_c_l_i_8h.html" target="_top" xlink:title="FreeRTOS CLI handler.">
<polygon fill="white" stroke="#666666" points="672.5,-371 617.5,-371 617.5,-352 672.5,-352 672.5,-371"/>
<text text-anchor="middle" x="645" y="-359" font-family="Helvetica,sans-Serif" font-size="10.00">cli/CLI.h</text>
</a>
</g>
</g>
<!-- Node1&#45;&gt;Node6 -->
<g id="edge5" class="edge">
<title>Node1&#45;&gt;Node6</title>
<path fill="none" stroke="#63b8ff" d="M1311.33,-420.68C1161.27,-407.58 800.86,-376.11 683,-365.82"/>
<polygon fill="#63b8ff" stroke="#63b8ff" points="682.95,-362.3 672.69,-364.92 682.34,-369.27 682.95,-362.3"/>
</g>
<!-- Node9 -->
<g id="node9" class="node">
<title>Node9</title>
<g id="a_node9"><a xlink:href="_c_a_t___m1_8h.html" target="_top" xlink:title=" ">
<polygon fill="white" stroke="#666666" points="1075.5,-134.5 1010.5,-134.5 1010.5,-115.5 1075.5,-115.5 1075.5,-134.5"/>
<text text-anchor="middle" x="1043" y="-122.5" font-family="Helvetica,sans-Serif" font-size="10.00">CAT_M1.h</text>
</a>
</g>
</g>
<!-- Node1&#45;&gt;Node9 -->
<g id="edge57" class="edge">
<title>Node1&#45;&gt;Node9</title>
<path fill="none" stroke="#63b8ff" d="M1444.76,-417.97C1473.84,-410.57 1505.28,-396.76 1523,-371 1546.91,-336.24 1607.97,-300.65 1422,-176 1367.77,-139.65 1173.03,-129.64 1085.79,-126.95"/>
<polygon fill="#63b8ff" stroke="#63b8ff" points="1085.8,-123.45 1075.7,-126.66 1085.6,-130.45 1085.8,-123.45"/>
</g>
<!-- Node14 -->
<g id="node14" class="node">
<title>Node14</title>
<g id="a_node14"><a xlink:href="_utils_8h.html" target="_top" xlink:title=" ">
<polygon fill="white" stroke="#666666" points="1440,-250 1392,-250 1392,-231 1440,-231 1440,-250"/>
<text text-anchor="middle" x="1416" y="-238" font-family="Helvetica,sans-Serif" font-size="10.00">Utils.h</text>
</a>
</g>
</g>
<!-- Node1&#45;&gt;Node14 -->
<g id="edge58" class="edge">
<title>Node1&#45;&gt;Node14</title>
<path fill="none" stroke="#63b8ff" d="M1383.3,-406.79C1386.06,-396.22 1389.39,-382.94 1392,-371 1400.59,-331.68 1408.72,-285.2 1412.95,-260"/>
<polygon fill="#63b8ff" stroke="#63b8ff" points="1416.43,-260.46 1414.61,-250.02 1409.52,-259.31 1416.43,-260.46"/>
</g>
<!-- Node17 -->
<g id="node17" class="node">
<title>Node17</title>
<g id="a_node17"><a xlink:href="globals_8h.html" target="_top" xlink:title=" ">
<polygon fill="white" stroke="#666666" points="1615.5,-195 1554.5,-195 1554.5,-176 1615.5,-176 1615.5,-195"/>
<text text-anchor="middle" x="1585" y="-183" font-family="Helvetica,sans-Serif" font-size="10.00">globals.h</text>
</a>
</g>
</g>
<!-- Node1&#45;&gt;Node17 -->
<g id="edge64" class="edge">
<title>Node1&#45;&gt;Node17</title>
<path fill="none" stroke="#63b8ff" d="M1444.93,-422.55C1483.03,-416.67 1528.5,-402.85 1556,-371 1597.11,-323.39 1592.57,-241.98 1587.95,-205.34"/>
<polygon fill="#63b8ff" stroke="#63b8ff" points="1591.37,-204.53 1586.51,-195.12 1584.44,-205.51 1591.37,-204.53"/>
</g>
<!-- Node26 -->
<g id="node26" class="node">
<title>Node26</title>
<g id="a_node26"><a xlink:href="config__cli_8h.html" target="_top" xlink:title=" ">
<polygon fill="white" stroke="#666666" points="130,-316 0,-316 0,-286 130,-286 130,-316"/>
<text text-anchor="start" x="8" y="-304" font-family="Helvetica,sans-Serif" font-size="10.00">cli/device_config/config</text>
<text text-anchor="middle" x="65" y="-293" font-family="Helvetica,sans-Serif" font-size="10.00">_cli.h</text>
</a>
</g>
</g>
<!-- Node1&#45;&gt;Node26 -->
<g id="edge56" class="edge">
<title>Node1&#45;&gt;Node26</title>
<path fill="none" stroke="#63b8ff" d="M1311.42,-425.46C1104.8,-421.87 476.36,-408.12 276,-371 216.23,-359.93 150.02,-336.31 107.99,-319.81"/>
<polygon fill="#63b8ff" stroke="#63b8ff" points="109.21,-316.52 98.63,-316.09 106.63,-323.03 109.21,-316.52"/>
</g>
<!-- Node27 -->
<g id="node27" class="node">
<title>Node27</title>
<g id="a_node27"><a xlink:href="ota__update_8h.html" target="_top" xlink:title=" ">
<polygon fill="white" stroke="#666666" points="1688,-371 1608,-371 1608,-352 1688,-352 1688,-371"/>
<text text-anchor="middle" x="1648" y="-359" font-family="Helvetica,sans-Serif" font-size="10.00">ota_update.h</text>
</a>
</g>
</g>
<!-- Node1&#45;&gt;Node27 -->
<g id="edge59" class="edge">
<title>Node1&#45;&gt;Node27</title>
<path fill="none" stroke="#63b8ff" d="M1444.74,-410.68C1493.61,-399.1 1558.66,-383.68 1601.87,-373.43"/>
<polygon fill="#63b8ff" stroke="#63b8ff" points="1602.9,-376.79 1611.82,-371.08 1601.28,-369.98 1602.9,-376.79"/>
</g>
<!-- Node29 -->
<g id="node29" class="node">
<title>Node29</title>
<g id="a_node29"><a xlink:href="ftp__stack_8h.html" target="_top" xlink:title=" ">
<polygon fill="white" stroke="#666666" points="1514,-371 1444,-371 1444,-352 1514,-352 1514,-371"/>
<text text-anchor="middle" x="1479" y="-359" font-family="Helvetica,sans-Serif" font-size="10.00">ftp_stack.h</text>
</a>
</g>
</g>
<!-- Node1&#45;&gt;Node29 -->
<g id="edge62" class="edge">
<title>Node1&#45;&gt;Node29</title>
<path fill="none" stroke="#63b8ff" d="M1408.85,-406.95C1424.37,-397.12 1442.81,-385.43 1456.89,-376.51"/>
<polygon fill="#63b8ff" stroke="#63b8ff" points="1458.87,-379.4 1465.44,-371.09 1455.12,-373.49 1458.87,-379.4"/>
</g>
<!-- Node6&#45;&gt;Node2 -->
<g id="edge7" class="edge">
<title>Node6&#45;&gt;Node2</title>
<path fill="none" stroke="#63b8ff" d="M642.79,-351.66C639.57,-336.56 635.45,-305.55 650,-286 662.68,-268.97 682.64,-258.46 702.63,-251.97"/>
<polygon fill="#63b8ff" stroke="#63b8ff" points="703.8,-255.27 712.41,-249.09 701.82,-248.55 703.8,-255.27"/>
</g>
<!-- Node6&#45;&gt;Node5 -->
<g id="edge8" class="edge">
<title>Node6&#45;&gt;Node5</title>
<path fill="none" stroke="#63b8ff" d="M646.83,-351.77C650.63,-335.98 660.9,-302.76 683,-286 695.55,-276.48 779.76,-261.33 840.51,-251.4"/>
<polygon fill="#63b8ff" stroke="#63b8ff" points="841.11,-254.85 850.42,-249.79 839.99,-247.94 841.11,-254.85"/>
</g>
<!-- Node7 -->
<g id="node7" class="node">
<title>Node7</title>
<g id="a_node7"><a xlink:title=" ">
<polygon fill="#e0e0e0" stroke="#999999" points="501.5,-19 438.5,-19 438.5,0 501.5,0 501.5,-19"/>
<text text-anchor="middle" x="470" y="-7" font-family="Helvetica,sans-Serif" font-size="10.00">Arduino.h</text>
</a>
</g>
</g>
<!-- Node6&#45;&gt;Node7 -->
<g id="edge6" class="edge">
<title>Node6&#45;&gt;Node7</title>
<path fill="none" stroke="#63b8ff" d="M617.45,-360.53C582.61,-359.02 523.06,-351.04 489,-316 465.18,-291.5 470,-275.67 470,-241.5 470,-241.5 470,-241.5 470,-124 470,-90.61 470,-51.69 470,-29.19"/>
<polygon fill="#63b8ff" stroke="#63b8ff" points="473.5,-29.04 470,-19.04 466.5,-29.04 473.5,-29.04"/>
</g>
<!-- Node8 -->
<g id="node8" class="node">
<title>Node8</title>
<g id="a_node8"><a xlink:href="cat-m1_8h.html" target="_top" xlink:title="CAT&#45;M1 CLI command request and response handler.">
<polygon fill="white" stroke="#666666" points="1034,-310.5 902,-310.5 902,-291.5 1034,-291.5 1034,-310.5"/>
<text text-anchor="middle" x="968" y="-298.5" font-family="Helvetica,sans-Serif" font-size="10.00">cli/peripherals/cat&#45;m1.h</text>
</a>
</g>
</g>
<!-- Node6&#45;&gt;Node8 -->
<g id="edge9" class="edge">
<title>Node6&#45;&gt;Node8</title>
<path fill="none" stroke="#63b8ff" d="M672.54,-355.51C725.18,-345.98 841.05,-324.99 911.02,-312.32"/>
<polygon fill="#63b8ff" stroke="#63b8ff" points="911.78,-315.74 921,-310.51 910.54,-308.85 911.78,-315.74"/>
</g>
<!-- Node12 -->
<g id="node12" class="node">
<title>Node12</title>
<g id="a_node12"><a xlink:href="sdi12_8h.html" target="_top" xlink:title="SDI&#45;12 command line interface handler.">
<polygon fill="white" stroke="#666666" points="1294,-310.5 1170,-310.5 1170,-291.5 1294,-291.5 1294,-310.5"/>
<text text-anchor="middle" x="1232" y="-298.5" font-family="Helvetica,sans-Serif" font-size="10.00">cli/peripherals/sdi12.h</text>
</a>
</g>
</g>
<!-- Node6&#45;&gt;Node12 -->
<g id="edge19" class="edge">
<title>Node6&#45;&gt;Node12</title>
<path fill="none" stroke="#63b8ff" d="M672.53,-359.18C749.83,-355.25 975.37,-342.23 1161,-316 1168.1,-315 1175.56,-313.75 1182.87,-312.41"/>
<polygon fill="#63b8ff" stroke="#63b8ff" points="1183.53,-315.84 1192.7,-310.54 1182.22,-308.97 1183.53,-315.84"/>
</g>
<!-- Node19 -->
<g id="node19" class="node">
<title>Node19</title>
<g id="a_node19"><a xlink:href="cli__power_8h.html" target="_top" xlink:title=" ">
<polygon fill="white" stroke="#666666" points="1152,-316 1052,-316 1052,-286 1152,-286 1152,-316"/>
<text text-anchor="start" x="1060" y="-304" font-family="Helvetica,sans-Serif" font-size="10.00">cli/peripherals/cli</text>
<text text-anchor="middle" x="1102" y="-293" font-family="Helvetica,sans-Serif" font-size="10.00">_power.h</text>
</a>
</g>
</g>
<!-- Node6&#45;&gt;Node19 -->
<g id="edge33" class="edge">
<title>Node6&#45;&gt;Node19</title>
<path fill="none" stroke="#63b8ff" d="M672.67,-358.57C736.19,-353.9 897.51,-340.62 1041.95,-316.04"/>
<polygon fill="#63b8ff" stroke="#63b8ff" points="1042.61,-319.48 1051.87,-314.33 1041.42,-312.58 1042.61,-319.48"/>
</g>
<!-- Node20 -->
<g id="node20" class="node">
<title>Node20</title>
<g id="a_node20"><a xlink:href="sd__card_8h.html" target="_top" xlink:title=" ">
<polygon fill="white" stroke="#666666" points="598,-316 498,-316 498,-286 598,-286 598,-316"/>
<text text-anchor="start" x="506" y="-304" font-family="Helvetica,sans-Serif" font-size="10.00">cli/peripherals/sd</text>
<text text-anchor="middle" x="548" y="-293" font-family="Helvetica,sans-Serif" font-size="10.00">_card.h</text>
</a>
</g>
</g>
<!-- Node6&#45;&gt;Node20 -->
<g id="edge39" class="edge">
<title>Node6&#45;&gt;Node20</title>
<path fill="none" stroke="#63b8ff" d="M630.69,-351.87C617.4,-343.86 597.16,-331.65 580.03,-321.31"/>
<polygon fill="#63b8ff" stroke="#63b8ff" points="581.77,-318.28 571.4,-316.11 578.16,-324.28 581.77,-318.28"/>
</g>
<!-- Node22 -->
<g id="node22" class="node">
<title>Node22</title>
<g id="a_node22"><a xlink:href="acquisition__intervals_8h.html" target="_top" xlink:title="Handles the time between measurements and uplinks by the device over LTE.">
<polygon fill="white" stroke="#666666" points="846,-316 692,-316 692,-286 846,-286 846,-316"/>
<text text-anchor="start" x="700" y="-304" font-family="Helvetica,sans-Serif" font-size="10.00">cli/device_config/acquisition</text>
<text text-anchor="middle" x="769" y="-293" font-family="Helvetica,sans-Serif" font-size="10.00">_intervals.h</text>
</a>
</g>
</g>
<!-- Node6&#45;&gt;Node22 -->
<g id="edge42" class="edge">
<title>Node6&#45;&gt;Node22</title>
<path fill="none" stroke="#63b8ff" d="M663.03,-351.99C680.43,-343.79 707.34,-331.09 729.69,-320.55"/>
<polygon fill="#63b8ff" stroke="#63b8ff" points="731.4,-323.61 738.95,-316.18 728.41,-317.28 731.4,-323.61"/>
</g>
<!-- Node24 -->
<g id="node24" class="node">
<title>Node24</title>
<g id="a_node24"><a xlink:href="mqtt__cli_8h.html" target="_top" xlink:title="MQTT setup and configuration through the CLI.">
<polygon fill="white" stroke="#666666" points="442,-316 318,-316 318,-286 442,-286 442,-316"/>
<text text-anchor="start" x="326" y="-304" font-family="Helvetica,sans-Serif" font-size="10.00">cli/device_config/mqtt</text>
<text text-anchor="middle" x="380" y="-293" font-family="Helvetica,sans-Serif" font-size="10.00">_cli.h</text>
</a>
</g>
</g>
<!-- Node6&#45;&gt;Node24 -->
<g id="edge50" class="edge">
<title>Node6&#45;&gt;Node24</title>
<path fill="none" stroke="#63b8ff" d="M617.14,-354.35C578.3,-345.78 506.51,-329.93 452.06,-317.91"/>
<polygon fill="#63b8ff" stroke="#63b8ff" points="452.63,-314.45 442.11,-315.71 451.12,-321.28 452.63,-314.45"/>
</g>
<!-- Node25 -->
<g id="node25" class="node">
<title>Node25</title>
<g id="a_node25"><a xlink:href="ftp__cli_8h.html" target="_top" xlink:title="FTP setup and configuration through the CLI.">
<polygon fill="white" stroke="#666666" points="261.5,-316 148.5,-316 148.5,-286 261.5,-286 261.5,-316"/>
<text text-anchor="start" x="156.5" y="-304" font-family="Helvetica,sans-Serif" font-size="10.00">cli/device_config/ftp</text>
<text text-anchor="middle" x="205" y="-293" font-family="Helvetica,sans-Serif" font-size="10.00">_cli.h</text>
</a>
</g>
</g>
<!-- Node6&#45;&gt;Node25 -->
<g id="edge52" class="edge">
<title>Node6&#45;&gt;Node25</title>
<path fill="none" stroke="#63b8ff" d="M617.12,-356.83C559.54,-349.24 423.32,-331.26 309,-316 297.01,-314.4 284.24,-312.69 271.9,-311.03"/>
<polygon fill="#63b8ff" stroke="#63b8ff" points="272.05,-307.52 261.67,-309.65 271.12,-314.45 272.05,-307.52"/>
</g>
<!-- Node6&#45;&gt;Node26 -->
<g id="edge54" class="edge">
<title>Node6&#45;&gt;Node26</title>
<path fill="none" stroke="#63b8ff" d="M617.47,-359.04C542.52,-354.87 328.41,-341.59 140.38,-316.1"/>
<polygon fill="#63b8ff" stroke="#63b8ff" points="140.69,-312.61 130.31,-314.72 139.74,-319.55 140.69,-312.61"/>
</g>
<!-- Node8&#45;&gt;Node2 -->
<g id="edge10" class="edge">
<title>Node8&#45;&gt;Node2</title>
<path fill="none" stroke="#63b8ff" d="M939.06,-291.49C904.43,-281.31 846.3,-264.22 807.79,-252.9"/>
<polygon fill="#63b8ff" stroke="#63b8ff" points="808.55,-249.48 797.97,-250.02 806.58,-256.2 808.55,-249.48"/>
</g>
<!-- Node8&#45;&gt;Node3 -->
<g id="edge11" class="edge">
<title>Node8&#45;&gt;Node3</title>
<path fill="none" stroke="#63b8ff" d="M987.48,-291.49C1010.01,-281.66 1047.31,-265.38 1073.19,-254.08"/>
<polygon fill="#63b8ff" stroke="#63b8ff" points="1074.73,-257.23 1082.49,-250.02 1071.93,-250.81 1074.73,-257.23"/>
</g>
<!-- Node8&#45;&gt;Node4 -->
<g id="edge12" class="edge">
<title>Node8&#45;&gt;Node4</title>
<path fill="none" stroke="#63b8ff" d="M1001.01,-291.49C1040.94,-281.2 1108.24,-263.86 1152.14,-252.54"/>
<polygon fill="#63b8ff" stroke="#63b8ff" points="1153.14,-255.9 1161.95,-250.02 1151.4,-249.12 1153.14,-255.9"/>
</g>
<!-- Node8&#45;&gt;Node5 -->
<g id="edge13" class="edge">
<title>Node8&#45;&gt;Node5</title>
<path fill="none" stroke="#63b8ff" d="M958.56,-291.37C948.73,-282.38 933.11,-268.11 921.11,-257.14"/>
<polygon fill="#63b8ff" stroke="#63b8ff" points="923.22,-254.33 913.48,-250.17 918.5,-259.5 923.22,-254.33"/>
</g>
<!-- Node8&#45;&gt;Node9 -->
<g id="edge14" class="edge">
<title>Node8&#45;&gt;Node9</title>
<path fill="none" stroke="#63b8ff" d="M971.82,-291.13C983.56,-263.9 1019.25,-181.11 1035.18,-144.15"/>
<polygon fill="#63b8ff" stroke="#63b8ff" points="1038.53,-145.21 1039.27,-134.64 1032.1,-142.44 1038.53,-145.21"/>
</g>
<!-- Node10 -->
<g id="node10" class="node">
<title>Node10</title>
<g id="a_node10"><a xlink:title=" ">
<polygon fill="#e0e0e0" stroke="#999999" points="1036,-19 988,-19 988,0 1036,0 1036,-19"/>
<text text-anchor="middle" x="1012" y="-7" font-family="Helvetica,sans-Serif" font-size="10.00">Wire.h</text>
</a>
</g>
</g>
<!-- Node9&#45;&gt;Node10 -->
<g id="edge15" class="edge">
<title>Node9&#45;&gt;Node10</title>
<path fill="none" stroke="#63b8ff" d="M1040.67,-115.47C1035.67,-97.15 1023.79,-53.68 1017,-28.81"/>
<polygon fill="#63b8ff" stroke="#63b8ff" points="1020.37,-27.85 1014.36,-19.13 1013.62,-29.7 1020.37,-27.85"/>
</g>
<!-- Node11 -->
<g id="node11" class="node">
<title>Node11</title>
<g id="a_node11"><a xlink:href="_t_c_a9534_8h.html" target="_top" xlink:title=" ">
<polygon fill="white" stroke="#666666" points="1015,-74 947,-74 947,-55 1015,-55 1015,-74"/>
<text text-anchor="middle" x="981" y="-62" font-family="Helvetica,sans-Serif" font-size="10.00">TCA9534.h</text>
</a>
</g>
</g>
<!-- Node9&#45;&gt;Node11 -->
<g id="edge16" class="edge">
<title>Node9&#45;&gt;Node11</title>
<path fill="none" stroke="#63b8ff" d="M1033.85,-115.37C1024.33,-106.38 1009.2,-92.11 997.57,-81.14"/>
<polygon fill="#63b8ff" stroke="#63b8ff" points="999.86,-78.48 990.19,-74.17 995.06,-83.58 999.86,-78.48"/>
</g>
<!-- Node11&#45;&gt;Node7 -->
<g id="edge17" class="edge">
<title>Node11&#45;&gt;Node7</title>
<path fill="none" stroke="#63b8ff" d="M946.68,-59.94C856,-50.53 610.25,-25.05 511.71,-14.83"/>
<polygon fill="#63b8ff" stroke="#63b8ff" points="511.85,-11.32 501.54,-13.77 511.12,-18.28 511.85,-11.32"/>
</g>
<!-- Node11&#45;&gt;Node10 -->
<g id="edge18" class="edge">
<title>Node11&#45;&gt;Node10</title>
<path fill="none" stroke="#63b8ff" d="M986.12,-54.75C990.36,-47.49 996.53,-36.95 1001.78,-27.98"/>
<polygon fill="#63b8ff" stroke="#63b8ff" points="1004.95,-29.49 1006.98,-19.09 998.91,-25.95 1004.95,-29.49"/>
</g>
<!-- Node12&#45;&gt;Node2 -->
<g id="edge20" class="edge">
<title>Node12&#45;&gt;Node2</title>
<path fill="none" stroke="#63b8ff" d="M1191.92,-291.5C1181.86,-289.53 1171.06,-287.56 1161,-286 1020,-264.18 983.75,-266.25 842,-250 839.92,-249.76 837.81,-249.52 835.67,-249.27"/>
<polygon fill="#63b8ff" stroke="#63b8ff" points="835.92,-245.78 825.59,-248.11 835.12,-252.73 835.92,-245.78"/>
</g>
<!-- Node12&#45;&gt;Node3 -->
<g id="edge21" class="edge">
<title>Node12&#45;&gt;Node3</title>
<path fill="none" stroke="#63b8ff" d="M1213.1,-291.49C1191.34,-281.7 1155.38,-265.52 1130.29,-254.23"/>
<polygon fill="#63b8ff" stroke="#63b8ff" points="1131.48,-250.93 1120.93,-250.02 1128.61,-257.31 1131.48,-250.93"/>
</g>
<!-- Node12&#45;&gt;Node4 -->
<g id="edge22" class="edge">
<title>Node12&#45;&gt;Node4</title>
<path fill="none" stroke="#63b8ff" d="M1226.54,-291.37C1221.13,-282.81 1212.69,-269.47 1205.9,-258.74"/>
<polygon fill="#63b8ff" stroke="#63b8ff" points="1208.79,-256.75 1200.48,-250.17 1202.87,-260.49 1208.79,-256.75"/>
</g>
<!-- Node12&#45;&gt;Node5 -->
<g id="edge25" class="edge">
<title>Node12&#45;&gt;Node5</title>
<path fill="none" stroke="#63b8ff" d="M1189.61,-291.47C1180.2,-289.63 1170.27,-287.72 1161,-286 1094.21,-273.63 1017.46,-260.48 965.35,-251.71"/>
<polygon fill="#63b8ff" stroke="#63b8ff" points="965.7,-248.22 955.26,-250.02 964.54,-255.12 965.7,-248.22"/>
</g>
<!-- Node12&#45;&gt;Node12 -->
<g id="edge23" class="edge">
<title>Node12&#45;&gt;Node12</title>
<path fill="none" stroke="#63b8ff" d="M1261.54,-310.53C1286.22,-314.61 1312,-311.43 1312,-301 1312,-292 1292.78,-288.4 1271.65,-290.2"/>
<polygon fill="#63b8ff" stroke="#63b8ff" points="1271.03,-286.75 1261.54,-291.47 1271.9,-293.7 1271.03,-286.75"/>
</g>
<!-- Node13 -->
<g id="node13" class="node">
<title>Node13</title>
<g id="a_node13"><a xlink:title=" ">
<polygon fill="#e0e0e0" stroke="#999999" points="1412.5,-195 1319.5,-195 1319.5,-176 1412.5,-176 1412.5,-195"/>
<text text-anchor="middle" x="1366" y="-183" font-family="Helvetica,sans-Serif" font-size="10.00">dpiclimate&#45;12.h</text>
</a>
</g>
</g>
<!-- Node12&#45;&gt;Node13 -->
<g id="edge24" class="edge">
<title>Node12&#45;&gt;Node13</title>
<path fill="none" stroke="#63b8ff" d="M1242.07,-291.47C1264.58,-272.41 1319.21,-226.13 1347.83,-201.89"/>
<polygon fill="#63b8ff" stroke="#63b8ff" points="1350.44,-204.26 1355.81,-195.13 1345.92,-198.92 1350.44,-204.26"/>
</g>
<!-- Node12&#45;&gt;Node14 -->
<g id="edge26" class="edge">
<title>Node12&#45;&gt;Node14</title>
<path fill="none" stroke="#63b8ff" d="M1258.76,-291.49C1291.32,-281.14 1346.36,-263.64 1381.93,-252.33"/>
<polygon fill="#63b8ff" stroke="#63b8ff" points="1383.38,-255.54 1391.85,-249.18 1381.26,-248.87 1383.38,-255.54"/>
</g>
<!-- Node14&#45;&gt;Node13 -->
<g id="edge29" class="edge">
<title>Node14&#45;&gt;Node13</title>
<path fill="none" stroke="#63b8ff" d="M1407.74,-230.75C1400.54,-223.11 1389.89,-211.82 1381.15,-202.56"/>
<polygon fill="#63b8ff" stroke="#63b8ff" points="1383.51,-199.96 1374.1,-195.09 1378.42,-204.76 1383.51,-199.96"/>
</g>
<!-- Node15 -->
<g id="node15" class="node">
<title>Node15</title>
<g id="a_node15"><a xlink:title=" ">
<polygon fill="#e0e0e0" stroke="#999999" points="1706,-195 1650,-195 1650,-176 1706,-176 1706,-195"/>
<text text-anchor="middle" x="1678" y="-183" font-family="Helvetica,sans-Serif" font-size="10.00">stddef.h</text>
</a>
</g>
</g>
<!-- Node14&#45;&gt;Node15 -->
<g id="edge27" class="edge">
<title>Node14&#45;&gt;Node15</title>
<path fill="none" stroke="#63b8ff" d="M1440.18,-234.61C1485.88,-225.36 1585.24,-205.26 1639.96,-194.19"/>
<polygon fill="#63b8ff" stroke="#63b8ff" points="1640.85,-197.59 1649.96,-192.17 1639.47,-190.72 1640.85,-197.59"/>
</g>
<!-- Node16 -->
<g id="node16" class="node">
<title>Node16</title>
<g id="a_node16"><a xlink:title=" ">
<polygon fill="#e0e0e0" stroke="#999999" points="773.5,-195 690.5,-195 690.5,-176 773.5,-176 773.5,-195"/>
<text text-anchor="middle" x="732" y="-183" font-family="Helvetica,sans-Serif" font-size="10.00">ArduinoJson.h</text>
</a>
</g>
</g>
<!-- Node14&#45;&gt;Node16 -->
<g id="edge28" class="edge">
<title>Node14&#45;&gt;Node16</title>
<path fill="none" stroke="#63b8ff" d="M1391.66,-237.61C1293.08,-229.98 922.27,-201.24 784.21,-190.55"/>
<polygon fill="#63b8ff" stroke="#63b8ff" points="784.15,-187.03 773.91,-189.75 783.61,-194.01 784.15,-187.03"/>
</g>
<!-- Node14&#45;&gt;Node17 -->
<g id="edge30" class="edge">
<title>Node14&#45;&gt;Node17</title>
<path fill="none" stroke="#63b8ff" d="M1440.21,-231.91C1468.42,-223.06 1515.32,-208.35 1548.08,-198.08"/>
<polygon fill="#63b8ff" stroke="#63b8ff" points="1549.26,-201.38 1557.75,-195.05 1547.16,-194.7 1549.26,-201.38"/>
</g>
<!-- Node17&#45;&gt;Node9 -->
<g id="edge32" class="edge">
<title>Node17&#45;&gt;Node9</title>
<path fill="none" stroke="#63b8ff" d="M1554.07,-178.29C1549.37,-177.46 1544.56,-176.66 1540,-176 1372.74,-151.84 1172.14,-135.49 1085.87,-129.06"/>
<polygon fill="#63b8ff" stroke="#63b8ff" points="1085.91,-125.55 1075.68,-128.31 1085.4,-132.53 1085.91,-125.55"/>
</g>
<!-- Node18 -->
<g id="node18" class="node">
<title>Node18</title>
<g id="a_node18"><a xlink:title=" ">
<polygon fill="#e0e0e0" stroke="#999999" points="1650,-140 1520,-140 1520,-110 1650,-110 1650,-140"/>
<text text-anchor="start" x="1528" y="-128" font-family="Helvetica,sans-Serif" font-size="10.00">SparkFun_u&#45;blox_SARA</text>
<text text-anchor="middle" x="1585" y="-117" font-family="Helvetica,sans-Serif" font-size="10.00">&#45;R5_Arduino_Library.h</text>
</a>
</g>
</g>
<!-- Node17&#45;&gt;Node18 -->
<g id="edge31" class="edge">
<title>Node17&#45;&gt;Node18</title>
<path fill="none" stroke="#63b8ff" d="M1585,-175.87C1585,-169.11 1585,-159.35 1585,-150.26"/>
<polygon fill="#63b8ff" stroke="#63b8ff" points="1588.5,-150.11 1585,-140.11 1581.5,-150.11 1588.5,-150.11"/>
</g>
<!-- Node19&#45;&gt;Node2 -->
<g id="edge34" class="edge">
<title>Node19&#45;&gt;Node2</title>
<path fill="none" stroke="#63b8ff" d="M1051.84,-287.84C1048.85,-287.2 1045.89,-286.58 1043,-286 972.59,-271.95 891.34,-259.18 835.71,-250.96"/>
<polygon fill="#63b8ff" stroke="#63b8ff" points="836.03,-247.47 825.63,-249.48 835.01,-254.4 836.03,-247.47"/>
</g>
<!-- Node19&#45;&gt;Node3 -->
<g id="edge35" class="edge">
<title>Node19&#45;&gt;Node3</title>
<path fill="none" stroke="#63b8ff" d="M1102,-285.84C1102,-278.21 1102,-268.7 1102,-260.45"/>
<polygon fill="#63b8ff" stroke="#63b8ff" points="1105.5,-260.27 1102,-250.27 1098.5,-260.27 1105.5,-260.27"/>
</g>
<!-- Node19&#45;&gt;Node4 -->
<g id="edge36" class="edge">
<title>Node19&#45;&gt;Node4</title>
<path fill="none" stroke="#63b8ff" d="M1124.51,-285.84C1139.06,-276.68 1157.93,-264.82 1172.49,-255.66"/>
<polygon fill="#63b8ff" stroke="#63b8ff" points="1174.74,-258.38 1181.34,-250.09 1171.01,-252.46 1174.74,-258.38"/>
</g>
<!-- Node19&#45;&gt;Node5 -->
<g id="edge37" class="edge">
<title>Node19&#45;&gt;Node5</title>
<path fill="none" stroke="#63b8ff" d="M1054.57,-285.99C1020.4,-275.89 974.86,-262.44 942.84,-252.98"/>
<polygon fill="#63b8ff" stroke="#63b8ff" points="943.53,-249.53 932.95,-250.05 941.55,-256.24 943.53,-249.53"/>
</g>
<!-- Node19&#45;&gt;Node9 -->
<g id="edge38" class="edge">
<title>Node19&#45;&gt;Node9</title>
<path fill="none" stroke="#63b8ff" d="M1087.89,-285.97C1079.31,-276.59 1068.9,-263.52 1063,-250 1047.73,-214.97 1043.99,-169.79 1043.16,-144.77"/>
<polygon fill="#63b8ff" stroke="#63b8ff" points="1046.65,-144.45 1042.94,-134.53 1039.65,-144.6 1046.65,-144.45"/>
</g>
<!-- Node20&#45;&gt;Node2 -->
<g id="edge40" class="edge">
<title>Node20&#45;&gt;Node2</title>
<path fill="none" stroke="#63b8ff" d="M598.15,-286.73C637.03,-276.43 690.29,-262.34 726.96,-252.63"/>
<polygon fill="#63b8ff" stroke="#63b8ff" points="728.06,-255.96 736.83,-250.02 726.27,-249.19 728.06,-255.96"/>
</g>
<!-- Node21 -->
<g id="node21" class="node">
<title>Node21</title>
<g id="a_node21"><a xlink:title=" ">
<polygon fill="#e0e0e0" stroke="#999999" points="570,-250 526,-250 526,-231 570,-231 570,-250"/>
<text text-anchor="middle" x="548" y="-238" font-family="Helvetica,sans-Serif" font-size="10.00">string</text>
</a>
</g>
</g>
<!-- Node20&#45;&gt;Node21 -->
<g id="edge41" class="edge">
<title>Node20&#45;&gt;Node21</title>
<path fill="none" stroke="#63b8ff" d="M548,-285.84C548,-278.21 548,-268.7 548,-260.45"/>
<polygon fill="#63b8ff" stroke="#63b8ff" points="551.5,-260.27 548,-250.27 544.5,-260.27 551.5,-260.27"/>
</g>
<!-- Node22&#45;&gt;Node2 -->
<g id="edge43" class="edge">
<title>Node22&#45;&gt;Node2</title>
<path fill="none" stroke="#63b8ff" d="M769,-285.84C769,-278.21 769,-268.7 769,-260.45"/>
<polygon fill="#63b8ff" stroke="#63b8ff" points="772.5,-260.27 769,-250.27 765.5,-260.27 772.5,-260.27"/>
</g>
<!-- Node22&#45;&gt;Node3 -->
<g id="edge44" class="edge">
<title>Node22&#45;&gt;Node3</title>
<path fill="none" stroke="#63b8ff" d="M846.23,-286.43C913.24,-274.66 1007.63,-258.08 1061.01,-248.7"/>
<polygon fill="#63b8ff" stroke="#63b8ff" points="1061.88,-252.1 1071.12,-246.92 1060.67,-245.21 1061.88,-252.1"/>
</g>
<!-- Node22&#45;&gt;Node4 -->
<g id="edge45" class="edge">
<title>Node22&#45;&gt;Node4</title>
<path fill="none" stroke="#63b8ff" d="M846.23,-290.24C919.44,-280.85 1032.75,-265.97 1140.41,-250.2"/>
<polygon fill="#63b8ff" stroke="#63b8ff" points="1141.09,-253.64 1150.48,-248.73 1140.08,-246.72 1141.09,-253.64"/>
</g>
<!-- Node22&#45;&gt;Node5 -->
<g id="edge46" class="edge">
<title>Node22&#45;&gt;Node5</title>
<path fill="none" stroke="#63b8ff" d="M801.34,-285.99C823.66,-276.31 853.1,-263.56 874.73,-254.18"/>
<polygon fill="#63b8ff" stroke="#63b8ff" points="876.28,-257.33 884.06,-250.14 873.5,-250.9 876.28,-257.33"/>
</g>
<!-- Node23 -->
<g id="node23" class="node">
<title>Node23</title>
<g id="a_node23"><a xlink:href="_device_config_8h.html" target="_top" xlink:title="Node configuration options.">
<polygon fill="white" stroke="#666666" points="434,-250 344,-250 344,-231 434,-231 434,-250"/>
<text text-anchor="middle" x="389" y="-238" font-family="Helvetica,sans-Serif" font-size="10.00">DeviceConfig.h</text>
</a>
</g>
</g>
<!-- Node22&#45;&gt;Node23 -->
<g id="edge47" class="edge">
<title>Node22&#45;&gt;Node23</title>
<path fill="none" stroke="#63b8ff" d="M691.64,-288.09C618.11,-276.77 509.34,-260.03 444.19,-250"/>
<polygon fill="#63b8ff" stroke="#63b8ff" points="444.53,-246.51 434.12,-248.45 443.47,-253.43 444.53,-246.51"/>
</g>
<!-- Node23&#45;&gt;Node7 -->
<g id="edge48" class="edge">
<title>Node23&#45;&gt;Node7</title>
<path fill="none" stroke="#63b8ff" d="M392.08,-230.8C403.95,-197.22 446.98,-75.57 463.49,-28.9"/>
<polygon fill="#63b8ff" stroke="#63b8ff" points="466.89,-29.8 466.92,-19.21 460.29,-27.47 466.89,-29.8"/>
</g>
<!-- Node23&#45;&gt;Node16 -->
<g id="edge49" class="edge">
<title>Node23&#45;&gt;Node16</title>
<path fill="none" stroke="#63b8ff" d="M434.19,-232.52C497.87,-222.68 613.67,-204.78 680.56,-194.45"/>
<polygon fill="#63b8ff" stroke="#63b8ff" points="681.12,-197.9 690.47,-192.92 680.05,-190.99 681.12,-197.9"/>
</g>
<!-- Node24&#45;&gt;Node23 -->
<g id="edge51" class="edge">
<title>Node24&#45;&gt;Node23</title>
<path fill="none" stroke="#63b8ff" d="M382.18,-285.84C383.37,-278.13 384.85,-268.49 386.13,-260.17"/>
<polygon fill="#63b8ff" stroke="#63b8ff" points="389.59,-260.68 387.65,-250.27 382.67,-259.62 389.59,-260.68"/>
</g>
<!-- Node25&#45;&gt;Node23 -->
<g id="edge53" class="edge">
<title>Node25&#45;&gt;Node23</title>
<path fill="none" stroke="#63b8ff" d="M249.07,-285.99C280.69,-275.94 322.78,-262.55 352.52,-253.1"/>
<polygon fill="#63b8ff" stroke="#63b8ff" points="353.63,-256.42 362.1,-250.05 351.51,-249.75 353.63,-256.42"/>
</g>
<!-- Node26&#45;&gt;Node23 -->
<g id="edge55" class="edge">
<title>Node26&#45;&gt;Node23</title>
<path fill="none" stroke="#63b8ff" d="M130.36,-287.59C133.28,-287.05 136.17,-286.52 139,-286 205.93,-273.71 283.05,-260.06 333.72,-251.16"/>
<polygon fill="#63b8ff" stroke="#63b8ff" points="334.57,-254.57 343.81,-249.39 333.36,-247.67 334.57,-254.57"/>
</g>
<!-- Node27&#45;&gt;Node15 -->
<g id="edge61" class="edge">
<title>Node27&#45;&gt;Node15</title>
<path fill="none" stroke="#63b8ff" d="M1653.95,-351.76C1659.48,-343.1 1667.39,-329.26 1671,-316 1681.4,-277.75 1680.81,-230.87 1679.42,-205.32"/>
<polygon fill="#63b8ff" stroke="#63b8ff" points="1682.9,-204.94 1678.77,-195.18 1675.92,-205.39 1682.9,-204.94"/>
</g>
<!-- Node28 -->
<g id="node28" class="node">
<title>Node28</title>
<g id="a_node28"><a xlink:title=" ">
<polygon fill="#e0e0e0" stroke="#999999" points="1661.5,-310.5 1608.5,-310.5 1608.5,-291.5 1661.5,-291.5 1661.5,-310.5"/>
<text text-anchor="middle" x="1635" y="-298.5" font-family="Helvetica,sans-Serif" font-size="10.00">stdint.h</text>
</a>
</g>
</g>
<!-- Node27&#45;&gt;Node28 -->
<g id="edge60" class="edge">
<title>Node27&#45;&gt;Node28</title>
<path fill="none" stroke="#63b8ff" d="M1646.08,-351.87C1644.26,-343.66 1641.45,-331.04 1639.12,-320.55"/>
<polygon fill="#63b8ff" stroke="#63b8ff" points="1642.51,-319.67 1636.93,-310.67 1635.68,-321.19 1642.51,-319.67"/>
</g>
<!-- Node29&#45;&gt;Node14 -->
<g id="edge63" class="edge">
<title>Node29&#45;&gt;Node14</title>
<path fill="none" stroke="#63b8ff" d="M1474.47,-351.94C1464.26,-332.65 1439.26,-285.44 1425.49,-259.43"/>
<polygon fill="#63b8ff" stroke="#63b8ff" points="1428.43,-257.5 1420.66,-250.3 1422.25,-260.78 1428.43,-257.5"/>
</g>
</g>
</svg>
