<?xml version="1.0" encoding="UTF-8" standalone="no"?>
<!DOCTYPE svg PUBLIC "-//W3C//DTD SVG 1.1//EN"
 "http://www.w3.org/Graphics/SVG/1.1/DTD/svg11.dtd">
<!-- Generated by graphviz version 2.43.0 (0)
 -->
<!-- Title: firmware/wombat/include/cli/device_config/config_cli.h Pages: 1 -->
<svg width="1586pt" height="181pt"
 viewBox="0.00 0.00 1585.50 181.00" xmlns="http://www.w3.org/2000/svg" xmlns:xlink="http://www.w3.org/1999/xlink">
<g id="graph0" class="graph" transform="scale(1 1) rotate(0) translate(4 177)">
<title>firmware/wombat/include/cli/device_config/config_cli.h</title>
<!-- Node1 -->
<g id="node1" class="node">
<title>Node1</title>
<g id="a_node1"><a xlink:title=" ">
<polygon fill="#999999" stroke="#666666" points="514.5,-173 356.5,-173 356.5,-143 514.5,-143 514.5,-173"/>
<text text-anchor="start" x="364.5" y="-161" font-family="Helvetica,sans-Serif" font-size="10.00">firmware/wombat/include</text>
<text text-anchor="middle" x="435.5" y="-150" font-family="Helvetica,sans-Serif" font-size="10.00">/cli/device_config/config_cli.h</text>
</a>
</g>
</g>
<!-- Node2 -->
<g id="node2" class="node">
<title>Node2</title>
<g id="a_node2"><a xlink:href="_c_l_i_8h.html" target="_top" xlink:title="FreeRTOS CLI handler.">
<polygon fill="white" stroke="#666666" points="805,-107 664,-107 664,-77 805,-77 805,-107"/>
<text text-anchor="start" x="672" y="-95" font-family="Helvetica,sans-Serif" font-size="10.00">firmware/wombat/include</text>
<text text-anchor="middle" x="734.5" y="-84" font-family="Helvetica,sans-Serif" font-size="10.00">/cli/CLI.h</text>
</a>
</g>
</g>
<!-- Node1&#45;&gt;Node2 -->
<g id="edge1" class="edge">
<title>Node1&#45;&gt;Node2</title>
<path fill="none" stroke="#63b8ff" d="M510.98,-140.84C559.69,-130.42 622.43,-116.99 669.04,-107.01"/>
<polygon fill="#63b8ff" stroke="#63b8ff" points="510.16,-137.44 501.12,-142.95 511.63,-144.28 510.16,-137.44"/>
</g>
<!-- Node6 -->
<g id="node6" class="node">
<title>Node6</title>
<g id="a_node6"><a xlink:href="config__cli_8cpp.html" target="_top" xlink:title="Command line interface node configuration commands.">
<polygon fill="white" stroke="#666666" points="133,-41 0,-41 0,0 133,0 133,-41"/>
<text text-anchor="start" x="8" y="-29" font-family="Helvetica,sans-Serif" font-size="10.00">firmware/wombat/src</text>
<text text-anchor="start" x="8" y="-18" font-family="Helvetica,sans-Serif" font-size="10.00">/cli/device_config/config</text>
<text text-anchor="middle" x="66.5" y="-7" font-family="Helvetica,sans-Serif" font-size="10.00">_cli.cpp</text>
</a>
</g>
</g>
<!-- Node1&#45;&gt;Node6 -->
<g id="edge13" class="edge">
<title>Node1&#45;&gt;Node6</title>
<path fill="none" stroke="#63b8ff" d="M387.29,-139.3C318.18,-113.92 191.41,-67.37 119.66,-41.02"/>
<polygon fill="#63b8ff" stroke="#63b8ff" points="386.46,-142.72 397.05,-142.88 388.87,-136.15 386.46,-142.72"/>
</g>
<!-- Node3 -->
<g id="node3" class="node">
<title>Node3</title>
<g id="a_node3"><a xlink:href="_c_l_i_8cpp.html" target="_top" xlink:title="FreeRTOS CLI handler.">
<polygon fill="white" stroke="#666666" points="271.5,-35.5 151.5,-35.5 151.5,-5.5 271.5,-5.5 271.5,-35.5"/>
<text text-anchor="start" x="159.5" y="-23.5" font-family="Helvetica,sans-Serif" font-size="10.00">firmware/wombat/src</text>
<text text-anchor="middle" x="211.5" y="-12.5" font-family="Helvetica,sans-Serif" font-size="10.00">/cli/CLI.cpp</text>
</a>
</g>
</g>
<!-- Node2&#45;&gt;Node3 -->
<g id="edge2" class="edge">
<title>Node2&#45;&gt;Node3</title>
<path fill="none" stroke="#63b8ff" d="M653.76,-86.05C562.7,-79.54 410.48,-65.91 281.5,-41 273.82,-39.52 265.75,-37.61 257.94,-35.57"/>
<polygon fill="#63b8ff" stroke="#63b8ff" points="653.52,-89.54 663.74,-86.75 654.01,-82.55 653.52,-89.54"/>
</g>
<!-- Node4 -->
<g id="node4" class="node">
<title>Node4</title>
<g id="a_node4"><a xlink:href="acquisition__intervals_8cpp.html" target="_top" xlink:title="Handles the time between measurements and uplinks by the device over LTE.">
<polygon fill="white" stroke="#666666" points="447,-41 290,-41 290,0 447,0 447,-41"/>
<text text-anchor="start" x="298" y="-29" font-family="Helvetica,sans-Serif" font-size="10.00">firmware/wombat/src</text>
<text text-anchor="start" x="298" y="-18" font-family="Helvetica,sans-Serif" font-size="10.00">/cli/device_config/acquisition</text>
<text text-anchor="middle" x="368.5" y="-7" font-family="Helvetica,sans-Serif" font-size="10.00">_intervals.cpp</text>
</a>
</g>
</g>
<!-- Node2&#45;&gt;Node4 -->
<g id="edge3" class="edge">
<title>Node2&#45;&gt;Node4</title>
<path fill="none" stroke="#63b8ff" d="M653.66,-77.34C598.1,-67.74 522.7,-54.28 456.5,-41 453.43,-40.38 450.31,-39.75 447.15,-39.09"/>
<polygon fill="#63b8ff" stroke="#63b8ff" points="653.35,-80.84 663.8,-79.09 654.54,-73.94 653.35,-80.84"/>
</g>
<!-- Node5 -->
<g id="node5" class="node">
<title>Node5</title>
<g id="a_node5"><a xlink:href="cli__power_8cpp.html" target="_top" xlink:title="Power related commands.">
<polygon fill="white" stroke="#666666" points="585.5,-41 465.5,-41 465.5,0 585.5,0 585.5,-41"/>
<text text-anchor="start" x="473.5" y="-29" font-family="Helvetica,sans-Serif" font-size="10.00">firmware/wombat/src</text>
<text text-anchor="start" x="473.5" y="-18" font-family="Helvetica,sans-Serif" font-size="10.00">/cli/device_config/cli</text>
<text text-anchor="middle" x="525.5" y="-7" font-family="Helvetica,sans-Serif" font-size="10.00">_power.cpp</text>
</a>
</g>
</g>
<!-- Node2&#45;&gt;Node5 -->
<g id="edge4" class="edge">
<title>Node2&#45;&gt;Node5</title>
<path fill="none" stroke="#63b8ff" d="M682.42,-73.68C652.64,-63.78 615.2,-51.33 584.36,-41.07"/>
<polygon fill="#63b8ff" stroke="#63b8ff" points="681.61,-77.1 692.21,-76.94 683.82,-70.46 681.61,-77.1"/>
</g>
<!-- Node2&#45;&gt;Node6 -->
<g id="edge5" class="edge">
<title>Node2&#45;&gt;Node6</title>
<path fill="none" stroke="#63b8ff" d="M653.77,-88.45C539.32,-83.87 323.65,-71.67 142.5,-41 139.41,-40.48 136.26,-39.89 133.09,-39.26"/>
<polygon fill="#63b8ff" stroke="#63b8ff" points="653.72,-91.95 663.85,-88.84 654,-84.95 653.72,-91.95"/>
</g>
<!-- Node7 -->
<g id="node7" class="node">
<title>Node7</title>
<g id="a_node7"><a xlink:href="ftp__cli_8cpp.html" target="_top" xlink:title="FTP setup and configuration through the CLI.">
<polygon fill="white" stroke="#666666" points="723.5,-41 603.5,-41 603.5,0 723.5,0 723.5,-41"/>
<text text-anchor="start" x="611.5" y="-29" font-family="Helvetica,sans-Serif" font-size="10.00">firmware/wombat/src</text>
<text text-anchor="start" x="611.5" y="-18" font-family="Helvetica,sans-Serif" font-size="10.00">/cli/device_config/ftp</text>
<text text-anchor="middle" x="663.5" y="-7" font-family="Helvetica,sans-Serif" font-size="10.00">_cli.cpp</text>
</a>
</g>
</g>
<!-- Node2&#45;&gt;Node7 -->
<g id="edge6" class="edge">
<title>Node2&#45;&gt;Node7</title>
<path fill="none" stroke="#63b8ff" d="M712.73,-69.69C703.41,-60.57 692.61,-49.99 683.5,-41.07"/>
<polygon fill="#63b8ff" stroke="#63b8ff" points="710.54,-72.44 720.13,-76.94 715.43,-67.44 710.54,-72.44"/>
</g>
<!-- Node8 -->
<g id="node8" class="node">
<title>Node8</title>
<g id="a_node8"><a xlink:href="mqtt__cli_8cpp.html" target="_top" xlink:title="MQTT setup and configuration through the CLI.">
<polygon fill="white" stroke="#666666" points="869,-41 742,-41 742,0 869,0 869,-41"/>
<text text-anchor="start" x="750" y="-29" font-family="Helvetica,sans-Serif" font-size="10.00">firmware/wombat/src</text>
<text text-anchor="start" x="750" y="-18" font-family="Helvetica,sans-Serif" font-size="10.00">/cli/device_config/mqtt</text>
<text text-anchor="middle" x="805.5" y="-7" font-family="Helvetica,sans-Serif" font-size="10.00">_cli.cpp</text>
</a>
</g>
</g>
<!-- Node2&#45;&gt;Node8 -->
<g id="edge7" class="edge">
<title>Node2&#45;&gt;Node8</title>
<path fill="none" stroke="#63b8ff" d="M756.27,-69.69C765.59,-60.57 776.39,-49.99 785.5,-41.07"/>
<polygon fill="#63b8ff" stroke="#63b8ff" points="753.57,-67.44 748.87,-76.94 758.46,-72.44 753.57,-67.44"/>
</g>
<!-- Node9 -->
<g id="node9" class="node">
<title>Node9</title>
<g id="a_node9"><a xlink:href="cat-m1_8cpp.html" target="_top" xlink:title="CAT&#45;M1 CLI command request and response handler.">
<polygon fill="white" stroke="#666666" points="1007.5,-41 887.5,-41 887.5,0 1007.5,0 1007.5,-41"/>
<text text-anchor="start" x="895.5" y="-29" font-family="Helvetica,sans-Serif" font-size="10.00">firmware/wombat/src</text>
<text text-anchor="start" x="895.5" y="-18" font-family="Helvetica,sans-Serif" font-size="10.00">/cli/peripherals/cat</text>
<text text-anchor="middle" x="947.5" y="-7" font-family="Helvetica,sans-Serif" font-size="10.00">&#45;m1.cpp</text>
</a>
</g>
</g>
<!-- Node2&#45;&gt;Node9 -->
<g id="edge8" class="edge">
<title>Node2&#45;&gt;Node9</title>
<path fill="none" stroke="#63b8ff" d="M787.18,-73.81C817.59,-63.89 855.94,-51.37 887.51,-41.07"/>
<polygon fill="#63b8ff" stroke="#63b8ff" points="786.02,-70.51 777.6,-76.94 788.2,-77.16 786.02,-70.51"/>
</g>
<!-- Node10 -->
<g id="node10" class="node">
<title>Node10</title>
<g id="a_node10"><a xlink:href="sd__card_8cpp.html" target="_top" xlink:title=" ">
<polygon fill="white" stroke="#666666" points="1145.5,-41 1025.5,-41 1025.5,0 1145.5,0 1145.5,-41"/>
<text text-anchor="start" x="1033.5" y="-29" font-family="Helvetica,sans-Serif" font-size="10.00">firmware/wombat/src</text>
<text text-anchor="start" x="1033.5" y="-18" font-family="Helvetica,sans-Serif" font-size="10.00">/cli/peripherals/sd</text>
<text text-anchor="middle" x="1085.5" y="-7" font-family="Helvetica,sans-Serif" font-size="10.00">_card.cpp</text>
</a>
</g>
</g>
<!-- Node2&#45;&gt;Node10 -->
<g id="edge9" class="edge">
<title>Node2&#45;&gt;Node10</title>
<path fill="none" stroke="#63b8ff" d="M814.98,-78.92C871.62,-69.89 949.07,-56.47 1016.5,-41 1019.41,-40.33 1022.38,-39.62 1025.38,-38.87"/>
<polygon fill="#63b8ff" stroke="#63b8ff" points="814.34,-75.48 805.01,-80.5 815.43,-82.4 814.34,-75.48"/>
</g>
<!-- Node11 -->
<g id="node11" class="node">
<title>Node11</title>
<g id="a_node11"><a xlink:href="sdi12_8cpp.html" target="_top" xlink:title="SDI&#45;12 command line interface handler.">
<polygon fill="white" stroke="#666666" points="1301.5,-35.5 1163.5,-35.5 1163.5,-5.5 1301.5,-5.5 1301.5,-35.5"/>
<text text-anchor="start" x="1171.5" y="-23.5" font-family="Helvetica,sans-Serif" font-size="10.00">firmware/wombat/src</text>
<text text-anchor="middle" x="1232.5" y="-12.5" font-family="Helvetica,sans-Serif" font-size="10.00">/cli/peripherals/sdi12.cpp</text>
</a>
</g>
</g>
<!-- Node2&#45;&gt;Node11 -->
<g id="edge10" class="edge">
<title>Node2&#45;&gt;Node11</title>
<path fill="none" stroke="#63b8ff" d="M815.22,-84.45C900.12,-76.84 1037.39,-62.52 1154.5,-41 1162.87,-39.46 1171.69,-37.55 1180.25,-35.53"/>
<polygon fill="#63b8ff" stroke="#63b8ff" points="814.79,-80.97 805.13,-85.34 815.4,-87.94 814.79,-80.97"/>
</g>
<!-- Node12 -->
<g id="node12" class="node">
<title>Node12</title>
<g id="a_node12"><a xlink:href="main_8cpp.html" target="_top" xlink:title=" ">
<polygon fill="white" stroke="#666666" points="1439.5,-35.5 1319.5,-35.5 1319.5,-5.5 1439.5,-5.5 1439.5,-35.5"/>
<text text-anchor="start" x="1327.5" y="-23.5" font-family="Helvetica,sans-Serif" font-size="10.00">firmware/wombat/src</text>
<text text-anchor="middle" x="1379.5" y="-12.5" font-family="Helvetica,sans-Serif" font-size="10.00">/main.cpp</text>
</a>
</g>
</g>
<!-- Node2&#45;&gt;Node12 -->
<g id="edge11" class="edge">
<title>Node2&#45;&gt;Node12</title>
<path fill="none" stroke="#63b8ff" d="M815.32,-88.79C927.34,-84.64 1135.76,-72.98 1310.5,-41 1318.34,-39.57 1326.57,-37.63 1334.51,-35.53"/>
<polygon fill="#63b8ff" stroke="#63b8ff" points="814.98,-85.3 805.12,-89.16 815.24,-92.3 814.98,-85.3"/>
</g>
<!-- Node13 -->
<g id="node13" class="node">
<title>Node13</title>
<g id="a_node13"><a xlink:href="mqtt__stack_8cpp.html" target="_top" xlink:title=" ">
<polygon fill="white" stroke="#666666" points="1577.5,-35.5 1457.5,-35.5 1457.5,-5.5 1577.5,-5.5 1577.5,-35.5"/>
<text text-anchor="start" x="1465.5" y="-23.5" font-family="Helvetica,sans-Serif" font-size="10.00">firmware/wombat/src</text>
<text text-anchor="middle" x="1517.5" y="-12.5" font-family="Helvetica,sans-Serif" font-size="10.00">/mqtt_stack.cpp</text>
</a>
</g>
</g>
<!-- Node2&#45;&gt;Node13 -->
<g id="edge12" class="edge">
<title>Node2&#45;&gt;Node13</title>
<path fill="none" stroke="#63b8ff" d="M815.11,-90.73C948.06,-89.08 1221.22,-80.64 1448.5,-41 1456.47,-39.61 1464.84,-37.67 1472.9,-35.55"/>
<polygon fill="#63b8ff" stroke="#63b8ff" points="814.97,-87.23 805.01,-90.84 815.05,-94.23 814.97,-87.23"/>
</g>
</g>
</svg>
