<?xml version="1.0" encoding="UTF-8" standalone="no"?>
<!DOCTYPE svg PUBLIC "-//W3C//DTD SVG 1.1//EN"
 "http://www.w3.org/Graphics/SVG/1.1/DTD/svg11.dtd">
<!-- Generated by graphviz version 2.43.0 (0)
 -->
<!-- Title: firmware/wombat/src/cli/device_config/config_cli.cpp Pages: 1 -->
<svg width="1036pt" height="291pt"
 viewBox="0.00 0.00 1035.50 291.00" xmlns="http://www.w3.org/2000/svg" xmlns:xlink="http://www.w3.org/1999/xlink">
<g id="graph0" class="graph" transform="scale(1 1) rotate(0) translate(4 287)">
<title>firmware/wombat/src/cli/device_config/config_cli.cpp</title>
<!-- Node1 -->
<g id="node1" class="node">
<title>Node1</title>
<g id="a_node1"><a xlink:title="Command line interface node configuration commands.">
<polygon fill="#999999" stroke="#666666" points="627,-283 494,-283 494,-242 627,-242 627,-283"/>
<text text-anchor="start" x="502" y="-271" font-family="Helvetica,sans-Serif" font-size="10.00">firmware/wombat/src</text>
<text text-anchor="start" x="502" y="-260" font-family="Helvetica,sans-Serif" font-size="10.00">/cli/device_config/config</text>
<text text-anchor="middle" x="560.5" y="-249" font-family="Helvetica,sans-Serif" font-size="10.00">_cli.cpp</text>
</a>
</g>
</g>
<!-- Node2 -->
<g id="node2" class="node">
<title>Node2</title>
<g id="a_node2"><a xlink:title=" ">
<polygon fill="#e0e0e0" stroke="#999999" points="113,-200.5 0,-200.5 0,-181.5 113,-181.5 113,-200.5"/>
<text text-anchor="middle" x="56.5" y="-188.5" font-family="Helvetica,sans-Serif" font-size="10.00">freertos/FreeRTOS.h</text>
</a>
</g>
</g>
<!-- Node1&#45;&gt;Node2 -->
<g id="edge1" class="edge">
<title>Node1&#45;&gt;Node2</title>
<path fill="none" stroke="#63b8ff" d="M493.67,-254.87C407.38,-245.89 252.7,-228.38 121.5,-206 115.67,-205.01 109.57,-203.85 103.54,-202.63"/>
<polygon fill="#63b8ff" stroke="#63b8ff" points="104.02,-199.16 93.52,-200.55 102.6,-206.01 104.02,-199.16"/>
</g>
<!-- Node3 -->
<g id="node3" class="node">
<title>Node3</title>
<g id="a_node3"><a xlink:title=" ">
<polygon fill="#e0e0e0" stroke="#999999" points="192,-200.5 131,-200.5 131,-181.5 192,-181.5 192,-200.5"/>
<text text-anchor="middle" x="161.5" y="-188.5" font-family="Helvetica,sans-Serif" font-size="10.00">Stream.h</text>
</a>
</g>
</g>
<!-- Node1&#45;&gt;Node3 -->
<g id="edge2" class="edge">
<title>Node1&#45;&gt;Node3</title>
<path fill="none" stroke="#63b8ff" d="M493.71,-255.08C420.86,-247.18 301.17,-231.58 200.5,-206 198,-205.36 195.43,-204.63 192.87,-203.84"/>
<polygon fill="#63b8ff" stroke="#63b8ff" points="193.73,-200.44 183.14,-200.6 191.52,-207.08 193.73,-200.44"/>
</g>
<!-- Node4 -->
<g id="node4" class="node">
<title>Node4</title>
<g id="a_node4"><a xlink:title=" ">
<polygon fill="#e0e0e0" stroke="#999999" points="299,-200.5 210,-200.5 210,-181.5 299,-181.5 299,-200.5"/>
<text text-anchor="middle" x="254.5" y="-188.5" font-family="Helvetica,sans-Serif" font-size="10.00">StreamString.h</text>
</a>
</g>
</g>
<!-- Node1&#45;&gt;Node4 -->
<g id="edge3" class="edge">
<title>Node1&#45;&gt;Node4</title>
<path fill="none" stroke="#63b8ff" d="M493.74,-247.66C442.63,-236.87 370.44,-221.21 307.5,-206 303.66,-205.07 299.66,-204.07 295.67,-203.06"/>
<polygon fill="#63b8ff" stroke="#63b8ff" points="296.39,-199.63 285.83,-200.51 294.64,-206.41 296.39,-199.63"/>
</g>
<!-- Node5 -->
<g id="node5" class="node">
<title>Node5</title>
<g id="a_node5"><a xlink:title=" ">
<polygon fill="#e0e0e0" stroke="#999999" points="424,-200.5 317,-200.5 317,-181.5 424,-181.5 424,-200.5"/>
<text text-anchor="middle" x="370.5" y="-188.5" font-family="Helvetica,sans-Serif" font-size="10.00">cli/FreeRTOS_CLI.h</text>
</a>
</g>
</g>
<!-- Node1&#45;&gt;Node5 -->
<g id="edge4" class="edge">
<title>Node1&#45;&gt;Node5</title>
<path fill="none" stroke="#63b8ff" d="M507.07,-241.96C473.69,-229.74 431.77,-214.41 403.24,-203.98"/>
<polygon fill="#63b8ff" stroke="#63b8ff" points="404.34,-200.65 393.75,-200.5 401.94,-207.23 404.34,-200.65"/>
</g>
<!-- Node6 -->
<g id="node6" class="node">
<title>Node6</title>
<g id="a_node6"><a xlink:href="config__cli_8h.html" target="_top" xlink:title=" ">
<polygon fill="white" stroke="#666666" points="572.5,-206 442.5,-206 442.5,-176 572.5,-176 572.5,-206"/>
<text text-anchor="start" x="450.5" y="-194" font-family="Helvetica,sans-Serif" font-size="10.00">cli/device_config/config</text>
<text text-anchor="middle" x="507.5" y="-183" font-family="Helvetica,sans-Serif" font-size="10.00">_cli.h</text>
</a>
</g>
</g>
<!-- Node1&#45;&gt;Node6 -->
<g id="edge5" class="edge">
<title>Node1&#45;&gt;Node6</title>
<path fill="none" stroke="#63b8ff" d="M545.45,-241.77C538.87,-233.13 531.11,-222.96 524.33,-214.08"/>
<polygon fill="#63b8ff" stroke="#63b8ff" points="527.05,-211.87 518.21,-206.04 521.49,-216.11 527.05,-211.87"/>
</g>
<!-- Node10 -->
<g id="node10" class="node">
<title>Node10</title>
<g id="a_node10"><a xlink:href="_c_a_t___m1_8h.html" target="_top" xlink:title=" ">
<polygon fill="white" stroke="#666666" points="879,-134.5 814,-134.5 814,-115.5 879,-115.5 879,-134.5"/>
<text text-anchor="middle" x="846.5" y="-122.5" font-family="Helvetica,sans-Serif" font-size="10.00">CAT_M1.h</text>
</a>
</g>
</g>
<!-- Node1&#45;&gt;Node10 -->
<g id="edge9" class="edge">
<title>Node1&#45;&gt;Node10</title>
<path fill="none" stroke="#63b8ff" d="M627.06,-248C663.36,-239.07 708.33,-225.38 745.5,-206 746.07,-205.7 798.49,-164.11 827.58,-141.03"/>
<polygon fill="#63b8ff" stroke="#63b8ff" points="830.11,-143.48 835.77,-134.52 825.76,-138 830.11,-143.48"/>
</g>
<!-- Node13 -->
<g id="node13" class="node">
<title>Node13</title>
<g id="a_node13"><a xlink:href="_utils_8h.html" target="_top" xlink:title=" ">
<polygon fill="white" stroke="#666666" points="638.5,-200.5 590.5,-200.5 590.5,-181.5 638.5,-181.5 638.5,-200.5"/>
<text text-anchor="middle" x="614.5" y="-188.5" font-family="Helvetica,sans-Serif" font-size="10.00">Utils.h</text>
</a>
</g>
</g>
<!-- Node1&#45;&gt;Node13 -->
<g id="edge14" class="edge">
<title>Node1&#45;&gt;Node13</title>
<path fill="none" stroke="#63b8ff" d="M575.83,-241.77C583.93,-231.34 593.77,-218.68 601.5,-208.73"/>
<polygon fill="#63b8ff" stroke="#63b8ff" points="604.28,-210.86 607.65,-200.82 598.75,-206.57 604.28,-210.86"/>
</g>
<!-- Node16 -->
<g id="node16" class="node">
<title>Node16</title>
<g id="a_node16"><a xlink:href="ota__update_8h.html" target="_top" xlink:title=" ">
<polygon fill="white" stroke="#666666" points="736.5,-200.5 656.5,-200.5 656.5,-181.5 736.5,-181.5 736.5,-200.5"/>
<text text-anchor="middle" x="696.5" y="-188.5" font-family="Helvetica,sans-Serif" font-size="10.00">ota_update.h</text>
</a>
</g>
</g>
<!-- Node1&#45;&gt;Node16 -->
<g id="edge18" class="edge">
<title>Node1&#45;&gt;Node16</title>
<path fill="none" stroke="#63b8ff" d="M598.75,-241.96C621.81,-230.17 650.55,-215.48 670.89,-205.09"/>
<polygon fill="#63b8ff" stroke="#63b8ff" points="672.55,-208.17 679.86,-200.5 669.36,-201.94 672.55,-208.17"/>
</g>
<!-- Node18 -->
<g id="node18" class="node">
<title>Node18</title>
<g id="a_node18"><a xlink:href="ftp__stack_8h.html" target="_top" xlink:title=" ">
<polygon fill="white" stroke="#666666" points="862.5,-200.5 792.5,-200.5 792.5,-181.5 862.5,-181.5 862.5,-200.5"/>
<text text-anchor="middle" x="827.5" y="-188.5" font-family="Helvetica,sans-Serif" font-size="10.00">ftp_stack.h</text>
</a>
</g>
</g>
<!-- Node1&#45;&gt;Node18 -->
<g id="edge21" class="edge">
<title>Node1&#45;&gt;Node18</title>
<path fill="none" stroke="#63b8ff" d="M627.42,-245C670.62,-234.21 727.98,-219.65 778.5,-206 781.7,-205.13 785.02,-204.22 788.35,-203.3"/>
<polygon fill="#63b8ff" stroke="#63b8ff" points="789.58,-206.58 798.26,-200.5 787.69,-199.85 789.58,-206.58"/>
</g>
<!-- Node19 -->
<g id="node19" class="node">
<title>Node19</title>
<g id="a_node19"><a xlink:href="globals_8h.html" target="_top" xlink:title=" ">
<polygon fill="white" stroke="#666666" points="942,-200.5 881,-200.5 881,-181.5 942,-181.5 942,-200.5"/>
<text text-anchor="middle" x="911.5" y="-188.5" font-family="Helvetica,sans-Serif" font-size="10.00">globals.h</text>
</a>
</g>
</g>
<!-- Node1&#45;&gt;Node19 -->
<g id="edge22" class="edge">
<title>Node1&#45;&gt;Node19</title>
<path fill="none" stroke="#63b8ff" d="M627.3,-252.74C690.74,-243.68 788.48,-227.79 871.5,-206 873.99,-205.35 876.55,-204.61 879.11,-203.83"/>
<polygon fill="#63b8ff" stroke="#63b8ff" points="880.44,-207.07 888.85,-200.63 878.26,-200.42 880.44,-207.07"/>
</g>
<!-- Node7 -->
<g id="node7" class="node">
<title>Node7</title>
<g id="a_node7"><a xlink:href="_device_config_8h.html" target="_top" xlink:title="Node configuration options.">
<polygon fill="white" stroke="#666666" points="500.5,-134.5 410.5,-134.5 410.5,-115.5 500.5,-115.5 500.5,-134.5"/>
<text text-anchor="middle" x="455.5" y="-122.5" font-family="Helvetica,sans-Serif" font-size="10.00">DeviceConfig.h</text>
</a>
</g>
</g>
<!-- Node6&#45;&gt;Node7 -->
<g id="edge6" class="edge">
<title>Node6&#45;&gt;Node7</title>
<path fill="none" stroke="#63b8ff" d="M495.96,-175.8C488.01,-166.01 477.42,-152.98 469.07,-142.7"/>
<polygon fill="#63b8ff" stroke="#63b8ff" points="471.71,-140.4 462.69,-134.84 466.28,-144.81 471.71,-140.4"/>
</g>
<!-- Node8 -->
<g id="node8" class="node">
<title>Node8</title>
<g id="a_node8"><a xlink:title=" ">
<polygon fill="#e0e0e0" stroke="#999999" points="646,-19 583,-19 583,0 646,0 646,-19"/>
<text text-anchor="middle" x="614.5" y="-7" font-family="Helvetica,sans-Serif" font-size="10.00">Arduino.h</text>
</a>
</g>
</g>
<!-- Node7&#45;&gt;Node8 -->
<g id="edge7" class="edge">
<title>Node7&#45;&gt;Node8</title>
<path fill="none" stroke="#63b8ff" d="M455.69,-115.07C456.48,-100.5 460.17,-71.6 476.5,-55 501.88,-29.2 542.27,-18.35 572.81,-13.78"/>
<polygon fill="#63b8ff" stroke="#63b8ff" points="573.3,-17.25 582.75,-12.47 572.38,-10.31 573.3,-17.25"/>
</g>
<!-- Node9 -->
<g id="node9" class="node">
<title>Node9</title>
<g id="a_node9"><a xlink:title=" ">
<polygon fill="#e0e0e0" stroke="#999999" points="569,-74 486,-74 486,-55 569,-55 569,-74"/>
<text text-anchor="middle" x="527.5" y="-62" font-family="Helvetica,sans-Serif" font-size="10.00">ArduinoJson.h</text>
</a>
</g>
</g>
<!-- Node7&#45;&gt;Node9 -->
<g id="edge8" class="edge">
<title>Node7&#45;&gt;Node9</title>
<path fill="none" stroke="#63b8ff" d="M466.12,-115.37C477.4,-106.21 495.42,-91.56 509.03,-80.51"/>
<polygon fill="#63b8ff" stroke="#63b8ff" points="511.28,-83.19 516.83,-74.17 506.86,-77.76 511.28,-83.19"/>
</g>
<!-- Node11 -->
<g id="node11" class="node">
<title>Node11</title>
<g id="a_node11"><a xlink:title=" ">
<polygon fill="#e0e0e0" stroke="#999999" points="839.5,-19 791.5,-19 791.5,0 839.5,0 839.5,-19"/>
<text text-anchor="middle" x="815.5" y="-7" font-family="Helvetica,sans-Serif" font-size="10.00">Wire.h</text>
</a>
</g>
</g>
<!-- Node10&#45;&gt;Node11 -->
<g id="edge10" class="edge">
<title>Node10&#45;&gt;Node11</title>
<path fill="none" stroke="#63b8ff" d="M844.17,-115.47C839.17,-97.15 827.29,-53.68 820.5,-28.81"/>
<polygon fill="#63b8ff" stroke="#63b8ff" points="823.87,-27.85 817.86,-19.13 817.12,-29.7 823.87,-27.85"/>
</g>
<!-- Node12 -->
<g id="node12" class="node">
<title>Node12</title>
<g id="a_node12"><a xlink:href="_t_c_a9534_8h.html" target="_top" xlink:title=" ">
<polygon fill="white" stroke="#666666" points="818.5,-74 750.5,-74 750.5,-55 818.5,-55 818.5,-74"/>
<text text-anchor="middle" x="784.5" y="-62" font-family="Helvetica,sans-Serif" font-size="10.00">TCA9534.h</text>
</a>
</g>
</g>
<!-- Node10&#45;&gt;Node12 -->
<g id="edge11" class="edge">
<title>Node10&#45;&gt;Node12</title>
<path fill="none" stroke="#63b8ff" d="M837.35,-115.37C827.83,-106.38 812.7,-92.11 801.07,-81.14"/>
<polygon fill="#63b8ff" stroke="#63b8ff" points="803.36,-78.48 793.69,-74.17 798.56,-83.58 803.36,-78.48"/>
</g>
<!-- Node12&#45;&gt;Node8 -->
<g id="edge12" class="edge">
<title>Node12&#45;&gt;Node8</title>
<path fill="none" stroke="#63b8ff" d="M757.19,-54.98C728.65,-46.09 683.67,-32.07 651.86,-22.15"/>
<polygon fill="#63b8ff" stroke="#63b8ff" points="652.62,-18.72 642.03,-19.08 650.53,-25.4 652.62,-18.72"/>
</g>
<!-- Node12&#45;&gt;Node11 -->
<g id="edge13" class="edge">
<title>Node12&#45;&gt;Node11</title>
<path fill="none" stroke="#63b8ff" d="M789.62,-54.75C793.86,-47.49 800.03,-36.95 805.28,-27.98"/>
<polygon fill="#63b8ff" stroke="#63b8ff" points="808.45,-29.49 810.48,-19.09 802.41,-25.95 808.45,-29.49"/>
</g>
<!-- Node13&#45;&gt;Node9 -->
<g id="edge16" class="edge">
<title>Node13&#45;&gt;Node9</title>
<path fill="none" stroke="#63b8ff" d="M597.34,-181.49C582.03,-173.02 560.13,-158.62 547.5,-140 536.13,-123.23 531.21,-100.27 529.09,-84.28"/>
<polygon fill="#63b8ff" stroke="#63b8ff" points="532.54,-83.63 527.99,-74.07 525.58,-84.38 532.54,-83.63"/>
</g>
<!-- Node14 -->
<g id="node14" class="node">
<title>Node14</title>
<g id="a_node14"><a xlink:title=" ">
<polygon fill="#e0e0e0" stroke="#999999" points="724.5,-134.5 668.5,-134.5 668.5,-115.5 724.5,-115.5 724.5,-134.5"/>
<text text-anchor="middle" x="696.5" y="-122.5" font-family="Helvetica,sans-Serif" font-size="10.00">stddef.h</text>
</a>
</g>
</g>
<!-- Node13&#45;&gt;Node14 -->
<g id="edge15" class="edge">
<title>Node13&#45;&gt;Node14</title>
<path fill="none" stroke="#63b8ff" d="M625.56,-181.37C638.76,-171.06 661.08,-153.65 677.16,-141.09"/>
<polygon fill="#63b8ff" stroke="#63b8ff" points="679.62,-143.61 685.35,-134.7 675.32,-138.09 679.62,-143.61"/>
</g>
<!-- Node15 -->
<g id="node15" class="node">
<title>Node15</title>
<g id="a_node15"><a xlink:title=" ">
<polygon fill="#e0e0e0" stroke="#999999" points="650,-134.5 557,-134.5 557,-115.5 650,-115.5 650,-134.5"/>
<text text-anchor="middle" x="603.5" y="-122.5" font-family="Helvetica,sans-Serif" font-size="10.00">dpiclimate&#45;12.h</text>
</a>
</g>
</g>
<!-- Node13&#45;&gt;Node15 -->
<g id="edge17" class="edge">
<title>Node13&#45;&gt;Node15</title>
<path fill="none" stroke="#63b8ff" d="M613.02,-181.37C611.42,-172.07 608.82,-156.98 606.75,-144.9"/>
<polygon fill="#63b8ff" stroke="#63b8ff" points="610.17,-144.17 605.03,-134.91 603.28,-145.35 610.17,-144.17"/>
</g>
<!-- Node16&#45;&gt;Node14 -->
<g id="edge20" class="edge">
<title>Node16&#45;&gt;Node14</title>
<path fill="none" stroke="#63b8ff" d="M696.5,-181.37C696.5,-172.16 696.5,-157.29 696.5,-145.27"/>
<polygon fill="#63b8ff" stroke="#63b8ff" points="700,-144.91 696.5,-134.91 693,-144.91 700,-144.91"/>
</g>
<!-- Node17 -->
<g id="node17" class="node">
<title>Node17</title>
<g id="a_node17"><a xlink:title=" ">
<polygon fill="#e0e0e0" stroke="#999999" points="796,-134.5 743,-134.5 743,-115.5 796,-115.5 796,-134.5"/>
<text text-anchor="middle" x="769.5" y="-122.5" font-family="Helvetica,sans-Serif" font-size="10.00">stdint.h</text>
</a>
</g>
</g>
<!-- Node16&#45;&gt;Node17 -->
<g id="edge19" class="edge">
<title>Node16&#45;&gt;Node17</title>
<path fill="none" stroke="#63b8ff" d="M706.35,-181.37C717.93,-171.21 737.38,-154.16 751.64,-141.65"/>
<polygon fill="#63b8ff" stroke="#63b8ff" points="754.13,-144.13 759.34,-134.91 749.52,-138.87 754.13,-144.13"/>
</g>
<!-- Node19&#45;&gt;Node10 -->
<g id="edge24" class="edge">
<title>Node19&#45;&gt;Node10</title>
<path fill="none" stroke="#63b8ff" d="M902.73,-181.37C892.52,-171.31 875.42,-154.48 862.76,-142.01"/>
<polygon fill="#63b8ff" stroke="#63b8ff" points="865.13,-139.43 855.54,-134.91 860.21,-144.42 865.13,-139.43"/>
</g>
<!-- Node20 -->
<g id="node20" class="node">
<title>Node20</title>
<g id="a_node20"><a xlink:title=" ">
<polygon fill="#e0e0e0" stroke="#999999" points="1027.5,-140 897.5,-140 897.5,-110 1027.5,-110 1027.5,-140"/>
<text text-anchor="start" x="905.5" y="-128" font-family="Helvetica,sans-Serif" font-size="10.00">SparkFun_u&#45;blox_SARA</text>
<text text-anchor="middle" x="962.5" y="-117" font-family="Helvetica,sans-Serif" font-size="10.00">&#45;R5_Arduino_Library.h</text>
</a>
</g>
</g>
<!-- Node19&#45;&gt;Node20 -->
<g id="edge23" class="edge">
<title>Node19&#45;&gt;Node20</title>
<path fill="none" stroke="#63b8ff" d="M918.38,-181.37C925.12,-172.91 935.67,-159.67 944.77,-148.25"/>
<polygon fill="#63b8ff" stroke="#63b8ff" points="947.56,-150.36 951.06,-140.36 942.09,-146 947.56,-150.36"/>
</g>
</g>
</svg>
