<?xml version="1.0" encoding="UTF-8" standalone="no"?>
<!DOCTYPE svg PUBLIC "-//W3C//DTD SVG 1.1//EN"
 "http://www.w3.org/Graphics/SVG/1.1/DTD/svg11.dtd">
<!-- Generated by graphviz version 2.43.0 (0)
 -->
<!-- Title: firmware/wombat/src/cli/device_config/config_cli.cpp Pages: 1 -->
<svg width="1006pt" height="401pt"
 viewBox="0.00 0.00 1005.50 401.00" xmlns="http://www.w3.org/2000/svg" xmlns:xlink="http://www.w3.org/1999/xlink">
<g id="graph0" class="graph" transform="scale(1 1) rotate(0) translate(4 397)">
<title>firmware/wombat/src/cli/device_config/config_cli.cpp</title>
<!-- Node1 -->
<g id="node1" class="node">
<title>Node1</title>
<g id="a_node1"><a xlink:title="Command line interface node configuration commands.">
<polygon fill="#999999" stroke="#666666" points="624.5,-393 491.5,-393 491.5,-352 624.5,-352 624.5,-393"/>
<text text-anchor="start" x="499.5" y="-381" font-family="Helvetica,sans-Serif" font-size="10.00">firmware/wombat/src</text>
<text text-anchor="start" x="499.5" y="-370" font-family="Helvetica,sans-Serif" font-size="10.00">/cli/device_config/config</text>
<text text-anchor="middle" x="558" y="-359" font-family="Helvetica,sans-Serif" font-size="10.00">_cli.cpp</text>
</a>
</g>
</g>
<!-- Node2 -->
<g id="node2" class="node">
<title>Node2</title>
<g id="a_node2"><a xlink:title=" ">
<polygon fill="#e0e0e0" stroke="#999999" points="141.5,-195 28.5,-195 28.5,-176 141.5,-176 141.5,-195"/>
<text text-anchor="middle" x="85" y="-183" font-family="Helvetica,sans-Serif" font-size="10.00">freertos/FreeRTOS.h</text>
</a>
</g>
</g>
<!-- Node1&#45;&gt;Node2 -->
<g id="edge1" class="edge">
<title>Node1&#45;&gt;Node2</title>
<path fill="none" stroke="#63b8ff" d="M491.41,-365.55C405.92,-357.08 262.99,-339.88 216,-316 162.72,-288.92 117.42,-232.37 96.84,-203.8"/>
<polygon fill="#63b8ff" stroke="#63b8ff" points="99.45,-201.43 90.84,-195.27 93.73,-205.46 99.45,-201.43"/>
</g>
<!-- Node3 -->
<g id="node3" class="node">
<title>Node3</title>
<g id="a_node3"><a xlink:title=" ">
<polygon fill="#e0e0e0" stroke="#999999" points="220.5,-195 159.5,-195 159.5,-176 220.5,-176 220.5,-195"/>
<text text-anchor="middle" x="190" y="-183" font-family="Helvetica,sans-Serif" font-size="10.00">Stream.h</text>
</a>
</g>
</g>
<!-- Node1&#45;&gt;Node3 -->
<g id="edge2" class="edge">
<title>Node1&#45;&gt;Node3</title>
<path fill="none" stroke="#63b8ff" d="M491.29,-366.19C411.98,-358.76 285.48,-343.04 247,-316 209.92,-289.94 196.68,-234.18 192.18,-205.06"/>
<polygon fill="#63b8ff" stroke="#63b8ff" points="195.63,-204.45 190.81,-195.01 188.69,-205.39 195.63,-204.45"/>
</g>
<!-- Node4 -->
<g id="node4" class="node">
<title>Node4</title>
<g id="a_node4"><a xlink:title=" ">
<polygon fill="#e0e0e0" stroke="#999999" points="366.5,-195 277.5,-195 277.5,-176 366.5,-176 366.5,-195"/>
<text text-anchor="middle" x="322" y="-183" font-family="Helvetica,sans-Serif" font-size="10.00">StreamString.h</text>
</a>
</g>
</g>
<!-- Node1&#45;&gt;Node4 -->
<g id="edge3" class="edge">
<title>Node1&#45;&gt;Node4</title>
<path fill="none" stroke="#63b8ff" d="M520.3,-351.92C502.37,-342 480.98,-329.27 463,-316 413.53,-279.49 361.93,-228.13 337.11,-202.44"/>
<polygon fill="#63b8ff" stroke="#63b8ff" points="339.48,-199.85 330.03,-195.05 334.43,-204.69 339.48,-199.85"/>
</g>
<!-- Node5 -->
<g id="node5" class="node">
<title>Node5</title>
<g id="a_node5"><a xlink:title=" ">
<polygon fill="#e0e0e0" stroke="#999999" points="491.5,-195 384.5,-195 384.5,-176 491.5,-176 491.5,-195"/>
<text text-anchor="middle" x="438" y="-183" font-family="Helvetica,sans-Serif" font-size="10.00">cli/FreeRTOS_CLI.h</text>
</a>
</g>
</g>
<!-- Node1&#45;&gt;Node5 -->
<g id="edge4" class="edge">
<title>Node1&#45;&gt;Node5</title>
<path fill="none" stroke="#63b8ff" d="M523.46,-351.82C509.6,-342.48 494.47,-330.23 484,-316 458.64,-281.53 446.23,-231.78 441.08,-205.1"/>
<polygon fill="#63b8ff" stroke="#63b8ff" points="444.51,-204.4 439.3,-195.18 437.62,-205.64 444.51,-204.4"/>
</g>
<!-- Node6 -->
<g id="node6" class="node">
<title>Node6</title>
<g id="a_node6"><a xlink:href="_c_l_i_8h.html" target="_top" xlink:title="FreeRTOS CLI handler.">
<polygon fill="white" stroke="#666666" points="311.5,-310.5 256.5,-310.5 256.5,-291.5 311.5,-291.5 311.5,-310.5"/>
<text text-anchor="middle" x="284" y="-298.5" font-family="Helvetica,sans-Serif" font-size="10.00">cli/CLI.h</text>
</a>
</g>
</g>
<!-- Node1&#45;&gt;Node6 -->
<g id="edge5" class="edge">
<title>Node1&#45;&gt;Node6</title>
<path fill="none" stroke="#63b8ff" d="M491.32,-354.59C437.94,-341.05 365.02,-322.55 321.4,-311.49"/>
<polygon fill="#63b8ff" stroke="#63b8ff" points="322.05,-308.04 311.5,-308.98 320.33,-314.83 322.05,-308.04"/>
</g>
<!-- Node9 -->
<g id="node9" class="node">
<title>Node9</title>
<g id="a_node9"><a xlink:href="_c_a_t___m1_8h.html" target="_top" xlink:title=" ">
<polygon fill="white" stroke="#666666" points="655.5,-134.5 590.5,-134.5 590.5,-115.5 655.5,-115.5 655.5,-134.5"/>
<text text-anchor="middle" x="623" y="-122.5" font-family="Helvetica,sans-Serif" font-size="10.00">CAT_M1.h</text>
</a>
</g>
</g>
<!-- Node1&#45;&gt;Node9 -->
<g id="edge21" class="edge">
<title>Node1&#45;&gt;Node9</title>
<path fill="none" stroke="#63b8ff" d="M596.48,-351.82C610.07,-342.83 623.97,-330.82 632,-316 661.7,-261.21 650.17,-237.49 640,-176 638.2,-165.09 634.32,-153.36 630.72,-144.01"/>
<polygon fill="#63b8ff" stroke="#63b8ff" points="633.92,-142.57 626.91,-134.63 627.43,-145.21 633.92,-142.57"/>
</g>
<!-- Node12 -->
<g id="node12" class="node">
<title>Node12</title>
<g id="a_node12"><a xlink:href="config__cli_8h.html" target="_top" xlink:title=" ">
<polygon fill="white" stroke="#666666" points="623,-316 493,-316 493,-286 623,-286 623,-316"/>
<text text-anchor="start" x="501" y="-304" font-family="Helvetica,sans-Serif" font-size="10.00">cli/device_config/config</text>
<text text-anchor="middle" x="558" y="-293" font-family="Helvetica,sans-Serif" font-size="10.00">_cli.h</text>
</a>
</g>
</g>
<!-- Node1&#45;&gt;Node12 -->
<g id="edge17" class="edge">
<title>Node1&#45;&gt;Node12</title>
<path fill="none" stroke="#63b8ff" d="M558,-351.77C558,-343.85 558,-334.63 558,-326.3"/>
<polygon fill="#63b8ff" stroke="#63b8ff" points="561.5,-326.04 558,-316.04 554.5,-326.04 561.5,-326.04"/>
</g>
<!-- Node15 -->
<g id="node15" class="node">
<title>Node15</title>
<g id="a_node15"><a xlink:href="_utils_8h.html" target="_top" xlink:title=" ">
<polygon fill="white" stroke="#666666" points="759,-250 711,-250 711,-231 759,-231 759,-250"/>
<text text-anchor="middle" x="735" y="-238" font-family="Helvetica,sans-Serif" font-size="10.00">Utils.h</text>
</a>
</g>
</g>
<!-- Node1&#45;&gt;Node15 -->
<g id="edge22" class="edge">
<title>Node1&#45;&gt;Node15</title>
<path fill="none" stroke="#63b8ff" d="M611.05,-351.97C631.86,-342.86 655.21,-330.75 674,-316 694.67,-299.78 712.95,-275.4 723.98,-258.99"/>
<polygon fill="#63b8ff" stroke="#63b8ff" points="727.07,-260.66 729.61,-250.37 721.21,-256.83 727.07,-260.66"/>
</g>
<!-- Node17 -->
<g id="node17" class="node">
<title>Node17</title>
<g id="a_node17"><a xlink:href="globals_8h.html" target="_top" xlink:title=" ">
<polygon fill="white" stroke="#666666" points="860.5,-195 799.5,-195 799.5,-176 860.5,-176 860.5,-195"/>
<text text-anchor="middle" x="830" y="-183" font-family="Helvetica,sans-Serif" font-size="10.00">globals.h</text>
</a>
</g>
</g>
<!-- Node1&#45;&gt;Node17 -->
<g id="edge35" class="edge">
<title>Node1&#45;&gt;Node17</title>
<path fill="none" stroke="#63b8ff" d="M624.62,-364.73C689.02,-356.8 780.36,-341.39 805,-316 834.01,-286.1 834.41,-233.29 832.22,-205.24"/>
<polygon fill="#63b8ff" stroke="#63b8ff" points="835.69,-204.79 831.23,-195.18 828.72,-205.47 835.69,-204.79"/>
</g>
<!-- Node21 -->
<g id="node21" class="node">
<title>Node21</title>
<g id="a_node21"><a xlink:href="ota__update_8h.html" target="_top" xlink:title=" ">
<polygon fill="white" stroke="#666666" points="956,-310.5 876,-310.5 876,-291.5 956,-291.5 956,-310.5"/>
<text text-anchor="middle" x="916" y="-298.5" font-family="Helvetica,sans-Serif" font-size="10.00">ota_update.h</text>
</a>
</g>
</g>
<!-- Node1&#45;&gt;Node21 -->
<g id="edge30" class="edge">
<title>Node1&#45;&gt;Node21</title>
<path fill="none" stroke="#63b8ff" d="M624.92,-358.51C694.7,-344.96 802.51,-324.03 865.48,-311.81"/>
<polygon fill="#63b8ff" stroke="#63b8ff" points="866.41,-315.19 875.56,-309.85 865.08,-308.32 866.41,-315.19"/>
</g>
<!-- Node23 -->
<g id="node23" class="node">
<title>Node23</title>
<g id="a_node23"><a xlink:href="ftp__stack_8h.html" target="_top" xlink:title=" ">
<polygon fill="white" stroke="#666666" points="796,-310.5 726,-310.5 726,-291.5 796,-291.5 796,-310.5"/>
<text text-anchor="middle" x="761" y="-298.5" font-family="Helvetica,sans-Serif" font-size="10.00">ftp_stack.h</text>
</a>
</g>
</g>
<!-- Node1&#45;&gt;Node23 -->
<g id="edge33" class="edge">
<title>Node1&#45;&gt;Node23</title>
<path fill="none" stroke="#63b8ff" d="M615.09,-351.96C650.91,-339.69 695.93,-324.28 726.41,-313.84"/>
<polygon fill="#63b8ff" stroke="#63b8ff" points="727.83,-317.05 736.16,-310.5 725.57,-310.43 727.83,-317.05"/>
</g>
<!-- Node7 -->
<g id="node7" class="node">
<title>Node7</title>
<g id="a_node7"><a xlink:title=" ">
<polygon fill="#e0e0e0" stroke="#999999" points="551.5,-19 488.5,-19 488.5,0 551.5,0 551.5,-19"/>
<text text-anchor="middle" x="520" y="-7" font-family="Helvetica,sans-Serif" font-size="10.00">Arduino.h</text>
</a>
</g>
</g>
<!-- Node6&#45;&gt;Node7 -->
<g id="edge6" class="edge">
<title>Node6&#45;&gt;Node7</title>
<path fill="none" stroke="#63b8ff" d="M256.25,-295.06C184.79,-281.55 0,-241.32 0,-186.5 0,-186.5 0,-186.5 0,-124 0,-26.36 354.4,-12.58 478.05,-10.74"/>
<polygon fill="#63b8ff" stroke="#63b8ff" points="478.3,-14.24 488.25,-10.61 478.21,-7.24 478.3,-14.24"/>
</g>
<!-- Node8 -->
<g id="node8" class="node">
<title>Node8</title>
<g id="a_node8"><a xlink:href="cat-m1_8h.html" target="_top" xlink:title="CAT&#45;M1 CLI command request and response handler.">
<polygon fill="white" stroke="#666666" points="350,-250 218,-250 218,-231 350,-231 350,-250"/>
<text text-anchor="middle" x="284" y="-238" font-family="Helvetica,sans-Serif" font-size="10.00">cli/peripherals/cat&#45;m1.h</text>
</a>
</g>
</g>
<!-- Node6&#45;&gt;Node8 -->
<g id="edge7" class="edge">
<title>Node6&#45;&gt;Node8</title>
<path fill="none" stroke="#63b8ff" d="M284,-291.37C284,-283.25 284,-270.81 284,-260.39"/>
<polygon fill="#63b8ff" stroke="#63b8ff" points="287.5,-260.17 284,-250.17 280.5,-260.17 287.5,-260.17"/>
</g>
<!-- Node8&#45;&gt;Node2 -->
<g id="edge8" class="edge">
<title>Node8&#45;&gt;Node2</title>
<path fill="none" stroke="#63b8ff" d="M252.03,-230.98C218.18,-221.97 164.6,-207.7 127.29,-197.76"/>
<polygon fill="#63b8ff" stroke="#63b8ff" points="127.79,-194.27 117.22,-195.08 125.99,-201.04 127.79,-194.27"/>
</g>
<!-- Node8&#45;&gt;Node3 -->
<g id="edge9" class="edge">
<title>Node8&#45;&gt;Node3</title>
<path fill="none" stroke="#63b8ff" d="M268.9,-230.98C254.18,-222.69 231.58,-209.94 214.33,-200.22"/>
<polygon fill="#63b8ff" stroke="#63b8ff" points="215.81,-197.03 205.38,-195.17 212.37,-203.13 215.81,-197.03"/>
</g>
<!-- Node8&#45;&gt;Node4 -->
<g id="edge10" class="edge">
<title>Node8&#45;&gt;Node4</title>
<path fill="none" stroke="#63b8ff" d="M290.27,-230.75C295.59,-223.34 303.36,-212.5 309.88,-203.41"/>
<polygon fill="#63b8ff" stroke="#63b8ff" points="312.86,-205.26 315.84,-195.09 307.17,-201.18 312.86,-205.26"/>
</g>
<!-- Node8&#45;&gt;Node5 -->
<g id="edge11" class="edge">
<title>Node8&#45;&gt;Node5</title>
<path fill="none" stroke="#63b8ff" d="M308.74,-230.98C334.37,-222.16 374.63,-208.31 403.41,-198.41"/>
<polygon fill="#63b8ff" stroke="#63b8ff" points="404.75,-201.65 413.06,-195.08 402.47,-195.03 404.75,-201.65"/>
</g>
<!-- Node8&#45;&gt;Node9 -->
<g id="edge12" class="edge">
<title>Node8&#45;&gt;Node9</title>
<path fill="none" stroke="#63b8ff" d="M277.36,-230.56C268.24,-217.12 254.43,-191.62 268,-176 308.02,-129.94 494.99,-125.11 580.33,-125.37"/>
<polygon fill="#63b8ff" stroke="#63b8ff" points="580.44,-128.87 590.46,-125.42 580.48,-121.87 580.44,-128.87"/>
</g>
<!-- Node10 -->
<g id="node10" class="node">
<title>Node10</title>
<g id="a_node10"><a xlink:title=" ">
<polygon fill="#e0e0e0" stroke="#999999" points="643,-19 595,-19 595,0 643,0 643,-19"/>
<text text-anchor="middle" x="619" y="-7" font-family="Helvetica,sans-Serif" font-size="10.00">Wire.h</text>
</a>
</g>
</g>
<!-- Node9&#45;&gt;Node10 -->
<g id="edge13" class="edge">
<title>Node9&#45;&gt;Node10</title>
<path fill="none" stroke="#63b8ff" d="M623.77,-115.49C624.83,-102.46 626.46,-76.76 625,-55 624.43,-46.54 623.26,-37.24 622.11,-29.34"/>
<polygon fill="#63b8ff" stroke="#63b8ff" points="625.55,-28.67 620.55,-19.33 618.63,-29.75 625.55,-28.67"/>
</g>
<!-- Node11 -->
<g id="node11" class="node">
<title>Node11</title>
<g id="a_node11"><a xlink:href="_t_c_a9534_8h.html" target="_top" xlink:title=" ">
<polygon fill="white" stroke="#666666" points="616,-74 548,-74 548,-55 616,-55 616,-74"/>
<text text-anchor="middle" x="582" y="-62" font-family="Helvetica,sans-Serif" font-size="10.00">TCA9534.h</text>
</a>
</g>
</g>
<!-- Node9&#45;&gt;Node11 -->
<g id="edge14" class="edge">
<title>Node9&#45;&gt;Node11</title>
<path fill="none" stroke="#63b8ff" d="M616.95,-115.37C610.89,-106.73 601.41,-93.2 593.86,-82.42"/>
<polygon fill="#63b8ff" stroke="#63b8ff" points="596.68,-80.35 588.07,-74.17 590.95,-84.37 596.68,-80.35"/>
</g>
<!-- Node11&#45;&gt;Node7 -->
<g id="edge15" class="edge">
<title>Node11&#45;&gt;Node7</title>
<path fill="none" stroke="#63b8ff" d="M572.04,-54.98C562.87,-47.15 549.06,-35.34 537.97,-25.86"/>
<polygon fill="#63b8ff" stroke="#63b8ff" points="540.02,-23.01 530.14,-19.17 535.47,-28.33 540.02,-23.01"/>
</g>
<!-- Node11&#45;&gt;Node10 -->
<g id="edge16" class="edge">
<title>Node11&#45;&gt;Node10</title>
<path fill="none" stroke="#63b8ff" d="M588.11,-54.75C593.28,-47.34 600.85,-36.5 607.19,-27.41"/>
<polygon fill="#63b8ff" stroke="#63b8ff" points="610.15,-29.29 613,-19.09 604.41,-25.29 610.15,-29.29"/>
</g>
<!-- Node13 -->
<g id="node13" class="node">
<title>Node13</title>
<g id="a_node13"><a xlink:href="_device_config_8h.html" target="_top" xlink:title="Node configuration options.">
<polygon fill="white" stroke="#666666" points="603,-250 513,-250 513,-231 603,-231 603,-250"/>
<text text-anchor="middle" x="558" y="-238" font-family="Helvetica,sans-Serif" font-size="10.00">DeviceConfig.h</text>
</a>
</g>
</g>
<!-- Node12&#45;&gt;Node13 -->
<g id="edge18" class="edge">
<title>Node12&#45;&gt;Node13</title>
<path fill="none" stroke="#63b8ff" d="M558,-285.84C558,-278.21 558,-268.7 558,-260.45"/>
<polygon fill="#63b8ff" stroke="#63b8ff" points="561.5,-260.27 558,-250.27 554.5,-260.27 561.5,-260.27"/>
</g>
<!-- Node13&#45;&gt;Node7 -->
<g id="edge19" class="edge">
<title>Node13&#45;&gt;Node7</title>
<path fill="none" stroke="#63b8ff" d="M553.41,-230.91C548.95,-222.14 542.37,-208.01 539,-195 523.71,-135.88 520.65,-63.1 520.09,-29.35"/>
<polygon fill="#63b8ff" stroke="#63b8ff" points="523.58,-29.08 519.98,-19.12 516.58,-29.16 523.58,-29.08"/>
</g>
<!-- Node14 -->
<g id="node14" class="node">
<title>Node14</title>
<g id="a_node14"><a xlink:title=" ">
<polygon fill="#e0e0e0" stroke="#999999" points="631.5,-195 548.5,-195 548.5,-176 631.5,-176 631.5,-195"/>
<text text-anchor="middle" x="590" y="-183" font-family="Helvetica,sans-Serif" font-size="10.00">ArduinoJson.h</text>
</a>
</g>
</g>
<!-- Node13&#45;&gt;Node14 -->
<g id="edge20" class="edge">
<title>Node13&#45;&gt;Node14</title>
<path fill="none" stroke="#63b8ff" d="M563.28,-230.75C567.71,-223.42 574.16,-212.73 579.62,-203.7"/>
<polygon fill="#63b8ff" stroke="#63b8ff" points="582.64,-205.46 584.81,-195.09 576.65,-201.84 582.64,-205.46"/>
</g>
<!-- Node15&#45;&gt;Node14 -->
<g id="edge23" class="edge">
<title>Node15&#45;&gt;Node14</title>
<path fill="none" stroke="#63b8ff" d="M711.7,-230.98C687.75,-222.23 650.22,-208.51 623.17,-198.62"/>
<polygon fill="#63b8ff" stroke="#63b8ff" points="624.31,-195.32 613.72,-195.17 621.91,-201.89 624.31,-195.32"/>
</g>
<!-- Node16 -->
<g id="node16" class="node">
<title>Node16</title>
<g id="a_node16"><a xlink:title=" ">
<polygon fill="#e0e0e0" stroke="#999999" points="781.5,-195 688.5,-195 688.5,-176 781.5,-176 781.5,-195"/>
<text text-anchor="middle" x="735" y="-183" font-family="Helvetica,sans-Serif" font-size="10.00">dpiclimate&#45;12.h</text>
</a>
</g>
</g>
<!-- Node15&#45;&gt;Node16 -->
<g id="edge24" class="edge">
<title>Node15&#45;&gt;Node16</title>
<path fill="none" stroke="#63b8ff" d="M735,-230.75C735,-223.8 735,-213.85 735,-205.13"/>
<polygon fill="#63b8ff" stroke="#63b8ff" points="738.5,-205.09 735,-195.09 731.5,-205.09 738.5,-205.09"/>
</g>
<!-- Node15&#45;&gt;Node17 -->
<g id="edge25" class="edge">
<title>Node15&#45;&gt;Node17</title>
<path fill="none" stroke="#63b8ff" d="M750.26,-230.98C765.13,-222.69 787.98,-209.94 805.42,-200.22"/>
<polygon fill="#63b8ff" stroke="#63b8ff" points="807.43,-203.1 814.46,-195.17 804.02,-196.99 807.43,-203.1"/>
</g>
<!-- Node17&#45;&gt;Node9 -->
<g id="edge27" class="edge">
<title>Node17&#45;&gt;Node9</title>
<path fill="none" stroke="#63b8ff" d="M799.44,-176.83C766.2,-168.35 711.59,-154.03 665,-140 662.55,-139.26 660.03,-138.48 657.5,-137.68"/>
<polygon fill="#63b8ff" stroke="#63b8ff" points="658.39,-134.29 647.8,-134.53 656.23,-140.95 658.39,-134.29"/>
</g>
<!-- Node18 -->
<g id="node18" class="node">
<title>Node18</title>
<g id="a_node18"><a xlink:title=" ">
<polygon fill="#e0e0e0" stroke="#999999" points="804,-140 674,-140 674,-110 804,-110 804,-140"/>
<text text-anchor="start" x="682" y="-128" font-family="Helvetica,sans-Serif" font-size="10.00">SparkFun_u&#45;blox_SARA</text>
<text text-anchor="middle" x="739" y="-117" font-family="Helvetica,sans-Serif" font-size="10.00">&#45;R5_Arduino_Library.h</text>
</a>
</g>
</g>
<!-- Node17&#45;&gt;Node18 -->
<g id="edge26" class="edge">
<title>Node17&#45;&gt;Node18</title>
<path fill="none" stroke="#63b8ff" d="M816.57,-175.87C804.23,-167.93 785.47,-155.87 769.49,-145.6"/>
<polygon fill="#63b8ff" stroke="#63b8ff" points="771.26,-142.58 760.96,-140.11 767.48,-148.47 771.26,-142.58"/>
</g>
<!-- Node19 -->
<g id="node19" class="node">
<title>Node19</title>
<g id="a_node19"><a xlink:href="str__utils_8h.html" target="_top" xlink:title=" ">
<polygon fill="white" stroke="#666666" points="887.5,-134.5 822.5,-134.5 822.5,-115.5 887.5,-115.5 887.5,-134.5"/>
<text text-anchor="middle" x="855" y="-122.5" font-family="Helvetica,sans-Serif" font-size="10.00">str_utils.h</text>
</a>
</g>
</g>
<!-- Node17&#45;&gt;Node19 -->
<g id="edge28" class="edge">
<title>Node17&#45;&gt;Node19</title>
<path fill="none" stroke="#63b8ff" d="M833.69,-175.87C837.27,-167.49 842.82,-154.51 847.35,-143.89"/>
<polygon fill="#63b8ff" stroke="#63b8ff" points="850.58,-145.24 851.3,-134.67 844.15,-142.49 850.58,-145.24"/>
</g>
<!-- Node20 -->
<g id="node20" class="node">
<title>Node20</title>
<g id="a_node20"><a xlink:title=" ">
<polygon fill="#e0e0e0" stroke="#999999" points="913,-74 857,-74 857,-55 913,-55 913,-74"/>
<text text-anchor="middle" x="885" y="-62" font-family="Helvetica,sans-Serif" font-size="10.00">stddef.h</text>
</a>
</g>
</g>
<!-- Node19&#45;&gt;Node20 -->
<g id="edge29" class="edge">
<title>Node19&#45;&gt;Node20</title>
<path fill="none" stroke="#63b8ff" d="M859.43,-115.37C863.77,-106.9 870.52,-93.74 875.99,-83.07"/>
<polygon fill="#63b8ff" stroke="#63b8ff" points="879.11,-84.66 880.56,-74.17 872.88,-81.47 879.11,-84.66"/>
</g>
<!-- Node21&#45;&gt;Node20 -->
<g id="edge32" class="edge">
<title>Node21&#45;&gt;Node20</title>
<path fill="none" stroke="#63b8ff" d="M915.63,-291.22C914.39,-264.06 909.69,-179.12 897,-110 895.41,-101.34 892.97,-91.91 890.71,-83.96"/>
<polygon fill="#63b8ff" stroke="#63b8ff" points="894.03,-82.85 887.82,-74.27 887.32,-84.85 894.03,-82.85"/>
</g>
<!-- Node22 -->
<g id="node22" class="node">
<title>Node22</title>
<g id="a_node22"><a xlink:title=" ">
<polygon fill="#e0e0e0" stroke="#999999" points="997.5,-250 944.5,-250 944.5,-231 997.5,-231 997.5,-250"/>
<text text-anchor="middle" x="971" y="-238" font-family="Helvetica,sans-Serif" font-size="10.00">stdint.h</text>
</a>
</g>
</g>
<!-- Node21&#45;&gt;Node22 -->
<g id="edge31" class="edge">
<title>Node21&#45;&gt;Node22</title>
<path fill="none" stroke="#63b8ff" d="M924.12,-291.37C932.4,-282.55 945.47,-268.66 955.7,-257.77"/>
<polygon fill="#63b8ff" stroke="#63b8ff" points="958.55,-259.85 962.85,-250.17 953.45,-255.06 958.55,-259.85"/>
</g>
<!-- Node23&#45;&gt;Node15 -->
<g id="edge34" class="edge">
<title>Node23&#45;&gt;Node15</title>
<path fill="none" stroke="#63b8ff" d="M757.16,-291.37C753.44,-282.99 747.67,-270.01 742.95,-259.39"/>
<polygon fill="#63b8ff" stroke="#63b8ff" points="746.11,-257.88 738.85,-250.17 739.72,-260.73 746.11,-257.88"/>
</g>
</g>
</svg>
