<?xml version="1.0" encoding="UTF-8" standalone="no"?>
<!DOCTYPE svg PUBLIC "-//W3C//DTD SVG 1.1//EN"
 "http://www.w3.org/Graphics/SVG/1.1/DTD/svg11.dtd">
<!-- Generated by graphviz version 2.43.0 (0)
 -->
<!-- Title: firmware/wombat/src/cli/device_config/config_cli.cpp Pages: 1 -->
<svg width="940pt" height="225pt"
 viewBox="0.00 0.00 939.50 225.00" xmlns="http://www.w3.org/2000/svg" xmlns:xlink="http://www.w3.org/1999/xlink">
<g id="graph0" class="graph" transform="scale(1 1) rotate(0) translate(4 221)">
<title>firmware/wombat/src/cli/device_config/config_cli.cpp</title>
<!-- Node1 -->
<g id="node1" class="node">
<title>Node1</title>
<g id="a_node1"><a xlink:title="Command line interface node configuration commands.">
<polygon fill="#999999" stroke="#666666" points="541,-217 408,-217 408,-176 541,-176 541,-217"/>
<text text-anchor="start" x="416" y="-205" font-family="Helvetica,sans-Serif" font-size="10.00">firmware/wombat/src</text>
<text text-anchor="start" x="416" y="-194" font-family="Helvetica,sans-Serif" font-size="10.00">/cli/device_config/config</text>
<text text-anchor="middle" x="474.5" y="-183" font-family="Helvetica,sans-Serif" font-size="10.00">_cli.cpp</text>
</a>
</g>
</g>
<!-- Node2 -->
<g id="node2" class="node">
<title>Node2</title>
<g id="a_node2"><a xlink:title=" ">
<polygon fill="#e0e0e0" stroke="#999999" points="113,-134.5 0,-134.5 0,-115.5 113,-115.5 113,-134.5"/>
<text text-anchor="middle" x="56.5" y="-122.5" font-family="Helvetica,sans-Serif" font-size="10.00">freertos/FreeRTOS.h</text>
</a>
</g>
</g>
<!-- Node1&#45;&gt;Node2 -->
<g id="edge1" class="edge">
<title>Node1&#45;&gt;Node2</title>
<path fill="none" stroke="#63b8ff" d="M407.95,-186.18C336.84,-175.95 220.91,-158.51 121.5,-140 115.97,-138.97 110.19,-137.82 104.45,-136.65"/>
<polygon fill="#63b8ff" stroke="#63b8ff" points="104.74,-133.13 94.24,-134.5 103.3,-139.98 104.74,-133.13"/>
</g>
<!-- Node3 -->
<g id="node3" class="node">
<title>Node3</title>
<g id="a_node3"><a xlink:title=" ">
<polygon fill="#e0e0e0" stroke="#999999" points="192,-134.5 131,-134.5 131,-115.5 192,-115.5 192,-134.5"/>
<text text-anchor="middle" x="161.5" y="-122.5" font-family="Helvetica,sans-Serif" font-size="10.00">Stream.h</text>
</a>
</g>
</g>
<!-- Node1&#45;&gt;Node3 -->
<g id="edge2" class="edge">
<title>Node1&#45;&gt;Node3</title>
<path fill="none" stroke="#63b8ff" d="M407.98,-184.81C352.09,-175.16 270.39,-159.51 200.5,-140 198.07,-139.32 195.58,-138.57 193.09,-137.77"/>
<polygon fill="#63b8ff" stroke="#63b8ff" points="194.19,-134.45 183.59,-134.56 191.94,-141.08 194.19,-134.45"/>
</g>
<!-- Node4 -->
<g id="node4" class="node">
<title>Node4</title>
<g id="a_node4"><a xlink:title=" ">
<polygon fill="#e0e0e0" stroke="#999999" points="299,-134.5 210,-134.5 210,-115.5 299,-115.5 299,-134.5"/>
<text text-anchor="middle" x="254.5" y="-122.5" font-family="Helvetica,sans-Serif" font-size="10.00">StreamString.h</text>
</a>
</g>
</g>
<!-- Node1&#45;&gt;Node4 -->
<g id="edge3" class="edge">
<title>Node1&#45;&gt;Node4</title>
<path fill="none" stroke="#63b8ff" d="M412.63,-175.96C373.47,-163.58 324.17,-148.01 291.12,-137.57"/>
<polygon fill="#63b8ff" stroke="#63b8ff" points="292.01,-134.18 281.42,-134.5 289.9,-140.85 292.01,-134.18"/>
</g>
<!-- Node5 -->
<g id="node5" class="node">
<title>Node5</title>
<g id="a_node5"><a xlink:title=" ">
<polygon fill="#e0e0e0" stroke="#999999" points="424,-134.5 317,-134.5 317,-115.5 424,-115.5 424,-134.5"/>
<text text-anchor="middle" x="370.5" y="-122.5" font-family="Helvetica,sans-Serif" font-size="10.00">cli/FreeRTOS_CLI.h</text>
</a>
</g>
</g>
<!-- Node1&#45;&gt;Node5 -->
<g id="edge4" class="edge">
<title>Node1&#45;&gt;Node5</title>
<path fill="none" stroke="#63b8ff" d="M445.25,-175.96C428.18,-164.54 407.02,-150.41 391.58,-140.09"/>
<polygon fill="#63b8ff" stroke="#63b8ff" points="393.48,-137.15 383.22,-134.5 389.59,-142.97 393.48,-137.15"/>
</g>
<!-- Node6 -->
<g id="node6" class="node">
<title>Node6</title>
<g id="a_node6"><a xlink:href="config__cli_8h.html" target="_top" xlink:title=" ">
<polygon fill="white" stroke="#666666" points="655.5,-140 525.5,-140 525.5,-110 655.5,-110 655.5,-140"/>
<text text-anchor="start" x="533.5" y="-128" font-family="Helvetica,sans-Serif" font-size="10.00">cli/device_config/config</text>
<text text-anchor="middle" x="590.5" y="-117" font-family="Helvetica,sans-Serif" font-size="10.00">_cli.h</text>
</a>
</g>
</g>
<!-- Node1&#45;&gt;Node6 -->
<g id="edge5" class="edge">
<title>Node1&#45;&gt;Node6</title>
<path fill="none" stroke="#63b8ff" d="M507.12,-175.96C523.03,-166.42 542.11,-154.99 558,-145.47"/>
<polygon fill="#63b8ff" stroke="#63b8ff" points="560.17,-148.25 566.94,-140.11 556.57,-142.25 560.17,-148.25"/>
</g>
<!-- Node10 -->
<g id="node10" class="node">
<title>Node10</title>
<g id="a_node10"><a xlink:href="_c_a_t___m1_8h.html" target="_top" xlink:title=" ">
<polygon fill="white" stroke="#666666" points="507,-134.5 442,-134.5 442,-115.5 507,-115.5 507,-134.5"/>
<text text-anchor="middle" x="474.5" y="-122.5" font-family="Helvetica,sans-Serif" font-size="10.00">CAT_M1.h</text>
</a>
</g>
</g>
<!-- Node1&#45;&gt;Node10 -->
<g id="edge9" class="edge">
<title>Node1&#45;&gt;Node10</title>
<path fill="none" stroke="#63b8ff" d="M474.5,-175.77C474.5,-166.08 474.5,-154.46 474.5,-144.88"/>
<polygon fill="#63b8ff" stroke="#63b8ff" points="478,-144.82 474.5,-134.82 471,-144.82 478,-144.82"/>
</g>
<!-- Node13 -->
<g id="node13" class="node">
<title>Node13</title>
<g id="a_node13"><a xlink:href="_utils_8h.html" target="_top" xlink:title=" ">
<polygon fill="white" stroke="#666666" points="737.5,-134.5 689.5,-134.5 689.5,-115.5 737.5,-115.5 737.5,-134.5"/>
<text text-anchor="middle" x="713.5" y="-122.5" font-family="Helvetica,sans-Serif" font-size="10.00">Utils.h</text>
</a>
</g>
</g>
<!-- Node1&#45;&gt;Node13 -->
<g id="edge14" class="edge">
<title>Node1&#45;&gt;Node13</title>
<path fill="none" stroke="#63b8ff" d="M541.07,-176.14C585.95,-163.09 643.31,-146.41 679.24,-135.96"/>
<polygon fill="#63b8ff" stroke="#63b8ff" points="680.59,-139.21 689.22,-133.06 678.64,-132.49 680.59,-139.21"/>
</g>
<!-- Node16 -->
<g id="node16" class="node">
<title>Node16</title>
<g id="a_node16"><a xlink:href="ota__update_8h.html" target="_top" xlink:title=" ">
<polygon fill="white" stroke="#666666" points="843.5,-134.5 763.5,-134.5 763.5,-115.5 843.5,-115.5 843.5,-134.5"/>
<text text-anchor="middle" x="803.5" y="-122.5" font-family="Helvetica,sans-Serif" font-size="10.00">ota_update.h</text>
</a>
</g>
</g>
<!-- Node1&#45;&gt;Node16 -->
<g id="edge18" class="edge">
<title>Node1&#45;&gt;Node16</title>
<path fill="none" stroke="#63b8ff" d="M541.17,-182.66C596.33,-171.85 676.67,-155.69 746.5,-140 750.87,-139.02 755.42,-137.96 759.95,-136.88"/>
<polygon fill="#63b8ff" stroke="#63b8ff" points="760.89,-140.26 769.79,-134.51 759.25,-133.45 760.89,-140.26"/>
</g>
<!-- Node18 -->
<g id="node18" class="node">
<title>Node18</title>
<g id="a_node18"><a xlink:href="ftp__stack_8h.html" target="_top" xlink:title=" ">
<polygon fill="white" stroke="#666666" points="931.5,-134.5 861.5,-134.5 861.5,-115.5 931.5,-115.5 931.5,-134.5"/>
<text text-anchor="middle" x="896.5" y="-122.5" font-family="Helvetica,sans-Serif" font-size="10.00">ftp_stack.h</text>
</a>
</g>
</g>
<!-- Node1&#45;&gt;Node18 -->
<g id="edge21" class="edge">
<title>Node1&#45;&gt;Node18</title>
<path fill="none" stroke="#63b8ff" d="M541,-189.04C616.98,-180.9 744.73,-164.88 852.5,-140 855.7,-139.26 859.01,-138.4 862.3,-137.47"/>
<polygon fill="#63b8ff" stroke="#63b8ff" points="863.45,-140.78 872.03,-134.56 861.44,-134.08 863.45,-140.78"/>
</g>
<!-- Node7 -->
<g id="node7" class="node">
<title>Node7</title>
<g id="a_node7"><a xlink:href="_device_config_8h.html" target="_top" xlink:title="Node configuration options.">
<polygon fill="white" stroke="#666666" points="611.5,-74 521.5,-74 521.5,-55 611.5,-55 611.5,-74"/>
<text text-anchor="middle" x="566.5" y="-62" font-family="Helvetica,sans-Serif" font-size="10.00">DeviceConfig.h</text>
</a>
</g>
</g>
<!-- Node6&#45;&gt;Node7 -->
<g id="edge6" class="edge">
<title>Node6&#45;&gt;Node7</title>
<path fill="none" stroke="#63b8ff" d="M584.69,-109.84C581.46,-101.95 577.39,-92.05 573.93,-83.61"/>
<polygon fill="#63b8ff" stroke="#63b8ff" points="577.13,-82.19 570.1,-74.27 570.65,-84.85 577.13,-82.19"/>
</g>
<!-- Node8 -->
<g id="node8" class="node">
<title>Node8</title>
<g id="a_node8"><a xlink:title=" ">
<polygon fill="#e0e0e0" stroke="#999999" points="571,-19 508,-19 508,0 571,0 571,-19"/>
<text text-anchor="middle" x="539.5" y="-7" font-family="Helvetica,sans-Serif" font-size="10.00">Arduino.h</text>
</a>
</g>
</g>
<!-- Node7&#45;&gt;Node8 -->
<g id="edge7" class="edge">
<title>Node7&#45;&gt;Node8</title>
<path fill="none" stroke="#63b8ff" d="M562.04,-54.75C558.38,-47.57 553.09,-37.18 548.55,-28.27"/>
<polygon fill="#63b8ff" stroke="#63b8ff" points="551.53,-26.41 543.88,-19.09 545.3,-29.59 551.53,-26.41"/>
</g>
<!-- Node9 -->
<g id="node9" class="node">
<title>Node9</title>
<g id="a_node9"><a xlink:title=" ">
<polygon fill="#e0e0e0" stroke="#999999" points="732,-19 649,-19 649,0 732,0 732,-19"/>
<text text-anchor="middle" x="690.5" y="-7" font-family="Helvetica,sans-Serif" font-size="10.00">ArduinoJson.h</text>
</a>
</g>
</g>
<!-- Node7&#45;&gt;Node9 -->
<g id="edge8" class="edge">
<title>Node7&#45;&gt;Node9</title>
<path fill="none" stroke="#63b8ff" d="M586.42,-54.98C606.55,-46.38 637.88,-32.99 660.91,-23.15"/>
<polygon fill="#63b8ff" stroke="#63b8ff" points="662.4,-26.32 670.21,-19.17 659.64,-19.88 662.4,-26.32"/>
</g>
<!-- Node11 -->
<g id="node11" class="node">
<title>Node11</title>
<g id="a_node11"><a xlink:title=" ">
<polygon fill="#e0e0e0" stroke="#999999" points="462.5,-19 414.5,-19 414.5,0 462.5,0 462.5,-19"/>
<text text-anchor="middle" x="438.5" y="-7" font-family="Helvetica,sans-Serif" font-size="10.00">Wire.h</text>
</a>
</g>
</g>
<!-- Node10&#45;&gt;Node11 -->
<g id="edge10" class="edge">
<title>Node10&#45;&gt;Node11</title>
<path fill="none" stroke="#63b8ff" d="M461.9,-115.38C450.22,-106.55 433.6,-91.64 426.5,-74 420.55,-59.22 424.9,-41.29 429.95,-28.26"/>
<polygon fill="#63b8ff" stroke="#63b8ff" points="433.19,-29.58 433.96,-19.01 426.77,-26.79 433.19,-29.58"/>
</g>
<!-- Node12 -->
<g id="node12" class="node">
<title>Node12</title>
<g id="a_node12"><a xlink:href="_t_c_a9534_8h.html" target="_top" xlink:title=" ">
<polygon fill="white" stroke="#666666" points="503.5,-74 435.5,-74 435.5,-55 503.5,-55 503.5,-74"/>
<text text-anchor="middle" x="469.5" y="-62" font-family="Helvetica,sans-Serif" font-size="10.00">TCA9534.h</text>
</a>
</g>
</g>
<!-- Node10&#45;&gt;Node12 -->
<g id="edge11" class="edge">
<title>Node10&#45;&gt;Node12</title>
<path fill="none" stroke="#63b8ff" d="M473.76,-115.37C473.07,-107.25 472,-94.81 471.11,-84.39"/>
<polygon fill="#63b8ff" stroke="#63b8ff" points="474.58,-83.83 470.24,-74.17 467.61,-84.43 474.58,-83.83"/>
</g>
<!-- Node12&#45;&gt;Node8 -->
<g id="edge12" class="edge">
<title>Node12&#45;&gt;Node8</title>
<path fill="none" stroke="#63b8ff" d="M480.75,-54.98C491.3,-47 507.3,-34.88 519.94,-25.31"/>
<polygon fill="#63b8ff" stroke="#63b8ff" points="522.19,-28 528.05,-19.17 517.96,-22.42 522.19,-28"/>
</g>
<!-- Node12&#45;&gt;Node11 -->
<g id="edge13" class="edge">
<title>Node12&#45;&gt;Node11</title>
<path fill="none" stroke="#63b8ff" d="M464.38,-54.75C460.14,-47.49 453.97,-36.95 448.72,-27.98"/>
<polygon fill="#63b8ff" stroke="#63b8ff" points="451.59,-25.95 443.52,-19.09 445.55,-29.49 451.59,-25.95"/>
</g>
<!-- Node13&#45;&gt;Node9 -->
<g id="edge16" class="edge">
<title>Node13&#45;&gt;Node9</title>
<path fill="none" stroke="#63b8ff" d="M719.2,-115.3C727.14,-102.01 739.69,-75.99 731.5,-55 727.1,-43.73 718.36,-33.59 710.07,-25.85"/>
<polygon fill="#63b8ff" stroke="#63b8ff" points="712.27,-23.12 702.43,-19.2 707.68,-28.4 712.27,-23.12"/>
</g>
<!-- Node14 -->
<g id="node14" class="node">
<title>Node14</title>
<g id="a_node14"><a xlink:title=" ">
<polygon fill="#e0e0e0" stroke="#999999" points="835.5,-74 779.5,-74 779.5,-55 835.5,-55 835.5,-74"/>
<text text-anchor="middle" x="807.5" y="-62" font-family="Helvetica,sans-Serif" font-size="10.00">stddef.h</text>
</a>
</g>
</g>
<!-- Node13&#45;&gt;Node14 -->
<g id="edge15" class="edge">
<title>Node13&#45;&gt;Node14</title>
<path fill="none" stroke="#63b8ff" d="M727.37,-115.37C742.5,-105.95 766.96,-90.73 784.88,-79.58"/>
<polygon fill="#63b8ff" stroke="#63b8ff" points="786.93,-82.42 793.57,-74.17 783.23,-76.48 786.93,-82.42"/>
</g>
<!-- Node15 -->
<g id="node15" class="node">
<title>Node15</title>
<g id="a_node15"><a xlink:title=" ">
<polygon fill="#e0e0e0" stroke="#999999" points="723,-74 630,-74 630,-55 723,-55 723,-74"/>
<text text-anchor="middle" x="676.5" y="-62" font-family="Helvetica,sans-Serif" font-size="10.00">dpiclimate&#45;12.h</text>
</a>
</g>
</g>
<!-- Node13&#45;&gt;Node15 -->
<g id="edge17" class="edge">
<title>Node13&#45;&gt;Node15</title>
<path fill="none" stroke="#63b8ff" d="M708.04,-115.37C702.63,-106.81 694.19,-93.47 687.4,-82.74"/>
<polygon fill="#63b8ff" stroke="#63b8ff" points="690.29,-80.75 681.98,-74.17 684.37,-84.49 690.29,-80.75"/>
</g>
<!-- Node16&#45;&gt;Node14 -->
<g id="edge20" class="edge">
<title>Node16&#45;&gt;Node14</title>
<path fill="none" stroke="#63b8ff" d="M804.09,-115.37C804.65,-107.25 805.5,-94.81 806.21,-84.39"/>
<polygon fill="#63b8ff" stroke="#63b8ff" points="809.72,-84.38 806.91,-74.17 802.73,-83.91 809.72,-84.38"/>
</g>
<!-- Node17 -->
<g id="node17" class="node">
<title>Node17</title>
<g id="a_node17"><a xlink:title=" ">
<polygon fill="#e0e0e0" stroke="#999999" points="907,-74 854,-74 854,-55 907,-55 907,-74"/>
<text text-anchor="middle" x="880.5" y="-62" font-family="Helvetica,sans-Serif" font-size="10.00">stdint.h</text>
</a>
</g>
</g>
<!-- Node16&#45;&gt;Node17 -->
<g id="edge19" class="edge">
<title>Node16&#45;&gt;Node17</title>
<path fill="none" stroke="#63b8ff" d="M814.86,-115.37C826.92,-106.21 846.2,-91.56 860.75,-80.51"/>
<polygon fill="#63b8ff" stroke="#63b8ff" points="863.25,-83 869.09,-74.17 859.01,-77.43 863.25,-83"/>
</g>
</g>
</svg>
