<?xml version="1.0" encoding="UTF-8" standalone="no"?>
<!DOCTYPE svg PUBLIC "-//W3C//DTD SVG 1.1//EN"
 "http://www.w3.org/Graphics/SVG/1.1/DTD/svg11.dtd">
<!-- Generated by graphviz version 2.43.0 (0)
 -->
<!-- Title: firmware/wombat/src/cli/device_config/config_cli.cpp Pages: 1 -->
<svg width="969pt" height="401pt"
 viewBox="0.00 0.00 969.00 401.00" xmlns="http://www.w3.org/2000/svg" xmlns:xlink="http://www.w3.org/1999/xlink">
<g id="graph0" class="graph" transform="scale(1 1) rotate(0) translate(4 397)">
<title>firmware/wombat/src/cli/device_config/config_cli.cpp</title>
<!-- Node1 -->
<g id="node1" class="node">
<title>Node1</title>
<g id="a_node1"><a xlink:title="Command line interface node configuration commands.">
<polygon fill="#999999" stroke="#666666" points="620,-393 487,-393 487,-352 620,-352 620,-393"/>
<text text-anchor="start" x="495" y="-381" font-family="Helvetica,sans-Serif" font-size="10.00">firmware/wombat/src</text>
<text text-anchor="start" x="495" y="-370" font-family="Helvetica,sans-Serif" font-size="10.00">/cli/device_config/config</text>
<text text-anchor="middle" x="553.5" y="-359" font-family="Helvetica,sans-Serif" font-size="10.00">_cli.cpp</text>
</a>
</g>
</g>
<!-- Node2 -->
<g id="node2" class="node">
<title>Node2</title>
<g id="a_node2"><a xlink:title=" ">
<polygon fill="#e0e0e0" stroke="#999999" points="113,-310.5 0,-310.5 0,-291.5 113,-291.5 113,-310.5"/>
<text text-anchor="middle" x="56.5" y="-298.5" font-family="Helvetica,sans-Serif" font-size="10.00">freertos/FreeRTOS.h</text>
</a>
</g>
</g>
<!-- Node1&#45;&gt;Node2 -->
<g id="edge1" class="edge">
<title>Node1&#45;&gt;Node2</title>
<path fill="none" stroke="#63b8ff" d="M486.63,-364.68C401.51,-355.59 250.06,-338.06 121.5,-316 115.67,-315 109.57,-313.84 103.54,-312.62"/>
<polygon fill="#63b8ff" stroke="#63b8ff" points="104.02,-309.15 93.52,-310.54 102.6,-316 104.02,-309.15"/>
</g>
<!-- Node3 -->
<g id="node3" class="node">
<title>Node3</title>
<g id="a_node3"><a xlink:title=" ">
<polygon fill="#e0e0e0" stroke="#999999" points="192,-310.5 131,-310.5 131,-291.5 192,-291.5 192,-310.5"/>
<text text-anchor="middle" x="161.5" y="-298.5" font-family="Helvetica,sans-Serif" font-size="10.00">Stream.h</text>
</a>
</g>
</g>
<!-- Node1&#45;&gt;Node3 -->
<g id="edge2" class="edge">
<title>Node1&#45;&gt;Node3</title>
<path fill="none" stroke="#63b8ff" d="M486.71,-364.8C415.15,-356.75 298.62,-341.09 200.5,-316 198,-315.36 195.43,-314.63 192.87,-313.83"/>
<polygon fill="#63b8ff" stroke="#63b8ff" points="193.73,-310.43 183.14,-310.59 191.52,-317.07 193.73,-310.43"/>
</g>
<!-- Node4 -->
<g id="node4" class="node">
<title>Node4</title>
<g id="a_node4"><a xlink:title=" ">
<polygon fill="#e0e0e0" stroke="#999999" points="299,-310.5 210,-310.5 210,-291.5 299,-291.5 299,-310.5"/>
<text text-anchor="middle" x="254.5" y="-298.5" font-family="Helvetica,sans-Serif" font-size="10.00">StreamString.h</text>
</a>
</g>
</g>
<!-- Node1&#45;&gt;Node4 -->
<g id="edge3" class="edge">
<title>Node1&#45;&gt;Node4</title>
<path fill="none" stroke="#63b8ff" d="M486.79,-357.14C437.21,-346.3 367.99,-330.81 307.5,-316 303.71,-315.07 299.77,-314.08 295.83,-313.07"/>
<polygon fill="#63b8ff" stroke="#63b8ff" points="296.68,-309.68 286.12,-310.55 294.92,-316.45 296.68,-309.68"/>
</g>
<!-- Node5 -->
<g id="node5" class="node">
<title>Node5</title>
<g id="a_node5"><a xlink:title=" ">
<polygon fill="#e0e0e0" stroke="#999999" points="424,-310.5 317,-310.5 317,-291.5 424,-291.5 424,-310.5"/>
<text text-anchor="middle" x="370.5" y="-298.5" font-family="Helvetica,sans-Serif" font-size="10.00">cli/FreeRTOS_CLI.h</text>
</a>
</g>
</g>
<!-- Node1&#45;&gt;Node5 -->
<g id="edge4" class="edge">
<title>Node1&#45;&gt;Node5</title>
<path fill="none" stroke="#63b8ff" d="M502.04,-351.96C470.03,-339.8 429.87,-324.55 402.4,-314.11"/>
<polygon fill="#63b8ff" stroke="#63b8ff" points="403.48,-310.78 392.89,-310.5 401,-317.33 403.48,-310.78"/>
</g>
<!-- Node6 -->
<g id="node6" class="node">
<title>Node6</title>
<g id="a_node6"><a xlink:href="config__cli_8h.html" target="_top" xlink:title=" ">
<polygon fill="white" stroke="#666666" points="572.5,-316 442.5,-316 442.5,-286 572.5,-286 572.5,-316"/>
<text text-anchor="start" x="450.5" y="-304" font-family="Helvetica,sans-Serif" font-size="10.00">cli/device_config/config</text>
<text text-anchor="middle" x="507.5" y="-293" font-family="Helvetica,sans-Serif" font-size="10.00">_cli.h</text>
</a>
</g>
</g>
<!-- Node1&#45;&gt;Node6 -->
<g id="edge5" class="edge">
<title>Node1&#45;&gt;Node6</title>
<path fill="none" stroke="#63b8ff" d="M540.44,-351.77C534.84,-343.31 528.27,-333.38 522.48,-324.63"/>
<polygon fill="#63b8ff" stroke="#63b8ff" points="525.23,-322.45 516.79,-316.04 519.39,-326.31 525.23,-322.45"/>
</g>
<!-- Node10 -->
<g id="node10" class="node">
<title>Node10</title>
<g id="a_node10"><a xlink:href="_c_a_t___m1_8h.html" target="_top" xlink:title=" ">
<polygon fill="white" stroke="#666666" points="629,-134.5 564,-134.5 564,-115.5 629,-115.5 629,-134.5"/>
<text text-anchor="middle" x="596.5" y="-122.5" font-family="Helvetica,sans-Serif" font-size="10.00">CAT_M1.h</text>
</a>
</g>
</g>
<!-- Node1&#45;&gt;Node10 -->
<g id="edge9" class="edge">
<title>Node1&#45;&gt;Node10</title>
<path fill="none" stroke="#63b8ff" d="M565.71,-351.97C571.53,-341.66 577.98,-328.57 581.5,-316 598.57,-255.02 598.5,-179.04 597.38,-144.56"/>
<polygon fill="#63b8ff" stroke="#63b8ff" points="600.88,-144.39 596.98,-134.54 593.88,-144.67 600.88,-144.39"/>
</g>
<!-- Node13 -->
<g id="node13" class="node">
<title>Node13</title>
<g id="a_node13"><a xlink:href="_utils_8h.html" target="_top" xlink:title=" ">
<polygon fill="white" stroke="#666666" points="763.5,-250 715.5,-250 715.5,-231 763.5,-231 763.5,-250"/>
<text text-anchor="middle" x="739.5" y="-238" font-family="Helvetica,sans-Serif" font-size="10.00">Utils.h</text>
</a>
</g>
</g>
<!-- Node1&#45;&gt;Node13 -->
<g id="edge14" class="edge">
<title>Node1&#45;&gt;Node13</title>
<path fill="none" stroke="#63b8ff" d="M592.65,-351.85C611.29,-341.93 633.6,-329.2 652.5,-316 678.56,-297.8 706,-273.29 722.93,-257.43"/>
<polygon fill="#63b8ff" stroke="#63b8ff" points="725.49,-259.83 730.35,-250.41 720.68,-254.75 725.49,-259.83"/>
</g>
<!-- Node16 -->
<g id="node16" class="node">
<title>Node16</title>
<g id="a_node16"><a xlink:href="globals_8h.html" target="_top" xlink:title=" ">
<polygon fill="white" stroke="#666666" points="770,-195 709,-195 709,-176 770,-176 770,-195"/>
<text text-anchor="middle" x="739.5" y="-183" font-family="Helvetica,sans-Serif" font-size="10.00">globals.h</text>
</a>
</g>
</g>
<!-- Node1&#45;&gt;Node16 -->
<g id="edge26" class="edge">
<title>Node1&#45;&gt;Node16</title>
<path fill="none" stroke="#63b8ff" d="M575.84,-351.8C587.53,-341.34 601.97,-328.17 614.5,-316 655.39,-276.3 701.46,-227.44 724.58,-202.62"/>
<polygon fill="#63b8ff" stroke="#63b8ff" points="727.25,-204.88 731.5,-195.17 722.13,-200.12 727.25,-204.88"/>
</g>
<!-- Node18 -->
<g id="node18" class="node">
<title>Node18</title>
<g id="a_node18"><a xlink:href="ota__update_8h.html" target="_top" xlink:title=" ">
<polygon fill="white" stroke="#666666" points="919.5,-310.5 839.5,-310.5 839.5,-291.5 919.5,-291.5 919.5,-310.5"/>
<text text-anchor="middle" x="879.5" y="-298.5" font-family="Helvetica,sans-Serif" font-size="10.00">ota_update.h</text>
</a>
</g>
</g>
<!-- Node1&#45;&gt;Node18 -->
<g id="edge21" class="edge">
<title>Node1&#45;&gt;Node18</title>
<path fill="none" stroke="#63b8ff" d="M620.26,-357.27C682.34,-344.03 773.43,-324.61 829.47,-312.67"/>
<polygon fill="#63b8ff" stroke="#63b8ff" points="830.46,-316.03 839.51,-310.52 829,-309.19 830.46,-316.03"/>
</g>
<!-- Node20 -->
<g id="node20" class="node">
<title>Node20</title>
<g id="a_node20"><a xlink:href="ftp__stack_8h.html" target="_top" xlink:title=" ">
<polygon fill="white" stroke="#666666" points="774.5,-310.5 704.5,-310.5 704.5,-291.5 774.5,-291.5 774.5,-310.5"/>
<text text-anchor="middle" x="739.5" y="-298.5" font-family="Helvetica,sans-Serif" font-size="10.00">ftp_stack.h</text>
</a>
</g>
</g>
<!-- Node1&#45;&gt;Node20 -->
<g id="edge24" class="edge">
<title>Node1&#45;&gt;Node20</title>
<path fill="none" stroke="#63b8ff" d="M605.81,-351.96C638.34,-339.8 679.16,-324.55 707.08,-314.11"/>
<polygon fill="#63b8ff" stroke="#63b8ff" points="708.6,-317.28 716.74,-310.5 706.15,-310.73 708.6,-317.28"/>
</g>
<!-- Node7 -->
<g id="node7" class="node">
<title>Node7</title>
<g id="a_node7"><a xlink:href="_device_config_8h.html" target="_top" xlink:title="Node configuration options.">
<polygon fill="white" stroke="#666666" points="560.5,-250 470.5,-250 470.5,-231 560.5,-231 560.5,-250"/>
<text text-anchor="middle" x="515.5" y="-238" font-family="Helvetica,sans-Serif" font-size="10.00">DeviceConfig.h</text>
</a>
</g>
</g>
<!-- Node6&#45;&gt;Node7 -->
<g id="edge6" class="edge">
<title>Node6&#45;&gt;Node7</title>
<path fill="none" stroke="#63b8ff" d="M509.44,-285.84C510.48,-278.21 511.78,-268.7 512.91,-260.45"/>
<polygon fill="#63b8ff" stroke="#63b8ff" points="516.41,-260.65 514.3,-250.27 509.48,-259.7 516.41,-260.65"/>
</g>
<!-- Node8 -->
<g id="node8" class="node">
<title>Node8</title>
<g id="a_node8"><a xlink:title=" ">
<polygon fill="#e0e0e0" stroke="#999999" points="572,-19 509,-19 509,0 572,0 572,-19"/>
<text text-anchor="middle" x="540.5" y="-7" font-family="Helvetica,sans-Serif" font-size="10.00">Arduino.h</text>
</a>
</g>
</g>
<!-- Node7&#45;&gt;Node8 -->
<g id="edge7" class="edge">
<title>Node7&#45;&gt;Node8</title>
<path fill="none" stroke="#63b8ff" d="M516.31,-230.66C518.77,-204.06 526.48,-122.47 534.5,-55 535.51,-46.48 536.76,-37.05 537.86,-29.08"/>
<polygon fill="#63b8ff" stroke="#63b8ff" points="541.35,-29.41 539.27,-19.02 534.42,-28.44 541.35,-29.41"/>
</g>
<!-- Node9 -->
<g id="node9" class="node">
<title>Node9</title>
<g id="a_node9"><a xlink:title=" ">
<polygon fill="#e0e0e0" stroke="#999999" points="691,-195 608,-195 608,-176 691,-176 691,-195"/>
<text text-anchor="middle" x="649.5" y="-183" font-family="Helvetica,sans-Serif" font-size="10.00">ArduinoJson.h</text>
</a>
</g>
</g>
<!-- Node7&#45;&gt;Node9 -->
<g id="edge8" class="edge">
<title>Node7&#45;&gt;Node9</title>
<path fill="none" stroke="#63b8ff" d="M537.03,-230.98C558.97,-222.3 593.24,-208.75 618.19,-198.88"/>
<polygon fill="#63b8ff" stroke="#63b8ff" points="619.57,-202.1 627.58,-195.17 616.99,-195.59 619.57,-202.1"/>
</g>
<!-- Node11 -->
<g id="node11" class="node">
<title>Node11</title>
<g id="a_node11"><a xlink:title=" ">
<polygon fill="#e0e0e0" stroke="#999999" points="650.5,-19 602.5,-19 602.5,0 650.5,0 650.5,-19"/>
<text text-anchor="middle" x="626.5" y="-7" font-family="Helvetica,sans-Serif" font-size="10.00">Wire.h</text>
</a>
</g>
</g>
<!-- Node10&#45;&gt;Node11 -->
<g id="edge10" class="edge">
<title>Node10&#45;&gt;Node11</title>
<path fill="none" stroke="#63b8ff" d="M601.93,-115.16C607.61,-105.46 616.27,-89.22 620.5,-74 624.54,-59.46 625.98,-42.4 626.44,-29.63"/>
<polygon fill="#63b8ff" stroke="#63b8ff" points="629.95,-29.37 626.64,-19.3 622.95,-29.23 629.95,-29.37"/>
</g>
<!-- Node12 -->
<g id="node12" class="node">
<title>Node12</title>
<g id="a_node12"><a xlink:href="_t_c_a9534_8h.html" target="_top" xlink:title=" ">
<polygon fill="white" stroke="#666666" points="611.5,-74 543.5,-74 543.5,-55 611.5,-55 611.5,-74"/>
<text text-anchor="middle" x="577.5" y="-62" font-family="Helvetica,sans-Serif" font-size="10.00">TCA9534.h</text>
</a>
</g>
</g>
<!-- Node10&#45;&gt;Node12 -->
<g id="edge11" class="edge">
<title>Node10&#45;&gt;Node12</title>
<path fill="none" stroke="#63b8ff" d="M593.7,-115.37C591,-107.07 586.85,-94.28 583.42,-83.72"/>
<polygon fill="#63b8ff" stroke="#63b8ff" points="586.73,-82.6 580.32,-74.17 580.08,-84.76 586.73,-82.6"/>
</g>
<!-- Node12&#45;&gt;Node8 -->
<g id="edge12" class="edge">
<title>Node12&#45;&gt;Node8</title>
<path fill="none" stroke="#63b8ff" d="M571.39,-54.75C566.22,-47.34 558.65,-36.5 552.31,-27.41"/>
<polygon fill="#63b8ff" stroke="#63b8ff" points="555.09,-25.29 546.5,-19.09 549.35,-29.29 555.09,-25.29"/>
</g>
<!-- Node12&#45;&gt;Node11 -->
<g id="edge13" class="edge">
<title>Node12&#45;&gt;Node11</title>
<path fill="none" stroke="#63b8ff" d="M585.59,-54.75C592.66,-47.11 603.09,-35.82 611.65,-26.56"/>
<polygon fill="#63b8ff" stroke="#63b8ff" points="614.34,-28.81 618.56,-19.09 609.2,-24.06 614.34,-28.81"/>
</g>
<!-- Node13&#45;&gt;Node9 -->
<g id="edge16" class="edge">
<title>Node13&#45;&gt;Node9</title>
<path fill="none" stroke="#63b8ff" d="M725.04,-230.98C711.08,-222.77 689.71,-210.18 673.25,-200.49"/>
<polygon fill="#63b8ff" stroke="#63b8ff" points="674.62,-197.23 664.22,-195.17 671.06,-203.26 674.62,-197.23"/>
</g>
<!-- Node14 -->
<g id="node14" class="node">
<title>Node14</title>
<g id="a_node14"><a xlink:title=" ">
<polygon fill="#e0e0e0" stroke="#999999" points="955.5,-195 899.5,-195 899.5,-176 955.5,-176 955.5,-195"/>
<text text-anchor="middle" x="927.5" y="-183" font-family="Helvetica,sans-Serif" font-size="10.00">stddef.h</text>
</a>
</g>
</g>
<!-- Node13&#45;&gt;Node14 -->
<g id="edge15" class="edge">
<title>Node13&#45;&gt;Node14</title>
<path fill="none" stroke="#63b8ff" d="M763.69,-232.68C795.51,-223.71 851.77,-207.85 889.35,-197.25"/>
<polygon fill="#63b8ff" stroke="#63b8ff" points="890.75,-200.5 899.42,-194.42 888.85,-193.76 890.75,-200.5"/>
</g>
<!-- Node15 -->
<g id="node15" class="node">
<title>Node15</title>
<g id="a_node15"><a xlink:title=" ">
<polygon fill="#e0e0e0" stroke="#999999" points="881,-195 788,-195 788,-176 881,-176 881,-195"/>
<text text-anchor="middle" x="834.5" y="-183" font-family="Helvetica,sans-Serif" font-size="10.00">dpiclimate&#45;12.h</text>
</a>
</g>
</g>
<!-- Node13&#45;&gt;Node15 -->
<g id="edge17" class="edge">
<title>Node13&#45;&gt;Node15</title>
<path fill="none" stroke="#63b8ff" d="M754.76,-230.98C769.63,-222.69 792.48,-209.94 809.92,-200.22"/>
<polygon fill="#63b8ff" stroke="#63b8ff" points="811.93,-203.1 818.96,-195.17 808.52,-196.99 811.93,-203.1"/>
</g>
<!-- Node13&#45;&gt;Node16 -->
<g id="edge18" class="edge">
<title>Node13&#45;&gt;Node16</title>
<path fill="none" stroke="#63b8ff" d="M739.5,-230.75C739.5,-223.8 739.5,-213.85 739.5,-205.13"/>
<polygon fill="#63b8ff" stroke="#63b8ff" points="743,-205.09 739.5,-195.09 736,-205.09 743,-205.09"/>
</g>
<!-- Node16&#45;&gt;Node10 -->
<g id="edge20" class="edge">
<title>Node16&#45;&gt;Node10</title>
<path fill="none" stroke="#63b8ff" d="M718.71,-175.99C694.56,-166.12 654.52,-149.73 626.88,-138.43"/>
<polygon fill="#63b8ff" stroke="#63b8ff" points="627.9,-135.06 617.32,-134.52 625.25,-141.54 627.9,-135.06"/>
</g>
<!-- Node17 -->
<g id="node17" class="node">
<title>Node17</title>
<g id="a_node17"><a xlink:title=" ">
<polygon fill="#e0e0e0" stroke="#999999" points="804.5,-140 674.5,-140 674.5,-110 804.5,-110 804.5,-140"/>
<text text-anchor="start" x="682.5" y="-128" font-family="Helvetica,sans-Serif" font-size="10.00">SparkFun_u&#45;blox_SARA</text>
<text text-anchor="middle" x="739.5" y="-117" font-family="Helvetica,sans-Serif" font-size="10.00">&#45;R5_Arduino_Library.h</text>
</a>
</g>
</g>
<!-- Node16&#45;&gt;Node17 -->
<g id="edge19" class="edge">
<title>Node16&#45;&gt;Node17</title>
<path fill="none" stroke="#63b8ff" d="M739.5,-175.87C739.5,-169.11 739.5,-159.35 739.5,-150.26"/>
<polygon fill="#63b8ff" stroke="#63b8ff" points="743,-150.11 739.5,-140.11 736,-150.11 743,-150.11"/>
</g>
<!-- Node18&#45;&gt;Node14 -->
<g id="edge23" class="edge">
<title>Node18&#45;&gt;Node14</title>
<path fill="none" stroke="#63b8ff" d="M881.22,-291.23C884.02,-277.85 890.21,-251.71 899.5,-231 903.74,-221.54 909.73,-211.72 915.08,-203.72"/>
<polygon fill="#63b8ff" stroke="#63b8ff" points="918.11,-205.5 920.93,-195.29 912.35,-201.51 918.11,-205.5"/>
</g>
<!-- Node19 -->
<g id="node19" class="node">
<title>Node19</title>
<g id="a_node19"><a xlink:title=" ">
<polygon fill="#e0e0e0" stroke="#999999" points="961,-250 908,-250 908,-231 961,-231 961,-250"/>
<text text-anchor="middle" x="934.5" y="-238" font-family="Helvetica,sans-Serif" font-size="10.00">stdint.h</text>
</a>
</g>
</g>
<!-- Node18&#45;&gt;Node19 -->
<g id="edge22" class="edge">
<title>Node18&#45;&gt;Node19</title>
<path fill="none" stroke="#63b8ff" d="M887.62,-291.37C895.9,-282.55 908.97,-268.66 919.2,-257.77"/>
<polygon fill="#63b8ff" stroke="#63b8ff" points="922.05,-259.85 926.35,-250.17 916.95,-255.06 922.05,-259.85"/>
</g>
<!-- Node20&#45;&gt;Node13 -->
<g id="edge25" class="edge">
<title>Node20&#45;&gt;Node13</title>
<path fill="none" stroke="#63b8ff" d="M739.5,-291.37C739.5,-283.25 739.5,-270.81 739.5,-260.39"/>
<polygon fill="#63b8ff" stroke="#63b8ff" points="743,-260.17 739.5,-250.17 736,-260.17 743,-260.17"/>
</g>
</g>
</svg>
