<?xml version="1.0" encoding="UTF-8" standalone="no"?>
<!DOCTYPE svg PUBLIC "-//W3C//DTD SVG 1.1//EN"
 "http://www.w3.org/Graphics/SVG/1.1/DTD/svg11.dtd">
<!-- Generated by graphviz version 2.43.0 (0)
 -->
<!-- Title: firmware/wombat/include/bluetooth/device.h Pages: 1 -->
<svg width="1112pt" height="247pt"
 viewBox="0.00 0.00 1112.00 247.00" xmlns="http://www.w3.org/2000/svg" xmlns:xlink="http://www.w3.org/1999/xlink">
<g id="graph0" class="graph" transform="scale(1 1) rotate(0) translate(4 243)">
<title>firmware/wombat/include/bluetooth/device.h</title>
<!-- Node1 -->
<g id="node1" class="node">
<title>Node1</title>
<g id="a_node1"><a xlink:title="Bluetooth device services and device information.">
<polygon fill="#999999" stroke="#666666" points="692.5,-239 551.5,-239 551.5,-209 692.5,-209 692.5,-239"/>
<text text-anchor="start" x="559.5" y="-227" font-family="Helvetica,sans-Serif" font-size="10.00">firmware/wombat/include</text>
<text text-anchor="middle" x="622" y="-216" font-family="Helvetica,sans-Serif" font-size="10.00">/bluetooth/device.h</text>
</a>
</g>
</g>
<!-- Node2 -->
<g id="node2" class="node">
<title>Node2</title>
<g id="a_node2"><a xlink:href="server_8h.html" target="_top" xlink:title="Handle the setup and maintenance of the BLE server and connected clients.">
<polygon fill="white" stroke="#666666" points="617.5,-173 476.5,-173 476.5,-143 617.5,-143 617.5,-173"/>
<text text-anchor="start" x="484.5" y="-161" font-family="Helvetica,sans-Serif" font-size="10.00">firmware/wombat/include</text>
<text text-anchor="middle" x="547" y="-150" font-family="Helvetica,sans-Serif" font-size="10.00">/bluetooth/server.h</text>
</a>
</g>
</g>
<!-- Node1&#45;&gt;Node2 -->
<g id="edge1" class="edge">
<title>Node1&#45;&gt;Node2</title>
<path fill="none" stroke="#63b8ff" d="M597.63,-202.2C586.49,-192.7 573.59,-181.69 563.6,-173.16"/>
<polygon fill="#63b8ff" stroke="#63b8ff" points="595.48,-204.97 605.36,-208.8 600.02,-199.64 595.48,-204.97"/>
</g>
<!-- Node14 -->
<g id="node14" class="node">
<title>Node14</title>
<g id="a_node14"><a xlink:href="device_8cpp.html" target="_top" xlink:title="Setup BluetoothLE device information services and characteristics.">
<polygon fill="white" stroke="#666666" points="758,-173 636,-173 636,-143 758,-143 758,-173"/>
<text text-anchor="start" x="644" y="-161" font-family="Helvetica,sans-Serif" font-size="10.00">firmware/wombat/src</text>
<text text-anchor="middle" x="697" y="-150" font-family="Helvetica,sans-Serif" font-size="10.00">/bluetooth/device.cpp</text>
</a>
</g>
</g>
<!-- Node1&#45;&gt;Node14 -->
<g id="edge15" class="edge">
<title>Node1&#45;&gt;Node14</title>
<path fill="none" stroke="#63b8ff" d="M646.37,-202.2C657.51,-192.7 670.41,-181.69 680.4,-173.16"/>
<polygon fill="#63b8ff" stroke="#63b8ff" points="643.98,-199.64 638.64,-208.8 648.52,-204.97 643.98,-199.64"/>
</g>
<!-- Node3 -->
<g id="node3" class="node">
<title>Node3</title>
<g id="a_node3"><a xlink:href="uart_8h.html" target="_top" xlink:title="BluetoothLE UART service setup and handling.">
<polygon fill="white" stroke="#666666" points="458.5,-107 317.5,-107 317.5,-77 458.5,-77 458.5,-107"/>
<text text-anchor="start" x="325.5" y="-95" font-family="Helvetica,sans-Serif" font-size="10.00">firmware/wombat/include</text>
<text text-anchor="middle" x="388" y="-84" font-family="Helvetica,sans-Serif" font-size="10.00">/bluetooth/uart.h</text>
</a>
</g>
</g>
<!-- Node2&#45;&gt;Node3 -->
<g id="edge2" class="edge">
<title>Node2&#45;&gt;Node3</title>
<path fill="none" stroke="#63b8ff" d="M496.97,-139.32C470.69,-129.14 439.46,-116.51 417.12,-107.01"/>
<polygon fill="#63b8ff" stroke="#63b8ff" points="495.82,-142.63 506.41,-142.95 498.33,-136.1 495.82,-142.63"/>
</g>
<!-- Node5 -->
<g id="node5" class="node">
<title>Node5</title>
<g id="a_node5"><a xlink:href="_c_l_i_8h.html" target="_top" xlink:title="FreeRTOS CLI handler.">
<polygon fill="white" stroke="#666666" points="617.5,-107 476.5,-107 476.5,-77 617.5,-77 617.5,-107"/>
<text text-anchor="start" x="484.5" y="-95" font-family="Helvetica,sans-Serif" font-size="10.00">firmware/wombat/include</text>
<text text-anchor="middle" x="547" y="-84" font-family="Helvetica,sans-Serif" font-size="10.00">/cli/CLI.h</text>
</a>
</g>
</g>
<!-- Node2&#45;&gt;Node5 -->
<g id="edge5" class="edge">
<title>Node2&#45;&gt;Node5</title>
<path fill="none" stroke="#63b8ff" d="M540.43,-132.83C540.02,-124.17 540.31,-114.7 541.29,-107.16"/>
<polygon fill="#63b8ff" stroke="#63b8ff" points="536.95,-133.13 541.28,-142.8 543.92,-132.54 536.95,-133.13"/>
</g>
<!-- Node13 -->
<g id="node13" class="node">
<title>Node13</title>
<g id="a_node13"><a xlink:href="server_8cpp.html" target="_top" xlink:title="Setup and start BluetoothLE server.">
<polygon fill="white" stroke="#666666" points="756,-107 636,-107 636,-77 756,-77 756,-107"/>
<text text-anchor="start" x="644" y="-95" font-family="Helvetica,sans-Serif" font-size="10.00">firmware/wombat/src</text>
<text text-anchor="middle" x="696" y="-84" font-family="Helvetica,sans-Serif" font-size="10.00">/bluetooth/server.cpp</text>
</a>
</g>
</g>
<!-- Node2&#45;&gt;Node13 -->
<g id="edge14" class="edge">
<title>Node2&#45;&gt;Node13</title>
<path fill="none" stroke="#63b8ff" d="M589.09,-138.92C612.64,-128.8 641.56,-116.38 663.38,-107.01"/>
<polygon fill="#63b8ff" stroke="#63b8ff" points="587.51,-135.79 579.7,-142.95 590.27,-142.22 587.51,-135.79"/>
</g>
<!-- Node3&#45;&gt;Node2 -->
<g id="edge3" class="edge">
<title>Node3&#45;&gt;Node2</title>
<path fill="none" stroke="#63b8ff" d="M437.94,-110.64C464.21,-120.82 495.44,-133.45 517.81,-142.95"/>
<polygon fill="#63b8ff" stroke="#63b8ff" points="439.1,-107.34 428.51,-107.01 436.58,-113.87 439.1,-107.34"/>
</g>
<!-- Node4 -->
<g id="node4" class="node">
<title>Node4</title>
<g id="a_node4"><a xlink:href="uart_8cpp.html" target="_top" xlink:title="BluetoothLE UART service setup and handling.">
<polygon fill="white" stroke="#666666" points="120,-35.5 0,-35.5 0,-5.5 120,-5.5 120,-35.5"/>
<text text-anchor="start" x="8" y="-23.5" font-family="Helvetica,sans-Serif" font-size="10.00">firmware/wombat/src</text>
<text text-anchor="middle" x="60" y="-12.5" font-family="Helvetica,sans-Serif" font-size="10.00">/bluetooth/uart.cpp</text>
</a>
</g>
</g>
<!-- Node3&#45;&gt;Node4 -->
<g id="edge4" class="edge">
<title>Node3&#45;&gt;Node4</title>
<path fill="none" stroke="#63b8ff" d="M307.27,-77.23C255.98,-68.04 188.32,-55.08 129,-41 122.1,-39.36 114.85,-37.49 107.75,-35.56"/>
<polygon fill="#63b8ff" stroke="#63b8ff" points="306.84,-80.71 317.3,-79.02 308.07,-73.82 306.84,-80.71"/>
</g>
<!-- Node5&#45;&gt;Node2 -->
<g id="edge6" class="edge">
<title>Node5&#45;&gt;Node2</title>
<path fill="none" stroke="#63b8ff" d="M553.57,-117.13C553.98,-125.78 553.7,-135.26 552.72,-142.8"/>
<polygon fill="#63b8ff" stroke="#63b8ff" points="557.05,-116.83 552.71,-107.16 550.08,-117.43 557.05,-116.83"/>
</g>
<!-- Node6 -->
<g id="node6" class="node">
<title>Node6</title>
<g id="a_node6"><a xlink:href="_c_l_i_8cpp.html" target="_top" xlink:title="FreeRTOS CLI handler.">
<polygon fill="white" stroke="#666666" points="258,-35.5 138,-35.5 138,-5.5 258,-5.5 258,-35.5"/>
<text text-anchor="start" x="146" y="-23.5" font-family="Helvetica,sans-Serif" font-size="10.00">firmware/wombat/src</text>
<text text-anchor="middle" x="198" y="-12.5" font-family="Helvetica,sans-Serif" font-size="10.00">/cli/CLI.cpp</text>
</a>
</g>
</g>
<!-- Node5&#45;&gt;Node6 -->
<g id="edge7" class="edge">
<title>Node5&#45;&gt;Node6</title>
<path fill="none" stroke="#63b8ff" d="M466.21,-76.77C387.02,-62.8 276.78,-43.25 267,-41 259.96,-39.38 252.57,-37.5 245.35,-35.55"/>
<polygon fill="#63b8ff" stroke="#63b8ff" points="465.74,-80.24 476.19,-78.54 466.95,-73.35 465.74,-80.24"/>
</g>
<!-- Node7 -->
<g id="node7" class="node">
<title>Node7</title>
<g id="a_node7"><a xlink:href="cat-m1_8cpp.html" target="_top" xlink:title="CAT&#45;M1 CLI command request and response handler.">
<polygon fill="white" stroke="#666666" points="396,-41 276,-41 276,0 396,0 396,-41"/>
<text text-anchor="start" x="284" y="-29" font-family="Helvetica,sans-Serif" font-size="10.00">firmware/wombat/src</text>
<text text-anchor="start" x="284" y="-18" font-family="Helvetica,sans-Serif" font-size="10.00">/cli/peripherals/cat</text>
<text text-anchor="middle" x="336" y="-7" font-family="Helvetica,sans-Serif" font-size="10.00">&#45;m1.cpp</text>
</a>
</g>
</g>
<!-- Node5&#45;&gt;Node7 -->
<g id="edge8" class="edge">
<title>Node5&#45;&gt;Node7</title>
<path fill="none" stroke="#63b8ff" d="M494.42,-73.68C464.36,-63.78 426.56,-51.33 395.42,-41.07"/>
<polygon fill="#63b8ff" stroke="#63b8ff" points="493.71,-77.13 504.3,-76.94 495.9,-70.48 493.71,-77.13"/>
</g>
<!-- Node8 -->
<g id="node8" class="node">
<title>Node8</title>
<g id="a_node8"><a xlink:href="sd__card_8cpp.html" target="_top" xlink:title=" ">
<polygon fill="white" stroke="#666666" points="534,-41 414,-41 414,0 534,0 534,-41"/>
<text text-anchor="start" x="422" y="-29" font-family="Helvetica,sans-Serif" font-size="10.00">firmware/wombat/src</text>
<text text-anchor="start" x="422" y="-18" font-family="Helvetica,sans-Serif" font-size="10.00">/cli/peripherals/sd</text>
<text text-anchor="middle" x="474" y="-7" font-family="Helvetica,sans-Serif" font-size="10.00">_card.cpp</text>
</a>
</g>
</g>
<!-- Node5&#45;&gt;Node8 -->
<g id="edge9" class="edge">
<title>Node5&#45;&gt;Node8</title>
<path fill="none" stroke="#63b8ff" d="M524.9,-69.96C515.26,-60.78 504.02,-50.08 494.56,-41.07"/>
<polygon fill="#63b8ff" stroke="#63b8ff" points="522.57,-72.58 532.23,-76.94 527.4,-67.51 522.57,-72.58"/>
</g>
<!-- Node9 -->
<g id="node9" class="node">
<title>Node9</title>
<g id="a_node9"><a xlink:href="sdi12_8cpp.html" target="_top" xlink:title="SDI&#45;12 command line interface handler.">
<polygon fill="white" stroke="#666666" points="690,-35.5 552,-35.5 552,-5.5 690,-5.5 690,-35.5"/>
<text text-anchor="start" x="560" y="-23.5" font-family="Helvetica,sans-Serif" font-size="10.00">firmware/wombat/src</text>
<text text-anchor="middle" x="621" y="-12.5" font-family="Helvetica,sans-Serif" font-size="10.00">/cli/peripherals/sdi12.cpp</text>
</a>
</g>
</g>
<!-- Node5&#45;&gt;Node9 -->
<g id="edge10" class="edge">
<title>Node5&#45;&gt;Node9</title>
<path fill="none" stroke="#63b8ff" d="M569.37,-69.99C581.25,-58.84 595.52,-45.43 606.05,-35.54"/>
<polygon fill="#63b8ff" stroke="#63b8ff" points="566.87,-67.54 561.98,-76.94 571.66,-72.64 566.87,-67.54"/>
</g>
<!-- Node10 -->
<g id="node10" class="node">
<title>Node10</title>
<g id="a_node10"><a xlink:href="ftp__stack_8cpp.html" target="_top" xlink:title=" ">
<polygon fill="white" stroke="#666666" points="828,-35.5 708,-35.5 708,-5.5 828,-5.5 828,-35.5"/>
<text text-anchor="start" x="716" y="-23.5" font-family="Helvetica,sans-Serif" font-size="10.00">firmware/wombat/src</text>
<text text-anchor="middle" x="768" y="-12.5" font-family="Helvetica,sans-Serif" font-size="10.00">/ftp_stack.cpp</text>
</a>
</g>
</g>
<!-- Node5&#45;&gt;Node10 -->
<g id="edge11" class="edge">
<title>Node5&#45;&gt;Node10</title>
<path fill="none" stroke="#63b8ff" d="M601.48,-73.87C638.97,-62.08 688.16,-46.61 723.34,-35.54"/>
<polygon fill="#63b8ff" stroke="#63b8ff" points="600.21,-70.6 591.72,-76.94 602.31,-77.27 600.21,-70.6"/>
</g>
<!-- Node11 -->
<g id="node11" class="node">
<title>Node11</title>
<g id="a_node11"><a xlink:href="main_8cpp.html" target="_top" xlink:title=" ">
<polygon fill="white" stroke="#666666" points="966,-35.5 846,-35.5 846,-5.5 966,-5.5 966,-35.5"/>
<text text-anchor="start" x="854" y="-23.5" font-family="Helvetica,sans-Serif" font-size="10.00">firmware/wombat/src</text>
<text text-anchor="middle" x="906" y="-12.5" font-family="Helvetica,sans-Serif" font-size="10.00">/main.cpp</text>
</a>
</g>
</g>
<!-- Node5&#45;&gt;Node11 -->
<g id="edge12" class="edge">
<title>Node5&#45;&gt;Node11</title>
<path fill="none" stroke="#63b8ff" d="M627.64,-76.91C722,-60.88 747.71,-61.21 837,-41 844.04,-39.41 851.43,-37.53 858.66,-35.59"/>
<polygon fill="#63b8ff" stroke="#63b8ff" points="626.93,-73.48 617.67,-78.62 628.12,-80.38 626.93,-73.48"/>
</g>
<!-- Node12 -->
<g id="node12" class="node">
<title>Node12</title>
<g id="a_node12"><a xlink:href="mqtt__stack_8cpp.html" target="_top" xlink:title=" ">
<polygon fill="white" stroke="#666666" points="1104,-35.5 984,-35.5 984,-5.5 1104,-5.5 1104,-35.5"/>
<text text-anchor="start" x="992" y="-23.5" font-family="Helvetica,sans-Serif" font-size="10.00">firmware/wombat/src</text>
<text text-anchor="middle" x="1044" y="-12.5" font-family="Helvetica,sans-Serif" font-size="10.00">/mqtt_stack.cpp</text>
</a>
</g>
</g>
<!-- Node5&#45;&gt;Node12 -->
<g id="edge13" class="edge">
<title>Node5&#45;&gt;Node12</title>
<path fill="none" stroke="#63b8ff" d="M627.99,-76.95C782.84,-56.19 825.57,-69.62 975,-41 982.7,-39.52 990.79,-37.59 998.61,-35.52"/>
<polygon fill="#63b8ff" stroke="#63b8ff" points="627.06,-73.54 617.63,-78.36 628.01,-80.48 627.06,-73.54"/>
</g>
</g>
</svg>
