<?xml version="1.0" encoding="UTF-8" standalone="no"?>
<!DOCTYPE svg PUBLIC "-//W3C//DTD SVG 1.1//EN"
 "http://www.w3.org/Graphics/SVG/1.1/DTD/svg11.dtd">
<!-- Generated by graphviz version 2.43.0 (0)
 -->
<!-- Title: firmware/wombat/src/bluetooth/device.cpp Pages: 1 -->
<svg width="484pt" height="148pt"
 viewBox="0.00 0.00 484.00 148.00" xmlns="http://www.w3.org/2000/svg" xmlns:xlink="http://www.w3.org/1999/xlink">
<g id="graph0" class="graph" transform="scale(1 1) rotate(0) translate(4 144)">
<title>firmware/wombat/src/bluetooth/device.cpp</title>
<!-- Node1 -->
<g id="node1" class="node">
<title>Node1</title>
<g id="a_node1"><a xlink:title=" ">
<polygon fill="#999999" stroke="#666666" points="357.5,-140 235.5,-140 235.5,-110 357.5,-110 357.5,-140"/>
<text text-anchor="start" x="243.5" y="-128" font-family="Helvetica,sans-Serif" font-size="10.00">firmware/wombat/src</text>
<text text-anchor="middle" x="296.5" y="-117" font-family="Helvetica,sans-Serif" font-size="10.00">/bluetooth/device.cpp</text>
</a>
</g>
</g>
<!-- Node2 -->
<g id="node2" class="node">
<title>Node2</title>
<g id="a_node2"><a xlink:href="device_8h.html" target="_top" xlink:title=" ">
<polygon fill="white" stroke="#666666" points="292,-74 185,-74 185,-55 292,-55 292,-74"/>
<text text-anchor="middle" x="238.5" y="-62" font-family="Helvetica,sans-Serif" font-size="10.00">bluetooth/device.h</text>
</a>
</g>
</g>
<!-- Node1&#45;&gt;Node2 -->
<g id="edge1" class="edge">
<title>Node1&#45;&gt;Node2</title>
<path fill="none" stroke="#63b8ff" d="M282.46,-109.84C273.95,-101.26 263.09,-90.3 254.28,-81.42"/>
<polygon fill="#63b8ff" stroke="#63b8ff" points="256.72,-78.9 247.19,-74.27 251.75,-83.83 256.72,-78.9"/>
</g>
<!-- Node7 -->
<g id="node7" class="node">
<title>Node7</title>
<g id="a_node7"><a xlink:href="_device_config_8h.html" target="_top" xlink:title=" ">
<polygon fill="white" stroke="#666666" points="400.5,-74 310.5,-74 310.5,-55 400.5,-55 400.5,-74"/>
<text text-anchor="middle" x="355.5" y="-62" font-family="Helvetica,sans-Serif" font-size="10.00">DeviceConfig.h</text>
</a>
</g>
</g>
<!-- Node1&#45;&gt;Node7 -->
<g id="edge6" class="edge">
<title>Node1&#45;&gt;Node7</title>
<path fill="none" stroke="#63b8ff" d="M310.78,-109.84C319.43,-101.26 330.49,-90.3 339.44,-81.42"/>
<polygon fill="#63b8ff" stroke="#63b8ff" points="342.02,-83.79 346.66,-74.27 337.09,-78.82 342.02,-83.79"/>
</g>
<!-- Node3 -->
<g id="node3" class="node">
<title>Node3</title>
<g id="a_node3"><a xlink:title=" ">
<polygon fill="#e0e0e0" stroke="#999999" points="371,-19 308,-19 308,0 371,0 371,-19"/>
<text text-anchor="middle" x="339.5" y="-7" font-family="Helvetica,sans-Serif" font-size="10.00">Arduino.h</text>
</a>
</g>
</g>
<!-- Node2&#45;&gt;Node3 -->
<g id="edge2" class="edge">
<title>Node2&#45;&gt;Node3</title>
<path fill="none" stroke="#63b8ff" d="M254.73,-54.98C270.68,-46.61 295.28,-33.7 313.88,-23.95"/>
<polygon fill="#63b8ff" stroke="#63b8ff" points="315.75,-26.92 322.98,-19.17 312.5,-20.72 315.75,-26.92"/>
</g>
<!-- Node4 -->
<g id="node4" class="node">
<title>Node4</title>
<g id="a_node4"><a xlink:title=" ">
<polygon fill="#e0e0e0" stroke="#999999" points="111,-19 0,-19 0,0 111,0 111,-19"/>
<text text-anchor="middle" x="55.5" y="-7" font-family="Helvetica,sans-Serif" font-size="10.00">BLECharacteristic.h</text>
</a>
</g>
</g>
<!-- Node2&#45;&gt;Node4 -->
<g id="edge3" class="edge">
<title>Node2&#45;&gt;Node4</title>
<path fill="none" stroke="#63b8ff" d="M209.1,-54.98C178.11,-46.01 129.12,-31.82 94.83,-21.89"/>
<polygon fill="#63b8ff" stroke="#63b8ff" points="95.71,-18.5 85.13,-19.08 93.76,-25.23 95.71,-18.5"/>
</g>
<!-- Node5 -->
<g id="node5" class="node">
<title>Node5</title>
<g id="a_node5"><a xlink:title=" ">
<polygon fill="#e0e0e0" stroke="#999999" points="203.5,-19 129.5,-19 129.5,0 203.5,0 203.5,-19"/>
<text text-anchor="middle" x="166.5" y="-7" font-family="Helvetica,sans-Serif" font-size="10.00">BLEServer.h</text>
</a>
</g>
</g>
<!-- Node2&#45;&gt;Node5 -->
<g id="edge4" class="edge">
<title>Node2&#45;&gt;Node5</title>
<path fill="none" stroke="#63b8ff" d="M226.93,-54.98C216.08,-47 199.62,-34.88 186.62,-25.31"/>
<polygon fill="#63b8ff" stroke="#63b8ff" points="188.41,-22.28 178.28,-19.17 184.26,-27.92 188.41,-22.28"/>
</g>
<!-- Node6 -->
<g id="node6" class="node">
<title>Node6</title>
<g id="a_node6"><a xlink:title=" ">
<polygon fill="#e0e0e0" stroke="#999999" points="289.5,-19 221.5,-19 221.5,0 289.5,0 289.5,-19"/>
<text text-anchor="middle" x="255.5" y="-7" font-family="Helvetica,sans-Serif" font-size="10.00">BLE2902.h</text>
</a>
</g>
</g>
<!-- Node2&#45;&gt;Node6 -->
<g id="edge5" class="edge">
<title>Node2&#45;&gt;Node6</title>
<path fill="none" stroke="#63b8ff" d="M241.31,-54.75C243.56,-47.72 246.8,-37.62 249.62,-28.84"/>
<polygon fill="#63b8ff" stroke="#63b8ff" points="253.02,-29.68 252.75,-19.09 246.36,-27.54 253.02,-29.68"/>
</g>
<!-- Node7&#45;&gt;Node3 -->
<g id="edge7" class="edge">
<title>Node7&#45;&gt;Node3</title>
<path fill="none" stroke="#63b8ff" d="M352.86,-54.75C350.74,-47.72 347.69,-37.62 345.04,-28.84"/>
<polygon fill="#63b8ff" stroke="#63b8ff" points="348.33,-27.65 342.09,-19.09 341.63,-29.67 348.33,-27.65"/>
</g>
<!-- Node8 -->
<g id="node8" class="node">
<title>Node8</title>
<g id="a_node8"><a xlink:title=" ">
<polygon fill="#e0e0e0" stroke="#999999" points="476,-19 389,-19 389,0 476,0 476,-19"/>
<text text-anchor="middle" x="432.5" y="-7" font-family="Helvetica,sans-Serif" font-size="10.00">ArduinoJSON.h</text>
</a>
</g>
</g>
<!-- Node7&#45;&gt;Node8 -->
<g id="edge8" class="edge">
<title>Node7&#45;&gt;Node8</title>
<path fill="none" stroke="#63b8ff" d="M367.87,-54.98C379.59,-46.92 397.42,-34.65 411.39,-25.03"/>
<polygon fill="#63b8ff" stroke="#63b8ff" points="413.65,-27.72 419.9,-19.17 409.68,-21.96 413.65,-27.72"/>
</g>
</g>
</svg>
