<?xml version="1.0" encoding="UTF-8" standalone="no"?>
<!DOCTYPE svg PUBLIC "-//W3C//DTD SVG 1.1//EN"
 "http://www.w3.org/Graphics/SVG/1.1/DTD/svg11.dtd">
<!-- Generated by graphviz version 2.43.0 (0)
 -->
<!-- Title: firmware/wombat/src/cli Pages: 1 -->
<svg width="276pt" height="125pt"
 viewBox="0.00 0.00 276.00 125.00" xmlns="http://www.w3.org/2000/svg" xmlns:xlink="http://www.w3.org/1999/xlink">
<g id="graph0" class="graph" transform="scale(1 1) rotate(0) translate(4 121)">
<title>firmware/wombat/src/cli</title>
<g id="clust1" class="cluster">
<title>clusterdir_e79d578d7f85ef1913c57f714dd694b1</title>
<g id="a_clust1"><a xlink:href="dir_e79d578d7f85ef1913c57f714dd694b1.html" target="_top" xlink:title="src">
<polygon fill="#edf0f7" stroke="#7f7f7f" stroke-dasharray="5,2" points="8,-39 8,-109 260,-109 260,-39 8,-39"/>
<text text-anchor="middle" x="134" y="-97" font-family="Helvetica,sans-Serif" font-size="10.00">src</text>
</a>
</g>
</g>
<g id="clust2" class="cluster">
<title>clusterdir_8b21b1686340a4d26c57e3874d58ae0a</title>
<g id="a_clust2"><a xlink:href="dir_8b21b1686340a4d26c57e3874d58ae0a.html" target="_top">
<polygon fill="#edf0f7" stroke="#404040" stroke-width="2" points="16,-47 16,-82 252,-82 252,-47 16,-47"/>
</a>
</g>
</g>
<!-- dir_8b21b1686340a4d26c57e3874d58ae0a -->
<g id="node1" class="node">
<title>dir_8b21b1686340a4d26c57e3874d58ae0a</title>
<text text-anchor="middle" x="140" y="-62" font-family="Helvetica,sans-Serif" font-size="10.00">cli</text>
</g>
<!-- dir_d0384342543f67451a573d7221124c26 -->
<g id="node4" class="node">
<title>dir_d0384342543f67451a573d7221124c26</title>
<g id="a_node4"><a xlink:href="dir_d0384342543f67451a573d7221124c26.html" target="_top" xlink:title="include">
<polygon fill="#edf0f7" stroke="red" stroke-dasharray="5,2" points="166,-19 114,-19 114,0 166,0 166,-19"/>
<text text-anchor="middle" x="140" y="-7" font-family="Helvetica,sans-Serif" font-size="10.00">include</text>
</a>
</g>
</g>
<!-- dir_8b21b1686340a4d26c57e3874d58ae0a&#45;&gt;dir_d0384342543f67451a573d7221124c26 -->
<g id="edge1" class="edge">
<title>dir_8b21b1686340a4d26c57e3874d58ae0a&#45;&gt;dir_d0384342543f67451a573d7221124c26</title>
<path fill="none" stroke="#63b8ff" d="M140,-54.75C140,-47.8 140,-37.85 140,-29.13"/>
<polygon fill="#63b8ff" stroke="#63b8ff" points="143.5,-29.09 140,-19.09 136.5,-29.09 143.5,-29.09"/>
<g id="a_edge1&#45;headlabel"><a xlink:href="dir_000005_000009.html" target="_top" xlink:title="10">
<text text-anchor="middle" x="146.34" y="-30.18" font-family="Helvetica,sans-Serif" font-size="10.00" fill="#63b8ff">10</text>
</a>
</g>
</g>
<!-- dir_be0e4ab4242ac495ab89be60026c5c79 -->
<g id="node2" class="node">
<title>dir_be0e4ab4242ac495ab89be60026c5c79</title>
<g id="a_node2"><a xlink:href="dir_be0e4ab4242ac495ab89be60026c5c79.html" target="_top" xlink:title="device_config">
<polygon fill="#a2b4d6" stroke="#404040" points="107.5,-74 24.5,-74 24.5,-55 107.5,-55 107.5,-74"/>
<text text-anchor="middle" x="66" y="-62" font-family="Helvetica,sans-Serif" font-size="10.00">device_config</text>
</a>
</g>
</g>
<!-- dir_be0e4ab4242ac495ab89be60026c5c79&#45;&gt;dir_d0384342543f67451a573d7221124c26 -->
<g id="edge2" class="edge">
<title>dir_be0e4ab4242ac495ab89be60026c5c79&#45;&gt;dir_d0384342543f67451a573d7221124c26</title>
<path fill="none" stroke="#63b8ff" d="M77.89,-54.98C89.15,-46.92 106.29,-34.65 119.71,-25.03"/>
<polygon fill="#63b8ff" stroke="#63b8ff" points="121.8,-27.84 127.89,-19.17 117.73,-22.15 121.8,-27.84"/>
<g id="a_edge2&#45;headlabel"><a xlink:href="dir_000007_000009.html" target="_top" xlink:title="4">
<text text-anchor="middle" x="120.53" y="-29.74" font-family="Helvetica,sans-Serif" font-size="10.00" fill="#63b8ff">4</text>
</a>
</g>
</g>
<!-- dir_18c4a8bcbab17c297273b4d35b91be79 -->
<g id="node3" class="node">
<title>dir_18c4a8bcbab17c297273b4d35b91be79</title>
<g id="a_node3"><a xlink:href="dir_18c4a8bcbab17c297273b4d35b91be79.html" target="_top" xlink:title="peripherals">
<polygon fill="#a2b4d6" stroke="#404040" points="243.5,-74 172.5,-74 172.5,-55 243.5,-55 243.5,-74"/>
<text text-anchor="middle" x="208" y="-62" font-family="Helvetica,sans-Serif" font-size="10.00">peripherals</text>
</a>
</g>
</g>
<!-- dir_18c4a8bcbab17c297273b4d35b91be79&#45;&gt;dir_d0384342543f67451a573d7221124c26 -->
<g id="edge3" class="edge">
<title>dir_18c4a8bcbab17c297273b4d35b91be79&#45;&gt;dir_d0384342543f67451a573d7221124c26</title>
<path fill="none" stroke="#63b8ff" d="M197.07,-54.98C186.92,-47.07 171.58,-35.11 159.35,-25.58"/>
<polygon fill="#63b8ff" stroke="#63b8ff" points="161.16,-22.56 151.12,-19.17 156.86,-28.08 161.16,-22.56"/>
<g id="a_edge3&#45;headlabel"><a xlink:href="dir_000014_000009.html" target="_top" xlink:title="5">
<text text-anchor="middle" x="165.74" y="-20.03" font-family="Helvetica,sans-Serif" font-size="10.00" fill="#63b8ff">5</text>
</a>
</g>
</g>
<!-- dir_ff0fc4bcb23bb8e139bf6a61d2efec67 -->
<g id="node5" class="node">
<title>dir_ff0fc4bcb23bb8e139bf6a61d2efec67</title>
<g id="a_node5"><a xlink:href="dir_ff0fc4bcb23bb8e139bf6a61d2efec67.html" target="_top" xlink:title="lib">
<polygon fill="#edf0f7" stroke="red" stroke-dasharray="5,2" points="222.5,-19 193.5,-19 193.5,0 222.5,0 222.5,-19"/>
<text text-anchor="middle" x="208" y="-7" font-family="Helvetica,sans-Serif" font-size="10.00">lib</text>
</a>
</g>
</g>
<!-- dir_18c4a8bcbab17c297273b4d35b91be79&#45;&gt;dir_ff0fc4bcb23bb8e139bf6a61d2efec67 -->
<g id="edge4" class="edge">
<title>dir_18c4a8bcbab17c297273b4d35b91be79&#45;&gt;dir_ff0fc4bcb23bb8e139bf6a61d2efec67</title>
<path fill="none" stroke="#63b8ff" d="M208,-54.75C208,-47.8 208,-37.85 208,-29.13"/>
<polygon fill="#63b8ff" stroke="#63b8ff" points="211.5,-29.09 208,-19.09 204.5,-29.09 211.5,-29.09"/>
<g id="a_edge4&#45;headlabel"><a xlink:href="dir_000014_000012.html" target="_top" xlink:title="1">
<text text-anchor="middle" x="214.34" y="-30.18" font-family="Helvetica,sans-Serif" font-size="10.00" fill="#63b8ff">1</text>
</a>
</g>
</g>
</g>
</svg>
