<?xml version="1.0" encoding="UTF-8" standalone="no"?>
<!DOCTYPE svg PUBLIC "-//W3C//DTD SVG 1.1//EN"
 "http://www.w3.org/Graphics/SVG/1.1/DTD/svg11.dtd">
<!-- Generated by graphviz version 2.43.0 (0)
 -->
<!-- Title: firmware/wombat Pages: 1 -->
<svg width="212pt" height="204pt"
 viewBox="0.00 0.00 212.00 204.00" xmlns="http://www.w3.org/2000/svg" xmlns:xlink="http://www.w3.org/1999/xlink">
<g id="graph0" class="graph" transform="scale(1 1) rotate(0) translate(4 200)">
<title>firmware/wombat</title>
<g id="clust1" class="cluster">
<title>clusterdir_d9edf6c004b4a7ff14fe9ae7a92214ee</title>
<g id="a_clust1"><a xlink:href="dir_d9edf6c004b4a7ff14fe9ae7a92214ee.html" target="_top" xlink:title="firmware">
<polygon fill="#edf0f7" stroke="#404040" stroke-dasharray="5,2" points="8,-8 8,-188 196,-188 196,-8 8,-8"/>
<text text-anchor="middle" x="102" y="-176" font-family="Helvetica,sans-Serif" font-size="10.00">firmware</text>
</a>
</g>
</g>
<g id="clust2" class="cluster">
<title>clusterdir_a2666ece60dde946aac962d01f4de38f</title>
<g id="a_clust2"><a xlink:href="dir_a2666ece60dde946aac962d01f4de38f.html" target="_top">
<polygon fill="#edf0f7" stroke="#404040" stroke-width="2" points="16,-16 16,-161 188,-161 188,-16 16,-16"/>
</a>
</g>
</g>
<!-- dir_a2666ece60dde946aac962d01f4de38f -->
<g id="node1" class="node">
<title>dir_a2666ece60dde946aac962d01f4de38f</title>
<text text-anchor="middle" x="152" y="-141" font-family="Helvetica,sans-Serif" font-size="10.00">wombat</text>
</g>
<!-- dir_d0384342543f67451a573d7221124c26 -->
<g id="node2" class="node">
<title>dir_d0384342543f67451a573d7221124c26</title>
<g id="a_node2"><a xlink:href="dir_d0384342543f67451a573d7221124c26.html" target="_top" xlink:title="include">
<polygon fill="#a2b4d6" stroke="#404040" points="130,-98 78,-98 78,-79 130,-79 130,-98"/>
<text text-anchor="middle" x="104" y="-86" font-family="Helvetica,sans-Serif" font-size="10.00">include</text>
</a>
</g>
</g>
<!-- dir_ff0fc4bcb23bb8e139bf6a61d2efec67 -->
<g id="node3" class="node">
<title>dir_ff0fc4bcb23bb8e139bf6a61d2efec67</title>
<g id="a_node3"><a xlink:href="dir_ff0fc4bcb23bb8e139bf6a61d2efec67.html" target="_top" xlink:title="lib">
<polygon fill="#a2b4d6" stroke="#404040" points="118.5,-43 89.5,-43 89.5,-24 118.5,-24 118.5,-43"/>
<text text-anchor="middle" x="104" y="-31" font-family="Helvetica,sans-Serif" font-size="10.00">lib</text>
</a>
</g>
</g>
<!-- dir_d0384342543f67451a573d7221124c26&#45;&gt;dir_ff0fc4bcb23bb8e139bf6a61d2efec67 -->
<g id="edge1" class="edge">
<title>dir_d0384342543f67451a573d7221124c26&#45;&gt;dir_ff0fc4bcb23bb8e139bf6a61d2efec67</title>
<path fill="none" stroke="#63b8ff" d="M104,-78.75C104,-71.8 104,-61.85 104,-53.13"/>
<polygon fill="#63b8ff" stroke="#63b8ff" points="107.5,-53.09 104,-43.09 100.5,-53.09 107.5,-53.09"/>
<g id="a_edge1&#45;headlabel"><a xlink:href="dir_000008_000010.html" target="_top" xlink:title="2">
<text text-anchor="middle" x="110.34" y="-54.18" font-family="Helvetica,sans-Serif" font-size="10.00" fill="#63b8ff">2</text>
</a>
</g>
</g>
<!-- dir_c4551f407b710e4f217220b6cafc2b07 -->
<g id="node4" class="node">
<title>dir_c4551f407b710e4f217220b6cafc2b07</title>
<g id="a_node4"><a xlink:href="dir_c4551f407b710e4f217220b6cafc2b07.html" target="_top" xlink:title="pio">
<polygon fill="#a2b4d6" stroke="#404040" points="106,-153 74,-153 74,-134 106,-134 106,-153"/>
<text text-anchor="middle" x="90" y="-141" font-family="Helvetica,sans-Serif" font-size="10.00">pio</text>
</a>
</g>
</g>
<!-- dir_e79d578d7f85ef1913c57f714dd694b1 -->
<g id="node5" class="node">
<title>dir_e79d578d7f85ef1913c57f714dd694b1</title>
<g id="a_node5"><a xlink:href="dir_e79d578d7f85ef1913c57f714dd694b1.html" target="_top" xlink:title="src">
<polygon fill="#a2b4d6" stroke="#404040" points="55.5,-153 24.5,-153 24.5,-134 55.5,-134 55.5,-153"/>
<text text-anchor="middle" x="40" y="-141" font-family="Helvetica,sans-Serif" font-size="10.00">src</text>
</a>
</g>
</g>
<!-- dir_e79d578d7f85ef1913c57f714dd694b1&#45;&gt;dir_d0384342543f67451a573d7221124c26 -->
<g id="edge2" class="edge">
<title>dir_e79d578d7f85ef1913c57f714dd694b1&#45;&gt;dir_d0384342543f67451a573d7221124c26</title>
<path fill="none" stroke="#63b8ff" d="M50.28,-133.98C59.84,-126.07 74.28,-114.11 85.78,-104.58"/>
<polygon fill="#63b8ff" stroke="#63b8ff" points="88.06,-107.24 93.53,-98.17 83.6,-101.85 88.06,-107.24"/>
<g id="a_edge2&#45;headlabel"><a xlink:href="dir_000019_000008.html" target="_top" xlink:title="108">
<text text-anchor="middle" x="87.1" y="-109.22" font-family="Helvetica,sans-Serif" font-size="10.00" fill="#63b8ff">108</text>
</a>
</g>
</g>
<!-- dir_e79d578d7f85ef1913c57f714dd694b1&#45;&gt;dir_ff0fc4bcb23bb8e139bf6a61d2efec67 -->
<g id="edge3" class="edge">
<title>dir_e79d578d7f85ef1913c57f714dd694b1&#45;&gt;dir_ff0fc4bcb23bb8e139bf6a61d2efec67</title>
<path fill="none" stroke="#63b8ff" d="M55.8,-136.49C82.51,-126.17 134.16,-105.48 139,-98 149.17,-82.27 135.7,-63.38 122.62,-50.31"/>
<polygon fill="#63b8ff" stroke="#63b8ff" points="124.86,-47.61 115.16,-43.35 120.09,-52.73 124.86,-47.61"/>
<g id="a_edge3&#45;headlabel"><a xlink:href="dir_000019_000010.html" target="_top" xlink:title="2">
<text text-anchor="middle" x="129.43" y="-45.48" font-family="Helvetica,sans-Serif" font-size="10.00" fill="#63b8ff">2</text>
</a>
</g>
</g>
<!-- dir_e051cf7aca4824eebfc14c303569f651 -->
<g id="node6" class="node">
<title>dir_e051cf7aca4824eebfc14c303569f651</title>
<g id="a_node6"><a xlink:href="dir_e051cf7aca4824eebfc14c303569f651.html" target="_top" xlink:title="test">
<polygon fill="#a2b4d6" stroke="#404040" points="59.5,-98 24.5,-98 24.5,-79 59.5,-79 59.5,-98"/>
<text text-anchor="middle" x="42" y="-86" font-family="Helvetica,sans-Serif" font-size="10.00">test</text>
</a>
</g>
</g>
<!-- dir_e051cf7aca4824eebfc14c303569f651&#45;&gt;dir_ff0fc4bcb23bb8e139bf6a61d2efec67 -->
<g id="edge4" class="edge">
<title>dir_e051cf7aca4824eebfc14c303569f651&#45;&gt;dir_ff0fc4bcb23bb8e139bf6a61d2efec67</title>
<path fill="none" stroke="#63b8ff" d="M51.96,-78.98C61.13,-71.15 74.94,-59.34 86.03,-49.86"/>
<polygon fill="#63b8ff" stroke="#63b8ff" points="88.53,-52.33 93.86,-43.17 83.98,-47.01 88.53,-52.33"/>
<g id="a_edge4&#45;headlabel"><a xlink:href="dir_000022_000010.html" target="_top" xlink:title="1">
<text text-anchor="middle" x="87.64" y="-54.32" font-family="Helvetica,sans-Serif" font-size="10.00" fill="#63b8ff">1</text>
</a>
</g>
</g>
</g>
</svg>
