<?xml version="1.0" encoding="UTF-8" standalone="no"?>
<!DOCTYPE svg PUBLIC "-//W3C//DTD SVG 1.1//EN"
 "http://www.w3.org/Graphics/SVG/1.1/DTD/svg11.dtd">
<!-- Generated by graphviz version 2.43.0 (0)
 -->
<!-- Title: firmware/wombat/include Pages: 1 -->
<svg width="358pt" height="149pt"
 viewBox="0.00 0.00 358.00 149.00" xmlns="http://www.w3.org/2000/svg" xmlns:xlink="http://www.w3.org/1999/xlink">
<g id="graph0" class="graph" transform="scale(1 1) rotate(0) translate(4 145)">
<title>firmware/wombat/include</title>
<g id="clust1" class="cluster">
<title>clusterdir_a2666ece60dde946aac962d01f4de38f</title>
<g id="a_clust1"><a xlink:href="dir_a2666ece60dde946aac962d01f4de38f.html" target="_top" xlink:title="wombat">
<polygon fill="#edf0f7" stroke="#7f7f7f" stroke-dasharray="5,2" points="8,-8 8,-133 342,-133 342,-8 8,-8"/>
<text text-anchor="middle" x="175" y="-121" font-family="Helvetica,sans-Serif" font-size="10.00">wombat</text>
</a>
</g>
</g>
<g id="clust2" class="cluster">
<title>clusterdir_d0384342543f67451a573d7221124c26</title>
<g id="a_clust2"><a xlink:href="dir_d0384342543f67451a573d7221124c26.html" target="_top">
<polygon fill="#edf0f7" stroke="#404040" stroke-width="2" points="16,-16 16,-106 295,-106 295,-16 16,-16"/>
</a>
</g>
</g>
<!-- dir_ff0fc4bcb23bb8e139bf6a61d2efec67 -->
<g id="node1" class="node">
<title>dir_ff0fc4bcb23bb8e139bf6a61d2efec67</title>
<g id="a_node1"><a xlink:href="dir_ff0fc4bcb23bb8e139bf6a61d2efec67.html" target="_top" xlink:title="lib">
<polygon fill="#a2b4d6" stroke="red" points="333.5,-43 304.5,-43 304.5,-24 333.5,-24 333.5,-43"/>
<text text-anchor="middle" x="319" y="-31" font-family="Helvetica,sans-Serif" font-size="10.00">lib</text>
</a>
</g>
</g>
<!-- dir_d0384342543f67451a573d7221124c26 -->
<g id="node2" class="node">
<title>dir_d0384342543f67451a573d7221124c26</title>
<text text-anchor="middle" x="247" y="-86" font-family="Helvetica,sans-Serif" font-size="10.00">include</text>
</g>
<!-- dir_d0384342543f67451a573d7221124c26&#45;&gt;dir_ff0fc4bcb23bb8e139bf6a61d2efec67 -->
<g id="edge2" class="edge">
<title>dir_d0384342543f67451a573d7221124c26&#45;&gt;dir_ff0fc4bcb23bb8e139bf6a61d2efec67</title>
<path fill="none" stroke="#63b8ff" d="M258.57,-78.98C269.42,-71 285.88,-58.88 298.88,-49.31"/>
<polygon fill="#63b8ff" stroke="#63b8ff" points="301.24,-51.92 307.22,-43.17 297.09,-46.28 301.24,-51.92"/>
<g id="a_edge2&#45;headlabel"><a xlink:href="dir_000008_000010.html" target="_top" xlink:title="1">
<text text-anchor="middle" x="300.03" y="-53.83" font-family="Helvetica,sans-Serif" font-size="10.00" fill="#63b8ff">1</text>
</a>
</g>
</g>
<!-- dir_795fcd320a76291dfae3bd75b770185f -->
<g id="node6" class="node">
<title>dir_795fcd320a76291dfae3bd75b770185f</title>
<g id="a_node6"><a xlink:href="dir_795fcd320a76291dfae3bd75b770185f.html" target="_top" xlink:title="power_monitoring">
<polygon fill="#a2b4d6" stroke="#404040" points="286.5,-43 181.5,-43 181.5,-24 286.5,-24 286.5,-43"/>
<text text-anchor="middle" x="234" y="-31" font-family="Helvetica,sans-Serif" font-size="10.00">power_monitoring</text>
</a>
</g>
</g>
<!-- dir_d0384342543f67451a573d7221124c26&#45;&gt;dir_795fcd320a76291dfae3bd75b770185f -->
<g id="edge1" class="edge">
<title>dir_d0384342543f67451a573d7221124c26&#45;&gt;dir_795fcd320a76291dfae3bd75b770185f</title>
<path fill="none" stroke="#63b8ff" d="M244.85,-78.75C243.13,-71.72 240.65,-61.62 238.5,-52.84"/>
<polygon fill="#63b8ff" stroke="#63b8ff" points="241.89,-51.97 236.11,-43.09 235.09,-53.63 241.89,-51.97"/>
<g id="a_edge1&#45;headlabel"><a xlink:href="dir_000008_000013.html" target="_top" xlink:title="4">
<text text-anchor="middle" x="245.5" y="-52.28" font-family="Helvetica,sans-Serif" font-size="10.00" fill="#63b8ff">4</text>
</a>
</g>
</g>
<!-- dir_d8f8fdfd0d0f9f01e2eafa9bb34eac25 -->
<g id="node3" class="node">
<title>dir_d8f8fdfd0d0f9f01e2eafa9bb34eac25</title>
<g id="a_node3"><a xlink:href="dir_d8f8fdfd0d0f9f01e2eafa9bb34eac25.html" target="_top" xlink:title="audio&#45;feedback">
<polygon fill="#a2b4d6" stroke="#404040" points="116,-43 24,-43 24,-24 116,-24 116,-43"/>
<text text-anchor="middle" x="70" y="-31" font-family="Helvetica,sans-Serif" font-size="10.00">audio&#45;feedback</text>
</a>
</g>
</g>
<!-- dir_409d71445832ade69d0c21a79b91eb7b -->
<g id="node4" class="node">
<title>dir_409d71445832ade69d0c21a79b91eb7b</title>
<g id="a_node4"><a xlink:href="dir_409d71445832ade69d0c21a79b91eb7b.html" target="_top" xlink:title="bluetooth">
<polygon fill="#a2b4d6" stroke="#404040" points="180.5,-98 117.5,-98 117.5,-79 180.5,-79 180.5,-98"/>
<text text-anchor="middle" x="149" y="-86" font-family="Helvetica,sans-Serif" font-size="10.00">bluetooth</text>
</a>
</g>
</g>
<!-- dir_409d71445832ade69d0c21a79b91eb7b&#45;&gt;dir_d8f8fdfd0d0f9f01e2eafa9bb34eac25 -->
<g id="edge5" class="edge">
<title>dir_409d71445832ade69d0c21a79b91eb7b&#45;&gt;dir_d8f8fdfd0d0f9f01e2eafa9bb34eac25</title>
<path fill="none" stroke="#63b8ff" d="M136.31,-78.98C124.17,-70.84 105.64,-58.41 91.25,-48.76"/>
<polygon fill="#63b8ff" stroke="#63b8ff" points="93.18,-45.84 82.92,-43.17 89.28,-51.65 93.18,-45.84"/>
<g id="a_edge5&#45;headlabel"><a xlink:href="dir_000001_000000.html" target="_top" xlink:title="1">
<text text-anchor="middle" x="97.74" y="-42.98" font-family="Helvetica,sans-Serif" font-size="10.00" fill="#63b8ff">1</text>
</a>
</g>
</g>
<!-- dir_0f69594e7335fbbf6400f5fdece5c598 -->
<g id="node5" class="node">
<title>dir_0f69594e7335fbbf6400f5fdece5c598</title>
<g id="a_node5"><a xlink:href="dir_0f69594e7335fbbf6400f5fdece5c598.html" target="_top" xlink:title="cli">
<polygon fill="#a2b4d6" stroke="#404040" points="163.5,-43 134.5,-43 134.5,-24 163.5,-24 163.5,-43"/>
<text text-anchor="middle" x="149" y="-31" font-family="Helvetica,sans-Serif" font-size="10.00">cli</text>
</a>
</g>
</g>
<!-- dir_409d71445832ade69d0c21a79b91eb7b&#45;&gt;dir_0f69594e7335fbbf6400f5fdece5c598 -->
<g id="edge3" class="edge">
<title>dir_409d71445832ade69d0c21a79b91eb7b&#45;&gt;dir_0f69594e7335fbbf6400f5fdece5c598</title>
<path fill="none" stroke="#63b8ff" d="M143.83,-78.75C142.34,-71.8 141.9,-61.85 142.52,-53.13"/>
<polygon fill="#63b8ff" stroke="#63b8ff" points="146.01,-53.47 143.87,-43.09 139.07,-52.53 146.01,-53.47"/>
<g id="a_edge3&#45;headlabel"><a xlink:href="dir_000001_000003.html" target="_top" xlink:title="1">
<text text-anchor="middle" x="148.34" y="-54.91" font-family="Helvetica,sans-Serif" font-size="10.00" fill="#63b8ff">1</text>
</a>
</g>
</g>
<!-- dir_409d71445832ade69d0c21a79b91eb7b&#45;&gt;dir_795fcd320a76291dfae3bd75b770185f -->
<g id="edge4" class="edge">
<title>dir_409d71445832ade69d0c21a79b91eb7b&#45;&gt;dir_795fcd320a76291dfae3bd75b770185f</title>
<path fill="none" stroke="#63b8ff" d="M162.66,-78.98C175.84,-70.77 196.03,-58.18 211.57,-48.49"/>
<polygon fill="#63b8ff" stroke="#63b8ff" points="213.46,-51.43 220.09,-43.17 209.76,-45.49 213.46,-51.43"/>
<g id="a_edge4&#45;headlabel"><a xlink:href="dir_000001_000013.html" target="_top" xlink:title="2">
<text text-anchor="middle" x="211.91" y="-53.24" font-family="Helvetica,sans-Serif" font-size="10.00" fill="#63b8ff">2</text>
</a>
</g>
</g>
<!-- dir_0f69594e7335fbbf6400f5fdece5c598&#45;&gt;dir_409d71445832ade69d0c21a79b91eb7b -->
<g id="edge6" class="edge">
<title>dir_0f69594e7335fbbf6400f5fdece5c598&#45;&gt;dir_409d71445832ade69d0c21a79b91eb7b</title>
<path fill="none" stroke="#63b8ff" d="M154.13,-43.09C155.64,-49.99 156.09,-59.93 155.49,-68.66"/>
<polygon fill="#63b8ff" stroke="#63b8ff" points="152,-68.38 154.17,-78.75 158.94,-69.29 152,-68.38"/>
<g id="a_edge6&#45;headlabel"><a xlink:href="dir_000003_000001.html" target="_top" xlink:title="1">
<text text-anchor="middle" x="149.65" y="-61.94" font-family="Helvetica,sans-Serif" font-size="10.00" fill="#63b8ff">1</text>
</a>
</g>
</g>
<!-- dir_abad8e74a5b9b16e7cdc1a1704968a77 -->
<g id="node7" class="node">
<title>dir_abad8e74a5b9b16e7cdc1a1704968a77</title>
<g id="a_node7"><a xlink:href="dir_abad8e74a5b9b16e7cdc1a1704968a77.html" target="_top" xlink:title="sd&#45;card">
<polygon fill="#a2b4d6" stroke="#404040" points="88.5,-98 35.5,-98 35.5,-79 88.5,-79 88.5,-98"/>
<text text-anchor="middle" x="62" y="-86" font-family="Helvetica,sans-Serif" font-size="10.00">sd&#45;card</text>
</a>
</g>
</g>
</g>
</svg>
