<?xml version="1.0" encoding="UTF-8" standalone="no"?>
<!DOCTYPE svg PUBLIC "-//W3C//DTD SVG 1.1//EN"
 "http://www.w3.org/Graphics/SVG/1.1/DTD/svg11.dtd">
<!-- Generated by graphviz version 2.43.0 (0)
 -->
<!-- Title: firmware/wombat/src Pages: 1 -->
<svg width="410pt" height="141pt"
 viewBox="0.00 0.00 410.00 141.00" xmlns="http://www.w3.org/2000/svg" xmlns:xlink="http://www.w3.org/1999/xlink">
<g id="graph0" class="graph" transform="scale(1 1) rotate(0) translate(4 137)">
<title>firmware/wombat/src</title>
<g id="clust1" class="cluster">
<title>clusterdir_a2666ece60dde946aac962d01f4de38f</title>
<g id="a_clust1"><a xlink:href="dir_a2666ece60dde946aac962d01f4de38f.html" target="_top" xlink:title="wombat">
<polygon fill="#edf0f7" stroke="#7f7f7f" stroke-dasharray="5,2" points="8,-8 8,-125 394,-125 394,-8 8,-8"/>
<text text-anchor="middle" x="201" y="-113" font-family="Helvetica,sans-Serif" font-size="10.00">wombat</text>
</a>
</g>
</g>
<g id="clust2" class="cluster">
<title>clusterdir_e79d578d7f85ef1913c57f714dd694b1</title>
<g id="a_clust2"><a xlink:href="dir_e79d578d7f85ef1913c57f714dd694b1.html" target="_top">
<polygon fill="#edf0f7" stroke="#404040" stroke-width="2" points="16,-63 16,-98 386,-98 386,-63 16,-63"/>
</a>
</g>
</g>
<!-- dir_d0384342543f67451a573d7221124c26 -->
<g id="node1" class="node">
<title>dir_d0384342543f67451a573d7221124c26</title>
<g id="a_node1"><a xlink:href="dir_d0384342543f67451a573d7221124c26.html" target="_top" xlink:title="include">
<polygon fill="#a2b4d6" stroke="red" points="276,-35 224,-35 224,-16 276,-16 276,-35"/>
<text text-anchor="middle" x="250" y="-23" font-family="Helvetica,sans-Serif" font-size="10.00">include</text>
</a>
</g>
</g>
<!-- dir_ff0fc4bcb23bb8e139bf6a61d2efec67 -->
<g id="node2" class="node">
<title>dir_ff0fc4bcb23bb8e139bf6a61d2efec67</title>
<g id="a_node2"><a xlink:href="dir_ff0fc4bcb23bb8e139bf6a61d2efec67.html" target="_top" xlink:title="lib">
<polygon fill="#a2b4d6" stroke="red" points="353.5,-35 324.5,-35 324.5,-16 353.5,-16 353.5,-35"/>
<text text-anchor="middle" x="339" y="-23" font-family="Helvetica,sans-Serif" font-size="10.00">lib</text>
</a>
</g>
</g>
<!-- dir_e79d578d7f85ef1913c57f714dd694b1 -->
<g id="node3" class="node">
<title>dir_e79d578d7f85ef1913c57f714dd694b1</title>
<text text-anchor="middle" x="315" y="-78" font-family="Helvetica,sans-Serif" font-size="10.00">src</text>
</g>
<!-- dir_e79d578d7f85ef1913c57f714dd694b1&#45;&gt;dir_d0384342543f67451a573d7221124c26 -->
<g id="edge1" class="edge">
<title>dir_e79d578d7f85ef1913c57f714dd694b1&#45;&gt;dir_d0384342543f67451a573d7221124c26</title>
<path fill="none" stroke="#63b8ff" d="M304.56,-70.98C294.85,-63.07 280.18,-51.11 268.5,-41.58"/>
<polygon fill="#63b8ff" stroke="#63b8ff" points="270.6,-38.78 260.63,-35.17 266.17,-44.2 270.6,-38.78"/>
<g id="a_edge1&#45;headlabel"><a xlink:href="dir_000020_000009.html" target="_top" xlink:title="47">
<text text-anchor="middle" x="275.18" y="-36.35" font-family="Helvetica,sans-Serif" font-size="10.00" fill="#63b8ff">47</text>
</a>
</g>
</g>
<!-- dir_e79d578d7f85ef1913c57f714dd694b1&#45;&gt;dir_ff0fc4bcb23bb8e139bf6a61d2efec67 -->
<g id="edge2" class="edge">
<title>dir_e79d578d7f85ef1913c57f714dd694b1&#45;&gt;dir_ff0fc4bcb23bb8e139bf6a61d2efec67</title>
<path fill="none" stroke="#63b8ff" d="M318.96,-70.75C322.21,-63.57 326.92,-53.18 330.95,-44.27"/>
<polygon fill="#63b8ff" stroke="#63b8ff" points="334.17,-45.64 335.11,-35.09 327.8,-42.75 334.17,-45.64"/>
<g id="a_edge2&#45;headlabel"><a xlink:href="dir_000020_000012.html" target="_top" xlink:title="5">
<text text-anchor="middle" x="335.28" y="-47.59" font-family="Helvetica,sans-Serif" font-size="10.00" fill="#63b8ff">5</text>
</a>
</g>
</g>
<!-- dir_c4a3c4206a806711287a7574c3e31684 -->
<g id="node4" class="node">
<title>dir_c4a3c4206a806711287a7574c3e31684</title>
<g id="a_node4"><a xlink:href="dir_c4a3c4206a806711287a7574c3e31684.html" target="_top" xlink:title="bluetooth">
<polygon fill="#a2b4d6" stroke="#404040" points="281.5,-90 218.5,-90 218.5,-71 281.5,-71 281.5,-90"/>
<text text-anchor="middle" x="250" y="-78" font-family="Helvetica,sans-Serif" font-size="10.00">bluetooth</text>
</a>
</g>
</g>
<!-- dir_c4a3c4206a806711287a7574c3e31684&#45;&gt;dir_d0384342543f67451a573d7221124c26 -->
<g id="edge3" class="edge">
<title>dir_c4a3c4206a806711287a7574c3e31684&#45;&gt;dir_d0384342543f67451a573d7221124c26</title>
<path fill="none" stroke="#63b8ff" d="M250,-70.75C250,-63.8 250,-53.85 250,-45.13"/>
<polygon fill="#63b8ff" stroke="#63b8ff" points="253.5,-45.09 250,-35.09 246.5,-45.09 253.5,-45.09"/>
<g id="a_edge3&#45;headlabel"><a xlink:href="dir_000002_000009.html" target="_top" xlink:title="5">
<text text-anchor="middle" x="256.34" y="-46.18" font-family="Helvetica,sans-Serif" font-size="10.00" fill="#63b8ff">5</text>
</a>
</g>
</g>
<!-- dir_8b21b1686340a4d26c57e3874d58ae0a -->
<g id="node5" class="node">
<title>dir_8b21b1686340a4d26c57e3874d58ae0a</title>
<g id="a_node5"><a xlink:href="dir_8b21b1686340a4d26c57e3874d58ae0a.html" target="_top" xlink:title="cli">
<polygon fill="#a2b4d6" stroke="#404040" points="377.5,-90 348.5,-90 348.5,-71 377.5,-71 377.5,-90"/>
<text text-anchor="middle" x="363" y="-78" font-family="Helvetica,sans-Serif" font-size="10.00">cli</text>
</a>
</g>
</g>
<!-- dir_8b21b1686340a4d26c57e3874d58ae0a&#45;&gt;dir_d0384342543f67451a573d7221124c26 -->
<g id="edge4" class="edge">
<title>dir_8b21b1686340a4d26c57e3874d58ae0a&#45;&gt;dir_d0384342543f67451a573d7221124c26</title>
<path fill="none" stroke="#63b8ff" d="M352.12,-70.89C348.4,-68.17 344.13,-65.28 340,-63 322.6,-53.41 302.14,-44.91 285.13,-38.53"/>
<polygon fill="#63b8ff" stroke="#63b8ff" points="286.16,-35.18 275.56,-35.03 283.75,-41.76 286.16,-35.18"/>
<g id="a_edge4&#45;headlabel"><a xlink:href="dir_000005_000009.html" target="_top" xlink:title="9">
<text text-anchor="middle" x="290.51" y="-31.25" font-family="Helvetica,sans-Serif" font-size="10.00" fill="#63b8ff">9</text>
</a>
</g>
</g>
<!-- dir_8b21b1686340a4d26c57e3874d58ae0a&#45;&gt;dir_ff0fc4bcb23bb8e139bf6a61d2efec67 -->
<g id="edge5" class="edge">
<title>dir_8b21b1686340a4d26c57e3874d58ae0a&#45;&gt;dir_ff0fc4bcb23bb8e139bf6a61d2efec67</title>
<path fill="none" stroke="#63b8ff" d="M359.04,-70.75C355.79,-63.57 351.08,-53.18 347.05,-44.27"/>
<polygon fill="#63b8ff" stroke="#63b8ff" points="350.2,-42.75 342.89,-35.09 343.83,-45.64 350.2,-42.75"/>
<g id="a_edge5&#45;headlabel"><a xlink:href="dir_000005_000012.html" target="_top" xlink:title="1">
<text text-anchor="middle" x="354.27" y="-42.36" font-family="Helvetica,sans-Serif" font-size="10.00" fill="#63b8ff">1</text>
</a>
</g>
</g>
<!-- dir_d5c313604f7a8e28963faab8116c1a9c -->
<g id="node6" class="node">
<title>dir_d5c313604f7a8e28963faab8116c1a9c</title>
<g id="a_node6"><a xlink:href="dir_d5c313604f7a8e28963faab8116c1a9c.html" target="_top" xlink:title="power_monitoring">
<polygon fill="#a2b4d6" stroke="#404040" points="129.5,-90 24.5,-90 24.5,-71 129.5,-71 129.5,-90"/>
<text text-anchor="middle" x="77" y="-78" font-family="Helvetica,sans-Serif" font-size="10.00">power_monitoring</text>
</a>
</g>
</g>
<!-- dir_d5c313604f7a8e28963faab8116c1a9c&#45;&gt;dir_d0384342543f67451a573d7221124c26 -->
<g id="edge6" class="edge">
<title>dir_d5c313604f7a8e28963faab8116c1a9c&#45;&gt;dir_d0384342543f67451a573d7221124c26</title>
<path fill="none" stroke="#63b8ff" d="M104.8,-70.98C134.57,-61.86 181.92,-47.36 214.4,-37.41"/>
<polygon fill="#63b8ff" stroke="#63b8ff" points="215.44,-40.75 223.97,-34.47 213.38,-34.06 215.44,-40.75"/>
<g id="a_edge6&#45;headlabel"><a xlink:href="dir_000016_000009.html" target="_top" xlink:title="2">
<text text-anchor="middle" x="212.83" y="-42.02" font-family="Helvetica,sans-Serif" font-size="10.00" fill="#63b8ff">2</text>
</a>
</g>
</g>
<!-- dir_3334e6296d4872ad5c54f757af9ece9d -->
<g id="node7" class="node">
<title>dir_3334e6296d4872ad5c54f757af9ece9d</title>
<g id="a_node7"><a xlink:href="dir_3334e6296d4872ad5c54f757af9ece9d.html" target="_top" xlink:title="sd&#45;card">
<polygon fill="#a2b4d6" stroke="#404040" points="200.5,-90 147.5,-90 147.5,-71 200.5,-71 200.5,-90"/>
<text text-anchor="middle" x="174" y="-78" font-family="Helvetica,sans-Serif" font-size="10.00">sd&#45;card</text>
</a>
</g>
</g>
<!-- dir_3334e6296d4872ad5c54f757af9ece9d&#45;&gt;dir_d0384342543f67451a573d7221124c26 -->
<g id="edge7" class="edge">
<title>dir_3334e6296d4872ad5c54f757af9ece9d&#45;&gt;dir_d0384342543f67451a573d7221124c26</title>
<path fill="none" stroke="#63b8ff" d="M186.21,-70.98C197.78,-62.92 215.38,-50.65 229.16,-41.03"/>
<polygon fill="#63b8ff" stroke="#63b8ff" points="231.37,-43.76 237.57,-35.17 227.36,-38.02 231.37,-43.76"/>
<g id="a_edge7&#45;headlabel"><a xlink:href="dir_000018_000009.html" target="_top" xlink:title="1">
<text text-anchor="middle" x="230.04" y="-45.65" font-family="Helvetica,sans-Serif" font-size="10.00" fill="#63b8ff">1</text>
</a>
</g>
</g>
</g>
</svg>
