<?xml version="1.0" encoding="UTF-8" standalone="no"?>
<!DOCTYPE svg PUBLIC "-//W3C//DTD SVG 1.1//EN"
 "http://www.w3.org/Graphics/SVG/1.1/DTD/svg11.dtd">
<!-- Generated by graphviz version 2.43.0 (0)
 -->
<!-- Title: firmware/wombat Pages: 1 -->
<svg width="215pt" height="204pt"
 viewBox="0.00 0.00 215.00 204.00" xmlns="http://www.w3.org/2000/svg" xmlns:xlink="http://www.w3.org/1999/xlink">
<g id="graph0" class="graph" transform="scale(1 1) rotate(0) translate(4 200)">
<title>firmware/wombat</title>
<g id="clust1" class="cluster">
<title>clusterdir_d9edf6c004b4a7ff14fe9ae7a92214ee</title>
<g id="a_clust1"><a xlink:href="dir_d9edf6c004b4a7ff14fe9ae7a92214ee.html" target="_top" xlink:title="firmware">
<polygon fill="#edf0f7" stroke="#404040" stroke-dasharray="5,2" points="8,-8 8,-188 199,-188 199,-8 8,-8"/>
<text text-anchor="middle" x="103.5" y="-176" font-family="Helvetica,sans-Serif" font-size="10.00">firmware</text>
</a>
</g>
</g>
<g id="clust2" class="cluster">
<title>clusterdir_a2666ece60dde946aac962d01f4de38f</title>
<g id="a_clust2"><a xlink:href="dir_a2666ece60dde946aac962d01f4de38f.html" target="_top">
<polygon fill="#edf0f7" stroke="#404040" stroke-width="2" points="16,-16 16,-161 191,-161 191,-16 16,-16"/>
</a>
</g>
</g>
<!-- dir_a2666ece60dde946aac962d01f4de38f -->
<g id="node1" class="node">
<title>dir_a2666ece60dde946aac962d01f4de38f</title>
<text text-anchor="middle" x="155" y="-141" font-family="Helvetica,sans-Serif" font-size="10.00">wombat</text>
</g>
<!-- dir_d0384342543f67451a573d7221124c26 -->
<g id="node2" class="node">
<title>dir_d0384342543f67451a573d7221124c26</title>
<g id="a_node2"><a xlink:href="dir_d0384342543f67451a573d7221124c26.html" target="_top" xlink:title="include">
<polygon fill="#a2b4d6" stroke="#404040" points="76,-98 24,-98 24,-79 76,-79 76,-98"/>
<text text-anchor="middle" x="50" y="-86" font-family="Helvetica,sans-Serif" font-size="10.00">include</text>
</a>
</g>
</g>
<!-- dir_ff0fc4bcb23bb8e139bf6a61d2efec67 -->
<g id="node3" class="node">
<title>dir_ff0fc4bcb23bb8e139bf6a61d2efec67</title>
<g id="a_node3"><a xlink:href="dir_ff0fc4bcb23bb8e139bf6a61d2efec67.html" target="_top" xlink:title="lib">
<polygon fill="#a2b4d6" stroke="#404040" points="86.5,-43 57.5,-43 57.5,-24 86.5,-24 86.5,-43"/>
<text text-anchor="middle" x="72" y="-31" font-family="Helvetica,sans-Serif" font-size="10.00">lib</text>
</a>
</g>
</g>
<!-- dir_d0384342543f67451a573d7221124c26&#45;&gt;dir_ff0fc4bcb23bb8e139bf6a61d2efec67 -->
<g id="edge1" class="edge">
<title>dir_d0384342543f67451a573d7221124c26&#45;&gt;dir_ff0fc4bcb23bb8e139bf6a61d2efec67</title>
<path fill="none" stroke="#63b8ff" d="M53.63,-78.75C56.58,-71.65 60.83,-61.4 64.51,-52.56"/>
<polygon fill="#63b8ff" stroke="#63b8ff" points="67.83,-53.67 68.43,-43.09 61.37,-50.98 67.83,-53.67"/>
<g id="a_edge1&#45;headlabel"><a xlink:href="dir_000009_000012.html" target="_top" xlink:title="2">
<text text-anchor="middle" x="69.08" y="-55.58" font-family="Helvetica,sans-Serif" font-size="10.00" fill="#63b8ff">2</text>
</a>
</g>
</g>
<!-- dir_e79d578d7f85ef1913c57f714dd694b1 -->
<g id="node4" class="node">
<title>dir_e79d578d7f85ef1913c57f714dd694b1</title>
<g id="a_node4"><a xlink:href="dir_e79d578d7f85ef1913c57f714dd694b1.html" target="_top" xlink:title="src">
<polygon fill="#a2b4d6" stroke="#404040" points="108.5,-153 77.5,-153 77.5,-134 108.5,-134 108.5,-153"/>
<text text-anchor="middle" x="93" y="-141" font-family="Helvetica,sans-Serif" font-size="10.00">src</text>
</a>
</g>
</g>
<!-- dir_e79d578d7f85ef1913c57f714dd694b1&#45;&gt;dir_d0384342543f67451a573d7221124c26 -->
<g id="edge2" class="edge">
<title>dir_e79d578d7f85ef1913c57f714dd694b1&#45;&gt;dir_d0384342543f67451a573d7221124c26</title>
<path fill="none" stroke="#63b8ff" d="M85.9,-133.75C79.83,-126.26 70.91,-115.28 63.49,-106.13"/>
<polygon fill="#63b8ff" stroke="#63b8ff" points="65.99,-103.65 56.97,-98.09 60.55,-108.06 65.99,-103.65"/>
<g id="a_edge2&#45;headlabel"><a xlink:href="dir_000020_000009.html" target="_top" xlink:title="51">
<text text-anchor="middle" x="70.46" y="-102.15" font-family="Helvetica,sans-Serif" font-size="10.00" fill="#63b8ff">51</text>
</a>
</g>
</g>
<!-- dir_e79d578d7f85ef1913c57f714dd694b1&#45;&gt;dir_ff0fc4bcb23bb8e139bf6a61d2efec67 -->
<g id="edge3" class="edge">
<title>dir_e79d578d7f85ef1913c57f714dd694b1&#45;&gt;dir_ff0fc4bcb23bb8e139bf6a61d2efec67</title>
<path fill="none" stroke="#63b8ff" d="M92.34,-133.8C91.32,-121.5 89.02,-98.37 85,-79 83.2,-70.33 80.55,-60.9 78.11,-52.95"/>
<polygon fill="#63b8ff" stroke="#63b8ff" points="81.39,-51.72 75.01,-43.26 74.72,-53.85 81.39,-51.72"/>
<g id="a_edge3&#45;headlabel"><a xlink:href="dir_000020_000012.html" target="_top" xlink:title="5">
<text text-anchor="middle" x="85.18" y="-51.78" font-family="Helvetica,sans-Serif" font-size="10.00" fill="#63b8ff">5</text>
</a>
</g>
</g>
<!-- dir_e051cf7aca4824eebfc14c303569f651 -->
<g id="node5" class="node">
<title>dir_e051cf7aca4824eebfc14c303569f651</title>
<g id="a_node5"><a xlink:href="dir_e051cf7aca4824eebfc14c303569f651.html" target="_top" xlink:title="test">
<polygon fill="#a2b4d6" stroke="#404040" points="59.5,-153 24.5,-153 24.5,-134 59.5,-134 59.5,-153"/>
<text text-anchor="middle" x="42" y="-141" font-family="Helvetica,sans-Serif" font-size="10.00">test</text>
</a>
</g>
</g>
<!-- dir_e051cf7aca4824eebfc14c303569f651&#45;&gt;dir_d0384342543f67451a573d7221124c26 -->
<g id="edge4" class="edge">
<title>dir_e051cf7aca4824eebfc14c303569f651&#45;&gt;dir_d0384342543f67451a573d7221124c26</title>
<path fill="none" stroke="#63b8ff" d="M43.32,-133.75C44.37,-126.8 45.87,-116.85 47.19,-108.13"/>
<polygon fill="#63b8ff" stroke="#63b8ff" points="50.67,-108.5 48.7,-98.09 43.75,-107.45 50.67,-108.5"/>
<g id="a_edge4&#45;headlabel"><a xlink:href="dir_000022_000009.html" target="_top" xlink:title="1">
<text text-anchor="middle" x="52.94" y="-109.98" font-family="Helvetica,sans-Serif" font-size="10.00" fill="#63b8ff">1</text>
</a>
</g>
</g>
</g>
</svg>
