<?xml version="1.0" encoding="UTF-8" standalone="no"?>
<!DOCTYPE svg PUBLIC "-//W3C//DTD SVG 1.1//EN"
 "http://www.w3.org/Graphics/SVG/1.1/DTD/svg11.dtd">
<!-- Generated by graphviz version 2.43.0 (0)
 -->
<!-- Title: firmware/wombat/src/cli Pages: 1 -->
<svg width="276pt" height="125pt"
 viewBox="0.00 0.00 276.00 125.00" xmlns="http://www.w3.org/2000/svg" xmlns:xlink="http://www.w3.org/1999/xlink">
<g id="graph0" class="graph" transform="scale(1 1) rotate(0) translate(4 121)">
<title>firmware/wombat/src/cli</title>
<g id="clust1" class="cluster">
<title>clusterdir_e79d578d7f85ef1913c57f714dd694b1</title>
<g id="a_clust1"><a xlink:href="dir_e79d578d7f85ef1913c57f714dd694b1.html" target="_top" xlink:title="src">
<polygon fill="#edf0f7" stroke="#7f7f7f" stroke-dasharray="5,2" points="8,-39 8,-109 260,-109 260,-39 8,-39"/>
<text text-anchor="middle" x="134" y="-97" font-family="Helvetica,sans-Serif" font-size="10.00">src</text>
</a>
</g>
</g>
<g id="clust2" class="cluster">
<title>clusterdir_8b21b1686340a4d26c57e3874d58ae0a</title>
<g id="a_clust2"><a xlink:href="dir_8b21b1686340a4d26c57e3874d58ae0a.html" target="_top">
<polygon fill="#edf0f7" stroke="#404040" stroke-width="2" points="16,-47 16,-82 252,-82 252,-47 16,-47"/>
</a>
</g>
</g>
<!-- dir_8b21b1686340a4d26c57e3874d58ae0a -->
<g id="node1" class="node">
<title>dir_8b21b1686340a4d26c57e3874d58ae0a</title>
<text text-anchor="middle" x="229" y="-62" font-family="Helvetica,sans-Serif" font-size="10.00">cli</text>
</g>
<!-- dir_d0384342543f67451a573d7221124c26 -->
<g id="node4" class="node">
<title>dir_d0384342543f67451a573d7221124c26</title>
<g id="a_node4"><a xlink:href="dir_d0384342543f67451a573d7221124c26.html" target="_top" xlink:title="include">
<polygon fill="#edf0f7" stroke="red" stroke-dasharray="5,2" points="181,-19 129,-19 129,0 181,0 181,-19"/>
<text text-anchor="middle" x="155" y="-7" font-family="Helvetica,sans-Serif" font-size="10.00">include</text>
</a>
</g>
</g>
<!-- dir_8b21b1686340a4d26c57e3874d58ae0a&#45;&gt;dir_d0384342543f67451a573d7221124c26 -->
<g id="edge1" class="edge">
<title>dir_8b21b1686340a4d26c57e3874d58ae0a&#45;&gt;dir_d0384342543f67451a573d7221124c26</title>
<path fill="none" stroke="#63b8ff" d="M221.91,-54.7C217.63,-49.72 211.88,-43.6 206,-39 198.88,-33.43 190.53,-28.29 182.68,-23.95"/>
<polygon fill="#63b8ff" stroke="#63b8ff" points="184.27,-20.83 173.79,-19.24 180.99,-27.01 184.27,-20.83"/>
<g id="a_edge1&#45;headlabel"><a xlink:href="dir_000004_000010.html" target="_top" xlink:title="29">
<text text-anchor="middle" x="188.77" y="-17.5" font-family="Helvetica,sans-Serif" font-size="10.00" fill="#63b8ff">29</text>
</a>
</g>
</g>
<!-- dir_be0e4ab4242ac495ab89be60026c5c79 -->
<g id="node2" class="node">
<title>dir_be0e4ab4242ac495ab89be60026c5c79</title>
<g id="a_node2"><a xlink:href="dir_be0e4ab4242ac495ab89be60026c5c79.html" target="_top" xlink:title="device_config">
<polygon fill="#a2b4d6" stroke="#404040" points="196.5,-74 113.5,-74 113.5,-55 196.5,-55 196.5,-74"/>
<text text-anchor="middle" x="155" y="-62" font-family="Helvetica,sans-Serif" font-size="10.00">device_config</text>
</a>
</g>
</g>
<!-- dir_be0e4ab4242ac495ab89be60026c5c79&#45;&gt;dir_d0384342543f67451a573d7221124c26 -->
<g id="edge2" class="edge">
<title>dir_be0e4ab4242ac495ab89be60026c5c79&#45;&gt;dir_d0384342543f67451a573d7221124c26</title>
<path fill="none" stroke="#63b8ff" d="M155,-54.75C155,-47.8 155,-37.85 155,-29.13"/>
<polygon fill="#63b8ff" stroke="#63b8ff" points="158.5,-29.09 155,-19.09 151.5,-29.09 158.5,-29.09"/>
<g id="a_edge2&#45;headlabel"><a xlink:href="dir_000006_000010.html" target="_top" xlink:title="16">
<text text-anchor="middle" x="161.34" y="-30.18" font-family="Helvetica,sans-Serif" font-size="10.00" fill="#63b8ff">16</text>
</a>
</g>
</g>
<!-- dir_18c4a8bcbab17c297273b4d35b91be79 -->
<g id="node3" class="node">
<title>dir_18c4a8bcbab17c297273b4d35b91be79</title>
<g id="a_node3"><a xlink:href="dir_18c4a8bcbab17c297273b4d35b91be79.html" target="_top" xlink:title="peripherals">
<polygon fill="#a2b4d6" stroke="#404040" points="95.5,-74 24.5,-74 24.5,-55 95.5,-55 95.5,-74"/>
<text text-anchor="middle" x="60" y="-62" font-family="Helvetica,sans-Serif" font-size="10.00">peripherals</text>
</a>
</g>
</g>
<!-- dir_18c4a8bcbab17c297273b4d35b91be79&#45;&gt;dir_d0384342543f67451a573d7221124c26 -->
<g id="edge3" class="edge">
<title>dir_18c4a8bcbab17c297273b4d35b91be79&#45;&gt;dir_d0384342543f67451a573d7221124c26</title>
<path fill="none" stroke="#63b8ff" d="M75.26,-54.98C90.13,-46.69 112.98,-33.94 130.42,-24.22"/>
<polygon fill="#63b8ff" stroke="#63b8ff" points="132.43,-27.1 139.46,-19.17 129.02,-20.99 132.43,-27.1"/>
<g id="a_edge3&#45;headlabel"><a xlink:href="dir_000015_000010.html" target="_top" xlink:title="12">
<text text-anchor="middle" x="130.68" y="-28.83" font-family="Helvetica,sans-Serif" font-size="10.00" fill="#63b8ff">12</text>
</a>
</g>
</g>
</g>
</svg>
