<?xml version="1.0" encoding="UTF-8" standalone="no"?>
<!DOCTYPE svg PUBLIC "-//W3C//DTD SVG 1.1//EN"
 "http://www.w3.org/Graphics/SVG/1.1/DTD/svg11.dtd">
<!-- Generated by graphviz version 2.43.0 (0)
 -->
<!-- Title: firmware/wombat/src Pages: 1 -->
<svg width="329pt" height="141pt"
 viewBox="0.00 0.00 329.00 141.00" xmlns="http://www.w3.org/2000/svg" xmlns:xlink="http://www.w3.org/1999/xlink">
<g id="graph0" class="graph" transform="scale(1 1) rotate(0) translate(4 137)">
<title>firmware/wombat/src</title>
<g id="clust1" class="cluster">
<title>clusterdir_a2666ece60dde946aac962d01f4de38f</title>
<g id="a_clust1"><a xlink:href="dir_a2666ece60dde946aac962d01f4de38f.html" target="_top" xlink:title="wombat">
<polygon fill="#edf0f7" stroke="#7f7f7f" stroke-dasharray="5,2" points="8,-8 8,-125 313,-125 313,-8 8,-8"/>
<text text-anchor="middle" x="160.5" y="-113" font-family="Helvetica,sans-Serif" font-size="10.00">wombat</text>
</a>
</g>
</g>
<g id="clust2" class="cluster">
<title>clusterdir_e79d578d7f85ef1913c57f714dd694b1</title>
<g id="a_clust2"><a xlink:href="dir_e79d578d7f85ef1913c57f714dd694b1.html" target="_top">
<polygon fill="#edf0f7" stroke="#404040" stroke-width="2" points="16,-63 16,-98 305,-98 305,-63 16,-63"/>
</a>
</g>
</g>
<!-- dir_d0384342543f67451a573d7221124c26 -->
<g id="node1" class="node">
<title>dir_d0384342543f67451a573d7221124c26</title>
<g id="a_node1"><a xlink:href="dir_d0384342543f67451a573d7221124c26.html" target="_top" xlink:title="include">
<polygon fill="#a2b4d6" stroke="red" points="211,-35 159,-35 159,-16 211,-16 211,-35"/>
<text text-anchor="middle" x="185" y="-23" font-family="Helvetica,sans-Serif" font-size="10.00">include</text>
</a>
</g>
</g>
<!-- dir_ff0fc4bcb23bb8e139bf6a61d2efec67 -->
<g id="node2" class="node">
<title>dir_ff0fc4bcb23bb8e139bf6a61d2efec67</title>
<g id="a_node2"><a xlink:href="dir_ff0fc4bcb23bb8e139bf6a61d2efec67.html" target="_top" xlink:title="lib">
<polygon fill="#a2b4d6" stroke="red" points="295.5,-35 266.5,-35 266.5,-16 295.5,-16 295.5,-35"/>
<text text-anchor="middle" x="281" y="-23" font-family="Helvetica,sans-Serif" font-size="10.00">lib</text>
</a>
</g>
</g>
<!-- dir_e79d578d7f85ef1913c57f714dd694b1 -->
<g id="node3" class="node">
<title>dir_e79d578d7f85ef1913c57f714dd694b1</title>
<text text-anchor="middle" x="281" y="-78" font-family="Helvetica,sans-Serif" font-size="10.00">src</text>
</g>
<!-- dir_e79d578d7f85ef1913c57f714dd694b1&#45;&gt;dir_d0384342543f67451a573d7221124c26 -->
<g id="edge1" class="edge">
<title>dir_e79d578d7f85ef1913c57f714dd694b1&#45;&gt;dir_d0384342543f67451a573d7221124c26</title>
<path fill="none" stroke="#63b8ff" d="M269,-70.78C265.22,-68.17 261,-65.37 257,-63 242.84,-54.6 226.51,-46.22 212.99,-39.61"/>
<polygon fill="#63b8ff" stroke="#63b8ff" points="214.24,-36.33 203.71,-35.14 211.2,-42.63 214.24,-36.33"/>
<g id="a_edge1&#45;headlabel"><a xlink:href="dir_000019_000008.html" target="_top" xlink:title="83">
<text text-anchor="middle" x="218.71" y="-32.83" font-family="Helvetica,sans-Serif" font-size="10.00" fill="#63b8ff">83</text>
</a>
</g>
</g>
<!-- dir_e79d578d7f85ef1913c57f714dd694b1&#45;&gt;dir_ff0fc4bcb23bb8e139bf6a61d2efec67 -->
<g id="edge2" class="edge">
<title>dir_e79d578d7f85ef1913c57f714dd694b1&#45;&gt;dir_ff0fc4bcb23bb8e139bf6a61d2efec67</title>
<path fill="none" stroke="#63b8ff" d="M281,-70.75C281,-63.8 281,-53.85 281,-45.13"/>
<polygon fill="#63b8ff" stroke="#63b8ff" points="284.5,-45.09 281,-35.09 277.5,-45.09 284.5,-45.09"/>
<g id="a_edge2&#45;headlabel"><a xlink:href="dir_000019_000010.html" target="_top" xlink:title="2">
<text text-anchor="middle" x="287.34" y="-46.18" font-family="Helvetica,sans-Serif" font-size="10.00" fill="#63b8ff">2</text>
</a>
</g>
</g>
<!-- dir_8b21b1686340a4d26c57e3874d58ae0a -->
<g id="node4" class="node">
<title>dir_8b21b1686340a4d26c57e3874d58ae0a</title>
<g id="a_node4"><a xlink:href="dir_8b21b1686340a4d26c57e3874d58ae0a.html" target="_top" xlink:title="cli">
<polygon fill="#a2b4d6" stroke="#404040" points="247.5,-90 218.5,-90 218.5,-71 247.5,-71 247.5,-90"/>
<text text-anchor="middle" x="233" y="-78" font-family="Helvetica,sans-Serif" font-size="10.00">cli</text>
</a>
</g>
</g>
<!-- dir_8b21b1686340a4d26c57e3874d58ae0a&#45;&gt;dir_d0384342543f67451a573d7221124c26 -->
<g id="edge3" class="edge">
<title>dir_8b21b1686340a4d26c57e3874d58ae0a&#45;&gt;dir_d0384342543f67451a573d7221124c26</title>
<path fill="none" stroke="#63b8ff" d="M225.07,-70.75C218.15,-63.11 207.93,-51.82 199.55,-42.56"/>
<polygon fill="#63b8ff" stroke="#63b8ff" points="202.09,-40.15 192.78,-35.09 196.9,-44.85 202.09,-40.15"/>
<g id="a_edge3&#45;headlabel"><a xlink:href="dir_000002_000008.html" target="_top" xlink:title="29">
<text text-anchor="middle" x="206.6" y="-38.41" font-family="Helvetica,sans-Serif" font-size="10.00" fill="#63b8ff">29</text>
</a>
</g>
</g>
<!-- dir_d5c313604f7a8e28963faab8116c1a9c -->
<g id="node5" class="node">
<title>dir_d5c313604f7a8e28963faab8116c1a9c</title>
<g id="a_node5"><a xlink:href="dir_d5c313604f7a8e28963faab8116c1a9c.html" target="_top" xlink:title="power_monitoring">
<polygon fill="#a2b4d6" stroke="#404040" points="200.5,-90 95.5,-90 95.5,-71 200.5,-71 200.5,-90"/>
<text text-anchor="middle" x="148" y="-78" font-family="Helvetica,sans-Serif" font-size="10.00">power_monitoring</text>
</a>
</g>
</g>
<!-- dir_d5c313604f7a8e28963faab8116c1a9c&#45;&gt;dir_d0384342543f67451a573d7221124c26 -->
<g id="edge4" class="edge">
<title>dir_d5c313604f7a8e28963faab8116c1a9c&#45;&gt;dir_d0384342543f67451a573d7221124c26</title>
<path fill="none" stroke="#63b8ff" d="M154.11,-70.75C159.28,-63.34 166.85,-52.5 173.19,-43.41"/>
<polygon fill="#63b8ff" stroke="#63b8ff" points="176.15,-45.29 179,-35.09 170.41,-41.29 176.15,-45.29"/>
<g id="a_edge4&#45;headlabel"><a xlink:href="dir_000016_000008.html" target="_top" xlink:title="2">
<text text-anchor="middle" x="176.42" y="-47.36" font-family="Helvetica,sans-Serif" font-size="10.00" fill="#63b8ff">2</text>
</a>
</g>
</g>
<!-- dir_3334e6296d4872ad5c54f757af9ece9d -->
<g id="node6" class="node">
<title>dir_3334e6296d4872ad5c54f757af9ece9d</title>
<g id="a_node6"><a xlink:href="dir_3334e6296d4872ad5c54f757af9ece9d.html" target="_top" xlink:title="sd&#45;card">
<polygon fill="#a2b4d6" stroke="#404040" points="77.5,-90 24.5,-90 24.5,-71 77.5,-71 77.5,-90"/>
<text text-anchor="middle" x="51" y="-78" font-family="Helvetica,sans-Serif" font-size="10.00">sd&#45;card</text>
</a>
</g>
</g>
<!-- dir_3334e6296d4872ad5c54f757af9ece9d&#45;&gt;dir_d0384342543f67451a573d7221124c26 -->
<g id="edge5" class="edge">
<title>dir_3334e6296d4872ad5c54f757af9ece9d&#45;&gt;dir_d0384342543f67451a573d7221124c26</title>
<path fill="none" stroke="#63b8ff" d="M69.2,-70.84C74.86,-68.24 81.16,-65.42 87,-63 108.14,-54.23 132.21,-45.25 151.21,-38.39"/>
<polygon fill="#63b8ff" stroke="#63b8ff" points="152.41,-41.68 160.64,-35.01 150.05,-35.09 152.41,-41.68"/>
<g id="a_edge5&#45;headlabel"><a xlink:href="dir_000018_000008.html" target="_top" xlink:title="2">
<text text-anchor="middle" x="149.99" y="-43.07" font-family="Helvetica,sans-Serif" font-size="10.00" fill="#63b8ff">2</text>
</a>
</g>
</g>
</g>
</svg>
