<?xml version="1.0" encoding="UTF-8" standalone="no"?>
<!DOCTYPE svg PUBLIC "-//W3C//DTD SVG 1.1//EN"
 "http://www.w3.org/Graphics/SVG/1.1/DTD/svg11.dtd">
<!-- Generated by graphviz version 2.43.0 (0)
 -->
<!-- Title: firmware/wombat/include Pages: 1 -->
<svg width="331pt" height="196pt"
 viewBox="0.00 0.00 331.00 196.00" xmlns="http://www.w3.org/2000/svg" xmlns:xlink="http://www.w3.org/1999/xlink">
<g id="graph0" class="graph" transform="scale(1 1) rotate(0) translate(4 192)">
<title>firmware/wombat/include</title>
<g id="clust1" class="cluster">
<title>clusterdir_a2666ece60dde946aac962d01f4de38f</title>
<g id="a_clust1"><a xlink:href="dir_a2666ece60dde946aac962d01f4de38f.html" target="_top" xlink:title="wombat">
<polygon fill="#edf0f7" stroke="#7f7f7f" stroke-dasharray="5,2" points="8,-8 8,-180 315,-180 315,-8 8,-8"/>
<text text-anchor="middle" x="161.5" y="-168" font-family="Helvetica,sans-Serif" font-size="10.00">wombat</text>
</a>
</g>
</g>
<g id="clust2" class="cluster">
<title>clusterdir_d0384342543f67451a573d7221124c26</title>
<g id="a_clust2"><a xlink:href="dir_d0384342543f67451a573d7221124c26.html" target="_top">
<polygon fill="#edf0f7" stroke="#404040" stroke-width="2" points="16,-63 16,-153 295,-153 295,-63 16,-63"/>
</a>
</g>
</g>
<!-- dir_ff0fc4bcb23bb8e139bf6a61d2efec67 -->
<g id="node1" class="node">
<title>dir_ff0fc4bcb23bb8e139bf6a61d2efec67</title>
<g id="a_node1"><a xlink:href="dir_ff0fc4bcb23bb8e139bf6a61d2efec67.html" target="_top" xlink:title="lib">
<polygon fill="#a2b4d6" stroke="red" points="234.5,-35 205.5,-35 205.5,-16 234.5,-16 234.5,-35"/>
<text text-anchor="middle" x="220" y="-23" font-family="Helvetica,sans-Serif" font-size="10.00">lib</text>
</a>
</g>
</g>
<!-- dir_d0384342543f67451a573d7221124c26 -->
<g id="node2" class="node">
<title>dir_d0384342543f67451a573d7221124c26</title>
<text text-anchor="middle" x="247" y="-133" font-family="Helvetica,sans-Serif" font-size="10.00">include</text>
</g>
<!-- dir_d0384342543f67451a573d7221124c26&#45;&gt;dir_ff0fc4bcb23bb8e139bf6a61d2efec67 -->
<g id="edge2" class="edge">
<title>dir_d0384342543f67451a573d7221124c26&#45;&gt;dir_ff0fc4bcb23bb8e139bf6a61d2efec67</title>
<path fill="none" stroke="#63b8ff" d="M260.57,-125.84C279.67,-112.54 310.58,-86.18 296,-63 284.83,-45.25 262.36,-35.94 244.74,-31.17"/>
<polygon fill="#63b8ff" stroke="#63b8ff" points="245.07,-27.66 234.53,-28.76 243.46,-34.47 245.07,-27.66"/>
<g id="a_edge2&#45;headlabel"><a xlink:href="dir_000009_000012.html" target="_top" xlink:title="2">
<text text-anchor="middle" x="249.22" y="-23.22" font-family="Helvetica,sans-Serif" font-size="10.00" fill="#63b8ff">2</text>
</a>
</g>
</g>
<!-- dir_795fcd320a76291dfae3bd75b770185f -->
<g id="node6" class="node">
<title>dir_795fcd320a76291dfae3bd75b770185f</title>
<g id="a_node6"><a xlink:href="dir_795fcd320a76291dfae3bd75b770185f.html" target="_top" xlink:title="power_monitoring">
<polygon fill="#a2b4d6" stroke="#404040" points="286.5,-90 181.5,-90 181.5,-71 286.5,-71 286.5,-90"/>
<text text-anchor="middle" x="234" y="-78" font-family="Helvetica,sans-Serif" font-size="10.00">power_monitoring</text>
</a>
</g>
</g>
<!-- dir_d0384342543f67451a573d7221124c26&#45;&gt;dir_795fcd320a76291dfae3bd75b770185f -->
<g id="edge1" class="edge">
<title>dir_d0384342543f67451a573d7221124c26&#45;&gt;dir_795fcd320a76291dfae3bd75b770185f</title>
<path fill="none" stroke="#63b8ff" d="M244.85,-125.75C243.13,-118.72 240.65,-108.62 238.5,-99.84"/>
<polygon fill="#63b8ff" stroke="#63b8ff" points="241.89,-98.97 236.11,-90.09 235.09,-100.63 241.89,-98.97"/>
<g id="a_edge1&#45;headlabel"><a xlink:href="dir_000009_000015.html" target="_top" xlink:title="4">
<text text-anchor="middle" x="245.5" y="-99.28" font-family="Helvetica,sans-Serif" font-size="10.00" fill="#63b8ff">4</text>
</a>
</g>
</g>
<!-- dir_d8f8fdfd0d0f9f01e2eafa9bb34eac25 -->
<g id="node3" class="node">
<title>dir_d8f8fdfd0d0f9f01e2eafa9bb34eac25</title>
<g id="a_node3"><a xlink:href="dir_d8f8fdfd0d0f9f01e2eafa9bb34eac25.html" target="_top" xlink:title="audio&#45;feedback">
<polygon fill="#a2b4d6" stroke="#404040" points="116,-90 24,-90 24,-71 116,-71 116,-90"/>
<text text-anchor="middle" x="70" y="-78" font-family="Helvetica,sans-Serif" font-size="10.00">audio&#45;feedback</text>
</a>
</g>
</g>
<!-- dir_409d71445832ade69d0c21a79b91eb7b -->
<g id="node4" class="node">
<title>dir_409d71445832ade69d0c21a79b91eb7b</title>
<g id="a_node4"><a xlink:href="dir_409d71445832ade69d0c21a79b91eb7b.html" target="_top" xlink:title="bluetooth">
<polygon fill="#a2b4d6" stroke="#404040" points="180.5,-145 117.5,-145 117.5,-126 180.5,-126 180.5,-145"/>
<text text-anchor="middle" x="149" y="-133" font-family="Helvetica,sans-Serif" font-size="10.00">bluetooth</text>
</a>
</g>
</g>
<!-- dir_409d71445832ade69d0c21a79b91eb7b&#45;&gt;dir_d8f8fdfd0d0f9f01e2eafa9bb34eac25 -->
<g id="edge5" class="edge">
<title>dir_409d71445832ade69d0c21a79b91eb7b&#45;&gt;dir_d8f8fdfd0d0f9f01e2eafa9bb34eac25</title>
<path fill="none" stroke="#63b8ff" d="M136.31,-125.98C124.17,-117.84 105.64,-105.41 91.25,-95.76"/>
<polygon fill="#63b8ff" stroke="#63b8ff" points="93.18,-92.84 82.92,-90.17 89.28,-98.65 93.18,-92.84"/>
<g id="a_edge5&#45;headlabel"><a xlink:href="dir_000001_000000.html" target="_top" xlink:title="1">
<text text-anchor="middle" x="97.74" y="-89.98" font-family="Helvetica,sans-Serif" font-size="10.00" fill="#63b8ff">1</text>
</a>
</g>
</g>
<!-- dir_0f69594e7335fbbf6400f5fdece5c598 -->
<g id="node5" class="node">
<title>dir_0f69594e7335fbbf6400f5fdece5c598</title>
<g id="a_node5"><a xlink:href="dir_0f69594e7335fbbf6400f5fdece5c598.html" target="_top" xlink:title="cli">
<polygon fill="#a2b4d6" stroke="#404040" points="163.5,-90 134.5,-90 134.5,-71 163.5,-71 163.5,-90"/>
<text text-anchor="middle" x="149" y="-78" font-family="Helvetica,sans-Serif" font-size="10.00">cli</text>
</a>
</g>
</g>
<!-- dir_409d71445832ade69d0c21a79b91eb7b&#45;&gt;dir_0f69594e7335fbbf6400f5fdece5c598 -->
<g id="edge3" class="edge">
<title>dir_409d71445832ade69d0c21a79b91eb7b&#45;&gt;dir_0f69594e7335fbbf6400f5fdece5c598</title>
<path fill="none" stroke="#63b8ff" d="M143.83,-125.75C142.34,-118.8 141.9,-108.85 142.52,-100.13"/>
<polygon fill="#63b8ff" stroke="#63b8ff" points="146.01,-100.47 143.87,-90.09 139.07,-99.53 146.01,-100.47"/>
<g id="a_edge3&#45;headlabel"><a xlink:href="dir_000001_000004.html" target="_top" xlink:title="1">
<text text-anchor="middle" x="148.34" y="-101.91" font-family="Helvetica,sans-Serif" font-size="10.00" fill="#63b8ff">1</text>
</a>
</g>
</g>
<!-- dir_409d71445832ade69d0c21a79b91eb7b&#45;&gt;dir_795fcd320a76291dfae3bd75b770185f -->
<g id="edge4" class="edge">
<title>dir_409d71445832ade69d0c21a79b91eb7b&#45;&gt;dir_795fcd320a76291dfae3bd75b770185f</title>
<path fill="none" stroke="#63b8ff" d="M162.66,-125.98C175.84,-117.77 196.03,-105.18 211.57,-95.49"/>
<polygon fill="#63b8ff" stroke="#63b8ff" points="213.46,-98.43 220.09,-90.17 209.76,-92.49 213.46,-98.43"/>
<g id="a_edge4&#45;headlabel"><a xlink:href="dir_000001_000015.html" target="_top" xlink:title="2">
<text text-anchor="middle" x="211.91" y="-100.24" font-family="Helvetica,sans-Serif" font-size="10.00" fill="#63b8ff">2</text>
</a>
</g>
</g>
<!-- dir_0f69594e7335fbbf6400f5fdece5c598&#45;&gt;dir_ff0fc4bcb23bb8e139bf6a61d2efec67 -->
<g id="edge7" class="edge">
<title>dir_0f69594e7335fbbf6400f5fdece5c598&#45;&gt;dir_ff0fc4bcb23bb8e139bf6a61d2efec67</title>
<path fill="none" stroke="#63b8ff" d="M160.41,-70.98C171.11,-63 187.34,-50.88 200.16,-41.31"/>
<polygon fill="#63b8ff" stroke="#63b8ff" points="202.47,-43.96 208.39,-35.17 198.28,-38.35 202.47,-43.96"/>
<g id="a_edge7&#45;headlabel"><a xlink:href="dir_000004_000012.html" target="_top" xlink:title="1">
<text text-anchor="middle" x="201.28" y="-45.88" font-family="Helvetica,sans-Serif" font-size="10.00" fill="#63b8ff">1</text>
</a>
</g>
</g>
<!-- dir_0f69594e7335fbbf6400f5fdece5c598&#45;&gt;dir_409d71445832ade69d0c21a79b91eb7b -->
<g id="edge6" class="edge">
<title>dir_0f69594e7335fbbf6400f5fdece5c598&#45;&gt;dir_409d71445832ade69d0c21a79b91eb7b</title>
<path fill="none" stroke="#63b8ff" d="M154.13,-90.09C155.64,-96.99 156.09,-106.93 155.49,-115.66"/>
<polygon fill="#63b8ff" stroke="#63b8ff" points="152,-115.38 154.17,-125.75 158.94,-116.29 152,-115.38"/>
<g id="a_edge6&#45;headlabel"><a xlink:href="dir_000004_000001.html" target="_top" xlink:title="1">
<text text-anchor="middle" x="149.65" y="-108.94" font-family="Helvetica,sans-Serif" font-size="10.00" fill="#63b8ff">1</text>
</a>
</g>
</g>
<!-- dir_abad8e74a5b9b16e7cdc1a1704968a77 -->
<g id="node7" class="node">
<title>dir_abad8e74a5b9b16e7cdc1a1704968a77</title>
<g id="a_node7"><a xlink:href="dir_abad8e74a5b9b16e7cdc1a1704968a77.html" target="_top" xlink:title="sd&#45;card">
<polygon fill="#a2b4d6" stroke="#404040" points="88.5,-145 35.5,-145 35.5,-126 88.5,-126 88.5,-145"/>
<text text-anchor="middle" x="62" y="-133" font-family="Helvetica,sans-Serif" font-size="10.00">sd&#45;card</text>
</a>
</g>
</g>
</g>
</svg>
