<?xml version="1.0" encoding="UTF-8" standalone="no"?>
<!DOCTYPE svg PUBLIC "-//W3C//DTD SVG 1.1//EN"
 "http://www.w3.org/Graphics/SVG/1.1/DTD/svg11.dtd">
<!-- Generated by graphviz version 2.43.0 (0)
 -->
<!-- Title: firmware/wombat/src Pages: 1 -->
<svg width="410pt" height="141pt"
 viewBox="0.00 0.00 410.00 141.00" xmlns="http://www.w3.org/2000/svg" xmlns:xlink="http://www.w3.org/1999/xlink">
<g id="graph0" class="graph" transform="scale(1 1) rotate(0) translate(4 137)">
<title>firmware/wombat/src</title>
<g id="clust1" class="cluster">
<title>clusterdir_a2666ece60dde946aac962d01f4de38f</title>
<g id="a_clust1"><a xlink:href="dir_a2666ece60dde946aac962d01f4de38f.html" target="_top" xlink:title="wombat">
<polygon fill="#edf0f7" stroke="#7f7f7f" stroke-dasharray="5,2" points="8,-8 8,-125 394,-125 394,-8 8,-8"/>
<text text-anchor="middle" x="201" y="-113" font-family="Helvetica,sans-Serif" font-size="10.00">wombat</text>
</a>
</g>
</g>
<g id="clust2" class="cluster">
<title>clusterdir_e79d578d7f85ef1913c57f714dd694b1</title>
<g id="a_clust2"><a xlink:href="dir_e79d578d7f85ef1913c57f714dd694b1.html" target="_top">
<polygon fill="#edf0f7" stroke="#404040" stroke-width="2" points="16,-63 16,-98 386,-98 386,-63 16,-63"/>
</a>
</g>
</g>
<!-- dir_d0384342543f67451a573d7221124c26 -->
<g id="node1" class="node">
<title>dir_d0384342543f67451a573d7221124c26</title>
<g id="a_node1"><a xlink:href="dir_d0384342543f67451a573d7221124c26.html" target="_top" xlink:title="include">
<polygon fill="#a2b4d6" stroke="red" points="259,-35 207,-35 207,-16 259,-16 259,-35"/>
<text text-anchor="middle" x="233" y="-23" font-family="Helvetica,sans-Serif" font-size="10.00">include</text>
</a>
</g>
</g>
<!-- dir_ff0fc4bcb23bb8e139bf6a61d2efec67 -->
<g id="node2" class="node">
<title>dir_ff0fc4bcb23bb8e139bf6a61d2efec67</title>
<g id="a_node2"><a xlink:href="dir_ff0fc4bcb23bb8e139bf6a61d2efec67.html" target="_top" xlink:title="lib">
<polygon fill="#a2b4d6" stroke="red" points="376.5,-35 347.5,-35 347.5,-16 376.5,-16 376.5,-35"/>
<text text-anchor="middle" x="362" y="-23" font-family="Helvetica,sans-Serif" font-size="10.00">lib</text>
</a>
</g>
</g>
<!-- dir_e79d578d7f85ef1913c57f714dd694b1 -->
<g id="node3" class="node">
<title>dir_e79d578d7f85ef1913c57f714dd694b1</title>
<text text-anchor="middle" x="362" y="-78" font-family="Helvetica,sans-Serif" font-size="10.00">src</text>
</g>
<!-- dir_e79d578d7f85ef1913c57f714dd694b1&#45;&gt;dir_d0384342543f67451a573d7221124c26 -->
<g id="edge1" class="edge">
<title>dir_e79d578d7f85ef1913c57f714dd694b1&#45;&gt;dir_d0384342543f67451a573d7221124c26</title>
<path fill="none" stroke="#63b8ff" d="M350.67,-70.79C346.79,-68.06 342.33,-65.19 338,-63 315.95,-51.84 289.69,-42.72 268.95,-36.38"/>
<polygon fill="#63b8ff" stroke="#63b8ff" points="269.83,-32.99 259.25,-33.5 267.84,-39.7 269.83,-32.99"/>
<g id="a_edge1&#45;headlabel"><a xlink:href="dir_000021_000010.html" target="_top" xlink:title="82">
<text text-anchor="middle" x="274.09" y="-28.79" font-family="Helvetica,sans-Serif" font-size="10.00" fill="#63b8ff">82</text>
</a>
</g>
</g>
<!-- dir_e79d578d7f85ef1913c57f714dd694b1&#45;&gt;dir_ff0fc4bcb23bb8e139bf6a61d2efec67 -->
<g id="edge2" class="edge">
<title>dir_e79d578d7f85ef1913c57f714dd694b1&#45;&gt;dir_ff0fc4bcb23bb8e139bf6a61d2efec67</title>
<path fill="none" stroke="#63b8ff" d="M362,-70.75C362,-63.8 362,-53.85 362,-45.13"/>
<polygon fill="#63b8ff" stroke="#63b8ff" points="365.5,-45.09 362,-35.09 358.5,-45.09 365.5,-45.09"/>
<g id="a_edge2&#45;headlabel"><a xlink:href="dir_000021_000012.html" target="_top" xlink:title="2">
<text text-anchor="middle" x="368.34" y="-46.18" font-family="Helvetica,sans-Serif" font-size="10.00" fill="#63b8ff">2</text>
</a>
</g>
</g>
<!-- dir_c4a3c4206a806711287a7574c3e31684 -->
<g id="node4" class="node">
<title>dir_c4a3c4206a806711287a7574c3e31684</title>
<g id="a_node4"><a xlink:href="dir_c4a3c4206a806711287a7574c3e31684.html" target="_top" xlink:title="bluetooth">
<polygon fill="#a2b4d6" stroke="#404040" points="328.5,-90 265.5,-90 265.5,-71 328.5,-71 328.5,-90"/>
<text text-anchor="middle" x="297" y="-78" font-family="Helvetica,sans-Serif" font-size="10.00">bluetooth</text>
</a>
</g>
</g>
<!-- dir_c4a3c4206a806711287a7574c3e31684&#45;&gt;dir_d0384342543f67451a573d7221124c26 -->
<g id="edge3" class="edge">
<title>dir_c4a3c4206a806711287a7574c3e31684&#45;&gt;dir_d0384342543f67451a573d7221124c26</title>
<path fill="none" stroke="#63b8ff" d="M286.72,-70.98C277.16,-63.07 262.72,-51.11 251.22,-41.58"/>
<polygon fill="#63b8ff" stroke="#63b8ff" points="253.4,-38.85 243.47,-35.17 248.94,-44.24 253.4,-38.85"/>
<g id="a_edge3&#45;headlabel"><a xlink:href="dir_000002_000010.html" target="_top" xlink:title="5">
<text text-anchor="middle" x="257.98" y="-36.46" font-family="Helvetica,sans-Serif" font-size="10.00" fill="#63b8ff">5</text>
</a>
</g>
</g>
<!-- dir_8b21b1686340a4d26c57e3874d58ae0a -->
<g id="node5" class="node">
<title>dir_8b21b1686340a4d26c57e3874d58ae0a</title>
<g id="a_node5"><a xlink:href="dir_8b21b1686340a4d26c57e3874d58ae0a.html" target="_top" xlink:title="cli">
<polygon fill="#a2b4d6" stroke="#404040" points="247.5,-90 218.5,-90 218.5,-71 247.5,-71 247.5,-90"/>
<text text-anchor="middle" x="233" y="-78" font-family="Helvetica,sans-Serif" font-size="10.00">cli</text>
</a>
</g>
</g>
<!-- dir_8b21b1686340a4d26c57e3874d58ae0a&#45;&gt;dir_d0384342543f67451a573d7221124c26 -->
<g id="edge4" class="edge">
<title>dir_8b21b1686340a4d26c57e3874d58ae0a&#45;&gt;dir_d0384342543f67451a573d7221124c26</title>
<path fill="none" stroke="#63b8ff" d="M233,-70.75C233,-63.8 233,-53.85 233,-45.13"/>
<polygon fill="#63b8ff" stroke="#63b8ff" points="236.5,-45.09 233,-35.09 229.5,-45.09 236.5,-45.09"/>
<g id="a_edge4&#45;headlabel"><a xlink:href="dir_000004_000010.html" target="_top" xlink:title="27">
<text text-anchor="middle" x="239.34" y="-46.18" font-family="Helvetica,sans-Serif" font-size="10.00" fill="#63b8ff">27</text>
</a>
</g>
</g>
<!-- dir_d5c313604f7a8e28963faab8116c1a9c -->
<g id="node6" class="node">
<title>dir_d5c313604f7a8e28963faab8116c1a9c</title>
<g id="a_node6"><a xlink:href="dir_d5c313604f7a8e28963faab8116c1a9c.html" target="_top" xlink:title="power_monitoring">
<polygon fill="#a2b4d6" stroke="#404040" points="200.5,-90 95.5,-90 95.5,-71 200.5,-71 200.5,-90"/>
<text text-anchor="middle" x="148" y="-78" font-family="Helvetica,sans-Serif" font-size="10.00">power_monitoring</text>
</a>
</g>
</g>
<!-- dir_d5c313604f7a8e28963faab8116c1a9c&#45;&gt;dir_d0384342543f67451a573d7221124c26 -->
<g id="edge5" class="edge">
<title>dir_d5c313604f7a8e28963faab8116c1a9c&#45;&gt;dir_d0384342543f67451a573d7221124c26</title>
<path fill="none" stroke="#63b8ff" d="M161.66,-70.98C174.84,-62.77 195.03,-50.18 210.57,-40.49"/>
<polygon fill="#63b8ff" stroke="#63b8ff" points="212.46,-43.43 219.09,-35.17 208.76,-37.49 212.46,-43.43"/>
<g id="a_edge5&#45;headlabel"><a xlink:href="dir_000018_000010.html" target="_top" xlink:title="2">
<text text-anchor="middle" x="210.91" y="-45.24" font-family="Helvetica,sans-Serif" font-size="10.00" fill="#63b8ff">2</text>
</a>
</g>
</g>
<!-- dir_3334e6296d4872ad5c54f757af9ece9d -->
<g id="node7" class="node">
<title>dir_3334e6296d4872ad5c54f757af9ece9d</title>
<g id="a_node7"><a xlink:href="dir_3334e6296d4872ad5c54f757af9ece9d.html" target="_top" xlink:title="sd&#45;card">
<polygon fill="#a2b4d6" stroke="#404040" points="77.5,-90 24.5,-90 24.5,-71 77.5,-71 77.5,-90"/>
<text text-anchor="middle" x="51" y="-78" font-family="Helvetica,sans-Serif" font-size="10.00">sd&#45;card</text>
</a>
</g>
</g>
<!-- dir_3334e6296d4872ad5c54f757af9ece9d&#45;&gt;dir_d0384342543f67451a573d7221124c26 -->
<g id="edge6" class="edge">
<title>dir_3334e6296d4872ad5c54f757af9ece9d&#45;&gt;dir_d0384342543f67451a573d7221124c26</title>
<path fill="none" stroke="#63b8ff" d="M67.95,-70.95C73.88,-68.17 80.64,-65.23 87,-63 123.72,-50.12 167.13,-39.87 197.02,-33.55"/>
<polygon fill="#63b8ff" stroke="#63b8ff" points="197.91,-36.94 206.99,-31.48 196.49,-30.09 197.91,-36.94"/>
<g id="a_edge6&#45;headlabel"><a xlink:href="dir_000020_000010.html" target="_top" xlink:title="2">
<text text-anchor="middle" x="194.97" y="-37.95" font-family="Helvetica,sans-Serif" font-size="10.00" fill="#63b8ff">2</text>
</a>
</g>
</g>
</g>
</svg>
