<?xml version="1.0" encoding="UTF-8" standalone="no"?>
<!DOCTYPE svg PUBLIC "-//W3C//DTD SVG 1.1//EN"
 "http://www.w3.org/Graphics/SVG/1.1/DTD/svg11.dtd">
<!-- Generated by graphviz version 2.43.0 (0)
 -->
<!-- Title: firmware/wombat/src/ftp_stack.cpp Pages: 1 -->
<svg width="1745pt" height="335pt"
 viewBox="0.00 0.00 1745.20 335.00" xmlns="http://www.w3.org/2000/svg" xmlns:xlink="http://www.w3.org/1999/xlink">
<g id="graph0" class="graph" transform="scale(1 1) rotate(0) translate(4 331)">
<title>firmware/wombat/src/ftp_stack.cpp</title>
<!-- Node1 -->
<g id="node1" class="node">
<title>Node1</title>
<g id="a_node1"><a xlink:title=" ">
<polygon fill="#999999" stroke="#666666" points="539,-327 419,-327 419,-297 539,-297 539,-327"/>
<text text-anchor="start" x="427" y="-315" font-family="Helvetica,sans-Serif" font-size="10.00">firmware/wombat/src</text>
<text text-anchor="middle" x="479" y="-304" font-family="Helvetica,sans-Serif" font-size="10.00">/ftp_stack.cpp</text>
</a>
</g>
</g>
<!-- Node2 -->
<g id="node2" class="node">
<title>Node2</title>
<g id="a_node2"><a xlink:title=" ">
<polygon fill="#e0e0e0" stroke="#999999" points="295,-261 237,-261 237,-242 295,-242 295,-261"/>
<text text-anchor="middle" x="266" y="-249" font-family="Helvetica,sans-Serif" font-size="10.00">SPIFFS.h</text>
</a>
</g>
</g>
<!-- Node1&#45;&gt;Node2 -->
<g id="edge1" class="edge">
<title>Node1&#45;&gt;Node2</title>
<path fill="none" stroke="#63b8ff" d="M427.98,-296.99C390.23,-286.62 339.58,-272.71 305.03,-263.22"/>
<polygon fill="#63b8ff" stroke="#63b8ff" points="305.87,-259.82 295.3,-260.55 304.01,-266.57 305.87,-259.82"/>
</g>
<!-- Node3 -->
<g id="node3" class="node">
<title>Node3</title>
<g id="a_node3"><a xlink:href="_c_a_t___m1_8h.html" target="_top" xlink:title=" ">
<polygon fill="white" stroke="#666666" points="593.5,-134.5 528.5,-134.5 528.5,-115.5 593.5,-115.5 593.5,-134.5"/>
<text text-anchor="middle" x="561" y="-122.5" font-family="Helvetica,sans-Serif" font-size="10.00">CAT_M1.h</text>
</a>
</g>
</g>
<!-- Node1&#45;&gt;Node3 -->
<g id="edge2" class="edge">
<title>Node1&#45;&gt;Node3</title>
<path fill="none" stroke="#63b8ff" d="M477.71,-296.9C476.02,-271.07 475.54,-215.23 498,-176 506.68,-160.84 521.93,-148.55 535.24,-139.95"/>
<polygon fill="#63b8ff" stroke="#63b8ff" points="537.33,-142.78 544.05,-134.6 533.69,-136.8 537.33,-142.78"/>
</g>
<!-- Node7 -->
<g id="node7" class="node">
<title>Node7</title>
<g id="a_node7"><a xlink:href="_utils_8h.html" target="_top" xlink:title=" ">
<polygon fill="white" stroke="#666666" points="1195,-134.5 1147,-134.5 1147,-115.5 1195,-115.5 1195,-134.5"/>
<text text-anchor="middle" x="1171" y="-122.5" font-family="Helvetica,sans-Serif" font-size="10.00">Utils.h</text>
</a>
</g>
</g>
<!-- Node1&#45;&gt;Node7 -->
<g id="edge7" class="edge">
<title>Node1&#45;&gt;Node7</title>
<path fill="none" stroke="#63b8ff" d="M539.03,-310.54C775.52,-308.13 1633.75,-293.36 1714,-206 1723.02,-196.18 1723.09,-185.75 1714,-176 1675.27,-134.44 1259.24,-153.27 1204,-140 1201.84,-139.48 1199.63,-138.83 1197.45,-138.1"/>
<polygon fill="#63b8ff" stroke="#63b8ff" points="1198.69,-134.83 1188.1,-134.52 1196.19,-141.37 1198.69,-134.83"/>
</g>
<!-- Node11 -->
<g id="node11" class="node">
<title>Node11</title>
<g id="a_node11"><a xlink:href="_device_config_8h.html" target="_top" xlink:title="Node configuration options.">
<polygon fill="white" stroke="#666666" points="1411,-134.5 1321,-134.5 1321,-115.5 1411,-115.5 1411,-134.5"/>
<text text-anchor="middle" x="1366" y="-122.5" font-family="Helvetica,sans-Serif" font-size="10.00">DeviceConfig.h</text>
</a>
</g>
</g>
<!-- Node1&#45;&gt;Node11 -->
<g id="edge11" class="edge">
<title>Node1&#45;&gt;Node11</title>
<path fill="none" stroke="#63b8ff" d="M539.21,-310.81C739.82,-309.77 1384.22,-303.16 1587,-261 1654.08,-247.06 1692.15,-262.43 1731,-206 1738.56,-195.02 1739.76,-186.05 1731,-176 1691.53,-130.75 1513.6,-124.98 1421.56,-125.12"/>
<polygon fill="#63b8ff" stroke="#63b8ff" points="1421.3,-121.62 1411.31,-125.16 1421.33,-128.62 1421.3,-121.62"/>
</g>
<!-- Node12 -->
<g id="node12" class="node">
<title>Node12</title>
<g id="a_node12"><a xlink:title=" ">
<polygon fill="#e0e0e0" stroke="#999999" points="130,-140 0,-140 0,-110 130,-110 130,-140"/>
<text text-anchor="start" x="8" y="-128" font-family="Helvetica,sans-Serif" font-size="10.00">SparkFun_u&#45;blox_SARA</text>
<text text-anchor="middle" x="65" y="-117" font-family="Helvetica,sans-Serif" font-size="10.00">&#45;R5_Arduino_Library.h</text>
</a>
</g>
</g>
<!-- Node1&#45;&gt;Node12 -->
<g id="edge14" class="edge">
<title>Node1&#45;&gt;Node12</title>
<path fill="none" stroke="#63b8ff" d="M447.54,-296.94C373.56,-263.88 188.57,-181.22 105.96,-144.3"/>
<polygon fill="#63b8ff" stroke="#63b8ff" points="106.97,-140.92 96.41,-140.04 104.11,-147.31 106.97,-140.92"/>
</g>
<!-- Node13 -->
<g id="node13" class="node">
<title>Node13</title>
<g id="a_node13"><a xlink:href="globals_8h.html" target="_top" xlink:title=" ">
<polygon fill="white" stroke="#666666" points="412.5,-200.5 351.5,-200.5 351.5,-181.5 412.5,-181.5 412.5,-200.5"/>
<text text-anchor="middle" x="382" y="-188.5" font-family="Helvetica,sans-Serif" font-size="10.00">globals.h</text>
</a>
</g>
</g>
<!-- Node1&#45;&gt;Node13 -->
<g id="edge15" class="edge">
<title>Node1&#45;&gt;Node13</title>
<path fill="none" stroke="#63b8ff" d="M467.49,-296.88C449.51,-274.83 414.84,-232.29 395.64,-208.73"/>
<polygon fill="#63b8ff" stroke="#63b8ff" points="398.13,-206.25 389.1,-200.71 392.71,-210.67 398.13,-206.25"/>
</g>
<!-- Node17 -->
<g id="node17" class="node">
<title>Node17</title>
<g id="a_node17"><a xlink:href="_c_l_i_8h.html" target="_top" xlink:title="FreeRTOS CLI handler.">
<polygon fill="white" stroke="#666666" points="995.5,-261 940.5,-261 940.5,-242 995.5,-242 995.5,-261"/>
<text text-anchor="middle" x="968" y="-249" font-family="Helvetica,sans-Serif" font-size="10.00">cli/CLI.h</text>
</a>
</g>
</g>
<!-- Node1&#45;&gt;Node17 -->
<g id="edge24" class="edge">
<title>Node1&#45;&gt;Node17</title>
<path fill="none" stroke="#63b8ff" d="M539.45,-303.77C641.76,-291.53 846.12,-267.08 930.36,-257"/>
<polygon fill="#63b8ff" stroke="#63b8ff" points="930.98,-260.45 940.5,-255.79 930.15,-253.5 930.98,-260.45"/>
</g>
<!-- Node4 -->
<g id="node4" class="node">
<title>Node4</title>
<g id="a_node4"><a xlink:title=" ">
<polygon fill="#e0e0e0" stroke="#999999" points="609,-19 561,-19 561,0 609,0 609,-19"/>
<text text-anchor="middle" x="585" y="-7" font-family="Helvetica,sans-Serif" font-size="10.00">Wire.h</text>
</a>
</g>
</g>
<!-- Node3&#45;&gt;Node4 -->
<g id="edge3" class="edge">
<title>Node3&#45;&gt;Node4</title>
<path fill="none" stroke="#63b8ff" d="M568.12,-115.47C575.5,-106.02 586.57,-90 591,-74 595.07,-59.31 593.03,-42.05 590.27,-29.24"/>
<polygon fill="#63b8ff" stroke="#63b8ff" points="593.61,-28.16 587.8,-19.3 586.81,-29.85 593.61,-28.16"/>
</g>
<!-- Node5 -->
<g id="node5" class="node">
<title>Node5</title>
<g id="a_node5"><a xlink:href="_t_c_a9534_8h.html" target="_top" xlink:title=" ">
<polygon fill="white" stroke="#666666" points="582,-74 514,-74 514,-55 582,-55 582,-74"/>
<text text-anchor="middle" x="548" y="-62" font-family="Helvetica,sans-Serif" font-size="10.00">TCA9534.h</text>
</a>
</g>
</g>
<!-- Node3&#45;&gt;Node5 -->
<g id="edge4" class="edge">
<title>Node3&#45;&gt;Node5</title>
<path fill="none" stroke="#63b8ff" d="M559.08,-115.37C557.26,-107.16 554.45,-94.54 552.12,-84.05"/>
<polygon fill="#63b8ff" stroke="#63b8ff" points="555.51,-83.17 549.93,-74.17 548.68,-84.69 555.51,-83.17"/>
</g>
<!-- Node5&#45;&gt;Node4 -->
<g id="edge6" class="edge">
<title>Node5&#45;&gt;Node4</title>
<path fill="none" stroke="#63b8ff" d="M554.11,-54.75C559.28,-47.34 566.85,-36.5 573.19,-27.41"/>
<polygon fill="#63b8ff" stroke="#63b8ff" points="576.15,-29.29 579,-19.09 570.41,-25.29 576.15,-29.29"/>
</g>
<!-- Node6 -->
<g id="node6" class="node">
<title>Node6</title>
<g id="a_node6"><a xlink:title=" ">
<polygon fill="#e0e0e0" stroke="#999999" points="517.5,-19 454.5,-19 454.5,0 517.5,0 517.5,-19"/>
<text text-anchor="middle" x="486" y="-7" font-family="Helvetica,sans-Serif" font-size="10.00">Arduino.h</text>
</a>
</g>
</g>
<!-- Node5&#45;&gt;Node6 -->
<g id="edge5" class="edge">
<title>Node5&#45;&gt;Node6</title>
<path fill="none" stroke="#63b8ff" d="M538.04,-54.98C528.87,-47.15 515.06,-35.34 503.97,-25.86"/>
<polygon fill="#63b8ff" stroke="#63b8ff" points="506.02,-23.01 496.14,-19.17 501.47,-28.33 506.02,-23.01"/>
</g>
<!-- Node8 -->
<g id="node8" class="node">
<title>Node8</title>
<g id="a_node8"><a xlink:title=" ">
<polygon fill="#e0e0e0" stroke="#999999" points="1200,-74 1144,-74 1144,-55 1200,-55 1200,-74"/>
<text text-anchor="middle" x="1172" y="-62" font-family="Helvetica,sans-Serif" font-size="10.00">stddef.h</text>
</a>
</g>
</g>
<!-- Node7&#45;&gt;Node8 -->
<g id="edge8" class="edge">
<title>Node7&#45;&gt;Node8</title>
<path fill="none" stroke="#63b8ff" d="M1171.15,-115.37C1171.29,-107.25 1171.5,-94.81 1171.68,-84.39"/>
<polygon fill="#63b8ff" stroke="#63b8ff" points="1175.18,-84.23 1171.85,-74.17 1168.18,-84.11 1175.18,-84.23"/>
</g>
<!-- Node9 -->
<g id="node9" class="node">
<title>Node9</title>
<g id="a_node9"><a xlink:title=" ">
<polygon fill="#e0e0e0" stroke="#999999" points="1318.5,-74 1235.5,-74 1235.5,-55 1318.5,-55 1318.5,-74"/>
<text text-anchor="middle" x="1277" y="-62" font-family="Helvetica,sans-Serif" font-size="10.00">ArduinoJson.h</text>
</a>
</g>
</g>
<!-- Node7&#45;&gt;Node9 -->
<g id="edge9" class="edge">
<title>Node7&#45;&gt;Node9</title>
<path fill="none" stroke="#63b8ff" d="M1186.64,-115.37C1203.94,-105.82 1232.05,-90.31 1252.33,-79.12"/>
<polygon fill="#63b8ff" stroke="#63b8ff" points="1254.23,-82.06 1261.3,-74.17 1250.85,-75.93 1254.23,-82.06"/>
</g>
<!-- Node10 -->
<g id="node10" class="node">
<title>Node10</title>
<g id="a_node10"><a xlink:title=" ">
<polygon fill="#e0e0e0" stroke="#999999" points="1125.5,-74 1032.5,-74 1032.5,-55 1125.5,-55 1125.5,-74"/>
<text text-anchor="middle" x="1079" y="-62" font-family="Helvetica,sans-Serif" font-size="10.00">dpiclimate&#45;12.h</text>
</a>
</g>
</g>
<!-- Node7&#45;&gt;Node10 -->
<g id="edge10" class="edge">
<title>Node7&#45;&gt;Node10</title>
<path fill="none" stroke="#63b8ff" d="M1157.43,-115.37C1142.61,-105.95 1118.67,-90.73 1101.14,-79.58"/>
<polygon fill="#63b8ff" stroke="#63b8ff" points="1102.95,-76.58 1092.63,-74.17 1099.19,-82.49 1102.95,-76.58"/>
</g>
<!-- Node11&#45;&gt;Node6 -->
<g id="edge12" class="edge">
<title>Node11&#45;&gt;Node6</title>
<path fill="none" stroke="#63b8ff" d="M1364.12,-115.34C1360.31,-100.09 1350.06,-68.73 1328,-55 1254.73,-9.38 637.99,-26.52 552,-19 544.07,-18.31 535.63,-17.37 527.52,-16.37"/>
<polygon fill="#63b8ff" stroke="#63b8ff" points="527.86,-12.89 517.5,-15.09 526.97,-19.83 527.86,-12.89"/>
</g>
<!-- Node11&#45;&gt;Node9 -->
<g id="edge13" class="edge">
<title>Node11&#45;&gt;Node9</title>
<path fill="none" stroke="#63b8ff" d="M1352.87,-115.37C1338.67,-106.04 1315.8,-91.01 1298.88,-79.88"/>
<polygon fill="#63b8ff" stroke="#63b8ff" points="1300.47,-76.74 1290.19,-74.17 1296.62,-82.58 1300.47,-76.74"/>
</g>
<!-- Node13&#45;&gt;Node3 -->
<g id="edge23" class="edge">
<title>Node13&#45;&gt;Node3</title>
<path fill="none" stroke="#63b8ff" d="M406.14,-181.37C437.32,-170.22 491.77,-150.75 527.1,-138.12"/>
<polygon fill="#63b8ff" stroke="#63b8ff" points="528.72,-141.26 536.96,-134.6 526.36,-134.67 528.72,-141.26"/>
</g>
<!-- Node13&#45;&gt;Node12 -->
<g id="edge22" class="edge">
<title>Node13&#45;&gt;Node12</title>
<path fill="none" stroke="#63b8ff" d="M356.45,-181.46C350.14,-179.51 343.36,-177.56 337,-176 253.19,-155.42 228.65,-156.23 140.28,-140.21"/>
<polygon fill="#63b8ff" stroke="#63b8ff" points="140.83,-136.75 130.37,-138.39 139.57,-143.64 140.83,-136.75"/>
</g>
<!-- Node14 -->
<g id="node14" class="node">
<title>Node14</title>
<g id="a_node14"><a xlink:href="battery_8h.html" target="_top" xlink:title="Battery voltage and current monitoring using INA219 IC.">
<polygon fill="white" stroke="#666666" points="457.5,-134.5 306.5,-134.5 306.5,-115.5 457.5,-115.5 457.5,-134.5"/>
<text text-anchor="middle" x="382" y="-122.5" font-family="Helvetica,sans-Serif" font-size="10.00">power_monitoring/battery.h</text>
</a>
</g>
</g>
<!-- Node13&#45;&gt;Node14 -->
<g id="edge16" class="edge">
<title>Node13&#45;&gt;Node14</title>
<path fill="none" stroke="#63b8ff" d="M382,-181.37C382,-172.16 382,-157.29 382,-145.27"/>
<polygon fill="#63b8ff" stroke="#63b8ff" points="385.5,-144.91 382,-134.91 378.5,-144.91 385.5,-144.91"/>
</g>
<!-- Node16 -->
<g id="node16" class="node">
<title>Node16</title>
<g id="a_node16"><a xlink:href="solar_8h.html" target="_top" xlink:title="Solar voltage and current monitoring using INA219 IC.">
<polygon fill="white" stroke="#666666" points="288,-134.5 148,-134.5 148,-115.5 288,-115.5 288,-134.5"/>
<text text-anchor="middle" x="218" y="-122.5" font-family="Helvetica,sans-Serif" font-size="10.00">power_monitoring/solar.h</text>
</a>
</g>
</g>
<!-- Node13&#45;&gt;Node16 -->
<g id="edge19" class="edge">
<title>Node13&#45;&gt;Node16</title>
<path fill="none" stroke="#63b8ff" d="M359.88,-181.37C331.44,-170.27 281.85,-150.92 249.48,-138.28"/>
<polygon fill="#63b8ff" stroke="#63b8ff" points="250.62,-134.97 240.03,-134.6 248.07,-141.49 250.62,-134.97"/>
</g>
<!-- Node14&#45;&gt;Node6 -->
<g id="edge17" class="edge">
<title>Node14&#45;&gt;Node6</title>
<path fill="none" stroke="#63b8ff" d="M389.82,-115.47C407.13,-96.57 448.96,-50.93 471.32,-26.52"/>
<polygon fill="#63b8ff" stroke="#63b8ff" points="473.92,-28.87 478.09,-19.13 468.76,-24.14 473.92,-28.87"/>
</g>
<!-- Node15 -->
<g id="node15" class="node">
<title>Node15</title>
<g id="a_node15"><a xlink:title=" ">
<polygon fill="#e0e0e0" stroke="#999999" points="394.5,-74 289.5,-74 289.5,-55 394.5,-55 394.5,-74"/>
<text text-anchor="middle" x="342" y="-62" font-family="Helvetica,sans-Serif" font-size="10.00">Adafruit_INA219.h</text>
</a>
</g>
</g>
<!-- Node14&#45;&gt;Node15 -->
<g id="edge18" class="edge">
<title>Node14&#45;&gt;Node15</title>
<path fill="none" stroke="#63b8ff" d="M376.1,-115.37C370.25,-106.81 361.13,-93.47 353.79,-82.74"/>
<polygon fill="#63b8ff" stroke="#63b8ff" points="356.46,-80.45 347.93,-74.17 350.68,-84.4 356.46,-80.45"/>
</g>
<!-- Node16&#45;&gt;Node6 -->
<g id="edge20" class="edge">
<title>Node16&#45;&gt;Node6</title>
<path fill="none" stroke="#63b8ff" d="M223.26,-115.2C232.65,-100.28 253.81,-70.2 280,-55 331.42,-25.16 400.55,-15.28 444.19,-12.03"/>
<polygon fill="#63b8ff" stroke="#63b8ff" points="444.43,-15.52 454.18,-11.37 443.97,-8.54 444.43,-15.52"/>
</g>
<!-- Node16&#45;&gt;Node15 -->
<g id="edge21" class="edge">
<title>Node16&#45;&gt;Node15</title>
<path fill="none" stroke="#63b8ff" d="M236.03,-115.49C256.69,-105.75 290.78,-89.66 314.7,-78.38"/>
<polygon fill="#63b8ff" stroke="#63b8ff" points="316.4,-81.45 323.95,-74.02 313.41,-75.12 316.4,-81.45"/>
</g>
<!-- Node17&#45;&gt;Node6 -->
<g id="edge25" class="edge">
<title>Node17&#45;&gt;Node6</title>
<path fill="none" stroke="#63b8ff" d="M940.42,-249.93C844.4,-247.69 528.88,-237.92 498,-206 451.3,-157.73 469.52,-67.58 480.28,-28.9"/>
<polygon fill="#63b8ff" stroke="#63b8ff" points="483.71,-29.62 483.18,-19.04 477,-27.64 483.71,-29.62"/>
</g>
<!-- Node18 -->
<g id="node18" class="node">
<title>Node18</title>
<g id="a_node18"><a xlink:title=" ">
<polygon fill="#e0e0e0" stroke="#999999" points="1050.5,-134.5 937.5,-134.5 937.5,-115.5 1050.5,-115.5 1050.5,-134.5"/>
<text text-anchor="middle" x="994" y="-122.5" font-family="Helvetica,sans-Serif" font-size="10.00">freertos/FreeRTOS.h</text>
</a>
</g>
</g>
<!-- Node17&#45;&gt;Node18 -->
<g id="edge26" class="edge">
<title>Node17&#45;&gt;Node18</title>
<path fill="none" stroke="#63b8ff" d="M995.67,-247.23C1038.82,-241.51 1118.98,-228.12 1136,-206 1163.18,-170.68 1103.17,-148.54 1052.96,-136.73"/>
<polygon fill="#63b8ff" stroke="#63b8ff" points="1053.6,-133.29 1043.08,-134.51 1052.07,-140.12 1053.6,-133.29"/>
</g>
<!-- Node19 -->
<g id="node19" class="node">
<title>Node19</title>
<g id="a_node19"><a xlink:title=" ">
<polygon fill="#e0e0e0" stroke="#999999" points="840.5,-134.5 733.5,-134.5 733.5,-115.5 840.5,-115.5 840.5,-134.5"/>
<text text-anchor="middle" x="787" y="-122.5" font-family="Helvetica,sans-Serif" font-size="10.00">cli/FreeRTOS_CLI.h</text>
</a>
</g>
</g>
<!-- Node17&#45;&gt;Node19 -->
<g id="edge27" class="edge">
<title>Node17&#45;&gt;Node19</title>
<path fill="none" stroke="#63b8ff" d="M940.42,-251.23C903.82,-250.61 839.68,-243.72 804,-206 788.56,-189.68 785.71,-162.96 785.79,-144.94"/>
<polygon fill="#63b8ff" stroke="#63b8ff" points="789.29,-144.9 786.14,-134.79 782.3,-144.66 789.29,-144.9"/>
</g>
<!-- Node20 -->
<g id="node20" class="node">
<title>Node20</title>
<g id="a_node20"><a xlink:href="cat-m1_8h.html" target="_top" xlink:title="CAT&#45;M1 CLI command request and response handler.">
<polygon fill="white" stroke="#666666" points="639,-200.5 507,-200.5 507,-181.5 639,-181.5 639,-200.5"/>
<text text-anchor="middle" x="573" y="-188.5" font-family="Helvetica,sans-Serif" font-size="10.00">cli/peripherals/cat&#45;m1.h</text>
</a>
</g>
</g>
<!-- Node17&#45;&gt;Node20 -->
<g id="edge28" class="edge">
<title>Node17&#45;&gt;Node20</title>
<path fill="none" stroke="#63b8ff" d="M940.11,-247.06C884.45,-240.11 755.68,-223.53 648,-206 641.24,-204.9 634.14,-203.67 627.13,-202.41"/>
<polygon fill="#63b8ff" stroke="#63b8ff" points="627.43,-198.91 616.96,-200.56 626.17,-205.8 627.43,-198.91"/>
</g>
<!-- Node23 -->
<g id="node23" class="node">
<title>Node23</title>
<g id="a_node23"><a xlink:href="sdi12_8h.html" target="_top" xlink:title="SDI&#45;12 command line interface handler.">
<polygon fill="white" stroke="#666666" points="1109,-200.5 985,-200.5 985,-181.5 1109,-181.5 1109,-200.5"/>
<text text-anchor="middle" x="1047" y="-188.5" font-family="Helvetica,sans-Serif" font-size="10.00">cli/peripherals/sdi12.h</text>
</a>
</g>
</g>
<!-- Node17&#45;&gt;Node23 -->
<g id="edge34" class="edge">
<title>Node17&#45;&gt;Node23</title>
<path fill="none" stroke="#63b8ff" d="M979.66,-241.87C992.14,-232.62 1012.18,-217.78 1027.16,-206.69"/>
<polygon fill="#63b8ff" stroke="#63b8ff" points="1029.34,-209.43 1035.3,-200.67 1025.18,-203.81 1029.34,-209.43"/>
</g>
<!-- Node24 -->
<g id="node24" class="node">
<title>Node24</title>
<g id="a_node24"><a xlink:href="cli__power_8h.html" target="_top" xlink:title=" ">
<polygon fill="white" stroke="#666666" points="757,-206 657,-206 657,-176 757,-176 757,-206"/>
<text text-anchor="start" x="665" y="-194" font-family="Helvetica,sans-Serif" font-size="10.00">cli/peripherals/cli</text>
<text text-anchor="middle" x="707" y="-183" font-family="Helvetica,sans-Serif" font-size="10.00">_power.h</text>
</a>
</g>
</g>
<!-- Node17&#45;&gt;Node24 -->
<g id="edge42" class="edge">
<title>Node17&#45;&gt;Node24</title>
<path fill="none" stroke="#63b8ff" d="M940.07,-244.24C899.09,-235.05 821.66,-217.7 767.33,-205.52"/>
<polygon fill="#63b8ff" stroke="#63b8ff" points="767.99,-202.08 757.47,-203.31 766.46,-208.91 767.99,-202.08"/>
</g>
<!-- Node25 -->
<g id="node25" class="node">
<title>Node25</title>
<g id="a_node25"><a xlink:href="sd__card_8h.html" target="_top" xlink:title=" ">
<polygon fill="white" stroke="#666666" points="1283,-206 1183,-206 1183,-176 1283,-176 1283,-206"/>
<text text-anchor="start" x="1191" y="-194" font-family="Helvetica,sans-Serif" font-size="10.00">cli/peripherals/sd</text>
<text text-anchor="middle" x="1233" y="-183" font-family="Helvetica,sans-Serif" font-size="10.00">_card.h</text>
</a>
</g>
</g>
<!-- Node17&#45;&gt;Node25 -->
<g id="edge48" class="edge">
<title>Node17&#45;&gt;Node25</title>
<path fill="none" stroke="#63b8ff" d="M995.86,-244.35C1037.52,-235.15 1117.06,-217.59 1172.48,-205.36"/>
<polygon fill="#63b8ff" stroke="#63b8ff" points="1173.53,-208.71 1182.54,-203.14 1172.02,-201.88 1173.53,-208.71"/>
</g>
<!-- Node27 -->
<g id="node27" class="node">
<title>Node27</title>
<g id="a_node27"><a xlink:href="acquisition__intervals_8h.html" target="_top" xlink:title="Handles the time between measurements and uplinks by the device over LTE.">
<polygon fill="white" stroke="#666666" points="967,-206 813,-206 813,-176 967,-176 967,-206"/>
<text text-anchor="start" x="821" y="-194" font-family="Helvetica,sans-Serif" font-size="10.00">cli/device_config/acquisition</text>
<text text-anchor="middle" x="890" y="-183" font-family="Helvetica,sans-Serif" font-size="10.00">_intervals.h</text>
</a>
</g>
</g>
<!-- Node17&#45;&gt;Node27 -->
<g id="edge51" class="edge">
<title>Node17&#45;&gt;Node27</title>
<path fill="none" stroke="#63b8ff" d="M956.49,-241.87C946.1,-234.08 930.42,-222.32 916.9,-212.17"/>
<polygon fill="#63b8ff" stroke="#63b8ff" points="918.92,-209.31 908.82,-206.11 914.72,-214.91 918.92,-209.31"/>
</g>
<!-- Node28 -->
<g id="node28" class="node">
<title>Node28</title>
<g id="a_node28"><a xlink:href="mqtt__cli_8h.html" target="_top" xlink:title="MQTT setup and configuration through the CLI.">
<polygon fill="white" stroke="#666666" points="1573,-206 1449,-206 1449,-176 1573,-176 1573,-206"/>
<text text-anchor="start" x="1457" y="-194" font-family="Helvetica,sans-Serif" font-size="10.00">cli/device_config/mqtt</text>
<text text-anchor="middle" x="1511" y="-183" font-family="Helvetica,sans-Serif" font-size="10.00">_cli.h</text>
</a>
</g>
</g>
<!-- Node17&#45;&gt;Node28 -->
<g id="edge57" class="edge">
<title>Node17&#45;&gt;Node28</title>
<path fill="none" stroke="#63b8ff" d="M995.52,-248.88C1066.95,-244.46 1264.3,-230.95 1438.6,-206.11"/>
<polygon fill="#63b8ff" stroke="#63b8ff" points="1439.32,-209.54 1448.72,-204.65 1438.33,-202.61 1439.32,-209.54"/>
</g>
<!-- Node29 -->
<g id="node29" class="node">
<title>Node29</title>
<g id="a_node29"><a xlink:href="ftp__cli_8h.html" target="_top" xlink:title="FTP setup and configuration through the CLI.">
<polygon fill="white" stroke="#666666" points="1704.5,-206 1591.5,-206 1591.5,-176 1704.5,-176 1704.5,-206"/>
<text text-anchor="start" x="1599.5" y="-194" font-family="Helvetica,sans-Serif" font-size="10.00">cli/device_config/ftp</text>
<text text-anchor="middle" x="1648" y="-183" font-family="Helvetica,sans-Serif" font-size="10.00">_cli.h</text>
</a>
</g>
</g>
<!-- Node17&#45;&gt;Node29 -->
<g id="edge59" class="edge">
<title>Node17&#45;&gt;Node29</title>
<path fill="none" stroke="#63b8ff" d="M995.68,-249.84C1081.29,-247.52 1349.39,-238.12 1581.24,-205.96"/>
<polygon fill="#63b8ff" stroke="#63b8ff" points="1581.79,-209.42 1591.21,-204.56 1580.82,-202.49 1581.79,-209.42"/>
</g>
<!-- Node30 -->
<g id="node30" class="node">
<title>Node30</title>
<g id="a_node30"><a xlink:href="config__cli_8h.html" target="_top" xlink:title=" ">
<polygon fill="white" stroke="#666666" points="1431,-206 1301,-206 1301,-176 1431,-176 1431,-206"/>
<text text-anchor="start" x="1309" y="-194" font-family="Helvetica,sans-Serif" font-size="10.00">cli/device_config/config</text>
<text text-anchor="middle" x="1366" y="-183" font-family="Helvetica,sans-Serif" font-size="10.00">_cli.h</text>
</a>
</g>
</g>
<!-- Node17&#45;&gt;Node30 -->
<g id="edge61" class="edge">
<title>Node17&#45;&gt;Node30</title>
<path fill="none" stroke="#63b8ff" d="M995.81,-247.16C1050.35,-240.51 1175.38,-224.76 1290.61,-206.18"/>
<polygon fill="#63b8ff" stroke="#63b8ff" points="1291.35,-209.6 1300.66,-204.55 1290.23,-202.69 1291.35,-209.6"/>
</g>
<!-- Node20&#45;&gt;Node3 -->
<g id="edge33" class="edge">
<title>Node20&#45;&gt;Node3</title>
<path fill="none" stroke="#63b8ff" d="M571.38,-181.37C569.64,-172.07 566.81,-156.98 564.54,-144.9"/>
<polygon fill="#63b8ff" stroke="#63b8ff" points="567.95,-144.09 562.67,-134.91 561.07,-145.38 567.95,-144.09"/>
</g>
<!-- Node20&#45;&gt;Node18 -->
<g id="edge29" class="edge">
<title>Node20&#45;&gt;Node18</title>
<path fill="none" stroke="#63b8ff" d="M616.55,-181.43C626.84,-179.53 637.79,-177.61 648,-176 772.38,-156.44 804.9,-161.27 929,-140 934.83,-139 940.93,-137.84 946.96,-136.62"/>
<polygon fill="#63b8ff" stroke="#63b8ff" points="947.9,-140 956.98,-134.54 946.48,-133.15 947.9,-140"/>
</g>
<!-- Node20&#45;&gt;Node19 -->
<g id="edge32" class="edge">
<title>Node20&#45;&gt;Node19</title>
<path fill="none" stroke="#63b8ff" d="M601.86,-181.37C639.78,-170.03 706.48,-150.08 748.62,-137.48"/>
<polygon fill="#63b8ff" stroke="#63b8ff" points="749.68,-140.82 758.26,-134.6 747.67,-134.11 749.68,-140.82"/>
</g>
<!-- Node21 -->
<g id="node21" class="node">
<title>Node21</title>
<g id="a_node21"><a xlink:title=" ">
<polygon fill="#e0e0e0" stroke="#999999" points="919.5,-134.5 858.5,-134.5 858.5,-115.5 919.5,-115.5 919.5,-134.5"/>
<text text-anchor="middle" x="889" y="-122.5" font-family="Helvetica,sans-Serif" font-size="10.00">Stream.h</text>
</a>
</g>
</g>
<!-- Node20&#45;&gt;Node21 -->
<g id="edge30" class="edge">
<title>Node20&#45;&gt;Node21</title>
<path fill="none" stroke="#63b8ff" d="M618.6,-181.43C628.3,-179.62 638.49,-177.74 648,-176 737.71,-159.63 761.88,-163.49 850,-140 852.49,-139.34 855.05,-138.58 857.61,-137.78"/>
<polygon fill="#63b8ff" stroke="#63b8ff" points="858.98,-141.01 867.34,-134.51 856.75,-134.38 858.98,-141.01"/>
</g>
<!-- Node22 -->
<g id="node22" class="node">
<title>Node22</title>
<g id="a_node22"><a xlink:title=" ">
<polygon fill="#e0e0e0" stroke="#999999" points="715.5,-134.5 626.5,-134.5 626.5,-115.5 715.5,-115.5 715.5,-134.5"/>
<text text-anchor="middle" x="671" y="-122.5" font-family="Helvetica,sans-Serif" font-size="10.00">StreamString.h</text>
</a>
</g>
</g>
<!-- Node20&#45;&gt;Node22 -->
<g id="edge31" class="edge">
<title>Node20&#45;&gt;Node22</title>
<path fill="none" stroke="#63b8ff" d="M586.22,-181.37C602.36,-170.82 629.91,-152.84 649.21,-140.23"/>
<polygon fill="#63b8ff" stroke="#63b8ff" points="651.22,-143.1 657.68,-134.7 647.39,-137.24 651.22,-143.1"/>
</g>
<!-- Node23&#45;&gt;Node7 -->
<g id="edge41" class="edge">
<title>Node23&#45;&gt;Node7</title>
<path fill="none" stroke="#63b8ff" d="M1063.72,-181.37C1084.62,-170.59 1120.59,-152.02 1145.07,-139.38"/>
<polygon fill="#63b8ff" stroke="#63b8ff" points="1146.86,-142.4 1154.15,-134.7 1143.65,-136.18 1146.86,-142.4"/>
</g>
<!-- Node23&#45;&gt;Node10 -->
<g id="edge39" class="edge">
<title>Node23&#45;&gt;Node10</title>
<path fill="none" stroke="#63b8ff" d="M1049.31,-181.15C1051.92,-171.16 1056.29,-154.42 1060,-140 1064.88,-121.05 1070.4,-99.37 1074.23,-84.3"/>
<polygon fill="#63b8ff" stroke="#63b8ff" points="1077.72,-84.77 1076.79,-74.22 1070.94,-83.05 1077.72,-84.77"/>
</g>
<!-- Node23&#45;&gt;Node18 -->
<g id="edge35" class="edge">
<title>Node23&#45;&gt;Node18</title>
<path fill="none" stroke="#63b8ff" d="M1039.85,-181.37C1031.68,-171.5 1018.11,-155.11 1007.84,-142.72"/>
<polygon fill="#63b8ff" stroke="#63b8ff" points="1010.45,-140.37 1001.37,-134.91 1005.06,-144.84 1010.45,-140.37"/>
</g>
<!-- Node23&#45;&gt;Node19 -->
<g id="edge40" class="edge">
<title>Node23&#45;&gt;Node19</title>
<path fill="none" stroke="#63b8ff" d="M1012.21,-181.44C965.5,-169.94 882.52,-149.51 831.37,-136.92"/>
<polygon fill="#63b8ff" stroke="#63b8ff" points="832.14,-133.51 821.59,-134.51 830.46,-140.3 832.14,-133.51"/>
</g>
<!-- Node23&#45;&gt;Node21 -->
<g id="edge36" class="edge">
<title>Node23&#45;&gt;Node21</title>
<path fill="none" stroke="#63b8ff" d="M1025.69,-181.37C998.4,-170.32 950.93,-151.08 919.73,-138.45"/>
<polygon fill="#63b8ff" stroke="#63b8ff" points="920.81,-135.11 910.22,-134.6 918.18,-141.59 920.81,-135.11"/>
</g>
<!-- Node23&#45;&gt;Node22 -->
<g id="edge37" class="edge">
<title>Node23&#45;&gt;Node22</title>
<path fill="none" stroke="#63b8ff" d="M1005.77,-181.49C996.03,-179.59 985.66,-177.64 976,-176 864.9,-157.09 835.49,-162.18 725,-140 720.55,-139.11 715.93,-138.07 711.33,-136.98"/>
<polygon fill="#63b8ff" stroke="#63b8ff" points="711.97,-133.53 701.42,-134.52 710.28,-140.32 711.97,-133.53"/>
</g>
<!-- Node23&#45;&gt;Node23 -->
<g id="edge38" class="edge">
<title>Node23&#45;&gt;Node23</title>
<path fill="none" stroke="#63b8ff" d="M1076.54,-200.53C1101.22,-204.61 1127,-201.43 1127,-191 1127,-182 1107.78,-178.4 1086.65,-180.2"/>
<polygon fill="#63b8ff" stroke="#63b8ff" points="1086.03,-176.75 1076.54,-181.47 1086.9,-183.7 1086.03,-176.75"/>
</g>
<!-- Node24&#45;&gt;Node3 -->
<g id="edge47" class="edge">
<title>Node24&#45;&gt;Node3</title>
<path fill="none" stroke="#63b8ff" d="M674.96,-175.95C649.58,-164.83 614.44,-149.42 589.91,-138.67"/>
<polygon fill="#63b8ff" stroke="#63b8ff" points="590.99,-135.33 580.43,-134.52 588.18,-141.74 590.99,-135.33"/>
</g>
<!-- Node24&#45;&gt;Node18 -->
<g id="edge43" class="edge">
<title>Node24&#45;&gt;Node18</title>
<path fill="none" stroke="#63b8ff" d="M757.32,-178.78C810.37,-166.95 893.36,-148.44 945.65,-136.78"/>
<polygon fill="#63b8ff" stroke="#63b8ff" points="946.69,-140.14 955.68,-134.54 945.16,-133.3 946.69,-140.14"/>
</g>
<!-- Node24&#45;&gt;Node19 -->
<g id="edge46" class="edge">
<title>Node24&#45;&gt;Node19</title>
<path fill="none" stroke="#63b8ff" d="M724.75,-175.8C737.59,-165.53 754.92,-151.67 768.03,-141.18"/>
<polygon fill="#63b8ff" stroke="#63b8ff" points="770.32,-143.82 775.94,-134.84 765.95,-138.36 770.32,-143.82"/>
</g>
<!-- Node24&#45;&gt;Node21 -->
<g id="edge44" class="edge">
<title>Node24&#45;&gt;Node21</title>
<path fill="none" stroke="#63b8ff" d="M747.4,-175.97C776.06,-166 815.42,-152.25 850,-140 851.83,-139.35 853.71,-138.68 855.6,-138.01"/>
<polygon fill="#63b8ff" stroke="#63b8ff" points="856.85,-141.28 865.09,-134.62 854.49,-134.69 856.85,-141.28"/>
</g>
<!-- Node24&#45;&gt;Node22 -->
<g id="edge45" class="edge">
<title>Node24&#45;&gt;Node22</title>
<path fill="none" stroke="#63b8ff" d="M699.01,-175.8C693.67,-166.31 686.61,-153.76 680.92,-143.63"/>
<polygon fill="#63b8ff" stroke="#63b8ff" points="683.93,-141.84 675.97,-134.84 677.83,-145.28 683.93,-141.84"/>
</g>
<!-- Node25&#45;&gt;Node18 -->
<g id="edge49" class="edge">
<title>Node25&#45;&gt;Node18</title>
<path fill="none" stroke="#63b8ff" d="M1182.9,-176.58C1139.14,-164.87 1076.4,-148.06 1035.43,-137.09"/>
<polygon fill="#63b8ff" stroke="#63b8ff" points="1036.32,-133.71 1025.76,-134.5 1034.51,-140.47 1036.32,-133.71"/>
</g>
<!-- Node26 -->
<g id="node26" class="node">
<title>Node26</title>
<g id="a_node26"><a xlink:title=" ">
<polygon fill="#e0e0e0" stroke="#999999" points="1257,-134.5 1213,-134.5 1213,-115.5 1257,-115.5 1257,-134.5"/>
<text text-anchor="middle" x="1235" y="-122.5" font-family="Helvetica,sans-Serif" font-size="10.00">string</text>
</a>
</g>
</g>
<!-- Node25&#45;&gt;Node26 -->
<g id="edge50" class="edge">
<title>Node25&#45;&gt;Node26</title>
<path fill="none" stroke="#63b8ff" d="M1233.44,-175.8C1233.73,-166.7 1234.1,-154.79 1234.41,-144.9"/>
<polygon fill="#63b8ff" stroke="#63b8ff" points="1237.91,-144.95 1234.72,-134.84 1230.91,-144.73 1237.91,-144.95"/>
</g>
<!-- Node27&#45;&gt;Node11 -->
<g id="edge56" class="edge">
<title>Node27&#45;&gt;Node11</title>
<path fill="none" stroke="#63b8ff" d="M967.33,-177.27C970.26,-176.83 973.15,-176.41 976,-176 1104.56,-157.56 1137.24,-157 1266,-140 1280.4,-138.1 1295.96,-135.96 1310.42,-133.94"/>
<polygon fill="#63b8ff" stroke="#63b8ff" points="1311.3,-137.35 1320.72,-132.49 1310.33,-130.42 1311.3,-137.35"/>
</g>
<!-- Node27&#45;&gt;Node18 -->
<g id="edge52" class="edge">
<title>Node27&#45;&gt;Node18</title>
<path fill="none" stroke="#63b8ff" d="M912.82,-175.95C930.18,-165.27 953.94,-150.65 971.27,-139.98"/>
<polygon fill="#63b8ff" stroke="#63b8ff" points="973.48,-142.74 980.16,-134.52 969.81,-136.78 973.48,-142.74"/>
</g>
<!-- Node27&#45;&gt;Node19 -->
<g id="edge55" class="edge">
<title>Node27&#45;&gt;Node19</title>
<path fill="none" stroke="#63b8ff" d="M867.4,-175.95C850.21,-165.27 826.67,-150.65 809.51,-139.98"/>
<polygon fill="#63b8ff" stroke="#63b8ff" points="811.05,-136.82 800.71,-134.52 807.35,-142.77 811.05,-136.82"/>
</g>
<!-- Node27&#45;&gt;Node21 -->
<g id="edge53" class="edge">
<title>Node27&#45;&gt;Node21</title>
<path fill="none" stroke="#63b8ff" d="M889.78,-175.8C889.64,-166.7 889.45,-154.79 889.3,-144.9"/>
<polygon fill="#63b8ff" stroke="#63b8ff" points="892.79,-144.79 889.14,-134.84 885.79,-144.9 892.79,-144.79"/>
</g>
<!-- Node27&#45;&gt;Node22 -->
<g id="edge54" class="edge">
<title>Node27&#45;&gt;Node22</title>
<path fill="none" stroke="#63b8ff" d="M841.94,-175.95C802.35,-164.38 746.91,-148.18 710.03,-137.41"/>
<polygon fill="#63b8ff" stroke="#63b8ff" points="710.73,-133.96 700.15,-134.52 708.76,-140.68 710.73,-133.96"/>
</g>
<!-- Node28&#45;&gt;Node11 -->
<g id="edge58" class="edge">
<title>Node28&#45;&gt;Node11</title>
<path fill="none" stroke="#63b8ff" d="M1479.18,-175.95C1453.97,-164.83 1419.07,-149.42 1394.71,-138.67"/>
<polygon fill="#63b8ff" stroke="#63b8ff" points="1395.86,-135.35 1385.3,-134.52 1393.03,-141.76 1395.86,-135.35"/>
</g>
<!-- Node29&#45;&gt;Node11 -->
<g id="edge60" class="edge">
<title>Node29&#45;&gt;Node11</title>
<path fill="none" stroke="#63b8ff" d="M1591.27,-177.13C1539.17,-165.3 1462.81,-147.97 1413.75,-136.84"/>
<polygon fill="#63b8ff" stroke="#63b8ff" points="1414.25,-133.36 1403.72,-134.56 1412.7,-140.19 1414.25,-133.36"/>
</g>
<!-- Node30&#45;&gt;Node11 -->
<g id="edge62" class="edge">
<title>Node30&#45;&gt;Node11</title>
<path fill="none" stroke="#63b8ff" d="M1366,-175.8C1366,-166.7 1366,-154.79 1366,-144.9"/>
<polygon fill="#63b8ff" stroke="#63b8ff" points="1369.5,-144.84 1366,-134.84 1362.5,-144.84 1369.5,-144.84"/>
</g>
</g>
</svg>
