<?xml version="1.0" encoding="UTF-8" standalone="no"?>
<!DOCTYPE svg PUBLIC "-//W3C//DTD SVG 1.1//EN"
 "http://www.w3.org/Graphics/SVG/1.1/DTD/svg11.dtd">
<!-- Generated by graphviz version 2.43.0 (0)
 -->
<!-- Title: firmware/wombat/src/ftp_stack.cpp Pages: 1 -->
<svg width="336pt" height="269pt"
 viewBox="0.00 0.00 336.40 269.00" xmlns="http://www.w3.org/2000/svg" xmlns:xlink="http://www.w3.org/1999/xlink">
<g id="graph0" class="graph" transform="scale(1 1) rotate(0) translate(4 265)">
<title>firmware/wombat/src/ftp_stack.cpp</title>
<!-- Node1 -->
<g id="node1" class="node">
<title>Node1</title>
<g id="a_node1"><a xlink:title=" ">
<polygon fill="#999999" stroke="#666666" points="213.9,-261 93.9,-261 93.9,-231 213.9,-231 213.9,-261"/>
<text text-anchor="start" x="101.9" y="-249" font-family="Helvetica,sans-Serif" font-size="10.00">firmware/wombat/src</text>
<text text-anchor="middle" x="153.9" y="-238" font-family="Helvetica,sans-Serif" font-size="10.00">/ftp_stack.cpp</text>
</a>
</g>
</g>
<!-- Node2 -->
<g id="node2" class="node">
<title>Node2</title>
<g id="a_node2"><a xlink:href="_device_config_8h.html" target="_top" xlink:title="Node configuration options.">
<polygon fill="white" stroke="#666666" points="99.9,-195 9.9,-195 9.9,-176 99.9,-176 99.9,-195"/>
<text text-anchor="middle" x="54.9" y="-183" font-family="Helvetica,sans-Serif" font-size="10.00">DeviceConfig.h</text>
</a>
</g>
</g>
<!-- Node1&#45;&gt;Node2 -->
<g id="edge1" class="edge">
<title>Node1&#45;&gt;Node2</title>
<path fill="none" stroke="#63b8ff" d="M130.19,-230.99C114.56,-221.75 94.16,-209.7 78.55,-200.47"/>
<polygon fill="#63b8ff" stroke="#63b8ff" points="79.91,-197.21 69.52,-195.14 76.35,-203.24 79.91,-197.21"/>
</g>
<!-- Node5 -->
<g id="node5" class="node">
<title>Node5</title>
<g id="a_node5"><a xlink:title=" ">
<polygon fill="#e0e0e0" stroke="#999999" points="244.9,-140 114.9,-140 114.9,-110 244.9,-110 244.9,-140"/>
<text text-anchor="start" x="122.9" y="-128" font-family="Helvetica,sans-Serif" font-size="10.00">SparkFun_u&#45;blox_SARA</text>
<text text-anchor="middle" x="179.9" y="-117" font-family="Helvetica,sans-Serif" font-size="10.00">&#45;R5_Arduino_Library.h</text>
</a>
</g>
</g>
<!-- Node1&#45;&gt;Node5 -->
<g id="edge4" class="edge">
<title>Node1&#45;&gt;Node5</title>
<path fill="none" stroke="#63b8ff" d="M156.99,-230.88C161.35,-210.93 169.37,-174.22 174.67,-149.96"/>
<polygon fill="#63b8ff" stroke="#63b8ff" points="178.11,-150.62 176.82,-140.1 171.27,-149.12 178.11,-150.62"/>
</g>
<!-- Node6 -->
<g id="node6" class="node">
<title>Node6</title>
<g id="a_node6"><a xlink:href="globals_8h.html" target="_top" xlink:title=" ">
<polygon fill="white" stroke="#666666" points="243.4,-195 182.4,-195 182.4,-176 243.4,-176 243.4,-195"/>
<text text-anchor="middle" x="212.9" y="-183" font-family="Helvetica,sans-Serif" font-size="10.00">globals.h</text>
</a>
</g>
</g>
<!-- Node1&#45;&gt;Node6 -->
<g id="edge5" class="edge">
<title>Node1&#45;&gt;Node6</title>
<path fill="none" stroke="#63b8ff" d="M168.19,-230.84C176.84,-222.26 187.89,-211.3 196.85,-202.42"/>
<polygon fill="#63b8ff" stroke="#63b8ff" points="199.43,-204.79 204.06,-195.27 194.5,-199.82 199.43,-204.79"/>
</g>
<!-- Node3 -->
<g id="node3" class="node">
<title>Node3</title>
<g id="a_node3"><a xlink:title=" ">
<polygon fill="#e0e0e0" stroke="#999999" points="119.4,-19 56.4,-19 56.4,0 119.4,0 119.4,-19"/>
<text text-anchor="middle" x="87.9" y="-7" font-family="Helvetica,sans-Serif" font-size="10.00">Arduino.h</text>
</a>
</g>
</g>
<!-- Node2&#45;&gt;Node3 -->
<g id="edge2" class="edge">
<title>Node2&#45;&gt;Node3</title>
<path fill="none" stroke="#63b8ff" d="M39.17,-175.88C27.02,-168.23 11.1,-155.83 3.9,-140 -1.61,-127.86 -0.68,-122.52 3.9,-110 16.8,-74.73 48.33,-43.34 68.88,-25.64"/>
<polygon fill="#63b8ff" stroke="#63b8ff" points="71.24,-28.23 76.67,-19.13 66.75,-22.86 71.24,-28.23"/>
</g>
<!-- Node4 -->
<g id="node4" class="node">
<title>Node4</title>
<g id="a_node4"><a xlink:title=" ">
<polygon fill="#e0e0e0" stroke="#999999" points="96.4,-134.5 13.4,-134.5 13.4,-115.5 96.4,-115.5 96.4,-134.5"/>
<text text-anchor="middle" x="54.9" y="-122.5" font-family="Helvetica,sans-Serif" font-size="10.00">ArduinoJson.h</text>
</a>
</g>
</g>
<!-- Node2&#45;&gt;Node4 -->
<g id="edge3" class="edge">
<title>Node2&#45;&gt;Node4</title>
<path fill="none" stroke="#63b8ff" d="M54.9,-175.87C54.9,-167.75 54.9,-155.31 54.9,-144.89"/>
<polygon fill="#63b8ff" stroke="#63b8ff" points="58.4,-144.67 54.9,-134.67 51.4,-144.67 58.4,-144.67"/>
</g>
<!-- Node6&#45;&gt;Node5 -->
<g id="edge6" class="edge">
<title>Node6&#45;&gt;Node5</title>
<path fill="none" stroke="#63b8ff" d="M208.03,-175.87C204.05,-168.81 198.24,-158.5 192.92,-149.08"/>
<polygon fill="#63b8ff" stroke="#63b8ff" points="195.83,-147.1 187.87,-140.11 189.73,-150.54 195.83,-147.1"/>
</g>
<!-- Node7 -->
<g id="node7" class="node">
<title>Node7</title>
<g id="a_node7"><a xlink:href="_c_a_t___m1_8h.html" target="_top" xlink:title=" ">
<polygon fill="white" stroke="#666666" points="328.4,-134.5 263.4,-134.5 263.4,-115.5 328.4,-115.5 328.4,-134.5"/>
<text text-anchor="middle" x="295.9" y="-122.5" font-family="Helvetica,sans-Serif" font-size="10.00">CAT_M1.h</text>
</a>
</g>
</g>
<!-- Node6&#45;&gt;Node7 -->
<g id="edge7" class="edge">
<title>Node6&#45;&gt;Node7</title>
<path fill="none" stroke="#63b8ff" d="M225.15,-175.87C238.27,-166.62 259.32,-151.78 275.06,-140.69"/>
<polygon fill="#63b8ff" stroke="#63b8ff" points="277.45,-143.29 283.61,-134.67 273.42,-137.57 277.45,-143.29"/>
</g>
<!-- Node8 -->
<g id="node8" class="node">
<title>Node8</title>
<g id="a_node8"><a xlink:title=" ">
<polygon fill="#e0e0e0" stroke="#999999" points="288.9,-19 240.9,-19 240.9,0 288.9,0 288.9,-19"/>
<text text-anchor="middle" x="264.9" y="-7" font-family="Helvetica,sans-Serif" font-size="10.00">Wire.h</text>
</a>
</g>
</g>
<!-- Node7&#45;&gt;Node8 -->
<g id="edge8" class="edge">
<title>Node7&#45;&gt;Node8</title>
<path fill="none" stroke="#63b8ff" d="M293.57,-115.47C288.57,-97.15 276.7,-53.68 269.9,-28.81"/>
<polygon fill="#63b8ff" stroke="#63b8ff" points="273.27,-27.85 267.26,-19.13 266.52,-29.7 273.27,-27.85"/>
</g>
<!-- Node9 -->
<g id="node9" class="node">
<title>Node9</title>
<g id="a_node9"><a xlink:href="_t_c_a9534_8h.html" target="_top" xlink:title=" ">
<polygon fill="white" stroke="#666666" points="267.9,-74 199.9,-74 199.9,-55 267.9,-55 267.9,-74"/>
<text text-anchor="middle" x="233.9" y="-62" font-family="Helvetica,sans-Serif" font-size="10.00">TCA9534.h</text>
</a>
</g>
</g>
<!-- Node7&#45;&gt;Node9 -->
<g id="edge9" class="edge">
<title>Node7&#45;&gt;Node9</title>
<path fill="none" stroke="#63b8ff" d="M286.76,-115.37C277.23,-106.38 262.11,-92.11 250.47,-81.14"/>
<polygon fill="#63b8ff" stroke="#63b8ff" points="252.76,-78.48 243.09,-74.17 247.96,-83.58 252.76,-78.48"/>
</g>
<!-- Node9&#45;&gt;Node3 -->
<g id="edge10" class="edge">
<title>Node9&#45;&gt;Node3</title>
<path fill="none" stroke="#63b8ff" d="M210.45,-54.98C186.32,-46.23 148.54,-32.51 121.3,-22.62"/>
<polygon fill="#63b8ff" stroke="#63b8ff" points="122.38,-19.29 111.79,-19.17 119.99,-25.87 122.38,-19.29"/>
</g>
<!-- Node9&#45;&gt;Node8 -->
<g id="edge11" class="edge">
<title>Node9&#45;&gt;Node8</title>
<path fill="none" stroke="#63b8ff" d="M239.02,-54.75C243.27,-47.49 249.43,-36.95 254.68,-27.98"/>
<polygon fill="#63b8ff" stroke="#63b8ff" points="257.85,-29.49 259.88,-19.09 251.81,-25.95 257.85,-29.49"/>
</g>
</g>
</svg>
