<?xml version="1.0" encoding="UTF-8" standalone="no"?>
<!DOCTYPE svg PUBLIC "-//W3C//DTD SVG 1.1//EN"
 "http://www.w3.org/Graphics/SVG/1.1/DTD/svg11.dtd">
<!-- Generated by graphviz version 2.43.0 (0)
 -->
<!-- Title: firmware/wombat/include/cli/device_config/ftp_cli.h Pages: 1 -->
<svg width="1585pt" height="181pt"
 viewBox="0.00 0.00 1585.00 181.00" xmlns="http://www.w3.org/2000/svg" xmlns:xlink="http://www.w3.org/1999/xlink">
<g id="graph0" class="graph" transform="scale(1 1) rotate(0) translate(4 177)">
<title>firmware/wombat/include/cli/device_config/ftp_cli.h</title>
<!-- Node1 -->
<g id="node1" class="node">
<title>Node1</title>
<g id="a_node1"><a xlink:title="FTP setup and configuration through the CLI.">
<polygon fill="#999999" stroke="#666666" points="802,-173 660,-173 660,-143 802,-143 802,-173"/>
<text text-anchor="start" x="668" y="-161" font-family="Helvetica,sans-Serif" font-size="10.00">firmware/wombat/include</text>
<text text-anchor="middle" x="731" y="-150" font-family="Helvetica,sans-Serif" font-size="10.00">/cli/device_config/ftp_cli.h</text>
</a>
</g>
</g>
<!-- Node2 -->
<g id="node2" class="node">
<title>Node2</title>
<g id="a_node2"><a xlink:href="_c_l_i_8h.html" target="_top" xlink:title="FreeRTOS CLI handler.">
<polygon fill="white" stroke="#666666" points="801.5,-107 660.5,-107 660.5,-77 801.5,-77 801.5,-107"/>
<text text-anchor="start" x="668.5" y="-95" font-family="Helvetica,sans-Serif" font-size="10.00">firmware/wombat/include</text>
<text text-anchor="middle" x="731" y="-84" font-family="Helvetica,sans-Serif" font-size="10.00">/cli/CLI.h</text>
</a>
</g>
</g>
<!-- Node1&#45;&gt;Node2 -->
<g id="edge1" class="edge">
<title>Node1&#45;&gt;Node2</title>
<path fill="none" stroke="#63b8ff" d="M731,-132.54C731,-123.96 731,-114.61 731,-107.16"/>
<polygon fill="#63b8ff" stroke="#63b8ff" points="727.5,-132.8 731,-142.8 734.5,-132.8 727.5,-132.8"/>
</g>
<!-- Node7 -->
<g id="node7" class="node">
<title>Node7</title>
<g id="a_node7"><a xlink:href="ftp__cli_8cpp.html" target="_top" xlink:title="FTP setup and configuration through the CLI.">
<polygon fill="white" stroke="#666666" points="120,-41 0,-41 0,0 120,0 120,-41"/>
<text text-anchor="start" x="8" y="-29" font-family="Helvetica,sans-Serif" font-size="10.00">firmware/wombat/src</text>
<text text-anchor="start" x="8" y="-18" font-family="Helvetica,sans-Serif" font-size="10.00">/cli/device_config/ftp</text>
<text text-anchor="middle" x="60" y="-7" font-family="Helvetica,sans-Serif" font-size="10.00">_cli.cpp</text>
</a>
</g>
</g>
<!-- Node1&#45;&gt;Node7 -->
<g id="edge14" class="edge">
<title>Node1&#45;&gt;Node7</title>
<path fill="none" stroke="#63b8ff" d="M649.8,-143.61C533.72,-123.97 313.91,-84.86 129,-41 126.09,-40.31 123.12,-39.58 120.13,-38.82"/>
<polygon fill="#63b8ff" stroke="#63b8ff" points="649.24,-147.07 659.69,-145.28 650.41,-140.17 649.24,-147.07"/>
</g>
<!-- Node14 -->
<g id="node14" class="node">
<title>Node14</title>
<g id="a_node14"><a xlink:href="_device_config_8cpp.html" target="_top" xlink:title=" ">
<polygon fill="white" stroke="#666666" points="940,-107 820,-107 820,-77 940,-77 940,-107"/>
<text text-anchor="start" x="828" y="-95" font-family="Helvetica,sans-Serif" font-size="10.00">firmware/wombat/src</text>
<text text-anchor="middle" x="880" y="-84" font-family="Helvetica,sans-Serif" font-size="10.00">/DeviceConfig.cpp</text>
</a>
</g>
</g>
<!-- Node1&#45;&gt;Node14 -->
<g id="edge13" class="edge">
<title>Node1&#45;&gt;Node14</title>
<path fill="none" stroke="#63b8ff" d="M773.09,-138.92C796.64,-128.8 825.56,-116.38 847.38,-107.01"/>
<polygon fill="#63b8ff" stroke="#63b8ff" points="771.51,-135.79 763.7,-142.95 774.27,-142.22 771.51,-135.79"/>
</g>
<!-- Node3 -->
<g id="node3" class="node">
<title>Node3</title>
<g id="a_node3"><a xlink:href="_c_l_i_8cpp.html" target="_top" xlink:title="FreeRTOS CLI handler.">
<polygon fill="white" stroke="#666666" points="258,-35.5 138,-35.5 138,-5.5 258,-5.5 258,-35.5"/>
<text text-anchor="start" x="146" y="-23.5" font-family="Helvetica,sans-Serif" font-size="10.00">firmware/wombat/src</text>
<text text-anchor="middle" x="198" y="-12.5" font-family="Helvetica,sans-Serif" font-size="10.00">/cli/CLI.cpp</text>
</a>
</g>
</g>
<!-- Node2&#45;&gt;Node3 -->
<g id="edge2" class="edge">
<title>Node2&#45;&gt;Node3</title>
<path fill="none" stroke="#63b8ff" d="M650.09,-86.3C557.21,-79.97 400.59,-66.45 268,-41 260.32,-39.53 252.25,-37.62 244.44,-35.58"/>
<polygon fill="#63b8ff" stroke="#63b8ff" points="650.05,-89.8 660.26,-86.98 650.52,-82.82 650.05,-89.8"/>
</g>
<!-- Node4 -->
<g id="node4" class="node">
<title>Node4</title>
<g id="a_node4"><a xlink:href="acquisition__intervals_8cpp.html" target="_top" xlink:title="Handles the time between measurements and uplinks by the device over LTE.">
<polygon fill="white" stroke="#666666" points="433.5,-41 276.5,-41 276.5,0 433.5,0 433.5,-41"/>
<text text-anchor="start" x="284.5" y="-29" font-family="Helvetica,sans-Serif" font-size="10.00">firmware/wombat/src</text>
<text text-anchor="start" x="284.5" y="-18" font-family="Helvetica,sans-Serif" font-size="10.00">/cli/device_config/acquisition</text>
<text text-anchor="middle" x="355" y="-7" font-family="Helvetica,sans-Serif" font-size="10.00">_intervals.cpp</text>
</a>
</g>
</g>
<!-- Node2&#45;&gt;Node4 -->
<g id="edge3" class="edge">
<title>Node2&#45;&gt;Node4</title>
<path fill="none" stroke="#63b8ff" d="M650.23,-78C592.4,-68.45 512.75,-54.77 443,-41 439.93,-40.39 436.8,-39.76 433.64,-39.12"/>
<polygon fill="#63b8ff" stroke="#63b8ff" points="649.97,-81.51 660.41,-79.68 651.11,-74.6 649.97,-81.51"/>
</g>
<!-- Node5 -->
<g id="node5" class="node">
<title>Node5</title>
<g id="a_node5"><a xlink:href="cli__power_8cpp.html" target="_top" xlink:title="Power related commands.">
<polygon fill="white" stroke="#666666" points="572,-41 452,-41 452,0 572,0 572,-41"/>
<text text-anchor="start" x="460" y="-29" font-family="Helvetica,sans-Serif" font-size="10.00">firmware/wombat/src</text>
<text text-anchor="start" x="460" y="-18" font-family="Helvetica,sans-Serif" font-size="10.00">/cli/device_config/cli</text>
<text text-anchor="middle" x="512" y="-7" font-family="Helvetica,sans-Serif" font-size="10.00">_power.cpp</text>
</a>
</g>
</g>
<!-- Node2&#45;&gt;Node5 -->
<g id="edge4" class="edge">
<title>Node2&#45;&gt;Node5</title>
<path fill="none" stroke="#63b8ff" d="M677.09,-73.89C645.25,-63.79 604.88,-50.97 572.02,-40.55"/>
<polygon fill="#63b8ff" stroke="#63b8ff" points="676.09,-77.25 686.68,-76.94 678.21,-70.57 676.09,-77.25"/>
</g>
<!-- Node6 -->
<g id="node6" class="node">
<title>Node6</title>
<g id="a_node6"><a xlink:href="config__cli_8cpp.html" target="_top" xlink:title="Command line interface node configuration commands.">
<polygon fill="white" stroke="#666666" points="723.5,-41 590.5,-41 590.5,0 723.5,0 723.5,-41"/>
<text text-anchor="start" x="598.5" y="-29" font-family="Helvetica,sans-Serif" font-size="10.00">firmware/wombat/src</text>
<text text-anchor="start" x="598.5" y="-18" font-family="Helvetica,sans-Serif" font-size="10.00">/cli/device_config/config</text>
<text text-anchor="middle" x="657" y="-7" font-family="Helvetica,sans-Serif" font-size="10.00">_cli.cpp</text>
</a>
</g>
</g>
<!-- Node2&#45;&gt;Node6 -->
<g id="edge5" class="edge">
<title>Node2&#45;&gt;Node6</title>
<path fill="none" stroke="#63b8ff" d="M708.6,-69.96C698.82,-60.78 687.43,-50.08 677.84,-41.07"/>
<polygon fill="#63b8ff" stroke="#63b8ff" points="706.34,-72.64 716.02,-76.94 711.13,-67.54 706.34,-72.64"/>
</g>
<!-- Node2&#45;&gt;Node7 -->
<g id="edge6" class="edge">
<title>Node2&#45;&gt;Node7</title>
<path fill="none" stroke="#63b8ff" d="M650.22,-89.22C534.08,-85.55 313.57,-74.42 129,-41 126.06,-40.47 123.07,-39.86 120.05,-39.21"/>
<polygon fill="#63b8ff" stroke="#63b8ff" points="650.35,-92.73 660.45,-89.53 650.56,-85.73 650.35,-92.73"/>
</g>
<!-- Node8 -->
<g id="node8" class="node">
<title>Node8</title>
<g id="a_node8"><a xlink:href="mqtt__cli_8cpp.html" target="_top" xlink:title="MQTT setup and configuration through the CLI.">
<polygon fill="white" stroke="#666666" points="868.5,-41 741.5,-41 741.5,0 868.5,0 868.5,-41"/>
<text text-anchor="start" x="749.5" y="-29" font-family="Helvetica,sans-Serif" font-size="10.00">firmware/wombat/src</text>
<text text-anchor="start" x="749.5" y="-18" font-family="Helvetica,sans-Serif" font-size="10.00">/cli/device_config/mqtt</text>
<text text-anchor="middle" x="805" y="-7" font-family="Helvetica,sans-Serif" font-size="10.00">_cli.cpp</text>
</a>
</g>
</g>
<!-- Node2&#45;&gt;Node8 -->
<g id="edge7" class="edge">
<title>Node2&#45;&gt;Node8</title>
<path fill="none" stroke="#63b8ff" d="M753.4,-69.96C763.18,-60.78 774.57,-50.08 784.16,-41.07"/>
<polygon fill="#63b8ff" stroke="#63b8ff" points="750.87,-67.54 745.98,-76.94 755.66,-72.64 750.87,-67.54"/>
</g>
<!-- Node9 -->
<g id="node9" class="node">
<title>Node9</title>
<g id="a_node9"><a xlink:href="cat-m1_8cpp.html" target="_top" xlink:title="CAT&#45;M1 CLI command request and response handler.">
<polygon fill="white" stroke="#666666" points="1007,-41 887,-41 887,0 1007,0 1007,-41"/>
<text text-anchor="start" x="895" y="-29" font-family="Helvetica,sans-Serif" font-size="10.00">firmware/wombat/src</text>
<text text-anchor="start" x="895" y="-18" font-family="Helvetica,sans-Serif" font-size="10.00">/cli/peripherals/cat</text>
<text text-anchor="middle" x="947" y="-7" font-family="Helvetica,sans-Serif" font-size="10.00">&#45;m1.cpp</text>
</a>
</g>
</g>
<!-- Node2&#45;&gt;Node9 -->
<g id="edge8" class="edge">
<title>Node2&#45;&gt;Node9</title>
<path fill="none" stroke="#63b8ff" d="M784.5,-73.79C815.59,-63.78 854.84,-51.15 886.98,-40.81"/>
<polygon fill="#63b8ff" stroke="#63b8ff" points="783.16,-70.54 774.71,-76.94 785.3,-77.2 783.16,-70.54"/>
</g>
<!-- Node10 -->
<g id="node10" class="node">
<title>Node10</title>
<g id="a_node10"><a xlink:href="sd__card_8cpp.html" target="_top" xlink:title=" ">
<polygon fill="white" stroke="#666666" points="1145,-41 1025,-41 1025,0 1145,0 1145,-41"/>
<text text-anchor="start" x="1033" y="-29" font-family="Helvetica,sans-Serif" font-size="10.00">firmware/wombat/src</text>
<text text-anchor="start" x="1033" y="-18" font-family="Helvetica,sans-Serif" font-size="10.00">/cli/peripherals/sd</text>
<text text-anchor="middle" x="1085" y="-7" font-family="Helvetica,sans-Serif" font-size="10.00">_card.cpp</text>
</a>
</g>
</g>
<!-- Node2&#45;&gt;Node10 -->
<g id="edge9" class="edge">
<title>Node2&#45;&gt;Node10</title>
<path fill="none" stroke="#63b8ff" d="M811.8,-76.85C895.62,-62.17 1014.73,-41.29 1016,-41 1018.91,-40.33 1021.89,-39.62 1024.88,-38.88"/>
<polygon fill="#63b8ff" stroke="#63b8ff" points="811.01,-73.44 801.76,-78.61 812.22,-80.33 811.01,-73.44"/>
</g>
<!-- Node11 -->
<g id="node11" class="node">
<title>Node11</title>
<g id="a_node11"><a xlink:href="sdi12_8cpp.html" target="_top" xlink:title="SDI&#45;12 command line interface handler.">
<polygon fill="white" stroke="#666666" points="1301,-35.5 1163,-35.5 1163,-5.5 1301,-5.5 1301,-35.5"/>
<text text-anchor="start" x="1171" y="-23.5" font-family="Helvetica,sans-Serif" font-size="10.00">firmware/wombat/src</text>
<text text-anchor="middle" x="1232" y="-12.5" font-family="Helvetica,sans-Serif" font-size="10.00">/cli/peripherals/sdi12.cpp</text>
</a>
</g>
</g>
<!-- Node2&#45;&gt;Node11 -->
<g id="edge10" class="edge">
<title>Node2&#45;&gt;Node11</title>
<path fill="none" stroke="#63b8ff" d="M811.85,-76.96C964.59,-56.27 1006.3,-67.08 1154,-41 1162.52,-39.5 1171.49,-37.58 1180.19,-35.53"/>
<polygon fill="#63b8ff" stroke="#63b8ff" points="811.06,-73.54 801.63,-78.37 812.01,-80.47 811.06,-73.54"/>
</g>
<!-- Node12 -->
<g id="node12" class="node">
<title>Node12</title>
<g id="a_node12"><a xlink:href="main_8cpp.html" target="_top" xlink:title=" ">
<polygon fill="white" stroke="#666666" points="1439,-35.5 1319,-35.5 1319,-5.5 1439,-5.5 1439,-35.5"/>
<text text-anchor="start" x="1327" y="-23.5" font-family="Helvetica,sans-Serif" font-size="10.00">firmware/wombat/src</text>
<text text-anchor="middle" x="1379" y="-12.5" font-family="Helvetica,sans-Serif" font-size="10.00">/main.cpp</text>
</a>
</g>
</g>
<!-- Node2&#45;&gt;Node12 -->
<g id="edge11" class="edge">
<title>Node2&#45;&gt;Node12</title>
<path fill="none" stroke="#63b8ff" d="M811.61,-77.03C1033.46,-50.65 1094.2,-78.87 1310,-41 1317.97,-39.6 1326.34,-37.66 1334.4,-35.53"/>
<polygon fill="#63b8ff" stroke="#63b8ff" points="811.12,-73.56 801.61,-78.24 811.96,-80.51 811.12,-73.56"/>
</g>
<!-- Node13 -->
<g id="node13" class="node">
<title>Node13</title>
<g id="a_node13"><a xlink:href="mqtt__stack_8cpp.html" target="_top" xlink:title=" ">
<polygon fill="white" stroke="#666666" points="1577,-35.5 1457,-35.5 1457,-5.5 1577,-5.5 1577,-35.5"/>
<text text-anchor="start" x="1465" y="-23.5" font-family="Helvetica,sans-Serif" font-size="10.00">firmware/wombat/src</text>
<text text-anchor="middle" x="1517" y="-12.5" font-family="Helvetica,sans-Serif" font-size="10.00">/mqtt_stack.cpp</text>
</a>
</g>
</g>
<!-- Node2&#45;&gt;Node13 -->
<g id="edge12" class="edge">
<title>Node2&#45;&gt;Node13</title>
<path fill="none" stroke="#63b8ff" d="M811.75,-77.03C1094.5,-45.51 1171.61,-87.29 1448,-41 1456.1,-39.64 1464.61,-37.69 1472.78,-35.54"/>
<polygon fill="#63b8ff" stroke="#63b8ff" points="811.15,-73.58 801.61,-78.18 811.94,-80.53 811.15,-73.58"/>
</g>
</g>
</svg>
