<?xml version="1.0" encoding="UTF-8" standalone="no"?>
<!DOCTYPE svg PUBLIC "-//W3C//DTD SVG 1.1//EN"
 "http://www.w3.org/Graphics/SVG/1.1/DTD/svg11.dtd">
<!-- Generated by graphviz version 2.43.0 (0)
 -->
<!-- Title: firmware/wombat/src/ftp_stack.cpp Pages: 1 -->
<svg width="666pt" height="269pt"
 viewBox="0.00 0.00 665.74 269.00" xmlns="http://www.w3.org/2000/svg" xmlns:xlink="http://www.w3.org/1999/xlink">
<g id="graph0" class="graph" transform="scale(1 1) rotate(0) translate(4 265)">
<title>firmware/wombat/src/ftp_stack.cpp</title>
<!-- Node1 -->
<g id="node1" class="node">
<title>Node1</title>
<g id="a_node1"><a xlink:title=" ">
<polygon fill="#999999" stroke="#666666" points="241.24,-261 121.24,-261 121.24,-231 241.24,-231 241.24,-261"/>
<text text-anchor="start" x="129.24" y="-249" font-family="Helvetica,sans-Serif" font-size="10.00">firmware/wombat/src</text>
<text text-anchor="middle" x="181.24" y="-238" font-family="Helvetica,sans-Serif" font-size="10.00">/ftp_stack.cpp</text>
</a>
</g>
</g>
<!-- Node2 -->
<g id="node2" class="node">
<title>Node2</title>
<g id="a_node2"><a xlink:href="_device_config_8h.html" target="_top" xlink:title="Node configuration options.">
<polygon fill="white" stroke="#666666" points="101.24,-195 11.24,-195 11.24,-176 101.24,-176 101.24,-195"/>
<text text-anchor="middle" x="56.24" y="-183" font-family="Helvetica,sans-Serif" font-size="10.00">DeviceConfig.h</text>
</a>
</g>
</g>
<!-- Node1&#45;&gt;Node2 -->
<g id="edge1" class="edge">
<title>Node1&#45;&gt;Node2</title>
<path fill="none" stroke="#63b8ff" d="M151.3,-230.99C130.81,-221.4 103.86,-208.79 83.88,-199.44"/>
<polygon fill="#63b8ff" stroke="#63b8ff" points="85.24,-196.21 74.7,-195.14 82.27,-202.55 85.24,-196.21"/>
</g>
<!-- Node5 -->
<g id="node5" class="node">
<title>Node5</title>
<g id="a_node5"><a xlink:title=" ">
<polygon fill="#e0e0e0" stroke="#999999" points="246.24,-140 116.24,-140 116.24,-110 246.24,-110 246.24,-140"/>
<text text-anchor="start" x="124.24" y="-128" font-family="Helvetica,sans-Serif" font-size="10.00">SparkFun_u&#45;blox_SARA</text>
<text text-anchor="middle" x="181.24" y="-117" font-family="Helvetica,sans-Serif" font-size="10.00">&#45;R5_Arduino_Library.h</text>
</a>
</g>
</g>
<!-- Node1&#45;&gt;Node5 -->
<g id="edge4" class="edge">
<title>Node1&#45;&gt;Node5</title>
<path fill="none" stroke="#63b8ff" d="M181.24,-230.88C181.24,-211.02 181.24,-174.55 181.24,-150.29"/>
<polygon fill="#63b8ff" stroke="#63b8ff" points="184.74,-150.1 181.24,-140.1 177.74,-150.1 184.74,-150.1"/>
</g>
<!-- Node6 -->
<g id="node6" class="node">
<title>Node6</title>
<g id="a_node6"><a xlink:href="globals_8h.html" target="_top" xlink:title=" ">
<polygon fill="white" stroke="#666666" points="370.74,-195 309.74,-195 309.74,-176 370.74,-176 370.74,-195"/>
<text text-anchor="middle" x="340.24" y="-183" font-family="Helvetica,sans-Serif" font-size="10.00">globals.h</text>
</a>
</g>
</g>
<!-- Node1&#45;&gt;Node6 -->
<g id="edge5" class="edge">
<title>Node1&#45;&gt;Node6</title>
<path fill="none" stroke="#63b8ff" d="M219.32,-230.99C246.09,-221.14 281.54,-208.1 307.13,-198.68"/>
<polygon fill="#63b8ff" stroke="#63b8ff" points="308.58,-201.88 316.76,-195.14 306.16,-195.31 308.58,-201.88"/>
</g>
<!-- Node3 -->
<g id="node3" class="node">
<title>Node3</title>
<g id="a_node3"><a xlink:title=" ">
<polygon fill="#e0e0e0" stroke="#999999" points="477.74,-19 414.74,-19 414.74,0 477.74,0 477.74,-19"/>
<text text-anchor="middle" x="446.24" y="-7" font-family="Helvetica,sans-Serif" font-size="10.00">Arduino.h</text>
</a>
</g>
</g>
<!-- Node2&#45;&gt;Node3 -->
<g id="edge2" class="edge">
<title>Node2&#45;&gt;Node3</title>
<path fill="none" stroke="#63b8ff" d="M42.8,-175.94C22.2,-161.78 -12.97,-132.77 5.24,-110 55.12,-47.61 304.47,-21.53 404.56,-13.46"/>
<polygon fill="#63b8ff" stroke="#63b8ff" points="404.92,-16.95 414.61,-12.67 404.37,-9.97 404.92,-16.95"/>
</g>
<!-- Node4 -->
<g id="node4" class="node">
<title>Node4</title>
<g id="a_node4"><a xlink:title=" ">
<polygon fill="#e0e0e0" stroke="#999999" points="97.74,-134.5 14.74,-134.5 14.74,-115.5 97.74,-115.5 97.74,-134.5"/>
<text text-anchor="middle" x="56.24" y="-122.5" font-family="Helvetica,sans-Serif" font-size="10.00">ArduinoJson.h</text>
</a>
</g>
</g>
<!-- Node2&#45;&gt;Node4 -->
<g id="edge3" class="edge">
<title>Node2&#45;&gt;Node4</title>
<path fill="none" stroke="#63b8ff" d="M56.24,-175.87C56.24,-167.75 56.24,-155.31 56.24,-144.89"/>
<polygon fill="#63b8ff" stroke="#63b8ff" points="59.74,-144.67 56.24,-134.67 52.74,-144.67 59.74,-144.67"/>
</g>
<!-- Node6&#45;&gt;Node5 -->
<g id="edge12" class="edge">
<title>Node6&#45;&gt;Node5</title>
<path fill="none" stroke="#63b8ff" d="M317.12,-175.99C294.13,-167.54 258.2,-154.32 229.06,-143.59"/>
<polygon fill="#63b8ff" stroke="#63b8ff" points="230.06,-140.23 219.46,-140.06 227.64,-146.8 230.06,-140.23"/>
</g>
<!-- Node7 -->
<g id="node7" class="node">
<title>Node7</title>
<g id="a_node7"><a xlink:href="battery_8h.html" target="_top" xlink:title="Battery voltage and current monitoring using INA219 IC.">
<polygon fill="white" stroke="#666666" points="415.74,-134.5 264.74,-134.5 264.74,-115.5 415.74,-115.5 415.74,-134.5"/>
<text text-anchor="middle" x="340.24" y="-122.5" font-family="Helvetica,sans-Serif" font-size="10.00">power_monitoring/battery.h</text>
</a>
</g>
</g>
<!-- Node6&#45;&gt;Node7 -->
<g id="edge6" class="edge">
<title>Node6&#45;&gt;Node7</title>
<path fill="none" stroke="#63b8ff" d="M340.24,-175.87C340.24,-167.75 340.24,-155.31 340.24,-144.89"/>
<polygon fill="#63b8ff" stroke="#63b8ff" points="343.74,-144.67 340.24,-134.67 336.74,-144.67 343.74,-144.67"/>
</g>
<!-- Node9 -->
<g id="node9" class="node">
<title>Node9</title>
<g id="a_node9"><a xlink:href="solar_8h.html" target="_top" xlink:title="Solar voltage and current monitoring using INA219 IC.">
<polygon fill="white" stroke="#666666" points="574.24,-134.5 434.24,-134.5 434.24,-115.5 574.24,-115.5 574.24,-134.5"/>
<text text-anchor="middle" x="504.24" y="-122.5" font-family="Helvetica,sans-Serif" font-size="10.00">power_monitoring/solar.h</text>
</a>
</g>
</g>
<!-- Node6&#45;&gt;Node9 -->
<g id="edge9" class="edge">
<title>Node6&#45;&gt;Node9</title>
<path fill="none" stroke="#63b8ff" d="M364.08,-175.99C392.14,-165.99 438.91,-149.3 470.63,-137.99"/>
<polygon fill="#63b8ff" stroke="#63b8ff" points="472.12,-141.17 480.36,-134.52 469.77,-134.58 472.12,-141.17"/>
</g>
<!-- Node10 -->
<g id="node10" class="node">
<title>Node10</title>
<g id="a_node10"><a xlink:href="_c_a_t___m1_8h.html" target="_top" xlink:title=" ">
<polygon fill="white" stroke="#666666" points="657.74,-134.5 592.74,-134.5 592.74,-115.5 657.74,-115.5 657.74,-134.5"/>
<text text-anchor="middle" x="625.24" y="-122.5" font-family="Helvetica,sans-Serif" font-size="10.00">CAT_M1.h</text>
</a>
</g>
</g>
<!-- Node6&#45;&gt;Node10 -->
<g id="edge13" class="edge">
<title>Node6&#45;&gt;Node10</title>
<path fill="none" stroke="#63b8ff" d="M370.84,-180.31C417.21,-173.64 507.84,-159.37 583.24,-140 586.03,-139.28 588.9,-138.48 591.78,-137.62"/>
<polygon fill="#63b8ff" stroke="#63b8ff" points="592.94,-140.92 601.42,-134.58 590.83,-134.25 592.94,-140.92"/>
</g>
<!-- Node7&#45;&gt;Node3 -->
<g id="edge7" class="edge">
<title>Node7&#45;&gt;Node3</title>
<path fill="none" stroke="#63b8ff" d="M340.45,-115.36C341.23,-101.23 344.65,-72.92 359.24,-55 371.33,-40.15 389.66,-29.75 406.39,-22.75"/>
<polygon fill="#63b8ff" stroke="#63b8ff" points="407.94,-25.91 415.99,-19.02 405.41,-19.38 407.94,-25.91"/>
</g>
<!-- Node8 -->
<g id="node8" class="node">
<title>Node8</title>
<g id="a_node8"><a xlink:title=" ">
<polygon fill="#e0e0e0" stroke="#999999" points="473.74,-74 368.74,-74 368.74,-55 473.74,-55 473.74,-74"/>
<text text-anchor="middle" x="421.24" y="-62" font-family="Helvetica,sans-Serif" font-size="10.00">Adafruit_INA219.h</text>
</a>
</g>
</g>
<!-- Node7&#45;&gt;Node8 -->
<g id="edge8" class="edge">
<title>Node7&#45;&gt;Node8</title>
<path fill="none" stroke="#63b8ff" d="M352.19,-115.37C364.99,-106.12 385.54,-91.28 400.89,-80.19"/>
<polygon fill="#63b8ff" stroke="#63b8ff" points="403.18,-82.86 409.24,-74.17 399.08,-77.18 403.18,-82.86"/>
</g>
<!-- Node9&#45;&gt;Node3 -->
<g id="edge10" class="edge">
<title>Node9&#45;&gt;Node3</title>
<path fill="none" stroke="#63b8ff" d="M502.51,-115.09C499.63,-101.52 493.1,-75.14 482.24,-55 476.78,-44.87 468.89,-34.8 461.89,-26.81"/>
<polygon fill="#63b8ff" stroke="#63b8ff" points="464.38,-24.35 455.06,-19.32 459.21,-29.07 464.38,-24.35"/>
</g>
<!-- Node9&#45;&gt;Node8 -->
<g id="edge11" class="edge">
<title>Node9&#45;&gt;Node8</title>
<path fill="none" stroke="#63b8ff" d="M491.99,-115.37C478.87,-106.12 457.82,-91.28 442.08,-80.19"/>
<polygon fill="#63b8ff" stroke="#63b8ff" points="443.72,-77.07 433.53,-74.17 439.69,-82.79 443.72,-77.07"/>
</g>
<!-- Node11 -->
<g id="node11" class="node">
<title>Node11</title>
<g id="a_node11"><a xlink:title=" ">
<polygon fill="#e0e0e0" stroke="#999999" points="619.24,-19 571.24,-19 571.24,0 619.24,0 619.24,-19"/>
<text text-anchor="middle" x="595.24" y="-7" font-family="Helvetica,sans-Serif" font-size="10.00">Wire.h</text>
</a>
</g>
</g>
<!-- Node10&#45;&gt;Node11 -->
<g id="edge14" class="edge">
<title>Node10&#45;&gt;Node11</title>
<path fill="none" stroke="#63b8ff" d="M623.04,-115.5C619.67,-102.47 613.01,-76.78 607.24,-55 604.95,-46.39 602.38,-36.84 600.21,-28.81"/>
<polygon fill="#63b8ff" stroke="#63b8ff" points="603.55,-27.76 597.56,-19.03 596.8,-29.59 603.55,-27.76"/>
</g>
<!-- Node12 -->
<g id="node12" class="node">
<title>Node12</title>
<g id="a_node12"><a xlink:href="_t_c_a9534_8h.html" target="_top" xlink:title=" ">
<polygon fill="white" stroke="#666666" points="598.24,-74 530.24,-74 530.24,-55 598.24,-55 598.24,-74"/>
<text text-anchor="middle" x="564.24" y="-62" font-family="Helvetica,sans-Serif" font-size="10.00">TCA9534.h</text>
</a>
</g>
</g>
<!-- Node10&#45;&gt;Node12 -->
<g id="edge15" class="edge">
<title>Node10&#45;&gt;Node12</title>
<path fill="none" stroke="#63b8ff" d="M616.24,-115.37C606.87,-106.38 591.99,-92.11 580.54,-81.14"/>
<polygon fill="#63b8ff" stroke="#63b8ff" points="582.91,-78.56 573.27,-74.17 578.07,-83.62 582.91,-78.56"/>
</g>
<!-- Node12&#45;&gt;Node3 -->
<g id="edge16" class="edge">
<title>Node12&#45;&gt;Node3</title>
<path fill="none" stroke="#63b8ff" d="M545.28,-54.98C526.21,-46.42 496.58,-33.11 474.69,-23.28"/>
<polygon fill="#63b8ff" stroke="#63b8ff" points="476.1,-20.07 465.54,-19.17 473.23,-26.46 476.1,-20.07"/>
</g>
<!-- Node12&#45;&gt;Node11 -->
<g id="edge17" class="edge">
<title>Node12&#45;&gt;Node11</title>
<path fill="none" stroke="#63b8ff" d="M569.36,-54.75C573.6,-47.49 579.76,-36.95 585.01,-27.98"/>
<polygon fill="#63b8ff" stroke="#63b8ff" points="588.19,-29.49 590.21,-19.09 582.14,-25.95 588.19,-29.49"/>
</g>
</g>
</svg>
