<?xml version="1.0" encoding="UTF-8" standalone="no"?>
<!DOCTYPE svg PUBLIC "-//W3C//DTD SVG 1.1//EN"
 "http://www.w3.org/Graphics/SVG/1.1/DTD/svg11.dtd">
<!-- Generated by graphviz version 2.43.0 (0)
 -->
<!-- Title: firmware/wombat/include/ftp_stack.h Pages: 1 -->
<svg width="366pt" height="324pt"
 viewBox="0.00 0.00 366.00 324.00" xmlns="http://www.w3.org/2000/svg" xmlns:xlink="http://www.w3.org/1999/xlink">
<g id="graph0" class="graph" transform="scale(1 1) rotate(0) translate(4 320)">
<title>firmware/wombat/include/ftp_stack.h</title>
<!-- Node1 -->
<g id="node1" class="node">
<title>Node1</title>
<g id="a_node1"><a xlink:title=" ">
<polygon fill="#999999" stroke="#666666" points="218,-316 77,-316 77,-286 218,-286 218,-316"/>
<text text-anchor="start" x="85" y="-304" font-family="Helvetica,sans-Serif" font-size="10.00">firmware/wombat/include</text>
<text text-anchor="middle" x="147.5" y="-293" font-family="Helvetica,sans-Serif" font-size="10.00">/ftp_stack.h</text>
</a>
</g>
</g>
<!-- Node2 -->
<g id="node2" class="node">
<title>Node2</title>
<g id="a_node2"><a xlink:href="_utils_8h.html" target="_top" xlink:title=" ">
<polygon fill="white" stroke="#666666" points="171.5,-250 123.5,-250 123.5,-231 171.5,-231 171.5,-250"/>
<text text-anchor="middle" x="147.5" y="-238" font-family="Helvetica,sans-Serif" font-size="10.00">Utils.h</text>
</a>
</g>
</g>
<!-- Node1&#45;&gt;Node2 -->
<g id="edge1" class="edge">
<title>Node1&#45;&gt;Node2</title>
<path fill="none" stroke="#63b8ff" d="M147.5,-285.84C147.5,-278.21 147.5,-268.7 147.5,-260.45"/>
<polygon fill="#63b8ff" stroke="#63b8ff" points="151,-260.27 147.5,-250.27 144,-260.27 151,-260.27"/>
</g>
<!-- Node3 -->
<g id="node3" class="node">
<title>Node3</title>
<g id="a_node3"><a xlink:title=" ">
<polygon fill="#e0e0e0" stroke="#999999" points="83,-195 0,-195 0,-176 83,-176 83,-195"/>
<text text-anchor="middle" x="41.5" y="-183" font-family="Helvetica,sans-Serif" font-size="10.00">ArduinoJson.h</text>
</a>
</g>
</g>
<!-- Node2&#45;&gt;Node3 -->
<g id="edge2" class="edge">
<title>Node2&#45;&gt;Node3</title>
<path fill="none" stroke="#63b8ff" d="M130.47,-230.98C113.57,-222.54 87.44,-209.47 67.86,-199.68"/>
<polygon fill="#63b8ff" stroke="#63b8ff" points="69.35,-196.51 58.84,-195.17 66.22,-202.77 69.35,-196.51"/>
</g>
<!-- Node4 -->
<g id="node4" class="node">
<title>Node4</title>
<g id="a_node4"><a xlink:title=" ">
<polygon fill="#e0e0e0" stroke="#999999" points="194,-195 101,-195 101,-176 194,-176 194,-195"/>
<text text-anchor="middle" x="147.5" y="-183" font-family="Helvetica,sans-Serif" font-size="10.00">dpiclimate&#45;12.h</text>
</a>
</g>
</g>
<!-- Node2&#45;&gt;Node4 -->
<g id="edge3" class="edge">
<title>Node2&#45;&gt;Node4</title>
<path fill="none" stroke="#63b8ff" d="M147.5,-230.75C147.5,-223.8 147.5,-213.85 147.5,-205.13"/>
<polygon fill="#63b8ff" stroke="#63b8ff" points="151,-205.09 147.5,-195.09 144,-205.09 151,-205.09"/>
</g>
<!-- Node5 -->
<g id="node5" class="node">
<title>Node5</title>
<g id="a_node5"><a xlink:href="globals_8h.html" target="_top" xlink:title=" ">
<polygon fill="white" stroke="#666666" points="273,-195 212,-195 212,-176 273,-176 273,-195"/>
<text text-anchor="middle" x="242.5" y="-183" font-family="Helvetica,sans-Serif" font-size="10.00">globals.h</text>
</a>
</g>
</g>
<!-- Node2&#45;&gt;Node5 -->
<g id="edge4" class="edge">
<title>Node2&#45;&gt;Node5</title>
<path fill="none" stroke="#63b8ff" d="M162.76,-230.98C177.63,-222.69 200.48,-209.94 217.92,-200.22"/>
<polygon fill="#63b8ff" stroke="#63b8ff" points="219.93,-203.1 226.96,-195.17 216.52,-196.99 219.93,-203.1"/>
</g>
<!-- Node6 -->
<g id="node6" class="node">
<title>Node6</title>
<g id="a_node6"><a xlink:title=" ">
<polygon fill="#e0e0e0" stroke="#999999" points="191.5,-140 61.5,-140 61.5,-110 191.5,-110 191.5,-140"/>
<text text-anchor="start" x="69.5" y="-128" font-family="Helvetica,sans-Serif" font-size="10.00">SparkFun_u&#45;blox_SARA</text>
<text text-anchor="middle" x="126.5" y="-117" font-family="Helvetica,sans-Serif" font-size="10.00">&#45;R5_Arduino_Library.h</text>
</a>
</g>
</g>
<!-- Node5&#45;&gt;Node6 -->
<g id="edge5" class="edge">
<title>Node5&#45;&gt;Node6</title>
<path fill="none" stroke="#63b8ff" d="M225.38,-175.87C209.21,-167.71 184.4,-155.2 163.68,-144.75"/>
<polygon fill="#63b8ff" stroke="#63b8ff" points="164.99,-141.49 154.49,-140.11 161.84,-147.74 164.99,-141.49"/>
</g>
<!-- Node7 -->
<g id="node7" class="node">
<title>Node7</title>
<g id="a_node7"><a xlink:href="_c_a_t___m1_8h.html" target="_top" xlink:title=" ">
<polygon fill="white" stroke="#666666" points="275,-134.5 210,-134.5 210,-115.5 275,-115.5 275,-134.5"/>
<text text-anchor="middle" x="242.5" y="-122.5" font-family="Helvetica,sans-Serif" font-size="10.00">CAT_M1.h</text>
</a>
</g>
</g>
<!-- Node5&#45;&gt;Node7 -->
<g id="edge6" class="edge">
<title>Node5&#45;&gt;Node7</title>
<path fill="none" stroke="#63b8ff" d="M242.5,-175.87C242.5,-167.75 242.5,-155.31 242.5,-144.89"/>
<polygon fill="#63b8ff" stroke="#63b8ff" points="246,-144.67 242.5,-134.67 239,-144.67 246,-144.67"/>
</g>
<!-- Node11 -->
<g id="node11" class="node">
<title>Node11</title>
<g id="a_node11"><a xlink:href="str__utils_8h.html" target="_top" xlink:title=" ">
<polygon fill="white" stroke="#666666" points="358,-134.5 293,-134.5 293,-115.5 358,-115.5 358,-134.5"/>
<text text-anchor="middle" x="325.5" y="-122.5" font-family="Helvetica,sans-Serif" font-size="10.00">str_utils.h</text>
</a>
</g>
</g>
<!-- Node5&#45;&gt;Node11 -->
<g id="edge11" class="edge">
<title>Node5&#45;&gt;Node11</title>
<path fill="none" stroke="#63b8ff" d="M254.75,-175.87C267.86,-166.62 288.92,-151.78 304.65,-140.69"/>
<polygon fill="#63b8ff" stroke="#63b8ff" points="307.05,-143.29 313.2,-134.67 303.01,-137.57 307.05,-143.29"/>
</g>
<!-- Node8 -->
<g id="node8" class="node">
<title>Node8</title>
<g id="a_node8"><a xlink:title=" ">
<polygon fill="#e0e0e0" stroke="#999999" points="206.5,-19 158.5,-19 158.5,0 206.5,0 206.5,-19"/>
<text text-anchor="middle" x="182.5" y="-7" font-family="Helvetica,sans-Serif" font-size="10.00">Wire.h</text>
</a>
</g>
</g>
<!-- Node7&#45;&gt;Node8 -->
<g id="edge7" class="edge">
<title>Node7&#45;&gt;Node8</title>
<path fill="none" stroke="#63b8ff" d="M233.43,-115.22C224.19,-105.81 210.04,-90.06 201.5,-74 193.98,-59.86 189.02,-42.32 186.06,-29.26"/>
<polygon fill="#63b8ff" stroke="#63b8ff" points="189.42,-28.21 183.96,-19.13 182.56,-29.63 189.42,-28.21"/>
</g>
<!-- Node9 -->
<g id="node9" class="node">
<title>Node9</title>
<g id="a_node9"><a xlink:href="_t_c_a9534_8h.html" target="_top" xlink:title=" ">
<polygon fill="white" stroke="#666666" points="278.5,-74 210.5,-74 210.5,-55 278.5,-55 278.5,-74"/>
<text text-anchor="middle" x="244.5" y="-62" font-family="Helvetica,sans-Serif" font-size="10.00">TCA9534.h</text>
</a>
</g>
</g>
<!-- Node7&#45;&gt;Node9 -->
<g id="edge8" class="edge">
<title>Node7&#45;&gt;Node9</title>
<path fill="none" stroke="#63b8ff" d="M242.8,-115.37C243.07,-107.25 243.5,-94.81 243.85,-84.39"/>
<polygon fill="#63b8ff" stroke="#63b8ff" points="247.36,-84.28 244.2,-74.17 240.36,-84.04 247.36,-84.28"/>
</g>
<!-- Node9&#45;&gt;Node8 -->
<g id="edge10" class="edge">
<title>Node9&#45;&gt;Node8</title>
<path fill="none" stroke="#63b8ff" d="M234.54,-54.98C225.37,-47.15 211.56,-35.34 200.47,-25.86"/>
<polygon fill="#63b8ff" stroke="#63b8ff" points="202.52,-23.01 192.64,-19.17 197.97,-28.33 202.52,-23.01"/>
</g>
<!-- Node10 -->
<g id="node10" class="node">
<title>Node10</title>
<g id="a_node10"><a xlink:title=" ">
<polygon fill="#e0e0e0" stroke="#999999" points="288,-19 225,-19 225,0 288,0 288,-19"/>
<text text-anchor="middle" x="256.5" y="-7" font-family="Helvetica,sans-Serif" font-size="10.00">Arduino.h</text>
</a>
</g>
</g>
<!-- Node9&#45;&gt;Node10 -->
<g id="edge9" class="edge">
<title>Node9&#45;&gt;Node10</title>
<path fill="none" stroke="#63b8ff" d="M246.48,-54.75C248.07,-47.72 250.36,-37.62 252.35,-28.84"/>
<polygon fill="#63b8ff" stroke="#63b8ff" points="255.76,-29.62 254.56,-19.09 248.93,-28.07 255.76,-29.62"/>
</g>
<!-- Node12 -->
<g id="node12" class="node">
<title>Node12</title>
<g id="a_node12"><a xlink:title=" ">
<polygon fill="#e0e0e0" stroke="#999999" points="353.5,-74 297.5,-74 297.5,-55 353.5,-55 353.5,-74"/>
<text text-anchor="middle" x="325.5" y="-62" font-family="Helvetica,sans-Serif" font-size="10.00">stddef.h</text>
</a>
</g>
</g>
<!-- Node11&#45;&gt;Node12 -->
<g id="edge12" class="edge">
<title>Node11&#45;&gt;Node12</title>
<path fill="none" stroke="#63b8ff" d="M325.5,-115.37C325.5,-107.25 325.5,-94.81 325.5,-84.39"/>
<polygon fill="#63b8ff" stroke="#63b8ff" points="329,-84.17 325.5,-74.17 322,-84.17 329,-84.17"/>
</g>
</g>
</svg>
