<?xml version="1.0" encoding="UTF-8" standalone="no"?>
<!DOCTYPE svg PUBLIC "-//W3C//DTD SVG 1.1//EN"
 "http://www.w3.org/Graphics/SVG/1.1/DTD/svg11.dtd">
<!-- Generated by graphviz version 2.43.0 (0)
 -->
<!-- Title: firmware/wombat/src/ftp_stack.cpp Pages: 1 -->
<svg width="598pt" height="324pt"
 viewBox="0.00 0.00 598.00 324.00" xmlns="http://www.w3.org/2000/svg" xmlns:xlink="http://www.w3.org/1999/xlink">
<g id="graph0" class="graph" transform="scale(1 1) rotate(0) translate(4 320)">
<title>firmware/wombat/src/ftp_stack.cpp</title>
<!-- Node1 -->
<g id="node1" class="node">
<title>Node1</title>
<g id="a_node1"><a xlink:title=" ">
<polygon fill="#999999" stroke="#666666" points="309.5,-316 189.5,-316 189.5,-286 309.5,-286 309.5,-316"/>
<text text-anchor="start" x="197.5" y="-304" font-family="Helvetica,sans-Serif" font-size="10.00">firmware/wombat/src</text>
<text text-anchor="middle" x="249.5" y="-293" font-family="Helvetica,sans-Serif" font-size="10.00">/ftp_stack.cpp</text>
</a>
</g>
</g>
<!-- Node2 -->
<g id="node2" class="node">
<title>Node2</title>
<g id="a_node2"><a xlink:href="_device_config_8h.html" target="_top" xlink:title="Node configuration options.">
<polygon fill="white" stroke="#666666" points="400.5,-250 310.5,-250 310.5,-231 400.5,-231 400.5,-250"/>
<text text-anchor="middle" x="355.5" y="-238" font-family="Helvetica,sans-Serif" font-size="10.00">DeviceConfig.h</text>
</a>
</g>
</g>
<!-- Node1&#45;&gt;Node2 -->
<g id="edge1" class="edge">
<title>Node1&#45;&gt;Node2</title>
<path fill="none" stroke="#63b8ff" d="M274.89,-285.99C291.79,-276.66 313.88,-264.47 330.66,-255.21"/>
<polygon fill="#63b8ff" stroke="#63b8ff" points="332.78,-258.04 339.85,-250.14 329.4,-251.91 332.78,-258.04"/>
</g>
<!-- Node5 -->
<g id="node5" class="node">
<title>Node5</title>
<g id="a_node5"><a xlink:title=" ">
<polygon fill="#e0e0e0" stroke="#999999" points="296.5,-140 166.5,-140 166.5,-110 296.5,-110 296.5,-140"/>
<text text-anchor="start" x="174.5" y="-128" font-family="Helvetica,sans-Serif" font-size="10.00">SparkFun_u&#45;blox_SARA</text>
<text text-anchor="middle" x="231.5" y="-117" font-family="Helvetica,sans-Serif" font-size="10.00">&#45;R5_Arduino_Library.h</text>
</a>
</g>
</g>
<!-- Node1&#45;&gt;Node5 -->
<g id="edge4" class="edge">
<title>Node1&#45;&gt;Node5</title>
<path fill="none" stroke="#63b8ff" d="M238.37,-285.76C224.17,-266.5 200.61,-230.45 193.5,-195 191.84,-186.72 190.8,-184 193.5,-176 196.95,-165.77 203.41,-155.98 210.04,-147.81"/>
<polygon fill="#63b8ff" stroke="#63b8ff" points="212.71,-150.07 216.62,-140.23 207.42,-145.48 212.71,-150.07"/>
</g>
<!-- Node6 -->
<g id="node6" class="node">
<title>Node6</title>
<g id="a_node6"><a xlink:href="globals_8h.html" target="_top" xlink:title=" ">
<polygon fill="white" stroke="#666666" points="146,-195 85,-195 85,-176 146,-176 146,-195"/>
<text text-anchor="middle" x="115.5" y="-183" font-family="Helvetica,sans-Serif" font-size="10.00">globals.h</text>
</a>
</g>
</g>
<!-- Node1&#45;&gt;Node6 -->
<g id="edge5" class="edge">
<title>Node1&#45;&gt;Node6</title>
<path fill="none" stroke="#63b8ff" d="M216.79,-285.97C198.91,-277.29 177.09,-264.94 160.5,-250 145.79,-236.76 133.19,-217.89 125.09,-204.16"/>
<polygon fill="#63b8ff" stroke="#63b8ff" points="128,-202.2 120.03,-195.23 121.91,-205.65 128,-202.2"/>
</g>
<!-- Node12 -->
<g id="node12" class="node">
<title>Node12</title>
<g id="a_node12"><a xlink:href="interface_8h.html" target="_top" xlink:title=" ">
<polygon fill="white" stroke="#666666" points="546.5,-250 438.5,-250 438.5,-231 546.5,-231 546.5,-250"/>
<text text-anchor="middle" x="492.5" y="-238" font-family="Helvetica,sans-Serif" font-size="10.00">sd&#45;card/interface.h</text>
</a>
</g>
</g>
<!-- Node1&#45;&gt;Node12 -->
<g id="edge14" class="edge">
<title>Node1&#45;&gt;Node12</title>
<path fill="none" stroke="#63b8ff" d="M307.7,-285.99C350.46,-275.7 407.72,-261.91 447.11,-252.43"/>
<polygon fill="#63b8ff" stroke="#63b8ff" points="448.07,-255.8 456.97,-250.05 446.43,-248.99 448.07,-255.8"/>
</g>
<!-- Node15 -->
<g id="node15" class="node">
<title>Node15</title>
<g id="a_node15"><a xlink:href="_utils_8h.html" target="_top" xlink:title=" ">
<polygon fill="white" stroke="#666666" points="273.5,-250 225.5,-250 225.5,-231 273.5,-231 273.5,-250"/>
<text text-anchor="middle" x="249.5" y="-238" font-family="Helvetica,sans-Serif" font-size="10.00">Utils.h</text>
</a>
</g>
</g>
<!-- Node1&#45;&gt;Node15 -->
<g id="edge18" class="edge">
<title>Node1&#45;&gt;Node15</title>
<path fill="none" stroke="#63b8ff" d="M249.5,-285.84C249.5,-278.21 249.5,-268.7 249.5,-260.45"/>
<polygon fill="#63b8ff" stroke="#63b8ff" points="253,-260.27 249.5,-250.27 246,-260.27 253,-260.27"/>
</g>
<!-- Node3 -->
<g id="node3" class="node">
<title>Node3</title>
<g id="a_node3"><a xlink:title=" ">
<polygon fill="#e0e0e0" stroke="#999999" points="457,-19 394,-19 394,0 457,0 457,-19"/>
<text text-anchor="middle" x="425.5" y="-7" font-family="Helvetica,sans-Serif" font-size="10.00">Arduino.h</text>
</a>
</g>
</g>
<!-- Node2&#45;&gt;Node3 -->
<g id="edge2" class="edge">
<title>Node2&#45;&gt;Node3</title>
<path fill="none" stroke="#63b8ff" d="M370.01,-230.9C381.72,-223.11 397.52,-210.5 405.5,-195 433.74,-140.19 430.94,-64.23 427.72,-29.36"/>
<polygon fill="#63b8ff" stroke="#63b8ff" points="431.18,-28.79 426.66,-19.2 424.22,-29.51 431.18,-28.79"/>
</g>
<!-- Node4 -->
<g id="node4" class="node">
<title>Node4</title>
<g id="a_node4"><a xlink:title=" ">
<polygon fill="#e0e0e0" stroke="#999999" points="397,-195 314,-195 314,-176 397,-176 397,-195"/>
<text text-anchor="middle" x="355.5" y="-183" font-family="Helvetica,sans-Serif" font-size="10.00">ArduinoJson.h</text>
</a>
</g>
</g>
<!-- Node2&#45;&gt;Node4 -->
<g id="edge3" class="edge">
<title>Node2&#45;&gt;Node4</title>
<path fill="none" stroke="#63b8ff" d="M355.5,-230.75C355.5,-223.8 355.5,-213.85 355.5,-205.13"/>
<polygon fill="#63b8ff" stroke="#63b8ff" points="359,-205.09 355.5,-195.09 352,-205.09 359,-205.09"/>
</g>
<!-- Node6&#45;&gt;Node5 -->
<g id="edge6" class="edge">
<title>Node6&#45;&gt;Node5</title>
<path fill="none" stroke="#63b8ff" d="M132.62,-175.87C148.79,-167.71 173.6,-155.2 194.32,-144.75"/>
<polygon fill="#63b8ff" stroke="#63b8ff" points="196.16,-147.74 203.51,-140.11 193.01,-141.49 196.16,-147.74"/>
</g>
<!-- Node7 -->
<g id="node7" class="node">
<title>Node7</title>
<g id="a_node7"><a xlink:href="_c_a_t___m1_8h.html" target="_top" xlink:title=" ">
<polygon fill="white" stroke="#666666" points="148,-134.5 83,-134.5 83,-115.5 148,-115.5 148,-134.5"/>
<text text-anchor="middle" x="115.5" y="-122.5" font-family="Helvetica,sans-Serif" font-size="10.00">CAT_M1.h</text>
</a>
</g>
</g>
<!-- Node6&#45;&gt;Node7 -->
<g id="edge7" class="edge">
<title>Node6&#45;&gt;Node7</title>
<path fill="none" stroke="#63b8ff" d="M115.5,-175.87C115.5,-167.75 115.5,-155.31 115.5,-144.89"/>
<polygon fill="#63b8ff" stroke="#63b8ff" points="119,-144.67 115.5,-134.67 112,-144.67 119,-144.67"/>
</g>
<!-- Node10 -->
<g id="node10" class="node">
<title>Node10</title>
<g id="a_node10"><a xlink:href="str__utils_8h.html" target="_top" xlink:title=" ">
<polygon fill="white" stroke="#666666" points="65,-134.5 0,-134.5 0,-115.5 65,-115.5 65,-134.5"/>
<text text-anchor="middle" x="32.5" y="-122.5" font-family="Helvetica,sans-Serif" font-size="10.00">str_utils.h</text>
</a>
</g>
</g>
<!-- Node6&#45;&gt;Node10 -->
<g id="edge12" class="edge">
<title>Node6&#45;&gt;Node10</title>
<path fill="none" stroke="#63b8ff" d="M103.25,-175.87C90.14,-166.62 69.08,-151.78 53.35,-140.69"/>
<polygon fill="#63b8ff" stroke="#63b8ff" points="54.99,-137.57 44.8,-134.67 50.95,-143.29 54.99,-137.57"/>
</g>
<!-- Node8 -->
<g id="node8" class="node">
<title>Node8</title>
<g id="a_node8"><a xlink:title=" ">
<polygon fill="#e0e0e0" stroke="#999999" points="170.5,-19 122.5,-19 122.5,0 170.5,0 170.5,-19"/>
<text text-anchor="middle" x="146.5" y="-7" font-family="Helvetica,sans-Serif" font-size="10.00">Wire.h</text>
</a>
</g>
</g>
<!-- Node7&#45;&gt;Node8 -->
<g id="edge8" class="edge">
<title>Node7&#45;&gt;Node8</title>
<path fill="none" stroke="#63b8ff" d="M117.83,-115.47C122.83,-97.15 134.71,-53.68 141.5,-28.81"/>
<polygon fill="#63b8ff" stroke="#63b8ff" points="144.88,-29.7 144.14,-19.13 138.13,-27.85 144.88,-29.7"/>
</g>
<!-- Node9 -->
<g id="node9" class="node">
<title>Node9</title>
<g id="a_node9"><a xlink:href="_t_c_a9534_8h.html" target="_top" xlink:title=" ">
<polygon fill="white" stroke="#666666" points="211.5,-74 143.5,-74 143.5,-55 211.5,-55 211.5,-74"/>
<text text-anchor="middle" x="177.5" y="-62" font-family="Helvetica,sans-Serif" font-size="10.00">TCA9534.h</text>
</a>
</g>
</g>
<!-- Node7&#45;&gt;Node9 -->
<g id="edge9" class="edge">
<title>Node7&#45;&gt;Node9</title>
<path fill="none" stroke="#63b8ff" d="M124.65,-115.37C134.17,-106.38 149.3,-92.11 160.93,-81.14"/>
<polygon fill="#63b8ff" stroke="#63b8ff" points="163.44,-83.58 168.31,-74.17 158.64,-78.48 163.44,-83.58"/>
</g>
<!-- Node9&#45;&gt;Node3 -->
<g id="edge10" class="edge">
<title>Node9&#45;&gt;Node3</title>
<path fill="none" stroke="#63b8ff" d="M211.72,-56.19C256.75,-46.56 335.83,-29.66 384.16,-19.34"/>
<polygon fill="#63b8ff" stroke="#63b8ff" points="384.93,-22.75 393.98,-17.24 383.47,-15.9 384.93,-22.75"/>
</g>
<!-- Node9&#45;&gt;Node8 -->
<g id="edge11" class="edge">
<title>Node9&#45;&gt;Node8</title>
<path fill="none" stroke="#63b8ff" d="M172.38,-54.75C168.14,-47.49 161.97,-36.95 156.72,-27.98"/>
<polygon fill="#63b8ff" stroke="#63b8ff" points="159.59,-25.95 151.52,-19.09 153.55,-29.49 159.59,-25.95"/>
</g>
<!-- Node11 -->
<g id="node11" class="node">
<title>Node11</title>
<g id="a_node11"><a xlink:title=" ">
<polygon fill="#e0e0e0" stroke="#999999" points="60.5,-74 4.5,-74 4.5,-55 60.5,-55 60.5,-74"/>
<text text-anchor="middle" x="32.5" y="-62" font-family="Helvetica,sans-Serif" font-size="10.00">stddef.h</text>
</a>
</g>
</g>
<!-- Node10&#45;&gt;Node11 -->
<g id="edge13" class="edge">
<title>Node10&#45;&gt;Node11</title>
<path fill="none" stroke="#63b8ff" d="M32.5,-115.37C32.5,-107.25 32.5,-94.81 32.5,-84.39"/>
<polygon fill="#63b8ff" stroke="#63b8ff" points="36,-84.17 32.5,-74.17 29,-84.17 36,-84.17"/>
</g>
<!-- Node12&#45;&gt;Node3 -->
<g id="edge15" class="edge">
<title>Node12&#45;&gt;Node3</title>
<path fill="none" stroke="#63b8ff" d="M490.04,-230.64C482.63,-204.01 459.76,-122.34 439.5,-55 436.9,-46.36 433.91,-36.82 431.37,-28.79"/>
<polygon fill="#63b8ff" stroke="#63b8ff" points="434.62,-27.47 428.25,-19.01 427.95,-29.6 434.62,-27.47"/>
</g>
<!-- Node13 -->
<g id="node13" class="node">
<title>Node13</title>
<g id="a_node13"><a xlink:title=" ">
<polygon fill="#e0e0e0" stroke="#999999" points="590,-195 551,-195 551,-176 590,-176 590,-195"/>
<text text-anchor="middle" x="570.5" y="-183" font-family="Helvetica,sans-Serif" font-size="10.00">SD.h</text>
</a>
</g>
</g>
<!-- Node12&#45;&gt;Node13 -->
<g id="edge16" class="edge">
<title>Node12&#45;&gt;Node13</title>
<path fill="none" stroke="#63b8ff" d="M505.03,-230.98C516.9,-222.92 534.96,-210.65 549.11,-201.03"/>
<polygon fill="#63b8ff" stroke="#63b8ff" points="551.44,-203.69 557.74,-195.17 547.5,-197.9 551.44,-203.69"/>
</g>
<!-- Node14 -->
<g id="node14" class="node">
<title>Node14</title>
<g id="a_node14"><a xlink:title=" ">
<polygon fill="#e0e0e0" stroke="#999999" points="533,-195 492,-195 492,-176 533,-176 533,-195"/>
<text text-anchor="middle" x="512.5" y="-183" font-family="Helvetica,sans-Serif" font-size="10.00">SPI.h</text>
</a>
</g>
</g>
<!-- Node12&#45;&gt;Node14 -->
<g id="edge17" class="edge">
<title>Node12&#45;&gt;Node14</title>
<path fill="none" stroke="#63b8ff" d="M495.8,-230.75C498.48,-223.65 502.35,-213.4 505.69,-204.56"/>
<polygon fill="#63b8ff" stroke="#63b8ff" points="509,-205.68 509.26,-195.09 502.45,-203.21 509,-205.68"/>
</g>
<!-- Node15&#45;&gt;Node4 -->
<g id="edge19" class="edge">
<title>Node15&#45;&gt;Node4</title>
<path fill="none" stroke="#63b8ff" d="M266.53,-230.98C283.43,-222.54 309.56,-209.47 329.14,-199.68"/>
<polygon fill="#63b8ff" stroke="#63b8ff" points="330.78,-202.77 338.16,-195.17 327.65,-196.51 330.78,-202.77"/>
</g>
<!-- Node15&#45;&gt;Node6 -->
<g id="edge21" class="edge">
<title>Node15&#45;&gt;Node6</title>
<path fill="none" stroke="#63b8ff" d="M227.97,-230.98C206.03,-222.3 171.76,-208.75 146.81,-198.88"/>
<polygon fill="#63b8ff" stroke="#63b8ff" points="148.01,-195.59 137.42,-195.17 145.43,-202.1 148.01,-195.59"/>
</g>
<!-- Node16 -->
<g id="node16" class="node">
<title>Node16</title>
<g id="a_node16"><a xlink:title=" ">
<polygon fill="#e0e0e0" stroke="#999999" points="296,-195 203,-195 203,-176 296,-176 296,-195"/>
<text text-anchor="middle" x="249.5" y="-183" font-family="Helvetica,sans-Serif" font-size="10.00">dpiclimate&#45;12.h</text>
</a>
</g>
</g>
<!-- Node15&#45;&gt;Node16 -->
<g id="edge20" class="edge">
<title>Node15&#45;&gt;Node16</title>
<path fill="none" stroke="#63b8ff" d="M249.5,-230.75C249.5,-223.8 249.5,-213.85 249.5,-205.13"/>
<polygon fill="#63b8ff" stroke="#63b8ff" points="253,-205.09 249.5,-195.09 246,-205.09 253,-205.09"/>
</g>
</g>
</svg>
