<?xml version="1.0" encoding="UTF-8" standalone="no"?>
<!DOCTYPE svg PUBLIC "-//W3C//DTD SVG 1.1//EN"
 "http://www.w3.org/Graphics/SVG/1.1/DTD/svg11.dtd">
<!-- Generated by graphviz version 2.43.0 (0)
 -->
<!-- Title: firmware/wombat/include/ftp_stack.h Pages: 1 -->
<svg width="458pt" height="324pt"
 viewBox="0.00 0.00 457.50 324.00" xmlns="http://www.w3.org/2000/svg" xmlns:xlink="http://www.w3.org/1999/xlink">
<g id="graph0" class="graph" transform="scale(1 1) rotate(0) translate(4 320)">
<title>firmware/wombat/include/ftp_stack.h</title>
<!-- Node1 -->
<g id="node1" class="node">
<title>Node1</title>
<g id="a_node1"><a xlink:title=" ">
<polygon fill="#999999" stroke="#666666" points="239.5,-316 98.5,-316 98.5,-286 239.5,-286 239.5,-316"/>
<text text-anchor="start" x="106.5" y="-304" font-family="Helvetica,sans-Serif" font-size="10.00">firmware/wombat/include</text>
<text text-anchor="middle" x="169" y="-293" font-family="Helvetica,sans-Serif" font-size="10.00">/ftp_stack.h</text>
</a>
</g>
</g>
<!-- Node2 -->
<g id="node2" class="node">
<title>Node2</title>
<g id="a_node2"><a xlink:href="_utils_8h.html" target="_top" xlink:title=" ">
<polygon fill="white" stroke="#666666" points="193,-250 145,-250 145,-231 193,-231 193,-250"/>
<text text-anchor="middle" x="169" y="-238" font-family="Helvetica,sans-Serif" font-size="10.00">Utils.h</text>
</a>
</g>
</g>
<!-- Node1&#45;&gt;Node2 -->
<g id="edge1" class="edge">
<title>Node1&#45;&gt;Node2</title>
<path fill="none" stroke="#63b8ff" d="M169,-285.84C169,-278.21 169,-268.7 169,-260.45"/>
<polygon fill="#63b8ff" stroke="#63b8ff" points="172.5,-260.27 169,-250.27 165.5,-260.27 172.5,-260.27"/>
</g>
<!-- Node3 -->
<g id="node3" class="node">
<title>Node3</title>
<g id="a_node3"><a xlink:title=" ">
<polygon fill="#e0e0e0" stroke="#999999" points="56,-195 0,-195 0,-176 56,-176 56,-195"/>
<text text-anchor="middle" x="28" y="-183" font-family="Helvetica,sans-Serif" font-size="10.00">stddef.h</text>
</a>
</g>
</g>
<!-- Node2&#45;&gt;Node3 -->
<g id="edge2" class="edge">
<title>Node2&#45;&gt;Node3</title>
<path fill="none" stroke="#63b8ff" d="M146.35,-230.98C123.15,-222.27 86.88,-208.63 60.6,-198.75"/>
<polygon fill="#63b8ff" stroke="#63b8ff" points="61.66,-195.41 51.07,-195.17 59.2,-201.97 61.66,-195.41"/>
</g>
<!-- Node4 -->
<g id="node4" class="node">
<title>Node4</title>
<g id="a_node4"><a xlink:title=" ">
<polygon fill="#e0e0e0" stroke="#999999" points="157.5,-195 74.5,-195 74.5,-176 157.5,-176 157.5,-195"/>
<text text-anchor="middle" x="116" y="-183" font-family="Helvetica,sans-Serif" font-size="10.00">ArduinoJson.h</text>
</a>
</g>
</g>
<!-- Node2&#45;&gt;Node4 -->
<g id="edge3" class="edge">
<title>Node2&#45;&gt;Node4</title>
<path fill="none" stroke="#63b8ff" d="M160.25,-230.75C152.53,-223.03 141.1,-211.6 131.78,-202.28"/>
<polygon fill="#63b8ff" stroke="#63b8ff" points="134.14,-199.69 124.59,-195.09 129.19,-204.64 134.14,-199.69"/>
</g>
<!-- Node5 -->
<g id="node5" class="node">
<title>Node5</title>
<g id="a_node5"><a xlink:title=" ">
<polygon fill="#e0e0e0" stroke="#999999" points="268.5,-195 175.5,-195 175.5,-176 268.5,-176 268.5,-195"/>
<text text-anchor="middle" x="222" y="-183" font-family="Helvetica,sans-Serif" font-size="10.00">dpiclimate&#45;12.h</text>
</a>
</g>
</g>
<!-- Node2&#45;&gt;Node5 -->
<g id="edge4" class="edge">
<title>Node2&#45;&gt;Node5</title>
<path fill="none" stroke="#63b8ff" d="M177.75,-230.75C185.47,-223.03 196.9,-211.6 206.22,-202.28"/>
<polygon fill="#63b8ff" stroke="#63b8ff" points="208.81,-204.64 213.41,-195.09 203.86,-199.69 208.81,-204.64"/>
</g>
<!-- Node6 -->
<g id="node6" class="node">
<title>Node6</title>
<g id="a_node6"><a xlink:href="globals_8h.html" target="_top" xlink:title=" ">
<polygon fill="white" stroke="#666666" points="347.5,-195 286.5,-195 286.5,-176 347.5,-176 347.5,-195"/>
<text text-anchor="middle" x="317" y="-183" font-family="Helvetica,sans-Serif" font-size="10.00">globals.h</text>
</a>
</g>
</g>
<!-- Node2&#45;&gt;Node6 -->
<g id="edge5" class="edge">
<title>Node2&#45;&gt;Node6</title>
<path fill="none" stroke="#63b8ff" d="M192.78,-230.98C217.23,-222.23 255.53,-208.51 283.15,-198.62"/>
<polygon fill="#63b8ff" stroke="#63b8ff" points="284.55,-201.84 292.79,-195.17 282.19,-195.25 284.55,-201.84"/>
</g>
<!-- Node7 -->
<g id="node7" class="node">
<title>Node7</title>
<g id="a_node7"><a xlink:title=" ">
<polygon fill="#e0e0e0" stroke="#999999" points="324,-140 194,-140 194,-110 324,-110 324,-140"/>
<text text-anchor="start" x="202" y="-128" font-family="Helvetica,sans-Serif" font-size="10.00">SparkFun_u&#45;blox_SARA</text>
<text text-anchor="middle" x="259" y="-117" font-family="Helvetica,sans-Serif" font-size="10.00">&#45;R5_Arduino_Library.h</text>
</a>
</g>
</g>
<!-- Node6&#45;&gt;Node7 -->
<g id="edge6" class="edge">
<title>Node6&#45;&gt;Node7</title>
<path fill="none" stroke="#63b8ff" d="M308.44,-175.87C301.01,-168.37 289.93,-157.2 280.14,-147.33"/>
<polygon fill="#63b8ff" stroke="#63b8ff" points="282.52,-144.75 272.99,-140.11 277.55,-149.68 282.52,-144.75"/>
</g>
<!-- Node8 -->
<g id="node8" class="node">
<title>Node8</title>
<g id="a_node8"><a xlink:href="_c_a_t___m1_8h.html" target="_top" xlink:title=" ">
<polygon fill="white" stroke="#666666" points="407.5,-134.5 342.5,-134.5 342.5,-115.5 407.5,-115.5 407.5,-134.5"/>
<text text-anchor="middle" x="375" y="-122.5" font-family="Helvetica,sans-Serif" font-size="10.00">CAT_M1.h</text>
</a>
</g>
</g>
<!-- Node6&#45;&gt;Node8 -->
<g id="edge7" class="edge">
<title>Node6&#45;&gt;Node8</title>
<path fill="none" stroke="#63b8ff" d="M325.56,-175.87C334.38,-166.97 348.34,-152.89 359.18,-141.95"/>
<polygon fill="#63b8ff" stroke="#63b8ff" points="361.85,-144.23 366.41,-134.67 356.88,-139.3 361.85,-144.23"/>
</g>
<!-- Node9 -->
<g id="node9" class="node">
<title>Node9</title>
<g id="a_node9"><a xlink:title=" ">
<polygon fill="#e0e0e0" stroke="#999999" points="368,-19 320,-19 320,0 368,0 368,-19"/>
<text text-anchor="middle" x="344" y="-7" font-family="Helvetica,sans-Serif" font-size="10.00">Wire.h</text>
</a>
</g>
</g>
<!-- Node8&#45;&gt;Node9 -->
<g id="edge8" class="edge">
<title>Node8&#45;&gt;Node9</title>
<path fill="none" stroke="#63b8ff" d="M372.67,-115.47C367.67,-97.15 355.79,-53.68 349,-28.81"/>
<polygon fill="#63b8ff" stroke="#63b8ff" points="352.37,-27.85 346.36,-19.13 345.62,-29.7 352.37,-27.85"/>
</g>
<!-- Node10 -->
<g id="node10" class="node">
<title>Node10</title>
<g id="a_node10"><a xlink:href="_t_c_a9534_8h.html" target="_top" xlink:title=" ">
<polygon fill="white" stroke="#666666" points="440,-74 372,-74 372,-55 440,-55 440,-74"/>
<text text-anchor="middle" x="406" y="-62" font-family="Helvetica,sans-Serif" font-size="10.00">TCA9534.h</text>
</a>
</g>
</g>
<!-- Node8&#45;&gt;Node10 -->
<g id="edge9" class="edge">
<title>Node8&#45;&gt;Node10</title>
<path fill="none" stroke="#63b8ff" d="M379.57,-115.37C384.06,-106.9 391.03,-93.74 396.69,-83.07"/>
<polygon fill="#63b8ff" stroke="#63b8ff" points="399.82,-84.64 401.41,-74.17 393.63,-81.36 399.82,-84.64"/>
</g>
<!-- Node10&#45;&gt;Node9 -->
<g id="edge11" class="edge">
<title>Node10&#45;&gt;Node9</title>
<path fill="none" stroke="#63b8ff" d="M396.04,-54.98C386.87,-47.15 373.06,-35.34 361.97,-25.86"/>
<polygon fill="#63b8ff" stroke="#63b8ff" points="364.02,-23.01 354.14,-19.17 359.47,-28.33 364.02,-23.01"/>
</g>
<!-- Node11 -->
<g id="node11" class="node">
<title>Node11</title>
<g id="a_node11"><a xlink:title=" ">
<polygon fill="#e0e0e0" stroke="#999999" points="449.5,-19 386.5,-19 386.5,0 449.5,0 449.5,-19"/>
<text text-anchor="middle" x="418" y="-7" font-family="Helvetica,sans-Serif" font-size="10.00">Arduino.h</text>
</a>
</g>
</g>
<!-- Node10&#45;&gt;Node11 -->
<g id="edge10" class="edge">
<title>Node10&#45;&gt;Node11</title>
<path fill="none" stroke="#63b8ff" d="M407.98,-54.75C409.57,-47.72 411.86,-37.62 413.85,-28.84"/>
<polygon fill="#63b8ff" stroke="#63b8ff" points="417.26,-29.62 416.06,-19.09 410.43,-28.07 417.26,-29.62"/>
</g>
</g>
</svg>
