<?xml version="1.0" encoding="UTF-8" standalone="no"?>
<!DOCTYPE svg PUBLIC "-//W3C//DTD SVG 1.1//EN"
 "http://www.w3.org/Graphics/SVG/1.1/DTD/svg11.dtd">
<!-- Generated by graphviz version 2.43.0 (0)
 -->
<!-- Title: firmware/wombat/src/ftp_stack.cpp Pages: 1 -->
<svg width="544pt" height="269pt"
 viewBox="0.00 0.00 544.00 269.00" xmlns="http://www.w3.org/2000/svg" xmlns:xlink="http://www.w3.org/1999/xlink">
<g id="graph0" class="graph" transform="scale(1 1) rotate(0) translate(4 265)">
<title>firmware/wombat/src/ftp_stack.cpp</title>
<!-- Node1 -->
<g id="node1" class="node">
<title>Node1</title>
<g id="a_node1"><a xlink:title=" ">
<polygon fill="#999999" stroke="#666666" points="329.5,-261 209.5,-261 209.5,-231 329.5,-231 329.5,-261"/>
<text text-anchor="start" x="217.5" y="-249" font-family="Helvetica,sans-Serif" font-size="10.00">firmware/wombat/src</text>
<text text-anchor="middle" x="269.5" y="-238" font-family="Helvetica,sans-Serif" font-size="10.00">/ftp_stack.cpp</text>
</a>
</g>
</g>
<!-- Node2 -->
<g id="node2" class="node">
<title>Node2</title>
<g id="a_node2"><a xlink:href="_device_config_8h.html" target="_top" xlink:title="Node configuration options.">
<polygon fill="white" stroke="#666666" points="191.5,-195 101.5,-195 101.5,-176 191.5,-176 191.5,-195"/>
<text text-anchor="middle" x="146.5" y="-183" font-family="Helvetica,sans-Serif" font-size="10.00">DeviceConfig.h</text>
</a>
</g>
</g>
<!-- Node1&#45;&gt;Node2 -->
<g id="edge1" class="edge">
<title>Node1&#45;&gt;Node2</title>
<path fill="none" stroke="#63b8ff" d="M240.04,-230.99C219.88,-221.4 193.36,-208.79 173.7,-199.44"/>
<polygon fill="#63b8ff" stroke="#63b8ff" points="175.2,-196.27 164.66,-195.14 172.19,-202.6 175.2,-196.27"/>
</g>
<!-- Node5 -->
<g id="node5" class="node">
<title>Node5</title>
<g id="a_node5"><a xlink:title=" ">
<polygon fill="#e0e0e0" stroke="#999999" points="350.5,-140 220.5,-140 220.5,-110 350.5,-110 350.5,-140"/>
<text text-anchor="start" x="228.5" y="-128" font-family="Helvetica,sans-Serif" font-size="10.00">SparkFun_u&#45;blox_SARA</text>
<text text-anchor="middle" x="285.5" y="-117" font-family="Helvetica,sans-Serif" font-size="10.00">&#45;R5_Arduino_Library.h</text>
</a>
</g>
</g>
<!-- Node1&#45;&gt;Node5 -->
<g id="edge4" class="edge">
<title>Node1&#45;&gt;Node5</title>
<path fill="none" stroke="#63b8ff" d="M272.81,-230.63C275,-220.68 277.77,-207.09 279.5,-195 281.61,-180.21 283.09,-163.53 284.05,-150.27"/>
<polygon fill="#63b8ff" stroke="#63b8ff" points="287.56,-150.27 284.73,-140.06 280.57,-149.8 287.56,-150.27"/>
</g>
<!-- Node6 -->
<g id="node6" class="node">
<title>Node6</title>
<g id="a_node6"><a xlink:href="globals_8h.html" target="_top" xlink:title=" ">
<polygon fill="white" stroke="#666666" points="271,-195 210,-195 210,-176 271,-176 271,-195"/>
<text text-anchor="middle" x="240.5" y="-183" font-family="Helvetica,sans-Serif" font-size="10.00">globals.h</text>
</a>
</g>
</g>
<!-- Node1&#45;&gt;Node6 -->
<g id="edge5" class="edge">
<title>Node1&#45;&gt;Node6</title>
<path fill="none" stroke="#63b8ff" d="M262.48,-230.84C258.53,-222.87 253.56,-212.84 249.34,-204.33"/>
<polygon fill="#63b8ff" stroke="#63b8ff" points="252.42,-202.67 244.85,-195.27 246.15,-205.78 252.42,-202.67"/>
</g>
<!-- Node10 -->
<g id="node10" class="node">
<title>Node10</title>
<g id="a_node10"><a xlink:href="_utils_8h.html" target="_top" xlink:title=" ">
<polygon fill="white" stroke="#666666" points="404.5,-195 356.5,-195 356.5,-176 404.5,-176 404.5,-195"/>
<text text-anchor="middle" x="380.5" y="-183" font-family="Helvetica,sans-Serif" font-size="10.00">Utils.h</text>
</a>
</g>
</g>
<!-- Node1&#45;&gt;Node10 -->
<g id="edge12" class="edge">
<title>Node1&#45;&gt;Node10</title>
<path fill="none" stroke="#63b8ff" d="M296.09,-230.99C313.95,-221.58 337.34,-209.24 354.98,-199.95"/>
<polygon fill="#63b8ff" stroke="#63b8ff" points="356.89,-202.9 364.11,-195.14 353.63,-196.71 356.89,-202.9"/>
</g>
<!-- Node3 -->
<g id="node3" class="node">
<title>Node3</title>
<g id="a_node3"><a xlink:title=" ">
<polygon fill="#e0e0e0" stroke="#999999" points="63,-19 0,-19 0,0 63,0 63,-19"/>
<text text-anchor="middle" x="31.5" y="-7" font-family="Helvetica,sans-Serif" font-size="10.00">Arduino.h</text>
</a>
</g>
</g>
<!-- Node2&#45;&gt;Node3 -->
<g id="edge2" class="edge">
<title>Node2&#45;&gt;Node3</title>
<path fill="none" stroke="#63b8ff" d="M101.23,-180.15C74.81,-175.03 43.43,-163.95 26.5,-140 2.98,-106.74 15.23,-55.75 24.42,-28.75"/>
<polygon fill="#63b8ff" stroke="#63b8ff" points="27.81,-29.65 27.94,-19.06 21.23,-27.26 27.81,-29.65"/>
</g>
<!-- Node4 -->
<g id="node4" class="node">
<title>Node4</title>
<g id="a_node4"><a xlink:title=" ">
<polygon fill="#e0e0e0" stroke="#999999" points="202,-134.5 119,-134.5 119,-115.5 202,-115.5 202,-134.5"/>
<text text-anchor="middle" x="160.5" y="-122.5" font-family="Helvetica,sans-Serif" font-size="10.00">ArduinoJson.h</text>
</a>
</g>
</g>
<!-- Node2&#45;&gt;Node4 -->
<g id="edge3" class="edge">
<title>Node2&#45;&gt;Node4</title>
<path fill="none" stroke="#63b8ff" d="M148.57,-175.87C150.53,-167.66 153.55,-155.04 156.06,-144.55"/>
<polygon fill="#63b8ff" stroke="#63b8ff" points="159.5,-145.21 158.43,-134.67 152.69,-143.58 159.5,-145.21"/>
</g>
<!-- Node6&#45;&gt;Node5 -->
<g id="edge6" class="edge">
<title>Node6&#45;&gt;Node5</title>
<path fill="none" stroke="#63b8ff" d="M247.14,-175.87C252.74,-168.59 261,-157.85 268.42,-148.2"/>
<polygon fill="#63b8ff" stroke="#63b8ff" points="271.32,-150.17 274.64,-140.11 265.77,-145.91 271.32,-150.17"/>
</g>
<!-- Node7 -->
<g id="node7" class="node">
<title>Node7</title>
<g id="a_node7"><a xlink:href="_c_a_t___m1_8h.html" target="_top" xlink:title=" ">
<polygon fill="white" stroke="#666666" points="101,-134.5 36,-134.5 36,-115.5 101,-115.5 101,-134.5"/>
<text text-anchor="middle" x="68.5" y="-122.5" font-family="Helvetica,sans-Serif" font-size="10.00">CAT_M1.h</text>
</a>
</g>
</g>
<!-- Node6&#45;&gt;Node7 -->
<g id="edge7" class="edge">
<title>Node6&#45;&gt;Node7</title>
<path fill="none" stroke="#63b8ff" d="M215.38,-175.98C189.01,-167.03 146.33,-152.54 109.5,-140 107.42,-139.29 105.28,-138.56 103.11,-137.82"/>
<polygon fill="#63b8ff" stroke="#63b8ff" points="104.24,-134.51 93.65,-134.59 101.98,-141.14 104.24,-134.51"/>
</g>
<!-- Node8 -->
<g id="node8" class="node">
<title>Node8</title>
<g id="a_node8"><a xlink:title=" ">
<polygon fill="#e0e0e0" stroke="#999999" points="141.5,-19 93.5,-19 93.5,0 141.5,0 141.5,-19"/>
<text text-anchor="middle" x="117.5" y="-7" font-family="Helvetica,sans-Serif" font-size="10.00">Wire.h</text>
</a>
</g>
</g>
<!-- Node7&#45;&gt;Node8 -->
<g id="edge8" class="edge">
<title>Node7&#45;&gt;Node8</title>
<path fill="none" stroke="#63b8ff" d="M79.08,-115.29C89.32,-106.17 104.33,-90.86 111.5,-74 117.54,-59.81 118.78,-42.28 118.66,-29.23"/>
<polygon fill="#63b8ff" stroke="#63b8ff" points="122.15,-28.98 118.29,-19.12 115.16,-29.24 122.15,-28.98"/>
</g>
<!-- Node9 -->
<g id="node9" class="node">
<title>Node9</title>
<g id="a_node9"><a xlink:href="_t_c_a9534_8h.html" target="_top" xlink:title=" ">
<polygon fill="white" stroke="#666666" points="102.5,-74 34.5,-74 34.5,-55 102.5,-55 102.5,-74"/>
<text text-anchor="middle" x="68.5" y="-62" font-family="Helvetica,sans-Serif" font-size="10.00">TCA9534.h</text>
</a>
</g>
</g>
<!-- Node7&#45;&gt;Node9 -->
<g id="edge9" class="edge">
<title>Node7&#45;&gt;Node9</title>
<path fill="none" stroke="#63b8ff" d="M68.5,-115.37C68.5,-107.25 68.5,-94.81 68.5,-84.39"/>
<polygon fill="#63b8ff" stroke="#63b8ff" points="72,-84.17 68.5,-74.17 65,-84.17 72,-84.17"/>
</g>
<!-- Node9&#45;&gt;Node3 -->
<g id="edge10" class="edge">
<title>Node9&#45;&gt;Node3</title>
<path fill="none" stroke="#63b8ff" d="M62.39,-54.75C57.22,-47.34 49.65,-36.5 43.31,-27.41"/>
<polygon fill="#63b8ff" stroke="#63b8ff" points="46.09,-25.29 37.5,-19.09 40.35,-29.29 46.09,-25.29"/>
</g>
<!-- Node9&#45;&gt;Node8 -->
<g id="edge11" class="edge">
<title>Node9&#45;&gt;Node8</title>
<path fill="none" stroke="#63b8ff" d="M76.59,-54.75C83.66,-47.11 94.09,-35.82 102.65,-26.56"/>
<polygon fill="#63b8ff" stroke="#63b8ff" points="105.34,-28.81 109.56,-19.09 100.2,-24.06 105.34,-28.81"/>
</g>
<!-- Node10&#45;&gt;Node4 -->
<g id="edge14" class="edge">
<title>Node10&#45;&gt;Node4</title>
<path fill="none" stroke="#63b8ff" d="M356.41,-178.24C323.61,-169.7 263.07,-153.87 211.5,-140 208.16,-139.1 204.7,-138.17 201.23,-137.22"/>
<polygon fill="#63b8ff" stroke="#63b8ff" points="202.07,-133.82 191.5,-134.57 200.23,-140.58 202.07,-133.82"/>
</g>
<!-- Node11 -->
<g id="node11" class="node">
<title>Node11</title>
<g id="a_node11"><a xlink:title=" ">
<polygon fill="#e0e0e0" stroke="#999999" points="424.5,-134.5 368.5,-134.5 368.5,-115.5 424.5,-115.5 424.5,-134.5"/>
<text text-anchor="middle" x="396.5" y="-122.5" font-family="Helvetica,sans-Serif" font-size="10.00">stddef.h</text>
</a>
</g>
</g>
<!-- Node10&#45;&gt;Node11 -->
<g id="edge13" class="edge">
<title>Node10&#45;&gt;Node11</title>
<path fill="none" stroke="#63b8ff" d="M382.86,-175.87C385.11,-167.66 388.56,-155.04 391.43,-144.55"/>
<polygon fill="#63b8ff" stroke="#63b8ff" points="394.87,-145.24 394.13,-134.67 388.12,-143.39 394.87,-145.24"/>
</g>
<!-- Node12 -->
<g id="node12" class="node">
<title>Node12</title>
<g id="a_node12"><a xlink:title=" ">
<polygon fill="#e0e0e0" stroke="#999999" points="536,-134.5 443,-134.5 443,-115.5 536,-115.5 536,-134.5"/>
<text text-anchor="middle" x="489.5" y="-122.5" font-family="Helvetica,sans-Serif" font-size="10.00">dpiclimate&#45;12.h</text>
</a>
</g>
</g>
<!-- Node10&#45;&gt;Node12 -->
<g id="edge15" class="edge">
<title>Node10&#45;&gt;Node12</title>
<path fill="none" stroke="#63b8ff" d="M396.58,-175.87C414.45,-166.28 443.54,-150.67 464.41,-139.47"/>
<polygon fill="#63b8ff" stroke="#63b8ff" points="466.19,-142.48 473.35,-134.67 462.88,-136.31 466.19,-142.48"/>
</g>
</g>
</svg>
