<?xml version="1.0" encoding="UTF-8" standalone="no"?>
<!DOCTYPE svg PUBLIC "-//W3C//DTD SVG 1.1//EN"
 "http://www.w3.org/Graphics/SVG/1.1/DTD/svg11.dtd">
<!-- Generated by graphviz version 2.43.0 (0)
 -->
<!-- Title: firmware/wombat/src/ftp_stack.cpp Pages: 1 -->
<svg width="2130pt" height="335pt"
 viewBox="0.00 0.00 2129.50 335.00" xmlns="http://www.w3.org/2000/svg" xmlns:xlink="http://www.w3.org/1999/xlink">
<g id="graph0" class="graph" transform="scale(1 1) rotate(0) translate(4 331)">
<title>firmware/wombat/src/ftp_stack.cpp</title>
<!-- Node1 -->
<g id="node1" class="node">
<title>Node1</title>
<g id="a_node1"><a xlink:title=" ">
<polygon fill="#999999" stroke="#666666" points="264,-327 144,-327 144,-297 264,-297 264,-327"/>
<text text-anchor="start" x="152" y="-315" font-family="Helvetica,sans-Serif" font-size="10.00">firmware/wombat/src</text>
<text text-anchor="middle" x="204" y="-304" font-family="Helvetica,sans-Serif" font-size="10.00">/ftp_stack.cpp</text>
</a>
</g>
</g>
<!-- Node2 -->
<g id="node2" class="node">
<title>Node2</title>
<g id="a_node2"><a xlink:title=" ">
<polygon fill="#e0e0e0" stroke="#999999" points="58,-261 0,-261 0,-242 58,-242 58,-261"/>
<text text-anchor="middle" x="29" y="-249" font-family="Helvetica,sans-Serif" font-size="10.00">SPIFFS.h</text>
</a>
</g>
</g>
<!-- Node1&#45;&gt;Node2 -->
<g id="edge1" class="edge">
<title>Node1&#45;&gt;Node2</title>
<path fill="none" stroke="#63b8ff" d="M162.08,-296.99C132.27,-287.02 92.67,-273.78 64.44,-264.35"/>
<polygon fill="#63b8ff" stroke="#63b8ff" points="65.18,-260.9 54.59,-261.05 62.96,-267.54 65.18,-260.9"/>
</g>
<!-- Node3 -->
<g id="node3" class="node">
<title>Node3</title>
<g id="a_node3"><a xlink:href="_c_a_t___m1_8h.html" target="_top" xlink:title=" ">
<polygon fill="white" stroke="#666666" points="332.5,-134.5 267.5,-134.5 267.5,-115.5 332.5,-115.5 332.5,-134.5"/>
<text text-anchor="middle" x="300" y="-122.5" font-family="Helvetica,sans-Serif" font-size="10.00">CAT_M1.h</text>
</a>
</g>
</g>
<!-- Node1&#45;&gt;Node3 -->
<g id="edge2" class="edge">
<title>Node1&#45;&gt;Node3</title>
<path fill="none" stroke="#63b8ff" d="M206.81,-296.7C212.3,-271.03 226.15,-216.07 251,-176 259.19,-162.8 271.42,-150.31 281.61,-141.12"/>
<polygon fill="#63b8ff" stroke="#63b8ff" points="283.97,-143.7 289.23,-134.51 279.38,-138.42 283.97,-143.7"/>
</g>
<!-- Node7 -->
<g id="node7" class="node">
<title>Node7</title>
<g id="a_node7"><a xlink:href="_utils_8h.html" target="_top" xlink:title=" ">
<polygon fill="white" stroke="#666666" points="898,-134.5 850,-134.5 850,-115.5 898,-115.5 898,-134.5"/>
<text text-anchor="middle" x="874" y="-122.5" font-family="Helvetica,sans-Serif" font-size="10.00">Utils.h</text>
</a>
</g>
</g>
<!-- Node1&#45;&gt;Node7 -->
<g id="edge7" class="edge">
<title>Node1&#45;&gt;Node7</title>
<path fill="none" stroke="#63b8ff" d="M264.27,-309.98C483.54,-305.64 1229.58,-285.13 1297,-206 1305.65,-195.85 1305.96,-185.87 1297,-176 1241.49,-114.82 1008.31,-154.6 927,-140 920.73,-138.87 914.12,-137.38 907.76,-135.79"/>
<polygon fill="#63b8ff" stroke="#63b8ff" points="908.65,-132.4 898.09,-133.24 906.87,-139.17 908.65,-132.4"/>
</g>
<!-- Node11 -->
<g id="node11" class="node">
<title>Node11</title>
<g id="a_node11"><a xlink:href="_device_config_8h.html" target="_top" xlink:title="Node configuration options.">
<polygon fill="white" stroke="#666666" points="1268,-134.5 1178,-134.5 1178,-115.5 1268,-115.5 1268,-134.5"/>
<text text-anchor="middle" x="1223" y="-122.5" font-family="Helvetica,sans-Serif" font-size="10.00">DeviceConfig.h</text>
</a>
</g>
</g>
<!-- Node1&#45;&gt;Node11 -->
<g id="edge11" class="edge">
<title>Node1&#45;&gt;Node11</title>
<path fill="none" stroke="#63b8ff" d="M264.05,-310.91C505.74,-309.92 1398.17,-299.89 1477,-206 1485.57,-195.79 1485.47,-186.3 1477,-176 1464.43,-160.72 1348.98,-142.8 1278.12,-133.11"/>
<polygon fill="#63b8ff" stroke="#63b8ff" points="1278.39,-129.61 1268.01,-131.74 1277.45,-136.55 1278.39,-129.61"/>
</g>
<!-- Node12 -->
<g id="node12" class="node">
<title>Node12</title>
<g id="a_node12"><a xlink:title=" ">
<polygon fill="#e0e0e0" stroke="#999999" points="163,-140 33,-140 33,-110 163,-110 163,-140"/>
<text text-anchor="start" x="41" y="-128" font-family="Helvetica,sans-Serif" font-size="10.00">SparkFun_u&#45;blox_SARA</text>
<text text-anchor="middle" x="98" y="-117" font-family="Helvetica,sans-Serif" font-size="10.00">&#45;R5_Arduino_Library.h</text>
</a>
</g>
</g>
<!-- Node1&#45;&gt;Node12 -->
<g id="edge14" class="edge">
<title>Node1&#45;&gt;Node12</title>
<path fill="none" stroke="#63b8ff" d="M184.3,-296.89C160.82,-278.81 122.53,-245.09 105,-206 97.21,-188.64 95.74,-167.04 96.06,-150.67"/>
<polygon fill="#63b8ff" stroke="#63b8ff" points="99.57,-150.43 96.51,-140.28 92.58,-150.12 99.57,-150.43"/>
</g>
<!-- Node13 -->
<g id="node13" class="node">
<title>Node13</title>
<g id="a_node13"><a xlink:href="globals_8h.html" target="_top" xlink:title=" ">
<polygon fill="white" stroke="#666666" points="175.5,-200.5 114.5,-200.5 114.5,-181.5 175.5,-181.5 175.5,-200.5"/>
<text text-anchor="middle" x="145" y="-188.5" font-family="Helvetica,sans-Serif" font-size="10.00">globals.h</text>
</a>
</g>
</g>
<!-- Node1&#45;&gt;Node13 -->
<g id="edge15" class="edge">
<title>Node1&#45;&gt;Node13</title>
<path fill="none" stroke="#63b8ff" d="M197,-296.88C186.21,-275.12 165.53,-233.41 153.76,-209.67"/>
<polygon fill="#63b8ff" stroke="#63b8ff" points="156.9,-208.12 149.32,-200.71 150.63,-211.23 156.9,-208.12"/>
</g>
<!-- Node17 -->
<g id="node17" class="node">
<title>Node17</title>
<g id="a_node17"><a xlink:href="_c_l_i_8h.html" target="_top" xlink:title="FreeRTOS CLI handler.">
<polygon fill="white" stroke="#666666" points="946.5,-261 891.5,-261 891.5,-242 946.5,-242 946.5,-261"/>
<text text-anchor="middle" x="919" y="-249" font-family="Helvetica,sans-Serif" font-size="10.00">cli/CLI.h</text>
</a>
</g>
</g>
<!-- Node1&#45;&gt;Node17 -->
<g id="edge24" class="edge">
<title>Node1&#45;&gt;Node17</title>
<path fill="none" stroke="#63b8ff" d="M264.04,-306.09C406.98,-294.39 764.26,-265.16 881.25,-255.59"/>
<polygon fill="#63b8ff" stroke="#63b8ff" points="881.81,-259.05 891.5,-254.75 881.24,-252.08 881.81,-259.05"/>
</g>
<!-- Node4 -->
<g id="node4" class="node">
<title>Node4</title>
<g id="a_node4"><a xlink:title=" ">
<polygon fill="#e0e0e0" stroke="#999999" points="355,-19 307,-19 307,0 355,0 355,-19"/>
<text text-anchor="middle" x="331" y="-7" font-family="Helvetica,sans-Serif" font-size="10.00">Wire.h</text>
</a>
</g>
</g>
<!-- Node3&#45;&gt;Node4 -->
<g id="edge3" class="edge">
<title>Node3&#45;&gt;Node4</title>
<path fill="none" stroke="#63b8ff" d="M302.33,-115.47C307.33,-97.15 319.21,-53.68 326,-28.81"/>
<polygon fill="#63b8ff" stroke="#63b8ff" points="329.38,-29.7 328.64,-19.13 322.63,-27.85 329.38,-29.7"/>
</g>
<!-- Node5 -->
<g id="node5" class="node">
<title>Node5</title>
<g id="a_node5"><a xlink:href="_t_c_a9534_8h.html" target="_top" xlink:title=" ">
<polygon fill="white" stroke="#666666" points="396,-74 328,-74 328,-55 396,-55 396,-74"/>
<text text-anchor="middle" x="362" y="-62" font-family="Helvetica,sans-Serif" font-size="10.00">TCA9534.h</text>
</a>
</g>
</g>
<!-- Node3&#45;&gt;Node5 -->
<g id="edge4" class="edge">
<title>Node3&#45;&gt;Node5</title>
<path fill="none" stroke="#63b8ff" d="M309.15,-115.37C318.67,-106.38 333.8,-92.11 345.43,-81.14"/>
<polygon fill="#63b8ff" stroke="#63b8ff" points="347.94,-83.58 352.81,-74.17 343.14,-78.48 347.94,-83.58"/>
</g>
<!-- Node5&#45;&gt;Node4 -->
<g id="edge6" class="edge">
<title>Node5&#45;&gt;Node4</title>
<path fill="none" stroke="#63b8ff" d="M356.88,-54.75C352.64,-47.49 346.47,-36.95 341.22,-27.98"/>
<polygon fill="#63b8ff" stroke="#63b8ff" points="344.09,-25.95 336.02,-19.09 338.05,-29.49 344.09,-25.95"/>
</g>
<!-- Node6 -->
<g id="node6" class="node">
<title>Node6</title>
<g id="a_node6"><a xlink:title=" ">
<polygon fill="#e0e0e0" stroke="#999999" points="1428.5,-19 1365.5,-19 1365.5,0 1428.5,0 1428.5,-19"/>
<text text-anchor="middle" x="1397" y="-7" font-family="Helvetica,sans-Serif" font-size="10.00">Arduino.h</text>
</a>
</g>
</g>
<!-- Node5&#45;&gt;Node6 -->
<g id="edge5" class="edge">
<title>Node5&#45;&gt;Node6</title>
<path fill="none" stroke="#63b8ff" d="M396.14,-61.75C550.91,-53.83 1186.38,-21.29 1355.5,-12.63"/>
<polygon fill="#63b8ff" stroke="#63b8ff" points="1355.69,-16.12 1365.5,-12.11 1355.33,-9.13 1355.69,-16.12"/>
</g>
<!-- Node8 -->
<g id="node8" class="node">
<title>Node8</title>
<g id="a_node8"><a xlink:title=" ">
<polygon fill="#e0e0e0" stroke="#999999" points="902,-74 846,-74 846,-55 902,-55 902,-74"/>
<text text-anchor="middle" x="874" y="-62" font-family="Helvetica,sans-Serif" font-size="10.00">stddef.h</text>
</a>
</g>
</g>
<!-- Node7&#45;&gt;Node8 -->
<g id="edge8" class="edge">
<title>Node7&#45;&gt;Node8</title>
<path fill="none" stroke="#63b8ff" d="M874,-115.37C874,-107.25 874,-94.81 874,-84.39"/>
<polygon fill="#63b8ff" stroke="#63b8ff" points="877.5,-84.17 874,-74.17 870.5,-84.17 877.5,-84.17"/>
</g>
<!-- Node9 -->
<g id="node9" class="node">
<title>Node9</title>
<g id="a_node9"><a xlink:title=" ">
<polygon fill="#e0e0e0" stroke="#999999" points="1161.5,-74 1078.5,-74 1078.5,-55 1161.5,-55 1161.5,-74"/>
<text text-anchor="middle" x="1120" y="-62" font-family="Helvetica,sans-Serif" font-size="10.00">ArduinoJson.h</text>
</a>
</g>
</g>
<!-- Node7&#45;&gt;Node9 -->
<g id="edge9" class="edge">
<title>Node7&#45;&gt;Node9</title>
<path fill="none" stroke="#63b8ff" d="M898.23,-117.43C907.25,-115.03 917.58,-112.33 927,-110 976.03,-97.88 1032.33,-85.02 1071.42,-76.26"/>
<polygon fill="#63b8ff" stroke="#63b8ff" points="1072.47,-79.61 1081.47,-74.01 1070.94,-72.77 1072.47,-79.61"/>
</g>
<!-- Node10 -->
<g id="node10" class="node">
<title>Node10</title>
<g id="a_node10"><a xlink:title=" ">
<polygon fill="#e0e0e0" stroke="#999999" points="827.5,-74 734.5,-74 734.5,-55 827.5,-55 827.5,-74"/>
<text text-anchor="middle" x="781" y="-62" font-family="Helvetica,sans-Serif" font-size="10.00">dpiclimate&#45;12.h</text>
</a>
</g>
</g>
<!-- Node7&#45;&gt;Node10 -->
<g id="edge10" class="edge">
<title>Node7&#45;&gt;Node10</title>
<path fill="none" stroke="#63b8ff" d="M860.28,-115.37C845.3,-105.95 821.11,-90.73 803.38,-79.58"/>
<polygon fill="#63b8ff" stroke="#63b8ff" points="805.11,-76.53 794.78,-74.17 801.38,-82.45 805.11,-76.53"/>
</g>
<!-- Node11&#45;&gt;Node6 -->
<g id="edge12" class="edge">
<title>Node11&#45;&gt;Node6</title>
<path fill="none" stroke="#63b8ff" d="M1251.92,-115.36C1276.51,-107.15 1312.03,-93.21 1339,-74 1357.16,-61.07 1373.86,-41.62 1384.63,-27.66"/>
<polygon fill="#63b8ff" stroke="#63b8ff" points="1387.63,-29.5 1390.81,-19.4 1382.02,-25.31 1387.63,-29.5"/>
</g>
<!-- Node11&#45;&gt;Node9 -->
<g id="edge13" class="edge">
<title>Node11&#45;&gt;Node9</title>
<path fill="none" stroke="#63b8ff" d="M1207.8,-115.37C1190.99,-105.82 1163.68,-90.31 1143.98,-79.12"/>
<polygon fill="#63b8ff" stroke="#63b8ff" points="1145.68,-76.06 1135.26,-74.17 1142.23,-82.15 1145.68,-76.06"/>
</g>
<!-- Node13&#45;&gt;Node3 -->
<g id="edge23" class="edge">
<title>Node13&#45;&gt;Node3</title>
<path fill="none" stroke="#63b8ff" d="M165.9,-181.37C192.6,-170.35 238.99,-151.19 269.59,-138.55"/>
<polygon fill="#63b8ff" stroke="#63b8ff" points="271.02,-141.75 278.93,-134.7 268.35,-135.28 271.02,-141.75"/>
</g>
<!-- Node13&#45;&gt;Node12 -->
<g id="edge22" class="edge">
<title>Node13&#45;&gt;Node12</title>
<path fill="none" stroke="#63b8ff" d="M138.66,-181.37C132.51,-172.99 122.91,-159.93 114.59,-148.59"/>
<polygon fill="#63b8ff" stroke="#63b8ff" points="117.29,-146.35 108.55,-140.36 111.64,-150.49 117.29,-146.35"/>
</g>
<!-- Node14 -->
<g id="node14" class="node">
<title>Node14</title>
<g id="a_node14"><a xlink:href="battery_8h.html" target="_top" xlink:title="Battery voltage and current monitoring using INA219 IC.">
<polygon fill="white" stroke="#666666" points="1330.5,-74 1179.5,-74 1179.5,-55 1330.5,-55 1330.5,-74"/>
<text text-anchor="middle" x="1255" y="-62" font-family="Helvetica,sans-Serif" font-size="10.00">power_monitoring/battery.h</text>
</a>
</g>
</g>
<!-- Node13&#45;&gt;Node14 -->
<g id="edge16" class="edge">
<title>Node13&#45;&gt;Node14</title>
<path fill="none" stroke="#63b8ff" d="M158.27,-181.39C173.21,-171.61 198.13,-155.06 219,-140 236.73,-127.21 237.44,-117.45 258,-110 350.83,-76.37 1031.53,-80.78 1169.49,-73.88"/>
<polygon fill="#63b8ff" stroke="#63b8ff" points="1169.7,-77.37 1179.48,-73.29 1169.29,-70.38 1169.7,-77.37"/>
</g>
<!-- Node16 -->
<g id="node16" class="node">
<title>Node16</title>
<g id="a_node16"><a xlink:href="solar_8h.html" target="_top" xlink:title="Solar voltage and current monitoring using INA219 IC.">
<polygon fill="white" stroke="#666666" points="1060,-74 920,-74 920,-55 1060,-55 1060,-74"/>
<text text-anchor="middle" x="990" y="-62" font-family="Helvetica,sans-Serif" font-size="10.00">power_monitoring/solar.h</text>
</a>
</g>
</g>
<!-- Node13&#45;&gt;Node16 -->
<g id="edge19" class="edge">
<title>Node13&#45;&gt;Node16</title>
<path fill="none" stroke="#63b8ff" d="M150.23,-181.46C161.33,-164.24 189.1,-125.67 224,-110 291.35,-79.76 798.37,-80.03 909.53,-73.93"/>
<polygon fill="#63b8ff" stroke="#63b8ff" points="910.06,-77.4 919.81,-73.25 909.6,-70.42 910.06,-77.4"/>
</g>
<!-- Node14&#45;&gt;Node6 -->
<g id="edge17" class="edge">
<title>Node14&#45;&gt;Node6</title>
<path fill="none" stroke="#63b8ff" d="M1277.81,-54.98C1301.17,-46.27 1337.7,-32.63 1364.17,-22.75"/>
<polygon fill="#63b8ff" stroke="#63b8ff" points="1365.63,-25.95 1373.77,-19.17 1363.18,-19.39 1365.63,-25.95"/>
</g>
<!-- Node15 -->
<g id="node15" class="node">
<title>Node15</title>
<g id="a_node15"><a xlink:title=" ">
<polygon fill="#e0e0e0" stroke="#999999" points="1174.5,-19 1069.5,-19 1069.5,0 1174.5,0 1174.5,-19"/>
<text text-anchor="middle" x="1122" y="-7" font-family="Helvetica,sans-Serif" font-size="10.00">Adafruit_INA219.h</text>
</a>
</g>
</g>
<!-- Node14&#45;&gt;Node15 -->
<g id="edge18" class="edge">
<title>Node14&#45;&gt;Node15</title>
<path fill="none" stroke="#63b8ff" d="M1233.63,-54.98C1211.85,-46.3 1177.84,-32.75 1153.08,-22.88"/>
<polygon fill="#63b8ff" stroke="#63b8ff" points="1154.34,-19.62 1143.76,-19.17 1151.75,-26.12 1154.34,-19.62"/>
</g>
<!-- Node16&#45;&gt;Node6 -->
<g id="edge20" class="edge">
<title>Node16&#45;&gt;Node6</title>
<path fill="none" stroke="#63b8ff" d="M1055.39,-54.98C1139.71,-44 1283.92,-25.23 1354.95,-15.98"/>
<polygon fill="#63b8ff" stroke="#63b8ff" points="1355.83,-19.39 1365.29,-14.63 1354.92,-12.45 1355.83,-19.39"/>
</g>
<!-- Node16&#45;&gt;Node15 -->
<g id="edge21" class="edge">
<title>Node16&#45;&gt;Node15</title>
<path fill="none" stroke="#63b8ff" d="M1011.21,-54.98C1032.73,-46.34 1066.28,-32.87 1090.83,-23.02"/>
<polygon fill="#63b8ff" stroke="#63b8ff" points="1092.43,-26.14 1100.41,-19.17 1089.82,-19.65 1092.43,-26.14"/>
</g>
<!-- Node17&#45;&gt;Node6 -->
<g id="edge25" class="edge">
<title>Node17&#45;&gt;Node6</title>
<path fill="none" stroke="#63b8ff" d="M946.85,-250.44C1054.7,-249.91 1440.74,-245.27 1477,-206 1486.05,-196.2 1484.8,-186.82 1477,-176 1447.42,-134.95 1398.58,-181.05 1369,-140 1356.31,-122.39 1377.55,-60.35 1389.59,-28.97"/>
<polygon fill="#63b8ff" stroke="#63b8ff" points="1393,-29.86 1393.39,-19.27 1386.48,-27.3 1393,-29.86"/>
</g>
<!-- Node18 -->
<g id="node18" class="node">
<title>Node18</title>
<g id="a_node18"><a xlink:title=" ">
<polygon fill="#e0e0e0" stroke="#999999" points="774.5,-134.5 661.5,-134.5 661.5,-115.5 774.5,-115.5 774.5,-134.5"/>
<text text-anchor="middle" x="718" y="-122.5" font-family="Helvetica,sans-Serif" font-size="10.00">freertos/FreeRTOS.h</text>
</a>
</g>
</g>
<!-- Node17&#45;&gt;Node18 -->
<g id="edge26" class="edge">
<title>Node17&#45;&gt;Node18</title>
<path fill="none" stroke="#63b8ff" d="M914.47,-241.82C905.99,-226.41 886.3,-194.17 861,-176 834.53,-156.99 800.19,-144.67 771.8,-137.02"/>
<polygon fill="#63b8ff" stroke="#63b8ff" points="772.58,-133.61 762.02,-134.5 770.83,-140.38 772.58,-133.61"/>
</g>
<!-- Node19 -->
<g id="node19" class="node">
<title>Node19</title>
<g id="a_node19"><a xlink:title=" ">
<polygon fill="#e0e0e0" stroke="#999999" points="457.5,-134.5 350.5,-134.5 350.5,-115.5 457.5,-115.5 457.5,-134.5"/>
<text text-anchor="middle" x="404" y="-122.5" font-family="Helvetica,sans-Serif" font-size="10.00">cli/FreeRTOS_CLI.h</text>
</a>
</g>
</g>
<!-- Node17&#45;&gt;Node19 -->
<g id="edge27" class="edge">
<title>Node17&#45;&gt;Node19</title>
<path fill="none" stroke="#63b8ff" d="M891.19,-250.8C771.53,-251.79 304.59,-252.63 261,-206 251.9,-196.26 253.28,-186.87 261,-176 272.13,-160.32 317.21,-146.23 353.83,-137.04"/>
<polygon fill="#63b8ff" stroke="#63b8ff" points="355.01,-140.36 363.89,-134.58 353.35,-133.56 355.01,-140.36"/>
</g>
<!-- Node20 -->
<g id="node20" class="node">
<title>Node20</title>
<g id="a_node20"><a xlink:href="cat-m1_8h.html" target="_top" xlink:title="CAT&#45;M1 CLI command request and response handler.">
<polygon fill="white" stroke="#666666" points="402,-200.5 270,-200.5 270,-181.5 402,-181.5 402,-200.5"/>
<text text-anchor="middle" x="336" y="-188.5" font-family="Helvetica,sans-Serif" font-size="10.00">cli/peripherals/cat&#45;m1.h</text>
</a>
</g>
</g>
<!-- Node17&#45;&gt;Node20 -->
<g id="edge28" class="edge">
<title>Node17&#45;&gt;Node20</title>
<path fill="none" stroke="#63b8ff" d="M891.36,-249.03C814.78,-244.74 593.45,-230.96 411,-206 403.52,-204.98 395.65,-203.71 387.93,-202.37"/>
<polygon fill="#63b8ff" stroke="#63b8ff" points="388.39,-198.9 377.93,-200.57 387.15,-205.79 388.39,-198.9"/>
</g>
<!-- Node23 -->
<g id="node23" class="node">
<title>Node23</title>
<g id="a_node23"><a xlink:href="sdi12_8h.html" target="_top" xlink:title="SDI&#45;12 command line interface handler.">
<polygon fill="white" stroke="#666666" points="834,-200.5 710,-200.5 710,-181.5 834,-181.5 834,-200.5"/>
<text text-anchor="middle" x="772" y="-188.5" font-family="Helvetica,sans-Serif" font-size="10.00">cli/peripherals/sdi12.h</text>
</a>
</g>
</g>
<!-- Node17&#45;&gt;Node23 -->
<g id="edge34" class="edge">
<title>Node17&#45;&gt;Node23</title>
<path fill="none" stroke="#63b8ff" d="M897.62,-241.99C872.69,-232.07 831.28,-215.59 802.86,-204.28"/>
<polygon fill="#63b8ff" stroke="#63b8ff" points="803.99,-200.96 793.4,-200.52 801.4,-207.47 803.99,-200.96"/>
</g>
<!-- Node24 -->
<g id="node24" class="node">
<title>Node24</title>
<g id="a_node24"><a xlink:href="cli__power_8h.html" target="_top" xlink:title=" ">
<polygon fill="white" stroke="#666666" points="520,-206 420,-206 420,-176 520,-176 520,-206"/>
<text text-anchor="start" x="428" y="-194" font-family="Helvetica,sans-Serif" font-size="10.00">cli/peripherals/cli</text>
<text text-anchor="middle" x="470" y="-183" font-family="Helvetica,sans-Serif" font-size="10.00">_power.h</text>
</a>
</g>
</g>
<!-- Node17&#45;&gt;Node24 -->
<g id="edge42" class="edge">
<title>Node17&#45;&gt;Node24</title>
<path fill="none" stroke="#63b8ff" d="M891.41,-248.49C828.9,-243.7 671.53,-230.27 530.27,-206.08"/>
<polygon fill="#63b8ff" stroke="#63b8ff" points="530.58,-202.59 520.13,-204.32 529.38,-209.48 530.58,-202.59"/>
</g>
<!-- Node25 -->
<g id="node25" class="node">
<title>Node25</title>
<g id="a_node25"><a xlink:href="sd__card_8h.html" target="_top" xlink:title=" ">
<polygon fill="white" stroke="#666666" points="1008,-206 908,-206 908,-176 1008,-176 1008,-206"/>
<text text-anchor="start" x="916" y="-194" font-family="Helvetica,sans-Serif" font-size="10.00">cli/peripherals/sd</text>
<text text-anchor="middle" x="958" y="-183" font-family="Helvetica,sans-Serif" font-size="10.00">_card.h</text>
</a>
</g>
</g>
<!-- Node17&#45;&gt;Node25 -->
<g id="edge48" class="edge">
<title>Node17&#45;&gt;Node25</title>
<path fill="none" stroke="#63b8ff" d="M924.75,-241.87C929.56,-234.67 936.62,-224.07 943,-214.49"/>
<polygon fill="#63b8ff" stroke="#63b8ff" points="945.96,-216.38 948.59,-206.11 940.13,-212.49 945.96,-216.38"/>
</g>
<!-- Node27 -->
<g id="node27" class="node">
<title>Node27</title>
<g id="a_node27"><a xlink:href="server_8h.html" target="_top" xlink:title="Handle the setup and maintenance of the BLE server and connected clients.">
<polygon fill="white" stroke="#666666" points="1699.5,-200.5 1594.5,-200.5 1594.5,-181.5 1699.5,-181.5 1699.5,-200.5"/>
<text text-anchor="middle" x="1647" y="-188.5" font-family="Helvetica,sans-Serif" font-size="10.00">bluetooth/server.h</text>
</a>
</g>
</g>
<!-- Node17&#45;&gt;Node27 -->
<g id="edge51" class="edge">
<title>Node17&#45;&gt;Node27</title>
<path fill="none" stroke="#63b8ff" d="M946.58,-248.41C1030.29,-242.51 1287.56,-224.94 1501,-206 1528.23,-203.58 1558.46,-200.53 1584.38,-197.9"/>
<polygon fill="#63b8ff" stroke="#63b8ff" points="1584.87,-201.37 1594.46,-196.87 1584.16,-194.4 1584.87,-201.37"/>
</g>
<!-- Node37 -->
<g id="node37" class="node">
<title>Node37</title>
<g id="a_node37"><a xlink:href="acquisition__intervals_8h.html" target="_top" xlink:title="Handles the time between measurements and uplinks by the device over LTE.">
<polygon fill="white" stroke="#666666" points="692,-206 538,-206 538,-176 692,-176 692,-206"/>
<text text-anchor="start" x="546" y="-194" font-family="Helvetica,sans-Serif" font-size="10.00">cli/device_config/acquisition</text>
<text text-anchor="middle" x="615" y="-183" font-family="Helvetica,sans-Serif" font-size="10.00">_intervals.h</text>
</a>
</g>
</g>
<!-- Node17&#45;&gt;Node37 -->
<g id="edge77" class="edge">
<title>Node17&#45;&gt;Node37</title>
<path fill="none" stroke="#63b8ff" d="M891.49,-245.21C848.27,-236.89 762.76,-220.43 698.21,-208.01"/>
<polygon fill="#63b8ff" stroke="#63b8ff" points="698.53,-204.51 688.05,-206.06 697.2,-211.38 698.53,-204.51"/>
</g>
<!-- Node38 -->
<g id="node38" class="node">
<title>Node38</title>
<g id="a_node38"><a xlink:href="mqtt__cli_8h.html" target="_top" xlink:title="MQTT setup and configuration through the CLI.">
<polygon fill="white" stroke="#666666" points="1468,-206 1344,-206 1344,-176 1468,-176 1468,-206"/>
<text text-anchor="start" x="1352" y="-194" font-family="Helvetica,sans-Serif" font-size="10.00">cli/device_config/mqtt</text>
<text text-anchor="middle" x="1406" y="-183" font-family="Helvetica,sans-Serif" font-size="10.00">_cli.h</text>
</a>
</g>
</g>
<!-- Node17&#45;&gt;Node38 -->
<g id="edge83" class="edge">
<title>Node17&#45;&gt;Node38</title>
<path fill="none" stroke="#63b8ff" d="M946.52,-247.36C1008.9,-240.22 1165.83,-222.14 1297,-206 1308.84,-204.54 1321.39,-202.96 1333.6,-201.41"/>
<polygon fill="#63b8ff" stroke="#63b8ff" points="1334.29,-204.85 1343.76,-200.11 1333.4,-197.91 1334.29,-204.85"/>
</g>
<!-- Node39 -->
<g id="node39" class="node">
<title>Node39</title>
<g id="a_node39"><a xlink:href="ftp__cli_8h.html" target="_top" xlink:title="FTP setup and configuration through the CLI.">
<polygon fill="white" stroke="#666666" points="1139.5,-206 1026.5,-206 1026.5,-176 1139.5,-176 1139.5,-206"/>
<text text-anchor="start" x="1034.5" y="-194" font-family="Helvetica,sans-Serif" font-size="10.00">cli/device_config/ftp</text>
<text text-anchor="middle" x="1083" y="-183" font-family="Helvetica,sans-Serif" font-size="10.00">_cli.h</text>
</a>
</g>
</g>
<!-- Node17&#45;&gt;Node39 -->
<g id="edge85" class="edge">
<title>Node17&#45;&gt;Node39</title>
<path fill="none" stroke="#63b8ff" d="M942.85,-241.99C966.66,-233.5 1003.94,-220.2 1034.07,-209.45"/>
<polygon fill="#63b8ff" stroke="#63b8ff" points="1035.33,-212.72 1043.57,-206.06 1032.98,-206.13 1035.33,-212.72"/>
</g>
<!-- Node40 -->
<g id="node40" class="node">
<title>Node40</title>
<g id="a_node40"><a xlink:href="config__cli_8h.html" target="_top" xlink:title=" ">
<polygon fill="white" stroke="#666666" points="1288,-206 1158,-206 1158,-176 1288,-176 1288,-206"/>
<text text-anchor="start" x="1166" y="-194" font-family="Helvetica,sans-Serif" font-size="10.00">cli/device_config/config</text>
<text text-anchor="middle" x="1223" y="-183" font-family="Helvetica,sans-Serif" font-size="10.00">_cli.h</text>
</a>
</g>
</g>
<!-- Node17&#45;&gt;Node40 -->
<g id="edge87" class="edge">
<title>Node17&#45;&gt;Node40</title>
<path fill="none" stroke="#63b8ff" d="M946.51,-245.21C991.56,-236.54 1082.55,-219.03 1147.85,-206.46"/>
<polygon fill="#63b8ff" stroke="#63b8ff" points="1148.54,-209.89 1157.7,-204.57 1147.22,-203.02 1148.54,-209.89"/>
</g>
<!-- Node20&#45;&gt;Node3 -->
<g id="edge33" class="edge">
<title>Node20&#45;&gt;Node3</title>
<path fill="none" stroke="#63b8ff" d="M331.14,-181.37C325.75,-171.78 316.9,-156.05 310.01,-143.8"/>
<polygon fill="#63b8ff" stroke="#63b8ff" points="312.96,-141.91 305.01,-134.91 306.86,-145.34 312.96,-141.91"/>
</g>
<!-- Node20&#45;&gt;Node18 -->
<g id="edge29" class="edge">
<title>Node20&#45;&gt;Node18</title>
<path fill="none" stroke="#63b8ff" d="M380.37,-181.44C390.43,-179.58 401.07,-177.67 411,-176 517.8,-158.06 545.42,-159.25 652,-140 657.76,-138.96 663.79,-137.79 669.75,-136.59"/>
<polygon fill="#63b8ff" stroke="#63b8ff" points="670.6,-139.99 679.69,-134.54 669.19,-133.13 670.6,-139.99"/>
</g>
<!-- Node20&#45;&gt;Node19 -->
<g id="edge32" class="edge">
<title>Node20&#45;&gt;Node19</title>
<path fill="none" stroke="#63b8ff" d="M345.17,-181.37C355.86,-171.31 373.74,-154.48 386.99,-142.01"/>
<polygon fill="#63b8ff" stroke="#63b8ff" points="389.65,-144.31 394.54,-134.91 384.86,-139.21 389.65,-144.31"/>
</g>
<!-- Node21 -->
<g id="node21" class="node">
<title>Node21</title>
<g id="a_node21"><a xlink:title=" ">
<polygon fill="#e0e0e0" stroke="#999999" points="643.5,-134.5 582.5,-134.5 582.5,-115.5 643.5,-115.5 643.5,-134.5"/>
<text text-anchor="middle" x="613" y="-122.5" font-family="Helvetica,sans-Serif" font-size="10.00">Stream.h</text>
</a>
</g>
</g>
<!-- Node20&#45;&gt;Node21 -->
<g id="edge30" class="edge">
<title>Node20&#45;&gt;Node21</title>
<path fill="none" stroke="#63b8ff" d="M380.03,-181.42C438.14,-169.97 537.26,-149.98 573,-140 575.48,-139.31 578.03,-138.54 580.58,-137.74"/>
<polygon fill="#63b8ff" stroke="#63b8ff" points="581.93,-140.98 590.32,-134.51 579.72,-134.34 581.93,-140.98"/>
</g>
<!-- Node22 -->
<g id="node22" class="node">
<title>Node22</title>
<g id="a_node22"><a xlink:title=" ">
<polygon fill="#e0e0e0" stroke="#999999" points="564.5,-134.5 475.5,-134.5 475.5,-115.5 564.5,-115.5 564.5,-134.5"/>
<text text-anchor="middle" x="520" y="-122.5" font-family="Helvetica,sans-Serif" font-size="10.00">StreamString.h</text>
</a>
</g>
</g>
<!-- Node20&#45;&gt;Node22 -->
<g id="edge31" class="edge">
<title>Node20&#45;&gt;Node22</title>
<path fill="none" stroke="#63b8ff" d="M360.82,-181.37C393,-170.17 449.32,-150.58 485.62,-137.96"/>
<polygon fill="#63b8ff" stroke="#63b8ff" points="486.99,-141.19 495.28,-134.6 484.69,-134.58 486.99,-141.19"/>
</g>
<!-- Node23&#45;&gt;Node7 -->
<g id="edge41" class="edge">
<title>Node23&#45;&gt;Node7</title>
<path fill="none" stroke="#63b8ff" d="M785.76,-181.37C802.64,-170.78 831.49,-152.67 851.59,-140.06"/>
<polygon fill="#63b8ff" stroke="#63b8ff" points="853.53,-142.98 860.14,-134.7 849.81,-137.05 853.53,-142.98"/>
</g>
<!-- Node23&#45;&gt;Node10 -->
<g id="edge39" class="edge">
<title>Node23&#45;&gt;Node10</title>
<path fill="none" stroke="#63b8ff" d="M774.53,-181.24C777.25,-171.34 781.41,-154.67 783,-140 784.44,-126.74 783.3,-123.33 783,-110 782.81,-101.49 782.41,-92.06 782.02,-84.09"/>
<polygon fill="#63b8ff" stroke="#63b8ff" points="785.51,-83.83 781.5,-74.03 778.52,-84.2 785.51,-83.83"/>
</g>
<!-- Node23&#45;&gt;Node18 -->
<g id="edge35" class="edge">
<title>Node23&#45;&gt;Node18</title>
<path fill="none" stroke="#63b8ff" d="M764.72,-181.37C756.39,-171.5 742.56,-155.11 732.11,-142.72"/>
<polygon fill="#63b8ff" stroke="#63b8ff" points="734.64,-140.29 725.51,-134.91 729.29,-144.81 734.64,-140.29"/>
</g>
<!-- Node23&#45;&gt;Node19 -->
<g id="edge40" class="edge">
<title>Node23&#45;&gt;Node19</title>
<path fill="none" stroke="#63b8ff" d="M730.38,-181.49C720.75,-179.6 710.53,-177.67 701,-176 596.92,-157.78 569.82,-159.65 466,-140 460.85,-139.02 455.47,-137.93 450.13,-136.79"/>
<polygon fill="#63b8ff" stroke="#63b8ff" points="450.49,-133.29 439.97,-134.57 449,-140.13 450.49,-133.29"/>
</g>
<!-- Node23&#45;&gt;Node21 -->
<g id="edge36" class="edge">
<title>Node23&#45;&gt;Node21</title>
<path fill="none" stroke="#63b8ff" d="M750.56,-181.37C723.1,-170.32 675.32,-151.08 643.93,-138.45"/>
<polygon fill="#63b8ff" stroke="#63b8ff" points="644.94,-135.08 634.36,-134.6 642.33,-141.58 644.94,-135.08"/>
</g>
<!-- Node23&#45;&gt;Node22 -->
<g id="edge37" class="edge">
<title>Node23&#45;&gt;Node22</title>
<path fill="none" stroke="#63b8ff" d="M737.46,-181.45C697.74,-171.6 630.61,-154.85 573,-140 569.38,-139.07 565.62,-138.09 561.85,-137.1"/>
<polygon fill="#63b8ff" stroke="#63b8ff" points="562.49,-133.66 551.93,-134.5 560.72,-140.43 562.49,-133.66"/>
</g>
<!-- Node23&#45;&gt;Node23 -->
<g id="edge38" class="edge">
<title>Node23&#45;&gt;Node23</title>
<path fill="none" stroke="#63b8ff" d="M801.54,-200.53C826.22,-204.61 852,-201.43 852,-191 852,-182 832.78,-178.4 811.65,-180.2"/>
<polygon fill="#63b8ff" stroke="#63b8ff" points="811.03,-176.75 801.54,-181.47 811.9,-183.7 811.03,-176.75"/>
</g>
<!-- Node24&#45;&gt;Node3 -->
<g id="edge47" class="edge">
<title>Node24&#45;&gt;Node3</title>
<path fill="none" stroke="#63b8ff" d="M432.69,-175.95C402.62,-164.63 360.76,-148.88 332.15,-138.1"/>
<polygon fill="#63b8ff" stroke="#63b8ff" points="333.22,-134.77 322.62,-134.52 330.75,-141.32 333.22,-134.77"/>
</g>
<!-- Node24&#45;&gt;Node18 -->
<g id="edge43" class="edge">
<title>Node24&#45;&gt;Node18</title>
<path fill="none" stroke="#63b8ff" d="M520.19,-177.05C565.65,-165.32 631.94,-148.21 675.02,-137.09"/>
<polygon fill="#63b8ff" stroke="#63b8ff" points="676.1,-140.43 684.91,-134.54 674.35,-133.65 676.1,-140.43"/>
</g>
<!-- Node24&#45;&gt;Node19 -->
<g id="edge46" class="edge">
<title>Node24&#45;&gt;Node19</title>
<path fill="none" stroke="#63b8ff" d="M455.35,-175.8C445.06,-165.82 431.28,-152.46 420.59,-142.09"/>
<polygon fill="#63b8ff" stroke="#63b8ff" points="422.74,-139.29 413.12,-134.84 417.86,-144.32 422.74,-139.29"/>
</g>
<!-- Node24&#45;&gt;Node21 -->
<g id="edge44" class="edge">
<title>Node24&#45;&gt;Node21</title>
<path fill="none" stroke="#63b8ff" d="M501.38,-175.95C526.24,-164.83 560.66,-149.42 584.68,-138.67"/>
<polygon fill="#63b8ff" stroke="#63b8ff" points="586.27,-141.8 593.97,-134.52 583.41,-135.41 586.27,-141.8"/>
</g>
<!-- Node24&#45;&gt;Node22 -->
<g id="edge45" class="edge">
<title>Node24&#45;&gt;Node22</title>
<path fill="none" stroke="#63b8ff" d="M481.1,-175.8C488.66,-166.11 498.72,-153.24 506.71,-143.01"/>
<polygon fill="#63b8ff" stroke="#63b8ff" points="509.69,-144.88 513.09,-134.84 504.18,-140.57 509.69,-144.88"/>
</g>
<!-- Node25&#45;&gt;Node18 -->
<g id="edge49" class="edge">
<title>Node25&#45;&gt;Node18</title>
<path fill="none" stroke="#63b8ff" d="M907.98,-176.66C864.07,-164.95 800.94,-148.12 759.7,-137.12"/>
<polygon fill="#63b8ff" stroke="#63b8ff" points="760.54,-133.72 749.97,-134.53 758.73,-140.48 760.54,-133.72"/>
</g>
<!-- Node26 -->
<g id="node26" class="node">
<title>Node26</title>
<g id="a_node26"><a xlink:title=" ">
<polygon fill="#e0e0e0" stroke="#999999" points="980,-134.5 936,-134.5 936,-115.5 980,-115.5 980,-134.5"/>
<text text-anchor="middle" x="958" y="-122.5" font-family="Helvetica,sans-Serif" font-size="10.00">string</text>
</a>
</g>
</g>
<!-- Node25&#45;&gt;Node26 -->
<g id="edge50" class="edge">
<title>Node25&#45;&gt;Node26</title>
<path fill="none" stroke="#63b8ff" d="M958,-175.8C958,-166.7 958,-154.79 958,-144.9"/>
<polygon fill="#63b8ff" stroke="#63b8ff" points="961.5,-144.84 958,-134.84 954.5,-144.84 961.5,-144.84"/>
</g>
<!-- Node27&#45;&gt;Node17 -->
<g id="edge76" class="edge">
<title>Node27&#45;&gt;Node17</title>
<path fill="none" stroke="#63b8ff" d="M1594.38,-198.59C1571.28,-201.05 1543.89,-203.79 1519,-206 1307.07,-224.8 1051.91,-242.26 956.89,-248.28"/>
<polygon fill="#63b8ff" stroke="#63b8ff" points="956.39,-244.81 946.63,-248.93 956.83,-251.79 956.39,-244.81"/>
</g>
<!-- Node28 -->
<g id="node28" class="node">
<title>Node28</title>
<g id="a_node28"><a xlink:title=" ">
<polygon fill="#e0e0e0" stroke="#999999" points="1455.5,-134.5 1378.5,-134.5 1378.5,-115.5 1455.5,-115.5 1455.5,-134.5"/>
<text text-anchor="middle" x="1417" y="-122.5" font-family="Helvetica,sans-Serif" font-size="10.00">BLEDevice.h</text>
</a>
</g>
</g>
<!-- Node27&#45;&gt;Node28 -->
<g id="edge52" class="edge">
<title>Node27&#45;&gt;Node28</title>
<path fill="none" stroke="#63b8ff" d="M1615.98,-181.37C1575.06,-169.98 1502.93,-149.91 1457.68,-137.32"/>
<polygon fill="#63b8ff" stroke="#63b8ff" points="1458.47,-133.91 1447.89,-134.6 1456.59,-140.65 1458.47,-133.91"/>
</g>
<!-- Node29 -->
<g id="node29" class="node">
<title>Node29</title>
<g id="a_node29"><a xlink:title=" ">
<polygon fill="#e0e0e0" stroke="#999999" points="1934,-74 1860,-74 1860,-55 1934,-55 1934,-74"/>
<text text-anchor="middle" x="1897" y="-62" font-family="Helvetica,sans-Serif" font-size="10.00">BLEServer.h</text>
</a>
</g>
</g>
<!-- Node27&#45;&gt;Node29 -->
<g id="edge53" class="edge">
<title>Node27&#45;&gt;Node29</title>
<path fill="none" stroke="#63b8ff" d="M1699.75,-186.77C1764.68,-181.59 1869.39,-168.89 1894,-140 1906.96,-124.79 1905.38,-100.83 1902.08,-84.21"/>
<polygon fill="#63b8ff" stroke="#63b8ff" points="1905.39,-82.99 1899.69,-74.07 1898.58,-84.61 1905.39,-82.99"/>
</g>
<!-- Node30 -->
<g id="node30" class="node">
<title>Node30</title>
<g id="a_node30"><a xlink:title=" ">
<polygon fill="#e0e0e0" stroke="#999999" points="1578,-134.5 1512,-134.5 1512,-115.5 1578,-115.5 1578,-134.5"/>
<text text-anchor="middle" x="1545" y="-122.5" font-family="Helvetica,sans-Serif" font-size="10.00">BLEUtils.h</text>
</a>
</g>
</g>
<!-- Node27&#45;&gt;Node30 -->
<g id="edge54" class="edge">
<title>Node27&#45;&gt;Node30</title>
<path fill="none" stroke="#63b8ff" d="M1633.24,-181.37C1616.36,-170.78 1587.51,-152.67 1567.41,-140.06"/>
<polygon fill="#63b8ff" stroke="#63b8ff" points="1569.19,-137.05 1558.86,-134.7 1565.47,-142.98 1569.19,-137.05"/>
</g>
<!-- Node31 -->
<g id="node31" class="node">
<title>Node31</title>
<g id="a_node31"><a xlink:title=" ">
<polygon fill="#e0e0e0" stroke="#999999" points="1674,-74 1606,-74 1606,-55 1674,-55 1674,-74"/>
<text text-anchor="middle" x="1640" y="-62" font-family="Helvetica,sans-Serif" font-size="10.00">BLE2902.h</text>
</a>
</g>
</g>
<!-- Node27&#45;&gt;Node31 -->
<g id="edge55" class="edge">
<title>Node27&#45;&gt;Node31</title>
<path fill="none" stroke="#63b8ff" d="M1594.42,-186.5C1562.33,-181.33 1523.63,-169 1503,-140 1476.13,-102.23 1546.47,-81.66 1596.02,-72.17"/>
<polygon fill="#63b8ff" stroke="#63b8ff" points="1596.72,-75.61 1605.93,-70.37 1595.46,-68.72 1596.72,-75.61"/>
</g>
<!-- Node32 -->
<g id="node32" class="node">
<title>Node32</title>
<g id="a_node32"><a xlink:href="uart_8h.html" target="_top" xlink:title="BluetoothLE UART service setup and handling.">
<polygon fill="white" stroke="#666666" points="2037.5,-134.5 1942.5,-134.5 1942.5,-115.5 2037.5,-115.5 2037.5,-134.5"/>
<text text-anchor="middle" x="1990" y="-122.5" font-family="Helvetica,sans-Serif" font-size="10.00">bluetooth/uart.h</text>
</a>
</g>
</g>
<!-- Node27&#45;&gt;Node32 -->
<g id="edge56" class="edge">
<title>Node27&#45;&gt;Node32</title>
<path fill="none" stroke="#63b8ff" d="M1692.29,-181.5C1746.42,-172.07 1839.34,-156.07 1919,-140 1924.01,-138.99 1929.24,-137.89 1934.49,-136.76"/>
<polygon fill="#63b8ff" stroke="#63b8ff" points="1935.55,-140.11 1944.58,-134.57 1934.06,-133.27 1935.55,-140.11"/>
</g>
<!-- Node35 -->
<g id="node35" class="node">
<title>Node35</title>
<g id="a_node35"><a xlink:href="device_8h.html" target="_top" xlink:title="Bluetooth device services and device information.">
<polygon fill="white" stroke="#666666" points="1885.5,-134.5 1778.5,-134.5 1778.5,-115.5 1885.5,-115.5 1885.5,-134.5"/>
<text text-anchor="middle" x="1832" y="-122.5" font-family="Helvetica,sans-Serif" font-size="10.00">bluetooth/device.h</text>
</a>
</g>
</g>
<!-- Node27&#45;&gt;Node35 -->
<g id="edge64" class="edge">
<title>Node27&#45;&gt;Node35</title>
<path fill="none" stroke="#63b8ff" d="M1671.95,-181.37C1704.31,-170.17 1760.94,-150.58 1797.43,-137.96"/>
<polygon fill="#63b8ff" stroke="#63b8ff" points="1798.84,-141.17 1807.15,-134.6 1796.56,-134.56 1798.84,-141.17"/>
</g>
<!-- Node36 -->
<g id="node36" class="node">
<title>Node36</title>
<g id="a_node36"><a xlink:href="power__monitoring_8h.html" target="_top" xlink:title="Setup BluetoothLE power monitoring information.">
<polygon fill="white" stroke="#666666" points="1760,-134.5 1596,-134.5 1596,-115.5 1760,-115.5 1760,-134.5"/>
<text text-anchor="middle" x="1678" y="-122.5" font-family="Helvetica,sans-Serif" font-size="10.00">bluetooth/power_monitoring.h</text>
</a>
</g>
</g>
<!-- Node27&#45;&gt;Node36 -->
<g id="edge69" class="edge">
<title>Node27&#45;&gt;Node36</title>
<path fill="none" stroke="#63b8ff" d="M1651.18,-181.37C1655.78,-171.88 1663.29,-156.36 1669.2,-144.16"/>
<polygon fill="#63b8ff" stroke="#63b8ff" points="1672.48,-145.43 1673.69,-134.91 1666.18,-142.38 1672.48,-145.43"/>
</g>
<!-- Node32&#45;&gt;Node6 -->
<g id="edge57" class="edge">
<title>Node32&#45;&gt;Node6</title>
<path fill="none" stroke="#63b8ff" d="M1986.98,-115.37C1981.16,-100.15 1966.8,-68.85 1943,-55 1899.81,-29.87 1559.57,-16.01 1439.1,-11.85"/>
<polygon fill="#63b8ff" stroke="#63b8ff" points="1438.92,-8.34 1428.81,-11.5 1438.68,-15.34 1438.92,-8.34"/>
</g>
<!-- Node32&#45;&gt;Node27 -->
<g id="edge63" class="edge">
<title>Node32&#45;&gt;Node27</title>
<path fill="none" stroke="#63b8ff" d="M1962.11,-134.57C1954.02,-136.43 1945.22,-138.34 1937,-140 1859.17,-155.7 1768.69,-171.34 1709.67,-180.84"/>
<polygon fill="#63b8ff" stroke="#63b8ff" points="1709.08,-177.39 1699.75,-182.42 1710.18,-184.3 1709.08,-177.39"/>
</g>
<!-- Node32&#45;&gt;Node29 -->
<g id="edge59" class="edge">
<title>Node32&#45;&gt;Node29</title>
<path fill="none" stroke="#63b8ff" d="M1976.28,-115.37C1961.3,-105.95 1937.11,-90.73 1919.38,-79.58"/>
<polygon fill="#63b8ff" stroke="#63b8ff" points="1921.11,-76.53 1910.78,-74.17 1917.38,-82.45 1921.11,-76.53"/>
</g>
<!-- Node32&#45;&gt;Node31 -->
<g id="edge60" class="edge">
<title>Node32&#45;&gt;Node31</title>
<path fill="none" stroke="#63b8ff" d="M1942.32,-116.74C1883.89,-107.74 1781.62,-91.61 1684.26,-74.18"/>
<polygon fill="#63b8ff" stroke="#63b8ff" points="1684.71,-70.7 1674.25,-72.38 1683.47,-77.59 1684.71,-70.7"/>
</g>
<!-- Node33 -->
<g id="node33" class="node">
<title>Node33</title>
<g id="a_node33"><a xlink:title=" ">
<polygon fill="#e0e0e0" stroke="#999999" points="1803.5,-74 1692.5,-74 1692.5,-55 1803.5,-55 1803.5,-74"/>
<text text-anchor="middle" x="1748" y="-62" font-family="Helvetica,sans-Serif" font-size="10.00">BLECharacteristic.h</text>
</a>
</g>
</g>
<!-- Node32&#45;&gt;Node33 -->
<g id="edge58" class="edge">
<title>Node32&#45;&gt;Node33</title>
<path fill="none" stroke="#63b8ff" d="M1954.81,-115.49C1912.07,-105.16 1839.88,-87.71 1793.1,-76.4"/>
<polygon fill="#63b8ff" stroke="#63b8ff" points="1793.77,-72.96 1783.23,-74.02 1792.13,-79.77 1793.77,-72.96"/>
</g>
<!-- Node34 -->
<g id="node34" class="node">
<title>Node34</title>
<g id="a_node34"><a xlink:href="tones_8h.html" target="_top" xlink:title="Audio control for the onboard piezo buzzer.">
<polygon fill="white" stroke="#666666" points="2121.5,-74 1990.5,-74 1990.5,-55 2121.5,-55 2121.5,-74"/>
<text text-anchor="middle" x="2056" y="-62" font-family="Helvetica,sans-Serif" font-size="10.00">audio&#45;feedback/tones.h</text>
</a>
</g>
</g>
<!-- Node32&#45;&gt;Node34 -->
<g id="edge61" class="edge">
<title>Node32&#45;&gt;Node34</title>
<path fill="none" stroke="#63b8ff" d="M1999.74,-115.37C2009.97,-106.3 2026.29,-91.84 2038.72,-80.82"/>
<polygon fill="#63b8ff" stroke="#63b8ff" points="2041.06,-83.42 2046.22,-74.17 2036.42,-78.18 2041.06,-83.42"/>
</g>
<!-- Node34&#45;&gt;Node6 -->
<g id="edge62" class="edge">
<title>Node34&#45;&gt;Node6</title>
<path fill="none" stroke="#63b8ff" d="M1990.09,-56.34C1985.33,-55.87 1980.59,-55.42 1976,-55 1774.96,-36.6 1534.17,-19.76 1438.82,-13.29"/>
<polygon fill="#63b8ff" stroke="#63b8ff" points="1438.94,-9.79 1428.72,-12.61 1438.46,-16.78 1438.94,-9.79"/>
</g>
<!-- Node35&#45;&gt;Node6 -->
<g id="edge65" class="edge">
<title>Node35&#45;&gt;Node6</title>
<path fill="none" stroke="#63b8ff" d="M1832.32,-115.17C1832.33,-100.22 1829.97,-70.07 1812,-55 1783.74,-31.31 1538.06,-17.16 1438.57,-12.36"/>
<polygon fill="#63b8ff" stroke="#63b8ff" points="1438.73,-8.86 1428.57,-11.88 1438.39,-15.85 1438.73,-8.86"/>
</g>
<!-- Node35&#45;&gt;Node29 -->
<g id="edge67" class="edge">
<title>Node35&#45;&gt;Node29</title>
<path fill="none" stroke="#63b8ff" d="M1841.59,-115.37C1851.58,-106.38 1867.43,-92.11 1879.63,-81.14"/>
<polygon fill="#63b8ff" stroke="#63b8ff" points="1882.28,-83.46 1887.37,-74.17 1877.6,-78.26 1882.28,-83.46"/>
</g>
<!-- Node35&#45;&gt;Node31 -->
<g id="edge68" class="edge">
<title>Node35&#45;&gt;Node31</title>
<path fill="none" stroke="#63b8ff" d="M1804.08,-115.49C1770.81,-105.36 1715.05,-88.37 1677.9,-77.05"/>
<polygon fill="#63b8ff" stroke="#63b8ff" points="1678.54,-73.58 1667.95,-74.02 1676.5,-80.28 1678.54,-73.58"/>
</g>
<!-- Node35&#45;&gt;Node33 -->
<g id="edge66" class="edge">
<title>Node35&#45;&gt;Node33</title>
<path fill="none" stroke="#63b8ff" d="M1819.61,-115.37C1806.21,-106.04 1784.62,-91.01 1768.65,-79.88"/>
<polygon fill="#63b8ff" stroke="#63b8ff" points="1770.65,-77.01 1760.45,-74.17 1766.65,-82.75 1770.65,-77.01"/>
</g>
<!-- Node36&#45;&gt;Node6 -->
<g id="edge70" class="edge">
<title>Node36&#45;&gt;Node6</title>
<path fill="none" stroke="#63b8ff" d="M1656.88,-115.47C1607.65,-95.59 1485.12,-46.09 1427.66,-22.88"/>
<polygon fill="#63b8ff" stroke="#63b8ff" points="1428.95,-19.63 1418.37,-19.13 1426.33,-26.12 1428.95,-19.63"/>
</g>
<!-- Node36&#45;&gt;Node14 -->
<g id="edge75" class="edge">
<title>Node36&#45;&gt;Node14</title>
<path fill="none" stroke="#63b8ff" d="M1623.65,-115.46C1611.59,-113.62 1598.87,-111.71 1587,-110 1499.54,-97.41 1398.94,-84.09 1331.61,-75.34"/>
<polygon fill="#63b8ff" stroke="#63b8ff" points="1331.87,-71.84 1321.51,-74.03 1330.97,-78.79 1331.87,-71.84"/>
</g>
<!-- Node36&#45;&gt;Node16 -->
<g id="edge74" class="edge">
<title>Node36&#45;&gt;Node16</title>
<path fill="none" stroke="#63b8ff" d="M1627.56,-115.47C1614.39,-113.46 1600.19,-111.47 1587,-110 1360.89,-84.79 1300.58,-94.07 1070.23,-74.07"/>
<polygon fill="#63b8ff" stroke="#63b8ff" points="1070.47,-70.58 1060.2,-73.19 1069.85,-77.55 1070.47,-70.58"/>
</g>
<!-- Node36&#45;&gt;Node29 -->
<g id="edge72" class="edge">
<title>Node36&#45;&gt;Node29</title>
<path fill="none" stroke="#63b8ff" d="M1709.84,-115.49C1748.28,-105.23 1813.03,-87.93 1855.39,-76.62"/>
<polygon fill="#63b8ff" stroke="#63b8ff" points="1856.36,-79.98 1865.12,-74.02 1854.55,-73.22 1856.36,-79.98"/>
</g>
<!-- Node36&#45;&gt;Node31 -->
<g id="edge73" class="edge">
<title>Node36&#45;&gt;Node31</title>
<path fill="none" stroke="#63b8ff" d="M1672.39,-115.37C1666.84,-106.81 1658.17,-93.47 1651.2,-82.74"/>
<polygon fill="#63b8ff" stroke="#63b8ff" points="1654.01,-80.65 1645.63,-74.17 1648.14,-84.46 1654.01,-80.65"/>
</g>
<!-- Node36&#45;&gt;Node33 -->
<g id="edge71" class="edge">
<title>Node36&#45;&gt;Node33</title>
<path fill="none" stroke="#63b8ff" d="M1688.33,-115.37C1699.19,-106.3 1716.49,-91.84 1729.67,-80.82"/>
<polygon fill="#63b8ff" stroke="#63b8ff" points="1732.2,-83.27 1737.63,-74.17 1727.71,-77.89 1732.2,-83.27"/>
</g>
<!-- Node37&#45;&gt;Node11 -->
<g id="edge82" class="edge">
<title>Node37&#45;&gt;Node11</title>
<path fill="none" stroke="#63b8ff" d="M692.32,-177.17C695.25,-176.76 698.15,-176.37 701,-176 870.66,-154.09 1072.49,-137.41 1167.86,-130.08"/>
<polygon fill="#63b8ff" stroke="#63b8ff" points="1168.15,-133.57 1177.85,-129.32 1167.61,-126.59 1168.15,-133.57"/>
</g>
<!-- Node37&#45;&gt;Node18 -->
<g id="edge78" class="edge">
<title>Node37&#45;&gt;Node18</title>
<path fill="none" stroke="#63b8ff" d="M637.6,-175.95C654.79,-165.27 678.33,-150.65 695.49,-139.98"/>
<polygon fill="#63b8ff" stroke="#63b8ff" points="697.65,-142.77 704.29,-134.52 693.95,-136.82 697.65,-142.77"/>
</g>
<!-- Node37&#45;&gt;Node19 -->
<g id="edge81" class="edge">
<title>Node37&#45;&gt;Node19</title>
<path fill="none" stroke="#63b8ff" d="M568.7,-175.95C530.71,-164.43 477.6,-148.32 442.06,-137.54"/>
<polygon fill="#63b8ff" stroke="#63b8ff" points="442.67,-134.07 432.08,-134.52 440.63,-140.77 442.67,-134.07"/>
</g>
<!-- Node37&#45;&gt;Node21 -->
<g id="edge79" class="edge">
<title>Node37&#45;&gt;Node21</title>
<path fill="none" stroke="#63b8ff" d="M614.56,-175.8C614.27,-166.7 613.9,-154.79 613.59,-144.9"/>
<polygon fill="#63b8ff" stroke="#63b8ff" points="617.09,-144.73 613.28,-134.84 610.09,-144.95 617.09,-144.73"/>
</g>
<!-- Node37&#45;&gt;Node22 -->
<g id="edge80" class="edge">
<title>Node37&#45;&gt;Node22</title>
<path fill="none" stroke="#63b8ff" d="M593.92,-175.8C578.29,-165.27 557.07,-150.97 541.37,-140.4"/>
<polygon fill="#63b8ff" stroke="#63b8ff" points="543.1,-137.34 532.85,-134.66 539.19,-143.15 543.1,-137.34"/>
</g>
<!-- Node38&#45;&gt;Node11 -->
<g id="edge84" class="edge">
<title>Node38&#45;&gt;Node11</title>
<path fill="none" stroke="#63b8ff" d="M1365.84,-175.95C1333.18,-164.53 1287.62,-148.6 1256.81,-137.82"/>
<polygon fill="#63b8ff" stroke="#63b8ff" points="1257.95,-134.51 1247.35,-134.52 1255.64,-141.12 1257.95,-134.51"/>
</g>
<!-- Node39&#45;&gt;Node11 -->
<g id="edge86" class="edge">
<title>Node39&#45;&gt;Node11</title>
<path fill="none" stroke="#63b8ff" d="M1113.72,-175.95C1137.95,-164.88 1171.46,-149.56 1194.96,-138.82"/>
<polygon fill="#63b8ff" stroke="#63b8ff" points="1196.73,-141.86 1204.37,-134.52 1193.82,-135.49 1196.73,-141.86"/>
</g>
<!-- Node40&#45;&gt;Node11 -->
<g id="edge88" class="edge">
<title>Node40&#45;&gt;Node11</title>
<path fill="none" stroke="#63b8ff" d="M1223,-175.8C1223,-166.7 1223,-154.79 1223,-144.9"/>
<polygon fill="#63b8ff" stroke="#63b8ff" points="1226.5,-144.84 1223,-134.84 1219.5,-144.84 1226.5,-144.84"/>
</g>
</g>
</svg>
