<?xml version="1.0" encoding="UTF-8" standalone="no"?>
<!DOCTYPE svg PUBLIC "-//W3C//DTD SVG 1.1//EN"
 "http://www.w3.org/Graphics/SVG/1.1/DTD/svg11.dtd">
<!-- Generated by graphviz version 2.43.0 (0)
 -->
<!-- Title: firmware/wombat/src/cli/device_config/ftp_cli.cpp Pages: 1 -->
<svg width="652pt" height="225pt"
 viewBox="0.00 0.00 651.50 225.00" xmlns="http://www.w3.org/2000/svg" xmlns:xlink="http://www.w3.org/1999/xlink">
<g id="graph0" class="graph" transform="scale(1 1) rotate(0) translate(4 221)">
<title>firmware/wombat/src/cli/device_config/ftp_cli.cpp</title>
<!-- Node1 -->
<g id="node1" class="node">
<title>Node1</title>
<g id="a_node1"><a xlink:title="FTP setup and configuration through the CLI.">
<polygon fill="#999999" stroke="#666666" points="372.5,-217 252.5,-217 252.5,-176 372.5,-176 372.5,-217"/>
<text text-anchor="start" x="260.5" y="-205" font-family="Helvetica,sans-Serif" font-size="10.00">firmware/wombat/src</text>
<text text-anchor="start" x="260.5" y="-194" font-family="Helvetica,sans-Serif" font-size="10.00">/cli/device_config/ftp</text>
<text text-anchor="middle" x="312.5" y="-183" font-family="Helvetica,sans-Serif" font-size="10.00">_cli.cpp</text>
</a>
</g>
</g>
<!-- Node2 -->
<g id="node2" class="node">
<title>Node2</title>
<g id="a_node2"><a xlink:title=" ">
<polygon fill="#e0e0e0" stroke="#999999" points="113,-134.5 0,-134.5 0,-115.5 113,-115.5 113,-134.5"/>
<text text-anchor="middle" x="56.5" y="-122.5" font-family="Helvetica,sans-Serif" font-size="10.00">freertos/FreeRTOS.h</text>
</a>
</g>
</g>
<!-- Node1&#45;&gt;Node2 -->
<g id="edge1" class="edge">
<title>Node1&#45;&gt;Node2</title>
<path fill="none" stroke="#63b8ff" d="M252.48,-179.21C204.97,-166.31 139.85,-148.63 97.97,-137.26"/>
<polygon fill="#63b8ff" stroke="#63b8ff" points="98.68,-133.82 88.11,-134.58 96.84,-140.58 98.68,-133.82"/>
</g>
<!-- Node3 -->
<g id="node3" class="node">
<title>Node3</title>
<g id="a_node3"><a xlink:title=" ">
<polygon fill="#e0e0e0" stroke="#999999" points="192,-134.5 131,-134.5 131,-115.5 192,-115.5 192,-134.5"/>
<text text-anchor="middle" x="161.5" y="-122.5" font-family="Helvetica,sans-Serif" font-size="10.00">Stream.h</text>
</a>
</g>
</g>
<!-- Node1&#45;&gt;Node3 -->
<g id="edge2" class="edge">
<title>Node1&#45;&gt;Node3</title>
<path fill="none" stroke="#63b8ff" d="M270.04,-175.96C244.2,-164.06 211.94,-149.21 189.33,-138.81"/>
<polygon fill="#63b8ff" stroke="#63b8ff" points="190.52,-135.51 179.98,-134.5 187.6,-141.86 190.52,-135.51"/>
</g>
<!-- Node4 -->
<g id="node4" class="node">
<title>Node4</title>
<g id="a_node4"><a xlink:title=" ">
<polygon fill="#e0e0e0" stroke="#999999" points="299,-134.5 210,-134.5 210,-115.5 299,-115.5 299,-134.5"/>
<text text-anchor="middle" x="254.5" y="-122.5" font-family="Helvetica,sans-Serif" font-size="10.00">StreamString.h</text>
</a>
</g>
</g>
<!-- Node1&#45;&gt;Node4 -->
<g id="edge3" class="edge">
<title>Node1&#45;&gt;Node4</title>
<path fill="none" stroke="#63b8ff" d="M296.03,-175.77C287.33,-165.34 276.76,-152.68 268.46,-142.73"/>
<polygon fill="#63b8ff" stroke="#63b8ff" points="270.95,-140.25 261.86,-134.82 265.58,-144.74 270.95,-140.25"/>
</g>
<!-- Node5 -->
<g id="node5" class="node">
<title>Node5</title>
<g id="a_node5"><a xlink:title=" ">
<polygon fill="#e0e0e0" stroke="#999999" points="424,-134.5 317,-134.5 317,-115.5 424,-115.5 424,-134.5"/>
<text text-anchor="middle" x="370.5" y="-122.5" font-family="Helvetica,sans-Serif" font-size="10.00">cli/FreeRTOS_CLI.h</text>
</a>
</g>
</g>
<!-- Node1&#45;&gt;Node5 -->
<g id="edge4" class="edge">
<title>Node1&#45;&gt;Node5</title>
<path fill="none" stroke="#63b8ff" d="M328.97,-175.77C337.67,-165.34 348.24,-152.68 356.54,-142.73"/>
<polygon fill="#63b8ff" stroke="#63b8ff" points="359.42,-144.74 363.14,-134.82 354.05,-140.25 359.42,-144.74"/>
</g>
<!-- Node6 -->
<g id="node6" class="node">
<title>Node6</title>
<g id="a_node6"><a xlink:href="ftp__cli_8h.html" target="_top" xlink:title="FTP setup and configuration through the CLI.">
<polygon fill="white" stroke="#666666" points="555,-140 442,-140 442,-110 555,-110 555,-140"/>
<text text-anchor="start" x="450" y="-128" font-family="Helvetica,sans-Serif" font-size="10.00">cli/device_config/ftp</text>
<text text-anchor="middle" x="498.5" y="-117" font-family="Helvetica,sans-Serif" font-size="10.00">_cli.h</text>
</a>
</g>
</g>
<!-- Node1&#45;&gt;Node6 -->
<g id="edge5" class="edge">
<title>Node1&#45;&gt;Node6</title>
<path fill="none" stroke="#63b8ff" d="M364.81,-175.96C392.08,-165.76 425.17,-153.4 451.61,-143.52"/>
<polygon fill="#63b8ff" stroke="#63b8ff" points="452.88,-146.78 461.02,-140 450.43,-140.23 452.88,-146.78"/>
</g>
<!-- Node10 -->
<g id="node10" class="node">
<title>Node10</title>
<g id="a_node10"><a xlink:href="ftp__stack_8h.html" target="_top" xlink:title=" ">
<polygon fill="white" stroke="#666666" points="643.5,-134.5 573.5,-134.5 573.5,-115.5 643.5,-115.5 643.5,-134.5"/>
<text text-anchor="middle" x="608.5" y="-122.5" font-family="Helvetica,sans-Serif" font-size="10.00">ftp_stack.h</text>
</a>
</g>
</g>
<!-- Node1&#45;&gt;Node10 -->
<g id="edge9" class="edge">
<title>Node1&#45;&gt;Node10</title>
<path fill="none" stroke="#63b8ff" d="M372.7,-183.85C423.99,-173.54 499.49,-157.46 564.5,-140 567.33,-139.24 570.25,-138.41 573.18,-137.55"/>
<polygon fill="#63b8ff" stroke="#63b8ff" points="574.48,-140.81 583.02,-134.54 572.44,-134.11 574.48,-140.81"/>
</g>
<!-- Node7 -->
<g id="node7" class="node">
<title>Node7</title>
<g id="a_node7"><a xlink:href="_device_config_8h.html" target="_top" xlink:title="Node configuration options.">
<polygon fill="white" stroke="#666666" points="543.5,-74 453.5,-74 453.5,-55 543.5,-55 543.5,-74"/>
<text text-anchor="middle" x="498.5" y="-62" font-family="Helvetica,sans-Serif" font-size="10.00">DeviceConfig.h</text>
</a>
</g>
</g>
<!-- Node6&#45;&gt;Node7 -->
<g id="edge6" class="edge">
<title>Node6&#45;&gt;Node7</title>
<path fill="none" stroke="#63b8ff" d="M498.5,-109.84C498.5,-102.21 498.5,-92.7 498.5,-84.45"/>
<polygon fill="#63b8ff" stroke="#63b8ff" points="502,-84.27 498.5,-74.27 495,-84.27 502,-84.27"/>
</g>
<!-- Node8 -->
<g id="node8" class="node">
<title>Node8</title>
<g id="a_node8"><a xlink:title=" ">
<polygon fill="#e0e0e0" stroke="#999999" points="485,-19 422,-19 422,0 485,0 485,-19"/>
<text text-anchor="middle" x="453.5" y="-7" font-family="Helvetica,sans-Serif" font-size="10.00">Arduino.h</text>
</a>
</g>
</g>
<!-- Node7&#45;&gt;Node8 -->
<g id="edge7" class="edge">
<title>Node7&#45;&gt;Node8</title>
<path fill="none" stroke="#63b8ff" d="M491.07,-54.75C484.65,-47.18 475.19,-36.05 467.38,-26.84"/>
<polygon fill="#63b8ff" stroke="#63b8ff" points="469.93,-24.45 460.79,-19.09 464.6,-28.98 469.93,-24.45"/>
</g>
<!-- Node9 -->
<g id="node9" class="node">
<title>Node9</title>
<g id="a_node9"><a xlink:title=" ">
<polygon fill="#e0e0e0" stroke="#999999" points="586,-19 503,-19 503,0 586,0 586,-19"/>
<text text-anchor="middle" x="544.5" y="-7" font-family="Helvetica,sans-Serif" font-size="10.00">ArduinoJson.h</text>
</a>
</g>
</g>
<!-- Node7&#45;&gt;Node9 -->
<g id="edge8" class="edge">
<title>Node7&#45;&gt;Node9</title>
<path fill="none" stroke="#63b8ff" d="M506.1,-54.75C512.66,-47.18 522.32,-36.05 530.31,-26.84"/>
<polygon fill="#63b8ff" stroke="#63b8ff" points="533.13,-28.94 537.05,-19.09 527.85,-24.35 533.13,-28.94"/>
</g>
</g>
</svg>
