<?xml version="1.0" encoding="UTF-8" standalone="no"?>
<!DOCTYPE svg PUBLIC "-//W3C//DTD SVG 1.1//EN"
 "http://www.w3.org/Graphics/SVG/1.1/DTD/svg11.dtd">
<!-- Generated by graphviz version 2.43.0 (0)
 -->
<!-- Title: firmware/wombat/include/cli/device_config/ftp_cli.h Pages: 1 -->
<svg width="172pt" height="148pt"
 viewBox="0.00 0.00 172.00 148.00" xmlns="http://www.w3.org/2000/svg" xmlns:xlink="http://www.w3.org/1999/xlink">
<g id="graph0" class="graph" transform="scale(1 1) rotate(0) translate(4 144)">
<title>firmware/wombat/include/cli/device_config/ftp_cli.h</title>
<!-- Node1 -->
<g id="node1" class="node">
<title>Node1</title>
<g id="a_node1"><a xlink:title="FTP setup and configuration through the CLI.">
<polygon fill="#999999" stroke="#666666" points="147.5,-140 5.5,-140 5.5,-110 147.5,-110 147.5,-140"/>
<text text-anchor="start" x="13.5" y="-128" font-family="Helvetica,sans-Serif" font-size="10.00">firmware/wombat/include</text>
<text text-anchor="middle" x="76.5" y="-117" font-family="Helvetica,sans-Serif" font-size="10.00">/cli/device_config/ftp_cli.h</text>
</a>
</g>
</g>
<!-- Node2 -->
<g id="node2" class="node">
<title>Node2</title>
<g id="a_node2"><a xlink:href="_device_config_8h.html" target="_top" xlink:title="Node configuration options.">
<polygon fill="white" stroke="#666666" points="121.5,-74 31.5,-74 31.5,-55 121.5,-55 121.5,-74"/>
<text text-anchor="middle" x="76.5" y="-62" font-family="Helvetica,sans-Serif" font-size="10.00">DeviceConfig.h</text>
</a>
</g>
</g>
<!-- Node1&#45;&gt;Node2 -->
<g id="edge1" class="edge">
<title>Node1&#45;&gt;Node2</title>
<path fill="none" stroke="#63b8ff" d="M76.5,-109.84C76.5,-102.21 76.5,-92.7 76.5,-84.45"/>
<polygon fill="#63b8ff" stroke="#63b8ff" points="80,-84.27 76.5,-74.27 73,-84.27 80,-84.27"/>
</g>
<!-- Node3 -->
<g id="node3" class="node">
<title>Node3</title>
<g id="a_node3"><a xlink:title=" ">
<polygon fill="#e0e0e0" stroke="#999999" points="63,-19 0,-19 0,0 63,0 63,-19"/>
<text text-anchor="middle" x="31.5" y="-7" font-family="Helvetica,sans-Serif" font-size="10.00">Arduino.h</text>
</a>
</g>
</g>
<!-- Node2&#45;&gt;Node3 -->
<g id="edge2" class="edge">
<title>Node2&#45;&gt;Node3</title>
<path fill="none" stroke="#63b8ff" d="M69.07,-54.75C62.65,-47.18 53.19,-36.05 45.38,-26.84"/>
<polygon fill="#63b8ff" stroke="#63b8ff" points="47.93,-24.45 38.79,-19.09 42.6,-28.98 47.93,-24.45"/>
</g>
<!-- Node4 -->
<g id="node4" class="node">
<title>Node4</title>
<g id="a_node4"><a xlink:title=" ">
<polygon fill="#e0e0e0" stroke="#999999" points="164,-19 81,-19 81,0 164,0 164,-19"/>
<text text-anchor="middle" x="122.5" y="-7" font-family="Helvetica,sans-Serif" font-size="10.00">ArduinoJson.h</text>
</a>
</g>
</g>
<!-- Node2&#45;&gt;Node4 -->
<g id="edge3" class="edge">
<title>Node2&#45;&gt;Node4</title>
<path fill="none" stroke="#63b8ff" d="M84.1,-54.75C90.66,-47.18 100.32,-36.05 108.31,-26.84"/>
<polygon fill="#63b8ff" stroke="#63b8ff" points="111.13,-28.94 115.05,-19.09 105.85,-24.35 111.13,-28.94"/>
</g>
</g>
</svg>
