<?xml version="1.0" encoding="UTF-8" standalone="no"?>
<!DOCTYPE svg PUBLIC "-//W3C//DTD SVG 1.1//EN"
 "http://www.w3.org/Graphics/SVG/1.1/DTD/svg11.dtd">
<!-- Generated by graphviz version 2.43.0 (0)
 -->
<!-- Title: firmware/wombat/include/globals.h Pages: 1 -->
<svg width="1962pt" height="115pt"
 viewBox="0.00 0.00 1962.00 115.00" xmlns="http://www.w3.org/2000/svg" xmlns:xlink="http://www.w3.org/1999/xlink">
<g id="graph0" class="graph" transform="scale(1 1) rotate(0) translate(4 111)">
<title>firmware/wombat/include/globals.h</title>
<!-- Node1 -->
<g id="node1" class="node">
<title>Node1</title>
<g id="a_node1"><a xlink:title=" ">
<polygon fill="#999999" stroke="#666666" points="1065.5,-107 924.5,-107 924.5,-77 1065.5,-77 1065.5,-107"/>
<text text-anchor="start" x="932.5" y="-95" font-family="Helvetica,sans-Serif" font-size="10.00">firmware/wombat/include</text>
<text text-anchor="middle" x="995" y="-84" font-family="Helvetica,sans-Serif" font-size="10.00">/globals.h</text>
</a>
</g>
</g>
<!-- Node2 -->
<g id="node2" class="node">
<title>Node2</title>
<g id="a_node2"><a xlink:href="_c_a_t___m1_8cpp.html" target="_top" xlink:title=" ">
<polygon fill="white" stroke="#666666" points="120,-35.5 0,-35.5 0,-5.5 120,-5.5 120,-35.5"/>
<text text-anchor="start" x="8" y="-23.5" font-family="Helvetica,sans-Serif" font-size="10.00">firmware/wombat/src</text>
<text text-anchor="middle" x="60" y="-12.5" font-family="Helvetica,sans-Serif" font-size="10.00">/CAT_M1.cpp</text>
</a>
</g>
</g>
<!-- Node1&#45;&gt;Node2 -->
<g id="edge1" class="edge">
<title>Node1&#45;&gt;Node2</title>
<path fill="none" stroke="#63b8ff" d="M914.15,-88.58C728.97,-82.68 278.58,-66.15 129,-41 120.9,-39.64 112.39,-37.68 104.22,-35.53"/>
<polygon fill="#63b8ff" stroke="#63b8ff" points="914.26,-92.09 924.36,-88.9 914.48,-85.09 914.26,-92.09"/>
</g>
<!-- Node3 -->
<g id="node3" class="node">
<title>Node3</title>
<g id="a_node3"><a xlink:href="_device_config_8cpp.html" target="_top" xlink:title=" ">
<polygon fill="white" stroke="#666666" points="258,-35.5 138,-35.5 138,-5.5 258,-5.5 258,-35.5"/>
<text text-anchor="start" x="146" y="-23.5" font-family="Helvetica,sans-Serif" font-size="10.00">firmware/wombat/src</text>
<text text-anchor="middle" x="198" y="-12.5" font-family="Helvetica,sans-Serif" font-size="10.00">/DeviceConfig.cpp</text>
</a>
</g>
</g>
<!-- Node1&#45;&gt;Node3 -->
<g id="edge2" class="edge">
<title>Node1&#45;&gt;Node3</title>
<path fill="none" stroke="#63b8ff" d="M914.14,-90.88C779.09,-89.47 499.5,-81.39 267,-41 259.03,-39.62 250.66,-37.68 242.6,-35.55"/>
<polygon fill="#63b8ff" stroke="#63b8ff" points="914.37,-94.38 924.4,-90.98 914.43,-87.38 914.37,-94.38"/>
</g>
<!-- Node4 -->
<g id="node4" class="node">
<title>Node4</title>
<g id="a_node4"><a xlink:href="_sensor_task_8cpp.html" target="_top" xlink:title=" ">
<polygon fill="white" stroke="#666666" points="396,-35.5 276,-35.5 276,-5.5 396,-5.5 396,-35.5"/>
<text text-anchor="start" x="284" y="-23.5" font-family="Helvetica,sans-Serif" font-size="10.00">firmware/wombat/src</text>
<text text-anchor="middle" x="336" y="-12.5" font-family="Helvetica,sans-Serif" font-size="10.00">/SensorTask.cpp</text>
</a>
</g>
</g>
<!-- Node1&#45;&gt;Node4 -->
<g id="edge3" class="edge">
<title>Node1&#45;&gt;Node4</title>
<path fill="none" stroke="#63b8ff" d="M914.44,-89.03C800.24,-85.15 585.15,-73.78 405,-41 397.16,-39.57 388.93,-37.64 380.99,-35.55"/>
<polygon fill="#63b8ff" stroke="#63b8ff" points="914.39,-92.53 924.5,-89.37 914.62,-85.54 914.39,-92.53"/>
</g>
<!-- Node5 -->
<g id="node5" class="node">
<title>Node5</title>
<g id="a_node5"><a xlink:href="_utils_8cpp.html" target="_top" xlink:title="Global utility functions.">
<polygon fill="white" stroke="#666666" points="534,-35.5 414,-35.5 414,-5.5 534,-5.5 534,-35.5"/>
<text text-anchor="start" x="422" y="-23.5" font-family="Helvetica,sans-Serif" font-size="10.00">firmware/wombat/src</text>
<text text-anchor="middle" x="474" y="-12.5" font-family="Helvetica,sans-Serif" font-size="10.00">/Utils.cpp</text>
</a>
</g>
</g>
<!-- Node1&#45;&gt;Node5 -->
<g id="edge4" class="edge">
<title>Node1&#45;&gt;Node5</title>
<path fill="none" stroke="#63b8ff" d="M914.15,-86.1C823.24,-79.66 671.52,-66.09 543,-41 535.43,-39.52 527.47,-37.61 519.77,-35.57"/>
<polygon fill="#63b8ff" stroke="#63b8ff" points="914.16,-89.61 924.38,-86.81 914.65,-82.63 914.16,-89.61"/>
</g>
<!-- Node6 -->
<g id="node6" class="node">
<title>Node6</title>
<g id="a_node6"><a xlink:href="acquisition__intervals_8cpp.html" target="_top" xlink:title="Handles the time between measurements and uplinks by the device over LTE.">
<polygon fill="white" stroke="#666666" points="709.5,-41 552.5,-41 552.5,0 709.5,0 709.5,-41"/>
<text text-anchor="start" x="560.5" y="-29" font-family="Helvetica,sans-Serif" font-size="10.00">firmware/wombat/src</text>
<text text-anchor="start" x="560.5" y="-18" font-family="Helvetica,sans-Serif" font-size="10.00">/cli/device_config/acquisition</text>
<text text-anchor="middle" x="631" y="-7" font-family="Helvetica,sans-Serif" font-size="10.00">_intervals.cpp</text>
</a>
</g>
</g>
<!-- Node1&#45;&gt;Node6 -->
<g id="edge5" class="edge">
<title>Node1&#45;&gt;Node6</title>
<path fill="none" stroke="#63b8ff" d="M914.18,-77.21C859.08,-67.6 784.5,-54.19 719,-41 715.93,-40.38 712.81,-39.74 709.65,-39.09"/>
<polygon fill="#63b8ff" stroke="#63b8ff" points="913.78,-80.69 924.24,-78.96 914.98,-73.8 913.78,-80.69"/>
</g>
<!-- Node7 -->
<g id="node7" class="node">
<title>Node7</title>
<g id="a_node7"><a xlink:href="cli__power_8cpp.html" target="_top" xlink:title="Power related commands.">
<polygon fill="white" stroke="#666666" points="848,-41 728,-41 728,0 848,0 848,-41"/>
<text text-anchor="start" x="736" y="-29" font-family="Helvetica,sans-Serif" font-size="10.00">firmware/wombat/src</text>
<text text-anchor="start" x="736" y="-18" font-family="Helvetica,sans-Serif" font-size="10.00">/cli/device_config/cli</text>
<text text-anchor="middle" x="788" y="-7" font-family="Helvetica,sans-Serif" font-size="10.00">_power.cpp</text>
</a>
</g>
</g>
<!-- Node1&#45;&gt;Node7 -->
<g id="edge6" class="edge">
<title>Node1&#45;&gt;Node7</title>
<path fill="none" stroke="#63b8ff" d="M943.42,-73.68C913.93,-63.78 876.84,-51.33 846.3,-41.07"/>
<polygon fill="#63b8ff" stroke="#63b8ff" points="942.52,-77.07 953.11,-76.94 944.74,-70.43 942.52,-77.07"/>
</g>
<!-- Node8 -->
<g id="node8" class="node">
<title>Node8</title>
<g id="a_node8"><a xlink:href="cat-m1_8cpp.html" target="_top" xlink:title="CAT&#45;M1 CLI command request and response handler.">
<polygon fill="white" stroke="#666666" points="986,-41 866,-41 866,0 986,0 986,-41"/>
<text text-anchor="start" x="874" y="-29" font-family="Helvetica,sans-Serif" font-size="10.00">firmware/wombat/src</text>
<text text-anchor="start" x="874" y="-18" font-family="Helvetica,sans-Serif" font-size="10.00">/cli/peripherals/cat</text>
<text text-anchor="middle" x="926" y="-7" font-family="Helvetica,sans-Serif" font-size="10.00">&#45;m1.cpp</text>
</a>
</g>
</g>
<!-- Node1&#45;&gt;Node8 -->
<g id="edge7" class="edge">
<title>Node1&#45;&gt;Node8</title>
<path fill="none" stroke="#63b8ff" d="M973.84,-69.69C964.79,-60.57 954.29,-49.99 945.43,-41.07"/>
<polygon fill="#63b8ff" stroke="#63b8ff" points="971.51,-72.3 981.04,-76.94 976.48,-67.37 971.51,-72.3"/>
</g>
<!-- Node9 -->
<g id="node9" class="node">
<title>Node9</title>
<g id="a_node9"><a xlink:href="sd__card_8cpp.html" target="_top" xlink:title=" ">
<polygon fill="white" stroke="#666666" points="1124,-41 1004,-41 1004,0 1124,0 1124,-41"/>
<text text-anchor="start" x="1012" y="-29" font-family="Helvetica,sans-Serif" font-size="10.00">firmware/wombat/src</text>
<text text-anchor="start" x="1012" y="-18" font-family="Helvetica,sans-Serif" font-size="10.00">/cli/peripherals/sd</text>
<text text-anchor="middle" x="1064" y="-7" font-family="Helvetica,sans-Serif" font-size="10.00">_card.cpp</text>
</a>
</g>
</g>
<!-- Node1&#45;&gt;Node9 -->
<g id="edge8" class="edge">
<title>Node1&#45;&gt;Node9</title>
<path fill="none" stroke="#63b8ff" d="M1016.16,-69.69C1025.21,-60.57 1035.71,-49.99 1044.57,-41.07"/>
<polygon fill="#63b8ff" stroke="#63b8ff" points="1013.52,-67.37 1008.96,-76.94 1018.49,-72.3 1013.52,-67.37"/>
</g>
<!-- Node10 -->
<g id="node10" class="node">
<title>Node10</title>
<g id="a_node10"><a xlink:href="ftp__stack_8cpp.html" target="_top" xlink:title=" ">
<polygon fill="white" stroke="#666666" points="1262,-35.5 1142,-35.5 1142,-5.5 1262,-5.5 1262,-35.5"/>
<text text-anchor="start" x="1150" y="-23.5" font-family="Helvetica,sans-Serif" font-size="10.00">firmware/wombat/src</text>
<text text-anchor="middle" x="1202" y="-12.5" font-family="Helvetica,sans-Serif" font-size="10.00">/ftp_stack.cpp</text>
</a>
</g>
</g>
<!-- Node1&#45;&gt;Node10 -->
<g id="edge9" class="edge">
<title>Node1&#45;&gt;Node10</title>
<path fill="none" stroke="#63b8ff" d="M1046.47,-73.72C1081.54,-61.95 1127.36,-46.56 1160.17,-35.54"/>
<polygon fill="#63b8ff" stroke="#63b8ff" points="1045.26,-70.43 1036.89,-76.94 1047.48,-77.07 1045.26,-70.43"/>
</g>
<!-- Node11 -->
<g id="node11" class="node">
<title>Node11</title>
<g id="a_node11"><a xlink:href="main_8cpp.html" target="_top" xlink:title=" ">
<polygon fill="white" stroke="#666666" points="1400,-35.5 1280,-35.5 1280,-5.5 1400,-5.5 1400,-35.5"/>
<text text-anchor="start" x="1288" y="-23.5" font-family="Helvetica,sans-Serif" font-size="10.00">firmware/wombat/src</text>
<text text-anchor="middle" x="1340" y="-12.5" font-family="Helvetica,sans-Serif" font-size="10.00">/main.cpp</text>
</a>
</g>
</g>
<!-- Node1&#45;&gt;Node11 -->
<g id="edge10" class="edge">
<title>Node1&#45;&gt;Node11</title>
<path fill="none" stroke="#63b8ff" d="M1075.8,-78.47C1131.04,-69.38 1205.79,-56.08 1271,-41 1278.03,-39.37 1285.42,-37.48 1292.64,-35.53"/>
<polygon fill="#63b8ff" stroke="#63b8ff" points="1075.02,-75.05 1065.72,-80.11 1076.15,-81.96 1075.02,-75.05"/>
</g>
<!-- Node12 -->
<g id="node12" class="node">
<title>Node12</title>
<g id="a_node12"><a xlink:href="mqtt__stack_8cpp.html" target="_top" xlink:title=" ">
<polygon fill="white" stroke="#666666" points="1538,-35.5 1418,-35.5 1418,-5.5 1538,-5.5 1538,-35.5"/>
<text text-anchor="start" x="1426" y="-23.5" font-family="Helvetica,sans-Serif" font-size="10.00">firmware/wombat/src</text>
<text text-anchor="middle" x="1478" y="-12.5" font-family="Helvetica,sans-Serif" font-size="10.00">/mqtt_stack.cpp</text>
</a>
</g>
</g>
<!-- Node1&#45;&gt;Node12 -->
<g id="edge11" class="edge">
<title>Node1&#45;&gt;Node12</title>
<path fill="none" stroke="#63b8ff" d="M1075.82,-84.98C1159.7,-77.85 1294.4,-63.97 1409,-41 1416.57,-39.48 1424.52,-37.56 1432.22,-35.51"/>
<polygon fill="#63b8ff" stroke="#63b8ff" points="1075.53,-81.49 1065.85,-85.81 1076.11,-88.46 1075.53,-81.49"/>
</g>
<!-- Node13 -->
<g id="node13" class="node">
<title>Node13</title>
<g id="a_node13"><a xlink:href="ota__update_8cpp.html" target="_top" xlink:title=" ">
<polygon fill="white" stroke="#666666" points="1676,-35.5 1556,-35.5 1556,-5.5 1676,-5.5 1676,-35.5"/>
<text text-anchor="start" x="1564" y="-23.5" font-family="Helvetica,sans-Serif" font-size="10.00">firmware/wombat/src</text>
<text text-anchor="middle" x="1616" y="-12.5" font-family="Helvetica,sans-Serif" font-size="10.00">/ota_update.cpp</text>
</a>
</g>
</g>
<!-- Node1&#45;&gt;Node13 -->
<g id="edge12" class="edge">
<title>Node1&#45;&gt;Node13</title>
<path fill="none" stroke="#63b8ff" d="M1075.9,-88.36C1184.04,-83.76 1381.32,-71.64 1547,-41 1554.83,-39.55 1563.06,-37.61 1571,-35.51"/>
<polygon fill="#63b8ff" stroke="#63b8ff" points="1075.56,-84.87 1065.71,-88.78 1075.85,-91.86 1075.56,-84.87"/>
</g>
<!-- Node14 -->
<g id="node14" class="node">
<title>Node14</title>
<g id="a_node14"><a xlink:href="interface_8cpp.html" target="_top" xlink:title=" ">
<polygon fill="white" stroke="#666666" points="1816,-35.5 1694,-35.5 1694,-5.5 1816,-5.5 1816,-35.5"/>
<text text-anchor="start" x="1702" y="-23.5" font-family="Helvetica,sans-Serif" font-size="10.00">firmware/wombat/src</text>
<text text-anchor="middle" x="1755" y="-12.5" font-family="Helvetica,sans-Serif" font-size="10.00">/sd&#45;card/interface.cpp</text>
</a>
</g>
</g>
<!-- Node1&#45;&gt;Node14 -->
<g id="edge13" class="edge">
<title>Node1&#45;&gt;Node14</title>
<path fill="none" stroke="#63b8ff" d="M1075.82,-90.35C1205.33,-88.13 1466.96,-78.88 1685,-41 1693.08,-39.6 1701.57,-37.65 1709.74,-35.52"/>
<polygon fill="#63b8ff" stroke="#63b8ff" points="1075.54,-86.85 1065.59,-90.51 1075.65,-93.85 1075.54,-86.85"/>
</g>
<!-- Node15 -->
<g id="node15" class="node">
<title>Node15</title>
<g id="a_node15"><a xlink:href="uplinks_8cpp.html" target="_top" xlink:title=" ">
<polygon fill="white" stroke="#666666" points="1954,-35.5 1834,-35.5 1834,-5.5 1954,-5.5 1954,-35.5"/>
<text text-anchor="start" x="1842" y="-23.5" font-family="Helvetica,sans-Serif" font-size="10.00">firmware/wombat/src</text>
<text text-anchor="middle" x="1894" y="-12.5" font-family="Helvetica,sans-Serif" font-size="10.00">/uplinks.cpp</text>
</a>
</g>
</g>
<!-- Node1&#45;&gt;Node15 -->
<g id="edge14" class="edge">
<title>Node1&#45;&gt;Node15</title>
<path fill="none" stroke="#63b8ff" d="M1075.97,-91.87C1225.21,-92.21 1553.26,-87.03 1825,-41 1833.1,-39.63 1841.61,-37.67 1849.78,-35.51"/>
<polygon fill="#63b8ff" stroke="#63b8ff" points="1075.55,-88.37 1065.54,-91.84 1075.52,-95.37 1075.55,-88.37"/>
</g>
</g>
</svg>
