<?xml version="1.0" encoding="UTF-8" standalone="no"?>
<!DOCTYPE svg PUBLIC "-//W3C//DTD SVG 1.1//EN"
 "http://www.w3.org/Graphics/SVG/1.1/DTD/svg11.dtd">
<!-- Generated by graphviz version 2.43.0 (0)
 -->
<!-- Title: firmware/wombat/include/globals.h Pages: 1 -->
<svg width="305pt" height="214pt"
 viewBox="0.00 0.00 304.50 214.00" xmlns="http://www.w3.org/2000/svg" xmlns:xlink="http://www.w3.org/1999/xlink">
<g id="graph0" class="graph" transform="scale(1 1) rotate(0) translate(4 210)">
<title>firmware/wombat/include/globals.h</title>
<!-- Node1 -->
<g id="node1" class="node">
<title>Node1</title>
<g id="a_node1"><a xlink:title=" ">
<polygon fill="#999999" stroke="#666666" points="251.5,-206 110.5,-206 110.5,-176 251.5,-176 251.5,-206"/>
<text text-anchor="start" x="118.5" y="-194" font-family="Helvetica,sans-Serif" font-size="10.00">firmware/wombat/include</text>
<text text-anchor="middle" x="181" y="-183" font-family="Helvetica,sans-Serif" font-size="10.00">/globals.h</text>
</a>
</g>
</g>
<!-- Node2 -->
<g id="node2" class="node">
<title>Node2</title>
<g id="a_node2"><a xlink:title=" ">
<polygon fill="#e0e0e0" stroke="#999999" points="130,-140 0,-140 0,-110 130,-110 130,-140"/>
<text text-anchor="start" x="8" y="-128" font-family="Helvetica,sans-Serif" font-size="10.00">SparkFun_u&#45;blox_SARA</text>
<text text-anchor="middle" x="65" y="-117" font-family="Helvetica,sans-Serif" font-size="10.00">&#45;R5_Arduino_Library.h</text>
</a>
</g>
</g>
<!-- Node1&#45;&gt;Node2 -->
<g id="edge1" class="edge">
<title>Node1&#45;&gt;Node2</title>
<path fill="none" stroke="#63b8ff" d="M155.54,-175.95C139.07,-166.87 117.43,-154.93 99.43,-145"/>
<polygon fill="#63b8ff" stroke="#63b8ff" points="100.84,-141.78 90.4,-140.01 97.46,-147.91 100.84,-141.78"/>
</g>
<!-- Node3 -->
<g id="node3" class="node">
<title>Node3</title>
<g id="a_node3"><a xlink:href="_c_a_t___m1_8h.html" target="_top" xlink:title=" ">
<polygon fill="white" stroke="#666666" points="213.5,-134.5 148.5,-134.5 148.5,-115.5 213.5,-115.5 213.5,-134.5"/>
<text text-anchor="middle" x="181" y="-122.5" font-family="Helvetica,sans-Serif" font-size="10.00">CAT_M1.h</text>
</a>
</g>
</g>
<!-- Node1&#45;&gt;Node3 -->
<g id="edge2" class="edge">
<title>Node1&#45;&gt;Node3</title>
<path fill="none" stroke="#63b8ff" d="M181,-175.8C181,-166.7 181,-154.79 181,-144.9"/>
<polygon fill="#63b8ff" stroke="#63b8ff" points="184.5,-144.84 181,-134.84 177.5,-144.84 184.5,-144.84"/>
</g>
<!-- Node7 -->
<g id="node7" class="node">
<title>Node7</title>
<g id="a_node7"><a xlink:href="str__utils_8h.html" target="_top" xlink:title=" ">
<polygon fill="white" stroke="#666666" points="296.5,-134.5 231.5,-134.5 231.5,-115.5 296.5,-115.5 296.5,-134.5"/>
<text text-anchor="middle" x="264" y="-122.5" font-family="Helvetica,sans-Serif" font-size="10.00">str_utils.h</text>
</a>
</g>
</g>
<!-- Node1&#45;&gt;Node7 -->
<g id="edge7" class="edge">
<title>Node1&#45;&gt;Node7</title>
<path fill="none" stroke="#63b8ff" d="M199.42,-175.8C212.74,-165.53 230.71,-151.67 244.31,-141.18"/>
<polygon fill="#63b8ff" stroke="#63b8ff" points="246.75,-143.72 252.53,-134.84 242.47,-138.18 246.75,-143.72"/>
</g>
<!-- Node4 -->
<g id="node4" class="node">
<title>Node4</title>
<g id="a_node4"><a xlink:title=" ">
<polygon fill="#e0e0e0" stroke="#999999" points="145,-19 97,-19 97,0 145,0 145,-19"/>
<text text-anchor="middle" x="121" y="-7" font-family="Helvetica,sans-Serif" font-size="10.00">Wire.h</text>
</a>
</g>
</g>
<!-- Node3&#45;&gt;Node4 -->
<g id="edge3" class="edge">
<title>Node3&#45;&gt;Node4</title>
<path fill="none" stroke="#63b8ff" d="M171.93,-115.22C162.69,-105.81 148.54,-90.06 140,-74 132.48,-59.86 127.52,-42.32 124.56,-29.26"/>
<polygon fill="#63b8ff" stroke="#63b8ff" points="127.92,-28.21 122.46,-19.13 121.06,-29.63 127.92,-28.21"/>
</g>
<!-- Node5 -->
<g id="node5" class="node">
<title>Node5</title>
<g id="a_node5"><a xlink:href="_t_c_a9534_8h.html" target="_top" xlink:title=" ">
<polygon fill="white" stroke="#666666" points="217,-74 149,-74 149,-55 217,-55 217,-74"/>
<text text-anchor="middle" x="183" y="-62" font-family="Helvetica,sans-Serif" font-size="10.00">TCA9534.h</text>
</a>
</g>
</g>
<!-- Node3&#45;&gt;Node5 -->
<g id="edge4" class="edge">
<title>Node3&#45;&gt;Node5</title>
<path fill="none" stroke="#63b8ff" d="M181.3,-115.37C181.57,-107.25 182,-94.81 182.35,-84.39"/>
<polygon fill="#63b8ff" stroke="#63b8ff" points="185.86,-84.28 182.7,-74.17 178.86,-84.04 185.86,-84.28"/>
</g>
<!-- Node5&#45;&gt;Node4 -->
<g id="edge6" class="edge">
<title>Node5&#45;&gt;Node4</title>
<path fill="none" stroke="#63b8ff" d="M173.04,-54.98C163.87,-47.15 150.06,-35.34 138.97,-25.86"/>
<polygon fill="#63b8ff" stroke="#63b8ff" points="141.02,-23.01 131.14,-19.17 136.47,-28.33 141.02,-23.01"/>
</g>
<!-- Node6 -->
<g id="node6" class="node">
<title>Node6</title>
<g id="a_node6"><a xlink:title=" ">
<polygon fill="#e0e0e0" stroke="#999999" points="226.5,-19 163.5,-19 163.5,0 226.5,0 226.5,-19"/>
<text text-anchor="middle" x="195" y="-7" font-family="Helvetica,sans-Serif" font-size="10.00">Arduino.h</text>
</a>
</g>
</g>
<!-- Node5&#45;&gt;Node6 -->
<g id="edge5" class="edge">
<title>Node5&#45;&gt;Node6</title>
<path fill="none" stroke="#63b8ff" d="M184.98,-54.75C186.57,-47.72 188.86,-37.62 190.85,-28.84"/>
<polygon fill="#63b8ff" stroke="#63b8ff" points="194.26,-29.62 193.06,-19.09 187.43,-28.07 194.26,-29.62"/>
</g>
<!-- Node8 -->
<g id="node8" class="node">
<title>Node8</title>
<g id="a_node8"><a xlink:title=" ">
<polygon fill="#e0e0e0" stroke="#999999" points="292,-74 236,-74 236,-55 292,-55 292,-74"/>
<text text-anchor="middle" x="264" y="-62" font-family="Helvetica,sans-Serif" font-size="10.00">stddef.h</text>
</a>
</g>
</g>
<!-- Node7&#45;&gt;Node8 -->
<g id="edge8" class="edge">
<title>Node7&#45;&gt;Node8</title>
<path fill="none" stroke="#63b8ff" d="M264,-115.37C264,-107.25 264,-94.81 264,-84.39"/>
<polygon fill="#63b8ff" stroke="#63b8ff" points="267.5,-84.17 264,-74.17 260.5,-84.17 267.5,-84.17"/>
</g>
</g>
</svg>
