<?xml version="1.0" encoding="UTF-8" standalone="no"?>
<!DOCTYPE svg PUBLIC "-//W3C//DTD SVG 1.1//EN"
 "http://www.w3.org/Graphics/SVG/1.1/DTD/svg11.dtd">
<!-- Generated by graphviz version 2.43.0 (0)
 -->
<!-- Title: firmware/wombat/include/globals.h Pages: 1 -->
<svg width="549pt" height="214pt"
 viewBox="0.00 0.00 549.00 214.00" xmlns="http://www.w3.org/2000/svg" xmlns:xlink="http://www.w3.org/1999/xlink">
<g id="graph0" class="graph" transform="scale(1 1) rotate(0) translate(4 210)">
<title>firmware/wombat/include/globals.h</title>
<!-- Node1 -->
<g id="node1" class="node">
<title>Node1</title>
<g id="a_node1"><a xlink:title=" ">
<polygon fill="#999999" stroke="#666666" points="386,-206 245,-206 245,-176 386,-176 386,-206"/>
<text text-anchor="start" x="253" y="-194" font-family="Helvetica,sans-Serif" font-size="10.00">firmware/wombat/include</text>
<text text-anchor="middle" x="315.5" y="-183" font-family="Helvetica,sans-Serif" font-size="10.00">/globals.h</text>
</a>
</g>
</g>
<!-- Node2 -->
<g id="node2" class="node">
<title>Node2</title>
<g id="a_node2"><a xlink:href="battery_8h.html" target="_top" xlink:title="Battery voltage and current monitoring using INA219 IC.">
<polygon fill="white" stroke="#666666" points="151,-134.5 0,-134.5 0,-115.5 151,-115.5 151,-134.5"/>
<text text-anchor="middle" x="75.5" y="-122.5" font-family="Helvetica,sans-Serif" font-size="10.00">power_monitoring/battery.h</text>
</a>
</g>
</g>
<!-- Node1&#45;&gt;Node2 -->
<g id="edge1" class="edge">
<title>Node1&#45;&gt;Node2</title>
<path fill="none" stroke="#63b8ff" d="M262.83,-175.95C219.07,-164.29 157.65,-147.91 117.24,-137.13"/>
<polygon fill="#63b8ff" stroke="#63b8ff" points="118,-133.71 107.44,-134.52 116.2,-140.48 118,-133.71"/>
</g>
<!-- Node5 -->
<g id="node5" class="node">
<title>Node5</title>
<g id="a_node5"><a xlink:href="solar_8h.html" target="_top" xlink:title="Solar voltage and current monitoring using INA219 IC.">
<polygon fill="white" stroke="#666666" points="309.5,-134.5 169.5,-134.5 169.5,-115.5 309.5,-115.5 309.5,-134.5"/>
<text text-anchor="middle" x="239.5" y="-122.5" font-family="Helvetica,sans-Serif" font-size="10.00">power_monitoring/solar.h</text>
</a>
</g>
</g>
<!-- Node1&#45;&gt;Node5 -->
<g id="edge4" class="edge">
<title>Node1&#45;&gt;Node5</title>
<path fill="none" stroke="#63b8ff" d="M298.63,-175.8C286.55,-165.62 270.29,-151.93 257.88,-141.48"/>
<polygon fill="#63b8ff" stroke="#63b8ff" points="259.91,-138.61 250,-134.84 255.4,-143.96 259.91,-138.61"/>
</g>
<!-- Node6 -->
<g id="node6" class="node">
<title>Node6</title>
<g id="a_node6"><a xlink:title=" ">
<polygon fill="#e0e0e0" stroke="#999999" points="457.5,-140 327.5,-140 327.5,-110 457.5,-110 457.5,-140"/>
<text text-anchor="start" x="335.5" y="-128" font-family="Helvetica,sans-Serif" font-size="10.00">SparkFun_u&#45;blox_SARA</text>
<text text-anchor="middle" x="392.5" y="-117" font-family="Helvetica,sans-Serif" font-size="10.00">&#45;R5_Arduino_Library.h</text>
</a>
</g>
</g>
<!-- Node1&#45;&gt;Node6 -->
<g id="edge7" class="edge">
<title>Node1&#45;&gt;Node6</title>
<path fill="none" stroke="#63b8ff" d="M332.59,-175.8C342.86,-167.26 356.1,-156.25 367.53,-146.75"/>
<polygon fill="#63b8ff" stroke="#63b8ff" points="370.01,-149.25 375.46,-140.16 365.53,-143.86 370.01,-149.25"/>
</g>
<!-- Node7 -->
<g id="node7" class="node">
<title>Node7</title>
<g id="a_node7"><a xlink:href="_c_a_t___m1_8h.html" target="_top" xlink:title=" ">
<polygon fill="white" stroke="#666666" points="541,-134.5 476,-134.5 476,-115.5 541,-115.5 541,-134.5"/>
<text text-anchor="middle" x="508.5" y="-122.5" font-family="Helvetica,sans-Serif" font-size="10.00">CAT_M1.h</text>
</a>
</g>
</g>
<!-- Node1&#45;&gt;Node7 -->
<g id="edge8" class="edge">
<title>Node1&#45;&gt;Node7</title>
<path fill="none" stroke="#63b8ff" d="M358.14,-175.91C388.39,-165.9 429.94,-152.15 466.5,-140 468.63,-139.29 470.83,-138.56 473.04,-137.83"/>
<polygon fill="#63b8ff" stroke="#63b8ff" points="474.36,-141.08 482.74,-134.6 472.14,-134.44 474.36,-141.08"/>
</g>
<!-- Node3 -->
<g id="node3" class="node">
<title>Node3</title>
<g id="a_node3"><a xlink:title=" ">
<polygon fill="#e0e0e0" stroke="#999999" points="271,-19 208,-19 208,0 271,0 271,-19"/>
<text text-anchor="middle" x="239.5" y="-7" font-family="Helvetica,sans-Serif" font-size="10.00">Arduino.h</text>
</a>
</g>
</g>
<!-- Node2&#45;&gt;Node3 -->
<g id="edge2" class="edge">
<title>Node2&#45;&gt;Node3</title>
<path fill="none" stroke="#63b8ff" d="M75.67,-115.05C76.44,-100.46 80.08,-71.52 96.5,-55 123.18,-28.16 165.74,-17.45 197.51,-13.21"/>
<polygon fill="#63b8ff" stroke="#63b8ff" points="198.3,-16.64 207.83,-12.01 197.49,-9.69 198.3,-16.64"/>
</g>
<!-- Node4 -->
<g id="node4" class="node">
<title>Node4</title>
<g id="a_node4"><a xlink:title=" ">
<polygon fill="#e0e0e0" stroke="#999999" points="211,-74 106,-74 106,-55 211,-55 211,-74"/>
<text text-anchor="middle" x="158.5" y="-62" font-family="Helvetica,sans-Serif" font-size="10.00">Adafruit_INA219.h</text>
</a>
</g>
</g>
<!-- Node2&#45;&gt;Node4 -->
<g id="edge3" class="edge">
<title>Node2&#45;&gt;Node4</title>
<path fill="none" stroke="#63b8ff" d="M87.75,-115.37C100.86,-106.12 121.92,-91.28 137.65,-80.19"/>
<polygon fill="#63b8ff" stroke="#63b8ff" points="140.05,-82.79 146.2,-74.17 136.01,-77.07 140.05,-82.79"/>
</g>
<!-- Node5&#45;&gt;Node3 -->
<g id="edge5" class="edge">
<title>Node5&#45;&gt;Node3</title>
<path fill="none" stroke="#63b8ff" d="M239.5,-115.47C239.5,-97.23 239.5,-54.07 239.5,-29.14"/>
<polygon fill="#63b8ff" stroke="#63b8ff" points="243,-29.13 239.5,-19.13 236,-29.13 243,-29.13"/>
</g>
<!-- Node5&#45;&gt;Node4 -->
<g id="edge6" class="edge">
<title>Node5&#45;&gt;Node4</title>
<path fill="none" stroke="#63b8ff" d="M227.55,-115.37C214.75,-106.12 194.2,-91.28 178.85,-80.19"/>
<polygon fill="#63b8ff" stroke="#63b8ff" points="180.66,-77.18 170.5,-74.17 176.56,-82.86 180.66,-77.18"/>
</g>
<!-- Node8 -->
<g id="node8" class="node">
<title>Node8</title>
<g id="a_node8"><a xlink:title=" ">
<polygon fill="#e0e0e0" stroke="#999999" points="501.5,-19 453.5,-19 453.5,0 501.5,0 501.5,-19"/>
<text text-anchor="middle" x="477.5" y="-7" font-family="Helvetica,sans-Serif" font-size="10.00">Wire.h</text>
</a>
</g>
</g>
<!-- Node7&#45;&gt;Node8 -->
<g id="edge9" class="edge">
<title>Node7&#45;&gt;Node8</title>
<path fill="none" stroke="#63b8ff" d="M506.17,-115.47C501.17,-97.15 489.29,-53.68 482.5,-28.81"/>
<polygon fill="#63b8ff" stroke="#63b8ff" points="485.87,-27.85 479.86,-19.13 479.12,-29.7 485.87,-27.85"/>
</g>
<!-- Node9 -->
<g id="node9" class="node">
<title>Node9</title>
<g id="a_node9"><a xlink:href="_t_c_a9534_8h.html" target="_top" xlink:title=" ">
<polygon fill="white" stroke="#666666" points="480.5,-74 412.5,-74 412.5,-55 480.5,-55 480.5,-74"/>
<text text-anchor="middle" x="446.5" y="-62" font-family="Helvetica,sans-Serif" font-size="10.00">TCA9534.h</text>
</a>
</g>
</g>
<!-- Node7&#45;&gt;Node9 -->
<g id="edge10" class="edge">
<title>Node7&#45;&gt;Node9</title>
<path fill="none" stroke="#63b8ff" d="M499.35,-115.37C489.83,-106.38 474.7,-92.11 463.07,-81.14"/>
<polygon fill="#63b8ff" stroke="#63b8ff" points="465.36,-78.48 455.69,-74.17 460.56,-83.58 465.36,-78.48"/>
</g>
<!-- Node9&#45;&gt;Node3 -->
<g id="edge11" class="edge">
<title>Node9&#45;&gt;Node3</title>
<path fill="none" stroke="#63b8ff" d="M413.24,-54.98C377.36,-45.8 320.16,-31.15 281.27,-21.2"/>
<polygon fill="#63b8ff" stroke="#63b8ff" points="281.87,-17.74 271.32,-18.65 280.14,-24.52 281.87,-17.74"/>
</g>
<!-- Node9&#45;&gt;Node8 -->
<g id="edge12" class="edge">
<title>Node9&#45;&gt;Node8</title>
<path fill="none" stroke="#63b8ff" d="M451.62,-54.75C455.86,-47.49 462.03,-36.95 467.28,-27.98"/>
<polygon fill="#63b8ff" stroke="#63b8ff" points="470.45,-29.49 472.48,-19.09 464.41,-25.95 470.45,-29.49"/>
</g>
</g>
</svg>
