<?xml version="1.0" encoding="UTF-8" standalone="no"?>
<!DOCTYPE svg PUBLIC "-//W3C//DTD SVG 1.1//EN"
 "http://www.w3.org/Graphics/SVG/1.1/DTD/svg11.dtd">
<!-- Generated by graphviz version 2.43.0 (0)
 -->
<!-- Title: firmware/wombat/include/globals.h Pages: 1 -->
<svg width="1686pt" height="115pt"
 viewBox="0.00 0.00 1686.00 115.00" xmlns="http://www.w3.org/2000/svg" xmlns:xlink="http://www.w3.org/1999/xlink">
<g id="graph0" class="graph" transform="scale(1 1) rotate(0) translate(4 111)">
<title>firmware/wombat/include/globals.h</title>
<!-- Node1 -->
<g id="node1" class="node">
<title>Node1</title>
<g id="a_node1"><a xlink:title=" ">
<polygon fill="#999999" stroke="#666666" points="927.5,-107 786.5,-107 786.5,-77 927.5,-77 927.5,-107"/>
<text text-anchor="start" x="794.5" y="-95" font-family="Helvetica,sans-Serif" font-size="10.00">firmware/wombat/include</text>
<text text-anchor="middle" x="857" y="-84" font-family="Helvetica,sans-Serif" font-size="10.00">/globals.h</text>
</a>
</g>
</g>
<!-- Node2 -->
<g id="node2" class="node">
<title>Node2</title>
<g id="a_node2"><a xlink:href="_c_a_t___m1_8cpp.html" target="_top" xlink:title=" ">
<polygon fill="white" stroke="#666666" points="120,-35.5 0,-35.5 0,-5.5 120,-5.5 120,-35.5"/>
<text text-anchor="start" x="8" y="-23.5" font-family="Helvetica,sans-Serif" font-size="10.00">firmware/wombat/src</text>
<text text-anchor="middle" x="60" y="-12.5" font-family="Helvetica,sans-Serif" font-size="10.00">/CAT_M1.cpp</text>
</a>
</g>
</g>
<!-- Node1&#45;&gt;Node2 -->
<g id="edge1" class="edge">
<title>Node1&#45;&gt;Node2</title>
<path fill="none" stroke="#63b8ff" d="M776.14,-90.88C641.09,-89.47 361.5,-81.39 129,-41 121.03,-39.62 112.66,-37.68 104.6,-35.55"/>
<polygon fill="#63b8ff" stroke="#63b8ff" points="776.37,-94.38 786.4,-90.98 776.43,-87.38 776.37,-94.38"/>
</g>
<!-- Node3 -->
<g id="node3" class="node">
<title>Node3</title>
<g id="a_node3"><a xlink:href="_sensor_task_8cpp.html" target="_top" xlink:title=" ">
<polygon fill="white" stroke="#666666" points="258,-35.5 138,-35.5 138,-5.5 258,-5.5 258,-35.5"/>
<text text-anchor="start" x="146" y="-23.5" font-family="Helvetica,sans-Serif" font-size="10.00">firmware/wombat/src</text>
<text text-anchor="middle" x="198" y="-12.5" font-family="Helvetica,sans-Serif" font-size="10.00">/SensorTask.cpp</text>
</a>
</g>
</g>
<!-- Node1&#45;&gt;Node3 -->
<g id="edge2" class="edge">
<title>Node1&#45;&gt;Node3</title>
<path fill="none" stroke="#63b8ff" d="M776.44,-89.03C662.24,-85.15 447.15,-73.78 267,-41 259.16,-39.57 250.93,-37.64 242.99,-35.55"/>
<polygon fill="#63b8ff" stroke="#63b8ff" points="776.39,-92.53 786.5,-89.37 776.62,-85.54 776.39,-92.53"/>
</g>
<!-- Node4 -->
<g id="node4" class="node">
<title>Node4</title>
<g id="a_node4"><a xlink:href="_utils_8cpp.html" target="_top" xlink:title="Global utility functions.">
<polygon fill="white" stroke="#666666" points="396,-35.5 276,-35.5 276,-5.5 396,-5.5 396,-35.5"/>
<text text-anchor="start" x="284" y="-23.5" font-family="Helvetica,sans-Serif" font-size="10.00">firmware/wombat/src</text>
<text text-anchor="middle" x="336" y="-12.5" font-family="Helvetica,sans-Serif" font-size="10.00">/Utils.cpp</text>
</a>
</g>
</g>
<!-- Node1&#45;&gt;Node4 -->
<g id="edge3" class="edge">
<title>Node1&#45;&gt;Node4</title>
<path fill="none" stroke="#63b8ff" d="M776.15,-86.1C685.24,-79.66 533.52,-66.09 405,-41 397.43,-39.52 389.47,-37.61 381.77,-35.57"/>
<polygon fill="#63b8ff" stroke="#63b8ff" points="776.16,-89.61 786.38,-86.81 776.65,-82.63 776.16,-89.61"/>
</g>
<!-- Node5 -->
<g id="node5" class="node">
<title>Node5</title>
<g id="a_node5"><a xlink:href="acquisition__intervals_8cpp.html" target="_top" xlink:title="Handles the time between measurements and uplinks by the device over LTE.">
<polygon fill="white" stroke="#666666" points="571.5,-41 414.5,-41 414.5,0 571.5,0 571.5,-41"/>
<text text-anchor="start" x="422.5" y="-29" font-family="Helvetica,sans-Serif" font-size="10.00">firmware/wombat/src</text>
<text text-anchor="start" x="422.5" y="-18" font-family="Helvetica,sans-Serif" font-size="10.00">/cli/device_config/acquisition</text>
<text text-anchor="middle" x="493" y="-7" font-family="Helvetica,sans-Serif" font-size="10.00">_intervals.cpp</text>
</a>
</g>
</g>
<!-- Node1&#45;&gt;Node5 -->
<g id="edge4" class="edge">
<title>Node1&#45;&gt;Node5</title>
<path fill="none" stroke="#63b8ff" d="M776.18,-77.21C721.08,-67.6 646.5,-54.19 581,-41 577.93,-40.38 574.81,-39.74 571.65,-39.09"/>
<polygon fill="#63b8ff" stroke="#63b8ff" points="775.78,-80.69 786.24,-78.96 776.98,-73.8 775.78,-80.69"/>
</g>
<!-- Node6 -->
<g id="node6" class="node">
<title>Node6</title>
<g id="a_node6"><a xlink:href="cli__power_8cpp.html" target="_top" xlink:title="Power related commands.">
<polygon fill="white" stroke="#666666" points="710,-41 590,-41 590,0 710,0 710,-41"/>
<text text-anchor="start" x="598" y="-29" font-family="Helvetica,sans-Serif" font-size="10.00">firmware/wombat/src</text>
<text text-anchor="start" x="598" y="-18" font-family="Helvetica,sans-Serif" font-size="10.00">/cli/device_config/cli</text>
<text text-anchor="middle" x="650" y="-7" font-family="Helvetica,sans-Serif" font-size="10.00">_power.cpp</text>
</a>
</g>
</g>
<!-- Node1&#45;&gt;Node6 -->
<g id="edge5" class="edge">
<title>Node1&#45;&gt;Node6</title>
<path fill="none" stroke="#63b8ff" d="M805.42,-73.68C775.93,-63.78 738.84,-51.33 708.3,-41.07"/>
<polygon fill="#63b8ff" stroke="#63b8ff" points="804.52,-77.07 815.11,-76.94 806.74,-70.43 804.52,-77.07"/>
</g>
<!-- Node7 -->
<g id="node7" class="node">
<title>Node7</title>
<g id="a_node7"><a xlink:href="cat-m1_8cpp.html" target="_top" xlink:title="CAT&#45;M1 CLI command request and response handler.">
<polygon fill="white" stroke="#666666" points="848,-41 728,-41 728,0 848,0 848,-41"/>
<text text-anchor="start" x="736" y="-29" font-family="Helvetica,sans-Serif" font-size="10.00">firmware/wombat/src</text>
<text text-anchor="start" x="736" y="-18" font-family="Helvetica,sans-Serif" font-size="10.00">/cli/peripherals/cat</text>
<text text-anchor="middle" x="788" y="-7" font-family="Helvetica,sans-Serif" font-size="10.00">&#45;m1.cpp</text>
</a>
</g>
</g>
<!-- Node1&#45;&gt;Node7 -->
<g id="edge6" class="edge">
<title>Node1&#45;&gt;Node7</title>
<path fill="none" stroke="#63b8ff" d="M835.84,-69.69C826.79,-60.57 816.29,-49.99 807.43,-41.07"/>
<polygon fill="#63b8ff" stroke="#63b8ff" points="833.51,-72.3 843.04,-76.94 838.48,-67.37 833.51,-72.3"/>
</g>
<!-- Node8 -->
<g id="node8" class="node">
<title>Node8</title>
<g id="a_node8"><a xlink:href="sd__card_8cpp.html" target="_top" xlink:title=" ">
<polygon fill="white" stroke="#666666" points="986,-41 866,-41 866,0 986,0 986,-41"/>
<text text-anchor="start" x="874" y="-29" font-family="Helvetica,sans-Serif" font-size="10.00">firmware/wombat/src</text>
<text text-anchor="start" x="874" y="-18" font-family="Helvetica,sans-Serif" font-size="10.00">/cli/peripherals/sd</text>
<text text-anchor="middle" x="926" y="-7" font-family="Helvetica,sans-Serif" font-size="10.00">_card.cpp</text>
</a>
</g>
</g>
<!-- Node1&#45;&gt;Node8 -->
<g id="edge7" class="edge">
<title>Node1&#45;&gt;Node8</title>
<path fill="none" stroke="#63b8ff" d="M878.16,-69.69C887.21,-60.57 897.71,-49.99 906.57,-41.07"/>
<polygon fill="#63b8ff" stroke="#63b8ff" points="875.52,-67.37 870.96,-76.94 880.49,-72.3 875.52,-67.37"/>
</g>
<!-- Node9 -->
<g id="node9" class="node">
<title>Node9</title>
<g id="a_node9"><a xlink:href="ftp__stack_8cpp.html" target="_top" xlink:title=" ">
<polygon fill="white" stroke="#666666" points="1124,-35.5 1004,-35.5 1004,-5.5 1124,-5.5 1124,-35.5"/>
<text text-anchor="start" x="1012" y="-23.5" font-family="Helvetica,sans-Serif" font-size="10.00">firmware/wombat/src</text>
<text text-anchor="middle" x="1064" y="-12.5" font-family="Helvetica,sans-Serif" font-size="10.00">/ftp_stack.cpp</text>
</a>
</g>
</g>
<!-- Node1&#45;&gt;Node9 -->
<g id="edge8" class="edge">
<title>Node1&#45;&gt;Node9</title>
<path fill="none" stroke="#63b8ff" d="M908.47,-73.72C943.54,-61.95 989.36,-46.56 1022.17,-35.54"/>
<polygon fill="#63b8ff" stroke="#63b8ff" points="907.26,-70.43 898.89,-76.94 909.48,-77.07 907.26,-70.43"/>
</g>
<!-- Node10 -->
<g id="node10" class="node">
<title>Node10</title>
<g id="a_node10"><a xlink:href="main_8cpp.html" target="_top" xlink:title=" ">
<polygon fill="white" stroke="#666666" points="1262,-35.5 1142,-35.5 1142,-5.5 1262,-5.5 1262,-35.5"/>
<text text-anchor="start" x="1150" y="-23.5" font-family="Helvetica,sans-Serif" font-size="10.00">firmware/wombat/src</text>
<text text-anchor="middle" x="1202" y="-12.5" font-family="Helvetica,sans-Serif" font-size="10.00">/main.cpp</text>
</a>
</g>
</g>
<!-- Node1&#45;&gt;Node10 -->
<g id="edge9" class="edge">
<title>Node1&#45;&gt;Node10</title>
<path fill="none" stroke="#63b8ff" d="M937.8,-78.47C993.04,-69.38 1067.79,-56.08 1133,-41 1140.03,-39.37 1147.42,-37.48 1154.64,-35.53"/>
<polygon fill="#63b8ff" stroke="#63b8ff" points="937.02,-75.05 927.72,-80.11 938.15,-81.96 937.02,-75.05"/>
</g>
<!-- Node11 -->
<g id="node11" class="node">
<title>Node11</title>
<g id="a_node11"><a xlink:href="mqtt__stack_8cpp.html" target="_top" xlink:title=" ">
<polygon fill="white" stroke="#666666" points="1400,-35.5 1280,-35.5 1280,-5.5 1400,-5.5 1400,-35.5"/>
<text text-anchor="start" x="1288" y="-23.5" font-family="Helvetica,sans-Serif" font-size="10.00">firmware/wombat/src</text>
<text text-anchor="middle" x="1340" y="-12.5" font-family="Helvetica,sans-Serif" font-size="10.00">/mqtt_stack.cpp</text>
</a>
</g>
</g>
<!-- Node1&#45;&gt;Node11 -->
<g id="edge10" class="edge">
<title>Node1&#45;&gt;Node11</title>
<path fill="none" stroke="#63b8ff" d="M937.82,-84.98C1021.7,-77.85 1156.4,-63.97 1271,-41 1278.57,-39.48 1286.52,-37.56 1294.22,-35.51"/>
<polygon fill="#63b8ff" stroke="#63b8ff" points="937.53,-81.49 927.85,-85.81 938.11,-88.46 937.53,-81.49"/>
</g>
<!-- Node12 -->
<g id="node12" class="node">
<title>Node12</title>
<g id="a_node12"><a xlink:href="interface_8cpp.html" target="_top" xlink:title=" ">
<polygon fill="white" stroke="#666666" points="1540,-35.5 1418,-35.5 1418,-5.5 1540,-5.5 1540,-35.5"/>
<text text-anchor="start" x="1426" y="-23.5" font-family="Helvetica,sans-Serif" font-size="10.00">firmware/wombat/src</text>
<text text-anchor="middle" x="1479" y="-12.5" font-family="Helvetica,sans-Serif" font-size="10.00">/sd&#45;card/interface.cpp</text>
</a>
</g>
</g>
<!-- Node1&#45;&gt;Node12 -->
<g id="edge11" class="edge">
<title>Node1&#45;&gt;Node12</title>
<path fill="none" stroke="#63b8ff" d="M937.88,-88.26C1046,-83.56 1243.26,-71.33 1409,-41 1416.94,-39.55 1425.29,-37.6 1433.34,-35.5"/>
<polygon fill="#63b8ff" stroke="#63b8ff" points="937.54,-84.77 927.7,-88.7 937.84,-91.77 937.54,-84.77"/>
</g>
<!-- Node13 -->
<g id="node13" class="node">
<title>Node13</title>
<g id="a_node13"><a xlink:href="uplinks_8cpp.html" target="_top" xlink:title=" ">
<polygon fill="white" stroke="#666666" points="1678,-35.5 1558,-35.5 1558,-5.5 1678,-5.5 1678,-35.5"/>
<text text-anchor="start" x="1566" y="-23.5" font-family="Helvetica,sans-Serif" font-size="10.00">firmware/wombat/src</text>
<text text-anchor="middle" x="1618" y="-12.5" font-family="Helvetica,sans-Serif" font-size="10.00">/uplinks.cpp</text>
</a>
</g>
</g>
<!-- Node1&#45;&gt;Node13 -->
<g id="edge12" class="edge">
<title>Node1&#45;&gt;Node13</title>
<path fill="none" stroke="#63b8ff" d="M938.07,-90.46C1067.98,-88.41 1330.4,-79.38 1549,-41 1556.97,-39.6 1565.34,-37.66 1573.39,-35.53"/>
<polygon fill="#63b8ff" stroke="#63b8ff" points="937.76,-86.97 927.81,-90.61 937.86,-93.97 937.76,-86.97"/>
</g>
</g>
</svg>
