<?xml version="1.0" encoding="UTF-8" standalone="no"?>
<!DOCTYPE svg PUBLIC "-//W3C//DTD SVG 1.1//EN"
 "http://www.w3.org/Graphics/SVG/1.1/DTD/svg11.dtd">
<!-- Generated by graphviz version 2.43.0 (0)
 -->
<!-- Title: firmware/wombat/include/globals.h Pages: 1 -->
<svg width="1907pt" height="313pt"
 viewBox="0.00 0.00 1907.00 313.00" xmlns="http://www.w3.org/2000/svg" xmlns:xlink="http://www.w3.org/1999/xlink">
<g id="graph0" class="graph" transform="scale(1 1) rotate(0) translate(4 309)">
<title>firmware/wombat/include/globals.h</title>
<!-- Node1 -->
<g id="node1" class="node">
<title>Node1</title>
<g id="a_node1"><a xlink:title=" ">
<polygon fill="#999999" stroke="#666666" points="1341.5,-305 1200.5,-305 1200.5,-275 1341.5,-275 1341.5,-305"/>
<text text-anchor="start" x="1208.5" y="-293" font-family="Helvetica,sans-Serif" font-size="10.00">firmware/wombat/include</text>
<text text-anchor="middle" x="1271" y="-282" font-family="Helvetica,sans-Serif" font-size="10.00">/globals.h</text>
</a>
</g>
</g>
<!-- Node2 -->
<g id="node2" class="node">
<title>Node2</title>
<g id="a_node2"><a xlink:href="_utils_8h.html" target="_top" xlink:title=" ">
<polygon fill="white" stroke="#666666" points="1039.5,-239 898.5,-239 898.5,-209 1039.5,-209 1039.5,-239"/>
<text text-anchor="start" x="906.5" y="-227" font-family="Helvetica,sans-Serif" font-size="10.00">firmware/wombat/include</text>
<text text-anchor="middle" x="969" y="-216" font-family="Helvetica,sans-Serif" font-size="10.00">/Utils.h</text>
</a>
</g>
</g>
<!-- Node1&#45;&gt;Node2 -->
<g id="edge1" class="edge">
<title>Node1&#45;&gt;Node2</title>
<path fill="none" stroke="#63b8ff" d="M1194.77,-272.84C1145.56,-262.42 1082.19,-248.99 1035.12,-239.01"/>
<polygon fill="#63b8ff" stroke="#63b8ff" points="1194.22,-276.31 1204.72,-274.95 1195.67,-269.46 1194.22,-276.31"/>
</g>
<!-- Node6 -->
<g id="node6" class="node">
<title>Node6</title>
<g id="a_node6"><a xlink:href="acquisition__intervals_8cpp.html" target="_top" xlink:title="Handles the time between measurements and uplinks by the device over LTE.">
<polygon fill="white" stroke="#666666" points="295.5,-41 138.5,-41 138.5,0 295.5,0 295.5,-41"/>
<text text-anchor="start" x="146.5" y="-29" font-family="Helvetica,sans-Serif" font-size="10.00">firmware/wombat/src</text>
<text text-anchor="start" x="146.5" y="-18" font-family="Helvetica,sans-Serif" font-size="10.00">/cli/device_config/acquisition</text>
<text text-anchor="middle" x="217" y="-7" font-family="Helvetica,sans-Serif" font-size="10.00">_intervals.cpp</text>
</a>
</g>
</g>
<!-- Node1&#45;&gt;Node6 -->
<g id="edge38" class="edge">
<title>Node1&#45;&gt;Node6</title>
<path fill="none" stroke="#63b8ff" d="M1190.15,-287.18C975.23,-282.01 400.54,-265.84 319,-239 268.42,-222.35 244.54,-219.72 219,-173 195.91,-130.76 204.81,-71.49 211.76,-41.13"/>
<polygon fill="#63b8ff" stroke="#63b8ff" points="1190.33,-290.69 1200.41,-287.43 1190.5,-283.69 1190.33,-290.69"/>
</g>
<!-- Node8 -->
<g id="node8" class="node">
<title>Node8</title>
<g id="a_node8"><a xlink:href="config__cli_8cpp.html" target="_top" xlink:title="Command line interface node configuration commands.">
<polygon fill="white" stroke="#666666" points="1025.5,-41 892.5,-41 892.5,0 1025.5,0 1025.5,-41"/>
<text text-anchor="start" x="900.5" y="-29" font-family="Helvetica,sans-Serif" font-size="10.00">firmware/wombat/src</text>
<text text-anchor="start" x="900.5" y="-18" font-family="Helvetica,sans-Serif" font-size="10.00">/cli/device_config/config</text>
<text text-anchor="middle" x="959" y="-7" font-family="Helvetica,sans-Serif" font-size="10.00">_cli.cpp</text>
</a>
</g>
</g>
<!-- Node1&#45;&gt;Node8 -->
<g id="edge39" class="edge">
<title>Node1&#45;&gt;Node8</title>
<path fill="none" stroke="#63b8ff" d="M1190.12,-286.38C955.94,-277.95 290.1,-247.54 230,-173 152.88,-77.34 660.08,-137.93 779,-107 833.91,-92.72 892.34,-61.65 927.24,-41.16"/>
<polygon fill="#63b8ff" stroke="#63b8ff" points="1190.16,-289.89 1200.28,-286.75 1190.41,-282.89 1190.16,-289.89"/>
</g>
<!-- Node11 -->
<g id="node11" class="node">
<title>Node11</title>
<g id="a_node11"><a xlink:href="cat-m1_8cpp.html" target="_top" xlink:title="CAT&#45;M1 CLI command request and response handler.">
<polygon fill="white" stroke="#666666" points="1578,-41 1458,-41 1458,0 1578,0 1578,-41"/>
<text text-anchor="start" x="1466" y="-29" font-family="Helvetica,sans-Serif" font-size="10.00">firmware/wombat/src</text>
<text text-anchor="start" x="1466" y="-18" font-family="Helvetica,sans-Serif" font-size="10.00">/cli/peripherals/cat</text>
<text text-anchor="middle" x="1518" y="-7" font-family="Helvetica,sans-Serif" font-size="10.00">&#45;m1.cpp</text>
</a>
</g>
</g>
<!-- Node1&#45;&gt;Node11 -->
<g id="edge40" class="edge">
<title>Node1&#45;&gt;Node11</title>
<path fill="none" stroke="#63b8ff" d="M1351.82,-288.07C1445.87,-285.28 1593.5,-275.08 1634,-239 1666.35,-210.18 1668.48,-182.65 1651,-143 1630.94,-97.5 1584.49,-61.65 1552.17,-41.01"/>
<polygon fill="#63b8ff" stroke="#63b8ff" points="1351.66,-284.57 1341.76,-288.34 1351.85,-291.57 1351.66,-284.57"/>
</g>
<!-- Node12 -->
<g id="node12" class="node">
<title>Node12</title>
<g id="a_node12"><a xlink:href="sd__card_8cpp.html" target="_top" xlink:title=" ">
<polygon fill="white" stroke="#666666" points="1440,-41 1320,-41 1320,0 1440,0 1440,-41"/>
<text text-anchor="start" x="1328" y="-29" font-family="Helvetica,sans-Serif" font-size="10.00">firmware/wombat/src</text>
<text text-anchor="start" x="1328" y="-18" font-family="Helvetica,sans-Serif" font-size="10.00">/cli/peripherals/sd</text>
<text text-anchor="middle" x="1380" y="-7" font-family="Helvetica,sans-Serif" font-size="10.00">_card.cpp</text>
</a>
</g>
</g>
<!-- Node1&#45;&gt;Node12 -->
<g id="edge41" class="edge">
<title>Node1&#45;&gt;Node12</title>
<path fill="none" stroke="#63b8ff" d="M1351.87,-286.24C1439.24,-281.7 1571.18,-269.82 1610,-239 1634.69,-219.4 1630.12,-203.97 1636,-173 1638.49,-159.9 1643.13,-154.27 1636,-143 1613.52,-107.45 1506.85,-65.18 1438.49,-41.03"/>
<polygon fill="#63b8ff" stroke="#63b8ff" points="1351.52,-282.76 1341.71,-286.75 1351.87,-289.75 1351.52,-282.76"/>
</g>
<!-- Node14 -->
<g id="node14" class="node">
<title>Node14</title>
<g id="a_node14"><a xlink:href="main_8cpp.html" target="_top" xlink:title=" ">
<polygon fill="white" stroke="#666666" points="1302,-35.5 1182,-35.5 1182,-5.5 1302,-5.5 1302,-35.5"/>
<text text-anchor="start" x="1190" y="-23.5" font-family="Helvetica,sans-Serif" font-size="10.00">firmware/wombat/src</text>
<text text-anchor="middle" x="1242" y="-12.5" font-family="Helvetica,sans-Serif" font-size="10.00">/main.cpp</text>
</a>
</g>
</g>
<!-- Node1&#45;&gt;Node14 -->
<g id="edge43" class="edge">
<title>Node1&#45;&gt;Node14</title>
<path fill="none" stroke="#63b8ff" d="M1351.63,-284.05C1474.39,-273.34 1686.84,-240.49 1616,-143 1606.11,-129.38 1389.42,-64.62 1290.49,-35.61"/>
<polygon fill="#63b8ff" stroke="#63b8ff" points="1351.17,-280.58 1341.5,-284.9 1351.76,-287.55 1351.17,-280.58"/>
</g>
<!-- Node15 -->
<g id="node15" class="node">
<title>Node15</title>
<g id="a_node15"><a xlink:href="mqtt__stack_8cpp.html" target="_top" xlink:title=" ">
<polygon fill="white" stroke="#666666" points="120,-35.5 0,-35.5 0,-5.5 120,-5.5 120,-35.5"/>
<text text-anchor="start" x="8" y="-23.5" font-family="Helvetica,sans-Serif" font-size="10.00">firmware/wombat/src</text>
<text text-anchor="middle" x="60" y="-12.5" font-family="Helvetica,sans-Serif" font-size="10.00">/mqtt_stack.cpp</text>
</a>
</g>
</g>
<!-- Node1&#45;&gt;Node15 -->
<g id="edge44" class="edge">
<title>Node1&#45;&gt;Node15</title>
<path fill="none" stroke="#63b8ff" d="M1190.05,-288.75C962.43,-287.52 327.84,-280.4 244,-239 150.87,-193.02 86.71,-76.12 66.67,-35.59"/>
<polygon fill="#63b8ff" stroke="#63b8ff" points="1190.24,-292.25 1200.25,-288.8 1190.27,-285.25 1190.24,-292.25"/>
</g>
<!-- Node17 -->
<g id="node17" class="node">
<title>Node17</title>
<g id="a_node17"><a xlink:href="ota__update_8cpp.html" target="_top" xlink:title=" ">
<polygon fill="white" stroke="#666666" points="1763,-35.5 1643,-35.5 1643,-5.5 1763,-5.5 1763,-35.5"/>
<text text-anchor="start" x="1651" y="-23.5" font-family="Helvetica,sans-Serif" font-size="10.00">firmware/wombat/src</text>
<text text-anchor="middle" x="1703" y="-12.5" font-family="Helvetica,sans-Serif" font-size="10.00">/ota_update.cpp</text>
</a>
</g>
</g>
<!-- Node1&#45;&gt;Node17 -->
<g id="edge45" class="edge">
<title>Node1&#45;&gt;Node17</title>
<path fill="none" stroke="#63b8ff" d="M1351.99,-289.28C1452.46,-287.87 1615.81,-279.21 1659,-239 1717.79,-184.27 1710,-74.41 1705.09,-35.53"/>
<polygon fill="#63b8ff" stroke="#63b8ff" points="1351.83,-285.79 1341.87,-289.41 1351.91,-292.79 1351.83,-285.79"/>
</g>
<!-- Node18 -->
<g id="node18" class="node">
<title>Node18</title>
<g id="a_node18"><a xlink:href="_c_a_t___m1_8cpp.html" target="_top" xlink:title=" ">
<polygon fill="white" stroke="#666666" points="359,-173 239,-173 239,-143 359,-143 359,-173"/>
<text text-anchor="start" x="247" y="-161" font-family="Helvetica,sans-Serif" font-size="10.00">firmware/wombat/src</text>
<text text-anchor="middle" x="299" y="-150" font-family="Helvetica,sans-Serif" font-size="10.00">/CAT_M1.cpp</text>
</a>
</g>
</g>
<!-- Node1&#45;&gt;Node18 -->
<g id="edge34" class="edge">
<title>Node1&#45;&gt;Node18</title>
<path fill="none" stroke="#63b8ff" d="M1189.89,-284.4C1080.38,-277.6 879.31,-262.99 709,-239 556.14,-217.47 519.42,-203.01 368,-173 365.12,-172.43 362.18,-171.84 359.2,-171.25"/>
<polygon fill="#63b8ff" stroke="#63b8ff" points="1190.01,-287.91 1200.2,-285.04 1190.44,-280.93 1190.01,-287.91"/>
</g>
<!-- Node19 -->
<g id="node19" class="node">
<title>Node19</title>
<g id="a_node19"><a xlink:href="_device_config_8cpp.html" target="_top" xlink:title=" ">
<polygon fill="white" stroke="#666666" points="497,-173 377,-173 377,-143 497,-143 497,-173"/>
<text text-anchor="start" x="385" y="-161" font-family="Helvetica,sans-Serif" font-size="10.00">firmware/wombat/src</text>
<text text-anchor="middle" x="437" y="-150" font-family="Helvetica,sans-Serif" font-size="10.00">/DeviceConfig.cpp</text>
</a>
</g>
</g>
<!-- Node1&#45;&gt;Node19 -->
<g id="edge35" class="edge">
<title>Node1&#45;&gt;Node19</title>
<path fill="none" stroke="#63b8ff" d="M1190.3,-279.45C1112.89,-270.05 992.78,-254.84 889,-239 720.41,-213.26 678.79,-203.52 511,-173 506.5,-172.18 501.84,-171.32 497.16,-170.46"/>
<polygon fill="#63b8ff" stroke="#63b8ff" points="1190.12,-282.96 1200.47,-280.68 1190.96,-276.01 1190.12,-282.96"/>
</g>
<!-- Node20 -->
<g id="node20" class="node">
<title>Node20</title>
<g id="a_node20"><a xlink:href="_sensor_task_8cpp.html" target="_top" xlink:title=" ">
<polygon fill="white" stroke="#666666" points="1193,-173 1073,-173 1073,-143 1193,-143 1193,-173"/>
<text text-anchor="start" x="1081" y="-161" font-family="Helvetica,sans-Serif" font-size="10.00">firmware/wombat/src</text>
<text text-anchor="middle" x="1133" y="-150" font-family="Helvetica,sans-Serif" font-size="10.00">/SensorTask.cpp</text>
</a>
</g>
</g>
<!-- Node1&#45;&gt;Node20 -->
<g id="edge36" class="edge">
<title>Node1&#45;&gt;Node20</title>
<path fill="none" stroke="#63b8ff" d="M1248.53,-267.84C1220.2,-241.15 1172.26,-195.99 1148.01,-173.14"/>
<polygon fill="#63b8ff" stroke="#63b8ff" points="1246.29,-270.53 1255.97,-274.84 1251.09,-265.44 1246.29,-270.53"/>
</g>
<!-- Node21 -->
<g id="node21" class="node">
<title>Node21</title>
<g id="a_node21"><a xlink:href="_utils_8cpp.html" target="_top" xlink:title="Global utility functions.">
<polygon fill="white" stroke="#666666" points="1331,-173 1211,-173 1211,-143 1331,-143 1331,-173"/>
<text text-anchor="start" x="1219" y="-161" font-family="Helvetica,sans-Serif" font-size="10.00">firmware/wombat/src</text>
<text text-anchor="middle" x="1271" y="-150" font-family="Helvetica,sans-Serif" font-size="10.00">/Utils.cpp</text>
</a>
</g>
</g>
<!-- Node1&#45;&gt;Node21 -->
<g id="edge37" class="edge">
<title>Node1&#45;&gt;Node21</title>
<path fill="none" stroke="#63b8ff" d="M1271,-264.68C1271,-237.7 1271,-195.11 1271,-173.14"/>
<polygon fill="#63b8ff" stroke="#63b8ff" points="1267.5,-264.84 1271,-274.84 1274.5,-264.84 1267.5,-264.84"/>
</g>
<!-- Node22 -->
<g id="node22" class="node">
<title>Node22</title>
<g id="a_node22"><a xlink:href="ftp__stack_8cpp.html" target="_top" xlink:title=" ">
<polygon fill="white" stroke="#666666" points="1469,-173 1349,-173 1349,-143 1469,-143 1469,-173"/>
<text text-anchor="start" x="1357" y="-161" font-family="Helvetica,sans-Serif" font-size="10.00">firmware/wombat/src</text>
<text text-anchor="middle" x="1409" y="-150" font-family="Helvetica,sans-Serif" font-size="10.00">/ftp_stack.cpp</text>
</a>
</g>
</g>
<!-- Node1&#45;&gt;Node22 -->
<g id="edge42" class="edge">
<title>Node1&#45;&gt;Node22</title>
<path fill="none" stroke="#63b8ff" d="M1293.47,-267.84C1321.8,-241.15 1369.74,-195.99 1393.99,-173.14"/>
<polygon fill="#63b8ff" stroke="#63b8ff" points="1290.91,-265.44 1286.03,-274.84 1295.71,-270.53 1290.91,-265.44"/>
</g>
<!-- Node23 -->
<g id="node23" class="node">
<title>Node23</title>
<g id="a_node23"><a xlink:href="uplinks_8cpp.html" target="_top" xlink:title=" ">
<polygon fill="white" stroke="#666666" points="1607,-173 1487,-173 1487,-143 1607,-143 1607,-173"/>
<text text-anchor="start" x="1495" y="-161" font-family="Helvetica,sans-Serif" font-size="10.00">firmware/wombat/src</text>
<text text-anchor="middle" x="1547" y="-150" font-family="Helvetica,sans-Serif" font-size="10.00">/uplinks.cpp</text>
</a>
</g>
</g>
<!-- Node1&#45;&gt;Node23 -->
<g id="edge47" class="edge">
<title>Node1&#45;&gt;Node23</title>
<path fill="none" stroke="#63b8ff" d="M1309.98,-270.64C1365.62,-244.43 1466.64,-196.85 1516.91,-173.17"/>
<polygon fill="#63b8ff" stroke="#63b8ff" points="1308.35,-267.54 1300.8,-274.96 1311.34,-273.87 1308.35,-267.54"/>
</g>
<!-- Node25 -->
<g id="node25" class="node">
<title>Node25</title>
<g id="a_node25"><a xlink:href="interface_8cpp.html" target="_top" xlink:title=" ">
<polygon fill="white" stroke="#666666" points="1899,-239 1777,-239 1777,-209 1899,-209 1899,-239"/>
<text text-anchor="start" x="1785" y="-227" font-family="Helvetica,sans-Serif" font-size="10.00">firmware/wombat/src</text>
<text text-anchor="middle" x="1838" y="-216" font-family="Helvetica,sans-Serif" font-size="10.00">/sd&#45;card/interface.cpp</text>
</a>
</g>
</g>
<!-- Node1&#45;&gt;Node25 -->
<g id="edge46" class="edge">
<title>Node1&#45;&gt;Node25</title>
<path fill="none" stroke="#63b8ff" d="M1351.8,-282.87C1449.49,-274.97 1618.75,-259.76 1763,-239 1767.46,-238.36 1772.05,-237.64 1776.67,-236.88"/>
<polygon fill="#63b8ff" stroke="#63b8ff" points="1351.39,-279.39 1341.7,-283.68 1351.95,-286.36 1351.39,-279.39"/>
</g>
<!-- Node3 -->
<g id="node3" class="node">
<title>Node3</title>
<g id="a_node3"><a xlink:href="sdi12_8h.html" target="_top" xlink:title="SDI&#45;12 command line interface handler.">
<polygon fill="white" stroke="#666666" points="884.5,-173 743.5,-173 743.5,-143 884.5,-143 884.5,-173"/>
<text text-anchor="start" x="751.5" y="-161" font-family="Helvetica,sans-Serif" font-size="10.00">firmware/wombat/include</text>
<text text-anchor="middle" x="814" y="-150" font-family="Helvetica,sans-Serif" font-size="10.00">/cli/peripherals/sdi12.h</text>
</a>
</g>
</g>
<!-- Node2&#45;&gt;Node3 -->
<g id="edge2" class="edge">
<title>Node2&#45;&gt;Node3</title>
<path fill="none" stroke="#63b8ff" d="M925.54,-205.05C900.98,-194.91 870.73,-182.43 847.94,-173.01"/>
<polygon fill="#63b8ff" stroke="#63b8ff" points="924.41,-208.37 934.98,-208.95 927.08,-201.9 924.41,-208.37"/>
</g>
<!-- Node2&#45;&gt;Node6 -->
<g id="edge26" class="edge">
<title>Node2&#45;&gt;Node6</title>
<path fill="none" stroke="#63b8ff" d="M888.06,-214.62C783.03,-203.43 609.86,-183.77 582,-173 560.26,-164.6 559.62,-153.86 539,-143 454.29,-98.36 349.46,-62 282.89,-41.04"/>
<polygon fill="#63b8ff" stroke="#63b8ff" points="888.01,-218.14 898.32,-215.71 888.74,-211.18 888.01,-218.14"/>
</g>
<!-- Node2&#45;&gt;Node8 -->
<g id="edge27" class="edge">
<title>Node2&#45;&gt;Node8</title>
<path fill="none" stroke="#63b8ff" d="M962.75,-198.98C955.96,-170.11 946.52,-120.15 950,-77 950.96,-65.03 953.08,-51.75 955.02,-41.18"/>
<polygon fill="#63b8ff" stroke="#63b8ff" points="959.41,-200.07 965.19,-208.95 966.21,-198.41 959.41,-200.07"/>
</g>
<!-- Node2&#45;&gt;Node11 -->
<g id="edge28" class="edge">
<title>Node2&#45;&gt;Node11</title>
<path fill="none" stroke="#63b8ff" d="M995.23,-202.41C1006.38,-193.51 1019.45,-182.89 1031,-173 1046.05,-160.11 1046.59,-152.48 1064,-143 1141.74,-100.69 1363.63,-64.37 1449,-41 1451.88,-40.21 1454.83,-39.4 1457.81,-38.57"/>
<polygon fill="#63b8ff" stroke="#63b8ff" points="992.79,-199.88 987.14,-208.84 997.14,-205.36 992.79,-199.88"/>
</g>
<!-- Node2&#45;&gt;Node14 -->
<g id="edge30" class="edge">
<title>Node2&#45;&gt;Node14</title>
<path fill="none" stroke="#63b8ff" d="M982.59,-199.91C993.79,-182.46 1011.04,-158.87 1031,-143 1060.88,-119.23 1075.53,-125.37 1109,-107 1150.39,-84.29 1196.2,-53.5 1221.81,-35.74"/>
<polygon fill="#63b8ff" stroke="#63b8ff" points="979.31,-198.55 977.01,-208.89 985.26,-202.24 979.31,-198.55"/>
</g>
<!-- Node2&#45;&gt;Node15 -->
<g id="edge31" class="edge">
<title>Node2&#45;&gt;Node15</title>
<path fill="none" stroke="#63b8ff" d="M888.18,-214.89C768.03,-202.65 554.66,-180.12 539,-173 520.96,-164.79 523.39,-152.52 506,-143 486.97,-132.58 149.91,-46.78 129,-41 122.64,-39.24 115.96,-37.37 109.36,-35.52"/>
<polygon fill="#63b8ff" stroke="#63b8ff" points="888.14,-218.4 898.44,-215.93 888.85,-211.44 888.14,-218.4"/>
</g>
<!-- Node16 -->
<g id="node16" class="node">
<title>Node16</title>
<g id="a_node16"><a xlink:href="ftp__stack_8h.html" target="_top" xlink:title=" ">
<polygon fill="white" stroke="#666666" points="1100.5,-107 959.5,-107 959.5,-77 1100.5,-77 1100.5,-107"/>
<text text-anchor="start" x="967.5" y="-95" font-family="Helvetica,sans-Serif" font-size="10.00">firmware/wombat/include</text>
<text text-anchor="middle" x="1030" y="-84" font-family="Helvetica,sans-Serif" font-size="10.00">/ftp_stack.h</text>
</a>
</g>
</g>
<!-- Node2&#45;&gt;Node16 -->
<g id="edge17" class="edge">
<title>Node2&#45;&gt;Node16</title>
<path fill="none" stroke="#63b8ff" d="M973.9,-199.02C977.78,-182.68 984.05,-160.87 993,-143 999.58,-129.87 1009.61,-116.58 1017.57,-107"/>
<polygon fill="#63b8ff" stroke="#63b8ff" points="970.47,-198.34 971.69,-208.86 977.3,-199.87 970.47,-198.34"/>
</g>
<!-- Node2&#45;&gt;Node18 -->
<g id="edge22" class="edge">
<title>Node2&#45;&gt;Node18</title>
<path fill="none" stroke="#63b8ff" d="M888.19,-219.29C772.49,-213.29 553.13,-199.39 368,-173 365.1,-172.59 362.13,-172.13 359.14,-171.63"/>
<polygon fill="#63b8ff" stroke="#63b8ff" points="888.21,-222.8 898.38,-219.81 888.57,-215.8 888.21,-222.8"/>
</g>
<!-- Node2&#45;&gt;Node19 -->
<g id="edge23" class="edge">
<title>Node2&#45;&gt;Node19</title>
<path fill="none" stroke="#63b8ff" d="M888.12,-216.1C796.41,-207.83 642.54,-192.59 511,-173 506.47,-172.33 501.8,-171.57 497.11,-170.78"/>
<polygon fill="#63b8ff" stroke="#63b8ff" points="887.89,-219.59 898.17,-217 888.52,-212.62 887.89,-219.59"/>
</g>
<!-- Node2&#45;&gt;Node20 -->
<g id="edge24" class="edge">
<title>Node2&#45;&gt;Node20</title>
<path fill="none" stroke="#63b8ff" d="M1014.64,-205.19C1040.69,-195.02 1072.87,-182.47 1097.09,-173.01"/>
<polygon fill="#63b8ff" stroke="#63b8ff" points="1013.03,-202.06 1004.99,-208.95 1015.58,-208.58 1013.03,-202.06"/>
</g>
<!-- Node2&#45;&gt;Node21 -->
<g id="edge25" class="edge">
<title>Node2&#45;&gt;Node21</title>
<path fill="none" stroke="#63b8ff" d="M1045.32,-206.83C1096.59,-195.96 1163.23,-181.84 1210.77,-171.76"/>
<polygon fill="#63b8ff" stroke="#63b8ff" points="1044.33,-203.46 1035.28,-208.95 1045.78,-210.31 1044.33,-203.46"/>
</g>
<!-- Node2&#45;&gt;Node22 -->
<g id="edge29" class="edge">
<title>Node2&#45;&gt;Node22</title>
<path fill="none" stroke="#63b8ff" d="M1050,-213.65C1125.32,-204.59 1240.54,-189.77 1340,-173 1342.89,-172.51 1345.85,-171.99 1348.83,-171.45"/>
<polygon fill="#63b8ff" stroke="#63b8ff" points="1049.16,-210.23 1039.64,-214.89 1049.99,-217.18 1049.16,-210.23"/>
</g>
<!-- Node2&#45;&gt;Node23 -->
<g id="edge32" class="edge">
<title>Node2&#45;&gt;Node23</title>
<path fill="none" stroke="#63b8ff" d="M1049.78,-217.63C1150.43,-210.34 1327.53,-195.6 1478,-173 1480.9,-172.56 1483.86,-172.09 1486.85,-171.58"/>
<polygon fill="#63b8ff" stroke="#63b8ff" points="1049.4,-214.15 1039.68,-218.35 1049.9,-221.13 1049.4,-214.15"/>
</g>
<!-- Node24 -->
<g id="node24" class="node">
<title>Node24</title>
<g id="a_node24"><a xlink:href="test___utils_8cpp.html" target="_top" xlink:title=" ">
<polygon fill="white" stroke="#666666" points="725,-173 591,-173 591,-143 725,-143 725,-173"/>
<text text-anchor="start" x="599" y="-161" font-family="Helvetica,sans-Serif" font-size="10.00">firmware/wombat/test</text>
<text text-anchor="middle" x="658" y="-150" font-family="Helvetica,sans-Serif" font-size="10.00">/test_utils/test_Utils.cpp</text>
</a>
</g>
</g>
<!-- Node2&#45;&gt;Node24 -->
<g id="edge33" class="edge">
<title>Node2&#45;&gt;Node24</title>
<path fill="none" stroke="#63b8ff" d="M890.74,-206.9C839.66,-196.38 773.68,-182.81 725.02,-172.79"/>
<polygon fill="#63b8ff" stroke="#63b8ff" points="890.25,-210.37 900.75,-208.95 891.66,-203.51 890.25,-210.37"/>
</g>
<!-- Node3&#45;&gt;Node3 -->
<g id="edge15" class="edge">
<title>Node3&#45;&gt;Node3</title>
<path fill="none" stroke="#63b8ff" d="M894.7,-166.57C899.57,-164.53 902.5,-161.67 902.5,-158 902.5,-152.26 895.37,-148.52 884.83,-146.77"/>
<polygon fill="#63b8ff" stroke="#63b8ff" points="893.57,-163.25 884.83,-169.23 895.39,-170.01 893.57,-163.25"/>
</g>
<!-- Node4 -->
<g id="node4" class="node">
<title>Node4</title>
<g id="a_node4"><a xlink:href="_c_l_i_8h.html" target="_top" xlink:title="FreeRTOS CLI handler.">
<polygon fill="white" stroke="#666666" points="770.5,-107 629.5,-107 629.5,-77 770.5,-77 770.5,-107"/>
<text text-anchor="start" x="637.5" y="-95" font-family="Helvetica,sans-Serif" font-size="10.00">firmware/wombat/include</text>
<text text-anchor="middle" x="700" y="-84" font-family="Helvetica,sans-Serif" font-size="10.00">/cli/CLI.h</text>
</a>
</g>
</g>
<!-- Node3&#45;&gt;Node4 -->
<g id="edge3" class="edge">
<title>Node3&#45;&gt;Node4</title>
<path fill="none" stroke="#63b8ff" d="M780.1,-137.97C762.4,-128.03 741.13,-116.09 724.96,-107.01"/>
<polygon fill="#63b8ff" stroke="#63b8ff" points="778.55,-141.11 788.98,-142.95 781.98,-135.01 778.55,-141.11"/>
</g>
<!-- Node13 -->
<g id="node13" class="node">
<title>Node13</title>
<g id="a_node13"><a xlink:href="sdi12_8cpp.html" target="_top" xlink:title="SDI&#45;12 command line interface handler.">
<polygon fill="white" stroke="#666666" points="452,-35.5 314,-35.5 314,-5.5 452,-5.5 452,-35.5"/>
<text text-anchor="start" x="322" y="-23.5" font-family="Helvetica,sans-Serif" font-size="10.00">firmware/wombat/src</text>
<text text-anchor="middle" x="383" y="-12.5" font-family="Helvetica,sans-Serif" font-size="10.00">/cli/peripherals/sdi12.cpp</text>
</a>
</g>
</g>
<!-- Node3&#45;&gt;Node13 -->
<g id="edge16" class="edge">
<title>Node3&#45;&gt;Node13</title>
<path fill="none" stroke="#63b8ff" d="M739.8,-140.75C694.55,-130.28 641.42,-116.84 620,-107 598.83,-97.27 598.04,-87.01 577,-77 552.72,-65.45 487.81,-47.8 439.72,-35.51"/>
<polygon fill="#63b8ff" stroke="#63b8ff" points="739.09,-144.17 749.62,-143 740.66,-137.35 739.09,-144.17"/>
</g>
<!-- Node5 -->
<g id="node5" class="node">
<title>Node5</title>
<g id="a_node5"><a xlink:href="_c_l_i_8cpp.html" target="_top" xlink:title="FreeRTOS CLI handler.">
<polygon fill="white" stroke="#666666" points="874,-35.5 754,-35.5 754,-5.5 874,-5.5 874,-35.5"/>
<text text-anchor="start" x="762" y="-23.5" font-family="Helvetica,sans-Serif" font-size="10.00">firmware/wombat/src</text>
<text text-anchor="middle" x="814" y="-12.5" font-family="Helvetica,sans-Serif" font-size="10.00">/cli/CLI.cpp</text>
</a>
</g>
</g>
<!-- Node4&#45;&gt;Node5 -->
<g id="edge4" class="edge">
<title>Node4&#45;&gt;Node5</title>
<path fill="none" stroke="#63b8ff" d="M731.62,-71.72C750.44,-60.25 773.9,-45.95 790.96,-35.54"/>
<polygon fill="#63b8ff" stroke="#63b8ff" points="729.79,-68.74 723.07,-76.94 733.43,-74.72 729.79,-68.74"/>
</g>
<!-- Node4&#45;&gt;Node6 -->
<g id="edge5" class="edge">
<title>Node4&#45;&gt;Node6</title>
<path fill="none" stroke="#63b8ff" d="M619.1,-81.65C521.59,-70.23 363.54,-51.17 305,-41 301.92,-40.46 298.78,-39.89 295.61,-39.3"/>
<polygon fill="#63b8ff" stroke="#63b8ff" points="618.88,-85.15 629.22,-82.84 619.69,-78.2 618.88,-85.15"/>
</g>
<!-- Node7 -->
<g id="node7" class="node">
<title>Node7</title>
<g id="a_node7"><a xlink:href="cli__power_8cpp.html" target="_top" xlink:title="Power related commands.">
<polygon fill="white" stroke="#666666" points="590,-41 470,-41 470,0 590,0 590,-41"/>
<text text-anchor="start" x="478" y="-29" font-family="Helvetica,sans-Serif" font-size="10.00">firmware/wombat/src</text>
<text text-anchor="start" x="478" y="-18" font-family="Helvetica,sans-Serif" font-size="10.00">/cli/device_config/cli</text>
<text text-anchor="middle" x="530" y="-7" font-family="Helvetica,sans-Serif" font-size="10.00">_power.cpp</text>
</a>
</g>
</g>
<!-- Node4&#45;&gt;Node7 -->
<g id="edge6" class="edge">
<title>Node4&#45;&gt;Node7</title>
<path fill="none" stroke="#63b8ff" d="M656.05,-73.03C632.1,-63.24 602.42,-51.11 577.88,-41.07"/>
<polygon fill="#63b8ff" stroke="#63b8ff" points="655.02,-76.39 665.6,-76.94 657.67,-69.91 655.02,-76.39"/>
</g>
<!-- Node4&#45;&gt;Node8 -->
<g id="edge7" class="edge">
<title>Node4&#45;&gt;Node8</title>
<path fill="none" stroke="#63b8ff" d="M762.14,-74.32C801.45,-63.78 852.22,-50.15 892.36,-39.38"/>
<polygon fill="#63b8ff" stroke="#63b8ff" points="761.16,-70.96 752.41,-76.94 762.98,-77.72 761.16,-70.96"/>
</g>
<!-- Node9 -->
<g id="node9" class="node">
<title>Node9</title>
<g id="a_node9"><a xlink:href="ftp__cli_8cpp.html" target="_top" xlink:title="FTP setup and configuration through the CLI.">
<polygon fill="white" stroke="#666666" points="1164,-41 1044,-41 1044,0 1164,0 1164,-41"/>
<text text-anchor="start" x="1052" y="-29" font-family="Helvetica,sans-Serif" font-size="10.00">firmware/wombat/src</text>
<text text-anchor="start" x="1052" y="-18" font-family="Helvetica,sans-Serif" font-size="10.00">/cli/device_config/ftp</text>
<text text-anchor="middle" x="1104" y="-7" font-family="Helvetica,sans-Serif" font-size="10.00">_cli.cpp</text>
</a>
</g>
</g>
<!-- Node4&#45;&gt;Node9 -->
<g id="edge8" class="edge">
<title>Node4&#45;&gt;Node9</title>
<path fill="none" stroke="#63b8ff" d="M780.71,-81.75C848.67,-73.28 948.23,-59.29 1034,-41 1037.21,-40.32 1040.49,-39.57 1043.79,-38.78"/>
<polygon fill="#63b8ff" stroke="#63b8ff" points="780,-78.31 770.5,-83.01 780.86,-85.25 780,-78.31"/>
</g>
<!-- Node10 -->
<g id="node10" class="node">
<title>Node10</title>
<g id="a_node10"><a xlink:href="mqtt__cli_8cpp.html" target="_top" xlink:title="MQTT setup and configuration through the CLI.">
<polygon fill="white" stroke="#666666" points="735.5,-41 608.5,-41 608.5,0 735.5,0 735.5,-41"/>
<text text-anchor="start" x="616.5" y="-29" font-family="Helvetica,sans-Serif" font-size="10.00">firmware/wombat/src</text>
<text text-anchor="start" x="616.5" y="-18" font-family="Helvetica,sans-Serif" font-size="10.00">/cli/device_config/mqtt</text>
<text text-anchor="middle" x="672" y="-7" font-family="Helvetica,sans-Serif" font-size="10.00">_cli.cpp</text>
</a>
</g>
</g>
<!-- Node4&#45;&gt;Node10 -->
<g id="edge9" class="edge">
<title>Node4&#45;&gt;Node10</title>
<path fill="none" stroke="#63b8ff" d="M690.52,-67.47C687.06,-58.89 683.19,-49.28 679.89,-41.07"/>
<polygon fill="#63b8ff" stroke="#63b8ff" points="687.35,-68.97 694.33,-76.94 693.84,-66.35 687.35,-68.97"/>
</g>
<!-- Node4&#45;&gt;Node11 -->
<g id="edge10" class="edge">
<title>Node4&#45;&gt;Node11</title>
<path fill="none" stroke="#63b8ff" d="M780.99,-86.55C961.2,-76.52 1384.59,-52.12 1449,-41 1451.94,-40.49 1454.94,-39.91 1457.96,-39.27"/>
<polygon fill="#63b8ff" stroke="#63b8ff" points="780.56,-83.07 770.77,-87.12 780.95,-90.06 780.56,-83.07"/>
</g>
<!-- Node4&#45;&gt;Node12 -->
<g id="edge11" class="edge">
<title>Node4&#45;&gt;Node12</title>
<path fill="none" stroke="#63b8ff" d="M781.06,-86.32C923.14,-77.8 1211.5,-58.96 1311,-41 1313.94,-40.47 1316.94,-39.87 1319.95,-39.21"/>
<polygon fill="#63b8ff" stroke="#63b8ff" points="780.45,-82.85 770.68,-86.94 780.87,-89.84 780.45,-82.85"/>
</g>
<!-- Node4&#45;&gt;Node13 -->
<g id="edge12" class="edge">
<title>Node4&#45;&gt;Node13</title>
<path fill="none" stroke="#63b8ff" d="M619.26,-74.92C572.86,-65.48 513.54,-53.06 461,-41 453.52,-39.28 445.65,-37.4 437.91,-35.51"/>
<polygon fill="#63b8ff" stroke="#63b8ff" points="618.76,-78.39 629.25,-76.95 620.15,-71.53 618.76,-78.39"/>
</g>
<!-- Node4&#45;&gt;Node14 -->
<g id="edge13" class="edge">
<title>Node4&#45;&gt;Node14</title>
<path fill="none" stroke="#63b8ff" d="M780.75,-86.66C875.41,-80.6 1036.68,-67.27 1173,-41 1180.7,-39.52 1188.79,-37.58 1196.61,-35.51"/>
<polygon fill="#63b8ff" stroke="#63b8ff" points="780.43,-83.17 770.67,-87.29 780.87,-90.16 780.43,-83.17"/>
</g>
<!-- Node4&#45;&gt;Node15 -->
<g id="edge14" class="edge">
<title>Node4&#45;&gt;Node15</title>
<path fill="none" stroke="#63b8ff" d="M618.96,-88.69C507.7,-84.44 301.75,-72.68 129,-41 121.16,-39.56 112.93,-37.63 105,-35.53"/>
<polygon fill="#63b8ff" stroke="#63b8ff" points="618.98,-92.2 629.1,-89.07 619.24,-85.2 618.98,-92.2"/>
</g>
<!-- Node16&#45;&gt;Node8 -->
<g id="edge18" class="edge">
<title>Node16&#45;&gt;Node8</title>
<path fill="none" stroke="#63b8ff" d="M1008.23,-69.69C998.91,-60.57 988.11,-49.99 979,-41.07"/>
<polygon fill="#63b8ff" stroke="#63b8ff" points="1006.04,-72.44 1015.63,-76.94 1010.93,-67.44 1006.04,-72.44"/>
</g>
<!-- Node16&#45;&gt;Node9 -->
<g id="edge19" class="edge">
<title>Node16&#45;&gt;Node9</title>
<path fill="none" stroke="#63b8ff" d="M1052.4,-69.96C1062.18,-60.78 1073.57,-50.08 1083.16,-41.07"/>
<polygon fill="#63b8ff" stroke="#63b8ff" points="1049.87,-67.54 1044.98,-76.94 1054.66,-72.64 1049.87,-67.54"/>
</g>
<!-- Node16&#45;&gt;Node14 -->
<g id="edge20" class="edge">
<title>Node16&#45;&gt;Node14</title>
<path fill="none" stroke="#63b8ff" d="M1082.72,-73.72C1118.63,-61.95 1165.56,-46.56 1199.16,-35.54"/>
<polygon fill="#63b8ff" stroke="#63b8ff" points="1081.31,-70.49 1072.9,-76.94 1083.49,-77.15 1081.31,-70.49"/>
</g>
<!-- Node16&#45;&gt;Node17 -->
<g id="edge21" class="edge">
<title>Node16&#45;&gt;Node17</title>
<path fill="none" stroke="#63b8ff" d="M1110.75,-85.71C1219.29,-78.15 1418.15,-62.74 1587,-41 1605.23,-38.65 1624.98,-35.55 1642.92,-32.5"/>
<polygon fill="#63b8ff" stroke="#63b8ff" points="1110.27,-82.24 1100.53,-86.42 1110.75,-89.22 1110.27,-82.24"/>
</g>
</g>
</svg>
