<?xml version="1.0" encoding="UTF-8" standalone="no"?>
<!DOCTYPE svg PUBLIC "-//W3C//DTD SVG 1.1//EN"
 "http://www.w3.org/Graphics/SVG/1.1/DTD/svg11.dtd">
<!-- Generated by graphviz version 2.43.0 (0)
 -->
<!-- Title: firmware/wombat/include/globals.h Pages: 1 -->
<svg width="264pt" height="214pt"
 viewBox="0.00 0.00 263.50 214.00" xmlns="http://www.w3.org/2000/svg" xmlns:xlink="http://www.w3.org/1999/xlink">
<g id="graph0" class="graph" transform="scale(1 1) rotate(0) translate(4 210)">
<title>firmware/wombat/include/globals.h</title>
<!-- Node1 -->
<g id="node1" class="node">
<title>Node1</title>
<g id="a_node1"><a xlink:title=" ">
<polygon fill="#999999" stroke="#666666" points="193.5,-206 52.5,-206 52.5,-176 193.5,-176 193.5,-206"/>
<text text-anchor="start" x="60.5" y="-194" font-family="Helvetica,sans-Serif" font-size="10.00">firmware/wombat/include</text>
<text text-anchor="middle" x="123" y="-183" font-family="Helvetica,sans-Serif" font-size="10.00">/globals.h</text>
</a>
</g>
</g>
<!-- Node2 -->
<g id="node2" class="node">
<title>Node2</title>
<g id="a_node2"><a xlink:title=" ">
<polygon fill="#e0e0e0" stroke="#999999" points="130,-140 0,-140 0,-110 130,-110 130,-140"/>
<text text-anchor="start" x="8" y="-128" font-family="Helvetica,sans-Serif" font-size="10.00">SparkFun_u&#45;blox_SARA</text>
<text text-anchor="middle" x="65" y="-117" font-family="Helvetica,sans-Serif" font-size="10.00">&#45;R5_Arduino_Library.h</text>
</a>
</g>
</g>
<!-- Node1&#45;&gt;Node2 -->
<g id="edge1" class="edge">
<title>Node1&#45;&gt;Node2</title>
<path fill="none" stroke="#63b8ff" d="M110.13,-175.8C102.62,-167.51 92.99,-156.89 84.56,-147.59"/>
<polygon fill="#63b8ff" stroke="#63b8ff" points="87.14,-145.22 77.84,-140.16 81.96,-149.92 87.14,-145.22"/>
</g>
<!-- Node3 -->
<g id="node3" class="node">
<title>Node3</title>
<g id="a_node3"><a xlink:href="_c_a_t___m1_8h.html" target="_top" xlink:title=" ">
<polygon fill="white" stroke="#666666" points="213.5,-134.5 148.5,-134.5 148.5,-115.5 213.5,-115.5 213.5,-134.5"/>
<text text-anchor="middle" x="181" y="-122.5" font-family="Helvetica,sans-Serif" font-size="10.00">CAT_M1.h</text>
</a>
</g>
</g>
<!-- Node1&#45;&gt;Node3 -->
<g id="edge2" class="edge">
<title>Node1&#45;&gt;Node3</title>
<path fill="none" stroke="#63b8ff" d="M135.87,-175.8C144.83,-165.92 156.79,-152.72 166.14,-142.39"/>
<polygon fill="#63b8ff" stroke="#63b8ff" points="168.86,-144.6 172.98,-134.84 163.68,-139.9 168.86,-144.6"/>
</g>
<!-- Node4 -->
<g id="node4" class="node">
<title>Node4</title>
<g id="a_node4"><a xlink:title=" ">
<polygon fill="#e0e0e0" stroke="#999999" points="174,-19 126,-19 126,0 174,0 174,-19"/>
<text text-anchor="middle" x="150" y="-7" font-family="Helvetica,sans-Serif" font-size="10.00">Wire.h</text>
</a>
</g>
</g>
<!-- Node3&#45;&gt;Node4 -->
<g id="edge3" class="edge">
<title>Node3&#45;&gt;Node4</title>
<path fill="none" stroke="#63b8ff" d="M178.67,-115.47C173.67,-97.15 161.79,-53.68 155,-28.81"/>
<polygon fill="#63b8ff" stroke="#63b8ff" points="158.37,-27.85 152.36,-19.13 151.62,-29.7 158.37,-27.85"/>
</g>
<!-- Node5 -->
<g id="node5" class="node">
<title>Node5</title>
<g id="a_node5"><a xlink:href="_t_c_a9534_8h.html" target="_top" xlink:title=" ">
<polygon fill="white" stroke="#666666" points="246,-74 178,-74 178,-55 246,-55 246,-74"/>
<text text-anchor="middle" x="212" y="-62" font-family="Helvetica,sans-Serif" font-size="10.00">TCA9534.h</text>
</a>
</g>
</g>
<!-- Node3&#45;&gt;Node5 -->
<g id="edge4" class="edge">
<title>Node3&#45;&gt;Node5</title>
<path fill="none" stroke="#63b8ff" d="M185.57,-115.37C190.06,-106.9 197.03,-93.74 202.69,-83.07"/>
<polygon fill="#63b8ff" stroke="#63b8ff" points="205.82,-84.64 207.41,-74.17 199.63,-81.36 205.82,-84.64"/>
</g>
<!-- Node5&#45;&gt;Node4 -->
<g id="edge6" class="edge">
<title>Node5&#45;&gt;Node4</title>
<path fill="none" stroke="#63b8ff" d="M202.04,-54.98C192.87,-47.15 179.06,-35.34 167.97,-25.86"/>
<polygon fill="#63b8ff" stroke="#63b8ff" points="170.02,-23.01 160.14,-19.17 165.47,-28.33 170.02,-23.01"/>
</g>
<!-- Node6 -->
<g id="node6" class="node">
<title>Node6</title>
<g id="a_node6"><a xlink:title=" ">
<polygon fill="#e0e0e0" stroke="#999999" points="255.5,-19 192.5,-19 192.5,0 255.5,0 255.5,-19"/>
<text text-anchor="middle" x="224" y="-7" font-family="Helvetica,sans-Serif" font-size="10.00">Arduino.h</text>
</a>
</g>
</g>
<!-- Node5&#45;&gt;Node6 -->
<g id="edge5" class="edge">
<title>Node5&#45;&gt;Node6</title>
<path fill="none" stroke="#63b8ff" d="M213.98,-54.75C215.57,-47.72 217.86,-37.62 219.85,-28.84"/>
<polygon fill="#63b8ff" stroke="#63b8ff" points="223.26,-29.62 222.06,-19.09 216.43,-28.07 223.26,-29.62"/>
</g>
</g>
</svg>
