<?xml version="1.0" encoding="UTF-8" standalone="no"?>
<!DOCTYPE svg PUBLIC "-//W3C//DTD SVG 1.1//EN"
 "http://www.w3.org/Graphics/SVG/1.1/DTD/svg11.dtd">
<!-- Generated by graphviz version 2.43.0 (0)
 -->
<!-- Title: firmware/wombat/include/globals.h Pages: 1 -->
<svg width="1548pt" height="115pt"
 viewBox="0.00 0.00 1548.00 115.00" xmlns="http://www.w3.org/2000/svg" xmlns:xlink="http://www.w3.org/1999/xlink">
<g id="graph0" class="graph" transform="scale(1 1) rotate(0) translate(4 111)">
<title>firmware/wombat/include/globals.h</title>
<!-- Node1 -->
<g id="node1" class="node">
<title>Node1</title>
<g id="a_node1"><a xlink:title=" ">
<polygon fill="#999999" stroke="#666666" points="858.5,-107 717.5,-107 717.5,-77 858.5,-77 858.5,-107"/>
<text text-anchor="start" x="725.5" y="-95" font-family="Helvetica,sans-Serif" font-size="10.00">firmware/wombat/include</text>
<text text-anchor="middle" x="788" y="-84" font-family="Helvetica,sans-Serif" font-size="10.00">/globals.h</text>
</a>
</g>
</g>
<!-- Node2 -->
<g id="node2" class="node">
<title>Node2</title>
<g id="a_node2"><a xlink:href="_c_a_t___m1_8cpp.html" target="_top" xlink:title=" ">
<polygon fill="white" stroke="#666666" points="120,-35.5 0,-35.5 0,-5.5 120,-5.5 120,-35.5"/>
<text text-anchor="start" x="8" y="-23.5" font-family="Helvetica,sans-Serif" font-size="10.00">firmware/wombat/src</text>
<text text-anchor="middle" x="60" y="-12.5" font-family="Helvetica,sans-Serif" font-size="10.00">/CAT_M1.cpp</text>
</a>
</g>
</g>
<!-- Node1&#45;&gt;Node2 -->
<g id="edge1" class="edge">
<title>Node1&#45;&gt;Node2</title>
<path fill="none" stroke="#63b8ff" d="M706.95,-90.04C581.96,-87.4 335.04,-77.55 129,-41 121.03,-39.59 112.66,-37.63 104.61,-35.51"/>
<polygon fill="#63b8ff" stroke="#63b8ff" points="707.13,-93.55 717.2,-90.25 707.27,-86.55 707.13,-93.55"/>
</g>
<!-- Node3 -->
<g id="node3" class="node">
<title>Node3</title>
<g id="a_node3"><a xlink:href="_sensor_task_8cpp.html" target="_top" xlink:title=" ">
<polygon fill="white" stroke="#666666" points="258,-35.5 138,-35.5 138,-5.5 258,-5.5 258,-35.5"/>
<text text-anchor="start" x="146" y="-23.5" font-family="Helvetica,sans-Serif" font-size="10.00">firmware/wombat/src</text>
<text text-anchor="middle" x="198" y="-12.5" font-family="Helvetica,sans-Serif" font-size="10.00">/SensorTask.cpp</text>
</a>
</g>
</g>
<!-- Node1&#45;&gt;Node3 -->
<g id="edge2" class="edge">
<title>Node1&#45;&gt;Node3</title>
<path fill="none" stroke="#63b8ff" d="M707.49,-87.76C604.58,-82.6 421.28,-69.96 267,-41 259.29,-39.55 251.2,-37.64 243.38,-35.57"/>
<polygon fill="#63b8ff" stroke="#63b8ff" points="707.33,-91.26 717.49,-88.25 707.68,-84.27 707.33,-91.26"/>
</g>
<!-- Node4 -->
<g id="node4" class="node">
<title>Node4</title>
<g id="a_node4"><a xlink:href="_utils_8cpp.html" target="_top" xlink:title="Global utility functions.">
<polygon fill="white" stroke="#666666" points="396,-35.5 276,-35.5 276,-5.5 396,-5.5 396,-35.5"/>
<text text-anchor="start" x="284" y="-23.5" font-family="Helvetica,sans-Serif" font-size="10.00">firmware/wombat/src</text>
<text text-anchor="middle" x="336" y="-12.5" font-family="Helvetica,sans-Serif" font-size="10.00">/Utils.cpp</text>
</a>
</g>
</g>
<!-- Node1&#45;&gt;Node4 -->
<g id="edge3" class="edge">
<title>Node1&#45;&gt;Node4</title>
<path fill="none" stroke="#63b8ff" d="M707.02,-83.88C629.11,-76.23 508.25,-62.21 405,-41 397.56,-39.47 389.75,-37.56 382.17,-35.55"/>
<polygon fill="#63b8ff" stroke="#63b8ff" points="706.96,-87.39 717.25,-84.88 707.63,-80.43 706.96,-87.39"/>
</g>
<!-- Node5 -->
<g id="node5" class="node">
<title>Node5</title>
<g id="a_node5"><a xlink:href="acquisition__intervals_8cpp.html" target="_top" xlink:title="Handles the time between measurements and uplinks by the device over LTE.">
<polygon fill="white" stroke="#666666" points="571.5,-41 414.5,-41 414.5,0 571.5,0 571.5,-41"/>
<text text-anchor="start" x="422.5" y="-29" font-family="Helvetica,sans-Serif" font-size="10.00">firmware/wombat/src</text>
<text text-anchor="start" x="422.5" y="-18" font-family="Helvetica,sans-Serif" font-size="10.00">/cli/device_config/acquisition</text>
<text text-anchor="middle" x="493" y="-7" font-family="Helvetica,sans-Serif" font-size="10.00">_intervals.cpp</text>
</a>
</g>
</g>
<!-- Node1&#45;&gt;Node5 -->
<g id="edge4" class="edge">
<title>Node1&#45;&gt;Node5</title>
<path fill="none" stroke="#63b8ff" d="M718.54,-74.64C674.48,-64.26 617.37,-50.8 571.64,-40.03"/>
<polygon fill="#63b8ff" stroke="#63b8ff" points="717.77,-78.05 728.3,-76.94 719.37,-71.24 717.77,-78.05"/>
</g>
<!-- Node6 -->
<g id="node6" class="node">
<title>Node6</title>
<g id="a_node6"><a xlink:href="cli__power_8cpp.html" target="_top" xlink:title="Power related commands.">
<polygon fill="white" stroke="#666666" points="710,-41 590,-41 590,0 710,0 710,-41"/>
<text text-anchor="start" x="598" y="-29" font-family="Helvetica,sans-Serif" font-size="10.00">firmware/wombat/src</text>
<text text-anchor="start" x="598" y="-18" font-family="Helvetica,sans-Serif" font-size="10.00">/cli/device_config/cli</text>
<text text-anchor="middle" x="650" y="-7" font-family="Helvetica,sans-Serif" font-size="10.00">_power.cpp</text>
</a>
</g>
</g>
<!-- Node1&#45;&gt;Node6 -->
<g id="edge5" class="edge">
<title>Node1&#45;&gt;Node6</title>
<path fill="none" stroke="#63b8ff" d="M751.02,-72.38C731.81,-62.7 708.34,-50.88 688.87,-41.07"/>
<polygon fill="#63b8ff" stroke="#63b8ff" points="749.57,-75.56 760.07,-76.94 752.72,-69.31 749.57,-75.56"/>
</g>
<!-- Node7 -->
<g id="node7" class="node">
<title>Node7</title>
<g id="a_node7"><a xlink:href="cat-m1_8cpp.html" target="_top" xlink:title="CAT&#45;M1 CLI command request and response handler.">
<polygon fill="white" stroke="#666666" points="848,-41 728,-41 728,0 848,0 848,-41"/>
<text text-anchor="start" x="736" y="-29" font-family="Helvetica,sans-Serif" font-size="10.00">firmware/wombat/src</text>
<text text-anchor="start" x="736" y="-18" font-family="Helvetica,sans-Serif" font-size="10.00">/cli/peripherals/cat</text>
<text text-anchor="middle" x="788" y="-7" font-family="Helvetica,sans-Serif" font-size="10.00">&#45;m1.cpp</text>
</a>
</g>
</g>
<!-- Node1&#45;&gt;Node7 -->
<g id="edge6" class="edge">
<title>Node1&#45;&gt;Node7</title>
<path fill="none" stroke="#63b8ff" d="M788,-66.91C788,-58.47 788,-49.1 788,-41.07"/>
<polygon fill="#63b8ff" stroke="#63b8ff" points="784.5,-66.94 788,-76.94 791.5,-66.94 784.5,-66.94"/>
</g>
<!-- Node8 -->
<g id="node8" class="node">
<title>Node8</title>
<g id="a_node8"><a xlink:href="sd__card_8cpp.html" target="_top" xlink:title=" ">
<polygon fill="white" stroke="#666666" points="986,-41 866,-41 866,0 986,0 986,-41"/>
<text text-anchor="start" x="874" y="-29" font-family="Helvetica,sans-Serif" font-size="10.00">firmware/wombat/src</text>
<text text-anchor="start" x="874" y="-18" font-family="Helvetica,sans-Serif" font-size="10.00">/cli/peripherals/sd</text>
<text text-anchor="middle" x="926" y="-7" font-family="Helvetica,sans-Serif" font-size="10.00">_card.cpp</text>
</a>
</g>
</g>
<!-- Node1&#45;&gt;Node8 -->
<g id="edge7" class="edge">
<title>Node1&#45;&gt;Node8</title>
<path fill="none" stroke="#63b8ff" d="M824.98,-72.38C844.19,-62.7 867.66,-50.88 887.13,-41.07"/>
<polygon fill="#63b8ff" stroke="#63b8ff" points="823.28,-69.31 815.93,-76.94 826.43,-75.56 823.28,-69.31"/>
</g>
<!-- Node9 -->
<g id="node9" class="node">
<title>Node9</title>
<g id="a_node9"><a xlink:href="main_8cpp.html" target="_top" xlink:title=" ">
<polygon fill="white" stroke="#666666" points="1124,-35.5 1004,-35.5 1004,-5.5 1124,-5.5 1124,-35.5"/>
<text text-anchor="start" x="1012" y="-23.5" font-family="Helvetica,sans-Serif" font-size="10.00">firmware/wombat/src</text>
<text text-anchor="middle" x="1064" y="-12.5" font-family="Helvetica,sans-Serif" font-size="10.00">/main.cpp</text>
</a>
</g>
</g>
<!-- Node1&#45;&gt;Node9 -->
<g id="edge8" class="edge">
<title>Node1&#45;&gt;Node9</title>
<path fill="none" stroke="#63b8ff" d="M858.78,-74.61C898.85,-65.16 949.83,-52.83 995,-41 1001.5,-39.3 1008.33,-37.44 1015.06,-35.58"/>
<polygon fill="#63b8ff" stroke="#63b8ff" points="857.77,-71.26 848.84,-76.95 859.38,-78.07 857.77,-71.26"/>
</g>
<!-- Node10 -->
<g id="node10" class="node">
<title>Node10</title>
<g id="a_node10"><a xlink:href="mqtt__stack_8cpp.html" target="_top" xlink:title=" ">
<polygon fill="white" stroke="#666666" points="1262,-35.5 1142,-35.5 1142,-5.5 1262,-5.5 1262,-35.5"/>
<text text-anchor="start" x="1150" y="-23.5" font-family="Helvetica,sans-Serif" font-size="10.00">firmware/wombat/src</text>
<text text-anchor="middle" x="1202" y="-12.5" font-family="Helvetica,sans-Serif" font-size="10.00">/mqtt_stack.cpp</text>
</a>
</g>
</g>
<!-- Node1&#45;&gt;Node10 -->
<g id="edge9" class="edge">
<title>Node1&#45;&gt;Node10</title>
<path fill="none" stroke="#63b8ff" d="M868.63,-82.36C938.89,-74.1 1043.29,-60.09 1133,-41 1140.31,-39.45 1147.98,-37.55 1155.44,-35.55"/>
<polygon fill="#63b8ff" stroke="#63b8ff" points="868.05,-78.9 858.52,-83.53 868.86,-85.85 868.05,-78.9"/>
</g>
<!-- Node11 -->
<g id="node11" class="node">
<title>Node11</title>
<g id="a_node11"><a xlink:href="interface_8cpp.html" target="_top" xlink:title=" ">
<polygon fill="white" stroke="#666666" points="1402,-35.5 1280,-35.5 1280,-5.5 1402,-5.5 1402,-35.5"/>
<text text-anchor="start" x="1288" y="-23.5" font-family="Helvetica,sans-Serif" font-size="10.00">firmware/wombat/src</text>
<text text-anchor="middle" x="1341" y="-12.5" font-family="Helvetica,sans-Serif" font-size="10.00">/sd&#45;card/interface.cpp</text>
</a>
</g>
</g>
<!-- Node1&#45;&gt;Node11 -->
<g id="edge10" class="edge">
<title>Node1&#45;&gt;Node11</title>
<path fill="none" stroke="#63b8ff" d="M868.78,-86.81C965.19,-80.85 1130.95,-67.56 1271,-41 1278.81,-39.52 1287.01,-37.59 1294.95,-35.51"/>
<polygon fill="#63b8ff" stroke="#63b8ff" points="868.3,-83.33 858.53,-87.43 868.72,-90.32 868.3,-83.33"/>
</g>
<!-- Node12 -->
<g id="node12" class="node">
<title>Node12</title>
<g id="a_node12"><a xlink:href="uplinks_8cpp.html" target="_top" xlink:title=" ">
<polygon fill="white" stroke="#666666" points="1540,-35.5 1420,-35.5 1420,-5.5 1540,-5.5 1540,-35.5"/>
<text text-anchor="start" x="1428" y="-23.5" font-family="Helvetica,sans-Serif" font-size="10.00">firmware/wombat/src</text>
<text text-anchor="middle" x="1480" y="-12.5" font-family="Helvetica,sans-Serif" font-size="10.00">/uplinks.cpp</text>
</a>
</g>
</g>
<!-- Node1&#45;&gt;Node12 -->
<g id="edge11" class="edge">
<title>Node1&#45;&gt;Node12</title>
<path fill="none" stroke="#63b8ff" d="M868.8,-89.54C988.23,-86.25 1218.5,-75.58 1411,-41 1418.84,-39.59 1427.07,-37.67 1435.01,-35.58"/>
<polygon fill="#63b8ff" stroke="#63b8ff" points="868.55,-86.05 858.65,-89.81 868.74,-93.04 868.55,-86.05"/>
</g>
</g>
</svg>
