<?xml version="1.0" encoding="UTF-8" standalone="no"?>
<!DOCTYPE svg PUBLIC "-//W3C//DTD SVG 1.1//EN"
 "http://www.w3.org/Graphics/SVG/1.1/DTD/svg11.dtd">
<!-- Generated by graphviz version 2.43.0 (0)
 -->
<!-- Title: firmware/wombat/include/globals.h Pages: 1 -->
<svg width="2034pt" height="335pt"
 viewBox="0.00 0.00 2034.00 335.00" xmlns="http://www.w3.org/2000/svg" xmlns:xlink="http://www.w3.org/1999/xlink">
<g id="graph0" class="graph" transform="scale(1 1) rotate(0) translate(4 331)">
<title>firmware/wombat/include/globals.h</title>
<!-- Node1 -->
<g id="node1" class="node">
<title>Node1</title>
<g id="a_node1"><a xlink:title=" ">
<polygon fill="#999999" stroke="#666666" points="1330.5,-327 1189.5,-327 1189.5,-297 1330.5,-297 1330.5,-327"/>
<text text-anchor="start" x="1197.5" y="-315" font-family="Helvetica,sans-Serif" font-size="10.00">firmware/wombat/include</text>
<text text-anchor="middle" x="1260" y="-304" font-family="Helvetica,sans-Serif" font-size="10.00">/globals.h</text>
</a>
</g>
</g>
<!-- Node2 -->
<g id="node2" class="node">
<title>Node2</title>
<g id="a_node2"><a xlink:href="_utils_8h.html" target="_top" xlink:title=" ">
<polygon fill="white" stroke="#666666" points="966.5,-261 825.5,-261 825.5,-231 966.5,-231 966.5,-261"/>
<text text-anchor="start" x="833.5" y="-249" font-family="Helvetica,sans-Serif" font-size="10.00">firmware/wombat/include</text>
<text text-anchor="middle" x="896" y="-238" font-family="Helvetica,sans-Serif" font-size="10.00">/Utils.h</text>
</a>
</g>
</g>
<!-- Node1&#45;&gt;Node2 -->
<g id="edge1" class="edge">
<title>Node1&#45;&gt;Node2</title>
<path fill="none" stroke="#63b8ff" d="M1179.38,-296.83C1115.7,-285.63 1027.7,-270.16 966.73,-259.44"/>
<polygon fill="#63b8ff" stroke="#63b8ff" points="1178.93,-300.3 1189.39,-298.58 1180.14,-293.41 1178.93,-300.3"/>
</g>
<!-- Node6 -->
<g id="node6" class="node">
<title>Node6</title>
<g id="a_node6"><a xlink:href="cat-m1_8cpp.html" target="_top" xlink:title="CAT&#45;M1 CLI command request and response handler.">
<polygon fill="white" stroke="#666666" points="604,-41 484,-41 484,0 604,0 604,-41"/>
<text text-anchor="start" x="492" y="-29" font-family="Helvetica,sans-Serif" font-size="10.00">firmware/wombat/src</text>
<text text-anchor="start" x="492" y="-18" font-family="Helvetica,sans-Serif" font-size="10.00">/cli/peripherals/cat</text>
<text text-anchor="middle" x="544" y="-7" font-family="Helvetica,sans-Serif" font-size="10.00">&#45;m1.cpp</text>
</a>
</g>
</g>
<!-- Node1&#45;&gt;Node6 -->
<g id="edge35" class="edge">
<title>Node1&#45;&gt;Node6</title>
<path fill="none" stroke="#63b8ff" d="M1179.03,-309.21C931.85,-302.88 199.94,-277.27 136,-195 124.82,-180.61 125.29,-168.74 136,-154 177.43,-96.99 380.58,-51.86 483.7,-32.2"/>
<polygon fill="#63b8ff" stroke="#63b8ff" points="1179.29,-312.72 1189.38,-309.47 1179.47,-305.72 1179.29,-312.72"/>
</g>
<!-- Node7 -->
<g id="node7" class="node">
<title>Node7</title>
<g id="a_node7"><a xlink:href="sd__card_8cpp.html" target="_top" xlink:title=" ">
<polygon fill="white" stroke="#666666" points="350,-41 230,-41 230,0 350,0 350,-41"/>
<text text-anchor="start" x="238" y="-29" font-family="Helvetica,sans-Serif" font-size="10.00">firmware/wombat/src</text>
<text text-anchor="start" x="238" y="-18" font-family="Helvetica,sans-Serif" font-size="10.00">/cli/peripherals/sd</text>
<text text-anchor="middle" x="290" y="-7" font-family="Helvetica,sans-Serif" font-size="10.00">_card.cpp</text>
</a>
</g>
</g>
<!-- Node1&#45;&gt;Node7 -->
<g id="edge36" class="edge">
<title>Node1&#45;&gt;Node7</title>
<path fill="none" stroke="#63b8ff" d="M1178.99,-309.63C950.35,-305.41 310.77,-291.02 221,-261 160.13,-240.64 103.64,-214.87 124,-154 137.59,-113.37 149.23,-104.6 182,-77 199.33,-62.4 221.15,-50.28 240.64,-41.12"/>
<polygon fill="#63b8ff" stroke="#63b8ff" points="1179.18,-313.13 1189.24,-309.82 1179.31,-306.13 1179.18,-313.13"/>
</g>
<!-- Node9 -->
<g id="node9" class="node">
<title>Node9</title>
<g id="a_node9"><a xlink:href="main_8cpp.html" target="_top" xlink:title=" ">
<polygon fill="white" stroke="#666666" points="1085,-35.5 965,-35.5 965,-5.5 1085,-5.5 1085,-35.5"/>
<text text-anchor="start" x="973" y="-23.5" font-family="Helvetica,sans-Serif" font-size="10.00">firmware/wombat/src</text>
<text text-anchor="middle" x="1025" y="-12.5" font-family="Helvetica,sans-Serif" font-size="10.00">/main.cpp</text>
</a>
</g>
</g>
<!-- Node1&#45;&gt;Node9 -->
<g id="edge38" class="edge">
<title>Node1&#45;&gt;Node9</title>
<path fill="none" stroke="#63b8ff" d="M1340.77,-309C1486.26,-304.63 1780.53,-292.04 1815,-261 1850.6,-228.94 1855.31,-193.36 1828,-154 1743.43,-32.1 1257.26,-21.03 1085.27,-20.99"/>
<polygon fill="#63b8ff" stroke="#63b8ff" points="1340.45,-305.51 1330.55,-309.3 1340.65,-312.5 1340.45,-305.51"/>
</g>
<!-- Node10 -->
<g id="node10" class="node">
<title>Node10</title>
<g id="a_node10"><a xlink:href="mqtt__stack_8cpp.html" target="_top" xlink:title=" ">
<polygon fill="white" stroke="#666666" points="120,-35.5 0,-35.5 0,-5.5 120,-5.5 120,-35.5"/>
<text text-anchor="start" x="8" y="-23.5" font-family="Helvetica,sans-Serif" font-size="10.00">firmware/wombat/src</text>
<text text-anchor="middle" x="60" y="-12.5" font-family="Helvetica,sans-Serif" font-size="10.00">/mqtt_stack.cpp</text>
</a>
</g>
</g>
<!-- Node1&#45;&gt;Node10 -->
<g id="edge39" class="edge">
<title>Node1&#45;&gt;Node10</title>
<path fill="none" stroke="#63b8ff" d="M1179.1,-309.57C930.71,-304.88 193.17,-288.68 150,-261 70.72,-210.18 61.03,-79.28 60.04,-35.79"/>
<polygon fill="#63b8ff" stroke="#63b8ff" points="1179.08,-313.07 1189.15,-309.76 1179.21,-306.07 1179.08,-313.07"/>
</g>
<!-- Node12 -->
<g id="node12" class="node">
<title>Node12</title>
<g id="a_node12"><a xlink:href="config__cli_8cpp.html" target="_top" xlink:title="Command line interface node configuration commands.">
<polygon fill="white" stroke="#666666" points="1238.5,-118 1105.5,-118 1105.5,-77 1238.5,-77 1238.5,-118"/>
<text text-anchor="start" x="1113.5" y="-106" font-family="Helvetica,sans-Serif" font-size="10.00">firmware/wombat/src</text>
<text text-anchor="start" x="1113.5" y="-95" font-family="Helvetica,sans-Serif" font-size="10.00">/cli/device_config/config</text>
<text text-anchor="middle" x="1172" y="-84" font-family="Helvetica,sans-Serif" font-size="10.00">_cli.cpp</text>
</a>
</g>
</g>
<!-- Node1&#45;&gt;Node12 -->
<g id="edge34" class="edge">
<title>Node1&#45;&gt;Node12</title>
<path fill="none" stroke="#63b8ff" d="M1340.84,-311.79C1516.77,-310.96 1908.71,-293.88 1781,-154 1762.89,-134.17 1392.83,-111.01 1238.59,-102.17"/>
<polygon fill="#63b8ff" stroke="#63b8ff" points="1340.58,-308.29 1330.59,-311.82 1340.6,-315.29 1340.58,-308.29"/>
</g>
<!-- Node14 -->
<g id="node14" class="node">
<title>Node14</title>
<g id="a_node14"><a xlink:href="ota__update_8cpp.html" target="_top" xlink:title=" ">
<polygon fill="white" stroke="#666666" points="1613,-112.5 1493,-112.5 1493,-82.5 1613,-82.5 1613,-112.5"/>
<text text-anchor="start" x="1501" y="-100.5" font-family="Helvetica,sans-Serif" font-size="10.00">firmware/wombat/src</text>
<text text-anchor="middle" x="1553" y="-89.5" font-family="Helvetica,sans-Serif" font-size="10.00">/ota_update.cpp</text>
</a>
</g>
</g>
<!-- Node1&#45;&gt;Node14 -->
<g id="edge40" class="edge">
<title>Node1&#45;&gt;Node14</title>
<path fill="none" stroke="#63b8ff" d="M1340.99,-308.41C1480.78,-303.19 1755.69,-289.43 1789,-261 1825.63,-229.74 1836.18,-191.52 1806,-154 1782.25,-124.48 1680.16,-109.78 1613.14,-103.17"/>
<polygon fill="#63b8ff" stroke="#63b8ff" points="1340.62,-304.92 1330.75,-308.78 1340.87,-311.91 1340.62,-304.92"/>
</g>
<!-- Node15 -->
<g id="node15" class="node">
<title>Node15</title>
<g id="a_node15"><a xlink:href="_c_a_t___m1_8cpp.html" target="_top" xlink:title=" ">
<polygon fill="white" stroke="#666666" points="265,-189.5 145,-189.5 145,-159.5 265,-159.5 265,-189.5"/>
<text text-anchor="start" x="153" y="-177.5" font-family="Helvetica,sans-Serif" font-size="10.00">firmware/wombat/src</text>
<text text-anchor="middle" x="205" y="-166.5" font-family="Helvetica,sans-Serif" font-size="10.00">/CAT_M1.cpp</text>
</a>
</g>
</g>
<!-- Node1&#45;&gt;Node15 -->
<g id="edge29" class="edge">
<title>Node1&#45;&gt;Node15</title>
<path fill="none" stroke="#63b8ff" d="M1179.3,-310.06C1045.15,-307.47 768.17,-297.7 537,-261 431.78,-244.29 311.39,-209.15 248.48,-189.52"/>
<polygon fill="#63b8ff" stroke="#63b8ff" points="1179.42,-313.56 1189.49,-310.25 1179.55,-306.57 1179.42,-313.56"/>
</g>
<!-- Node16 -->
<g id="node16" class="node">
<title>Node16</title>
<g id="a_node16"><a xlink:href="_device_config_8cpp.html" target="_top" xlink:title=" ">
<polygon fill="white" stroke="#666666" points="403,-189.5 283,-189.5 283,-159.5 403,-159.5 403,-189.5"/>
<text text-anchor="start" x="291" y="-177.5" font-family="Helvetica,sans-Serif" font-size="10.00">firmware/wombat/src</text>
<text text-anchor="middle" x="343" y="-166.5" font-family="Helvetica,sans-Serif" font-size="10.00">/DeviceConfig.cpp</text>
</a>
</g>
</g>
<!-- Node1&#45;&gt;Node16 -->
<g id="edge30" class="edge">
<title>Node1&#45;&gt;Node16</title>
<path fill="none" stroke="#63b8ff" d="M1178.91,-307.95C1066.48,-302.83 857.18,-290.04 681,-261 574.54,-243.45 452.47,-208.89 388.14,-189.51"/>
<polygon fill="#63b8ff" stroke="#63b8ff" points="1179,-311.46 1189.15,-308.41 1179.32,-304.46 1179,-311.46"/>
</g>
<!-- Node17 -->
<g id="node17" class="node">
<title>Node17</title>
<g id="a_node17"><a xlink:href="_sensor_task_8cpp.html" target="_top" xlink:title=" ">
<polygon fill="white" stroke="#666666" points="541,-189.5 421,-189.5 421,-159.5 541,-159.5 541,-189.5"/>
<text text-anchor="start" x="429" y="-177.5" font-family="Helvetica,sans-Serif" font-size="10.00">firmware/wombat/src</text>
<text text-anchor="middle" x="481" y="-166.5" font-family="Helvetica,sans-Serif" font-size="10.00">/SensorTask.cpp</text>
</a>
</g>
</g>
<!-- Node1&#45;&gt;Node17 -->
<g id="edge31" class="edge">
<title>Node1&#45;&gt;Node17</title>
<path fill="none" stroke="#63b8ff" d="M1179.14,-305.21C1089.78,-298.04 941.85,-283.89 816,-261 698.28,-239.59 670.85,-224.91 555,-195 548.18,-193.24 541.02,-191.37 533.94,-189.52"/>
<polygon fill="#63b8ff" stroke="#63b8ff" points="1178.96,-308.7 1189.21,-306 1179.52,-301.72 1178.96,-308.7"/>
</g>
<!-- Node18 -->
<g id="node18" class="node">
<title>Node18</title>
<g id="a_node18"><a xlink:href="_utils_8cpp.html" target="_top" xlink:title="Global utility functions.">
<polygon fill="white" stroke="#666666" points="1320,-189.5 1200,-189.5 1200,-159.5 1320,-159.5 1320,-189.5"/>
<text text-anchor="start" x="1208" y="-177.5" font-family="Helvetica,sans-Serif" font-size="10.00">firmware/wombat/src</text>
<text text-anchor="middle" x="1260" y="-166.5" font-family="Helvetica,sans-Serif" font-size="10.00">/Utils.cpp</text>
</a>
</g>
</g>
<!-- Node1&#45;&gt;Node18 -->
<g id="edge32" class="edge">
<title>Node1&#45;&gt;Node18</title>
<path fill="none" stroke="#63b8ff" d="M1260,-286.48C1260,-258.14 1260,-212.46 1260,-189.55"/>
<polygon fill="#63b8ff" stroke="#63b8ff" points="1256.5,-286.76 1260,-296.76 1263.5,-286.76 1256.5,-286.76"/>
</g>
<!-- Node19 -->
<g id="node19" class="node">
<title>Node19</title>
<g id="a_node19"><a xlink:href="acquisition__intervals_8cpp.html" target="_top" xlink:title="Handles the time between measurements and uplinks by the device over LTE.">
<polygon fill="white" stroke="#666666" points="1495.5,-195 1338.5,-195 1338.5,-154 1495.5,-154 1495.5,-195"/>
<text text-anchor="start" x="1346.5" y="-183" font-family="Helvetica,sans-Serif" font-size="10.00">firmware/wombat/src</text>
<text text-anchor="start" x="1346.5" y="-172" font-family="Helvetica,sans-Serif" font-size="10.00">/cli/device_config/acquisition</text>
<text text-anchor="middle" x="1417" y="-161" font-family="Helvetica,sans-Serif" font-size="10.00">_intervals.cpp</text>
</a>
</g>
</g>
<!-- Node1&#45;&gt;Node19 -->
<g id="edge33" class="edge">
<title>Node1&#45;&gt;Node19</title>
<path fill="none" stroke="#63b8ff" d="M1284.39,-289.95C1314.38,-264.07 1364.9,-220.47 1394.16,-195.21"/>
<polygon fill="#63b8ff" stroke="#63b8ff" points="1281.79,-287.57 1276.51,-296.76 1286.36,-292.87 1281.79,-287.57"/>
</g>
<!-- Node20 -->
<g id="node20" class="node">
<title>Node20</title>
<g id="a_node20"><a xlink:href="ftp__stack_8cpp.html" target="_top" xlink:title=" ">
<polygon fill="white" stroke="#666666" points="1634,-189.5 1514,-189.5 1514,-159.5 1634,-159.5 1634,-189.5"/>
<text text-anchor="start" x="1522" y="-177.5" font-family="Helvetica,sans-Serif" font-size="10.00">firmware/wombat/src</text>
<text text-anchor="middle" x="1574" y="-166.5" font-family="Helvetica,sans-Serif" font-size="10.00">/ftp_stack.cpp</text>
</a>
</g>
</g>
<!-- Node1&#45;&gt;Node20 -->
<g id="edge37" class="edge">
<title>Node1&#45;&gt;Node20</title>
<path fill="none" stroke="#63b8ff" d="M1302.02,-292.87C1365.38,-265.53 1484.04,-214.32 1541.36,-189.59"/>
<polygon fill="#63b8ff" stroke="#63b8ff" points="1300.51,-289.71 1292.71,-296.88 1303.28,-296.13 1300.51,-289.71"/>
</g>
<!-- Node21 -->
<g id="node21" class="node">
<title>Node21</title>
<g id="a_node21"><a xlink:href="uplinks_8cpp.html" target="_top" xlink:title=" ">
<polygon fill="white" stroke="#666666" points="1772,-189.5 1652,-189.5 1652,-159.5 1772,-159.5 1772,-189.5"/>
<text text-anchor="start" x="1660" y="-177.5" font-family="Helvetica,sans-Serif" font-size="10.00">firmware/wombat/src</text>
<text text-anchor="middle" x="1712" y="-166.5" font-family="Helvetica,sans-Serif" font-size="10.00">/uplinks.cpp</text>
</a>
</g>
</g>
<!-- Node1&#45;&gt;Node21 -->
<g id="edge42" class="edge">
<title>Node1&#45;&gt;Node21</title>
<path fill="none" stroke="#63b8ff" d="M1316.53,-294.08C1348.88,-284.4 1390.22,-272.02 1427,-261 1511,-235.83 1608.91,-206.44 1665.35,-189.5"/>
<polygon fill="#63b8ff" stroke="#63b8ff" points="1315.37,-290.78 1306.79,-297 1317.38,-297.48 1315.37,-290.78"/>
</g>
<!-- Node23 -->
<g id="node23" class="node">
<title>Node23</title>
<g id="a_node23"><a xlink:href="interface_8cpp.html" target="_top" xlink:title=" ">
<polygon fill="white" stroke="#666666" points="2026,-261 1904,-261 1904,-231 2026,-231 2026,-261"/>
<text text-anchor="start" x="1912" y="-249" font-family="Helvetica,sans-Serif" font-size="10.00">firmware/wombat/src</text>
<text text-anchor="middle" x="1965" y="-238" font-family="Helvetica,sans-Serif" font-size="10.00">/sd&#45;card/interface.cpp</text>
</a>
</g>
</g>
<!-- Node1&#45;&gt;Node23 -->
<g id="edge41" class="edge">
<title>Node1&#45;&gt;Node23</title>
<path fill="none" stroke="#63b8ff" d="M1340.86,-307.31C1461.03,-301.21 1693.69,-287.04 1890,-261 1894.46,-260.41 1899.07,-259.73 1903.69,-258.99"/>
<polygon fill="#63b8ff" stroke="#63b8ff" points="1340.46,-303.83 1330.64,-307.82 1340.81,-310.82 1340.46,-303.83"/>
</g>
<!-- Node3 -->
<g id="node3" class="node">
<title>Node3</title>
<g id="a_node3"><a xlink:href="sdi12_8h.html" target="_top" xlink:title="SDI&#45;12 command line interface handler.">
<polygon fill="white" stroke="#666666" points="966.5,-189.5 825.5,-189.5 825.5,-159.5 966.5,-159.5 966.5,-189.5"/>
<text text-anchor="start" x="833.5" y="-177.5" font-family="Helvetica,sans-Serif" font-size="10.00">firmware/wombat/include</text>
<text text-anchor="middle" x="896" y="-166.5" font-family="Helvetica,sans-Serif" font-size="10.00">/cli/peripherals/sdi12.h</text>
</a>
</g>
</g>
<!-- Node2&#45;&gt;Node3 -->
<g id="edge2" class="edge">
<title>Node2&#45;&gt;Node3</title>
<path fill="none" stroke="#63b8ff" d="M896,-220.75C896,-210.31 896,-198.49 896,-189.54"/>
<polygon fill="#63b8ff" stroke="#63b8ff" points="892.5,-220.94 896,-230.94 899.5,-220.94 892.5,-220.94"/>
</g>
<!-- Node2&#45;&gt;Node6 -->
<g id="edge23" class="edge">
<title>Node2&#45;&gt;Node6</title>
<path fill="none" stroke="#63b8ff" d="M815.52,-235.45C754.98,-227 678.14,-213.19 652,-195 595.94,-155.98 563.12,-77.54 550.29,-41.03"/>
<polygon fill="#63b8ff" stroke="#63b8ff" points="815.09,-238.93 825.47,-236.81 816.04,-231.99 815.09,-238.93"/>
</g>
<!-- Node2&#45;&gt;Node9 -->
<g id="edge25" class="edge">
<title>Node2&#45;&gt;Node9</title>
<path fill="none" stroke="#63b8ff" d="M815.47,-232.71C752.41,-222.26 673.75,-207.08 664,-195 652.55,-180.82 653.11,-168.61 664,-154 697.54,-109.02 732.03,-136.49 785,-118 860.47,-91.66 947.02,-55.3 992.76,-35.58"/>
<polygon fill="#63b8ff" stroke="#63b8ff" points="815.01,-236.18 825.44,-234.34 816.14,-229.27 815.01,-236.18"/>
</g>
<!-- Node2&#45;&gt;Node10 -->
<g id="edge26" class="edge">
<title>Node2&#45;&gt;Node10</title>
<path fill="none" stroke="#63b8ff" d="M814.98,-234.86C743.57,-225.2 645.4,-209.96 609,-195 579.46,-182.86 578.95,-167.48 550,-154 403.4,-85.75 215.2,-47.27 120.37,-30.94"/>
<polygon fill="#63b8ff" stroke="#63b8ff" points="814.94,-238.39 825.32,-236.25 815.87,-231.45 814.94,-238.39"/>
</g>
<!-- Node11 -->
<g id="node11" class="node">
<title>Node11</title>
<g id="a_node11"><a xlink:href="ftp__stack_8h.html" target="_top" xlink:title=" ">
<polygon fill="white" stroke="#666666" points="1143.5,-189.5 1002.5,-189.5 1002.5,-159.5 1143.5,-159.5 1143.5,-189.5"/>
<text text-anchor="start" x="1010.5" y="-177.5" font-family="Helvetica,sans-Serif" font-size="10.00">firmware/wombat/include</text>
<text text-anchor="middle" x="1073" y="-166.5" font-family="Helvetica,sans-Serif" font-size="10.00">/ftp_stack.h</text>
</a>
</g>
</g>
<!-- Node2&#45;&gt;Node11 -->
<g id="edge12" class="edge">
<title>Node2&#45;&gt;Node11</title>
<path fill="none" stroke="#63b8ff" d="M941.17,-227.26C971,-215.55 1009.54,-200.42 1037.23,-189.54"/>
<polygon fill="#63b8ff" stroke="#63b8ff" points="939.85,-224.02 931.82,-230.94 942.41,-230.54 939.85,-224.02"/>
</g>
<!-- Node2&#45;&gt;Node12 -->
<g id="edge22" class="edge">
<title>Node2&#45;&gt;Node12</title>
<path fill="none" stroke="#63b8ff" d="M977.08,-238.85C1042.54,-232.18 1127.62,-219.1 1152,-195 1172.32,-174.91 1174.64,-139.97 1173.8,-118.1"/>
<polygon fill="#63b8ff" stroke="#63b8ff" points="976.37,-235.4 966.76,-239.87 977.05,-242.37 976.37,-235.4"/>
</g>
<!-- Node2&#45;&gt;Node15 -->
<g id="edge17" class="edge">
<title>Node2&#45;&gt;Node15</title>
<path fill="none" stroke="#63b8ff" d="M815.33,-243.53C696.09,-240.23 466.19,-229.54 274,-195 266.16,-193.59 257.93,-191.67 249.99,-189.58"/>
<polygon fill="#63b8ff" stroke="#63b8ff" points="815.38,-247.03 825.47,-243.8 815.56,-240.03 815.38,-247.03"/>
</g>
<!-- Node2&#45;&gt;Node16 -->
<g id="edge18" class="edge">
<title>Node2&#45;&gt;Node16</title>
<path fill="none" stroke="#63b8ff" d="M815.32,-240.93C718.74,-235.08 552.43,-221.89 412,-195 404.3,-193.53 396.21,-191.6 388.39,-189.52"/>
<polygon fill="#63b8ff" stroke="#63b8ff" points="815.12,-244.42 825.31,-241.52 815.54,-237.44 815.12,-244.42"/>
</g>
<!-- Node2&#45;&gt;Node17 -->
<g id="edge19" class="edge">
<title>Node2&#45;&gt;Node17</title>
<path fill="none" stroke="#63b8ff" d="M815.4,-235.77C746.02,-227.21 643.42,-213.07 555,-195 547.32,-193.43 539.25,-191.55 531.38,-189.58"/>
<polygon fill="#63b8ff" stroke="#63b8ff" points="815.04,-239.25 825.39,-236.99 815.89,-232.3 815.04,-239.25"/>
</g>
<!-- Node2&#45;&gt;Node18 -->
<g id="edge20" class="edge">
<title>Node2&#45;&gt;Node18</title>
<path fill="none" stroke="#63b8ff" d="M976.56,-233.04C1034.95,-223.9 1115.68,-210.3 1186,-195 1193.53,-193.36 1201.45,-191.47 1209.19,-189.51"/>
<polygon fill="#63b8ff" stroke="#63b8ff" points="976,-229.58 966.65,-234.58 977.07,-236.5 976,-229.58"/>
</g>
<!-- Node2&#45;&gt;Node19 -->
<g id="edge21" class="edge">
<title>Node2&#45;&gt;Node19</title>
<path fill="none" stroke="#63b8ff" d="M976.91,-238.17C1064.16,-230.22 1206.97,-215.51 1329,-195 1332.09,-194.48 1335.23,-193.92 1338.4,-193.34"/>
<polygon fill="#63b8ff" stroke="#63b8ff" points="976.46,-234.7 966.81,-239.08 977.09,-241.67 976.46,-234.7"/>
</g>
<!-- Node2&#45;&gt;Node20 -->
<g id="edge24" class="edge">
<title>Node2&#45;&gt;Node20</title>
<path fill="none" stroke="#63b8ff" d="M977.09,-243.21C1094.24,-239.52 1317.28,-228.37 1504,-195 1511.95,-193.58 1520.3,-191.65 1528.35,-189.56"/>
<polygon fill="#63b8ff" stroke="#63b8ff" points="976.66,-239.72 966.78,-243.52 976.88,-246.72 976.66,-239.72"/>
</g>
<!-- Node2&#45;&gt;Node21 -->
<g id="edge27" class="edge">
<title>Node2&#45;&gt;Node21</title>
<path fill="none" stroke="#63b8ff" d="M976.66,-245.09C1114.34,-244.02 1403.09,-236.46 1643,-195 1650.97,-193.62 1659.35,-191.69 1667.4,-189.57"/>
<polygon fill="#63b8ff" stroke="#63b8ff" points="976.59,-241.59 966.61,-245.16 976.63,-248.59 976.59,-241.59"/>
</g>
<!-- Node22 -->
<g id="node22" class="node">
<title>Node22</title>
<g id="a_node22"><a xlink:href="test___utils_8cpp.html" target="_top" xlink:title=" ">
<polygon fill="white" stroke="#666666" points="807,-189.5 673,-189.5 673,-159.5 807,-159.5 807,-189.5"/>
<text text-anchor="start" x="681" y="-177.5" font-family="Helvetica,sans-Serif" font-size="10.00">firmware/wombat/test</text>
<text text-anchor="middle" x="740" y="-166.5" font-family="Helvetica,sans-Serif" font-size="10.00">/test_utils/test_Utils.cpp</text>
</a>
</g>
</g>
<!-- Node2&#45;&gt;Node22 -->
<g id="edge28" class="edge">
<title>Node2&#45;&gt;Node22</title>
<path fill="none" stroke="#63b8ff" d="M855.16,-226.81C829.02,-215.16 795.61,-200.28 771.52,-189.54"/>
<polygon fill="#63b8ff" stroke="#63b8ff" points="853.87,-230.06 864.43,-230.94 856.72,-223.67 853.87,-230.06"/>
</g>
<!-- Node3&#45;&gt;Node3 -->
<g id="edge10" class="edge">
<title>Node3&#45;&gt;Node3</title>
<path fill="none" stroke="#63b8ff" d="M976.7,-183.59C981.57,-181.43 984.5,-178.4 984.5,-174.5 984.5,-168.42 977.37,-164.45 966.83,-162.59"/>
<polygon fill="#63b8ff" stroke="#63b8ff" points="975.48,-180.3 966.83,-186.41 977.4,-187.03 975.48,-180.3"/>
</g>
<!-- Node4 -->
<g id="node4" class="node">
<title>Node4</title>
<g id="a_node4"><a xlink:href="_c_l_i_8h.html" target="_top" xlink:title="FreeRTOS CLI handler.">
<polygon fill="white" stroke="#666666" points="776.5,-112.5 635.5,-112.5 635.5,-82.5 776.5,-82.5 776.5,-112.5"/>
<text text-anchor="start" x="643.5" y="-100.5" font-family="Helvetica,sans-Serif" font-size="10.00">firmware/wombat/include</text>
<text text-anchor="middle" x="706" y="-89.5" font-family="Helvetica,sans-Serif" font-size="10.00">/cli/CLI.h</text>
</a>
</g>
</g>
<!-- Node3&#45;&gt;Node4 -->
<g id="edge3" class="edge">
<title>Node3&#45;&gt;Node4</title>
<path fill="none" stroke="#63b8ff" d="M850.72,-155.63C817.3,-142.43 772.45,-124.73 741.58,-112.54"/>
<polygon fill="#63b8ff" stroke="#63b8ff" points="849.68,-158.98 860.26,-159.39 852.25,-152.47 849.68,-158.98"/>
</g>
<!-- Node8 -->
<g id="node8" class="node">
<title>Node8</title>
<g id="a_node8"><a xlink:href="sdi12_8cpp.html" target="_top" xlink:title="SDI&#45;12 command line interface handler.">
<polygon fill="white" stroke="#666666" points="898,-35.5 760,-35.5 760,-5.5 898,-5.5 898,-35.5"/>
<text text-anchor="start" x="768" y="-23.5" font-family="Helvetica,sans-Serif" font-size="10.00">firmware/wombat/src</text>
<text text-anchor="middle" x="829" y="-12.5" font-family="Helvetica,sans-Serif" font-size="10.00">/cli/peripherals/sdi12.cpp</text>
</a>
</g>
</g>
<!-- Node3&#45;&gt;Node8 -->
<g id="edge11" class="edge">
<title>Node3&#45;&gt;Node8</title>
<path fill="none" stroke="#63b8ff" d="M885.66,-150.05C871.63,-118.2 846.96,-62.24 835.36,-35.94"/>
<polygon fill="#63b8ff" stroke="#63b8ff" points="882.58,-151.73 889.82,-159.47 888.99,-148.91 882.58,-151.73"/>
</g>
<!-- Node5 -->
<g id="node5" class="node">
<title>Node5</title>
<g id="a_node5"><a xlink:href="_c_l_i_8cpp.html" target="_top" xlink:title="FreeRTOS CLI handler.">
<polygon fill="white" stroke="#666666" points="742,-35.5 622,-35.5 622,-5.5 742,-5.5 742,-35.5"/>
<text text-anchor="start" x="630" y="-23.5" font-family="Helvetica,sans-Serif" font-size="10.00">firmware/wombat/src</text>
<text text-anchor="middle" x="682" y="-12.5" font-family="Helvetica,sans-Serif" font-size="10.00">/cli/CLI.cpp</text>
</a>
</g>
</g>
<!-- Node4&#45;&gt;Node5 -->
<g id="edge4" class="edge">
<title>Node4&#45;&gt;Node5</title>
<path fill="none" stroke="#63b8ff" d="M698.41,-72.78C694.49,-60.53 689.84,-46 686.49,-35.54"/>
<polygon fill="#63b8ff" stroke="#63b8ff" points="695.1,-73.94 701.49,-82.39 701.77,-71.8 695.1,-73.94"/>
</g>
<!-- Node4&#45;&gt;Node6 -->
<g id="edge5" class="edge">
<title>Node4&#45;&gt;Node6</title>
<path fill="none" stroke="#63b8ff" d="M666.25,-78.1C641.98,-66.86 610.97,-52.5 586.25,-41.06"/>
<polygon fill="#63b8ff" stroke="#63b8ff" points="664.98,-81.37 675.53,-82.39 667.92,-75.02 664.98,-81.37"/>
</g>
<!-- Node4&#45;&gt;Node7 -->
<g id="edge6" class="edge">
<title>Node4&#45;&gt;Node7</title>
<path fill="none" stroke="#63b8ff" d="M625.32,-81.95C544.69,-67.42 422.57,-45.4 350.09,-32.33"/>
<polygon fill="#63b8ff" stroke="#63b8ff" points="624.97,-85.45 635.43,-83.78 626.21,-78.56 624.97,-85.45"/>
</g>
<!-- Node4&#45;&gt;Node8 -->
<g id="edge7" class="edge">
<title>Node4&#45;&gt;Node8</title>
<path fill="none" stroke="#63b8ff" d="M737.85,-77.08C759.18,-64.08 786.76,-47.26 805.97,-35.54"/>
<polygon fill="#63b8ff" stroke="#63b8ff" points="735.85,-74.2 729.14,-82.39 739.5,-80.18 735.85,-74.2"/>
</g>
<!-- Node4&#45;&gt;Node9 -->
<g id="edge8" class="edge">
<title>Node4&#45;&gt;Node9</title>
<path fill="none" stroke="#63b8ff" d="M775.59,-80.14C832.31,-66.8 911.56,-48.17 965.4,-35.51"/>
<polygon fill="#63b8ff" stroke="#63b8ff" points="774.56,-76.79 765.63,-82.48 776.16,-83.6 774.56,-76.79"/>
</g>
<!-- Node4&#45;&gt;Node10 -->
<g id="edge9" class="edge">
<title>Node4&#45;&gt;Node10</title>
<path fill="none" stroke="#63b8ff" d="M625.35,-87.44C529.09,-76.58 363.26,-57.75 221,-41 187.58,-37.06 150.28,-32.55 120.01,-28.86"/>
<polygon fill="#63b8ff" stroke="#63b8ff" points="624.97,-90.91 635.3,-88.56 625.76,-83.96 624.97,-90.91"/>
</g>
<!-- Node11&#45;&gt;Node9 -->
<g id="edge15" class="edge">
<title>Node11&#45;&gt;Node9</title>
<path fill="none" stroke="#63b8ff" d="M1070.21,-149.4C1067.45,-129.56 1062.41,-100.92 1054,-77 1048.81,-62.23 1040.28,-46.52 1033.81,-35.59"/>
<polygon fill="#63b8ff" stroke="#63b8ff" points="1066.75,-149.96 1071.51,-159.42 1073.7,-149.06 1066.75,-149.96"/>
</g>
<!-- Node11&#45;&gt;Node12 -->
<g id="edge13" class="edge">
<title>Node11&#45;&gt;Node12</title>
<path fill="none" stroke="#63b8ff" d="M1099.66,-153.31C1114.04,-142.41 1131.71,-129.02 1145.99,-118.2"/>
<polygon fill="#63b8ff" stroke="#63b8ff" points="1097.48,-150.56 1091.62,-159.39 1101.71,-156.14 1097.48,-150.56"/>
</g>
<!-- Node13 -->
<g id="node13" class="node">
<title>Node13</title>
<g id="a_node13"><a xlink:href="ftp__cli_8cpp.html" target="_top" xlink:title="FTP setup and configuration through the CLI.">
<polygon fill="white" stroke="#666666" points="1045,-118 925,-118 925,-77 1045,-77 1045,-118"/>
<text text-anchor="start" x="933" y="-106" font-family="Helvetica,sans-Serif" font-size="10.00">firmware/wombat/src</text>
<text text-anchor="start" x="933" y="-95" font-family="Helvetica,sans-Serif" font-size="10.00">/cli/device_config/ftp</text>
<text text-anchor="middle" x="985" y="-84" font-family="Helvetica,sans-Serif" font-size="10.00">_cli.cpp</text>
</a>
</g>
</g>
<!-- Node11&#45;&gt;Node13 -->
<g id="edge14" class="edge">
<title>Node11&#45;&gt;Node13</title>
<path fill="none" stroke="#63b8ff" d="M1048.59,-152.69C1035.94,-141.91 1020.57,-128.82 1008.12,-118.2"/>
<polygon fill="#63b8ff" stroke="#63b8ff" points="1046.57,-155.57 1056.45,-159.39 1051.11,-150.24 1046.57,-155.57"/>
</g>
<!-- Node11&#45;&gt;Node14 -->
<g id="edge16" class="edge">
<title>Node11&#45;&gt;Node14</title>
<path fill="none" stroke="#63b8ff" d="M1153.73,-160.03C1166.21,-157.99 1178.95,-155.92 1191,-154 1297.12,-137.1 1420.89,-118.32 1492.76,-107.52"/>
<polygon fill="#63b8ff" stroke="#63b8ff" points="1153.1,-156.59 1143.8,-161.66 1154.23,-163.49 1153.1,-156.59"/>
</g>
</g>
</svg>
