<?xml version="1.0" encoding="UTF-8" standalone="no"?>
<!DOCTYPE svg PUBLIC "-//W3C//DTD SVG 1.1//EN"
 "http://www.w3.org/Graphics/SVG/1.1/DTD/svg11.dtd">
<!-- Generated by graphviz version 2.43.0 (0)
 -->
<!-- Title: Graphical Class Hierarchy Pages: 1 -->
<svg width="377pt" height="212pt"
 viewBox="0.00 0.00 377.00 212.00" xmlns="http://www.w3.org/2000/svg" xmlns:xlink="http://www.w3.org/1999/xlink">
<g id="graph0" class="graph" transform="scale(1 1) rotate(0) translate(4 208)">
<title>Graphical Class Hierarchy</title>
<!-- Node0 -->
<g id="node1" class="node">
<title>Node0</title>
<g id="a_node1"><a xlink:title=" ">
<polygon fill="#e0e0e0" stroke="#999999" points="149,-111 0,-111 0,-92 149,-92 149,-111"/>
<text text-anchor="middle" x="74.5" y="-99" font-family="Helvetica,sans-Serif" font-size="10.00">BLECharacteristicCallbacks</text>
</a>
</g>
</g>
<!-- Node1 -->
<g id="node2" class="node">
<title>Node1</title>
<g id="a_node2"><a xlink:href="class_bluetooth_battery_current_callbacks.html" target="_top" xlink:title=" ">
<polygon fill="white" stroke="#666666" points="368.5,-204 185.5,-204 185.5,-185 368.5,-185 368.5,-204"/>
<text text-anchor="middle" x="277" y="-192" font-family="Helvetica,sans-Serif" font-size="10.00">BluetoothBatteryCurrentCallbacks</text>
</a>
</g>
</g>
<!-- Node0&#45;&gt;Node1 -->
<g id="edge1" class="edge">
<title>Node0&#45;&gt;Node1</title>
<path fill="none" stroke="#63b8ff" d="M93.8,-117.53C114.49,-134.79 149.9,-161.75 185,-176.5 193.17,-179.93 202.02,-182.72 210.9,-184.98"/>
<polygon fill="#63b8ff" stroke="#63b8ff" points="96.01,-114.82 86.12,-111.01 91.47,-120.15 96.01,-114.82"/>
</g>
<!-- Node2 -->
<g id="node3" class="node">
<title>Node2</title>
<g id="a_node3"><a xlink:href="class_bluetooth_battery_percent_callbacks.html" target="_top" xlink:title=" ">
<polygon fill="white" stroke="#666666" points="369,-167 185,-167 185,-148 369,-148 369,-167"/>
<text text-anchor="middle" x="277" y="-155" font-family="Helvetica,sans-Serif" font-size="10.00">BluetoothBatteryPercentCallbacks</text>
</a>
</g>
</g>
<!-- Node0&#45;&gt;Node2 -->
<g id="edge2" class="edge">
<title>Node0&#45;&gt;Node2</title>
<path fill="none" stroke="#63b8ff" d="M109.6,-114.7C131.02,-122.65 159.35,-132.55 185,-139.5 196.66,-142.66 209.3,-145.51 221.34,-147.97"/>
<polygon fill="#63b8ff" stroke="#63b8ff" points="110.57,-111.33 99.98,-111.09 108.11,-117.89 110.57,-111.33"/>
</g>
<!-- Node3 -->
<g id="node4" class="node">
<title>Node3</title>
<g id="a_node4"><a xlink:href="class_bluetooth_battery_voltage_callbacks.html" target="_top" xlink:title=" ">
<polygon fill="white" stroke="#666666" points="369,-130 185,-130 185,-111 369,-111 369,-130"/>
<text text-anchor="middle" x="277" y="-118" font-family="Helvetica,sans-Serif" font-size="10.00">BluetoothBatteryVoltageCallbacks</text>
</a>
</g>
</g>
<!-- Node0&#45;&gt;Node3 -->
<g id="edge3" class="edge">
<title>Node0&#45;&gt;Node3</title>
<path fill="none" stroke="#63b8ff" d="M159.21,-109.43C167.65,-110.23 176.24,-111.05 184.75,-111.85"/>
<polygon fill="#63b8ff" stroke="#63b8ff" points="159.31,-105.93 149.02,-108.47 158.65,-112.89 159.31,-105.93"/>
</g>
<!-- Node4 -->
<g id="node5" class="node">
<title>Node4</title>
<g id="a_node5"><a xlink:href="class_bluetooth_solar_current_callbacks.html" target="_top" xlink:title=" ">
<polygon fill="white" stroke="#666666" points="363,-93 191,-93 191,-74 363,-74 363,-93"/>
<text text-anchor="middle" x="277" y="-81" font-family="Helvetica,sans-Serif" font-size="10.00">BluetoothSolarCurrentCallbacks</text>
</a>
</g>
</g>
<!-- Node0&#45;&gt;Node4 -->
<g id="edge4" class="edge">
<title>Node0&#45;&gt;Node4</title>
<path fill="none" stroke="#63b8ff" d="M159.04,-94C169.58,-93.05 180.38,-92.08 190.95,-91.14"/>
<polygon fill="#63b8ff" stroke="#63b8ff" points="158.67,-90.52 149.02,-94.9 159.29,-97.49 158.67,-90.52"/>
</g>
<!-- Node5 -->
<g id="node6" class="node">
<title>Node5</title>
<g id="a_node6"><a xlink:href="class_bluetooth_solar_voltage_callbacks.html" target="_top" xlink:title=" ">
<polygon fill="white" stroke="#666666" points="363.5,-56 190.5,-56 190.5,-37 363.5,-37 363.5,-56"/>
<text text-anchor="middle" x="277" y="-44" font-family="Helvetica,sans-Serif" font-size="10.00">BluetoothSolarVoltageCallbacks</text>
</a>
</g>
</g>
<!-- Node0&#45;&gt;Node5 -->
<g id="edge5" class="edge">
<title>Node0&#45;&gt;Node5</title>
<path fill="none" stroke="#63b8ff" d="M111.38,-88.58C132.61,-81.22 160.14,-72.16 185,-65.5 197.94,-62.03 212.05,-58.82 225.22,-56.05"/>
<polygon fill="#63b8ff" stroke="#63b8ff" points="110.08,-85.33 101.8,-91.93 112.4,-91.93 110.08,-85.33"/>
</g>
<!-- Node6 -->
<g id="node7" class="node">
<title>Node6</title>
<g id="a_node7"><a xlink:href="class_bluetooth_uart_service_callbacks.html" target="_top" xlink:title=" ">
<polygon fill="white" stroke="#666666" points="361,-19 193,-19 193,0 361,0 361,-19"/>
<text text-anchor="middle" x="277" y="-7" font-family="Helvetica,sans-Serif" font-size="10.00">BluetoothUartServiceCallbacks</text>
</a>
</g>
</g>
<!-- Node0&#45;&gt;Node6 -->
<g id="edge6" class="edge">
<title>Node0&#45;&gt;Node6</title>
<path fill="none" stroke="#63b8ff" d="M94.57,-85.44C115.45,-68.71 150.55,-42.94 185,-28.5 194.23,-24.63 204.32,-21.52 214.33,-19.03"/>
<polygon fill="#63b8ff" stroke="#63b8ff" points="92.33,-82.76 86.79,-91.8 96.75,-88.18 92.33,-82.76"/>
</g>
</g>
</svg>
