<?xml version="1.0" encoding="UTF-8" standalone="no"?>
<!DOCTYPE svg PUBLIC "-//W3C//DTD SVG 1.1//EN"
 "http://www.w3.org/Graphics/SVG/1.1/DTD/svg11.dtd">
<!-- Generated by graphviz version 2.43.0 (0)
 -->
<!-- Title: Graphical Class Hierarchy Pages: 1 -->
<svg width="300pt" height="64pt"
 viewBox="0.00 0.00 300.00 64.00" xmlns="http://www.w3.org/2000/svg" xmlns:xlink="http://www.w3.org/1999/xlink">
<g id="graph0" class="graph" transform="scale(1 1) rotate(0) translate(4 60)">
<title>Graphical Class Hierarchy</title>
<!-- Node0 -->
<g id="node1" class="node">
<title>Node0</title>
<g id="a_node1"><a xlink:title=" ">
<polygon fill="#e0e0e0" stroke="#999999" points="113,-56 0,-56 0,-37 113,-37 113,-56"/>
<text text-anchor="middle" x="56.5" y="-44" font-family="Helvetica,sans-Serif" font-size="10.00">BLEServerCallbacks</text>
</a>
</g>
</g>
<!-- Node1 -->
<g id="node2" class="node">
<title>Node1</title>
<g id="a_node2"><a xlink:href="class_bluetooth_server_callbacks.html" target="_top" xlink:title="BluetoothLE server callbacks when devices connect and disconnect.">
<polygon fill="white" stroke="#666666" points="292,-37 149,-37 149,-18 292,-18 292,-37"/>
<text text-anchor="middle" x="220.5" y="-25" font-family="Helvetica,sans-Serif" font-size="10.00">BluetoothServerCallbacks</text>
</a>
</g>
</g>
<!-- Node0&#45;&gt;Node1 -->
<g id="edge1" class="edge">
<title>Node0&#45;&gt;Node1</title>
<path fill="none" stroke="#63b8ff" d="M123.33,-38.78C131.71,-37.8 140.32,-36.79 148.77,-35.8"/>
<polygon fill="#63b8ff" stroke="#63b8ff" points="122.78,-35.32 113.25,-39.96 123.59,-42.27 122.78,-35.32"/>
</g>
<!-- Node2 -->
<g id="node3" class="node">
<title>Node2</title>
<g id="a_node3"><a xlink:href="class_bluetooth_server.html" target="_top" xlink:title="BluetoothLE server instance.">
<polygon fill="white" stroke="#666666" points="104,-19 9,-19 9,0 104,0 104,-19"/>
<text text-anchor="middle" x="56.5" y="-7" font-family="Helvetica,sans-Serif" font-size="10.00">BluetoothServer</text>
</a>
</g>
</g>
<!-- Node2&#45;&gt;Node1 -->
<g id="edge2" class="edge">
<title>Node2&#45;&gt;Node1</title>
<path fill="none" stroke="#63b8ff" d="M114.39,-15.82C125.55,-17.06 137.39,-18.38 148.93,-19.66"/>
<polygon fill="#63b8ff" stroke="#63b8ff" points="114.68,-12.33 104.36,-14.71 113.91,-19.29 114.68,-12.33"/>
</g>
</g>
</svg>
