<?xml version="1.0" encoding="UTF-8" standalone="no"?>
<!DOCTYPE svg PUBLIC "-//W3C//DTD SVG 1.1//EN"
 "http://www.w3.org/Graphics/SVG/1.1/DTD/svg11.dtd">
<!-- Generated by graphviz version 2.43.0 (0)
 -->
<!-- Title: firmware/wombat/src/sd&#45;card/interface.cpp Pages: 1 -->
<svg width="680pt" height="269pt"
 viewBox="0.00 0.00 679.83 269.00" xmlns="http://www.w3.org/2000/svg" xmlns:xlink="http://www.w3.org/1999/xlink">
<g id="graph0" class="graph" transform="scale(1 1) rotate(0) translate(4 265)">
<title>firmware/wombat/src/sd&#45;card/interface.cpp</title>
<!-- Node1 -->
<g id="node1" class="node">
<title>Node1</title>
<g id="a_node1"><a xlink:title=" ">
<polygon fill="#999999" stroke="#666666" points="431.33,-261 309.33,-261 309.33,-231 431.33,-231 431.33,-261"/>
<text text-anchor="start" x="317.33" y="-249" font-family="Helvetica,sans-Serif" font-size="10.00">firmware/wombat/src</text>
<text text-anchor="middle" x="370.33" y="-238" font-family="Helvetica,sans-Serif" font-size="10.00">/sd&#45;card/interface.cpp</text>
</a>
</g>
</g>
<!-- Node2 -->
<g id="node2" class="node">
<title>Node2</title>
<g id="a_node2"><a xlink:href="interface_8h.html" target="_top" xlink:title=" ">
<polygon fill="white" stroke="#666666" points="117.33,-195 9.33,-195 9.33,-176 117.33,-176 117.33,-195"/>
<text text-anchor="middle" x="63.33" y="-183" font-family="Helvetica,sans-Serif" font-size="10.00">sd&#45;card/interface.h</text>
</a>
</g>
</g>
<!-- Node1&#45;&gt;Node2 -->
<g id="edge1" class="edge">
<title>Node1&#45;&gt;Node2</title>
<path fill="none" stroke="#63b8ff" d="M309.31,-233.37C253.62,-222.76 172.04,-207.21 118.32,-196.98"/>
<polygon fill="#63b8ff" stroke="#63b8ff" points="118.78,-193.5 108.3,-195.07 117.46,-200.38 118.78,-193.5"/>
</g>
<!-- Node6 -->
<g id="node6" class="node">
<title>Node6</title>
<g id="a_node6"><a xlink:href="globals_8h.html" target="_top" xlink:title=" ">
<polygon fill="white" stroke="#666666" points="400.83,-195 339.83,-195 339.83,-176 400.83,-176 400.83,-195"/>
<text text-anchor="middle" x="370.33" y="-183" font-family="Helvetica,sans-Serif" font-size="10.00">globals.h</text>
</a>
</g>
</g>
<!-- Node1&#45;&gt;Node6 -->
<g id="edge5" class="edge">
<title>Node1&#45;&gt;Node6</title>
<path fill="none" stroke="#63b8ff" d="M370.33,-230.84C370.33,-223.21 370.33,-213.7 370.33,-205.45"/>
<polygon fill="#63b8ff" stroke="#63b8ff" points="373.83,-205.27 370.33,-195.27 366.83,-205.27 373.83,-205.27"/>
</g>
<!-- Node14 -->
<g id="node14" class="node">
<title>Node14</title>
<g id="a_node14"><a xlink:title=" ">
<polygon fill="#e0e0e0" stroke="#999999" points="481.83,-195 418.83,-195 418.83,-176 481.83,-176 481.83,-195"/>
<text text-anchor="middle" x="450.33" y="-183" font-family="Helvetica,sans-Serif" font-size="10.00">esp_log.h</text>
</a>
</g>
</g>
<!-- Node1&#45;&gt;Node14 -->
<g id="edge18" class="edge">
<title>Node1&#45;&gt;Node14</title>
<path fill="none" stroke="#63b8ff" d="M389.69,-230.84C401.9,-221.91 417.63,-210.41 430.02,-201.35"/>
<polygon fill="#63b8ff" stroke="#63b8ff" points="432.33,-203.99 438.34,-195.27 428.2,-198.34 432.33,-203.99"/>
</g>
<!-- Node3 -->
<g id="node3" class="node">
<title>Node3</title>
<g id="a_node3"><a xlink:title=" ">
<polygon fill="#e0e0e0" stroke="#999999" points="319.83,-19 256.83,-19 256.83,0 319.83,0 319.83,-19"/>
<text text-anchor="middle" x="288.33" y="-7" font-family="Helvetica,sans-Serif" font-size="10.00">Arduino.h</text>
</a>
</g>
</g>
<!-- Node2&#45;&gt;Node3 -->
<g id="edge2" class="edge">
<title>Node2&#45;&gt;Node3</title>
<path fill="none" stroke="#63b8ff" d="M44.66,-175.97C30.99,-168.59 13.47,-156.5 5.33,-140 -0.57,-128.04 -2.38,-120.88 5.33,-110 60.51,-32.1 181.75,-14.75 246.17,-11.17"/>
<polygon fill="#63b8ff" stroke="#63b8ff" points="246.55,-14.66 256.38,-10.69 246.22,-7.66 246.55,-14.66"/>
</g>
<!-- Node4 -->
<g id="node4" class="node">
<title>Node4</title>
<g id="a_node4"><a xlink:title=" ">
<polygon fill="#e0e0e0" stroke="#999999" points="53.83,-134.5 14.83,-134.5 14.83,-115.5 53.83,-115.5 53.83,-134.5"/>
<text text-anchor="middle" x="34.33" y="-122.5" font-family="Helvetica,sans-Serif" font-size="10.00">SD.h</text>
</a>
</g>
</g>
<!-- Node2&#45;&gt;Node4 -->
<g id="edge3" class="edge">
<title>Node2&#45;&gt;Node4</title>
<path fill="none" stroke="#63b8ff" d="M59.05,-175.87C54.89,-167.49 48.46,-154.51 43.2,-143.89"/>
<polygon fill="#63b8ff" stroke="#63b8ff" points="46.2,-142.07 38.62,-134.67 39.93,-145.18 46.2,-142.07"/>
</g>
<!-- Node5 -->
<g id="node5" class="node">
<title>Node5</title>
<g id="a_node5"><a xlink:title=" ">
<polygon fill="#e0e0e0" stroke="#999999" points="112.83,-134.5 71.83,-134.5 71.83,-115.5 112.83,-115.5 112.83,-134.5"/>
<text text-anchor="middle" x="92.33" y="-122.5" font-family="Helvetica,sans-Serif" font-size="10.00">SPI.h</text>
</a>
</g>
</g>
<!-- Node2&#45;&gt;Node5 -->
<g id="edge4" class="edge">
<title>Node2&#45;&gt;Node5</title>
<path fill="none" stroke="#63b8ff" d="M67.61,-175.87C71.76,-167.49 78.2,-154.51 83.46,-143.89"/>
<polygon fill="#63b8ff" stroke="#63b8ff" points="86.73,-145.18 88.03,-134.67 80.45,-142.07 86.73,-145.18"/>
</g>
<!-- Node7 -->
<g id="node7" class="node">
<title>Node7</title>
<g id="a_node7"><a xlink:href="battery_8h.html" target="_top" xlink:title="Battery voltage and current monitoring using INA219 IC.">
<polygon fill="white" stroke="#666666" points="281.83,-134.5 130.83,-134.5 130.83,-115.5 281.83,-115.5 281.83,-134.5"/>
<text text-anchor="middle" x="206.33" y="-122.5" font-family="Helvetica,sans-Serif" font-size="10.00">power_monitoring/battery.h</text>
</a>
</g>
</g>
<!-- Node6&#45;&gt;Node7 -->
<g id="edge6" class="edge">
<title>Node6&#45;&gt;Node7</title>
<path fill="none" stroke="#63b8ff" d="M346.48,-175.99C318.42,-165.99 271.65,-149.3 239.93,-137.99"/>
<polygon fill="#63b8ff" stroke="#63b8ff" points="240.8,-134.58 230.2,-134.52 238.45,-141.17 240.8,-134.58"/>
</g>
<!-- Node9 -->
<g id="node9" class="node">
<title>Node9</title>
<g id="a_node9"><a xlink:href="solar_8h.html" target="_top" xlink:title="Solar voltage and current monitoring using INA219 IC.">
<polygon fill="white" stroke="#666666" points="440.33,-134.5 300.33,-134.5 300.33,-115.5 440.33,-115.5 440.33,-134.5"/>
<text text-anchor="middle" x="370.33" y="-122.5" font-family="Helvetica,sans-Serif" font-size="10.00">power_monitoring/solar.h</text>
</a>
</g>
</g>
<!-- Node6&#45;&gt;Node9 -->
<g id="edge9" class="edge">
<title>Node6&#45;&gt;Node9</title>
<path fill="none" stroke="#63b8ff" d="M370.33,-175.87C370.33,-167.75 370.33,-155.31 370.33,-144.89"/>
<polygon fill="#63b8ff" stroke="#63b8ff" points="373.83,-144.67 370.33,-134.67 366.83,-144.67 373.83,-144.67"/>
</g>
<!-- Node10 -->
<g id="node10" class="node">
<title>Node10</title>
<g id="a_node10"><a xlink:title=" ">
<polygon fill="#e0e0e0" stroke="#999999" points="588.33,-140 458.33,-140 458.33,-110 588.33,-110 588.33,-140"/>
<text text-anchor="start" x="466.33" y="-128" font-family="Helvetica,sans-Serif" font-size="10.00">SparkFun_u&#45;blox_SARA</text>
<text text-anchor="middle" x="523.33" y="-117" font-family="Helvetica,sans-Serif" font-size="10.00">&#45;R5_Arduino_Library.h</text>
</a>
</g>
</g>
<!-- Node6&#45;&gt;Node10 -->
<g id="edge12" class="edge">
<title>Node6&#45;&gt;Node10</title>
<path fill="none" stroke="#63b8ff" d="M392.58,-175.99C414.59,-167.57 448.97,-154.43 476.95,-143.73"/>
<polygon fill="#63b8ff" stroke="#63b8ff" points="478.45,-146.9 486.54,-140.06 475.95,-140.37 478.45,-146.9"/>
</g>
<!-- Node11 -->
<g id="node11" class="node">
<title>Node11</title>
<g id="a_node11"><a xlink:href="_c_a_t___m1_8h.html" target="_top" xlink:title=" ">
<polygon fill="white" stroke="#666666" points="671.83,-134.5 606.83,-134.5 606.83,-115.5 671.83,-115.5 671.83,-134.5"/>
<text text-anchor="middle" x="639.33" y="-122.5" font-family="Helvetica,sans-Serif" font-size="10.00">CAT_M1.h</text>
</a>
</g>
</g>
<!-- Node6&#45;&gt;Node11 -->
<g id="edge13" class="edge">
<title>Node6&#45;&gt;Node11</title>
<path fill="none" stroke="#63b8ff" d="M400.97,-177.74C403.79,-177.15 406.61,-176.56 409.33,-176 492.67,-158.94 515.02,-161.5 597.33,-140 600.12,-139.27 602.99,-138.46 605.86,-137.59"/>
<polygon fill="#63b8ff" stroke="#63b8ff" points="607.02,-140.9 615.51,-134.55 604.92,-134.22 607.02,-140.9"/>
</g>
<!-- Node7&#45;&gt;Node3 -->
<g id="edge7" class="edge">
<title>Node7&#45;&gt;Node3</title>
<path fill="none" stroke="#63b8ff" d="M207.04,-115.14C208.55,-101.19 213.08,-73.74 226.33,-55 235.35,-42.24 249.21,-31.79 261.55,-24.23"/>
<polygon fill="#63b8ff" stroke="#63b8ff" points="263.66,-27.05 270.58,-19.03 260.17,-20.99 263.66,-27.05"/>
</g>
<!-- Node8 -->
<g id="node8" class="node">
<title>Node8</title>
<g id="a_node8"><a xlink:title=" ">
<polygon fill="#e0e0e0" stroke="#999999" points="340.83,-74 235.83,-74 235.83,-55 340.83,-55 340.83,-74"/>
<text text-anchor="middle" x="288.33" y="-62" font-family="Helvetica,sans-Serif" font-size="10.00">Adafruit_INA219.h</text>
</a>
</g>
</g>
<!-- Node7&#45;&gt;Node8 -->
<g id="edge8" class="edge">
<title>Node7&#45;&gt;Node8</title>
<path fill="none" stroke="#63b8ff" d="M218.43,-115.37C231.39,-106.12 252.19,-91.28 267.73,-80.19"/>
<polygon fill="#63b8ff" stroke="#63b8ff" points="270.07,-82.82 276.18,-74.17 266.01,-77.13 270.07,-82.82"/>
</g>
<!-- Node9&#45;&gt;Node3 -->
<g id="edge10" class="edge">
<title>Node9&#45;&gt;Node3</title>
<path fill="none" stroke="#63b8ff" d="M369.45,-115.15C367.69,-101.21 362.68,-73.78 349.33,-55 340.37,-42.4 326.72,-31.96 314.6,-24.37"/>
<polygon fill="#63b8ff" stroke="#63b8ff" points="316.13,-21.21 305.74,-19.13 312.56,-27.24 316.13,-21.21"/>
</g>
<!-- Node9&#45;&gt;Node8 -->
<g id="edge11" class="edge">
<title>Node9&#45;&gt;Node8</title>
<path fill="none" stroke="#63b8ff" d="M358.23,-115.37C345.27,-106.12 324.47,-91.28 308.92,-80.19"/>
<polygon fill="#63b8ff" stroke="#63b8ff" points="310.65,-77.13 300.48,-74.17 306.59,-82.82 310.65,-77.13"/>
</g>
<!-- Node12 -->
<g id="node12" class="node">
<title>Node12</title>
<g id="a_node12"><a xlink:title=" ">
<polygon fill="#e0e0e0" stroke="#999999" points="632.33,-19 584.33,-19 584.33,0 632.33,0 632.33,-19"/>
<text text-anchor="middle" x="608.33" y="-7" font-family="Helvetica,sans-Serif" font-size="10.00">Wire.h</text>
</a>
</g>
</g>
<!-- Node11&#45;&gt;Node12 -->
<g id="edge14" class="edge">
<title>Node11&#45;&gt;Node12</title>
<path fill="none" stroke="#63b8ff" d="M637,-115.47C631.99,-97.15 620.12,-53.68 613.33,-28.81"/>
<polygon fill="#63b8ff" stroke="#63b8ff" points="616.7,-27.85 610.69,-19.13 609.94,-29.7 616.7,-27.85"/>
</g>
<!-- Node13 -->
<g id="node13" class="node">
<title>Node13</title>
<g id="a_node13"><a xlink:href="_t_c_a9534_8h.html" target="_top" xlink:title=" ">
<polygon fill="white" stroke="#666666" points="611.33,-74 543.33,-74 543.33,-55 611.33,-55 611.33,-74"/>
<text text-anchor="middle" x="577.33" y="-62" font-family="Helvetica,sans-Serif" font-size="10.00">TCA9534.h</text>
</a>
</g>
</g>
<!-- Node11&#45;&gt;Node13 -->
<g id="edge15" class="edge">
<title>Node11&#45;&gt;Node13</title>
<path fill="none" stroke="#63b8ff" d="M630.18,-115.37C620.66,-106.38 605.53,-92.11 593.9,-81.14"/>
<polygon fill="#63b8ff" stroke="#63b8ff" points="596.19,-78.48 586.51,-74.17 591.39,-83.58 596.19,-78.48"/>
</g>
<!-- Node13&#45;&gt;Node3 -->
<g id="edge16" class="edge">
<title>Node13&#45;&gt;Node3</title>
<path fill="none" stroke="#63b8ff" d="M543.33,-57.26C490.12,-47.51 387.34,-28.66 329.84,-18.11"/>
<polygon fill="#63b8ff" stroke="#63b8ff" points="330.46,-14.67 320,-16.31 329.2,-21.55 330.46,-14.67"/>
</g>
<!-- Node13&#45;&gt;Node12 -->
<g id="edge17" class="edge">
<title>Node13&#45;&gt;Node12</title>
<path fill="none" stroke="#63b8ff" d="M582.45,-54.75C586.69,-47.49 592.85,-36.95 598.1,-27.98"/>
<polygon fill="#63b8ff" stroke="#63b8ff" points="601.28,-29.49 603.3,-19.09 595.23,-25.95 601.28,-29.49"/>
</g>
</g>
</svg>
