<?xml version="1.0" encoding="UTF-8" standalone="no"?>
<!DOCTYPE svg PUBLIC "-//W3C//DTD SVG 1.1//EN"
 "http://www.w3.org/Graphics/SVG/1.1/DTD/svg11.dtd">
<!-- Generated by graphviz version 2.43.0 (0)
 -->
<!-- Title: firmware/wombat/src/sd&#45;card/interface.cpp Pages: 1 -->
<svg width="435pt" height="269pt"
 viewBox="0.00 0.00 434.66 269.00" xmlns="http://www.w3.org/2000/svg" xmlns:xlink="http://www.w3.org/1999/xlink">
<g id="graph0" class="graph" transform="scale(1 1) rotate(0) translate(4 265)">
<title>firmware/wombat/src/sd&#45;card/interface.cpp</title>
<!-- Node1 -->
<g id="node1" class="node">
<title>Node1</title>
<g id="a_node1"><a xlink:title=" ">
<polygon fill="#999999" stroke="#666666" points="314.16,-261 192.16,-261 192.16,-231 314.16,-231 314.16,-261"/>
<text text-anchor="start" x="200.16" y="-249" font-family="Helvetica,sans-Serif" font-size="10.00">firmware/wombat/src</text>
<text text-anchor="middle" x="253.16" y="-238" font-family="Helvetica,sans-Serif" font-size="10.00">/sd&#45;card/interface.cpp</text>
</a>
</g>
</g>
<!-- Node2 -->
<g id="node2" class="node">
<title>Node2</title>
<g id="a_node2"><a xlink:href="interface_8h.html" target="_top" xlink:title=" ">
<polygon fill="white" stroke="#666666" points="116.16,-195 8.16,-195 8.16,-176 116.16,-176 116.16,-195"/>
<text text-anchor="middle" x="62.16" y="-183" font-family="Helvetica,sans-Serif" font-size="10.00">sd&#45;card/interface.h</text>
</a>
</g>
</g>
<!-- Node1&#45;&gt;Node2 -->
<g id="edge1" class="edge">
<title>Node1&#45;&gt;Node2</title>
<path fill="none" stroke="#63b8ff" d="M207.41,-230.99C174.59,-220.94 130.9,-207.55 100.03,-198.1"/>
<polygon fill="#63b8ff" stroke="#63b8ff" points="100.68,-194.64 90.09,-195.05 98.63,-201.33 100.68,-194.64"/>
</g>
<!-- Node6 -->
<g id="node6" class="node">
<title>Node6</title>
<g id="a_node6"><a xlink:href="globals_8h.html" target="_top" xlink:title=" ">
<polygon fill="white" stroke="#666666" points="283.66,-195 222.66,-195 222.66,-176 283.66,-176 283.66,-195"/>
<text text-anchor="middle" x="253.16" y="-183" font-family="Helvetica,sans-Serif" font-size="10.00">globals.h</text>
</a>
</g>
</g>
<!-- Node1&#45;&gt;Node6 -->
<g id="edge5" class="edge">
<title>Node1&#45;&gt;Node6</title>
<path fill="none" stroke="#63b8ff" d="M253.16,-230.84C253.16,-223.21 253.16,-213.7 253.16,-205.45"/>
<polygon fill="#63b8ff" stroke="#63b8ff" points="256.66,-205.27 253.16,-195.27 249.66,-205.27 256.66,-205.27"/>
</g>
<!-- Node13 -->
<g id="node13" class="node">
<title>Node13</title>
<g id="a_node13"><a xlink:title=" ">
<polygon fill="#e0e0e0" stroke="#999999" points="364.66,-195 301.66,-195 301.66,-176 364.66,-176 364.66,-195"/>
<text text-anchor="middle" x="333.16" y="-183" font-family="Helvetica,sans-Serif" font-size="10.00">esp_log.h</text>
</a>
</g>
</g>
<!-- Node1&#45;&gt;Node13 -->
<g id="edge14" class="edge">
<title>Node1&#45;&gt;Node13</title>
<path fill="none" stroke="#63b8ff" d="M272.53,-230.84C284.73,-221.91 300.47,-210.41 312.85,-201.35"/>
<polygon fill="#63b8ff" stroke="#63b8ff" points="315.17,-203.99 321.18,-195.27 311.04,-198.34 315.17,-203.99"/>
</g>
<!-- Node3 -->
<g id="node3" class="node">
<title>Node3</title>
<g id="a_node3"><a xlink:title=" ">
<polygon fill="#e0e0e0" stroke="#999999" points="127.66,-19 64.66,-19 64.66,0 127.66,0 127.66,-19"/>
<text text-anchor="middle" x="96.16" y="-7" font-family="Helvetica,sans-Serif" font-size="10.00">Arduino.h</text>
</a>
</g>
</g>
<!-- Node2&#45;&gt;Node3 -->
<g id="edge2" class="edge">
<title>Node2&#45;&gt;Node3</title>
<path fill="none" stroke="#63b8ff" d="M43.5,-175.97C29.83,-168.59 12.3,-156.5 4.16,-140 -1.73,-128.04 -0.7,-122.42 4.16,-110 18.4,-73.64 52.84,-42.6 75.31,-25.27"/>
<polygon fill="#63b8ff" stroke="#63b8ff" points="77.64,-27.9 83.55,-19.11 73.45,-22.3 77.64,-27.9"/>
</g>
<!-- Node4 -->
<g id="node4" class="node">
<title>Node4</title>
<g id="a_node4"><a xlink:title=" ">
<polygon fill="#e0e0e0" stroke="#999999" points="52.66,-134.5 13.66,-134.5 13.66,-115.5 52.66,-115.5 52.66,-134.5"/>
<text text-anchor="middle" x="33.16" y="-122.5" font-family="Helvetica,sans-Serif" font-size="10.00">SD.h</text>
</a>
</g>
</g>
<!-- Node2&#45;&gt;Node4 -->
<g id="edge3" class="edge">
<title>Node2&#45;&gt;Node4</title>
<path fill="none" stroke="#63b8ff" d="M57.88,-175.87C53.73,-167.49 47.3,-154.51 42.03,-143.89"/>
<polygon fill="#63b8ff" stroke="#63b8ff" points="45.04,-142.07 37.46,-134.67 38.77,-145.18 45.04,-142.07"/>
</g>
<!-- Node5 -->
<g id="node5" class="node">
<title>Node5</title>
<g id="a_node5"><a xlink:title=" ">
<polygon fill="#e0e0e0" stroke="#999999" points="111.66,-134.5 70.66,-134.5 70.66,-115.5 111.66,-115.5 111.66,-134.5"/>
<text text-anchor="middle" x="91.16" y="-122.5" font-family="Helvetica,sans-Serif" font-size="10.00">SPI.h</text>
</a>
</g>
</g>
<!-- Node2&#45;&gt;Node5 -->
<g id="edge4" class="edge">
<title>Node2&#45;&gt;Node5</title>
<path fill="none" stroke="#63b8ff" d="M66.44,-175.87C70.6,-167.49 77.03,-154.51 82.29,-143.89"/>
<polygon fill="#63b8ff" stroke="#63b8ff" points="85.56,-145.18 86.87,-134.67 79.29,-142.07 85.56,-145.18"/>
</g>
<!-- Node7 -->
<g id="node7" class="node">
<title>Node7</title>
<g id="a_node7"><a xlink:title=" ">
<polygon fill="#e0e0e0" stroke="#999999" points="260.16,-140 130.16,-140 130.16,-110 260.16,-110 260.16,-140"/>
<text text-anchor="start" x="138.16" y="-128" font-family="Helvetica,sans-Serif" font-size="10.00">SparkFun_u&#45;blox_SARA</text>
<text text-anchor="middle" x="195.16" y="-117" font-family="Helvetica,sans-Serif" font-size="10.00">&#45;R5_Arduino_Library.h</text>
</a>
</g>
</g>
<!-- Node6&#45;&gt;Node7 -->
<g id="edge6" class="edge">
<title>Node6&#45;&gt;Node7</title>
<path fill="none" stroke="#63b8ff" d="M244.61,-175.87C237.17,-168.37 226.1,-157.2 216.31,-147.33"/>
<polygon fill="#63b8ff" stroke="#63b8ff" points="218.68,-144.75 209.16,-140.11 213.71,-149.68 218.68,-144.75"/>
</g>
<!-- Node8 -->
<g id="node8" class="node">
<title>Node8</title>
<g id="a_node8"><a xlink:href="_c_a_t___m1_8h.html" target="_top" xlink:title=" ">
<polygon fill="white" stroke="#666666" points="343.66,-134.5 278.66,-134.5 278.66,-115.5 343.66,-115.5 343.66,-134.5"/>
<text text-anchor="middle" x="311.16" y="-122.5" font-family="Helvetica,sans-Serif" font-size="10.00">CAT_M1.h</text>
</a>
</g>
</g>
<!-- Node6&#45;&gt;Node8 -->
<g id="edge7" class="edge">
<title>Node6&#45;&gt;Node8</title>
<path fill="none" stroke="#63b8ff" d="M261.72,-175.87C270.55,-166.97 284.51,-152.89 295.35,-141.95"/>
<polygon fill="#63b8ff" stroke="#63b8ff" points="298.02,-144.23 302.57,-134.67 293.04,-139.3 298.02,-144.23"/>
</g>
<!-- Node11 -->
<g id="node11" class="node">
<title>Node11</title>
<g id="a_node11"><a xlink:href="str__utils_8h.html" target="_top" xlink:title=" ">
<polygon fill="white" stroke="#666666" points="426.66,-134.5 361.66,-134.5 361.66,-115.5 426.66,-115.5 426.66,-134.5"/>
<text text-anchor="middle" x="394.16" y="-122.5" font-family="Helvetica,sans-Serif" font-size="10.00">str_utils.h</text>
</a>
</g>
</g>
<!-- Node6&#45;&gt;Node11 -->
<g id="edge12" class="edge">
<title>Node6&#45;&gt;Node11</title>
<path fill="none" stroke="#63b8ff" d="M273.67,-175.99C297.48,-166.12 336.96,-149.73 364.2,-138.43"/>
<polygon fill="#63b8ff" stroke="#63b8ff" points="365.74,-141.58 373.64,-134.52 363.06,-135.12 365.74,-141.58"/>
</g>
<!-- Node9 -->
<g id="node9" class="node">
<title>Node9</title>
<g id="a_node9"><a xlink:title=" ">
<polygon fill="#e0e0e0" stroke="#999999" points="304.16,-19 256.16,-19 256.16,0 304.16,0 304.16,-19"/>
<text text-anchor="middle" x="280.16" y="-7" font-family="Helvetica,sans-Serif" font-size="10.00">Wire.h</text>
</a>
</g>
</g>
<!-- Node8&#45;&gt;Node9 -->
<g id="edge8" class="edge">
<title>Node8&#45;&gt;Node9</title>
<path fill="none" stroke="#63b8ff" d="M308.83,-115.47C303.83,-97.15 291.96,-53.68 285.16,-28.81"/>
<polygon fill="#63b8ff" stroke="#63b8ff" points="288.53,-27.85 282.52,-19.13 281.78,-29.7 288.53,-27.85"/>
</g>
<!-- Node10 -->
<g id="node10" class="node">
<title>Node10</title>
<g id="a_node10"><a xlink:href="_t_c_a9534_8h.html" target="_top" xlink:title=" ">
<polygon fill="white" stroke="#666666" points="283.16,-74 215.16,-74 215.16,-55 283.16,-55 283.16,-74"/>
<text text-anchor="middle" x="249.16" y="-62" font-family="Helvetica,sans-Serif" font-size="10.00">TCA9534.h</text>
</a>
</g>
</g>
<!-- Node8&#45;&gt;Node10 -->
<g id="edge9" class="edge">
<title>Node8&#45;&gt;Node10</title>
<path fill="none" stroke="#63b8ff" d="M302.02,-115.37C292.49,-106.38 277.37,-92.11 265.73,-81.14"/>
<polygon fill="#63b8ff" stroke="#63b8ff" points="268.03,-78.48 258.35,-74.17 263.22,-83.58 268.03,-78.48"/>
</g>
<!-- Node10&#45;&gt;Node3 -->
<g id="edge10" class="edge">
<title>Node10&#45;&gt;Node3</title>
<path fill="none" stroke="#63b8ff" d="M224.58,-54.98C199.12,-46.16 159.12,-32.31 130.53,-22.41"/>
<polygon fill="#63b8ff" stroke="#63b8ff" points="131.53,-19.05 120.94,-19.08 129.24,-25.66 131.53,-19.05"/>
</g>
<!-- Node10&#45;&gt;Node9 -->
<g id="edge11" class="edge">
<title>Node10&#45;&gt;Node9</title>
<path fill="none" stroke="#63b8ff" d="M254.28,-54.75C258.53,-47.49 264.69,-36.95 269.94,-27.98"/>
<polygon fill="#63b8ff" stroke="#63b8ff" points="273.11,-29.49 275.14,-19.09 267.07,-25.95 273.11,-29.49"/>
</g>
<!-- Node12 -->
<g id="node12" class="node">
<title>Node12</title>
<g id="a_node12"><a xlink:title=" ">
<polygon fill="#e0e0e0" stroke="#999999" points="422.16,-74 366.16,-74 366.16,-55 422.16,-55 422.16,-74"/>
<text text-anchor="middle" x="394.16" y="-62" font-family="Helvetica,sans-Serif" font-size="10.00">stddef.h</text>
</a>
</g>
</g>
<!-- Node11&#45;&gt;Node12 -->
<g id="edge13" class="edge">
<title>Node11&#45;&gt;Node12</title>
<path fill="none" stroke="#63b8ff" d="M394.16,-115.37C394.16,-107.25 394.16,-94.81 394.16,-84.39"/>
<polygon fill="#63b8ff" stroke="#63b8ff" points="397.66,-84.17 394.16,-74.17 390.66,-84.17 397.66,-84.17"/>
</g>
</g>
</svg>
