<?xml version="1.0" encoding="UTF-8" standalone="no"?>
<!DOCTYPE svg PUBLIC "-//W3C//DTD SVG 1.1//EN"
 "http://www.w3.org/Graphics/SVG/1.1/DTD/svg11.dtd">
<!-- Generated by graphviz version 2.43.0 (0)
 -->
<!-- Title: firmware/wombat/include/sd&#45;card/interface.h Pages: 1 -->
<svg width="958pt" height="115pt"
 viewBox="0.00 0.00 958.00 115.00" xmlns="http://www.w3.org/2000/svg" xmlns:xlink="http://www.w3.org/1999/xlink">
<g id="graph0" class="graph" transform="scale(1 1) rotate(0) translate(4 111)">
<title>firmware/wombat/include/sd&#45;card/interface.h</title>
<!-- Node1 -->
<g id="node1" class="node">
<title>Node1</title>
<g id="a_node1"><a xlink:title=" ">
<polygon fill="#999999" stroke="#666666" points="544.5,-107 403.5,-107 403.5,-77 544.5,-77 544.5,-107"/>
<text text-anchor="start" x="411.5" y="-95" font-family="Helvetica,sans-Serif" font-size="10.00">firmware/wombat/include</text>
<text text-anchor="middle" x="474" y="-84" font-family="Helvetica,sans-Serif" font-size="10.00">/sd&#45;card/interface.h</text>
</a>
</g>
</g>
<!-- Node2 -->
<g id="node2" class="node">
<title>Node2</title>
<g id="a_node2"><a xlink:href="_sensor_task_8cpp.html" target="_top" xlink:title=" ">
<polygon fill="white" stroke="#666666" points="120,-35.5 0,-35.5 0,-5.5 120,-5.5 120,-35.5"/>
<text text-anchor="start" x="8" y="-23.5" font-family="Helvetica,sans-Serif" font-size="10.00">firmware/wombat/src</text>
<text text-anchor="middle" x="60" y="-12.5" font-family="Helvetica,sans-Serif" font-size="10.00">/SensorTask.cpp</text>
</a>
</g>
</g>
<!-- Node1&#45;&gt;Node2 -->
<g id="edge1" class="edge">
<title>Node1&#45;&gt;Node2</title>
<path fill="none" stroke="#63b8ff" d="M393.37,-82.36C323.11,-74.1 218.71,-60.09 129,-41 121.69,-39.45 114.02,-37.55 106.56,-35.55"/>
<polygon fill="#63b8ff" stroke="#63b8ff" points="393.14,-85.85 403.48,-83.53 393.95,-78.9 393.14,-85.85"/>
</g>
<!-- Node3 -->
<g id="node3" class="node">
<title>Node3</title>
<g id="a_node3"><a xlink:href="_utils_8cpp.html" target="_top" xlink:title="Global utility functions.">
<polygon fill="white" stroke="#666666" points="258,-35.5 138,-35.5 138,-5.5 258,-5.5 258,-35.5"/>
<text text-anchor="start" x="146" y="-23.5" font-family="Helvetica,sans-Serif" font-size="10.00">firmware/wombat/src</text>
<text text-anchor="middle" x="198" y="-12.5" font-family="Helvetica,sans-Serif" font-size="10.00">/Utils.cpp</text>
</a>
</g>
</g>
<!-- Node1&#45;&gt;Node3 -->
<g id="edge2" class="edge">
<title>Node1&#45;&gt;Node3</title>
<path fill="none" stroke="#63b8ff" d="M403.22,-74.61C363.15,-65.16 312.17,-52.83 267,-41 260.5,-39.3 253.67,-37.44 246.94,-35.58"/>
<polygon fill="#63b8ff" stroke="#63b8ff" points="402.62,-78.07 413.16,-76.95 404.23,-71.26 402.62,-78.07"/>
</g>
<!-- Node4 -->
<g id="node4" class="node">
<title>Node4</title>
<g id="a_node4"><a xlink:href="cli__spiffs_8cpp.html" target="_top" xlink:title="SPIFFS related commands.">
<polygon fill="white" stroke="#666666" points="396,-41 276,-41 276,0 396,0 396,-41"/>
<text text-anchor="start" x="284" y="-29" font-family="Helvetica,sans-Serif" font-size="10.00">firmware/wombat/src</text>
<text text-anchor="start" x="284" y="-18" font-family="Helvetica,sans-Serif" font-size="10.00">/cli/peripherals/cli</text>
<text text-anchor="middle" x="336" y="-7" font-family="Helvetica,sans-Serif" font-size="10.00">_spiffs.cpp</text>
</a>
</g>
</g>
<!-- Node1&#45;&gt;Node4 -->
<g id="edge3" class="edge">
<title>Node1&#45;&gt;Node4</title>
<path fill="none" stroke="#63b8ff" d="M437.02,-72.38C417.81,-62.7 394.34,-50.88 374.87,-41.07"/>
<polygon fill="#63b8ff" stroke="#63b8ff" points="435.57,-75.56 446.07,-76.94 438.72,-69.31 435.57,-75.56"/>
</g>
<!-- Node5 -->
<g id="node5" class="node">
<title>Node5</title>
<g id="a_node5"><a xlink:href="sd__card_8cpp.html" target="_top" xlink:title="SD card filesystem related commands.">
<polygon fill="white" stroke="#666666" points="534,-41 414,-41 414,0 534,0 534,-41"/>
<text text-anchor="start" x="422" y="-29" font-family="Helvetica,sans-Serif" font-size="10.00">firmware/wombat/src</text>
<text text-anchor="start" x="422" y="-18" font-family="Helvetica,sans-Serif" font-size="10.00">/cli/peripherals/sd</text>
<text text-anchor="middle" x="474" y="-7" font-family="Helvetica,sans-Serif" font-size="10.00">_card.cpp</text>
</a>
</g>
</g>
<!-- Node1&#45;&gt;Node5 -->
<g id="edge4" class="edge">
<title>Node1&#45;&gt;Node5</title>
<path fill="none" stroke="#63b8ff" d="M474,-66.91C474,-58.47 474,-49.1 474,-41.07"/>
<polygon fill="#63b8ff" stroke="#63b8ff" points="470.5,-66.94 474,-76.94 477.5,-66.94 470.5,-66.94"/>
</g>
<!-- Node6 -->
<g id="node6" class="node">
<title>Node6</title>
<g id="a_node6"><a xlink:href="ftp__stack_8cpp.html" target="_top" xlink:title=" ">
<polygon fill="white" stroke="#666666" points="672,-35.5 552,-35.5 552,-5.5 672,-5.5 672,-35.5"/>
<text text-anchor="start" x="560" y="-23.5" font-family="Helvetica,sans-Serif" font-size="10.00">firmware/wombat/src</text>
<text text-anchor="middle" x="612" y="-12.5" font-family="Helvetica,sans-Serif" font-size="10.00">/ftp_stack.cpp</text>
</a>
</g>
</g>
<!-- Node1&#45;&gt;Node6 -->
<g id="edge5" class="edge">
<title>Node1&#45;&gt;Node6</title>
<path fill="none" stroke="#63b8ff" d="M511.04,-72.34C534.03,-60.77 563.08,-46.14 584.12,-35.54"/>
<polygon fill="#63b8ff" stroke="#63b8ff" points="509.28,-69.31 501.93,-76.94 512.43,-75.56 509.28,-69.31"/>
</g>
<!-- Node7 -->
<g id="node7" class="node">
<title>Node7</title>
<g id="a_node7"><a xlink:href="main_8cpp.html" target="_top" xlink:title=" ">
<polygon fill="white" stroke="#666666" points="810,-35.5 690,-35.5 690,-5.5 810,-5.5 810,-35.5"/>
<text text-anchor="start" x="698" y="-23.5" font-family="Helvetica,sans-Serif" font-size="10.00">firmware/wombat/src</text>
<text text-anchor="middle" x="750" y="-12.5" font-family="Helvetica,sans-Serif" font-size="10.00">/main.cpp</text>
</a>
</g>
</g>
<!-- Node1&#45;&gt;Node7 -->
<g id="edge6" class="edge">
<title>Node1&#45;&gt;Node7</title>
<path fill="none" stroke="#63b8ff" d="M544.78,-74.61C584.85,-65.16 635.83,-52.83 681,-41 687.5,-39.3 694.33,-37.44 701.06,-35.58"/>
<polygon fill="#63b8ff" stroke="#63b8ff" points="543.77,-71.26 534.84,-76.95 545.38,-78.07 543.77,-71.26"/>
</g>
<!-- Node8 -->
<g id="node8" class="node">
<title>Node8</title>
<g id="a_node8"><a xlink:href="interface_8cpp.html" target="_top" xlink:title=" ">
<polygon fill="white" stroke="#666666" points="950,-35.5 828,-35.5 828,-5.5 950,-5.5 950,-35.5"/>
<text text-anchor="start" x="836" y="-23.5" font-family="Helvetica,sans-Serif" font-size="10.00">firmware/wombat/src</text>
<text text-anchor="middle" x="889" y="-12.5" font-family="Helvetica,sans-Serif" font-size="10.00">/sd&#45;card/interface.cpp</text>
</a>
</g>
</g>
<!-- Node1&#45;&gt;Node8 -->
<g id="edge7" class="edge">
<title>Node1&#45;&gt;Node8</title>
<path fill="none" stroke="#63b8ff" d="M554.61,-82.27C624.86,-73.96 729.25,-59.92 819,-41 826.41,-39.44 834.19,-37.54 841.76,-35.54"/>
<polygon fill="#63b8ff" stroke="#63b8ff" points="554.03,-78.82 544.5,-83.46 554.84,-85.77 554.03,-78.82"/>
</g>
</g>
</svg>
