<?xml version="1.0" encoding="UTF-8" standalone="no"?>
<!DOCTYPE svg PUBLIC "-//W3C//DTD SVG 1.1//EN"
 "http://www.w3.org/Graphics/SVG/1.1/DTD/svg11.dtd">
<!-- Generated by graphviz version 2.43.0 (0)
 -->
<!-- Title: firmware/wombat/src/main.cpp Pages: 1 -->
<svg width="2543pt" height="335pt"
 viewBox="0.00 0.00 2542.93 335.00" xmlns="http://www.w3.org/2000/svg" xmlns:xlink="http://www.w3.org/1999/xlink">
<g id="graph0" class="graph" transform="scale(1 1) rotate(0) translate(4 331)">
<title>firmware/wombat/src/main.cpp</title>
<!-- Node1 -->
<g id="node1" class="node">
<title>Node1</title>
<g id="a_node1"><a xlink:title=" ">
<polygon fill="#999999" stroke="#666666" points="1530.43,-327 1410.43,-327 1410.43,-297 1530.43,-297 1530.43,-327"/>
<text text-anchor="start" x="1418.43" y="-315" font-family="Helvetica,sans-Serif" font-size="10.00">firmware/wombat/src</text>
<text text-anchor="middle" x="1470.43" y="-304" font-family="Helvetica,sans-Serif" font-size="10.00">/main.cpp</text>
</a>
</g>
</g>
<!-- Node2 -->
<g id="node2" class="node">
<title>Node2</title>
<g id="a_node2"><a xlink:title=" ">
<polygon fill="#e0e0e0" stroke="#999999" points="718.93,-19 655.93,-19 655.93,0 718.93,0 718.93,-19"/>
<text text-anchor="middle" x="687.43" y="-7" font-family="Helvetica,sans-Serif" font-size="10.00">Arduino.h</text>
</a>
</g>
</g>
<!-- Node1&#45;&gt;Node2 -->
<g id="edge1" class="edge">
<title>Node1&#45;&gt;Node2</title>
<path fill="none" stroke="#63b8ff" d="M1410.27,-303.42C1337.5,-294.1 1211.33,-277.5 1103.43,-261 1053.52,-253.37 1041.53,-248.22 991.43,-242 941.21,-235.76 571.77,-243.17 537.43,-206 528.38,-196.21 529.35,-186.61 537.43,-176 573.72,-128.28 627.58,-184.8 667.43,-140 694.93,-109.07 693.44,-56.7 690.28,-28.98"/>
<polygon fill="#63b8ff" stroke="#63b8ff" points="693.75,-28.5 688.95,-19.05 686.81,-29.43 693.75,-28.5"/>
</g>
<!-- Node3 -->
<g id="node3" class="node">
<title>Node3</title>
<g id="a_node3"><a xlink:title=" ">
<polygon fill="#e0e0e0" stroke="#999999" points="141.43,-261 79.43,-261 79.43,-242 141.43,-242 141.43,-261"/>
<text text-anchor="middle" x="110.43" y="-249" font-family="Helvetica,sans-Serif" font-size="10.00">version.h</text>
</a>
</g>
</g>
<!-- Node1&#45;&gt;Node3 -->
<g id="edge2" class="edge">
<title>Node1&#45;&gt;Node3</title>
<path fill="none" stroke="#63b8ff" d="M1410.14,-310.09C1188.62,-306.54 419.08,-292.28 151.84,-260.91"/>
<polygon fill="#63b8ff" stroke="#63b8ff" points="152.13,-257.42 141.78,-259.69 151.29,-264.37 152.13,-257.42"/>
</g>
<!-- Node4 -->
<g id="node4" class="node">
<title>Node4</title>
<g id="a_node4"><a xlink:title=" ">
<polygon fill="#e0e0e0" stroke="#999999" points="222.93,-261 159.93,-261 159.93,-242 222.93,-242 222.93,-261"/>
<text text-anchor="middle" x="191.43" y="-249" font-family="Helvetica,sans-Serif" font-size="10.00">esp_log.h</text>
</a>
</g>
</g>
<!-- Node1&#45;&gt;Node4 -->
<g id="edge3" class="edge">
<title>Node1&#45;&gt;Node4</title>
<path fill="none" stroke="#63b8ff" d="M1410.21,-311.58C1231.04,-312.66 685.86,-311.27 237.43,-261 235.96,-260.84 234.48,-260.65 232.98,-260.45"/>
<polygon fill="#63b8ff" stroke="#63b8ff" points="233.42,-256.98 223.01,-258.95 232.38,-263.9 233.42,-256.98"/>
</g>
<!-- Node5 -->
<g id="node5" class="node">
<title>Node5</title>
<g id="a_node5"><a xlink:title=" ">
<polygon fill="#e0e0e0" stroke="#999999" points="1244.93,-134.5 1131.93,-134.5 1131.93,-115.5 1244.93,-115.5 1244.93,-134.5"/>
<text text-anchor="middle" x="1188.43" y="-122.5" font-family="Helvetica,sans-Serif" font-size="10.00">freertos/FreeRTOS.h</text>
</a>
</g>
</g>
<!-- Node1&#45;&gt;Node5 -->
<g id="edge4" class="edge">
<title>Node1&#45;&gt;Node5</title>
<path fill="none" stroke="#63b8ff" d="M1473.22,-296.91C1477.74,-269.57 1483.22,-209.13 1451.43,-176 1389.79,-111.79 1341.75,-157.24 1254.43,-140 1249.04,-138.94 1243.41,-137.79 1237.82,-136.64"/>
<polygon fill="#63b8ff" stroke="#63b8ff" points="1238.33,-133.17 1227.83,-134.55 1236.9,-140.02 1238.33,-133.17"/>
</g>
<!-- Node6 -->
<g id="node6" class="node">
<title>Node6</title>
<g id="a_node6"><a xlink:href="_t_c_a9534_8h.html" target="_top" xlink:title=" ">
<polygon fill="white" stroke="#666666" points="309.43,-74 241.43,-74 241.43,-55 309.43,-55 309.43,-74"/>
<text text-anchor="middle" x="275.43" y="-62" font-family="Helvetica,sans-Serif" font-size="10.00">TCA9534.h</text>
</a>
</g>
</g>
<!-- Node1&#45;&gt;Node6 -->
<g id="edge5" class="edge">
<title>Node1&#45;&gt;Node6</title>
<path fill="none" stroke="#63b8ff" d="M1410.31,-311.15C1148.35,-311.52 117.58,-309.87 70.43,-261 39.06,-228.49 -85.28,-300.68 98.43,-110 116.57,-91.17 184.87,-78.13 231.12,-71.23"/>
<polygon fill="#63b8ff" stroke="#63b8ff" points="231.81,-74.67 241.21,-69.77 230.81,-67.74 231.81,-74.67"/>
</g>
<!-- Node8 -->
<g id="node8" class="node">
<title>Node8</title>
<g id="a_node8"><a xlink:title=" ">
<polygon fill="#e0e0e0" stroke="#999999" points="766.43,-261 682.43,-261 682.43,-242 766.43,-242 766.43,-261"/>
<text text-anchor="middle" x="724.43" y="-249" font-family="Helvetica,sans-Serif" font-size="10.00">driver/rtc_io.h</text>
</a>
</g>
</g>
<!-- Node1&#45;&gt;Node8 -->
<g id="edge8" class="edge">
<title>Node1&#45;&gt;Node8</title>
<path fill="none" stroke="#63b8ff" d="M1410.29,-308.57C1291.24,-303.33 1017,-289.24 776.66,-261.04"/>
<polygon fill="#63b8ff" stroke="#63b8ff" points="777.03,-257.56 766.68,-259.85 776.2,-264.51 777.03,-257.56"/>
</g>
<!-- Node9 -->
<g id="node9" class="node">
<title>Node9</title>
<g id="a_node9"><a xlink:title=" ">
<polygon fill="#e0e0e0" stroke="#999999" points="842.43,-261 784.43,-261 784.43,-242 842.43,-242 842.43,-261"/>
<text text-anchor="middle" x="813.43" y="-249" font-family="Helvetica,sans-Serif" font-size="10.00">soc/rtc.h</text>
</a>
</g>
</g>
<!-- Node1&#45;&gt;Node9 -->
<g id="edge9" class="edge">
<title>Node1&#45;&gt;Node9</title>
<path fill="none" stroke="#63b8ff" d="M1410.35,-308.93C1301.12,-304.56 1062.64,-292.23 852.78,-261"/>
<polygon fill="#63b8ff" stroke="#63b8ff" points="853.22,-257.53 842.81,-259.5 852.18,-264.45 853.22,-257.53"/>
</g>
<!-- Node10 -->
<g id="node10" class="node">
<title>Node10</title>
<g id="a_node10"><a xlink:title=" ">
<polygon fill="#e0e0e0" stroke="#999999" points="982.43,-261 860.43,-261 860.43,-242 982.43,-242 982.43,-261"/>
<text text-anchor="middle" x="921.43" y="-249" font-family="Helvetica,sans-Serif" font-size="10.00">esp_private/esp_clk.h</text>
</a>
</g>
</g>
<!-- Node1&#45;&gt;Node10 -->
<g id="edge10" class="edge">
<title>Node1&#45;&gt;Node10</title>
<path fill="none" stroke="#63b8ff" d="M1410.18,-304.8C1320.13,-295.49 1145.11,-277.27 996.43,-261 995.32,-260.88 994.2,-260.76 993.08,-260.63"/>
<polygon fill="#63b8ff" stroke="#63b8ff" points="993.14,-257.12 982.82,-259.5 992.37,-264.08 993.14,-257.12"/>
</g>
<!-- Node11 -->
<g id="node11" class="node">
<title>Node11</title>
<g id="a_node11"><a xlink:title=" ">
<polygon fill="#e0e0e0" stroke="#999999" points="2250.93,-200.5 2211.93,-200.5 2211.93,-181.5 2250.93,-181.5 2250.93,-200.5"/>
<text text-anchor="middle" x="2231.43" y="-188.5" font-family="Helvetica,sans-Serif" font-size="10.00">SD.h</text>
</a>
</g>
</g>
<!-- Node1&#45;&gt;Node11 -->
<g id="edge11" class="edge">
<title>Node1&#45;&gt;Node11</title>
<path fill="none" stroke="#63b8ff" d="M1530.52,-309.5C1713.34,-304.67 2251.9,-288.15 2277.43,-261 2293.16,-244.26 2271.41,-221.58 2252.79,-206.87"/>
<polygon fill="#63b8ff" stroke="#63b8ff" points="2254.7,-203.93 2244.6,-200.72 2250.5,-209.53 2254.7,-203.93"/>
</g>
<!-- Node12 -->
<g id="node12" class="node">
<title>Node12</title>
<g id="a_node12"><a xlink:title=" ">
<polygon fill="#e0e0e0" stroke="#999999" points="1198.43,-261 1112.43,-261 1112.43,-242 1198.43,-242 1198.43,-261"/>
<text text-anchor="middle" x="1155.43" y="-249" font-family="Helvetica,sans-Serif" font-size="10.00">esp_ota_ops.h</text>
</a>
</g>
</g>
<!-- Node1&#45;&gt;Node12 -->
<g id="edge12" class="edge">
<title>Node1&#45;&gt;Node12</title>
<path fill="none" stroke="#63b8ff" d="M1410.06,-299.79C1351.88,-288.98 1264.66,-272.79 1208.91,-262.43"/>
<polygon fill="#63b8ff" stroke="#63b8ff" points="1209.35,-258.95 1198.88,-260.57 1208.07,-265.84 1209.35,-258.95"/>
</g>
<!-- Node13 -->
<g id="node13" class="node">
<title>Node13</title>
<g id="a_node13"><a xlink:href="globals_8h.html" target="_top" xlink:title=" ">
<polygon fill="white" stroke="#666666" points="449.93,-200.5 388.93,-200.5 388.93,-181.5 449.93,-181.5 449.93,-200.5"/>
<text text-anchor="middle" x="419.43" y="-188.5" font-family="Helvetica,sans-Serif" font-size="10.00">globals.h</text>
</a>
</g>
</g>
<!-- Node1&#45;&gt;Node13 -->
<g id="edge13" class="edge">
<title>Node1&#45;&gt;Node13</title>
<path fill="none" stroke="#63b8ff" d="M1410.22,-311.37C1276.65,-311.27 945.79,-306.06 673.43,-261 593.46,-247.77 502.36,-219.75 453.95,-203.78"/>
<polygon fill="#63b8ff" stroke="#63b8ff" points="454.88,-200.4 444.29,-200.57 452.67,-207.05 454.88,-200.4"/>
</g>
<!-- Node19 -->
<g id="node19" class="node">
<title>Node19</title>
<g id="a_node19"><a xlink:href="_sensor_task_8h.html" target="_top" xlink:title=" ">
<polygon fill="white" stroke="#666666" points="1743.43,-134.5 1663.43,-134.5 1663.43,-115.5 1743.43,-115.5 1743.43,-134.5"/>
<text text-anchor="middle" x="1703.43" y="-122.5" font-family="Helvetica,sans-Serif" font-size="10.00">SensorTask.h</text>
</a>
</g>
</g>
<!-- Node1&#45;&gt;Node19 -->
<g id="edge24" class="edge">
<title>Node1&#45;&gt;Node19</title>
<path fill="none" stroke="#63b8ff" d="M1530.54,-309.68C1585.2,-306.17 1666.55,-295 1728.43,-261 1767.24,-239.67 1801.56,-214.92 1780.43,-176 1771.21,-159.02 1753.46,-146.91 1737.32,-138.87"/>
<polygon fill="#63b8ff" stroke="#63b8ff" points="1738.63,-135.62 1728.08,-134.59 1735.69,-141.97 1738.63,-135.62"/>
</g>
<!-- Node21 -->
<g id="node21" class="node">
<title>Node21</title>
<g id="a_node21"><a xlink:href="_device_config_8h.html" target="_top" xlink:title="Node configuration options.">
<polygon fill="white" stroke="#666666" points="1514.43,-134.5 1424.43,-134.5 1424.43,-115.5 1514.43,-115.5 1514.43,-134.5"/>
<text text-anchor="middle" x="1469.43" y="-122.5" font-family="Helvetica,sans-Serif" font-size="10.00">DeviceConfig.h</text>
</a>
</g>
</g>
<!-- Node1&#45;&gt;Node21 -->
<g id="edge26" class="edge">
<title>Node1&#45;&gt;Node21</title>
<path fill="none" stroke="#63b8ff" d="M1530.53,-308.67C1599.58,-302.38 1710.06,-280.48 1762.43,-206 1770.1,-195.09 1771.03,-186.19 1762.43,-176 1747.27,-158.03 1605.26,-140.31 1524.65,-131.59"/>
<polygon fill="#63b8ff" stroke="#63b8ff" points="1524.97,-128.11 1514.66,-130.52 1524.23,-135.07 1524.97,-128.11"/>
</g>
<!-- Node22 -->
<g id="node22" class="node">
<title>Node22</title>
<g id="a_node22"><a xlink:href="_c_l_i_8h.html" target="_top" xlink:title="FreeRTOS CLI handler.">
<polygon fill="white" stroke="#666666" points="1271.93,-261 1216.93,-261 1216.93,-242 1271.93,-242 1271.93,-261"/>
<text text-anchor="middle" x="1244.43" y="-249" font-family="Helvetica,sans-Serif" font-size="10.00">cli/CLI.h</text>
</a>
</g>
</g>
<!-- Node1&#45;&gt;Node22 -->
<g id="edge29" class="edge">
<title>Node1&#45;&gt;Node22</title>
<path fill="none" stroke="#63b8ff" d="M1416.29,-296.99C1374.76,-286.24 1318.49,-271.67 1281.83,-262.18"/>
<polygon fill="#63b8ff" stroke="#63b8ff" points="1282.6,-258.77 1272.04,-259.65 1280.85,-265.54 1282.6,-258.77"/>
</g>
<!-- Node38 -->
<g id="node38" class="node">
<title>Node38</title>
<g id="a_node38"><a xlink:href="peripherals_8h.html" target="_top" xlink:title=" ">
<polygon fill="white" stroke="#666666" points="1928.43,-200.5 1848.43,-200.5 1848.43,-181.5 1928.43,-181.5 1928.43,-200.5"/>
<text text-anchor="middle" x="1888.43" y="-188.5" font-family="Helvetica,sans-Serif" font-size="10.00">peripherals.h</text>
</a>
</g>
</g>
<!-- Node1&#45;&gt;Node38 -->
<g id="edge71" class="edge">
<title>Node1&#45;&gt;Node38</title>
<path fill="none" stroke="#63b8ff" d="M1530.46,-307.31C1591.99,-302.08 1689.7,-289.7 1769.43,-261 1806.75,-247.56 1845.74,-222.51 1868.52,-206.58"/>
<polygon fill="#63b8ff" stroke="#63b8ff" points="1870.85,-209.21 1876.97,-200.56 1866.79,-203.51 1870.85,-209.21"/>
</g>
<!-- Node39 -->
<g id="node39" class="node">
<title>Node39</title>
<g id="a_node39"><a xlink:href="tones_8h.html" target="_top" xlink:title="Audio control for the onboard piezo buzzer.">
<polygon fill="white" stroke="#666666" points="458.93,-74 327.93,-74 327.93,-55 458.93,-55 458.93,-74"/>
<text text-anchor="middle" x="393.43" y="-62" font-family="Helvetica,sans-Serif" font-size="10.00">audio&#45;feedback/tones.h</text>
</a>
</g>
</g>
<!-- Node1&#45;&gt;Node39 -->
<g id="edge74" class="edge">
<title>Node1&#45;&gt;Node39</title>
<path fill="none" stroke="#63b8ff" d="M1410.19,-311.56C1266.53,-312.05 892.87,-308.23 585.43,-261 369.25,-227.79 242.73,-312.62 108.43,-140 100.24,-129.48 99.76,-120.13 108.43,-110 115.26,-102.02 235.51,-85.39 317.61,-74.87"/>
<polygon fill="#63b8ff" stroke="#63b8ff" points="318.2,-78.33 327.67,-73.59 317.31,-71.38 318.2,-78.33"/>
</g>
<!-- Node40 -->
<g id="node40" class="node">
<title>Node40</title>
<g id="a_node40"><a xlink:href="uplinks_8h.html" target="_top" xlink:title=" ">
<polygon fill="white" stroke="#666666" points="2008.93,-261 1947.93,-261 1947.93,-242 2008.93,-242 2008.93,-261"/>
<text text-anchor="middle" x="1978.43" y="-249" font-family="Helvetica,sans-Serif" font-size="10.00">uplinks.h</text>
</a>
</g>
</g>
<!-- Node1&#45;&gt;Node40 -->
<g id="edge76" class="edge">
<title>Node1&#45;&gt;Node40</title>
<path fill="none" stroke="#63b8ff" d="M1530.53,-306.57C1617.93,-299.69 1785.38,-284.85 1937.89,-260.91"/>
<polygon fill="#63b8ff" stroke="#63b8ff" points="1938.58,-264.35 1947.91,-259.32 1937.49,-257.43 1938.58,-264.35"/>
</g>
<!-- Node41 -->
<g id="node41" class="node">
<title>Node41</title>
<g id="a_node41"><a xlink:href="ulp_8h.html" target="_top" xlink:title=" ">
<polygon fill="white" stroke="#666666" points="2067.93,-261 2026.93,-261 2026.93,-242 2067.93,-242 2067.93,-261"/>
<text text-anchor="middle" x="2047.43" y="-249" font-family="Helvetica,sans-Serif" font-size="10.00">ulp.h</text>
</a>
</g>
</g>
<!-- Node1&#45;&gt;Node41 -->
<g id="edge77" class="edge">
<title>Node1&#45;&gt;Node41</title>
<path fill="none" stroke="#63b8ff" d="M1530.56,-309.33C1630.15,-305.72 1835.57,-294.76 2016.67,-261.01"/>
<polygon fill="#63b8ff" stroke="#63b8ff" points="2017.46,-264.42 2026.64,-259.12 2016.16,-257.54 2017.46,-264.42"/>
</g>
<!-- Node42 -->
<g id="node42" class="node">
<title>Node42</title>
<g id="a_node42"><a xlink:title=" ">
<polygon fill="#e0e0e0" stroke="#999999" points="2148.43,-261 2086.43,-261 2086.43,-242 2148.43,-242 2148.43,-261"/>
<text text-anchor="middle" x="2117.43" y="-249" font-family="Helvetica,sans-Serif" font-size="10.00">soc/soc.h</text>
</a>
</g>
</g>
<!-- Node1&#45;&gt;Node42 -->
<g id="edge78" class="edge">
<title>Node1&#45;&gt;Node42</title>
<path fill="none" stroke="#63b8ff" d="M1530.59,-308.58C1638.18,-303.71 1870.74,-290.65 2075.99,-261.03"/>
<polygon fill="#63b8ff" stroke="#63b8ff" points="2076.66,-264.47 2086.05,-259.56 2075.65,-257.54 2076.66,-264.47"/>
</g>
<!-- Node43 -->
<g id="node43" class="node">
<title>Node43</title>
<g id="a_node43"><a xlink:title=" ">
<polygon fill="#e0e0e0" stroke="#999999" points="2268.43,-261 2166.43,-261 2166.43,-242 2268.43,-242 2268.43,-261"/>
<text text-anchor="middle" x="2217.43" y="-249" font-family="Helvetica,sans-Serif" font-size="10.00">soc/rtc_cntl_reg.h</text>
</a>
</g>
</g>
<!-- Node1&#45;&gt;Node43 -->
<g id="edge79" class="edge">
<title>Node1&#45;&gt;Node43</title>
<path fill="none" stroke="#63b8ff" d="M1530.74,-307.99C1648.76,-301.81 1918.67,-286.19 2156.18,-261.06"/>
<polygon fill="#63b8ff" stroke="#63b8ff" points="2156.82,-264.51 2166.39,-259.97 2156.08,-257.55 2156.82,-264.51"/>
</g>
<!-- Node44 -->
<g id="node44" class="node">
<title>Node44</title>
<g id="a_node44"><a xlink:href="interface_8h.html" target="_top" xlink:title=" ">
<polygon fill="white" stroke="#666666" points="1929.43,-261 1821.43,-261 1821.43,-242 1929.43,-242 1929.43,-261"/>
<text text-anchor="middle" x="1875.43" y="-249" font-family="Helvetica,sans-Serif" font-size="10.00">sd&#45;card/interface.h</text>
</a>
</g>
</g>
<!-- Node1&#45;&gt;Node44 -->
<g id="edge80" class="edge">
<title>Node1&#45;&gt;Node44</title>
<path fill="none" stroke="#63b8ff" d="M1530.62,-302.31C1605.91,-291.43 1734.26,-272.89 1811.33,-261.76"/>
<polygon fill="#63b8ff" stroke="#63b8ff" points="1811.99,-265.2 1821.39,-260.31 1810.99,-258.27 1811.99,-265.2"/>
</g>
<!-- Node46 -->
<g id="node46" class="node">
<title>Node46</title>
<g id="a_node46"><a xlink:title=" ">
<polygon fill="#e0e0e0" stroke="#999999" points="2427.93,-261 2324.93,-261 2324.93,-242 2427.93,-242 2427.93,-261"/>
<text text-anchor="middle" x="2376.43" y="-249" font-family="Helvetica,sans-Serif" font-size="10.00">freertos/semphr.h</text>
</a>
</g>
</g>
<!-- Node1&#45;&gt;Node46 -->
<g id="edge84" class="edge">
<title>Node1&#45;&gt;Node46</title>
<path fill="none" stroke="#63b8ff" d="M1530.63,-308.84C1668.72,-303.56 2018.8,-288.43 2310.43,-261 2311.72,-260.88 2313.03,-260.75 2314.35,-260.62"/>
<polygon fill="#63b8ff" stroke="#63b8ff" points="2315.02,-264.07 2324.58,-259.52 2314.27,-257.11 2315.02,-264.07"/>
</g>
<!-- Node47 -->
<g id="node47" class="node">
<title>Node47</title>
<g id="a_node47"><a xlink:title=" ">
<polygon fill="#e0e0e0" stroke="#999999" points="2534.93,-261 2445.93,-261 2445.93,-242 2534.93,-242 2534.93,-261"/>
<text text-anchor="middle" x="2490.43" y="-249" font-family="Helvetica,sans-Serif" font-size="10.00">esp_partition.h</text>
</a>
</g>
</g>
<!-- Node1&#45;&gt;Node47 -->
<g id="edge85" class="edge">
<title>Node1&#45;&gt;Node47</title>
<path fill="none" stroke="#63b8ff" d="M1530.58,-310.13C1681.36,-307.48 2087.72,-297.34 2435.64,-261.08"/>
<polygon fill="#63b8ff" stroke="#63b8ff" points="2436.07,-264.55 2445.65,-260.03 2435.34,-257.59 2436.07,-264.55"/>
</g>
<!-- Node6&#45;&gt;Node2 -->
<g id="edge6" class="edge">
<title>Node6&#45;&gt;Node2</title>
<path fill="none" stroke="#63b8ff" d="M309.65,-56.49C312.62,-55.96 315.57,-55.45 318.43,-55 436.63,-36.22 577.25,-21.29 645.76,-14.49"/>
<polygon fill="#63b8ff" stroke="#63b8ff" points="646.12,-17.98 655.73,-13.51 645.43,-11.01 646.12,-17.98"/>
</g>
<!-- Node7 -->
<g id="node7" class="node">
<title>Node7</title>
<g id="a_node7"><a xlink:title=" ">
<polygon fill="#e0e0e0" stroke="#999999" points="268.43,-19 220.43,-19 220.43,0 268.43,0 268.43,-19"/>
<text text-anchor="middle" x="244.43" y="-7" font-family="Helvetica,sans-Serif" font-size="10.00">Wire.h</text>
</a>
</g>
</g>
<!-- Node6&#45;&gt;Node7 -->
<g id="edge7" class="edge">
<title>Node6&#45;&gt;Node7</title>
<path fill="none" stroke="#63b8ff" d="M270.31,-54.75C266.06,-47.49 259.9,-36.95 254.65,-27.98"/>
<polygon fill="#63b8ff" stroke="#63b8ff" points="257.52,-25.95 249.45,-19.09 251.48,-29.49 257.52,-25.95"/>
</g>
<!-- Node14 -->
<g id="node14" class="node">
<title>Node14</title>
<g id="a_node14"><a xlink:href="battery_8h.html" target="_top" xlink:title="Battery voltage and current monitoring using INA219 IC.">
<polygon fill="white" stroke="#666666" points="658.93,-134.5 507.93,-134.5 507.93,-115.5 658.93,-115.5 658.93,-134.5"/>
<text text-anchor="middle" x="583.43" y="-122.5" font-family="Helvetica,sans-Serif" font-size="10.00">power_monitoring/battery.h</text>
</a>
</g>
</g>
<!-- Node13&#45;&gt;Node14 -->
<g id="edge14" class="edge">
<title>Node13&#45;&gt;Node14</title>
<path fill="none" stroke="#63b8ff" d="M441.54,-181.37C469.99,-170.27 519.57,-150.92 551.95,-138.28"/>
<polygon fill="#63b8ff" stroke="#63b8ff" points="553.35,-141.49 561.4,-134.6 550.81,-134.97 553.35,-141.49"/>
</g>
<!-- Node16 -->
<g id="node16" class="node">
<title>Node16</title>
<g id="a_node16"><a xlink:href="solar_8h.html" target="_top" xlink:title="Solar voltage and current monitoring using INA219 IC.">
<polygon fill="white" stroke="#666666" points="489.43,-134.5 349.43,-134.5 349.43,-115.5 489.43,-115.5 489.43,-134.5"/>
<text text-anchor="middle" x="419.43" y="-122.5" font-family="Helvetica,sans-Serif" font-size="10.00">power_monitoring/solar.h</text>
</a>
</g>
</g>
<!-- Node13&#45;&gt;Node16 -->
<g id="edge17" class="edge">
<title>Node13&#45;&gt;Node16</title>
<path fill="none" stroke="#63b8ff" d="M419.43,-181.37C419.43,-172.16 419.43,-157.29 419.43,-145.27"/>
<polygon fill="#63b8ff" stroke="#63b8ff" points="422.93,-144.91 419.43,-134.91 415.93,-144.91 422.93,-144.91"/>
</g>
<!-- Node17 -->
<g id="node17" class="node">
<title>Node17</title>
<g id="a_node17"><a xlink:title=" ">
<polygon fill="#e0e0e0" stroke="#999999" points="247.43,-140 117.43,-140 117.43,-110 247.43,-110 247.43,-140"/>
<text text-anchor="start" x="125.43" y="-128" font-family="Helvetica,sans-Serif" font-size="10.00">SparkFun_u&#45;blox_SARA</text>
<text text-anchor="middle" x="182.43" y="-117" font-family="Helvetica,sans-Serif" font-size="10.00">&#45;R5_Arduino_Library.h</text>
</a>
</g>
</g>
<!-- Node13&#45;&gt;Node17 -->
<g id="edge20" class="edge">
<title>Node13&#45;&gt;Node17</title>
<path fill="none" stroke="#63b8ff" d="M388.44,-181.63C352.09,-171.82 290.91,-155.29 244.64,-142.8"/>
<polygon fill="#63b8ff" stroke="#63b8ff" points="245.27,-139.35 234.71,-140.12 243.45,-146.1 245.27,-139.35"/>
</g>
<!-- Node18 -->
<g id="node18" class="node">
<title>Node18</title>
<g id="a_node18"><a xlink:href="_c_a_t___m1_8h.html" target="_top" xlink:title=" ">
<polygon fill="white" stroke="#666666" points="330.93,-134.5 265.93,-134.5 265.93,-115.5 330.93,-115.5 330.93,-134.5"/>
<text text-anchor="middle" x="298.43" y="-122.5" font-family="Helvetica,sans-Serif" font-size="10.00">CAT_M1.h</text>
</a>
</g>
</g>
<!-- Node13&#45;&gt;Node18 -->
<g id="edge21" class="edge">
<title>Node13&#45;&gt;Node18</title>
<path fill="none" stroke="#63b8ff" d="M403.11,-181.37C382.72,-170.59 347.62,-152.02 323.73,-139.38"/>
<polygon fill="#63b8ff" stroke="#63b8ff" points="325.35,-136.28 314.87,-134.7 322.08,-142.47 325.35,-136.28"/>
</g>
<!-- Node14&#45;&gt;Node2 -->
<g id="edge15" class="edge">
<title>Node14&#45;&gt;Node2</title>
<path fill="none" stroke="#63b8ff" d="M591.58,-115.16C600.78,-105.17 616.2,-88.43 629.43,-74 644.16,-57.93 660.95,-39.53 672.67,-26.69"/>
<polygon fill="#63b8ff" stroke="#63b8ff" points="675.4,-28.88 679.56,-19.14 670.23,-24.17 675.4,-28.88"/>
</g>
<!-- Node15 -->
<g id="node15" class="node">
<title>Node15</title>
<g id="a_node15"><a xlink:title=" ">
<polygon fill="#e0e0e0" stroke="#999999" points="620.93,-74 515.93,-74 515.93,-55 620.93,-55 620.93,-74"/>
<text text-anchor="middle" x="568.43" y="-62" font-family="Helvetica,sans-Serif" font-size="10.00">Adafruit_INA219.h</text>
</a>
</g>
</g>
<!-- Node14&#45;&gt;Node15 -->
<g id="edge16" class="edge">
<title>Node14&#45;&gt;Node15</title>
<path fill="none" stroke="#63b8ff" d="M581.21,-115.37C579.11,-107.16 575.87,-94.54 573.18,-84.05"/>
<polygon fill="#63b8ff" stroke="#63b8ff" points="576.52,-82.98 570.65,-74.17 569.74,-84.72 576.52,-82.98"/>
</g>
<!-- Node16&#45;&gt;Node2 -->
<g id="edge18" class="edge">
<title>Node16&#45;&gt;Node2</title>
<path fill="none" stroke="#63b8ff" d="M427.69,-115.36C442.22,-100.69 473.88,-70.95 506.43,-55 551.18,-33.06 607.6,-21.41 645.45,-15.61"/>
<polygon fill="#63b8ff" stroke="#63b8ff" points="646.22,-19.04 655.6,-14.13 645.2,-12.11 646.22,-19.04"/>
</g>
<!-- Node16&#45;&gt;Node15 -->
<g id="edge19" class="edge">
<title>Node16&#45;&gt;Node15</title>
<path fill="none" stroke="#63b8ff" d="M441.09,-115.49C466.36,-105.57 508.34,-89.09 537.15,-77.78"/>
<polygon fill="#63b8ff" stroke="#63b8ff" points="538.71,-80.93 546.73,-74.02 536.15,-74.41 538.71,-80.93"/>
</g>
<!-- Node18&#45;&gt;Node6 -->
<g id="edge23" class="edge">
<title>Node18&#45;&gt;Node6</title>
<path fill="none" stroke="#63b8ff" d="M295.03,-115.37C291.77,-107.07 286.74,-94.28 282.59,-83.72"/>
<polygon fill="#63b8ff" stroke="#63b8ff" points="285.75,-82.19 278.83,-74.17 279.24,-84.75 285.75,-82.19"/>
</g>
<!-- Node18&#45;&gt;Node7 -->
<g id="edge22" class="edge">
<title>Node18&#45;&gt;Node7</title>
<path fill="none" stroke="#63b8ff" d="M279.1,-115.48C263.31,-107.34 242.09,-93.44 232.43,-74 225.34,-59.73 229.81,-41.75 235.19,-28.57"/>
<polygon fill="#63b8ff" stroke="#63b8ff" points="238.51,-29.73 239.51,-19.19 232.15,-26.81 238.51,-29.73"/>
</g>
<!-- Node20 -->
<g id="node20" class="node">
<title>Node20</title>
<g id="a_node20"><a xlink:title=" ">
<polygon fill="#e0e0e0" stroke="#999999" points="1440.93,-74 1357.93,-74 1357.93,-55 1440.93,-55 1440.93,-74"/>
<text text-anchor="middle" x="1399.43" y="-62" font-family="Helvetica,sans-Serif" font-size="10.00">ArduinoJson.h</text>
</a>
</g>
</g>
<!-- Node19&#45;&gt;Node20 -->
<g id="edge25" class="edge">
<title>Node19&#45;&gt;Node20</title>
<path fill="none" stroke="#63b8ff" d="M1663.37,-116.29C1608.81,-105.79 1511.06,-86.98 1451.05,-75.43"/>
<polygon fill="#63b8ff" stroke="#63b8ff" points="1451.51,-71.96 1441.03,-73.51 1450.19,-78.83 1451.51,-71.96"/>
</g>
<!-- Node21&#45;&gt;Node2 -->
<g id="edge27" class="edge">
<title>Node21&#45;&gt;Node2</title>
<path fill="none" stroke="#63b8ff" d="M1469.82,-115.08C1469.95,-99.98 1467.75,-69.63 1449.43,-55 1393.03,-10 881.16,-9.36 729.55,-10.17"/>
<polygon fill="#63b8ff" stroke="#63b8ff" points="729.25,-6.67 719.27,-10.23 729.29,-13.67 729.25,-6.67"/>
</g>
<!-- Node21&#45;&gt;Node20 -->
<g id="edge28" class="edge">
<title>Node21&#45;&gt;Node20</title>
<path fill="none" stroke="#63b8ff" d="M1459.1,-115.37C1448.24,-106.3 1430.94,-91.84 1417.76,-80.82"/>
<polygon fill="#63b8ff" stroke="#63b8ff" points="1419.72,-77.89 1409.8,-74.17 1415.23,-83.27 1419.72,-77.89"/>
</g>
<!-- Node22&#45;&gt;Node2 -->
<g id="edge30" class="edge">
<title>Node22&#45;&gt;Node2</title>
<path fill="none" stroke="#63b8ff" d="M1272.27,-249.77C1398.78,-246.3 1914.28,-230.68 1937.43,-206 1946.55,-196.27 1944.57,-187.26 1937.43,-176 1900.59,-117.91 1862.38,-132.66 1797.43,-110 1696.56,-74.81 1669.2,-69.99 1563.43,-55 1244.83,-9.84 855.34,-8.91 729.07,-9.97"/>
<polygon fill="#63b8ff" stroke="#63b8ff" points="729.02,-6.47 719.05,-10.06 729.08,-13.47 729.02,-6.47"/>
</g>
<!-- Node22&#45;&gt;Node5 -->
<g id="edge31" class="edge">
<title>Node22&#45;&gt;Node5</title>
<path fill="none" stroke="#63b8ff" d="M1225.16,-241.9C1211.3,-234.55 1193.67,-222.54 1185.43,-206 1175.87,-186.82 1178.91,-161.71 1182.85,-144.78"/>
<polygon fill="#63b8ff" stroke="#63b8ff" points="1186.27,-145.55 1185.44,-134.98 1179.5,-143.76 1186.27,-145.55"/>
</g>
<!-- Node23 -->
<g id="node23" class="node">
<title>Node23</title>
<g id="a_node23"><a xlink:title=" ">
<polygon fill="#e0e0e0" stroke="#999999" points="822.93,-134.5 715.93,-134.5 715.93,-115.5 822.93,-115.5 822.93,-134.5"/>
<text text-anchor="middle" x="769.43" y="-122.5" font-family="Helvetica,sans-Serif" font-size="10.00">cli/FreeRTOS_CLI.h</text>
</a>
</g>
</g>
<!-- Node22&#45;&gt;Node23 -->
<g id="edge32" class="edge">
<title>Node22&#45;&gt;Node23</title>
<path fill="none" stroke="#63b8ff" d="M1216.64,-243.58C1213.55,-242.97 1210.43,-242.42 1207.43,-242 1134.7,-231.74 597.92,-259.33 547.43,-206 538.26,-196.32 539.1,-186.41 547.43,-176 550.14,-172.61 653.87,-150.29 718.56,-136.64"/>
<polygon fill="#63b8ff" stroke="#63b8ff" points="719.52,-140.01 728.59,-134.53 718.08,-133.16 719.52,-140.01"/>
</g>
<!-- Node24 -->
<g id="node24" class="node">
<title>Node24</title>
<g id="a_node24"><a xlink:href="cat-m1_8h.html" target="_top" xlink:title="CAT&#45;M1 CLI command request and response handler.">
<polygon fill="white" stroke="#666666" points="688.43,-200.5 556.43,-200.5 556.43,-181.5 688.43,-181.5 688.43,-200.5"/>
<text text-anchor="middle" x="622.43" y="-188.5" font-family="Helvetica,sans-Serif" font-size="10.00">cli/peripherals/cat&#45;m1.h</text>
</a>
</g>
</g>
<!-- Node22&#45;&gt;Node24 -->
<g id="edge33" class="edge">
<title>Node22&#45;&gt;Node24</title>
<path fill="none" stroke="#63b8ff" d="M1216.63,-243.63C1213.54,-243.01 1210.43,-242.45 1207.43,-242 982.69,-208.46 922.81,-234.9 697.43,-206 689.67,-205.01 681.5,-203.72 673.52,-202.34"/>
<polygon fill="#63b8ff" stroke="#63b8ff" points="674.02,-198.88 663.56,-200.55 672.78,-205.77 674.02,-198.88"/>
</g>
<!-- Node27 -->
<g id="node27" class="node">
<title>Node27</title>
<g id="a_node27"><a xlink:href="sdi12_8h.html" target="_top" xlink:title="SDI&#45;12 command line interface handler.">
<polygon fill="white" stroke="#666666" points="948.43,-200.5 824.43,-200.5 824.43,-181.5 948.43,-181.5 948.43,-200.5"/>
<text text-anchor="middle" x="886.43" y="-188.5" font-family="Helvetica,sans-Serif" font-size="10.00">cli/peripherals/sdi12.h</text>
</a>
</g>
</g>
<!-- Node22&#45;&gt;Node27 -->
<g id="edge39" class="edge">
<title>Node22&#45;&gt;Node27</title>
<path fill="none" stroke="#63b8ff" d="M1216.59,-243.88C1213.51,-243.21 1210.4,-242.57 1207.43,-242 1104.96,-222.31 1078.52,-222.11 975.43,-206 967.41,-204.75 958.98,-203.43 950.64,-202.12"/>
<polygon fill="#63b8ff" stroke="#63b8ff" points="950.97,-198.63 940.55,-200.53 949.88,-205.54 950.97,-198.63"/>
</g>
<!-- Node31 -->
<g id="node31" class="node">
<title>Node31</title>
<g id="a_node31"><a xlink:href="cli__power_8h.html" target="_top" xlink:title=" ">
<polygon fill="white" stroke="#666666" points="806.43,-206 706.43,-206 706.43,-176 806.43,-176 806.43,-206"/>
<text text-anchor="start" x="714.43" y="-194" font-family="Helvetica,sans-Serif" font-size="10.00">cli/peripherals/cli</text>
<text text-anchor="middle" x="756.43" y="-183" font-family="Helvetica,sans-Serif" font-size="10.00">_power.h</text>
</a>
</g>
</g>
<!-- Node22&#45;&gt;Node31 -->
<g id="edge50" class="edge">
<title>Node22&#45;&gt;Node31</title>
<path fill="none" stroke="#63b8ff" d="M1216.63,-243.69C1213.53,-243.06 1210.42,-242.48 1207.43,-242 1037.88,-214.86 989.86,-233.54 816.51,-206.01"/>
<polygon fill="#63b8ff" stroke="#63b8ff" points="816.97,-202.54 806.54,-204.4 815.85,-209.45 816.97,-202.54"/>
</g>
<!-- Node32 -->
<g id="node32" class="node">
<title>Node32</title>
<g id="a_node32"><a xlink:href="sd__card_8h.html" target="_top" xlink:title=" ">
<polygon fill="white" stroke="#666666" points="1294.43,-206 1194.43,-206 1194.43,-176 1294.43,-176 1294.43,-206"/>
<text text-anchor="start" x="1202.43" y="-194" font-family="Helvetica,sans-Serif" font-size="10.00">cli/peripherals/sd</text>
<text text-anchor="middle" x="1244.43" y="-183" font-family="Helvetica,sans-Serif" font-size="10.00">_card.h</text>
</a>
</g>
</g>
<!-- Node22&#45;&gt;Node32 -->
<g id="edge56" class="edge">
<title>Node22&#45;&gt;Node32</title>
<path fill="none" stroke="#63b8ff" d="M1244.43,-241.87C1244.43,-235.11 1244.43,-225.35 1244.43,-216.26"/>
<polygon fill="#63b8ff" stroke="#63b8ff" points="1247.93,-216.11 1244.43,-206.11 1240.93,-216.11 1247.93,-216.11"/>
</g>
<!-- Node34 -->
<g id="node34" class="node">
<title>Node34</title>
<g id="a_node34"><a xlink:href="acquisition__intervals_8h.html" target="_top" xlink:title="Handles the time between measurements and uplinks by the device over LTE.">
<polygon fill="white" stroke="#666666" points="1138.43,-206 984.43,-206 984.43,-176 1138.43,-176 1138.43,-206"/>
<text text-anchor="start" x="992.43" y="-194" font-family="Helvetica,sans-Serif" font-size="10.00">cli/device_config/acquisition</text>
<text text-anchor="middle" x="1061.43" y="-183" font-family="Helvetica,sans-Serif" font-size="10.00">_intervals.h</text>
</a>
</g>
</g>
<!-- Node22&#45;&gt;Node34 -->
<g id="edge59" class="edge">
<title>Node22&#45;&gt;Node34</title>
<path fill="none" stroke="#63b8ff" d="M1217.82,-241.99C1191.02,-233.43 1148.93,-219.97 1115.16,-209.18"/>
<polygon fill="#63b8ff" stroke="#63b8ff" points="1116.01,-205.78 1105.42,-206.06 1113.88,-212.44 1116.01,-205.78"/>
</g>
<!-- Node35 -->
<g id="node35" class="node">
<title>Node35</title>
<g id="a_node35"><a xlink:href="mqtt__cli_8h.html" target="_top" xlink:title="MQTT setup and configuration through the CLI.">
<polygon fill="white" stroke="#666666" points="1622.43,-206 1498.43,-206 1498.43,-176 1622.43,-176 1622.43,-206"/>
<text text-anchor="start" x="1506.43" y="-194" font-family="Helvetica,sans-Serif" font-size="10.00">cli/device_config/mqtt</text>
<text text-anchor="middle" x="1560.43" y="-183" font-family="Helvetica,sans-Serif" font-size="10.00">_cli.h</text>
</a>
</g>
</g>
<!-- Node22&#45;&gt;Node35 -->
<g id="edge65" class="edge">
<title>Node22&#45;&gt;Node35</title>
<path fill="none" stroke="#63b8ff" d="M1272.19,-245.36C1320.14,-236.48 1419.89,-218.02 1488.49,-205.32"/>
<polygon fill="#63b8ff" stroke="#63b8ff" points="1489.18,-208.75 1498.38,-203.49 1487.91,-201.87 1489.18,-208.75"/>
</g>
<!-- Node36 -->
<g id="node36" class="node">
<title>Node36</title>
<g id="a_node36"><a xlink:href="ftp__cli_8h.html" target="_top" xlink:title="FTP setup and configuration through the CLI.">
<polygon fill="white" stroke="#666666" points="1753.93,-206 1640.93,-206 1640.93,-176 1753.93,-176 1753.93,-206"/>
<text text-anchor="start" x="1648.93" y="-194" font-family="Helvetica,sans-Serif" font-size="10.00">cli/device_config/ftp</text>
<text text-anchor="middle" x="1697.43" y="-183" font-family="Helvetica,sans-Serif" font-size="10.00">_cli.h</text>
</a>
</g>
</g>
<!-- Node22&#45;&gt;Node36 -->
<g id="edge67" class="edge">
<title>Node22&#45;&gt;Node36</title>
<path fill="none" stroke="#63b8ff" d="M1272.24,-248.21C1334.52,-242.89 1490.08,-228.53 1630.52,-206.04"/>
<polygon fill="#63b8ff" stroke="#63b8ff" points="1631.3,-209.46 1640.61,-204.41 1630.18,-202.55 1631.3,-209.46"/>
</g>
<!-- Node37 -->
<g id="node37" class="node">
<title>Node37</title>
<g id="a_node37"><a xlink:href="config__cli_8h.html" target="_top" xlink:title=" ">
<polygon fill="white" stroke="#666666" points="1442.43,-206 1312.43,-206 1312.43,-176 1442.43,-176 1442.43,-206"/>
<text text-anchor="start" x="1320.43" y="-194" font-family="Helvetica,sans-Serif" font-size="10.00">cli/device_config/config</text>
<text text-anchor="middle" x="1377.43" y="-183" font-family="Helvetica,sans-Serif" font-size="10.00">_cli.h</text>
</a>
</g>
</g>
<!-- Node22&#45;&gt;Node37 -->
<g id="edge69" class="edge">
<title>Node22&#45;&gt;Node37</title>
<path fill="none" stroke="#63b8ff" d="M1263.77,-241.99C1282.66,-233.68 1312.01,-220.78 1336.15,-210.16"/>
<polygon fill="#63b8ff" stroke="#63b8ff" points="1337.71,-213.29 1345.45,-206.06 1334.89,-206.89 1337.71,-213.29"/>
</g>
<!-- Node24&#45;&gt;Node5 -->
<g id="edge34" class="edge">
<title>Node24&#45;&gt;Node5</title>
<path fill="none" stroke="#63b8ff" d="M663.96,-181.48C674.82,-179.46 686.53,-177.47 697.43,-176 885.28,-150.58 934.9,-167.72 1122.43,-140 1128.81,-139.06 1135.51,-137.87 1142.09,-136.59"/>
<polygon fill="#63b8ff" stroke="#63b8ff" points="1143.16,-139.94 1152.26,-134.52 1141.77,-133.08 1143.16,-139.94"/>
</g>
<!-- Node24&#45;&gt;Node18 -->
<g id="edge38" class="edge">
<title>Node24&#45;&gt;Node18</title>
<path fill="none" stroke="#63b8ff" d="M559.14,-181.49C501.62,-173.11 414.64,-158.84 340.43,-140 337.63,-139.29 334.76,-138.49 331.88,-137.64"/>
<polygon fill="#63b8ff" stroke="#63b8ff" points="332.82,-134.26 322.23,-134.61 330.73,-140.94 332.82,-134.26"/>
</g>
<!-- Node24&#45;&gt;Node23 -->
<g id="edge37" class="edge">
<title>Node24&#45;&gt;Node23</title>
<path fill="none" stroke="#63b8ff" d="M642.25,-181.37C667.46,-170.39 711.18,-151.36 740.21,-138.72"/>
<polygon fill="#63b8ff" stroke="#63b8ff" points="741.67,-141.9 749.45,-134.7 738.88,-135.48 741.67,-141.9"/>
</g>
<!-- Node25 -->
<g id="node25" class="node">
<title>Node25</title>
<g id="a_node25"><a xlink:title=" ">
<polygon fill="#e0e0e0" stroke="#999999" points="901.93,-134.5 840.93,-134.5 840.93,-115.5 901.93,-115.5 901.93,-134.5"/>
<text text-anchor="middle" x="871.43" y="-122.5" font-family="Helvetica,sans-Serif" font-size="10.00">Stream.h</text>
</a>
</g>
</g>
<!-- Node24&#45;&gt;Node25 -->
<g id="edge35" class="edge">
<title>Node24&#45;&gt;Node25</title>
<path fill="none" stroke="#63b8ff" d="M663.6,-181.45C705.99,-172.34 773.8,-156.93 831.43,-140 833.84,-139.29 836.31,-138.52 838.8,-137.73"/>
<polygon fill="#63b8ff" stroke="#63b8ff" points="839.92,-141.04 848.29,-134.55 837.7,-134.4 839.92,-141.04"/>
</g>
<!-- Node26 -->
<g id="node26" class="node">
<title>Node26</title>
<g id="a_node26"><a xlink:title=" ">
<polygon fill="#e0e0e0" stroke="#999999" points="1008.93,-134.5 919.93,-134.5 919.93,-115.5 1008.93,-115.5 1008.93,-134.5"/>
<text text-anchor="middle" x="964.43" y="-122.5" font-family="Helvetica,sans-Serif" font-size="10.00">StreamString.h</text>
</a>
</g>
</g>
<!-- Node24&#45;&gt;Node26 -->
<g id="edge36" class="edge">
<title>Node24&#45;&gt;Node26</title>
<path fill="none" stroke="#63b8ff" d="M667.62,-181.44C677.44,-179.61 687.78,-177.72 697.43,-176 791.95,-159.19 816.54,-160.07 910.43,-140 914.64,-139.1 919.01,-138.09 923.37,-137.04"/>
<polygon fill="#63b8ff" stroke="#63b8ff" points="924.56,-140.35 933.41,-134.53 922.86,-133.56 924.56,-140.35"/>
</g>
<!-- Node27&#45;&gt;Node5 -->
<g id="edge40" class="edge">
<title>Node27&#45;&gt;Node5</title>
<path fill="none" stroke="#63b8ff" d="M926.93,-181.42C973.95,-171.46 1053.8,-154.55 1122.43,-140 1127.52,-138.92 1132.84,-137.79 1138.15,-136.67"/>
<polygon fill="#63b8ff" stroke="#63b8ff" points="1139.23,-140.01 1148.29,-134.52 1137.78,-133.17 1139.23,-140.01"/>
</g>
<!-- Node27&#45;&gt;Node23 -->
<g id="edge45" class="edge">
<title>Node27&#45;&gt;Node23</title>
<path fill="none" stroke="#63b8ff" d="M870.65,-181.37C851.02,-170.63 817.29,-152.18 794.2,-139.55"/>
<polygon fill="#63b8ff" stroke="#63b8ff" points="795.78,-136.43 785.33,-134.7 792.42,-142.57 795.78,-136.43"/>
</g>
<!-- Node27&#45;&gt;Node25 -->
<g id="edge41" class="edge">
<title>Node27&#45;&gt;Node25</title>
<path fill="none" stroke="#63b8ff" d="M884.4,-181.37C882.22,-172.07 878.69,-156.98 875.86,-144.9"/>
<polygon fill="#63b8ff" stroke="#63b8ff" points="879.2,-143.84 873.51,-134.91 872.39,-145.44 879.2,-143.84"/>
</g>
<!-- Node27&#45;&gt;Node26 -->
<g id="edge42" class="edge">
<title>Node27&#45;&gt;Node26</title>
<path fill="none" stroke="#63b8ff" d="M896.95,-181.37C909.51,-171.06 930.73,-153.65 946.03,-141.09"/>
<polygon fill="#63b8ff" stroke="#63b8ff" points="948.31,-143.75 953.83,-134.7 943.87,-138.34 948.31,-143.75"/>
</g>
<!-- Node27&#45;&gt;Node27 -->
<g id="edge43" class="edge">
<title>Node27&#45;&gt;Node27</title>
<path fill="none" stroke="#63b8ff" d="M915.97,-200.53C940.64,-204.61 966.43,-201.43 966.43,-191 966.43,-182 947.21,-178.4 926.08,-180.2"/>
<polygon fill="#63b8ff" stroke="#63b8ff" points="925.45,-176.75 915.97,-181.47 926.32,-183.7 925.45,-176.75"/>
</g>
<!-- Node28 -->
<g id="node28" class="node">
<title>Node28</title>
<g id="a_node28"><a xlink:title=" ">
<polygon fill="#e0e0e0" stroke="#999999" points="1083.93,-74 990.93,-74 990.93,-55 1083.93,-55 1083.93,-74"/>
<text text-anchor="middle" x="1037.43" y="-62" font-family="Helvetica,sans-Serif" font-size="10.00">dpiclimate&#45;12.h</text>
</a>
</g>
</g>
<!-- Node27&#45;&gt;Node28 -->
<g id="edge44" class="edge">
<title>Node27&#45;&gt;Node28</title>
<path fill="none" stroke="#63b8ff" d="M939.85,-181.45C966.59,-174.54 997.45,-162.14 1017.43,-140 1031.28,-124.65 1035.7,-100.72 1037.02,-84.14"/>
<polygon fill="#63b8ff" stroke="#63b8ff" points="1040.52,-84.2 1037.52,-74.04 1033.53,-83.85 1040.52,-84.2"/>
</g>
<!-- Node29 -->
<g id="node29" class="node">
<title>Node29</title>
<g id="a_node29"><a xlink:href="_utils_8h.html" target="_top" xlink:title=" ">
<polygon fill="white" stroke="#666666" points="1113.43,-134.5 1065.43,-134.5 1065.43,-115.5 1113.43,-115.5 1113.43,-134.5"/>
<text text-anchor="middle" x="1089.43" y="-122.5" font-family="Helvetica,sans-Serif" font-size="10.00">Utils.h</text>
</a>
</g>
</g>
<!-- Node27&#45;&gt;Node29 -->
<g id="edge46" class="edge">
<title>Node27&#45;&gt;Node29</title>
<path fill="none" stroke="#63b8ff" d="M916.4,-181.49C949.59,-171.94 1004.6,-155.71 1051.43,-140 1053.33,-139.36 1055.27,-138.69 1057.24,-138.01"/>
<polygon fill="#63b8ff" stroke="#63b8ff" points="1058.77,-141.18 1067,-134.51 1056.4,-134.59 1058.77,-141.18"/>
</g>
<!-- Node29&#45;&gt;Node20 -->
<g id="edge48" class="edge">
<title>Node29&#45;&gt;Node20</title>
<path fill="none" stroke="#63b8ff" d="M1107.3,-115.49C1112.12,-113.45 1117.4,-111.45 1122.43,-110 1199.32,-87.87 1291.59,-75.82 1347.84,-70.02"/>
<polygon fill="#63b8ff" stroke="#63b8ff" points="1348.31,-73.49 1357.91,-69.01 1347.61,-66.53 1348.31,-73.49"/>
</g>
<!-- Node29&#45;&gt;Node28 -->
<g id="edge49" class="edge">
<title>Node29&#45;&gt;Node28</title>
<path fill="none" stroke="#63b8ff" d="M1081.75,-115.37C1073.92,-106.55 1061.57,-92.66 1051.89,-81.77"/>
<polygon fill="#63b8ff" stroke="#63b8ff" points="1054.39,-79.32 1045.13,-74.17 1049.16,-83.97 1054.39,-79.32"/>
</g>
<!-- Node30 -->
<g id="node30" class="node">
<title>Node30</title>
<g id="a_node30"><a xlink:title=" ">
<polygon fill="#e0e0e0" stroke="#999999" points="1158.43,-74 1102.43,-74 1102.43,-55 1158.43,-55 1158.43,-74"/>
<text text-anchor="middle" x="1130.43" y="-62" font-family="Helvetica,sans-Serif" font-size="10.00">stddef.h</text>
</a>
</g>
</g>
<!-- Node29&#45;&gt;Node30 -->
<g id="edge47" class="edge">
<title>Node29&#45;&gt;Node30</title>
<path fill="none" stroke="#63b8ff" d="M1095.48,-115.37C1101.53,-106.73 1111.01,-93.2 1118.57,-82.42"/>
<polygon fill="#63b8ff" stroke="#63b8ff" points="1121.48,-84.37 1124.35,-74.17 1115.75,-80.35 1121.48,-84.37"/>
</g>
<!-- Node31&#45;&gt;Node5 -->
<g id="edge51" class="edge">
<title>Node31&#45;&gt;Node5</title>
<path fill="none" stroke="#63b8ff" d="M806.56,-177.69C809.55,-177.08 812.52,-176.51 815.43,-176 950.71,-152.1 986.87,-162.28 1122.43,-140 1128.57,-138.99 1135.01,-137.8 1141.35,-136.54"/>
<polygon fill="#63b8ff" stroke="#63b8ff" points="1142.1,-139.96 1151.19,-134.53 1140.69,-133.1 1142.1,-139.96"/>
</g>
<!-- Node31&#45;&gt;Node18 -->
<g id="edge55" class="edge">
<title>Node31&#45;&gt;Node18</title>
<path fill="none" stroke="#63b8ff" d="M706.31,-177.63C703.31,-177.04 700.33,-176.49 697.43,-176 540.17,-149.53 496.36,-173.42 340.43,-140 337.37,-139.34 334.22,-138.54 331.09,-137.66"/>
<polygon fill="#63b8ff" stroke="#63b8ff" points="331.87,-134.24 321.28,-134.63 329.8,-140.93 331.87,-134.24"/>
</g>
<!-- Node31&#45;&gt;Node23 -->
<g id="edge54" class="edge">
<title>Node31&#45;&gt;Node23</title>
<path fill="none" stroke="#63b8ff" d="M759.31,-175.8C761.16,-166.7 763.58,-154.79 765.59,-144.9"/>
<polygon fill="#63b8ff" stroke="#63b8ff" points="769.07,-145.34 767.63,-134.84 762.21,-143.95 769.07,-145.34"/>
</g>
<!-- Node31&#45;&gt;Node25 -->
<g id="edge52" class="edge">
<title>Node31&#45;&gt;Node25</title>
<path fill="none" stroke="#63b8ff" d="M781.66,-175.95C801.21,-165.08 828.11,-150.11 847.36,-139.4"/>
<polygon fill="#63b8ff" stroke="#63b8ff" points="849.09,-142.44 856.12,-134.52 845.68,-136.32 849.09,-142.44"/>
</g>
<!-- Node31&#45;&gt;Node26 -->
<g id="edge53" class="edge">
<title>Node31&#45;&gt;Node26</title>
<path fill="none" stroke="#63b8ff" d="M802.07,-175.95C839.52,-164.43 891.88,-148.32 926.91,-137.54"/>
<polygon fill="#63b8ff" stroke="#63b8ff" points="928.22,-140.8 936.75,-134.52 926.16,-134.11 928.22,-140.8"/>
</g>
<!-- Node32&#45;&gt;Node5 -->
<g id="edge57" class="edge">
<title>Node32&#45;&gt;Node5</title>
<path fill="none" stroke="#63b8ff" d="M1232,-175.8C1223.35,-165.92 1211.81,-152.72 1202.77,-142.39"/>
<polygon fill="#63b8ff" stroke="#63b8ff" points="1205.38,-140.07 1196.17,-134.84 1200.12,-144.67 1205.38,-140.07"/>
</g>
<!-- Node33 -->
<g id="node33" class="node">
<title>Node33</title>
<g id="a_node33"><a xlink:title=" ">
<polygon fill="#e0e0e0" stroke="#999999" points="1307.43,-134.5 1263.43,-134.5 1263.43,-115.5 1307.43,-115.5 1307.43,-134.5"/>
<text text-anchor="middle" x="1285.43" y="-122.5" font-family="Helvetica,sans-Serif" font-size="10.00">string</text>
</a>
</g>
</g>
<!-- Node32&#45;&gt;Node33 -->
<g id="edge58" class="edge">
<title>Node32&#45;&gt;Node33</title>
<path fill="none" stroke="#63b8ff" d="M1253.53,-175.8C1259.67,-166.21 1267.81,-153.5 1274.33,-143.32"/>
<polygon fill="#63b8ff" stroke="#63b8ff" points="1277.31,-145.15 1279.76,-134.84 1271.42,-141.38 1277.31,-145.15"/>
</g>
<!-- Node34&#45;&gt;Node5 -->
<g id="edge60" class="edge">
<title>Node34&#45;&gt;Node5</title>
<path fill="none" stroke="#63b8ff" d="M1089.3,-175.95C1111.08,-164.98 1141.13,-149.83 1162.42,-139.11"/>
<polygon fill="#63b8ff" stroke="#63b8ff" points="1164.17,-142.14 1171.53,-134.52 1161.02,-135.89 1164.17,-142.14"/>
</g>
<!-- Node34&#45;&gt;Node21 -->
<g id="edge64" class="edge">
<title>Node34&#45;&gt;Node21</title>
<path fill="none" stroke="#63b8ff" d="M1138.65,-177.89C1219.13,-165.26 1343.22,-145.8 1414.33,-134.64"/>
<polygon fill="#63b8ff" stroke="#63b8ff" points="1415.08,-138.07 1424.42,-133.06 1414,-131.15 1415.08,-138.07"/>
</g>
<!-- Node34&#45;&gt;Node23 -->
<g id="edge63" class="edge">
<title>Node34&#45;&gt;Node23</title>
<path fill="none" stroke="#63b8ff" d="M995.96,-175.92C949.92,-165.97 886.88,-152.29 831.43,-140 826.76,-138.97 821.89,-137.88 817.03,-136.79"/>
<polygon fill="#63b8ff" stroke="#63b8ff" points="817.65,-133.34 807.12,-134.56 816.11,-140.17 817.65,-133.34"/>
</g>
<!-- Node34&#45;&gt;Node25 -->
<g id="edge61" class="edge">
<title>Node34&#45;&gt;Node25</title>
<path fill="none" stroke="#63b8ff" d="M1018.05,-175.95C987.81,-166.09 946.58,-152.47 910.43,-140 908.54,-139.35 906.6,-138.67 904.65,-137.99"/>
<polygon fill="#63b8ff" stroke="#63b8ff" points="905.5,-134.58 894.9,-134.53 903.16,-141.17 905.5,-134.58"/>
</g>
<!-- Node34&#45;&gt;Node26 -->
<g id="edge62" class="edge">
<title>Node34&#45;&gt;Node26</title>
<path fill="none" stroke="#63b8ff" d="M1039.9,-175.8C1023.94,-165.27 1002.27,-150.97 986.25,-140.4"/>
<polygon fill="#63b8ff" stroke="#63b8ff" points="987.82,-137.24 977.55,-134.66 983.97,-143.09 987.82,-137.24"/>
</g>
<!-- Node35&#45;&gt;Node21 -->
<g id="edge66" class="edge">
<title>Node35&#45;&gt;Node21</title>
<path fill="none" stroke="#63b8ff" d="M1540.23,-175.8C1525.4,-165.37 1505.31,-151.24 1490.32,-140.69"/>
<polygon fill="#63b8ff" stroke="#63b8ff" points="1491.93,-137.55 1481.74,-134.66 1487.9,-143.27 1491.93,-137.55"/>
</g>
<!-- Node36&#45;&gt;Node21 -->
<g id="edge68" class="edge">
<title>Node36&#45;&gt;Node21</title>
<path fill="none" stroke="#63b8ff" d="M1647.39,-175.95C1606,-164.34 1547.97,-148.05 1509.57,-137.27"/>
<polygon fill="#63b8ff" stroke="#63b8ff" points="1510.34,-133.85 1499.77,-134.52 1508.45,-140.59 1510.34,-133.85"/>
</g>
<!-- Node37&#45;&gt;Node21 -->
<g id="edge70" class="edge">
<title>Node37&#45;&gt;Node21</title>
<path fill="none" stroke="#63b8ff" d="M1397.84,-175.8C1412.98,-165.27 1433.53,-150.97 1448.73,-140.4"/>
<polygon fill="#63b8ff" stroke="#63b8ff" points="1450.77,-143.24 1456.98,-134.66 1446.77,-137.5 1450.77,-143.24"/>
</g>
<!-- Node38&#45;&gt;Node2 -->
<g id="edge72" class="edge">
<title>Node38&#45;&gt;Node2</title>
<path fill="none" stroke="#63b8ff" d="M1876.75,-181.25C1854.06,-164.69 1801.87,-128.73 1752.43,-110 1633.02,-64.76 1597.13,-70.88 1470.43,-55 1188.8,-19.7 846.64,-12.38 729.27,-10.88"/>
<polygon fill="#63b8ff" stroke="#63b8ff" points="729.31,-7.38 719.27,-10.76 729.22,-14.38 729.31,-7.38"/>
</g>
<!-- Node38&#45;&gt;Node5 -->
<g id="edge73" class="edge">
<title>Node38&#45;&gt;Node5</title>
<path fill="none" stroke="#63b8ff" d="M1848.18,-185.11C1823.46,-182.22 1791.14,-178.61 1762.43,-176 1537.01,-155.5 1478.56,-171.56 1254.43,-140 1247.8,-139.07 1240.85,-137.85 1234.04,-136.53"/>
<polygon fill="#63b8ff" stroke="#63b8ff" points="1234.73,-133.1 1224.23,-134.54 1233.34,-139.96 1234.73,-133.1"/>
</g>
<!-- Node39&#45;&gt;Node2 -->
<g id="edge75" class="edge">
<title>Node39&#45;&gt;Node2</title>
<path fill="none" stroke="#63b8ff" d="M440.66,-54.98C497.39,-44.76 591.64,-27.77 645.77,-18.01"/>
<polygon fill="#63b8ff" stroke="#63b8ff" points="646.49,-21.44 655.71,-16.22 645.25,-14.55 646.49,-21.44"/>
</g>
<!-- Node44&#45;&gt;Node2 -->
<g id="edge81" class="edge">
<title>Node44&#45;&gt;Node2</title>
<path fill="none" stroke="#63b8ff" d="M1929.52,-242.57C1970.71,-235.29 2022.48,-223.05 2035.43,-206 2043.49,-195.38 2042.98,-186.99 2035.43,-176 1989.05,-108.52 1941.61,-134.32 1863.43,-110 1763.89,-79.04 1738.62,-69.73 1635.43,-55 1456.65,-29.48 888.92,-15.03 729.45,-11.41"/>
<polygon fill="#63b8ff" stroke="#63b8ff" points="729.19,-7.9 719.12,-11.18 729.04,-14.9 729.19,-7.9"/>
</g>
<!-- Node44&#45;&gt;Node11 -->
<g id="edge82" class="edge">
<title>Node44&#45;&gt;Node11</title>
<path fill="none" stroke="#63b8ff" d="M1927.19,-241.99C2002.87,-229.56 2141.27,-206.81 2201.78,-196.87"/>
<polygon fill="#63b8ff" stroke="#63b8ff" points="2202.51,-200.3 2211.81,-195.22 2201.38,-193.39 2202.51,-200.3"/>
</g>
<!-- Node45 -->
<g id="node45" class="node">
<title>Node45</title>
<g id="a_node45"><a xlink:title=" ">
<polygon fill="#e0e0e0" stroke="#999999" points="2025.93,-200.5 1984.93,-200.5 1984.93,-181.5 2025.93,-181.5 2025.93,-200.5"/>
<text text-anchor="middle" x="2005.43" y="-188.5" font-family="Helvetica,sans-Serif" font-size="10.00">SPI.h</text>
</a>
</g>
</g>
<!-- Node44&#45;&gt;Node45 -->
<g id="edge83" class="edge">
<title>Node44&#45;&gt;Node45</title>
<path fill="none" stroke="#63b8ff" d="M1894.33,-241.99C1916.09,-232.2 1952.05,-216.02 1977.14,-204.73"/>
<polygon fill="#63b8ff" stroke="#63b8ff" points="1978.82,-207.81 1986.5,-200.52 1975.95,-201.43 1978.82,-207.81"/>
</g>
</g>
</svg>
