<?xml version="1.0" encoding="UTF-8" standalone="no"?>
<!DOCTYPE svg PUBLIC "-//W3C//DTD SVG 1.1//EN"
 "http://www.w3.org/Graphics/SVG/1.1/DTD/svg11.dtd">
<!-- Generated by graphviz version 2.43.0 (0)
 -->
<!-- Title: firmware/wombat/src/main.cpp Pages: 1 -->
<svg width="2073pt" height="390pt"
 viewBox="0.00 0.00 2073.00 390.00" xmlns="http://www.w3.org/2000/svg" xmlns:xlink="http://www.w3.org/1999/xlink">
<g id="graph0" class="graph" transform="scale(1 1) rotate(0) translate(4 386)">
<title>firmware/wombat/src/main.cpp</title>
<!-- Node1 -->
<g id="node1" class="node">
<title>Node1</title>
<g id="a_node1"><a xlink:title=" ">
<polygon fill="#999999" stroke="#666666" points="694,-382 574,-382 574,-352 694,-352 694,-382"/>
<text text-anchor="start" x="582" y="-370" font-family="Helvetica,sans-Serif" font-size="10.00">firmware/wombat/src</text>
<text text-anchor="middle" x="634" y="-359" font-family="Helvetica,sans-Serif" font-size="10.00">/main.cpp</text>
</a>
</g>
</g>
<!-- Node2 -->
<g id="node2" class="node">
<title>Node2</title>
<g id="a_node2"><a xlink:title=" ">
<polygon fill="#e0e0e0" stroke="#999999" points="631.5,-19 568.5,-19 568.5,0 631.5,0 631.5,-19"/>
<text text-anchor="middle" x="600" y="-7" font-family="Helvetica,sans-Serif" font-size="10.00">Arduino.h</text>
</a>
</g>
</g>
<!-- Node1&#45;&gt;Node2 -->
<g id="edge1" class="edge">
<title>Node1&#45;&gt;Node2</title>
<path fill="none" stroke="#63b8ff" d="M694.1,-365.75C921.45,-364.04 1716,-350.64 1716,-247 1716,-247 1716,-247 1716,-118.5 1716,-8.42 844.68,-8.55 641.84,-10.07"/>
<polygon fill="#63b8ff" stroke="#63b8ff" points="641.57,-6.58 631.6,-10.16 641.63,-13.58 641.57,-6.58"/>
</g>
<!-- Node3 -->
<g id="node3" class="node">
<title>Node3</title>
<g id="a_node3"><a xlink:title=" ">
<polygon fill="#e0e0e0" stroke="#999999" points="287.5,-316 224.5,-316 224.5,-297 287.5,-297 287.5,-316"/>
<text text-anchor="middle" x="256" y="-304" font-family="Helvetica,sans-Serif" font-size="10.00">esp_log.h</text>
</a>
</g>
</g>
<!-- Node1&#45;&gt;Node3 -->
<g id="edge2" class="edge">
<title>Node1&#45;&gt;Node3</title>
<path fill="none" stroke="#63b8ff" d="M573.93,-357.57C507.35,-348.08 396.85,-331.9 302,-316 300.55,-315.76 299.07,-315.51 297.58,-315.25"/>
<polygon fill="#63b8ff" stroke="#63b8ff" points="298.11,-311.79 287.65,-313.49 296.89,-318.68 298.11,-311.79"/>
</g>
<!-- Node4 -->
<g id="node4" class="node">
<title>Node4</title>
<g id="a_node4"><a xlink:title=" ">
<polygon fill="#e0e0e0" stroke="#999999" points="951.5,-189.5 838.5,-189.5 838.5,-170.5 951.5,-170.5 951.5,-189.5"/>
<text text-anchor="middle" x="895" y="-177.5" font-family="Helvetica,sans-Serif" font-size="10.00">freertos/FreeRTOS.h</text>
</a>
</g>
</g>
<!-- Node1&#45;&gt;Node4 -->
<g id="edge3" class="edge">
<title>Node1&#45;&gt;Node4</title>
<path fill="none" stroke="#63b8ff" d="M638.35,-351.68C648.86,-317.16 674.85,-232.06 676,-231 679.15,-228.08 781.85,-205.46 845.47,-191.67"/>
<polygon fill="#63b8ff" stroke="#63b8ff" points="846.29,-195.07 855.33,-189.53 844.81,-188.23 846.29,-195.07"/>
</g>
<!-- Node5 -->
<g id="node5" class="node">
<title>Node5</title>
<g id="a_node5"><a xlink:href="_t_c_a9534_8h.html" target="_top" xlink:title=" ">
<polygon fill="white" stroke="#666666" points="412,-129 344,-129 344,-110 412,-110 412,-129"/>
<text text-anchor="middle" x="378" y="-117" font-family="Helvetica,sans-Serif" font-size="10.00">TCA9534.h</text>
</a>
</g>
</g>
<!-- Node1&#45;&gt;Node5 -->
<g id="edge4" class="edge">
<title>Node1&#45;&gt;Node5</title>
<path fill="none" stroke="#63b8ff" d="M573.88,-363.1C504.88,-358.36 397.99,-346.23 373,-316 330.47,-264.55 356.21,-176.83 370.45,-138.89"/>
<polygon fill="#63b8ff" stroke="#63b8ff" points="373.86,-139.77 374.25,-129.19 367.34,-137.22 373.86,-139.77"/>
</g>
<!-- Node7 -->
<g id="node7" class="node">
<title>Node7</title>
<g id="a_node7"><a xlink:title=" ">
<polygon fill="#e0e0e0" stroke="#999999" points="466,-316 382,-316 382,-297 466,-297 466,-316"/>
<text text-anchor="middle" x="424" y="-304" font-family="Helvetica,sans-Serif" font-size="10.00">driver/rtc_io.h</text>
</a>
</g>
</g>
<!-- Node1&#45;&gt;Node7 -->
<g id="edge7" class="edge">
<title>Node1&#45;&gt;Node7</title>
<path fill="none" stroke="#63b8ff" d="M583.7,-351.99C547.3,-341.85 498.74,-328.32 464.75,-318.85"/>
<polygon fill="#63b8ff" stroke="#63b8ff" points="465.28,-315.37 454.71,-316.05 463.4,-322.11 465.28,-315.37"/>
</g>
<!-- Node8 -->
<g id="node8" class="node">
<title>Node8</title>
<g id="a_node8"><a xlink:href="globals_8h.html" target="_top" xlink:title=" ">
<polygon fill="white" stroke="#666666" points="226.5,-255.5 165.5,-255.5 165.5,-236.5 226.5,-236.5 226.5,-255.5"/>
<text text-anchor="middle" x="196" y="-243.5" font-family="Helvetica,sans-Serif" font-size="10.00">globals.h</text>
</a>
</g>
</g>
<!-- Node1&#45;&gt;Node8 -->
<g id="edge8" class="edge">
<title>Node1&#45;&gt;Node8</title>
<path fill="none" stroke="#63b8ff" d="M573.71,-366.8C470.85,-366.89 267.48,-361.15 215,-316 200.75,-303.74 196.71,-281.88 195.78,-266.04"/>
<polygon fill="#63b8ff" stroke="#63b8ff" points="199.28,-265.72 195.56,-255.79 192.28,-265.87 199.28,-265.72"/>
</g>
<!-- Node12 -->
<g id="node12" class="node">
<title>Node12</title>
<g id="a_node12"><a xlink:title=" ">
<polygon fill="#e0e0e0" stroke="#999999" points="288,-195 158,-195 158,-165 288,-165 288,-195"/>
<text text-anchor="start" x="166" y="-183" font-family="Helvetica,sans-Serif" font-size="10.00">SparkFun_u&#45;blox_SARA</text>
<text text-anchor="middle" x="223" y="-172" font-family="Helvetica,sans-Serif" font-size="10.00">&#45;R5_Arduino_Library.h</text>
</a>
</g>
</g>
<!-- Node1&#45;&gt;Node12 -->
<g id="edge89" class="edge">
<title>Node1&#45;&gt;Node12</title>
<path fill="none" stroke="#63b8ff" d="M573.95,-360.6C499.92,-353.12 379.09,-338 340,-316 292.24,-289.12 254.66,-235.02 235.97,-204.09"/>
<polygon fill="#63b8ff" stroke="#63b8ff" points="238.88,-202.13 230.79,-195.29 232.85,-205.68 238.88,-202.13"/>
</g>
<!-- Node14 -->
<g id="node14" class="node">
<title>Node14</title>
<g id="a_node14"><a xlink:href="_sensor_task_8h.html" target="_top" xlink:title=" ">
<polygon fill="white" stroke="#666666" points="640,-316 560,-316 560,-297 640,-297 640,-316"/>
<text text-anchor="middle" x="600" y="-304" font-family="Helvetica,sans-Serif" font-size="10.00">SensorTask.h</text>
</a>
</g>
</g>
<!-- Node1&#45;&gt;Node14 -->
<g id="edge19" class="edge">
<title>Node1&#45;&gt;Node14</title>
<path fill="none" stroke="#63b8ff" d="M625.77,-351.84C621.09,-343.78 615.18,-333.62 610.2,-325.06"/>
<polygon fill="#63b8ff" stroke="#63b8ff" points="613.15,-323.15 605.09,-316.27 607.09,-326.67 613.15,-323.15"/>
</g>
<!-- Node15 -->
<g id="node15" class="node">
<title>Node15</title>
<g id="a_node15"><a xlink:href="_device_config_8h.html" target="_top" xlink:title=" ">
<polygon fill="white" stroke="#666666" points="1613,-189.5 1523,-189.5 1523,-170.5 1613,-170.5 1613,-189.5"/>
<text text-anchor="middle" x="1568" y="-177.5" font-family="Helvetica,sans-Serif" font-size="10.00">DeviceConfig.h</text>
</a>
</g>
</g>
<!-- Node1&#45;&gt;Node15 -->
<g id="edge20" class="edge">
<title>Node1&#45;&gt;Node15</title>
<path fill="none" stroke="#63b8ff" d="M694.32,-364.43C904.29,-358.33 1594.04,-332.95 1659,-261 1682.71,-234.74 1635.99,-208.45 1601.14,-193.51"/>
<polygon fill="#63b8ff" stroke="#63b8ff" points="1602.28,-190.19 1591.7,-189.61 1599.6,-196.66 1602.28,-190.19"/>
</g>
<!-- Node17 -->
<g id="node17" class="node">
<title>Node17</title>
<g id="a_node17"><a xlink:href="_c_l_i_8h.html" target="_top" xlink:title=" ">
<polygon fill="white" stroke="#666666" points="951.5,-316 896.5,-316 896.5,-297 951.5,-297 951.5,-316"/>
<text text-anchor="middle" x="924" y="-304" font-family="Helvetica,sans-Serif" font-size="10.00">cli/CLI.h</text>
</a>
</g>
</g>
<!-- Node1&#45;&gt;Node17 -->
<g id="edge23" class="edge">
<title>Node1&#45;&gt;Node17</title>
<path fill="none" stroke="#63b8ff" d="M694.09,-353.88C752.02,-342.19 837.86,-324.88 886.6,-315.04"/>
<polygon fill="#63b8ff" stroke="#63b8ff" points="887.31,-318.47 896.42,-313.06 885.92,-311.61 887.31,-318.47"/>
</g>
<!-- Node35 -->
<g id="node35" class="node">
<title>Node35</title>
<g id="a_node35"><a xlink:href="tones_8h.html" target="_top" xlink:title="Audio control for the onboard piezo buzzer.">
<polygon fill="white" stroke="#666666" points="665.5,-74 534.5,-74 534.5,-55 665.5,-55 665.5,-74"/>
<text text-anchor="middle" x="600" y="-62" font-family="Helvetica,sans-Serif" font-size="10.00">audio&#45;feedback/tones.h</text>
</a>
</g>
</g>
<!-- Node1&#45;&gt;Node35 -->
<g id="edge87" class="edge">
<title>Node1&#45;&gt;Node35</title>
<path fill="none" stroke="#63b8ff" d="M595.04,-351.97C578.66,-344 561.09,-332.31 551,-316 502.68,-237.95 493.48,-191.36 536,-110 543.11,-96.39 556.49,-86.1 569.19,-78.87"/>
<polygon fill="#63b8ff" stroke="#63b8ff" points="570.98,-81.88 578.21,-74.13 567.73,-75.68 570.98,-81.88"/>
</g>
<!-- Node41 -->
<g id="node41" class="node">
<title>Node41</title>
<g id="a_node41"><a xlink:href="peripherals_8h.html" target="_top" xlink:title=" ">
<polygon fill="white" stroke="#666666" points="488,-255.5 408,-255.5 408,-236.5 488,-236.5 488,-255.5"/>
<text text-anchor="middle" x="448" y="-243.5" font-family="Helvetica,sans-Serif" font-size="10.00">peripherals.h</text>
</a>
</g>
</g>
<!-- Node1&#45;&gt;Node41 -->
<g id="edge84" class="edge">
<title>Node1&#45;&gt;Node41</title>
<path fill="none" stroke="#63b8ff" d="M591.27,-351.94C568.48,-343.39 540.56,-331.19 518,-316 495.99,-301.18 474.9,-278.91 461.72,-263.71"/>
<polygon fill="#63b8ff" stroke="#63b8ff" points="464.06,-261.05 454.93,-255.68 458.72,-265.58 464.06,-261.05"/>
</g>
<!-- Node42 -->
<g id="node42" class="node">
<title>Node42</title>
<g id="a_node42"><a xlink:href="uplinks_8h.html" target="_top" xlink:title=" ">
<polygon fill="white" stroke="#666666" points="1805.5,-316 1744.5,-316 1744.5,-297 1805.5,-297 1805.5,-316"/>
<text text-anchor="middle" x="1775" y="-304" font-family="Helvetica,sans-Serif" font-size="10.00">uplinks.h</text>
</a>
</g>
</g>
<!-- Node1&#45;&gt;Node42 -->
<g id="edge88" class="edge">
<title>Node1&#45;&gt;Node42</title>
<path fill="none" stroke="#63b8ff" d="M694.24,-366.23C860.05,-366.21 1336.95,-361.85 1730,-316 1731.29,-315.85 1732.59,-315.68 1733.91,-315.51"/>
<polygon fill="#63b8ff" stroke="#63b8ff" points="1734.76,-318.92 1744.1,-313.93 1733.69,-312 1734.76,-318.92"/>
</g>
<!-- Node43 -->
<g id="node43" class="node">
<title>Node43</title>
<g id="a_node43"><a xlink:href="ulp_8h.html" target="_top" xlink:title=" ">
<polygon fill="white" stroke="#666666" points="1864.5,-316 1823.5,-316 1823.5,-297 1864.5,-297 1864.5,-316"/>
<text text-anchor="middle" x="1844" y="-304" font-family="Helvetica,sans-Serif" font-size="10.00">ulp.h</text>
</a>
</g>
</g>
<!-- Node1&#45;&gt;Node43 -->
<g id="edge90" class="edge">
<title>Node1&#45;&gt;Node43</title>
<path fill="none" stroke="#63b8ff" d="M694.02,-365.38C899.74,-362.97 1576.29,-352.51 1813.29,-315.84"/>
<polygon fill="#63b8ff" stroke="#63b8ff" points="1813.91,-319.29 1823.23,-314.24 1812.8,-312.37 1813.91,-319.29"/>
</g>
<!-- Node44 -->
<g id="node44" class="node">
<title>Node44</title>
<g id="a_node44"><a xlink:title=" ">
<polygon fill="#e0e0e0" stroke="#999999" points="1945,-316 1883,-316 1883,-297 1945,-297 1945,-316"/>
<text text-anchor="middle" x="1914" y="-304" font-family="Helvetica,sans-Serif" font-size="10.00">soc/soc.h</text>
</a>
</g>
</g>
<!-- Node1&#45;&gt;Node44 -->
<g id="edge91" class="edge">
<title>Node1&#45;&gt;Node44</title>
<path fill="none" stroke="#63b8ff" d="M694.3,-364.92C906.89,-360.9 1621.74,-345.59 1872.49,-315.93"/>
<polygon fill="#63b8ff" stroke="#63b8ff" points="1873.14,-319.37 1882.64,-314.69 1872.29,-312.43 1873.14,-319.37"/>
</g>
<!-- Node45 -->
<g id="node45" class="node">
<title>Node45</title>
<g id="a_node45"><a xlink:title=" ">
<polygon fill="#e0e0e0" stroke="#999999" points="2065,-316 1963,-316 1963,-297 2065,-297 2065,-316"/>
<text text-anchor="middle" x="2014" y="-304" font-family="Helvetica,sans-Serif" font-size="10.00">soc/rtc_cntl_reg.h</text>
</a>
</g>
</g>
<!-- Node1&#45;&gt;Node45 -->
<g id="edge92" class="edge">
<title>Node1&#45;&gt;Node45</title>
<path fill="none" stroke="#63b8ff" d="M694,-365.92C879.63,-365.21 1461.16,-359.49 1952.84,-316"/>
<polygon fill="#63b8ff" stroke="#63b8ff" points="1953.33,-319.47 1962.98,-315.09 1952.71,-312.49 1953.33,-319.47"/>
</g>
<!-- Node5&#45;&gt;Node2 -->
<g id="edge5" class="edge">
<title>Node5&#45;&gt;Node2</title>
<path fill="none" stroke="#63b8ff" d="M377.67,-109.69C377.67,-95.95 379.8,-69.49 395,-55 418.04,-33.03 505.24,-20.31 558.2,-14.46"/>
<polygon fill="#63b8ff" stroke="#63b8ff" points="558.74,-17.92 568.31,-13.38 558,-10.96 558.74,-17.92"/>
</g>
<!-- Node6 -->
<g id="node6" class="node">
<title>Node6</title>
<g id="a_node6"><a xlink:title=" ">
<polygon fill="#e0e0e0" stroke="#999999" points="452,-74 404,-74 404,-55 452,-55 452,-74"/>
<text text-anchor="middle" x="428" y="-62" font-family="Helvetica,sans-Serif" font-size="10.00">Wire.h</text>
</a>
</g>
</g>
<!-- Node5&#45;&gt;Node6 -->
<g id="edge6" class="edge">
<title>Node5&#45;&gt;Node6</title>
<path fill="none" stroke="#63b8ff" d="M386.26,-109.75C393.46,-102.11 404.11,-90.82 412.85,-81.56"/>
<polygon fill="#63b8ff" stroke="#63b8ff" points="415.58,-83.76 419.9,-74.09 410.49,-78.96 415.58,-83.76"/>
</g>
<!-- Node9 -->
<g id="node9" class="node">
<title>Node9</title>
<g id="a_node9"><a xlink:href="battery_8h.html" target="_top" xlink:title=" ">
<polygon fill="white" stroke="#666666" points="309.5,-74 158.5,-74 158.5,-55 309.5,-55 309.5,-74"/>
<text text-anchor="middle" x="234" y="-62" font-family="Helvetica,sans-Serif" font-size="10.00">power_monitoring/battery.h</text>
</a>
</g>
</g>
<!-- Node8&#45;&gt;Node9 -->
<g id="edge9" class="edge">
<title>Node8&#45;&gt;Node9</title>
<path fill="none" stroke="#63b8ff" d="M183.66,-236.32C172.21,-227.44 155.93,-212.5 149,-195 144.09,-182.6 144.38,-177.51 149,-165 162.06,-129.59 193.96,-98.24 214.75,-80.59"/>
<polygon fill="#63b8ff" stroke="#63b8ff" points="217.14,-83.16 222.64,-74.1 212.69,-77.76 217.14,-83.16"/>
</g>
<!-- Node11 -->
<g id="node11" class="node">
<title>Node11</title>
<g id="a_node11"><a xlink:href="solar_8h.html" target="_top" xlink:title=" ">
<polygon fill="white" stroke="#666666" points="140,-74 0,-74 0,-55 140,-55 140,-74"/>
<text text-anchor="middle" x="70" y="-62" font-family="Helvetica,sans-Serif" font-size="10.00">power_monitoring/solar.h</text>
</a>
</g>
</g>
<!-- Node8&#45;&gt;Node11 -->
<g id="edge12" class="edge">
<title>Node8&#45;&gt;Node11</title>
<path fill="none" stroke="#63b8ff" d="M184.67,-236.31C173.01,-226.98 154.78,-211.28 142,-195 113.52,-158.72 89.61,-109.74 77.85,-83.64"/>
<polygon fill="#63b8ff" stroke="#63b8ff" points="80.94,-81.98 73.69,-74.25 74.54,-84.81 80.94,-81.98"/>
</g>
<!-- Node8&#45;&gt;Node12 -->
<g id="edge15" class="edge">
<title>Node8&#45;&gt;Node12</title>
<path fill="none" stroke="#63b8ff" d="M199.64,-236.37C203.07,-228.24 208.37,-215.69 213.05,-204.59"/>
<polygon fill="#63b8ff" stroke="#63b8ff" points="216.28,-205.93 216.94,-195.36 209.83,-203.21 216.28,-205.93"/>
</g>
<!-- Node13 -->
<g id="node13" class="node">
<title>Node13</title>
<g id="a_node13"><a xlink:href="_c_a_t___m1_8h.html" target="_top" xlink:title=" ">
<polygon fill="white" stroke="#666666" points="460.5,-189.5 395.5,-189.5 395.5,-170.5 460.5,-170.5 460.5,-189.5"/>
<text text-anchor="middle" x="428" y="-177.5" font-family="Helvetica,sans-Serif" font-size="10.00">CAT_M1.h</text>
</a>
</g>
</g>
<!-- Node8&#45;&gt;Node13 -->
<g id="edge16" class="edge">
<title>Node8&#45;&gt;Node13</title>
<path fill="none" stroke="#63b8ff" d="M226.81,-236.5C268.06,-225.12 341.35,-204.9 387.17,-192.26"/>
<polygon fill="#63b8ff" stroke="#63b8ff" points="388.36,-195.57 397.06,-189.53 386.49,-188.82 388.36,-195.57"/>
</g>
<!-- Node9&#45;&gt;Node2 -->
<g id="edge10" class="edge">
<title>Node9&#45;&gt;Node2</title>
<path fill="none" stroke="#63b8ff" d="M292.8,-54.98C367.07,-44.23 493.01,-25.99 558.17,-16.56"/>
<polygon fill="#63b8ff" stroke="#63b8ff" points="559.07,-19.96 568.47,-15.07 558.07,-13.04 559.07,-19.96"/>
</g>
<!-- Node10 -->
<g id="node10" class="node">
<title>Node10</title>
<g id="a_node10"><a xlink:title=" ">
<polygon fill="#e0e0e0" stroke="#999999" points="204.5,-19 99.5,-19 99.5,0 204.5,0 204.5,-19"/>
<text text-anchor="middle" x="152" y="-7" font-family="Helvetica,sans-Serif" font-size="10.00">Adafruit_INA219.h</text>
</a>
</g>
</g>
<!-- Node9&#45;&gt;Node10 -->
<g id="edge11" class="edge">
<title>Node9&#45;&gt;Node10</title>
<path fill="none" stroke="#63b8ff" d="M220.83,-54.98C208.23,-46.84 189,-34.41 174.06,-24.76"/>
<polygon fill="#63b8ff" stroke="#63b8ff" points="175.71,-21.66 165.41,-19.17 171.91,-27.54 175.71,-21.66"/>
</g>
<!-- Node11&#45;&gt;Node2 -->
<g id="edge13" class="edge">
<title>Node11&#45;&gt;Node2</title>
<path fill="none" stroke="#63b8ff" d="M140.21,-55.91C143.18,-55.6 146.12,-55.3 149,-55 299.55,-39.47 478.5,-22.15 558.16,-14.5"/>
<polygon fill="#63b8ff" stroke="#63b8ff" points="558.66,-17.97 568.28,-13.53 557.99,-11 558.66,-17.97"/>
</g>
<!-- Node11&#45;&gt;Node10 -->
<g id="edge14" class="edge">
<title>Node11&#45;&gt;Node10</title>
<path fill="none" stroke="#63b8ff" d="M83.17,-54.98C95.77,-46.84 115,-34.41 129.94,-24.76"/>
<polygon fill="#63b8ff" stroke="#63b8ff" points="132.09,-27.54 138.59,-19.17 128.29,-21.66 132.09,-27.54"/>
</g>
<!-- Node13&#45;&gt;Node5 -->
<g id="edge18" class="edge">
<title>Node13&#45;&gt;Node5</title>
<path fill="none" stroke="#63b8ff" d="M420.62,-170.37C413.09,-161.55 401.21,-147.66 391.91,-136.77"/>
<polygon fill="#63b8ff" stroke="#63b8ff" points="394.57,-134.5 385.41,-129.17 389.24,-139.04 394.57,-134.5"/>
</g>
<!-- Node13&#45;&gt;Node6 -->
<g id="edge17" class="edge">
<title>Node13&#45;&gt;Node6</title>
<path fill="none" stroke="#63b8ff" d="M428,-170.47C428,-152.23 428,-109.07 428,-84.14"/>
<polygon fill="#63b8ff" stroke="#63b8ff" points="431.5,-84.13 428,-74.13 424.5,-84.13 431.5,-84.13"/>
</g>
<!-- Node15&#45;&gt;Node2 -->
<g id="edge21" class="edge">
<title>Node15&#45;&gt;Node2</title>
<path fill="none" stroke="#63b8ff" d="M1578.8,-170.37C1594.92,-156.48 1621.66,-128.84 1605,-110 1540.16,-36.68 823.77,-15.56 641.83,-11.37"/>
<polygon fill="#63b8ff" stroke="#63b8ff" points="641.67,-7.86 631.6,-11.14 641.52,-14.86 641.67,-7.86"/>
</g>
<!-- Node16 -->
<g id="node16" class="node">
<title>Node16</title>
<g id="a_node16"><a xlink:title=" ">
<polygon fill="#e0e0e0" stroke="#999999" points="1595.5,-129 1508.5,-129 1508.5,-110 1595.5,-110 1595.5,-129"/>
<text text-anchor="middle" x="1552" y="-117" font-family="Helvetica,sans-Serif" font-size="10.00">ArduinoJSON.h</text>
</a>
</g>
</g>
<!-- Node15&#45;&gt;Node16 -->
<g id="edge22" class="edge">
<title>Node15&#45;&gt;Node16</title>
<path fill="none" stroke="#63b8ff" d="M1565.64,-170.37C1563.39,-162.16 1559.94,-149.54 1557.07,-139.05"/>
<polygon fill="#63b8ff" stroke="#63b8ff" points="1560.38,-137.89 1554.37,-129.17 1553.63,-139.74 1560.38,-137.89"/>
</g>
<!-- Node17&#45;&gt;Node2 -->
<g id="edge24" class="edge">
<title>Node17&#45;&gt;Node2</title>
<path fill="none" stroke="#63b8ff" d="M896.14,-306.19C846.69,-306.27 741.55,-301.19 665,-261 592.37,-222.86 573.65,-201.88 536,-129 520.77,-99.51 509.66,-83.89 526,-55 534.17,-40.55 549.12,-30.27 563.46,-23.26"/>
<polygon fill="#63b8ff" stroke="#63b8ff" points="565.01,-26.4 572.71,-19.12 562.15,-20.01 565.01,-26.4"/>
</g>
<!-- Node17&#45;&gt;Node4 -->
<g id="edge25" class="edge">
<title>Node17&#45;&gt;Node4</title>
<path fill="none" stroke="#63b8ff" d="M896.23,-304.56C839.48,-301.98 713.33,-292.74 687,-261 678.49,-250.74 678.75,-241.47 687,-231 689.52,-227.8 786.58,-205.43 847.21,-191.72"/>
<polygon fill="#63b8ff" stroke="#63b8ff" points="847.99,-195.13 856.97,-189.52 846.45,-188.31 847.99,-195.13"/>
</g>
<!-- Node18 -->
<g id="node18" class="node">
<title>Node18</title>
<g id="a_node18"><a xlink:title=" ">
<polygon fill="#e0e0e0" stroke="#999999" points="1279.5,-189.5 1172.5,-189.5 1172.5,-170.5 1279.5,-170.5 1279.5,-189.5"/>
<text text-anchor="middle" x="1226" y="-177.5" font-family="Helvetica,sans-Serif" font-size="10.00">cli/FreeRTOS_CLI.h</text>
</a>
</g>
</g>
<!-- Node17&#45;&gt;Node18 -->
<g id="edge26" class="edge">
<title>Node17&#45;&gt;Node18</title>
<path fill="none" stroke="#63b8ff" d="M951.53,-304.57C1038.89,-301.36 1305.64,-289.28 1331,-261 1356.65,-232.39 1303.66,-206.94 1264.03,-192.78"/>
<polygon fill="#63b8ff" stroke="#63b8ff" points="1265.15,-189.46 1254.56,-189.51 1262.87,-196.08 1265.15,-189.46"/>
</g>
<!-- Node19 -->
<g id="node19" class="node">
<title>Node19</title>
<g id="a_node19"><a xlink:href="cat-m1_8h.html" target="_top" xlink:title=" ">
<polygon fill="white" stroke="#666666" points="990,-255.5 858,-255.5 858,-236.5 990,-236.5 990,-255.5"/>
<text text-anchor="middle" x="924" y="-243.5" font-family="Helvetica,sans-Serif" font-size="10.00">cli/peripherals/cat&#45;m1.h</text>
</a>
</g>
</g>
<!-- Node17&#45;&gt;Node19 -->
<g id="edge27" class="edge">
<title>Node17&#45;&gt;Node19</title>
<path fill="none" stroke="#63b8ff" d="M924,-296.87C924,-288.75 924,-276.31 924,-265.89"/>
<polygon fill="#63b8ff" stroke="#63b8ff" points="927.5,-265.67 924,-255.67 920.5,-265.67 927.5,-265.67"/>
</g>
<!-- Node22 -->
<g id="node22" class="node">
<title>Node22</title>
<g id="a_node22"><a xlink:href="sdi12_8h.html" target="_top" xlink:title=" ">
<polygon fill="white" stroke="#666666" points="1304,-255.5 1180,-255.5 1180,-236.5 1304,-236.5 1304,-255.5"/>
<text text-anchor="middle" x="1242" y="-243.5" font-family="Helvetica,sans-Serif" font-size="10.00">cli/peripherals/sdi12.h</text>
</a>
</g>
</g>
<!-- Node17&#45;&gt;Node22 -->
<g id="edge33" class="edge">
<title>Node17&#45;&gt;Node22</title>
<path fill="none" stroke="#63b8ff" d="M951.81,-300.64C997.56,-292.62 1091.57,-275.98 1171,-261 1176.85,-259.9 1182.97,-258.72 1189.06,-257.54"/>
<polygon fill="#63b8ff" stroke="#63b8ff" points="1190.08,-260.91 1199.22,-255.55 1188.74,-254.04 1190.08,-260.91"/>
</g>
<!-- Node27 -->
<g id="node27" class="node">
<title>Node27</title>
<g id="a_node27"><a xlink:href="bluetooth_8h.html" target="_top" xlink:title=" ">
<polygon fill="white" stroke="#666666" points="840,-255.5 696,-255.5 696,-236.5 840,-236.5 840,-255.5"/>
<text text-anchor="middle" x="768" y="-243.5" font-family="Helvetica,sans-Serif" font-size="10.00">cli/peripherals/bluetooth.h</text>
</a>
</g>
</g>
<!-- Node17&#45;&gt;Node27 -->
<g id="edge44" class="edge">
<title>Node17&#45;&gt;Node27</title>
<path fill="none" stroke="#63b8ff" d="M901.32,-296.99C874.74,-287.03 830.52,-270.45 800.36,-259.13"/>
<polygon fill="#63b8ff" stroke="#63b8ff" points="801.3,-255.75 790.71,-255.52 798.85,-262.31 801.3,-255.75"/>
</g>
<!-- Node38 -->
<g id="node38" class="node">
<title>Node38</title>
<g id="a_node38"><a xlink:href="acquisition__intervals_8h.html" target="_top" xlink:title="Handles the time between measurements and uplinks by the device over LTE.">
<polygon fill="white" stroke="#666666" points="1162,-261 1008,-261 1008,-231 1162,-231 1162,-261"/>
<text text-anchor="start" x="1016" y="-249" font-family="Helvetica,sans-Serif" font-size="10.00">cli/device_config/acquisition</text>
<text text-anchor="middle" x="1085" y="-238" font-family="Helvetica,sans-Serif" font-size="10.00">_intervals.h</text>
</a>
</g>
</g>
<!-- Node17&#45;&gt;Node38 -->
<g id="edge74" class="edge">
<title>Node17&#45;&gt;Node38</title>
<path fill="none" stroke="#63b8ff" d="M947.41,-296.99C970.68,-288.54 1007.07,-275.32 1036.58,-264.59"/>
<polygon fill="#63b8ff" stroke="#63b8ff" points="1038.09,-267.77 1046.29,-261.06 1035.7,-261.19 1038.09,-267.77"/>
</g>
<!-- Node39 -->
<g id="node39" class="node">
<title>Node39</title>
<g id="a_node39"><a xlink:href="mqtt__cli_8h.html" target="_top" xlink:title=" ">
<polygon fill="white" stroke="#666666" points="1502,-261 1378,-261 1378,-231 1502,-231 1502,-261"/>
<text text-anchor="start" x="1386" y="-249" font-family="Helvetica,sans-Serif" font-size="10.00">cli/device_config/mqtt</text>
<text text-anchor="middle" x="1440" y="-238" font-family="Helvetica,sans-Serif" font-size="10.00">_cli.h</text>
</a>
</g>
</g>
<!-- Node17&#45;&gt;Node39 -->
<g id="edge80" class="edge">
<title>Node17&#45;&gt;Node39</title>
<path fill="none" stroke="#63b8ff" d="M951.64,-303.49C1021.14,-298.27 1208.75,-283.11 1364,-261 1365.27,-260.82 1366.55,-260.63 1367.84,-260.44"/>
<polygon fill="#63b8ff" stroke="#63b8ff" points="1368.52,-263.88 1377.85,-258.87 1367.43,-256.96 1368.52,-263.88"/>
</g>
<!-- Node40 -->
<g id="node40" class="node">
<title>Node40</title>
<g id="a_node40"><a xlink:href="config__cli_8h.html" target="_top" xlink:title=" ">
<polygon fill="white" stroke="#666666" points="1650,-261 1520,-261 1520,-231 1650,-231 1650,-261"/>
<text text-anchor="start" x="1528" y="-249" font-family="Helvetica,sans-Serif" font-size="10.00">cli/device_config/config</text>
<text text-anchor="middle" x="1585" y="-238" font-family="Helvetica,sans-Serif" font-size="10.00">_cli.h</text>
</a>
</g>
</g>
<!-- Node17&#45;&gt;Node40 -->
<g id="edge82" class="edge">
<title>Node17&#45;&gt;Node40</title>
<path fill="none" stroke="#63b8ff" d="M951.62,-304.5C1034.56,-301.26 1288.85,-289.66 1509.54,-261.09"/>
<polygon fill="#63b8ff" stroke="#63b8ff" points="1510.23,-264.53 1519.69,-259.76 1509.32,-257.59 1510.23,-264.53"/>
</g>
<!-- Node19&#45;&gt;Node4 -->
<g id="edge28" class="edge">
<title>Node19&#45;&gt;Node4</title>
<path fill="none" stroke="#63b8ff" d="M920.09,-236.37C915.79,-226.88 908.76,-211.36 903.23,-199.16"/>
<polygon fill="#63b8ff" stroke="#63b8ff" points="906.35,-197.57 899.04,-189.91 899.97,-200.46 906.35,-197.57"/>
</g>
<!-- Node19&#45;&gt;Node13 -->
<g id="edge32" class="edge">
<title>Node19&#45;&gt;Node13</title>
<path fill="none" stroke="#63b8ff" d="M880.85,-236.44C870.45,-234.52 859.34,-232.58 849,-231 711.23,-209.98 546.95,-192.7 470.74,-185.13"/>
<polygon fill="#63b8ff" stroke="#63b8ff" points="470.88,-181.63 460.58,-184.13 470.19,-188.59 470.88,-181.63"/>
</g>
<!-- Node19&#45;&gt;Node18 -->
<g id="edge31" class="edge">
<title>Node19&#45;&gt;Node18</title>
<path fill="none" stroke="#63b8ff" d="M964.42,-236.44C1019.11,-224.84 1116.66,-204.17 1175.94,-191.61"/>
<polygon fill="#63b8ff" stroke="#63b8ff" points="1176.77,-195.01 1185.82,-189.51 1175.32,-188.16 1176.77,-195.01"/>
</g>
<!-- Node20 -->
<g id="node20" class="node">
<title>Node20</title>
<g id="a_node20"><a xlink:title=" ">
<polygon fill="#e0e0e0" stroke="#999999" points="1030.5,-189.5 969.5,-189.5 969.5,-170.5 1030.5,-170.5 1030.5,-189.5"/>
<text text-anchor="middle" x="1000" y="-177.5" font-family="Helvetica,sans-Serif" font-size="10.00">Stream.h</text>
</a>
</g>
</g>
<!-- Node19&#45;&gt;Node20 -->
<g id="edge29" class="edge">
<title>Node19&#45;&gt;Node20</title>
<path fill="none" stroke="#63b8ff" d="M934.25,-236.37C946.31,-226.21 966.56,-209.16 981.41,-196.65"/>
<polygon fill="#63b8ff" stroke="#63b8ff" points="984.03,-199.02 989.43,-189.91 979.52,-193.67 984.03,-199.02"/>
</g>
<!-- Node21 -->
<g id="node21" class="node">
<title>Node21</title>
<g id="a_node21"><a xlink:title=" ">
<polygon fill="#e0e0e0" stroke="#999999" points="1137.5,-189.5 1048.5,-189.5 1048.5,-170.5 1137.5,-170.5 1137.5,-189.5"/>
<text text-anchor="middle" x="1093" y="-177.5" font-family="Helvetica,sans-Serif" font-size="10.00">StreamString.h</text>
</a>
</g>
</g>
<!-- Node19&#45;&gt;Node21 -->
<g id="edge30" class="edge">
<title>Node19&#45;&gt;Node21</title>
<path fill="none" stroke="#63b8ff" d="M946.79,-236.37C976.1,-225.27 1027.2,-205.92 1060.56,-193.28"/>
<polygon fill="#63b8ff" stroke="#63b8ff" points="1062.19,-196.41 1070.3,-189.6 1059.71,-189.86 1062.19,-196.41"/>
</g>
<!-- Node22&#45;&gt;Node4 -->
<g id="edge34" class="edge">
<title>Node22&#45;&gt;Node4</title>
<path fill="none" stroke="#63b8ff" d="M1199.61,-236.46C1190.2,-234.62 1180.27,-232.71 1171,-231 1077.87,-213.84 1054,-212.83 961,-195 955.54,-193.95 949.83,-192.81 944.15,-191.65"/>
<polygon fill="#63b8ff" stroke="#63b8ff" points="944.54,-188.15 934.04,-189.55 943.11,-195.01 944.54,-188.15"/>
</g>
<!-- Node22&#45;&gt;Node18 -->
<g id="edge39" class="edge">
<title>Node22&#45;&gt;Node18</title>
<path fill="none" stroke="#63b8ff" d="M1239.84,-236.37C1237.52,-227.07 1233.74,-211.98 1230.72,-199.9"/>
<polygon fill="#63b8ff" stroke="#63b8ff" points="1234.05,-198.76 1228.23,-189.91 1227.26,-200.46 1234.05,-198.76"/>
</g>
<!-- Node22&#45;&gt;Node20 -->
<g id="edge35" class="edge">
<title>Node22&#45;&gt;Node20</title>
<path fill="none" stroke="#63b8ff" d="M1202.98,-236.49C1162.08,-227.3 1096.09,-211.72 1040,-195 1037.59,-194.28 1035.12,-193.51 1032.63,-192.7"/>
<polygon fill="#63b8ff" stroke="#63b8ff" points="1033.74,-189.38 1023.15,-189.52 1031.51,-196.02 1033.74,-189.38"/>
</g>
<!-- Node22&#45;&gt;Node21 -->
<g id="edge36" class="edge">
<title>Node22&#45;&gt;Node21</title>
<path fill="none" stroke="#63b8ff" d="M1221.91,-236.37C1196.36,-225.39 1152.04,-206.36 1122.61,-193.72"/>
<polygon fill="#63b8ff" stroke="#63b8ff" points="1123.82,-190.43 1113.25,-189.7 1121.06,-196.86 1123.82,-190.43"/>
</g>
<!-- Node22&#45;&gt;Node22 -->
<g id="edge37" class="edge">
<title>Node22&#45;&gt;Node22</title>
<path fill="none" stroke="#63b8ff" d="M1271.54,-255.53C1296.22,-259.61 1322,-256.43 1322,-246 1322,-237 1302.78,-233.4 1281.65,-235.2"/>
<polygon fill="#63b8ff" stroke="#63b8ff" points="1281.03,-231.75 1271.54,-236.47 1281.9,-238.7 1281.03,-231.75"/>
</g>
<!-- Node23 -->
<g id="node23" class="node">
<title>Node23</title>
<g id="a_node23"><a xlink:title=" ">
<polygon fill="#e0e0e0" stroke="#999999" points="1490.5,-129 1397.5,-129 1397.5,-110 1490.5,-110 1490.5,-129"/>
<text text-anchor="middle" x="1444" y="-117" font-family="Helvetica,sans-Serif" font-size="10.00">dpiclimate&#45;12.h</text>
</a>
</g>
</g>
<!-- Node22&#45;&gt;Node23 -->
<g id="edge38" class="edge">
<title>Node22&#45;&gt;Node23</title>
<path fill="none" stroke="#63b8ff" d="M1274.27,-236.48C1301.28,-228.42 1340.08,-214.63 1370,-195 1394.44,-178.97 1417.29,-153.8 1430.96,-137.23"/>
<polygon fill="#63b8ff" stroke="#63b8ff" points="1434.02,-139 1437.56,-129.01 1428.56,-134.62 1434.02,-139"/>
</g>
<!-- Node24 -->
<g id="node24" class="node">
<title>Node24</title>
<g id="a_node24"><a xlink:href="_utils_8h.html" target="_top" xlink:title=" ">
<polygon fill="white" stroke="#666666" points="1361,-189.5 1313,-189.5 1313,-170.5 1361,-170.5 1361,-189.5"/>
<text text-anchor="middle" x="1337" y="-177.5" font-family="Helvetica,sans-Serif" font-size="10.00">Utils.h</text>
</a>
</g>
</g>
<!-- Node22&#45;&gt;Node24 -->
<g id="edge40" class="edge">
<title>Node22&#45;&gt;Node24</title>
<path fill="none" stroke="#63b8ff" d="M1254.81,-236.37C1270.39,-225.87 1296.93,-208 1315.62,-195.4"/>
<polygon fill="#63b8ff" stroke="#63b8ff" points="1317.75,-198.19 1324.09,-189.7 1313.84,-192.38 1317.75,-198.19"/>
</g>
<!-- Node24&#45;&gt;Node23 -->
<g id="edge43" class="edge">
<title>Node24&#45;&gt;Node23</title>
<path fill="none" stroke="#63b8ff" d="M1352.79,-170.37C1370.33,-160.78 1398.88,-145.17 1419.37,-133.97"/>
<polygon fill="#63b8ff" stroke="#63b8ff" points="1421.05,-137.04 1428.15,-129.17 1417.69,-130.89 1421.05,-137.04"/>
</g>
<!-- Node25 -->
<g id="node25" class="node">
<title>Node25</title>
<g id="a_node25"><a xlink:title=" ">
<polygon fill="#e0e0e0" stroke="#999999" points="1379,-129 1323,-129 1323,-110 1379,-110 1379,-129"/>
<text text-anchor="middle" x="1351" y="-117" font-family="Helvetica,sans-Serif" font-size="10.00">stddef.h</text>
</a>
</g>
</g>
<!-- Node24&#45;&gt;Node25 -->
<g id="edge41" class="edge">
<title>Node24&#45;&gt;Node25</title>
<path fill="none" stroke="#63b8ff" d="M1339.07,-170.37C1341.03,-162.16 1344.05,-149.54 1346.56,-139.05"/>
<polygon fill="#63b8ff" stroke="#63b8ff" points="1350,-139.71 1348.93,-129.17 1343.19,-138.08 1350,-139.71"/>
</g>
<!-- Node26 -->
<g id="node26" class="node">
<title>Node26</title>
<g id="a_node26"><a xlink:title=" ">
<polygon fill="#e0e0e0" stroke="#999999" points="1304.5,-129 1221.5,-129 1221.5,-110 1304.5,-110 1304.5,-129"/>
<text text-anchor="middle" x="1263" y="-117" font-family="Helvetica,sans-Serif" font-size="10.00">ArduinoJson.h</text>
</a>
</g>
</g>
<!-- Node24&#45;&gt;Node26 -->
<g id="edge42" class="edge">
<title>Node24&#45;&gt;Node26</title>
<path fill="none" stroke="#63b8ff" d="M1326.08,-170.37C1314.49,-161.21 1295.97,-146.56 1281.98,-135.51"/>
<polygon fill="#63b8ff" stroke="#63b8ff" points="1283.98,-132.62 1273.96,-129.17 1279.64,-138.11 1283.98,-132.62"/>
</g>
<!-- Node27&#45;&gt;Node4 -->
<g id="edge45" class="edge">
<title>Node27&#45;&gt;Node4</title>
<path fill="none" stroke="#63b8ff" d="M785.13,-236.37C806.62,-225.54 843.7,-206.85 868.77,-194.22"/>
<polygon fill="#63b8ff" stroke="#63b8ff" points="870.38,-197.32 877.74,-189.7 867.23,-191.07 870.38,-197.32"/>
</g>
<!-- Node27&#45;&gt;Node20 -->
<g id="edge46" class="edge">
<title>Node27&#45;&gt;Node20</title>
<path fill="none" stroke="#63b8ff" d="M804.92,-236.49C843.97,-227.25 907.25,-211.57 961,-195 963.12,-194.35 965.3,-193.65 967.49,-192.92"/>
<polygon fill="#63b8ff" stroke="#63b8ff" points="968.7,-196.2 977.02,-189.64 966.43,-189.58 968.7,-196.2"/>
</g>
<!-- Node27&#45;&gt;Node21 -->
<g id="edge47" class="edge">
<title>Node27&#45;&gt;Node21</title>
<path fill="none" stroke="#63b8ff" d="M817.03,-236.45C883.41,-224.8 998.36,-204.31 1040,-195 1044.07,-194.09 1048.31,-193.08 1052.53,-192.03"/>
<polygon fill="#63b8ff" stroke="#63b8ff" points="1053.45,-195.41 1062.27,-189.54 1051.71,-188.63 1053.45,-195.41"/>
</g>
<!-- Node28 -->
<g id="node28" class="node">
<title>Node28</title>
<g id="a_node28"><a xlink:href="server_8h.html" target="_top" xlink:title="Handle the setup and maintenance of the BLE server and connected clients.">
<polygon fill="white" stroke="#666666" points="820.5,-189.5 715.5,-189.5 715.5,-170.5 820.5,-170.5 820.5,-189.5"/>
<text text-anchor="middle" x="768" y="-177.5" font-family="Helvetica,sans-Serif" font-size="10.00">bluetooth/server.h</text>
</a>
</g>
</g>
<!-- Node27&#45;&gt;Node28 -->
<g id="edge48" class="edge">
<title>Node27&#45;&gt;Node28</title>
<path fill="none" stroke="#63b8ff" d="M768,-236.37C768,-227.16 768,-212.29 768,-200.27"/>
<polygon fill="#63b8ff" stroke="#63b8ff" points="771.5,-199.91 768,-189.91 764.5,-199.91 771.5,-199.91"/>
</g>
<!-- Node28&#45;&gt;Node17 -->
<g id="edge73" class="edge">
<title>Node28&#45;&gt;Node17</title>
<path fill="none" stroke="#63b8ff" d="M743.76,-189.56C708.84,-203.18 651.15,-231.29 676,-261 702.33,-292.48 823.31,-301.72 886.03,-304.41"/>
<polygon fill="#63b8ff" stroke="#63b8ff" points="886.17,-307.92 896.3,-304.81 886.45,-300.92 886.17,-307.92"/>
</g>
<!-- Node29 -->
<g id="node29" class="node">
<title>Node29</title>
<g id="a_node29"><a xlink:title=" ">
<polygon fill="#e0e0e0" stroke="#999999" points="621.5,-129 544.5,-129 544.5,-110 621.5,-110 621.5,-129"/>
<text text-anchor="middle" x="583" y="-117" font-family="Helvetica,sans-Serif" font-size="10.00">BLEDevice.h</text>
</a>
</g>
</g>
<!-- Node28&#45;&gt;Node29 -->
<g id="edge49" class="edge">
<title>Node28&#45;&gt;Node29</title>
<path fill="none" stroke="#63b8ff" d="M741.1,-170.49C709.04,-160.36 655.32,-143.37 619.52,-132.05"/>
<polygon fill="#63b8ff" stroke="#63b8ff" points="620.52,-128.69 609.93,-129.02 618.41,-135.37 620.52,-128.69"/>
</g>
<!-- Node30 -->
<g id="node30" class="node">
<title>Node30</title>
<g id="a_node30"><a xlink:title=" ">
<polygon fill="#e0e0e0" stroke="#999999" points="880,-74 806,-74 806,-55 880,-55 880,-74"/>
<text text-anchor="middle" x="843" y="-62" font-family="Helvetica,sans-Serif" font-size="10.00">BLEServer.h</text>
</a>
</g>
</g>
<!-- Node28&#45;&gt;Node30 -->
<g id="edge50" class="edge">
<title>Node28&#45;&gt;Node30</title>
<path fill="none" stroke="#63b8ff" d="M802.01,-170.48C836.36,-161.1 885.9,-145.2 897,-129 909.48,-110.78 887.89,-91.71 868.41,-79.29"/>
<polygon fill="#63b8ff" stroke="#63b8ff" points="870.11,-76.23 859.74,-74.07 866.51,-82.23 870.11,-76.23"/>
</g>
<!-- Node31 -->
<g id="node31" class="node">
<title>Node31</title>
<g id="a_node31"><a xlink:title=" ">
<polygon fill="#e0e0e0" stroke="#999999" points="888,-129 822,-129 822,-110 888,-110 888,-129"/>
<text text-anchor="middle" x="855" y="-117" font-family="Helvetica,sans-Serif" font-size="10.00">BLEUtils.h</text>
</a>
</g>
</g>
<!-- Node28&#45;&gt;Node31 -->
<g id="edge51" class="edge">
<title>Node28&#45;&gt;Node31</title>
<path fill="none" stroke="#63b8ff" d="M780.84,-170.37C794.72,-161.04 817.07,-146.01 833.61,-134.88"/>
<polygon fill="#63b8ff" stroke="#63b8ff" points="835.76,-137.65 842.11,-129.17 831.86,-131.84 835.76,-137.65"/>
</g>
<!-- Node32 -->
<g id="node32" class="node">
<title>Node32</title>
<g id="a_node32"><a xlink:title=" ">
<polygon fill="#e0e0e0" stroke="#999999" points="1134,-74 1066,-74 1066,-55 1134,-55 1134,-74"/>
<text text-anchor="middle" x="1100" y="-62" font-family="Helvetica,sans-Serif" font-size="10.00">BLE2902.h</text>
</a>
</g>
</g>
<!-- Node28&#45;&gt;Node32 -->
<g id="edge52" class="edge">
<title>Node28&#45;&gt;Node32</title>
<path fill="none" stroke="#63b8ff" d="M802.29,-170.5C811.27,-168.48 820.96,-166.49 830,-165 905.84,-152.51 1122.56,-186.11 1174,-129 1191.64,-109.42 1160.47,-90.18 1133.33,-78.1"/>
<polygon fill="#63b8ff" stroke="#63b8ff" points="1134.55,-74.82 1123.98,-74.14 1131.82,-81.26 1134.55,-74.82"/>
</g>
<!-- Node33 -->
<g id="node33" class="node">
<title>Node33</title>
<g id="a_node33"><a xlink:href="uart_8h.html" target="_top" xlink:title="BluetoothLE UART service setup and handling.">
<polygon fill="white" stroke="#666666" points="1039.5,-129 944.5,-129 944.5,-110 1039.5,-110 1039.5,-129"/>
<text text-anchor="middle" x="992" y="-117" font-family="Helvetica,sans-Serif" font-size="10.00">bluetooth/uart.h</text>
</a>
</g>
</g>
<!-- Node28&#45;&gt;Node33 -->
<g id="edge53" class="edge">
<title>Node28&#45;&gt;Node33</title>
<path fill="none" stroke="#63b8ff" d="M795.64,-170.49C832.87,-160.18 899.32,-142.78 944.58,-131.47"/>
<polygon fill="#63b8ff" stroke="#63b8ff" points="945.6,-134.83 954.46,-129.02 943.91,-128.03 945.6,-134.83"/>
</g>
<!-- Node36 -->
<g id="node36" class="node">
<title>Node36</title>
<g id="a_node36"><a xlink:href="device_8h.html" target="_top" xlink:title="Bluetooth device services and device information.">
<polygon fill="white" stroke="#666666" points="1164.5,-129 1057.5,-129 1057.5,-110 1164.5,-110 1164.5,-129"/>
<text text-anchor="middle" x="1111" y="-117" font-family="Helvetica,sans-Serif" font-size="10.00">bluetooth/device.h</text>
</a>
</g>
</g>
<!-- Node28&#45;&gt;Node36 -->
<g id="edge61" class="edge">
<title>Node28&#45;&gt;Node36</title>
<path fill="none" stroke="#63b8ff" d="M803.98,-170.46C812.49,-168.56 821.55,-166.62 830,-165 904.36,-150.73 990.42,-137.6 1047.51,-129.35"/>
<polygon fill="#63b8ff" stroke="#63b8ff" points="1048.07,-132.81 1057.47,-127.92 1047.08,-125.88 1048.07,-132.81"/>
</g>
<!-- Node37 -->
<g id="node37" class="node">
<title>Node37</title>
<g id="a_node37"><a xlink:href="power__monitoring_8h.html" target="_top" xlink:title="Setup BluetoothLE power monitoring information.">
<polygon fill="white" stroke="#666666" points="804,-129 640,-129 640,-110 804,-110 804,-129"/>
<text text-anchor="middle" x="722" y="-117" font-family="Helvetica,sans-Serif" font-size="10.00">bluetooth/power_monitoring.h</text>
</a>
</g>
</g>
<!-- Node28&#45;&gt;Node37 -->
<g id="edge66" class="edge">
<title>Node28&#45;&gt;Node37</title>
<path fill="none" stroke="#63b8ff" d="M761.21,-170.37C754.35,-161.64 743.57,-147.93 735.05,-137.09"/>
<polygon fill="#63b8ff" stroke="#63b8ff" points="737.75,-134.86 728.82,-129.17 732.25,-139.19 737.75,-134.86"/>
</g>
<!-- Node33&#45;&gt;Node2 -->
<g id="edge54" class="edge">
<title>Node33&#45;&gt;Node2</title>
<path fill="none" stroke="#63b8ff" d="M979.45,-109.88C956.4,-94.2 907.93,-61.96 889,-55 804.91,-24.05 699.38,-14.63 641.96,-11.76"/>
<polygon fill="#63b8ff" stroke="#63b8ff" points="641.96,-8.25 631.82,-11.29 641.64,-15.25 641.96,-8.25"/>
</g>
<!-- Node33&#45;&gt;Node28 -->
<g id="edge60" class="edge">
<title>Node33&#45;&gt;Node28</title>
<path fill="none" stroke="#63b8ff" d="M964.32,-129.02C927.08,-139.33 860.62,-156.73 815.38,-168.04"/>
<polygon fill="#63b8ff" stroke="#63b8ff" points="814.36,-164.68 805.5,-170.49 816.05,-171.48 814.36,-164.68"/>
</g>
<!-- Node33&#45;&gt;Node30 -->
<g id="edge56" class="edge">
<title>Node33&#45;&gt;Node30</title>
<path fill="none" stroke="#63b8ff" d="M968.06,-109.98C943.44,-101.23 904.88,-87.51 877.08,-77.62"/>
<polygon fill="#63b8ff" stroke="#63b8ff" points="877.97,-74.22 867.38,-74.17 875.62,-80.82 877.97,-74.22"/>
</g>
<!-- Node33&#45;&gt;Node32 -->
<g id="edge57" class="edge">
<title>Node33&#45;&gt;Node32</title>
<path fill="none" stroke="#63b8ff" d="M1009.35,-109.98C1026.57,-101.54 1053.2,-88.47 1073.15,-78.68"/>
<polygon fill="#63b8ff" stroke="#63b8ff" points="1074.9,-81.72 1082.33,-74.17 1071.81,-75.43 1074.9,-81.72"/>
</g>
<!-- Node34 -->
<g id="node34" class="node">
<title>Node34</title>
<g id="a_node34"><a xlink:title=" ">
<polygon fill="#e0e0e0" stroke="#999999" points="1047.5,-74 936.5,-74 936.5,-55 1047.5,-55 1047.5,-74"/>
<text text-anchor="middle" x="992" y="-62" font-family="Helvetica,sans-Serif" font-size="10.00">BLECharacteristic.h</text>
</a>
</g>
</g>
<!-- Node33&#45;&gt;Node34 -->
<g id="edge55" class="edge">
<title>Node33&#45;&gt;Node34</title>
<path fill="none" stroke="#63b8ff" d="M992,-109.75C992,-102.8 992,-92.85 992,-84.13"/>
<polygon fill="#63b8ff" stroke="#63b8ff" points="995.5,-84.09 992,-74.09 988.5,-84.09 995.5,-84.09"/>
</g>
<!-- Node33&#45;&gt;Node35 -->
<g id="edge58" class="edge">
<title>Node33&#45;&gt;Node35</title>
<path fill="none" stroke="#63b8ff" d="M944.33,-112.05C876.72,-102.91 752.42,-86.11 673.11,-75.39"/>
<polygon fill="#63b8ff" stroke="#63b8ff" points="673.57,-71.92 663.19,-74.04 672.63,-78.85 673.57,-71.92"/>
</g>
<!-- Node35&#45;&gt;Node2 -->
<g id="edge59" class="edge">
<title>Node35&#45;&gt;Node2</title>
<path fill="none" stroke="#63b8ff" d="M600,-54.75C600,-47.8 600,-37.85 600,-29.13"/>
<polygon fill="#63b8ff" stroke="#63b8ff" points="603.5,-29.09 600,-19.09 596.5,-29.09 603.5,-29.09"/>
</g>
<!-- Node36&#45;&gt;Node2 -->
<g id="edge62" class="edge">
<title>Node36&#45;&gt;Node2</title>
<path fill="none" stroke="#63b8ff" d="M1121.29,-109.79C1135.63,-96.65 1158.22,-71.52 1143,-55 1109.21,-18.33 762.71,-11.88 641.55,-10.74"/>
<polygon fill="#63b8ff" stroke="#63b8ff" points="641.58,-7.24 631.55,-10.66 641.52,-14.24 641.58,-7.24"/>
</g>
<!-- Node36&#45;&gt;Node30 -->
<g id="edge64" class="edge">
<title>Node36&#45;&gt;Node30</title>
<path fill="none" stroke="#63b8ff" d="M1067.94,-109.98C1019.35,-100.38 940.56,-84.79 890.3,-74.85"/>
<polygon fill="#63b8ff" stroke="#63b8ff" points="890.82,-71.39 880.33,-72.88 889.46,-78.26 890.82,-71.39"/>
</g>
<!-- Node36&#45;&gt;Node32 -->
<g id="edge65" class="edge">
<title>Node36&#45;&gt;Node32</title>
<path fill="none" stroke="#63b8ff" d="M1109.18,-109.75C1107.74,-102.8 1105.68,-92.85 1103.87,-84.13"/>
<polygon fill="#63b8ff" stroke="#63b8ff" points="1107.24,-83.17 1101.78,-74.09 1100.39,-84.59 1107.24,-83.17"/>
</g>
<!-- Node36&#45;&gt;Node34 -->
<g id="edge63" class="edge">
<title>Node36&#45;&gt;Node34</title>
<path fill="none" stroke="#63b8ff" d="M1091.88,-109.98C1072.65,-101.42 1042.77,-88.11 1020.69,-78.28"/>
<polygon fill="#63b8ff" stroke="#63b8ff" points="1022.03,-75.04 1011.47,-74.17 1019.18,-81.44 1022.03,-75.04"/>
</g>
<!-- Node37&#45;&gt;Node2 -->
<g id="edge67" class="edge">
<title>Node37&#45;&gt;Node2</title>
<path fill="none" stroke="#63b8ff" d="M717.13,-109.84C709.47,-96.77 693.53,-71.73 675,-55 661.08,-42.43 643.07,-31.61 628.19,-23.78"/>
<polygon fill="#63b8ff" stroke="#63b8ff" points="629.44,-20.49 618.94,-19.08 626.27,-26.73 629.44,-20.49"/>
</g>
<!-- Node37&#45;&gt;Node9 -->
<g id="edge72" class="edge">
<title>Node37&#45;&gt;Node9</title>
<path fill="none" stroke="#63b8ff" d="M643.59,-109.98C555.04,-100.37 411.39,-84.77 319.87,-74.83"/>
<polygon fill="#63b8ff" stroke="#63b8ff" points="320.12,-71.33 309.8,-73.73 319.37,-78.29 320.12,-71.33"/>
</g>
<!-- Node37&#45;&gt;Node11 -->
<g id="edge71" class="edge">
<title>Node37&#45;&gt;Node11</title>
<path fill="none" stroke="#63b8ff" d="M639.67,-110.74C636.74,-110.49 633.85,-110.24 631,-110 420.18,-92.28 364.6,-93.45 150.2,-74.08"/>
<polygon fill="#63b8ff" stroke="#63b8ff" points="150.47,-70.59 140.2,-73.17 149.84,-77.56 150.47,-70.59"/>
</g>
<!-- Node37&#45;&gt;Node30 -->
<g id="edge69" class="edge">
<title>Node37&#45;&gt;Node30</title>
<path fill="none" stroke="#63b8ff" d="M741.44,-109.98C760.99,-101.42 791.38,-88.11 813.82,-78.28"/>
<polygon fill="#63b8ff" stroke="#63b8ff" points="815.45,-81.39 823.21,-74.17 812.64,-74.98 815.45,-81.39"/>
</g>
<!-- Node37&#45;&gt;Node32 -->
<g id="edge70" class="edge">
<title>Node37&#45;&gt;Node32</title>
<path fill="none" stroke="#63b8ff" d="M796.38,-109.98C862.07,-102.15 960.69,-89.63 1055.7,-74.13"/>
<polygon fill="#63b8ff" stroke="#63b8ff" points="1056.47,-77.55 1065.77,-72.47 1055.33,-70.64 1056.47,-77.55"/>
</g>
<!-- Node37&#45;&gt;Node34 -->
<g id="edge68" class="edge">
<title>Node37&#45;&gt;Node34</title>
<path fill="none" stroke="#63b8ff" d="M765.38,-109.98C812.38,-100.76 887.43,-86.03 938.16,-76.07"/>
<polygon fill="#63b8ff" stroke="#63b8ff" points="939.14,-79.44 948.28,-74.08 937.79,-72.57 939.14,-79.44"/>
</g>
<!-- Node38&#45;&gt;Node4 -->
<g id="edge75" class="edge">
<title>Node38&#45;&gt;Node4</title>
<path fill="none" stroke="#63b8ff" d="M1043.3,-230.95C1009.4,-219.53 962.09,-203.6 930.1,-192.82"/>
<polygon fill="#63b8ff" stroke="#63b8ff" points="930.88,-189.39 920.29,-189.52 928.65,-196.03 930.88,-189.39"/>
</g>
<!-- Node38&#45;&gt;Node15 -->
<g id="edge79" class="edge">
<title>Node38&#45;&gt;Node15</title>
<path fill="none" stroke="#63b8ff" d="M1162.33,-232.28C1165.26,-231.84 1168.16,-231.41 1171,-231 1292.65,-213.44 1435.78,-196.27 1512.59,-187.34"/>
<polygon fill="#63b8ff" stroke="#63b8ff" points="1513.45,-190.76 1522.98,-186.13 1512.64,-183.81 1513.45,-190.76"/>
</g>
<!-- Node38&#45;&gt;Node18 -->
<g id="edge78" class="edge">
<title>Node38&#45;&gt;Node18</title>
<path fill="none" stroke="#63b8ff" d="M1115.94,-230.95C1140.45,-219.83 1174.39,-204.42 1198.08,-193.67"/>
<polygon fill="#63b8ff" stroke="#63b8ff" points="1199.58,-196.84 1207.24,-189.52 1196.68,-190.46 1199.58,-196.84"/>
</g>
<!-- Node38&#45;&gt;Node20 -->
<g id="edge76" class="edge">
<title>Node38&#45;&gt;Node20</title>
<path fill="none" stroke="#63b8ff" d="M1066.14,-230.8C1052.36,-220.43 1033.74,-206.4 1019.76,-195.88"/>
<polygon fill="#63b8ff" stroke="#63b8ff" points="1021.84,-193.06 1011.75,-189.84 1017.63,-198.66 1021.84,-193.06"/>
</g>
<!-- Node38&#45;&gt;Node21 -->
<g id="edge77" class="edge">
<title>Node38&#45;&gt;Node21</title>
<path fill="none" stroke="#63b8ff" d="M1086.78,-230.8C1087.91,-221.7 1089.4,-209.79 1090.64,-199.9"/>
<polygon fill="#63b8ff" stroke="#63b8ff" points="1094.13,-200.2 1091.89,-189.84 1087.18,-199.33 1094.13,-200.2"/>
</g>
<!-- Node39&#45;&gt;Node15 -->
<g id="edge81" class="edge">
<title>Node39&#45;&gt;Node15</title>
<path fill="none" stroke="#63b8ff" d="M1468.09,-230.95C1490.04,-219.98 1520.33,-204.83 1541.79,-194.11"/>
<polygon fill="#63b8ff" stroke="#63b8ff" points="1543.59,-197.12 1550.97,-189.52 1540.46,-190.86 1543.59,-197.12"/>
</g>
<!-- Node40&#45;&gt;Node15 -->
<g id="edge83" class="edge">
<title>Node40&#45;&gt;Node15</title>
<path fill="none" stroke="#63b8ff" d="M1581.23,-230.8C1578.78,-221.6 1575.58,-209.53 1572.93,-199.58"/>
<polygon fill="#63b8ff" stroke="#63b8ff" points="1576.3,-198.61 1570.35,-189.84 1569.53,-200.41 1576.3,-198.61"/>
</g>
<!-- Node41&#45;&gt;Node2 -->
<g id="edge85" class="edge">
<title>Node41&#45;&gt;Node2</title>
<path fill="none" stroke="#63b8ff" d="M430.69,-236.44C394.32,-217.13 314.87,-167.39 335,-110 345.36,-80.46 352.27,-71.29 379,-55 434.62,-21.1 511.31,-12.47 558.18,-10.58"/>
<polygon fill="#63b8ff" stroke="#63b8ff" points="558.4,-14.08 568.28,-10.26 558.18,-7.08 558.4,-14.08"/>
</g>
<!-- Node41&#45;&gt;Node4 -->
<g id="edge86" class="edge">
<title>Node41&#45;&gt;Node4</title>
<path fill="none" stroke="#63b8ff" d="M488.27,-238.63C504.35,-236.15 523.04,-233.34 540,-231 668.66,-213.23 701.95,-216.69 830,-195 835.83,-194.01 841.94,-192.86 847.97,-191.64"/>
<polygon fill="#63b8ff" stroke="#63b8ff" points="848.91,-195.02 857.99,-189.57 847.48,-188.17 848.91,-195.02"/>
</g>
</g>
</svg>
