<?xml version="1.0" encoding="UTF-8" standalone="no"?>
<!DOCTYPE svg PUBLIC "-//W3C//DTD SVG 1.1//EN"
 "http://www.w3.org/Graphics/SVG/1.1/DTD/svg11.dtd">
<!-- Generated by graphviz version 2.43.0 (0)
 -->
<!-- Title: firmware/wombat/src/main.cpp Pages: 1 -->
<svg width="2350pt" height="379pt"
 viewBox="0.00 0.00 2350.41 379.00" xmlns="http://www.w3.org/2000/svg" xmlns:xlink="http://www.w3.org/1999/xlink">
<g id="graph0" class="graph" transform="scale(1 1) rotate(0) translate(4 375)">
<title>firmware/wombat/src/main.cpp</title>
<!-- Node1 -->
<g id="node1" class="node">
<title>Node1</title>
<g id="a_node1"><a xlink:title=" ">
<polygon fill="#999999" stroke="#666666" points="1126.91,-371 1006.91,-371 1006.91,-341 1126.91,-341 1126.91,-371"/>
<text text-anchor="start" x="1014.91" y="-359" font-family="Helvetica,sans-Serif" font-size="10.00">firmware/wombat/src</text>
<text text-anchor="middle" x="1066.91" y="-348" font-family="Helvetica,sans-Serif" font-size="10.00">/main.cpp</text>
</a>
</g>
</g>
<!-- Node2 -->
<g id="node2" class="node">
<title>Node2</title>
<g id="a_node2"><a xlink:title=" ">
<polygon fill="#e0e0e0" stroke="#999999" points="854.41,-19 791.41,-19 791.41,0 854.41,0 854.41,-19"/>
<text text-anchor="middle" x="822.91" y="-7" font-family="Helvetica,sans-Serif" font-size="10.00">Arduino.h</text>
</a>
</g>
</g>
<!-- Node1&#45;&gt;Node2 -->
<g id="edge1" class="edge">
<title>Node1&#45;&gt;Node2</title>
<path fill="none" stroke="#63b8ff" d="M1017.89,-340.99C997.32,-333.12 974.4,-321.49 957.91,-305 915.51,-262.59 850.07,-86.47 829.4,-28.84"/>
<polygon fill="#63b8ff" stroke="#63b8ff" points="832.63,-27.49 825.98,-19.24 826.04,-29.84 832.63,-27.49"/>
</g>
<!-- Node3 -->
<g id="node3" class="node">
<title>Node3</title>
<g id="a_node3"><a xlink:title=" ">
<polygon fill="#e0e0e0" stroke="#999999" points="1194.91,-305 1132.91,-305 1132.91,-286 1194.91,-286 1194.91,-305"/>
<text text-anchor="middle" x="1163.91" y="-293" font-family="Helvetica,sans-Serif" font-size="10.00">version.h</text>
</a>
</g>
</g>
<!-- Node1&#45;&gt;Node3 -->
<g id="edge2" class="edge">
<title>Node1&#45;&gt;Node3</title>
<path fill="none" stroke="#63b8ff" d="M1090.39,-340.84C1105.71,-331.6 1125.62,-319.59 1140.86,-310.4"/>
<polygon fill="#63b8ff" stroke="#63b8ff" points="1142.9,-313.26 1149.66,-305.09 1139.29,-307.26 1142.9,-313.26"/>
</g>
<!-- Node4 -->
<g id="node4" class="node">
<title>Node4</title>
<g id="a_node4"><a xlink:title=" ">
<polygon fill="#e0e0e0" stroke="#999999" points="1276.41,-305 1213.41,-305 1213.41,-286 1276.41,-286 1276.41,-305"/>
<text text-anchor="middle" x="1244.91" y="-293" font-family="Helvetica,sans-Serif" font-size="10.00">esp_log.h</text>
</a>
</g>
</g>
<!-- Node1&#45;&gt;Node4 -->
<g id="edge3" class="edge">
<title>Node1&#45;&gt;Node4</title>
<path fill="none" stroke="#63b8ff" d="M1109.55,-340.99C1140,-330.98 1180.5,-317.67 1209.24,-308.22"/>
<polygon fill="#63b8ff" stroke="#63b8ff" points="1210.48,-311.5 1218.88,-305.05 1208.29,-304.85 1210.48,-311.5"/>
</g>
<!-- Node5 -->
<g id="node5" class="node">
<title>Node5</title>
<g id="a_node5"><a xlink:title=" ">
<polygon fill="#e0e0e0" stroke="#999999" points="1445.41,-195 1332.41,-195 1332.41,-176 1445.41,-176 1445.41,-195"/>
<text text-anchor="middle" x="1388.91" y="-183" font-family="Helvetica,sans-Serif" font-size="10.00">freertos/FreeRTOS.h</text>
</a>
</g>
</g>
<!-- Node1&#45;&gt;Node5 -->
<g id="edge4" class="edge">
<title>Node1&#45;&gt;Node5</title>
<path fill="none" stroke="#63b8ff" d="M1069.51,-340.86C1073.08,-325.34 1080.96,-300.69 1096.91,-286 1133.35,-252.42 1269.68,-215.4 1342.45,-197.46"/>
<polygon fill="#63b8ff" stroke="#63b8ff" points="1343.4,-200.83 1352.28,-195.05 1341.73,-194.03 1343.4,-200.83"/>
</g>
<!-- Node6 -->
<g id="node6" class="node">
<title>Node6</title>
<g id="a_node6"><a xlink:href="_t_c_a9534_8h.html" target="_top" xlink:title=" ">
<polygon fill="white" stroke="#666666" points="395.91,-74 327.91,-74 327.91,-55 395.91,-55 395.91,-74"/>
<text text-anchor="middle" x="361.91" y="-62" font-family="Helvetica,sans-Serif" font-size="10.00">TCA9534.h</text>
</a>
</g>
</g>
<!-- Node1&#45;&gt;Node6 -->
<g id="edge5" class="edge">
<title>Node1&#45;&gt;Node6</title>
<path fill="none" stroke="#63b8ff" d="M1006.8,-354.38C850.8,-352.25 441.86,-343.05 394.91,-305 328.33,-251.05 346.96,-130.82 357.23,-84.34"/>
<polygon fill="#63b8ff" stroke="#63b8ff" points="360.68,-84.97 359.55,-74.43 353.87,-83.37 360.68,-84.97"/>
</g>
<!-- Node8 -->
<g id="node8" class="node">
<title>Node8</title>
<g id="a_node8"><a xlink:title=" ">
<polygon fill="#e0e0e0" stroke="#999999" points="1378.91,-305 1294.91,-305 1294.91,-286 1378.91,-286 1378.91,-305"/>
<text text-anchor="middle" x="1336.91" y="-293" font-family="Helvetica,sans-Serif" font-size="10.00">driver/rtc_io.h</text>
</a>
</g>
</g>
<!-- Node1&#45;&gt;Node8 -->
<g id="edge8" class="edge">
<title>Node1&#45;&gt;Node8</title>
<path fill="none" stroke="#63b8ff" d="M1127.17,-341.94C1175.43,-331.49 1242.3,-317 1287.45,-307.22"/>
<polygon fill="#63b8ff" stroke="#63b8ff" points="1288.28,-310.62 1297.31,-305.08 1286.79,-303.78 1288.28,-310.62"/>
</g>
<!-- Node9 -->
<g id="node9" class="node">
<title>Node9</title>
<g id="a_node9"><a xlink:title=" ">
<polygon fill="#e0e0e0" stroke="#999999" points="1454.91,-305 1396.91,-305 1396.91,-286 1454.91,-286 1454.91,-305"/>
<text text-anchor="middle" x="1425.91" y="-293" font-family="Helvetica,sans-Serif" font-size="10.00">soc/rtc.h</text>
</a>
</g>
</g>
<!-- Node1&#45;&gt;Node9 -->
<g id="edge9" class="edge">
<title>Node1&#45;&gt;Node9</title>
<path fill="none" stroke="#63b8ff" d="M1127.16,-346.82C1189.68,-338.06 1290.48,-323.17 1386.98,-305.07"/>
<polygon fill="#63b8ff" stroke="#63b8ff" points="1387.73,-308.49 1396.91,-303.19 1386.43,-301.61 1387.73,-308.49"/>
</g>
<!-- Node10 -->
<g id="node10" class="node">
<title>Node10</title>
<g id="a_node10"><a xlink:title=" ">
<polygon fill="#e0e0e0" stroke="#999999" points="1594.91,-305 1472.91,-305 1472.91,-286 1594.91,-286 1594.91,-305"/>
<text text-anchor="middle" x="1533.91" y="-293" font-family="Helvetica,sans-Serif" font-size="10.00">esp_private/esp_clk.h</text>
</a>
</g>
</g>
<!-- Node1&#45;&gt;Node10 -->
<g id="edge10" class="edge">
<title>Node1&#45;&gt;Node10</title>
<path fill="none" stroke="#63b8ff" d="M1127.01,-347.47C1212.96,-336.7 1370.74,-316.94 1462.53,-305.44"/>
<polygon fill="#63b8ff" stroke="#63b8ff" points="1463.07,-308.9 1472.56,-304.18 1462.2,-301.96 1463.07,-308.9"/>
</g>
<!-- Node11 -->
<g id="node11" class="node">
<title>Node11</title>
<g id="a_node11"><a xlink:title=" ">
<polygon fill="#e0e0e0" stroke="#999999" points="427.41,-250 388.41,-250 388.41,-231 427.41,-231 427.41,-250"/>
<text text-anchor="middle" x="407.91" y="-238" font-family="Helvetica,sans-Serif" font-size="10.00">SD.h</text>
</a>
</g>
</g>
<!-- Node1&#45;&gt;Node11 -->
<g id="edge11" class="edge">
<title>Node1&#45;&gt;Node11</title>
<path fill="none" stroke="#63b8ff" d="M1006.86,-355C851.62,-354.38 446.31,-348.57 405.91,-305 394.91,-293.14 397.17,-274.04 401.11,-259.87"/>
<polygon fill="#63b8ff" stroke="#63b8ff" points="404.48,-260.8 404.25,-250.21 397.83,-258.64 404.48,-260.8"/>
</g>
<!-- Node12 -->
<g id="node12" class="node">
<title>Node12</title>
<g id="a_node12"><a xlink:title=" ">
<polygon fill="#e0e0e0" stroke="#999999" points="1698.91,-305 1612.91,-305 1612.91,-286 1698.91,-286 1698.91,-305"/>
<text text-anchor="middle" x="1655.91" y="-293" font-family="Helvetica,sans-Serif" font-size="10.00">esp_ota_ops.h</text>
</a>
</g>
</g>
<!-- Node1&#45;&gt;Node12 -->
<g id="edge12" class="edge">
<title>Node1&#45;&gt;Node12</title>
<path fill="none" stroke="#63b8ff" d="M1127.06,-350.76C1224.67,-343.59 1423.83,-327.71 1602.69,-305.07"/>
<polygon fill="#63b8ff" stroke="#63b8ff" points="1603.34,-308.52 1612.81,-303.78 1602.45,-301.57 1603.34,-308.52"/>
</g>
<!-- Node13 -->
<g id="node13" class="node">
<title>Node13</title>
<g id="a_node13"><a xlink:title=" ">
<polygon fill="#e0e0e0" stroke="#999999" points="1774.91,-305 1716.91,-305 1716.91,-286 1774.91,-286 1774.91,-305"/>
<text text-anchor="middle" x="1745.91" y="-293" font-family="Helvetica,sans-Serif" font-size="10.00">SPIFFS.h</text>
</a>
</g>
</g>
<!-- Node1&#45;&gt;Node13 -->
<g id="edge13" class="edge">
<title>Node1&#45;&gt;Node13</title>
<path fill="none" stroke="#63b8ff" d="M1127.33,-353.15C1239.65,-349.09 1488.29,-337.17 1706.49,-305"/>
<polygon fill="#63b8ff" stroke="#63b8ff" points="1707.16,-308.44 1716.53,-303.51 1706.12,-301.52 1707.16,-308.44"/>
</g>
<!-- Node14 -->
<g id="node14" class="node">
<title>Node14</title>
<g id="a_node14"><a xlink:href="globals_8h.html" target="_top" xlink:title=" ">
<polygon fill="white" stroke="#666666" points="231.41,-195 170.41,-195 170.41,-176 231.41,-176 231.41,-195"/>
<text text-anchor="middle" x="200.91" y="-183" font-family="Helvetica,sans-Serif" font-size="10.00">globals.h</text>
</a>
</g>
</g>
<!-- Node1&#45;&gt;Node14 -->
<g id="edge14" class="edge">
<title>Node1&#45;&gt;Node14</title>
<path fill="none" stroke="#63b8ff" d="M1006.76,-355.61C851.08,-356.47 438.23,-353.93 311.91,-305 263,-286.06 226.55,-232.05 210.29,-203.96"/>
<polygon fill="#63b8ff" stroke="#63b8ff" points="213.32,-202.22 205.39,-195.2 207.22,-205.64 213.32,-202.22"/>
</g>
<!-- Node19 -->
<g id="node19" class="node">
<title>Node19</title>
<g id="a_node19"><a xlink:href="_sensor_task_8h.html" target="_top" xlink:title=" ">
<polygon fill="white" stroke="#666666" points="331.91,-250 251.91,-250 251.91,-231 331.91,-231 331.91,-250"/>
<text text-anchor="middle" x="291.91" y="-238" font-family="Helvetica,sans-Serif" font-size="10.00">SensorTask.h</text>
</a>
</g>
</g>
<!-- Node1&#45;&gt;Node19 -->
<g id="edge21" class="edge">
<title>Node1&#45;&gt;Node19</title>
<path fill="none" stroke="#63b8ff" d="M1006.9,-353.9C842.37,-350.46 392.5,-338.12 334.91,-305 317.47,-294.97 305.63,-274.65 298.87,-259.69"/>
<polygon fill="#63b8ff" stroke="#63b8ff" points="302.06,-258.26 294.98,-250.38 295.6,-260.95 302.06,-258.26"/>
</g>
<!-- Node21 -->
<g id="node21" class="node">
<title>Node21</title>
<g id="a_node21"><a xlink:href="_device_config_8h.html" target="_top" xlink:title="Node configuration options.">
<polygon fill="white" stroke="#666666" points="632.91,-250 542.91,-250 542.91,-231 632.91,-231 632.91,-250"/>
<text text-anchor="middle" x="587.91" y="-238" font-family="Helvetica,sans-Serif" font-size="10.00">DeviceConfig.h</text>
</a>
</g>
</g>
<!-- Node1&#45;&gt;Node21 -->
<g id="edge23" class="edge">
<title>Node1&#45;&gt;Node21</title>
<path fill="none" stroke="#63b8ff" d="M1006.85,-353.38C880.98,-349.37 598.74,-336.88 569.91,-305 558.31,-292.17 566.65,-272.4 575.44,-258.33"/>
<polygon fill="#63b8ff" stroke="#63b8ff" points="578.35,-260.27 581.08,-250.03 572.57,-256.33 578.35,-260.27"/>
</g>
<!-- Node22 -->
<g id="node22" class="node">
<title>Node22</title>
<g id="a_node22"><a xlink:href="_c_l_i_8h.html" target="_top" xlink:title="FreeRTOS CLI handler.">
<polygon fill="white" stroke="#666666" points="1038.41,-305 983.41,-305 983.41,-286 1038.41,-286 1038.41,-305"/>
<text text-anchor="middle" x="1010.91" y="-293" font-family="Helvetica,sans-Serif" font-size="10.00">cli/CLI.h</text>
</a>
</g>
</g>
<!-- Node1&#45;&gt;Node22 -->
<g id="edge26" class="edge">
<title>Node1&#45;&gt;Node22</title>
<path fill="none" stroke="#63b8ff" d="M1053.35,-340.84C1045.23,-332.35 1034.86,-321.52 1026.41,-312.69"/>
<polygon fill="#63b8ff" stroke="#63b8ff" points="1028.75,-310.07 1019.3,-305.27 1023.69,-314.91 1028.75,-310.07"/>
</g>
<!-- Node27 -->
<g id="node27" class="node">
<title>Node27</title>
<g id="a_node27"><a xlink:href="peripherals_8h.html" target="_top" xlink:title=" ">
<polygon fill="white" stroke="#666666" points="1428.91,-250 1348.91,-250 1348.91,-231 1428.91,-231 1428.91,-250"/>
<text text-anchor="middle" x="1388.91" y="-238" font-family="Helvetica,sans-Serif" font-size="10.00">peripherals.h</text>
</a>
</g>
</g>
<!-- Node1&#45;&gt;Node27 -->
<g id="edge34" class="edge">
<title>Node1&#45;&gt;Node27</title>
<path fill="none" stroke="#63b8ff" d="M1074.47,-340.77C1083.82,-324.69 1101.3,-299.05 1123.91,-286 1159.58,-265.42 1272.09,-252.06 1338.49,-245.75"/>
<polygon fill="#63b8ff" stroke="#63b8ff" points="1339.1,-249.21 1348.73,-244.8 1338.45,-242.24 1339.1,-249.21"/>
</g>
<!-- Node28 -->
<g id="node28" class="node">
<title>Node28</title>
<g id="a_node28"><a xlink:href="tones_8h.html" target="_top" xlink:title="Audio control for the onboard piezo buzzer.">
<polygon fill="white" stroke="#666666" points="1020.41,-74 889.41,-74 889.41,-55 1020.41,-55 1020.41,-74"/>
<text text-anchor="middle" x="954.91" y="-62" font-family="Helvetica,sans-Serif" font-size="10.00">audio&#45;feedback/tones.h</text>
</a>
</g>
</g>
<!-- Node1&#45;&gt;Node28 -->
<g id="edge37" class="edge">
<title>Node1&#45;&gt;Node28</title>
<path fill="none" stroke="#63b8ff" d="M1025,-340.86C1007,-332.88 987.12,-321.2 973.91,-305 955.29,-282.17 954.91,-270.96 954.91,-241.5 954.91,-241.5 954.91,-241.5 954.91,-184.5 954.91,-149.15 954.91,-107.9 954.91,-84.42"/>
<polygon fill="#63b8ff" stroke="#63b8ff" points="958.41,-84.16 954.91,-74.16 951.41,-84.16 958.41,-84.16"/>
</g>
<!-- Node29 -->
<g id="node29" class="node">
<title>Node29</title>
<g id="a_node29"><a xlink:href="uplinks_8h.html" target="_top" xlink:title=" ">
<polygon fill="white" stroke="#666666" points="1854.41,-305 1793.41,-305 1793.41,-286 1854.41,-286 1854.41,-305"/>
<text text-anchor="middle" x="1823.91" y="-293" font-family="Helvetica,sans-Serif" font-size="10.00">uplinks.h</text>
</a>
</g>
</g>
<!-- Node1&#45;&gt;Node29 -->
<g id="edge39" class="edge">
<title>Node1&#45;&gt;Node29</title>
<path fill="none" stroke="#63b8ff" d="M1127.17,-353.64C1249.2,-350.27 1534.38,-339.26 1783.03,-304.91"/>
<polygon fill="#63b8ff" stroke="#63b8ff" points="1783.56,-308.37 1792.98,-303.52 1782.59,-301.44 1783.56,-308.37"/>
</g>
<!-- Node30 -->
<g id="node30" class="node">
<title>Node30</title>
<g id="a_node30"><a xlink:href="ulp_8h.html" target="_top" xlink:title=" ">
<polygon fill="white" stroke="#666666" points="1913.41,-305 1872.41,-305 1872.41,-286 1913.41,-286 1913.41,-305"/>
<text text-anchor="middle" x="1892.91" y="-293" font-family="Helvetica,sans-Serif" font-size="10.00">ulp.h</text>
</a>
</g>
</g>
<!-- Node1&#45;&gt;Node30 -->
<g id="edge40" class="edge">
<title>Node1&#45;&gt;Node30</title>
<path fill="none" stroke="#63b8ff" d="M1126.93,-355.76C1258.91,-356.47 1584.1,-352.88 1862.26,-304.92"/>
<polygon fill="#63b8ff" stroke="#63b8ff" points="1862.88,-308.36 1872.13,-303.19 1861.68,-301.46 1862.88,-308.36"/>
</g>
<!-- Node31 -->
<g id="node31" class="node">
<title>Node31</title>
<g id="a_node31"><a xlink:title=" ">
<polygon fill="#e0e0e0" stroke="#999999" points="1993.91,-305 1931.91,-305 1931.91,-286 1993.91,-286 1993.91,-305"/>
<text text-anchor="middle" x="1962.91" y="-293" font-family="Helvetica,sans-Serif" font-size="10.00">soc/soc.h</text>
</a>
</g>
</g>
<!-- Node1&#45;&gt;Node31 -->
<g id="edge41" class="edge">
<title>Node1&#45;&gt;Node31</title>
<path fill="none" stroke="#63b8ff" d="M1127.14,-354.6C1265.77,-353.01 1618.15,-345.14 1921.24,-305.01"/>
<polygon fill="#63b8ff" stroke="#63b8ff" points="1922.1,-308.43 1931.55,-303.63 1921.17,-301.49 1922.1,-308.43"/>
</g>
<!-- Node32 -->
<g id="node32" class="node">
<title>Node32</title>
<g id="a_node32"><a xlink:title=" ">
<polygon fill="#e0e0e0" stroke="#999999" points="2113.91,-305 2011.91,-305 2011.91,-286 2113.91,-286 2113.91,-305"/>
<text text-anchor="middle" x="2062.91" y="-293" font-family="Helvetica,sans-Serif" font-size="10.00">soc/rtc_cntl_reg.h</text>
</a>
</g>
</g>
<!-- Node1&#45;&gt;Node32 -->
<g id="edge42" class="edge">
<title>Node1&#45;&gt;Node32</title>
<path fill="none" stroke="#63b8ff" d="M1127,-353.61C1274.25,-349.81 1664.99,-337.37 2001.44,-305.05"/>
<polygon fill="#63b8ff" stroke="#63b8ff" points="2002.27,-308.49 2011.88,-304.04 2001.59,-301.52 2002.27,-308.49"/>
</g>
<!-- Node33 -->
<g id="node33" class="node">
<title>Node33</title>
<g id="a_node33"><a xlink:href="interface_8h.html" target="_top" xlink:title=" ">
<polygon fill="white" stroke="#666666" points="522.91,-305 414.91,-305 414.91,-286 522.91,-286 522.91,-305"/>
<text text-anchor="middle" x="468.91" y="-293" font-family="Helvetica,sans-Serif" font-size="10.00">sd&#45;card/interface.h</text>
</a>
</g>
</g>
<!-- Node1&#45;&gt;Node33 -->
<g id="edge43" class="edge">
<title>Node1&#45;&gt;Node33</title>
<path fill="none" stroke="#63b8ff" d="M1006.84,-349.93C908.51,-341.5 707.1,-323.66 536.91,-305 535.65,-304.86 534.37,-304.72 533.08,-304.58"/>
<polygon fill="#63b8ff" stroke="#63b8ff" points="533.42,-301.09 523.08,-303.42 532.62,-308.04 533.42,-301.09"/>
</g>
<!-- Node35 -->
<g id="node35" class="node">
<title>Node35</title>
<g id="a_node35"><a xlink:title=" ">
<polygon fill="#e0e0e0" stroke="#999999" points="2235.41,-305 2132.41,-305 2132.41,-286 2235.41,-286 2235.41,-305"/>
<text text-anchor="middle" x="2183.91" y="-293" font-family="Helvetica,sans-Serif" font-size="10.00">freertos/semphr.h</text>
</a>
</g>
</g>
<!-- Node1&#45;&gt;Node35 -->
<g id="edge47" class="edge">
<title>Node1&#45;&gt;Node35</title>
<path fill="none" stroke="#63b8ff" d="M1127.17,-354.07C1287.34,-351.18 1737.08,-340.39 2122.14,-304.97"/>
<polygon fill="#63b8ff" stroke="#63b8ff" points="2122.73,-308.43 2132.36,-304.02 2122.08,-301.46 2122.73,-308.43"/>
</g>
<!-- Node36 -->
<g id="node36" class="node">
<title>Node36</title>
<g id="a_node36"><a xlink:title=" ">
<polygon fill="#e0e0e0" stroke="#999999" points="2342.41,-305 2253.41,-305 2253.41,-286 2342.41,-286 2342.41,-305"/>
<text text-anchor="middle" x="2297.91" y="-293" font-family="Helvetica,sans-Serif" font-size="10.00">esp_partition.h</text>
</a>
</g>
</g>
<!-- Node1&#45;&gt;Node36 -->
<g id="edge48" class="edge">
<title>Node1&#45;&gt;Node36</title>
<path fill="none" stroke="#63b8ff" d="M1127.16,-354.92C1299.63,-354.16 1810.18,-348.21 2242.93,-305.08"/>
<polygon fill="#63b8ff" stroke="#63b8ff" points="2243.54,-308.54 2253.14,-304.06 2242.84,-301.57 2243.54,-308.54"/>
</g>
<!-- Node37 -->
<g id="node37" class="node">
<title>Node37</title>
<g id="a_node37"><a xlink:href="ota__update_8h.html" target="_top" xlink:title=" ">
<polygon fill="white" stroke="#666666" points="82.91,-305 2.91,-305 2.91,-286 82.91,-286 82.91,-305"/>
<text text-anchor="middle" x="42.91" y="-293" font-family="Helvetica,sans-Serif" font-size="10.00">ota_update.h</text>
</a>
</g>
</g>
<!-- Node1&#45;&gt;Node37 -->
<g id="edge49" class="edge">
<title>Node1&#45;&gt;Node37</title>
<path fill="none" stroke="#63b8ff" d="M1006.79,-354.43C855.15,-352.46 444.71,-343.78 93.09,-304.98"/>
<polygon fill="#63b8ff" stroke="#63b8ff" points="93.29,-301.48 82.97,-303.85 92.52,-308.44 93.29,-301.48"/>
</g>
<!-- Node39 -->
<g id="node39" class="node">
<title>Node39</title>
<g id="a_node39"><a xlink:href="ftp__stack_8h.html" target="_top" xlink:title=" ">
<polygon fill="white" stroke="#666666" points="170.91,-305 100.91,-305 100.91,-286 170.91,-286 170.91,-305"/>
<text text-anchor="middle" x="135.91" y="-293" font-family="Helvetica,sans-Serif" font-size="10.00">ftp_stack.h</text>
</a>
</g>
</g>
<!-- Node1&#45;&gt;Node39 -->
<g id="edge52" class="edge">
<title>Node1&#45;&gt;Node39</title>
<path fill="none" stroke="#63b8ff" d="M1006.82,-353.98C863.91,-351.02 492.7,-340.3 184.91,-305 183.66,-304.86 182.39,-304.7 181.1,-304.54"/>
<polygon fill="#63b8ff" stroke="#63b8ff" points="181.56,-301.07 171.17,-303.12 180.57,-308 181.56,-301.07"/>
</g>
<!-- Node40 -->
<g id="node40" class="node">
<title>Node40</title>
<g id="a_node40"><a xlink:href="_utils_8h.html" target="_top" xlink:title=" ">
<polygon fill="white" stroke="#666666" points="195.91,-250 147.91,-250 147.91,-231 195.91,-231 195.91,-250"/>
<text text-anchor="middle" x="171.91" y="-238" font-family="Helvetica,sans-Serif" font-size="10.00">Utils.h</text>
</a>
</g>
</g>
<!-- Node1&#45;&gt;Node40 -->
<g id="edge63" class="edge">
<title>Node1&#45;&gt;Node40</title>
<path fill="none" stroke="#63b8ff" d="M1006.81,-354.24C825.48,-351.56 292.03,-340.69 222.91,-305 203.74,-295.1 189.31,-274.45 180.77,-259.37"/>
<polygon fill="#63b8ff" stroke="#63b8ff" points="183.81,-257.63 176.02,-250.44 177.63,-260.91 183.81,-257.63"/>
</g>
<!-- Node42 -->
<g id="node42" class="node">
<title>Node42</title>
<g id="a_node42"><a xlink:href="battery_8h.html" target="_top" xlink:title="Battery voltage and current monitoring using INA219 IC.">
<polygon fill="white" stroke="#666666" points="730.41,-305 579.41,-305 579.41,-286 730.41,-286 730.41,-305"/>
<text text-anchor="middle" x="654.91" y="-293" font-family="Helvetica,sans-Serif" font-size="10.00">power_monitoring/battery.h</text>
</a>
</g>
</g>
<!-- Node1&#45;&gt;Node42 -->
<g id="edge57" class="edge">
<title>Node1&#45;&gt;Node42</title>
<path fill="none" stroke="#63b8ff" d="M1006.56,-346.43C931.8,-335.82 804.64,-317.76 725.45,-306.52"/>
<polygon fill="#63b8ff" stroke="#63b8ff" points="725.48,-302.99 715.09,-305.04 724.5,-309.92 725.48,-302.99"/>
</g>
<!-- Node44 -->
<g id="node44" class="node">
<title>Node44</title>
<g id="a_node44"><a xlink:href="solar_8h.html" target="_top" xlink:title="Solar voltage and current monitoring using INA219 IC.">
<polygon fill="white" stroke="#666666" points="888.91,-305 748.91,-305 748.91,-286 888.91,-286 888.91,-305"/>
<text text-anchor="middle" x="818.91" y="-293" font-family="Helvetica,sans-Serif" font-size="10.00">power_monitoring/solar.h</text>
</a>
</g>
</g>
<!-- Node1&#45;&gt;Node44 -->
<g id="edge60" class="edge">
<title>Node1&#45;&gt;Node44</title>
<path fill="none" stroke="#63b8ff" d="M1007.51,-340.99C963.78,-330.67 905.19,-316.85 864.98,-307.37"/>
<polygon fill="#63b8ff" stroke="#63b8ff" points="865.71,-303.94 855.17,-305.05 864.1,-310.76 865.71,-303.94"/>
</g>
<!-- Node6&#45;&gt;Node2 -->
<g id="edge6" class="edge">
<title>Node6&#45;&gt;Node2</title>
<path fill="none" stroke="#63b8ff" d="M396.18,-59.56C479.18,-50.02 690.76,-25.69 781.05,-15.31"/>
<polygon fill="#63b8ff" stroke="#63b8ff" points="781.65,-18.77 791.19,-14.15 780.85,-11.81 781.65,-18.77"/>
</g>
<!-- Node7 -->
<g id="node7" class="node">
<title>Node7</title>
<g id="a_node7"><a xlink:title=" ">
<polygon fill="#e0e0e0" stroke="#999999" points="354.91,-19 306.91,-19 306.91,0 354.91,0 354.91,-19"/>
<text text-anchor="middle" x="330.91" y="-7" font-family="Helvetica,sans-Serif" font-size="10.00">Wire.h</text>
</a>
</g>
</g>
<!-- Node6&#45;&gt;Node7 -->
<g id="edge7" class="edge">
<title>Node6&#45;&gt;Node7</title>
<path fill="none" stroke="#63b8ff" d="M356.79,-54.75C352.55,-47.49 346.38,-36.95 341.14,-27.98"/>
<polygon fill="#63b8ff" stroke="#63b8ff" points="344,-25.95 335.93,-19.09 337.96,-29.49 344,-25.95"/>
</g>
<!-- Node15 -->
<g id="node15" class="node">
<title>Node15</title>
<g id="a_node15"><a xlink:title=" ">
<polygon fill="#e0e0e0" stroke="#999999" points="157.91,-140 27.91,-140 27.91,-110 157.91,-110 157.91,-140"/>
<text text-anchor="start" x="35.91" y="-128" font-family="Helvetica,sans-Serif" font-size="10.00">SparkFun_u&#45;blox_SARA</text>
<text text-anchor="middle" x="92.91" y="-117" font-family="Helvetica,sans-Serif" font-size="10.00">&#45;R5_Arduino_Library.h</text>
</a>
</g>
</g>
<!-- Node14&#45;&gt;Node15 -->
<g id="edge15" class="edge">
<title>Node14&#45;&gt;Node15</title>
<path fill="none" stroke="#63b8ff" d="M184.97,-175.87C169.98,-167.75 147.02,-155.31 127.78,-144.89"/>
<polygon fill="#63b8ff" stroke="#63b8ff" points="129.43,-141.8 118.97,-140.11 126.09,-147.96 129.43,-141.8"/>
</g>
<!-- Node16 -->
<g id="node16" class="node">
<title>Node16</title>
<g id="a_node16"><a xlink:href="_c_a_t___m1_8h.html" target="_top" xlink:title=" ">
<polygon fill="white" stroke="#666666" points="332.41,-134.5 267.41,-134.5 267.41,-115.5 332.41,-115.5 332.41,-134.5"/>
<text text-anchor="middle" x="299.91" y="-122.5" font-family="Helvetica,sans-Serif" font-size="10.00">CAT_M1.h</text>
</a>
</g>
</g>
<!-- Node14&#45;&gt;Node16 -->
<g id="edge16" class="edge">
<title>Node14&#45;&gt;Node16</title>
<path fill="none" stroke="#63b8ff" d="M215.52,-175.87C231.6,-166.36 257.69,-150.95 276.61,-139.77"/>
<polygon fill="#63b8ff" stroke="#63b8ff" points="278.41,-142.77 285.24,-134.67 274.85,-136.74 278.41,-142.77"/>
</g>
<!-- Node17 -->
<g id="node17" class="node">
<title>Node17</title>
<g id="a_node17"><a xlink:href="str__utils_8h.html" target="_top" xlink:title=" ">
<polygon fill="white" stroke="#666666" points="241.41,-134.5 176.41,-134.5 176.41,-115.5 241.41,-115.5 241.41,-134.5"/>
<text text-anchor="middle" x="208.91" y="-122.5" font-family="Helvetica,sans-Serif" font-size="10.00">str_utils.h</text>
</a>
</g>
</g>
<!-- Node14&#45;&gt;Node17 -->
<g id="edge19" class="edge">
<title>Node14&#45;&gt;Node17</title>
<path fill="none" stroke="#63b8ff" d="M202.09,-175.87C203.2,-167.75 204.9,-155.31 206.33,-144.89"/>
<polygon fill="#63b8ff" stroke="#63b8ff" points="209.84,-145.05 207.73,-134.67 202.9,-144.1 209.84,-145.05"/>
</g>
<!-- Node16&#45;&gt;Node6 -->
<g id="edge18" class="edge">
<title>Node16&#45;&gt;Node6</title>
<path fill="none" stroke="#63b8ff" d="M309.06,-115.37C318.58,-106.38 333.71,-92.11 345.34,-81.14"/>
<polygon fill="#63b8ff" stroke="#63b8ff" points="347.85,-83.58 352.72,-74.17 343.05,-78.48 347.85,-83.58"/>
</g>
<!-- Node16&#45;&gt;Node7 -->
<g id="edge17" class="edge">
<title>Node16&#45;&gt;Node7</title>
<path fill="none" stroke="#63b8ff" d="M302.24,-115.47C307.25,-97.15 319.12,-53.68 325.91,-28.81"/>
<polygon fill="#63b8ff" stroke="#63b8ff" points="329.3,-29.7 328.55,-19.13 322.54,-27.85 329.3,-29.7"/>
</g>
<!-- Node18 -->
<g id="node18" class="node">
<title>Node18</title>
<g id="a_node18"><a xlink:title=" ">
<polygon fill="#e0e0e0" stroke="#999999" points="132.91,-74 76.91,-74 76.91,-55 132.91,-55 132.91,-74"/>
<text text-anchor="middle" x="104.91" y="-62" font-family="Helvetica,sans-Serif" font-size="10.00">stddef.h</text>
</a>
</g>
</g>
<!-- Node17&#45;&gt;Node18 -->
<g id="edge20" class="edge">
<title>Node17&#45;&gt;Node18</title>
<path fill="none" stroke="#63b8ff" d="M193.57,-115.37C176.59,-105.82 149.01,-90.31 129.12,-79.12"/>
<polygon fill="#63b8ff" stroke="#63b8ff" points="130.75,-76.02 120.32,-74.17 127.32,-82.12 130.75,-76.02"/>
</g>
<!-- Node20 -->
<g id="node20" class="node">
<title>Node20</title>
<g id="a_node20"><a xlink:title=" ">
<polygon fill="#e0e0e0" stroke="#999999" points="332.41,-195 249.41,-195 249.41,-176 332.41,-176 332.41,-195"/>
<text text-anchor="middle" x="290.91" y="-183" font-family="Helvetica,sans-Serif" font-size="10.00">ArduinoJson.h</text>
</a>
</g>
</g>
<!-- Node19&#45;&gt;Node20 -->
<g id="edge22" class="edge">
<title>Node19&#45;&gt;Node20</title>
<path fill="none" stroke="#63b8ff" d="M291.75,-230.75C291.61,-223.8 291.43,-213.85 291.26,-205.13"/>
<polygon fill="#63b8ff" stroke="#63b8ff" points="294.76,-205.02 291.07,-195.09 287.76,-205.15 294.76,-205.02"/>
</g>
<!-- Node21&#45;&gt;Node2 -->
<g id="edge24" class="edge">
<title>Node21&#45;&gt;Node2</title>
<path fill="none" stroke="#63b8ff" d="M587.91,-230.63C588.42,-201 594.23,-104.52 646.91,-55 683.17,-20.92 741.65,-11.95 781.15,-10.08"/>
<polygon fill="#63b8ff" stroke="#63b8ff" points="781.38,-13.57 791.26,-9.74 781.14,-6.58 781.38,-13.57"/>
</g>
<!-- Node21&#45;&gt;Node20 -->
<g id="edge25" class="edge">
<title>Node21&#45;&gt;Node20</title>
<path fill="none" stroke="#63b8ff" d="M542.8,-231.45C489.03,-221.85 399.35,-205.85 342.76,-195.75"/>
<polygon fill="#63b8ff" stroke="#63b8ff" points="343.06,-192.25 332.6,-193.94 341.83,-199.14 343.06,-192.25"/>
</g>
<!-- Node22&#45;&gt;Node2 -->
<g id="edge27" class="edge">
<title>Node22&#45;&gt;Node2</title>
<path fill="none" stroke="#63b8ff" d="M1011.04,-285.87C1011.22,-273.66 1011.58,-250.62 1011.91,-231 1012.33,-206.56 1010.67,-200.35 1012.91,-176 1017.88,-121.92 1064.04,-97.24 1029.91,-55 1009.57,-29.82 919.21,-18.22 864.83,-13.44"/>
<polygon fill="#63b8ff" stroke="#63b8ff" points="865.05,-9.94 854.79,-12.6 864.46,-16.92 865.05,-9.94"/>
</g>
<!-- Node23 -->
<g id="node23" class="node">
<title>Node23</title>
<g id="a_node23"><a xlink:href="cat-m1_8h.html" target="_top" xlink:title="CAT&#45;M1 CLI command request and response handler.">
<polygon fill="white" stroke="#666666" points="1152.91,-250 1020.91,-250 1020.91,-231 1152.91,-231 1152.91,-250"/>
<text text-anchor="middle" x="1086.91" y="-238" font-family="Helvetica,sans-Serif" font-size="10.00">cli/peripherals/cat&#45;m1.h</text>
</a>
</g>
</g>
<!-- Node22&#45;&gt;Node23 -->
<g id="edge28" class="edge">
<title>Node22&#45;&gt;Node23</title>
<path fill="none" stroke="#63b8ff" d="M1023.12,-285.98C1034.69,-277.92 1052.29,-265.65 1066.07,-256.03"/>
<polygon fill="#63b8ff" stroke="#63b8ff" points="1068.28,-258.76 1074.48,-250.17 1064.27,-253.02 1068.28,-258.76"/>
</g>
<!-- Node23&#45;&gt;Node5 -->
<g id="edge29" class="edge">
<title>Node23&#45;&gt;Node5</title>
<path fill="none" stroke="#63b8ff" d="M1135.43,-230.98C1188.52,-221.67 1273.6,-206.74 1330.36,-196.78"/>
<polygon fill="#63b8ff" stroke="#63b8ff" points="1331.01,-200.21 1340.26,-195.04 1329.8,-193.32 1331.01,-200.21"/>
</g>
<!-- Node23&#45;&gt;Node16 -->
<g id="edge33" class="edge">
<title>Node23&#45;&gt;Node16</title>
<path fill="none" stroke="#63b8ff" d="M1027.76,-230.97C875.84,-209.06 474.64,-151.2 342.66,-132.17"/>
<polygon fill="#63b8ff" stroke="#63b8ff" points="342.94,-128.67 332.54,-130.71 341.94,-135.6 342.94,-128.67"/>
</g>
<!-- Node24 -->
<g id="node24" class="node">
<title>Node24</title>
<g id="a_node24"><a xlink:title=" ">
<polygon fill="#e0e0e0" stroke="#999999" points="1314.41,-195 1253.41,-195 1253.41,-176 1314.41,-176 1314.41,-195"/>
<text text-anchor="middle" x="1283.91" y="-183" font-family="Helvetica,sans-Serif" font-size="10.00">Stream.h</text>
</a>
</g>
</g>
<!-- Node23&#45;&gt;Node24 -->
<g id="edge30" class="edge">
<title>Node23&#45;&gt;Node24</title>
<path fill="none" stroke="#63b8ff" d="M1118.56,-230.98C1152.46,-221.86 1206.37,-207.36 1243.36,-197.41"/>
<polygon fill="#63b8ff" stroke="#63b8ff" points="1244.56,-200.71 1253.31,-194.73 1242.74,-193.95 1244.56,-200.71"/>
</g>
<!-- Node25 -->
<g id="node25" class="node">
<title>Node25</title>
<g id="a_node25"><a xlink:title=" ">
<polygon fill="#e0e0e0" stroke="#999999" points="1110.41,-195 1021.41,-195 1021.41,-176 1110.41,-176 1110.41,-195"/>
<text text-anchor="middle" x="1065.91" y="-183" font-family="Helvetica,sans-Serif" font-size="10.00">StreamString.h</text>
</a>
</g>
</g>
<!-- Node23&#45;&gt;Node25 -->
<g id="edge31" class="edge">
<title>Node23&#45;&gt;Node25</title>
<path fill="none" stroke="#63b8ff" d="M1083.44,-230.75C1080.63,-223.65 1076.57,-213.4 1073.06,-204.56"/>
<polygon fill="#63b8ff" stroke="#63b8ff" points="1076.25,-203.1 1069.31,-195.09 1069.74,-205.68 1076.25,-203.1"/>
</g>
<!-- Node26 -->
<g id="node26" class="node">
<title>Node26</title>
<g id="a_node26"><a xlink:title=" ">
<polygon fill="#e0e0e0" stroke="#999999" points="1235.41,-195 1128.41,-195 1128.41,-176 1235.41,-176 1235.41,-195"/>
<text text-anchor="middle" x="1181.91" y="-183" font-family="Helvetica,sans-Serif" font-size="10.00">cli/FreeRTOS_CLI.h</text>
</a>
</g>
</g>
<!-- Node23&#45;&gt;Node26 -->
<g id="edge32" class="edge">
<title>Node23&#45;&gt;Node26</title>
<path fill="none" stroke="#63b8ff" d="M1102.17,-230.98C1117.04,-222.69 1139.89,-209.94 1157.33,-200.22"/>
<polygon fill="#63b8ff" stroke="#63b8ff" points="1159.34,-203.1 1166.37,-195.17 1155.93,-196.99 1159.34,-203.1"/>
</g>
<!-- Node27&#45;&gt;Node2 -->
<g id="edge35" class="edge">
<title>Node27&#45;&gt;Node2</title>
<path fill="none" stroke="#63b8ff" d="M1409.94,-230.98C1434.94,-219.6 1471.34,-198.26 1454.91,-176 1383.27,-78.91 994.15,-28.88 864.76,-14.76"/>
<polygon fill="#63b8ff" stroke="#63b8ff" points="864.8,-11.24 854.48,-13.65 864.05,-18.2 864.8,-11.24"/>
</g>
<!-- Node27&#45;&gt;Node5 -->
<g id="edge36" class="edge">
<title>Node27&#45;&gt;Node5</title>
<path fill="none" stroke="#63b8ff" d="M1388.91,-230.75C1388.91,-223.8 1388.91,-213.85 1388.91,-205.13"/>
<polygon fill="#63b8ff" stroke="#63b8ff" points="1392.41,-205.09 1388.91,-195.09 1385.41,-205.09 1392.41,-205.09"/>
</g>
<!-- Node28&#45;&gt;Node2 -->
<g id="edge38" class="edge">
<title>Node28&#45;&gt;Node2</title>
<path fill="none" stroke="#63b8ff" d="M933.7,-54.98C912.18,-46.34 878.63,-32.87 854.08,-23.02"/>
<polygon fill="#63b8ff" stroke="#63b8ff" points="855.09,-19.65 844.5,-19.17 852.48,-26.14 855.09,-19.65"/>
</g>
<!-- Node33&#45;&gt;Node2 -->
<g id="edge44" class="edge">
<title>Node33&#45;&gt;Node2</title>
<path fill="none" stroke="#63b8ff" d="M475.5,-285.8C488.22,-268.1 514.91,-226.24 514.91,-186.5 514.91,-186.5 514.91,-186.5 514.91,-124 514.91,-67.86 697.36,-30.9 781.41,-16.86"/>
<polygon fill="#63b8ff" stroke="#63b8ff" points="782.1,-20.29 791.4,-15.22 780.96,-13.38 782.1,-20.29"/>
</g>
<!-- Node33&#45;&gt;Node11 -->
<g id="edge45" class="edge">
<title>Node33&#45;&gt;Node11</title>
<path fill="none" stroke="#63b8ff" d="M459.11,-285.98C450.09,-278.15 436.5,-266.34 425.59,-256.86"/>
<polygon fill="#63b8ff" stroke="#63b8ff" points="427.73,-254.09 417.89,-250.17 423.14,-259.37 427.73,-254.09"/>
</g>
<!-- Node34 -->
<g id="node34" class="node">
<title>Node34</title>
<g id="a_node34"><a xlink:title=" ">
<polygon fill="#e0e0e0" stroke="#999999" points="486.41,-250 445.41,-250 445.41,-231 486.41,-231 486.41,-250"/>
<text text-anchor="middle" x="465.91" y="-238" font-family="Helvetica,sans-Serif" font-size="10.00">SPI.h</text>
</a>
</g>
</g>
<!-- Node33&#45;&gt;Node34 -->
<g id="edge46" class="edge">
<title>Node33&#45;&gt;Node34</title>
<path fill="none" stroke="#63b8ff" d="M468.42,-285.75C468.02,-278.8 467.46,-268.85 466.97,-260.13"/>
<polygon fill="#63b8ff" stroke="#63b8ff" points="470.46,-259.88 466.4,-250.09 463.47,-260.27 470.46,-259.88"/>
</g>
<!-- Node37&#45;&gt;Node18 -->
<g id="edge51" class="edge">
<title>Node37&#45;&gt;Node18</title>
<path fill="none" stroke="#63b8ff" d="M36.54,-285.84C30.65,-277.25 22.31,-263.45 18.91,-250 3.68,-189.67 -13.43,-163.15 18.91,-110 29.45,-92.67 49.16,-81.79 67.06,-75.13"/>
<polygon fill="#63b8ff" stroke="#63b8ff" points="68.39,-78.38 76.74,-71.85 66.14,-71.75 68.39,-78.38"/>
</g>
<!-- Node38 -->
<g id="node38" class="node">
<title>Node38</title>
<g id="a_node38"><a xlink:title=" ">
<polygon fill="#e0e0e0" stroke="#999999" points="81.41,-250 28.41,-250 28.41,-231 81.41,-231 81.41,-250"/>
<text text-anchor="middle" x="54.91" y="-238" font-family="Helvetica,sans-Serif" font-size="10.00">stdint.h</text>
</a>
</g>
</g>
<!-- Node37&#45;&gt;Node38 -->
<g id="edge50" class="edge">
<title>Node37&#45;&gt;Node38</title>
<path fill="none" stroke="#63b8ff" d="M44.89,-285.75C46.48,-278.72 48.77,-268.62 50.76,-259.84"/>
<polygon fill="#63b8ff" stroke="#63b8ff" points="54.17,-260.62 52.97,-250.09 47.34,-259.07 54.17,-260.62"/>
</g>
<!-- Node39&#45;&gt;Node40 -->
<g id="edge53" class="edge">
<title>Node39&#45;&gt;Node40</title>
<path fill="none" stroke="#63b8ff" d="M141.86,-285.75C146.89,-278.34 154.25,-267.5 160.42,-258.41"/>
<polygon fill="#63b8ff" stroke="#63b8ff" points="163.35,-260.33 166.08,-250.09 157.56,-256.39 163.35,-260.33"/>
</g>
<!-- Node40&#45;&gt;Node14 -->
<g id="edge56" class="edge">
<title>Node40&#45;&gt;Node14</title>
<path fill="none" stroke="#63b8ff" d="M176.7,-230.75C180.67,-223.49 186.44,-212.95 191.35,-203.98"/>
<polygon fill="#63b8ff" stroke="#63b8ff" points="194.48,-205.54 196.21,-195.09 188.34,-202.18 194.48,-205.54"/>
</g>
<!-- Node40&#45;&gt;Node20 -->
<g id="edge54" class="edge">
<title>Node40&#45;&gt;Node20</title>
<path fill="none" stroke="#63b8ff" d="M191.03,-230.98C210.26,-222.42 240.14,-209.11 262.22,-199.28"/>
<polygon fill="#63b8ff" stroke="#63b8ff" points="263.73,-202.44 271.44,-195.17 260.88,-196.04 263.73,-202.44"/>
</g>
<!-- Node41 -->
<g id="node41" class="node">
<title>Node41</title>
<g id="a_node41"><a xlink:title=" ">
<polygon fill="#e0e0e0" stroke="#999999" points="152.41,-195 59.41,-195 59.41,-176 152.41,-176 152.41,-195"/>
<text text-anchor="middle" x="105.91" y="-183" font-family="Helvetica,sans-Serif" font-size="10.00">dpiclimate&#45;12.h</text>
</a>
</g>
</g>
<!-- Node40&#45;&gt;Node41 -->
<g id="edge55" class="edge">
<title>Node40&#45;&gt;Node41</title>
<path fill="none" stroke="#63b8ff" d="M161.31,-230.98C151.45,-223.07 136.56,-211.11 124.7,-201.58"/>
<polygon fill="#63b8ff" stroke="#63b8ff" points="126.7,-198.7 116.71,-195.17 122.31,-204.16 126.7,-198.7"/>
</g>
<!-- Node42&#45;&gt;Node2 -->
<g id="edge58" class="edge">
<title>Node42&#45;&gt;Node2</title>
<path fill="none" stroke="#63b8ff" d="M655.72,-285.83C657.36,-267.51 660.91,-223.49 660.91,-186.5 660.91,-186.5 660.91,-186.5 660.91,-124 660.91,-65.17 733.46,-34.25 781.46,-20.23"/>
<polygon fill="#63b8ff" stroke="#63b8ff" points="782.6,-23.55 791.29,-17.49 780.72,-16.8 782.6,-23.55"/>
</g>
<!-- Node43 -->
<g id="node43" class="node">
<title>Node43</title>
<g id="a_node43"><a xlink:title=" ">
<polygon fill="#e0e0e0" stroke="#999999" points="794.41,-250 689.41,-250 689.41,-231 794.41,-231 794.41,-250"/>
<text text-anchor="middle" x="741.91" y="-238" font-family="Helvetica,sans-Serif" font-size="10.00">Adafruit_INA219.h</text>
</a>
</g>
</g>
<!-- Node42&#45;&gt;Node43 -->
<g id="edge59" class="edge">
<title>Node42&#45;&gt;Node43</title>
<path fill="none" stroke="#63b8ff" d="M668.89,-285.98C682.38,-277.77 703.04,-265.18 718.95,-255.49"/>
<polygon fill="#63b8ff" stroke="#63b8ff" points="720.96,-258.36 727.68,-250.17 717.32,-252.38 720.96,-258.36"/>
</g>
<!-- Node44&#45;&gt;Node2 -->
<g id="edge61" class="edge">
<title>Node44&#45;&gt;Node2</title>
<path fill="none" stroke="#63b8ff" d="M819.45,-285.82C820.54,-267.49 822.91,-223.46 822.91,-186.5 822.91,-186.5 822.91,-186.5 822.91,-124 822.91,-90.61 822.91,-51.69 822.91,-29.19"/>
<polygon fill="#63b8ff" stroke="#63b8ff" points="826.41,-29.04 822.91,-19.04 819.41,-29.04 826.41,-29.04"/>
</g>
<!-- Node44&#45;&gt;Node43 -->
<g id="edge62" class="edge">
<title>Node44&#45;&gt;Node43</title>
<path fill="none" stroke="#63b8ff" d="M806.54,-285.98C794.82,-277.92 776.99,-265.65 763.02,-256.03"/>
<polygon fill="#63b8ff" stroke="#63b8ff" points="764.73,-252.96 754.51,-250.17 760.76,-258.72 764.73,-252.96"/>
</g>
</g>
</svg>
