<?xml version="1.0" encoding="UTF-8" standalone="no"?>
<!DOCTYPE svg PUBLIC "-//W3C//DTD SVG 1.1//EN"
 "http://www.w3.org/Graphics/SVG/1.1/DTD/svg11.dtd">
<!-- Generated by graphviz version 2.43.0 (0)
 -->
<!-- Title: firmware/wombat/src/main.cpp Pages: 1 -->
<svg width="2482pt" height="335pt"
 viewBox="0.00 0.00 2481.66 335.00" xmlns="http://www.w3.org/2000/svg" xmlns:xlink="http://www.w3.org/1999/xlink">
<g id="graph0" class="graph" transform="scale(1 1) rotate(0) translate(4 331)">
<title>firmware/wombat/src/main.cpp</title>
<!-- Node1 -->
<g id="node1" class="node">
<title>Node1</title>
<g id="a_node1"><a xlink:title=" ">
<polygon fill="#999999" stroke="#666666" points="1932.66,-327 1812.66,-327 1812.66,-297 1932.66,-297 1932.66,-327"/>
<text text-anchor="start" x="1820.66" y="-315" font-family="Helvetica,sans-Serif" font-size="10.00">firmware/wombat/src</text>
<text text-anchor="middle" x="1872.66" y="-304" font-family="Helvetica,sans-Serif" font-size="10.00">/main.cpp</text>
</a>
</g>
</g>
<!-- Node2 -->
<g id="node2" class="node">
<title>Node2</title>
<g id="a_node2"><a xlink:title=" ">
<polygon fill="#e0e0e0" stroke="#999999" points="960.16,-19 897.16,-19 897.16,0 960.16,0 960.16,-19"/>
<text text-anchor="middle" x="928.66" y="-7" font-family="Helvetica,sans-Serif" font-size="10.00">Arduino.h</text>
</a>
</g>
</g>
<!-- Node1&#45;&gt;Node2 -->
<g id="edge1" class="edge">
<title>Node1&#45;&gt;Node2</title>
<path fill="none" stroke="#63b8ff" d="M1890.38,-296.96C1900.89,-287.77 1913.66,-274.91 1921.66,-261 1937.52,-233.43 1940.66,-223.81 1940.66,-192 1940.66,-192 1940.66,-192 1940.66,-124 1940.66,-77.38 1904.91,-72.41 1861.66,-55 1778.37,-21.46 1140.81,-12.65 970.42,-10.88"/>
<polygon fill="#63b8ff" stroke="#63b8ff" points="970.38,-7.38 960.34,-10.78 970.31,-14.38 970.38,-7.38"/>
</g>
<!-- Node3 -->
<g id="node3" class="node">
<title>Node3</title>
<g id="a_node3"><a xlink:title=" ">
<polygon fill="#e0e0e0" stroke="#999999" points="2032.16,-261 1969.16,-261 1969.16,-242 2032.16,-242 2032.16,-261"/>
<text text-anchor="middle" x="2000.66" y="-249" font-family="Helvetica,sans-Serif" font-size="10.00">esp_log.h</text>
</a>
</g>
</g>
<!-- Node1&#45;&gt;Node3 -->
<g id="edge2" class="edge">
<title>Node1&#45;&gt;Node3</title>
<path fill="none" stroke="#63b8ff" d="M1903.32,-296.99C1924.39,-287.36 1952.15,-274.67 1972.63,-265.31"/>
<polygon fill="#63b8ff" stroke="#63b8ff" points="1974.12,-268.48 1981.76,-261.14 1971.21,-262.11 1974.12,-268.48"/>
</g>
<!-- Node4 -->
<g id="node4" class="node">
<title>Node4</title>
<g id="a_node4"><a xlink:title=" ">
<polygon fill="#e0e0e0" stroke="#999999" points="1605.16,-134.5 1492.16,-134.5 1492.16,-115.5 1605.16,-115.5 1605.16,-134.5"/>
<text text-anchor="middle" x="1548.66" y="-122.5" font-family="Helvetica,sans-Serif" font-size="10.00">freertos/FreeRTOS.h</text>
</a>
</g>
</g>
<!-- Node1&#45;&gt;Node4 -->
<g id="edge3" class="edge">
<title>Node1&#45;&gt;Node4</title>
<path fill="none" stroke="#63b8ff" d="M1812.5,-297.92C1754.85,-283.09 1667.68,-254.45 1605.66,-206 1583.99,-189.07 1567.01,-161.73 1557.4,-143.81"/>
<polygon fill="#63b8ff" stroke="#63b8ff" points="1560.42,-142.01 1552.73,-134.72 1554.19,-145.21 1560.42,-142.01"/>
</g>
<!-- Node5 -->
<g id="node5" class="node">
<title>Node5</title>
<g id="a_node5"><a xlink:href="_t_c_a9534_8h.html" target="_top" xlink:title=" ">
<polygon fill="white" stroke="#666666" points="162.66,-74 94.66,-74 94.66,-55 162.66,-55 162.66,-74"/>
<text text-anchor="middle" x="128.66" y="-62" font-family="Helvetica,sans-Serif" font-size="10.00">TCA9534.h</text>
</a>
</g>
</g>
<!-- Node1&#45;&gt;Node5 -->
<g id="edge4" class="edge">
<title>Node1&#45;&gt;Node5</title>
<path fill="none" stroke="#63b8ff" d="M1812.52,-310.43C1541.26,-307.66 438.34,-294.45 287.66,-261 154.52,-231.45 80.72,-253.87 5.66,-140 -1.67,-128.87 -1.99,-120.91 5.66,-110 23.36,-84.78 56.84,-73.79 84.41,-69.04"/>
<polygon fill="#63b8ff" stroke="#63b8ff" points="85.27,-72.45 94.64,-67.5 84.23,-65.52 85.27,-72.45"/>
</g>
<!-- Node7 -->
<g id="node7" class="node">
<title>Node7</title>
<g id="a_node7"><a xlink:title=" ">
<polygon fill="#e0e0e0" stroke="#999999" points="2134.66,-261 2050.66,-261 2050.66,-242 2134.66,-242 2134.66,-261"/>
<text text-anchor="middle" x="2092.66" y="-249" font-family="Helvetica,sans-Serif" font-size="10.00">driver/rtc_io.h</text>
</a>
</g>
</g>
<!-- Node1&#45;&gt;Node7 -->
<g id="edge7" class="edge">
<title>Node1&#45;&gt;Node7</title>
<path fill="none" stroke="#63b8ff" d="M1925.36,-296.99C1963.66,-286.8 2014.81,-273.2 2050.43,-263.73"/>
<polygon fill="#63b8ff" stroke="#63b8ff" points="2051.73,-267.01 2060.5,-261.05 2049.93,-260.24 2051.73,-267.01"/>
</g>
<!-- Node8 -->
<g id="node8" class="node">
<title>Node8</title>
<g id="a_node8"><a xlink:href="globals_8h.html" target="_top" xlink:title=" ">
<polygon fill="white" stroke="#666666" points="287.16,-200.5 226.16,-200.5 226.16,-181.5 287.16,-181.5 287.16,-200.5"/>
<text text-anchor="middle" x="256.66" y="-188.5" font-family="Helvetica,sans-Serif" font-size="10.00">globals.h</text>
</a>
</g>
</g>
<!-- Node1&#45;&gt;Node8 -->
<g id="edge8" class="edge">
<title>Node1&#45;&gt;Node8</title>
<path fill="none" stroke="#63b8ff" d="M1812.39,-310.38C1534.49,-307.36 387.46,-293.01 318.66,-261 295.47,-250.21 277.19,-226.25 266.66,-209.61"/>
<polygon fill="#63b8ff" stroke="#63b8ff" points="269.52,-207.59 261.37,-200.82 263.52,-211.19 269.52,-207.59"/>
</g>
<!-- Node14 -->
<g id="node14" class="node">
<title>Node14</title>
<g id="a_node14"><a xlink:href="_sensor_task_8h.html" target="_top" xlink:title=" ">
<polygon fill="white" stroke="#666666" points="1912.66,-261 1832.66,-261 1832.66,-242 1912.66,-242 1912.66,-261"/>
<text text-anchor="middle" x="1872.66" y="-249" font-family="Helvetica,sans-Serif" font-size="10.00">SensorTask.h</text>
</a>
</g>
</g>
<!-- Node1&#45;&gt;Node14 -->
<g id="edge19" class="edge">
<title>Node1&#45;&gt;Node14</title>
<path fill="none" stroke="#63b8ff" d="M1872.66,-296.84C1872.66,-289.21 1872.66,-279.7 1872.66,-271.45"/>
<polygon fill="#63b8ff" stroke="#63b8ff" points="1876.16,-271.27 1872.66,-261.27 1869.16,-271.27 1876.16,-271.27"/>
</g>
<!-- Node16 -->
<g id="node16" class="node">
<title>Node16</title>
<g id="a_node16"><a xlink:href="_device_config_8h.html" target="_top" xlink:title="Node configuration options.">
<polygon fill="white" stroke="#666666" points="1721.66,-134.5 1631.66,-134.5 1631.66,-115.5 1721.66,-115.5 1721.66,-134.5"/>
<text text-anchor="middle" x="1676.66" y="-122.5" font-family="Helvetica,sans-Serif" font-size="10.00">DeviceConfig.h</text>
</a>
</g>
</g>
<!-- Node1&#45;&gt;Node16 -->
<g id="edge21" class="edge">
<title>Node1&#45;&gt;Node16</title>
<path fill="none" stroke="#63b8ff" d="M1854.99,-296.87C1843.35,-287.25 1828.03,-273.94 1815.66,-261 1782.24,-226.02 1782.9,-209.15 1747.66,-176 1733.07,-162.27 1714.5,-149.32 1700.01,-140.04"/>
<polygon fill="#63b8ff" stroke="#63b8ff" points="1701.49,-136.84 1691.16,-134.5 1697.77,-142.78 1701.49,-136.84"/>
</g>
<!-- Node17 -->
<g id="node17" class="node">
<title>Node17</title>
<g id="a_node17"><a xlink:href="_c_l_i_8h.html" target="_top" xlink:title="FreeRTOS CLI handler.">
<polygon fill="white" stroke="#666666" points="1285.16,-261 1230.16,-261 1230.16,-242 1285.16,-242 1285.16,-261"/>
<text text-anchor="middle" x="1257.66" y="-249" font-family="Helvetica,sans-Serif" font-size="10.00">cli/CLI.h</text>
</a>
</g>
</g>
<!-- Node1&#45;&gt;Node17 -->
<g id="edge24" class="edge">
<title>Node1&#45;&gt;Node17</title>
<path fill="none" stroke="#63b8ff" d="M1812.57,-305.28C1686.78,-293.32 1398.81,-265.93 1295.46,-256.1"/>
<polygon fill="#63b8ff" stroke="#63b8ff" points="1295.76,-252.61 1285.48,-255.15 1295.1,-259.58 1295.76,-252.61"/>
</g>
<!-- Node34 -->
<g id="node34" class="node">
<title>Node34</title>
<g id="a_node34"><a xlink:href="tones_8h.html" target="_top" xlink:title="Audio control for the onboard piezo buzzer.">
<polygon fill="white" stroke="#666666" points="678.16,-74 547.16,-74 547.16,-55 678.16,-55 678.16,-74"/>
<text text-anchor="middle" x="612.66" y="-62" font-family="Helvetica,sans-Serif" font-size="10.00">audio&#45;feedback/tones.h</text>
</a>
</g>
</g>
<!-- Node1&#45;&gt;Node34 -->
<g id="edge84" class="edge">
<title>Node1&#45;&gt;Node34</title>
<path fill="none" stroke="#63b8ff" d="M1812.21,-309.04C1541.14,-299.62 446.66,-254.65 351.66,-140 343.16,-129.73 343.06,-120.19 351.66,-110 363.63,-95.82 464.26,-81.83 536.99,-73.43"/>
<polygon fill="#63b8ff" stroke="#63b8ff" points="537.52,-76.89 547.06,-72.28 536.73,-69.94 537.52,-76.89"/>
</g>
<!-- Node40 -->
<g id="node40" class="node">
<title>Node40</title>
<g id="a_node40"><a xlink:href="peripherals_8h.html" target="_top" xlink:title=" ">
<polygon fill="white" stroke="#666666" points="1874.66,-200.5 1794.66,-200.5 1794.66,-181.5 1874.66,-181.5 1874.66,-200.5"/>
<text text-anchor="middle" x="1834.66" y="-188.5" font-family="Helvetica,sans-Serif" font-size="10.00">peripherals.h</text>
</a>
</g>
</g>
<!-- Node1&#45;&gt;Node40 -->
<g id="edge81" class="edge">
<title>Node1&#45;&gt;Node40</title>
<path fill="none" stroke="#63b8ff" d="M1852.57,-296.8C1841.79,-287.9 1829.54,-275.4 1823.66,-261 1817.01,-244.71 1821.43,-224.73 1826.51,-210.47"/>
<polygon fill="#63b8ff" stroke="#63b8ff" points="1829.89,-211.42 1830.35,-200.84 1823.39,-208.83 1829.89,-211.42"/>
</g>
<!-- Node41 -->
<g id="node41" class="node">
<title>Node41</title>
<g id="a_node41"><a xlink:href="uplinks_8h.html" target="_top" xlink:title=" ">
<polygon fill="white" stroke="#666666" points="2214.16,-261 2153.16,-261 2153.16,-242 2214.16,-242 2214.16,-261"/>
<text text-anchor="middle" x="2183.66" y="-249" font-family="Helvetica,sans-Serif" font-size="10.00">uplinks.h</text>
</a>
</g>
</g>
<!-- Node1&#45;&gt;Node41 -->
<g id="edge85" class="edge">
<title>Node1&#45;&gt;Node41</title>
<path fill="none" stroke="#63b8ff" d="M1932.76,-300.39C1985.48,-290.98 2064.47,-276.6 2143.03,-261.08"/>
<polygon fill="#63b8ff" stroke="#63b8ff" points="2143.98,-264.46 2153.11,-259.08 2142.62,-257.59 2143.98,-264.46"/>
</g>
<!-- Node42 -->
<g id="node42" class="node">
<title>Node42</title>
<g id="a_node42"><a xlink:href="ulp_8h.html" target="_top" xlink:title=" ">
<polygon fill="white" stroke="#666666" points="2273.16,-261 2232.16,-261 2232.16,-242 2273.16,-242 2273.16,-261"/>
<text text-anchor="middle" x="2252.66" y="-249" font-family="Helvetica,sans-Serif" font-size="10.00">ulp.h</text>
</a>
</g>
</g>
<!-- Node1&#45;&gt;Node42 -->
<g id="edge86" class="edge">
<title>Node1&#45;&gt;Node42</title>
<path fill="none" stroke="#63b8ff" d="M1932.75,-305.1C2000.89,-297.81 2115.4,-283.77 2222.19,-261.06"/>
<polygon fill="#63b8ff" stroke="#63b8ff" points="2223.13,-264.44 2232.16,-258.9 2221.65,-257.59 2223.13,-264.44"/>
</g>
<!-- Node43 -->
<g id="node43" class="node">
<title>Node43</title>
<g id="a_node43"><a xlink:title=" ">
<polygon fill="#e0e0e0" stroke="#999999" points="2353.66,-261 2291.66,-261 2291.66,-242 2353.66,-242 2353.66,-261"/>
<text text-anchor="middle" x="2322.66" y="-249" font-family="Helvetica,sans-Serif" font-size="10.00">soc/soc.h</text>
</a>
</g>
</g>
<!-- Node1&#45;&gt;Node43 -->
<g id="edge87" class="edge">
<title>Node1&#45;&gt;Node43</title>
<path fill="none" stroke="#63b8ff" d="M1933,-305.32C2011.12,-297.59 2151.7,-282.42 2281.17,-261.12"/>
<polygon fill="#63b8ff" stroke="#63b8ff" points="2281.98,-264.54 2291.27,-259.44 2280.83,-257.63 2281.98,-264.54"/>
</g>
<!-- Node44 -->
<g id="node44" class="node">
<title>Node44</title>
<g id="a_node44"><a xlink:title=" ">
<polygon fill="#e0e0e0" stroke="#999999" points="2473.66,-261 2371.66,-261 2371.66,-242 2473.66,-242 2473.66,-261"/>
<text text-anchor="middle" x="2422.66" y="-249" font-family="Helvetica,sans-Serif" font-size="10.00">soc/rtc_cntl_reg.h</text>
</a>
</g>
</g>
<!-- Node1&#45;&gt;Node44 -->
<g id="edge88" class="edge">
<title>Node1&#45;&gt;Node44</title>
<path fill="none" stroke="#63b8ff" d="M1932.72,-305.63C2023.29,-297.37 2200.5,-280.55 2361.53,-261.1"/>
<polygon fill="#63b8ff" stroke="#63b8ff" points="2362.11,-264.55 2371.62,-259.87 2361.27,-257.6 2362.11,-264.55"/>
</g>
<!-- Node5&#45;&gt;Node2 -->
<g id="edge5" class="edge">
<title>Node5&#45;&gt;Node2</title>
<path fill="none" stroke="#63b8ff" d="M162.7,-56.46C166.06,-55.91 169.42,-55.41 172.66,-55 443.38,-21.03 771.98,-12.89 886.72,-11.03"/>
<polygon fill="#63b8ff" stroke="#63b8ff" points="886.89,-14.53 896.84,-10.87 886.78,-7.53 886.89,-14.53"/>
</g>
<!-- Node6 -->
<g id="node6" class="node">
<title>Node6</title>
<g id="a_node6"><a xlink:title=" ">
<polygon fill="#e0e0e0" stroke="#999999" points="121.66,-19 73.66,-19 73.66,0 121.66,0 121.66,-19"/>
<text text-anchor="middle" x="97.66" y="-7" font-family="Helvetica,sans-Serif" font-size="10.00">Wire.h</text>
</a>
</g>
</g>
<!-- Node5&#45;&gt;Node6 -->
<g id="edge6" class="edge">
<title>Node5&#45;&gt;Node6</title>
<path fill="none" stroke="#63b8ff" d="M123.54,-54.75C119.3,-47.49 113.14,-36.95 107.89,-27.98"/>
<polygon fill="#63b8ff" stroke="#63b8ff" points="110.76,-25.95 102.69,-19.09 104.71,-29.49 110.76,-25.95"/>
</g>
<!-- Node9 -->
<g id="node9" class="node">
<title>Node9</title>
<g id="a_node9"><a xlink:href="battery_8h.html" target="_top" xlink:title="Battery voltage and current monitoring using INA219 IC.">
<polygon fill="white" stroke="#666666" points="332.16,-74 181.16,-74 181.16,-55 332.16,-55 332.16,-74"/>
<text text-anchor="middle" x="256.66" y="-62" font-family="Helvetica,sans-Serif" font-size="10.00">power_monitoring/battery.h</text>
</a>
</g>
</g>
<!-- Node8&#45;&gt;Node9 -->
<g id="edge9" class="edge">
<title>Node8&#45;&gt;Node9</title>
<path fill="none" stroke="#63b8ff" d="M256.66,-181.44C256.66,-161.54 256.66,-111.76 256.66,-84.35"/>
<polygon fill="#63b8ff" stroke="#63b8ff" points="260.16,-84.12 256.66,-74.12 253.16,-84.12 260.16,-84.12"/>
</g>
<!-- Node11 -->
<g id="node11" class="node">
<title>Node11</title>
<g id="a_node11"><a xlink:href="solar_8h.html" target="_top" xlink:title="Solar voltage and current monitoring using INA219 IC.">
<polygon fill="white" stroke="#666666" points="490.66,-74 350.66,-74 350.66,-55 490.66,-55 490.66,-74"/>
<text text-anchor="middle" x="420.66" y="-62" font-family="Helvetica,sans-Serif" font-size="10.00">power_monitoring/solar.h</text>
</a>
</g>
</g>
<!-- Node8&#45;&gt;Node11 -->
<g id="edge12" class="edge">
<title>Node8&#45;&gt;Node11</title>
<path fill="none" stroke="#63b8ff" d="M261.36,-181.39C270.48,-165.36 292.04,-130.72 318.66,-110 337.27,-95.52 361.31,-84.73 381.38,-77.41"/>
<polygon fill="#63b8ff" stroke="#63b8ff" points="382.59,-80.69 390.88,-74.09 380.28,-74.08 382.59,-80.69"/>
</g>
<!-- Node12 -->
<g id="node12" class="node">
<title>Node12</title>
<g id="a_node12"><a xlink:title=" ">
<polygon fill="#e0e0e0" stroke="#999999" points="144.66,-140 14.66,-140 14.66,-110 144.66,-110 144.66,-140"/>
<text text-anchor="start" x="22.66" y="-128" font-family="Helvetica,sans-Serif" font-size="10.00">SparkFun_u&#45;blox_SARA</text>
<text text-anchor="middle" x="79.66" y="-117" font-family="Helvetica,sans-Serif" font-size="10.00">&#45;R5_Arduino_Library.h</text>
</a>
</g>
</g>
<!-- Node8&#45;&gt;Node12 -->
<g id="edge15" class="edge">
<title>Node8&#45;&gt;Node12</title>
<path fill="none" stroke="#63b8ff" d="M232.79,-181.37C206.17,-171.74 162.39,-155.91 128.44,-143.64"/>
<polygon fill="#63b8ff" stroke="#63b8ff" points="129.3,-140.22 118.7,-140.12 126.92,-146.81 129.3,-140.22"/>
</g>
<!-- Node13 -->
<g id="node13" class="node">
<title>Node13</title>
<g id="a_node13"><a xlink:href="_c_a_t___m1_8h.html" target="_top" xlink:title=" ">
<polygon fill="white" stroke="#666666" points="228.16,-134.5 163.16,-134.5 163.16,-115.5 228.16,-115.5 228.16,-134.5"/>
<text text-anchor="middle" x="195.66" y="-122.5" font-family="Helvetica,sans-Serif" font-size="10.00">CAT_M1.h</text>
</a>
</g>
</g>
<!-- Node8&#45;&gt;Node13 -->
<g id="edge16" class="edge">
<title>Node8&#45;&gt;Node13</title>
<path fill="none" stroke="#63b8ff" d="M248.44,-181.37C238.94,-171.4 223.11,-154.79 211.26,-142.36"/>
<polygon fill="#63b8ff" stroke="#63b8ff" points="213.58,-139.73 204.15,-134.91 208.52,-144.56 213.58,-139.73"/>
</g>
<!-- Node9&#45;&gt;Node2 -->
<g id="edge10" class="edge">
<title>Node9&#45;&gt;Node2</title>
<path fill="none" stroke="#63b8ff" d="M332.2,-55.85C335.4,-55.56 338.56,-55.27 341.66,-55 546.02,-37.04 790.79,-19.89 886.96,-13.32"/>
<polygon fill="#63b8ff" stroke="#63b8ff" points="887.41,-16.79 897.14,-12.62 886.93,-9.81 887.41,-16.79"/>
</g>
<!-- Node10 -->
<g id="node10" class="node">
<title>Node10</title>
<g id="a_node10"><a xlink:title=" ">
<polygon fill="#e0e0e0" stroke="#999999" points="391.16,-19 286.16,-19 286.16,0 391.16,0 391.16,-19"/>
<text text-anchor="middle" x="338.66" y="-7" font-family="Helvetica,sans-Serif" font-size="10.00">Adafruit_INA219.h</text>
</a>
</g>
</g>
<!-- Node9&#45;&gt;Node10 -->
<g id="edge11" class="edge">
<title>Node9&#45;&gt;Node10</title>
<path fill="none" stroke="#63b8ff" d="M269.84,-54.98C282.44,-46.84 301.67,-34.41 316.6,-24.76"/>
<polygon fill="#63b8ff" stroke="#63b8ff" points="318.75,-27.54 325.25,-19.17 314.95,-21.66 318.75,-27.54"/>
</g>
<!-- Node11&#45;&gt;Node2 -->
<g id="edge13" class="edge">
<title>Node11&#45;&gt;Node2</title>
<path fill="none" stroke="#63b8ff" d="M490.77,-56.19C598.13,-44.98 799.99,-23.93 887,-14.85"/>
<polygon fill="#63b8ff" stroke="#63b8ff" points="887.45,-18.32 897.03,-13.8 886.72,-11.36 887.45,-18.32"/>
</g>
<!-- Node11&#45;&gt;Node10 -->
<g id="edge14" class="edge">
<title>Node11&#45;&gt;Node10</title>
<path fill="none" stroke="#63b8ff" d="M407.49,-54.98C394.89,-46.84 375.66,-34.41 360.72,-24.76"/>
<polygon fill="#63b8ff" stroke="#63b8ff" points="362.38,-21.66 352.08,-19.17 358.58,-27.54 362.38,-21.66"/>
</g>
<!-- Node13&#45;&gt;Node5 -->
<g id="edge18" class="edge">
<title>Node13&#45;&gt;Node5</title>
<path fill="none" stroke="#63b8ff" d="M185.78,-115.37C175.39,-106.3 158.83,-91.84 146.21,-80.82"/>
<polygon fill="#63b8ff" stroke="#63b8ff" points="148.42,-78.11 138.59,-74.17 143.82,-83.38 148.42,-78.11"/>
</g>
<!-- Node13&#45;&gt;Node6 -->
<g id="edge17" class="edge">
<title>Node13&#45;&gt;Node6</title>
<path fill="none" stroke="#63b8ff" d="M173.69,-115.49C143.08,-103.43 90.77,-81.94 85.66,-74 76.85,-60.32 81.88,-41.76 87.89,-28.24"/>
<polygon fill="#63b8ff" stroke="#63b8ff" points="91.14,-29.56 92.46,-19.05 84.87,-26.44 91.14,-29.56"/>
</g>
<!-- Node15 -->
<g id="node15" class="node">
<title>Node15</title>
<g id="a_node15"><a xlink:title=" ">
<polygon fill="#e0e0e0" stroke="#999999" points="1833.16,-74 1746.16,-74 1746.16,-55 1833.16,-55 1833.16,-74"/>
<text text-anchor="middle" x="1789.66" y="-62" font-family="Helvetica,sans-Serif" font-size="10.00">ArduinoJSON.h</text>
</a>
</g>
</g>
<!-- Node14&#45;&gt;Node15 -->
<g id="edge20" class="edge">
<title>Node14&#45;&gt;Node15</title>
<path fill="none" stroke="#63b8ff" d="M1876.56,-241.95C1882.45,-227.81 1892.06,-198.82 1883.66,-176 1868.86,-135.76 1832.17,-100.17 1809.26,-80.84"/>
<polygon fill="#63b8ff" stroke="#63b8ff" points="1811.17,-77.89 1801.22,-74.26 1806.74,-83.3 1811.17,-77.89"/>
</g>
<!-- Node16&#45;&gt;Node2 -->
<g id="edge22" class="edge">
<title>Node16&#45;&gt;Node2</title>
<path fill="none" stroke="#63b8ff" d="M1677.19,-115.1C1677.55,-100.03 1675.8,-69.72 1657.66,-55 1604.29,-11.7 1118.37,-9.83 970.9,-10.27"/>
<polygon fill="#63b8ff" stroke="#63b8ff" points="970.47,-6.77 960.48,-10.3 970.49,-13.77 970.47,-6.77"/>
</g>
<!-- Node16&#45;&gt;Node15 -->
<g id="edge23" class="edge">
<title>Node16&#45;&gt;Node15</title>
<path fill="none" stroke="#63b8ff" d="M1693.34,-115.37C1711.95,-105.73 1742.29,-90.03 1763.94,-78.81"/>
<polygon fill="#63b8ff" stroke="#63b8ff" points="1765.65,-81.87 1772.92,-74.17 1762.43,-75.66 1765.65,-81.87"/>
</g>
<!-- Node17&#45;&gt;Node2 -->
<g id="edge25" class="edge">
<title>Node17&#45;&gt;Node2</title>
<path fill="none" stroke="#63b8ff" d="M1285.42,-244.28C1305.44,-238.18 1331.08,-226.68 1343.66,-206 1352.73,-191.1 1356.02,-128.63 1340.66,-110 1293.51,-52.82 1065.45,-24.02 970.39,-14.34"/>
<polygon fill="#63b8ff" stroke="#63b8ff" points="970.58,-10.84 960.28,-13.33 969.88,-17.81 970.58,-10.84"/>
</g>
<!-- Node17&#45;&gt;Node4 -->
<g id="edge26" class="edge">
<title>Node17&#45;&gt;Node4</title>
<path fill="none" stroke="#63b8ff" d="M1285.44,-242.3C1310.11,-234.52 1346.78,-221.69 1376.66,-206 1397.29,-195.17 1399.1,-186.96 1419.66,-176 1449.36,-160.18 1485.19,-146.7 1511.55,-137.74"/>
<polygon fill="#63b8ff" stroke="#63b8ff" points="1512.77,-141.02 1521.15,-134.53 1510.56,-134.38 1512.77,-141.02"/>
</g>
<!-- Node18 -->
<g id="node18" class="node">
<title>Node18</title>
<g id="a_node18"><a xlink:title=" ">
<polygon fill="#e0e0e0" stroke="#999999" points="1145.16,-134.5 1038.16,-134.5 1038.16,-115.5 1145.16,-115.5 1145.16,-134.5"/>
<text text-anchor="middle" x="1091.66" y="-122.5" font-family="Helvetica,sans-Serif" font-size="10.00">cli/FreeRTOS_CLI.h</text>
</a>
</g>
</g>
<!-- Node17&#45;&gt;Node18 -->
<g id="edge27" class="edge">
<title>Node17&#45;&gt;Node18</title>
<path fill="none" stroke="#63b8ff" d="M1229.98,-249.48C1144.05,-246.03 886.22,-233.47 861.66,-206 852.78,-196.06 853.3,-186.38 861.66,-176 863.09,-174.23 973.57,-150.78 1040.87,-136.63"/>
<polygon fill="#63b8ff" stroke="#63b8ff" points="1041.8,-140.01 1050.87,-134.53 1040.36,-133.16 1041.8,-140.01"/>
</g>
<!-- Node19 -->
<g id="node19" class="node">
<title>Node19</title>
<g id="a_node19"><a xlink:href="cat-m1_8h.html" target="_top" xlink:title="CAT&#45;M1 CLI command request and response handler.">
<polygon fill="white" stroke="#666666" points="1002.66,-200.5 870.66,-200.5 870.66,-181.5 1002.66,-181.5 1002.66,-200.5"/>
<text text-anchor="middle" x="936.66" y="-188.5" font-family="Helvetica,sans-Serif" font-size="10.00">cli/peripherals/cat&#45;m1.h</text>
</a>
</g>
</g>
<!-- Node17&#45;&gt;Node19 -->
<g id="edge28" class="edge">
<title>Node17&#45;&gt;Node19</title>
<path fill="none" stroke="#63b8ff" d="M1229.99,-245.55C1184.44,-237.38 1090.85,-220.55 1011.66,-206 1005.42,-204.85 998.89,-203.65 992.4,-202.44"/>
<polygon fill="#63b8ff" stroke="#63b8ff" points="992.74,-198.94 982.27,-200.55 991.46,-205.82 992.74,-198.94"/>
</g>
<!-- Node22 -->
<g id="node22" class="node">
<title>Node22</title>
<g id="a_node22"><a xlink:href="sdi12_8h.html" target="_top" xlink:title="SDI&#45;12 command line interface handler.">
<polygon fill="white" stroke="#666666" points="1144.66,-200.5 1020.66,-200.5 1020.66,-181.5 1144.66,-181.5 1144.66,-200.5"/>
<text text-anchor="middle" x="1082.66" y="-188.5" font-family="Helvetica,sans-Serif" font-size="10.00">cli/peripherals/sdi12.h</text>
</a>
</g>
</g>
<!-- Node17&#45;&gt;Node22 -->
<g id="edge34" class="edge">
<title>Node17&#45;&gt;Node22</title>
<path fill="none" stroke="#63b8ff" d="M1232.22,-241.99C1202.02,-231.9 1151.51,-215.01 1117.65,-203.69"/>
<polygon fill="#63b8ff" stroke="#63b8ff" points="1118.73,-200.37 1108.14,-200.52 1116.52,-207.01 1118.73,-200.37"/>
</g>
<!-- Node27 -->
<g id="node27" class="node">
<title>Node27</title>
<g id="a_node27"><a xlink:href="server_8h.html" target="_top" xlink:title="Handle the setup and maintenance of the BLE server and connected clients.">
<polygon fill="white" stroke="#666666" points="814.16,-200.5 709.16,-200.5 709.16,-181.5 814.16,-181.5 814.16,-200.5"/>
<text text-anchor="middle" x="761.66" y="-188.5" font-family="Helvetica,sans-Serif" font-size="10.00">bluetooth/server.h</text>
</a>
</g>
</g>
<!-- Node17&#45;&gt;Node27 -->
<g id="edge45" class="edge">
<title>Node17&#45;&gt;Node27</title>
<path fill="none" stroke="#63b8ff" d="M1230.13,-248.92C1160.58,-244.37 973.55,-229.99 819.66,-206 813.35,-205.01 806.72,-203.83 800.29,-202.56"/>
<polygon fill="#63b8ff" stroke="#63b8ff" points="800.9,-199.11 790.4,-200.53 799.49,-205.97 800.9,-199.11"/>
</g>
<!-- Node37 -->
<g id="node37" class="node">
<title>Node37</title>
<g id="a_node37"><a xlink:href="acquisition__intervals_8h.html" target="_top" xlink:title="Handles the time between measurements and uplinks by the device over LTE.">
<polygon fill="white" stroke="#666666" points="1334.66,-206 1180.66,-206 1180.66,-176 1334.66,-176 1334.66,-206"/>
<text text-anchor="start" x="1188.66" y="-194" font-family="Helvetica,sans-Serif" font-size="10.00">cli/device_config/acquisition</text>
<text text-anchor="middle" x="1257.66" y="-183" font-family="Helvetica,sans-Serif" font-size="10.00">_intervals.h</text>
</a>
</g>
</g>
<!-- Node17&#45;&gt;Node37 -->
<g id="edge71" class="edge">
<title>Node17&#45;&gt;Node37</title>
<path fill="none" stroke="#63b8ff" d="M1257.66,-241.87C1257.66,-235.11 1257.66,-225.35 1257.66,-216.26"/>
<polygon fill="#63b8ff" stroke="#63b8ff" points="1261.16,-216.11 1257.66,-206.11 1254.16,-216.11 1261.16,-216.11"/>
</g>
<!-- Node38 -->
<g id="node38" class="node">
<title>Node38</title>
<g id="a_node38"><a xlink:href="mqtt__cli_8h.html" target="_top" xlink:title="MQTT setup and configuration through the CLI.">
<polygon fill="white" stroke="#666666" points="1738.66,-206 1614.66,-206 1614.66,-176 1738.66,-176 1738.66,-206"/>
<text text-anchor="start" x="1622.66" y="-194" font-family="Helvetica,sans-Serif" font-size="10.00">cli/device_config/mqtt</text>
<text text-anchor="middle" x="1676.66" y="-183" font-family="Helvetica,sans-Serif" font-size="10.00">_cli.h</text>
</a>
</g>
</g>
<!-- Node17&#45;&gt;Node38 -->
<g id="edge77" class="edge">
<title>Node17&#45;&gt;Node38</title>
<path fill="none" stroke="#63b8ff" d="M1285.48,-246.62C1349.76,-237.64 1510.3,-215.23 1604.53,-202.07"/>
<polygon fill="#63b8ff" stroke="#63b8ff" points="1605.14,-205.52 1614.56,-200.67 1604.17,-198.59 1605.14,-205.52"/>
</g>
<!-- Node39 -->
<g id="node39" class="node">
<title>Node39</title>
<g id="a_node39"><a xlink:href="config__cli_8h.html" target="_top" xlink:title=" ">
<polygon fill="white" stroke="#666666" points="1558.66,-206 1428.66,-206 1428.66,-176 1558.66,-176 1558.66,-206"/>
<text text-anchor="start" x="1436.66" y="-194" font-family="Helvetica,sans-Serif" font-size="10.00">cli/device_config/config</text>
<text text-anchor="middle" x="1493.66" y="-183" font-family="Helvetica,sans-Serif" font-size="10.00">_cli.h</text>
</a>
</g>
</g>
<!-- Node17&#45;&gt;Node39 -->
<g id="edge79" class="edge">
<title>Node17&#45;&gt;Node39</title>
<path fill="none" stroke="#63b8ff" d="M1285.2,-243.67C1319.82,-235.09 1380.41,-220.07 1427.38,-208.43"/>
<polygon fill="#63b8ff" stroke="#63b8ff" points="1428.31,-211.81 1437.18,-206 1426.63,-205.01 1428.31,-211.81"/>
</g>
<!-- Node19&#45;&gt;Node4 -->
<g id="edge29" class="edge">
<title>Node19&#45;&gt;Node4</title>
<path fill="none" stroke="#63b8ff" d="M978.2,-181.47C989.05,-179.45 1000.77,-177.47 1011.66,-176 1203.05,-150.25 1252.69,-160.89 1444.66,-140 1456.69,-138.69 1469.48,-137.12 1481.82,-135.51"/>
<polygon fill="#63b8ff" stroke="#63b8ff" points="1482.6,-138.94 1492.05,-134.15 1481.68,-132 1482.6,-138.94"/>
</g>
<!-- Node19&#45;&gt;Node13 -->
<g id="edge33" class="edge">
<title>Node19&#45;&gt;Node13</title>
<path fill="none" stroke="#63b8ff" d="M872.19,-181.48C856.34,-179.53 839.4,-177.57 823.66,-176 614.32,-155.06 561.33,-157.4 351.66,-140 313.32,-136.82 269.7,-132.88 238.35,-129.99"/>
<polygon fill="#63b8ff" stroke="#63b8ff" points="238.5,-126.48 228.22,-129.05 237.86,-133.46 238.5,-126.48"/>
</g>
<!-- Node19&#45;&gt;Node18 -->
<g id="edge32" class="edge">
<title>Node19&#45;&gt;Node18</title>
<path fill="none" stroke="#63b8ff" d="M957.57,-181.37C984.26,-170.35 1030.65,-151.19 1061.26,-138.55"/>
<polygon fill="#63b8ff" stroke="#63b8ff" points="1062.69,-141.75 1070.6,-134.7 1060.02,-135.28 1062.69,-141.75"/>
</g>
<!-- Node20 -->
<g id="node20" class="node">
<title>Node20</title>
<g id="a_node20"><a xlink:title=" ">
<polygon fill="#e0e0e0" stroke="#999999" points="1224.16,-134.5 1163.16,-134.5 1163.16,-115.5 1224.16,-115.5 1224.16,-134.5"/>
<text text-anchor="middle" x="1193.66" y="-122.5" font-family="Helvetica,sans-Serif" font-size="10.00">Stream.h</text>
</a>
</g>
</g>
<!-- Node19&#45;&gt;Node20 -->
<g id="edge30" class="edge">
<title>Node19&#45;&gt;Node20</title>
<path fill="none" stroke="#63b8ff" d="M980.9,-181.47C1025.23,-172.54 1095.23,-157.42 1154.66,-140 1156.94,-139.33 1159.27,-138.61 1161.61,-137.85"/>
<polygon fill="#63b8ff" stroke="#63b8ff" points="1162.79,-141.14 1171.13,-134.6 1160.53,-134.52 1162.79,-141.14"/>
</g>
<!-- Node21 -->
<g id="node21" class="node">
<title>Node21</title>
<g id="a_node21"><a xlink:title=" ">
<polygon fill="#e0e0e0" stroke="#999999" points="1331.16,-134.5 1242.16,-134.5 1242.16,-115.5 1331.16,-115.5 1331.16,-134.5"/>
<text text-anchor="middle" x="1286.66" y="-122.5" font-family="Helvetica,sans-Serif" font-size="10.00">StreamString.h</text>
</a>
</g>
</g>
<!-- Node19&#45;&gt;Node21 -->
<g id="edge31" class="edge">
<title>Node19&#45;&gt;Node21</title>
<path fill="none" stroke="#63b8ff" d="M981.45,-181.46C991.39,-179.61 1001.88,-177.71 1011.66,-176 1110.13,-158.83 1135.89,-160.79 1233.66,-140 1237.85,-139.11 1242.21,-138.1 1246.54,-137.04"/>
<polygon fill="#63b8ff" stroke="#63b8ff" points="1247.68,-140.36 1256.52,-134.51 1245.96,-133.57 1247.68,-140.36"/>
</g>
<!-- Node22&#45;&gt;Node4 -->
<g id="edge35" class="edge">
<title>Node22&#45;&gt;Node4</title>
<path fill="none" stroke="#63b8ff" d="M1134.85,-181.44C1146.93,-179.56 1159.73,-177.64 1171.66,-176 1307.33,-157.36 1342.39,-161.26 1477.66,-140 1484.33,-138.95 1491.33,-137.73 1498.23,-136.44"/>
<polygon fill="#63b8ff" stroke="#63b8ff" points="1499.04,-139.85 1508.21,-134.54 1497.73,-132.98 1499.04,-139.85"/>
</g>
<!-- Node22&#45;&gt;Node18 -->
<g id="edge40" class="edge">
<title>Node22&#45;&gt;Node18</title>
<path fill="none" stroke="#63b8ff" d="M1083.88,-181.37C1085.19,-172.07 1087.31,-156.98 1089.01,-144.9"/>
<polygon fill="#63b8ff" stroke="#63b8ff" points="1092.48,-145.3 1090.41,-134.91 1085.55,-144.32 1092.48,-145.3"/>
</g>
<!-- Node22&#45;&gt;Node20 -->
<g id="edge36" class="edge">
<title>Node22&#45;&gt;Node20</title>
<path fill="none" stroke="#63b8ff" d="M1097.63,-181.37C1116.17,-170.68 1147.97,-152.35 1169.87,-139.72"/>
<polygon fill="#63b8ff" stroke="#63b8ff" points="1171.66,-142.73 1178.58,-134.7 1168.16,-136.66 1171.66,-142.73"/>
</g>
<!-- Node22&#45;&gt;Node21 -->
<g id="edge37" class="edge">
<title>Node22&#45;&gt;Node21</title>
<path fill="none" stroke="#63b8ff" d="M1110.18,-181.37C1146.17,-170.08 1209.37,-150.25 1249.57,-137.64"/>
<polygon fill="#63b8ff" stroke="#63b8ff" points="1250.77,-140.93 1259.26,-134.6 1248.67,-134.25 1250.77,-140.93"/>
</g>
<!-- Node22&#45;&gt;Node22 -->
<g id="edge38" class="edge">
<title>Node22&#45;&gt;Node22</title>
<path fill="none" stroke="#63b8ff" d="M1112.2,-200.53C1136.88,-204.61 1162.66,-201.43 1162.66,-191 1162.66,-182 1143.45,-178.4 1122.32,-180.2"/>
<polygon fill="#63b8ff" stroke="#63b8ff" points="1121.69,-176.75 1112.2,-181.47 1122.56,-183.7 1121.69,-176.75"/>
</g>
<!-- Node23 -->
<g id="node23" class="node">
<title>Node23</title>
<g id="a_node23"><a xlink:title=" ">
<polygon fill="#e0e0e0" stroke="#999999" points="1648.16,-74 1555.16,-74 1555.16,-55 1648.16,-55 1648.16,-74"/>
<text text-anchor="middle" x="1601.66" y="-62" font-family="Helvetica,sans-Serif" font-size="10.00">dpiclimate&#45;12.h</text>
</a>
</g>
</g>
<!-- Node22&#45;&gt;Node23 -->
<g id="edge39" class="edge">
<title>Node22&#45;&gt;Node23</title>
<path fill="none" stroke="#63b8ff" d="M1135.34,-181.49C1147.27,-179.63 1159.9,-177.7 1171.66,-176 1292.79,-158.49 1331.63,-186.91 1444.66,-140 1464.86,-131.62 1464.56,-120.64 1483.66,-110 1508.6,-96.11 1538.74,-84.83 1562.32,-77.1"/>
<polygon fill="#63b8ff" stroke="#63b8ff" points="1563.53,-80.38 1571.99,-74 1561.4,-73.72 1563.53,-80.38"/>
</g>
<!-- Node24 -->
<g id="node24" class="node">
<title>Node24</title>
<g id="a_node24"><a xlink:href="_utils_8h.html" target="_top" xlink:title=" ">
<polygon fill="white" stroke="#666666" points="1435.66,-134.5 1387.66,-134.5 1387.66,-115.5 1435.66,-115.5 1435.66,-134.5"/>
<text text-anchor="middle" x="1411.66" y="-122.5" font-family="Helvetica,sans-Serif" font-size="10.00">Utils.h</text>
</a>
</g>
</g>
<!-- Node22&#45;&gt;Node24 -->
<g id="edge41" class="edge">
<title>Node22&#45;&gt;Node24</title>
<path fill="none" stroke="#63b8ff" d="M1126.96,-181.46C1178.36,-171.54 1265.66,-154.66 1340.66,-140 1352.68,-137.65 1365.84,-135.06 1377.52,-132.76"/>
<polygon fill="#63b8ff" stroke="#63b8ff" points="1378.22,-136.19 1387.35,-130.81 1376.86,-129.32 1378.22,-136.19"/>
</g>
<!-- Node24&#45;&gt;Node23 -->
<g id="edge44" class="edge">
<title>Node24&#45;&gt;Node23</title>
<path fill="none" stroke="#63b8ff" d="M1434.08,-115.45C1439.18,-113.59 1444.59,-111.68 1449.66,-110 1486.85,-97.72 1529.69,-85.34 1560.4,-76.76"/>
<polygon fill="#63b8ff" stroke="#63b8ff" points="1561.62,-80.05 1570.32,-74 1559.75,-73.31 1561.62,-80.05"/>
</g>
<!-- Node25 -->
<g id="node25" class="node">
<title>Node25</title>
<g id="a_node25"><a xlink:title=" ">
<polygon fill="#e0e0e0" stroke="#999999" points="1435.66,-74 1379.66,-74 1379.66,-55 1435.66,-55 1435.66,-74"/>
<text text-anchor="middle" x="1407.66" y="-62" font-family="Helvetica,sans-Serif" font-size="10.00">stddef.h</text>
</a>
</g>
</g>
<!-- Node24&#45;&gt;Node25 -->
<g id="edge42" class="edge">
<title>Node24&#45;&gt;Node25</title>
<path fill="none" stroke="#63b8ff" d="M1411.07,-115.37C1410.52,-107.25 1409.67,-94.81 1408.95,-84.39"/>
<polygon fill="#63b8ff" stroke="#63b8ff" points="1412.43,-83.91 1408.26,-74.17 1405.45,-84.38 1412.43,-83.91"/>
</g>
<!-- Node26 -->
<g id="node26" class="node">
<title>Node26</title>
<g id="a_node26"><a xlink:title=" ">
<polygon fill="#e0e0e0" stroke="#999999" points="1537.16,-74 1454.16,-74 1454.16,-55 1537.16,-55 1537.16,-74"/>
<text text-anchor="middle" x="1495.66" y="-62" font-family="Helvetica,sans-Serif" font-size="10.00">ArduinoJson.h</text>
</a>
</g>
</g>
<!-- Node24&#45;&gt;Node26 -->
<g id="edge43" class="edge">
<title>Node24&#45;&gt;Node26</title>
<path fill="none" stroke="#63b8ff" d="M1424.06,-115.37C1437.46,-106.04 1459.04,-91.01 1475.01,-79.88"/>
<polygon fill="#63b8ff" stroke="#63b8ff" points="1477.01,-82.75 1483.22,-74.17 1473.01,-77.01 1477.01,-82.75"/>
</g>
<!-- Node27&#45;&gt;Node17 -->
<g id="edge70" class="edge">
<title>Node27&#45;&gt;Node17</title>
<path fill="none" stroke="#63b8ff" d="M807.81,-200.53C817.7,-202.52 828.04,-204.5 837.66,-206 977.99,-227.88 1145.88,-241.77 1219.79,-247.49"/>
<polygon fill="#63b8ff" stroke="#63b8ff" points="1219.76,-251 1230,-248.28 1220.3,-244.02 1219.76,-251"/>
</g>
<!-- Node28 -->
<g id="node28" class="node">
<title>Node28</title>
<g id="a_node28"><a xlink:title=" ">
<polygon fill="#e0e0e0" stroke="#999999" points="658.16,-134.5 581.16,-134.5 581.16,-115.5 658.16,-115.5 658.16,-134.5"/>
<text text-anchor="middle" x="619.66" y="-122.5" font-family="Helvetica,sans-Serif" font-size="10.00">BLEDevice.h</text>
</a>
</g>
</g>
<!-- Node27&#45;&gt;Node28 -->
<g id="edge46" class="edge">
<title>Node27&#45;&gt;Node28</title>
<path fill="none" stroke="#63b8ff" d="M742.51,-181.37C718.27,-170.44 676.29,-151.52 648.25,-138.88"/>
<polygon fill="#63b8ff" stroke="#63b8ff" points="649.52,-135.62 638.96,-134.7 646.64,-142 649.52,-135.62"/>
</g>
<!-- Node29 -->
<g id="node29" class="node">
<title>Node29</title>
<g id="a_node29"><a xlink:title=" ">
<polygon fill="#e0e0e0" stroke="#999999" points="770.66,-74 696.66,-74 696.66,-55 770.66,-55 770.66,-74"/>
<text text-anchor="middle" x="733.66" y="-62" font-family="Helvetica,sans-Serif" font-size="10.00">BLEServer.h</text>
</a>
</g>
</g>
<!-- Node27&#45;&gt;Node29 -->
<g id="edge47" class="edge">
<title>Node27&#45;&gt;Node29</title>
<path fill="none" stroke="#63b8ff" d="M708.85,-183.26C658.91,-175.67 589.23,-161.52 572.66,-140 564.53,-129.43 564.59,-120.61 572.66,-110 579.75,-100.69 641.82,-85.45 686.78,-75.44"/>
<polygon fill="#63b8ff" stroke="#63b8ff" points="687.64,-78.84 696.65,-73.27 686.13,-72 687.64,-78.84"/>
</g>
<!-- Node30 -->
<g id="node30" class="node">
<title>Node30</title>
<g id="a_node30"><a xlink:title=" ">
<polygon fill="#e0e0e0" stroke="#999999" points="742.66,-134.5 676.66,-134.5 676.66,-115.5 742.66,-115.5 742.66,-134.5"/>
<text text-anchor="middle" x="709.66" y="-122.5" font-family="Helvetica,sans-Serif" font-size="10.00">BLEUtils.h</text>
</a>
</g>
</g>
<!-- Node27&#45;&gt;Node30 -->
<g id="edge48" class="edge">
<title>Node27&#45;&gt;Node30</title>
<path fill="none" stroke="#63b8ff" d="M754.65,-181.37C746.63,-171.5 733.32,-155.11 723.25,-142.72"/>
<polygon fill="#63b8ff" stroke="#63b8ff" points="725.92,-140.46 716.9,-134.91 720.49,-144.87 725.92,-140.46"/>
</g>
<!-- Node31 -->
<g id="node31" class="node">
<title>Node31</title>
<g id="a_node31"><a xlink:title=" ">
<polygon fill="#e0e0e0" stroke="#999999" points="1024.66,-74 956.66,-74 956.66,-55 1024.66,-55 1024.66,-74"/>
<text text-anchor="middle" x="990.66" y="-62" font-family="Helvetica,sans-Serif" font-size="10.00">BLE2902.h</text>
</a>
</g>
</g>
<!-- Node27&#45;&gt;Node31 -->
<g id="edge49" class="edge">
<title>Node27&#45;&gt;Node31</title>
<path fill="none" stroke="#63b8ff" d="M807.63,-181.49C872.8,-169.2 984.89,-147.17 990.66,-140 1003.17,-124.46 1000.61,-100.61 996.6,-84.1"/>
<polygon fill="#63b8ff" stroke="#63b8ff" points="999.97,-83.15 993.89,-74.47 993.23,-85.04 999.97,-83.15"/>
</g>
<!-- Node32 -->
<g id="node32" class="node">
<title>Node32</title>
<g id="a_node32"><a xlink:href="uart_8h.html" target="_top" xlink:title="BluetoothLE UART service setup and handling.">
<polygon fill="white" stroke="#666666" points="856.16,-134.5 761.16,-134.5 761.16,-115.5 856.16,-115.5 856.16,-134.5"/>
<text text-anchor="middle" x="808.66" y="-122.5" font-family="Helvetica,sans-Serif" font-size="10.00">bluetooth/uart.h</text>
</a>
</g>
</g>
<!-- Node27&#45;&gt;Node32 -->
<g id="edge50" class="edge">
<title>Node27&#45;&gt;Node32</title>
<path fill="none" stroke="#63b8ff" d="M763.21,-181.37C768.35,-171.5 779.98,-155.11 790.37,-142.72"/>
<polygon fill="#63b8ff" stroke="#63b8ff" points="793.28,-144.72 797.28,-134.91 788.03,-140.08 793.28,-144.72"/>
</g>
<!-- Node35 -->
<g id="node35" class="node">
<title>Node35</title>
<g id="a_node35"><a xlink:href="device_8h.html" target="_top" xlink:title="Bluetooth device services and device information.">
<polygon fill="white" stroke="#666666" points="981.16,-134.5 874.16,-134.5 874.16,-115.5 981.16,-115.5 981.16,-134.5"/>
<text text-anchor="middle" x="927.66" y="-122.5" font-family="Helvetica,sans-Serif" font-size="10.00">bluetooth/device.h</text>
</a>
</g>
</g>
<!-- Node27&#45;&gt;Node35 -->
<g id="edge58" class="edge">
<title>Node27&#45;&gt;Node35</title>
<path fill="none" stroke="#63b8ff" d="M784.05,-181.37C812.84,-170.27 863.03,-150.92 895.8,-138.28"/>
<polygon fill="#63b8ff" stroke="#63b8ff" points="897.29,-141.46 905.37,-134.6 894.78,-134.93 897.29,-141.46"/>
</g>
<!-- Node36 -->
<g id="node36" class="node">
<title>Node36</title>
<g id="a_node36"><a xlink:href="power__monitoring_8h.html" target="_top" xlink:title="Setup BluetoothLE power monitoring information.">
<polygon fill="white" stroke="#666666" points="524.66,-134.5 360.66,-134.5 360.66,-115.5 524.66,-115.5 524.66,-134.5"/>
<text text-anchor="middle" x="442.66" y="-122.5" font-family="Helvetica,sans-Serif" font-size="10.00">bluetooth/power_monitoring.h</text>
</a>
</g>
</g>
<!-- Node27&#45;&gt;Node36 -->
<g id="edge63" class="edge">
<title>Node27&#45;&gt;Node36</title>
<path fill="none" stroke="#63b8ff" d="M718.97,-181.44C661.08,-169.82 557.73,-149.09 495.16,-136.53"/>
<polygon fill="#63b8ff" stroke="#63b8ff" points="495.59,-133.05 485.1,-134.51 494.22,-139.91 495.59,-133.05"/>
</g>
<!-- Node32&#45;&gt;Node2 -->
<g id="edge51" class="edge">
<title>Node32&#45;&gt;Node2</title>
<path fill="none" stroke="#63b8ff" d="M841.2,-115.4C863.45,-107.93 892,-94.93 909.66,-74 920.22,-61.5 924.91,-43.29 926.99,-29.58"/>
<polygon fill="#63b8ff" stroke="#63b8ff" points="930.51,-29.68 928.2,-19.34 923.55,-28.86 930.51,-29.68"/>
</g>
<!-- Node32&#45;&gt;Node27 -->
<g id="edge57" class="edge">
<title>Node32&#45;&gt;Node27</title>
<path fill="none" stroke="#63b8ff" d="M806.97,-134.91C801.71,-144.89 790.04,-161.31 779.67,-173.62"/>
<polygon fill="#63b8ff" stroke="#63b8ff" points="776.81,-171.57 772.79,-181.37 782.05,-176.21 776.81,-171.57"/>
</g>
<!-- Node32&#45;&gt;Node29 -->
<g id="edge53" class="edge">
<title>Node32&#45;&gt;Node29</title>
<path fill="none" stroke="#63b8ff" d="M797.6,-115.37C785.85,-106.21 767.08,-91.56 752.9,-80.51"/>
<polygon fill="#63b8ff" stroke="#63b8ff" points="754.81,-77.56 744.78,-74.17 750.51,-83.08 754.81,-77.56"/>
</g>
<!-- Node32&#45;&gt;Node31 -->
<g id="edge54" class="edge">
<title>Node32&#45;&gt;Node31</title>
<path fill="none" stroke="#63b8ff" d="M835.13,-115.49C866.53,-105.4 919.07,-88.51 954.28,-77.19"/>
<polygon fill="#63b8ff" stroke="#63b8ff" points="955.72,-80.41 964.17,-74.02 953.58,-73.74 955.72,-80.41"/>
</g>
<!-- Node33 -->
<g id="node33" class="node">
<title>Node33</title>
<g id="a_node33"><a xlink:title=" ">
<polygon fill="#e0e0e0" stroke="#999999" points="900.16,-74 789.16,-74 789.16,-55 900.16,-55 900.16,-74"/>
<text text-anchor="middle" x="844.66" y="-62" font-family="Helvetica,sans-Serif" font-size="10.00">BLECharacteristic.h</text>
</a>
</g>
</g>
<!-- Node32&#45;&gt;Node33 -->
<g id="edge52" class="edge">
<title>Node32&#45;&gt;Node33</title>
<path fill="none" stroke="#63b8ff" d="M813.98,-115.37C819.24,-106.81 827.45,-93.47 834.05,-82.74"/>
<polygon fill="#63b8ff" stroke="#63b8ff" points="837.07,-84.52 839.33,-74.17 831.11,-80.85 837.07,-84.52"/>
</g>
<!-- Node32&#45;&gt;Node34 -->
<g id="edge55" class="edge">
<title>Node32&#45;&gt;Node34</title>
<path fill="none" stroke="#63b8ff" d="M780.16,-115.49C746.05,-105.31 688.79,-88.22 650.87,-76.9"/>
<polygon fill="#63b8ff" stroke="#63b8ff" points="651.78,-73.52 641.2,-74.02 649.78,-80.23 651.78,-73.52"/>
</g>
<!-- Node34&#45;&gt;Node2 -->
<g id="edge56" class="edge">
<title>Node34&#45;&gt;Node2</title>
<path fill="none" stroke="#63b8ff" d="M663.43,-54.98C725.35,-44.6 828.87,-27.24 886.57,-17.56"/>
<polygon fill="#63b8ff" stroke="#63b8ff" points="887.5,-20.95 896.79,-15.85 886.35,-14.05 887.5,-20.95"/>
</g>
<!-- Node35&#45;&gt;Node2 -->
<g id="edge59" class="edge">
<title>Node35&#45;&gt;Node2</title>
<path fill="none" stroke="#63b8ff" d="M970.2,-115.5C993.22,-108.5 1019.72,-96 1033.66,-74 1051.81,-45.38 1006.88,-27.81 970.24,-18.61"/>
<polygon fill="#63b8ff" stroke="#63b8ff" points="970.73,-15.13 960.19,-16.24 969.12,-21.94 970.73,-15.13"/>
</g>
<!-- Node35&#45;&gt;Node29 -->
<g id="edge61" class="edge">
<title>Node35&#45;&gt;Node29</title>
<path fill="none" stroke="#63b8ff" d="M899.45,-115.49C865.69,-105.31 809.02,-88.22 771.48,-76.9"/>
<polygon fill="#63b8ff" stroke="#63b8ff" points="772.49,-73.55 761.91,-74.02 770.47,-80.25 772.49,-73.55"/>
</g>
<!-- Node35&#45;&gt;Node31 -->
<g id="edge62" class="edge">
<title>Node35&#45;&gt;Node31</title>
<path fill="none" stroke="#63b8ff" d="M936.96,-115.37C946.64,-106.38 962,-92.11 973.83,-81.14"/>
<polygon fill="#63b8ff" stroke="#63b8ff" points="976.38,-83.54 981.33,-74.17 971.62,-78.41 976.38,-83.54"/>
</g>
<!-- Node35&#45;&gt;Node33 -->
<g id="edge60" class="edge">
<title>Node35&#45;&gt;Node33</title>
<path fill="none" stroke="#63b8ff" d="M915.42,-115.37C902.3,-106.12 881.25,-91.28 865.51,-80.19"/>
<polygon fill="#63b8ff" stroke="#63b8ff" points="867.15,-77.07 856.96,-74.17 863.12,-82.79 867.15,-77.07"/>
</g>
<!-- Node36&#45;&gt;Node2 -->
<g id="edge64" class="edge">
<title>Node36&#45;&gt;Node2</title>
<path fill="none" stroke="#63b8ff" d="M451.26,-115.41C467.02,-100.25 502.28,-69.04 538.66,-55 601.51,-30.74 799.91,-17.41 886.99,-12.6"/>
<polygon fill="#63b8ff" stroke="#63b8ff" points="887.25,-16.09 897.04,-12.05 886.87,-9.1 887.25,-16.09"/>
</g>
<!-- Node36&#45;&gt;Node9 -->
<g id="edge69" class="edge">
<title>Node36&#45;&gt;Node9</title>
<path fill="none" stroke="#63b8ff" d="M415.62,-115.49C383.38,-105.36 329.37,-88.37 293.38,-77.05"/>
<polygon fill="#63b8ff" stroke="#63b8ff" points="294.33,-73.68 283.74,-74.02 292.23,-80.36 294.33,-73.68"/>
</g>
<!-- Node36&#45;&gt;Node11 -->
<g id="edge68" class="edge">
<title>Node36&#45;&gt;Node11</title>
<path fill="none" stroke="#63b8ff" d="M439.42,-115.37C436.3,-107.07 431.49,-94.28 427.52,-83.72"/>
<polygon fill="#63b8ff" stroke="#63b8ff" points="430.72,-82.3 423.92,-74.17 424.17,-84.76 430.72,-82.3"/>
</g>
<!-- Node36&#45;&gt;Node29 -->
<g id="edge66" class="edge">
<title>Node36&#45;&gt;Node29</title>
<path fill="none" stroke="#63b8ff" d="M484.98,-115.49C538.55,-104.72 630.57,-86.23 686.39,-75"/>
<polygon fill="#63b8ff" stroke="#63b8ff" points="687.27,-78.4 696.38,-73 685.89,-71.53 687.27,-78.4"/>
</g>
<!-- Node36&#45;&gt;Node31 -->
<g id="edge67" class="edge">
<title>Node36&#45;&gt;Node31</title>
<path fill="none" stroke="#63b8ff" d="M521.72,-115.47C538.54,-113.66 556.19,-111.76 572.66,-110 708.85,-95.42 870.01,-78.3 946.33,-70.2"/>
<polygon fill="#63b8ff" stroke="#63b8ff" points="946.95,-73.66 956.53,-69.12 946.21,-66.69 946.95,-73.66"/>
</g>
<!-- Node36&#45;&gt;Node33 -->
<g id="edge65" class="edge">
<title>Node36&#45;&gt;Node33</title>
<path fill="none" stroke="#63b8ff" d="M501.12,-115.49C575,-104.74 701.81,-86.29 778.97,-75.06"/>
<polygon fill="#63b8ff" stroke="#63b8ff" points="779.66,-78.5 789.05,-73.59 778.65,-71.57 779.66,-78.5"/>
</g>
<!-- Node37&#45;&gt;Node4 -->
<g id="edge72" class="edge">
<title>Node37&#45;&gt;Node4</title>
<path fill="none" stroke="#63b8ff" d="M1321.52,-175.95C1375.26,-164.14 1450.95,-147.49 1499.91,-136.72"/>
<polygon fill="#63b8ff" stroke="#63b8ff" points="1500.92,-140.08 1509.94,-134.52 1499.42,-133.25 1500.92,-140.08"/>
</g>
<!-- Node37&#45;&gt;Node16 -->
<g id="edge76" class="edge">
<title>Node37&#45;&gt;Node16</title>
<path fill="none" stroke="#63b8ff" d="M1334.91,-181.06C1407.42,-172.22 1518.77,-157.51 1614.66,-140 1620.09,-139.01 1625.76,-137.87 1631.38,-136.68"/>
<polygon fill="#63b8ff" stroke="#63b8ff" points="1632.33,-140.06 1641.36,-134.5 1630.84,-133.22 1632.33,-140.06"/>
</g>
<!-- Node37&#45;&gt;Node18 -->
<g id="edge75" class="edge">
<title>Node37&#45;&gt;Node18</title>
<path fill="none" stroke="#63b8ff" d="M1221.23,-175.95C1191.99,-164.68 1151.35,-149.01 1123.42,-138.25"/>
<polygon fill="#63b8ff" stroke="#63b8ff" points="1124.34,-134.85 1113.76,-134.52 1121.83,-141.38 1124.34,-134.85"/>
</g>
<!-- Node37&#45;&gt;Node20 -->
<g id="edge73" class="edge">
<title>Node37&#45;&gt;Node20</title>
<path fill="none" stroke="#63b8ff" d="M1243.46,-175.8C1233.48,-165.82 1220.12,-152.46 1209.75,-142.09"/>
<polygon fill="#63b8ff" stroke="#63b8ff" points="1212.05,-139.44 1202.51,-134.84 1207.1,-144.39 1212.05,-139.44"/>
</g>
<!-- Node37&#45;&gt;Node21 -->
<g id="edge74" class="edge">
<title>Node37&#45;&gt;Node21</title>
<path fill="none" stroke="#63b8ff" d="M1264.1,-175.8C1268.31,-166.5 1273.85,-154.27 1278.39,-144.26"/>
<polygon fill="#63b8ff" stroke="#63b8ff" points="1281.72,-145.4 1282.66,-134.84 1275.34,-142.51 1281.72,-145.4"/>
</g>
<!-- Node38&#45;&gt;Node16 -->
<g id="edge78" class="edge">
<title>Node38&#45;&gt;Node16</title>
<path fill="none" stroke="#63b8ff" d="M1676.66,-175.8C1676.66,-166.7 1676.66,-154.79 1676.66,-144.9"/>
<polygon fill="#63b8ff" stroke="#63b8ff" points="1680.16,-144.84 1676.66,-134.84 1673.16,-144.84 1680.16,-144.84"/>
</g>
<!-- Node39&#45;&gt;Node16 -->
<g id="edge80" class="edge">
<title>Node39&#45;&gt;Node16</title>
<path fill="none" stroke="#63b8ff" d="M1533.82,-175.95C1566.48,-164.53 1612.04,-148.6 1642.86,-137.82"/>
<polygon fill="#63b8ff" stroke="#63b8ff" points="1644.03,-141.12 1652.31,-134.52 1641.71,-134.51 1644.03,-141.12"/>
</g>
<!-- Node40&#45;&gt;Node2 -->
<g id="edge82" class="edge">
<title>Node40&#45;&gt;Node2</title>
<path fill="none" stroke="#63b8ff" d="M1838.95,-181.27C1850.01,-157.38 1876.35,-90.36 1842.66,-55 1812.21,-23.03 1145.25,-13.03 970.35,-10.95"/>
<polygon fill="#63b8ff" stroke="#63b8ff" points="970.3,-7.45 960.26,-10.83 970.21,-14.45 970.3,-7.45"/>
</g>
<!-- Node40&#45;&gt;Node4 -->
<g id="edge83" class="edge">
<title>Node40&#45;&gt;Node4</title>
<path fill="none" stroke="#63b8ff" d="M1796.39,-181.44C1744.8,-169.89 1652.97,-149.34 1596.77,-136.77"/>
<polygon fill="#63b8ff" stroke="#63b8ff" points="1597.23,-133.28 1586.71,-134.51 1595.71,-140.11 1597.23,-133.28"/>
</g>
</g>
</svg>
