<?xml version="1.0" encoding="UTF-8" standalone="no"?>
<!DOCTYPE svg PUBLIC "-//W3C//DTD SVG 1.1//EN"
 "http://www.w3.org/Graphics/SVG/1.1/DTD/svg11.dtd">
<!-- Generated by graphviz version 2.43.0 (0)
 -->
<!-- Title: firmware/wombat/src/main.cpp Pages: 1 -->
<svg width="2318pt" height="335pt"
 viewBox="0.00 0.00 2318.00 335.00" xmlns="http://www.w3.org/2000/svg" xmlns:xlink="http://www.w3.org/1999/xlink">
<g id="graph0" class="graph" transform="scale(1 1) rotate(0) translate(4 331)">
<title>firmware/wombat/src/main.cpp</title>
<!-- Node1 -->
<g id="node1" class="node">
<title>Node1</title>
<g id="a_node1"><a xlink:title=" ">
<polygon fill="#999999" stroke="#666666" points="1757,-327 1637,-327 1637,-297 1757,-297 1757,-327"/>
<text text-anchor="start" x="1645" y="-315" font-family="Helvetica,sans-Serif" font-size="10.00">firmware/wombat/src</text>
<text text-anchor="middle" x="1697" y="-304" font-family="Helvetica,sans-Serif" font-size="10.00">/main.cpp</text>
</a>
</g>
</g>
<!-- Node2 -->
<g id="node2" class="node">
<title>Node2</title>
<g id="a_node2"><a xlink:title=" ">
<polygon fill="#e0e0e0" stroke="#999999" points="608.5,-19 545.5,-19 545.5,0 608.5,0 608.5,-19"/>
<text text-anchor="middle" x="577" y="-7" font-family="Helvetica,sans-Serif" font-size="10.00">Arduino.h</text>
</a>
</g>
</g>
<!-- Node1&#45;&gt;Node2 -->
<g id="edge1" class="edge">
<title>Node1&#45;&gt;Node2</title>
<path fill="none" stroke="#63b8ff" d="M1757.08,-305.9C1820.76,-299.28 1915.72,-285.57 1942,-261 1965.24,-239.28 1961,-223.81 1961,-192 1961,-192 1961,-192 1961,-124 1961,-53.43 1886.5,-71.96 1818,-55 1699.72,-25.72 822.49,-13.45 619.05,-10.98"/>
<polygon fill="#63b8ff" stroke="#63b8ff" points="618.82,-7.48 608.78,-10.86 618.74,-14.48 618.82,-7.48"/>
</g>
<!-- Node3 -->
<g id="node3" class="node">
<title>Node3</title>
<g id="a_node3"><a xlink:title=" ">
<polygon fill="#e0e0e0" stroke="#999999" points="150.5,-261 87.5,-261 87.5,-242 150.5,-242 150.5,-261"/>
<text text-anchor="middle" x="119" y="-249" font-family="Helvetica,sans-Serif" font-size="10.00">esp_log.h</text>
</a>
</g>
</g>
<!-- Node1&#45;&gt;Node3 -->
<g id="edge2" class="edge">
<title>Node1&#45;&gt;Node3</title>
<path fill="none" stroke="#63b8ff" d="M1636.99,-310.25C1390.88,-306.97 458.01,-292.67 165,-261 163.54,-260.84 162.05,-260.66 160.55,-260.47"/>
<polygon fill="#63b8ff" stroke="#63b8ff" points="160.99,-257 150.58,-258.98 159.96,-263.92 160.99,-257"/>
</g>
<!-- Node4 -->
<g id="node4" class="node">
<title>Node4</title>
<g id="a_node4"><a xlink:title=" ">
<polygon fill="#e0e0e0" stroke="#999999" points="1637.5,-134.5 1524.5,-134.5 1524.5,-115.5 1637.5,-115.5 1637.5,-134.5"/>
<text text-anchor="middle" x="1581" y="-122.5" font-family="Helvetica,sans-Serif" font-size="10.00">freertos/FreeRTOS.h</text>
</a>
</g>
</g>
<!-- Node1&#45;&gt;Node4 -->
<g id="edge3" class="edge">
<title>Node1&#45;&gt;Node4</title>
<path fill="none" stroke="#63b8ff" d="M1686.98,-296.98C1672.87,-277.07 1646.59,-239.32 1626,-206 1612.96,-184.89 1599.14,-159.87 1590.31,-143.5"/>
<polygon fill="#63b8ff" stroke="#63b8ff" points="1593.31,-141.7 1585.51,-134.54 1587.14,-145.01 1593.31,-141.7"/>
</g>
<!-- Node5 -->
<g id="node5" class="node">
<title>Node5</title>
<g id="a_node5"><a xlink:href="_t_c_a9534_8h.html" target="_top" xlink:title=" ">
<polygon fill="white" stroke="#666666" points="89,-74 21,-74 21,-55 89,-55 89,-74"/>
<text text-anchor="middle" x="55" y="-62" font-family="Helvetica,sans-Serif" font-size="10.00">TCA9534.h</text>
</a>
</g>
</g>
<!-- Node1&#45;&gt;Node5 -->
<g id="edge4" class="edge">
<title>Node1&#45;&gt;Node5</title>
<path fill="none" stroke="#63b8ff" d="M1636.92,-310.8C1378.18,-309.7 365.8,-302.74 230,-261 133.59,-231.37 86.73,-228.31 38,-140 28.22,-122.28 36.14,-99.22 44.13,-83.48"/>
<polygon fill="#63b8ff" stroke="#63b8ff" points="47.42,-84.76 49.21,-74.32 41.3,-81.37 47.42,-84.76"/>
</g>
<!-- Node7 -->
<g id="node7" class="node">
<title>Node7</title>
<g id="a_node7"><a xlink:title=" ">
<polygon fill="#e0e0e0" stroke="#999999" points="339,-261 255,-261 255,-242 339,-242 339,-261"/>
<text text-anchor="middle" x="297" y="-249" font-family="Helvetica,sans-Serif" font-size="10.00">driver/rtc_io.h</text>
</a>
</g>
</g>
<!-- Node1&#45;&gt;Node7 -->
<g id="edge7" class="edge">
<title>Node1&#45;&gt;Node7</title>
<path fill="none" stroke="#63b8ff" d="M1636.89,-311.19C1447.64,-311.27 847.28,-307.56 353,-261 351.73,-260.88 350.45,-260.75 349.16,-260.61"/>
<polygon fill="#63b8ff" stroke="#63b8ff" points="349.48,-257.13 339.13,-259.42 348.65,-264.08 349.48,-257.13"/>
</g>
<!-- Node8 -->
<g id="node8" class="node">
<title>Node8</title>
<g id="a_node8"><a xlink:href="globals_8h.html" target="_top" xlink:title=" ">
<polygon fill="white" stroke="#666666" points="258.5,-200.5 197.5,-200.5 197.5,-181.5 258.5,-181.5 258.5,-200.5"/>
<text text-anchor="middle" x="228" y="-188.5" font-family="Helvetica,sans-Serif" font-size="10.00">globals.h</text>
</a>
</g>
</g>
<!-- Node1&#45;&gt;Node8 -->
<g id="edge8" class="edge">
<title>Node1&#45;&gt;Node8</title>
<path fill="none" stroke="#63b8ff" d="M1636.79,-310.92C1369.5,-310.3 301.07,-305.08 246,-261 231.38,-249.3 227.75,-227.33 227.23,-211.32"/>
<polygon fill="#63b8ff" stroke="#63b8ff" points="230.73,-210.96 227.29,-200.94 223.73,-210.92 230.73,-210.96"/>
</g>
<!-- Node12 -->
<g id="node12" class="node">
<title>Node12</title>
<g id="a_node12"><a xlink:title=" ">
<polygon fill="#e0e0e0" stroke="#999999" points="177,-140 47,-140 47,-110 177,-110 177,-140"/>
<text text-anchor="start" x="55" y="-128" font-family="Helvetica,sans-Serif" font-size="10.00">SparkFun_u&#45;blox_SARA</text>
<text text-anchor="middle" x="112" y="-117" font-family="Helvetica,sans-Serif" font-size="10.00">&#45;R5_Arduino_Library.h</text>
</a>
</g>
</g>
<!-- Node1&#45;&gt;Node12 -->
<g id="edge86" class="edge">
<title>Node1&#45;&gt;Node12</title>
<path fill="none" stroke="#63b8ff" d="M1636.65,-310.28C1346.26,-306.65 105.65,-289.52 78,-261 48.57,-230.65 75.23,-178.75 95.07,-148.92"/>
<polygon fill="#63b8ff" stroke="#63b8ff" points="98.14,-150.64 100.94,-140.42 92.38,-146.66 98.14,-150.64"/>
</g>
<!-- Node14 -->
<g id="node14" class="node">
<title>Node14</title>
<g id="a_node14"><a xlink:href="_sensor_task_8h.html" target="_top" xlink:title=" ">
<polygon fill="white" stroke="#666666" points="1933,-261 1853,-261 1853,-242 1933,-242 1933,-261"/>
<text text-anchor="middle" x="1893" y="-249" font-family="Helvetica,sans-Serif" font-size="10.00">SensorTask.h</text>
</a>
</g>
</g>
<!-- Node1&#45;&gt;Node14 -->
<g id="edge19" class="edge">
<title>Node1&#45;&gt;Node14</title>
<path fill="none" stroke="#63b8ff" d="M1743.95,-296.99C1777.77,-286.89 1822.86,-273.44 1854.55,-263.98"/>
<polygon fill="#63b8ff" stroke="#63b8ff" points="1855.76,-267.27 1864.34,-261.05 1853.76,-260.56 1855.76,-267.27"/>
</g>
<!-- Node16 -->
<g id="node16" class="node">
<title>Node16</title>
<g id="a_node16"><a xlink:href="_device_config_8h.html" target="_top" xlink:title="Node configuration options.">
<polygon fill="white" stroke="#666666" points="1746,-134.5 1656,-134.5 1656,-115.5 1746,-115.5 1746,-134.5"/>
<text text-anchor="middle" x="1701" y="-122.5" font-family="Helvetica,sans-Serif" font-size="10.00">DeviceConfig.h</text>
</a>
</g>
</g>
<!-- Node1&#45;&gt;Node16 -->
<g id="edge21" class="edge">
<title>Node1&#45;&gt;Node16</title>
<path fill="none" stroke="#63b8ff" d="M1710.73,-296.85C1728.01,-277.96 1756.78,-242.61 1768,-206 1771.91,-193.25 1773.98,-187.92 1768,-176 1759.99,-160.04 1744.21,-147.87 1729.97,-139.53"/>
<polygon fill="#63b8ff" stroke="#63b8ff" points="1731.38,-136.32 1720.93,-134.61 1728.03,-142.47 1731.38,-136.32"/>
</g>
<!-- Node17 -->
<g id="node17" class="node">
<title>Node17</title>
<g id="a_node17"><a xlink:href="_c_l_i_8h.html" target="_top" xlink:title="FreeRTOS CLI handler.">
<polygon fill="white" stroke="#666666" points="1168.5,-261 1113.5,-261 1113.5,-242 1168.5,-242 1168.5,-261"/>
<text text-anchor="middle" x="1141" y="-249" font-family="Helvetica,sans-Serif" font-size="10.00">cli/CLI.h</text>
</a>
</g>
</g>
<!-- Node1&#45;&gt;Node17 -->
<g id="edge24" class="edge">
<title>Node1&#45;&gt;Node17</title>
<path fill="none" stroke="#63b8ff" d="M1636.97,-304.68C1521.94,-292.58 1273.49,-266.44 1178.75,-256.47"/>
<polygon fill="#63b8ff" stroke="#63b8ff" points="1179.07,-252.99 1168.76,-255.42 1178.34,-259.95 1179.07,-252.99"/>
</g>
<!-- Node34 -->
<g id="node34" class="node">
<title>Node34</title>
<g id="a_node34"><a xlink:href="tones_8h.html" target="_top" xlink:title="Audio control for the onboard piezo buzzer.">
<polygon fill="white" stroke="#666666" points="642.5,-74 511.5,-74 511.5,-55 642.5,-55 642.5,-74"/>
<text text-anchor="middle" x="577" y="-62" font-family="Helvetica,sans-Serif" font-size="10.00">audio&#45;feedback/tones.h</text>
</a>
</g>
</g>
<!-- Node1&#45;&gt;Node34 -->
<g id="edge84" class="edge">
<title>Node1&#45;&gt;Node34</title>
<path fill="none" stroke="#63b8ff" d="M1636.8,-307.68C1394.51,-293.67 499.93,-235.76 422,-140 394.25,-105.9 449.71,-86.38 501.84,-75.95"/>
<polygon fill="#63b8ff" stroke="#63b8ff" points="502.68,-79.35 511.85,-74.04 501.37,-72.47 502.68,-79.35"/>
</g>
<!-- Node40 -->
<g id="node40" class="node">
<title>Node40</title>
<g id="a_node40"><a xlink:href="peripherals_8h.html" target="_top" xlink:title=" ">
<polygon fill="white" stroke="#666666" points="1895,-200.5 1815,-200.5 1815,-181.5 1895,-181.5 1895,-200.5"/>
<text text-anchor="middle" x="1855" y="-188.5" font-family="Helvetica,sans-Serif" font-size="10.00">peripherals.h</text>
</a>
</g>
</g>
<!-- Node1&#45;&gt;Node40 -->
<g id="edge81" class="edge">
<title>Node1&#45;&gt;Node40</title>
<path fill="none" stroke="#63b8ff" d="M1736.75,-296.94C1757.24,-288.49 1781.88,-276.38 1801,-261 1819.08,-246.45 1834.79,-224.73 1844.54,-209.56"/>
<polygon fill="#63b8ff" stroke="#63b8ff" points="1847.75,-211.02 1850.04,-200.68 1841.8,-207.33 1847.75,-211.02"/>
</g>
<!-- Node41 -->
<g id="node41" class="node">
<title>Node41</title>
<g id="a_node41"><a xlink:href="uplinks_8h.html" target="_top" xlink:title=" ">
<polygon fill="white" stroke="#666666" points="2050.5,-261 1989.5,-261 1989.5,-242 2050.5,-242 2050.5,-261"/>
<text text-anchor="middle" x="2020" y="-249" font-family="Helvetica,sans-Serif" font-size="10.00">uplinks.h</text>
</a>
</g>
</g>
<!-- Node1&#45;&gt;Node41 -->
<g id="edge85" class="edge">
<title>Node1&#45;&gt;Node41</title>
<path fill="none" stroke="#63b8ff" d="M1757.22,-300.33C1813.55,-290.3 1900.01,-274.83 1975,-261 1976.28,-260.76 1977.57,-260.53 1978.88,-260.28"/>
<polygon fill="#63b8ff" stroke="#63b8ff" points="1979.83,-263.66 1989.02,-258.39 1978.55,-256.78 1979.83,-263.66"/>
</g>
<!-- Node42 -->
<g id="node42" class="node">
<title>Node42</title>
<g id="a_node42"><a xlink:href="ulp_8h.html" target="_top" xlink:title=" ">
<polygon fill="white" stroke="#666666" points="2109.5,-261 2068.5,-261 2068.5,-242 2109.5,-242 2109.5,-261"/>
<text text-anchor="middle" x="2089" y="-249" font-family="Helvetica,sans-Serif" font-size="10.00">ulp.h</text>
</a>
</g>
</g>
<!-- Node1&#45;&gt;Node42 -->
<g id="edge87" class="edge">
<title>Node1&#45;&gt;Node42</title>
<path fill="none" stroke="#63b8ff" d="M1757.21,-305.47C1827.49,-298.39 1947.29,-284.43 2058.17,-261.14"/>
<polygon fill="#63b8ff" stroke="#63b8ff" points="2059.14,-264.51 2068.19,-259 2057.68,-257.66 2059.14,-264.51"/>
</g>
<!-- Node43 -->
<g id="node43" class="node">
<title>Node43</title>
<g id="a_node43"><a xlink:title=" ">
<polygon fill="#e0e0e0" stroke="#999999" points="2190,-261 2128,-261 2128,-242 2190,-242 2190,-261"/>
<text text-anchor="middle" x="2159" y="-249" font-family="Helvetica,sans-Serif" font-size="10.00">soc/soc.h</text>
</a>
</g>
</g>
<!-- Node1&#45;&gt;Node43 -->
<g id="edge88" class="edge">
<title>Node1&#45;&gt;Node43</title>
<path fill="none" stroke="#63b8ff" d="M1757.34,-305.6C1837.46,-298.04 1983.54,-282.92 2117.57,-261.1"/>
<polygon fill="#63b8ff" stroke="#63b8ff" points="2118.31,-264.53 2127.61,-259.45 2117.17,-257.62 2118.31,-264.53"/>
</g>
<!-- Node44 -->
<g id="node44" class="node">
<title>Node44</title>
<g id="a_node44"><a xlink:title=" ">
<polygon fill="#e0e0e0" stroke="#999999" points="2310,-261 2208,-261 2208,-242 2310,-242 2310,-261"/>
<text text-anchor="middle" x="2259" y="-249" font-family="Helvetica,sans-Serif" font-size="10.00">soc/rtc_cntl_reg.h</text>
</a>
</g>
</g>
<!-- Node1&#45;&gt;Node44 -->
<g id="edge89" class="edge">
<title>Node1&#45;&gt;Node44</title>
<path fill="none" stroke="#63b8ff" d="M1757.36,-305.8C1849.79,-297.66 2032.2,-280.89 2197.59,-261.12"/>
<polygon fill="#63b8ff" stroke="#63b8ff" points="2198.44,-264.55 2207.96,-259.88 2197.61,-257.6 2198.44,-264.55"/>
</g>
<!-- Node5&#45;&gt;Node2 -->
<g id="edge5" class="edge">
<title>Node5&#45;&gt;Node2</title>
<path fill="none" stroke="#63b8ff" d="M89.21,-56.41C92.18,-55.89 95.14,-55.41 98,-55 258.91,-31.68 452.09,-18.1 535.41,-12.92"/>
<polygon fill="#63b8ff" stroke="#63b8ff" points="535.72,-16.41 545.48,-12.31 535.29,-9.42 535.72,-16.41"/>
</g>
<!-- Node6 -->
<g id="node6" class="node">
<title>Node6</title>
<g id="a_node6"><a xlink:title=" ">
<polygon fill="#e0e0e0" stroke="#999999" points="48,-19 0,-19 0,0 48,0 48,-19"/>
<text text-anchor="middle" x="24" y="-7" font-family="Helvetica,sans-Serif" font-size="10.00">Wire.h</text>
</a>
</g>
</g>
<!-- Node5&#45;&gt;Node6 -->
<g id="edge6" class="edge">
<title>Node5&#45;&gt;Node6</title>
<path fill="none" stroke="#63b8ff" d="M49.88,-54.75C45.64,-47.49 39.47,-36.95 34.22,-27.98"/>
<polygon fill="#63b8ff" stroke="#63b8ff" points="37.09,-25.95 29.02,-19.09 31.05,-29.49 37.09,-25.95"/>
</g>
<!-- Node9 -->
<g id="node9" class="node">
<title>Node9</title>
<g id="a_node9"><a xlink:href="battery_8h.html" target="_top" xlink:title="Battery voltage and current monitoring using INA219 IC.">
<polygon fill="white" stroke="#666666" points="258.5,-74 107.5,-74 107.5,-55 258.5,-55 258.5,-74"/>
<text text-anchor="middle" x="183" y="-62" font-family="Helvetica,sans-Serif" font-size="10.00">power_monitoring/battery.h</text>
</a>
</g>
</g>
<!-- Node8&#45;&gt;Node9 -->
<g id="edge9" class="edge">
<title>Node8&#45;&gt;Node9</title>
<path fill="none" stroke="#63b8ff" d="M238.37,-181.37C254.99,-166.46 284.25,-135.06 269,-110 259.81,-94.9 243.66,-84.69 227.81,-77.91"/>
<polygon fill="#63b8ff" stroke="#63b8ff" points="228.64,-74.48 218.05,-74.12 226.1,-81 228.64,-74.48"/>
</g>
<!-- Node11 -->
<g id="node11" class="node">
<title>Node11</title>
<g id="a_node11"><a xlink:href="solar_8h.html" target="_top" xlink:title="Solar voltage and current monitoring using INA219 IC.">
<polygon fill="white" stroke="#666666" points="417,-74 277,-74 277,-55 417,-55 417,-74"/>
<text text-anchor="middle" x="347" y="-62" font-family="Helvetica,sans-Serif" font-size="10.00">power_monitoring/solar.h</text>
</a>
</g>
</g>
<!-- Node8&#45;&gt;Node11 -->
<g id="edge12" class="edge">
<title>Node8&#45;&gt;Node11</title>
<path fill="none" stroke="#63b8ff" d="M239.19,-181.32C251.26,-171.74 270.78,-155.61 286,-140 304.14,-121.39 322.75,-97.9 334.56,-82.33"/>
<polygon fill="#63b8ff" stroke="#63b8ff" points="337.48,-84.27 340.68,-74.17 331.88,-80.07 337.48,-84.27"/>
</g>
<!-- Node8&#45;&gt;Node12 -->
<g id="edge15" class="edge">
<title>Node8&#45;&gt;Node12</title>
<path fill="none" stroke="#63b8ff" d="M212.36,-181.37C195.58,-172.11 168.41,-157.12 146.57,-145.07"/>
<polygon fill="#63b8ff" stroke="#63b8ff" points="148.03,-141.88 137.58,-140.12 144.65,-148.01 148.03,-141.88"/>
</g>
<!-- Node13 -->
<g id="node13" class="node">
<title>Node13</title>
<g id="a_node13"><a xlink:href="_c_a_t___m1_8h.html" target="_top" xlink:title=" ">
<polygon fill="white" stroke="#666666" points="260.5,-134.5 195.5,-134.5 195.5,-115.5 260.5,-115.5 260.5,-134.5"/>
<text text-anchor="middle" x="228" y="-122.5" font-family="Helvetica,sans-Serif" font-size="10.00">CAT_M1.h</text>
</a>
</g>
</g>
<!-- Node8&#45;&gt;Node13 -->
<g id="edge16" class="edge">
<title>Node8&#45;&gt;Node13</title>
<path fill="none" stroke="#63b8ff" d="M228,-181.37C228,-172.16 228,-157.29 228,-145.27"/>
<polygon fill="#63b8ff" stroke="#63b8ff" points="231.5,-144.91 228,-134.91 224.5,-144.91 231.5,-144.91"/>
</g>
<!-- Node9&#45;&gt;Node2 -->
<g id="edge10" class="edge">
<title>Node9&#45;&gt;Node2</title>
<path fill="none" stroke="#63b8ff" d="M246.3,-54.98C327.41,-44.07 465.77,-25.46 534.98,-16.15"/>
<polygon fill="#63b8ff" stroke="#63b8ff" points="535.63,-19.6 545.07,-14.8 534.69,-12.66 535.63,-19.6"/>
</g>
<!-- Node10 -->
<g id="node10" class="node">
<title>Node10</title>
<g id="a_node10"><a xlink:title=" ">
<polygon fill="#e0e0e0" stroke="#999999" points="317.5,-19 212.5,-19 212.5,0 317.5,0 317.5,-19"/>
<text text-anchor="middle" x="265" y="-7" font-family="Helvetica,sans-Serif" font-size="10.00">Adafruit_INA219.h</text>
</a>
</g>
</g>
<!-- Node9&#45;&gt;Node10 -->
<g id="edge11" class="edge">
<title>Node9&#45;&gt;Node10</title>
<path fill="none" stroke="#63b8ff" d="M196.17,-54.98C208.77,-46.84 228,-34.41 242.94,-24.76"/>
<polygon fill="#63b8ff" stroke="#63b8ff" points="245.09,-27.54 251.59,-19.17 241.29,-21.66 245.09,-27.54"/>
</g>
<!-- Node11&#45;&gt;Node2 -->
<g id="edge13" class="edge">
<title>Node11&#45;&gt;Node2</title>
<path fill="none" stroke="#63b8ff" d="M383.95,-54.98C425.33,-45.45 492.24,-30.03 535.42,-20.08"/>
<polygon fill="#63b8ff" stroke="#63b8ff" points="536.36,-23.46 545.32,-17.8 534.79,-16.63 536.36,-23.46"/>
</g>
<!-- Node11&#45;&gt;Node10 -->
<g id="edge14" class="edge">
<title>Node11&#45;&gt;Node10</title>
<path fill="none" stroke="#63b8ff" d="M333.83,-54.98C321.23,-46.84 302,-34.41 287.06,-24.76"/>
<polygon fill="#63b8ff" stroke="#63b8ff" points="288.71,-21.66 278.41,-19.17 284.91,-27.54 288.71,-21.66"/>
</g>
<!-- Node13&#45;&gt;Node5 -->
<g id="edge18" class="edge">
<title>Node13&#45;&gt;Node5</title>
<path fill="none" stroke="#63b8ff" d="M202.84,-115.49C173.12,-105.44 123.48,-88.66 90.01,-77.34"/>
<polygon fill="#63b8ff" stroke="#63b8ff" points="90.78,-73.9 80.19,-74.02 88.54,-80.54 90.78,-73.9"/>
</g>
<!-- Node13&#45;&gt;Node6 -->
<g id="edge17" class="edge">
<title>Node13&#45;&gt;Node6</title>
<path fill="none" stroke="#63b8ff" d="M203.72,-115.37C197.95,-113.47 191.79,-111.56 186,-110 109.74,-89.48 61.86,-135.24 12,-74 1.62,-61.26 7.05,-42.31 13.59,-28.43"/>
<polygon fill="#63b8ff" stroke="#63b8ff" points="16.79,-29.86 18.34,-19.38 10.59,-26.61 16.79,-29.86"/>
</g>
<!-- Node15 -->
<g id="node15" class="node">
<title>Node15</title>
<g id="a_node15"><a xlink:title=" ">
<polygon fill="#e0e0e0" stroke="#999999" points="1785.5,-74 1698.5,-74 1698.5,-55 1785.5,-55 1785.5,-74"/>
<text text-anchor="middle" x="1742" y="-62" font-family="Helvetica,sans-Serif" font-size="10.00">ArduinoJSON.h</text>
</a>
</g>
</g>
<!-- Node14&#45;&gt;Node15 -->
<g id="edge20" class="edge">
<title>Node14&#45;&gt;Node15</title>
<path fill="none" stroke="#63b8ff" d="M1897.57,-241.66C1904.41,-227.09 1915.36,-197.5 1904,-176 1877.24,-125.36 1815.69,-93.55 1776.63,-77.7"/>
<polygon fill="#63b8ff" stroke="#63b8ff" points="1777.8,-74.4 1767.22,-74.01 1775.25,-80.92 1777.8,-74.4"/>
</g>
<!-- Node16&#45;&gt;Node2 -->
<g id="edge22" class="edge">
<title>Node16&#45;&gt;Node2</title>
<path fill="none" stroke="#63b8ff" d="M1688.3,-115.4C1664.67,-99.95 1611.82,-67.88 1562,-55 1379.56,-7.84 782.38,-8.88 618.77,-10.1"/>
<polygon fill="#63b8ff" stroke="#63b8ff" points="618.6,-6.6 608.63,-10.18 618.66,-13.6 618.6,-6.6"/>
</g>
<!-- Node16&#45;&gt;Node15 -->
<g id="edge23" class="edge">
<title>Node16&#45;&gt;Node15</title>
<path fill="none" stroke="#63b8ff" d="M1707.05,-115.37C1713.11,-106.73 1722.59,-93.2 1730.14,-82.42"/>
<polygon fill="#63b8ff" stroke="#63b8ff" points="1733.05,-84.37 1735.93,-74.17 1727.32,-80.35 1733.05,-84.37"/>
</g>
<!-- Node17&#45;&gt;Node2 -->
<g id="edge25" class="edge">
<title>Node17&#45;&gt;Node2</title>
<path fill="none" stroke="#63b8ff" d="M1113.48,-250.9C992.65,-252.02 511.08,-249.47 422,-140 380.57,-89.09 482.58,-43.4 540.43,-22.51"/>
<polygon fill="#63b8ff" stroke="#63b8ff" points="541.72,-25.76 549.99,-19.14 539.39,-19.16 541.72,-25.76"/>
</g>
<!-- Node17&#45;&gt;Node4 -->
<g id="edge26" class="edge">
<title>Node17&#45;&gt;Node4</title>
<path fill="none" stroke="#63b8ff" d="M1168.57,-250.22C1217.64,-248.78 1322.41,-241.41 1402,-206 1421.66,-197.25 1421.16,-186.4 1440,-176 1471.02,-158.87 1509.01,-145.8 1537.75,-137.33"/>
<polygon fill="#63b8ff" stroke="#63b8ff" points="1538.85,-140.65 1547.5,-134.52 1536.92,-133.92 1538.85,-140.65"/>
</g>
<!-- Node18 -->
<g id="node18" class="node">
<title>Node18</title>
<g id="a_node18"><a xlink:title=" ">
<polygon fill="#e0e0e0" stroke="#999999" points="1214.5,-134.5 1107.5,-134.5 1107.5,-115.5 1214.5,-115.5 1214.5,-134.5"/>
<text text-anchor="middle" x="1161" y="-122.5" font-family="Helvetica,sans-Serif" font-size="10.00">cli/FreeRTOS_CLI.h</text>
</a>
</g>
</g>
<!-- Node17&#45;&gt;Node18 -->
<g id="edge27" class="edge">
<title>Node17&#45;&gt;Node18</title>
<path fill="none" stroke="#63b8ff" d="M1113.47,-250.48C1043.31,-249.49 867.03,-240.69 920,-176 971.41,-113.22 1019.64,-156.94 1099,-140 1103.93,-138.95 1109.08,-137.82 1114.21,-136.69"/>
<polygon fill="#63b8ff" stroke="#63b8ff" points="1114.99,-140.1 1123.98,-134.51 1113.46,-133.27 1114.99,-140.1"/>
</g>
<!-- Node19 -->
<g id="node19" class="node">
<title>Node19</title>
<g id="a_node19"><a xlink:href="cat-m1_8h.html" target="_top" xlink:title="CAT&#45;M1 CLI command request and response handler.">
<polygon fill="white" stroke="#666666" points="1061,-200.5 929,-200.5 929,-181.5 1061,-181.5 1061,-200.5"/>
<text text-anchor="middle" x="995" y="-188.5" font-family="Helvetica,sans-Serif" font-size="10.00">cli/peripherals/cat&#45;m1.h</text>
</a>
</g>
</g>
<!-- Node17&#45;&gt;Node19 -->
<g id="edge28" class="edge">
<title>Node17&#45;&gt;Node19</title>
<path fill="none" stroke="#63b8ff" d="M1119.77,-241.99C1095.01,-232.07 1053.88,-215.59 1025.65,-204.28"/>
<polygon fill="#63b8ff" stroke="#63b8ff" points="1026.84,-200.99 1016.26,-200.52 1024.24,-207.49 1026.84,-200.99"/>
</g>
<!-- Node22 -->
<g id="node22" class="node">
<title>Node22</title>
<g id="a_node22"><a xlink:href="sdi12_8h.html" target="_top" xlink:title="SDI&#45;12 command line interface handler.">
<polygon fill="white" stroke="#666666" points="1203,-200.5 1079,-200.5 1079,-181.5 1203,-181.5 1203,-200.5"/>
<text text-anchor="middle" x="1141" y="-188.5" font-family="Helvetica,sans-Serif" font-size="10.00">cli/peripherals/sdi12.h</text>
</a>
</g>
</g>
<!-- Node17&#45;&gt;Node22 -->
<g id="edge34" class="edge">
<title>Node17&#45;&gt;Node22</title>
<path fill="none" stroke="#63b8ff" d="M1141,-241.87C1141,-233.75 1141,-221.31 1141,-210.89"/>
<polygon fill="#63b8ff" stroke="#63b8ff" points="1144.5,-210.67 1141,-200.67 1137.5,-210.67 1144.5,-210.67"/>
</g>
<!-- Node27 -->
<g id="node27" class="node">
<title>Node27</title>
<g id="a_node27"><a xlink:href="server_8h.html" target="_top" xlink:title="Handle the setup and maintenance of the BLE server and connected clients.">
<polygon fill="white" stroke="#666666" points="853.5,-200.5 748.5,-200.5 748.5,-181.5 853.5,-181.5 853.5,-200.5"/>
<text text-anchor="middle" x="801" y="-188.5" font-family="Helvetica,sans-Serif" font-size="10.00">bluetooth/server.h</text>
</a>
</g>
</g>
<!-- Node17&#45;&gt;Node27 -->
<g id="edge45" class="edge">
<title>Node17&#45;&gt;Node27</title>
<path fill="none" stroke="#63b8ff" d="M1113.42,-246.39C1057.26,-237.32 929.25,-215.39 855.64,-202.31"/>
<polygon fill="#63b8ff" stroke="#63b8ff" points="856.09,-198.84 845.63,-200.53 854.86,-205.73 856.09,-198.84"/>
</g>
<!-- Node37 -->
<g id="node37" class="node">
<title>Node37</title>
<g id="a_node37"><a xlink:href="acquisition__intervals_8h.html" target="_top" xlink:title="Handles the time between measurements and uplinks by the device over LTE.">
<polygon fill="white" stroke="#666666" points="1393,-206 1239,-206 1239,-176 1393,-176 1393,-206"/>
<text text-anchor="start" x="1247" y="-194" font-family="Helvetica,sans-Serif" font-size="10.00">cli/device_config/acquisition</text>
<text text-anchor="middle" x="1316" y="-183" font-family="Helvetica,sans-Serif" font-size="10.00">_intervals.h</text>
</a>
</g>
</g>
<!-- Node17&#45;&gt;Node37 -->
<g id="edge71" class="edge">
<title>Node17&#45;&gt;Node37</title>
<path fill="none" stroke="#63b8ff" d="M1166.45,-241.99C1191.96,-233.46 1231.98,-220.09 1264.2,-209.32"/>
<polygon fill="#63b8ff" stroke="#63b8ff" points="1265.55,-212.55 1273.93,-206.06 1263.33,-205.92 1265.55,-212.55"/>
</g>
<!-- Node38 -->
<g id="node38" class="node">
<title>Node38</title>
<g id="a_node38"><a xlink:href="mqtt__cli_8h.html" target="_top" xlink:title="MQTT setup and configuration through the CLI.">
<polygon fill="white" stroke="#666666" points="1759,-206 1635,-206 1635,-176 1759,-176 1759,-206"/>
<text text-anchor="start" x="1643" y="-194" font-family="Helvetica,sans-Serif" font-size="10.00">cli/device_config/mqtt</text>
<text text-anchor="middle" x="1697" y="-183" font-family="Helvetica,sans-Serif" font-size="10.00">_cli.h</text>
</a>
</g>
</g>
<!-- Node17&#45;&gt;Node38 -->
<g id="edge77" class="edge">
<title>Node17&#45;&gt;Node38</title>
<path fill="none" stroke="#63b8ff" d="M1168.75,-248.01C1239,-241.66 1429.54,-224.06 1588,-206 1599.85,-204.65 1612.41,-203.12 1624.63,-201.59"/>
<polygon fill="#63b8ff" stroke="#63b8ff" points="1625.3,-205.03 1634.78,-200.3 1624.42,-198.09 1625.3,-205.03"/>
</g>
<!-- Node39 -->
<g id="node39" class="node">
<title>Node39</title>
<g id="a_node39"><a xlink:href="config__cli_8h.html" target="_top" xlink:title=" ">
<polygon fill="white" stroke="#666666" points="1579,-206 1449,-206 1449,-176 1579,-176 1579,-206"/>
<text text-anchor="start" x="1457" y="-194" font-family="Helvetica,sans-Serif" font-size="10.00">cli/device_config/config</text>
<text text-anchor="middle" x="1514" y="-183" font-family="Helvetica,sans-Serif" font-size="10.00">_cli.h</text>
</a>
</g>
</g>
<!-- Node17&#45;&gt;Node39 -->
<g id="edge79" class="edge">
<title>Node17&#45;&gt;Node39</title>
<path fill="none" stroke="#63b8ff" d="M1168.6,-246.56C1220.72,-239.06 1337.19,-222.07 1435,-206 1436.28,-205.79 1437.56,-205.58 1438.86,-205.36"/>
<polygon fill="#63b8ff" stroke="#63b8ff" points="1439.65,-208.78 1448.93,-203.67 1438.48,-201.88 1439.65,-208.78"/>
</g>
<!-- Node19&#45;&gt;Node4 -->
<g id="edge29" class="edge">
<title>Node19&#45;&gt;Node4</title>
<path fill="none" stroke="#63b8ff" d="M1036.53,-181.45C1047.39,-179.44 1059.1,-177.45 1070,-176 1266.68,-149.76 1318.65,-168.65 1515,-140 1521.39,-139.07 1528.09,-137.89 1534.66,-136.61"/>
<polygon fill="#63b8ff" stroke="#63b8ff" points="1535.74,-139.96 1544.84,-134.54 1534.34,-133.1 1535.74,-139.96"/>
</g>
<!-- Node19&#45;&gt;Node13 -->
<g id="edge33" class="edge">
<title>Node19&#45;&gt;Node13</title>
<path fill="none" stroke="#63b8ff" d="M928.9,-182.63C907.85,-180.38 884.46,-177.98 863,-176 747.31,-165.31 393.73,-138.48 270.72,-129.21"/>
<polygon fill="#63b8ff" stroke="#63b8ff" points="270.8,-125.71 260.56,-128.45 270.27,-132.69 270.8,-125.71"/>
</g>
<!-- Node19&#45;&gt;Node18 -->
<g id="edge32" class="edge">
<title>Node19&#45;&gt;Node18</title>
<path fill="none" stroke="#63b8ff" d="M1017.39,-181.37C1046.18,-170.27 1096.37,-150.92 1129.14,-138.28"/>
<polygon fill="#63b8ff" stroke="#63b8ff" points="1130.63,-141.46 1138.7,-134.6 1128.11,-134.93 1130.63,-141.46"/>
</g>
<!-- Node20 -->
<g id="node20" class="node">
<title>Node20</title>
<g id="a_node20"><a xlink:title=" ">
<polygon fill="#e0e0e0" stroke="#999999" points="1439.5,-134.5 1378.5,-134.5 1378.5,-115.5 1439.5,-115.5 1439.5,-134.5"/>
<text text-anchor="middle" x="1409" y="-122.5" font-family="Helvetica,sans-Serif" font-size="10.00">Stream.h</text>
</a>
</g>
</g>
<!-- Node19&#45;&gt;Node20 -->
<g id="edge30" class="edge">
<title>Node19&#45;&gt;Node20</title>
<path fill="none" stroke="#63b8ff" d="M1038.15,-181.45C1048.55,-179.52 1059.66,-177.58 1070,-176 1202.74,-155.67 1239.31,-170.88 1370,-140 1372.66,-139.37 1375.4,-138.62 1378.12,-137.79"/>
<polygon fill="#63b8ff" stroke="#63b8ff" points="1379.41,-141.05 1387.81,-134.59 1377.21,-134.41 1379.41,-141.05"/>
</g>
<!-- Node21 -->
<g id="node21" class="node">
<title>Node21</title>
<g id="a_node21"><a xlink:title=" ">
<polygon fill="#e0e0e0" stroke="#999999" points="1360.5,-134.5 1271.5,-134.5 1271.5,-115.5 1360.5,-115.5 1360.5,-134.5"/>
<text text-anchor="middle" x="1316" y="-122.5" font-family="Helvetica,sans-Serif" font-size="10.00">StreamString.h</text>
</a>
</g>
</g>
<!-- Node19&#45;&gt;Node21 -->
<g id="edge31" class="edge">
<title>Node19&#45;&gt;Node21</title>
<path fill="none" stroke="#63b8ff" d="M1037.96,-181.44C1096.22,-169.82 1200.21,-149.09 1263.18,-136.53"/>
<polygon fill="#63b8ff" stroke="#63b8ff" points="1264.17,-139.9 1273.3,-134.51 1262.8,-133.04 1264.17,-139.9"/>
</g>
<!-- Node22&#45;&gt;Node4 -->
<g id="edge35" class="edge">
<title>Node22&#45;&gt;Node4</title>
<path fill="none" stroke="#63b8ff" d="M1193.67,-181.44C1205.6,-179.58 1218.23,-177.67 1230,-176 1356.41,-158.08 1389.11,-161.26 1515,-140 1520.92,-139 1527.11,-137.84 1533.24,-136.62"/>
<polygon fill="#63b8ff" stroke="#63b8ff" points="1534.31,-139.97 1543.41,-134.54 1532.91,-133.12 1534.31,-139.97"/>
</g>
<!-- Node22&#45;&gt;Node18 -->
<g id="edge40" class="edge">
<title>Node22&#45;&gt;Node18</title>
<path fill="none" stroke="#63b8ff" d="M1143.7,-181.37C1146.63,-171.97 1151.42,-156.67 1155.21,-144.53"/>
<polygon fill="#63b8ff" stroke="#63b8ff" points="1158.57,-145.49 1158.22,-134.91 1151.89,-143.41 1158.57,-145.49"/>
</g>
<!-- Node22&#45;&gt;Node20 -->
<g id="edge36" class="edge">
<title>Node22&#45;&gt;Node20</title>
<path fill="none" stroke="#63b8ff" d="M1188.82,-181.43C1235.46,-172.64 1308.2,-157.76 1370,-140 1372.28,-139.35 1374.61,-138.63 1376.95,-137.88"/>
<polygon fill="#63b8ff" stroke="#63b8ff" points="1378.13,-141.17 1386.48,-134.65 1375.88,-134.54 1378.13,-141.17"/>
</g>
<!-- Node22&#45;&gt;Node21 -->
<g id="edge37" class="edge">
<title>Node22&#45;&gt;Node21</title>
<path fill="none" stroke="#63b8ff" d="M1164.6,-181.37C1195.09,-170.22 1248.32,-150.75 1282.85,-138.12"/>
<polygon fill="#63b8ff" stroke="#63b8ff" points="1284.3,-141.32 1292.49,-134.6 1281.9,-134.74 1284.3,-141.32"/>
</g>
<!-- Node22&#45;&gt;Node22 -->
<g id="edge38" class="edge">
<title>Node22&#45;&gt;Node22</title>
<path fill="none" stroke="#63b8ff" d="M1170.54,-200.53C1195.22,-204.61 1221,-201.43 1221,-191 1221,-182 1201.78,-178.4 1180.65,-180.2"/>
<polygon fill="#63b8ff" stroke="#63b8ff" points="1180.03,-176.75 1170.54,-181.47 1180.9,-183.7 1180.03,-176.75"/>
</g>
<!-- Node23 -->
<g id="node23" class="node">
<title>Node23</title>
<g id="a_node23"><a xlink:title=" ">
<polygon fill="#e0e0e0" stroke="#999999" points="1311.5,-74 1218.5,-74 1218.5,-55 1311.5,-55 1311.5,-74"/>
<text text-anchor="middle" x="1265" y="-62" font-family="Helvetica,sans-Serif" font-size="10.00">dpiclimate&#45;12.h</text>
</a>
</g>
</g>
<!-- Node22&#45;&gt;Node23 -->
<g id="edge39" class="edge">
<title>Node22&#45;&gt;Node23</title>
<path fill="none" stroke="#63b8ff" d="M1161.48,-181.41C1179.65,-172.97 1206.04,-158.67 1224,-140 1239.78,-123.59 1251.43,-99.91 1258.19,-83.68"/>
<polygon fill="#63b8ff" stroke="#63b8ff" points="1261.51,-84.83 1261.93,-74.24 1255,-82.25 1261.51,-84.83"/>
</g>
<!-- Node24 -->
<g id="node24" class="node">
<title>Node24</title>
<g id="a_node24"><a xlink:href="_utils_8h.html" target="_top" xlink:title=" ">
<polygon fill="white" stroke="#666666" points="1506,-134.5 1458,-134.5 1458,-115.5 1506,-115.5 1506,-134.5"/>
<text text-anchor="middle" x="1482" y="-122.5" font-family="Helvetica,sans-Serif" font-size="10.00">Utils.h</text>
</a>
</g>
</g>
<!-- Node22&#45;&gt;Node24 -->
<g id="edge41" class="edge">
<title>Node22&#45;&gt;Node24</title>
<path fill="none" stroke="#63b8ff" d="M1194.39,-181.5C1280.94,-167.7 1442.91,-141.76 1449,-140 1450.88,-139.46 1452.8,-138.83 1454.72,-138.16"/>
<polygon fill="#63b8ff" stroke="#63b8ff" points="1456.08,-141.39 1464.13,-134.5 1453.54,-134.87 1456.08,-141.39"/>
</g>
<!-- Node24&#45;&gt;Node23 -->
<g id="edge44" class="edge">
<title>Node24&#45;&gt;Node23</title>
<path fill="none" stroke="#63b8ff" d="M1463.36,-115.46C1458.72,-113.52 1453.73,-111.56 1449,-110 1406.07,-95.81 1356.15,-84.02 1319.14,-76.15"/>
<polygon fill="#63b8ff" stroke="#63b8ff" points="1319.57,-72.66 1309.06,-74.03 1318.13,-79.51 1319.57,-72.66"/>
</g>
<!-- Node25 -->
<g id="node25" class="node">
<title>Node25</title>
<g id="a_node25"><a xlink:title=" ">
<polygon fill="#e0e0e0" stroke="#999999" points="1553,-74 1497,-74 1497,-55 1553,-55 1553,-74"/>
<text text-anchor="middle" x="1525" y="-62" font-family="Helvetica,sans-Serif" font-size="10.00">stddef.h</text>
</a>
</g>
</g>
<!-- Node24&#45;&gt;Node25 -->
<g id="edge42" class="edge">
<title>Node24&#45;&gt;Node25</title>
<path fill="none" stroke="#63b8ff" d="M1488.34,-115.37C1494.7,-106.73 1504.64,-93.2 1512.57,-82.42"/>
<polygon fill="#63b8ff" stroke="#63b8ff" points="1515.53,-84.3 1518.63,-74.17 1509.89,-80.15 1515.53,-84.3"/>
</g>
<!-- Node26 -->
<g id="node26" class="node">
<title>Node26</title>
<g id="a_node26"><a xlink:title=" ">
<polygon fill="#e0e0e0" stroke="#999999" points="1478.5,-74 1395.5,-74 1395.5,-55 1478.5,-55 1478.5,-74"/>
<text text-anchor="middle" x="1437" y="-62" font-family="Helvetica,sans-Serif" font-size="10.00">ArduinoJson.h</text>
</a>
</g>
</g>
<!-- Node24&#45;&gt;Node26 -->
<g id="edge43" class="edge">
<title>Node24&#45;&gt;Node26</title>
<path fill="none" stroke="#63b8ff" d="M1475.36,-115.37C1468.71,-106.73 1458.31,-93.2 1450.01,-82.42"/>
<polygon fill="#63b8ff" stroke="#63b8ff" points="1452.54,-79.96 1443.67,-74.17 1446.99,-84.23 1452.54,-79.96"/>
</g>
<!-- Node27&#45;&gt;Node17 -->
<g id="edge70" class="edge">
<title>Node27&#45;&gt;Node17</title>
<path fill="none" stroke="#63b8ff" d="M853.5,-200.2C922.75,-211.67 1042.71,-232.32 1103.51,-243.25"/>
<polygon fill="#63b8ff" stroke="#63b8ff" points="1102.99,-246.71 1113.45,-245.05 1104.23,-239.83 1102.99,-246.71"/>
</g>
<!-- Node28 -->
<g id="node28" class="node">
<title>Node28</title>
<g id="a_node28"><a xlink:title=" ">
<polygon fill="#e0e0e0" stroke="#999999" points="1089.5,-134.5 1012.5,-134.5 1012.5,-115.5 1089.5,-115.5 1089.5,-134.5"/>
<text text-anchor="middle" x="1051" y="-122.5" font-family="Helvetica,sans-Serif" font-size="10.00">BLEDevice.h</text>
</a>
</g>
</g>
<!-- Node27&#45;&gt;Node28 -->
<g id="edge46" class="edge">
<title>Node27&#45;&gt;Node28</title>
<path fill="none" stroke="#63b8ff" d="M835.19,-181.43C874.5,-171.55 940.95,-154.77 998,-140 1001.57,-139.07 1005.28,-138.11 1009,-137.13"/>
<polygon fill="#63b8ff" stroke="#63b8ff" points="1010,-140.49 1018.78,-134.56 1008.22,-133.72 1010,-140.49"/>
</g>
<!-- Node29 -->
<g id="node29" class="node">
<title>Node29</title>
<g id="a_node29"><a xlink:title=" ">
<polygon fill="#e0e0e0" stroke="#999999" points="735,-74 661,-74 661,-55 735,-55 735,-74"/>
<text text-anchor="middle" x="698" y="-62" font-family="Helvetica,sans-Serif" font-size="10.00">BLEServer.h</text>
</a>
</g>
</g>
<!-- Node27&#45;&gt;Node29 -->
<g id="edge47" class="edge">
<title>Node27&#45;&gt;Node29</title>
<path fill="none" stroke="#63b8ff" d="M748.18,-188.71C711.92,-184.72 666.14,-172.89 642,-140 634.11,-129.25 636.2,-122.01 642,-110 648.22,-97.12 660.18,-86.82 671.46,-79.38"/>
<polygon fill="#63b8ff" stroke="#63b8ff" points="673.51,-82.23 680.23,-74.04 669.87,-76.25 673.51,-82.23"/>
</g>
<!-- Node30 -->
<g id="node30" class="node">
<title>Node30</title>
<g id="a_node30"><a xlink:title=" ">
<polygon fill="#e0e0e0" stroke="#999999" points="717,-134.5 651,-134.5 651,-115.5 717,-115.5 717,-134.5"/>
<text text-anchor="middle" x="684" y="-122.5" font-family="Helvetica,sans-Serif" font-size="10.00">BLEUtils.h</text>
</a>
</g>
</g>
<!-- Node27&#45;&gt;Node30 -->
<g id="edge48" class="edge">
<title>Node27&#45;&gt;Node30</title>
<path fill="none" stroke="#63b8ff" d="M785.22,-181.37C765.59,-170.63 731.86,-152.18 708.77,-139.55"/>
<polygon fill="#63b8ff" stroke="#63b8ff" points="710.36,-136.43 699.9,-134.7 707,-142.57 710.36,-136.43"/>
</g>
<!-- Node31 -->
<g id="node31" class="node">
<title>Node31</title>
<g id="a_node31"><a xlink:title=" ">
<polygon fill="#e0e0e0" stroke="#999999" points="989,-74 921,-74 921,-55 989,-55 989,-74"/>
<text text-anchor="middle" x="955" y="-62" font-family="Helvetica,sans-Serif" font-size="10.00">BLE2902.h</text>
</a>
</g>
</g>
<!-- Node27&#45;&gt;Node31 -->
<g id="edge49" class="edge">
<title>Node27&#45;&gt;Node31</title>
<path fill="none" stroke="#63b8ff" d="M851.03,-181.45C894.05,-172.96 951.27,-158.54 965,-140 976.98,-123.83 970.9,-100.1 964.17,-83.8"/>
<polygon fill="#63b8ff" stroke="#63b8ff" points="967.17,-81.95 959.83,-74.3 960.8,-84.85 967.17,-81.95"/>
</g>
<!-- Node32 -->
<g id="node32" class="node">
<title>Node32</title>
<g id="a_node32"><a xlink:href="uart_8h.html" target="_top" xlink:title="BluetoothLE UART service setup and handling.">
<polygon fill="white" stroke="#666666" points="830.5,-134.5 735.5,-134.5 735.5,-115.5 830.5,-115.5 830.5,-134.5"/>
<text text-anchor="middle" x="783" y="-122.5" font-family="Helvetica,sans-Serif" font-size="10.00">bluetooth/uart.h</text>
</a>
</g>
</g>
<!-- Node27&#45;&gt;Node32 -->
<g id="edge50" class="edge">
<title>Node27&#45;&gt;Node32</title>
<path fill="none" stroke="#63b8ff" d="M793.78,-181.37C789.18,-172.07 784.46,-156.98 782.1,-144.9"/>
<polygon fill="#63b8ff" stroke="#63b8ff" points="785.55,-144.31 780.66,-134.91 778.62,-145.3 785.55,-144.31"/>
</g>
<!-- Node35 -->
<g id="node35" class="node">
<title>Node35</title>
<g id="a_node35"><a xlink:href="device_8h.html" target="_top" xlink:title="Bluetooth device services and device information.">
<polygon fill="white" stroke="#666666" points="955.5,-134.5 848.5,-134.5 848.5,-115.5 955.5,-115.5 955.5,-134.5"/>
<text text-anchor="middle" x="902" y="-122.5" font-family="Helvetica,sans-Serif" font-size="10.00">bluetooth/device.h</text>
</a>
</g>
</g>
<!-- Node27&#45;&gt;Node35 -->
<g id="edge58" class="edge">
<title>Node27&#45;&gt;Node35</title>
<path fill="none" stroke="#63b8ff" d="M814.62,-181.37C831.34,-170.78 859.91,-152.67 879.81,-140.06"/>
<polygon fill="#63b8ff" stroke="#63b8ff" points="881.7,-143.01 888.27,-134.7 877.95,-137.1 881.7,-143.01"/>
</g>
<!-- Node36 -->
<g id="node36" class="node">
<title>Node36</title>
<g id="a_node36"><a xlink:href="power__monitoring_8h.html" target="_top" xlink:title="Setup BluetoothLE power monitoring information.">
<polygon fill="white" stroke="#666666" points="595,-134.5 431,-134.5 431,-115.5 595,-115.5 595,-134.5"/>
<text text-anchor="middle" x="513" y="-122.5" font-family="Helvetica,sans-Serif" font-size="10.00">bluetooth/power_monitoring.h</text>
</a>
</g>
</g>
<!-- Node27&#45;&gt;Node36 -->
<g id="edge63" class="edge">
<title>Node27&#45;&gt;Node36</title>
<path fill="none" stroke="#63b8ff" d="M762.46,-181.44C710.4,-169.87 617.65,-149.26 561.09,-136.69"/>
<polygon fill="#63b8ff" stroke="#63b8ff" points="561.84,-133.27 551.31,-134.51 560.32,-140.1 561.84,-133.27"/>
</g>
<!-- Node32&#45;&gt;Node2 -->
<g id="edge51" class="edge">
<title>Node32&#45;&gt;Node2</title>
<path fill="none" stroke="#63b8ff" d="M780.54,-115.33C775.9,-100.62 764.46,-70.83 744,-55 707.82,-27.01 655.51,-16.58 619.11,-12.72"/>
<polygon fill="#63b8ff" stroke="#63b8ff" points="619.11,-9.2 608.82,-11.75 618.45,-16.17 619.11,-9.2"/>
</g>
<!-- Node32&#45;&gt;Node27 -->
<g id="edge57" class="edge">
<title>Node32&#45;&gt;Node27</title>
<path fill="none" stroke="#63b8ff" d="M790.35,-134.91C794.96,-144.32 799.65,-159.43 801.97,-171.45"/>
<polygon fill="#63b8ff" stroke="#63b8ff" points="798.51,-171.95 803.36,-181.37 805.44,-170.98 798.51,-171.95"/>
</g>
<!-- Node32&#45;&gt;Node29 -->
<g id="edge53" class="edge">
<title>Node32&#45;&gt;Node29</title>
<path fill="none" stroke="#63b8ff" d="M770.46,-115.37C756.9,-106.04 735.06,-91.01 718.9,-79.88"/>
<polygon fill="#63b8ff" stroke="#63b8ff" points="720.82,-76.95 710.59,-74.17 716.85,-82.72 720.82,-76.95"/>
</g>
<!-- Node32&#45;&gt;Node31 -->
<g id="edge54" class="edge">
<title>Node32&#45;&gt;Node31</title>
<path fill="none" stroke="#63b8ff" d="M808.01,-115.49C837.56,-105.44 886.91,-88.66 920.19,-77.34"/>
<polygon fill="#63b8ff" stroke="#63b8ff" points="921.62,-80.55 929.96,-74.02 919.37,-73.92 921.62,-80.55"/>
</g>
<!-- Node33 -->
<g id="node33" class="node">
<title>Node33</title>
<g id="a_node33"><a xlink:title=" ">
<polygon fill="#e0e0e0" stroke="#999999" points="902.5,-74 791.5,-74 791.5,-55 902.5,-55 902.5,-74"/>
<text text-anchor="middle" x="847" y="-62" font-family="Helvetica,sans-Serif" font-size="10.00">BLECharacteristic.h</text>
</a>
</g>
</g>
<!-- Node32&#45;&gt;Node33 -->
<g id="edge52" class="edge">
<title>Node32&#45;&gt;Node33</title>
<path fill="none" stroke="#63b8ff" d="M792.44,-115.37C802.27,-106.38 817.89,-92.11 829.89,-81.14"/>
<polygon fill="#63b8ff" stroke="#63b8ff" points="832.5,-83.5 837.52,-74.17 827.78,-78.33 832.5,-83.5"/>
</g>
<!-- Node32&#45;&gt;Node34 -->
<g id="edge55" class="edge">
<title>Node32&#45;&gt;Node34</title>
<path fill="none" stroke="#63b8ff" d="M753.05,-115.49C717.04,-105.27 656.5,-88.08 616.65,-76.76"/>
<polygon fill="#63b8ff" stroke="#63b8ff" points="617.57,-73.38 606.99,-74.02 615.65,-80.12 617.57,-73.38"/>
</g>
<!-- Node34&#45;&gt;Node2 -->
<g id="edge56" class="edge">
<title>Node34&#45;&gt;Node2</title>
<path fill="none" stroke="#63b8ff" d="M577,-54.75C577,-47.8 577,-37.85 577,-29.13"/>
<polygon fill="#63b8ff" stroke="#63b8ff" points="580.5,-29.09 577,-19.09 573.5,-29.09 580.5,-29.09"/>
</g>
<!-- Node35&#45;&gt;Node2 -->
<g id="edge59" class="edge">
<title>Node35&#45;&gt;Node2</title>
<path fill="none" stroke="#63b8ff" d="M932.59,-115.47C968.95,-103.88 1021.89,-81.55 998,-55 972.92,-27.13 720.4,-15.42 618.91,-11.81"/>
<polygon fill="#63b8ff" stroke="#63b8ff" points="618.83,-8.31 608.72,-11.46 618.59,-15.3 618.83,-8.31"/>
</g>
<!-- Node35&#45;&gt;Node29 -->
<g id="edge61" class="edge">
<title>Node35&#45;&gt;Node29</title>
<path fill="none" stroke="#63b8ff" d="M872.34,-115.49C836.76,-105.29 776.98,-88.15 737.52,-76.83"/>
<polygon fill="#63b8ff" stroke="#63b8ff" points="738.28,-73.41 727.7,-74.02 736.35,-80.14 738.28,-73.41"/>
</g>
<!-- Node35&#45;&gt;Node31 -->
<g id="edge62" class="edge">
<title>Node35&#45;&gt;Node31</title>
<path fill="none" stroke="#63b8ff" d="M909.82,-115.37C917.81,-106.55 930.39,-92.66 940.26,-81.77"/>
<polygon fill="#63b8ff" stroke="#63b8ff" points="943.03,-83.93 947.15,-74.17 937.84,-79.23 943.03,-83.93"/>
</g>
<!-- Node35&#45;&gt;Node33 -->
<g id="edge60" class="edge">
<title>Node35&#45;&gt;Node33</title>
<path fill="none" stroke="#63b8ff" d="M893.88,-115.37C885.6,-106.55 872.53,-92.66 862.3,-81.77"/>
<polygon fill="#63b8ff" stroke="#63b8ff" points="864.55,-79.06 855.15,-74.17 859.45,-83.85 864.55,-79.06"/>
</g>
<!-- Node36&#45;&gt;Node2 -->
<g id="edge64" class="edge">
<title>Node36&#45;&gt;Node2</title>
<path fill="none" stroke="#63b8ff" d="M508.26,-115.3C501.47,-101.56 490.96,-74.4 502,-55 510.3,-40.43 525.45,-30.14 539.98,-23.15"/>
<polygon fill="#63b8ff" stroke="#63b8ff" points="541.61,-26.25 549.35,-19.02 538.79,-19.85 541.61,-26.25"/>
</g>
<!-- Node36&#45;&gt;Node9 -->
<g id="edge69" class="edge">
<title>Node36&#45;&gt;Node9</title>
<path fill="none" stroke="#63b8ff" d="M465.02,-115.49C405.63,-104.97 304.57,-87.05 240.92,-75.77"/>
<polygon fill="#63b8ff" stroke="#63b8ff" points="241.5,-72.32 231.04,-74.02 240.28,-79.21 241.5,-72.32"/>
</g>
<!-- Node36&#45;&gt;Node11 -->
<g id="edge68" class="edge">
<title>Node36&#45;&gt;Node11</title>
<path fill="none" stroke="#63b8ff" d="M488.86,-115.49C460.46,-105.49 413.12,-88.8 381.01,-77.49"/>
<polygon fill="#63b8ff" stroke="#63b8ff" points="381.76,-74.04 371.17,-74.02 379.44,-80.64 381.76,-74.04"/>
</g>
<!-- Node36&#45;&gt;Node29 -->
<g id="edge66" class="edge">
<title>Node36&#45;&gt;Node29</title>
<path fill="none" stroke="#63b8ff" d="M539.9,-115.49C571.96,-105.36 625.68,-88.37 661.48,-77.05"/>
<polygon fill="#63b8ff" stroke="#63b8ff" points="662.59,-80.37 671.07,-74.02 660.48,-73.69 662.59,-80.37"/>
</g>
<!-- Node36&#45;&gt;Node31 -->
<g id="edge67" class="edge">
<title>Node36&#45;&gt;Node31</title>
<path fill="none" stroke="#63b8ff" d="M586.11,-115.46C679.24,-104.49 836.11,-85.63 910.79,-74.07"/>
<polygon fill="#63b8ff" stroke="#63b8ff" points="911.44,-77.51 920.77,-72.49 910.35,-70.6 911.44,-77.51"/>
</g>
<!-- Node36&#45;&gt;Node33 -->
<g id="edge65" class="edge">
<title>Node36&#45;&gt;Node33</title>
<path fill="none" stroke="#63b8ff" d="M561.57,-115.49C621.67,-104.97 723.96,-87.05 788.37,-75.77"/>
<polygon fill="#63b8ff" stroke="#63b8ff" points="789.13,-79.19 798.37,-74.02 787.92,-72.29 789.13,-79.19"/>
</g>
<!-- Node37&#45;&gt;Node4 -->
<g id="edge72" class="edge">
<title>Node37&#45;&gt;Node4</title>
<path fill="none" stroke="#63b8ff" d="M1374.16,-175.95C1422.78,-164.21 1491.15,-147.7 1535.76,-136.93"/>
<polygon fill="#63b8ff" stroke="#63b8ff" points="1536.83,-140.27 1545.73,-134.52 1535.19,-133.46 1536.83,-140.27"/>
</g>
<!-- Node37&#45;&gt;Node16 -->
<g id="edge76" class="edge">
<title>Node37&#45;&gt;Node16</title>
<path fill="none" stroke="#63b8ff" d="M1393.31,-180.63C1460.65,-171.92 1560.74,-157.65 1647,-140 1651.39,-139.1 1655.95,-138.07 1660.49,-136.99"/>
<polygon fill="#63b8ff" stroke="#63b8ff" points="1661.43,-140.36 1670.29,-134.55 1659.74,-133.57 1661.43,-140.36"/>
</g>
<!-- Node37&#45;&gt;Node18 -->
<g id="edge75" class="edge">
<title>Node37&#45;&gt;Node18</title>
<path fill="none" stroke="#63b8ff" d="M1281.98,-175.95C1254.8,-164.73 1217.07,-149.15 1191,-138.39"/>
<polygon fill="#63b8ff" stroke="#63b8ff" points="1192.21,-135.1 1181.63,-134.52 1189.54,-141.57 1192.21,-135.1"/>
</g>
<!-- Node37&#45;&gt;Node20 -->
<g id="edge73" class="edge">
<title>Node37&#45;&gt;Node20</title>
<path fill="none" stroke="#63b8ff" d="M1336.64,-175.8C1351.94,-165.27 1372.71,-150.97 1388.08,-140.4"/>
<polygon fill="#63b8ff" stroke="#63b8ff" points="1390.16,-143.21 1396.42,-134.66 1386.2,-137.44 1390.16,-143.21"/>
</g>
<!-- Node37&#45;&gt;Node21 -->
<g id="edge74" class="edge">
<title>Node37&#45;&gt;Node21</title>
<path fill="none" stroke="#63b8ff" d="M1316,-175.8C1316,-166.7 1316,-154.79 1316,-144.9"/>
<polygon fill="#63b8ff" stroke="#63b8ff" points="1319.5,-144.84 1316,-134.84 1312.5,-144.84 1319.5,-144.84"/>
</g>
<!-- Node38&#45;&gt;Node16 -->
<g id="edge78" class="edge">
<title>Node38&#45;&gt;Node16</title>
<path fill="none" stroke="#63b8ff" d="M1697.89,-175.8C1698.46,-166.7 1699.2,-154.79 1699.82,-144.9"/>
<polygon fill="#63b8ff" stroke="#63b8ff" points="1703.32,-145.04 1700.45,-134.84 1696.33,-144.61 1703.32,-145.04"/>
</g>
<!-- Node39&#45;&gt;Node16 -->
<g id="edge80" class="edge">
<title>Node39&#45;&gt;Node16</title>
<path fill="none" stroke="#63b8ff" d="M1555.04,-175.95C1588.41,-164.53 1634.97,-148.6 1666.46,-137.82"/>
<polygon fill="#63b8ff" stroke="#63b8ff" points="1667.79,-141.07 1676.11,-134.52 1665.52,-134.44 1667.79,-141.07"/>
</g>
<!-- Node40&#45;&gt;Node2 -->
<g id="edge82" class="edge">
<title>Node40&#45;&gt;Node2</title>
<path fill="none" stroke="#63b8ff" d="M1854.21,-181.41C1851.41,-156.69 1839.62,-85.17 1795,-55 1745.3,-21.4 827.62,-12.41 618.97,-10.79"/>
<polygon fill="#63b8ff" stroke="#63b8ff" points="618.76,-7.29 608.73,-10.72 618.71,-14.29 618.76,-7.29"/>
</g>
<!-- Node40&#45;&gt;Node4 -->
<g id="edge83" class="edge">
<title>Node40&#45;&gt;Node4</title>
<path fill="none" stroke="#63b8ff" d="M1818.33,-181.44C1769.01,-169.92 1681.29,-149.43 1627.43,-136.84"/>
<polygon fill="#63b8ff" stroke="#63b8ff" points="1627.99,-133.38 1617.45,-134.51 1626.39,-140.2 1627.99,-133.38"/>
</g>
</g>
</svg>
