<?xml version="1.0" encoding="UTF-8" standalone="no"?>
<!DOCTYPE svg PUBLIC "-//W3C//DTD SVG 1.1//EN"
 "http://www.w3.org/Graphics/SVG/1.1/DTD/svg11.dtd">
<!-- Generated by graphviz version 2.43.0 (0)
 -->
<!-- Title: firmware/wombat/src/main.cpp Pages: 1 -->
<svg width="1966pt" height="390pt"
 viewBox="0.00 0.00 1966.00 390.00" xmlns="http://www.w3.org/2000/svg" xmlns:xlink="http://www.w3.org/1999/xlink">
<g id="graph0" class="graph" transform="scale(1 1) rotate(0) translate(4 386)">
<title>firmware/wombat/src/main.cpp</title>
<!-- Node1 -->
<g id="node1" class="node">
<title>Node1</title>
<g id="a_node1"><a xlink:title=" ">
<polygon fill="#999999" stroke="#666666" points="1214,-382 1094,-382 1094,-352 1214,-352 1214,-382"/>
<text text-anchor="start" x="1102" y="-370" font-family="Helvetica,sans-Serif" font-size="10.00">firmware/wombat/src</text>
<text text-anchor="middle" x="1154" y="-359" font-family="Helvetica,sans-Serif" font-size="10.00">/main.cpp</text>
</a>
</g>
</g>
<!-- Node2 -->
<g id="node2" class="node">
<title>Node2</title>
<g id="a_node2"><a xlink:title=" ">
<polygon fill="#e0e0e0" stroke="#999999" points="659.5,-19 596.5,-19 596.5,0 659.5,0 659.5,-19"/>
<text text-anchor="middle" x="628" y="-7" font-family="Helvetica,sans-Serif" font-size="10.00">Arduino.h</text>
</a>
</g>
</g>
<!-- Node1&#45;&gt;Node2 -->
<g id="edge1" class="edge">
<title>Node1&#45;&gt;Node2</title>
<path fill="none" stroke="#63b8ff" d="M1093.75,-366.48C914.08,-367.36 390.87,-365.59 334,-316 244.98,-238.37 280.73,-112.32 384,-55 448.15,-19.4 534.99,-11.47 585.9,-10.16"/>
<polygon fill="#63b8ff" stroke="#63b8ff" points="586.27,-13.65 596.2,-9.97 586.14,-6.65 586.27,-13.65"/>
</g>
<!-- Node3 -->
<g id="node3" class="node">
<title>Node3</title>
<g id="a_node3"><a xlink:title=" ">
<polygon fill="#e0e0e0" stroke="#999999" points="1516.5,-316 1453.5,-316 1453.5,-297 1516.5,-297 1516.5,-316"/>
<text text-anchor="middle" x="1485" y="-304" font-family="Helvetica,sans-Serif" font-size="10.00">esp_log.h</text>
</a>
</g>
</g>
<!-- Node1&#45;&gt;Node3 -->
<g id="edge2" class="edge">
<title>Node1&#45;&gt;Node3</title>
<path fill="none" stroke="#63b8ff" d="M1214.08,-355.62C1271.77,-345.62 1361.38,-329.98 1439,-316 1440.45,-315.74 1441.92,-315.47 1443.41,-315.2"/>
<polygon fill="#63b8ff" stroke="#63b8ff" points="1444.12,-318.63 1453.33,-313.39 1442.87,-311.74 1444.12,-318.63"/>
</g>
<!-- Node4 -->
<g id="node4" class="node">
<title>Node4</title>
<g id="a_node4"><a xlink:title=" ">
<polygon fill="#e0e0e0" stroke="#999999" points="1383.5,-189.5 1270.5,-189.5 1270.5,-170.5 1383.5,-170.5 1383.5,-189.5"/>
<text text-anchor="middle" x="1327" y="-177.5" font-family="Helvetica,sans-Serif" font-size="10.00">freertos/FreeRTOS.h</text>
</a>
</g>
</g>
<!-- Node1&#45;&gt;Node4 -->
<g id="edge3" class="edge">
<title>Node1&#45;&gt;Node4</title>
<path fill="none" stroke="#63b8ff" d="M1205.64,-351.94C1257.5,-337.86 1339.72,-315.67 1411,-297 1473.57,-280.61 1512.32,-312.08 1552,-261 1560.18,-250.47 1560.34,-241.4 1552,-231 1550.61,-229.27 1442.53,-205.8 1376.69,-191.64"/>
<polygon fill="#63b8ff" stroke="#63b8ff" points="1377.42,-188.22 1366.91,-189.54 1375.95,-195.06 1377.42,-188.22"/>
</g>
<!-- Node5 -->
<g id="node5" class="node">
<title>Node5</title>
<g id="a_node5"><a xlink:href="_t_c_a9534_8h.html" target="_top" xlink:title=" ">
<polygon fill="white" stroke="#666666" points="411,-129 343,-129 343,-110 411,-110 411,-129"/>
<text text-anchor="middle" x="377" y="-117" font-family="Helvetica,sans-Serif" font-size="10.00">TCA9534.h</text>
</a>
</g>
</g>
<!-- Node1&#45;&gt;Node5 -->
<g id="edge4" class="edge">
<title>Node1&#45;&gt;Node5</title>
<path fill="none" stroke="#63b8ff" d="M1093.88,-364.48C911.66,-359.6 376.38,-343.01 351,-316 305.04,-267.09 333.46,-229.78 351,-165 353.66,-155.19 359.07,-145.33 364.28,-137.39"/>
<polygon fill="#63b8ff" stroke="#63b8ff" points="367.23,-139.27 370.11,-129.07 361.5,-135.25 367.23,-139.27"/>
</g>
<!-- Node7 -->
<g id="node7" class="node">
<title>Node7</title>
<g id="a_node7"><a xlink:title=" ">
<polygon fill="#e0e0e0" stroke="#999999" points="1619,-316 1535,-316 1535,-297 1619,-297 1619,-316"/>
<text text-anchor="middle" x="1577" y="-304" font-family="Helvetica,sans-Serif" font-size="10.00">driver/rtc_io.h</text>
</a>
</g>
</g>
<!-- Node1&#45;&gt;Node7 -->
<g id="edge7" class="edge">
<title>Node1&#45;&gt;Node7</title>
<path fill="none" stroke="#63b8ff" d="M1214,-358.53C1285.52,-349.49 1408.9,-333.47 1524.87,-316.13"/>
<polygon fill="#63b8ff" stroke="#63b8ff" points="1525.62,-319.56 1534.99,-314.61 1524.58,-312.63 1525.62,-319.56"/>
</g>
<!-- Node8 -->
<g id="node8" class="node">
<title>Node8</title>
<g id="a_node8"><a xlink:href="globals_8h.html" target="_top" xlink:title=" ">
<polygon fill="white" stroke="#666666" points="227.5,-255.5 166.5,-255.5 166.5,-236.5 227.5,-236.5 227.5,-255.5"/>
<text text-anchor="middle" x="197" y="-243.5" font-family="Helvetica,sans-Serif" font-size="10.00">globals.h</text>
</a>
</g>
</g>
<!-- Node1&#45;&gt;Node8 -->
<g id="edge8" class="edge">
<title>Node1&#45;&gt;Node8</title>
<path fill="none" stroke="#63b8ff" d="M1093.67,-365.83C902.03,-364.85 315.37,-358.39 242,-316 222.7,-304.85 210.22,-281.7 203.41,-265.3"/>
<polygon fill="#63b8ff" stroke="#63b8ff" points="206.58,-263.78 199.74,-255.68 200.04,-266.27 206.58,-263.78"/>
</g>
<!-- Node12 -->
<g id="node12" class="node">
<title>Node12</title>
<g id="a_node12"><a xlink:title=" ">
<polygon fill="#e0e0e0" stroke="#999999" points="266,-195 136,-195 136,-165 266,-165 266,-195"/>
<text text-anchor="start" x="144" y="-183" font-family="Helvetica,sans-Serif" font-size="10.00">SparkFun_u&#45;blox_SARA</text>
<text text-anchor="middle" x="201" y="-172" font-family="Helvetica,sans-Serif" font-size="10.00">&#45;R5_Arduino_Library.h</text>
</a>
</g>
</g>
<!-- Node1&#45;&gt;Node12 -->
<g id="edge90" class="edge">
<title>Node1&#45;&gt;Node12</title>
<path fill="none" stroke="#63b8ff" d="M1093.73,-365.97C907.21,-365.4 347.87,-360 280,-316 244.3,-292.86 258.02,-267.39 236,-231 230.38,-221.72 223.66,-211.86 217.61,-203.37"/>
<polygon fill="#63b8ff" stroke="#63b8ff" points="220.33,-201.15 211.63,-195.1 214.65,-205.26 220.33,-201.15"/>
</g>
<!-- Node14 -->
<g id="node14" class="node">
<title>Node14</title>
<g id="a_node14"><a xlink:href="_sensor_task_8h.html" target="_top" xlink:title=" ">
<polygon fill="white" stroke="#666666" points="440,-316 360,-316 360,-297 440,-297 440,-316"/>
<text text-anchor="middle" x="400" y="-304" font-family="Helvetica,sans-Serif" font-size="10.00">SensorTask.h</text>
</a>
</g>
</g>
<!-- Node1&#45;&gt;Node14 -->
<g id="edge19" class="edge">
<title>Node1&#45;&gt;Node14</title>
<path fill="none" stroke="#63b8ff" d="M1093.91,-363.43C972.64,-357.86 690.05,-342.96 454,-316 452.73,-315.85 451.44,-315.7 450.14,-315.54"/>
<polygon fill="#63b8ff" stroke="#63b8ff" points="450.43,-312.05 440.05,-314.19 449.5,-318.99 450.43,-312.05"/>
</g>
<!-- Node16 -->
<g id="node16" class="node">
<title>Node16</title>
<g id="a_node16"><a xlink:href="_device_config_8h.html" target="_top" xlink:title=" ">
<polygon fill="white" stroke="#666666" points="586,-189.5 496,-189.5 496,-170.5 586,-170.5 586,-189.5"/>
<text text-anchor="middle" x="541" y="-177.5" font-family="Helvetica,sans-Serif" font-size="10.00">DeviceConfig.h</text>
</a>
</g>
</g>
<!-- Node1&#45;&gt;Node16 -->
<g id="edge21" class="edge">
<title>Node1&#45;&gt;Node16</title>
<path fill="none" stroke="#63b8ff" d="M1093.79,-366.9C935.41,-367.85 513.4,-360.78 427,-261 400.79,-230.73 456.19,-206.15 498.59,-192.56"/>
<polygon fill="#63b8ff" stroke="#63b8ff" points="499.69,-195.88 508.21,-189.59 497.63,-189.19 499.69,-195.88"/>
</g>
<!-- Node17 -->
<g id="node17" class="node">
<title>Node17</title>
<g id="a_node17"><a xlink:href="_c_l_i_8h.html" target="_top" xlink:title=" ">
<polygon fill="white" stroke="#666666" points="1153.5,-316 1098.5,-316 1098.5,-297 1153.5,-297 1153.5,-316"/>
<text text-anchor="middle" x="1126" y="-304" font-family="Helvetica,sans-Serif" font-size="10.00">cli/CLI.h</text>
</a>
</g>
</g>
<!-- Node1&#45;&gt;Node17 -->
<g id="edge24" class="edge">
<title>Node1&#45;&gt;Node17</title>
<path fill="none" stroke="#63b8ff" d="M1147.22,-351.84C1143.41,-343.87 1138.61,-333.84 1134.54,-325.33"/>
<polygon fill="#63b8ff" stroke="#63b8ff" points="1137.67,-323.77 1130.2,-316.27 1131.36,-326.8 1137.67,-323.77"/>
</g>
<!-- Node35 -->
<g id="node35" class="node">
<title>Node35</title>
<g id="a_node35"><a xlink:href="tones_8h.html" target="_top" xlink:title="Audio control for the onboard piezo buzzer.">
<polygon fill="white" stroke="#666666" points="1636.5,-74 1505.5,-74 1505.5,-55 1636.5,-55 1636.5,-74"/>
<text text-anchor="middle" x="1571" y="-62" font-family="Helvetica,sans-Serif" font-size="10.00">audio&#45;feedback/tones.h</text>
</a>
</g>
</g>
<!-- Node1&#45;&gt;Node35 -->
<g id="edge88" class="edge">
<title>Node1&#45;&gt;Node35</title>
<path fill="none" stroke="#63b8ff" d="M1214.35,-355.18C1262.1,-346.14 1330.28,-332.15 1389,-316 1414.34,-309.03 1419.93,-304.89 1445,-297 1499.74,-279.78 1523.46,-295.92 1569,-261 1629.27,-214.78 1687.14,-175.68 1649,-110 1640.46,-95.29 1625.03,-85.04 1610.14,-78.11"/>
<polygon fill="#63b8ff" stroke="#63b8ff" points="1611.08,-74.71 1600.5,-74.03 1608.34,-81.15 1611.08,-74.71"/>
</g>
<!-- Node41 -->
<g id="node41" class="node">
<title>Node41</title>
<g id="a_node41"><a xlink:href="peripherals_8h.html" target="_top" xlink:title=" ">
<polygon fill="white" stroke="#666666" points="806,-255.5 726,-255.5 726,-236.5 806,-236.5 806,-255.5"/>
<text text-anchor="middle" x="766" y="-243.5" font-family="Helvetica,sans-Serif" font-size="10.00">peripherals.h</text>
</a>
</g>
</g>
<!-- Node1&#45;&gt;Node41 -->
<g id="edge85" class="edge">
<title>Node1&#45;&gt;Node41</title>
<path fill="none" stroke="#63b8ff" d="M1108.35,-352C1031.02,-328.28 875.7,-280.64 803.94,-258.64"/>
<polygon fill="#63b8ff" stroke="#63b8ff" points="804.56,-255.17 793.98,-255.58 802.51,-261.86 804.56,-255.17"/>
</g>
<!-- Node42 -->
<g id="node42" class="node">
<title>Node42</title>
<g id="a_node42"><a xlink:href="uplinks_8h.html" target="_top" xlink:title=" ">
<polygon fill="white" stroke="#666666" points="1698.5,-316 1637.5,-316 1637.5,-297 1698.5,-297 1698.5,-316"/>
<text text-anchor="middle" x="1668" y="-304" font-family="Helvetica,sans-Serif" font-size="10.00">uplinks.h</text>
</a>
</g>
</g>
<!-- Node1&#45;&gt;Node42 -->
<g id="edge89" class="edge">
<title>Node1&#45;&gt;Node42</title>
<path fill="none" stroke="#63b8ff" d="M1214.12,-361.68C1302.44,-354.89 1472.56,-340.11 1627.32,-315.93"/>
<polygon fill="#63b8ff" stroke="#63b8ff" points="1628.15,-319.34 1637.49,-314.33 1627.06,-312.43 1628.15,-319.34"/>
</g>
<!-- Node43 -->
<g id="node43" class="node">
<title>Node43</title>
<g id="a_node43"><a xlink:href="ulp_8h.html" target="_top" xlink:title=" ">
<polygon fill="white" stroke="#666666" points="1757.5,-316 1716.5,-316 1716.5,-297 1757.5,-297 1757.5,-316"/>
<text text-anchor="middle" x="1737" y="-304" font-family="Helvetica,sans-Serif" font-size="10.00">ulp.h</text>
</a>
</g>
</g>
<!-- Node1&#45;&gt;Node43 -->
<g id="edge91" class="edge">
<title>Node1&#45;&gt;Node43</title>
<path fill="none" stroke="#63b8ff" d="M1214.38,-364.4C1314.9,-360.9 1522.89,-350.07 1706.12,-316.02"/>
<polygon fill="#63b8ff" stroke="#63b8ff" points="1707.03,-319.41 1716.21,-314.12 1705.73,-312.54 1707.03,-319.41"/>
</g>
<!-- Node44 -->
<g id="node44" class="node">
<title>Node44</title>
<g id="a_node44"><a xlink:title=" ">
<polygon fill="#e0e0e0" stroke="#999999" points="1838,-316 1776,-316 1776,-297 1838,-297 1838,-316"/>
<text text-anchor="middle" x="1807" y="-304" font-family="Helvetica,sans-Serif" font-size="10.00">soc/soc.h</text>
</a>
</g>
</g>
<!-- Node1&#45;&gt;Node44 -->
<g id="edge92" class="edge">
<title>Node1&#45;&gt;Node44</title>
<path fill="none" stroke="#63b8ff" d="M1214.33,-363.64C1322.79,-358.85 1558,-345.9 1765.46,-316.04"/>
<polygon fill="#63b8ff" stroke="#63b8ff" points="1766.23,-319.47 1775.63,-314.56 1765.23,-312.54 1766.23,-319.47"/>
</g>
<!-- Node45 -->
<g id="node45" class="node">
<title>Node45</title>
<g id="a_node45"><a xlink:title=" ">
<polygon fill="#e0e0e0" stroke="#999999" points="1958,-316 1856,-316 1856,-297 1958,-297 1958,-316"/>
<text text-anchor="middle" x="1907" y="-304" font-family="Helvetica,sans-Serif" font-size="10.00">soc/rtc_cntl_reg.h</text>
</a>
</g>
</g>
<!-- Node1&#45;&gt;Node45 -->
<g id="edge93" class="edge">
<title>Node1&#45;&gt;Node45</title>
<path fill="none" stroke="#63b8ff" d="M1214.38,-363.04C1333.23,-356.92 1606.12,-341.34 1846.01,-316.03"/>
<polygon fill="#63b8ff" stroke="#63b8ff" points="1846.39,-319.51 1855.97,-314.97 1845.65,-312.55 1846.39,-319.51"/>
</g>
<!-- Node5&#45;&gt;Node2 -->
<g id="edge5" class="edge">
<title>Node5&#45;&gt;Node2</title>
<path fill="none" stroke="#63b8ff" d="M378,-109.56C380.05,-95.64 386.08,-68.93 403,-55 430.42,-32.43 528.89,-19.7 586.07,-14.07"/>
<polygon fill="#63b8ff" stroke="#63b8ff" points="586.61,-17.53 596.24,-13.09 585.95,-10.56 586.61,-17.53"/>
</g>
<!-- Node6 -->
<g id="node6" class="node">
<title>Node6</title>
<g id="a_node6"><a xlink:title=" ">
<polygon fill="#e0e0e0" stroke="#999999" points="460,-74 412,-74 412,-55 460,-55 460,-74"/>
<text text-anchor="middle" x="436" y="-62" font-family="Helvetica,sans-Serif" font-size="10.00">Wire.h</text>
</a>
</g>
</g>
<!-- Node5&#45;&gt;Node6 -->
<g id="edge6" class="edge">
<title>Node5&#45;&gt;Node6</title>
<path fill="none" stroke="#63b8ff" d="M386.48,-109.98C395.2,-102.15 408.34,-90.34 418.9,-80.86"/>
<polygon fill="#63b8ff" stroke="#63b8ff" points="421.25,-83.46 426.35,-74.17 416.57,-78.25 421.25,-83.46"/>
</g>
<!-- Node9 -->
<g id="node9" class="node">
<title>Node9</title>
<g id="a_node9"><a xlink:href="battery_8h.html" target="_top" xlink:title="Battery voltage and current monitoring using INA219 IC.">
<polygon fill="white" stroke="#666666" points="309.5,-74 158.5,-74 158.5,-55 309.5,-55 309.5,-74"/>
<text text-anchor="middle" x="234" y="-62" font-family="Helvetica,sans-Serif" font-size="10.00">power_monitoring/battery.h</text>
</a>
</g>
</g>
<!-- Node8&#45;&gt;Node9 -->
<g id="edge9" class="edge">
<title>Node8&#45;&gt;Node9</title>
<path fill="none" stroke="#63b8ff" d="M175.87,-236.47C159.23,-228.48 137.18,-214.79 127,-195 120.9,-183.14 121.67,-177.22 127,-165 143.86,-126.31 184,-95.88 210.04,-79.32"/>
<polygon fill="#63b8ff" stroke="#63b8ff" points="211.92,-82.27 218.6,-74.05 208.25,-76.31 211.92,-82.27"/>
</g>
<!-- Node11 -->
<g id="node11" class="node">
<title>Node11</title>
<g id="a_node11"><a xlink:href="solar_8h.html" target="_top" xlink:title="Solar voltage and current monitoring using INA219 IC.">
<polygon fill="white" stroke="#666666" points="140,-74 0,-74 0,-55 140,-55 140,-74"/>
<text text-anchor="middle" x="70" y="-62" font-family="Helvetica,sans-Serif" font-size="10.00">power_monitoring/solar.h</text>
</a>
</g>
</g>
<!-- Node8&#45;&gt;Node11 -->
<g id="edge12" class="edge">
<title>Node8&#45;&gt;Node11</title>
<path fill="none" stroke="#63b8ff" d="M176.46,-236.35C159.01,-228.06 134.4,-213.99 119,-195 91.85,-161.51 78.69,-111.37 73.24,-84.36"/>
<polygon fill="#63b8ff" stroke="#63b8ff" points="76.64,-83.5 71.36,-74.31 69.76,-84.79 76.64,-83.5"/>
</g>
<!-- Node8&#45;&gt;Node12 -->
<g id="edge15" class="edge">
<title>Node8&#45;&gt;Node12</title>
<path fill="none" stroke="#63b8ff" d="M197.54,-236.37C198.03,-228.49 198.78,-216.45 199.46,-205.6"/>
<polygon fill="#63b8ff" stroke="#63b8ff" points="202.97,-205.56 200.1,-195.36 195.99,-205.12 202.97,-205.56"/>
</g>
<!-- Node13 -->
<g id="node13" class="node">
<title>Node13</title>
<g id="a_node13"><a xlink:href="_c_a_t___m1_8h.html" target="_top" xlink:title=" ">
<polygon fill="white" stroke="#666666" points="425.5,-189.5 360.5,-189.5 360.5,-170.5 425.5,-170.5 425.5,-189.5"/>
<text text-anchor="middle" x="393" y="-177.5" font-family="Helvetica,sans-Serif" font-size="10.00">CAT_M1.h</text>
</a>
</g>
</g>
<!-- Node8&#45;&gt;Node13 -->
<g id="edge16" class="edge">
<title>Node8&#45;&gt;Node13</title>
<path fill="none" stroke="#63b8ff" d="M223.43,-236.37C257.87,-225.12 318.22,-205.42 356.87,-192.8"/>
<polygon fill="#63b8ff" stroke="#63b8ff" points="358.25,-196.03 366.67,-189.6 356.08,-189.37 358.25,-196.03"/>
</g>
<!-- Node9&#45;&gt;Node2 -->
<g id="edge10" class="edge">
<title>Node9&#45;&gt;Node2</title>
<path fill="none" stroke="#63b8ff" d="M297.3,-54.98C378.41,-44.07 516.77,-25.46 585.98,-16.15"/>
<polygon fill="#63b8ff" stroke="#63b8ff" points="586.63,-19.6 596.07,-14.8 585.69,-12.66 586.63,-19.6"/>
</g>
<!-- Node10 -->
<g id="node10" class="node">
<title>Node10</title>
<g id="a_node10"><a xlink:title=" ">
<polygon fill="#e0e0e0" stroke="#999999" points="204.5,-19 99.5,-19 99.5,0 204.5,0 204.5,-19"/>
<text text-anchor="middle" x="152" y="-7" font-family="Helvetica,sans-Serif" font-size="10.00">Adafruit_INA219.h</text>
</a>
</g>
</g>
<!-- Node9&#45;&gt;Node10 -->
<g id="edge11" class="edge">
<title>Node9&#45;&gt;Node10</title>
<path fill="none" stroke="#63b8ff" d="M220.83,-54.98C208.23,-46.84 189,-34.41 174.06,-24.76"/>
<polygon fill="#63b8ff" stroke="#63b8ff" points="175.71,-21.66 165.41,-19.17 171.91,-27.54 175.71,-21.66"/>
</g>
<!-- Node11&#45;&gt;Node2 -->
<g id="edge13" class="edge">
<title>Node11&#45;&gt;Node2</title>
<path fill="none" stroke="#63b8ff" d="M140.21,-55.89C143.18,-55.59 146.12,-55.29 149,-55 310.58,-38.8 503.03,-21.54 586.25,-14.17"/>
<polygon fill="#63b8ff" stroke="#63b8ff" points="586.66,-17.65 596.32,-13.28 586.05,-10.68 586.66,-17.65"/>
</g>
<!-- Node11&#45;&gt;Node10 -->
<g id="edge14" class="edge">
<title>Node11&#45;&gt;Node10</title>
<path fill="none" stroke="#63b8ff" d="M83.17,-54.98C95.77,-46.84 115,-34.41 129.94,-24.76"/>
<polygon fill="#63b8ff" stroke="#63b8ff" points="132.09,-27.54 138.59,-19.17 128.29,-21.66 132.09,-27.54"/>
</g>
<!-- Node13&#45;&gt;Node5 -->
<g id="edge18" class="edge">
<title>Node13&#45;&gt;Node5</title>
<path fill="none" stroke="#63b8ff" d="M390.64,-170.37C388.39,-162.16 384.94,-149.54 382.07,-139.05"/>
<polygon fill="#63b8ff" stroke="#63b8ff" points="385.38,-137.89 379.37,-129.17 378.63,-139.74 385.38,-137.89"/>
</g>
<!-- Node13&#45;&gt;Node6 -->
<g id="edge17" class="edge">
<title>Node13&#45;&gt;Node6</title>
<path fill="none" stroke="#63b8ff" d="M398.46,-170.46C404.47,-160.75 414.06,-144.26 420,-129 425.67,-114.41 429.87,-97.15 432.54,-84.31"/>
<polygon fill="#63b8ff" stroke="#63b8ff" points="436.01,-84.83 434.49,-74.34 429.14,-83.48 436.01,-84.83"/>
</g>
<!-- Node15 -->
<g id="node15" class="node">
<title>Node15</title>
<g id="a_node15"><a xlink:title=" ">
<polygon fill="#e0e0e0" stroke="#999999" points="556.5,-129 469.5,-129 469.5,-110 556.5,-110 556.5,-129"/>
<text text-anchor="middle" x="513" y="-117" font-family="Helvetica,sans-Serif" font-size="10.00">ArduinoJSON.h</text>
</a>
</g>
</g>
<!-- Node14&#45;&gt;Node15 -->
<g id="edge20" class="edge">
<title>Node14&#45;&gt;Node15</title>
<path fill="none" stroke="#63b8ff" d="M396.67,-296.77C391.72,-282.35 384.05,-252.99 394,-231 404,-208.91 417.12,-211.38 435,-195 456.64,-175.18 481.01,-151.72 496.66,-136.49"/>
<polygon fill="#63b8ff" stroke="#63b8ff" points="499.27,-138.83 503.99,-129.34 494.39,-133.82 499.27,-138.83"/>
</g>
<!-- Node16&#45;&gt;Node2 -->
<g id="edge22" class="edge">
<title>Node16&#45;&gt;Node2</title>
<path fill="none" stroke="#63b8ff" d="M545.43,-170.41C558.99,-144.17 600.06,-64.61 618.67,-28.58"/>
<polygon fill="#63b8ff" stroke="#63b8ff" points="621.99,-29.76 623.47,-19.27 615.77,-26.55 621.99,-29.76"/>
</g>
<!-- Node16&#45;&gt;Node15 -->
<g id="edge23" class="edge">
<title>Node16&#45;&gt;Node15</title>
<path fill="none" stroke="#63b8ff" d="M536.87,-170.37C532.86,-161.99 526.65,-149.01 521.56,-138.39"/>
<polygon fill="#63b8ff" stroke="#63b8ff" points="524.62,-136.68 517.15,-129.17 518.31,-139.7 524.62,-136.68"/>
</g>
<!-- Node17&#45;&gt;Node2 -->
<g id="edge25" class="edge">
<title>Node17&#45;&gt;Node2</title>
<path fill="none" stroke="#63b8ff" d="M1098.4,-304.22C1051.78,-301.26 955.16,-291.63 880,-261 831.54,-241.25 719.19,-168.61 685,-129 671.12,-112.92 647.29,-57.57 635.32,-28.56"/>
<polygon fill="#63b8ff" stroke="#63b8ff" points="638.51,-27.12 631.48,-19.19 632.03,-29.77 638.51,-27.12"/>
</g>
<!-- Node17&#45;&gt;Node4 -->
<g id="edge26" class="edge">
<title>Node17&#45;&gt;Node4</title>
<path fill="none" stroke="#63b8ff" d="M1153.66,-304.59C1241.45,-301.4 1509.51,-289.41 1535,-261 1543.9,-251.08 1543.25,-241.47 1535,-231 1532.48,-227.8 1435.42,-205.43 1374.79,-191.72"/>
<polygon fill="#63b8ff" stroke="#63b8ff" points="1375.55,-188.31 1365.03,-189.52 1374.01,-195.13 1375.55,-188.31"/>
</g>
<!-- Node18 -->
<g id="node18" class="node">
<title>Node18</title>
<g id="a_node18"><a xlink:title=" ">
<polygon fill="#e0e0e0" stroke="#999999" points="1062.5,-189.5 955.5,-189.5 955.5,-170.5 1062.5,-170.5 1062.5,-189.5"/>
<text text-anchor="middle" x="1009" y="-177.5" font-family="Helvetica,sans-Serif" font-size="10.00">cli/FreeRTOS_CLI.h</text>
</a>
</g>
</g>
<!-- Node17&#45;&gt;Node18 -->
<g id="edge27" class="edge">
<title>Node17&#45;&gt;Node18</title>
<path fill="none" stroke="#63b8ff" d="M1098.46,-304.52C1042.19,-301.87 917.09,-292.5 891,-261 865.02,-229.64 921.19,-205.54 964.64,-192.32"/>
<polygon fill="#63b8ff" stroke="#63b8ff" points="965.63,-195.68 974.24,-189.52 963.66,-188.97 965.63,-195.68"/>
</g>
<!-- Node19 -->
<g id="node19" class="node">
<title>Node19</title>
<g id="a_node19"><a xlink:href="cat-m1_8h.html" target="_top" xlink:title=" ">
<polygon fill="white" stroke="#666666" points="1192,-255.5 1060,-255.5 1060,-236.5 1192,-236.5 1192,-255.5"/>
<text text-anchor="middle" x="1126" y="-243.5" font-family="Helvetica,sans-Serif" font-size="10.00">cli/peripherals/cat&#45;m1.h</text>
</a>
</g>
</g>
<!-- Node17&#45;&gt;Node19 -->
<g id="edge28" class="edge">
<title>Node17&#45;&gt;Node19</title>
<path fill="none" stroke="#63b8ff" d="M1126,-296.87C1126,-288.75 1126,-276.31 1126,-265.89"/>
<polygon fill="#63b8ff" stroke="#63b8ff" points="1129.5,-265.67 1126,-255.67 1122.5,-265.67 1129.5,-265.67"/>
</g>
<!-- Node22 -->
<g id="node22" class="node">
<title>Node22</title>
<g id="a_node22"><a xlink:href="sdi12_8h.html" target="_top" xlink:title=" ">
<polygon fill="white" stroke="#666666" points="1024,-255.5 900,-255.5 900,-236.5 1024,-236.5 1024,-255.5"/>
<text text-anchor="middle" x="962" y="-243.5" font-family="Helvetica,sans-Serif" font-size="10.00">cli/peripherals/sdi12.h</text>
</a>
</g>
</g>
<!-- Node17&#45;&gt;Node22 -->
<g id="edge34" class="edge">
<title>Node17&#45;&gt;Node22</title>
<path fill="none" stroke="#63b8ff" d="M1102.15,-296.99C1074.1,-286.99 1027.33,-270.3 995.6,-258.99"/>
<polygon fill="#63b8ff" stroke="#63b8ff" points="996.47,-255.58 985.88,-255.52 994.12,-262.17 996.47,-255.58"/>
</g>
<!-- Node27 -->
<g id="node27" class="node">
<title>Node27</title>
<g id="a_node27"><a xlink:href="bluetooth_8h.html" target="_top" xlink:title=" ">
<polygon fill="white" stroke="#666666" points="1526,-255.5 1382,-255.5 1382,-236.5 1526,-236.5 1526,-255.5"/>
<text text-anchor="middle" x="1454" y="-243.5" font-family="Helvetica,sans-Serif" font-size="10.00">cli/peripherals/bluetooth.h</text>
</a>
</g>
</g>
<!-- Node17&#45;&gt;Node27 -->
<g id="edge45" class="edge">
<title>Node17&#45;&gt;Node27</title>
<path fill="none" stroke="#63b8ff" d="M1153.68,-300.56C1206.97,-291.06 1324.82,-270.04 1396.02,-257.34"/>
<polygon fill="#63b8ff" stroke="#63b8ff" points="1396.94,-260.73 1406.17,-255.53 1395.71,-253.84 1396.94,-260.73"/>
</g>
<!-- Node38 -->
<g id="node38" class="node">
<title>Node38</title>
<g id="a_node38"><a xlink:href="acquisition__intervals_8h.html" target="_top" xlink:title="Handles the time between measurements and uplinks by the device over LTE.">
<polygon fill="white" stroke="#666666" points="1364,-261 1210,-261 1210,-231 1364,-231 1364,-261"/>
<text text-anchor="start" x="1218" y="-249" font-family="Helvetica,sans-Serif" font-size="10.00">cli/device_config/acquisition</text>
<text text-anchor="middle" x="1287" y="-238" font-family="Helvetica,sans-Serif" font-size="10.00">_intervals.h</text>
</a>
</g>
</g>
<!-- Node17&#45;&gt;Node38 -->
<g id="edge75" class="edge">
<title>Node17&#45;&gt;Node38</title>
<path fill="none" stroke="#63b8ff" d="M1149.41,-296.99C1172.68,-288.54 1209.07,-275.32 1238.58,-264.59"/>
<polygon fill="#63b8ff" stroke="#63b8ff" points="1240.09,-267.77 1248.29,-261.06 1237.7,-261.19 1240.09,-267.77"/>
</g>
<!-- Node39 -->
<g id="node39" class="node">
<title>Node39</title>
<g id="a_node39"><a xlink:href="mqtt__cli_8h.html" target="_top" xlink:title=" ">
<polygon fill="white" stroke="#666666" points="560,-261 436,-261 436,-231 560,-231 560,-261"/>
<text text-anchor="start" x="444" y="-249" font-family="Helvetica,sans-Serif" font-size="10.00">cli/device_config/mqtt</text>
<text text-anchor="middle" x="498" y="-238" font-family="Helvetica,sans-Serif" font-size="10.00">_cli.h</text>
</a>
</g>
</g>
<!-- Node17&#45;&gt;Node39 -->
<g id="edge81" class="edge">
<title>Node17&#45;&gt;Node39</title>
<path fill="none" stroke="#63b8ff" d="M1098.35,-304.42C1018.23,-301.04 778.93,-289.28 570.49,-261.1"/>
<polygon fill="#63b8ff" stroke="#63b8ff" points="570.65,-257.59 560.27,-259.7 569.7,-264.52 570.65,-257.59"/>
</g>
<!-- Node40 -->
<g id="node40" class="node">
<title>Node40</title>
<g id="a_node40"><a xlink:href="config__cli_8h.html" target="_top" xlink:title=" ">
<polygon fill="white" stroke="#666666" points="708,-261 578,-261 578,-231 708,-231 708,-261"/>
<text text-anchor="start" x="586" y="-249" font-family="Helvetica,sans-Serif" font-size="10.00">cli/device_config/config</text>
<text text-anchor="middle" x="643" y="-238" font-family="Helvetica,sans-Serif" font-size="10.00">_cli.h</text>
</a>
</g>
</g>
<!-- Node17&#45;&gt;Node40 -->
<g id="edge83" class="edge">
<title>Node17&#45;&gt;Node40</title>
<path fill="none" stroke="#63b8ff" d="M1098.13,-303.23C1033.35,-297.79 867.39,-282.92 718.55,-261.16"/>
<polygon fill="#63b8ff" stroke="#63b8ff" points="718.73,-257.65 708.32,-259.65 717.7,-264.57 718.73,-257.65"/>
</g>
<!-- Node19&#45;&gt;Node4 -->
<g id="edge29" class="edge">
<title>Node19&#45;&gt;Node4</title>
<path fill="none" stroke="#63b8ff" d="M1153.11,-236.37C1188.57,-225.08 1250.84,-205.25 1290.45,-192.64"/>
<polygon fill="#63b8ff" stroke="#63b8ff" points="1291.53,-195.97 1300,-189.6 1289.41,-189.3 1291.53,-195.97"/>
</g>
<!-- Node19&#45;&gt;Node13 -->
<g id="edge33" class="edge">
<title>Node19&#45;&gt;Node13</title>
<path fill="none" stroke="#63b8ff" d="M1085.27,-236.47C1074.19,-234.41 1062.17,-232.39 1051,-231 801.76,-199.9 736.77,-221.52 487,-195 470.18,-193.21 451.75,-190.61 435.7,-188.14"/>
<polygon fill="#63b8ff" stroke="#63b8ff" points="435.96,-184.63 425.54,-186.54 434.87,-191.55 435.96,-184.63"/>
</g>
<!-- Node19&#45;&gt;Node18 -->
<g id="edge32" class="edge">
<title>Node19&#45;&gt;Node18</title>
<path fill="none" stroke="#63b8ff" d="M1110.22,-236.37C1090.59,-225.63 1056.86,-207.18 1033.77,-194.55"/>
<polygon fill="#63b8ff" stroke="#63b8ff" points="1035.36,-191.43 1024.9,-189.7 1032,-197.57 1035.36,-191.43"/>
</g>
<!-- Node20 -->
<g id="node20" class="node">
<title>Node20</title>
<g id="a_node20"><a xlink:title=" ">
<polygon fill="#e0e0e0" stroke="#999999" points="1145.5,-189.5 1084.5,-189.5 1084.5,-170.5 1145.5,-170.5 1145.5,-189.5"/>
<text text-anchor="middle" x="1115" y="-177.5" font-family="Helvetica,sans-Serif" font-size="10.00">Stream.h</text>
</a>
</g>
</g>
<!-- Node19&#45;&gt;Node20 -->
<g id="edge30" class="edge">
<title>Node19&#45;&gt;Node20</title>
<path fill="none" stroke="#63b8ff" d="M1124.52,-236.37C1122.92,-227.07 1120.32,-211.98 1118.25,-199.9"/>
<polygon fill="#63b8ff" stroke="#63b8ff" points="1121.67,-199.17 1116.53,-189.91 1114.78,-200.35 1121.67,-199.17"/>
</g>
<!-- Node21 -->
<g id="node21" class="node">
<title>Node21</title>
<g id="a_node21"><a xlink:title=" ">
<polygon fill="#e0e0e0" stroke="#999999" points="1252.5,-189.5 1163.5,-189.5 1163.5,-170.5 1252.5,-170.5 1252.5,-189.5"/>
<text text-anchor="middle" x="1208" y="-177.5" font-family="Helvetica,sans-Serif" font-size="10.00">StreamString.h</text>
</a>
</g>
</g>
<!-- Node19&#45;&gt;Node21 -->
<g id="edge31" class="edge">
<title>Node19&#45;&gt;Node21</title>
<path fill="none" stroke="#63b8ff" d="M1137.06,-236.37C1150.26,-226.06 1172.58,-208.65 1188.66,-196.09"/>
<polygon fill="#63b8ff" stroke="#63b8ff" points="1191.12,-198.61 1196.85,-189.7 1186.82,-193.09 1191.12,-198.61"/>
</g>
<!-- Node22&#45;&gt;Node4 -->
<g id="edge35" class="edge">
<title>Node22&#45;&gt;Node4</title>
<path fill="none" stroke="#63b8ff" d="M1015.11,-236.46C1088.12,-224.66 1215.71,-203.84 1262,-195 1267.46,-193.96 1273.16,-192.81 1278.82,-191.64"/>
<polygon fill="#63b8ff" stroke="#63b8ff" points="1279.85,-195 1288.91,-189.52 1278.4,-188.15 1279.85,-195"/>
</g>
<!-- Node22&#45;&gt;Node18 -->
<g id="edge40" class="edge">
<title>Node22&#45;&gt;Node18</title>
<path fill="none" stroke="#63b8ff" d="M968.34,-236.37C975.52,-226.59 987.39,-210.42 996.46,-198.08"/>
<polygon fill="#63b8ff" stroke="#63b8ff" points="999.36,-200.04 1002.46,-189.91 993.72,-195.89 999.36,-200.04"/>
</g>
<!-- Node22&#45;&gt;Node20 -->
<g id="edge36" class="edge">
<title>Node22&#45;&gt;Node20</title>
<path fill="none" stroke="#63b8ff" d="M982.63,-236.37C1008.87,-225.39 1054.38,-206.36 1084.59,-193.72"/>
<polygon fill="#63b8ff" stroke="#63b8ff" points="1086.33,-196.79 1094.2,-189.7 1083.63,-190.33 1086.33,-196.79"/>
</g>
<!-- Node22&#45;&gt;Node21 -->
<g id="edge37" class="edge">
<title>Node22&#45;&gt;Node21</title>
<path fill="none" stroke="#63b8ff" d="M995.14,-236.47C1033.6,-226.55 1098.91,-209.67 1155,-195 1158.57,-194.07 1162.28,-193.09 1165.99,-192.12"/>
<polygon fill="#63b8ff" stroke="#63b8ff" points="1167,-195.47 1175.77,-189.54 1165.21,-188.7 1167,-195.47"/>
</g>
<!-- Node22&#45;&gt;Node22 -->
<g id="edge38" class="edge">
<title>Node22&#45;&gt;Node22</title>
<path fill="none" stroke="#63b8ff" d="M991.54,-255.53C1016.22,-259.61 1042,-256.43 1042,-246 1042,-237 1022.78,-233.4 1001.65,-235.2"/>
<polygon fill="#63b8ff" stroke="#63b8ff" points="1001.03,-231.75 991.54,-236.47 1001.9,-238.7 1001.03,-231.75"/>
</g>
<!-- Node23 -->
<g id="node23" class="node">
<title>Node23</title>
<g id="a_node23"><a xlink:title=" ">
<polygon fill="#e0e0e0" stroke="#999999" points="962.5,-129 869.5,-129 869.5,-110 962.5,-110 962.5,-129"/>
<text text-anchor="middle" x="916" y="-117" font-family="Helvetica,sans-Serif" font-size="10.00">dpiclimate&#45;12.h</text>
</a>
</g>
</g>
<!-- Node22&#45;&gt;Node23 -->
<g id="edge39" class="edge">
<title>Node22&#45;&gt;Node23</title>
<path fill="none" stroke="#63b8ff" d="M958.84,-236.44C951.42,-216.36 932.76,-165.87 922.69,-138.62"/>
<polygon fill="#63b8ff" stroke="#63b8ff" points="925.93,-137.28 919.18,-129.12 919.37,-139.71 925.93,-137.28"/>
</g>
<!-- Node24 -->
<g id="node24" class="node">
<title>Node24</title>
<g id="a_node24"><a xlink:href="_utils_8h.html" target="_top" xlink:title=" ">
<polygon fill="white" stroke="#666666" points="865,-189.5 817,-189.5 817,-170.5 865,-170.5 865,-189.5"/>
<text text-anchor="middle" x="841" y="-177.5" font-family="Helvetica,sans-Serif" font-size="10.00">Utils.h</text>
</a>
</g>
</g>
<!-- Node22&#45;&gt;Node24 -->
<g id="edge41" class="edge">
<title>Node22&#45;&gt;Node24</title>
<path fill="none" stroke="#63b8ff" d="M945.68,-236.37C925.29,-225.59 890.19,-207.02 866.3,-194.38"/>
<polygon fill="#63b8ff" stroke="#63b8ff" points="867.92,-191.28 857.45,-189.7 864.65,-197.47 867.92,-191.28"/>
</g>
<!-- Node24&#45;&gt;Node23 -->
<g id="edge44" class="edge">
<title>Node24&#45;&gt;Node23</title>
<path fill="none" stroke="#63b8ff" d="M852.07,-170.37C863.81,-161.21 882.59,-146.56 896.76,-135.51"/>
<polygon fill="#63b8ff" stroke="#63b8ff" points="899.16,-138.08 904.89,-129.17 894.85,-132.56 899.16,-138.08"/>
</g>
<!-- Node25 -->
<g id="node25" class="node">
<title>Node25</title>
<g id="a_node25"><a xlink:title=" ">
<polygon fill="#e0e0e0" stroke="#999999" points="750,-129 694,-129 694,-110 750,-110 750,-129"/>
<text text-anchor="middle" x="722" y="-117" font-family="Helvetica,sans-Serif" font-size="10.00">stddef.h</text>
</a>
</g>
</g>
<!-- Node24&#45;&gt;Node25 -->
<g id="edge42" class="edge">
<title>Node24&#45;&gt;Node25</title>
<path fill="none" stroke="#63b8ff" d="M823.7,-170.49C803.95,-160.79 771.45,-144.81 748.51,-133.53"/>
<polygon fill="#63b8ff" stroke="#63b8ff" points="749.84,-130.29 739.32,-129.02 746.75,-136.57 749.84,-130.29"/>
</g>
<!-- Node26 -->
<g id="node26" class="node">
<title>Node26</title>
<g id="a_node26"><a xlink:title=" ">
<polygon fill="#e0e0e0" stroke="#999999" points="851.5,-129 768.5,-129 768.5,-110 851.5,-110 851.5,-129"/>
<text text-anchor="middle" x="810" y="-117" font-family="Helvetica,sans-Serif" font-size="10.00">ArduinoJson.h</text>
</a>
</g>
</g>
<!-- Node24&#45;&gt;Node26 -->
<g id="edge43" class="edge">
<title>Node24&#45;&gt;Node26</title>
<path fill="none" stroke="#63b8ff" d="M836.43,-170.37C831.94,-161.9 824.97,-148.74 819.31,-138.07"/>
<polygon fill="#63b8ff" stroke="#63b8ff" points="822.37,-136.36 814.59,-129.17 816.18,-139.64 822.37,-136.36"/>
</g>
<!-- Node27&#45;&gt;Node4 -->
<g id="edge46" class="edge">
<title>Node27&#45;&gt;Node4</title>
<path fill="none" stroke="#63b8ff" d="M1436.87,-236.37C1415.38,-225.54 1378.3,-206.85 1353.23,-194.22"/>
<polygon fill="#63b8ff" stroke="#63b8ff" points="1354.77,-191.07 1344.26,-189.7 1351.62,-197.32 1354.77,-191.07"/>
</g>
<!-- Node27&#45;&gt;Node20 -->
<g id="edge47" class="edge">
<title>Node27&#45;&gt;Node20</title>
<path fill="none" stroke="#63b8ff" d="M1404.75,-236.43C1394.27,-234.62 1383.27,-232.74 1373,-231 1276.17,-214.64 1250.14,-219.31 1155,-195 1152.35,-194.32 1149.63,-193.55 1146.91,-192.72"/>
<polygon fill="#63b8ff" stroke="#63b8ff" points="1147.81,-189.33 1137.22,-189.54 1145.63,-195.98 1147.81,-189.33"/>
</g>
<!-- Node27&#45;&gt;Node21 -->
<g id="edge48" class="edge">
<title>Node27&#45;&gt;Node21</title>
<path fill="none" stroke="#63b8ff" d="M1421.08,-236.44C1377.08,-224.99 1299.03,-204.68 1250.59,-192.08"/>
<polygon fill="#63b8ff" stroke="#63b8ff" points="1251.29,-188.64 1240.73,-189.51 1249.52,-195.42 1251.29,-188.64"/>
</g>
<!-- Node28 -->
<g id="node28" class="node">
<title>Node28</title>
<g id="a_node28"><a xlink:href="server_8h.html" target="_top" xlink:title="Handle the setup and maintenance of the BLE server and connected clients.">
<polygon fill="white" stroke="#666666" points="1506.5,-189.5 1401.5,-189.5 1401.5,-170.5 1506.5,-170.5 1506.5,-189.5"/>
<text text-anchor="middle" x="1454" y="-177.5" font-family="Helvetica,sans-Serif" font-size="10.00">bluetooth/server.h</text>
</a>
</g>
</g>
<!-- Node27&#45;&gt;Node28 -->
<g id="edge49" class="edge">
<title>Node27&#45;&gt;Node28</title>
<path fill="none" stroke="#63b8ff" d="M1454,-236.37C1454,-227.16 1454,-212.29 1454,-200.27"/>
<polygon fill="#63b8ff" stroke="#63b8ff" points="1457.5,-199.91 1454,-189.91 1450.5,-199.91 1457.5,-199.91"/>
</g>
<!-- Node28&#45;&gt;Node17 -->
<g id="edge74" class="edge">
<title>Node28&#45;&gt;Node17</title>
<path fill="none" stroke="#63b8ff" d="M1479.92,-189.52C1517.27,-203.09 1578.9,-231.14 1552,-261 1526.22,-289.62 1263.1,-301.06 1163.73,-304.39"/>
<polygon fill="#63b8ff" stroke="#63b8ff" points="1163.42,-300.89 1153.54,-304.72 1163.64,-307.89 1163.42,-300.89"/>
</g>
<!-- Node29 -->
<g id="node29" class="node">
<title>Node29</title>
<g id="a_node29"><a xlink:title=" ">
<polygon fill="#e0e0e0" stroke="#999999" points="1639.5,-129 1562.5,-129 1562.5,-110 1639.5,-110 1639.5,-129"/>
<text text-anchor="middle" x="1601" y="-117" font-family="Helvetica,sans-Serif" font-size="10.00">BLEDevice.h</text>
</a>
</g>
</g>
<!-- Node28&#45;&gt;Node29 -->
<g id="edge50" class="edge">
<title>Node28&#45;&gt;Node29</title>
<path fill="none" stroke="#63b8ff" d="M1475.38,-170.49C1500.31,-160.57 1541.72,-144.09 1570.14,-132.78"/>
<polygon fill="#63b8ff" stroke="#63b8ff" points="1571.6,-135.97 1579.6,-129.02 1569.01,-129.46 1571.6,-135.97"/>
</g>
<!-- Node30 -->
<g id="node30" class="node">
<title>Node30</title>
<g id="a_node30"><a xlink:title=" ">
<polygon fill="#e0e0e0" stroke="#999999" points="1449,-74 1375,-74 1375,-55 1449,-55 1449,-74"/>
<text text-anchor="middle" x="1412" y="-62" font-family="Helvetica,sans-Serif" font-size="10.00">BLEServer.h</text>
</a>
</g>
</g>
<!-- Node28&#45;&gt;Node30 -->
<g id="edge51" class="edge">
<title>Node28&#45;&gt;Node30</title>
<path fill="none" stroke="#63b8ff" d="M1450.84,-170.47C1444.06,-152.15 1427.98,-108.68 1418.78,-83.81"/>
<polygon fill="#63b8ff" stroke="#63b8ff" points="1421.95,-82.29 1415.19,-74.13 1415.38,-84.72 1421.95,-82.29"/>
</g>
<!-- Node31 -->
<g id="node31" class="node">
<title>Node31</title>
<g id="a_node31"><a xlink:title=" ">
<polygon fill="#e0e0e0" stroke="#999999" points="1267,-129 1201,-129 1201,-110 1267,-110 1267,-129"/>
<text text-anchor="middle" x="1234" y="-117" font-family="Helvetica,sans-Serif" font-size="10.00">BLEUtils.h</text>
</a>
</g>
</g>
<!-- Node28&#45;&gt;Node31 -->
<g id="edge52" class="edge">
<title>Node28&#45;&gt;Node31</title>
<path fill="none" stroke="#63b8ff" d="M1422.01,-170.49C1383.4,-160.23 1318.36,-142.93 1275.8,-131.62"/>
<polygon fill="#63b8ff" stroke="#63b8ff" points="1276.59,-128.2 1266.03,-129.02 1274.79,-134.97 1276.59,-128.2"/>
</g>
<!-- Node32 -->
<g id="node32" class="node">
<title>Node32</title>
<g id="a_node32"><a xlink:title=" ">
<polygon fill="#e0e0e0" stroke="#999999" points="1189,-74 1121,-74 1121,-55 1189,-55 1189,-74"/>
<text text-anchor="middle" x="1155" y="-62" font-family="Helvetica,sans-Serif" font-size="10.00">BLE2902.h</text>
</a>
</g>
</g>
<!-- Node28&#45;&gt;Node32 -->
<g id="edge53" class="edge">
<title>Node28&#45;&gt;Node32</title>
<path fill="none" stroke="#63b8ff" d="M1418.26,-170.49C1409.98,-168.61 1401.2,-166.67 1393,-165 1304.08,-146.84 1266.38,-181.01 1192,-129 1176.35,-118.06 1166.35,-98.2 1160.75,-83.6"/>
<polygon fill="#63b8ff" stroke="#63b8ff" points="1164.03,-82.38 1157.42,-74.1 1157.42,-84.69 1164.03,-82.38"/>
</g>
<!-- Node33 -->
<g id="node33" class="node">
<title>Node33</title>
<g id="a_node33"><a xlink:href="uart_8h.html" target="_top" xlink:title="BluetoothLE UART service setup and handling.">
<polygon fill="white" stroke="#666666" points="1544.5,-129 1449.5,-129 1449.5,-110 1544.5,-110 1544.5,-129"/>
<text text-anchor="middle" x="1497" y="-117" font-family="Helvetica,sans-Serif" font-size="10.00">bluetooth/uart.h</text>
</a>
</g>
</g>
<!-- Node28&#45;&gt;Node33 -->
<g id="edge54" class="edge">
<title>Node28&#45;&gt;Node33</title>
<path fill="none" stroke="#63b8ff" d="M1455.39,-170.37C1459.96,-161.55 1469.79,-147.66 1478.92,-136.77"/>
<polygon fill="#63b8ff" stroke="#63b8ff" points="1481.65,-138.97 1485.67,-129.17 1476.41,-134.32 1481.65,-138.97"/>
</g>
<!-- Node36 -->
<g id="node36" class="node">
<title>Node36</title>
<g id="a_node36"><a xlink:href="device_8h.html" target="_top" xlink:title="Bluetooth device services and device information.">
<polygon fill="white" stroke="#666666" points="1392.5,-129 1285.5,-129 1285.5,-110 1392.5,-110 1392.5,-129"/>
<text text-anchor="middle" x="1339" y="-117" font-family="Helvetica,sans-Serif" font-size="10.00">bluetooth/device.h</text>
</a>
</g>
</g>
<!-- Node28&#45;&gt;Node36 -->
<g id="edge62" class="edge">
<title>Node28&#45;&gt;Node36</title>
<path fill="none" stroke="#63b8ff" d="M1437.03,-170.37C1418.09,-160.73 1387.21,-145.03 1365.17,-133.81"/>
<polygon fill="#63b8ff" stroke="#63b8ff" points="1366.54,-130.58 1356.04,-129.17 1363.36,-136.82 1366.54,-130.58"/>
</g>
<!-- Node37 -->
<g id="node37" class="node">
<title>Node37</title>
<g id="a_node37"><a xlink:href="power__monitoring_8h.html" target="_top" xlink:title="Setup BluetoothLE power monitoring information.">
<polygon fill="white" stroke="#666666" points="1145,-129 981,-129 981,-110 1145,-110 1145,-129"/>
<text text-anchor="middle" x="1063" y="-117" font-family="Helvetica,sans-Serif" font-size="10.00">bluetooth/power_monitoring.h</text>
</a>
</g>
</g>
<!-- Node28&#45;&gt;Node37 -->
<g id="edge67" class="edge">
<title>Node28&#45;&gt;Node37</title>
<path fill="none" stroke="#63b8ff" d="M1419.27,-170.45C1410.72,-168.5 1401.55,-166.55 1393,-165 1311.58,-150.2 1218.03,-138.04 1151.38,-130.19"/>
<polygon fill="#63b8ff" stroke="#63b8ff" points="1151.67,-126.7 1141.33,-129.02 1150.85,-133.65 1151.67,-126.7"/>
</g>
<!-- Node33&#45;&gt;Node2 -->
<g id="edge55" class="edge">
<title>Node33&#45;&gt;Node2</title>
<path fill="none" stroke="#63b8ff" d="M1494.49,-109.61C1489.9,-95.25 1478.68,-67.31 1458,-55 1390.04,-14.56 829.87,-10.75 670.28,-10.49"/>
<polygon fill="#63b8ff" stroke="#63b8ff" points="669.93,-6.99 659.93,-10.47 669.92,-13.99 669.93,-6.99"/>
</g>
<!-- Node33&#45;&gt;Node28 -->
<g id="edge61" class="edge">
<title>Node33&#45;&gt;Node28</title>
<path fill="none" stroke="#63b8ff" d="M1495.59,-129.17C1491,-137.99 1481.17,-151.89 1472.04,-162.77"/>
<polygon fill="#63b8ff" stroke="#63b8ff" points="1469.32,-160.57 1465.3,-170.37 1474.56,-165.21 1469.32,-160.57"/>
</g>
<!-- Node33&#45;&gt;Node30 -->
<g id="edge57" class="edge">
<title>Node33&#45;&gt;Node30</title>
<path fill="none" stroke="#63b8ff" d="M1483.34,-109.98C1470.16,-101.77 1449.97,-89.18 1434.43,-79.49"/>
<polygon fill="#63b8ff" stroke="#63b8ff" points="1436.24,-76.49 1425.91,-74.17 1432.54,-82.43 1436.24,-76.49"/>
</g>
<!-- Node33&#45;&gt;Node32 -->
<g id="edge58" class="edge">
<title>Node33&#45;&gt;Node32</title>
<path fill="none" stroke="#63b8ff" d="M1449.42,-112.03C1390.51,-103.88 1287.17,-89.09 1199,-74 1198.9,-73.98 1198.8,-73.97 1198.7,-73.95"/>
<polygon fill="#63b8ff" stroke="#63b8ff" points="1199.54,-70.54 1189.08,-72.23 1198.31,-77.43 1199.54,-70.54"/>
</g>
<!-- Node34 -->
<g id="node34" class="node">
<title>Node34</title>
<g id="a_node34"><a xlink:title=" ">
<polygon fill="#e0e0e0" stroke="#999999" points="1318.5,-74 1207.5,-74 1207.5,-55 1318.5,-55 1318.5,-74"/>
<text text-anchor="middle" x="1263" y="-62" font-family="Helvetica,sans-Serif" font-size="10.00">BLECharacteristic.h</text>
</a>
</g>
</g>
<!-- Node33&#45;&gt;Node34 -->
<g id="edge56" class="edge">
<title>Node33&#45;&gt;Node34</title>
<path fill="none" stroke="#63b8ff" d="M1459.4,-109.98C1419.01,-100.84 1354.72,-86.27 1310.77,-76.32"/>
<polygon fill="#63b8ff" stroke="#63b8ff" points="1311.42,-72.88 1300.89,-74.08 1309.87,-79.7 1311.42,-72.88"/>
</g>
<!-- Node33&#45;&gt;Node35 -->
<g id="edge59" class="edge">
<title>Node33&#45;&gt;Node35</title>
<path fill="none" stroke="#63b8ff" d="M1508.89,-109.98C1520.15,-101.92 1537.29,-89.65 1550.71,-80.03"/>
<polygon fill="#63b8ff" stroke="#63b8ff" points="1552.8,-82.84 1558.89,-74.17 1548.73,-77.15 1552.8,-82.84"/>
</g>
<!-- Node35&#45;&gt;Node2 -->
<g id="edge60" class="edge">
<title>Node35&#45;&gt;Node2</title>
<path fill="none" stroke="#63b8ff" d="M1505.11,-56.21C1500.33,-55.77 1495.59,-55.36 1491,-55 1176.01,-30.16 795.19,-16.07 670.06,-11.86"/>
<polygon fill="#63b8ff" stroke="#63b8ff" points="669.89,-8.35 659.78,-11.51 669.66,-15.35 669.89,-8.35"/>
</g>
<!-- Node36&#45;&gt;Node2 -->
<g id="edge63" class="edge">
<title>Node36&#45;&gt;Node2</title>
<path fill="none" stroke="#63b8ff" d="M1340.46,-109.97C1342.28,-96.12 1343.49,-68.9 1328,-55 1278.98,-11.01 812.92,-9.59 669.67,-10.21"/>
<polygon fill="#63b8ff" stroke="#63b8ff" points="669.52,-6.71 659.54,-10.26 669.56,-13.71 669.52,-6.71"/>
</g>
<!-- Node36&#45;&gt;Node30 -->
<g id="edge65" class="edge">
<title>Node36&#45;&gt;Node30</title>
<path fill="none" stroke="#63b8ff" d="M1350.73,-109.98C1361.73,-102 1378.42,-89.88 1391.6,-80.31"/>
<polygon fill="#63b8ff" stroke="#63b8ff" points="1394.02,-82.88 1400.06,-74.17 1389.91,-77.21 1394.02,-82.88"/>
</g>
<!-- Node36&#45;&gt;Node32 -->
<g id="edge66" class="edge">
<title>Node36&#45;&gt;Node32</title>
<path fill="none" stroke="#63b8ff" d="M1309.44,-109.98C1278.28,-101.01 1229.03,-86.82 1194.54,-76.89"/>
<polygon fill="#63b8ff" stroke="#63b8ff" points="1195.37,-73.49 1184.79,-74.08 1193.43,-80.21 1195.37,-73.49"/>
</g>
<!-- Node36&#45;&gt;Node34 -->
<g id="edge64" class="edge">
<title>Node36&#45;&gt;Node34</title>
<path fill="none" stroke="#63b8ff" d="M1326.79,-109.98C1315.22,-101.92 1297.62,-89.65 1283.84,-80.03"/>
<polygon fill="#63b8ff" stroke="#63b8ff" points="1285.64,-77.02 1275.43,-74.17 1281.63,-82.76 1285.64,-77.02"/>
</g>
<!-- Node37&#45;&gt;Node2 -->
<g id="edge68" class="edge">
<title>Node37&#45;&gt;Node2</title>
<path fill="none" stroke="#63b8ff" d="M1028.5,-109.94C949.33,-90.28 754.85,-41.99 669.41,-20.78"/>
<polygon fill="#63b8ff" stroke="#63b8ff" points="670.09,-17.34 659.54,-18.33 668.4,-24.14 670.09,-17.34"/>
</g>
<!-- Node37&#45;&gt;Node9 -->
<g id="edge73" class="edge">
<title>Node37&#45;&gt;Node9</title>
<path fill="none" stroke="#63b8ff" d="M980.67,-110.69C977.74,-110.45 974.85,-110.22 972,-110 736.18,-91.88 457.49,-76.79 319.82,-69.76"/>
<polygon fill="#63b8ff" stroke="#63b8ff" points="319.92,-66.26 309.75,-69.24 319.56,-73.25 319.92,-66.26"/>
</g>
<!-- Node37&#45;&gt;Node11 -->
<g id="edge72" class="edge">
<title>Node37&#45;&gt;Node11</title>
<path fill="none" stroke="#63b8ff" d="M980.67,-110.63C977.75,-110.41 974.85,-110.2 972,-110 610.03,-85.19 515.78,-101.3 150.25,-74.04"/>
<polygon fill="#63b8ff" stroke="#63b8ff" points="150.42,-70.55 140.19,-73.29 149.9,-77.53 150.42,-70.55"/>
</g>
<!-- Node37&#45;&gt;Node30 -->
<g id="edge70" class="edge">
<title>Node37&#45;&gt;Node30</title>
<path fill="none" stroke="#63b8ff" d="M1119.07,-109.98C1187.15,-99.65 1300.77,-82.39 1364.65,-72.69"/>
<polygon fill="#63b8ff" stroke="#63b8ff" points="1365.48,-76.1 1374.84,-71.14 1364.43,-69.18 1365.48,-76.1"/>
</g>
<!-- Node37&#45;&gt;Node32 -->
<g id="edge71" class="edge">
<title>Node37&#45;&gt;Node32</title>
<path fill="none" stroke="#63b8ff" d="M1077.78,-109.98C1092.18,-101.69 1114.31,-88.94 1131.19,-79.22"/>
<polygon fill="#63b8ff" stroke="#63b8ff" points="1133.03,-82.19 1139.95,-74.17 1129.54,-76.13 1133.03,-82.19"/>
</g>
<!-- Node37&#45;&gt;Node34 -->
<g id="edge69" class="edge">
<title>Node37&#45;&gt;Node34</title>
<path fill="none" stroke="#63b8ff" d="M1095.13,-109.98C1129.15,-100.97 1183,-86.7 1220.5,-76.76"/>
<polygon fill="#63b8ff" stroke="#63b8ff" points="1221.84,-80.03 1230.61,-74.08 1220.05,-73.26 1221.84,-80.03"/>
</g>
<!-- Node38&#45;&gt;Node4 -->
<g id="edge76" class="edge">
<title>Node38&#45;&gt;Node4</title>
<path fill="none" stroke="#63b8ff" d="M1295.88,-230.8C1301.81,-221.31 1309.65,-208.76 1315.98,-198.63"/>
<polygon fill="#63b8ff" stroke="#63b8ff" points="1319.14,-200.18 1321.47,-189.84 1313.2,-196.47 1319.14,-200.18"/>
</g>
<!-- Node38&#45;&gt;Node16 -->
<g id="edge80" class="edge">
<title>Node38&#45;&gt;Node16</title>
<path fill="none" stroke="#63b8ff" d="M1209.69,-232.09C1206.76,-231.71 1203.85,-231.34 1201,-231 977.76,-204.42 710.26,-189.27 596.54,-183.6"/>
<polygon fill="#63b8ff" stroke="#63b8ff" points="596.5,-180.09 586.34,-183.09 596.16,-187.08 596.5,-180.09"/>
</g>
<!-- Node38&#45;&gt;Node18 -->
<g id="edge79" class="edge">
<title>Node38&#45;&gt;Node18</title>
<path fill="none" stroke="#63b8ff" d="M1225.99,-230.95C1174.77,-219.16 1102.65,-202.56 1055.87,-191.79"/>
<polygon fill="#63b8ff" stroke="#63b8ff" points="1056.53,-188.35 1046,-189.52 1054.96,-195.17 1056.53,-188.35"/>
</g>
<!-- Node38&#45;&gt;Node20 -->
<g id="edge77" class="edge">
<title>Node38&#45;&gt;Node20</title>
<path fill="none" stroke="#63b8ff" d="M1249.25,-230.95C1218.82,-219.63 1176.48,-203.88 1147.53,-193.1"/>
<polygon fill="#63b8ff" stroke="#63b8ff" points="1148.48,-189.72 1137.89,-189.52 1146.04,-196.28 1148.48,-189.72"/>
</g>
<!-- Node38&#45;&gt;Node21 -->
<g id="edge78" class="edge">
<title>Node38&#45;&gt;Node21</title>
<path fill="none" stroke="#63b8ff" d="M1269.47,-230.8C1256.79,-220.53 1239.68,-206.67 1226.74,-196.18"/>
<polygon fill="#63b8ff" stroke="#63b8ff" points="1228.89,-193.42 1218.92,-189.84 1224.48,-198.86 1228.89,-193.42"/>
</g>
<!-- Node39&#45;&gt;Node16 -->
<g id="edge82" class="edge">
<title>Node39&#45;&gt;Node16</title>
<path fill="none" stroke="#63b8ff" d="M507.54,-230.8C513.98,-221.21 522.52,-208.5 529.36,-198.32"/>
<polygon fill="#63b8ff" stroke="#63b8ff" points="532.39,-200.1 535.06,-189.84 526.58,-196.19 532.39,-200.1"/>
</g>
<!-- Node40&#45;&gt;Node16 -->
<g id="edge84" class="edge">
<title>Node40&#45;&gt;Node16</title>
<path fill="none" stroke="#63b8ff" d="M620.62,-230.95C603.59,-220.27 580.29,-205.65 563.29,-194.98"/>
<polygon fill="#63b8ff" stroke="#63b8ff" points="564.91,-191.87 554.57,-189.52 561.18,-197.8 564.91,-191.87"/>
</g>
<!-- Node41&#45;&gt;Node2 -->
<g id="edge86" class="edge">
<title>Node41&#45;&gt;Node2</title>
<path fill="none" stroke="#63b8ff" d="M753.6,-236.45C729.65,-219.19 677.15,-177.66 652,-129 635.27,-96.63 630.19,-53.67 628.66,-29.37"/>
<polygon fill="#63b8ff" stroke="#63b8ff" points="632.14,-28.88 628.15,-19.07 625.15,-29.22 632.14,-28.88"/>
</g>
<!-- Node41&#45;&gt;Node4 -->
<g id="edge87" class="edge">
<title>Node41&#45;&gt;Node4</title>
<path fill="none" stroke="#63b8ff" d="M806.23,-240.34C830.73,-237.54 862.66,-233.96 891,-231 1055.77,-213.78 1098.31,-220.48 1262,-195 1268.21,-194.03 1274.72,-192.84 1281.13,-191.57"/>
<polygon fill="#63b8ff" stroke="#63b8ff" points="1281.95,-194.97 1291.04,-189.52 1280.54,-188.12 1281.95,-194.97"/>
</g>
</g>
</svg>
