<?xml version="1.0" encoding="UTF-8" standalone="no"?>
<!DOCTYPE svg PUBLIC "-//W3C//DTD SVG 1.1//EN"
 "http://www.w3.org/Graphics/SVG/1.1/DTD/svg11.dtd">
<!-- Generated by graphviz version 2.43.0 (0)
 -->
<!-- Title: firmware/wombat/src/cli/device_config/mqtt_cli.cpp Pages: 1 -->
<svg width="673pt" height="225pt"
 viewBox="0.00 0.00 672.50 225.00" xmlns="http://www.w3.org/2000/svg" xmlns:xlink="http://www.w3.org/1999/xlink">
<g id="graph0" class="graph" transform="scale(1 1) rotate(0) translate(4 221)">
<title>firmware/wombat/src/cli/device_config/mqtt_cli.cpp</title>
<!-- Node1 -->
<g id="node1" class="node">
<title>Node1</title>
<g id="a_node1"><a xlink:title="MQTT setup and configuration through the CLI.">
<polygon fill="#999999" stroke="#666666" points="376,-217 249,-217 249,-176 376,-176 376,-217"/>
<text text-anchor="start" x="257" y="-205" font-family="Helvetica,sans-Serif" font-size="10.00">firmware/wombat/src</text>
<text text-anchor="start" x="257" y="-194" font-family="Helvetica,sans-Serif" font-size="10.00">/cli/device_config/mqtt</text>
<text text-anchor="middle" x="312.5" y="-183" font-family="Helvetica,sans-Serif" font-size="10.00">_cli.cpp</text>
</a>
</g>
</g>
<!-- Node2 -->
<g id="node2" class="node">
<title>Node2</title>
<g id="a_node2"><a xlink:title=" ">
<polygon fill="#e0e0e0" stroke="#999999" points="113,-134.5 0,-134.5 0,-115.5 113,-115.5 113,-134.5"/>
<text text-anchor="middle" x="56.5" y="-122.5" font-family="Helvetica,sans-Serif" font-size="10.00">freertos/FreeRTOS.h</text>
</a>
</g>
</g>
<!-- Node1&#45;&gt;Node2 -->
<g id="edge1" class="edge">
<title>Node1&#45;&gt;Node2</title>
<path fill="none" stroke="#63b8ff" d="M248.89,-178.23C201.66,-165.41 138.61,-148.29 97.78,-137.21"/>
<polygon fill="#63b8ff" stroke="#63b8ff" points="98.47,-133.77 87.9,-134.52 96.63,-140.52 98.47,-133.77"/>
</g>
<!-- Node3 -->
<g id="node3" class="node">
<title>Node3</title>
<g id="a_node3"><a xlink:title=" ">
<polygon fill="#e0e0e0" stroke="#999999" points="192,-134.5 131,-134.5 131,-115.5 192,-115.5 192,-134.5"/>
<text text-anchor="middle" x="161.5" y="-122.5" font-family="Helvetica,sans-Serif" font-size="10.00">Stream.h</text>
</a>
</g>
</g>
<!-- Node1&#45;&gt;Node3 -->
<g id="edge2" class="edge">
<title>Node1&#45;&gt;Node3</title>
<path fill="none" stroke="#63b8ff" d="M270.04,-175.96C244.2,-164.06 211.94,-149.21 189.33,-138.81"/>
<polygon fill="#63b8ff" stroke="#63b8ff" points="190.52,-135.51 179.98,-134.5 187.6,-141.86 190.52,-135.51"/>
</g>
<!-- Node4 -->
<g id="node4" class="node">
<title>Node4</title>
<g id="a_node4"><a xlink:title=" ">
<polygon fill="#e0e0e0" stroke="#999999" points="299,-134.5 210,-134.5 210,-115.5 299,-115.5 299,-134.5"/>
<text text-anchor="middle" x="254.5" y="-122.5" font-family="Helvetica,sans-Serif" font-size="10.00">StreamString.h</text>
</a>
</g>
</g>
<!-- Node1&#45;&gt;Node4 -->
<g id="edge3" class="edge">
<title>Node1&#45;&gt;Node4</title>
<path fill="none" stroke="#63b8ff" d="M296.03,-175.77C287.33,-165.34 276.76,-152.68 268.46,-142.73"/>
<polygon fill="#63b8ff" stroke="#63b8ff" points="270.95,-140.25 261.86,-134.82 265.58,-144.74 270.95,-140.25"/>
</g>
<!-- Node5 -->
<g id="node5" class="node">
<title>Node5</title>
<g id="a_node5"><a xlink:title=" ">
<polygon fill="#e0e0e0" stroke="#999999" points="424,-134.5 317,-134.5 317,-115.5 424,-115.5 424,-134.5"/>
<text text-anchor="middle" x="370.5" y="-122.5" font-family="Helvetica,sans-Serif" font-size="10.00">cli/FreeRTOS_CLI.h</text>
</a>
</g>
</g>
<!-- Node1&#45;&gt;Node5 -->
<g id="edge4" class="edge">
<title>Node1&#45;&gt;Node5</title>
<path fill="none" stroke="#63b8ff" d="M328.97,-175.77C337.67,-165.34 348.24,-152.68 356.54,-142.73"/>
<polygon fill="#63b8ff" stroke="#63b8ff" points="359.42,-144.74 363.14,-134.82 354.05,-140.25 359.42,-144.74"/>
</g>
<!-- Node6 -->
<g id="node6" class="node">
<title>Node6</title>
<g id="a_node6"><a xlink:href="mqtt__cli_8h.html" target="_top" xlink:title="MQTT setup and configuration through the CLI.">
<polygon fill="white" stroke="#666666" points="566.5,-140 442.5,-140 442.5,-110 566.5,-110 566.5,-140"/>
<text text-anchor="start" x="450.5" y="-128" font-family="Helvetica,sans-Serif" font-size="10.00">cli/device_config/mqtt</text>
<text text-anchor="middle" x="504.5" y="-117" font-family="Helvetica,sans-Serif" font-size="10.00">_cli.h</text>
</a>
</g>
</g>
<!-- Node1&#45;&gt;Node6 -->
<g id="edge5" class="edge">
<title>Node1&#45;&gt;Node6</title>
<path fill="none" stroke="#63b8ff" d="M366.49,-175.96C394.65,-165.76 428.8,-153.4 456.09,-143.52"/>
<polygon fill="#63b8ff" stroke="#63b8ff" points="457.6,-146.7 465.81,-140 455.22,-140.12 457.6,-146.7"/>
</g>
<!-- Node10 -->
<g id="node10" class="node">
<title>Node10</title>
<g id="a_node10"><a xlink:href="mqtt__stack_8h.html" target="_top" xlink:title=" ">
<polygon fill="white" stroke="#666666" points="664.5,-134.5 584.5,-134.5 584.5,-115.5 664.5,-115.5 664.5,-134.5"/>
<text text-anchor="middle" x="624.5" y="-122.5" font-family="Helvetica,sans-Serif" font-size="10.00">mqtt_stack.h</text>
</a>
</g>
</g>
<!-- Node1&#45;&gt;Node10 -->
<g id="edge9" class="edge">
<title>Node1&#45;&gt;Node10</title>
<path fill="none" stroke="#63b8ff" d="M376.02,-183.4C429.47,-172.9 507.79,-156.8 575.5,-140 578.91,-139.15 582.44,-138.23 585.97,-137.28"/>
<polygon fill="#63b8ff" stroke="#63b8ff" points="587.13,-140.6 595.83,-134.56 585.26,-133.85 587.13,-140.6"/>
</g>
<!-- Node7 -->
<g id="node7" class="node">
<title>Node7</title>
<g id="a_node7"><a xlink:href="_device_config_8h.html" target="_top" xlink:title="Node configuration options.">
<polygon fill="white" stroke="#666666" points="549.5,-74 459.5,-74 459.5,-55 549.5,-55 549.5,-74"/>
<text text-anchor="middle" x="504.5" y="-62" font-family="Helvetica,sans-Serif" font-size="10.00">DeviceConfig.h</text>
</a>
</g>
</g>
<!-- Node6&#45;&gt;Node7 -->
<g id="edge6" class="edge">
<title>Node6&#45;&gt;Node7</title>
<path fill="none" stroke="#63b8ff" d="M504.5,-109.84C504.5,-102.21 504.5,-92.7 504.5,-84.45"/>
<polygon fill="#63b8ff" stroke="#63b8ff" points="508,-84.27 504.5,-74.27 501,-84.27 508,-84.27"/>
</g>
<!-- Node8 -->
<g id="node8" class="node">
<title>Node8</title>
<g id="a_node8"><a xlink:title=" ">
<polygon fill="#e0e0e0" stroke="#999999" points="491,-19 428,-19 428,0 491,0 491,-19"/>
<text text-anchor="middle" x="459.5" y="-7" font-family="Helvetica,sans-Serif" font-size="10.00">Arduino.h</text>
</a>
</g>
</g>
<!-- Node7&#45;&gt;Node8 -->
<g id="edge7" class="edge">
<title>Node7&#45;&gt;Node8</title>
<path fill="none" stroke="#63b8ff" d="M497.07,-54.75C490.65,-47.18 481.19,-36.05 473.38,-26.84"/>
<polygon fill="#63b8ff" stroke="#63b8ff" points="475.93,-24.45 466.79,-19.09 470.6,-28.98 475.93,-24.45"/>
</g>
<!-- Node9 -->
<g id="node9" class="node">
<title>Node9</title>
<g id="a_node9"><a xlink:title=" ">
<polygon fill="#e0e0e0" stroke="#999999" points="592,-19 509,-19 509,0 592,0 592,-19"/>
<text text-anchor="middle" x="550.5" y="-7" font-family="Helvetica,sans-Serif" font-size="10.00">ArduinoJson.h</text>
</a>
</g>
</g>
<!-- Node7&#45;&gt;Node9 -->
<g id="edge8" class="edge">
<title>Node7&#45;&gt;Node9</title>
<path fill="none" stroke="#63b8ff" d="M512.1,-54.75C518.66,-47.18 528.32,-36.05 536.31,-26.84"/>
<polygon fill="#63b8ff" stroke="#63b8ff" points="539.13,-28.94 543.05,-19.09 533.85,-24.35 539.13,-28.94"/>
</g>
</g>
</svg>
