<?xml version="1.0" encoding="UTF-8" standalone="no"?>
<!DOCTYPE svg PUBLIC "-//W3C//DTD SVG 1.1//EN"
 "http://www.w3.org/Graphics/SVG/1.1/DTD/svg11.dtd">
<!-- Generated by graphviz version 2.43.0 (0)
 -->
<!-- Title: firmware/wombat/src/cli/device_config/mqtt_cli.cpp Pages: 1 -->
<svg width="992pt" height="346pt"
 viewBox="0.00 0.00 991.50 346.00" xmlns="http://www.w3.org/2000/svg" xmlns:xlink="http://www.w3.org/1999/xlink">
<g id="graph0" class="graph" transform="scale(1 1) rotate(0) translate(4 342)">
<title>firmware/wombat/src/cli/device_config/mqtt_cli.cpp</title>
<!-- Node1 -->
<g id="node1" class="node">
<title>Node1</title>
<g id="a_node1"><a xlink:title="MQTT setup and configuration through the CLI.">
<polygon fill="#999999" stroke="#666666" points="656,-338 529,-338 529,-297 656,-297 656,-338"/>
<text text-anchor="start" x="537" y="-326" font-family="Helvetica,sans-Serif" font-size="10.00">firmware/wombat/src</text>
<text text-anchor="start" x="537" y="-315" font-family="Helvetica,sans-Serif" font-size="10.00">/cli/device_config/mqtt</text>
<text text-anchor="middle" x="592.5" y="-304" font-family="Helvetica,sans-Serif" font-size="10.00">_cli.cpp</text>
</a>
</g>
</g>
<!-- Node2 -->
<g id="node2" class="node">
<title>Node2</title>
<g id="a_node2"><a xlink:title=" ">
<polygon fill="#e0e0e0" stroke="#999999" points="113,-134.5 0,-134.5 0,-115.5 113,-115.5 113,-134.5"/>
<text text-anchor="middle" x="56.5" y="-122.5" font-family="Helvetica,sans-Serif" font-size="10.00">freertos/FreeRTOS.h</text>
</a>
</g>
</g>
<!-- Node1&#45;&gt;Node2 -->
<g id="edge1" class="edge">
<title>Node1&#45;&gt;Node2</title>
<path fill="none" stroke="#63b8ff" d="M528.89,-312.37C463.73,-306.53 360.36,-292.77 276.5,-261 195.76,-230.41 111.94,-169.4 75.4,-141.08"/>
<polygon fill="#63b8ff" stroke="#63b8ff" points="77.2,-138.04 67.17,-134.63 72.88,-143.55 77.2,-138.04"/>
</g>
<!-- Node3 -->
<g id="node3" class="node">
<title>Node3</title>
<g id="a_node3"><a xlink:title=" ">
<polygon fill="#e0e0e0" stroke="#999999" points="192,-134.5 131,-134.5 131,-115.5 192,-115.5 192,-134.5"/>
<text text-anchor="middle" x="161.5" y="-122.5" font-family="Helvetica,sans-Serif" font-size="10.00">Stream.h</text>
</a>
</g>
</g>
<!-- Node1&#45;&gt;Node3 -->
<g id="edge2" class="edge">
<title>Node1&#45;&gt;Node3</title>
<path fill="none" stroke="#63b8ff" d="M528.73,-311.2C474.21,-304.77 394.78,-290.82 331.5,-261 266.65,-230.44 204.31,-170.76 176.56,-142.11"/>
<polygon fill="#63b8ff" stroke="#63b8ff" points="178.82,-139.4 169.38,-134.59 173.75,-144.24 178.82,-139.4"/>
</g>
<!-- Node4 -->
<g id="node4" class="node">
<title>Node4</title>
<g id="a_node4"><a xlink:title=" ">
<polygon fill="#e0e0e0" stroke="#999999" points="299,-134.5 210,-134.5 210,-115.5 299,-115.5 299,-134.5"/>
<text text-anchor="middle" x="254.5" y="-122.5" font-family="Helvetica,sans-Serif" font-size="10.00">StreamString.h</text>
</a>
</g>
</g>
<!-- Node1&#45;&gt;Node4 -->
<g id="edge3" class="edge">
<title>Node1&#45;&gt;Node4</title>
<path fill="none" stroke="#63b8ff" d="M528.96,-306.28C460.61,-292.23 352.61,-260.8 284.5,-195 270.44,-181.42 262.57,-160.13 258.45,-144.79"/>
<polygon fill="#63b8ff" stroke="#63b8ff" points="261.81,-143.78 256.08,-134.87 255,-145.41 261.81,-143.78"/>
</g>
<!-- Node5 -->
<g id="node5" class="node">
<title>Node5</title>
<g id="a_node5"><a xlink:title=" ">
<polygon fill="#e0e0e0" stroke="#999999" points="424,-134.5 317,-134.5 317,-115.5 424,-115.5 424,-134.5"/>
<text text-anchor="middle" x="370.5" y="-122.5" font-family="Helvetica,sans-Serif" font-size="10.00">cli/FreeRTOS_CLI.h</text>
</a>
</g>
</g>
<!-- Node1&#45;&gt;Node5 -->
<g id="edge4" class="edge">
<title>Node1&#45;&gt;Node5</title>
<path fill="none" stroke="#63b8ff" d="M587.36,-296.88C581.65,-278.16 570.86,-250.05 553.5,-231 511.68,-185.1 445,-153.95 404.72,-138.14"/>
<polygon fill="#63b8ff" stroke="#63b8ff" points="405.92,-134.85 395.33,-134.54 403.41,-141.38 405.92,-134.85"/>
</g>
<!-- Node6 -->
<g id="node6" class="node">
<title>Node6</title>
<g id="a_node6"><a xlink:href="_c_l_i_8h.html" target="_top" xlink:title="FreeRTOS CLI handler.">
<polygon fill="white" stroke="#666666" points="545,-255.5 490,-255.5 490,-236.5 545,-236.5 545,-255.5"/>
<text text-anchor="middle" x="517.5" y="-243.5" font-family="Helvetica,sans-Serif" font-size="10.00">cli/CLI.h</text>
</a>
</g>
</g>
<!-- Node1&#45;&gt;Node6 -->
<g id="edge5" class="edge">
<title>Node1&#45;&gt;Node6</title>
<path fill="none" stroke="#63b8ff" d="M571.21,-296.77C559.61,-286.02 545.46,-272.91 534.59,-262.84"/>
<polygon fill="#63b8ff" stroke="#63b8ff" points="536.73,-260.05 527.02,-255.82 531.97,-265.18 536.73,-260.05"/>
</g>
<!-- Node12 -->
<g id="node12" class="node">
<title>Node12</title>
<g id="a_node12"><a xlink:href="mqtt__cli_8h.html" target="_top" xlink:title="MQTT setup and configuration through the CLI.">
<polygon fill="white" stroke="#666666" points="763.5,-261 639.5,-261 639.5,-231 763.5,-231 763.5,-261"/>
<text text-anchor="start" x="647.5" y="-249" font-family="Helvetica,sans-Serif" font-size="10.00">cli/device_config/mqtt</text>
<text text-anchor="middle" x="701.5" y="-238" font-family="Helvetica,sans-Serif" font-size="10.00">_cli.h</text>
</a>
</g>
</g>
<!-- Node1&#45;&gt;Node12 -->
<g id="edge17" class="edge">
<title>Node1&#45;&gt;Node12</title>
<path fill="none" stroke="#63b8ff" d="M623.15,-296.96C637.96,-287.51 655.7,-276.2 670.55,-266.74"/>
<polygon fill="#63b8ff" stroke="#63b8ff" points="672.82,-269.44 679.37,-261.11 669.05,-263.54 672.82,-269.44"/>
</g>
<!-- Node15 -->
<g id="node15" class="node">
<title>Node15</title>
<g id="a_node15"><a xlink:title=" ">
<polygon fill="#e0e0e0" stroke="#999999" points="885,-255.5 848,-255.5 848,-236.5 885,-236.5 885,-255.5"/>
<text text-anchor="middle" x="866.5" y="-243.5" font-family="Helvetica,sans-Serif" font-size="10.00">FS.h</text>
</a>
</g>
</g>
<!-- Node1&#45;&gt;Node15 -->
<g id="edge21" class="edge">
<title>Node1&#45;&gt;Node15</title>
<path fill="none" stroke="#63b8ff" d="M656.12,-306.51C706.51,-297.57 778.19,-282.52 838.5,-261 839.55,-260.63 840.61,-260.22 841.67,-259.79"/>
<polygon fill="#63b8ff" stroke="#63b8ff" points="843.43,-262.84 851.1,-255.54 840.54,-256.47 843.43,-262.84"/>
</g>
<!-- Node16 -->
<g id="node16" class="node">
<title>Node16</title>
<g id="a_node16"><a xlink:href="_utils_8h.html" target="_top" xlink:title=" ">
<polygon fill="white" stroke="#666666" points="829.5,-255.5 781.5,-255.5 781.5,-236.5 829.5,-236.5 829.5,-255.5"/>
<text text-anchor="middle" x="805.5" y="-243.5" font-family="Helvetica,sans-Serif" font-size="10.00">Utils.h</text>
</a>
</g>
</g>
<!-- Node1&#45;&gt;Node16 -->
<g id="edge22" class="edge">
<title>Node1&#45;&gt;Node16</title>
<path fill="none" stroke="#63b8ff" d="M656.34,-298.54C690.99,-288.37 734.41,-274.91 772.5,-261 773.89,-260.49 775.3,-259.96 776.73,-259.41"/>
<polygon fill="#63b8ff" stroke="#63b8ff" points="778.13,-262.62 786.09,-255.62 775.5,-256.13 778.13,-262.62"/>
</g>
<!-- Node18 -->
<g id="node18" class="node">
<title>Node18</title>
<g id="a_node18"><a xlink:href="globals_8h.html" target="_top" xlink:title=" ">
<polygon fill="white" stroke="#666666" points="663,-195 602,-195 602,-176 663,-176 663,-195"/>
<text text-anchor="middle" x="632.5" y="-183" font-family="Helvetica,sans-Serif" font-size="10.00">globals.h</text>
</a>
</g>
</g>
<!-- Node1&#45;&gt;Node18 -->
<g id="edge31" class="edge">
<title>Node1&#45;&gt;Node18</title>
<path fill="none" stroke="#63b8ff" d="M598.58,-296.76C606.27,-271.75 619.42,-229 626.89,-204.73"/>
<polygon fill="#63b8ff" stroke="#63b8ff" points="630.29,-205.6 629.88,-195.01 623.59,-203.54 630.29,-205.6"/>
</g>
<!-- Node22 -->
<g id="node22" class="node">
<title>Node22</title>
<g id="a_node22"><a xlink:href="mqtt__stack_8h.html" target="_top" xlink:title=" ">
<polygon fill="white" stroke="#666666" points="983.5,-255.5 903.5,-255.5 903.5,-236.5 983.5,-236.5 983.5,-255.5"/>
<text text-anchor="middle" x="943.5" y="-243.5" font-family="Helvetica,sans-Serif" font-size="10.00">mqtt_stack.h</text>
</a>
</g>
</g>
<!-- Node1&#45;&gt;Node22 -->
<g id="edge30" class="edge">
<title>Node1&#45;&gt;Node22</title>
<path fill="none" stroke="#63b8ff" d="M656.21,-306.63C717.58,-296.69 812.88,-280.11 894.5,-261 898.12,-260.15 901.86,-259.21 905.6,-258.22"/>
<polygon fill="#63b8ff" stroke="#63b8ff" points="906.66,-261.56 915.38,-255.54 904.81,-254.81 906.66,-261.56"/>
</g>
<!-- Node7 -->
<g id="node7" class="node">
<title>Node7</title>
<g id="a_node7"><a xlink:title=" ">
<polygon fill="#e0e0e0" stroke="#999999" points="567,-19 504,-19 504,0 567,0 567,-19"/>
<text text-anchor="middle" x="535.5" y="-7" font-family="Helvetica,sans-Serif" font-size="10.00">Arduino.h</text>
</a>
</g>
</g>
<!-- Node6&#45;&gt;Node7 -->
<g id="edge6" class="edge">
<title>Node6&#45;&gt;Node7</title>
<path fill="none" stroke="#63b8ff" d="M518.16,-236.38C520.76,-202.48 530.32,-77.93 534.02,-29.72"/>
<polygon fill="#63b8ff" stroke="#63b8ff" points="537.54,-29.69 534.81,-19.45 530.56,-29.16 537.54,-29.69"/>
</g>
<!-- Node8 -->
<g id="node8" class="node">
<title>Node8</title>
<g id="a_node8"><a xlink:href="cat-m1_8h.html" target="_top" xlink:title="CAT&#45;M1 CLI command request and response handler.">
<polygon fill="white" stroke="#666666" points="425.5,-195 293.5,-195 293.5,-176 425.5,-176 425.5,-195"/>
<text text-anchor="middle" x="359.5" y="-183" font-family="Helvetica,sans-Serif" font-size="10.00">cli/peripherals/cat&#45;m1.h</text>
</a>
</g>
</g>
<!-- Node6&#45;&gt;Node8 -->
<g id="edge7" class="edge">
<title>Node6&#45;&gt;Node8</title>
<path fill="none" stroke="#63b8ff" d="M494.53,-236.49C467.61,-226.53 422.83,-209.95 392.27,-198.63"/>
<polygon fill="#63b8ff" stroke="#63b8ff" points="393.1,-195.21 382.5,-195.02 390.66,-201.77 393.1,-195.21"/>
</g>
<!-- Node8&#45;&gt;Node2 -->
<g id="edge8" class="edge">
<title>Node8&#45;&gt;Node2</title>
<path fill="none" stroke="#63b8ff" d="M311.56,-175.93C263.44,-167.24 187.23,-153.22 121.5,-140 116.2,-138.93 110.65,-137.79 105.14,-136.63"/>
<polygon fill="#63b8ff" stroke="#63b8ff" points="105.81,-133.19 95.3,-134.54 104.36,-140.04 105.81,-133.19"/>
</g>
<!-- Node8&#45;&gt;Node3 -->
<g id="edge9" class="edge">
<title>Node8&#45;&gt;Node3</title>
<path fill="none" stroke="#63b8ff" d="M326.41,-175.98C294.1,-167.49 243.65,-153.76 200.5,-140 198.38,-139.33 196.21,-138.61 194.03,-137.87"/>
<polygon fill="#63b8ff" stroke="#63b8ff" points="195.1,-134.54 184.5,-134.57 192.8,-141.15 195.1,-134.54"/>
</g>
<!-- Node8&#45;&gt;Node4 -->
<g id="edge10" class="edge">
<title>Node8&#45;&gt;Node4</title>
<path fill="none" stroke="#63b8ff" d="M344.01,-175.87C326.87,-166.32 299.03,-150.81 278.94,-139.62"/>
<polygon fill="#63b8ff" stroke="#63b8ff" points="280.5,-136.48 270.06,-134.67 277.09,-142.59 280.5,-136.48"/>
</g>
<!-- Node8&#45;&gt;Node5 -->
<g id="edge11" class="edge">
<title>Node8&#45;&gt;Node5</title>
<path fill="none" stroke="#63b8ff" d="M361.12,-175.87C362.67,-167.66 365.04,-155.04 367.01,-144.55"/>
<polygon fill="#63b8ff" stroke="#63b8ff" points="370.46,-145.14 368.87,-134.67 363.58,-143.85 370.46,-145.14"/>
</g>
<!-- Node9 -->
<g id="node9" class="node">
<title>Node9</title>
<g id="a_node9"><a xlink:href="_c_a_t___m1_8h.html" target="_top" xlink:title=" ">
<polygon fill="white" stroke="#666666" points="507,-134.5 442,-134.5 442,-115.5 507,-115.5 507,-134.5"/>
<text text-anchor="middle" x="474.5" y="-122.5" font-family="Helvetica,sans-Serif" font-size="10.00">CAT_M1.h</text>
</a>
</g>
</g>
<!-- Node8&#45;&gt;Node9 -->
<g id="edge12" class="edge">
<title>Node8&#45;&gt;Node9</title>
<path fill="none" stroke="#63b8ff" d="M376.47,-175.87C395.41,-166.23 426.29,-150.53 448.33,-139.31"/>
<polygon fill="#63b8ff" stroke="#63b8ff" points="450.14,-142.32 457.46,-134.67 446.96,-136.08 450.14,-142.32"/>
</g>
<!-- Node10 -->
<g id="node10" class="node">
<title>Node10</title>
<g id="a_node10"><a xlink:title=" ">
<polygon fill="#e0e0e0" stroke="#999999" points="460.5,-19 412.5,-19 412.5,0 460.5,0 460.5,-19"/>
<text text-anchor="middle" x="436.5" y="-7" font-family="Helvetica,sans-Serif" font-size="10.00">Wire.h</text>
</a>
</g>
</g>
<!-- Node9&#45;&gt;Node10 -->
<g id="edge13" class="edge">
<title>Node9&#45;&gt;Node10</title>
<path fill="none" stroke="#63b8ff" d="M463.33,-115.48C452.59,-106.51 437.03,-91.31 430.5,-74 425,-59.43 427.36,-41.71 430.59,-28.69"/>
<polygon fill="#63b8ff" stroke="#63b8ff" points="433.97,-29.61 433.37,-19.04 427.24,-27.68 433.97,-29.61"/>
</g>
<!-- Node11 -->
<g id="node11" class="node">
<title>Node11</title>
<g id="a_node11"><a xlink:href="_t_c_a9534_8h.html" target="_top" xlink:title=" ">
<polygon fill="white" stroke="#666666" points="507.5,-74 439.5,-74 439.5,-55 507.5,-55 507.5,-74"/>
<text text-anchor="middle" x="473.5" y="-62" font-family="Helvetica,sans-Serif" font-size="10.00">TCA9534.h</text>
</a>
</g>
</g>
<!-- Node9&#45;&gt;Node11 -->
<g id="edge14" class="edge">
<title>Node9&#45;&gt;Node11</title>
<path fill="none" stroke="#63b8ff" d="M474.35,-115.37C474.21,-107.25 474,-94.81 473.82,-84.39"/>
<polygon fill="#63b8ff" stroke="#63b8ff" points="477.32,-84.11 473.65,-74.17 470.32,-84.23 477.32,-84.11"/>
</g>
<!-- Node11&#45;&gt;Node7 -->
<g id="edge15" class="edge">
<title>Node11&#45;&gt;Node7</title>
<path fill="none" stroke="#63b8ff" d="M483.46,-54.98C492.63,-47.15 506.44,-35.34 517.53,-25.86"/>
<polygon fill="#63b8ff" stroke="#63b8ff" points="520.03,-28.33 525.36,-19.17 515.48,-23.01 520.03,-28.33"/>
</g>
<!-- Node11&#45;&gt;Node10 -->
<g id="edge16" class="edge">
<title>Node11&#45;&gt;Node10</title>
<path fill="none" stroke="#63b8ff" d="M467.39,-54.75C462.22,-47.34 454.65,-36.5 448.31,-27.41"/>
<polygon fill="#63b8ff" stroke="#63b8ff" points="451.09,-25.29 442.5,-19.09 445.35,-29.29 451.09,-25.29"/>
</g>
<!-- Node13 -->
<g id="node13" class="node">
<title>Node13</title>
<g id="a_node13"><a xlink:href="_device_config_8h.html" target="_top" xlink:title="Node configuration options.">
<polygon fill="white" stroke="#666666" points="812.5,-195 722.5,-195 722.5,-176 812.5,-176 812.5,-195"/>
<text text-anchor="middle" x="767.5" y="-183" font-family="Helvetica,sans-Serif" font-size="10.00">DeviceConfig.h</text>
</a>
</g>
</g>
<!-- Node12&#45;&gt;Node13 -->
<g id="edge18" class="edge">
<title>Node12&#45;&gt;Node13</title>
<path fill="none" stroke="#63b8ff" d="M717.48,-230.84C727.25,-222.17 739.77,-211.08 749.84,-202.15"/>
<polygon fill="#63b8ff" stroke="#63b8ff" points="752.45,-204.52 757.61,-195.27 747.81,-199.28 752.45,-204.52"/>
</g>
<!-- Node13&#45;&gt;Node7 -->
<g id="edge19" class="edge">
<title>Node13&#45;&gt;Node7</title>
<path fill="none" stroke="#63b8ff" d="M772.32,-175.88C784.45,-152.89 813.11,-89.53 781.5,-55 754.64,-25.66 640.13,-15.52 577.26,-12.13"/>
<polygon fill="#63b8ff" stroke="#63b8ff" points="577.42,-8.63 567.26,-11.62 577.07,-15.62 577.42,-8.63"/>
</g>
<!-- Node14 -->
<g id="node14" class="node">
<title>Node14</title>
<g id="a_node14"><a xlink:title=" ">
<polygon fill="#e0e0e0" stroke="#999999" points="917,-134.5 834,-134.5 834,-115.5 917,-115.5 917,-134.5"/>
<text text-anchor="middle" x="875.5" y="-122.5" font-family="Helvetica,sans-Serif" font-size="10.00">ArduinoJson.h</text>
</a>
</g>
</g>
<!-- Node13&#45;&gt;Node14 -->
<g id="edge20" class="edge">
<title>Node13&#45;&gt;Node14</title>
<path fill="none" stroke="#63b8ff" d="M783.44,-175.87C801.14,-166.28 829.96,-150.67 850.64,-139.47"/>
<polygon fill="#63b8ff" stroke="#63b8ff" points="852.37,-142.51 859.5,-134.67 849.04,-136.35 852.37,-142.51"/>
</g>
<!-- Node16&#45;&gt;Node14 -->
<g id="edge23" class="edge">
<title>Node16&#45;&gt;Node14</title>
<path fill="none" stroke="#63b8ff" d="M810.53,-236.44C821.93,-217.07 849.9,-169.52 865.16,-143.58"/>
<polygon fill="#63b8ff" stroke="#63b8ff" points="868.27,-145.2 870.32,-134.8 862.24,-141.65 868.27,-145.2"/>
</g>
<!-- Node17 -->
<g id="node17" class="node">
<title>Node17</title>
<g id="a_node17"><a xlink:title=" ">
<polygon fill="#e0e0e0" stroke="#999999" points="962,-195 869,-195 869,-176 962,-176 962,-195"/>
<text text-anchor="middle" x="915.5" y="-183" font-family="Helvetica,sans-Serif" font-size="10.00">dpiclimate&#45;12.h</text>
</a>
</g>
</g>
<!-- Node16&#45;&gt;Node17 -->
<g id="edge24" class="edge">
<title>Node16&#45;&gt;Node17</title>
<path fill="none" stroke="#63b8ff" d="M821.73,-236.37C839.77,-226.78 869.12,-211.17 890.18,-199.97"/>
<polygon fill="#63b8ff" stroke="#63b8ff" points="892.02,-202.95 899.2,-195.17 888.73,-196.77 892.02,-202.95"/>
</g>
<!-- Node16&#45;&gt;Node18 -->
<g id="edge25" class="edge">
<title>Node16&#45;&gt;Node18</title>
<path fill="none" stroke="#63b8ff" d="M786.08,-236.4C781.65,-234.54 776.94,-232.64 772.5,-231 738.95,-218.58 700.13,-206.41 671.89,-197.95"/>
<polygon fill="#63b8ff" stroke="#63b8ff" points="672.58,-194.5 662,-195 670.58,-201.21 672.58,-194.5"/>
</g>
<!-- Node18&#45;&gt;Node9 -->
<g id="edge27" class="edge">
<title>Node18&#45;&gt;Node9</title>
<path fill="none" stroke="#63b8ff" d="M609.53,-175.99C582.61,-166.03 537.83,-149.45 507.27,-138.13"/>
<polygon fill="#63b8ff" stroke="#63b8ff" points="508.1,-134.71 497.5,-134.52 505.66,-141.27 508.1,-134.71"/>
</g>
<!-- Node19 -->
<g id="node19" class="node">
<title>Node19</title>
<g id="a_node19"><a xlink:title=" ">
<polygon fill="#e0e0e0" stroke="#999999" points="693.5,-140 563.5,-140 563.5,-110 693.5,-110 693.5,-140"/>
<text text-anchor="start" x="571.5" y="-128" font-family="Helvetica,sans-Serif" font-size="10.00">SparkFun_u&#45;blox_SARA</text>
<text text-anchor="middle" x="628.5" y="-117" font-family="Helvetica,sans-Serif" font-size="10.00">&#45;R5_Arduino_Library.h</text>
</a>
</g>
</g>
<!-- Node18&#45;&gt;Node19 -->
<g id="edge26" class="edge">
<title>Node18&#45;&gt;Node19</title>
<path fill="none" stroke="#63b8ff" d="M631.91,-175.87C631.45,-169.11 630.78,-159.35 630.16,-150.26"/>
<polygon fill="#63b8ff" stroke="#63b8ff" points="633.64,-149.85 629.47,-140.11 626.66,-150.33 633.64,-149.85"/>
</g>
<!-- Node20 -->
<g id="node20" class="node">
<title>Node20</title>
<g id="a_node20"><a xlink:href="str__utils_8h.html" target="_top" xlink:title=" ">
<polygon fill="white" stroke="#666666" points="777,-134.5 712,-134.5 712,-115.5 777,-115.5 777,-134.5"/>
<text text-anchor="middle" x="744.5" y="-122.5" font-family="Helvetica,sans-Serif" font-size="10.00">str_utils.h</text>
</a>
</g>
</g>
<!-- Node18&#45;&gt;Node20 -->
<g id="edge28" class="edge">
<title>Node18&#45;&gt;Node20</title>
<path fill="none" stroke="#63b8ff" d="M649.03,-175.87C667.47,-166.23 697.54,-150.53 719.01,-139.31"/>
<polygon fill="#63b8ff" stroke="#63b8ff" points="720.66,-142.4 727.91,-134.67 717.42,-136.19 720.66,-142.4"/>
</g>
<!-- Node21 -->
<g id="node21" class="node">
<title>Node21</title>
<g id="a_node21"><a xlink:title=" ">
<polygon fill="#e0e0e0" stroke="#999999" points="772.5,-74 716.5,-74 716.5,-55 772.5,-55 772.5,-74"/>
<text text-anchor="middle" x="744.5" y="-62" font-family="Helvetica,sans-Serif" font-size="10.00">stddef.h</text>
</a>
</g>
</g>
<!-- Node20&#45;&gt;Node21 -->
<g id="edge29" class="edge">
<title>Node20&#45;&gt;Node21</title>
<path fill="none" stroke="#63b8ff" d="M744.5,-115.37C744.5,-107.25 744.5,-94.81 744.5,-84.39"/>
<polygon fill="#63b8ff" stroke="#63b8ff" points="748,-84.17 744.5,-74.17 741,-84.17 748,-84.17"/>
</g>
</g>
</svg>
