<?xml version="1.0" encoding="UTF-8" standalone="no"?>
<!DOCTYPE svg PUBLIC "-//W3C//DTD SVG 1.1//EN"
 "http://www.w3.org/Graphics/SVG/1.1/DTD/svg11.dtd">
<!-- Generated by graphviz version 2.43.0 (0)
 -->
<!-- Title: firmware/wombat/src/mqtt_stack.cpp Pages: 1 -->
<svg width="1796pt" height="335pt"
 viewBox="0.00 0.00 1795.52 335.00" xmlns="http://www.w3.org/2000/svg" xmlns:xlink="http://www.w3.org/1999/xlink">
<g id="graph0" class="graph" transform="scale(1 1) rotate(0) translate(4 331)">
<title>firmware/wombat/src/mqtt_stack.cpp</title>
<!-- Node1 -->
<g id="node1" class="node">
<title>Node1</title>
<g id="a_node1"><a xlink:title=" ">
<polygon fill="#999999" stroke="#666666" points="699,-327 579,-327 579,-297 699,-297 699,-327"/>
<text text-anchor="start" x="587" y="-315" font-family="Helvetica,sans-Serif" font-size="10.00">firmware/wombat/src</text>
<text text-anchor="middle" x="639" y="-304" font-family="Helvetica,sans-Serif" font-size="10.00">/mqtt_stack.cpp</text>
</a>
</g>
</g>
<!-- Node2 -->
<g id="node2" class="node">
<title>Node2</title>
<g id="a_node2"><a xlink:href="_c_a_t___m1_8h.html" target="_top" xlink:title=" ">
<polygon fill="white" stroke="#666666" points="87.5,-134.5 22.5,-134.5 22.5,-115.5 87.5,-115.5 87.5,-134.5"/>
<text text-anchor="middle" x="55" y="-122.5" font-family="Helvetica,sans-Serif" font-size="10.00">CAT_M1.h</text>
</a>
</g>
</g>
<!-- Node1&#45;&gt;Node2 -->
<g id="edge1" class="edge">
<title>Node1&#45;&gt;Node2</title>
<path fill="none" stroke="#63b8ff" d="M578.98,-310.55C496.35,-308.43 343.75,-299.1 220,-261 169.27,-245.38 154.35,-240.47 114,-206 93.05,-188.1 75.28,-161.41 64.88,-143.86"/>
<polygon fill="#63b8ff" stroke="#63b8ff" points="67.64,-141.65 59.63,-134.71 61.57,-145.13 67.64,-141.65"/>
</g>
<!-- Node6 -->
<g id="node6" class="node">
<title>Node6</title>
<g id="a_node6"><a xlink:href="_utils_8h.html" target="_top" xlink:title=" ">
<polygon fill="white" stroke="#666666" points="1573,-134.5 1525,-134.5 1525,-115.5 1573,-115.5 1573,-134.5"/>
<text text-anchor="middle" x="1549" y="-122.5" font-family="Helvetica,sans-Serif" font-size="10.00">Utils.h</text>
</a>
</g>
</g>
<!-- Node1&#45;&gt;Node6 -->
<g id="edge6" class="edge">
<title>Node1&#45;&gt;Node6</title>
<path fill="none" stroke="#63b8ff" d="M699.37,-310.01C922.68,-305.74 1692.73,-285.32 1765,-206 1773.98,-196.14 1773.3,-186.44 1765,-176 1753.7,-161.78 1641.64,-141.35 1583.54,-131.59"/>
<polygon fill="#63b8ff" stroke="#63b8ff" points="1583.8,-128.09 1573.36,-129.9 1582.65,-134.99 1583.8,-128.09"/>
</g>
<!-- Node10 -->
<g id="node10" class="node">
<title>Node10</title>
<g id="a_node10"><a xlink:href="_device_config_8h.html" target="_top" xlink:title="Node configuration options.">
<polygon fill="white" stroke="#666666" points="1739,-134.5 1649,-134.5 1649,-115.5 1739,-115.5 1739,-134.5"/>
<text text-anchor="middle" x="1694" y="-122.5" font-family="Helvetica,sans-Serif" font-size="10.00">DeviceConfig.h</text>
</a>
</g>
</g>
<!-- Node1&#45;&gt;Node10 -->
<g id="edge10" class="edge">
<title>Node1&#45;&gt;Node10</title>
<path fill="none" stroke="#63b8ff" d="M699.05,-310.24C884.75,-307.53 1447.9,-296.52 1627,-261 1698.7,-246.78 1739.83,-265.71 1782,-206 1789.69,-195.11 1788.71,-187.52 1782,-176 1771.63,-158.19 1752.3,-146.2 1734.38,-138.44"/>
<polygon fill="#63b8ff" stroke="#63b8ff" points="1735.23,-135.01 1724.64,-134.56 1732.63,-141.51 1735.23,-135.01"/>
</g>
<!-- Node12 -->
<g id="node12" class="node">
<title>Node12</title>
<g id="a_node12"><a xlink:title=" ">
<polygon fill="#e0e0e0" stroke="#999999" points="312,-140 182,-140 182,-110 312,-110 312,-140"/>
<text text-anchor="start" x="190" y="-128" font-family="Helvetica,sans-Serif" font-size="10.00">SparkFun_u&#45;blox_SARA</text>
<text text-anchor="middle" x="247" y="-117" font-family="Helvetica,sans-Serif" font-size="10.00">&#45;R5_Arduino_Library.h</text>
</a>
</g>
</g>
<!-- Node1&#45;&gt;Node12 -->
<g id="edge13" class="edge">
<title>Node1&#45;&gt;Node12</title>
<path fill="none" stroke="#63b8ff" d="M578.89,-299.6C513.07,-285.2 406.24,-256.05 326,-206 301.38,-190.64 278.71,-166.14 264.03,-148.3"/>
<polygon fill="#63b8ff" stroke="#63b8ff" points="266.48,-145.75 257.49,-140.14 261.02,-150.13 266.48,-145.75"/>
</g>
<!-- Node13 -->
<g id="node13" class="node">
<title>Node13</title>
<g id="a_node13"><a xlink:href="globals_8h.html" target="_top" xlink:title=" ">
<polygon fill="white" stroke="#666666" points="184.5,-200.5 123.5,-200.5 123.5,-181.5 184.5,-181.5 184.5,-200.5"/>
<text text-anchor="middle" x="154" y="-188.5" font-family="Helvetica,sans-Serif" font-size="10.00">globals.h</text>
</a>
</g>
</g>
<!-- Node1&#45;&gt;Node13 -->
<g id="edge14" class="edge">
<title>Node1&#45;&gt;Node13</title>
<path fill="none" stroke="#63b8ff" d="M578.8,-311.08C502.55,-309.39 368.18,-300.38 261,-261 226.66,-248.38 192,-223.24 171.79,-207.04"/>
<polygon fill="#63b8ff" stroke="#63b8ff" points="173.76,-204.13 163.81,-200.51 169.33,-209.55 173.76,-204.13"/>
</g>
<!-- Node17 -->
<g id="node17" class="node">
<title>Node17</title>
<g id="a_node17"><a xlink:href="_c_l_i_8h.html" target="_top" xlink:title="FreeRTOS CLI handler.">
<polygon fill="white" stroke="#666666" points="1057.5,-261 1002.5,-261 1002.5,-242 1057.5,-242 1057.5,-261"/>
<text text-anchor="middle" x="1030" y="-249" font-family="Helvetica,sans-Serif" font-size="10.00">cli/CLI.h</text>
</a>
</g>
</g>
<!-- Node1&#45;&gt;Node17 -->
<g id="edge23" class="edge">
<title>Node1&#45;&gt;Node17</title>
<path fill="none" stroke="#63b8ff" d="M699.24,-301.99C780.78,-289.79 923.89,-268.38 991.96,-258.19"/>
<polygon fill="#63b8ff" stroke="#63b8ff" points="992.84,-261.6 1002.21,-256.66 991.81,-254.68 992.84,-261.6"/>
</g>
<!-- Node3 -->
<g id="node3" class="node">
<title>Node3</title>
<g id="a_node3"><a xlink:title=" ">
<polygon fill="#e0e0e0" stroke="#999999" points="48,-19 0,-19 0,0 48,0 48,-19"/>
<text text-anchor="middle" x="24" y="-7" font-family="Helvetica,sans-Serif" font-size="10.00">Wire.h</text>
</a>
</g>
</g>
<!-- Node2&#45;&gt;Node3 -->
<g id="edge2" class="edge">
<title>Node2&#45;&gt;Node3</title>
<path fill="none" stroke="#63b8ff" d="M44.08,-115.43C33.57,-106.41 18.37,-91.18 12,-74 6.52,-59.23 10.67,-41.55 15.52,-28.6"/>
<polygon fill="#63b8ff" stroke="#63b8ff" points="18.75,-29.95 19.4,-19.38 12.3,-27.24 18.75,-29.95"/>
</g>
<!-- Node4 -->
<g id="node4" class="node">
<title>Node4</title>
<g id="a_node4"><a xlink:href="_t_c_a9534_8h.html" target="_top" xlink:title=" ">
<polygon fill="white" stroke="#666666" points="89,-74 21,-74 21,-55 89,-55 89,-74"/>
<text text-anchor="middle" x="55" y="-62" font-family="Helvetica,sans-Serif" font-size="10.00">TCA9534.h</text>
</a>
</g>
</g>
<!-- Node2&#45;&gt;Node4 -->
<g id="edge3" class="edge">
<title>Node2&#45;&gt;Node4</title>
<path fill="none" stroke="#63b8ff" d="M55,-115.37C55,-107.25 55,-94.81 55,-84.39"/>
<polygon fill="#63b8ff" stroke="#63b8ff" points="58.5,-84.17 55,-74.17 51.5,-84.17 58.5,-84.17"/>
</g>
<!-- Node4&#45;&gt;Node3 -->
<g id="edge5" class="edge">
<title>Node4&#45;&gt;Node3</title>
<path fill="none" stroke="#63b8ff" d="M49.88,-54.75C45.64,-47.49 39.47,-36.95 34.22,-27.98"/>
<polygon fill="#63b8ff" stroke="#63b8ff" points="37.09,-25.95 29.02,-19.09 31.05,-29.49 37.09,-25.95"/>
</g>
<!-- Node5 -->
<g id="node5" class="node">
<title>Node5</title>
<g id="a_node5"><a xlink:title=" ">
<polygon fill="#e0e0e0" stroke="#999999" points="514.5,-19 451.5,-19 451.5,0 514.5,0 514.5,-19"/>
<text text-anchor="middle" x="483" y="-7" font-family="Helvetica,sans-Serif" font-size="10.00">Arduino.h</text>
</a>
</g>
</g>
<!-- Node4&#45;&gt;Node5 -->
<g id="edge4" class="edge">
<title>Node4&#45;&gt;Node5</title>
<path fill="none" stroke="#63b8ff" d="M89.22,-56.48C92.19,-55.95 95.14,-55.45 98,-55 222.25,-35.57 370.29,-20.79 441.15,-14.23"/>
<polygon fill="#63b8ff" stroke="#63b8ff" points="441.81,-17.68 451.44,-13.28 441.17,-10.71 441.81,-17.68"/>
</g>
<!-- Node7 -->
<g id="node7" class="node">
<title>Node7</title>
<g id="a_node7"><a xlink:title=" ">
<polygon fill="#e0e0e0" stroke="#999999" points="1531,-74 1475,-74 1475,-55 1531,-55 1531,-74"/>
<text text-anchor="middle" x="1503" y="-62" font-family="Helvetica,sans-Serif" font-size="10.00">stddef.h</text>
</a>
</g>
</g>
<!-- Node6&#45;&gt;Node7 -->
<g id="edge7" class="edge">
<title>Node6&#45;&gt;Node7</title>
<path fill="none" stroke="#63b8ff" d="M1542.21,-115.37C1535.35,-106.64 1524.57,-92.93 1516.05,-82.09"/>
<polygon fill="#63b8ff" stroke="#63b8ff" points="1518.75,-79.86 1509.82,-74.17 1513.25,-84.19 1518.75,-79.86"/>
</g>
<!-- Node8 -->
<g id="node8" class="node">
<title>Node8</title>
<g id="a_node8"><a xlink:title=" ">
<polygon fill="#e0e0e0" stroke="#999999" points="1632.5,-74 1549.5,-74 1549.5,-55 1632.5,-55 1632.5,-74"/>
<text text-anchor="middle" x="1591" y="-62" font-family="Helvetica,sans-Serif" font-size="10.00">ArduinoJson.h</text>
</a>
</g>
</g>
<!-- Node6&#45;&gt;Node8 -->
<g id="edge8" class="edge">
<title>Node6&#45;&gt;Node8</title>
<path fill="none" stroke="#63b8ff" d="M1555.2,-115.37C1561.4,-106.73 1571.11,-93.2 1578.86,-82.42"/>
<polygon fill="#63b8ff" stroke="#63b8ff" points="1581.79,-84.33 1584.78,-74.17 1576.1,-80.25 1581.79,-84.33"/>
</g>
<!-- Node9 -->
<g id="node9" class="node">
<title>Node9</title>
<g id="a_node9"><a xlink:title=" ">
<polygon fill="#e0e0e0" stroke="#999999" points="1456.5,-74 1363.5,-74 1363.5,-55 1456.5,-55 1456.5,-74"/>
<text text-anchor="middle" x="1410" y="-62" font-family="Helvetica,sans-Serif" font-size="10.00">dpiclimate&#45;12.h</text>
</a>
</g>
</g>
<!-- Node6&#45;&gt;Node9 -->
<g id="edge9" class="edge">
<title>Node6&#45;&gt;Node9</title>
<path fill="none" stroke="#63b8ff" d="M1528.79,-115.49C1505.32,-105.62 1466.39,-89.23 1439.54,-77.93"/>
<polygon fill="#63b8ff" stroke="#63b8ff" points="1440.81,-74.67 1430.24,-74.02 1438.1,-81.12 1440.81,-74.67"/>
</g>
<!-- Node10&#45;&gt;Node5 -->
<g id="edge11" class="edge">
<title>Node10&#45;&gt;Node5</title>
<path fill="none" stroke="#63b8ff" d="M1708.8,-115.44C1730.48,-101.89 1766.3,-75 1747,-55 1703.62,-10.07 738.83,-9.85 524.8,-10.36"/>
<polygon fill="#63b8ff" stroke="#63b8ff" points="524.6,-6.86 514.61,-10.39 524.62,-13.86 524.6,-6.86"/>
</g>
<!-- Node11 -->
<g id="node11" class="node">
<title>Node11</title>
<g id="a_node11"><a xlink:title=" ">
<polygon fill="#e0e0e0" stroke="#999999" points="1737.5,-74 1650.5,-74 1650.5,-55 1737.5,-55 1737.5,-74"/>
<text text-anchor="middle" x="1694" y="-62" font-family="Helvetica,sans-Serif" font-size="10.00">ArduinoJSON.h</text>
</a>
</g>
</g>
<!-- Node10&#45;&gt;Node11 -->
<g id="edge12" class="edge">
<title>Node10&#45;&gt;Node11</title>
<path fill="none" stroke="#63b8ff" d="M1694,-115.37C1694,-107.25 1694,-94.81 1694,-84.39"/>
<polygon fill="#63b8ff" stroke="#63b8ff" points="1697.5,-84.17 1694,-74.17 1690.5,-84.17 1697.5,-84.17"/>
</g>
<!-- Node13&#45;&gt;Node2 -->
<g id="edge22" class="edge">
<title>Node13&#45;&gt;Node2</title>
<path fill="none" stroke="#63b8ff" d="M140.65,-181.37C124.34,-170.82 96.51,-152.84 77.01,-140.23"/>
<polygon fill="#63b8ff" stroke="#63b8ff" points="78.75,-137.19 68.46,-134.7 74.95,-143.07 78.75,-137.19"/>
</g>
<!-- Node13&#45;&gt;Node12 -->
<g id="edge21" class="edge">
<title>Node13&#45;&gt;Node12</title>
<path fill="none" stroke="#63b8ff" d="M166.54,-181.37C179.63,-172.36 200.61,-157.92 217.87,-146.05"/>
<polygon fill="#63b8ff" stroke="#63b8ff" points="220.23,-148.67 226.49,-140.12 216.27,-142.9 220.23,-148.67"/>
</g>
<!-- Node14 -->
<g id="node14" class="node">
<title>Node14</title>
<g id="a_node14"><a xlink:href="battery_8h.html" target="_top" xlink:title="Battery voltage and current monitoring using INA219 IC.">
<polygon fill="white" stroke="#666666" points="258.5,-74 107.5,-74 107.5,-55 258.5,-55 258.5,-74"/>
<text text-anchor="middle" x="183" y="-62" font-family="Helvetica,sans-Serif" font-size="10.00">power_monitoring/battery.h</text>
</a>
</g>
</g>
<!-- Node13&#45;&gt;Node14 -->
<g id="edge15" class="edge">
<title>Node13&#45;&gt;Node14</title>
<path fill="none" stroke="#63b8ff" d="M149.46,-181.27C142.27,-166.2 130.07,-134.58 140,-110 144.69,-98.41 154,-88.16 162.76,-80.43"/>
<polygon fill="#63b8ff" stroke="#63b8ff" points="165,-83.12 170.51,-74.07 160.56,-77.71 165,-83.12"/>
</g>
<!-- Node16 -->
<g id="node16" class="node">
<title>Node16</title>
<g id="a_node16"><a xlink:href="solar_8h.html" target="_top" xlink:title="Solar voltage and current monitoring using INA219 IC.">
<polygon fill="white" stroke="#666666" points="417,-74 277,-74 277,-55 417,-55 417,-74"/>
<text text-anchor="middle" x="347" y="-62" font-family="Helvetica,sans-Serif" font-size="10.00">power_monitoring/solar.h</text>
</a>
</g>
</g>
<!-- Node13&#45;&gt;Node16 -->
<g id="edge18" class="edge">
<title>Node13&#45;&gt;Node16</title>
<path fill="none" stroke="#63b8ff" d="M153.37,-181.16C152.71,-164.77 153.79,-129.55 173,-110 187.82,-94.92 235.78,-83.33 277.6,-75.76"/>
<polygon fill="#63b8ff" stroke="#63b8ff" points="278.27,-79.2 287.52,-74.02 277.06,-72.3 278.27,-79.2"/>
</g>
<!-- Node14&#45;&gt;Node5 -->
<g id="edge16" class="edge">
<title>Node14&#45;&gt;Node5</title>
<path fill="none" stroke="#63b8ff" d="M231.2,-54.98C289.4,-44.7 386.3,-27.58 441.38,-17.85"/>
<polygon fill="#63b8ff" stroke="#63b8ff" points="442.25,-21.25 451.48,-16.07 441.03,-14.36 442.25,-21.25"/>
</g>
<!-- Node15 -->
<g id="node15" class="node">
<title>Node15</title>
<g id="a_node15"><a xlink:title=" ">
<polygon fill="#e0e0e0" stroke="#999999" points="317.5,-19 212.5,-19 212.5,0 317.5,0 317.5,-19"/>
<text text-anchor="middle" x="265" y="-7" font-family="Helvetica,sans-Serif" font-size="10.00">Adafruit_INA219.h</text>
</a>
</g>
</g>
<!-- Node14&#45;&gt;Node15 -->
<g id="edge17" class="edge">
<title>Node14&#45;&gt;Node15</title>
<path fill="none" stroke="#63b8ff" d="M196.17,-54.98C208.77,-46.84 228,-34.41 242.94,-24.76"/>
<polygon fill="#63b8ff" stroke="#63b8ff" points="245.09,-27.54 251.59,-19.17 241.29,-21.66 245.09,-27.54"/>
</g>
<!-- Node16&#45;&gt;Node5 -->
<g id="edge19" class="edge">
<title>Node16&#45;&gt;Node5</title>
<path fill="none" stroke="#63b8ff" d="M368.85,-54.98C391.12,-46.3 425.9,-32.75 451.22,-22.88"/>
<polygon fill="#63b8ff" stroke="#63b8ff" points="452.71,-26.06 460.75,-19.17 450.16,-19.54 452.71,-26.06"/>
</g>
<!-- Node16&#45;&gt;Node15 -->
<g id="edge20" class="edge">
<title>Node16&#45;&gt;Node15</title>
<path fill="none" stroke="#63b8ff" d="M333.83,-54.98C321.23,-46.84 302,-34.41 287.06,-24.76"/>
<polygon fill="#63b8ff" stroke="#63b8ff" points="288.71,-21.66 278.41,-19.17 284.91,-27.54 288.71,-21.66"/>
</g>
<!-- Node17&#45;&gt;Node5 -->
<g id="edge24" class="edge">
<title>Node17&#45;&gt;Node5</title>
<path fill="none" stroke="#63b8ff" d="M1002.12,-250.46C886.13,-249.64 443.8,-239.91 359,-140 350.37,-129.83 352.16,-121.44 359,-110 376.35,-80.99 399.42,-94.89 426,-74 443.39,-60.33 459.88,-41.01 470.61,-27.28"/>
<polygon fill="#63b8ff" stroke="#63b8ff" points="473.51,-29.25 476.78,-19.17 467.94,-25.01 473.51,-29.25"/>
</g>
<!-- Node18 -->
<g id="node18" class="node">
<title>Node18</title>
<g id="a_node18"><a xlink:title=" ">
<polygon fill="#e0e0e0" stroke="#999999" points="1157.5,-134.5 1044.5,-134.5 1044.5,-115.5 1157.5,-115.5 1157.5,-134.5"/>
<text text-anchor="middle" x="1101" y="-122.5" font-family="Helvetica,sans-Serif" font-size="10.00">freertos/FreeRTOS.h</text>
</a>
</g>
</g>
<!-- Node17&#45;&gt;Node18 -->
<g id="edge25" class="edge">
<title>Node17&#45;&gt;Node18</title>
<path fill="none" stroke="#63b8ff" d="M1002.35,-241.98C985.42,-235.17 965.11,-223.76 955,-206 948.4,-194.41 947.25,-186.85 955,-176 966.4,-160.04 1012.52,-145.98 1049.91,-136.87"/>
<polygon fill="#63b8ff" stroke="#63b8ff" points="1050.78,-140.26 1059.7,-134.55 1049.16,-133.45 1050.78,-140.26"/>
</g>
<!-- Node19 -->
<g id="node19" class="node">
<title>Node19</title>
<g id="a_node19"><a xlink:title=" ">
<polygon fill="#e0e0e0" stroke="#999999" points="1282.5,-134.5 1175.5,-134.5 1175.5,-115.5 1282.5,-115.5 1282.5,-134.5"/>
<text text-anchor="middle" x="1229" y="-122.5" font-family="Helvetica,sans-Serif" font-size="10.00">cli/FreeRTOS_CLI.h</text>
</a>
</g>
</g>
<!-- Node17&#45;&gt;Node19 -->
<g id="edge26" class="edge">
<title>Node17&#45;&gt;Node19</title>
<path fill="none" stroke="#63b8ff" d="M1045.89,-241.88C1061.33,-233.32 1085.28,-219.54 1105,-206 1122.74,-193.82 1125.21,-188.1 1143,-176 1162.76,-162.56 1186.28,-149.04 1203.73,-139.45"/>
<polygon fill="#63b8ff" stroke="#63b8ff" points="1205.62,-142.41 1212.74,-134.56 1202.28,-136.26 1205.62,-142.41"/>
</g>
<!-- Node20 -->
<g id="node20" class="node">
<title>Node20</title>
<g id="a_node20"><a xlink:href="cat-m1_8h.html" target="_top" xlink:title="CAT&#45;M1 CLI command request and response handler.">
<polygon fill="white" stroke="#666666" points="1096,-200.5 964,-200.5 964,-181.5 1096,-181.5 1096,-200.5"/>
<text text-anchor="middle" x="1030" y="-188.5" font-family="Helvetica,sans-Serif" font-size="10.00">cli/peripherals/cat&#45;m1.h</text>
</a>
</g>
</g>
<!-- Node17&#45;&gt;Node20 -->
<g id="edge27" class="edge">
<title>Node17&#45;&gt;Node20</title>
<path fill="none" stroke="#63b8ff" d="M1030,-241.87C1030,-233.75 1030,-221.31 1030,-210.89"/>
<polygon fill="#63b8ff" stroke="#63b8ff" points="1033.5,-210.67 1030,-200.67 1026.5,-210.67 1033.5,-210.67"/>
</g>
<!-- Node23 -->
<g id="node23" class="node">
<title>Node23</title>
<g id="a_node23"><a xlink:href="sdi12_8h.html" target="_top" xlink:title="SDI&#45;12 command line interface handler.">
<polygon fill="white" stroke="#666666" points="1448,-200.5 1324,-200.5 1324,-181.5 1448,-181.5 1448,-200.5"/>
<text text-anchor="middle" x="1386" y="-188.5" font-family="Helvetica,sans-Serif" font-size="10.00">cli/peripherals/sdi12.h</text>
</a>
</g>
</g>
<!-- Node17&#45;&gt;Node23 -->
<g id="edge33" class="edge">
<title>Node17&#45;&gt;Node23</title>
<path fill="none" stroke="#63b8ff" d="M1057.57,-246.57C1108.52,-239.22 1220.81,-222.63 1315,-206 1321.17,-204.91 1327.63,-203.71 1334.04,-202.49"/>
<polygon fill="#63b8ff" stroke="#63b8ff" points="1334.85,-205.9 1344,-200.57 1333.52,-199.03 1334.85,-205.9"/>
</g>
<!-- Node24 -->
<g id="node24" class="node">
<title>Node24</title>
<g id="a_node24"><a xlink:href="server_8h.html" target="_top" xlink:title="Handle the setup and maintenance of the BLE server and connected clients.">
<polygon fill="white" stroke="#666666" points="890.5,-200.5 785.5,-200.5 785.5,-181.5 890.5,-181.5 890.5,-200.5"/>
<text text-anchor="middle" x="838" y="-188.5" font-family="Helvetica,sans-Serif" font-size="10.00">bluetooth/server.h</text>
</a>
</g>
</g>
<!-- Node17&#45;&gt;Node24 -->
<g id="edge41" class="edge">
<title>Node17&#45;&gt;Node24</title>
<path fill="none" stroke="#63b8ff" d="M1002.26,-243.44C967.36,-233.58 907.89,-215.56 870.8,-203.68"/>
<polygon fill="#63b8ff" stroke="#63b8ff" points="871.57,-200.25 860.98,-200.5 869.42,-206.91 871.57,-200.25"/>
</g>
<!-- Node34 -->
<g id="node34" class="node">
<title>Node34</title>
<g id="a_node34"><a xlink:href="acquisition__intervals_8h.html" target="_top" xlink:title="Handles the time between measurements and uplinks by the device over LTE.">
<polygon fill="white" stroke="#666666" points="1306,-206 1152,-206 1152,-176 1306,-176 1306,-206"/>
<text text-anchor="start" x="1160" y="-194" font-family="Helvetica,sans-Serif" font-size="10.00">cli/device_config/acquisition</text>
<text text-anchor="middle" x="1229" y="-183" font-family="Helvetica,sans-Serif" font-size="10.00">_intervals.h</text>
</a>
</g>
</g>
<!-- Node17&#45;&gt;Node34 -->
<g id="edge67" class="edge">
<title>Node17&#45;&gt;Node34</title>
<path fill="none" stroke="#63b8ff" d="M1057.67,-242.37C1086.98,-233.75 1134.1,-219.9 1171.52,-208.9"/>
<polygon fill="#63b8ff" stroke="#63b8ff" points="1172.69,-212.2 1181.3,-206.02 1170.71,-205.49 1172.69,-212.2"/>
</g>
<!-- Node35 -->
<g id="node35" class="node">
<title>Node35</title>
<g id="a_node35"><a xlink:href="mqtt__cli_8h.html" target="_top" xlink:title="MQTT setup and configuration through the CLI.">
<polygon fill="white" stroke="#666666" points="1756,-206 1632,-206 1632,-176 1756,-176 1756,-206"/>
<text text-anchor="start" x="1640" y="-194" font-family="Helvetica,sans-Serif" font-size="10.00">cli/device_config/mqtt</text>
<text text-anchor="middle" x="1694" y="-183" font-family="Helvetica,sans-Serif" font-size="10.00">_cli.h</text>
</a>
</g>
</g>
<!-- Node17&#45;&gt;Node35 -->
<g id="edge73" class="edge">
<title>Node17&#45;&gt;Node35</title>
<path fill="none" stroke="#63b8ff" d="M1057.61,-249.6C1141.15,-246.65 1398.68,-235.71 1621.8,-206.05"/>
<polygon fill="#63b8ff" stroke="#63b8ff" points="1622.29,-209.52 1631.73,-204.72 1621.36,-202.58 1622.29,-209.52"/>
</g>
<!-- Node36 -->
<g id="node36" class="node">
<title>Node36</title>
<g id="a_node36"><a xlink:href="config__cli_8h.html" target="_top" xlink:title=" ">
<polygon fill="white" stroke="#666666" points="1614,-206 1484,-206 1484,-176 1614,-176 1614,-206"/>
<text text-anchor="start" x="1492" y="-194" font-family="Helvetica,sans-Serif" font-size="10.00">cli/device_config/config</text>
<text text-anchor="middle" x="1549" y="-183" font-family="Helvetica,sans-Serif" font-size="10.00">_cli.h</text>
</a>
</g>
</g>
<!-- Node17&#45;&gt;Node36 -->
<g id="edge75" class="edge">
<title>Node17&#45;&gt;Node36</title>
<path fill="none" stroke="#63b8ff" d="M1057.7,-248.58C1126.37,-243.62 1310.11,-229.28 1473.45,-206.14"/>
<polygon fill="#63b8ff" stroke="#63b8ff" points="1474.28,-209.56 1483.68,-204.68 1473.29,-202.63 1474.28,-209.56"/>
</g>
<!-- Node20&#45;&gt;Node2 -->
<g id="edge32" class="edge">
<title>Node20&#45;&gt;Node2</title>
<path fill="none" stroke="#63b8ff" d="M963.76,-182.18C943.05,-179.93 920.09,-177.65 899,-176 576.92,-150.82 494.93,-167.05 173,-140 148.07,-137.91 120.27,-134.65 97.92,-131.81"/>
<polygon fill="#63b8ff" stroke="#63b8ff" points="98.11,-128.31 87.75,-130.5 97.22,-135.25 98.11,-128.31"/>
</g>
<!-- Node20&#45;&gt;Node18 -->
<g id="edge28" class="edge">
<title>Node20&#45;&gt;Node18</title>
<path fill="none" stroke="#63b8ff" d="M1039.58,-181.37C1050.84,-171.21 1069.76,-154.16 1083.63,-141.65"/>
<polygon fill="#63b8ff" stroke="#63b8ff" points="1086.04,-144.2 1091.12,-134.91 1081.35,-139 1086.04,-144.2"/>
</g>
<!-- Node20&#45;&gt;Node19 -->
<g id="edge31" class="edge">
<title>Node20&#45;&gt;Node19</title>
<path fill="none" stroke="#63b8ff" d="M1056.84,-181.37C1091.87,-170.1 1153.34,-150.33 1192.56,-137.72"/>
<polygon fill="#63b8ff" stroke="#63b8ff" points="1193.82,-140.99 1202.27,-134.6 1191.68,-134.33 1193.82,-140.99"/>
</g>
<!-- Node21 -->
<g id="node21" class="node">
<title>Node21</title>
<g id="a_node21"><a xlink:title=" ">
<polygon fill="#e0e0e0" stroke="#999999" points="1361.5,-134.5 1300.5,-134.5 1300.5,-115.5 1361.5,-115.5 1361.5,-134.5"/>
<text text-anchor="middle" x="1331" y="-122.5" font-family="Helvetica,sans-Serif" font-size="10.00">Stream.h</text>
</a>
</g>
</g>
<!-- Node20&#45;&gt;Node21 -->
<g id="edge29" class="edge">
<title>Node20&#45;&gt;Node21</title>
<path fill="none" stroke="#63b8ff" d="M1087.58,-181.47C1140.83,-173 1221.95,-158.59 1291,-140 1293.49,-139.33 1296.04,-138.58 1298.6,-137.79"/>
<polygon fill="#63b8ff" stroke="#63b8ff" points="1299.93,-141.04 1308.34,-134.58 1297.74,-134.39 1299.93,-141.04"/>
</g>
<!-- Node22 -->
<g id="node22" class="node">
<title>Node22</title>
<g id="a_node22"><a xlink:title=" ">
<polygon fill="#e0e0e0" stroke="#999999" points="1468.5,-134.5 1379.5,-134.5 1379.5,-115.5 1468.5,-115.5 1468.5,-134.5"/>
<text text-anchor="middle" x="1424" y="-122.5" font-family="Helvetica,sans-Serif" font-size="10.00">StreamString.h</text>
</a>
</g>
</g>
<!-- Node20&#45;&gt;Node22 -->
<g id="edge30" class="edge">
<title>Node20&#45;&gt;Node22</title>
<path fill="none" stroke="#63b8ff" d="M1093.78,-181.46C1177.14,-170.15 1318.54,-150.42 1370,-140 1374.39,-139.11 1378.96,-138.09 1383.49,-137"/>
<polygon fill="#63b8ff" stroke="#63b8ff" points="1384.43,-140.38 1393.29,-134.57 1382.74,-133.58 1384.43,-140.38"/>
</g>
<!-- Node23&#45;&gt;Node6 -->
<g id="edge40" class="edge">
<title>Node23&#45;&gt;Node6</title>
<path fill="none" stroke="#63b8ff" d="M1407.98,-181.37C1436.25,-170.27 1485.54,-150.92 1517.71,-138.28"/>
<polygon fill="#63b8ff" stroke="#63b8ff" points="1519.08,-141.51 1527.11,-134.6 1516.52,-134.99 1519.08,-141.51"/>
</g>
<!-- Node23&#45;&gt;Node9 -->
<g id="edge38" class="edge">
<title>Node23&#45;&gt;Node9</title>
<path fill="none" stroke="#63b8ff" d="M1418.56,-181.41C1439.25,-174.08 1464.43,-161.26 1477,-140 1483.79,-128.52 1483.3,-121.75 1477,-110 1469.49,-96 1455.43,-85.66 1442.12,-78.48"/>
<polygon fill="#63b8ff" stroke="#63b8ff" points="1443.63,-75.33 1433.11,-74.02 1440.52,-81.6 1443.63,-75.33"/>
</g>
<!-- Node23&#45;&gt;Node18 -->
<g id="edge34" class="edge">
<title>Node23&#45;&gt;Node18</title>
<path fill="none" stroke="#63b8ff" d="M1347.86,-181.44C1296.45,-169.89 1204.94,-149.34 1148.94,-136.77"/>
<polygon fill="#63b8ff" stroke="#63b8ff" points="1149.44,-133.29 1138.91,-134.51 1147.9,-140.12 1149.44,-133.29"/>
</g>
<!-- Node23&#45;&gt;Node19 -->
<g id="edge39" class="edge">
<title>Node23&#45;&gt;Node19</title>
<path fill="none" stroke="#63b8ff" d="M1364.83,-181.37C1337.71,-170.32 1290.54,-151.08 1259.54,-138.45"/>
<polygon fill="#63b8ff" stroke="#63b8ff" points="1260.67,-135.13 1250.09,-134.6 1258.03,-141.61 1260.67,-135.13"/>
</g>
<!-- Node23&#45;&gt;Node21 -->
<g id="edge35" class="edge">
<title>Node23&#45;&gt;Node21</title>
<path fill="none" stroke="#63b8ff" d="M1378.58,-181.37C1370.1,-171.5 1356.02,-155.11 1345.37,-142.72"/>
<polygon fill="#63b8ff" stroke="#63b8ff" points="1347.83,-140.21 1338.65,-134.91 1342.52,-144.77 1347.83,-140.21"/>
</g>
<!-- Node23&#45;&gt;Node22 -->
<g id="edge36" class="edge">
<title>Node23&#45;&gt;Node22</title>
<path fill="none" stroke="#63b8ff" d="M1391.12,-181.37C1396.82,-171.78 1406.16,-156.05 1413.43,-143.8"/>
<polygon fill="#63b8ff" stroke="#63b8ff" points="1416.62,-145.29 1418.71,-134.91 1410.6,-141.72 1416.62,-145.29"/>
</g>
<!-- Node23&#45;&gt;Node23 -->
<g id="edge37" class="edge">
<title>Node23&#45;&gt;Node23</title>
<path fill="none" stroke="#63b8ff" d="M1415.54,-200.53C1440.22,-204.61 1466,-201.43 1466,-191 1466,-182 1446.78,-178.4 1425.65,-180.2"/>
<polygon fill="#63b8ff" stroke="#63b8ff" points="1425.03,-176.75 1415.54,-181.47 1425.9,-183.7 1425.03,-176.75"/>
</g>
<!-- Node24&#45;&gt;Node17 -->
<g id="edge66" class="edge">
<title>Node24&#45;&gt;Node17</title>
<path fill="none" stroke="#63b8ff" d="M870.88,-200.52C906.24,-210.62 961.86,-227.5 997.18,-238.82"/>
<polygon fill="#63b8ff" stroke="#63b8ff" points="996.42,-242.25 1007.01,-241.99 998.57,-235.59 996.42,-242.25"/>
</g>
<!-- Node25 -->
<g id="node25" class="node">
<title>Node25</title>
<g id="a_node25"><a xlink:title=" ">
<polygon fill="#e0e0e0" stroke="#999999" points="749.5,-134.5 672.5,-134.5 672.5,-115.5 749.5,-115.5 749.5,-134.5"/>
<text text-anchor="middle" x="711" y="-122.5" font-family="Helvetica,sans-Serif" font-size="10.00">BLEDevice.h</text>
</a>
</g>
</g>
<!-- Node24&#45;&gt;Node25 -->
<g id="edge42" class="edge">
<title>Node24&#45;&gt;Node25</title>
<path fill="none" stroke="#63b8ff" d="M820.87,-181.37C799.38,-170.54 762.3,-151.85 737.23,-139.22"/>
<polygon fill="#63b8ff" stroke="#63b8ff" points="738.77,-136.07 728.26,-134.7 735.62,-142.32 738.77,-136.07"/>
</g>
<!-- Node26 -->
<g id="node26" class="node">
<title>Node26</title>
<g id="a_node26"><a xlink:title=" ">
<polygon fill="#e0e0e0" stroke="#999999" points="858,-74 784,-74 784,-55 858,-55 858,-74"/>
<text text-anchor="middle" x="821" y="-62" font-family="Helvetica,sans-Serif" font-size="10.00">BLEServer.h</text>
</a>
</g>
</g>
<!-- Node24&#45;&gt;Node26 -->
<g id="edge43" class="edge">
<title>Node24&#45;&gt;Node26</title>
<path fill="none" stroke="#63b8ff" d="M849.83,-181.2C860.8,-172.24 876.39,-157.23 883,-140 887.78,-127.55 889.09,-121.86 883,-110 876.04,-96.44 862.81,-86.07 850.35,-78.78"/>
<polygon fill="#63b8ff" stroke="#63b8ff" points="851.98,-75.68 841.52,-74 848.65,-81.84 851.98,-75.68"/>
</g>
<!-- Node27 -->
<g id="node27" class="node">
<title>Node27</title>
<g id="a_node27"><a xlink:title=" ">
<polygon fill="#e0e0e0" stroke="#999999" points="654,-134.5 588,-134.5 588,-115.5 654,-115.5 654,-134.5"/>
<text text-anchor="middle" x="621" y="-122.5" font-family="Helvetica,sans-Serif" font-size="10.00">BLEUtils.h</text>
</a>
</g>
</g>
<!-- Node24&#45;&gt;Node27 -->
<g id="edge44" class="edge">
<title>Node24&#45;&gt;Node27</title>
<path fill="none" stroke="#63b8ff" d="M806.58,-181.47C771.46,-171.82 712.96,-155.46 663,-140 660.71,-139.29 658.35,-138.55 655.98,-137.79"/>
<polygon fill="#63b8ff" stroke="#63b8ff" points="656.85,-134.39 646.26,-134.62 654.68,-141.05 656.85,-134.39"/>
</g>
<!-- Node28 -->
<g id="node28" class="node">
<title>Node28</title>
<g id="a_node28"><a xlink:title=" ">
<polygon fill="#e0e0e0" stroke="#999999" points="596,-74 528,-74 528,-55 596,-55 596,-74"/>
<text text-anchor="middle" x="562" y="-62" font-family="Helvetica,sans-Serif" font-size="10.00">BLE2902.h</text>
</a>
</g>
</g>
<!-- Node24&#45;&gt;Node28 -->
<g id="edge45" class="edge">
<title>Node24&#45;&gt;Node28</title>
<path fill="none" stroke="#63b8ff" d="M785.27,-186.52C718.26,-180.99 607.81,-167.85 579,-140 564.28,-125.76 561.13,-101.61 560.95,-84.67"/>
<polygon fill="#63b8ff" stroke="#63b8ff" points="564.46,-84.39 561.19,-74.31 557.46,-84.22 564.46,-84.39"/>
</g>
<!-- Node29 -->
<g id="node29" class="node">
<title>Node29</title>
<g id="a_node29"><a xlink:href="uart_8h.html" target="_top" xlink:title="BluetoothLE UART service setup and handling.">
<polygon fill="white" stroke="#666666" points="1026.5,-134.5 931.5,-134.5 931.5,-115.5 1026.5,-115.5 1026.5,-134.5"/>
<text text-anchor="middle" x="979" y="-122.5" font-family="Helvetica,sans-Serif" font-size="10.00">bluetooth/uart.h</text>
</a>
</g>
</g>
<!-- Node24&#45;&gt;Node29 -->
<g id="edge46" class="edge">
<title>Node24&#45;&gt;Node29</title>
<path fill="none" stroke="#63b8ff" d="M852.23,-181.37C874.06,-170.39 915.76,-151.36 945.46,-138.72"/>
<polygon fill="#63b8ff" stroke="#63b8ff" points="947.17,-141.8 955.03,-134.7 944.46,-135.35 947.17,-141.8"/>
</g>
<!-- Node32 -->
<g id="node32" class="node">
<title>Node32</title>
<g id="a_node32"><a xlink:href="device_8h.html" target="_top" xlink:title="Bluetooth device services and device information.">
<polygon fill="white" stroke="#666666" points="874.5,-134.5 767.5,-134.5 767.5,-115.5 874.5,-115.5 874.5,-134.5"/>
<text text-anchor="middle" x="821" y="-122.5" font-family="Helvetica,sans-Serif" font-size="10.00">bluetooth/device.h</text>
</a>
</g>
</g>
<!-- Node24&#45;&gt;Node32 -->
<g id="edge54" class="edge">
<title>Node24&#45;&gt;Node32</title>
<path fill="none" stroke="#63b8ff" d="M835.71,-181.37C833.24,-172.07 829.23,-156.98 826.02,-144.9"/>
<polygon fill="#63b8ff" stroke="#63b8ff" points="829.32,-143.67 823.37,-134.91 822.55,-145.47 829.32,-143.67"/>
</g>
<!-- Node33 -->
<g id="node33" class="node">
<title>Node33</title>
<g id="a_node33"><a xlink:href="power__monitoring_8h.html" target="_top" xlink:title="Setup BluetoothLE power monitoring information.">
<polygon fill="white" stroke="#666666" points="532,-134.5 368,-134.5 368,-115.5 532,-115.5 532,-134.5"/>
<text text-anchor="middle" x="450" y="-122.5" font-family="Helvetica,sans-Serif" font-size="10.00">bluetooth/power_monitoring.h</text>
</a>
</g>
</g>
<!-- Node24&#45;&gt;Node33 -->
<g id="edge59" class="edge">
<title>Node24&#45;&gt;Node33</title>
<path fill="none" stroke="#63b8ff" d="M786.08,-181.44C714.93,-169.7 587.36,-148.66 511.51,-136.15"/>
<polygon fill="#63b8ff" stroke="#63b8ff" points="512.05,-132.69 501.62,-134.51 510.91,-139.6 512.05,-132.69"/>
</g>
<!-- Node29&#45;&gt;Node5 -->
<g id="edge47" class="edge">
<title>Node29&#45;&gt;Node5</title>
<path fill="none" stroke="#63b8ff" d="M966.54,-115.36C942.01,-98.51 888.04,-62.29 867,-55 804.53,-33.34 610.75,-18.66 524.79,-13.05"/>
<polygon fill="#63b8ff" stroke="#63b8ff" points="524.82,-9.54 514.62,-12.39 524.37,-16.53 524.82,-9.54"/>
</g>
<!-- Node29&#45;&gt;Node24 -->
<g id="edge53" class="edge">
<title>Node29&#45;&gt;Node24</title>
<path fill="none" stroke="#63b8ff" d="M964.64,-134.7C942.72,-145.71 901.01,-164.75 871.35,-177.36"/>
<polygon fill="#63b8ff" stroke="#63b8ff" points="869.67,-174.27 861.8,-181.37 872.38,-180.72 869.67,-174.27"/>
</g>
<!-- Node29&#45;&gt;Node26 -->
<g id="edge49" class="edge">
<title>Node29&#45;&gt;Node26</title>
<path fill="none" stroke="#63b8ff" d="M956.03,-115.49C929.11,-105.53 884.33,-88.95 853.77,-77.63"/>
<polygon fill="#63b8ff" stroke="#63b8ff" points="854.6,-74.21 844,-74.02 852.16,-80.77 854.6,-74.21"/>
</g>
<!-- Node29&#45;&gt;Node28 -->
<g id="edge50" class="edge">
<title>Node29&#45;&gt;Node28</title>
<path fill="none" stroke="#63b8ff" d="M931.17,-116.88C915.79,-114.63 898.68,-112.17 883,-110 760.46,-93.07 729.16,-93.49 607,-74 606.78,-73.97 606.57,-73.93 606.35,-73.9"/>
<polygon fill="#63b8ff" stroke="#63b8ff" points="606.81,-70.42 596.36,-72.2 605.63,-77.32 606.81,-70.42"/>
</g>
<!-- Node30 -->
<g id="node30" class="node">
<title>Node30</title>
<g id="a_node30"><a xlink:title=" ">
<polygon fill="#e0e0e0" stroke="#999999" points="727.5,-74 616.5,-74 616.5,-55 727.5,-55 727.5,-74"/>
<text text-anchor="middle" x="672" y="-62" font-family="Helvetica,sans-Serif" font-size="10.00">BLECharacteristic.h</text>
</a>
</g>
</g>
<!-- Node29&#45;&gt;Node30 -->
<g id="edge48" class="edge">
<title>Node29&#45;&gt;Node30</title>
<path fill="none" stroke="#63b8ff" d="M934.36,-115.49C879.34,-105.01 785.87,-87.2 726.62,-75.91"/>
<polygon fill="#63b8ff" stroke="#63b8ff" points="727.17,-72.45 716.69,-74.02 725.86,-79.33 727.17,-72.45"/>
</g>
<!-- Node31 -->
<g id="node31" class="node">
<title>Node31</title>
<g id="a_node31"><a xlink:href="tones_8h.html" target="_top" xlink:title="Audio control for the onboard piezo buzzer.">
<polygon fill="white" stroke="#666666" points="1045.5,-74 914.5,-74 914.5,-55 1045.5,-55 1045.5,-74"/>
<text text-anchor="middle" x="980" y="-62" font-family="Helvetica,sans-Serif" font-size="10.00">audio&#45;feedback/tones.h</text>
</a>
</g>
</g>
<!-- Node29&#45;&gt;Node31 -->
<g id="edge51" class="edge">
<title>Node29&#45;&gt;Node31</title>
<path fill="none" stroke="#63b8ff" d="M979.15,-115.37C979.29,-107.25 979.5,-94.81 979.68,-84.39"/>
<polygon fill="#63b8ff" stroke="#63b8ff" points="983.18,-84.23 979.85,-74.17 976.18,-84.11 983.18,-84.23"/>
</g>
<!-- Node31&#45;&gt;Node5 -->
<g id="edge52" class="edge">
<title>Node31&#45;&gt;Node5</title>
<path fill="none" stroke="#63b8ff" d="M914.26,-56.49C810.32,-45.41 610.98,-24.15 524.61,-14.94"/>
<polygon fill="#63b8ff" stroke="#63b8ff" points="524.96,-11.46 514.65,-13.88 524.22,-18.42 524.96,-11.46"/>
</g>
<!-- Node32&#45;&gt;Node5 -->
<g id="edge55" class="edge">
<title>Node32&#45;&gt;Node5</title>
<path fill="none" stroke="#63b8ff" d="M813.08,-115.12C799.11,-100.09 768.51,-69.83 736,-55 666.53,-23.31 576.83,-14.1 525.02,-11.48"/>
<polygon fill="#63b8ff" stroke="#63b8ff" points="525.02,-7.98 514.87,-11.03 524.71,-14.97 525.02,-7.98"/>
</g>
<!-- Node32&#45;&gt;Node26 -->
<g id="edge57" class="edge">
<title>Node32&#45;&gt;Node26</title>
<path fill="none" stroke="#63b8ff" d="M821,-115.37C821,-107.25 821,-94.81 821,-84.39"/>
<polygon fill="#63b8ff" stroke="#63b8ff" points="824.5,-84.17 821,-74.17 817.5,-84.17 824.5,-84.17"/>
</g>
<!-- Node32&#45;&gt;Node28 -->
<g id="edge58" class="edge">
<title>Node32&#45;&gt;Node28</title>
<path fill="none" stroke="#63b8ff" d="M783.34,-115.49C736.35,-104.88 656.12,-86.76 606.25,-75.49"/>
<polygon fill="#63b8ff" stroke="#63b8ff" points="606.92,-72.06 596.4,-73.27 605.38,-78.89 606.92,-72.06"/>
</g>
<!-- Node32&#45;&gt;Node30 -->
<g id="edge56" class="edge">
<title>Node32&#45;&gt;Node30</title>
<path fill="none" stroke="#63b8ff" d="M799.33,-115.49C774.06,-105.57 732.09,-89.09 703.28,-77.78"/>
<polygon fill="#63b8ff" stroke="#63b8ff" points="704.28,-74.41 693.69,-74.02 701.72,-80.93 704.28,-74.41"/>
</g>
<!-- Node33&#45;&gt;Node5 -->
<g id="edge60" class="edge">
<title>Node33&#45;&gt;Node5</title>
<path fill="none" stroke="#63b8ff" d="M452.48,-115.47C457.81,-97.15 470.44,-53.68 477.68,-28.81"/>
<polygon fill="#63b8ff" stroke="#63b8ff" points="481.06,-29.71 480.49,-19.13 474.34,-27.76 481.06,-29.71"/>
</g>
<!-- Node33&#45;&gt;Node14 -->
<g id="edge65" class="edge">
<title>Node33&#45;&gt;Node14</title>
<path fill="none" stroke="#63b8ff" d="M411.18,-115.49C363.72,-105.1 283.37,-87.49 231.79,-76.19"/>
<polygon fill="#63b8ff" stroke="#63b8ff" points="232.39,-72.74 221.87,-74.02 230.89,-79.58 232.39,-72.74"/>
</g>
<!-- Node33&#45;&gt;Node16 -->
<g id="edge64" class="edge">
<title>Node33&#45;&gt;Node16</title>
<path fill="none" stroke="#63b8ff" d="M434.8,-115.37C417.99,-105.82 390.68,-90.31 370.98,-79.12"/>
<polygon fill="#63b8ff" stroke="#63b8ff" points="372.68,-76.06 362.26,-74.17 369.23,-82.15 372.68,-76.06"/>
</g>
<!-- Node33&#45;&gt;Node26 -->
<g id="edge62" class="edge">
<title>Node33&#45;&gt;Node26</title>
<path fill="none" stroke="#63b8ff" d="M503.95,-115.49C576.59,-104.04 704.67,-83.84 773.72,-72.95"/>
<polygon fill="#63b8ff" stroke="#63b8ff" points="774.54,-76.37 783.87,-71.35 773.45,-69.45 774.54,-76.37"/>
</g>
<!-- Node33&#45;&gt;Node28 -->
<g id="edge63" class="edge">
<title>Node33&#45;&gt;Node28</title>
<path fill="none" stroke="#63b8ff" d="M466.53,-115.37C484.97,-105.73 515.04,-90.03 536.51,-78.81"/>
<polygon fill="#63b8ff" stroke="#63b8ff" points="538.16,-81.9 545.41,-74.17 534.92,-75.69 538.16,-81.9"/>
</g>
<!-- Node33&#45;&gt;Node30 -->
<g id="edge61" class="edge">
<title>Node33&#45;&gt;Node30</title>
<path fill="none" stroke="#63b8ff" d="M482.28,-115.49C521.25,-105.23 586.88,-87.93 629.82,-76.62"/>
<polygon fill="#63b8ff" stroke="#63b8ff" points="630.9,-79.95 639.68,-74.02 629.12,-73.18 630.9,-79.95"/>
</g>
<!-- Node34&#45;&gt;Node10 -->
<g id="edge72" class="edge">
<title>Node34&#45;&gt;Node10</title>
<path fill="none" stroke="#63b8ff" d="M1306.34,-177.3C1309.26,-176.85 1312.16,-176.42 1315,-176 1376.25,-166.98 1549.5,-144.55 1638.99,-133.05"/>
<polygon fill="#63b8ff" stroke="#63b8ff" points="1639.48,-136.52 1648.95,-131.77 1638.59,-129.57 1639.48,-136.52"/>
</g>
<!-- Node34&#45;&gt;Node18 -->
<g id="edge68" class="edge">
<title>Node34&#45;&gt;Node18</title>
<path fill="none" stroke="#63b8ff" d="M1200.91,-175.95C1178.96,-164.98 1148.67,-149.83 1127.21,-139.11"/>
<polygon fill="#63b8ff" stroke="#63b8ff" points="1128.54,-135.86 1118.03,-134.52 1125.41,-142.12 1128.54,-135.86"/>
</g>
<!-- Node34&#45;&gt;Node19 -->
<g id="edge71" class="edge">
<title>Node34&#45;&gt;Node19</title>
<path fill="none" stroke="#63b8ff" d="M1229,-175.8C1229,-166.7 1229,-154.79 1229,-144.9"/>
<polygon fill="#63b8ff" stroke="#63b8ff" points="1232.5,-144.84 1229,-134.84 1225.5,-144.84 1232.5,-144.84"/>
</g>
<!-- Node34&#45;&gt;Node21 -->
<g id="edge69" class="edge">
<title>Node34&#45;&gt;Node21</title>
<path fill="none" stroke="#63b8ff" d="M1251.38,-175.95C1268.41,-165.27 1291.71,-150.65 1308.71,-139.98"/>
<polygon fill="#63b8ff" stroke="#63b8ff" points="1310.82,-142.8 1317.43,-134.52 1307.09,-136.87 1310.82,-142.8"/>
</g>
<!-- Node34&#45;&gt;Node22 -->
<g id="edge70" class="edge">
<title>Node34&#45;&gt;Node22</title>
<path fill="none" stroke="#63b8ff" d="M1271.79,-175.95C1306.74,-164.48 1355.56,-148.46 1388.4,-137.68"/>
<polygon fill="#63b8ff" stroke="#63b8ff" points="1389.64,-140.96 1398.05,-134.52 1387.46,-134.31 1389.64,-140.96"/>
</g>
<!-- Node35&#45;&gt;Node10 -->
<g id="edge74" class="edge">
<title>Node35&#45;&gt;Node10</title>
<path fill="none" stroke="#63b8ff" d="M1694,-175.8C1694,-166.7 1694,-154.79 1694,-144.9"/>
<polygon fill="#63b8ff" stroke="#63b8ff" points="1697.5,-144.84 1694,-134.84 1690.5,-144.84 1697.5,-144.84"/>
</g>
<!-- Node36&#45;&gt;Node10 -->
<g id="edge76" class="edge">
<title>Node36&#45;&gt;Node10</title>
<path fill="none" stroke="#63b8ff" d="M1580.82,-175.95C1606.03,-164.83 1640.93,-149.42 1665.29,-138.67"/>
<polygon fill="#63b8ff" stroke="#63b8ff" points="1666.97,-141.76 1674.7,-134.52 1664.14,-135.35 1666.97,-141.76"/>
</g>
</g>
</svg>
