<?xml version="1.0" encoding="UTF-8" standalone="no"?>
<!DOCTYPE svg PUBLIC "-//W3C//DTD SVG 1.1//EN"
 "http://www.w3.org/Graphics/SVG/1.1/DTD/svg11.dtd">
<!-- Generated by graphviz version 2.43.0 (0)
 -->
<!-- Title: firmware/wombat/src/mqtt_stack.cpp Pages: 1 -->
<svg width="1849pt" height="335pt"
 viewBox="0.00 0.00 1849.26 335.00" xmlns="http://www.w3.org/2000/svg" xmlns:xlink="http://www.w3.org/1999/xlink">
<g id="graph0" class="graph" transform="scale(1 1) rotate(0) translate(4 331)">
<title>firmware/wombat/src/mqtt_stack.cpp</title>
<!-- Node1 -->
<g id="node1" class="node">
<title>Node1</title>
<g id="a_node1"><a xlink:title=" ">
<polygon fill="#999999" stroke="#666666" points="255,-327 135,-327 135,-297 255,-297 255,-327"/>
<text text-anchor="start" x="143" y="-315" font-family="Helvetica,sans-Serif" font-size="10.00">firmware/wombat/src</text>
<text text-anchor="middle" x="195" y="-304" font-family="Helvetica,sans-Serif" font-size="10.00">/mqtt_stack.cpp</text>
</a>
</g>
</g>
<!-- Node2 -->
<g id="node2" class="node">
<title>Node2</title>
<g id="a_node2"><a xlink:href="_c_a_t___m1_8h.html" target="_top" xlink:title=" ">
<polygon fill="white" stroke="#666666" points="416.5,-134.5 351.5,-134.5 351.5,-115.5 416.5,-115.5 416.5,-134.5"/>
<text text-anchor="middle" x="384" y="-122.5" font-family="Helvetica,sans-Serif" font-size="10.00">CAT_M1.h</text>
</a>
</g>
</g>
<!-- Node1&#45;&gt;Node2 -->
<g id="edge1" class="edge">
<title>Node1&#45;&gt;Node2</title>
<path fill="none" stroke="#63b8ff" d="M195,-296.67C195.78,-269.45 201.39,-209.96 234,-176 249.01,-160.37 302.56,-145 341.41,-135.51"/>
<polygon fill="#63b8ff" stroke="#63b8ff" points="342.52,-138.85 351.43,-133.12 340.89,-132.04 342.52,-138.85"/>
</g>
<!-- Node6 -->
<g id="node6" class="node">
<title>Node6</title>
<g id="a_node6"><a xlink:href="_utils_8h.html" target="_top" xlink:title=" ">
<polygon fill="white" stroke="#666666" points="201,-134.5 153,-134.5 153,-115.5 201,-115.5 201,-134.5"/>
<text text-anchor="middle" x="177" y="-122.5" font-family="Helvetica,sans-Serif" font-size="10.00">Utils.h</text>
</a>
</g>
</g>
<!-- Node1&#45;&gt;Node6 -->
<g id="edge6" class="edge">
<title>Node1&#45;&gt;Node6</title>
<path fill="none" stroke="#63b8ff" d="M179.42,-296.85C160.19,-278.22 128.51,-243.43 116,-206 111.77,-193.35 110.3,-188.05 116,-176 123.28,-160.61 137.88,-148.38 150.96,-139.87"/>
<polygon fill="#63b8ff" stroke="#63b8ff" points="152.95,-142.76 159.67,-134.57 149.31,-136.77 152.95,-142.76"/>
</g>
<!-- Node10 -->
<g id="node10" class="node">
<title>Node10</title>
<g id="a_node10"><a xlink:href="_device_config_8h.html" target="_top" xlink:title="Node configuration options.">
<polygon fill="white" stroke="#666666" points="1147,-134.5 1057,-134.5 1057,-115.5 1147,-115.5 1147,-134.5"/>
<text text-anchor="middle" x="1102" y="-122.5" font-family="Helvetica,sans-Serif" font-size="10.00">DeviceConfig.h</text>
</a>
</g>
</g>
<!-- Node1&#45;&gt;Node10 -->
<g id="edge10" class="edge">
<title>Node1&#45;&gt;Node10</title>
<path fill="none" stroke="#63b8ff" d="M255.33,-310.1C478.47,-306.17 1247.79,-286.78 1318,-206 1326.75,-195.94 1326.3,-186.44 1318,-176 1307.94,-163.34 1218.03,-145.76 1157.42,-135.17"/>
<polygon fill="#63b8ff" stroke="#63b8ff" points="1157.67,-131.66 1147.22,-133.41 1156.48,-138.56 1157.67,-131.66"/>
</g>
<!-- Node12 -->
<g id="node12" class="node">
<title>Node12</title>
<g id="a_node12"><a xlink:title=" ">
<polygon fill="#e0e0e0" stroke="#999999" points="130,-140 0,-140 0,-110 130,-110 130,-140"/>
<text text-anchor="start" x="8" y="-128" font-family="Helvetica,sans-Serif" font-size="10.00">SparkFun_u&#45;blox_SARA</text>
<text text-anchor="middle" x="65" y="-117" font-family="Helvetica,sans-Serif" font-size="10.00">&#45;R5_Arduino_Library.h</text>
</a>
</g>
</g>
<!-- Node1&#45;&gt;Node12 -->
<g id="edge13" class="edge">
<title>Node1&#45;&gt;Node12</title>
<path fill="none" stroke="#63b8ff" d="M172.14,-296.93C158.87,-287.91 142.54,-275.24 131,-261 103.05,-226.52 83.11,-178.26 72.87,-149.75"/>
<polygon fill="#63b8ff" stroke="#63b8ff" points="76.13,-148.49 69.54,-140.2 69.52,-150.8 76.13,-148.49"/>
</g>
<!-- Node13 -->
<g id="node13" class="node">
<title>Node13</title>
<g id="a_node13"><a xlink:href="globals_8h.html" target="_top" xlink:title=" ">
<polygon fill="white" stroke="#666666" points="186.5,-200.5 125.5,-200.5 125.5,-181.5 186.5,-181.5 186.5,-200.5"/>
<text text-anchor="middle" x="156" y="-188.5" font-family="Helvetica,sans-Serif" font-size="10.00">globals.h</text>
</a>
</g>
</g>
<!-- Node1&#45;&gt;Node13 -->
<g id="edge14" class="edge">
<title>Node1&#45;&gt;Node13</title>
<path fill="none" stroke="#63b8ff" d="M190.37,-296.88C183.3,-275.31 169.82,-234.15 162,-210.31"/>
<polygon fill="#63b8ff" stroke="#63b8ff" points="165.3,-209.12 158.85,-200.71 158.64,-211.3 165.3,-209.12"/>
</g>
<!-- Node17 -->
<g id="node17" class="node">
<title>Node17</title>
<g id="a_node17"><a xlink:href="_c_l_i_8h.html" target="_top" xlink:title="FreeRTOS CLI handler.">
<polygon fill="white" stroke="#666666" points="918.5,-261 863.5,-261 863.5,-242 918.5,-242 918.5,-261"/>
<text text-anchor="middle" x="891" y="-249" font-family="Helvetica,sans-Serif" font-size="10.00">cli/CLI.h</text>
</a>
</g>
</g>
<!-- Node1&#45;&gt;Node17 -->
<g id="edge23" class="edge">
<title>Node1&#45;&gt;Node17</title>
<path fill="none" stroke="#63b8ff" d="M255.25,-305.94C395.19,-294.17 739,-265.28 853.34,-255.67"/>
<polygon fill="#63b8ff" stroke="#63b8ff" points="853.69,-259.15 863.36,-254.82 853.1,-252.17 853.69,-259.15"/>
</g>
<!-- Node3 -->
<g id="node3" class="node">
<title>Node3</title>
<g id="a_node3"><a xlink:title=" ">
<polygon fill="#e0e0e0" stroke="#999999" points="439,-19 391,-19 391,0 439,0 439,-19"/>
<text text-anchor="middle" x="415" y="-7" font-family="Helvetica,sans-Serif" font-size="10.00">Wire.h</text>
</a>
</g>
</g>
<!-- Node2&#45;&gt;Node3 -->
<g id="edge2" class="edge">
<title>Node2&#45;&gt;Node3</title>
<path fill="none" stroke="#63b8ff" d="M386.33,-115.47C391.33,-97.15 403.21,-53.68 410,-28.81"/>
<polygon fill="#63b8ff" stroke="#63b8ff" points="413.38,-29.7 412.64,-19.13 406.63,-27.85 413.38,-29.7"/>
</g>
<!-- Node4 -->
<g id="node4" class="node">
<title>Node4</title>
<g id="a_node4"><a xlink:href="_t_c_a9534_8h.html" target="_top" xlink:title=" ">
<polygon fill="white" stroke="#666666" points="480,-74 412,-74 412,-55 480,-55 480,-74"/>
<text text-anchor="middle" x="446" y="-62" font-family="Helvetica,sans-Serif" font-size="10.00">TCA9534.h</text>
</a>
</g>
</g>
<!-- Node2&#45;&gt;Node4 -->
<g id="edge3" class="edge">
<title>Node2&#45;&gt;Node4</title>
<path fill="none" stroke="#63b8ff" d="M393.15,-115.37C402.67,-106.38 417.8,-92.11 429.43,-81.14"/>
<polygon fill="#63b8ff" stroke="#63b8ff" points="431.94,-83.58 436.81,-74.17 427.14,-78.48 431.94,-83.58"/>
</g>
<!-- Node4&#45;&gt;Node3 -->
<g id="edge5" class="edge">
<title>Node4&#45;&gt;Node3</title>
<path fill="none" stroke="#63b8ff" d="M440.88,-54.75C436.64,-47.49 430.47,-36.95 425.22,-27.98"/>
<polygon fill="#63b8ff" stroke="#63b8ff" points="428.09,-25.95 420.02,-19.09 422.05,-29.49 428.09,-25.95"/>
</g>
<!-- Node5 -->
<g id="node5" class="node">
<title>Node5</title>
<g id="a_node5"><a xlink:title=" ">
<polygon fill="#e0e0e0" stroke="#999999" points="1206.5,-19 1143.5,-19 1143.5,0 1206.5,0 1206.5,-19"/>
<text text-anchor="middle" x="1175" y="-7" font-family="Helvetica,sans-Serif" font-size="10.00">Arduino.h</text>
</a>
</g>
</g>
<!-- Node4&#45;&gt;Node5 -->
<g id="edge4" class="edge">
<title>Node4&#45;&gt;Node5</title>
<path fill="none" stroke="#63b8ff" d="M480.18,-61.01C600.23,-52.29 1002.32,-23.05 1133.34,-13.53"/>
<polygon fill="#63b8ff" stroke="#63b8ff" points="1133.66,-17.01 1143.38,-12.8 1133.15,-10.03 1133.66,-17.01"/>
</g>
<!-- Node7 -->
<g id="node7" class="node">
<title>Node7</title>
<g id="a_node7"><a xlink:title=" ">
<polygon fill="#e0e0e0" stroke="#999999" points="214,-74 158,-74 158,-55 214,-55 214,-74"/>
<text text-anchor="middle" x="186" y="-62" font-family="Helvetica,sans-Serif" font-size="10.00">stddef.h</text>
</a>
</g>
</g>
<!-- Node6&#45;&gt;Node7 -->
<g id="edge7" class="edge">
<title>Node6&#45;&gt;Node7</title>
<path fill="none" stroke="#63b8ff" d="M178.33,-115.37C179.59,-107.16 181.53,-94.54 183.15,-84.05"/>
<polygon fill="#63b8ff" stroke="#63b8ff" points="186.61,-84.58 184.67,-74.17 179.69,-83.52 186.61,-84.58"/>
</g>
<!-- Node8 -->
<g id="node8" class="node">
<title>Node8</title>
<g id="a_node8"><a xlink:title=" ">
<polygon fill="#e0e0e0" stroke="#999999" points="139.5,-74 56.5,-74 56.5,-55 139.5,-55 139.5,-74"/>
<text text-anchor="middle" x="98" y="-62" font-family="Helvetica,sans-Serif" font-size="10.00">ArduinoJson.h</text>
</a>
</g>
</g>
<!-- Node6&#45;&gt;Node8 -->
<g id="edge8" class="edge">
<title>Node6&#45;&gt;Node8</title>
<path fill="none" stroke="#63b8ff" d="M165.34,-115.37C152.86,-106.12 132.82,-91.28 117.84,-80.19"/>
<polygon fill="#63b8ff" stroke="#63b8ff" points="119.82,-77.31 109.7,-74.17 115.66,-82.93 119.82,-77.31"/>
</g>
<!-- Node9 -->
<g id="node9" class="node">
<title>Node9</title>
<g id="a_node9"><a xlink:title=" ">
<polygon fill="#e0e0e0" stroke="#999999" points="334.5,-74 241.5,-74 241.5,-55 334.5,-55 334.5,-74"/>
<text text-anchor="middle" x="288" y="-62" font-family="Helvetica,sans-Serif" font-size="10.00">dpiclimate&#45;12.h</text>
</a>
</g>
</g>
<!-- Node6&#45;&gt;Node9 -->
<g id="edge9" class="edge">
<title>Node6&#45;&gt;Node9</title>
<path fill="none" stroke="#63b8ff" d="M193.38,-115.37C211.58,-105.78 241.2,-90.17 262.45,-78.97"/>
<polygon fill="#63b8ff" stroke="#63b8ff" points="264.34,-81.93 271.55,-74.17 261.08,-75.73 264.34,-81.93"/>
</g>
<!-- Node10&#45;&gt;Node5 -->
<g id="edge11" class="edge">
<title>Node10&#45;&gt;Node5</title>
<path fill="none" stroke="#63b8ff" d="M1107.49,-115.47C1119.43,-96.9 1147.98,-52.51 1163.86,-27.82"/>
<polygon fill="#63b8ff" stroke="#63b8ff" points="1166.98,-29.43 1169.45,-19.13 1161.1,-25.65 1166.98,-29.43"/>
</g>
<!-- Node11 -->
<g id="node11" class="node">
<title>Node11</title>
<g id="a_node11"><a xlink:title=" ">
<polygon fill="#e0e0e0" stroke="#999999" points="939.5,-74 852.5,-74 852.5,-55 939.5,-55 939.5,-74"/>
<text text-anchor="middle" x="896" y="-62" font-family="Helvetica,sans-Serif" font-size="10.00">ArduinoJSON.h</text>
</a>
</g>
</g>
<!-- Node10&#45;&gt;Node11 -->
<g id="edge12" class="edge">
<title>Node10&#45;&gt;Node11</title>
<path fill="none" stroke="#63b8ff" d="M1072.05,-115.49C1036.04,-105.27 975.5,-88.08 935.65,-76.76"/>
<polygon fill="#63b8ff" stroke="#63b8ff" points="936.57,-73.38 925.99,-74.02 934.65,-80.12 936.57,-73.38"/>
</g>
<!-- Node13&#45;&gt;Node2 -->
<g id="edge22" class="edge">
<title>Node13&#45;&gt;Node2</title>
<path fill="none" stroke="#63b8ff" d="M183.08,-181.41C188.98,-179.58 195.19,-177.7 201,-176 248.97,-161.99 304.36,-147.02 341.53,-137.15"/>
<polygon fill="#63b8ff" stroke="#63b8ff" points="342.74,-140.45 351.51,-134.51 340.95,-133.69 342.74,-140.45"/>
</g>
<!-- Node13&#45;&gt;Node12 -->
<g id="edge21" class="edge">
<title>Node13&#45;&gt;Node12</title>
<path fill="none" stroke="#63b8ff" d="M143.73,-181.37C130.92,-172.36 110.39,-157.92 93.51,-146.05"/>
<polygon fill="#63b8ff" stroke="#63b8ff" points="95.26,-143.01 85.07,-140.12 91.24,-148.73 95.26,-143.01"/>
</g>
<!-- Node14 -->
<g id="node14" class="node">
<title>Node14</title>
<g id="a_node14"><a xlink:href="battery_8h.html" target="_top" xlink:title="Battery voltage and current monitoring using INA219 IC.">
<polygon fill="white" stroke="#666666" points="1108.5,-74 957.5,-74 957.5,-55 1108.5,-55 1108.5,-74"/>
<text text-anchor="middle" x="1033" y="-62" font-family="Helvetica,sans-Serif" font-size="10.00">power_monitoring/battery.h</text>
</a>
</g>
</g>
<!-- Node13&#45;&gt;Node14 -->
<g id="edge15" class="edge">
<title>Node13&#45;&gt;Node14</title>
<path fill="none" stroke="#63b8ff" d="M170.81,-181.5C201.55,-164.34 274.96,-125.89 342,-110 601.33,-48.52 677.2,-94.28 947.36,-74"/>
<polygon fill="#63b8ff" stroke="#63b8ff" points="947.77,-77.47 957.47,-73.21 947.23,-70.5 947.77,-77.47"/>
</g>
<!-- Node16 -->
<g id="node16" class="node">
<title>Node16</title>
<g id="a_node16"><a xlink:href="solar_8h.html" target="_top" xlink:title="Solar voltage and current monitoring using INA219 IC.">
<polygon fill="white" stroke="#666666" points="834,-74 694,-74 694,-55 834,-55 834,-74"/>
<text text-anchor="middle" x="764" y="-62" font-family="Helvetica,sans-Serif" font-size="10.00">power_monitoring/solar.h</text>
</a>
</g>
</g>
<!-- Node13&#45;&gt;Node16 -->
<g id="edge18" class="edge">
<title>Node13&#45;&gt;Node16</title>
<path fill="none" stroke="#63b8ff" d="M164.99,-181.38C184.96,-162.44 232.8,-118.26 253,-110 328.86,-78.97 559.83,-69.56 683.62,-66.72"/>
<polygon fill="#63b8ff" stroke="#63b8ff" points="683.88,-70.21 693.8,-66.49 683.73,-63.21 683.88,-70.21"/>
</g>
<!-- Node14&#45;&gt;Node5 -->
<g id="edge16" class="edge">
<title>Node14&#45;&gt;Node5</title>
<path fill="none" stroke="#63b8ff" d="M1055.81,-54.98C1079.17,-46.27 1115.7,-32.63 1142.17,-22.75"/>
<polygon fill="#63b8ff" stroke="#63b8ff" points="1143.63,-25.95 1151.77,-19.17 1141.18,-19.39 1143.63,-25.95"/>
</g>
<!-- Node15 -->
<g id="node15" class="node">
<title>Node15</title>
<g id="a_node15"><a xlink:title=" ">
<polygon fill="#e0e0e0" stroke="#999999" points="950.5,-19 845.5,-19 845.5,0 950.5,0 950.5,-19"/>
<text text-anchor="middle" x="898" y="-7" font-family="Helvetica,sans-Serif" font-size="10.00">Adafruit_INA219.h</text>
</a>
</g>
</g>
<!-- Node14&#45;&gt;Node15 -->
<g id="edge17" class="edge">
<title>Node14&#45;&gt;Node15</title>
<path fill="none" stroke="#63b8ff" d="M1011.31,-54.98C989.2,-46.3 954.68,-32.75 929.55,-22.88"/>
<polygon fill="#63b8ff" stroke="#63b8ff" points="930.67,-19.57 920.08,-19.17 928.11,-26.08 930.67,-19.57"/>
</g>
<!-- Node16&#45;&gt;Node5 -->
<g id="edge19" class="edge">
<title>Node16&#45;&gt;Node5</title>
<path fill="none" stroke="#63b8ff" d="M830.03,-54.98C915.57,-43.95 1062.15,-25.05 1133.52,-15.85"/>
<polygon fill="#63b8ff" stroke="#63b8ff" points="1134.02,-19.31 1143.49,-14.56 1133.12,-12.37 1134.02,-19.31"/>
</g>
<!-- Node16&#45;&gt;Node15 -->
<g id="edge20" class="edge">
<title>Node16&#45;&gt;Node15</title>
<path fill="none" stroke="#63b8ff" d="M785.53,-54.98C807.47,-46.3 841.74,-32.75 866.69,-22.88"/>
<polygon fill="#63b8ff" stroke="#63b8ff" points="868.07,-26.1 876.08,-19.17 865.49,-19.59 868.07,-26.1"/>
</g>
<!-- Node17&#45;&gt;Node5 -->
<g id="edge24" class="edge">
<title>Node17&#45;&gt;Node5</title>
<path fill="none" stroke="#63b8ff" d="M918.6,-249.72C1008.89,-246.89 1291.21,-235.73 1318,-206 1326.93,-196.1 1326.01,-186.66 1318,-176 1283.54,-130.11 1231.71,-183.26 1194,-140 1166.96,-108.98 1168.67,-57.03 1171.98,-29.29"/>
<polygon fill="#63b8ff" stroke="#63b8ff" points="1175.5,-29.41 1173.42,-19.02 1168.57,-28.44 1175.5,-29.41"/>
</g>
<!-- Node18 -->
<g id="node18" class="node">
<title>Node18</title>
<g id="a_node18"><a xlink:title=" ">
<polygon fill="#e0e0e0" stroke="#999999" points="858.5,-134.5 745.5,-134.5 745.5,-115.5 858.5,-115.5 858.5,-134.5"/>
<text text-anchor="middle" x="802" y="-122.5" font-family="Helvetica,sans-Serif" font-size="10.00">freertos/FreeRTOS.h</text>
</a>
</g>
</g>
<!-- Node17&#45;&gt;Node18 -->
<g id="edge25" class="edge">
<title>Node17&#45;&gt;Node18</title>
<path fill="none" stroke="#63b8ff" d="M890.69,-241.91C889.78,-227.18 886.17,-196.71 872,-176 861.41,-160.53 844.38,-148.21 829.77,-139.67"/>
<polygon fill="#63b8ff" stroke="#63b8ff" points="831.06,-136.38 820.61,-134.61 827.67,-142.51 831.06,-136.38"/>
</g>
<!-- Node19 -->
<g id="node19" class="node">
<title>Node19</title>
<g id="a_node19"><a xlink:title=" ">
<polygon fill="#e0e0e0" stroke="#999999" points="727.5,-134.5 620.5,-134.5 620.5,-115.5 727.5,-115.5 727.5,-134.5"/>
<text text-anchor="middle" x="674" y="-122.5" font-family="Helvetica,sans-Serif" font-size="10.00">cli/FreeRTOS_CLI.h</text>
</a>
</g>
</g>
<!-- Node17&#45;&gt;Node19 -->
<g id="edge26" class="edge">
<title>Node17&#45;&gt;Node19</title>
<path fill="none" stroke="#63b8ff" d="M863.47,-247.42C816.51,-241.65 723.7,-227.76 700,-206 682.9,-190.3 677.01,-163.24 675,-144.99"/>
<polygon fill="#63b8ff" stroke="#63b8ff" points="678.48,-144.63 674.19,-134.94 671.51,-145.19 678.48,-144.63"/>
</g>
<!-- Node20 -->
<g id="node20" class="node">
<title>Node20</title>
<g id="a_node20"><a xlink:href="cat-m1_8h.html" target="_top" xlink:title="CAT&#45;M1 CLI command request and response handler.">
<polygon fill="white" stroke="#666666" points="535,-200.5 403,-200.5 403,-181.5 535,-181.5 535,-200.5"/>
<text text-anchor="middle" x="469" y="-188.5" font-family="Helvetica,sans-Serif" font-size="10.00">cli/peripherals/cat&#45;m1.h</text>
</a>
</g>
</g>
<!-- Node17&#45;&gt;Node20 -->
<g id="edge27" class="edge">
<title>Node17&#45;&gt;Node20</title>
<path fill="none" stroke="#63b8ff" d="M863.48,-247.51C804.69,-241.01 662.5,-224.64 544,-206 537.14,-204.92 529.95,-203.7 522.85,-202.43"/>
<polygon fill="#63b8ff" stroke="#63b8ff" points="523.02,-198.91 512.55,-200.56 521.77,-205.79 523.02,-198.91"/>
</g>
<!-- Node23 -->
<g id="node23" class="node">
<title>Node23</title>
<g id="a_node23"><a xlink:href="sdi12_8h.html" target="_top" xlink:title="SDI&#45;12 command line interface handler.">
<polygon fill="white" stroke="#666666" points="367,-200.5 243,-200.5 243,-181.5 367,-181.5 367,-200.5"/>
<text text-anchor="middle" x="305" y="-188.5" font-family="Helvetica,sans-Serif" font-size="10.00">cli/peripherals/sdi12.h</text>
</a>
</g>
</g>
<!-- Node17&#45;&gt;Node23 -->
<g id="edge33" class="edge">
<title>Node17&#45;&gt;Node23</title>
<path fill="none" stroke="#63b8ff" d="M863.45,-248.68C788.12,-243.57 572.41,-227.99 394,-206 384.67,-204.85 374.81,-203.47 365.19,-202.03"/>
<polygon fill="#63b8ff" stroke="#63b8ff" points="365.69,-198.56 355.28,-200.51 364.64,-205.48 365.69,-198.56"/>
</g>
<!-- Node24 -->
<g id="node24" class="node">
<title>Node24</title>
<g id="a_node24"><a xlink:href="cli__power_8h.html" target="_top" xlink:title=" ">
<polygon fill="white" stroke="#666666" points="653,-206 553,-206 553,-176 653,-176 653,-206"/>
<text text-anchor="start" x="561" y="-194" font-family="Helvetica,sans-Serif" font-size="10.00">cli/peripherals/cli</text>
<text text-anchor="middle" x="603" y="-183" font-family="Helvetica,sans-Serif" font-size="10.00">_power.h</text>
</a>
</g>
</g>
<!-- Node17&#45;&gt;Node24 -->
<g id="edge41" class="edge">
<title>Node17&#45;&gt;Node24</title>
<path fill="none" stroke="#63b8ff" d="M863.38,-245.19C821.06,-237.01 737.64,-220.74 667,-206 665.75,-205.74 664.48,-205.47 663.21,-205.2"/>
<polygon fill="#63b8ff" stroke="#63b8ff" points="663.8,-201.75 653.29,-203.1 662.34,-208.6 663.8,-201.75"/>
</g>
<!-- Node25 -->
<g id="node25" class="node">
<title>Node25</title>
<g id="a_node25"><a xlink:href="sd__card_8h.html" target="_top" xlink:title=" ">
<polygon fill="white" stroke="#666666" points="1019,-206 919,-206 919,-176 1019,-176 1019,-206"/>
<text text-anchor="start" x="927" y="-194" font-family="Helvetica,sans-Serif" font-size="10.00">cli/peripherals/sd</text>
<text text-anchor="middle" x="969" y="-183" font-family="Helvetica,sans-Serif" font-size="10.00">_card.h</text>
</a>
</g>
</g>
<!-- Node17&#45;&gt;Node25 -->
<g id="edge47" class="edge">
<title>Node17&#45;&gt;Node25</title>
<path fill="none" stroke="#63b8ff" d="M902.51,-241.87C912.9,-234.08 928.58,-222.32 942.1,-212.17"/>
<polygon fill="#63b8ff" stroke="#63b8ff" points="944.28,-214.91 950.18,-206.11 940.08,-209.31 944.28,-214.91"/>
</g>
<!-- Node27 -->
<g id="node27" class="node">
<title>Node27</title>
<g id="a_node27"><a xlink:href="server_8h.html" target="_top" xlink:title="Handle the setup and maintenance of the BLE server and connected clients.">
<polygon fill="white" stroke="#666666" points="1523.5,-200.5 1418.5,-200.5 1418.5,-181.5 1523.5,-181.5 1523.5,-200.5"/>
<text text-anchor="middle" x="1471" y="-188.5" font-family="Helvetica,sans-Serif" font-size="10.00">bluetooth/server.h</text>
</a>
</g>
</g>
<!-- Node17&#45;&gt;Node27 -->
<g id="edge50" class="edge">
<title>Node17&#45;&gt;Node27</title>
<path fill="none" stroke="#63b8ff" d="M918.66,-248.52C993.46,-243.45 1204.83,-228.74 1380,-206 1389.05,-204.83 1398.62,-203.38 1408.04,-201.86"/>
<polygon fill="#63b8ff" stroke="#63b8ff" points="1408.88,-205.28 1418.18,-200.21 1407.75,-198.37 1408.88,-205.28"/>
</g>
<!-- Node37 -->
<g id="node37" class="node">
<title>Node37</title>
<g id="a_node37"><a xlink:href="acquisition__intervals_8h.html" target="_top" xlink:title="Handles the time between measurements and uplinks by the device over LTE.">
<polygon fill="white" stroke="#666666" points="863,-206 709,-206 709,-176 863,-176 863,-206"/>
<text text-anchor="start" x="717" y="-194" font-family="Helvetica,sans-Serif" font-size="10.00">cli/device_config/acquisition</text>
<text text-anchor="middle" x="786" y="-183" font-family="Helvetica,sans-Serif" font-size="10.00">_intervals.h</text>
</a>
</g>
</g>
<!-- Node17&#45;&gt;Node37 -->
<g id="edge76" class="edge">
<title>Node17&#45;&gt;Node37</title>
<path fill="none" stroke="#63b8ff" d="M875.51,-241.87C861,-233.78 838.81,-221.42 820.16,-211.03"/>
<polygon fill="#63b8ff" stroke="#63b8ff" points="821.77,-207.92 811.33,-206.11 818.37,-214.04 821.77,-207.92"/>
</g>
<!-- Node38 -->
<g id="node38" class="node">
<title>Node38</title>
<g id="a_node38"><a xlink:href="mqtt__cli_8h.html" target="_top" xlink:title="MQTT setup and configuration through the CLI.">
<polygon fill="white" stroke="#666666" points="1309,-206 1185,-206 1185,-176 1309,-176 1309,-206"/>
<text text-anchor="start" x="1193" y="-194" font-family="Helvetica,sans-Serif" font-size="10.00">cli/device_config/mqtt</text>
<text text-anchor="middle" x="1247" y="-183" font-family="Helvetica,sans-Serif" font-size="10.00">_cli.h</text>
</a>
</g>
</g>
<!-- Node17&#45;&gt;Node38 -->
<g id="edge82" class="edge">
<title>Node17&#45;&gt;Node38</title>
<path fill="none" stroke="#63b8ff" d="M918.57,-246.57C967.88,-239.45 1074.63,-223.69 1174.71,-206.19"/>
<polygon fill="#63b8ff" stroke="#63b8ff" points="1175.45,-209.61 1184.69,-204.43 1174.23,-202.72 1175.45,-209.61"/>
</g>
<!-- Node39 -->
<g id="node39" class="node">
<title>Node39</title>
<g id="a_node39"><a xlink:href="config__cli_8h.html" target="_top" xlink:title=" ">
<polygon fill="white" stroke="#666666" points="1167,-206 1037,-206 1037,-176 1167,-176 1167,-206"/>
<text text-anchor="start" x="1045" y="-194" font-family="Helvetica,sans-Serif" font-size="10.00">cli/device_config/config</text>
<text text-anchor="middle" x="1102" y="-183" font-family="Helvetica,sans-Serif" font-size="10.00">_cli.h</text>
</a>
</g>
</g>
<!-- Node17&#45;&gt;Node39 -->
<g id="edge84" class="edge">
<title>Node17&#45;&gt;Node39</title>
<path fill="none" stroke="#63b8ff" d="M918.58,-242.85C949.65,-234.24 1001.07,-219.98 1041.58,-208.75"/>
<polygon fill="#63b8ff" stroke="#63b8ff" points="1042.65,-212.09 1051.36,-206.04 1040.78,-205.34 1042.65,-212.09"/>
</g>
<!-- Node20&#45;&gt;Node2 -->
<g id="edge32" class="edge">
<title>Node20&#45;&gt;Node2</title>
<path fill="none" stroke="#63b8ff" d="M457.54,-181.37C443.72,-170.97 420.29,-153.32 403.59,-140.75"/>
<polygon fill="#63b8ff" stroke="#63b8ff" points="405.65,-137.92 395.55,-134.7 401.44,-143.51 405.65,-137.92"/>
</g>
<!-- Node20&#45;&gt;Node18 -->
<g id="edge28" class="edge">
<title>Node20&#45;&gt;Node18</title>
<path fill="none" stroke="#63b8ff" d="M514.67,-181.48C588.07,-167.77 725.2,-142.16 736,-140 741.38,-138.92 747.01,-137.77 752.61,-136.61"/>
<polygon fill="#63b8ff" stroke="#63b8ff" points="753.52,-140 762.59,-134.52 752.09,-133.14 753.52,-140"/>
</g>
<!-- Node20&#45;&gt;Node19 -->
<g id="edge31" class="edge">
<title>Node20&#45;&gt;Node19</title>
<path fill="none" stroke="#63b8ff" d="M496.65,-181.37C532.82,-170.08 596.33,-150.25 636.72,-137.64"/>
<polygon fill="#63b8ff" stroke="#63b8ff" points="637.96,-140.92 646.46,-134.6 635.88,-134.24 637.96,-140.92"/>
</g>
<!-- Node21 -->
<g id="node21" class="node">
<title>Node21</title>
<g id="a_node21"><a xlink:title=" ">
<polygon fill="#e0e0e0" stroke="#999999" points="495.5,-134.5 434.5,-134.5 434.5,-115.5 495.5,-115.5 495.5,-134.5"/>
<text text-anchor="middle" x="465" y="-122.5" font-family="Helvetica,sans-Serif" font-size="10.00">Stream.h</text>
</a>
</g>
</g>
<!-- Node20&#45;&gt;Node21 -->
<g id="edge29" class="edge">
<title>Node20&#45;&gt;Node21</title>
<path fill="none" stroke="#63b8ff" d="M468.46,-181.37C467.88,-172.07 466.94,-156.98 466.18,-144.9"/>
<polygon fill="#63b8ff" stroke="#63b8ff" points="469.67,-144.67 465.56,-134.91 462.69,-145.1 469.67,-144.67"/>
</g>
<!-- Node22 -->
<g id="node22" class="node">
<title>Node22</title>
<g id="a_node22"><a xlink:title=" ">
<polygon fill="#e0e0e0" stroke="#999999" points="602.5,-134.5 513.5,-134.5 513.5,-115.5 602.5,-115.5 602.5,-134.5"/>
<text text-anchor="middle" x="558" y="-122.5" font-family="Helvetica,sans-Serif" font-size="10.00">StreamString.h</text>
</a>
</g>
</g>
<!-- Node20&#45;&gt;Node22 -->
<g id="edge30" class="edge">
<title>Node20&#45;&gt;Node22</title>
<path fill="none" stroke="#63b8ff" d="M481,-181.37C495.47,-170.97 520.01,-153.32 537.49,-140.75"/>
<polygon fill="#63b8ff" stroke="#63b8ff" points="539.83,-143.38 545.9,-134.7 535.74,-137.7 539.83,-143.38"/>
</g>
<!-- Node23&#45;&gt;Node6 -->
<g id="edge40" class="edge">
<title>Node23&#45;&gt;Node6</title>
<path fill="none" stroke="#63b8ff" d="M287.74,-181.37C266.08,-170.54 228.71,-151.85 203.43,-139.22"/>
<polygon fill="#63b8ff" stroke="#63b8ff" points="204.91,-136.04 194.4,-134.7 201.78,-142.3 204.91,-136.04"/>
</g>
<!-- Node23&#45;&gt;Node9 -->
<g id="edge38" class="edge">
<title>Node23&#45;&gt;Node9</title>
<path fill="none" stroke="#63b8ff" d="M303.83,-181.44C301.11,-161.54 294.32,-111.76 290.57,-84.35"/>
<polygon fill="#63b8ff" stroke="#63b8ff" points="294,-83.55 289.18,-74.12 287.06,-84.5 294,-83.55"/>
</g>
<!-- Node23&#45;&gt;Node18 -->
<g id="edge34" class="edge">
<title>Node23&#45;&gt;Node18</title>
<path fill="none" stroke="#63b8ff" d="M356.23,-181.48C368.58,-179.56 381.75,-177.61 394,-176 545.54,-156.12 585.04,-163.89 736,-140 742.23,-139.01 748.75,-137.83 755.17,-136.56"/>
<polygon fill="#63b8ff" stroke="#63b8ff" points="756.03,-139.96 765.12,-134.53 754.63,-133.1 756.03,-139.96"/>
</g>
<!-- Node23&#45;&gt;Node19 -->
<g id="edge39" class="edge">
<title>Node23&#45;&gt;Node19</title>
<path fill="none" stroke="#63b8ff" d="M358.23,-181.47C439.24,-168.46 586.69,-144.68 611,-140 616.29,-138.98 621.83,-137.85 627.32,-136.68"/>
<polygon fill="#63b8ff" stroke="#63b8ff" points="628.06,-140.1 637.1,-134.57 626.58,-133.26 628.06,-140.1"/>
</g>
<!-- Node23&#45;&gt;Node21 -->
<g id="edge35" class="edge">
<title>Node23&#45;&gt;Node21</title>
<path fill="none" stroke="#63b8ff" d="M326.58,-181.37C354.21,-170.32 402.29,-151.08 433.88,-138.45"/>
<polygon fill="#63b8ff" stroke="#63b8ff" points="435.52,-141.56 443.51,-134.6 432.92,-135.06 435.52,-141.56"/>
</g>
<!-- Node23&#45;&gt;Node22 -->
<g id="edge36" class="edge">
<title>Node23&#45;&gt;Node22</title>
<path fill="none" stroke="#63b8ff" d="M339.18,-181.5C378.83,-171.61 446.19,-154.76 504,-140 507.64,-139.07 511.42,-138.1 515.2,-137.13"/>
<polygon fill="#63b8ff" stroke="#63b8ff" points="516.36,-140.44 525.17,-134.55 514.61,-133.66 516.36,-140.44"/>
</g>
<!-- Node23&#45;&gt;Node23 -->
<g id="edge37" class="edge">
<title>Node23&#45;&gt;Node23</title>
<path fill="none" stroke="#63b8ff" d="M334.54,-200.53C359.22,-204.61 385,-201.43 385,-191 385,-182 365.78,-178.4 344.65,-180.2"/>
<polygon fill="#63b8ff" stroke="#63b8ff" points="344.03,-176.75 334.54,-181.47 344.9,-183.7 344.03,-176.75"/>
</g>
<!-- Node24&#45;&gt;Node2 -->
<g id="edge46" class="edge">
<title>Node24&#45;&gt;Node2</title>
<path fill="none" stroke="#63b8ff" d="M552.91,-176.72C517.12,-167.05 467.91,-153.34 425,-140 422.7,-139.28 420.33,-138.53 417.95,-137.75"/>
<polygon fill="#63b8ff" stroke="#63b8ff" points="418.8,-134.35 408.21,-134.51 416.59,-140.99 418.8,-134.35"/>
</g>
<!-- Node24&#45;&gt;Node18 -->
<g id="edge42" class="edge">
<title>Node24&#45;&gt;Node18</title>
<path fill="none" stroke="#63b8ff" d="M646.67,-175.95C682.34,-164.48 732.16,-148.46 765.67,-137.68"/>
<polygon fill="#63b8ff" stroke="#63b8ff" points="767.07,-140.91 775.52,-134.52 764.93,-134.25 767.07,-140.91"/>
</g>
<!-- Node24&#45;&gt;Node19 -->
<g id="edge45" class="edge">
<title>Node24&#45;&gt;Node19</title>
<path fill="none" stroke="#63b8ff" d="M618.76,-175.8C629.93,-165.72 644.94,-152.19 656.49,-141.78"/>
<polygon fill="#63b8ff" stroke="#63b8ff" points="659.1,-144.14 664.19,-134.84 654.42,-138.94 659.1,-144.14"/>
</g>
<!-- Node24&#45;&gt;Node21 -->
<g id="edge43" class="edge">
<title>Node24&#45;&gt;Node21</title>
<path fill="none" stroke="#63b8ff" d="M572.72,-175.95C548.83,-164.88 515.8,-149.56 492.64,-138.82"/>
<polygon fill="#63b8ff" stroke="#63b8ff" points="493.91,-135.55 483.37,-134.52 490.96,-141.9 493.91,-135.55"/>
</g>
<!-- Node24&#45;&gt;Node22 -->
<g id="edge44" class="edge">
<title>Node24&#45;&gt;Node22</title>
<path fill="none" stroke="#63b8ff" d="M593.01,-175.8C586.27,-166.21 577.34,-153.5 570.18,-143.32"/>
<polygon fill="#63b8ff" stroke="#63b8ff" points="572.83,-141.01 564.22,-134.84 567.11,-145.04 572.83,-141.01"/>
</g>
<!-- Node25&#45;&gt;Node18 -->
<g id="edge48" class="edge">
<title>Node25&#45;&gt;Node18</title>
<path fill="none" stroke="#63b8ff" d="M932.35,-175.95C902.81,-164.63 861.69,-148.88 833.58,-138.1"/>
<polygon fill="#63b8ff" stroke="#63b8ff" points="834.82,-134.83 824.22,-134.52 832.31,-141.36 834.82,-134.83"/>
</g>
<!-- Node26 -->
<g id="node26" class="node">
<title>Node26</title>
<g id="a_node26"><a xlink:title=" ">
<polygon fill="#e0e0e0" stroke="#999999" points="991,-134.5 947,-134.5 947,-115.5 991,-115.5 991,-134.5"/>
<text text-anchor="middle" x="969" y="-122.5" font-family="Helvetica,sans-Serif" font-size="10.00">string</text>
</a>
</g>
</g>
<!-- Node25&#45;&gt;Node26 -->
<g id="edge49" class="edge">
<title>Node25&#45;&gt;Node26</title>
<path fill="none" stroke="#63b8ff" d="M969,-175.8C969,-166.7 969,-154.79 969,-144.9"/>
<polygon fill="#63b8ff" stroke="#63b8ff" points="972.5,-144.84 969,-134.84 965.5,-144.84 972.5,-144.84"/>
</g>
<!-- Node27&#45;&gt;Node17 -->
<g id="edge75" class="edge">
<title>Node27&#45;&gt;Node17</title>
<path fill="none" stroke="#63b8ff" d="M1433.41,-200.57C1422.07,-202.54 1409.6,-204.49 1398,-206 1223.61,-228.64 1013.36,-243.32 928.76,-248.45"/>
<polygon fill="#63b8ff" stroke="#63b8ff" points="928.38,-244.97 918.6,-249.06 928.8,-251.96 928.38,-244.97"/>
</g>
<!-- Node28 -->
<g id="node28" class="node">
<title>Node28</title>
<g id="a_node28"><a xlink:title=" ">
<polygon fill="#e0e0e0" stroke="#999999" points="1823.5,-134.5 1746.5,-134.5 1746.5,-115.5 1823.5,-115.5 1823.5,-134.5"/>
<text text-anchor="middle" x="1785" y="-122.5" font-family="Helvetica,sans-Serif" font-size="10.00">BLEDevice.h</text>
</a>
</g>
</g>
<!-- Node27&#45;&gt;Node28 -->
<g id="edge51" class="edge">
<title>Node27&#45;&gt;Node28</title>
<path fill="none" stroke="#63b8ff" d="M1523.53,-181.83C1577.62,-173.02 1664.2,-157.85 1738,-140 1741.23,-139.22 1744.56,-138.35 1747.9,-137.44"/>
<polygon fill="#63b8ff" stroke="#63b8ff" points="1749.13,-140.73 1757.79,-134.63 1747.22,-134 1749.13,-140.73"/>
</g>
<!-- Node29 -->
<g id="node29" class="node">
<title>Node29</title>
<g id="a_node29"><a xlink:title=" ">
<polygon fill="#e0e0e0" stroke="#999999" points="1719,-74 1645,-74 1645,-55 1719,-55 1719,-74"/>
<text text-anchor="middle" x="1682" y="-62" font-family="Helvetica,sans-Serif" font-size="10.00">BLEServer.h</text>
</a>
</g>
</g>
<!-- Node27&#45;&gt;Node29 -->
<g id="edge52" class="edge">
<title>Node27&#45;&gt;Node29</title>
<path fill="none" stroke="#63b8ff" d="M1523.6,-190.81C1614.13,-190.94 1793.51,-185.32 1833,-140 1866.36,-101.72 1784.94,-81.09 1729.14,-71.78"/>
<polygon fill="#63b8ff" stroke="#63b8ff" points="1729.48,-68.29 1719.05,-70.17 1728.37,-75.2 1729.48,-68.29"/>
</g>
<!-- Node30 -->
<g id="node30" class="node">
<title>Node30</title>
<g id="a_node30"><a xlink:title=" ">
<polygon fill="#e0e0e0" stroke="#999999" points="1603,-134.5 1537,-134.5 1537,-115.5 1603,-115.5 1603,-134.5"/>
<text text-anchor="middle" x="1570" y="-122.5" font-family="Helvetica,sans-Serif" font-size="10.00">BLEUtils.h</text>
</a>
</g>
</g>
<!-- Node27&#45;&gt;Node30 -->
<g id="edge53" class="edge">
<title>Node27&#45;&gt;Node30</title>
<path fill="none" stroke="#63b8ff" d="M1484.35,-181.37C1500.66,-170.82 1528.49,-152.84 1547.99,-140.23"/>
<polygon fill="#63b8ff" stroke="#63b8ff" points="1550.05,-143.07 1556.54,-134.7 1546.25,-137.19 1550.05,-143.07"/>
</g>
<!-- Node31 -->
<g id="node31" class="node">
<title>Node31</title>
<g id="a_node31"><a xlink:title=" ">
<polygon fill="#e0e0e0" stroke="#999999" points="1309,-74 1241,-74 1241,-55 1309,-55 1309,-74"/>
<text text-anchor="middle" x="1275" y="-62" font-family="Helvetica,sans-Serif" font-size="10.00">BLE2902.h</text>
</a>
</g>
</g>
<!-- Node27&#45;&gt;Node31 -->
<g id="edge54" class="edge">
<title>Node27&#45;&gt;Node31</title>
<path fill="none" stroke="#63b8ff" d="M1461.37,-181.28C1441.04,-162.97 1394.11,-121.29 1376,-110 1354.9,-96.85 1329.24,-85.59 1309.06,-77.69"/>
<polygon fill="#63b8ff" stroke="#63b8ff" points="1310.23,-74.39 1299.64,-74.09 1307.73,-80.93 1310.23,-74.39"/>
</g>
<!-- Node32 -->
<g id="node32" class="node">
<title>Node32</title>
<g id="a_node32"><a xlink:href="uart_8h.html" target="_top" xlink:title="BluetoothLE UART service setup and handling.">
<polygon fill="white" stroke="#666666" points="1518.5,-134.5 1423.5,-134.5 1423.5,-115.5 1518.5,-115.5 1518.5,-134.5"/>
<text text-anchor="middle" x="1471" y="-122.5" font-family="Helvetica,sans-Serif" font-size="10.00">bluetooth/uart.h</text>
</a>
</g>
</g>
<!-- Node27&#45;&gt;Node32 -->
<g id="edge55" class="edge">
<title>Node27&#45;&gt;Node32</title>
<path fill="none" stroke="#63b8ff" d="M1466.21,-181.37C1464.22,-172.07 1463.75,-156.98 1464.78,-144.9"/>
<polygon fill="#63b8ff" stroke="#63b8ff" points="1468.26,-145.29 1466.15,-134.91 1461.32,-144.34 1468.26,-145.29"/>
</g>
<!-- Node35 -->
<g id="node35" class="node">
<title>Node35</title>
<g id="a_node35"><a xlink:href="device_8h.html" target="_top" xlink:title="Bluetooth device services and device information.">
<polygon fill="white" stroke="#666666" points="1728.5,-134.5 1621.5,-134.5 1621.5,-115.5 1728.5,-115.5 1728.5,-134.5"/>
<text text-anchor="middle" x="1675" y="-122.5" font-family="Helvetica,sans-Serif" font-size="10.00">bluetooth/device.h</text>
</a>
</g>
</g>
<!-- Node27&#45;&gt;Node35 -->
<g id="edge63" class="edge">
<title>Node27&#45;&gt;Node35</title>
<path fill="none" stroke="#63b8ff" d="M1498.51,-181.37C1534.51,-170.08 1597.71,-150.25 1637.91,-137.64"/>
<polygon fill="#63b8ff" stroke="#63b8ff" points="1639.1,-140.93 1647.6,-134.6 1637.01,-134.25 1639.1,-140.93"/>
</g>
<!-- Node36 -->
<g id="node36" class="node">
<title>Node36</title>
<g id="a_node36"><a xlink:href="power__monitoring_8h.html" target="_top" xlink:title="Setup BluetoothLE power monitoring information.">
<polygon fill="white" stroke="#666666" points="1367,-134.5 1203,-134.5 1203,-115.5 1367,-115.5 1367,-134.5"/>
<text text-anchor="middle" x="1285" y="-122.5" font-family="Helvetica,sans-Serif" font-size="10.00">bluetooth/power_monitoring.h</text>
</a>
</g>
</g>
<!-- Node27&#45;&gt;Node36 -->
<g id="edge68" class="edge">
<title>Node27&#45;&gt;Node36</title>
<path fill="none" stroke="#63b8ff" d="M1445.92,-181.37C1413.38,-170.17 1356.45,-150.58 1319.76,-137.96"/>
<polygon fill="#63b8ff" stroke="#63b8ff" points="1320.58,-134.54 1309.98,-134.6 1318.3,-141.16 1320.58,-134.54"/>
</g>
<!-- Node32&#45;&gt;Node5 -->
<g id="edge56" class="edge">
<title>Node32&#45;&gt;Node5</title>
<path fill="none" stroke="#63b8ff" d="M1470.82,-115.24C1470.01,-100.39 1466.08,-70.39 1448,-55 1413.9,-25.97 1284.57,-15.62 1216.88,-12.14"/>
<polygon fill="#63b8ff" stroke="#63b8ff" points="1216.72,-8.63 1206.57,-11.64 1216.38,-15.62 1216.72,-8.63"/>
</g>
<!-- Node32&#45;&gt;Node27 -->
<g id="edge62" class="edge">
<title>Node32&#45;&gt;Node27</title>
<path fill="none" stroke="#63b8ff" d="M1475.85,-134.91C1477.8,-144.32 1478.25,-159.43 1477.19,-171.45"/>
<polygon fill="#63b8ff" stroke="#63b8ff" points="1473.72,-170.98 1475.79,-181.37 1480.65,-171.96 1473.72,-170.98"/>
</g>
<!-- Node32&#45;&gt;Node29 -->
<g id="edge58" class="edge">
<title>Node32&#45;&gt;Node29</title>
<path fill="none" stroke="#63b8ff" d="M1501.68,-115.49C1538.56,-105.27 1600.57,-88.08 1641.39,-76.76"/>
<polygon fill="#63b8ff" stroke="#63b8ff" points="1642.58,-80.06 1651.28,-74.02 1640.71,-73.32 1642.58,-80.06"/>
</g>
<!-- Node32&#45;&gt;Node31 -->
<g id="edge59" class="edge">
<title>Node32&#45;&gt;Node31</title>
<path fill="none" stroke="#63b8ff" d="M1442.5,-115.49C1408.39,-105.31 1351.13,-88.22 1313.21,-76.9"/>
<polygon fill="#63b8ff" stroke="#63b8ff" points="1314.12,-73.52 1303.53,-74.02 1312.12,-80.23 1314.12,-73.52"/>
</g>
<!-- Node33 -->
<g id="node33" class="node">
<title>Node33</title>
<g id="a_node33"><a xlink:title=" ">
<polygon fill="#e0e0e0" stroke="#999999" points="1438.5,-74 1327.5,-74 1327.5,-55 1438.5,-55 1438.5,-74"/>
<text text-anchor="middle" x="1383" y="-62" font-family="Helvetica,sans-Serif" font-size="10.00">BLECharacteristic.h</text>
</a>
</g>
</g>
<!-- Node32&#45;&gt;Node33 -->
<g id="edge57" class="edge">
<title>Node32&#45;&gt;Node33</title>
<path fill="none" stroke="#63b8ff" d="M1458.02,-115.37C1443.98,-106.04 1421.37,-91.01 1404.64,-79.88"/>
<polygon fill="#63b8ff" stroke="#63b8ff" points="1406.3,-76.79 1396.04,-74.17 1402.43,-82.62 1406.3,-76.79"/>
</g>
<!-- Node34 -->
<g id="node34" class="node">
<title>Node34</title>
<g id="a_node34"><a xlink:href="tones_8h.html" target="_top" xlink:title="Audio control for the onboard piezo buzzer.">
<polygon fill="white" stroke="#666666" points="1626.5,-74 1495.5,-74 1495.5,-55 1626.5,-55 1626.5,-74"/>
<text text-anchor="middle" x="1561" y="-62" font-family="Helvetica,sans-Serif" font-size="10.00">audio&#45;feedback/tones.h</text>
</a>
</g>
</g>
<!-- Node32&#45;&gt;Node34 -->
<g id="edge60" class="edge">
<title>Node32&#45;&gt;Node34</title>
<path fill="none" stroke="#63b8ff" d="M1484.28,-115.37C1498.64,-106.04 1521.76,-91.01 1538.87,-79.88"/>
<polygon fill="#63b8ff" stroke="#63b8ff" points="1541.19,-82.55 1547.67,-74.17 1537.37,-76.68 1541.19,-82.55"/>
</g>
<!-- Node34&#45;&gt;Node5 -->
<g id="edge61" class="edge">
<title>Node34&#45;&gt;Node5</title>
<path fill="none" stroke="#63b8ff" d="M1498.98,-54.98C1419.72,-44.1 1284.67,-25.56 1216.69,-16.22"/>
<polygon fill="#63b8ff" stroke="#63b8ff" points="1217.15,-12.76 1206.77,-14.86 1216.2,-19.69 1217.15,-12.76"/>
</g>
<!-- Node35&#45;&gt;Node5 -->
<g id="edge64" class="edge">
<title>Node35&#45;&gt;Node5</title>
<path fill="none" stroke="#63b8ff" d="M1690.04,-115.32C1711.61,-101.84 1746.75,-75.31 1728,-55 1693.53,-17.64 1339.89,-11.64 1216.89,-10.68"/>
<polygon fill="#63b8ff" stroke="#63b8ff" points="1216.76,-7.18 1206.74,-10.61 1216.71,-14.18 1216.76,-7.18"/>
</g>
<!-- Node35&#45;&gt;Node29 -->
<g id="edge66" class="edge">
<title>Node35&#45;&gt;Node29</title>
<path fill="none" stroke="#63b8ff" d="M1676.03,-115.37C1677,-107.25 1678.49,-94.81 1679.74,-84.39"/>
<polygon fill="#63b8ff" stroke="#63b8ff" points="1683.25,-84.51 1680.96,-74.17 1676.3,-83.68 1683.25,-84.51"/>
</g>
<!-- Node35&#45;&gt;Node31 -->
<g id="edge67" class="edge">
<title>Node35&#45;&gt;Node31</title>
<path fill="none" stroke="#63b8ff" d="M1639.47,-115.48C1630.54,-113.51 1620.94,-111.54 1612,-110 1482.7,-87.74 1448.6,-94.45 1319,-74 1318.9,-73.98 1318.8,-73.97 1318.7,-73.95"/>
<polygon fill="#63b8ff" stroke="#63b8ff" points="1319.51,-70.54 1309.07,-72.32 1318.34,-77.44 1319.51,-70.54"/>
</g>
<!-- Node35&#45;&gt;Node33 -->
<g id="edge65" class="edge">
<title>Node35&#45;&gt;Node33</title>
<path fill="none" stroke="#63b8ff" d="M1637.39,-115.47C1629.04,-113.62 1620.23,-111.71 1612,-110 1552.9,-97.69 1484.98,-84.63 1438.55,-75.87"/>
<polygon fill="#63b8ff" stroke="#63b8ff" points="1439.17,-72.42 1428.69,-74.01 1437.87,-79.3 1439.17,-72.42"/>
</g>
<!-- Node36&#45;&gt;Node5 -->
<g id="edge69" class="edge">
<title>Node36&#45;&gt;Node5</title>
<path fill="none" stroke="#63b8ff" d="M1275.39,-115.38C1264.6,-105.59 1246.66,-89.03 1232,-74 1216.9,-58.52 1200.48,-40.04 1189.16,-27.02"/>
<polygon fill="#63b8ff" stroke="#63b8ff" points="1191.71,-24.61 1182.52,-19.34 1186.41,-29.19 1191.71,-24.61"/>
</g>
<!-- Node36&#45;&gt;Node14 -->
<g id="edge74" class="edge">
<title>Node36&#45;&gt;Node14</title>
<path fill="none" stroke="#63b8ff" d="M1248.36,-115.49C1203.75,-105.14 1128.37,-87.64 1079.66,-76.33"/>
<polygon fill="#63b8ff" stroke="#63b8ff" points="1080.22,-72.87 1069.69,-74.02 1078.64,-79.69 1080.22,-72.87"/>
</g>
<!-- Node36&#45;&gt;Node16 -->
<g id="edge73" class="edge">
<title>Node36&#45;&gt;Node16</title>
<path fill="none" stroke="#63b8ff" d="M1209.24,-115.49C1111.83,-104.56 943.42,-85.65 844,-74.48"/>
<polygon fill="#63b8ff" stroke="#63b8ff" points="844.34,-71 834.01,-73.36 843.56,-77.95 844.34,-71"/>
</g>
<!-- Node36&#45;&gt;Node29 -->
<g id="edge71" class="edge">
<title>Node36&#45;&gt;Node29</title>
<path fill="none" stroke="#63b8ff" d="M1350.46,-115.5C1418.85,-106.43 1529.5,-91.23 1634.7,-74.16"/>
<polygon fill="#63b8ff" stroke="#63b8ff" points="1635.56,-77.56 1644.87,-72.5 1634.43,-70.65 1635.56,-77.56"/>
</g>
<!-- Node36&#45;&gt;Node31 -->
<g id="edge72" class="edge">
<title>Node36&#45;&gt;Node31</title>
<path fill="none" stroke="#63b8ff" d="M1283.52,-115.37C1282.12,-107.16 1279.96,-94.54 1278.17,-84.05"/>
<polygon fill="#63b8ff" stroke="#63b8ff" points="1281.62,-83.43 1276.48,-74.17 1274.72,-84.61 1281.62,-83.43"/>
</g>
<!-- Node36&#45;&gt;Node33 -->
<g id="edge70" class="edge">
<title>Node36&#45;&gt;Node33</title>
<path fill="none" stroke="#63b8ff" d="M1299.46,-115.37C1315.31,-105.91 1340.97,-90.59 1359.68,-79.42"/>
<polygon fill="#63b8ff" stroke="#63b8ff" points="1361.69,-82.3 1368.48,-74.17 1358.1,-76.29 1361.69,-82.3"/>
</g>
<!-- Node37&#45;&gt;Node10 -->
<g id="edge81" class="edge">
<title>Node37&#45;&gt;Node10</title>
<path fill="none" stroke="#63b8ff" d="M855.35,-175.95C914.06,-164.06 996.92,-147.28 1050.06,-136.52"/>
<polygon fill="#63b8ff" stroke="#63b8ff" points="1050.84,-139.93 1059.95,-134.52 1049.45,-133.07 1050.84,-139.93"/>
</g>
<!-- Node37&#45;&gt;Node18 -->
<g id="edge77" class="edge">
<title>Node37&#45;&gt;Node18</title>
<path fill="none" stroke="#63b8ff" d="M789.55,-175.8C791.85,-166.6 794.87,-154.53 797.36,-144.58"/>
<polygon fill="#63b8ff" stroke="#63b8ff" points="800.76,-145.39 799.79,-134.84 793.97,-143.7 800.76,-145.39"/>
</g>
<!-- Node37&#45;&gt;Node19 -->
<g id="edge80" class="edge">
<title>Node37&#45;&gt;Node19</title>
<path fill="none" stroke="#63b8ff" d="M761.42,-175.95C742.47,-165.13 716.42,-150.24 697.7,-139.54"/>
<polygon fill="#63b8ff" stroke="#63b8ff" points="699.32,-136.44 688.91,-134.52 695.85,-142.52 699.32,-136.44"/>
</g>
<!-- Node37&#45;&gt;Node21 -->
<g id="edge78" class="edge">
<title>Node37&#45;&gt;Node21</title>
<path fill="none" stroke="#63b8ff" d="M708.93,-179.93C651.81,-171.6 572.35,-158.19 504,-140 501.51,-139.34 498.95,-138.58 496.39,-137.78"/>
<polygon fill="#63b8ff" stroke="#63b8ff" points="497.25,-134.38 486.66,-134.51 495.02,-141.01 497.25,-134.38"/>
</g>
<!-- Node37&#45;&gt;Node22 -->
<g id="edge79" class="edge">
<title>Node37&#45;&gt;Node22</title>
<path fill="none" stroke="#63b8ff" d="M735.96,-175.95C694.57,-164.34 636.54,-148.05 598.14,-137.27"/>
<polygon fill="#63b8ff" stroke="#63b8ff" points="598.92,-133.85 588.34,-134.52 597.02,-140.59 598.92,-133.85"/>
</g>
<!-- Node38&#45;&gt;Node10 -->
<g id="edge83" class="edge">
<title>Node38&#45;&gt;Node10</title>
<path fill="none" stroke="#63b8ff" d="M1215.18,-175.95C1189.97,-164.83 1155.07,-149.42 1130.71,-138.67"/>
<polygon fill="#63b8ff" stroke="#63b8ff" points="1131.86,-135.35 1121.3,-134.52 1129.03,-141.76 1131.86,-135.35"/>
</g>
<!-- Node39&#45;&gt;Node10 -->
<g id="edge85" class="edge">
<title>Node39&#45;&gt;Node10</title>
<path fill="none" stroke="#63b8ff" d="M1102,-175.8C1102,-166.7 1102,-154.79 1102,-144.9"/>
<polygon fill="#63b8ff" stroke="#63b8ff" points="1105.5,-144.84 1102,-134.84 1098.5,-144.84 1105.5,-144.84"/>
</g>
</g>
</svg>
