<?xml version="1.0" encoding="UTF-8" standalone="no"?>
<!DOCTYPE svg PUBLIC "-//W3C//DTD SVG 1.1//EN"
 "http://www.w3.org/Graphics/SVG/1.1/DTD/svg11.dtd">
<!-- Generated by graphviz version 2.43.0 (0)
 -->
<!-- Title: firmware/wombat/src/mqtt_stack.cpp Pages: 1 -->
<svg width="1399pt" height="445pt"
 viewBox="0.00 0.00 1398.80 445.00" xmlns="http://www.w3.org/2000/svg" xmlns:xlink="http://www.w3.org/1999/xlink">
<g id="graph0" class="graph" transform="scale(1 1) rotate(0) translate(4 441)">
<title>firmware/wombat/src/mqtt_stack.cpp</title>
<!-- Node1 -->
<g id="node1" class="node">
<title>Node1</title>
<g id="a_node1"><a xlink:title=" ">
<polygon fill="#999999" stroke="#666666" points="195,-437 75,-437 75,-407 195,-407 195,-437"/>
<text text-anchor="start" x="83" y="-425" font-family="Helvetica,sans-Serif" font-size="10.00">firmware/wombat/src</text>
<text text-anchor="middle" x="135" y="-414" font-family="Helvetica,sans-Serif" font-size="10.00">/mqtt_stack.cpp</text>
</a>
</g>
</g>
<!-- Node2 -->
<g id="node2" class="node">
<title>Node2</title>
<g id="a_node2"><a xlink:href="_utils_8h.html" target="_top" xlink:title=" ">
<polygon fill="white" stroke="#666666" points="214,-250 166,-250 166,-231 214,-231 214,-250"/>
<text text-anchor="middle" x="190" y="-238" font-family="Helvetica,sans-Serif" font-size="10.00">Utils.h</text>
</a>
</g>
</g>
<!-- Node1&#45;&gt;Node2 -->
<g id="edge1" class="edge">
<title>Node1&#45;&gt;Node2</title>
<path fill="none" stroke="#63b8ff" d="M139.32,-406.91C149.18,-374.71 173.39,-295.7 184.39,-259.8"/>
<polygon fill="#63b8ff" stroke="#63b8ff" points="187.77,-260.72 187.35,-250.13 181.08,-258.67 187.77,-260.72"/>
</g>
<!-- Node6 -->
<g id="node6" class="node">
<title>Node6</title>
<g id="a_node6"><a xlink:href="globals_8h.html" target="_top" xlink:title=" ">
<polygon fill="white" stroke="#666666" points="124.5,-195 63.5,-195 63.5,-176 124.5,-176 124.5,-195"/>
<text text-anchor="middle" x="94" y="-183" font-family="Helvetica,sans-Serif" font-size="10.00">globals.h</text>
</a>
</g>
</g>
<!-- Node1&#45;&gt;Node6 -->
<g id="edge16" class="edge">
<title>Node1&#45;&gt;Node6</title>
<path fill="none" stroke="#63b8ff" d="M132.5,-406.68C125.41,-366.17 105.22,-250.68 97.27,-205.22"/>
<polygon fill="#63b8ff" stroke="#63b8ff" points="100.7,-204.5 95.53,-195.26 93.81,-205.71 100.7,-204.5"/>
</g>
<!-- Node7 -->
<g id="node7" class="node">
<title>Node7</title>
<g id="a_node7"><a xlink:title=" ">
<polygon fill="#e0e0e0" stroke="#999999" points="130,-140 0,-140 0,-110 130,-110 130,-140"/>
<text text-anchor="start" x="8" y="-128" font-family="Helvetica,sans-Serif" font-size="10.00">SparkFun_u&#45;blox_SARA</text>
<text text-anchor="middle" x="65" y="-117" font-family="Helvetica,sans-Serif" font-size="10.00">&#45;R5_Arduino_Library.h</text>
</a>
</g>
</g>
<!-- Node1&#45;&gt;Node7 -->
<g id="edge15" class="edge">
<title>Node1&#45;&gt;Node7</title>
<path fill="none" stroke="#63b8ff" d="M111.3,-406.98C81.73,-387.49 35,-349.23 35,-302 35,-302 35,-302 35,-239.5 35,-207.51 46.28,-172.08 55,-149.45"/>
<polygon fill="#63b8ff" stroke="#63b8ff" points="58.31,-150.6 58.78,-140.02 51.82,-148 58.31,-150.6"/>
</g>
<!-- Node12 -->
<g id="node12" class="node">
<title>Node12</title>
<g id="a_node12"><a xlink:href="_device_config_8h.html" target="_top" xlink:title="Node configuration options.">
<polygon fill="white" stroke="#666666" points="1132,-250 1042,-250 1042,-231 1132,-231 1132,-250"/>
<text text-anchor="middle" x="1087" y="-238" font-family="Helvetica,sans-Serif" font-size="10.00">DeviceConfig.h</text>
</a>
</g>
</g>
<!-- Node1&#45;&gt;Node12 -->
<g id="edge12" class="edge">
<title>Node1&#45;&gt;Node12</title>
<path fill="none" stroke="#63b8ff" d="M195.06,-420.57C431.64,-418.24 1290.21,-403.77 1370,-316 1378.97,-306.13 1378.66,-296.13 1370,-286 1341.29,-252.42 1216.15,-244.02 1142.24,-242.02"/>
<polygon fill="#63b8ff" stroke="#63b8ff" points="1142.25,-238.52 1132.16,-241.78 1142.08,-245.52 1142.25,-238.52"/>
</g>
<!-- Node13 -->
<g id="node13" class="node">
<title>Node13</title>
<g id="a_node13"><a xlink:href="_c_l_i_8h.html" target="_top" xlink:title="FreeRTOS CLI handler.">
<polygon fill="white" stroke="#666666" points="785.5,-371 730.5,-371 730.5,-352 785.5,-352 785.5,-371"/>
<text text-anchor="middle" x="758" y="-359" font-family="Helvetica,sans-Serif" font-size="10.00">cli/CLI.h</text>
</a>
</g>
</g>
<!-- Node1&#45;&gt;Node13 -->
<g id="edge17" class="edge">
<title>Node1&#45;&gt;Node13</title>
<path fill="none" stroke="#63b8ff" d="M195.02,-415.36C322.24,-403.42 615.9,-375.84 720.31,-366.04"/>
<polygon fill="#63b8ff" stroke="#63b8ff" points="720.76,-369.51 730.38,-365.09 720.1,-362.54 720.76,-369.51"/>
</g>
<!-- Node3 -->
<g id="node3" class="node">
<title>Node3</title>
<g id="a_node3"><a xlink:title=" ">
<polygon fill="#e0e0e0" stroke="#999999" points="199,-195 143,-195 143,-176 199,-176 199,-195"/>
<text text-anchor="middle" x="171" y="-183" font-family="Helvetica,sans-Serif" font-size="10.00">stddef.h</text>
</a>
</g>
</g>
<!-- Node2&#45;&gt;Node3 -->
<g id="edge2" class="edge">
<title>Node2&#45;&gt;Node3</title>
<path fill="none" stroke="#63b8ff" d="M186.86,-230.75C184.32,-223.65 180.64,-213.4 177.47,-204.56"/>
<polygon fill="#63b8ff" stroke="#63b8ff" points="180.75,-203.32 174.08,-195.09 174.16,-205.68 180.75,-203.32"/>
</g>
<!-- Node4 -->
<g id="node4" class="node">
<title>Node4</title>
<g id="a_node4"><a xlink:title=" ">
<polygon fill="#e0e0e0" stroke="#999999" points="411.5,-195 328.5,-195 328.5,-176 411.5,-176 411.5,-195"/>
<text text-anchor="middle" x="370" y="-183" font-family="Helvetica,sans-Serif" font-size="10.00">ArduinoJson.h</text>
</a>
</g>
</g>
<!-- Node2&#45;&gt;Node4 -->
<g id="edge3" class="edge">
<title>Node2&#45;&gt;Node4</title>
<path fill="none" stroke="#63b8ff" d="M214.28,-232.35C244.23,-223.53 295.55,-208.42 331.05,-197.97"/>
<polygon fill="#63b8ff" stroke="#63b8ff" points="332.46,-201.2 341.06,-195.02 330.48,-194.49 332.46,-201.2"/>
</g>
<!-- Node5 -->
<g id="node5" class="node">
<title>Node5</title>
<g id="a_node5"><a xlink:title=" ">
<polygon fill="#e0e0e0" stroke="#999999" points="310.5,-195 217.5,-195 217.5,-176 310.5,-176 310.5,-195"/>
<text text-anchor="middle" x="264" y="-183" font-family="Helvetica,sans-Serif" font-size="10.00">dpiclimate&#45;12.h</text>
</a>
</g>
</g>
<!-- Node2&#45;&gt;Node5 -->
<g id="edge4" class="edge">
<title>Node2&#45;&gt;Node5</title>
<path fill="none" stroke="#63b8ff" d="M201.89,-230.98C213.15,-222.92 230.29,-210.65 243.71,-201.03"/>
<polygon fill="#63b8ff" stroke="#63b8ff" points="245.8,-203.84 251.89,-195.17 241.73,-198.15 245.8,-203.84"/>
</g>
<!-- Node2&#45;&gt;Node6 -->
<g id="edge5" class="edge">
<title>Node2&#45;&gt;Node6</title>
<path fill="none" stroke="#63b8ff" d="M174.58,-230.98C159.55,-222.69 136.46,-209.94 118.84,-200.22"/>
<polygon fill="#63b8ff" stroke="#63b8ff" points="120.15,-196.94 109.7,-195.17 116.77,-203.07 120.15,-196.94"/>
</g>
<!-- Node6&#45;&gt;Node7 -->
<g id="edge6" class="edge">
<title>Node6&#45;&gt;Node7</title>
<path fill="none" stroke="#63b8ff" d="M89.72,-175.87C86.22,-168.81 81.11,-158.5 76.44,-149.08"/>
<polygon fill="#63b8ff" stroke="#63b8ff" points="79.57,-147.52 72,-140.11 73.3,-150.63 79.57,-147.52"/>
</g>
<!-- Node8 -->
<g id="node8" class="node">
<title>Node8</title>
<g id="a_node8"><a xlink:href="_c_a_t___m1_8h.html" target="_top" xlink:title=" ">
<polygon fill="white" stroke="#666666" points="572.5,-134.5 507.5,-134.5 507.5,-115.5 572.5,-115.5 572.5,-134.5"/>
<text text-anchor="middle" x="540" y="-122.5" font-family="Helvetica,sans-Serif" font-size="10.00">CAT_M1.h</text>
</a>
</g>
</g>
<!-- Node6&#45;&gt;Node8 -->
<g id="edge7" class="edge">
<title>Node6&#45;&gt;Node8</title>
<path fill="none" stroke="#63b8ff" d="M124.52,-177.73C127.72,-177.11 130.92,-176.52 134,-176 265.68,-153.94 422.92,-137.32 497.16,-130.04"/>
<polygon fill="#63b8ff" stroke="#63b8ff" points="497.88,-133.49 507.5,-129.03 497.2,-126.52 497.88,-133.49"/>
</g>
<!-- Node9 -->
<g id="node9" class="node">
<title>Node9</title>
<g id="a_node9"><a xlink:title=" ">
<polygon fill="#e0e0e0" stroke="#999999" points="595,-19 547,-19 547,0 595,0 595,-19"/>
<text text-anchor="middle" x="571" y="-7" font-family="Helvetica,sans-Serif" font-size="10.00">Wire.h</text>
</a>
</g>
</g>
<!-- Node8&#45;&gt;Node9 -->
<g id="edge8" class="edge">
<title>Node8&#45;&gt;Node9</title>
<path fill="none" stroke="#63b8ff" d="M542.33,-115.47C547.33,-97.15 559.21,-53.68 566,-28.81"/>
<polygon fill="#63b8ff" stroke="#63b8ff" points="569.38,-29.7 568.64,-19.13 562.63,-27.85 569.38,-29.7"/>
</g>
<!-- Node10 -->
<g id="node10" class="node">
<title>Node10</title>
<g id="a_node10"><a xlink:href="_t_c_a9534_8h.html" target="_top" xlink:title=" ">
<polygon fill="white" stroke="#666666" points="636,-74 568,-74 568,-55 636,-55 636,-74"/>
<text text-anchor="middle" x="602" y="-62" font-family="Helvetica,sans-Serif" font-size="10.00">TCA9534.h</text>
</a>
</g>
</g>
<!-- Node8&#45;&gt;Node10 -->
<g id="edge9" class="edge">
<title>Node8&#45;&gt;Node10</title>
<path fill="none" stroke="#63b8ff" d="M549.15,-115.37C558.67,-106.38 573.8,-92.11 585.43,-81.14"/>
<polygon fill="#63b8ff" stroke="#63b8ff" points="587.94,-83.58 592.81,-74.17 583.14,-78.48 587.94,-83.58"/>
</g>
<!-- Node10&#45;&gt;Node9 -->
<g id="edge11" class="edge">
<title>Node10&#45;&gt;Node9</title>
<path fill="none" stroke="#63b8ff" d="M596.88,-54.75C592.64,-47.49 586.47,-36.95 581.22,-27.98"/>
<polygon fill="#63b8ff" stroke="#63b8ff" points="584.09,-25.95 576.02,-19.09 578.05,-29.49 584.09,-25.95"/>
</g>
<!-- Node11 -->
<g id="node11" class="node">
<title>Node11</title>
<g id="a_node11"><a xlink:title=" ">
<polygon fill="#e0e0e0" stroke="#999999" points="1118.5,-19 1055.5,-19 1055.5,0 1118.5,0 1118.5,-19"/>
<text text-anchor="middle" x="1087" y="-7" font-family="Helvetica,sans-Serif" font-size="10.00">Arduino.h</text>
</a>
</g>
</g>
<!-- Node10&#45;&gt;Node11 -->
<g id="edge10" class="edge">
<title>Node10&#45;&gt;Node11</title>
<path fill="none" stroke="#63b8ff" d="M636.1,-59.77C722.77,-50.3 951.24,-25.34 1045.46,-15.04"/>
<polygon fill="#63b8ff" stroke="#63b8ff" points="1045.92,-18.51 1055.48,-13.94 1045.16,-11.55 1045.92,-18.51"/>
</g>
<!-- Node12&#45;&gt;Node4 -->
<g id="edge14" class="edge">
<title>Node12&#45;&gt;Node4</title>
<path fill="none" stroke="#63b8ff" d="M1041.88,-236.16C915.08,-226.79 556.08,-200.25 421.66,-190.32"/>
<polygon fill="#63b8ff" stroke="#63b8ff" points="421.85,-186.82 411.62,-189.58 421.34,-193.8 421.85,-186.82"/>
</g>
<!-- Node12&#45;&gt;Node11 -->
<g id="edge13" class="edge">
<title>Node12&#45;&gt;Node11</title>
<path fill="none" stroke="#63b8ff" d="M1087,-230.8C1087,-197.36 1087,-76.59 1087,-29.49"/>
<polygon fill="#63b8ff" stroke="#63b8ff" points="1090.5,-29.21 1087,-19.21 1083.5,-29.21 1090.5,-29.21"/>
</g>
<!-- Node13&#45;&gt;Node11 -->
<g id="edge18" class="edge">
<title>Node13&#45;&gt;Node11</title>
<path fill="none" stroke="#63b8ff" d="M785.5,-360.36C898.68,-359.53 1324.71,-353.9 1370,-316 1396.2,-294.07 1389,-275.67 1389,-241.5 1389,-241.5 1389,-241.5 1389,-124 1389,-69.08 1211.77,-31.7 1128.85,-17.21"/>
<polygon fill="#63b8ff" stroke="#63b8ff" points="1129.2,-13.72 1118.75,-15.48 1128.01,-20.62 1129.2,-13.72"/>
</g>
<!-- Node14 -->
<g id="node14" class="node">
<title>Node14</title>
<g id="a_node14"><a xlink:title=" ">
<polygon fill="#e0e0e0" stroke="#999999" points="785.5,-250 672.5,-250 672.5,-231 785.5,-231 785.5,-250"/>
<text text-anchor="middle" x="729" y="-238" font-family="Helvetica,sans-Serif" font-size="10.00">freertos/FreeRTOS.h</text>
</a>
</g>
</g>
<!-- Node13&#45;&gt;Node14 -->
<g id="edge19" class="edge">
<title>Node13&#45;&gt;Node14</title>
<path fill="none" stroke="#63b8ff" d="M767.41,-351.65C781.2,-337.55 804.03,-309.23 792,-286 784.96,-272.41 771.66,-262.09 759.08,-254.82"/>
<polygon fill="#63b8ff" stroke="#63b8ff" points="760.62,-251.68 750.15,-250.07 757.33,-257.86 760.62,-251.68"/>
</g>
<!-- Node15 -->
<g id="node15" class="node">
<title>Node15</title>
<g id="a_node15"><a xlink:title=" ">
<polygon fill="#e0e0e0" stroke="#999999" points="390.5,-250 283.5,-250 283.5,-231 390.5,-231 390.5,-250"/>
<text text-anchor="middle" x="337" y="-238" font-family="Helvetica,sans-Serif" font-size="10.00">cli/FreeRTOS_CLI.h</text>
</a>
</g>
</g>
<!-- Node13&#45;&gt;Node15 -->
<g id="edge20" class="edge">
<title>Node13&#45;&gt;Node15</title>
<path fill="none" stroke="#63b8ff" d="M730.49,-360.47C622.14,-360.08 228.88,-355.9 192,-316 162.22,-283.79 221.67,-263.27 273.2,-252.09"/>
<polygon fill="#63b8ff" stroke="#63b8ff" points="273.96,-255.51 283.04,-250.05 272.54,-248.66 273.96,-255.51"/>
</g>
<!-- Node16 -->
<g id="node16" class="node">
<title>Node16</title>
<g id="a_node16"><a xlink:href="cat-m1_8h.html" target="_top" xlink:title="CAT&#45;M1 CLI command request and response handler.">
<polygon fill="white" stroke="#666666" points="611,-310.5 479,-310.5 479,-291.5 611,-291.5 611,-310.5"/>
<text text-anchor="middle" x="545" y="-298.5" font-family="Helvetica,sans-Serif" font-size="10.00">cli/peripherals/cat&#45;m1.h</text>
</a>
</g>
</g>
<!-- Node13&#45;&gt;Node16 -->
<g id="edge21" class="edge">
<title>Node13&#45;&gt;Node16</title>
<path fill="none" stroke="#63b8ff" d="M730.15,-352.85C693.3,-342.73 628.06,-324.81 585.69,-313.17"/>
<polygon fill="#63b8ff" stroke="#63b8ff" points="586.53,-309.78 575.96,-310.5 584.68,-316.53 586.53,-309.78"/>
</g>
<!-- Node19 -->
<g id="node19" class="node">
<title>Node19</title>
<g id="a_node19"><a xlink:href="sdi12_8h.html" target="_top" xlink:title="SDI&#45;12 command line interface handler.">
<polygon fill="white" stroke="#666666" points="325,-310.5 201,-310.5 201,-291.5 325,-291.5 325,-310.5"/>
<text text-anchor="middle" x="263" y="-298.5" font-family="Helvetica,sans-Serif" font-size="10.00">cli/peripherals/sdi12.h</text>
</a>
</g>
</g>
<!-- Node13&#45;&gt;Node19 -->
<g id="edge27" class="edge">
<title>Node13&#45;&gt;Node19</title>
<path fill="none" stroke="#63b8ff" d="M730.38,-357.92C664.68,-351.7 493.98,-334.94 352,-316 343.21,-314.83 333.96,-313.49 324.87,-312.11"/>
<polygon fill="#63b8ff" stroke="#63b8ff" points="325.12,-308.61 314.71,-310.55 324.06,-315.53 325.12,-308.61"/>
</g>
<!-- Node20 -->
<g id="node20" class="node">
<title>Node20</title>
<g id="a_node20"><a xlink:href="cli__power_8h.html" target="_top" xlink:title=" ">
<polygon fill="white" stroke="#666666" points="461,-316 361,-316 361,-286 461,-286 461,-316"/>
<text text-anchor="start" x="369" y="-304" font-family="Helvetica,sans-Serif" font-size="10.00">cli/peripherals/cli</text>
<text text-anchor="middle" x="411" y="-293" font-family="Helvetica,sans-Serif" font-size="10.00">_power.h</text>
</a>
</g>
</g>
<!-- Node13&#45;&gt;Node20 -->
<g id="edge35" class="edge">
<title>Node13&#45;&gt;Node20</title>
<path fill="none" stroke="#63b8ff" d="M730.47,-356.99C680.73,-350.49 572.37,-335.6 471.23,-316.15"/>
<polygon fill="#63b8ff" stroke="#63b8ff" points="471.64,-312.66 461.15,-314.19 470.3,-319.53 471.64,-312.66"/>
</g>
<!-- Node21 -->
<g id="node21" class="node">
<title>Node21</title>
<g id="a_node21"><a xlink:href="sd__card_8h.html" target="_top" xlink:title=" ">
<polygon fill="white" stroke="#666666" points="939,-316 839,-316 839,-286 939,-286 939,-316"/>
<text text-anchor="start" x="847" y="-304" font-family="Helvetica,sans-Serif" font-size="10.00">cli/peripherals/sd</text>
<text text-anchor="middle" x="889" y="-293" font-family="Helvetica,sans-Serif" font-size="10.00">_card.h</text>
</a>
</g>
</g>
<!-- Node13&#45;&gt;Node21 -->
<g id="edge41" class="edge">
<title>Node13&#45;&gt;Node21</title>
<path fill="none" stroke="#63b8ff" d="M777.05,-351.99C795.65,-343.68 824.56,-330.78 848.34,-320.16"/>
<polygon fill="#63b8ff" stroke="#63b8ff" points="849.8,-323.34 857.51,-316.06 846.95,-316.95 849.8,-323.34"/>
</g>
<!-- Node23 -->
<g id="node23" class="node">
<title>Node23</title>
<g id="a_node23"><a xlink:href="acquisition__intervals_8h.html" target="_top" xlink:title="Handles the time between measurements and uplinks by the device over LTE.">
<polygon fill="white" stroke="#666666" points="783,-316 629,-316 629,-286 783,-286 783,-316"/>
<text text-anchor="start" x="637" y="-304" font-family="Helvetica,sans-Serif" font-size="10.00">cli/device_config/acquisition</text>
<text text-anchor="middle" x="706" y="-293" font-family="Helvetica,sans-Serif" font-size="10.00">_intervals.h</text>
</a>
</g>
</g>
<!-- Node13&#45;&gt;Node23 -->
<g id="edge44" class="edge">
<title>Node13&#45;&gt;Node23</title>
<path fill="none" stroke="#63b8ff" d="M750.33,-351.87C743.73,-344.44 733.93,-333.42 725.22,-323.62"/>
<polygon fill="#63b8ff" stroke="#63b8ff" points="727.81,-321.26 718.55,-316.11 722.57,-325.91 727.81,-321.26"/>
</g>
<!-- Node24 -->
<g id="node24" class="node">
<title>Node24</title>
<g id="a_node24"><a xlink:href="mqtt__cli_8h.html" target="_top" xlink:title="MQTT setup and configuration through the CLI.">
<polygon fill="white" stroke="#666666" points="1081,-316 957,-316 957,-286 1081,-286 1081,-316"/>
<text text-anchor="start" x="965" y="-304" font-family="Helvetica,sans-Serif" font-size="10.00">cli/device_config/mqtt</text>
<text text-anchor="middle" x="1019" y="-293" font-family="Helvetica,sans-Serif" font-size="10.00">_cli.h</text>
</a>
</g>
</g>
<!-- Node13&#45;&gt;Node24 -->
<g id="edge50" class="edge">
<title>Node13&#45;&gt;Node24</title>
<path fill="none" stroke="#63b8ff" d="M785.93,-354.24C823.98,-345.71 893.46,-330.14 946.7,-318.21"/>
<polygon fill="#63b8ff" stroke="#63b8ff" points="947.78,-321.55 956.77,-315.95 946.25,-314.72 947.78,-321.55"/>
</g>
<!-- Node25 -->
<g id="node25" class="node">
<title>Node25</title>
<g id="a_node25"><a xlink:href="ftp__cli_8h.html" target="_top" xlink:title="FTP setup and configuration through the CLI.">
<polygon fill="white" stroke="#666666" points="1212.5,-316 1099.5,-316 1099.5,-286 1212.5,-286 1212.5,-316"/>
<text text-anchor="start" x="1107.5" y="-304" font-family="Helvetica,sans-Serif" font-size="10.00">cli/device_config/ftp</text>
<text text-anchor="middle" x="1156" y="-293" font-family="Helvetica,sans-Serif" font-size="10.00">_cli.h</text>
</a>
</g>
</g>
<!-- Node13&#45;&gt;Node25 -->
<g id="edge52" class="edge">
<title>Node13&#45;&gt;Node25</title>
<path fill="none" stroke="#63b8ff" d="M785.65,-357.51C841.18,-351.36 970.36,-336.27 1089.18,-316.06"/>
<polygon fill="#63b8ff" stroke="#63b8ff" points="1089.91,-319.48 1099.17,-314.34 1088.72,-312.58 1089.91,-319.48"/>
</g>
<!-- Node26 -->
<g id="node26" class="node">
<title>Node26</title>
<g id="a_node26"><a xlink:href="config__cli_8h.html" target="_top" xlink:title=" ">
<polygon fill="white" stroke="#666666" points="1361,-316 1231,-316 1231,-286 1361,-286 1361,-316"/>
<text text-anchor="start" x="1239" y="-304" font-family="Helvetica,sans-Serif" font-size="10.00">cli/device_config/config</text>
<text text-anchor="middle" x="1296" y="-293" font-family="Helvetica,sans-Serif" font-size="10.00">_cli.h</text>
</a>
</g>
</g>
<!-- Node13&#45;&gt;Node26 -->
<g id="edge54" class="edge">
<title>Node13&#45;&gt;Node26</title>
<path fill="none" stroke="#63b8ff" d="M785.76,-358.7C856.45,-353.92 1049.15,-339.74 1220.65,-315.96"/>
<polygon fill="#63b8ff" stroke="#63b8ff" points="1221.19,-319.41 1230.61,-314.56 1220.22,-312.48 1221.19,-319.41"/>
</g>
<!-- Node16&#45;&gt;Node8 -->
<g id="edge26" class="edge">
<title>Node16&#45;&gt;Node8</title>
<path fill="none" stroke="#63b8ff" d="M570.18,-291.38C596.94,-280.56 634.13,-259.87 624,-231 610.97,-193.86 578.66,-160.09 558.13,-141.37"/>
<polygon fill="#63b8ff" stroke="#63b8ff" points="560.45,-138.75 550.64,-134.73 555.8,-143.99 560.45,-138.75"/>
</g>
<!-- Node16&#45;&gt;Node14 -->
<g id="edge22" class="edge">
<title>Node16&#45;&gt;Node14</title>
<path fill="none" stroke="#63b8ff" d="M571.76,-291.49C603.64,-281.36 657.07,-264.37 692.68,-253.05"/>
<polygon fill="#63b8ff" stroke="#63b8ff" points="693.74,-256.38 702.21,-250.02 691.62,-249.71 693.74,-256.38"/>
</g>
<!-- Node16&#45;&gt;Node15 -->
<g id="edge25" class="edge">
<title>Node16&#45;&gt;Node15</title>
<path fill="none" stroke="#63b8ff" d="M514.76,-291.49C478.4,-281.27 417.27,-264.08 377.03,-252.76"/>
<polygon fill="#63b8ff" stroke="#63b8ff" points="377.86,-249.35 367.28,-250.02 375.96,-256.09 377.86,-249.35"/>
</g>
<!-- Node17 -->
<g id="node17" class="node">
<title>Node17</title>
<g id="a_node17"><a xlink:title=" ">
<polygon fill="#e0e0e0" stroke="#999999" points="508.5,-250 447.5,-250 447.5,-231 508.5,-231 508.5,-250"/>
<text text-anchor="middle" x="478" y="-238" font-family="Helvetica,sans-Serif" font-size="10.00">Stream.h</text>
</a>
</g>
</g>
<!-- Node16&#45;&gt;Node17 -->
<g id="edge23" class="edge">
<title>Node16&#45;&gt;Node17</title>
<path fill="none" stroke="#63b8ff" d="M535.11,-291.37C524.72,-282.3 508.16,-267.84 495.55,-256.82"/>
<polygon fill="#63b8ff" stroke="#63b8ff" points="497.76,-254.11 487.93,-250.17 493.16,-259.38 497.76,-254.11"/>
</g>
<!-- Node18 -->
<g id="node18" class="node">
<title>Node18</title>
<g id="a_node18"><a xlink:title=" ">
<polygon fill="#e0e0e0" stroke="#999999" points="615.5,-250 526.5,-250 526.5,-231 615.5,-231 615.5,-250"/>
<text text-anchor="middle" x="571" y="-238" font-family="Helvetica,sans-Serif" font-size="10.00">StreamString.h</text>
</a>
</g>
</g>
<!-- Node16&#45;&gt;Node18 -->
<g id="edge24" class="edge">
<title>Node16&#45;&gt;Node18</title>
<path fill="none" stroke="#63b8ff" d="M548.84,-291.37C552.56,-282.99 558.33,-270.01 563.05,-259.39"/>
<polygon fill="#63b8ff" stroke="#63b8ff" points="566.28,-260.73 567.15,-250.17 559.89,-257.88 566.28,-260.73"/>
</g>
<!-- Node19&#45;&gt;Node2 -->
<g id="edge34" class="edge">
<title>Node19&#45;&gt;Node2</title>
<path fill="none" stroke="#63b8ff" d="M252.23,-291.37C240.8,-282.21 222.52,-267.56 208.72,-256.51"/>
<polygon fill="#63b8ff" stroke="#63b8ff" points="210.81,-253.69 200.82,-250.17 206.43,-259.15 210.81,-253.69"/>
</g>
<!-- Node19&#45;&gt;Node5 -->
<g id="edge32" class="edge">
<title>Node19&#45;&gt;Node5</title>
<path fill="none" stroke="#63b8ff" d="M263.08,-291.47C263.24,-273.23 263.62,-230.07 263.84,-205.14"/>
<polygon fill="#63b8ff" stroke="#63b8ff" points="267.34,-205.16 263.92,-195.13 260.34,-205.1 267.34,-205.16"/>
</g>
<!-- Node19&#45;&gt;Node14 -->
<g id="edge28" class="edge">
<title>Node19&#45;&gt;Node14</title>
<path fill="none" stroke="#63b8ff" d="M315.19,-291.45C327.26,-289.56 340.07,-287.64 352,-286 460.35,-271.09 586.64,-256.81 662.09,-248.61"/>
<polygon fill="#63b8ff" stroke="#63b8ff" points="662.82,-252.05 672.39,-247.49 662.07,-245.09 662.82,-252.05"/>
</g>
<!-- Node19&#45;&gt;Node15 -->
<g id="edge33" class="edge">
<title>Node19&#45;&gt;Node15</title>
<path fill="none" stroke="#63b8ff" d="M273.92,-291.37C285.51,-282.21 304.03,-267.56 318.02,-256.51"/>
<polygon fill="#63b8ff" stroke="#63b8ff" points="320.36,-259.11 326.04,-250.17 316.02,-253.62 320.36,-259.11"/>
</g>
<!-- Node19&#45;&gt;Node17 -->
<g id="edge29" class="edge">
<title>Node19&#45;&gt;Node17</title>
<path fill="none" stroke="#63b8ff" d="M294.26,-291.49C332.14,-281.19 396.02,-263.81 437.59,-252.49"/>
<polygon fill="#63b8ff" stroke="#63b8ff" points="438.67,-255.83 447.4,-249.83 436.83,-249.08 438.67,-255.83"/>
</g>
<!-- Node19&#45;&gt;Node18 -->
<g id="edge30" class="edge">
<title>Node19&#45;&gt;Node18</title>
<path fill="none" stroke="#63b8ff" d="M307.79,-291.49C362.99,-281.01 456.76,-263.2 516.2,-251.91"/>
<polygon fill="#63b8ff" stroke="#63b8ff" points="516.99,-255.32 526.16,-250.02 515.68,-248.44 516.99,-255.32"/>
</g>
<!-- Node19&#45;&gt;Node19 -->
<g id="edge31" class="edge">
<title>Node19&#45;&gt;Node19</title>
<path fill="none" stroke="#63b8ff" d="M292.54,-310.53C317.22,-314.61 343,-311.43 343,-301 343,-292 323.78,-288.4 302.65,-290.2"/>
<polygon fill="#63b8ff" stroke="#63b8ff" points="302.03,-286.75 292.54,-291.47 302.9,-293.7 302.03,-286.75"/>
</g>
<!-- Node20&#45;&gt;Node8 -->
<g id="edge40" class="edge">
<title>Node20&#45;&gt;Node8</title>
<path fill="none" stroke="#63b8ff" d="M414.76,-285.74C419,-271.22 426.79,-248.41 438,-231 461.42,-194.62 498.8,-160.19 521.22,-141.2"/>
<polygon fill="#63b8ff" stroke="#63b8ff" points="523.57,-143.8 529.01,-134.71 519.09,-138.42 523.57,-143.8"/>
</g>
<!-- Node20&#45;&gt;Node14 -->
<g id="edge36" class="edge">
<title>Node20&#45;&gt;Node14</title>
<path fill="none" stroke="#63b8ff" d="M461.16,-287.87C464.15,-287.22 467.11,-286.59 470,-286 535.48,-272.62 610.82,-259.98 663.31,-251.62"/>
<polygon fill="#63b8ff" stroke="#63b8ff" points="664.16,-255.03 673.49,-250 663.06,-248.11 664.16,-255.03"/>
</g>
<!-- Node20&#45;&gt;Node15 -->
<g id="edge39" class="edge">
<title>Node20&#45;&gt;Node15</title>
<path fill="none" stroke="#63b8ff" d="M393.09,-285.84C381.91,-277 367.52,-265.63 356.12,-256.62"/>
<polygon fill="#63b8ff" stroke="#63b8ff" points="358.1,-253.72 348.09,-250.27 353.76,-259.21 358.1,-253.72"/>
</g>
<!-- Node20&#45;&gt;Node17 -->
<g id="edge37" class="edge">
<title>Node20&#45;&gt;Node17</title>
<path fill="none" stroke="#63b8ff" d="M427.22,-285.84C437.24,-277.09 450.11,-265.85 460.38,-256.88"/>
<polygon fill="#63b8ff" stroke="#63b8ff" points="462.73,-259.48 467.96,-250.27 458.13,-254.21 462.73,-259.48"/>
</g>
<!-- Node20&#45;&gt;Node18 -->
<g id="edge38" class="edge">
<title>Node20&#45;&gt;Node18</title>
<path fill="none" stroke="#63b8ff" d="M449.32,-285.99C476.26,-276.14 511.93,-263.1 537.69,-253.68"/>
<polygon fill="#63b8ff" stroke="#63b8ff" points="539.18,-256.86 547.37,-250.14 536.78,-250.29 539.18,-256.86"/>
</g>
<!-- Node21&#45;&gt;Node14 -->
<g id="edge42" class="edge">
<title>Node21&#45;&gt;Node14</title>
<path fill="none" stroke="#63b8ff" d="M850.68,-285.99C823.74,-276.14 788.07,-263.1 762.31,-253.68"/>
<polygon fill="#63b8ff" stroke="#63b8ff" points="763.22,-250.29 752.63,-250.14 760.82,-256.86 763.22,-250.29"/>
</g>
<!-- Node22 -->
<g id="node22" class="node">
<title>Node22</title>
<g id="a_node22"><a xlink:title=" ">
<polygon fill="#e0e0e0" stroke="#999999" points="911,-250 867,-250 867,-231 911,-231 911,-250"/>
<text text-anchor="middle" x="889" y="-238" font-family="Helvetica,sans-Serif" font-size="10.00">string</text>
</a>
</g>
</g>
<!-- Node21&#45;&gt;Node22 -->
<g id="edge43" class="edge">
<title>Node21&#45;&gt;Node22</title>
<path fill="none" stroke="#63b8ff" d="M889,-285.84C889,-278.21 889,-268.7 889,-260.45"/>
<polygon fill="#63b8ff" stroke="#63b8ff" points="892.5,-260.27 889,-250.27 885.5,-260.27 892.5,-260.27"/>
</g>
<!-- Node23&#45;&gt;Node12 -->
<g id="edge49" class="edge">
<title>Node23&#45;&gt;Node12</title>
<path fill="none" stroke="#63b8ff" d="M783.1,-288.16C856.89,-276.83 966.36,-260.02 1031.81,-249.97"/>
<polygon fill="#63b8ff" stroke="#63b8ff" points="1032.57,-253.4 1041.92,-248.42 1031.5,-246.48 1032.57,-253.4"/>
</g>
<!-- Node23&#45;&gt;Node14 -->
<g id="edge45" class="edge">
<title>Node23&#45;&gt;Node14</title>
<path fill="none" stroke="#63b8ff" d="M711.57,-285.84C714.67,-277.95 718.56,-268.05 721.88,-259.61"/>
<polygon fill="#63b8ff" stroke="#63b8ff" points="725.15,-260.85 725.55,-250.27 718.64,-258.29 725.15,-260.85"/>
</g>
<!-- Node23&#45;&gt;Node15 -->
<g id="edge48" class="edge">
<title>Node23&#45;&gt;Node15</title>
<path fill="none" stroke="#63b8ff" d="M628.65,-287.39C625.73,-286.92 622.84,-286.45 620,-286 544.72,-273.95 458.12,-260.38 400.75,-251.42"/>
<polygon fill="#63b8ff" stroke="#63b8ff" points="401.16,-247.95 390.74,-249.86 400.08,-254.86 401.16,-247.95"/>
</g>
<!-- Node23&#45;&gt;Node17 -->
<g id="edge46" class="edge">
<title>Node23&#45;&gt;Node17</title>
<path fill="none" stroke="#63b8ff" d="M651.39,-285.99C610.57,-275.51 555.65,-261.42 518.65,-251.93"/>
<polygon fill="#63b8ff" stroke="#63b8ff" points="519.27,-248.48 508.71,-249.38 517.53,-255.26 519.27,-248.48"/>
</g>
<!-- Node23&#45;&gt;Node18 -->
<g id="edge47" class="edge">
<title>Node23&#45;&gt;Node18</title>
<path fill="none" stroke="#63b8ff" d="M673.66,-285.99C651.34,-276.31 621.9,-263.56 600.27,-254.18"/>
<polygon fill="#63b8ff" stroke="#63b8ff" points="601.5,-250.9 590.94,-250.14 598.72,-257.33 601.5,-250.9"/>
</g>
<!-- Node24&#45;&gt;Node12 -->
<g id="edge51" class="edge">
<title>Node24&#45;&gt;Node12</title>
<path fill="none" stroke="#63b8ff" d="M1035.46,-285.84C1045.63,-277.09 1058.69,-265.85 1069.12,-256.88"/>
<polygon fill="#63b8ff" stroke="#63b8ff" points="1071.51,-259.44 1076.81,-250.27 1066.95,-254.13 1071.51,-259.44"/>
</g>
<!-- Node25&#45;&gt;Node12 -->
<g id="edge53" class="edge">
<title>Node25&#45;&gt;Node12</title>
<path fill="none" stroke="#63b8ff" d="M1139.3,-285.84C1128.97,-277.09 1115.72,-265.85 1105.14,-256.88"/>
<polygon fill="#63b8ff" stroke="#63b8ff" points="1107.23,-254.06 1097.34,-250.27 1102.7,-259.4 1107.23,-254.06"/>
</g>
<!-- Node26&#45;&gt;Node12 -->
<g id="edge55" class="edge">
<title>Node26&#45;&gt;Node12</title>
<path fill="none" stroke="#63b8ff" d="M1245.94,-285.99C1209.71,-275.85 1161.38,-262.32 1127.56,-252.85"/>
<polygon fill="#63b8ff" stroke="#63b8ff" points="1128.13,-249.38 1117.56,-250.05 1126.25,-256.12 1128.13,-249.38"/>
</g>
</g>
</svg>
