<?xml version="1.0" encoding="UTF-8" standalone="no"?>
<!DOCTYPE svg PUBLIC "-//W3C//DTD SVG 1.1//EN"
 "http://www.w3.org/Graphics/SVG/1.1/DTD/svg11.dtd">
<!-- Generated by graphviz version 2.43.0 (0)
 -->
<!-- Title: firmware/wombat/src/mqtt_stack.cpp Pages: 1 -->
<svg width="1763pt" height="335pt"
 viewBox="0.00 0.00 1763.25 335.00" xmlns="http://www.w3.org/2000/svg" xmlns:xlink="http://www.w3.org/1999/xlink">
<g id="graph0" class="graph" transform="scale(1 1) rotate(0) translate(4 331)">
<title>firmware/wombat/src/mqtt_stack.cpp</title>
<!-- Node1 -->
<g id="node1" class="node">
<title>Node1</title>
<g id="a_node1"><a xlink:title=" ">
<polygon fill="#999999" stroke="#666666" points="762,-327 642,-327 642,-297 762,-297 762,-327"/>
<text text-anchor="start" x="650" y="-315" font-family="Helvetica,sans-Serif" font-size="10.00">firmware/wombat/src</text>
<text text-anchor="middle" x="702" y="-304" font-family="Helvetica,sans-Serif" font-size="10.00">/mqtt_stack.cpp</text>
</a>
</g>
</g>
<!-- Node2 -->
<g id="node2" class="node">
<title>Node2</title>
<g id="a_node2"><a xlink:href="_c_a_t___m1_8h.html" target="_top" xlink:title=" ">
<polygon fill="white" stroke="#666666" points="602.5,-134.5 537.5,-134.5 537.5,-115.5 602.5,-115.5 602.5,-134.5"/>
<text text-anchor="middle" x="570" y="-122.5" font-family="Helvetica,sans-Serif" font-size="10.00">CAT_M1.h</text>
</a>
</g>
</g>
<!-- Node1&#45;&gt;Node2 -->
<g id="edge1" class="edge">
<title>Node1&#45;&gt;Node2</title>
<path fill="none" stroke="#63b8ff" d="M648.04,-296.9C603.87,-282.2 544.23,-254.36 516,-206 509.28,-194.49 510.66,-188.22 516,-176 522.36,-161.45 535.28,-149.24 546.88,-140.53"/>
<polygon fill="#63b8ff" stroke="#63b8ff" points="549.2,-143.18 555.37,-134.57 545.18,-137.45 549.2,-143.18"/>
</g>
<!-- Node6 -->
<g id="node6" class="node">
<title>Node6</title>
<g id="a_node6"><a xlink:href="_utils_8h.html" target="_top" xlink:title=" ">
<polygon fill="white" stroke="#666666" points="1213,-134.5 1165,-134.5 1165,-115.5 1213,-115.5 1213,-134.5"/>
<text text-anchor="middle" x="1189" y="-122.5" font-family="Helvetica,sans-Serif" font-size="10.00">Utils.h</text>
</a>
</g>
</g>
<!-- Node1&#45;&gt;Node6 -->
<g id="edge6" class="edge">
<title>Node1&#45;&gt;Node6</title>
<path fill="none" stroke="#63b8ff" d="M762.24,-309.46C972.81,-303.46 1666.68,-278.32 1732,-206 1740.94,-196.11 1741.09,-185.75 1732,-176 1693.27,-134.44 1277.24,-153.27 1222,-140 1219.84,-139.48 1217.63,-138.83 1215.45,-138.1"/>
<polygon fill="#63b8ff" stroke="#63b8ff" points="1216.69,-134.83 1206.1,-134.52 1214.19,-141.37 1216.69,-134.83"/>
</g>
<!-- Node10 -->
<g id="node10" class="node">
<title>Node10</title>
<g id="a_node10"><a xlink:href="_device_config_8h.html" target="_top" xlink:title="Node configuration options.">
<polygon fill="white" stroke="#666666" points="1429,-134.5 1339,-134.5 1339,-115.5 1429,-115.5 1429,-134.5"/>
<text text-anchor="middle" x="1384" y="-122.5" font-family="Helvetica,sans-Serif" font-size="10.00">DeviceConfig.h</text>
</a>
</g>
</g>
<!-- Node1&#45;&gt;Node10 -->
<g id="edge10" class="edge">
<title>Node1&#45;&gt;Node10</title>
<path fill="none" stroke="#63b8ff" d="M762.06,-309.8C934.97,-306 1431.69,-292.56 1591,-261 1663.94,-246.55 1705.92,-266.61 1749,-206 1756.72,-195.13 1757.76,-186.05 1749,-176 1709.53,-130.75 1531.6,-124.98 1439.56,-125.12"/>
<polygon fill="#63b8ff" stroke="#63b8ff" points="1439.3,-121.62 1429.31,-125.16 1439.33,-128.62 1439.3,-121.62"/>
</g>
<!-- Node11 -->
<g id="node11" class="node">
<title>Node11</title>
<g id="a_node11"><a xlink:title=" ">
<polygon fill="#e0e0e0" stroke="#999999" points="130,-140 0,-140 0,-110 130,-110 130,-140"/>
<text text-anchor="start" x="8" y="-128" font-family="Helvetica,sans-Serif" font-size="10.00">SparkFun_u&#45;blox_SARA</text>
<text text-anchor="middle" x="65" y="-117" font-family="Helvetica,sans-Serif" font-size="10.00">&#45;R5_Arduino_Library.h</text>
</a>
</g>
</g>
<!-- Node1&#45;&gt;Node11 -->
<g id="edge13" class="edge">
<title>Node1&#45;&gt;Node11</title>
<path fill="none" stroke="#63b8ff" d="M641.94,-301.85C589.69,-293.27 512.18,-279.08 446,-261 321.22,-226.91 178.6,-171.92 108.53,-143.8"/>
<polygon fill="#63b8ff" stroke="#63b8ff" points="109.71,-140.51 99.13,-140.02 107.1,-147 109.71,-140.51"/>
</g>
<!-- Node12 -->
<g id="node12" class="node">
<title>Node12</title>
<g id="a_node12"><a xlink:href="globals_8h.html" target="_top" xlink:title=" ">
<polygon fill="white" stroke="#666666" points="412.5,-200.5 351.5,-200.5 351.5,-181.5 412.5,-181.5 412.5,-200.5"/>
<text text-anchor="middle" x="382" y="-188.5" font-family="Helvetica,sans-Serif" font-size="10.00">globals.h</text>
</a>
</g>
</g>
<!-- Node1&#45;&gt;Node12 -->
<g id="edge14" class="edge">
<title>Node1&#45;&gt;Node12</title>
<path fill="none" stroke="#63b8ff" d="M641.53,-303.43C596.45,-296.31 534.1,-283.33 483,-261 451.27,-247.14 418.99,-222.95 399.73,-207.21"/>
<polygon fill="#63b8ff" stroke="#63b8ff" points="401.77,-204.35 391.85,-200.64 397.29,-209.73 401.77,-204.35"/>
</g>
<!-- Node16 -->
<g id="node16" class="node">
<title>Node16</title>
<g id="a_node16"><a xlink:href="_c_l_i_8h.html" target="_top" xlink:title="FreeRTOS CLI handler.">
<polygon fill="white" stroke="#666666" points="1013.5,-261 958.5,-261 958.5,-242 1013.5,-242 1013.5,-261"/>
<text text-anchor="middle" x="986" y="-249" font-family="Helvetica,sans-Serif" font-size="10.00">cli/CLI.h</text>
</a>
</g>
</g>
<!-- Node1&#45;&gt;Node16 -->
<g id="edge23" class="edge">
<title>Node1&#45;&gt;Node16</title>
<path fill="none" stroke="#63b8ff" d="M762.23,-298.59C818.51,-287 900.78,-270.05 948.3,-260.27"/>
<polygon fill="#63b8ff" stroke="#63b8ff" points="949.09,-263.68 958.18,-258.23 947.68,-256.82 949.09,-263.68"/>
</g>
<!-- Node3 -->
<g id="node3" class="node">
<title>Node3</title>
<g id="a_node3"><a xlink:title=" ">
<polygon fill="#e0e0e0" stroke="#999999" points="609,-19 561,-19 561,0 609,0 609,-19"/>
<text text-anchor="middle" x="585" y="-7" font-family="Helvetica,sans-Serif" font-size="10.00">Wire.h</text>
</a>
</g>
</g>
<!-- Node2&#45;&gt;Node3 -->
<g id="edge2" class="edge">
<title>Node2&#45;&gt;Node3</title>
<path fill="none" stroke="#63b8ff" d="M574.82,-115.49C580,-105.8 587.91,-89.32 591,-74 594.01,-59.06 592.05,-41.82 589.59,-29.08"/>
<polygon fill="#63b8ff" stroke="#63b8ff" points="592.99,-28.22 587.42,-19.21 586.15,-29.73 592.99,-28.22"/>
</g>
<!-- Node4 -->
<g id="node4" class="node">
<title>Node4</title>
<g id="a_node4"><a xlink:href="_t_c_a9534_8h.html" target="_top" xlink:title=" ">
<polygon fill="white" stroke="#666666" points="582,-74 514,-74 514,-55 582,-55 582,-74"/>
<text text-anchor="middle" x="548" y="-62" font-family="Helvetica,sans-Serif" font-size="10.00">TCA9534.h</text>
</a>
</g>
</g>
<!-- Node2&#45;&gt;Node4 -->
<g id="edge3" class="edge">
<title>Node2&#45;&gt;Node4</title>
<path fill="none" stroke="#63b8ff" d="M566.75,-115.37C563.63,-107.07 558.82,-94.28 554.85,-83.72"/>
<polygon fill="#63b8ff" stroke="#63b8ff" points="558.06,-82.3 551.26,-74.17 551.5,-84.76 558.06,-82.3"/>
</g>
<!-- Node4&#45;&gt;Node3 -->
<g id="edge5" class="edge">
<title>Node4&#45;&gt;Node3</title>
<path fill="none" stroke="#63b8ff" d="M554.11,-54.75C559.28,-47.34 566.85,-36.5 573.19,-27.41"/>
<polygon fill="#63b8ff" stroke="#63b8ff" points="576.15,-29.29 579,-19.09 570.41,-25.29 576.15,-29.29"/>
</g>
<!-- Node5 -->
<g id="node5" class="node">
<title>Node5</title>
<g id="a_node5"><a xlink:title=" ">
<polygon fill="#e0e0e0" stroke="#999999" points="517.5,-19 454.5,-19 454.5,0 517.5,0 517.5,-19"/>
<text text-anchor="middle" x="486" y="-7" font-family="Helvetica,sans-Serif" font-size="10.00">Arduino.h</text>
</a>
</g>
</g>
<!-- Node4&#45;&gt;Node5 -->
<g id="edge4" class="edge">
<title>Node4&#45;&gt;Node5</title>
<path fill="none" stroke="#63b8ff" d="M538.04,-54.98C528.87,-47.15 515.06,-35.34 503.97,-25.86"/>
<polygon fill="#63b8ff" stroke="#63b8ff" points="506.02,-23.01 496.14,-19.17 501.47,-28.33 506.02,-23.01"/>
</g>
<!-- Node7 -->
<g id="node7" class="node">
<title>Node7</title>
<g id="a_node7"><a xlink:title=" ">
<polygon fill="#e0e0e0" stroke="#999999" points="1218,-74 1162,-74 1162,-55 1218,-55 1218,-74"/>
<text text-anchor="middle" x="1190" y="-62" font-family="Helvetica,sans-Serif" font-size="10.00">stddef.h</text>
</a>
</g>
</g>
<!-- Node6&#45;&gt;Node7 -->
<g id="edge7" class="edge">
<title>Node6&#45;&gt;Node7</title>
<path fill="none" stroke="#63b8ff" d="M1189.15,-115.37C1189.29,-107.25 1189.5,-94.81 1189.68,-84.39"/>
<polygon fill="#63b8ff" stroke="#63b8ff" points="1193.18,-84.23 1189.85,-74.17 1186.18,-84.11 1193.18,-84.23"/>
</g>
<!-- Node8 -->
<g id="node8" class="node">
<title>Node8</title>
<g id="a_node8"><a xlink:title=" ">
<polygon fill="#e0e0e0" stroke="#999999" points="1336.5,-74 1253.5,-74 1253.5,-55 1336.5,-55 1336.5,-74"/>
<text text-anchor="middle" x="1295" y="-62" font-family="Helvetica,sans-Serif" font-size="10.00">ArduinoJson.h</text>
</a>
</g>
</g>
<!-- Node6&#45;&gt;Node8 -->
<g id="edge8" class="edge">
<title>Node6&#45;&gt;Node8</title>
<path fill="none" stroke="#63b8ff" d="M1204.64,-115.37C1221.94,-105.82 1250.05,-90.31 1270.33,-79.12"/>
<polygon fill="#63b8ff" stroke="#63b8ff" points="1272.23,-82.06 1279.3,-74.17 1268.85,-75.93 1272.23,-82.06"/>
</g>
<!-- Node9 -->
<g id="node9" class="node">
<title>Node9</title>
<g id="a_node9"><a xlink:title=" ">
<polygon fill="#e0e0e0" stroke="#999999" points="1143.5,-74 1050.5,-74 1050.5,-55 1143.5,-55 1143.5,-74"/>
<text text-anchor="middle" x="1097" y="-62" font-family="Helvetica,sans-Serif" font-size="10.00">dpiclimate&#45;12.h</text>
</a>
</g>
</g>
<!-- Node6&#45;&gt;Node9 -->
<g id="edge9" class="edge">
<title>Node6&#45;&gt;Node9</title>
<path fill="none" stroke="#63b8ff" d="M1175.43,-115.37C1160.61,-105.95 1136.67,-90.73 1119.14,-79.58"/>
<polygon fill="#63b8ff" stroke="#63b8ff" points="1120.95,-76.58 1110.63,-74.17 1117.19,-82.49 1120.95,-76.58"/>
</g>
<!-- Node10&#45;&gt;Node5 -->
<g id="edge11" class="edge">
<title>Node10&#45;&gt;Node5</title>
<path fill="none" stroke="#63b8ff" d="M1382.12,-115.34C1378.31,-100.08 1368.07,-68.72 1346,-55 1271.01,-8.36 639.98,-26.65 552,-19 544.15,-18.32 535.8,-17.4 527.77,-16.41"/>
<polygon fill="#63b8ff" stroke="#63b8ff" points="528.2,-12.94 517.83,-15.14 527.31,-19.88 528.2,-12.94"/>
</g>
<!-- Node10&#45;&gt;Node8 -->
<g id="edge12" class="edge">
<title>Node10&#45;&gt;Node8</title>
<path fill="none" stroke="#63b8ff" d="M1370.87,-115.37C1356.67,-106.04 1333.8,-91.01 1316.88,-79.88"/>
<polygon fill="#63b8ff" stroke="#63b8ff" points="1318.47,-76.74 1308.19,-74.17 1314.62,-82.58 1318.47,-76.74"/>
</g>
<!-- Node12&#45;&gt;Node2 -->
<g id="edge22" class="edge">
<title>Node12&#45;&gt;Node2</title>
<path fill="none" stroke="#63b8ff" d="M407.35,-181.37C440.24,-170.17 497.78,-150.58 534.87,-137.96"/>
<polygon fill="#63b8ff" stroke="#63b8ff" points="536.41,-141.13 544.75,-134.6 534.15,-134.51 536.41,-141.13"/>
</g>
<!-- Node12&#45;&gt;Node11 -->
<g id="edge21" class="edge">
<title>Node12&#45;&gt;Node11</title>
<path fill="none" stroke="#63b8ff" d="M351.32,-183.81C302.99,-174.05 207.72,-154.81 140.37,-141.22"/>
<polygon fill="#63b8ff" stroke="#63b8ff" points="140.72,-137.72 130.23,-139.17 139.34,-144.58 140.72,-137.72"/>
</g>
<!-- Node13 -->
<g id="node13" class="node">
<title>Node13</title>
<g id="a_node13"><a xlink:href="battery_8h.html" target="_top" xlink:title="Battery voltage and current monitoring using INA219 IC.">
<polygon fill="white" stroke="#666666" points="457.5,-134.5 306.5,-134.5 306.5,-115.5 457.5,-115.5 457.5,-134.5"/>
<text text-anchor="middle" x="382" y="-122.5" font-family="Helvetica,sans-Serif" font-size="10.00">power_monitoring/battery.h</text>
</a>
</g>
</g>
<!-- Node12&#45;&gt;Node13 -->
<g id="edge15" class="edge">
<title>Node12&#45;&gt;Node13</title>
<path fill="none" stroke="#63b8ff" d="M382,-181.37C382,-172.16 382,-157.29 382,-145.27"/>
<polygon fill="#63b8ff" stroke="#63b8ff" points="385.5,-144.91 382,-134.91 378.5,-144.91 385.5,-144.91"/>
</g>
<!-- Node15 -->
<g id="node15" class="node">
<title>Node15</title>
<g id="a_node15"><a xlink:href="solar_8h.html" target="_top" xlink:title="Solar voltage and current monitoring using INA219 IC.">
<polygon fill="white" stroke="#666666" points="288,-134.5 148,-134.5 148,-115.5 288,-115.5 288,-134.5"/>
<text text-anchor="middle" x="218" y="-122.5" font-family="Helvetica,sans-Serif" font-size="10.00">power_monitoring/solar.h</text>
</a>
</g>
</g>
<!-- Node12&#45;&gt;Node15 -->
<g id="edge18" class="edge">
<title>Node12&#45;&gt;Node15</title>
<path fill="none" stroke="#63b8ff" d="M359.88,-181.37C331.44,-170.27 281.85,-150.92 249.48,-138.28"/>
<polygon fill="#63b8ff" stroke="#63b8ff" points="250.62,-134.97 240.03,-134.6 248.07,-141.49 250.62,-134.97"/>
</g>
<!-- Node13&#45;&gt;Node5 -->
<g id="edge16" class="edge">
<title>Node13&#45;&gt;Node5</title>
<path fill="none" stroke="#63b8ff" d="M389.82,-115.47C407.13,-96.57 448.96,-50.93 471.32,-26.52"/>
<polygon fill="#63b8ff" stroke="#63b8ff" points="473.92,-28.87 478.09,-19.13 468.76,-24.14 473.92,-28.87"/>
</g>
<!-- Node14 -->
<g id="node14" class="node">
<title>Node14</title>
<g id="a_node14"><a xlink:title=" ">
<polygon fill="#e0e0e0" stroke="#999999" points="394.5,-74 289.5,-74 289.5,-55 394.5,-55 394.5,-74"/>
<text text-anchor="middle" x="342" y="-62" font-family="Helvetica,sans-Serif" font-size="10.00">Adafruit_INA219.h</text>
</a>
</g>
</g>
<!-- Node13&#45;&gt;Node14 -->
<g id="edge17" class="edge">
<title>Node13&#45;&gt;Node14</title>
<path fill="none" stroke="#63b8ff" d="M376.1,-115.37C370.25,-106.81 361.13,-93.47 353.79,-82.74"/>
<polygon fill="#63b8ff" stroke="#63b8ff" points="356.46,-80.45 347.93,-74.17 350.68,-84.4 356.46,-80.45"/>
</g>
<!-- Node15&#45;&gt;Node5 -->
<g id="edge19" class="edge">
<title>Node15&#45;&gt;Node5</title>
<path fill="none" stroke="#63b8ff" d="M223.26,-115.2C232.65,-100.28 253.81,-70.2 280,-55 331.42,-25.16 400.55,-15.28 444.19,-12.03"/>
<polygon fill="#63b8ff" stroke="#63b8ff" points="444.43,-15.52 454.18,-11.37 443.97,-8.54 444.43,-15.52"/>
</g>
<!-- Node15&#45;&gt;Node14 -->
<g id="edge20" class="edge">
<title>Node15&#45;&gt;Node14</title>
<path fill="none" stroke="#63b8ff" d="M236.03,-115.49C256.69,-105.75 290.78,-89.66 314.7,-78.38"/>
<polygon fill="#63b8ff" stroke="#63b8ff" points="316.4,-81.45 323.95,-74.02 313.41,-75.12 316.4,-81.45"/>
</g>
<!-- Node16&#45;&gt;Node5 -->
<g id="edge24" class="edge">
<title>Node16&#45;&gt;Node5</title>
<path fill="none" stroke="#63b8ff" d="M958.19,-249.82C862.11,-247.22 548.26,-236.45 516,-206 466.68,-159.45 475.6,-68.36 482.26,-29.17"/>
<polygon fill="#63b8ff" stroke="#63b8ff" points="485.73,-29.64 484.1,-19.17 478.85,-28.37 485.73,-29.64"/>
</g>
<!-- Node17 -->
<g id="node17" class="node">
<title>Node17</title>
<g id="a_node17"><a xlink:title=" ">
<polygon fill="#e0e0e0" stroke="#999999" points="1068.5,-134.5 955.5,-134.5 955.5,-115.5 1068.5,-115.5 1068.5,-134.5"/>
<text text-anchor="middle" x="1012" y="-122.5" font-family="Helvetica,sans-Serif" font-size="10.00">freertos/FreeRTOS.h</text>
</a>
</g>
</g>
<!-- Node16&#45;&gt;Node17 -->
<g id="edge25" class="edge">
<title>Node16&#45;&gt;Node17</title>
<path fill="none" stroke="#63b8ff" d="M1013.67,-247.23C1056.82,-241.51 1136.98,-228.12 1154,-206 1181.18,-170.68 1121.17,-148.54 1070.96,-136.73"/>
<polygon fill="#63b8ff" stroke="#63b8ff" points="1071.6,-133.29 1061.08,-134.51 1070.07,-140.12 1071.6,-133.29"/>
</g>
<!-- Node18 -->
<g id="node18" class="node">
<title>Node18</title>
<g id="a_node18"><a xlink:title=" ">
<polygon fill="#e0e0e0" stroke="#999999" points="858.5,-134.5 751.5,-134.5 751.5,-115.5 858.5,-115.5 858.5,-134.5"/>
<text text-anchor="middle" x="805" y="-122.5" font-family="Helvetica,sans-Serif" font-size="10.00">cli/FreeRTOS_CLI.h</text>
</a>
</g>
</g>
<!-- Node16&#45;&gt;Node18 -->
<g id="edge26" class="edge">
<title>Node16&#45;&gt;Node18</title>
<path fill="none" stroke="#63b8ff" d="M958.42,-251.23C921.82,-250.61 857.68,-243.72 822,-206 806.56,-189.68 803.71,-162.96 803.79,-144.94"/>
<polygon fill="#63b8ff" stroke="#63b8ff" points="807.29,-144.9 804.14,-134.79 800.3,-144.66 807.29,-144.9"/>
</g>
<!-- Node19 -->
<g id="node19" class="node">
<title>Node19</title>
<g id="a_node19"><a xlink:href="cat-m1_8h.html" target="_top" xlink:title="CAT&#45;M1 CLI command request and response handler.">
<polygon fill="white" stroke="#666666" points="657,-200.5 525,-200.5 525,-181.5 657,-181.5 657,-200.5"/>
<text text-anchor="middle" x="591" y="-188.5" font-family="Helvetica,sans-Serif" font-size="10.00">cli/peripherals/cat&#45;m1.h</text>
</a>
</g>
</g>
<!-- Node16&#45;&gt;Node19 -->
<g id="edge27" class="edge">
<title>Node16&#45;&gt;Node19</title>
<path fill="none" stroke="#63b8ff" d="M958.11,-247.06C902.45,-240.11 773.68,-223.53 666,-206 659.24,-204.9 652.14,-203.67 645.13,-202.41"/>
<polygon fill="#63b8ff" stroke="#63b8ff" points="645.43,-198.91 634.96,-200.56 644.17,-205.8 645.43,-198.91"/>
</g>
<!-- Node22 -->
<g id="node22" class="node">
<title>Node22</title>
<g id="a_node22"><a xlink:href="sdi12_8h.html" target="_top" xlink:title="SDI&#45;12 command line interface handler.">
<polygon fill="white" stroke="#666666" points="1127,-200.5 1003,-200.5 1003,-181.5 1127,-181.5 1127,-200.5"/>
<text text-anchor="middle" x="1065" y="-188.5" font-family="Helvetica,sans-Serif" font-size="10.00">cli/peripherals/sdi12.h</text>
</a>
</g>
</g>
<!-- Node16&#45;&gt;Node22 -->
<g id="edge33" class="edge">
<title>Node16&#45;&gt;Node22</title>
<path fill="none" stroke="#63b8ff" d="M997.66,-241.87C1010.14,-232.62 1030.18,-217.78 1045.16,-206.69"/>
<polygon fill="#63b8ff" stroke="#63b8ff" points="1047.34,-209.43 1053.3,-200.67 1043.18,-203.81 1047.34,-209.43"/>
</g>
<!-- Node23 -->
<g id="node23" class="node">
<title>Node23</title>
<g id="a_node23"><a xlink:href="cli__power_8h.html" target="_top" xlink:title=" ">
<polygon fill="white" stroke="#666666" points="775,-206 675,-206 675,-176 775,-176 775,-206"/>
<text text-anchor="start" x="683" y="-194" font-family="Helvetica,sans-Serif" font-size="10.00">cli/peripherals/cli</text>
<text text-anchor="middle" x="725" y="-183" font-family="Helvetica,sans-Serif" font-size="10.00">_power.h</text>
</a>
</g>
</g>
<!-- Node16&#45;&gt;Node23 -->
<g id="edge41" class="edge">
<title>Node16&#45;&gt;Node23</title>
<path fill="none" stroke="#63b8ff" d="M958.07,-244.24C917.09,-235.05 839.66,-217.7 785.33,-205.52"/>
<polygon fill="#63b8ff" stroke="#63b8ff" points="785.99,-202.08 775.47,-203.31 784.46,-208.91 785.99,-202.08"/>
</g>
<!-- Node24 -->
<g id="node24" class="node">
<title>Node24</title>
<g id="a_node24"><a xlink:href="sd__card_8h.html" target="_top" xlink:title=" ">
<polygon fill="white" stroke="#666666" points="1301,-206 1201,-206 1201,-176 1301,-176 1301,-206"/>
<text text-anchor="start" x="1209" y="-194" font-family="Helvetica,sans-Serif" font-size="10.00">cli/peripherals/sd</text>
<text text-anchor="middle" x="1251" y="-183" font-family="Helvetica,sans-Serif" font-size="10.00">_card.h</text>
</a>
</g>
</g>
<!-- Node16&#45;&gt;Node24 -->
<g id="edge47" class="edge">
<title>Node16&#45;&gt;Node24</title>
<path fill="none" stroke="#63b8ff" d="M1013.86,-244.35C1055.52,-235.15 1135.06,-217.59 1190.48,-205.36"/>
<polygon fill="#63b8ff" stroke="#63b8ff" points="1191.53,-208.71 1200.54,-203.14 1190.02,-201.88 1191.53,-208.71"/>
</g>
<!-- Node26 -->
<g id="node26" class="node">
<title>Node26</title>
<g id="a_node26"><a xlink:href="acquisition__intervals_8h.html" target="_top" xlink:title="Handles the time between measurements and uplinks by the device over LTE.">
<polygon fill="white" stroke="#666666" points="985,-206 831,-206 831,-176 985,-176 985,-206"/>
<text text-anchor="start" x="839" y="-194" font-family="Helvetica,sans-Serif" font-size="10.00">cli/device_config/acquisition</text>
<text text-anchor="middle" x="908" y="-183" font-family="Helvetica,sans-Serif" font-size="10.00">_intervals.h</text>
</a>
</g>
</g>
<!-- Node16&#45;&gt;Node26 -->
<g id="edge50" class="edge">
<title>Node16&#45;&gt;Node26</title>
<path fill="none" stroke="#63b8ff" d="M974.49,-241.87C964.1,-234.08 948.42,-222.32 934.9,-212.17"/>
<polygon fill="#63b8ff" stroke="#63b8ff" points="936.92,-209.31 926.82,-206.11 932.72,-214.91 936.92,-209.31"/>
</g>
<!-- Node27 -->
<g id="node27" class="node">
<title>Node27</title>
<g id="a_node27"><a xlink:href="mqtt__cli_8h.html" target="_top" xlink:title="MQTT setup and configuration through the CLI.">
<polygon fill="white" stroke="#666666" points="1591,-206 1467,-206 1467,-176 1591,-176 1591,-206"/>
<text text-anchor="start" x="1475" y="-194" font-family="Helvetica,sans-Serif" font-size="10.00">cli/device_config/mqtt</text>
<text text-anchor="middle" x="1529" y="-183" font-family="Helvetica,sans-Serif" font-size="10.00">_cli.h</text>
</a>
</g>
</g>
<!-- Node16&#45;&gt;Node27 -->
<g id="edge56" class="edge">
<title>Node16&#45;&gt;Node27</title>
<path fill="none" stroke="#63b8ff" d="M1013.52,-248.88C1084.95,-244.46 1282.3,-230.95 1456.6,-206.11"/>
<polygon fill="#63b8ff" stroke="#63b8ff" points="1457.32,-209.54 1466.72,-204.65 1456.33,-202.61 1457.32,-209.54"/>
</g>
<!-- Node28 -->
<g id="node28" class="node">
<title>Node28</title>
<g id="a_node28"><a xlink:href="ftp__cli_8h.html" target="_top" xlink:title="FTP setup and configuration through the CLI.">
<polygon fill="white" stroke="#666666" points="1722.5,-206 1609.5,-206 1609.5,-176 1722.5,-176 1722.5,-206"/>
<text text-anchor="start" x="1617.5" y="-194" font-family="Helvetica,sans-Serif" font-size="10.00">cli/device_config/ftp</text>
<text text-anchor="middle" x="1666" y="-183" font-family="Helvetica,sans-Serif" font-size="10.00">_cli.h</text>
</a>
</g>
</g>
<!-- Node16&#45;&gt;Node28 -->
<g id="edge58" class="edge">
<title>Node16&#45;&gt;Node28</title>
<path fill="none" stroke="#63b8ff" d="M1013.68,-249.84C1099.29,-247.52 1367.39,-238.12 1599.24,-205.96"/>
<polygon fill="#63b8ff" stroke="#63b8ff" points="1599.79,-209.42 1609.21,-204.56 1598.82,-202.49 1599.79,-209.42"/>
</g>
<!-- Node29 -->
<g id="node29" class="node">
<title>Node29</title>
<g id="a_node29"><a xlink:href="config__cli_8h.html" target="_top" xlink:title=" ">
<polygon fill="white" stroke="#666666" points="1449,-206 1319,-206 1319,-176 1449,-176 1449,-206"/>
<text text-anchor="start" x="1327" y="-194" font-family="Helvetica,sans-Serif" font-size="10.00">cli/device_config/config</text>
<text text-anchor="middle" x="1384" y="-183" font-family="Helvetica,sans-Serif" font-size="10.00">_cli.h</text>
</a>
</g>
</g>
<!-- Node16&#45;&gt;Node29 -->
<g id="edge60" class="edge">
<title>Node16&#45;&gt;Node29</title>
<path fill="none" stroke="#63b8ff" d="M1013.81,-247.16C1068.35,-240.51 1193.38,-224.76 1308.61,-206.18"/>
<polygon fill="#63b8ff" stroke="#63b8ff" points="1309.35,-209.6 1318.66,-204.55 1308.23,-202.69 1309.35,-209.6"/>
</g>
<!-- Node19&#45;&gt;Node2 -->
<g id="edge32" class="edge">
<title>Node19&#45;&gt;Node2</title>
<path fill="none" stroke="#63b8ff" d="M588.17,-181.37C585.09,-171.97 580.06,-156.67 576.08,-144.53"/>
<polygon fill="#63b8ff" stroke="#63b8ff" points="579.37,-143.32 572.92,-134.91 572.71,-145.5 579.37,-143.32"/>
</g>
<!-- Node19&#45;&gt;Node17 -->
<g id="edge28" class="edge">
<title>Node19&#45;&gt;Node17</title>
<path fill="none" stroke="#63b8ff" d="M634.55,-181.43C644.84,-179.53 655.79,-177.61 666,-176 790.38,-156.44 822.9,-161.27 947,-140 952.83,-139 958.93,-137.84 964.96,-136.62"/>
<polygon fill="#63b8ff" stroke="#63b8ff" points="965.9,-140 974.98,-134.54 964.48,-133.15 965.9,-140"/>
</g>
<!-- Node19&#45;&gt;Node18 -->
<g id="edge31" class="edge">
<title>Node19&#45;&gt;Node18</title>
<path fill="none" stroke="#63b8ff" d="M619.86,-181.37C657.78,-170.03 724.48,-150.08 766.62,-137.48"/>
<polygon fill="#63b8ff" stroke="#63b8ff" points="767.68,-140.82 776.26,-134.6 765.67,-134.11 767.68,-140.82"/>
</g>
<!-- Node20 -->
<g id="node20" class="node">
<title>Node20</title>
<g id="a_node20"><a xlink:title=" ">
<polygon fill="#e0e0e0" stroke="#999999" points="937.5,-134.5 876.5,-134.5 876.5,-115.5 937.5,-115.5 937.5,-134.5"/>
<text text-anchor="middle" x="907" y="-122.5" font-family="Helvetica,sans-Serif" font-size="10.00">Stream.h</text>
</a>
</g>
</g>
<!-- Node19&#45;&gt;Node20 -->
<g id="edge29" class="edge">
<title>Node19&#45;&gt;Node20</title>
<path fill="none" stroke="#63b8ff" d="M636.6,-181.43C646.3,-179.62 656.49,-177.74 666,-176 755.71,-159.63 779.88,-163.49 868,-140 870.49,-139.34 873.05,-138.58 875.61,-137.78"/>
<polygon fill="#63b8ff" stroke="#63b8ff" points="876.98,-141.01 885.34,-134.51 874.75,-134.38 876.98,-141.01"/>
</g>
<!-- Node21 -->
<g id="node21" class="node">
<title>Node21</title>
<g id="a_node21"><a xlink:title=" ">
<polygon fill="#e0e0e0" stroke="#999999" points="733.5,-134.5 644.5,-134.5 644.5,-115.5 733.5,-115.5 733.5,-134.5"/>
<text text-anchor="middle" x="689" y="-122.5" font-family="Helvetica,sans-Serif" font-size="10.00">StreamString.h</text>
</a>
</g>
</g>
<!-- Node19&#45;&gt;Node21 -->
<g id="edge30" class="edge">
<title>Node19&#45;&gt;Node21</title>
<path fill="none" stroke="#63b8ff" d="M604.22,-181.37C620.36,-170.82 647.91,-152.84 667.21,-140.23"/>
<polygon fill="#63b8ff" stroke="#63b8ff" points="669.22,-143.1 675.68,-134.7 665.39,-137.24 669.22,-143.1"/>
</g>
<!-- Node22&#45;&gt;Node6 -->
<g id="edge40" class="edge">
<title>Node22&#45;&gt;Node6</title>
<path fill="none" stroke="#63b8ff" d="M1081.72,-181.37C1102.62,-170.59 1138.59,-152.02 1163.07,-139.38"/>
<polygon fill="#63b8ff" stroke="#63b8ff" points="1164.86,-142.4 1172.15,-134.7 1161.65,-136.18 1164.86,-142.4"/>
</g>
<!-- Node22&#45;&gt;Node9 -->
<g id="edge38" class="edge">
<title>Node22&#45;&gt;Node9</title>
<path fill="none" stroke="#63b8ff" d="M1067.31,-181.15C1069.92,-171.16 1074.29,-154.42 1078,-140 1082.88,-121.05 1088.4,-99.37 1092.23,-84.3"/>
<polygon fill="#63b8ff" stroke="#63b8ff" points="1095.72,-84.77 1094.79,-74.22 1088.94,-83.05 1095.72,-84.77"/>
</g>
<!-- Node22&#45;&gt;Node17 -->
<g id="edge34" class="edge">
<title>Node22&#45;&gt;Node17</title>
<path fill="none" stroke="#63b8ff" d="M1057.85,-181.37C1049.68,-171.5 1036.11,-155.11 1025.84,-142.72"/>
<polygon fill="#63b8ff" stroke="#63b8ff" points="1028.45,-140.37 1019.37,-134.91 1023.06,-144.84 1028.45,-140.37"/>
</g>
<!-- Node22&#45;&gt;Node18 -->
<g id="edge39" class="edge">
<title>Node22&#45;&gt;Node18</title>
<path fill="none" stroke="#63b8ff" d="M1030.21,-181.44C983.5,-169.94 900.52,-149.51 849.37,-136.92"/>
<polygon fill="#63b8ff" stroke="#63b8ff" points="850.14,-133.51 839.59,-134.51 848.46,-140.3 850.14,-133.51"/>
</g>
<!-- Node22&#45;&gt;Node20 -->
<g id="edge35" class="edge">
<title>Node22&#45;&gt;Node20</title>
<path fill="none" stroke="#63b8ff" d="M1043.69,-181.37C1016.4,-170.32 968.93,-151.08 937.73,-138.45"/>
<polygon fill="#63b8ff" stroke="#63b8ff" points="938.81,-135.11 928.22,-134.6 936.18,-141.59 938.81,-135.11"/>
</g>
<!-- Node22&#45;&gt;Node21 -->
<g id="edge36" class="edge">
<title>Node22&#45;&gt;Node21</title>
<path fill="none" stroke="#63b8ff" d="M1023.77,-181.49C1014.03,-179.59 1003.66,-177.64 994,-176 882.9,-157.09 853.49,-162.18 743,-140 738.55,-139.11 733.93,-138.07 729.33,-136.98"/>
<polygon fill="#63b8ff" stroke="#63b8ff" points="729.97,-133.53 719.42,-134.52 728.28,-140.32 729.97,-133.53"/>
</g>
<!-- Node22&#45;&gt;Node22 -->
<g id="edge37" class="edge">
<title>Node22&#45;&gt;Node22</title>
<path fill="none" stroke="#63b8ff" d="M1094.54,-200.53C1119.22,-204.61 1145,-201.43 1145,-191 1145,-182 1125.78,-178.4 1104.65,-180.2"/>
<polygon fill="#63b8ff" stroke="#63b8ff" points="1104.03,-176.75 1094.54,-181.47 1104.9,-183.7 1104.03,-176.75"/>
</g>
<!-- Node23&#45;&gt;Node2 -->
<g id="edge46" class="edge">
<title>Node23&#45;&gt;Node2</title>
<path fill="none" stroke="#63b8ff" d="M690.98,-175.95C663.8,-164.73 626.07,-149.15 600,-138.39"/>
<polygon fill="#63b8ff" stroke="#63b8ff" points="601.21,-135.1 590.63,-134.52 598.54,-141.57 601.21,-135.1"/>
</g>
<!-- Node23&#45;&gt;Node17 -->
<g id="edge42" class="edge">
<title>Node23&#45;&gt;Node17</title>
<path fill="none" stroke="#63b8ff" d="M775.32,-178.78C828.37,-166.95 911.36,-148.44 963.65,-136.78"/>
<polygon fill="#63b8ff" stroke="#63b8ff" points="964.69,-140.14 973.68,-134.54 963.16,-133.3 964.69,-140.14"/>
</g>
<!-- Node23&#45;&gt;Node18 -->
<g id="edge45" class="edge">
<title>Node23&#45;&gt;Node18</title>
<path fill="none" stroke="#63b8ff" d="M742.75,-175.8C755.59,-165.53 772.92,-151.67 786.03,-141.18"/>
<polygon fill="#63b8ff" stroke="#63b8ff" points="788.32,-143.82 793.94,-134.84 783.95,-138.36 788.32,-143.82"/>
</g>
<!-- Node23&#45;&gt;Node20 -->
<g id="edge43" class="edge">
<title>Node23&#45;&gt;Node20</title>
<path fill="none" stroke="#63b8ff" d="M765.4,-175.97C794.06,-166 833.42,-152.25 868,-140 869.83,-139.35 871.71,-138.68 873.6,-138.01"/>
<polygon fill="#63b8ff" stroke="#63b8ff" points="874.85,-141.28 883.09,-134.62 872.49,-134.69 874.85,-141.28"/>
</g>
<!-- Node23&#45;&gt;Node21 -->
<g id="edge44" class="edge">
<title>Node23&#45;&gt;Node21</title>
<path fill="none" stroke="#63b8ff" d="M717.01,-175.8C711.67,-166.31 704.61,-153.76 698.92,-143.63"/>
<polygon fill="#63b8ff" stroke="#63b8ff" points="701.93,-141.84 693.97,-134.84 695.83,-145.28 701.93,-141.84"/>
</g>
<!-- Node24&#45;&gt;Node17 -->
<g id="edge48" class="edge">
<title>Node24&#45;&gt;Node17</title>
<path fill="none" stroke="#63b8ff" d="M1200.9,-176.58C1157.14,-164.87 1094.4,-148.06 1053.43,-137.09"/>
<polygon fill="#63b8ff" stroke="#63b8ff" points="1054.32,-133.71 1043.76,-134.5 1052.51,-140.47 1054.32,-133.71"/>
</g>
<!-- Node25 -->
<g id="node25" class="node">
<title>Node25</title>
<g id="a_node25"><a xlink:title=" ">
<polygon fill="#e0e0e0" stroke="#999999" points="1275,-134.5 1231,-134.5 1231,-115.5 1275,-115.5 1275,-134.5"/>
<text text-anchor="middle" x="1253" y="-122.5" font-family="Helvetica,sans-Serif" font-size="10.00">string</text>
</a>
</g>
</g>
<!-- Node24&#45;&gt;Node25 -->
<g id="edge49" class="edge">
<title>Node24&#45;&gt;Node25</title>
<path fill="none" stroke="#63b8ff" d="M1251.44,-175.8C1251.73,-166.7 1252.1,-154.79 1252.41,-144.9"/>
<polygon fill="#63b8ff" stroke="#63b8ff" points="1255.91,-144.95 1252.72,-134.84 1248.91,-144.73 1255.91,-144.95"/>
</g>
<!-- Node26&#45;&gt;Node10 -->
<g id="edge55" class="edge">
<title>Node26&#45;&gt;Node10</title>
<path fill="none" stroke="#63b8ff" d="M985.33,-177.27C988.26,-176.83 991.15,-176.41 994,-176 1122.56,-157.56 1155.24,-157 1284,-140 1298.4,-138.1 1313.96,-135.96 1328.42,-133.94"/>
<polygon fill="#63b8ff" stroke="#63b8ff" points="1329.3,-137.35 1338.72,-132.49 1328.33,-130.42 1329.3,-137.35"/>
</g>
<!-- Node26&#45;&gt;Node17 -->
<g id="edge51" class="edge">
<title>Node26&#45;&gt;Node17</title>
<path fill="none" stroke="#63b8ff" d="M930.82,-175.95C948.18,-165.27 971.94,-150.65 989.27,-139.98"/>
<polygon fill="#63b8ff" stroke="#63b8ff" points="991.48,-142.74 998.16,-134.52 987.81,-136.78 991.48,-142.74"/>
</g>
<!-- Node26&#45;&gt;Node18 -->
<g id="edge54" class="edge">
<title>Node26&#45;&gt;Node18</title>
<path fill="none" stroke="#63b8ff" d="M885.4,-175.95C868.21,-165.27 844.67,-150.65 827.51,-139.98"/>
<polygon fill="#63b8ff" stroke="#63b8ff" points="829.05,-136.82 818.71,-134.52 825.35,-142.77 829.05,-136.82"/>
</g>
<!-- Node26&#45;&gt;Node20 -->
<g id="edge52" class="edge">
<title>Node26&#45;&gt;Node20</title>
<path fill="none" stroke="#63b8ff" d="M907.78,-175.8C907.64,-166.7 907.45,-154.79 907.3,-144.9"/>
<polygon fill="#63b8ff" stroke="#63b8ff" points="910.79,-144.79 907.14,-134.84 903.79,-144.9 910.79,-144.79"/>
</g>
<!-- Node26&#45;&gt;Node21 -->
<g id="edge53" class="edge">
<title>Node26&#45;&gt;Node21</title>
<path fill="none" stroke="#63b8ff" d="M859.94,-175.95C820.35,-164.38 764.91,-148.18 728.03,-137.41"/>
<polygon fill="#63b8ff" stroke="#63b8ff" points="728.73,-133.96 718.15,-134.52 726.76,-140.68 728.73,-133.96"/>
</g>
<!-- Node27&#45;&gt;Node10 -->
<g id="edge57" class="edge">
<title>Node27&#45;&gt;Node10</title>
<path fill="none" stroke="#63b8ff" d="M1497.18,-175.95C1471.97,-164.83 1437.07,-149.42 1412.71,-138.67"/>
<polygon fill="#63b8ff" stroke="#63b8ff" points="1413.86,-135.35 1403.3,-134.52 1411.03,-141.76 1413.86,-135.35"/>
</g>
<!-- Node28&#45;&gt;Node10 -->
<g id="edge59" class="edge">
<title>Node28&#45;&gt;Node10</title>
<path fill="none" stroke="#63b8ff" d="M1609.27,-177.13C1557.17,-165.3 1480.81,-147.97 1431.75,-136.84"/>
<polygon fill="#63b8ff" stroke="#63b8ff" points="1432.25,-133.36 1421.72,-134.56 1430.7,-140.19 1432.25,-133.36"/>
</g>
<!-- Node29&#45;&gt;Node10 -->
<g id="edge61" class="edge">
<title>Node29&#45;&gt;Node10</title>
<path fill="none" stroke="#63b8ff" d="M1384,-175.8C1384,-166.7 1384,-154.79 1384,-144.9"/>
<polygon fill="#63b8ff" stroke="#63b8ff" points="1387.5,-144.84 1384,-134.84 1380.5,-144.84 1387.5,-144.84"/>
</g>
</g>
</svg>
