<?xml version="1.0" encoding="UTF-8" standalone="no"?>
<!DOCTYPE svg PUBLIC "-//W3C//DTD SVG 1.1//EN"
 "http://www.w3.org/Graphics/SVG/1.1/DTD/svg11.dtd">
<!-- Generated by graphviz version 2.43.0 (0)
 -->
<!-- Title: firmware/wombat/src/mqtt_stack.cpp Pages: 1 -->
<svg width="1500pt" height="324pt"
 viewBox="0.00 0.00 1500.29 324.00" xmlns="http://www.w3.org/2000/svg" xmlns:xlink="http://www.w3.org/1999/xlink">
<g id="graph0" class="graph" transform="scale(1 1) rotate(0) translate(4 320)">
<title>firmware/wombat/src/mqtt_stack.cpp</title>
<!-- Node1 -->
<g id="node1" class="node">
<title>Node1</title>
<g id="a_node1"><a xlink:title=" ">
<polygon fill="#999999" stroke="#666666" points="827.29,-316 707.29,-316 707.29,-286 827.29,-286 827.29,-316"/>
<text text-anchor="start" x="715.29" y="-304" font-family="Helvetica,sans-Serif" font-size="10.00">firmware/wombat/src</text>
<text text-anchor="middle" x="767.29" y="-293" font-family="Helvetica,sans-Serif" font-size="10.00">/mqtt_stack.cpp</text>
</a>
</g>
</g>
<!-- Node2 -->
<g id="node2" class="node">
<title>Node2</title>
<g id="a_node2"><a xlink:href="_utils_8h.html" target="_top" xlink:title=" ">
<polygon fill="white" stroke="#666666" points="354.29,-129 306.29,-129 306.29,-110 354.29,-110 354.29,-129"/>
<text text-anchor="middle" x="330.29" y="-117" font-family="Helvetica,sans-Serif" font-size="10.00">Utils.h</text>
</a>
</g>
</g>
<!-- Node1&#45;&gt;Node2 -->
<g id="edge1" class="edge">
<title>Node1&#45;&gt;Node2</title>
<path fill="none" stroke="#63b8ff" d="M707.14,-298.98C566.63,-296.02 220.47,-285.27 110.29,-250 65.29,-235.59 42.51,-236.16 19.29,-195 12.74,-183.39 10.56,-175.07 19.29,-165 54.8,-124.05 222.59,-119.86 295.89,-120.04"/>
<polygon fill="#63b8ff" stroke="#63b8ff" points="295.98,-123.54 305.99,-120.09 296.01,-116.54 295.98,-123.54"/>
</g>
<!-- Node6 -->
<g id="node6" class="node">
<title>Node6</title>
<g id="a_node6"><a xlink:href="_device_config_8h.html" target="_top" xlink:title="Node configuration options.">
<polygon fill="white" stroke="#666666" points="462.29,-129 372.29,-129 372.29,-110 462.29,-110 462.29,-129"/>
<text text-anchor="middle" x="417.29" y="-117" font-family="Helvetica,sans-Serif" font-size="10.00">DeviceConfig.h</text>
</a>
</g>
</g>
<!-- Node1&#45;&gt;Node6 -->
<g id="edge5" class="edge">
<title>Node1&#45;&gt;Node6</title>
<path fill="none" stroke="#63b8ff" d="M707.12,-300.61C551.99,-300.77 144.74,-291.78 61.29,-195 -6.02,-116.93 -114.41,-194.18 362.3,-129.09"/>
<polygon fill="#63b8ff" stroke="#63b8ff" points="362.8,-132.55 372.23,-127.72 361.85,-125.62 362.8,-132.55"/>
</g>
<!-- Node8 -->
<g id="node8" class="node">
<title>Node8</title>
<g id="a_node8"><a xlink:title=" ">
<polygon fill="#e0e0e0" stroke="#999999" points="1492.29,-195 1362.29,-195 1362.29,-165 1492.29,-165 1492.29,-195"/>
<text text-anchor="start" x="1370.29" y="-183" font-family="Helvetica,sans-Serif" font-size="10.00">SparkFun_u&#45;blox_SARA</text>
<text text-anchor="middle" x="1427.29" y="-172" font-family="Helvetica,sans-Serif" font-size="10.00">&#45;R5_Arduino_Library.h</text>
</a>
</g>
</g>
<!-- Node1&#45;&gt;Node8 -->
<g id="edge8" class="edge">
<title>Node1&#45;&gt;Node8</title>
<path fill="none" stroke="#63b8ff" d="M827.45,-297.8C971.36,-292.15 1327.06,-275.74 1374.29,-250 1392.86,-239.88 1406.96,-220.21 1415.94,-204.44"/>
<polygon fill="#63b8ff" stroke="#63b8ff" points="1419.22,-205.73 1420.86,-195.26 1413.05,-202.42 1419.22,-205.73"/>
</g>
<!-- Node9 -->
<g id="node9" class="node">
<title>Node9</title>
<g id="a_node9"><a xlink:href="globals_8h.html" target="_top" xlink:title=" ">
<polygon fill="white" stroke="#666666" points="1364.79,-250 1303.79,-250 1303.79,-231 1364.79,-231 1364.79,-250"/>
<text text-anchor="middle" x="1334.29" y="-238" font-family="Helvetica,sans-Serif" font-size="10.00">globals.h</text>
</a>
</g>
</g>
<!-- Node1&#45;&gt;Node9 -->
<g id="edge9" class="edge">
<title>Node1&#45;&gt;Node9</title>
<path fill="none" stroke="#63b8ff" d="M827.44,-293.79C943.34,-281.84 1194.9,-255.88 1293.49,-245.71"/>
<polygon fill="#63b8ff" stroke="#63b8ff" points="1294.06,-249.17 1303.64,-244.66 1293.34,-242.21 1294.06,-249.17"/>
</g>
<!-- Node13 -->
<g id="node13" class="node">
<title>Node13</title>
<g id="a_node13"><a xlink:href="_c_l_i_8h.html" target="_top" xlink:title="FreeRTOS CLI handler.">
<polygon fill="white" stroke="#666666" points="794.79,-250 739.79,-250 739.79,-231 794.79,-231 794.79,-250"/>
<text text-anchor="middle" x="767.29" y="-238" font-family="Helvetica,sans-Serif" font-size="10.00">cli/CLI.h</text>
</a>
</g>
</g>
<!-- Node1&#45;&gt;Node13 -->
<g id="edge16" class="edge">
<title>Node1&#45;&gt;Node13</title>
<path fill="none" stroke="#63b8ff" d="M767.29,-285.84C767.29,-278.21 767.29,-268.7 767.29,-260.45"/>
<polygon fill="#63b8ff" stroke="#63b8ff" points="770.79,-260.27 767.29,-250.27 763.79,-260.27 770.79,-260.27"/>
</g>
<!-- Node3 -->
<g id="node3" class="node">
<title>Node3</title>
<g id="a_node3"><a xlink:title=" ">
<polygon fill="#e0e0e0" stroke="#999999" points="357.29,-74 301.29,-74 301.29,-55 357.29,-55 357.29,-74"/>
<text text-anchor="middle" x="329.29" y="-62" font-family="Helvetica,sans-Serif" font-size="10.00">stddef.h</text>
</a>
</g>
</g>
<!-- Node2&#45;&gt;Node3 -->
<g id="edge2" class="edge">
<title>Node2&#45;&gt;Node3</title>
<path fill="none" stroke="#63b8ff" d="M330.13,-109.75C330,-102.8 329.81,-92.85 329.65,-84.13"/>
<polygon fill="#63b8ff" stroke="#63b8ff" points="333.14,-84.02 329.46,-74.09 326.15,-84.15 333.14,-84.02"/>
</g>
<!-- Node4 -->
<g id="node4" class="node">
<title>Node4</title>
<g id="a_node4"><a xlink:title=" ">
<polygon fill="#e0e0e0" stroke="#999999" points="458.79,-74 375.79,-74 375.79,-55 458.79,-55 458.79,-74"/>
<text text-anchor="middle" x="417.29" y="-62" font-family="Helvetica,sans-Serif" font-size="10.00">ArduinoJson.h</text>
</a>
</g>
</g>
<!-- Node2&#45;&gt;Node4 -->
<g id="edge3" class="edge">
<title>Node2&#45;&gt;Node4</title>
<path fill="none" stroke="#63b8ff" d="M344.27,-109.98C357.76,-101.77 378.43,-89.18 394.34,-79.49"/>
<polygon fill="#63b8ff" stroke="#63b8ff" points="396.34,-82.36 403.06,-74.17 392.7,-76.38 396.34,-82.36"/>
</g>
<!-- Node5 -->
<g id="node5" class="node">
<title>Node5</title>
<g id="a_node5"><a xlink:title=" ">
<polygon fill="#e0e0e0" stroke="#999999" points="627.79,-74 534.79,-74 534.79,-55 627.79,-55 627.79,-74"/>
<text text-anchor="middle" x="581.29" y="-62" font-family="Helvetica,sans-Serif" font-size="10.00">dpiclimate&#45;12.h</text>
</a>
</g>
</g>
<!-- Node2&#45;&gt;Node5 -->
<g id="edge4" class="edge">
<title>Node2&#45;&gt;Node5</title>
<path fill="none" stroke="#63b8ff" d="M354.41,-112.14C357.4,-111.39 360.41,-110.66 363.29,-110 418.47,-97.27 481.93,-84.53 526.1,-75.96"/>
<polygon fill="#63b8ff" stroke="#63b8ff" points="526.9,-79.37 536.06,-74.04 525.58,-72.5 526.9,-79.37"/>
</g>
<!-- Node6&#45;&gt;Node4 -->
<g id="edge7" class="edge">
<title>Node6&#45;&gt;Node4</title>
<path fill="none" stroke="#63b8ff" d="M417.29,-109.75C417.29,-102.8 417.29,-92.85 417.29,-84.13"/>
<polygon fill="#63b8ff" stroke="#63b8ff" points="420.79,-84.09 417.29,-74.09 413.79,-84.09 420.79,-84.09"/>
</g>
<!-- Node7 -->
<g id="node7" class="node">
<title>Node7</title>
<g id="a_node7"><a xlink:title=" ">
<polygon fill="#e0e0e0" stroke="#999999" points="1209.79,-19 1146.79,-19 1146.79,0 1209.79,0 1209.79,-19"/>
<text text-anchor="middle" x="1178.29" y="-7" font-family="Helvetica,sans-Serif" font-size="10.00">Arduino.h</text>
</a>
</g>
</g>
<!-- Node6&#45;&gt;Node7 -->
<g id="edge6" class="edge">
<title>Node6&#45;&gt;Node7</title>
<path fill="none" stroke="#63b8ff" d="M427.95,-110C446.6,-95.66 486.93,-67.08 526.29,-55 640.91,-19.82 1010.64,-12.4 1136.15,-10.88"/>
<polygon fill="#63b8ff" stroke="#63b8ff" points="1136.53,-14.37 1146.49,-10.76 1136.45,-7.37 1136.53,-14.37"/>
</g>
<!-- Node9&#45;&gt;Node8 -->
<g id="edge10" class="edge">
<title>Node9&#45;&gt;Node8</title>
<path fill="none" stroke="#63b8ff" d="M1348.02,-230.87C1360.64,-222.93 1379.81,-210.87 1396.14,-200.6"/>
<polygon fill="#63b8ff" stroke="#63b8ff" points="1398.25,-203.4 1404.86,-195.11 1394.53,-197.48 1398.25,-203.4"/>
</g>
<!-- Node10 -->
<g id="node10" class="node">
<title>Node10</title>
<g id="a_node10"><a xlink:href="_c_a_t___m1_8h.html" target="_top" xlink:title=" ">
<polygon fill="white" stroke="#666666" points="1271.79,-129 1206.79,-129 1206.79,-110 1271.79,-110 1271.79,-129"/>
<text text-anchor="middle" x="1239.29" y="-117" font-family="Helvetica,sans-Serif" font-size="10.00">CAT_M1.h</text>
</a>
</g>
</g>
<!-- Node9&#45;&gt;Node10 -->
<g id="edge11" class="edge">
<title>Node9&#45;&gt;Node10</title>
<path fill="none" stroke="#63b8ff" d="M1334.18,-230.77C1333.56,-215.83 1330.39,-185.05 1315.29,-165 1304.73,-150.97 1288.35,-140.58 1273.5,-133.37"/>
<polygon fill="#63b8ff" stroke="#63b8ff" points="1274.59,-130.03 1264.04,-129.1 1271.71,-136.4 1274.59,-130.03"/>
</g>
<!-- Node11 -->
<g id="node11" class="node">
<title>Node11</title>
<g id="a_node11"><a xlink:title=" ">
<polygon fill="#e0e0e0" stroke="#999999" points="1301.29,-19 1253.29,-19 1253.29,0 1301.29,0 1301.29,-19"/>
<text text-anchor="middle" x="1277.29" y="-7" font-family="Helvetica,sans-Serif" font-size="10.00">Wire.h</text>
</a>
</g>
</g>
<!-- Node10&#45;&gt;Node11 -->
<g id="edge12" class="edge">
<title>Node10&#45;&gt;Node11</title>
<path fill="none" stroke="#63b8ff" d="M1252.07,-110C1262.68,-102.1 1277.02,-89.27 1283.29,-74 1289.21,-59.6 1286.82,-41.86 1283.46,-28.79"/>
<polygon fill="#63b8ff" stroke="#63b8ff" points="1286.78,-27.68 1280.57,-19.09 1280.07,-29.68 1286.78,-27.68"/>
</g>
<!-- Node12 -->
<g id="node12" class="node">
<title>Node12</title>
<g id="a_node12"><a xlink:href="_t_c_a9534_8h.html" target="_top" xlink:title=" ">
<polygon fill="white" stroke="#666666" points="1274.29,-74 1206.29,-74 1206.29,-55 1274.29,-55 1274.29,-74"/>
<text text-anchor="middle" x="1240.29" y="-62" font-family="Helvetica,sans-Serif" font-size="10.00">TCA9534.h</text>
</a>
</g>
</g>
<!-- Node10&#45;&gt;Node12 -->
<g id="edge13" class="edge">
<title>Node10&#45;&gt;Node12</title>
<path fill="none" stroke="#63b8ff" d="M1239.46,-109.75C1239.59,-102.8 1239.78,-92.85 1239.94,-84.13"/>
<polygon fill="#63b8ff" stroke="#63b8ff" points="1243.44,-84.15 1240.13,-74.09 1236.44,-84.02 1243.44,-84.15"/>
</g>
<!-- Node12&#45;&gt;Node7 -->
<g id="edge14" class="edge">
<title>Node12&#45;&gt;Node7</title>
<path fill="none" stroke="#63b8ff" d="M1230.33,-54.98C1221.17,-47.15 1207.36,-35.34 1196.27,-25.86"/>
<polygon fill="#63b8ff" stroke="#63b8ff" points="1198.31,-23.01 1188.44,-19.17 1193.76,-28.33 1198.31,-23.01"/>
</g>
<!-- Node12&#45;&gt;Node11 -->
<g id="edge15" class="edge">
<title>Node12&#45;&gt;Node11</title>
<path fill="none" stroke="#63b8ff" d="M1246.4,-54.75C1251.58,-47.34 1259.14,-36.5 1265.49,-27.41"/>
<polygon fill="#63b8ff" stroke="#63b8ff" points="1268.44,-29.29 1271.3,-19.09 1262.7,-25.29 1268.44,-29.29"/>
</g>
<!-- Node13&#45;&gt;Node7 -->
<g id="edge17" class="edge">
<title>Node13&#45;&gt;Node7</title>
<path fill="none" stroke="#63b8ff" d="M795.06,-240.14C872.28,-241.32 1087.18,-240.38 1137.29,-195 1184.9,-151.88 1183.68,-66.83 1180.46,-29.18"/>
<polygon fill="#63b8ff" stroke="#63b8ff" points="1183.93,-28.72 1179.45,-19.12 1176.97,-29.42 1183.93,-28.72"/>
</g>
<!-- Node14 -->
<g id="node14" class="node">
<title>Node14</title>
<g id="a_node14"><a xlink:title=" ">
<polygon fill="#e0e0e0" stroke="#999999" points="1088.79,-129 975.79,-129 975.79,-110 1088.79,-110 1088.79,-129"/>
<text text-anchor="middle" x="1032.29" y="-117" font-family="Helvetica,sans-Serif" font-size="10.00">freertos/FreeRTOS.h</text>
</a>
</g>
</g>
<!-- Node13&#45;&gt;Node14 -->
<g id="edge18" class="edge">
<title>Node13&#45;&gt;Node14</title>
<path fill="none" stroke="#63b8ff" d="M794.82,-238.1C874.28,-233.78 1099.73,-219.44 1121.29,-195 1130.11,-185 1128.3,-176.34 1121.29,-165 1111.8,-149.64 1095.23,-139.41 1078.94,-132.68"/>
<polygon fill="#63b8ff" stroke="#63b8ff" points="1080.03,-129.35 1069.44,-129.1 1077.57,-135.9 1080.03,-129.35"/>
</g>
<!-- Node15 -->
<g id="node15" class="node">
<title>Node15</title>
<g id="a_node15"><a xlink:title=" ">
<polygon fill="#e0e0e0" stroke="#999999" points="756.79,-129 649.79,-129 649.79,-110 756.79,-110 756.79,-129"/>
<text text-anchor="middle" x="703.29" y="-117" font-family="Helvetica,sans-Serif" font-size="10.00">cli/FreeRTOS_CLI.h</text>
</a>
</g>
</g>
<!-- Node13&#45;&gt;Node15 -->
<g id="edge19" class="edge">
<title>Node13&#45;&gt;Node15</title>
<path fill="none" stroke="#63b8ff" d="M739.38,-238.76C680.93,-236.56 548.84,-227.98 521.29,-195 484.7,-151.2 573.51,-132.83 639.54,-125.36"/>
<polygon fill="#63b8ff" stroke="#63b8ff" points="639.94,-128.84 649.51,-124.3 639.2,-121.88 639.94,-128.84"/>
</g>
<!-- Node16 -->
<g id="node16" class="node">
<title>Node16</title>
<g id="a_node16"><a xlink:href="cat-m1_8h.html" target="_top" xlink:title="CAT&#45;M1 CLI command request and response handler.">
<polygon fill="white" stroke="#666666" points="1112.29,-189.5 980.29,-189.5 980.29,-170.5 1112.29,-170.5 1112.29,-189.5"/>
<text text-anchor="middle" x="1046.29" y="-177.5" font-family="Helvetica,sans-Serif" font-size="10.00">cli/peripherals/cat&#45;m1.h</text>
</a>
</g>
</g>
<!-- Node13&#45;&gt;Node16 -->
<g id="edge20" class="edge">
<title>Node13&#45;&gt;Node16</title>
<path fill="none" stroke="#63b8ff" d="M794.81,-233.73C841.46,-223.95 936.76,-203.97 995.72,-191.61"/>
<polygon fill="#63b8ff" stroke="#63b8ff" points="996.5,-195.02 1005.57,-189.54 995.06,-188.17 996.5,-195.02"/>
</g>
<!-- Node19 -->
<g id="node19" class="node">
<title>Node19</title>
<g id="a_node19"><a xlink:href="sdi12_8h.html" target="_top" xlink:title="SDI&#45;12 command line interface handler.">
<polygon fill="white" stroke="#666666" points="654.29,-189.5 530.29,-189.5 530.29,-170.5 654.29,-170.5 654.29,-189.5"/>
<text text-anchor="middle" x="592.29" y="-177.5" font-family="Helvetica,sans-Serif" font-size="10.00">cli/peripherals/sdi12.h</text>
</a>
</g>
</g>
<!-- Node13&#45;&gt;Node19 -->
<g id="edge26" class="edge">
<title>Node13&#45;&gt;Node19</title>
<path fill="none" stroke="#63b8ff" d="M741.85,-230.99C711.65,-220.9 661.14,-204.01 627.28,-192.69"/>
<polygon fill="#63b8ff" stroke="#63b8ff" points="628.37,-189.37 617.77,-189.52 626.15,-196.01 628.37,-189.37"/>
</g>
<!-- Node20 -->
<g id="node20" class="node">
<title>Node20</title>
<g id="a_node20"><a xlink:href="cli__power_8h.html" target="_top" xlink:title=" ">
<polygon fill="white" stroke="#666666" points="962.29,-195 862.29,-195 862.29,-165 962.29,-165 962.29,-195"/>
<text text-anchor="start" x="870.29" y="-183" font-family="Helvetica,sans-Serif" font-size="10.00">cli/peripherals/cli</text>
<text text-anchor="middle" x="912.29" y="-172" font-family="Helvetica,sans-Serif" font-size="10.00">_power.h</text>
</a>
</g>
</g>
<!-- Node13&#45;&gt;Node20 -->
<g id="edge34" class="edge">
<title>Node13&#45;&gt;Node20</title>
<path fill="none" stroke="#63b8ff" d="M788.38,-230.99C809.16,-222.61 841.54,-209.55 867.99,-198.87"/>
<polygon fill="#63b8ff" stroke="#63b8ff" points="869.47,-202.05 877.43,-195.06 866.85,-195.56 869.47,-202.05"/>
</g>
<!-- Node21 -->
<g id="node21" class="node">
<title>Node21</title>
<g id="a_node21"><a xlink:href="sd__card_8h.html" target="_top" xlink:title=" ">
<polygon fill="white" stroke="#666666" points="1306.29,-195 1206.29,-195 1206.29,-165 1306.29,-165 1306.29,-195"/>
<text text-anchor="start" x="1214.29" y="-183" font-family="Helvetica,sans-Serif" font-size="10.00">cli/peripherals/sd</text>
<text text-anchor="middle" x="1256.29" y="-172" font-family="Helvetica,sans-Serif" font-size="10.00">_card.h</text>
</a>
</g>
</g>
<!-- Node13&#45;&gt;Node21 -->
<g id="edge40" class="edge">
<title>Node13&#45;&gt;Node21</title>
<path fill="none" stroke="#63b8ff" d="M795.03,-237.67C863.05,-232.94 1043.43,-219 1192.29,-195 1193.56,-194.8 1194.83,-194.58 1196.12,-194.36"/>
<polygon fill="#63b8ff" stroke="#63b8ff" points="1196.88,-197.78 1206.09,-192.53 1195.62,-190.9 1196.88,-197.78"/>
</g>
<!-- Node23 -->
<g id="node23" class="node">
<title>Node23</title>
<g id="a_node23"><a xlink:href="acquisition__intervals_8h.html" target="_top" xlink:title="Handles the time between measurements and uplinks by the device over LTE.">
<polygon fill="white" stroke="#666666" points="844.29,-195 690.29,-195 690.29,-165 844.29,-165 844.29,-195"/>
<text text-anchor="start" x="698.29" y="-183" font-family="Helvetica,sans-Serif" font-size="10.00">cli/device_config/acquisition</text>
<text text-anchor="middle" x="767.29" y="-172" font-family="Helvetica,sans-Serif" font-size="10.00">_intervals.h</text>
</a>
</g>
</g>
<!-- Node13&#45;&gt;Node23 -->
<g id="edge43" class="edge">
<title>Node13&#45;&gt;Node23</title>
<path fill="none" stroke="#63b8ff" d="M767.29,-230.87C767.29,-224.11 767.29,-214.35 767.29,-205.26"/>
<polygon fill="#63b8ff" stroke="#63b8ff" points="770.79,-205.11 767.29,-195.11 763.79,-205.11 770.79,-205.11"/>
</g>
<!-- Node24 -->
<g id="node24" class="node">
<title>Node24</title>
<g id="a_node24"><a xlink:href="mqtt__cli_8h.html" target="_top" xlink:title="MQTT setup and configuration through the CLI.">
<polygon fill="white" stroke="#666666" points="342.29,-195 218.29,-195 218.29,-165 342.29,-165 342.29,-195"/>
<text text-anchor="start" x="226.29" y="-183" font-family="Helvetica,sans-Serif" font-size="10.00">cli/device_config/mqtt</text>
<text text-anchor="middle" x="280.29" y="-172" font-family="Helvetica,sans-Serif" font-size="10.00">_cli.h</text>
</a>
</g>
</g>
<!-- Node13&#45;&gt;Node24 -->
<g id="edge49" class="edge">
<title>Node13&#45;&gt;Node24</title>
<path fill="none" stroke="#63b8ff" d="M739.51,-237.34C674.05,-232.09 504.87,-217.49 352.68,-194.96"/>
<polygon fill="#63b8ff" stroke="#63b8ff" points="353.09,-191.49 342.68,-193.47 352.05,-198.41 353.09,-191.49"/>
</g>
<!-- Node25 -->
<g id="node25" class="node">
<title>Node25</title>
<g id="a_node25"><a xlink:href="ftp__cli_8h.html" target="_top" xlink:title="FTP setup and configuration through the CLI.">
<polygon fill="white" stroke="#666666" points="473.79,-195 360.79,-195 360.79,-165 473.79,-165 473.79,-195"/>
<text text-anchor="start" x="368.79" y="-183" font-family="Helvetica,sans-Serif" font-size="10.00">cli/device_config/ftp</text>
<text text-anchor="middle" x="417.29" y="-172" font-family="Helvetica,sans-Serif" font-size="10.00">_cli.h</text>
</a>
</g>
</g>
<!-- Node13&#45;&gt;Node25 -->
<g id="edge51" class="edge">
<title>Node13&#45;&gt;Node25</title>
<path fill="none" stroke="#63b8ff" d="M739.52,-235.41C689.29,-227.95 580.04,-211.36 488.29,-195 486.83,-194.74 485.34,-194.47 483.84,-194.2"/>
<polygon fill="#63b8ff" stroke="#63b8ff" points="484.31,-190.73 473.84,-192.34 483.03,-197.61 484.31,-190.73"/>
</g>
<!-- Node26 -->
<g id="node26" class="node">
<title>Node26</title>
<g id="a_node26"><a xlink:href="config__cli_8h.html" target="_top" xlink:title=" ">
<polygon fill="white" stroke="#666666" points="200.29,-195 70.29,-195 70.29,-165 200.29,-165 200.29,-195"/>
<text text-anchor="start" x="78.29" y="-183" font-family="Helvetica,sans-Serif" font-size="10.00">cli/device_config/config</text>
<text text-anchor="middle" x="135.29" y="-172" font-family="Helvetica,sans-Serif" font-size="10.00">_cli.h</text>
</a>
</g>
</g>
<!-- Node13&#45;&gt;Node26 -->
<g id="edge53" class="edge">
<title>Node13&#45;&gt;Node26</title>
<path fill="none" stroke="#63b8ff" d="M739.6,-238.35C659.33,-234.78 419.46,-222.54 210.53,-195.07"/>
<polygon fill="#63b8ff" stroke="#63b8ff" points="210.98,-191.6 200.6,-193.75 210.05,-198.54 210.98,-191.6"/>
</g>
<!-- Node16&#45;&gt;Node10 -->
<g id="edge25" class="edge">
<title>Node16&#45;&gt;Node10</title>
<path fill="none" stroke="#63b8ff" d="M1074.36,-170.49C1107.81,-160.36 1163.85,-143.37 1201.19,-132.05"/>
<polygon fill="#63b8ff" stroke="#63b8ff" points="1202.64,-135.27 1211.2,-129.02 1200.61,-128.57 1202.64,-135.27"/>
</g>
<!-- Node16&#45;&gt;Node14 -->
<g id="edge21" class="edge">
<title>Node16&#45;&gt;Node14</title>
<path fill="none" stroke="#63b8ff" d="M1044.23,-170.37C1042.26,-162.16 1039.24,-149.54 1036.73,-139.05"/>
<polygon fill="#63b8ff" stroke="#63b8ff" points="1040.1,-138.08 1034.37,-129.17 1033.29,-139.71 1040.1,-138.08"/>
</g>
<!-- Node16&#45;&gt;Node15 -->
<g id="edge24" class="edge">
<title>Node16&#45;&gt;Node15</title>
<path fill="none" stroke="#63b8ff" d="M1001.51,-170.49C991.57,-168.64 981.08,-166.73 971.29,-165 901.37,-152.67 821,-139.45 766.66,-130.65"/>
<polygon fill="#63b8ff" stroke="#63b8ff" points="766.92,-127.15 756.49,-129.01 765.8,-134.06 766.92,-127.15"/>
</g>
<!-- Node17 -->
<g id="node17" class="node">
<title>Node17</title>
<g id="a_node17"><a xlink:title=" ">
<polygon fill="#e0e0e0" stroke="#999999" points="942.79,-129 881.79,-129 881.79,-110 942.79,-110 942.79,-129"/>
<text text-anchor="middle" x="912.29" y="-117" font-family="Helvetica,sans-Serif" font-size="10.00">Stream.h</text>
</a>
</g>
</g>
<!-- Node16&#45;&gt;Node17 -->
<g id="edge22" class="edge">
<title>Node16&#45;&gt;Node17</title>
<path fill="none" stroke="#63b8ff" d="M1026.81,-170.49C1004.28,-160.66 966.99,-144.38 941.11,-133.08"/>
<polygon fill="#63b8ff" stroke="#63b8ff" points="942.37,-129.81 931.8,-129.02 939.57,-136.23 942.37,-129.81"/>
</g>
<!-- Node18 -->
<g id="node18" class="node">
<title>Node18</title>
<g id="a_node18"><a xlink:title=" ">
<polygon fill="#e0e0e0" stroke="#999999" points="863.79,-129 774.79,-129 774.79,-110 863.79,-110 863.79,-129"/>
<text text-anchor="middle" x="819.29" y="-117" font-family="Helvetica,sans-Serif" font-size="10.00">StreamString.h</text>
</a>
</g>
</g>
<!-- Node16&#45;&gt;Node18 -->
<g id="edge23" class="edge">
<title>Node16&#45;&gt;Node18</title>
<path fill="none" stroke="#63b8ff" d="M1013.29,-170.49C973.36,-160.2 906.05,-142.86 862.15,-131.54"/>
<polygon fill="#63b8ff" stroke="#63b8ff" points="862.9,-128.12 852.34,-129.02 861.15,-134.9 862.9,-128.12"/>
</g>
<!-- Node19&#45;&gt;Node2 -->
<g id="edge33" class="edge">
<title>Node19&#45;&gt;Node2</title>
<path fill="none" stroke="#63b8ff" d="M550.82,-170.43C506.93,-161.25 435.41,-145.99 364.43,-129.2"/>
<polygon fill="#63b8ff" stroke="#63b8ff" points="364.96,-125.73 354.42,-126.82 363.34,-132.54 364.96,-125.73"/>
</g>
<!-- Node19&#45;&gt;Node5 -->
<g id="edge31" class="edge">
<title>Node19&#45;&gt;Node5</title>
<path fill="none" stroke="#63b8ff" d="M591.47,-170.47C589.7,-152.23 585.52,-109.07 583.1,-84.14"/>
<polygon fill="#63b8ff" stroke="#63b8ff" points="586.58,-83.75 582.13,-74.13 579.61,-84.42 586.58,-83.75"/>
</g>
<!-- Node19&#45;&gt;Node14 -->
<g id="edge27" class="edge">
<title>Node19&#45;&gt;Node14</title>
<path fill="none" stroke="#63b8ff" d="M644.96,-170.45C656.9,-168.58 669.52,-166.67 681.29,-165 780.12,-150.97 894.92,-136.82 965.59,-128.35"/>
<polygon fill="#63b8ff" stroke="#63b8ff" points="966.17,-131.81 975.69,-127.15 965.34,-124.86 966.17,-131.81"/>
</g>
<!-- Node19&#45;&gt;Node15 -->
<g id="edge32" class="edge">
<title>Node19&#45;&gt;Node15</title>
<path fill="none" stroke="#63b8ff" d="M608.67,-170.37C626.87,-160.78 656.49,-145.17 677.74,-133.97"/>
<polygon fill="#63b8ff" stroke="#63b8ff" points="679.63,-136.93 686.85,-129.17 676.37,-130.73 679.63,-136.93"/>
</g>
<!-- Node19&#45;&gt;Node17 -->
<g id="edge28" class="edge">
<title>Node19&#45;&gt;Node17</title>
<path fill="none" stroke="#63b8ff" d="M643.68,-170.47C698.01,-161.31 786.46,-146.01 871.81,-129.24"/>
<polygon fill="#63b8ff" stroke="#63b8ff" points="872.53,-132.66 881.66,-127.29 871.17,-125.8 872.53,-132.66"/>
</g>
<!-- Node19&#45;&gt;Node18 -->
<g id="edge29" class="edge">
<title>Node19&#45;&gt;Node18</title>
<path fill="none" stroke="#63b8ff" d="M625.3,-170.49C665.23,-160.2 732.54,-142.86 776.44,-131.54"/>
<polygon fill="#63b8ff" stroke="#63b8ff" points="777.44,-134.9 786.25,-129.02 775.69,-128.12 777.44,-134.9"/>
</g>
<!-- Node19&#45;&gt;Node19 -->
<g id="edge30" class="edge">
<title>Node19&#45;&gt;Node19</title>
<path fill="none" stroke="#63b8ff" d="M621.83,-189.53C646.51,-193.61 672.29,-190.43 672.29,-180 672.29,-171 653.08,-167.4 631.95,-169.2"/>
<polygon fill="#63b8ff" stroke="#63b8ff" points="631.32,-165.75 621.83,-170.47 632.19,-172.7 631.32,-165.75"/>
</g>
<!-- Node20&#45;&gt;Node10 -->
<g id="edge39" class="edge">
<title>Node20&#45;&gt;Node10</title>
<path fill="none" stroke="#63b8ff" d="M962.45,-166.85C965.44,-166.2 968.4,-165.58 971.29,-165 1050.4,-149.07 1143.48,-134.55 1196.51,-126.68"/>
<polygon fill="#63b8ff" stroke="#63b8ff" points="1197.19,-130.12 1206.57,-125.2 1196.17,-123.19 1197.19,-130.12"/>
</g>
<!-- Node20&#45;&gt;Node14 -->
<g id="edge35" class="edge">
<title>Node20&#45;&gt;Node14</title>
<path fill="none" stroke="#63b8ff" d="M941.04,-164.99C960.61,-155.45 986.34,-142.9 1005.49,-133.57"/>
<polygon fill="#63b8ff" stroke="#63b8ff" points="1007.12,-136.67 1014.57,-129.14 1004.05,-130.38 1007.12,-136.67"/>
</g>
<!-- Node20&#45;&gt;Node15 -->
<g id="edge38" class="edge">
<title>Node20&#45;&gt;Node15</title>
<path fill="none" stroke="#63b8ff" d="M862.23,-164.99C826.01,-154.85 777.67,-141.32 743.85,-131.85"/>
<polygon fill="#63b8ff" stroke="#63b8ff" points="744.43,-128.38 733.85,-129.05 742.54,-135.12 744.43,-128.38"/>
</g>
<!-- Node20&#45;&gt;Node17 -->
<g id="edge36" class="edge">
<title>Node20&#45;&gt;Node17</title>
<path fill="none" stroke="#63b8ff" d="M912.29,-164.84C912.29,-157.21 912.29,-147.7 912.29,-139.45"/>
<polygon fill="#63b8ff" stroke="#63b8ff" points="915.79,-139.27 912.29,-129.27 908.79,-139.27 915.79,-139.27"/>
</g>
<!-- Node20&#45;&gt;Node18 -->
<g id="edge37" class="edge">
<title>Node20&#45;&gt;Node18</title>
<path fill="none" stroke="#63b8ff" d="M889.78,-164.84C875.23,-155.68 856.36,-143.82 841.81,-134.66"/>
<polygon fill="#63b8ff" stroke="#63b8ff" points="843.29,-131.46 832.96,-129.09 839.56,-137.38 843.29,-131.46"/>
</g>
<!-- Node21&#45;&gt;Node14 -->
<g id="edge41" class="edge">
<title>Node21&#45;&gt;Node14</title>
<path fill="none" stroke="#63b8ff" d="M1206.02,-165.87C1166.64,-155.59 1112.46,-141.44 1075.12,-131.69"/>
<polygon fill="#63b8ff" stroke="#63b8ff" points="1075.63,-128.2 1065.07,-129.06 1073.86,-134.97 1075.63,-128.2"/>
</g>
<!-- Node22 -->
<g id="node22" class="node">
<title>Node22</title>
<g id="a_node22"><a xlink:title=" ">
<polygon fill="#e0e0e0" stroke="#999999" points="1334.29,-129 1290.29,-129 1290.29,-110 1334.29,-110 1334.29,-129"/>
<text text-anchor="middle" x="1312.29" y="-117" font-family="Helvetica,sans-Serif" font-size="10.00">string</text>
</a>
</g>
</g>
<!-- Node21&#45;&gt;Node22 -->
<g id="edge42" class="edge">
<title>Node21&#45;&gt;Node22</title>
<path fill="none" stroke="#63b8ff" d="M1269.85,-164.84C1277.98,-156.35 1288.34,-145.52 1296.8,-136.69"/>
<polygon fill="#63b8ff" stroke="#63b8ff" points="1299.52,-138.91 1303.9,-129.27 1294.46,-134.07 1299.52,-138.91"/>
</g>
<!-- Node23&#45;&gt;Node6 -->
<g id="edge48" class="edge">
<title>Node23&#45;&gt;Node6</title>
<path fill="none" stroke="#63b8ff" d="M690.05,-166.09C624.34,-155.11 531.56,-139.6 472.93,-129.8"/>
<polygon fill="#63b8ff" stroke="#63b8ff" points="473.19,-126.29 462.75,-128.1 472.04,-133.2 473.19,-126.29"/>
</g>
<!-- Node23&#45;&gt;Node14 -->
<g id="edge44" class="edge">
<title>Node23&#45;&gt;Node14</title>
<path fill="none" stroke="#63b8ff" d="M830.77,-164.99C877.69,-154.63 940.63,-140.73 983.61,-131.25"/>
<polygon fill="#63b8ff" stroke="#63b8ff" points="984.54,-134.63 993.55,-129.05 983.03,-127.79 984.54,-134.63"/>
</g>
<!-- Node23&#45;&gt;Node15 -->
<g id="edge47" class="edge">
<title>Node23&#45;&gt;Node15</title>
<path fill="none" stroke="#63b8ff" d="M751.8,-164.84C742.32,-156.17 730.18,-145.08 720.42,-136.15"/>
<polygon fill="#63b8ff" stroke="#63b8ff" points="722.63,-133.43 712.88,-129.27 717.9,-138.6 722.63,-133.43"/>
</g>
<!-- Node23&#45;&gt;Node17 -->
<g id="edge45" class="edge">
<title>Node23&#45;&gt;Node17</title>
<path fill="none" stroke="#63b8ff" d="M802.03,-164.99C826.22,-155.23 858.19,-142.33 881.48,-132.93"/>
<polygon fill="#63b8ff" stroke="#63b8ff" points="882.92,-136.13 890.88,-129.14 880.3,-129.63 882.92,-136.13"/>
</g>
<!-- Node23&#45;&gt;Node18 -->
<g id="edge46" class="edge">
<title>Node23&#45;&gt;Node18</title>
<path fill="none" stroke="#63b8ff" d="M779.88,-164.84C787.35,-156.43 796.86,-145.74 804.66,-136.96"/>
<polygon fill="#63b8ff" stroke="#63b8ff" points="807.47,-139.07 811.5,-129.27 802.24,-134.41 807.47,-139.07"/>
</g>
<!-- Node24&#45;&gt;Node6 -->
<g id="edge50" class="edge">
<title>Node24&#45;&gt;Node6</title>
<path fill="none" stroke="#63b8ff" d="M313.11,-164.99C335.76,-155.31 365.64,-142.56 387.59,-133.18"/>
<polygon fill="#63b8ff" stroke="#63b8ff" points="389.24,-136.29 397.06,-129.14 386.49,-129.85 389.24,-136.29"/>
</g>
<!-- Node25&#45;&gt;Node6 -->
<g id="edge52" class="edge">
<title>Node25&#45;&gt;Node6</title>
<path fill="none" stroke="#63b8ff" d="M417.29,-164.84C417.29,-157.21 417.29,-147.7 417.29,-139.45"/>
<polygon fill="#63b8ff" stroke="#63b8ff" points="420.79,-139.27 417.29,-129.27 413.79,-139.27 420.79,-139.27"/>
</g>
<!-- Node26&#45;&gt;Node6 -->
<g id="edge54" class="edge">
<title>Node26&#45;&gt;Node6</title>
<path fill="none" stroke="#63b8ff" d="M200.34,-165.51C250.81,-155.04 319.77,-140.73 366.29,-131.08"/>
<polygon fill="#63b8ff" stroke="#63b8ff" points="367.07,-134.49 376.15,-129.04 365.64,-127.64 367.07,-134.49"/>
</g>
</g>
</svg>
