<?xml version="1.0" encoding="UTF-8" standalone="no"?>
<!DOCTYPE svg PUBLIC "-//W3C//DTD SVG 1.1//EN"
 "http://www.w3.org/Graphics/SVG/1.1/DTD/svg11.dtd">
<!-- Generated by graphviz version 2.43.0 (0)
 -->
<!-- Title: firmware/wombat/include/cli/device_config/mqtt_cli.h Pages: 1 -->
<svg width="651pt" height="313pt"
 viewBox="0.00 0.00 651.00 313.00" xmlns="http://www.w3.org/2000/svg" xmlns:xlink="http://www.w3.org/1999/xlink">
<g id="graph0" class="graph" transform="scale(1 1) rotate(0) translate(4 309)">
<title>firmware/wombat/include/cli/device_config/mqtt_cli.h</title>
<!-- Node1 -->
<g id="node1" class="node">
<title>Node1</title>
<g id="a_node1"><a xlink:title=" ">
<polygon fill="#999999" stroke="#666666" points="513.5,-305 361.5,-305 361.5,-275 513.5,-275 513.5,-305"/>
<text text-anchor="start" x="369.5" y="-293" font-family="Helvetica,sans-Serif" font-size="10.00">firmware/wombat/include</text>
<text text-anchor="middle" x="437.5" y="-282" font-family="Helvetica,sans-Serif" font-size="10.00">/cli/device_config/mqtt_cli.h</text>
</a>
</g>
</g>
<!-- Node2 -->
<g id="node2" class="node">
<title>Node2</title>
<g id="a_node2"><a xlink:href="_c_l_i_8h.html" target="_top" xlink:title=" ">
<polygon fill="white" stroke="#666666" points="359,-233.5 218,-233.5 218,-203.5 359,-203.5 359,-233.5"/>
<text text-anchor="start" x="226" y="-221.5" font-family="Helvetica,sans-Serif" font-size="10.00">firmware/wombat/include</text>
<text text-anchor="middle" x="288.5" y="-210.5" font-family="Helvetica,sans-Serif" font-size="10.00">/cli/CLI.h</text>
</a>
</g>
</g>
<!-- Node1&#45;&gt;Node2 -->
<g id="edge1" class="edge">
<title>Node1&#45;&gt;Node2</title>
<path fill="none" stroke="#63b8ff" d="M398.16,-270.65C373.25,-259.03 341.52,-244.23 318.61,-233.54"/>
<polygon fill="#63b8ff" stroke="#63b8ff" points="396.81,-273.88 407.35,-274.94 399.76,-267.54 396.81,-273.88"/>
</g>
<!-- Node11 -->
<g id="node11" class="node">
<title>Node11</title>
<g id="a_node11"><a xlink:href="_device_config_8cpp.html" target="_top" xlink:title=" ">
<polygon fill="white" stroke="#666666" points="497.5,-233.5 377.5,-233.5 377.5,-203.5 497.5,-203.5 497.5,-233.5"/>
<text text-anchor="start" x="385.5" y="-221.5" font-family="Helvetica,sans-Serif" font-size="10.00">firmware/wombat/src</text>
<text text-anchor="middle" x="437.5" y="-210.5" font-family="Helvetica,sans-Serif" font-size="10.00">/DeviceConfig.cpp</text>
</a>
</g>
</g>
<!-- Node1&#45;&gt;Node11 -->
<g id="edge12" class="edge">
<title>Node1&#45;&gt;Node11</title>
<path fill="none" stroke="#63b8ff" d="M437.5,-264.75C437.5,-254.31 437.5,-242.49 437.5,-233.54"/>
<polygon fill="#63b8ff" stroke="#63b8ff" points="434,-264.94 437.5,-274.94 441,-264.94 434,-264.94"/>
</g>
<!-- Node12 -->
<g id="node12" class="node">
<title>Node12</title>
<g id="a_node12"><a xlink:href="mqtt__cli_8cpp.html" target="_top" xlink:title=" ">
<polygon fill="white" stroke="#666666" points="643,-239 516,-239 516,-198 643,-198 643,-239"/>
<text text-anchor="start" x="524" y="-227" font-family="Helvetica,sans-Serif" font-size="10.00">firmware/wombat/src</text>
<text text-anchor="start" x="524" y="-216" font-family="Helvetica,sans-Serif" font-size="10.00">/cli/device_config/mqtt</text>
<text text-anchor="middle" x="579.5" y="-205" font-family="Helvetica,sans-Serif" font-size="10.00">_cli.cpp</text>
</a>
</g>
</g>
<!-- Node1&#45;&gt;Node12 -->
<g id="edge13" class="edge">
<title>Node1&#45;&gt;Node12</title>
<path fill="none" stroke="#63b8ff" d="M475.28,-270.51C495.1,-260.81 519.37,-248.93 539.51,-239.07"/>
<polygon fill="#63b8ff" stroke="#63b8ff" points="473.68,-267.4 466.24,-274.94 476.76,-273.68 473.68,-267.4"/>
</g>
<!-- Node3 -->
<g id="node3" class="node">
<title>Node3</title>
<g id="a_node3"><a xlink:href="server_8h.html" target="_top" xlink:title="Handle the setup and maintenance of the BLE server and connected clients.">
<polygon fill="white" stroke="#666666" points="141,-162 0,-162 0,-132 141,-132 141,-162"/>
<text text-anchor="start" x="8" y="-150" font-family="Helvetica,sans-Serif" font-size="10.00">firmware/wombat/include</text>
<text text-anchor="middle" x="70.5" y="-139" font-family="Helvetica,sans-Serif" font-size="10.00">/bluetooth/server.h</text>
</a>
</g>
</g>
<!-- Node2&#45;&gt;Node3 -->
<g id="edge2" class="edge">
<title>Node2&#45;&gt;Node3</title>
<path fill="none" stroke="#63b8ff" d="M234.76,-200.37C197.78,-188.58 149.25,-173.11 114.55,-162.04"/>
<polygon fill="#63b8ff" stroke="#63b8ff" points="233.79,-203.73 244.38,-203.44 235.92,-197.06 233.79,-203.73"/>
</g>
<!-- Node9 -->
<g id="node9" class="node">
<title>Node9</title>
<g id="a_node9"><a xlink:href="_c_l_i_8cpp.html" target="_top" xlink:title=" ">
<polygon fill="white" stroke="#666666" points="279.5,-162 159.5,-162 159.5,-132 279.5,-132 279.5,-162"/>
<text text-anchor="start" x="167.5" y="-150" font-family="Helvetica,sans-Serif" font-size="10.00">firmware/wombat/src</text>
<text text-anchor="middle" x="219.5" y="-139" font-family="Helvetica,sans-Serif" font-size="10.00">/cli/CLI.cpp</text>
</a>
</g>
</g>
<!-- Node2&#45;&gt;Node9 -->
<g id="edge10" class="edge">
<title>Node2&#45;&gt;Node9</title>
<path fill="none" stroke="#63b8ff" d="M267.32,-196.17C256.31,-185.08 243.16,-171.84 233.44,-162.04"/>
<polygon fill="#63b8ff" stroke="#63b8ff" points="265.01,-198.8 274.54,-203.44 269.98,-193.87 265.01,-198.8"/>
</g>
<!-- Node10 -->
<g id="node10" class="node">
<title>Node10</title>
<g id="a_node10"><a xlink:href="main_8cpp.html" target="_top" xlink:title=" ">
<polygon fill="white" stroke="#666666" points="417.5,-162 297.5,-162 297.5,-132 417.5,-132 417.5,-162"/>
<text text-anchor="start" x="305.5" y="-150" font-family="Helvetica,sans-Serif" font-size="10.00">firmware/wombat/src</text>
<text text-anchor="middle" x="357.5" y="-139" font-family="Helvetica,sans-Serif" font-size="10.00">/main.cpp</text>
</a>
</g>
</g>
<!-- Node2&#45;&gt;Node10 -->
<g id="edge11" class="edge">
<title>Node2&#45;&gt;Node10</title>
<path fill="none" stroke="#63b8ff" d="M309.68,-196.17C320.69,-185.08 333.84,-171.84 343.56,-162.04"/>
<polygon fill="#63b8ff" stroke="#63b8ff" points="307.02,-193.87 302.46,-203.44 311.99,-198.8 307.02,-193.87"/>
</g>
<!-- Node4 -->
<g id="node4" class="node">
<title>Node4</title>
<g id="a_node4"><a xlink:href="uart_8h.html" target="_top" xlink:title="BluetoothLE UART service setup and handling.">
<polygon fill="white" stroke="#666666" points="141,-96 0,-96 0,-66 141,-66 141,-96"/>
<text text-anchor="start" x="8" y="-84" font-family="Helvetica,sans-Serif" font-size="10.00">firmware/wombat/include</text>
<text text-anchor="middle" x="70.5" y="-73" font-family="Helvetica,sans-Serif" font-size="10.00">/bluetooth/uart.h</text>
</a>
</g>
</g>
<!-- Node3&#45;&gt;Node4 -->
<g id="edge3" class="edge">
<title>Node3&#45;&gt;Node4</title>
<path fill="none" stroke="#63b8ff" d="M63.93,-121.83C63.52,-113.17 63.81,-103.7 64.79,-96.16"/>
<polygon fill="#63b8ff" stroke="#63b8ff" points="60.45,-122.13 64.78,-131.8 67.42,-121.54 60.45,-122.13"/>
</g>
<!-- Node6 -->
<g id="node6" class="node">
<title>Node6</title>
<g id="a_node6"><a xlink:href="bluetooth_8h.html" target="_top" xlink:title=" ">
<polygon fill="white" stroke="#666666" points="482,-96 335,-96 335,-66 482,-66 482,-96"/>
<text text-anchor="start" x="343" y="-84" font-family="Helvetica,sans-Serif" font-size="10.00">firmware/wombat/include</text>
<text text-anchor="middle" x="408.5" y="-73" font-family="Helvetica,sans-Serif" font-size="10.00">/cli/peripherals/bluetooth.h</text>
</a>
</g>
</g>
<!-- Node3&#45;&gt;Node6 -->
<g id="edge6" class="edge">
<title>Node3&#45;&gt;Node6</title>
<path fill="none" stroke="#63b8ff" d="M151.2,-130.72C206.99,-120.16 280.62,-106.21 334.82,-95.95"/>
<polygon fill="#63b8ff" stroke="#63b8ff" points="150.53,-127.28 141.36,-132.58 151.83,-134.16 150.53,-127.28"/>
</g>
<!-- Node8 -->
<g id="node8" class="node">
<title>Node8</title>
<g id="a_node8"><a xlink:href="server_8cpp.html" target="_top" xlink:title="Setup and start BluetoothLE server.">
<polygon fill="white" stroke="#666666" points="279.5,-96 159.5,-96 159.5,-66 279.5,-66 279.5,-96"/>
<text text-anchor="start" x="167.5" y="-84" font-family="Helvetica,sans-Serif" font-size="10.00">firmware/wombat/src</text>
<text text-anchor="middle" x="219.5" y="-73" font-family="Helvetica,sans-Serif" font-size="10.00">/bluetooth/server.cpp</text>
</a>
</g>
</g>
<!-- Node3&#45;&gt;Node8 -->
<g id="edge9" class="edge">
<title>Node3&#45;&gt;Node8</title>
<path fill="none" stroke="#63b8ff" d="M112.59,-127.92C136.14,-117.8 165.06,-105.38 186.88,-96.01"/>
<polygon fill="#63b8ff" stroke="#63b8ff" points="111.01,-124.79 103.2,-131.95 113.77,-131.22 111.01,-124.79"/>
</g>
<!-- Node4&#45;&gt;Node3 -->
<g id="edge4" class="edge">
<title>Node4&#45;&gt;Node3</title>
<path fill="none" stroke="#63b8ff" d="M77.07,-106.13C77.48,-114.78 77.2,-124.26 76.22,-131.8"/>
<polygon fill="#63b8ff" stroke="#63b8ff" points="80.55,-105.83 76.21,-96.16 73.58,-106.43 80.55,-105.83"/>
</g>
<!-- Node5 -->
<g id="node5" class="node">
<title>Node5</title>
<g id="a_node5"><a xlink:href="uart_8cpp.html" target="_top" xlink:title="BluetoothLE UART service setup and handling.">
<polygon fill="white" stroke="#666666" points="130.5,-30 10.5,-30 10.5,0 130.5,0 130.5,-30"/>
<text text-anchor="start" x="18.5" y="-18" font-family="Helvetica,sans-Serif" font-size="10.00">firmware/wombat/src</text>
<text text-anchor="middle" x="70.5" y="-7" font-family="Helvetica,sans-Serif" font-size="10.00">/bluetooth/uart.cpp</text>
</a>
</g>
</g>
<!-- Node4&#45;&gt;Node5 -->
<g id="edge5" class="edge">
<title>Node4&#45;&gt;Node5</title>
<path fill="none" stroke="#63b8ff" d="M70.5,-55.54C70.5,-46.96 70.5,-37.61 70.5,-30.16"/>
<polygon fill="#63b8ff" stroke="#63b8ff" points="67,-55.8 70.5,-65.8 74,-55.8 67,-55.8"/>
</g>
<!-- Node6&#45;&gt;Node2 -->
<g id="edge7" class="edge">
<title>Node6&#45;&gt;Node2</title>
<path fill="none" stroke="#63b8ff" d="M422.74,-105.46C431.03,-122.43 437.83,-145.24 426.5,-162 416.2,-177.25 374.61,-192.71 339.75,-203.44"/>
<polygon fill="#63b8ff" stroke="#63b8ff" points="425.61,-103.4 417.82,-96.23 419.44,-106.7 425.61,-103.4"/>
</g>
<!-- Node7 -->
<g id="node7" class="node">
<title>Node7</title>
<g id="a_node7"><a xlink:href="bluetooth_8cpp.html" target="_top" xlink:title=" ">
<polygon fill="white" stroke="#666666" points="487.5,-30 329.5,-30 329.5,0 487.5,0 487.5,-30"/>
<text text-anchor="start" x="337.5" y="-18" font-family="Helvetica,sans-Serif" font-size="10.00">firmware/wombat/src</text>
<text text-anchor="middle" x="408.5" y="-7" font-family="Helvetica,sans-Serif" font-size="10.00">/cli/peripherals/bluetooth.cpp</text>
</a>
</g>
</g>
<!-- Node6&#45;&gt;Node7 -->
<g id="edge8" class="edge">
<title>Node6&#45;&gt;Node7</title>
<path fill="none" stroke="#63b8ff" d="M408.5,-55.54C408.5,-46.96 408.5,-37.61 408.5,-30.16"/>
<polygon fill="#63b8ff" stroke="#63b8ff" points="405,-55.8 408.5,-65.8 412,-55.8 405,-55.8"/>
</g>
</g>
</svg>
