<?xml version="1.0" encoding="UTF-8" standalone="no"?>
<!DOCTYPE svg PUBLIC "-//W3C//DTD SVG 1.1//EN"
 "http://www.w3.org/Graphics/SVG/1.1/DTD/svg11.dtd">
<!-- Generated by graphviz version 2.43.0 (0)
 -->
<!-- Title: firmware/wombat/src/mqtt_stack.cpp Pages: 1 -->
<svg width="2097pt" height="335pt"
 viewBox="0.00 0.00 2096.50 335.00" xmlns="http://www.w3.org/2000/svg" xmlns:xlink="http://www.w3.org/1999/xlink">
<g id="graph0" class="graph" transform="scale(1 1) rotate(0) translate(4 331)">
<title>firmware/wombat/src/mqtt_stack.cpp</title>
<!-- Node1 -->
<g id="node1" class="node">
<title>Node1</title>
<g id="a_node1"><a xlink:title=" ">
<polygon fill="#999999" stroke="#666666" points="569,-327 449,-327 449,-297 569,-297 569,-327"/>
<text text-anchor="start" x="457" y="-315" font-family="Helvetica,sans-Serif" font-size="10.00">firmware/wombat/src</text>
<text text-anchor="middle" x="509" y="-304" font-family="Helvetica,sans-Serif" font-size="10.00">/mqtt_stack.cpp</text>
</a>
</g>
</g>
<!-- Node2 -->
<g id="node2" class="node">
<title>Node2</title>
<g id="a_node2"><a xlink:href="_c_a_t___m1_8h.html" target="_top" xlink:title=" ">
<polygon fill="white" stroke="#666666" points="299.5,-134.5 234.5,-134.5 234.5,-115.5 299.5,-115.5 299.5,-134.5"/>
<text text-anchor="middle" x="267" y="-122.5" font-family="Helvetica,sans-Serif" font-size="10.00">CAT_M1.h</text>
</a>
</g>
</g>
<!-- Node1&#45;&gt;Node2 -->
<g id="edge1" class="edge">
<title>Node1&#45;&gt;Node2</title>
<path fill="none" stroke="#63b8ff" d="M448.79,-308.57C379.95,-302.18 270.09,-280.17 218,-206 202.6,-184.07 227.23,-157.29 246.79,-140.95"/>
<polygon fill="#63b8ff" stroke="#63b8ff" points="249.09,-143.6 254.74,-134.63 244.74,-138.12 249.09,-143.6"/>
</g>
<!-- Node6 -->
<g id="node6" class="node">
<title>Node6</title>
<g id="a_node6"><a xlink:href="_utils_8h.html" target="_top" xlink:title=" ">
<polygon fill="white" stroke="#666666" points="865,-134.5 817,-134.5 817,-115.5 865,-115.5 865,-134.5"/>
<text text-anchor="middle" x="841" y="-122.5" font-family="Helvetica,sans-Serif" font-size="10.00">Utils.h</text>
</a>
</g>
</g>
<!-- Node1&#45;&gt;Node6 -->
<g id="edge6" class="edge">
<title>Node1&#45;&gt;Node6</title>
<path fill="none" stroke="#63b8ff" d="M569.01,-307.17C739.76,-295.66 1218.94,-258.88 1264,-206 1272.65,-195.85 1272.96,-185.87 1264,-176 1208.49,-114.82 975.31,-154.6 894,-140 887.73,-138.87 881.12,-137.38 874.76,-135.79"/>
<polygon fill="#63b8ff" stroke="#63b8ff" points="875.65,-132.4 865.09,-133.24 873.87,-139.17 875.65,-132.4"/>
</g>
<!-- Node10 -->
<g id="node10" class="node">
<title>Node10</title>
<g id="a_node10"><a xlink:href="_device_config_8h.html" target="_top" xlink:title="Node configuration options.">
<polygon fill="white" stroke="#666666" points="1235,-134.5 1145,-134.5 1145,-115.5 1235,-115.5 1235,-134.5"/>
<text text-anchor="middle" x="1190" y="-122.5" font-family="Helvetica,sans-Serif" font-size="10.00">DeviceConfig.h</text>
</a>
</g>
</g>
<!-- Node1&#45;&gt;Node10 -->
<g id="edge10" class="edge">
<title>Node1&#45;&gt;Node10</title>
<path fill="none" stroke="#63b8ff" d="M569.25,-308.93C767.1,-301.52 1387.42,-273.07 1444,-206 1452.6,-195.81 1452.47,-186.3 1444,-176 1431.43,-160.72 1315.98,-142.8 1245.12,-133.11"/>
<polygon fill="#63b8ff" stroke="#63b8ff" points="1245.39,-129.61 1235.01,-131.74 1244.45,-136.55 1245.39,-129.61"/>
</g>
<!-- Node11 -->
<g id="node11" class="node">
<title>Node11</title>
<g id="a_node11"><a xlink:title=" ">
<polygon fill="#e0e0e0" stroke="#999999" points="130,-140 0,-140 0,-110 130,-110 130,-140"/>
<text text-anchor="start" x="8" y="-128" font-family="Helvetica,sans-Serif" font-size="10.00">SparkFun_u&#45;blox_SARA</text>
<text text-anchor="middle" x="65" y="-117" font-family="Helvetica,sans-Serif" font-size="10.00">&#45;R5_Arduino_Library.h</text>
</a>
</g>
</g>
<!-- Node1&#45;&gt;Node11 -->
<g id="edge13" class="edge">
<title>Node1&#45;&gt;Node11</title>
<path fill="none" stroke="#63b8ff" d="M448.99,-307.27C357.71,-300.89 188.8,-286.07 134,-261 100.5,-245.67 88.56,-238.9 72,-206 63.31,-188.73 61.98,-166.71 62.59,-150.14"/>
<polygon fill="#63b8ff" stroke="#63b8ff" points="66.08,-150.34 63.21,-140.15 59.09,-149.91 66.08,-150.34"/>
</g>
<!-- Node12 -->
<g id="node12" class="node">
<title>Node12</title>
<g id="a_node12"><a xlink:href="globals_8h.html" target="_top" xlink:title=" ">
<polygon fill="white" stroke="#666666" points="142.5,-200.5 81.5,-200.5 81.5,-181.5 142.5,-181.5 142.5,-200.5"/>
<text text-anchor="middle" x="112" y="-188.5" font-family="Helvetica,sans-Serif" font-size="10.00">globals.h</text>
</a>
</g>
</g>
<!-- Node1&#45;&gt;Node12 -->
<g id="edge14" class="edge">
<title>Node1&#45;&gt;Node12</title>
<path fill="none" stroke="#63b8ff" d="M448.92,-308.41C361.44,-303.64 204.25,-291.09 157,-261 138.4,-249.15 125.88,-226.54 118.86,-210.43"/>
<polygon fill="#63b8ff" stroke="#63b8ff" points="122.03,-208.92 115.04,-200.96 115.54,-211.55 122.03,-208.92"/>
</g>
<!-- Node16 -->
<g id="node16" class="node">
<title>Node16</title>
<g id="a_node16"><a xlink:href="_c_l_i_8h.html" target="_top" xlink:title="FreeRTOS CLI handler.">
<polygon fill="white" stroke="#666666" points="913.5,-261 858.5,-261 858.5,-242 913.5,-242 913.5,-261"/>
<text text-anchor="middle" x="886" y="-249" font-family="Helvetica,sans-Serif" font-size="10.00">cli/CLI.h</text>
</a>
</g>
</g>
<!-- Node1&#45;&gt;Node16 -->
<g id="edge23" class="edge">
<title>Node1&#45;&gt;Node16</title>
<path fill="none" stroke="#63b8ff" d="M569.15,-301.67C647.69,-289.48 782.83,-268.51 848.29,-258.35"/>
<polygon fill="#63b8ff" stroke="#63b8ff" points="848.83,-261.81 858.18,-256.82 847.76,-254.89 848.83,-261.81"/>
</g>
<!-- Node3 -->
<g id="node3" class="node">
<title>Node3</title>
<g id="a_node3"><a xlink:title=" ">
<polygon fill="#e0e0e0" stroke="#999999" points="322,-19 274,-19 274,0 322,0 322,-19"/>
<text text-anchor="middle" x="298" y="-7" font-family="Helvetica,sans-Serif" font-size="10.00">Wire.h</text>
</a>
</g>
</g>
<!-- Node2&#45;&gt;Node3 -->
<g id="edge2" class="edge">
<title>Node2&#45;&gt;Node3</title>
<path fill="none" stroke="#63b8ff" d="M269.33,-115.47C274.33,-97.15 286.21,-53.68 293,-28.81"/>
<polygon fill="#63b8ff" stroke="#63b8ff" points="296.38,-29.7 295.64,-19.13 289.63,-27.85 296.38,-29.7"/>
</g>
<!-- Node4 -->
<g id="node4" class="node">
<title>Node4</title>
<g id="a_node4"><a xlink:href="_t_c_a9534_8h.html" target="_top" xlink:title=" ">
<polygon fill="white" stroke="#666666" points="363,-74 295,-74 295,-55 363,-55 363,-74"/>
<text text-anchor="middle" x="329" y="-62" font-family="Helvetica,sans-Serif" font-size="10.00">TCA9534.h</text>
</a>
</g>
</g>
<!-- Node2&#45;&gt;Node4 -->
<g id="edge3" class="edge">
<title>Node2&#45;&gt;Node4</title>
<path fill="none" stroke="#63b8ff" d="M276.15,-115.37C285.67,-106.38 300.8,-92.11 312.43,-81.14"/>
<polygon fill="#63b8ff" stroke="#63b8ff" points="314.94,-83.58 319.81,-74.17 310.14,-78.48 314.94,-83.58"/>
</g>
<!-- Node4&#45;&gt;Node3 -->
<g id="edge5" class="edge">
<title>Node4&#45;&gt;Node3</title>
<path fill="none" stroke="#63b8ff" d="M323.88,-54.75C319.64,-47.49 313.47,-36.95 308.22,-27.98"/>
<polygon fill="#63b8ff" stroke="#63b8ff" points="311.09,-25.95 303.02,-19.09 305.05,-29.49 311.09,-25.95"/>
</g>
<!-- Node5 -->
<g id="node5" class="node">
<title>Node5</title>
<g id="a_node5"><a xlink:title=" ">
<polygon fill="#e0e0e0" stroke="#999999" points="1395.5,-19 1332.5,-19 1332.5,0 1395.5,0 1395.5,-19"/>
<text text-anchor="middle" x="1364" y="-7" font-family="Helvetica,sans-Serif" font-size="10.00">Arduino.h</text>
</a>
</g>
</g>
<!-- Node4&#45;&gt;Node5 -->
<g id="edge4" class="edge">
<title>Node4&#45;&gt;Node5</title>
<path fill="none" stroke="#63b8ff" d="M363.14,-61.75C517.91,-53.83 1153.38,-21.29 1322.5,-12.63"/>
<polygon fill="#63b8ff" stroke="#63b8ff" points="1322.69,-16.12 1332.5,-12.11 1322.33,-9.13 1322.69,-16.12"/>
</g>
<!-- Node7 -->
<g id="node7" class="node">
<title>Node7</title>
<g id="a_node7"><a xlink:title=" ">
<polygon fill="#e0e0e0" stroke="#999999" points="869,-74 813,-74 813,-55 869,-55 869,-74"/>
<text text-anchor="middle" x="841" y="-62" font-family="Helvetica,sans-Serif" font-size="10.00">stddef.h</text>
</a>
</g>
</g>
<!-- Node6&#45;&gt;Node7 -->
<g id="edge7" class="edge">
<title>Node6&#45;&gt;Node7</title>
<path fill="none" stroke="#63b8ff" d="M841,-115.37C841,-107.25 841,-94.81 841,-84.39"/>
<polygon fill="#63b8ff" stroke="#63b8ff" points="844.5,-84.17 841,-74.17 837.5,-84.17 844.5,-84.17"/>
</g>
<!-- Node8 -->
<g id="node8" class="node">
<title>Node8</title>
<g id="a_node8"><a xlink:title=" ">
<polygon fill="#e0e0e0" stroke="#999999" points="1128.5,-74 1045.5,-74 1045.5,-55 1128.5,-55 1128.5,-74"/>
<text text-anchor="middle" x="1087" y="-62" font-family="Helvetica,sans-Serif" font-size="10.00">ArduinoJson.h</text>
</a>
</g>
</g>
<!-- Node6&#45;&gt;Node8 -->
<g id="edge8" class="edge">
<title>Node6&#45;&gt;Node8</title>
<path fill="none" stroke="#63b8ff" d="M865.23,-117.43C874.25,-115.03 884.58,-112.33 894,-110 943.03,-97.88 999.33,-85.02 1038.42,-76.26"/>
<polygon fill="#63b8ff" stroke="#63b8ff" points="1039.47,-79.61 1048.47,-74.01 1037.94,-72.77 1039.47,-79.61"/>
</g>
<!-- Node9 -->
<g id="node9" class="node">
<title>Node9</title>
<g id="a_node9"><a xlink:title=" ">
<polygon fill="#e0e0e0" stroke="#999999" points="794.5,-74 701.5,-74 701.5,-55 794.5,-55 794.5,-74"/>
<text text-anchor="middle" x="748" y="-62" font-family="Helvetica,sans-Serif" font-size="10.00">dpiclimate&#45;12.h</text>
</a>
</g>
</g>
<!-- Node6&#45;&gt;Node9 -->
<g id="edge9" class="edge">
<title>Node6&#45;&gt;Node9</title>
<path fill="none" stroke="#63b8ff" d="M827.28,-115.37C812.3,-105.95 788.11,-90.73 770.38,-79.58"/>
<polygon fill="#63b8ff" stroke="#63b8ff" points="772.11,-76.53 761.78,-74.17 768.38,-82.45 772.11,-76.53"/>
</g>
<!-- Node10&#45;&gt;Node5 -->
<g id="edge11" class="edge">
<title>Node10&#45;&gt;Node5</title>
<path fill="none" stroke="#63b8ff" d="M1218.92,-115.36C1243.51,-107.15 1279.03,-93.21 1306,-74 1324.16,-61.07 1340.86,-41.62 1351.63,-27.66"/>
<polygon fill="#63b8ff" stroke="#63b8ff" points="1354.63,-29.5 1357.81,-19.4 1349.02,-25.31 1354.63,-29.5"/>
</g>
<!-- Node10&#45;&gt;Node8 -->
<g id="edge12" class="edge">
<title>Node10&#45;&gt;Node8</title>
<path fill="none" stroke="#63b8ff" d="M1174.8,-115.37C1157.99,-105.82 1130.68,-90.31 1110.98,-79.12"/>
<polygon fill="#63b8ff" stroke="#63b8ff" points="1112.68,-76.06 1102.26,-74.17 1109.23,-82.15 1112.68,-76.06"/>
</g>
<!-- Node12&#45;&gt;Node2 -->
<g id="edge22" class="edge">
<title>Node12&#45;&gt;Node2</title>
<path fill="none" stroke="#63b8ff" d="M132.9,-181.37C159.6,-170.35 205.99,-151.19 236.59,-138.55"/>
<polygon fill="#63b8ff" stroke="#63b8ff" points="238.02,-141.75 245.93,-134.7 235.35,-135.28 238.02,-141.75"/>
</g>
<!-- Node12&#45;&gt;Node11 -->
<g id="edge21" class="edge">
<title>Node12&#45;&gt;Node11</title>
<path fill="none" stroke="#63b8ff" d="M105.66,-181.37C99.51,-172.99 89.91,-159.93 81.59,-148.59"/>
<polygon fill="#63b8ff" stroke="#63b8ff" points="84.29,-146.35 75.55,-140.36 78.64,-150.49 84.29,-146.35"/>
</g>
<!-- Node13 -->
<g id="node13" class="node">
<title>Node13</title>
<g id="a_node13"><a xlink:href="battery_8h.html" target="_top" xlink:title="Battery voltage and current monitoring using INA219 IC.">
<polygon fill="white" stroke="#666666" points="1297.5,-74 1146.5,-74 1146.5,-55 1297.5,-55 1297.5,-74"/>
<text text-anchor="middle" x="1222" y="-62" font-family="Helvetica,sans-Serif" font-size="10.00">power_monitoring/battery.h</text>
</a>
</g>
</g>
<!-- Node12&#45;&gt;Node13 -->
<g id="edge15" class="edge">
<title>Node12&#45;&gt;Node13</title>
<path fill="none" stroke="#63b8ff" d="M125.27,-181.39C140.21,-171.61 165.13,-155.06 186,-140 203.73,-127.21 204.44,-117.45 225,-110 317.83,-76.37 998.53,-80.78 1136.49,-73.88"/>
<polygon fill="#63b8ff" stroke="#63b8ff" points="1136.7,-77.37 1146.48,-73.29 1136.29,-70.38 1136.7,-77.37"/>
</g>
<!-- Node15 -->
<g id="node15" class="node">
<title>Node15</title>
<g id="a_node15"><a xlink:href="solar_8h.html" target="_top" xlink:title="Solar voltage and current monitoring using INA219 IC.">
<polygon fill="white" stroke="#666666" points="1027,-74 887,-74 887,-55 1027,-55 1027,-74"/>
<text text-anchor="middle" x="957" y="-62" font-family="Helvetica,sans-Serif" font-size="10.00">power_monitoring/solar.h</text>
</a>
</g>
</g>
<!-- Node12&#45;&gt;Node15 -->
<g id="edge18" class="edge">
<title>Node12&#45;&gt;Node15</title>
<path fill="none" stroke="#63b8ff" d="M117.23,-181.46C128.33,-164.24 156.1,-125.67 191,-110 258.35,-79.76 765.37,-80.03 876.53,-73.93"/>
<polygon fill="#63b8ff" stroke="#63b8ff" points="877.06,-77.4 886.81,-73.25 876.6,-70.42 877.06,-77.4"/>
</g>
<!-- Node13&#45;&gt;Node5 -->
<g id="edge16" class="edge">
<title>Node13&#45;&gt;Node5</title>
<path fill="none" stroke="#63b8ff" d="M1244.81,-54.98C1268.17,-46.27 1304.7,-32.63 1331.17,-22.75"/>
<polygon fill="#63b8ff" stroke="#63b8ff" points="1332.63,-25.95 1340.77,-19.17 1330.18,-19.39 1332.63,-25.95"/>
</g>
<!-- Node14 -->
<g id="node14" class="node">
<title>Node14</title>
<g id="a_node14"><a xlink:title=" ">
<polygon fill="#e0e0e0" stroke="#999999" points="1141.5,-19 1036.5,-19 1036.5,0 1141.5,0 1141.5,-19"/>
<text text-anchor="middle" x="1089" y="-7" font-family="Helvetica,sans-Serif" font-size="10.00">Adafruit_INA219.h</text>
</a>
</g>
</g>
<!-- Node13&#45;&gt;Node14 -->
<g id="edge17" class="edge">
<title>Node13&#45;&gt;Node14</title>
<path fill="none" stroke="#63b8ff" d="M1200.63,-54.98C1178.85,-46.3 1144.84,-32.75 1120.08,-22.88"/>
<polygon fill="#63b8ff" stroke="#63b8ff" points="1121.34,-19.62 1110.76,-19.17 1118.75,-26.12 1121.34,-19.62"/>
</g>
<!-- Node15&#45;&gt;Node5 -->
<g id="edge19" class="edge">
<title>Node15&#45;&gt;Node5</title>
<path fill="none" stroke="#63b8ff" d="M1022.39,-54.98C1106.71,-44 1250.92,-25.23 1321.95,-15.98"/>
<polygon fill="#63b8ff" stroke="#63b8ff" points="1322.83,-19.39 1332.29,-14.63 1321.92,-12.45 1322.83,-19.39"/>
</g>
<!-- Node15&#45;&gt;Node14 -->
<g id="edge20" class="edge">
<title>Node15&#45;&gt;Node14</title>
<path fill="none" stroke="#63b8ff" d="M978.21,-54.98C999.73,-46.34 1033.28,-32.87 1057.83,-23.02"/>
<polygon fill="#63b8ff" stroke="#63b8ff" points="1059.43,-26.14 1067.41,-19.17 1056.82,-19.65 1059.43,-26.14"/>
</g>
<!-- Node16&#45;&gt;Node5 -->
<g id="edge24" class="edge">
<title>Node16&#45;&gt;Node5</title>
<path fill="none" stroke="#63b8ff" d="M913.85,-250.44C1021.7,-249.91 1407.74,-245.27 1444,-206 1453.05,-196.2 1451.8,-186.82 1444,-176 1414.42,-134.95 1365.58,-181.05 1336,-140 1323.31,-122.39 1344.55,-60.35 1356.59,-28.97"/>
<polygon fill="#63b8ff" stroke="#63b8ff" points="1360,-29.86 1360.39,-19.27 1353.48,-27.3 1360,-29.86"/>
</g>
<!-- Node17 -->
<g id="node17" class="node">
<title>Node17</title>
<g id="a_node17"><a xlink:title=" ">
<polygon fill="#e0e0e0" stroke="#999999" points="741.5,-134.5 628.5,-134.5 628.5,-115.5 741.5,-115.5 741.5,-134.5"/>
<text text-anchor="middle" x="685" y="-122.5" font-family="Helvetica,sans-Serif" font-size="10.00">freertos/FreeRTOS.h</text>
</a>
</g>
</g>
<!-- Node16&#45;&gt;Node17 -->
<g id="edge25" class="edge">
<title>Node16&#45;&gt;Node17</title>
<path fill="none" stroke="#63b8ff" d="M881.47,-241.82C872.99,-226.41 853.3,-194.17 828,-176 801.53,-156.99 767.19,-144.67 738.8,-137.02"/>
<polygon fill="#63b8ff" stroke="#63b8ff" points="739.58,-133.61 729.02,-134.5 737.83,-140.38 739.58,-133.61"/>
</g>
<!-- Node18 -->
<g id="node18" class="node">
<title>Node18</title>
<g id="a_node18"><a xlink:title=" ">
<polygon fill="#e0e0e0" stroke="#999999" points="424.5,-134.5 317.5,-134.5 317.5,-115.5 424.5,-115.5 424.5,-134.5"/>
<text text-anchor="middle" x="371" y="-122.5" font-family="Helvetica,sans-Serif" font-size="10.00">cli/FreeRTOS_CLI.h</text>
</a>
</g>
</g>
<!-- Node16&#45;&gt;Node18 -->
<g id="edge26" class="edge">
<title>Node16&#45;&gt;Node18</title>
<path fill="none" stroke="#63b8ff" d="M858.19,-250.8C738.53,-251.79 271.59,-252.63 228,-206 218.9,-196.26 220.28,-186.87 228,-176 239.13,-160.32 284.21,-146.23 320.83,-137.04"/>
<polygon fill="#63b8ff" stroke="#63b8ff" points="322.01,-140.36 330.89,-134.58 320.35,-133.56 322.01,-140.36"/>
</g>
<!-- Node19 -->
<g id="node19" class="node">
<title>Node19</title>
<g id="a_node19"><a xlink:href="cat-m1_8h.html" target="_top" xlink:title="CAT&#45;M1 CLI command request and response handler.">
<polygon fill="white" stroke="#666666" points="369,-200.5 237,-200.5 237,-181.5 369,-181.5 369,-200.5"/>
<text text-anchor="middle" x="303" y="-188.5" font-family="Helvetica,sans-Serif" font-size="10.00">cli/peripherals/cat&#45;m1.h</text>
</a>
</g>
</g>
<!-- Node16&#45;&gt;Node19 -->
<g id="edge27" class="edge">
<title>Node16&#45;&gt;Node19</title>
<path fill="none" stroke="#63b8ff" d="M858.36,-249.03C781.78,-244.74 560.45,-230.96 378,-206 370.52,-204.98 362.65,-203.71 354.93,-202.37"/>
<polygon fill="#63b8ff" stroke="#63b8ff" points="355.39,-198.9 344.93,-200.57 354.15,-205.79 355.39,-198.9"/>
</g>
<!-- Node22 -->
<g id="node22" class="node">
<title>Node22</title>
<g id="a_node22"><a xlink:href="sdi12_8h.html" target="_top" xlink:title="SDI&#45;12 command line interface handler.">
<polygon fill="white" stroke="#666666" points="801,-200.5 677,-200.5 677,-181.5 801,-181.5 801,-200.5"/>
<text text-anchor="middle" x="739" y="-188.5" font-family="Helvetica,sans-Serif" font-size="10.00">cli/peripherals/sdi12.h</text>
</a>
</g>
</g>
<!-- Node16&#45;&gt;Node22 -->
<g id="edge33" class="edge">
<title>Node16&#45;&gt;Node22</title>
<path fill="none" stroke="#63b8ff" d="M864.62,-241.99C839.69,-232.07 798.28,-215.59 769.86,-204.28"/>
<polygon fill="#63b8ff" stroke="#63b8ff" points="770.99,-200.96 760.4,-200.52 768.4,-207.47 770.99,-200.96"/>
</g>
<!-- Node23 -->
<g id="node23" class="node">
<title>Node23</title>
<g id="a_node23"><a xlink:href="cli__power_8h.html" target="_top" xlink:title=" ">
<polygon fill="white" stroke="#666666" points="487,-206 387,-206 387,-176 487,-176 487,-206"/>
<text text-anchor="start" x="395" y="-194" font-family="Helvetica,sans-Serif" font-size="10.00">cli/peripherals/cli</text>
<text text-anchor="middle" x="437" y="-183" font-family="Helvetica,sans-Serif" font-size="10.00">_power.h</text>
</a>
</g>
</g>
<!-- Node16&#45;&gt;Node23 -->
<g id="edge41" class="edge">
<title>Node16&#45;&gt;Node23</title>
<path fill="none" stroke="#63b8ff" d="M858.41,-248.49C795.9,-243.7 638.53,-230.27 497.27,-206.08"/>
<polygon fill="#63b8ff" stroke="#63b8ff" points="497.58,-202.59 487.13,-204.32 496.38,-209.48 497.58,-202.59"/>
</g>
<!-- Node24 -->
<g id="node24" class="node">
<title>Node24</title>
<g id="a_node24"><a xlink:href="sd__card_8h.html" target="_top" xlink:title=" ">
<polygon fill="white" stroke="#666666" points="975,-206 875,-206 875,-176 975,-176 975,-206"/>
<text text-anchor="start" x="883" y="-194" font-family="Helvetica,sans-Serif" font-size="10.00">cli/peripherals/sd</text>
<text text-anchor="middle" x="925" y="-183" font-family="Helvetica,sans-Serif" font-size="10.00">_card.h</text>
</a>
</g>
</g>
<!-- Node16&#45;&gt;Node24 -->
<g id="edge47" class="edge">
<title>Node16&#45;&gt;Node24</title>
<path fill="none" stroke="#63b8ff" d="M891.75,-241.87C896.56,-234.67 903.62,-224.07 910,-214.49"/>
<polygon fill="#63b8ff" stroke="#63b8ff" points="912.96,-216.38 915.59,-206.11 907.13,-212.49 912.96,-216.38"/>
</g>
<!-- Node26 -->
<g id="node26" class="node">
<title>Node26</title>
<g id="a_node26"><a xlink:href="server_8h.html" target="_top" xlink:title="Handle the setup and maintenance of the BLE server and connected clients.">
<polygon fill="white" stroke="#666666" points="1666.5,-200.5 1561.5,-200.5 1561.5,-181.5 1666.5,-181.5 1666.5,-200.5"/>
<text text-anchor="middle" x="1614" y="-188.5" font-family="Helvetica,sans-Serif" font-size="10.00">bluetooth/server.h</text>
</a>
</g>
</g>
<!-- Node16&#45;&gt;Node26 -->
<g id="edge50" class="edge">
<title>Node16&#45;&gt;Node26</title>
<path fill="none" stroke="#63b8ff" d="M913.58,-248.41C997.29,-242.51 1254.56,-224.94 1468,-206 1495.23,-203.58 1525.46,-200.53 1551.38,-197.9"/>
<polygon fill="#63b8ff" stroke="#63b8ff" points="1551.87,-201.37 1561.46,-196.87 1551.16,-194.4 1551.87,-201.37"/>
</g>
<!-- Node36 -->
<g id="node36" class="node">
<title>Node36</title>
<g id="a_node36"><a xlink:href="acquisition__intervals_8h.html" target="_top" xlink:title="Handles the time between measurements and uplinks by the device over LTE.">
<polygon fill="white" stroke="#666666" points="659,-206 505,-206 505,-176 659,-176 659,-206"/>
<text text-anchor="start" x="513" y="-194" font-family="Helvetica,sans-Serif" font-size="10.00">cli/device_config/acquisition</text>
<text text-anchor="middle" x="582" y="-183" font-family="Helvetica,sans-Serif" font-size="10.00">_intervals.h</text>
</a>
</g>
</g>
<!-- Node16&#45;&gt;Node36 -->
<g id="edge76" class="edge">
<title>Node16&#45;&gt;Node36</title>
<path fill="none" stroke="#63b8ff" d="M858.49,-245.21C815.27,-236.89 729.76,-220.43 665.21,-208.01"/>
<polygon fill="#63b8ff" stroke="#63b8ff" points="665.53,-204.51 655.05,-206.06 664.2,-211.38 665.53,-204.51"/>
</g>
<!-- Node37 -->
<g id="node37" class="node">
<title>Node37</title>
<g id="a_node37"><a xlink:href="mqtt__cli_8h.html" target="_top" xlink:title="MQTT setup and configuration through the CLI.">
<polygon fill="white" stroke="#666666" points="1435,-206 1311,-206 1311,-176 1435,-176 1435,-206"/>
<text text-anchor="start" x="1319" y="-194" font-family="Helvetica,sans-Serif" font-size="10.00">cli/device_config/mqtt</text>
<text text-anchor="middle" x="1373" y="-183" font-family="Helvetica,sans-Serif" font-size="10.00">_cli.h</text>
</a>
</g>
</g>
<!-- Node16&#45;&gt;Node37 -->
<g id="edge82" class="edge">
<title>Node16&#45;&gt;Node37</title>
<path fill="none" stroke="#63b8ff" d="M913.52,-247.36C975.9,-240.22 1132.83,-222.14 1264,-206 1275.84,-204.54 1288.39,-202.96 1300.6,-201.41"/>
<polygon fill="#63b8ff" stroke="#63b8ff" points="1301.29,-204.85 1310.76,-200.11 1300.4,-197.91 1301.29,-204.85"/>
</g>
<!-- Node38 -->
<g id="node38" class="node">
<title>Node38</title>
<g id="a_node38"><a xlink:href="ftp__cli_8h.html" target="_top" xlink:title="FTP setup and configuration through the CLI.">
<polygon fill="white" stroke="#666666" points="1106.5,-206 993.5,-206 993.5,-176 1106.5,-176 1106.5,-206"/>
<text text-anchor="start" x="1001.5" y="-194" font-family="Helvetica,sans-Serif" font-size="10.00">cli/device_config/ftp</text>
<text text-anchor="middle" x="1050" y="-183" font-family="Helvetica,sans-Serif" font-size="10.00">_cli.h</text>
</a>
</g>
</g>
<!-- Node16&#45;&gt;Node38 -->
<g id="edge84" class="edge">
<title>Node16&#45;&gt;Node38</title>
<path fill="none" stroke="#63b8ff" d="M909.85,-241.99C933.66,-233.5 970.94,-220.2 1001.07,-209.45"/>
<polygon fill="#63b8ff" stroke="#63b8ff" points="1002.33,-212.72 1010.57,-206.06 999.98,-206.13 1002.33,-212.72"/>
</g>
<!-- Node39 -->
<g id="node39" class="node">
<title>Node39</title>
<g id="a_node39"><a xlink:href="config__cli_8h.html" target="_top" xlink:title=" ">
<polygon fill="white" stroke="#666666" points="1255,-206 1125,-206 1125,-176 1255,-176 1255,-206"/>
<text text-anchor="start" x="1133" y="-194" font-family="Helvetica,sans-Serif" font-size="10.00">cli/device_config/config</text>
<text text-anchor="middle" x="1190" y="-183" font-family="Helvetica,sans-Serif" font-size="10.00">_cli.h</text>
</a>
</g>
</g>
<!-- Node16&#45;&gt;Node39 -->
<g id="edge86" class="edge">
<title>Node16&#45;&gt;Node39</title>
<path fill="none" stroke="#63b8ff" d="M913.51,-245.21C958.56,-236.54 1049.55,-219.03 1114.85,-206.46"/>
<polygon fill="#63b8ff" stroke="#63b8ff" points="1115.54,-209.89 1124.7,-204.57 1114.22,-203.02 1115.54,-209.89"/>
</g>
<!-- Node19&#45;&gt;Node2 -->
<g id="edge32" class="edge">
<title>Node19&#45;&gt;Node2</title>
<path fill="none" stroke="#63b8ff" d="M298.14,-181.37C292.75,-171.78 283.9,-156.05 277.01,-143.8"/>
<polygon fill="#63b8ff" stroke="#63b8ff" points="279.96,-141.91 272.01,-134.91 273.86,-145.34 279.96,-141.91"/>
</g>
<!-- Node19&#45;&gt;Node17 -->
<g id="edge28" class="edge">
<title>Node19&#45;&gt;Node17</title>
<path fill="none" stroke="#63b8ff" d="M347.37,-181.44C357.43,-179.58 368.07,-177.67 378,-176 484.8,-158.06 512.42,-159.25 619,-140 624.76,-138.96 630.79,-137.79 636.75,-136.59"/>
<polygon fill="#63b8ff" stroke="#63b8ff" points="637.6,-139.99 646.69,-134.54 636.19,-133.13 637.6,-139.99"/>
</g>
<!-- Node19&#45;&gt;Node18 -->
<g id="edge31" class="edge">
<title>Node19&#45;&gt;Node18</title>
<path fill="none" stroke="#63b8ff" d="M312.17,-181.37C322.86,-171.31 340.74,-154.48 353.99,-142.01"/>
<polygon fill="#63b8ff" stroke="#63b8ff" points="356.65,-144.31 361.54,-134.91 351.86,-139.21 356.65,-144.31"/>
</g>
<!-- Node20 -->
<g id="node20" class="node">
<title>Node20</title>
<g id="a_node20"><a xlink:title=" ">
<polygon fill="#e0e0e0" stroke="#999999" points="610.5,-134.5 549.5,-134.5 549.5,-115.5 610.5,-115.5 610.5,-134.5"/>
<text text-anchor="middle" x="580" y="-122.5" font-family="Helvetica,sans-Serif" font-size="10.00">Stream.h</text>
</a>
</g>
</g>
<!-- Node19&#45;&gt;Node20 -->
<g id="edge29" class="edge">
<title>Node19&#45;&gt;Node20</title>
<path fill="none" stroke="#63b8ff" d="M347.03,-181.42C405.14,-169.97 504.26,-149.98 540,-140 542.48,-139.31 545.03,-138.54 547.58,-137.74"/>
<polygon fill="#63b8ff" stroke="#63b8ff" points="548.93,-140.98 557.32,-134.51 546.72,-134.34 548.93,-140.98"/>
</g>
<!-- Node21 -->
<g id="node21" class="node">
<title>Node21</title>
<g id="a_node21"><a xlink:title=" ">
<polygon fill="#e0e0e0" stroke="#999999" points="531.5,-134.5 442.5,-134.5 442.5,-115.5 531.5,-115.5 531.5,-134.5"/>
<text text-anchor="middle" x="487" y="-122.5" font-family="Helvetica,sans-Serif" font-size="10.00">StreamString.h</text>
</a>
</g>
</g>
<!-- Node19&#45;&gt;Node21 -->
<g id="edge30" class="edge">
<title>Node19&#45;&gt;Node21</title>
<path fill="none" stroke="#63b8ff" d="M327.82,-181.37C360,-170.17 416.32,-150.58 452.62,-137.96"/>
<polygon fill="#63b8ff" stroke="#63b8ff" points="453.99,-141.19 462.28,-134.6 451.69,-134.58 453.99,-141.19"/>
</g>
<!-- Node22&#45;&gt;Node6 -->
<g id="edge40" class="edge">
<title>Node22&#45;&gt;Node6</title>
<path fill="none" stroke="#63b8ff" d="M752.76,-181.37C769.64,-170.78 798.49,-152.67 818.59,-140.06"/>
<polygon fill="#63b8ff" stroke="#63b8ff" points="820.53,-142.98 827.14,-134.7 816.81,-137.05 820.53,-142.98"/>
</g>
<!-- Node22&#45;&gt;Node9 -->
<g id="edge38" class="edge">
<title>Node22&#45;&gt;Node9</title>
<path fill="none" stroke="#63b8ff" d="M741.53,-181.24C744.25,-171.34 748.41,-154.67 750,-140 751.44,-126.74 750.3,-123.33 750,-110 749.81,-101.49 749.41,-92.06 749.02,-84.09"/>
<polygon fill="#63b8ff" stroke="#63b8ff" points="752.51,-83.83 748.5,-74.03 745.52,-84.2 752.51,-83.83"/>
</g>
<!-- Node22&#45;&gt;Node17 -->
<g id="edge34" class="edge">
<title>Node22&#45;&gt;Node17</title>
<path fill="none" stroke="#63b8ff" d="M731.72,-181.37C723.39,-171.5 709.56,-155.11 699.11,-142.72"/>
<polygon fill="#63b8ff" stroke="#63b8ff" points="701.64,-140.29 692.51,-134.91 696.29,-144.81 701.64,-140.29"/>
</g>
<!-- Node22&#45;&gt;Node18 -->
<g id="edge39" class="edge">
<title>Node22&#45;&gt;Node18</title>
<path fill="none" stroke="#63b8ff" d="M697.38,-181.49C687.75,-179.6 677.53,-177.67 668,-176 563.92,-157.78 536.82,-159.65 433,-140 427.85,-139.02 422.47,-137.93 417.13,-136.79"/>
<polygon fill="#63b8ff" stroke="#63b8ff" points="417.49,-133.29 406.97,-134.57 416,-140.13 417.49,-133.29"/>
</g>
<!-- Node22&#45;&gt;Node20 -->
<g id="edge35" class="edge">
<title>Node22&#45;&gt;Node20</title>
<path fill="none" stroke="#63b8ff" d="M717.56,-181.37C690.1,-170.32 642.32,-151.08 610.93,-138.45"/>
<polygon fill="#63b8ff" stroke="#63b8ff" points="611.94,-135.08 601.36,-134.6 609.33,-141.58 611.94,-135.08"/>
</g>
<!-- Node22&#45;&gt;Node21 -->
<g id="edge36" class="edge">
<title>Node22&#45;&gt;Node21</title>
<path fill="none" stroke="#63b8ff" d="M704.46,-181.45C664.74,-171.6 597.61,-154.85 540,-140 536.38,-139.07 532.62,-138.09 528.85,-137.1"/>
<polygon fill="#63b8ff" stroke="#63b8ff" points="529.49,-133.66 518.93,-134.5 527.72,-140.43 529.49,-133.66"/>
</g>
<!-- Node22&#45;&gt;Node22 -->
<g id="edge37" class="edge">
<title>Node22&#45;&gt;Node22</title>
<path fill="none" stroke="#63b8ff" d="M768.54,-200.53C793.22,-204.61 819,-201.43 819,-191 819,-182 799.78,-178.4 778.65,-180.2"/>
<polygon fill="#63b8ff" stroke="#63b8ff" points="778.03,-176.75 768.54,-181.47 778.9,-183.7 778.03,-176.75"/>
</g>
<!-- Node23&#45;&gt;Node2 -->
<g id="edge46" class="edge">
<title>Node23&#45;&gt;Node2</title>
<path fill="none" stroke="#63b8ff" d="M399.69,-175.95C369.62,-164.63 327.76,-148.88 299.15,-138.1"/>
<polygon fill="#63b8ff" stroke="#63b8ff" points="300.22,-134.77 289.62,-134.52 297.75,-141.32 300.22,-134.77"/>
</g>
<!-- Node23&#45;&gt;Node17 -->
<g id="edge42" class="edge">
<title>Node23&#45;&gt;Node17</title>
<path fill="none" stroke="#63b8ff" d="M487.19,-177.05C532.65,-165.32 598.94,-148.21 642.02,-137.09"/>
<polygon fill="#63b8ff" stroke="#63b8ff" points="643.1,-140.43 651.91,-134.54 641.35,-133.65 643.1,-140.43"/>
</g>
<!-- Node23&#45;&gt;Node18 -->
<g id="edge45" class="edge">
<title>Node23&#45;&gt;Node18</title>
<path fill="none" stroke="#63b8ff" d="M422.35,-175.8C412.06,-165.82 398.28,-152.46 387.59,-142.09"/>
<polygon fill="#63b8ff" stroke="#63b8ff" points="389.74,-139.29 380.12,-134.84 384.86,-144.32 389.74,-139.29"/>
</g>
<!-- Node23&#45;&gt;Node20 -->
<g id="edge43" class="edge">
<title>Node23&#45;&gt;Node20</title>
<path fill="none" stroke="#63b8ff" d="M468.38,-175.95C493.24,-164.83 527.66,-149.42 551.68,-138.67"/>
<polygon fill="#63b8ff" stroke="#63b8ff" points="553.27,-141.8 560.97,-134.52 550.41,-135.41 553.27,-141.8"/>
</g>
<!-- Node23&#45;&gt;Node21 -->
<g id="edge44" class="edge">
<title>Node23&#45;&gt;Node21</title>
<path fill="none" stroke="#63b8ff" d="M448.1,-175.8C455.66,-166.11 465.72,-153.24 473.71,-143.01"/>
<polygon fill="#63b8ff" stroke="#63b8ff" points="476.69,-144.88 480.09,-134.84 471.18,-140.57 476.69,-144.88"/>
</g>
<!-- Node24&#45;&gt;Node17 -->
<g id="edge48" class="edge">
<title>Node24&#45;&gt;Node17</title>
<path fill="none" stroke="#63b8ff" d="M874.98,-176.66C831.07,-164.95 767.94,-148.12 726.7,-137.12"/>
<polygon fill="#63b8ff" stroke="#63b8ff" points="727.54,-133.72 716.97,-134.53 725.73,-140.48 727.54,-133.72"/>
</g>
<!-- Node25 -->
<g id="node25" class="node">
<title>Node25</title>
<g id="a_node25"><a xlink:title=" ">
<polygon fill="#e0e0e0" stroke="#999999" points="947,-134.5 903,-134.5 903,-115.5 947,-115.5 947,-134.5"/>
<text text-anchor="middle" x="925" y="-122.5" font-family="Helvetica,sans-Serif" font-size="10.00">string</text>
</a>
</g>
</g>
<!-- Node24&#45;&gt;Node25 -->
<g id="edge49" class="edge">
<title>Node24&#45;&gt;Node25</title>
<path fill="none" stroke="#63b8ff" d="M925,-175.8C925,-166.7 925,-154.79 925,-144.9"/>
<polygon fill="#63b8ff" stroke="#63b8ff" points="928.5,-144.84 925,-134.84 921.5,-144.84 928.5,-144.84"/>
</g>
<!-- Node26&#45;&gt;Node16 -->
<g id="edge75" class="edge">
<title>Node26&#45;&gt;Node16</title>
<path fill="none" stroke="#63b8ff" d="M1561.38,-198.59C1538.28,-201.05 1510.89,-203.79 1486,-206 1274.07,-224.8 1018.91,-242.26 923.89,-248.28"/>
<polygon fill="#63b8ff" stroke="#63b8ff" points="923.39,-244.81 913.63,-248.93 923.83,-251.79 923.39,-244.81"/>
</g>
<!-- Node27 -->
<g id="node27" class="node">
<title>Node27</title>
<g id="a_node27"><a xlink:title=" ">
<polygon fill="#e0e0e0" stroke="#999999" points="1422.5,-134.5 1345.5,-134.5 1345.5,-115.5 1422.5,-115.5 1422.5,-134.5"/>
<text text-anchor="middle" x="1384" y="-122.5" font-family="Helvetica,sans-Serif" font-size="10.00">BLEDevice.h</text>
</a>
</g>
</g>
<!-- Node26&#45;&gt;Node27 -->
<g id="edge51" class="edge">
<title>Node26&#45;&gt;Node27</title>
<path fill="none" stroke="#63b8ff" d="M1582.98,-181.37C1542.06,-169.98 1469.93,-149.91 1424.68,-137.32"/>
<polygon fill="#63b8ff" stroke="#63b8ff" points="1425.47,-133.91 1414.89,-134.6 1423.59,-140.65 1425.47,-133.91"/>
</g>
<!-- Node28 -->
<g id="node28" class="node">
<title>Node28</title>
<g id="a_node28"><a xlink:title=" ">
<polygon fill="#e0e0e0" stroke="#999999" points="1901,-74 1827,-74 1827,-55 1901,-55 1901,-74"/>
<text text-anchor="middle" x="1864" y="-62" font-family="Helvetica,sans-Serif" font-size="10.00">BLEServer.h</text>
</a>
</g>
</g>
<!-- Node26&#45;&gt;Node28 -->
<g id="edge52" class="edge">
<title>Node26&#45;&gt;Node28</title>
<path fill="none" stroke="#63b8ff" d="M1666.75,-186.77C1731.68,-181.59 1836.39,-168.89 1861,-140 1873.96,-124.79 1872.38,-100.83 1869.08,-84.21"/>
<polygon fill="#63b8ff" stroke="#63b8ff" points="1872.39,-82.99 1866.69,-74.07 1865.58,-84.61 1872.39,-82.99"/>
</g>
<!-- Node29 -->
<g id="node29" class="node">
<title>Node29</title>
<g id="a_node29"><a xlink:title=" ">
<polygon fill="#e0e0e0" stroke="#999999" points="1545,-134.5 1479,-134.5 1479,-115.5 1545,-115.5 1545,-134.5"/>
<text text-anchor="middle" x="1512" y="-122.5" font-family="Helvetica,sans-Serif" font-size="10.00">BLEUtils.h</text>
</a>
</g>
</g>
<!-- Node26&#45;&gt;Node29 -->
<g id="edge53" class="edge">
<title>Node26&#45;&gt;Node29</title>
<path fill="none" stroke="#63b8ff" d="M1600.24,-181.37C1583.36,-170.78 1554.51,-152.67 1534.41,-140.06"/>
<polygon fill="#63b8ff" stroke="#63b8ff" points="1536.19,-137.05 1525.86,-134.7 1532.47,-142.98 1536.19,-137.05"/>
</g>
<!-- Node30 -->
<g id="node30" class="node">
<title>Node30</title>
<g id="a_node30"><a xlink:title=" ">
<polygon fill="#e0e0e0" stroke="#999999" points="1641,-74 1573,-74 1573,-55 1641,-55 1641,-74"/>
<text text-anchor="middle" x="1607" y="-62" font-family="Helvetica,sans-Serif" font-size="10.00">BLE2902.h</text>
</a>
</g>
</g>
<!-- Node26&#45;&gt;Node30 -->
<g id="edge54" class="edge">
<title>Node26&#45;&gt;Node30</title>
<path fill="none" stroke="#63b8ff" d="M1561.42,-186.5C1529.33,-181.33 1490.63,-169 1470,-140 1443.13,-102.23 1513.47,-81.66 1563.02,-72.17"/>
<polygon fill="#63b8ff" stroke="#63b8ff" points="1563.72,-75.61 1572.93,-70.37 1562.46,-68.72 1563.72,-75.61"/>
</g>
<!-- Node31 -->
<g id="node31" class="node">
<title>Node31</title>
<g id="a_node31"><a xlink:href="uart_8h.html" target="_top" xlink:title="BluetoothLE UART service setup and handling.">
<polygon fill="white" stroke="#666666" points="2004.5,-134.5 1909.5,-134.5 1909.5,-115.5 2004.5,-115.5 2004.5,-134.5"/>
<text text-anchor="middle" x="1957" y="-122.5" font-family="Helvetica,sans-Serif" font-size="10.00">bluetooth/uart.h</text>
</a>
</g>
</g>
<!-- Node26&#45;&gt;Node31 -->
<g id="edge55" class="edge">
<title>Node26&#45;&gt;Node31</title>
<path fill="none" stroke="#63b8ff" d="M1659.29,-181.5C1713.42,-172.07 1806.34,-156.07 1886,-140 1891.01,-138.99 1896.24,-137.89 1901.49,-136.76"/>
<polygon fill="#63b8ff" stroke="#63b8ff" points="1902.55,-140.11 1911.58,-134.57 1901.06,-133.27 1902.55,-140.11"/>
</g>
<!-- Node34 -->
<g id="node34" class="node">
<title>Node34</title>
<g id="a_node34"><a xlink:href="device_8h.html" target="_top" xlink:title="Bluetooth device services and device information.">
<polygon fill="white" stroke="#666666" points="1852.5,-134.5 1745.5,-134.5 1745.5,-115.5 1852.5,-115.5 1852.5,-134.5"/>
<text text-anchor="middle" x="1799" y="-122.5" font-family="Helvetica,sans-Serif" font-size="10.00">bluetooth/device.h</text>
</a>
</g>
</g>
<!-- Node26&#45;&gt;Node34 -->
<g id="edge63" class="edge">
<title>Node26&#45;&gt;Node34</title>
<path fill="none" stroke="#63b8ff" d="M1638.95,-181.37C1671.31,-170.17 1727.94,-150.58 1764.43,-137.96"/>
<polygon fill="#63b8ff" stroke="#63b8ff" points="1765.84,-141.17 1774.15,-134.6 1763.56,-134.56 1765.84,-141.17"/>
</g>
<!-- Node35 -->
<g id="node35" class="node">
<title>Node35</title>
<g id="a_node35"><a xlink:href="power__monitoring_8h.html" target="_top" xlink:title="Setup BluetoothLE power monitoring information.">
<polygon fill="white" stroke="#666666" points="1727,-134.5 1563,-134.5 1563,-115.5 1727,-115.5 1727,-134.5"/>
<text text-anchor="middle" x="1645" y="-122.5" font-family="Helvetica,sans-Serif" font-size="10.00">bluetooth/power_monitoring.h</text>
</a>
</g>
</g>
<!-- Node26&#45;&gt;Node35 -->
<g id="edge68" class="edge">
<title>Node26&#45;&gt;Node35</title>
<path fill="none" stroke="#63b8ff" d="M1618.18,-181.37C1622.78,-171.88 1630.29,-156.36 1636.2,-144.16"/>
<polygon fill="#63b8ff" stroke="#63b8ff" points="1639.48,-145.43 1640.69,-134.91 1633.18,-142.38 1639.48,-145.43"/>
</g>
<!-- Node31&#45;&gt;Node5 -->
<g id="edge56" class="edge">
<title>Node31&#45;&gt;Node5</title>
<path fill="none" stroke="#63b8ff" d="M1953.98,-115.37C1948.16,-100.15 1933.8,-68.85 1910,-55 1866.81,-29.87 1526.57,-16.01 1406.1,-11.85"/>
<polygon fill="#63b8ff" stroke="#63b8ff" points="1405.92,-8.34 1395.81,-11.5 1405.68,-15.34 1405.92,-8.34"/>
</g>
<!-- Node31&#45;&gt;Node26 -->
<g id="edge62" class="edge">
<title>Node31&#45;&gt;Node26</title>
<path fill="none" stroke="#63b8ff" d="M1929.11,-134.57C1921.02,-136.43 1912.22,-138.34 1904,-140 1826.17,-155.7 1735.69,-171.34 1676.67,-180.84"/>
<polygon fill="#63b8ff" stroke="#63b8ff" points="1676.08,-177.39 1666.75,-182.42 1677.18,-184.3 1676.08,-177.39"/>
</g>
<!-- Node31&#45;&gt;Node28 -->
<g id="edge58" class="edge">
<title>Node31&#45;&gt;Node28</title>
<path fill="none" stroke="#63b8ff" d="M1943.28,-115.37C1928.3,-105.95 1904.11,-90.73 1886.38,-79.58"/>
<polygon fill="#63b8ff" stroke="#63b8ff" points="1888.11,-76.53 1877.78,-74.17 1884.38,-82.45 1888.11,-76.53"/>
</g>
<!-- Node31&#45;&gt;Node30 -->
<g id="edge59" class="edge">
<title>Node31&#45;&gt;Node30</title>
<path fill="none" stroke="#63b8ff" d="M1909.32,-116.74C1850.89,-107.74 1748.62,-91.61 1651.26,-74.18"/>
<polygon fill="#63b8ff" stroke="#63b8ff" points="1651.71,-70.7 1641.25,-72.38 1650.47,-77.59 1651.71,-70.7"/>
</g>
<!-- Node32 -->
<g id="node32" class="node">
<title>Node32</title>
<g id="a_node32"><a xlink:title=" ">
<polygon fill="#e0e0e0" stroke="#999999" points="1770.5,-74 1659.5,-74 1659.5,-55 1770.5,-55 1770.5,-74"/>
<text text-anchor="middle" x="1715" y="-62" font-family="Helvetica,sans-Serif" font-size="10.00">BLECharacteristic.h</text>
</a>
</g>
</g>
<!-- Node31&#45;&gt;Node32 -->
<g id="edge57" class="edge">
<title>Node31&#45;&gt;Node32</title>
<path fill="none" stroke="#63b8ff" d="M1921.81,-115.49C1879.07,-105.16 1806.88,-87.71 1760.1,-76.4"/>
<polygon fill="#63b8ff" stroke="#63b8ff" points="1760.77,-72.96 1750.23,-74.02 1759.13,-79.77 1760.77,-72.96"/>
</g>
<!-- Node33 -->
<g id="node33" class="node">
<title>Node33</title>
<g id="a_node33"><a xlink:href="tones_8h.html" target="_top" xlink:title="Audio control for the onboard piezo buzzer.">
<polygon fill="white" stroke="#666666" points="2088.5,-74 1957.5,-74 1957.5,-55 2088.5,-55 2088.5,-74"/>
<text text-anchor="middle" x="2023" y="-62" font-family="Helvetica,sans-Serif" font-size="10.00">audio&#45;feedback/tones.h</text>
</a>
</g>
</g>
<!-- Node31&#45;&gt;Node33 -->
<g id="edge60" class="edge">
<title>Node31&#45;&gt;Node33</title>
<path fill="none" stroke="#63b8ff" d="M1966.74,-115.37C1976.97,-106.3 1993.29,-91.84 2005.72,-80.82"/>
<polygon fill="#63b8ff" stroke="#63b8ff" points="2008.06,-83.42 2013.22,-74.17 2003.42,-78.18 2008.06,-83.42"/>
</g>
<!-- Node33&#45;&gt;Node5 -->
<g id="edge61" class="edge">
<title>Node33&#45;&gt;Node5</title>
<path fill="none" stroke="#63b8ff" d="M1957.09,-56.34C1952.33,-55.87 1947.59,-55.42 1943,-55 1741.96,-36.6 1501.17,-19.76 1405.82,-13.29"/>
<polygon fill="#63b8ff" stroke="#63b8ff" points="1405.94,-9.79 1395.72,-12.61 1405.46,-16.78 1405.94,-9.79"/>
</g>
<!-- Node34&#45;&gt;Node5 -->
<g id="edge64" class="edge">
<title>Node34&#45;&gt;Node5</title>
<path fill="none" stroke="#63b8ff" d="M1799.32,-115.17C1799.33,-100.22 1796.97,-70.07 1779,-55 1750.74,-31.31 1505.06,-17.16 1405.57,-12.36"/>
<polygon fill="#63b8ff" stroke="#63b8ff" points="1405.73,-8.86 1395.57,-11.88 1405.39,-15.85 1405.73,-8.86"/>
</g>
<!-- Node34&#45;&gt;Node28 -->
<g id="edge66" class="edge">
<title>Node34&#45;&gt;Node28</title>
<path fill="none" stroke="#63b8ff" d="M1808.59,-115.37C1818.58,-106.38 1834.43,-92.11 1846.63,-81.14"/>
<polygon fill="#63b8ff" stroke="#63b8ff" points="1849.28,-83.46 1854.37,-74.17 1844.6,-78.26 1849.28,-83.46"/>
</g>
<!-- Node34&#45;&gt;Node30 -->
<g id="edge67" class="edge">
<title>Node34&#45;&gt;Node30</title>
<path fill="none" stroke="#63b8ff" d="M1771.08,-115.49C1737.81,-105.36 1682.05,-88.37 1644.9,-77.05"/>
<polygon fill="#63b8ff" stroke="#63b8ff" points="1645.54,-73.58 1634.95,-74.02 1643.5,-80.28 1645.54,-73.58"/>
</g>
<!-- Node34&#45;&gt;Node32 -->
<g id="edge65" class="edge">
<title>Node34&#45;&gt;Node32</title>
<path fill="none" stroke="#63b8ff" d="M1786.61,-115.37C1773.21,-106.04 1751.62,-91.01 1735.65,-79.88"/>
<polygon fill="#63b8ff" stroke="#63b8ff" points="1737.65,-77.01 1727.45,-74.17 1733.65,-82.75 1737.65,-77.01"/>
</g>
<!-- Node35&#45;&gt;Node5 -->
<g id="edge69" class="edge">
<title>Node35&#45;&gt;Node5</title>
<path fill="none" stroke="#63b8ff" d="M1623.88,-115.47C1574.65,-95.59 1452.12,-46.09 1394.66,-22.88"/>
<polygon fill="#63b8ff" stroke="#63b8ff" points="1395.95,-19.63 1385.37,-19.13 1393.33,-26.12 1395.95,-19.63"/>
</g>
<!-- Node35&#45;&gt;Node13 -->
<g id="edge74" class="edge">
<title>Node35&#45;&gt;Node13</title>
<path fill="none" stroke="#63b8ff" d="M1590.65,-115.46C1578.59,-113.62 1565.87,-111.71 1554,-110 1466.54,-97.41 1365.94,-84.09 1298.61,-75.34"/>
<polygon fill="#63b8ff" stroke="#63b8ff" points="1298.87,-71.84 1288.51,-74.03 1297.97,-78.79 1298.87,-71.84"/>
</g>
<!-- Node35&#45;&gt;Node15 -->
<g id="edge73" class="edge">
<title>Node35&#45;&gt;Node15</title>
<path fill="none" stroke="#63b8ff" d="M1594.56,-115.47C1581.39,-113.46 1567.19,-111.47 1554,-110 1327.89,-84.79 1267.58,-94.07 1037.23,-74.07"/>
<polygon fill="#63b8ff" stroke="#63b8ff" points="1037.47,-70.58 1027.2,-73.19 1036.85,-77.55 1037.47,-70.58"/>
</g>
<!-- Node35&#45;&gt;Node28 -->
<g id="edge71" class="edge">
<title>Node35&#45;&gt;Node28</title>
<path fill="none" stroke="#63b8ff" d="M1676.84,-115.49C1715.28,-105.23 1780.03,-87.93 1822.39,-76.62"/>
<polygon fill="#63b8ff" stroke="#63b8ff" points="1823.36,-79.98 1832.12,-74.02 1821.55,-73.22 1823.36,-79.98"/>
</g>
<!-- Node35&#45;&gt;Node30 -->
<g id="edge72" class="edge">
<title>Node35&#45;&gt;Node30</title>
<path fill="none" stroke="#63b8ff" d="M1639.39,-115.37C1633.84,-106.81 1625.17,-93.47 1618.2,-82.74"/>
<polygon fill="#63b8ff" stroke="#63b8ff" points="1621.01,-80.65 1612.63,-74.17 1615.14,-84.46 1621.01,-80.65"/>
</g>
<!-- Node35&#45;&gt;Node32 -->
<g id="edge70" class="edge">
<title>Node35&#45;&gt;Node32</title>
<path fill="none" stroke="#63b8ff" d="M1655.33,-115.37C1666.19,-106.3 1683.49,-91.84 1696.67,-80.82"/>
<polygon fill="#63b8ff" stroke="#63b8ff" points="1699.2,-83.27 1704.63,-74.17 1694.71,-77.89 1699.2,-83.27"/>
</g>
<!-- Node36&#45;&gt;Node10 -->
<g id="edge81" class="edge">
<title>Node36&#45;&gt;Node10</title>
<path fill="none" stroke="#63b8ff" d="M659.32,-177.17C662.25,-176.76 665.15,-176.37 668,-176 837.66,-154.09 1039.49,-137.41 1134.86,-130.08"/>
<polygon fill="#63b8ff" stroke="#63b8ff" points="1135.15,-133.57 1144.85,-129.32 1134.61,-126.59 1135.15,-133.57"/>
</g>
<!-- Node36&#45;&gt;Node17 -->
<g id="edge77" class="edge">
<title>Node36&#45;&gt;Node17</title>
<path fill="none" stroke="#63b8ff" d="M604.6,-175.95C621.79,-165.27 645.33,-150.65 662.49,-139.98"/>
<polygon fill="#63b8ff" stroke="#63b8ff" points="664.65,-142.77 671.29,-134.52 660.95,-136.82 664.65,-142.77"/>
</g>
<!-- Node36&#45;&gt;Node18 -->
<g id="edge80" class="edge">
<title>Node36&#45;&gt;Node18</title>
<path fill="none" stroke="#63b8ff" d="M535.7,-175.95C497.71,-164.43 444.6,-148.32 409.06,-137.54"/>
<polygon fill="#63b8ff" stroke="#63b8ff" points="409.67,-134.07 399.08,-134.52 407.63,-140.77 409.67,-134.07"/>
</g>
<!-- Node36&#45;&gt;Node20 -->
<g id="edge78" class="edge">
<title>Node36&#45;&gt;Node20</title>
<path fill="none" stroke="#63b8ff" d="M581.56,-175.8C581.27,-166.7 580.9,-154.79 580.59,-144.9"/>
<polygon fill="#63b8ff" stroke="#63b8ff" points="584.09,-144.73 580.28,-134.84 577.09,-144.95 584.09,-144.73"/>
</g>
<!-- Node36&#45;&gt;Node21 -->
<g id="edge79" class="edge">
<title>Node36&#45;&gt;Node21</title>
<path fill="none" stroke="#63b8ff" d="M560.92,-175.8C545.29,-165.27 524.07,-150.97 508.37,-140.4"/>
<polygon fill="#63b8ff" stroke="#63b8ff" points="510.1,-137.34 499.85,-134.66 506.19,-143.15 510.1,-137.34"/>
</g>
<!-- Node37&#45;&gt;Node10 -->
<g id="edge83" class="edge">
<title>Node37&#45;&gt;Node10</title>
<path fill="none" stroke="#63b8ff" d="M1332.84,-175.95C1300.18,-164.53 1254.62,-148.6 1223.81,-137.82"/>
<polygon fill="#63b8ff" stroke="#63b8ff" points="1224.95,-134.51 1214.35,-134.52 1222.64,-141.12 1224.95,-134.51"/>
</g>
<!-- Node38&#45;&gt;Node10 -->
<g id="edge85" class="edge">
<title>Node38&#45;&gt;Node10</title>
<path fill="none" stroke="#63b8ff" d="M1080.72,-175.95C1104.95,-164.88 1138.46,-149.56 1161.96,-138.82"/>
<polygon fill="#63b8ff" stroke="#63b8ff" points="1163.73,-141.86 1171.37,-134.52 1160.82,-135.49 1163.73,-141.86"/>
</g>
<!-- Node39&#45;&gt;Node10 -->
<g id="edge87" class="edge">
<title>Node39&#45;&gt;Node10</title>
<path fill="none" stroke="#63b8ff" d="M1190,-175.8C1190,-166.7 1190,-154.79 1190,-144.9"/>
<polygon fill="#63b8ff" stroke="#63b8ff" points="1193.5,-144.84 1190,-134.84 1186.5,-144.84 1193.5,-144.84"/>
</g>
</g>
</svg>
