<?xml version="1.0" encoding="UTF-8" standalone="no"?>
<!DOCTYPE svg PUBLIC "-//W3C//DTD SVG 1.1//EN"
 "http://www.w3.org/Graphics/SVG/1.1/DTD/svg11.dtd">
<!-- Generated by graphviz version 2.43.0 (0)
 -->
<!-- Title: firmware/wombat/src/mqtt_stack.cpp Pages: 1 -->
<svg width="1666pt" height="335pt"
 viewBox="0.00 0.00 1666.00 335.00" xmlns="http://www.w3.org/2000/svg" xmlns:xlink="http://www.w3.org/1999/xlink">
<g id="graph0" class="graph" transform="scale(1 1) rotate(0) translate(4 331)">
<title>firmware/wombat/src/mqtt_stack.cpp</title>
<!-- Node1 -->
<g id="node1" class="node">
<title>Node1</title>
<g id="a_node1"><a xlink:title=" ">
<polygon fill="#999999" stroke="#666666" points="322,-327 202,-327 202,-297 322,-297 322,-327"/>
<text text-anchor="start" x="210" y="-315" font-family="Helvetica,sans-Serif" font-size="10.00">firmware/wombat/src</text>
<text text-anchor="middle" x="262" y="-304" font-family="Helvetica,sans-Serif" font-size="10.00">/mqtt_stack.cpp</text>
</a>
</g>
</g>
<!-- Node2 -->
<g id="node2" class="node">
<title>Node2</title>
<g id="a_node2"><a xlink:href="_c_a_t___m1_8h.html" target="_top" xlink:title=" ">
<polygon fill="white" stroke="#666666" points="393.5,-134.5 328.5,-134.5 328.5,-115.5 393.5,-115.5 393.5,-134.5"/>
<text text-anchor="middle" x="361" y="-122.5" font-family="Helvetica,sans-Serif" font-size="10.00">CAT_M1.h</text>
</a>
</g>
</g>
<!-- Node1&#45;&gt;Node2 -->
<g id="edge1" class="edge">
<title>Node1&#45;&gt;Node2</title>
<path fill="none" stroke="#63b8ff" d="M263.34,-296.85C266.35,-270.96 275.52,-215.01 301,-176 310.37,-161.66 325.1,-149.29 337.63,-140.45"/>
<polygon fill="#63b8ff" stroke="#63b8ff" points="339.9,-143.14 346.24,-134.65 335.99,-137.33 339.9,-143.14"/>
</g>
<!-- Node6 -->
<g id="node6" class="node">
<title>Node6</title>
<g id="a_node6"><a xlink:href="_utils_8h.html" target="_top" xlink:title=" ">
<polygon fill="white" stroke="#666666" points="196,-134.5 148,-134.5 148,-115.5 196,-115.5 196,-134.5"/>
<text text-anchor="middle" x="172" y="-122.5" font-family="Helvetica,sans-Serif" font-size="10.00">Utils.h</text>
</a>
</g>
</g>
<!-- Node1&#45;&gt;Node6 -->
<g id="edge6" class="edge">
<title>Node1&#45;&gt;Node6</title>
<path fill="none" stroke="#63b8ff" d="M247.53,-296.88C229.18,-278.02 198.12,-242.7 183,-206 174.84,-186.2 172.5,-161.55 171.94,-144.88"/>
<polygon fill="#63b8ff" stroke="#63b8ff" points="175.44,-144.72 171.79,-134.78 168.44,-144.83 175.44,-144.72"/>
</g>
<!-- Node10 -->
<g id="node10" class="node">
<title>Node10</title>
<g id="a_node10"><a xlink:href="_device_config_8h.html" target="_top" xlink:title="Node configuration options.">
<polygon fill="white" stroke="#666666" points="1658,-134.5 1568,-134.5 1568,-115.5 1658,-115.5 1658,-134.5"/>
<text text-anchor="middle" x="1613" y="-122.5" font-family="Helvetica,sans-Serif" font-size="10.00">DeviceConfig.h</text>
</a>
</g>
</g>
<!-- Node1&#45;&gt;Node10 -->
<g id="edge10" class="edge">
<title>Node1&#45;&gt;Node10</title>
<path fill="none" stroke="#63b8ff" d="M322.19,-309.88C566.71,-304.84 1477.55,-281.12 1580,-206 1599.66,-191.59 1607.65,-163.31 1610.87,-144.53"/>
<polygon fill="#63b8ff" stroke="#63b8ff" points="1614.36,-144.9 1612.3,-134.51 1607.42,-143.92 1614.36,-144.9"/>
</g>
<!-- Node12 -->
<g id="node12" class="node">
<title>Node12</title>
<g id="a_node12"><a xlink:title=" ">
<polygon fill="#e0e0e0" stroke="#999999" points="130,-140 0,-140 0,-110 130,-110 130,-140"/>
<text text-anchor="start" x="8" y="-128" font-family="Helvetica,sans-Serif" font-size="10.00">SparkFun_u&#45;blox_SARA</text>
<text text-anchor="middle" x="65" y="-117" font-family="Helvetica,sans-Serif" font-size="10.00">&#45;R5_Arduino_Library.h</text>
</a>
</g>
</g>
<!-- Node1&#45;&gt;Node12 -->
<g id="edge13" class="edge">
<title>Node1&#45;&gt;Node12</title>
<path fill="none" stroke="#63b8ff" d="M244.01,-296.99C231.66,-287.2 215.03,-273.66 201,-261 158.51,-222.66 111.72,-174.89 85.59,-147.67"/>
<polygon fill="#63b8ff" stroke="#63b8ff" points="87.92,-145.05 78.48,-140.24 82.86,-149.89 87.92,-145.05"/>
</g>
<!-- Node13 -->
<g id="node13" class="node">
<title>Node13</title>
<g id="a_node13"><a xlink:href="globals_8h.html" target="_top" xlink:title=" ">
<polygon fill="white" stroke="#666666" points="253.5,-200.5 192.5,-200.5 192.5,-181.5 253.5,-181.5 253.5,-200.5"/>
<text text-anchor="middle" x="223" y="-188.5" font-family="Helvetica,sans-Serif" font-size="10.00">globals.h</text>
</a>
</g>
</g>
<!-- Node1&#45;&gt;Node13 -->
<g id="edge14" class="edge">
<title>Node1&#45;&gt;Node13</title>
<path fill="none" stroke="#63b8ff" d="M257.37,-296.88C250.3,-275.31 236.82,-234.15 229,-210.31"/>
<polygon fill="#63b8ff" stroke="#63b8ff" points="232.3,-209.12 225.85,-200.71 225.64,-211.3 232.3,-209.12"/>
</g>
<!-- Node17 -->
<g id="node17" class="node">
<title>Node17</title>
<g id="a_node17"><a xlink:href="_c_l_i_8h.html" target="_top" xlink:title="FreeRTOS CLI handler.">
<polygon fill="white" stroke="#666666" points="932.5,-261 877.5,-261 877.5,-242 932.5,-242 932.5,-261"/>
<text text-anchor="middle" x="905" y="-249" font-family="Helvetica,sans-Serif" font-size="10.00">cli/CLI.h</text>
</a>
</g>
</g>
<!-- Node1&#45;&gt;Node17 -->
<g id="edge23" class="edge">
<title>Node1&#45;&gt;Node17</title>
<path fill="none" stroke="#63b8ff" d="M322.2,-305.52C453.03,-293.62 760.1,-265.68 867.28,-255.93"/>
<polygon fill="#63b8ff" stroke="#63b8ff" points="867.67,-259.41 877.31,-255.02 867.04,-252.44 867.67,-259.41"/>
</g>
<!-- Node3 -->
<g id="node3" class="node">
<title>Node3</title>
<g id="a_node3"><a xlink:title=" ">
<polygon fill="#e0e0e0" stroke="#999999" points="416,-19 368,-19 368,0 416,0 416,-19"/>
<text text-anchor="middle" x="392" y="-7" font-family="Helvetica,sans-Serif" font-size="10.00">Wire.h</text>
</a>
</g>
</g>
<!-- Node2&#45;&gt;Node3 -->
<g id="edge2" class="edge">
<title>Node2&#45;&gt;Node3</title>
<path fill="none" stroke="#63b8ff" d="M363.33,-115.47C368.33,-97.15 380.21,-53.68 387,-28.81"/>
<polygon fill="#63b8ff" stroke="#63b8ff" points="390.38,-29.7 389.64,-19.13 383.63,-27.85 390.38,-29.7"/>
</g>
<!-- Node4 -->
<g id="node4" class="node">
<title>Node4</title>
<g id="a_node4"><a xlink:href="_t_c_a9534_8h.html" target="_top" xlink:title=" ">
<polygon fill="white" stroke="#666666" points="457,-74 389,-74 389,-55 457,-55 457,-74"/>
<text text-anchor="middle" x="423" y="-62" font-family="Helvetica,sans-Serif" font-size="10.00">TCA9534.h</text>
</a>
</g>
</g>
<!-- Node2&#45;&gt;Node4 -->
<g id="edge3" class="edge">
<title>Node2&#45;&gt;Node4</title>
<path fill="none" stroke="#63b8ff" d="M370.15,-115.37C379.67,-106.38 394.8,-92.11 406.43,-81.14"/>
<polygon fill="#63b8ff" stroke="#63b8ff" points="408.94,-83.58 413.81,-74.17 404.14,-78.48 408.94,-83.58"/>
</g>
<!-- Node4&#45;&gt;Node3 -->
<g id="edge5" class="edge">
<title>Node4&#45;&gt;Node3</title>
<path fill="none" stroke="#63b8ff" d="M417.88,-54.75C413.64,-47.49 407.47,-36.95 402.22,-27.98"/>
<polygon fill="#63b8ff" stroke="#63b8ff" points="405.09,-25.95 397.02,-19.09 399.05,-29.49 405.09,-25.95"/>
</g>
<!-- Node5 -->
<g id="node5" class="node">
<title>Node5</title>
<g id="a_node5"><a xlink:title=" ">
<polygon fill="#e0e0e0" stroke="#999999" points="971.5,-19 908.5,-19 908.5,0 971.5,0 971.5,-19"/>
<text text-anchor="middle" x="940" y="-7" font-family="Helvetica,sans-Serif" font-size="10.00">Arduino.h</text>
</a>
</g>
</g>
<!-- Node4&#45;&gt;Node5 -->
<g id="edge4" class="edge">
<title>Node4&#45;&gt;Node5</title>
<path fill="none" stroke="#63b8ff" d="M457.32,-59.98C548.91,-50.59 798.9,-24.96 898.37,-14.77"/>
<polygon fill="#63b8ff" stroke="#63b8ff" points="898.76,-18.25 908.35,-13.74 898.04,-11.28 898.76,-18.25"/>
</g>
<!-- Node7 -->
<g id="node7" class="node">
<title>Node7</title>
<g id="a_node7"><a xlink:title=" ">
<polygon fill="#e0e0e0" stroke="#999999" points="180,-74 124,-74 124,-55 180,-55 180,-74"/>
<text text-anchor="middle" x="152" y="-62" font-family="Helvetica,sans-Serif" font-size="10.00">stddef.h</text>
</a>
</g>
</g>
<!-- Node6&#45;&gt;Node7 -->
<g id="edge7" class="edge">
<title>Node6&#45;&gt;Node7</title>
<path fill="none" stroke="#63b8ff" d="M169.05,-115.37C166.21,-107.07 161.84,-94.28 158.23,-83.72"/>
<polygon fill="#63b8ff" stroke="#63b8ff" points="161.51,-82.5 154.96,-74.17 154.89,-84.76 161.51,-82.5"/>
</g>
<!-- Node8 -->
<g id="node8" class="node">
<title>Node8</title>
<g id="a_node8"><a xlink:title=" ">
<polygon fill="#e0e0e0" stroke="#999999" points="105.5,-74 22.5,-74 22.5,-55 105.5,-55 105.5,-74"/>
<text text-anchor="middle" x="64" y="-62" font-family="Helvetica,sans-Serif" font-size="10.00">ArduinoJson.h</text>
</a>
</g>
</g>
<!-- Node6&#45;&gt;Node8 -->
<g id="edge8" class="edge">
<title>Node6&#45;&gt;Node8</title>
<path fill="none" stroke="#63b8ff" d="M156.06,-115.37C138.36,-105.78 109.54,-90.17 88.86,-78.97"/>
<polygon fill="#63b8ff" stroke="#63b8ff" points="90.46,-75.85 80,-74.17 87.13,-82.01 90.46,-75.85"/>
</g>
<!-- Node9 -->
<g id="node9" class="node">
<title>Node9</title>
<g id="a_node9"><a xlink:title=" ">
<polygon fill="#e0e0e0" stroke="#999999" points="291.5,-74 198.5,-74 198.5,-55 291.5,-55 291.5,-74"/>
<text text-anchor="middle" x="245" y="-62" font-family="Helvetica,sans-Serif" font-size="10.00">dpiclimate&#45;12.h</text>
</a>
</g>
</g>
<!-- Node6&#45;&gt;Node9 -->
<g id="edge9" class="edge">
<title>Node6&#45;&gt;Node9</title>
<path fill="none" stroke="#63b8ff" d="M182.77,-115.37C194.2,-106.21 212.48,-91.56 226.28,-80.51"/>
<polygon fill="#63b8ff" stroke="#63b8ff" points="228.57,-83.15 234.18,-74.17 224.19,-77.69 228.57,-83.15"/>
</g>
<!-- Node10&#45;&gt;Node5 -->
<g id="edge11" class="edge">
<title>Node10&#45;&gt;Node5</title>
<path fill="none" stroke="#63b8ff" d="M1614.22,-115.18C1615.74,-100.25 1616.29,-70.14 1599,-55 1552.64,-14.42 1119.72,-10.61 981.92,-10.44"/>
<polygon fill="#63b8ff" stroke="#63b8ff" points="981.76,-6.94 971.76,-10.43 981.76,-13.94 981.76,-6.94"/>
</g>
<!-- Node11 -->
<g id="node11" class="node">
<title>Node11</title>
<g id="a_node11"><a xlink:title=" ">
<polygon fill="#e0e0e0" stroke="#999999" points="1589.5,-74 1502.5,-74 1502.5,-55 1589.5,-55 1589.5,-74"/>
<text text-anchor="middle" x="1546" y="-62" font-family="Helvetica,sans-Serif" font-size="10.00">ArduinoJSON.h</text>
</a>
</g>
</g>
<!-- Node10&#45;&gt;Node11 -->
<g id="edge12" class="edge">
<title>Node10&#45;&gt;Node11</title>
<path fill="none" stroke="#63b8ff" d="M1603.11,-115.37C1592.72,-106.3 1576.16,-91.84 1563.55,-80.82"/>
<polygon fill="#63b8ff" stroke="#63b8ff" points="1565.76,-78.11 1555.93,-74.17 1561.16,-83.38 1565.76,-78.11"/>
</g>
<!-- Node13&#45;&gt;Node2 -->
<g id="edge22" class="edge">
<title>Node13&#45;&gt;Node2</title>
<path fill="none" stroke="#63b8ff" d="M241.61,-181.37C265.07,-170.49 305.61,-151.69 332.86,-139.05"/>
<polygon fill="#63b8ff" stroke="#63b8ff" points="334.64,-142.08 342.24,-134.7 331.7,-135.73 334.64,-142.08"/>
</g>
<!-- Node13&#45;&gt;Node12 -->
<g id="edge21" class="edge">
<title>Node13&#45;&gt;Node12</title>
<path fill="none" stroke="#63b8ff" d="M201.69,-181.37C178.13,-171.82 139.51,-156.18 109.32,-143.95"/>
<polygon fill="#63b8ff" stroke="#63b8ff" points="110.43,-140.63 99.85,-140.12 107.8,-147.11 110.43,-140.63"/>
</g>
<!-- Node14 -->
<g id="node14" class="node">
<title>Node14</title>
<g id="a_node14"><a xlink:href="battery_8h.html" target="_top" xlink:title="Battery voltage and current monitoring using INA219 IC.">
<polygon fill="white" stroke="#666666" points="835.5,-74 684.5,-74 684.5,-55 835.5,-55 835.5,-74"/>
<text text-anchor="middle" x="760" y="-62" font-family="Helvetica,sans-Serif" font-size="10.00">power_monitoring/battery.h</text>
</a>
</g>
</g>
<!-- Node13&#45;&gt;Node14 -->
<g id="edge15" class="edge">
<title>Node13&#45;&gt;Node14</title>
<path fill="none" stroke="#63b8ff" d="M233.86,-181.22C246.1,-171.29 266.58,-154.6 284,-140 299.7,-126.84 300.17,-118.07 319,-110 320.01,-109.57 546.23,-86.88 674.23,-74.07"/>
<polygon fill="#63b8ff" stroke="#63b8ff" points="674.8,-77.54 684.41,-73.06 674.11,-70.57 674.8,-77.54"/>
</g>
<!-- Node16 -->
<g id="node16" class="node">
<title>Node16</title>
<g id="a_node16"><a xlink:href="solar_8h.html" target="_top" xlink:title="Solar voltage and current monitoring using INA219 IC.">
<polygon fill="white" stroke="#666666" points="666,-74 526,-74 526,-55 666,-55 666,-74"/>
<text text-anchor="middle" x="596" y="-62" font-family="Helvetica,sans-Serif" font-size="10.00">power_monitoring/solar.h</text>
</a>
</g>
</g>
<!-- Node13&#45;&gt;Node16 -->
<g id="edge18" class="edge">
<title>Node13&#45;&gt;Node16</title>
<path fill="none" stroke="#63b8ff" d="M226.94,-181.47C235.22,-164.63 256.14,-127.22 286,-110 323.92,-88.13 436.78,-76.17 515.31,-70.3"/>
<polygon fill="#63b8ff" stroke="#63b8ff" points="515.95,-73.76 525.67,-69.55 515.44,-66.78 515.95,-73.76"/>
</g>
<!-- Node14&#45;&gt;Node5 -->
<g id="edge16" class="edge">
<title>Node14&#45;&gt;Node5</title>
<path fill="none" stroke="#63b8ff" d="M788.92,-54.98C819.27,-46.05 867.17,-31.94 900.88,-22.02"/>
<polygon fill="#63b8ff" stroke="#63b8ff" points="902.25,-25.26 910.85,-19.08 900.27,-18.55 902.25,-25.26"/>
</g>
<!-- Node15 -->
<g id="node15" class="node">
<title>Node15</title>
<g id="a_node15"><a xlink:title=" ">
<polygon fill="#e0e0e0" stroke="#999999" points="730.5,-19 625.5,-19 625.5,0 730.5,0 730.5,-19"/>
<text text-anchor="middle" x="678" y="-7" font-family="Helvetica,sans-Serif" font-size="10.00">Adafruit_INA219.h</text>
</a>
</g>
</g>
<!-- Node14&#45;&gt;Node15 -->
<g id="edge17" class="edge">
<title>Node14&#45;&gt;Node15</title>
<path fill="none" stroke="#63b8ff" d="M746.83,-54.98C734.23,-46.84 715,-34.41 700.06,-24.76"/>
<polygon fill="#63b8ff" stroke="#63b8ff" points="701.71,-21.66 691.41,-19.17 697.91,-27.54 701.71,-21.66"/>
</g>
<!-- Node16&#45;&gt;Node5 -->
<g id="edge19" class="edge">
<title>Node16&#45;&gt;Node5</title>
<path fill="none" stroke="#63b8ff" d="M651.27,-54.98C720.03,-44.39 835.92,-26.54 897.91,-16.99"/>
<polygon fill="#63b8ff" stroke="#63b8ff" points="898.75,-20.4 908.1,-15.41 897.69,-13.48 898.75,-20.4"/>
</g>
<!-- Node16&#45;&gt;Node15 -->
<g id="edge20" class="edge">
<title>Node16&#45;&gt;Node15</title>
<path fill="none" stroke="#63b8ff" d="M609.17,-54.98C621.77,-46.84 641,-34.41 655.94,-24.76"/>
<polygon fill="#63b8ff" stroke="#63b8ff" points="658.09,-27.54 664.59,-19.17 654.29,-21.66 658.09,-27.54"/>
</g>
<!-- Node17&#45;&gt;Node5 -->
<g id="edge24" class="edge">
<title>Node17&#45;&gt;Node5</title>
<path fill="none" stroke="#63b8ff" d="M920.73,-241.88C932.88,-234.23 948.8,-221.83 956,-206 961.52,-193.86 963.04,-187.32 956,-176 936.9,-145.28 902.1,-170.72 883,-140 875.96,-128.68 879.57,-122.88 883,-110 891.45,-78.26 912.69,-46.1 926.72,-27.25"/>
<polygon fill="#63b8ff" stroke="#63b8ff" points="929.64,-29.19 932.94,-19.12 924.08,-24.93 929.64,-29.19"/>
</g>
<!-- Node18 -->
<g id="node18" class="node">
<title>Node18</title>
<g id="a_node18"><a xlink:title=" ">
<polygon fill="#e0e0e0" stroke="#999999" points="710.5,-134.5 597.5,-134.5 597.5,-115.5 710.5,-115.5 710.5,-134.5"/>
<text text-anchor="middle" x="654" y="-122.5" font-family="Helvetica,sans-Serif" font-size="10.00">freertos/FreeRTOS.h</text>
</a>
</g>
</g>
<!-- Node17&#45;&gt;Node18 -->
<g id="edge25" class="edge">
<title>Node17&#45;&gt;Node18</title>
<path fill="none" stroke="#63b8ff" d="M877.4,-244.67C848.69,-237.92 802.98,-225.2 767,-206 748.02,-195.87 746.41,-188.64 729,-176 711.59,-163.36 691.25,-149.88 676.15,-140.1"/>
<polygon fill="#63b8ff" stroke="#63b8ff" points="677.8,-137 667.5,-134.53 674.01,-142.89 677.8,-137"/>
</g>
<!-- Node19 -->
<g id="node19" class="node">
<title>Node19</title>
<g id="a_node19"><a xlink:title=" ">
<polygon fill="#e0e0e0" stroke="#999999" points="835.5,-134.5 728.5,-134.5 728.5,-115.5 835.5,-115.5 835.5,-134.5"/>
<text text-anchor="middle" x="782" y="-122.5" font-family="Helvetica,sans-Serif" font-size="10.00">cli/FreeRTOS_CLI.h</text>
</a>
</g>
</g>
<!-- Node17&#45;&gt;Node19 -->
<g id="edge26" class="edge">
<title>Node17&#45;&gt;Node19</title>
<path fill="none" stroke="#63b8ff" d="M914.74,-241.62C929.59,-227 954.61,-197.35 939,-176 932.09,-166.55 869.79,-148.73 825.78,-137.12"/>
<polygon fill="#63b8ff" stroke="#63b8ff" points="826.42,-133.67 815.86,-134.52 824.65,-140.44 826.42,-133.67"/>
</g>
<!-- Node20 -->
<g id="node20" class="node">
<title>Node20</title>
<g id="a_node20"><a xlink:href="cat-m1_8h.html" target="_top" xlink:title="CAT&#45;M1 CLI command request and response handler.">
<polygon fill="white" stroke="#666666" points="720,-200.5 588,-200.5 588,-181.5 720,-181.5 720,-200.5"/>
<text text-anchor="middle" x="654" y="-188.5" font-family="Helvetica,sans-Serif" font-size="10.00">cli/peripherals/cat&#45;m1.h</text>
</a>
</g>
</g>
<!-- Node17&#45;&gt;Node20 -->
<g id="edge27" class="edge">
<title>Node17&#45;&gt;Node20</title>
<path fill="none" stroke="#63b8ff" d="M877.18,-244.02C834.58,-234.09 752.69,-215 700.83,-202.91"/>
<polygon fill="#63b8ff" stroke="#63b8ff" points="701.41,-199.46 690.88,-200.59 699.82,-206.27 701.41,-199.46"/>
</g>
<!-- Node23 -->
<g id="node23" class="node">
<title>Node23</title>
<g id="a_node23"><a xlink:href="sdi12_8h.html" target="_top" xlink:title="SDI&#45;12 command line interface handler.">
<polygon fill="white" stroke="#666666" points="434,-200.5 310,-200.5 310,-181.5 434,-181.5 434,-200.5"/>
<text text-anchor="middle" x="372" y="-188.5" font-family="Helvetica,sans-Serif" font-size="10.00">cli/peripherals/sdi12.h</text>
</a>
</g>
</g>
<!-- Node17&#45;&gt;Node23 -->
<g id="edge33" class="edge">
<title>Node17&#45;&gt;Node23</title>
<path fill="none" stroke="#63b8ff" d="M877.4,-248.28C807.55,-242.53 618.13,-226.22 461,-206 452,-204.84 442.51,-203.49 433.21,-202.09"/>
<polygon fill="#63b8ff" stroke="#63b8ff" points="433.64,-198.62 423.23,-200.56 432.58,-205.54 433.64,-198.62"/>
</g>
<!-- Node24 -->
<g id="node24" class="node">
<title>Node24</title>
<g id="a_node24"><a xlink:href="cli__power_8h.html" target="_top" xlink:title=" ">
<polygon fill="white" stroke="#666666" points="570,-206 470,-206 470,-176 570,-176 570,-206"/>
<text text-anchor="start" x="478" y="-194" font-family="Helvetica,sans-Serif" font-size="10.00">cli/peripherals/cli</text>
<text text-anchor="middle" x="520" y="-183" font-family="Helvetica,sans-Serif" font-size="10.00">_power.h</text>
</a>
</g>
</g>
<!-- Node17&#45;&gt;Node24 -->
<g id="edge41" class="edge">
<title>Node17&#45;&gt;Node24</title>
<path fill="none" stroke="#63b8ff" d="M877.38,-247.65C822.61,-241.8 696.21,-227.32 580.25,-206.12"/>
<polygon fill="#63b8ff" stroke="#63b8ff" points="580.61,-202.63 570.14,-204.25 579.34,-209.51 580.61,-202.63"/>
</g>
<!-- Node25 -->
<g id="node25" class="node">
<title>Node25</title>
<g id="a_node25"><a xlink:href="server_8h.html" target="_top" xlink:title="Handle the setup and maintenance of the BLE server and connected clients.">
<polygon fill="white" stroke="#666666" points="1223.5,-200.5 1118.5,-200.5 1118.5,-181.5 1223.5,-181.5 1223.5,-200.5"/>
<text text-anchor="middle" x="1171" y="-188.5" font-family="Helvetica,sans-Serif" font-size="10.00">bluetooth/server.h</text>
</a>
</g>
</g>
<!-- Node17&#45;&gt;Node25 -->
<g id="edge47" class="edge">
<title>Node17&#45;&gt;Node25</title>
<path fill="none" stroke="#63b8ff" d="M932.5,-243.44C976.07,-233.29 1061.38,-214.47 1117.33,-202.63"/>
<polygon fill="#63b8ff" stroke="#63b8ff" points="1118.35,-205.99 1127.42,-200.5 1116.91,-199.14 1118.35,-205.99"/>
</g>
<!-- Node35 -->
<g id="node35" class="node">
<title>Node35</title>
<g id="a_node35"><a xlink:href="acquisition__intervals_8h.html" target="_top" xlink:title="Handles the time between measurements and uplinks by the device over LTE.">
<polygon fill="white" stroke="#666666" points="930,-206 776,-206 776,-176 930,-176 930,-206"/>
<text text-anchor="start" x="784" y="-194" font-family="Helvetica,sans-Serif" font-size="10.00">cli/device_config/acquisition</text>
<text text-anchor="middle" x="853" y="-183" font-family="Helvetica,sans-Serif" font-size="10.00">_intervals.h</text>
</a>
</g>
</g>
<!-- Node17&#45;&gt;Node35 -->
<g id="edge73" class="edge">
<title>Node17&#45;&gt;Node35</title>
<path fill="none" stroke="#63b8ff" d="M897.33,-241.87C890.73,-234.44 880.93,-223.42 872.22,-213.62"/>
<polygon fill="#63b8ff" stroke="#63b8ff" points="874.81,-211.26 865.55,-206.11 869.57,-215.91 874.81,-211.26"/>
</g>
<!-- Node36 -->
<g id="node36" class="node">
<title>Node36</title>
<g id="a_node36"><a xlink:href="mqtt__cli_8h.html" target="_top" xlink:title="MQTT setup and configuration through the CLI.">
<polygon fill="white" stroke="#666666" points="1404,-206 1280,-206 1280,-176 1404,-176 1404,-206"/>
<text text-anchor="start" x="1288" y="-194" font-family="Helvetica,sans-Serif" font-size="10.00">cli/device_config/mqtt</text>
<text text-anchor="middle" x="1342" y="-183" font-family="Helvetica,sans-Serif" font-size="10.00">_cli.h</text>
</a>
</g>
</g>
<!-- Node17&#45;&gt;Node36 -->
<g id="edge79" class="edge">
<title>Node17&#45;&gt;Node36</title>
<path fill="none" stroke="#63b8ff" d="M932.67,-246.8C999.44,-237.86 1171.17,-214.87 1269.68,-201.68"/>
<polygon fill="#63b8ff" stroke="#63b8ff" points="1270.41,-205.12 1279.85,-200.32 1269.48,-198.18 1270.41,-205.12"/>
</g>
<!-- Node37 -->
<g id="node37" class="node">
<title>Node37</title>
<g id="a_node37"><a xlink:href="config__cli_8h.html" target="_top" xlink:title=" ">
<polygon fill="white" stroke="#666666" points="1571,-206 1441,-206 1441,-176 1571,-176 1571,-206"/>
<text text-anchor="start" x="1449" y="-194" font-family="Helvetica,sans-Serif" font-size="10.00">cli/device_config/config</text>
<text text-anchor="middle" x="1506" y="-183" font-family="Helvetica,sans-Serif" font-size="10.00">_cli.h</text>
</a>
</g>
</g>
<!-- Node17&#45;&gt;Node37 -->
<g id="edge81" class="edge">
<title>Node17&#45;&gt;Node37</title>
<path fill="none" stroke="#63b8ff" d="M932.6,-248.69C1009.07,-243.53 1230.14,-227.75 1413,-206 1418.76,-205.31 1424.72,-204.55 1430.71,-203.74"/>
<polygon fill="#63b8ff" stroke="#63b8ff" points="1431.35,-207.18 1440.78,-202.34 1430.39,-200.25 1431.35,-207.18"/>
</g>
<!-- Node20&#45;&gt;Node2 -->
<g id="edge32" class="edge">
<title>Node20&#45;&gt;Node2</title>
<path fill="none" stroke="#63b8ff" d="M609.29,-181.47C542.34,-168.63 421.73,-145.3 402,-140 399.37,-139.29 396.66,-138.5 393.95,-137.67"/>
<polygon fill="#63b8ff" stroke="#63b8ff" points="394.84,-134.29 384.25,-134.54 392.69,-140.95 394.84,-134.29"/>
</g>
<!-- Node20&#45;&gt;Node18 -->
<g id="edge28" class="edge">
<title>Node20&#45;&gt;Node18</title>
<path fill="none" stroke="#63b8ff" d="M654,-181.37C654,-172.16 654,-157.29 654,-145.27"/>
<polygon fill="#63b8ff" stroke="#63b8ff" points="657.5,-144.91 654,-134.91 650.5,-144.91 657.5,-144.91"/>
</g>
<!-- Node20&#45;&gt;Node19 -->
<g id="edge31" class="edge">
<title>Node20&#45;&gt;Node19</title>
<path fill="none" stroke="#63b8ff" d="M671.26,-181.37C692.92,-170.54 730.29,-151.85 755.57,-139.22"/>
<polygon fill="#63b8ff" stroke="#63b8ff" points="757.22,-142.3 764.6,-134.7 754.09,-136.04 757.22,-142.3"/>
</g>
<!-- Node21 -->
<g id="node21" class="node">
<title>Node21</title>
<g id="a_node21"><a xlink:title=" ">
<polygon fill="#e0e0e0" stroke="#999999" points="472.5,-134.5 411.5,-134.5 411.5,-115.5 472.5,-115.5 472.5,-134.5"/>
<text text-anchor="middle" x="442" y="-122.5" font-family="Helvetica,sans-Serif" font-size="10.00">Stream.h</text>
</a>
</g>
</g>
<!-- Node20&#45;&gt;Node21 -->
<g id="edge29" class="edge">
<title>Node20&#45;&gt;Node21</title>
<path fill="none" stroke="#63b8ff" d="M622.25,-181.47C587.41,-171.97 529.93,-155.84 481,-140 478.89,-139.32 476.72,-138.59 474.53,-137.85"/>
<polygon fill="#63b8ff" stroke="#63b8ff" points="475.61,-134.52 465.01,-134.53 473.31,-141.13 475.61,-134.52"/>
</g>
<!-- Node22 -->
<g id="node22" class="node">
<title>Node22</title>
<g id="a_node22"><a xlink:title=" ">
<polygon fill="#e0e0e0" stroke="#999999" points="579.5,-134.5 490.5,-134.5 490.5,-115.5 579.5,-115.5 579.5,-134.5"/>
<text text-anchor="middle" x="535" y="-122.5" font-family="Helvetica,sans-Serif" font-size="10.00">StreamString.h</text>
</a>
</g>
</g>
<!-- Node20&#45;&gt;Node22 -->
<g id="edge30" class="edge">
<title>Node20&#45;&gt;Node22</title>
<path fill="none" stroke="#63b8ff" d="M637.95,-181.37C617.99,-170.63 583.68,-152.18 560.2,-139.55"/>
<polygon fill="#63b8ff" stroke="#63b8ff" points="561.64,-136.35 551.17,-134.7 558.32,-142.52 561.64,-136.35"/>
</g>
<!-- Node23&#45;&gt;Node6 -->
<g id="edge40" class="edge">
<title>Node23&#45;&gt;Node6</title>
<path fill="none" stroke="#63b8ff" d="M342.58,-181.44C310.01,-171.83 256.01,-155.56 210,-140 208.15,-139.37 206.26,-138.72 204.35,-138.05"/>
<polygon fill="#63b8ff" stroke="#63b8ff" points="205.43,-134.72 194.84,-134.64 203.07,-141.31 205.43,-134.72"/>
</g>
<!-- Node23&#45;&gt;Node9 -->
<g id="edge38" class="edge">
<title>Node23&#45;&gt;Node9</title>
<path fill="none" stroke="#63b8ff" d="M362.53,-181.24C351.86,-171.33 334.04,-154.66 319,-140 298.73,-120.25 275.83,-97.05 260.95,-81.86"/>
<polygon fill="#63b8ff" stroke="#63b8ff" points="263.06,-79.01 253.57,-74.31 258.05,-83.91 263.06,-79.01"/>
</g>
<!-- Node23&#45;&gt;Node18 -->
<g id="edge34" class="edge">
<title>Node23&#45;&gt;Node18</title>
<path fill="none" stroke="#63b8ff" d="M409.74,-181.44C460.6,-169.89 551.15,-149.34 606.56,-136.77"/>
<polygon fill="#63b8ff" stroke="#63b8ff" points="607.51,-140.14 616.48,-134.51 605.96,-133.31 607.51,-140.14"/>
</g>
<!-- Node23&#45;&gt;Node19 -->
<g id="edge39" class="edge">
<title>Node23&#45;&gt;Node19</title>
<path fill="none" stroke="#63b8ff" d="M425.16,-181.48C436.95,-179.64 449.4,-177.72 461,-176 575.52,-159 605.07,-160.57 719,-140 724.44,-139.02 730.13,-137.89 735.77,-136.72"/>
<polygon fill="#63b8ff" stroke="#63b8ff" points="736.74,-140.09 745.79,-134.57 735.28,-133.24 736.74,-140.09"/>
</g>
<!-- Node23&#45;&gt;Node21 -->
<g id="edge35" class="edge">
<title>Node23&#45;&gt;Node21</title>
<path fill="none" stroke="#63b8ff" d="M381.44,-181.37C392.55,-171.21 411.2,-154.16 424.88,-141.65"/>
<polygon fill="#63b8ff" stroke="#63b8ff" points="427.24,-144.24 432.26,-134.91 422.52,-139.07 427.24,-144.24"/>
</g>
<!-- Node23&#45;&gt;Node22 -->
<g id="edge36" class="edge">
<title>Node23&#45;&gt;Node22</title>
<path fill="none" stroke="#63b8ff" d="M393.98,-181.37C422.25,-170.27 471.54,-150.92 503.71,-138.28"/>
<polygon fill="#63b8ff" stroke="#63b8ff" points="505.08,-141.51 513.11,-134.6 502.52,-134.99 505.08,-141.51"/>
</g>
<!-- Node23&#45;&gt;Node23 -->
<g id="edge37" class="edge">
<title>Node23&#45;&gt;Node23</title>
<path fill="none" stroke="#63b8ff" d="M401.54,-200.53C426.22,-204.61 452,-201.43 452,-191 452,-182 432.78,-178.4 411.65,-180.2"/>
<polygon fill="#63b8ff" stroke="#63b8ff" points="411.03,-176.75 401.54,-181.47 411.9,-183.7 411.03,-176.75"/>
</g>
<!-- Node24&#45;&gt;Node2 -->
<g id="edge46" class="edge">
<title>Node24&#45;&gt;Node2</title>
<path fill="none" stroke="#63b8ff" d="M485.11,-175.95C457.22,-164.73 418.51,-149.15 391.77,-138.39"/>
<polygon fill="#63b8ff" stroke="#63b8ff" points="392.74,-135 382.16,-134.52 390.13,-141.5 392.74,-135"/>
</g>
<!-- Node24&#45;&gt;Node18 -->
<g id="edge42" class="edge">
<title>Node24&#45;&gt;Node18</title>
<path fill="none" stroke="#63b8ff" d="M549.41,-175.95C572.49,-164.93 604.38,-149.7 626.86,-138.96"/>
<polygon fill="#63b8ff" stroke="#63b8ff" points="628.65,-141.99 636.17,-134.52 625.63,-135.67 628.65,-141.99"/>
</g>
<!-- Node24&#45;&gt;Node19 -->
<g id="edge45" class="edge">
<title>Node24&#45;&gt;Node19</title>
<path fill="none" stroke="#63b8ff" d="M570.21,-177.74C618.52,-165.93 690.88,-148.26 737.27,-136.93"/>
<polygon fill="#63b8ff" stroke="#63b8ff" points="738.15,-140.31 747.04,-134.54 736.49,-133.51 738.15,-140.31"/>
</g>
<!-- Node24&#45;&gt;Node21 -->
<g id="edge43" class="edge">
<title>Node24&#45;&gt;Node21</title>
<path fill="none" stroke="#63b8ff" d="M502.69,-175.8C490.29,-165.62 473.6,-151.93 460.87,-141.48"/>
<polygon fill="#63b8ff" stroke="#63b8ff" points="462.73,-138.48 452.78,-134.84 458.29,-143.89 462.73,-138.48"/>
</g>
<!-- Node24&#45;&gt;Node22 -->
<g id="edge44" class="edge">
<title>Node24&#45;&gt;Node22</title>
<path fill="none" stroke="#63b8ff" d="M523.33,-175.8C525.46,-166.7 528.25,-154.79 530.57,-144.9"/>
<polygon fill="#63b8ff" stroke="#63b8ff" points="534.05,-145.38 532.93,-134.84 527.24,-143.78 534.05,-145.38"/>
</g>
<!-- Node25&#45;&gt;Node17 -->
<g id="edge72" class="edge">
<title>Node25&#45;&gt;Node17</title>
<path fill="none" stroke="#63b8ff" d="M1137.1,-200.54C1087.14,-212.08 994.39,-232.46 942.47,-243.28"/>
<polygon fill="#63b8ff" stroke="#63b8ff" points="941.74,-239.85 932.65,-245.31 943.15,-246.71 941.74,-239.85"/>
</g>
<!-- Node26 -->
<g id="node26" class="node">
<title>Node26</title>
<g id="a_node26"><a xlink:title=" ">
<polygon fill="#e0e0e0" stroke="#999999" points="1314.5,-134.5 1237.5,-134.5 1237.5,-115.5 1314.5,-115.5 1314.5,-134.5"/>
<text text-anchor="middle" x="1276" y="-122.5" font-family="Helvetica,sans-Serif" font-size="10.00">BLEDevice.h</text>
</a>
</g>
</g>
<!-- Node25&#45;&gt;Node26 -->
<g id="edge48" class="edge">
<title>Node25&#45;&gt;Node26</title>
<path fill="none" stroke="#63b8ff" d="M1185.16,-181.37C1202.54,-170.78 1232.24,-152.67 1252.93,-140.06"/>
<polygon fill="#63b8ff" stroke="#63b8ff" points="1255.01,-142.89 1261.73,-134.7 1251.37,-136.92 1255.01,-142.89"/>
</g>
<!-- Node27 -->
<g id="node27" class="node">
<title>Node27</title>
<g id="a_node27"><a xlink:title=" ">
<polygon fill="#e0e0e0" stroke="#999999" points="1296,-74 1222,-74 1222,-55 1296,-55 1296,-74"/>
<text text-anchor="middle" x="1259" y="-62" font-family="Helvetica,sans-Serif" font-size="10.00">BLEServer.h</text>
</a>
</g>
</g>
<!-- Node25&#45;&gt;Node27 -->
<g id="edge49" class="edge">
<title>Node25&#45;&gt;Node27</title>
<path fill="none" stroke="#63b8ff" d="M1223.67,-182.59C1321.26,-168.84 1520.39,-140.7 1521,-140 1623.87,-21.39 1758.3,-152.06 1306.25,-74.18"/>
<polygon fill="#63b8ff" stroke="#63b8ff" points="1306.6,-70.69 1296.15,-72.42 1305.4,-77.58 1306.6,-70.69"/>
</g>
<!-- Node28 -->
<g id="node28" class="node">
<title>Node28</title>
<g id="a_node28"><a xlink:title=" ">
<polygon fill="#e0e0e0" stroke="#999999" points="1512,-134.5 1446,-134.5 1446,-115.5 1512,-115.5 1512,-134.5"/>
<text text-anchor="middle" x="1479" y="-122.5" font-family="Helvetica,sans-Serif" font-size="10.00">BLEUtils.h</text>
</a>
</g>
</g>
<!-- Node25&#45;&gt;Node28 -->
<g id="edge50" class="edge">
<title>Node25&#45;&gt;Node28</title>
<path fill="none" stroke="#63b8ff" d="M1223.7,-182.26C1277.71,-173.83 1363.88,-158.96 1437,-140 1439.79,-139.28 1442.66,-138.46 1445.54,-137.61"/>
<polygon fill="#63b8ff" stroke="#63b8ff" points="1446.7,-140.91 1455.18,-134.56 1444.59,-134.23 1446.7,-140.91"/>
</g>
<!-- Node29 -->
<g id="node29" class="node">
<title>Node29</title>
<g id="a_node29"><a xlink:title=" ">
<polygon fill="#e0e0e0" stroke="#999999" points="1036,-74 968,-74 968,-55 1036,-55 1036,-74"/>
<text text-anchor="middle" x="1002" y="-62" font-family="Helvetica,sans-Serif" font-size="10.00">BLE2902.h</text>
</a>
</g>
</g>
<!-- Node25&#45;&gt;Node29 -->
<g id="edge51" class="edge">
<title>Node25&#45;&gt;Node29</title>
<path fill="none" stroke="#63b8ff" d="M1158.87,-181.27C1145.2,-171.39 1122.35,-154.74 1103,-140 1085.89,-126.96 1082.24,-122.88 1065,-110 1051.19,-99.68 1035.33,-88.49 1022.99,-79.91"/>
<polygon fill="#63b8ff" stroke="#63b8ff" points="1024.91,-76.98 1014.69,-74.17 1020.93,-82.74 1024.91,-76.98"/>
</g>
<!-- Node30 -->
<g id="node30" class="node">
<title>Node30</title>
<g id="a_node30"><a xlink:href="uart_8h.html" target="_top" xlink:title="BluetoothLE UART service setup and handling.">
<polygon fill="white" stroke="#666666" points="1427.5,-134.5 1332.5,-134.5 1332.5,-115.5 1427.5,-115.5 1427.5,-134.5"/>
<text text-anchor="middle" x="1380" y="-122.5" font-family="Helvetica,sans-Serif" font-size="10.00">bluetooth/uart.h</text>
</a>
</g>
</g>
<!-- Node25&#45;&gt;Node30 -->
<g id="edge52" class="edge">
<title>Node25&#45;&gt;Node30</title>
<path fill="none" stroke="#63b8ff" d="M1194.4,-181.37C1229.08,-170 1294.25,-150 1337.47,-137.4"/>
<polygon fill="#63b8ff" stroke="#63b8ff" points="1338.51,-140.74 1347.15,-134.6 1336.57,-134.02 1338.51,-140.74"/>
</g>
<!-- Node33 -->
<g id="node33" class="node">
<title>Node33</title>
<g id="a_node33"><a xlink:href="device_8h.html" target="_top" xlink:title="Bluetooth device services and device information.">
<polygon fill="white" stroke="#666666" points="1219.5,-134.5 1112.5,-134.5 1112.5,-115.5 1219.5,-115.5 1219.5,-134.5"/>
<text text-anchor="middle" x="1166" y="-122.5" font-family="Helvetica,sans-Serif" font-size="10.00">bluetooth/device.h</text>
</a>
</g>
</g>
<!-- Node25&#45;&gt;Node33 -->
<g id="edge60" class="edge">
<title>Node25&#45;&gt;Node33</title>
<path fill="none" stroke="#63b8ff" d="M1170.33,-181.37C1169.6,-172.07 1168.42,-156.98 1167.48,-144.9"/>
<polygon fill="#63b8ff" stroke="#63b8ff" points="1170.96,-144.6 1166.7,-134.91 1163.99,-145.15 1170.96,-144.6"/>
</g>
<!-- Node34 -->
<g id="node34" class="node">
<title>Node34</title>
<g id="a_node34"><a xlink:href="power__monitoring_8h.html" target="_top" xlink:title="Setup BluetoothLE power monitoring information.">
<polygon fill="white" stroke="#666666" points="1056,-134.5 892,-134.5 892,-115.5 1056,-115.5 1056,-134.5"/>
<text text-anchor="middle" x="974" y="-122.5" font-family="Helvetica,sans-Serif" font-size="10.00">bluetooth/power_monitoring.h</text>
</a>
</g>
</g>
<!-- Node25&#45;&gt;Node34 -->
<g id="edge65" class="edge">
<title>Node25&#45;&gt;Node34</title>
<path fill="none" stroke="#63b8ff" d="M1144.43,-181.37C1109.82,-170.12 1049.16,-150.42 1010.32,-137.8"/>
<polygon fill="#63b8ff" stroke="#63b8ff" points="1011.05,-134.36 1000.46,-134.6 1008.89,-141.02 1011.05,-134.36"/>
</g>
<!-- Node30&#45;&gt;Node5 -->
<g id="edge53" class="edge">
<title>Node30&#45;&gt;Node5</title>
<path fill="none" stroke="#63b8ff" d="M1402.08,-115.36C1431.21,-102.77 1476.41,-78.34 1455,-55 1423.24,-20.37 1098.78,-12.62 981.78,-10.94"/>
<polygon fill="#63b8ff" stroke="#63b8ff" points="981.81,-7.44 971.76,-10.81 981.71,-14.44 981.81,-7.44"/>
</g>
<!-- Node30&#45;&gt;Node25 -->
<g id="edge59" class="edge">
<title>Node30&#45;&gt;Node25</title>
<path fill="none" stroke="#63b8ff" d="M1356.71,-134.6C1322.09,-145.94 1256.93,-165.95 1213.66,-178.56"/>
<polygon fill="#63b8ff" stroke="#63b8ff" points="1212.61,-175.23 1203.98,-181.37 1214.55,-181.95 1212.61,-175.23"/>
</g>
<!-- Node30&#45;&gt;Node27 -->
<g id="edge55" class="edge">
<title>Node30&#45;&gt;Node27</title>
<path fill="none" stroke="#63b8ff" d="M1362.41,-115.49C1342.24,-105.75 1308.98,-89.66 1285.64,-78.38"/>
<polygon fill="#63b8ff" stroke="#63b8ff" points="1287.14,-75.22 1276.62,-74.02 1284.1,-81.52 1287.14,-75.22"/>
</g>
<!-- Node30&#45;&gt;Node29 -->
<g id="edge56" class="edge">
<title>Node30&#45;&gt;Node29</title>
<path fill="none" stroke="#63b8ff" d="M1347.87,-115.5C1339.79,-113.53 1331.11,-111.55 1323,-110 1225.06,-91.24 1108.86,-77.12 1046.64,-70.22"/>
<polygon fill="#63b8ff" stroke="#63b8ff" points="1046.72,-66.7 1036.4,-69.09 1045.95,-73.66 1046.72,-66.7"/>
</g>
<!-- Node31 -->
<g id="node31" class="node">
<title>Node31</title>
<g id="a_node31"><a xlink:title=" ">
<polygon fill="#e0e0e0" stroke="#999999" points="1203.5,-74 1092.5,-74 1092.5,-55 1203.5,-55 1203.5,-74"/>
<text text-anchor="middle" x="1148" y="-62" font-family="Helvetica,sans-Serif" font-size="10.00">BLECharacteristic.h</text>
</a>
</g>
</g>
<!-- Node30&#45;&gt;Node31 -->
<g id="edge54" class="edge">
<title>Node30&#45;&gt;Node31</title>
<path fill="none" stroke="#63b8ff" d="M1346.27,-115.49C1305.37,-105.18 1236.38,-87.78 1191.52,-76.47"/>
<polygon fill="#63b8ff" stroke="#63b8ff" points="1192.33,-73.07 1181.78,-74.02 1190.62,-79.86 1192.33,-73.07"/>
</g>
<!-- Node32 -->
<g id="node32" class="node">
<title>Node32</title>
<g id="a_node32"><a xlink:href="tones_8h.html" target="_top" xlink:title="Audio control for the onboard piezo buzzer.">
<polygon fill="white" stroke="#666666" points="1445.5,-74 1314.5,-74 1314.5,-55 1445.5,-55 1445.5,-74"/>
<text text-anchor="middle" x="1380" y="-62" font-family="Helvetica,sans-Serif" font-size="10.00">audio&#45;feedback/tones.h</text>
</a>
</g>
</g>
<!-- Node30&#45;&gt;Node32 -->
<g id="edge57" class="edge">
<title>Node30&#45;&gt;Node32</title>
<path fill="none" stroke="#63b8ff" d="M1380,-115.37C1380,-107.25 1380,-94.81 1380,-84.39"/>
<polygon fill="#63b8ff" stroke="#63b8ff" points="1383.5,-84.17 1380,-74.17 1376.5,-84.17 1383.5,-84.17"/>
</g>
<!-- Node32&#45;&gt;Node5 -->
<g id="edge58" class="edge">
<title>Node32&#45;&gt;Node5</title>
<path fill="none" stroke="#63b8ff" d="M1314.13,-55.57C1222.31,-44.51 1058.52,-24.78 981.8,-15.54"/>
<polygon fill="#63b8ff" stroke="#63b8ff" points="981.92,-12.02 971.57,-14.3 981.08,-18.97 981.92,-12.02"/>
</g>
<!-- Node33&#45;&gt;Node5 -->
<g id="edge61" class="edge">
<title>Node33&#45;&gt;Node5</title>
<path fill="none" stroke="#63b8ff" d="M1152.13,-115.38C1129.94,-101.75 1084.88,-74.74 1045,-55 1020.95,-43.1 992.93,-31.32 971.89,-22.88"/>
<polygon fill="#63b8ff" stroke="#63b8ff" points="973.05,-19.57 962.46,-19.13 970.46,-26.08 973.05,-19.57"/>
</g>
<!-- Node33&#45;&gt;Node27 -->
<g id="edge63" class="edge">
<title>Node33&#45;&gt;Node27</title>
<path fill="none" stroke="#63b8ff" d="M1179.72,-115.37C1194.7,-105.95 1218.89,-90.73 1236.62,-79.58"/>
<polygon fill="#63b8ff" stroke="#63b8ff" points="1238.62,-82.45 1245.22,-74.17 1234.89,-76.53 1238.62,-82.45"/>
</g>
<!-- Node33&#45;&gt;Node29 -->
<g id="edge64" class="edge">
<title>Node33&#45;&gt;Node29</title>
<path fill="none" stroke="#63b8ff" d="M1142.15,-115.49C1114.1,-105.49 1067.33,-88.8 1035.6,-77.49"/>
<polygon fill="#63b8ff" stroke="#63b8ff" points="1036.47,-74.08 1025.88,-74.02 1034.12,-80.67 1036.47,-74.08"/>
</g>
<!-- Node33&#45;&gt;Node31 -->
<g id="edge62" class="edge">
<title>Node33&#45;&gt;Node31</title>
<path fill="none" stroke="#63b8ff" d="M1163.34,-115.37C1160.82,-107.16 1156.94,-94.54 1153.71,-84.05"/>
<polygon fill="#63b8ff" stroke="#63b8ff" points="1156.95,-82.7 1150.67,-74.17 1150.26,-84.75 1156.95,-82.7"/>
</g>
<!-- Node34&#45;&gt;Node5 -->
<g id="edge66" class="edge">
<title>Node34&#45;&gt;Node5</title>
<path fill="none" stroke="#63b8ff" d="M971.34,-115.15C968.34,-105.16 963.32,-88.41 959,-74 954.45,-58.82 949.3,-41.61 945.51,-28.93"/>
<polygon fill="#63b8ff" stroke="#63b8ff" points="948.8,-27.71 942.58,-19.13 942.09,-29.71 948.8,-27.71"/>
</g>
<!-- Node34&#45;&gt;Node14 -->
<g id="edge71" class="edge">
<title>Node34&#45;&gt;Node14</title>
<path fill="none" stroke="#63b8ff" d="M942.88,-115.49C905.4,-105.25 842.32,-88 800.93,-76.69"/>
<polygon fill="#63b8ff" stroke="#63b8ff" points="801.72,-73.28 791.15,-74.02 799.88,-80.03 801.72,-73.28"/>
</g>
<!-- Node34&#45;&gt;Node16 -->
<g id="edge70" class="edge">
<title>Node34&#45;&gt;Node16</title>
<path fill="none" stroke="#63b8ff" d="M919.04,-115.49C850.59,-104.9 733.82,-86.83 661,-75.56"/>
<polygon fill="#63b8ff" stroke="#63b8ff" points="661.45,-72.09 651.03,-74.02 660.38,-79 661.45,-72.09"/>
</g>
<!-- Node34&#45;&gt;Node27 -->
<g id="edge68" class="edge">
<title>Node34&#45;&gt;Node27</title>
<path fill="none" stroke="#63b8ff" d="M1015.44,-115.49C1067.62,-104.78 1157.03,-86.43 1211.79,-75.19"/>
<polygon fill="#63b8ff" stroke="#63b8ff" points="1212.51,-78.62 1221.6,-73.18 1211.1,-71.76 1212.51,-78.62"/>
</g>
<!-- Node34&#45;&gt;Node29 -->
<g id="edge69" class="edge">
<title>Node34&#45;&gt;Node29</title>
<path fill="none" stroke="#63b8ff" d="M978.13,-115.37C982.14,-106.99 988.35,-94.01 993.44,-83.39"/>
<polygon fill="#63b8ff" stroke="#63b8ff" points="996.69,-84.7 997.85,-74.17 990.38,-81.68 996.69,-84.7"/>
</g>
<!-- Node34&#45;&gt;Node31 -->
<g id="edge67" class="edge">
<title>Node34&#45;&gt;Node31</title>
<path fill="none" stroke="#63b8ff" d="M999.3,-115.49C1029.2,-105.44 1079.12,-88.66 1112.78,-77.34"/>
<polygon fill="#63b8ff" stroke="#63b8ff" points="1114.31,-80.52 1122.67,-74.02 1112.07,-73.89 1114.31,-80.52"/>
</g>
<!-- Node35&#45;&gt;Node10 -->
<g id="edge78" class="edge">
<title>Node35&#45;&gt;Node10</title>
<path fill="none" stroke="#63b8ff" d="M930.07,-186.15C1054.6,-179.49 1307.65,-164.18 1521,-140 1532.91,-138.65 1545.65,-136.91 1557.74,-135.11"/>
<polygon fill="#63b8ff" stroke="#63b8ff" points="1558.34,-138.56 1567.7,-133.6 1557.29,-131.64 1558.34,-138.56"/>
</g>
<!-- Node35&#45;&gt;Node18 -->
<g id="edge74" class="edge">
<title>Node35&#45;&gt;Node18</title>
<path fill="none" stroke="#63b8ff" d="M809.33,-175.95C773.66,-164.48 723.84,-148.46 690.33,-137.68"/>
<polygon fill="#63b8ff" stroke="#63b8ff" points="691.07,-134.25 680.48,-134.52 688.93,-140.91 691.07,-134.25"/>
</g>
<!-- Node35&#45;&gt;Node19 -->
<g id="edge77" class="edge">
<title>Node35&#45;&gt;Node19</title>
<path fill="none" stroke="#63b8ff" d="M837.24,-175.8C826.07,-165.72 811.06,-152.19 799.51,-141.78"/>
<polygon fill="#63b8ff" stroke="#63b8ff" points="801.58,-138.94 791.81,-134.84 796.9,-144.14 801.58,-138.94"/>
</g>
<!-- Node35&#45;&gt;Node21 -->
<g id="edge75" class="edge">
<title>Node35&#45;&gt;Node21</title>
<path fill="none" stroke="#63b8ff" d="M775.74,-180.5C675.18,-168 508.94,-146.81 481,-140 478.34,-139.35 475.61,-138.59 472.89,-137.75"/>
<polygon fill="#63b8ff" stroke="#63b8ff" points="473.8,-134.37 463.21,-134.53 471.59,-141.01 473.8,-134.37"/>
</g>
<!-- Node35&#45;&gt;Node22 -->
<g id="edge76" class="edge">
<title>Node35&#45;&gt;Node22</title>
<path fill="none" stroke="#63b8ff" d="M775.87,-176.96C722.84,-167.62 650.9,-154.22 588,-140 583.93,-139.08 579.69,-138.06 575.47,-137.01"/>
<polygon fill="#63b8ff" stroke="#63b8ff" points="576.29,-133.61 565.74,-134.52 574.56,-140.39 576.29,-133.61"/>
</g>
<!-- Node36&#45;&gt;Node10 -->
<g id="edge80" class="edge">
<title>Node36&#45;&gt;Node10</title>
<path fill="none" stroke="#63b8ff" d="M1401.86,-175.91C1444.33,-165.9 1502.66,-152.14 1554,-140 1558.32,-138.98 1562.83,-137.91 1567.33,-136.84"/>
<polygon fill="#63b8ff" stroke="#63b8ff" points="1568.2,-140.23 1577.12,-134.52 1566.58,-133.42 1568.2,-140.23"/>
</g>
<!-- Node37&#45;&gt;Node10 -->
<g id="edge82" class="edge">
<title>Node37&#45;&gt;Node10</title>
<path fill="none" stroke="#63b8ff" d="M1529.48,-175.95C1547.5,-165.18 1572.24,-150.38 1590.11,-139.69"/>
<polygon fill="#63b8ff" stroke="#63b8ff" points="1591.97,-142.65 1598.76,-134.52 1588.38,-136.65 1591.97,-142.65"/>
</g>
</g>
</svg>
