<?xml version="1.0" encoding="UTF-8" standalone="no"?>
<!DOCTYPE svg PUBLIC "-//W3C//DTD SVG 1.1//EN"
 "http://www.w3.org/Graphics/SVG/1.1/DTD/svg11.dtd">
<!-- Generated by graphviz version 2.43.0 (0)
 -->
<!-- Title: firmware/wombat/src/cli/device_config/mqtt_cli.cpp Pages: 1 -->
<svg width="1486pt" height="456pt"
 viewBox="0.00 0.00 1485.81 456.00" xmlns="http://www.w3.org/2000/svg" xmlns:xlink="http://www.w3.org/1999/xlink">
<g id="graph0" class="graph" transform="scale(1 1) rotate(0) translate(4 452)">
<title>firmware/wombat/src/cli/device_config/mqtt_cli.cpp</title>
<!-- Node1 -->
<g id="node1" class="node">
<title>Node1</title>
<g id="a_node1"><a xlink:title="MQTT setup and configuration through the CLI.">
<polygon fill="#999999" stroke="#666666" points="1089.31,-448 962.31,-448 962.31,-407 1089.31,-407 1089.31,-448"/>
<text text-anchor="start" x="970.31" y="-436" font-family="Helvetica,sans-Serif" font-size="10.00">firmware/wombat/src</text>
<text text-anchor="start" x="970.31" y="-425" font-family="Helvetica,sans-Serif" font-size="10.00">/cli/device_config/mqtt</text>
<text text-anchor="middle" x="1025.81" y="-414" font-family="Helvetica,sans-Serif" font-size="10.00">_cli.cpp</text>
</a>
</g>
</g>
<!-- Node2 -->
<g id="node2" class="node">
<title>Node2</title>
<g id="a_node2"><a xlink:title=" ">
<polygon fill="#e0e0e0" stroke="#999999" points="1012.31,-250 899.31,-250 899.31,-231 1012.31,-231 1012.31,-250"/>
<text text-anchor="middle" x="955.81" y="-238" font-family="Helvetica,sans-Serif" font-size="10.00">freertos/FreeRTOS.h</text>
</a>
</g>
</g>
<!-- Node1&#45;&gt;Node2 -->
<g id="edge1" class="edge">
<title>Node1&#45;&gt;Node2</title>
<path fill="none" stroke="#63b8ff" d="M1022.23,-406.72C1016.74,-378.87 1004.84,-326.93 985.81,-286 981.3,-276.3 974.8,-266.35 969,-258.33"/>
<polygon fill="#63b8ff" stroke="#63b8ff" points="971.7,-256.1 962.9,-250.2 966.11,-260.3 971.7,-256.1"/>
</g>
<!-- Node3 -->
<g id="node3" class="node">
<title>Node3</title>
<g id="a_node3"><a xlink:title=" ">
<polygon fill="#e0e0e0" stroke="#999999" points="1091.31,-250 1030.31,-250 1030.31,-231 1091.31,-231 1091.31,-250"/>
<text text-anchor="middle" x="1060.81" y="-238" font-family="Helvetica,sans-Serif" font-size="10.00">Stream.h</text>
</a>
</g>
</g>
<!-- Node1&#45;&gt;Node3 -->
<g id="edge2" class="edge">
<title>Node1&#45;&gt;Node3</title>
<path fill="none" stroke="#63b8ff" d="M1089.61,-422.11C1157.81,-413.61 1262.87,-388.74 1312.81,-316 1320.35,-305.01 1321.38,-296.22 1312.81,-286 1299.39,-270.01 1169.85,-253.51 1101.92,-245.87"/>
<polygon fill="#63b8ff" stroke="#63b8ff" points="1101.9,-242.35 1091.57,-244.72 1101.13,-249.31 1101.9,-242.35"/>
</g>
<!-- Node4 -->
<g id="node4" class="node">
<title>Node4</title>
<g id="a_node4"><a xlink:title=" ">
<polygon fill="#e0e0e0" stroke="#999999" points="1237.31,-250 1148.31,-250 1148.31,-231 1237.31,-231 1237.31,-250"/>
<text text-anchor="middle" x="1192.81" y="-238" font-family="Helvetica,sans-Serif" font-size="10.00">StreamString.h</text>
</a>
</g>
</g>
<!-- Node1&#45;&gt;Node4 -->
<g id="edge3" class="edge">
<title>Node1&#45;&gt;Node4</title>
<path fill="none" stroke="#63b8ff" d="M1089.36,-423.11C1142.95,-417.88 1220.06,-404.6 1278.81,-371 1307.74,-354.45 1317.63,-347.03 1329.81,-316 1334.68,-303.59 1337.64,-296.79 1329.81,-286 1311.07,-260.21 1277.02,-249.07 1247.56,-244.39"/>
<polygon fill="#63b8ff" stroke="#63b8ff" points="1247.75,-240.88 1237.36,-242.98 1246.79,-247.81 1247.75,-240.88"/>
</g>
<!-- Node5 -->
<g id="node5" class="node">
<title>Node5</title>
<g id="a_node5"><a xlink:title=" ">
<polygon fill="#e0e0e0" stroke="#999999" points="776.31,-250 669.31,-250 669.31,-231 776.31,-231 776.31,-250"/>
<text text-anchor="middle" x="722.81" y="-238" font-family="Helvetica,sans-Serif" font-size="10.00">cli/FreeRTOS_CLI.h</text>
</a>
</g>
</g>
<!-- Node1&#45;&gt;Node5 -->
<g id="edge4" class="edge">
<title>Node1&#45;&gt;Node5</title>
<path fill="none" stroke="#63b8ff" d="M962.29,-422.73C777.66,-411.15 250.94,-373.3 200.81,-316 192.03,-305.97 191.79,-295.82 200.81,-286 204.65,-281.82 520.31,-257.07 658.83,-246.4"/>
<polygon fill="#63b8ff" stroke="#63b8ff" points="659.19,-249.88 668.89,-245.62 658.65,-242.9 659.19,-249.88"/>
</g>
<!-- Node6 -->
<g id="node6" class="node">
<title>Node6</title>
<g id="a_node6"><a xlink:href="_c_l_i_8h.html" target="_top" xlink:title="FreeRTOS CLI handler.">
<polygon fill="white" stroke="#666666" points="677.31,-371 622.31,-371 622.31,-352 677.31,-352 677.31,-371"/>
<text text-anchor="middle" x="649.81" y="-359" font-family="Helvetica,sans-Serif" font-size="10.00">cli/CLI.h</text>
</a>
</g>
</g>
<!-- Node1&#45;&gt;Node6 -->
<g id="edge5" class="edge">
<title>Node1&#45;&gt;Node6</title>
<path fill="none" stroke="#63b8ff" d="M962.02,-415.64C883.23,-402.23 751.75,-379.85 687.48,-368.91"/>
<polygon fill="#63b8ff" stroke="#63b8ff" points="687.84,-365.42 677.4,-367.2 686.67,-372.32 687.84,-365.42"/>
</g>
<!-- Node24 -->
<g id="node24" class="node">
<title>Node24</title>
<g id="a_node24"><a xlink:href="mqtt__cli_8h.html" target="_top" xlink:title="MQTT setup and configuration through the CLI.">
<polygon fill="white" stroke="#666666" points="153.81,-316 29.81,-316 29.81,-286 153.81,-286 153.81,-316"/>
<text text-anchor="start" x="37.81" y="-304" font-family="Helvetica,sans-Serif" font-size="10.00">cli/device_config/mqtt</text>
<text text-anchor="middle" x="91.81" y="-293" font-family="Helvetica,sans-Serif" font-size="10.00">_cli.h</text>
</a>
</g>
</g>
<!-- Node1&#45;&gt;Node24 -->
<g id="edge56" class="edge">
<title>Node1&#45;&gt;Node24</title>
<path fill="none" stroke="#63b8ff" d="M961.98,-424.8C775.53,-419.48 240.26,-401.71 167.81,-371 144.05,-360.93 122.86,-340.19 108.93,-324.06"/>
<polygon fill="#63b8ff" stroke="#63b8ff" points="111.42,-321.58 102.33,-316.13 106.04,-326.05 111.42,-321.58"/>
</g>
<!-- Node27 -->
<g id="node27" class="node">
<title>Node27</title>
<g id="a_node27"><a xlink:href="mqtt__stack_8h.html" target="_top" xlink:title=" ">
<polygon fill="white" stroke="#666666" points="1477.81,-371 1397.81,-371 1397.81,-352 1477.81,-352 1477.81,-371"/>
<text text-anchor="middle" x="1437.81" y="-359" font-family="Helvetica,sans-Serif" font-size="10.00">mqtt_stack.h</text>
</a>
</g>
</g>
<!-- Node1&#45;&gt;Node27 -->
<g id="edge57" class="edge">
<title>Node1&#45;&gt;Node27</title>
<path fill="none" stroke="#63b8ff" d="M1089.51,-416.67C1161.11,-405.61 1280.81,-387.09 1383.81,-371 1385.07,-370.8 1386.35,-370.6 1387.65,-370.4"/>
<polygon fill="#63b8ff" stroke="#63b8ff" points="1388.37,-373.83 1397.7,-368.82 1387.28,-366.91 1388.37,-373.83"/>
</g>
<!-- Node6&#45;&gt;Node2 -->
<g id="edge7" class="edge">
<title>Node6&#45;&gt;Node2</title>
<path fill="none" stroke="#63b8ff" d="M677.49,-361.05C747.92,-361.78 931.04,-359.4 968.81,-316 982.37,-300.42 974.35,-275.85 966.15,-259.22"/>
<polygon fill="#63b8ff" stroke="#63b8ff" points="969.04,-257.2 961.22,-250.05 962.87,-260.51 969.04,-257.2"/>
</g>
<!-- Node6&#45;&gt;Node5 -->
<g id="edge8" class="edge">
<title>Node6&#45;&gt;Node5</title>
<path fill="none" stroke="#63b8ff" d="M621.96,-355.92C574.89,-347 487.63,-324.72 518.81,-286 536.22,-264.38 605.79,-252.71 658.89,-246.81"/>
<polygon fill="#63b8ff" stroke="#63b8ff" points="659.36,-250.28 668.94,-245.74 658.62,-243.32 659.36,-250.28"/>
</g>
<!-- Node7 -->
<g id="node7" class="node">
<title>Node7</title>
<g id="a_node7"><a xlink:title=" ">
<polygon fill="#e0e0e0" stroke="#999999" points="438.31,-19 375.31,-19 375.31,0 438.31,0 438.31,-19"/>
<text text-anchor="middle" x="406.81" y="-7" font-family="Helvetica,sans-Serif" font-size="10.00">Arduino.h</text>
</a>
</g>
</g>
<!-- Node6&#45;&gt;Node7 -->
<g id="edge6" class="edge">
<title>Node6&#45;&gt;Node7</title>
<path fill="none" stroke="#63b8ff" d="M621.94,-360.41C506.21,-359.81 67.44,-354.95 20.81,-316 -5.42,-294.09 1.81,-275.67 1.81,-241.5 1.81,-241.5 1.81,-241.5 1.81,-124 1.81,-49.17 261.41,-21.41 364.93,-13.31"/>
<polygon fill="#63b8ff" stroke="#63b8ff" points="365.32,-16.79 375.03,-12.55 364.79,-9.81 365.32,-16.79"/>
</g>
<!-- Node8 -->
<g id="node8" class="node">
<title>Node8</title>
<g id="a_node8"><a xlink:href="cat-m1_8h.html" target="_top" xlink:title="CAT&#45;M1 CLI command request and response handler.">
<polygon fill="white" stroke="#666666" points="1303.81,-310.5 1171.81,-310.5 1171.81,-291.5 1303.81,-291.5 1303.81,-310.5"/>
<text text-anchor="middle" x="1237.81" y="-298.5" font-family="Helvetica,sans-Serif" font-size="10.00">cli/peripherals/cat&#45;m1.h</text>
</a>
</g>
</g>
<!-- Node6&#45;&gt;Node8 -->
<g id="edge9" class="edge">
<title>Node6&#45;&gt;Node8</title>
<path fill="none" stroke="#63b8ff" d="M677.44,-359.06C754.52,-354.83 978.34,-341.16 1162.81,-316 1170.47,-314.96 1178.53,-313.66 1186.42,-312.28"/>
<polygon fill="#63b8ff" stroke="#63b8ff" points="1187.05,-315.72 1196.27,-310.5 1185.81,-308.84 1187.05,-315.72"/>
</g>
<!-- Node12 -->
<g id="node12" class="node">
<title>Node12</title>
<g id="a_node12"><a xlink:href="sdi12_8h.html" target="_top" xlink:title="SDI&#45;12 command line interface handler.">
<polygon fill="white" stroke="#666666" points="941.81,-310.5 817.81,-310.5 817.81,-291.5 941.81,-291.5 941.81,-310.5"/>
<text text-anchor="middle" x="879.81" y="-298.5" font-family="Helvetica,sans-Serif" font-size="10.00">cli/peripherals/sdi12.h</text>
</a>
</g>
</g>
<!-- Node6&#45;&gt;Node12 -->
<g id="edge19" class="edge">
<title>Node6&#45;&gt;Node12</title>
<path fill="none" stroke="#63b8ff" d="M677.55,-353.44C717.07,-343.39 789.92,-324.86 836.56,-313"/>
<polygon fill="#63b8ff" stroke="#63b8ff" points="837.55,-316.36 846.38,-310.5 835.83,-309.57 837.55,-316.36"/>
</g>
<!-- Node19 -->
<g id="node19" class="node">
<title>Node19</title>
<g id="a_node19"><a xlink:href="cli__power_8h.html" target="_top" xlink:title=" ">
<polygon fill="white" stroke="#666666" points="1153.81,-316 1053.81,-316 1053.81,-286 1153.81,-286 1153.81,-316"/>
<text text-anchor="start" x="1061.81" y="-304" font-family="Helvetica,sans-Serif" font-size="10.00">cli/peripherals/cli</text>
<text text-anchor="middle" x="1103.81" y="-293" font-family="Helvetica,sans-Serif" font-size="10.00">_power.h</text>
</a>
</g>
</g>
<!-- Node6&#45;&gt;Node19 -->
<g id="edge33" class="edge">
<title>Node6&#45;&gt;Node19</title>
<path fill="none" stroke="#63b8ff" d="M677.65,-357.08C737.18,-349.75 881.2,-331.9 1001.81,-316 1015.29,-314.22 1029.77,-312.26 1043.47,-310.39"/>
<polygon fill="#63b8ff" stroke="#63b8ff" points="1044.33,-313.81 1053.76,-308.98 1043.37,-306.87 1044.33,-313.81"/>
</g>
<!-- Node20 -->
<g id="node20" class="node">
<title>Node20</title>
<g id="a_node20"><a xlink:href="sd__card_8h.html" target="_top" xlink:title=" ">
<polygon fill="white" stroke="#666666" points="627.81,-316 527.81,-316 527.81,-286 627.81,-286 627.81,-316"/>
<text text-anchor="start" x="535.81" y="-304" font-family="Helvetica,sans-Serif" font-size="10.00">cli/peripherals/sd</text>
<text text-anchor="middle" x="577.81" y="-293" font-family="Helvetica,sans-Serif" font-size="10.00">_card.h</text>
</a>
</g>
</g>
<!-- Node6&#45;&gt;Node20 -->
<g id="edge39" class="edge">
<title>Node6&#45;&gt;Node20</title>
<path fill="none" stroke="#63b8ff" d="M639.18,-351.87C629.68,-344.15 615.39,-332.54 602.99,-322.46"/>
<polygon fill="#63b8ff" stroke="#63b8ff" points="605.15,-319.7 595.18,-316.11 600.73,-325.14 605.15,-319.7"/>
</g>
<!-- Node22 -->
<g id="node22" class="node">
<title>Node22</title>
<g id="a_node22"><a xlink:href="acquisition__intervals_8h.html" target="_top" xlink:title="Handles the time between measurements and uplinks by the device over LTE.">
<polygon fill="white" stroke="#666666" points="799.81,-316 645.81,-316 645.81,-286 799.81,-286 799.81,-316"/>
<text text-anchor="start" x="653.81" y="-304" font-family="Helvetica,sans-Serif" font-size="10.00">cli/device_config/acquisition</text>
<text text-anchor="middle" x="722.81" y="-293" font-family="Helvetica,sans-Serif" font-size="10.00">_intervals.h</text>
</a>
</g>
</g>
<!-- Node6&#45;&gt;Node22 -->
<g id="edge42" class="edge">
<title>Node6&#45;&gt;Node22</title>
<path fill="none" stroke="#63b8ff" d="M660.58,-351.87C670.21,-344.15 684.7,-332.54 697.28,-322.46"/>
<polygon fill="#63b8ff" stroke="#63b8ff" points="699.58,-325.1 705.19,-316.11 695.2,-319.64 699.58,-325.1"/>
</g>
<!-- Node6&#45;&gt;Node24 -->
<g id="edge50" class="edge">
<title>Node6&#45;&gt;Node24</title>
<path fill="none" stroke="#63b8ff" d="M622.19,-358.04C551.83,-351.72 360.17,-334.13 200.81,-316 188.96,-314.65 176.4,-313.13 164.18,-311.59"/>
<polygon fill="#63b8ff" stroke="#63b8ff" points="164.38,-308.09 154.02,-310.31 163.5,-315.04 164.38,-308.09"/>
</g>
<!-- Node25 -->
<g id="node25" class="node">
<title>Node25</title>
<g id="a_node25"><a xlink:href="ftp__cli_8h.html" target="_top" xlink:title="FTP setup and configuration through the CLI.">
<polygon fill="white" stroke="#666666" points="323.31,-316 210.31,-316 210.31,-286 323.31,-286 323.31,-316"/>
<text text-anchor="start" x="218.31" y="-304" font-family="Helvetica,sans-Serif" font-size="10.00">cli/device_config/ftp</text>
<text text-anchor="middle" x="266.81" y="-293" font-family="Helvetica,sans-Serif" font-size="10.00">_cli.h</text>
</a>
</g>
</g>
<!-- Node6&#45;&gt;Node25 -->
<g id="edge52" class="edge">
<title>Node6&#45;&gt;Node25</title>
<path fill="none" stroke="#63b8ff" d="M622.14,-357.27C568.5,-350.88 446.44,-335.64 333.49,-316.04"/>
<polygon fill="#63b8ff" stroke="#63b8ff" points="334.09,-312.59 323.64,-314.32 332.89,-319.49 334.09,-312.59"/>
</g>
<!-- Node26 -->
<g id="node26" class="node">
<title>Node26</title>
<g id="a_node26"><a xlink:href="config__cli_8h.html" target="_top" xlink:title=" ">
<polygon fill="white" stroke="#666666" points="471.81,-316 341.81,-316 341.81,-286 471.81,-286 471.81,-316"/>
<text text-anchor="start" x="349.81" y="-304" font-family="Helvetica,sans-Serif" font-size="10.00">cli/device_config/config</text>
<text text-anchor="middle" x="406.81" y="-293" font-family="Helvetica,sans-Serif" font-size="10.00">_cli.h</text>
</a>
</g>
</g>
<!-- Node6&#45;&gt;Node26 -->
<g id="edge54" class="edge">
<title>Node6&#45;&gt;Node26</title>
<path fill="none" stroke="#63b8ff" d="M621.93,-353.79C586.36,-345.23 523.62,-330.12 475.04,-318.43"/>
<polygon fill="#63b8ff" stroke="#63b8ff" points="475.76,-315 465.22,-316.06 474.12,-321.81 475.76,-315"/>
</g>
<!-- Node8&#45;&gt;Node2 -->
<g id="edge10" class="edge">
<title>Node8&#45;&gt;Node2</title>
<path fill="none" stroke="#63b8ff" d="M1196.8,-291.49C1146.47,-281.05 1061.11,-263.35 1006.65,-252.05"/>
<polygon fill="#63b8ff" stroke="#63b8ff" points="1007.36,-248.62 996.86,-250.02 1005.94,-255.48 1007.36,-248.62"/>
</g>
<!-- Node8&#45;&gt;Node3 -->
<g id="edge11" class="edge">
<title>Node8&#45;&gt;Node3</title>
<path fill="none" stroke="#63b8ff" d="M1212.07,-291.49C1181.53,-281.4 1130.44,-264.51 1096.19,-253.19"/>
<polygon fill="#63b8ff" stroke="#63b8ff" points="1097.17,-249.83 1086.57,-250.02 1094.97,-256.48 1097.17,-249.83"/>
</g>
<!-- Node8&#45;&gt;Node4 -->
<g id="edge12" class="edge">
<title>Node8&#45;&gt;Node4</title>
<path fill="none" stroke="#63b8ff" d="M1231.17,-291.37C1224.52,-282.73 1214.12,-269.2 1205.82,-258.42"/>
<polygon fill="#63b8ff" stroke="#63b8ff" points="1208.35,-255.96 1199.47,-250.17 1202.8,-260.23 1208.35,-255.96"/>
</g>
<!-- Node8&#45;&gt;Node5 -->
<g id="edge13" class="edge">
<title>Node8&#45;&gt;Node5</title>
<path fill="none" stroke="#63b8ff" d="M1195.87,-291.49C1185.12,-289.49 1173.56,-287.51 1162.81,-286 999.31,-262.98 954.71,-269.01 786.35,-250.01"/>
<polygon fill="#63b8ff" stroke="#63b8ff" points="786.74,-246.53 776.41,-248.88 785.94,-253.49 786.74,-246.53"/>
</g>
<!-- Node9 -->
<g id="node9" class="node">
<title>Node9</title>
<g id="a_node9"><a xlink:href="_c_a_t___m1_8h.html" target="_top" xlink:title=" ">
<polygon fill="white" stroke="#666666" points="1059.31,-134.5 994.31,-134.5 994.31,-115.5 1059.31,-115.5 1059.31,-134.5"/>
<text text-anchor="middle" x="1026.81" y="-122.5" font-family="Helvetica,sans-Serif" font-size="10.00">CAT_M1.h</text>
</a>
</g>
</g>
<!-- Node8&#45;&gt;Node9 -->
<g id="edge14" class="edge">
<title>Node8&#45;&gt;Node9</title>
<path fill="none" stroke="#63b8ff" d="M1242.36,-291.16C1248.83,-277.22 1258.67,-249.8 1246.81,-231 1207.86,-169.25 1121.51,-143.05 1069.32,-132.52"/>
<polygon fill="#63b8ff" stroke="#63b8ff" points="1069.85,-129.05 1059.37,-130.62 1068.53,-135.93 1069.85,-129.05"/>
</g>
<!-- Node10 -->
<g id="node10" class="node">
<title>Node10</title>
<g id="a_node10"><a xlink:title=" ">
<polygon fill="#e0e0e0" stroke="#999999" points="1019.81,-19 971.81,-19 971.81,0 1019.81,0 1019.81,-19"/>
<text text-anchor="middle" x="995.81" y="-7" font-family="Helvetica,sans-Serif" font-size="10.00">Wire.h</text>
</a>
</g>
</g>
<!-- Node9&#45;&gt;Node10 -->
<g id="edge15" class="edge">
<title>Node9&#45;&gt;Node10</title>
<path fill="none" stroke="#63b8ff" d="M1024.48,-115.47C1019.47,-97.15 1007.6,-53.68 1000.81,-28.81"/>
<polygon fill="#63b8ff" stroke="#63b8ff" points="1004.17,-27.85 998.16,-19.13 997.42,-29.7 1004.17,-27.85"/>
</g>
<!-- Node11 -->
<g id="node11" class="node">
<title>Node11</title>
<g id="a_node11"><a xlink:href="_t_c_a9534_8h.html" target="_top" xlink:title=" ">
<polygon fill="white" stroke="#666666" points="998.81,-74 930.81,-74 930.81,-55 998.81,-55 998.81,-74"/>
<text text-anchor="middle" x="964.81" y="-62" font-family="Helvetica,sans-Serif" font-size="10.00">TCA9534.h</text>
</a>
</g>
</g>
<!-- Node9&#45;&gt;Node11 -->
<g id="edge16" class="edge">
<title>Node9&#45;&gt;Node11</title>
<path fill="none" stroke="#63b8ff" d="M1017.66,-115.37C1008.13,-106.38 993.01,-92.11 981.38,-81.14"/>
<polygon fill="#63b8ff" stroke="#63b8ff" points="983.67,-78.48 973.99,-74.17 978.86,-83.58 983.67,-78.48"/>
</g>
<!-- Node11&#45;&gt;Node7 -->
<g id="edge17" class="edge">
<title>Node11&#45;&gt;Node7</title>
<path fill="none" stroke="#63b8ff" d="M930.74,-60.26C833.42,-51.02 554.35,-24.51 448.34,-14.44"/>
<polygon fill="#63b8ff" stroke="#63b8ff" points="448.62,-10.96 438.34,-13.49 447.96,-17.92 448.62,-10.96"/>
</g>
<!-- Node11&#45;&gt;Node10 -->
<g id="edge18" class="edge">
<title>Node11&#45;&gt;Node10</title>
<path fill="none" stroke="#63b8ff" d="M969.93,-54.75C974.17,-47.49 980.33,-36.95 985.58,-27.98"/>
<polygon fill="#63b8ff" stroke="#63b8ff" points="988.76,-29.49 990.78,-19.09 982.71,-25.95 988.76,-29.49"/>
</g>
<!-- Node12&#45;&gt;Node2 -->
<g id="edge20" class="edge">
<title>Node12&#45;&gt;Node2</title>
<path fill="none" stroke="#63b8ff" d="M891.02,-291.37C902.92,-282.21 921.95,-267.56 936.31,-256.51"/>
<polygon fill="#63b8ff" stroke="#63b8ff" points="938.76,-259.04 944.55,-250.17 934.49,-253.49 938.76,-259.04"/>
</g>
<!-- Node12&#45;&gt;Node3 -->
<g id="edge21" class="edge">
<title>Node12&#45;&gt;Node3</title>
<path fill="none" stroke="#63b8ff" d="M906.13,-291.49C937.36,-281.4 989.6,-264.51 1024.63,-253.19"/>
<polygon fill="#63b8ff" stroke="#63b8ff" points="1026.02,-256.42 1034.46,-250.02 1023.86,-249.76 1026.02,-256.42"/>
</g>
<!-- Node12&#45;&gt;Node4 -->
<g id="edge22" class="edge">
<title>Node12&#45;&gt;Node4</title>
<path fill="none" stroke="#63b8ff" d="M925.32,-291.49C981.74,-280.95 1077.8,-262.99 1138.15,-251.72"/>
<polygon fill="#63b8ff" stroke="#63b8ff" points="1139.07,-255.1 1148.25,-249.83 1137.78,-248.22 1139.07,-255.1"/>
</g>
<!-- Node12&#45;&gt;Node5 -->
<g id="edge25" class="edge">
<title>Node12&#45;&gt;Node5</title>
<path fill="none" stroke="#63b8ff" d="M856.98,-291.49C830.23,-281.53 785.73,-264.95 755.37,-253.63"/>
<polygon fill="#63b8ff" stroke="#63b8ff" points="756.26,-250.23 745.66,-250.02 753.81,-256.79 756.26,-250.23"/>
</g>
<!-- Node12&#45;&gt;Node12 -->
<g id="edge23" class="edge">
<title>Node12&#45;&gt;Node12</title>
<path fill="none" stroke="#63b8ff" d="M909.35,-310.53C934.02,-314.61 959.81,-311.43 959.81,-301 959.81,-292 940.59,-288.4 919.46,-290.2"/>
<polygon fill="#63b8ff" stroke="#63b8ff" points="918.83,-286.75 909.35,-291.47 919.7,-293.7 918.83,-286.75"/>
</g>
<!-- Node13 -->
<g id="node13" class="node">
<title>Node13</title>
<g id="a_node13"><a xlink:title=" ">
<polygon fill="#e0e0e0" stroke="#999999" points="960.31,-195 867.31,-195 867.31,-176 960.31,-176 960.31,-195"/>
<text text-anchor="middle" x="913.81" y="-183" font-family="Helvetica,sans-Serif" font-size="10.00">dpiclimate&#45;12.h</text>
</a>
</g>
</g>
<!-- Node12&#45;&gt;Node13 -->
<g id="edge24" class="edge">
<title>Node12&#45;&gt;Node13</title>
<path fill="none" stroke="#63b8ff" d="M880.1,-291.28C880.75,-277.97 882.89,-251.92 889.81,-231 892.9,-221.64 897.9,-211.92 902.54,-203.97"/>
<polygon fill="#63b8ff" stroke="#63b8ff" points="905.62,-205.64 907.86,-195.28 899.65,-201.98 905.62,-205.64"/>
</g>
<!-- Node14 -->
<g id="node14" class="node">
<title>Node14</title>
<g id="a_node14"><a xlink:href="_utils_8h.html" target="_top" xlink:title=" ">
<polygon fill="white" stroke="#666666" points="842.81,-250 794.81,-250 794.81,-231 842.81,-231 842.81,-250"/>
<text text-anchor="middle" x="818.81" y="-238" font-family="Helvetica,sans-Serif" font-size="10.00">Utils.h</text>
</a>
</g>
</g>
<!-- Node12&#45;&gt;Node14 -->
<g id="edge26" class="edge">
<title>Node12&#45;&gt;Node14</title>
<path fill="none" stroke="#63b8ff" d="M870.81,-291.37C861.44,-282.38 846.56,-268.11 835.11,-257.14"/>
<polygon fill="#63b8ff" stroke="#63b8ff" points="837.48,-254.56 827.84,-250.17 832.64,-259.62 837.48,-254.56"/>
</g>
<!-- Node14&#45;&gt;Node13 -->
<g id="edge29" class="edge">
<title>Node14&#45;&gt;Node13</title>
<path fill="none" stroke="#63b8ff" d="M834.07,-230.98C848.94,-222.69 871.79,-209.94 889.22,-200.22"/>
<polygon fill="#63b8ff" stroke="#63b8ff" points="891.24,-203.1 898.27,-195.17 887.83,-196.99 891.24,-203.1"/>
</g>
<!-- Node15 -->
<g id="node15" class="node">
<title>Node15</title>
<g id="a_node15"><a xlink:title=" ">
<polygon fill="#e0e0e0" stroke="#999999" points="769.81,-195 713.81,-195 713.81,-176 769.81,-176 769.81,-195"/>
<text text-anchor="middle" x="741.81" y="-183" font-family="Helvetica,sans-Serif" font-size="10.00">stddef.h</text>
</a>
</g>
</g>
<!-- Node14&#45;&gt;Node15 -->
<g id="edge27" class="edge">
<title>Node14&#45;&gt;Node15</title>
<path fill="none" stroke="#63b8ff" d="M806.44,-230.98C794.72,-222.92 776.89,-210.65 762.92,-201.03"/>
<polygon fill="#63b8ff" stroke="#63b8ff" points="764.62,-197.96 754.4,-195.17 760.66,-203.72 764.62,-197.96"/>
</g>
<!-- Node16 -->
<g id="node16" class="node">
<title>Node16</title>
<g id="a_node16"><a xlink:title=" ">
<polygon fill="#e0e0e0" stroke="#999999" points="607.31,-195 524.31,-195 524.31,-176 607.31,-176 607.31,-195"/>
<text text-anchor="middle" x="565.81" y="-183" font-family="Helvetica,sans-Serif" font-size="10.00">ArduinoJson.h</text>
</a>
</g>
</g>
<!-- Node14&#45;&gt;Node16 -->
<g id="edge28" class="edge">
<title>Node14&#45;&gt;Node16</title>
<path fill="none" stroke="#63b8ff" d="M794.69,-233.33C791.38,-232.52 788.01,-231.73 784.81,-231 727.76,-218.08 661.95,-204.94 617.49,-196.33"/>
<polygon fill="#63b8ff" stroke="#63b8ff" points="617.98,-192.86 607.5,-194.4 616.66,-199.73 617.98,-192.86"/>
</g>
<!-- Node17 -->
<g id="node17" class="node">
<title>Node17</title>
<g id="a_node17"><a xlink:href="globals_8h.html" target="_top" xlink:title=" ">
<polygon fill="white" stroke="#666666" points="849.31,-195 788.31,-195 788.31,-176 849.31,-176 849.31,-195"/>
<text text-anchor="middle" x="818.81" y="-183" font-family="Helvetica,sans-Serif" font-size="10.00">globals.h</text>
</a>
</g>
</g>
<!-- Node14&#45;&gt;Node17 -->
<g id="edge30" class="edge">
<title>Node14&#45;&gt;Node17</title>
<path fill="none" stroke="#63b8ff" d="M818.81,-230.75C818.81,-223.8 818.81,-213.85 818.81,-205.13"/>
<polygon fill="#63b8ff" stroke="#63b8ff" points="822.31,-205.09 818.81,-195.09 815.31,-205.09 822.31,-205.09"/>
</g>
<!-- Node17&#45;&gt;Node9 -->
<g id="edge32" class="edge">
<title>Node17&#45;&gt;Node9</title>
<path fill="none" stroke="#63b8ff" d="M849.05,-175.99C885.41,-165.77 946.53,-148.58 986.77,-137.26"/>
<polygon fill="#63b8ff" stroke="#63b8ff" points="987.85,-140.59 996.53,-134.52 985.95,-133.85 987.85,-140.59"/>
</g>
<!-- Node18 -->
<g id="node18" class="node">
<title>Node18</title>
<g id="a_node18"><a xlink:title=" ">
<polygon fill="#e0e0e0" stroke="#999999" points="883.81,-140 753.81,-140 753.81,-110 883.81,-110 883.81,-140"/>
<text text-anchor="start" x="761.81" y="-128" font-family="Helvetica,sans-Serif" font-size="10.00">SparkFun_u&#45;blox_SARA</text>
<text text-anchor="middle" x="818.81" y="-117" font-family="Helvetica,sans-Serif" font-size="10.00">&#45;R5_Arduino_Library.h</text>
</a>
</g>
</g>
<!-- Node17&#45;&gt;Node18 -->
<g id="edge31" class="edge">
<title>Node17&#45;&gt;Node18</title>
<path fill="none" stroke="#63b8ff" d="M818.81,-175.87C818.81,-169.11 818.81,-159.35 818.81,-150.26"/>
<polygon fill="#63b8ff" stroke="#63b8ff" points="822.31,-150.11 818.81,-140.11 815.31,-150.11 822.31,-150.11"/>
</g>
<!-- Node19&#45;&gt;Node2 -->
<g id="edge34" class="edge">
<title>Node19&#45;&gt;Node2</title>
<path fill="none" stroke="#63b8ff" d="M1068.36,-285.99C1043.66,-276.23 1011.03,-263.33 987.26,-253.93"/>
<polygon fill="#63b8ff" stroke="#63b8ff" points="988.25,-250.56 977.66,-250.14 985.68,-257.07 988.25,-250.56"/>
</g>
<!-- Node19&#45;&gt;Node3 -->
<g id="edge35" class="edge">
<title>Node19&#45;&gt;Node3</title>
<path fill="none" stroke="#63b8ff" d="M1093.4,-285.84C1087.35,-277.61 1079.68,-267.18 1073.31,-258.51"/>
<polygon fill="#63b8ff" stroke="#63b8ff" points="1075.99,-256.25 1067.25,-250.27 1070.35,-260.4 1075.99,-256.25"/>
</g>
<!-- Node19&#45;&gt;Node4 -->
<g id="edge36" class="edge">
<title>Node19&#45;&gt;Node4</title>
<path fill="none" stroke="#63b8ff" d="M1125.35,-285.84C1139.28,-276.68 1157.33,-264.82 1171.26,-255.66"/>
<polygon fill="#63b8ff" stroke="#63b8ff" points="1173.3,-258.51 1179.73,-250.09 1169.45,-252.66 1173.3,-258.51"/>
</g>
<!-- Node19&#45;&gt;Node5 -->
<g id="edge37" class="edge">
<title>Node19&#45;&gt;Node5</title>
<path fill="none" stroke="#63b8ff" d="M1053.61,-292.29C985,-281.76 861.91,-262.86 786.77,-251.32"/>
<polygon fill="#63b8ff" stroke="#63b8ff" points="786.91,-247.8 776.5,-249.74 785.85,-254.72 786.91,-247.8"/>
</g>
<!-- Node19&#45;&gt;Node9 -->
<g id="edge38" class="edge">
<title>Node19&#45;&gt;Node9</title>
<path fill="none" stroke="#63b8ff" d="M1105.47,-285.83C1106.62,-271.57 1107,-249.16 1100.81,-231 1088.65,-195.35 1060.33,-161.05 1042.46,-141.82"/>
<polygon fill="#63b8ff" stroke="#63b8ff" points="1044.96,-139.37 1035.52,-134.55 1039.89,-144.2 1044.96,-139.37"/>
</g>
<!-- Node20&#45;&gt;Node2 -->
<g id="edge40" class="edge">
<title>Node20&#45;&gt;Node2</title>
<path fill="none" stroke="#63b8ff" d="M627.95,-287.76C630.94,-287.14 633.91,-286.54 636.81,-286 723.4,-269.72 824.25,-256.63 889,-248.96"/>
<polygon fill="#63b8ff" stroke="#63b8ff" points="889.55,-252.42 899.07,-247.78 888.73,-245.47 889.55,-252.42"/>
</g>
<!-- Node21 -->
<g id="node21" class="node">
<title>Node21</title>
<g id="a_node21"><a xlink:title=" ">
<polygon fill="#e0e0e0" stroke="#999999" points="599.81,-250 555.81,-250 555.81,-231 599.81,-231 599.81,-250"/>
<text text-anchor="middle" x="577.81" y="-238" font-family="Helvetica,sans-Serif" font-size="10.00">string</text>
</a>
</g>
</g>
<!-- Node20&#45;&gt;Node21 -->
<g id="edge41" class="edge">
<title>Node20&#45;&gt;Node21</title>
<path fill="none" stroke="#63b8ff" d="M577.81,-285.84C577.81,-278.21 577.81,-268.7 577.81,-260.45"/>
<polygon fill="#63b8ff" stroke="#63b8ff" points="581.31,-260.27 577.81,-250.27 574.31,-260.27 581.31,-260.27"/>
</g>
<!-- Node22&#45;&gt;Node2 -->
<g id="edge43" class="edge">
<title>Node22&#45;&gt;Node2</title>
<path fill="none" stroke="#63b8ff" d="M778.62,-285.99C819.35,-275.76 873.82,-262.09 911.56,-252.61"/>
<polygon fill="#63b8ff" stroke="#63b8ff" points="912.89,-255.88 921.74,-250.05 911.19,-249.09 912.89,-255.88"/>
</g>
<!-- Node22&#45;&gt;Node3 -->
<g id="edge44" class="edge">
<title>Node22&#45;&gt;Node3</title>
<path fill="none" stroke="#63b8ff" d="M800.1,-287.28C874.22,-275.05 979.76,-257.54 1020.34,-250.16"/>
<polygon fill="#63b8ff" stroke="#63b8ff" points="1020.99,-253.6 1030.18,-248.32 1019.71,-246.72 1020.99,-253.6"/>
</g>
<!-- Node22&#45;&gt;Node4 -->
<g id="edge45" class="edge">
<title>Node22&#45;&gt;Node4</title>
<path fill="none" stroke="#63b8ff" d="M800.14,-287.24C803.06,-286.81 805.96,-286.4 808.81,-286 925.78,-269.71 1063.38,-254.79 1137.98,-247.05"/>
<polygon fill="#63b8ff" stroke="#63b8ff" points="1138.5,-250.52 1148.08,-246.01 1137.78,-243.55 1138.5,-250.52"/>
</g>
<!-- Node22&#45;&gt;Node5 -->
<g id="edge46" class="edge">
<title>Node22&#45;&gt;Node5</title>
<path fill="none" stroke="#63b8ff" d="M722.81,-285.84C722.81,-278.21 722.81,-268.7 722.81,-260.45"/>
<polygon fill="#63b8ff" stroke="#63b8ff" points="726.31,-260.27 722.81,-250.27 719.31,-260.27 726.31,-260.27"/>
</g>
<!-- Node23 -->
<g id="node23" class="node">
<title>Node23</title>
<g id="a_node23"><a xlink:href="_device_config_8h.html" target="_top" xlink:title="Node configuration options.">
<polygon fill="white" stroke="#666666" points="451.81,-250 361.81,-250 361.81,-231 451.81,-231 451.81,-250"/>
<text text-anchor="middle" x="406.81" y="-238" font-family="Helvetica,sans-Serif" font-size="10.00">DeviceConfig.h</text>
</a>
</g>
</g>
<!-- Node22&#45;&gt;Node23 -->
<g id="edge47" class="edge">
<title>Node22&#45;&gt;Node23</title>
<path fill="none" stroke="#63b8ff" d="M647.12,-285.99C590.11,-275.44 513.28,-261.21 461.99,-251.72"/>
<polygon fill="#63b8ff" stroke="#63b8ff" points="462.56,-248.26 452.09,-249.88 461.29,-255.15 462.56,-248.26"/>
</g>
<!-- Node23&#45;&gt;Node7 -->
<g id="edge48" class="edge">
<title>Node23&#45;&gt;Node7</title>
<path fill="none" stroke="#63b8ff" d="M406.81,-230.8C406.81,-197.36 406.81,-76.59 406.81,-29.49"/>
<polygon fill="#63b8ff" stroke="#63b8ff" points="410.31,-29.21 406.81,-19.21 403.31,-29.21 410.31,-29.21"/>
</g>
<!-- Node23&#45;&gt;Node16 -->
<g id="edge49" class="edge">
<title>Node23&#45;&gt;Node16</title>
<path fill="none" stroke="#63b8ff" d="M432.35,-230.98C458.93,-222.13 500.74,-208.19 530.48,-198.28"/>
<polygon fill="#63b8ff" stroke="#63b8ff" points="531.68,-201.56 540.06,-195.08 529.47,-194.92 531.68,-201.56"/>
</g>
<!-- Node24&#45;&gt;Node23 -->
<g id="edge51" class="edge">
<title>Node24&#45;&gt;Node23</title>
<path fill="none" stroke="#63b8ff" d="M154.04,-288.44C211.6,-277.75 296.35,-262.01 351.56,-251.76"/>
<polygon fill="#63b8ff" stroke="#63b8ff" points="352.32,-255.18 361.52,-249.91 351.04,-248.3 352.32,-255.18"/>
</g>
<!-- Node25&#45;&gt;Node23 -->
<g id="edge53" class="edge">
<title>Node25&#45;&gt;Node23</title>
<path fill="none" stroke="#63b8ff" d="M300.34,-285.99C323.59,-276.27 354.3,-263.44 376.75,-254.06"/>
<polygon fill="#63b8ff" stroke="#63b8ff" points="378.25,-257.22 386.13,-250.14 375.56,-250.77 378.25,-257.22"/>
</g>
<!-- Node26&#45;&gt;Node23 -->
<g id="edge55" class="edge">
<title>Node26&#45;&gt;Node23</title>
<path fill="none" stroke="#63b8ff" d="M406.81,-285.84C406.81,-278.21 406.81,-268.7 406.81,-260.45"/>
<polygon fill="#63b8ff" stroke="#63b8ff" points="410.31,-260.27 406.81,-250.27 403.31,-260.27 410.31,-260.27"/>
</g>
</g>
</svg>
