<?xml version="1.0" encoding="UTF-8" standalone="no"?>
<!DOCTYPE svg PUBLIC "-//W3C//DTD SVG 1.1//EN"
 "http://www.w3.org/Graphics/SVG/1.1/DTD/svg11.dtd">
<!-- Generated by graphviz version 2.43.0 (0)
 -->
<!-- Title: firmware/wombat/src/ntp.cpp Pages: 1 -->
<svg width="286pt" height="104pt"
 viewBox="0.00 0.00 285.50 104.00" xmlns="http://www.w3.org/2000/svg" xmlns:xlink="http://www.w3.org/1999/xlink">
<g id="graph0" class="graph" transform="scale(1 1) rotate(0) translate(4 100)">
<title>firmware/wombat/src/ntp.cpp</title>
<!-- Node1 -->
<g id="node1" class="node">
<title>Node1</title>
<g id="a_node1"><a xlink:title=" ">
<polygon fill="#999999" stroke="#666666" points="165.5,-96 45.5,-96 45.5,-66 165.5,-66 165.5,-96"/>
<text text-anchor="start" x="53.5" y="-84" font-family="Helvetica,sans-Serif" font-size="10.00">firmware/wombat/src</text>
<text text-anchor="middle" x="105.5" y="-73" font-family="Helvetica,sans-Serif" font-size="10.00">/ntp.cpp</text>
</a>
</g>
</g>
<!-- Node2 -->
<g id="node2" class="node">
<title>Node2</title>
<g id="a_node2"><a xlink:title=" ">
<polygon fill="#e0e0e0" stroke="#999999" points="63,-24.5 0,-24.5 0,-5.5 63,-5.5 63,-24.5"/>
<text text-anchor="middle" x="31.5" y="-12.5" font-family="Helvetica,sans-Serif" font-size="10.00">Arduino.h</text>
</a>
</g>
</g>
<!-- Node1&#45;&gt;Node2 -->
<g id="edge1" class="edge">
<title>Node1&#45;&gt;Node2</title>
<path fill="none" stroke="#63b8ff" d="M89.08,-65.8C77.31,-55.62 61.48,-41.93 49.4,-31.48"/>
<polygon fill="#63b8ff" stroke="#63b8ff" points="51.58,-28.74 41.73,-24.84 47,-34.03 51.58,-28.74"/>
</g>
<!-- Node3 -->
<g id="node3" class="node">
<title>Node3</title>
<g id="a_node3"><a xlink:title=" ">
<polygon fill="#e0e0e0" stroke="#999999" points="129.5,-24.5 81.5,-24.5 81.5,-5.5 129.5,-5.5 129.5,-24.5"/>
<text text-anchor="middle" x="105.5" y="-12.5" font-family="Helvetica,sans-Serif" font-size="10.00">time.h</text>
</a>
</g>
</g>
<!-- Node1&#45;&gt;Node3 -->
<g id="edge2" class="edge">
<title>Node1&#45;&gt;Node3</title>
<path fill="none" stroke="#63b8ff" d="M105.5,-65.8C105.5,-56.7 105.5,-44.79 105.5,-34.9"/>
<polygon fill="#63b8ff" stroke="#63b8ff" points="109,-34.84 105.5,-24.84 102,-34.84 109,-34.84"/>
</g>
<!-- Node4 -->
<g id="node4" class="node">
<title>Node4</title>
<g id="a_node4"><a xlink:title=" ">
<polygon fill="#e0e0e0" stroke="#999999" points="277.5,-30 147.5,-30 147.5,0 277.5,0 277.5,-30"/>
<text text-anchor="start" x="155.5" y="-18" font-family="Helvetica,sans-Serif" font-size="10.00">SparkFun_u&#45;blox_SARA</text>
<text text-anchor="middle" x="212.5" y="-7" font-family="Helvetica,sans-Serif" font-size="10.00">&#45;R5_Arduino_Library.h</text>
</a>
</g>
</g>
<!-- Node1&#45;&gt;Node4 -->
<g id="edge3" class="edge">
<title>Node1&#45;&gt;Node4</title>
<path fill="none" stroke="#63b8ff" d="M128.98,-65.95C144.03,-56.95 163.77,-45.14 180.28,-35.27"/>
<polygon fill="#63b8ff" stroke="#63b8ff" points="182.29,-38.15 189.07,-30.01 178.69,-32.14 182.29,-38.15"/>
</g>
</g>
</svg>
