<?xml version="1.0" encoding="UTF-8" standalone="no"?>
<!DOCTYPE svg PUBLIC "-//W3C//DTD SVG 1.1//EN"
 "http://www.w3.org/Graphics/SVG/1.1/DTD/svg11.dtd">
<!-- Generated by graphviz version 2.43.0 (0)
 -->
<!-- Title: firmware/wombat/include/ota_update.h Pages: 1 -->
<svg width="418pt" height="115pt"
 viewBox="0.00 0.00 417.50 115.00" xmlns="http://www.w3.org/2000/svg" xmlns:xlink="http://www.w3.org/1999/xlink">
<g id="graph0" class="graph" transform="scale(1 1) rotate(0) translate(4 111)">
<title>firmware/wombat/include/ota_update.h</title>
<!-- Node1 -->
<g id="node1" class="node">
<title>Node1</title>
<g id="a_node1"><a xlink:title=" ">
<polygon fill="#999999" stroke="#666666" points="282,-107 141,-107 141,-77 282,-77 282,-107"/>
<text text-anchor="start" x="149" y="-95" font-family="Helvetica,sans-Serif" font-size="10.00">firmware/wombat/include</text>
<text text-anchor="middle" x="211.5" y="-84" font-family="Helvetica,sans-Serif" font-size="10.00">/ota_update.h</text>
</a>
</g>
</g>
<!-- Node2 -->
<g id="node2" class="node">
<title>Node2</title>
<g id="a_node2"><a xlink:href="config__cli_8cpp.html" target="_top" xlink:title="Command line interface node configuration commands.">
<polygon fill="white" stroke="#666666" points="133,-41 0,-41 0,0 133,0 133,-41"/>
<text text-anchor="start" x="8" y="-29" font-family="Helvetica,sans-Serif" font-size="10.00">firmware/wombat/src</text>
<text text-anchor="start" x="8" y="-18" font-family="Helvetica,sans-Serif" font-size="10.00">/cli/device_config/config</text>
<text text-anchor="middle" x="66.5" y="-7" font-family="Helvetica,sans-Serif" font-size="10.00">_cli.cpp</text>
</a>
</g>
</g>
<!-- Node1&#45;&gt;Node2 -->
<g id="edge1" class="edge">
<title>Node1&#45;&gt;Node2</title>
<path fill="none" stroke="#63b8ff" d="M172.92,-72.51C152.68,-62.81 127.9,-50.93 107.34,-41.07"/>
<polygon fill="#63b8ff" stroke="#63b8ff" points="171.63,-75.77 182.16,-76.94 174.65,-69.46 171.63,-75.77"/>
</g>
<!-- Node3 -->
<g id="node3" class="node">
<title>Node3</title>
<g id="a_node3"><a xlink:href="main_8cpp.html" target="_top" xlink:title=" ">
<polygon fill="white" stroke="#666666" points="271.5,-35.5 151.5,-35.5 151.5,-5.5 271.5,-5.5 271.5,-35.5"/>
<text text-anchor="start" x="159.5" y="-23.5" font-family="Helvetica,sans-Serif" font-size="10.00">firmware/wombat/src</text>
<text text-anchor="middle" x="211.5" y="-12.5" font-family="Helvetica,sans-Serif" font-size="10.00">/main.cpp</text>
</a>
</g>
</g>
<!-- Node1&#45;&gt;Node3 -->
<g id="edge2" class="edge">
<title>Node1&#45;&gt;Node3</title>
<path fill="none" stroke="#63b8ff" d="M211.5,-66.75C211.5,-56.31 211.5,-44.49 211.5,-35.54"/>
<polygon fill="#63b8ff" stroke="#63b8ff" points="208,-66.94 211.5,-76.94 215,-66.94 208,-66.94"/>
</g>
<!-- Node4 -->
<g id="node4" class="node">
<title>Node4</title>
<g id="a_node4"><a xlink:href="ota__update_8cpp.html" target="_top" xlink:title=" ">
<polygon fill="white" stroke="#666666" points="409.5,-35.5 289.5,-35.5 289.5,-5.5 409.5,-5.5 409.5,-35.5"/>
<text text-anchor="start" x="297.5" y="-23.5" font-family="Helvetica,sans-Serif" font-size="10.00">firmware/wombat/src</text>
<text text-anchor="middle" x="349.5" y="-12.5" font-family="Helvetica,sans-Serif" font-size="10.00">/ota_update.cpp</text>
</a>
</g>
</g>
<!-- Node1&#45;&gt;Node4 -->
<g id="edge3" class="edge">
<title>Node1&#45;&gt;Node4</title>
<path fill="none" stroke="#63b8ff" d="M248.54,-72.34C271.53,-60.77 300.58,-46.14 321.62,-35.54"/>
<polygon fill="#63b8ff" stroke="#63b8ff" points="246.78,-69.31 239.43,-76.94 249.93,-75.56 246.78,-69.31"/>
</g>
</g>
</svg>
