<?xml version="1.0" encoding="UTF-8" standalone="no"?>
<!DOCTYPE svg PUBLIC "-//W3C//DTD SVG 1.1//EN"
 "http://www.w3.org/Graphics/SVG/1.1/DTD/svg11.dtd">
<!-- Generated by graphviz version 2.43.0 (0)
 -->
<!-- Title: firmware/wombat/include/ota_update.h Pages: 1 -->
<svg width="280pt" height="115pt"
 viewBox="0.00 0.00 279.50 115.00" xmlns="http://www.w3.org/2000/svg" xmlns:xlink="http://www.w3.org/1999/xlink">
<g id="graph0" class="graph" transform="scale(1 1) rotate(0) translate(4 111)">
<title>firmware/wombat/include/ota_update.h</title>
<!-- Node1 -->
<g id="node1" class="node">
<title>Node1</title>
<g id="a_node1"><a xlink:title=" ">
<polygon fill="#999999" stroke="#666666" points="209,-107 68,-107 68,-77 209,-77 209,-107"/>
<text text-anchor="start" x="76" y="-95" font-family="Helvetica,sans-Serif" font-size="10.00">firmware/wombat/include</text>
<text text-anchor="middle" x="138.5" y="-84" font-family="Helvetica,sans-Serif" font-size="10.00">/ota_update.h</text>
</a>
</g>
</g>
<!-- Node2 -->
<g id="node2" class="node">
<title>Node2</title>
<g id="a_node2"><a xlink:href="config__cli_8cpp.html" target="_top" xlink:title="Command line interface node configuration commands.">
<polygon fill="white" stroke="#666666" points="133,-41 0,-41 0,0 133,0 133,-41"/>
<text text-anchor="start" x="8" y="-29" font-family="Helvetica,sans-Serif" font-size="10.00">firmware/wombat/src</text>
<text text-anchor="start" x="8" y="-18" font-family="Helvetica,sans-Serif" font-size="10.00">/cli/device_config/config</text>
<text text-anchor="middle" x="66.5" y="-7" font-family="Helvetica,sans-Serif" font-size="10.00">_cli.cpp</text>
</a>
</g>
</g>
<!-- Node1&#45;&gt;Node2 -->
<g id="edge1" class="edge">
<title>Node1&#45;&gt;Node2</title>
<path fill="none" stroke="#63b8ff" d="M116.7,-69.96C107.19,-60.78 96.11,-50.08 86.78,-41.07"/>
<polygon fill="#63b8ff" stroke="#63b8ff" points="114.3,-72.51 123.93,-76.94 119.17,-67.47 114.3,-72.51"/>
</g>
<!-- Node3 -->
<g id="node3" class="node">
<title>Node3</title>
<g id="a_node3"><a xlink:href="ota__update_8cpp.html" target="_top" xlink:title=" ">
<polygon fill="white" stroke="#666666" points="271.5,-35.5 151.5,-35.5 151.5,-5.5 271.5,-5.5 271.5,-35.5"/>
<text text-anchor="start" x="159.5" y="-23.5" font-family="Helvetica,sans-Serif" font-size="10.00">firmware/wombat/src</text>
<text text-anchor="middle" x="211.5" y="-12.5" font-family="Helvetica,sans-Serif" font-size="10.00">/ota_update.cpp</text>
</a>
</g>
</g>
<!-- Node1&#45;&gt;Node3 -->
<g id="edge2" class="edge">
<title>Node1&#45;&gt;Node3</title>
<path fill="none" stroke="#63b8ff" d="M160.57,-69.99C172.28,-58.84 186.37,-45.43 196.75,-35.54"/>
<polygon fill="#63b8ff" stroke="#63b8ff" points="158.1,-67.51 153.27,-76.94 162.93,-72.58 158.1,-67.51"/>
</g>
</g>
</svg>
