<?xml version="1.0" encoding="UTF-8" standalone="no"?>
<!DOCTYPE svg PUBLIC "-//W3C//DTD SVG 1.1//EN"
 "http://www.w3.org/Graphics/SVG/1.1/DTD/svg11.dtd">
<!-- Generated by graphviz version 2.43.0 (0)
 -->
<!-- Title: firmware/wombat/src/ota_update.cpp Pages: 1 -->
<svg width="613pt" height="379pt"
 viewBox="0.00 0.00 612.50 379.00" xmlns="http://www.w3.org/2000/svg" xmlns:xlink="http://www.w3.org/1999/xlink">
<g id="graph0" class="graph" transform="scale(1 1) rotate(0) translate(4 375)">
<title>firmware/wombat/src/ota_update.cpp</title>
<!-- Node1 -->
<g id="node1" class="node">
<title>Node1</title>
<g id="a_node1"><a xlink:title=" ">
<polygon fill="#999999" stroke="#666666" points="364.5,-371 244.5,-371 244.5,-341 364.5,-341 364.5,-371"/>
<text text-anchor="start" x="252.5" y="-359" font-family="Helvetica,sans-Serif" font-size="10.00">firmware/wombat/src</text>
<text text-anchor="middle" x="304.5" y="-348" font-family="Helvetica,sans-Serif" font-size="10.00">/ota_update.cpp</text>
</a>
</g>
</g>
<!-- Node2 -->
<g id="node2" class="node">
<title>Node2</title>
<g id="a_node2"><a xlink:href="ota__update_8h.html" target="_top" xlink:title=" ">
<polygon fill="white" stroke="#666666" points="121.5,-305 41.5,-305 41.5,-286 121.5,-286 121.5,-305"/>
<text text-anchor="middle" x="81.5" y="-293" font-family="Helvetica,sans-Serif" font-size="10.00">ota_update.h</text>
</a>
</g>
</g>
<!-- Node1&#45;&gt;Node2 -->
<g id="edge1" class="edge">
<title>Node1&#45;&gt;Node2</title>
<path fill="none" stroke="#63b8ff" d="M251.09,-340.99C212.1,-330.76 159.97,-317.09 123.85,-307.61"/>
<polygon fill="#63b8ff" stroke="#63b8ff" points="124.67,-304.21 114.11,-305.05 122.89,-310.98 124.67,-304.21"/>
</g>
<!-- Node5 -->
<g id="node5" class="node">
<title>Node5</title>
<g id="a_node5"><a xlink:href="ftp__stack_8h.html" target="_top" xlink:title=" ">
<polygon fill="white" stroke="#666666" points="276.5,-305 206.5,-305 206.5,-286 276.5,-286 276.5,-305"/>
<text text-anchor="middle" x="241.5" y="-293" font-family="Helvetica,sans-Serif" font-size="10.00">ftp_stack.h</text>
</a>
</g>
</g>
<!-- Node1&#45;&gt;Node5 -->
<g id="edge4" class="edge">
<title>Node1&#45;&gt;Node5</title>
<path fill="none" stroke="#63b8ff" d="M289.25,-340.84C279.92,-332.17 267.97,-321.08 258.35,-312.15"/>
<polygon fill="#63b8ff" stroke="#63b8ff" points="260.65,-309.51 250.94,-305.27 255.89,-314.64 260.65,-309.51"/>
</g>
<!-- Node7 -->
<g id="node7" class="node">
<title>Node7</title>
<g id="a_node7"><a xlink:title=" ">
<polygon fill="#e0e0e0" stroke="#999999" points="193,-195 110,-195 110,-176 193,-176 193,-195"/>
<text text-anchor="middle" x="151.5" y="-183" font-family="Helvetica,sans-Serif" font-size="10.00">ArduinoJson.h</text>
</a>
</g>
</g>
<!-- Node1&#45;&gt;Node7 -->
<g id="edge21" class="edge">
<title>Node1&#45;&gt;Node7</title>
<path fill="none" stroke="#63b8ff" d="M255.1,-340.94C235.03,-333.13 212.98,-321.55 197.5,-305 170.83,-276.49 159.05,-230.79 154.32,-205.28"/>
<polygon fill="#63b8ff" stroke="#63b8ff" points="157.72,-204.39 152.62,-195.11 150.82,-205.55 157.72,-204.39"/>
</g>
<!-- Node9 -->
<g id="node9" class="node">
<title>Node9</title>
<g id="a_node9"><a xlink:href="globals_8h.html" target="_top" xlink:title=" ">
<polygon fill="white" stroke="#666666" points="383,-195 322,-195 322,-176 383,-176 383,-195"/>
<text text-anchor="middle" x="352.5" y="-183" font-family="Helvetica,sans-Serif" font-size="10.00">globals.h</text>
</a>
</g>
</g>
<!-- Node1&#45;&gt;Node9 -->
<g id="edge17" class="edge">
<title>Node1&#45;&gt;Node9</title>
<path fill="none" stroke="#63b8ff" d="M308.3,-340.97C312.09,-327.02 318.11,-305.01 323.5,-286 331.57,-257.52 341.25,-224.55 347.13,-204.62"/>
<polygon fill="#63b8ff" stroke="#63b8ff" points="350.49,-205.59 349.97,-195.01 343.78,-203.6 350.49,-205.59"/>
</g>
<!-- Node16 -->
<g id="node16" class="node">
<title>Node16</title>
<g id="a_node16"><a xlink:title=" ">
<polygon fill="#e0e0e0" stroke="#999999" points="424.5,-305 332.5,-305 332.5,-286 424.5,-286 424.5,-305"/>
<text text-anchor="middle" x="378.5" y="-293" font-family="Helvetica,sans-Serif" font-size="10.00">mbedtls/sha1.h</text>
</a>
</g>
</g>
<!-- Node1&#45;&gt;Node16 -->
<g id="edge18" class="edge">
<title>Node1&#45;&gt;Node16</title>
<path fill="none" stroke="#63b8ff" d="M322.41,-340.84C333.59,-332 347.98,-320.63 359.38,-311.62"/>
<polygon fill="#63b8ff" stroke="#63b8ff" points="361.74,-314.21 367.41,-305.27 357.4,-308.72 361.74,-314.21"/>
</g>
<!-- Node17 -->
<g id="node17" class="node">
<title>Node17</title>
<g id="a_node17"><a xlink:title=" ">
<polygon fill="#e0e0e0" stroke="#999999" points="528.5,-305 442.5,-305 442.5,-286 528.5,-286 528.5,-305"/>
<text text-anchor="middle" x="485.5" y="-293" font-family="Helvetica,sans-Serif" font-size="10.00">esp_ota_ops.h</text>
</a>
</g>
</g>
<!-- Node1&#45;&gt;Node17 -->
<g id="edge19" class="edge">
<title>Node1&#45;&gt;Node17</title>
<path fill="none" stroke="#63b8ff" d="M347.85,-340.99C378.82,-330.98 420,-317.67 449.23,-308.22"/>
<polygon fill="#63b8ff" stroke="#63b8ff" points="450.6,-311.46 459.03,-305.05 448.44,-304.8 450.6,-311.46"/>
</g>
<!-- Node18 -->
<g id="node18" class="node">
<title>Node18</title>
<g id="a_node18"><a xlink:title=" ">
<polygon fill="#e0e0e0" stroke="#999999" points="604.5,-305 546.5,-305 546.5,-286 604.5,-286 604.5,-305"/>
<text text-anchor="middle" x="575.5" y="-293" font-family="Helvetica,sans-Serif" font-size="10.00">SPIFFS.h</text>
</a>
</g>
</g>
<!-- Node1&#45;&gt;Node18 -->
<g id="edge20" class="edge">
<title>Node1&#45;&gt;Node18</title>
<path fill="none" stroke="#63b8ff" d="M364.88,-342.19C409.64,-332.67 472.41,-319.23 536.57,-305.19"/>
<polygon fill="#63b8ff" stroke="#63b8ff" points="537.44,-308.58 546.46,-303.02 535.94,-301.74 537.44,-308.58"/>
</g>
<!-- Node3 -->
<g id="node3" class="node">
<title>Node3</title>
<g id="a_node3"><a xlink:title=" ">
<polygon fill="#e0e0e0" stroke="#999999" points="53,-250 0,-250 0,-231 53,-231 53,-250"/>
<text text-anchor="middle" x="26.5" y="-238" font-family="Helvetica,sans-Serif" font-size="10.00">stdint.h</text>
</a>
</g>
</g>
<!-- Node2&#45;&gt;Node3 -->
<g id="edge2" class="edge">
<title>Node2&#45;&gt;Node3</title>
<path fill="none" stroke="#63b8ff" d="M72.42,-285.75C64.41,-278.03 52.54,-266.6 42.88,-257.28"/>
<polygon fill="#63b8ff" stroke="#63b8ff" points="45.04,-254.51 35.41,-250.09 40.19,-259.55 45.04,-254.51"/>
</g>
<!-- Node4 -->
<g id="node4" class="node">
<title>Node4</title>
<g id="a_node4"><a xlink:title=" ">
<polygon fill="#e0e0e0" stroke="#999999" points="243.5,-74 187.5,-74 187.5,-55 243.5,-55 243.5,-74"/>
<text text-anchor="middle" x="215.5" y="-62" font-family="Helvetica,sans-Serif" font-size="10.00">stddef.h</text>
</a>
</g>
</g>
<!-- Node2&#45;&gt;Node4 -->
<g id="edge3" class="edge">
<title>Node2&#45;&gt;Node4</title>
<path fill="none" stroke="#63b8ff" d="M81.15,-285.79C80.47,-256.68 82.27,-161.65 131.5,-110 145.02,-95.82 164.06,-85.22 180.59,-77.93"/>
<polygon fill="#63b8ff" stroke="#63b8ff" points="182.1,-81.1 189.98,-74.02 179.4,-74.64 182.1,-81.1"/>
</g>
<!-- Node6 -->
<g id="node6" class="node">
<title>Node6</title>
<g id="a_node6"><a xlink:href="_utils_8h.html" target="_top" xlink:title=" ">
<polygon fill="white" stroke="#666666" points="271.5,-250 223.5,-250 223.5,-231 271.5,-231 271.5,-250"/>
<text text-anchor="middle" x="247.5" y="-238" font-family="Helvetica,sans-Serif" font-size="10.00">Utils.h</text>
</a>
</g>
</g>
<!-- Node5&#45;&gt;Node6 -->
<g id="edge5" class="edge">
<title>Node5&#45;&gt;Node6</title>
<path fill="none" stroke="#63b8ff" d="M242.49,-285.75C243.28,-278.8 244.4,-268.85 245.39,-260.13"/>
<polygon fill="#63b8ff" stroke="#63b8ff" points="248.88,-260.42 246.53,-250.09 241.92,-259.63 248.88,-260.42"/>
</g>
<!-- Node6&#45;&gt;Node7 -->
<g id="edge6" class="edge">
<title>Node6&#45;&gt;Node7</title>
<path fill="none" stroke="#63b8ff" d="M232.08,-230.98C217.05,-222.69 193.96,-209.94 176.34,-200.22"/>
<polygon fill="#63b8ff" stroke="#63b8ff" points="177.65,-196.94 167.2,-195.17 174.27,-203.07 177.65,-196.94"/>
</g>
<!-- Node8 -->
<g id="node8" class="node">
<title>Node8</title>
<g id="a_node8"><a xlink:title=" ">
<polygon fill="#e0e0e0" stroke="#999999" points="304,-195 211,-195 211,-176 304,-176 304,-195"/>
<text text-anchor="middle" x="257.5" y="-183" font-family="Helvetica,sans-Serif" font-size="10.00">dpiclimate&#45;12.h</text>
</a>
</g>
</g>
<!-- Node6&#45;&gt;Node8 -->
<g id="edge7" class="edge">
<title>Node6&#45;&gt;Node8</title>
<path fill="none" stroke="#63b8ff" d="M249.15,-230.75C250.46,-223.8 252.34,-213.85 253.98,-205.13"/>
<polygon fill="#63b8ff" stroke="#63b8ff" points="257.46,-205.56 255.88,-195.09 250.59,-204.27 257.46,-205.56"/>
</g>
<!-- Node6&#45;&gt;Node9 -->
<g id="edge8" class="edge">
<title>Node6&#45;&gt;Node9</title>
<path fill="none" stroke="#63b8ff" d="M264.37,-230.98C281.11,-222.54 307,-209.47 326.39,-199.68"/>
<polygon fill="#63b8ff" stroke="#63b8ff" points="327.97,-202.8 335.32,-195.17 324.82,-196.55 327.97,-202.8"/>
</g>
<!-- Node10 -->
<g id="node10" class="node">
<title>Node10</title>
<g id="a_node10"><a xlink:title=" ">
<polygon fill="#e0e0e0" stroke="#999999" points="270.5,-140 140.5,-140 140.5,-110 270.5,-110 270.5,-140"/>
<text text-anchor="start" x="148.5" y="-128" font-family="Helvetica,sans-Serif" font-size="10.00">SparkFun_u&#45;blox_SARA</text>
<text text-anchor="middle" x="205.5" y="-117" font-family="Helvetica,sans-Serif" font-size="10.00">&#45;R5_Arduino_Library.h</text>
</a>
</g>
</g>
<!-- Node9&#45;&gt;Node10 -->
<g id="edge9" class="edge">
<title>Node9&#45;&gt;Node10</title>
<path fill="none" stroke="#63b8ff" d="M331.12,-175.99C310.06,-167.61 277.23,-154.55 250.42,-143.87"/>
<polygon fill="#63b8ff" stroke="#63b8ff" points="251.43,-140.51 240.84,-140.06 248.84,-147.01 251.43,-140.51"/>
</g>
<!-- Node11 -->
<g id="node11" class="node">
<title>Node11</title>
<g id="a_node11"><a xlink:href="_c_a_t___m1_8h.html" target="_top" xlink:title=" ">
<polygon fill="white" stroke="#666666" points="437,-134.5 372,-134.5 372,-115.5 437,-115.5 437,-134.5"/>
<text text-anchor="middle" x="404.5" y="-122.5" font-family="Helvetica,sans-Serif" font-size="10.00">CAT_M1.h</text>
</a>
</g>
</g>
<!-- Node9&#45;&gt;Node11 -->
<g id="edge10" class="edge">
<title>Node9&#45;&gt;Node11</title>
<path fill="none" stroke="#63b8ff" d="M360.17,-175.87C368.01,-167.05 380.36,-153.16 390.04,-142.27"/>
<polygon fill="#63b8ff" stroke="#63b8ff" points="392.77,-144.47 396.8,-134.67 387.54,-139.82 392.77,-144.47"/>
</g>
<!-- Node15 -->
<g id="node15" class="node">
<title>Node15</title>
<g id="a_node15"><a xlink:href="str__utils_8h.html" target="_top" xlink:title=" ">
<polygon fill="white" stroke="#666666" points="354,-134.5 289,-134.5 289,-115.5 354,-115.5 354,-134.5"/>
<text text-anchor="middle" x="321.5" y="-122.5" font-family="Helvetica,sans-Serif" font-size="10.00">str_utils.h</text>
</a>
</g>
</g>
<!-- Node9&#45;&gt;Node15 -->
<g id="edge15" class="edge">
<title>Node9&#45;&gt;Node15</title>
<path fill="none" stroke="#63b8ff" d="M347.93,-175.87C343.44,-167.4 336.47,-154.24 330.81,-143.57"/>
<polygon fill="#63b8ff" stroke="#63b8ff" points="333.87,-141.86 326.09,-134.67 327.68,-145.14 333.87,-141.86"/>
</g>
<!-- Node12 -->
<g id="node12" class="node">
<title>Node12</title>
<g id="a_node12"><a xlink:title=" ">
<polygon fill="#e0e0e0" stroke="#999999" points="397.5,-19 349.5,-19 349.5,0 397.5,0 397.5,-19"/>
<text text-anchor="middle" x="373.5" y="-7" font-family="Helvetica,sans-Serif" font-size="10.00">Wire.h</text>
</a>
</g>
</g>
<!-- Node11&#45;&gt;Node12 -->
<g id="edge11" class="edge">
<title>Node11&#45;&gt;Node12</title>
<path fill="none" stroke="#63b8ff" d="M402.17,-115.47C397.17,-97.15 385.29,-53.68 378.5,-28.81"/>
<polygon fill="#63b8ff" stroke="#63b8ff" points="381.87,-27.85 375.86,-19.13 375.12,-29.7 381.87,-27.85"/>
</g>
<!-- Node13 -->
<g id="node13" class="node">
<title>Node13</title>
<g id="a_node13"><a xlink:href="_t_c_a9534_8h.html" target="_top" xlink:title=" ">
<polygon fill="white" stroke="#666666" points="469.5,-74 401.5,-74 401.5,-55 469.5,-55 469.5,-74"/>
<text text-anchor="middle" x="435.5" y="-62" font-family="Helvetica,sans-Serif" font-size="10.00">TCA9534.h</text>
</a>
</g>
</g>
<!-- Node11&#45;&gt;Node13 -->
<g id="edge12" class="edge">
<title>Node11&#45;&gt;Node13</title>
<path fill="none" stroke="#63b8ff" d="M409.07,-115.37C413.56,-106.9 420.53,-93.74 426.19,-83.07"/>
<polygon fill="#63b8ff" stroke="#63b8ff" points="429.32,-84.64 430.91,-74.17 423.13,-81.36 429.32,-84.64"/>
</g>
<!-- Node13&#45;&gt;Node12 -->
<g id="edge14" class="edge">
<title>Node13&#45;&gt;Node12</title>
<path fill="none" stroke="#63b8ff" d="M425.54,-54.98C416.37,-47.15 402.56,-35.34 391.47,-25.86"/>
<polygon fill="#63b8ff" stroke="#63b8ff" points="393.52,-23.01 383.64,-19.17 388.97,-28.33 393.52,-23.01"/>
</g>
<!-- Node14 -->
<g id="node14" class="node">
<title>Node14</title>
<g id="a_node14"><a xlink:title=" ">
<polygon fill="#e0e0e0" stroke="#999999" points="479,-19 416,-19 416,0 479,0 479,-19"/>
<text text-anchor="middle" x="447.5" y="-7" font-family="Helvetica,sans-Serif" font-size="10.00">Arduino.h</text>
</a>
</g>
</g>
<!-- Node13&#45;&gt;Node14 -->
<g id="edge13" class="edge">
<title>Node13&#45;&gt;Node14</title>
<path fill="none" stroke="#63b8ff" d="M437.48,-54.75C439.07,-47.72 441.36,-37.62 443.35,-28.84"/>
<polygon fill="#63b8ff" stroke="#63b8ff" points="446.76,-29.62 445.56,-19.09 439.93,-28.07 446.76,-29.62"/>
</g>
<!-- Node15&#45;&gt;Node4 -->
<g id="edge16" class="edge">
<title>Node15&#45;&gt;Node4</title>
<path fill="none" stroke="#63b8ff" d="M305.86,-115.37C288.56,-105.82 260.45,-90.31 240.17,-79.12"/>
<polygon fill="#63b8ff" stroke="#63b8ff" points="241.65,-75.93 231.2,-74.17 238.27,-82.06 241.65,-75.93"/>
</g>
</g>
</svg>
