<?xml version="1.0" encoding="UTF-8" standalone="no"?>
<!DOCTYPE svg PUBLIC "-//W3C//DTD SVG 1.1//EN"
 "http://www.w3.org/Graphics/SVG/1.1/DTD/svg11.dtd">
<!-- Generated by graphviz version 2.43.0 (0)
 -->
<!-- Title: firmware/wombat/src/ota_update.cpp Pages: 1 -->
<svg width="690pt" height="269pt"
 viewBox="0.00 0.00 690.00 269.00" xmlns="http://www.w3.org/2000/svg" xmlns:xlink="http://www.w3.org/1999/xlink">
<g id="graph0" class="graph" transform="scale(1 1) rotate(0) translate(4 265)">
<title>firmware/wombat/src/ota_update.cpp</title>
<!-- Node1 -->
<g id="node1" class="node">
<title>Node1</title>
<g id="a_node1"><a xlink:title=" ">
<polygon fill="#999999" stroke="#666666" points="414.5,-261 294.5,-261 294.5,-231 414.5,-231 414.5,-261"/>
<text text-anchor="start" x="302.5" y="-249" font-family="Helvetica,sans-Serif" font-size="10.00">firmware/wombat/src</text>
<text text-anchor="middle" x="354.5" y="-238" font-family="Helvetica,sans-Serif" font-size="10.00">/ota_update.cpp</text>
</a>
</g>
</g>
<!-- Node2 -->
<g id="node2" class="node">
<title>Node2</title>
<g id="a_node2"><a xlink:href="ota__update_8h.html" target="_top" xlink:title=" ">
<polygon fill="white" stroke="#666666" points="122.5,-195 42.5,-195 42.5,-176 122.5,-176 122.5,-195"/>
<text text-anchor="middle" x="82.5" y="-183" font-family="Helvetica,sans-Serif" font-size="10.00">ota_update.h</text>
</a>
</g>
</g>
<!-- Node1&#45;&gt;Node2 -->
<g id="edge1" class="edge">
<title>Node1&#45;&gt;Node2</title>
<path fill="none" stroke="#63b8ff" d="M294.47,-232.09C245.75,-221.61 177.87,-207.01 132.16,-197.18"/>
<polygon fill="#63b8ff" stroke="#63b8ff" points="132.71,-193.72 122.19,-195.04 131.23,-200.56 132.71,-193.72"/>
</g>
<!-- Node5 -->
<g id="node5" class="node">
<title>Node5</title>
<g id="a_node5"><a xlink:href="ftp__stack_8h.html" target="_top" xlink:title=" ">
<polygon fill="white" stroke="#666666" points="210.5,-195 140.5,-195 140.5,-176 210.5,-176 210.5,-195"/>
<text text-anchor="middle" x="175.5" y="-183" font-family="Helvetica,sans-Serif" font-size="10.00">ftp_stack.h</text>
</a>
</g>
</g>
<!-- Node1&#45;&gt;Node5 -->
<g id="edge4" class="edge">
<title>Node1&#45;&gt;Node5</title>
<path fill="none" stroke="#63b8ff" d="M311.63,-230.99C281,-220.98 240.27,-207.67 211.37,-198.22"/>
<polygon fill="#63b8ff" stroke="#63b8ff" points="212.27,-194.83 201.67,-195.05 210.09,-201.49 212.27,-194.83"/>
</g>
<!-- Node6 -->
<g id="node6" class="node">
<title>Node6</title>
<g id="a_node6"><a xlink:href="globals_8h.html" target="_top" xlink:title=" ">
<polygon fill="white" stroke="#666666" points="290,-195 229,-195 229,-176 290,-176 290,-195"/>
<text text-anchor="middle" x="259.5" y="-183" font-family="Helvetica,sans-Serif" font-size="10.00">globals.h</text>
</a>
</g>
</g>
<!-- Node1&#45;&gt;Node6 -->
<g id="edge5" class="edge">
<title>Node1&#45;&gt;Node6</title>
<path fill="none" stroke="#63b8ff" d="M331.5,-230.84C316.5,-221.6 297,-209.59 282.07,-200.4"/>
<polygon fill="#63b8ff" stroke="#63b8ff" points="283.81,-197.36 273.46,-195.09 280.14,-203.32 283.81,-197.36"/>
</g>
<!-- Node12 -->
<g id="node12" class="node">
<title>Node12</title>
<g id="a_node12"><a xlink:title=" ">
<polygon fill="#e0e0e0" stroke="#999999" points="400.5,-195 308.5,-195 308.5,-176 400.5,-176 400.5,-195"/>
<text text-anchor="middle" x="354.5" y="-183" font-family="Helvetica,sans-Serif" font-size="10.00">mbedtls/sha1.h</text>
</a>
</g>
</g>
<!-- Node1&#45;&gt;Node12 -->
<g id="edge12" class="edge">
<title>Node1&#45;&gt;Node12</title>
<path fill="none" stroke="#63b8ff" d="M354.5,-230.84C354.5,-223.21 354.5,-213.7 354.5,-205.45"/>
<polygon fill="#63b8ff" stroke="#63b8ff" points="358,-205.27 354.5,-195.27 351,-205.27 358,-205.27"/>
</g>
<!-- Node13 -->
<g id="node13" class="node">
<title>Node13</title>
<g id="a_node13"><a xlink:title=" ">
<polygon fill="#e0e0e0" stroke="#999999" points="504.5,-195 418.5,-195 418.5,-176 504.5,-176 504.5,-195"/>
<text text-anchor="middle" x="461.5" y="-183" font-family="Helvetica,sans-Serif" font-size="10.00">esp_ota_ops.h</text>
</a>
</g>
</g>
<!-- Node1&#45;&gt;Node13 -->
<g id="edge13" class="edge">
<title>Node1&#45;&gt;Node13</title>
<path fill="none" stroke="#63b8ff" d="M380.13,-230.99C397.34,-221.58 419.9,-209.24 436.9,-199.95"/>
<polygon fill="#63b8ff" stroke="#63b8ff" points="438.6,-203.01 445.7,-195.14 435.25,-196.87 438.6,-203.01"/>
</g>
<!-- Node14 -->
<g id="node14" class="node">
<title>Node14</title>
<g id="a_node14"><a xlink:title=" ">
<polygon fill="#e0e0e0" stroke="#999999" points="580.5,-195 522.5,-195 522.5,-176 580.5,-176 580.5,-195"/>
<text text-anchor="middle" x="551.5" y="-183" font-family="Helvetica,sans-Serif" font-size="10.00">SPIFFS.h</text>
</a>
</g>
</g>
<!-- Node1&#45;&gt;Node14 -->
<g id="edge14" class="edge">
<title>Node1&#45;&gt;Node14</title>
<path fill="none" stroke="#63b8ff" d="M401.69,-230.99C435.68,-220.89 481,-207.44 512.86,-197.98"/>
<polygon fill="#63b8ff" stroke="#63b8ff" points="514.11,-201.26 522.7,-195.05 512.11,-194.55 514.11,-201.26"/>
</g>
<!-- Node15 -->
<g id="node15" class="node">
<title>Node15</title>
<g id="a_node15"><a xlink:title=" ">
<polygon fill="#e0e0e0" stroke="#999999" points="682,-195 599,-195 599,-176 682,-176 682,-195"/>
<text text-anchor="middle" x="640.5" y="-183" font-family="Helvetica,sans-Serif" font-size="10.00">ArduinoJson.h</text>
</a>
</g>
</g>
<!-- Node1&#45;&gt;Node15 -->
<g id="edge15" class="edge">
<title>Node1&#45;&gt;Node15</title>
<path fill="none" stroke="#63b8ff" d="M414.8,-232.67C466.37,-222.12 539.78,-207.1 588.72,-197.09"/>
<polygon fill="#63b8ff" stroke="#63b8ff" points="589.68,-200.47 598.78,-195.03 588.28,-193.61 589.68,-200.47"/>
</g>
<!-- Node3 -->
<g id="node3" class="node">
<title>Node3</title>
<g id="a_node3"><a xlink:title=" ">
<polygon fill="#e0e0e0" stroke="#999999" points="53,-134.5 0,-134.5 0,-115.5 53,-115.5 53,-134.5"/>
<text text-anchor="middle" x="26.5" y="-122.5" font-family="Helvetica,sans-Serif" font-size="10.00">stdint.h</text>
</a>
</g>
</g>
<!-- Node2&#45;&gt;Node3 -->
<g id="edge2" class="edge">
<title>Node2&#45;&gt;Node3</title>
<path fill="none" stroke="#63b8ff" d="M74.24,-175.87C65.72,-166.97 52.24,-152.89 41.77,-141.95"/>
<polygon fill="#63b8ff" stroke="#63b8ff" points="44.24,-139.47 34.8,-134.67 39.18,-144.31 44.24,-139.47"/>
</g>
<!-- Node4 -->
<g id="node4" class="node">
<title>Node4</title>
<g id="a_node4"><a xlink:title=" ">
<polygon fill="#e0e0e0" stroke="#999999" points="127.5,-134.5 71.5,-134.5 71.5,-115.5 127.5,-115.5 127.5,-134.5"/>
<text text-anchor="middle" x="99.5" y="-122.5" font-family="Helvetica,sans-Serif" font-size="10.00">stddef.h</text>
</a>
</g>
</g>
<!-- Node2&#45;&gt;Node4 -->
<g id="edge3" class="edge">
<title>Node2&#45;&gt;Node4</title>
<path fill="none" stroke="#63b8ff" d="M85.01,-175.87C87.39,-167.66 91.06,-155.04 94.11,-144.55"/>
<polygon fill="#63b8ff" stroke="#63b8ff" points="97.55,-145.25 96.98,-134.67 90.83,-143.29 97.55,-145.25"/>
</g>
<!-- Node7 -->
<g id="node7" class="node">
<title>Node7</title>
<g id="a_node7"><a xlink:title=" ">
<polygon fill="#e0e0e0" stroke="#999999" points="308.5,-140 178.5,-140 178.5,-110 308.5,-110 308.5,-140"/>
<text text-anchor="start" x="186.5" y="-128" font-family="Helvetica,sans-Serif" font-size="10.00">SparkFun_u&#45;blox_SARA</text>
<text text-anchor="middle" x="243.5" y="-117" font-family="Helvetica,sans-Serif" font-size="10.00">&#45;R5_Arduino_Library.h</text>
</a>
</g>
</g>
<!-- Node6&#45;&gt;Node7 -->
<g id="edge6" class="edge">
<title>Node6&#45;&gt;Node7</title>
<path fill="none" stroke="#63b8ff" d="M257.14,-175.87C255.27,-169.03 252.56,-159.14 250.06,-149.97"/>
<polygon fill="#63b8ff" stroke="#63b8ff" points="253.37,-148.84 247.36,-140.11 246.62,-150.68 253.37,-148.84"/>
</g>
<!-- Node8 -->
<g id="node8" class="node">
<title>Node8</title>
<g id="a_node8"><a xlink:href="_c_a_t___m1_8h.html" target="_top" xlink:title=" ">
<polygon fill="white" stroke="#666666" points="392,-134.5 327,-134.5 327,-115.5 392,-115.5 392,-134.5"/>
<text text-anchor="middle" x="359.5" y="-122.5" font-family="Helvetica,sans-Serif" font-size="10.00">CAT_M1.h</text>
</a>
</g>
</g>
<!-- Node6&#45;&gt;Node8 -->
<g id="edge7" class="edge">
<title>Node6&#45;&gt;Node8</title>
<path fill="none" stroke="#63b8ff" d="M274.26,-175.87C290.5,-166.36 316.85,-150.95 335.96,-139.77"/>
<polygon fill="#63b8ff" stroke="#63b8ff" points="337.82,-142.74 344.68,-134.67 334.29,-136.7 337.82,-142.74"/>
</g>
<!-- Node9 -->
<g id="node9" class="node">
<title>Node9</title>
<g id="a_node9"><a xlink:title=" ">
<polygon fill="#e0e0e0" stroke="#999999" points="352.5,-19 304.5,-19 304.5,0 352.5,0 352.5,-19"/>
<text text-anchor="middle" x="328.5" y="-7" font-family="Helvetica,sans-Serif" font-size="10.00">Wire.h</text>
</a>
</g>
</g>
<!-- Node8&#45;&gt;Node9 -->
<g id="edge8" class="edge">
<title>Node8&#45;&gt;Node9</title>
<path fill="none" stroke="#63b8ff" d="M357.17,-115.47C352.17,-97.15 340.29,-53.68 333.5,-28.81"/>
<polygon fill="#63b8ff" stroke="#63b8ff" points="336.87,-27.85 330.86,-19.13 330.12,-29.7 336.87,-27.85"/>
</g>
<!-- Node10 -->
<g id="node10" class="node">
<title>Node10</title>
<g id="a_node10"><a xlink:href="_t_c_a9534_8h.html" target="_top" xlink:title=" ">
<polygon fill="white" stroke="#666666" points="424.5,-74 356.5,-74 356.5,-55 424.5,-55 424.5,-74"/>
<text text-anchor="middle" x="390.5" y="-62" font-family="Helvetica,sans-Serif" font-size="10.00">TCA9534.h</text>
</a>
</g>
</g>
<!-- Node8&#45;&gt;Node10 -->
<g id="edge9" class="edge">
<title>Node8&#45;&gt;Node10</title>
<path fill="none" stroke="#63b8ff" d="M364.07,-115.37C368.56,-106.9 375.53,-93.74 381.19,-83.07"/>
<polygon fill="#63b8ff" stroke="#63b8ff" points="384.32,-84.64 385.91,-74.17 378.13,-81.36 384.32,-84.64"/>
</g>
<!-- Node10&#45;&gt;Node9 -->
<g id="edge11" class="edge">
<title>Node10&#45;&gt;Node9</title>
<path fill="none" stroke="#63b8ff" d="M380.54,-54.98C371.37,-47.15 357.56,-35.34 346.47,-25.86"/>
<polygon fill="#63b8ff" stroke="#63b8ff" points="348.52,-23.01 338.64,-19.17 343.97,-28.33 348.52,-23.01"/>
</g>
<!-- Node11 -->
<g id="node11" class="node">
<title>Node11</title>
<g id="a_node11"><a xlink:title=" ">
<polygon fill="#e0e0e0" stroke="#999999" points="434,-19 371,-19 371,0 434,0 434,-19"/>
<text text-anchor="middle" x="402.5" y="-7" font-family="Helvetica,sans-Serif" font-size="10.00">Arduino.h</text>
</a>
</g>
</g>
<!-- Node10&#45;&gt;Node11 -->
<g id="edge10" class="edge">
<title>Node10&#45;&gt;Node11</title>
<path fill="none" stroke="#63b8ff" d="M392.48,-54.75C394.07,-47.72 396.36,-37.62 398.35,-28.84"/>
<polygon fill="#63b8ff" stroke="#63b8ff" points="401.76,-29.62 400.56,-19.09 394.93,-28.07 401.76,-29.62"/>
</g>
</g>
</svg>
