<?xml version="1.0" encoding="UTF-8" standalone="no"?>
<!DOCTYPE svg PUBLIC "-//W3C//DTD SVG 1.1//EN"
 "http://www.w3.org/Graphics/SVG/1.1/DTD/svg11.dtd">
<!-- Generated by graphviz version 2.43.0 (0)
 -->
<!-- Title: firmware/wombat/include/bluetooth/power_monitoring.h Pages: 1 -->
<svg width="639pt" height="148pt"
 viewBox="0.00 0.00 639.20 148.00" xmlns="http://www.w3.org/2000/svg" xmlns:xlink="http://www.w3.org/1999/xlink">
<g id="graph0" class="graph" transform="scale(1 1) rotate(0) translate(4 144)">
<title>firmware/wombat/include/bluetooth/power_monitoring.h</title>
<!-- Node1 -->
<g id="node1" class="node">
<title>Node1</title>
<g id="a_node1"><a xlink:title=" ">
<polygon fill="#999999" stroke="#666666" points="405.7,-140 238.7,-140 238.7,-110 405.7,-110 405.7,-140"/>
<text text-anchor="start" x="246.7" y="-128" font-family="Helvetica,sans-Serif" font-size="10.00">firmware/wombat/include</text>
<text text-anchor="middle" x="322.2" y="-117" font-family="Helvetica,sans-Serif" font-size="10.00">/bluetooth/power_monitoring.h</text>
</a>
</g>
</g>
<!-- Node2 -->
<g id="node2" class="node">
<title>Node2</title>
<g id="a_node2"><a xlink:title=" ">
<polygon fill="#e0e0e0" stroke="#999999" points="115.7,-19 52.7,-19 52.7,0 115.7,0 115.7,-19"/>
<text text-anchor="middle" x="84.2" y="-7" font-family="Helvetica,sans-Serif" font-size="10.00">Arduino.h</text>
</a>
</g>
</g>
<!-- Node1&#45;&gt;Node2 -->
<g id="edge1" class="edge">
<title>Node1&#45;&gt;Node2</title>
<path fill="none" stroke="#63b8ff" d="M238.38,-122.65C154.78,-119.32 34.66,-108.47 5.2,-74 -12.47,-53.33 19.98,-34.48 48.48,-22.78"/>
<polygon fill="#63b8ff" stroke="#63b8ff" points="49.87,-25.99 57.91,-19.09 47.33,-19.47 49.87,-25.99"/>
</g>
<!-- Node3 -->
<g id="node3" class="node">
<title>Node3</title>
<g id="a_node3"><a xlink:title=" ">
<polygon fill="#e0e0e0" stroke="#999999" points="452.7,-74 341.7,-74 341.7,-55 452.7,-55 452.7,-74"/>
<text text-anchor="middle" x="397.2" y="-62" font-family="Helvetica,sans-Serif" font-size="10.00">BLECharacteristic.h</text>
</a>
</g>
</g>
<!-- Node1&#45;&gt;Node3 -->
<g id="edge2" class="edge">
<title>Node1&#45;&gt;Node3</title>
<path fill="none" stroke="#63b8ff" d="M340.36,-109.84C351.69,-101 366.26,-89.63 377.82,-80.62"/>
<polygon fill="#63b8ff" stroke="#63b8ff" points="380.23,-83.18 385.96,-74.27 375.92,-77.66 380.23,-83.18"/>
</g>
<!-- Node4 -->
<g id="node4" class="node">
<title>Node4</title>
<g id="a_node4"><a xlink:title=" ">
<polygon fill="#e0e0e0" stroke="#999999" points="545.2,-74 471.2,-74 471.2,-55 545.2,-55 545.2,-74"/>
<text text-anchor="middle" x="508.2" y="-62" font-family="Helvetica,sans-Serif" font-size="10.00">BLEServer.h</text>
</a>
</g>
</g>
<!-- Node1&#45;&gt;Node4 -->
<g id="edge3" class="edge">
<title>Node1&#45;&gt;Node4</title>
<path fill="none" stroke="#63b8ff" d="M366.75,-109.99C398.71,-99.94 441.26,-86.55 471.32,-77.1"/>
<polygon fill="#63b8ff" stroke="#63b8ff" points="472.51,-80.39 481,-74.05 470.41,-73.72 472.51,-80.39"/>
</g>
<!-- Node5 -->
<g id="node5" class="node">
<title>Node5</title>
<g id="a_node5"><a xlink:title=" ">
<polygon fill="#e0e0e0" stroke="#999999" points="631.2,-74 563.2,-74 563.2,-55 631.2,-55 631.2,-74"/>
<text text-anchor="middle" x="597.2" y="-62" font-family="Helvetica,sans-Serif" font-size="10.00">BLE2902.h</text>
</a>
</g>
</g>
<!-- Node1&#45;&gt;Node5 -->
<g id="edge4" class="edge">
<title>Node1&#45;&gt;Node5</title>
<path fill="none" stroke="#63b8ff" d="M388.07,-109.99C439.08,-99.14 508.33,-84.41 552.9,-74.92"/>
<polygon fill="#63b8ff" stroke="#63b8ff" points="553.79,-78.31 562.84,-72.81 552.33,-71.47 553.79,-78.31"/>
</g>
<!-- Node6 -->
<g id="node6" class="node">
<title>Node6</title>
<g id="a_node6"><a xlink:href="solar_8h.html" target="_top" xlink:title=" ">
<polygon fill="white" stroke="#666666" points="154.2,-74 14.2,-74 14.2,-55 154.2,-55 154.2,-74"/>
<text text-anchor="middle" x="84.2" y="-62" font-family="Helvetica,sans-Serif" font-size="10.00">power_monitoring/solar.h</text>
</a>
</g>
</g>
<!-- Node1&#45;&gt;Node6 -->
<g id="edge5" class="edge">
<title>Node1&#45;&gt;Node6</title>
<path fill="none" stroke="#63b8ff" d="M265.19,-109.99C223.41,-99.72 167.47,-85.97 128.9,-76.49"/>
<polygon fill="#63b8ff" stroke="#63b8ff" points="129.55,-73.04 119,-74.05 127.87,-79.84 129.55,-73.04"/>
</g>
<!-- Node8 -->
<g id="node8" class="node">
<title>Node8</title>
<g id="a_node8"><a xlink:href="battery_8h.html" target="_top" xlink:title=" ">
<polygon fill="white" stroke="#666666" points="323.7,-74 172.7,-74 172.7,-55 323.7,-55 323.7,-74"/>
<text text-anchor="middle" x="248.2" y="-62" font-family="Helvetica,sans-Serif" font-size="10.00">power_monitoring/battery.h</text>
</a>
</g>
</g>
<!-- Node1&#45;&gt;Node8 -->
<g id="edge8" class="edge">
<title>Node1&#45;&gt;Node8</title>
<path fill="none" stroke="#63b8ff" d="M304.29,-109.84C293.11,-101 278.72,-89.63 267.32,-80.62"/>
<polygon fill="#63b8ff" stroke="#63b8ff" points="269.3,-77.72 259.29,-74.27 264.96,-83.21 269.3,-77.72"/>
</g>
<!-- Node6&#45;&gt;Node2 -->
<g id="edge6" class="edge">
<title>Node6&#45;&gt;Node2</title>
<path fill="none" stroke="#63b8ff" d="M84.2,-54.75C84.2,-47.8 84.2,-37.85 84.2,-29.13"/>
<polygon fill="#63b8ff" stroke="#63b8ff" points="87.7,-29.09 84.2,-19.09 80.7,-29.09 87.7,-29.09"/>
</g>
<!-- Node7 -->
<g id="node7" class="node">
<title>Node7</title>
<g id="a_node7"><a xlink:title=" ">
<polygon fill="#e0e0e0" stroke="#999999" points="269.7,-19 164.7,-19 164.7,0 269.7,0 269.7,-19"/>
<text text-anchor="middle" x="217.2" y="-7" font-family="Helvetica,sans-Serif" font-size="10.00">Adafruit_INA219.h</text>
</a>
</g>
</g>
<!-- Node6&#45;&gt;Node7 -->
<g id="edge7" class="edge">
<title>Node6&#45;&gt;Node7</title>
<path fill="none" stroke="#63b8ff" d="M105.57,-54.98C127.35,-46.3 161.36,-32.75 186.12,-22.88"/>
<polygon fill="#63b8ff" stroke="#63b8ff" points="187.45,-26.12 195.44,-19.17 184.86,-19.62 187.45,-26.12"/>
</g>
<!-- Node8&#45;&gt;Node2 -->
<g id="edge9" class="edge">
<title>Node8&#45;&gt;Node2</title>
<path fill="none" stroke="#63b8ff" d="M221.85,-54.98C194.44,-46.13 151.31,-32.19 120.64,-22.28"/>
<polygon fill="#63b8ff" stroke="#63b8ff" points="121.35,-18.83 110.76,-19.08 119.19,-25.49 121.35,-18.83"/>
</g>
<!-- Node8&#45;&gt;Node7 -->
<g id="edge10" class="edge">
<title>Node8&#45;&gt;Node7</title>
<path fill="none" stroke="#63b8ff" d="M243.08,-54.75C238.84,-47.49 232.67,-36.95 227.42,-27.98"/>
<polygon fill="#63b8ff" stroke="#63b8ff" points="230.29,-25.95 222.22,-19.09 224.25,-29.49 230.29,-25.95"/>
</g>
</g>
</svg>
