<?xml version="1.0" encoding="UTF-8" standalone="no"?>
<!DOCTYPE svg PUBLIC "-//W3C//DTD SVG 1.1//EN"
 "http://www.w3.org/Graphics/SVG/1.1/DTD/svg11.dtd">
<!-- Generated by graphviz version 2.43.0 (0)
 -->
<!-- Title: firmware/wombat/src/bluetooth/power_monitoring.cpp Pages: 1 -->
<svg width="639pt" height="203pt"
 viewBox="0.00 0.00 639.28 203.00" xmlns="http://www.w3.org/2000/svg" xmlns:xlink="http://www.w3.org/1999/xlink">
<g id="graph0" class="graph" transform="scale(1 1) rotate(0) translate(4 199)">
<title>firmware/wombat/src/bluetooth/power_monitoring.cpp</title>
<!-- Node1 -->
<g id="node1" class="node">
<title>Node1</title>
<g id="a_node1"><a xlink:title="BluetoothLE power monitoring service setup and attached to BLE server.">
<polygon fill="#999999" stroke="#666666" points="344.28,-195 166.28,-195 166.28,-165 344.28,-165 344.28,-195"/>
<text text-anchor="start" x="174.28" y="-183" font-family="Helvetica,sans-Serif" font-size="10.00">firmware/wombat/src</text>
<text text-anchor="middle" x="255.28" y="-172" font-family="Helvetica,sans-Serif" font-size="10.00">/bluetooth/power_monitoring.cpp</text>
</a>
</g>
</g>
<!-- Node2 -->
<g id="node2" class="node">
<title>Node2</title>
<g id="a_node2"><a xlink:title=" ">
<polygon fill="#e0e0e0" stroke="#999999" points="222.28,-129 154.28,-129 154.28,-110 222.28,-110 222.28,-129"/>
<text text-anchor="middle" x="188.28" y="-117" font-family="Helvetica,sans-Serif" font-size="10.00">BLE2904.h</text>
</a>
</g>
</g>
<!-- Node1&#45;&gt;Node2 -->
<g id="edge1" class="edge">
<title>Node1&#45;&gt;Node2</title>
<path fill="none" stroke="#63b8ff" d="M239.06,-164.84C229.04,-156.09 216.18,-144.85 205.9,-135.88"/>
<polygon fill="#63b8ff" stroke="#63b8ff" points="208.16,-133.21 198.32,-129.27 203.55,-138.48 208.16,-133.21"/>
</g>
<!-- Node3 -->
<g id="node3" class="node">
<title>Node3</title>
<g id="a_node3"><a xlink:href="power__monitoring_8h.html" target="_top" xlink:title="Setup BluetoothLE power monitoring information.">
<polygon fill="white" stroke="#666666" points="404.28,-129 240.28,-129 240.28,-110 404.28,-110 404.28,-129"/>
<text text-anchor="middle" x="322.28" y="-117" font-family="Helvetica,sans-Serif" font-size="10.00">bluetooth/power_monitoring.h</text>
</a>
</g>
</g>
<!-- Node1&#45;&gt;Node3 -->
<g id="edge2" class="edge">
<title>Node1&#45;&gt;Node3</title>
<path fill="none" stroke="#63b8ff" d="M271.5,-164.84C281.53,-156.09 294.39,-144.85 304.66,-135.88"/>
<polygon fill="#63b8ff" stroke="#63b8ff" points="307.01,-138.48 312.24,-129.27 302.41,-133.21 307.01,-138.48"/>
</g>
<!-- Node4 -->
<g id="node4" class="node">
<title>Node4</title>
<g id="a_node4"><a xlink:title=" ">
<polygon fill="#e0e0e0" stroke="#999999" points="115.78,-19 52.78,-19 52.78,0 115.78,0 115.78,-19"/>
<text text-anchor="middle" x="84.28" y="-7" font-family="Helvetica,sans-Serif" font-size="10.00">Arduino.h</text>
</a>
</g>
</g>
<!-- Node3&#45;&gt;Node4 -->
<g id="edge3" class="edge">
<title>Node3&#45;&gt;Node4</title>
<path fill="none" stroke="#63b8ff" d="M242.83,-109.96C151.49,-99.76 13.07,-82.95 5.28,-74 -12.61,-53.42 20.12,-34.48 48.73,-22.75"/>
<polygon fill="#63b8ff" stroke="#63b8ff" points="50.15,-25.95 58.2,-19.05 47.61,-19.43 50.15,-25.95"/>
</g>
<!-- Node5 -->
<g id="node5" class="node">
<title>Node5</title>
<g id="a_node5"><a xlink:title=" ">
<polygon fill="#e0e0e0" stroke="#999999" points="452.78,-74 341.78,-74 341.78,-55 452.78,-55 452.78,-74"/>
<text text-anchor="middle" x="397.28" y="-62" font-family="Helvetica,sans-Serif" font-size="10.00">BLECharacteristic.h</text>
</a>
</g>
</g>
<!-- Node3&#45;&gt;Node5 -->
<g id="edge4" class="edge">
<title>Node3&#45;&gt;Node5</title>
<path fill="none" stroke="#63b8ff" d="M334.33,-109.98C345.75,-101.92 363.11,-89.65 376.72,-80.03"/>
<polygon fill="#63b8ff" stroke="#63b8ff" points="378.87,-82.8 385.01,-74.17 374.83,-77.08 378.87,-82.8"/>
</g>
<!-- Node6 -->
<g id="node6" class="node">
<title>Node6</title>
<g id="a_node6"><a xlink:title=" ">
<polygon fill="#e0e0e0" stroke="#999999" points="545.28,-74 471.28,-74 471.28,-55 545.28,-55 545.28,-74"/>
<text text-anchor="middle" x="508.28" y="-62" font-family="Helvetica,sans-Serif" font-size="10.00">BLEServer.h</text>
</a>
</g>
</g>
<!-- Node3&#45;&gt;Node6 -->
<g id="edge5" class="edge">
<title>Node3&#45;&gt;Node6</title>
<path fill="none" stroke="#63b8ff" d="M352.17,-109.98C383.67,-101.01 433.45,-86.82 468.31,-76.89"/>
<polygon fill="#63b8ff" stroke="#63b8ff" points="469.51,-80.19 478.17,-74.08 467.59,-73.46 469.51,-80.19"/>
</g>
<!-- Node7 -->
<g id="node7" class="node">
<title>Node7</title>
<g id="a_node7"><a xlink:title=" ">
<polygon fill="#e0e0e0" stroke="#999999" points="631.28,-74 563.28,-74 563.28,-55 631.28,-55 631.28,-74"/>
<text text-anchor="middle" x="597.28" y="-62" font-family="Helvetica,sans-Serif" font-size="10.00">BLE2902.h</text>
</a>
</g>
</g>
<!-- Node3&#45;&gt;Node7 -->
<g id="edge6" class="edge">
<title>Node3&#45;&gt;Node7</title>
<path fill="none" stroke="#63b8ff" d="M367.21,-109.96C411.85,-101.46 482.56,-87.94 553.07,-74.23"/>
<polygon fill="#63b8ff" stroke="#63b8ff" points="553.87,-77.64 563.02,-72.29 552.53,-70.77 553.87,-77.64"/>
</g>
<!-- Node8 -->
<g id="node8" class="node">
<title>Node8</title>
<g id="a_node8"><a xlink:href="solar_8h.html" target="_top" xlink:title="Solar voltage and current monitoring using INA219 IC.">
<polygon fill="white" stroke="#666666" points="154.28,-74 14.28,-74 14.28,-55 154.28,-55 154.28,-74"/>
<text text-anchor="middle" x="84.28" y="-62" font-family="Helvetica,sans-Serif" font-size="10.00">power_monitoring/solar.h</text>
</a>
</g>
</g>
<!-- Node3&#45;&gt;Node8 -->
<g id="edge7" class="edge">
<title>Node3&#45;&gt;Node8</title>
<path fill="none" stroke="#63b8ff" d="M284.04,-109.98C242.88,-100.82 177.29,-86.21 132.59,-76.26"/>
<polygon fill="#63b8ff" stroke="#63b8ff" points="133.34,-72.84 122.82,-74.08 131.82,-79.67 133.34,-72.84"/>
</g>
<!-- Node10 -->
<g id="node10" class="node">
<title>Node10</title>
<g id="a_node10"><a xlink:href="battery_8h.html" target="_top" xlink:title="Battery voltage and current monitoring using INA219 IC.">
<polygon fill="white" stroke="#666666" points="323.78,-74 172.78,-74 172.78,-55 323.78,-55 323.78,-74"/>
<text text-anchor="middle" x="248.28" y="-62" font-family="Helvetica,sans-Serif" font-size="10.00">power_monitoring/battery.h</text>
</a>
</g>
</g>
<!-- Node3&#45;&gt;Node10 -->
<g id="edge10" class="edge">
<title>Node3&#45;&gt;Node10</title>
<path fill="none" stroke="#63b8ff" d="M310.39,-109.98C299.13,-101.92 282,-89.65 268.57,-80.03"/>
<polygon fill="#63b8ff" stroke="#63b8ff" points="270.56,-77.15 260.39,-74.17 266.48,-82.84 270.56,-77.15"/>
</g>
<!-- Node8&#45;&gt;Node4 -->
<g id="edge8" class="edge">
<title>Node8&#45;&gt;Node4</title>
<path fill="none" stroke="#63b8ff" d="M84.28,-54.75C84.28,-47.8 84.28,-37.85 84.28,-29.13"/>
<polygon fill="#63b8ff" stroke="#63b8ff" points="87.78,-29.09 84.28,-19.09 80.78,-29.09 87.78,-29.09"/>
</g>
<!-- Node9 -->
<g id="node9" class="node">
<title>Node9</title>
<g id="a_node9"><a xlink:title=" ">
<polygon fill="#e0e0e0" stroke="#999999" points="269.78,-19 164.78,-19 164.78,0 269.78,0 269.78,-19"/>
<text text-anchor="middle" x="217.28" y="-7" font-family="Helvetica,sans-Serif" font-size="10.00">Adafruit_INA219.h</text>
</a>
</g>
</g>
<!-- Node8&#45;&gt;Node9 -->
<g id="edge9" class="edge">
<title>Node8&#45;&gt;Node9</title>
<path fill="none" stroke="#63b8ff" d="M105.65,-54.98C127.43,-46.3 161.45,-32.75 186.21,-22.88"/>
<polygon fill="#63b8ff" stroke="#63b8ff" points="187.53,-26.12 195.53,-19.17 184.94,-19.62 187.53,-26.12"/>
</g>
<!-- Node10&#45;&gt;Node4 -->
<g id="edge11" class="edge">
<title>Node10&#45;&gt;Node4</title>
<path fill="none" stroke="#63b8ff" d="M221.93,-54.98C194.52,-46.13 151.39,-32.19 120.72,-22.28"/>
<polygon fill="#63b8ff" stroke="#63b8ff" points="121.43,-18.83 110.84,-19.08 119.28,-25.49 121.43,-18.83"/>
</g>
<!-- Node10&#45;&gt;Node9 -->
<g id="edge12" class="edge">
<title>Node10&#45;&gt;Node9</title>
<path fill="none" stroke="#63b8ff" d="M243.16,-54.75C238.92,-47.49 232.76,-36.95 227.51,-27.98"/>
<polygon fill="#63b8ff" stroke="#63b8ff" points="230.38,-25.95 222.31,-19.09 224.34,-29.49 230.38,-25.95"/>
</g>
</g>
</svg>
