<?xml version="1.0" encoding="UTF-8" standalone="no"?>
<!DOCTYPE svg PUBLIC "-//W3C//DTD SVG 1.1//EN"
 "http://www.w3.org/Graphics/SVG/1.1/DTD/svg11.dtd">
<!-- Generated by graphviz version 2.43.0 (0)
 -->
<!-- Title: firmware/wombat/include/bluetooth/power_monitoring.h Pages: 1 -->
<svg width="505pt" height="236pt"
 viewBox="0.00 0.00 504.50 236.00" xmlns="http://www.w3.org/2000/svg" xmlns:xlink="http://www.w3.org/1999/xlink">
<g id="graph0" class="graph" transform="scale(1 1) rotate(0) translate(4 232)">
<title>firmware/wombat/include/bluetooth/power_monitoring.h</title>
<!-- Node1 -->
<g id="node1" class="node">
<title>Node1</title>
<g id="a_node1"><a xlink:title="Setup BluetoothLE power monitoring information.">
<polygon fill="#999999" stroke="#666666" points="402,-228 235,-228 235,-198 402,-198 402,-228"/>
<text text-anchor="start" x="243" y="-216" font-family="Helvetica,sans-Serif" font-size="10.00">firmware/wombat/include</text>
<text text-anchor="middle" x="318.5" y="-205" font-family="Helvetica,sans-Serif" font-size="10.00">/bluetooth/power_monitoring.h</text>
</a>
</g>
</g>
<!-- Node2 -->
<g id="node2" class="node">
<title>Node2</title>
<g id="a_node2"><a xlink:href="server_8h.html" target="_top" xlink:title="Handle the setup and maintenance of the BLE server and connected clients.">
<polygon fill="white" stroke="#666666" points="300,-162 159,-162 159,-132 300,-132 300,-162"/>
<text text-anchor="start" x="167" y="-150" font-family="Helvetica,sans-Serif" font-size="10.00">firmware/wombat/include</text>
<text text-anchor="middle" x="229.5" y="-139" font-family="Helvetica,sans-Serif" font-size="10.00">/bluetooth/server.h</text>
</a>
</g>
</g>
<!-- Node1&#45;&gt;Node2 -->
<g id="edge1" class="edge">
<title>Node1&#45;&gt;Node2</title>
<path fill="none" stroke="#63b8ff" d="M290.34,-191.75C276.96,-182.13 261.28,-170.86 249.2,-162.16"/>
<polygon fill="#63b8ff" stroke="#63b8ff" points="288.59,-194.8 298.75,-197.8 292.67,-189.12 288.59,-194.8"/>
</g>
<!-- Node9 -->
<g id="node9" class="node">
<title>Node9</title>
<g id="a_node9"><a xlink:href="power__monitoring_8cpp.html" target="_top" xlink:title="BluetoothLE power monitoring service setup and attached to BLE server.">
<polygon fill="white" stroke="#666666" points="496.5,-162 318.5,-162 318.5,-132 496.5,-132 496.5,-162"/>
<text text-anchor="start" x="326.5" y="-150" font-family="Helvetica,sans-Serif" font-size="10.00">firmware/wombat/src</text>
<text text-anchor="middle" x="407.5" y="-139" font-family="Helvetica,sans-Serif" font-size="10.00">/bluetooth/power_monitoring.cpp</text>
</a>
</g>
</g>
<!-- Node1&#45;&gt;Node9 -->
<g id="edge10" class="edge">
<title>Node1&#45;&gt;Node9</title>
<path fill="none" stroke="#63b8ff" d="M346.66,-191.75C360.04,-182.13 375.72,-170.86 387.8,-162.16"/>
<polygon fill="#63b8ff" stroke="#63b8ff" points="344.33,-189.12 338.25,-197.8 348.41,-194.8 344.33,-189.12"/>
</g>
<!-- Node3 -->
<g id="node3" class="node">
<title>Node3</title>
<g id="a_node3"><a xlink:href="uart_8h.html" target="_top" xlink:title="BluetoothLE UART service setup and handling.">
<polygon fill="white" stroke="#666666" points="141,-96 0,-96 0,-66 141,-66 141,-96"/>
<text text-anchor="start" x="8" y="-84" font-family="Helvetica,sans-Serif" font-size="10.00">firmware/wombat/include</text>
<text text-anchor="middle" x="70.5" y="-73" font-family="Helvetica,sans-Serif" font-size="10.00">/bluetooth/uart.h</text>
</a>
</g>
</g>
<!-- Node2&#45;&gt;Node3 -->
<g id="edge2" class="edge">
<title>Node2&#45;&gt;Node3</title>
<path fill="none" stroke="#63b8ff" d="M179.47,-128.32C153.19,-118.14 121.96,-105.51 99.62,-96.01"/>
<polygon fill="#63b8ff" stroke="#63b8ff" points="178.32,-131.63 188.91,-131.95 180.83,-125.1 178.32,-131.63"/>
</g>
<!-- Node5 -->
<g id="node5" class="node">
<title>Node5</title>
<g id="a_node5"><a xlink:href="_c_l_i_8h.html" target="_top" xlink:title="FreeRTOS CLI handler.">
<polygon fill="white" stroke="#666666" points="300,-96 159,-96 159,-66 300,-66 300,-96"/>
<text text-anchor="start" x="167" y="-84" font-family="Helvetica,sans-Serif" font-size="10.00">firmware/wombat/include</text>
<text text-anchor="middle" x="229.5" y="-73" font-family="Helvetica,sans-Serif" font-size="10.00">/cli/CLI.h</text>
</a>
</g>
</g>
<!-- Node2&#45;&gt;Node5 -->
<g id="edge5" class="edge">
<title>Node2&#45;&gt;Node5</title>
<path fill="none" stroke="#63b8ff" d="M222.93,-121.83C222.52,-113.17 222.81,-103.7 223.79,-96.16"/>
<polygon fill="#63b8ff" stroke="#63b8ff" points="219.45,-122.13 223.78,-131.8 226.42,-121.54 219.45,-122.13"/>
</g>
<!-- Node8 -->
<g id="node8" class="node">
<title>Node8</title>
<g id="a_node8"><a xlink:href="server_8cpp.html" target="_top" xlink:title="Setup and start BluetoothLE server.">
<polygon fill="white" stroke="#666666" points="438.5,-96 318.5,-96 318.5,-66 438.5,-66 438.5,-96"/>
<text text-anchor="start" x="326.5" y="-84" font-family="Helvetica,sans-Serif" font-size="10.00">firmware/wombat/src</text>
<text text-anchor="middle" x="378.5" y="-73" font-family="Helvetica,sans-Serif" font-size="10.00">/bluetooth/server.cpp</text>
</a>
</g>
</g>
<!-- Node2&#45;&gt;Node8 -->
<g id="edge9" class="edge">
<title>Node2&#45;&gt;Node8</title>
<path fill="none" stroke="#63b8ff" d="M271.59,-127.92C295.14,-117.8 324.06,-105.38 345.88,-96.01"/>
<polygon fill="#63b8ff" stroke="#63b8ff" points="270.01,-124.79 262.2,-131.95 272.77,-131.22 270.01,-124.79"/>
</g>
<!-- Node3&#45;&gt;Node2 -->
<g id="edge3" class="edge">
<title>Node3&#45;&gt;Node2</title>
<path fill="none" stroke="#63b8ff" d="M120.44,-99.64C146.71,-109.82 177.94,-122.45 200.31,-131.95"/>
<polygon fill="#63b8ff" stroke="#63b8ff" points="121.6,-96.34 111.01,-96.01 119.08,-102.87 121.6,-96.34"/>
</g>
<!-- Node4 -->
<g id="node4" class="node">
<title>Node4</title>
<g id="a_node4"><a xlink:href="uart_8cpp.html" target="_top" xlink:title="BluetoothLE UART service setup and handling.">
<polygon fill="white" stroke="#666666" points="130.5,-30 10.5,-30 10.5,0 130.5,0 130.5,-30"/>
<text text-anchor="start" x="18.5" y="-18" font-family="Helvetica,sans-Serif" font-size="10.00">firmware/wombat/src</text>
<text text-anchor="middle" x="70.5" y="-7" font-family="Helvetica,sans-Serif" font-size="10.00">/bluetooth/uart.cpp</text>
</a>
</g>
</g>
<!-- Node3&#45;&gt;Node4 -->
<g id="edge4" class="edge">
<title>Node3&#45;&gt;Node4</title>
<path fill="none" stroke="#63b8ff" d="M70.5,-55.54C70.5,-46.96 70.5,-37.61 70.5,-30.16"/>
<polygon fill="#63b8ff" stroke="#63b8ff" points="67,-55.8 70.5,-65.8 74,-55.8 67,-55.8"/>
</g>
<!-- Node5&#45;&gt;Node2 -->
<g id="edge6" class="edge">
<title>Node5&#45;&gt;Node2</title>
<path fill="none" stroke="#63b8ff" d="M236.07,-106.13C236.48,-114.78 236.2,-124.26 235.22,-131.8"/>
<polygon fill="#63b8ff" stroke="#63b8ff" points="239.55,-105.83 235.21,-96.16 232.58,-106.43 239.55,-105.83"/>
</g>
<!-- Node6 -->
<g id="node6" class="node">
<title>Node6</title>
<g id="a_node6"><a xlink:href="_c_l_i_8cpp.html" target="_top" xlink:title="FreeRTOS CLI handler.">
<polygon fill="white" stroke="#666666" points="278.5,-30 158.5,-30 158.5,0 278.5,0 278.5,-30"/>
<text text-anchor="start" x="166.5" y="-18" font-family="Helvetica,sans-Serif" font-size="10.00">firmware/wombat/src</text>
<text text-anchor="middle" x="218.5" y="-7" font-family="Helvetica,sans-Serif" font-size="10.00">/cli/CLI.cpp</text>
</a>
</g>
</g>
<!-- Node5&#45;&gt;Node6 -->
<g id="edge7" class="edge">
<title>Node5&#45;&gt;Node6</title>
<path fill="none" stroke="#63b8ff" d="M225.34,-55.83C223.86,-47.17 222.23,-37.7 220.93,-30.16"/>
<polygon fill="#63b8ff" stroke="#63b8ff" points="221.92,-56.53 227.06,-65.8 228.81,-55.35 221.92,-56.53"/>
</g>
<!-- Node7 -->
<g id="node7" class="node">
<title>Node7</title>
<g id="a_node7"><a xlink:href="main_8cpp.html" target="_top" xlink:title=" ">
<polygon fill="white" stroke="#666666" points="416.5,-30 296.5,-30 296.5,0 416.5,0 416.5,-30"/>
<text text-anchor="start" x="304.5" y="-18" font-family="Helvetica,sans-Serif" font-size="10.00">firmware/wombat/src</text>
<text text-anchor="middle" x="356.5" y="-7" font-family="Helvetica,sans-Serif" font-size="10.00">/main.cpp</text>
</a>
</g>
</g>
<!-- Node5&#45;&gt;Node7 -->
<g id="edge8" class="edge">
<title>Node5&#45;&gt;Node7</title>
<path fill="none" stroke="#63b8ff" d="M266.45,-61.38C286.33,-51.36 310.43,-39.22 328.69,-30.01"/>
<polygon fill="#63b8ff" stroke="#63b8ff" points="264.73,-58.33 257.37,-65.95 267.88,-64.58 264.73,-58.33"/>
</g>
</g>
</svg>
