<?xml version="1.0" encoding="UTF-8" standalone="no"?>
<!DOCTYPE svg PUBLIC "-//W3C//DTD SVG 1.1//EN"
 "http://www.w3.org/Graphics/SVG/1.1/DTD/svg11.dtd">
<!-- Generated by graphviz version 2.43.0 (0)
 -->
<!-- Title: firmware/wombat/include/bluetooth/power_monitoring.h Pages: 1 -->
<svg width="574pt" height="302pt"
 viewBox="0.00 0.00 573.50 302.00" xmlns="http://www.w3.org/2000/svg" xmlns:xlink="http://www.w3.org/1999/xlink">
<g id="graph0" class="graph" transform="scale(1 1) rotate(0) translate(4 298)">
<title>firmware/wombat/include/bluetooth/power_monitoring.h</title>
<!-- Node1 -->
<g id="node1" class="node">
<title>Node1</title>
<g id="a_node1"><a xlink:title="Setup BluetoothLE power monitoring information.">
<polygon fill="#999999" stroke="#666666" points="405,-294 238,-294 238,-264 405,-264 405,-294"/>
<text text-anchor="start" x="246" y="-282" font-family="Helvetica,sans-Serif" font-size="10.00">firmware/wombat/include</text>
<text text-anchor="middle" x="321.5" y="-271" font-family="Helvetica,sans-Serif" font-size="10.00">/bluetooth/power_monitoring.h</text>
</a>
</g>
</g>
<!-- Node2 -->
<g id="node2" class="node">
<title>Node2</title>
<g id="a_node2"><a xlink:href="server_8h.html" target="_top" xlink:title="Handle the setup and maintenance of the BLE server and connected clients.">
<polygon fill="white" stroke="#666666" points="303,-228 162,-228 162,-198 303,-198 303,-228"/>
<text text-anchor="start" x="170" y="-216" font-family="Helvetica,sans-Serif" font-size="10.00">firmware/wombat/include</text>
<text text-anchor="middle" x="232.5" y="-205" font-family="Helvetica,sans-Serif" font-size="10.00">/bluetooth/server.h</text>
</a>
</g>
</g>
<!-- Node1&#45;&gt;Node2 -->
<g id="edge1" class="edge">
<title>Node1&#45;&gt;Node2</title>
<path fill="none" stroke="#63b8ff" d="M293.34,-257.75C279.96,-248.13 264.28,-236.86 252.2,-228.16"/>
<polygon fill="#63b8ff" stroke="#63b8ff" points="291.59,-260.8 301.75,-263.8 295.67,-255.12 291.59,-260.8"/>
</g>
<!-- Node11 -->
<g id="node11" class="node">
<title>Node11</title>
<g id="a_node11"><a xlink:href="power__monitoring_8cpp.html" target="_top" xlink:title="BluetoothLE power monitoring service setup and attached to BLE server.">
<polygon fill="white" stroke="#666666" points="499.5,-228 321.5,-228 321.5,-198 499.5,-198 499.5,-228"/>
<text text-anchor="start" x="329.5" y="-216" font-family="Helvetica,sans-Serif" font-size="10.00">firmware/wombat/src</text>
<text text-anchor="middle" x="410.5" y="-205" font-family="Helvetica,sans-Serif" font-size="10.00">/bluetooth/power_monitoring.cpp</text>
</a>
</g>
</g>
<!-- Node1&#45;&gt;Node11 -->
<g id="edge12" class="edge">
<title>Node1&#45;&gt;Node11</title>
<path fill="none" stroke="#63b8ff" d="M349.66,-257.75C363.04,-248.13 378.72,-236.86 390.8,-228.16"/>
<polygon fill="#63b8ff" stroke="#63b8ff" points="347.33,-255.12 341.25,-263.8 351.41,-260.8 347.33,-255.12"/>
</g>
<!-- Node3 -->
<g id="node3" class="node">
<title>Node3</title>
<g id="a_node3"><a xlink:href="uart_8h.html" target="_top" xlink:title="BluetoothLE UART service setup and handling.">
<polygon fill="white" stroke="#666666" points="141,-162 0,-162 0,-132 141,-132 141,-162"/>
<text text-anchor="start" x="8" y="-150" font-family="Helvetica,sans-Serif" font-size="10.00">firmware/wombat/include</text>
<text text-anchor="middle" x="70.5" y="-139" font-family="Helvetica,sans-Serif" font-size="10.00">/bluetooth/uart.h</text>
</a>
</g>
</g>
<!-- Node2&#45;&gt;Node3 -->
<g id="edge2" class="edge">
<title>Node2&#45;&gt;Node3</title>
<path fill="none" stroke="#63b8ff" d="M181.64,-194.32C154.88,-184.14 123.06,-171.51 100.27,-162.01"/>
<polygon fill="#63b8ff" stroke="#63b8ff" points="180.66,-197.69 191.25,-197.95 183.13,-191.14 180.66,-197.69"/>
</g>
<!-- Node5 -->
<g id="node5" class="node">
<title>Node5</title>
<g id="a_node5"><a xlink:href="bluetooth_8h.html" target="_top" xlink:title=" ">
<polygon fill="white" stroke="#666666" points="306,-162 159,-162 159,-132 306,-132 306,-162"/>
<text text-anchor="start" x="167" y="-150" font-family="Helvetica,sans-Serif" font-size="10.00">firmware/wombat/include</text>
<text text-anchor="middle" x="232.5" y="-139" font-family="Helvetica,sans-Serif" font-size="10.00">/cli/peripherals/bluetooth.h</text>
</a>
</g>
</g>
<!-- Node2&#45;&gt;Node5 -->
<g id="edge5" class="edge">
<title>Node2&#45;&gt;Node5</title>
<path fill="none" stroke="#63b8ff" d="M232.5,-187.54C232.5,-178.96 232.5,-169.61 232.5,-162.16"/>
<polygon fill="#63b8ff" stroke="#63b8ff" points="229,-187.8 232.5,-197.8 236,-187.8 229,-187.8"/>
</g>
<!-- Node10 -->
<g id="node10" class="node">
<title>Node10</title>
<g id="a_node10"><a xlink:href="server_8cpp.html" target="_top" xlink:title="Setup and start BluetoothLE server.">
<polygon fill="white" stroke="#666666" points="444.5,-162 324.5,-162 324.5,-132 444.5,-132 444.5,-162"/>
<text text-anchor="start" x="332.5" y="-150" font-family="Helvetica,sans-Serif" font-size="10.00">firmware/wombat/src</text>
<text text-anchor="middle" x="384.5" y="-139" font-family="Helvetica,sans-Serif" font-size="10.00">/bluetooth/server.cpp</text>
</a>
</g>
</g>
<!-- Node2&#45;&gt;Node10 -->
<g id="edge11" class="edge">
<title>Node2&#45;&gt;Node10</title>
<path fill="none" stroke="#63b8ff" d="M275.12,-194.05C299.2,-183.91 328.86,-171.43 351.22,-162.01"/>
<polygon fill="#63b8ff" stroke="#63b8ff" points="273.72,-190.85 265.86,-197.95 276.43,-197.3 273.72,-190.85"/>
</g>
<!-- Node3&#45;&gt;Node2 -->
<g id="edge3" class="edge">
<title>Node3&#45;&gt;Node2</title>
<path fill="none" stroke="#63b8ff" d="M121.26,-165.64C148.01,-175.82 179.84,-188.45 202.65,-197.95"/>
<polygon fill="#63b8ff" stroke="#63b8ff" points="122.26,-162.28 111.66,-162.01 119.78,-168.82 122.26,-162.28"/>
</g>
<!-- Node4 -->
<g id="node4" class="node">
<title>Node4</title>
<g id="a_node4"><a xlink:href="uart_8cpp.html" target="_top" xlink:title="BluetoothLE UART service setup and handling.">
<polygon fill="white" stroke="#666666" points="130.5,-96 10.5,-96 10.5,-66 130.5,-66 130.5,-96"/>
<text text-anchor="start" x="18.5" y="-84" font-family="Helvetica,sans-Serif" font-size="10.00">firmware/wombat/src</text>
<text text-anchor="middle" x="70.5" y="-73" font-family="Helvetica,sans-Serif" font-size="10.00">/bluetooth/uart.cpp</text>
</a>
</g>
</g>
<!-- Node3&#45;&gt;Node4 -->
<g id="edge4" class="edge">
<title>Node3&#45;&gt;Node4</title>
<path fill="none" stroke="#63b8ff" d="M70.5,-121.54C70.5,-112.96 70.5,-103.61 70.5,-96.16"/>
<polygon fill="#63b8ff" stroke="#63b8ff" points="67,-121.8 70.5,-131.8 74,-121.8 67,-121.8"/>
</g>
<!-- Node6 -->
<g id="node6" class="node">
<title>Node6</title>
<g id="a_node6"><a xlink:href="_c_l_i_8h.html" target="_top" xlink:title=" ">
<polygon fill="white" stroke="#666666" points="507,-96 366,-96 366,-66 507,-66 507,-96"/>
<text text-anchor="start" x="374" y="-84" font-family="Helvetica,sans-Serif" font-size="10.00">firmware/wombat/include</text>
<text text-anchor="middle" x="436.5" y="-73" font-family="Helvetica,sans-Serif" font-size="10.00">/cli/CLI.h</text>
</a>
</g>
</g>
<!-- Node5&#45;&gt;Node6 -->
<g id="edge6" class="edge">
<title>Node5&#45;&gt;Node6</title>
<path fill="none" stroke="#63b8ff" d="M287.15,-128.86C319.9,-118.58 361.03,-105.68 391.84,-96.01"/>
<polygon fill="#63b8ff" stroke="#63b8ff" points="285.76,-125.62 277.27,-131.95 287.86,-132.3 285.76,-125.62"/>
</g>
<!-- Node9 -->
<g id="node9" class="node">
<title>Node9</title>
<g id="a_node9"><a xlink:href="bluetooth_8cpp.html" target="_top" xlink:title=" ">
<polygon fill="white" stroke="#666666" points="311.5,-96 153.5,-96 153.5,-66 311.5,-66 311.5,-96"/>
<text text-anchor="start" x="161.5" y="-84" font-family="Helvetica,sans-Serif" font-size="10.00">firmware/wombat/src</text>
<text text-anchor="middle" x="232.5" y="-73" font-family="Helvetica,sans-Serif" font-size="10.00">/cli/peripherals/bluetooth.cpp</text>
</a>
</g>
</g>
<!-- Node5&#45;&gt;Node9 -->
<g id="edge10" class="edge">
<title>Node5&#45;&gt;Node9</title>
<path fill="none" stroke="#63b8ff" d="M232.5,-121.54C232.5,-112.96 232.5,-103.61 232.5,-96.16"/>
<polygon fill="#63b8ff" stroke="#63b8ff" points="229,-121.8 232.5,-131.8 236,-121.8 229,-121.8"/>
</g>
<!-- Node6&#45;&gt;Node2 -->
<g id="edge7" class="edge">
<title>Node6&#45;&gt;Node2</title>
<path fill="none" stroke="#63b8ff" d="M450.54,-104.96C459.18,-122.35 466.36,-145.9 453.5,-162 448.66,-168.06 365.87,-185.64 303.03,-198.24"/>
<polygon fill="#63b8ff" stroke="#63b8ff" points="453.55,-103.16 445.71,-96.02 447.39,-106.49 453.55,-103.16"/>
</g>
<!-- Node7 -->
<g id="node7" class="node">
<title>Node7</title>
<g id="a_node7"><a xlink:href="_c_l_i_8cpp.html" target="_top" xlink:title=" ">
<polygon fill="white" stroke="#666666" points="427.5,-30 307.5,-30 307.5,0 427.5,0 427.5,-30"/>
<text text-anchor="start" x="315.5" y="-18" font-family="Helvetica,sans-Serif" font-size="10.00">firmware/wombat/src</text>
<text text-anchor="middle" x="367.5" y="-7" font-family="Helvetica,sans-Serif" font-size="10.00">/cli/CLI.cpp</text>
</a>
</g>
</g>
<!-- Node6&#45;&gt;Node7 -->
<g id="edge8" class="edge">
<title>Node6&#45;&gt;Node7</title>
<path fill="none" stroke="#63b8ff" d="M413.78,-58.92C403.6,-49.49 391.87,-38.61 382.77,-30.16"/>
<polygon fill="#63b8ff" stroke="#63b8ff" points="411.47,-61.56 421.19,-65.8 416.24,-56.43 411.47,-61.56"/>
</g>
<!-- Node8 -->
<g id="node8" class="node">
<title>Node8</title>
<g id="a_node8"><a xlink:href="main_8cpp.html" target="_top" xlink:title=" ">
<polygon fill="white" stroke="#666666" points="565.5,-30 445.5,-30 445.5,0 565.5,0 565.5,-30"/>
<text text-anchor="start" x="453.5" y="-18" font-family="Helvetica,sans-Serif" font-size="10.00">firmware/wombat/src</text>
<text text-anchor="middle" x="505.5" y="-7" font-family="Helvetica,sans-Serif" font-size="10.00">/main.cpp</text>
</a>
</g>
</g>
<!-- Node6&#45;&gt;Node8 -->
<g id="edge9" class="edge">
<title>Node6&#45;&gt;Node8</title>
<path fill="none" stroke="#63b8ff" d="M459.22,-58.92C469.4,-49.49 481.13,-38.61 490.23,-30.16"/>
<polygon fill="#63b8ff" stroke="#63b8ff" points="456.76,-56.43 451.81,-65.8 461.53,-61.56 456.76,-56.43"/>
</g>
</g>
</svg>
