<?xml version="1.0" encoding="UTF-8" standalone="no"?>
<!DOCTYPE svg PUBLIC "-//W3C//DTD SVG 1.1//EN"
 "http://www.w3.org/Graphics/SVG/1.1/DTD/svg11.dtd">
<!-- Generated by graphviz version 2.43.0 (0)
 -->
<!-- Title: firmware/wombat/include/cli/peripherals/sd_card.h Pages: 1 -->
<svg width="1586pt" height="181pt"
 viewBox="0.00 0.00 1586.00 181.00" xmlns="http://www.w3.org/2000/svg" xmlns:xlink="http://www.w3.org/1999/xlink">
<g id="graph0" class="graph" transform="scale(1 1) rotate(0) translate(4 177)">
<title>firmware/wombat/include/cli/peripherals/sd_card.h</title>
<!-- Node1 -->
<g id="node1" class="node">
<title>Node1</title>
<g id="a_node1"><a xlink:title=" ">
<polygon fill="#999999" stroke="#666666" points="996.5,-173 855.5,-173 855.5,-143 996.5,-143 996.5,-173"/>
<text text-anchor="start" x="863.5" y="-161" font-family="Helvetica,sans-Serif" font-size="10.00">firmware/wombat/include</text>
<text text-anchor="middle" x="926" y="-150" font-family="Helvetica,sans-Serif" font-size="10.00">/cli/peripherals/sd_card.h</text>
</a>
</g>
</g>
<!-- Node2 -->
<g id="node2" class="node">
<title>Node2</title>
<g id="a_node2"><a xlink:href="_c_l_i_8h.html" target="_top" xlink:title="FreeRTOS CLI handler.">
<polygon fill="white" stroke="#666666" points="947.5,-107 806.5,-107 806.5,-77 947.5,-77 947.5,-107"/>
<text text-anchor="start" x="814.5" y="-95" font-family="Helvetica,sans-Serif" font-size="10.00">firmware/wombat/include</text>
<text text-anchor="middle" x="877" y="-84" font-family="Helvetica,sans-Serif" font-size="10.00">/cli/CLI.h</text>
</a>
</g>
</g>
<!-- Node1&#45;&gt;Node2 -->
<g id="edge1" class="edge">
<title>Node1&#45;&gt;Node2</title>
<path fill="none" stroke="#63b8ff" d="M909.01,-134.81C901.99,-125.64 894.06,-115.28 887.84,-107.16"/>
<polygon fill="#63b8ff" stroke="#63b8ff" points="906.27,-136.98 915.13,-142.8 911.83,-132.73 906.27,-136.98"/>
</g>
<!-- Node10 -->
<g id="node10" class="node">
<title>Node10</title>
<g id="a_node10"><a xlink:href="sd__card_8cpp.html" target="_top" xlink:title=" ">
<polygon fill="white" stroke="#666666" points="1578,-41 1458,-41 1458,0 1578,0 1578,-41"/>
<text text-anchor="start" x="1466" y="-29" font-family="Helvetica,sans-Serif" font-size="10.00">firmware/wombat/src</text>
<text text-anchor="start" x="1466" y="-18" font-family="Helvetica,sans-Serif" font-size="10.00">/cli/peripherals/sd</text>
<text text-anchor="middle" x="1518" y="-7" font-family="Helvetica,sans-Serif" font-size="10.00">_card.cpp</text>
</a>
</g>
</g>
<!-- Node1&#45;&gt;Node10 -->
<g id="edge13" class="edge">
<title>Node1&#45;&gt;Node10</title>
<path fill="none" stroke="#63b8ff" d="M1005.24,-140.9C1107.98,-119.68 1292.55,-80.42 1449,-41 1451.9,-40.27 1454.86,-39.51 1457.84,-38.72"/>
<polygon fill="#63b8ff" stroke="#63b8ff" points="1004.34,-137.51 995.25,-142.96 1005.75,-144.37 1004.34,-137.51"/>
</g>
<!-- Node3 -->
<g id="node3" class="node">
<title>Node3</title>
<g id="a_node3"><a xlink:href="_c_l_i_8cpp.html" target="_top" xlink:title="FreeRTOS CLI handler.">
<polygon fill="white" stroke="#666666" points="120,-35.5 0,-35.5 0,-5.5 120,-5.5 120,-35.5"/>
<text text-anchor="start" x="8" y="-23.5" font-family="Helvetica,sans-Serif" font-size="10.00">firmware/wombat/src</text>
<text text-anchor="middle" x="60" y="-12.5" font-family="Helvetica,sans-Serif" font-size="10.00">/cli/CLI.cpp</text>
</a>
</g>
</g>
<!-- Node2&#45;&gt;Node3 -->
<g id="edge2" class="edge">
<title>Node2&#45;&gt;Node3</title>
<path fill="none" stroke="#63b8ff" d="M796.23,-91.1C658.37,-90.04 369.23,-82.51 129,-41 121.03,-39.62 112.65,-37.69 104.6,-35.57"/>
<polygon fill="#63b8ff" stroke="#63b8ff" points="796.27,-94.6 806.3,-91.16 796.32,-87.6 796.27,-94.6"/>
</g>
<!-- Node4 -->
<g id="node4" class="node">
<title>Node4</title>
<g id="a_node4"><a xlink:href="acquisition__intervals_8cpp.html" target="_top" xlink:title="Handles the time between measurements and uplinks by the device over LTE.">
<polygon fill="white" stroke="#666666" points="295.5,-41 138.5,-41 138.5,0 295.5,0 295.5,-41"/>
<text text-anchor="start" x="146.5" y="-29" font-family="Helvetica,sans-Serif" font-size="10.00">firmware/wombat/src</text>
<text text-anchor="start" x="146.5" y="-18" font-family="Helvetica,sans-Serif" font-size="10.00">/cli/device_config/acquisition</text>
<text text-anchor="middle" x="217" y="-7" font-family="Helvetica,sans-Serif" font-size="10.00">_intervals.cpp</text>
</a>
</g>
</g>
<!-- Node2&#45;&gt;Node4 -->
<g id="edge3" class="edge">
<title>Node2&#45;&gt;Node4</title>
<path fill="none" stroke="#63b8ff" d="M796.06,-87.27C684.88,-81.38 478.89,-67.75 305,-41 301.91,-40.52 298.76,-40 295.59,-39.45"/>
<polygon fill="#63b8ff" stroke="#63b8ff" points="796.03,-90.77 806.2,-87.8 796.39,-83.78 796.03,-90.77"/>
</g>
<!-- Node5 -->
<g id="node5" class="node">
<title>Node5</title>
<g id="a_node5"><a xlink:href="cli__power_8cpp.html" target="_top" xlink:title="Power related commands.">
<polygon fill="white" stroke="#666666" points="434,-41 314,-41 314,0 434,0 434,-41"/>
<text text-anchor="start" x="322" y="-29" font-family="Helvetica,sans-Serif" font-size="10.00">firmware/wombat/src</text>
<text text-anchor="start" x="322" y="-18" font-family="Helvetica,sans-Serif" font-size="10.00">/cli/device_config/cli</text>
<text text-anchor="middle" x="374" y="-7" font-family="Helvetica,sans-Serif" font-size="10.00">_power.cpp</text>
</a>
</g>
</g>
<!-- Node2&#45;&gt;Node5 -->
<g id="edge4" class="edge">
<title>Node2&#45;&gt;Node5</title>
<path fill="none" stroke="#63b8ff" d="M796.04,-85.58C708.41,-78.81 564.85,-65.08 443,-41 440.07,-40.42 437.08,-39.78 434.07,-39.09"/>
<polygon fill="#63b8ff" stroke="#63b8ff" points="795.94,-89.08 806.18,-86.35 796.47,-82.1 795.94,-89.08"/>
</g>
<!-- Node6 -->
<g id="node6" class="node">
<title>Node6</title>
<g id="a_node6"><a xlink:href="config__cli_8cpp.html" target="_top" xlink:title="Command line interface node configuration commands.">
<polygon fill="white" stroke="#666666" points="585.5,-41 452.5,-41 452.5,0 585.5,0 585.5,-41"/>
<text text-anchor="start" x="460.5" y="-29" font-family="Helvetica,sans-Serif" font-size="10.00">firmware/wombat/src</text>
<text text-anchor="start" x="460.5" y="-18" font-family="Helvetica,sans-Serif" font-size="10.00">/cli/device_config/config</text>
<text text-anchor="middle" x="519" y="-7" font-family="Helvetica,sans-Serif" font-size="10.00">_cli.cpp</text>
</a>
</g>
</g>
<!-- Node2&#45;&gt;Node6 -->
<g id="edge5" class="edge">
<title>Node2&#45;&gt;Node6</title>
<path fill="none" stroke="#63b8ff" d="M796.35,-78.37C739.78,-69.1 662.5,-55.62 595,-41 591.94,-40.34 588.81,-39.64 585.66,-38.91"/>
<polygon fill="#63b8ff" stroke="#63b8ff" points="795.87,-81.83 806.31,-79.99 797,-74.93 795.87,-81.83"/>
</g>
<!-- Node7 -->
<g id="node7" class="node">
<title>Node7</title>
<g id="a_node7"><a xlink:href="ftp__cli_8cpp.html" target="_top" xlink:title="FTP setup and configuration through the CLI.">
<polygon fill="white" stroke="#666666" points="724,-41 604,-41 604,0 724,0 724,-41"/>
<text text-anchor="start" x="612" y="-29" font-family="Helvetica,sans-Serif" font-size="10.00">firmware/wombat/src</text>
<text text-anchor="start" x="612" y="-18" font-family="Helvetica,sans-Serif" font-size="10.00">/cli/device_config/ftp</text>
<text text-anchor="middle" x="664" y="-7" font-family="Helvetica,sans-Serif" font-size="10.00">_cli.cpp</text>
</a>
</g>
</g>
<!-- Node2&#45;&gt;Node7 -->
<g id="edge6" class="edge">
<title>Node2&#45;&gt;Node7</title>
<path fill="none" stroke="#63b8ff" d="M824.32,-73.81C793.91,-63.89 755.56,-51.37 723.99,-41.07"/>
<polygon fill="#63b8ff" stroke="#63b8ff" points="823.3,-77.16 833.9,-76.94 825.48,-70.51 823.3,-77.16"/>
</g>
<!-- Node8 -->
<g id="node8" class="node">
<title>Node8</title>
<g id="a_node8"><a xlink:href="mqtt__cli_8cpp.html" target="_top" xlink:title="MQTT setup and configuration through the CLI.">
<polygon fill="white" stroke="#666666" points="869.5,-41 742.5,-41 742.5,0 869.5,0 869.5,-41"/>
<text text-anchor="start" x="750.5" y="-29" font-family="Helvetica,sans-Serif" font-size="10.00">firmware/wombat/src</text>
<text text-anchor="start" x="750.5" y="-18" font-family="Helvetica,sans-Serif" font-size="10.00">/cli/device_config/mqtt</text>
<text text-anchor="middle" x="806" y="-7" font-family="Helvetica,sans-Serif" font-size="10.00">_cli.cpp</text>
</a>
</g>
</g>
<!-- Node2&#45;&gt;Node8 -->
<g id="edge7" class="edge">
<title>Node2&#45;&gt;Node8</title>
<path fill="none" stroke="#63b8ff" d="M855.23,-69.69C845.91,-60.57 835.11,-49.99 826,-41.07"/>
<polygon fill="#63b8ff" stroke="#63b8ff" points="853.04,-72.44 862.63,-76.94 857.93,-67.44 853.04,-72.44"/>
</g>
<!-- Node9 -->
<g id="node9" class="node">
<title>Node9</title>
<g id="a_node9"><a xlink:href="cat-m1_8cpp.html" target="_top" xlink:title="CAT&#45;M1 CLI command request and response handler.">
<polygon fill="white" stroke="#666666" points="1008,-41 888,-41 888,0 1008,0 1008,-41"/>
<text text-anchor="start" x="896" y="-29" font-family="Helvetica,sans-Serif" font-size="10.00">firmware/wombat/src</text>
<text text-anchor="start" x="896" y="-18" font-family="Helvetica,sans-Serif" font-size="10.00">/cli/peripherals/cat</text>
<text text-anchor="middle" x="948" y="-7" font-family="Helvetica,sans-Serif" font-size="10.00">&#45;m1.cpp</text>
</a>
</g>
</g>
<!-- Node2&#45;&gt;Node9 -->
<g id="edge8" class="edge">
<title>Node2&#45;&gt;Node9</title>
<path fill="none" stroke="#63b8ff" d="M898.77,-69.69C908.09,-60.57 918.89,-49.99 928,-41.07"/>
<polygon fill="#63b8ff" stroke="#63b8ff" points="896.07,-67.44 891.37,-76.94 900.96,-72.44 896.07,-67.44"/>
</g>
<!-- Node2&#45;&gt;Node10 -->
<g id="edge9" class="edge">
<title>Node2&#45;&gt;Node10</title>
<path fill="none" stroke="#63b8ff" d="M957.72,-88.72C1069.07,-84.5 1275.71,-72.77 1449,-41 1451.94,-40.46 1454.93,-39.85 1457.95,-39.19"/>
<polygon fill="#63b8ff" stroke="#63b8ff" points="957.44,-85.23 947.57,-89.1 957.69,-92.23 957.44,-85.23"/>
</g>
<!-- Node11 -->
<g id="node11" class="node">
<title>Node11</title>
<g id="a_node11"><a xlink:href="sdi12_8cpp.html" target="_top" xlink:title="SDI&#45;12 command line interface handler.">
<polygon fill="white" stroke="#666666" points="1164,-35.5 1026,-35.5 1026,-5.5 1164,-5.5 1164,-35.5"/>
<text text-anchor="start" x="1034" y="-23.5" font-family="Helvetica,sans-Serif" font-size="10.00">firmware/wombat/src</text>
<text text-anchor="middle" x="1095" y="-12.5" font-family="Helvetica,sans-Serif" font-size="10.00">/cli/peripherals/sdi12.cpp</text>
</a>
</g>
</g>
<!-- Node2&#45;&gt;Node11 -->
<g id="edge10" class="edge">
<title>Node2&#45;&gt;Node11</title>
<path fill="none" stroke="#63b8ff" d="M930.74,-73.87C967.72,-62.08 1016.25,-46.61 1050.95,-35.54"/>
<polygon fill="#63b8ff" stroke="#63b8ff" points="929.58,-70.56 921.12,-76.94 931.71,-77.23 929.58,-70.56"/>
</g>
<!-- Node12 -->
<g id="node12" class="node">
<title>Node12</title>
<g id="a_node12"><a xlink:href="main_8cpp.html" target="_top" xlink:title=" ">
<polygon fill="white" stroke="#666666" points="1302,-35.5 1182,-35.5 1182,-5.5 1302,-5.5 1302,-35.5"/>
<text text-anchor="start" x="1190" y="-23.5" font-family="Helvetica,sans-Serif" font-size="10.00">firmware/wombat/src</text>
<text text-anchor="middle" x="1242" y="-12.5" font-family="Helvetica,sans-Serif" font-size="10.00">/main.cpp</text>
</a>
</g>
</g>
<!-- Node2&#45;&gt;Node12 -->
<g id="edge11" class="edge">
<title>Node2&#45;&gt;Node12</title>
<path fill="none" stroke="#63b8ff" d="M957.82,-79.76C1017.59,-70.86 1100.78,-57.25 1173,-41 1180.17,-39.39 1187.69,-37.48 1195.04,-35.51"/>
<polygon fill="#63b8ff" stroke="#63b8ff" points="957.07,-76.33 947.69,-81.25 958.1,-83.26 957.07,-76.33"/>
</g>
<!-- Node13 -->
<g id="node13" class="node">
<title>Node13</title>
<g id="a_node13"><a xlink:href="mqtt__stack_8cpp.html" target="_top" xlink:title=" ">
<polygon fill="white" stroke="#666666" points="1440,-35.5 1320,-35.5 1320,-5.5 1440,-5.5 1440,-35.5"/>
<text text-anchor="start" x="1328" y="-23.5" font-family="Helvetica,sans-Serif" font-size="10.00">firmware/wombat/src</text>
<text text-anchor="middle" x="1380" y="-12.5" font-family="Helvetica,sans-Serif" font-size="10.00">/mqtt_stack.cpp</text>
</a>
</g>
</g>
<!-- Node2&#45;&gt;Node13 -->
<g id="edge12" class="edge">
<title>Node2&#45;&gt;Node13</title>
<path fill="none" stroke="#63b8ff" d="M957.96,-85.58C1045.59,-78.81 1189.15,-65.08 1311,-41 1318.57,-39.5 1326.52,-37.59 1334.23,-35.55"/>
<polygon fill="#63b8ff" stroke="#63b8ff" points="957.53,-82.1 947.82,-86.35 958.06,-89.08 957.53,-82.1"/>
</g>
</g>
</svg>
