<?xml version="1.0" encoding="UTF-8" standalone="no"?>
<!DOCTYPE svg PUBLIC "-//W3C//DTD SVG 1.1//EN"
 "http://www.w3.org/Graphics/SVG/1.1/DTD/svg11.dtd">
<!-- Generated by graphviz version 2.43.0 (0)
 -->
<!-- Title: firmware/wombat/src/cli/peripherals/sd_card.cpp Pages: 1 -->
<svg width="1699pt" height="335pt"
 viewBox="0.00 0.00 1698.50 335.00" xmlns="http://www.w3.org/2000/svg" xmlns:xlink="http://www.w3.org/1999/xlink">
<g id="graph0" class="graph" transform="scale(1 1) rotate(0) translate(4 331)">
<title>firmware/wombat/src/cli/peripherals/sd_card.cpp</title>
<!-- Node1 -->
<g id="node1" class="node">
<title>Node1</title>
<g id="a_node1"><a xlink:title=" ">
<polygon fill="#999999" stroke="#666666" points="840.5,-327 720.5,-327 720.5,-286 840.5,-286 840.5,-327"/>
<text text-anchor="start" x="728.5" y="-315" font-family="Helvetica,sans-Serif" font-size="10.00">firmware/wombat/src</text>
<text text-anchor="start" x="728.5" y="-304" font-family="Helvetica,sans-Serif" font-size="10.00">/cli/peripherals/sd</text>
<text text-anchor="middle" x="780.5" y="-293" font-family="Helvetica,sans-Serif" font-size="10.00">_card.cpp</text>
</a>
</g>
</g>
<!-- Node2 -->
<g id="node2" class="node">
<title>Node2</title>
<g id="a_node2"><a xlink:href="sd__card_8h.html" target="_top" xlink:title=" ">
<polygon fill="white" stroke="#666666" points="254.5,-195 154.5,-195 154.5,-165 254.5,-165 254.5,-195"/>
<text text-anchor="start" x="162.5" y="-183" font-family="Helvetica,sans-Serif" font-size="10.00">cli/peripherals/sd</text>
<text text-anchor="middle" x="204.5" y="-172" font-family="Helvetica,sans-Serif" font-size="10.00">_card.h</text>
</a>
</g>
</g>
<!-- Node1&#45;&gt;Node2 -->
<g id="edge1" class="edge">
<title>Node1&#45;&gt;Node2</title>
<path fill="none" stroke="#63b8ff" d="M720.19,-292.54C624.45,-271.96 431.78,-230.48 268.5,-195 267.25,-194.73 265.99,-194.45 264.71,-194.18"/>
<polygon fill="#63b8ff" stroke="#63b8ff" points="265.32,-190.73 254.81,-192.02 263.83,-197.57 265.32,-190.73"/>
</g>
<!-- Node3 -->
<g id="node3" class="node">
<title>Node3</title>
<g id="a_node3"><a xlink:title=" ">
<polygon fill="#e0e0e0" stroke="#999999" points="930,-129 817,-129 817,-110 930,-110 930,-129"/>
<text text-anchor="middle" x="873.5" y="-117" font-family="Helvetica,sans-Serif" font-size="10.00">freertos/FreeRTOS.h</text>
</a>
</g>
</g>
<!-- Node1&#45;&gt;Node3 -->
<g id="edge4" class="edge">
<title>Node1&#45;&gt;Node3</title>
<path fill="none" stroke="#63b8ff" d="M778.13,-285.97C775.65,-257.04 775.01,-202.22 799.5,-165 808.83,-150.82 824.38,-140.48 838.82,-133.36"/>
<polygon fill="#63b8ff" stroke="#63b8ff" points="840.43,-136.47 848.07,-129.13 837.52,-130.1 840.43,-136.47"/>
</g>
<!-- Node5 -->
<g id="node5" class="node">
<title>Node5</title>
<g id="a_node5"><a xlink:title=" ">
<polygon fill="#e0e0e0" stroke="#999999" points="1221,-129 1160,-129 1160,-110 1221,-110 1221,-129"/>
<text text-anchor="middle" x="1190.5" y="-117" font-family="Helvetica,sans-Serif" font-size="10.00">Stream.h</text>
</a>
</g>
</g>
<!-- Node1&#45;&gt;Node5 -->
<g id="edge5" class="edge">
<title>Node1&#45;&gt;Node5</title>
<path fill="none" stroke="#63b8ff" d="M840.75,-304.15C982.1,-299.59 1328.5,-279.8 1399.5,-195 1481.68,-96.85 1472.45,-178.92 1230.96,-129.26"/>
<polygon fill="#63b8ff" stroke="#63b8ff" points="1231.66,-125.83 1221.15,-127.2 1230.22,-132.68 1231.66,-125.83"/>
</g>
<!-- Node6 -->
<g id="node6" class="node">
<title>Node6</title>
<g id="a_node6"><a xlink:title=" ">
<polygon fill="#e0e0e0" stroke="#999999" points="1346,-129 1239,-129 1239,-110 1346,-110 1346,-129"/>
<text text-anchor="middle" x="1292.5" y="-117" font-family="Helvetica,sans-Serif" font-size="10.00">cli/FreeRTOS_CLI.h</text>
</a>
</g>
</g>
<!-- Node1&#45;&gt;Node6 -->
<g id="edge6" class="edge">
<title>Node1&#45;&gt;Node6</title>
<path fill="none" stroke="#63b8ff" d="M840.82,-303.28C965.51,-298.07 1247.49,-282.94 1337.5,-250 1386.22,-232.17 1447.41,-207.39 1417.5,-165 1408.21,-151.84 1371.76,-139.77 1340.6,-131.54"/>
<polygon fill="#63b8ff" stroke="#63b8ff" points="1341.27,-128.1 1330.71,-129 1339.53,-134.88 1341.27,-128.1"/>
</g>
<!-- Node7 -->
<g id="node7" class="node">
<title>Node7</title>
<g id="a_node7"><a xlink:href="globals_8h.html" target="_top" xlink:title=" ">
<polygon fill="white" stroke="#666666" points="1584,-250 1523,-250 1523,-231 1584,-231 1584,-250"/>
<text text-anchor="middle" x="1553.5" y="-238" font-family="Helvetica,sans-Serif" font-size="10.00">globals.h</text>
</a>
</g>
</g>
<!-- Node1&#45;&gt;Node7 -->
<g id="edge7" class="edge">
<title>Node1&#45;&gt;Node7</title>
<path fill="none" stroke="#63b8ff" d="M840.66,-303.17C965.55,-297.83 1261.89,-282.59 1508.5,-250 1509.79,-249.83 1511.09,-249.65 1512.41,-249.45"/>
<polygon fill="#63b8ff" stroke="#63b8ff" points="1513.28,-252.86 1522.59,-247.8 1512.16,-245.95 1513.28,-252.86"/>
</g>
<!-- Node13 -->
<g id="node13" class="node">
<title>Node13</title>
<g id="a_node13"><a xlink:href="interface_8h.html" target="_top" xlink:title=" ">
<polygon fill="white" stroke="#666666" points="156.5,-250 48.5,-250 48.5,-231 156.5,-231 156.5,-250"/>
<text text-anchor="middle" x="102.5" y="-238" font-family="Helvetica,sans-Serif" font-size="10.00">sd&#45;card/interface.h</text>
</a>
</g>
</g>
<!-- Node1&#45;&gt;Node13 -->
<g id="edge14" class="edge">
<title>Node1&#45;&gt;Node13</title>
<path fill="none" stroke="#63b8ff" d="M720.33,-299.82C593.17,-287.82 298.06,-259.96 167.1,-247.6"/>
<polygon fill="#63b8ff" stroke="#63b8ff" points="167.11,-244.08 156.82,-246.63 166.45,-251.05 167.11,-244.08"/>
</g>
<!-- Node16 -->
<g id="node16" class="node">
<title>Node16</title>
<g id="a_node16"><a xlink:href="_c_l_i_8h.html" target="_top" xlink:title="FreeRTOS CLI handler.">
<polygon fill="white" stroke="#666666" points="752,-250 697,-250 697,-231 752,-231 752,-250"/>
<text text-anchor="middle" x="724.5" y="-238" font-family="Helvetica,sans-Serif" font-size="10.00">cli/CLI.h</text>
</a>
</g>
</g>
<!-- Node1&#45;&gt;Node16 -->
<g id="edge18" class="edge">
<title>Node1&#45;&gt;Node16</title>
<path fill="none" stroke="#63b8ff" d="M763.39,-285.95C755.58,-277.02 746.42,-266.55 738.95,-258.02"/>
<polygon fill="#63b8ff" stroke="#63b8ff" points="741.38,-255.48 732.17,-250.26 736.12,-260.09 741.38,-255.48"/>
</g>
<!-- Node2&#45;&gt;Node3 -->
<g id="edge2" class="edge">
<title>Node2&#45;&gt;Node3</title>
<path fill="none" stroke="#63b8ff" d="M254.76,-171.1C269.77,-168.92 286.28,-166.69 301.5,-165 483.96,-144.76 700.17,-130.6 806.97,-124.25"/>
<polygon fill="#63b8ff" stroke="#63b8ff" points="807.18,-127.75 816.96,-123.66 806.77,-120.76 807.18,-127.75"/>
</g>
<!-- Node4 -->
<g id="node4" class="node">
<title>Node4</title>
<g id="a_node4"><a xlink:title=" ">
<polygon fill="#e0e0e0" stroke="#999999" points="226.5,-129 182.5,-129 182.5,-110 226.5,-110 226.5,-129"/>
<text text-anchor="middle" x="204.5" y="-117" font-family="Helvetica,sans-Serif" font-size="10.00">string</text>
</a>
</g>
</g>
<!-- Node2&#45;&gt;Node4 -->
<g id="edge3" class="edge">
<title>Node2&#45;&gt;Node4</title>
<path fill="none" stroke="#63b8ff" d="M204.5,-164.84C204.5,-157.21 204.5,-147.7 204.5,-139.45"/>
<polygon fill="#63b8ff" stroke="#63b8ff" points="208,-139.27 204.5,-129.27 201,-139.27 208,-139.27"/>
</g>
<!-- Node8 -->
<g id="node8" class="node">
<title>Node8</title>
<g id="a_node8"><a xlink:title=" ">
<polygon fill="#e0e0e0" stroke="#999999" points="1690.5,-195 1560.5,-195 1560.5,-165 1690.5,-165 1690.5,-195"/>
<text text-anchor="start" x="1568.5" y="-183" font-family="Helvetica,sans-Serif" font-size="10.00">SparkFun_u&#45;blox_SARA</text>
<text text-anchor="middle" x="1625.5" y="-172" font-family="Helvetica,sans-Serif" font-size="10.00">&#45;R5_Arduino_Library.h</text>
</a>
</g>
</g>
<!-- Node7&#45;&gt;Node8 -->
<g id="edge8" class="edge">
<title>Node7&#45;&gt;Node8</title>
<path fill="none" stroke="#63b8ff" d="M1564.12,-230.87C1573.62,-223.15 1587.92,-211.54 1600.32,-201.46"/>
<polygon fill="#63b8ff" stroke="#63b8ff" points="1602.57,-204.14 1608.13,-195.11 1598.16,-198.7 1602.57,-204.14"/>
</g>
<!-- Node9 -->
<g id="node9" class="node">
<title>Node9</title>
<g id="a_node9"><a xlink:href="_c_a_t___m1_8h.html" target="_top" xlink:title=" ">
<polygon fill="white" stroke="#666666" points="1429,-129 1364,-129 1364,-110 1429,-110 1429,-129"/>
<text text-anchor="middle" x="1396.5" y="-117" font-family="Helvetica,sans-Serif" font-size="10.00">CAT_M1.h</text>
</a>
</g>
</g>
<!-- Node7&#45;&gt;Node9 -->
<g id="edge9" class="edge">
<title>Node7&#45;&gt;Node9</title>
<path fill="none" stroke="#63b8ff" d="M1550.44,-230.9C1544.58,-215.61 1530.41,-183.56 1508.5,-165 1488.54,-148.09 1461.37,-137.09 1438.79,-130.25"/>
<polygon fill="#63b8ff" stroke="#63b8ff" points="1439.68,-126.87 1429.1,-127.48 1437.76,-133.6 1439.68,-126.87"/>
</g>
<!-- Node10 -->
<g id="node10" class="node">
<title>Node10</title>
<g id="a_node10"><a xlink:title=" ">
<polygon fill="#e0e0e0" stroke="#999999" points="1389.5,-19 1341.5,-19 1341.5,0 1389.5,0 1389.5,-19"/>
<text text-anchor="middle" x="1365.5" y="-7" font-family="Helvetica,sans-Serif" font-size="10.00">Wire.h</text>
</a>
</g>
</g>
<!-- Node9&#45;&gt;Node10 -->
<g id="edge10" class="edge">
<title>Node9&#45;&gt;Node10</title>
<path fill="none" stroke="#63b8ff" d="M1393.96,-109.66C1388.92,-92.09 1377.54,-52.45 1370.8,-28.95"/>
<polygon fill="#63b8ff" stroke="#63b8ff" points="1374.11,-27.8 1367.99,-19.16 1367.38,-29.74 1374.11,-27.8"/>
</g>
<!-- Node11 -->
<g id="node11" class="node">
<title>Node11</title>
<g id="a_node11"><a xlink:href="_t_c_a9534_8h.html" target="_top" xlink:title=" ">
<polygon fill="white" stroke="#666666" points="1368.5,-74 1300.5,-74 1300.5,-55 1368.5,-55 1368.5,-74"/>
<text text-anchor="middle" x="1334.5" y="-62" font-family="Helvetica,sans-Serif" font-size="10.00">TCA9534.h</text>
</a>
</g>
</g>
<!-- Node9&#45;&gt;Node11 -->
<g id="edge11" class="edge">
<title>Node9&#45;&gt;Node11</title>
<path fill="none" stroke="#63b8ff" d="M1386.54,-109.98C1377.37,-102.15 1363.56,-90.34 1352.47,-80.86"/>
<polygon fill="#63b8ff" stroke="#63b8ff" points="1354.52,-78.01 1344.64,-74.17 1349.97,-83.33 1354.52,-78.01"/>
</g>
<!-- Node11&#45;&gt;Node10 -->
<g id="edge13" class="edge">
<title>Node11&#45;&gt;Node10</title>
<path fill="none" stroke="#63b8ff" d="M1339.62,-54.75C1343.86,-47.49 1350.03,-36.95 1355.28,-27.98"/>
<polygon fill="#63b8ff" stroke="#63b8ff" points="1358.45,-29.49 1360.48,-19.09 1352.41,-25.95 1358.45,-29.49"/>
</g>
<!-- Node12 -->
<g id="node12" class="node">
<title>Node12</title>
<g id="a_node12"><a xlink:title=" ">
<polygon fill="#e0e0e0" stroke="#999999" points="497,-19 434,-19 434,0 497,0 497,-19"/>
<text text-anchor="middle" x="465.5" y="-7" font-family="Helvetica,sans-Serif" font-size="10.00">Arduino.h</text>
</a>
</g>
</g>
<!-- Node11&#45;&gt;Node12 -->
<g id="edge12" class="edge">
<title>Node11&#45;&gt;Node12</title>
<path fill="none" stroke="#63b8ff" d="M1300.43,-61.42C1163.91,-53.1 656.55,-22.15 507.15,-13.04"/>
<polygon fill="#63b8ff" stroke="#63b8ff" points="507.22,-9.54 497.02,-12.42 506.79,-16.52 507.22,-9.54"/>
</g>
<!-- Node13&#45;&gt;Node12 -->
<g id="edge15" class="edge">
<title>Node13&#45;&gt;Node12</title>
<path fill="none" stroke="#63b8ff" d="M104.84,-230.84C111.52,-207.74 132.87,-144.15 173.5,-110 247.53,-47.79 362.39,-23.84 423.65,-15.12"/>
<polygon fill="#63b8ff" stroke="#63b8ff" points="424.29,-18.57 433.73,-13.76 423.35,-11.63 424.29,-18.57"/>
</g>
<!-- Node14 -->
<g id="node14" class="node">
<title>Node14</title>
<g id="a_node14"><a xlink:title=" ">
<polygon fill="#e0e0e0" stroke="#999999" points="39,-189.5 0,-189.5 0,-170.5 39,-170.5 39,-189.5"/>
<text text-anchor="middle" x="19.5" y="-177.5" font-family="Helvetica,sans-Serif" font-size="10.00">SD.h</text>
</a>
</g>
</g>
<!-- Node13&#45;&gt;Node14 -->
<g id="edge16" class="edge">
<title>Node13&#45;&gt;Node14</title>
<path fill="none" stroke="#63b8ff" d="M90.25,-230.87C77.14,-221.62 56.08,-206.78 40.35,-195.69"/>
<polygon fill="#63b8ff" stroke="#63b8ff" points="41.99,-192.57 31.8,-189.67 37.95,-198.29 41.99,-192.57"/>
</g>
<!-- Node15 -->
<g id="node15" class="node">
<title>Node15</title>
<g id="a_node15"><a xlink:title=" ">
<polygon fill="#e0e0e0" stroke="#999999" points="98,-189.5 57,-189.5 57,-170.5 98,-170.5 98,-189.5"/>
<text text-anchor="middle" x="77.5" y="-177.5" font-family="Helvetica,sans-Serif" font-size="10.00">SPI.h</text>
</a>
</g>
</g>
<!-- Node13&#45;&gt;Node15 -->
<g id="edge17" class="edge">
<title>Node13&#45;&gt;Node15</title>
<path fill="none" stroke="#63b8ff" d="M98.81,-230.87C95.23,-222.49 89.68,-209.51 85.15,-198.89"/>
<polygon fill="#63b8ff" stroke="#63b8ff" points="88.35,-197.49 81.2,-189.67 81.92,-200.24 88.35,-197.49"/>
</g>
<!-- Node16&#45;&gt;Node2 -->
<g id="edge45" class="edge">
<title>Node16&#45;&gt;Node2</title>
<path fill="none" stroke="#63b8ff" d="M696.86,-237.94C625.57,-233.68 429.77,-220.42 268.5,-195 267.24,-194.8 265.96,-194.59 264.67,-194.38"/>
<polygon fill="#63b8ff" stroke="#63b8ff" points="265.17,-190.91 254.7,-192.57 263.92,-197.8 265.17,-190.91"/>
</g>
<!-- Node16&#45;&gt;Node3 -->
<g id="edge20" class="edge">
<title>Node16&#45;&gt;Node3</title>
<path fill="none" stroke="#63b8ff" d="M727.23,-230.93C732.48,-215.69 745.4,-183.72 766.5,-165 783.76,-149.68 807.04,-139.15 827.48,-132.2"/>
<polygon fill="#63b8ff" stroke="#63b8ff" points="828.79,-135.46 837.25,-129.07 826.66,-128.79 828.79,-135.46"/>
</g>
<!-- Node16&#45;&gt;Node6 -->
<g id="edge21" class="edge">
<title>Node16&#45;&gt;Node6</title>
<path fill="none" stroke="#63b8ff" d="M752.21,-239.85C873.62,-241.08 1354.65,-242.9 1399.5,-195 1408.61,-185.27 1406.9,-176.09 1399.5,-165 1388.9,-149.11 1371.45,-138.89 1353.69,-132.31"/>
<polygon fill="#63b8ff" stroke="#63b8ff" points="1354.42,-128.87 1343.83,-129.02 1352.21,-135.51 1354.42,-128.87"/>
</g>
<!-- Node16&#45;&gt;Node12 -->
<g id="edge19" class="edge">
<title>Node16&#45;&gt;Node12</title>
<path fill="none" stroke="#63b8ff" d="M696.84,-238.69C607.06,-235.78 327.99,-224.43 301.5,-195 243.93,-131.06 377.52,-53.94 437.85,-23.63"/>
<polygon fill="#63b8ff" stroke="#63b8ff" points="439.44,-26.75 446.86,-19.18 436.34,-20.47 439.44,-26.75"/>
</g>
<!-- Node17 -->
<g id="node17" class="node">
<title>Node17</title>
<g id="a_node17"><a xlink:href="cat-m1_8h.html" target="_top" xlink:title="CAT&#45;M1 CLI command request and response handler.">
<polygon fill="white" stroke="#666666" points="1390.5,-189.5 1258.5,-189.5 1258.5,-170.5 1390.5,-170.5 1390.5,-189.5"/>
<text text-anchor="middle" x="1324.5" y="-177.5" font-family="Helvetica,sans-Serif" font-size="10.00">cli/peripherals/cat&#45;m1.h</text>
</a>
</g>
</g>
<!-- Node16&#45;&gt;Node17 -->
<g id="edge22" class="edge">
<title>Node16&#45;&gt;Node17</title>
<path fill="none" stroke="#63b8ff" d="M752.21,-238.13C830.56,-234.04 1060.28,-220.62 1249.5,-195 1257.16,-193.96 1265.23,-192.67 1273.11,-191.29"/>
<polygon fill="#63b8ff" stroke="#63b8ff" points="1273.74,-194.74 1282.97,-189.52 1272.5,-187.85 1273.74,-194.74"/>
</g>
<!-- Node19 -->
<g id="node19" class="node">
<title>Node19</title>
<g id="a_node19"><a xlink:href="sdi12_8h.html" target="_top" xlink:title="SDI&#45;12 command line interface handler.">
<polygon fill="white" stroke="#666666" points="1104.5,-189.5 980.5,-189.5 980.5,-170.5 1104.5,-170.5 1104.5,-189.5"/>
<text text-anchor="middle" x="1042.5" y="-177.5" font-family="Helvetica,sans-Serif" font-size="10.00">cli/peripherals/sdi12.h</text>
</a>
</g>
</g>
<!-- Node16&#45;&gt;Node19 -->
<g id="edge28" class="edge">
<title>Node16&#45;&gt;Node19</title>
<path fill="none" stroke="#63b8ff" d="M752.31,-234.64C798.06,-226.62 892.07,-209.98 971.5,-195 977.35,-193.9 983.47,-192.72 989.56,-191.54"/>
<polygon fill="#63b8ff" stroke="#63b8ff" points="990.58,-194.91 999.72,-189.55 989.24,-188.04 990.58,-194.91"/>
</g>
<!-- Node24 -->
<g id="node24" class="node">
<title>Node24</title>
<g id="a_node24"><a xlink:href="cli__power_8h.html" target="_top" xlink:title=" ">
<polygon fill="white" stroke="#666666" points="1240.5,-195 1140.5,-195 1140.5,-165 1240.5,-165 1240.5,-195"/>
<text text-anchor="start" x="1148.5" y="-183" font-family="Helvetica,sans-Serif" font-size="10.00">cli/peripherals/cli</text>
<text text-anchor="middle" x="1190.5" y="-172" font-family="Helvetica,sans-Serif" font-size="10.00">_power.h</text>
</a>
</g>
</g>
<!-- Node16&#45;&gt;Node24 -->
<g id="edge39" class="edge">
<title>Node16&#45;&gt;Node24</title>
<path fill="none" stroke="#63b8ff" d="M752.3,-237.66C816.92,-233.12 982.35,-220.03 1130.21,-195.08"/>
<polygon fill="#63b8ff" stroke="#63b8ff" points="1131.11,-198.48 1140.38,-193.34 1129.93,-191.58 1131.11,-198.48"/>
</g>
<!-- Node25 -->
<g id="node25" class="node">
<title>Node25</title>
<g id="a_node25"><a xlink:href="acquisition__intervals_8h.html" target="_top" xlink:title="Handles the time between measurements and uplinks by the device over LTE.">
<polygon fill="white" stroke="#666666" points="962.5,-195 808.5,-195 808.5,-165 962.5,-165 962.5,-195"/>
<text text-anchor="start" x="816.5" y="-183" font-family="Helvetica,sans-Serif" font-size="10.00">cli/device_config/acquisition</text>
<text text-anchor="middle" x="885.5" y="-172" font-family="Helvetica,sans-Serif" font-size="10.00">_intervals.h</text>
</a>
</g>
</g>
<!-- Node16&#45;&gt;Node25 -->
<g id="edge46" class="edge">
<title>Node16&#45;&gt;Node25</title>
<path fill="none" stroke="#63b8ff" d="M747.91,-230.99C771.18,-222.54 807.57,-209.32 837.08,-198.59"/>
<polygon fill="#63b8ff" stroke="#63b8ff" points="838.59,-201.77 846.79,-195.06 836.2,-195.19 838.59,-201.77"/>
</g>
<!-- Node27 -->
<g id="node27" class="node">
<title>Node27</title>
<g id="a_node27"><a xlink:href="mqtt__cli_8h.html" target="_top" xlink:title="MQTT setup and configuration through the CLI.">
<polygon fill="white" stroke="#666666" points="434.5,-195 310.5,-195 310.5,-165 434.5,-165 434.5,-195"/>
<text text-anchor="start" x="318.5" y="-183" font-family="Helvetica,sans-Serif" font-size="10.00">cli/device_config/mqtt</text>
<text text-anchor="middle" x="372.5" y="-172" font-family="Helvetica,sans-Serif" font-size="10.00">_cli.h</text>
</a>
</g>
</g>
<!-- Node16&#45;&gt;Node27 -->
<g id="edge54" class="edge">
<title>Node16&#45;&gt;Node27</title>
<path fill="none" stroke="#63b8ff" d="M696.92,-235.48C648.18,-228.31 543.4,-212.56 444.93,-195.22"/>
<polygon fill="#63b8ff" stroke="#63b8ff" points="445.27,-191.72 434.81,-193.42 444.05,-198.61 445.27,-191.72"/>
</g>
<!-- Node28 -->
<g id="node28" class="node">
<title>Node28</title>
<g id="a_node28"><a xlink:href="ftp__cli_8h.html" target="_top" xlink:title="FTP setup and configuration through the CLI.">
<polygon fill="white" stroke="#666666" points="566,-195 453,-195 453,-165 566,-165 566,-195"/>
<text text-anchor="start" x="461" y="-183" font-family="Helvetica,sans-Serif" font-size="10.00">cli/device_config/ftp</text>
<text text-anchor="middle" x="509.5" y="-172" font-family="Helvetica,sans-Serif" font-size="10.00">_cli.h</text>
</a>
</g>
</g>
<!-- Node16&#45;&gt;Node28 -->
<g id="edge56" class="edge">
<title>Node16&#45;&gt;Node28</title>
<path fill="none" stroke="#63b8ff" d="M696.83,-231.97C665.23,-223.37 612.54,-209.04 571.07,-197.75"/>
<polygon fill="#63b8ff" stroke="#63b8ff" points="571.9,-194.35 561.33,-195.1 570.06,-201.11 571.9,-194.35"/>
</g>
<!-- Node29 -->
<g id="node29" class="node">
<title>Node29</title>
<g id="a_node29"><a xlink:href="config__cli_8h.html" target="_top" xlink:title=" ">
<polygon fill="white" stroke="#666666" points="714.5,-195 584.5,-195 584.5,-165 714.5,-165 714.5,-195"/>
<text text-anchor="start" x="592.5" y="-183" font-family="Helvetica,sans-Serif" font-size="10.00">cli/device_config/config</text>
<text text-anchor="middle" x="649.5" y="-172" font-family="Helvetica,sans-Serif" font-size="10.00">_cli.h</text>
</a>
</g>
</g>
<!-- Node16&#45;&gt;Node29 -->
<g id="edge58" class="edge">
<title>Node16&#45;&gt;Node29</title>
<path fill="none" stroke="#63b8ff" d="M713.43,-230.87C703.54,-223.15 688.65,-211.54 675.73,-201.46"/>
<polygon fill="#63b8ff" stroke="#63b8ff" points="677.63,-198.51 667.6,-195.11 673.33,-204.02 677.63,-198.51"/>
</g>
<!-- Node17&#45;&gt;Node3 -->
<g id="edge23" class="edge">
<title>Node17&#45;&gt;Node3</title>
<path fill="none" stroke="#63b8ff" d="M1281.75,-170.49C1271.23,-168.55 1259.98,-166.58 1249.5,-165 1115.57,-144.75 1078.88,-145.8 940.18,-129.06"/>
<polygon fill="#63b8ff" stroke="#63b8ff" points="940.37,-125.56 930.02,-127.83 939.52,-132.51 940.37,-125.56"/>
</g>
<!-- Node17&#45;&gt;Node5 -->
<g id="edge24" class="edge">
<title>Node17&#45;&gt;Node5</title>
<path fill="none" stroke="#63b8ff" d="M1305.02,-170.49C1282.49,-160.66 1245.19,-144.38 1219.31,-133.08"/>
<polygon fill="#63b8ff" stroke="#63b8ff" points="1220.57,-129.81 1210.01,-129.02 1217.77,-136.23 1220.57,-129.81"/>
</g>
<!-- Node17&#45;&gt;Node6 -->
<g id="edge26" class="edge">
<title>Node17&#45;&gt;Node6</title>
<path fill="none" stroke="#63b8ff" d="M1319.78,-170.37C1315.15,-161.9 1307.95,-148.74 1302.11,-138.07"/>
<polygon fill="#63b8ff" stroke="#63b8ff" points="1305.11,-136.26 1297.24,-129.17 1298.97,-139.62 1305.11,-136.26"/>
</g>
<!-- Node17&#45;&gt;Node9 -->
<g id="edge27" class="edge">
<title>Node17&#45;&gt;Node9</title>
<path fill="none" stroke="#63b8ff" d="M1335.12,-170.37C1346.4,-161.21 1364.42,-146.56 1378.03,-135.51"/>
<polygon fill="#63b8ff" stroke="#63b8ff" points="1380.28,-138.19 1385.83,-129.17 1375.86,-132.76 1380.28,-138.19"/>
</g>
<!-- Node18 -->
<g id="node18" class="node">
<title>Node18</title>
<g id="a_node18"><a xlink:title=" ">
<polygon fill="#e0e0e0" stroke="#999999" points="1142,-129 1053,-129 1053,-110 1142,-110 1142,-129"/>
<text text-anchor="middle" x="1097.5" y="-117" font-family="Helvetica,sans-Serif" font-size="10.00">StreamString.h</text>
</a>
</g>
</g>
<!-- Node17&#45;&gt;Node18 -->
<g id="edge25" class="edge">
<title>Node17&#45;&gt;Node18</title>
<path fill="none" stroke="#63b8ff" d="M1291.49,-170.49C1251.56,-160.2 1184.26,-142.86 1140.36,-131.54"/>
<polygon fill="#63b8ff" stroke="#63b8ff" points="1141.1,-128.12 1130.55,-129.02 1139.36,-134.9 1141.1,-128.12"/>
</g>
<!-- Node19&#45;&gt;Node3 -->
<g id="edge29" class="edge">
<title>Node19&#45;&gt;Node3</title>
<path fill="none" stroke="#63b8ff" d="M1017.93,-170.49C988.89,-160.44 940.4,-143.66 907.7,-132.34"/>
<polygon fill="#63b8ff" stroke="#63b8ff" points="908.7,-128.98 898.1,-129.02 906.41,-135.6 908.7,-128.98"/>
</g>
<!-- Node19&#45;&gt;Node5 -->
<g id="edge30" class="edge">
<title>Node19&#45;&gt;Node5</title>
<path fill="none" stroke="#63b8ff" d="M1064.02,-170.49C1089.12,-160.57 1130.82,-144.09 1159.43,-132.78"/>
<polygon fill="#63b8ff" stroke="#63b8ff" points="1160.94,-135.95 1168.95,-129.02 1158.37,-129.44 1160.94,-135.95"/>
</g>
<!-- Node19&#45;&gt;Node6 -->
<g id="edge34" class="edge">
<title>Node19&#45;&gt;Node6</title>
<path fill="none" stroke="#63b8ff" d="M1078.85,-170.49C1123.1,-160.14 1197.89,-142.64 1246.21,-131.33"/>
<polygon fill="#63b8ff" stroke="#63b8ff" points="1247.16,-134.7 1256.1,-129.02 1245.57,-127.89 1247.16,-134.7"/>
</g>
<!-- Node19&#45;&gt;Node18 -->
<g id="edge31" class="edge">
<title>Node19&#45;&gt;Node18</title>
<path fill="none" stroke="#63b8ff" d="M1050.62,-170.37C1058.9,-161.55 1071.97,-147.66 1082.2,-136.77"/>
<polygon fill="#63b8ff" stroke="#63b8ff" points="1085.05,-138.85 1089.35,-129.17 1079.95,-134.06 1085.05,-138.85"/>
</g>
<!-- Node19&#45;&gt;Node19 -->
<g id="edge32" class="edge">
<title>Node19&#45;&gt;Node19</title>
<path fill="none" stroke="#63b8ff" d="M1072.04,-189.53C1096.72,-193.61 1122.5,-190.43 1122.5,-180 1122.5,-171 1103.28,-167.4 1082.15,-169.2"/>
<polygon fill="#63b8ff" stroke="#63b8ff" points="1081.53,-165.75 1072.04,-170.47 1082.4,-172.7 1081.53,-165.75"/>
</g>
<!-- Node20 -->
<g id="node20" class="node">
<title>Node20</title>
<g id="a_node20"><a xlink:title=" ">
<polygon fill="#e0e0e0" stroke="#999999" points="1071,-74 978,-74 978,-55 1071,-55 1071,-74"/>
<text text-anchor="middle" x="1024.5" y="-62" font-family="Helvetica,sans-Serif" font-size="10.00">dpiclimate&#45;12.h</text>
</a>
</g>
</g>
<!-- Node19&#45;&gt;Node20 -->
<g id="edge33" class="edge">
<title>Node19&#45;&gt;Node20</title>
<path fill="none" stroke="#63b8ff" d="M1041.15,-170.47C1038.25,-152.23 1031.41,-109.07 1027.46,-84.14"/>
<polygon fill="#63b8ff" stroke="#63b8ff" points="1030.89,-83.46 1025.87,-74.13 1023.98,-84.55 1030.89,-83.46"/>
</g>
<!-- Node21 -->
<g id="node21" class="node">
<title>Node21</title>
<g id="a_node21"><a xlink:href="_utils_8h.html" target="_top" xlink:title=" ">
<polygon fill="white" stroke="#666666" points="996.5,-129 948.5,-129 948.5,-110 996.5,-110 996.5,-129"/>
<text text-anchor="middle" x="972.5" y="-117" font-family="Helvetica,sans-Serif" font-size="10.00">Utils.h</text>
</a>
</g>
</g>
<!-- Node19&#45;&gt;Node21 -->
<g id="edge35" class="edge">
<title>Node19&#45;&gt;Node21</title>
<path fill="none" stroke="#63b8ff" d="M1032.17,-170.37C1021.31,-161.3 1004.01,-146.84 990.83,-135.82"/>
<polygon fill="#63b8ff" stroke="#63b8ff" points="992.79,-132.89 982.87,-129.17 988.3,-138.27 992.79,-132.89"/>
</g>
<!-- Node21&#45;&gt;Node20 -->
<g id="edge38" class="edge">
<title>Node21&#45;&gt;Node20</title>
<path fill="none" stroke="#63b8ff" d="M981.09,-109.75C988.66,-102.03 999.88,-90.6 1009.01,-81.28"/>
<polygon fill="#63b8ff" stroke="#63b8ff" points="1011.57,-83.68 1016.07,-74.09 1006.57,-78.78 1011.57,-83.68"/>
</g>
<!-- Node22 -->
<g id="node22" class="node">
<title>Node22</title>
<g id="a_node22"><a xlink:title=" ">
<polygon fill="#e0e0e0" stroke="#999999" points="959.5,-74 903.5,-74 903.5,-55 959.5,-55 959.5,-74"/>
<text text-anchor="middle" x="931.5" y="-62" font-family="Helvetica,sans-Serif" font-size="10.00">stddef.h</text>
</a>
</g>
</g>
<!-- Node21&#45;&gt;Node22 -->
<g id="edge36" class="edge">
<title>Node21&#45;&gt;Node22</title>
<path fill="none" stroke="#63b8ff" d="M965.73,-109.75C959.94,-102.26 951.44,-91.28 944.36,-82.13"/>
<polygon fill="#63b8ff" stroke="#63b8ff" points="947.03,-79.86 938.14,-74.09 941.49,-84.14 947.03,-79.86"/>
</g>
<!-- Node23 -->
<g id="node23" class="node">
<title>Node23</title>
<g id="a_node23"><a xlink:title=" ">
<polygon fill="#e0e0e0" stroke="#999999" points="685,-74 602,-74 602,-55 685,-55 685,-74"/>
<text text-anchor="middle" x="643.5" y="-62" font-family="Helvetica,sans-Serif" font-size="10.00">ArduinoJson.h</text>
</a>
</g>
</g>
<!-- Node21&#45;&gt;Node23 -->
<g id="edge37" class="edge">
<title>Node21&#45;&gt;Node23</title>
<path fill="none" stroke="#63b8ff" d="M948.42,-112.18C945.1,-111.39 941.72,-110.64 938.5,-110 853.93,-93.09 754.58,-79.35 695.45,-71.81"/>
<polygon fill="#63b8ff" stroke="#63b8ff" points="695.6,-68.31 685.24,-70.52 694.73,-75.25 695.6,-68.31"/>
</g>
<!-- Node24&#45;&gt;Node3 -->
<g id="edge40" class="edge">
<title>Node24&#45;&gt;Node3</title>
<path fill="none" stroke="#63b8ff" d="M1140.34,-166.87C1137.35,-166.22 1134.39,-165.59 1131.5,-165 1066.27,-151.65 991.22,-139.01 938.94,-130.63"/>
<polygon fill="#63b8ff" stroke="#63b8ff" points="939.22,-127.13 928.8,-129.02 938.12,-134.05 939.22,-127.13"/>
</g>
<!-- Node24&#45;&gt;Node5 -->
<g id="edge41" class="edge">
<title>Node24&#45;&gt;Node5</title>
<path fill="none" stroke="#63b8ff" d="M1190.5,-164.84C1190.5,-157.21 1190.5,-147.7 1190.5,-139.45"/>
<polygon fill="#63b8ff" stroke="#63b8ff" points="1194,-139.27 1190.5,-129.27 1187,-139.27 1194,-139.27"/>
</g>
<!-- Node24&#45;&gt;Node6 -->
<g id="edge43" class="edge">
<title>Node24&#45;&gt;Node6</title>
<path fill="none" stroke="#63b8ff" d="M1214.93,-164.99C1231.19,-155.66 1252.45,-143.47 1268.6,-134.21"/>
<polygon fill="#63b8ff" stroke="#63b8ff" points="1270.5,-137.15 1277.44,-129.14 1267.02,-131.08 1270.5,-137.15"/>
</g>
<!-- Node24&#45;&gt;Node9 -->
<g id="edge44" class="edge">
<title>Node24&#45;&gt;Node9</title>
<path fill="none" stroke="#63b8ff" d="M1239.84,-164.99C1275.55,-154.85 1323.19,-141.32 1356.52,-131.85"/>
<polygon fill="#63b8ff" stroke="#63b8ff" points="1357.72,-135.15 1366.38,-129.05 1355.8,-128.42 1357.72,-135.15"/>
</g>
<!-- Node24&#45;&gt;Node18 -->
<g id="edge42" class="edge">
<title>Node24&#45;&gt;Node18</title>
<path fill="none" stroke="#63b8ff" d="M1167.99,-164.84C1153.44,-155.68 1134.57,-143.82 1120.01,-134.66"/>
<polygon fill="#63b8ff" stroke="#63b8ff" points="1121.49,-131.46 1111.16,-129.09 1117.76,-137.38 1121.49,-131.46"/>
</g>
<!-- Node25&#45;&gt;Node3 -->
<g id="edge47" class="edge">
<title>Node25&#45;&gt;Node3</title>
<path fill="none" stroke="#63b8ff" d="M882.6,-164.84C881.01,-157.13 879.04,-147.49 877.33,-139.17"/>
<polygon fill="#63b8ff" stroke="#63b8ff" points="880.74,-138.36 875.3,-129.27 873.88,-139.77 880.74,-138.36"/>
</g>
<!-- Node25&#45;&gt;Node5 -->
<g id="edge48" class="edge">
<title>Node25&#45;&gt;Node5</title>
<path fill="none" stroke="#63b8ff" d="M962.41,-164.97C1012.87,-155.65 1080.57,-142.94 1149.73,-129.12"/>
<polygon fill="#63b8ff" stroke="#63b8ff" points="1150.82,-132.47 1159.94,-127.07 1149.45,-125.6 1150.82,-132.47"/>
</g>
<!-- Node25&#45;&gt;Node6 -->
<g id="edge50" class="edge">
<title>Node25&#45;&gt;Node6</title>
<path fill="none" stroke="#63b8ff" d="M962.84,-166.32C965.76,-165.87 968.66,-165.43 971.5,-165 1019.69,-157.74 1149.63,-139.93 1228.63,-129.17"/>
<polygon fill="#63b8ff" stroke="#63b8ff" points="1229.52,-132.58 1238.95,-127.77 1228.57,-125.65 1229.52,-132.58"/>
</g>
<!-- Node25&#45;&gt;Node18 -->
<g id="edge49" class="edge">
<title>Node25&#45;&gt;Node18</title>
<path fill="none" stroke="#63b8ff" d="M936.28,-164.99C973.18,-154.8 1022.48,-141.2 1056.8,-131.73"/>
<polygon fill="#63b8ff" stroke="#63b8ff" points="1057.79,-135.09 1066.5,-129.05 1055.93,-128.34 1057.79,-135.09"/>
</g>
<!-- Node26 -->
<g id="node26" class="node">
<title>Node26</title>
<g id="a_node26"><a xlink:href="_device_config_8h.html" target="_top" xlink:title="Node configuration options.">
<polygon fill="white" stroke="#666666" points="624.5,-129 534.5,-129 534.5,-110 624.5,-110 624.5,-129"/>
<text text-anchor="middle" x="579.5" y="-117" font-family="Helvetica,sans-Serif" font-size="10.00">DeviceConfig.h</text>
</a>
</g>
</g>
<!-- Node25&#45;&gt;Node26 -->
<g id="edge51" class="edge">
<title>Node25&#45;&gt;Node26</title>
<path fill="none" stroke="#63b8ff" d="M812.21,-164.99C757.45,-154.52 683.81,-140.44 634.15,-130.95"/>
<polygon fill="#63b8ff" stroke="#63b8ff" points="634.72,-127.49 624.24,-129.05 633.41,-134.37 634.72,-127.49"/>
</g>
<!-- Node26&#45;&gt;Node12 -->
<g id="edge52" class="edge">
<title>Node26&#45;&gt;Node12</title>
<path fill="none" stroke="#63b8ff" d="M570.17,-109.66C550.87,-91.38 506.33,-49.18 482.04,-26.17"/>
<polygon fill="#63b8ff" stroke="#63b8ff" points="484.31,-23.5 474.64,-19.16 479.49,-28.58 484.31,-23.5"/>
</g>
<!-- Node26&#45;&gt;Node23 -->
<g id="edge53" class="edge">
<title>Node26&#45;&gt;Node23</title>
<path fill="none" stroke="#63b8ff" d="M589.78,-109.98C599.34,-102.07 613.78,-90.11 625.28,-80.58"/>
<polygon fill="#63b8ff" stroke="#63b8ff" points="627.56,-83.24 633.03,-74.17 623.1,-77.85 627.56,-83.24"/>
</g>
<!-- Node27&#45;&gt;Node26 -->
<g id="edge55" class="edge">
<title>Node27&#45;&gt;Node26</title>
<path fill="none" stroke="#63b8ff" d="M422.08,-164.99C457.96,-154.85 505.83,-141.32 539.33,-131.85"/>
<polygon fill="#63b8ff" stroke="#63b8ff" points="540.56,-135.14 549.23,-129.05 538.66,-128.41 540.56,-135.14"/>
</g>
<!-- Node28&#45;&gt;Node26 -->
<g id="edge57" class="edge">
<title>Node28&#45;&gt;Node26</title>
<path fill="none" stroke="#63b8ff" d="M526.45,-164.84C536.92,-156.09 550.36,-144.85 561.09,-135.88"/>
<polygon fill="#63b8ff" stroke="#63b8ff" points="563.58,-138.36 569.01,-129.27 559.09,-132.99 563.58,-138.36"/>
</g>
<!-- Node29&#45;&gt;Node26 -->
<g id="edge59" class="edge">
<title>Node29&#45;&gt;Node26</title>
<path fill="none" stroke="#63b8ff" d="M632.55,-164.84C622.08,-156.09 608.64,-144.85 597.91,-135.88"/>
<polygon fill="#63b8ff" stroke="#63b8ff" points="599.91,-132.99 589.99,-129.27 595.42,-138.36 599.91,-132.99"/>
</g>
</g>
</svg>
