<?xml version="1.0" encoding="UTF-8" standalone="no"?>
<!DOCTYPE svg PUBLIC "-//W3C//DTD SVG 1.1//EN"
 "http://www.w3.org/Graphics/SVG/1.1/DTD/svg11.dtd">
<!-- Generated by graphviz version 2.43.0 (0)
 -->
<!-- Title: firmware/wombat/src/cli/peripherals/sd_card.cpp Pages: 1 -->
<svg width="2224pt" height="346pt"
 viewBox="0.00 0.00 2223.77 346.00" xmlns="http://www.w3.org/2000/svg" xmlns:xlink="http://www.w3.org/1999/xlink">
<g id="graph0" class="graph" transform="scale(1 1) rotate(0) translate(4 342)">
<title>firmware/wombat/src/cli/peripherals/sd_card.cpp</title>
<!-- Node1 -->
<g id="node1" class="node">
<title>Node1</title>
<g id="a_node1"><a xlink:title=" ">
<polygon fill="#999999" stroke="#666666" points="801.27,-338 681.27,-338 681.27,-297 801.27,-297 801.27,-338"/>
<text text-anchor="start" x="689.27" y="-326" font-family="Helvetica,sans-Serif" font-size="10.00">firmware/wombat/src</text>
<text text-anchor="start" x="689.27" y="-315" font-family="Helvetica,sans-Serif" font-size="10.00">/cli/peripherals/sd</text>
<text text-anchor="middle" x="741.27" y="-304" font-family="Helvetica,sans-Serif" font-size="10.00">_card.cpp</text>
</a>
</g>
</g>
<!-- Node2 -->
<g id="node2" class="node">
<title>Node2</title>
<g id="a_node2"><a xlink:href="sd__card_8h.html" target="_top" xlink:title=" ">
<polygon fill="white" stroke="#666666" points="162.27,-206 62.27,-206 62.27,-176 162.27,-176 162.27,-206"/>
<text text-anchor="start" x="70.27" y="-194" font-family="Helvetica,sans-Serif" font-size="10.00">cli/peripherals/sd</text>
<text text-anchor="middle" x="112.27" y="-183" font-family="Helvetica,sans-Serif" font-size="10.00">_card.h</text>
</a>
</g>
</g>
<!-- Node1&#45;&gt;Node2 -->
<g id="edge1" class="edge">
<title>Node1&#45;&gt;Node2</title>
<path fill="none" stroke="#63b8ff" d="M680.87,-315.92C553.87,-313.85 263.69,-304.36 176.27,-261 155.4,-250.65 137.93,-230.42 126.54,-214.53"/>
<polygon fill="#63b8ff" stroke="#63b8ff" points="129.39,-212.51 120.85,-206.24 123.62,-216.47 129.39,-212.51"/>
</g>
<!-- Node3 -->
<g id="node3" class="node">
<title>Node3</title>
<g id="a_node3"><a xlink:title=" ">
<polygon fill="#e0e0e0" stroke="#999999" points="659.77,-134.5 546.77,-134.5 546.77,-115.5 659.77,-115.5 659.77,-134.5"/>
<text text-anchor="middle" x="603.27" y="-122.5" font-family="Helvetica,sans-Serif" font-size="10.00">freertos/FreeRTOS.h</text>
</a>
</g>
</g>
<!-- Node1&#45;&gt;Node3 -->
<g id="edge4" class="edge">
<title>Node1&#45;&gt;Node3</title>
<path fill="none" stroke="#63b8ff" d="M681.24,-314.15C551.01,-308.51 246.41,-292.33 148.27,-261 101.8,-246.16 77.64,-248.27 53.27,-206 -9.62,-96.91 -126.36,-199.77 479.27,-140 497.83,-138.17 517.92,-135.99 536.42,-133.9"/>
<polygon fill="#63b8ff" stroke="#63b8ff" points="536.98,-137.36 546.52,-132.75 536.19,-130.4 536.98,-137.36"/>
</g>
<!-- Node5 -->
<g id="node5" class="node">
<title>Node5</title>
<g id="a_node5"><a xlink:title=" ">
<polygon fill="#e0e0e0" stroke="#999999" points="738.77,-134.5 677.77,-134.5 677.77,-115.5 738.77,-115.5 738.77,-134.5"/>
<text text-anchor="middle" x="708.27" y="-122.5" font-family="Helvetica,sans-Serif" font-size="10.00">Stream.h</text>
</a>
</g>
</g>
<!-- Node1&#45;&gt;Node5 -->
<g id="edge5" class="edge">
<title>Node1&#45;&gt;Node5</title>
<path fill="none" stroke="#63b8ff" d="M680.8,-313.21C554.23,-304.93 268.21,-278.44 209.27,-206 200.86,-195.66 200.22,-185.79 209.27,-176 244,-138.44 618.21,-150.54 668.27,-140 671.27,-139.37 674.36,-138.57 677.41,-137.68"/>
<polygon fill="#63b8ff" stroke="#63b8ff" points="678.53,-141 686.97,-134.6 676.38,-134.34 678.53,-141"/>
</g>
<!-- Node6 -->
<g id="node6" class="node">
<title>Node6</title>
<g id="a_node6"><a xlink:title=" ">
<polygon fill="#e0e0e0" stroke="#999999" points="970.77,-134.5 863.77,-134.5 863.77,-115.5 970.77,-115.5 970.77,-134.5"/>
<text text-anchor="middle" x="917.27" y="-122.5" font-family="Helvetica,sans-Serif" font-size="10.00">cli/FreeRTOS_CLI.h</text>
</a>
</g>
</g>
<!-- Node1&#45;&gt;Node6 -->
<g id="edge6" class="edge">
<title>Node1&#45;&gt;Node6</title>
<path fill="none" stroke="#63b8ff" d="M801.6,-311.16C915.19,-299.72 1153.85,-268.64 1203.27,-206 1300.62,-82.63 1403.61,-221.92 979.27,-140 974.12,-139.01 968.75,-137.9 963.41,-136.75"/>
<polygon fill="#63b8ff" stroke="#63b8ff" points="963.77,-133.25 953.26,-134.53 962.27,-140.09 963.77,-133.25"/>
</g>
<!-- Node7 -->
<g id="node7" class="node">
<title>Node7</title>
<g id="a_node7"><a xlink:href="globals_8h.html" target="_top" xlink:title=" ">
<polygon fill="white" stroke="#666666" points="1894.77,-200.5 1833.77,-200.5 1833.77,-181.5 1894.77,-181.5 1894.77,-200.5"/>
<text text-anchor="middle" x="1864.27" y="-188.5" font-family="Helvetica,sans-Serif" font-size="10.00">globals.h</text>
</a>
</g>
</g>
<!-- Node1&#45;&gt;Node7 -->
<g id="edge7" class="edge">
<title>Node1&#45;&gt;Node7</title>
<path fill="none" stroke="#63b8ff" d="M801.52,-309.91C896.21,-299.55 1085.63,-278.8 1246.27,-261 1463.94,-236.89 1724.7,-207.66 1823.58,-196.57"/>
<polygon fill="#63b8ff" stroke="#63b8ff" points="1824.18,-200.02 1833.73,-195.43 1823.4,-193.07 1824.18,-200.02"/>
</g>
<!-- Node16 -->
<g id="node16" class="node">
<title>Node16</title>
<g id="a_node16"><a xlink:href="interface_8h.html" target="_top" xlink:title=" ">
<polygon fill="white" stroke="#666666" points="2167.27,-261 2059.27,-261 2059.27,-242 2167.27,-242 2167.27,-261"/>
<text text-anchor="middle" x="2113.27" y="-249" font-family="Helvetica,sans-Serif" font-size="10.00">sd&#45;card/interface.h</text>
</a>
</g>
</g>
<!-- Node1&#45;&gt;Node16 -->
<g id="edge20" class="edge">
<title>Node1&#45;&gt;Node16</title>
<path fill="none" stroke="#63b8ff" d="M801.55,-313.69C1026.69,-303.19 1817.19,-266.31 2048.95,-255.5"/>
<polygon fill="#63b8ff" stroke="#63b8ff" points="2049.41,-258.98 2059.24,-255.02 2049.09,-251.99 2049.41,-258.98"/>
</g>
<!-- Node19 -->
<g id="node19" class="node">
<title>Node19</title>
<g id="a_node19"><a xlink:href="_c_l_i_8h.html" target="_top" xlink:title="FreeRTOS CLI handler.">
<polygon fill="white" stroke="#666666" points="768.77,-261 713.77,-261 713.77,-242 768.77,-242 768.77,-261"/>
<text text-anchor="middle" x="741.27" y="-249" font-family="Helvetica,sans-Serif" font-size="10.00">cli/CLI.h</text>
</a>
</g>
</g>
<!-- Node1&#45;&gt;Node19 -->
<g id="edge24" class="edge">
<title>Node1&#45;&gt;Node19</title>
<path fill="none" stroke="#63b8ff" d="M741.27,-296.95C741.27,-288.85 741.27,-279.5 741.27,-271.47"/>
<polygon fill="#63b8ff" stroke="#63b8ff" points="744.77,-271.26 741.27,-261.26 737.77,-271.26 744.77,-271.26"/>
</g>
<!-- Node2&#45;&gt;Node3 -->
<g id="edge2" class="edge">
<title>Node2&#45;&gt;Node3</title>
<path fill="none" stroke="#63b8ff" d="M162.49,-178.52C167.14,-177.61 171.79,-176.75 176.27,-176 193.76,-173.07 420.53,-146.94 536.28,-133.67"/>
<polygon fill="#63b8ff" stroke="#63b8ff" points="536.91,-137.12 546.44,-132.5 536.11,-130.17 536.91,-137.12"/>
</g>
<!-- Node4 -->
<g id="node4" class="node">
<title>Node4</title>
<g id="a_node4"><a xlink:title=" ">
<polygon fill="#e0e0e0" stroke="#999999" points="134.27,-134.5 90.27,-134.5 90.27,-115.5 134.27,-115.5 134.27,-134.5"/>
<text text-anchor="middle" x="112.27" y="-122.5" font-family="Helvetica,sans-Serif" font-size="10.00">string</text>
</a>
</g>
</g>
<!-- Node2&#45;&gt;Node4 -->
<g id="edge3" class="edge">
<title>Node2&#45;&gt;Node4</title>
<path fill="none" stroke="#63b8ff" d="M112.27,-175.8C112.27,-166.7 112.27,-154.79 112.27,-144.9"/>
<polygon fill="#63b8ff" stroke="#63b8ff" points="115.77,-144.84 112.27,-134.84 108.77,-144.84 115.77,-144.84"/>
</g>
<!-- Node8 -->
<g id="node8" class="node">
<title>Node8</title>
<g id="a_node8"><a xlink:href="battery_8h.html" target="_top" xlink:title="Battery voltage and current monitoring using INA219 IC.">
<polygon fill="white" stroke="#666666" points="1902.77,-74 1751.77,-74 1751.77,-55 1902.77,-55 1902.77,-74"/>
<text text-anchor="middle" x="1827.27" y="-62" font-family="Helvetica,sans-Serif" font-size="10.00">power_monitoring/battery.h</text>
</a>
</g>
</g>
<!-- Node7&#45;&gt;Node8 -->
<g id="edge8" class="edge">
<title>Node7&#45;&gt;Node8</title>
<path fill="none" stroke="#63b8ff" d="M1862.69,-181.48C1859.85,-166.73 1853.43,-135.57 1845.27,-110 1842.46,-101.17 1838.69,-91.61 1835.33,-83.62"/>
<polygon fill="#63b8ff" stroke="#63b8ff" points="1838.44,-82.01 1831.26,-74.22 1832.02,-84.79 1838.44,-82.01"/>
</g>
<!-- Node11 -->
<g id="node11" class="node">
<title>Node11</title>
<g id="a_node11"><a xlink:href="solar_8h.html" target="_top" xlink:title="Solar voltage and current monitoring using INA219 IC.">
<polygon fill="white" stroke="#666666" points="2061.27,-74 1921.27,-74 1921.27,-55 2061.27,-55 2061.27,-74"/>
<text text-anchor="middle" x="1991.27" y="-62" font-family="Helvetica,sans-Serif" font-size="10.00">power_monitoring/solar.h</text>
</a>
</g>
</g>
<!-- Node7&#45;&gt;Node11 -->
<g id="edge11" class="edge">
<title>Node7&#45;&gt;Node11</title>
<path fill="none" stroke="#63b8ff" d="M1868.86,-181.48C1877.54,-165.92 1897.64,-132.42 1921.27,-110 1934.18,-97.76 1950.92,-86.97 1964.8,-79.09"/>
<polygon fill="#63b8ff" stroke="#63b8ff" points="1966.79,-81.99 1973.87,-74.11 1963.42,-75.85 1966.79,-81.99"/>
</g>
<!-- Node12 -->
<g id="node12" class="node">
<title>Node12</title>
<g id="a_node12"><a xlink:title=" ">
<polygon fill="#e0e0e0" stroke="#999999" points="2060.27,-140 1930.27,-140 1930.27,-110 2060.27,-110 2060.27,-140"/>
<text text-anchor="start" x="1938.27" y="-128" font-family="Helvetica,sans-Serif" font-size="10.00">SparkFun_u&#45;blox_SARA</text>
<text text-anchor="middle" x="1995.27" y="-117" font-family="Helvetica,sans-Serif" font-size="10.00">&#45;R5_Arduino_Library.h</text>
</a>
</g>
</g>
<!-- Node7&#45;&gt;Node12 -->
<g id="edge14" class="edge">
<title>Node7&#45;&gt;Node12</title>
<path fill="none" stroke="#63b8ff" d="M1881.94,-181.37C1901.14,-171.99 1932.39,-156.72 1957.22,-144.59"/>
<polygon fill="#63b8ff" stroke="#63b8ff" points="1958.93,-147.65 1966.38,-140.12 1955.86,-141.36 1958.93,-147.65"/>
</g>
<!-- Node13 -->
<g id="node13" class="node">
<title>Node13</title>
<g id="a_node13"><a xlink:href="_c_a_t___m1_8h.html" target="_top" xlink:title=" ">
<polygon fill="white" stroke="#666666" points="1053.77,-134.5 988.77,-134.5 988.77,-115.5 1053.77,-115.5 1053.77,-134.5"/>
<text text-anchor="middle" x="1021.27" y="-122.5" font-family="Helvetica,sans-Serif" font-size="10.00">CAT_M1.h</text>
</a>
</g>
</g>
<!-- Node7&#45;&gt;Node13 -->
<g id="edge15" class="edge">
<title>Node7&#45;&gt;Node13</title>
<path fill="none" stroke="#63b8ff" d="M1833.64,-189.18C1730.22,-186.15 1384.66,-173.98 1101.27,-140 1089.02,-138.53 1075.8,-136.43 1063.7,-134.3"/>
<polygon fill="#63b8ff" stroke="#63b8ff" points="1064.31,-130.86 1053.85,-132.52 1063.07,-137.74 1064.31,-130.86"/>
</g>
<!-- Node9 -->
<g id="node9" class="node">
<title>Node9</title>
<g id="a_node9"><a xlink:title=" ">
<polygon fill="#e0e0e0" stroke="#999999" points="1543.77,-19 1480.77,-19 1480.77,0 1543.77,0 1543.77,-19"/>
<text text-anchor="middle" x="1512.27" y="-7" font-family="Helvetica,sans-Serif" font-size="10.00">Arduino.h</text>
</a>
</g>
</g>
<!-- Node8&#45;&gt;Node9 -->
<g id="edge9" class="edge">
<title>Node8&#45;&gt;Node9</title>
<path fill="none" stroke="#63b8ff" d="M1776.66,-54.98C1714.94,-44.6 1611.75,-27.24 1554.24,-17.56"/>
<polygon fill="#63b8ff" stroke="#63b8ff" points="1554.49,-14.05 1544.05,-15.85 1553.33,-20.96 1554.49,-14.05"/>
</g>
<!-- Node10 -->
<g id="node10" class="node">
<title>Node10</title>
<g id="a_node10"><a xlink:title=" ">
<polygon fill="#e0e0e0" stroke="#999999" points="1961.77,-19 1856.77,-19 1856.77,0 1961.77,0 1961.77,-19"/>
<text text-anchor="middle" x="1909.27" y="-7" font-family="Helvetica,sans-Serif" font-size="10.00">Adafruit_INA219.h</text>
</a>
</g>
</g>
<!-- Node8&#45;&gt;Node10 -->
<g id="edge10" class="edge">
<title>Node8&#45;&gt;Node10</title>
<path fill="none" stroke="#63b8ff" d="M1840.45,-54.98C1853.05,-46.84 1872.28,-34.41 1887.21,-24.76"/>
<polygon fill="#63b8ff" stroke="#63b8ff" points="1889.36,-27.54 1895.86,-19.17 1885.56,-21.66 1889.36,-27.54"/>
</g>
<!-- Node11&#45;&gt;Node9 -->
<g id="edge12" class="edge">
<title>Node11&#45;&gt;Node9</title>
<path fill="none" stroke="#63b8ff" d="M1921.11,-55.74C1819.94,-44.54 1636.22,-24.21 1554,-15.12"/>
<polygon fill="#63b8ff" stroke="#63b8ff" points="1554.35,-11.63 1544.02,-14.01 1553.58,-18.59 1554.35,-11.63"/>
</g>
<!-- Node11&#45;&gt;Node10 -->
<g id="edge13" class="edge">
<title>Node11&#45;&gt;Node10</title>
<path fill="none" stroke="#63b8ff" d="M1978.1,-54.98C1965.5,-46.84 1946.27,-34.41 1931.33,-24.76"/>
<polygon fill="#63b8ff" stroke="#63b8ff" points="1932.99,-21.66 1922.69,-19.17 1929.19,-27.54 1932.99,-21.66"/>
</g>
<!-- Node14 -->
<g id="node14" class="node">
<title>Node14</title>
<g id="a_node14"><a xlink:title=" ">
<polygon fill="#e0e0e0" stroke="#999999" points="833.27,-19 785.27,-19 785.27,0 833.27,0 833.27,-19"/>
<text text-anchor="middle" x="809.27" y="-7" font-family="Helvetica,sans-Serif" font-size="10.00">Wire.h</text>
</a>
</g>
</g>
<!-- Node13&#45;&gt;Node14 -->
<g id="edge16" class="edge">
<title>Node13&#45;&gt;Node14</title>
<path fill="none" stroke="#63b8ff" d="M997.44,-115.48C991.55,-113.53 985.22,-111.57 979.27,-110 899.56,-88.92 849.62,-137.71 797.27,-74 786.84,-61.3 792.27,-42.35 798.83,-28.46"/>
<polygon fill="#63b8ff" stroke="#63b8ff" points="802.04,-29.88 803.6,-19.4 795.85,-26.62 802.04,-29.88"/>
</g>
<!-- Node15 -->
<g id="node15" class="node">
<title>Node15</title>
<g id="a_node15"><a xlink:href="_t_c_a9534_8h.html" target="_top" xlink:title=" ">
<polygon fill="white" stroke="#666666" points="874.27,-74 806.27,-74 806.27,-55 874.27,-55 874.27,-74"/>
<text text-anchor="middle" x="840.27" y="-62" font-family="Helvetica,sans-Serif" font-size="10.00">TCA9534.h</text>
</a>
</g>
</g>
<!-- Node13&#45;&gt;Node15 -->
<g id="edge17" class="edge">
<title>Node13&#45;&gt;Node15</title>
<path fill="none" stroke="#63b8ff" d="M995.52,-115.36C990.16,-113.58 984.53,-111.72 979.27,-110 944.63,-98.68 905.04,-86.03 876.99,-77.12"/>
<polygon fill="#63b8ff" stroke="#63b8ff" points="877.8,-73.71 867.21,-74.02 875.68,-80.38 877.8,-73.71"/>
</g>
<!-- Node15&#45;&gt;Node9 -->
<g id="edge18" class="edge">
<title>Node15&#45;&gt;Node9</title>
<path fill="none" stroke="#63b8ff" d="M874.48,-56.34C877.44,-55.84 880.41,-55.38 883.27,-55 1103.35,-25.58 1369.53,-14.84 1470.62,-11.65"/>
<polygon fill="#63b8ff" stroke="#63b8ff" points="1470.83,-15.15 1480.72,-11.34 1470.61,-8.15 1470.83,-15.15"/>
</g>
<!-- Node15&#45;&gt;Node14 -->
<g id="edge19" class="edge">
<title>Node15&#45;&gt;Node14</title>
<path fill="none" stroke="#63b8ff" d="M835.15,-54.75C830.91,-47.49 824.75,-36.95 819.5,-27.98"/>
<polygon fill="#63b8ff" stroke="#63b8ff" points="822.37,-25.95 814.3,-19.09 816.33,-29.49 822.37,-25.95"/>
</g>
<!-- Node16&#45;&gt;Node9 -->
<g id="edge21" class="edge">
<title>Node16&#45;&gt;Node9</title>
<path fill="none" stroke="#63b8ff" d="M2111.97,-241.74C2106.47,-205.39 2084.81,-67.67 2070.27,-55 2031.61,-21.3 1677.29,-12.92 1554.18,-11.02"/>
<polygon fill="#63b8ff" stroke="#63b8ff" points="1554.07,-7.51 1544.02,-10.87 1553.97,-14.51 1554.07,-7.51"/>
</g>
<!-- Node17 -->
<g id="node17" class="node">
<title>Node17</title>
<g id="a_node17"><a xlink:title=" ">
<polygon fill="#e0e0e0" stroke="#999999" points="2156.77,-200.5 2117.77,-200.5 2117.77,-181.5 2156.77,-181.5 2156.77,-200.5"/>
<text text-anchor="middle" x="2137.27" y="-188.5" font-family="Helvetica,sans-Serif" font-size="10.00">SD.h</text>
</a>
</g>
</g>
<!-- Node16&#45;&gt;Node17 -->
<g id="edge22" class="edge">
<title>Node16&#45;&gt;Node17</title>
<path fill="none" stroke="#63b8ff" d="M2116.82,-241.87C2120.22,-233.57 2125.47,-220.78 2129.8,-210.22"/>
<polygon fill="#63b8ff" stroke="#63b8ff" points="2133.16,-211.25 2133.72,-200.67 2126.68,-208.59 2133.16,-211.25"/>
</g>
<!-- Node18 -->
<g id="node18" class="node">
<title>Node18</title>
<g id="a_node18"><a xlink:title=" ">
<polygon fill="#e0e0e0" stroke="#999999" points="2215.77,-200.5 2174.77,-200.5 2174.77,-181.5 2215.77,-181.5 2215.77,-200.5"/>
<text text-anchor="middle" x="2195.27" y="-188.5" font-family="Helvetica,sans-Serif" font-size="10.00">SPI.h</text>
</a>
</g>
</g>
<!-- Node16&#45;&gt;Node18 -->
<g id="edge23" class="edge">
<title>Node16&#45;&gt;Node18</title>
<path fill="none" stroke="#63b8ff" d="M2125.37,-241.87C2138.33,-232.62 2159.13,-217.78 2174.68,-206.69"/>
<polygon fill="#63b8ff" stroke="#63b8ff" points="2177.02,-209.32 2183.12,-200.67 2172.95,-203.63 2177.02,-209.32"/>
</g>
<!-- Node19&#45;&gt;Node2 -->
<g id="edge51" class="edge">
<title>Node19&#45;&gt;Node2</title>
<path fill="none" stroke="#63b8ff" d="M713.52,-248.77C634.53,-243.71 401.74,-227.92 209.27,-206 197.39,-204.65 184.71,-202.98 172.58,-201.28"/>
<polygon fill="#63b8ff" stroke="#63b8ff" points="172.94,-197.79 162.54,-199.84 171.95,-204.72 172.94,-197.79"/>
</g>
<!-- Node19&#45;&gt;Node3 -->
<g id="edge26" class="edge">
<title>Node19&#45;&gt;Node3</title>
<path fill="none" stroke="#63b8ff" d="M713.58,-247.14C670.86,-241.31 592.03,-227.84 575.27,-206 560.71,-187.01 575.95,-159.86 589.01,-142.58"/>
<polygon fill="#63b8ff" stroke="#63b8ff" points="591.93,-144.53 595.47,-134.54 586.47,-140.14 591.93,-144.53"/>
</g>
<!-- Node19&#45;&gt;Node6 -->
<g id="edge27" class="edge">
<title>Node19&#45;&gt;Node6</title>
<path fill="none" stroke="#63b8ff" d="M769.01,-249.77C860.42,-247.07 1147.99,-236.22 1175.27,-206 1273.9,-96.75 1359.94,-217.9 979.27,-140 974.27,-138.98 969.04,-137.86 963.84,-136.73"/>
<polygon fill="#63b8ff" stroke="#63b8ff" points="964.46,-133.28 953.94,-134.54 962.95,-140.12 964.46,-133.28"/>
</g>
<!-- Node19&#45;&gt;Node9 -->
<g id="edge25" class="edge">
<title>Node19&#45;&gt;Node9</title>
<path fill="none" stroke="#63b8ff" d="M713.66,-250.65C676.06,-249.41 608.61,-241.87 566.27,-206 532.27,-177.19 509.21,-144.62 537.27,-110 596.99,-36.33 1292.1,-15.51 1470.67,-11.36"/>
<polygon fill="#63b8ff" stroke="#63b8ff" points="1470.8,-14.86 1480.71,-11.14 1470.64,-7.86 1470.8,-14.86"/>
</g>
<!-- Node20 -->
<g id="node20" class="node">
<title>Node20</title>
<g id="a_node20"><a xlink:href="cat-m1_8h.html" target="_top" xlink:title="CAT&#45;M1 CLI command request and response handler.">
<polygon fill="white" stroke="#666666" points="888.27,-200.5 756.27,-200.5 756.27,-181.5 888.27,-181.5 888.27,-200.5"/>
<text text-anchor="middle" x="822.27" y="-188.5" font-family="Helvetica,sans-Serif" font-size="10.00">cli/peripherals/cat&#45;m1.h</text>
</a>
</g>
</g>
<!-- Node19&#45;&gt;Node20 -->
<g id="edge28" class="edge">
<title>Node19&#45;&gt;Node20</title>
<path fill="none" stroke="#63b8ff" d="M753.23,-241.87C766.03,-232.62 786.57,-217.78 801.93,-206.69"/>
<polygon fill="#63b8ff" stroke="#63b8ff" points="804.22,-209.36 810.27,-200.67 800.12,-203.68 804.22,-209.36"/>
</g>
<!-- Node22 -->
<g id="node22" class="node">
<title>Node22</title>
<g id="a_node22"><a xlink:href="sdi12_8h.html" target="_top" xlink:title="SDI&#45;12 command line interface handler.">
<polygon fill="white" stroke="#666666" points="1148.27,-200.5 1024.27,-200.5 1024.27,-181.5 1148.27,-181.5 1148.27,-200.5"/>
<text text-anchor="middle" x="1086.27" y="-188.5" font-family="Helvetica,sans-Serif" font-size="10.00">cli/peripherals/sdi12.h</text>
</a>
</g>
</g>
<!-- Node19&#45;&gt;Node22 -->
<g id="edge34" class="edge">
<title>Node19&#45;&gt;Node22</title>
<path fill="none" stroke="#63b8ff" d="M768.94,-246.32C818.44,-238.78 925.39,-222.16 1015.27,-206 1021.44,-204.89 1027.9,-203.68 1034.3,-202.46"/>
<polygon fill="#63b8ff" stroke="#63b8ff" points="1035.12,-205.86 1044.27,-200.53 1033.79,-198.99 1035.12,-205.86"/>
</g>
<!-- Node27 -->
<g id="node27" class="node">
<title>Node27</title>
<g id="a_node27"><a xlink:href="cli__power_8h.html" target="_top" xlink:title=" ">
<polygon fill="white" stroke="#666666" points="1006.27,-206 906.27,-206 906.27,-176 1006.27,-176 1006.27,-206"/>
<text text-anchor="start" x="914.27" y="-194" font-family="Helvetica,sans-Serif" font-size="10.00">cli/peripherals/cli</text>
<text text-anchor="middle" x="956.27" y="-183" font-family="Helvetica,sans-Serif" font-size="10.00">_power.h</text>
</a>
</g>
</g>
<!-- Node19&#45;&gt;Node27 -->
<g id="edge45" class="edge">
<title>Node19&#45;&gt;Node27</title>
<path fill="none" stroke="#63b8ff" d="M768.94,-242.97C800.97,-234.26 854.64,-219.65 896.35,-208.3"/>
<polygon fill="#63b8ff" stroke="#63b8ff" points="897.4,-211.65 906.13,-205.64 895.57,-204.89 897.4,-211.65"/>
</g>
<!-- Node28 -->
<g id="node28" class="node">
<title>Node28</title>
<g id="a_node28"><a xlink:href="server_8h.html" target="_top" xlink:title="Handle the setup and maintenance of the BLE server and connected clients.">
<polygon fill="white" stroke="#666666" points="1406.77,-200.5 1301.77,-200.5 1301.77,-181.5 1406.77,-181.5 1406.77,-200.5"/>
<text text-anchor="middle" x="1354.27" y="-188.5" font-family="Helvetica,sans-Serif" font-size="10.00">bluetooth/server.h</text>
</a>
</g>
</g>
<!-- Node19&#45;&gt;Node28 -->
<g id="edge52" class="edge">
<title>Node19&#45;&gt;Node28</title>
<path fill="none" stroke="#63b8ff" d="M768.94,-247.43C840.39,-240.22 1035.91,-221.62 1199.27,-206 1229.41,-203.12 1263.05,-199.89 1291.34,-197.27"/>
<polygon fill="#63b8ff" stroke="#63b8ff" points="1291.86,-200.73 1301.5,-196.33 1291.22,-193.76 1291.86,-200.73"/>
</g>
<!-- Node38 -->
<g id="node38" class="node">
<title>Node38</title>
<g id="a_node38"><a xlink:href="acquisition__intervals_8h.html" target="_top" xlink:title="Handles the time between measurements and uplinks by the device over LTE.">
<polygon fill="white" stroke="#666666" points="738.27,-206 584.27,-206 584.27,-176 738.27,-176 738.27,-206"/>
<text text-anchor="start" x="592.27" y="-194" font-family="Helvetica,sans-Serif" font-size="10.00">cli/device_config/acquisition</text>
<text text-anchor="middle" x="661.27" y="-183" font-family="Helvetica,sans-Serif" font-size="10.00">_intervals.h</text>
</a>
</g>
</g>
<!-- Node19&#45;&gt;Node38 -->
<g id="edge78" class="edge">
<title>Node19&#45;&gt;Node38</title>
<path fill="none" stroke="#63b8ff" d="M729.47,-241.87C718.82,-234.08 702.73,-222.32 688.86,-212.17"/>
<polygon fill="#63b8ff" stroke="#63b8ff" points="690.71,-209.19 680.58,-206.11 686.58,-214.84 690.71,-209.19"/>
</g>
<!-- Node41 -->
<g id="node41" class="node">
<title>Node41</title>
<g id="a_node41"><a xlink:href="mqtt__cli_8h.html" target="_top" xlink:title="MQTT setup and configuration through the CLI.">
<polygon fill="white" stroke="#666666" points="342.27,-206 218.27,-206 218.27,-176 342.27,-176 342.27,-206"/>
<text text-anchor="start" x="226.27" y="-194" font-family="Helvetica,sans-Serif" font-size="10.00">cli/device_config/mqtt</text>
<text text-anchor="middle" x="280.27" y="-183" font-family="Helvetica,sans-Serif" font-size="10.00">_cli.h</text>
</a>
</g>
</g>
<!-- Node19&#45;&gt;Node41 -->
<g id="edge86" class="edge">
<title>Node19&#45;&gt;Node41</title>
<path fill="none" stroke="#63b8ff" d="M713.75,-248.13C651.35,-242.6 494.22,-227.75 352.72,-206.15"/>
<polygon fill="#63b8ff" stroke="#63b8ff" points="352.98,-202.64 342.56,-204.58 351.91,-209.56 352.98,-202.64"/>
</g>
<!-- Node42 -->
<g id="node42" class="node">
<title>Node42</title>
<g id="a_node42"><a xlink:href="config__cli_8h.html" target="_top" xlink:title=" ">
<polygon fill="white" stroke="#666666" points="490.27,-206 360.27,-206 360.27,-176 490.27,-176 490.27,-206"/>
<text text-anchor="start" x="368.27" y="-194" font-family="Helvetica,sans-Serif" font-size="10.00">cli/device_config/config</text>
<text text-anchor="middle" x="425.27" y="-183" font-family="Helvetica,sans-Serif" font-size="10.00">_cli.h</text>
</a>
</g>
</g>
<!-- Node19&#45;&gt;Node42 -->
<g id="edge88" class="edge">
<title>Node19&#45;&gt;Node42</title>
<path fill="none" stroke="#63b8ff" d="M713.51,-245.36C666.28,-236.62 568.79,-218.57 500.31,-205.89"/>
<polygon fill="#63b8ff" stroke="#63b8ff" points="500.9,-202.44 490.43,-204.06 499.62,-209.32 500.9,-202.44"/>
</g>
<!-- Node20&#45;&gt;Node3 -->
<g id="edge29" class="edge">
<title>Node20&#45;&gt;Node3</title>
<path fill="none" stroke="#63b8ff" d="M792.74,-181.37C753.94,-170.03 685.67,-150.08 642.55,-137.48"/>
<polygon fill="#63b8ff" stroke="#63b8ff" points="643.27,-134.04 632.69,-134.6 641.31,-140.76 643.27,-134.04"/>
</g>
<!-- Node20&#45;&gt;Node5 -->
<g id="edge30" class="edge">
<title>Node20&#45;&gt;Node5</title>
<path fill="none" stroke="#63b8ff" d="M806.9,-181.37C787.86,-170.68 755.2,-152.35 732.71,-139.72"/>
<polygon fill="#63b8ff" stroke="#63b8ff" points="734.2,-136.54 723.77,-134.7 730.78,-142.65 734.2,-136.54"/>
</g>
<!-- Node20&#45;&gt;Node6 -->
<g id="edge32" class="edge">
<title>Node20&#45;&gt;Node6</title>
<path fill="none" stroke="#63b8ff" d="M835.09,-181.37C850.67,-170.87 877.2,-153 895.9,-140.4"/>
<polygon fill="#63b8ff" stroke="#63b8ff" points="898.02,-143.19 904.36,-134.7 894.11,-137.38 898.02,-143.19"/>
</g>
<!-- Node20&#45;&gt;Node13 -->
<g id="edge33" class="edge">
<title>Node20&#45;&gt;Node13</title>
<path fill="none" stroke="#63b8ff" d="M849.54,-181.44C880.88,-171.57 933.85,-154.8 979.27,-140 981.41,-139.3 983.61,-138.58 985.82,-137.85"/>
<polygon fill="#63b8ff" stroke="#63b8ff" points="987.13,-141.11 995.53,-134.64 984.93,-134.46 987.13,-141.11"/>
</g>
<!-- Node21 -->
<g id="node21" class="node">
<title>Node21</title>
<g id="a_node21"><a xlink:title=" ">
<polygon fill="#e0e0e0" stroke="#999999" points="845.77,-134.5 756.77,-134.5 756.77,-115.5 845.77,-115.5 845.77,-134.5"/>
<text text-anchor="middle" x="801.27" y="-122.5" font-family="Helvetica,sans-Serif" font-size="10.00">StreamString.h</text>
</a>
</g>
</g>
<!-- Node20&#45;&gt;Node21 -->
<g id="edge31" class="edge">
<title>Node20&#45;&gt;Node21</title>
<path fill="none" stroke="#63b8ff" d="M819.44,-181.37C816.36,-171.97 811.34,-156.67 807.35,-144.53"/>
<polygon fill="#63b8ff" stroke="#63b8ff" points="810.64,-143.32 804.2,-134.91 803.99,-145.5 810.64,-143.32"/>
</g>
<!-- Node22&#45;&gt;Node3 -->
<g id="edge35" class="edge">
<title>Node22&#45;&gt;Node3</title>
<path fill="none" stroke="#63b8ff" d="M1046.21,-181.44C1036.14,-179.47 1025.34,-177.51 1015.27,-176 861.94,-152.98 821.4,-164.36 668.27,-140 662.14,-139.02 655.71,-137.84 649.39,-136.58"/>
<polygon fill="#63b8ff" stroke="#63b8ff" points="650.09,-133.15 639.58,-134.55 648.67,-140 650.09,-133.15"/>
</g>
<!-- Node22&#45;&gt;Node5 -->
<g id="edge36" class="edge">
<title>Node22&#45;&gt;Node5</title>
<path fill="none" stroke="#63b8ff" d="M1045.05,-181.43C1035.31,-179.53 1024.94,-177.6 1015.27,-176 896.71,-156.37 864.04,-168.46 747.27,-140 744.61,-139.35 741.88,-138.59 739.16,-137.75"/>
<polygon fill="#63b8ff" stroke="#63b8ff" points="740.08,-134.37 729.48,-134.53 737.86,-141.01 740.08,-134.37"/>
</g>
<!-- Node22&#45;&gt;Node6 -->
<g id="edge40" class="edge">
<title>Node22&#45;&gt;Node6</title>
<path fill="none" stroke="#63b8ff" d="M1063.48,-181.37C1034.17,-170.27 983.07,-150.92 949.71,-138.28"/>
<polygon fill="#63b8ff" stroke="#63b8ff" points="950.57,-134.86 939.97,-134.6 948.09,-141.41 950.57,-134.86"/>
</g>
<!-- Node22&#45;&gt;Node21 -->
<g id="edge37" class="edge">
<title>Node22&#45;&gt;Node21</title>
<path fill="none" stroke="#63b8ff" d="M1043.81,-181.46C997.18,-171.94 920.19,-155.8 854.27,-140 850.43,-139.08 846.43,-138.09 842.44,-137.07"/>
<polygon fill="#63b8ff" stroke="#63b8ff" points="843.16,-133.64 832.6,-134.53 841.41,-140.42 843.16,-133.64"/>
</g>
<!-- Node22&#45;&gt;Node22 -->
<g id="edge38" class="edge">
<title>Node22&#45;&gt;Node22</title>
<path fill="none" stroke="#63b8ff" d="M1115.81,-200.53C1140.49,-204.61 1166.27,-201.43 1166.27,-191 1166.27,-182 1147.06,-178.4 1125.93,-180.2"/>
<polygon fill="#63b8ff" stroke="#63b8ff" points="1125.3,-176.75 1115.81,-181.47 1126.17,-183.7 1125.3,-176.75"/>
</g>
<!-- Node23 -->
<g id="node23" class="node">
<title>Node23</title>
<g id="a_node23"><a xlink:title=" ">
<polygon fill="#e0e0e0" stroke="#999999" points="985.77,-74 892.77,-74 892.77,-55 985.77,-55 985.77,-74"/>
<text text-anchor="middle" x="939.27" y="-62" font-family="Helvetica,sans-Serif" font-size="10.00">dpiclimate&#45;12.h</text>
</a>
</g>
</g>
<!-- Node22&#45;&gt;Node23 -->
<g id="edge39" class="edge">
<title>Node22&#45;&gt;Node23</title>
<path fill="none" stroke="#63b8ff" d="M1086.11,-181.29C1085.34,-165.11 1081.4,-130.23 1062.27,-110 1051.01,-98.09 1013.33,-85.46 982.61,-76.71"/>
<polygon fill="#63b8ff" stroke="#63b8ff" points="983.5,-73.32 972.93,-74.01 981.62,-80.07 983.5,-73.32"/>
</g>
<!-- Node24 -->
<g id="node24" class="node">
<title>Node24</title>
<g id="a_node24"><a xlink:href="_utils_8h.html" target="_top" xlink:title=" ">
<polygon fill="white" stroke="#666666" points="1158.27,-134.5 1110.27,-134.5 1110.27,-115.5 1158.27,-115.5 1158.27,-134.5"/>
<text text-anchor="middle" x="1134.27" y="-122.5" font-family="Helvetica,sans-Serif" font-size="10.00">Utils.h</text>
</a>
</g>
</g>
<!-- Node22&#45;&gt;Node24 -->
<g id="edge41" class="edge">
<title>Node22&#45;&gt;Node24</title>
<path fill="none" stroke="#63b8ff" d="M1092.75,-181.37C1100.08,-171.59 1112.21,-155.42 1121.47,-143.08"/>
<polygon fill="#63b8ff" stroke="#63b8ff" points="1124.39,-145.01 1127.59,-134.91 1118.79,-140.81 1124.39,-145.01"/>
</g>
<!-- Node24&#45;&gt;Node23 -->
<g id="edge44" class="edge">
<title>Node24&#45;&gt;Node23</title>
<path fill="none" stroke="#63b8ff" d="M1111.87,-115.42C1106.77,-113.56 1101.36,-111.65 1096.27,-110 1057.99,-97.54 1013.82,-85.2 982.11,-76.69"/>
<polygon fill="#63b8ff" stroke="#63b8ff" points="982.84,-73.26 972.27,-74.06 981.03,-80.02 982.84,-73.26"/>
</g>
<!-- Node25 -->
<g id="node25" class="node">
<title>Node25</title>
<g id="a_node25"><a xlink:title=" ">
<polygon fill="#e0e0e0" stroke="#999999" points="1161.27,-74 1105.27,-74 1105.27,-55 1161.27,-55 1161.27,-74"/>
<text text-anchor="middle" x="1133.27" y="-62" font-family="Helvetica,sans-Serif" font-size="10.00">stddef.h</text>
</a>
</g>
</g>
<!-- Node24&#45;&gt;Node25 -->
<g id="edge42" class="edge">
<title>Node24&#45;&gt;Node25</title>
<path fill="none" stroke="#63b8ff" d="M1134.13,-115.37C1133.99,-107.25 1133.77,-94.81 1133.6,-84.39"/>
<polygon fill="#63b8ff" stroke="#63b8ff" points="1137.09,-84.11 1133.42,-74.17 1130.09,-84.23 1137.09,-84.11"/>
</g>
<!-- Node26 -->
<g id="node26" class="node">
<title>Node26</title>
<g id="a_node26"><a xlink:title=" ">
<polygon fill="#e0e0e0" stroke="#999999" points="1086.77,-74 1003.77,-74 1003.77,-55 1086.77,-55 1086.77,-74"/>
<text text-anchor="middle" x="1045.27" y="-62" font-family="Helvetica,sans-Serif" font-size="10.00">ArduinoJson.h</text>
</a>
</g>
</g>
<!-- Node24&#45;&gt;Node26 -->
<g id="edge43" class="edge">
<title>Node24&#45;&gt;Node26</title>
<path fill="none" stroke="#63b8ff" d="M1121.14,-115.37C1106.94,-106.04 1084.08,-91.01 1067.16,-79.88"/>
<polygon fill="#63b8ff" stroke="#63b8ff" points="1068.74,-76.74 1058.46,-74.17 1064.89,-82.58 1068.74,-76.74"/>
</g>
<!-- Node27&#45;&gt;Node3 -->
<g id="edge46" class="edge">
<title>Node27&#45;&gt;Node3</title>
<path fill="none" stroke="#63b8ff" d="M906.12,-177.82C903.13,-177.18 900.17,-176.57 897.27,-176 796.19,-156.09 769.56,-158.85 668.27,-140 662.74,-138.97 656.96,-137.82 651.22,-136.65"/>
<polygon fill="#63b8ff" stroke="#63b8ff" points="651.52,-133.13 641.01,-134.5 650.08,-139.98 651.52,-133.13"/>
</g>
<!-- Node27&#45;&gt;Node5 -->
<g id="edge47" class="edge">
<title>Node27&#45;&gt;Node5</title>
<path fill="none" stroke="#63b8ff" d="M906.09,-178.07C845.5,-163.65 751.15,-141.15 747.27,-140 745.01,-139.32 742.68,-138.59 740.34,-137.82"/>
<polygon fill="#63b8ff" stroke="#63b8ff" points="741.41,-134.49 730.82,-134.57 739.15,-141.12 741.41,-134.49"/>
</g>
<!-- Node27&#45;&gt;Node6 -->
<g id="edge49" class="edge">
<title>Node27&#45;&gt;Node6</title>
<path fill="none" stroke="#63b8ff" d="M947.62,-175.8C941.84,-166.31 934.19,-153.76 928.02,-143.63"/>
<polygon fill="#63b8ff" stroke="#63b8ff" points="930.86,-141.56 922.66,-134.84 924.88,-145.21 930.86,-141.56"/>
</g>
<!-- Node27&#45;&gt;Node13 -->
<g id="edge50" class="edge">
<title>Node27&#45;&gt;Node13</title>
<path fill="none" stroke="#63b8ff" d="M970.7,-175.8C980.83,-165.82 994.4,-152.46 1004.94,-142.09"/>
<polygon fill="#63b8ff" stroke="#63b8ff" points="1007.62,-144.35 1012.29,-134.84 1002.71,-139.37 1007.62,-144.35"/>
</g>
<!-- Node27&#45;&gt;Node21 -->
<g id="edge48" class="edge">
<title>Node27&#45;&gt;Node21</title>
<path fill="none" stroke="#63b8ff" d="M922.26,-175.95C895.08,-164.73 857.34,-149.15 831.27,-138.39"/>
<polygon fill="#63b8ff" stroke="#63b8ff" points="832.48,-135.1 821.9,-134.52 829.81,-141.57 832.48,-135.1"/>
</g>
<!-- Node28&#45;&gt;Node19 -->
<g id="edge77" class="edge">
<title>Node28&#45;&gt;Node19</title>
<path fill="none" stroke="#63b8ff" d="M1301.47,-197.87C1276.03,-200.38 1245.16,-203.33 1217.27,-206 1054.53,-221.56 859.87,-240.08 779.07,-247.35"/>
<polygon fill="#63b8ff" stroke="#63b8ff" points="778.54,-243.88 768.89,-248.26 779.16,-250.85 778.54,-243.88"/>
</g>
<!-- Node29 -->
<g id="node29" class="node">
<title>Node29</title>
<g id="a_node29"><a xlink:title=" ">
<polygon fill="#e0e0e0" stroke="#999999" points="1489.77,-134.5 1412.77,-134.5 1412.77,-115.5 1489.77,-115.5 1489.77,-134.5"/>
<text text-anchor="middle" x="1451.27" y="-122.5" font-family="Helvetica,sans-Serif" font-size="10.00">BLEDevice.h</text>
</a>
</g>
</g>
<!-- Node28&#45;&gt;Node29 -->
<g id="edge53" class="edge">
<title>Node28&#45;&gt;Node29</title>
<path fill="none" stroke="#63b8ff" d="M1367.36,-181.37C1383.34,-170.82 1410.6,-152.84 1429.7,-140.23"/>
<polygon fill="#63b8ff" stroke="#63b8ff" points="1431.67,-143.13 1438.09,-134.7 1427.82,-137.28 1431.67,-143.13"/>
</g>
<!-- Node30 -->
<g id="node30" class="node">
<title>Node30</title>
<g id="a_node30"><a xlink:title=" ">
<polygon fill="#e0e0e0" stroke="#999999" points="1441.27,-74 1367.27,-74 1367.27,-55 1441.27,-55 1441.27,-74"/>
<text text-anchor="middle" x="1404.27" y="-62" font-family="Helvetica,sans-Serif" font-size="10.00">BLEServer.h</text>
</a>
</g>
</g>
<!-- Node28&#45;&gt;Node30 -->
<g id="edge54" class="edge">
<title>Node28&#45;&gt;Node30</title>
<path fill="none" stroke="#63b8ff" d="M1357.71,-181.44C1365.77,-161.36 1386.05,-110.87 1397,-83.62"/>
<polygon fill="#63b8ff" stroke="#63b8ff" points="1400.33,-84.7 1400.81,-74.12 1393.84,-82.09 1400.33,-84.7"/>
</g>
<!-- Node31 -->
<g id="node31" class="node">
<title>Node31</title>
<g id="a_node31"><a xlink:title=" ">
<polygon fill="#e0e0e0" stroke="#999999" points="1356.27,-134.5 1290.27,-134.5 1290.27,-115.5 1356.27,-115.5 1356.27,-134.5"/>
<text text-anchor="middle" x="1323.27" y="-122.5" font-family="Helvetica,sans-Serif" font-size="10.00">BLEUtils.h</text>
</a>
</g>
</g>
<!-- Node28&#45;&gt;Node31 -->
<g id="edge55" class="edge">
<title>Node28&#45;&gt;Node31</title>
<path fill="none" stroke="#63b8ff" d="M1350.09,-181.37C1345.5,-171.88 1337.98,-156.36 1332.07,-144.16"/>
<polygon fill="#63b8ff" stroke="#63b8ff" points="1335.1,-142.38 1327.59,-134.91 1328.8,-145.43 1335.1,-142.38"/>
</g>
<!-- Node32 -->
<g id="node32" class="node">
<title>Node32</title>
<g id="a_node32"><a xlink:title=" ">
<polygon fill="#e0e0e0" stroke="#999999" points="1527.27,-74 1459.27,-74 1459.27,-55 1527.27,-55 1527.27,-74"/>
<text text-anchor="middle" x="1493.27" y="-62" font-family="Helvetica,sans-Serif" font-size="10.00">BLE2902.h</text>
</a>
</g>
</g>
<!-- Node28&#45;&gt;Node32 -->
<g id="edge56" class="edge">
<title>Node28&#45;&gt;Node32</title>
<path fill="none" stroke="#63b8ff" d="M1406.85,-186.67C1439.22,-181.57 1478.41,-169.27 1499.27,-140 1510.89,-123.71 1506.33,-100.01 1500.87,-83.74"/>
<polygon fill="#63b8ff" stroke="#63b8ff" points="1504.11,-82.4 1497.32,-74.27 1497.56,-84.86 1504.11,-82.4"/>
</g>
<!-- Node33 -->
<g id="node33" class="node">
<title>Node33</title>
<g id="a_node33"><a xlink:href="uart_8h.html" target="_top" xlink:title="BluetoothLE UART service setup and handling.">
<polygon fill="white" stroke="#666666" points="1271.77,-134.5 1176.77,-134.5 1176.77,-115.5 1271.77,-115.5 1271.77,-134.5"/>
<text text-anchor="middle" x="1224.27" y="-122.5" font-family="Helvetica,sans-Serif" font-size="10.00">bluetooth/uart.h</text>
</a>
</g>
</g>
<!-- Node28&#45;&gt;Node33 -->
<g id="edge57" class="edge">
<title>Node28&#45;&gt;Node33</title>
<path fill="none" stroke="#63b8ff" d="M1331.95,-181.37C1307.85,-170.63 1270.09,-152.18 1246.17,-139.55"/>
<polygon fill="#63b8ff" stroke="#63b8ff" points="1247.61,-136.35 1237.14,-134.7 1244.29,-142.52 1247.61,-136.35"/>
</g>
<!-- Node36 -->
<g id="node36" class="node">
<title>Node36</title>
<g id="a_node36"><a xlink:href="device_8h.html" target="_top" xlink:title="Bluetooth device services and device information.">
<polygon fill="white" stroke="#666666" points="1653.77,-134.5 1546.77,-134.5 1546.77,-115.5 1653.77,-115.5 1653.77,-134.5"/>
<text text-anchor="middle" x="1600.27" y="-122.5" font-family="Helvetica,sans-Serif" font-size="10.00">bluetooth/device.h</text>
</a>
</g>
</g>
<!-- Node28&#45;&gt;Node36 -->
<g id="edge65" class="edge">
<title>Node28&#45;&gt;Node36</title>
<path fill="none" stroke="#63b8ff" d="M1387.2,-181.44C1431.2,-169.99 1509.25,-149.68 1557.68,-137.08"/>
<polygon fill="#63b8ff" stroke="#63b8ff" points="1558.75,-140.42 1567.55,-134.51 1556.99,-133.64 1558.75,-140.42"/>
</g>
<!-- Node37 -->
<g id="node37" class="node">
<title>Node37</title>
<g id="a_node37"><a xlink:href="power__monitoring_8h.html" target="_top" xlink:title="Setup BluetoothLE power monitoring information.">
<polygon fill="white" stroke="#666666" points="1836.27,-134.5 1672.27,-134.5 1672.27,-115.5 1836.27,-115.5 1836.27,-134.5"/>
<text text-anchor="middle" x="1754.27" y="-122.5" font-family="Helvetica,sans-Serif" font-size="10.00">bluetooth/power_monitoring.h</text>
</a>
</g>
</g>
<!-- Node28&#45;&gt;Node37 -->
<g id="edge70" class="edge">
<title>Node28&#45;&gt;Node37</title>
<path fill="none" stroke="#63b8ff" d="M1406.98,-181.57C1480.17,-169.86 1612.42,-148.7 1690.9,-136.14"/>
<polygon fill="#63b8ff" stroke="#63b8ff" points="1691.81,-139.54 1701.13,-134.5 1690.71,-132.63 1691.81,-139.54"/>
</g>
<!-- Node33&#45;&gt;Node9 -->
<g id="edge58" class="edge">
<title>Node33&#45;&gt;Node9</title>
<path fill="none" stroke="#63b8ff" d="M1240.6,-115.48C1275,-97.56 1352.24,-57.4 1358.27,-55 1395.49,-40.2 1439.54,-27.98 1470.97,-20.11"/>
<polygon fill="#63b8ff" stroke="#63b8ff" points="1471.84,-23.5 1480.71,-17.71 1470.16,-16.71 1471.84,-23.5"/>
</g>
<!-- Node33&#45;&gt;Node28 -->
<g id="edge64" class="edge">
<title>Node33&#45;&gt;Node28</title>
<path fill="none" stroke="#63b8ff" d="M1246.75,-134.7C1270.91,-145.47 1308.67,-163.92 1332.53,-176.53"/>
<polygon fill="#63b8ff" stroke="#63b8ff" points="1331.07,-179.71 1341.53,-181.37 1334.38,-173.55 1331.07,-179.71"/>
</g>
<!-- Node33&#45;&gt;Node30 -->
<g id="edge60" class="edge">
<title>Node33&#45;&gt;Node30</title>
<path fill="none" stroke="#63b8ff" d="M1250.45,-115.49C1281.51,-105.4 1333.47,-88.51 1368.29,-77.19"/>
<polygon fill="#63b8ff" stroke="#63b8ff" points="1369.64,-80.44 1378.07,-74.02 1367.48,-73.78 1369.64,-80.44"/>
</g>
<!-- Node33&#45;&gt;Node32 -->
<g id="edge61" class="edge">
<title>Node33&#45;&gt;Node32</title>
<path fill="none" stroke="#63b8ff" d="M1258.29,-115.45C1265.84,-113.6 1273.82,-111.7 1281.27,-110 1339.15,-96.82 1406.26,-82.98 1449.2,-74.3"/>
<polygon fill="#63b8ff" stroke="#63b8ff" points="1449.94,-77.72 1459.05,-72.31 1448.55,-70.86 1449.94,-77.72"/>
</g>
<!-- Node34 -->
<g id="node34" class="node">
<title>Node34</title>
<g id="a_node34"><a xlink:title=" ">
<polygon fill="#e0e0e0" stroke="#999999" points="1656.77,-74 1545.77,-74 1545.77,-55 1656.77,-55 1656.77,-74"/>
<text text-anchor="middle" x="1601.27" y="-62" font-family="Helvetica,sans-Serif" font-size="10.00">BLECharacteristic.h</text>
</a>
</g>
</g>
<!-- Node33&#45;&gt;Node34 -->
<g id="edge59" class="edge">
<title>Node33&#45;&gt;Node34</title>
<path fill="none" stroke="#63b8ff" d="M1256.4,-115.5C1264.48,-113.53 1273.17,-111.55 1281.27,-110 1305.65,-105.32 1449.28,-85.84 1535.61,-74.26"/>
<polygon fill="#63b8ff" stroke="#63b8ff" points="1536.14,-77.72 1545.59,-72.93 1535.21,-70.79 1536.14,-77.72"/>
</g>
<!-- Node35 -->
<g id="node35" class="node">
<title>Node35</title>
<g id="a_node35"><a xlink:href="tones_8h.html" target="_top" xlink:title="Audio control for the onboard piezo buzzer.">
<polygon fill="white" stroke="#666666" points="1310.77,-74 1179.77,-74 1179.77,-55 1310.77,-55 1310.77,-74"/>
<text text-anchor="middle" x="1245.27" y="-62" font-family="Helvetica,sans-Serif" font-size="10.00">audio&#45;feedback/tones.h</text>
</a>
</g>
</g>
<!-- Node33&#45;&gt;Node35 -->
<g id="edge62" class="edge">
<title>Node33&#45;&gt;Node35</title>
<path fill="none" stroke="#63b8ff" d="M1227.37,-115.37C1230.35,-107.07 1234.94,-94.28 1238.73,-83.72"/>
<polygon fill="#63b8ff" stroke="#63b8ff" points="1242.08,-84.76 1242.16,-74.17 1235.49,-82.4 1242.08,-84.76"/>
</g>
<!-- Node35&#45;&gt;Node9 -->
<g id="edge63" class="edge">
<title>Node35&#45;&gt;Node9</title>
<path fill="none" stroke="#63b8ff" d="M1288.17,-54.98C1338.4,-45.01 1421.04,-28.61 1470.7,-18.75"/>
<polygon fill="#63b8ff" stroke="#63b8ff" points="1471.64,-22.13 1480.77,-16.75 1470.28,-15.27 1471.64,-22.13"/>
</g>
<!-- Node36&#45;&gt;Node9 -->
<g id="edge66" class="edge">
<title>Node36&#45;&gt;Node9</title>
<path fill="none" stroke="#63b8ff" d="M1619.44,-115.46C1644.73,-103 1684.11,-78.72 1666.27,-55 1652.74,-37.01 1594.81,-23.98 1554,-16.83"/>
<polygon fill="#63b8ff" stroke="#63b8ff" points="1554.47,-13.36 1544.03,-15.14 1553.3,-20.27 1554.47,-13.36"/>
</g>
<!-- Node36&#45;&gt;Node30 -->
<g id="edge68" class="edge">
<title>Node36&#45;&gt;Node30</title>
<path fill="none" stroke="#63b8ff" d="M1571.77,-115.49C1537.66,-105.31 1480.4,-88.22 1442.48,-76.9"/>
<polygon fill="#63b8ff" stroke="#63b8ff" points="1443.39,-73.52 1432.81,-74.02 1441.39,-80.23 1443.39,-73.52"/>
</g>
<!-- Node36&#45;&gt;Node32 -->
<g id="edge69" class="edge">
<title>Node36&#45;&gt;Node32</title>
<path fill="none" stroke="#63b8ff" d="M1584.49,-115.37C1566.94,-105.78 1538.39,-90.17 1517.9,-78.97"/>
<polygon fill="#63b8ff" stroke="#63b8ff" points="1519.58,-75.89 1509.13,-74.17 1516.22,-82.04 1519.58,-75.89"/>
</g>
<!-- Node36&#45;&gt;Node34 -->
<g id="edge67" class="edge">
<title>Node36&#45;&gt;Node34</title>
<path fill="none" stroke="#63b8ff" d="M1600.42,-115.37C1600.56,-107.25 1600.77,-94.81 1600.95,-84.39"/>
<polygon fill="#63b8ff" stroke="#63b8ff" points="1604.45,-84.23 1601.13,-74.17 1597.46,-84.11 1604.45,-84.23"/>
</g>
<!-- Node37&#45;&gt;Node8 -->
<g id="edge76" class="edge">
<title>Node37&#45;&gt;Node8</title>
<path fill="none" stroke="#63b8ff" d="M1765.05,-115.37C1776.47,-106.21 1794.75,-91.56 1808.55,-80.51"/>
<polygon fill="#63b8ff" stroke="#63b8ff" points="1810.84,-83.15 1816.46,-74.17 1806.47,-77.69 1810.84,-83.15"/>
</g>
<!-- Node37&#45;&gt;Node9 -->
<g id="edge71" class="edge">
<title>Node37&#45;&gt;Node9</title>
<path fill="none" stroke="#63b8ff" d="M1747.75,-115.34C1736.19,-100.65 1710.68,-70.89 1682.27,-55 1641.93,-32.43 1589.78,-20.99 1553.94,-15.41"/>
<polygon fill="#63b8ff" stroke="#63b8ff" points="1554.23,-11.91 1543.83,-13.92 1553.21,-18.84 1554.23,-11.91"/>
</g>
<!-- Node37&#45;&gt;Node11 -->
<g id="edge75" class="edge">
<title>Node37&#45;&gt;Node11</title>
<path fill="none" stroke="#63b8ff" d="M1788.74,-115.49C1830.51,-105.18 1900.99,-87.78 1946.82,-76.47"/>
<polygon fill="#63b8ff" stroke="#63b8ff" points="1947.9,-79.81 1956.77,-74.02 1946.22,-73.02 1947.9,-79.81"/>
</g>
<!-- Node37&#45;&gt;Node30 -->
<g id="edge73" class="edge">
<title>Node37&#45;&gt;Node30</title>
<path fill="none" stroke="#63b8ff" d="M1700.4,-115.47C1641.67,-106.09 1544.65,-90.39 1451.31,-74.15"/>
<polygon fill="#63b8ff" stroke="#63b8ff" points="1451.87,-70.7 1441.42,-72.43 1450.67,-77.6 1451.87,-70.7"/>
</g>
<!-- Node37&#45;&gt;Node32 -->
<g id="edge74" class="edge">
<title>Node37&#45;&gt;Node32</title>
<path fill="none" stroke="#63b8ff" d="M1716.32,-115.49C1668.84,-104.85 1587.67,-86.66 1537.45,-75.4"/>
<polygon fill="#63b8ff" stroke="#63b8ff" points="1538.05,-71.95 1527.53,-73.18 1536.52,-78.78 1538.05,-71.95"/>
</g>
<!-- Node37&#45;&gt;Node34 -->
<g id="edge72" class="edge">
<title>Node37&#45;&gt;Node34</title>
<path fill="none" stroke="#63b8ff" d="M1732.03,-115.49C1705.96,-105.53 1662.6,-88.95 1633.01,-77.63"/>
<polygon fill="#63b8ff" stroke="#63b8ff" points="1634.14,-74.32 1623.55,-74.02 1631.64,-80.86 1634.14,-74.32"/>
</g>
<!-- Node38&#45;&gt;Node3 -->
<g id="edge79" class="edge">
<title>Node38&#45;&gt;Node3</title>
<path fill="none" stroke="#63b8ff" d="M648.4,-175.8C639.45,-165.92 627.49,-152.72 618.13,-142.39"/>
<polygon fill="#63b8ff" stroke="#63b8ff" points="620.6,-139.9 611.29,-134.84 615.41,-144.6 620.6,-139.9"/>
</g>
<!-- Node38&#45;&gt;Node5 -->
<g id="edge80" class="edge">
<title>Node38&#45;&gt;Node5</title>
<path fill="none" stroke="#63b8ff" d="M671.7,-175.8C678.82,-166.11 688.27,-153.24 695.78,-143.01"/>
<polygon fill="#63b8ff" stroke="#63b8ff" points="698.68,-144.98 701.78,-134.84 693.04,-140.83 698.68,-144.98"/>
</g>
<!-- Node38&#45;&gt;Node6 -->
<g id="edge82" class="edge">
<title>Node38&#45;&gt;Node6</title>
<path fill="none" stroke="#63b8ff" d="M717.45,-175.95C764.33,-164.24 830.2,-147.77 873.3,-136.99"/>
<polygon fill="#63b8ff" stroke="#63b8ff" points="874.35,-140.34 883.2,-134.52 872.65,-133.55 874.35,-140.34"/>
</g>
<!-- Node38&#45;&gt;Node21 -->
<g id="edge81" class="edge">
<title>Node38&#45;&gt;Node21</title>
<path fill="none" stroke="#63b8ff" d="M692,-175.95C716.23,-164.88 749.73,-149.56 773.24,-138.82"/>
<polygon fill="#63b8ff" stroke="#63b8ff" points="775,-141.86 782.64,-134.52 772.09,-135.49 775,-141.86"/>
</g>
<!-- Node39 -->
<g id="node39" class="node">
<title>Node39</title>
<g id="a_node39"><a xlink:href="_device_config_8h.html" target="_top" xlink:title="Node configuration options.">
<polygon fill="white" stroke="#666666" points="470.27,-134.5 380.27,-134.5 380.27,-115.5 470.27,-115.5 470.27,-134.5"/>
<text text-anchor="middle" x="425.27" y="-122.5" font-family="Helvetica,sans-Serif" font-size="10.00">DeviceConfig.h</text>
</a>
</g>
</g>
<!-- Node38&#45;&gt;Node39 -->
<g id="edge83" class="edge">
<title>Node38&#45;&gt;Node39</title>
<path fill="none" stroke="#63b8ff" d="M609.48,-175.95C566.54,-164.31 506.31,-147.98 466.57,-137.2"/>
<polygon fill="#63b8ff" stroke="#63b8ff" points="467.25,-133.76 456.68,-134.52 465.42,-140.51 467.25,-133.76"/>
</g>
<!-- Node39&#45;&gt;Node9 -->
<g id="edge84" class="edge">
<title>Node39&#45;&gt;Node9</title>
<path fill="none" stroke="#63b8ff" d="M431.91,-115.17C444.2,-99.64 472.16,-67.87 504.27,-55 594.9,-18.69 1292.11,-11.87 1470.7,-10.72"/>
<polygon fill="#63b8ff" stroke="#63b8ff" points="1470.77,-14.22 1480.75,-10.66 1470.73,-7.22 1470.77,-14.22"/>
</g>
<!-- Node40 -->
<g id="node40" class="node">
<title>Node40</title>
<g id="a_node40"><a xlink:title=" ">
<polygon fill="#e0e0e0" stroke="#999999" points="451.77,-74 364.77,-74 364.77,-55 451.77,-55 451.77,-74"/>
<text text-anchor="middle" x="408.27" y="-62" font-family="Helvetica,sans-Serif" font-size="10.00">ArduinoJSON.h</text>
</a>
</g>
</g>
<!-- Node39&#45;&gt;Node40 -->
<g id="edge85" class="edge">
<title>Node39&#45;&gt;Node40</title>
<path fill="none" stroke="#63b8ff" d="M422.77,-115.37C420.38,-107.16 416.71,-94.54 413.67,-84.05"/>
<polygon fill="#63b8ff" stroke="#63b8ff" points="416.94,-82.79 410.79,-74.17 410.22,-84.75 416.94,-82.79"/>
</g>
<!-- Node41&#45;&gt;Node39 -->
<g id="edge87" class="edge">
<title>Node41&#45;&gt;Node39</title>
<path fill="none" stroke="#63b8ff" d="M312.09,-175.95C337.3,-164.83 372.2,-149.42 396.56,-138.67"/>
<polygon fill="#63b8ff" stroke="#63b8ff" points="398.24,-141.76 405.98,-134.52 395.42,-135.35 398.24,-141.76"/>
</g>
<!-- Node42&#45;&gt;Node39 -->
<g id="edge89" class="edge">
<title>Node42&#45;&gt;Node39</title>
<path fill="none" stroke="#63b8ff" d="M425.27,-175.8C425.27,-166.7 425.27,-154.79 425.27,-144.9"/>
<polygon fill="#63b8ff" stroke="#63b8ff" points="428.77,-144.84 425.27,-134.84 421.77,-144.84 428.77,-144.84"/>
</g>
</g>
</svg>
