<?xml version="1.0" encoding="UTF-8" standalone="no"?>
<!DOCTYPE svg PUBLIC "-//W3C//DTD SVG 1.1//EN"
 "http://www.w3.org/Graphics/SVG/1.1/DTD/svg11.dtd">
<!-- Generated by graphviz version 2.43.0 (0)
 -->
<!-- Title: firmware/wombat/src/cli/peripherals/sd_card.cpp Pages: 1 -->
<svg width="1899pt" height="346pt"
 viewBox="0.00 0.00 1898.50 346.00" xmlns="http://www.w3.org/2000/svg" xmlns:xlink="http://www.w3.org/1999/xlink">
<g id="graph0" class="graph" transform="scale(1 1) rotate(0) translate(4 342)">
<title>firmware/wombat/src/cli/peripherals/sd_card.cpp</title>
<!-- Node1 -->
<g id="node1" class="node">
<title>Node1</title>
<g id="a_node1"><a xlink:title=" ">
<polygon fill="#999999" stroke="#666666" points="896,-338 776,-338 776,-297 896,-297 896,-338"/>
<text text-anchor="start" x="784" y="-326" font-family="Helvetica,sans-Serif" font-size="10.00">firmware/wombat/src</text>
<text text-anchor="start" x="784" y="-315" font-family="Helvetica,sans-Serif" font-size="10.00">/cli/peripherals/sd</text>
<text text-anchor="middle" x="836" y="-304" font-family="Helvetica,sans-Serif" font-size="10.00">_card.cpp</text>
</a>
</g>
</g>
<!-- Node2 -->
<g id="node2" class="node">
<title>Node2</title>
<g id="a_node2"><a xlink:href="sd__card_8h.html" target="_top" xlink:title=" ">
<polygon fill="white" stroke="#666666" points="100,-206 0,-206 0,-176 100,-176 100,-206"/>
<text text-anchor="start" x="8" y="-194" font-family="Helvetica,sans-Serif" font-size="10.00">cli/peripherals/sd</text>
<text text-anchor="middle" x="50" y="-183" font-family="Helvetica,sans-Serif" font-size="10.00">_card.h</text>
</a>
</g>
</g>
<!-- Node1&#45;&gt;Node2 -->
<g id="edge1" class="edge">
<title>Node1&#45;&gt;Node2</title>
<path fill="none" stroke="#63b8ff" d="M775.87,-309.06C652.69,-293.45 362.72,-254.82 110.25,-206.15"/>
<polygon fill="#63b8ff" stroke="#63b8ff" points="110.63,-202.66 100.15,-204.2 109.3,-209.53 110.63,-202.66"/>
</g>
<!-- Node3 -->
<g id="node3" class="node">
<title>Node3</title>
<g id="a_node3"><a xlink:title=" ">
<polygon fill="#e0e0e0" stroke="#999999" points="723.5,-134.5 610.5,-134.5 610.5,-115.5 723.5,-115.5 723.5,-134.5"/>
<text text-anchor="middle" x="667" y="-122.5" font-family="Helvetica,sans-Serif" font-size="10.00">freertos/FreeRTOS.h</text>
</a>
</g>
</g>
<!-- Node1&#45;&gt;Node3 -->
<g id="edge4" class="edge">
<title>Node1&#45;&gt;Node3</title>
<path fill="none" stroke="#63b8ff" d="M775.93,-309.88C735.13,-302.99 681.59,-289.05 642,-261 608.08,-236.97 584.78,-213.36 603,-176 610.71,-160.2 626.09,-147.93 639.84,-139.5"/>
<polygon fill="#63b8ff" stroke="#63b8ff" points="641.61,-142.52 648.55,-134.51 638.13,-136.45 641.61,-142.52"/>
</g>
<!-- Node5 -->
<g id="node5" class="node">
<title>Node5</title>
<g id="a_node5"><a xlink:title=" ">
<polygon fill="#e0e0e0" stroke="#999999" points="1034.5,-134.5 973.5,-134.5 973.5,-115.5 1034.5,-115.5 1034.5,-134.5"/>
<text text-anchor="middle" x="1004" y="-122.5" font-family="Helvetica,sans-Serif" font-size="10.00">Stream.h</text>
</a>
</g>
</g>
<!-- Node1&#45;&gt;Node5 -->
<g id="edge5" class="edge">
<title>Node1&#45;&gt;Node5</title>
<path fill="none" stroke="#63b8ff" d="M896.11,-310.66C1006.72,-298.54 1235.57,-266.58 1283,-206 1332.64,-142.59 1278,-198.03 1044,-140 1041.35,-139.34 1038.62,-138.58 1035.9,-137.76"/>
<polygon fill="#63b8ff" stroke="#63b8ff" points="1036.79,-134.37 1026.2,-134.6 1034.63,-141.02 1036.79,-134.37"/>
</g>
<!-- Node6 -->
<g id="node6" class="node">
<title>Node6</title>
<g id="a_node6"><a xlink:title=" ">
<polygon fill="#e0e0e0" stroke="#999999" points="848.5,-134.5 741.5,-134.5 741.5,-115.5 848.5,-115.5 848.5,-134.5"/>
<text text-anchor="middle" x="795" y="-122.5" font-family="Helvetica,sans-Serif" font-size="10.00">cli/FreeRTOS_CLI.h</text>
</a>
</g>
</g>
<!-- Node1&#45;&gt;Node6 -->
<g id="edge6" class="edge">
<title>Node1&#45;&gt;Node6</title>
<path fill="none" stroke="#63b8ff" d="M835.06,-296.6C833.37,-269.05 828.81,-217.94 817,-176 813.87,-164.87 808.73,-153 804.21,-143.62"/>
<polygon fill="#63b8ff" stroke="#63b8ff" points="807.28,-141.94 799.66,-134.58 801.02,-145.08 807.28,-141.94"/>
</g>
<!-- Node7 -->
<g id="node7" class="node">
<title>Node7</title>
<g id="a_node7"><a xlink:href="globals_8h.html" target="_top" xlink:title=" ">
<polygon fill="white" stroke="#666666" points="1391.5,-200.5 1330.5,-200.5 1330.5,-181.5 1391.5,-181.5 1391.5,-200.5"/>
<text text-anchor="middle" x="1361" y="-188.5" font-family="Helvetica,sans-Serif" font-size="10.00">globals.h</text>
</a>
</g>
</g>
<!-- Node1&#45;&gt;Node7 -->
<g id="edge7" class="edge">
<title>Node1&#45;&gt;Node7</title>
<path fill="none" stroke="#63b8ff" d="M896.39,-315.81C1009.3,-313.51 1247.16,-303.59 1316,-261 1334.96,-249.27 1347.51,-226.25 1354.43,-210.03"/>
<polygon fill="#63b8ff" stroke="#63b8ff" points="1357.76,-211.13 1358.18,-200.54 1351.25,-208.56 1357.76,-211.13"/>
</g>
<!-- Node16 -->
<g id="node16" class="node">
<title>Node16</title>
<g id="a_node16"><a xlink:href="interface_8h.html" target="_top" xlink:title=" ">
<polygon fill="white" stroke="#666666" points="1823,-261 1715,-261 1715,-242 1823,-242 1823,-261"/>
<text text-anchor="middle" x="1769" y="-249" font-family="Helvetica,sans-Serif" font-size="10.00">sd&#45;card/interface.h</text>
</a>
</g>
</g>
<!-- Node1&#45;&gt;Node16 -->
<g id="edge20" class="edge">
<title>Node1&#45;&gt;Node16</title>
<path fill="none" stroke="#63b8ff" d="M896.14,-312.37C1063.29,-300.91 1532.46,-268.73 1704.61,-256.92"/>
<polygon fill="#63b8ff" stroke="#63b8ff" points="1705.05,-260.39 1714.79,-256.22 1704.57,-253.41 1705.05,-260.39"/>
</g>
<!-- Node19 -->
<g id="node19" class="node">
<title>Node19</title>
<g id="a_node19"><a xlink:href="_c_l_i_8h.html" target="_top" xlink:title="FreeRTOS CLI handler.">
<polygon fill="white" stroke="#666666" points="705.5,-261 650.5,-261 650.5,-242 705.5,-242 705.5,-261"/>
<text text-anchor="middle" x="678" y="-249" font-family="Helvetica,sans-Serif" font-size="10.00">cli/CLI.h</text>
</a>
</g>
</g>
<!-- Node1&#45;&gt;Node19 -->
<g id="edge24" class="edge">
<title>Node1&#45;&gt;Node19</title>
<path fill="none" stroke="#63b8ff" d="M787.74,-296.95C761.96,-286.51 731.02,-273.98 708.57,-264.88"/>
<polygon fill="#63b8ff" stroke="#63b8ff" points="709.79,-261.6 699.21,-261.09 707.17,-268.09 709.79,-261.6"/>
</g>
<!-- Node2&#45;&gt;Node3 -->
<g id="edge2" class="edge">
<title>Node2&#45;&gt;Node3</title>
<path fill="none" stroke="#63b8ff" d="M100.11,-177.57C103.11,-176.99 106.09,-176.46 109,-176 301.91,-145.36 352.63,-159.32 547,-140 564.27,-138.28 582.92,-136.21 600.24,-134.2"/>
<polygon fill="#63b8ff" stroke="#63b8ff" points="600.75,-137.66 610.27,-133.02 599.93,-130.71 600.75,-137.66"/>
</g>
<!-- Node4 -->
<g id="node4" class="node">
<title>Node4</title>
<g id="a_node4"><a xlink:title=" ">
<polygon fill="#e0e0e0" stroke="#999999" points="72,-134.5 28,-134.5 28,-115.5 72,-115.5 72,-134.5"/>
<text text-anchor="middle" x="50" y="-122.5" font-family="Helvetica,sans-Serif" font-size="10.00">string</text>
</a>
</g>
</g>
<!-- Node2&#45;&gt;Node4 -->
<g id="edge3" class="edge">
<title>Node2&#45;&gt;Node4</title>
<path fill="none" stroke="#63b8ff" d="M50,-175.8C50,-166.7 50,-154.79 50,-144.9"/>
<polygon fill="#63b8ff" stroke="#63b8ff" points="53.5,-144.84 50,-134.84 46.5,-144.84 53.5,-144.84"/>
</g>
<!-- Node8 -->
<g id="node8" class="node">
<title>Node8</title>
<g id="a_node8"><a xlink:href="battery_8h.html" target="_top" xlink:title="Battery voltage and current monitoring using INA219 IC.">
<polygon fill="white" stroke="#666666" points="1391.5,-134.5 1240.5,-134.5 1240.5,-115.5 1391.5,-115.5 1391.5,-134.5"/>
<text text-anchor="middle" x="1316" y="-122.5" font-family="Helvetica,sans-Serif" font-size="10.00">power_monitoring/battery.h</text>
</a>
</g>
</g>
<!-- Node7&#45;&gt;Node8 -->
<g id="edge8" class="edge">
<title>Node7&#45;&gt;Node8</title>
<path fill="none" stroke="#63b8ff" d="M1354.93,-181.37C1348.13,-171.69 1336.91,-155.74 1328.26,-143.44"/>
<polygon fill="#63b8ff" stroke="#63b8ff" points="1330.88,-141.07 1322.26,-134.91 1325.15,-145.1 1330.88,-141.07"/>
</g>
<!-- Node11 -->
<g id="node11" class="node">
<title>Node11</title>
<g id="a_node11"><a xlink:href="solar_8h.html" target="_top" xlink:title="Solar voltage and current monitoring using INA219 IC.">
<polygon fill="white" stroke="#666666" points="1698,-134.5 1558,-134.5 1558,-115.5 1698,-115.5 1698,-134.5"/>
<text text-anchor="middle" x="1628" y="-122.5" font-family="Helvetica,sans-Serif" font-size="10.00">power_monitoring/solar.h</text>
</a>
</g>
</g>
<!-- Node7&#45;&gt;Node11 -->
<g id="edge11" class="edge">
<title>Node7&#45;&gt;Node11</title>
<path fill="none" stroke="#63b8ff" d="M1391.63,-182.66C1438.44,-171.44 1528.06,-149.96 1582.49,-136.91"/>
<polygon fill="#63b8ff" stroke="#63b8ff" points="1583.32,-140.31 1592.23,-134.57 1581.69,-133.5 1583.32,-140.31"/>
</g>
<!-- Node12 -->
<g id="node12" class="node">
<title>Node12</title>
<g id="a_node12"><a xlink:title=" ">
<polygon fill="#e0e0e0" stroke="#999999" points="1540,-140 1410,-140 1410,-110 1540,-110 1540,-140"/>
<text text-anchor="start" x="1418" y="-128" font-family="Helvetica,sans-Serif" font-size="10.00">SparkFun_u&#45;blox_SARA</text>
<text text-anchor="middle" x="1475" y="-117" font-family="Helvetica,sans-Serif" font-size="10.00">&#45;R5_Arduino_Library.h</text>
</a>
</g>
</g>
<!-- Node7&#45;&gt;Node12 -->
<g id="edge14" class="edge">
<title>Node7&#45;&gt;Node12</title>
<path fill="none" stroke="#63b8ff" d="M1376.37,-181.37C1392.86,-172.11 1419.56,-157.12 1441.02,-145.07"/>
<polygon fill="#63b8ff" stroke="#63b8ff" points="1442.85,-148.06 1449.86,-140.12 1439.42,-141.96 1442.85,-148.06"/>
</g>
<!-- Node13 -->
<g id="node13" class="node">
<title>Node13</title>
<g id="a_node13"><a xlink:href="_c_a_t___m1_8h.html" target="_top" xlink:title=" ">
<polygon fill="white" stroke="#666666" points="1117.5,-134.5 1052.5,-134.5 1052.5,-115.5 1117.5,-115.5 1117.5,-134.5"/>
<text text-anchor="middle" x="1085" y="-122.5" font-family="Helvetica,sans-Serif" font-size="10.00">CAT_M1.h</text>
</a>
</g>
</g>
<!-- Node7&#45;&gt;Node13 -->
<g id="edge15" class="edge">
<title>Node7&#45;&gt;Node13</title>
<path fill="none" stroke="#63b8ff" d="M1335.44,-181.5C1329.13,-179.55 1322.35,-177.59 1316,-176 1233.04,-155.27 1209.75,-161.57 1127,-140 1124.21,-139.27 1121.34,-138.46 1118.46,-137.6"/>
<polygon fill="#63b8ff" stroke="#63b8ff" points="1119.41,-134.23 1108.82,-134.55 1117.3,-140.9 1119.41,-134.23"/>
</g>
<!-- Node9 -->
<g id="node9" class="node">
<title>Node9</title>
<g id="a_node9"><a xlink:title=" ">
<polygon fill="#e0e0e0" stroke="#999999" points="1535.5,-19 1472.5,-19 1472.5,0 1535.5,0 1535.5,-19"/>
<text text-anchor="middle" x="1504" y="-7" font-family="Helvetica,sans-Serif" font-size="10.00">Arduino.h</text>
</a>
</g>
</g>
<!-- Node8&#45;&gt;Node9 -->
<g id="edge9" class="edge">
<title>Node8&#45;&gt;Node9</title>
<path fill="none" stroke="#63b8ff" d="M1330.13,-115.47C1362.39,-96 1441.68,-48.13 1481.05,-24.36"/>
<polygon fill="#63b8ff" stroke="#63b8ff" points="1482.95,-27.29 1489.71,-19.13 1479.34,-21.3 1482.95,-27.29"/>
</g>
<!-- Node10 -->
<g id="node10" class="node">
<title>Node10</title>
<g id="a_node10"><a xlink:title=" ">
<polygon fill="#e0e0e0" stroke="#999999" points="1548.5,-74 1443.5,-74 1443.5,-55 1548.5,-55 1548.5,-74"/>
<text text-anchor="middle" x="1496" y="-62" font-family="Helvetica,sans-Serif" font-size="10.00">Adafruit_INA219.h</text>
</a>
</g>
</g>
<!-- Node8&#45;&gt;Node10 -->
<g id="edge10" class="edge">
<title>Node8&#45;&gt;Node10</title>
<path fill="none" stroke="#63b8ff" d="M1342.17,-115.49C1373.23,-105.4 1425.19,-88.51 1460.02,-77.19"/>
<polygon fill="#63b8ff" stroke="#63b8ff" points="1461.37,-80.44 1469.79,-74.02 1459.2,-73.78 1461.37,-80.44"/>
</g>
<!-- Node11&#45;&gt;Node9 -->
<g id="edge12" class="edge">
<title>Node11&#45;&gt;Node9</title>
<path fill="none" stroke="#63b8ff" d="M1619.62,-115.25C1606.72,-101.9 1581.07,-75.8 1558,-55 1546.72,-44.83 1533.58,-33.98 1523.09,-25.54"/>
<polygon fill="#63b8ff" stroke="#63b8ff" points="1525,-22.59 1515,-19.09 1520.63,-28.06 1525,-22.59"/>
</g>
<!-- Node11&#45;&gt;Node10 -->
<g id="edge13" class="edge">
<title>Node11&#45;&gt;Node10</title>
<path fill="none" stroke="#63b8ff" d="M1608.81,-115.49C1586.61,-105.66 1549.88,-89.38 1524.38,-78.08"/>
<polygon fill="#63b8ff" stroke="#63b8ff" points="1525.78,-74.87 1515.22,-74.02 1522.94,-81.27 1525.78,-74.87"/>
</g>
<!-- Node14 -->
<g id="node14" class="node">
<title>Node14</title>
<g id="a_node14"><a xlink:title=" ">
<polygon fill="#e0e0e0" stroke="#999999" points="942,-19 894,-19 894,0 942,0 942,-19"/>
<text text-anchor="middle" x="918" y="-7" font-family="Helvetica,sans-Serif" font-size="10.00">Wire.h</text>
</a>
</g>
</g>
<!-- Node13&#45;&gt;Node14 -->
<g id="edge16" class="edge">
<title>Node13&#45;&gt;Node14</title>
<path fill="none" stroke="#63b8ff" d="M1060.81,-115.41C1055.31,-113.55 1049.47,-111.65 1044,-110 983.3,-91.75 944.75,-124.16 906,-74 895.95,-61 901.33,-42.09 907.77,-28.29"/>
<polygon fill="#63b8ff" stroke="#63b8ff" points="910.94,-29.79 912.44,-19.3 904.72,-26.56 910.94,-29.79"/>
</g>
<!-- Node15 -->
<g id="node15" class="node">
<title>Node15</title>
<g id="a_node15"><a xlink:href="_t_c_a9534_8h.html" target="_top" xlink:title=" ">
<polygon fill="white" stroke="#666666" points="983,-74 915,-74 915,-55 983,-55 983,-74"/>
<text text-anchor="middle" x="949" y="-62" font-family="Helvetica,sans-Serif" font-size="10.00">TCA9534.h</text>
</a>
</g>
</g>
<!-- Node13&#45;&gt;Node15 -->
<g id="edge17" class="edge">
<title>Node13&#45;&gt;Node15</title>
<path fill="none" stroke="#63b8ff" d="M1065.22,-115.49C1042.36,-105.66 1004.51,-89.38 978.24,-78.08"/>
<polygon fill="#63b8ff" stroke="#63b8ff" points="979.37,-74.75 968.8,-74.02 976.6,-81.18 979.37,-74.75"/>
</g>
<!-- Node15&#45;&gt;Node9 -->
<g id="edge18" class="edge">
<title>Node15&#45;&gt;Node9</title>
<path fill="none" stroke="#63b8ff" d="M983.03,-57.09C987.71,-56.32 992.47,-55.6 997,-55 1168.96,-32.27 1375.33,-18.23 1462.21,-12.92"/>
<polygon fill="#63b8ff" stroke="#63b8ff" points="1462.68,-16.4 1472.45,-12.3 1462.26,-9.41 1462.68,-16.4"/>
</g>
<!-- Node15&#45;&gt;Node14 -->
<g id="edge19" class="edge">
<title>Node15&#45;&gt;Node14</title>
<path fill="none" stroke="#63b8ff" d="M943.88,-54.75C939.64,-47.49 933.47,-36.95 928.22,-27.98"/>
<polygon fill="#63b8ff" stroke="#63b8ff" points="931.09,-25.95 923.02,-19.09 925.05,-29.49 931.09,-25.95"/>
</g>
<!-- Node16&#45;&gt;Node9 -->
<g id="edge21" class="edge">
<title>Node16&#45;&gt;Node9</title>
<path fill="none" stroke="#63b8ff" d="M1767.33,-241.75C1762.34,-217.75 1745.42,-149.99 1707,-110 1662,-63.16 1590.35,-35.3 1545.31,-21.45"/>
<polygon fill="#63b8ff" stroke="#63b8ff" points="1546.16,-18.05 1535.57,-18.55 1544.16,-24.76 1546.16,-18.05"/>
</g>
<!-- Node17 -->
<g id="node17" class="node">
<title>Node17</title>
<g id="a_node17"><a xlink:title=" ">
<polygon fill="#e0e0e0" stroke="#999999" points="1831.5,-200.5 1792.5,-200.5 1792.5,-181.5 1831.5,-181.5 1831.5,-200.5"/>
<text text-anchor="middle" x="1812" y="-188.5" font-family="Helvetica,sans-Serif" font-size="10.00">SD.h</text>
</a>
</g>
</g>
<!-- Node16&#45;&gt;Node17 -->
<g id="edge22" class="edge">
<title>Node16&#45;&gt;Node17</title>
<path fill="none" stroke="#63b8ff" d="M1775.34,-241.87C1781.7,-233.23 1791.64,-219.7 1799.57,-208.92"/>
<polygon fill="#63b8ff" stroke="#63b8ff" points="1802.53,-210.8 1805.63,-200.67 1796.89,-206.65 1802.53,-210.8"/>
</g>
<!-- Node18 -->
<g id="node18" class="node">
<title>Node18</title>
<g id="a_node18"><a xlink:title=" ">
<polygon fill="#e0e0e0" stroke="#999999" points="1890.5,-200.5 1849.5,-200.5 1849.5,-181.5 1890.5,-181.5 1890.5,-200.5"/>
<text text-anchor="middle" x="1870" y="-188.5" font-family="Helvetica,sans-Serif" font-size="10.00">SPI.h</text>
</a>
</g>
</g>
<!-- Node16&#45;&gt;Node18 -->
<g id="edge23" class="edge">
<title>Node16&#45;&gt;Node18</title>
<path fill="none" stroke="#63b8ff" d="M1783.9,-241.87C1800.31,-232.36 1826.93,-216.95 1846.23,-205.77"/>
<polygon fill="#63b8ff" stroke="#63b8ff" points="1848.14,-208.71 1855.04,-200.67 1844.63,-202.65 1848.14,-208.71"/>
</g>
<!-- Node19&#45;&gt;Node2 -->
<g id="edge51" class="edge">
<title>Node19&#45;&gt;Node2</title>
<path fill="none" stroke="#63b8ff" d="M650.29,-249.85C568.85,-247.63 323.15,-238.63 110.22,-206.02"/>
<polygon fill="#63b8ff" stroke="#63b8ff" points="110.53,-202.52 100.11,-204.45 109.45,-209.44 110.53,-202.52"/>
</g>
<!-- Node19&#45;&gt;Node3 -->
<g id="edge26" class="edge">
<title>Node19&#45;&gt;Node3</title>
<path fill="none" stroke="#63b8ff" d="M655.22,-241.89C639.97,-234.79 621.08,-223.08 612,-206 605.74,-194.23 606.61,-188.19 612,-176 618.55,-161.19 631.9,-148.88 643.81,-140.18"/>
<polygon fill="#63b8ff" stroke="#63b8ff" points="645.83,-143.04 652.11,-134.5 641.88,-137.26 645.83,-143.04"/>
</g>
<!-- Node19&#45;&gt;Node6 -->
<g id="edge27" class="edge">
<title>Node19&#45;&gt;Node6</title>
<path fill="none" stroke="#63b8ff" d="M668.5,-241.62C654.01,-227 629.62,-197.35 645,-176 651.58,-166.88 711.19,-148.95 753.25,-137.22"/>
<polygon fill="#63b8ff" stroke="#63b8ff" points="754.29,-140.57 762.99,-134.53 752.42,-133.82 754.29,-140.57"/>
</g>
<!-- Node19&#45;&gt;Node9 -->
<g id="edge25" class="edge">
<title>Node19&#45;&gt;Node9</title>
<path fill="none" stroke="#63b8ff" d="M705.68,-249.8C863.22,-245.52 1642.1,-220.39 1707,-140 1737.51,-102.21 1660.48,-55.94 1659,-55 1624.36,-32.97 1578.55,-21.58 1545.73,-15.86"/>
<polygon fill="#63b8ff" stroke="#63b8ff" points="1546,-12.36 1535.56,-14.2 1544.87,-19.27 1546,-12.36"/>
</g>
<!-- Node20 -->
<g id="node20" class="node">
<title>Node20</title>
<g id="a_node20"><a xlink:href="cat-m1_8h.html" target="_top" xlink:title="CAT&#45;M1 CLI command request and response handler.">
<polygon fill="white" stroke="#666666" points="996,-200.5 864,-200.5 864,-181.5 996,-181.5 996,-200.5"/>
<text text-anchor="middle" x="930" y="-188.5" font-family="Helvetica,sans-Serif" font-size="10.00">cli/peripherals/cat&#45;m1.h</text>
</a>
</g>
</g>
<!-- Node19&#45;&gt;Node20 -->
<g id="edge28" class="edge">
<title>Node19&#45;&gt;Node20</title>
<path fill="none" stroke="#63b8ff" d="M705.93,-244.02C748.7,-234.09 830.92,-215 882.99,-202.91"/>
<polygon fill="#63b8ff" stroke="#63b8ff" points="884.03,-206.27 892.98,-200.59 882.44,-199.45 884.03,-206.27"/>
</g>
<!-- Node22 -->
<g id="node22" class="node">
<title>Node22</title>
<g id="a_node22"><a xlink:href="sdi12_8h.html" target="_top" xlink:title="SDI&#45;12 command line interface handler.">
<polygon fill="white" stroke="#666666" points="1256,-200.5 1132,-200.5 1132,-181.5 1256,-181.5 1256,-200.5"/>
<text text-anchor="middle" x="1194" y="-188.5" font-family="Helvetica,sans-Serif" font-size="10.00">cli/peripherals/sdi12.h</text>
</a>
</g>
</g>
<!-- Node19&#45;&gt;Node22 -->
<g id="edge34" class="edge">
<title>Node19&#45;&gt;Node22</title>
<path fill="none" stroke="#63b8ff" d="M705.71,-248.65C775.84,-243.76 965.94,-229.28 1123,-206 1129.85,-204.98 1137.04,-203.76 1144.1,-202.46"/>
<polygon fill="#63b8ff" stroke="#63b8ff" points="1145.14,-205.82 1154.31,-200.52 1143.83,-198.95 1145.14,-205.82"/>
</g>
<!-- Node27 -->
<g id="node27" class="node">
<title>Node27</title>
<g id="a_node27"><a xlink:href="cli__power_8h.html" target="_top" xlink:title=" ">
<polygon fill="white" stroke="#666666" points="1114,-206 1014,-206 1014,-176 1114,-176 1114,-206"/>
<text text-anchor="start" x="1022" y="-194" font-family="Helvetica,sans-Serif" font-size="10.00">cli/peripherals/cli</text>
<text text-anchor="middle" x="1064" y="-183" font-family="Helvetica,sans-Serif" font-size="10.00">_power.h</text>
</a>
</g>
</g>
<!-- Node19&#45;&gt;Node27 -->
<g id="edge45" class="edge">
<title>Node19&#45;&gt;Node27</title>
<path fill="none" stroke="#63b8ff" d="M705.71,-247.65C760.65,-241.81 887.43,-227.36 1003.72,-206.12"/>
<polygon fill="#63b8ff" stroke="#63b8ff" points="1004.66,-209.51 1013.86,-204.25 1003.39,-202.63 1004.66,-209.51"/>
</g>
<!-- Node28 -->
<g id="node28" class="node">
<title>Node28</title>
<g id="a_node28"><a xlink:href="acquisition__intervals_8h.html" target="_top" xlink:title="Handles the time between measurements and uplinks by the device over LTE.">
<polygon fill="white" stroke="#666666" points="808,-206 654,-206 654,-176 808,-176 808,-206"/>
<text text-anchor="start" x="662" y="-194" font-family="Helvetica,sans-Serif" font-size="10.00">cli/device_config/acquisition</text>
<text text-anchor="middle" x="731" y="-183" font-family="Helvetica,sans-Serif" font-size="10.00">_intervals.h</text>
</a>
</g>
</g>
<!-- Node19&#45;&gt;Node28 -->
<g id="edge52" class="edge">
<title>Node19&#45;&gt;Node28</title>
<path fill="none" stroke="#63b8ff" d="M685.82,-241.87C692.55,-234.44 702.54,-223.42 711.41,-213.62"/>
<polygon fill="#63b8ff" stroke="#63b8ff" points="714.09,-215.88 718.21,-206.11 708.9,-211.18 714.09,-215.88"/>
</g>
<!-- Node30 -->
<g id="node30" class="node">
<title>Node30</title>
<g id="a_node30"><a xlink:href="mqtt__cli_8h.html" target="_top" xlink:title="MQTT setup and configuration through the CLI.">
<polygon fill="white" stroke="#666666" points="242,-206 118,-206 118,-176 242,-176 242,-206"/>
<text text-anchor="start" x="126" y="-194" font-family="Helvetica,sans-Serif" font-size="10.00">cli/device_config/mqtt</text>
<text text-anchor="middle" x="180" y="-183" font-family="Helvetica,sans-Serif" font-size="10.00">_cli.h</text>
</a>
</g>
</g>
<!-- Node19&#45;&gt;Node30 -->
<g id="edge60" class="edge">
<title>Node19&#45;&gt;Node30</title>
<path fill="none" stroke="#63b8ff" d="M650.41,-248.5C583.8,-243.48 408.73,-229.19 252.54,-206.14"/>
<polygon fill="#63b8ff" stroke="#63b8ff" points="252.69,-202.63 242.28,-204.61 251.66,-209.55 252.69,-202.63"/>
</g>
<!-- Node31 -->
<g id="node31" class="node">
<title>Node31</title>
<g id="a_node31"><a xlink:href="ftp__cli_8h.html" target="_top" xlink:title="FTP setup and configuration through the CLI.">
<polygon fill="white" stroke="#666666" points="373.5,-206 260.5,-206 260.5,-176 373.5,-176 373.5,-206"/>
<text text-anchor="start" x="268.5" y="-194" font-family="Helvetica,sans-Serif" font-size="10.00">cli/device_config/ftp</text>
<text text-anchor="middle" x="317" y="-183" font-family="Helvetica,sans-Serif" font-size="10.00">_cli.h</text>
</a>
</g>
</g>
<!-- Node19&#45;&gt;Node31 -->
<g id="edge62" class="edge">
<title>Node19&#45;&gt;Node31</title>
<path fill="none" stroke="#63b8ff" d="M650.25,-246.87C599.5,-240.12 488.1,-224.74 383.9,-206.1"/>
<polygon fill="#63b8ff" stroke="#63b8ff" points="384.3,-202.61 373.84,-204.28 383.06,-209.5 384.3,-202.61"/>
</g>
<!-- Node32 -->
<g id="node32" class="node">
<title>Node32</title>
<g id="a_node32"><a xlink:href="config__cli_8h.html" target="_top" xlink:title=" ">
<polygon fill="white" stroke="#666666" points="522,-206 392,-206 392,-176 522,-176 522,-206"/>
<text text-anchor="start" x="400" y="-194" font-family="Helvetica,sans-Serif" font-size="10.00">cli/device_config/config</text>
<text text-anchor="middle" x="457" y="-183" font-family="Helvetica,sans-Serif" font-size="10.00">_cli.h</text>
</a>
</g>
</g>
<!-- Node19&#45;&gt;Node32 -->
<g id="edge64" class="edge">
<title>Node19&#45;&gt;Node32</title>
<path fill="none" stroke="#63b8ff" d="M650.46,-243.21C618.04,-234.63 563.17,-220.1 520.13,-208.71"/>
<polygon fill="#63b8ff" stroke="#63b8ff" points="520.86,-205.28 510.3,-206.11 519.07,-212.05 520.86,-205.28"/>
</g>
<!-- Node20&#45;&gt;Node3 -->
<g id="edge29" class="edge">
<title>Node20&#45;&gt;Node3</title>
<path fill="none" stroke="#63b8ff" d="M894.8,-181.44C847.56,-169.94 763.62,-149.51 711.88,-136.92"/>
<polygon fill="#63b8ff" stroke="#63b8ff" points="712.53,-133.48 701.99,-134.51 710.88,-140.28 712.53,-133.48"/>
</g>
<!-- Node20&#45;&gt;Node5 -->
<g id="edge30" class="edge">
<title>Node20&#45;&gt;Node5</title>
<path fill="none" stroke="#63b8ff" d="M939.98,-181.37C951.72,-171.21 971.44,-154.16 985.9,-141.65"/>
<polygon fill="#63b8ff" stroke="#63b8ff" points="988.43,-144.09 993.7,-134.91 983.85,-138.8 988.43,-144.09"/>
</g>
<!-- Node20&#45;&gt;Node6 -->
<g id="edge32" class="edge">
<title>Node20&#45;&gt;Node6</title>
<path fill="none" stroke="#63b8ff" d="M911.79,-181.37C888.85,-170.49 849.19,-151.69 822.53,-139.05"/>
<polygon fill="#63b8ff" stroke="#63b8ff" points="823.88,-135.82 813.35,-134.7 820.89,-142.15 823.88,-135.82"/>
</g>
<!-- Node20&#45;&gt;Node13 -->
<g id="edge33" class="edge">
<title>Node20&#45;&gt;Node13</title>
<path fill="none" stroke="#63b8ff" d="M950.9,-181.37C977.6,-170.35 1023.99,-151.19 1054.59,-138.55"/>
<polygon fill="#63b8ff" stroke="#63b8ff" points="1056.02,-141.75 1063.93,-134.7 1053.35,-135.28 1056.02,-141.75"/>
</g>
<!-- Node21 -->
<g id="node21" class="node">
<title>Node21</title>
<g id="a_node21"><a xlink:title=" ">
<polygon fill="#e0e0e0" stroke="#999999" points="955.5,-134.5 866.5,-134.5 866.5,-115.5 955.5,-115.5 955.5,-134.5"/>
<text text-anchor="middle" x="911" y="-122.5" font-family="Helvetica,sans-Serif" font-size="10.00">StreamString.h</text>
</a>
</g>
</g>
<!-- Node20&#45;&gt;Node21 -->
<g id="edge31" class="edge">
<title>Node20&#45;&gt;Node21</title>
<path fill="none" stroke="#63b8ff" d="M927.44,-181.37C924.65,-171.97 920.11,-156.67 916.5,-144.53"/>
<polygon fill="#63b8ff" stroke="#63b8ff" points="919.85,-143.5 913.64,-134.91 913.13,-145.49 919.85,-143.5"/>
</g>
<!-- Node22&#45;&gt;Node3 -->
<g id="edge35" class="edge">
<title>Node22&#45;&gt;Node3</title>
<path fill="none" stroke="#63b8ff" d="M1154.32,-181.43C1144.15,-179.44 1133.2,-177.47 1123,-176 950.72,-151.13 905.1,-166.1 733,-140 726.69,-139.04 720.08,-137.86 713.58,-136.59"/>
<polygon fill="#63b8ff" stroke="#63b8ff" points="714.01,-133.11 703.52,-134.54 712.62,-139.97 714.01,-133.11"/>
</g>
<!-- Node22&#45;&gt;Node5 -->
<g id="edge36" class="edge">
<title>Node22&#45;&gt;Node5</title>
<path fill="none" stroke="#63b8ff" d="M1167.95,-181.45C1138,-171.58 1087.38,-154.82 1044,-140 1042.12,-139.36 1040.19,-138.7 1038.25,-138.02"/>
<polygon fill="#63b8ff" stroke="#63b8ff" points="1039.11,-134.62 1028.52,-134.65 1036.82,-141.23 1039.11,-134.62"/>
</g>
<!-- Node22&#45;&gt;Node6 -->
<g id="edge40" class="edge">
<title>Node22&#45;&gt;Node6</title>
<path fill="none" stroke="#63b8ff" d="M1152.78,-181.44C1143.03,-179.54 1132.67,-177.61 1123,-176 1005.75,-156.49 975.01,-160.91 858,-140 852.49,-139.01 846.72,-137.88 841.02,-136.69"/>
<polygon fill="#63b8ff" stroke="#63b8ff" points="841.39,-133.19 830.88,-134.52 839.92,-140.04 841.39,-133.19"/>
</g>
<!-- Node22&#45;&gt;Node21 -->
<g id="edge37" class="edge">
<title>Node22&#45;&gt;Node21</title>
<path fill="none" stroke="#63b8ff" d="M1152.52,-181.45C1106.56,-171.85 1030.31,-155.59 965,-140 961.14,-139.08 957.12,-138.09 953.11,-137.09"/>
<polygon fill="#63b8ff" stroke="#63b8ff" points="953.77,-133.64 943.22,-134.57 952.04,-140.43 953.77,-133.64"/>
</g>
<!-- Node22&#45;&gt;Node22 -->
<g id="edge38" class="edge">
<title>Node22&#45;&gt;Node22</title>
<path fill="none" stroke="#63b8ff" d="M1223.54,-200.53C1248.22,-204.61 1274,-201.43 1274,-191 1274,-182 1254.78,-178.4 1233.65,-180.2"/>
<polygon fill="#63b8ff" stroke="#63b8ff" points="1233.03,-176.75 1223.54,-181.47 1233.9,-183.7 1233.03,-176.75"/>
</g>
<!-- Node23 -->
<g id="node23" class="node">
<title>Node23</title>
<g id="a_node23"><a xlink:title=" ">
<polygon fill="#e0e0e0" stroke="#999999" points="1308.5,-74 1215.5,-74 1215.5,-55 1308.5,-55 1308.5,-74"/>
<text text-anchor="middle" x="1262" y="-62" font-family="Helvetica,sans-Serif" font-size="10.00">dpiclimate&#45;12.h</text>
</a>
</g>
</g>
<!-- Node22&#45;&gt;Node23 -->
<g id="edge39" class="edge">
<title>Node22&#45;&gt;Node23</title>
<path fill="none" stroke="#63b8ff" d="M1197.59,-181.38C1203.9,-166.48 1217.68,-135.11 1232,-110 1237.37,-100.59 1244.04,-90.55 1249.74,-82.39"/>
<polygon fill="#63b8ff" stroke="#63b8ff" points="1252.68,-84.29 1255.62,-74.12 1246.98,-80.24 1252.68,-84.29"/>
</g>
<!-- Node24 -->
<g id="node24" class="node">
<title>Node24</title>
<g id="a_node24"><a xlink:href="_utils_8h.html" target="_top" xlink:title=" ">
<polygon fill="white" stroke="#666666" points="1184,-134.5 1136,-134.5 1136,-115.5 1184,-115.5 1184,-134.5"/>
<text text-anchor="middle" x="1160" y="-122.5" font-family="Helvetica,sans-Serif" font-size="10.00">Utils.h</text>
</a>
</g>
</g>
<!-- Node22&#45;&gt;Node24 -->
<g id="edge41" class="edge">
<title>Node22&#45;&gt;Node24</title>
<path fill="none" stroke="#63b8ff" d="M1189.41,-181.37C1184.32,-171.78 1175.96,-156.05 1169.46,-143.8"/>
<polygon fill="#63b8ff" stroke="#63b8ff" points="1172.51,-142.09 1164.73,-134.91 1166.33,-145.38 1172.51,-142.09"/>
</g>
<!-- Node24&#45;&gt;Node23 -->
<g id="edge44" class="edge">
<title>Node24&#45;&gt;Node23</title>
<path fill="none" stroke="#63b8ff" d="M1175.05,-115.37C1191.62,-105.86 1218.5,-90.45 1237.99,-79.27"/>
<polygon fill="#63b8ff" stroke="#63b8ff" points="1239.95,-82.18 1246.89,-74.17 1236.47,-76.11 1239.95,-82.18"/>
</g>
<!-- Node25 -->
<g id="node25" class="node">
<title>Node25</title>
<g id="a_node25"><a xlink:title=" ">
<polygon fill="#e0e0e0" stroke="#999999" points="1197,-74 1141,-74 1141,-55 1197,-55 1197,-74"/>
<text text-anchor="middle" x="1169" y="-62" font-family="Helvetica,sans-Serif" font-size="10.00">stddef.h</text>
</a>
</g>
</g>
<!-- Node24&#45;&gt;Node25 -->
<g id="edge42" class="edge">
<title>Node24&#45;&gt;Node25</title>
<path fill="none" stroke="#63b8ff" d="M1161.33,-115.37C1162.59,-107.16 1164.53,-94.54 1166.15,-84.05"/>
<polygon fill="#63b8ff" stroke="#63b8ff" points="1169.61,-84.58 1167.67,-74.17 1162.69,-83.52 1169.61,-84.58"/>
</g>
<!-- Node26 -->
<g id="node26" class="node">
<title>Node26</title>
<g id="a_node26"><a xlink:title=" ">
<polygon fill="#e0e0e0" stroke="#999999" points="1122.5,-74 1039.5,-74 1039.5,-55 1122.5,-55 1122.5,-74"/>
<text text-anchor="middle" x="1081" y="-62" font-family="Helvetica,sans-Serif" font-size="10.00">ArduinoJson.h</text>
</a>
</g>
</g>
<!-- Node24&#45;&gt;Node26 -->
<g id="edge43" class="edge">
<title>Node24&#45;&gt;Node26</title>
<path fill="none" stroke="#63b8ff" d="M1148.34,-115.37C1135.86,-106.12 1115.82,-91.28 1100.84,-80.19"/>
<polygon fill="#63b8ff" stroke="#63b8ff" points="1102.82,-77.31 1092.7,-74.17 1098.66,-82.93 1102.82,-77.31"/>
</g>
<!-- Node27&#45;&gt;Node3 -->
<g id="edge46" class="edge">
<title>Node27&#45;&gt;Node3</title>
<path fill="none" stroke="#63b8ff" d="M1013.86,-177.74C1010.87,-177.12 1007.9,-176.53 1005,-176 885.08,-153.89 853.18,-160.67 733,-140 727.08,-138.98 720.89,-137.81 714.77,-136.59"/>
<polygon fill="#63b8ff" stroke="#63b8ff" points="715.1,-133.08 704.6,-134.5 713.69,-139.94 715.1,-133.08"/>
</g>
<!-- Node27&#45;&gt;Node5 -->
<g id="edge47" class="edge">
<title>Node27&#45;&gt;Node5</title>
<path fill="none" stroke="#63b8ff" d="M1050.68,-175.8C1041.42,-165.92 1029.05,-152.72 1019.37,-142.39"/>
<polygon fill="#63b8ff" stroke="#63b8ff" points="1021.68,-139.75 1012.29,-134.84 1016.58,-144.53 1021.68,-139.75"/>
</g>
<!-- Node27&#45;&gt;Node6 -->
<g id="edge49" class="edge">
<title>Node27&#45;&gt;Node6</title>
<path fill="none" stroke="#63b8ff" d="M1013.72,-178.04C964.03,-166.22 888.68,-148.29 840.66,-136.86"/>
<polygon fill="#63b8ff" stroke="#63b8ff" points="841.39,-133.44 830.85,-134.53 839.77,-140.25 841.39,-133.44"/>
</g>
<!-- Node27&#45;&gt;Node13 -->
<g id="edge50" class="edge">
<title>Node27&#45;&gt;Node13</title>
<path fill="none" stroke="#63b8ff" d="M1068.66,-175.8C1071.68,-166.6 1075.64,-154.53 1078.9,-144.58"/>
<polygon fill="#63b8ff" stroke="#63b8ff" points="1082.31,-145.44 1082.1,-134.84 1075.65,-143.25 1082.31,-145.44"/>
</g>
<!-- Node27&#45;&gt;Node21 -->
<g id="edge48" class="edge">
<title>Node27&#45;&gt;Node21</title>
<path fill="none" stroke="#63b8ff" d="M1030.42,-175.95C1003.59,-164.73 966.34,-149.15 940.61,-138.39"/>
<polygon fill="#63b8ff" stroke="#63b8ff" points="941.94,-135.15 931.36,-134.52 939.24,-141.61 941.94,-135.15"/>
</g>
<!-- Node28&#45;&gt;Node3 -->
<g id="edge53" class="edge">
<title>Node28&#45;&gt;Node3</title>
<path fill="none" stroke="#63b8ff" d="M716.8,-175.8C706.82,-165.82 693.46,-152.46 683.09,-142.09"/>
<polygon fill="#63b8ff" stroke="#63b8ff" points="685.39,-139.44 675.84,-134.84 680.44,-144.39 685.39,-139.44"/>
</g>
<!-- Node28&#45;&gt;Node5 -->
<g id="edge54" class="edge">
<title>Node28&#45;&gt;Node5</title>
<path fill="none" stroke="#63b8ff" d="M808.04,-176.24C853.99,-167.36 913.26,-154.74 965,-140 967.42,-139.31 969.91,-138.55 972.4,-137.74"/>
<polygon fill="#63b8ff" stroke="#63b8ff" points="973.55,-141.05 981.89,-134.52 971.3,-134.42 973.55,-141.05"/>
</g>
<!-- Node28&#45;&gt;Node6 -->
<g id="edge56" class="edge">
<title>Node28&#45;&gt;Node6</title>
<path fill="none" stroke="#63b8ff" d="M745.2,-175.8C755.18,-165.82 768.54,-152.46 778.91,-142.09"/>
<polygon fill="#63b8ff" stroke="#63b8ff" points="781.56,-144.39 786.16,-134.84 776.61,-139.44 781.56,-144.39"/>
</g>
<!-- Node28&#45;&gt;Node21 -->
<g id="edge55" class="edge">
<title>Node28&#45;&gt;Node21</title>
<path fill="none" stroke="#63b8ff" d="M770.5,-175.95C802.49,-164.58 847.05,-148.74 877.35,-137.96"/>
<polygon fill="#63b8ff" stroke="#63b8ff" points="878.8,-141.17 887.05,-134.52 876.45,-134.57 878.8,-141.17"/>
</g>
<!-- Node29 -->
<g id="node29" class="node">
<title>Node29</title>
<g id="a_node29"><a xlink:href="_device_config_8h.html" target="_top" xlink:title="Node configuration options.">
<polygon fill="white" stroke="#666666" points="538,-134.5 448,-134.5 448,-115.5 538,-115.5 538,-134.5"/>
<text text-anchor="middle" x="493" y="-122.5" font-family="Helvetica,sans-Serif" font-size="10.00">DeviceConfig.h</text>
</a>
</g>
</g>
<!-- Node28&#45;&gt;Node29 -->
<g id="edge57" class="edge">
<title>Node28&#45;&gt;Node29</title>
<path fill="none" stroke="#63b8ff" d="M678.77,-175.95C635.38,-164.29 574.47,-147.91 534.39,-137.13"/>
<polygon fill="#63b8ff" stroke="#63b8ff" points="535.24,-133.73 524.67,-134.52 533.42,-140.49 535.24,-133.73"/>
</g>
<!-- Node29&#45;&gt;Node9 -->
<g id="edge58" class="edge">
<title>Node29&#45;&gt;Node9</title>
<path fill="none" stroke="#63b8ff" d="M538.03,-117.85C557.66,-115.26 580.95,-112.32 602,-110 775.02,-90.91 824.36,-120.88 992,-74 1010.57,-68.81 1012.44,-60.21 1031,-55 1111.73,-32.35 1362.55,-17.61 1462.39,-12.5"/>
<polygon fill="#63b8ff" stroke="#63b8ff" points="1462.6,-15.99 1472.41,-11.99 1462.24,-9 1462.6,-15.99"/>
</g>
<!-- Node29&#45;&gt;Node26 -->
<g id="edge59" class="edge">
<title>Node29&#45;&gt;Node26</title>
<path fill="none" stroke="#63b8ff" d="M538.03,-117.78C557.65,-115.18 580.94,-112.25 602,-110 789.61,-89.98 837.63,-96.17 1025,-74 1026.46,-73.83 1027.95,-73.64 1029.45,-73.46"/>
<polygon fill="#63b8ff" stroke="#63b8ff" points="1030,-76.91 1039.45,-72.12 1029.08,-69.97 1030,-76.91"/>
</g>
<!-- Node30&#45;&gt;Node29 -->
<g id="edge61" class="edge">
<title>Node30&#45;&gt;Node29</title>
<path fill="none" stroke="#63b8ff" d="M242.21,-177.28C300.62,-165.34 386.96,-147.68 441.57,-136.52"/>
<polygon fill="#63b8ff" stroke="#63b8ff" points="442.29,-139.94 451.39,-134.51 440.89,-133.08 442.29,-139.94"/>
</g>
<!-- Node31&#45;&gt;Node29 -->
<g id="edge63" class="edge">
<title>Node31&#45;&gt;Node29</title>
<path fill="none" stroke="#63b8ff" d="M355.62,-175.95C386.9,-164.58 430.47,-148.74 460.1,-137.96"/>
<polygon fill="#63b8ff" stroke="#63b8ff" points="461.38,-141.22 469.58,-134.52 458.98,-134.65 461.38,-141.22"/>
</g>
<!-- Node32&#45;&gt;Node29 -->
<g id="edge65" class="edge">
<title>Node32&#45;&gt;Node29</title>
<path fill="none" stroke="#63b8ff" d="M464.99,-175.8C470.33,-166.31 477.39,-153.76 483.08,-143.63"/>
<polygon fill="#63b8ff" stroke="#63b8ff" points="486.17,-145.28 488.03,-134.84 480.07,-141.84 486.17,-145.28"/>
</g>
</g>
</svg>
