<?xml version="1.0" encoding="UTF-8" standalone="no"?>
<!DOCTYPE svg PUBLIC "-//W3C//DTD SVG 1.1//EN"
 "http://www.w3.org/Graphics/SVG/1.1/DTD/svg11.dtd">
<!-- Generated by graphviz version 2.43.0 (0)
 -->
<!-- Title: firmware/wombat/include/cli/peripherals/sd_card.h Pages: 1 -->
<svg width="996pt" height="313pt"
 viewBox="0.00 0.00 995.50 313.00" xmlns="http://www.w3.org/2000/svg" xmlns:xlink="http://www.w3.org/1999/xlink">
<g id="graph0" class="graph" transform="scale(1 1) rotate(0) translate(4 309)">
<title>firmware/wombat/include/cli/peripherals/sd_card.h</title>
<!-- Node1 -->
<g id="node1" class="node">
<title>Node1</title>
<g id="a_node1"><a xlink:title=" ">
<polygon fill="#999999" stroke="#666666" points="697,-305 556,-305 556,-275 697,-275 697,-305"/>
<text text-anchor="start" x="564" y="-293" font-family="Helvetica,sans-Serif" font-size="10.00">firmware/wombat/include</text>
<text text-anchor="middle" x="626.5" y="-282" font-family="Helvetica,sans-Serif" font-size="10.00">/cli/peripherals/sd_card.h</text>
</a>
</g>
</g>
<!-- Node2 -->
<g id="node2" class="node">
<title>Node2</title>
<g id="a_node2"><a xlink:href="_c_l_i_8h.html" target="_top" xlink:title="FreeRTOS CLI handler.">
<polygon fill="white" stroke="#666666" points="648,-239 507,-239 507,-209 648,-209 648,-239"/>
<text text-anchor="start" x="515" y="-227" font-family="Helvetica,sans-Serif" font-size="10.00">firmware/wombat/include</text>
<text text-anchor="middle" x="577.5" y="-216" font-family="Helvetica,sans-Serif" font-size="10.00">/cli/CLI.h</text>
</a>
</g>
</g>
<!-- Node1&#45;&gt;Node2 -->
<g id="edge1" class="edge">
<title>Node1&#45;&gt;Node2</title>
<path fill="none" stroke="#63b8ff" d="M609.51,-266.81C602.49,-257.64 594.56,-247.28 588.34,-239.16"/>
<polygon fill="#63b8ff" stroke="#63b8ff" points="606.77,-268.98 615.63,-274.8 612.33,-264.73 606.77,-268.98"/>
</g>
<!-- Node9 -->
<g id="node9" class="node">
<title>Node9</title>
<g id="a_node9"><a xlink:href="sd__card_8cpp.html" target="_top" xlink:title=" ">
<polygon fill="white" stroke="#666666" points="987.5,-173 867.5,-173 867.5,-132 987.5,-132 987.5,-173"/>
<text text-anchor="start" x="875.5" y="-161" font-family="Helvetica,sans-Serif" font-size="10.00">firmware/wombat/src</text>
<text text-anchor="start" x="875.5" y="-150" font-family="Helvetica,sans-Serif" font-size="10.00">/cli/peripherals/sd</text>
<text text-anchor="middle" x="927.5" y="-139" font-family="Helvetica,sans-Serif" font-size="10.00">_card.cpp</text>
</a>
</g>
</g>
<!-- Node1&#45;&gt;Node9 -->
<g id="edge13" class="edge">
<title>Node1&#45;&gt;Node9</title>
<path fill="none" stroke="#63b8ff" d="M667.22,-270.67C723.89,-245.16 826.09,-199.15 884.14,-173.02"/>
<polygon fill="#63b8ff" stroke="#63b8ff" points="665.54,-267.59 657.86,-274.88 668.42,-273.97 665.54,-267.59"/>
</g>
<!-- Node3 -->
<g id="node3" class="node">
<title>Node3</title>
<g id="a_node3"><a xlink:href="server_8h.html" target="_top" xlink:title="Handle the setup and maintenance of the BLE server and connected clients.">
<polygon fill="white" stroke="#666666" points="141,-167.5 0,-167.5 0,-137.5 141,-137.5 141,-167.5"/>
<text text-anchor="start" x="8" y="-155.5" font-family="Helvetica,sans-Serif" font-size="10.00">firmware/wombat/include</text>
<text text-anchor="middle" x="70.5" y="-144.5" font-family="Helvetica,sans-Serif" font-size="10.00">/bluetooth/server.h</text>
</a>
</g>
</g>
<!-- Node2&#45;&gt;Node3 -->
<g id="edge2" class="edge">
<title>Node2&#45;&gt;Node3</title>
<path fill="none" stroke="#63b8ff" d="M496.86,-216.53C410.69,-208.91 270.27,-194.53 150.5,-173 141.92,-171.46 132.88,-169.54 124.1,-167.52"/>
<polygon fill="#63b8ff" stroke="#63b8ff" points="496.57,-220.01 506.84,-217.4 497.18,-213.04 496.57,-220.01"/>
</g>
<!-- Node7 -->
<g id="node7" class="node">
<title>Node7</title>
<g id="a_node7"><a xlink:href="_c_l_i_8cpp.html" target="_top" xlink:title="FreeRTOS CLI handler.">
<polygon fill="white" stroke="#666666" points="279.5,-167.5 159.5,-167.5 159.5,-137.5 279.5,-137.5 279.5,-167.5"/>
<text text-anchor="start" x="167.5" y="-155.5" font-family="Helvetica,sans-Serif" font-size="10.00">firmware/wombat/src</text>
<text text-anchor="middle" x="219.5" y="-144.5" font-family="Helvetica,sans-Serif" font-size="10.00">/cli/CLI.cpp</text>
</a>
</g>
</g>
<!-- Node2&#45;&gt;Node7 -->
<g id="edge7" class="edge">
<title>Node2&#45;&gt;Node7</title>
<path fill="none" stroke="#63b8ff" d="M496.48,-211.29C438.3,-202.33 358.18,-188.83 288.5,-173 281.46,-171.4 274.07,-169.53 266.84,-167.58"/>
<polygon fill="#63b8ff" stroke="#63b8ff" points="496.31,-214.81 506.72,-212.86 497.36,-207.89 496.31,-214.81"/>
</g>
<!-- Node8 -->
<g id="node8" class="node">
<title>Node8</title>
<g id="a_node8"><a xlink:href="cat-m1_8cpp.html" target="_top" xlink:title="CAT&#45;M1 CLI command request and response handler.">
<polygon fill="white" stroke="#666666" points="417.5,-173 297.5,-173 297.5,-132 417.5,-132 417.5,-173"/>
<text text-anchor="start" x="305.5" y="-161" font-family="Helvetica,sans-Serif" font-size="10.00">firmware/wombat/src</text>
<text text-anchor="start" x="305.5" y="-150" font-family="Helvetica,sans-Serif" font-size="10.00">/cli/peripherals/cat</text>
<text text-anchor="middle" x="357.5" y="-139" font-family="Helvetica,sans-Serif" font-size="10.00">&#45;m1.cpp</text>
</a>
</g>
</g>
<!-- Node2&#45;&gt;Node8 -->
<g id="edge8" class="edge">
<title>Node2&#45;&gt;Node8</title>
<path fill="none" stroke="#63b8ff" d="M523.35,-205.89C491.36,-195.79 450.8,-182.97 417.8,-172.55"/>
<polygon fill="#63b8ff" stroke="#63b8ff" points="522.39,-209.26 532.98,-208.94 524.5,-202.59 522.39,-209.26"/>
</g>
<!-- Node2&#45;&gt;Node9 -->
<g id="edge9" class="edge">
<title>Node2&#45;&gt;Node9</title>
<path fill="none" stroke="#63b8ff" d="M657.98,-210.86C714.4,-201.82 791.42,-188.41 858.5,-173 861.41,-172.33 864.38,-171.62 867.38,-170.87"/>
<polygon fill="#63b8ff" stroke="#63b8ff" points="657.37,-207.41 648.05,-212.44 658.47,-214.32 657.37,-207.41"/>
</g>
<!-- Node10 -->
<g id="node10" class="node">
<title>Node10</title>
<g id="a_node10"><a xlink:href="sdi12_8cpp.html" target="_top" xlink:title="SDI&#45;12 command line interface handler.">
<polygon fill="white" stroke="#666666" points="573.5,-167.5 435.5,-167.5 435.5,-137.5 573.5,-137.5 573.5,-167.5"/>
<text text-anchor="start" x="443.5" y="-155.5" font-family="Helvetica,sans-Serif" font-size="10.00">firmware/wombat/src</text>
<text text-anchor="middle" x="504.5" y="-144.5" font-family="Helvetica,sans-Serif" font-size="10.00">/cli/peripherals/sdi12.cpp</text>
</a>
</g>
</g>
<!-- Node2&#45;&gt;Node10 -->
<g id="edge10" class="edge">
<title>Node2&#45;&gt;Node10</title>
<path fill="none" stroke="#63b8ff" d="M555.43,-201.99C543.72,-190.84 529.63,-177.43 519.25,-167.54"/>
<polygon fill="#63b8ff" stroke="#63b8ff" points="553.07,-204.58 562.73,-208.94 557.9,-199.51 553.07,-204.58"/>
</g>
<!-- Node11 -->
<g id="node11" class="node">
<title>Node11</title>
<g id="a_node11"><a xlink:href="main_8cpp.html" target="_top" xlink:title=" ">
<polygon fill="white" stroke="#666666" points="711.5,-167.5 591.5,-167.5 591.5,-137.5 711.5,-137.5 711.5,-167.5"/>
<text text-anchor="start" x="599.5" y="-155.5" font-family="Helvetica,sans-Serif" font-size="10.00">firmware/wombat/src</text>
<text text-anchor="middle" x="651.5" y="-144.5" font-family="Helvetica,sans-Serif" font-size="10.00">/main.cpp</text>
</a>
</g>
</g>
<!-- Node2&#45;&gt;Node11 -->
<g id="edge11" class="edge">
<title>Node2&#45;&gt;Node11</title>
<path fill="none" stroke="#63b8ff" d="M599.87,-201.99C611.75,-190.84 626.02,-177.43 636.55,-167.54"/>
<polygon fill="#63b8ff" stroke="#63b8ff" points="597.37,-199.54 592.48,-208.94 602.16,-204.64 597.37,-199.54"/>
</g>
<!-- Node12 -->
<g id="node12" class="node">
<title>Node12</title>
<g id="a_node12"><a xlink:href="mqtt__stack_8cpp.html" target="_top" xlink:title=" ">
<polygon fill="white" stroke="#666666" points="849.5,-167.5 729.5,-167.5 729.5,-137.5 849.5,-137.5 849.5,-167.5"/>
<text text-anchor="start" x="737.5" y="-155.5" font-family="Helvetica,sans-Serif" font-size="10.00">firmware/wombat/src</text>
<text text-anchor="middle" x="789.5" y="-144.5" font-family="Helvetica,sans-Serif" font-size="10.00">/mqtt_stack.cpp</text>
</a>
</g>
</g>
<!-- Node2&#45;&gt;Node12 -->
<g id="edge12" class="edge">
<title>Node2&#45;&gt;Node12</title>
<path fill="none" stroke="#63b8ff" d="M630.22,-205.72C666.13,-193.95 713.06,-178.56 746.66,-167.54"/>
<polygon fill="#63b8ff" stroke="#63b8ff" points="628.81,-202.49 620.4,-208.94 630.99,-209.15 628.81,-202.49"/>
</g>
<!-- Node4 -->
<g id="node4" class="node">
<title>Node4</title>
<g id="a_node4"><a xlink:href="uart_8h.html" target="_top" xlink:title="BluetoothLE UART service setup and handling.">
<polygon fill="white" stroke="#666666" points="141,-96 0,-96 0,-66 141,-66 141,-96"/>
<text text-anchor="start" x="8" y="-84" font-family="Helvetica,sans-Serif" font-size="10.00">firmware/wombat/include</text>
<text text-anchor="middle" x="70.5" y="-73" font-family="Helvetica,sans-Serif" font-size="10.00">/bluetooth/uart.h</text>
</a>
</g>
</g>
<!-- Node3&#45;&gt;Node4 -->
<g id="edge3" class="edge">
<title>Node3&#45;&gt;Node4</title>
<path fill="none" stroke="#63b8ff" d="M64.03,-127.25C63.46,-116.81 63.76,-104.99 64.95,-96.04"/>
<polygon fill="#63b8ff" stroke="#63b8ff" points="60.57,-127.79 64.95,-137.44 67.54,-127.16 60.57,-127.79"/>
</g>
<!-- Node6 -->
<g id="node6" class="node">
<title>Node6</title>
<g id="a_node6"><a xlink:href="server_8cpp.html" target="_top" xlink:title="Setup and start BluetoothLE server.">
<polygon fill="white" stroke="#666666" points="279.5,-96 159.5,-96 159.5,-66 279.5,-66 279.5,-96"/>
<text text-anchor="start" x="167.5" y="-84" font-family="Helvetica,sans-Serif" font-size="10.00">firmware/wombat/src</text>
<text text-anchor="middle" x="219.5" y="-73" font-family="Helvetica,sans-Serif" font-size="10.00">/bluetooth/server.cpp</text>
</a>
</g>
</g>
<!-- Node3&#45;&gt;Node6 -->
<g id="edge6" class="edge">
<title>Node3&#45;&gt;Node6</title>
<path fill="none" stroke="#63b8ff" d="M109.84,-133.15C134.75,-121.53 166.48,-106.73 189.39,-96.04"/>
<polygon fill="#63b8ff" stroke="#63b8ff" points="108.24,-130.04 100.65,-137.44 111.19,-136.38 108.24,-130.04"/>
</g>
<!-- Node4&#45;&gt;Node3 -->
<g id="edge4" class="edge">
<title>Node4&#45;&gt;Node3</title>
<path fill="none" stroke="#63b8ff" d="M76.97,-106.23C77.54,-116.66 77.24,-128.49 76.05,-137.44"/>
<polygon fill="#63b8ff" stroke="#63b8ff" points="80.43,-105.69 76.05,-96.04 73.46,-106.32 80.43,-105.69"/>
</g>
<!-- Node5 -->
<g id="node5" class="node">
<title>Node5</title>
<g id="a_node5"><a xlink:href="uart_8cpp.html" target="_top" xlink:title="BluetoothLE UART service setup and handling.">
<polygon fill="white" stroke="#666666" points="130.5,-30 10.5,-30 10.5,0 130.5,0 130.5,-30"/>
<text text-anchor="start" x="18.5" y="-18" font-family="Helvetica,sans-Serif" font-size="10.00">firmware/wombat/src</text>
<text text-anchor="middle" x="70.5" y="-7" font-family="Helvetica,sans-Serif" font-size="10.00">/bluetooth/uart.cpp</text>
</a>
</g>
</g>
<!-- Node4&#45;&gt;Node5 -->
<g id="edge5" class="edge">
<title>Node4&#45;&gt;Node5</title>
<path fill="none" stroke="#63b8ff" d="M70.5,-55.54C70.5,-46.96 70.5,-37.61 70.5,-30.16"/>
<polygon fill="#63b8ff" stroke="#63b8ff" points="67,-55.8 70.5,-65.8 74,-55.8 67,-55.8"/>
</g>
</g>
</svg>
