<?xml version="1.0" encoding="UTF-8" standalone="no"?>
<!DOCTYPE svg PUBLIC "-//W3C//DTD SVG 1.1//EN"
 "http://www.w3.org/Graphics/SVG/1.1/DTD/svg11.dtd">
<!-- Generated by graphviz version 2.43.0 (0)
 -->
<!-- Title: firmware/wombat/include/cli/peripherals/sd_card.h Pages: 1 -->
<svg width="996pt" height="313pt"
 viewBox="0.00 0.00 995.50 313.00" xmlns="http://www.w3.org/2000/svg" xmlns:xlink="http://www.w3.org/1999/xlink">
<g id="graph0" class="graph" transform="scale(1 1) rotate(0) translate(4 309)">
<title>firmware/wombat/include/cli/peripherals/sd_card.h</title>
<!-- Node1 -->
<g id="node1" class="node">
<title>Node1</title>
<g id="a_node1"><a xlink:title=" ">
<polygon fill="#999999" stroke="#666666" points="624,-305 483,-305 483,-275 624,-275 624,-305"/>
<text text-anchor="start" x="491" y="-293" font-family="Helvetica,sans-Serif" font-size="10.00">firmware/wombat/include</text>
<text text-anchor="middle" x="553.5" y="-282" font-family="Helvetica,sans-Serif" font-size="10.00">/cli/peripherals/sd_card.h</text>
</a>
</g>
</g>
<!-- Node2 -->
<g id="node2" class="node">
<title>Node2</title>
<g id="a_node2"><a xlink:href="_c_l_i_8h.html" target="_top" xlink:title="FreeRTOS CLI handler.">
<polygon fill="white" stroke="#666666" points="575,-239 434,-239 434,-209 575,-209 575,-239"/>
<text text-anchor="start" x="442" y="-227" font-family="Helvetica,sans-Serif" font-size="10.00">firmware/wombat/include</text>
<text text-anchor="middle" x="504.5" y="-216" font-family="Helvetica,sans-Serif" font-size="10.00">/cli/CLI.h</text>
</a>
</g>
</g>
<!-- Node1&#45;&gt;Node2 -->
<g id="edge1" class="edge">
<title>Node1&#45;&gt;Node2</title>
<path fill="none" stroke="#63b8ff" d="M536.51,-266.81C529.49,-257.64 521.56,-247.28 515.34,-239.16"/>
<polygon fill="#63b8ff" stroke="#63b8ff" points="533.77,-268.98 542.63,-274.8 539.33,-264.73 533.77,-268.98"/>
</g>
<!-- Node9 -->
<g id="node9" class="node">
<title>Node9</title>
<g id="a_node9"><a xlink:href="sd__card_8cpp.html" target="_top" xlink:title=" ">
<polygon fill="white" stroke="#666666" points="987.5,-173 867.5,-173 867.5,-132 987.5,-132 987.5,-173"/>
<text text-anchor="start" x="875.5" y="-161" font-family="Helvetica,sans-Serif" font-size="10.00">firmware/wombat/src</text>
<text text-anchor="start" x="875.5" y="-150" font-family="Helvetica,sans-Serif" font-size="10.00">/cli/peripherals/sd</text>
<text text-anchor="middle" x="927.5" y="-139" font-family="Helvetica,sans-Serif" font-size="10.00">_card.cpp</text>
</a>
</g>
</g>
<!-- Node1&#45;&gt;Node9 -->
<g id="edge14" class="edge">
<title>Node1&#45;&gt;Node9</title>
<path fill="none" stroke="#63b8ff" d="M601.93,-271.45C671.88,-246.11 800.75,-199.42 873.62,-173.02"/>
<polygon fill="#63b8ff" stroke="#63b8ff" points="600.68,-268.19 592.47,-274.88 603.06,-274.77 600.68,-268.19"/>
</g>
<!-- Node3 -->
<g id="node3" class="node">
<title>Node3</title>
<g id="a_node3"><a xlink:href="server_8h.html" target="_top" xlink:title="Handle the setup and maintenance of the BLE server and connected clients.">
<polygon fill="white" stroke="#666666" points="141,-167.5 0,-167.5 0,-137.5 141,-137.5 141,-167.5"/>
<text text-anchor="start" x="8" y="-155.5" font-family="Helvetica,sans-Serif" font-size="10.00">firmware/wombat/include</text>
<text text-anchor="middle" x="70.5" y="-144.5" font-family="Helvetica,sans-Serif" font-size="10.00">/bluetooth/server.h</text>
</a>
</g>
</g>
<!-- Node2&#45;&gt;Node3 -->
<g id="edge2" class="edge">
<title>Node2&#45;&gt;Node3</title>
<path fill="none" stroke="#63b8ff" d="M423.8,-214.73C349.84,-206.17 237.7,-191.47 141.5,-173 133.22,-171.41 124.5,-169.52 116.11,-167.54"/>
<polygon fill="#63b8ff" stroke="#63b8ff" points="423.64,-218.23 433.98,-215.9 424.44,-211.28 423.64,-218.23"/>
</g>
<!-- Node7 -->
<g id="node7" class="node">
<title>Node7</title>
<g id="a_node7"><a xlink:href="_c_l_i_8cpp.html" target="_top" xlink:title="FreeRTOS CLI handler.">
<polygon fill="white" stroke="#666666" points="279.5,-167.5 159.5,-167.5 159.5,-137.5 279.5,-137.5 279.5,-167.5"/>
<text text-anchor="start" x="167.5" y="-155.5" font-family="Helvetica,sans-Serif" font-size="10.00">firmware/wombat/src</text>
<text text-anchor="middle" x="219.5" y="-144.5" font-family="Helvetica,sans-Serif" font-size="10.00">/cli/CLI.cpp</text>
</a>
</g>
</g>
<!-- Node2&#45;&gt;Node7 -->
<g id="edge8" class="edge">
<title>Node2&#45;&gt;Node7</title>
<path fill="none" stroke="#63b8ff" d="M430.22,-206.73C388.45,-197.35 335.44,-185.06 288.5,-173 281.87,-171.3 274.9,-169.42 268.05,-167.54"/>
<polygon fill="#63b8ff" stroke="#63b8ff" points="429.51,-210.16 440.03,-208.93 431.04,-203.33 429.51,-210.16"/>
</g>
<!-- Node8 -->
<g id="node8" class="node">
<title>Node8</title>
<g id="a_node8"><a xlink:href="cat-m1_8cpp.html" target="_top" xlink:title="CAT&#45;M1 CLI command request and response handler.">
<polygon fill="white" stroke="#666666" points="417.5,-173 297.5,-173 297.5,-132 417.5,-132 417.5,-173"/>
<text text-anchor="start" x="305.5" y="-161" font-family="Helvetica,sans-Serif" font-size="10.00">firmware/wombat/src</text>
<text text-anchor="start" x="305.5" y="-150" font-family="Helvetica,sans-Serif" font-size="10.00">/cli/peripherals/cat</text>
<text text-anchor="middle" x="357.5" y="-139" font-family="Helvetica,sans-Serif" font-size="10.00">&#45;m1.cpp</text>
</a>
</g>
</g>
<!-- Node2&#45;&gt;Node8 -->
<g id="edge9" class="edge">
<title>Node2&#45;&gt;Node8</title>
<path fill="none" stroke="#63b8ff" d="M465.67,-204.64C445.1,-194.92 419.84,-182.97 398.9,-173.07"/>
<polygon fill="#63b8ff" stroke="#63b8ff" points="464.22,-207.83 474.75,-208.94 467.21,-201.5 464.22,-207.83"/>
</g>
<!-- Node2&#45;&gt;Node9 -->
<g id="edge10" class="edge">
<title>Node2&#45;&gt;Node9</title>
<path fill="none" stroke="#63b8ff" d="M585.55,-214.71C657.65,-206.58 765.74,-192.56 858.5,-173 861.42,-172.38 864.4,-171.71 867.41,-171"/>
<polygon fill="#63b8ff" stroke="#63b8ff" points="584.73,-211.28 575.18,-215.86 585.5,-218.23 584.73,-211.28"/>
</g>
<!-- Node10 -->
<g id="node10" class="node">
<title>Node10</title>
<g id="a_node10"><a xlink:href="sdi12_8cpp.html" target="_top" xlink:title="SDI&#45;12 command line interface handler.">
<polygon fill="white" stroke="#666666" points="573.5,-167.5 435.5,-167.5 435.5,-137.5 573.5,-137.5 573.5,-167.5"/>
<text text-anchor="start" x="443.5" y="-155.5" font-family="Helvetica,sans-Serif" font-size="10.00">firmware/wombat/src</text>
<text text-anchor="middle" x="504.5" y="-144.5" font-family="Helvetica,sans-Serif" font-size="10.00">/cli/peripherals/sdi12.cpp</text>
</a>
</g>
</g>
<!-- Node2&#45;&gt;Node10 -->
<g id="edge11" class="edge">
<title>Node2&#45;&gt;Node10</title>
<path fill="none" stroke="#63b8ff" d="M504.5,-198.75C504.5,-188.31 504.5,-176.49 504.5,-167.54"/>
<polygon fill="#63b8ff" stroke="#63b8ff" points="501,-198.94 504.5,-208.94 508,-198.94 501,-198.94"/>
</g>
<!-- Node11 -->
<g id="node11" class="node">
<title>Node11</title>
<g id="a_node11"><a xlink:href="main_8cpp.html" target="_top" xlink:title=" ">
<polygon fill="white" stroke="#666666" points="711.5,-167.5 591.5,-167.5 591.5,-137.5 711.5,-137.5 711.5,-167.5"/>
<text text-anchor="start" x="599.5" y="-155.5" font-family="Helvetica,sans-Serif" font-size="10.00">firmware/wombat/src</text>
<text text-anchor="middle" x="651.5" y="-144.5" font-family="Helvetica,sans-Serif" font-size="10.00">/main.cpp</text>
</a>
</g>
</g>
<!-- Node2&#45;&gt;Node11 -->
<g id="edge12" class="edge">
<title>Node2&#45;&gt;Node11</title>
<path fill="none" stroke="#63b8ff" d="M543.31,-204.65C567.89,-193.03 599.19,-178.23 621.8,-167.54"/>
<polygon fill="#63b8ff" stroke="#63b8ff" points="541.79,-201.5 534.25,-208.94 544.78,-207.83 541.79,-201.5"/>
</g>
<!-- Node12 -->
<g id="node12" class="node">
<title>Node12</title>
<g id="a_node12"><a xlink:href="mqtt__stack_8cpp.html" target="_top" xlink:title=" ">
<polygon fill="white" stroke="#666666" points="849.5,-167.5 729.5,-167.5 729.5,-137.5 849.5,-137.5 849.5,-167.5"/>
<text text-anchor="start" x="737.5" y="-155.5" font-family="Helvetica,sans-Serif" font-size="10.00">firmware/wombat/src</text>
<text text-anchor="middle" x="789.5" y="-144.5" font-family="Helvetica,sans-Serif" font-size="10.00">/mqtt_stack.cpp</text>
</a>
</g>
</g>
<!-- Node2&#45;&gt;Node12 -->
<g id="edge13" class="edge">
<title>Node2&#45;&gt;Node12</title>
<path fill="none" stroke="#63b8ff" d="M578.78,-206.73C620.55,-197.35 673.56,-185.06 720.5,-173 727.13,-171.3 734.1,-169.42 740.95,-167.54"/>
<polygon fill="#63b8ff" stroke="#63b8ff" points="577.96,-203.33 568.97,-208.93 579.49,-210.16 577.96,-203.33"/>
</g>
<!-- Node3&#45;&gt;Node2 -->
<g id="edge6" class="edge">
<title>Node3&#45;&gt;Node2</title>
<path fill="none" stroke="#63b8ff" d="M144,-169.81C149.24,-170.95 154.45,-172.03 159.5,-173 253.98,-191.14 363.82,-205.64 433.79,-214.26"/>
<polygon fill="#63b8ff" stroke="#63b8ff" points="144.41,-166.31 133.89,-167.54 142.88,-173.14 144.41,-166.31"/>
</g>
<!-- Node4 -->
<g id="node4" class="node">
<title>Node4</title>
<g id="a_node4"><a xlink:href="uart_8h.html" target="_top" xlink:title="BluetoothLE UART service setup and handling.">
<polygon fill="white" stroke="#666666" points="141,-96 0,-96 0,-66 141,-66 141,-96"/>
<text text-anchor="start" x="8" y="-84" font-family="Helvetica,sans-Serif" font-size="10.00">firmware/wombat/include</text>
<text text-anchor="middle" x="70.5" y="-73" font-family="Helvetica,sans-Serif" font-size="10.00">/bluetooth/uart.h</text>
</a>
</g>
</g>
<!-- Node3&#45;&gt;Node4 -->
<g id="edge3" class="edge">
<title>Node3&#45;&gt;Node4</title>
<path fill="none" stroke="#63b8ff" d="M64.03,-127.25C63.46,-116.81 63.76,-104.99 64.95,-96.04"/>
<polygon fill="#63b8ff" stroke="#63b8ff" points="60.57,-127.79 64.95,-137.44 67.54,-127.16 60.57,-127.79"/>
</g>
<!-- Node6 -->
<g id="node6" class="node">
<title>Node6</title>
<g id="a_node6"><a xlink:href="server_8cpp.html" target="_top" xlink:title="Setup and start BluetoothLE server.">
<polygon fill="white" stroke="#666666" points="279.5,-96 159.5,-96 159.5,-66 279.5,-66 279.5,-96"/>
<text text-anchor="start" x="167.5" y="-84" font-family="Helvetica,sans-Serif" font-size="10.00">firmware/wombat/src</text>
<text text-anchor="middle" x="219.5" y="-73" font-family="Helvetica,sans-Serif" font-size="10.00">/bluetooth/server.cpp</text>
</a>
</g>
</g>
<!-- Node3&#45;&gt;Node6 -->
<g id="edge7" class="edge">
<title>Node3&#45;&gt;Node6</title>
<path fill="none" stroke="#63b8ff" d="M109.84,-133.15C134.75,-121.53 166.48,-106.73 189.39,-96.04"/>
<polygon fill="#63b8ff" stroke="#63b8ff" points="108.24,-130.04 100.65,-137.44 111.19,-136.38 108.24,-130.04"/>
</g>
<!-- Node4&#45;&gt;Node3 -->
<g id="edge4" class="edge">
<title>Node4&#45;&gt;Node3</title>
<path fill="none" stroke="#63b8ff" d="M76.97,-106.23C77.54,-116.66 77.24,-128.49 76.05,-137.44"/>
<polygon fill="#63b8ff" stroke="#63b8ff" points="80.43,-105.69 76.05,-96.04 73.46,-106.32 80.43,-105.69"/>
</g>
<!-- Node5 -->
<g id="node5" class="node">
<title>Node5</title>
<g id="a_node5"><a xlink:href="uart_8cpp.html" target="_top" xlink:title="BluetoothLE UART service setup and handling.">
<polygon fill="white" stroke="#666666" points="130.5,-30 10.5,-30 10.5,0 130.5,0 130.5,-30"/>
<text text-anchor="start" x="18.5" y="-18" font-family="Helvetica,sans-Serif" font-size="10.00">firmware/wombat/src</text>
<text text-anchor="middle" x="70.5" y="-7" font-family="Helvetica,sans-Serif" font-size="10.00">/bluetooth/uart.cpp</text>
</a>
</g>
</g>
<!-- Node4&#45;&gt;Node5 -->
<g id="edge5" class="edge">
<title>Node4&#45;&gt;Node5</title>
<path fill="none" stroke="#63b8ff" d="M70.5,-55.54C70.5,-46.96 70.5,-37.61 70.5,-30.16"/>
<polygon fill="#63b8ff" stroke="#63b8ff" points="67,-55.8 70.5,-65.8 74,-55.8 67,-55.8"/>
</g>
</g>
</svg>
