<?xml version="1.0" encoding="UTF-8" standalone="no"?>
<!DOCTYPE svg PUBLIC "-//W3C//DTD SVG 1.1//EN"
 "http://www.w3.org/Graphics/SVG/1.1/DTD/svg11.dtd">
<!-- Generated by graphviz version 2.43.0 (0)
 -->
<!-- Title: firmware/wombat/include/cli/peripherals/sdi12.h Pages: 1 -->
<svg width="621pt" height="148pt"
 viewBox="0.00 0.00 621.00 148.00" xmlns="http://www.w3.org/2000/svg" xmlns:xlink="http://www.w3.org/1999/xlink">
<g id="graph0" class="graph" transform="scale(1 1) rotate(0) translate(4 144)">
<title>firmware/wombat/include/cli/peripherals/sdi12.h</title>
<!-- Node1 -->
<g id="node1" class="node">
<title>Node1</title>
<g id="a_node1"><a xlink:title=" ">
<polygon fill="#999999" stroke="#666666" points="361,-140 220,-140 220,-110 361,-110 361,-140"/>
<text text-anchor="start" x="228" y="-128" font-family="Helvetica,sans-Serif" font-size="10.00">firmware/wombat/include</text>
<text text-anchor="middle" x="290.5" y="-117" font-family="Helvetica,sans-Serif" font-size="10.00">/cli/peripherals/sdi12.h</text>
</a>
</g>
</g>
<!-- Node1&#45;&gt;Node1 -->
<g id="edge4" class="edge">
<title>Node1&#45;&gt;Node1</title>
<path fill="none" stroke="#63b8ff" d="M361.33,-135.21C371.87,-133.62 379,-130.21 379,-125 379,-121.66 376.07,-119.06 371.2,-117.21"/>
<polygon fill="#63b8ff" stroke="#63b8ff" points="371.87,-113.77 361.33,-114.79 370.21,-120.57 371.87,-113.77"/>
</g>
<!-- Node2 -->
<g id="node2" class="node">
<title>Node2</title>
<g id="a_node2"><a xlink:title=" ">
<polygon fill="#e0e0e0" stroke="#999999" points="113,-74 0,-74 0,-55 113,-55 113,-74"/>
<text text-anchor="middle" x="56.5" y="-62" font-family="Helvetica,sans-Serif" font-size="10.00">freertos/FreeRTOS.h</text>
</a>
</g>
</g>
<!-- Node1&#45;&gt;Node2 -->
<g id="edge1" class="edge">
<title>Node1&#45;&gt;Node2</title>
<path fill="none" stroke="#63b8ff" d="M234.45,-109.99C193.37,-99.72 138.38,-85.97 100.45,-76.49"/>
<polygon fill="#63b8ff" stroke="#63b8ff" points="101.26,-73.08 90.71,-74.05 99.57,-79.87 101.26,-73.08"/>
</g>
<!-- Node3 -->
<g id="node3" class="node">
<title>Node3</title>
<g id="a_node3"><a xlink:title=" ">
<polygon fill="#e0e0e0" stroke="#999999" points="192,-74 131,-74 131,-55 192,-55 192,-74"/>
<text text-anchor="middle" x="161.5" y="-62" font-family="Helvetica,sans-Serif" font-size="10.00">Stream.h</text>
</a>
</g>
</g>
<!-- Node1&#45;&gt;Node3 -->
<g id="edge2" class="edge">
<title>Node1&#45;&gt;Node3</title>
<path fill="none" stroke="#63b8ff" d="M259.6,-109.99C238.37,-100.36 210.39,-87.67 189.75,-78.31"/>
<polygon fill="#63b8ff" stroke="#63b8ff" points="191.1,-75.08 180.55,-74.14 188.21,-81.46 191.1,-75.08"/>
</g>
<!-- Node4 -->
<g id="node4" class="node">
<title>Node4</title>
<g id="a_node4"><a xlink:title=" ">
<polygon fill="#e0e0e0" stroke="#999999" points="299,-74 210,-74 210,-55 299,-55 299,-74"/>
<text text-anchor="middle" x="254.5" y="-62" font-family="Helvetica,sans-Serif" font-size="10.00">StreamString.h</text>
</a>
</g>
</g>
<!-- Node1&#45;&gt;Node4 -->
<g id="edge3" class="edge">
<title>Node1&#45;&gt;Node4</title>
<path fill="none" stroke="#63b8ff" d="M281.79,-109.84C276.83,-101.78 270.57,-91.62 265.3,-83.06"/>
<polygon fill="#63b8ff" stroke="#63b8ff" points="268.12,-80.95 259.89,-74.27 262.15,-84.62 268.12,-80.95"/>
</g>
<!-- Node5 -->
<g id="node5" class="node">
<title>Node5</title>
<g id="a_node5"><a xlink:title=" ">
<polygon fill="#e0e0e0" stroke="#999999" points="416,-19 323,-19 323,0 416,0 416,-19"/>
<text text-anchor="middle" x="369.5" y="-7" font-family="Helvetica,sans-Serif" font-size="10.00">dpiclimate&#45;12.h</text>
</a>
</g>
</g>
<!-- Node1&#45;&gt;Node5 -->
<g id="edge5" class="edge">
<title>Node1&#45;&gt;Node5</title>
<path fill="none" stroke="#63b8ff" d="M300.51,-109.63C315.04,-88.75 341.94,-50.09 357.51,-27.72"/>
<polygon fill="#63b8ff" stroke="#63b8ff" points="360.58,-29.44 363.42,-19.23 354.84,-25.44 360.58,-29.44"/>
</g>
<!-- Node6 -->
<g id="node6" class="node">
<title>Node6</title>
<g id="a_node6"><a xlink:title=" ">
<polygon fill="#e0e0e0" stroke="#999999" points="463,-74 356,-74 356,-55 463,-55 463,-74"/>
<text text-anchor="middle" x="409.5" y="-62" font-family="Helvetica,sans-Serif" font-size="10.00">cli/FreeRTOS_CLI.h</text>
</a>
</g>
</g>
<!-- Node1&#45;&gt;Node6 -->
<g id="edge6" class="edge">
<title>Node1&#45;&gt;Node6</title>
<path fill="none" stroke="#63b8ff" d="M319,-109.99C338.41,-100.45 363.93,-87.9 382.92,-78.57"/>
<polygon fill="#63b8ff" stroke="#63b8ff" points="384.5,-81.69 391.93,-74.14 381.41,-75.41 384.5,-81.69"/>
</g>
<!-- Node7 -->
<g id="node7" class="node">
<title>Node7</title>
<g id="a_node7"><a xlink:href="_utils_8h.html" target="_top" xlink:title=" ">
<polygon fill="white" stroke="#666666" points="529.5,-74 481.5,-74 481.5,-55 529.5,-55 529.5,-74"/>
<text text-anchor="middle" x="505.5" y="-62" font-family="Helvetica,sans-Serif" font-size="10.00">Utils.h</text>
</a>
</g>
</g>
<!-- Node1&#45;&gt;Node7 -->
<g id="edge7" class="edge">
<title>Node1&#45;&gt;Node7</title>
<path fill="none" stroke="#63b8ff" d="M342,-109.99C382.14,-99.07 436.73,-84.21 471.55,-74.74"/>
<polygon fill="#63b8ff" stroke="#63b8ff" points="472.52,-78.1 481.25,-72.1 470.68,-71.35 472.52,-78.1"/>
</g>
<!-- Node7&#45;&gt;Node5 -->
<g id="edge10" class="edge">
<title>Node7&#45;&gt;Node5</title>
<path fill="none" stroke="#63b8ff" d="M483.65,-54.98C461.38,-46.3 426.6,-32.75 401.28,-22.88"/>
<polygon fill="#63b8ff" stroke="#63b8ff" points="402.34,-19.54 391.75,-19.17 399.79,-26.06 402.34,-19.54"/>
</g>
<!-- Node8 -->
<g id="node8" class="node">
<title>Node8</title>
<g id="a_node8"><a xlink:title=" ">
<polygon fill="#e0e0e0" stroke="#999999" points="511.5,-19 455.5,-19 455.5,0 511.5,0 511.5,-19"/>
<text text-anchor="middle" x="483.5" y="-7" font-family="Helvetica,sans-Serif" font-size="10.00">stddef.h</text>
</a>
</g>
</g>
<!-- Node7&#45;&gt;Node8 -->
<g id="edge8" class="edge">
<title>Node7&#45;&gt;Node8</title>
<path fill="none" stroke="#63b8ff" d="M501.87,-54.75C498.92,-47.65 494.67,-37.4 490.99,-28.56"/>
<polygon fill="#63b8ff" stroke="#63b8ff" points="494.13,-26.98 487.07,-19.09 487.67,-29.67 494.13,-26.98"/>
</g>
<!-- Node9 -->
<g id="node9" class="node">
<title>Node9</title>
<g id="a_node9"><a xlink:title=" ">
<polygon fill="#e0e0e0" stroke="#999999" points="613,-19 530,-19 530,0 613,0 613,-19"/>
<text text-anchor="middle" x="571.5" y="-7" font-family="Helvetica,sans-Serif" font-size="10.00">ArduinoJson.h</text>
</a>
</g>
</g>
<!-- Node7&#45;&gt;Node9 -->
<g id="edge9" class="edge">
<title>Node7&#45;&gt;Node9</title>
<path fill="none" stroke="#63b8ff" d="M516.1,-54.98C525.96,-47.07 540.85,-35.11 552.72,-25.58"/>
<polygon fill="#63b8ff" stroke="#63b8ff" points="555.1,-28.16 560.7,-19.17 550.71,-22.7 555.1,-28.16"/>
</g>
</g>
</svg>
