<?xml version="1.0" encoding="UTF-8" standalone="no"?>
<!DOCTYPE svg PUBLIC "-//W3C//DTD SVG 1.1//EN"
 "http://www.w3.org/Graphics/SVG/1.1/DTD/svg11.dtd">
<!-- Generated by graphviz version 2.43.0 (0)
 -->
<!-- Title: firmware/wombat/include/cli/peripherals/sdi12.h Pages: 1 -->
<svg width="701pt" height="324pt"
 viewBox="0.00 0.00 701.00 324.00" xmlns="http://www.w3.org/2000/svg" xmlns:xlink="http://www.w3.org/1999/xlink">
<g id="graph0" class="graph" transform="scale(1 1) rotate(0) translate(4 320)">
<title>firmware/wombat/include/cli/peripherals/sdi12.h</title>
<!-- Node1 -->
<g id="node1" class="node">
<title>Node1</title>
<g id="a_node1"><a xlink:title="SDI&#45;12 command line interface handler.">
<polygon fill="#999999" stroke="#666666" points="361,-316 220,-316 220,-286 361,-286 361,-316"/>
<text text-anchor="start" x="228" y="-304" font-family="Helvetica,sans-Serif" font-size="10.00">firmware/wombat/include</text>
<text text-anchor="middle" x="290.5" y="-293" font-family="Helvetica,sans-Serif" font-size="10.00">/cli/peripherals/sdi12.h</text>
</a>
</g>
</g>
<!-- Node1&#45;&gt;Node1 -->
<g id="edge4" class="edge">
<title>Node1&#45;&gt;Node1</title>
<path fill="none" stroke="#63b8ff" d="M361.33,-311.21C371.87,-309.62 379,-306.21 379,-301 379,-297.66 376.07,-295.06 371.2,-293.21"/>
<polygon fill="#63b8ff" stroke="#63b8ff" points="371.87,-289.77 361.33,-290.79 370.21,-296.57 371.87,-289.77"/>
</g>
<!-- Node2 -->
<g id="node2" class="node">
<title>Node2</title>
<g id="a_node2"><a xlink:title=" ">
<polygon fill="#e0e0e0" stroke="#999999" points="113,-250 0,-250 0,-231 113,-231 113,-250"/>
<text text-anchor="middle" x="56.5" y="-238" font-family="Helvetica,sans-Serif" font-size="10.00">freertos/FreeRTOS.h</text>
</a>
</g>
</g>
<!-- Node1&#45;&gt;Node2 -->
<g id="edge1" class="edge">
<title>Node1&#45;&gt;Node2</title>
<path fill="none" stroke="#63b8ff" d="M234.45,-285.99C193.37,-275.72 138.38,-261.97 100.45,-252.49"/>
<polygon fill="#63b8ff" stroke="#63b8ff" points="101.26,-249.08 90.71,-250.05 99.57,-255.87 101.26,-249.08"/>
</g>
<!-- Node3 -->
<g id="node3" class="node">
<title>Node3</title>
<g id="a_node3"><a xlink:title=" ">
<polygon fill="#e0e0e0" stroke="#999999" points="192,-250 131,-250 131,-231 192,-231 192,-250"/>
<text text-anchor="middle" x="161.5" y="-238" font-family="Helvetica,sans-Serif" font-size="10.00">Stream.h</text>
</a>
</g>
</g>
<!-- Node1&#45;&gt;Node3 -->
<g id="edge2" class="edge">
<title>Node1&#45;&gt;Node3</title>
<path fill="none" stroke="#63b8ff" d="M259.6,-285.99C238.37,-276.36 210.39,-263.67 189.75,-254.31"/>
<polygon fill="#63b8ff" stroke="#63b8ff" points="191.1,-251.08 180.55,-250.14 188.21,-257.46 191.1,-251.08"/>
</g>
<!-- Node4 -->
<g id="node4" class="node">
<title>Node4</title>
<g id="a_node4"><a xlink:title=" ">
<polygon fill="#e0e0e0" stroke="#999999" points="299,-250 210,-250 210,-231 299,-231 299,-250"/>
<text text-anchor="middle" x="254.5" y="-238" font-family="Helvetica,sans-Serif" font-size="10.00">StreamString.h</text>
</a>
</g>
</g>
<!-- Node1&#45;&gt;Node4 -->
<g id="edge3" class="edge">
<title>Node1&#45;&gt;Node4</title>
<path fill="none" stroke="#63b8ff" d="M281.79,-285.84C276.83,-277.78 270.57,-267.62 265.3,-259.06"/>
<polygon fill="#63b8ff" stroke="#63b8ff" points="268.12,-256.95 259.89,-250.27 262.15,-260.62 268.12,-256.95"/>
</g>
<!-- Node5 -->
<g id="node5" class="node">
<title>Node5</title>
<g id="a_node5"><a xlink:title=" ">
<polygon fill="#e0e0e0" stroke="#999999" points="410,-195 317,-195 317,-176 410,-176 410,-195"/>
<text text-anchor="middle" x="363.5" y="-183" font-family="Helvetica,sans-Serif" font-size="10.00">dpiclimate&#45;12.h</text>
</a>
</g>
</g>
<!-- Node1&#45;&gt;Node5 -->
<g id="edge5" class="edge">
<title>Node1&#45;&gt;Node5</title>
<path fill="none" stroke="#63b8ff" d="M299.75,-285.63C313.17,-264.75 338.04,-226.09 352.42,-203.72"/>
<polygon fill="#63b8ff" stroke="#63b8ff" points="355.42,-205.53 357.89,-195.23 349.53,-201.75 355.42,-205.53"/>
</g>
<!-- Node6 -->
<g id="node6" class="node">
<title>Node6</title>
<g id="a_node6"><a xlink:title=" ">
<polygon fill="#e0e0e0" stroke="#999999" points="463,-250 356,-250 356,-231 463,-231 463,-250"/>
<text text-anchor="middle" x="409.5" y="-238" font-family="Helvetica,sans-Serif" font-size="10.00">cli/FreeRTOS_CLI.h</text>
</a>
</g>
</g>
<!-- Node1&#45;&gt;Node6 -->
<g id="edge6" class="edge">
<title>Node1&#45;&gt;Node6</title>
<path fill="none" stroke="#63b8ff" d="M319,-285.99C338.41,-276.45 363.93,-263.9 382.92,-254.57"/>
<polygon fill="#63b8ff" stroke="#63b8ff" points="384.5,-257.69 391.93,-250.14 381.41,-251.41 384.5,-257.69"/>
</g>
<!-- Node7 -->
<g id="node7" class="node">
<title>Node7</title>
<g id="a_node7"><a xlink:href="_utils_8h.html" target="_top" xlink:title=" ">
<polygon fill="white" stroke="#666666" points="529.5,-250 481.5,-250 481.5,-231 529.5,-231 529.5,-250"/>
<text text-anchor="middle" x="505.5" y="-238" font-family="Helvetica,sans-Serif" font-size="10.00">Utils.h</text>
</a>
</g>
</g>
<!-- Node1&#45;&gt;Node7 -->
<g id="edge7" class="edge">
<title>Node1&#45;&gt;Node7</title>
<path fill="none" stroke="#63b8ff" d="M342,-285.99C382.14,-275.07 436.73,-260.21 471.55,-250.74"/>
<polygon fill="#63b8ff" stroke="#63b8ff" points="472.52,-254.1 481.25,-248.1 470.68,-247.35 472.52,-254.1"/>
</g>
<!-- Node7&#45;&gt;Node5 -->
<g id="edge9" class="edge">
<title>Node7&#45;&gt;Node5</title>
<path fill="none" stroke="#63b8ff" d="M482.69,-230.98C459.33,-222.27 422.8,-208.63 396.33,-198.75"/>
<polygon fill="#63b8ff" stroke="#63b8ff" points="397.32,-195.39 386.73,-195.17 394.87,-201.95 397.32,-195.39"/>
</g>
<!-- Node8 -->
<g id="node8" class="node">
<title>Node8</title>
<g id="a_node8"><a xlink:title=" ">
<polygon fill="#e0e0e0" stroke="#999999" points="529,-195 446,-195 446,-176 529,-176 529,-195"/>
<text text-anchor="middle" x="487.5" y="-183" font-family="Helvetica,sans-Serif" font-size="10.00">ArduinoJson.h</text>
</a>
</g>
</g>
<!-- Node7&#45;&gt;Node8 -->
<g id="edge8" class="edge">
<title>Node7&#45;&gt;Node8</title>
<path fill="none" stroke="#63b8ff" d="M502.53,-230.75C500.14,-223.72 496.71,-213.62 493.73,-204.84"/>
<polygon fill="#63b8ff" stroke="#63b8ff" points="496.95,-203.43 490.42,-195.09 490.32,-205.68 496.95,-203.43"/>
</g>
<!-- Node9 -->
<g id="node9" class="node">
<title>Node9</title>
<g id="a_node9"><a xlink:href="globals_8h.html" target="_top" xlink:title=" ">
<polygon fill="white" stroke="#666666" points="608,-195 547,-195 547,-176 608,-176 608,-195"/>
<text text-anchor="middle" x="577.5" y="-183" font-family="Helvetica,sans-Serif" font-size="10.00">globals.h</text>
</a>
</g>
</g>
<!-- Node7&#45;&gt;Node9 -->
<g id="edge10" class="edge">
<title>Node7&#45;&gt;Node9</title>
<path fill="none" stroke="#63b8ff" d="M517.07,-230.98C527.92,-223 544.38,-210.88 557.38,-201.31"/>
<polygon fill="#63b8ff" stroke="#63b8ff" points="559.74,-203.92 565.72,-195.17 555.59,-198.28 559.74,-203.92"/>
</g>
<!-- Node10 -->
<g id="node10" class="node">
<title>Node10</title>
<g id="a_node10"><a xlink:title=" ">
<polygon fill="#e0e0e0" stroke="#999999" points="526.5,-140 396.5,-140 396.5,-110 526.5,-110 526.5,-140"/>
<text text-anchor="start" x="404.5" y="-128" font-family="Helvetica,sans-Serif" font-size="10.00">SparkFun_u&#45;blox_SARA</text>
<text text-anchor="middle" x="461.5" y="-117" font-family="Helvetica,sans-Serif" font-size="10.00">&#45;R5_Arduino_Library.h</text>
</a>
</g>
</g>
<!-- Node9&#45;&gt;Node10 -->
<g id="edge11" class="edge">
<title>Node9&#45;&gt;Node10</title>
<path fill="none" stroke="#63b8ff" d="M560.38,-175.87C544.21,-167.71 519.4,-155.2 498.68,-144.75"/>
<polygon fill="#63b8ff" stroke="#63b8ff" points="499.99,-141.49 489.49,-140.11 496.84,-147.74 499.99,-141.49"/>
</g>
<!-- Node11 -->
<g id="node11" class="node">
<title>Node11</title>
<g id="a_node11"><a xlink:href="_c_a_t___m1_8h.html" target="_top" xlink:title=" ">
<polygon fill="white" stroke="#666666" points="610,-134.5 545,-134.5 545,-115.5 610,-115.5 610,-134.5"/>
<text text-anchor="middle" x="577.5" y="-122.5" font-family="Helvetica,sans-Serif" font-size="10.00">CAT_M1.h</text>
</a>
</g>
</g>
<!-- Node9&#45;&gt;Node11 -->
<g id="edge12" class="edge">
<title>Node9&#45;&gt;Node11</title>
<path fill="none" stroke="#63b8ff" d="M577.5,-175.87C577.5,-167.75 577.5,-155.31 577.5,-144.89"/>
<polygon fill="#63b8ff" stroke="#63b8ff" points="581,-144.67 577.5,-134.67 574,-144.67 581,-144.67"/>
</g>
<!-- Node15 -->
<g id="node15" class="node">
<title>Node15</title>
<g id="a_node15"><a xlink:href="str__utils_8h.html" target="_top" xlink:title=" ">
<polygon fill="white" stroke="#666666" points="693,-134.5 628,-134.5 628,-115.5 693,-115.5 693,-134.5"/>
<text text-anchor="middle" x="660.5" y="-122.5" font-family="Helvetica,sans-Serif" font-size="10.00">str_utils.h</text>
</a>
</g>
</g>
<!-- Node9&#45;&gt;Node15 -->
<g id="edge17" class="edge">
<title>Node9&#45;&gt;Node15</title>
<path fill="none" stroke="#63b8ff" d="M589.75,-175.87C602.86,-166.62 623.92,-151.78 639.65,-140.69"/>
<polygon fill="#63b8ff" stroke="#63b8ff" points="642.05,-143.29 648.2,-134.67 638.01,-137.57 642.05,-143.29"/>
</g>
<!-- Node12 -->
<g id="node12" class="node">
<title>Node12</title>
<g id="a_node12"><a xlink:title=" ">
<polygon fill="#e0e0e0" stroke="#999999" points="541.5,-19 493.5,-19 493.5,0 541.5,0 541.5,-19"/>
<text text-anchor="middle" x="517.5" y="-7" font-family="Helvetica,sans-Serif" font-size="10.00">Wire.h</text>
</a>
</g>
</g>
<!-- Node11&#45;&gt;Node12 -->
<g id="edge13" class="edge">
<title>Node11&#45;&gt;Node12</title>
<path fill="none" stroke="#63b8ff" d="M568.43,-115.22C559.19,-105.81 545.04,-90.06 536.5,-74 528.98,-59.86 524.02,-42.32 521.06,-29.26"/>
<polygon fill="#63b8ff" stroke="#63b8ff" points="524.42,-28.21 518.96,-19.13 517.56,-29.63 524.42,-28.21"/>
</g>
<!-- Node13 -->
<g id="node13" class="node">
<title>Node13</title>
<g id="a_node13"><a xlink:href="_t_c_a9534_8h.html" target="_top" xlink:title=" ">
<polygon fill="white" stroke="#666666" points="613.5,-74 545.5,-74 545.5,-55 613.5,-55 613.5,-74"/>
<text text-anchor="middle" x="579.5" y="-62" font-family="Helvetica,sans-Serif" font-size="10.00">TCA9534.h</text>
</a>
</g>
</g>
<!-- Node11&#45;&gt;Node13 -->
<g id="edge14" class="edge">
<title>Node11&#45;&gt;Node13</title>
<path fill="none" stroke="#63b8ff" d="M577.8,-115.37C578.07,-107.25 578.5,-94.81 578.85,-84.39"/>
<polygon fill="#63b8ff" stroke="#63b8ff" points="582.36,-84.28 579.2,-74.17 575.36,-84.04 582.36,-84.28"/>
</g>
<!-- Node13&#45;&gt;Node12 -->
<g id="edge16" class="edge">
<title>Node13&#45;&gt;Node12</title>
<path fill="none" stroke="#63b8ff" d="M569.54,-54.98C560.37,-47.15 546.56,-35.34 535.47,-25.86"/>
<polygon fill="#63b8ff" stroke="#63b8ff" points="537.52,-23.01 527.64,-19.17 532.97,-28.33 537.52,-23.01"/>
</g>
<!-- Node14 -->
<g id="node14" class="node">
<title>Node14</title>
<g id="a_node14"><a xlink:title=" ">
<polygon fill="#e0e0e0" stroke="#999999" points="623,-19 560,-19 560,0 623,0 623,-19"/>
<text text-anchor="middle" x="591.5" y="-7" font-family="Helvetica,sans-Serif" font-size="10.00">Arduino.h</text>
</a>
</g>
</g>
<!-- Node13&#45;&gt;Node14 -->
<g id="edge15" class="edge">
<title>Node13&#45;&gt;Node14</title>
<path fill="none" stroke="#63b8ff" d="M581.48,-54.75C583.07,-47.72 585.36,-37.62 587.35,-28.84"/>
<polygon fill="#63b8ff" stroke="#63b8ff" points="590.76,-29.62 589.56,-19.09 583.93,-28.07 590.76,-29.62"/>
</g>
<!-- Node16 -->
<g id="node16" class="node">
<title>Node16</title>
<g id="a_node16"><a xlink:title=" ">
<polygon fill="#e0e0e0" stroke="#999999" points="688.5,-74 632.5,-74 632.5,-55 688.5,-55 688.5,-74"/>
<text text-anchor="middle" x="660.5" y="-62" font-family="Helvetica,sans-Serif" font-size="10.00">stddef.h</text>
</a>
</g>
</g>
<!-- Node15&#45;&gt;Node16 -->
<g id="edge18" class="edge">
<title>Node15&#45;&gt;Node16</title>
<path fill="none" stroke="#63b8ff" d="M660.5,-115.37C660.5,-107.25 660.5,-94.81 660.5,-84.39"/>
<polygon fill="#63b8ff" stroke="#63b8ff" points="664,-84.17 660.5,-74.17 657,-84.17 664,-84.17"/>
</g>
</g>
</svg>
