<?xml version="1.0" encoding="UTF-8" standalone="no"?>
<!DOCTYPE svg PUBLIC "-//W3C//DTD SVG 1.1//EN"
 "http://www.w3.org/Graphics/SVG/1.1/DTD/svg11.dtd">
<!-- Generated by graphviz version 2.43.0 (0)
 -->
<!-- Title: firmware/wombat/src/cli/peripherals/sdi12.cpp Pages: 1 -->
<svg width="2238pt" height="324pt"
 viewBox="0.00 0.00 2238.00 324.00" xmlns="http://www.w3.org/2000/svg" xmlns:xlink="http://www.w3.org/1999/xlink">
<g id="graph0" class="graph" transform="scale(1 1) rotate(0) translate(4 320)">
<title>firmware/wombat/src/cli/peripherals/sdi12.cpp</title>
<!-- Node1 -->
<g id="node1" class="node">
<title>Node1</title>
<g id="a_node1"><a xlink:title="SDI&#45;12 command line interface handler.">
<polygon fill="#999999" stroke="#666666" points="339.5,-316 201.5,-316 201.5,-286 339.5,-286 339.5,-316"/>
<text text-anchor="start" x="209.5" y="-304" font-family="Helvetica,sans-Serif" font-size="10.00">firmware/wombat/src</text>
<text text-anchor="middle" x="270.5" y="-293" font-family="Helvetica,sans-Serif" font-size="10.00">/cli/peripherals/sdi12.cpp</text>
</a>
</g>
</g>
<!-- Node2 -->
<g id="node2" class="node">
<title>Node2</title>
<g id="a_node2"><a xlink:href="sdi12_8h.html" target="_top" xlink:title="SDI&#45;12 command line interface handler.">
<polygon fill="white" stroke="#666666" points="332.5,-189.5 208.5,-189.5 208.5,-170.5 332.5,-170.5 332.5,-189.5"/>
<text text-anchor="middle" x="270.5" y="-177.5" font-family="Helvetica,sans-Serif" font-size="10.00">cli/peripherals/sdi12.h</text>
</a>
</g>
</g>
<!-- Node1&#45;&gt;Node2 -->
<g id="edge1" class="edge">
<title>Node1&#45;&gt;Node2</title>
<path fill="none" stroke="#63b8ff" d="M270.5,-285.88C270.5,-264.51 270.5,-223.89 270.5,-199.96"/>
<polygon fill="#63b8ff" stroke="#63b8ff" points="274,-199.71 270.5,-189.71 267,-199.71 274,-199.71"/>
</g>
<!-- Node11 -->
<g id="node11" class="node">
<title>Node11</title>
<g id="a_node11"><a xlink:href="_sensor_task_8h.html" target="_top" xlink:title=" ">
<polygon fill="white" stroke="#666666" points="231.5,-250 151.5,-250 151.5,-231 231.5,-231 231.5,-250"/>
<text text-anchor="middle" x="191.5" y="-238" font-family="Helvetica,sans-Serif" font-size="10.00">SensorTask.h</text>
</a>
</g>
</g>
<!-- Node1&#45;&gt;Node11 -->
<g id="edge12" class="edge">
<title>Node1&#45;&gt;Node11</title>
<path fill="none" stroke="#63b8ff" d="M251.38,-285.84C239.32,-276.91 223.79,-265.41 211.56,-256.35"/>
<polygon fill="#63b8ff" stroke="#63b8ff" points="213.46,-253.4 203.34,-250.27 209.29,-259.03 213.46,-253.4"/>
</g>
<!-- Node12 -->
<g id="node12" class="node">
<title>Node12</title>
<g id="a_node12"><a xlink:href="_c_l_i_8h.html" target="_top" xlink:title="FreeRTOS CLI handler.">
<polygon fill="white" stroke="#666666" points="923,-250 868,-250 868,-231 923,-231 923,-250"/>
<text text-anchor="middle" x="895.5" y="-238" font-family="Helvetica,sans-Serif" font-size="10.00">cli/CLI.h</text>
</a>
</g>
</g>
<!-- Node1&#45;&gt;Node12 -->
<g id="edge14" class="edge">
<title>Node1&#45;&gt;Node12</title>
<path fill="none" stroke="#63b8ff" d="M339.77,-293.52C471.77,-281.16 755.27,-254.63 857.65,-245.04"/>
<polygon fill="#63b8ff" stroke="#63b8ff" points="858.19,-248.51 867.82,-244.09 857.54,-241.54 858.19,-248.51"/>
</g>
<!-- Node2&#45;&gt;Node2 -->
<g id="edge5" class="edge">
<title>Node2&#45;&gt;Node2</title>
<path fill="none" stroke="#63b8ff" d="M300.04,-189.53C324.72,-193.61 350.5,-190.43 350.5,-180 350.5,-171 331.28,-167.4 310.15,-169.2"/>
<polygon fill="#63b8ff" stroke="#63b8ff" points="309.53,-165.75 300.04,-170.47 310.4,-172.7 309.53,-165.75"/>
</g>
<!-- Node3 -->
<g id="node3" class="node">
<title>Node3</title>
<g id="a_node3"><a xlink:title=" ">
<polygon fill="#e0e0e0" stroke="#999999" points="820,-129 707,-129 707,-110 820,-110 820,-129"/>
<text text-anchor="middle" x="763.5" y="-117" font-family="Helvetica,sans-Serif" font-size="10.00">freertos/FreeRTOS.h</text>
</a>
</g>
</g>
<!-- Node2&#45;&gt;Node3 -->
<g id="edge2" class="edge">
<title>Node2&#45;&gt;Node3</title>
<path fill="none" stroke="#63b8ff" d="M332.76,-171.94C413.89,-162.68 560.48,-145.79 696.77,-129.08"/>
<polygon fill="#63b8ff" stroke="#63b8ff" points="697.48,-132.52 706.98,-127.82 696.63,-125.57 697.48,-132.52"/>
</g>
<!-- Node4 -->
<g id="node4" class="node">
<title>Node4</title>
<g id="a_node4"><a xlink:title=" ">
<polygon fill="#e0e0e0" stroke="#999999" points="499,-129 438,-129 438,-110 499,-110 499,-129"/>
<text text-anchor="middle" x="468.5" y="-117" font-family="Helvetica,sans-Serif" font-size="10.00">Stream.h</text>
</a>
</g>
</g>
<!-- Node2&#45;&gt;Node4 -->
<g id="edge3" class="edge">
<title>Node2&#45;&gt;Node4</title>
<path fill="none" stroke="#63b8ff" d="M299.29,-170.49C333.75,-160.31 391.59,-143.22 429.9,-131.9"/>
<polygon fill="#63b8ff" stroke="#63b8ff" points="431.08,-135.21 439.67,-129.02 429.09,-128.49 431.08,-135.21"/>
</g>
<!-- Node5 -->
<g id="node5" class="node">
<title>Node5</title>
<g id="a_node5"><a xlink:title=" ">
<polygon fill="#e0e0e0" stroke="#999999" points="689,-129 600,-129 600,-110 689,-110 689,-129"/>
<text text-anchor="middle" x="644.5" y="-117" font-family="Helvetica,sans-Serif" font-size="10.00">StreamString.h</text>
</a>
</g>
</g>
<!-- Node2&#45;&gt;Node5 -->
<g id="edge4" class="edge">
<title>Node2&#45;&gt;Node5</title>
<path fill="none" stroke="#63b8ff" d="M325.14,-170.48C386.8,-160.87 490.37,-144.7 589.79,-129.11"/>
<polygon fill="#63b8ff" stroke="#63b8ff" points="590.37,-132.56 599.71,-127.55 589.29,-125.65 590.37,-132.56"/>
</g>
<!-- Node6 -->
<g id="node6" class="node">
<title>Node6</title>
<g id="a_node6"><a xlink:title=" ">
<polygon fill="#e0e0e0" stroke="#999999" points="93,-74 0,-74 0,-55 93,-55 93,-74"/>
<text text-anchor="middle" x="46.5" y="-62" font-family="Helvetica,sans-Serif" font-size="10.00">dpiclimate&#45;12.h</text>
</a>
</g>
</g>
<!-- Node2&#45;&gt;Node6 -->
<g id="edge6" class="edge">
<title>Node2&#45;&gt;Node6</title>
<path fill="none" stroke="#63b8ff" d="M208.1,-171.03C172.72,-164.2 128.97,-151.7 95.5,-129 78.27,-117.32 64.45,-97.62 55.94,-83.26"/>
<polygon fill="#63b8ff" stroke="#63b8ff" points="58.87,-81.33 50.92,-74.33 52.77,-84.76 58.87,-81.33"/>
</g>
<!-- Node7 -->
<g id="node7" class="node">
<title>Node7</title>
<g id="a_node7"><a xlink:title=" ">
<polygon fill="#e0e0e0" stroke="#999999" points="420,-129 313,-129 313,-110 420,-110 420,-129"/>
<text text-anchor="middle" x="366.5" y="-117" font-family="Helvetica,sans-Serif" font-size="10.00">cli/FreeRTOS_CLI.h</text>
</a>
</g>
</g>
<!-- Node2&#45;&gt;Node7 -->
<g id="edge7" class="edge">
<title>Node2&#45;&gt;Node7</title>
<path fill="none" stroke="#63b8ff" d="M284.67,-170.37C300.19,-160.91 325.33,-145.59 343.65,-134.42"/>
<polygon fill="#63b8ff" stroke="#63b8ff" points="345.56,-137.36 352.28,-129.17 341.92,-131.38 345.56,-137.36"/>
</g>
<!-- Node8 -->
<g id="node8" class="node">
<title>Node8</title>
<g id="a_node8"><a xlink:href="_utils_8h.html" target="_top" xlink:title=" ">
<polygon fill="white" stroke="#666666" points="152.5,-129 104.5,-129 104.5,-110 152.5,-110 152.5,-129"/>
<text text-anchor="middle" x="128.5" y="-117" font-family="Helvetica,sans-Serif" font-size="10.00">Utils.h</text>
</a>
</g>
</g>
<!-- Node2&#45;&gt;Node8 -->
<g id="edge8" class="edge">
<title>Node2&#45;&gt;Node8</title>
<path fill="none" stroke="#63b8ff" d="M249.85,-170.49C225.87,-160.62 186.11,-144.23 158.67,-132.93"/>
<polygon fill="#63b8ff" stroke="#63b8ff" points="159.75,-129.59 149.17,-129.02 157.09,-136.06 159.75,-129.59"/>
</g>
<!-- Node8&#45;&gt;Node6 -->
<g id="edge11" class="edge">
<title>Node8&#45;&gt;Node6</title>
<path fill="none" stroke="#63b8ff" d="M115.33,-109.98C102.73,-101.84 83.5,-89.41 68.56,-79.76"/>
<polygon fill="#63b8ff" stroke="#63b8ff" points="70.21,-76.66 59.91,-74.17 66.41,-82.54 70.21,-76.66"/>
</g>
<!-- Node9 -->
<g id="node9" class="node">
<title>Node9</title>
<g id="a_node9"><a xlink:title=" ">
<polygon fill="#e0e0e0" stroke="#999999" points="167.5,-74 111.5,-74 111.5,-55 167.5,-55 167.5,-74"/>
<text text-anchor="middle" x="139.5" y="-62" font-family="Helvetica,sans-Serif" font-size="10.00">stddef.h</text>
</a>
</g>
</g>
<!-- Node8&#45;&gt;Node9 -->
<g id="edge9" class="edge">
<title>Node8&#45;&gt;Node9</title>
<path fill="none" stroke="#63b8ff" d="M130.32,-109.75C131.76,-102.8 133.82,-92.85 135.63,-84.13"/>
<polygon fill="#63b8ff" stroke="#63b8ff" points="139.11,-84.59 137.72,-74.09 132.26,-83.17 139.11,-84.59"/>
</g>
<!-- Node10 -->
<g id="node10" class="node">
<title>Node10</title>
<g id="a_node10"><a xlink:title=" ">
<polygon fill="#e0e0e0" stroke="#999999" points="269,-74 186,-74 186,-55 269,-55 269,-74"/>
<text text-anchor="middle" x="227.5" y="-62" font-family="Helvetica,sans-Serif" font-size="10.00">ArduinoJson.h</text>
</a>
</g>
</g>
<!-- Node8&#45;&gt;Node10 -->
<g id="edge10" class="edge">
<title>Node8&#45;&gt;Node10</title>
<path fill="none" stroke="#63b8ff" d="M144.41,-109.98C160.05,-101.61 184.16,-88.7 202.38,-78.95"/>
<polygon fill="#63b8ff" stroke="#63b8ff" points="204.14,-81.98 211.3,-74.17 200.84,-75.8 204.14,-81.98"/>
</g>
<!-- Node11&#45;&gt;Node10 -->
<g id="edge13" class="edge">
<title>Node11&#45;&gt;Node10</title>
<path fill="none" stroke="#63b8ff" d="M191.97,-230.71C192.82,-216.71 194.96,-188.5 199.5,-165 205.07,-136.16 214.96,-103.52 221.37,-83.73"/>
<polygon fill="#63b8ff" stroke="#63b8ff" points="224.72,-84.76 224.53,-74.17 218.07,-82.57 224.72,-84.76"/>
</g>
<!-- Node12&#45;&gt;Node2 -->
<g id="edge28" class="edge">
<title>Node12&#45;&gt;Node2</title>
<path fill="none" stroke="#63b8ff" d="M867.8,-237.81C788.94,-232.86 556.55,-217.33 364.5,-195 354.54,-193.84 344.02,-192.45 333.76,-190.99"/>
<polygon fill="#63b8ff" stroke="#63b8ff" points="334.01,-187.49 323.61,-189.52 333.01,-194.42 334.01,-187.49"/>
</g>
<!-- Node12&#45;&gt;Node3 -->
<g id="edge16" class="edge">
<title>Node12&#45;&gt;Node3</title>
<path fill="none" stroke="#63b8ff" d="M890.28,-230.85C881.03,-216.04 860.56,-185.44 837.5,-165 823.51,-152.6 805.6,-141.72 790.9,-133.83"/>
<polygon fill="#63b8ff" stroke="#63b8ff" points="792.26,-130.59 781.77,-129.08 789.03,-136.8 792.26,-130.59"/>
</g>
<!-- Node12&#45;&gt;Node7 -->
<g id="edge17" class="edge">
<title>Node12&#45;&gt;Node7</title>
<path fill="none" stroke="#63b8ff" d="M867.68,-238.68C768.42,-235.52 435.56,-222.91 397.5,-195 379.71,-181.95 372.07,-156.76 368.83,-139.31"/>
<polygon fill="#63b8ff" stroke="#63b8ff" points="372.25,-138.51 367.28,-129.16 365.33,-139.57 372.25,-138.51"/>
</g>
<!-- Node13 -->
<g id="node13" class="node">
<title>Node13</title>
<g id="a_node13"><a xlink:title=" ">
<polygon fill="#e0e0e0" stroke="#999999" points="1485,-19 1422,-19 1422,0 1485,0 1485,-19"/>
<text text-anchor="middle" x="1453.5" y="-7" font-family="Helvetica,sans-Serif" font-size="10.00">Arduino.h</text>
</a>
</g>
</g>
<!-- Node12&#45;&gt;Node13 -->
<g id="edge15" class="edge">
<title>Node12&#45;&gt;Node13</title>
<path fill="none" stroke="#63b8ff" d="M923.2,-239.27C1026.07,-238.11 1381.99,-231.5 1415.5,-195 1424.52,-185.18 1418.56,-177.98 1415.5,-165 1403.4,-113.75 1344.57,-100.25 1371.5,-55 1380.49,-39.9 1396.58,-29.61 1412.15,-22.76"/>
<polygon fill="#63b8ff" stroke="#63b8ff" points="1413.72,-25.9 1421.7,-18.93 1411.12,-19.4 1413.72,-25.9"/>
</g>
<!-- Node14 -->
<g id="node14" class="node">
<title>Node14</title>
<g id="a_node14"><a xlink:href="cat-m1_8h.html" target="_top" xlink:title="CAT&#45;M1 CLI command request and response handler.">
<polygon fill="white" stroke="#666666" points="656.5,-189.5 524.5,-189.5 524.5,-170.5 656.5,-170.5 656.5,-189.5"/>
<text text-anchor="middle" x="590.5" y="-177.5" font-family="Helvetica,sans-Serif" font-size="10.00">cli/peripherals/cat&#45;m1.h</text>
</a>
</g>
</g>
<!-- Node12&#45;&gt;Node14 -->
<g id="edge18" class="edge">
<title>Node12&#45;&gt;Node14</title>
<path fill="none" stroke="#63b8ff" d="M867.9,-234.21C817.65,-224.57 710.41,-204 644.97,-191.45"/>
<polygon fill="#63b8ff" stroke="#63b8ff" points="645.32,-187.95 634.84,-189.5 644,-194.83 645.32,-187.95"/>
</g>
<!-- Node18 -->
<g id="node18" class="node">
<title>Node18</title>
<g id="a_node18"><a xlink:href="cli__power_8h.html" target="_top" xlink:title=" ">
<polygon fill="white" stroke="#666666" points="506.5,-195 406.5,-195 406.5,-165 506.5,-165 506.5,-195"/>
<text text-anchor="start" x="414.5" y="-183" font-family="Helvetica,sans-Serif" font-size="10.00">cli/peripherals/cli</text>
<text text-anchor="middle" x="456.5" y="-172" font-family="Helvetica,sans-Serif" font-size="10.00">_power.h</text>
</a>
</g>
</g>
<!-- Node12&#45;&gt;Node18 -->
<g id="edge29" class="edge">
<title>Node12&#45;&gt;Node18</title>
<path fill="none" stroke="#63b8ff" d="M867.68,-237.36C806.15,-232.39 653.69,-218.76 516.48,-195.04"/>
<polygon fill="#63b8ff" stroke="#63b8ff" points="517.08,-191.59 506.63,-193.31 515.88,-198.49 517.08,-191.59"/>
</g>
<!-- Node19 -->
<g id="node19" class="node">
<title>Node19</title>
<g id="a_node19"><a xlink:href="sd__card_8h.html" target="_top" xlink:title=" ">
<polygon fill="white" stroke="#666666" points="984.5,-195 884.5,-195 884.5,-165 984.5,-165 984.5,-195"/>
<text text-anchor="start" x="892.5" y="-183" font-family="Helvetica,sans-Serif" font-size="10.00">cli/peripherals/sd</text>
<text text-anchor="middle" x="934.5" y="-172" font-family="Helvetica,sans-Serif" font-size="10.00">_card.h</text>
</a>
</g>
</g>
<!-- Node12&#45;&gt;Node19 -->
<g id="edge35" class="edge">
<title>Node12&#45;&gt;Node19</title>
<path fill="none" stroke="#63b8ff" d="M901.25,-230.87C906.06,-223.67 913.12,-213.07 919.5,-203.49"/>
<polygon fill="#63b8ff" stroke="#63b8ff" points="922.46,-205.38 925.09,-195.11 916.63,-201.49 922.46,-205.38"/>
</g>
<!-- Node21 -->
<g id="node21" class="node">
<title>Node21</title>
<g id="a_node21"><a xlink:href="server_8h.html" target="_top" xlink:title="Handle the setup and maintenance of the BLE server and connected clients.">
<polygon fill="white" stroke="#666666" points="1680,-189.5 1575,-189.5 1575,-170.5 1680,-170.5 1680,-189.5"/>
<text text-anchor="middle" x="1627.5" y="-177.5" font-family="Helvetica,sans-Serif" font-size="10.00">bluetooth/server.h</text>
</a>
</g>
</g>
<!-- Node12&#45;&gt;Node21 -->
<g id="edge38" class="edge">
<title>Node12&#45;&gt;Node21</title>
<path fill="none" stroke="#63b8ff" d="M923.11,-237.06C1029.36,-228.19 1412.64,-197.53 1564.75,-185.7"/>
<polygon fill="#63b8ff" stroke="#63b8ff" points="1565.16,-189.18 1574.86,-184.92 1564.62,-182.2 1565.16,-189.18"/>
</g>
<!-- Node34 -->
<g id="node34" class="node">
<title>Node34</title>
<g id="a_node34"><a xlink:href="acquisition__intervals_8h.html" target="_top" xlink:title="Handles the time between measurements and uplinks by the device over LTE.">
<polygon fill="white" stroke="#666666" points="828.5,-195 674.5,-195 674.5,-165 828.5,-165 828.5,-195"/>
<text text-anchor="start" x="682.5" y="-183" font-family="Helvetica,sans-Serif" font-size="10.00">cli/device_config/acquisition</text>
<text text-anchor="middle" x="751.5" y="-172" font-family="Helvetica,sans-Serif" font-size="10.00">_intervals.h</text>
</a>
</g>
</g>
<!-- Node12&#45;&gt;Node34 -->
<g id="edge68" class="edge">
<title>Node12&#45;&gt;Node34</title>
<path fill="none" stroke="#63b8ff" d="M874.56,-230.99C853.93,-222.61 821.77,-209.55 795.5,-198.87"/>
<polygon fill="#63b8ff" stroke="#63b8ff" points="796.7,-195.59 786.12,-195.06 794.07,-202.07 796.7,-195.59"/>
</g>
<!-- Node36 -->
<g id="node36" class="node">
<title>Node36</title>
<g id="a_node36"><a xlink:href="mqtt__cli_8h.html" target="_top" xlink:title="MQTT setup and configuration through the CLI.">
<polygon fill="white" stroke="#666666" points="1406.5,-195 1282.5,-195 1282.5,-165 1406.5,-165 1406.5,-195"/>
<text text-anchor="start" x="1290.5" y="-183" font-family="Helvetica,sans-Serif" font-size="10.00">cli/device_config/mqtt</text>
<text text-anchor="middle" x="1344.5" y="-172" font-family="Helvetica,sans-Serif" font-size="10.00">_cli.h</text>
</a>
</g>
</g>
<!-- Node12&#45;&gt;Node36 -->
<g id="edge76" class="edge">
<title>Node12&#45;&gt;Node36</title>
<path fill="none" stroke="#63b8ff" d="M923.11,-236.99C984.14,-231.28 1135.32,-216.28 1271.98,-195.16"/>
<polygon fill="#63b8ff" stroke="#63b8ff" points="1272.87,-198.57 1282.21,-193.57 1271.79,-191.65 1272.87,-198.57"/>
</g>
<!-- Node37 -->
<g id="node37" class="node">
<title>Node37</title>
<g id="a_node37"><a xlink:href="ftp__cli_8h.html" target="_top" xlink:title="FTP setup and configuration through the CLI.">
<polygon fill="white" stroke="#666666" points="1116,-195 1003,-195 1003,-165 1116,-165 1116,-195"/>
<text text-anchor="start" x="1011" y="-183" font-family="Helvetica,sans-Serif" font-size="10.00">cli/device_config/ftp</text>
<text text-anchor="middle" x="1059.5" y="-172" font-family="Helvetica,sans-Serif" font-size="10.00">_cli.h</text>
</a>
</g>
</g>
<!-- Node12&#45;&gt;Node37 -->
<g id="edge78" class="edge">
<title>Node12&#45;&gt;Node37</title>
<path fill="none" stroke="#63b8ff" d="M919.35,-230.99C943.16,-222.5 980.44,-209.2 1010.57,-198.45"/>
<polygon fill="#63b8ff" stroke="#63b8ff" points="1011.83,-201.72 1020.07,-195.06 1009.48,-195.13 1011.83,-201.72"/>
</g>
<!-- Node38 -->
<g id="node38" class="node">
<title>Node38</title>
<g id="a_node38"><a xlink:href="config__cli_8h.html" target="_top" xlink:title=" ">
<polygon fill="white" stroke="#666666" points="1264.5,-195 1134.5,-195 1134.5,-165 1264.5,-165 1264.5,-195"/>
<text text-anchor="start" x="1142.5" y="-183" font-family="Helvetica,sans-Serif" font-size="10.00">cli/device_config/config</text>
<text text-anchor="middle" x="1199.5" y="-172" font-family="Helvetica,sans-Serif" font-size="10.00">_cli.h</text>
</a>
</g>
</g>
<!-- Node12&#45;&gt;Node38 -->
<g id="edge80" class="edge">
<title>Node12&#45;&gt;Node38</title>
<path fill="none" stroke="#63b8ff" d="M923.01,-234.21C968.06,-225.54 1059.05,-208.03 1124.35,-195.46"/>
<polygon fill="#63b8ff" stroke="#63b8ff" points="1125.04,-198.89 1134.2,-193.57 1123.72,-192.02 1125.04,-198.89"/>
</g>
<!-- Node14&#45;&gt;Node3 -->
<g id="edge19" class="edge">
<title>Node14&#45;&gt;Node3</title>
<path fill="none" stroke="#63b8ff" d="M615.66,-170.49C645.38,-160.44 695.02,-143.66 728.49,-132.34"/>
<polygon fill="#63b8ff" stroke="#63b8ff" points="729.96,-135.54 738.31,-129.02 727.72,-128.9 729.96,-135.54"/>
</g>
<!-- Node14&#45;&gt;Node4 -->
<g id="edge20" class="edge">
<title>Node14&#45;&gt;Node4</title>
<path fill="none" stroke="#63b8ff" d="M572.76,-170.49C552.43,-160.75 518.89,-144.66 495.36,-133.38"/>
<polygon fill="#63b8ff" stroke="#63b8ff" points="496.79,-130.18 486.26,-129.02 493.76,-136.5 496.79,-130.18"/>
</g>
<!-- Node14&#45;&gt;Node5 -->
<g id="edge21" class="edge">
<title>Node14&#45;&gt;Node5</title>
<path fill="none" stroke="#63b8ff" d="M598.47,-170.37C606.6,-161.55 619.43,-147.66 629.48,-136.77"/>
<polygon fill="#63b8ff" stroke="#63b8ff" points="632.29,-138.89 636.5,-129.17 627.14,-134.14 632.29,-138.89"/>
</g>
<!-- Node14&#45;&gt;Node7 -->
<g id="edge22" class="edge">
<title>Node14&#45;&gt;Node7</title>
<path fill="none" stroke="#63b8ff" d="M557.93,-170.49C518.53,-160.2 452.11,-142.86 408.79,-131.54"/>
<polygon fill="#63b8ff" stroke="#63b8ff" points="409.67,-128.16 399.11,-129.02 407.9,-134.93 409.67,-128.16"/>
</g>
<!-- Node15 -->
<g id="node15" class="node">
<title>Node15</title>
<g id="a_node15"><a xlink:href="_c_a_t___m1_8h.html" target="_top" xlink:title=" ">
<polygon fill="white" stroke="#666666" points="582,-129 517,-129 517,-110 582,-110 582,-129"/>
<text text-anchor="middle" x="549.5" y="-117" font-family="Helvetica,sans-Serif" font-size="10.00">CAT_M1.h</text>
</a>
</g>
</g>
<!-- Node14&#45;&gt;Node15 -->
<g id="edge23" class="edge">
<title>Node14&#45;&gt;Node15</title>
<path fill="none" stroke="#63b8ff" d="M584.45,-170.37C578.39,-161.73 568.91,-148.2 561.36,-137.42"/>
<polygon fill="#63b8ff" stroke="#63b8ff" points="564.18,-135.35 555.57,-129.17 558.45,-139.37 564.18,-135.35"/>
</g>
<!-- Node16 -->
<g id="node16" class="node">
<title>Node16</title>
<g id="a_node16"><a xlink:title=" ">
<polygon fill="#e0e0e0" stroke="#999999" points="604.5,-19 556.5,-19 556.5,0 604.5,0 604.5,-19"/>
<text text-anchor="middle" x="580.5" y="-7" font-family="Helvetica,sans-Serif" font-size="10.00">Wire.h</text>
</a>
</g>
</g>
<!-- Node15&#45;&gt;Node16 -->
<g id="edge24" class="edge">
<title>Node15&#45;&gt;Node16</title>
<path fill="none" stroke="#63b8ff" d="M552.04,-109.66C557.08,-92.09 568.46,-52.45 575.2,-28.95"/>
<polygon fill="#63b8ff" stroke="#63b8ff" points="578.62,-29.74 578.01,-19.16 571.89,-27.8 578.62,-29.74"/>
</g>
<!-- Node17 -->
<g id="node17" class="node">
<title>Node17</title>
<g id="a_node17"><a xlink:href="_t_c_a9534_8h.html" target="_top" xlink:title=" ">
<polygon fill="white" stroke="#666666" points="645.5,-74 577.5,-74 577.5,-55 645.5,-55 645.5,-74"/>
<text text-anchor="middle" x="611.5" y="-62" font-family="Helvetica,sans-Serif" font-size="10.00">TCA9534.h</text>
</a>
</g>
</g>
<!-- Node15&#45;&gt;Node17 -->
<g id="edge25" class="edge">
<title>Node15&#45;&gt;Node17</title>
<path fill="none" stroke="#63b8ff" d="M559.46,-109.98C568.63,-102.15 582.44,-90.34 593.53,-80.86"/>
<polygon fill="#63b8ff" stroke="#63b8ff" points="596.03,-83.33 601.36,-74.17 591.48,-78.01 596.03,-83.33"/>
</g>
<!-- Node17&#45;&gt;Node13 -->
<g id="edge26" class="edge">
<title>Node17&#45;&gt;Node13</title>
<path fill="none" stroke="#63b8ff" d="M645.55,-61.36C778.82,-52.97 1264.88,-22.37 1411.41,-13.15"/>
<polygon fill="#63b8ff" stroke="#63b8ff" points="1412,-16.62 1421.76,-12.5 1411.56,-9.63 1412,-16.62"/>
</g>
<!-- Node17&#45;&gt;Node16 -->
<g id="edge27" class="edge">
<title>Node17&#45;&gt;Node16</title>
<path fill="none" stroke="#63b8ff" d="M606.38,-54.75C602.14,-47.49 595.97,-36.95 590.72,-27.98"/>
<polygon fill="#63b8ff" stroke="#63b8ff" points="593.59,-25.95 585.52,-19.09 587.55,-29.49 593.59,-25.95"/>
</g>
<!-- Node18&#45;&gt;Node3 -->
<g id="edge30" class="edge">
<title>Node18&#45;&gt;Node3</title>
<path fill="none" stroke="#63b8ff" d="M506.67,-166.9C509.65,-166.24 512.61,-165.6 515.5,-165 578.4,-151.9 650.76,-139.19 701.02,-130.72"/>
<polygon fill="#63b8ff" stroke="#63b8ff" points="701.8,-134.14 711.08,-129.04 700.64,-127.24 701.8,-134.14"/>
</g>
<!-- Node18&#45;&gt;Node4 -->
<g id="edge31" class="edge">
<title>Node18&#45;&gt;Node4</title>
<path fill="none" stroke="#63b8ff" d="M459.4,-164.84C460.99,-157.13 462.96,-147.49 464.67,-139.17"/>
<polygon fill="#63b8ff" stroke="#63b8ff" points="468.12,-139.77 466.7,-129.27 461.26,-138.36 468.12,-139.77"/>
</g>
<!-- Node18&#45;&gt;Node5 -->
<g id="edge32" class="edge">
<title>Node18&#45;&gt;Node5</title>
<path fill="none" stroke="#63b8ff" d="M501.53,-164.99C533.84,-154.94 576.84,-141.55 607.23,-132.1"/>
<polygon fill="#63b8ff" stroke="#63b8ff" points="608.5,-135.37 617.01,-129.05 606.42,-128.68 608.5,-135.37"/>
</g>
<!-- Node18&#45;&gt;Node7 -->
<g id="edge33" class="edge">
<title>Node18&#45;&gt;Node7</title>
<path fill="none" stroke="#63b8ff" d="M434.71,-164.84C420.63,-155.68 402.37,-143.82 388.29,-134.66"/>
<polygon fill="#63b8ff" stroke="#63b8ff" points="390.01,-131.61 379.72,-129.09 386.2,-137.48 390.01,-131.61"/>
</g>
<!-- Node18&#45;&gt;Node15 -->
<g id="edge34" class="edge">
<title>Node18&#45;&gt;Node15</title>
<path fill="none" stroke="#63b8ff" d="M479.01,-164.84C493.56,-155.68 512.43,-143.82 526.99,-134.66"/>
<polygon fill="#63b8ff" stroke="#63b8ff" points="529.24,-137.38 535.84,-129.09 525.51,-131.46 529.24,-137.38"/>
</g>
<!-- Node19&#45;&gt;Node3 -->
<g id="edge36" class="edge">
<title>Node19&#45;&gt;Node3</title>
<path fill="none" stroke="#63b8ff" d="M893.54,-164.99C864.5,-155.05 825.95,-141.86 798.38,-132.43"/>
<polygon fill="#63b8ff" stroke="#63b8ff" points="799.35,-129.06 788.75,-129.14 797.08,-135.69 799.35,-129.06"/>
</g>
<!-- Node20 -->
<g id="node20" class="node">
<title>Node20</title>
<g id="a_node20"><a xlink:title=" ">
<polygon fill="#e0e0e0" stroke="#999999" points="956.5,-129 912.5,-129 912.5,-110 956.5,-110 956.5,-129"/>
<text text-anchor="middle" x="934.5" y="-117" font-family="Helvetica,sans-Serif" font-size="10.00">string</text>
</a>
</g>
</g>
<!-- Node19&#45;&gt;Node20 -->
<g id="edge37" class="edge">
<title>Node19&#45;&gt;Node20</title>
<path fill="none" stroke="#63b8ff" d="M934.5,-164.84C934.5,-157.21 934.5,-147.7 934.5,-139.45"/>
<polygon fill="#63b8ff" stroke="#63b8ff" points="938,-139.27 934.5,-129.27 931,-139.27 938,-139.27"/>
</g>
<!-- Node21&#45;&gt;Node12 -->
<g id="edge67" class="edge">
<title>Node21&#45;&gt;Node12</title>
<path fill="none" stroke="#63b8ff" d="M1574.98,-185.5C1434.97,-197.02 1055.59,-227.32 933.69,-236.7"/>
<polygon fill="#63b8ff" stroke="#63b8ff" points="933.07,-233.23 923.37,-237.49 933.61,-240.21 933.07,-233.23"/>
</g>
<!-- Node22 -->
<g id="node22" class="node">
<title>Node22</title>
<g id="a_node22"><a xlink:title=" ">
<polygon fill="#e0e0e0" stroke="#999999" points="1721,-129 1644,-129 1644,-110 1721,-110 1721,-129"/>
<text text-anchor="middle" x="1682.5" y="-117" font-family="Helvetica,sans-Serif" font-size="10.00">BLEDevice.h</text>
</a>
</g>
</g>
<!-- Node21&#45;&gt;Node22 -->
<g id="edge39" class="edge">
<title>Node21&#45;&gt;Node22</title>
<path fill="none" stroke="#63b8ff" d="M1635.62,-170.37C1643.9,-161.55 1656.97,-147.66 1667.2,-136.77"/>
<polygon fill="#63b8ff" stroke="#63b8ff" points="1670.05,-138.85 1674.35,-129.17 1664.95,-134.06 1670.05,-138.85"/>
</g>
<!-- Node23 -->
<g id="node23" class="node">
<title>Node23</title>
<g id="a_node23"><a xlink:title=" ">
<polygon fill="#e0e0e0" stroke="#999999" points="1778.5,-74 1704.5,-74 1704.5,-55 1778.5,-55 1778.5,-74"/>
<text text-anchor="middle" x="1741.5" y="-62" font-family="Helvetica,sans-Serif" font-size="10.00">BLEServer.h</text>
</a>
</g>
</g>
<!-- Node21&#45;&gt;Node23 -->
<g id="edge40" class="edge">
<title>Node21&#45;&gt;Node23</title>
<path fill="none" stroke="#63b8ff" d="M1663.71,-170.5C1686.4,-163.27 1714.3,-150.52 1730.5,-129 1740.07,-116.29 1742.4,-98.11 1742.58,-84.46"/>
<polygon fill="#63b8ff" stroke="#63b8ff" points="1746.08,-84.19 1742.34,-74.27 1739.08,-84.35 1746.08,-84.19"/>
</g>
<!-- Node24 -->
<g id="node24" class="node">
<title>Node24</title>
<g id="a_node24"><a xlink:title=" ">
<polygon fill="#e0e0e0" stroke="#999999" points="1843.5,-129 1777.5,-129 1777.5,-110 1843.5,-110 1843.5,-129"/>
<text text-anchor="middle" x="1810.5" y="-117" font-family="Helvetica,sans-Serif" font-size="10.00">BLEUtils.h</text>
</a>
</g>
</g>
<!-- Node21&#45;&gt;Node24 -->
<g id="edge41" class="edge">
<title>Node21&#45;&gt;Node24</title>
<path fill="none" stroke="#63b8ff" d="M1654.11,-170.49C1685.69,-160.4 1738.51,-143.51 1773.92,-132.19"/>
<polygon fill="#63b8ff" stroke="#63b8ff" points="1775.4,-135.4 1783.86,-129.02 1773.27,-128.73 1775.4,-135.4"/>
</g>
<!-- Node25 -->
<g id="node25" class="node">
<title>Node25</title>
<g id="a_node25"><a xlink:title=" ">
<polygon fill="#e0e0e0" stroke="#999999" points="1864.5,-74 1796.5,-74 1796.5,-55 1864.5,-55 1864.5,-74"/>
<text text-anchor="middle" x="1830.5" y="-62" font-family="Helvetica,sans-Serif" font-size="10.00">BLE2902.h</text>
</a>
</g>
</g>
<!-- Node21&#45;&gt;Node25 -->
<g id="edge42" class="edge">
<title>Node21&#45;&gt;Node25</title>
<path fill="none" stroke="#63b8ff" d="M1680.2,-174.77C1739.79,-168.76 1831.31,-155.41 1852.5,-129 1863.4,-115.41 1854.1,-96.08 1844.46,-82.32"/>
<polygon fill="#63b8ff" stroke="#63b8ff" points="1847.12,-80.04 1838.28,-74.2 1841.55,-84.28 1847.12,-80.04"/>
</g>
<!-- Node26 -->
<g id="node26" class="node">
<title>Node26</title>
<g id="a_node26"><a xlink:href="uart_8h.html" target="_top" xlink:title="BluetoothLE UART service setup and handling.">
<polygon fill="white" stroke="#666666" points="1501,-129 1406,-129 1406,-110 1501,-110 1501,-129"/>
<text text-anchor="middle" x="1453.5" y="-117" font-family="Helvetica,sans-Serif" font-size="10.00">bluetooth/uart.h</text>
</a>
</g>
</g>
<!-- Node21&#45;&gt;Node26 -->
<g id="edge43" class="edge">
<title>Node21&#45;&gt;Node26</title>
<path fill="none" stroke="#63b8ff" d="M1597.27,-170.49C1565.31,-160.49 1515.48,-143.8 1483.58,-132.49"/>
<polygon fill="#63b8ff" stroke="#63b8ff" points="1484.5,-129.1 1473.9,-129.02 1482.13,-135.69 1484.5,-129.1"/>
</g>
<!-- Node29 -->
<g id="node29" class="node">
<title>Node29</title>
<g id="a_node29"><a xlink:href="device_8h.html" target="_top" xlink:title="Bluetooth device services and device information.">
<polygon fill="white" stroke="#666666" points="1626,-129 1519,-129 1519,-110 1626,-110 1626,-129"/>
<text text-anchor="middle" x="1572.5" y="-117" font-family="Helvetica,sans-Serif" font-size="10.00">bluetooth/device.h</text>
</a>
</g>
</g>
<!-- Node21&#45;&gt;Node29 -->
<g id="edge51" class="edge">
<title>Node21&#45;&gt;Node29</title>
<path fill="none" stroke="#63b8ff" d="M1619.38,-170.37C1611.1,-161.55 1598.03,-147.66 1587.8,-136.77"/>
<polygon fill="#63b8ff" stroke="#63b8ff" points="1590.05,-134.06 1580.65,-129.17 1584.95,-138.85 1590.05,-134.06"/>
</g>
<!-- Node30 -->
<g id="node30" class="node">
<title>Node30</title>
<g id="a_node30"><a xlink:href="power__monitoring_8h.html" target="_top" xlink:title="Setup BluetoothLE power monitoring information.">
<polygon fill="white" stroke="#666666" points="2063.5,-129 1899.5,-129 1899.5,-110 2063.5,-110 2063.5,-129"/>
<text text-anchor="middle" x="1981.5" y="-117" font-family="Helvetica,sans-Serif" font-size="10.00">bluetooth/power_monitoring.h</text>
</a>
</g>
</g>
<!-- Node21&#45;&gt;Node30 -->
<g id="edge56" class="edge">
<title>Node21&#45;&gt;Node30</title>
<path fill="none" stroke="#63b8ff" d="M1678.97,-170.49C1742.81,-159.94 1851.54,-141.98 1919.78,-130.7"/>
<polygon fill="#63b8ff" stroke="#63b8ff" points="1920.67,-134.1 1929.96,-129.02 1919.53,-127.19 1920.67,-134.1"/>
</g>
<!-- Node26&#45;&gt;Node13 -->
<g id="edge44" class="edge">
<title>Node26&#45;&gt;Node13</title>
<path fill="none" stroke="#63b8ff" d="M1426.21,-109.88C1409.5,-103.03 1389.46,-91.62 1379.5,-74 1367.09,-52.05 1394.18,-34.14 1419,-23.01"/>
<polygon fill="#63b8ff" stroke="#63b8ff" points="1420.46,-26.19 1428.32,-19.08 1417.74,-19.74 1420.46,-26.19"/>
</g>
<!-- Node26&#45;&gt;Node21 -->
<g id="edge50" class="edge">
<title>Node26&#45;&gt;Node21</title>
<path fill="none" stroke="#63b8ff" d="M1483.76,-129.02C1515.73,-139.03 1565.57,-155.71 1597.45,-167.02"/>
<polygon fill="#63b8ff" stroke="#63b8ff" points="1596.53,-170.41 1607.13,-170.49 1598.89,-163.82 1596.53,-170.41"/>
</g>
<!-- Node26&#45;&gt;Node23 -->
<g id="edge46" class="edge">
<title>Node26&#45;&gt;Node23</title>
<path fill="none" stroke="#63b8ff" d="M1499.77,-109.98C1553.25,-100.14 1640.77,-84.04 1694.54,-74.14"/>
<polygon fill="#63b8ff" stroke="#63b8ff" points="1695.3,-77.56 1704.5,-72.31 1694.03,-70.68 1695.3,-77.56"/>
</g>
<!-- Node26&#45;&gt;Node25 -->
<g id="edge47" class="edge">
<title>Node26&#45;&gt;Node25</title>
<path fill="none" stroke="#63b8ff" d="M1501.08,-111.34C1504.26,-110.88 1507.43,-110.43 1510.5,-110 1630.21,-93.3 1663.26,-94 1786.09,-74.14"/>
<polygon fill="#63b8ff" stroke="#63b8ff" points="1786.96,-77.54 1796.27,-72.48 1785.84,-70.63 1786.96,-77.54"/>
</g>
<!-- Node27 -->
<g id="node27" class="node">
<title>Node27</title>
<g id="a_node27"><a xlink:title=" ">
<polygon fill="#e0e0e0" stroke="#999999" points="1648,-74 1537,-74 1537,-55 1648,-55 1648,-74"/>
<text text-anchor="middle" x="1592.5" y="-62" font-family="Helvetica,sans-Serif" font-size="10.00">BLECharacteristic.h</text>
</a>
</g>
</g>
<!-- Node26&#45;&gt;Node27 -->
<g id="edge45" class="edge">
<title>Node26&#45;&gt;Node27</title>
<path fill="none" stroke="#63b8ff" d="M1475.83,-109.98C1498.7,-101.27 1534.46,-87.63 1560.36,-77.75"/>
<polygon fill="#63b8ff" stroke="#63b8ff" points="1561.66,-81 1569.76,-74.17 1559.17,-74.46 1561.66,-81"/>
</g>
<!-- Node28 -->
<g id="node28" class="node">
<title>Node28</title>
<g id="a_node28"><a xlink:href="tones_8h.html" target="_top" xlink:title="Audio control for the onboard piezo buzzer.">
<polygon fill="white" stroke="#666666" points="1519,-74 1388,-74 1388,-55 1519,-55 1519,-74"/>
<text text-anchor="middle" x="1453.5" y="-62" font-family="Helvetica,sans-Serif" font-size="10.00">audio&#45;feedback/tones.h</text>
</a>
</g>
</g>
<!-- Node26&#45;&gt;Node28 -->
<g id="edge48" class="edge">
<title>Node26&#45;&gt;Node28</title>
<path fill="none" stroke="#63b8ff" d="M1453.5,-109.75C1453.5,-102.8 1453.5,-92.85 1453.5,-84.13"/>
<polygon fill="#63b8ff" stroke="#63b8ff" points="1457,-84.09 1453.5,-74.09 1450,-84.09 1457,-84.09"/>
</g>
<!-- Node28&#45;&gt;Node13 -->
<g id="edge49" class="edge">
<title>Node28&#45;&gt;Node13</title>
<path fill="none" stroke="#63b8ff" d="M1453.5,-54.75C1453.5,-47.8 1453.5,-37.85 1453.5,-29.13"/>
<polygon fill="#63b8ff" stroke="#63b8ff" points="1457,-29.09 1453.5,-19.09 1450,-29.09 1457,-29.09"/>
</g>
<!-- Node29&#45;&gt;Node13 -->
<g id="edge52" class="edge">
<title>Node29&#45;&gt;Node13</title>
<path fill="none" stroke="#63b8ff" d="M1601.76,-109.98C1633.47,-99.27 1677.08,-79.32 1657.5,-55 1637.57,-30.25 1549.27,-18.53 1495.58,-13.6"/>
<polygon fill="#63b8ff" stroke="#63b8ff" points="1495.61,-10.09 1485.34,-12.7 1494.99,-17.06 1495.61,-10.09"/>
</g>
<!-- Node29&#45;&gt;Node23 -->
<g id="edge54" class="edge">
<title>Node29&#45;&gt;Node23</title>
<path fill="none" stroke="#63b8ff" d="M1599.65,-109.98C1628.03,-101.09 1672.73,-87.07 1704.36,-77.15"/>
<polygon fill="#63b8ff" stroke="#63b8ff" points="1705.64,-80.41 1714.13,-74.08 1703.55,-73.73 1705.64,-80.41"/>
</g>
<!-- Node29&#45;&gt;Node25 -->
<g id="edge55" class="edge">
<title>Node29&#45;&gt;Node25</title>
<path fill="none" stroke="#63b8ff" d="M1613.95,-109.98C1661.16,-100.29 1737.99,-84.5 1786.31,-74.58"/>
<polygon fill="#63b8ff" stroke="#63b8ff" points="1787.08,-77.99 1796.17,-72.55 1785.67,-71.14 1787.08,-77.99"/>
</g>
<!-- Node29&#45;&gt;Node27 -->
<g id="edge53" class="edge">
<title>Node29&#45;&gt;Node27</title>
<path fill="none" stroke="#63b8ff" d="M1575.8,-109.75C1578.48,-102.65 1582.35,-92.4 1585.69,-83.56"/>
<polygon fill="#63b8ff" stroke="#63b8ff" points="1589,-84.68 1589.26,-74.09 1582.45,-82.21 1589,-84.68"/>
</g>
<!-- Node30&#45;&gt;Node13 -->
<g id="edge57" class="edge">
<title>Node30&#45;&gt;Node13</title>
<path fill="none" stroke="#63b8ff" d="M1968.34,-109.8C1944.17,-93.99 1893.33,-61.54 1873.5,-55 1803.93,-32.06 1587.12,-17.82 1495.28,-12.68"/>
<polygon fill="#63b8ff" stroke="#63b8ff" points="1495.41,-9.18 1485.23,-12.12 1495.03,-16.17 1495.41,-9.18"/>
</g>
<!-- Node30&#45;&gt;Node23 -->
<g id="edge59" class="edge">
<title>Node30&#45;&gt;Node23</title>
<path fill="none" stroke="#63b8ff" d="M1942.94,-109.98C1900.93,-100.71 1833.72,-85.86 1788.61,-75.9"/>
<polygon fill="#63b8ff" stroke="#63b8ff" points="1789.3,-72.47 1778.78,-73.73 1787.79,-79.31 1789.3,-72.47"/>
</g>
<!-- Node30&#45;&gt;Node25 -->
<g id="edge60" class="edge">
<title>Node30&#45;&gt;Node25</title>
<path fill="none" stroke="#63b8ff" d="M1957.24,-109.98C1932.18,-101.19 1892.87,-87.39 1864.67,-77.49"/>
<polygon fill="#63b8ff" stroke="#63b8ff" points="1865.8,-74.18 1855.2,-74.17 1863.48,-80.78 1865.8,-74.18"/>
</g>
<!-- Node30&#45;&gt;Node27 -->
<g id="edge58" class="edge">
<title>Node30&#45;&gt;Node27</title>
<path fill="none" stroke="#63b8ff" d="M1919,-109.98C1847.52,-100.25 1730.99,-84.37 1658.2,-74.45"/>
<polygon fill="#63b8ff" stroke="#63b8ff" points="1658.6,-70.97 1648.22,-73.09 1657.66,-77.91 1658.6,-70.97"/>
</g>
<!-- Node31 -->
<g id="node31" class="node">
<title>Node31</title>
<g id="a_node31"><a xlink:href="solar_8h.html" target="_top" xlink:title="Solar voltage and current monitoring using INA219 IC.">
<polygon fill="white" stroke="#666666" points="2060.5,-74 1920.5,-74 1920.5,-55 2060.5,-55 2060.5,-74"/>
<text text-anchor="middle" x="1990.5" y="-62" font-family="Helvetica,sans-Serif" font-size="10.00">power_monitoring/solar.h</text>
</a>
</g>
</g>
<!-- Node30&#45;&gt;Node31 -->
<g id="edge61" class="edge">
<title>Node30&#45;&gt;Node31</title>
<path fill="none" stroke="#63b8ff" d="M1982.99,-109.75C1984.17,-102.8 1985.86,-92.85 1987.34,-84.13"/>
<polygon fill="#63b8ff" stroke="#63b8ff" points="1990.82,-84.53 1989.04,-74.09 1983.92,-83.36 1990.82,-84.53"/>
</g>
<!-- Node33 -->
<g id="node33" class="node">
<title>Node33</title>
<g id="a_node33"><a xlink:href="battery_8h.html" target="_top" xlink:title="Battery voltage and current monitoring using INA219 IC.">
<polygon fill="white" stroke="#666666" points="2230,-74 2079,-74 2079,-55 2230,-55 2230,-74"/>
<text text-anchor="middle" x="2154.5" y="-62" font-family="Helvetica,sans-Serif" font-size="10.00">power_monitoring/battery.h</text>
</a>
</g>
</g>
<!-- Node30&#45;&gt;Node33 -->
<g id="edge64" class="edge">
<title>Node30&#45;&gt;Node33</title>
<path fill="none" stroke="#63b8ff" d="M2009.3,-109.98C2038.47,-101.05 2084.5,-86.94 2116.9,-77.02"/>
<polygon fill="#63b8ff" stroke="#63b8ff" points="2117.95,-80.36 2126.49,-74.08 2115.9,-73.66 2117.95,-80.36"/>
</g>
<!-- Node31&#45;&gt;Node13 -->
<g id="edge62" class="edge">
<title>Node31&#45;&gt;Node13</title>
<path fill="none" stroke="#63b8ff" d="M1920.38,-56.39C1915.68,-55.92 1911.02,-55.45 1906.5,-55 1755.05,-39.9 1575.07,-22.33 1495.22,-14.56"/>
<polygon fill="#63b8ff" stroke="#63b8ff" points="1495.37,-11.06 1485.08,-13.57 1494.7,-18.02 1495.37,-11.06"/>
</g>
<!-- Node32 -->
<g id="node32" class="node">
<title>Node32</title>
<g id="a_node32"><a xlink:title=" ">
<polygon fill="#e0e0e0" stroke="#999999" points="2125,-19 2020,-19 2020,0 2125,0 2125,-19"/>
<text text-anchor="middle" x="2072.5" y="-7" font-family="Helvetica,sans-Serif" font-size="10.00">Adafruit_INA219.h</text>
</a>
</g>
</g>
<!-- Node31&#45;&gt;Node32 -->
<g id="edge63" class="edge">
<title>Node31&#45;&gt;Node32</title>
<path fill="none" stroke="#63b8ff" d="M2003.67,-54.98C2016.27,-46.84 2035.5,-34.41 2050.44,-24.76"/>
<polygon fill="#63b8ff" stroke="#63b8ff" points="2052.59,-27.54 2059.09,-19.17 2048.79,-21.66 2052.59,-27.54"/>
</g>
<!-- Node33&#45;&gt;Node13 -->
<g id="edge65" class="edge">
<title>Node33&#45;&gt;Node13</title>
<path fill="none" stroke="#63b8ff" d="M2078.97,-55.84C2075.77,-55.55 2072.6,-55.27 2069.5,-55 1853.82,-36.43 1595.2,-19.47 1495.52,-13.13"/>
<polygon fill="#63b8ff" stroke="#63b8ff" points="1495.46,-9.62 1485.26,-12.48 1495.02,-16.61 1495.46,-9.62"/>
</g>
<!-- Node33&#45;&gt;Node32 -->
<g id="edge66" class="edge">
<title>Node33&#45;&gt;Node32</title>
<path fill="none" stroke="#63b8ff" d="M2141.33,-54.98C2128.73,-46.84 2109.5,-34.41 2094.56,-24.76"/>
<polygon fill="#63b8ff" stroke="#63b8ff" points="2096.21,-21.66 2085.91,-19.17 2092.41,-27.54 2096.21,-21.66"/>
</g>
<!-- Node34&#45;&gt;Node3 -->
<g id="edge69" class="edge">
<title>Node34&#45;&gt;Node3</title>
<path fill="none" stroke="#63b8ff" d="M754.4,-164.84C755.99,-157.13 757.96,-147.49 759.67,-139.17"/>
<polygon fill="#63b8ff" stroke="#63b8ff" points="763.12,-139.77 761.7,-129.27 756.26,-138.36 763.12,-139.77"/>
</g>
<!-- Node34&#45;&gt;Node4 -->
<g id="edge70" class="edge">
<title>Node34&#45;&gt;Node4</title>
<path fill="none" stroke="#63b8ff" d="M681.77,-164.95C635.33,-155.54 572.68,-142.73 508.97,-129.29"/>
<polygon fill="#63b8ff" stroke="#63b8ff" points="509.66,-125.86 499.15,-127.22 508.21,-132.71 509.66,-125.86"/>
</g>
<!-- Node34&#45;&gt;Node5 -->
<g id="edge71" class="edge">
<title>Node34&#45;&gt;Node5</title>
<path fill="none" stroke="#63b8ff" d="M725.87,-164.99C708.66,-155.58 686.1,-143.24 669.1,-133.95"/>
<polygon fill="#63b8ff" stroke="#63b8ff" points="670.75,-130.87 660.3,-129.14 667.4,-137.01 670.75,-130.87"/>
</g>
<!-- Node34&#45;&gt;Node7 -->
<g id="edge72" class="edge">
<title>Node34&#45;&gt;Node7</title>
<path fill="none" stroke="#63b8ff" d="M674.15,-166.36C671.23,-165.9 668.34,-165.44 665.5,-165 584.37,-152.36 490.73,-138.55 430.17,-129.72"/>
<polygon fill="#63b8ff" stroke="#63b8ff" points="430.41,-126.22 420.01,-128.24 429.4,-133.14 430.41,-126.22"/>
</g>
<!-- Node35 -->
<g id="node35" class="node">
<title>Node35</title>
<g id="a_node35"><a xlink:href="_device_config_8h.html" target="_top" xlink:title="Node configuration options.">
<polygon fill="white" stroke="#666666" points="1174.5,-129 1084.5,-129 1084.5,-110 1174.5,-110 1174.5,-129"/>
<text text-anchor="middle" x="1129.5" y="-117" font-family="Helvetica,sans-Serif" font-size="10.00">DeviceConfig.h</text>
</a>
</g>
</g>
<!-- Node34&#45;&gt;Node35 -->
<g id="edge73" class="edge">
<title>Node34&#45;&gt;Node35</title>
<path fill="none" stroke="#63b8ff" d="M828.91,-167.02C902,-155.71 1009.78,-139.03 1074.47,-129.02"/>
<polygon fill="#63b8ff" stroke="#63b8ff" points="1075.12,-132.46 1084.47,-127.47 1074.05,-125.54 1075.12,-132.46"/>
</g>
<!-- Node35&#45;&gt;Node10 -->
<g id="edge75" class="edge">
<title>Node35&#45;&gt;Node10</title>
<path fill="none" stroke="#63b8ff" d="M1084.46,-115.85C932.69,-106.94 440.44,-78.01 279.18,-68.54"/>
<polygon fill="#63b8ff" stroke="#63b8ff" points="279.23,-65.03 269.04,-67.94 278.82,-72.02 279.23,-65.03"/>
</g>
<!-- Node35&#45;&gt;Node13 -->
<g id="edge74" class="edge">
<title>Node35&#45;&gt;Node13</title>
<path fill="none" stroke="#63b8ff" d="M1152.42,-109.93C1186.21,-97.4 1251.43,-73.54 1307.5,-55 1343.4,-43.13 1384.63,-30.67 1414.1,-21.96"/>
<polygon fill="#63b8ff" stroke="#63b8ff" points="1415.41,-25.23 1424.01,-19.05 1413.43,-18.51 1415.41,-25.23"/>
</g>
<!-- Node36&#45;&gt;Node35 -->
<g id="edge77" class="edge">
<title>Node36&#45;&gt;Node35</title>
<path fill="none" stroke="#63b8ff" d="M1293,-164.99C1255.58,-154.8 1205.59,-141.2 1170.77,-131.73"/>
<polygon fill="#63b8ff" stroke="#63b8ff" points="1171.5,-128.3 1160.94,-129.05 1169.67,-135.06 1171.5,-128.3"/>
</g>
<!-- Node37&#45;&gt;Node35 -->
<g id="edge79" class="edge">
<title>Node37&#45;&gt;Node35</title>
<path fill="none" stroke="#63b8ff" d="M1076.45,-164.84C1086.92,-156.09 1100.36,-144.85 1111.09,-135.88"/>
<polygon fill="#63b8ff" stroke="#63b8ff" points="1113.58,-138.36 1119.01,-129.27 1109.09,-132.99 1113.58,-138.36"/>
</g>
<!-- Node38&#45;&gt;Node35 -->
<g id="edge81" class="edge">
<title>Node38&#45;&gt;Node35</title>
<path fill="none" stroke="#63b8ff" d="M1182.55,-164.84C1172.08,-156.09 1158.64,-144.85 1147.91,-135.88"/>
<polygon fill="#63b8ff" stroke="#63b8ff" points="1149.91,-132.99 1139.99,-129.27 1145.42,-138.36 1149.91,-132.99"/>
</g>
</g>
</svg>
