<?xml version="1.0" encoding="UTF-8" standalone="no"?>
<!DOCTYPE svg PUBLIC "-//W3C//DTD SVG 1.1//EN"
 "http://www.w3.org/Graphics/SVG/1.1/DTD/svg11.dtd">
<!-- Generated by graphviz version 2.43.0 (0)
 -->
<!-- Title: firmware/wombat/src/cli/peripherals/sdi12.cpp Pages: 1 -->
<svg width="1342pt" height="445pt"
 viewBox="0.00 0.00 1342.28 445.00" xmlns="http://www.w3.org/2000/svg" xmlns:xlink="http://www.w3.org/1999/xlink">
<g id="graph0" class="graph" transform="scale(1 1) rotate(0) translate(4 441)">
<title>firmware/wombat/src/cli/peripherals/sdi12.cpp</title>
<!-- Node1 -->
<g id="node1" class="node">
<title>Node1</title>
<g id="a_node1"><a xlink:title="SDI&#45;12 command line interface handler.">
<polygon fill="#999999" stroke="#666666" points="823.5,-437 685.5,-437 685.5,-407 823.5,-407 823.5,-437"/>
<text text-anchor="start" x="693.5" y="-425" font-family="Helvetica,sans-Serif" font-size="10.00">firmware/wombat/src</text>
<text text-anchor="middle" x="754.5" y="-414" font-family="Helvetica,sans-Serif" font-size="10.00">/cli/peripherals/sdi12.cpp</text>
</a>
</g>
</g>
<!-- Node2 -->
<g id="node2" class="node">
<title>Node2</title>
<g id="a_node2"><a xlink:href="sdi12_8h.html" target="_top" xlink:title="SDI&#45;12 command line interface handler.">
<polygon fill="white" stroke="#666666" points="230.5,-310.5 106.5,-310.5 106.5,-291.5 230.5,-291.5 230.5,-310.5"/>
<text text-anchor="middle" x="168.5" y="-298.5" font-family="Helvetica,sans-Serif" font-size="10.00">cli/peripherals/sdi12.h</text>
</a>
</g>
</g>
<!-- Node1&#45;&gt;Node2 -->
<g id="edge1" class="edge">
<title>Node1&#45;&gt;Node2</title>
<path fill="none" stroke="#63b8ff" d="M685.56,-407C566.83,-382.89 326.34,-334.05 220.5,-312.56"/>
<polygon fill="#63b8ff" stroke="#63b8ff" points="220.88,-309.07 210.38,-310.51 219.49,-315.93 220.88,-309.07"/>
</g>
<!-- Node17 -->
<g id="node17" class="node">
<title>Node17</title>
<g id="a_node17"><a xlink:href="_sensor_task_8h.html" target="_top" xlink:title=" ">
<polygon fill="white" stroke="#666666" points="1145.5,-371 1065.5,-371 1065.5,-352 1145.5,-352 1145.5,-371"/>
<text text-anchor="middle" x="1105.5" y="-359" font-family="Helvetica,sans-Serif" font-size="10.00">SensorTask.h</text>
</a>
</g>
</g>
<!-- Node1&#45;&gt;Node17 -->
<g id="edge19" class="edge">
<title>Node1&#45;&gt;Node17</title>
<path fill="none" stroke="#63b8ff" d="M823.85,-409.44C892.03,-398.08 994.44,-381.01 1055.17,-370.89"/>
<polygon fill="#63b8ff" stroke="#63b8ff" points="1055.99,-374.3 1065.28,-369.2 1054.84,-367.4 1055.99,-374.3"/>
</g>
<!-- Node18 -->
<g id="node18" class="node">
<title>Node18</title>
<g id="a_node18"><a xlink:href="_c_l_i_8h.html" target="_top" xlink:title="FreeRTOS CLI handler.">
<polygon fill="white" stroke="#666666" points="782,-371 727,-371 727,-352 782,-352 782,-371"/>
<text text-anchor="middle" x="754.5" y="-359" font-family="Helvetica,sans-Serif" font-size="10.00">cli/CLI.h</text>
</a>
</g>
</g>
<!-- Node1&#45;&gt;Node18 -->
<g id="edge21" class="edge">
<title>Node1&#45;&gt;Node18</title>
<path fill="none" stroke="#63b8ff" d="M754.5,-406.84C754.5,-399.21 754.5,-389.7 754.5,-381.45"/>
<polygon fill="#63b8ff" stroke="#63b8ff" points="758,-381.27 754.5,-371.27 751,-381.27 758,-381.27"/>
</g>
<!-- Node2&#45;&gt;Node2 -->
<g id="edge5" class="edge">
<title>Node2&#45;&gt;Node2</title>
<path fill="none" stroke="#63b8ff" d="M198.04,-310.53C222.72,-314.61 248.5,-311.43 248.5,-301 248.5,-292 229.28,-288.4 208.15,-290.2"/>
<polygon fill="#63b8ff" stroke="#63b8ff" points="207.53,-286.75 198.04,-291.47 208.4,-293.7 207.53,-286.75"/>
</g>
<!-- Node3 -->
<g id="node3" class="node">
<title>Node3</title>
<g id="a_node3"><a xlink:title=" ">
<polygon fill="#e0e0e0" stroke="#999999" points="738,-250 625,-250 625,-231 738,-231 738,-250"/>
<text text-anchor="middle" x="681.5" y="-238" font-family="Helvetica,sans-Serif" font-size="10.00">freertos/FreeRTOS.h</text>
</a>
</g>
</g>
<!-- Node2&#45;&gt;Node3 -->
<g id="edge2" class="edge">
<title>Node2&#45;&gt;Node3</title>
<path fill="none" stroke="#63b8ff" d="M230.64,-292.91C327.86,-281.83 515.15,-260.47 615,-249.08"/>
<polygon fill="#63b8ff" stroke="#63b8ff" points="615.43,-252.56 624.97,-247.95 614.64,-245.6 615.43,-252.56"/>
</g>
<!-- Node4 -->
<g id="node4" class="node">
<title>Node4</title>
<g id="a_node4"><a xlink:title=" ">
<polygon fill="#e0e0e0" stroke="#999999" points="568,-250 507,-250 507,-231 568,-231 568,-250"/>
<text text-anchor="middle" x="537.5" y="-238" font-family="Helvetica,sans-Serif" font-size="10.00">Stream.h</text>
</a>
</g>
</g>
<!-- Node2&#45;&gt;Node4 -->
<g id="edge3" class="edge">
<title>Node2&#45;&gt;Node4</title>
<path fill="none" stroke="#63b8ff" d="M230.53,-291.68C294.67,-282.82 397.93,-267.87 497.07,-249.98"/>
<polygon fill="#63b8ff" stroke="#63b8ff" points="497.75,-253.41 506.96,-248.18 496.5,-246.53 497.75,-253.41"/>
</g>
<!-- Node5 -->
<g id="node5" class="node">
<title>Node5</title>
<g id="a_node5"><a xlink:title=" ">
<polygon fill="#e0e0e0" stroke="#999999" points="489,-250 400,-250 400,-231 489,-231 489,-250"/>
<text text-anchor="middle" x="444.5" y="-238" font-family="Helvetica,sans-Serif" font-size="10.00">StreamString.h</text>
</a>
</g>
</g>
<!-- Node2&#45;&gt;Node5 -->
<g id="edge4" class="edge">
<title>Node2&#45;&gt;Node5</title>
<path fill="none" stroke="#63b8ff" d="M208.63,-291.49C257.79,-281.07 341.09,-263.42 394.4,-252.12"/>
<polygon fill="#63b8ff" stroke="#63b8ff" points="395.26,-255.51 404.32,-250.02 393.81,-248.67 395.26,-255.51"/>
</g>
<!-- Node6 -->
<g id="node6" class="node">
<title>Node6</title>
<g id="a_node6"><a xlink:title=" ">
<polygon fill="#e0e0e0" stroke="#999999" points="93,-195 0,-195 0,-176 93,-176 93,-195"/>
<text text-anchor="middle" x="46.5" y="-183" font-family="Helvetica,sans-Serif" font-size="10.00">dpiclimate&#45;12.h</text>
</a>
</g>
</g>
<!-- Node2&#45;&gt;Node6 -->
<g id="edge6" class="edge">
<title>Node2&#45;&gt;Node6</title>
<path fill="none" stroke="#63b8ff" d="M159.33,-291.47C138.93,-272.49 89.53,-226.53 63.38,-202.21"/>
<polygon fill="#63b8ff" stroke="#63b8ff" points="65.48,-199.38 55.78,-195.13 60.71,-204.5 65.48,-199.38"/>
</g>
<!-- Node7 -->
<g id="node7" class="node">
<title>Node7</title>
<g id="a_node7"><a xlink:title=" ">
<polygon fill="#e0e0e0" stroke="#999999" points="382,-250 275,-250 275,-231 382,-231 382,-250"/>
<text text-anchor="middle" x="328.5" y="-238" font-family="Helvetica,sans-Serif" font-size="10.00">cli/FreeRTOS_CLI.h</text>
</a>
</g>
</g>
<!-- Node2&#45;&gt;Node7 -->
<g id="edge7" class="edge">
<title>Node2&#45;&gt;Node7</title>
<path fill="none" stroke="#63b8ff" d="M191.77,-291.49C219.14,-281.49 264.77,-264.8 295.72,-253.49"/>
<polygon fill="#63b8ff" stroke="#63b8ff" points="297.02,-256.74 305.21,-250.02 294.61,-250.16 297.02,-256.74"/>
</g>
<!-- Node8 -->
<g id="node8" class="node">
<title>Node8</title>
<g id="a_node8"><a xlink:href="_utils_8h.html" target="_top" xlink:title=" ">
<polygon fill="white" stroke="#666666" points="192.5,-250 144.5,-250 144.5,-231 192.5,-231 192.5,-250"/>
<text text-anchor="middle" x="168.5" y="-238" font-family="Helvetica,sans-Serif" font-size="10.00">Utils.h</text>
</a>
</g>
</g>
<!-- Node2&#45;&gt;Node8 -->
<g id="edge8" class="edge">
<title>Node2&#45;&gt;Node8</title>
<path fill="none" stroke="#63b8ff" d="M168.5,-291.37C168.5,-283.25 168.5,-270.81 168.5,-260.39"/>
<polygon fill="#63b8ff" stroke="#63b8ff" points="172,-260.17 168.5,-250.17 165,-260.17 172,-260.17"/>
</g>
<!-- Node8&#45;&gt;Node6 -->
<g id="edge11" class="edge">
<title>Node8&#45;&gt;Node6</title>
<path fill="none" stroke="#63b8ff" d="M148.9,-230.98C129.18,-222.42 98.55,-209.11 75.92,-199.28"/>
<polygon fill="#63b8ff" stroke="#63b8ff" points="77.02,-195.94 66.46,-195.17 74.24,-202.37 77.02,-195.94"/>
</g>
<!-- Node9 -->
<g id="node9" class="node">
<title>Node9</title>
<g id="a_node9"><a xlink:title=" ">
<polygon fill="#e0e0e0" stroke="#999999" points="246.5,-195 190.5,-195 190.5,-176 246.5,-176 246.5,-195"/>
<text text-anchor="middle" x="218.5" y="-183" font-family="Helvetica,sans-Serif" font-size="10.00">stddef.h</text>
</a>
</g>
</g>
<!-- Node8&#45;&gt;Node9 -->
<g id="edge9" class="edge">
<title>Node8&#45;&gt;Node9</title>
<path fill="none" stroke="#63b8ff" d="M176.76,-230.75C183.96,-223.11 194.61,-211.82 203.35,-202.56"/>
<polygon fill="#63b8ff" stroke="#63b8ff" points="206.08,-204.76 210.4,-195.09 200.99,-199.96 206.08,-204.76"/>
</g>
<!-- Node10 -->
<g id="node10" class="node">
<title>Node10</title>
<g id="a_node10"><a xlink:title=" ">
<polygon fill="#e0e0e0" stroke="#999999" points="1038,-195 955,-195 955,-176 1038,-176 1038,-195"/>
<text text-anchor="middle" x="996.5" y="-183" font-family="Helvetica,sans-Serif" font-size="10.00">ArduinoJson.h</text>
</a>
</g>
</g>
<!-- Node8&#45;&gt;Node10 -->
<g id="edge10" class="edge">
<title>Node8&#45;&gt;Node10</title>
<path fill="none" stroke="#63b8ff" d="M192.8,-237.19C212.41,-235.37 240.72,-232.84 265.5,-231 519.97,-212.11 824.72,-195.49 944.52,-189.19"/>
<polygon fill="#63b8ff" stroke="#63b8ff" points="945.05,-192.67 954.85,-188.65 944.68,-185.67 945.05,-192.67"/>
</g>
<!-- Node11 -->
<g id="node11" class="node">
<title>Node11</title>
<g id="a_node11"><a xlink:href="globals_8h.html" target="_top" xlink:title=" ">
<polygon fill="white" stroke="#666666" points="172,-195 111,-195 111,-176 172,-176 172,-195"/>
<text text-anchor="middle" x="141.5" y="-183" font-family="Helvetica,sans-Serif" font-size="10.00">globals.h</text>
</a>
</g>
</g>
<!-- Node8&#45;&gt;Node11 -->
<g id="edge12" class="edge">
<title>Node8&#45;&gt;Node11</title>
<path fill="none" stroke="#63b8ff" d="M164.04,-230.75C160.38,-223.57 155.09,-213.18 150.55,-204.27"/>
<polygon fill="#63b8ff" stroke="#63b8ff" points="153.53,-202.41 145.88,-195.09 147.3,-205.59 153.53,-202.41"/>
</g>
<!-- Node12 -->
<g id="node12" class="node">
<title>Node12</title>
<g id="a_node12"><a xlink:title=" ">
<polygon fill="#e0e0e0" stroke="#999999" points="206.5,-140 76.5,-140 76.5,-110 206.5,-110 206.5,-140"/>
<text text-anchor="start" x="84.5" y="-128" font-family="Helvetica,sans-Serif" font-size="10.00">SparkFun_u&#45;blox_SARA</text>
<text text-anchor="middle" x="141.5" y="-117" font-family="Helvetica,sans-Serif" font-size="10.00">&#45;R5_Arduino_Library.h</text>
</a>
</g>
</g>
<!-- Node11&#45;&gt;Node12 -->
<g id="edge13" class="edge">
<title>Node11&#45;&gt;Node12</title>
<path fill="none" stroke="#63b8ff" d="M141.5,-175.87C141.5,-169.11 141.5,-159.35 141.5,-150.26"/>
<polygon fill="#63b8ff" stroke="#63b8ff" points="145,-150.11 141.5,-140.11 138,-150.11 145,-150.11"/>
</g>
<!-- Node13 -->
<g id="node13" class="node">
<title>Node13</title>
<g id="a_node13"><a xlink:href="_c_a_t___m1_8h.html" target="_top" xlink:title=" ">
<polygon fill="white" stroke="#666666" points="468,-134.5 403,-134.5 403,-115.5 468,-115.5 468,-134.5"/>
<text text-anchor="middle" x="435.5" y="-122.5" font-family="Helvetica,sans-Serif" font-size="10.00">CAT_M1.h</text>
</a>
</g>
</g>
<!-- Node11&#45;&gt;Node13 -->
<g id="edge14" class="edge">
<title>Node11&#45;&gt;Node13</title>
<path fill="none" stroke="#63b8ff" d="M172.06,-177.96C175.25,-177.29 178.44,-176.63 181.5,-176 255.85,-160.78 342.63,-143.89 393.1,-134.15"/>
<polygon fill="#63b8ff" stroke="#63b8ff" points="393.83,-137.57 402.99,-132.24 392.51,-130.69 393.83,-137.57"/>
</g>
<!-- Node14 -->
<g id="node14" class="node">
<title>Node14</title>
<g id="a_node14"><a xlink:title=" ">
<polygon fill="#e0e0e0" stroke="#999999" points="490.5,-19 442.5,-19 442.5,0 490.5,0 490.5,-19"/>
<text text-anchor="middle" x="466.5" y="-7" font-family="Helvetica,sans-Serif" font-size="10.00">Wire.h</text>
</a>
</g>
</g>
<!-- Node13&#45;&gt;Node14 -->
<g id="edge15" class="edge">
<title>Node13&#45;&gt;Node14</title>
<path fill="none" stroke="#63b8ff" d="M437.83,-115.47C442.83,-97.15 454.71,-53.68 461.5,-28.81"/>
<polygon fill="#63b8ff" stroke="#63b8ff" points="464.88,-29.7 464.14,-19.13 458.13,-27.85 464.88,-29.7"/>
</g>
<!-- Node15 -->
<g id="node15" class="node">
<title>Node15</title>
<g id="a_node15"><a xlink:href="_t_c_a9534_8h.html" target="_top" xlink:title=" ">
<polygon fill="white" stroke="#666666" points="531.5,-74 463.5,-74 463.5,-55 531.5,-55 531.5,-74"/>
<text text-anchor="middle" x="497.5" y="-62" font-family="Helvetica,sans-Serif" font-size="10.00">TCA9534.h</text>
</a>
</g>
</g>
<!-- Node13&#45;&gt;Node15 -->
<g id="edge16" class="edge">
<title>Node13&#45;&gt;Node15</title>
<path fill="none" stroke="#63b8ff" d="M444.65,-115.37C454.17,-106.38 469.3,-92.11 480.93,-81.14"/>
<polygon fill="#63b8ff" stroke="#63b8ff" points="483.44,-83.58 488.31,-74.17 478.64,-78.48 483.44,-83.58"/>
</g>
<!-- Node15&#45;&gt;Node14 -->
<g id="edge18" class="edge">
<title>Node15&#45;&gt;Node14</title>
<path fill="none" stroke="#63b8ff" d="M492.38,-54.75C488.14,-47.49 481.97,-36.95 476.72,-27.98"/>
<polygon fill="#63b8ff" stroke="#63b8ff" points="479.59,-25.95 471.52,-19.09 473.55,-29.49 479.59,-25.95"/>
</g>
<!-- Node16 -->
<g id="node16" class="node">
<title>Node16</title>
<g id="a_node16"><a xlink:title=" ">
<polygon fill="#e0e0e0" stroke="#999999" points="1098,-19 1035,-19 1035,0 1098,0 1098,-19"/>
<text text-anchor="middle" x="1066.5" y="-7" font-family="Helvetica,sans-Serif" font-size="10.00">Arduino.h</text>
</a>
</g>
</g>
<!-- Node15&#45;&gt;Node16 -->
<g id="edge17" class="edge">
<title>Node15&#45;&gt;Node16</title>
<path fill="none" stroke="#63b8ff" d="M531.81,-60.3C630.87,-51.08 917.08,-24.42 1024.82,-14.38"/>
<polygon fill="#63b8ff" stroke="#63b8ff" points="1025.34,-17.85 1034.97,-13.44 1024.69,-10.88 1025.34,-17.85"/>
</g>
<!-- Node17&#45;&gt;Node10 -->
<g id="edge20" class="edge">
<title>Node17&#45;&gt;Node10</title>
<path fill="none" stroke="#63b8ff" d="M1145.61,-360.01C1217.57,-357.65 1357.2,-345.52 1313.5,-286 1281.83,-242.86 1129.51,-209.98 1048.09,-195.16"/>
<polygon fill="#63b8ff" stroke="#63b8ff" points="1048.51,-191.67 1038.05,-193.35 1047.28,-198.56 1048.51,-191.67"/>
</g>
<!-- Node18&#45;&gt;Node2 -->
<g id="edge31" class="edge">
<title>Node18&#45;&gt;Node2</title>
<path fill="none" stroke="#63b8ff" d="M726.97,-358.57C652.18,-353.2 438.99,-337.11 262.5,-316 252.67,-314.82 242.28,-313.43 232.14,-311.99"/>
<polygon fill="#63b8ff" stroke="#63b8ff" points="232.51,-308.5 222.11,-310.53 231.51,-315.43 232.51,-308.5"/>
</g>
<!-- Node18&#45;&gt;Node3 -->
<g id="edge23" class="edge">
<title>Node18&#45;&gt;Node3</title>
<path fill="none" stroke="#63b8ff" d="M754,-351.54C752.81,-336.79 748.81,-306.96 735.5,-286 727.87,-273.98 715.91,-263.64 705.18,-255.96"/>
<polygon fill="#63b8ff" stroke="#63b8ff" points="706.83,-252.85 696.58,-250.16 702.91,-258.65 706.83,-252.85"/>
</g>
<!-- Node18&#45;&gt;Node7 -->
<g id="edge24" class="edge">
<title>Node18&#45;&gt;Node7</title>
<path fill="none" stroke="#63b8ff" d="M726.84,-359.93C632.06,-357.71 324.59,-348.05 295.5,-316 280.28,-299.23 297,-274.3 311.67,-257.97"/>
<polygon fill="#63b8ff" stroke="#63b8ff" points="314.6,-259.96 318.97,-250.31 309.54,-255.14 314.6,-259.96"/>
</g>
<!-- Node18&#45;&gt;Node16 -->
<g id="edge22" class="edge">
<title>Node18&#45;&gt;Node16</title>
<path fill="none" stroke="#63b8ff" d="M782.13,-360.15C889.15,-358.57 1272.56,-350.51 1313.5,-316 1339.63,-293.98 1332.5,-275.67 1332.5,-241.5 1332.5,-241.5 1332.5,-241.5 1332.5,-124 1332.5,-27.61 1182.92,-11.96 1108.1,-10.16"/>
<polygon fill="#63b8ff" stroke="#63b8ff" points="1108.12,-6.66 1098.06,-9.99 1108,-13.66 1108.12,-6.66"/>
</g>
<!-- Node19 -->
<g id="node19" class="node">
<title>Node19</title>
<g id="a_node19"><a xlink:href="cat-m1_8h.html" target="_top" xlink:title="CAT&#45;M1 CLI command request and response handler.">
<polygon fill="white" stroke="#666666" points="554.5,-310.5 422.5,-310.5 422.5,-291.5 554.5,-291.5 554.5,-310.5"/>
<text text-anchor="middle" x="488.5" y="-298.5" font-family="Helvetica,sans-Serif" font-size="10.00">cli/peripherals/cat&#45;m1.h</text>
</a>
</g>
</g>
<!-- Node18&#45;&gt;Node19 -->
<g id="edge25" class="edge">
<title>Node18&#45;&gt;Node19</title>
<path fill="none" stroke="#63b8ff" d="M726.54,-354.35C681.58,-344.46 592.67,-324.91 537.15,-312.7"/>
<polygon fill="#63b8ff" stroke="#63b8ff" points="537.71,-309.24 527.19,-310.51 536.2,-316.08 537.71,-309.24"/>
</g>
<!-- Node20 -->
<g id="node20" class="node">
<title>Node20</title>
<g id="a_node20"><a xlink:href="cli__power_8h.html" target="_top" xlink:title=" ">
<polygon fill="white" stroke="#666666" points="404.5,-316 304.5,-316 304.5,-286 404.5,-286 404.5,-316"/>
<text text-anchor="start" x="312.5" y="-304" font-family="Helvetica,sans-Serif" font-size="10.00">cli/peripherals/cli</text>
<text text-anchor="middle" x="354.5" y="-293" font-family="Helvetica,sans-Serif" font-size="10.00">_power.h</text>
</a>
</g>
</g>
<!-- Node18&#45;&gt;Node20 -->
<g id="edge32" class="edge">
<title>Node18&#45;&gt;Node20</title>
<path fill="none" stroke="#63b8ff" d="M726.95,-357.88C670.29,-352.28 536.49,-338 414.52,-316.07"/>
<polygon fill="#63b8ff" stroke="#63b8ff" points="415.1,-312.62 404.64,-314.27 413.85,-319.5 415.1,-312.62"/>
</g>
<!-- Node21 -->
<g id="node21" class="node">
<title>Node21</title>
<g id="a_node21"><a xlink:href="sd__card_8h.html" target="_top" xlink:title=" ">
<polygon fill="white" stroke="#666666" points="882.5,-316 782.5,-316 782.5,-286 882.5,-286 882.5,-316"/>
<text text-anchor="start" x="790.5" y="-304" font-family="Helvetica,sans-Serif" font-size="10.00">cli/peripherals/sd</text>
<text text-anchor="middle" x="832.5" y="-293" font-family="Helvetica,sans-Serif" font-size="10.00">_card.h</text>
</a>
</g>
</g>
<!-- Node18&#45;&gt;Node21 -->
<g id="edge38" class="edge">
<title>Node18&#45;&gt;Node21</title>
<path fill="none" stroke="#63b8ff" d="M766.01,-351.87C776.4,-344.08 792.08,-332.32 805.6,-322.17"/>
<polygon fill="#63b8ff" stroke="#63b8ff" points="807.78,-324.91 813.68,-316.11 803.58,-319.31 807.78,-324.91"/>
</g>
<!-- Node23 -->
<g id="node23" class="node">
<title>Node23</title>
<g id="a_node23"><a xlink:href="acquisition__intervals_8h.html" target="_top" xlink:title="Handles the time between measurements and uplinks by the device over LTE.">
<polygon fill="white" stroke="#666666" points="726.5,-316 572.5,-316 572.5,-286 726.5,-286 726.5,-316"/>
<text text-anchor="start" x="580.5" y="-304" font-family="Helvetica,sans-Serif" font-size="10.00">cli/device_config/acquisition</text>
<text text-anchor="middle" x="649.5" y="-293" font-family="Helvetica,sans-Serif" font-size="10.00">_intervals.h</text>
</a>
</g>
</g>
<!-- Node18&#45;&gt;Node23 -->
<g id="edge41" class="edge">
<title>Node18&#45;&gt;Node23</title>
<path fill="none" stroke="#63b8ff" d="M739.01,-351.87C724.5,-343.78 702.31,-331.42 683.66,-321.03"/>
<polygon fill="#63b8ff" stroke="#63b8ff" points="685.27,-317.92 674.83,-316.11 681.87,-324.04 685.27,-317.92"/>
</g>
<!-- Node25 -->
<g id="node25" class="node">
<title>Node25</title>
<g id="a_node25"><a xlink:href="mqtt__cli_8h.html" target="_top" xlink:title="MQTT setup and configuration through the CLI.">
<polygon fill="white" stroke="#666666" points="1024.5,-316 900.5,-316 900.5,-286 1024.5,-286 1024.5,-316"/>
<text text-anchor="start" x="908.5" y="-304" font-family="Helvetica,sans-Serif" font-size="10.00">cli/device_config/mqtt</text>
<text text-anchor="middle" x="962.5" y="-293" font-family="Helvetica,sans-Serif" font-size="10.00">_cli.h</text>
</a>
</g>
</g>
<!-- Node18&#45;&gt;Node25 -->
<g id="edge49" class="edge">
<title>Node18&#45;&gt;Node25</title>
<path fill="none" stroke="#63b8ff" d="M782.12,-352.73C812.68,-344.14 862.86,-330.02 902.54,-318.86"/>
<polygon fill="#63b8ff" stroke="#63b8ff" points="903.71,-322.17 912.39,-316.09 901.81,-315.43 903.71,-322.17"/>
</g>
<!-- Node26 -->
<g id="node26" class="node">
<title>Node26</title>
<g id="a_node26"><a xlink:href="ftp__cli_8h.html" target="_top" xlink:title="FTP setup and configuration through the CLI.">
<polygon fill="white" stroke="#666666" points="1156,-316 1043,-316 1043,-286 1156,-286 1156,-316"/>
<text text-anchor="start" x="1051" y="-304" font-family="Helvetica,sans-Serif" font-size="10.00">cli/device_config/ftp</text>
<text text-anchor="middle" x="1099.5" y="-293" font-family="Helvetica,sans-Serif" font-size="10.00">_cli.h</text>
</a>
</g>
</g>
<!-- Node18&#45;&gt;Node26 -->
<g id="edge51" class="edge">
<title>Node18&#45;&gt;Node26</title>
<path fill="none" stroke="#63b8ff" d="M782.3,-356.54C830.9,-349.53 934.68,-334.08 1032.59,-316.11"/>
<polygon fill="#63b8ff" stroke="#63b8ff" points="1033.46,-319.51 1042.65,-314.25 1032.19,-312.63 1033.46,-319.51"/>
</g>
<!-- Node27 -->
<g id="node27" class="node">
<title>Node27</title>
<g id="a_node27"><a xlink:href="config__cli_8h.html" target="_top" xlink:title=" ">
<polygon fill="white" stroke="#666666" points="1304.5,-316 1174.5,-316 1174.5,-286 1304.5,-286 1304.5,-316"/>
<text text-anchor="start" x="1182.5" y="-304" font-family="Helvetica,sans-Serif" font-size="10.00">cli/device_config/config</text>
<text text-anchor="middle" x="1239.5" y="-293" font-family="Helvetica,sans-Serif" font-size="10.00">_cli.h</text>
</a>
</g>
</g>
<!-- Node18&#45;&gt;Node27 -->
<g id="edge53" class="edge">
<title>Node18&#45;&gt;Node27</title>
<path fill="none" stroke="#63b8ff" d="M782.01,-358.28C846.76,-352.89 1014,-338.04 1163.88,-316.17"/>
<polygon fill="#63b8ff" stroke="#63b8ff" points="1164.79,-319.57 1174.18,-314.65 1163.77,-312.64 1164.79,-319.57"/>
</g>
<!-- Node19&#45;&gt;Node3 -->
<g id="edge26" class="edge">
<title>Node19&#45;&gt;Node3</title>
<path fill="none" stroke="#63b8ff" d="M516.56,-291.49C550.01,-281.36 606.06,-264.37 643.4,-253.05"/>
<polygon fill="#63b8ff" stroke="#63b8ff" points="644.85,-256.27 653.4,-250.02 642.82,-249.57 644.85,-256.27"/>
</g>
<!-- Node19&#45;&gt;Node4 -->
<g id="edge27" class="edge">
<title>Node19&#45;&gt;Node4</title>
<path fill="none" stroke="#63b8ff" d="M495.73,-291.37C503.04,-282.64 514.52,-268.93 523.6,-258.09"/>
<polygon fill="#63b8ff" stroke="#63b8ff" points="526.5,-260.08 530.24,-250.17 521.14,-255.59 526.5,-260.08"/>
</g>
<!-- Node19&#45;&gt;Node5 -->
<g id="edge28" class="edge">
<title>Node19&#45;&gt;Node5</title>
<path fill="none" stroke="#63b8ff" d="M482.01,-291.37C475.51,-282.73 465.34,-269.2 457.22,-258.42"/>
<polygon fill="#63b8ff" stroke="#63b8ff" points="459.83,-256.06 451.02,-250.17 454.23,-260.26 459.83,-256.06"/>
</g>
<!-- Node19&#45;&gt;Node7 -->
<g id="edge29" class="edge">
<title>Node19&#45;&gt;Node7</title>
<path fill="none" stroke="#63b8ff" d="M465.23,-291.49C437.86,-281.49 392.23,-264.8 361.28,-253.49"/>
<polygon fill="#63b8ff" stroke="#63b8ff" points="362.39,-250.16 351.79,-250.02 359.98,-256.74 362.39,-250.16"/>
</g>
<!-- Node19&#45;&gt;Node13 -->
<g id="edge30" class="edge">
<title>Node19&#45;&gt;Node13</title>
<path fill="none" stroke="#63b8ff" d="M517.73,-291.48C548.66,-280.75 591.14,-260.15 576.5,-231 553.69,-185.57 500.87,-154.81 466.75,-138.86"/>
<polygon fill="#63b8ff" stroke="#63b8ff" points="467.8,-135.49 457.24,-134.57 464.92,-141.87 467.8,-135.49"/>
</g>
<!-- Node20&#45;&gt;Node3 -->
<g id="edge33" class="edge">
<title>Node20&#45;&gt;Node3</title>
<path fill="none" stroke="#63b8ff" d="M404.66,-287.85C407.65,-287.2 410.61,-286.58 413.5,-286 481.7,-272.26 560.27,-259.58 614.63,-251.3"/>
<polygon fill="#63b8ff" stroke="#63b8ff" points="615.47,-254.72 624.83,-249.76 614.42,-247.8 615.47,-254.72"/>
</g>
<!-- Node20&#45;&gt;Node4 -->
<g id="edge34" class="edge">
<title>Node20&#45;&gt;Node4</title>
<path fill="none" stroke="#63b8ff" d="M398.33,-285.99C429.64,-275.98 471.28,-262.67 500.83,-253.22"/>
<polygon fill="#63b8ff" stroke="#63b8ff" points="502.28,-256.43 510.74,-250.05 500.15,-249.76 502.28,-256.43"/>
</g>
<!-- Node20&#45;&gt;Node5 -->
<g id="edge35" class="edge">
<title>Node20&#45;&gt;Node5</title>
<path fill="none" stroke="#63b8ff" d="M376.29,-285.84C390.37,-276.68 408.63,-264.82 422.71,-255.66"/>
<polygon fill="#63b8ff" stroke="#63b8ff" points="424.8,-258.48 431.28,-250.09 420.99,-252.61 424.8,-258.48"/>
</g>
<!-- Node20&#45;&gt;Node7 -->
<g id="edge36" class="edge">
<title>Node20&#45;&gt;Node7</title>
<path fill="none" stroke="#63b8ff" d="M348.21,-285.84C344.7,-277.95 340.3,-268.05 336.55,-259.61"/>
<polygon fill="#63b8ff" stroke="#63b8ff" points="339.66,-257.98 332.4,-250.27 333.26,-260.83 339.66,-257.98"/>
</g>
<!-- Node20&#45;&gt;Node13 -->
<g id="edge37" class="edge">
<title>Node20&#45;&gt;Node13</title>
<path fill="none" stroke="#63b8ff" d="M310.13,-285.93C281.45,-274.22 251.83,-255.5 265.5,-231 293.13,-181.46 354.82,-152.37 395.79,-137.81"/>
<polygon fill="#63b8ff" stroke="#63b8ff" points="397.14,-141.05 405.47,-134.51 394.87,-134.43 397.14,-141.05"/>
</g>
<!-- Node21&#45;&gt;Node3 -->
<g id="edge39" class="edge">
<title>Node21&#45;&gt;Node3</title>
<path fill="none" stroke="#63b8ff" d="M796.33,-285.99C771.03,-276.18 737.54,-263.21 713.26,-253.81"/>
<polygon fill="#63b8ff" stroke="#63b8ff" points="714.39,-250.49 703.8,-250.14 711.86,-257.02 714.39,-250.49"/>
</g>
<!-- Node22 -->
<g id="node22" class="node">
<title>Node22</title>
<g id="a_node22"><a xlink:title=" ">
<polygon fill="#e0e0e0" stroke="#999999" points="854.5,-250 810.5,-250 810.5,-231 854.5,-231 854.5,-250"/>
<text text-anchor="middle" x="832.5" y="-238" font-family="Helvetica,sans-Serif" font-size="10.00">string</text>
</a>
</g>
</g>
<!-- Node21&#45;&gt;Node22 -->
<g id="edge40" class="edge">
<title>Node21&#45;&gt;Node22</title>
<path fill="none" stroke="#63b8ff" d="M832.5,-285.84C832.5,-278.21 832.5,-268.7 832.5,-260.45"/>
<polygon fill="#63b8ff" stroke="#63b8ff" points="836,-260.27 832.5,-250.27 829,-260.27 836,-260.27"/>
</g>
<!-- Node23&#45;&gt;Node3 -->
<g id="edge42" class="edge">
<title>Node23&#45;&gt;Node3</title>
<path fill="none" stroke="#63b8ff" d="M657.25,-285.84C661.65,-277.78 667.21,-267.62 671.9,-259.06"/>
<polygon fill="#63b8ff" stroke="#63b8ff" points="674.98,-260.72 676.7,-250.27 668.84,-257.36 674.98,-260.72"/>
</g>
<!-- Node23&#45;&gt;Node4 -->
<g id="edge43" class="edge">
<title>Node23&#45;&gt;Node4</title>
<path fill="none" stroke="#63b8ff" d="M622.67,-285.99C604.65,-276.58 581.04,-264.24 563.25,-254.95"/>
<polygon fill="#63b8ff" stroke="#63b8ff" points="564.52,-251.67 554.04,-250.14 561.28,-257.87 564.52,-251.67"/>
</g>
<!-- Node23&#45;&gt;Node5 -->
<g id="edge44" class="edge">
<title>Node23&#45;&gt;Node5</title>
<path fill="none" stroke="#63b8ff" d="M600.4,-285.99C564.87,-275.85 517.46,-262.32 484.28,-252.85"/>
<polygon fill="#63b8ff" stroke="#63b8ff" points="485.05,-249.43 474.47,-250.05 483.13,-256.16 485.05,-249.43"/>
</g>
<!-- Node23&#45;&gt;Node7 -->
<g id="edge45" class="edge">
<title>Node23&#45;&gt;Node7</title>
<path fill="none" stroke="#63b8ff" d="M572.61,-285.99C515.06,-275.5 437.6,-261.38 385.5,-251.89"/>
<polygon fill="#63b8ff" stroke="#63b8ff" points="385.9,-248.4 375.44,-250.05 384.65,-255.29 385.9,-248.4"/>
</g>
<!-- Node24 -->
<g id="node24" class="node">
<title>Node24</title>
<g id="a_node24"><a xlink:href="_device_config_8h.html" target="_top" xlink:title="Node configuration options.">
<polygon fill="white" stroke="#666666" points="1076.5,-250 986.5,-250 986.5,-231 1076.5,-231 1076.5,-250"/>
<text text-anchor="middle" x="1031.5" y="-238" font-family="Helvetica,sans-Serif" font-size="10.00">DeviceConfig.h</text>
</a>
</g>
</g>
<!-- Node23&#45;&gt;Node24 -->
<g id="edge46" class="edge">
<title>Node23&#45;&gt;Node24</title>
<path fill="none" stroke="#63b8ff" d="M726.8,-288.16C800.78,-276.83 910.55,-260.02 976.16,-249.97"/>
<polygon fill="#63b8ff" stroke="#63b8ff" points="976.95,-253.4 986.3,-248.42 975.89,-246.48 976.95,-253.4"/>
</g>
<!-- Node24&#45;&gt;Node10 -->
<g id="edge48" class="edge">
<title>Node24&#45;&gt;Node10</title>
<path fill="none" stroke="#63b8ff" d="M1025.72,-230.75C1020.88,-223.42 1013.82,-212.73 1007.86,-203.7"/>
<polygon fill="#63b8ff" stroke="#63b8ff" points="1010.6,-201.5 1002.17,-195.09 1004.76,-205.36 1010.6,-201.5"/>
</g>
<!-- Node24&#45;&gt;Node16 -->
<g id="edge47" class="edge">
<title>Node24&#45;&gt;Node16</title>
<path fill="none" stroke="#63b8ff" d="M1035.33,-230.82C1039.06,-221.99 1044.58,-207.81 1047.5,-195 1061.06,-135.46 1064.96,-62.89 1066.06,-29.26"/>
<polygon fill="#63b8ff" stroke="#63b8ff" points="1069.57,-29.17 1066.35,-19.08 1062.57,-28.98 1069.57,-29.17"/>
</g>
<!-- Node25&#45;&gt;Node24 -->
<g id="edge50" class="edge">
<title>Node25&#45;&gt;Node24</title>
<path fill="none" stroke="#63b8ff" d="M979.2,-285.84C989.53,-277.09 1002.78,-265.85 1013.36,-256.88"/>
<polygon fill="#63b8ff" stroke="#63b8ff" points="1015.8,-259.4 1021.16,-250.27 1011.27,-254.06 1015.8,-259.4"/>
</g>
<!-- Node26&#45;&gt;Node24 -->
<g id="edge52" class="edge">
<title>Node26&#45;&gt;Node24</title>
<path fill="none" stroke="#63b8ff" d="M1083.04,-285.84C1072.87,-277.09 1059.81,-265.85 1049.38,-256.88"/>
<polygon fill="#63b8ff" stroke="#63b8ff" points="1051.55,-254.13 1041.69,-250.27 1046.99,-259.44 1051.55,-254.13"/>
</g>
<!-- Node27&#45;&gt;Node24 -->
<g id="edge54" class="edge">
<title>Node27&#45;&gt;Node24</title>
<path fill="none" stroke="#63b8ff" d="M1189.68,-285.99C1153.63,-275.85 1105.52,-262.32 1071.87,-252.85"/>
<polygon fill="#63b8ff" stroke="#63b8ff" points="1072.49,-249.39 1061.91,-250.05 1070.59,-256.13 1072.49,-249.39"/>
</g>
</g>
</svg>
