<?xml version="1.0" encoding="UTF-8" standalone="no"?>
<!DOCTYPE svg PUBLIC "-//W3C//DTD SVG 1.1//EN"
 "http://www.w3.org/Graphics/SVG/1.1/DTD/svg11.dtd">
<!-- Generated by graphviz version 2.43.0 (0)
 -->
<!-- Title: firmware/wombat/include/cli/peripherals/sdi12.h Pages: 1 -->
<svg width="1134pt" height="313pt"
 viewBox="0.00 0.00 1133.50 313.00" xmlns="http://www.w3.org/2000/svg" xmlns:xlink="http://www.w3.org/1999/xlink">
<g id="graph0" class="graph" transform="scale(1 1) rotate(0) translate(4 309)">
<title>firmware/wombat/include/cli/peripherals/sdi12.h</title>
<!-- Node1 -->
<g id="node1" class="node">
<title>Node1</title>
<g id="a_node1"><a xlink:title="SDI&#45;12 command line interface handler.">
<polygon fill="#999999" stroke="#666666" points="753,-305 612,-305 612,-275 753,-275 753,-305"/>
<text text-anchor="start" x="620" y="-293" font-family="Helvetica,sans-Serif" font-size="10.00">firmware/wombat/include</text>
<text text-anchor="middle" x="682.5" y="-282" font-family="Helvetica,sans-Serif" font-size="10.00">/cli/peripherals/sdi12.h</text>
</a>
</g>
</g>
<!-- Node1&#45;&gt;Node1 -->
<g id="edge14" class="edge">
<title>Node1&#45;&gt;Node1</title>
<path fill="none" stroke="#63b8ff" d="M763.2,-298.57C768.07,-296.53 771,-293.67 771,-290 771,-284.26 763.87,-280.52 753.33,-278.77"/>
<polygon fill="#63b8ff" stroke="#63b8ff" points="762.07,-295.25 753.33,-301.23 763.89,-302.01 762.07,-295.25"/>
</g>
<!-- Node2 -->
<g id="node2" class="node">
<title>Node2</title>
<g id="a_node2"><a xlink:href="_c_l_i_8h.html" target="_top" xlink:title="FreeRTOS CLI handler.">
<polygon fill="white" stroke="#666666" points="704,-239 563,-239 563,-209 704,-209 704,-239"/>
<text text-anchor="start" x="571" y="-227" font-family="Helvetica,sans-Serif" font-size="10.00">firmware/wombat/include</text>
<text text-anchor="middle" x="633.5" y="-216" font-family="Helvetica,sans-Serif" font-size="10.00">/cli/CLI.h</text>
</a>
</g>
</g>
<!-- Node1&#45;&gt;Node2 -->
<g id="edge1" class="edge">
<title>Node1&#45;&gt;Node2</title>
<path fill="none" stroke="#63b8ff" d="M665.51,-266.81C658.49,-257.64 650.56,-247.28 644.34,-239.16"/>
<polygon fill="#63b8ff" stroke="#63b8ff" points="662.77,-268.98 671.63,-274.8 668.33,-264.73 662.77,-268.98"/>
</g>
<!-- Node10 -->
<g id="node10" class="node">
<title>Node10</title>
<g id="a_node10"><a xlink:href="sdi12_8cpp.html" target="_top" xlink:title="SDI&#45;12 command line interface handler.">
<polygon fill="white" stroke="#666666" points="1125.5,-167.5 987.5,-167.5 987.5,-137.5 1125.5,-137.5 1125.5,-167.5"/>
<text text-anchor="start" x="995.5" y="-155.5" font-family="Helvetica,sans-Serif" font-size="10.00">firmware/wombat/src</text>
<text text-anchor="middle" x="1056.5" y="-144.5" font-family="Helvetica,sans-Serif" font-size="10.00">/cli/peripherals/sdi12.cpp</text>
</a>
</g>
</g>
<!-- Node1&#45;&gt;Node10 -->
<g id="edge15" class="edge">
<title>Node1&#45;&gt;Node10</title>
<path fill="none" stroke="#63b8ff" d="M731.16,-271.37C806.27,-244.16 948.93,-192.47 1017.62,-167.59"/>
<polygon fill="#63b8ff" stroke="#63b8ff" points="729.68,-268.19 721.47,-274.88 732.06,-274.77 729.68,-268.19"/>
</g>
<!-- Node3 -->
<g id="node3" class="node">
<title>Node3</title>
<g id="a_node3"><a xlink:href="server_8h.html" target="_top" xlink:title="Handle the setup and maintenance of the BLE server and connected clients.">
<polygon fill="white" stroke="#666666" points="141,-167.5 0,-167.5 0,-137.5 141,-137.5 141,-167.5"/>
<text text-anchor="start" x="8" y="-155.5" font-family="Helvetica,sans-Serif" font-size="10.00">firmware/wombat/include</text>
<text text-anchor="middle" x="70.5" y="-144.5" font-family="Helvetica,sans-Serif" font-size="10.00">/bluetooth/server.h</text>
</a>
</g>
</g>
<!-- Node2&#45;&gt;Node3 -->
<g id="edge2" class="edge">
<title>Node2&#45;&gt;Node3</title>
<path fill="none" stroke="#63b8ff" d="M552.45,-217.99C456.12,-211.25 290.76,-197.24 150.5,-173 141.77,-171.49 132.57,-169.57 123.65,-167.52"/>
<polygon fill="#63b8ff" stroke="#63b8ff" points="552.48,-221.5 562.7,-218.7 552.96,-214.52 552.48,-221.5"/>
</g>
<!-- Node7 -->
<g id="node7" class="node">
<title>Node7</title>
<g id="a_node7"><a xlink:href="_c_l_i_8cpp.html" target="_top" xlink:title="FreeRTOS CLI handler.">
<polygon fill="white" stroke="#666666" points="279.5,-167.5 159.5,-167.5 159.5,-137.5 279.5,-137.5 279.5,-167.5"/>
<text text-anchor="start" x="167.5" y="-155.5" font-family="Helvetica,sans-Serif" font-size="10.00">firmware/wombat/src</text>
<text text-anchor="middle" x="219.5" y="-144.5" font-family="Helvetica,sans-Serif" font-size="10.00">/cli/CLI.cpp</text>
</a>
</g>
</g>
<!-- Node2&#45;&gt;Node7 -->
<g id="edge7" class="edge">
<title>Node2&#45;&gt;Node7</title>
<path fill="none" stroke="#63b8ff" d="M552.87,-214.36C482.61,-206.1 378.21,-192.09 288.5,-173 281.19,-171.45 273.52,-169.55 266.06,-167.55"/>
<polygon fill="#63b8ff" stroke="#63b8ff" points="552.64,-217.85 562.98,-215.53 553.45,-210.9 552.64,-217.85"/>
</g>
<!-- Node8 -->
<g id="node8" class="node">
<title>Node8</title>
<g id="a_node8"><a xlink:href="cat-m1_8cpp.html" target="_top" xlink:title="CAT&#45;M1 CLI command request and response handler.">
<polygon fill="white" stroke="#666666" points="417.5,-173 297.5,-173 297.5,-132 417.5,-132 417.5,-173"/>
<text text-anchor="start" x="305.5" y="-161" font-family="Helvetica,sans-Serif" font-size="10.00">firmware/wombat/src</text>
<text text-anchor="start" x="305.5" y="-150" font-family="Helvetica,sans-Serif" font-size="10.00">/cli/peripherals/cat</text>
<text text-anchor="middle" x="357.5" y="-139" font-family="Helvetica,sans-Serif" font-size="10.00">&#45;m1.cpp</text>
</a>
</g>
</g>
<!-- Node2&#45;&gt;Node8 -->
<g id="edge8" class="edge">
<title>Node2&#45;&gt;Node8</title>
<path fill="none" stroke="#63b8ff" d="M562.72,-206.61C522.65,-197.16 471.67,-184.83 426.5,-173 423.61,-172.24 420.66,-171.46 417.67,-170.65"/>
<polygon fill="#63b8ff" stroke="#63b8ff" points="562.12,-210.07 572.66,-208.95 563.73,-203.26 562.12,-210.07"/>
</g>
<!-- Node9 -->
<g id="node9" class="node">
<title>Node9</title>
<g id="a_node9"><a xlink:href="sd__card_8cpp.html" target="_top" xlink:title=" ">
<polygon fill="white" stroke="#666666" points="555.5,-173 435.5,-173 435.5,-132 555.5,-132 555.5,-173"/>
<text text-anchor="start" x="443.5" y="-161" font-family="Helvetica,sans-Serif" font-size="10.00">firmware/wombat/src</text>
<text text-anchor="start" x="443.5" y="-150" font-family="Helvetica,sans-Serif" font-size="10.00">/cli/peripherals/sd</text>
<text text-anchor="middle" x="495.5" y="-139" font-family="Helvetica,sans-Serif" font-size="10.00">_card.cpp</text>
</a>
</g>
</g>
<!-- Node2&#45;&gt;Node9 -->
<g id="edge9" class="edge">
<title>Node2&#45;&gt;Node9</title>
<path fill="none" stroke="#63b8ff" d="M596.52,-204.38C577.31,-194.7 553.84,-182.88 534.37,-173.07"/>
<polygon fill="#63b8ff" stroke="#63b8ff" points="595.07,-207.56 605.57,-208.94 598.22,-201.31 595.07,-207.56"/>
</g>
<!-- Node2&#45;&gt;Node10 -->
<g id="edge10" class="edge">
<title>Node2&#45;&gt;Node10</title>
<path fill="none" stroke="#63b8ff" d="M714.32,-213.63C784.49,-204.94 888.65,-190.69 978.5,-173 986.58,-171.41 995.08,-169.52 1003.37,-167.54"/>
<polygon fill="#63b8ff" stroke="#63b8ff" points="713.72,-210.18 704.22,-214.87 714.58,-217.13 713.72,-210.18"/>
</g>
<!-- Node11 -->
<g id="node11" class="node">
<title>Node11</title>
<g id="a_node11"><a xlink:href="ftp__stack_8cpp.html" target="_top" xlink:title=" ">
<polygon fill="white" stroke="#666666" points="693.5,-167.5 573.5,-167.5 573.5,-137.5 693.5,-137.5 693.5,-167.5"/>
<text text-anchor="start" x="581.5" y="-155.5" font-family="Helvetica,sans-Serif" font-size="10.00">firmware/wombat/src</text>
<text text-anchor="middle" x="633.5" y="-144.5" font-family="Helvetica,sans-Serif" font-size="10.00">/ftp_stack.cpp</text>
</a>
</g>
</g>
<!-- Node2&#45;&gt;Node11 -->
<g id="edge11" class="edge">
<title>Node2&#45;&gt;Node11</title>
<path fill="none" stroke="#63b8ff" d="M633.5,-198.75C633.5,-188.31 633.5,-176.49 633.5,-167.54"/>
<polygon fill="#63b8ff" stroke="#63b8ff" points="630,-198.94 633.5,-208.94 637,-198.94 630,-198.94"/>
</g>
<!-- Node12 -->
<g id="node12" class="node">
<title>Node12</title>
<g id="a_node12"><a xlink:href="main_8cpp.html" target="_top" xlink:title=" ">
<polygon fill="white" stroke="#666666" points="831.5,-167.5 711.5,-167.5 711.5,-137.5 831.5,-137.5 831.5,-167.5"/>
<text text-anchor="start" x="719.5" y="-155.5" font-family="Helvetica,sans-Serif" font-size="10.00">firmware/wombat/src</text>
<text text-anchor="middle" x="771.5" y="-144.5" font-family="Helvetica,sans-Serif" font-size="10.00">/main.cpp</text>
</a>
</g>
</g>
<!-- Node2&#45;&gt;Node12 -->
<g id="edge12" class="edge">
<title>Node2&#45;&gt;Node12</title>
<path fill="none" stroke="#63b8ff" d="M670.54,-204.34C693.53,-192.77 722.58,-178.14 743.62,-167.54"/>
<polygon fill="#63b8ff" stroke="#63b8ff" points="668.78,-201.31 661.43,-208.94 671.93,-207.56 668.78,-201.31"/>
</g>
<!-- Node13 -->
<g id="node13" class="node">
<title>Node13</title>
<g id="a_node13"><a xlink:href="mqtt__stack_8cpp.html" target="_top" xlink:title=" ">
<polygon fill="white" stroke="#666666" points="969.5,-167.5 849.5,-167.5 849.5,-137.5 969.5,-137.5 969.5,-167.5"/>
<text text-anchor="start" x="857.5" y="-155.5" font-family="Helvetica,sans-Serif" font-size="10.00">firmware/wombat/src</text>
<text text-anchor="middle" x="909.5" y="-144.5" font-family="Helvetica,sans-Serif" font-size="10.00">/mqtt_stack.cpp</text>
</a>
</g>
</g>
<!-- Node2&#45;&gt;Node13 -->
<g id="edge13" class="edge">
<title>Node2&#45;&gt;Node13</title>
<path fill="none" stroke="#63b8ff" d="M704.28,-206.61C744.35,-197.16 795.33,-184.83 840.5,-173 847,-171.3 853.83,-169.44 860.56,-167.58"/>
<polygon fill="#63b8ff" stroke="#63b8ff" points="703.27,-203.26 694.34,-208.95 704.88,-210.07 703.27,-203.26"/>
</g>
<!-- Node4 -->
<g id="node4" class="node">
<title>Node4</title>
<g id="a_node4"><a xlink:href="uart_8h.html" target="_top" xlink:title="BluetoothLE UART service setup and handling.">
<polygon fill="white" stroke="#666666" points="141,-96 0,-96 0,-66 141,-66 141,-96"/>
<text text-anchor="start" x="8" y="-84" font-family="Helvetica,sans-Serif" font-size="10.00">firmware/wombat/include</text>
<text text-anchor="middle" x="70.5" y="-73" font-family="Helvetica,sans-Serif" font-size="10.00">/bluetooth/uart.h</text>
</a>
</g>
</g>
<!-- Node3&#45;&gt;Node4 -->
<g id="edge3" class="edge">
<title>Node3&#45;&gt;Node4</title>
<path fill="none" stroke="#63b8ff" d="M64.03,-127.25C63.46,-116.81 63.76,-104.99 64.95,-96.04"/>
<polygon fill="#63b8ff" stroke="#63b8ff" points="60.57,-127.79 64.95,-137.44 67.54,-127.16 60.57,-127.79"/>
</g>
<!-- Node6 -->
<g id="node6" class="node">
<title>Node6</title>
<g id="a_node6"><a xlink:href="server_8cpp.html" target="_top" xlink:title="Setup and start BluetoothLE server.">
<polygon fill="white" stroke="#666666" points="279.5,-96 159.5,-96 159.5,-66 279.5,-66 279.5,-96"/>
<text text-anchor="start" x="167.5" y="-84" font-family="Helvetica,sans-Serif" font-size="10.00">firmware/wombat/src</text>
<text text-anchor="middle" x="219.5" y="-73" font-family="Helvetica,sans-Serif" font-size="10.00">/bluetooth/server.cpp</text>
</a>
</g>
</g>
<!-- Node3&#45;&gt;Node6 -->
<g id="edge6" class="edge">
<title>Node3&#45;&gt;Node6</title>
<path fill="none" stroke="#63b8ff" d="M109.84,-133.15C134.75,-121.53 166.48,-106.73 189.39,-96.04"/>
<polygon fill="#63b8ff" stroke="#63b8ff" points="108.24,-130.04 100.65,-137.44 111.19,-136.38 108.24,-130.04"/>
</g>
<!-- Node4&#45;&gt;Node3 -->
<g id="edge4" class="edge">
<title>Node4&#45;&gt;Node3</title>
<path fill="none" stroke="#63b8ff" d="M76.97,-106.23C77.54,-116.66 77.24,-128.49 76.05,-137.44"/>
<polygon fill="#63b8ff" stroke="#63b8ff" points="80.43,-105.69 76.05,-96.04 73.46,-106.32 80.43,-105.69"/>
</g>
<!-- Node5 -->
<g id="node5" class="node">
<title>Node5</title>
<g id="a_node5"><a xlink:href="uart_8cpp.html" target="_top" xlink:title="BluetoothLE UART service setup and handling.">
<polygon fill="white" stroke="#666666" points="130.5,-30 10.5,-30 10.5,0 130.5,0 130.5,-30"/>
<text text-anchor="start" x="18.5" y="-18" font-family="Helvetica,sans-Serif" font-size="10.00">firmware/wombat/src</text>
<text text-anchor="middle" x="70.5" y="-7" font-family="Helvetica,sans-Serif" font-size="10.00">/bluetooth/uart.cpp</text>
</a>
</g>
</g>
<!-- Node4&#45;&gt;Node5 -->
<g id="edge5" class="edge">
<title>Node4&#45;&gt;Node5</title>
<path fill="none" stroke="#63b8ff" d="M70.5,-55.54C70.5,-46.96 70.5,-37.61 70.5,-30.16"/>
<polygon fill="#63b8ff" stroke="#63b8ff" points="67,-55.8 70.5,-65.8 74,-55.8 67,-55.8"/>
</g>
</g>
</svg>
