<?xml version="1.0" encoding="UTF-8" standalone="no"?>
<!DOCTYPE svg PUBLIC "-//W3C//DTD SVG 1.1//EN"
 "http://www.w3.org/Graphics/SVG/1.1/DTD/svg11.dtd">
<!-- Generated by graphviz version 2.43.0 (0)
 -->
<!-- Title: firmware/wombat/src/cli/peripherals/sdi12.cpp Pages: 1 -->
<svg width="2130pt" height="324pt"
 viewBox="0.00 0.00 2130.00 324.00" xmlns="http://www.w3.org/2000/svg" xmlns:xlink="http://www.w3.org/1999/xlink">
<g id="graph0" class="graph" transform="scale(1 1) rotate(0) translate(4 320)">
<title>firmware/wombat/src/cli/peripherals/sdi12.cpp</title>
<!-- Node1 -->
<g id="node1" class="node">
<title>Node1</title>
<g id="a_node1"><a xlink:title="SDI&#45;12 command line interface handler.">
<polygon fill="#999999" stroke="#666666" points="807.5,-316 669.5,-316 669.5,-286 807.5,-286 807.5,-316"/>
<text text-anchor="start" x="677.5" y="-304" font-family="Helvetica,sans-Serif" font-size="10.00">firmware/wombat/src</text>
<text text-anchor="middle" x="738.5" y="-293" font-family="Helvetica,sans-Serif" font-size="10.00">/cli/peripherals/sdi12.cpp</text>
</a>
</g>
</g>
<!-- Node2 -->
<g id="node2" class="node">
<title>Node2</title>
<g id="a_node2"><a xlink:href="sdi12_8h.html" target="_top" xlink:title="SDI&#45;12 command line interface handler.">
<polygon fill="white" stroke="#666666" points="267.5,-189.5 143.5,-189.5 143.5,-170.5 267.5,-170.5 267.5,-189.5"/>
<text text-anchor="middle" x="205.5" y="-177.5" font-family="Helvetica,sans-Serif" font-size="10.00">cli/peripherals/sdi12.h</text>
</a>
</g>
</g>
<!-- Node1&#45;&gt;Node2 -->
<g id="edge1" class="edge">
<title>Node1&#45;&gt;Node2</title>
<path fill="none" stroke="#63b8ff" d="M675.79,-286C568.02,-261.94 349.95,-213.25 253.38,-191.69"/>
<polygon fill="#63b8ff" stroke="#63b8ff" points="254.12,-188.27 243.6,-189.51 252.59,-195.1 254.12,-188.27"/>
</g>
<!-- Node11 -->
<g id="node11" class="node">
<title>Node11</title>
<g id="a_node11"><a xlink:href="_sensor_task_8h.html" target="_top" xlink:title=" ">
<polygon fill="white" stroke="#666666" points="1056.5,-250 976.5,-250 976.5,-231 1056.5,-231 1056.5,-250"/>
<text text-anchor="middle" x="1016.5" y="-238" font-family="Helvetica,sans-Serif" font-size="10.00">SensorTask.h</text>
</a>
</g>
</g>
<!-- Node1&#45;&gt;Node11 -->
<g id="edge12" class="edge">
<title>Node1&#45;&gt;Node11</title>
<path fill="none" stroke="#63b8ff" d="M805.09,-285.99C854.67,-275.55 921.3,-261.53 966.41,-252.04"/>
<polygon fill="#63b8ff" stroke="#63b8ff" points="967.19,-255.45 976.26,-249.97 965.75,-248.6 967.19,-255.45"/>
</g>
<!-- Node13 -->
<g id="node13" class="node">
<title>Node13</title>
<g id="a_node13"><a xlink:href="_c_l_i_8h.html" target="_top" xlink:title="FreeRTOS CLI handler.">
<polygon fill="white" stroke="#666666" points="766,-250 711,-250 711,-231 766,-231 766,-250"/>
<text text-anchor="middle" x="738.5" y="-238" font-family="Helvetica,sans-Serif" font-size="10.00">cli/CLI.h</text>
</a>
</g>
</g>
<!-- Node1&#45;&gt;Node13 -->
<g id="edge14" class="edge">
<title>Node1&#45;&gt;Node13</title>
<path fill="none" stroke="#63b8ff" d="M738.5,-285.84C738.5,-278.21 738.5,-268.7 738.5,-260.45"/>
<polygon fill="#63b8ff" stroke="#63b8ff" points="742,-260.27 738.5,-250.27 735,-260.27 742,-260.27"/>
</g>
<!-- Node2&#45;&gt;Node2 -->
<g id="edge5" class="edge">
<title>Node2&#45;&gt;Node2</title>
<path fill="none" stroke="#63b8ff" d="M235.04,-189.53C259.72,-193.61 285.5,-190.43 285.5,-180 285.5,-171 266.28,-167.4 245.15,-169.2"/>
<polygon fill="#63b8ff" stroke="#63b8ff" points="244.53,-165.75 235.04,-170.47 245.4,-172.7 244.53,-165.75"/>
</g>
<!-- Node3 -->
<g id="node3" class="node">
<title>Node3</title>
<g id="a_node3"><a xlink:title=" ">
<polygon fill="#e0e0e0" stroke="#999999" points="347,-129 234,-129 234,-110 347,-110 347,-129"/>
<text text-anchor="middle" x="290.5" y="-117" font-family="Helvetica,sans-Serif" font-size="10.00">freertos/FreeRTOS.h</text>
</a>
</g>
</g>
<!-- Node2&#45;&gt;Node3 -->
<g id="edge2" class="edge">
<title>Node2&#45;&gt;Node3</title>
<path fill="none" stroke="#63b8ff" d="M218.04,-170.37C231.6,-161.04 253.44,-146.01 269.6,-134.88"/>
<polygon fill="#63b8ff" stroke="#63b8ff" points="271.65,-137.72 277.91,-129.17 267.68,-131.95 271.65,-137.72"/>
</g>
<!-- Node4 -->
<g id="node4" class="node">
<title>Node4</title>
<g id="a_node4"><a xlink:title=" ">
<polygon fill="#e0e0e0" stroke="#999999" points="533,-129 472,-129 472,-110 533,-110 533,-129"/>
<text text-anchor="middle" x="502.5" y="-117" font-family="Helvetica,sans-Serif" font-size="10.00">Stream.h</text>
</a>
</g>
</g>
<!-- Node2&#45;&gt;Node4 -->
<g id="edge3" class="edge">
<title>Node2&#45;&gt;Node4</title>
<path fill="none" stroke="#63b8ff" d="M251.24,-170.47C300.74,-161.16 382.28,-145.61 461.68,-129.34"/>
<polygon fill="#63b8ff" stroke="#63b8ff" points="462.77,-132.69 471.86,-127.25 461.36,-125.83 462.77,-132.69"/>
</g>
<!-- Node5 -->
<g id="node5" class="node">
<title>Node5</title>
<g id="a_node5"><a xlink:title=" ">
<polygon fill="#e0e0e0" stroke="#999999" points="454,-129 365,-129 365,-110 454,-110 454,-129"/>
<text text-anchor="middle" x="409.5" y="-117" font-family="Helvetica,sans-Serif" font-size="10.00">StreamString.h</text>
</a>
</g>
</g>
<!-- Node2&#45;&gt;Node5 -->
<g id="edge4" class="edge">
<title>Node2&#45;&gt;Node5</title>
<path fill="none" stroke="#63b8ff" d="M235.16,-170.49C270.74,-160.29 330.52,-143.15 369.98,-131.83"/>
<polygon fill="#63b8ff" stroke="#63b8ff" points="371.15,-135.14 379.8,-129.02 369.22,-128.41 371.15,-135.14"/>
</g>
<!-- Node6 -->
<g id="node6" class="node">
<title>Node6</title>
<g id="a_node6"><a xlink:title=" ">
<polygon fill="#e0e0e0" stroke="#999999" points="269,-74 176,-74 176,-55 269,-55 269,-74"/>
<text text-anchor="middle" x="222.5" y="-62" font-family="Helvetica,sans-Serif" font-size="10.00">dpiclimate&#45;12.h</text>
</a>
</g>
</g>
<!-- Node2&#45;&gt;Node6 -->
<g id="edge6" class="edge">
<title>Node2&#45;&gt;Node6</title>
<path fill="none" stroke="#63b8ff" d="M206.78,-170.47C209.51,-152.23 215.97,-109.07 219.71,-84.14"/>
<polygon fill="#63b8ff" stroke="#63b8ff" points="223.19,-84.54 221.21,-74.13 216.26,-83.5 223.19,-84.54"/>
</g>
<!-- Node7 -->
<g id="node7" class="node">
<title>Node7</title>
<g id="a_node7"><a xlink:title=" ">
<polygon fill="#e0e0e0" stroke="#999999" points="741,-129 634,-129 634,-110 741,-110 741,-129"/>
<text text-anchor="middle" x="687.5" y="-117" font-family="Helvetica,sans-Serif" font-size="10.00">cli/FreeRTOS_CLI.h</text>
</a>
</g>
</g>
<!-- Node2&#45;&gt;Node7 -->
<g id="edge7" class="edge">
<title>Node2&#45;&gt;Node7</title>
<path fill="none" stroke="#63b8ff" d="M267.81,-171.93C347.85,-162.77 491.36,-146.09 623.82,-129.2"/>
<polygon fill="#63b8ff" stroke="#63b8ff" points="624.26,-132.67 633.74,-127.93 623.38,-125.73 624.26,-132.67"/>
</g>
<!-- Node8 -->
<g id="node8" class="node">
<title>Node8</title>
<g id="a_node8"><a xlink:href="_utils_8h.html" target="_top" xlink:title=" ">
<polygon fill="white" stroke="#666666" points="170.5,-129 122.5,-129 122.5,-110 170.5,-110 170.5,-129"/>
<text text-anchor="middle" x="146.5" y="-117" font-family="Helvetica,sans-Serif" font-size="10.00">Utils.h</text>
</a>
</g>
</g>
<!-- Node2&#45;&gt;Node8 -->
<g id="edge8" class="edge">
<title>Node2&#45;&gt;Node8</title>
<path fill="none" stroke="#63b8ff" d="M196.79,-170.37C187.82,-161.47 173.62,-147.39 162.59,-136.45"/>
<polygon fill="#63b8ff" stroke="#63b8ff" points="164.81,-133.72 155.24,-129.17 159.88,-138.69 164.81,-133.72"/>
</g>
<!-- Node8&#45;&gt;Node6 -->
<g id="edge11" class="edge">
<title>Node8&#45;&gt;Node6</title>
<path fill="none" stroke="#63b8ff" d="M158.71,-109.98C170.28,-101.92 187.88,-89.65 201.66,-80.03"/>
<polygon fill="#63b8ff" stroke="#63b8ff" points="203.87,-82.76 210.07,-74.17 199.86,-77.02 203.87,-82.76"/>
</g>
<!-- Node9 -->
<g id="node9" class="node">
<title>Node9</title>
<g id="a_node9"><a xlink:title=" ">
<polygon fill="#e0e0e0" stroke="#999999" points="157.5,-74 101.5,-74 101.5,-55 157.5,-55 157.5,-74"/>
<text text-anchor="middle" x="129.5" y="-62" font-family="Helvetica,sans-Serif" font-size="10.00">stddef.h</text>
</a>
</g>
</g>
<!-- Node8&#45;&gt;Node9 -->
<g id="edge9" class="edge">
<title>Node8&#45;&gt;Node9</title>
<path fill="none" stroke="#63b8ff" d="M143.69,-109.75C141.44,-102.72 138.2,-92.62 135.38,-83.84"/>
<polygon fill="#63b8ff" stroke="#63b8ff" points="138.64,-82.54 132.25,-74.09 131.98,-84.68 138.64,-82.54"/>
</g>
<!-- Node10 -->
<g id="node10" class="node">
<title>Node10</title>
<g id="a_node10"><a xlink:title=" ">
<polygon fill="#e0e0e0" stroke="#999999" points="83,-74 0,-74 0,-55 83,-55 83,-74"/>
<text text-anchor="middle" x="41.5" y="-62" font-family="Helvetica,sans-Serif" font-size="10.00">ArduinoJson.h</text>
</a>
</g>
</g>
<!-- Node8&#45;&gt;Node10 -->
<g id="edge10" class="edge">
<title>Node8&#45;&gt;Node10</title>
<path fill="none" stroke="#63b8ff" d="M129.63,-109.98C112.89,-101.54 87,-88.47 67.61,-78.68"/>
<polygon fill="#63b8ff" stroke="#63b8ff" points="69.18,-75.55 58.68,-74.17 66.03,-81.8 69.18,-75.55"/>
</g>
<!-- Node12 -->
<g id="node12" class="node">
<title>Node12</title>
<g id="a_node12"><a xlink:title=" ">
<polygon fill="#e0e0e0" stroke="#999999" points="1223,-74 1136,-74 1136,-55 1223,-55 1223,-74"/>
<text text-anchor="middle" x="1179.5" y="-62" font-family="Helvetica,sans-Serif" font-size="10.00">ArduinoJSON.h</text>
</a>
</g>
</g>
<!-- Node11&#45;&gt;Node12 -->
<g id="edge13" class="edge">
<title>Node11&#45;&gt;Node12</title>
<path fill="none" stroke="#63b8ff" d="M1056.74,-233.06C1081.8,-227.12 1113.06,-215.9 1133.5,-195 1163.72,-164.11 1174.2,-112.1 1177.75,-84.33"/>
<polygon fill="#63b8ff" stroke="#63b8ff" points="1181.27,-84.36 1178.88,-74.04 1174.31,-83.59 1181.27,-84.36"/>
</g>
<!-- Node13&#45;&gt;Node2 -->
<g id="edge28" class="edge">
<title>Node13&#45;&gt;Node2</title>
<path fill="none" stroke="#63b8ff" d="M710.97,-237.16C641.72,-231.18 454.76,-214.42 299.5,-195 289.8,-193.79 279.55,-192.39 269.54,-190.95"/>
<polygon fill="#63b8ff" stroke="#63b8ff" points="270.02,-187.48 259.62,-189.5 269.01,-194.41 270.02,-187.48"/>
</g>
<!-- Node13&#45;&gt;Node3 -->
<g id="edge16" class="edge">
<title>Node13&#45;&gt;Node3</title>
<path fill="none" stroke="#63b8ff" d="M710.78,-239.68C629.7,-239.71 394.86,-236.15 332.5,-195 312.8,-182 301.37,-156.41 295.53,-138.88"/>
<polygon fill="#63b8ff" stroke="#63b8ff" points="298.85,-137.75 292.6,-129.2 292.15,-139.78 298.85,-137.75"/>
</g>
<!-- Node13&#45;&gt;Node7 -->
<g id="edge17" class="edge">
<title>Node13&#45;&gt;Node7</title>
<path fill="none" stroke="#63b8ff" d="M747.81,-230.91C762.04,-216.7 786.19,-187.62 772.5,-165 763.36,-149.89 747.21,-139.67 731.43,-132.87"/>
<polygon fill="#63b8ff" stroke="#63b8ff" points="732.31,-129.46 721.72,-129.07 729.76,-135.97 732.31,-129.46"/>
</g>
<!-- Node14 -->
<g id="node14" class="node">
<title>Node14</title>
<g id="a_node14"><a xlink:title=" ">
<polygon fill="#e0e0e0" stroke="#999999" points="1469,-19 1406,-19 1406,0 1469,0 1469,-19"/>
<text text-anchor="middle" x="1437.5" y="-7" font-family="Helvetica,sans-Serif" font-size="10.00">Arduino.h</text>
</a>
</g>
</g>
<!-- Node13&#45;&gt;Node14 -->
<g id="edge15" class="edge">
<title>Node13&#45;&gt;Node14</title>
<path fill="none" stroke="#63b8ff" d="M766.15,-237.95C846.54,-233.21 1076.12,-217.77 1100.5,-195 1146.81,-151.75 1081.63,-98.72 1127.5,-55 1165.23,-19.04 1320.33,-11.98 1395.83,-10.71"/>
<polygon fill="#63b8ff" stroke="#63b8ff" points="1395.99,-14.2 1405.93,-10.56 1395.89,-7.2 1395.99,-14.2"/>
</g>
<!-- Node15 -->
<g id="node15" class="node">
<title>Node15</title>
<g id="a_node15"><a xlink:href="cat-m1_8h.html" target="_top" xlink:title="CAT&#45;M1 CLI command request and response handler.">
<polygon fill="white" stroke="#666666" points="591.5,-189.5 459.5,-189.5 459.5,-170.5 591.5,-170.5 591.5,-189.5"/>
<text text-anchor="middle" x="525.5" y="-177.5" font-family="Helvetica,sans-Serif" font-size="10.00">cli/peripherals/cat&#45;m1.h</text>
</a>
</g>
</g>
<!-- Node13&#45;&gt;Node15 -->
<g id="edge18" class="edge">
<title>Node13&#45;&gt;Node15</title>
<path fill="none" stroke="#63b8ff" d="M710.65,-231.85C673.8,-221.73 608.56,-203.81 566.19,-192.17"/>
<polygon fill="#63b8ff" stroke="#63b8ff" points="567.03,-188.78 556.46,-189.5 565.18,-195.53 567.03,-188.78"/>
</g>
<!-- Node19 -->
<g id="node19" class="node">
<title>Node19</title>
<g id="a_node19"><a xlink:href="cli__power_8h.html" target="_top" xlink:title=" ">
<polygon fill="white" stroke="#666666" points="441.5,-195 341.5,-195 341.5,-165 441.5,-165 441.5,-195"/>
<text text-anchor="start" x="349.5" y="-183" font-family="Helvetica,sans-Serif" font-size="10.00">cli/peripherals/cli</text>
<text text-anchor="middle" x="391.5" y="-172" font-family="Helvetica,sans-Serif" font-size="10.00">_power.h</text>
</a>
</g>
</g>
<!-- Node13&#45;&gt;Node19 -->
<g id="edge29" class="edge">
<title>Node13&#45;&gt;Node19</title>
<path fill="none" stroke="#63b8ff" d="M710.97,-235.99C661.23,-229.49 552.87,-214.6 451.73,-195.15"/>
<polygon fill="#63b8ff" stroke="#63b8ff" points="452.14,-191.66 441.65,-193.19 450.8,-198.53 452.14,-191.66"/>
</g>
<!-- Node20 -->
<g id="node20" class="node">
<title>Node20</title>
<g id="a_node20"><a xlink:href="sd__card_8h.html" target="_top" xlink:title=" ">
<polygon fill="white" stroke="#666666" points="125.5,-195 25.5,-195 25.5,-165 125.5,-165 125.5,-195"/>
<text text-anchor="start" x="33.5" y="-183" font-family="Helvetica,sans-Serif" font-size="10.00">cli/peripherals/sd</text>
<text text-anchor="middle" x="75.5" y="-172" font-family="Helvetica,sans-Serif" font-size="10.00">_card.h</text>
</a>
</g>
</g>
<!-- Node13&#45;&gt;Node20 -->
<g id="edge35" class="edge">
<title>Node13&#45;&gt;Node20</title>
<path fill="none" stroke="#63b8ff" d="M710.93,-239.03C626.34,-237.26 362.93,-229.31 135.71,-195.01"/>
<polygon fill="#63b8ff" stroke="#63b8ff" points="136.02,-191.52 125.6,-193.46 134.96,-198.44 136.02,-191.52"/>
</g>
<!-- Node22 -->
<g id="node22" class="node">
<title>Node22</title>
<g id="a_node22"><a xlink:href="server_8h.html" target="_top" xlink:title="Handle the setup and maintenance of the BLE server and connected clients.">
<polygon fill="white" stroke="#666666" points="1469,-189.5 1364,-189.5 1364,-170.5 1469,-170.5 1469,-189.5"/>
<text text-anchor="middle" x="1416.5" y="-177.5" font-family="Helvetica,sans-Serif" font-size="10.00">bluetooth/server.h</text>
</a>
</g>
</g>
<!-- Node13&#45;&gt;Node22 -->
<g id="edge38" class="edge">
<title>Node13&#45;&gt;Node22</title>
<path fill="none" stroke="#63b8ff" d="M766.36,-236.83C866.77,-227.77 1210.78,-198.06 1353.63,-186.08"/>
<polygon fill="#63b8ff" stroke="#63b8ff" points="1354.3,-189.54 1363.97,-185.21 1353.71,-182.56 1354.3,-189.54"/>
</g>
<!-- Node35 -->
<g id="node35" class="node">
<title>Node35</title>
<g id="a_node35"><a xlink:href="acquisition__intervals_8h.html" target="_top" xlink:title="Handles the time between measurements and uplinks by the device over LTE.">
<polygon fill="white" stroke="#666666" points="763.5,-195 609.5,-195 609.5,-165 763.5,-165 763.5,-195"/>
<text text-anchor="start" x="617.5" y="-183" font-family="Helvetica,sans-Serif" font-size="10.00">cli/device_config/acquisition</text>
<text text-anchor="middle" x="686.5" y="-172" font-family="Helvetica,sans-Serif" font-size="10.00">_intervals.h</text>
</a>
</g>
</g>
<!-- Node13&#45;&gt;Node35 -->
<g id="edge68" class="edge">
<title>Node13&#45;&gt;Node35</title>
<path fill="none" stroke="#63b8ff" d="M730.83,-230.87C724.23,-223.44 714.43,-212.42 705.72,-202.62"/>
<polygon fill="#63b8ff" stroke="#63b8ff" points="708.31,-200.26 699.05,-195.11 703.07,-204.91 708.31,-200.26"/>
</g>
<!-- Node37 -->
<g id="node37" class="node">
<title>Node37</title>
<g id="a_node37"><a xlink:href="mqtt__cli_8h.html" target="_top" xlink:title="MQTT setup and configuration through the CLI.">
<polygon fill="white" stroke="#666666" points="943.5,-195 819.5,-195 819.5,-165 943.5,-165 943.5,-195"/>
<text text-anchor="start" x="827.5" y="-183" font-family="Helvetica,sans-Serif" font-size="10.00">cli/device_config/mqtt</text>
<text text-anchor="middle" x="881.5" y="-172" font-family="Helvetica,sans-Serif" font-size="10.00">_cli.h</text>
</a>
</g>
</g>
<!-- Node13&#45;&gt;Node37 -->
<g id="edge76" class="edge">
<title>Node13&#45;&gt;Node37</title>
<path fill="none" stroke="#63b8ff" d="M759.29,-230.99C779.78,-222.61 811.72,-209.55 837.81,-198.87"/>
<polygon fill="#63b8ff" stroke="#63b8ff" points="839.19,-202.09 847.12,-195.06 836.54,-195.61 839.19,-202.09"/>
</g>
<!-- Node38 -->
<g id="node38" class="node">
<title>Node38</title>
<g id="a_node38"><a xlink:href="config__cli_8h.html" target="_top" xlink:title=" ">
<polygon fill="white" stroke="#666666" points="1091.5,-195 961.5,-195 961.5,-165 1091.5,-165 1091.5,-195"/>
<text text-anchor="start" x="969.5" y="-183" font-family="Helvetica,sans-Serif" font-size="10.00">cli/device_config/config</text>
<text text-anchor="middle" x="1026.5" y="-172" font-family="Helvetica,sans-Serif" font-size="10.00">_cli.h</text>
</a>
</g>
</g>
<!-- Node13&#45;&gt;Node38 -->
<g id="edge78" class="edge">
<title>Node13&#45;&gt;Node38</title>
<path fill="none" stroke="#63b8ff" d="M766.11,-233.89C808.39,-225.3 890.64,-208.6 951.44,-196.25"/>
<polygon fill="#63b8ff" stroke="#63b8ff" points="952.28,-199.65 961.38,-194.23 950.89,-192.79 952.28,-199.65"/>
</g>
<!-- Node15&#45;&gt;Node3 -->
<g id="edge19" class="edge">
<title>Node15&#45;&gt;Node3</title>
<path fill="none" stroke="#63b8ff" d="M491.33,-170.49C449.91,-160.18 380.02,-142.78 334.58,-131.47"/>
<polygon fill="#63b8ff" stroke="#63b8ff" points="335.26,-128.04 324.71,-129.02 333.57,-134.83 335.26,-128.04"/>
</g>
<!-- Node15&#45;&gt;Node4 -->
<g id="edge20" class="edge">
<title>Node15&#45;&gt;Node4</title>
<path fill="none" stroke="#63b8ff" d="M522.11,-170.37C518.84,-162.07 513.81,-149.28 509.66,-138.72"/>
<polygon fill="#63b8ff" stroke="#63b8ff" points="512.82,-137.19 505.91,-129.17 506.31,-139.75 512.82,-137.19"/>
</g>
<!-- Node15&#45;&gt;Node5 -->
<g id="edge21" class="edge">
<title>Node15&#45;&gt;Node5</title>
<path fill="none" stroke="#63b8ff" d="M508.38,-170.37C489.28,-160.73 458.13,-145.03 435.9,-133.81"/>
<polygon fill="#63b8ff" stroke="#63b8ff" points="437.19,-130.55 426.69,-129.17 434.04,-136.8 437.19,-130.55"/>
</g>
<!-- Node15&#45;&gt;Node7 -->
<g id="edge22" class="edge">
<title>Node15&#45;&gt;Node7</title>
<path fill="none" stroke="#63b8ff" d="M549.06,-170.49C576.77,-160.49 622.97,-143.8 654.31,-132.49"/>
<polygon fill="#63b8ff" stroke="#63b8ff" points="655.7,-135.71 663.92,-129.02 653.32,-129.12 655.7,-135.71"/>
</g>
<!-- Node16 -->
<g id="node16" class="node">
<title>Node16</title>
<g id="a_node16"><a xlink:href="_c_a_t___m1_8h.html" target="_top" xlink:title=" ">
<polygon fill="white" stroke="#666666" points="616,-129 551,-129 551,-110 616,-110 616,-129"/>
<text text-anchor="middle" x="583.5" y="-117" font-family="Helvetica,sans-Serif" font-size="10.00">CAT_M1.h</text>
</a>
</g>
</g>
<!-- Node15&#45;&gt;Node16 -->
<g id="edge23" class="edge">
<title>Node15&#45;&gt;Node16</title>
<path fill="none" stroke="#63b8ff" d="M534.06,-170.37C542.88,-161.47 556.84,-147.39 567.68,-136.45"/>
<polygon fill="#63b8ff" stroke="#63b8ff" points="570.35,-138.73 574.91,-129.17 565.38,-133.8 570.35,-138.73"/>
</g>
<!-- Node17 -->
<g id="node17" class="node">
<title>Node17</title>
<g id="a_node17"><a xlink:title=" ">
<polygon fill="#e0e0e0" stroke="#999999" points="638.5,-19 590.5,-19 590.5,0 638.5,0 638.5,-19"/>
<text text-anchor="middle" x="614.5" y="-7" font-family="Helvetica,sans-Serif" font-size="10.00">Wire.h</text>
</a>
</g>
</g>
<!-- Node16&#45;&gt;Node17 -->
<g id="edge24" class="edge">
<title>Node16&#45;&gt;Node17</title>
<path fill="none" stroke="#63b8ff" d="M586.04,-109.66C591.08,-92.09 602.46,-52.45 609.2,-28.95"/>
<polygon fill="#63b8ff" stroke="#63b8ff" points="612.62,-29.74 612.01,-19.16 605.89,-27.8 612.62,-29.74"/>
</g>
<!-- Node18 -->
<g id="node18" class="node">
<title>Node18</title>
<g id="a_node18"><a xlink:href="_t_c_a9534_8h.html" target="_top" xlink:title=" ">
<polygon fill="white" stroke="#666666" points="679.5,-74 611.5,-74 611.5,-55 679.5,-55 679.5,-74"/>
<text text-anchor="middle" x="645.5" y="-62" font-family="Helvetica,sans-Serif" font-size="10.00">TCA9534.h</text>
</a>
</g>
</g>
<!-- Node16&#45;&gt;Node18 -->
<g id="edge25" class="edge">
<title>Node16&#45;&gt;Node18</title>
<path fill="none" stroke="#63b8ff" d="M593.46,-109.98C602.63,-102.15 616.44,-90.34 627.53,-80.86"/>
<polygon fill="#63b8ff" stroke="#63b8ff" points="630.03,-83.33 635.36,-74.17 625.48,-78.01 630.03,-83.33"/>
</g>
<!-- Node18&#45;&gt;Node14 -->
<g id="edge26" class="edge">
<title>Node18&#45;&gt;Node14</title>
<path fill="none" stroke="#63b8ff" d="M679.53,-61.22C806.93,-52.7 1255.54,-22.68 1395.48,-13.31"/>
<polygon fill="#63b8ff" stroke="#63b8ff" points="1396.04,-16.78 1405.78,-12.62 1395.57,-9.8 1396.04,-16.78"/>
</g>
<!-- Node18&#45;&gt;Node17 -->
<g id="edge27" class="edge">
<title>Node18&#45;&gt;Node17</title>
<path fill="none" stroke="#63b8ff" d="M640.38,-54.75C636.14,-47.49 629.97,-36.95 624.72,-27.98"/>
<polygon fill="#63b8ff" stroke="#63b8ff" points="627.59,-25.95 619.52,-19.09 621.55,-29.49 627.59,-25.95"/>
</g>
<!-- Node19&#45;&gt;Node3 -->
<g id="edge30" class="edge">
<title>Node19&#45;&gt;Node3</title>
<path fill="none" stroke="#63b8ff" d="M367.31,-164.99C351.21,-155.66 330.16,-143.47 314.17,-134.21"/>
<polygon fill="#63b8ff" stroke="#63b8ff" points="315.82,-131.12 305.42,-129.14 312.31,-137.18 315.82,-131.12"/>
</g>
<!-- Node19&#45;&gt;Node4 -->
<g id="edge31" class="edge">
<title>Node19&#45;&gt;Node4</title>
<path fill="none" stroke="#63b8ff" d="M418.09,-164.99C435.95,-155.58 459.34,-143.24 476.98,-133.95"/>
<polygon fill="#63b8ff" stroke="#63b8ff" points="478.89,-136.9 486.11,-129.14 475.63,-130.71 478.89,-136.9"/>
</g>
<!-- Node19&#45;&gt;Node5 -->
<g id="edge32" class="edge">
<title>Node19&#45;&gt;Node5</title>
<path fill="none" stroke="#63b8ff" d="M395.86,-164.84C398.26,-157.04 401.26,-147.27 403.84,-138.89"/>
<polygon fill="#63b8ff" stroke="#63b8ff" points="407.21,-139.85 406.8,-129.27 400.52,-137.79 407.21,-139.85"/>
</g>
<!-- Node19&#45;&gt;Node7 -->
<g id="edge33" class="edge">
<title>Node19&#45;&gt;Node7</title>
<path fill="none" stroke="#63b8ff" d="M441.68,-166.92C444.66,-166.26 447.62,-165.61 450.5,-165 510.91,-152.17 580.39,-139.35 628.43,-130.79"/>
<polygon fill="#63b8ff" stroke="#63b8ff" points="629.11,-134.22 638.34,-129.03 627.89,-127.33 629.11,-134.22"/>
</g>
<!-- Node19&#45;&gt;Node16 -->
<g id="edge34" class="edge">
<title>Node19&#45;&gt;Node16</title>
<path fill="none" stroke="#63b8ff" d="M437.49,-164.99C470.62,-154.89 514.79,-141.44 545.84,-131.98"/>
<polygon fill="#63b8ff" stroke="#63b8ff" points="546.88,-135.32 555.43,-129.05 544.84,-128.62 546.88,-135.32"/>
</g>
<!-- Node20&#45;&gt;Node3 -->
<g id="edge36" class="edge">
<title>Node20&#45;&gt;Node3</title>
<path fill="none" stroke="#63b8ff" d="M125.64,-165.36C163.13,-155.16 213.79,-141.37 249.02,-131.79"/>
<polygon fill="#63b8ff" stroke="#63b8ff" points="250.24,-135.08 258.97,-129.08 248.4,-128.33 250.24,-135.08"/>
</g>
<!-- Node21 -->
<g id="node21" class="node">
<title>Node21</title>
<g id="a_node21"><a xlink:title=" ">
<polygon fill="#e0e0e0" stroke="#999999" points="97.5,-129 53.5,-129 53.5,-110 97.5,-110 97.5,-129"/>
<text text-anchor="middle" x="75.5" y="-117" font-family="Helvetica,sans-Serif" font-size="10.00">string</text>
</a>
</g>
</g>
<!-- Node20&#45;&gt;Node21 -->
<g id="edge37" class="edge">
<title>Node20&#45;&gt;Node21</title>
<path fill="none" stroke="#63b8ff" d="M75.5,-164.84C75.5,-157.21 75.5,-147.7 75.5,-139.45"/>
<polygon fill="#63b8ff" stroke="#63b8ff" points="79,-139.27 75.5,-129.27 72,-139.27 79,-139.27"/>
</g>
<!-- Node22&#45;&gt;Node13 -->
<g id="edge67" class="edge">
<title>Node22&#45;&gt;Node13</title>
<path fill="none" stroke="#63b8ff" d="M1363.66,-185.9C1231.65,-197.63 890.31,-227.06 776.2,-236.52"/>
<polygon fill="#63b8ff" stroke="#63b8ff" points="775.87,-233.04 766.19,-237.35 776.44,-240.01 775.87,-233.04"/>
</g>
<!-- Node23 -->
<g id="node23" class="node">
<title>Node23</title>
<g id="a_node23"><a xlink:title=" ">
<polygon fill="#e0e0e0" stroke="#999999" points="1263,-129 1186,-129 1186,-110 1263,-110 1263,-129"/>
<text text-anchor="middle" x="1224.5" y="-117" font-family="Helvetica,sans-Serif" font-size="10.00">BLEDevice.h</text>
</a>
</g>
</g>
<!-- Node22&#45;&gt;Node23 -->
<g id="edge39" class="edge">
<title>Node22&#45;&gt;Node23</title>
<path fill="none" stroke="#63b8ff" d="M1388.58,-170.49C1355.31,-160.36 1299.55,-143.37 1262.4,-132.05"/>
<polygon fill="#63b8ff" stroke="#63b8ff" points="1263.04,-128.58 1252.45,-129.02 1261,-135.28 1263.04,-128.58"/>
</g>
<!-- Node24 -->
<g id="node24" class="node">
<title>Node24</title>
<g id="a_node24"><a xlink:title=" ">
<polygon fill="#e0e0e0" stroke="#999999" points="1353.5,-74 1279.5,-74 1279.5,-55 1353.5,-55 1353.5,-74"/>
<text text-anchor="middle" x="1316.5" y="-62" font-family="Helvetica,sans-Serif" font-size="10.00">BLEServer.h</text>
</a>
</g>
</g>
<!-- Node22&#45;&gt;Node24 -->
<g id="edge40" class="edge">
<title>Node22&#45;&gt;Node24</title>
<path fill="none" stroke="#63b8ff" d="M1409.16,-170.46C1397.89,-157.39 1375.64,-131.65 1356.5,-110 1348.24,-100.66 1338.94,-90.3 1331.38,-81.93"/>
<polygon fill="#63b8ff" stroke="#63b8ff" points="1333.81,-79.4 1324.51,-74.33 1328.62,-84.09 1333.81,-79.4"/>
</g>
<!-- Node25 -->
<g id="node25" class="node">
<title>Node25</title>
<g id="a_node25"><a xlink:title=" ">
<polygon fill="#e0e0e0" stroke="#999999" points="1347.5,-129 1281.5,-129 1281.5,-110 1347.5,-110 1347.5,-129"/>
<text text-anchor="middle" x="1314.5" y="-117" font-family="Helvetica,sans-Serif" font-size="10.00">BLEUtils.h</text>
</a>
</g>
</g>
<!-- Node22&#45;&gt;Node25 -->
<g id="edge41" class="edge">
<title>Node22&#45;&gt;Node25</title>
<path fill="none" stroke="#63b8ff" d="M1401.45,-170.37C1384.88,-160.86 1358,-145.45 1338.51,-134.27"/>
<polygon fill="#63b8ff" stroke="#63b8ff" points="1340.03,-131.11 1329.61,-129.17 1336.55,-137.18 1340.03,-131.11"/>
</g>
<!-- Node26 -->
<g id="node26" class="node">
<title>Node26</title>
<g id="a_node26"><a xlink:title=" ">
<polygon fill="#e0e0e0" stroke="#999999" points="1756.5,-74 1688.5,-74 1688.5,-55 1756.5,-55 1756.5,-74"/>
<text text-anchor="middle" x="1722.5" y="-62" font-family="Helvetica,sans-Serif" font-size="10.00">BLE2902.h</text>
</a>
</g>
</g>
<!-- Node22&#45;&gt;Node26 -->
<g id="edge42" class="edge">
<title>Node22&#45;&gt;Node26</title>
<path fill="none" stroke="#63b8ff" d="M1469.21,-172.76C1514.34,-166.06 1580.27,-152.97 1633.5,-129 1660.62,-116.79 1687.88,-95.74 1704.95,-81.24"/>
<polygon fill="#63b8ff" stroke="#63b8ff" points="1707.64,-83.54 1712.9,-74.34 1703.05,-78.26 1707.64,-83.54"/>
</g>
<!-- Node27 -->
<g id="node27" class="node">
<title>Node27</title>
<g id="a_node27"><a xlink:href="uart_8h.html" target="_top" xlink:title="BluetoothLE UART service setup and handling.">
<polygon fill="white" stroke="#666666" points="1624,-129 1529,-129 1529,-110 1624,-110 1624,-129"/>
<text text-anchor="middle" x="1576.5" y="-117" font-family="Helvetica,sans-Serif" font-size="10.00">bluetooth/uart.h</text>
</a>
</g>
</g>
<!-- Node22&#45;&gt;Node27 -->
<g id="edge43" class="edge">
<title>Node22&#45;&gt;Node27</title>
<path fill="none" stroke="#63b8ff" d="M1434.84,-170.49C1460.13,-160.44 1505.83,-143.66 1538.57,-132.34"/>
<polygon fill="#63b8ff" stroke="#63b8ff" points="1539.95,-135.57 1548.28,-129.02 1537.68,-128.94 1539.95,-135.57"/>
</g>
<!-- Node30 -->
<g id="node30" class="node">
<title>Node30</title>
<g id="a_node30"><a xlink:href="device_8h.html" target="_top" xlink:title="Bluetooth device services and device information.">
<polygon fill="white" stroke="#666666" points="1511,-129 1404,-129 1404,-110 1511,-110 1511,-129"/>
<text text-anchor="middle" x="1457.5" y="-117" font-family="Helvetica,sans-Serif" font-size="10.00">bluetooth/device.h</text>
</a>
</g>
</g>
<!-- Node22&#45;&gt;Node30 -->
<g id="edge51" class="edge">
<title>Node22&#45;&gt;Node30</title>
<path fill="none" stroke="#63b8ff" d="M1422.55,-170.37C1428.61,-161.73 1438.09,-148.2 1445.64,-137.42"/>
<polygon fill="#63b8ff" stroke="#63b8ff" points="1448.55,-139.37 1451.43,-129.17 1442.82,-135.35 1448.55,-139.37"/>
</g>
<!-- Node31 -->
<g id="node31" class="node">
<title>Node31</title>
<g id="a_node31"><a xlink:href="power__monitoring_8h.html" target="_top" xlink:title="Setup BluetoothLE power monitoring information.">
<polygon fill="white" stroke="#666666" points="1844.5,-129 1680.5,-129 1680.5,-110 1844.5,-110 1844.5,-129"/>
<text text-anchor="middle" x="1762.5" y="-117" font-family="Helvetica,sans-Serif" font-size="10.00">bluetooth/power_monitoring.h</text>
</a>
</g>
</g>
<!-- Node22&#45;&gt;Node31 -->
<g id="edge56" class="edge">
<title>Node22&#45;&gt;Node31</title>
<path fill="none" stroke="#63b8ff" d="M1466.81,-170.49C1529.21,-159.94 1635.47,-141.98 1702.18,-130.7"/>
<polygon fill="#63b8ff" stroke="#63b8ff" points="1702.85,-134.13 1712.13,-129.02 1701.68,-127.23 1702.85,-134.13"/>
</g>
<!-- Node27&#45;&gt;Node14 -->
<g id="edge44" class="edge">
<title>Node27&#45;&gt;Node14</title>
<path fill="none" stroke="#63b8ff" d="M1597.11,-109.91C1622.08,-98.28 1658.82,-76.5 1641.5,-55 1621.57,-30.25 1533.27,-18.53 1479.58,-13.6"/>
<polygon fill="#63b8ff" stroke="#63b8ff" points="1479.61,-10.09 1469.34,-12.7 1478.99,-17.06 1479.61,-10.09"/>
</g>
<!-- Node27&#45;&gt;Node22 -->
<g id="edge50" class="edge">
<title>Node27&#45;&gt;Node22</title>
<path fill="none" stroke="#63b8ff" d="M1558.14,-129.02C1532.83,-139.07 1487.13,-155.86 1454.4,-167.17"/>
<polygon fill="#63b8ff" stroke="#63b8ff" points="1453.02,-163.94 1444.69,-170.49 1455.29,-170.57 1453.02,-163.94"/>
</g>
<!-- Node27&#45;&gt;Node24 -->
<g id="edge46" class="edge">
<title>Node27&#45;&gt;Node24</title>
<path fill="none" stroke="#63b8ff" d="M1534.73,-109.98C1487.96,-100.45 1412.34,-85.04 1363.53,-75.09"/>
<polygon fill="#63b8ff" stroke="#63b8ff" points="1364.04,-71.62 1353.54,-73.05 1362.64,-78.48 1364.04,-71.62"/>
</g>
<!-- Node27&#45;&gt;Node26 -->
<g id="edge47" class="edge">
<title>Node27&#45;&gt;Node26</title>
<path fill="none" stroke="#63b8ff" d="M1599.96,-109.98C1624.08,-101.23 1661.87,-87.51 1689.1,-77.62"/>
<polygon fill="#63b8ff" stroke="#63b8ff" points="1690.41,-80.87 1698.62,-74.17 1688.02,-74.29 1690.41,-80.87"/>
</g>
<!-- Node28 -->
<g id="node28" class="node">
<title>Node28</title>
<g id="a_node28"><a xlink:title=" ">
<polygon fill="#e0e0e0" stroke="#999999" points="1632,-74 1521,-74 1521,-55 1632,-55 1632,-74"/>
<text text-anchor="middle" x="1576.5" y="-62" font-family="Helvetica,sans-Serif" font-size="10.00">BLECharacteristic.h</text>
</a>
</g>
</g>
<!-- Node27&#45;&gt;Node28 -->
<g id="edge45" class="edge">
<title>Node27&#45;&gt;Node28</title>
<path fill="none" stroke="#63b8ff" d="M1576.5,-109.75C1576.5,-102.8 1576.5,-92.85 1576.5,-84.13"/>
<polygon fill="#63b8ff" stroke="#63b8ff" points="1580,-84.09 1576.5,-74.09 1573,-84.09 1580,-84.09"/>
</g>
<!-- Node29 -->
<g id="node29" class="node">
<title>Node29</title>
<g id="a_node29"><a xlink:href="tones_8h.html" target="_top" xlink:title="Audio control for the onboard piezo buzzer.">
<polygon fill="white" stroke="#666666" points="1503,-74 1372,-74 1372,-55 1503,-55 1503,-74"/>
<text text-anchor="middle" x="1437.5" y="-62" font-family="Helvetica,sans-Serif" font-size="10.00">audio&#45;feedback/tones.h</text>
</a>
</g>
</g>
<!-- Node27&#45;&gt;Node29 -->
<g id="edge48" class="edge">
<title>Node27&#45;&gt;Node29</title>
<path fill="none" stroke="#63b8ff" d="M1554.17,-109.98C1531.3,-101.27 1495.54,-87.63 1469.64,-77.75"/>
<polygon fill="#63b8ff" stroke="#63b8ff" points="1470.83,-74.46 1460.24,-74.17 1468.34,-81 1470.83,-74.46"/>
</g>
<!-- Node29&#45;&gt;Node14 -->
<g id="edge49" class="edge">
<title>Node29&#45;&gt;Node14</title>
<path fill="none" stroke="#63b8ff" d="M1437.5,-54.75C1437.5,-47.8 1437.5,-37.85 1437.5,-29.13"/>
<polygon fill="#63b8ff" stroke="#63b8ff" points="1441,-29.09 1437.5,-19.09 1434,-29.09 1441,-29.09"/>
</g>
<!-- Node30&#45;&gt;Node14 -->
<g id="edge52" class="edge">
<title>Node30&#45;&gt;Node14</title>
<path fill="none" stroke="#63b8ff" d="M1403.92,-113.08C1354.67,-106.87 1286.89,-94.75 1270.5,-74 1235.33,-29.48 1335.68,-16.16 1395.84,-12.19"/>
<polygon fill="#63b8ff" stroke="#63b8ff" points="1396.07,-15.68 1405.85,-11.58 1395.65,-8.69 1396.07,-15.68"/>
</g>
<!-- Node30&#45;&gt;Node24 -->
<g id="edge54" class="edge">
<title>Node30&#45;&gt;Node24</title>
<path fill="none" stroke="#63b8ff" d="M1434.85,-109.98C1411.65,-101.27 1375.38,-87.63 1349.1,-77.75"/>
<polygon fill="#63b8ff" stroke="#63b8ff" points="1350.16,-74.41 1339.57,-74.17 1347.7,-80.97 1350.16,-74.41"/>
</g>
<!-- Node30&#45;&gt;Node26 -->
<g id="edge55" class="edge">
<title>Node30&#45;&gt;Node26</title>
<path fill="none" stroke="#63b8ff" d="M1500.08,-109.98C1548.98,-100.2 1628.82,-84.24 1678.36,-74.33"/>
<polygon fill="#63b8ff" stroke="#63b8ff" points="1679.33,-77.7 1688.45,-72.31 1677.96,-70.84 1679.33,-77.7"/>
</g>
<!-- Node30&#45;&gt;Node28 -->
<g id="edge53" class="edge">
<title>Node30&#45;&gt;Node28</title>
<path fill="none" stroke="#63b8ff" d="M1476.62,-109.98C1495.85,-101.42 1525.73,-88.11 1547.81,-78.28"/>
<polygon fill="#63b8ff" stroke="#63b8ff" points="1549.32,-81.44 1557.03,-74.17 1546.47,-75.04 1549.32,-81.44"/>
</g>
<!-- Node31&#45;&gt;Node14 -->
<g id="edge57" class="edge">
<title>Node31&#45;&gt;Node14</title>
<path fill="none" stroke="#63b8ff" d="M1766.25,-109.89C1771.46,-96.41 1778.86,-70.29 1765.5,-55 1728.82,-13.01 1559.31,-9.11 1479.4,-9.68"/>
<polygon fill="#63b8ff" stroke="#63b8ff" points="1479.16,-6.18 1469.2,-9.78 1479.23,-13.18 1479.16,-6.18"/>
</g>
<!-- Node31&#45;&gt;Node24 -->
<g id="edge59" class="edge">
<title>Node31&#45;&gt;Node24</title>
<path fill="none" stroke="#63b8ff" d="M1680.14,-110.96C1601.61,-103.4 1479.78,-90.68 1363.79,-73.94"/>
<polygon fill="#63b8ff" stroke="#63b8ff" points="1364.06,-70.44 1353.66,-72.46 1363.05,-77.37 1364.06,-70.44"/>
</g>
<!-- Node31&#45;&gt;Node26 -->
<g id="edge60" class="edge">
<title>Node31&#45;&gt;Node26</title>
<path fill="none" stroke="#63b8ff" d="M1755.89,-109.75C1750.24,-102.26 1741.96,-91.28 1735.05,-82.13"/>
<polygon fill="#63b8ff" stroke="#63b8ff" points="1737.8,-79.96 1728.98,-74.09 1732.21,-84.18 1737.8,-79.96"/>
</g>
<!-- Node31&#45;&gt;Node28 -->
<g id="edge58" class="edge">
<title>Node31&#45;&gt;Node28</title>
<path fill="none" stroke="#63b8ff" d="M1732.62,-109.98C1701.12,-101.01 1651.33,-86.82 1616.47,-76.89"/>
<polygon fill="#63b8ff" stroke="#63b8ff" points="1617.19,-73.46 1606.62,-74.08 1615.28,-80.19 1617.19,-73.46"/>
</g>
<!-- Node32 -->
<g id="node32" class="node">
<title>Node32</title>
<g id="a_node32"><a xlink:href="solar_8h.html" target="_top" xlink:title="Solar voltage and current monitoring using INA219 IC.">
<polygon fill="white" stroke="#666666" points="1952.5,-74 1812.5,-74 1812.5,-55 1952.5,-55 1952.5,-74"/>
<text text-anchor="middle" x="1882.5" y="-62" font-family="Helvetica,sans-Serif" font-size="10.00">power_monitoring/solar.h</text>
</a>
</g>
</g>
<!-- Node31&#45;&gt;Node32 -->
<g id="edge61" class="edge">
<title>Node31&#45;&gt;Node32</title>
<path fill="none" stroke="#63b8ff" d="M1781.78,-109.98C1801.17,-101.42 1831.31,-88.11 1853.57,-78.28"/>
<polygon fill="#63b8ff" stroke="#63b8ff" points="1855.14,-81.41 1862.87,-74.17 1852.31,-75.01 1855.14,-81.41"/>
</g>
<!-- Node34 -->
<g id="node34" class="node">
<title>Node34</title>
<g id="a_node34"><a xlink:href="battery_8h.html" target="_top" xlink:title="Battery voltage and current monitoring using INA219 IC.">
<polygon fill="white" stroke="#666666" points="2122,-74 1971,-74 1971,-55 2122,-55 2122,-74"/>
<text text-anchor="middle" x="2046.5" y="-62" font-family="Helvetica,sans-Serif" font-size="10.00">power_monitoring/battery.h</text>
</a>
</g>
</g>
<!-- Node31&#45;&gt;Node34 -->
<g id="edge64" class="edge">
<title>Node31&#45;&gt;Node34</title>
<path fill="none" stroke="#63b8ff" d="M1808.13,-109.98C1857.77,-100.72 1937.16,-85.9 1990.53,-75.94"/>
<polygon fill="#63b8ff" stroke="#63b8ff" points="1991.32,-79.36 2000.51,-74.08 1990.04,-72.48 1991.32,-79.36"/>
</g>
<!-- Node32&#45;&gt;Node14 -->
<g id="edge62" class="edge">
<title>Node32&#45;&gt;Node14</title>
<path fill="none" stroke="#63b8ff" d="M1812.48,-55.16C1718.86,-44.01 1555.83,-24.59 1479.36,-15.49"/>
<polygon fill="#63b8ff" stroke="#63b8ff" points="1479.5,-11.98 1469.16,-14.27 1478.67,-18.93 1479.5,-11.98"/>
</g>
<!-- Node33 -->
<g id="node33" class="node">
<title>Node33</title>
<g id="a_node33"><a xlink:title=" ">
<polygon fill="#e0e0e0" stroke="#999999" points="2017,-19 1912,-19 1912,0 2017,0 2017,-19"/>
<text text-anchor="middle" x="1964.5" y="-7" font-family="Helvetica,sans-Serif" font-size="10.00">Adafruit_INA219.h</text>
</a>
</g>
</g>
<!-- Node32&#45;&gt;Node33 -->
<g id="edge63" class="edge">
<title>Node32&#45;&gt;Node33</title>
<path fill="none" stroke="#63b8ff" d="M1895.67,-54.98C1908.27,-46.84 1927.5,-34.41 1942.44,-24.76"/>
<polygon fill="#63b8ff" stroke="#63b8ff" points="1944.59,-27.54 1951.09,-19.17 1940.79,-21.66 1944.59,-27.54"/>
</g>
<!-- Node34&#45;&gt;Node14 -->
<g id="edge65" class="edge">
<title>Node34&#45;&gt;Node14</title>
<path fill="none" stroke="#63b8ff" d="M1970.96,-55.89C1967.77,-55.58 1964.6,-55.29 1961.5,-55 1782.19,-38.42 1568.14,-20.97 1479.32,-13.84"/>
<polygon fill="#63b8ff" stroke="#63b8ff" points="1479.36,-10.33 1469.11,-13.02 1478.8,-17.31 1479.36,-10.33"/>
</g>
<!-- Node34&#45;&gt;Node33 -->
<g id="edge66" class="edge">
<title>Node34&#45;&gt;Node33</title>
<path fill="none" stroke="#63b8ff" d="M2033.33,-54.98C2020.73,-46.84 2001.5,-34.41 1986.56,-24.76"/>
<polygon fill="#63b8ff" stroke="#63b8ff" points="1988.21,-21.66 1977.91,-19.17 1984.41,-27.54 1988.21,-21.66"/>
</g>
<!-- Node35&#45;&gt;Node3 -->
<g id="edge69" class="edge">
<title>Node35&#45;&gt;Node3</title>
<path fill="none" stroke="#63b8ff" d="M609.16,-166.34C606.23,-165.88 603.34,-165.44 600.5,-165 516.75,-152.17 420.1,-138.47 357.28,-129.72"/>
<polygon fill="#63b8ff" stroke="#63b8ff" points="357.5,-126.21 347.12,-128.3 356.54,-133.15 357.5,-126.21"/>
</g>
<!-- Node35&#45;&gt;Node4 -->
<g id="edge70" class="edge">
<title>Node35&#45;&gt;Node4</title>
<path fill="none" stroke="#63b8ff" d="M642.43,-164.99C610.81,-154.94 568.72,-141.55 538.98,-132.1"/>
<polygon fill="#63b8ff" stroke="#63b8ff" points="539.99,-128.75 529.4,-129.05 537.87,-135.42 539.99,-128.75"/>
</g>
<!-- Node35&#45;&gt;Node5 -->
<g id="edge71" class="edge">
<title>Node35&#45;&gt;Node5</title>
<path fill="none" stroke="#63b8ff" d="M620.15,-164.99C570.9,-154.59 504.76,-140.62 459.82,-131.13"/>
<polygon fill="#63b8ff" stroke="#63b8ff" points="460.51,-127.7 450,-129.05 459.06,-134.54 460.51,-127.7"/>
</g>
<!-- Node35&#45;&gt;Node7 -->
<g id="edge72" class="edge">
<title>Node35&#45;&gt;Node7</title>
<path fill="none" stroke="#63b8ff" d="M686.74,-164.84C686.87,-157.21 687.03,-147.7 687.18,-139.45"/>
<polygon fill="#63b8ff" stroke="#63b8ff" points="690.68,-139.32 687.35,-129.27 683.68,-139.2 690.68,-139.32"/>
</g>
<!-- Node36 -->
<g id="node36" class="node">
<title>Node36</title>
<g id="a_node36"><a xlink:href="_device_config_8h.html" target="_top" xlink:title="Node configuration options.">
<polygon fill="white" stroke="#666666" points="1071.5,-129 981.5,-129 981.5,-110 1071.5,-110 1071.5,-129"/>
<text text-anchor="middle" x="1026.5" y="-117" font-family="Helvetica,sans-Serif" font-size="10.00">DeviceConfig.h</text>
</a>
</g>
</g>
<!-- Node35&#45;&gt;Node36 -->
<g id="edge73" class="edge">
<title>Node35&#45;&gt;Node36</title>
<path fill="none" stroke="#63b8ff" d="M763.65,-165.73C826.92,-154.84 914.93,-139.7 971.31,-130"/>
<polygon fill="#63b8ff" stroke="#63b8ff" points="972.2,-133.4 981.46,-128.25 971.01,-126.5 972.2,-133.4"/>
</g>
<!-- Node36&#45;&gt;Node12 -->
<g id="edge75" class="edge">
<title>Node36&#45;&gt;Node12</title>
<path fill="none" stroke="#63b8ff" d="M1051.08,-109.98C1076.55,-101.16 1116.54,-87.31 1145.13,-77.41"/>
<polygon fill="#63b8ff" stroke="#63b8ff" points="1146.42,-80.66 1154.73,-74.08 1144.13,-74.05 1146.42,-80.66"/>
</g>
<!-- Node36&#45;&gt;Node14 -->
<g id="edge74" class="edge">
<title>Node36&#45;&gt;Node14</title>
<path fill="none" stroke="#63b8ff" d="M1032.75,-109.72C1043.41,-95.52 1066.58,-67.79 1093.5,-55 1146.2,-29.95 1316.25,-17.33 1395.78,-12.67"/>
<polygon fill="#63b8ff" stroke="#63b8ff" points="1396.14,-16.15 1405.92,-12.09 1395.74,-9.17 1396.14,-16.15"/>
</g>
<!-- Node37&#45;&gt;Node36 -->
<g id="edge77" class="edge">
<title>Node37&#45;&gt;Node36</title>
<path fill="none" stroke="#63b8ff" d="M916.23,-164.99C940.42,-155.23 972.4,-142.33 995.69,-132.93"/>
<polygon fill="#63b8ff" stroke="#63b8ff" points="997.12,-136.13 1005.09,-129.14 994.5,-129.63 997.12,-136.13"/>
</g>
<!-- Node38&#45;&gt;Node36 -->
<g id="edge79" class="edge">
<title>Node38&#45;&gt;Node36</title>
<path fill="none" stroke="#63b8ff" d="M1026.5,-164.84C1026.5,-157.21 1026.5,-147.7 1026.5,-139.45"/>
<polygon fill="#63b8ff" stroke="#63b8ff" points="1030,-139.27 1026.5,-129.27 1023,-139.27 1030,-139.27"/>
</g>
</g>
</svg>
