<?xml version="1.0" encoding="UTF-8" standalone="no"?>
<!DOCTYPE svg PUBLIC "-//W3C//DTD SVG 1.1//EN"
 "http://www.w3.org/Graphics/SVG/1.1/DTD/svg11.dtd">
<!-- Generated by graphviz version 2.43.0 (0)
 -->
<!-- Title: firmware/wombat/include/cli/peripherals/sdi12.h Pages: 1 -->
<svg width="836pt" height="181pt"
 viewBox="0.00 0.00 836.00 181.00" xmlns="http://www.w3.org/2000/svg" xmlns:xlink="http://www.w3.org/1999/xlink">
<g id="graph0" class="graph" transform="scale(1 1) rotate(0) translate(4 177)">
<title>firmware/wombat/include/cli/peripherals/sdi12.h</title>
<!-- Node1 -->
<g id="node1" class="node">
<title>Node1</title>
<g id="a_node1"><a xlink:title="SDI&#45;12 command line interface handler.">
<polygon fill="#999999" stroke="#666666" points="593.5,-173 452.5,-173 452.5,-143 593.5,-143 593.5,-173"/>
<text text-anchor="start" x="460.5" y="-161" font-family="Helvetica,sans-Serif" font-size="10.00">firmware/wombat/include</text>
<text text-anchor="middle" x="523" y="-150" font-family="Helvetica,sans-Serif" font-size="10.00">/cli/peripherals/sdi12.h</text>
</a>
</g>
</g>
<!-- Node1&#45;&gt;Node1 -->
<g id="edge8" class="edge">
<title>Node1&#45;&gt;Node1</title>
<path fill="none" stroke="#63b8ff" d="M603.7,-166.57C608.57,-164.53 611.5,-161.67 611.5,-158 611.5,-152.26 604.37,-148.52 593.83,-146.77"/>
<polygon fill="#63b8ff" stroke="#63b8ff" points="602.57,-163.25 593.83,-169.23 604.39,-170.01 602.57,-163.25"/>
</g>
<!-- Node2 -->
<g id="node2" class="node">
<title>Node2</title>
<g id="a_node2"><a xlink:href="_c_l_i_8h.html" target="_top" xlink:title="FreeRTOS CLI handler.">
<polygon fill="white" stroke="#666666" points="544.5,-107 403.5,-107 403.5,-77 544.5,-77 544.5,-107"/>
<text text-anchor="start" x="411.5" y="-95" font-family="Helvetica,sans-Serif" font-size="10.00">firmware/wombat/include</text>
<text text-anchor="middle" x="474" y="-84" font-family="Helvetica,sans-Serif" font-size="10.00">/cli/CLI.h</text>
</a>
</g>
</g>
<!-- Node1&#45;&gt;Node2 -->
<g id="edge1" class="edge">
<title>Node1&#45;&gt;Node2</title>
<path fill="none" stroke="#63b8ff" d="M506.01,-134.81C498.99,-125.64 491.06,-115.28 484.84,-107.16"/>
<polygon fill="#63b8ff" stroke="#63b8ff" points="503.27,-136.98 512.13,-142.8 508.83,-132.73 503.27,-136.98"/>
</g>
<!-- Node6 -->
<g id="node6" class="node">
<title>Node6</title>
<g id="a_node6"><a xlink:href="sdi12_8cpp.html" target="_top" xlink:title="SDI&#45;12 command line interface handler.">
<polygon fill="white" stroke="#666666" points="828,-35.5 690,-35.5 690,-5.5 828,-5.5 828,-35.5"/>
<text text-anchor="start" x="698" y="-23.5" font-family="Helvetica,sans-Serif" font-size="10.00">firmware/wombat/src</text>
<text text-anchor="middle" x="759" y="-12.5" font-family="Helvetica,sans-Serif" font-size="10.00">/cli/peripherals/sdi12.cpp</text>
</a>
</g>
</g>
<!-- Node1&#45;&gt;Node6 -->
<g id="edge9" class="edge">
<title>Node1&#45;&gt;Node6</title>
<path fill="none" stroke="#63b8ff" d="M556.6,-137.71C604.7,-110.09 692.06,-59.93 734.52,-35.55"/>
<polygon fill="#63b8ff" stroke="#63b8ff" points="554.74,-134.74 547.81,-142.76 558.23,-140.81 554.74,-134.74"/>
</g>
<!-- Node3 -->
<g id="node3" class="node">
<title>Node3</title>
<g id="a_node3"><a xlink:href="_c_l_i_8cpp.html" target="_top" xlink:title="FreeRTOS CLI handler.">
<polygon fill="white" stroke="#666666" points="120,-35.5 0,-35.5 0,-5.5 120,-5.5 120,-35.5"/>
<text text-anchor="start" x="8" y="-23.5" font-family="Helvetica,sans-Serif" font-size="10.00">firmware/wombat/src</text>
<text text-anchor="middle" x="60" y="-12.5" font-family="Helvetica,sans-Serif" font-size="10.00">/cli/CLI.cpp</text>
</a>
</g>
</g>
<!-- Node2&#45;&gt;Node3 -->
<g id="edge2" class="edge">
<title>Node2&#45;&gt;Node3</title>
<path fill="none" stroke="#63b8ff" d="M393.37,-82.36C323.11,-74.1 218.71,-60.09 129,-41 121.69,-39.45 114.02,-37.55 106.56,-35.55"/>
<polygon fill="#63b8ff" stroke="#63b8ff" points="393.14,-85.85 403.48,-83.53 393.95,-78.9 393.14,-85.85"/>
</g>
<!-- Node4 -->
<g id="node4" class="node">
<title>Node4</title>
<g id="a_node4"><a xlink:href="cat-m1_8cpp.html" target="_top" xlink:title="CAT&#45;M1 CLI command request and response handler.">
<polygon fill="white" stroke="#666666" points="258,-41 138,-41 138,0 258,0 258,-41"/>
<text text-anchor="start" x="146" y="-29" font-family="Helvetica,sans-Serif" font-size="10.00">firmware/wombat/src</text>
<text text-anchor="start" x="146" y="-18" font-family="Helvetica,sans-Serif" font-size="10.00">/cli/peripherals/cat</text>
<text text-anchor="middle" x="198" y="-7" font-family="Helvetica,sans-Serif" font-size="10.00">&#45;m1.cpp</text>
</a>
</g>
</g>
<!-- Node2&#45;&gt;Node4 -->
<g id="edge3" class="edge">
<title>Node2&#45;&gt;Node4</title>
<path fill="none" stroke="#63b8ff" d="M403.22,-74.61C363.15,-65.16 312.17,-52.83 267,-41 264.11,-40.24 261.16,-39.46 258.17,-38.65"/>
<polygon fill="#63b8ff" stroke="#63b8ff" points="402.62,-78.07 413.16,-76.95 404.23,-71.26 402.62,-78.07"/>
</g>
<!-- Node5 -->
<g id="node5" class="node">
<title>Node5</title>
<g id="a_node5"><a xlink:href="sd__card_8cpp.html" target="_top" xlink:title=" ">
<polygon fill="white" stroke="#666666" points="396,-41 276,-41 276,0 396,0 396,-41"/>
<text text-anchor="start" x="284" y="-29" font-family="Helvetica,sans-Serif" font-size="10.00">firmware/wombat/src</text>
<text text-anchor="start" x="284" y="-18" font-family="Helvetica,sans-Serif" font-size="10.00">/cli/peripherals/sd</text>
<text text-anchor="middle" x="336" y="-7" font-family="Helvetica,sans-Serif" font-size="10.00">_card.cpp</text>
</a>
</g>
</g>
<!-- Node2&#45;&gt;Node5 -->
<g id="edge4" class="edge">
<title>Node2&#45;&gt;Node5</title>
<path fill="none" stroke="#63b8ff" d="M437.02,-72.38C417.81,-62.7 394.34,-50.88 374.87,-41.07"/>
<polygon fill="#63b8ff" stroke="#63b8ff" points="435.57,-75.56 446.07,-76.94 438.72,-69.31 435.57,-75.56"/>
</g>
<!-- Node2&#45;&gt;Node6 -->
<g id="edge5" class="edge">
<title>Node2&#45;&gt;Node6</title>
<path fill="none" stroke="#63b8ff" d="M542.64,-74.56C582.96,-64.87 634.9,-52.33 681,-41 688.18,-39.23 695.74,-37.36 703.2,-35.51"/>
<polygon fill="#63b8ff" stroke="#63b8ff" points="541.83,-71.16 532.92,-76.9 543.46,-77.97 541.83,-71.16"/>
</g>
<!-- Node7 -->
<g id="node7" class="node">
<title>Node7</title>
<g id="a_node7"><a xlink:href="main_8cpp.html" target="_top" xlink:title=" ">
<polygon fill="white" stroke="#666666" points="534,-35.5 414,-35.5 414,-5.5 534,-5.5 534,-35.5"/>
<text text-anchor="start" x="422" y="-23.5" font-family="Helvetica,sans-Serif" font-size="10.00">firmware/wombat/src</text>
<text text-anchor="middle" x="474" y="-12.5" font-family="Helvetica,sans-Serif" font-size="10.00">/main.cpp</text>
</a>
</g>
</g>
<!-- Node2&#45;&gt;Node7 -->
<g id="edge6" class="edge">
<title>Node2&#45;&gt;Node7</title>
<path fill="none" stroke="#63b8ff" d="M474,-66.75C474,-56.31 474,-44.49 474,-35.54"/>
<polygon fill="#63b8ff" stroke="#63b8ff" points="470.5,-66.94 474,-76.94 477.5,-66.94 470.5,-66.94"/>
</g>
<!-- Node8 -->
<g id="node8" class="node">
<title>Node8</title>
<g id="a_node8"><a xlink:href="mqtt__stack_8cpp.html" target="_top" xlink:title=" ">
<polygon fill="white" stroke="#666666" points="672,-35.5 552,-35.5 552,-5.5 672,-5.5 672,-35.5"/>
<text text-anchor="start" x="560" y="-23.5" font-family="Helvetica,sans-Serif" font-size="10.00">firmware/wombat/src</text>
<text text-anchor="middle" x="612" y="-12.5" font-family="Helvetica,sans-Serif" font-size="10.00">/mqtt_stack.cpp</text>
</a>
</g>
</g>
<!-- Node2&#45;&gt;Node8 -->
<g id="edge7" class="edge">
<title>Node2&#45;&gt;Node8</title>
<path fill="none" stroke="#63b8ff" d="M511.04,-72.34C534.03,-60.77 563.08,-46.14 584.12,-35.54"/>
<polygon fill="#63b8ff" stroke="#63b8ff" points="509.28,-69.31 501.93,-76.94 512.43,-75.56 509.28,-69.31"/>
</g>
</g>
</svg>
