<?xml version="1.0" encoding="UTF-8" standalone="no"?>
<!DOCTYPE svg PUBLIC "-//W3C//DTD SVG 1.1//EN"
 "http://www.w3.org/Graphics/SVG/1.1/DTD/svg11.dtd">
<!-- Generated by graphviz version 2.43.0 (0)
 -->
<!-- Title: firmware/wombat/include/bluetooth/server.h Pages: 1 -->
<svg width="974pt" height="181pt"
 viewBox="0.00 0.00 974.00 181.00" xmlns="http://www.w3.org/2000/svg" xmlns:xlink="http://www.w3.org/1999/xlink">
<g id="graph0" class="graph" transform="scale(1 1) rotate(0) translate(4 177)">
<title>firmware/wombat/include/bluetooth/server.h</title>
<!-- Node1 -->
<g id="node1" class="node">
<title>Node1</title>
<g id="a_node1"><a xlink:title="Handle the setup and maintenance of the BLE server and connected clients.">
<polygon fill="#999999" stroke="#666666" points="544.5,-173 403.5,-173 403.5,-143 544.5,-143 544.5,-173"/>
<text text-anchor="start" x="411.5" y="-161" font-family="Helvetica,sans-Serif" font-size="10.00">firmware/wombat/include</text>
<text text-anchor="middle" x="474" y="-150" font-family="Helvetica,sans-Serif" font-size="10.00">/bluetooth/server.h</text>
</a>
</g>
</g>
<!-- Node2 -->
<g id="node2" class="node">
<title>Node2</title>
<g id="a_node2"><a xlink:href="uart_8h.html" target="_top" xlink:title="BluetoothLE UART service setup and handling.">
<polygon fill="white" stroke="#666666" points="385.5,-107 244.5,-107 244.5,-77 385.5,-77 385.5,-107"/>
<text text-anchor="start" x="252.5" y="-95" font-family="Helvetica,sans-Serif" font-size="10.00">firmware/wombat/include</text>
<text text-anchor="middle" x="315" y="-84" font-family="Helvetica,sans-Serif" font-size="10.00">/bluetooth/uart.h</text>
</a>
</g>
</g>
<!-- Node1&#45;&gt;Node2 -->
<g id="edge1" class="edge">
<title>Node1&#45;&gt;Node2</title>
<path fill="none" stroke="#63b8ff" d="M423.97,-139.32C397.69,-129.14 366.46,-116.51 344.12,-107.01"/>
<polygon fill="#63b8ff" stroke="#63b8ff" points="422.82,-142.63 433.41,-142.95 425.33,-136.1 422.82,-142.63"/>
</g>
<!-- Node4 -->
<g id="node4" class="node">
<title>Node4</title>
<g id="a_node4"><a xlink:href="_c_l_i_8h.html" target="_top" xlink:title="FreeRTOS CLI handler.">
<polygon fill="white" stroke="#666666" points="544.5,-107 403.5,-107 403.5,-77 544.5,-77 544.5,-107"/>
<text text-anchor="start" x="411.5" y="-95" font-family="Helvetica,sans-Serif" font-size="10.00">firmware/wombat/include</text>
<text text-anchor="middle" x="474" y="-84" font-family="Helvetica,sans-Serif" font-size="10.00">/cli/CLI.h</text>
</a>
</g>
</g>
<!-- Node1&#45;&gt;Node4 -->
<g id="edge4" class="edge">
<title>Node1&#45;&gt;Node4</title>
<path fill="none" stroke="#63b8ff" d="M467.43,-132.83C467.02,-124.17 467.31,-114.7 468.29,-107.16"/>
<polygon fill="#63b8ff" stroke="#63b8ff" points="463.95,-133.13 468.28,-142.8 470.92,-132.54 463.95,-133.13"/>
</g>
<!-- Node11 -->
<g id="node11" class="node">
<title>Node11</title>
<g id="a_node11"><a xlink:href="server_8cpp.html" target="_top" xlink:title="Setup and start BluetoothLE server.">
<polygon fill="white" stroke="#666666" points="683,-107 563,-107 563,-77 683,-77 683,-107"/>
<text text-anchor="start" x="571" y="-95" font-family="Helvetica,sans-Serif" font-size="10.00">firmware/wombat/src</text>
<text text-anchor="middle" x="623" y="-84" font-family="Helvetica,sans-Serif" font-size="10.00">/bluetooth/server.cpp</text>
</a>
</g>
</g>
<!-- Node1&#45;&gt;Node11 -->
<g id="edge12" class="edge">
<title>Node1&#45;&gt;Node11</title>
<path fill="none" stroke="#63b8ff" d="M516.09,-138.92C539.64,-128.8 568.56,-116.38 590.38,-107.01"/>
<polygon fill="#63b8ff" stroke="#63b8ff" points="514.51,-135.79 506.7,-142.95 517.27,-142.22 514.51,-135.79"/>
</g>
<!-- Node2&#45;&gt;Node1 -->
<g id="edge2" class="edge">
<title>Node2&#45;&gt;Node1</title>
<path fill="none" stroke="#63b8ff" d="M364.94,-110.64C391.21,-120.82 422.44,-133.45 444.81,-142.95"/>
<polygon fill="#63b8ff" stroke="#63b8ff" points="366.1,-107.34 355.51,-107.01 363.58,-113.87 366.1,-107.34"/>
</g>
<!-- Node3 -->
<g id="node3" class="node">
<title>Node3</title>
<g id="a_node3"><a xlink:href="uart_8cpp.html" target="_top" xlink:title="BluetoothLE UART service setup and handling.">
<polygon fill="white" stroke="#666666" points="120,-35.5 0,-35.5 0,-5.5 120,-5.5 120,-35.5"/>
<text text-anchor="start" x="8" y="-23.5" font-family="Helvetica,sans-Serif" font-size="10.00">firmware/wombat/src</text>
<text text-anchor="middle" x="60" y="-12.5" font-family="Helvetica,sans-Serif" font-size="10.00">/bluetooth/uart.cpp</text>
</a>
</g>
</g>
<!-- Node2&#45;&gt;Node3 -->
<g id="edge3" class="edge">
<title>Node2&#45;&gt;Node3</title>
<path fill="none" stroke="#63b8ff" d="M252.14,-74.32C216.07,-64.69 169.96,-52.29 129,-41 122.64,-39.25 115.96,-37.38 109.35,-35.53"/>
<polygon fill="#63b8ff" stroke="#63b8ff" points="251.47,-77.76 262.04,-76.96 253.28,-71 251.47,-77.76"/>
</g>
<!-- Node4&#45;&gt;Node1 -->
<g id="edge5" class="edge">
<title>Node4&#45;&gt;Node1</title>
<path fill="none" stroke="#63b8ff" d="M480.57,-117.13C480.98,-125.78 480.7,-135.26 479.72,-142.8"/>
<polygon fill="#63b8ff" stroke="#63b8ff" points="484.05,-116.83 479.71,-107.16 477.08,-117.43 484.05,-116.83"/>
</g>
<!-- Node5 -->
<g id="node5" class="node">
<title>Node5</title>
<g id="a_node5"><a xlink:href="_c_l_i_8cpp.html" target="_top" xlink:title="FreeRTOS CLI handler.">
<polygon fill="white" stroke="#666666" points="258,-35.5 138,-35.5 138,-5.5 258,-5.5 258,-35.5"/>
<text text-anchor="start" x="146" y="-23.5" font-family="Helvetica,sans-Serif" font-size="10.00">firmware/wombat/src</text>
<text text-anchor="middle" x="198" y="-12.5" font-family="Helvetica,sans-Serif" font-size="10.00">/cli/CLI.cpp</text>
</a>
</g>
</g>
<!-- Node4&#45;&gt;Node5 -->
<g id="edge6" class="edge">
<title>Node4&#45;&gt;Node5</title>
<path fill="none" stroke="#63b8ff" d="M403.22,-74.61C363.15,-65.16 312.17,-52.83 267,-41 260.5,-39.3 253.67,-37.44 246.94,-35.58"/>
<polygon fill="#63b8ff" stroke="#63b8ff" points="402.62,-78.07 413.16,-76.95 404.23,-71.26 402.62,-78.07"/>
</g>
<!-- Node6 -->
<g id="node6" class="node">
<title>Node6</title>
<g id="a_node6"><a xlink:href="cat-m1_8cpp.html" target="_top" xlink:title="CAT&#45;M1 CLI command request and response handler.">
<polygon fill="white" stroke="#666666" points="396,-41 276,-41 276,0 396,0 396,-41"/>
<text text-anchor="start" x="284" y="-29" font-family="Helvetica,sans-Serif" font-size="10.00">firmware/wombat/src</text>
<text text-anchor="start" x="284" y="-18" font-family="Helvetica,sans-Serif" font-size="10.00">/cli/peripherals/cat</text>
<text text-anchor="middle" x="336" y="-7" font-family="Helvetica,sans-Serif" font-size="10.00">&#45;m1.cpp</text>
</a>
</g>
</g>
<!-- Node4&#45;&gt;Node6 -->
<g id="edge7" class="edge">
<title>Node4&#45;&gt;Node6</title>
<path fill="none" stroke="#63b8ff" d="M437.02,-72.38C417.81,-62.7 394.34,-50.88 374.87,-41.07"/>
<polygon fill="#63b8ff" stroke="#63b8ff" points="435.57,-75.56 446.07,-76.94 438.72,-69.31 435.57,-75.56"/>
</g>
<!-- Node7 -->
<g id="node7" class="node">
<title>Node7</title>
<g id="a_node7"><a xlink:href="sd__card_8cpp.html" target="_top" xlink:title=" ">
<polygon fill="white" stroke="#666666" points="534,-41 414,-41 414,0 534,0 534,-41"/>
<text text-anchor="start" x="422" y="-29" font-family="Helvetica,sans-Serif" font-size="10.00">firmware/wombat/src</text>
<text text-anchor="start" x="422" y="-18" font-family="Helvetica,sans-Serif" font-size="10.00">/cli/peripherals/sd</text>
<text text-anchor="middle" x="474" y="-7" font-family="Helvetica,sans-Serif" font-size="10.00">_card.cpp</text>
</a>
</g>
</g>
<!-- Node4&#45;&gt;Node7 -->
<g id="edge8" class="edge">
<title>Node4&#45;&gt;Node7</title>
<path fill="none" stroke="#63b8ff" d="M474,-66.91C474,-58.47 474,-49.1 474,-41.07"/>
<polygon fill="#63b8ff" stroke="#63b8ff" points="470.5,-66.94 474,-76.94 477.5,-66.94 470.5,-66.94"/>
</g>
<!-- Node8 -->
<g id="node8" class="node">
<title>Node8</title>
<g id="a_node8"><a xlink:href="sdi12_8cpp.html" target="_top" xlink:title="SDI&#45;12 command line interface handler.">
<polygon fill="white" stroke="#666666" points="690,-35.5 552,-35.5 552,-5.5 690,-5.5 690,-35.5"/>
<text text-anchor="start" x="560" y="-23.5" font-family="Helvetica,sans-Serif" font-size="10.00">firmware/wombat/src</text>
<text text-anchor="middle" x="621" y="-12.5" font-family="Helvetica,sans-Serif" font-size="10.00">/cli/peripherals/sdi12.cpp</text>
</a>
</g>
</g>
<!-- Node4&#45;&gt;Node8 -->
<g id="edge9" class="edge">
<title>Node4&#45;&gt;Node8</title>
<path fill="none" stroke="#63b8ff" d="M512.81,-72.65C537.39,-61.03 568.69,-46.23 591.3,-35.54"/>
<polygon fill="#63b8ff" stroke="#63b8ff" points="511.29,-69.5 503.75,-76.94 514.28,-75.83 511.29,-69.5"/>
</g>
<!-- Node9 -->
<g id="node9" class="node">
<title>Node9</title>
<g id="a_node9"><a xlink:href="main_8cpp.html" target="_top" xlink:title=" ">
<polygon fill="white" stroke="#666666" points="828,-35.5 708,-35.5 708,-5.5 828,-5.5 828,-35.5"/>
<text text-anchor="start" x="716" y="-23.5" font-family="Helvetica,sans-Serif" font-size="10.00">firmware/wombat/src</text>
<text text-anchor="middle" x="768" y="-12.5" font-family="Helvetica,sans-Serif" font-size="10.00">/main.cpp</text>
</a>
</g>
</g>
<!-- Node4&#45;&gt;Node9 -->
<g id="edge10" class="edge">
<title>Node4&#45;&gt;Node9</title>
<path fill="none" stroke="#63b8ff" d="M552.1,-74.78C595.5,-65.49 650.4,-53.26 699,-41 705.64,-39.33 712.61,-37.47 719.46,-35.59"/>
<polygon fill="#63b8ff" stroke="#63b8ff" points="551.22,-71.39 542.17,-76.9 552.68,-78.24 551.22,-71.39"/>
</g>
<!-- Node10 -->
<g id="node10" class="node">
<title>Node10</title>
<g id="a_node10"><a xlink:href="mqtt__stack_8cpp.html" target="_top" xlink:title=" ">
<polygon fill="white" stroke="#666666" points="966,-35.5 846,-35.5 846,-5.5 966,-5.5 966,-35.5"/>
<text text-anchor="start" x="854" y="-23.5" font-family="Helvetica,sans-Serif" font-size="10.00">firmware/wombat/src</text>
<text text-anchor="middle" x="906" y="-12.5" font-family="Helvetica,sans-Serif" font-size="10.00">/mqtt_stack.cpp</text>
</a>
</g>
</g>
<!-- Node4&#45;&gt;Node10 -->
<g id="edge11" class="edge">
<title>Node4&#45;&gt;Node10</title>
<path fill="none" stroke="#63b8ff" d="M554.71,-76.95C681.12,-58.46 715.92,-65.67 837,-41 844.44,-39.48 852.25,-37.58 859.84,-35.57"/>
<polygon fill="#63b8ff" stroke="#63b8ff" points="554.02,-73.52 544.64,-78.45 555.05,-80.44 554.02,-73.52"/>
</g>
</g>
</svg>
