<?xml version="1.0" encoding="UTF-8" standalone="no"?>
<!DOCTYPE svg PUBLIC "-//W3C//DTD SVG 1.1//EN"
 "http://www.w3.org/Graphics/SVG/1.1/DTD/svg11.dtd">
<!-- Generated by graphviz version 2.43.0 (0)
 -->
<!-- Title: firmware/wombat/include/bluetooth/server.h Pages: 1 -->
<svg width="1993pt" height="324pt"
 viewBox="0.00 0.00 1993.00 324.00" xmlns="http://www.w3.org/2000/svg" xmlns:xlink="http://www.w3.org/1999/xlink">
<g id="graph0" class="graph" transform="scale(1 1) rotate(0) translate(4 320)">
<title>firmware/wombat/include/bluetooth/server.h</title>
<!-- Node1 -->
<g id="node1" class="node">
<title>Node1</title>
<g id="a_node1"><a xlink:title=" ">
<polygon fill="#999999" stroke="#666666" points="412,-316 271,-316 271,-286 412,-286 412,-316"/>
<text text-anchor="start" x="279" y="-304" font-family="Helvetica,sans-Serif" font-size="10.00">firmware/wombat/include</text>
<text text-anchor="middle" x="341.5" y="-293" font-family="Helvetica,sans-Serif" font-size="10.00">/bluetooth/server.h</text>
</a>
</g>
</g>
<!-- Node2 -->
<g id="node2" class="node">
<title>Node2</title>
<g id="a_node2"><a xlink:title=" ">
<polygon fill="#e0e0e0" stroke="#999999" points="77,-250 0,-250 0,-231 77,-231 77,-250"/>
<text text-anchor="middle" x="38.5" y="-238" font-family="Helvetica,sans-Serif" font-size="10.00">BLEDevice.h</text>
</a>
</g>
</g>
<!-- Node1&#45;&gt;Node2 -->
<g id="edge1" class="edge">
<title>Node1&#45;&gt;Node2</title>
<path fill="none" stroke="#63b8ff" d="M270.84,-286.36C214.4,-275.46 136.79,-260.48 87.13,-250.89"/>
<polygon fill="#63b8ff" stroke="#63b8ff" points="87.76,-247.45 77.28,-248.99 86.43,-254.32 87.76,-247.45"/>
</g>
<!-- Node3 -->
<g id="node3" class="node">
<title>Node3</title>
<g id="a_node3"><a xlink:title=" ">
<polygon fill="#e0e0e0" stroke="#999999" points="183.5,-189.5 109.5,-189.5 109.5,-170.5 183.5,-170.5 183.5,-189.5"/>
<text text-anchor="middle" x="146.5" y="-177.5" font-family="Helvetica,sans-Serif" font-size="10.00">BLEServer.h</text>
</a>
</g>
</g>
<!-- Node1&#45;&gt;Node3 -->
<g id="edge2" class="edge">
<title>Node1&#45;&gt;Node3</title>
<path fill="none" stroke="#63b8ff" d="M307.82,-285.88C287.01,-276.65 260.07,-263.79 237.5,-250 210.6,-233.57 182.02,-210.93 164.21,-196.14"/>
<polygon fill="#63b8ff" stroke="#63b8ff" points="166.3,-193.32 156.39,-189.57 161.8,-198.68 166.3,-193.32"/>
</g>
<!-- Node4 -->
<g id="node4" class="node">
<title>Node4</title>
<g id="a_node4"><a xlink:title=" ">
<polygon fill="#e0e0e0" stroke="#999999" points="1309.5,-250 1243.5,-250 1243.5,-231 1309.5,-231 1309.5,-250"/>
<text text-anchor="middle" x="1276.5" y="-238" font-family="Helvetica,sans-Serif" font-size="10.00">BLEUtils.h</text>
</a>
</g>
</g>
<!-- Node1&#45;&gt;Node4 -->
<g id="edge3" class="edge">
<title>Node1&#45;&gt;Node4</title>
<path fill="none" stroke="#63b8ff" d="M412.26,-298.96C563.02,-296.1 926.84,-285.75 1229.5,-250 1230.77,-249.85 1232.07,-249.69 1233.37,-249.51"/>
<polygon fill="#63b8ff" stroke="#63b8ff" points="1234.08,-252.94 1243.45,-248 1233.04,-246.02 1234.08,-252.94"/>
</g>
<!-- Node5 -->
<g id="node5" class="node">
<title>Node5</title>
<g id="a_node5"><a xlink:title=" ">
<polygon fill="#e0e0e0" stroke="#999999" points="437.5,-189.5 369.5,-189.5 369.5,-170.5 437.5,-170.5 437.5,-189.5"/>
<text text-anchor="middle" x="403.5" y="-177.5" font-family="Helvetica,sans-Serif" font-size="10.00">BLE2902.h</text>
</a>
</g>
</g>
<!-- Node1&#45;&gt;Node5 -->
<g id="edge4" class="edge">
<title>Node1&#45;&gt;Node5</title>
<path fill="none" stroke="#63b8ff" d="M348.86,-285.88C360.19,-264.12 381.92,-222.41 394.29,-198.67"/>
<polygon fill="#63b8ff" stroke="#63b8ff" points="397.44,-200.2 398.96,-189.71 391.24,-196.96 397.44,-200.2"/>
</g>
<!-- Node6 -->
<g id="node6" class="node">
<title>Node6</title>
<g id="a_node6"><a xlink:href="uart_8h.html" target="_top" xlink:title=" ">
<polygon fill="white" stroke="#666666" points="190,-250 95,-250 95,-231 190,-231 190,-250"/>
<text text-anchor="middle" x="142.5" y="-238" font-family="Helvetica,sans-Serif" font-size="10.00">bluetooth/uart.h</text>
</a>
</g>
</g>
<!-- Node1&#45;&gt;Node6 -->
<g id="edge5" class="edge">
<title>Node1&#45;&gt;Node6</title>
<path fill="none" stroke="#63b8ff" d="M287.98,-285.99C252.49,-275.94 207.08,-262.55 176.44,-253.1"/>
<polygon fill="#63b8ff" stroke="#63b8ff" points="177.25,-249.68 166.66,-250.05 175.17,-256.37 177.25,-249.68"/>
</g>
<!-- Node10 -->
<g id="node10" class="node">
<title>Node10</title>
<g id="a_node10"><a xlink:href="device_8h.html" target="_top" xlink:title=" ">
<polygon fill="white" stroke="#666666" points="354,-250 247,-250 247,-231 354,-231 354,-250"/>
<text text-anchor="middle" x="300.5" y="-238" font-family="Helvetica,sans-Serif" font-size="10.00">bluetooth/device.h</text>
</a>
</g>
</g>
<!-- Node1&#45;&gt;Node10 -->
<g id="edge13" class="edge">
<title>Node1&#45;&gt;Node10</title>
<path fill="none" stroke="#63b8ff" d="M331.58,-285.84C325.81,-277.61 318.5,-267.18 312.42,-258.51"/>
<polygon fill="#63b8ff" stroke="#63b8ff" points="315.25,-256.45 306.64,-250.27 309.52,-260.46 315.25,-256.45"/>
</g>
<!-- Node11 -->
<g id="node11" class="node">
<title>Node11</title>
<g id="a_node11"><a xlink:href="power__monitoring_8h.html" target="_top" xlink:title=" ">
<polygon fill="white" stroke="#666666" points="574.5,-250 410.5,-250 410.5,-231 574.5,-231 574.5,-250"/>
<text text-anchor="middle" x="492.5" y="-238" font-family="Helvetica,sans-Serif" font-size="10.00">bluetooth/power_monitoring.h</text>
</a>
</g>
</g>
<!-- Node1&#45;&gt;Node11 -->
<g id="edge18" class="edge">
<title>Node1&#45;&gt;Node11</title>
<path fill="none" stroke="#63b8ff" d="M377.67,-285.99C402.97,-276.18 436.46,-263.21 460.74,-253.81"/>
<polygon fill="#63b8ff" stroke="#63b8ff" points="462.14,-257.02 470.2,-250.14 459.61,-250.49 462.14,-257.02"/>
</g>
<!-- Node15 -->
<g id="node15" class="node">
<title>Node15</title>
<g id="a_node15"><a xlink:href="_c_l_i_8h.html" target="_top" xlink:title=" ">
<polygon fill="white" stroke="#666666" points="1187,-250 1132,-250 1132,-231 1187,-231 1187,-250"/>
<text text-anchor="middle" x="1159.5" y="-238" font-family="Helvetica,sans-Serif" font-size="10.00">cli/CLI.h</text>
</a>
</g>
</g>
<!-- Node1&#45;&gt;Node15 -->
<g id="edge29" class="edge">
<title>Node1&#45;&gt;Node15</title>
<path fill="none" stroke="#63b8ff" d="M412.31,-294.94C579.54,-282.98 994.49,-253.3 1121.77,-244.2"/>
<polygon fill="#63b8ff" stroke="#63b8ff" points="1122.09,-247.68 1131.81,-243.48 1121.59,-240.7 1122.09,-247.68"/>
</g>
<!-- Node6&#45;&gt;Node1 -->
<g id="edge12" class="edge">
<title>Node6&#45;&gt;Node1</title>
<path fill="none" stroke="#63b8ff" d="M176.54,-250.05C207.74,-258.67 254.2,-272.21 289.92,-283.02"/>
<polygon fill="#63b8ff" stroke="#63b8ff" points="289.11,-286.43 299.69,-285.99 291.14,-279.73 289.11,-286.43"/>
</g>
<!-- Node6&#45;&gt;Node3 -->
<g id="edge8" class="edge">
<title>Node6&#45;&gt;Node3</title>
<path fill="none" stroke="#63b8ff" d="M143.09,-230.87C143.65,-222.75 144.5,-210.31 145.21,-199.89"/>
<polygon fill="#63b8ff" stroke="#63b8ff" points="148.72,-199.88 145.91,-189.67 141.73,-199.41 148.72,-199.88"/>
</g>
<!-- Node6&#45;&gt;Node5 -->
<g id="edge9" class="edge">
<title>Node6&#45;&gt;Node5</title>
<path fill="none" stroke="#63b8ff" d="M190.24,-231.21C234.44,-223.19 301.82,-210.05 359.5,-195 362.34,-194.26 365.26,-193.45 368.19,-192.59"/>
<polygon fill="#63b8ff" stroke="#63b8ff" points="369.49,-195.86 378.04,-189.6 367.45,-189.16 369.49,-195.86"/>
</g>
<!-- Node7 -->
<g id="node7" class="node">
<title>Node7</title>
<g id="a_node7"><a xlink:title=" ">
<polygon fill="#e0e0e0" stroke="#999999" points="595,-19 532,-19 532,0 595,0 595,-19"/>
<text text-anchor="middle" x="563.5" y="-7" font-family="Helvetica,sans-Serif" font-size="10.00">Arduino.h</text>
</a>
</g>
</g>
<!-- Node6&#45;&gt;Node7 -->
<g id="edge6" class="edge">
<title>Node6&#45;&gt;Node7</title>
<path fill="none" stroke="#63b8ff" d="M131.05,-230.87C95.08,-202.77 -10.23,-112.43 42.5,-55 74.68,-19.95 403.64,-12.46 521.65,-10.9"/>
<polygon fill="#63b8ff" stroke="#63b8ff" points="521.79,-14.4 531.74,-10.78 521.7,-7.4 521.79,-14.4"/>
</g>
<!-- Node8 -->
<g id="node8" class="node">
<title>Node8</title>
<g id="a_node8"><a xlink:title=" ">
<polygon fill="#e0e0e0" stroke="#999999" points="351,-189.5 240,-189.5 240,-170.5 351,-170.5 351,-189.5"/>
<text text-anchor="middle" x="295.5" y="-177.5" font-family="Helvetica,sans-Serif" font-size="10.00">BLECharacteristic.h</text>
</a>
</g>
</g>
<!-- Node6&#45;&gt;Node8 -->
<g id="edge7" class="edge">
<title>Node6&#45;&gt;Node8</title>
<path fill="none" stroke="#63b8ff" d="M164.75,-230.99C190.81,-221.03 234.18,-204.45 263.77,-193.13"/>
<polygon fill="#63b8ff" stroke="#63b8ff" points="265.14,-196.36 273.23,-189.52 262.64,-189.82 265.14,-196.36"/>
</g>
<!-- Node9 -->
<g id="node9" class="node">
<title>Node9</title>
<g id="a_node9"><a xlink:href="tones_8h.html" target="_top" xlink:title=" ">
<polygon fill="white" stroke="#666666" points="183,-74 52,-74 52,-55 183,-55 183,-74"/>
<text text-anchor="middle" x="117.5" y="-62" font-family="Helvetica,sans-Serif" font-size="10.00">audio&#45;feedback/tones.h</text>
</a>
</g>
</g>
<!-- Node6&#45;&gt;Node9 -->
<g id="edge10" class="edge">
<title>Node6&#45;&gt;Node9</title>
<path fill="none" stroke="#63b8ff" d="M130.29,-230.86C120.15,-222.88 106.46,-210.01 100.5,-195 85.55,-157.39 99.71,-109.27 109.66,-83.58"/>
<polygon fill="#63b8ff" stroke="#63b8ff" points="113.02,-84.62 113.57,-74.04 106.54,-81.97 113.02,-84.62"/>
</g>
<!-- Node9&#45;&gt;Node7 -->
<g id="edge11" class="edge">
<title>Node9&#45;&gt;Node7</title>
<path fill="none" stroke="#63b8ff" d="M183.31,-55.68C276.34,-44.62 443.64,-24.74 521.51,-15.49"/>
<polygon fill="#63b8ff" stroke="#63b8ff" points="522.37,-18.91 531.88,-14.26 521.54,-11.96 522.37,-18.91"/>
</g>
<!-- Node10&#45;&gt;Node3 -->
<g id="edge16" class="edge">
<title>Node10&#45;&gt;Node3</title>
<path fill="none" stroke="#63b8ff" d="M278.11,-230.99C251.88,-221.03 208.22,-204.45 178.44,-193.13"/>
<polygon fill="#63b8ff" stroke="#63b8ff" points="179.51,-189.8 168.92,-189.52 177.03,-196.34 179.51,-189.8"/>
</g>
<!-- Node10&#45;&gt;Node5 -->
<g id="edge17" class="edge">
<title>Node10&#45;&gt;Node5</title>
<path fill="none" stroke="#63b8ff" d="M315.7,-230.87C332.51,-221.32 359.82,-205.81 379.52,-194.62"/>
<polygon fill="#63b8ff" stroke="#63b8ff" points="381.27,-197.65 388.24,-189.67 377.82,-191.56 381.27,-197.65"/>
</g>
<!-- Node10&#45;&gt;Node7 -->
<g id="edge14" class="edge">
<title>Node10&#45;&gt;Node7</title>
<path fill="none" stroke="#63b8ff" d="M275.69,-230.95C259.66,-223.99 240.07,-212.42 230.5,-195 224.08,-183.31 223.33,-176.24 230.5,-165 295.71,-62.86 447.77,-27.21 521.68,-15.63"/>
<polygon fill="#63b8ff" stroke="#63b8ff" points="522.62,-19.03 532,-14.09 521.59,-12.11 522.62,-19.03"/>
</g>
<!-- Node10&#45;&gt;Node8 -->
<g id="edge15" class="edge">
<title>Node10&#45;&gt;Node8</title>
<path fill="none" stroke="#63b8ff" d="M299.76,-230.87C299.07,-222.75 298,-210.31 297.11,-199.89"/>
<polygon fill="#63b8ff" stroke="#63b8ff" points="300.58,-199.33 296.24,-189.67 293.61,-199.93 300.58,-199.33"/>
</g>
<!-- Node11&#45;&gt;Node3 -->
<g id="edge21" class="edge">
<title>Node11&#45;&gt;Node3</title>
<path fill="none" stroke="#63b8ff" d="M442.19,-230.99C375.47,-219.71 258.6,-199.95 193.56,-188.96"/>
<polygon fill="#63b8ff" stroke="#63b8ff" points="194.03,-185.49 183.59,-187.27 192.86,-192.39 194.03,-185.49"/>
</g>
<!-- Node11&#45;&gt;Node5 -->
<g id="edge22" class="edge">
<title>Node11&#45;&gt;Node5</title>
<path fill="none" stroke="#63b8ff" d="M479.37,-230.87C465.17,-221.54 442.3,-206.51 425.38,-195.38"/>
<polygon fill="#63b8ff" stroke="#63b8ff" points="426.97,-192.24 416.69,-189.67 423.12,-198.08 426.97,-192.24"/>
</g>
<!-- Node11&#45;&gt;Node7 -->
<g id="edge19" class="edge">
<title>Node11&#45;&gt;Node7</title>
<path fill="none" stroke="#63b8ff" d="M489.63,-230.66C485.48,-216.58 478.9,-188.27 484.5,-165 497.44,-111.29 532.38,-55.25 551.16,-27.78"/>
<polygon fill="#63b8ff" stroke="#63b8ff" points="554.22,-29.51 557.06,-19.3 548.48,-25.51 554.22,-29.51"/>
</g>
<!-- Node11&#45;&gt;Node8 -->
<g id="edge20" class="edge">
<title>Node11&#45;&gt;Node8</title>
<path fill="none" stroke="#63b8ff" d="M463.85,-230.99C429.57,-220.81 372.02,-203.72 333.9,-192.4"/>
<polygon fill="#63b8ff" stroke="#63b8ff" points="334.76,-189.01 324.18,-189.52 332.77,-195.72 334.76,-189.01"/>
</g>
<!-- Node12 -->
<g id="node12" class="node">
<title>Node12</title>
<g id="a_node12"><a xlink:href="solar_8h.html" target="_top" xlink:title=" ">
<polygon fill="white" stroke="#666666" points="633.5,-189.5 493.5,-189.5 493.5,-170.5 633.5,-170.5 633.5,-189.5"/>
<text text-anchor="middle" x="563.5" y="-177.5" font-family="Helvetica,sans-Serif" font-size="10.00">power_monitoring/solar.h</text>
</a>
</g>
</g>
<!-- Node11&#45;&gt;Node12 -->
<g id="edge23" class="edge">
<title>Node11&#45;&gt;Node12</title>
<path fill="none" stroke="#63b8ff" d="M502.98,-230.87C513.99,-221.8 531.54,-207.34 544.91,-196.32"/>
<polygon fill="#63b8ff" stroke="#63b8ff" points="547.49,-198.73 552.98,-189.67 543.04,-193.33 547.49,-198.73"/>
</g>
<!-- Node14 -->
<g id="node14" class="node">
<title>Node14</title>
<g id="a_node14"><a xlink:href="battery_8h.html" target="_top" xlink:title=" ">
<polygon fill="white" stroke="#666666" points="803,-189.5 652,-189.5 652,-170.5 803,-170.5 803,-189.5"/>
<text text-anchor="middle" x="727.5" y="-177.5" font-family="Helvetica,sans-Serif" font-size="10.00">power_monitoring/battery.h</text>
</a>
</g>
</g>
<!-- Node11&#45;&gt;Node14 -->
<g id="edge26" class="edge">
<title>Node11&#45;&gt;Node14</title>
<path fill="none" stroke="#63b8ff" d="M526.67,-230.99C568.09,-220.68 637.98,-203.28 683.42,-191.97"/>
<polygon fill="#63b8ff" stroke="#63b8ff" points="684.43,-195.33 693.29,-189.52 682.74,-188.54 684.43,-195.33"/>
</g>
<!-- Node12&#45;&gt;Node7 -->
<g id="edge24" class="edge">
<title>Node12&#45;&gt;Node7</title>
<path fill="none" stroke="#63b8ff" d="M563.5,-170.41C563.5,-144.39 563.5,-65.97 563.5,-29.51"/>
<polygon fill="#63b8ff" stroke="#63b8ff" points="567,-29.27 563.5,-19.27 560,-29.27 567,-29.27"/>
</g>
<!-- Node13 -->
<g id="node13" class="node">
<title>Node13</title>
<g id="a_node13"><a xlink:title=" ">
<polygon fill="#e0e0e0" stroke="#999999" points="698,-129 593,-129 593,-110 698,-110 698,-129"/>
<text text-anchor="middle" x="645.5" y="-117" font-family="Helvetica,sans-Serif" font-size="10.00">Adafruit_INA219.h</text>
</a>
</g>
</g>
<!-- Node12&#45;&gt;Node13 -->
<g id="edge25" class="edge">
<title>Node12&#45;&gt;Node13</title>
<path fill="none" stroke="#63b8ff" d="M575.6,-170.37C588.56,-161.12 609.36,-146.28 624.9,-135.19"/>
<polygon fill="#63b8ff" stroke="#63b8ff" points="627.24,-137.82 633.35,-129.17 623.18,-132.13 627.24,-137.82"/>
</g>
<!-- Node14&#45;&gt;Node7 -->
<g id="edge27" class="edge">
<title>Node14&#45;&gt;Node7</title>
<path fill="none" stroke="#63b8ff" d="M726.67,-170.12C724.98,-156.12 720.06,-128.63 706.5,-110 676.82,-69.22 625.13,-39.35 592.7,-23.48"/>
<polygon fill="#63b8ff" stroke="#63b8ff" points="593.83,-20.14 583.3,-19.01 590.83,-26.46 593.83,-20.14"/>
</g>
<!-- Node14&#45;&gt;Node13 -->
<g id="edge28" class="edge">
<title>Node14&#45;&gt;Node13</title>
<path fill="none" stroke="#63b8ff" d="M715.4,-170.37C702.44,-161.12 681.64,-146.28 666.1,-135.19"/>
<polygon fill="#63b8ff" stroke="#63b8ff" points="667.82,-132.13 657.65,-129.17 663.76,-137.82 667.82,-132.13"/>
</g>
<!-- Node15&#45;&gt;Node7 -->
<g id="edge30" class="edge">
<title>Node15&#45;&gt;Node7</title>
<path fill="none" stroke="#63b8ff" d="M1131.77,-240.24C1076.06,-240.72 947.59,-236.75 850.5,-195 844.74,-192.52 678.92,-58.15 673.5,-55 650.34,-41.53 622.31,-30.26 600.35,-22.43"/>
<polygon fill="#63b8ff" stroke="#63b8ff" points="601.32,-19.06 590.72,-19.08 599.02,-25.67 601.32,-19.06"/>
</g>
<!-- Node16 -->
<g id="node16" class="node">
<title>Node16</title>
<g id="a_node16"><a xlink:title=" ">
<polygon fill="#e0e0e0" stroke="#999999" points="1351,-129 1238,-129 1238,-110 1351,-110 1351,-129"/>
<text text-anchor="middle" x="1294.5" y="-117" font-family="Helvetica,sans-Serif" font-size="10.00">freertos/FreeRTOS.h</text>
</a>
</g>
</g>
<!-- Node15&#45;&gt;Node16 -->
<g id="edge31" class="edge">
<title>Node15&#45;&gt;Node16</title>
<path fill="none" stroke="#63b8ff" d="M1159.28,-230.98C1159.34,-215.81 1161.64,-183.95 1178.5,-165 1192.85,-148.87 1213.72,-138.55 1233.82,-131.96"/>
<polygon fill="#63b8ff" stroke="#63b8ff" points="1235.02,-135.25 1243.58,-129.02 1233,-128.55 1235.02,-135.25"/>
</g>
<!-- Node17 -->
<g id="node17" class="node">
<title>Node17</title>
<g id="a_node17"><a xlink:title=" ">
<polygon fill="#e0e0e0" stroke="#999999" points="1745,-129 1638,-129 1638,-110 1745,-110 1745,-129"/>
<text text-anchor="middle" x="1691.5" y="-117" font-family="Helvetica,sans-Serif" font-size="10.00">cli/FreeRTOS_CLI.h</text>
</a>
</g>
</g>
<!-- Node15&#45;&gt;Node17 -->
<g id="edge32" class="edge">
<title>Node15&#45;&gt;Node17</title>
<path fill="none" stroke="#63b8ff" d="M1187.25,-236.01C1201.38,-234.32 1218.83,-232.37 1234.5,-231 1299.71,-225.31 1777.65,-242.68 1822.5,-195 1851.03,-164.66 1793.44,-143.25 1745.79,-131.39"/>
<polygon fill="#63b8ff" stroke="#63b8ff" points="1746.34,-127.93 1735.8,-129.01 1744.72,-134.73 1746.34,-127.93"/>
</g>
<!-- Node18 -->
<g id="node18" class="node">
<title>Node18</title>
<g id="a_node18"><a xlink:href="cat-m1_8h.html" target="_top" xlink:title=" ">
<polygon fill="white" stroke="#666666" points="1653.5,-189.5 1521.5,-189.5 1521.5,-170.5 1653.5,-170.5 1653.5,-189.5"/>
<text text-anchor="middle" x="1587.5" y="-177.5" font-family="Helvetica,sans-Serif" font-size="10.00">cli/peripherals/cat&#45;m1.h</text>
</a>
</g>
</g>
<!-- Node15&#45;&gt;Node18 -->
<g id="edge33" class="edge">
<title>Node15&#45;&gt;Node18</title>
<path fill="none" stroke="#63b8ff" d="M1187.18,-236.23C1258.91,-227.71 1449.56,-204.83 1512.5,-195 1519.61,-193.89 1527.08,-192.62 1534.43,-191.31"/>
<polygon fill="#63b8ff" stroke="#63b8ff" points="1535.13,-194.74 1544.35,-189.51 1533.88,-187.85 1535.13,-194.74"/>
</g>
<!-- Node24 -->
<g id="node24" class="node">
<title>Node24</title>
<g id="a_node24"><a xlink:href="sdi12_8h.html" target="_top" xlink:title=" ">
<polygon fill="white" stroke="#666666" points="1795.5,-189.5 1671.5,-189.5 1671.5,-170.5 1795.5,-170.5 1795.5,-189.5"/>
<text text-anchor="middle" x="1733.5" y="-177.5" font-family="Helvetica,sans-Serif" font-size="10.00">cli/peripherals/sdi12.h</text>
</a>
</g>
</g>
<!-- Node15&#45;&gt;Node24 -->
<g id="edge43" class="edge">
<title>Node15&#45;&gt;Node24</title>
<path fill="none" stroke="#63b8ff" d="M1187.26,-236.16C1201.39,-234.51 1218.85,-232.54 1234.5,-231 1424.47,-212.25 1473.46,-221.51 1662.5,-195 1669.6,-194 1677.06,-192.76 1684.37,-191.42"/>
<polygon fill="#63b8ff" stroke="#63b8ff" points="1685.03,-194.86 1694.2,-189.56 1683.72,-187.98 1685.03,-194.86"/>
</g>
<!-- Node29 -->
<g id="node29" class="node">
<title>Node29</title>
<g id="a_node29"><a xlink:href="bluetooth_8h.html" target="_top" xlink:title=" ">
<polygon fill="white" stroke="#666666" points="1503.5,-189.5 1359.5,-189.5 1359.5,-170.5 1503.5,-170.5 1503.5,-189.5"/>
<text text-anchor="middle" x="1431.5" y="-177.5" font-family="Helvetica,sans-Serif" font-size="10.00">cli/peripherals/bluetooth.h</text>
</a>
</g>
</g>
<!-- Node15&#45;&gt;Node29 -->
<g id="edge54" class="edge">
<title>Node15&#45;&gt;Node29</title>
<path fill="none" stroke="#63b8ff" d="M1187.08,-233.57C1232.69,-223.76 1324.48,-204.02 1381.68,-191.72"/>
<polygon fill="#63b8ff" stroke="#63b8ff" points="1382.55,-195.11 1391.59,-189.58 1381.07,-188.27 1382.55,-195.11"/>
</g>
<!-- Node30 -->
<g id="node30" class="node">
<title>Node30</title>
<g id="a_node30"><a xlink:href="acquisition__intervals_8h.html" target="_top" xlink:title=" ">
<polygon fill="white" stroke="#666666" points="1341.5,-195 1187.5,-195 1187.5,-165 1341.5,-165 1341.5,-195"/>
<text text-anchor="start" x="1195.5" y="-183" font-family="Helvetica,sans-Serif" font-size="10.00">cli/device_config/acquisition</text>
<text text-anchor="middle" x="1264.5" y="-172" font-family="Helvetica,sans-Serif" font-size="10.00">_intervals.h</text>
</a>
</g>
</g>
<!-- Node15&#45;&gt;Node30 -->
<g id="edge59" class="edge">
<title>Node15&#45;&gt;Node30</title>
<path fill="none" stroke="#63b8ff" d="M1174.99,-230.87C1189.5,-222.78 1211.69,-210.42 1230.34,-200.03"/>
<polygon fill="#63b8ff" stroke="#63b8ff" points="1232.13,-203.04 1239.17,-195.11 1228.73,-196.92 1232.13,-203.04"/>
</g>
<!-- Node33 -->
<g id="node33" class="node">
<title>Node33</title>
<g id="a_node33"><a xlink:href="mqtt__cli_8h.html" target="_top" xlink:title=" ">
<polygon fill="white" stroke="#666666" points="1131.5,-195 1007.5,-195 1007.5,-165 1131.5,-165 1131.5,-195"/>
<text text-anchor="start" x="1015.5" y="-183" font-family="Helvetica,sans-Serif" font-size="10.00">cli/device_config/mqtt</text>
<text text-anchor="middle" x="1069.5" y="-172" font-family="Helvetica,sans-Serif" font-size="10.00">_cli.h</text>
</a>
</g>
</g>
<!-- Node15&#45;&gt;Node33 -->
<g id="edge67" class="edge">
<title>Node15&#45;&gt;Node33</title>
<path fill="none" stroke="#63b8ff" d="M1146.22,-230.87C1134.01,-222.93 1115.46,-210.87 1099.65,-200.6"/>
<polygon fill="#63b8ff" stroke="#63b8ff" points="1101.51,-197.63 1091.21,-195.11 1097.69,-203.5 1101.51,-197.63"/>
</g>
<!-- Node34 -->
<g id="node34" class="node">
<title>Node34</title>
<g id="a_node34"><a xlink:href="config__cli_8h.html" target="_top" xlink:title=" ">
<polygon fill="white" stroke="#666666" points="989.5,-195 859.5,-195 859.5,-165 989.5,-165 989.5,-195"/>
<text text-anchor="start" x="867.5" y="-183" font-family="Helvetica,sans-Serif" font-size="10.00">cli/device_config/config</text>
<text text-anchor="middle" x="924.5" y="-172" font-family="Helvetica,sans-Serif" font-size="10.00">_cli.h</text>
</a>
</g>
</g>
<!-- Node15&#45;&gt;Node34 -->
<g id="edge69" class="edge">
<title>Node15&#45;&gt;Node34</title>
<path fill="none" stroke="#63b8ff" d="M1131.62,-232.56C1097.11,-223.97 1037.22,-209.06 990.69,-197.48"/>
<polygon fill="#63b8ff" stroke="#63b8ff" points="991.52,-194.08 980.98,-195.06 989.83,-200.87 991.52,-194.08"/>
</g>
<!-- Node18&#45;&gt;Node16 -->
<g id="edge34" class="edge">
<title>Node18&#45;&gt;Node16</title>
<path fill="none" stroke="#63b8ff" d="M1544.9,-170.49C1492.49,-160.03 1403.54,-142.27 1346.98,-130.98"/>
<polygon fill="#63b8ff" stroke="#63b8ff" points="1347.65,-127.54 1337.16,-129.02 1346.28,-134.41 1347.65,-127.54"/>
</g>
<!-- Node18&#45;&gt;Node17 -->
<g id="edge37" class="edge">
<title>Node18&#45;&gt;Node17</title>
<path fill="none" stroke="#63b8ff" d="M1602.85,-170.37C1619.82,-160.82 1647.4,-145.31 1667.29,-134.12"/>
<polygon fill="#63b8ff" stroke="#63b8ff" points="1669.09,-137.12 1676.09,-129.17 1665.66,-131.02 1669.09,-137.12"/>
</g>
<!-- Node19 -->
<g id="node19" class="node">
<title>Node19</title>
<g id="a_node19"><a xlink:title=" ">
<polygon fill="#e0e0e0" stroke="#999999" points="1537,-129 1476,-129 1476,-110 1537,-110 1537,-129"/>
<text text-anchor="middle" x="1506.5" y="-117" font-family="Helvetica,sans-Serif" font-size="10.00">Stream.h</text>
</a>
</g>
</g>
<!-- Node18&#45;&gt;Node19 -->
<g id="edge35" class="edge">
<title>Node18&#45;&gt;Node19</title>
<path fill="none" stroke="#63b8ff" d="M1575.55,-170.37C1562.75,-161.12 1542.2,-146.28 1526.85,-135.19"/>
<polygon fill="#63b8ff" stroke="#63b8ff" points="1528.66,-132.18 1518.5,-129.17 1524.56,-137.86 1528.66,-132.18"/>
</g>
<!-- Node20 -->
<g id="node20" class="node">
<title>Node20</title>
<g id="a_node20"><a xlink:title=" ">
<polygon fill="#e0e0e0" stroke="#999999" points="1458,-129 1369,-129 1369,-110 1458,-110 1458,-129"/>
<text text-anchor="middle" x="1413.5" y="-117" font-family="Helvetica,sans-Serif" font-size="10.00">StreamString.h</text>
</a>
</g>
</g>
<!-- Node18&#45;&gt;Node20 -->
<g id="edge36" class="edge">
<title>Node18&#45;&gt;Node20</title>
<path fill="none" stroke="#63b8ff" d="M1562.2,-170.49C1532.3,-160.44 1482.38,-143.66 1448.72,-132.34"/>
<polygon fill="#63b8ff" stroke="#63b8ff" points="1449.43,-128.89 1438.83,-129.02 1447.19,-135.52 1449.43,-128.89"/>
</g>
<!-- Node21 -->
<g id="node21" class="node">
<title>Node21</title>
<g id="a_node21"><a xlink:href="_c_a_t___m1_8h.html" target="_top" xlink:title=" ">
<polygon fill="white" stroke="#666666" points="1620,-129 1555,-129 1555,-110 1620,-110 1620,-129"/>
<text text-anchor="middle" x="1587.5" y="-117" font-family="Helvetica,sans-Serif" font-size="10.00">CAT_M1.h</text>
</a>
</g>
</g>
<!-- Node18&#45;&gt;Node21 -->
<g id="edge38" class="edge">
<title>Node18&#45;&gt;Node21</title>
<path fill="none" stroke="#63b8ff" d="M1587.5,-170.37C1587.5,-162.25 1587.5,-149.81 1587.5,-139.39"/>
<polygon fill="#63b8ff" stroke="#63b8ff" points="1591,-139.17 1587.5,-129.17 1584,-139.17 1591,-139.17"/>
</g>
<!-- Node22 -->
<g id="node22" class="node">
<title>Node22</title>
<g id="a_node22"><a xlink:title=" ">
<polygon fill="#e0e0e0" stroke="#999999" points="1580.5,-19 1532.5,-19 1532.5,0 1580.5,0 1580.5,-19"/>
<text text-anchor="middle" x="1556.5" y="-7" font-family="Helvetica,sans-Serif" font-size="10.00">Wire.h</text>
</a>
</g>
</g>
<!-- Node21&#45;&gt;Node22 -->
<g id="edge39" class="edge">
<title>Node21&#45;&gt;Node22</title>
<path fill="none" stroke="#63b8ff" d="M1584.96,-109.66C1579.92,-92.09 1568.54,-52.45 1561.8,-28.95"/>
<polygon fill="#63b8ff" stroke="#63b8ff" points="1565.11,-27.8 1558.99,-19.16 1558.38,-29.74 1565.11,-27.8"/>
</g>
<!-- Node23 -->
<g id="node23" class="node">
<title>Node23</title>
<g id="a_node23"><a xlink:href="_t_c_a9534_8h.html" target="_top" xlink:title=" ">
<polygon fill="white" stroke="#666666" points="1559.5,-74 1491.5,-74 1491.5,-55 1559.5,-55 1559.5,-74"/>
<text text-anchor="middle" x="1525.5" y="-62" font-family="Helvetica,sans-Serif" font-size="10.00">TCA9534.h</text>
</a>
</g>
</g>
<!-- Node21&#45;&gt;Node23 -->
<g id="edge40" class="edge">
<title>Node21&#45;&gt;Node23</title>
<path fill="none" stroke="#63b8ff" d="M1577.54,-109.98C1568.37,-102.15 1554.56,-90.34 1543.47,-80.86"/>
<polygon fill="#63b8ff" stroke="#63b8ff" points="1545.52,-78.01 1535.64,-74.17 1540.97,-83.33 1545.52,-78.01"/>
</g>
<!-- Node23&#45;&gt;Node7 -->
<g id="edge41" class="edge">
<title>Node23&#45;&gt;Node7</title>
<path fill="none" stroke="#63b8ff" d="M1491.26,-61.61C1344.21,-53.51 766.37,-21.68 605.35,-12.81"/>
<polygon fill="#63b8ff" stroke="#63b8ff" points="605.53,-9.31 595.36,-12.26 605.15,-16.3 605.53,-9.31"/>
</g>
<!-- Node23&#45;&gt;Node22 -->
<g id="edge42" class="edge">
<title>Node23&#45;&gt;Node22</title>
<path fill="none" stroke="#63b8ff" d="M1530.62,-54.75C1534.86,-47.49 1541.03,-36.95 1546.28,-27.98"/>
<polygon fill="#63b8ff" stroke="#63b8ff" points="1549.45,-29.49 1551.48,-19.09 1543.41,-25.95 1549.45,-29.49"/>
</g>
<!-- Node24&#45;&gt;Node16 -->
<g id="edge44" class="edge">
<title>Node24&#45;&gt;Node16</title>
<path fill="none" stroke="#63b8ff" d="M1693.05,-170.47C1683.08,-168.52 1672.43,-166.57 1662.5,-165 1531.81,-144.38 1495.81,-145.71 1361.49,-129.23"/>
<polygon fill="#63b8ff" stroke="#63b8ff" points="1361.57,-125.71 1351.22,-127.96 1360.71,-132.66 1361.57,-125.71"/>
</g>
<!-- Node24&#45;&gt;Node17 -->
<g id="edge49" class="edge">
<title>Node24&#45;&gt;Node17</title>
<path fill="none" stroke="#63b8ff" d="M1727.3,-170.37C1721.1,-161.73 1711.39,-148.2 1703.64,-137.42"/>
<polygon fill="#63b8ff" stroke="#63b8ff" points="1706.4,-135.25 1697.72,-129.17 1700.71,-139.33 1706.4,-135.25"/>
</g>
<!-- Node24&#45;&gt;Node19 -->
<g id="edge45" class="edge">
<title>Node24&#45;&gt;Node19</title>
<path fill="none" stroke="#63b8ff" d="M1700.49,-170.49C1659.77,-160 1590.55,-142.16 1546.75,-130.87"/>
<polygon fill="#63b8ff" stroke="#63b8ff" points="1547.56,-127.47 1537,-128.36 1545.81,-134.25 1547.56,-127.47"/>
</g>
<!-- Node24&#45;&gt;Node20 -->
<g id="edge46" class="edge">
<title>Node24&#45;&gt;Node20</title>
<path fill="none" stroke="#63b8ff" d="M1690.72,-170.44C1681.42,-168.61 1671.64,-166.72 1662.5,-165 1595.68,-152.44 1518.6,-138.8 1468.12,-129.97"/>
<polygon fill="#63b8ff" stroke="#63b8ff" points="1468.53,-126.49 1458.07,-128.22 1467.32,-133.39 1468.53,-126.49"/>
</g>
<!-- Node24&#45;&gt;Node24 -->
<g id="edge47" class="edge">
<title>Node24&#45;&gt;Node24</title>
<path fill="none" stroke="#63b8ff" d="M1763.04,-189.53C1787.72,-193.61 1813.5,-190.43 1813.5,-180 1813.5,-171 1794.28,-167.4 1773.15,-169.2"/>
<polygon fill="#63b8ff" stroke="#63b8ff" points="1772.53,-165.75 1763.04,-170.47 1773.4,-172.7 1772.53,-165.75"/>
</g>
<!-- Node25 -->
<g id="node25" class="node">
<title>Node25</title>
<g id="a_node25"><a xlink:title=" ">
<polygon fill="#e0e0e0" stroke="#999999" points="1809,-74 1716,-74 1716,-55 1809,-55 1809,-74"/>
<text text-anchor="middle" x="1762.5" y="-62" font-family="Helvetica,sans-Serif" font-size="10.00">dpiclimate&#45;12.h</text>
</a>
</g>
</g>
<!-- Node24&#45;&gt;Node25 -->
<g id="edge48" class="edge">
<title>Node24&#45;&gt;Node25</title>
<path fill="none" stroke="#63b8ff" d="M1737.96,-170.4C1742.83,-160.64 1750.46,-144.1 1754.5,-129 1758.41,-114.37 1760.43,-97.32 1761.46,-84.58"/>
<polygon fill="#63b8ff" stroke="#63b8ff" points="1764.97,-84.48 1762.15,-74.27 1757.99,-84.01 1764.97,-84.48"/>
</g>
<!-- Node26 -->
<g id="node26" class="node">
<title>Node26</title>
<g id="a_node26"><a xlink:href="_utils_8h.html" target="_top" xlink:title=" ">
<polygon fill="white" stroke="#666666" points="1869.5,-129 1821.5,-129 1821.5,-110 1869.5,-110 1869.5,-129"/>
<text text-anchor="middle" x="1845.5" y="-117" font-family="Helvetica,sans-Serif" font-size="10.00">Utils.h</text>
</a>
</g>
</g>
<!-- Node24&#45;&gt;Node26 -->
<g id="edge50" class="edge">
<title>Node24&#45;&gt;Node26</title>
<path fill="none" stroke="#63b8ff" d="M1750.03,-170.37C1768.47,-160.73 1798.54,-145.03 1820.01,-133.81"/>
<polygon fill="#63b8ff" stroke="#63b8ff" points="1821.66,-136.9 1828.91,-129.17 1818.42,-130.69 1821.66,-136.9"/>
</g>
<!-- Node26&#45;&gt;Node25 -->
<g id="edge53" class="edge">
<title>Node26&#45;&gt;Node25</title>
<path fill="none" stroke="#63b8ff" d="M1832.16,-109.98C1819.41,-101.84 1799.95,-89.41 1784.83,-79.76"/>
<polygon fill="#63b8ff" stroke="#63b8ff" points="1786.39,-76.6 1776.08,-74.17 1782.62,-82.5 1786.39,-76.6"/>
</g>
<!-- Node27 -->
<g id="node27" class="node">
<title>Node27</title>
<g id="a_node27"><a xlink:title=" ">
<polygon fill="#e0e0e0" stroke="#999999" points="1883.5,-74 1827.5,-74 1827.5,-55 1883.5,-55 1883.5,-74"/>
<text text-anchor="middle" x="1855.5" y="-62" font-family="Helvetica,sans-Serif" font-size="10.00">stddef.h</text>
</a>
</g>
</g>
<!-- Node26&#45;&gt;Node27 -->
<g id="edge51" class="edge">
<title>Node26&#45;&gt;Node27</title>
<path fill="none" stroke="#63b8ff" d="M1847.15,-109.75C1848.46,-102.8 1850.34,-92.85 1851.98,-84.13"/>
<polygon fill="#63b8ff" stroke="#63b8ff" points="1855.46,-84.56 1853.88,-74.09 1848.59,-83.27 1855.46,-84.56"/>
</g>
<!-- Node28 -->
<g id="node28" class="node">
<title>Node28</title>
<g id="a_node28"><a xlink:title=" ">
<polygon fill="#e0e0e0" stroke="#999999" points="1985,-74 1902,-74 1902,-55 1985,-55 1985,-74"/>
<text text-anchor="middle" x="1943.5" y="-62" font-family="Helvetica,sans-Serif" font-size="10.00">ArduinoJson.h</text>
</a>
</g>
</g>
<!-- Node26&#45;&gt;Node28 -->
<g id="edge52" class="edge">
<title>Node26&#45;&gt;Node28</title>
<path fill="none" stroke="#63b8ff" d="M1861.25,-109.98C1876.73,-101.61 1900.59,-88.7 1918.64,-78.95"/>
<polygon fill="#63b8ff" stroke="#63b8ff" points="1920.34,-82.01 1927.47,-74.17 1917.01,-75.85 1920.34,-82.01"/>
</g>
<!-- Node29&#45;&gt;Node1 -->
<g id="edge58" class="edge">
<title>Node29&#45;&gt;Node1</title>
<path fill="none" stroke="#63b8ff" d="M1387.29,-189.51C1346.85,-197.93 1285.69,-212.26 1234.5,-231 1216.39,-237.63 1214.15,-245.12 1195.5,-250 1050.96,-287.82 606.12,-297.08 422.28,-299.31"/>
<polygon fill="#63b8ff" stroke="#63b8ff" points="422.1,-295.81 412.14,-299.43 422.18,-302.81 422.1,-295.81"/>
</g>
<!-- Node29&#45;&gt;Node16 -->
<g id="edge55" class="edge">
<title>Node29&#45;&gt;Node16</title>
<path fill="none" stroke="#63b8ff" d="M1411.58,-170.49C1388.55,-160.66 1350.42,-144.38 1323.96,-133.08"/>
<polygon fill="#63b8ff" stroke="#63b8ff" points="1325.02,-129.72 1314.45,-129.02 1322.27,-136.16 1325.02,-129.72"/>
</g>
<!-- Node29&#45;&gt;Node19 -->
<g id="edge56" class="edge">
<title>Node29&#45;&gt;Node19</title>
<path fill="none" stroke="#63b8ff" d="M1442.57,-170.37C1454.31,-161.21 1473.09,-146.56 1487.26,-135.51"/>
<polygon fill="#63b8ff" stroke="#63b8ff" points="1489.66,-138.08 1495.39,-129.17 1485.35,-132.56 1489.66,-138.08"/>
</g>
<!-- Node29&#45;&gt;Node20 -->
<g id="edge57" class="edge">
<title>Node29&#45;&gt;Node20</title>
<path fill="none" stroke="#63b8ff" d="M1428.84,-170.37C1426.32,-162.16 1422.44,-149.54 1419.21,-139.05"/>
<polygon fill="#63b8ff" stroke="#63b8ff" points="1422.45,-137.7 1416.17,-129.17 1415.76,-139.75 1422.45,-137.7"/>
</g>
<!-- Node30&#45;&gt;Node16 -->
<g id="edge60" class="edge">
<title>Node30&#45;&gt;Node16</title>
<path fill="none" stroke="#63b8ff" d="M1271.76,-164.84C1275.85,-156.87 1280.99,-146.84 1285.36,-138.33"/>
<polygon fill="#63b8ff" stroke="#63b8ff" points="1288.56,-139.76 1290,-129.27 1282.33,-136.57 1288.56,-139.76"/>
</g>
<!-- Node30&#45;&gt;Node17 -->
<g id="edge63" class="edge">
<title>Node30&#45;&gt;Node17</title>
<path fill="none" stroke="#63b8ff" d="M1341.84,-166.29C1344.76,-165.85 1347.66,-165.41 1350.5,-165 1470.96,-147.43 1503.85,-145.58 1627.49,-129.26"/>
<polygon fill="#63b8ff" stroke="#63b8ff" points="1628.28,-132.68 1637.74,-127.9 1627.36,-125.74 1628.28,-132.68"/>
</g>
<!-- Node30&#45;&gt;Node19 -->
<g id="edge61" class="edge">
<title>Node30&#45;&gt;Node19</title>
<path fill="none" stroke="#63b8ff" d="M1322.47,-164.99C1366.84,-154.26 1426.92,-139.74 1466.18,-130.25"/>
<polygon fill="#63b8ff" stroke="#63b8ff" points="1467.03,-133.64 1475.93,-127.89 1465.39,-126.84 1467.03,-133.64"/>
</g>
<!-- Node30&#45;&gt;Node20 -->
<g id="edge62" class="edge">
<title>Node30&#45;&gt;Node20</title>
<path fill="none" stroke="#63b8ff" d="M1300.19,-164.99C1325.16,-155.18 1358.2,-142.21 1382.16,-132.81"/>
<polygon fill="#63b8ff" stroke="#63b8ff" points="1383.47,-136.05 1391.5,-129.14 1380.91,-129.54 1383.47,-136.05"/>
</g>
<!-- Node31 -->
<g id="node31" class="node">
<title>Node31</title>
<g id="a_node31"><a xlink:href="_device_config_8h.html" target="_top" xlink:title=" ">
<polygon fill="white" stroke="#666666" points="1082.5,-129 992.5,-129 992.5,-110 1082.5,-110 1082.5,-129"/>
<text text-anchor="middle" x="1037.5" y="-117" font-family="Helvetica,sans-Serif" font-size="10.00">DeviceConfig.h</text>
</a>
</g>
</g>
<!-- Node30&#45;&gt;Node31 -->
<g id="edge64" class="edge">
<title>Node30&#45;&gt;Node31</title>
<path fill="none" stroke="#63b8ff" d="M1210.13,-164.99C1170.44,-154.76 1117.38,-141.09 1080.61,-131.61"/>
<polygon fill="#63b8ff" stroke="#63b8ff" points="1081.25,-128.16 1070.69,-129.05 1079.5,-134.94 1081.25,-128.16"/>
</g>
<!-- Node31&#45;&gt;Node7 -->
<g id="edge65" class="edge">
<title>Node31&#45;&gt;Node7</title>
<path fill="none" stroke="#63b8ff" d="M1015.67,-109.98C980.39,-96.51 908.45,-70.27 845.5,-55 761.33,-34.58 660.68,-21.31 605.26,-14.93"/>
<polygon fill="#63b8ff" stroke="#63b8ff" points="605.46,-11.43 595.13,-13.79 604.67,-18.39 605.46,-11.43"/>
</g>
<!-- Node32 -->
<g id="node32" class="node">
<title>Node32</title>
<g id="a_node32"><a xlink:title=" ">
<polygon fill="#e0e0e0" stroke="#999999" points="1081,-74 994,-74 994,-55 1081,-55 1081,-74"/>
<text text-anchor="middle" x="1037.5" y="-62" font-family="Helvetica,sans-Serif" font-size="10.00">ArduinoJSON.h</text>
</a>
</g>
</g>
<!-- Node31&#45;&gt;Node32 -->
<g id="edge66" class="edge">
<title>Node31&#45;&gt;Node32</title>
<path fill="none" stroke="#63b8ff" d="M1037.5,-109.75C1037.5,-102.8 1037.5,-92.85 1037.5,-84.13"/>
<polygon fill="#63b8ff" stroke="#63b8ff" points="1041,-84.09 1037.5,-74.09 1034,-84.09 1041,-84.09"/>
</g>
<!-- Node33&#45;&gt;Node31 -->
<g id="edge68" class="edge">
<title>Node33&#45;&gt;Node31</title>
<path fill="none" stroke="#63b8ff" d="M1061.75,-164.84C1057.35,-156.78 1051.79,-146.62 1047.1,-138.06"/>
<polygon fill="#63b8ff" stroke="#63b8ff" points="1050.16,-136.36 1042.3,-129.27 1044.02,-139.72 1050.16,-136.36"/>
</g>
<!-- Node34&#45;&gt;Node31 -->
<g id="edge70" class="edge">
<title>Node34&#45;&gt;Node31</title>
<path fill="none" stroke="#63b8ff" d="M951.57,-164.99C969.75,-155.58 993.57,-143.24 1011.52,-133.95"/>
<polygon fill="#63b8ff" stroke="#63b8ff" points="1013.54,-136.84 1020.81,-129.14 1010.32,-130.63 1013.54,-136.84"/>
</g>
</g>
</svg>
