<?xml version="1.0" encoding="UTF-8" standalone="no"?>
<!DOCTYPE svg PUBLIC "-//W3C//DTD SVG 1.1//EN"
 "http://www.w3.org/Graphics/SVG/1.1/DTD/svg11.dtd">
<!-- Generated by graphviz version 2.43.0 (0)
 -->
<!-- Title: firmware/wombat/include/power_monitoring/solar.h Pages: 1 -->
<svg width="1236pt" height="379pt"
 viewBox="0.00 0.00 1235.50 379.00" xmlns="http://www.w3.org/2000/svg" xmlns:xlink="http://www.w3.org/1999/xlink">
<g id="graph0" class="graph" transform="scale(1 1) rotate(0) translate(4 375)">
<title>firmware/wombat/include/power_monitoring/solar.h</title>
<!-- Node1 -->
<g id="node1" class="node">
<title>Node1</title>
<g id="a_node1"><a xlink:title="Solar voltage and current monitoring using INA219 IC.">
<polygon fill="#999999" stroke="#666666" points="825,-371 682,-371 682,-341 825,-341 825,-371"/>
<text text-anchor="start" x="690" y="-359" font-family="Helvetica,sans-Serif" font-size="10.00">firmware/wombat/include</text>
<text text-anchor="middle" x="753.5" y="-348" font-family="Helvetica,sans-Serif" font-size="10.00">/power_monitoring/solar.h</text>
</a>
</g>
</g>
<!-- Node2 -->
<g id="node2" class="node">
<title>Node2</title>
<g id="a_node2"><a xlink:href="power__monitoring_8h.html" target="_top" xlink:title="Setup BluetoothLE power monitoring information.">
<polygon fill="white" stroke="#666666" points="494,-305 327,-305 327,-275 494,-275 494,-305"/>
<text text-anchor="start" x="335" y="-293" font-family="Helvetica,sans-Serif" font-size="10.00">firmware/wombat/include</text>
<text text-anchor="middle" x="410.5" y="-282" font-family="Helvetica,sans-Serif" font-size="10.00">/bluetooth/power_monitoring.h</text>
</a>
</g>
</g>
<!-- Node1&#45;&gt;Node2 -->
<g id="edge1" class="edge">
<title>Node1&#45;&gt;Node2</title>
<path fill="none" stroke="#63b8ff" d="M671.62,-339.72C615.11,-329.18 540.55,-315.27 485.57,-305.01"/>
<polygon fill="#63b8ff" stroke="#63b8ff" points="671.12,-343.19 681.6,-341.58 672.41,-336.31 671.12,-343.19"/>
</g>
<!-- Node13 -->
<g id="node13" class="node">
<title>Node13</title>
<g id="a_node13"><a xlink:href="globals_8h.html" target="_top" xlink:title=" ">
<polygon fill="white" stroke="#666666" points="824,-305 683,-305 683,-275 824,-275 824,-305"/>
<text text-anchor="start" x="691" y="-293" font-family="Helvetica,sans-Serif" font-size="10.00">firmware/wombat/include</text>
<text text-anchor="middle" x="753.5" y="-282" font-family="Helvetica,sans-Serif" font-size="10.00">/globals.h</text>
</a>
</g>
</g>
<!-- Node1&#45;&gt;Node13 -->
<g id="edge14" class="edge">
<title>Node1&#45;&gt;Node13</title>
<path fill="none" stroke="#63b8ff" d="M753.5,-330.54C753.5,-321.96 753.5,-312.61 753.5,-305.16"/>
<polygon fill="#63b8ff" stroke="#63b8ff" points="750,-330.8 753.5,-340.8 757,-330.8 750,-330.8"/>
</g>
<!-- Node19 -->
<g id="node19" class="node">
<title>Node19</title>
<g id="a_node19"><a xlink:href="solar_8cpp.html" target="_top" xlink:title="Solar voltage and current monitoring using INA219 IC.">
<polygon fill="white" stroke="#666666" points="997,-305 842,-305 842,-275 997,-275 997,-305"/>
<text text-anchor="start" x="850" y="-293" font-family="Helvetica,sans-Serif" font-size="10.00">firmware/wombat/src</text>
<text text-anchor="middle" x="919.5" y="-282" font-family="Helvetica,sans-Serif" font-size="10.00">/power_monitoring/solar.cpp</text>
</a>
</g>
</g>
<!-- Node1&#45;&gt;Node19 -->
<g id="edge21" class="edge">
<title>Node1&#45;&gt;Node19</title>
<path fill="none" stroke="#63b8ff" d="M799.35,-337.32C825.77,-327.14 858.52,-314.51 883.16,-305.01"/>
<polygon fill="#63b8ff" stroke="#63b8ff" points="798,-334.09 789.93,-340.95 800.52,-340.62 798,-334.09"/>
</g>
<!-- Node3 -->
<g id="node3" class="node">
<title>Node3</title>
<g id="a_node3"><a xlink:href="server_8h.html" target="_top" xlink:title="Handle the setup and maintenance of the BLE server and connected clients.">
<polygon fill="white" stroke="#666666" points="303,-233.5 162,-233.5 162,-203.5 303,-203.5 303,-233.5"/>
<text text-anchor="start" x="170" y="-221.5" font-family="Helvetica,sans-Serif" font-size="10.00">firmware/wombat/include</text>
<text text-anchor="middle" x="232.5" y="-210.5" font-family="Helvetica,sans-Serif" font-size="10.00">/bluetooth/server.h</text>
</a>
</g>
</g>
<!-- Node2&#45;&gt;Node3 -->
<g id="edge2" class="edge">
<title>Node2&#45;&gt;Node3</title>
<path fill="none" stroke="#63b8ff" d="M365.07,-271.26C335.08,-259.55 296.32,-244.42 268.47,-233.54"/>
<polygon fill="#63b8ff" stroke="#63b8ff" points="363.89,-274.56 374.48,-274.94 366.44,-268.04 363.89,-274.56"/>
</g>
<!-- Node12 -->
<g id="node12" class="node">
<title>Node12</title>
<g id="a_node12"><a xlink:href="power__monitoring_8cpp.html" target="_top" xlink:title="BluetoothLE power monitoring service setup and attached to BLE server.">
<polygon fill="white" stroke="#666666" points="499.5,-233.5 321.5,-233.5 321.5,-203.5 499.5,-203.5 499.5,-233.5"/>
<text text-anchor="start" x="329.5" y="-221.5" font-family="Helvetica,sans-Serif" font-size="10.00">firmware/wombat/src</text>
<text text-anchor="middle" x="410.5" y="-210.5" font-family="Helvetica,sans-Serif" font-size="10.00">/bluetooth/power_monitoring.cpp</text>
</a>
</g>
</g>
<!-- Node2&#45;&gt;Node12 -->
<g id="edge13" class="edge">
<title>Node2&#45;&gt;Node12</title>
<path fill="none" stroke="#63b8ff" d="M410.5,-264.75C410.5,-254.31 410.5,-242.49 410.5,-233.54"/>
<polygon fill="#63b8ff" stroke="#63b8ff" points="407,-264.94 410.5,-274.94 414,-264.94 407,-264.94"/>
</g>
<!-- Node4 -->
<g id="node4" class="node">
<title>Node4</title>
<g id="a_node4"><a xlink:href="uart_8h.html" target="_top" xlink:title="BluetoothLE UART service setup and handling.">
<polygon fill="white" stroke="#666666" points="141,-162 0,-162 0,-132 141,-132 141,-162"/>
<text text-anchor="start" x="8" y="-150" font-family="Helvetica,sans-Serif" font-size="10.00">firmware/wombat/include</text>
<text text-anchor="middle" x="70.5" y="-139" font-family="Helvetica,sans-Serif" font-size="10.00">/bluetooth/uart.h</text>
</a>
</g>
</g>
<!-- Node3&#45;&gt;Node4 -->
<g id="edge3" class="edge">
<title>Node3&#45;&gt;Node4</title>
<path fill="none" stroke="#63b8ff" d="M184.81,-199.61C156.42,-187.92 121.49,-172.87 97.69,-162.04"/>
<polygon fill="#63b8ff" stroke="#63b8ff" points="183.59,-202.89 194.17,-203.44 186.24,-196.41 183.59,-202.89"/>
</g>
<!-- Node6 -->
<g id="node6" class="node">
<title>Node6</title>
<g id="a_node6"><a xlink:href="bluetooth_8h.html" target="_top" xlink:title=" ">
<polygon fill="white" stroke="#666666" points="306,-162 159,-162 159,-132 306,-132 306,-162"/>
<text text-anchor="start" x="167" y="-150" font-family="Helvetica,sans-Serif" font-size="10.00">firmware/wombat/include</text>
<text text-anchor="middle" x="232.5" y="-139" font-family="Helvetica,sans-Serif" font-size="10.00">/cli/peripherals/bluetooth.h</text>
</a>
</g>
</g>
<!-- Node3&#45;&gt;Node6 -->
<g id="edge6" class="edge">
<title>Node3&#45;&gt;Node6</title>
<path fill="none" stroke="#63b8ff" d="M232.5,-193.25C232.5,-182.81 232.5,-170.99 232.5,-162.04"/>
<polygon fill="#63b8ff" stroke="#63b8ff" points="229,-193.44 232.5,-203.44 236,-193.44 229,-193.44"/>
</g>
<!-- Node11 -->
<g id="node11" class="node">
<title>Node11</title>
<g id="a_node11"><a xlink:href="server_8cpp.html" target="_top" xlink:title="Setup and start BluetoothLE server.">
<polygon fill="white" stroke="#666666" points="444.5,-162 324.5,-162 324.5,-132 444.5,-132 444.5,-162"/>
<text text-anchor="start" x="332.5" y="-150" font-family="Helvetica,sans-Serif" font-size="10.00">firmware/wombat/src</text>
<text text-anchor="middle" x="384.5" y="-139" font-family="Helvetica,sans-Serif" font-size="10.00">/bluetooth/server.cpp</text>
</a>
</g>
</g>
<!-- Node3&#45;&gt;Node11 -->
<g id="edge12" class="edge">
<title>Node3&#45;&gt;Node11</title>
<path fill="none" stroke="#63b8ff" d="M272.63,-199.15C298.05,-187.53 330.41,-172.73 353.79,-162.04"/>
<polygon fill="#63b8ff" stroke="#63b8ff" points="270.9,-196.09 263.26,-203.44 273.81,-202.46 270.9,-196.09"/>
</g>
<!-- Node4&#45;&gt;Node3 -->
<g id="edge4" class="edge">
<title>Node4&#45;&gt;Node3</title>
<path fill="none" stroke="#63b8ff" d="M118.13,-165.87C146.52,-177.55 181.45,-192.6 205.27,-203.44"/>
<polygon fill="#63b8ff" stroke="#63b8ff" points="119.36,-162.59 108.78,-162.04 116.71,-169.07 119.36,-162.59"/>
</g>
<!-- Node5 -->
<g id="node5" class="node">
<title>Node5</title>
<g id="a_node5"><a xlink:href="uart_8cpp.html" target="_top" xlink:title="BluetoothLE UART service setup and handling.">
<polygon fill="white" stroke="#666666" points="130.5,-96 10.5,-96 10.5,-66 130.5,-66 130.5,-96"/>
<text text-anchor="start" x="18.5" y="-84" font-family="Helvetica,sans-Serif" font-size="10.00">firmware/wombat/src</text>
<text text-anchor="middle" x="70.5" y="-73" font-family="Helvetica,sans-Serif" font-size="10.00">/bluetooth/uart.cpp</text>
</a>
</g>
</g>
<!-- Node4&#45;&gt;Node5 -->
<g id="edge5" class="edge">
<title>Node4&#45;&gt;Node5</title>
<path fill="none" stroke="#63b8ff" d="M70.5,-121.54C70.5,-112.96 70.5,-103.61 70.5,-96.16"/>
<polygon fill="#63b8ff" stroke="#63b8ff" points="67,-121.8 70.5,-131.8 74,-121.8 67,-121.8"/>
</g>
<!-- Node7 -->
<g id="node7" class="node">
<title>Node7</title>
<g id="a_node7"><a xlink:href="_c_l_i_8h.html" target="_top" xlink:title=" ">
<polygon fill="white" stroke="#666666" points="485,-96 344,-96 344,-66 485,-66 485,-96"/>
<text text-anchor="start" x="352" y="-84" font-family="Helvetica,sans-Serif" font-size="10.00">firmware/wombat/include</text>
<text text-anchor="middle" x="414.5" y="-73" font-family="Helvetica,sans-Serif" font-size="10.00">/cli/CLI.h</text>
</a>
</g>
</g>
<!-- Node6&#45;&gt;Node7 -->
<g id="edge7" class="edge">
<title>Node6&#45;&gt;Node7</title>
<path fill="none" stroke="#63b8ff" d="M282.01,-128.59C311.11,-118.36 347.41,-105.59 374.65,-96.01"/>
<polygon fill="#63b8ff" stroke="#63b8ff" points="280.71,-125.34 272.44,-131.95 283.04,-131.94 280.71,-125.34"/>
</g>
<!-- Node10 -->
<g id="node10" class="node">
<title>Node10</title>
<g id="a_node10"><a xlink:href="bluetooth_8cpp.html" target="_top" xlink:title=" ">
<polygon fill="white" stroke="#666666" points="311.5,-96 153.5,-96 153.5,-66 311.5,-66 311.5,-96"/>
<text text-anchor="start" x="161.5" y="-84" font-family="Helvetica,sans-Serif" font-size="10.00">firmware/wombat/src</text>
<text text-anchor="middle" x="232.5" y="-73" font-family="Helvetica,sans-Serif" font-size="10.00">/cli/peripherals/bluetooth.cpp</text>
</a>
</g>
</g>
<!-- Node6&#45;&gt;Node10 -->
<g id="edge11" class="edge">
<title>Node6&#45;&gt;Node10</title>
<path fill="none" stroke="#63b8ff" d="M232.5,-121.54C232.5,-112.96 232.5,-103.61 232.5,-96.16"/>
<polygon fill="#63b8ff" stroke="#63b8ff" points="229,-121.8 232.5,-131.8 236,-121.8 229,-121.8"/>
</g>
<!-- Node7&#45;&gt;Node3 -->
<g id="edge8" class="edge">
<title>Node7&#45;&gt;Node3</title>
<path fill="none" stroke="#63b8ff" d="M437.16,-103.27C452.45,-120.23 467.51,-144.04 453.5,-162 452.21,-163.66 355.18,-187.59 290.13,-203.48"/>
<polygon fill="#63b8ff" stroke="#63b8ff" points="439.65,-100.82 430.22,-96.01 434.59,-105.66 439.65,-100.82"/>
</g>
<!-- Node8 -->
<g id="node8" class="node">
<title>Node8</title>
<g id="a_node8"><a xlink:href="_c_l_i_8cpp.html" target="_top" xlink:title=" ">
<polygon fill="white" stroke="#666666" points="449.5,-30 329.5,-30 329.5,0 449.5,0 449.5,-30"/>
<text text-anchor="start" x="337.5" y="-18" font-family="Helvetica,sans-Serif" font-size="10.00">firmware/wombat/src</text>
<text text-anchor="middle" x="389.5" y="-7" font-family="Helvetica,sans-Serif" font-size="10.00">/cli/CLI.cpp</text>
</a>
</g>
</g>
<!-- Node7&#45;&gt;Node8 -->
<g id="edge9" class="edge">
<title>Node7&#45;&gt;Node8</title>
<path fill="none" stroke="#63b8ff" d="M405.28,-56.39C401.84,-47.59 398.04,-37.86 395.03,-30.16"/>
<polygon fill="#63b8ff" stroke="#63b8ff" points="402.05,-57.76 408.95,-65.8 408.57,-55.21 402.05,-57.76"/>
</g>
<!-- Node9 -->
<g id="node9" class="node">
<title>Node9</title>
<g id="a_node9"><a xlink:href="main_8cpp.html" target="_top" xlink:title=" ">
<polygon fill="white" stroke="#666666" points="587.5,-30 467.5,-30 467.5,0 587.5,0 587.5,-30"/>
<text text-anchor="start" x="475.5" y="-18" font-family="Helvetica,sans-Serif" font-size="10.00">firmware/wombat/src</text>
<text text-anchor="middle" x="527.5" y="-7" font-family="Helvetica,sans-Serif" font-size="10.00">/main.cpp</text>
</a>
</g>
</g>
<!-- Node7&#45;&gt;Node9 -->
<g id="edge10" class="edge">
<title>Node7&#45;&gt;Node9</title>
<path fill="none" stroke="#63b8ff" d="M448.1,-60.97C465.64,-51.03 486.73,-39.09 502.76,-30.01"/>
<polygon fill="#63b8ff" stroke="#63b8ff" points="446.27,-57.98 439.3,-65.95 449.72,-64.07 446.27,-57.98"/>
</g>
<!-- Node13&#45;&gt;Node9 -->
<g id="edge18" class="edge">
<title>Node13&#45;&gt;Node9</title>
<path fill="none" stroke="#63b8ff" d="M672.75,-279.27C622.01,-271.38 563.12,-258.36 546.5,-239 493.86,-177.68 514.22,-68.79 523.7,-30.11"/>
<polygon fill="#63b8ff" stroke="#63b8ff" points="672.36,-282.75 682.77,-280.78 673.4,-275.83 672.36,-282.75"/>
</g>
<!-- Node14 -->
<g id="node14" class="node">
<title>Node14</title>
<g id="a_node14"><a xlink:href="_sensor_task_8cpp.html" target="_top" xlink:title=" ">
<polygon fill="white" stroke="#666666" points="675.5,-233.5 555.5,-233.5 555.5,-203.5 675.5,-203.5 675.5,-233.5"/>
<text text-anchor="start" x="563.5" y="-221.5" font-family="Helvetica,sans-Serif" font-size="10.00">firmware/wombat/src</text>
<text text-anchor="middle" x="615.5" y="-210.5" font-family="Helvetica,sans-Serif" font-size="10.00">/SensorTask.cpp</text>
</a>
</g>
</g>
<!-- Node13&#45;&gt;Node14 -->
<g id="edge15" class="edge">
<title>Node13&#45;&gt;Node14</title>
<path fill="none" stroke="#63b8ff" d="M716.46,-270.34C693.47,-258.77 664.42,-244.14 643.38,-233.54"/>
<polygon fill="#63b8ff" stroke="#63b8ff" points="715.07,-273.56 725.57,-274.94 718.22,-267.31 715.07,-273.56"/>
</g>
<!-- Node15 -->
<g id="node15" class="node">
<title>Node15</title>
<g id="a_node15"><a xlink:href="_utils_8cpp.html" target="_top" xlink:title=" ">
<polygon fill="white" stroke="#666666" points="813.5,-233.5 693.5,-233.5 693.5,-203.5 813.5,-203.5 813.5,-233.5"/>
<text text-anchor="start" x="701.5" y="-221.5" font-family="Helvetica,sans-Serif" font-size="10.00">firmware/wombat/src</text>
<text text-anchor="middle" x="753.5" y="-210.5" font-family="Helvetica,sans-Serif" font-size="10.00">/Utils.cpp</text>
</a>
</g>
</g>
<!-- Node13&#45;&gt;Node15 -->
<g id="edge16" class="edge">
<title>Node13&#45;&gt;Node15</title>
<path fill="none" stroke="#63b8ff" d="M753.5,-264.75C753.5,-254.31 753.5,-242.49 753.5,-233.54"/>
<polygon fill="#63b8ff" stroke="#63b8ff" points="750,-264.94 753.5,-274.94 757,-264.94 750,-264.94"/>
</g>
<!-- Node16 -->
<g id="node16" class="node">
<title>Node16</title>
<g id="a_node16"><a xlink:href="cat-m1_8cpp.html" target="_top" xlink:title=" ">
<polygon fill="white" stroke="#666666" points="951.5,-239 831.5,-239 831.5,-198 951.5,-198 951.5,-239"/>
<text text-anchor="start" x="839.5" y="-227" font-family="Helvetica,sans-Serif" font-size="10.00">firmware/wombat/src</text>
<text text-anchor="start" x="839.5" y="-216" font-family="Helvetica,sans-Serif" font-size="10.00">/cli/peripherals/cat</text>
<text text-anchor="middle" x="891.5" y="-205" font-family="Helvetica,sans-Serif" font-size="10.00">&#45;m1.cpp</text>
</a>
</g>
</g>
<!-- Node13&#45;&gt;Node16 -->
<g id="edge17" class="edge">
<title>Node13&#45;&gt;Node16</title>
<path fill="none" stroke="#63b8ff" d="M790.48,-270.38C809.69,-260.7 833.16,-248.88 852.63,-239.07"/>
<polygon fill="#63b8ff" stroke="#63b8ff" points="788.78,-267.31 781.43,-274.94 791.93,-273.56 788.78,-267.31"/>
</g>
<!-- Node17 -->
<g id="node17" class="node">
<title>Node17</title>
<g id="a_node17"><a xlink:href="mqtt__stack_8cpp.html" target="_top" xlink:title=" ">
<polygon fill="white" stroke="#666666" points="1089.5,-233.5 969.5,-233.5 969.5,-203.5 1089.5,-203.5 1089.5,-233.5"/>
<text text-anchor="start" x="977.5" y="-221.5" font-family="Helvetica,sans-Serif" font-size="10.00">firmware/wombat/src</text>
<text text-anchor="middle" x="1029.5" y="-210.5" font-family="Helvetica,sans-Serif" font-size="10.00">/mqtt_stack.cpp</text>
</a>
</g>
</g>
<!-- Node13&#45;&gt;Node17 -->
<g id="edge19" class="edge">
<title>Node13&#45;&gt;Node17</title>
<path fill="none" stroke="#63b8ff" d="M824.28,-272.61C864.35,-263.16 915.33,-250.83 960.5,-239 967,-237.3 973.83,-235.44 980.56,-233.58"/>
<polygon fill="#63b8ff" stroke="#63b8ff" points="823.27,-269.26 814.34,-274.95 824.88,-276.07 823.27,-269.26"/>
</g>
<!-- Node18 -->
<g id="node18" class="node">
<title>Node18</title>
<g id="a_node18"><a xlink:href="uplinks_8cpp.html" target="_top" xlink:title=" ">
<polygon fill="white" stroke="#666666" points="1227.5,-233.5 1107.5,-233.5 1107.5,-203.5 1227.5,-203.5 1227.5,-233.5"/>
<text text-anchor="start" x="1115.5" y="-221.5" font-family="Helvetica,sans-Serif" font-size="10.00">firmware/wombat/src</text>
<text text-anchor="middle" x="1167.5" y="-210.5" font-family="Helvetica,sans-Serif" font-size="10.00">/uplinks.cpp</text>
</a>
</g>
</g>
<!-- Node13&#45;&gt;Node18 -->
<g id="edge20" class="edge">
<title>Node13&#45;&gt;Node18</title>
<path fill="none" stroke="#63b8ff" d="M834.34,-274.92C952.72,-257.08 985.32,-262.56 1098.5,-239 1105.93,-237.45 1113.74,-235.54 1121.33,-233.51"/>
<polygon fill="#63b8ff" stroke="#63b8ff" points="833.5,-271.51 824.15,-276.49 834.56,-278.43 833.5,-271.51"/>
</g>
</g>
</svg>
