<?xml version="1.0" encoding="UTF-8" standalone="no"?>
<!DOCTYPE svg PUBLIC "-//W3C//DTD SVG 1.1//EN"
 "http://www.w3.org/Graphics/SVG/1.1/DTD/svg11.dtd">
<!-- Generated by graphviz version 2.43.0 (0)
 -->
<!-- Title: firmware/wombat/include/power_monitoring/solar.h Pages: 1 -->
<svg width="194pt" height="93pt"
 viewBox="0.00 0.00 194.00 93.00" xmlns="http://www.w3.org/2000/svg" xmlns:xlink="http://www.w3.org/1999/xlink">
<g id="graph0" class="graph" transform="scale(1 1) rotate(0) translate(4 89)">
<title>firmware/wombat/include/power_monitoring/solar.h</title>
<!-- Node1 -->
<g id="node1" class="node">
<title>Node1</title>
<g id="a_node1"><a xlink:title="Solar voltage and current monitoring using INA219 IC.">
<polygon fill="#999999" stroke="#666666" points="154,-85 11,-85 11,-55 154,-55 154,-85"/>
<text text-anchor="start" x="19" y="-73" font-family="Helvetica,sans-Serif" font-size="10.00">firmware/wombat/include</text>
<text text-anchor="middle" x="82.5" y="-62" font-family="Helvetica,sans-Serif" font-size="10.00">/power_monitoring/solar.h</text>
</a>
</g>
</g>
<!-- Node2 -->
<g id="node2" class="node">
<title>Node2</title>
<g id="a_node2"><a xlink:title=" ">
<polygon fill="#e0e0e0" stroke="#999999" points="63,-19 0,-19 0,0 63,0 63,-19"/>
<text text-anchor="middle" x="31.5" y="-7" font-family="Helvetica,sans-Serif" font-size="10.00">Arduino.h</text>
</a>
</g>
</g>
<!-- Node1&#45;&gt;Node2 -->
<g id="edge1" class="edge">
<title>Node1&#45;&gt;Node2</title>
<path fill="none" stroke="#63b8ff" d="M70.15,-54.84C62.83,-46.43 53.5,-35.74 45.85,-26.96"/>
<polygon fill="#63b8ff" stroke="#63b8ff" points="48.35,-24.5 39.14,-19.27 43.08,-29.1 48.35,-24.5"/>
</g>
<!-- Node3 -->
<g id="node3" class="node">
<title>Node3</title>
<g id="a_node3"><a xlink:title=" ">
<polygon fill="#e0e0e0" stroke="#999999" points="186,-19 81,-19 81,0 186,0 186,-19"/>
<text text-anchor="middle" x="133.5" y="-7" font-family="Helvetica,sans-Serif" font-size="10.00">Adafruit_INA219.h</text>
</a>
</g>
</g>
<!-- Node1&#45;&gt;Node3 -->
<g id="edge2" class="edge">
<title>Node1&#45;&gt;Node3</title>
<path fill="none" stroke="#63b8ff" d="M94.85,-54.84C102.17,-46.43 111.5,-35.74 119.15,-26.96"/>
<polygon fill="#63b8ff" stroke="#63b8ff" points="121.92,-29.1 125.86,-19.27 116.65,-24.5 121.92,-29.1"/>
</g>
</g>
</svg>
