<?xml version="1.0" encoding="UTF-8" standalone="no"?>
<!DOCTYPE svg PUBLIC "-//W3C//DTD SVG 1.1//EN"
 "http://www.w3.org/Graphics/SVG/1.1/DTD/svg11.dtd">
<!-- Generated by graphviz version 2.43.0 (0)
 -->
<!-- Title: firmware/wombat/include/power_monitoring/solar.h Pages: 1 -->
<svg width="1204pt" height="313pt"
 viewBox="0.00 0.00 1203.50 313.00" xmlns="http://www.w3.org/2000/svg" xmlns:xlink="http://www.w3.org/1999/xlink">
<g id="graph0" class="graph" transform="scale(1 1) rotate(0) translate(4 309)">
<title>firmware/wombat/include/power_monitoring/solar.h</title>
<!-- Node1 -->
<g id="node1" class="node">
<title>Node1</title>
<g id="a_node1"><a xlink:title="Solar voltage and current monitoring using INA219 IC.">
<polygon fill="#999999" stroke="#666666" points="793,-305 650,-305 650,-275 793,-275 793,-305"/>
<text text-anchor="start" x="658" y="-293" font-family="Helvetica,sans-Serif" font-size="10.00">firmware/wombat/include</text>
<text text-anchor="middle" x="721.5" y="-282" font-family="Helvetica,sans-Serif" font-size="10.00">/power_monitoring/solar.h</text>
</a>
</g>
</g>
<!-- Node2 -->
<g id="node2" class="node">
<title>Node2</title>
<g id="a_node2"><a xlink:href="power__monitoring_8h.html" target="_top" xlink:title="Setup BluetoothLE power monitoring information.">
<polygon fill="white" stroke="#666666" points="462,-239 295,-239 295,-209 462,-209 462,-239"/>
<text text-anchor="start" x="303" y="-227" font-family="Helvetica,sans-Serif" font-size="10.00">firmware/wombat/include</text>
<text text-anchor="middle" x="378.5" y="-216" font-family="Helvetica,sans-Serif" font-size="10.00">/bluetooth/power_monitoring.h</text>
</a>
</g>
</g>
<!-- Node1&#45;&gt;Node2 -->
<g id="edge1" class="edge">
<title>Node1&#45;&gt;Node2</title>
<path fill="none" stroke="#63b8ff" d="M639.62,-273.72C583.11,-263.18 508.55,-249.27 453.57,-239.01"/>
<polygon fill="#63b8ff" stroke="#63b8ff" points="639.12,-277.19 649.6,-275.58 640.41,-270.31 639.12,-277.19"/>
</g>
<!-- Node11 -->
<g id="node11" class="node">
<title>Node11</title>
<g id="a_node11"><a xlink:href="globals_8h.html" target="_top" xlink:title=" ">
<polygon fill="white" stroke="#666666" points="792,-239 651,-239 651,-209 792,-209 792,-239"/>
<text text-anchor="start" x="659" y="-227" font-family="Helvetica,sans-Serif" font-size="10.00">firmware/wombat/include</text>
<text text-anchor="middle" x="721.5" y="-216" font-family="Helvetica,sans-Serif" font-size="10.00">/globals.h</text>
</a>
</g>
</g>
<!-- Node1&#45;&gt;Node11 -->
<g id="edge12" class="edge">
<title>Node1&#45;&gt;Node11</title>
<path fill="none" stroke="#63b8ff" d="M721.5,-264.54C721.5,-255.96 721.5,-246.61 721.5,-239.16"/>
<polygon fill="#63b8ff" stroke="#63b8ff" points="718,-264.8 721.5,-274.8 725,-264.8 718,-264.8"/>
</g>
<!-- Node17 -->
<g id="node17" class="node">
<title>Node17</title>
<g id="a_node17"><a xlink:href="solar_8cpp.html" target="_top" xlink:title="Solar voltage and current monitoring using INA219 IC.">
<polygon fill="white" stroke="#666666" points="965,-239 810,-239 810,-209 965,-209 965,-239"/>
<text text-anchor="start" x="818" y="-227" font-family="Helvetica,sans-Serif" font-size="10.00">firmware/wombat/src</text>
<text text-anchor="middle" x="887.5" y="-216" font-family="Helvetica,sans-Serif" font-size="10.00">/power_monitoring/solar.cpp</text>
</a>
</g>
</g>
<!-- Node1&#45;&gt;Node17 -->
<g id="edge19" class="edge">
<title>Node1&#45;&gt;Node17</title>
<path fill="none" stroke="#63b8ff" d="M767.35,-271.32C793.77,-261.14 826.52,-248.51 851.16,-239.01"/>
<polygon fill="#63b8ff" stroke="#63b8ff" points="766,-268.09 757.93,-274.95 768.52,-274.62 766,-268.09"/>
</g>
<!-- Node3 -->
<g id="node3" class="node">
<title>Node3</title>
<g id="a_node3"><a xlink:href="server_8h.html" target="_top" xlink:title="Handle the setup and maintenance of the BLE server and connected clients.">
<polygon fill="white" stroke="#666666" points="271,-167.5 130,-167.5 130,-137.5 271,-137.5 271,-167.5"/>
<text text-anchor="start" x="138" y="-155.5" font-family="Helvetica,sans-Serif" font-size="10.00">firmware/wombat/include</text>
<text text-anchor="middle" x="200.5" y="-144.5" font-family="Helvetica,sans-Serif" font-size="10.00">/bluetooth/server.h</text>
</a>
</g>
</g>
<!-- Node2&#45;&gt;Node3 -->
<g id="edge2" class="edge">
<title>Node2&#45;&gt;Node3</title>
<path fill="none" stroke="#63b8ff" d="M333.07,-205.26C303.08,-193.55 264.32,-178.42 236.47,-167.54"/>
<polygon fill="#63b8ff" stroke="#63b8ff" points="331.89,-208.56 342.48,-208.94 334.44,-202.04 331.89,-208.56"/>
</g>
<!-- Node10 -->
<g id="node10" class="node">
<title>Node10</title>
<g id="a_node10"><a xlink:href="power__monitoring_8cpp.html" target="_top" xlink:title="BluetoothLE power monitoring service setup and attached to BLE server.">
<polygon fill="white" stroke="#666666" points="467.5,-167.5 289.5,-167.5 289.5,-137.5 467.5,-137.5 467.5,-167.5"/>
<text text-anchor="start" x="297.5" y="-155.5" font-family="Helvetica,sans-Serif" font-size="10.00">firmware/wombat/src</text>
<text text-anchor="middle" x="378.5" y="-144.5" font-family="Helvetica,sans-Serif" font-size="10.00">/bluetooth/power_monitoring.cpp</text>
</a>
</g>
</g>
<!-- Node2&#45;&gt;Node10 -->
<g id="edge11" class="edge">
<title>Node2&#45;&gt;Node10</title>
<path fill="none" stroke="#63b8ff" d="M378.5,-198.75C378.5,-188.31 378.5,-176.49 378.5,-167.54"/>
<polygon fill="#63b8ff" stroke="#63b8ff" points="375,-198.94 378.5,-208.94 382,-198.94 375,-198.94"/>
</g>
<!-- Node4 -->
<g id="node4" class="node">
<title>Node4</title>
<g id="a_node4"><a xlink:href="uart_8h.html" target="_top" xlink:title="BluetoothLE UART service setup and handling.">
<polygon fill="white" stroke="#666666" points="141,-96 0,-96 0,-66 141,-66 141,-96"/>
<text text-anchor="start" x="8" y="-84" font-family="Helvetica,sans-Serif" font-size="10.00">firmware/wombat/include</text>
<text text-anchor="middle" x="70.5" y="-73" font-family="Helvetica,sans-Serif" font-size="10.00">/bluetooth/uart.h</text>
</a>
</g>
</g>
<!-- Node3&#45;&gt;Node4 -->
<g id="edge3" class="edge">
<title>Node3&#45;&gt;Node4</title>
<path fill="none" stroke="#63b8ff" d="M159.54,-132.84C136.82,-121.27 109.63,-106.64 91.22,-96.04"/>
<polygon fill="#63b8ff" stroke="#63b8ff" points="158.14,-136.06 168.64,-137.44 161.29,-129.81 158.14,-136.06"/>
</g>
<!-- Node6 -->
<g id="node6" class="node">
<title>Node6</title>
<g id="a_node6"><a xlink:href="_c_l_i_8h.html" target="_top" xlink:title="FreeRTOS CLI handler.">
<polygon fill="white" stroke="#666666" points="300,-96 159,-96 159,-66 300,-66 300,-96"/>
<text text-anchor="start" x="167" y="-84" font-family="Helvetica,sans-Serif" font-size="10.00">firmware/wombat/include</text>
<text text-anchor="middle" x="229.5" y="-73" font-family="Helvetica,sans-Serif" font-size="10.00">/cli/CLI.h</text>
</a>
</g>
</g>
<!-- Node3&#45;&gt;Node6 -->
<g id="edge6" class="edge">
<title>Node3&#45;&gt;Node6</title>
<path fill="none" stroke="#63b8ff" d="M203.91,-127.9C207.71,-117.31 213.07,-105.18 218.09,-96.04"/>
<polygon fill="#63b8ff" stroke="#63b8ff" points="200.58,-126.84 200.82,-137.44 207.24,-129.01 200.58,-126.84"/>
</g>
<!-- Node9 -->
<g id="node9" class="node">
<title>Node9</title>
<g id="a_node9"><a xlink:href="server_8cpp.html" target="_top" xlink:title="Setup and start BluetoothLE server.">
<polygon fill="white" stroke="#666666" points="438.5,-96 318.5,-96 318.5,-66 438.5,-66 438.5,-96"/>
<text text-anchor="start" x="326.5" y="-84" font-family="Helvetica,sans-Serif" font-size="10.00">firmware/wombat/src</text>
<text text-anchor="middle" x="378.5" y="-73" font-family="Helvetica,sans-Serif" font-size="10.00">/bluetooth/server.cpp</text>
</a>
</g>
</g>
<!-- Node3&#45;&gt;Node9 -->
<g id="edge10" class="edge">
<title>Node3&#45;&gt;Node9</title>
<path fill="none" stroke="#63b8ff" d="M245.93,-133.76C275.92,-122.05 314.68,-106.92 342.53,-96.04"/>
<polygon fill="#63b8ff" stroke="#63b8ff" points="244.56,-130.54 236.52,-137.44 247.11,-137.06 244.56,-130.54"/>
</g>
<!-- Node4&#45;&gt;Node3 -->
<g id="edge4" class="edge">
<title>Node4&#45;&gt;Node3</title>
<path fill="none" stroke="#63b8ff" d="M111.41,-100.63C134.12,-112.2 161.33,-126.84 179.74,-137.44"/>
<polygon fill="#63b8ff" stroke="#63b8ff" points="112.82,-97.42 102.31,-96.04 109.67,-103.67 112.82,-97.42"/>
</g>
<!-- Node5 -->
<g id="node5" class="node">
<title>Node5</title>
<g id="a_node5"><a xlink:href="uart_8cpp.html" target="_top" xlink:title="BluetoothLE UART service setup and handling.">
<polygon fill="white" stroke="#666666" points="130.5,-30 10.5,-30 10.5,0 130.5,0 130.5,-30"/>
<text text-anchor="start" x="18.5" y="-18" font-family="Helvetica,sans-Serif" font-size="10.00">firmware/wombat/src</text>
<text text-anchor="middle" x="70.5" y="-7" font-family="Helvetica,sans-Serif" font-size="10.00">/bluetooth/uart.cpp</text>
</a>
</g>
</g>
<!-- Node4&#45;&gt;Node5 -->
<g id="edge5" class="edge">
<title>Node4&#45;&gt;Node5</title>
<path fill="none" stroke="#63b8ff" d="M70.5,-55.54C70.5,-46.96 70.5,-37.61 70.5,-30.16"/>
<polygon fill="#63b8ff" stroke="#63b8ff" points="67,-55.8 70.5,-65.8 74,-55.8 67,-55.8"/>
</g>
<!-- Node6&#45;&gt;Node3 -->
<g id="edge7" class="edge">
<title>Node6&#45;&gt;Node3</title>
<path fill="none" stroke="#63b8ff" d="M226.09,-105.57C222.3,-116.16 216.94,-128.3 211.92,-137.44"/>
<polygon fill="#63b8ff" stroke="#63b8ff" points="229.43,-106.64 229.19,-96.04 222.77,-104.47 229.43,-106.64"/>
</g>
<!-- Node7 -->
<g id="node7" class="node">
<title>Node7</title>
<g id="a_node7"><a xlink:href="_c_l_i_8cpp.html" target="_top" xlink:title="FreeRTOS CLI handler.">
<polygon fill="white" stroke="#666666" points="289.5,-30 169.5,-30 169.5,0 289.5,0 289.5,-30"/>
<text text-anchor="start" x="177.5" y="-18" font-family="Helvetica,sans-Serif" font-size="10.00">firmware/wombat/src</text>
<text text-anchor="middle" x="229.5" y="-7" font-family="Helvetica,sans-Serif" font-size="10.00">/cli/CLI.cpp</text>
</a>
</g>
</g>
<!-- Node6&#45;&gt;Node7 -->
<g id="edge8" class="edge">
<title>Node6&#45;&gt;Node7</title>
<path fill="none" stroke="#63b8ff" d="M229.5,-55.54C229.5,-46.96 229.5,-37.61 229.5,-30.16"/>
<polygon fill="#63b8ff" stroke="#63b8ff" points="226,-55.8 229.5,-65.8 233,-55.8 226,-55.8"/>
</g>
<!-- Node8 -->
<g id="node8" class="node">
<title>Node8</title>
<g id="a_node8"><a xlink:href="main_8cpp.html" target="_top" xlink:title=" ">
<polygon fill="white" stroke="#666666" points="491.5,-30 371.5,-30 371.5,0 491.5,0 491.5,-30"/>
<text text-anchor="start" x="379.5" y="-18" font-family="Helvetica,sans-Serif" font-size="10.00">firmware/wombat/src</text>
<text text-anchor="middle" x="431.5" y="-7" font-family="Helvetica,sans-Serif" font-size="10.00">/main.cpp</text>
</a>
</g>
</g>
<!-- Node6&#45;&gt;Node8 -->
<g id="edge9" class="edge">
<title>Node6&#45;&gt;Node8</title>
<path fill="none" stroke="#63b8ff" d="M283.61,-62.86C316.05,-52.58 356.77,-39.68 387.27,-30.01"/>
<polygon fill="#63b8ff" stroke="#63b8ff" points="282.31,-59.6 273.83,-65.95 284.42,-66.27 282.31,-59.6"/>
</g>
<!-- Node11&#45;&gt;Node8 -->
<g id="edge16" class="edge">
<title>Node11&#45;&gt;Node8</title>
<path fill="none" stroke="#63b8ff" d="M640.88,-219.12C599.49,-213.51 550.37,-200.88 514.5,-173 489.61,-153.65 451.52,-65.03 437.2,-30.16"/>
<polygon fill="#63b8ff" stroke="#63b8ff" points="640.59,-222.61 650.95,-220.36 641.45,-215.66 640.59,-222.61"/>
</g>
<!-- Node12 -->
<g id="node12" class="node">
<title>Node12</title>
<g id="a_node12"><a xlink:href="_sensor_task_8cpp.html" target="_top" xlink:title=" ">
<polygon fill="white" stroke="#666666" points="643.5,-167.5 523.5,-167.5 523.5,-137.5 643.5,-137.5 643.5,-167.5"/>
<text text-anchor="start" x="531.5" y="-155.5" font-family="Helvetica,sans-Serif" font-size="10.00">firmware/wombat/src</text>
<text text-anchor="middle" x="583.5" y="-144.5" font-family="Helvetica,sans-Serif" font-size="10.00">/SensorTask.cpp</text>
</a>
</g>
</g>
<!-- Node11&#45;&gt;Node12 -->
<g id="edge13" class="edge">
<title>Node11&#45;&gt;Node12</title>
<path fill="none" stroke="#63b8ff" d="M684.46,-204.34C661.47,-192.77 632.42,-178.14 611.38,-167.54"/>
<polygon fill="#63b8ff" stroke="#63b8ff" points="683.07,-207.56 693.57,-208.94 686.22,-201.31 683.07,-207.56"/>
</g>
<!-- Node13 -->
<g id="node13" class="node">
<title>Node13</title>
<g id="a_node13"><a xlink:href="_utils_8cpp.html" target="_top" xlink:title=" ">
<polygon fill="white" stroke="#666666" points="781.5,-167.5 661.5,-167.5 661.5,-137.5 781.5,-137.5 781.5,-167.5"/>
<text text-anchor="start" x="669.5" y="-155.5" font-family="Helvetica,sans-Serif" font-size="10.00">firmware/wombat/src</text>
<text text-anchor="middle" x="721.5" y="-144.5" font-family="Helvetica,sans-Serif" font-size="10.00">/Utils.cpp</text>
</a>
</g>
</g>
<!-- Node11&#45;&gt;Node13 -->
<g id="edge14" class="edge">
<title>Node11&#45;&gt;Node13</title>
<path fill="none" stroke="#63b8ff" d="M721.5,-198.75C721.5,-188.31 721.5,-176.49 721.5,-167.54"/>
<polygon fill="#63b8ff" stroke="#63b8ff" points="718,-198.94 721.5,-208.94 725,-198.94 718,-198.94"/>
</g>
<!-- Node14 -->
<g id="node14" class="node">
<title>Node14</title>
<g id="a_node14"><a xlink:href="cat-m1_8cpp.html" target="_top" xlink:title="CAT&#45;M1 CLI command request and response handler.">
<polygon fill="white" stroke="#666666" points="919.5,-173 799.5,-173 799.5,-132 919.5,-132 919.5,-173"/>
<text text-anchor="start" x="807.5" y="-161" font-family="Helvetica,sans-Serif" font-size="10.00">firmware/wombat/src</text>
<text text-anchor="start" x="807.5" y="-150" font-family="Helvetica,sans-Serif" font-size="10.00">/cli/peripherals/cat</text>
<text text-anchor="middle" x="859.5" y="-139" font-family="Helvetica,sans-Serif" font-size="10.00">&#45;m1.cpp</text>
</a>
</g>
</g>
<!-- Node11&#45;&gt;Node14 -->
<g id="edge15" class="edge">
<title>Node11&#45;&gt;Node14</title>
<path fill="none" stroke="#63b8ff" d="M758.48,-204.38C777.69,-194.7 801.16,-182.88 820.63,-173.07"/>
<polygon fill="#63b8ff" stroke="#63b8ff" points="756.78,-201.31 749.43,-208.94 759.93,-207.56 756.78,-201.31"/>
</g>
<!-- Node15 -->
<g id="node15" class="node">
<title>Node15</title>
<g id="a_node15"><a xlink:href="mqtt__stack_8cpp.html" target="_top" xlink:title=" ">
<polygon fill="white" stroke="#666666" points="1057.5,-167.5 937.5,-167.5 937.5,-137.5 1057.5,-137.5 1057.5,-167.5"/>
<text text-anchor="start" x="945.5" y="-155.5" font-family="Helvetica,sans-Serif" font-size="10.00">firmware/wombat/src</text>
<text text-anchor="middle" x="997.5" y="-144.5" font-family="Helvetica,sans-Serif" font-size="10.00">/mqtt_stack.cpp</text>
</a>
</g>
</g>
<!-- Node11&#45;&gt;Node15 -->
<g id="edge17" class="edge">
<title>Node11&#45;&gt;Node15</title>
<path fill="none" stroke="#63b8ff" d="M792.28,-206.61C832.35,-197.16 883.33,-184.83 928.5,-173 935,-171.3 941.83,-169.44 948.56,-167.58"/>
<polygon fill="#63b8ff" stroke="#63b8ff" points="791.27,-203.26 782.34,-208.95 792.88,-210.07 791.27,-203.26"/>
</g>
<!-- Node16 -->
<g id="node16" class="node">
<title>Node16</title>
<g id="a_node16"><a xlink:href="uplinks_8cpp.html" target="_top" xlink:title=" ">
<polygon fill="white" stroke="#666666" points="1195.5,-167.5 1075.5,-167.5 1075.5,-137.5 1195.5,-137.5 1195.5,-167.5"/>
<text text-anchor="start" x="1083.5" y="-155.5" font-family="Helvetica,sans-Serif" font-size="10.00">firmware/wombat/src</text>
<text text-anchor="middle" x="1135.5" y="-144.5" font-family="Helvetica,sans-Serif" font-size="10.00">/uplinks.cpp</text>
</a>
</g>
</g>
<!-- Node11&#45;&gt;Node16 -->
<g id="edge18" class="edge">
<title>Node11&#45;&gt;Node16</title>
<path fill="none" stroke="#63b8ff" d="M802.34,-208.92C920.72,-191.08 953.32,-196.56 1066.5,-173 1073.93,-171.45 1081.74,-169.54 1089.33,-167.51"/>
<polygon fill="#63b8ff" stroke="#63b8ff" points="801.5,-205.51 792.15,-210.49 802.56,-212.43 801.5,-205.51"/>
</g>
</g>
</svg>
