<?xml version="1.0" encoding="UTF-8" standalone="no"?>
<!DOCTYPE svg PUBLIC "-//W3C//DTD SVG 1.1//EN"
 "http://www.w3.org/Graphics/SVG/1.1/DTD/svg11.dtd">
<!-- Generated by graphviz version 2.43.0 (0)
 -->
<!-- Title: firmware/wombat/include/power_monitoring/solar.h Pages: 1 -->
<svg width="1980pt" height="313pt"
 viewBox="0.00 0.00 1980.00 313.00" xmlns="http://www.w3.org/2000/svg" xmlns:xlink="http://www.w3.org/1999/xlink">
<g id="graph0" class="graph" transform="scale(1 1) rotate(0) translate(4 309)">
<title>firmware/wombat/include/power_monitoring/solar.h</title>
<!-- Node1 -->
<g id="node1" class="node">
<title>Node1</title>
<g id="a_node1"><a xlink:title="Solar voltage and current monitoring using INA219 IC.">
<polygon fill="#999999" stroke="#666666" points="1072.5,-305 929.5,-305 929.5,-275 1072.5,-275 1072.5,-305"/>
<text text-anchor="start" x="937.5" y="-293" font-family="Helvetica,sans-Serif" font-size="10.00">firmware/wombat/include</text>
<text text-anchor="middle" x="1001" y="-282" font-family="Helvetica,sans-Serif" font-size="10.00">/power_monitoring/solar.h</text>
</a>
</g>
</g>
<!-- Node2 -->
<g id="node2" class="node">
<title>Node2</title>
<g id="a_node2"><a xlink:href="power__monitoring_8h.html" target="_top" xlink:title="Setup BluetoothLE power monitoring information.">
<polygon fill="white" stroke="#666666" points="883.5,-239 716.5,-239 716.5,-209 883.5,-209 883.5,-239"/>
<text text-anchor="start" x="724.5" y="-227" font-family="Helvetica,sans-Serif" font-size="10.00">firmware/wombat/include</text>
<text text-anchor="middle" x="800" y="-216" font-family="Helvetica,sans-Serif" font-size="10.00">/bluetooth/power_monitoring.h</text>
</a>
</g>
</g>
<!-- Node1&#45;&gt;Node2 -->
<g id="edge1" class="edge">
<title>Node1&#45;&gt;Node2</title>
<path fill="none" stroke="#63b8ff" d="M947.16,-271.86C914.88,-261.58 874.36,-248.68 844.01,-239.01"/>
<polygon fill="#63b8ff" stroke="#63b8ff" points="946.3,-275.26 956.89,-274.95 948.42,-268.59 946.3,-275.26"/>
</g>
<!-- Node15 -->
<g id="node15" class="node">
<title>Node15</title>
<g id="a_node15"><a xlink:href="globals_8h.html" target="_top" xlink:title=" ">
<polygon fill="white" stroke="#666666" points="1183.5,-107 1042.5,-107 1042.5,-77 1183.5,-77 1183.5,-107"/>
<text text-anchor="start" x="1050.5" y="-95" font-family="Helvetica,sans-Serif" font-size="10.00">firmware/wombat/include</text>
<text text-anchor="middle" x="1113" y="-84" font-family="Helvetica,sans-Serif" font-size="10.00">/globals.h</text>
</a>
</g>
</g>
<!-- Node1&#45;&gt;Node15 -->
<g id="edge16" class="edge">
<title>Node1&#45;&gt;Node15</title>
<path fill="none" stroke="#63b8ff" d="M1003.96,-264.42C1006.61,-248.09 1011.45,-226.51 1020,-209 1040.17,-167.72 1077.25,-127.76 1097.98,-107.25"/>
<polygon fill="#63b8ff" stroke="#63b8ff" points="1000.43,-264.38 1002.46,-274.78 1007.36,-265.38 1000.43,-264.38"/>
</g>
<!-- Node23 -->
<g id="node23" class="node">
<title>Node23</title>
<g id="a_node23"><a xlink:href="solar_8cpp.html" target="_top" xlink:title="Solar voltage and current monitoring using INA219 IC.">
<polygon fill="white" stroke="#666666" points="1184.5,-239 1029.5,-239 1029.5,-209 1184.5,-209 1184.5,-239"/>
<text text-anchor="start" x="1037.5" y="-227" font-family="Helvetica,sans-Serif" font-size="10.00">firmware/wombat/src</text>
<text text-anchor="middle" x="1107" y="-216" font-family="Helvetica,sans-Serif" font-size="10.00">/power_monitoring/solar.cpp</text>
</a>
</g>
</g>
<!-- Node1&#45;&gt;Node23 -->
<g id="edge28" class="edge">
<title>Node1&#45;&gt;Node23</title>
<path fill="none" stroke="#63b8ff" d="M1032.97,-269.69C1049.34,-259.82 1068.89,-248.01 1083.79,-239.01"/>
<polygon fill="#63b8ff" stroke="#63b8ff" points="1031.01,-266.79 1024.26,-274.95 1034.63,-272.78 1031.01,-266.79"/>
</g>
<!-- Node3 -->
<g id="node3" class="node">
<title>Node3</title>
<g id="a_node3"><a xlink:href="server_8h.html" target="_top" xlink:title="Handle the setup and maintenance of the BLE server and connected clients.">
<polygon fill="white" stroke="#666666" points="524.5,-173 383.5,-173 383.5,-143 524.5,-143 524.5,-173"/>
<text text-anchor="start" x="391.5" y="-161" font-family="Helvetica,sans-Serif" font-size="10.00">firmware/wombat/include</text>
<text text-anchor="middle" x="454" y="-150" font-family="Helvetica,sans-Serif" font-size="10.00">/bluetooth/server.h</text>
</a>
</g>
</g>
<!-- Node2&#45;&gt;Node3 -->
<g id="edge2" class="edge">
<title>Node2&#45;&gt;Node3</title>
<path fill="none" stroke="#63b8ff" d="M714.13,-207.12C655.8,-196.33 579.58,-182.23 524.74,-172.09"/>
<polygon fill="#63b8ff" stroke="#63b8ff" points="713.6,-210.58 724.07,-208.95 714.87,-203.69 713.6,-210.58"/>
</g>
<!-- Node14 -->
<g id="node14" class="node">
<title>Node14</title>
<g id="a_node14"><a xlink:href="power__monitoring_8cpp.html" target="_top" xlink:title="BluetoothLE power monitoring service setup and attached to BLE server.">
<polygon fill="white" stroke="#666666" points="889,-173 711,-173 711,-143 889,-143 889,-173"/>
<text text-anchor="start" x="719" y="-161" font-family="Helvetica,sans-Serif" font-size="10.00">firmware/wombat/src</text>
<text text-anchor="middle" x="800" y="-150" font-family="Helvetica,sans-Serif" font-size="10.00">/bluetooth/power_monitoring.cpp</text>
</a>
</g>
</g>
<!-- Node2&#45;&gt;Node14 -->
<g id="edge15" class="edge">
<title>Node2&#45;&gt;Node14</title>
<path fill="none" stroke="#63b8ff" d="M800,-198.54C800,-189.96 800,-180.61 800,-173.16"/>
<polygon fill="#63b8ff" stroke="#63b8ff" points="796.5,-198.8 800,-208.8 803.5,-198.8 796.5,-198.8"/>
</g>
<!-- Node4 -->
<g id="node4" class="node">
<title>Node4</title>
<g id="a_node4"><a xlink:href="uart_8h.html" target="_top" xlink:title="BluetoothLE UART service setup and handling.">
<polygon fill="white" stroke="#666666" points="445.5,-107 304.5,-107 304.5,-77 445.5,-77 445.5,-107"/>
<text text-anchor="start" x="312.5" y="-95" font-family="Helvetica,sans-Serif" font-size="10.00">firmware/wombat/include</text>
<text text-anchor="middle" x="375" y="-84" font-family="Helvetica,sans-Serif" font-size="10.00">/bluetooth/uart.h</text>
</a>
</g>
</g>
<!-- Node3&#45;&gt;Node4 -->
<g id="edge3" class="edge">
<title>Node3&#45;&gt;Node4</title>
<path fill="none" stroke="#63b8ff" d="M422.68,-136.75C410.08,-127.13 396.37,-115.86 386.77,-107.16"/>
<polygon fill="#63b8ff" stroke="#63b8ff" points="420.65,-139.6 430.75,-142.8 424.84,-134 420.65,-139.6"/>
</g>
<!-- Node6 -->
<g id="node6" class="node">
<title>Node6</title>
<g id="a_node6"><a xlink:href="_c_l_i_8h.html" target="_top" xlink:title="FreeRTOS CLI handler.">
<polygon fill="white" stroke="#666666" points="604.5,-107 463.5,-107 463.5,-77 604.5,-77 604.5,-107"/>
<text text-anchor="start" x="471.5" y="-95" font-family="Helvetica,sans-Serif" font-size="10.00">firmware/wombat/include</text>
<text text-anchor="middle" x="534" y="-84" font-family="Helvetica,sans-Serif" font-size="10.00">/cli/CLI.h</text>
</a>
</g>
</g>
<!-- Node3&#45;&gt;Node6 -->
<g id="edge6" class="edge">
<title>Node3&#45;&gt;Node6</title>
<path fill="none" stroke="#63b8ff" d="M473.63,-136.2C484.83,-126.7 498.81,-115.69 510.58,-107.16"/>
<polygon fill="#63b8ff" stroke="#63b8ff" points="471.29,-133.6 466.03,-142.8 475.88,-138.88 471.29,-133.6"/>
</g>
<!-- Node13 -->
<g id="node13" class="node">
<title>Node13</title>
<g id="a_node13"><a xlink:href="server_8cpp.html" target="_top" xlink:title="Setup and start BluetoothLE server.">
<polygon fill="white" stroke="#666666" points="286,-107 166,-107 166,-77 286,-77 286,-107"/>
<text text-anchor="start" x="174" y="-95" font-family="Helvetica,sans-Serif" font-size="10.00">firmware/wombat/src</text>
<text text-anchor="middle" x="226" y="-84" font-family="Helvetica,sans-Serif" font-size="10.00">/bluetooth/server.cpp</text>
</a>
</g>
</g>
<!-- Node3&#45;&gt;Node13 -->
<g id="edge14" class="edge">
<title>Node3&#45;&gt;Node13</title>
<path fill="none" stroke="#63b8ff" d="M393.87,-140.12C357.11,-129.8 310.64,-116.76 275.92,-107.01"/>
<polygon fill="#63b8ff" stroke="#63b8ff" points="393.39,-143.62 403.96,-142.95 395.28,-136.88 393.39,-143.62"/>
</g>
<!-- Node4&#45;&gt;Node3 -->
<g id="edge4" class="edge">
<title>Node4&#45;&gt;Node3</title>
<path fill="none" stroke="#63b8ff" d="M406.26,-113.2C418.86,-122.82 432.58,-134.1 442.19,-142.8"/>
<polygon fill="#63b8ff" stroke="#63b8ff" points="408.3,-110.36 398.2,-107.16 404.1,-115.96 408.3,-110.36"/>
</g>
<!-- Node5 -->
<g id="node5" class="node">
<title>Node5</title>
<g id="a_node5"><a xlink:href="uart_8cpp.html" target="_top" xlink:title="BluetoothLE UART service setup and handling.">
<polygon fill="white" stroke="#666666" points="120,-35.5 0,-35.5 0,-5.5 120,-5.5 120,-35.5"/>
<text text-anchor="start" x="8" y="-23.5" font-family="Helvetica,sans-Serif" font-size="10.00">firmware/wombat/src</text>
<text text-anchor="middle" x="60" y="-12.5" font-family="Helvetica,sans-Serif" font-size="10.00">/bluetooth/uart.cpp</text>
</a>
</g>
</g>
<!-- Node4&#45;&gt;Node5 -->
<g id="edge5" class="edge">
<title>Node4&#45;&gt;Node5</title>
<path fill="none" stroke="#63b8ff" d="M294.38,-76.19C246.19,-66.95 183.86,-54.31 129,-41 122.23,-39.36 115.11,-37.5 108.13,-35.6"/>
<polygon fill="#63b8ff" stroke="#63b8ff" points="293.96,-79.68 304.44,-78.11 295.27,-72.8 293.96,-79.68"/>
</g>
<!-- Node6&#45;&gt;Node3 -->
<g id="edge7" class="edge">
<title>Node6&#45;&gt;Node3</title>
<path fill="none" stroke="#63b8ff" d="M514.42,-113.75C503.23,-123.25 489.25,-134.26 477.47,-142.8"/>
<polygon fill="#63b8ff" stroke="#63b8ff" points="516.76,-116.36 522.01,-107.16 512.16,-111.08 516.76,-116.36"/>
</g>
<!-- Node7 -->
<g id="node7" class="node">
<title>Node7</title>
<g id="a_node7"><a xlink:href="_c_l_i_8cpp.html" target="_top" xlink:title="FreeRTOS CLI handler.">
<polygon fill="white" stroke="#666666" points="414,-35.5 294,-35.5 294,-5.5 414,-5.5 414,-35.5"/>
<text text-anchor="start" x="302" y="-23.5" font-family="Helvetica,sans-Serif" font-size="10.00">firmware/wombat/src</text>
<text text-anchor="middle" x="354" y="-12.5" font-family="Helvetica,sans-Serif" font-size="10.00">/cli/CLI.cpp</text>
</a>
</g>
</g>
<!-- Node6&#45;&gt;Node7 -->
<g id="edge8" class="edge">
<title>Node6&#45;&gt;Node7</title>
<path fill="none" stroke="#63b8ff" d="M488.06,-73.26C457.73,-61.55 418.54,-46.42 390.37,-35.54"/>
<polygon fill="#63b8ff" stroke="#63b8ff" points="486.98,-76.6 497.57,-76.94 489.51,-70.07 486.98,-76.6"/>
</g>
<!-- Node8 -->
<g id="node8" class="node">
<title>Node8</title>
<g id="a_node8"><a xlink:href="cat-m1_8cpp.html" target="_top" xlink:title="CAT&#45;M1 CLI command request and response handler.">
<polygon fill="white" stroke="#666666" points="690,-41 570,-41 570,0 690,0 690,-41"/>
<text text-anchor="start" x="578" y="-29" font-family="Helvetica,sans-Serif" font-size="10.00">firmware/wombat/src</text>
<text text-anchor="start" x="578" y="-18" font-family="Helvetica,sans-Serif" font-size="10.00">/cli/peripherals/cat</text>
<text text-anchor="middle" x="630" y="-7" font-family="Helvetica,sans-Serif" font-size="10.00">&#45;m1.cpp</text>
</a>
</g>
</g>
<!-- Node6&#45;&gt;Node8 -->
<g id="edge9" class="edge">
<title>Node6&#45;&gt;Node8</title>
<path fill="none" stroke="#63b8ff" d="M561.56,-71.04C574.57,-61.63 590.03,-50.44 602.96,-41.07"/>
<polygon fill="#63b8ff" stroke="#63b8ff" points="559.47,-68.24 553.43,-76.94 563.58,-73.91 559.47,-68.24"/>
</g>
<!-- Node9 -->
<g id="node9" class="node">
<title>Node9</title>
<g id="a_node9"><a xlink:href="sd__card_8cpp.html" target="_top" xlink:title=" ">
<polygon fill="white" stroke="#666666" points="828,-41 708,-41 708,0 828,0 828,-41"/>
<text text-anchor="start" x="716" y="-29" font-family="Helvetica,sans-Serif" font-size="10.00">firmware/wombat/src</text>
<text text-anchor="start" x="716" y="-18" font-family="Helvetica,sans-Serif" font-size="10.00">/cli/peripherals/sd</text>
<text text-anchor="middle" x="768" y="-7" font-family="Helvetica,sans-Serif" font-size="10.00">_card.cpp</text>
</a>
</g>
</g>
<!-- Node6&#45;&gt;Node9 -->
<g id="edge10" class="edge">
<title>Node6&#45;&gt;Node9</title>
<path fill="none" stroke="#63b8ff" d="M591.05,-74.06C626.43,-63.55 671.84,-50.06 707.79,-39.38"/>
<polygon fill="#63b8ff" stroke="#63b8ff" points="589.94,-70.73 581.35,-76.94 591.94,-77.44 589.94,-70.73"/>
</g>
<!-- Node10 -->
<g id="node10" class="node">
<title>Node10</title>
<g id="a_node10"><a xlink:href="sdi12_8cpp.html" target="_top" xlink:title="SDI&#45;12 command line interface handler.">
<polygon fill="white" stroke="#666666" points="276,-35.5 138,-35.5 138,-5.5 276,-5.5 276,-35.5"/>
<text text-anchor="start" x="146" y="-23.5" font-family="Helvetica,sans-Serif" font-size="10.00">firmware/wombat/src</text>
<text text-anchor="middle" x="207" y="-12.5" font-family="Helvetica,sans-Serif" font-size="10.00">/cli/peripherals/sdi12.cpp</text>
</a>
</g>
</g>
<!-- Node6&#45;&gt;Node10 -->
<g id="edge11" class="edge">
<title>Node6&#45;&gt;Node10</title>
<path fill="none" stroke="#63b8ff" d="M453.37,-75.8C404.52,-66.35 341.04,-53.62 285,-41 277.51,-39.31 269.64,-37.45 261.89,-35.57"/>
<polygon fill="#63b8ff" stroke="#63b8ff" points="452.76,-79.25 463.24,-77.71 454.09,-72.38 452.76,-79.25"/>
</g>
<!-- Node11 -->
<g id="node11" class="node">
<title>Node11</title>
<g id="a_node11"><a xlink:href="main_8cpp.html" target="_top" xlink:title=" ">
<polygon fill="white" stroke="#666666" points="966,-35.5 846,-35.5 846,-5.5 966,-5.5 966,-35.5"/>
<text text-anchor="start" x="854" y="-23.5" font-family="Helvetica,sans-Serif" font-size="10.00">firmware/wombat/src</text>
<text text-anchor="middle" x="906" y="-12.5" font-family="Helvetica,sans-Serif" font-size="10.00">/main.cpp</text>
</a>
</g>
</g>
<!-- Node6&#45;&gt;Node11 -->
<g id="edge12" class="edge">
<title>Node6&#45;&gt;Node11</title>
<path fill="none" stroke="#63b8ff" d="M614.54,-80.22C675.87,-71.4 762.2,-57.69 837,-41 844.17,-39.4 851.7,-37.5 859.04,-35.53"/>
<polygon fill="#63b8ff" stroke="#63b8ff" points="613.94,-76.77 604.53,-81.64 614.93,-83.69 613.94,-76.77"/>
</g>
<!-- Node12 -->
<g id="node12" class="node">
<title>Node12</title>
<g id="a_node12"><a xlink:href="mqtt__stack_8cpp.html" target="_top" xlink:title=" ">
<polygon fill="white" stroke="#666666" points="552,-35.5 432,-35.5 432,-5.5 552,-5.5 552,-35.5"/>
<text text-anchor="start" x="440" y="-23.5" font-family="Helvetica,sans-Serif" font-size="10.00">firmware/wombat/src</text>
<text text-anchor="middle" x="492" y="-12.5" font-family="Helvetica,sans-Serif" font-size="10.00">/mqtt_stack.cpp</text>
</a>
</g>
</g>
<!-- Node6&#45;&gt;Node12 -->
<g id="edge13" class="edge">
<title>Node6&#45;&gt;Node12</title>
<path fill="none" stroke="#63b8ff" d="M520.14,-68.06C513.64,-57.32 506.12,-44.86 500.49,-35.54"/>
<polygon fill="#63b8ff" stroke="#63b8ff" points="517.33,-70.19 525.5,-76.94 523.32,-66.57 517.33,-70.19"/>
</g>
<!-- Node15&#45;&gt;Node8 -->
<g id="edge22" class="edge">
<title>Node15&#45;&gt;Node8</title>
<path fill="none" stroke="#63b8ff" d="M1032.18,-84.98C948.3,-77.85 813.6,-63.97 699,-41 696.07,-40.41 693.08,-39.76 690.08,-39.07"/>
<polygon fill="#63b8ff" stroke="#63b8ff" points="1031.89,-88.46 1042.15,-85.81 1032.47,-81.49 1031.89,-88.46"/>
</g>
<!-- Node15&#45;&gt;Node9 -->
<g id="edge23" class="edge">
<title>Node15&#45;&gt;Node9</title>
<path fill="none" stroke="#63b8ff" d="M1032.2,-78.47C976.96,-69.38 902.21,-56.08 837,-41 834.09,-40.33 831.12,-39.61 828.12,-38.86"/>
<polygon fill="#63b8ff" stroke="#63b8ff" points="1031.85,-81.96 1042.28,-80.11 1032.98,-75.05 1031.85,-81.96"/>
</g>
<!-- Node15&#45;&gt;Node11 -->
<g id="edge24" class="edge">
<title>Node15&#45;&gt;Node11</title>
<path fill="none" stroke="#63b8ff" d="M1061.53,-73.72C1026.46,-61.95 980.64,-46.56 947.83,-35.54"/>
<polygon fill="#63b8ff" stroke="#63b8ff" points="1060.52,-77.07 1071.11,-76.94 1062.74,-70.43 1060.52,-77.07"/>
</g>
<!-- Node15&#45;&gt;Node12 -->
<g id="edge25" class="edge">
<title>Node15&#45;&gt;Node12</title>
<path fill="none" stroke="#63b8ff" d="M1032.1,-88.36C923.96,-83.76 726.68,-71.64 561,-41 553.17,-39.55 544.94,-37.61 537,-35.51"/>
<polygon fill="#63b8ff" stroke="#63b8ff" points="1032.15,-91.86 1042.29,-88.78 1032.44,-84.87 1032.15,-91.86"/>
</g>
<!-- Node16 -->
<g id="node16" class="node">
<title>Node16</title>
<g id="a_node16"><a xlink:href="_c_a_t___m1_8cpp.html" target="_top" xlink:title=" ">
<polygon fill="white" stroke="#666666" points="1104,-35.5 984,-35.5 984,-5.5 1104,-5.5 1104,-35.5"/>
<text text-anchor="start" x="992" y="-23.5" font-family="Helvetica,sans-Serif" font-size="10.00">firmware/wombat/src</text>
<text text-anchor="middle" x="1044" y="-12.5" font-family="Helvetica,sans-Serif" font-size="10.00">/CAT_M1.cpp</text>
</a>
</g>
</g>
<!-- Node15&#45;&gt;Node16 -->
<g id="edge17" class="edge">
<title>Node15&#45;&gt;Node16</title>
<path fill="none" stroke="#63b8ff" d="M1091.82,-69.67C1080.81,-58.58 1067.66,-45.34 1057.94,-35.54"/>
<polygon fill="#63b8ff" stroke="#63b8ff" points="1089.51,-72.3 1099.04,-76.94 1094.48,-67.37 1089.51,-72.3"/>
</g>
<!-- Node17 -->
<g id="node17" class="node">
<title>Node17</title>
<g id="a_node17"><a xlink:href="_sensor_task_8cpp.html" target="_top" xlink:title=" ">
<polygon fill="white" stroke="#666666" points="1242,-35.5 1122,-35.5 1122,-5.5 1242,-5.5 1242,-35.5"/>
<text text-anchor="start" x="1130" y="-23.5" font-family="Helvetica,sans-Serif" font-size="10.00">firmware/wombat/src</text>
<text text-anchor="middle" x="1182" y="-12.5" font-family="Helvetica,sans-Serif" font-size="10.00">/SensorTask.cpp</text>
</a>
</g>
</g>
<!-- Node15&#45;&gt;Node17 -->
<g id="edge18" class="edge">
<title>Node15&#45;&gt;Node17</title>
<path fill="none" stroke="#63b8ff" d="M1134.18,-69.67C1145.19,-58.58 1158.34,-45.34 1168.06,-35.54"/>
<polygon fill="#63b8ff" stroke="#63b8ff" points="1131.52,-67.37 1126.96,-76.94 1136.49,-72.3 1131.52,-67.37"/>
</g>
<!-- Node18 -->
<g id="node18" class="node">
<title>Node18</title>
<g id="a_node18"><a xlink:href="_utils_8cpp.html" target="_top" xlink:title="Global utility functions.">
<polygon fill="white" stroke="#666666" points="1380,-35.5 1260,-35.5 1260,-5.5 1380,-5.5 1380,-35.5"/>
<text text-anchor="start" x="1268" y="-23.5" font-family="Helvetica,sans-Serif" font-size="10.00">firmware/wombat/src</text>
<text text-anchor="middle" x="1320" y="-12.5" font-family="Helvetica,sans-Serif" font-size="10.00">/Utils.cpp</text>
</a>
</g>
</g>
<!-- Node15&#45;&gt;Node18 -->
<g id="edge19" class="edge">
<title>Node15&#45;&gt;Node18</title>
<path fill="none" stroke="#63b8ff" d="M1164.47,-73.72C1199.54,-61.95 1245.36,-46.56 1278.17,-35.54"/>
<polygon fill="#63b8ff" stroke="#63b8ff" points="1163.26,-70.43 1154.89,-76.94 1165.48,-77.07 1163.26,-70.43"/>
</g>
<!-- Node19 -->
<g id="node19" class="node">
<title>Node19</title>
<g id="a_node19"><a xlink:href="acquisition__intervals_8cpp.html" target="_top" xlink:title="Handles the time between measurements and uplinks by the device over LTE.">
<polygon fill="white" stroke="#666666" points="1555.5,-41 1398.5,-41 1398.5,0 1555.5,0 1555.5,-41"/>
<text text-anchor="start" x="1406.5" y="-29" font-family="Helvetica,sans-Serif" font-size="10.00">firmware/wombat/src</text>
<text text-anchor="start" x="1406.5" y="-18" font-family="Helvetica,sans-Serif" font-size="10.00">/cli/device_config/acquisition</text>
<text text-anchor="middle" x="1477" y="-7" font-family="Helvetica,sans-Serif" font-size="10.00">_intervals.cpp</text>
</a>
</g>
</g>
<!-- Node15&#45;&gt;Node19 -->
<g id="edge20" class="edge">
<title>Node15&#45;&gt;Node19</title>
<path fill="none" stroke="#63b8ff" d="M1193.82,-77.21C1248.92,-67.6 1323.5,-54.19 1389,-41 1392.07,-40.38 1395.19,-39.74 1398.35,-39.09"/>
<polygon fill="#63b8ff" stroke="#63b8ff" points="1193.02,-73.8 1183.76,-78.96 1194.22,-80.69 1193.02,-73.8"/>
</g>
<!-- Node20 -->
<g id="node20" class="node">
<title>Node20</title>
<g id="a_node20"><a xlink:href="cli__power_8cpp.html" target="_top" xlink:title="Power related commands.">
<polygon fill="white" stroke="#666666" points="1694,-41 1574,-41 1574,0 1694,0 1694,-41"/>
<text text-anchor="start" x="1582" y="-29" font-family="Helvetica,sans-Serif" font-size="10.00">firmware/wombat/src</text>
<text text-anchor="start" x="1582" y="-18" font-family="Helvetica,sans-Serif" font-size="10.00">/cli/device_config/cli</text>
<text text-anchor="middle" x="1634" y="-7" font-family="Helvetica,sans-Serif" font-size="10.00">_power.cpp</text>
</a>
</g>
</g>
<!-- Node15&#45;&gt;Node20 -->
<g id="edge21" class="edge">
<title>Node15&#45;&gt;Node20</title>
<path fill="none" stroke="#63b8ff" d="M1193.85,-86.1C1284.76,-79.66 1436.48,-66.09 1565,-41 1567.93,-40.43 1570.92,-39.79 1573.93,-39.11"/>
<polygon fill="#63b8ff" stroke="#63b8ff" points="1193.35,-82.63 1183.62,-86.81 1193.84,-89.61 1193.35,-82.63"/>
</g>
<!-- Node21 -->
<g id="node21" class="node">
<title>Node21</title>
<g id="a_node21"><a xlink:href="interface_8cpp.html" target="_top" xlink:title=" ">
<polygon fill="white" stroke="#666666" points="1834,-35.5 1712,-35.5 1712,-5.5 1834,-5.5 1834,-35.5"/>
<text text-anchor="start" x="1720" y="-23.5" font-family="Helvetica,sans-Serif" font-size="10.00">firmware/wombat/src</text>
<text text-anchor="middle" x="1773" y="-12.5" font-family="Helvetica,sans-Serif" font-size="10.00">/sd&#45;card/interface.cpp</text>
</a>
</g>
</g>
<!-- Node15&#45;&gt;Node21 -->
<g id="edge26" class="edge">
<title>Node15&#45;&gt;Node21</title>
<path fill="none" stroke="#63b8ff" d="M1194.01,-88.92C1308.31,-84.91 1523.03,-73.4 1703,-41 1710.95,-39.57 1719.29,-37.64 1727.35,-35.54"/>
<polygon fill="#63b8ff" stroke="#63b8ff" points="1193.82,-85.43 1183.94,-89.27 1194.06,-92.42 1193.82,-85.43"/>
</g>
<!-- Node22 -->
<g id="node22" class="node">
<title>Node22</title>
<g id="a_node22"><a xlink:href="uplinks_8cpp.html" target="_top" xlink:title=" ">
<polygon fill="white" stroke="#666666" points="1972,-35.5 1852,-35.5 1852,-5.5 1972,-5.5 1972,-35.5"/>
<text text-anchor="start" x="1860" y="-23.5" font-family="Helvetica,sans-Serif" font-size="10.00">firmware/wombat/src</text>
<text text-anchor="middle" x="1912" y="-12.5" font-family="Helvetica,sans-Serif" font-size="10.00">/uplinks.cpp</text>
</a>
</g>
</g>
<!-- Node15&#45;&gt;Node22 -->
<g id="edge27" class="edge">
<title>Node15&#45;&gt;Node22</title>
<path fill="none" stroke="#63b8ff" d="M1193.82,-90.9C1329.14,-89.53 1609.71,-81.5 1843,-41 1850.97,-39.62 1859.34,-37.68 1867.4,-35.56"/>
<polygon fill="#63b8ff" stroke="#63b8ff" points="1193.51,-87.41 1183.54,-91 1193.57,-94.41 1193.51,-87.41"/>
</g>
</g>
</svg>
