<?xml version="1.0" encoding="UTF-8" standalone="no"?>
<!DOCTYPE svg PUBLIC "-//W3C//DTD SVG 1.1//EN"
 "http://www.w3.org/Graphics/SVG/1.1/DTD/svg11.dtd">
<!-- Generated by graphviz version 2.43.0 (0)
 -->
<!-- Title: firmware/wombat/include/power_monitoring/solar.h Pages: 1 -->
<svg width="1302pt" height="313pt"
 viewBox="0.00 0.00 1301.50 313.00" xmlns="http://www.w3.org/2000/svg" xmlns:xlink="http://www.w3.org/1999/xlink">
<g id="graph0" class="graph" transform="scale(1 1) rotate(0) translate(4 309)">
<title>firmware/wombat/include/power_monitoring/solar.h</title>
<!-- Node1 -->
<g id="node1" class="node">
<title>Node1</title>
<g id="a_node1"><a xlink:title="Solar voltage and current monitoring using INA219 IC.">
<polygon fill="#999999" stroke="#666666" points="697.5,-305 554.5,-305 554.5,-275 697.5,-275 697.5,-305"/>
<text text-anchor="start" x="562.5" y="-293" font-family="Helvetica,sans-Serif" font-size="10.00">firmware/wombat/include</text>
<text text-anchor="middle" x="626" y="-282" font-family="Helvetica,sans-Serif" font-size="10.00">/power_monitoring/solar.h</text>
</a>
</g>
</g>
<!-- Node2 -->
<g id="node2" class="node">
<title>Node2</title>
<g id="a_node2"><a xlink:href="power__monitoring_8h.html" target="_top" xlink:title="Setup BluetoothLE power monitoring information.">
<polygon fill="white" stroke="#666666" points="575.5,-239 408.5,-239 408.5,-209 575.5,-209 575.5,-239"/>
<text text-anchor="start" x="416.5" y="-227" font-family="Helvetica,sans-Serif" font-size="10.00">firmware/wombat/include</text>
<text text-anchor="middle" x="492" y="-216" font-family="Helvetica,sans-Serif" font-size="10.00">/bluetooth/power_monitoring.h</text>
</a>
</g>
</g>
<!-- Node1&#45;&gt;Node2 -->
<g id="edge1" class="edge">
<title>Node1&#45;&gt;Node2</title>
<path fill="none" stroke="#63b8ff" d="M587.29,-270.51C566.27,-260.47 540.7,-248.26 521.34,-239.01"/>
<polygon fill="#63b8ff" stroke="#63b8ff" points="586.06,-273.8 596.59,-274.95 589.08,-267.49 586.06,-273.8"/>
</g>
<!-- Node12 -->
<g id="node12" class="node">
<title>Node12</title>
<g id="a_node12"><a xlink:href="globals_8h.html" target="_top" xlink:title=" ">
<polygon fill="white" stroke="#666666" points="783.5,-107 642.5,-107 642.5,-77 783.5,-77 783.5,-107"/>
<text text-anchor="start" x="650.5" y="-95" font-family="Helvetica,sans-Serif" font-size="10.00">firmware/wombat/include</text>
<text text-anchor="middle" x="713" y="-84" font-family="Helvetica,sans-Serif" font-size="10.00">/globals.h</text>
</a>
</g>
</g>
<!-- Node1&#45;&gt;Node12 -->
<g id="edge13" class="edge">
<title>Node1&#45;&gt;Node12</title>
<path fill="none" stroke="#63b8ff" d="M629.86,-264.51C632.88,-248.37 637.78,-226.98 645,-209 660.65,-170 687.91,-128.5 702.72,-107.29"/>
<polygon fill="#63b8ff" stroke="#63b8ff" points="626.35,-264.28 628.07,-274.74 633.25,-265.49 626.35,-264.28"/>
</g>
<!-- Node18 -->
<g id="node18" class="node">
<title>Node18</title>
<g id="a_node18"><a xlink:href="solar_8cpp.html" target="_top" xlink:title="Solar voltage and current monitoring using INA219 IC.">
<polygon fill="white" stroke="#666666" points="809.5,-239 654.5,-239 654.5,-209 809.5,-209 809.5,-239"/>
<text text-anchor="start" x="662.5" y="-227" font-family="Helvetica,sans-Serif" font-size="10.00">firmware/wombat/src</text>
<text text-anchor="middle" x="732" y="-216" font-family="Helvetica,sans-Serif" font-size="10.00">/power_monitoring/solar.cpp</text>
</a>
</g>
</g>
<!-- Node1&#45;&gt;Node18 -->
<g id="edge21" class="edge">
<title>Node1&#45;&gt;Node18</title>
<path fill="none" stroke="#63b8ff" d="M657.97,-269.69C674.34,-259.82 693.89,-248.01 708.79,-239.01"/>
<polygon fill="#63b8ff" stroke="#63b8ff" points="656.01,-266.79 649.26,-274.95 659.63,-272.78 656.01,-266.79"/>
</g>
<!-- Node3 -->
<g id="node3" class="node">
<title>Node3</title>
<g id="a_node3"><a xlink:href="server_8h.html" target="_top" xlink:title="Handle the setup and maintenance of the BLE server and connected clients.">
<polygon fill="white" stroke="#666666" points="349.5,-173 208.5,-173 208.5,-143 349.5,-143 349.5,-173"/>
<text text-anchor="start" x="216.5" y="-161" font-family="Helvetica,sans-Serif" font-size="10.00">firmware/wombat/include</text>
<text text-anchor="middle" x="279" y="-150" font-family="Helvetica,sans-Serif" font-size="10.00">/bluetooth/server.h</text>
</a>
</g>
</g>
<!-- Node2&#45;&gt;Node3 -->
<g id="edge2" class="edge">
<title>Node2&#45;&gt;Node3</title>
<path fill="none" stroke="#63b8ff" d="M435.39,-205.99C401.11,-195.69 357.93,-182.72 325.63,-173.01"/>
<polygon fill="#63b8ff" stroke="#63b8ff" points="434.67,-209.43 445.26,-208.95 436.69,-202.73 434.67,-209.43"/>
</g>
<!-- Node11 -->
<g id="node11" class="node">
<title>Node11</title>
<g id="a_node11"><a xlink:href="power__monitoring_8cpp.html" target="_top" xlink:title="BluetoothLE power monitoring service setup and attached to BLE server.">
<polygon fill="white" stroke="#666666" points="581,-173 403,-173 403,-143 581,-143 581,-173"/>
<text text-anchor="start" x="411" y="-161" font-family="Helvetica,sans-Serif" font-size="10.00">firmware/wombat/src</text>
<text text-anchor="middle" x="492" y="-150" font-family="Helvetica,sans-Serif" font-size="10.00">/bluetooth/power_monitoring.cpp</text>
</a>
</g>
</g>
<!-- Node2&#45;&gt;Node11 -->
<g id="edge12" class="edge">
<title>Node2&#45;&gt;Node11</title>
<path fill="none" stroke="#63b8ff" d="M492,-198.54C492,-189.96 492,-180.61 492,-173.16"/>
<polygon fill="#63b8ff" stroke="#63b8ff" points="488.5,-198.8 492,-208.8 495.5,-198.8 488.5,-198.8"/>
</g>
<!-- Node4 -->
<g id="node4" class="node">
<title>Node4</title>
<g id="a_node4"><a xlink:href="uart_8h.html" target="_top" xlink:title="BluetoothLE UART service setup and handling.">
<polygon fill="white" stroke="#666666" points="279.5,-107 138.5,-107 138.5,-77 279.5,-77 279.5,-107"/>
<text text-anchor="start" x="146.5" y="-95" font-family="Helvetica,sans-Serif" font-size="10.00">firmware/wombat/include</text>
<text text-anchor="middle" x="209" y="-84" font-family="Helvetica,sans-Serif" font-size="10.00">/bluetooth/uart.h</text>
</a>
</g>
</g>
<!-- Node3&#45;&gt;Node4 -->
<g id="edge3" class="edge">
<title>Node3&#45;&gt;Node4</title>
<path fill="none" stroke="#63b8ff" d="M249.88,-136.2C238.82,-126.7 226.99,-115.69 218.78,-107.16"/>
<polygon fill="#63b8ff" stroke="#63b8ff" points="247.83,-139.05 257.74,-142.8 252.33,-133.69 247.83,-139.05"/>
</g>
<!-- Node6 -->
<g id="node6" class="node">
<title>Node6</title>
<g id="a_node6"><a xlink:href="_c_l_i_8h.html" target="_top" xlink:title="FreeRTOS CLI handler.">
<polygon fill="white" stroke="#666666" points="438.5,-107 297.5,-107 297.5,-77 438.5,-77 438.5,-107"/>
<text text-anchor="start" x="305.5" y="-95" font-family="Helvetica,sans-Serif" font-size="10.00">firmware/wombat/include</text>
<text text-anchor="middle" x="368" y="-84" font-family="Helvetica,sans-Serif" font-size="10.00">/cli/CLI.h</text>
</a>
</g>
</g>
<!-- Node3&#45;&gt;Node6 -->
<g id="edge6" class="edge">
<title>Node3&#45;&gt;Node6</title>
<path fill="none" stroke="#63b8ff" d="M301.19,-136.48C313.79,-126.91 329.5,-115.77 342.59,-107.16"/>
<polygon fill="#63b8ff" stroke="#63b8ff" points="298.8,-133.91 293.03,-142.8 303.08,-139.44 298.8,-133.91"/>
</g>
<!-- Node10 -->
<g id="node10" class="node">
<title>Node10</title>
<g id="a_node10"><a xlink:href="server_8cpp.html" target="_top" xlink:title="Setup and start BluetoothLE server.">
<polygon fill="white" stroke="#666666" points="120,-107 0,-107 0,-77 120,-77 120,-107"/>
<text text-anchor="start" x="8" y="-95" font-family="Helvetica,sans-Serif" font-size="10.00">firmware/wombat/src</text>
<text text-anchor="middle" x="60" y="-84" font-family="Helvetica,sans-Serif" font-size="10.00">/bluetooth/server.cpp</text>
</a>
</g>
</g>
<!-- Node3&#45;&gt;Node10 -->
<g id="edge11" class="edge">
<title>Node3&#45;&gt;Node10</title>
<path fill="none" stroke="#63b8ff" d="M221.24,-140.12C185.93,-129.8 141.3,-116.76 107.95,-107.01"/>
<polygon fill="#63b8ff" stroke="#63b8ff" points="220.36,-143.51 230.94,-142.95 222.32,-136.79 220.36,-143.51"/>
</g>
<!-- Node4&#45;&gt;Node3 -->
<g id="edge4" class="edge">
<title>Node4&#45;&gt;Node3</title>
<path fill="none" stroke="#63b8ff" d="M238.07,-113.75C249.13,-123.25 260.96,-134.26 269.18,-142.8"/>
<polygon fill="#63b8ff" stroke="#63b8ff" points="240.12,-110.91 230.21,-107.16 235.62,-116.27 240.12,-110.91"/>
</g>
<!-- Node5 -->
<g id="node5" class="node">
<title>Node5</title>
<g id="a_node5"><a xlink:href="uart_8cpp.html" target="_top" xlink:title="BluetoothLE UART service setup and handling.">
<polygon fill="white" stroke="#666666" points="152,-35.5 32,-35.5 32,-5.5 152,-5.5 152,-35.5"/>
<text text-anchor="start" x="40" y="-23.5" font-family="Helvetica,sans-Serif" font-size="10.00">firmware/wombat/src</text>
<text text-anchor="middle" x="92" y="-12.5" font-family="Helvetica,sans-Serif" font-size="10.00">/bluetooth/uart.cpp</text>
</a>
</g>
</g>
<!-- Node4&#45;&gt;Node5 -->
<g id="edge5" class="edge">
<title>Node4&#45;&gt;Node5</title>
<path fill="none" stroke="#63b8ff" d="M176.55,-71.72C157.23,-60.25 133.16,-45.95 115.64,-35.54"/>
<polygon fill="#63b8ff" stroke="#63b8ff" points="174.94,-74.84 185.32,-76.94 178.51,-68.82 174.94,-74.84"/>
</g>
<!-- Node6&#45;&gt;Node3 -->
<g id="edge7" class="edge">
<title>Node6&#45;&gt;Node3</title>
<path fill="none" stroke="#63b8ff" d="M345.87,-113.48C333.28,-123.04 317.57,-134.18 304.47,-142.8"/>
<polygon fill="#63b8ff" stroke="#63b8ff" points="348.26,-116.06 354.02,-107.16 343.97,-110.52 348.26,-116.06"/>
</g>
<!-- Node7 -->
<g id="node7" class="node">
<title>Node7</title>
<g id="a_node7"><a xlink:href="_c_l_i_8cpp.html" target="_top" xlink:title="FreeRTOS CLI handler.">
<polygon fill="white" stroke="#666666" points="290,-35.5 170,-35.5 170,-5.5 290,-5.5 290,-35.5"/>
<text text-anchor="start" x="178" y="-23.5" font-family="Helvetica,sans-Serif" font-size="10.00">firmware/wombat/src</text>
<text text-anchor="middle" x="230" y="-12.5" font-family="Helvetica,sans-Serif" font-size="10.00">/cli/CLI.cpp</text>
</a>
</g>
</g>
<!-- Node6&#45;&gt;Node7 -->
<g id="edge8" class="edge">
<title>Node6&#45;&gt;Node7</title>
<path fill="none" stroke="#63b8ff" d="M330.96,-72.34C307.97,-60.77 278.92,-46.14 257.88,-35.54"/>
<polygon fill="#63b8ff" stroke="#63b8ff" points="329.57,-75.56 340.07,-76.94 332.72,-69.31 329.57,-75.56"/>
</g>
<!-- Node8 -->
<g id="node8" class="node">
<title>Node8</title>
<g id="a_node8"><a xlink:href="main_8cpp.html" target="_top" xlink:title=" ">
<polygon fill="white" stroke="#666666" points="566,-35.5 446,-35.5 446,-5.5 566,-5.5 566,-35.5"/>
<text text-anchor="start" x="454" y="-23.5" font-family="Helvetica,sans-Serif" font-size="10.00">firmware/wombat/src</text>
<text text-anchor="middle" x="506" y="-12.5" font-family="Helvetica,sans-Serif" font-size="10.00">/main.cpp</text>
</a>
</g>
</g>
<!-- Node6&#45;&gt;Node8 -->
<g id="edge9" class="edge">
<title>Node6&#45;&gt;Node8</title>
<path fill="none" stroke="#63b8ff" d="M405.04,-72.34C428.03,-60.77 457.08,-46.14 478.12,-35.54"/>
<polygon fill="#63b8ff" stroke="#63b8ff" points="403.28,-69.31 395.93,-76.94 406.43,-75.56 403.28,-69.31"/>
</g>
<!-- Node9 -->
<g id="node9" class="node">
<title>Node9</title>
<g id="a_node9"><a xlink:href="mqtt__stack_8cpp.html" target="_top" xlink:title=" ">
<polygon fill="white" stroke="#666666" points="428,-35.5 308,-35.5 308,-5.5 428,-5.5 428,-35.5"/>
<text text-anchor="start" x="316" y="-23.5" font-family="Helvetica,sans-Serif" font-size="10.00">firmware/wombat/src</text>
<text text-anchor="middle" x="368" y="-12.5" font-family="Helvetica,sans-Serif" font-size="10.00">/mqtt_stack.cpp</text>
</a>
</g>
</g>
<!-- Node6&#45;&gt;Node9 -->
<g id="edge10" class="edge">
<title>Node6&#45;&gt;Node9</title>
<path fill="none" stroke="#63b8ff" d="M368,-66.75C368,-56.31 368,-44.49 368,-35.54"/>
<polygon fill="#63b8ff" stroke="#63b8ff" points="364.5,-66.94 368,-76.94 371.5,-66.94 364.5,-66.94"/>
</g>
<!-- Node12&#45;&gt;Node8 -->
<g id="edge18" class="edge">
<title>Node12&#45;&gt;Node8</title>
<path fill="none" stroke="#63b8ff" d="M661.53,-73.72C626.46,-61.95 580.64,-46.56 547.83,-35.54"/>
<polygon fill="#63b8ff" stroke="#63b8ff" points="660.52,-77.07 671.11,-76.94 662.74,-70.43 660.52,-77.07"/>
</g>
<!-- Node12&#45;&gt;Node9 -->
<g id="edge19" class="edge">
<title>Node12&#45;&gt;Node9</title>
<path fill="none" stroke="#63b8ff" d="M632.2,-78.47C576.96,-69.38 502.21,-56.08 437,-41 429.97,-39.37 422.58,-37.48 415.36,-35.53"/>
<polygon fill="#63b8ff" stroke="#63b8ff" points="631.85,-81.96 642.28,-80.11 632.98,-75.05 631.85,-81.96"/>
</g>
<!-- Node13 -->
<g id="node13" class="node">
<title>Node13</title>
<g id="a_node13"><a xlink:href="_sensor_task_8cpp.html" target="_top" xlink:title=" ">
<polygon fill="white" stroke="#666666" points="980,-35.5 860,-35.5 860,-5.5 980,-5.5 980,-35.5"/>
<text text-anchor="start" x="868" y="-23.5" font-family="Helvetica,sans-Serif" font-size="10.00">firmware/wombat/src</text>
<text text-anchor="middle" x="920" y="-12.5" font-family="Helvetica,sans-Serif" font-size="10.00">/SensorTask.cpp</text>
</a>
</g>
</g>
<!-- Node12&#45;&gt;Node13 -->
<g id="edge14" class="edge">
<title>Node12&#45;&gt;Node13</title>
<path fill="none" stroke="#63b8ff" d="M764.47,-73.72C799.54,-61.95 845.36,-46.56 878.17,-35.54"/>
<polygon fill="#63b8ff" stroke="#63b8ff" points="763.26,-70.43 754.89,-76.94 765.48,-77.07 763.26,-70.43"/>
</g>
<!-- Node14 -->
<g id="node14" class="node">
<title>Node14</title>
<g id="a_node14"><a xlink:href="_utils_8cpp.html" target="_top" xlink:title="Global utility functions.">
<polygon fill="white" stroke="#666666" points="1118,-35.5 998,-35.5 998,-5.5 1118,-5.5 1118,-35.5"/>
<text text-anchor="start" x="1006" y="-23.5" font-family="Helvetica,sans-Serif" font-size="10.00">firmware/wombat/src</text>
<text text-anchor="middle" x="1058" y="-12.5" font-family="Helvetica,sans-Serif" font-size="10.00">/Utils.cpp</text>
</a>
</g>
</g>
<!-- Node12&#45;&gt;Node14 -->
<g id="edge15" class="edge">
<title>Node12&#45;&gt;Node14</title>
<path fill="none" stroke="#63b8ff" d="M793.8,-78.47C849.04,-69.38 923.79,-56.08 989,-41 996.03,-39.37 1003.42,-37.48 1010.64,-35.53"/>
<polygon fill="#63b8ff" stroke="#63b8ff" points="793.02,-75.05 783.72,-80.11 794.15,-81.96 793.02,-75.05"/>
</g>
<!-- Node15 -->
<g id="node15" class="node">
<title>Node15</title>
<g id="a_node15"><a xlink:href="acquisition__intervals_8cpp.html" target="_top" xlink:title="Handles the time between measurements and uplinks by the device over LTE.">
<polygon fill="white" stroke="#666666" points="1293.5,-41 1136.5,-41 1136.5,0 1293.5,0 1293.5,-41"/>
<text text-anchor="start" x="1144.5" y="-29" font-family="Helvetica,sans-Serif" font-size="10.00">firmware/wombat/src</text>
<text text-anchor="start" x="1144.5" y="-18" font-family="Helvetica,sans-Serif" font-size="10.00">/cli/device_config/acquisition</text>
<text text-anchor="middle" x="1215" y="-7" font-family="Helvetica,sans-Serif" font-size="10.00">_intervals.cpp</text>
</a>
</g>
</g>
<!-- Node12&#45;&gt;Node15 -->
<g id="edge16" class="edge">
<title>Node12&#45;&gt;Node15</title>
<path fill="none" stroke="#63b8ff" d="M793.83,-83.6C877.52,-75.39 1011.91,-60.65 1127,-41 1130.09,-40.47 1133.23,-39.91 1136.39,-39.32"/>
<polygon fill="#63b8ff" stroke="#63b8ff" points="793.24,-80.14 783.63,-84.59 793.92,-87.11 793.24,-80.14"/>
</g>
<!-- Node16 -->
<g id="node16" class="node">
<title>Node16</title>
<g id="a_node16"><a xlink:href="cat-m1_8cpp.html" target="_top" xlink:title="CAT&#45;M1 CLI command request and response handler.">
<polygon fill="white" stroke="#666666" points="704,-41 584,-41 584,0 704,0 704,-41"/>
<text text-anchor="start" x="592" y="-29" font-family="Helvetica,sans-Serif" font-size="10.00">firmware/wombat/src</text>
<text text-anchor="start" x="592" y="-18" font-family="Helvetica,sans-Serif" font-size="10.00">/cli/peripherals/cat</text>
<text text-anchor="middle" x="644" y="-7" font-family="Helvetica,sans-Serif" font-size="10.00">&#45;m1.cpp</text>
</a>
</g>
</g>
<!-- Node12&#45;&gt;Node16 -->
<g id="edge17" class="edge">
<title>Node12&#45;&gt;Node16</title>
<path fill="none" stroke="#63b8ff" d="M691.84,-69.69C682.79,-60.57 672.29,-49.99 663.43,-41.07"/>
<polygon fill="#63b8ff" stroke="#63b8ff" points="689.51,-72.3 699.04,-76.94 694.48,-67.37 689.51,-72.3"/>
</g>
<!-- Node17 -->
<g id="node17" class="node">
<title>Node17</title>
<g id="a_node17"><a xlink:href="uplinks_8cpp.html" target="_top" xlink:title=" ">
<polygon fill="white" stroke="#666666" points="842,-35.5 722,-35.5 722,-5.5 842,-5.5 842,-35.5"/>
<text text-anchor="start" x="730" y="-23.5" font-family="Helvetica,sans-Serif" font-size="10.00">firmware/wombat/src</text>
<text text-anchor="middle" x="782" y="-12.5" font-family="Helvetica,sans-Serif" font-size="10.00">/uplinks.cpp</text>
</a>
</g>
</g>
<!-- Node12&#45;&gt;Node17 -->
<g id="edge20" class="edge">
<title>Node12&#45;&gt;Node17</title>
<path fill="none" stroke="#63b8ff" d="M734.18,-69.67C745.19,-58.58 758.34,-45.34 768.06,-35.54"/>
<polygon fill="#63b8ff" stroke="#63b8ff" points="731.52,-67.37 726.96,-76.94 736.49,-72.3 731.52,-67.37"/>
</g>
</g>
</svg>
