<?xml version="1.0" encoding="UTF-8" standalone="no"?>
<!DOCTYPE svg PUBLIC "-//W3C//DTD SVG 1.1//EN"
 "http://www.w3.org/Graphics/SVG/1.1/DTD/svg11.dtd">
<!-- Generated by graphviz version 2.43.0 (0)
 -->
<!-- Title: firmware/wombat/lib/str_utils/str_utils.h Pages: 1 -->
<svg width="2339pt" height="346pt"
 viewBox="0.00 0.00 2338.66 346.00" xmlns="http://www.w3.org/2000/svg" xmlns:xlink="http://www.w3.org/1999/xlink">
<g id="graph0" class="graph" transform="scale(1 1) rotate(0) translate(4 342)">
<title>firmware/wombat/lib/str_utils/str_utils.h</title>
<!-- Node1 -->
<g id="node1" class="node">
<title>Node1</title>
<g id="a_node1"><a xlink:title=" ">
<polygon fill="#999999" stroke="#666666" points="1572.66,-338 1454.66,-338 1454.66,-308 1572.66,-308 1572.66,-338"/>
<text text-anchor="start" x="1462.66" y="-326" font-family="Helvetica,sans-Serif" font-size="10.00">firmware/wombat/lib</text>
<text text-anchor="middle" x="1513.66" y="-315" font-family="Helvetica,sans-Serif" font-size="10.00">/str_utils/str_utils.h</text>
</a>
</g>
</g>
<!-- Node2 -->
<g id="node2" class="node">
<title>Node2</title>
<g id="a_node2"><a xlink:href="globals_8h.html" target="_top" xlink:title=" ">
<polygon fill="white" stroke="#666666" points="1435.16,-266.5 1294.16,-266.5 1294.16,-236.5 1435.16,-236.5 1435.16,-266.5"/>
<text text-anchor="start" x="1302.16" y="-254.5" font-family="Helvetica,sans-Serif" font-size="10.00">firmware/wombat/include</text>
<text text-anchor="middle" x="1364.66" y="-243.5" font-family="Helvetica,sans-Serif" font-size="10.00">/globals.h</text>
</a>
</g>
</g>
<!-- Node1&#45;&gt;Node2 -->
<g id="edge1" class="edge">
<title>Node1&#45;&gt;Node2</title>
<path fill="none" stroke="#63b8ff" d="M1474.33,-303.65C1449.41,-292.03 1417.68,-277.23 1394.77,-266.54"/>
<polygon fill="#63b8ff" stroke="#63b8ff" points="1472.97,-306.88 1483.51,-307.94 1475.93,-300.54 1472.97,-306.88"/>
</g>
<!-- Node25 -->
<g id="node25" class="node">
<title>Node25</title>
<g id="a_node25"><a xlink:href="str__utils_8cpp.html" target="_top" xlink:title=" ">
<polygon fill="white" stroke="#666666" points="1574.16,-266.5 1453.16,-266.5 1453.16,-236.5 1574.16,-236.5 1574.16,-266.5"/>
<text text-anchor="start" x="1461.16" y="-254.5" font-family="Helvetica,sans-Serif" font-size="10.00">firmware/wombat/lib</text>
<text text-anchor="middle" x="1513.66" y="-243.5" font-family="Helvetica,sans-Serif" font-size="10.00">/str_utils/str_utils.cpp</text>
</a>
</g>
</g>
<!-- Node1&#45;&gt;Node25 -->
<g id="edge41" class="edge">
<title>Node1&#45;&gt;Node25</title>
<path fill="none" stroke="#63b8ff" d="M1513.66,-297.75C1513.66,-287.31 1513.66,-275.49 1513.66,-266.54"/>
<polygon fill="#63b8ff" stroke="#63b8ff" points="1510.16,-297.94 1513.66,-307.94 1517.16,-297.94 1510.16,-297.94"/>
</g>
<!-- Node26 -->
<g id="node26" class="node">
<title>Node26</title>
<g id="a_node26"><a xlink:href="test__str__utils_8cpp.html" target="_top" xlink:title=" ">
<polygon fill="white" stroke="#666666" points="1717.16,-272 1592.16,-272 1592.16,-231 1717.16,-231 1717.16,-272"/>
<text text-anchor="start" x="1600.16" y="-260" font-family="Helvetica,sans-Serif" font-size="10.00">firmware/wombat/test</text>
<text text-anchor="start" x="1600.16" y="-249" font-family="Helvetica,sans-Serif" font-size="10.00">/test_utils/test_str</text>
<text text-anchor="middle" x="1654.66" y="-238" font-family="Helvetica,sans-Serif" font-size="10.00">_utils.cpp</text>
</a>
</g>
</g>
<!-- Node1&#45;&gt;Node26 -->
<g id="edge42" class="edge">
<title>Node1&#45;&gt;Node26</title>
<path fill="none" stroke="#63b8ff" d="M1551.18,-303.51C1570.86,-293.81 1594.96,-281.93 1614.95,-272.07"/>
<polygon fill="#63b8ff" stroke="#63b8ff" points="1549.62,-300.38 1542.2,-307.94 1552.71,-306.65 1549.62,-300.38"/>
</g>
<!-- Node3 -->
<g id="node3" class="node">
<title>Node3</title>
<g id="a_node3"><a xlink:href="_utils_8h.html" target="_top" xlink:title=" ">
<polygon fill="white" stroke="#666666" points="1148.16,-189.5 1007.16,-189.5 1007.16,-159.5 1148.16,-159.5 1148.16,-189.5"/>
<text text-anchor="start" x="1015.16" y="-177.5" font-family="Helvetica,sans-Serif" font-size="10.00">firmware/wombat/include</text>
<text text-anchor="middle" x="1077.66" y="-166.5" font-family="Helvetica,sans-Serif" font-size="10.00">/Utils.h</text>
</a>
</g>
</g>
<!-- Node2&#45;&gt;Node3 -->
<g id="edge2" class="edge">
<title>Node2&#45;&gt;Node3</title>
<path fill="none" stroke="#63b8ff" d="M1301.12,-233.89C1250.24,-220.6 1179.67,-202.16 1131.53,-189.58"/>
<polygon fill="#63b8ff" stroke="#63b8ff" points="1300.46,-237.34 1311.02,-236.48 1302.23,-230.57 1300.46,-237.34"/>
</g>
<!-- Node8 -->
<g id="node8" class="node">
<title>Node8</title>
<g id="a_node8"><a xlink:href="config__cli_8cpp.html" target="_top" xlink:title="Command line interface node configuration commands.">
<polygon fill="white" stroke="#666666" points="1243.16,-41 1110.16,-41 1110.16,0 1243.16,0 1243.16,-41"/>
<text text-anchor="start" x="1118.16" y="-29" font-family="Helvetica,sans-Serif" font-size="10.00">firmware/wombat/src</text>
<text text-anchor="start" x="1118.16" y="-18" font-family="Helvetica,sans-Serif" font-size="10.00">/cli/device_config/config</text>
<text text-anchor="middle" x="1176.66" y="-7" font-family="Helvetica,sans-Serif" font-size="10.00">_cli.cpp</text>
</a>
</g>
</g>
<!-- Node2&#45;&gt;Node8 -->
<g id="edge30" class="edge">
<title>Node2&#45;&gt;Node8</title>
<path fill="none" stroke="#63b8ff" d="M1429.05,-234.14C1433.98,-233.03 1438.89,-231.97 1443.66,-231 1689.06,-181.08 2156.57,-260.04 1985.66,-77 1973.03,-63.47 1434.83,-34.7 1243.39,-24.87"/>
<polygon fill="#63b8ff" stroke="#63b8ff" points="1427.88,-230.82 1418.93,-236.48 1429.46,-237.64 1427.88,-230.82"/>
</g>
<!-- Node10 -->
<g id="node10" class="node">
<title>Node10</title>
<g id="a_node10"><a xlink:href="main_8cpp.html" target="_top" xlink:title=" ">
<polygon fill="white" stroke="#666666" points="659.66,-35.5 539.66,-35.5 539.66,-5.5 659.66,-5.5 659.66,-35.5"/>
<text text-anchor="start" x="547.66" y="-23.5" font-family="Helvetica,sans-Serif" font-size="10.00">firmware/wombat/src</text>
<text text-anchor="middle" x="599.66" y="-12.5" font-family="Helvetica,sans-Serif" font-size="10.00">/main.cpp</text>
</a>
</g>
</g>
<!-- Node2&#45;&gt;Node10 -->
<g id="edge36" class="edge">
<title>Node2&#45;&gt;Node10</title>
<path fill="none" stroke="#63b8ff" d="M1284.05,-249.57C1059.67,-246.5 431.1,-234.51 228.66,-195 126.99,-175.16 68.61,-202.49 8.66,-118 -1.88,-103.14 -3.61,-90.47 8.66,-77 43.94,-38.26 396.16,-26.04 539.48,-22.66"/>
<polygon fill="#63b8ff" stroke="#63b8ff" points="1284.06,-253.07 1294.11,-249.7 1284.16,-246.07 1284.06,-253.07"/>
</g>
<!-- Node11 -->
<g id="node11" class="node">
<title>Node11</title>
<g id="a_node11"><a xlink:href="ota__update_8cpp.html" target="_top" xlink:title=" ">
<polygon fill="white" stroke="#666666" points="1741.66,-35.5 1621.66,-35.5 1621.66,-5.5 1741.66,-5.5 1741.66,-35.5"/>
<text text-anchor="start" x="1629.66" y="-23.5" font-family="Helvetica,sans-Serif" font-size="10.00">firmware/wombat/src</text>
<text text-anchor="middle" x="1681.66" y="-12.5" font-family="Helvetica,sans-Serif" font-size="10.00">/ota_update.cpp</text>
</a>
</g>
</g>
<!-- Node2&#45;&gt;Node11 -->
<g id="edge38" class="edge">
<title>Node2&#45;&gt;Node11</title>
<path fill="none" stroke="#63b8ff" d="M1425.84,-234.27C1431.84,-233.02 1437.85,-231.9 1443.66,-231 1504.62,-221.57 1951.35,-235.75 1997.66,-195 2037.35,-160.08 2046.81,-117.35 2012.66,-77 1978.64,-36.8 1827.66,-25.7 1741.83,-22.65"/>
<polygon fill="#63b8ff" stroke="#63b8ff" points="1424.83,-230.91 1415.82,-236.48 1426.33,-237.75 1424.83,-230.91"/>
</g>
<!-- Node12 -->
<g id="node12" class="node">
<title>Node12</title>
<g id="a_node12"><a xlink:href="_c_a_t___m1_8cpp.html" target="_top" xlink:title=" ">
<polygon fill="white" stroke="#666666" points="137.66,-112.5 17.66,-112.5 17.66,-82.5 137.66,-82.5 137.66,-112.5"/>
<text text-anchor="start" x="25.66" y="-100.5" font-family="Helvetica,sans-Serif" font-size="10.00">firmware/wombat/src</text>
<text text-anchor="middle" x="77.66" y="-89.5" font-family="Helvetica,sans-Serif" font-size="10.00">/CAT_M1.cpp</text>
</a>
</g>
</g>
<!-- Node2&#45;&gt;Node12 -->
<g id="edge25" class="edge">
<title>Node2&#45;&gt;Node12</title>
<path fill="none" stroke="#63b8ff" d="M1283.83,-248.49C1081.52,-243.03 557.28,-226.25 385.66,-195 283.95,-176.48 168.87,-134.53 112.52,-112.54"/>
<polygon fill="#63b8ff" stroke="#63b8ff" points="1284,-251.99 1294.09,-248.76 1284.19,-244.99 1284,-251.99"/>
</g>
<!-- Node13 -->
<g id="node13" class="node">
<title>Node13</title>
<g id="a_node13"><a xlink:href="_device_config_8cpp.html" target="_top" xlink:title=" ">
<polygon fill="white" stroke="#666666" points="275.66,-112.5 155.66,-112.5 155.66,-82.5 275.66,-82.5 275.66,-112.5"/>
<text text-anchor="start" x="163.66" y="-100.5" font-family="Helvetica,sans-Serif" font-size="10.00">firmware/wombat/src</text>
<text text-anchor="middle" x="215.66" y="-89.5" font-family="Helvetica,sans-Serif" font-size="10.00">/DeviceConfig.cpp</text>
</a>
</g>
</g>
<!-- Node2&#45;&gt;Node13 -->
<g id="edge26" class="edge">
<title>Node2&#45;&gt;Node13</title>
<path fill="none" stroke="#63b8ff" d="M1283.9,-250.36C1138.14,-248.91 821.87,-240.26 559.66,-195 447.35,-175.61 319.04,-134.34 255.56,-112.59"/>
<polygon fill="#63b8ff" stroke="#63b8ff" points="1284.06,-253.86 1294.1,-250.45 1284.13,-246.86 1284.06,-253.86"/>
</g>
<!-- Node14 -->
<g id="node14" class="node">
<title>Node14</title>
<g id="a_node14"><a xlink:href="_sensor_task_8cpp.html" target="_top" xlink:title=" ">
<polygon fill="white" stroke="#666666" points="413.66,-112.5 293.66,-112.5 293.66,-82.5 413.66,-82.5 413.66,-112.5"/>
<text text-anchor="start" x="301.66" y="-100.5" font-family="Helvetica,sans-Serif" font-size="10.00">firmware/wombat/src</text>
<text text-anchor="middle" x="353.66" y="-89.5" font-family="Helvetica,sans-Serif" font-size="10.00">/SensorTask.cpp</text>
</a>
</g>
</g>
<!-- Node2&#45;&gt;Node14 -->
<g id="edge27" class="edge">
<title>Node2&#45;&gt;Node14</title>
<path fill="none" stroke="#63b8ff" d="M1283.64,-246.4C1167.64,-239.77 947.81,-224.37 762.66,-195 609.64,-170.73 572.82,-156.19 422.66,-118 416.03,-116.31 409.06,-114.45 402.2,-112.57"/>
<polygon fill="#63b8ff" stroke="#63b8ff" points="1283.67,-249.91 1293.85,-246.98 1284.07,-242.92 1283.67,-249.91"/>
</g>
<!-- Node15 -->
<g id="node15" class="node">
<title>Node15</title>
<g id="a_node15"><a xlink:href="_utils_8cpp.html" target="_top" xlink:title="Global utility functions.">
<polygon fill="white" stroke="#666666" points="551.66,-112.5 431.66,-112.5 431.66,-82.5 551.66,-82.5 551.66,-112.5"/>
<text text-anchor="start" x="439.66" y="-100.5" font-family="Helvetica,sans-Serif" font-size="10.00">firmware/wombat/src</text>
<text text-anchor="middle" x="491.66" y="-89.5" font-family="Helvetica,sans-Serif" font-size="10.00">/Utils.cpp</text>
</a>
</g>
</g>
<!-- Node2&#45;&gt;Node15 -->
<g id="edge28" class="edge">
<title>Node2&#45;&gt;Node15</title>
<path fill="none" stroke="#63b8ff" d="M1283.62,-245.96C1188.24,-239.5 1025.5,-224.93 888.66,-195 831.13,-182.42 819.79,-168.31 762.66,-154 674.2,-131.84 649.54,-138.43 560.66,-118 553.63,-116.38 546.24,-114.5 539.01,-112.55"/>
<polygon fill="#63b8ff" stroke="#63b8ff" points="1283.56,-249.47 1293.77,-246.64 1284.03,-242.48 1283.56,-249.47"/>
</g>
<!-- Node16 -->
<g id="node16" class="node">
<title>Node16</title>
<g id="a_node16"><a xlink:href="acquisition__intervals_8cpp.html" target="_top" xlink:title="Handles the time between measurements and uplinks by the device over LTE.">
<polygon fill="white" stroke="#666666" points="727.16,-118 570.16,-118 570.16,-77 727.16,-77 727.16,-118"/>
<text text-anchor="start" x="578.16" y="-106" font-family="Helvetica,sans-Serif" font-size="10.00">firmware/wombat/src</text>
<text text-anchor="start" x="578.16" y="-95" font-family="Helvetica,sans-Serif" font-size="10.00">/cli/device_config/acquisition</text>
<text text-anchor="middle" x="648.66" y="-84" font-family="Helvetica,sans-Serif" font-size="10.00">_intervals.cpp</text>
</a>
</g>
</g>
<!-- Node2&#45;&gt;Node16 -->
<g id="edge29" class="edge">
<title>Node2&#45;&gt;Node16</title>
<path fill="none" stroke="#63b8ff" d="M1283.79,-243.19C1208.76,-235.26 1094.44,-220.22 997.66,-195 947.58,-181.95 938.22,-168.93 888.66,-154 820.12,-133.35 801.4,-134.19 731.66,-118 730.22,-117.67 728.76,-117.33 727.3,-116.99"/>
<polygon fill="#63b8ff" stroke="#63b8ff" points="1283.8,-246.71 1294.11,-244.27 1284.52,-239.75 1283.8,-246.71"/>
</g>
<!-- Node17 -->
<g id="node17" class="node">
<title>Node17</title>
<g id="a_node17"><a xlink:href="mqtt__cli_8cpp.html" target="_top" xlink:title="MQTT setup and configuration through the CLI.">
<polygon fill="white" stroke="#666666" points="1286.16,-118 1159.16,-118 1159.16,-77 1286.16,-77 1286.16,-118"/>
<text text-anchor="start" x="1167.16" y="-106" font-family="Helvetica,sans-Serif" font-size="10.00">firmware/wombat/src</text>
<text text-anchor="start" x="1167.16" y="-95" font-family="Helvetica,sans-Serif" font-size="10.00">/cli/device_config/mqtt</text>
<text text-anchor="middle" x="1222.66" y="-84" font-family="Helvetica,sans-Serif" font-size="10.00">_cli.cpp</text>
</a>
</g>
</g>
<!-- Node2&#45;&gt;Node17 -->
<g id="edge31" class="edge">
<title>Node2&#45;&gt;Node17</title>
<path fill="none" stroke="#63b8ff" d="M1344.72,-229.15C1317.15,-199.64 1267.77,-146.78 1241.04,-118.18"/>
<polygon fill="#63b8ff" stroke="#63b8ff" points="1342.17,-231.55 1351.56,-236.47 1347.29,-226.78 1342.17,-231.55"/>
</g>
<!-- Node18 -->
<g id="node18" class="node">
<title>Node18</title>
<g id="a_node18"><a xlink:href="cat-m1_8cpp.html" target="_top" xlink:title="CAT&#45;M1 CLI command request and response handler.">
<polygon fill="white" stroke="#666666" points="1424.66,-118 1304.66,-118 1304.66,-77 1424.66,-77 1424.66,-118"/>
<text text-anchor="start" x="1312.66" y="-106" font-family="Helvetica,sans-Serif" font-size="10.00">firmware/wombat/src</text>
<text text-anchor="start" x="1312.66" y="-95" font-family="Helvetica,sans-Serif" font-size="10.00">/cli/peripherals/cat</text>
<text text-anchor="middle" x="1364.66" y="-84" font-family="Helvetica,sans-Serif" font-size="10.00">&#45;m1.cpp</text>
</a>
</g>
</g>
<!-- Node2&#45;&gt;Node18 -->
<g id="edge32" class="edge">
<title>Node2&#45;&gt;Node18</title>
<path fill="none" stroke="#63b8ff" d="M1364.66,-226.46C1364.66,-196.51 1364.66,-145.93 1364.66,-118.18"/>
<polygon fill="#63b8ff" stroke="#63b8ff" points="1361.16,-226.47 1364.66,-236.47 1368.16,-226.47 1361.16,-226.47"/>
</g>
<!-- Node19 -->
<g id="node19" class="node">
<title>Node19</title>
<g id="a_node19"><a xlink:href="cli__spiffs_8cpp.html" target="_top" xlink:title="SPIFFS related commands.">
<polygon fill="white" stroke="#666666" points="1562.66,-118 1442.66,-118 1442.66,-77 1562.66,-77 1562.66,-118"/>
<text text-anchor="start" x="1450.66" y="-106" font-family="Helvetica,sans-Serif" font-size="10.00">firmware/wombat/src</text>
<text text-anchor="start" x="1450.66" y="-95" font-family="Helvetica,sans-Serif" font-size="10.00">/cli/peripherals/cli</text>
<text text-anchor="middle" x="1502.66" y="-84" font-family="Helvetica,sans-Serif" font-size="10.00">_spiffs.cpp</text>
</a>
</g>
</g>
<!-- Node2&#45;&gt;Node19 -->
<g id="edge33" class="edge">
<title>Node2&#45;&gt;Node19</title>
<path fill="none" stroke="#63b8ff" d="M1384.39,-228.78C1411.25,-199.19 1458.94,-146.66 1484.8,-118.18"/>
<polygon fill="#63b8ff" stroke="#63b8ff" points="1381.53,-226.72 1377.4,-236.47 1386.71,-231.42 1381.53,-226.72"/>
</g>
<!-- Node20 -->
<g id="node20" class="node">
<title>Node20</title>
<g id="a_node20"><a xlink:href="ftp__stack_8cpp.html" target="_top" xlink:title=" ">
<polygon fill="white" stroke="#666666" points="1700.66,-112.5 1580.66,-112.5 1580.66,-82.5 1700.66,-82.5 1700.66,-112.5"/>
<text text-anchor="start" x="1588.66" y="-100.5" font-family="Helvetica,sans-Serif" font-size="10.00">firmware/wombat/src</text>
<text text-anchor="middle" x="1640.66" y="-89.5" font-family="Helvetica,sans-Serif" font-size="10.00">/ftp_stack.cpp</text>
</a>
</g>
</g>
<!-- Node2&#45;&gt;Node20 -->
<g id="edge35" class="edge">
<title>Node2&#45;&gt;Node20</title>
<path fill="none" stroke="#63b8ff" d="M1398.97,-231.61C1455,-200.75 1564.9,-140.22 1614.85,-112.71"/>
<polygon fill="#63b8ff" stroke="#63b8ff" points="1397.2,-228.58 1390.13,-236.47 1400.58,-234.71 1397.2,-228.58"/>
</g>
<!-- Node21 -->
<g id="node21" class="node">
<title>Node21</title>
<g id="a_node21"><a xlink:href="mqtt__stack_8cpp.html" target="_top" xlink:title=" ">
<polygon fill="white" stroke="#666666" points="1838.66,-112.5 1718.66,-112.5 1718.66,-82.5 1838.66,-82.5 1838.66,-112.5"/>
<text text-anchor="start" x="1726.66" y="-100.5" font-family="Helvetica,sans-Serif" font-size="10.00">firmware/wombat/src</text>
<text text-anchor="middle" x="1778.66" y="-89.5" font-family="Helvetica,sans-Serif" font-size="10.00">/mqtt_stack.cpp</text>
</a>
</g>
</g>
<!-- Node2&#45;&gt;Node21 -->
<g id="edge37" class="edge">
<title>Node2&#45;&gt;Node21</title>
<path fill="none" stroke="#63b8ff" d="M1413.16,-232.83C1443.02,-221.94 1482.07,-207.69 1516.66,-195 1596.3,-165.79 1689.49,-131.42 1740.49,-112.6"/>
<polygon fill="#63b8ff" stroke="#63b8ff" points="1411.6,-229.67 1403.41,-236.39 1414,-236.25 1411.6,-229.67"/>
</g>
<!-- Node22 -->
<g id="node22" class="node">
<title>Node22</title>
<g id="a_node22"><a xlink:href="uplinks_8cpp.html" target="_top" xlink:title=" ">
<polygon fill="white" stroke="#666666" points="1976.66,-112.5 1856.66,-112.5 1856.66,-82.5 1976.66,-82.5 1976.66,-112.5"/>
<text text-anchor="start" x="1864.66" y="-100.5" font-family="Helvetica,sans-Serif" font-size="10.00">firmware/wombat/src</text>
<text text-anchor="middle" x="1916.66" y="-89.5" font-family="Helvetica,sans-Serif" font-size="10.00">/uplinks.cpp</text>
</a>
</g>
</g>
<!-- Node2&#45;&gt;Node22 -->
<g id="edge40" class="edge">
<title>Node2&#45;&gt;Node22</title>
<path fill="none" stroke="#63b8ff" d="M1431,-234.04C1484.71,-220.67 1555.99,-202.78 1584.66,-195 1687.05,-167.21 1806.32,-131.8 1870.35,-112.53"/>
<polygon fill="#63b8ff" stroke="#63b8ff" points="1430.04,-230.67 1421.19,-236.48 1431.74,-237.47 1430.04,-230.67"/>
</g>
<!-- Node23 -->
<g id="node23" class="node">
<title>Node23</title>
<g id="a_node23"><a xlink:href="sd__card_8cpp.html" target="_top" xlink:title="SD card filesystem related commands.">
<polygon fill="white" stroke="#666666" points="2190.66,-195 2070.66,-195 2070.66,-154 2190.66,-154 2190.66,-195"/>
<text text-anchor="start" x="2078.66" y="-183" font-family="Helvetica,sans-Serif" font-size="10.00">firmware/wombat/src</text>
<text text-anchor="start" x="2078.66" y="-172" font-family="Helvetica,sans-Serif" font-size="10.00">/cli/peripherals/sd</text>
<text text-anchor="middle" x="2130.66" y="-161" font-family="Helvetica,sans-Serif" font-size="10.00">_card.cpp</text>
</a>
</g>
</g>
<!-- Node2&#45;&gt;Node23 -->
<g id="edge34" class="edge">
<title>Node2&#45;&gt;Node23</title>
<path fill="none" stroke="#63b8ff" d="M1425.84,-234.23C1431.83,-232.99 1437.85,-231.88 1443.66,-231 1713.5,-190.13 1787.15,-237.98 2056.66,-195 2061.12,-194.29 2065.7,-193.42 2070.3,-192.45"/>
<polygon fill="#63b8ff" stroke="#63b8ff" points="1424.83,-230.87 1415.81,-236.43 1426.33,-237.71 1424.83,-230.87"/>
</g>
<!-- Node24 -->
<g id="node24" class="node">
<title>Node24</title>
<g id="a_node24"><a xlink:href="interface_8cpp.html" target="_top" xlink:title=" ">
<polygon fill="white" stroke="#666666" points="2330.66,-189.5 2208.66,-189.5 2208.66,-159.5 2330.66,-159.5 2330.66,-189.5"/>
<text text-anchor="start" x="2216.66" y="-177.5" font-family="Helvetica,sans-Serif" font-size="10.00">firmware/wombat/src</text>
<text text-anchor="middle" x="2269.66" y="-166.5" font-family="Helvetica,sans-Serif" font-size="10.00">/sd&#45;card/interface.cpp</text>
</a>
</g>
</g>
<!-- Node2&#45;&gt;Node24 -->
<g id="edge39" class="edge">
<title>Node2&#45;&gt;Node24</title>
<path fill="none" stroke="#63b8ff" d="M1425.55,-234.22C1431.64,-232.97 1437.75,-231.86 1443.66,-231 1776.52,-182.47 1867.56,-248.47 2199.66,-195 2207.88,-193.68 2216.52,-191.74 2224.81,-189.59"/>
<polygon fill="#63b8ff" stroke="#63b8ff" points="1424.39,-230.89 1415.37,-236.44 1425.89,-237.73 1424.39,-230.89"/>
</g>
<!-- Node4 -->
<g id="node4" class="node">
<title>Node4</title>
<g id="a_node4"><a xlink:href="sdi12_8h.html" target="_top" xlink:title="SDI&#45;12 command line interface handler.">
<polygon fill="white" stroke="#666666" points="925.16,-112.5 784.16,-112.5 784.16,-82.5 925.16,-82.5 925.16,-112.5"/>
<text text-anchor="start" x="792.16" y="-100.5" font-family="Helvetica,sans-Serif" font-size="10.00">firmware/wombat/include</text>
<text text-anchor="middle" x="854.66" y="-89.5" font-family="Helvetica,sans-Serif" font-size="10.00">/cli/peripherals/sdi12.h</text>
</a>
</g>
</g>
<!-- Node3&#45;&gt;Node4 -->
<g id="edge3" class="edge">
<title>Node3&#45;&gt;Node4</title>
<path fill="none" stroke="#63b8ff" d="M1026.3,-156.22C986.93,-142.99 933.3,-124.95 896.52,-112.58"/>
<polygon fill="#63b8ff" stroke="#63b8ff" points="1025.39,-159.61 1035.98,-159.48 1027.62,-152.98 1025.39,-159.61"/>
</g>
<!-- Node7 -->
<g id="node7" class="node">
<title>Node7</title>
<g id="a_node7"><a xlink:href="ftp__stack_8h.html" target="_top" xlink:title=" ">
<polygon fill="white" stroke="#666666" points="1102.16,-112.5 961.16,-112.5 961.16,-82.5 1102.16,-82.5 1102.16,-112.5"/>
<text text-anchor="start" x="969.16" y="-100.5" font-family="Helvetica,sans-Serif" font-size="10.00">firmware/wombat/include</text>
<text text-anchor="middle" x="1031.66" y="-89.5" font-family="Helvetica,sans-Serif" font-size="10.00">/ftp_stack.h</text>
</a>
</g>
</g>
<!-- Node3&#45;&gt;Node7 -->
<g id="edge7" class="edge">
<title>Node3&#45;&gt;Node7</title>
<path fill="none" stroke="#63b8ff" d="M1063.56,-150.51C1055.96,-138.11 1046.82,-123.21 1040.28,-112.54"/>
<polygon fill="#63b8ff" stroke="#63b8ff" points="1060.8,-152.7 1069.01,-159.39 1066.77,-149.04 1060.8,-152.7"/>
</g>
<!-- Node3&#45;&gt;Node8 -->
<g id="edge17" class="edge">
<title>Node3&#45;&gt;Node8</title>
<path fill="none" stroke="#63b8ff" d="M1092.31,-151.01C1111.67,-121.29 1145.45,-69.41 1163.85,-41.18"/>
<polygon fill="#63b8ff" stroke="#63b8ff" points="1089.32,-149.18 1086.8,-159.47 1095.19,-153 1089.32,-149.18"/>
</g>
<!-- Node3&#45;&gt;Node10 -->
<g id="edge22" class="edge">
<title>Node3&#45;&gt;Node10</title>
<path fill="none" stroke="#63b8ff" d="M996.93,-158.79C907.38,-142.46 775.28,-118.34 774.66,-118 752.54,-106.04 756.43,-91.18 735.66,-77 708.81,-58.67 674.97,-44.83 647.76,-35.56"/>
<polygon fill="#63b8ff" stroke="#63b8ff" points="996.35,-162.24 1006.81,-160.59 997.6,-155.35 996.35,-162.24"/>
</g>
<!-- Node3&#45;&gt;Node12 -->
<g id="edge12" class="edge">
<title>Node3&#45;&gt;Node12</title>
<path fill="none" stroke="#63b8ff" d="M996.71,-170.92C801.51,-164.33 309.1,-145.46 146.66,-118 138.56,-116.63 130.05,-114.67 121.88,-112.52"/>
<polygon fill="#63b8ff" stroke="#63b8ff" points="996.78,-174.42 1006.9,-171.26 997.02,-167.43 996.78,-174.42"/>
</g>
<!-- Node3&#45;&gt;Node13 -->
<g id="edge13" class="edge">
<title>Node3&#45;&gt;Node13</title>
<path fill="none" stroke="#63b8ff" d="M996.98,-173.3C852.88,-171.75 542.24,-162.92 284.66,-118 276.69,-116.61 268.32,-114.67 260.26,-112.55"/>
<polygon fill="#63b8ff" stroke="#63b8ff" points="997.03,-176.81 1007.06,-173.4 997.1,-169.81 997.03,-176.81"/>
</g>
<!-- Node3&#45;&gt;Node14 -->
<g id="edge14" class="edge">
<title>Node3&#45;&gt;Node14</title>
<path fill="none" stroke="#63b8ff" d="M996.88,-168.59C846.88,-159.15 530.77,-137.67 422.66,-118 414.82,-116.57 406.59,-114.64 398.65,-112.55"/>
<polygon fill="#63b8ff" stroke="#63b8ff" points="996.75,-172.09 1006.95,-169.22 997.19,-165.1 996.75,-172.09"/>
</g>
<!-- Node3&#45;&gt;Node15 -->
<g id="edge15" class="edge">
<title>Node3&#45;&gt;Node15</title>
<path fill="none" stroke="#63b8ff" d="M996.75,-165.17C856.64,-150.71 581.72,-122.08 560.66,-118 553.08,-116.53 545.13,-114.63 537.43,-112.6"/>
<polygon fill="#63b8ff" stroke="#63b8ff" points="996.7,-168.69 1007.01,-166.23 997.42,-161.73 996.7,-168.69"/>
</g>
<!-- Node3&#45;&gt;Node16 -->
<g id="edge16" class="edge">
<title>Node3&#45;&gt;Node16</title>
<path fill="none" stroke="#63b8ff" d="M996.94,-158.57C988.08,-157 979.18,-155.45 970.66,-154 869.09,-136.76 843,-136.58 741.66,-118 736.96,-117.14 732.12,-116.22 727.25,-115.27"/>
<polygon fill="#63b8ff" stroke="#63b8ff" points="996.45,-162.04 1006.91,-160.36 997.68,-155.15 996.45,-162.04"/>
</g>
<!-- Node3&#45;&gt;Node17 -->
<g id="edge18" class="edge">
<title>Node3&#45;&gt;Node17</title>
<path fill="none" stroke="#63b8ff" d="M1113.82,-154.8C1135.45,-143.61 1162.92,-129.4 1184.84,-118.06"/>
<polygon fill="#63b8ff" stroke="#63b8ff" points="1112.21,-151.69 1104.94,-159.39 1115.43,-157.91 1112.21,-151.69"/>
</g>
<!-- Node3&#45;&gt;Node18 -->
<g id="edge19" class="edge">
<title>Node3&#45;&gt;Node18</title>
<path fill="none" stroke="#63b8ff" d="M1143.74,-156.99C1186.78,-146.14 1244.12,-131.5 1294.66,-118 1297.83,-117.15 1301.08,-116.28 1304.36,-115.39"/>
<polygon fill="#63b8ff" stroke="#63b8ff" points="1142.79,-153.62 1133.95,-159.45 1144.5,-160.41 1142.79,-153.62"/>
</g>
<!-- Node3&#45;&gt;Node19 -->
<g id="edge20" class="edge">
<title>Node3&#45;&gt;Node19</title>
<path fill="none" stroke="#63b8ff" d="M1158.36,-163.75C1230.85,-154.32 1339.98,-138.46 1433.66,-118 1436.58,-117.36 1439.56,-116.67 1442.56,-115.95"/>
<polygon fill="#63b8ff" stroke="#63b8ff" points="1157.85,-160.28 1148.38,-165.04 1158.74,-167.23 1157.85,-160.28"/>
</g>
<!-- Node3&#45;&gt;Node20 -->
<g id="edge21" class="edge">
<title>Node3&#45;&gt;Node20</title>
<path fill="none" stroke="#63b8ff" d="M1158.74,-168.48C1257.12,-161.44 1427.7,-146.23 1571.66,-118 1579.24,-116.51 1587.19,-114.61 1594.89,-112.56"/>
<polygon fill="#63b8ff" stroke="#63b8ff" points="1158.3,-165 1148.57,-169.19 1158.79,-171.98 1158.3,-165"/>
</g>
<!-- Node3&#45;&gt;Node21 -->
<g id="edge23" class="edge">
<title>Node3&#45;&gt;Node21</title>
<path fill="none" stroke="#63b8ff" d="M1158.66,-171.25C1279.53,-166.79 1513.87,-153.93 1709.66,-118 1717.5,-116.56 1725.73,-114.62 1733.67,-112.53"/>
<polygon fill="#63b8ff" stroke="#63b8ff" points="1158.25,-167.76 1148.38,-171.62 1158.5,-174.75 1158.25,-167.76"/>
</g>
<!-- Node3&#45;&gt;Node22 -->
<g id="edge24" class="edge">
<title>Node3&#45;&gt;Node22</title>
<path fill="none" stroke="#63b8ff" d="M1158.61,-173.06C1299.63,-171.09 1599.1,-161.61 1847.66,-118 1855.63,-116.6 1864,-114.66 1872.06,-112.53"/>
<polygon fill="#63b8ff" stroke="#63b8ff" points="1158.27,-169.56 1148.32,-173.19 1158.36,-176.56 1158.27,-169.56"/>
</g>
<!-- Node4&#45;&gt;Node4 -->
<g id="edge4" class="edge">
<title>Node4&#45;&gt;Node4</title>
<path fill="none" stroke="#63b8ff" d="M935.36,-107.37C940.24,-105.02 943.16,-101.73 943.16,-97.5 943.16,-90.89 936.03,-86.59 925.49,-84.57"/>
<polygon fill="#63b8ff" stroke="#63b8ff" points="934,-104.12 925.49,-110.43 936.08,-110.81 934,-104.12"/>
</g>
<!-- Node5 -->
<g id="node5" class="node">
<title>Node5</title>
<g id="a_node5"><a xlink:href="_c_l_i_8cpp.html" target="_top" xlink:title="FreeRTOS CLI handler.">
<polygon fill="white" stroke="#666666" points="797.66,-35.5 677.66,-35.5 677.66,-5.5 797.66,-5.5 797.66,-35.5"/>
<text text-anchor="start" x="685.66" y="-23.5" font-family="Helvetica,sans-Serif" font-size="10.00">firmware/wombat/src</text>
<text text-anchor="middle" x="737.66" y="-12.5" font-family="Helvetica,sans-Serif" font-size="10.00">/cli/CLI.cpp</text>
</a>
</g>
</g>
<!-- Node4&#45;&gt;Node5 -->
<g id="edge5" class="edge">
<title>Node4&#45;&gt;Node5</title>
<path fill="none" stroke="#63b8ff" d="M824.09,-76.9C803.85,-63.93 777.76,-47.21 759.57,-35.54"/>
<polygon fill="#63b8ff" stroke="#63b8ff" points="822.35,-79.94 832.66,-82.39 826.13,-74.05 822.35,-79.94"/>
</g>
<!-- Node6 -->
<g id="node6" class="node">
<title>Node6</title>
<g id="a_node6"><a xlink:href="sdi12_8cpp.html" target="_top" xlink:title="SDI&#45;12 command line interface handler.">
<polygon fill="white" stroke="#666666" points="953.66,-35.5 815.66,-35.5 815.66,-5.5 953.66,-5.5 953.66,-35.5"/>
<text text-anchor="start" x="823.66" y="-23.5" font-family="Helvetica,sans-Serif" font-size="10.00">firmware/wombat/src</text>
<text text-anchor="middle" x="884.66" y="-12.5" font-family="Helvetica,sans-Serif" font-size="10.00">/cli/peripherals/sdi12.cpp</text>
</a>
</g>
</g>
<!-- Node4&#45;&gt;Node6 -->
<g id="edge6" class="edge">
<title>Node4&#45;&gt;Node6</title>
<path fill="none" stroke="#63b8ff" d="M864.15,-72.78C869.05,-60.53 874.86,-46 879.04,-35.54"/>
<polygon fill="#63b8ff" stroke="#63b8ff" points="860.77,-71.81 860.31,-82.39 867.27,-74.41 860.77,-71.81"/>
</g>
<!-- Node7&#45;&gt;Node8 -->
<g id="edge8" class="edge">
<title>Node7&#45;&gt;Node8</title>
<path fill="none" stroke="#63b8ff" d="M1067.82,-77.8C1089.45,-66.61 1116.92,-52.4 1138.84,-41.06"/>
<polygon fill="#63b8ff" stroke="#63b8ff" points="1066.21,-74.69 1058.94,-82.39 1069.43,-80.91 1066.21,-74.69"/>
</g>
<!-- Node9 -->
<g id="node9" class="node">
<title>Node9</title>
<g id="a_node9"><a xlink:href="ftp__cli_8cpp.html" target="_top" xlink:title="FTP setup and configuration through the CLI.">
<polygon fill="white" stroke="#666666" points="1091.66,-41 971.66,-41 971.66,0 1091.66,0 1091.66,-41"/>
<text text-anchor="start" x="979.66" y="-29" font-family="Helvetica,sans-Serif" font-size="10.00">firmware/wombat/src</text>
<text text-anchor="start" x="979.66" y="-18" font-family="Helvetica,sans-Serif" font-size="10.00">/cli/device_config/ftp</text>
<text text-anchor="middle" x="1031.66" y="-7" font-family="Helvetica,sans-Serif" font-size="10.00">_cli.cpp</text>
</a>
</g>
</g>
<!-- Node7&#45;&gt;Node9 -->
<g id="edge9" class="edge">
<title>Node7&#45;&gt;Node9</title>
<path fill="none" stroke="#63b8ff" d="M1031.66,-72.23C1031.66,-62.2 1031.66,-50.71 1031.66,-41.2"/>
<polygon fill="#63b8ff" stroke="#63b8ff" points="1028.16,-72.39 1031.66,-82.39 1035.16,-72.39 1028.16,-72.39"/>
</g>
<!-- Node7&#45;&gt;Node10 -->
<g id="edge10" class="edge">
<title>Node7&#45;&gt;Node10</title>
<path fill="none" stroke="#63b8ff" d="M967.83,-80.26C962.38,-79.08 956.93,-77.97 951.66,-77 826.98,-53.95 792.9,-66.31 668.66,-41 661.22,-39.48 653.41,-37.58 645.82,-35.57"/>
<polygon fill="#63b8ff" stroke="#63b8ff" points="967.1,-83.68 977.62,-82.45 968.62,-76.85 967.1,-83.68"/>
</g>
<!-- Node7&#45;&gt;Node11 -->
<g id="edge11" class="edge">
<title>Node7&#45;&gt;Node11</title>
<path fill="none" stroke="#63b8ff" d="M1112.32,-82.51C1124.8,-80.54 1137.57,-78.63 1149.66,-77 1320.15,-54.04 1522.48,-35.25 1621.29,-26.61"/>
<polygon fill="#63b8ff" stroke="#63b8ff" points="1111.7,-79.07 1102.38,-84.11 1112.81,-85.98 1111.7,-79.07"/>
</g>
</g>
</svg>
