<?xml version="1.0" encoding="UTF-8" standalone="no"?>
<!DOCTYPE svg PUBLIC "-//W3C//DTD SVG 1.1//EN"
 "http://www.w3.org/Graphics/SVG/1.1/DTD/svg11.dtd">
<!-- Generated by graphviz version 2.43.0 (0)
 -->
<!-- Title: firmware/wombat/include/bluetooth/uart.h Pages: 1 -->
<svg width="2012pt" height="379pt"
 viewBox="0.00 0.00 2011.50 379.00" xmlns="http://www.w3.org/2000/svg" xmlns:xlink="http://www.w3.org/1999/xlink">
<g id="graph0" class="graph" transform="scale(1 1) rotate(0) translate(4 375)">
<title>firmware/wombat/include/bluetooth/uart.h</title>
<!-- Node1 -->
<g id="node1" class="node">
<title>Node1</title>
<g id="a_node1"><a xlink:title="BluetoothLE UART service setup and handling.">
<polygon fill="#999999" stroke="#666666" points="1549,-371 1408,-371 1408,-341 1549,-341 1549,-371"/>
<text text-anchor="start" x="1416" y="-359" font-family="Helvetica,sans-Serif" font-size="10.00">firmware/wombat/include</text>
<text text-anchor="middle" x="1478.5" y="-348" font-family="Helvetica,sans-Serif" font-size="10.00">/bluetooth/uart.h</text>
</a>
</g>
</g>
<!-- Node2 -->
<g id="node2" class="node">
<title>Node2</title>
<g id="a_node2"><a xlink:title=" ">
<polygon fill="#e0e0e0" stroke="#999999" points="1313,-19 1250,-19 1250,0 1313,0 1313,-19"/>
<text text-anchor="middle" x="1281.5" y="-7" font-family="Helvetica,sans-Serif" font-size="10.00">Arduino.h</text>
</a>
</g>
</g>
<!-- Node1&#45;&gt;Node2 -->
<g id="edge1" class="edge">
<title>Node1&#45;&gt;Node2</title>
<path fill="none" stroke="#63b8ff" d="M1407.58,-352.65C1133.61,-343.1 159.5,-304.71 159.5,-241.5 159.5,-241.5 159.5,-241.5 159.5,-118.5 159.5,-89.04 155.23,-73.07 178.5,-55 221.14,-21.89 1043.43,-12.59 1239.7,-10.84"/>
<polygon fill="#63b8ff" stroke="#63b8ff" points="1239.92,-14.34 1249.89,-10.75 1239.86,-7.34 1239.92,-14.34"/>
</g>
<!-- Node3 -->
<g id="node3" class="node">
<title>Node3</title>
<g id="a_node3"><a xlink:title=" ">
<polygon fill="#e0e0e0" stroke="#999999" points="1879,-189.5 1768,-189.5 1768,-170.5 1879,-170.5 1879,-189.5"/>
<text text-anchor="middle" x="1823.5" y="-177.5" font-family="Helvetica,sans-Serif" font-size="10.00">BLECharacteristic.h</text>
</a>
</g>
</g>
<!-- Node1&#45;&gt;Node3 -->
<g id="edge2" class="edge">
<title>Node1&#45;&gt;Node3</title>
<path fill="none" stroke="#63b8ff" d="M1549.17,-346.55C1652.03,-332.64 1835.09,-301.23 1874.5,-250 1888.9,-231.28 1865.91,-209.29 1846.31,-195.25"/>
<polygon fill="#63b8ff" stroke="#63b8ff" points="1848.2,-192.3 1837.96,-189.58 1844.27,-198.09 1848.2,-192.3"/>
</g>
<!-- Node4 -->
<g id="node4" class="node">
<title>Node4</title>
<g id="a_node4"><a xlink:title=" ">
<polygon fill="#e0e0e0" stroke="#999999" points="1383.5,-189.5 1309.5,-189.5 1309.5,-170.5 1383.5,-170.5 1383.5,-189.5"/>
<text text-anchor="middle" x="1346.5" y="-177.5" font-family="Helvetica,sans-Serif" font-size="10.00">BLEServer.h</text>
</a>
</g>
</g>
<!-- Node1&#45;&gt;Node4 -->
<g id="edge3" class="edge">
<title>Node1&#45;&gt;Node4</title>
<path fill="none" stroke="#63b8ff" d="M1457.5,-340.97C1432.3,-322.97 1390.66,-289.33 1368.5,-250 1359.54,-234.1 1353.67,-214.04 1350.26,-199.65"/>
<polygon fill="#63b8ff" stroke="#63b8ff" points="1353.6,-198.54 1348.05,-189.52 1346.76,-200.04 1353.6,-198.54"/>
</g>
<!-- Node5 -->
<g id="node5" class="node">
<title>Node5</title>
<g id="a_node5"><a xlink:title=" ">
<polygon fill="#e0e0e0" stroke="#999999" points="2003.5,-189.5 1935.5,-189.5 1935.5,-170.5 2003.5,-170.5 2003.5,-189.5"/>
<text text-anchor="middle" x="1969.5" y="-177.5" font-family="Helvetica,sans-Serif" font-size="10.00">BLE2902.h</text>
</a>
</g>
</g>
<!-- Node1&#45;&gt;Node5 -->
<g id="edge4" class="edge">
<title>Node1&#45;&gt;Node5</title>
<path fill="none" stroke="#63b8ff" d="M1549.21,-352.64C1616.92,-348.43 1720.99,-336.84 1805.5,-305 1868.73,-281.17 1928.13,-224.78 1954.78,-197.01"/>
<polygon fill="#63b8ff" stroke="#63b8ff" points="1957.38,-199.36 1961.69,-189.68 1952.29,-194.56 1957.38,-199.36"/>
</g>
<!-- Node6 -->
<g id="node6" class="node">
<title>Node6</title>
<g id="a_node6"><a xlink:href="tones_8h.html" target="_top" xlink:title="Audio control for the onboard piezo buzzer.">
<polygon fill="white" stroke="#666666" points="131,-305 0,-305 0,-286 131,-286 131,-305"/>
<text text-anchor="middle" x="65.5" y="-293" font-family="Helvetica,sans-Serif" font-size="10.00">audio&#45;feedback/tones.h</text>
</a>
</g>
</g>
<!-- Node1&#45;&gt;Node6 -->
<g id="edge5" class="edge">
<title>Node1&#45;&gt;Node6</title>
<path fill="none" stroke="#63b8ff" d="M1407.95,-354.05C1209.15,-351.01 627.41,-339.6 145.5,-305 144.21,-304.91 142.9,-304.81 141.59,-304.71"/>
<polygon fill="#63b8ff" stroke="#63b8ff" points="141.64,-301.2 131.39,-303.86 141.07,-308.18 141.64,-301.2"/>
</g>
<!-- Node7 -->
<g id="node7" class="node">
<title>Node7</title>
<g id="a_node7"><a xlink:href="server_8h.html" target="_top" xlink:title="Handle the setup and maintenance of the BLE server and connected clients.">
<polygon fill="white" stroke="#666666" points="1531,-305 1426,-305 1426,-286 1531,-286 1531,-305"/>
<text text-anchor="middle" x="1478.5" y="-293" font-family="Helvetica,sans-Serif" font-size="10.00">bluetooth/server.h</text>
</a>
</g>
</g>
<!-- Node1&#45;&gt;Node7 -->
<g id="edge7" class="edge">
<title>Node1&#45;&gt;Node7</title>
<path fill="none" stroke="#63b8ff" d="M1472.62,-340.84C1471.65,-333.21 1471.49,-323.7 1472.14,-315.45"/>
<polygon fill="#63b8ff" stroke="#63b8ff" points="1475.64,-315.65 1473.52,-305.27 1468.71,-314.71 1475.64,-315.65"/>
</g>
<!-- Node6&#45;&gt;Node2 -->
<g id="edge6" class="edge">
<title>Node6&#45;&gt;Node2</title>
<path fill="none" stroke="#63b8ff" d="M69.16,-285.85C76.75,-267.11 93.5,-221.19 93.5,-181 93.5,-181 93.5,-181 93.5,-118.5 93.5,-82.02 112.84,-71.26 145.5,-55 195.35,-30.18 1040.39,-14.53 1239.65,-11.18"/>
<polygon fill="#63b8ff" stroke="#63b8ff" points="1239.78,-14.68 1249.72,-11.01 1239.66,-7.68 1239.78,-14.68"/>
</g>
<!-- Node7&#45;&gt;Node1 -->
<g id="edge12" class="edge">
<title>Node7&#45;&gt;Node1</title>
<path fill="none" stroke="#63b8ff" d="M1483.48,-305.27C1484.92,-312.03 1485.48,-321.72 1485.16,-330.75"/>
<polygon fill="#63b8ff" stroke="#63b8ff" points="1481.66,-330.6 1484.38,-340.84 1488.64,-331.14 1481.66,-330.6"/>
</g>
<!-- Node7&#45;&gt;Node4 -->
<g id="edge9" class="edge">
<title>Node7&#45;&gt;Node4</title>
<path fill="none" stroke="#63b8ff" d="M1451.36,-285.96C1431.85,-278.77 1405.86,-266.93 1387.5,-250 1372.02,-235.73 1360.53,-214.26 1353.71,-199.07"/>
<polygon fill="#63b8ff" stroke="#63b8ff" points="1356.87,-197.56 1349.75,-189.72 1350.43,-200.29 1356.87,-197.56"/>
</g>
<!-- Node7&#45;&gt;Node5 -->
<g id="edge11" class="edge">
<title>Node7&#45;&gt;Node5</title>
<path fill="none" stroke="#63b8ff" d="M1531.31,-291.91C1624.28,-286.8 1813.14,-273.8 1874.5,-250 1905.53,-237.96 1935.62,-213.21 1953.35,-196.86"/>
<polygon fill="#63b8ff" stroke="#63b8ff" points="1956.16,-199.02 1961.01,-189.6 1951.35,-193.94 1956.16,-199.02"/>
</g>
<!-- Node8 -->
<g id="node8" class="node">
<title>Node8</title>
<g id="a_node8"><a xlink:title=" ">
<polygon fill="#e0e0e0" stroke="#999999" points="1656,-250 1579,-250 1579,-231 1656,-231 1656,-250"/>
<text text-anchor="middle" x="1617.5" y="-238" font-family="Helvetica,sans-Serif" font-size="10.00">BLEDevice.h</text>
</a>
</g>
</g>
<!-- Node7&#45;&gt;Node8 -->
<g id="edge8" class="edge">
<title>Node7&#45;&gt;Node8</title>
<path fill="none" stroke="#63b8ff" d="M1500.83,-285.98C1523.7,-277.27 1559.46,-263.63 1585.36,-253.75"/>
<polygon fill="#63b8ff" stroke="#63b8ff" points="1586.66,-257 1594.76,-250.17 1584.17,-250.46 1586.66,-257"/>
</g>
<!-- Node9 -->
<g id="node9" class="node">
<title>Node9</title>
<g id="a_node9"><a xlink:title=" ">
<polygon fill="#e0e0e0" stroke="#999999" points="1865.5,-250 1799.5,-250 1799.5,-231 1865.5,-231 1865.5,-250"/>
<text text-anchor="middle" x="1832.5" y="-238" font-family="Helvetica,sans-Serif" font-size="10.00">BLEUtils.h</text>
</a>
</g>
</g>
<!-- Node7&#45;&gt;Node9 -->
<g id="edge10" class="edge">
<title>Node7&#45;&gt;Node9</title>
<path fill="none" stroke="#63b8ff" d="M1531.18,-287.83C1591.09,-280.05 1692.05,-266.35 1789.2,-249.96"/>
<polygon fill="#63b8ff" stroke="#63b8ff" points="1789.93,-253.39 1799.2,-248.26 1788.75,-246.49 1789.93,-253.39"/>
</g>
<!-- Node10 -->
<g id="node10" class="node">
<title>Node10</title>
<g id="a_node10"><a xlink:href="device_8h.html" target="_top" xlink:title="Bluetooth device services and device information.">
<polygon fill="white" stroke="#666666" points="1781,-250 1674,-250 1674,-231 1781,-231 1781,-250"/>
<text text-anchor="middle" x="1727.5" y="-238" font-family="Helvetica,sans-Serif" font-size="10.00">bluetooth/device.h</text>
</a>
</g>
</g>
<!-- Node7&#45;&gt;Node10 -->
<g id="edge13" class="edge">
<title>Node7&#45;&gt;Node10</title>
<path fill="none" stroke="#63b8ff" d="M1518.51,-285.98C1561.67,-276.8 1630.48,-262.15 1677.26,-252.19"/>
<polygon fill="#63b8ff" stroke="#63b8ff" points="1678.13,-255.59 1687.18,-250.08 1676.67,-248.74 1678.13,-255.59"/>
</g>
<!-- Node11 -->
<g id="node11" class="node">
<title>Node11</title>
<g id="a_node11"><a xlink:href="power__monitoring_8h.html" target="_top" xlink:title="Setup BluetoothLE power monitoring information.">
<polygon fill="white" stroke="#666666" points="1560.5,-250 1396.5,-250 1396.5,-231 1560.5,-231 1560.5,-250"/>
<text text-anchor="middle" x="1478.5" y="-238" font-family="Helvetica,sans-Serif" font-size="10.00">bluetooth/power_monitoring.h</text>
</a>
</g>
</g>
<!-- Node7&#45;&gt;Node11 -->
<g id="edge18" class="edge">
<title>Node7&#45;&gt;Node11</title>
<path fill="none" stroke="#63b8ff" d="M1478.5,-285.75C1478.5,-278.8 1478.5,-268.85 1478.5,-260.13"/>
<polygon fill="#63b8ff" stroke="#63b8ff" points="1482,-260.09 1478.5,-250.09 1475,-260.09 1482,-260.09"/>
</g>
<!-- Node15 -->
<g id="node15" class="node">
<title>Node15</title>
<g id="a_node15"><a xlink:href="_c_l_i_8h.html" target="_top" xlink:title="FreeRTOS CLI handler.">
<polygon fill="white" stroke="#666666" points="902,-250 847,-250 847,-231 902,-231 902,-250"/>
<text text-anchor="middle" x="874.5" y="-238" font-family="Helvetica,sans-Serif" font-size="10.00">cli/CLI.h</text>
</a>
</g>
</g>
<!-- Node7&#45;&gt;Node15 -->
<g id="edge29" class="edge">
<title>Node7&#45;&gt;Node15</title>
<path fill="none" stroke="#63b8ff" d="M1425.95,-290.23C1306.3,-280.07 1016.26,-254.62 912.28,-245.13"/>
<polygon fill="#63b8ff" stroke="#63b8ff" points="912.52,-241.64 902.24,-244.21 911.88,-248.61 912.52,-241.64"/>
</g>
<!-- Node10&#45;&gt;Node2 -->
<g id="edge14" class="edge">
<title>Node10&#45;&gt;Node2</title>
<path fill="none" stroke="#63b8ff" d="M1781.18,-231.64C1822.44,-224.37 1874.5,-212.1 1887.5,-195 1895.57,-184.38 1895.19,-175.89 1887.5,-165 1821.14,-70.94 1448.97,-26.7 1323.1,-14.28"/>
<polygon fill="#63b8ff" stroke="#63b8ff" points="1323.38,-10.79 1313.08,-13.31 1322.7,-17.76 1323.38,-10.79"/>
</g>
<!-- Node10&#45;&gt;Node3 -->
<g id="edge15" class="edge">
<title>Node10&#45;&gt;Node3</title>
<path fill="none" stroke="#63b8ff" d="M1741.67,-230.87C1757.19,-221.41 1782.33,-206.09 1800.65,-194.92"/>
<polygon fill="#63b8ff" stroke="#63b8ff" points="1802.56,-197.86 1809.28,-189.67 1798.92,-191.88 1802.56,-197.86"/>
</g>
<!-- Node10&#45;&gt;Node4 -->
<g id="edge16" class="edge">
<title>Node10&#45;&gt;Node4</title>
<path fill="none" stroke="#63b8ff" d="M1673.81,-231.73C1614.29,-223.05 1515.47,-208.45 1430.5,-195 1418.64,-193.12 1405.85,-191.03 1393.92,-189.04"/>
<polygon fill="#63b8ff" stroke="#63b8ff" points="1394.13,-185.53 1383.69,-187.33 1392.98,-192.43 1394.13,-185.53"/>
</g>
<!-- Node10&#45;&gt;Node5 -->
<g id="edge17" class="edge">
<title>Node10&#45;&gt;Node5</title>
<path fill="none" stroke="#63b8ff" d="M1767.79,-230.98C1807.15,-222.48 1868.66,-208.75 1921.5,-195 1924.69,-194.17 1927.99,-193.28 1931.3,-192.36"/>
<polygon fill="#63b8ff" stroke="#63b8ff" points="1932.48,-195.66 1941.15,-189.57 1930.57,-188.93 1932.48,-195.66"/>
</g>
<!-- Node11&#45;&gt;Node2 -->
<g id="edge19" class="edge">
<title>Node11&#45;&gt;Node2</title>
<path fill="none" stroke="#63b8ff" d="M1468.17,-230.7C1458.17,-222 1442.76,-208.12 1430.5,-195 1376.04,-136.69 1318.65,-60.94 1293.98,-27.56"/>
<polygon fill="#63b8ff" stroke="#63b8ff" points="1296.66,-25.3 1287.91,-19.32 1291.02,-29.45 1296.66,-25.3"/>
</g>
<!-- Node11&#45;&gt;Node3 -->
<g id="edge20" class="edge">
<title>Node11&#45;&gt;Node3</title>
<path fill="none" stroke="#63b8ff" d="M1538.2,-230.98C1595,-222.64 1682.78,-209.16 1758.5,-195 1763.96,-193.98 1769.67,-192.85 1775.33,-191.68"/>
<polygon fill="#63b8ff" stroke="#63b8ff" points="1776.35,-195.04 1785.42,-189.57 1774.91,-188.19 1776.35,-195.04"/>
</g>
<!-- Node11&#45;&gt;Node4 -->
<g id="edge21" class="edge">
<title>Node11&#45;&gt;Node4</title>
<path fill="none" stroke="#63b8ff" d="M1459.31,-230.99C1437.11,-221.16 1400.38,-204.88 1374.88,-193.58"/>
<polygon fill="#63b8ff" stroke="#63b8ff" points="1376.28,-190.37 1365.72,-189.52 1373.44,-196.77 1376.28,-190.37"/>
</g>
<!-- Node11&#45;&gt;Node5 -->
<g id="edge22" class="edge">
<title>Node11&#45;&gt;Node5</title>
<path fill="none" stroke="#63b8ff" d="M1560.74,-231.15C1661.52,-220.81 1826.4,-203.53 1887.5,-195 1899.79,-193.28 1913.07,-191.14 1925.29,-189.05"/>
<polygon fill="#63b8ff" stroke="#63b8ff" points="1926.01,-192.48 1935.26,-187.32 1924.81,-185.59 1926.01,-192.48"/>
</g>
<!-- Node12 -->
<g id="node12" class="node">
<title>Node12</title>
<g id="a_node12"><a xlink:href="solar_8h.html" target="_top" xlink:title="Solar voltage and current monitoring using INA219 IC.">
<polygon fill="white" stroke="#666666" points="1749.5,-189.5 1609.5,-189.5 1609.5,-170.5 1749.5,-170.5 1749.5,-189.5"/>
<text text-anchor="middle" x="1679.5" y="-177.5" font-family="Helvetica,sans-Serif" font-size="10.00">power_monitoring/solar.h</text>
</a>
</g>
</g>
<!-- Node11&#45;&gt;Node12 -->
<g id="edge23" class="edge">
<title>Node11&#45;&gt;Node12</title>
<path fill="none" stroke="#63b8ff" d="M1507.73,-230.99C1542.71,-220.81 1601.43,-203.72 1640.32,-192.4"/>
<polygon fill="#63b8ff" stroke="#63b8ff" points="1641.61,-195.67 1650.24,-189.52 1639.66,-188.95 1641.61,-195.67"/>
</g>
<!-- Node14 -->
<g id="node14" class="node">
<title>Node14</title>
<g id="a_node14"><a xlink:href="battery_8h.html" target="_top" xlink:title="Battery voltage and current monitoring using INA219 IC.">
<polygon fill="white" stroke="#666666" points="1591,-189.5 1440,-189.5 1440,-170.5 1591,-170.5 1591,-189.5"/>
<text text-anchor="middle" x="1515.5" y="-177.5" font-family="Helvetica,sans-Serif" font-size="10.00">power_monitoring/battery.h</text>
</a>
</g>
</g>
<!-- Node11&#45;&gt;Node14 -->
<g id="edge26" class="edge">
<title>Node11&#45;&gt;Node14</title>
<path fill="none" stroke="#63b8ff" d="M1483.96,-230.87C1489.37,-222.31 1497.81,-208.97 1504.6,-198.24"/>
<polygon fill="#63b8ff" stroke="#63b8ff" points="1507.63,-199.99 1510.02,-189.67 1501.71,-196.25 1507.63,-199.99"/>
</g>
<!-- Node12&#45;&gt;Node2 -->
<g id="edge24" class="edge">
<title>Node12&#45;&gt;Node2</title>
<path fill="none" stroke="#63b8ff" d="M1677.13,-170.38C1672.67,-155.74 1661.59,-126.04 1641.5,-110 1545.88,-33.64 1395.6,-15.79 1323.21,-11.68"/>
<polygon fill="#63b8ff" stroke="#63b8ff" points="1323.28,-8.18 1313.11,-11.17 1322.92,-15.17 1323.28,-8.18"/>
</g>
<!-- Node13 -->
<g id="node13" class="node">
<title>Node13</title>
<g id="a_node13"><a xlink:title=" ">
<polygon fill="#e0e0e0" stroke="#999999" points="1633,-129 1528,-129 1528,-110 1633,-110 1633,-129"/>
<text text-anchor="middle" x="1580.5" y="-117" font-family="Helvetica,sans-Serif" font-size="10.00">Adafruit_INA219.h</text>
</a>
</g>
</g>
<!-- Node12&#45;&gt;Node13 -->
<g id="edge25" class="edge">
<title>Node12&#45;&gt;Node13</title>
<path fill="none" stroke="#63b8ff" d="M1664.89,-170.37C1648.81,-160.86 1622.72,-145.45 1603.8,-134.27"/>
<polygon fill="#63b8ff" stroke="#63b8ff" points="1605.56,-131.24 1595.17,-129.17 1602,-137.27 1605.56,-131.24"/>
</g>
<!-- Node14&#45;&gt;Node2 -->
<g id="edge27" class="edge">
<title>Node14&#45;&gt;Node2</title>
<path fill="none" stroke="#63b8ff" d="M1511.64,-170.31C1501.18,-147.75 1470.06,-86.9 1425.5,-55 1395.11,-33.24 1353.79,-21.91 1323.21,-16.14"/>
<polygon fill="#63b8ff" stroke="#63b8ff" points="1323.74,-12.68 1313.28,-14.39 1322.53,-19.58 1323.74,-12.68"/>
</g>
<!-- Node14&#45;&gt;Node13 -->
<g id="edge28" class="edge">
<title>Node14&#45;&gt;Node13</title>
<path fill="none" stroke="#63b8ff" d="M1525.09,-170.37C1535.08,-161.38 1550.93,-147.11 1563.13,-136.14"/>
<polygon fill="#63b8ff" stroke="#63b8ff" points="1565.78,-138.46 1570.87,-129.17 1561.1,-133.26 1565.78,-138.46"/>
</g>
<!-- Node15&#45;&gt;Node2 -->
<g id="edge30" class="edge">
<title>Node15&#45;&gt;Node2</title>
<path fill="none" stroke="#63b8ff" d="M902.11,-238.3C986.55,-234.37 1237.18,-220.62 1262.5,-195 1306.61,-150.38 1294.58,-66.8 1286.32,-29.42"/>
<polygon fill="#63b8ff" stroke="#63b8ff" points="1289.65,-28.32 1283.94,-19.39 1282.84,-29.93 1289.65,-28.32"/>
</g>
<!-- Node15&#45;&gt;Node7 -->
<g id="edge63" class="edge">
<title>Node15&#45;&gt;Node7</title>
<path fill="none" stroke="#63b8ff" d="M902.13,-243.67C993.39,-251.28 1285.93,-276.9 1415.65,-288.6"/>
<polygon fill="#63b8ff" stroke="#63b8ff" points="1415.55,-292.1 1425.82,-289.51 1416.18,-285.13 1415.55,-292.1"/>
</g>
<!-- Node16 -->
<g id="node16" class="node">
<title>Node16</title>
<g id="a_node16"><a xlink:title=" ">
<polygon fill="#e0e0e0" stroke="#999999" points="836,-129 723,-129 723,-110 836,-110 836,-129"/>
<text text-anchor="middle" x="779.5" y="-117" font-family="Helvetica,sans-Serif" font-size="10.00">freertos/FreeRTOS.h</text>
</a>
</g>
</g>
<!-- Node15&#45;&gt;Node16 -->
<g id="edge31" class="edge">
<title>Node15&#45;&gt;Node16</title>
<path fill="none" stroke="#63b8ff" d="M867.8,-230.71C857.1,-216.7 835.41,-188.5 816.5,-165 809.02,-155.7 800.52,-145.46 793.55,-137.14"/>
<polygon fill="#63b8ff" stroke="#63b8ff" points="796.07,-134.7 786.96,-129.3 790.71,-139.2 796.07,-134.7"/>
</g>
<!-- Node17 -->
<g id="node17" class="node">
<title>Node17</title>
<g id="a_node17"><a xlink:title=" ">
<polygon fill="#e0e0e0" stroke="#999999" points="705,-129 598,-129 598,-110 705,-110 705,-129"/>
<text text-anchor="middle" x="651.5" y="-117" font-family="Helvetica,sans-Serif" font-size="10.00">cli/FreeRTOS_CLI.h</text>
</a>
</g>
</g>
<!-- Node15&#45;&gt;Node17 -->
<g id="edge32" class="edge">
<title>Node15&#45;&gt;Node17</title>
<path fill="none" stroke="#63b8ff" d="M846.7,-238.38C791.21,-235.5 669.87,-225.74 644.5,-195 631.61,-179.38 637.01,-155.17 643.21,-138.61"/>
<polygon fill="#63b8ff" stroke="#63b8ff" points="646.6,-139.58 647.21,-129.01 640.13,-136.89 646.6,-139.58"/>
</g>
<!-- Node18 -->
<g id="node18" class="node">
<title>Node18</title>
<g id="a_node18"><a xlink:href="cat-m1_8h.html" target="_top" xlink:title="CAT&#45;M1 CLI command request and response handler.">
<polygon fill="white" stroke="#666666" points="479.5,-189.5 347.5,-189.5 347.5,-170.5 479.5,-170.5 479.5,-189.5"/>
<text text-anchor="middle" x="413.5" y="-177.5" font-family="Helvetica,sans-Serif" font-size="10.00">cli/peripherals/cat&#45;m1.h</text>
</a>
</g>
</g>
<!-- Node15&#45;&gt;Node18 -->
<g id="edge33" class="edge">
<title>Node15&#45;&gt;Node18</title>
<path fill="none" stroke="#63b8ff" d="M846.8,-236.98C783.26,-231.04 622.24,-215.17 488.5,-195 481.3,-193.91 473.73,-192.65 466.28,-191.33"/>
<polygon fill="#63b8ff" stroke="#63b8ff" points="466.71,-187.85 456.25,-189.51 465.46,-194.74 466.71,-187.85"/>
</g>
<!-- Node24 -->
<g id="node24" class="node">
<title>Node24</title>
<g id="a_node24"><a xlink:href="sdi12_8h.html" target="_top" xlink:title="SDI&#45;12 command line interface handler.">
<polygon fill="white" stroke="#666666" points="311.5,-189.5 187.5,-189.5 187.5,-170.5 311.5,-170.5 311.5,-189.5"/>
<text text-anchor="middle" x="249.5" y="-177.5" font-family="Helvetica,sans-Serif" font-size="10.00">cli/peripherals/sdi12.h</text>
</a>
</g>
</g>
<!-- Node15&#45;&gt;Node24 -->
<g id="edge43" class="edge">
<title>Node15&#45;&gt;Node24</title>
<path fill="none" stroke="#63b8ff" d="M846.81,-237.92C767.46,-233.23 532.5,-218.28 338.5,-195 329.16,-193.88 319.3,-192.51 309.68,-191.08"/>
<polygon fill="#63b8ff" stroke="#63b8ff" points="310.19,-187.62 299.77,-189.57 309.13,-194.54 310.19,-187.62"/>
</g>
<!-- Node29 -->
<g id="node29" class="node">
<title>Node29</title>
<g id="a_node29"><a xlink:href="cli__power_8h.html" target="_top" xlink:title=" ">
<polygon fill="white" stroke="#666666" points="597.5,-195 497.5,-195 497.5,-165 597.5,-165 597.5,-195"/>
<text text-anchor="start" x="505.5" y="-183" font-family="Helvetica,sans-Serif" font-size="10.00">cli/peripherals/cli</text>
<text text-anchor="middle" x="547.5" y="-172" font-family="Helvetica,sans-Serif" font-size="10.00">_power.h</text>
</a>
</g>
</g>
<!-- Node15&#45;&gt;Node29 -->
<g id="edge54" class="edge">
<title>Node15&#45;&gt;Node29</title>
<path fill="none" stroke="#63b8ff" d="M846.78,-235.26C798.74,-227.8 696.97,-211.57 611.5,-195 610.24,-194.76 608.97,-194.51 607.7,-194.25"/>
<polygon fill="#63b8ff" stroke="#63b8ff" points="608.26,-190.8 597.76,-192.23 606.86,-197.66 608.26,-190.8"/>
</g>
<!-- Node30 -->
<g id="node30" class="node">
<title>Node30</title>
<g id="a_node30"><a xlink:href="sd__card_8h.html" target="_top" xlink:title=" ">
<polygon fill="white" stroke="#666666" points="963.5,-195 863.5,-195 863.5,-165 963.5,-165 963.5,-195"/>
<text text-anchor="start" x="871.5" y="-183" font-family="Helvetica,sans-Serif" font-size="10.00">cli/peripherals/sd</text>
<text text-anchor="middle" x="913.5" y="-172" font-family="Helvetica,sans-Serif" font-size="10.00">_card.h</text>
</a>
</g>
</g>
<!-- Node15&#45;&gt;Node30 -->
<g id="edge60" class="edge">
<title>Node15&#45;&gt;Node30</title>
<path fill="none" stroke="#63b8ff" d="M880.25,-230.87C885.06,-223.67 892.12,-213.07 898.5,-203.49"/>
<polygon fill="#63b8ff" stroke="#63b8ff" points="901.46,-205.38 904.09,-195.11 895.63,-201.49 901.46,-205.38"/>
</g>
<!-- Node32 -->
<g id="node32" class="node">
<title>Node32</title>
<g id="a_node32"><a xlink:href="acquisition__intervals_8h.html" target="_top" xlink:title="Handles the time between measurements and uplinks by the device over LTE.">
<polygon fill="white" stroke="#666666" points="807.5,-195 653.5,-195 653.5,-165 807.5,-165 807.5,-195"/>
<text text-anchor="start" x="661.5" y="-183" font-family="Helvetica,sans-Serif" font-size="10.00">cli/device_config/acquisition</text>
<text text-anchor="middle" x="730.5" y="-172" font-family="Helvetica,sans-Serif" font-size="10.00">_intervals.h</text>
</a>
</g>
</g>
<!-- Node15&#45;&gt;Node32 -->
<g id="edge64" class="edge">
<title>Node15&#45;&gt;Node32</title>
<path fill="none" stroke="#63b8ff" d="M853.56,-230.99C832.93,-222.61 800.77,-209.55 774.5,-198.87"/>
<polygon fill="#63b8ff" stroke="#63b8ff" points="775.7,-195.59 765.12,-195.06 773.07,-202.07 775.7,-195.59"/>
</g>
<!-- Node35 -->
<g id="node35" class="node">
<title>Node35</title>
<g id="a_node35"><a xlink:href="mqtt__cli_8h.html" target="_top" xlink:title="MQTT setup and configuration through the CLI.">
<polygon fill="white" stroke="#666666" points="1105.5,-195 981.5,-195 981.5,-165 1105.5,-165 1105.5,-195"/>
<text text-anchor="start" x="989.5" y="-183" font-family="Helvetica,sans-Serif" font-size="10.00">cli/device_config/mqtt</text>
<text text-anchor="middle" x="1043.5" y="-172" font-family="Helvetica,sans-Serif" font-size="10.00">_cli.h</text>
</a>
</g>
</g>
<!-- Node15&#45;&gt;Node35 -->
<g id="edge72" class="edge">
<title>Node15&#45;&gt;Node35</title>
<path fill="none" stroke="#63b8ff" d="M899.07,-230.99C923.61,-222.5 962.03,-209.2 993.08,-198.45"/>
<polygon fill="#63b8ff" stroke="#63b8ff" points="994.56,-201.64 1002.87,-195.06 992.28,-195.03 994.56,-201.64"/>
</g>
<!-- Node36 -->
<g id="node36" class="node">
<title>Node36</title>
<g id="a_node36"><a xlink:href="config__cli_8h.html" target="_top" xlink:title=" ">
<polygon fill="white" stroke="#666666" points="1253.5,-195 1123.5,-195 1123.5,-165 1253.5,-165 1253.5,-195"/>
<text text-anchor="start" x="1131.5" y="-183" font-family="Helvetica,sans-Serif" font-size="10.00">cli/device_config/config</text>
<text text-anchor="middle" x="1188.5" y="-172" font-family="Helvetica,sans-Serif" font-size="10.00">_cli.h</text>
</a>
</g>
</g>
<!-- Node15&#45;&gt;Node36 -->
<g id="edge74" class="edge">
<title>Node15&#45;&gt;Node36</title>
<path fill="none" stroke="#63b8ff" d="M902.22,-234.39C945.17,-226.48 1030.63,-210.69 1113.09,-195.26"/>
<polygon fill="#63b8ff" stroke="#63b8ff" points="1113.95,-198.66 1123.13,-193.38 1112.66,-191.78 1113.95,-198.66"/>
</g>
<!-- Node18&#45;&gt;Node16 -->
<g id="edge34" class="edge">
<title>Node18&#45;&gt;Node16</title>
<path fill="none" stroke="#63b8ff" d="M457.87,-170.47C467.93,-168.6 478.58,-166.68 488.5,-165 565.31,-151.96 653.82,-138.67 712.87,-130.06"/>
<polygon fill="#63b8ff" stroke="#63b8ff" points="713.42,-133.51 722.81,-128.61 712.41,-126.58 713.42,-133.51"/>
</g>
<!-- Node18&#45;&gt;Node17 -->
<g id="edge37" class="edge">
<title>Node18&#45;&gt;Node17</title>
<path fill="none" stroke="#63b8ff" d="M448.11,-170.49C490.06,-160.18 560.84,-142.78 606.86,-131.47"/>
<polygon fill="#63b8ff" stroke="#63b8ff" points="607.98,-134.8 616.85,-129.02 606.3,-128 607.98,-134.8"/>
</g>
<!-- Node19 -->
<g id="node19" class="node">
<title>Node19</title>
<g id="a_node19"><a xlink:title=" ">
<polygon fill="#e0e0e0" stroke="#999999" points="473,-129 412,-129 412,-110 473,-110 473,-129"/>
<text text-anchor="middle" x="442.5" y="-117" font-family="Helvetica,sans-Serif" font-size="10.00">Stream.h</text>
</a>
</g>
</g>
<!-- Node18&#45;&gt;Node19 -->
<g id="edge35" class="edge">
<title>Node18&#45;&gt;Node19</title>
<path fill="none" stroke="#63b8ff" d="M417.78,-170.37C421.93,-161.99 428.37,-149.01 433.63,-138.39"/>
<polygon fill="#63b8ff" stroke="#63b8ff" points="436.9,-139.68 438.2,-129.17 430.63,-136.57 436.9,-139.68"/>
</g>
<!-- Node20 -->
<g id="node20" class="node">
<title>Node20</title>
<g id="a_node20"><a xlink:title=" ">
<polygon fill="#e0e0e0" stroke="#999999" points="580,-129 491,-129 491,-110 580,-110 580,-129"/>
<text text-anchor="middle" x="535.5" y="-117" font-family="Helvetica,sans-Serif" font-size="10.00">StreamString.h</text>
</a>
</g>
</g>
<!-- Node18&#45;&gt;Node20 -->
<g id="edge36" class="edge">
<title>Node18&#45;&gt;Node20</title>
<path fill="none" stroke="#63b8ff" d="M431.24,-170.49C451.57,-160.75 485.11,-144.66 508.64,-133.38"/>
<polygon fill="#63b8ff" stroke="#63b8ff" points="510.24,-136.5 517.74,-129.02 507.21,-130.18 510.24,-136.5"/>
</g>
<!-- Node21 -->
<g id="node21" class="node">
<title>Node21</title>
<g id="a_node21"><a xlink:href="_c_a_t___m1_8h.html" target="_top" xlink:title=" ">
<polygon fill="white" stroke="#666666" points="394,-129 329,-129 329,-110 394,-110 394,-129"/>
<text text-anchor="middle" x="361.5" y="-117" font-family="Helvetica,sans-Serif" font-size="10.00">CAT_M1.h</text>
</a>
</g>
</g>
<!-- Node18&#45;&gt;Node21 -->
<g id="edge38" class="edge">
<title>Node18&#45;&gt;Node21</title>
<path fill="none" stroke="#63b8ff" d="M405.83,-170.37C397.99,-161.55 385.64,-147.66 375.96,-136.77"/>
<polygon fill="#63b8ff" stroke="#63b8ff" points="378.46,-134.32 369.2,-129.17 373.23,-138.97 378.46,-134.32"/>
</g>
<!-- Node22 -->
<g id="node22" class="node">
<title>Node22</title>
<g id="a_node22"><a xlink:title=" ">
<polygon fill="#e0e0e0" stroke="#999999" points="540.5,-19 492.5,-19 492.5,0 540.5,0 540.5,-19"/>
<text text-anchor="middle" x="516.5" y="-7" font-family="Helvetica,sans-Serif" font-size="10.00">Wire.h</text>
</a>
</g>
</g>
<!-- Node21&#45;&gt;Node22 -->
<g id="edge39" class="edge">
<title>Node21&#45;&gt;Node22</title>
<path fill="none" stroke="#63b8ff" d="M391.79,-109.92C413.72,-102.71 443.29,-90.86 465.5,-74 482.34,-61.22 496.9,-41.71 506.11,-27.69"/>
<polygon fill="#63b8ff" stroke="#63b8ff" points="509.21,-29.34 511.58,-19.01 503.29,-25.6 509.21,-29.34"/>
</g>
<!-- Node23 -->
<g id="node23" class="node">
<title>Node23</title>
<g id="a_node23"><a xlink:href="_t_c_a9534_8h.html" target="_top" xlink:title=" ">
<polygon fill="white" stroke="#666666" points="581.5,-74 513.5,-74 513.5,-55 581.5,-55 581.5,-74"/>
<text text-anchor="middle" x="547.5" y="-62" font-family="Helvetica,sans-Serif" font-size="10.00">TCA9534.h</text>
</a>
</g>
</g>
<!-- Node21&#45;&gt;Node23 -->
<g id="edge40" class="edge">
<title>Node21&#45;&gt;Node23</title>
<path fill="none" stroke="#63b8ff" d="M391.38,-109.98C422.88,-101.01 472.67,-86.82 507.53,-76.89"/>
<polygon fill="#63b8ff" stroke="#63b8ff" points="508.72,-80.19 517.38,-74.08 506.81,-73.46 508.72,-80.19"/>
</g>
<!-- Node23&#45;&gt;Node2 -->
<g id="edge41" class="edge">
<title>Node23&#45;&gt;Node2</title>
<path fill="none" stroke="#63b8ff" d="M581.92,-61.01C702.79,-52.29 1107.64,-23.05 1239.56,-13.53"/>
<polygon fill="#63b8ff" stroke="#63b8ff" points="1239.94,-17.01 1249.66,-12.8 1239.44,-10.03 1239.94,-17.01"/>
</g>
<!-- Node23&#45;&gt;Node22 -->
<g id="edge42" class="edge">
<title>Node23&#45;&gt;Node22</title>
<path fill="none" stroke="#63b8ff" d="M542.38,-54.75C538.14,-47.49 531.97,-36.95 526.72,-27.98"/>
<polygon fill="#63b8ff" stroke="#63b8ff" points="529.59,-25.95 521.52,-19.09 523.55,-29.49 529.59,-25.95"/>
</g>
<!-- Node24&#45;&gt;Node16 -->
<g id="edge44" class="edge">
<title>Node24&#45;&gt;Node16</title>
<path fill="none" stroke="#63b8ff" d="M300.26,-170.47C312.74,-168.53 326.09,-166.57 338.5,-165 501.36,-144.39 545.41,-147.56 712.83,-129.03"/>
<polygon fill="#63b8ff" stroke="#63b8ff" points="713.44,-132.49 722.99,-127.9 712.66,-125.53 713.44,-132.49"/>
</g>
<!-- Node24&#45;&gt;Node17 -->
<g id="edge49" class="edge">
<title>Node24&#45;&gt;Node17</title>
<path fill="none" stroke="#63b8ff" d="M303.13,-170.43C314.79,-168.61 327.05,-166.71 338.5,-165 424.63,-152.1 524.23,-138.1 587.52,-129.31"/>
<polygon fill="#63b8ff" stroke="#63b8ff" points="588.32,-132.74 597.74,-127.9 587.36,-125.8 588.32,-132.74"/>
</g>
<!-- Node24&#45;&gt;Node19 -->
<g id="edge45" class="edge">
<title>Node24&#45;&gt;Node19</title>
<path fill="none" stroke="#63b8ff" d="M277.56,-170.49C311.01,-160.36 367.06,-143.37 404.4,-132.05"/>
<polygon fill="#63b8ff" stroke="#63b8ff" points="405.85,-135.27 414.4,-129.02 403.82,-128.57 405.85,-135.27"/>
</g>
<!-- Node24&#45;&gt;Node20 -->
<g id="edge46" class="edge">
<title>Node24&#45;&gt;Node20</title>
<path fill="none" stroke="#63b8ff" d="M291.09,-170.49C342.13,-160.05 428.7,-142.35 483.93,-131.05"/>
<polygon fill="#63b8ff" stroke="#63b8ff" points="484.77,-134.45 493.86,-129.02 483.36,-127.59 484.77,-134.45"/>
</g>
<!-- Node24&#45;&gt;Node24 -->
<g id="edge47" class="edge">
<title>Node24&#45;&gt;Node24</title>
<path fill="none" stroke="#63b8ff" d="M279.04,-189.53C303.72,-193.61 329.5,-190.43 329.5,-180 329.5,-171 310.28,-167.4 289.15,-169.2"/>
<polygon fill="#63b8ff" stroke="#63b8ff" points="288.53,-165.75 279.04,-170.47 289.4,-172.7 288.53,-165.75"/>
</g>
<!-- Node25 -->
<g id="node25" class="node">
<title>Node25</title>
<g id="a_node25"><a xlink:title=" ">
<polygon fill="#e0e0e0" stroke="#999999" points="281,-74 188,-74 188,-55 281,-55 281,-74"/>
<text text-anchor="middle" x="234.5" y="-62" font-family="Helvetica,sans-Serif" font-size="10.00">dpiclimate&#45;12.h</text>
</a>
</g>
</g>
<!-- Node24&#45;&gt;Node25 -->
<g id="edge48" class="edge">
<title>Node24&#45;&gt;Node25</title>
<path fill="none" stroke="#63b8ff" d="M248.37,-170.47C245.96,-152.23 240.26,-109.07 236.96,-84.14"/>
<polygon fill="#63b8ff" stroke="#63b8ff" points="240.42,-83.59 235.64,-74.13 233.48,-84.5 240.42,-83.59"/>
</g>
<!-- Node26 -->
<g id="node26" class="node">
<title>Node26</title>
<g id="a_node26"><a xlink:href="_utils_8h.html" target="_top" xlink:title=" ">
<polygon fill="white" stroke="#666666" points="310.5,-129 262.5,-129 262.5,-110 310.5,-110 310.5,-129"/>
<text text-anchor="middle" x="286.5" y="-117" font-family="Helvetica,sans-Serif" font-size="10.00">Utils.h</text>
</a>
</g>
</g>
<!-- Node24&#45;&gt;Node26 -->
<g id="edge50" class="edge">
<title>Node24&#45;&gt;Node26</title>
<path fill="none" stroke="#63b8ff" d="M254.96,-170.37C260.37,-161.81 268.81,-148.47 275.6,-137.74"/>
<polygon fill="#63b8ff" stroke="#63b8ff" points="278.63,-139.49 281.02,-129.17 272.71,-135.75 278.63,-139.49"/>
</g>
<!-- Node26&#45;&gt;Node25 -->
<g id="edge53" class="edge">
<title>Node26&#45;&gt;Node25</title>
<path fill="none" stroke="#63b8ff" d="M277.91,-109.75C270.34,-102.03 259.12,-90.6 249.99,-81.28"/>
<polygon fill="#63b8ff" stroke="#63b8ff" points="252.43,-78.78 242.93,-74.09 247.43,-83.68 252.43,-78.78"/>
</g>
<!-- Node27 -->
<g id="node27" class="node">
<title>Node27</title>
<g id="a_node27"><a xlink:title=" ">
<polygon fill="#e0e0e0" stroke="#999999" points="355.5,-74 299.5,-74 299.5,-55 355.5,-55 355.5,-74"/>
<text text-anchor="middle" x="327.5" y="-62" font-family="Helvetica,sans-Serif" font-size="10.00">stddef.h</text>
</a>
</g>
</g>
<!-- Node26&#45;&gt;Node27 -->
<g id="edge51" class="edge">
<title>Node26&#45;&gt;Node27</title>
<path fill="none" stroke="#63b8ff" d="M293.27,-109.75C299.06,-102.26 307.56,-91.28 314.64,-82.13"/>
<polygon fill="#63b8ff" stroke="#63b8ff" points="317.51,-84.14 320.86,-74.09 311.97,-79.86 317.51,-84.14"/>
</g>
<!-- Node28 -->
<g id="node28" class="node">
<title>Node28</title>
<g id="a_node28"><a xlink:title=" ">
<polygon fill="#e0e0e0" stroke="#999999" points="457,-74 374,-74 374,-55 457,-55 457,-74"/>
<text text-anchor="middle" x="415.5" y="-62" font-family="Helvetica,sans-Serif" font-size="10.00">ArduinoJson.h</text>
</a>
</g>
</g>
<!-- Node26&#45;&gt;Node28 -->
<g id="edge52" class="edge">
<title>Node26&#45;&gt;Node28</title>
<path fill="none" stroke="#63b8ff" d="M307.23,-109.98C328.26,-101.34 361.05,-87.87 385.04,-78.02"/>
<polygon fill="#63b8ff" stroke="#63b8ff" points="386.48,-81.21 394.4,-74.17 383.82,-74.73 386.48,-81.21"/>
</g>
<!-- Node29&#45;&gt;Node16 -->
<g id="edge55" class="edge">
<title>Node29&#45;&gt;Node16</title>
<path fill="none" stroke="#63b8ff" d="M597.55,-166.38C638.73,-156 696.5,-141.43 735.82,-131.51"/>
<polygon fill="#63b8ff" stroke="#63b8ff" points="736.81,-134.87 745.65,-129.04 735.1,-128.09 736.81,-134.87"/>
</g>
<!-- Node29&#45;&gt;Node17 -->
<g id="edge58" class="edge">
<title>Node29&#45;&gt;Node17</title>
<path fill="none" stroke="#63b8ff" d="M572.41,-164.99C588.99,-155.66 610.66,-143.47 627.13,-134.21"/>
<polygon fill="#63b8ff" stroke="#63b8ff" points="629.14,-137.09 636.14,-129.14 625.71,-130.99 629.14,-137.09"/>
</g>
<!-- Node29&#45;&gt;Node19 -->
<g id="edge56" class="edge">
<title>Node29&#45;&gt;Node19</title>
<path fill="none" stroke="#63b8ff" d="M522.35,-164.99C505.61,-155.66 483.73,-143.47 467.11,-134.21"/>
<polygon fill="#63b8ff" stroke="#63b8ff" points="468.45,-130.95 458.01,-129.14 465.04,-137.06 468.45,-130.95"/>
</g>
<!-- Node29&#45;&gt;Node20 -->
<g id="edge57" class="edge">
<title>Node29&#45;&gt;Node20</title>
<path fill="none" stroke="#63b8ff" d="M544.6,-164.84C543.01,-157.13 541.04,-147.49 539.33,-139.17"/>
<polygon fill="#63b8ff" stroke="#63b8ff" points="542.74,-138.36 537.3,-129.27 535.88,-139.77 542.74,-138.36"/>
</g>
<!-- Node29&#45;&gt;Node21 -->
<g id="edge59" class="edge">
<title>Node29&#45;&gt;Node21</title>
<path fill="none" stroke="#63b8ff" d="M502.95,-164.99C470.99,-154.94 428.44,-141.55 398.38,-132.1"/>
<polygon fill="#63b8ff" stroke="#63b8ff" points="399.29,-128.72 388.7,-129.05 397.19,-135.39 399.29,-128.72"/>
</g>
<!-- Node30&#45;&gt;Node16 -->
<g id="edge61" class="edge">
<title>Node30&#45;&gt;Node16</title>
<path fill="none" stroke="#63b8ff" d="M881.4,-164.99C859.25,-155.31 830.02,-142.56 808.55,-133.18"/>
<polygon fill="#63b8ff" stroke="#63b8ff" points="809.85,-129.93 799.29,-129.14 807.05,-136.35 809.85,-129.93"/>
</g>
<!-- Node31 -->
<g id="node31" class="node">
<title>Node31</title>
<g id="a_node31"><a xlink:title=" ">
<polygon fill="#e0e0e0" stroke="#999999" points="935.5,-129 891.5,-129 891.5,-110 935.5,-110 935.5,-129"/>
<text text-anchor="middle" x="913.5" y="-117" font-family="Helvetica,sans-Serif" font-size="10.00">string</text>
</a>
</g>
</g>
<!-- Node30&#45;&gt;Node31 -->
<g id="edge62" class="edge">
<title>Node30&#45;&gt;Node31</title>
<path fill="none" stroke="#63b8ff" d="M913.5,-164.84C913.5,-157.21 913.5,-147.7 913.5,-139.45"/>
<polygon fill="#63b8ff" stroke="#63b8ff" points="917,-139.27 913.5,-129.27 910,-139.27 917,-139.27"/>
</g>
<!-- Node32&#45;&gt;Node16 -->
<g id="edge65" class="edge">
<title>Node32&#45;&gt;Node16</title>
<path fill="none" stroke="#63b8ff" d="M742.36,-164.84C749.4,-156.43 758.36,-145.74 765.71,-136.96"/>
<polygon fill="#63b8ff" stroke="#63b8ff" points="768.42,-139.18 772.16,-129.27 763.05,-134.68 768.42,-139.18"/>
</g>
<!-- Node32&#45;&gt;Node17 -->
<g id="edge68" class="edge">
<title>Node32&#45;&gt;Node17</title>
<path fill="none" stroke="#63b8ff" d="M711.38,-164.84C699.32,-155.91 683.79,-144.41 671.56,-135.35"/>
<polygon fill="#63b8ff" stroke="#63b8ff" points="673.46,-132.4 663.34,-129.27 669.29,-138.03 673.46,-132.4"/>
</g>
<!-- Node32&#45;&gt;Node19 -->
<g id="edge66" class="edge">
<title>Node32&#45;&gt;Node19</title>
<path fill="none" stroke="#63b8ff" d="M659.06,-164.98C611.68,-155.6 547.87,-142.83 483.12,-129.32"/>
<polygon fill="#63b8ff" stroke="#63b8ff" points="483.65,-125.85 473.15,-127.23 482.22,-132.7 483.65,-125.85"/>
</g>
<!-- Node32&#45;&gt;Node20 -->
<g id="edge67" class="edge">
<title>Node32&#45;&gt;Node20</title>
<path fill="none" stroke="#63b8ff" d="M683.79,-164.99C650.14,-154.89 605.29,-141.44 573.75,-131.98"/>
<polygon fill="#63b8ff" stroke="#63b8ff" points="574.6,-128.57 564.01,-129.05 572.58,-135.28 574.6,-128.57"/>
</g>
<!-- Node33 -->
<g id="node33" class="node">
<title>Node33</title>
<g id="a_node33"><a xlink:href="_device_config_8h.html" target="_top" xlink:title="Node configuration options.">
<polygon fill="white" stroke="#666666" points="1120.5,-129 1030.5,-129 1030.5,-110 1120.5,-110 1120.5,-129"/>
<text text-anchor="middle" x="1075.5" y="-117" font-family="Helvetica,sans-Serif" font-size="10.00">DeviceConfig.h</text>
</a>
</g>
</g>
<!-- Node32&#45;&gt;Node33 -->
<g id="edge69" class="edge">
<title>Node32&#45;&gt;Node33</title>
<path fill="none" stroke="#63b8ff" d="M807.92,-165.87C872.4,-154.94 962.63,-139.64 1020.07,-129.9"/>
<polygon fill="#63b8ff" stroke="#63b8ff" points="1020.78,-133.33 1030.05,-128.21 1019.61,-126.43 1020.78,-133.33"/>
</g>
<!-- Node33&#45;&gt;Node2 -->
<g id="edge70" class="edge">
<title>Node33&#45;&gt;Node2</title>
<path fill="none" stroke="#63b8ff" d="M1092.01,-109.84C1127.96,-91 1213.51,-46.14 1256.27,-23.73"/>
<polygon fill="#63b8ff" stroke="#63b8ff" points="1257.97,-26.79 1265.2,-19.05 1254.72,-20.59 1257.97,-26.79"/>
</g>
<!-- Node34 -->
<g id="node34" class="node">
<title>Node34</title>
<g id="a_node34"><a xlink:title=" ">
<polygon fill="#e0e0e0" stroke="#999999" points="1119,-74 1032,-74 1032,-55 1119,-55 1119,-74"/>
<text text-anchor="middle" x="1075.5" y="-62" font-family="Helvetica,sans-Serif" font-size="10.00">ArduinoJSON.h</text>
</a>
</g>
</g>
<!-- Node33&#45;&gt;Node34 -->
<g id="edge71" class="edge">
<title>Node33&#45;&gt;Node34</title>
<path fill="none" stroke="#63b8ff" d="M1075.5,-109.75C1075.5,-102.8 1075.5,-92.85 1075.5,-84.13"/>
<polygon fill="#63b8ff" stroke="#63b8ff" points="1079,-84.09 1075.5,-74.09 1072,-84.09 1079,-84.09"/>
</g>
<!-- Node35&#45;&gt;Node33 -->
<g id="edge73" class="edge">
<title>Node35&#45;&gt;Node33</title>
<path fill="none" stroke="#63b8ff" d="M1051.25,-164.84C1055.65,-156.78 1061.21,-146.62 1065.9,-138.06"/>
<polygon fill="#63b8ff" stroke="#63b8ff" points="1068.98,-139.72 1070.7,-129.27 1062.84,-136.36 1068.98,-139.72"/>
</g>
<!-- Node36&#45;&gt;Node33 -->
<g id="edge75" class="edge">
<title>Node36&#45;&gt;Node33</title>
<path fill="none" stroke="#63b8ff" d="M1161.43,-164.99C1143.25,-155.58 1119.43,-143.24 1101.48,-133.95"/>
<polygon fill="#63b8ff" stroke="#63b8ff" points="1102.68,-130.63 1092.19,-129.14 1099.46,-136.84 1102.68,-130.63"/>
</g>
</g>
</svg>
