<?xml version="1.0" encoding="UTF-8" standalone="no"?>
<!DOCTYPE svg PUBLIC "-//W3C//DTD SVG 1.1//EN"
 "http://www.w3.org/Graphics/SVG/1.1/DTD/svg11.dtd">
<!-- Generated by graphviz version 2.43.0 (0)
 -->
<!-- Title: firmware/wombat/include/bluetooth/uart.h Pages: 1 -->
<svg width="974pt" height="247pt"
 viewBox="0.00 0.00 974.00 247.00" xmlns="http://www.w3.org/2000/svg" xmlns:xlink="http://www.w3.org/1999/xlink">
<g id="graph0" class="graph" transform="scale(1 1) rotate(0) translate(4 243)">
<title>firmware/wombat/include/bluetooth/uart.h</title>
<!-- Node1 -->
<g id="node1" class="node">
<title>Node1</title>
<g id="a_node1"><a xlink:title="BluetoothLE UART service setup and handling.">
<polygon fill="#999999" stroke="#666666" points="553.5,-239 412.5,-239 412.5,-209 553.5,-209 553.5,-239"/>
<text text-anchor="start" x="420.5" y="-227" font-family="Helvetica,sans-Serif" font-size="10.00">firmware/wombat/include</text>
<text text-anchor="middle" x="483" y="-216" font-family="Helvetica,sans-Serif" font-size="10.00">/bluetooth/uart.h</text>
</a>
</g>
</g>
<!-- Node2 -->
<g id="node2" class="node">
<title>Node2</title>
<g id="a_node2"><a xlink:href="server_8h.html" target="_top" xlink:title="Handle the setup and maintenance of the BLE server and connected clients.">
<polygon fill="white" stroke="#666666" points="553.5,-173 412.5,-173 412.5,-143 553.5,-143 553.5,-173"/>
<text text-anchor="start" x="420.5" y="-161" font-family="Helvetica,sans-Serif" font-size="10.00">firmware/wombat/include</text>
<text text-anchor="middle" x="483" y="-150" font-family="Helvetica,sans-Serif" font-size="10.00">/bluetooth/server.h</text>
</a>
</g>
</g>
<!-- Node1&#45;&gt;Node2 -->
<g id="edge1" class="edge">
<title>Node1&#45;&gt;Node2</title>
<path fill="none" stroke="#63b8ff" d="M476.43,-198.83C476.02,-190.17 476.31,-180.7 477.29,-173.16"/>
<polygon fill="#63b8ff" stroke="#63b8ff" points="472.95,-199.13 477.28,-208.8 479.92,-198.54 472.95,-199.13"/>
</g>
<!-- Node12 -->
<g id="node12" class="node">
<title>Node12</title>
<g id="a_node12"><a xlink:href="uart_8cpp.html" target="_top" xlink:title="BluetoothLE UART service setup and handling.">
<polygon fill="white" stroke="#666666" points="692,-173 572,-173 572,-143 692,-143 692,-173"/>
<text text-anchor="start" x="580" y="-161" font-family="Helvetica,sans-Serif" font-size="10.00">firmware/wombat/src</text>
<text text-anchor="middle" x="632" y="-150" font-family="Helvetica,sans-Serif" font-size="10.00">/bluetooth/uart.cpp</text>
</a>
</g>
</g>
<!-- Node1&#45;&gt;Node12 -->
<g id="edge13" class="edge">
<title>Node1&#45;&gt;Node12</title>
<path fill="none" stroke="#63b8ff" d="M525.09,-204.92C548.64,-194.8 577.56,-182.38 599.38,-173.01"/>
<polygon fill="#63b8ff" stroke="#63b8ff" points="523.51,-201.79 515.7,-208.95 526.27,-208.22 523.51,-201.79"/>
</g>
<!-- Node2&#45;&gt;Node1 -->
<g id="edge2" class="edge">
<title>Node2&#45;&gt;Node1</title>
<path fill="none" stroke="#63b8ff" d="M489.57,-183.13C489.98,-191.78 489.7,-201.26 488.72,-208.8"/>
<polygon fill="#63b8ff" stroke="#63b8ff" points="493.05,-182.83 488.71,-173.16 486.08,-183.43 493.05,-182.83"/>
</g>
<!-- Node3 -->
<g id="node3" class="node">
<title>Node3</title>
<g id="a_node3"><a xlink:href="_c_l_i_8h.html" target="_top" xlink:title="FreeRTOS CLI handler.">
<polygon fill="white" stroke="#666666" points="553.5,-107 412.5,-107 412.5,-77 553.5,-77 553.5,-107"/>
<text text-anchor="start" x="420.5" y="-95" font-family="Helvetica,sans-Serif" font-size="10.00">firmware/wombat/include</text>
<text text-anchor="middle" x="483" y="-84" font-family="Helvetica,sans-Serif" font-size="10.00">/cli/CLI.h</text>
</a>
</g>
</g>
<!-- Node2&#45;&gt;Node3 -->
<g id="edge3" class="edge">
<title>Node2&#45;&gt;Node3</title>
<path fill="none" stroke="#63b8ff" d="M476.43,-132.83C476.02,-124.17 476.31,-114.7 477.29,-107.16"/>
<polygon fill="#63b8ff" stroke="#63b8ff" points="472.95,-133.13 477.28,-142.8 479.92,-132.54 472.95,-133.13"/>
</g>
<!-- Node11 -->
<g id="node11" class="node">
<title>Node11</title>
<g id="a_node11"><a xlink:href="server_8cpp.html" target="_top" xlink:title="Setup and start BluetoothLE server.">
<polygon fill="white" stroke="#666666" points="692,-107 572,-107 572,-77 692,-77 692,-107"/>
<text text-anchor="start" x="580" y="-95" font-family="Helvetica,sans-Serif" font-size="10.00">firmware/wombat/src</text>
<text text-anchor="middle" x="632" y="-84" font-family="Helvetica,sans-Serif" font-size="10.00">/bluetooth/server.cpp</text>
</a>
</g>
</g>
<!-- Node2&#45;&gt;Node11 -->
<g id="edge12" class="edge">
<title>Node2&#45;&gt;Node11</title>
<path fill="none" stroke="#63b8ff" d="M525.09,-138.92C548.64,-128.8 577.56,-116.38 599.38,-107.01"/>
<polygon fill="#63b8ff" stroke="#63b8ff" points="523.51,-135.79 515.7,-142.95 526.27,-142.22 523.51,-135.79"/>
</g>
<!-- Node3&#45;&gt;Node2 -->
<g id="edge4" class="edge">
<title>Node3&#45;&gt;Node2</title>
<path fill="none" stroke="#63b8ff" d="M489.57,-117.13C489.98,-125.78 489.7,-135.26 488.72,-142.8"/>
<polygon fill="#63b8ff" stroke="#63b8ff" points="493.05,-116.83 488.71,-107.16 486.08,-117.43 493.05,-116.83"/>
</g>
<!-- Node4 -->
<g id="node4" class="node">
<title>Node4</title>
<g id="a_node4"><a xlink:href="_c_l_i_8cpp.html" target="_top" xlink:title="FreeRTOS CLI handler.">
<polygon fill="white" stroke="#666666" points="120,-35.5 0,-35.5 0,-5.5 120,-5.5 120,-35.5"/>
<text text-anchor="start" x="8" y="-23.5" font-family="Helvetica,sans-Serif" font-size="10.00">firmware/wombat/src</text>
<text text-anchor="middle" x="60" y="-12.5" font-family="Helvetica,sans-Serif" font-size="10.00">/cli/CLI.cpp</text>
</a>
</g>
</g>
<!-- Node3&#45;&gt;Node4 -->
<g id="edge5" class="edge">
<title>Node3&#45;&gt;Node4</title>
<path fill="none" stroke="#63b8ff" d="M401.95,-82.71C329.85,-74.58 221.76,-60.56 129,-41 121.69,-39.46 114.02,-37.57 106.55,-35.58"/>
<polygon fill="#63b8ff" stroke="#63b8ff" points="402,-86.23 412.32,-83.86 402.77,-79.28 402,-86.23"/>
</g>
<!-- Node5 -->
<g id="node5" class="node">
<title>Node5</title>
<g id="a_node5"><a xlink:href="cat-m1_8cpp.html" target="_top" xlink:title="CAT&#45;M1 CLI command request and response handler.">
<polygon fill="white" stroke="#666666" points="258,-41 138,-41 138,0 258,0 258,-41"/>
<text text-anchor="start" x="146" y="-29" font-family="Helvetica,sans-Serif" font-size="10.00">firmware/wombat/src</text>
<text text-anchor="start" x="146" y="-18" font-family="Helvetica,sans-Serif" font-size="10.00">/cli/peripherals/cat</text>
<text text-anchor="middle" x="198" y="-7" font-family="Helvetica,sans-Serif" font-size="10.00">&#45;m1.cpp</text>
</a>
</g>
</g>
<!-- Node3&#45;&gt;Node5 -->
<g id="edge6" class="edge">
<title>Node3&#45;&gt;Node5</title>
<path fill="none" stroke="#63b8ff" d="M408.72,-74.73C366.95,-65.35 313.94,-53.06 267,-41 264.11,-40.26 261.15,-39.48 258.16,-38.69"/>
<polygon fill="#63b8ff" stroke="#63b8ff" points="408.01,-78.16 418.53,-76.93 409.54,-71.33 408.01,-78.16"/>
</g>
<!-- Node6 -->
<g id="node6" class="node">
<title>Node6</title>
<g id="a_node6"><a xlink:href="sd__card_8cpp.html" target="_top" xlink:title=" ">
<polygon fill="white" stroke="#666666" points="396,-41 276,-41 276,0 396,0 396,-41"/>
<text text-anchor="start" x="284" y="-29" font-family="Helvetica,sans-Serif" font-size="10.00">firmware/wombat/src</text>
<text text-anchor="start" x="284" y="-18" font-family="Helvetica,sans-Serif" font-size="10.00">/cli/peripherals/sd</text>
<text text-anchor="middle" x="336" y="-7" font-family="Helvetica,sans-Serif" font-size="10.00">_card.cpp</text>
</a>
</g>
</g>
<!-- Node3&#45;&gt;Node6 -->
<g id="edge7" class="edge">
<title>Node3&#45;&gt;Node6</title>
<path fill="none" stroke="#63b8ff" d="M444.17,-72.64C423.6,-62.92 398.34,-50.97 377.4,-41.07"/>
<polygon fill="#63b8ff" stroke="#63b8ff" points="442.72,-75.83 453.25,-76.94 445.71,-69.5 442.72,-75.83"/>
</g>
<!-- Node7 -->
<g id="node7" class="node">
<title>Node7</title>
<g id="a_node7"><a xlink:href="sdi12_8cpp.html" target="_top" xlink:title="SDI&#45;12 command line interface handler.">
<polygon fill="white" stroke="#666666" points="552,-35.5 414,-35.5 414,-5.5 552,-5.5 552,-35.5"/>
<text text-anchor="start" x="422" y="-23.5" font-family="Helvetica,sans-Serif" font-size="10.00">firmware/wombat/src</text>
<text text-anchor="middle" x="483" y="-12.5" font-family="Helvetica,sans-Serif" font-size="10.00">/cli/peripherals/sdi12.cpp</text>
</a>
</g>
</g>
<!-- Node3&#45;&gt;Node7 -->
<g id="edge8" class="edge">
<title>Node3&#45;&gt;Node7</title>
<path fill="none" stroke="#63b8ff" d="M483,-66.75C483,-56.31 483,-44.49 483,-35.54"/>
<polygon fill="#63b8ff" stroke="#63b8ff" points="479.5,-66.94 483,-76.94 486.5,-66.94 479.5,-66.94"/>
</g>
<!-- Node8 -->
<g id="node8" class="node">
<title>Node8</title>
<g id="a_node8"><a xlink:href="ftp__stack_8cpp.html" target="_top" xlink:title=" ">
<polygon fill="white" stroke="#666666" points="690,-35.5 570,-35.5 570,-5.5 690,-5.5 690,-35.5"/>
<text text-anchor="start" x="578" y="-23.5" font-family="Helvetica,sans-Serif" font-size="10.00">firmware/wombat/src</text>
<text text-anchor="middle" x="630" y="-12.5" font-family="Helvetica,sans-Serif" font-size="10.00">/ftp_stack.cpp</text>
</a>
</g>
</g>
<!-- Node3&#45;&gt;Node8 -->
<g id="edge9" class="edge">
<title>Node3&#45;&gt;Node8</title>
<path fill="none" stroke="#63b8ff" d="M521.81,-72.65C546.39,-61.03 577.69,-46.23 600.3,-35.54"/>
<polygon fill="#63b8ff" stroke="#63b8ff" points="520.29,-69.5 512.75,-76.94 523.28,-75.83 520.29,-69.5"/>
</g>
<!-- Node9 -->
<g id="node9" class="node">
<title>Node9</title>
<g id="a_node9"><a xlink:href="main_8cpp.html" target="_top" xlink:title=" ">
<polygon fill="white" stroke="#666666" points="828,-35.5 708,-35.5 708,-5.5 828,-5.5 828,-35.5"/>
<text text-anchor="start" x="716" y="-23.5" font-family="Helvetica,sans-Serif" font-size="10.00">firmware/wombat/src</text>
<text text-anchor="middle" x="768" y="-12.5" font-family="Helvetica,sans-Serif" font-size="10.00">/main.cpp</text>
</a>
</g>
</g>
<!-- Node3&#45;&gt;Node9 -->
<g id="edge10" class="edge">
<title>Node3&#45;&gt;Node9</title>
<path fill="none" stroke="#63b8ff" d="M557.28,-74.73C599.05,-65.35 652.06,-53.06 699,-41 705.63,-39.3 712.6,-37.42 719.45,-35.54"/>
<polygon fill="#63b8ff" stroke="#63b8ff" points="556.46,-71.33 547.47,-76.93 557.99,-78.16 556.46,-71.33"/>
</g>
<!-- Node10 -->
<g id="node10" class="node">
<title>Node10</title>
<g id="a_node10"><a xlink:href="mqtt__stack_8cpp.html" target="_top" xlink:title=" ">
<polygon fill="white" stroke="#666666" points="966,-35.5 846,-35.5 846,-5.5 966,-5.5 966,-35.5"/>
<text text-anchor="start" x="854" y="-23.5" font-family="Helvetica,sans-Serif" font-size="10.00">firmware/wombat/src</text>
<text text-anchor="middle" x="906" y="-12.5" font-family="Helvetica,sans-Serif" font-size="10.00">/mqtt_stack.cpp</text>
</a>
</g>
</g>
<!-- Node3&#45;&gt;Node10 -->
<g id="edge11" class="edge">
<title>Node3&#45;&gt;Node10</title>
<path fill="none" stroke="#63b8ff" d="M563.79,-76.94C686.17,-58.78 719.87,-65.11 837,-41 844.44,-39.47 852.25,-37.56 859.83,-35.54"/>
<polygon fill="#63b8ff" stroke="#63b8ff" points="563.01,-73.52 553.64,-78.47 564.05,-80.44 563.01,-73.52"/>
</g>
</g>
</svg>
