<?xml version="1.0" encoding="UTF-8" standalone="no"?>
<!DOCTYPE svg PUBLIC "-//W3C//DTD SVG 1.1//EN"
 "http://www.w3.org/Graphics/SVG/1.1/DTD/svg11.dtd">
<!-- Generated by graphviz version 2.43.0 (0)
 -->
<!-- Title: firmware/wombat/include/bluetooth/uart.h Pages: 1 -->
<svg width="1998pt" height="379pt"
 viewBox="0.00 0.00 1997.80 379.00" xmlns="http://www.w3.org/2000/svg" xmlns:xlink="http://www.w3.org/1999/xlink">
<g id="graph0" class="graph" transform="scale(1 1) rotate(0) translate(4 375)">
<title>firmware/wombat/include/bluetooth/uart.h</title>
<!-- Node1 -->
<g id="node1" class="node">
<title>Node1</title>
<g id="a_node1"><a xlink:title="BluetoothLE UART service setup and handling.">
<polygon fill="#999999" stroke="#666666" points="459.5,-371 318.5,-371 318.5,-341 459.5,-341 459.5,-371"/>
<text text-anchor="start" x="326.5" y="-359" font-family="Helvetica,sans-Serif" font-size="10.00">firmware/wombat/include</text>
<text text-anchor="middle" x="389" y="-348" font-family="Helvetica,sans-Serif" font-size="10.00">/bluetooth/uart.h</text>
</a>
</g>
</g>
<!-- Node2 -->
<g id="node2" class="node">
<title>Node2</title>
<g id="a_node2"><a xlink:title=" ">
<polygon fill="#e0e0e0" stroke="#999999" points="656.5,-19 593.5,-19 593.5,0 656.5,0 656.5,-19"/>
<text text-anchor="middle" x="625" y="-7" font-family="Helvetica,sans-Serif" font-size="10.00">Arduino.h</text>
</a>
</g>
</g>
<!-- Node1&#45;&gt;Node2 -->
<g id="edge1" class="edge">
<title>Node1&#45;&gt;Node2</title>
<path fill="none" stroke="#63b8ff" d="M318.1,-348.9C205.9,-337.28 0,-307.01 0,-241.5 0,-241.5 0,-241.5 0,-118.5 0,-59.21 442.43,-23.24 582.8,-13.31"/>
<polygon fill="#63b8ff" stroke="#63b8ff" points="583.42,-16.78 593.15,-12.59 582.93,-9.8 583.42,-16.78"/>
</g>
<!-- Node3 -->
<g id="node3" class="node">
<title>Node3</title>
<g id="a_node3"><a xlink:title=" ">
<polygon fill="#e0e0e0" stroke="#999999" points="269.5,-189.5 158.5,-189.5 158.5,-170.5 269.5,-170.5 269.5,-189.5"/>
<text text-anchor="middle" x="214" y="-177.5" font-family="Helvetica,sans-Serif" font-size="10.00">BLECharacteristic.h</text>
</a>
</g>
</g>
<!-- Node1&#45;&gt;Node3 -->
<g id="edge2" class="edge">
<title>Node1&#45;&gt;Node3</title>
<path fill="none" stroke="#63b8ff" d="M318.32,-344.24C263.43,-331.77 190.81,-305.32 155,-250 141.59,-229.28 166.67,-208.08 188.17,-194.75"/>
<polygon fill="#63b8ff" stroke="#63b8ff" points="190.19,-197.63 197.04,-189.54 186.64,-191.59 190.19,-197.63"/>
</g>
<!-- Node4 -->
<g id="node4" class="node">
<title>Node4</title>
<g id="a_node4"><a xlink:title=" ">
<polygon fill="#e0e0e0" stroke="#999999" points="102,-189.5 28,-189.5 28,-170.5 102,-170.5 102,-189.5"/>
<text text-anchor="middle" x="65" y="-177.5" font-family="Helvetica,sans-Serif" font-size="10.00">BLEServer.h</text>
</a>
</g>
</g>
<!-- Node1&#45;&gt;Node4 -->
<g id="edge3" class="edge">
<title>Node1&#45;&gt;Node4</title>
<path fill="none" stroke="#63b8ff" d="M318.04,-346.97C277.88,-340.14 227.86,-327.65 188,-305 139.42,-277.4 97.04,-225.28 77.11,-198.25"/>
<polygon fill="#63b8ff" stroke="#63b8ff" points="79.72,-195.87 71.03,-189.81 74.04,-199.97 79.72,-195.87"/>
</g>
<!-- Node5 -->
<g id="node5" class="node">
<title>Node5</title>
<g id="a_node5"><a xlink:title=" ">
<polygon fill="#e0e0e0" stroke="#999999" points="721,-189.5 653,-189.5 653,-170.5 721,-170.5 721,-189.5"/>
<text text-anchor="middle" x="687" y="-177.5" font-family="Helvetica,sans-Serif" font-size="10.00">BLE2902.h</text>
</a>
</g>
</g>
<!-- Node1&#45;&gt;Node5 -->
<g id="edge4" class="edge">
<title>Node1&#45;&gt;Node5</title>
<path fill="none" stroke="#63b8ff" d="M459.53,-350.55C527.81,-342.16 628.5,-318.19 681,-250 691.87,-235.88 692.17,-214.98 690.49,-199.88"/>
<polygon fill="#63b8ff" stroke="#63b8ff" points="693.9,-199.05 688.96,-189.68 686.98,-200.09 693.9,-199.05"/>
</g>
<!-- Node6 -->
<g id="node6" class="node">
<title>Node6</title>
<g id="a_node6"><a xlink:href="tones_8h.html" target="_top" xlink:title="Audio control for the onboard piezo buzzer.">
<polygon fill="white" stroke="#666666" points="1465.5,-305 1334.5,-305 1334.5,-286 1465.5,-286 1465.5,-305"/>
<text text-anchor="middle" x="1400" y="-293" font-family="Helvetica,sans-Serif" font-size="10.00">audio&#45;feedback/tones.h</text>
</a>
</g>
</g>
<!-- Node1&#45;&gt;Node6 -->
<g id="edge5" class="edge">
<title>Node1&#45;&gt;Node6</title>
<path fill="none" stroke="#63b8ff" d="M459.69,-350.91C643.39,-340.28 1134.67,-311.85 1324.07,-300.89"/>
<polygon fill="#63b8ff" stroke="#63b8ff" points="1324.44,-304.38 1334.22,-300.31 1324.03,-297.39 1324.44,-304.38"/>
</g>
<!-- Node7 -->
<g id="node7" class="node">
<title>Node7</title>
<g id="a_node7"><a xlink:href="server_8h.html" target="_top" xlink:title="Handle the setup and maintenance of the BLE server and connected clients.">
<polygon fill="white" stroke="#666666" points="441.5,-305 336.5,-305 336.5,-286 441.5,-286 441.5,-305"/>
<text text-anchor="middle" x="389" y="-293" font-family="Helvetica,sans-Serif" font-size="10.00">bluetooth/server.h</text>
</a>
</g>
</g>
<!-- Node1&#45;&gt;Node7 -->
<g id="edge7" class="edge">
<title>Node1&#45;&gt;Node7</title>
<path fill="none" stroke="#63b8ff" d="M383.12,-340.84C382.15,-333.21 381.99,-323.7 382.64,-315.45"/>
<polygon fill="#63b8ff" stroke="#63b8ff" points="386.14,-315.65 384.02,-305.27 379.21,-314.71 386.14,-315.65"/>
</g>
<!-- Node6&#45;&gt;Node2 -->
<g id="edge6" class="edge">
<title>Node6&#45;&gt;Node2</title>
<path fill="none" stroke="#63b8ff" d="M1465.71,-293.49C1604.1,-289.82 1918.24,-272.91 1984,-195 2005.64,-169.36 1957.13,-110.77 1956,-110 1846.94,-36.1 881.32,-14.98 667.01,-11.18"/>
<polygon fill="#63b8ff" stroke="#63b8ff" points="666.87,-7.68 656.81,-11 666.74,-14.68 666.87,-7.68"/>
</g>
<!-- Node7&#45;&gt;Node1 -->
<g id="edge12" class="edge">
<title>Node7&#45;&gt;Node1</title>
<path fill="none" stroke="#63b8ff" d="M393.98,-305.27C395.42,-312.03 395.98,-321.72 395.66,-330.75"/>
<polygon fill="#63b8ff" stroke="#63b8ff" points="392.16,-330.6 394.88,-340.84 399.14,-331.14 392.16,-330.6"/>
</g>
<!-- Node7&#45;&gt;Node4 -->
<g id="edge9" class="edge">
<title>Node7&#45;&gt;Node4</title>
<path fill="none" stroke="#63b8ff" d="M336.26,-291.46C287.42,-287.05 213.69,-276.28 155,-250 125.97,-237 97.73,-212.93 80.85,-196.93"/>
<polygon fill="#63b8ff" stroke="#63b8ff" points="83.14,-194.27 73.53,-189.82 78.26,-199.29 83.14,-194.27"/>
</g>
<!-- Node7&#45;&gt;Node5 -->
<g id="edge11" class="edge">
<title>Node7&#45;&gt;Node5</title>
<path fill="none" stroke="#63b8ff" d="M426.66,-285.96C459.07,-278.12 506.82,-265.41 547,-250 549.91,-248.89 620.84,-213.79 660.59,-194.09"/>
<polygon fill="#63b8ff" stroke="#63b8ff" points="662.33,-197.14 669.74,-189.56 659.22,-190.86 662.33,-197.14"/>
</g>
<!-- Node8 -->
<g id="node8" class="node">
<title>Node8</title>
<g id="a_node8"><a xlink:title=" ">
<polygon fill="#e0e0e0" stroke="#999999" points="671.5,-250 594.5,-250 594.5,-231 671.5,-231 671.5,-250"/>
<text text-anchor="middle" x="633" y="-238" font-family="Helvetica,sans-Serif" font-size="10.00">BLEDevice.h</text>
</a>
</g>
</g>
<!-- Node7&#45;&gt;Node8 -->
<g id="edge8" class="edge">
<title>Node7&#45;&gt;Node8</title>
<path fill="none" stroke="#63b8ff" d="M428.2,-285.98C470.66,-276.76 538.45,-262.04 584.29,-252.08"/>
<polygon fill="#63b8ff" stroke="#63b8ff" points="585.27,-255.45 594.3,-249.91 583.78,-248.61 585.27,-255.45"/>
</g>
<!-- Node9 -->
<g id="node9" class="node">
<title>Node9</title>
<g id="a_node9"><a xlink:title=" ">
<polygon fill="#e0e0e0" stroke="#999999" points="356,-250 290,-250 290,-231 356,-231 356,-250"/>
<text text-anchor="middle" x="323" y="-238" font-family="Helvetica,sans-Serif" font-size="10.00">BLEUtils.h</text>
</a>
</g>
</g>
<!-- Node7&#45;&gt;Node9 -->
<g id="edge10" class="edge">
<title>Node7&#45;&gt;Node9</title>
<path fill="none" stroke="#63b8ff" d="M378.4,-285.98C368.54,-278.07 353.65,-266.11 341.78,-256.58"/>
<polygon fill="#63b8ff" stroke="#63b8ff" points="343.79,-253.7 333.8,-250.17 339.4,-259.16 343.79,-253.7"/>
</g>
<!-- Node10 -->
<g id="node10" class="node">
<title>Node10</title>
<g id="a_node10"><a xlink:href="device_8h.html" target="_top" xlink:title="Bluetooth device services and device information.">
<polygon fill="white" stroke="#666666" points="271.5,-250 164.5,-250 164.5,-231 271.5,-231 271.5,-250"/>
<text text-anchor="middle" x="218" y="-238" font-family="Helvetica,sans-Serif" font-size="10.00">bluetooth/device.h</text>
</a>
</g>
</g>
<!-- Node7&#45;&gt;Node10 -->
<g id="edge13" class="edge">
<title>Node7&#45;&gt;Node10</title>
<path fill="none" stroke="#63b8ff" d="M361.53,-285.98C332.82,-277.09 287.58,-263.07 255.58,-253.15"/>
<polygon fill="#63b8ff" stroke="#63b8ff" points="256.28,-249.7 245.69,-250.08 254.2,-256.39 256.28,-249.7"/>
</g>
<!-- Node11 -->
<g id="node11" class="node">
<title>Node11</title>
<g id="a_node11"><a xlink:href="power__monitoring_8h.html" target="_top" xlink:title="Setup BluetoothLE power monitoring information.">
<polygon fill="white" stroke="#666666" points="538,-250 374,-250 374,-231 538,-231 538,-250"/>
<text text-anchor="middle" x="456" y="-238" font-family="Helvetica,sans-Serif" font-size="10.00">bluetooth/power_monitoring.h</text>
</a>
</g>
</g>
<!-- Node7&#45;&gt;Node11 -->
<g id="edge18" class="edge">
<title>Node7&#45;&gt;Node11</title>
<path fill="none" stroke="#63b8ff" d="M399.76,-285.98C409.77,-278.07 424.89,-266.11 436.93,-256.58"/>
<polygon fill="#63b8ff" stroke="#63b8ff" points="439.37,-259.12 445.04,-250.17 435.03,-253.63 439.37,-259.12"/>
</g>
<!-- Node15 -->
<g id="node15" class="node">
<title>Node15</title>
<g id="a_node15"><a xlink:href="_c_l_i_8h.html" target="_top" xlink:title="FreeRTOS CLI handler.">
<polygon fill="white" stroke="#666666" points="1281.5,-250 1226.5,-250 1226.5,-231 1281.5,-231 1281.5,-250"/>
<text text-anchor="middle" x="1254" y="-238" font-family="Helvetica,sans-Serif" font-size="10.00">cli/CLI.h</text>
</a>
</g>
</g>
<!-- Node7&#45;&gt;Node15 -->
<g id="edge29" class="edge">
<title>Node7&#45;&gt;Node15</title>
<path fill="none" stroke="#63b8ff" d="M441.81,-291.26C601.79,-281.46 1078.56,-252.25 1216.33,-243.81"/>
<polygon fill="#63b8ff" stroke="#63b8ff" points="1216.63,-247.3 1226.39,-243.19 1216.2,-240.31 1216.63,-247.3"/>
</g>
<!-- Node10&#45;&gt;Node2 -->
<g id="edge14" class="edge">
<title>Node10&#45;&gt;Node2</title>
<path fill="none" stroke="#63b8ff" d="M193.53,-230.86C177.73,-223.85 158.41,-212.27 149,-195 142.62,-183.29 141.4,-175.95 149,-165 200.01,-91.53 476.87,-36.3 583.3,-17.5"/>
<polygon fill="#63b8ff" stroke="#63b8ff" points="584.1,-20.91 593.35,-15.74 582.89,-14.01 584.1,-20.91"/>
</g>
<!-- Node10&#45;&gt;Node3 -->
<g id="edge15" class="edge">
<title>Node10&#45;&gt;Node3</title>
<path fill="none" stroke="#63b8ff" d="M217.41,-230.87C216.85,-222.75 216,-210.31 215.29,-199.89"/>
<polygon fill="#63b8ff" stroke="#63b8ff" points="218.77,-199.41 214.59,-189.67 211.78,-199.88 218.77,-199.41"/>
</g>
<!-- Node10&#45;&gt;Node4 -->
<g id="edge16" class="edge">
<title>Node10&#45;&gt;Node4</title>
<path fill="none" stroke="#63b8ff" d="M195.75,-230.99C169.69,-221.03 126.32,-204.45 96.73,-193.13"/>
<polygon fill="#63b8ff" stroke="#63b8ff" points="97.86,-189.82 87.27,-189.52 95.36,-196.36 97.86,-189.82"/>
</g>
<!-- Node10&#45;&gt;Node5 -->
<g id="edge17" class="edge">
<title>Node10&#45;&gt;Node5</title>
<path fill="none" stroke="#63b8ff" d="M271.61,-232.18C274.78,-231.77 277.93,-231.38 281,-231 425.24,-213.28 462.11,-215.39 606,-195 617.91,-193.31 630.76,-191.22 642.64,-189.17"/>
<polygon fill="#63b8ff" stroke="#63b8ff" points="643.54,-192.56 652.78,-187.39 642.33,-185.67 643.54,-192.56"/>
</g>
<!-- Node11&#45;&gt;Node2 -->
<g id="edge19" class="edge">
<title>Node11&#45;&gt;Node2</title>
<path fill="none" stroke="#63b8ff" d="M505.16,-230.99C543.73,-223.26 592.99,-210.68 606,-195 645.89,-146.92 636.23,-65.75 629.21,-29.26"/>
<polygon fill="#63b8ff" stroke="#63b8ff" points="632.56,-28.16 627.1,-19.08 625.71,-29.58 632.56,-28.16"/>
</g>
<!-- Node11&#45;&gt;Node3 -->
<g id="edge20" class="edge">
<title>Node11&#45;&gt;Node3</title>
<path fill="none" stroke="#63b8ff" d="M420.81,-230.99C378.07,-220.66 305.88,-203.21 259.1,-191.9"/>
<polygon fill="#63b8ff" stroke="#63b8ff" points="259.77,-188.46 249.23,-189.52 258.13,-195.27 259.77,-188.46"/>
</g>
<!-- Node11&#45;&gt;Node4 -->
<g id="edge21" class="edge">
<title>Node11&#45;&gt;Node4</title>
<path fill="none" stroke="#63b8ff" d="M394.49,-230.98C332.47,-222.29 234.01,-208.24 149,-195 137.14,-193.15 124.35,-191.07 112.41,-189.08"/>
<polygon fill="#63b8ff" stroke="#63b8ff" points="112.63,-185.57 102.19,-187.37 111.47,-192.47 112.63,-185.57"/>
</g>
<!-- Node11&#45;&gt;Node5 -->
<g id="edge22" class="edge">
<title>Node11&#45;&gt;Node5</title>
<path fill="none" stroke="#63b8ff" d="M493.28,-230.96C530.35,-222.34 588.78,-208.42 639,-195 642.19,-194.15 645.49,-193.24 648.79,-192.31"/>
<polygon fill="#63b8ff" stroke="#63b8ff" points="649.98,-195.61 658.63,-189.5 648.06,-188.88 649.98,-195.61"/>
</g>
<!-- Node12 -->
<g id="node12" class="node">
<title>Node12</title>
<g id="a_node12"><a xlink:href="solar_8h.html" target="_top" xlink:title="Solar voltage and current monitoring using INA219 IC.">
<polygon fill="white" stroke="#666666" points="597,-189.5 457,-189.5 457,-170.5 597,-170.5 597,-189.5"/>
<text text-anchor="middle" x="527" y="-177.5" font-family="Helvetica,sans-Serif" font-size="10.00">power_monitoring/solar.h</text>
</a>
</g>
</g>
<!-- Node11&#45;&gt;Node12 -->
<g id="edge23" class="edge">
<title>Node11&#45;&gt;Node12</title>
<path fill="none" stroke="#63b8ff" d="M466.48,-230.87C477.49,-221.8 495.04,-207.34 508.41,-196.32"/>
<polygon fill="#63b8ff" stroke="#63b8ff" points="510.99,-198.73 516.48,-189.67 506.54,-193.33 510.99,-198.73"/>
</g>
<!-- Node14 -->
<g id="node14" class="node">
<title>Node14</title>
<g id="a_node14"><a xlink:href="battery_8h.html" target="_top" xlink:title="Battery voltage and current monitoring using INA219 IC.">
<polygon fill="white" stroke="#666666" points="438.5,-189.5 287.5,-189.5 287.5,-170.5 438.5,-170.5 438.5,-189.5"/>
<text text-anchor="middle" x="363" y="-177.5" font-family="Helvetica,sans-Serif" font-size="10.00">power_monitoring/battery.h</text>
</a>
</g>
</g>
<!-- Node11&#45;&gt;Node14 -->
<g id="edge26" class="edge">
<title>Node11&#45;&gt;Node14</title>
<path fill="none" stroke="#63b8ff" d="M442.28,-230.87C427.3,-221.45 403.11,-206.23 385.38,-195.08"/>
<polygon fill="#63b8ff" stroke="#63b8ff" points="387.11,-192.03 376.78,-189.67 383.38,-197.95 387.11,-192.03"/>
</g>
<!-- Node12&#45;&gt;Node2 -->
<g id="edge24" class="edge">
<title>Node12&#45;&gt;Node2</title>
<path fill="none" stroke="#63b8ff" d="M531.99,-170.41C547.33,-144.05 593.93,-63.93 614.75,-28.12"/>
<polygon fill="#63b8ff" stroke="#63b8ff" points="617.9,-29.68 619.9,-19.27 611.84,-26.16 617.9,-29.68"/>
</g>
<!-- Node13 -->
<g id="node13" class="node">
<title>Node13</title>
<g id="a_node13"><a xlink:title=" ">
<polygon fill="#e0e0e0" stroke="#999999" points="512.5,-129 407.5,-129 407.5,-110 512.5,-110 512.5,-129"/>
<text text-anchor="middle" x="460" y="-117" font-family="Helvetica,sans-Serif" font-size="10.00">Adafruit_INA219.h</text>
</a>
</g>
</g>
<!-- Node12&#45;&gt;Node13 -->
<g id="edge25" class="edge">
<title>Node12&#45;&gt;Node13</title>
<path fill="none" stroke="#63b8ff" d="M517.11,-170.37C506.72,-161.3 490.16,-146.84 477.55,-135.82"/>
<polygon fill="#63b8ff" stroke="#63b8ff" points="479.76,-133.11 469.93,-129.17 475.16,-138.38 479.76,-133.11"/>
</g>
<!-- Node14&#45;&gt;Node2 -->
<g id="edge27" class="edge">
<title>Node14&#45;&gt;Node2</title>
<path fill="none" stroke="#63b8ff" d="M365.35,-170.19C369.59,-155.81 379.84,-127.16 398,-110 451.25,-59.67 534.08,-32.28 583.59,-19.57"/>
<polygon fill="#63b8ff" stroke="#63b8ff" points="584.47,-22.96 593.33,-17.15 582.78,-16.17 584.47,-22.96"/>
</g>
<!-- Node14&#45;&gt;Node13 -->
<g id="edge28" class="edge">
<title>Node14&#45;&gt;Node13</title>
<path fill="none" stroke="#63b8ff" d="M377.31,-170.37C393,-160.91 418.4,-145.59 436.91,-134.42"/>
<polygon fill="#63b8ff" stroke="#63b8ff" points="438.87,-137.33 445.63,-129.17 435.26,-131.33 438.87,-137.33"/>
</g>
<!-- Node15&#45;&gt;Node2 -->
<g id="edge30" class="edge">
<title>Node15&#45;&gt;Node2</title>
<path fill="none" stroke="#63b8ff" d="M1226.49,-239.8C1135.97,-240.34 848.69,-238.51 769,-195 732.61,-175.13 662.71,-69.67 635.87,-27.72"/>
<polygon fill="#63b8ff" stroke="#63b8ff" points="638.73,-25.71 630.41,-19.15 632.83,-29.47 638.73,-25.71"/>
</g>
<!-- Node16 -->
<g id="node16" class="node">
<title>Node16</title>
<g id="a_node16"><a xlink:title=" ">
<polygon fill="#e0e0e0" stroke="#999999" points="1874.5,-129 1761.5,-129 1761.5,-110 1874.5,-110 1874.5,-129"/>
<text text-anchor="middle" x="1818" y="-117" font-family="Helvetica,sans-Serif" font-size="10.00">freertos/FreeRTOS.h</text>
</a>
</g>
</g>
<!-- Node15&#45;&gt;Node16 -->
<g id="edge31" class="edge">
<title>Node15&#45;&gt;Node16</title>
<path fill="none" stroke="#63b8ff" d="M1281.52,-239.5C1390.87,-239.24 1790.53,-235.48 1828,-195 1841.95,-179.93 1834.97,-155.24 1827.52,-138.45"/>
<polygon fill="#63b8ff" stroke="#63b8ff" points="1830.53,-136.63 1823.01,-129.17 1824.24,-139.7 1830.53,-136.63"/>
</g>
<!-- Node17 -->
<g id="node17" class="node">
<title>Node17</title>
<g id="a_node17"><a xlink:title=" ">
<polygon fill="#e0e0e0" stroke="#999999" points="1463.5,-129 1356.5,-129 1356.5,-110 1463.5,-110 1463.5,-129"/>
<text text-anchor="middle" x="1410" y="-117" font-family="Helvetica,sans-Serif" font-size="10.00">cli/FreeRTOS_CLI.h</text>
</a>
</g>
</g>
<!-- Node15&#45;&gt;Node17 -->
<g id="edge32" class="edge">
<title>Node15&#45;&gt;Node17</title>
<path fill="none" stroke="#63b8ff" d="M1246.11,-230.81C1233.57,-215.94 1212.1,-185.26 1228,-165 1242.69,-146.29 1300.01,-134.43 1346.44,-127.7"/>
<polygon fill="#63b8ff" stroke="#63b8ff" points="1347.05,-131.15 1356.47,-126.31 1346.08,-124.22 1347.05,-131.15"/>
</g>
<!-- Node18 -->
<g id="node18" class="node">
<title>Node18</title>
<g id="a_node18"><a xlink:href="cat-m1_8h.html" target="_top" xlink:title="CAT&#45;M1 CLI command request and response handler.">
<polygon fill="white" stroke="#666666" points="1819,-189.5 1687,-189.5 1687,-170.5 1819,-170.5 1819,-189.5"/>
<text text-anchor="middle" x="1753" y="-177.5" font-family="Helvetica,sans-Serif" font-size="10.00">cli/peripherals/cat&#45;m1.h</text>
</a>
</g>
</g>
<!-- Node15&#45;&gt;Node18 -->
<g id="edge33" class="edge">
<title>Node15&#45;&gt;Node18</title>
<path fill="none" stroke="#63b8ff" d="M1281.63,-237.37C1349.38,-231.98 1529.13,-216.67 1678,-195 1685.38,-193.93 1693.15,-192.65 1700.77,-191.3"/>
<polygon fill="#63b8ff" stroke="#63b8ff" points="1701.44,-194.74 1710.66,-189.52 1700.19,-187.85 1701.44,-194.74"/>
</g>
<!-- Node24 -->
<g id="node24" class="node">
<title>Node24</title>
<g id="a_node24"><a xlink:href="sdi12_8h.html" target="_top" xlink:title="SDI&#45;12 command line interface handler.">
<polygon fill="white" stroke="#666666" points="1361,-189.5 1237,-189.5 1237,-170.5 1361,-170.5 1361,-189.5"/>
<text text-anchor="middle" x="1299" y="-177.5" font-family="Helvetica,sans-Serif" font-size="10.00">cli/peripherals/sdi12.h</text>
</a>
</g>
</g>
<!-- Node15&#45;&gt;Node24 -->
<g id="edge43" class="edge">
<title>Node15&#45;&gt;Node24</title>
<path fill="none" stroke="#63b8ff" d="M1260.64,-230.87C1267.29,-222.23 1277.69,-208.7 1285.99,-197.92"/>
<polygon fill="#63b8ff" stroke="#63b8ff" points="1289.01,-199.73 1292.33,-189.67 1283.46,-195.46 1289.01,-199.73"/>
</g>
<!-- Node29 -->
<g id="node29" class="node">
<title>Node29</title>
<g id="a_node29"><a xlink:href="cli__power_8h.html" target="_top" xlink:title=" ">
<polygon fill="white" stroke="#666666" points="1669,-195 1569,-195 1569,-165 1669,-165 1669,-195"/>
<text text-anchor="start" x="1577" y="-183" font-family="Helvetica,sans-Serif" font-size="10.00">cli/peripherals/cli</text>
<text text-anchor="middle" x="1619" y="-172" font-family="Helvetica,sans-Serif" font-size="10.00">_power.h</text>
</a>
</g>
</g>
<!-- Node15&#45;&gt;Node29 -->
<g id="edge54" class="edge">
<title>Node15&#45;&gt;Node29</title>
<path fill="none" stroke="#63b8ff" d="M1281.57,-236.32C1333.73,-230.13 1450.6,-215.41 1558.75,-195.13"/>
<polygon fill="#63b8ff" stroke="#63b8ff" points="1559.68,-198.52 1568.85,-193.22 1558.38,-191.64 1559.68,-198.52"/>
</g>
<!-- Node30 -->
<g id="node30" class="node">
<title>Node30</title>
<g id="a_node30"><a xlink:href="sd__card_8h.html" target="_top" xlink:title=" ">
<polygon fill="white" stroke="#666666" points="1975,-195 1875,-195 1875,-165 1975,-165 1975,-195"/>
<text text-anchor="start" x="1883" y="-183" font-family="Helvetica,sans-Serif" font-size="10.00">cli/peripherals/sd</text>
<text text-anchor="middle" x="1925" y="-172" font-family="Helvetica,sans-Serif" font-size="10.00">_card.h</text>
</a>
</g>
</g>
<!-- Node15&#45;&gt;Node30 -->
<g id="edge60" class="edge">
<title>Node15&#45;&gt;Node30</title>
<path fill="none" stroke="#63b8ff" d="M1281.68,-238.87C1367.88,-236.61 1639.06,-227.24 1861,-195 1862.27,-194.82 1863.54,-194.62 1864.83,-194.42"/>
<polygon fill="#63b8ff" stroke="#63b8ff" points="1865.56,-197.84 1874.81,-192.68 1864.36,-190.95 1865.56,-197.84"/>
</g>
<!-- Node32 -->
<g id="node32" class="node">
<title>Node32</title>
<g id="a_node32"><a xlink:href="acquisition__intervals_8h.html" target="_top" xlink:title="Handles the time between measurements and uplinks by the device over LTE.">
<polygon fill="white" stroke="#666666" points="1551,-195 1397,-195 1397,-165 1551,-165 1551,-195"/>
<text text-anchor="start" x="1405" y="-183" font-family="Helvetica,sans-Serif" font-size="10.00">cli/device_config/acquisition</text>
<text text-anchor="middle" x="1474" y="-172" font-family="Helvetica,sans-Serif" font-size="10.00">_intervals.h</text>
</a>
</g>
</g>
<!-- Node15&#45;&gt;Node32 -->
<g id="edge63" class="edge">
<title>Node15&#45;&gt;Node32</title>
<path fill="none" stroke="#63b8ff" d="M1281.86,-232.09C1314.26,-223.48 1368.73,-208.99 1411.42,-197.64"/>
<polygon fill="#63b8ff" stroke="#63b8ff" points="1412.4,-201 1421.17,-195.05 1410.61,-194.24 1412.4,-201"/>
</g>
<!-- Node34 -->
<g id="node34" class="node">
<title>Node34</title>
<g id="a_node34"><a xlink:href="mqtt__cli_8h.html" target="_top" xlink:title="MQTT setup and configuration through the CLI.">
<polygon fill="white" stroke="#666666" points="1181,-195 1057,-195 1057,-165 1181,-165 1181,-195"/>
<text text-anchor="start" x="1065" y="-183" font-family="Helvetica,sans-Serif" font-size="10.00">cli/device_config/mqtt</text>
<text text-anchor="middle" x="1119" y="-172" font-family="Helvetica,sans-Serif" font-size="10.00">_cli.h</text>
</a>
</g>
</g>
<!-- Node15&#45;&gt;Node34 -->
<g id="edge71" class="edge">
<title>Node15&#45;&gt;Node34</title>
<path fill="none" stroke="#63b8ff" d="M1234.37,-230.99C1215.2,-222.68 1185.4,-209.78 1160.9,-199.16"/>
<polygon fill="#63b8ff" stroke="#63b8ff" points="1162.02,-195.83 1151.46,-195.06 1159.24,-202.25 1162.02,-195.83"/>
</g>
<!-- Node35 -->
<g id="node35" class="node">
<title>Node35</title>
<g id="a_node35"><a xlink:href="ftp__cli_8h.html" target="_top" xlink:title="FTP setup and configuration through the CLI.">
<polygon fill="white" stroke="#666666" points="890.5,-195 777.5,-195 777.5,-165 890.5,-165 890.5,-195"/>
<text text-anchor="start" x="785.5" y="-183" font-family="Helvetica,sans-Serif" font-size="10.00">cli/device_config/ftp</text>
<text text-anchor="middle" x="834" y="-172" font-family="Helvetica,sans-Serif" font-size="10.00">_cli.h</text>
</a>
</g>
</g>
<!-- Node15&#45;&gt;Node35 -->
<g id="edge73" class="edge">
<title>Node15&#45;&gt;Node35</title>
<path fill="none" stroke="#63b8ff" d="M1226.34,-236.82C1168.08,-231.01 1028.28,-216.17 900.76,-195.03"/>
<polygon fill="#63b8ff" stroke="#63b8ff" points="901.26,-191.57 890.82,-193.37 900.11,-198.47 901.26,-191.57"/>
</g>
<!-- Node36 -->
<g id="node36" class="node">
<title>Node36</title>
<g id="a_node36"><a xlink:href="config__cli_8h.html" target="_top" xlink:title=" ">
<polygon fill="white" stroke="#666666" points="1039,-195 909,-195 909,-165 1039,-165 1039,-195"/>
<text text-anchor="start" x="917" y="-183" font-family="Helvetica,sans-Serif" font-size="10.00">cli/device_config/config</text>
<text text-anchor="middle" x="974" y="-172" font-family="Helvetica,sans-Serif" font-size="10.00">_cli.h</text>
</a>
</g>
</g>
<!-- Node15&#45;&gt;Node36 -->
<g id="edge75" class="edge">
<title>Node15&#45;&gt;Node36</title>
<path fill="none" stroke="#63b8ff" d="M1226.39,-233.73C1185.56,-225.2 1107.64,-208.92 1049.12,-196.7"/>
<polygon fill="#63b8ff" stroke="#63b8ff" points="1049.68,-193.24 1039.17,-194.62 1048.24,-200.09 1049.68,-193.24"/>
</g>
<!-- Node18&#45;&gt;Node16 -->
<g id="edge34" class="edge">
<title>Node18&#45;&gt;Node16</title>
<path fill="none" stroke="#63b8ff" d="M1762.59,-170.37C1772.58,-161.38 1788.43,-147.11 1800.63,-136.14"/>
<polygon fill="#63b8ff" stroke="#63b8ff" points="1803.28,-138.46 1808.37,-129.17 1798.6,-133.26 1803.28,-138.46"/>
</g>
<!-- Node18&#45;&gt;Node17 -->
<g id="edge37" class="edge">
<title>Node18&#45;&gt;Node17</title>
<path fill="none" stroke="#63b8ff" d="M1708.21,-170.49C1698.27,-168.64 1687.78,-166.73 1678,-165 1608.07,-152.67 1527.71,-139.45 1473.36,-130.65"/>
<polygon fill="#63b8ff" stroke="#63b8ff" points="1473.62,-127.15 1463.19,-129.01 1472.5,-134.06 1473.62,-127.15"/>
</g>
<!-- Node19 -->
<g id="node19" class="node">
<title>Node19</title>
<g id="a_node19"><a xlink:title=" ">
<polygon fill="#e0e0e0" stroke="#999999" points="1649.5,-129 1588.5,-129 1588.5,-110 1649.5,-110 1649.5,-129"/>
<text text-anchor="middle" x="1619" y="-117" font-family="Helvetica,sans-Serif" font-size="10.00">Stream.h</text>
</a>
</g>
</g>
<!-- Node18&#45;&gt;Node19 -->
<g id="edge35" class="edge">
<title>Node18&#45;&gt;Node19</title>
<path fill="none" stroke="#63b8ff" d="M1733.52,-170.49C1710.99,-160.66 1673.69,-144.38 1647.81,-133.08"/>
<polygon fill="#63b8ff" stroke="#63b8ff" points="1649.07,-129.81 1638.51,-129.02 1646.27,-136.23 1649.07,-129.81"/>
</g>
<!-- Node20 -->
<g id="node20" class="node">
<title>Node20</title>
<g id="a_node20"><a xlink:title=" ">
<polygon fill="#e0e0e0" stroke="#999999" points="1570.5,-129 1481.5,-129 1481.5,-110 1570.5,-110 1570.5,-129"/>
<text text-anchor="middle" x="1526" y="-117" font-family="Helvetica,sans-Serif" font-size="10.00">StreamString.h</text>
</a>
</g>
</g>
<!-- Node18&#45;&gt;Node20 -->
<g id="edge36" class="edge">
<title>Node18&#45;&gt;Node20</title>
<path fill="none" stroke="#63b8ff" d="M1719.99,-170.49C1680.06,-160.2 1612.76,-142.86 1568.86,-131.54"/>
<polygon fill="#63b8ff" stroke="#63b8ff" points="1569.6,-128.12 1559.05,-129.02 1567.86,-134.9 1569.6,-128.12"/>
</g>
<!-- Node21 -->
<g id="node21" class="node">
<title>Node21</title>
<g id="a_node21"><a xlink:href="_c_a_t___m1_8h.html" target="_top" xlink:title=" ">
<polygon fill="white" stroke="#666666" points="1743.5,-129 1678.5,-129 1678.5,-110 1743.5,-110 1743.5,-129"/>
<text text-anchor="middle" x="1711" y="-117" font-family="Helvetica,sans-Serif" font-size="10.00">CAT_M1.h</text>
</a>
</g>
</g>
<!-- Node18&#45;&gt;Node21 -->
<g id="edge38" class="edge">
<title>Node18&#45;&gt;Node21</title>
<path fill="none" stroke="#63b8ff" d="M1746.8,-170.37C1740.6,-161.73 1730.89,-148.2 1723.14,-137.42"/>
<polygon fill="#63b8ff" stroke="#63b8ff" points="1725.9,-135.25 1717.22,-129.17 1720.21,-139.33 1725.9,-135.25"/>
</g>
<!-- Node22 -->
<g id="node22" class="node">
<title>Node22</title>
<g id="a_node22"><a xlink:title=" ">
<polygon fill="#e0e0e0" stroke="#999999" points="1936,-19 1888,-19 1888,0 1936,0 1936,-19"/>
<text text-anchor="middle" x="1912" y="-7" font-family="Helvetica,sans-Serif" font-size="10.00">Wire.h</text>
</a>
</g>
</g>
<!-- Node21&#45;&gt;Node22 -->
<g id="edge39" class="edge">
<title>Node21&#45;&gt;Node22</title>
<path fill="none" stroke="#63b8ff" d="M1743.68,-111.81C1803.21,-99.6 1923.28,-74.88 1924,-74 1934.36,-61.25 1928.94,-42.3 1922.4,-28.43"/>
<polygon fill="#63b8ff" stroke="#63b8ff" points="1925.4,-26.61 1917.66,-19.38 1919.2,-29.86 1925.4,-26.61"/>
</g>
<!-- Node23 -->
<g id="node23" class="node">
<title>Node23</title>
<g id="a_node23"><a xlink:href="_t_c_a9534_8h.html" target="_top" xlink:title=" ">
<polygon fill="white" stroke="#666666" points="1915,-74 1847,-74 1847,-55 1915,-55 1915,-74"/>
<text text-anchor="middle" x="1881" y="-62" font-family="Helvetica,sans-Serif" font-size="10.00">TCA9534.h</text>
</a>
</g>
</g>
<!-- Node21&#45;&gt;Node23 -->
<g id="edge40" class="edge">
<title>Node21&#45;&gt;Node23</title>
<path fill="none" stroke="#63b8ff" d="M1738.31,-109.98C1766.85,-101.09 1811.83,-87.07 1843.64,-77.15"/>
<polygon fill="#63b8ff" stroke="#63b8ff" points="1844.97,-80.4 1853.47,-74.08 1842.88,-73.72 1844.97,-80.4"/>
</g>
<!-- Node23&#45;&gt;Node2 -->
<g id="edge41" class="edge">
<title>Node23&#45;&gt;Node2</title>
<path fill="none" stroke="#63b8ff" d="M1846.99,-56.88C1842.31,-56.14 1837.54,-55.48 1833,-55 1599.63,-30.16 851.98,-14.76 666.8,-11.26"/>
<polygon fill="#63b8ff" stroke="#63b8ff" points="666.72,-7.76 656.65,-11.07 666.59,-14.76 666.72,-7.76"/>
</g>
<!-- Node23&#45;&gt;Node22 -->
<g id="edge42" class="edge">
<title>Node23&#45;&gt;Node22</title>
<path fill="none" stroke="#63b8ff" d="M1886.12,-54.75C1890.36,-47.49 1896.53,-36.95 1901.78,-27.98"/>
<polygon fill="#63b8ff" stroke="#63b8ff" points="1904.95,-29.49 1906.98,-19.09 1898.91,-25.95 1904.95,-29.49"/>
</g>
<!-- Node24&#45;&gt;Node16 -->
<g id="edge44" class="edge">
<title>Node24&#45;&gt;Node16</title>
<path fill="none" stroke="#63b8ff" d="M1349.76,-170.5C1362.24,-168.55 1375.59,-166.59 1388,-165 1546.38,-144.75 1589.3,-147.45 1750.98,-129.2"/>
<polygon fill="#63b8ff" stroke="#63b8ff" points="1751.75,-132.63 1761.29,-128.02 1750.96,-125.68 1751.75,-132.63"/>
</g>
<!-- Node24&#45;&gt;Node17 -->
<g id="edge49" class="edge">
<title>Node24&#45;&gt;Node17</title>
<path fill="none" stroke="#63b8ff" d="M1315.38,-170.37C1333.58,-160.78 1363.2,-145.17 1384.45,-133.97"/>
<polygon fill="#63b8ff" stroke="#63b8ff" points="1386.34,-136.93 1393.55,-129.17 1383.08,-130.73 1386.34,-136.93"/>
</g>
<!-- Node24&#45;&gt;Node19 -->
<g id="edge45" class="edge">
<title>Node24&#45;&gt;Node19</title>
<path fill="none" stroke="#63b8ff" d="M1350.39,-170.47C1404.72,-161.31 1493.17,-146.01 1578.51,-129.24"/>
<polygon fill="#63b8ff" stroke="#63b8ff" points="1579.23,-132.66 1588.37,-127.29 1577.88,-125.8 1579.23,-132.66"/>
</g>
<!-- Node24&#45;&gt;Node20 -->
<g id="edge46" class="edge">
<title>Node24&#45;&gt;Node20</title>
<path fill="none" stroke="#63b8ff" d="M1332.01,-170.49C1371.94,-160.2 1439.24,-142.86 1483.14,-131.54"/>
<polygon fill="#63b8ff" stroke="#63b8ff" points="1484.14,-134.9 1492.95,-129.02 1482.4,-128.12 1484.14,-134.9"/>
</g>
<!-- Node24&#45;&gt;Node24 -->
<g id="edge47" class="edge">
<title>Node24&#45;&gt;Node24</title>
<path fill="none" stroke="#63b8ff" d="M1328.54,-189.53C1353.22,-193.61 1379,-190.43 1379,-180 1379,-171 1359.78,-167.4 1338.65,-169.2"/>
<polygon fill="#63b8ff" stroke="#63b8ff" points="1338.03,-165.75 1328.54,-170.47 1338.9,-172.7 1338.03,-165.75"/>
</g>
<!-- Node25 -->
<g id="node25" class="node">
<title>Node25</title>
<g id="a_node25"><a xlink:title=" ">
<polygon fill="#e0e0e0" stroke="#999999" points="1345.5,-74 1252.5,-74 1252.5,-55 1345.5,-55 1345.5,-74"/>
<text text-anchor="middle" x="1299" y="-62" font-family="Helvetica,sans-Serif" font-size="10.00">dpiclimate&#45;12.h</text>
</a>
</g>
</g>
<!-- Node24&#45;&gt;Node25 -->
<g id="edge48" class="edge">
<title>Node24&#45;&gt;Node25</title>
<path fill="none" stroke="#63b8ff" d="M1299,-170.47C1299,-152.23 1299,-109.07 1299,-84.14"/>
<polygon fill="#63b8ff" stroke="#63b8ff" points="1302.5,-84.13 1299,-74.13 1295.5,-84.13 1302.5,-84.13"/>
</g>
<!-- Node26 -->
<g id="node26" class="node">
<title>Node26</title>
<g id="a_node26"><a xlink:href="_utils_8h.html" target="_top" xlink:title=" ">
<polygon fill="white" stroke="#666666" points="1251,-129 1203,-129 1203,-110 1251,-110 1251,-129"/>
<text text-anchor="middle" x="1227" y="-117" font-family="Helvetica,sans-Serif" font-size="10.00">Utils.h</text>
</a>
</g>
</g>
<!-- Node24&#45;&gt;Node26 -->
<g id="edge50" class="edge">
<title>Node24&#45;&gt;Node26</title>
<path fill="none" stroke="#63b8ff" d="M1288.38,-170.37C1277.1,-161.21 1259.08,-146.56 1245.47,-135.51"/>
<polygon fill="#63b8ff" stroke="#63b8ff" points="1247.64,-132.76 1237.67,-129.17 1243.22,-138.19 1247.64,-132.76"/>
</g>
<!-- Node26&#45;&gt;Node25 -->
<g id="edge53" class="edge">
<title>Node26&#45;&gt;Node25</title>
<path fill="none" stroke="#63b8ff" d="M1238.57,-109.98C1249.42,-102 1265.88,-89.88 1278.88,-80.31"/>
<polygon fill="#63b8ff" stroke="#63b8ff" points="1281.24,-82.92 1287.22,-74.17 1277.09,-77.28 1281.24,-82.92"/>
</g>
<!-- Node27 -->
<g id="node27" class="node">
<title>Node27</title>
<g id="a_node27"><a xlink:title=" ">
<polygon fill="#e0e0e0" stroke="#999999" points="1234,-74 1178,-74 1178,-55 1234,-55 1234,-74"/>
<text text-anchor="middle" x="1206" y="-62" font-family="Helvetica,sans-Serif" font-size="10.00">stddef.h</text>
</a>
</g>
</g>
<!-- Node26&#45;&gt;Node27 -->
<g id="edge51" class="edge">
<title>Node26&#45;&gt;Node27</title>
<path fill="none" stroke="#63b8ff" d="M1223.53,-109.75C1220.72,-102.65 1216.66,-92.4 1213.15,-83.56"/>
<polygon fill="#63b8ff" stroke="#63b8ff" points="1216.34,-82.1 1209.4,-74.09 1209.83,-84.68 1216.34,-82.1"/>
</g>
<!-- Node28 -->
<g id="node28" class="node">
<title>Node28</title>
<g id="a_node28"><a xlink:title=" ">
<polygon fill="#e0e0e0" stroke="#999999" points="1132.5,-74 1049.5,-74 1049.5,-55 1132.5,-55 1132.5,-74"/>
<text text-anchor="middle" x="1091" y="-62" font-family="Helvetica,sans-Serif" font-size="10.00">ArduinoJson.h</text>
</a>
</g>
</g>
<!-- Node26&#45;&gt;Node28 -->
<g id="edge52" class="edge">
<title>Node26&#45;&gt;Node28</title>
<path fill="none" stroke="#63b8ff" d="M1205.15,-109.98C1182.88,-101.3 1148.1,-87.75 1122.78,-77.88"/>
<polygon fill="#63b8ff" stroke="#63b8ff" points="1123.84,-74.54 1113.25,-74.17 1121.29,-81.06 1123.84,-74.54"/>
</g>
<!-- Node29&#45;&gt;Node16 -->
<g id="edge55" class="edge">
<title>Node29&#45;&gt;Node16</title>
<path fill="none" stroke="#63b8ff" d="M1666.67,-164.99C1701.01,-154.89 1746.78,-141.44 1778.96,-131.98"/>
<polygon fill="#63b8ff" stroke="#63b8ff" points="1780.3,-135.23 1788.9,-129.05 1778.32,-128.52 1780.3,-135.23"/>
</g>
<!-- Node29&#45;&gt;Node17 -->
<g id="edge58" class="edge">
<title>Node29&#45;&gt;Node17</title>
<path fill="none" stroke="#63b8ff" d="M1568.94,-164.99C1532.71,-154.85 1484.38,-141.32 1450.56,-131.85"/>
<polygon fill="#63b8ff" stroke="#63b8ff" points="1451.13,-128.38 1440.56,-129.05 1449.25,-135.12 1451.13,-128.38"/>
</g>
<!-- Node29&#45;&gt;Node19 -->
<g id="edge56" class="edge">
<title>Node29&#45;&gt;Node19</title>
<path fill="none" stroke="#63b8ff" d="M1619,-164.84C1619,-157.21 1619,-147.7 1619,-139.45"/>
<polygon fill="#63b8ff" stroke="#63b8ff" points="1622.5,-139.27 1619,-129.27 1615.5,-139.27 1622.5,-139.27"/>
</g>
<!-- Node29&#45;&gt;Node20 -->
<g id="edge57" class="edge">
<title>Node29&#45;&gt;Node20</title>
<path fill="none" stroke="#63b8ff" d="M1596.49,-164.84C1581.94,-155.68 1563.07,-143.82 1548.51,-134.66"/>
<polygon fill="#63b8ff" stroke="#63b8ff" points="1549.99,-131.46 1539.66,-129.09 1546.26,-137.38 1549.99,-131.46"/>
</g>
<!-- Node29&#45;&gt;Node21 -->
<g id="edge59" class="edge">
<title>Node29&#45;&gt;Node21</title>
<path fill="none" stroke="#63b8ff" d="M1641.27,-164.84C1655.67,-155.68 1674.33,-143.82 1688.73,-134.66"/>
<polygon fill="#63b8ff" stroke="#63b8ff" points="1690.92,-137.41 1697.48,-129.09 1687.17,-131.51 1690.92,-137.41"/>
</g>
<!-- Node30&#45;&gt;Node16 -->
<g id="edge61" class="edge">
<title>Node30&#45;&gt;Node16</title>
<path fill="none" stroke="#63b8ff" d="M1899.37,-164.99C1882.16,-155.58 1859.6,-143.24 1842.6,-133.95"/>
<polygon fill="#63b8ff" stroke="#63b8ff" points="1844.25,-130.87 1833.8,-129.14 1840.9,-137.01 1844.25,-130.87"/>
</g>
<!-- Node31 -->
<g id="node31" class="node">
<title>Node31</title>
<g id="a_node31"><a xlink:title=" ">
<polygon fill="#e0e0e0" stroke="#999999" points="1947,-129 1903,-129 1903,-110 1947,-110 1947,-129"/>
<text text-anchor="middle" x="1925" y="-117" font-family="Helvetica,sans-Serif" font-size="10.00">string</text>
</a>
</g>
</g>
<!-- Node30&#45;&gt;Node31 -->
<g id="edge62" class="edge">
<title>Node30&#45;&gt;Node31</title>
<path fill="none" stroke="#63b8ff" d="M1925,-164.84C1925,-157.21 1925,-147.7 1925,-139.45"/>
<polygon fill="#63b8ff" stroke="#63b8ff" points="1928.5,-139.27 1925,-129.27 1921.5,-139.27 1928.5,-139.27"/>
</g>
<!-- Node32&#45;&gt;Node16 -->
<g id="edge64" class="edge">
<title>Node32&#45;&gt;Node16</title>
<path fill="none" stroke="#63b8ff" d="M1551.2,-165.87C1613.71,-155.24 1700.51,-140.48 1757.92,-130.72"/>
<polygon fill="#63b8ff" stroke="#63b8ff" points="1758.66,-134.14 1767.93,-129.02 1757.48,-127.24 1758.66,-134.14"/>
</g>
<!-- Node32&#45;&gt;Node17 -->
<g id="edge67" class="edge">
<title>Node32&#45;&gt;Node17</title>
<path fill="none" stroke="#63b8ff" d="M1458.51,-164.84C1449.03,-156.17 1436.89,-145.08 1427.12,-136.15"/>
<polygon fill="#63b8ff" stroke="#63b8ff" points="1429.33,-133.43 1419.59,-129.27 1424.61,-138.6 1429.33,-133.43"/>
</g>
<!-- Node32&#45;&gt;Node19 -->
<g id="edge65" class="edge">
<title>Node32&#45;&gt;Node19</title>
<path fill="none" stroke="#63b8ff" d="M1508.73,-164.99C1532.92,-155.23 1564.9,-142.33 1588.19,-132.93"/>
<polygon fill="#63b8ff" stroke="#63b8ff" points="1589.62,-136.13 1597.59,-129.14 1587,-129.63 1589.62,-136.13"/>
</g>
<!-- Node32&#45;&gt;Node20 -->
<g id="edge66" class="edge">
<title>Node32&#45;&gt;Node20</title>
<path fill="none" stroke="#63b8ff" d="M1486.59,-164.84C1494.06,-156.43 1503.56,-145.74 1511.37,-136.96"/>
<polygon fill="#63b8ff" stroke="#63b8ff" points="1514.18,-139.07 1518.21,-129.27 1508.95,-134.41 1514.18,-139.07"/>
</g>
<!-- Node33 -->
<g id="node33" class="node">
<title>Node33</title>
<g id="a_node33"><a xlink:href="_device_config_8h.html" target="_top" xlink:title="Node configuration options.">
<polygon fill="white" stroke="#666666" points="1047,-129 957,-129 957,-110 1047,-110 1047,-129"/>
<text text-anchor="middle" x="1002" y="-117" font-family="Helvetica,sans-Serif" font-size="10.00">DeviceConfig.h</text>
</a>
</g>
</g>
<!-- Node32&#45;&gt;Node33 -->
<g id="edge68" class="edge">
<title>Node32&#45;&gt;Node33</title>
<path fill="none" stroke="#63b8ff" d="M1396.67,-166.24C1393.74,-165.81 1390.85,-165.4 1388,-165 1270.58,-148.68 1132.47,-133.8 1057.41,-126.07"/>
<polygon fill="#63b8ff" stroke="#63b8ff" points="1057.56,-122.56 1047.25,-125.03 1056.84,-129.53 1057.56,-122.56"/>
</g>
<!-- Node33&#45;&gt;Node2 -->
<g id="edge69" class="edge">
<title>Node33&#45;&gt;Node2</title>
<path fill="none" stroke="#63b8ff" d="M972.1,-109.94C904.6,-90.6 740.38,-43.55 664.56,-21.83"/>
<polygon fill="#63b8ff" stroke="#63b8ff" points="665.48,-18.46 654.9,-19.07 663.55,-25.18 665.48,-18.46"/>
</g>
<!-- Node33&#45;&gt;Node28 -->
<g id="edge70" class="edge">
<title>Node33&#45;&gt;Node28</title>
<path fill="none" stroke="#63b8ff" d="M1016.3,-109.98C1030.1,-101.77 1051.24,-89.18 1067.51,-79.49"/>
<polygon fill="#63b8ff" stroke="#63b8ff" points="1069.64,-82.29 1076.44,-74.17 1066.06,-76.28 1069.64,-82.29"/>
</g>
<!-- Node34&#45;&gt;Node33 -->
<g id="edge72" class="edge">
<title>Node34&#45;&gt;Node33</title>
<path fill="none" stroke="#63b8ff" d="M1090.98,-164.99C1071.98,-155.49 1047.03,-143.02 1028.39,-133.69"/>
<polygon fill="#63b8ff" stroke="#63b8ff" points="1029.79,-130.48 1019.28,-129.14 1026.66,-136.74 1029.79,-130.48"/>
</g>
<!-- Node35&#45;&gt;Node33 -->
<g id="edge74" class="edge">
<title>Node35&#45;&gt;Node33</title>
<path fill="none" stroke="#63b8ff" d="M874.24,-164.99C902.77,-155.05 940.65,-141.86 967.73,-132.43"/>
<polygon fill="#63b8ff" stroke="#63b8ff" points="968.9,-135.73 977.19,-129.14 966.6,-129.12 968.9,-135.73"/>
</g>
<!-- Node36&#45;&gt;Node33 -->
<g id="edge76" class="edge">
<title>Node36&#45;&gt;Node33</title>
<path fill="none" stroke="#63b8ff" d="M980.78,-164.84C984.59,-156.87 989.39,-146.84 993.46,-138.33"/>
<polygon fill="#63b8ff" stroke="#63b8ff" points="996.64,-139.8 997.8,-129.27 990.33,-136.77 996.64,-139.8"/>
</g>
</g>
</svg>
