<?xml version="1.0" encoding="UTF-8" standalone="no"?>
<!DOCTYPE svg PUBLIC "-//W3C//DTD SVG 1.1//EN"
 "http://www.w3.org/Graphics/SVG/1.1/DTD/svg11.dtd">
<!-- Generated by graphviz version 2.43.0 (0)
 -->
<!-- Title: firmware/wombat/src/bluetooth/uart.cpp Pages: 1 -->
<svg width="1962pt" height="434pt"
 viewBox="0.00 0.00 1961.66 434.00" xmlns="http://www.w3.org/2000/svg" xmlns:xlink="http://www.w3.org/1999/xlink">
<g id="graph0" class="graph" transform="scale(1 1) rotate(0) translate(4 430)">
<title>firmware/wombat/src/bluetooth/uart.cpp</title>
<!-- Node1 -->
<g id="node1" class="node">
<title>Node1</title>
<g id="a_node1"><a xlink:title="BluetoothLE UART service setup and handling.">
<polygon fill="#999999" stroke="#666666" points="286.66,-426 166.66,-426 166.66,-396 286.66,-396 286.66,-426"/>
<text text-anchor="start" x="174.66" y="-414" font-family="Helvetica,sans-Serif" font-size="10.00">firmware/wombat/src</text>
<text text-anchor="middle" x="226.66" y="-403" font-family="Helvetica,sans-Serif" font-size="10.00">/bluetooth/uart.cpp</text>
</a>
</g>
</g>
<!-- Node2 -->
<g id="node2" class="node">
<title>Node2</title>
<g id="a_node2"><a xlink:href="uart_8h.html" target="_top" xlink:title="BluetoothLE UART service setup and handling.">
<polygon fill="white" stroke="#666666" points="274.16,-360 179.16,-360 179.16,-341 274.16,-341 274.16,-360"/>
<text text-anchor="middle" x="226.66" y="-348" font-family="Helvetica,sans-Serif" font-size="10.00">bluetooth/uart.h</text>
</a>
</g>
</g>
<!-- Node1&#45;&gt;Node2 -->
<g id="edge1" class="edge">
<title>Node1&#45;&gt;Node2</title>
<path fill="none" stroke="#63b8ff" d="M226.66,-395.84C226.66,-388.21 226.66,-378.7 226.66,-370.45"/>
<polygon fill="#63b8ff" stroke="#63b8ff" points="230.16,-370.27 226.66,-360.27 223.16,-370.27 230.16,-370.27"/>
</g>
<!-- Node3 -->
<g id="node3" class="node">
<title>Node3</title>
<g id="a_node3"><a xlink:title=" ">
<polygon fill="#e0e0e0" stroke="#999999" points="713.16,-19 650.16,-19 650.16,0 713.16,0 713.16,-19"/>
<text text-anchor="middle" x="681.66" y="-7" font-family="Helvetica,sans-Serif" font-size="10.00">Arduino.h</text>
</a>
</g>
</g>
<!-- Node2&#45;&gt;Node3 -->
<g id="edge2" class="edge">
<title>Node2&#45;&gt;Node3</title>
<path fill="none" stroke="#63b8ff" d="M179.09,-344.88C125.38,-338.72 42.47,-326.08 19.66,-305 -1.98,-285.01 0.66,-270.96 0.66,-241.5 0.66,-241.5 0.66,-241.5 0.66,-118.5 0.66,-53.47 491.26,-21.03 639.65,-12.7"/>
<polygon fill="#63b8ff" stroke="#63b8ff" points="639.94,-16.19 649.73,-12.14 639.55,-9.2 639.94,-16.19"/>
</g>
<!-- Node4 -->
<g id="node4" class="node">
<title>Node4</title>
<g id="a_node4"><a xlink:title=" ">
<polygon fill="#e0e0e0" stroke="#999999" points="484.16,-189.5 373.16,-189.5 373.16,-170.5 484.16,-170.5 484.16,-189.5"/>
<text text-anchor="middle" x="428.66" y="-177.5" font-family="Helvetica,sans-Serif" font-size="10.00">BLECharacteristic.h</text>
</a>
</g>
</g>
<!-- Node2&#45;&gt;Node4 -->
<g id="edge3" class="edge">
<title>Node2&#45;&gt;Node4</title>
<path fill="none" stroke="#63b8ff" d="M228.38,-340.97C233.18,-319.39 248.7,-262.11 283.66,-231 298.84,-217.49 347.47,-202.31 384.27,-192.26"/>
<polygon fill="#63b8ff" stroke="#63b8ff" points="385.54,-195.54 394.29,-189.57 383.73,-188.78 385.54,-195.54"/>
</g>
<!-- Node5 -->
<g id="node5" class="node">
<title>Node5</title>
<g id="a_node5"><a xlink:title=" ">
<polygon fill="#e0e0e0" stroke="#999999" points="196.66,-189.5 122.66,-189.5 122.66,-170.5 196.66,-170.5 196.66,-189.5"/>
<text text-anchor="middle" x="159.66" y="-177.5" font-family="Helvetica,sans-Serif" font-size="10.00">BLEServer.h</text>
</a>
</g>
</g>
<!-- Node2&#45;&gt;Node5 -->
<g id="edge4" class="edge">
<title>Node2&#45;&gt;Node5</title>
<path fill="none" stroke="#63b8ff" d="M223.24,-340.91C212.81,-314.67 181.17,-235.11 166.85,-199.08"/>
<polygon fill="#63b8ff" stroke="#63b8ff" points="170.09,-197.77 163.15,-189.77 163.59,-200.36 170.09,-197.77"/>
</g>
<!-- Node6 -->
<g id="node6" class="node">
<title>Node6</title>
<g id="a_node6"><a xlink:title=" ">
<polygon fill="#e0e0e0" stroke="#999999" points="815.66,-189.5 747.66,-189.5 747.66,-170.5 815.66,-170.5 815.66,-189.5"/>
<text text-anchor="middle" x="781.66" y="-177.5" font-family="Helvetica,sans-Serif" font-size="10.00">BLE2902.h</text>
</a>
</g>
</g>
<!-- Node2&#45;&gt;Node6 -->
<g id="edge5" class="edge">
<title>Node2&#45;&gt;Node6</title>
<path fill="none" stroke="#63b8ff" d="M274.5,-348.77C398.64,-345.74 725.8,-330.15 789.66,-250 801.02,-235.75 796.18,-214.28 790.3,-199.08"/>
<polygon fill="#63b8ff" stroke="#63b8ff" points="793.44,-197.51 786.26,-189.72 787.02,-200.29 793.44,-197.51"/>
</g>
<!-- Node7 -->
<g id="node7" class="node">
<title>Node7</title>
<g id="a_node7"><a xlink:href="tones_8h.html" target="_top" xlink:title="Audio control for the onboard piezo buzzer.">
<polygon fill="white" stroke="#666666" points="160.16,-305 29.16,-305 29.16,-286 160.16,-286 160.16,-305"/>
<text text-anchor="middle" x="94.66" y="-293" font-family="Helvetica,sans-Serif" font-size="10.00">audio&#45;feedback/tones.h</text>
</a>
</g>
</g>
<!-- Node2&#45;&gt;Node7 -->
<g id="edge6" class="edge">
<title>Node2&#45;&gt;Node7</title>
<path fill="none" stroke="#63b8ff" d="M205.45,-340.98C183.93,-332.34 150.38,-318.87 125.83,-309.02"/>
<polygon fill="#63b8ff" stroke="#63b8ff" points="126.84,-305.65 116.25,-305.17 124.23,-312.14 126.84,-305.65"/>
</g>
<!-- Node8 -->
<g id="node8" class="node">
<title>Node8</title>
<g id="a_node8"><a xlink:href="server_8h.html" target="_top" xlink:title="Handle the setup and maintenance of the BLE server and connected clients.">
<polygon fill="white" stroke="#666666" points="541.16,-305 436.16,-305 436.16,-286 541.16,-286 541.16,-305"/>
<text text-anchor="middle" x="488.66" y="-293" font-family="Helvetica,sans-Serif" font-size="10.00">bluetooth/server.h</text>
</a>
</g>
</g>
<!-- Node2&#45;&gt;Node8 -->
<g id="edge8" class="edge">
<title>Node2&#45;&gt;Node8</title>
<path fill="none" stroke="#63b8ff" d="M263.64,-340.98C307.3,-331.74 380.2,-316.97 431.21,-307.01"/>
<polygon fill="#63b8ff" stroke="#63b8ff" points="431.96,-310.43 441.1,-305.08 430.62,-303.56 431.96,-310.43"/>
</g>
<!-- Node7&#45;&gt;Node3 -->
<g id="edge7" class="edge">
<title>Node7&#45;&gt;Node3</title>
<path fill="none" stroke="#63b8ff" d="M94.66,-285.96C94.66,-267.05 94.66,-220.21 94.66,-181 94.66,-181 94.66,-181 94.66,-118.5 94.66,-63.01 505.61,-24.77 639.82,-13.76"/>
<polygon fill="#63b8ff" stroke="#63b8ff" points="640.42,-17.22 650.1,-12.93 639.85,-10.25 640.42,-17.22"/>
</g>
<!-- Node8&#45;&gt;Node2 -->
<g id="edge13" class="edge">
<title>Node8&#45;&gt;Node2</title>
<path fill="none" stroke="#63b8ff" d="M451.36,-305.08C407.56,-314.35 334.64,-329.13 283.74,-339.07"/>
<polygon fill="#63b8ff" stroke="#63b8ff" points="283.02,-335.64 273.87,-340.98 284.35,-342.51 283.02,-335.64"/>
</g>
<!-- Node8&#45;&gt;Node5 -->
<g id="edge10" class="edge">
<title>Node8&#45;&gt;Node5</title>
<path fill="none" stroke="#63b8ff" d="M436.06,-287.45C393.91,-280.77 333.75,-268.9 283.66,-250 245.4,-235.57 204.63,-210.85 180.69,-195.24"/>
<polygon fill="#63b8ff" stroke="#63b8ff" points="182.36,-192.15 172.09,-189.56 178.5,-197.99 182.36,-192.15"/>
</g>
<!-- Node8&#45;&gt;Node6 -->
<g id="edge12" class="edge">
<title>Node8&#45;&gt;Node6</title>
<path fill="none" stroke="#63b8ff" d="M541.33,-293.35C613.9,-290.61 739.27,-281.34 770.66,-250 783.65,-237.03 785.12,-215.3 784.16,-199.68"/>
<polygon fill="#63b8ff" stroke="#63b8ff" points="787.63,-199.21 783.16,-189.61 780.67,-199.91 787.63,-199.21"/>
</g>
<!-- Node9 -->
<g id="node9" class="node">
<title>Node9</title>
<g id="a_node9"><a xlink:title=" ">
<polygon fill="#e0e0e0" stroke="#999999" points="370.16,-250 293.16,-250 293.16,-231 370.16,-231 370.16,-250"/>
<text text-anchor="middle" x="331.66" y="-238" font-family="Helvetica,sans-Serif" font-size="10.00">BLEDevice.h</text>
</a>
</g>
</g>
<!-- Node8&#45;&gt;Node9 -->
<g id="edge9" class="edge">
<title>Node8&#45;&gt;Node9</title>
<path fill="none" stroke="#63b8ff" d="M463.43,-285.98C437.3,-277.16 396.26,-263.31 366.93,-253.41"/>
<polygon fill="#63b8ff" stroke="#63b8ff" points="367.68,-249.96 357.08,-250.08 365.44,-256.6 367.68,-249.96"/>
</g>
<!-- Node10 -->
<g id="node10" class="node">
<title>Node10</title>
<g id="a_node10"><a xlink:title=" ">
<polygon fill="#e0e0e0" stroke="#999999" points="454.66,-250 388.66,-250 388.66,-231 454.66,-231 454.66,-250"/>
<text text-anchor="middle" x="421.66" y="-238" font-family="Helvetica,sans-Serif" font-size="10.00">BLEUtils.h</text>
</a>
</g>
</g>
<!-- Node8&#45;&gt;Node10 -->
<g id="edge11" class="edge">
<title>Node8&#45;&gt;Node10</title>
<path fill="none" stroke="#63b8ff" d="M477.89,-285.98C467.89,-278.07 452.77,-266.11 440.73,-256.58"/>
<polygon fill="#63b8ff" stroke="#63b8ff" points="442.63,-253.63 432.62,-250.17 438.29,-259.12 442.63,-253.63"/>
</g>
<!-- Node11 -->
<g id="node11" class="node">
<title>Node11</title>
<g id="a_node11"><a xlink:href="device_8h.html" target="_top" xlink:title="Bluetooth device services and device information.">
<polygon fill="white" stroke="#666666" points="762.16,-250 655.16,-250 655.16,-231 762.16,-231 762.16,-250"/>
<text text-anchor="middle" x="708.66" y="-238" font-family="Helvetica,sans-Serif" font-size="10.00">bluetooth/device.h</text>
</a>
</g>
</g>
<!-- Node8&#45;&gt;Node11 -->
<g id="edge14" class="edge">
<title>Node8&#45;&gt;Node11</title>
<path fill="none" stroke="#63b8ff" d="M524.01,-285.98C561.82,-276.87 621.92,-262.4 663.23,-252.45"/>
<polygon fill="#63b8ff" stroke="#63b8ff" points="664.13,-255.83 673.04,-250.08 662.49,-249.02 664.13,-255.83"/>
</g>
<!-- Node12 -->
<g id="node12" class="node">
<title>Node12</title>
<g id="a_node12"><a xlink:href="power__monitoring_8h.html" target="_top" xlink:title="Setup BluetoothLE power monitoring information.">
<polygon fill="white" stroke="#666666" points="636.66,-250 472.66,-250 472.66,-231 636.66,-231 636.66,-250"/>
<text text-anchor="middle" x="554.66" y="-238" font-family="Helvetica,sans-Serif" font-size="10.00">bluetooth/power_monitoring.h</text>
</a>
</g>
</g>
<!-- Node8&#45;&gt;Node12 -->
<g id="edge19" class="edge">
<title>Node8&#45;&gt;Node12</title>
<path fill="none" stroke="#63b8ff" d="M499.26,-285.98C509.12,-278.07 524.01,-266.11 535.87,-256.58"/>
<polygon fill="#63b8ff" stroke="#63b8ff" points="538.26,-259.16 543.86,-250.17 533.87,-253.7 538.26,-259.16"/>
</g>
<!-- Node16 -->
<g id="node16" class="node">
<title>Node16</title>
<g id="a_node16"><a xlink:href="_c_l_i_8h.html" target="_top" xlink:title=" ">
<polygon fill="white" stroke="#666666" points="1251.16,-250 1196.16,-250 1196.16,-231 1251.16,-231 1251.16,-250"/>
<text text-anchor="middle" x="1223.66" y="-238" font-family="Helvetica,sans-Serif" font-size="10.00">cli/CLI.h</text>
</a>
</g>
</g>
<!-- Node8&#45;&gt;Node16 -->
<g id="edge30" class="edge">
<title>Node8&#45;&gt;Node16</title>
<path fill="none" stroke="#63b8ff" d="M541.22,-290.71C681.71,-280.58 1063.52,-253.05 1185.59,-244.25"/>
<polygon fill="#63b8ff" stroke="#63b8ff" points="1186.2,-247.71 1195.92,-243.5 1185.69,-240.73 1186.2,-247.71"/>
</g>
<!-- Node11&#45;&gt;Node3 -->
<g id="edge15" class="edge">
<title>Node11&#45;&gt;Node3</title>
<path fill="none" stroke="#63b8ff" d="M708.76,-230.95C708.94,-204.52 708.35,-121.88 695.66,-55 694,-46.25 691.18,-36.8 688.5,-28.87"/>
<polygon fill="#63b8ff" stroke="#63b8ff" points="691.72,-27.46 685.07,-19.21 685.12,-29.8 691.72,-27.46"/>
</g>
<!-- Node11&#45;&gt;Node4 -->
<g id="edge16" class="edge">
<title>Node11&#45;&gt;Node4</title>
<path fill="none" stroke="#63b8ff" d="M666.41,-230.95C622.84,-222.11 552.96,-207.81 492.66,-195 487.64,-193.93 482.41,-192.81 477.19,-191.68"/>
<polygon fill="#63b8ff" stroke="#63b8ff" points="477.74,-188.22 467.22,-189.52 476.25,-195.06 477.74,-188.22"/>
</g>
<!-- Node11&#45;&gt;Node5 -->
<g id="edge17" class="edge">
<title>Node11&#45;&gt;Node5</title>
<path fill="none" stroke="#63b8ff" d="M655.07,-232.07C651.89,-231.69 648.73,-231.33 645.66,-231 450.59,-209.88 398.39,-231.77 205.66,-195 201.8,-194.26 197.81,-193.33 193.86,-192.29"/>
<polygon fill="#63b8ff" stroke="#63b8ff" points="194.82,-188.92 184.24,-189.54 192.9,-195.65 194.82,-188.92"/>
</g>
<!-- Node11&#45;&gt;Node6 -->
<g id="edge18" class="edge">
<title>Node11&#45;&gt;Node6</title>
<path fill="none" stroke="#63b8ff" d="M719.43,-230.87C730.86,-221.71 749.14,-207.06 762.93,-196.01"/>
<polygon fill="#63b8ff" stroke="#63b8ff" points="765.23,-198.65 770.84,-189.67 760.85,-193.19 765.23,-198.65"/>
</g>
<!-- Node12&#45;&gt;Node3 -->
<g id="edge20" class="edge">
<title>Node12&#45;&gt;Node3</title>
<path fill="none" stroke="#63b8ff" d="M602.84,-230.98C624.2,-224.67 647.62,-213.77 661.66,-195 698.93,-145.18 691.35,-65.55 685.38,-29.42"/>
<polygon fill="#63b8ff" stroke="#63b8ff" points="688.78,-28.53 683.56,-19.31 681.89,-29.77 688.78,-28.53"/>
</g>
<!-- Node12&#45;&gt;Node4 -->
<g id="edge21" class="edge">
<title>Node12&#45;&gt;Node4</title>
<path fill="none" stroke="#63b8ff" d="M536.34,-230.99C515.25,-221.2 480.4,-205.02 456.08,-193.73"/>
<polygon fill="#63b8ff" stroke="#63b8ff" points="457.55,-190.55 447,-189.52 454.6,-196.9 457.55,-190.55"/>
</g>
<!-- Node12&#45;&gt;Node5 -->
<g id="edge22" class="edge">
<title>Node12&#45;&gt;Node5</title>
<path fill="none" stroke="#63b8ff" d="M475.53,-230.98C388.85,-221.37 255.53,-205.69 205.66,-195 202.21,-194.26 198.64,-193.38 195.09,-192.43"/>
<polygon fill="#63b8ff" stroke="#63b8ff" points="195.82,-189 185.25,-189.62 193.9,-195.73 195.82,-189"/>
</g>
<!-- Node12&#45;&gt;Node6 -->
<g id="edge23" class="edge">
<title>Node12&#45;&gt;Node6</title>
<path fill="none" stroke="#63b8ff" d="M587.67,-230.99C627.59,-220.7 694.9,-203.36 738.8,-192.04"/>
<polygon fill="#63b8ff" stroke="#63b8ff" points="739.8,-195.4 748.61,-189.52 738.05,-188.62 739.8,-195.4"/>
</g>
<!-- Node13 -->
<g id="node13" class="node">
<title>Node13</title>
<g id="a_node13"><a xlink:href="solar_8h.html" target="_top" xlink:title="Solar voltage and current monitoring using INA219 IC.">
<polygon fill="white" stroke="#666666" points="354.66,-189.5 214.66,-189.5 214.66,-170.5 354.66,-170.5 354.66,-189.5"/>
<text text-anchor="middle" x="284.66" y="-177.5" font-family="Helvetica,sans-Serif" font-size="10.00">power_monitoring/solar.h</text>
</a>
</g>
</g>
<!-- Node12&#45;&gt;Node13 -->
<g id="edge24" class="edge">
<title>Node12&#45;&gt;Node13</title>
<path fill="none" stroke="#63b8ff" d="M515.4,-230.99C467.41,-220.6 386.16,-202.99 333.99,-191.69"/>
<polygon fill="#63b8ff" stroke="#63b8ff" points="334.48,-188.21 323.97,-189.52 333,-195.05 334.48,-188.21"/>
</g>
<!-- Node15 -->
<g id="node15" class="node">
<title>Node15</title>
<g id="a_node15"><a xlink:href="battery_8h.html" target="_top" xlink:title="Battery voltage and current monitoring using INA219 IC.">
<polygon fill="white" stroke="#666666" points="653.16,-189.5 502.16,-189.5 502.16,-170.5 653.16,-170.5 653.16,-189.5"/>
<text text-anchor="middle" x="577.66" y="-177.5" font-family="Helvetica,sans-Serif" font-size="10.00">power_monitoring/battery.h</text>
</a>
</g>
</g>
<!-- Node12&#45;&gt;Node15 -->
<g id="edge27" class="edge">
<title>Node12&#45;&gt;Node15</title>
<path fill="none" stroke="#63b8ff" d="M558.05,-230.87C561.31,-222.57 566.35,-209.78 570.49,-199.22"/>
<polygon fill="#63b8ff" stroke="#63b8ff" points="573.85,-200.25 574.25,-189.67 567.34,-197.69 573.85,-200.25"/>
</g>
<!-- Node13&#45;&gt;Node3 -->
<g id="edge25" class="edge">
<title>Node13&#45;&gt;Node3</title>
<path fill="none" stroke="#63b8ff" d="M301.07,-170.49C327.31,-157.01 380.45,-130.2 426.66,-110 505.07,-75.72 599.36,-40.43 648.38,-22.51"/>
<polygon fill="#63b8ff" stroke="#63b8ff" points="649.65,-25.78 657.85,-19.06 647.25,-19.2 649.65,-25.78"/>
</g>
<!-- Node14 -->
<g id="node14" class="node">
<title>Node14</title>
<g id="a_node14"><a xlink:title=" ">
<polygon fill="#e0e0e0" stroke="#999999" points="541.16,-129 436.16,-129 436.16,-110 541.16,-110 541.16,-129"/>
<text text-anchor="middle" x="488.66" y="-117" font-family="Helvetica,sans-Serif" font-size="10.00">Adafruit_INA219.h</text>
</a>
</g>
</g>
<!-- Node13&#45;&gt;Node14 -->
<g id="edge26" class="edge">
<title>Node13&#45;&gt;Node14</title>
<path fill="none" stroke="#63b8ff" d="M314.32,-170.49C349.9,-160.29 409.68,-143.15 449.14,-131.83"/>
<polygon fill="#63b8ff" stroke="#63b8ff" points="450.31,-135.14 458.96,-129.02 448.38,-128.41 450.31,-135.14"/>
</g>
<!-- Node15&#45;&gt;Node3 -->
<g id="edge28" class="edge">
<title>Node15&#45;&gt;Node3</title>
<path fill="none" stroke="#63b8ff" d="M582.96,-170.41C599.23,-144.05 648.68,-63.93 670.79,-28.12"/>
<polygon fill="#63b8ff" stroke="#63b8ff" points="673.97,-29.62 676.24,-19.27 668.01,-25.94 673.97,-29.62"/>
</g>
<!-- Node15&#45;&gt;Node14 -->
<g id="edge29" class="edge">
<title>Node15&#45;&gt;Node14</title>
<path fill="none" stroke="#63b8ff" d="M564.53,-170.37C550.33,-161.04 527.46,-146.01 510.54,-134.88"/>
<polygon fill="#63b8ff" stroke="#63b8ff" points="512.12,-131.74 501.85,-129.17 508.28,-137.58 512.12,-131.74"/>
</g>
<!-- Node16&#45;&gt;Node3 -->
<g id="edge31" class="edge">
<title>Node16&#45;&gt;Node3</title>
<path fill="none" stroke="#63b8ff" d="M1196.02,-238.44C1122.09,-235.23 921.4,-224.02 862.66,-195 841.82,-184.71 736.16,-70.23 696.62,-26.94"/>
<polygon fill="#63b8ff" stroke="#63b8ff" points="698.96,-24.32 689.64,-19.29 693.79,-29.03 698.96,-24.32"/>
</g>
<!-- Node17 -->
<g id="node17" class="node">
<title>Node17</title>
<g id="a_node17"><a xlink:title=" ">
<polygon fill="#e0e0e0" stroke="#999999" points="1717.16,-129 1604.16,-129 1604.16,-110 1717.16,-110 1717.16,-129"/>
<text text-anchor="middle" x="1660.66" y="-117" font-family="Helvetica,sans-Serif" font-size="10.00">freertos/FreeRTOS.h</text>
</a>
</g>
</g>
<!-- Node16&#45;&gt;Node17 -->
<g id="edge32" class="edge">
<title>Node16&#45;&gt;Node17</title>
<path fill="none" stroke="#63b8ff" d="M1251.39,-239.64C1365.47,-239.94 1794.51,-238.18 1834.66,-195 1871.14,-155.77 1790.59,-136.29 1727.27,-127.32"/>
<polygon fill="#63b8ff" stroke="#63b8ff" points="1727.66,-123.84 1717.28,-125.97 1726.72,-130.77 1727.66,-123.84"/>
</g>
<!-- Node18 -->
<g id="node18" class="node">
<title>Node18</title>
<g id="a_node18"><a xlink:title=" ">
<polygon fill="#e0e0e0" stroke="#999999" points="1317.16,-129 1210.16,-129 1210.16,-110 1317.16,-110 1317.16,-129"/>
<text text-anchor="middle" x="1263.66" y="-117" font-family="Helvetica,sans-Serif" font-size="10.00">cli/FreeRTOS_CLI.h</text>
</a>
</g>
</g>
<!-- Node16&#45;&gt;Node18 -->
<g id="edge33" class="edge">
<title>Node16&#45;&gt;Node18</title>
<path fill="none" stroke="#63b8ff" d="M1214.72,-230.98C1201.03,-216.87 1177.78,-187.94 1190.66,-165 1198.77,-150.56 1213.67,-140.26 1227.91,-133.22"/>
<polygon fill="#63b8ff" stroke="#63b8ff" points="1229.43,-136.38 1237.09,-129.06 1226.54,-130 1229.43,-136.38"/>
</g>
<!-- Node19 -->
<g id="node19" class="node">
<title>Node19</title>
<g id="a_node19"><a xlink:href="cat-m1_8h.html" target="_top" xlink:title=" ">
<polygon fill="white" stroke="#666666" points="1503.66,-189.5 1371.66,-189.5 1371.66,-170.5 1503.66,-170.5 1503.66,-189.5"/>
<text text-anchor="middle" x="1437.66" y="-177.5" font-family="Helvetica,sans-Serif" font-size="10.00">cli/peripherals/cat&#45;m1.h</text>
</a>
</g>
</g>
<!-- Node16&#45;&gt;Node19 -->
<g id="edge34" class="edge">
<title>Node16&#45;&gt;Node19</title>
<path fill="none" stroke="#63b8ff" d="M1251.2,-231.97C1288.09,-221.89 1353.85,-203.91 1396.6,-192.22"/>
<polygon fill="#63b8ff" stroke="#63b8ff" points="1397.69,-195.56 1406.41,-189.54 1395.84,-188.8 1397.69,-195.56"/>
</g>
<!-- Node25 -->
<g id="node25" class="node">
<title>Node25</title>
<g id="a_node25"><a xlink:href="sdi12_8h.html" target="_top" xlink:title=" ">
<polygon fill="white" stroke="#666666" points="1807.66,-189.5 1683.66,-189.5 1683.66,-170.5 1807.66,-170.5 1807.66,-189.5"/>
<text text-anchor="middle" x="1745.66" y="-177.5" font-family="Helvetica,sans-Serif" font-size="10.00">cli/peripherals/sdi12.h</text>
</a>
</g>
</g>
<!-- Node16&#45;&gt;Node25 -->
<g id="edge44" class="edge">
<title>Node16&#45;&gt;Node25</title>
<path fill="none" stroke="#63b8ff" d="M1251.23,-237.71C1321.88,-232.92 1515.1,-218.55 1674.66,-195 1681.51,-193.99 1688.7,-192.77 1695.76,-191.47"/>
<polygon fill="#63b8ff" stroke="#63b8ff" points="1696.8,-194.83 1705.97,-189.53 1695.49,-187.95 1696.8,-194.83"/>
</g>
<!-- Node30 -->
<g id="node30" class="node">
<title>Node30</title>
<g id="a_node30"><a xlink:href="bluetooth_8h.html" target="_top" xlink:title=" ">
<polygon fill="white" stroke="#666666" points="1665.66,-189.5 1521.66,-189.5 1521.66,-170.5 1665.66,-170.5 1665.66,-189.5"/>
<text text-anchor="middle" x="1593.66" y="-177.5" font-family="Helvetica,sans-Serif" font-size="10.00">cli/peripherals/bluetooth.h</text>
</a>
</g>
</g>
<!-- Node16&#45;&gt;Node30 -->
<g id="edge55" class="edge">
<title>Node16&#45;&gt;Node30</title>
<path fill="none" stroke="#63b8ff" d="M1251.18,-235.43C1302.6,-227.8 1416.72,-210.68 1512.66,-195 1520,-193.8 1527.72,-192.51 1535.34,-191.21"/>
<polygon fill="#63b8ff" stroke="#63b8ff" points="1536.02,-194.65 1545.28,-189.51 1534.84,-187.75 1536.02,-194.65"/>
</g>
<!-- Node31 -->
<g id="node31" class="node">
<title>Node31</title>
<g id="a_node31"><a xlink:href="acquisition__intervals_8h.html" target="_top" xlink:title="Handles the time between measurements and uplinks by the device over LTE.">
<polygon fill="white" stroke="#666666" points="1353.66,-195 1199.66,-195 1199.66,-165 1353.66,-165 1353.66,-195"/>
<text text-anchor="start" x="1207.66" y="-183" font-family="Helvetica,sans-Serif" font-size="10.00">cli/device_config/acquisition</text>
<text text-anchor="middle" x="1276.66" y="-172" font-family="Helvetica,sans-Serif" font-size="10.00">_intervals.h</text>
</a>
</g>
</g>
<!-- Node16&#45;&gt;Node31 -->
<g id="edge60" class="edge">
<title>Node16&#45;&gt;Node31</title>
<path fill="none" stroke="#63b8ff" d="M1231.48,-230.87C1238.2,-223.44 1248.2,-212.42 1257.07,-202.62"/>
<polygon fill="#63b8ff" stroke="#63b8ff" points="1259.75,-204.88 1263.87,-195.11 1254.56,-200.18 1259.75,-204.88"/>
</g>
<!-- Node34 -->
<g id="node34" class="node">
<title>Node34</title>
<g id="a_node34"><a xlink:href="mqtt__cli_8h.html" target="_top" xlink:title=" ">
<polygon fill="white" stroke="#666666" points="1143.66,-195 1019.66,-195 1019.66,-165 1143.66,-165 1143.66,-195"/>
<text text-anchor="start" x="1027.66" y="-183" font-family="Helvetica,sans-Serif" font-size="10.00">cli/device_config/mqtt</text>
<text text-anchor="middle" x="1081.66" y="-172" font-family="Helvetica,sans-Serif" font-size="10.00">_cli.h</text>
</a>
</g>
</g>
<!-- Node16&#45;&gt;Node34 -->
<g id="edge68" class="edge">
<title>Node16&#45;&gt;Node34</title>
<path fill="none" stroke="#63b8ff" d="M1203.01,-230.99C1182.66,-222.61 1150.95,-209.55 1125.05,-198.87"/>
<polygon fill="#63b8ff" stroke="#63b8ff" points="1126.38,-195.64 1115.8,-195.06 1123.71,-202.11 1126.38,-195.64"/>
</g>
<!-- Node35 -->
<g id="node35" class="node">
<title>Node35</title>
<g id="a_node35"><a xlink:href="config__cli_8h.html" target="_top" xlink:title=" ">
<polygon fill="white" stroke="#666666" points="1001.66,-195 871.66,-195 871.66,-165 1001.66,-165 1001.66,-195"/>
<text text-anchor="start" x="879.66" y="-183" font-family="Helvetica,sans-Serif" font-size="10.00">cli/device_config/config</text>
<text text-anchor="middle" x="936.66" y="-172" font-family="Helvetica,sans-Serif" font-size="10.00">_cli.h</text>
</a>
</g>
</g>
<!-- Node16&#45;&gt;Node35 -->
<g id="edge70" class="edge">
<title>Node16&#45;&gt;Node35</title>
<path fill="none" stroke="#63b8ff" d="M1196.14,-233.89C1154.08,-225.32 1072.3,-208.65 1011.75,-196.31"/>
<polygon fill="#63b8ff" stroke="#63b8ff" points="1012.34,-192.85 1001.84,-194.29 1010.94,-199.71 1012.34,-192.85"/>
</g>
<!-- Node19&#45;&gt;Node17 -->
<g id="edge35" class="edge">
<title>Node19&#45;&gt;Node17</title>
<path fill="none" stroke="#63b8ff" d="M1470.09,-170.49C1509.23,-160.23 1575.15,-142.93 1618.29,-131.62"/>
<polygon fill="#63b8ff" stroke="#63b8ff" points="1619.41,-134.94 1628.19,-129.02 1617.63,-128.17 1619.41,-134.94"/>
</g>
<!-- Node19&#45;&gt;Node18 -->
<g id="edge38" class="edge">
<title>Node19&#45;&gt;Node18</title>
<path fill="none" stroke="#63b8ff" d="M1412.36,-170.49C1382.46,-160.44 1332.54,-143.66 1298.88,-132.34"/>
<polygon fill="#63b8ff" stroke="#63b8ff" points="1299.58,-128.89 1288.99,-129.02 1297.35,-135.52 1299.58,-128.89"/>
</g>
<!-- Node20 -->
<g id="node20" class="node">
<title>Node20</title>
<g id="a_node20"><a xlink:title=" ">
<polygon fill="#e0e0e0" stroke="#999999" points="1586.16,-129 1525.16,-129 1525.16,-110 1586.16,-110 1586.16,-129"/>
<text text-anchor="middle" x="1555.66" y="-117" font-family="Helvetica,sans-Serif" font-size="10.00">Stream.h</text>
</a>
</g>
</g>
<!-- Node19&#45;&gt;Node20 -->
<g id="edge36" class="edge">
<title>Node19&#45;&gt;Node20</title>
<path fill="none" stroke="#63b8ff" d="M1454.82,-170.49C1474.39,-160.79 1506.63,-144.81 1529.38,-133.53"/>
<polygon fill="#63b8ff" stroke="#63b8ff" points="1531.08,-136.59 1538.48,-129.02 1527.97,-130.32 1531.08,-136.59"/>
</g>
<!-- Node21 -->
<g id="node21" class="node">
<title>Node21</title>
<g id="a_node21"><a xlink:title=" ">
<polygon fill="#e0e0e0" stroke="#999999" points="1507.16,-129 1418.16,-129 1418.16,-110 1507.16,-110 1507.16,-129"/>
<text text-anchor="middle" x="1462.66" y="-117" font-family="Helvetica,sans-Serif" font-size="10.00">StreamString.h</text>
</a>
</g>
</g>
<!-- Node19&#45;&gt;Node21 -->
<g id="edge37" class="edge">
<title>Node19&#45;&gt;Node21</title>
<path fill="none" stroke="#63b8ff" d="M1441.35,-170.37C1444.93,-161.99 1450.48,-149.01 1455.01,-138.39"/>
<polygon fill="#63b8ff" stroke="#63b8ff" points="1458.24,-139.74 1458.96,-129.17 1451.81,-136.99 1458.24,-139.74"/>
</g>
<!-- Node22 -->
<g id="node22" class="node">
<title>Node22</title>
<g id="a_node22"><a xlink:href="_c_a_t___m1_8h.html" target="_top" xlink:title=" ">
<polygon fill="white" stroke="#666666" points="1400.16,-129 1335.16,-129 1335.16,-110 1400.16,-110 1400.16,-129"/>
<text text-anchor="middle" x="1367.66" y="-117" font-family="Helvetica,sans-Serif" font-size="10.00">CAT_M1.h</text>
</a>
</g>
</g>
<!-- Node19&#45;&gt;Node22 -->
<g id="edge39" class="edge">
<title>Node19&#45;&gt;Node22</title>
<path fill="none" stroke="#63b8ff" d="M1427.33,-170.37C1416.47,-161.3 1399.17,-146.84 1385.99,-135.82"/>
<polygon fill="#63b8ff" stroke="#63b8ff" points="1387.95,-132.89 1378.03,-129.17 1383.46,-138.27 1387.95,-132.89"/>
</g>
<!-- Node23 -->
<g id="node23" class="node">
<title>Node23</title>
<g id="a_node23"><a xlink:title=" ">
<polygon fill="#e0e0e0" stroke="#999999" points="1360.66,-19 1312.66,-19 1312.66,0 1360.66,0 1360.66,-19"/>
<text text-anchor="middle" x="1336.66" y="-7" font-family="Helvetica,sans-Serif" font-size="10.00">Wire.h</text>
</a>
</g>
</g>
<!-- Node22&#45;&gt;Node23 -->
<g id="edge40" class="edge">
<title>Node22&#45;&gt;Node23</title>
<path fill="none" stroke="#63b8ff" d="M1365.12,-109.66C1360.08,-92.09 1348.7,-52.45 1341.96,-28.95"/>
<polygon fill="#63b8ff" stroke="#63b8ff" points="1345.27,-27.8 1339.14,-19.16 1338.54,-29.74 1345.27,-27.8"/>
</g>
<!-- Node24 -->
<g id="node24" class="node">
<title>Node24</title>
<g id="a_node24"><a xlink:href="_t_c_a9534_8h.html" target="_top" xlink:title=" ">
<polygon fill="white" stroke="#666666" points="1339.66,-74 1271.66,-74 1271.66,-55 1339.66,-55 1339.66,-74"/>
<text text-anchor="middle" x="1305.66" y="-62" font-family="Helvetica,sans-Serif" font-size="10.00">TCA9534.h</text>
</a>
</g>
</g>
<!-- Node22&#45;&gt;Node24 -->
<g id="edge41" class="edge">
<title>Node22&#45;&gt;Node24</title>
<path fill="none" stroke="#63b8ff" d="M1357.7,-109.98C1348.53,-102.15 1334.72,-90.34 1323.63,-80.86"/>
<polygon fill="#63b8ff" stroke="#63b8ff" points="1325.68,-78.01 1315.8,-74.17 1321.13,-83.33 1325.68,-78.01"/>
</g>
<!-- Node24&#45;&gt;Node3 -->
<g id="edge42" class="edge">
<title>Node24&#45;&gt;Node3</title>
<path fill="none" stroke="#63b8ff" d="M1271.22,-60.57C1164.56,-51.52 839.88,-23.94 723.62,-14.06"/>
<polygon fill="#63b8ff" stroke="#63b8ff" points="723.62,-10.55 713.36,-13.19 723.03,-17.53 723.62,-10.55"/>
</g>
<!-- Node24&#45;&gt;Node23 -->
<g id="edge43" class="edge">
<title>Node24&#45;&gt;Node23</title>
<path fill="none" stroke="#63b8ff" d="M1310.78,-54.75C1315.02,-47.49 1321.19,-36.95 1326.43,-27.98"/>
<polygon fill="#63b8ff" stroke="#63b8ff" points="1329.61,-29.49 1331.64,-19.09 1323.57,-25.95 1329.61,-29.49"/>
</g>
<!-- Node25&#45;&gt;Node17 -->
<g id="edge45" class="edge">
<title>Node25&#45;&gt;Node17</title>
<path fill="none" stroke="#63b8ff" d="M1733.12,-170.37C1719.56,-161.04 1697.72,-146.01 1681.56,-134.88"/>
<polygon fill="#63b8ff" stroke="#63b8ff" points="1683.47,-131.95 1673.25,-129.17 1679.51,-137.72 1683.47,-131.95"/>
</g>
<!-- Node25&#45;&gt;Node18 -->
<g id="edge50" class="edge">
<title>Node25&#45;&gt;Node18</title>
<path fill="none" stroke="#63b8ff" d="M1705.59,-170.43C1695.53,-168.47 1684.72,-166.51 1674.66,-165 1524.19,-142.43 1482.82,-147.18 1327.65,-129.07"/>
<polygon fill="#63b8ff" stroke="#63b8ff" points="1327.6,-125.54 1317.26,-127.85 1326.78,-132.5 1327.6,-125.54"/>
</g>
<!-- Node25&#45;&gt;Node20 -->
<g id="edge46" class="edge">
<title>Node25&#45;&gt;Node20</title>
<path fill="none" stroke="#63b8ff" d="M1718.03,-170.49C1685.1,-160.36 1629.93,-143.37 1593.17,-132.05"/>
<polygon fill="#63b8ff" stroke="#63b8ff" points="1593.91,-128.61 1583.32,-129.02 1591.85,-135.3 1593.91,-128.61"/>
</g>
<!-- Node25&#45;&gt;Node21 -->
<g id="edge47" class="edge">
<title>Node25&#45;&gt;Node21</title>
<path fill="none" stroke="#63b8ff" d="M1704.51,-170.49C1654,-160.05 1568.34,-142.35 1513.69,-131.05"/>
<polygon fill="#63b8ff" stroke="#63b8ff" points="1514.36,-127.61 1503.86,-129.02 1512.94,-134.47 1514.36,-127.61"/>
</g>
<!-- Node25&#45;&gt;Node25 -->
<g id="edge48" class="edge">
<title>Node25&#45;&gt;Node25</title>
<path fill="none" stroke="#63b8ff" d="M1775.2,-189.53C1799.87,-193.61 1825.66,-190.43 1825.66,-180 1825.66,-171 1806.44,-167.4 1785.31,-169.2"/>
<polygon fill="#63b8ff" stroke="#63b8ff" points="1784.69,-165.75 1775.2,-170.47 1785.55,-172.7 1784.69,-165.75"/>
</g>
<!-- Node26 -->
<g id="node26" class="node">
<title>Node26</title>
<g id="a_node26"><a xlink:title=" ">
<polygon fill="#e0e0e0" stroke="#999999" points="1778.16,-74 1685.16,-74 1685.16,-55 1778.16,-55 1778.16,-74"/>
<text text-anchor="middle" x="1731.66" y="-62" font-family="Helvetica,sans-Serif" font-size="10.00">dpiclimate&#45;12.h</text>
</a>
</g>
</g>
<!-- Node25&#45;&gt;Node26 -->
<g id="edge49" class="edge">
<title>Node25&#45;&gt;Node26</title>
<path fill="none" stroke="#63b8ff" d="M1744.61,-170.47C1742.36,-152.23 1737.03,-109.07 1733.96,-84.14"/>
<polygon fill="#63b8ff" stroke="#63b8ff" points="1737.42,-83.63 1732.72,-74.13 1730.47,-84.48 1737.42,-83.63"/>
</g>
<!-- Node27 -->
<g id="node27" class="node">
<title>Node27</title>
<g id="a_node27"><a xlink:href="_utils_8h.html" target="_top" xlink:title=" ">
<polygon fill="white" stroke="#666666" points="1848.66,-129 1800.66,-129 1800.66,-110 1848.66,-110 1848.66,-129"/>
<text text-anchor="middle" x="1824.66" y="-117" font-family="Helvetica,sans-Serif" font-size="10.00">Utils.h</text>
</a>
</g>
</g>
<!-- Node25&#45;&gt;Node27 -->
<g id="edge51" class="edge">
<title>Node25&#45;&gt;Node27</title>
<path fill="none" stroke="#63b8ff" d="M1757.32,-170.37C1769.8,-161.12 1789.84,-146.28 1804.82,-135.19"/>
<polygon fill="#63b8ff" stroke="#63b8ff" points="1807,-137.93 1812.95,-129.17 1802.84,-132.31 1807,-137.93"/>
</g>
<!-- Node27&#45;&gt;Node26 -->
<g id="edge54" class="edge">
<title>Node27&#45;&gt;Node26</title>
<path fill="none" stroke="#63b8ff" d="M1809.72,-109.98C1795.16,-101.69 1772.79,-88.94 1755.73,-79.22"/>
<polygon fill="#63b8ff" stroke="#63b8ff" points="1757.29,-76.08 1746.87,-74.17 1753.83,-82.16 1757.29,-76.08"/>
</g>
<!-- Node28 -->
<g id="node28" class="node">
<title>Node28</title>
<g id="a_node28"><a xlink:title=" ">
<polygon fill="#e0e0e0" stroke="#999999" points="1953.66,-74 1897.66,-74 1897.66,-55 1953.66,-55 1953.66,-74"/>
<text text-anchor="middle" x="1925.66" y="-62" font-family="Helvetica,sans-Serif" font-size="10.00">stddef.h</text>
</a>
</g>
</g>
<!-- Node27&#45;&gt;Node28 -->
<g id="edge52" class="edge">
<title>Node27&#45;&gt;Node28</title>
<path fill="none" stroke="#63b8ff" d="M1840.89,-109.98C1856.84,-101.61 1881.44,-88.7 1900.04,-78.95"/>
<polygon fill="#63b8ff" stroke="#63b8ff" points="1901.91,-81.92 1909.14,-74.17 1898.66,-75.72 1901.91,-81.92"/>
</g>
<!-- Node29 -->
<g id="node29" class="node">
<title>Node29</title>
<g id="a_node29"><a xlink:title=" ">
<polygon fill="#e0e0e0" stroke="#999999" points="1879.16,-74 1796.16,-74 1796.16,-55 1879.16,-55 1879.16,-74"/>
<text text-anchor="middle" x="1837.66" y="-62" font-family="Helvetica,sans-Serif" font-size="10.00">ArduinoJson.h</text>
</a>
</g>
</g>
<!-- Node27&#45;&gt;Node29 -->
<g id="edge53" class="edge">
<title>Node27&#45;&gt;Node29</title>
<path fill="none" stroke="#63b8ff" d="M1826.81,-109.75C1828.53,-102.72 1831.01,-92.62 1833.16,-83.84"/>
<polygon fill="#63b8ff" stroke="#63b8ff" points="1836.57,-84.63 1835.55,-74.09 1829.77,-82.97 1836.57,-84.63"/>
</g>
<!-- Node30&#45;&gt;Node8 -->
<g id="edge59" class="edge">
<title>Node30&#45;&gt;Node8</title>
<path fill="none" stroke="#63b8ff" d="M1560.38,-189.59C1500.75,-204.6 1371.58,-235.39 1260.66,-250 998.88,-284.48 683.68,-292.24 551.65,-293.99"/>
<polygon fill="#63b8ff" stroke="#63b8ff" points="551.28,-290.5 541.33,-294.12 551.37,-297.5 551.28,-290.5"/>
</g>
<!-- Node30&#45;&gt;Node17 -->
<g id="edge56" class="edge">
<title>Node30&#45;&gt;Node17</title>
<path fill="none" stroke="#63b8ff" d="M1603.55,-170.37C1613.94,-161.3 1630.5,-146.84 1643.11,-135.82"/>
<polygon fill="#63b8ff" stroke="#63b8ff" points="1645.5,-138.38 1650.73,-129.17 1640.9,-133.11 1645.5,-138.38"/>
</g>
<!-- Node30&#45;&gt;Node20 -->
<g id="edge57" class="edge">
<title>Node30&#45;&gt;Node20</title>
<path fill="none" stroke="#63b8ff" d="M1588.05,-170.37C1582.5,-161.81 1573.83,-148.47 1566.86,-137.74"/>
<polygon fill="#63b8ff" stroke="#63b8ff" points="1569.67,-135.65 1561.29,-129.17 1563.8,-139.46 1569.67,-135.65"/>
</g>
<!-- Node30&#45;&gt;Node21 -->
<g id="edge58" class="edge">
<title>Node30&#45;&gt;Node21</title>
<path fill="none" stroke="#63b8ff" d="M1574.61,-170.49C1552.68,-160.7 1516.45,-144.52 1491.16,-133.23"/>
<polygon fill="#63b8ff" stroke="#63b8ff" points="1492.29,-129.9 1481.73,-129.02 1489.43,-136.29 1492.29,-129.9"/>
</g>
<!-- Node31&#45;&gt;Node17 -->
<g id="edge61" class="edge">
<title>Node31&#45;&gt;Node17</title>
<path fill="none" stroke="#63b8ff" d="M1354.01,-166.36C1356.93,-165.9 1359.82,-165.44 1362.66,-165 1442.05,-152.61 1533.46,-139.07 1593.88,-130.22"/>
<polygon fill="#63b8ff" stroke="#63b8ff" points="1594.66,-133.64 1604.05,-128.73 1593.65,-126.71 1594.66,-133.64"/>
</g>
<!-- Node31&#45;&gt;Node18 -->
<g id="edge64" class="edge">
<title>Node31&#45;&gt;Node18</title>
<path fill="none" stroke="#63b8ff" d="M1273.51,-164.84C1271.8,-157.13 1269.66,-147.49 1267.81,-139.17"/>
<polygon fill="#63b8ff" stroke="#63b8ff" points="1271.19,-138.27 1265.61,-129.27 1264.36,-139.79 1271.19,-138.27"/>
</g>
<!-- Node31&#45;&gt;Node20 -->
<g id="edge62" class="edge">
<title>Node31&#45;&gt;Node20</title>
<path fill="none" stroke="#63b8ff" d="M1344.71,-165C1390.34,-155.57 1452.05,-142.74 1514.91,-129.36"/>
<polygon fill="#63b8ff" stroke="#63b8ff" points="1515.96,-132.72 1525.01,-127.21 1514.5,-125.87 1515.96,-132.72"/>
</g>
<!-- Node31&#45;&gt;Node21 -->
<g id="edge63" class="edge">
<title>Node31&#45;&gt;Node21</title>
<path fill="none" stroke="#63b8ff" d="M1321.21,-164.99C1353.17,-154.94 1395.72,-141.55 1425.78,-132.1"/>
<polygon fill="#63b8ff" stroke="#63b8ff" points="1426.97,-135.39 1435.46,-129.05 1424.87,-128.72 1426.97,-135.39"/>
</g>
<!-- Node32 -->
<g id="node32" class="node">
<title>Node32</title>
<g id="a_node32"><a xlink:href="_device_config_8h.html" target="_top" xlink:title=" ">
<polygon fill="white" stroke="#666666" points="1094.66,-129 1004.66,-129 1004.66,-110 1094.66,-110 1094.66,-129"/>
<text text-anchor="middle" x="1049.66" y="-117" font-family="Helvetica,sans-Serif" font-size="10.00">DeviceConfig.h</text>
</a>
</g>
</g>
<!-- Node31&#45;&gt;Node32 -->
<g id="edge65" class="edge">
<title>Node31&#45;&gt;Node32</title>
<path fill="none" stroke="#63b8ff" d="M1222.29,-164.99C1182.6,-154.76 1129.54,-141.09 1092.77,-131.61"/>
<polygon fill="#63b8ff" stroke="#63b8ff" points="1093.41,-128.16 1082.85,-129.05 1091.66,-134.94 1093.41,-128.16"/>
</g>
<!-- Node32&#45;&gt;Node3 -->
<g id="edge66" class="edge">
<title>Node32&#45;&gt;Node3</title>
<path fill="none" stroke="#63b8ff" d="M1025.59,-109.92C989.39,-97.16 918.67,-72.78 857.66,-55 812.08,-41.72 759.2,-28.66 723.4,-20.16"/>
<polygon fill="#63b8ff" stroke="#63b8ff" points="723.85,-16.67 713.32,-17.78 722.25,-23.49 723.85,-16.67"/>
</g>
<!-- Node33 -->
<g id="node33" class="node">
<title>Node33</title>
<g id="a_node33"><a xlink:title=" ">
<polygon fill="#e0e0e0" stroke="#999999" points="1093.16,-74 1006.16,-74 1006.16,-55 1093.16,-55 1093.16,-74"/>
<text text-anchor="middle" x="1049.66" y="-62" font-family="Helvetica,sans-Serif" font-size="10.00">ArduinoJSON.h</text>
</a>
</g>
</g>
<!-- Node32&#45;&gt;Node33 -->
<g id="edge67" class="edge">
<title>Node32&#45;&gt;Node33</title>
<path fill="none" stroke="#63b8ff" d="M1049.66,-109.75C1049.66,-102.8 1049.66,-92.85 1049.66,-84.13"/>
<polygon fill="#63b8ff" stroke="#63b8ff" points="1053.16,-84.09 1049.66,-74.09 1046.16,-84.09 1053.16,-84.09"/>
</g>
<!-- Node34&#45;&gt;Node32 -->
<g id="edge69" class="edge">
<title>Node34&#45;&gt;Node32</title>
<path fill="none" stroke="#63b8ff" d="M1073.91,-164.84C1069.5,-156.78 1063.95,-146.62 1059.26,-138.06"/>
<polygon fill="#63b8ff" stroke="#63b8ff" points="1062.32,-136.36 1054.45,-129.27 1056.18,-139.72 1062.32,-136.36"/>
</g>
<!-- Node35&#45;&gt;Node32 -->
<g id="edge71" class="edge">
<title>Node35&#45;&gt;Node32</title>
<path fill="none" stroke="#63b8ff" d="M963.73,-164.99C981.91,-155.58 1005.73,-143.24 1023.68,-133.95"/>
<polygon fill="#63b8ff" stroke="#63b8ff" points="1025.7,-136.84 1032.97,-129.14 1022.48,-130.63 1025.7,-136.84"/>
</g>
</g>
</svg>
