<?xml version="1.0" encoding="UTF-8" standalone="no"?>
<!DOCTYPE svg PUBLIC "-//W3C//DTD SVG 1.1//EN"
 "http://www.w3.org/Graphics/SVG/1.1/DTD/svg11.dtd">
<!-- Generated by graphviz version 2.43.0 (0)
 -->
<!-- Title: firmware/wombat/include/bluetooth/uart.h Pages: 1 -->
<svg width="2107pt" height="379pt"
 viewBox="0.00 0.00 2107.00 379.00" xmlns="http://www.w3.org/2000/svg" xmlns:xlink="http://www.w3.org/1999/xlink">
<g id="graph0" class="graph" transform="scale(1 1) rotate(0) translate(4 375)">
<title>firmware/wombat/include/bluetooth/uart.h</title>
<!-- Node1 -->
<g id="node1" class="node">
<title>Node1</title>
<g id="a_node1"><a xlink:title="BluetoothLE UART service setup and handling.">
<polygon fill="#999999" stroke="#666666" points="1934,-371 1793,-371 1793,-341 1934,-341 1934,-371"/>
<text text-anchor="start" x="1801" y="-359" font-family="Helvetica,sans-Serif" font-size="10.00">firmware/wombat/include</text>
<text text-anchor="middle" x="1863.5" y="-348" font-family="Helvetica,sans-Serif" font-size="10.00">/bluetooth/uart.h</text>
</a>
</g>
</g>
<!-- Node2 -->
<g id="node2" class="node">
<title>Node2</title>
<g id="a_node2"><a xlink:title=" ">
<polygon fill="#e0e0e0" stroke="#999999" points="1239,-19 1176,-19 1176,0 1239,0 1239,-19"/>
<text text-anchor="middle" x="1207.5" y="-7" font-family="Helvetica,sans-Serif" font-size="10.00">Arduino.h</text>
</a>
</g>
</g>
<!-- Node1&#45;&gt;Node2 -->
<g id="edge1" class="edge">
<title>Node1&#45;&gt;Node2</title>
<path fill="none" stroke="#63b8ff" d="M1881.13,-340.9C1903.58,-321.23 1939.5,-283.24 1939.5,-241.5 1939.5,-241.5 1939.5,-241.5 1939.5,-118.5 1939.5,-48.26 1405.15,-19.21 1249.54,-12.23"/>
<polygon fill="#63b8ff" stroke="#63b8ff" points="1249.57,-8.73 1239.42,-11.79 1249.26,-15.73 1249.57,-8.73"/>
</g>
<!-- Node3 -->
<g id="node3" class="node">
<title>Node3</title>
<g id="a_node3"><a xlink:title=" ">
<polygon fill="#e0e0e0" stroke="#999999" points="1571,-189.5 1460,-189.5 1460,-170.5 1571,-170.5 1571,-189.5"/>
<text text-anchor="middle" x="1515.5" y="-177.5" font-family="Helvetica,sans-Serif" font-size="10.00">BLECharacteristic.h</text>
</a>
</g>
</g>
<!-- Node1&#45;&gt;Node3 -->
<g id="edge2" class="edge">
<title>Node1&#45;&gt;Node3</title>
<path fill="none" stroke="#63b8ff" d="M1792.91,-353.29C1652.04,-348.22 1344.06,-328.22 1280.5,-250 1209.46,-162.56 1035.68,-283.6 1450.5,-195 1455.52,-193.93 1460.76,-192.8 1465.99,-191.68"/>
<polygon fill="#63b8ff" stroke="#63b8ff" points="1466.93,-195.06 1475.98,-189.54 1465.46,-188.22 1466.93,-195.06"/>
</g>
<!-- Node4 -->
<g id="node4" class="node">
<title>Node4</title>
<g id="a_node4"><a xlink:title=" ">
<polygon fill="#e0e0e0" stroke="#999999" points="1663.5,-189.5 1589.5,-189.5 1589.5,-170.5 1663.5,-170.5 1663.5,-189.5"/>
<text text-anchor="middle" x="1626.5" y="-177.5" font-family="Helvetica,sans-Serif" font-size="10.00">BLEServer.h</text>
</a>
</g>
</g>
<!-- Node1&#45;&gt;Node4 -->
<g id="edge3" class="edge">
<title>Node1&#45;&gt;Node4</title>
<path fill="none" stroke="#63b8ff" d="M1865.92,-340.97C1869.46,-315.5 1872.81,-261.47 1844.5,-231 1832.88,-218.5 1734.39,-199.58 1673.83,-188.96"/>
<polygon fill="#63b8ff" stroke="#63b8ff" points="1674.18,-185.47 1663.73,-187.2 1672.98,-192.37 1674.18,-185.47"/>
</g>
<!-- Node5 -->
<g id="node5" class="node">
<title>Node5</title>
<g id="a_node5"><a xlink:title=" ">
<polygon fill="#e0e0e0" stroke="#999999" points="1787.5,-189.5 1719.5,-189.5 1719.5,-170.5 1787.5,-170.5 1787.5,-189.5"/>
<text text-anchor="middle" x="1753.5" y="-177.5" font-family="Helvetica,sans-Serif" font-size="10.00">BLE2902.h</text>
</a>
</g>
</g>
<!-- Node1&#45;&gt;Node5 -->
<g id="edge4" class="edge">
<title>Node1&#45;&gt;Node5</title>
<path fill="none" stroke="#63b8ff" d="M1865.12,-340.9C1867.2,-316.24 1868.09,-264.73 1844.5,-231 1832.1,-213.26 1811.31,-201.16 1792.73,-193.32"/>
<polygon fill="#63b8ff" stroke="#63b8ff" points="1793.86,-190 1783.27,-189.59 1791.3,-196.51 1793.86,-190"/>
</g>
<!-- Node6 -->
<g id="node6" class="node">
<title>Node6</title>
<g id="a_node6"><a xlink:href="tones_8h.html" target="_top" xlink:title="Audio control for the onboard piezo buzzer.">
<polygon fill="white" stroke="#666666" points="2099,-305 1968,-305 1968,-286 2099,-286 2099,-305"/>
<text text-anchor="middle" x="2033.5" y="-293" font-family="Helvetica,sans-Serif" font-size="10.00">audio&#45;feedback/tones.h</text>
</a>
</g>
</g>
<!-- Node1&#45;&gt;Node6 -->
<g id="edge5" class="edge">
<title>Node1&#45;&gt;Node6</title>
<path fill="none" stroke="#63b8ff" d="M1904.22,-340.99C1933.09,-331.05 1971.41,-317.86 1998.83,-308.43"/>
<polygon fill="#63b8ff" stroke="#63b8ff" points="2000.08,-311.7 2008.39,-305.14 1997.8,-305.08 2000.08,-311.7"/>
</g>
<!-- Node7 -->
<g id="node7" class="node">
<title>Node7</title>
<g id="a_node7"><a xlink:href="server_8h.html" target="_top" xlink:title="Handle the setup and maintenance of the BLE server and connected clients.">
<polygon fill="white" stroke="#666666" points="1657,-305 1552,-305 1552,-286 1657,-286 1657,-305"/>
<text text-anchor="middle" x="1604.5" y="-293" font-family="Helvetica,sans-Serif" font-size="10.00">bluetooth/server.h</text>
</a>
</g>
</g>
<!-- Node1&#45;&gt;Node7 -->
<g id="edge7" class="edge">
<title>Node1&#45;&gt;Node7</title>
<path fill="none" stroke="#63b8ff" d="M1795.6,-340.99C1748.61,-330.67 1687.57,-316.85 1647.22,-307.37"/>
<polygon fill="#63b8ff" stroke="#63b8ff" points="1647.97,-303.95 1637.43,-305.05 1646.36,-310.76 1647.97,-303.95"/>
</g>
<!-- Node6&#45;&gt;Node2 -->
<g id="edge6" class="edge">
<title>Node6&#45;&gt;Node2</title>
<path fill="none" stroke="#63b8ff" d="M2029.84,-285.85C2022.25,-267.11 2005.5,-221.19 2005.5,-181 2005.5,-181 2005.5,-181 2005.5,-118.5 2005.5,-82.02 1985.99,-71.59 1953.5,-55 1890.73,-22.95 1397.09,-13.25 1249.22,-11.05"/>
<polygon fill="#63b8ff" stroke="#63b8ff" points="1249.23,-7.55 1239.18,-10.9 1249.13,-14.55 1249.23,-7.55"/>
</g>
<!-- Node7&#45;&gt;Node1 -->
<g id="edge12" class="edge">
<title>Node7&#45;&gt;Node1</title>
<path fill="none" stroke="#63b8ff" d="M1647.31,-305.05C1688.2,-313.86 1750.29,-327.79 1797.49,-338.71"/>
<polygon fill="#63b8ff" stroke="#63b8ff" points="1796.79,-342.14 1807.32,-340.99 1798.37,-335.32 1796.79,-342.14"/>
</g>
<!-- Node7&#45;&gt;Node4 -->
<g id="edge9" class="edge">
<title>Node7&#45;&gt;Node4</title>
<path fill="none" stroke="#63b8ff" d="M1563.28,-285.97C1527.04,-276.46 1482.77,-258.66 1501.5,-231 1506.84,-223.11 1556.15,-204.96 1591.21,-192.84"/>
<polygon fill="#63b8ff" stroke="#63b8ff" points="1592.35,-196.15 1600.68,-189.6 1590.08,-189.53 1592.35,-196.15"/>
</g>
<!-- Node7&#45;&gt;Node5 -->
<g id="edge11" class="edge">
<title>Node7&#45;&gt;Node5</title>
<path fill="none" stroke="#63b8ff" d="M1611.34,-285.93C1621.97,-272.97 1643.54,-248.08 1665.5,-231 1684.22,-216.44 1707.67,-203.33 1725.65,-194.19"/>
<polygon fill="#63b8ff" stroke="#63b8ff" points="1727.62,-197.12 1735.02,-189.54 1724.51,-190.85 1727.62,-197.12"/>
</g>
<!-- Node8 -->
<g id="node8" class="node">
<title>Node8</title>
<g id="a_node8"><a xlink:title=" ">
<polygon fill="#e0e0e0" stroke="#999999" points="1751,-250 1674,-250 1674,-231 1751,-231 1751,-250"/>
<text text-anchor="middle" x="1712.5" y="-238" font-family="Helvetica,sans-Serif" font-size="10.00">BLEDevice.h</text>
</a>
</g>
</g>
<!-- Node7&#45;&gt;Node8 -->
<g id="edge8" class="edge">
<title>Node7&#45;&gt;Node8</title>
<path fill="none" stroke="#63b8ff" d="M1621.85,-285.98C1639.07,-277.54 1665.7,-264.47 1685.65,-254.68"/>
<polygon fill="#63b8ff" stroke="#63b8ff" points="1687.4,-257.72 1694.83,-250.17 1684.31,-251.43 1687.4,-257.72"/>
</g>
<!-- Node9 -->
<g id="node9" class="node">
<title>Node9</title>
<g id="a_node9"><a xlink:title=" ">
<polygon fill="#e0e0e0" stroke="#999999" points="1835.5,-250 1769.5,-250 1769.5,-231 1835.5,-231 1835.5,-250"/>
<text text-anchor="middle" x="1802.5" y="-238" font-family="Helvetica,sans-Serif" font-size="10.00">BLEUtils.h</text>
</a>
</g>
</g>
<!-- Node7&#45;&gt;Node9 -->
<g id="edge10" class="edge">
<title>Node7&#45;&gt;Node9</title>
<path fill="none" stroke="#63b8ff" d="M1636.31,-285.98C1669.99,-276.97 1723.3,-262.7 1760.42,-252.76"/>
<polygon fill="#63b8ff" stroke="#63b8ff" points="1761.68,-256.05 1770.44,-250.08 1759.87,-249.29 1761.68,-256.05"/>
</g>
<!-- Node10 -->
<g id="node10" class="node">
<title>Node10</title>
<g id="a_node10"><a xlink:href="device_8h.html" target="_top" xlink:title="Bluetooth device services and device information.">
<polygon fill="white" stroke="#666666" points="1617,-250 1510,-250 1510,-231 1617,-231 1617,-250"/>
<text text-anchor="middle" x="1563.5" y="-238" font-family="Helvetica,sans-Serif" font-size="10.00">bluetooth/device.h</text>
</a>
</g>
</g>
<!-- Node7&#45;&gt;Node10 -->
<g id="edge13" class="edge">
<title>Node7&#45;&gt;Node10</title>
<path fill="none" stroke="#63b8ff" d="M1597.73,-285.75C1591.94,-278.26 1583.44,-267.28 1576.36,-258.13"/>
<polygon fill="#63b8ff" stroke="#63b8ff" points="1579.03,-255.86 1570.14,-250.09 1573.49,-260.14 1579.03,-255.86"/>
</g>
<!-- Node11 -->
<g id="node11" class="node">
<title>Node11</title>
<g id="a_node11"><a xlink:href="power__monitoring_8h.html" target="_top" xlink:title="Setup BluetoothLE power monitoring information.">
<polygon fill="white" stroke="#666666" points="1453.5,-250 1289.5,-250 1289.5,-231 1453.5,-231 1453.5,-250"/>
<text text-anchor="middle" x="1371.5" y="-238" font-family="Helvetica,sans-Serif" font-size="10.00">bluetooth/power_monitoring.h</text>
</a>
</g>
</g>
<!-- Node7&#45;&gt;Node11 -->
<g id="edge18" class="edge">
<title>Node7&#45;&gt;Node11</title>
<path fill="none" stroke="#63b8ff" d="M1567.06,-285.98C1526.85,-276.84 1462.82,-262.27 1419.06,-252.32"/>
<polygon fill="#63b8ff" stroke="#63b8ff" points="1419.76,-248.89 1409.23,-250.08 1418.2,-255.71 1419.76,-248.89"/>
</g>
<!-- Node15 -->
<g id="node15" class="node">
<title>Node15</title>
<g id="a_node15"><a xlink:href="_c_l_i_8h.html" target="_top" xlink:title="FreeRTOS CLI handler.">
<polygon fill="white" stroke="#666666" points="784,-250 729,-250 729,-231 784,-231 784,-250"/>
<text text-anchor="middle" x="756.5" y="-238" font-family="Helvetica,sans-Serif" font-size="10.00">cli/CLI.h</text>
</a>
</g>
</g>
<!-- Node7&#45;&gt;Node15 -->
<g id="edge29" class="edge">
<title>Node7&#45;&gt;Node15</title>
<path fill="none" stroke="#63b8ff" d="M1551.87,-291.42C1394.47,-281.87 930.38,-252.86 794.33,-244.06"/>
<polygon fill="#63b8ff" stroke="#63b8ff" points="794.21,-240.54 784.01,-243.39 793.76,-247.53 794.21,-240.54"/>
</g>
<!-- Node10&#45;&gt;Node2 -->
<g id="edge14" class="edge">
<title>Node10&#45;&gt;Node2</title>
<path fill="none" stroke="#63b8ff" d="M1616.62,-230.97C1637.67,-224.7 1659.85,-213.83 1672.5,-195 1679.94,-183.93 1680.3,-175.81 1672.5,-165 1572.59,-26.53 1343.48,-10.22 1249.2,-9.63"/>
<polygon fill="#63b8ff" stroke="#63b8ff" points="1249.18,-6.13 1239.18,-9.63 1249.18,-13.13 1249.18,-6.13"/>
</g>
<!-- Node10&#45;&gt;Node3 -->
<g id="edge15" class="edge">
<title>Node10&#45;&gt;Node3</title>
<path fill="none" stroke="#63b8ff" d="M1556.42,-230.87C1549.26,-222.14 1538.01,-208.43 1529.11,-197.59"/>
<polygon fill="#63b8ff" stroke="#63b8ff" points="1531.66,-195.18 1522.61,-189.67 1526.25,-199.62 1531.66,-195.18"/>
</g>
<!-- Node10&#45;&gt;Node4 -->
<g id="edge16" class="edge">
<title>Node10&#45;&gt;Node4</title>
<path fill="none" stroke="#63b8ff" d="M1572.8,-230.87C1582.47,-221.88 1597.84,-207.61 1609.66,-196.64"/>
<polygon fill="#63b8ff" stroke="#63b8ff" points="1612.22,-199.04 1617.17,-189.67 1607.46,-193.91 1612.22,-199.04"/>
</g>
<!-- Node10&#45;&gt;Node5 -->
<g id="edge17" class="edge">
<title>Node10&#45;&gt;Node5</title>
<path fill="none" stroke="#63b8ff" d="M1591.13,-230.99C1624.05,-220.86 1679.23,-203.87 1715.99,-192.55"/>
<polygon fill="#63b8ff" stroke="#63b8ff" points="1717.31,-195.8 1725.84,-189.52 1715.25,-189.11 1717.31,-195.8"/>
</g>
<!-- Node11&#45;&gt;Node2 -->
<g id="edge19" class="edge">
<title>Node11&#45;&gt;Node2</title>
<path fill="none" stroke="#63b8ff" d="M1289.33,-235.9C1225.22,-231.16 1143.61,-220.21 1122.5,-195 1077.46,-141.2 1153.77,-59.59 1190.01,-25.89"/>
<polygon fill="#63b8ff" stroke="#63b8ff" points="1192.43,-28.41 1197.48,-19.1 1187.72,-23.24 1192.43,-28.41"/>
</g>
<!-- Node11&#45;&gt;Node3 -->
<g id="edge20" class="edge">
<title>Node11&#45;&gt;Node3</title>
<path fill="none" stroke="#63b8ff" d="M1392.44,-230.99C1416.86,-221.07 1457.43,-204.59 1485.27,-193.28"/>
<polygon fill="#63b8ff" stroke="#63b8ff" points="1486.59,-196.52 1494.54,-189.52 1483.95,-190.04 1486.59,-196.52"/>
</g>
<!-- Node11&#45;&gt;Node4 -->
<g id="edge21" class="edge">
<title>Node11&#45;&gt;Node4</title>
<path fill="none" stroke="#63b8ff" d="M1417.02,-230.98C1459.53,-222.74 1524.64,-209.42 1580.5,-195 1583.65,-194.19 1586.91,-193.3 1590.17,-192.37"/>
<polygon fill="#63b8ff" stroke="#63b8ff" points="1591.24,-195.7 1599.85,-189.53 1589.27,-188.99 1591.24,-195.7"/>
</g>
<!-- Node11&#45;&gt;Node5 -->
<g id="edge22" class="edge">
<title>Node11&#45;&gt;Node5</title>
<path fill="none" stroke="#63b8ff" d="M1432.1,-230.98C1492.94,-222.33 1589.31,-208.34 1672.5,-195 1684.38,-193.1 1697.22,-190.93 1709.1,-188.88"/>
<polygon fill="#63b8ff" stroke="#63b8ff" points="1709.99,-192.27 1719.24,-187.11 1708.79,-185.38 1709.99,-192.27"/>
</g>
<!-- Node12 -->
<g id="node12" class="node">
<title>Node12</title>
<g id="a_node12"><a xlink:href="solar_8h.html" target="_top" xlink:title="Solar voltage and current monitoring using INA219 IC.">
<polygon fill="white" stroke="#666666" points="1441.5,-189.5 1301.5,-189.5 1301.5,-170.5 1441.5,-170.5 1441.5,-189.5"/>
<text text-anchor="middle" x="1371.5" y="-177.5" font-family="Helvetica,sans-Serif" font-size="10.00">power_monitoring/solar.h</text>
</a>
</g>
</g>
<!-- Node11&#45;&gt;Node12 -->
<g id="edge23" class="edge">
<title>Node11&#45;&gt;Node12</title>
<path fill="none" stroke="#63b8ff" d="M1371.5,-230.87C1371.5,-222.75 1371.5,-210.31 1371.5,-199.89"/>
<polygon fill="#63b8ff" stroke="#63b8ff" points="1375,-199.67 1371.5,-189.67 1368,-199.67 1375,-199.67"/>
</g>
<!-- Node14 -->
<g id="node14" class="node">
<title>Node14</title>
<g id="a_node14"><a xlink:href="battery_8h.html" target="_top" xlink:title="Battery voltage and current monitoring using INA219 IC.">
<polygon fill="white" stroke="#666666" points="1283,-189.5 1132,-189.5 1132,-170.5 1283,-170.5 1283,-189.5"/>
<text text-anchor="middle" x="1207.5" y="-177.5" font-family="Helvetica,sans-Serif" font-size="10.00">power_monitoring/battery.h</text>
</a>
</g>
</g>
<!-- Node11&#45;&gt;Node14 -->
<g id="edge26" class="edge">
<title>Node11&#45;&gt;Node14</title>
<path fill="none" stroke="#63b8ff" d="M1347.65,-230.99C1319.6,-220.99 1272.83,-204.3 1241.1,-192.99"/>
<polygon fill="#63b8ff" stroke="#63b8ff" points="1241.97,-189.58 1231.38,-189.52 1239.62,-196.17 1241.97,-189.58"/>
</g>
<!-- Node12&#45;&gt;Node2 -->
<g id="edge24" class="edge">
<title>Node12&#45;&gt;Node2</title>
<path fill="none" stroke="#63b8ff" d="M1370.67,-170.12C1368.98,-156.12 1364.06,-128.63 1350.5,-110 1320.82,-69.22 1269.13,-39.35 1236.7,-23.48"/>
<polygon fill="#63b8ff" stroke="#63b8ff" points="1237.83,-20.14 1227.3,-19.01 1234.83,-26.46 1237.83,-20.14"/>
</g>
<!-- Node13 -->
<g id="node13" class="node">
<title>Node13</title>
<g id="a_node13"><a xlink:title=" ">
<polygon fill="#e0e0e0" stroke="#999999" points="1342,-129 1237,-129 1237,-110 1342,-110 1342,-129"/>
<text text-anchor="middle" x="1289.5" y="-117" font-family="Helvetica,sans-Serif" font-size="10.00">Adafruit_INA219.h</text>
</a>
</g>
</g>
<!-- Node12&#45;&gt;Node13 -->
<g id="edge25" class="edge">
<title>Node12&#45;&gt;Node13</title>
<path fill="none" stroke="#63b8ff" d="M1359.4,-170.37C1346.44,-161.12 1325.64,-146.28 1310.1,-135.19"/>
<polygon fill="#63b8ff" stroke="#63b8ff" points="1311.82,-132.13 1301.65,-129.17 1307.76,-137.82 1311.82,-132.13"/>
</g>
<!-- Node14&#45;&gt;Node2 -->
<g id="edge27" class="edge">
<title>Node14&#45;&gt;Node2</title>
<path fill="none" stroke="#63b8ff" d="M1207.5,-170.41C1207.5,-144.39 1207.5,-65.97 1207.5,-29.51"/>
<polygon fill="#63b8ff" stroke="#63b8ff" points="1211,-29.27 1207.5,-19.27 1204,-29.27 1211,-29.27"/>
</g>
<!-- Node14&#45;&gt;Node13 -->
<g id="edge28" class="edge">
<title>Node14&#45;&gt;Node13</title>
<path fill="none" stroke="#63b8ff" d="M1219.6,-170.37C1232.56,-161.12 1253.36,-146.28 1268.9,-135.19"/>
<polygon fill="#63b8ff" stroke="#63b8ff" points="1271.24,-137.82 1277.35,-129.17 1267.18,-132.13 1271.24,-137.82"/>
</g>
<!-- Node15&#45;&gt;Node2 -->
<g id="edge30" class="edge">
<title>Node15&#45;&gt;Node2</title>
<path fill="none" stroke="#63b8ff" d="M757.86,-230.67C763.06,-200.31 784.61,-99.69 847.5,-55 897.78,-19.28 1081.87,-12.17 1165.57,-10.8"/>
<polygon fill="#63b8ff" stroke="#63b8ff" points="1165.79,-14.3 1175.74,-10.65 1165.69,-7.3 1165.79,-14.3"/>
</g>
<!-- Node15&#45;&gt;Node7 -->
<g id="edge54" class="edge">
<title>Node15&#45;&gt;Node7</title>
<path fill="none" stroke="#63b8ff" d="M784.07,-243.07C902.75,-250.16 1370.8,-279.39 1541.69,-290.33"/>
<polygon fill="#63b8ff" stroke="#63b8ff" points="1541.58,-293.83 1551.78,-290.98 1542.03,-286.85 1541.58,-293.83"/>
</g>
<!-- Node16 -->
<g id="node16" class="node">
<title>Node16</title>
<g id="a_node16"><a xlink:title=" ">
<polygon fill="#e0e0e0" stroke="#999999" points="747,-129 634,-129 634,-110 747,-110 747,-129"/>
<text text-anchor="middle" x="690.5" y="-117" font-family="Helvetica,sans-Serif" font-size="10.00">freertos/FreeRTOS.h</text>
</a>
</g>
</g>
<!-- Node15&#45;&gt;Node16 -->
<g id="edge31" class="edge">
<title>Node15&#45;&gt;Node16</title>
<path fill="none" stroke="#63b8ff" d="M752.3,-230.65C745.55,-216.55 731.7,-188.23 718.5,-165 713.31,-155.87 707.14,-145.97 701.91,-137.82"/>
<polygon fill="#63b8ff" stroke="#63b8ff" points="704.7,-135.7 696.32,-129.22 698.83,-139.51 704.7,-135.7"/>
</g>
<!-- Node17 -->
<g id="node17" class="node">
<title>Node17</title>
<g id="a_node17"><a xlink:title=" ">
<polygon fill="#e0e0e0" stroke="#999999" points="347,-129 240,-129 240,-110 347,-110 347,-129"/>
<text text-anchor="middle" x="293.5" y="-117" font-family="Helvetica,sans-Serif" font-size="10.00">cli/FreeRTOS_CLI.h</text>
</a>
</g>
</g>
<!-- Node15&#45;&gt;Node17 -->
<g id="edge32" class="edge">
<title>Node15&#45;&gt;Node17</title>
<path fill="none" stroke="#63b8ff" d="M728.8,-239.27C625.93,-238.11 270.01,-231.5 236.5,-195 227.48,-185.18 230.65,-176.98 236.5,-165 242.8,-152.09 254.85,-141.83 266.26,-134.43"/>
<polygon fill="#63b8ff" stroke="#63b8ff" points="268.36,-137.25 275.15,-129.12 264.77,-131.25 268.36,-137.25"/>
</g>
<!-- Node18 -->
<g id="node18" class="node">
<title>Node18</title>
<g id="a_node18"><a xlink:href="cat-m1_8h.html" target="_top" xlink:title="CAT&#45;M1 CLI command request and response handler.">
<polygon fill="white" stroke="#666666" points="537.5,-189.5 405.5,-189.5 405.5,-170.5 537.5,-170.5 537.5,-189.5"/>
<text text-anchor="middle" x="471.5" y="-177.5" font-family="Helvetica,sans-Serif" font-size="10.00">cli/peripherals/cat&#45;m1.h</text>
</a>
</g>
</g>
<!-- Node15&#45;&gt;Node18 -->
<g id="edge33" class="edge">
<title>Node15&#45;&gt;Node18</title>
<path fill="none" stroke="#63b8ff" d="M728.91,-233.84C681.51,-224.11 583.85,-204.06 523.39,-191.65"/>
<polygon fill="#63b8ff" stroke="#63b8ff" points="523.79,-188.16 513.29,-189.58 522.38,-195.02 523.79,-188.16"/>
</g>
<!-- Node24 -->
<g id="node24" class="node">
<title>Node24</title>
<g id="a_node24"><a xlink:href="sdi12_8h.html" target="_top" xlink:title="SDI&#45;12 command line interface handler.">
<polygon fill="white" stroke="#666666" points="369.5,-189.5 245.5,-189.5 245.5,-170.5 369.5,-170.5 369.5,-189.5"/>
<text text-anchor="middle" x="307.5" y="-177.5" font-family="Helvetica,sans-Serif" font-size="10.00">cli/peripherals/sdi12.h</text>
</a>
</g>
</g>
<!-- Node15&#45;&gt;Node24 -->
<g id="edge43" class="edge">
<title>Node15&#45;&gt;Node24</title>
<path fill="none" stroke="#63b8ff" d="M728.91,-236.4C668.55,-229.56 520.29,-212.38 396.5,-195 387.83,-193.78 378.71,-192.43 369.73,-191.06"/>
<polygon fill="#63b8ff" stroke="#63b8ff" points="370.11,-187.57 359.69,-189.51 369.04,-194.49 370.11,-187.57"/>
</g>
<!-- Node29 -->
<g id="node29" class="node">
<title>Node29</title>
<g id="a_node29"><a xlink:href="acquisition__intervals_8h.html" target="_top" xlink:title="Handles the time between measurements and uplinks by the device over LTE.">
<polygon fill="white" stroke="#666666" points="709.5,-195 555.5,-195 555.5,-165 709.5,-165 709.5,-195"/>
<text text-anchor="start" x="563.5" y="-183" font-family="Helvetica,sans-Serif" font-size="10.00">cli/device_config/acquisition</text>
<text text-anchor="middle" x="632.5" y="-172" font-family="Helvetica,sans-Serif" font-size="10.00">_intervals.h</text>
</a>
</g>
</g>
<!-- Node15&#45;&gt;Node29 -->
<g id="edge55" class="edge">
<title>Node15&#45;&gt;Node29</title>
<path fill="none" stroke="#63b8ff" d="M738.47,-230.99C721.07,-222.79 694.16,-210.09 671.81,-199.55"/>
<polygon fill="#63b8ff" stroke="#63b8ff" points="673.09,-196.28 662.55,-195.18 670.1,-202.61 673.09,-196.28"/>
</g>
<!-- Node32 -->
<g id="node32" class="node">
<title>Node32</title>
<g id="a_node32"><a xlink:href="mqtt__cli_8h.html" target="_top" xlink:title="MQTT setup and configuration through the CLI.">
<polygon fill="white" stroke="#666666" points="1075.5,-195 951.5,-195 951.5,-165 1075.5,-165 1075.5,-195"/>
<text text-anchor="start" x="959.5" y="-183" font-family="Helvetica,sans-Serif" font-size="10.00">cli/device_config/mqtt</text>
<text text-anchor="middle" x="1013.5" y="-172" font-family="Helvetica,sans-Serif" font-size="10.00">_cli.h</text>
</a>
</g>
</g>
<!-- Node15&#45;&gt;Node32 -->
<g id="edge63" class="edge">
<title>Node15&#45;&gt;Node32</title>
<path fill="none" stroke="#63b8ff" d="M784,-233.24C821.41,-224.72 889.67,-209.19 942.05,-197.26"/>
<polygon fill="#63b8ff" stroke="#63b8ff" points="942.99,-200.64 951.97,-195.01 941.44,-193.81 942.99,-200.64"/>
</g>
<!-- Node33 -->
<g id="node33" class="node">
<title>Node33</title>
<g id="a_node33"><a xlink:href="config__cli_8h.html" target="_top" xlink:title=" ">
<polygon fill="white" stroke="#666666" points="933.5,-195 803.5,-195 803.5,-165 933.5,-165 933.5,-195"/>
<text text-anchor="start" x="811.5" y="-183" font-family="Helvetica,sans-Serif" font-size="10.00">cli/device_config/config</text>
<text text-anchor="middle" x="868.5" y="-172" font-family="Helvetica,sans-Serif" font-size="10.00">_cli.h</text>
</a>
</g>
</g>
<!-- Node15&#45;&gt;Node33 -->
<g id="edge65" class="edge">
<title>Node15&#45;&gt;Node33</title>
<path fill="none" stroke="#63b8ff" d="M773.03,-230.87C788.65,-222.71 812.6,-210.2 832.61,-199.75"/>
<polygon fill="#63b8ff" stroke="#63b8ff" points="834.23,-202.85 841.48,-195.11 830.99,-196.64 834.23,-202.85"/>
</g>
<!-- Node18&#45;&gt;Node16 -->
<g id="edge34" class="edge">
<title>Node18&#45;&gt;Node16</title>
<path fill="none" stroke="#63b8ff" d="M503.34,-170.49C541.78,-160.23 606.53,-142.93 648.89,-131.62"/>
<polygon fill="#63b8ff" stroke="#63b8ff" points="649.86,-134.98 658.62,-129.02 648.05,-128.22 649.86,-134.98"/>
</g>
<!-- Node18&#45;&gt;Node17 -->
<g id="edge37" class="edge">
<title>Node18&#45;&gt;Node17</title>
<path fill="none" stroke="#63b8ff" d="M445.62,-170.49C414.9,-160.4 363.52,-143.51 329.08,-132.19"/>
<polygon fill="#63b8ff" stroke="#63b8ff" points="330.01,-128.81 319.41,-129.02 327.82,-135.46 330.01,-128.81"/>
</g>
<!-- Node19 -->
<g id="node19" class="node">
<title>Node19</title>
<g id="a_node19"><a xlink:title=" ">
<polygon fill="#e0e0e0" stroke="#999999" points="616,-129 555,-129 555,-110 616,-110 616,-129"/>
<text text-anchor="middle" x="585.5" y="-117" font-family="Helvetica,sans-Serif" font-size="10.00">Stream.h</text>
</a>
</g>
</g>
<!-- Node18&#45;&gt;Node19 -->
<g id="edge35" class="edge">
<title>Node18&#45;&gt;Node19</title>
<path fill="none" stroke="#63b8ff" d="M488.32,-170.37C507.1,-160.73 537.7,-145.03 559.55,-133.81"/>
<polygon fill="#63b8ff" stroke="#63b8ff" points="561.31,-136.85 568.61,-129.17 558.11,-130.62 561.31,-136.85"/>
</g>
<!-- Node20 -->
<g id="node20" class="node">
<title>Node20</title>
<g id="a_node20"><a xlink:title=" ">
<polygon fill="#e0e0e0" stroke="#999999" points="454,-129 365,-129 365,-110 454,-110 454,-129"/>
<text text-anchor="middle" x="409.5" y="-117" font-family="Helvetica,sans-Serif" font-size="10.00">StreamString.h</text>
</a>
</g>
</g>
<!-- Node18&#45;&gt;Node20 -->
<g id="edge36" class="edge">
<title>Node18&#45;&gt;Node20</title>
<path fill="none" stroke="#63b8ff" d="M462.35,-170.37C452.83,-161.38 437.7,-147.11 426.07,-136.14"/>
<polygon fill="#63b8ff" stroke="#63b8ff" points="428.36,-133.48 418.69,-129.17 423.56,-138.58 428.36,-133.48"/>
</g>
<!-- Node21 -->
<g id="node21" class="node">
<title>Node21</title>
<g id="a_node21"><a xlink:href="_c_a_t___m1_8h.html" target="_top" xlink:title=" ">
<polygon fill="white" stroke="#666666" points="537,-129 472,-129 472,-110 537,-110 537,-129"/>
<text text-anchor="middle" x="504.5" y="-117" font-family="Helvetica,sans-Serif" font-size="10.00">CAT_M1.h</text>
</a>
</g>
</g>
<!-- Node18&#45;&gt;Node21 -->
<g id="edge38" class="edge">
<title>Node18&#45;&gt;Node21</title>
<path fill="none" stroke="#63b8ff" d="M476.37,-170.37C481.15,-161.9 488.57,-148.74 494.59,-138.07"/>
<polygon fill="#63b8ff" stroke="#63b8ff" points="497.75,-139.6 499.61,-129.17 491.65,-136.16 497.75,-139.6"/>
</g>
<!-- Node22 -->
<g id="node22" class="node">
<title>Node22</title>
<g id="a_node22"><a xlink:title=" ">
<polygon fill="#e0e0e0" stroke="#999999" points="559.5,-19 511.5,-19 511.5,0 559.5,0 559.5,-19"/>
<text text-anchor="middle" x="535.5" y="-7" font-family="Helvetica,sans-Serif" font-size="10.00">Wire.h</text>
</a>
</g>
</g>
<!-- Node21&#45;&gt;Node22 -->
<g id="edge39" class="edge">
<title>Node21&#45;&gt;Node22</title>
<path fill="none" stroke="#63b8ff" d="M507.04,-109.66C512.08,-92.09 523.46,-52.45 530.2,-28.95"/>
<polygon fill="#63b8ff" stroke="#63b8ff" points="533.62,-29.74 533.01,-19.16 526.89,-27.8 533.62,-29.74"/>
</g>
<!-- Node23 -->
<g id="node23" class="node">
<title>Node23</title>
<g id="a_node23"><a xlink:href="_t_c_a9534_8h.html" target="_top" xlink:title=" ">
<polygon fill="white" stroke="#666666" points="600.5,-74 532.5,-74 532.5,-55 600.5,-55 600.5,-74"/>
<text text-anchor="middle" x="566.5" y="-62" font-family="Helvetica,sans-Serif" font-size="10.00">TCA9534.h</text>
</a>
</g>
</g>
<!-- Node21&#45;&gt;Node23 -->
<g id="edge40" class="edge">
<title>Node21&#45;&gt;Node23</title>
<path fill="none" stroke="#63b8ff" d="M514.46,-109.98C523.63,-102.15 537.44,-90.34 548.53,-80.86"/>
<polygon fill="#63b8ff" stroke="#63b8ff" points="551.03,-83.33 556.36,-74.17 546.48,-78.01 551.03,-83.33"/>
</g>
<!-- Node23&#45;&gt;Node2 -->
<g id="edge41" class="edge">
<title>Node23&#45;&gt;Node2</title>
<path fill="none" stroke="#63b8ff" d="M600.51,-60.69C709.05,-51.71 1046.97,-23.77 1165.72,-13.95"/>
<polygon fill="#63b8ff" stroke="#63b8ff" points="1166.19,-17.43 1175.86,-13.12 1165.61,-10.45 1166.19,-17.43"/>
</g>
<!-- Node23&#45;&gt;Node22 -->
<g id="edge42" class="edge">
<title>Node23&#45;&gt;Node22</title>
<path fill="none" stroke="#63b8ff" d="M561.38,-54.75C557.14,-47.49 550.97,-36.95 545.72,-27.98"/>
<polygon fill="#63b8ff" stroke="#63b8ff" points="548.59,-25.95 540.52,-19.09 542.55,-29.49 548.59,-25.95"/>
</g>
<!-- Node24&#45;&gt;Node16 -->
<g id="edge44" class="edge">
<title>Node24&#45;&gt;Node16</title>
<path fill="none" stroke="#63b8ff" d="M361.62,-170.44C373.13,-168.63 385.22,-166.74 396.5,-165 474.51,-152.96 564.22,-139.43 623.82,-130.48"/>
<polygon fill="#63b8ff" stroke="#63b8ff" points="624.48,-133.92 633.85,-128.98 623.44,-127 624.48,-133.92"/>
</g>
<!-- Node24&#45;&gt;Node17 -->
<g id="edge49" class="edge">
<title>Node24&#45;&gt;Node17</title>
<path fill="none" stroke="#63b8ff" d="M305.43,-170.37C303.47,-162.16 300.45,-149.54 297.94,-139.05"/>
<polygon fill="#63b8ff" stroke="#63b8ff" points="301.31,-138.08 295.57,-129.17 294.5,-139.71 301.31,-138.08"/>
</g>
<!-- Node24&#45;&gt;Node19 -->
<g id="edge45" class="edge">
<title>Node24&#45;&gt;Node19</title>
<path fill="none" stroke="#63b8ff" d="M348.36,-170.45C393.73,-160.94 469.45,-145.06 544.78,-129.15"/>
<polygon fill="#63b8ff" stroke="#63b8ff" points="545.87,-132.5 554.93,-127 544.42,-125.65 545.87,-132.5"/>
</g>
<!-- Node24&#45;&gt;Node20 -->
<g id="edge46" class="edge">
<title>Node24&#45;&gt;Node20</title>
<path fill="none" stroke="#63b8ff" d="M322.55,-170.37C339.12,-160.86 366,-145.45 385.49,-134.27"/>
<polygon fill="#63b8ff" stroke="#63b8ff" points="387.45,-137.18 394.39,-129.17 383.97,-131.11 387.45,-137.18"/>
</g>
<!-- Node24&#45;&gt;Node24 -->
<g id="edge47" class="edge">
<title>Node24&#45;&gt;Node24</title>
<path fill="none" stroke="#63b8ff" d="M337.04,-189.53C361.72,-193.61 387.5,-190.43 387.5,-180 387.5,-171 368.28,-167.4 347.15,-169.2"/>
<polygon fill="#63b8ff" stroke="#63b8ff" points="346.53,-165.75 337.04,-170.47 347.4,-172.7 346.53,-165.75"/>
</g>
<!-- Node25 -->
<g id="node25" class="node">
<title>Node25</title>
<g id="a_node25"><a xlink:title=" ">
<polygon fill="#e0e0e0" stroke="#999999" points="269,-74 176,-74 176,-55 269,-55 269,-74"/>
<text text-anchor="middle" x="222.5" y="-62" font-family="Helvetica,sans-Serif" font-size="10.00">dpiclimate&#45;12.h</text>
</a>
</g>
</g>
<!-- Node24&#45;&gt;Node25 -->
<g id="edge48" class="edge">
<title>Node24&#45;&gt;Node25</title>
<path fill="none" stroke="#63b8ff" d="M284.64,-170.48C266.81,-162.57 243.03,-148.99 230.5,-129 222.11,-115.61 220.57,-97.51 220.86,-84.06"/>
<polygon fill="#63b8ff" stroke="#63b8ff" points="224.36,-84.24 221.43,-74.06 217.37,-83.84 224.36,-84.24"/>
</g>
<!-- Node26 -->
<g id="node26" class="node">
<title>Node26</title>
<g id="a_node26"><a xlink:href="_utils_8h.html" target="_top" xlink:title=" ">
<polygon fill="white" stroke="#666666" points="173.5,-129 125.5,-129 125.5,-110 173.5,-110 173.5,-129"/>
<text text-anchor="middle" x="149.5" y="-117" font-family="Helvetica,sans-Serif" font-size="10.00">Utils.h</text>
</a>
</g>
</g>
<!-- Node24&#45;&gt;Node26 -->
<g id="edge50" class="edge">
<title>Node24&#45;&gt;Node26</title>
<path fill="none" stroke="#63b8ff" d="M284.53,-170.49C257.61,-160.53 212.83,-143.95 182.27,-132.63"/>
<polygon fill="#63b8ff" stroke="#63b8ff" points="183.1,-129.21 172.5,-129.02 180.66,-135.77 183.1,-129.21"/>
</g>
<!-- Node26&#45;&gt;Node25 -->
<g id="edge53" class="edge">
<title>Node26&#45;&gt;Node25</title>
<path fill="none" stroke="#63b8ff" d="M161.23,-109.98C172.23,-102 188.92,-89.88 202.1,-80.31"/>
<polygon fill="#63b8ff" stroke="#63b8ff" points="204.52,-82.88 210.56,-74.17 200.41,-77.21 204.52,-82.88"/>
</g>
<!-- Node27 -->
<g id="node27" class="node">
<title>Node27</title>
<g id="a_node27"><a xlink:title=" ">
<polygon fill="#e0e0e0" stroke="#999999" points="157.5,-74 101.5,-74 101.5,-55 157.5,-55 157.5,-74"/>
<text text-anchor="middle" x="129.5" y="-62" font-family="Helvetica,sans-Serif" font-size="10.00">stddef.h</text>
</a>
</g>
</g>
<!-- Node26&#45;&gt;Node27 -->
<g id="edge51" class="edge">
<title>Node26&#45;&gt;Node27</title>
<path fill="none" stroke="#63b8ff" d="M146.2,-109.75C143.52,-102.65 139.65,-92.4 136.31,-83.56"/>
<polygon fill="#63b8ff" stroke="#63b8ff" points="139.55,-82.21 132.74,-74.09 133,-84.68 139.55,-82.21"/>
</g>
<!-- Node28 -->
<g id="node28" class="node">
<title>Node28</title>
<g id="a_node28"><a xlink:title=" ">
<polygon fill="#e0e0e0" stroke="#999999" points="83,-74 0,-74 0,-55 83,-55 83,-74"/>
<text text-anchor="middle" x="41.5" y="-62" font-family="Helvetica,sans-Serif" font-size="10.00">ArduinoJson.h</text>
</a>
</g>
</g>
<!-- Node26&#45;&gt;Node28 -->
<g id="edge52" class="edge">
<title>Node26&#45;&gt;Node28</title>
<path fill="none" stroke="#63b8ff" d="M132.15,-109.98C114.93,-101.54 88.3,-88.47 68.35,-78.68"/>
<polygon fill="#63b8ff" stroke="#63b8ff" points="69.69,-75.43 59.17,-74.17 66.6,-81.72 69.69,-75.43"/>
</g>
<!-- Node29&#45;&gt;Node16 -->
<g id="edge56" class="edge">
<title>Node29&#45;&gt;Node16</title>
<path fill="none" stroke="#63b8ff" d="M646.54,-164.84C655.05,-156.26 665.91,-145.3 674.72,-136.42"/>
<polygon fill="#63b8ff" stroke="#63b8ff" points="677.25,-138.83 681.81,-129.27 672.28,-133.9 677.25,-138.83"/>
</g>
<!-- Node29&#45;&gt;Node17 -->
<g id="edge59" class="edge">
<title>Node29&#45;&gt;Node17</title>
<path fill="none" stroke="#63b8ff" d="M555.15,-165.65C493.8,-155.06 409.3,-140.48 353.12,-130.79"/>
<polygon fill="#63b8ff" stroke="#63b8ff" points="353.42,-127.29 342.97,-129.04 352.23,-134.19 353.42,-127.29"/>
</g>
<!-- Node29&#45;&gt;Node19 -->
<g id="edge57" class="edge">
<title>Node29&#45;&gt;Node19</title>
<path fill="none" stroke="#63b8ff" d="M621.12,-164.84C614.44,-156.52 605.95,-145.96 598.94,-137.23"/>
<polygon fill="#63b8ff" stroke="#63b8ff" points="601.53,-134.87 592.54,-129.27 596.08,-139.25 601.53,-134.87"/>
</g>
<!-- Node29&#45;&gt;Node20 -->
<g id="edge58" class="edge">
<title>Node29&#45;&gt;Node20</title>
<path fill="none" stroke="#63b8ff" d="M579.09,-164.99C540.1,-154.76 487.97,-141.09 451.85,-131.61"/>
<polygon fill="#63b8ff" stroke="#63b8ff" points="452.67,-128.21 442.11,-129.05 450.89,-134.98 452.67,-128.21"/>
</g>
<!-- Node30 -->
<g id="node30" class="node">
<title>Node30</title>
<g id="a_node30"><a xlink:href="_device_config_8h.html" target="_top" xlink:title="Node configuration options.">
<polygon fill="white" stroke="#666666" points="945.5,-129 855.5,-129 855.5,-110 945.5,-110 945.5,-129"/>
<text text-anchor="middle" x="900.5" y="-117" font-family="Helvetica,sans-Serif" font-size="10.00">DeviceConfig.h</text>
</a>
</g>
</g>
<!-- Node29&#45;&gt;Node30 -->
<g id="edge60" class="edge">
<title>Node29&#45;&gt;Node30</title>
<path fill="none" stroke="#63b8ff" d="M696.69,-164.99C744.25,-154.61 808.07,-140.68 851.54,-131.19"/>
<polygon fill="#63b8ff" stroke="#63b8ff" points="852.29,-134.61 861.31,-129.05 850.8,-127.77 852.29,-134.61"/>
</g>
<!-- Node30&#45;&gt;Node2 -->
<g id="edge61" class="edge">
<title>Node30&#45;&gt;Node2</title>
<path fill="none" stroke="#63b8ff" d="M924.85,-109.94C979.25,-90.79 1110.82,-44.51 1173.37,-22.51"/>
<polygon fill="#63b8ff" stroke="#63b8ff" points="1174.88,-25.69 1183.15,-19.07 1172.56,-19.08 1174.88,-25.69"/>
</g>
<!-- Node31 -->
<g id="node31" class="node">
<title>Node31</title>
<g id="a_node31"><a xlink:title=" ">
<polygon fill="#e0e0e0" stroke="#999999" points="944,-74 857,-74 857,-55 944,-55 944,-74"/>
<text text-anchor="middle" x="900.5" y="-62" font-family="Helvetica,sans-Serif" font-size="10.00">ArduinoJSON.h</text>
</a>
</g>
</g>
<!-- Node30&#45;&gt;Node31 -->
<g id="edge62" class="edge">
<title>Node30&#45;&gt;Node31</title>
<path fill="none" stroke="#63b8ff" d="M900.5,-109.75C900.5,-102.8 900.5,-92.85 900.5,-84.13"/>
<polygon fill="#63b8ff" stroke="#63b8ff" points="904,-84.09 900.5,-74.09 897,-84.09 904,-84.09"/>
</g>
<!-- Node32&#45;&gt;Node30 -->
<g id="edge64" class="edge">
<title>Node32&#45;&gt;Node30</title>
<path fill="none" stroke="#63b8ff" d="M986.43,-164.99C968.25,-155.58 944.43,-143.24 926.48,-133.95"/>
<polygon fill="#63b8ff" stroke="#63b8ff" points="927.68,-130.63 917.19,-129.14 924.46,-136.84 927.68,-130.63"/>
</g>
<!-- Node33&#45;&gt;Node30 -->
<g id="edge66" class="edge">
<title>Node33&#45;&gt;Node30</title>
<path fill="none" stroke="#63b8ff" d="M876.25,-164.84C880.65,-156.78 886.21,-146.62 890.9,-138.06"/>
<polygon fill="#63b8ff" stroke="#63b8ff" points="893.98,-139.72 895.7,-129.27 887.84,-136.36 893.98,-139.72"/>
</g>
</g>
</svg>
