<?xml version="1.0" encoding="UTF-8" standalone="no"?>
<!DOCTYPE svg PUBLIC "-//W3C//DTD SVG 1.1//EN"
 "http://www.w3.org/Graphics/SVG/1.1/DTD/svg11.dtd">
<!-- Generated by graphviz version 2.43.0 (0)
 -->
<!-- Title: firmware/wombat/include/bluetooth/uart.h Pages: 1 -->
<svg width="1962pt" height="379pt"
 viewBox="0.00 0.00 1961.60 379.00" xmlns="http://www.w3.org/2000/svg" xmlns:xlink="http://www.w3.org/1999/xlink">
<g id="graph0" class="graph" transform="scale(1 1) rotate(0) translate(4 375)">
<title>firmware/wombat/include/bluetooth/uart.h</title>
<!-- Node1 -->
<g id="node1" class="node">
<title>Node1</title>
<g id="a_node1"><a xlink:title="BluetoothLE UART service setup and handling.">
<polygon fill="#999999" stroke="#666666" points="297.1,-371 156.1,-371 156.1,-341 297.1,-341 297.1,-371"/>
<text text-anchor="start" x="164.1" y="-359" font-family="Helvetica,sans-Serif" font-size="10.00">firmware/wombat/include</text>
<text text-anchor="middle" x="226.6" y="-348" font-family="Helvetica,sans-Serif" font-size="10.00">/bluetooth/uart.h</text>
</a>
</g>
</g>
<!-- Node2 -->
<g id="node2" class="node">
<title>Node2</title>
<g id="a_node2"><a xlink:title=" ">
<polygon fill="#e0e0e0" stroke="#999999" points="713.1,-19 650.1,-19 650.1,0 713.1,0 713.1,-19"/>
<text text-anchor="middle" x="681.6" y="-7" font-family="Helvetica,sans-Serif" font-size="10.00">Arduino.h</text>
</a>
</g>
</g>
<!-- Node1&#45;&gt;Node2 -->
<g id="edge1" class="edge">
<title>Node1&#45;&gt;Node2</title>
<path fill="none" stroke="#63b8ff" d="M155.9,-345.56C103.98,-337.26 39.22,-323.6 19.6,-305 -1.79,-284.74 0.6,-270.96 0.6,-241.5 0.6,-241.5 0.6,-241.5 0.6,-118.5 0.6,-53.47 491.2,-21.03 639.58,-12.7"/>
<polygon fill="#63b8ff" stroke="#63b8ff" points="639.87,-16.19 649.66,-12.14 639.48,-9.2 639.87,-16.19"/>
</g>
<!-- Node3 -->
<g id="node3" class="node">
<title>Node3</title>
<g id="a_node3"><a xlink:title=" ">
<polygon fill="#e0e0e0" stroke="#999999" points="484.1,-189.5 373.1,-189.5 373.1,-170.5 484.1,-170.5 484.1,-189.5"/>
<text text-anchor="middle" x="428.6" y="-177.5" font-family="Helvetica,sans-Serif" font-size="10.00">BLECharacteristic.h</text>
</a>
</g>
</g>
<!-- Node1&#45;&gt;Node3 -->
<g id="edge2" class="edge">
<title>Node1&#45;&gt;Node3</title>
<path fill="none" stroke="#63b8ff" d="M229.27,-340.95C234.83,-315.45 250.05,-261.38 283.6,-231 298.66,-217.36 347.31,-202.21 384.14,-192.2"/>
<polygon fill="#63b8ff" stroke="#63b8ff" points="385.42,-195.48 394.18,-189.52 383.62,-188.72 385.42,-195.48"/>
</g>
<!-- Node4 -->
<g id="node4" class="node">
<title>Node4</title>
<g id="a_node4"><a xlink:title=" ">
<polygon fill="#e0e0e0" stroke="#999999" points="196.6,-189.5 122.6,-189.5 122.6,-170.5 196.6,-170.5 196.6,-189.5"/>
<text text-anchor="middle" x="159.6" y="-177.5" font-family="Helvetica,sans-Serif" font-size="10.00">BLEServer.h</text>
</a>
</g>
</g>
<!-- Node1&#45;&gt;Node4 -->
<g id="edge3" class="edge">
<title>Node1&#45;&gt;Node4</title>
<path fill="none" stroke="#63b8ff" d="M221.11,-340.76C208.99,-309.28 179.93,-233.81 166.55,-199.07"/>
<polygon fill="#63b8ff" stroke="#63b8ff" points="169.8,-197.76 162.94,-189.68 163.27,-200.27 169.8,-197.76"/>
</g>
<!-- Node5 -->
<g id="node5" class="node">
<title>Node5</title>
<g id="a_node5"><a xlink:title=" ">
<polygon fill="#e0e0e0" stroke="#999999" points="815.6,-189.5 747.6,-189.5 747.6,-170.5 815.6,-170.5 815.6,-189.5"/>
<text text-anchor="middle" x="781.6" y="-177.5" font-family="Helvetica,sans-Serif" font-size="10.00">BLE2902.h</text>
</a>
</g>
</g>
<!-- Node1&#45;&gt;Node5 -->
<g id="edge4" class="edge">
<title>Node1&#45;&gt;Node5</title>
<path fill="none" stroke="#63b8ff" d="M297.23,-352.86C434.52,-347.03 729.22,-325.77 789.6,-250 800.95,-235.75 796.11,-214.28 790.24,-199.08"/>
<polygon fill="#63b8ff" stroke="#63b8ff" points="793.38,-197.51 786.2,-189.72 786.95,-200.29 793.38,-197.51"/>
</g>
<!-- Node6 -->
<g id="node6" class="node">
<title>Node6</title>
<g id="a_node6"><a xlink:href="tones_8h.html" target="_top" xlink:title="Audio control for the onboard piezo buzzer.">
<polygon fill="white" stroke="#666666" points="160.1,-305 29.1,-305 29.1,-286 160.1,-286 160.1,-305"/>
<text text-anchor="middle" x="94.6" y="-293" font-family="Helvetica,sans-Serif" font-size="10.00">audio&#45;feedback/tones.h</text>
</a>
</g>
</g>
<!-- Node1&#45;&gt;Node6 -->
<g id="edge5" class="edge">
<title>Node1&#45;&gt;Node6</title>
<path fill="none" stroke="#63b8ff" d="M194.98,-340.99C173.25,-331.36 144.62,-318.67 123.5,-309.31"/>
<polygon fill="#63b8ff" stroke="#63b8ff" points="124.65,-305.99 114.09,-305.14 121.81,-312.39 124.65,-305.99"/>
</g>
<!-- Node7 -->
<g id="node7" class="node">
<title>Node7</title>
<g id="a_node7"><a xlink:href="server_8h.html" target="_top" xlink:title="Handle the setup and maintenance of the BLE server and connected clients.">
<polygon fill="white" stroke="#666666" points="541.1,-305 436.1,-305 436.1,-286 541.1,-286 541.1,-305"/>
<text text-anchor="middle" x="488.6" y="-293" font-family="Helvetica,sans-Serif" font-size="10.00">bluetooth/server.h</text>
</a>
</g>
</g>
<!-- Node1&#45;&gt;Node7 -->
<g id="edge7" class="edge">
<title>Node1&#45;&gt;Node7</title>
<path fill="none" stroke="#63b8ff" d="M283.49,-340.99C328.64,-330.61 391.21,-316.68 435.38,-307.19"/>
<polygon fill="#63b8ff" stroke="#63b8ff" points="436.3,-310.57 445.35,-305.05 434.84,-303.72 436.3,-310.57"/>
</g>
<!-- Node6&#45;&gt;Node2 -->
<g id="edge6" class="edge">
<title>Node6&#45;&gt;Node2</title>
<path fill="none" stroke="#63b8ff" d="M94.6,-285.96C94.6,-267.05 94.6,-220.21 94.6,-181 94.6,-181 94.6,-181 94.6,-118.5 94.6,-63.01 505.55,-24.77 639.76,-13.76"/>
<polygon fill="#63b8ff" stroke="#63b8ff" points="640.35,-17.22 650.04,-12.93 639.79,-10.25 640.35,-17.22"/>
</g>
<!-- Node7&#45;&gt;Node1 -->
<g id="edge12" class="edge">
<title>Node7&#45;&gt;Node1</title>
<path fill="none" stroke="#63b8ff" d="M455.23,-305.05C417.56,-313.89 355.19,-327.91 305.06,-338.84"/>
<polygon fill="#63b8ff" stroke="#63b8ff" points="304.24,-335.44 295.21,-340.99 305.73,-342.28 304.24,-335.44"/>
</g>
<!-- Node7&#45;&gt;Node4 -->
<g id="edge9" class="edge">
<title>Node7&#45;&gt;Node4</title>
<path fill="none" stroke="#63b8ff" d="M435.99,-287.45C393.84,-280.77 333.69,-268.9 283.6,-250 245.34,-235.57 204.57,-210.85 180.62,-195.24"/>
<polygon fill="#63b8ff" stroke="#63b8ff" points="182.29,-192.15 172.02,-189.56 178.43,-197.99 182.29,-192.15"/>
</g>
<!-- Node7&#45;&gt;Node5 -->
<g id="edge11" class="edge">
<title>Node7&#45;&gt;Node5</title>
<path fill="none" stroke="#63b8ff" d="M541.27,-293.35C613.84,-290.61 739.2,-281.34 770.6,-250 783.58,-237.03 785.06,-215.3 784.1,-199.68"/>
<polygon fill="#63b8ff" stroke="#63b8ff" points="787.57,-199.21 783.1,-189.61 780.6,-199.91 787.57,-199.21"/>
</g>
<!-- Node8 -->
<g id="node8" class="node">
<title>Node8</title>
<g id="a_node8"><a xlink:title=" ">
<polygon fill="#e0e0e0" stroke="#999999" points="370.1,-250 293.1,-250 293.1,-231 370.1,-231 370.1,-250"/>
<text text-anchor="middle" x="331.6" y="-238" font-family="Helvetica,sans-Serif" font-size="10.00">BLEDevice.h</text>
</a>
</g>
</g>
<!-- Node7&#45;&gt;Node8 -->
<g id="edge8" class="edge">
<title>Node7&#45;&gt;Node8</title>
<path fill="none" stroke="#63b8ff" d="M463.37,-285.98C437.24,-277.16 396.2,-263.31 366.86,-253.41"/>
<polygon fill="#63b8ff" stroke="#63b8ff" points="367.61,-249.96 357.02,-250.08 365.37,-256.6 367.61,-249.96"/>
</g>
<!-- Node9 -->
<g id="node9" class="node">
<title>Node9</title>
<g id="a_node9"><a xlink:title=" ">
<polygon fill="#e0e0e0" stroke="#999999" points="454.6,-250 388.6,-250 388.6,-231 454.6,-231 454.6,-250"/>
<text text-anchor="middle" x="421.6" y="-238" font-family="Helvetica,sans-Serif" font-size="10.00">BLEUtils.h</text>
</a>
</g>
</g>
<!-- Node7&#45;&gt;Node9 -->
<g id="edge10" class="edge">
<title>Node7&#45;&gt;Node9</title>
<path fill="none" stroke="#63b8ff" d="M477.83,-285.98C467.83,-278.07 452.71,-266.11 440.67,-256.58"/>
<polygon fill="#63b8ff" stroke="#63b8ff" points="442.57,-253.63 432.56,-250.17 438.23,-259.12 442.57,-253.63"/>
</g>
<!-- Node10 -->
<g id="node10" class="node">
<title>Node10</title>
<g id="a_node10"><a xlink:href="device_8h.html" target="_top" xlink:title="Bluetooth device services and device information.">
<polygon fill="white" stroke="#666666" points="762.1,-250 655.1,-250 655.1,-231 762.1,-231 762.1,-250"/>
<text text-anchor="middle" x="708.6" y="-238" font-family="Helvetica,sans-Serif" font-size="10.00">bluetooth/device.h</text>
</a>
</g>
</g>
<!-- Node7&#45;&gt;Node10 -->
<g id="edge13" class="edge">
<title>Node7&#45;&gt;Node10</title>
<path fill="none" stroke="#63b8ff" d="M523.94,-285.98C561.76,-276.87 621.86,-262.4 663.16,-252.45"/>
<polygon fill="#63b8ff" stroke="#63b8ff" points="664.07,-255.83 672.97,-250.08 662.43,-249.02 664.07,-255.83"/>
</g>
<!-- Node11 -->
<g id="node11" class="node">
<title>Node11</title>
<g id="a_node11"><a xlink:href="power__monitoring_8h.html" target="_top" xlink:title="Setup BluetoothLE power monitoring information.">
<polygon fill="white" stroke="#666666" points="636.6,-250 472.6,-250 472.6,-231 636.6,-231 636.6,-250"/>
<text text-anchor="middle" x="554.6" y="-238" font-family="Helvetica,sans-Serif" font-size="10.00">bluetooth/power_monitoring.h</text>
</a>
</g>
</g>
<!-- Node7&#45;&gt;Node11 -->
<g id="edge18" class="edge">
<title>Node7&#45;&gt;Node11</title>
<path fill="none" stroke="#63b8ff" d="M499.2,-285.98C509.05,-278.07 523.95,-266.11 535.81,-256.58"/>
<polygon fill="#63b8ff" stroke="#63b8ff" points="538.19,-259.16 543.8,-250.17 533.81,-253.7 538.19,-259.16"/>
</g>
<!-- Node15 -->
<g id="node15" class="node">
<title>Node15</title>
<g id="a_node15"><a xlink:href="_c_l_i_8h.html" target="_top" xlink:title=" ">
<polygon fill="white" stroke="#666666" points="1251.1,-250 1196.1,-250 1196.1,-231 1251.1,-231 1251.1,-250"/>
<text text-anchor="middle" x="1223.6" y="-238" font-family="Helvetica,sans-Serif" font-size="10.00">cli/CLI.h</text>
</a>
</g>
</g>
<!-- Node7&#45;&gt;Node15 -->
<g id="edge29" class="edge">
<title>Node7&#45;&gt;Node15</title>
<path fill="none" stroke="#63b8ff" d="M541.16,-290.71C681.65,-280.58 1063.46,-253.05 1185.53,-244.25"/>
<polygon fill="#63b8ff" stroke="#63b8ff" points="1186.13,-247.71 1195.85,-243.5 1185.63,-240.73 1186.13,-247.71"/>
</g>
<!-- Node10&#45;&gt;Node2 -->
<g id="edge14" class="edge">
<title>Node10&#45;&gt;Node2</title>
<path fill="none" stroke="#63b8ff" d="M708.7,-230.95C708.87,-204.52 708.29,-121.88 695.6,-55 693.93,-46.25 691.12,-36.8 688.44,-28.87"/>
<polygon fill="#63b8ff" stroke="#63b8ff" points="691.65,-27.46 685.01,-19.21 685.06,-29.8 691.65,-27.46"/>
</g>
<!-- Node10&#45;&gt;Node3 -->
<g id="edge15" class="edge">
<title>Node10&#45;&gt;Node3</title>
<path fill="none" stroke="#63b8ff" d="M666.35,-230.95C622.78,-222.11 552.89,-207.81 492.6,-195 487.58,-193.93 482.34,-192.81 477.12,-191.68"/>
<polygon fill="#63b8ff" stroke="#63b8ff" points="477.68,-188.22 467.16,-189.52 476.19,-195.06 477.68,-188.22"/>
</g>
<!-- Node10&#45;&gt;Node4 -->
<g id="edge16" class="edge">
<title>Node10&#45;&gt;Node4</title>
<path fill="none" stroke="#63b8ff" d="M655,-232.07C651.82,-231.69 648.67,-231.33 645.6,-231 450.53,-209.88 398.33,-231.77 205.6,-195 201.74,-194.26 197.75,-193.33 193.8,-192.29"/>
<polygon fill="#63b8ff" stroke="#63b8ff" points="194.76,-188.92 184.18,-189.54 192.84,-195.65 194.76,-188.92"/>
</g>
<!-- Node10&#45;&gt;Node5 -->
<g id="edge17" class="edge">
<title>Node10&#45;&gt;Node5</title>
<path fill="none" stroke="#63b8ff" d="M719.37,-230.87C730.8,-221.71 749.07,-207.06 762.87,-196.01"/>
<polygon fill="#63b8ff" stroke="#63b8ff" points="765.17,-198.65 770.78,-189.67 760.79,-193.19 765.17,-198.65"/>
</g>
<!-- Node11&#45;&gt;Node2 -->
<g id="edge19" class="edge">
<title>Node11&#45;&gt;Node2</title>
<path fill="none" stroke="#63b8ff" d="M602.78,-230.98C624.13,-224.67 647.55,-213.77 661.6,-195 698.87,-145.18 691.29,-65.55 685.32,-29.42"/>
<polygon fill="#63b8ff" stroke="#63b8ff" points="688.71,-28.53 683.49,-19.31 681.82,-29.77 688.71,-28.53"/>
</g>
<!-- Node11&#45;&gt;Node3 -->
<g id="edge20" class="edge">
<title>Node11&#45;&gt;Node3</title>
<path fill="none" stroke="#63b8ff" d="M536.27,-230.99C515.18,-221.2 480.33,-205.02 456.01,-193.73"/>
<polygon fill="#63b8ff" stroke="#63b8ff" points="457.48,-190.55 446.94,-189.52 454.54,-196.9 457.48,-190.55"/>
</g>
<!-- Node11&#45;&gt;Node4 -->
<g id="edge21" class="edge">
<title>Node11&#45;&gt;Node4</title>
<path fill="none" stroke="#63b8ff" d="M475.46,-230.98C388.79,-221.37 255.47,-205.69 205.6,-195 202.14,-194.26 198.58,-193.38 195.03,-192.43"/>
<polygon fill="#63b8ff" stroke="#63b8ff" points="195.76,-189 185.18,-189.62 193.84,-195.73 195.76,-189"/>
</g>
<!-- Node11&#45;&gt;Node5 -->
<g id="edge22" class="edge">
<title>Node11&#45;&gt;Node5</title>
<path fill="none" stroke="#63b8ff" d="M587.6,-230.99C627.53,-220.7 694.84,-203.36 738.74,-192.04"/>
<polygon fill="#63b8ff" stroke="#63b8ff" points="739.74,-195.4 748.55,-189.52 737.99,-188.62 739.74,-195.4"/>
</g>
<!-- Node12 -->
<g id="node12" class="node">
<title>Node12</title>
<g id="a_node12"><a xlink:href="solar_8h.html" target="_top" xlink:title=" ">
<polygon fill="white" stroke="#666666" points="354.6,-189.5 214.6,-189.5 214.6,-170.5 354.6,-170.5 354.6,-189.5"/>
<text text-anchor="middle" x="284.6" y="-177.5" font-family="Helvetica,sans-Serif" font-size="10.00">power_monitoring/solar.h</text>
</a>
</g>
</g>
<!-- Node11&#45;&gt;Node12 -->
<g id="edge23" class="edge">
<title>Node11&#45;&gt;Node12</title>
<path fill="none" stroke="#63b8ff" d="M515.34,-230.99C467.34,-220.6 386.1,-202.99 333.93,-191.69"/>
<polygon fill="#63b8ff" stroke="#63b8ff" points="334.42,-188.21 323.9,-189.52 332.94,-195.05 334.42,-188.21"/>
</g>
<!-- Node14 -->
<g id="node14" class="node">
<title>Node14</title>
<g id="a_node14"><a xlink:href="battery_8h.html" target="_top" xlink:title=" ">
<polygon fill="white" stroke="#666666" points="653.1,-189.5 502.1,-189.5 502.1,-170.5 653.1,-170.5 653.1,-189.5"/>
<text text-anchor="middle" x="577.6" y="-177.5" font-family="Helvetica,sans-Serif" font-size="10.00">power_monitoring/battery.h</text>
</a>
</g>
</g>
<!-- Node11&#45;&gt;Node14 -->
<g id="edge26" class="edge">
<title>Node11&#45;&gt;Node14</title>
<path fill="none" stroke="#63b8ff" d="M557.99,-230.87C561.25,-222.57 566.28,-209.78 570.43,-199.22"/>
<polygon fill="#63b8ff" stroke="#63b8ff" points="573.79,-200.25 574.19,-189.67 567.27,-197.69 573.79,-200.25"/>
</g>
<!-- Node12&#45;&gt;Node2 -->
<g id="edge24" class="edge">
<title>Node12&#45;&gt;Node2</title>
<path fill="none" stroke="#63b8ff" d="M301.01,-170.49C327.25,-157.01 380.39,-130.2 426.6,-110 505.01,-75.72 599.3,-40.43 648.32,-22.51"/>
<polygon fill="#63b8ff" stroke="#63b8ff" points="649.58,-25.78 657.78,-19.06 647.19,-19.2 649.58,-25.78"/>
</g>
<!-- Node13 -->
<g id="node13" class="node">
<title>Node13</title>
<g id="a_node13"><a xlink:title=" ">
<polygon fill="#e0e0e0" stroke="#999999" points="541.1,-129 436.1,-129 436.1,-110 541.1,-110 541.1,-129"/>
<text text-anchor="middle" x="488.6" y="-117" font-family="Helvetica,sans-Serif" font-size="10.00">Adafruit_INA219.h</text>
</a>
</g>
</g>
<!-- Node12&#45;&gt;Node13 -->
<g id="edge25" class="edge">
<title>Node12&#45;&gt;Node13</title>
<path fill="none" stroke="#63b8ff" d="M314.26,-170.49C349.84,-160.29 409.61,-143.15 449.08,-131.83"/>
<polygon fill="#63b8ff" stroke="#63b8ff" points="450.25,-135.14 458.9,-129.02 448.32,-128.41 450.25,-135.14"/>
</g>
<!-- Node14&#45;&gt;Node2 -->
<g id="edge27" class="edge">
<title>Node14&#45;&gt;Node2</title>
<path fill="none" stroke="#63b8ff" d="M582.9,-170.41C599.17,-144.05 648.62,-63.93 670.72,-28.12"/>
<polygon fill="#63b8ff" stroke="#63b8ff" points="673.91,-29.62 676.18,-19.27 667.95,-25.94 673.91,-29.62"/>
</g>
<!-- Node14&#45;&gt;Node13 -->
<g id="edge28" class="edge">
<title>Node14&#45;&gt;Node13</title>
<path fill="none" stroke="#63b8ff" d="M564.46,-170.37C550.27,-161.04 527.4,-146.01 510.48,-134.88"/>
<polygon fill="#63b8ff" stroke="#63b8ff" points="512.06,-131.74 501.78,-129.17 508.22,-137.58 512.06,-131.74"/>
</g>
<!-- Node15&#45;&gt;Node2 -->
<g id="edge30" class="edge">
<title>Node15&#45;&gt;Node2</title>
<path fill="none" stroke="#63b8ff" d="M1195.96,-238.44C1122.02,-235.23 921.34,-224.02 862.6,-195 841.76,-184.71 736.09,-70.23 696.55,-26.94"/>
<polygon fill="#63b8ff" stroke="#63b8ff" points="698.9,-24.32 689.57,-19.29 693.73,-29.03 698.9,-24.32"/>
</g>
<!-- Node16 -->
<g id="node16" class="node">
<title>Node16</title>
<g id="a_node16"><a xlink:title=" ">
<polygon fill="#e0e0e0" stroke="#999999" points="1717.1,-129 1604.1,-129 1604.1,-110 1717.1,-110 1717.1,-129"/>
<text text-anchor="middle" x="1660.6" y="-117" font-family="Helvetica,sans-Serif" font-size="10.00">freertos/FreeRTOS.h</text>
</a>
</g>
</g>
<!-- Node15&#45;&gt;Node16 -->
<g id="edge31" class="edge">
<title>Node15&#45;&gt;Node16</title>
<path fill="none" stroke="#63b8ff" d="M1251.32,-239.64C1365.41,-239.94 1794.45,-238.18 1834.6,-195 1871.08,-155.77 1790.53,-136.29 1727.21,-127.32"/>
<polygon fill="#63b8ff" stroke="#63b8ff" points="1727.59,-123.84 1717.22,-125.97 1726.66,-130.77 1727.59,-123.84"/>
</g>
<!-- Node17 -->
<g id="node17" class="node">
<title>Node17</title>
<g id="a_node17"><a xlink:title=" ">
<polygon fill="#e0e0e0" stroke="#999999" points="1317.1,-129 1210.1,-129 1210.1,-110 1317.1,-110 1317.1,-129"/>
<text text-anchor="middle" x="1263.6" y="-117" font-family="Helvetica,sans-Serif" font-size="10.00">cli/FreeRTOS_CLI.h</text>
</a>
</g>
</g>
<!-- Node15&#45;&gt;Node17 -->
<g id="edge32" class="edge">
<title>Node15&#45;&gt;Node17</title>
<path fill="none" stroke="#63b8ff" d="M1214.65,-230.98C1200.97,-216.87 1177.71,-187.94 1190.6,-165 1198.7,-150.56 1213.61,-140.26 1227.85,-133.22"/>
<polygon fill="#63b8ff" stroke="#63b8ff" points="1229.36,-136.38 1237.03,-129.06 1226.48,-130 1229.36,-136.38"/>
</g>
<!-- Node18 -->
<g id="node18" class="node">
<title>Node18</title>
<g id="a_node18"><a xlink:href="cat-m1_8h.html" target="_top" xlink:title=" ">
<polygon fill="white" stroke="#666666" points="1503.6,-189.5 1371.6,-189.5 1371.6,-170.5 1503.6,-170.5 1503.6,-189.5"/>
<text text-anchor="middle" x="1437.6" y="-177.5" font-family="Helvetica,sans-Serif" font-size="10.00">cli/peripherals/cat&#45;m1.h</text>
</a>
</g>
</g>
<!-- Node15&#45;&gt;Node18 -->
<g id="edge33" class="edge">
<title>Node15&#45;&gt;Node18</title>
<path fill="none" stroke="#63b8ff" d="M1251.13,-231.97C1288.03,-221.89 1353.79,-203.91 1396.54,-192.22"/>
<polygon fill="#63b8ff" stroke="#63b8ff" points="1397.62,-195.56 1406.35,-189.54 1395.78,-188.8 1397.62,-195.56"/>
</g>
<!-- Node24 -->
<g id="node24" class="node">
<title>Node24</title>
<g id="a_node24"><a xlink:href="sdi12_8h.html" target="_top" xlink:title=" ">
<polygon fill="white" stroke="#666666" points="1807.6,-189.5 1683.6,-189.5 1683.6,-170.5 1807.6,-170.5 1807.6,-189.5"/>
<text text-anchor="middle" x="1745.6" y="-177.5" font-family="Helvetica,sans-Serif" font-size="10.00">cli/peripherals/sdi12.h</text>
</a>
</g>
</g>
<!-- Node15&#45;&gt;Node24 -->
<g id="edge43" class="edge">
<title>Node15&#45;&gt;Node24</title>
<path fill="none" stroke="#63b8ff" d="M1251.16,-237.71C1321.82,-232.92 1515.03,-218.55 1674.6,-195 1681.44,-193.99 1688.63,-192.77 1695.7,-191.47"/>
<polygon fill="#63b8ff" stroke="#63b8ff" points="1696.74,-194.83 1705.91,-189.53 1695.43,-187.95 1696.74,-194.83"/>
</g>
<!-- Node29 -->
<g id="node29" class="node">
<title>Node29</title>
<g id="a_node29"><a xlink:href="bluetooth_8h.html" target="_top" xlink:title=" ">
<polygon fill="white" stroke="#666666" points="1665.6,-189.5 1521.6,-189.5 1521.6,-170.5 1665.6,-170.5 1665.6,-189.5"/>
<text text-anchor="middle" x="1593.6" y="-177.5" font-family="Helvetica,sans-Serif" font-size="10.00">cli/peripherals/bluetooth.h</text>
</a>
</g>
</g>
<!-- Node15&#45;&gt;Node29 -->
<g id="edge54" class="edge">
<title>Node15&#45;&gt;Node29</title>
<path fill="none" stroke="#63b8ff" d="M1251.12,-235.43C1302.53,-227.8 1416.65,-210.68 1512.6,-195 1519.94,-193.8 1527.65,-192.51 1535.28,-191.21"/>
<polygon fill="#63b8ff" stroke="#63b8ff" points="1535.95,-194.65 1545.22,-189.51 1534.77,-187.75 1535.95,-194.65"/>
</g>
<!-- Node30 -->
<g id="node30" class="node">
<title>Node30</title>
<g id="a_node30"><a xlink:href="acquisition__intervals_8h.html" target="_top" xlink:title="Handles the time between measurements and uplinks by the device over LTE.">
<polygon fill="white" stroke="#666666" points="1353.6,-195 1199.6,-195 1199.6,-165 1353.6,-165 1353.6,-195"/>
<text text-anchor="start" x="1207.6" y="-183" font-family="Helvetica,sans-Serif" font-size="10.00">cli/device_config/acquisition</text>
<text text-anchor="middle" x="1276.6" y="-172" font-family="Helvetica,sans-Serif" font-size="10.00">_intervals.h</text>
</a>
</g>
</g>
<!-- Node15&#45;&gt;Node30 -->
<g id="edge59" class="edge">
<title>Node15&#45;&gt;Node30</title>
<path fill="none" stroke="#63b8ff" d="M1231.42,-230.87C1238.14,-223.44 1248.13,-212.42 1257.01,-202.62"/>
<polygon fill="#63b8ff" stroke="#63b8ff" points="1259.69,-204.88 1263.81,-195.11 1254.5,-200.18 1259.69,-204.88"/>
</g>
<!-- Node33 -->
<g id="node33" class="node">
<title>Node33</title>
<g id="a_node33"><a xlink:href="mqtt__cli_8h.html" target="_top" xlink:title=" ">
<polygon fill="white" stroke="#666666" points="1143.6,-195 1019.6,-195 1019.6,-165 1143.6,-165 1143.6,-195"/>
<text text-anchor="start" x="1027.6" y="-183" font-family="Helvetica,sans-Serif" font-size="10.00">cli/device_config/mqtt</text>
<text text-anchor="middle" x="1081.6" y="-172" font-family="Helvetica,sans-Serif" font-size="10.00">_cli.h</text>
</a>
</g>
</g>
<!-- Node15&#45;&gt;Node33 -->
<g id="edge67" class="edge">
<title>Node15&#45;&gt;Node33</title>
<path fill="none" stroke="#63b8ff" d="M1202.95,-230.99C1182.6,-222.61 1150.89,-209.55 1124.98,-198.87"/>
<polygon fill="#63b8ff" stroke="#63b8ff" points="1126.31,-195.64 1115.73,-195.06 1123.65,-202.11 1126.31,-195.64"/>
</g>
<!-- Node34 -->
<g id="node34" class="node">
<title>Node34</title>
<g id="a_node34"><a xlink:href="config__cli_8h.html" target="_top" xlink:title=" ">
<polygon fill="white" stroke="#666666" points="1001.6,-195 871.6,-195 871.6,-165 1001.6,-165 1001.6,-195"/>
<text text-anchor="start" x="879.6" y="-183" font-family="Helvetica,sans-Serif" font-size="10.00">cli/device_config/config</text>
<text text-anchor="middle" x="936.6" y="-172" font-family="Helvetica,sans-Serif" font-size="10.00">_cli.h</text>
</a>
</g>
</g>
<!-- Node15&#45;&gt;Node34 -->
<g id="edge69" class="edge">
<title>Node15&#45;&gt;Node34</title>
<path fill="none" stroke="#63b8ff" d="M1196.08,-233.89C1154.01,-225.32 1072.24,-208.65 1011.68,-196.31"/>
<polygon fill="#63b8ff" stroke="#63b8ff" points="1012.28,-192.85 1001.78,-194.29 1010.88,-199.71 1012.28,-192.85"/>
</g>
<!-- Node18&#45;&gt;Node16 -->
<g id="edge34" class="edge">
<title>Node18&#45;&gt;Node16</title>
<path fill="none" stroke="#63b8ff" d="M1470.02,-170.49C1509.16,-160.23 1575.09,-142.93 1618.22,-131.62"/>
<polygon fill="#63b8ff" stroke="#63b8ff" points="1619.35,-134.94 1628.13,-129.02 1617.57,-128.17 1619.35,-134.94"/>
</g>
<!-- Node18&#45;&gt;Node17 -->
<g id="edge37" class="edge">
<title>Node18&#45;&gt;Node17</title>
<path fill="none" stroke="#63b8ff" d="M1412.29,-170.49C1382.4,-160.44 1332.47,-143.66 1298.81,-132.34"/>
<polygon fill="#63b8ff" stroke="#63b8ff" points="1299.52,-128.89 1288.93,-129.02 1297.29,-135.52 1299.52,-128.89"/>
</g>
<!-- Node19 -->
<g id="node19" class="node">
<title>Node19</title>
<g id="a_node19"><a xlink:title=" ">
<polygon fill="#e0e0e0" stroke="#999999" points="1586.1,-129 1525.1,-129 1525.1,-110 1586.1,-110 1586.1,-129"/>
<text text-anchor="middle" x="1555.6" y="-117" font-family="Helvetica,sans-Serif" font-size="10.00">Stream.h</text>
</a>
</g>
</g>
<!-- Node18&#45;&gt;Node19 -->
<g id="edge35" class="edge">
<title>Node18&#45;&gt;Node19</title>
<path fill="none" stroke="#63b8ff" d="M1454.75,-170.49C1474.33,-160.79 1506.57,-144.81 1529.31,-133.53"/>
<polygon fill="#63b8ff" stroke="#63b8ff" points="1531.01,-136.59 1538.42,-129.02 1527.9,-130.32 1531.01,-136.59"/>
</g>
<!-- Node20 -->
<g id="node20" class="node">
<title>Node20</title>
<g id="a_node20"><a xlink:title=" ">
<polygon fill="#e0e0e0" stroke="#999999" points="1507.1,-129 1418.1,-129 1418.1,-110 1507.1,-110 1507.1,-129"/>
<text text-anchor="middle" x="1462.6" y="-117" font-family="Helvetica,sans-Serif" font-size="10.00">StreamString.h</text>
</a>
</g>
</g>
<!-- Node18&#45;&gt;Node20 -->
<g id="edge36" class="edge">
<title>Node18&#45;&gt;Node20</title>
<path fill="none" stroke="#63b8ff" d="M1441.28,-170.37C1444.87,-161.99 1450.41,-149.01 1454.95,-138.39"/>
<polygon fill="#63b8ff" stroke="#63b8ff" points="1458.18,-139.74 1458.89,-129.17 1451.74,-136.99 1458.18,-139.74"/>
</g>
<!-- Node21 -->
<g id="node21" class="node">
<title>Node21</title>
<g id="a_node21"><a xlink:href="_c_a_t___m1_8h.html" target="_top" xlink:title=" ">
<polygon fill="white" stroke="#666666" points="1400.1,-129 1335.1,-129 1335.1,-110 1400.1,-110 1400.1,-129"/>
<text text-anchor="middle" x="1367.6" y="-117" font-family="Helvetica,sans-Serif" font-size="10.00">CAT_M1.h</text>
</a>
</g>
</g>
<!-- Node18&#45;&gt;Node21 -->
<g id="edge38" class="edge">
<title>Node18&#45;&gt;Node21</title>
<path fill="none" stroke="#63b8ff" d="M1427.27,-170.37C1416.41,-161.3 1399.11,-146.84 1385.93,-135.82"/>
<polygon fill="#63b8ff" stroke="#63b8ff" points="1387.88,-132.89 1377.97,-129.17 1383.4,-138.27 1387.88,-132.89"/>
</g>
<!-- Node22 -->
<g id="node22" class="node">
<title>Node22</title>
<g id="a_node22"><a xlink:title=" ">
<polygon fill="#e0e0e0" stroke="#999999" points="1360.6,-19 1312.6,-19 1312.6,0 1360.6,0 1360.6,-19"/>
<text text-anchor="middle" x="1336.6" y="-7" font-family="Helvetica,sans-Serif" font-size="10.00">Wire.h</text>
</a>
</g>
</g>
<!-- Node21&#45;&gt;Node22 -->
<g id="edge39" class="edge">
<title>Node21&#45;&gt;Node22</title>
<path fill="none" stroke="#63b8ff" d="M1365.06,-109.66C1360.02,-92.09 1348.64,-52.45 1341.89,-28.95"/>
<polygon fill="#63b8ff" stroke="#63b8ff" points="1345.2,-27.8 1339.08,-19.16 1338.48,-29.74 1345.2,-27.8"/>
</g>
<!-- Node23 -->
<g id="node23" class="node">
<title>Node23</title>
<g id="a_node23"><a xlink:href="_t_c_a9534_8h.html" target="_top" xlink:title=" ">
<polygon fill="white" stroke="#666666" points="1339.6,-74 1271.6,-74 1271.6,-55 1339.6,-55 1339.6,-74"/>
<text text-anchor="middle" x="1305.6" y="-62" font-family="Helvetica,sans-Serif" font-size="10.00">TCA9534.h</text>
</a>
</g>
</g>
<!-- Node21&#45;&gt;Node23 -->
<g id="edge40" class="edge">
<title>Node21&#45;&gt;Node23</title>
<path fill="none" stroke="#63b8ff" d="M1357.63,-109.98C1348.47,-102.15 1334.66,-90.34 1323.57,-80.86"/>
<polygon fill="#63b8ff" stroke="#63b8ff" points="1325.61,-78.01 1315.74,-74.17 1321.07,-83.33 1325.61,-78.01"/>
</g>
<!-- Node23&#45;&gt;Node2 -->
<g id="edge41" class="edge">
<title>Node23&#45;&gt;Node2</title>
<path fill="none" stroke="#63b8ff" d="M1271.16,-60.57C1164.5,-51.52 839.82,-23.94 723.56,-14.06"/>
<polygon fill="#63b8ff" stroke="#63b8ff" points="723.55,-10.55 713.29,-13.19 722.96,-17.53 723.55,-10.55"/>
</g>
<!-- Node23&#45;&gt;Node22 -->
<g id="edge42" class="edge">
<title>Node23&#45;&gt;Node22</title>
<path fill="none" stroke="#63b8ff" d="M1310.71,-54.75C1314.96,-47.49 1321.12,-36.95 1326.37,-27.98"/>
<polygon fill="#63b8ff" stroke="#63b8ff" points="1329.54,-29.49 1331.57,-19.09 1323.5,-25.95 1329.54,-29.49"/>
</g>
<!-- Node24&#45;&gt;Node16 -->
<g id="edge44" class="edge">
<title>Node24&#45;&gt;Node16</title>
<path fill="none" stroke="#63b8ff" d="M1733.05,-170.37C1719.49,-161.04 1697.66,-146.01 1681.5,-134.88"/>
<polygon fill="#63b8ff" stroke="#63b8ff" points="1683.41,-131.95 1673.19,-129.17 1679.44,-137.72 1683.41,-131.95"/>
</g>
<!-- Node24&#45;&gt;Node17 -->
<g id="edge49" class="edge">
<title>Node24&#45;&gt;Node17</title>
<path fill="none" stroke="#63b8ff" d="M1705.53,-170.43C1695.46,-168.47 1684.66,-166.51 1674.6,-165 1524.13,-142.43 1482.76,-147.18 1327.59,-129.07"/>
<polygon fill="#63b8ff" stroke="#63b8ff" points="1327.54,-125.54 1317.2,-127.85 1326.72,-132.5 1327.54,-125.54"/>
</g>
<!-- Node24&#45;&gt;Node19 -->
<g id="edge45" class="edge">
<title>Node24&#45;&gt;Node19</title>
<path fill="none" stroke="#63b8ff" d="M1717.97,-170.49C1685.04,-160.36 1629.87,-143.37 1593.1,-132.05"/>
<polygon fill="#63b8ff" stroke="#63b8ff" points="1593.84,-128.61 1583.26,-129.02 1591.78,-135.3 1593.84,-128.61"/>
</g>
<!-- Node24&#45;&gt;Node20 -->
<g id="edge46" class="edge">
<title>Node24&#45;&gt;Node20</title>
<path fill="none" stroke="#63b8ff" d="M1704.44,-170.49C1653.93,-160.05 1568.27,-142.35 1513.62,-131.05"/>
<polygon fill="#63b8ff" stroke="#63b8ff" points="1514.3,-127.61 1503.8,-129.02 1512.88,-134.47 1514.3,-127.61"/>
</g>
<!-- Node24&#45;&gt;Node24 -->
<g id="edge47" class="edge">
<title>Node24&#45;&gt;Node24</title>
<path fill="none" stroke="#63b8ff" d="M1775.13,-189.53C1799.81,-193.61 1825.6,-190.43 1825.6,-180 1825.6,-171 1806.38,-167.4 1785.25,-169.2"/>
<polygon fill="#63b8ff" stroke="#63b8ff" points="1784.62,-165.75 1775.13,-170.47 1785.49,-172.7 1784.62,-165.75"/>
</g>
<!-- Node25 -->
<g id="node25" class="node">
<title>Node25</title>
<g id="a_node25"><a xlink:title=" ">
<polygon fill="#e0e0e0" stroke="#999999" points="1778.1,-74 1685.1,-74 1685.1,-55 1778.1,-55 1778.1,-74"/>
<text text-anchor="middle" x="1731.6" y="-62" font-family="Helvetica,sans-Serif" font-size="10.00">dpiclimate&#45;12.h</text>
</a>
</g>
</g>
<!-- Node24&#45;&gt;Node25 -->
<g id="edge48" class="edge">
<title>Node24&#45;&gt;Node25</title>
<path fill="none" stroke="#63b8ff" d="M1744.54,-170.47C1742.29,-152.23 1736.97,-109.07 1733.9,-84.14"/>
<polygon fill="#63b8ff" stroke="#63b8ff" points="1737.36,-83.63 1732.66,-74.13 1730.41,-84.48 1737.36,-83.63"/>
</g>
<!-- Node26 -->
<g id="node26" class="node">
<title>Node26</title>
<g id="a_node26"><a xlink:href="_utils_8h.html" target="_top" xlink:title=" ">
<polygon fill="white" stroke="#666666" points="1848.6,-129 1800.6,-129 1800.6,-110 1848.6,-110 1848.6,-129"/>
<text text-anchor="middle" x="1824.6" y="-117" font-family="Helvetica,sans-Serif" font-size="10.00">Utils.h</text>
</a>
</g>
</g>
<!-- Node24&#45;&gt;Node26 -->
<g id="edge50" class="edge">
<title>Node24&#45;&gt;Node26</title>
<path fill="none" stroke="#63b8ff" d="M1757.25,-170.37C1769.74,-161.12 1789.78,-146.28 1804.75,-135.19"/>
<polygon fill="#63b8ff" stroke="#63b8ff" points="1806.94,-137.93 1812.89,-129.17 1802.77,-132.31 1806.94,-137.93"/>
</g>
<!-- Node26&#45;&gt;Node25 -->
<g id="edge53" class="edge">
<title>Node26&#45;&gt;Node25</title>
<path fill="none" stroke="#63b8ff" d="M1809.65,-109.98C1795.1,-101.69 1772.73,-88.94 1755.66,-79.22"/>
<polygon fill="#63b8ff" stroke="#63b8ff" points="1757.23,-76.08 1746.81,-74.17 1753.76,-82.16 1757.23,-76.08"/>
</g>
<!-- Node27 -->
<g id="node27" class="node">
<title>Node27</title>
<g id="a_node27"><a xlink:title=" ">
<polygon fill="#e0e0e0" stroke="#999999" points="1953.6,-74 1897.6,-74 1897.6,-55 1953.6,-55 1953.6,-74"/>
<text text-anchor="middle" x="1925.6" y="-62" font-family="Helvetica,sans-Serif" font-size="10.00">stddef.h</text>
</a>
</g>
</g>
<!-- Node26&#45;&gt;Node27 -->
<g id="edge51" class="edge">
<title>Node26&#45;&gt;Node27</title>
<path fill="none" stroke="#63b8ff" d="M1840.82,-109.98C1856.78,-101.61 1881.37,-88.7 1899.97,-78.95"/>
<polygon fill="#63b8ff" stroke="#63b8ff" points="1901.84,-81.92 1909.07,-74.17 1898.59,-75.72 1901.84,-81.92"/>
</g>
<!-- Node28 -->
<g id="node28" class="node">
<title>Node28</title>
<g id="a_node28"><a xlink:title=" ">
<polygon fill="#e0e0e0" stroke="#999999" points="1879.1,-74 1796.1,-74 1796.1,-55 1879.1,-55 1879.1,-74"/>
<text text-anchor="middle" x="1837.6" y="-62" font-family="Helvetica,sans-Serif" font-size="10.00">ArduinoJson.h</text>
</a>
</g>
</g>
<!-- Node26&#45;&gt;Node28 -->
<g id="edge52" class="edge">
<title>Node26&#45;&gt;Node28</title>
<path fill="none" stroke="#63b8ff" d="M1826.74,-109.75C1828.46,-102.72 1830.94,-92.62 1833.1,-83.84"/>
<polygon fill="#63b8ff" stroke="#63b8ff" points="1836.51,-84.63 1835.49,-74.09 1829.71,-82.97 1836.51,-84.63"/>
</g>
<!-- Node29&#45;&gt;Node7 -->
<g id="edge58" class="edge">
<title>Node29&#45;&gt;Node7</title>
<path fill="none" stroke="#63b8ff" d="M1560.31,-189.59C1500.69,-204.6 1371.52,-235.39 1260.6,-250 998.82,-284.48 683.62,-292.24 551.58,-293.99"/>
<polygon fill="#63b8ff" stroke="#63b8ff" points="551.22,-290.5 541.26,-294.12 551.31,-297.5 551.22,-290.5"/>
</g>
<!-- Node29&#45;&gt;Node16 -->
<g id="edge55" class="edge">
<title>Node29&#45;&gt;Node16</title>
<path fill="none" stroke="#63b8ff" d="M1603.48,-170.37C1613.87,-161.3 1630.43,-146.84 1643.05,-135.82"/>
<polygon fill="#63b8ff" stroke="#63b8ff" points="1645.44,-138.38 1650.67,-129.17 1640.83,-133.11 1645.44,-138.38"/>
</g>
<!-- Node29&#45;&gt;Node19 -->
<g id="edge56" class="edge">
<title>Node29&#45;&gt;Node19</title>
<path fill="none" stroke="#63b8ff" d="M1587.99,-170.37C1582.43,-161.81 1573.77,-148.47 1566.79,-137.74"/>
<polygon fill="#63b8ff" stroke="#63b8ff" points="1569.61,-135.65 1561.23,-129.17 1563.74,-139.46 1569.61,-135.65"/>
</g>
<!-- Node29&#45;&gt;Node20 -->
<g id="edge57" class="edge">
<title>Node29&#45;&gt;Node20</title>
<path fill="none" stroke="#63b8ff" d="M1574.55,-170.49C1552.62,-160.7 1516.39,-144.52 1491.1,-133.23"/>
<polygon fill="#63b8ff" stroke="#63b8ff" points="1492.23,-129.9 1481.67,-129.02 1489.37,-136.29 1492.23,-129.9"/>
</g>
<!-- Node30&#45;&gt;Node16 -->
<g id="edge60" class="edge">
<title>Node30&#45;&gt;Node16</title>
<path fill="none" stroke="#63b8ff" d="M1353.94,-166.36C1356.86,-165.9 1359.76,-165.44 1362.6,-165 1441.99,-152.61 1533.4,-139.07 1593.82,-130.22"/>
<polygon fill="#63b8ff" stroke="#63b8ff" points="1594.6,-133.64 1603.99,-128.73 1593.59,-126.71 1594.6,-133.64"/>
</g>
<!-- Node30&#45;&gt;Node17 -->
<g id="edge63" class="edge">
<title>Node30&#45;&gt;Node17</title>
<path fill="none" stroke="#63b8ff" d="M1273.45,-164.84C1271.73,-157.13 1269.59,-147.49 1267.74,-139.17"/>
<polygon fill="#63b8ff" stroke="#63b8ff" points="1271.13,-138.27 1265.54,-129.27 1264.3,-139.79 1271.13,-138.27"/>
</g>
<!-- Node30&#45;&gt;Node19 -->
<g id="edge61" class="edge">
<title>Node30&#45;&gt;Node19</title>
<path fill="none" stroke="#63b8ff" d="M1344.65,-165C1390.27,-155.57 1451.98,-142.74 1514.85,-129.36"/>
<polygon fill="#63b8ff" stroke="#63b8ff" points="1515.89,-132.72 1524.94,-127.21 1514.43,-125.87 1515.89,-132.72"/>
</g>
<!-- Node30&#45;&gt;Node20 -->
<g id="edge62" class="edge">
<title>Node30&#45;&gt;Node20</title>
<path fill="none" stroke="#63b8ff" d="M1321.15,-164.99C1353.11,-154.94 1395.66,-141.55 1425.72,-132.1"/>
<polygon fill="#63b8ff" stroke="#63b8ff" points="1426.91,-135.39 1435.4,-129.05 1424.81,-128.72 1426.91,-135.39"/>
</g>
<!-- Node31 -->
<g id="node31" class="node">
<title>Node31</title>
<g id="a_node31"><a xlink:href="_device_config_8h.html" target="_top" xlink:title=" ">
<polygon fill="white" stroke="#666666" points="1094.6,-129 1004.6,-129 1004.6,-110 1094.6,-110 1094.6,-129"/>
<text text-anchor="middle" x="1049.6" y="-117" font-family="Helvetica,sans-Serif" font-size="10.00">DeviceConfig.h</text>
</a>
</g>
</g>
<!-- Node30&#45;&gt;Node31 -->
<g id="edge64" class="edge">
<title>Node30&#45;&gt;Node31</title>
<path fill="none" stroke="#63b8ff" d="M1222.22,-164.99C1182.54,-154.76 1129.48,-141.09 1092.7,-131.61"/>
<polygon fill="#63b8ff" stroke="#63b8ff" points="1093.34,-128.16 1082.79,-129.05 1091.6,-134.94 1093.34,-128.16"/>
</g>
<!-- Node31&#45;&gt;Node2 -->
<g id="edge65" class="edge">
<title>Node31&#45;&gt;Node2</title>
<path fill="none" stroke="#63b8ff" d="M1025.52,-109.92C989.32,-97.16 918.61,-72.78 857.6,-55 812.02,-41.72 759.14,-28.66 723.34,-20.16"/>
<polygon fill="#63b8ff" stroke="#63b8ff" points="723.79,-16.67 713.25,-17.78 722.18,-23.49 723.79,-16.67"/>
</g>
<!-- Node32 -->
<g id="node32" class="node">
<title>Node32</title>
<g id="a_node32"><a xlink:title=" ">
<polygon fill="#e0e0e0" stroke="#999999" points="1093.1,-74 1006.1,-74 1006.1,-55 1093.1,-55 1093.1,-74"/>
<text text-anchor="middle" x="1049.6" y="-62" font-family="Helvetica,sans-Serif" font-size="10.00">ArduinoJSON.h</text>
</a>
</g>
</g>
<!-- Node31&#45;&gt;Node32 -->
<g id="edge66" class="edge">
<title>Node31&#45;&gt;Node32</title>
<path fill="none" stroke="#63b8ff" d="M1049.6,-109.75C1049.6,-102.8 1049.6,-92.85 1049.6,-84.13"/>
<polygon fill="#63b8ff" stroke="#63b8ff" points="1053.1,-84.09 1049.6,-74.09 1046.1,-84.09 1053.1,-84.09"/>
</g>
<!-- Node33&#45;&gt;Node31 -->
<g id="edge68" class="edge">
<title>Node33&#45;&gt;Node31</title>
<path fill="none" stroke="#63b8ff" d="M1073.85,-164.84C1069.44,-156.78 1063.88,-146.62 1059.2,-138.06"/>
<polygon fill="#63b8ff" stroke="#63b8ff" points="1062.26,-136.36 1054.39,-129.27 1056.12,-139.72 1062.26,-136.36"/>
</g>
<!-- Node34&#45;&gt;Node31 -->
<g id="edge70" class="edge">
<title>Node34&#45;&gt;Node31</title>
<path fill="none" stroke="#63b8ff" d="M963.66,-164.99C981.84,-155.58 1005.66,-143.24 1023.61,-133.95"/>
<polygon fill="#63b8ff" stroke="#63b8ff" points="1025.64,-136.84 1032.91,-129.14 1022.42,-130.63 1025.64,-136.84"/>
</g>
</g>
</svg>
