<?xml version="1.0" encoding="UTF-8" standalone="no"?>
<!DOCTYPE svg PUBLIC "-//W3C//DTD SVG 1.1//EN"
 "http://www.w3.org/Graphics/SVG/1.1/DTD/svg11.dtd">
<!-- Generated by graphviz version 2.43.0 (0)
 -->
<!-- Title: firmware/wombat/include/bluetooth/uart.h Pages: 1 -->
<svg width="346pt" height="236pt"
 viewBox="0.00 0.00 346.00 236.00" xmlns="http://www.w3.org/2000/svg" xmlns:xlink="http://www.w3.org/1999/xlink">
<g id="graph0" class="graph" transform="scale(1 1) rotate(0) translate(4 232)">
<title>firmware/wombat/include/bluetooth/uart.h</title>
<!-- Node1 -->
<g id="node1" class="node">
<title>Node1</title>
<g id="a_node1"><a xlink:title="BluetoothLE UART service setup and handling.">
<polygon fill="#999999" stroke="#666666" points="199.5,-228 58.5,-228 58.5,-198 199.5,-198 199.5,-228"/>
<text text-anchor="start" x="66.5" y="-216" font-family="Helvetica,sans-Serif" font-size="10.00">firmware/wombat/include</text>
<text text-anchor="middle" x="129" y="-205" font-family="Helvetica,sans-Serif" font-size="10.00">/bluetooth/uart.h</text>
</a>
</g>
</g>
<!-- Node2 -->
<g id="node2" class="node">
<title>Node2</title>
<g id="a_node2"><a xlink:href="server_8h.html" target="_top" xlink:title="Handle the setup and maintenance of the BLE server and connected clients.">
<polygon fill="white" stroke="#666666" points="199.5,-162 58.5,-162 58.5,-132 199.5,-132 199.5,-162"/>
<text text-anchor="start" x="66.5" y="-150" font-family="Helvetica,sans-Serif" font-size="10.00">firmware/wombat/include</text>
<text text-anchor="middle" x="129" y="-139" font-family="Helvetica,sans-Serif" font-size="10.00">/bluetooth/server.h</text>
</a>
</g>
</g>
<!-- Node1&#45;&gt;Node2 -->
<g id="edge1" class="edge">
<title>Node1&#45;&gt;Node2</title>
<path fill="none" stroke="#63b8ff" d="M122.43,-187.83C122.02,-179.17 122.31,-169.7 123.29,-162.16"/>
<polygon fill="#63b8ff" stroke="#63b8ff" points="118.95,-188.13 123.28,-197.8 125.92,-187.54 118.95,-188.13"/>
</g>
<!-- Node7 -->
<g id="node7" class="node">
<title>Node7</title>
<g id="a_node7"><a xlink:href="uart_8cpp.html" target="_top" xlink:title="BluetoothLE UART service setup and handling.">
<polygon fill="white" stroke="#666666" points="338,-162 218,-162 218,-132 338,-132 338,-162"/>
<text text-anchor="start" x="226" y="-150" font-family="Helvetica,sans-Serif" font-size="10.00">firmware/wombat/src</text>
<text text-anchor="middle" x="278" y="-139" font-family="Helvetica,sans-Serif" font-size="10.00">/bluetooth/uart.cpp</text>
</a>
</g>
</g>
<!-- Node1&#45;&gt;Node7 -->
<g id="edge8" class="edge">
<title>Node1&#45;&gt;Node7</title>
<path fill="none" stroke="#63b8ff" d="M171.09,-193.92C194.64,-183.8 223.56,-171.38 245.38,-162.01"/>
<polygon fill="#63b8ff" stroke="#63b8ff" points="169.51,-190.79 161.7,-197.95 172.27,-197.22 169.51,-190.79"/>
</g>
<!-- Node2&#45;&gt;Node1 -->
<g id="edge2" class="edge">
<title>Node2&#45;&gt;Node1</title>
<path fill="none" stroke="#63b8ff" d="M135.57,-172.13C135.98,-180.78 135.7,-190.26 134.72,-197.8"/>
<polygon fill="#63b8ff" stroke="#63b8ff" points="139.05,-171.83 134.71,-162.16 132.08,-172.43 139.05,-171.83"/>
</g>
<!-- Node3 -->
<g id="node3" class="node">
<title>Node3</title>
<g id="a_node3"><a xlink:href="_c_l_i_8h.html" target="_top" xlink:title="FreeRTOS CLI handler.">
<polygon fill="white" stroke="#666666" points="199.5,-96 58.5,-96 58.5,-66 199.5,-66 199.5,-96"/>
<text text-anchor="start" x="66.5" y="-84" font-family="Helvetica,sans-Serif" font-size="10.00">firmware/wombat/include</text>
<text text-anchor="middle" x="129" y="-73" font-family="Helvetica,sans-Serif" font-size="10.00">/cli/CLI.h</text>
</a>
</g>
</g>
<!-- Node2&#45;&gt;Node3 -->
<g id="edge3" class="edge">
<title>Node2&#45;&gt;Node3</title>
<path fill="none" stroke="#63b8ff" d="M122.43,-121.83C122.02,-113.17 122.31,-103.7 123.29,-96.16"/>
<polygon fill="#63b8ff" stroke="#63b8ff" points="118.95,-122.13 123.28,-131.8 125.92,-121.54 118.95,-122.13"/>
</g>
<!-- Node6 -->
<g id="node6" class="node">
<title>Node6</title>
<g id="a_node6"><a xlink:href="server_8cpp.html" target="_top" xlink:title="Setup and start BluetoothLE server.">
<polygon fill="white" stroke="#666666" points="338,-96 218,-96 218,-66 338,-66 338,-96"/>
<text text-anchor="start" x="226" y="-84" font-family="Helvetica,sans-Serif" font-size="10.00">firmware/wombat/src</text>
<text text-anchor="middle" x="278" y="-73" font-family="Helvetica,sans-Serif" font-size="10.00">/bluetooth/server.cpp</text>
</a>
</g>
</g>
<!-- Node2&#45;&gt;Node6 -->
<g id="edge7" class="edge">
<title>Node2&#45;&gt;Node6</title>
<path fill="none" stroke="#63b8ff" d="M171.09,-127.92C194.64,-117.8 223.56,-105.38 245.38,-96.01"/>
<polygon fill="#63b8ff" stroke="#63b8ff" points="169.51,-124.79 161.7,-131.95 172.27,-131.22 169.51,-124.79"/>
</g>
<!-- Node3&#45;&gt;Node2 -->
<g id="edge4" class="edge">
<title>Node3&#45;&gt;Node2</title>
<path fill="none" stroke="#63b8ff" d="M135.57,-106.13C135.98,-114.78 135.7,-124.26 134.72,-131.8"/>
<polygon fill="#63b8ff" stroke="#63b8ff" points="139.05,-105.83 134.71,-96.16 132.08,-106.43 139.05,-105.83"/>
</g>
<!-- Node4 -->
<g id="node4" class="node">
<title>Node4</title>
<g id="a_node4"><a xlink:href="_c_l_i_8cpp.html" target="_top" xlink:title="FreeRTOS CLI handler.">
<polygon fill="white" stroke="#666666" points="120,-30 0,-30 0,0 120,0 120,-30"/>
<text text-anchor="start" x="8" y="-18" font-family="Helvetica,sans-Serif" font-size="10.00">firmware/wombat/src</text>
<text text-anchor="middle" x="60" y="-7" font-family="Helvetica,sans-Serif" font-size="10.00">/cli/CLI.cpp</text>
</a>
</g>
</g>
<!-- Node3&#45;&gt;Node4 -->
<g id="edge5" class="edge">
<title>Node3&#45;&gt;Node4</title>
<path fill="none" stroke="#63b8ff" d="M106.28,-58.92C96.1,-49.49 84.37,-38.61 75.27,-30.16"/>
<polygon fill="#63b8ff" stroke="#63b8ff" points="103.97,-61.56 113.69,-65.8 108.74,-56.43 103.97,-61.56"/>
</g>
<!-- Node5 -->
<g id="node5" class="node">
<title>Node5</title>
<g id="a_node5"><a xlink:href="main_8cpp.html" target="_top" xlink:title=" ">
<polygon fill="white" stroke="#666666" points="258,-30 138,-30 138,0 258,0 258,-30"/>
<text text-anchor="start" x="146" y="-18" font-family="Helvetica,sans-Serif" font-size="10.00">firmware/wombat/src</text>
<text text-anchor="middle" x="198" y="-7" font-family="Helvetica,sans-Serif" font-size="10.00">/main.cpp</text>
</a>
</g>
</g>
<!-- Node3&#45;&gt;Node5 -->
<g id="edge6" class="edge">
<title>Node3&#45;&gt;Node5</title>
<path fill="none" stroke="#63b8ff" d="M151.72,-58.92C161.9,-49.49 173.63,-38.61 182.73,-30.16"/>
<polygon fill="#63b8ff" stroke="#63b8ff" points="149.26,-56.43 144.31,-65.8 154.03,-61.56 149.26,-56.43"/>
</g>
</g>
</svg>
