<?xml version="1.0" encoding="UTF-8" standalone="no"?>
<!DOCTYPE svg PUBLIC "-//W3C//DTD SVG 1.1//EN"
 "http://www.w3.org/Graphics/SVG/1.1/DTD/svg11.dtd">
<!-- Generated by graphviz version 2.43.0 (0)
 -->
<!-- Title: firmware/wombat/src/ulp.cpp Pages: 1 -->
<svg width="609pt" height="148pt"
 viewBox="0.00 0.00 608.50 148.00" xmlns="http://www.w3.org/2000/svg" xmlns:xlink="http://www.w3.org/1999/xlink">
<g id="graph0" class="graph" transform="scale(1 1) rotate(0) translate(4 144)">
<title>firmware/wombat/src/ulp.cpp</title>
<!-- Node1 -->
<g id="node1" class="node">
<title>Node1</title>
<g id="a_node1"><a xlink:title=" ">
<polygon fill="#999999" stroke="#666666" points="347,-140 227,-140 227,-110 347,-110 347,-140"/>
<text text-anchor="start" x="235" y="-128" font-family="Helvetica,sans-Serif" font-size="10.00">firmware/wombat/src</text>
<text text-anchor="middle" x="287" y="-117" font-family="Helvetica,sans-Serif" font-size="10.00">/ulp.cpp</text>
</a>
</g>
</g>
<!-- Node2 -->
<g id="node2" class="node">
<title>Node2</title>
<g id="a_node2"><a xlink:title=" ">
<polygon fill="#e0e0e0" stroke="#999999" points="84,-74 0,-74 0,-55 84,-55 84,-74"/>
<text text-anchor="middle" x="42" y="-62" font-family="Helvetica,sans-Serif" font-size="10.00">driver/rtc_io.h</text>
</a>
</g>
</g>
<!-- Node1&#45;&gt;Node2 -->
<g id="edge1" class="edge">
<title>Node1&#45;&gt;Node2</title>
<path fill="none" stroke="#63b8ff" d="M228.32,-109.99C185.21,-99.7 127.48,-85.91 87.76,-76.43"/>
<polygon fill="#63b8ff" stroke="#63b8ff" points="88.36,-72.97 77.82,-74.05 86.74,-79.78 88.36,-72.97"/>
</g>
<!-- Node3 -->
<g id="node3" class="node">
<title>Node3</title>
<g id="a_node3"><a xlink:title=" ">
<polygon fill="#e0e0e0" stroke="#999999" points="180,-74 102,-74 102,-55 180,-55 180,-74"/>
<text text-anchor="middle" x="141" y="-62" font-family="Helvetica,sans-Serif" font-size="10.00">driver/gpio.h</text>
</a>
</g>
</g>
<!-- Node1&#45;&gt;Node3 -->
<g id="edge2" class="edge">
<title>Node1&#45;&gt;Node3</title>
<path fill="none" stroke="#63b8ff" d="M252.03,-109.99C227.67,-100.23 195.47,-87.33 172.03,-77.93"/>
<polygon fill="#63b8ff" stroke="#63b8ff" points="173.15,-74.61 162.56,-74.14 170.54,-81.11 173.15,-74.61"/>
</g>
<!-- Node4 -->
<g id="node4" class="node">
<title>Node4</title>
<g id="a_node4"><a xlink:title=" ">
<polygon fill="#e0e0e0" stroke="#999999" points="271.5,-74 198.5,-74 198.5,-55 271.5,-55 271.5,-74"/>
<text text-anchor="middle" x="235" y="-62" font-family="Helvetica,sans-Serif" font-size="10.00">esp32/ulp.h</text>
</a>
</g>
</g>
<!-- Node1&#45;&gt;Node4 -->
<g id="edge3" class="edge">
<title>Node1&#45;&gt;Node4</title>
<path fill="none" stroke="#63b8ff" d="M274.41,-109.84C266.94,-101.43 257.44,-90.74 249.63,-81.96"/>
<polygon fill="#63b8ff" stroke="#63b8ff" points="252.05,-79.41 242.79,-74.27 246.82,-84.07 252.05,-79.41"/>
</g>
<!-- Node5 -->
<g id="node5" class="node">
<title>Node5</title>
<g id="a_node5"><a xlink:title=" ">
<polygon fill="#e0e0e0" stroke="#999999" points="388,-74 290,-74 290,-55 388,-55 388,-74"/>
<text text-anchor="middle" x="339" y="-62" font-family="Helvetica,sans-Serif" font-size="10.00">../ulp/ulp_main.h</text>
</a>
</g>
</g>
<!-- Node1&#45;&gt;Node5 -->
<g id="edge4" class="edge">
<title>Node1&#45;&gt;Node5</title>
<path fill="none" stroke="#63b8ff" d="M299.59,-109.84C307.06,-101.43 316.56,-90.74 324.37,-81.96"/>
<polygon fill="#63b8ff" stroke="#63b8ff" points="327.18,-84.07 331.21,-74.27 321.95,-79.41 327.18,-84.07"/>
</g>
<!-- Node6 -->
<g id="node6" class="node">
<title>Node6</title>
<g id="a_node6"><a xlink:href="ulp_8h.html" target="_top" xlink:title=" ">
<polygon fill="white" stroke="#666666" points="447.5,-74 406.5,-74 406.5,-55 447.5,-55 447.5,-74"/>
<text text-anchor="middle" x="427" y="-62" font-family="Helvetica,sans-Serif" font-size="10.00">ulp.h</text>
</a>
</g>
</g>
<!-- Node1&#45;&gt;Node6 -->
<g id="edge5" class="edge">
<title>Node1&#45;&gt;Node6</title>
<path fill="none" stroke="#63b8ff" d="M320.53,-109.99C343.79,-100.27 374.49,-87.44 396.95,-78.06"/>
<polygon fill="#63b8ff" stroke="#63b8ff" points="398.45,-81.22 406.32,-74.14 395.75,-74.77 398.45,-81.22"/>
</g>
<!-- Node7 -->
<g id="node7" class="node">
<title>Node7</title>
<g id="a_node7"><a xlink:href="_device_config_8h.html" target="_top" xlink:title="Node configuration options.">
<polygon fill="white" stroke="#666666" points="556,-74 466,-74 466,-55 556,-55 556,-74"/>
<text text-anchor="middle" x="511" y="-62" font-family="Helvetica,sans-Serif" font-size="10.00">DeviceConfig.h</text>
</a>
</g>
</g>
<!-- Node1&#45;&gt;Node7 -->
<g id="edge6" class="edge">
<title>Node1&#45;&gt;Node7</title>
<path fill="none" stroke="#63b8ff" d="M340.65,-109.99C379.81,-99.76 432.18,-86.09 468.46,-76.61"/>
<polygon fill="#63b8ff" stroke="#63b8ff" points="469.46,-79.97 478.25,-74.05 467.69,-73.19 469.46,-79.97"/>
</g>
<!-- Node8 -->
<g id="node8" class="node">
<title>Node8</title>
<g id="a_node8"><a xlink:title=" ">
<polygon fill="#e0e0e0" stroke="#999999" points="495.5,-19 432.5,-19 432.5,0 495.5,0 495.5,-19"/>
<text text-anchor="middle" x="464" y="-7" font-family="Helvetica,sans-Serif" font-size="10.00">Arduino.h</text>
</a>
</g>
</g>
<!-- Node7&#45;&gt;Node8 -->
<g id="edge7" class="edge">
<title>Node7&#45;&gt;Node8</title>
<path fill="none" stroke="#63b8ff" d="M503.24,-54.75C496.53,-47.18 486.66,-36.05 478.49,-26.84"/>
<polygon fill="#63b8ff" stroke="#63b8ff" points="480.87,-24.25 471.62,-19.09 475.63,-28.89 480.87,-24.25"/>
</g>
<!-- Node9 -->
<g id="node9" class="node">
<title>Node9</title>
<g id="a_node9"><a xlink:title=" ">
<polygon fill="#e0e0e0" stroke="#999999" points="600.5,-19 513.5,-19 513.5,0 600.5,0 600.5,-19"/>
<text text-anchor="middle" x="557" y="-7" font-family="Helvetica,sans-Serif" font-size="10.00">ArduinoJSON.h</text>
</a>
</g>
</g>
<!-- Node7&#45;&gt;Node9 -->
<g id="edge8" class="edge">
<title>Node7&#45;&gt;Node9</title>
<path fill="none" stroke="#63b8ff" d="M518.6,-54.75C525.16,-47.18 534.82,-36.05 542.81,-26.84"/>
<polygon fill="#63b8ff" stroke="#63b8ff" points="545.63,-28.94 549.55,-19.09 540.35,-24.35 545.63,-28.94"/>
</g>
</g>
</svg>
