%TF.GenerationSoftware,KiCad,Pcbnew,(6.0.7-1)-1*%
%TF.CreationDate,2023-01-17T11:35:33+11:00*%
%TF.ProjectId,enviro-node,656e7669-726f-42d6-9e6f-64652e6b6963,rev?*%
%TF.SameCoordinates,Original*%
%TF.FileFunction,Profile,NP*%
%FSLAX46Y46*%
G04 Gerber Fmt 4.6, Leading zero omitted, Abs format (unit mm)*
G04 Created by KiCad (PCBNEW (6.0.7-1)-1) date 2023-01-17 11:35:33*
%MOMM*%
%LPD*%
G01*
G04 APERTURE LIST*
%TA.AperFunction,Profile*%
%ADD10C,0.200000*%
%TD*%
%ADD11C,0.200000*%
%TA.AperFunction,Profile*%
%ADD12C,0.100000*%
%TD*%
%TA.AperFunction,Profile*%
%ADD13C,0.010000*%
%TD*%
G04 APERTURE END LIST*
D10*
X32148500Y-29515000D02*
X32128000Y-173428000D01*
X130678000Y-34259610D02*
X130678000Y-79098824D01*
X130678042Y-79098824D02*
G75*
G03*
X132678000Y-81098824I1999914J-86D01*
G01*
X38478000Y-179778000D02*
X132414300Y-179778000D01*
D11*
X132414300Y-179778000D02*
X132742630Y-179769722D01*
X133066603Y-179745157D01*
X133385816Y-179704706D01*
X133699868Y-179648772D01*
X134008355Y-179577757D01*
X134310876Y-179492061D01*
X134607028Y-179392088D01*
X134896409Y-179278239D01*
X135178616Y-179150915D01*
X135453248Y-179010520D01*
X135719903Y-178857454D01*
X135978176Y-178692120D01*
X136227668Y-178514919D01*
X136467975Y-178326254D01*
X136698694Y-178126526D01*
X136919425Y-177916137D01*
X137129763Y-177695489D01*
X137329308Y-177464985D01*
X137517657Y-177225025D01*
X137694407Y-176976012D01*
X137859156Y-176718348D01*
X138011503Y-176452434D01*
X138151044Y-176178673D01*
X138277378Y-175897467D01*
X138390101Y-175609216D01*
X138488813Y-175314324D01*
X138573110Y-175013192D01*
X138642591Y-174706222D01*
X138696852Y-174393816D01*
X138735492Y-174076375D01*
X138758109Y-173754303D01*
X138764300Y-173428000D01*
X38478000Y-23165000D02*
X38151574Y-23171457D01*
X37829398Y-23194312D01*
X37511877Y-23233164D01*
X37199415Y-23287611D01*
X36892418Y-23357252D01*
X36591290Y-23441686D01*
X36296437Y-23540511D01*
X36008262Y-23653328D01*
X35727171Y-23779733D01*
X35453570Y-23919327D01*
X35187862Y-24071708D01*
X34930453Y-24236474D01*
X34681747Y-24413225D01*
X34442150Y-24601560D01*
X34212065Y-24801077D01*
X33991900Y-25011375D01*
X33782057Y-25232052D01*
X33582942Y-25462709D01*
X33394960Y-25702943D01*
X33218515Y-25952353D01*
X33054013Y-26210538D01*
X32901859Y-26477098D01*
X32762457Y-26751630D01*
X32636212Y-27033734D01*
X32523529Y-27323008D01*
X32424814Y-27619052D01*
X32340470Y-27921463D01*
X32270903Y-28229841D01*
X32216517Y-28543785D01*
X32177718Y-28862894D01*
X32154911Y-29186766D01*
X32148500Y-29515000D01*
D10*
X132678000Y-32259610D02*
X136738786Y-32270396D01*
D11*
X32128000Y-173428000D02*
X32136273Y-173754303D01*
X32160827Y-174076375D01*
X32201259Y-174393816D01*
X32257169Y-174706222D01*
X32328156Y-175013192D01*
X32413818Y-175314324D01*
X32513754Y-175609216D01*
X32627564Y-175897467D01*
X32754845Y-176178673D01*
X32895197Y-176452434D01*
X33048219Y-176718348D01*
X33213510Y-176976012D01*
X33390668Y-177225025D01*
X33579293Y-177464985D01*
X33778983Y-177695489D01*
X33989337Y-177916137D01*
X34209954Y-178126526D01*
X34440433Y-178326254D01*
X34680372Y-178514919D01*
X34929372Y-178692120D01*
X35187029Y-178857454D01*
X35452944Y-179010520D01*
X35726715Y-179150915D01*
X36007942Y-179278239D01*
X36296222Y-179392088D01*
X36591155Y-179492061D01*
X36892340Y-179577757D01*
X37199375Y-179648772D01*
X37511860Y-179704706D01*
X37829393Y-179745157D01*
X38151573Y-179769722D01*
X38478000Y-179778000D01*
X138764300Y-29515000D02*
X138758109Y-29186766D01*
X138735492Y-28862894D01*
X138696852Y-28543785D01*
X138642591Y-28229841D01*
X138573110Y-27921463D01*
X138488813Y-27619052D01*
X138390101Y-27323008D01*
X138277378Y-27033734D01*
X138151044Y-26751630D01*
X138011503Y-26477098D01*
X137859156Y-26210538D01*
X137694407Y-25952353D01*
X137517657Y-25702943D01*
X137329308Y-25462709D01*
X137129763Y-25232052D01*
X136919425Y-25011375D01*
X136698694Y-24801077D01*
X136467975Y-24601560D01*
X136227668Y-24413225D01*
X135978176Y-24236474D01*
X135719903Y-24071708D01*
X135453248Y-23919327D01*
X135178616Y-23779733D01*
X134896409Y-23653328D01*
X134607028Y-23540511D01*
X134310876Y-23441686D01*
X134008355Y-23357252D01*
X133699868Y-23287611D01*
X133385816Y-23233164D01*
X133066603Y-23194312D01*
X132742630Y-23171457D01*
X132414300Y-23165000D01*
D10*
X136738786Y-32270340D02*
G75*
G03*
X138738786Y-30270396I70J1999930D01*
G01*
X138764300Y-173428000D02*
X138753000Y-83098824D01*
X38478000Y-23165000D02*
X132414300Y-23165000D01*
X138753042Y-83098824D02*
G75*
G03*
X136753000Y-81098824I-2000086J-86D01*
G01*
X138764300Y-29515000D02*
X138738786Y-30270396D01*
X132678000Y-81098824D02*
X136753000Y-81098824D01*
X132678000Y-32259554D02*
G75*
G03*
X130678000Y-34259610I56J-2000056D01*
G01*
D12*
X87105222Y-171284610D02*
G75*
G03*
X87105222Y-171284610I-1666666J0D01*
G01*
X82938556Y-171284610D02*
X87938556Y-171284610D01*
X85438556Y-168784610D02*
X85438556Y-173784610D01*
D13*
%TO.C,J1*%
X118464556Y-90112610D02*
X118464556Y-90312610D01*
X118481211Y-82112610D02*
X118481211Y-82312610D01*
X117804556Y-90312610D02*
X117804556Y-90112610D01*
X117821211Y-82312610D02*
X117821211Y-82112610D01*
X118151211Y-81782610D02*
G75*
G03*
X117821211Y-82112610I1J-330001D01*
G01*
X118481211Y-82112610D02*
G75*
G03*
X118151211Y-81782610I-330001J-1D01*
G01*
X117821211Y-82312610D02*
G75*
G03*
X118151211Y-82642610I330001J1D01*
G01*
X117804556Y-90312610D02*
G75*
G03*
X118134556Y-90642610I330000J0D01*
G01*
X118464556Y-90112610D02*
G75*
G03*
X118134556Y-89782610I-330000J0D01*
G01*
X118134556Y-90642610D02*
G75*
G03*
X118464556Y-90312610I0J330000D01*
G01*
X118134556Y-89782610D02*
G75*
G03*
X117804556Y-90112610I0J-330000D01*
G01*
X118151211Y-82642610D02*
G75*
G03*
X118481211Y-82312610I-1J330001D01*
G01*
%TD*%
M02*
