M48
; DRILL file {KiCad (6.0.11-0)} date Wednesday, 19 April 2023 at 02:37:29 pm
; FORMAT={-:-/ absolute / metric / decimal}
; #@! TF.CreationDate,2023-04-19T14:37:29+10:00
; #@! TF.GenerationSoftware,Kicad,Pcbnew,(6.0.11-0)
; #@! TF.FileFunction,Plated,1,2,PTH
FMAT,2
METRIC
; #@! TA.AperFunction,Plated,PTH,ComponentDrill
T1C0.200
; #@! TA.AperFunction,Plated,PTH,ViaDrill
T2C0.400
; #@! TA.AperFunction,Plated,PTH,ComponentDrill
T3C0.600
; #@! TA.AperFunction,Plated,PTH,ComponentDrill
T4C0.700
; #@! TA.AperFunction,Plated,PTH,ComponentDrill
T5C0.800
; #@! TA.AperFunction,Plated,PTH,ComponentDrill
T6C0.850
; #@! TA.AperFunction,Plated,PTH,ComponentDrill
T7C1.000
; #@! TA.AperFunction,Plated,PTH,ComponentDrill
T8C1.295
; #@! TA.AperFunction,Plated,PTH,ComponentDrill
T9C1.321
; #@! TA.AperFunction,Plated,PTH,ComponentDrill
T10C3.175
; #@! TA.AperFunction,Plated,PTH,ComponentDrill
T11C4.300
%
G90
G05
T1
X120.393Y-54.365
X120.393Y-55.765
X121.093Y-53.665
X121.093Y-55.065
X121.093Y-56.465
X122.493Y-55.04
X122.493Y-56.615
X122.503Y-53.465
X122.503Y-54.252
X122.503Y-55.827
X123.403Y-54.365
X123.403Y-55.765
T2
X36.139Y-26.485
X36.139Y-41.485
X36.139Y-44.485
X36.139Y-56.485
X36.139Y-59.485
X36.139Y-62.485
X36.139Y-65.485
X36.139Y-80.485
X36.139Y-83.485
X36.139Y-101.485
X36.139Y-110.485
X36.139Y-113.485
X36.139Y-116.485
X36.139Y-119.485
X36.139Y-122.485
X36.139Y-128.485
X36.139Y-131.485
X36.139Y-134.485
X36.139Y-137.485
X36.139Y-140.485
X36.139Y-170.485
X36.139Y-173.485
X36.139Y-176.485
X39.139Y-26.485
X39.139Y-83.485
X39.139Y-101.485
X39.139Y-110.485
X39.139Y-113.485
X39.139Y-116.485
X39.139Y-119.485
X39.139Y-122.485
X39.139Y-125.485
X39.139Y-128.485
X39.139Y-131.485
X39.139Y-134.485
X39.139Y-137.485
X39.139Y-140.485
X39.139Y-173.485
X39.139Y-176.485
X42.139Y-26.485
X42.139Y-83.485
X42.139Y-98.485
X42.139Y-101.485
X42.139Y-110.485
X42.139Y-113.485
X42.139Y-116.485
X42.139Y-119.485
X42.139Y-122.485
X42.139Y-125.485
X42.139Y-128.485
X42.139Y-131.485
X42.139Y-134.485
X42.139Y-137.485
X42.139Y-140.485
X42.139Y-173.485
X42.139Y-176.485
X42.811Y-63.287
X45.139Y-26.485
X45.139Y-83.485
X45.139Y-98.485
X45.139Y-101.485
X45.139Y-110.485
X45.139Y-119.485
X45.139Y-122.485
X45.139Y-128.485
X45.139Y-137.485
X45.139Y-140.485
X45.139Y-173.485
X45.139Y-176.485
X45.859Y-65.065
X48.139Y-26.485
X48.139Y-83.485
X48.139Y-98.485
X48.139Y-101.485
X48.139Y-110.485
X48.139Y-113.485
X48.139Y-116.485
X48.139Y-119.485
X48.139Y-122.485
X48.139Y-128.485
X48.139Y-131.485
X48.139Y-134.485
X48.139Y-137.485
X48.139Y-140.485
X48.139Y-170.485
X48.139Y-176.485
X49.161Y-64.049
X50.431Y-38.354
X51.139Y-26.485
X51.139Y-83.485
X51.139Y-98.485
X51.139Y-101.485
X51.139Y-110.485
X51.139Y-113.485
X51.139Y-116.485
X51.139Y-119.485
X51.139Y-122.485
X51.139Y-128.485
X51.139Y-131.485
X51.139Y-134.485
X51.139Y-137.485
X51.139Y-140.485
X51.139Y-149.485
X51.139Y-152.485
X51.139Y-155.485
X51.139Y-158.485
X51.139Y-164.485
X51.139Y-167.485
X51.139Y-170.485
X51.139Y-176.485
X51.955Y-162.093
X52.209Y-148.123
X52.209Y-149.901
X53.225Y-146.853
X53.225Y-162.093
X53.225Y-163.363
X53.225Y-164.887
X53.479Y-33.061
X54.139Y-26.485
X54.139Y-65.485
X54.139Y-68.485
X54.139Y-71.485
X54.139Y-74.485
X54.139Y-77.485
X54.139Y-80.485
X54.139Y-83.485
X54.139Y-98.485
X54.139Y-101.485
X54.139Y-167.485
X54.139Y-170.485
X54.139Y-176.485
X54.495Y-149.901
X54.495Y-165.141
X54.495Y-166.411
X54.749Y-32.045
X55.257Y-152.187
X57.139Y-26.485
X57.139Y-59.485
X57.139Y-62.485
X57.139Y-65.485
X57.139Y-68.485
X57.139Y-71.485
X57.139Y-74.485
X57.139Y-77.485
X57.139Y-80.485
X57.139Y-83.485
X57.139Y-92.485
X57.139Y-98.485
X57.139Y-101.485
X57.139Y-167.485
X57.139Y-170.485
X57.139Y-176.485
X57.289Y-152.187
X57.289Y-155.743
X57.289Y-157.013
X58.09Y-162.992
X60.139Y-26.485
X60.139Y-74.485
X60.139Y-92.485
X60.139Y-98.485
X60.139Y-116.485
X60.139Y-119.485
X60.139Y-122.485
X60.139Y-128.485
X60.139Y-131.485
X60.139Y-134.485
X60.139Y-137.485
X60.139Y-170.485
X60.139Y-176.485
X60.62Y-165.522
X60.845Y-80.559
X62.623Y-38.395
X63.131Y-80.305
X63.131Y-159.299
X63.139Y-26.485
X63.139Y-92.485
X63.139Y-101.485
X63.139Y-104.485
X63.139Y-119.485
X63.139Y-122.485
X63.139Y-125.485
X63.139Y-128.485
X63.139Y-131.485
X63.139Y-134.485
X63.139Y-137.485
X63.139Y-170.485
X63.139Y-176.485
X63.893Y-36.617
X63.893Y-38.395
X64.909Y-37.379
X64.909Y-158.537
X65.163Y-152.949
X65.417Y-79.289
X65.417Y-80.559
X65.671Y-141.519
X65.671Y-151.933
X66.139Y-26.485
X66.139Y-32.485
X66.139Y-56.485
X66.139Y-77.485
X66.139Y-110.485
X66.139Y-122.485
X66.139Y-125.485
X66.139Y-128.485
X66.139Y-131.485
X66.139Y-134.485
X66.139Y-137.485
X66.139Y-170.485
X66.139Y-176.485
X66.687Y-142.281
X67.195Y-151.933
X67.624Y-145.988
X68.465Y-40.681
X68.719Y-39.665
X69.049Y-102.479
X69.139Y-26.485
X69.139Y-32.485
X69.139Y-47.485
X69.139Y-50.485
X69.139Y-53.485
X69.139Y-56.485
X69.139Y-59.485
X69.139Y-62.485
X69.139Y-65.485
X69.139Y-68.485
X69.139Y-71.485
X69.139Y-77.485
X69.139Y-83.485
X69.139Y-107.485
X69.139Y-110.485
X69.139Y-113.485
X69.139Y-125.485
X69.139Y-128.485
X69.139Y-131.485
X69.139Y-134.485
X69.139Y-137.485
X69.139Y-170.485
X69.139Y-173.485
X69.139Y-176.485
X69.989Y-39.665
X69.989Y-99.863
X69.989Y-105.451
X70.243Y-151.933
X70.751Y-102.479
X71.513Y-99.863
X71.513Y-105.451
X72.139Y-26.485
X72.139Y-32.485
X72.139Y-38.485
X72.139Y-41.485
X72.139Y-47.485
X72.139Y-50.485
X72.139Y-53.485
X72.139Y-56.485
X72.139Y-59.485
X72.139Y-62.485
X72.139Y-65.485
X72.139Y-68.485
X72.139Y-71.485
X72.139Y-77.485
X72.139Y-83.485
X72.139Y-92.485
X72.139Y-98.485
X72.139Y-107.485
X72.139Y-110.485
X72.139Y-113.485
X72.139Y-116.485
X72.139Y-128.485
X72.139Y-131.485
X72.139Y-134.485
X72.139Y-137.485
X72.139Y-170.485
X72.139Y-173.485
X72.139Y-176.485
X72.529Y-102.479
X73.037Y-99.863
X73.037Y-105.451
X74.053Y-102.479
X74.561Y-99.863
X74.561Y-105.451
X75.139Y-26.485
X75.139Y-32.485
X75.139Y-41.485
X75.139Y-47.485
X75.139Y-50.485
X75.139Y-53.485
X75.139Y-56.485
X75.139Y-59.485
X75.139Y-62.485
X75.139Y-65.485
X75.139Y-68.485
X75.139Y-71.485
X75.139Y-74.485
X75.139Y-77.485
X75.139Y-83.485
X75.139Y-89.485
X75.139Y-92.485
X75.139Y-98.485
X75.139Y-107.485
X75.139Y-110.485
X75.139Y-113.485
X75.139Y-116.485
X75.139Y-119.485
X75.139Y-128.485
X75.139Y-131.485
X75.139Y-134.485
X75.139Y-137.485
X75.139Y-143.485
X75.139Y-146.485
X75.139Y-149.485
X75.139Y-152.485
X75.139Y-155.485
X75.139Y-158.485
X75.139Y-161.485
X75.139Y-164.485
X75.139Y-167.485
X75.139Y-170.485
X75.139Y-173.485
X75.139Y-176.485
X78.139Y-26.485
X78.139Y-32.485
X78.139Y-35.485
X78.139Y-41.485
X78.139Y-47.485
X78.139Y-56.485
X78.139Y-59.485
X78.139Y-62.485
X78.139Y-65.485
X78.139Y-68.485
X78.139Y-71.485
X78.139Y-74.485
X78.139Y-77.485
X78.139Y-86.485
X78.139Y-89.485
X78.139Y-92.485
X78.139Y-98.485
X78.139Y-107.485
X78.139Y-110.485
X78.139Y-113.485
X78.139Y-116.485
X78.139Y-119.485
X78.139Y-128.485
X78.139Y-131.485
X78.139Y-134.485
X78.139Y-137.485
X78.139Y-146.485
X78.139Y-149.485
X78.139Y-152.485
X78.139Y-158.485
X78.139Y-161.485
X78.139Y-164.485
X78.139Y-167.485
X78.139Y-170.485
X78.139Y-173.485
X78.139Y-176.485
X81.139Y-26.485
X81.139Y-35.485
X81.139Y-41.485
X81.139Y-56.485
X81.139Y-59.485
X81.139Y-62.485
X81.139Y-65.485
X81.139Y-68.485
X81.139Y-71.485
X81.139Y-74.485
X81.139Y-83.485
X81.139Y-86.485
X81.139Y-89.485
X81.139Y-92.485
X81.139Y-98.485
X81.139Y-107.485
X81.139Y-110.485
X81.139Y-113.485
X81.139Y-116.485
X81.139Y-119.485
X81.139Y-128.485
X81.139Y-131.485
X81.139Y-134.485
X81.139Y-137.485
X81.139Y-146.485
X81.139Y-149.485
X81.139Y-167.485
X81.139Y-176.485
X84.139Y-41.485
X84.139Y-56.485
X84.139Y-59.485
X84.139Y-62.485
X84.139Y-65.485
X84.139Y-68.485
X84.139Y-86.485
X84.139Y-89.485
X84.139Y-92.485
X84.139Y-98.485
X84.139Y-107.485
X84.139Y-110.485
X84.139Y-113.485
X84.139Y-116.485
X84.139Y-119.485
X84.139Y-128.485
X84.139Y-131.485
X84.139Y-134.485
X84.139Y-137.485
X84.139Y-146.485
X84.139Y-149.485
X87.139Y-41.485
X87.139Y-53.485
X87.139Y-56.485
X87.139Y-59.485
X87.139Y-65.485
X87.139Y-68.485
X87.139Y-77.485
X87.139Y-80.485
X87.139Y-86.485
X87.139Y-89.485
X87.139Y-92.485
X87.139Y-98.485
X87.139Y-107.485
X87.139Y-110.485
X87.139Y-113.485
X87.139Y-116.485
X87.139Y-119.485
X87.139Y-128.485
X87.139Y-131.485
X87.139Y-134.485
X87.139Y-137.485
X87.139Y-146.485
X90.139Y-26.485
X90.139Y-35.485
X90.139Y-41.485
X90.139Y-44.485
X90.139Y-56.485
X90.139Y-59.485
X90.139Y-65.485
X90.139Y-77.485
X90.139Y-80.485
X90.139Y-89.485
X90.139Y-98.485
X90.139Y-107.485
X90.139Y-110.485
X90.139Y-113.485
X90.139Y-116.485
X90.139Y-119.485
X90.139Y-128.485
X90.139Y-131.485
X90.139Y-134.485
X90.139Y-137.485
X90.139Y-146.485
X90.139Y-149.485
X90.139Y-167.485
X90.139Y-176.485
X93.139Y-26.485
X93.139Y-29.485
X93.139Y-32.485
X93.139Y-35.485
X93.139Y-41.485
X93.139Y-44.485
X93.139Y-53.485
X93.139Y-56.485
X93.139Y-59.485
X93.139Y-77.485
X93.139Y-89.485
X93.139Y-98.485
X93.139Y-107.485
X93.139Y-110.485
X93.139Y-113.485
X93.139Y-116.485
X93.139Y-119.485
X93.139Y-128.485
X93.139Y-131.485
X93.139Y-134.485
X93.139Y-137.485
X93.139Y-140.485
X93.139Y-143.485
X93.139Y-146.485
X93.139Y-149.485
X93.139Y-152.485
X93.139Y-155.485
X93.139Y-158.485
X93.139Y-161.485
X93.139Y-164.485
X93.139Y-167.485
X93.139Y-170.485
X93.139Y-173.485
X93.139Y-176.485
X96.139Y-26.485
X96.139Y-44.485
X96.139Y-47.485
X96.139Y-50.485
X96.139Y-53.485
X96.139Y-56.485
X96.139Y-59.485
X96.139Y-86.485
X96.139Y-89.485
X96.139Y-98.485
X96.139Y-107.485
X96.139Y-110.485
X96.139Y-113.485
X96.139Y-116.485
X96.139Y-119.485
X96.139Y-128.485
X96.139Y-131.485
X96.139Y-134.485
X96.139Y-137.485
X96.139Y-140.485
X96.139Y-173.485
X96.139Y-176.485
X96.405Y-67.097
X97.421Y-65.786
X97.421Y-75.479
X98.437Y-67.097
X98.806Y-75.479
X99.139Y-47.485
X99.139Y-50.485
X99.139Y-53.485
X99.139Y-56.485
X99.139Y-59.485
X99.139Y-86.485
X99.139Y-89.485
X99.139Y-107.485
X99.139Y-110.485
X99.139Y-119.485
X99.139Y-128.485
X99.139Y-131.485
X99.139Y-134.485
X99.139Y-173.485
X99.139Y-176.485
X100.215Y-69.637
X100.215Y-70.653
X100.215Y-72.939
X100.215Y-74.209
X101.231Y-59.985
X102.139Y-41.485
X102.139Y-83.485
X102.139Y-86.485
X102.139Y-89.485
X102.139Y-107.485
X102.139Y-110.485
X102.139Y-119.485
X102.139Y-128.485
X102.139Y-131.485
X102.139Y-134.485
X102.139Y-173.485
X102.139Y-176.485
X103.263Y-69.637
X103.517Y-67.351
X103.517Y-70.653
X103.517Y-72.939
X103.517Y-74.209
X103.517Y-75.479
X103.53Y-44.983
X104.394Y-64.465
X104.533Y-66.335
X105.139Y-26.485
X105.139Y-41.485
X105.139Y-59.485
X105.139Y-83.485
X105.139Y-86.485
X105.139Y-98.485
X105.139Y-173.485
X105.139Y-176.485
X105.295Y-62.017
X105.549Y-63.541
X105.549Y-65.573
X105.803Y-107.991
X107.188Y-130.048
X107.327Y-106.467
X108.139Y-26.485
X108.139Y-29.485
X108.139Y-41.485
X108.139Y-110.485
X108.139Y-116.485
X108.139Y-119.485
X108.139Y-128.485
X108.139Y-131.485
X108.139Y-134.485
X108.139Y-170.485
X108.139Y-173.485
X108.139Y-176.485
X108.597Y-80.559
X109.105Y-69.383
X109.613Y-48.047
X109.867Y-52.111
X109.867Y-59.731
X109.867Y-61.001
X109.867Y-66.335
X110.629Y-71.923
X110.629Y-72.939
X110.629Y-80.559
X110.883Y-67.351
X111.137Y-108.753
X111.137Y-111.293
X111.139Y-26.485
X111.139Y-29.485
X111.139Y-32.485
X111.139Y-98.485
X111.139Y-113.485
X111.139Y-116.485
X111.139Y-119.485
X111.139Y-128.485
X111.139Y-131.485
X111.139Y-134.485
X111.139Y-170.485
X111.139Y-173.485
X111.139Y-176.485
X111.252Y-137.414
X112.407Y-114.595
X113.423Y-59.477
X113.489Y-114.529
X113.538Y-68.326
X114.139Y-26.485
X114.139Y-29.485
X114.139Y-32.485
X114.139Y-140.485
X114.139Y-170.485
X114.139Y-173.485
X114.139Y-176.485
X114.185Y-67.351
X114.439Y-60.747
X114.947Y-42.713
X114.947Y-43.983
X115.201Y-75.225
X115.455Y-61.763
X115.455Y-72.685
X115.455Y-79.289
X115.545Y-54.026
X116.217Y-118.151
X116.471Y-114.087
X116.471Y-119.421
X116.725Y-78.019
X116.979Y-72.685
X116.979Y-74.717
X117.139Y-140.485
X117.139Y-170.485
X117.139Y-173.485
X117.139Y-176.485
X117.233Y-61.763
X117.233Y-67.859
X117.741Y-76.749
X118.249Y-70.653
X118.503Y-75.225
X118.757Y-77.511
X118.757Y-78.781
X119.011Y-68.621
X119.265Y-66.843
X120.027Y-58.461
X120.139Y-92.485
X120.139Y-173.485
X120.139Y-176.485
X120.281Y-50.079
X121.043Y-59.477
X121.551Y-67.605
X122.313Y-36.363
X122.313Y-60.747
X122.821Y-40.935
X123.075Y-34.839
X123.139Y-128.485
X123.139Y-173.485
X123.139Y-176.485
X123.329Y-61.255
X123.583Y-86.909
X124.345Y-62.017
X124.345Y-63.287
X124.853Y-55.159
X124.853Y-56.937
X124.853Y-88.941
X125.107Y-34.839
X125.615Y-61.763
X126.123Y-83.861
X126.139Y-131.485
X126.139Y-134.485
X126.139Y-137.485
X126.139Y-140.485
X126.139Y-173.485
X126.139Y-176.485
X126.631Y-60.747
X127.266Y-39.03
X127.393Y-36.871
X127.393Y-83.861
X127.432Y-67.666
X128.155Y-53.517
X128.155Y-55.413
X128.155Y-62.271
X128.155Y-63.541
X128.683Y-131.125
X128.917Y-39.411
X129.139Y-26.485
X129.139Y-170.485
X129.139Y-173.485
X129.139Y-176.485
X129.425Y-54.356
X129.679Y-89.195
X130.187Y-92.243
X130.187Y-93.513
X130.441Y-86.401
X131.457Y-84.369
X132.139Y-26.485
X132.139Y-29.485
X132.139Y-170.485
X132.139Y-173.485
X132.139Y-176.485
X132.473Y-83.607
X134.251Y-83.607
X135.139Y-26.485
X135.139Y-29.485
X135.139Y-170.485
X135.139Y-173.485
X135.139Y-176.485
X136.029Y-82.845
T3
X81.289Y-31.283
X81.289Y-171.491
X81.638Y-29.833
X81.638Y-32.733
X81.638Y-170.041
X81.638Y-172.941
X82.519Y-28.762
X82.519Y-33.804
X82.519Y-168.97
X82.519Y-174.012
X83.934Y-28.132
X83.934Y-34.434
X83.934Y-168.34
X83.934Y-174.642
X85.439Y-28.058
X85.439Y-34.508
X85.439Y-168.266
X85.439Y-174.716
X86.944Y-28.132
X86.944Y-34.434
X86.944Y-168.34
X86.944Y-174.642
X88.359Y-28.762
X88.359Y-33.804
X88.359Y-168.97
X88.359Y-174.012
X89.24Y-29.833
X89.24Y-32.733
X89.24Y-170.041
X89.24Y-172.941
X89.589Y-31.283
X89.589Y-171.491
T4
X105.311Y-48.509
X105.311Y-49.779
X105.311Y-51.049
X105.311Y-52.319
X105.311Y-53.589
X106.581Y-48.509
X106.581Y-49.779
X106.581Y-51.049
X106.581Y-52.319
X106.581Y-53.589
T5
X99.289Y-137.084
X99.289Y-139.802
X109.449Y-137.084
X109.449Y-139.802
T6
X100.723Y-31.577
X100.723Y-36.577
T7
X50.685Y-143.297
X50.685Y-145.837
X119.773Y-108.499
X119.773Y-111.039
X120.545Y-70.399
X123.085Y-70.399
X125.625Y-70.399
X128.165Y-70.399
T8
X39.335Y-145.257
X39.335Y-153.457
X44.335Y-145.257
X44.335Y-153.457
X98.069Y-145.257
X98.069Y-153.457
X103.069Y-145.257
X103.069Y-153.457
X113.683Y-145.257
X113.683Y-153.457
X118.683Y-145.257
X118.683Y-153.457
X123.683Y-145.257
X123.683Y-153.457
X127.573Y-100.573
X127.573Y-108.773
X128.683Y-145.257
X128.683Y-153.457
X132.573Y-100.573
X132.573Y-108.773
X133.683Y-145.257
X133.683Y-153.457
T9
X36.888Y-105.794
X36.888Y-124.92
X109.151Y-105.794
X109.151Y-124.92
T10
X45.092Y-115.369
X100.337Y-97.843
X100.337Y-115.369
T3
G00X116.705Y-81.963
M15
G01X116.705Y-82.463
M16
G05
G00X116.705Y-89.963
M15
G01X116.705Y-90.463
M16
G05
G00X119.565Y-81.963
M15
G01X119.565Y-82.463
M16
G05
G00X119.565Y-89.963
M15
G01X119.565Y-90.463
M16
G05
T11
G00X84.489Y-31.283
M15
G01X86.389Y-31.283
M16
G05
G00X84.489Y-171.491
M15
G01X86.389Y-171.491
M16
G05
T0
M30
