%TF.GenerationSoftware,KiCad,Pcbnew,(6.0.7-1)-1*%
%TF.CreationDate,2023-01-17T11:35:33+11:00*%
%TF.ProjectId,enviro-node,656e7669-726f-42d6-9e6f-64652e6b6963,rev?*%
%TF.SameCoordinates,Original*%
%TF.FileFunction,Soldermask,Bot*%
%TF.FilePolarity,Negative*%
%FSLAX46Y46*%
G04 Gerber Fmt 4.6, Leading zero omitted, Abs format (unit mm)*
G04 Created by KiCad (PCBNEW (6.0.7-1)-1) date 2023-01-17 11:35:33*
%MOMM*%
%LPD*%
G01*
G04 APERTURE LIST*
%ADD10C,1.803400*%
%ADD11O,1.150000X1.600000*%
%ADD12C,1.280000*%
%ADD13R,1.700000X1.700000*%
%ADD14O,1.700000X1.700000*%
%ADD15C,0.900000*%
%ADD16O,10.400000X8.600000*%
%ADD17C,2.387600*%
%ADD18C,3.556000*%
%ADD19C,1.828800*%
%ADD20C,3.175000*%
%ADD21R,1.100000X1.100000*%
%ADD22C,1.100000*%
G04 APERTURE END LIST*
D10*
%TO.C,J7*%
X44334556Y-153456610D03*
X44334556Y-145256611D03*
X39334556Y-153456610D03*
X39334556Y-145256611D03*
%TD*%
D11*
%TO.C,J1*%
X119564556Y-82212610D03*
X119564556Y-90212610D03*
X116704556Y-82212610D03*
X116704556Y-90212610D03*
%TD*%
D12*
%TO.C,LS1*%
X100722556Y-36576610D03*
X100722556Y-31576610D03*
%TD*%
D10*
%TO.C,J10*%
X132572556Y-108772609D03*
X132572556Y-100572610D03*
X127572556Y-108772609D03*
X127572556Y-100572610D03*
%TD*%
D13*
%TO.C,J9*%
X119772556Y-111038610D03*
D14*
X119772556Y-108498610D03*
%TD*%
D15*
%TO.C,H2*%
X89588556Y-171490610D03*
X86943556Y-174641610D03*
X85438556Y-168265610D03*
X81637556Y-172940610D03*
X88358556Y-174011610D03*
D16*
X85438556Y-171490610D03*
D15*
X82518556Y-168969610D03*
X83933556Y-174641610D03*
X83933556Y-168339610D03*
X85438556Y-174715610D03*
X88358556Y-168969610D03*
X86943556Y-168339610D03*
X82518556Y-174011610D03*
X89239556Y-170040610D03*
X81288556Y-171490610D03*
X89239556Y-172940610D03*
X81637556Y-170040610D03*
%TD*%
D13*
%TO.C,J2*%
X120544556Y-70398610D03*
D14*
X123084556Y-70398610D03*
X125624556Y-70398610D03*
X128164556Y-70398610D03*
%TD*%
D10*
%TO.C,J6*%
X133682633Y-153456610D03*
X133682633Y-145256611D03*
X128682633Y-153456610D03*
X128682633Y-145256611D03*
X123682632Y-153456610D03*
X123682632Y-145256611D03*
X118682632Y-153456610D03*
X118682632Y-145256611D03*
X113682632Y-153456610D03*
X113682632Y-145256611D03*
%TD*%
D17*
%TO.C,B1*%
X36887556Y-97843310D03*
D18*
X45091756Y-132844510D03*
D19*
X109150556Y-124919710D03*
X36887556Y-124919710D03*
X109150556Y-105793510D03*
X36887556Y-105793510D03*
D20*
X100336756Y-115369310D03*
X45091756Y-115369310D03*
X100336756Y-97843310D03*
%TD*%
D13*
%TO.C,J8*%
X50684556Y-143296610D03*
D14*
X50684556Y-145836610D03*
%TD*%
D15*
%TO.C,H1*%
X86943556Y-28131610D03*
D16*
X85438556Y-31282610D03*
D15*
X82518556Y-33803610D03*
X89588556Y-31282610D03*
X82518556Y-28761610D03*
X85438556Y-34507610D03*
X85438556Y-28057610D03*
X81637556Y-32732610D03*
X86943556Y-34433610D03*
X89239556Y-29832610D03*
X89239556Y-32732610D03*
X81637556Y-29832610D03*
X83933556Y-28131610D03*
X83933556Y-34433610D03*
X81288556Y-31282610D03*
X88358556Y-28761610D03*
X88358556Y-33803610D03*
%TD*%
D10*
%TO.C,J4*%
X103068632Y-153456610D03*
X103068632Y-145256611D03*
X98068632Y-153456610D03*
X98068632Y-145256611D03*
%TD*%
D21*
%TO.C,J3*%
X105311056Y-48508610D03*
D22*
X106581056Y-48508610D03*
X105311056Y-49778610D03*
X106581056Y-49778610D03*
X105311056Y-51048610D03*
X106581056Y-51048610D03*
X105311056Y-52318610D03*
X106581056Y-52318610D03*
X105311056Y-53588610D03*
X106581056Y-53588610D03*
%TD*%
M02*
