%TF.GenerationSoftware,KiCad,Pcbnew,(6.0.11-0)*%
%TF.CreationDate,2023-04-19T14:38:13+10:00*%
%TF.ProjectId,enviro-node,656e7669-726f-42d6-9e6f-64652e6b6963,rev?*%
%TF.SameCoordinates,Original*%
%TF.FileFunction,Soldermask,Bot*%
%TF.FilePolarity,Negative*%
%FSLAX46Y46*%
G04 Gerber Fmt 4.6, Leading zero omitted, Abs format (unit mm)*
G04 Created by KiCad (PCBNEW (6.0.11-0)) date 2023-04-19 14:38:13*
%MOMM*%
%LPD*%
G01*
G04 APERTURE LIST*
G04 Aperture macros list*
%AMFreePoly0*
4,1,22,0.500000,-0.750000,0.000000,-0.750000,0.000000,-0.745033,-0.079941,-0.743568,-0.215256,-0.701293,-0.333266,-0.622738,-0.424486,-0.514219,-0.481581,-0.384460,-0.499164,-0.250000,-0.500000,-0.250000,-0.500000,0.250000,-0.499164,0.250000,-0.499963,0.256109,-0.478152,0.396186,-0.417904,0.524511,-0.324060,0.630769,-0.204165,0.706417,-0.067858,0.745374,0.000000,0.744959,0.000000,0.750000,
0.500000,0.750000,0.500000,-0.750000,0.500000,-0.750000,$1*%
%AMFreePoly1*
4,1,20,0.000000,0.744959,0.073905,0.744508,0.209726,0.703889,0.328688,0.626782,0.421226,0.519385,0.479903,0.390333,0.500000,0.250000,0.500000,-0.250000,0.499851,-0.262216,0.476331,-0.402017,0.414519,-0.529596,0.319384,-0.634700,0.198574,-0.708877,0.061801,-0.746166,0.000000,-0.745033,0.000000,-0.750000,-0.500000,-0.750000,-0.500000,0.750000,0.000000,0.750000,0.000000,0.744959,
0.000000,0.744959,$1*%
G04 Aperture macros list end*
%ADD10C,1.600000*%
%ADD11O,1.600000X1.600000*%
%ADD12C,1.803400*%
%ADD13O,1.150000X1.600000*%
%ADD14C,1.280000*%
%ADD15R,1.700000X1.700000*%
%ADD16O,1.700000X1.700000*%
%ADD17C,0.900000*%
%ADD18O,10.400000X8.600000*%
%ADD19C,2.387600*%
%ADD20C,3.556000*%
%ADD21C,1.828800*%
%ADD22C,3.175000*%
%ADD23R,1.100000X1.100000*%
%ADD24C,1.100000*%
%ADD25FreePoly0,90.000000*%
%ADD26FreePoly1,90.000000*%
G04 APERTURE END LIST*
D10*
%TO.C,R42*%
X99288600Y-139801600D03*
D11*
X109448600Y-139801600D03*
%TD*%
D10*
%TO.C,R43*%
X109448600Y-137083800D03*
D11*
X99288600Y-137083800D03*
%TD*%
D12*
%TO.C,J7*%
X44334556Y-153456610D03*
X44334556Y-145256611D03*
X39334556Y-153456610D03*
X39334556Y-145256611D03*
%TD*%
D13*
%TO.C,J1*%
X119564556Y-82212610D03*
X119564556Y-90212610D03*
X116704556Y-82212610D03*
X116704556Y-90212610D03*
%TD*%
D14*
%TO.C,LS1*%
X100722556Y-36576610D03*
X100722556Y-31576610D03*
%TD*%
D12*
%TO.C,J10*%
X132572556Y-108772609D03*
X132572556Y-100572610D03*
X127572556Y-108772609D03*
X127572556Y-100572610D03*
%TD*%
D15*
%TO.C,J9*%
X119772556Y-111038610D03*
D16*
X119772556Y-108498610D03*
%TD*%
D17*
%TO.C,H2*%
X89588556Y-171490610D03*
X86943556Y-174641610D03*
X85438556Y-168265610D03*
X81637556Y-172940610D03*
X88358556Y-174011610D03*
D18*
X85438556Y-171490610D03*
D17*
X82518556Y-168969610D03*
X83933556Y-174641610D03*
X83933556Y-168339610D03*
X85438556Y-174715610D03*
X88358556Y-168969610D03*
X86943556Y-168339610D03*
X82518556Y-174011610D03*
X89239556Y-170040610D03*
X81288556Y-171490610D03*
X89239556Y-172940610D03*
X81637556Y-170040610D03*
%TD*%
D15*
%TO.C,J2*%
X120544556Y-70398610D03*
D16*
X123084556Y-70398610D03*
X125624556Y-70398610D03*
X128164556Y-70398610D03*
%TD*%
D12*
%TO.C,J6*%
X133682633Y-153456610D03*
X133682633Y-145256611D03*
X128682633Y-153456610D03*
X128682633Y-145256611D03*
X123682632Y-153456610D03*
X123682632Y-145256611D03*
X118682632Y-153456610D03*
X118682632Y-145256611D03*
X113682632Y-153456610D03*
X113682632Y-145256611D03*
%TD*%
D19*
%TO.C,B1*%
X36887556Y-97843310D03*
D20*
X45091756Y-132844510D03*
D21*
X109150556Y-124919710D03*
X36887556Y-124919710D03*
X109150556Y-105793510D03*
X36887556Y-105793510D03*
D22*
X100336756Y-115369310D03*
X45091756Y-115369310D03*
X100336756Y-97843310D03*
%TD*%
D15*
%TO.C,J8*%
X50684556Y-143296610D03*
D16*
X50684556Y-145836610D03*
%TD*%
D17*
%TO.C,H1*%
X86943556Y-28131610D03*
D18*
X85438556Y-31282610D03*
D17*
X82518556Y-33803610D03*
X89588556Y-31282610D03*
X82518556Y-28761610D03*
X85438556Y-34507610D03*
X85438556Y-28057610D03*
X81637556Y-32732610D03*
X86943556Y-34433610D03*
X89239556Y-29832610D03*
X89239556Y-32732610D03*
X81637556Y-29832610D03*
X83933556Y-28131610D03*
X83933556Y-34433610D03*
X81288556Y-31282610D03*
X88358556Y-28761610D03*
X88358556Y-33803610D03*
%TD*%
D12*
%TO.C,J4*%
X103068632Y-153456610D03*
X103068632Y-145256611D03*
X98068632Y-153456610D03*
X98068632Y-145256611D03*
%TD*%
D23*
%TO.C,J3*%
X105311056Y-48508610D03*
D24*
X106581056Y-48508610D03*
X105311056Y-49778610D03*
X106581056Y-49778610D03*
X105311056Y-51048610D03*
X106581056Y-51048610D03*
X105311056Y-52318610D03*
X106581056Y-52318610D03*
X105311056Y-53588610D03*
X106581056Y-53588610D03*
%TD*%
D25*
%TO.C,JP1*%
X123240800Y-76494400D03*
D26*
X123240800Y-75194400D03*
%TD*%
M02*
