<svg width="563" height="58" viewBox="0 0 563 58" fill="none" xmlns="http://www.w3.org/2000/svg">
<path d="M4.22727 46V11.0909H16.0227C18.7614 11.0909 21 11.5852 22.7386 12.5739C24.4886 13.5511 25.7841 14.875 26.625 16.5455C27.4659 18.2159 27.8864 20.0795 27.8864 22.1364C27.8864 24.1932 27.4659 26.0625 26.625 27.7443C25.7955 29.4261 24.5114 30.767 22.7727 31.767C21.0341 32.7557 18.8068 33.25 16.0909 33.25H7.63636V29.5H15.9545C17.8295 29.5 19.3352 29.1761 20.4716 28.5284C21.608 27.8807 22.4318 27.0057 22.9432 25.9034C23.4659 24.7898 23.7273 23.5341 23.7273 22.1364C23.7273 20.7386 23.4659 19.4886 22.9432 18.3864C22.4318 17.2841 21.6023 16.4205 20.4545 15.7955C19.3068 15.1591 17.7841 14.8409 15.8864 14.8409H8.45455V46H4.22727ZM36.7415 55.8182C36.0597 55.8182 35.4517 55.7614 34.9176 55.6477C34.3835 55.5455 34.0142 55.4432 33.8097 55.3409L34.8324 51.7955C35.8097 52.0455 36.6733 52.1364 37.4233 52.0682C38.1733 52 38.8381 51.6648 39.4176 51.0625C40.0085 50.4716 40.5483 49.5114 41.0369 48.1818L41.7869 46.1364L32.1051 19.8182H36.4688L43.696 40.6818H43.9688L51.196 19.8182H55.5597L44.446 49.8182C43.946 51.1705 43.3267 52.2898 42.5881 53.1761C41.8494 54.0739 40.9915 54.7386 40.0142 55.1705C39.0483 55.6023 37.9574 55.8182 36.7415 55.8182ZM70.5682 46.5455C68.1136 46.5455 66 45.9659 64.2273 44.8068C62.4545 43.6477 61.0909 42.0511 60.1364 40.017C59.1818 37.983 58.7045 35.6591 58.7045 33.0455C58.7045 30.3864 59.1932 28.0398 60.1705 26.0057C61.1591 23.9602 62.5341 22.3636 64.2955 21.2159C66.0682 20.0568 68.1364 19.4773 70.5 19.4773C72.3409 19.4773 74 19.8182 75.4773 20.5C76.9545 21.1818 78.1648 22.1364 79.108 23.3636C80.0511 24.5909 80.6364 26.0227 80.8636 27.6591H76.8409C76.5341 26.4659 75.8523 25.4091 74.7955 24.4886C73.75 23.5568 72.3409 23.0909 70.5682 23.0909C69 23.0909 67.625 23.5 66.4432 24.3182C65.2727 25.125 64.358 26.267 63.6989 27.7443C63.0511 29.2102 62.7273 30.9318 62.7273 32.9091C62.7273 34.9318 63.0455 36.6932 63.6818 38.1932C64.3295 39.6932 65.2386 40.858 66.4091 41.6875C67.5909 42.517 68.9773 42.9318 70.5682 42.9318C71.6136 42.9318 72.5625 42.75 73.4148 42.3864C74.267 42.0227 74.9886 41.5 75.5795 40.8182C76.1705 40.1364 76.5909 39.3182 76.8409 38.3636H80.8636C80.6364 39.9091 80.0739 41.3011 79.1761 42.5398C78.2898 43.767 77.1136 44.7443 75.6477 45.4716C74.1932 46.1875 72.5 46.5455 70.5682 46.5455ZM97.3807 46.5455C95.017 46.5455 92.9432 45.983 91.1591 44.858C89.3864 43.733 88 42.1591 87 40.1364C86.0114 38.1136 85.517 35.75 85.517 33.0455C85.517 30.3182 86.0114 27.9375 87 25.9034C88 23.8693 89.3864 22.2898 91.1591 21.1648C92.9432 20.0398 95.017 19.4773 97.3807 19.4773C99.7443 19.4773 101.813 20.0398 103.585 21.1648C105.369 22.2898 106.756 23.8693 107.744 25.9034C108.744 27.9375 109.244 30.3182 109.244 33.0455C109.244 35.75 108.744 38.1136 107.744 40.1364C106.756 42.1591 105.369 43.733 103.585 44.858C101.813 45.983 99.7443 46.5455 97.3807 46.5455ZM97.3807 42.9318C99.1761 42.9318 100.653 42.4716 101.812 41.5511C102.972 40.6307 103.83 39.4205 104.386 37.9205C104.943 36.4205 105.222 34.7955 105.222 33.0455C105.222 31.2955 104.943 29.6648 104.386 28.1534C103.83 26.642 102.972 25.4205 101.812 24.4886C100.653 23.5568 99.1761 23.0909 97.3807 23.0909C95.5852 23.0909 94.108 23.5568 92.9489 24.4886C91.7898 25.4205 90.9318 26.642 90.375 28.1534C89.8182 29.6648 89.5398 31.2955 89.5398 33.0455C89.5398 34.7955 89.8182 36.4205 90.375 37.9205C90.9318 39.4205 91.7898 40.6307 92.9489 41.5511C94.108 42.4716 95.5852 42.9318 97.3807 42.9318ZM115.385 46V19.8182H119.271V23.9091H119.612C120.158 22.5114 121.038 21.4261 122.254 20.6534C123.47 19.8693 124.93 19.4773 126.635 19.4773C128.362 19.4773 129.8 19.8693 130.947 20.6534C132.107 21.4261 133.01 22.5114 133.658 23.9091H133.93C134.601 22.5568 135.607 21.483 136.947 20.6875C138.288 19.8807 139.896 19.4773 141.771 19.4773C144.112 19.4773 146.027 20.2102 147.516 21.6761C149.004 23.1307 149.749 25.3977 149.749 28.4773V46H145.726V28.4773C145.726 26.5455 145.197 25.1648 144.141 24.3352C143.084 23.5057 141.839 23.0909 140.408 23.0909C138.567 23.0909 137.141 23.6477 136.129 24.7614C135.118 25.8636 134.612 27.2614 134.612 28.9545V46H130.521V28.0682C130.521 26.5795 130.038 25.3807 129.072 24.4716C128.107 23.5511 126.862 23.0909 125.339 23.0909C124.294 23.0909 123.317 23.3693 122.408 23.9261C121.51 24.483 120.783 25.2557 120.226 26.2443C119.68 27.2216 119.408 28.3523 119.408 29.6364V46H115.385ZM181.99 19.8182V23.2273H168.422V19.8182H181.99ZM172.376 13.5455H176.399V38.5C176.399 39.6364 176.564 40.4886 176.893 41.0568C177.234 41.6136 177.666 41.9886 178.189 42.1818C178.723 42.3636 179.286 42.4545 179.876 42.4545C180.32 42.4545 180.683 42.4318 180.967 42.3864C181.251 42.3295 181.479 42.2841 181.649 42.25L182.467 45.8636C182.195 45.9659 181.814 46.0682 181.325 46.1705C180.837 46.2841 180.217 46.3409 179.467 46.3409C178.331 46.3409 177.217 46.0966 176.126 45.608C175.047 45.1193 174.149 44.375 173.433 43.375C172.729 42.375 172.376 41.1136 172.376 39.5909V13.5455ZM198.396 46.5455C196.033 46.5455 193.959 45.983 192.175 44.858C190.402 43.733 189.016 42.1591 188.016 40.1364C187.027 38.1136 186.533 35.75 186.533 33.0455C186.533 30.3182 187.027 27.9375 188.016 25.9034C189.016 23.8693 190.402 22.2898 192.175 21.1648C193.959 20.0398 196.033 19.4773 198.396 19.4773C200.76 19.4773 202.828 20.0398 204.601 21.1648C206.385 22.2898 207.771 23.8693 208.76 25.9034C209.76 27.9375 210.26 30.3182 210.26 33.0455C210.26 35.75 209.76 38.1136 208.76 40.1364C207.771 42.1591 206.385 43.733 204.601 44.858C202.828 45.983 200.76 46.5455 198.396 46.5455ZM198.396 42.9318C200.192 42.9318 201.669 42.4716 202.828 41.5511C203.987 40.6307 204.845 39.4205 205.402 37.9205C205.959 36.4205 206.237 34.7955 206.237 33.0455C206.237 31.2955 205.959 29.6648 205.402 28.1534C204.845 26.642 203.987 25.4205 202.828 24.4886C201.669 23.5568 200.192 23.0909 198.396 23.0909C196.601 23.0909 195.124 23.5568 193.964 24.4886C192.805 25.4205 191.947 26.642 191.391 28.1534C190.834 29.6648 190.555 31.2955 190.555 33.0455C190.555 34.7955 190.834 36.4205 191.391 37.9205C191.947 39.4205 192.805 40.6307 193.964 41.5511C195.124 42.4716 196.601 42.9318 198.396 42.9318ZM230.446 11.0909H235.491L247.355 40.0682H247.764L259.628 11.0909H264.673V46H260.719V19.4773H260.378L249.469 46H245.651L234.741 19.4773H234.401V46H230.446V11.0909ZM275.536 46.2727C274.695 46.2727 273.973 45.9716 273.371 45.3693C272.768 44.767 272.467 44.0455 272.467 43.2045C272.467 42.3636 272.768 41.642 273.371 41.0398C273.973 40.4375 274.695 40.1364 275.536 40.1364C276.376 40.1364 277.098 40.4375 277.7 41.0398C278.303 41.642 278.604 42.3636 278.604 43.2045C278.604 43.7614 278.462 44.2727 278.178 44.7386C277.905 45.2045 277.536 45.5795 277.07 45.8636C276.615 46.1364 276.104 46.2727 275.536 46.2727ZM285.754 46V42.9318L297.277 30.3182C298.629 28.8409 299.743 27.5568 300.618 26.4659C301.493 25.3636 302.141 24.3295 302.561 23.3636C302.993 22.3864 303.209 21.3636 303.209 20.2955C303.209 19.0682 302.913 18.0057 302.322 17.108C301.743 16.2102 300.947 15.517 299.936 15.0284C298.925 14.5398 297.788 14.2955 296.527 14.2955C295.186 14.2955 294.016 14.5739 293.016 15.1307C292.027 15.6761 291.26 16.4432 290.714 17.4318C290.18 18.4205 289.913 19.5795 289.913 20.9091H285.891C285.891 18.8636 286.362 17.0682 287.305 15.5227C288.249 13.9773 289.533 12.7727 291.158 11.9091C292.794 11.0455 294.629 10.6136 296.663 10.6136C298.709 10.6136 300.521 11.0455 302.101 11.9091C303.68 12.7727 304.919 13.9375 305.817 15.4034C306.714 16.8693 307.163 18.5 307.163 20.2955C307.163 21.5795 306.93 22.8352 306.464 24.0625C306.01 25.2784 305.214 26.6364 304.078 28.1364C302.953 29.625 301.391 31.4432 299.391 33.5909L291.55 41.9773V42.25H307.777V46H285.754ZM357.021 22H352.794C352.544 20.7841 352.107 19.7159 351.482 18.7955C350.868 17.875 350.118 17.1023 349.232 16.4773C348.357 15.8409 347.385 15.3636 346.317 15.0455C345.249 14.7273 344.135 14.5682 342.976 14.5682C340.862 14.5682 338.947 15.1023 337.232 16.1705C335.527 17.2386 334.169 18.8125 333.158 20.892C332.158 22.9716 331.658 25.5227 331.658 28.5455C331.658 31.5682 332.158 34.1193 333.158 36.1989C334.169 38.2784 335.527 39.8523 337.232 40.9205C338.947 41.9886 340.862 42.5227 342.976 42.5227C344.135 42.5227 345.249 42.3636 346.317 42.0455C347.385 41.7273 348.357 41.2557 349.232 40.6307C350.118 39.9943 350.868 39.2159 351.482 38.2955C352.107 37.3636 352.544 36.2955 352.794 35.0909H357.021C356.703 36.875 356.124 38.4716 355.283 39.8807C354.442 41.2898 353.396 42.4886 352.146 43.4773C350.896 44.4545 349.493 45.1989 347.936 45.7102C346.391 46.2216 344.737 46.4773 342.976 46.4773C339.999 46.4773 337.351 45.75 335.033 44.2955C332.714 42.8409 330.891 40.7727 329.561 38.0909C328.232 35.4091 327.567 32.2273 327.567 28.5455C327.567 24.8636 328.232 21.6818 329.561 19C330.891 16.3182 332.714 14.25 335.033 12.7955C337.351 11.3409 339.999 10.6136 342.976 10.6136C344.737 10.6136 346.391 10.8693 347.936 11.3807C349.493 11.892 350.896 12.642 352.146 13.6307C353.396 14.608 354.442 15.8011 355.283 17.2102C356.124 18.608 356.703 20.2045 357.021 22ZM373.943 46.5455C371.58 46.5455 369.506 45.983 367.722 44.858C365.949 43.733 364.562 42.1591 363.562 40.1364C362.574 38.1136 362.08 35.75 362.08 33.0455C362.08 30.3182 362.574 27.9375 363.562 25.9034C364.562 23.8693 365.949 22.2898 367.722 21.1648C369.506 20.0398 371.58 19.4773 373.943 19.4773C376.307 19.4773 378.375 20.0398 380.148 21.1648C381.932 22.2898 383.318 23.8693 384.307 25.9034C385.307 27.9375 385.807 30.3182 385.807 33.0455C385.807 35.75 385.307 38.1136 384.307 40.1364C383.318 42.1591 381.932 43.733 380.148 44.858C378.375 45.983 376.307 46.5455 373.943 46.5455ZM373.943 42.9318C375.739 42.9318 377.216 42.4716 378.375 41.5511C379.534 40.6307 380.392 39.4205 380.949 37.9205C381.506 36.4205 381.784 34.7955 381.784 33.0455C381.784 31.2955 381.506 29.6648 380.949 28.1534C380.392 26.642 379.534 25.4205 378.375 24.4886C377.216 23.5568 375.739 23.0909 373.943 23.0909C372.148 23.0909 370.67 23.5568 369.511 24.4886C368.352 25.4205 367.494 26.642 366.938 28.1534C366.381 29.6648 366.102 31.2955 366.102 33.0455C366.102 34.7955 366.381 36.4205 366.938 37.9205C367.494 39.4205 368.352 40.6307 369.511 41.5511C370.67 42.4716 372.148 42.9318 373.943 42.9318ZM395.97 30.25V46H391.947V19.8182H395.834V23.9091H396.175C396.788 22.5795 397.72 21.5114 398.97 20.7045C400.22 19.8864 401.834 19.4773 403.811 19.4773C405.584 19.4773 407.135 19.8409 408.464 20.5682C409.794 21.2841 410.828 22.375 411.567 23.8409C412.305 25.2955 412.675 27.1364 412.675 29.3636V46H408.652V29.6364C408.652 27.5795 408.118 25.9773 407.05 24.8295C405.982 23.6705 404.516 23.0909 402.652 23.0909C401.368 23.0909 400.22 23.3693 399.209 23.9261C398.209 24.483 397.419 25.2955 396.839 26.3636C396.26 27.4318 395.97 28.7273 395.97 30.25ZM424.048 30.25V46H420.026V19.8182H423.912V23.9091H424.253C424.866 22.5795 425.798 21.5114 427.048 20.7045C428.298 19.8864 429.912 19.4773 431.889 19.4773C433.662 19.4773 435.213 19.8409 436.543 20.5682C437.872 21.2841 438.906 22.375 439.645 23.8409C440.384 25.2955 440.753 27.1364 440.753 29.3636V46H436.73V29.6364C436.73 27.5795 436.196 25.9773 435.128 24.8295C434.06 23.6705 432.594 23.0909 430.73 23.0909C429.446 23.0909 428.298 23.3693 427.287 23.9261C426.287 24.483 425.497 25.2955 424.918 26.3636C424.338 27.4318 424.048 28.7273 424.048 30.25ZM459.081 46.5455C456.558 46.5455 454.382 45.9886 452.553 44.875C450.734 43.75 449.331 42.1818 448.342 40.1705C447.365 38.1477 446.876 35.7955 446.876 33.1136C446.876 30.4318 447.365 28.0682 448.342 26.0227C449.331 23.9659 450.706 22.3636 452.467 21.2159C454.24 20.0568 456.308 19.4773 458.672 19.4773C460.036 19.4773 461.382 19.7045 462.712 20.1591C464.041 20.6136 465.251 21.3523 466.342 22.375C467.433 23.3864 468.303 24.7273 468.95 26.3977C469.598 28.0682 469.922 30.125 469.922 32.5682V34.2727H449.74V30.7955H465.831C465.831 29.3182 465.536 28 464.945 26.8409C464.365 25.6818 463.536 24.767 462.456 24.0966C461.388 23.4261 460.126 23.0909 458.672 23.0909C457.07 23.0909 455.683 23.4886 454.513 24.2841C453.354 25.0682 452.462 26.0909 451.837 27.3523C451.212 28.6136 450.899 29.9659 450.899 31.4091V33.7273C450.899 35.7045 451.24 37.3807 451.922 38.7557C452.615 40.1193 453.575 41.1591 454.803 41.875C456.03 42.5795 457.456 42.9318 459.081 42.9318C460.138 42.9318 461.092 42.7841 461.945 42.4886C462.808 42.1818 463.553 41.7273 464.178 41.125C464.803 40.5114 465.286 39.75 465.626 38.8409L469.513 39.9318C469.104 41.25 468.416 42.4091 467.45 43.4091C466.484 44.3977 465.291 45.1705 463.871 45.7273C462.45 46.2727 460.854 46.5455 459.081 46.5455ZM486.678 46.5455C484.223 46.5455 482.109 45.9659 480.337 44.8068C478.564 43.6477 477.2 42.0511 476.246 40.017C475.291 37.983 474.814 35.6591 474.814 33.0455C474.814 30.3864 475.303 28.0398 476.28 26.0057C477.268 23.9602 478.643 22.3636 480.405 21.2159C482.178 20.0568 484.246 19.4773 486.609 19.4773C488.45 19.4773 490.109 19.8182 491.587 20.5C493.064 21.1818 494.274 22.1364 495.217 23.3636C496.161 24.5909 496.746 26.0227 496.973 27.6591H492.95C492.643 26.4659 491.962 25.4091 490.905 24.4886C489.859 23.5568 488.45 23.0909 486.678 23.0909C485.109 23.0909 483.734 23.5 482.553 24.3182C481.382 25.125 480.467 26.267 479.808 27.7443C479.161 29.2102 478.837 30.9318 478.837 32.9091C478.837 34.9318 479.155 36.6932 479.791 38.1932C480.439 39.6932 481.348 40.858 482.518 41.6875C483.7 42.517 485.087 42.9318 486.678 42.9318C487.723 42.9318 488.672 42.75 489.524 42.3864C490.376 42.0227 491.098 41.5 491.689 40.8182C492.28 40.1364 492.7 39.3182 492.95 38.3636H496.973C496.746 39.9091 496.183 41.3011 495.286 42.5398C494.399 43.767 493.223 44.7443 491.757 45.4716C490.303 46.1875 488.609 46.5455 486.678 46.5455ZM514.24 19.8182V23.2273H500.672V19.8182H514.24ZM504.626 13.5455H508.649V38.5C508.649 39.6364 508.814 40.4886 509.143 41.0568C509.484 41.6136 509.916 41.9886 510.439 42.1818C510.973 42.3636 511.536 42.4545 512.126 42.4545C512.57 42.4545 512.933 42.4318 513.217 42.3864C513.501 42.3295 513.729 42.2841 513.899 42.25L514.717 45.8636C514.445 45.9659 514.064 46.0682 513.575 46.1705C513.087 46.2841 512.467 46.3409 511.717 46.3409C510.581 46.3409 509.467 46.0966 508.376 45.608C507.297 45.1193 506.399 44.375 505.683 43.375C504.979 42.375 504.626 41.1136 504.626 39.5909V13.5455ZM530.646 46.5455C528.283 46.5455 526.209 45.983 524.425 44.858C522.652 43.733 521.266 42.1591 520.266 40.1364C519.277 38.1136 518.783 35.75 518.783 33.0455C518.783 30.3182 519.277 27.9375 520.266 25.9034C521.266 23.8693 522.652 22.2898 524.425 21.1648C526.209 20.0398 528.283 19.4773 530.646 19.4773C533.01 19.4773 535.078 20.0398 536.851 21.1648C538.635 22.2898 540.021 23.8693 541.01 25.9034C542.01 27.9375 542.51 30.3182 542.51 33.0455C542.51 35.75 542.01 38.1136 541.01 40.1364C540.021 42.1591 538.635 43.733 536.851 44.858C535.078 45.983 533.01 46.5455 530.646 46.5455ZM530.646 42.9318C532.442 42.9318 533.919 42.4716 535.078 41.5511C536.237 40.6307 537.095 39.4205 537.652 37.9205C538.209 36.4205 538.487 34.7955 538.487 33.0455C538.487 31.2955 538.209 29.6648 537.652 28.1534C537.095 26.642 536.237 25.4205 535.078 24.4886C533.919 23.5568 532.442 23.0909 530.646 23.0909C528.851 23.0909 527.374 23.5568 526.214 24.4886C525.055 25.4205 524.197 26.642 523.641 28.1534C523.084 29.6648 522.805 31.2955 522.805 33.0455C522.805 34.7955 523.084 36.4205 523.641 37.9205C524.197 39.4205 525.055 40.6307 526.214 41.5511C527.374 42.4716 528.851 42.9318 530.646 42.9318ZM548.651 46V19.8182H552.537V23.7727H552.81C553.287 22.4773 554.151 21.4261 555.401 20.6193C556.651 19.8125 558.06 19.4091 559.628 19.4091C559.923 19.4091 560.293 19.4148 560.736 19.4261C561.179 19.4375 561.514 19.4545 561.741 19.4773V23.5682C561.605 23.5341 561.293 23.483 560.804 23.4148C560.327 23.3352 559.821 23.2955 559.287 23.2955C558.014 23.2955 556.878 23.5625 555.878 24.0966C554.889 24.6193 554.105 25.3466 553.526 26.2784C552.957 27.1989 552.673 28.25 552.673 29.4318V46H548.651Z" fill="black"/>
</svg>
