%TF.GenerationSoftware,KiCad,Pcbnew,(6.0.7-1)-1*%
%TF.CreationDate,2022-11-03T21:10:23+11:00*%
%TF.ProjectId,case-connector,63617365-2d63-46f6-9e6e-6563746f722e,rev?*%
%TF.SameCoordinates,Original*%
%TF.FileFunction,Copper,L1,Top*%
%TF.FilePolarity,Positive*%
%FSLAX46Y46*%
G04 Gerber Fmt 4.6, Leading zero omitted, Abs format (unit mm)*
G04 Created by KiCad (PCBNEW (6.0.7-1)-1) date 2022-11-03 21:10:23*
%MOMM*%
%LPD*%
G01*
G04 APERTURE LIST*
%TA.AperFunction,ComponentPad*%
%ADD10C,1.850000*%
%TD*%
%TA.AperFunction,ComponentPad*%
%ADD11C,4.016000*%
%TD*%
%TA.AperFunction,ViaPad*%
%ADD12C,0.800000*%
%TD*%
%TA.AperFunction,Conductor*%
%ADD13C,1.000000*%
%TD*%
%TA.AperFunction,Conductor*%
%ADD14C,0.500000*%
%TD*%
G04 APERTURE END LIST*
D10*
%TO.P,J7,2,2*%
%TO.N,SDI-12_DATA*%
X69850000Y-63450000D03*
%TO.P,J7,4,4*%
%TO.N,unconnected-(J7-Pad4)*%
X72000000Y-63450000D03*
%TO.P,J7,1,1*%
%TO.N,+12V*%
X69225000Y-61500000D03*
%TO.P,J7,3,3*%
%TO.N,GND*%
X72625000Y-61500000D03*
D11*
%TO.P,J7,S1,SHIELD*%
X77175000Y-62000000D03*
%TO.P,J7,S2,SHIELD*%
X64675000Y-62000000D03*
%TD*%
%TO.P,J6,S2,SHIELD*%
%TO.N,GND*%
X91366666Y-85500000D03*
%TO.P,J6,S1,SHIELD*%
X103866666Y-85500000D03*
D10*
%TO.P,J6,3,3*%
X99316666Y-85000000D03*
%TO.P,J6,1,1*%
%TO.N,+12V*%
X95916666Y-85000000D03*
%TO.P,J6,4,4*%
%TO.N,unconnected-(J6-Pad4)*%
X98691666Y-86950000D03*
%TO.P,J6,2,2*%
%TO.N,SDI-12_DATA*%
X96541666Y-86950000D03*
%TD*%
D11*
%TO.P,J5,S2,SHIELD*%
%TO.N,GND*%
X91366666Y-62000000D03*
%TO.P,J5,S1,SHIELD*%
X103866666Y-62000000D03*
D10*
%TO.P,J5,3,3*%
X99316666Y-61500000D03*
%TO.P,J5,1,1*%
%TO.N,+12V*%
X95916666Y-61500000D03*
%TO.P,J5,4,4*%
%TO.N,unconnected-(J5-Pad4)*%
X98691666Y-63450000D03*
%TO.P,J5,2,2*%
%TO.N,SDI-12_DATA*%
X96541666Y-63450000D03*
%TD*%
D11*
%TO.P,J4,S2,SHIELD*%
%TO.N,GND*%
X144750000Y-62000000D03*
%TO.P,J4,S1,SHIELD*%
X157250000Y-62000000D03*
D10*
%TO.P,J4,3,3*%
%TO.N,Digital_Interrupt*%
X152750000Y-62000000D03*
%TO.P,J4,1,1*%
%TO.N,+3.3V*%
X149250000Y-62000000D03*
%TO.P,J4,4,4*%
%TO.N,GND*%
X151000000Y-63750000D03*
%TD*%
%TO.P,J3,2,2*%
%TO.N,SDI-12_DATA*%
X123233332Y-63450000D03*
%TO.P,J3,4,4*%
%TO.N,unconnected-(J3-Pad4)*%
X125383332Y-63450000D03*
%TO.P,J3,1,1*%
%TO.N,+12V*%
X122608332Y-61500000D03*
%TO.P,J3,3,3*%
%TO.N,GND*%
X126008332Y-61500000D03*
D11*
%TO.P,J3,S1,SHIELD*%
X130558332Y-62000000D03*
%TO.P,J3,S2,SHIELD*%
X118058332Y-62000000D03*
%TD*%
D10*
%TO.P,J2,2,2*%
%TO.N,SDI-12_DATA*%
X69850000Y-86950000D03*
%TO.P,J2,4,4*%
%TO.N,unconnected-(J2-Pad4)*%
X72000000Y-86950000D03*
%TO.P,J2,1,1*%
%TO.N,+12V*%
X69225000Y-85000000D03*
%TO.P,J2,3,3*%
%TO.N,GND*%
X72625000Y-85000000D03*
D11*
%TO.P,J2,S1,SHIELD*%
X77175000Y-85500000D03*
%TO.P,J2,S2,SHIELD*%
X64675000Y-85500000D03*
%TD*%
%TO.P,J1,S2,SHIELD*%
%TO.N,GND*%
X118058332Y-85500000D03*
%TO.P,J1,S1,SHIELD*%
X130558332Y-85500000D03*
D10*
%TO.P,J1,3,3*%
X126008332Y-85000000D03*
%TO.P,J1,1,1*%
%TO.N,+12V*%
X122608332Y-85000000D03*
%TO.P,J1,4,4*%
%TO.N,unconnected-(J1-Pad4)*%
X125383332Y-86950000D03*
%TO.P,J1,2,2*%
%TO.N,SDI-12_DATA*%
X123233332Y-86950000D03*
%TD*%
D12*
%TO.N,GND*%
X121000000Y-69500000D03*
X121000000Y-73500000D03*
%TO.N,Digital_Interrupt*%
X121000000Y-76250000D03*
%TO.N,+3.3V*%
X120250000Y-67000000D03*
%TO.N,+12V*%
X108500000Y-67250000D03*
%TD*%
D13*
%TO.N,+12V*%
X122608332Y-85000000D02*
X109974998Y-72366666D01*
X109974998Y-72366666D02*
X108500000Y-72366666D01*
%TO.N,Digital_Interrupt*%
X147750000Y-70750000D02*
X154000000Y-64500000D01*
X121000000Y-76250000D02*
X128500000Y-76250000D01*
X128500000Y-76250000D02*
X134000000Y-70750000D01*
X134000000Y-70750000D02*
X147750000Y-70750000D01*
X154000000Y-64500000D02*
X154000000Y-63250000D01*
X154000000Y-63250000D02*
X152750000Y-62000000D01*
%TO.N,+3.3V*%
X144250000Y-67000000D02*
X149250000Y-62000000D01*
X120250000Y-67000000D02*
X144250000Y-67000000D01*
%TO.N,+12V*%
X69225000Y-85000000D02*
X69225000Y-68225000D01*
X67250000Y-66250000D02*
X67250000Y-63475000D01*
X69225000Y-68225000D02*
X67250000Y-66250000D01*
X67250000Y-63475000D02*
X69225000Y-61500000D01*
X107000000Y-57250000D02*
X97000000Y-57250000D01*
X97000000Y-57250000D02*
X73475000Y-57250000D01*
X95916666Y-61500000D02*
X95916666Y-58333334D01*
X95916666Y-58333334D02*
X97000000Y-57250000D01*
X108500000Y-58750000D02*
X107000000Y-57250000D01*
X108500000Y-67250000D02*
X108500000Y-58750000D01*
X73475000Y-57250000D02*
X69225000Y-61500000D01*
X108500000Y-72366666D02*
X108500000Y-67250000D01*
X122608332Y-61500000D02*
X111741666Y-72366666D01*
X111741666Y-72366666D02*
X108500000Y-72366666D01*
D14*
X95916666Y-84950000D02*
X97808333Y-83058333D01*
D13*
X97808333Y-83058333D02*
X108500000Y-72366666D01*
%TD*%
%TA.AperFunction,Conductor*%
%TO.N,GND*%
G36*
X160433621Y-52528502D02*
G01*
X160480114Y-52582158D01*
X160491500Y-52634500D01*
X160491500Y-70450633D01*
X160490000Y-70470018D01*
X160486309Y-70493724D01*
X160487473Y-70502627D01*
X160487473Y-70502628D01*
X160488839Y-70513076D01*
X160489751Y-70535597D01*
X160474991Y-70836045D01*
X160473779Y-70848350D01*
X160425321Y-71175031D01*
X160422909Y-71187159D01*
X160342661Y-71507523D01*
X160339072Y-71519355D01*
X160227810Y-71830311D01*
X160223078Y-71841735D01*
X160081874Y-72140288D01*
X160076045Y-72151193D01*
X159906256Y-72434467D01*
X159899386Y-72444748D01*
X159702650Y-72710017D01*
X159694823Y-72719556D01*
X159473020Y-72964277D01*
X159464282Y-72973015D01*
X159219556Y-73194823D01*
X159210017Y-73202650D01*
X159031485Y-73335058D01*
X158944748Y-73399386D01*
X158934467Y-73406256D01*
X158792101Y-73491588D01*
X158651188Y-73576047D01*
X158640292Y-73581872D01*
X158505870Y-73645448D01*
X158341735Y-73723078D01*
X158330311Y-73727810D01*
X158019355Y-73839072D01*
X158007523Y-73842661D01*
X157781196Y-73899354D01*
X157687156Y-73922910D01*
X157675034Y-73925320D01*
X157348345Y-73973779D01*
X157336051Y-73974990D01*
X157042961Y-73989390D01*
X157017402Y-73988042D01*
X157006276Y-73986309D01*
X156974714Y-73990436D01*
X156958379Y-73991500D01*
X142053250Y-73991500D01*
X142032345Y-73989754D01*
X142017344Y-73987230D01*
X142017341Y-73987230D01*
X142012552Y-73986424D01*
X142006237Y-73986347D01*
X142004858Y-73986330D01*
X142004855Y-73986330D01*
X142000000Y-73986271D01*
X141995190Y-73986960D01*
X141992368Y-73987144D01*
X141984401Y-73987886D01*
X141609444Y-74004257D01*
X141609433Y-74004258D01*
X141606684Y-74004378D01*
X141411523Y-74030071D01*
X141219100Y-74055403D01*
X141219091Y-74055405D01*
X141216361Y-74055764D01*
X141213666Y-74056361D01*
X141213663Y-74056362D01*
X140910553Y-74123561D01*
X140832003Y-74140975D01*
X140829386Y-74141800D01*
X140829379Y-74141802D01*
X140459161Y-74258531D01*
X140459153Y-74258534D01*
X140456533Y-74259360D01*
X140140224Y-74390380D01*
X140097214Y-74408195D01*
X140092810Y-74410019D01*
X139743603Y-74591805D01*
X139411567Y-74803335D01*
X139409392Y-74805004D01*
X139101399Y-75041334D01*
X139101393Y-75041339D01*
X139099231Y-75042998D01*
X138808972Y-75308972D01*
X138542998Y-75599231D01*
X138541339Y-75601393D01*
X138541334Y-75601399D01*
X138344976Y-75857299D01*
X138303335Y-75911567D01*
X138091805Y-76243603D01*
X137910019Y-76592810D01*
X137759360Y-76956533D01*
X137758534Y-76959153D01*
X137758531Y-76959161D01*
X137662629Y-77263324D01*
X137640975Y-77332003D01*
X137555764Y-77716361D01*
X137504378Y-78106684D01*
X137504258Y-78109433D01*
X137504257Y-78109444D01*
X137488240Y-78476294D01*
X137487733Y-78481401D01*
X137487691Y-78484851D01*
X137486309Y-78493724D01*
X137487473Y-78502626D01*
X137487473Y-78502628D01*
X137490436Y-78525283D01*
X137491500Y-78541621D01*
X137491500Y-90872209D01*
X137490000Y-90891594D01*
X137487690Y-90906427D01*
X137487690Y-90906431D01*
X137486309Y-90915300D01*
X137487473Y-90924202D01*
X137487473Y-90924204D01*
X137488855Y-90934769D01*
X137489771Y-90957212D01*
X137475026Y-91261148D01*
X137473844Y-91273302D01*
X137425459Y-91603643D01*
X137423105Y-91615627D01*
X137342971Y-91939717D01*
X137339469Y-91951416D01*
X137228333Y-92266238D01*
X137223714Y-92277544D01*
X137082624Y-92580120D01*
X137076933Y-92590925D01*
X136907207Y-92878432D01*
X136900496Y-92888635D01*
X136703743Y-93158349D01*
X136696080Y-93167852D01*
X136474124Y-93417269D01*
X136465582Y-93425978D01*
X136220534Y-93652725D01*
X136211179Y-93660575D01*
X135945336Y-93862530D01*
X135935265Y-93869438D01*
X135651109Y-94044715D01*
X135640418Y-94050615D01*
X135340628Y-94197560D01*
X135329422Y-94202393D01*
X135016823Y-94319622D01*
X135005194Y-94323351D01*
X134858461Y-94362672D01*
X134682709Y-94409768D01*
X134670787Y-94412351D01*
X134435505Y-94451495D01*
X134341444Y-94467144D01*
X134329315Y-94468562D01*
X134033245Y-94488695D01*
X134007733Y-94487837D01*
X134006134Y-94487620D01*
X133996301Y-94486284D01*
X133987428Y-94487620D01*
X133987425Y-94487620D01*
X133970984Y-94490096D01*
X133952224Y-94491500D01*
X61634500Y-94491500D01*
X61566379Y-94471498D01*
X61519886Y-94417842D01*
X61508500Y-94365500D01*
X61508500Y-87451715D01*
X63087993Y-87451715D01*
X63096820Y-87463333D01*
X63320986Y-87626199D01*
X63327666Y-87630439D01*
X63598159Y-87779143D01*
X63605294Y-87782500D01*
X63892293Y-87896132D01*
X63899818Y-87898577D01*
X64198777Y-87975336D01*
X64206548Y-87976819D01*
X64512775Y-88015503D01*
X64520666Y-88016000D01*
X64829334Y-88016000D01*
X64837225Y-88015503D01*
X65143452Y-87976819D01*
X65151223Y-87975336D01*
X65450182Y-87898577D01*
X65457707Y-87896132D01*
X65744706Y-87782500D01*
X65751841Y-87779143D01*
X66022334Y-87630439D01*
X66029014Y-87626199D01*
X66253551Y-87463064D01*
X66261974Y-87452141D01*
X66255070Y-87439280D01*
X64687812Y-85872022D01*
X64673868Y-85864408D01*
X64672035Y-85864539D01*
X64665420Y-85868790D01*
X63094606Y-87439604D01*
X63087993Y-87451715D01*
X61508500Y-87451715D01*
X61508500Y-85503958D01*
X62154274Y-85503958D01*
X62173655Y-85811999D01*
X62174648Y-85819862D01*
X62232482Y-86123040D01*
X62234453Y-86130717D01*
X62329831Y-86424260D01*
X62332746Y-86431623D01*
X62464165Y-86710903D01*
X62467977Y-86717836D01*
X62633362Y-86978443D01*
X62638016Y-86984848D01*
X62713813Y-87076470D01*
X62726332Y-87084926D01*
X62737070Y-87078720D01*
X64302978Y-85512812D01*
X64309356Y-85501132D01*
X65039408Y-85501132D01*
X65039539Y-85502965D01*
X65043790Y-85509580D01*
X66611827Y-87077617D01*
X66625090Y-87084859D01*
X66635192Y-87077672D01*
X66711984Y-86984848D01*
X66716638Y-86978443D01*
X66882023Y-86717836D01*
X66885835Y-86710903D01*
X67017254Y-86431623D01*
X67020169Y-86424260D01*
X67115547Y-86130717D01*
X67117518Y-86123040D01*
X67175352Y-85819862D01*
X67176345Y-85811999D01*
X67195726Y-85503958D01*
X67195726Y-85496042D01*
X67176345Y-85188001D01*
X67175352Y-85180138D01*
X67117518Y-84876960D01*
X67115547Y-84869283D01*
X67020169Y-84575740D01*
X67017254Y-84568377D01*
X66885835Y-84289097D01*
X66882023Y-84282164D01*
X66716638Y-84021557D01*
X66711984Y-84015152D01*
X66636187Y-83923530D01*
X66623668Y-83915074D01*
X66612930Y-83921280D01*
X65047022Y-85487188D01*
X65039408Y-85501132D01*
X64309356Y-85501132D01*
X64310592Y-85498868D01*
X64310461Y-85497035D01*
X64306210Y-85490420D01*
X62738173Y-83922383D01*
X62724910Y-83915141D01*
X62714808Y-83922328D01*
X62638016Y-84015152D01*
X62633362Y-84021557D01*
X62467977Y-84282164D01*
X62464165Y-84289097D01*
X62332746Y-84568377D01*
X62329831Y-84575740D01*
X62234453Y-84869283D01*
X62232482Y-84876960D01*
X62174648Y-85180138D01*
X62173655Y-85188001D01*
X62154274Y-85496042D01*
X62154274Y-85503958D01*
X61508500Y-85503958D01*
X61508500Y-83547859D01*
X63088026Y-83547859D01*
X63094930Y-83560720D01*
X64662188Y-85127978D01*
X64676132Y-85135592D01*
X64677965Y-85135461D01*
X64684580Y-85131210D01*
X66255394Y-83560396D01*
X66262007Y-83548285D01*
X66253180Y-83536667D01*
X66029014Y-83373801D01*
X66022334Y-83369561D01*
X65751841Y-83220857D01*
X65744706Y-83217500D01*
X65457707Y-83103868D01*
X65450182Y-83101423D01*
X65151223Y-83024664D01*
X65143452Y-83023181D01*
X64837225Y-82984497D01*
X64829334Y-82984000D01*
X64520666Y-82984000D01*
X64512775Y-82984497D01*
X64206548Y-83023181D01*
X64198777Y-83024664D01*
X63899818Y-83101423D01*
X63892293Y-83103868D01*
X63605294Y-83217500D01*
X63598159Y-83220857D01*
X63327666Y-83369561D01*
X63320986Y-83373801D01*
X63096449Y-83536936D01*
X63088026Y-83547859D01*
X61508500Y-83547859D01*
X61508500Y-63951715D01*
X63087993Y-63951715D01*
X63096820Y-63963333D01*
X63320986Y-64126199D01*
X63327666Y-64130439D01*
X63598159Y-64279143D01*
X63605294Y-64282500D01*
X63892293Y-64396132D01*
X63899818Y-64398577D01*
X64198777Y-64475336D01*
X64206548Y-64476819D01*
X64512775Y-64515503D01*
X64520666Y-64516000D01*
X64829334Y-64516000D01*
X64837225Y-64515503D01*
X65143452Y-64476819D01*
X65151223Y-64475336D01*
X65450182Y-64398577D01*
X65457707Y-64396132D01*
X65744706Y-64282500D01*
X65751841Y-64279143D01*
X66022334Y-64130439D01*
X66029015Y-64126199D01*
X66041439Y-64117172D01*
X66108307Y-64093313D01*
X66177459Y-64109394D01*
X66226939Y-64160308D01*
X66241500Y-64219108D01*
X66241500Y-66188157D01*
X66240763Y-66201764D01*
X66236676Y-66239388D01*
X66237213Y-66245523D01*
X66241050Y-66289388D01*
X66241379Y-66294214D01*
X66241500Y-66296686D01*
X66241500Y-66299769D01*
X66241801Y-66302837D01*
X66245690Y-66342506D01*
X66245812Y-66343819D01*
X66253913Y-66436413D01*
X66255400Y-66441532D01*
X66255920Y-66446833D01*
X66282791Y-66535834D01*
X66283126Y-66536967D01*
X66301985Y-66601877D01*
X66309091Y-66626336D01*
X66311544Y-66631068D01*
X66313084Y-66636169D01*
X66315978Y-66641612D01*
X66356731Y-66718260D01*
X66357343Y-66719426D01*
X66400108Y-66801926D01*
X66403431Y-66806089D01*
X66405934Y-66810796D01*
X66464755Y-66882918D01*
X66465446Y-66883774D01*
X66496738Y-66922973D01*
X66499242Y-66925477D01*
X66499884Y-66926195D01*
X66503585Y-66930528D01*
X66530935Y-66964062D01*
X66535682Y-66967989D01*
X66535684Y-66967991D01*
X66566262Y-66993287D01*
X66575042Y-67001277D01*
X68179595Y-68605829D01*
X68213620Y-68668141D01*
X68216500Y-68694924D01*
X68216500Y-83929818D01*
X68196498Y-83997939D01*
X68181594Y-84016869D01*
X68137174Y-84063352D01*
X68107143Y-84094777D01*
X67974307Y-84289508D01*
X67972133Y-84294192D01*
X67972131Y-84294195D01*
X67929611Y-84385798D01*
X67875059Y-84503319D01*
X67812065Y-84730468D01*
X67811516Y-84735605D01*
X67787966Y-84955968D01*
X67787016Y-84964856D01*
X67787313Y-84970008D01*
X67787313Y-84970012D01*
X67800288Y-85195029D01*
X67800289Y-85195035D01*
X67800586Y-85200188D01*
X67852408Y-85430144D01*
X67854352Y-85434930D01*
X67854353Y-85434935D01*
X67923938Y-85606300D01*
X67941093Y-85648548D01*
X68064258Y-85849535D01*
X68218595Y-86027707D01*
X68399960Y-86178279D01*
X68404417Y-86180883D01*
X68404422Y-86180887D01*
X68480139Y-86225132D01*
X68528863Y-86276770D01*
X68541934Y-86346553D01*
X68530857Y-86386970D01*
X68513548Y-86424260D01*
X68500059Y-86453319D01*
X68437065Y-86680468D01*
X68412016Y-86914856D01*
X68412313Y-86920008D01*
X68412313Y-86920012D01*
X68425288Y-87145029D01*
X68425289Y-87145035D01*
X68425586Y-87150188D01*
X68477408Y-87380144D01*
X68479352Y-87384930D01*
X68479353Y-87384935D01*
X68519643Y-87484157D01*
X68566093Y-87598548D01*
X68689258Y-87799535D01*
X68843595Y-87977707D01*
X69024960Y-88128279D01*
X69029412Y-88130881D01*
X69029417Y-88130884D01*
X69224024Y-88244603D01*
X69228482Y-88247208D01*
X69448696Y-88331299D01*
X69453762Y-88332330D01*
X69453763Y-88332330D01*
X69556611Y-88353254D01*
X69679686Y-88378294D01*
X69812389Y-88383160D01*
X69910087Y-88386743D01*
X69910091Y-88386743D01*
X69915251Y-88386932D01*
X69920371Y-88386276D01*
X69920373Y-88386276D01*
X69993235Y-88376942D01*
X70149063Y-88356980D01*
X70154012Y-88355495D01*
X70154018Y-88355494D01*
X70285465Y-88316058D01*
X70374844Y-88289243D01*
X70586529Y-88185539D01*
X70590732Y-88182541D01*
X70590737Y-88182538D01*
X70774231Y-88051653D01*
X70774233Y-88051651D01*
X70778435Y-88048654D01*
X70833848Y-87993434D01*
X70896220Y-87959518D01*
X70967026Y-87964706D01*
X71003270Y-87985739D01*
X71174960Y-88128279D01*
X71179412Y-88130881D01*
X71179417Y-88130884D01*
X71374024Y-88244603D01*
X71378482Y-88247208D01*
X71598696Y-88331299D01*
X71603762Y-88332330D01*
X71603763Y-88332330D01*
X71706611Y-88353254D01*
X71829686Y-88378294D01*
X71962389Y-88383160D01*
X72060087Y-88386743D01*
X72060091Y-88386743D01*
X72065251Y-88386932D01*
X72070371Y-88386276D01*
X72070373Y-88386276D01*
X72143235Y-88376942D01*
X72299063Y-88356980D01*
X72304012Y-88355495D01*
X72304018Y-88355494D01*
X72435465Y-88316058D01*
X72524844Y-88289243D01*
X72736529Y-88185539D01*
X72740732Y-88182541D01*
X72740737Y-88182538D01*
X72924231Y-88051653D01*
X72924233Y-88051651D01*
X72928435Y-88048654D01*
X73095407Y-87882264D01*
X73232961Y-87690837D01*
X73337403Y-87479515D01*
X73345849Y-87451715D01*
X75587993Y-87451715D01*
X75596820Y-87463333D01*
X75820986Y-87626199D01*
X75827666Y-87630439D01*
X76098159Y-87779143D01*
X76105294Y-87782500D01*
X76392293Y-87896132D01*
X76399818Y-87898577D01*
X76698777Y-87975336D01*
X76706548Y-87976819D01*
X77012775Y-88015503D01*
X77020666Y-88016000D01*
X77329334Y-88016000D01*
X77337225Y-88015503D01*
X77643452Y-87976819D01*
X77651223Y-87975336D01*
X77950182Y-87898577D01*
X77957707Y-87896132D01*
X78244706Y-87782500D01*
X78251841Y-87779143D01*
X78522334Y-87630439D01*
X78529014Y-87626199D01*
X78753551Y-87463064D01*
X78761974Y-87452141D01*
X78761745Y-87451715D01*
X89779659Y-87451715D01*
X89788486Y-87463333D01*
X90012652Y-87626199D01*
X90019332Y-87630439D01*
X90289825Y-87779143D01*
X90296960Y-87782500D01*
X90583959Y-87896132D01*
X90591484Y-87898577D01*
X90890443Y-87975336D01*
X90898214Y-87976819D01*
X91204441Y-88015503D01*
X91212332Y-88016000D01*
X91521000Y-88016000D01*
X91528891Y-88015503D01*
X91835118Y-87976819D01*
X91842889Y-87975336D01*
X92141848Y-87898577D01*
X92149373Y-87896132D01*
X92436372Y-87782500D01*
X92443507Y-87779143D01*
X92714000Y-87630439D01*
X92720680Y-87626199D01*
X92945217Y-87463064D01*
X92953640Y-87452141D01*
X92946736Y-87439280D01*
X91379478Y-85872022D01*
X91365534Y-85864408D01*
X91363701Y-85864539D01*
X91357086Y-85868790D01*
X89786272Y-87439604D01*
X89779659Y-87451715D01*
X78761745Y-87451715D01*
X78755070Y-87439280D01*
X77187812Y-85872022D01*
X77173868Y-85864408D01*
X77172035Y-85864539D01*
X77165420Y-85868790D01*
X75594606Y-87439604D01*
X75587993Y-87451715D01*
X73345849Y-87451715D01*
X73405928Y-87253972D01*
X73406603Y-87248846D01*
X73436259Y-87023587D01*
X73436259Y-87023583D01*
X73436696Y-87020266D01*
X73436778Y-87016914D01*
X73438331Y-86953365D01*
X73438331Y-86953361D01*
X73438413Y-86950000D01*
X73432017Y-86872201D01*
X73419522Y-86720221D01*
X73419521Y-86720215D01*
X73419098Y-86715070D01*
X73361673Y-86486449D01*
X73318846Y-86387954D01*
X73310026Y-86317509D01*
X73340693Y-86253477D01*
X73361955Y-86236066D01*
X73361272Y-86235108D01*
X73428021Y-86187497D01*
X73436421Y-86176798D01*
X73429432Y-86163642D01*
X72266922Y-85001132D01*
X72989408Y-85001132D01*
X72989539Y-85002965D01*
X72993790Y-85009580D01*
X73789216Y-85805006D01*
X73801226Y-85811564D01*
X73812966Y-85802596D01*
X73854511Y-85744780D01*
X73859821Y-85735943D01*
X73959642Y-85533972D01*
X73963440Y-85524379D01*
X73969644Y-85503958D01*
X74654274Y-85503958D01*
X74673655Y-85811999D01*
X74674648Y-85819862D01*
X74732482Y-86123040D01*
X74734453Y-86130717D01*
X74829831Y-86424260D01*
X74832746Y-86431623D01*
X74964165Y-86710903D01*
X74967977Y-86717836D01*
X75133362Y-86978443D01*
X75138016Y-86984848D01*
X75213813Y-87076470D01*
X75226332Y-87084926D01*
X75237070Y-87078720D01*
X76802978Y-85512812D01*
X76809356Y-85501132D01*
X77539408Y-85501132D01*
X77539539Y-85502965D01*
X77543790Y-85509580D01*
X79111827Y-87077617D01*
X79125090Y-87084859D01*
X79135192Y-87077672D01*
X79211984Y-86984848D01*
X79216638Y-86978443D01*
X79382023Y-86717836D01*
X79385835Y-86710903D01*
X79517254Y-86431623D01*
X79520169Y-86424260D01*
X79615547Y-86130717D01*
X79617518Y-86123040D01*
X79675352Y-85819862D01*
X79676345Y-85811999D01*
X79695726Y-85503958D01*
X88845940Y-85503958D01*
X88865321Y-85811999D01*
X88866314Y-85819862D01*
X88924148Y-86123040D01*
X88926119Y-86130717D01*
X89021497Y-86424260D01*
X89024412Y-86431623D01*
X89155831Y-86710903D01*
X89159643Y-86717836D01*
X89325028Y-86978443D01*
X89329682Y-86984848D01*
X89405479Y-87076470D01*
X89417998Y-87084926D01*
X89428736Y-87078720D01*
X90994644Y-85512812D01*
X91001022Y-85501132D01*
X91731074Y-85501132D01*
X91731205Y-85502965D01*
X91735456Y-85509580D01*
X93303493Y-87077617D01*
X93316756Y-87084859D01*
X93326858Y-87077672D01*
X93403650Y-86984848D01*
X93408304Y-86978443D01*
X93573689Y-86717836D01*
X93577501Y-86710903D01*
X93708920Y-86431623D01*
X93711835Y-86424260D01*
X93807213Y-86130717D01*
X93809184Y-86123040D01*
X93867018Y-85819862D01*
X93868011Y-85811999D01*
X93887392Y-85503958D01*
X93887392Y-85496042D01*
X93868011Y-85188001D01*
X93867018Y-85180138D01*
X93809184Y-84876960D01*
X93807213Y-84869283D01*
X93711835Y-84575740D01*
X93708920Y-84568377D01*
X93577501Y-84289097D01*
X93573689Y-84282164D01*
X93408304Y-84021557D01*
X93403650Y-84015152D01*
X93327853Y-83923530D01*
X93315334Y-83915074D01*
X93304596Y-83921280D01*
X91738688Y-85487188D01*
X91731074Y-85501132D01*
X91001022Y-85501132D01*
X91002258Y-85498868D01*
X91002127Y-85497035D01*
X90997876Y-85490420D01*
X89429839Y-83922383D01*
X89416576Y-83915141D01*
X89406474Y-83922328D01*
X89329682Y-84015152D01*
X89325028Y-84021557D01*
X89159643Y-84282164D01*
X89155831Y-84289097D01*
X89024412Y-84568377D01*
X89021497Y-84575740D01*
X88926119Y-84869283D01*
X88924148Y-84876960D01*
X88866314Y-85180138D01*
X88865321Y-85188001D01*
X88845940Y-85496042D01*
X88845940Y-85503958D01*
X79695726Y-85503958D01*
X79695726Y-85496042D01*
X79676345Y-85188001D01*
X79675352Y-85180138D01*
X79617518Y-84876960D01*
X79615547Y-84869283D01*
X79520169Y-84575740D01*
X79517254Y-84568377D01*
X79385835Y-84289097D01*
X79382023Y-84282164D01*
X79216638Y-84021557D01*
X79211984Y-84015152D01*
X79136187Y-83923530D01*
X79123668Y-83915074D01*
X79112930Y-83921280D01*
X77547022Y-85487188D01*
X77539408Y-85501132D01*
X76809356Y-85501132D01*
X76810592Y-85498868D01*
X76810461Y-85497035D01*
X76806210Y-85490420D01*
X75238173Y-83922383D01*
X75224910Y-83915141D01*
X75214808Y-83922328D01*
X75138016Y-84015152D01*
X75133362Y-84021557D01*
X74967977Y-84282164D01*
X74964165Y-84289097D01*
X74832746Y-84568377D01*
X74829831Y-84575740D01*
X74734453Y-84869283D01*
X74732482Y-84876960D01*
X74674648Y-85180138D01*
X74673655Y-85188001D01*
X74654274Y-85496042D01*
X74654274Y-85503958D01*
X73969644Y-85503958D01*
X74028935Y-85308810D01*
X74031112Y-85298740D01*
X74060757Y-85073564D01*
X74061276Y-85066889D01*
X74062829Y-85003364D01*
X74062635Y-84996646D01*
X74044027Y-84770313D01*
X74042342Y-84760133D01*
X73987456Y-84541623D01*
X73984136Y-84531872D01*
X73894296Y-84325251D01*
X73889430Y-84316176D01*
X73812304Y-84196959D01*
X73801618Y-84187755D01*
X73792051Y-84192159D01*
X72997022Y-84987188D01*
X72989408Y-85001132D01*
X72266922Y-85001132D01*
X71460875Y-84195085D01*
X71449339Y-84188785D01*
X71437057Y-84198408D01*
X71377657Y-84285485D01*
X71372568Y-84294444D01*
X71277706Y-84498807D01*
X71274149Y-84508475D01*
X71213940Y-84725580D01*
X71212009Y-84735699D01*
X71188067Y-84959736D01*
X71187815Y-84970025D01*
X71200786Y-85194960D01*
X71202219Y-85205162D01*
X71251749Y-85424945D01*
X71254832Y-85434785D01*
X71307880Y-85565426D01*
X71314976Y-85636067D01*
X71282754Y-85699331D01*
X71249322Y-85724590D01*
X71233504Y-85732825D01*
X71229371Y-85735928D01*
X71229368Y-85735930D01*
X71203815Y-85755116D01*
X71045000Y-85874358D01*
X71041431Y-85878093D01*
X71041424Y-85878099D01*
X71017701Y-85902923D01*
X70956176Y-85938353D01*
X70885264Y-85934895D01*
X70839120Y-85904434D01*
X70838256Y-85905361D01*
X70834472Y-85901832D01*
X70830995Y-85898011D01*
X70826944Y-85894812D01*
X70826940Y-85894808D01*
X70650059Y-85755116D01*
X70646006Y-85751915D01*
X70641491Y-85749422D01*
X70641478Y-85749414D01*
X70599380Y-85726175D01*
X70549410Y-85675743D01*
X70534638Y-85606300D01*
X70547316Y-85560041D01*
X70547678Y-85559309D01*
X70562403Y-85529515D01*
X70630928Y-85303972D01*
X70631617Y-85298740D01*
X70661259Y-85073587D01*
X70661259Y-85073583D01*
X70661696Y-85070266D01*
X70661779Y-85066889D01*
X70663331Y-85003365D01*
X70663331Y-85003361D01*
X70663413Y-85000000D01*
X70652666Y-84869283D01*
X70644522Y-84770221D01*
X70644521Y-84770215D01*
X70644098Y-84765070D01*
X70586673Y-84536449D01*
X70492678Y-84320277D01*
X70364640Y-84122359D01*
X70310948Y-84063352D01*
X70266307Y-84014293D01*
X70235255Y-83950447D01*
X70233500Y-83929493D01*
X70233500Y-83822856D01*
X71812652Y-83822856D01*
X71819398Y-83835188D01*
X72612188Y-84627978D01*
X72626132Y-84635592D01*
X72627965Y-84635461D01*
X72634580Y-84631210D01*
X73431790Y-83834000D01*
X73438811Y-83821143D01*
X73431038Y-83810475D01*
X73424786Y-83805538D01*
X73416205Y-83799836D01*
X73218955Y-83690948D01*
X73209560Y-83686727D01*
X72997180Y-83611519D01*
X72987217Y-83608887D01*
X72765407Y-83569376D01*
X72755156Y-83568407D01*
X72529866Y-83565655D01*
X72519582Y-83566375D01*
X72296879Y-83600453D01*
X72286852Y-83602842D01*
X72072705Y-83672836D01*
X72063196Y-83676833D01*
X71863360Y-83780861D01*
X71854635Y-83786355D01*
X71821106Y-83811530D01*
X71812652Y-83822856D01*
X70233500Y-83822856D01*
X70233500Y-83547859D01*
X75588026Y-83547859D01*
X75594930Y-83560720D01*
X77162188Y-85127978D01*
X77176132Y-85135592D01*
X77177965Y-85135461D01*
X77184580Y-85131210D01*
X78755394Y-83560396D01*
X78762007Y-83548285D01*
X78761683Y-83547859D01*
X89779692Y-83547859D01*
X89786596Y-83560720D01*
X91353854Y-85127978D01*
X91367798Y-85135592D01*
X91369631Y-85135461D01*
X91376246Y-85131210D01*
X92947060Y-83560396D01*
X92953673Y-83548285D01*
X92944846Y-83536667D01*
X92720680Y-83373801D01*
X92714000Y-83369561D01*
X92443507Y-83220857D01*
X92436372Y-83217500D01*
X92149373Y-83103868D01*
X92141848Y-83101423D01*
X91842889Y-83024664D01*
X91835118Y-83023181D01*
X91528891Y-82984497D01*
X91521000Y-82984000D01*
X91212332Y-82984000D01*
X91204441Y-82984497D01*
X90898214Y-83023181D01*
X90890443Y-83024664D01*
X90591484Y-83101423D01*
X90583959Y-83103868D01*
X90296960Y-83217500D01*
X90289825Y-83220857D01*
X90019332Y-83369561D01*
X90012652Y-83373801D01*
X89788115Y-83536936D01*
X89779692Y-83547859D01*
X78761683Y-83547859D01*
X78753180Y-83536667D01*
X78529014Y-83373801D01*
X78522334Y-83369561D01*
X78251841Y-83220857D01*
X78244706Y-83217500D01*
X77957707Y-83103868D01*
X77950182Y-83101423D01*
X77651223Y-83024664D01*
X77643452Y-83023181D01*
X77337225Y-82984497D01*
X77329334Y-82984000D01*
X77020666Y-82984000D01*
X77012775Y-82984497D01*
X76706548Y-83023181D01*
X76698777Y-83024664D01*
X76399818Y-83101423D01*
X76392293Y-83103868D01*
X76105294Y-83217500D01*
X76098159Y-83220857D01*
X75827666Y-83369561D01*
X75820986Y-83373801D01*
X75596449Y-83536936D01*
X75588026Y-83547859D01*
X70233500Y-83547859D01*
X70233500Y-68286843D01*
X70234237Y-68273236D01*
X70237659Y-68241738D01*
X70237659Y-68241733D01*
X70238324Y-68235612D01*
X70233950Y-68185612D01*
X70233621Y-68180786D01*
X70233500Y-68178314D01*
X70233500Y-68175231D01*
X70232326Y-68163262D01*
X70229310Y-68132494D01*
X70229188Y-68131181D01*
X70221623Y-68044718D01*
X70221087Y-68038587D01*
X70219600Y-68033468D01*
X70219080Y-68028167D01*
X70192209Y-67939166D01*
X70191874Y-67938033D01*
X70167630Y-67854586D01*
X70167628Y-67854582D01*
X70165909Y-67848664D01*
X70163456Y-67843932D01*
X70161916Y-67838831D01*
X70118269Y-67756740D01*
X70117657Y-67755574D01*
X70077729Y-67678547D01*
X70074892Y-67673074D01*
X70071569Y-67668911D01*
X70069066Y-67664204D01*
X70010261Y-67592102D01*
X70009433Y-67591075D01*
X69980469Y-67554792D01*
X69980464Y-67554787D01*
X69978262Y-67552028D01*
X69975761Y-67549527D01*
X69975119Y-67548809D01*
X69971406Y-67544461D01*
X69963642Y-67534941D01*
X69944065Y-67510938D01*
X69939323Y-67507015D01*
X69939321Y-67507013D01*
X69908727Y-67481703D01*
X69899947Y-67473713D01*
X68295405Y-65869171D01*
X68261379Y-65806859D01*
X68258500Y-65780076D01*
X68258500Y-63986246D01*
X68278502Y-63918125D01*
X68332158Y-63871632D01*
X68402432Y-63861528D01*
X68467012Y-63891022D01*
X68501243Y-63938842D01*
X68511188Y-63963333D01*
X68559482Y-64082266D01*
X68566093Y-64098548D01*
X68689258Y-64299535D01*
X68843595Y-64477707D01*
X69024960Y-64628279D01*
X69029412Y-64630881D01*
X69029417Y-64630884D01*
X69165623Y-64710476D01*
X69228482Y-64747208D01*
X69448696Y-64831299D01*
X69453762Y-64832330D01*
X69453763Y-64832330D01*
X69556611Y-64853254D01*
X69679686Y-64878294D01*
X69812389Y-64883160D01*
X69910087Y-64886743D01*
X69910091Y-64886743D01*
X69915251Y-64886932D01*
X69920371Y-64886276D01*
X69920373Y-64886276D01*
X69993235Y-64876942D01*
X70149063Y-64856980D01*
X70154012Y-64855495D01*
X70154018Y-64855494D01*
X70337215Y-64800532D01*
X70374844Y-64789243D01*
X70586529Y-64685539D01*
X70590732Y-64682541D01*
X70590737Y-64682538D01*
X70774231Y-64551653D01*
X70774233Y-64551651D01*
X70778435Y-64548654D01*
X70833848Y-64493434D01*
X70896220Y-64459518D01*
X70967026Y-64464706D01*
X71003270Y-64485739D01*
X71174960Y-64628279D01*
X71179412Y-64630881D01*
X71179417Y-64630884D01*
X71315623Y-64710476D01*
X71378482Y-64747208D01*
X71598696Y-64831299D01*
X71603762Y-64832330D01*
X71603763Y-64832330D01*
X71706611Y-64853254D01*
X71829686Y-64878294D01*
X71962389Y-64883160D01*
X72060087Y-64886743D01*
X72060091Y-64886743D01*
X72065251Y-64886932D01*
X72070371Y-64886276D01*
X72070373Y-64886276D01*
X72143235Y-64876942D01*
X72299063Y-64856980D01*
X72304012Y-64855495D01*
X72304018Y-64855494D01*
X72487215Y-64800532D01*
X72524844Y-64789243D01*
X72736529Y-64685539D01*
X72740732Y-64682541D01*
X72740737Y-64682538D01*
X72924231Y-64551653D01*
X72924233Y-64551651D01*
X72928435Y-64548654D01*
X73095407Y-64382264D01*
X73232961Y-64190837D01*
X73240816Y-64174945D01*
X73335109Y-63984157D01*
X73335110Y-63984155D01*
X73337403Y-63979515D01*
X73345849Y-63951715D01*
X75587993Y-63951715D01*
X75596820Y-63963333D01*
X75820986Y-64126199D01*
X75827666Y-64130439D01*
X76098159Y-64279143D01*
X76105294Y-64282500D01*
X76392293Y-64396132D01*
X76399818Y-64398577D01*
X76698777Y-64475336D01*
X76706548Y-64476819D01*
X77012775Y-64515503D01*
X77020666Y-64516000D01*
X77329334Y-64516000D01*
X77337225Y-64515503D01*
X77643452Y-64476819D01*
X77651223Y-64475336D01*
X77950182Y-64398577D01*
X77957707Y-64396132D01*
X78244706Y-64282500D01*
X78251841Y-64279143D01*
X78522334Y-64130439D01*
X78529014Y-64126199D01*
X78753551Y-63963064D01*
X78761974Y-63952141D01*
X78761745Y-63951715D01*
X89779659Y-63951715D01*
X89788486Y-63963333D01*
X90012652Y-64126199D01*
X90019332Y-64130439D01*
X90289825Y-64279143D01*
X90296960Y-64282500D01*
X90583959Y-64396132D01*
X90591484Y-64398577D01*
X90890443Y-64475336D01*
X90898214Y-64476819D01*
X91204441Y-64515503D01*
X91212332Y-64516000D01*
X91521000Y-64516000D01*
X91528891Y-64515503D01*
X91835118Y-64476819D01*
X91842889Y-64475336D01*
X92141848Y-64398577D01*
X92149373Y-64396132D01*
X92436372Y-64282500D01*
X92443507Y-64279143D01*
X92714000Y-64130439D01*
X92720680Y-64126199D01*
X92945217Y-63963064D01*
X92953640Y-63952141D01*
X92946736Y-63939280D01*
X91379478Y-62372022D01*
X91365534Y-62364408D01*
X91363701Y-62364539D01*
X91357086Y-62368790D01*
X89786272Y-63939604D01*
X89779659Y-63951715D01*
X78761745Y-63951715D01*
X78755070Y-63939280D01*
X77187812Y-62372022D01*
X77173868Y-62364408D01*
X77172035Y-62364539D01*
X77165420Y-62368790D01*
X75594606Y-63939604D01*
X75587993Y-63951715D01*
X73345849Y-63951715D01*
X73405928Y-63753972D01*
X73406603Y-63748846D01*
X73436259Y-63523587D01*
X73436259Y-63523583D01*
X73436696Y-63520266D01*
X73437406Y-63491208D01*
X73438331Y-63453365D01*
X73438331Y-63453361D01*
X73438413Y-63450000D01*
X73425851Y-63297208D01*
X73419522Y-63220221D01*
X73419521Y-63220215D01*
X73419098Y-63215070D01*
X73361673Y-62986449D01*
X73318846Y-62887954D01*
X73310026Y-62817509D01*
X73340693Y-62753477D01*
X73361955Y-62736066D01*
X73361272Y-62735108D01*
X73428021Y-62687497D01*
X73436421Y-62676798D01*
X73429432Y-62663642D01*
X72354885Y-61589095D01*
X72320859Y-61526783D01*
X72322694Y-61501132D01*
X72989408Y-61501132D01*
X72989539Y-61502965D01*
X72993790Y-61509580D01*
X73789216Y-62305006D01*
X73801226Y-62311564D01*
X73812966Y-62302596D01*
X73854511Y-62244780D01*
X73859821Y-62235943D01*
X73959642Y-62033972D01*
X73963440Y-62024379D01*
X73969644Y-62003958D01*
X74654274Y-62003958D01*
X74673655Y-62311999D01*
X74674648Y-62319862D01*
X74732482Y-62623040D01*
X74734453Y-62630717D01*
X74829831Y-62924260D01*
X74832746Y-62931623D01*
X74964165Y-63210903D01*
X74967977Y-63217836D01*
X75133362Y-63478443D01*
X75138016Y-63484848D01*
X75213813Y-63576470D01*
X75226332Y-63584926D01*
X75237070Y-63578720D01*
X76802978Y-62012812D01*
X76809356Y-62001132D01*
X77539408Y-62001132D01*
X77539539Y-62002965D01*
X77543790Y-62009580D01*
X79111827Y-63577617D01*
X79125090Y-63584859D01*
X79135192Y-63577672D01*
X79211984Y-63484848D01*
X79216638Y-63478443D01*
X79382023Y-63217836D01*
X79385835Y-63210903D01*
X79517254Y-62931623D01*
X79520169Y-62924260D01*
X79615547Y-62630717D01*
X79617518Y-62623040D01*
X79675352Y-62319862D01*
X79676345Y-62311999D01*
X79695726Y-62003958D01*
X88845940Y-62003958D01*
X88865321Y-62311999D01*
X88866314Y-62319862D01*
X88924148Y-62623040D01*
X88926119Y-62630717D01*
X89021497Y-62924260D01*
X89024412Y-62931623D01*
X89155831Y-63210903D01*
X89159643Y-63217836D01*
X89325028Y-63478443D01*
X89329682Y-63484848D01*
X89405479Y-63576470D01*
X89417998Y-63584926D01*
X89428736Y-63578720D01*
X90994644Y-62012812D01*
X91001022Y-62001132D01*
X91731074Y-62001132D01*
X91731205Y-62002965D01*
X91735456Y-62009580D01*
X93303493Y-63577617D01*
X93316756Y-63584859D01*
X93326858Y-63577672D01*
X93403650Y-63484848D01*
X93408304Y-63478443D01*
X93573689Y-63217836D01*
X93577501Y-63210903D01*
X93708920Y-62931623D01*
X93711835Y-62924260D01*
X93807213Y-62630717D01*
X93809184Y-62623040D01*
X93867018Y-62319862D01*
X93868011Y-62311999D01*
X93887392Y-62003958D01*
X93887392Y-61996042D01*
X93868011Y-61688001D01*
X93867018Y-61680138D01*
X93809184Y-61376960D01*
X93807213Y-61369283D01*
X93711835Y-61075740D01*
X93708920Y-61068377D01*
X93577501Y-60789097D01*
X93573689Y-60782164D01*
X93408304Y-60521557D01*
X93403650Y-60515152D01*
X93327853Y-60423530D01*
X93315334Y-60415074D01*
X93304596Y-60421280D01*
X91738688Y-61987188D01*
X91731074Y-62001132D01*
X91001022Y-62001132D01*
X91002258Y-61998868D01*
X91002127Y-61997035D01*
X90997876Y-61990420D01*
X89429839Y-60422383D01*
X89416576Y-60415141D01*
X89406474Y-60422328D01*
X89329682Y-60515152D01*
X89325028Y-60521557D01*
X89159643Y-60782164D01*
X89155831Y-60789097D01*
X89024412Y-61068377D01*
X89021497Y-61075740D01*
X88926119Y-61369283D01*
X88924148Y-61376960D01*
X88866314Y-61680138D01*
X88865321Y-61688001D01*
X88845940Y-61996042D01*
X88845940Y-62003958D01*
X79695726Y-62003958D01*
X79695726Y-61996042D01*
X79676345Y-61688001D01*
X79675352Y-61680138D01*
X79617518Y-61376960D01*
X79615547Y-61369283D01*
X79520169Y-61075740D01*
X79517254Y-61068377D01*
X79385835Y-60789097D01*
X79382023Y-60782164D01*
X79216638Y-60521557D01*
X79211984Y-60515152D01*
X79136187Y-60423530D01*
X79123668Y-60415074D01*
X79112930Y-60421280D01*
X77547022Y-61987188D01*
X77539408Y-62001132D01*
X76809356Y-62001132D01*
X76810592Y-61998868D01*
X76810461Y-61997035D01*
X76806210Y-61990420D01*
X75238173Y-60422383D01*
X75224910Y-60415141D01*
X75214808Y-60422328D01*
X75138016Y-60515152D01*
X75133362Y-60521557D01*
X74967977Y-60782164D01*
X74964165Y-60789097D01*
X74832746Y-61068377D01*
X74829831Y-61075740D01*
X74734453Y-61369283D01*
X74732482Y-61376960D01*
X74674648Y-61680138D01*
X74673655Y-61688001D01*
X74654274Y-61996042D01*
X74654274Y-62003958D01*
X73969644Y-62003958D01*
X74028935Y-61808810D01*
X74031112Y-61798740D01*
X74060757Y-61573564D01*
X74061276Y-61566889D01*
X74062829Y-61503364D01*
X74062635Y-61496646D01*
X74044027Y-61270313D01*
X74042342Y-61260133D01*
X73987456Y-61041623D01*
X73984136Y-61031872D01*
X73894296Y-60825251D01*
X73889430Y-60816176D01*
X73812304Y-60696959D01*
X73801618Y-60687755D01*
X73792051Y-60692159D01*
X72997022Y-61487188D01*
X72989408Y-61501132D01*
X72322694Y-61501132D01*
X72325924Y-61455968D01*
X72354885Y-61410905D01*
X73431790Y-60334000D01*
X73438811Y-60321143D01*
X73431038Y-60310475D01*
X73424786Y-60305538D01*
X73416205Y-60299836D01*
X73218955Y-60190948D01*
X73209560Y-60186727D01*
X72997180Y-60111519D01*
X72987217Y-60108887D01*
X72765407Y-60069376D01*
X72755156Y-60068407D01*
X72529866Y-60065655D01*
X72519582Y-60066375D01*
X72386258Y-60086776D01*
X72315895Y-60077308D01*
X72281281Y-60047859D01*
X75588026Y-60047859D01*
X75594930Y-60060720D01*
X77162188Y-61627978D01*
X77176132Y-61635592D01*
X77177965Y-61635461D01*
X77184580Y-61631210D01*
X78755394Y-60060396D01*
X78762007Y-60048285D01*
X78761683Y-60047859D01*
X89779692Y-60047859D01*
X89786596Y-60060720D01*
X91353854Y-61627978D01*
X91367798Y-61635592D01*
X91369631Y-61635461D01*
X91376246Y-61631210D01*
X92947060Y-60060396D01*
X92953673Y-60048285D01*
X92944846Y-60036667D01*
X92720680Y-59873801D01*
X92714000Y-59869561D01*
X92443507Y-59720857D01*
X92436372Y-59717500D01*
X92149373Y-59603868D01*
X92141848Y-59601423D01*
X91842889Y-59524664D01*
X91835118Y-59523181D01*
X91528891Y-59484497D01*
X91521000Y-59484000D01*
X91212332Y-59484000D01*
X91204441Y-59484497D01*
X90898214Y-59523181D01*
X90890443Y-59524664D01*
X90591484Y-59601423D01*
X90583959Y-59603868D01*
X90296960Y-59717500D01*
X90289825Y-59720857D01*
X90019332Y-59869561D01*
X90012652Y-59873801D01*
X89788115Y-60036936D01*
X89779692Y-60047859D01*
X78761683Y-60047859D01*
X78753180Y-60036667D01*
X78529014Y-59873801D01*
X78522334Y-59869561D01*
X78251841Y-59720857D01*
X78244706Y-59717500D01*
X77957707Y-59603868D01*
X77950182Y-59601423D01*
X77651223Y-59524664D01*
X77643452Y-59523181D01*
X77337225Y-59484497D01*
X77329334Y-59484000D01*
X77020666Y-59484000D01*
X77012775Y-59484497D01*
X76706548Y-59523181D01*
X76698777Y-59524664D01*
X76399818Y-59601423D01*
X76392293Y-59603868D01*
X76105294Y-59717500D01*
X76098159Y-59720857D01*
X75827666Y-59869561D01*
X75820986Y-59873801D01*
X75596449Y-60036936D01*
X75588026Y-60047859D01*
X72281281Y-60047859D01*
X72261821Y-60031303D01*
X72241204Y-59963366D01*
X72260589Y-59895067D01*
X72278104Y-59873131D01*
X73855829Y-58295405D01*
X73918141Y-58261380D01*
X73944924Y-58258500D01*
X94781901Y-58258500D01*
X94850022Y-58278502D01*
X94896515Y-58332158D01*
X94907341Y-58372632D01*
X94907606Y-58375433D01*
X94908166Y-58387301D01*
X94908166Y-60429818D01*
X94888164Y-60497939D01*
X94873261Y-60516868D01*
X94798809Y-60594777D01*
X94665973Y-60789508D01*
X94663799Y-60794192D01*
X94663797Y-60794195D01*
X94603378Y-60924358D01*
X94566725Y-61003319D01*
X94503731Y-61230468D01*
X94503182Y-61235605D01*
X94479632Y-61455968D01*
X94478682Y-61464856D01*
X94478979Y-61470008D01*
X94478979Y-61470012D01*
X94491954Y-61695029D01*
X94491955Y-61695035D01*
X94492252Y-61700188D01*
X94544074Y-61930144D01*
X94546018Y-61934930D01*
X94546019Y-61934935D01*
X94600972Y-62070266D01*
X94632759Y-62148548D01*
X94755924Y-62349535D01*
X94910261Y-62527707D01*
X95091626Y-62678279D01*
X95096083Y-62680883D01*
X95096088Y-62680887D01*
X95171805Y-62725132D01*
X95220529Y-62776770D01*
X95233600Y-62846553D01*
X95222523Y-62886970D01*
X95205214Y-62924260D01*
X95191725Y-62953319D01*
X95128731Y-63180468D01*
X95128182Y-63185605D01*
X95104524Y-63406980D01*
X95103682Y-63414856D01*
X95103979Y-63420008D01*
X95103979Y-63420012D01*
X95116954Y-63645029D01*
X95116955Y-63645035D01*
X95117252Y-63650188D01*
X95169074Y-63880144D01*
X95171018Y-63884930D01*
X95171019Y-63884935D01*
X95255633Y-64093313D01*
X95257759Y-64098548D01*
X95380924Y-64299535D01*
X95535261Y-64477707D01*
X95716626Y-64628279D01*
X95721078Y-64630881D01*
X95721083Y-64630884D01*
X95857289Y-64710476D01*
X95920148Y-64747208D01*
X96140362Y-64831299D01*
X96145428Y-64832330D01*
X96145429Y-64832330D01*
X96248277Y-64853254D01*
X96371352Y-64878294D01*
X96504055Y-64883160D01*
X96601753Y-64886743D01*
X96601757Y-64886743D01*
X96606917Y-64886932D01*
X96612037Y-64886276D01*
X96612039Y-64886276D01*
X96684901Y-64876942D01*
X96840729Y-64856980D01*
X96845678Y-64855495D01*
X96845684Y-64855494D01*
X97028881Y-64800532D01*
X97066510Y-64789243D01*
X97278195Y-64685539D01*
X97282398Y-64682541D01*
X97282403Y-64682538D01*
X97465897Y-64551653D01*
X97465899Y-64551651D01*
X97470101Y-64548654D01*
X97525514Y-64493434D01*
X97587886Y-64459518D01*
X97658692Y-64464706D01*
X97694936Y-64485739D01*
X97866626Y-64628279D01*
X97871078Y-64630881D01*
X97871083Y-64630884D01*
X98007289Y-64710476D01*
X98070148Y-64747208D01*
X98290362Y-64831299D01*
X98295428Y-64832330D01*
X98295429Y-64832330D01*
X98398277Y-64853254D01*
X98521352Y-64878294D01*
X98654055Y-64883160D01*
X98751753Y-64886743D01*
X98751757Y-64886743D01*
X98756917Y-64886932D01*
X98762037Y-64886276D01*
X98762039Y-64886276D01*
X98834901Y-64876942D01*
X98990729Y-64856980D01*
X98995678Y-64855495D01*
X98995684Y-64855494D01*
X99178881Y-64800532D01*
X99216510Y-64789243D01*
X99428195Y-64685539D01*
X99432398Y-64682541D01*
X99432403Y-64682538D01*
X99615897Y-64551653D01*
X99615899Y-64551651D01*
X99620101Y-64548654D01*
X99787073Y-64382264D01*
X99924627Y-64190837D01*
X99932482Y-64174945D01*
X100026775Y-63984157D01*
X100026776Y-63984155D01*
X100029069Y-63979515D01*
X100037515Y-63951715D01*
X102279659Y-63951715D01*
X102288486Y-63963333D01*
X102512652Y-64126199D01*
X102519332Y-64130439D01*
X102789825Y-64279143D01*
X102796960Y-64282500D01*
X103083959Y-64396132D01*
X103091484Y-64398577D01*
X103390443Y-64475336D01*
X103398214Y-64476819D01*
X103704441Y-64515503D01*
X103712332Y-64516000D01*
X104021000Y-64516000D01*
X104028891Y-64515503D01*
X104335118Y-64476819D01*
X104342889Y-64475336D01*
X104641848Y-64398577D01*
X104649373Y-64396132D01*
X104936372Y-64282500D01*
X104943507Y-64279143D01*
X105214000Y-64130439D01*
X105220680Y-64126199D01*
X105445217Y-63963064D01*
X105453640Y-63952141D01*
X105446736Y-63939280D01*
X103879478Y-62372022D01*
X103865534Y-62364408D01*
X103863701Y-62364539D01*
X103857086Y-62368790D01*
X102286272Y-63939604D01*
X102279659Y-63951715D01*
X100037515Y-63951715D01*
X100097594Y-63753972D01*
X100098269Y-63748846D01*
X100127925Y-63523587D01*
X100127925Y-63523583D01*
X100128362Y-63520266D01*
X100129072Y-63491208D01*
X100129997Y-63453365D01*
X100129997Y-63453361D01*
X100130079Y-63450000D01*
X100117517Y-63297208D01*
X100111188Y-63220221D01*
X100111187Y-63220215D01*
X100110764Y-63215070D01*
X100053339Y-62986449D01*
X100010512Y-62887954D01*
X100001692Y-62817509D01*
X100032359Y-62753477D01*
X100053621Y-62736066D01*
X100052938Y-62735108D01*
X100119687Y-62687497D01*
X100128087Y-62676798D01*
X100121098Y-62663642D01*
X98958588Y-61501132D01*
X99681074Y-61501132D01*
X99681205Y-61502965D01*
X99685456Y-61509580D01*
X100480882Y-62305006D01*
X100492892Y-62311564D01*
X100504632Y-62302596D01*
X100546177Y-62244780D01*
X100551487Y-62235943D01*
X100651308Y-62033972D01*
X100655106Y-62024379D01*
X100661310Y-62003958D01*
X101345940Y-62003958D01*
X101365321Y-62311999D01*
X101366314Y-62319862D01*
X101424148Y-62623040D01*
X101426119Y-62630717D01*
X101521497Y-62924260D01*
X101524412Y-62931623D01*
X101655831Y-63210903D01*
X101659643Y-63217836D01*
X101825028Y-63478443D01*
X101829682Y-63484848D01*
X101905479Y-63576470D01*
X101917998Y-63584926D01*
X101928736Y-63578720D01*
X103494644Y-62012812D01*
X103501022Y-62001132D01*
X104231074Y-62001132D01*
X104231205Y-62002965D01*
X104235456Y-62009580D01*
X105803493Y-63577617D01*
X105816756Y-63584859D01*
X105826858Y-63577672D01*
X105903650Y-63484848D01*
X105908304Y-63478443D01*
X106073689Y-63217836D01*
X106077501Y-63210903D01*
X106208920Y-62931623D01*
X106211835Y-62924260D01*
X106307213Y-62630717D01*
X106309184Y-62623040D01*
X106367018Y-62319862D01*
X106368011Y-62311999D01*
X106387392Y-62003958D01*
X106387392Y-61996042D01*
X106368011Y-61688001D01*
X106367018Y-61680138D01*
X106309184Y-61376960D01*
X106307213Y-61369283D01*
X106211835Y-61075740D01*
X106208920Y-61068377D01*
X106077501Y-60789097D01*
X106073689Y-60782164D01*
X105908304Y-60521557D01*
X105903650Y-60515152D01*
X105827853Y-60423530D01*
X105815334Y-60415074D01*
X105804596Y-60421280D01*
X104238688Y-61987188D01*
X104231074Y-62001132D01*
X103501022Y-62001132D01*
X103502258Y-61998868D01*
X103502127Y-61997035D01*
X103497876Y-61990420D01*
X101929839Y-60422383D01*
X101916576Y-60415141D01*
X101906474Y-60422328D01*
X101829682Y-60515152D01*
X101825028Y-60521557D01*
X101659643Y-60782164D01*
X101655831Y-60789097D01*
X101524412Y-61068377D01*
X101521497Y-61075740D01*
X101426119Y-61369283D01*
X101424148Y-61376960D01*
X101366314Y-61680138D01*
X101365321Y-61688001D01*
X101345940Y-61996042D01*
X101345940Y-62003958D01*
X100661310Y-62003958D01*
X100720601Y-61808810D01*
X100722778Y-61798740D01*
X100752423Y-61573564D01*
X100752942Y-61566889D01*
X100754495Y-61503364D01*
X100754301Y-61496646D01*
X100735693Y-61270313D01*
X100734008Y-61260133D01*
X100679122Y-61041623D01*
X100675802Y-61031872D01*
X100585962Y-60825251D01*
X100581096Y-60816176D01*
X100503970Y-60696959D01*
X100493284Y-60687755D01*
X100483717Y-60692159D01*
X99688688Y-61487188D01*
X99681074Y-61501132D01*
X98958588Y-61501132D01*
X98152541Y-60695085D01*
X98141005Y-60688785D01*
X98128723Y-60698408D01*
X98069323Y-60785485D01*
X98064234Y-60794444D01*
X97969372Y-60998807D01*
X97965815Y-61008475D01*
X97905606Y-61225580D01*
X97903675Y-61235699D01*
X97879733Y-61459736D01*
X97879481Y-61470025D01*
X97892452Y-61694960D01*
X97893885Y-61705162D01*
X97943415Y-61924945D01*
X97946498Y-61934785D01*
X97999546Y-62065426D01*
X98006642Y-62136067D01*
X97974420Y-62199331D01*
X97940988Y-62224590D01*
X97925170Y-62232825D01*
X97921037Y-62235928D01*
X97921034Y-62235930D01*
X97883887Y-62263821D01*
X97736666Y-62374358D01*
X97733097Y-62378093D01*
X97733090Y-62378099D01*
X97709367Y-62402923D01*
X97647842Y-62438353D01*
X97576930Y-62434895D01*
X97530786Y-62404434D01*
X97529922Y-62405361D01*
X97526138Y-62401832D01*
X97522661Y-62398011D01*
X97518610Y-62394812D01*
X97518606Y-62394808D01*
X97364422Y-62273041D01*
X97337672Y-62251915D01*
X97333157Y-62249422D01*
X97333144Y-62249414D01*
X97291046Y-62226175D01*
X97241076Y-62175743D01*
X97226304Y-62106300D01*
X97238982Y-62060041D01*
X97239344Y-62059309D01*
X97254069Y-62029515D01*
X97322594Y-61803972D01*
X97323283Y-61798740D01*
X97352925Y-61573587D01*
X97352925Y-61573583D01*
X97353362Y-61570266D01*
X97354845Y-61509580D01*
X97354997Y-61503365D01*
X97354997Y-61503361D01*
X97355079Y-61500000D01*
X97344332Y-61369283D01*
X97336188Y-61270221D01*
X97336187Y-61270215D01*
X97335764Y-61265070D01*
X97278339Y-61036449D01*
X97184344Y-60820277D01*
X97056306Y-60622359D01*
X97044432Y-60609309D01*
X96957973Y-60514293D01*
X96926921Y-60450447D01*
X96925166Y-60429493D01*
X96925166Y-60322856D01*
X98504318Y-60322856D01*
X98511064Y-60335188D01*
X99303854Y-61127978D01*
X99317798Y-61135592D01*
X99319631Y-61135461D01*
X99326246Y-61131210D01*
X100123456Y-60334000D01*
X100130477Y-60321143D01*
X100122704Y-60310475D01*
X100116452Y-60305538D01*
X100107871Y-60299836D01*
X99910621Y-60190948D01*
X99901226Y-60186727D01*
X99688846Y-60111519D01*
X99678883Y-60108887D01*
X99457073Y-60069376D01*
X99446822Y-60068407D01*
X99221532Y-60065655D01*
X99211248Y-60066375D01*
X98988545Y-60100453D01*
X98978518Y-60102842D01*
X98764371Y-60172836D01*
X98754862Y-60176833D01*
X98555026Y-60280861D01*
X98546301Y-60286355D01*
X98512772Y-60311530D01*
X98504318Y-60322856D01*
X96925166Y-60322856D01*
X96925166Y-60047859D01*
X102279692Y-60047859D01*
X102286596Y-60060720D01*
X103853854Y-61627978D01*
X103867798Y-61635592D01*
X103869631Y-61635461D01*
X103876246Y-61631210D01*
X105447060Y-60060396D01*
X105453673Y-60048285D01*
X105444846Y-60036667D01*
X105220680Y-59873801D01*
X105214000Y-59869561D01*
X104943507Y-59720857D01*
X104936372Y-59717500D01*
X104649373Y-59603868D01*
X104641848Y-59601423D01*
X104342889Y-59524664D01*
X104335118Y-59523181D01*
X104028891Y-59484497D01*
X104021000Y-59484000D01*
X103712332Y-59484000D01*
X103704441Y-59484497D01*
X103398214Y-59523181D01*
X103390443Y-59524664D01*
X103091484Y-59601423D01*
X103083959Y-59603868D01*
X102796960Y-59717500D01*
X102789825Y-59720857D01*
X102519332Y-59869561D01*
X102512652Y-59873801D01*
X102288115Y-60036936D01*
X102279692Y-60047859D01*
X96925166Y-60047859D01*
X96925166Y-58803260D01*
X96945168Y-58735139D01*
X96962070Y-58714165D01*
X97380829Y-58295405D01*
X97443142Y-58261380D01*
X97469925Y-58258500D01*
X106530074Y-58258500D01*
X106598195Y-58278502D01*
X106619169Y-58295404D01*
X107454595Y-59130829D01*
X107488620Y-59193142D01*
X107491500Y-59219925D01*
X107491500Y-71896742D01*
X107471498Y-71964863D01*
X107454595Y-71985837D01*
X97060024Y-82380408D01*
X96966230Y-82494594D01*
X96872771Y-82668896D01*
X96814946Y-82858031D01*
X96814323Y-82864166D01*
X96805798Y-82948086D01*
X96779014Y-83013836D01*
X96769538Y-83024447D01*
X96246188Y-83547797D01*
X96183876Y-83581823D01*
X96134997Y-83582749D01*
X96057122Y-83568877D01*
X96057116Y-83568876D01*
X96052033Y-83567971D01*
X95960451Y-83566852D01*
X95821496Y-83565154D01*
X95821494Y-83565154D01*
X95816327Y-83565091D01*
X95583317Y-83600747D01*
X95359259Y-83673980D01*
X95150170Y-83782825D01*
X95146037Y-83785928D01*
X95146034Y-83785930D01*
X94965801Y-83921253D01*
X94961666Y-83924358D01*
X94939063Y-83948011D01*
X94828840Y-84063352D01*
X94798809Y-84094777D01*
X94665973Y-84289508D01*
X94663799Y-84294192D01*
X94663797Y-84294195D01*
X94621277Y-84385798D01*
X94566725Y-84503319D01*
X94503731Y-84730468D01*
X94503182Y-84735605D01*
X94479632Y-84955968D01*
X94478682Y-84964856D01*
X94478979Y-84970008D01*
X94478979Y-84970012D01*
X94491954Y-85195029D01*
X94491955Y-85195035D01*
X94492252Y-85200188D01*
X94544074Y-85430144D01*
X94546018Y-85434930D01*
X94546019Y-85434935D01*
X94615604Y-85606300D01*
X94632759Y-85648548D01*
X94755924Y-85849535D01*
X94910261Y-86027707D01*
X95091626Y-86178279D01*
X95096083Y-86180883D01*
X95096088Y-86180887D01*
X95171805Y-86225132D01*
X95220529Y-86276770D01*
X95233600Y-86346553D01*
X95222523Y-86386970D01*
X95205214Y-86424260D01*
X95191725Y-86453319D01*
X95128731Y-86680468D01*
X95103682Y-86914856D01*
X95103979Y-86920008D01*
X95103979Y-86920012D01*
X95116954Y-87145029D01*
X95116955Y-87145035D01*
X95117252Y-87150188D01*
X95169074Y-87380144D01*
X95171018Y-87384930D01*
X95171019Y-87384935D01*
X95211309Y-87484157D01*
X95257759Y-87598548D01*
X95380924Y-87799535D01*
X95535261Y-87977707D01*
X95716626Y-88128279D01*
X95721078Y-88130881D01*
X95721083Y-88130884D01*
X95915690Y-88244603D01*
X95920148Y-88247208D01*
X96140362Y-88331299D01*
X96145428Y-88332330D01*
X96145429Y-88332330D01*
X96248277Y-88353254D01*
X96371352Y-88378294D01*
X96504055Y-88383160D01*
X96601753Y-88386743D01*
X96601757Y-88386743D01*
X96606917Y-88386932D01*
X96612037Y-88386276D01*
X96612039Y-88386276D01*
X96684901Y-88376942D01*
X96840729Y-88356980D01*
X96845678Y-88355495D01*
X96845684Y-88355494D01*
X96977131Y-88316058D01*
X97066510Y-88289243D01*
X97278195Y-88185539D01*
X97282398Y-88182541D01*
X97282403Y-88182538D01*
X97465897Y-88051653D01*
X97465899Y-88051651D01*
X97470101Y-88048654D01*
X97525514Y-87993434D01*
X97587886Y-87959518D01*
X97658692Y-87964706D01*
X97694936Y-87985739D01*
X97866626Y-88128279D01*
X97871078Y-88130881D01*
X97871083Y-88130884D01*
X98065690Y-88244603D01*
X98070148Y-88247208D01*
X98290362Y-88331299D01*
X98295428Y-88332330D01*
X98295429Y-88332330D01*
X98398277Y-88353254D01*
X98521352Y-88378294D01*
X98654055Y-88383160D01*
X98751753Y-88386743D01*
X98751757Y-88386743D01*
X98756917Y-88386932D01*
X98762037Y-88386276D01*
X98762039Y-88386276D01*
X98834901Y-88376942D01*
X98990729Y-88356980D01*
X98995678Y-88355495D01*
X98995684Y-88355494D01*
X99127131Y-88316058D01*
X99216510Y-88289243D01*
X99428195Y-88185539D01*
X99432398Y-88182541D01*
X99432403Y-88182538D01*
X99615897Y-88051653D01*
X99615899Y-88051651D01*
X99620101Y-88048654D01*
X99787073Y-87882264D01*
X99924627Y-87690837D01*
X100029069Y-87479515D01*
X100037515Y-87451715D01*
X102279659Y-87451715D01*
X102288486Y-87463333D01*
X102512652Y-87626199D01*
X102519332Y-87630439D01*
X102789825Y-87779143D01*
X102796960Y-87782500D01*
X103083959Y-87896132D01*
X103091484Y-87898577D01*
X103390443Y-87975336D01*
X103398214Y-87976819D01*
X103704441Y-88015503D01*
X103712332Y-88016000D01*
X104021000Y-88016000D01*
X104028891Y-88015503D01*
X104335118Y-87976819D01*
X104342889Y-87975336D01*
X104641848Y-87898577D01*
X104649373Y-87896132D01*
X104936372Y-87782500D01*
X104943507Y-87779143D01*
X105214000Y-87630439D01*
X105220680Y-87626199D01*
X105445217Y-87463064D01*
X105453640Y-87452141D01*
X105453411Y-87451715D01*
X116471325Y-87451715D01*
X116480152Y-87463333D01*
X116704318Y-87626199D01*
X116710998Y-87630439D01*
X116981491Y-87779143D01*
X116988626Y-87782500D01*
X117275625Y-87896132D01*
X117283150Y-87898577D01*
X117582109Y-87975336D01*
X117589880Y-87976819D01*
X117896107Y-88015503D01*
X117903998Y-88016000D01*
X118212666Y-88016000D01*
X118220557Y-88015503D01*
X118526784Y-87976819D01*
X118534555Y-87975336D01*
X118833514Y-87898577D01*
X118841039Y-87896132D01*
X119128038Y-87782500D01*
X119135173Y-87779143D01*
X119405666Y-87630439D01*
X119412346Y-87626199D01*
X119636883Y-87463064D01*
X119645306Y-87452141D01*
X119638402Y-87439280D01*
X118071144Y-85872022D01*
X118057200Y-85864408D01*
X118055367Y-85864539D01*
X118048752Y-85868790D01*
X116477938Y-87439604D01*
X116471325Y-87451715D01*
X105453411Y-87451715D01*
X105446736Y-87439280D01*
X103879478Y-85872022D01*
X103865534Y-85864408D01*
X103863701Y-85864539D01*
X103857086Y-85868790D01*
X102286272Y-87439604D01*
X102279659Y-87451715D01*
X100037515Y-87451715D01*
X100097594Y-87253972D01*
X100098269Y-87248846D01*
X100127925Y-87023587D01*
X100127925Y-87023583D01*
X100128362Y-87020266D01*
X100128444Y-87016914D01*
X100129997Y-86953365D01*
X100129997Y-86953361D01*
X100130079Y-86950000D01*
X100123683Y-86872201D01*
X100111188Y-86720221D01*
X100111187Y-86720215D01*
X100110764Y-86715070D01*
X100053339Y-86486449D01*
X100010512Y-86387954D01*
X100001692Y-86317509D01*
X100032359Y-86253477D01*
X100053621Y-86236066D01*
X100052938Y-86235108D01*
X100119687Y-86187497D01*
X100128087Y-86176798D01*
X100121098Y-86163642D01*
X99046551Y-85089095D01*
X99012525Y-85026783D01*
X99014360Y-85001132D01*
X99681074Y-85001132D01*
X99681205Y-85002965D01*
X99685456Y-85009580D01*
X100480882Y-85805006D01*
X100492892Y-85811564D01*
X100504632Y-85802596D01*
X100546177Y-85744780D01*
X100551487Y-85735943D01*
X100651308Y-85533972D01*
X100655106Y-85524379D01*
X100661310Y-85503958D01*
X101345940Y-85503958D01*
X101365321Y-85811999D01*
X101366314Y-85819862D01*
X101424148Y-86123040D01*
X101426119Y-86130717D01*
X101521497Y-86424260D01*
X101524412Y-86431623D01*
X101655831Y-86710903D01*
X101659643Y-86717836D01*
X101825028Y-86978443D01*
X101829682Y-86984848D01*
X101905479Y-87076470D01*
X101917998Y-87084926D01*
X101928736Y-87078720D01*
X103494644Y-85512812D01*
X103501022Y-85501132D01*
X104231074Y-85501132D01*
X104231205Y-85502965D01*
X104235456Y-85509580D01*
X105803493Y-87077617D01*
X105816756Y-87084859D01*
X105826858Y-87077672D01*
X105903650Y-86984848D01*
X105908304Y-86978443D01*
X106073689Y-86717836D01*
X106077501Y-86710903D01*
X106208920Y-86431623D01*
X106211835Y-86424260D01*
X106307213Y-86130717D01*
X106309184Y-86123040D01*
X106367018Y-85819862D01*
X106368011Y-85811999D01*
X106387392Y-85503958D01*
X115537606Y-85503958D01*
X115556987Y-85811999D01*
X115557980Y-85819862D01*
X115615814Y-86123040D01*
X115617785Y-86130717D01*
X115713163Y-86424260D01*
X115716078Y-86431623D01*
X115847497Y-86710903D01*
X115851309Y-86717836D01*
X116016694Y-86978443D01*
X116021348Y-86984848D01*
X116097145Y-87076470D01*
X116109664Y-87084926D01*
X116120402Y-87078720D01*
X117686310Y-85512812D01*
X117693924Y-85498868D01*
X117693793Y-85497035D01*
X117689542Y-85490420D01*
X116121505Y-83922383D01*
X116108242Y-83915141D01*
X116098140Y-83922328D01*
X116021348Y-84015152D01*
X116016694Y-84021557D01*
X115851309Y-84282164D01*
X115847497Y-84289097D01*
X115716078Y-84568377D01*
X115713163Y-84575740D01*
X115617785Y-84869283D01*
X115615814Y-84876960D01*
X115557980Y-85180138D01*
X115556987Y-85188001D01*
X115537606Y-85496042D01*
X115537606Y-85503958D01*
X106387392Y-85503958D01*
X106387392Y-85496042D01*
X106368011Y-85188001D01*
X106367018Y-85180138D01*
X106309184Y-84876960D01*
X106307213Y-84869283D01*
X106211835Y-84575740D01*
X106208920Y-84568377D01*
X106077501Y-84289097D01*
X106073689Y-84282164D01*
X105908304Y-84021557D01*
X105903650Y-84015152D01*
X105827853Y-83923530D01*
X105815334Y-83915074D01*
X105804596Y-83921280D01*
X104238688Y-85487188D01*
X104231074Y-85501132D01*
X103501022Y-85501132D01*
X103502258Y-85498868D01*
X103502127Y-85497035D01*
X103497876Y-85490420D01*
X101929839Y-83922383D01*
X101916576Y-83915141D01*
X101906474Y-83922328D01*
X101829682Y-84015152D01*
X101825028Y-84021557D01*
X101659643Y-84282164D01*
X101655831Y-84289097D01*
X101524412Y-84568377D01*
X101521497Y-84575740D01*
X101426119Y-84869283D01*
X101424148Y-84876960D01*
X101366314Y-85180138D01*
X101365321Y-85188001D01*
X101345940Y-85496042D01*
X101345940Y-85503958D01*
X100661310Y-85503958D01*
X100720601Y-85308810D01*
X100722778Y-85298740D01*
X100752423Y-85073564D01*
X100752942Y-85066889D01*
X100754495Y-85003364D01*
X100754301Y-84996646D01*
X100735693Y-84770313D01*
X100734008Y-84760133D01*
X100679122Y-84541623D01*
X100675802Y-84531872D01*
X100585962Y-84325251D01*
X100581096Y-84316176D01*
X100503970Y-84196959D01*
X100493284Y-84187755D01*
X100483717Y-84192159D01*
X99688688Y-84987188D01*
X99681074Y-85001132D01*
X99014360Y-85001132D01*
X99017590Y-84955968D01*
X99046551Y-84910905D01*
X100123456Y-83834000D01*
X100130477Y-83821143D01*
X100122704Y-83810475D01*
X100116452Y-83805538D01*
X100107871Y-83799836D01*
X99910621Y-83690948D01*
X99901226Y-83686727D01*
X99688846Y-83611519D01*
X99678883Y-83608887D01*
X99457073Y-83569376D01*
X99446822Y-83568407D01*
X99221532Y-83565655D01*
X99211248Y-83566375D01*
X99018891Y-83595809D01*
X98948528Y-83586341D01*
X98903297Y-83547859D01*
X102279692Y-83547859D01*
X102286596Y-83560720D01*
X103853854Y-85127978D01*
X103867798Y-85135592D01*
X103869631Y-85135461D01*
X103876246Y-85131210D01*
X105447060Y-83560396D01*
X105453673Y-83548285D01*
X105444846Y-83536667D01*
X105220680Y-83373801D01*
X105214000Y-83369561D01*
X104943507Y-83220857D01*
X104936372Y-83217500D01*
X104649373Y-83103868D01*
X104641848Y-83101423D01*
X104342889Y-83024664D01*
X104335118Y-83023181D01*
X104028891Y-82984497D01*
X104021000Y-82984000D01*
X103712332Y-82984000D01*
X103704441Y-82984497D01*
X103398214Y-83023181D01*
X103390443Y-83024664D01*
X103091484Y-83101423D01*
X103083959Y-83103868D01*
X102796960Y-83217500D01*
X102789825Y-83220857D01*
X102519332Y-83369561D01*
X102512652Y-83373801D01*
X102288115Y-83536936D01*
X102279692Y-83547859D01*
X98903297Y-83547859D01*
X98894454Y-83540335D01*
X98873837Y-83472398D01*
X98893222Y-83404100D01*
X98910737Y-83382164D01*
X108880830Y-73412071D01*
X108943142Y-73378045D01*
X108969925Y-73375166D01*
X109505073Y-73375166D01*
X109573194Y-73395168D01*
X109594168Y-73412071D01*
X114724821Y-78542723D01*
X119147361Y-82965263D01*
X119181387Y-83027575D01*
X119176322Y-83098390D01*
X119133775Y-83155226D01*
X119067255Y-83180037D01*
X119011882Y-83171510D01*
X118841039Y-83103868D01*
X118833514Y-83101423D01*
X118534555Y-83024664D01*
X118526784Y-83023181D01*
X118220557Y-82984497D01*
X118212666Y-82984000D01*
X117903998Y-82984000D01*
X117896107Y-82984497D01*
X117589880Y-83023181D01*
X117582109Y-83024664D01*
X117283150Y-83101423D01*
X117275625Y-83103868D01*
X116988626Y-83217500D01*
X116981491Y-83220857D01*
X116710998Y-83369561D01*
X116704318Y-83373801D01*
X116479781Y-83536936D01*
X116471358Y-83547859D01*
X116478262Y-83560720D01*
X119995159Y-87077617D01*
X120008422Y-87084859D01*
X120018524Y-87077672D01*
X120095316Y-86984848D01*
X120099970Y-86978443D01*
X120265355Y-86717836D01*
X120269167Y-86710903D01*
X120400586Y-86431623D01*
X120403501Y-86424260D01*
X120498879Y-86130717D01*
X120500850Y-86123040D01*
X120558684Y-85819862D01*
X120559677Y-85811999D01*
X120579058Y-85503958D01*
X120579058Y-85496042D01*
X120559677Y-85188001D01*
X120558684Y-85180138D01*
X120500850Y-84876960D01*
X120498879Y-84869283D01*
X120403501Y-84575740D01*
X120400586Y-84568377D01*
X120396992Y-84560740D01*
X120386086Y-84490586D01*
X120414839Y-84425673D01*
X120474123Y-84386609D01*
X120545115Y-84385798D01*
X120600095Y-84417997D01*
X121137846Y-84955748D01*
X121171872Y-85018060D01*
X121174542Y-85037589D01*
X121176617Y-85073564D01*
X121183918Y-85200188D01*
X121185053Y-85205225D01*
X121185054Y-85205231D01*
X121234568Y-85424945D01*
X121235740Y-85430144D01*
X121237684Y-85434930D01*
X121237685Y-85434935D01*
X121307270Y-85606300D01*
X121324425Y-85648548D01*
X121447590Y-85849535D01*
X121601927Y-86027707D01*
X121783292Y-86178279D01*
X121787749Y-86180883D01*
X121787754Y-86180887D01*
X121863471Y-86225132D01*
X121912195Y-86276770D01*
X121925266Y-86346553D01*
X121914189Y-86386970D01*
X121896880Y-86424260D01*
X121883391Y-86453319D01*
X121820397Y-86680468D01*
X121795348Y-86914856D01*
X121795645Y-86920008D01*
X121795645Y-86920012D01*
X121808620Y-87145029D01*
X121808621Y-87145035D01*
X121808918Y-87150188D01*
X121860740Y-87380144D01*
X121862684Y-87384930D01*
X121862685Y-87384935D01*
X121902975Y-87484157D01*
X121949425Y-87598548D01*
X122072590Y-87799535D01*
X122226927Y-87977707D01*
X122408292Y-88128279D01*
X122412744Y-88130881D01*
X122412749Y-88130884D01*
X122607356Y-88244603D01*
X122611814Y-88247208D01*
X122832028Y-88331299D01*
X122837094Y-88332330D01*
X122837095Y-88332330D01*
X122939943Y-88353254D01*
X123063018Y-88378294D01*
X123195721Y-88383160D01*
X123293419Y-88386743D01*
X123293423Y-88386743D01*
X123298583Y-88386932D01*
X123303703Y-88386276D01*
X123303705Y-88386276D01*
X123376567Y-88376942D01*
X123532395Y-88356980D01*
X123537344Y-88355495D01*
X123537350Y-88355494D01*
X123668797Y-88316058D01*
X123758176Y-88289243D01*
X123969861Y-88185539D01*
X123974064Y-88182541D01*
X123974069Y-88182538D01*
X124157563Y-88051653D01*
X124157565Y-88051651D01*
X124161767Y-88048654D01*
X124217180Y-87993434D01*
X124279552Y-87959518D01*
X124350358Y-87964706D01*
X124386602Y-87985739D01*
X124558292Y-88128279D01*
X124562744Y-88130881D01*
X124562749Y-88130884D01*
X124757356Y-88244603D01*
X124761814Y-88247208D01*
X124982028Y-88331299D01*
X124987094Y-88332330D01*
X124987095Y-88332330D01*
X125089943Y-88353254D01*
X125213018Y-88378294D01*
X125345721Y-88383160D01*
X125443419Y-88386743D01*
X125443423Y-88386743D01*
X125448583Y-88386932D01*
X125453703Y-88386276D01*
X125453705Y-88386276D01*
X125526567Y-88376942D01*
X125682395Y-88356980D01*
X125687344Y-88355495D01*
X125687350Y-88355494D01*
X125818797Y-88316058D01*
X125908176Y-88289243D01*
X126119861Y-88185539D01*
X126124064Y-88182541D01*
X126124069Y-88182538D01*
X126307563Y-88051653D01*
X126307565Y-88051651D01*
X126311767Y-88048654D01*
X126478739Y-87882264D01*
X126616293Y-87690837D01*
X126720735Y-87479515D01*
X126729181Y-87451715D01*
X128971325Y-87451715D01*
X128980152Y-87463333D01*
X129204318Y-87626199D01*
X129210998Y-87630439D01*
X129481491Y-87779143D01*
X129488626Y-87782500D01*
X129775625Y-87896132D01*
X129783150Y-87898577D01*
X130082109Y-87975336D01*
X130089880Y-87976819D01*
X130396107Y-88015503D01*
X130403998Y-88016000D01*
X130712666Y-88016000D01*
X130720557Y-88015503D01*
X131026784Y-87976819D01*
X131034555Y-87975336D01*
X131333514Y-87898577D01*
X131341039Y-87896132D01*
X131628038Y-87782500D01*
X131635173Y-87779143D01*
X131905666Y-87630439D01*
X131912346Y-87626199D01*
X132136883Y-87463064D01*
X132145306Y-87452141D01*
X132138402Y-87439280D01*
X130571144Y-85872022D01*
X130557200Y-85864408D01*
X130555367Y-85864539D01*
X130548752Y-85868790D01*
X128977938Y-87439604D01*
X128971325Y-87451715D01*
X126729181Y-87451715D01*
X126789260Y-87253972D01*
X126789935Y-87248846D01*
X126819591Y-87023587D01*
X126819591Y-87023583D01*
X126820028Y-87020266D01*
X126820110Y-87016914D01*
X126821663Y-86953365D01*
X126821663Y-86953361D01*
X126821745Y-86950000D01*
X126815349Y-86872201D01*
X126802854Y-86720221D01*
X126802853Y-86720215D01*
X126802430Y-86715070D01*
X126745005Y-86486449D01*
X126702178Y-86387954D01*
X126693358Y-86317509D01*
X126724025Y-86253477D01*
X126745287Y-86236066D01*
X126744604Y-86235108D01*
X126811353Y-86187497D01*
X126819753Y-86176798D01*
X126812764Y-86163642D01*
X125650254Y-85001132D01*
X126372740Y-85001132D01*
X126372871Y-85002965D01*
X126377122Y-85009580D01*
X127172548Y-85805006D01*
X127184558Y-85811564D01*
X127196298Y-85802596D01*
X127237843Y-85744780D01*
X127243153Y-85735943D01*
X127342974Y-85533972D01*
X127346772Y-85524379D01*
X127352976Y-85503958D01*
X128037606Y-85503958D01*
X128056987Y-85811999D01*
X128057980Y-85819862D01*
X128115814Y-86123040D01*
X128117785Y-86130717D01*
X128213163Y-86424260D01*
X128216078Y-86431623D01*
X128347497Y-86710903D01*
X128351309Y-86717836D01*
X128516694Y-86978443D01*
X128521348Y-86984848D01*
X128597145Y-87076470D01*
X128609664Y-87084926D01*
X128620402Y-87078720D01*
X130186310Y-85512812D01*
X130192688Y-85501132D01*
X130922740Y-85501132D01*
X130922871Y-85502965D01*
X130927122Y-85509580D01*
X132495159Y-87077617D01*
X132508422Y-87084859D01*
X132518524Y-87077672D01*
X132595316Y-86984848D01*
X132599970Y-86978443D01*
X132765355Y-86717836D01*
X132769167Y-86710903D01*
X132900586Y-86431623D01*
X132903501Y-86424260D01*
X132998879Y-86130717D01*
X133000850Y-86123040D01*
X133058684Y-85819862D01*
X133059677Y-85811999D01*
X133079058Y-85503958D01*
X133079058Y-85496042D01*
X133059677Y-85188001D01*
X133058684Y-85180138D01*
X133000850Y-84876960D01*
X132998879Y-84869283D01*
X132903501Y-84575740D01*
X132900586Y-84568377D01*
X132769167Y-84289097D01*
X132765355Y-84282164D01*
X132599970Y-84021557D01*
X132595316Y-84015152D01*
X132519519Y-83923530D01*
X132507000Y-83915074D01*
X132496262Y-83921280D01*
X130930354Y-85487188D01*
X130922740Y-85501132D01*
X130192688Y-85501132D01*
X130193924Y-85498868D01*
X130193793Y-85497035D01*
X130189542Y-85490420D01*
X128621505Y-83922383D01*
X128608242Y-83915141D01*
X128598140Y-83922328D01*
X128521348Y-84015152D01*
X128516694Y-84021557D01*
X128351309Y-84282164D01*
X128347497Y-84289097D01*
X128216078Y-84568377D01*
X128213163Y-84575740D01*
X128117785Y-84869283D01*
X128115814Y-84876960D01*
X128057980Y-85180138D01*
X128056987Y-85188001D01*
X128037606Y-85496042D01*
X128037606Y-85503958D01*
X127352976Y-85503958D01*
X127412267Y-85308810D01*
X127414444Y-85298740D01*
X127444089Y-85073564D01*
X127444608Y-85066889D01*
X127446161Y-85003364D01*
X127445967Y-84996646D01*
X127427359Y-84770313D01*
X127425674Y-84760133D01*
X127370788Y-84541623D01*
X127367468Y-84531872D01*
X127277628Y-84325251D01*
X127272762Y-84316176D01*
X127195636Y-84196959D01*
X127184950Y-84187755D01*
X127175383Y-84192159D01*
X126380354Y-84987188D01*
X126372740Y-85001132D01*
X125650254Y-85001132D01*
X124844207Y-84195085D01*
X124832671Y-84188785D01*
X124820389Y-84198408D01*
X124760989Y-84285485D01*
X124755900Y-84294444D01*
X124661038Y-84498807D01*
X124657481Y-84508475D01*
X124597272Y-84725580D01*
X124595341Y-84735699D01*
X124571399Y-84959736D01*
X124571147Y-84970025D01*
X124584118Y-85194960D01*
X124585551Y-85205162D01*
X124635081Y-85424945D01*
X124638164Y-85434785D01*
X124691212Y-85565426D01*
X124698308Y-85636067D01*
X124666086Y-85699331D01*
X124632654Y-85724590D01*
X124616836Y-85732825D01*
X124612703Y-85735928D01*
X124612700Y-85735930D01*
X124587147Y-85755116D01*
X124428332Y-85874358D01*
X124424763Y-85878093D01*
X124424756Y-85878099D01*
X124401033Y-85902923D01*
X124339508Y-85938353D01*
X124268596Y-85934895D01*
X124222452Y-85904434D01*
X124221588Y-85905361D01*
X124217804Y-85901832D01*
X124214327Y-85898011D01*
X124210276Y-85894812D01*
X124210272Y-85894808D01*
X124033391Y-85755116D01*
X124029338Y-85751915D01*
X124024823Y-85749422D01*
X124024810Y-85749414D01*
X123982712Y-85726175D01*
X123932742Y-85675743D01*
X123917970Y-85606300D01*
X123930648Y-85560041D01*
X123931010Y-85559309D01*
X123945735Y-85529515D01*
X124014260Y-85303972D01*
X124014949Y-85298740D01*
X124044591Y-85073587D01*
X124044591Y-85073583D01*
X124045028Y-85070266D01*
X124045111Y-85066889D01*
X124046663Y-85003365D01*
X124046663Y-85003361D01*
X124046745Y-85000000D01*
X124035998Y-84869283D01*
X124027854Y-84770221D01*
X124027853Y-84770215D01*
X124027430Y-84765070D01*
X123970005Y-84536449D01*
X123876010Y-84320277D01*
X123747972Y-84122359D01*
X123722875Y-84094777D01*
X123592805Y-83951833D01*
X123592803Y-83951832D01*
X123589327Y-83948011D01*
X123585276Y-83944812D01*
X123585272Y-83944808D01*
X123430854Y-83822856D01*
X125195984Y-83822856D01*
X125202730Y-83835188D01*
X125995520Y-84627978D01*
X126009464Y-84635592D01*
X126011297Y-84635461D01*
X126017912Y-84631210D01*
X126815122Y-83834000D01*
X126822143Y-83821143D01*
X126814370Y-83810475D01*
X126808118Y-83805538D01*
X126799537Y-83799836D01*
X126602287Y-83690948D01*
X126592892Y-83686727D01*
X126380512Y-83611519D01*
X126370549Y-83608887D01*
X126148739Y-83569376D01*
X126138488Y-83568407D01*
X125913198Y-83565655D01*
X125902914Y-83566375D01*
X125680211Y-83600453D01*
X125670184Y-83602842D01*
X125456037Y-83672836D01*
X125446528Y-83676833D01*
X125246692Y-83780861D01*
X125237967Y-83786355D01*
X125204438Y-83811530D01*
X125195984Y-83822856D01*
X123430854Y-83822856D01*
X123408393Y-83805117D01*
X123408389Y-83805115D01*
X123404338Y-83801915D01*
X123197971Y-83687995D01*
X123193102Y-83686271D01*
X123193098Y-83686269D01*
X122980643Y-83611035D01*
X122980639Y-83611034D01*
X122975768Y-83609309D01*
X122970675Y-83608402D01*
X122970672Y-83608401D01*
X122748788Y-83568877D01*
X122748782Y-83568876D01*
X122743699Y-83567971D01*
X122652078Y-83566852D01*
X122590202Y-83547859D01*
X128971358Y-83547859D01*
X128978262Y-83560720D01*
X130545520Y-85127978D01*
X130559464Y-85135592D01*
X130561297Y-85135461D01*
X130567912Y-85131210D01*
X132138726Y-83560396D01*
X132145339Y-83548285D01*
X132136512Y-83536667D01*
X131912346Y-83373801D01*
X131905666Y-83369561D01*
X131635173Y-83220857D01*
X131628038Y-83217500D01*
X131341039Y-83103868D01*
X131333514Y-83101423D01*
X131034555Y-83024664D01*
X131026784Y-83023181D01*
X130720557Y-82984497D01*
X130712666Y-82984000D01*
X130403998Y-82984000D01*
X130396107Y-82984497D01*
X130089880Y-83023181D01*
X130082109Y-83024664D01*
X129783150Y-83101423D01*
X129775625Y-83103868D01*
X129488626Y-83217500D01*
X129481491Y-83220857D01*
X129210998Y-83369561D01*
X129204318Y-83373801D01*
X128979781Y-83536936D01*
X128971358Y-83547859D01*
X122590202Y-83547859D01*
X122584208Y-83546019D01*
X122564523Y-83529956D01*
X112369624Y-73335058D01*
X112335598Y-73272746D01*
X112340663Y-73201931D01*
X112380111Y-73147491D01*
X112411880Y-73122131D01*
X112411886Y-73122126D01*
X112414639Y-73119928D01*
X112417142Y-73117425D01*
X112417861Y-73116782D01*
X112422194Y-73113081D01*
X112455728Y-73085731D01*
X112484954Y-73050403D01*
X112492943Y-73041624D01*
X119162466Y-66372101D01*
X119224778Y-66338075D01*
X119295593Y-66343140D01*
X119352429Y-66385687D01*
X119377240Y-66452207D01*
X119362396Y-66521126D01*
X119318733Y-66601877D01*
X119318731Y-66601883D01*
X119315802Y-66607299D01*
X119257318Y-66796232D01*
X119256674Y-66802357D01*
X119256674Y-66802358D01*
X119239266Y-66967991D01*
X119236645Y-66992925D01*
X119254570Y-67189888D01*
X119310410Y-67379619D01*
X119402040Y-67554890D01*
X119525968Y-67709025D01*
X119530692Y-67712989D01*
X119537933Y-67719065D01*
X119677474Y-67836154D01*
X119682872Y-67839121D01*
X119682877Y-67839125D01*
X119780253Y-67892657D01*
X119850787Y-67931433D01*
X119856654Y-67933294D01*
X119856656Y-67933295D01*
X120033436Y-67989373D01*
X120039306Y-67991235D01*
X120193227Y-68008500D01*
X144188157Y-68008500D01*
X144201764Y-68009237D01*
X144233262Y-68012659D01*
X144233267Y-68012659D01*
X144239388Y-68013324D01*
X144265638Y-68011027D01*
X144289388Y-68008950D01*
X144294214Y-68008621D01*
X144296686Y-68008500D01*
X144299769Y-68008500D01*
X144311738Y-68007326D01*
X144342506Y-68004310D01*
X144343819Y-68004188D01*
X144388084Y-68000315D01*
X144436413Y-67996087D01*
X144441532Y-67994600D01*
X144446833Y-67994080D01*
X144535834Y-67967209D01*
X144536967Y-67966874D01*
X144620414Y-67942630D01*
X144620418Y-67942628D01*
X144626336Y-67940909D01*
X144631068Y-67938456D01*
X144636169Y-67936916D01*
X144652060Y-67928467D01*
X144718260Y-67893269D01*
X144719426Y-67892657D01*
X144796453Y-67852729D01*
X144801926Y-67849892D01*
X144806089Y-67846569D01*
X144810796Y-67844066D01*
X144882918Y-67785245D01*
X144883774Y-67784554D01*
X144922973Y-67753262D01*
X144925477Y-67750758D01*
X144926195Y-67750116D01*
X144930528Y-67746415D01*
X144964062Y-67719065D01*
X144993288Y-67683737D01*
X145001277Y-67674958D01*
X149203157Y-63473078D01*
X149265469Y-63439052D01*
X149296869Y-63436258D01*
X149298971Y-63436335D01*
X149310087Y-63436743D01*
X149310091Y-63436743D01*
X149315251Y-63436932D01*
X149320513Y-63436258D01*
X149325621Y-63435604D01*
X149437815Y-63421231D01*
X149507924Y-63432415D01*
X149560858Y-63479728D01*
X149579809Y-63548149D01*
X149579111Y-63559599D01*
X149563067Y-63709736D01*
X149562815Y-63720025D01*
X149575786Y-63944960D01*
X149577219Y-63955162D01*
X149626749Y-64174945D01*
X149629832Y-64184785D01*
X149714594Y-64393527D01*
X149719247Y-64402738D01*
X149811917Y-64553960D01*
X149822375Y-64563422D01*
X149831151Y-64559639D01*
X150910905Y-63479885D01*
X150973217Y-63445859D01*
X151044032Y-63450924D01*
X151089095Y-63479885D01*
X151270115Y-63660905D01*
X151304141Y-63723217D01*
X151299076Y-63794032D01*
X151270115Y-63839095D01*
X150191906Y-64917304D01*
X150185146Y-64929684D01*
X150190427Y-64936738D01*
X150374238Y-65044148D01*
X150383525Y-65048598D01*
X150594005Y-65128972D01*
X150603903Y-65131848D01*
X150824685Y-65176766D01*
X150834913Y-65177985D01*
X151060064Y-65186242D01*
X151070350Y-65185775D01*
X151293831Y-65157146D01*
X151303909Y-65155004D01*
X151519707Y-65090261D01*
X151529305Y-65086499D01*
X151731631Y-64987382D01*
X151741081Y-64981748D01*
X151809835Y-64964047D01*
X151877245Y-64986328D01*
X151921908Y-65041516D01*
X151929644Y-65112090D01*
X151894695Y-65179071D01*
X147369171Y-69704595D01*
X147306859Y-69738621D01*
X147280076Y-69741500D01*
X134061850Y-69741500D01*
X134048242Y-69740763D01*
X134047662Y-69740700D01*
X134010612Y-69736675D01*
X133960570Y-69741053D01*
X133955788Y-69741379D01*
X133953310Y-69741500D01*
X133950231Y-69741500D01*
X133947177Y-69741799D01*
X133947166Y-69741800D01*
X133907529Y-69745687D01*
X133906215Y-69745809D01*
X133870688Y-69748917D01*
X133813587Y-69753913D01*
X133808468Y-69755400D01*
X133803167Y-69755920D01*
X133714166Y-69782791D01*
X133713033Y-69783126D01*
X133629586Y-69807370D01*
X133629582Y-69807372D01*
X133623664Y-69809091D01*
X133618932Y-69811544D01*
X133613831Y-69813084D01*
X133608388Y-69815978D01*
X133531740Y-69856731D01*
X133530574Y-69857343D01*
X133453547Y-69897271D01*
X133448074Y-69900108D01*
X133443911Y-69903431D01*
X133439204Y-69905934D01*
X133434429Y-69909828D01*
X133434428Y-69909829D01*
X133367102Y-69964739D01*
X133366075Y-69965567D01*
X133329792Y-69994531D01*
X133329787Y-69994536D01*
X133327028Y-69996738D01*
X133324527Y-69999239D01*
X133323809Y-69999881D01*
X133319461Y-70003594D01*
X133285938Y-70030935D01*
X133282015Y-70035677D01*
X133282013Y-70035679D01*
X133256703Y-70066273D01*
X133248713Y-70075053D01*
X128119171Y-75204595D01*
X128056859Y-75238621D01*
X128030076Y-75241500D01*
X120950231Y-75241500D01*
X120947175Y-75241800D01*
X120947168Y-75241800D01*
X120888660Y-75247537D01*
X120803167Y-75255920D01*
X120797266Y-75257702D01*
X120797264Y-75257702D01*
X120742372Y-75274275D01*
X120613831Y-75313084D01*
X120439204Y-75405934D01*
X120352938Y-75476291D01*
X120290713Y-75527040D01*
X120290710Y-75527043D01*
X120285938Y-75530935D01*
X120282011Y-75535682D01*
X120282009Y-75535684D01*
X120163799Y-75678575D01*
X120163797Y-75678579D01*
X120159870Y-75683325D01*
X120065802Y-75857299D01*
X120007318Y-76046232D01*
X119986645Y-76242925D01*
X120004570Y-76439888D01*
X120060410Y-76629619D01*
X120152040Y-76804890D01*
X120275968Y-76959025D01*
X120280692Y-76962989D01*
X120287933Y-76969065D01*
X120427474Y-77086154D01*
X120432872Y-77089121D01*
X120432877Y-77089125D01*
X120530253Y-77142657D01*
X120600787Y-77181433D01*
X120606654Y-77183294D01*
X120606656Y-77183295D01*
X120783436Y-77239373D01*
X120789306Y-77241235D01*
X120943227Y-77258500D01*
X128438157Y-77258500D01*
X128451764Y-77259237D01*
X128483262Y-77262659D01*
X128483267Y-77262659D01*
X128489388Y-77263324D01*
X128515638Y-77261027D01*
X128539388Y-77258950D01*
X128544214Y-77258621D01*
X128546686Y-77258500D01*
X128549769Y-77258500D01*
X128561738Y-77257326D01*
X128592506Y-77254310D01*
X128593819Y-77254188D01*
X128638084Y-77250315D01*
X128686413Y-77246087D01*
X128691532Y-77244600D01*
X128696833Y-77244080D01*
X128785834Y-77217209D01*
X128786967Y-77216874D01*
X128870414Y-77192630D01*
X128870418Y-77192628D01*
X128876336Y-77190909D01*
X128881068Y-77188456D01*
X128886169Y-77186916D01*
X128902060Y-77178467D01*
X128968260Y-77143269D01*
X128969426Y-77142657D01*
X129046453Y-77102729D01*
X129051926Y-77099892D01*
X129056089Y-77096569D01*
X129060796Y-77094066D01*
X129132918Y-77035245D01*
X129133774Y-77034554D01*
X129172973Y-77003262D01*
X129175477Y-77000758D01*
X129176195Y-77000116D01*
X129180528Y-76996415D01*
X129214062Y-76969065D01*
X129222256Y-76959161D01*
X129243287Y-76933738D01*
X129251277Y-76924958D01*
X134380829Y-71795405D01*
X134443141Y-71761379D01*
X134469924Y-71758500D01*
X147688157Y-71758500D01*
X147701764Y-71759237D01*
X147733262Y-71762659D01*
X147733267Y-71762659D01*
X147739388Y-71763324D01*
X147765638Y-71761027D01*
X147789388Y-71758950D01*
X147794214Y-71758621D01*
X147796686Y-71758500D01*
X147799769Y-71758500D01*
X147811738Y-71757326D01*
X147842506Y-71754310D01*
X147843819Y-71754188D01*
X147888084Y-71750315D01*
X147936413Y-71746087D01*
X147941532Y-71744600D01*
X147946833Y-71744080D01*
X148035834Y-71717209D01*
X148036967Y-71716874D01*
X148120414Y-71692630D01*
X148120418Y-71692628D01*
X148126336Y-71690909D01*
X148131068Y-71688456D01*
X148136169Y-71686916D01*
X148141612Y-71684022D01*
X148218260Y-71643269D01*
X148219426Y-71642657D01*
X148296453Y-71602729D01*
X148301926Y-71599892D01*
X148306089Y-71596569D01*
X148310796Y-71594066D01*
X148382918Y-71535245D01*
X148383774Y-71534554D01*
X148422973Y-71503262D01*
X148425477Y-71500758D01*
X148426195Y-71500116D01*
X148430528Y-71496415D01*
X148464062Y-71469065D01*
X148493288Y-71433737D01*
X148501277Y-71424958D01*
X154669379Y-65256855D01*
X154679522Y-65247753D01*
X154704218Y-65227897D01*
X154709025Y-65224032D01*
X154741292Y-65185578D01*
X154744472Y-65181931D01*
X154746115Y-65180119D01*
X154748309Y-65177925D01*
X154775642Y-65144651D01*
X154776348Y-65143800D01*
X154788791Y-65128972D01*
X154836154Y-65072526D01*
X154838722Y-65067856D01*
X154842103Y-65063739D01*
X154886015Y-64981842D01*
X154886624Y-64980720D01*
X154928466Y-64904611D01*
X154928468Y-64904606D01*
X154931433Y-64899213D01*
X154933044Y-64894135D01*
X154935563Y-64889437D01*
X154962753Y-64800502D01*
X154963136Y-64799272D01*
X154965847Y-64790728D01*
X154991235Y-64710694D01*
X154991828Y-64705403D01*
X154993388Y-64700302D01*
X155002795Y-64607689D01*
X155002915Y-64606569D01*
X155008500Y-64556773D01*
X155008500Y-64553244D01*
X155008555Y-64552261D01*
X155009004Y-64546556D01*
X155009469Y-64541987D01*
X155012159Y-64515503D01*
X155012752Y-64509664D01*
X155012752Y-64509661D01*
X155013374Y-64503537D01*
X155009059Y-64457888D01*
X155008500Y-64446031D01*
X155008500Y-63951715D01*
X155662993Y-63951715D01*
X155671820Y-63963333D01*
X155895986Y-64126199D01*
X155902666Y-64130439D01*
X156173159Y-64279143D01*
X156180294Y-64282500D01*
X156467293Y-64396132D01*
X156474818Y-64398577D01*
X156773777Y-64475336D01*
X156781548Y-64476819D01*
X157087775Y-64515503D01*
X157095666Y-64516000D01*
X157404334Y-64516000D01*
X157412225Y-64515503D01*
X157718452Y-64476819D01*
X157726223Y-64475336D01*
X158025182Y-64398577D01*
X158032707Y-64396132D01*
X158319706Y-64282500D01*
X158326841Y-64279143D01*
X158597334Y-64130439D01*
X158604014Y-64126199D01*
X158828551Y-63963064D01*
X158836974Y-63952141D01*
X158830070Y-63939280D01*
X157262812Y-62372022D01*
X157248868Y-62364408D01*
X157247035Y-62364539D01*
X157240420Y-62368790D01*
X155669606Y-63939604D01*
X155662993Y-63951715D01*
X155008500Y-63951715D01*
X155008500Y-63587608D01*
X155028502Y-63519487D01*
X155082158Y-63472994D01*
X155152432Y-63462890D01*
X155217012Y-63492384D01*
X155231585Y-63507293D01*
X155288814Y-63576470D01*
X155301332Y-63584926D01*
X155312070Y-63578720D01*
X156877978Y-62012812D01*
X156884356Y-62001132D01*
X157614408Y-62001132D01*
X157614539Y-62002965D01*
X157618790Y-62009580D01*
X159186827Y-63577617D01*
X159200090Y-63584859D01*
X159210192Y-63577672D01*
X159286984Y-63484848D01*
X159291638Y-63478443D01*
X159457023Y-63217836D01*
X159460835Y-63210903D01*
X159592254Y-62931623D01*
X159595169Y-62924260D01*
X159690547Y-62630717D01*
X159692518Y-62623040D01*
X159750352Y-62319862D01*
X159751345Y-62311999D01*
X159770726Y-62003958D01*
X159770726Y-61996042D01*
X159751345Y-61688001D01*
X159750352Y-61680138D01*
X159692518Y-61376960D01*
X159690547Y-61369283D01*
X159595169Y-61075740D01*
X159592254Y-61068377D01*
X159460835Y-60789097D01*
X159457023Y-60782164D01*
X159291638Y-60521557D01*
X159286984Y-60515152D01*
X159211187Y-60423530D01*
X159198668Y-60415074D01*
X159187930Y-60421280D01*
X157622022Y-61987188D01*
X157614408Y-62001132D01*
X156884356Y-62001132D01*
X156885592Y-61998868D01*
X156885461Y-61997035D01*
X156881210Y-61990420D01*
X155313173Y-60422383D01*
X155299910Y-60415141D01*
X155289808Y-60422328D01*
X155213016Y-60515152D01*
X155208362Y-60521557D01*
X155042977Y-60782164D01*
X155039165Y-60789097D01*
X154907746Y-61068377D01*
X154904831Y-61075740D01*
X154809453Y-61369283D01*
X154807482Y-61376960D01*
X154749648Y-61680138D01*
X154748655Y-61688001D01*
X154729274Y-61996042D01*
X154729274Y-62003958D01*
X154745201Y-62257113D01*
X154729516Y-62326356D01*
X154678886Y-62376126D01*
X154609385Y-62390622D01*
X154543079Y-62365242D01*
X154530355Y-62354120D01*
X154222197Y-62045962D01*
X154188171Y-61983650D01*
X154185716Y-61967192D01*
X154169521Y-61770220D01*
X154169098Y-61765070D01*
X154111673Y-61536449D01*
X154017678Y-61320277D01*
X153889640Y-61122359D01*
X153864543Y-61094777D01*
X153734473Y-60951833D01*
X153734471Y-60951832D01*
X153730995Y-60948011D01*
X153726944Y-60944812D01*
X153726940Y-60944808D01*
X153550061Y-60805117D01*
X153550057Y-60805115D01*
X153546006Y-60801915D01*
X153339639Y-60687995D01*
X153334770Y-60686271D01*
X153334766Y-60686269D01*
X153122311Y-60611035D01*
X153122307Y-60611034D01*
X153117436Y-60609309D01*
X153112343Y-60608402D01*
X153112340Y-60608401D01*
X152890456Y-60568877D01*
X152890450Y-60568876D01*
X152885367Y-60567971D01*
X152794523Y-60566861D01*
X152654830Y-60565154D01*
X152654828Y-60565154D01*
X152649661Y-60565091D01*
X152416651Y-60600747D01*
X152192593Y-60673980D01*
X151983504Y-60782825D01*
X151979371Y-60785928D01*
X151979368Y-60785930D01*
X151799135Y-60921253D01*
X151795000Y-60924358D01*
X151772397Y-60948011D01*
X151657372Y-61068377D01*
X151632143Y-61094777D01*
X151499307Y-61289508D01*
X151497133Y-61294192D01*
X151497131Y-61294195D01*
X151403157Y-61496646D01*
X151400059Y-61503319D01*
X151337065Y-61730468D01*
X151336516Y-61735605D01*
X151315214Y-61934935D01*
X151312016Y-61964856D01*
X151312313Y-61970009D01*
X151312313Y-61970013D01*
X151325267Y-62194662D01*
X151309220Y-62263821D01*
X151258329Y-62313325D01*
X151188754Y-62327458D01*
X151177380Y-62325963D01*
X151140396Y-62319375D01*
X151130156Y-62318407D01*
X150904866Y-62315655D01*
X150894579Y-62316375D01*
X150815239Y-62328515D01*
X150744877Y-62319047D01*
X150690803Y-62273041D01*
X150670186Y-62205104D01*
X150671259Y-62187518D01*
X150672810Y-62175743D01*
X150686696Y-62070266D01*
X150687290Y-62045962D01*
X150688331Y-62003365D01*
X150688331Y-62003361D01*
X150688413Y-62000000D01*
X150672703Y-61808916D01*
X150669522Y-61770221D01*
X150669521Y-61770215D01*
X150669098Y-61765070D01*
X150611673Y-61536449D01*
X150517678Y-61320277D01*
X150389640Y-61122359D01*
X150364543Y-61094777D01*
X150234473Y-60951833D01*
X150234471Y-60951832D01*
X150230995Y-60948011D01*
X150226944Y-60944812D01*
X150226940Y-60944808D01*
X150050061Y-60805117D01*
X150050057Y-60805115D01*
X150046006Y-60801915D01*
X149839639Y-60687995D01*
X149834770Y-60686271D01*
X149834766Y-60686269D01*
X149622311Y-60611035D01*
X149622307Y-60611034D01*
X149617436Y-60609309D01*
X149612343Y-60608402D01*
X149612340Y-60608401D01*
X149390456Y-60568877D01*
X149390450Y-60568876D01*
X149385367Y-60567971D01*
X149294523Y-60566861D01*
X149154830Y-60565154D01*
X149154828Y-60565154D01*
X149149661Y-60565091D01*
X148916651Y-60600747D01*
X148692593Y-60673980D01*
X148483504Y-60782825D01*
X148479371Y-60785928D01*
X148479368Y-60785930D01*
X148299135Y-60921253D01*
X148295000Y-60924358D01*
X148272397Y-60948011D01*
X148157372Y-61068377D01*
X148132143Y-61094777D01*
X147999307Y-61289508D01*
X147997133Y-61294192D01*
X147997131Y-61294195D01*
X147903157Y-61496646D01*
X147900059Y-61503319D01*
X147837065Y-61730468D01*
X147836516Y-61735605D01*
X147815214Y-61934935D01*
X147812016Y-61964856D01*
X147811640Y-61964816D01*
X147790845Y-62029724D01*
X147775639Y-62048127D01*
X147469644Y-62354122D01*
X147407332Y-62388148D01*
X147336517Y-62383083D01*
X147279681Y-62340536D01*
X147254870Y-62274016D01*
X147254798Y-62257115D01*
X147270726Y-62003958D01*
X147270726Y-61996042D01*
X147251345Y-61688001D01*
X147250352Y-61680138D01*
X147192518Y-61376960D01*
X147190547Y-61369283D01*
X147095169Y-61075740D01*
X147092254Y-61068377D01*
X146960835Y-60789097D01*
X146957023Y-60782164D01*
X146791638Y-60521557D01*
X146786984Y-60515152D01*
X146711187Y-60423530D01*
X146698668Y-60415074D01*
X146687930Y-60421280D01*
X143169606Y-63939604D01*
X143162993Y-63951715D01*
X143171820Y-63963333D01*
X143395986Y-64126199D01*
X143402666Y-64130439D01*
X143673159Y-64279143D01*
X143680294Y-64282500D01*
X143967293Y-64396132D01*
X143974818Y-64398577D01*
X144273777Y-64475336D01*
X144281548Y-64476819D01*
X144587775Y-64515503D01*
X144595666Y-64516000D01*
X144904334Y-64516000D01*
X144912224Y-64515503D01*
X145000416Y-64504362D01*
X145070506Y-64515668D01*
X145123358Y-64563073D01*
X145142190Y-64631527D01*
X145121023Y-64699295D01*
X145105303Y-64718463D01*
X143869171Y-65954595D01*
X143806859Y-65988621D01*
X143780076Y-65991500D01*
X120200231Y-65991500D01*
X120197175Y-65991800D01*
X120197168Y-65991800D01*
X120138660Y-65997537D01*
X120053167Y-66005920D01*
X120047266Y-66007702D01*
X120047264Y-66007702D01*
X119973947Y-66029838D01*
X119863831Y-66063084D01*
X119858392Y-66065976D01*
X119770399Y-66112762D01*
X119700861Y-66127081D01*
X119634621Y-66101533D01*
X119592708Y-66044228D01*
X119588431Y-65973360D01*
X119622151Y-65912415D01*
X121666803Y-63867763D01*
X121729115Y-63833737D01*
X121799930Y-63838802D01*
X121856766Y-63881349D01*
X121872640Y-63909453D01*
X121947478Y-64093755D01*
X121947481Y-64093761D01*
X121949425Y-64098548D01*
X122072590Y-64299535D01*
X122226927Y-64477707D01*
X122408292Y-64628279D01*
X122412744Y-64630881D01*
X122412749Y-64630884D01*
X122548955Y-64710476D01*
X122611814Y-64747208D01*
X122832028Y-64831299D01*
X122837094Y-64832330D01*
X122837095Y-64832330D01*
X122939943Y-64853254D01*
X123063018Y-64878294D01*
X123195721Y-64883160D01*
X123293419Y-64886743D01*
X123293423Y-64886743D01*
X123298583Y-64886932D01*
X123303703Y-64886276D01*
X123303705Y-64886276D01*
X123376567Y-64876942D01*
X123532395Y-64856980D01*
X123537344Y-64855495D01*
X123537350Y-64855494D01*
X123720547Y-64800532D01*
X123758176Y-64789243D01*
X123969861Y-64685539D01*
X123974064Y-64682541D01*
X123974069Y-64682538D01*
X124157563Y-64551653D01*
X124157565Y-64551651D01*
X124161767Y-64548654D01*
X124217180Y-64493434D01*
X124279552Y-64459518D01*
X124350358Y-64464706D01*
X124386602Y-64485739D01*
X124558292Y-64628279D01*
X124562744Y-64630881D01*
X124562749Y-64630884D01*
X124698955Y-64710476D01*
X124761814Y-64747208D01*
X124982028Y-64831299D01*
X124987094Y-64832330D01*
X124987095Y-64832330D01*
X125089943Y-64853254D01*
X125213018Y-64878294D01*
X125345721Y-64883160D01*
X125443419Y-64886743D01*
X125443423Y-64886743D01*
X125448583Y-64886932D01*
X125453703Y-64886276D01*
X125453705Y-64886276D01*
X125526567Y-64876942D01*
X125682395Y-64856980D01*
X125687344Y-64855495D01*
X125687350Y-64855494D01*
X125870547Y-64800532D01*
X125908176Y-64789243D01*
X126119861Y-64685539D01*
X126124064Y-64682541D01*
X126124069Y-64682538D01*
X126307563Y-64551653D01*
X126307565Y-64551651D01*
X126311767Y-64548654D01*
X126478739Y-64382264D01*
X126616293Y-64190837D01*
X126624148Y-64174945D01*
X126718441Y-63984157D01*
X126718442Y-63984155D01*
X126720735Y-63979515D01*
X126729181Y-63951715D01*
X128971325Y-63951715D01*
X128980152Y-63963333D01*
X129204318Y-64126199D01*
X129210998Y-64130439D01*
X129481491Y-64279143D01*
X129488626Y-64282500D01*
X129775625Y-64396132D01*
X129783150Y-64398577D01*
X130082109Y-64475336D01*
X130089880Y-64476819D01*
X130396107Y-64515503D01*
X130403998Y-64516000D01*
X130712666Y-64516000D01*
X130720557Y-64515503D01*
X131026784Y-64476819D01*
X131034555Y-64475336D01*
X131333514Y-64398577D01*
X131341039Y-64396132D01*
X131628038Y-64282500D01*
X131635173Y-64279143D01*
X131905666Y-64130439D01*
X131912346Y-64126199D01*
X132136883Y-63963064D01*
X132145306Y-63952141D01*
X132138402Y-63939280D01*
X130571144Y-62372022D01*
X130557200Y-62364408D01*
X130555367Y-62364539D01*
X130548752Y-62368790D01*
X128977938Y-63939604D01*
X128971325Y-63951715D01*
X126729181Y-63951715D01*
X126789260Y-63753972D01*
X126789935Y-63748846D01*
X126819591Y-63523587D01*
X126819591Y-63523583D01*
X126820028Y-63520266D01*
X126820738Y-63491208D01*
X126821663Y-63453365D01*
X126821663Y-63453361D01*
X126821745Y-63450000D01*
X126809183Y-63297208D01*
X126802854Y-63220221D01*
X126802853Y-63220215D01*
X126802430Y-63215070D01*
X126745005Y-62986449D01*
X126702178Y-62887954D01*
X126693358Y-62817509D01*
X126724025Y-62753477D01*
X126745287Y-62736066D01*
X126744604Y-62735108D01*
X126811353Y-62687497D01*
X126819753Y-62676798D01*
X126812764Y-62663642D01*
X125650254Y-61501132D01*
X126372740Y-61501132D01*
X126372871Y-61502965D01*
X126377122Y-61509580D01*
X127172548Y-62305006D01*
X127184558Y-62311564D01*
X127196298Y-62302596D01*
X127237843Y-62244780D01*
X127243153Y-62235943D01*
X127342974Y-62033972D01*
X127346772Y-62024379D01*
X127352976Y-62003958D01*
X128037606Y-62003958D01*
X128056987Y-62311999D01*
X128057980Y-62319862D01*
X128115814Y-62623040D01*
X128117785Y-62630717D01*
X128213163Y-62924260D01*
X128216078Y-62931623D01*
X128347497Y-63210903D01*
X128351309Y-63217836D01*
X128516694Y-63478443D01*
X128521348Y-63484848D01*
X128597145Y-63576470D01*
X128609664Y-63584926D01*
X128620402Y-63578720D01*
X130186310Y-62012812D01*
X130192688Y-62001132D01*
X130922740Y-62001132D01*
X130922871Y-62002965D01*
X130927122Y-62009580D01*
X132495159Y-63577617D01*
X132508422Y-63584859D01*
X132518524Y-63577672D01*
X132595316Y-63484848D01*
X132599970Y-63478443D01*
X132765355Y-63217836D01*
X132769167Y-63210903D01*
X132900586Y-62931623D01*
X132903501Y-62924260D01*
X132998879Y-62630717D01*
X133000850Y-62623040D01*
X133058684Y-62319862D01*
X133059677Y-62311999D01*
X133079058Y-62003958D01*
X142229274Y-62003958D01*
X142248655Y-62311999D01*
X142249648Y-62319862D01*
X142307482Y-62623040D01*
X142309453Y-62630717D01*
X142404831Y-62924260D01*
X142407746Y-62931623D01*
X142539165Y-63210903D01*
X142542977Y-63217836D01*
X142708362Y-63478443D01*
X142713016Y-63484848D01*
X142788813Y-63576470D01*
X142801332Y-63584926D01*
X142812070Y-63578720D01*
X144377978Y-62012812D01*
X144385592Y-61998868D01*
X144385461Y-61997035D01*
X144381210Y-61990420D01*
X142813173Y-60422383D01*
X142799910Y-60415141D01*
X142789808Y-60422328D01*
X142713016Y-60515152D01*
X142708362Y-60521557D01*
X142542977Y-60782164D01*
X142539165Y-60789097D01*
X142407746Y-61068377D01*
X142404831Y-61075740D01*
X142309453Y-61369283D01*
X142307482Y-61376960D01*
X142249648Y-61680138D01*
X142248655Y-61688001D01*
X142229274Y-61996042D01*
X142229274Y-62003958D01*
X133079058Y-62003958D01*
X133079058Y-61996042D01*
X133059677Y-61688001D01*
X133058684Y-61680138D01*
X133000850Y-61376960D01*
X132998879Y-61369283D01*
X132903501Y-61075740D01*
X132900586Y-61068377D01*
X132769167Y-60789097D01*
X132765355Y-60782164D01*
X132599970Y-60521557D01*
X132595316Y-60515152D01*
X132519519Y-60423530D01*
X132507000Y-60415074D01*
X132496262Y-60421280D01*
X130930354Y-61987188D01*
X130922740Y-62001132D01*
X130192688Y-62001132D01*
X130193924Y-61998868D01*
X130193793Y-61997035D01*
X130189542Y-61990420D01*
X128621505Y-60422383D01*
X128608242Y-60415141D01*
X128598140Y-60422328D01*
X128521348Y-60515152D01*
X128516694Y-60521557D01*
X128351309Y-60782164D01*
X128347497Y-60789097D01*
X128216078Y-61068377D01*
X128213163Y-61075740D01*
X128117785Y-61369283D01*
X128115814Y-61376960D01*
X128057980Y-61680138D01*
X128056987Y-61688001D01*
X128037606Y-61996042D01*
X128037606Y-62003958D01*
X127352976Y-62003958D01*
X127412267Y-61808810D01*
X127414444Y-61798740D01*
X127444089Y-61573564D01*
X127444608Y-61566889D01*
X127446161Y-61503364D01*
X127445967Y-61496646D01*
X127427359Y-61270313D01*
X127425674Y-61260133D01*
X127370788Y-61041623D01*
X127367468Y-61031872D01*
X127277628Y-60825251D01*
X127272762Y-60816176D01*
X127195636Y-60696959D01*
X127184950Y-60687755D01*
X127175383Y-60692159D01*
X126380354Y-61487188D01*
X126372740Y-61501132D01*
X125650254Y-61501132D01*
X124844207Y-60695085D01*
X124832671Y-60688785D01*
X124820389Y-60698408D01*
X124760989Y-60785485D01*
X124755900Y-60794444D01*
X124661038Y-60998807D01*
X124657481Y-61008475D01*
X124597272Y-61225580D01*
X124595341Y-61235699D01*
X124571399Y-61459736D01*
X124571147Y-61470025D01*
X124584118Y-61694960D01*
X124585551Y-61705162D01*
X124635081Y-61924945D01*
X124638164Y-61934785D01*
X124691212Y-62065426D01*
X124698308Y-62136067D01*
X124666086Y-62199331D01*
X124632654Y-62224590D01*
X124616836Y-62232825D01*
X124612703Y-62235928D01*
X124612700Y-62235930D01*
X124575553Y-62263821D01*
X124428332Y-62374358D01*
X124424763Y-62378093D01*
X124424756Y-62378099D01*
X124401033Y-62402923D01*
X124339508Y-62438353D01*
X124268596Y-62434895D01*
X124222452Y-62404434D01*
X124221588Y-62405361D01*
X124217804Y-62401832D01*
X124214327Y-62398011D01*
X124210276Y-62394812D01*
X124210272Y-62394808D01*
X124056088Y-62273041D01*
X124029338Y-62251915D01*
X124024823Y-62249422D01*
X124024810Y-62249414D01*
X123982712Y-62226175D01*
X123932742Y-62175743D01*
X123917970Y-62106300D01*
X123930648Y-62060041D01*
X123931010Y-62059309D01*
X123945735Y-62029515D01*
X124014260Y-61803972D01*
X124014949Y-61798740D01*
X124044591Y-61573587D01*
X124044591Y-61573583D01*
X124045028Y-61570266D01*
X124046511Y-61509580D01*
X124046663Y-61503365D01*
X124046663Y-61503361D01*
X124046745Y-61500000D01*
X124035998Y-61369283D01*
X124027854Y-61270221D01*
X124027853Y-61270215D01*
X124027430Y-61265070D01*
X123970005Y-61036449D01*
X123876010Y-60820277D01*
X123747972Y-60622359D01*
X123736098Y-60609309D01*
X123592805Y-60451833D01*
X123592803Y-60451832D01*
X123589327Y-60448011D01*
X123585276Y-60444812D01*
X123585272Y-60444808D01*
X123430854Y-60322856D01*
X125195984Y-60322856D01*
X125202730Y-60335188D01*
X125995520Y-61127978D01*
X126009464Y-61135592D01*
X126011297Y-61135461D01*
X126017912Y-61131210D01*
X126815122Y-60334000D01*
X126822143Y-60321143D01*
X126814370Y-60310475D01*
X126808118Y-60305538D01*
X126799537Y-60299836D01*
X126602287Y-60190948D01*
X126592892Y-60186727D01*
X126380512Y-60111519D01*
X126370549Y-60108887D01*
X126148739Y-60069376D01*
X126138488Y-60068407D01*
X125913198Y-60065655D01*
X125902914Y-60066375D01*
X125680211Y-60100453D01*
X125670184Y-60102842D01*
X125456037Y-60172836D01*
X125446528Y-60176833D01*
X125246692Y-60280861D01*
X125237967Y-60286355D01*
X125204438Y-60311530D01*
X125195984Y-60322856D01*
X123430854Y-60322856D01*
X123408393Y-60305117D01*
X123408389Y-60305115D01*
X123404338Y-60301915D01*
X123197971Y-60187995D01*
X123193102Y-60186271D01*
X123193098Y-60186269D01*
X122980643Y-60111035D01*
X122980639Y-60111034D01*
X122975768Y-60109309D01*
X122970675Y-60108402D01*
X122970672Y-60108401D01*
X122748788Y-60068877D01*
X122748782Y-60068876D01*
X122743699Y-60067971D01*
X122652855Y-60066861D01*
X122513162Y-60065154D01*
X122513160Y-60065154D01*
X122507993Y-60065091D01*
X122274983Y-60100747D01*
X122050925Y-60173980D01*
X121841836Y-60282825D01*
X121837703Y-60285928D01*
X121837700Y-60285930D01*
X121657467Y-60421253D01*
X121653332Y-60424358D01*
X121630729Y-60448011D01*
X121516092Y-60567971D01*
X121490475Y-60594777D01*
X121357639Y-60789508D01*
X121355465Y-60794192D01*
X121355463Y-60794195D01*
X121295044Y-60924358D01*
X121258391Y-61003319D01*
X121195397Y-61230468D01*
X121194848Y-61235605D01*
X121171735Y-61451881D01*
X121170348Y-61464856D01*
X121169972Y-61464816D01*
X121149177Y-61529724D01*
X121133971Y-61548127D01*
X120782715Y-61899383D01*
X120720403Y-61933409D01*
X120649588Y-61928344D01*
X120592752Y-61885797D01*
X120567869Y-61818200D01*
X120559677Y-61688001D01*
X120558684Y-61680138D01*
X120500850Y-61376960D01*
X120498879Y-61369283D01*
X120403501Y-61075740D01*
X120400586Y-61068377D01*
X120269167Y-60789097D01*
X120265355Y-60782164D01*
X120099970Y-60521557D01*
X120095316Y-60515152D01*
X120019519Y-60423530D01*
X120007000Y-60415074D01*
X119996262Y-60421280D01*
X116477938Y-63939604D01*
X116471325Y-63951715D01*
X116480152Y-63963333D01*
X116704318Y-64126199D01*
X116710998Y-64130439D01*
X116981491Y-64279143D01*
X116988626Y-64282500D01*
X117275625Y-64396132D01*
X117283150Y-64398577D01*
X117582109Y-64475336D01*
X117589880Y-64476819D01*
X117881088Y-64513606D01*
X117946164Y-64541987D01*
X117985566Y-64601047D01*
X117986783Y-64672033D01*
X117954391Y-64727707D01*
X111360837Y-71321261D01*
X111298525Y-71355287D01*
X111271742Y-71358166D01*
X110032902Y-71358166D01*
X110020169Y-71357521D01*
X109984664Y-71353914D01*
X109984659Y-71353914D01*
X109978536Y-71353292D01*
X109936257Y-71357289D01*
X109932889Y-71357607D01*
X109921031Y-71358166D01*
X109634500Y-71358166D01*
X109566379Y-71338164D01*
X109519886Y-71284508D01*
X109508500Y-71232166D01*
X109508500Y-62003958D01*
X115537606Y-62003958D01*
X115556987Y-62311999D01*
X115557980Y-62319862D01*
X115615814Y-62623040D01*
X115617785Y-62630717D01*
X115713163Y-62924260D01*
X115716078Y-62931623D01*
X115847497Y-63210903D01*
X115851309Y-63217836D01*
X116016694Y-63478443D01*
X116021348Y-63484848D01*
X116097145Y-63576470D01*
X116109664Y-63584926D01*
X116120402Y-63578720D01*
X117686310Y-62012812D01*
X117693924Y-61998868D01*
X117693793Y-61997035D01*
X117689542Y-61990420D01*
X116121505Y-60422383D01*
X116108242Y-60415141D01*
X116098140Y-60422328D01*
X116021348Y-60515152D01*
X116016694Y-60521557D01*
X115851309Y-60782164D01*
X115847497Y-60789097D01*
X115716078Y-61068377D01*
X115713163Y-61075740D01*
X115617785Y-61369283D01*
X115615814Y-61376960D01*
X115557980Y-61680138D01*
X115556987Y-61688001D01*
X115537606Y-61996042D01*
X115537606Y-62003958D01*
X109508500Y-62003958D01*
X109508500Y-60047859D01*
X116471358Y-60047859D01*
X116478262Y-60060720D01*
X118045520Y-61627978D01*
X118059464Y-61635592D01*
X118061297Y-61635461D01*
X118067912Y-61631210D01*
X119638726Y-60060396D01*
X119645339Y-60048285D01*
X119645015Y-60047859D01*
X128971358Y-60047859D01*
X128978262Y-60060720D01*
X130545520Y-61627978D01*
X130559464Y-61635592D01*
X130561297Y-61635461D01*
X130567912Y-61631210D01*
X132138726Y-60060396D01*
X132145339Y-60048285D01*
X132145015Y-60047859D01*
X143163026Y-60047859D01*
X143169930Y-60060720D01*
X144737188Y-61627978D01*
X144751132Y-61635592D01*
X144752965Y-61635461D01*
X144759580Y-61631210D01*
X146330394Y-60060396D01*
X146337007Y-60048285D01*
X146336683Y-60047859D01*
X155663026Y-60047859D01*
X155669930Y-60060720D01*
X157237188Y-61627978D01*
X157251132Y-61635592D01*
X157252965Y-61635461D01*
X157259580Y-61631210D01*
X158830394Y-60060396D01*
X158837007Y-60048285D01*
X158828180Y-60036667D01*
X158604014Y-59873801D01*
X158597334Y-59869561D01*
X158326841Y-59720857D01*
X158319706Y-59717500D01*
X158032707Y-59603868D01*
X158025182Y-59601423D01*
X157726223Y-59524664D01*
X157718452Y-59523181D01*
X157412225Y-59484497D01*
X157404334Y-59484000D01*
X157095666Y-59484000D01*
X157087775Y-59484497D01*
X156781548Y-59523181D01*
X156773777Y-59524664D01*
X156474818Y-59601423D01*
X156467293Y-59603868D01*
X156180294Y-59717500D01*
X156173159Y-59720857D01*
X155902666Y-59869561D01*
X155895986Y-59873801D01*
X155671449Y-60036936D01*
X155663026Y-60047859D01*
X146336683Y-60047859D01*
X146328180Y-60036667D01*
X146104014Y-59873801D01*
X146097334Y-59869561D01*
X145826841Y-59720857D01*
X145819706Y-59717500D01*
X145532707Y-59603868D01*
X145525182Y-59601423D01*
X145226223Y-59524664D01*
X145218452Y-59523181D01*
X144912225Y-59484497D01*
X144904334Y-59484000D01*
X144595666Y-59484000D01*
X144587775Y-59484497D01*
X144281548Y-59523181D01*
X144273777Y-59524664D01*
X143974818Y-59601423D01*
X143967293Y-59603868D01*
X143680294Y-59717500D01*
X143673159Y-59720857D01*
X143402666Y-59869561D01*
X143395986Y-59873801D01*
X143171449Y-60036936D01*
X143163026Y-60047859D01*
X132145015Y-60047859D01*
X132136512Y-60036667D01*
X131912346Y-59873801D01*
X131905666Y-59869561D01*
X131635173Y-59720857D01*
X131628038Y-59717500D01*
X131341039Y-59603868D01*
X131333514Y-59601423D01*
X131034555Y-59524664D01*
X131026784Y-59523181D01*
X130720557Y-59484497D01*
X130712666Y-59484000D01*
X130403998Y-59484000D01*
X130396107Y-59484497D01*
X130089880Y-59523181D01*
X130082109Y-59524664D01*
X129783150Y-59601423D01*
X129775625Y-59603868D01*
X129488626Y-59717500D01*
X129481491Y-59720857D01*
X129210998Y-59869561D01*
X129204318Y-59873801D01*
X128979781Y-60036936D01*
X128971358Y-60047859D01*
X119645015Y-60047859D01*
X119636512Y-60036667D01*
X119412346Y-59873801D01*
X119405666Y-59869561D01*
X119135173Y-59720857D01*
X119128038Y-59717500D01*
X118841039Y-59603868D01*
X118833514Y-59601423D01*
X118534555Y-59524664D01*
X118526784Y-59523181D01*
X118220557Y-59484497D01*
X118212666Y-59484000D01*
X117903998Y-59484000D01*
X117896107Y-59484497D01*
X117589880Y-59523181D01*
X117582109Y-59524664D01*
X117283150Y-59601423D01*
X117275625Y-59603868D01*
X116988626Y-59717500D01*
X116981491Y-59720857D01*
X116710998Y-59869561D01*
X116704318Y-59873801D01*
X116479781Y-60036936D01*
X116471358Y-60047859D01*
X109508500Y-60047859D01*
X109508500Y-58811842D01*
X109509237Y-58798235D01*
X109512659Y-58766737D01*
X109512659Y-58766732D01*
X109513324Y-58760611D01*
X109508950Y-58710609D01*
X109508621Y-58705784D01*
X109508500Y-58703313D01*
X109508500Y-58700231D01*
X109504309Y-58657489D01*
X109504187Y-58656174D01*
X109496623Y-58569719D01*
X109496087Y-58563587D01*
X109494600Y-58558468D01*
X109494080Y-58553167D01*
X109467218Y-58464194D01*
X109466862Y-58462994D01*
X109444871Y-58387301D01*
X109440909Y-58373663D01*
X109438455Y-58368929D01*
X109436916Y-58363831D01*
X109393316Y-58281831D01*
X109392702Y-58280663D01*
X109352726Y-58203541D01*
X109352725Y-58203540D01*
X109349892Y-58198074D01*
X109346569Y-58193911D01*
X109344066Y-58189204D01*
X109285245Y-58117082D01*
X109284554Y-58116226D01*
X109253262Y-58077027D01*
X109250758Y-58074523D01*
X109250116Y-58073805D01*
X109246415Y-58069472D01*
X109219065Y-58035938D01*
X109183737Y-58006712D01*
X109174958Y-57998723D01*
X107756855Y-56580621D01*
X107747753Y-56570478D01*
X107727897Y-56545782D01*
X107724032Y-56540975D01*
X107685578Y-56508708D01*
X107681931Y-56505528D01*
X107680119Y-56503885D01*
X107677925Y-56501691D01*
X107644651Y-56474358D01*
X107643853Y-56473696D01*
X107572526Y-56413846D01*
X107567856Y-56411278D01*
X107563739Y-56407897D01*
X107481914Y-56364023D01*
X107480755Y-56363394D01*
X107404619Y-56321538D01*
X107404611Y-56321535D01*
X107399213Y-56318567D01*
X107394131Y-56316955D01*
X107389437Y-56314438D01*
X107300469Y-56287238D01*
X107299441Y-56286918D01*
X107210694Y-56258765D01*
X107205398Y-56258171D01*
X107200302Y-56256613D01*
X107107743Y-56247210D01*
X107106607Y-56247089D01*
X107072992Y-56243319D01*
X107060270Y-56241892D01*
X107060266Y-56241892D01*
X107056773Y-56241500D01*
X107053246Y-56241500D01*
X107052261Y-56241445D01*
X107046581Y-56240998D01*
X107017175Y-56238011D01*
X107009663Y-56237248D01*
X107009661Y-56237248D01*
X107003538Y-56236626D01*
X106961259Y-56240623D01*
X106957891Y-56240941D01*
X106946033Y-56241500D01*
X97061850Y-56241500D01*
X97048242Y-56240763D01*
X97047662Y-56240700D01*
X97010612Y-56236675D01*
X96960928Y-56241022D01*
X96949968Y-56241500D01*
X73536850Y-56241500D01*
X73523242Y-56240763D01*
X73522662Y-56240700D01*
X73485612Y-56236675D01*
X73435570Y-56241053D01*
X73430788Y-56241379D01*
X73428310Y-56241500D01*
X73425231Y-56241500D01*
X73422177Y-56241799D01*
X73422166Y-56241800D01*
X73382529Y-56245687D01*
X73381215Y-56245809D01*
X73345688Y-56248917D01*
X73288587Y-56253913D01*
X73283468Y-56255400D01*
X73278167Y-56255920D01*
X73189166Y-56282791D01*
X73188033Y-56283126D01*
X73104586Y-56307370D01*
X73104582Y-56307372D01*
X73098664Y-56309091D01*
X73093932Y-56311544D01*
X73088831Y-56313084D01*
X73083388Y-56315978D01*
X73006740Y-56356731D01*
X73005574Y-56357343D01*
X72928547Y-56397271D01*
X72923074Y-56400108D01*
X72918911Y-56403431D01*
X72914204Y-56405934D01*
X72909429Y-56409828D01*
X72909428Y-56409829D01*
X72842102Y-56464739D01*
X72841075Y-56465567D01*
X72804792Y-56494531D01*
X72804787Y-56494536D01*
X72802028Y-56496738D01*
X72799527Y-56499239D01*
X72798809Y-56499881D01*
X72794461Y-56503594D01*
X72760938Y-56530935D01*
X72757015Y-56535677D01*
X72757013Y-56535679D01*
X72731703Y-56566273D01*
X72723713Y-56575053D01*
X69269904Y-60028862D01*
X69207592Y-60062888D01*
X69179270Y-60065758D01*
X69129831Y-60065154D01*
X69129829Y-60065154D01*
X69124661Y-60065091D01*
X68891651Y-60100747D01*
X68667593Y-60173980D01*
X68458504Y-60282825D01*
X68454371Y-60285928D01*
X68454368Y-60285930D01*
X68274135Y-60421253D01*
X68270000Y-60424358D01*
X68247397Y-60448011D01*
X68132760Y-60567971D01*
X68107143Y-60594777D01*
X67974307Y-60789508D01*
X67972133Y-60794192D01*
X67972131Y-60794195D01*
X67911712Y-60924358D01*
X67875059Y-61003319D01*
X67812065Y-61230468D01*
X67811516Y-61235605D01*
X67788403Y-61451881D01*
X67787016Y-61464856D01*
X67786640Y-61464816D01*
X67765845Y-61529724D01*
X67750639Y-61548127D01*
X67399383Y-61899383D01*
X67337071Y-61933409D01*
X67266256Y-61928344D01*
X67209420Y-61885797D01*
X67184537Y-61818200D01*
X67176345Y-61688001D01*
X67175352Y-61680138D01*
X67117518Y-61376960D01*
X67115547Y-61369283D01*
X67020169Y-61075740D01*
X67017254Y-61068377D01*
X66885835Y-60789097D01*
X66882023Y-60782164D01*
X66716638Y-60521557D01*
X66711984Y-60515152D01*
X66636187Y-60423530D01*
X66623668Y-60415074D01*
X66612930Y-60421280D01*
X63094606Y-63939604D01*
X63087993Y-63951715D01*
X61508500Y-63951715D01*
X61508500Y-62003958D01*
X62154274Y-62003958D01*
X62173655Y-62311999D01*
X62174648Y-62319862D01*
X62232482Y-62623040D01*
X62234453Y-62630717D01*
X62329831Y-62924260D01*
X62332746Y-62931623D01*
X62464165Y-63210903D01*
X62467977Y-63217836D01*
X62633362Y-63478443D01*
X62638016Y-63484848D01*
X62713813Y-63576470D01*
X62726332Y-63584926D01*
X62737070Y-63578720D01*
X64302978Y-62012812D01*
X64310592Y-61998868D01*
X64310461Y-61997035D01*
X64306210Y-61990420D01*
X62738173Y-60422383D01*
X62724910Y-60415141D01*
X62714808Y-60422328D01*
X62638016Y-60515152D01*
X62633362Y-60521557D01*
X62467977Y-60782164D01*
X62464165Y-60789097D01*
X62332746Y-61068377D01*
X62329831Y-61075740D01*
X62234453Y-61369283D01*
X62232482Y-61376960D01*
X62174648Y-61680138D01*
X62173655Y-61688001D01*
X62154274Y-61996042D01*
X62154274Y-62003958D01*
X61508500Y-62003958D01*
X61508500Y-60047859D01*
X63088026Y-60047859D01*
X63094930Y-60060720D01*
X64662188Y-61627978D01*
X64676132Y-61635592D01*
X64677965Y-61635461D01*
X64684580Y-61631210D01*
X66255394Y-60060396D01*
X66262007Y-60048285D01*
X66253180Y-60036667D01*
X66029014Y-59873801D01*
X66022334Y-59869561D01*
X65751841Y-59720857D01*
X65744706Y-59717500D01*
X65457707Y-59603868D01*
X65450182Y-59601423D01*
X65151223Y-59524664D01*
X65143452Y-59523181D01*
X64837225Y-59484497D01*
X64829334Y-59484000D01*
X64520666Y-59484000D01*
X64512775Y-59484497D01*
X64206548Y-59523181D01*
X64198777Y-59524664D01*
X63899818Y-59601423D01*
X63892293Y-59603868D01*
X63605294Y-59717500D01*
X63598159Y-59720857D01*
X63327666Y-59869561D01*
X63320986Y-59873801D01*
X63096449Y-60036936D01*
X63088026Y-60047859D01*
X61508500Y-60047859D01*
X61508500Y-52634500D01*
X61528502Y-52566379D01*
X61582158Y-52519886D01*
X61634500Y-52508500D01*
X160365500Y-52508500D01*
X160433621Y-52528502D01*
G37*
%TD.AperFunction*%
%TD*%
M02*
