%TF.GenerationSoftware,KiCad,Pcbnew,(6.0.7-1)-1*%
%TF.CreationDate,2022-11-03T21:10:23+11:00*%
%TF.ProjectId,case-connector,63617365-2d63-46f6-9e6e-6563746f722e,rev?*%
%TF.SameCoordinates,Original*%
%TF.FileFunction,Legend,Top*%
%TF.FilePolarity,Positive*%
%FSLAX46Y46*%
G04 Gerber Fmt 4.6, Leading zero omitted, Abs format (unit mm)*
G04 Created by KiCad (PCBNEW (6.0.7-1)-1) date 2022-11-03 21:10:23*
%MOMM*%
%LPD*%
G01*
G04 APERTURE LIST*
%ADD10C,0.100000*%
%ADD11C,0.127000*%
%ADD12C,0.200000*%
G04 APERTURE END LIST*
D10*
X131650000Y-53566666D02*
X131650000Y-52866666D01*
X131650000Y-53200000D02*
X132050000Y-53200000D01*
X132050000Y-53566666D02*
X132050000Y-52866666D01*
X132683333Y-53566666D02*
X132683333Y-53200000D01*
X132650000Y-53133333D01*
X132583333Y-53100000D01*
X132450000Y-53100000D01*
X132383333Y-53133333D01*
X132683333Y-53533333D02*
X132616666Y-53566666D01*
X132450000Y-53566666D01*
X132383333Y-53533333D01*
X132350000Y-53466666D01*
X132350000Y-53400000D01*
X132383333Y-53333333D01*
X132450000Y-53300000D01*
X132616666Y-53300000D01*
X132683333Y-53266666D01*
X133016666Y-53566666D02*
X133016666Y-53100000D01*
X133016666Y-53233333D02*
X133050000Y-53166666D01*
X133083333Y-53133333D01*
X133150000Y-53100000D01*
X133216666Y-53100000D01*
X133383333Y-53100000D02*
X133550000Y-53566666D01*
X133716666Y-53100000D01*
X134250000Y-53533333D02*
X134183333Y-53566666D01*
X134050000Y-53566666D01*
X133983333Y-53533333D01*
X133950000Y-53466666D01*
X133950000Y-53200000D01*
X133983333Y-53133333D01*
X134050000Y-53100000D01*
X134183333Y-53100000D01*
X134250000Y-53133333D01*
X134283333Y-53200000D01*
X134283333Y-53266666D01*
X133950000Y-53333333D01*
X134516666Y-53100000D02*
X134683333Y-53566666D01*
X134850000Y-53100000D02*
X134683333Y-53566666D01*
X134616666Y-53733333D01*
X134583333Y-53766666D01*
X134516666Y-53800000D01*
X135883333Y-53200000D02*
X135983333Y-53233333D01*
X136016666Y-53266666D01*
X136050000Y-53333333D01*
X136050000Y-53433333D01*
X136016666Y-53500000D01*
X135983333Y-53533333D01*
X135916666Y-53566666D01*
X135650000Y-53566666D01*
X135650000Y-52866666D01*
X135883333Y-52866666D01*
X135950000Y-52900000D01*
X135983333Y-52933333D01*
X136016666Y-53000000D01*
X136016666Y-53066666D01*
X135983333Y-53133333D01*
X135950000Y-53166666D01*
X135883333Y-53200000D01*
X135650000Y-53200000D01*
X136650000Y-53566666D02*
X136650000Y-53200000D01*
X136616666Y-53133333D01*
X136550000Y-53100000D01*
X136416666Y-53100000D01*
X136350000Y-53133333D01*
X136650000Y-53533333D02*
X136583333Y-53566666D01*
X136416666Y-53566666D01*
X136350000Y-53533333D01*
X136316666Y-53466666D01*
X136316666Y-53400000D01*
X136350000Y-53333333D01*
X136416666Y-53300000D01*
X136583333Y-53300000D01*
X136650000Y-53266666D01*
X136883333Y-53100000D02*
X137150000Y-53100000D01*
X136983333Y-52866666D02*
X136983333Y-53466666D01*
X137016666Y-53533333D01*
X137083333Y-53566666D01*
X137150000Y-53566666D01*
X137650000Y-53533333D02*
X137583333Y-53566666D01*
X137450000Y-53566666D01*
X137383333Y-53533333D01*
X137350000Y-53466666D01*
X137350000Y-53200000D01*
X137383333Y-53133333D01*
X137450000Y-53100000D01*
X137583333Y-53100000D01*
X137650000Y-53133333D01*
X137683333Y-53200000D01*
X137683333Y-53266666D01*
X137350000Y-53333333D01*
X137950000Y-53533333D02*
X138016666Y-53566666D01*
X138150000Y-53566666D01*
X138216666Y-53533333D01*
X138250000Y-53466666D01*
X138250000Y-53433333D01*
X138216666Y-53366666D01*
X138150000Y-53333333D01*
X138050000Y-53333333D01*
X137983333Y-53300000D01*
X137950000Y-53233333D01*
X137950000Y-53200000D01*
X137983333Y-53133333D01*
X138050000Y-53100000D01*
X138150000Y-53100000D01*
X138216666Y-53133333D01*
X139083333Y-53566666D02*
X139083333Y-52866666D01*
X139483333Y-53566666D01*
X139483333Y-52866666D01*
X139916666Y-53566666D02*
X139850000Y-53533333D01*
X139816666Y-53500000D01*
X139783333Y-53433333D01*
X139783333Y-53233333D01*
X139816666Y-53166666D01*
X139850000Y-53133333D01*
X139916666Y-53100000D01*
X140016666Y-53100000D01*
X140083333Y-53133333D01*
X140116666Y-53166666D01*
X140150000Y-53233333D01*
X140150000Y-53433333D01*
X140116666Y-53500000D01*
X140083333Y-53533333D01*
X140016666Y-53566666D01*
X139916666Y-53566666D01*
X140383333Y-53100000D02*
X140550000Y-53566666D01*
X140716666Y-53100000D01*
X141483333Y-52933333D02*
X141516666Y-52900000D01*
X141583333Y-52866666D01*
X141750000Y-52866666D01*
X141816666Y-52900000D01*
X141850000Y-52933333D01*
X141883333Y-53000000D01*
X141883333Y-53066666D01*
X141850000Y-53166666D01*
X141450000Y-53566666D01*
X141883333Y-53566666D01*
X142316666Y-52866666D02*
X142383333Y-52866666D01*
X142450000Y-52900000D01*
X142483333Y-52933333D01*
X142516666Y-53000000D01*
X142550000Y-53133333D01*
X142550000Y-53300000D01*
X142516666Y-53433333D01*
X142483333Y-53500000D01*
X142450000Y-53533333D01*
X142383333Y-53566666D01*
X142316666Y-53566666D01*
X142250000Y-53533333D01*
X142216666Y-53500000D01*
X142183333Y-53433333D01*
X142150000Y-53300000D01*
X142150000Y-53133333D01*
X142183333Y-53000000D01*
X142216666Y-52933333D01*
X142250000Y-52900000D01*
X142316666Y-52866666D01*
X142816666Y-52933333D02*
X142850000Y-52900000D01*
X142916666Y-52866666D01*
X143083333Y-52866666D01*
X143150000Y-52900000D01*
X143183333Y-52933333D01*
X143216666Y-53000000D01*
X143216666Y-53066666D01*
X143183333Y-53166666D01*
X142783333Y-53566666D01*
X143216666Y-53566666D01*
X143483333Y-52933333D02*
X143516666Y-52900000D01*
X143583333Y-52866666D01*
X143750000Y-52866666D01*
X143816666Y-52900000D01*
X143850000Y-52933333D01*
X143883333Y-53000000D01*
X143883333Y-53066666D01*
X143850000Y-53166666D01*
X143450000Y-53566666D01*
X143883333Y-53566666D01*
D11*
%TO.C,J7*%
X76777000Y-59673000D02*
G75*
G03*
X65073000Y-59673001I-5852000J-2316971D01*
G01*
X65073000Y-64327000D02*
G75*
G03*
X76777000Y-64326999I5852000J2316971D01*
G01*
D12*
X69325000Y-55405000D02*
G75*
G03*
X69325000Y-55405000I-100000J0D01*
G01*
X69325000Y-55405000D02*
G75*
G03*
X69325000Y-55405000I-100000J0D01*
G01*
%TO.C,J6*%
X96016666Y-78905000D02*
G75*
G03*
X96016666Y-78905000I-100000J0D01*
G01*
X96016666Y-78905000D02*
G75*
G03*
X96016666Y-78905000I-100000J0D01*
G01*
D11*
X91764666Y-87827000D02*
G75*
G03*
X103468666Y-87826999I5852000J2316971D01*
G01*
X103468666Y-83173000D02*
G75*
G03*
X91764666Y-83173001I-5852000J-2316971D01*
G01*
D12*
%TO.C,J5*%
X96016666Y-55405000D02*
G75*
G03*
X96016666Y-55405000I-100000J0D01*
G01*
X96016666Y-55405000D02*
G75*
G03*
X96016666Y-55405000I-100000J0D01*
G01*
D11*
X91764666Y-64327000D02*
G75*
G03*
X103468666Y-64326999I5852000J2316971D01*
G01*
X103468666Y-59673000D02*
G75*
G03*
X91764666Y-59673001I-5852000J-2316971D01*
G01*
D12*
%TO.C,J4*%
X144955000Y-58707000D02*
G75*
G03*
X144955000Y-58707000I-100000J0D01*
G01*
D11*
X145148000Y-64327000D02*
G75*
G03*
X156852000Y-64326999I5852000J2316971D01*
G01*
X156852000Y-59673000D02*
G75*
G03*
X145148000Y-59673001I-5852000J-2316971D01*
G01*
%TO.C,J3*%
X130160332Y-59673000D02*
G75*
G03*
X118456332Y-59673001I-5852000J-2316971D01*
G01*
X118456332Y-64327000D02*
G75*
G03*
X130160332Y-64326999I5852000J2316971D01*
G01*
D12*
X122708332Y-55405000D02*
G75*
G03*
X122708332Y-55405000I-100000J0D01*
G01*
X122708332Y-55405000D02*
G75*
G03*
X122708332Y-55405000I-100000J0D01*
G01*
D11*
%TO.C,J2*%
X76777000Y-83173000D02*
G75*
G03*
X65073000Y-83173001I-5852000J-2316971D01*
G01*
X65073000Y-87827000D02*
G75*
G03*
X76777000Y-87826999I5852000J2316971D01*
G01*
D12*
X69325000Y-78905000D02*
G75*
G03*
X69325000Y-78905000I-100000J0D01*
G01*
X69325000Y-78905000D02*
G75*
G03*
X69325000Y-78905000I-100000J0D01*
G01*
%TO.C,J1*%
X122708332Y-78905000D02*
G75*
G03*
X122708332Y-78905000I-100000J0D01*
G01*
X122708332Y-78905000D02*
G75*
G03*
X122708332Y-78905000I-100000J0D01*
G01*
D11*
X118456332Y-87827000D02*
G75*
G03*
X130160332Y-87826999I5852000J2316971D01*
G01*
X130160332Y-83173000D02*
G75*
G03*
X118456332Y-83173001I-5852000J-2316971D01*
G01*
%TD*%
M02*
