%TF.GenerationSoftware,KiCad,Pcbnew,(6.0.7-1)-1*%
%TF.CreationDate,2022-11-03T21:10:23+11:00*%
%TF.ProjectId,case-connector,63617365-2d63-46f6-9e6e-6563746f722e,rev?*%
%TF.SameCoordinates,Original*%
%TF.FileFunction,Soldermask,Bot*%
%TF.FilePolarity,Negative*%
%FSLAX46Y46*%
G04 Gerber Fmt 4.6, Leading zero omitted, Abs format (unit mm)*
G04 Created by KiCad (PCBNEW (6.0.7-1)-1) date 2022-11-03 21:10:23*
%MOMM*%
%LPD*%
G01*
G04 APERTURE LIST*
%ADD10R,1.244600X4.749800*%
%ADD11C,1.850000*%
%ADD12C,4.016000*%
G04 APERTURE END LIST*
D10*
%TO.C,J8*%
X103380000Y-71124999D03*
X103380000Y-76875001D03*
X105920000Y-71124999D03*
X105920000Y-76875001D03*
X108460000Y-71124999D03*
X108460000Y-76875001D03*
X111000000Y-71124999D03*
X111000000Y-76875001D03*
X113540000Y-71124999D03*
X113540000Y-76875001D03*
X116080000Y-71124999D03*
X116080000Y-76875001D03*
X118620000Y-71124999D03*
X118620000Y-76875001D03*
%TD*%
D11*
%TO.C,J7*%
X69850000Y-63450000D03*
X72000000Y-63450000D03*
X69225000Y-61500000D03*
X72625000Y-61500000D03*
D12*
X77175000Y-62000000D03*
X64675000Y-62000000D03*
%TD*%
%TO.C,J6*%
X91366666Y-85500000D03*
X103866666Y-85500000D03*
D11*
X99316666Y-85000000D03*
X95916666Y-85000000D03*
X98691666Y-86950000D03*
X96541666Y-86950000D03*
%TD*%
D12*
%TO.C,J5*%
X91366666Y-62000000D03*
X103866666Y-62000000D03*
D11*
X99316666Y-61500000D03*
X95916666Y-61500000D03*
X98691666Y-63450000D03*
X96541666Y-63450000D03*
%TD*%
D12*
%TO.C,J4*%
X144750000Y-62000000D03*
X157250000Y-62000000D03*
D11*
X152750000Y-62000000D03*
X149250000Y-62000000D03*
X151000000Y-63750000D03*
%TD*%
%TO.C,J3*%
X123233332Y-63450000D03*
X125383332Y-63450000D03*
X122608332Y-61500000D03*
X126008332Y-61500000D03*
D12*
X130558332Y-62000000D03*
X118058332Y-62000000D03*
%TD*%
D11*
%TO.C,J2*%
X69850000Y-86950000D03*
X72000000Y-86950000D03*
X69225000Y-85000000D03*
X72625000Y-85000000D03*
D12*
X77175000Y-85500000D03*
X64675000Y-85500000D03*
%TD*%
%TO.C,J1*%
X118058332Y-85500000D03*
X130558332Y-85500000D03*
D11*
X126008332Y-85000000D03*
X122608332Y-85000000D03*
X125383332Y-86950000D03*
X123233332Y-86950000D03*
%TD*%
M02*
