M48
; DRILL file {KiCad (6.0.7-1)-1} date Thursday, 03 November 2022 at 09:10:21 pm
; FORMAT={-:-/ absolute / metric / decimal}
; #@! TF.CreationDate,2022-11-03T21:10:21+11:00
; #@! TF.GenerationSoftware,Kicad,Pcbnew,(6.0.7-1)-1
; #@! TF.FileFunction,Plated,1,2,PTH
FMAT,2
METRIC
; #@! TA.AperFunction,Plated,PTH,ViaDrill
T1C0.400
; #@! TA.AperFunction,Plated,PTH,ComponentDrill
T2C1.350
; #@! TA.AperFunction,Plated,PTH,ComponentDrill
T3C3.000
%
G90
G05
T1
X108.5Y-67.25
X120.25Y-67.0
X121.0Y-69.5
X121.0Y-73.5
X121.0Y-76.25
T2
X69.225Y-61.5
X69.225Y-85.0
X69.85Y-63.45
X69.85Y-86.95
X72.0Y-63.45
X72.0Y-86.95
X72.625Y-61.5
X72.625Y-85.0
X95.917Y-61.5
X95.917Y-85.0
X96.542Y-63.45
X96.542Y-86.95
X98.692Y-63.45
X98.692Y-86.95
X99.317Y-61.5
X99.317Y-85.0
X122.608Y-61.5
X122.608Y-85.0
X123.233Y-63.45
X123.233Y-86.95
X125.383Y-63.45
X125.383Y-86.95
X126.008Y-61.5
X126.008Y-85.0
X149.25Y-62.0
X151.0Y-63.75
X152.75Y-62.0
T3
X64.675Y-62.0
X64.675Y-85.5
X77.175Y-62.0
X77.175Y-85.5
X91.367Y-62.0
X91.367Y-85.5
X103.867Y-62.0
X103.867Y-85.5
X118.058Y-62.0
X118.058Y-85.5
X130.558Y-62.0
X130.558Y-85.5
X144.75Y-62.0
X157.25Y-62.0
T0
M30
