M48
; DRILL file {KiCad (6.0.7-1)-1} date Wednesday, 16 November 2022 at 08:26:58 am
; FORMAT={-:-/ absolute / metric / decimal}
; #@! TF.CreationDate,2022-11-16T08:26:58+11:00
; #@! TF.GenerationSoftware,Kicad,Pcbnew,(6.0.7-1)-1
; #@! TF.FileFunction,Plated,1,2,PTH
FMAT,2
METRIC
; #@! TA.AperFunction,Plated,PTH,ComponentDrill
T1C0.600
; #@! TA.AperFunction,Plated,PTH,ComponentDrill
T2C1.295
; #@! TA.AperFunction,Plated,PTH,ComponentDrill
T3C4.300
%
G90
G05
T1
X38.025Y-100.5
X38.97Y-98.22
X38.97Y-102.78
X41.25Y-97.275
X41.25Y-103.725
X43.53Y-98.22
X43.53Y-102.78
X44.475Y-100.5
X88.025Y-35.5
X88.025Y-165.5
X88.97Y-33.22
X88.97Y-37.78
X88.97Y-163.22
X88.97Y-167.78
X91.25Y-32.275
X91.25Y-38.725
X91.25Y-162.275
X91.25Y-168.725
X93.53Y-33.22
X93.53Y-37.78
X93.53Y-163.22
X93.53Y-167.78
X94.475Y-35.5
X94.475Y-165.5
X138.025Y-100.5
X138.97Y-98.22
X138.97Y-102.78
X141.25Y-97.275
X141.25Y-103.725
X143.53Y-98.22
X143.53Y-102.78
X144.475Y-100.5
T2
X62.0Y-63.25
X62.0Y-71.45
X62.0Y-107.25
X62.0Y-112.25
X62.0Y-117.25
X62.05Y-83.5
X62.05Y-88.5
X62.05Y-93.5
X62.25Y-130.05
X62.25Y-138.25
X67.0Y-63.25
X67.0Y-71.45
X67.25Y-130.05
X67.25Y-138.25
X70.2Y-107.25
X70.2Y-112.25
X70.2Y-117.25
X70.25Y-83.5
X70.25Y-88.5
X70.25Y-93.5
X72.0Y-63.25
X72.0Y-71.45
X72.25Y-130.05
X72.25Y-138.25
X86.202Y-63.25
X86.202Y-71.45
X86.274Y-130.05
X86.274Y-138.25
X91.202Y-63.25
X91.202Y-71.45
X91.274Y-130.05
X91.274Y-138.25
X96.202Y-63.25
X96.202Y-71.45
X96.274Y-130.05
X96.274Y-138.25
X110.298Y-130.05
X110.298Y-138.25
X110.75Y-63.25
X110.75Y-71.45
X114.0Y-90.5
X114.0Y-95.5
X114.0Y-100.5
X114.0Y-105.5
X114.0Y-110.5
X115.298Y-130.05
X115.298Y-138.25
X115.75Y-63.25
X115.75Y-71.45
X120.298Y-130.05
X120.298Y-138.25
X120.75Y-63.25
X120.75Y-71.45
X122.2Y-90.5
X122.2Y-95.5
X122.2Y-100.5
X122.2Y-105.5
X122.2Y-110.5
T3
X41.25Y-100.5
X91.25Y-35.5
X91.25Y-165.5
X141.25Y-100.5
T0
M30
