%TF.GenerationSoftware,KiCad,Pcbnew,(6.0.7-1)-1*%
%TF.CreationDate,2022-11-16T08:27:03+11:00*%
%TF.ProjectId,breakout,62726561-6b6f-4757-942e-6b696361645f,rev?*%
%TF.SameCoordinates,Original*%
%TF.FileFunction,Profile,NP*%
%FSLAX46Y46*%
G04 Gerber Fmt 4.6, Leading zero omitted, Abs format (unit mm)*
G04 Created by KiCad (PCBNEW (6.0.7-1)-1) date 2022-11-16 08:27:03*
%MOMM*%
%LPD*%
G01*
G04 APERTURE LIST*
%TA.AperFunction,Profile*%
%ADD10C,0.050000*%
%TD*%
%TA.AperFunction,Profile*%
%ADD11C,0.200000*%
%TD*%
%ADD12C,0.200000*%
G04 APERTURE END LIST*
D10*
X42916666Y-100500000D02*
G75*
G03*
X42916666Y-100500000I-1666666J0D01*
G01*
X38750000Y-100500000D02*
X43750000Y-100500000D01*
X41250000Y-98000000D02*
X41250000Y-103000000D01*
X92916666Y-165500000D02*
G75*
G03*
X92916666Y-165500000I-1666666J0D01*
G01*
X88750000Y-165500000D02*
X93750000Y-165500000D01*
X91250000Y-163000000D02*
X91250000Y-168000000D01*
X142916666Y-100500000D02*
G75*
G03*
X142916666Y-100500000I-1666666J0D01*
G01*
X138750000Y-100500000D02*
X143750000Y-100500000D01*
X141250000Y-98000000D02*
X141250000Y-103000000D01*
X92916666Y-35500000D02*
G75*
G03*
X92916666Y-35500000I-1666666J0D01*
G01*
X88750000Y-35500000D02*
X93750000Y-35500000D01*
X91250000Y-33000000D02*
X91250000Y-38000000D01*
D11*
X51250000Y-32500000D02*
X51250000Y-77522000D01*
X51250000Y-123517000D02*
X51250000Y-168539000D01*
D12*
X143283700Y-113526000D02*
X143542239Y-113519487D01*
X143797332Y-113500159D01*
X144048664Y-113468334D01*
X144295918Y-113424326D01*
X144538778Y-113368452D01*
X144776926Y-113301028D01*
X145010047Y-113222371D01*
X145237825Y-113132796D01*
X145459942Y-113032621D01*
X145676082Y-112922160D01*
X145885930Y-112801731D01*
X146089168Y-112671650D01*
X146285481Y-112532232D01*
X146474551Y-112383795D01*
X146656063Y-112226653D01*
X146829700Y-112061125D01*
X146995145Y-111887524D01*
X147152082Y-111706169D01*
X147300196Y-111517375D01*
X147439168Y-111321458D01*
X147568684Y-111118735D01*
X147688426Y-110909522D01*
X147798078Y-110694135D01*
X147897325Y-110472890D01*
X147985848Y-110246104D01*
X148063332Y-110014092D01*
X148129461Y-109777171D01*
X148183918Y-109535658D01*
X148226387Y-109289868D01*
X148256551Y-109040117D01*
X148274094Y-108786722D01*
X148278700Y-108530000D01*
D11*
X41260700Y-87513000D02*
X39259800Y-87492000D01*
X126264700Y-27504000D02*
X56267600Y-27504000D01*
D12*
X51250000Y-168539000D02*
X51258528Y-168795631D01*
X51279742Y-169048941D01*
X51313330Y-169298612D01*
X51358979Y-169544328D01*
X51416379Y-169785772D01*
X51485217Y-170022628D01*
X51565180Y-170254581D01*
X51655957Y-170481312D01*
X51757237Y-170702506D01*
X51868706Y-170917847D01*
X51990053Y-171127018D01*
X52120966Y-171329703D01*
X52261133Y-171525584D01*
X52410241Y-171714347D01*
X52567980Y-171895674D01*
X52734037Y-172069250D01*
X52908100Y-172234756D01*
X53089856Y-172391878D01*
X53278995Y-172540299D01*
X53475204Y-172679703D01*
X53678170Y-172809772D01*
X53887583Y-172930191D01*
X54103129Y-173040643D01*
X54324498Y-173140812D01*
X54551377Y-173230381D01*
X54783453Y-173309035D01*
X55020416Y-173376456D01*
X55261952Y-173432328D01*
X55507751Y-173476334D01*
X55757500Y-173508160D01*
X56010887Y-173527487D01*
X56267600Y-173534000D01*
D11*
X56267600Y-173534000D02*
X126264700Y-173534000D01*
D12*
X131282700Y-77522000D02*
X131295711Y-78035794D01*
X131334327Y-78542882D01*
X131397918Y-79042635D01*
X131485858Y-79534421D01*
X131597517Y-80017612D01*
X131732267Y-80491578D01*
X131889480Y-80955687D01*
X132068528Y-81409312D01*
X132268782Y-81851821D01*
X132489615Y-82282585D01*
X132730398Y-82700975D01*
X132990502Y-83106359D01*
X133269300Y-83498108D01*
X133566164Y-83875593D01*
X133880465Y-84238184D01*
X134211575Y-84585250D01*
X134558865Y-84916161D01*
X134921708Y-85230289D01*
X135299474Y-85527002D01*
X135691537Y-85805671D01*
X136097268Y-86065667D01*
X136516038Y-86306359D01*
X136947219Y-86527117D01*
X137390184Y-86727312D01*
X137844303Y-86906313D01*
X138308949Y-87063492D01*
X138783493Y-87198217D01*
X139267307Y-87309859D01*
X139759763Y-87397788D01*
X140260232Y-87461375D01*
X140768087Y-87499988D01*
X141282700Y-87513000D01*
X141273700Y-113526000D02*
X140759905Y-113537104D01*
X140252817Y-113573933D01*
X139753064Y-113635858D01*
X139261278Y-113722250D01*
X138778087Y-113832477D01*
X138304121Y-113965910D01*
X137840012Y-114121919D01*
X137386387Y-114299875D01*
X136943878Y-114499146D01*
X136513114Y-114719105D01*
X136094724Y-114959120D01*
X135689340Y-115218562D01*
X135297591Y-115496801D01*
X134920106Y-115793207D01*
X134557515Y-116107149D01*
X134210450Y-116438000D01*
X133879538Y-116785127D01*
X133565410Y-117147902D01*
X133268697Y-117525694D01*
X132990028Y-117917875D01*
X132730032Y-118323812D01*
X132489340Y-118742878D01*
X132268582Y-119174442D01*
X132068387Y-119617875D01*
X131889386Y-120072545D01*
X131732207Y-120537824D01*
X131597482Y-121013081D01*
X131485840Y-121497687D01*
X131397911Y-121991012D01*
X131334325Y-122492425D01*
X131295711Y-123001298D01*
X131282700Y-123517000D01*
X51250000Y-123517000D02*
X51238999Y-123001298D01*
X51202257Y-122492425D01*
X51140405Y-121991012D01*
X51054073Y-121497687D01*
X50943892Y-121013081D01*
X50810495Y-120537824D01*
X50654511Y-120072545D01*
X50476573Y-119617875D01*
X50277311Y-119174442D01*
X50057357Y-118742878D01*
X49817341Y-118323812D01*
X49557896Y-117917875D01*
X49279651Y-117525694D01*
X48983239Y-117147902D01*
X48669291Y-116785127D01*
X48338437Y-116438000D01*
X47991309Y-116107149D01*
X47628538Y-115793207D01*
X47250755Y-115496801D01*
X46858592Y-115218562D01*
X46452680Y-114959120D01*
X46033649Y-114719105D01*
X45602131Y-114499146D01*
X45158757Y-114299875D01*
X44704159Y-114121919D01*
X44238967Y-113965910D01*
X43763813Y-113832477D01*
X43279328Y-113722250D01*
X42786143Y-113635858D01*
X42284889Y-113573933D01*
X41776197Y-113537104D01*
X41260700Y-113526000D01*
D11*
X141273700Y-113526000D02*
X143283700Y-113526000D01*
X131282700Y-168539000D02*
X131282700Y-123517000D01*
X143283700Y-87513000D02*
X141282700Y-87513000D01*
D12*
X41260700Y-87513000D02*
X41776197Y-87499988D01*
X42284889Y-87461375D01*
X42786143Y-87397788D01*
X43279328Y-87309859D01*
X43763813Y-87198217D01*
X44238967Y-87063492D01*
X44704159Y-86906313D01*
X45158757Y-86727312D01*
X45602131Y-86527117D01*
X46033649Y-86306359D01*
X46452680Y-86065667D01*
X46858592Y-85805671D01*
X47250755Y-85527002D01*
X47628538Y-85230289D01*
X47991309Y-84916161D01*
X48338437Y-84585250D01*
X48669291Y-84238184D01*
X48983239Y-83875593D01*
X49279651Y-83498108D01*
X49557896Y-83106359D01*
X49817341Y-82700975D01*
X50057357Y-82282585D01*
X50277311Y-81851821D01*
X50476573Y-81409312D01*
X50654511Y-80955687D01*
X50810495Y-80491578D01*
X50943892Y-80017612D01*
X51054073Y-79534421D01*
X51140405Y-79042635D01*
X51202257Y-78542882D01*
X51238999Y-78035794D01*
X51250000Y-77522000D01*
D11*
X131282700Y-77522000D02*
X131282700Y-32500000D01*
D12*
X131282700Y-32500000D02*
X131276183Y-32241372D01*
X131256843Y-31986202D01*
X131224992Y-31734803D01*
X131180942Y-31487492D01*
X131125006Y-31244584D01*
X131057497Y-31006395D01*
X130978728Y-30773241D01*
X130889012Y-30545437D01*
X130788661Y-30323299D01*
X130677988Y-30107143D01*
X130557305Y-29897284D01*
X130426926Y-29694039D01*
X130287163Y-29497722D01*
X130138329Y-29308649D01*
X129980737Y-29127136D01*
X129814700Y-28953500D01*
X129640529Y-28788054D01*
X129458538Y-28631116D01*
X129269040Y-28483000D01*
X129072348Y-28344023D01*
X128868774Y-28214500D01*
X128658630Y-28094747D01*
X128442230Y-27985079D01*
X128219887Y-27885812D01*
X127991913Y-27797262D01*
X127758620Y-27719745D01*
X127520323Y-27653575D01*
X127277332Y-27599070D01*
X127029962Y-27556544D01*
X126778525Y-27526313D01*
X126523333Y-27508693D01*
X126264700Y-27504000D01*
D11*
X39248800Y-113526000D02*
X41260700Y-113526000D01*
D12*
X56267600Y-27504000D02*
X56010887Y-27508693D01*
X55757500Y-27526313D01*
X55507751Y-27556544D01*
X55261952Y-27599070D01*
X55020416Y-27653575D01*
X54783453Y-27719745D01*
X54551377Y-27797262D01*
X54324498Y-27885812D01*
X54103129Y-27985079D01*
X53887583Y-28094747D01*
X53678170Y-28214500D01*
X53475204Y-28344023D01*
X53278995Y-28483000D01*
X53089856Y-28631116D01*
X52908100Y-28788054D01*
X52734037Y-28953500D01*
X52567980Y-29127136D01*
X52410241Y-29308649D01*
X52261133Y-29497722D01*
X52120966Y-29694039D01*
X51990053Y-29897284D01*
X51868706Y-30107143D01*
X51757237Y-30323299D01*
X51655957Y-30545437D01*
X51565180Y-30773241D01*
X51485217Y-31006395D01*
X51416379Y-31244584D01*
X51358979Y-31487492D01*
X51313330Y-31734803D01*
X51279742Y-31986202D01*
X51258528Y-32241372D01*
X51250000Y-32500000D01*
X148278700Y-92508000D02*
X148274094Y-92249460D01*
X148256551Y-91994367D01*
X148226387Y-91743035D01*
X148183918Y-91495781D01*
X148129461Y-91252921D01*
X148063332Y-91014773D01*
X147985848Y-90781652D01*
X147897325Y-90553875D01*
X147798078Y-90331757D01*
X147688426Y-90115617D01*
X147568684Y-89905769D01*
X147439168Y-89702531D01*
X147300196Y-89506218D01*
X147152082Y-89317148D01*
X146995145Y-89135636D01*
X146829700Y-88962000D01*
X146656063Y-88796554D01*
X146474551Y-88639617D01*
X146285481Y-88491503D01*
X146089168Y-88352531D01*
X145885930Y-88223015D01*
X145676082Y-88103273D01*
X145459942Y-87993621D01*
X145237825Y-87894375D01*
X145010047Y-87805851D01*
X144776926Y-87728367D01*
X144538778Y-87662238D01*
X144295918Y-87607781D01*
X144048664Y-87565312D01*
X143797332Y-87535148D01*
X143542239Y-87517605D01*
X143283700Y-87513000D01*
D11*
X34253500Y-92508000D02*
X34253500Y-108521000D01*
X148278700Y-108530000D02*
X148278700Y-92508000D01*
D12*
X34253500Y-108521000D02*
X34260015Y-108778540D01*
X34279349Y-109032701D01*
X34311186Y-109283169D01*
X34355209Y-109529628D01*
X34411100Y-109771765D01*
X34478543Y-110009265D01*
X34557222Y-110241812D01*
X34646818Y-110469093D01*
X34747016Y-110690793D01*
X34857499Y-110906598D01*
X34977949Y-111116192D01*
X35108050Y-111319261D01*
X35247484Y-111515491D01*
X35395936Y-111704567D01*
X35553089Y-111886175D01*
X35718625Y-112060000D01*
X35892227Y-112225726D01*
X36073579Y-112383041D01*
X36262364Y-112531629D01*
X36458265Y-112671175D01*
X36660965Y-112801366D01*
X36870148Y-112921886D01*
X37085496Y-113032421D01*
X37306693Y-113132656D01*
X37533422Y-113222277D01*
X37765366Y-113300969D01*
X38002208Y-113368417D01*
X38243631Y-113424308D01*
X38489318Y-113468326D01*
X38738954Y-113500157D01*
X38992220Y-113519486D01*
X39248800Y-113526000D01*
X39259800Y-87492000D02*
X39002220Y-87498513D01*
X38748017Y-87517844D01*
X38497506Y-87549682D01*
X38251000Y-87593712D01*
X38008815Y-87649624D01*
X37771266Y-87717103D01*
X37538667Y-87795837D01*
X37311334Y-87885515D01*
X37089581Y-87985823D01*
X36873723Y-88096449D01*
X36664074Y-88217080D01*
X36460951Y-88347404D01*
X36264667Y-88487108D01*
X36075537Y-88635879D01*
X35893876Y-88793406D01*
X35720000Y-88959375D01*
X35554222Y-89133473D01*
X35396858Y-89315389D01*
X35248222Y-89504810D01*
X35108630Y-89701423D01*
X34978395Y-89904916D01*
X34857834Y-90114976D01*
X34747261Y-90331290D01*
X34646990Y-90553546D01*
X34557337Y-90781432D01*
X34478616Y-91014635D01*
X34411142Y-91252841D01*
X34355230Y-91495740D01*
X34311195Y-91743017D01*
X34279352Y-91994362D01*
X34260015Y-92249460D01*
X34253500Y-92508000D01*
X126264700Y-173534000D02*
X126523333Y-173527487D01*
X126778525Y-173508160D01*
X127029962Y-173476334D01*
X127277332Y-173432328D01*
X127520323Y-173376456D01*
X127758620Y-173309035D01*
X127991913Y-173230381D01*
X128219887Y-173140812D01*
X128442230Y-173040643D01*
X128658630Y-172930191D01*
X128868774Y-172809772D01*
X129072348Y-172679703D01*
X129269040Y-172540299D01*
X129458538Y-172391878D01*
X129640529Y-172234756D01*
X129814700Y-172069250D01*
X129980737Y-171895674D01*
X130138329Y-171714347D01*
X130287163Y-171525584D01*
X130426926Y-171329703D01*
X130557305Y-171127018D01*
X130677988Y-170917847D01*
X130788661Y-170702506D01*
X130889012Y-170481312D01*
X130978728Y-170254581D01*
X131057497Y-170022628D01*
X131125006Y-169785772D01*
X131180942Y-169544328D01*
X131224992Y-169298612D01*
X131256843Y-169048941D01*
X131276183Y-168795631D01*
X131282700Y-168539000D01*
M02*
