<svg width="270" height="58" viewBox="0 0 270 58" fill="none" xmlns="http://www.w3.org/2000/svg">
<rect width="92" height="58" rx="6" fill="black"/>
<path d="M22 46H11.2273V11.0909H22.4773C25.8636 11.0909 28.7614 11.7898 31.1705 13.1875C33.5795 14.5739 35.4261 16.5682 36.7102 19.1705C37.9943 21.7614 38.6364 24.8636 38.6364 28.4773C38.6364 32.1136 37.9886 35.2443 36.6932 37.8693C35.3977 40.483 33.5114 42.4943 31.0341 43.9034C28.5568 45.3011 25.5455 46 22 46ZM15.4545 42.25H21.7273C24.6136 42.25 27.0057 41.6932 28.9034 40.5795C30.8011 39.4659 32.2159 37.8807 33.1477 35.8239C34.0795 33.767 34.5455 31.3182 34.5455 28.4773C34.5455 25.6591 34.0852 23.233 33.1648 21.1989C32.2443 19.1534 30.8693 17.5852 29.0398 16.4943C27.2102 15.392 24.9318 14.8409 22.2045 14.8409H15.4545V42.25ZM45.7273 46V11.0909H57.5227C60.2614 11.0909 62.5 11.5852 64.2386 12.5739C65.9886 13.5511 67.2841 14.875 68.125 16.5455C68.9659 18.2159 69.3864 20.0795 69.3864 22.1364C69.3864 24.1932 68.9659 26.0625 68.125 27.7443C67.2955 29.4261 66.0114 30.767 64.2727 31.767C62.5341 32.7557 60.3068 33.25 57.5909 33.25H49.1364V29.5H57.4545C59.3295 29.5 60.8352 29.1761 61.9716 28.5284C63.108 27.8807 63.9318 27.0057 64.4432 25.9034C64.9659 24.7898 65.2273 23.5341 65.2273 22.1364C65.2273 20.7386 64.9659 19.4886 64.4432 18.3864C63.9318 17.2841 63.1023 16.4205 61.9545 15.7955C60.8068 15.1591 59.2841 14.8409 57.3864 14.8409H49.9545V46H45.7273ZM80.4233 11.0909V46H76.196V11.0909H80.4233Z" fill="white"/>
<path d="M130.49 22H126.263C126.013 20.7841 125.575 19.7159 124.95 18.7955C124.337 17.875 123.587 17.1023 122.7 16.4773C121.825 15.8409 120.854 15.3636 119.786 15.0455C118.717 14.7273 117.604 14.5682 116.445 14.5682C114.331 14.5682 112.416 15.1023 110.7 16.1705C108.996 17.2386 107.638 18.8125 106.626 20.892C105.626 22.9716 105.126 25.5227 105.126 28.5455C105.126 31.5682 105.626 34.1193 106.626 36.1989C107.638 38.2784 108.996 39.8523 110.7 40.9205C112.416 41.9886 114.331 42.5227 116.445 42.5227C117.604 42.5227 118.717 42.3636 119.786 42.0455C120.854 41.7273 121.825 41.2557 122.7 40.6307C123.587 39.9943 124.337 39.2159 124.95 38.2955C125.575 37.3636 126.013 36.2955 126.263 35.0909H130.49C130.172 36.875 129.592 38.4716 128.751 39.8807C127.911 41.2898 126.865 42.4886 125.615 43.4773C124.365 44.4545 122.962 45.1989 121.405 45.7102C119.859 46.2216 118.206 46.4773 116.445 46.4773C113.467 46.4773 110.82 45.75 108.501 44.2955C106.183 42.8409 104.359 40.7727 103.03 38.0909C101.7 35.4091 101.036 32.2273 101.036 28.5455C101.036 24.8636 101.7 21.6818 103.03 19C104.359 16.3182 106.183 14.25 108.501 12.7955C110.82 11.3409 113.467 10.6136 116.445 10.6136C118.206 10.6136 119.859 10.8693 121.405 11.3807C122.962 11.892 124.365 12.642 125.615 13.6307C126.865 14.608 127.911 15.8011 128.751 17.2102C129.592 18.608 130.172 20.2045 130.49 22ZM140.798 11.0909V46H136.776V11.0909H140.798ZM148.166 46V19.8182H152.189V46H148.166ZM150.212 15.4545C149.428 15.4545 148.751 15.1875 148.183 14.6534C147.626 14.1193 147.348 13.4773 147.348 12.7273C147.348 11.9773 147.626 11.3352 148.183 10.8011C148.751 10.267 149.428 10 150.212 10C150.996 10 151.666 10.267 152.223 10.8011C152.791 11.3352 153.075 11.9773 153.075 12.7273C153.075 13.4773 152.791 14.1193 152.223 14.6534C151.666 15.1875 150.996 15.4545 150.212 15.4545ZM159.557 46V19.8182H163.443V23.9091H163.784C164.33 22.5114 165.21 21.4261 166.426 20.6534C167.642 19.8693 169.102 19.4773 170.807 19.4773C172.534 19.4773 173.972 19.8693 175.119 20.6534C176.278 21.4261 177.182 22.5114 177.83 23.9091H178.102C178.773 22.5568 179.778 21.483 181.119 20.6875C182.46 19.8807 184.068 19.4773 185.943 19.4773C188.284 19.4773 190.199 20.2102 191.688 21.6761C193.176 23.1307 193.92 25.3977 193.92 28.4773V46H189.898V28.4773C189.898 26.5455 189.369 25.1648 188.312 24.3352C187.256 23.5057 186.011 23.0909 184.58 23.0909C182.739 23.0909 181.313 23.6477 180.301 24.7614C179.29 25.8636 178.784 27.2614 178.784 28.9545V46H174.693V28.0682C174.693 26.5795 174.21 25.3807 173.244 24.4716C172.278 23.5511 171.034 23.0909 169.511 23.0909C168.466 23.0909 167.489 23.3693 166.58 23.9261C165.682 24.483 164.955 25.2557 164.398 26.2443C163.852 27.2216 163.58 28.3523 163.58 29.6364V46H159.557ZM208.98 46.6136C207.321 46.6136 205.815 46.3011 204.463 45.6761C203.111 45.0398 202.037 44.125 201.241 42.9318C200.446 41.7273 200.048 40.2727 200.048 38.5682C200.048 37.0682 200.344 35.8523 200.935 34.9205C201.526 33.9773 202.315 33.2386 203.304 32.7045C204.293 32.1705 205.384 31.7727 206.577 31.5114C207.781 31.2386 208.991 31.0227 210.207 30.8636C211.798 30.6591 213.088 30.5057 214.077 30.4034C215.077 30.2898 215.804 30.1023 216.259 29.8409C216.724 29.5795 216.957 29.125 216.957 28.4773V28.3409C216.957 26.6591 216.497 25.3523 215.577 24.4205C214.668 23.4886 213.287 23.0227 211.435 23.0227C209.514 23.0227 208.009 23.4432 206.918 24.2841C205.827 25.125 205.06 26.0227 204.616 26.9773L200.798 25.6136C201.48 24.0227 202.389 22.7841 203.526 21.8977C204.673 21 205.923 20.375 207.276 20.0227C208.639 19.6591 209.98 19.4773 211.298 19.4773C212.139 19.4773 213.105 19.5795 214.196 19.7841C215.298 19.9773 216.361 20.3807 217.384 20.9943C218.418 21.608 219.276 22.5341 219.957 23.7727C220.639 25.0114 220.98 26.6705 220.98 28.75V46H216.957V42.4545H216.753C216.48 43.0227 216.026 43.6307 215.389 44.2784C214.753 44.9261 213.906 45.4773 212.849 45.9318C211.793 46.3864 210.503 46.6136 208.98 46.6136ZM209.594 43C211.185 43 212.526 42.6875 213.616 42.0625C214.719 41.4375 215.548 40.6307 216.105 39.642C216.673 38.6534 216.957 37.6136 216.957 36.5227V32.8409C216.787 33.0455 216.412 33.233 215.832 33.4034C215.264 33.5625 214.605 33.7045 213.855 33.8295C213.116 33.9432 212.395 34.0455 211.69 34.1364C210.997 34.2159 210.435 34.2841 210.003 34.3409C208.957 34.4773 207.98 34.6989 207.071 35.0057C206.173 35.3011 205.446 35.75 204.889 36.3523C204.344 36.9432 204.071 37.75 204.071 38.7727C204.071 40.1705 204.588 41.2273 205.622 41.9432C206.668 42.6477 207.991 43 209.594 43ZM239.709 19.8182V23.2273H226.141V19.8182H239.709ZM230.095 13.5455H234.118V38.5C234.118 39.6364 234.283 40.4886 234.612 41.0568C234.953 41.6136 235.385 41.9886 235.908 42.1818C236.442 42.3636 237.004 42.4545 237.595 42.4545C238.038 42.4545 238.402 42.4318 238.686 42.3864C238.97 42.3295 239.197 42.2841 239.368 42.25L240.186 45.8636C239.913 45.9659 239.533 46.0682 239.044 46.1705C238.555 46.2841 237.936 46.3409 237.186 46.3409C236.05 46.3409 234.936 46.0966 233.845 45.608C232.766 45.1193 231.868 44.375 231.152 43.375C230.447 42.375 230.095 41.1136 230.095 39.5909V13.5455ZM256.456 46.5455C253.933 46.5455 251.757 45.9886 249.928 44.875C248.109 43.75 246.706 42.1818 245.717 40.1705C244.74 38.1477 244.251 35.7955 244.251 33.1136C244.251 30.4318 244.74 28.0682 245.717 26.0227C246.706 23.9659 248.081 22.3636 249.842 21.2159C251.615 20.0568 253.683 19.4773 256.047 19.4773C257.411 19.4773 258.757 19.7045 260.087 20.1591C261.416 20.6136 262.626 21.3523 263.717 22.375C264.808 23.3864 265.678 24.7273 266.325 26.3977C266.973 28.0682 267.297 30.125 267.297 32.5682V34.2727H247.115V30.7955H263.206C263.206 29.3182 262.911 28 262.32 26.8409C261.74 25.6818 260.911 24.767 259.831 24.0966C258.763 23.4261 257.501 23.0909 256.047 23.0909C254.445 23.0909 253.058 23.4886 251.888 24.2841C250.729 25.0682 249.837 26.0909 249.212 27.3523C248.587 28.6136 248.274 29.9659 248.274 31.4091V33.7273C248.274 35.7045 248.615 37.3807 249.297 38.7557C249.99 40.1193 250.95 41.1591 252.178 41.875C253.405 42.5795 254.831 42.9318 256.456 42.9318C257.513 42.9318 258.467 42.7841 259.32 42.4886C260.183 42.1818 260.928 41.7273 261.553 41.125C262.178 40.5114 262.661 39.75 263.001 38.8409L266.888 39.9318C266.479 41.25 265.791 42.4091 264.825 43.4091C263.859 44.3977 262.666 45.1705 261.246 45.7273C259.825 46.2727 258.229 46.5455 256.456 46.5455Z" fill="black"/>
</svg>
